<?xml version="1.0" encoding="UTF-8"?>
<svg xmlns="http://www.w3.org/2000/svg" xmlns:xlink="http://www.w3.org/1999/xlink" width="121pt" height="106pt" viewBox="0 0 121 106" version="1.1">
<g id="surface1">
<path style=" stroke:none;fill-rule:nonzero;fill:rgb(93.527222%,17.272949%,18.882751%);fill-opacity:1;" d="M 5.210938 105.527344 L 115.585938 105.527344 C 119.40625 105.527344 121.792969 101.394531 119.886719 98.085938 L 64.695312 2.496094 C 62.785156 -0.8125 58.011719 -0.8125 56.101562 2.496094 L 0.910156 98.085938 C -0.996094 101.394531 1.390625 105.527344 5.210938 105.527344 "/>
<path style=" stroke:none;fill-rule:nonzero;fill:rgb(100%,100%,100%);fill-opacity:1;" d="M 13.800781 95.605469 L 106.996094 95.605469 L 60.398438 14.902344 L 13.800781 95.605469 "/>
<path style=" stroke:none;fill-rule:nonzero;fill:rgb(13.729858%,12.159729%,12.548828%);fill-opacity:1;" d="M 46.777344 48.128906 L 52.816406 48.234375 L 52.871094 76.058594 L 57.445312 74.972656 C 57.71875 74.90625 58.011719 75.027344 58.167969 75.257812 C 58.328125 75.496094 58.328125 75.800781 58.167969 76.027344 L 50.40625 87.484375 C 50.265625 87.691406 50.023438 87.808594 49.773438 87.808594 C 49.539062 87.800781 49.316406 87.679688 49.1875 87.484375 L 41.46875 76.058594 C 41.320312 75.835938 41.308594 75.527344 41.449219 75.28125 C 41.613281 75.007812 41.9375 74.875 42.253906 74.953125 L 46.742188 76.082031 L 46.777344 48.128906 M 67.859375 86.394531 L 67.894531 58.472656 L 63.363281 59.585938 C 63.058594 59.660156 62.742188 59.542969 62.570312 59.292969 C 62.382812 59.027344 62.382812 58.691406 62.558594 58.425781 L 70.316406 47.03125 C 70.445312 46.839844 70.675781 46.707031 70.917969 46.707031 C 71.167969 46.695312 71.40625 46.828125 71.550781 47.03125 L 79.332031 58.453125 C 79.507812 58.710938 79.496094 59.050781 79.320312 59.300781 C 79.148438 59.554688 78.832031 59.671875 78.535156 59.597656 L 73.984375 58.484375 L 73.882812 86.382812 L 67.859375 86.394531 "/>
</g>
</svg>
