<?xml version="1.0" encoding="UTF-8"?>
<svg xmlns="http://www.w3.org/2000/svg" xmlns:xlink="http://www.w3.org/1999/xlink" width="86pt" height="86pt" viewBox="0 0 86 86" version="1.1">
<g id="surface1">
<path style=" stroke:none;fill-rule:nonzero;fill:rgb(93.527222%,17.272949%,18.882751%);fill-opacity:1;" d="M 42.523438 0.648438 C 66.007812 0.648438 85.042969 19.683594 85.042969 43.167969 C 85.042969 66.652344 66.007812 85.6875 42.523438 85.6875 C 19.042969 85.6875 0.00390625 66.652344 0.00390625 43.167969 C 0.00390625 19.683594 19.042969 0.648438 42.523438 0.648438 "/>
<path style=" stroke:none;fill-rule:nonzero;fill:rgb(100%,100%,100%);fill-opacity:1;" d="M 42.523438 14.820312 C 46.375 14.820312 50.050781 15.5625 53.554688 17.042969 C 56.945312 18.476562 59.949219 20.503906 62.570312 23.125 C 65.1875 25.742188 67.214844 28.75 68.648438 32.136719 C 70.128906 35.640625 70.871094 39.316406 70.871094 43.167969 C 70.871094 47.019531 70.128906 50.695312 68.648438 54.199219 C 67.214844 57.585938 65.1875 60.59375 62.570312 63.210938 C 59.949219 65.832031 56.945312 67.859375 53.554688 69.292969 C 50.050781 70.773438 46.375 71.515625 42.523438 71.515625 C 38.671875 71.515625 34.996094 70.773438 31.496094 69.292969 C 28.105469 67.859375 25.101562 65.832031 22.480469 63.210938 C 19.859375 60.59375 17.832031 57.585938 16.398438 54.199219 C 14.917969 50.695312 14.175781 47.019531 14.175781 43.167969 C 14.175781 39.316406 14.917969 35.640625 16.398438 32.136719 C 17.832031 28.75 19.859375 25.742188 22.480469 23.125 C 25.101562 20.503906 28.105469 18.476562 31.496094 17.042969 C 34.996094 15.5625 38.671875 14.820312 42.523438 14.820312 "/>
</g>
</svg>
