<?xml version="1.0" encoding="UTF-8"?>
<svg xmlns="http://www.w3.org/2000/svg" xmlns:xlink="http://www.w3.org/1999/xlink" width="86pt" height="86pt" viewBox="0 0 86 86" version="1.1">
<g id="surface1">
<path style=" stroke:none;fill-rule:nonzero;fill:rgb(93.527222%,17.272949%,18.882751%);fill-opacity:1;" d="M 42.523438 0.648438 C 66.007812 0.648438 85.042969 19.683594 85.042969 43.167969 C 85.042969 66.652344 66.007812 85.6875 42.523438 85.6875 C 19.042969 85.6875 0.00390625 66.652344 0.00390625 43.167969 C 0.00390625 19.683594 19.042969 0.648438 42.523438 0.648438 "/>
<path style=" stroke:none;fill-rule:nonzero;fill:rgb(100%,100%,100%);fill-opacity:1;" d="M 42.527344 14.816406 C 46.378906 14.816406 50.054688 15.558594 53.558594 17.039062 C 56.949219 18.472656 59.953125 20.5 62.574219 23.121094 C 65.191406 25.738281 67.21875 28.746094 68.652344 32.136719 C 70.132812 35.636719 70.875 39.3125 70.875 43.164062 C 70.875 47.015625 70.132812 50.691406 68.652344 54.195312 C 67.21875 57.582031 65.191406 60.589844 62.574219 63.207031 C 59.953125 65.828125 56.949219 67.855469 53.558594 69.289062 C 50.054688 70.769531 46.378906 71.511719 42.527344 71.511719 C 38.675781 71.511719 35 70.769531 31.5 69.289062 C 28.109375 67.855469 25.105469 65.828125 22.484375 63.207031 C 19.863281 60.589844 17.835938 57.582031 16.402344 54.195312 C 14.921875 50.691406 14.179688 47.015625 14.179688 43.164062 C 14.179688 39.3125 14.921875 35.636719 16.402344 32.136719 C 17.835938 28.746094 19.863281 25.738281 22.484375 23.121094 C 25.105469 20.5 28.109375 18.472656 31.5 17.039062 C 35 15.558594 38.675781 14.816406 42.527344 14.816406 "/>
<path style=" stroke:none;fill-rule:nonzero;fill:rgb(19.784546%,18.254089%,18.563843%);fill-opacity:1;" d="M 35.226562 30.609375 L 38.164062 29.695312 L 39.496094 30.4375 L 38.902344 31.238281 L 37.980469 30.882812 L 36.105469 31.40625 L 35.71875 32.3125 L 37.929688 32.34375 L 36.648438 34.410156 L 50.320312 34.433594 L 50.960938 33.257812 C 50.882812 33.261719 50.546875 33.242188 50.46875 33.242188 C 50.128906 33.226562 49.648438 33.144531 49.332031 32.992188 C 49.167969 32.917969 49.007812 32.792969 48.945312 32.625 C 48.894531 32.496094 48.886719 32.335938 48.96875 32.222656 C 49.039062 32.132812 49.203125 32.089844 49.320312 32.070312 C 49.441406 32.054688 50.019531 32.0625 50.140625 32.0625 C 50.441406 32.066406 51.109375 31.988281 51.40625 31.953125 C 51.648438 31.925781 52.34375 31.84375 52.582031 31.800781 L 53.683594 31.546875 C 53.882812 31.511719 54.144531 31.484375 54.335938 31.554688 C 54.511719 31.617188 54.671875 31.746094 54.730469 31.925781 C 54.785156 32.082031 54.742188 32.269531 54.675781 32.417969 C 54.601562 32.585938 54.488281 32.742188 54.328125 32.84375 C 54.203125 32.925781 53.855469 33.011719 53.707031 33.050781 L 52.949219 33.242188 C 52.710938 33.308594 52.40625 33.316406 52.152344 33.328125 L 51.445312 34.484375 L 53.59375 38.917969 C 53.835938 38.824219 54.207031 38.683594 54.457031 38.609375 C 55.320312 38.359375 56.234375 38.316406 57.128906 38.429688 C 58.90625 38.660156 60.546875 39.488281 61.769531 40.78125 C 63.011719 42.101562 63.746094 43.808594 63.789062 45.609375 C 63.835938 47.542969 63.085938 49.417969 61.730469 50.816406 C 60.324219 52.265625 58.375 53.078125 56.34375 53.082031 C 54.46875 53.089844 52.644531 52.410156 51.269531 51.152344 C 50.601562 50.535156 50.0625 49.789062 49.671875 48.972656 C 49.34375 48.289062 49.113281 47.558594 49.011719 46.808594 C 48.984375 46.578125 48.957031 46.246094 48.9375 46.019531 L 46.226562 46 C 46.210938 46.046875 46.191406 46.109375 46.171875 46.152344 C 46.105469 46.339844 46.011719 46.511719 45.902344 46.675781 C 45.753906 46.882812 45.574219 47.070312 45.359375 47.203125 C 45.277344 47.25 45.152344 47.3125 45.066406 47.351562 L 45.316406 48.398438 L 45.933594 48.257812 L 46.074219 48.765625 L 44.5 49.160156 L 44.375 48.714844 L 44.886719 48.5625 L 44.609375 47.507812 C 44.546875 47.515625 44.457031 47.535156 44.398438 47.539062 C 43.621094 47.644531 42.847656 47.351562 42.335938 46.773438 C 41.820312 46.183594 41.632812 45.386719 41.863281 44.644531 C 41.882812 44.59375 41.910156 44.507812 41.929688 44.457031 L 34.113281 38.527344 L 33.285156 39.707031 C 33.492188 39.867188 33.78125 40.09375 33.972656 40.269531 C 35.511719 41.644531 36.4375 43.597656 36.324219 45.644531 C 36.097656 49.75 32.757812 53.09375 28.59375 52.996094 C 24.511719 52.902344 21.433594 49.441406 21.273438 45.410156 C 21.179688 43.046875 22.421875 40.847656 24.398438 39.515625 C 26.546875 38.070312 29.296875 37.730469 31.683594 38.75 C 31.863281 38.832031 32.132812 38.960938 32.308594 39.046875 L 36.003906 33.339844 L 33.988281 33.273438 L 35.226562 30.609375 "/>
<path style=" stroke:none;fill-rule:nonzero;fill:rgb(100%,100%,100%);fill-opacity:1;" d="M 29.394531 45.644531 L 32.691406 40.570312 C 32.792969 40.648438 32.929688 40.753906 33.027344 40.832031 C 34.4375 41.984375 35.230469 43.71875 35.136719 45.523438 C 34.96875 48.957031 32.316406 51.882812 28.835938 51.921875 C 25.285156 51.964844 22.492188 49.050781 22.320312 45.546875 C 22.214844 43.496094 23.292969 41.578125 24.996094 40.402344 C 26.21875 39.570312 27.710938 39.210938 29.191406 39.25 C 29.949219 39.277344 30.765625 39.414062 31.425781 39.777344 C 31.523438 39.835938 31.667969 39.921875 31.757812 39.980469 L 28.398438 45.125 C 28.390625 45.140625 28.175781 45.46875 28.171875 45.484375 C 28.121094 45.699219 28.21875 45.917969 28.398438 46.042969 C 28.632812 46.207031 28.949219 46.195312 29.167969 46.007812 L 29.394531 45.644531 "/>
<path style=" stroke:none;fill-rule:nonzero;fill:rgb(100%,100%,100%);fill-opacity:1;" d="M 56.398438 44.375 L 54.089844 39.789062 C 54.203125 39.753906 54.371094 39.703125 54.484375 39.671875 C 56.308594 39.15625 58.261719 39.46875 59.855469 40.484375 C 61.652344 41.628906 62.832031 43.570312 62.761719 45.679688 C 62.648438 49.132812 59.988281 52.074219 56.492188 52.152344 C 53.15625 52.226562 50.390625 49.707031 49.929688 46.441406 C 49.917969 46.339844 49.902344 46.199219 49.890625 46.097656 L 54.953125 46.035156 C 54.988281 46.136719 55.046875 46.28125 55.097656 46.375 C 55.359375 46.855469 55.867188 47.164062 56.414062 47.117188 C 57.113281 47.058594 57.660156 46.492188 57.6875 45.796875 C 57.714844 45.148438 57.289062 44.566406 56.652344 44.414062 C 56.582031 44.394531 56.472656 44.382812 56.398438 44.375 "/>
<path style=" stroke:none;fill-rule:nonzero;fill:rgb(100%,100%,100%);fill-opacity:1;" d="M 35.960938 35.542969 L 49.558594 35.566406 L 44.960938 43.234375 C 44.800781 43.1875 44.566406 43.128906 44.402344 43.109375 C 44.277344 43.09375 44.09375 43.09375 43.96875 43.09375 L 43.808594 42.398438 L 44.316406 42.253906 L 44.183594 41.832031 L 42.636719 42.226562 L 42.753906 42.660156 L 43.265625 42.53125 L 43.429688 43.15625 C 43.277344 43.199219 43.050781 43.273438 42.914062 43.355469 C 42.808594 43.421875 42.671875 43.546875 42.582031 43.636719 L 34.617188 37.679688 L 35.960938 35.542969 "/>
<path style=" stroke:none;fill-rule:nonzero;fill:rgb(100%,100%,100%);fill-opacity:1;" d="M 50.785156 35.636719 L 52.675781 39.382812 C 52.488281 39.476562 52.222656 39.597656 52.054688 39.714844 C 50.617188 40.75 49.476562 42.394531 49.078125 44.1875 C 49.023438 44.441406 48.964844 44.792969 48.921875 45.046875 L 46.34375 45.082031 C 46.324219 44.992188 46.296875 44.859375 46.273438 44.769531 C 46.230469 44.636719 46.171875 44.503906 46.109375 44.382812 C 46.050781 44.269531 45.976562 44.152344 45.902344 44.054688 C 45.851562 43.992188 45.773438 43.90625 45.71875 43.851562 L 50.785156 35.636719 "/>
<path style=" stroke:none;fill-rule:nonzero;fill:rgb(100%,100%,100%);fill-opacity:1;" d="M 53.179688 40.222656 L 55.40625 44.671875 C 55.359375 44.710938 55.292969 44.773438 55.257812 44.816406 C 55.21875 44.863281 55.175781 44.933594 55.148438 44.988281 L 49.964844 45.042969 C 49.96875 44.925781 49.972656 44.753906 49.988281 44.636719 C 50.207031 43.199219 51.242188 41.488281 52.664062 40.542969 C 52.8125 40.441406 53.027344 40.3125 53.179688 40.222656 "/>
<path style=" stroke:none;fill-rule:nonzero;fill:rgb(100%,100%,100%);fill-opacity:1;" d="M 42.441406 44.875 L 44.226562 46.097656 L 44.441406 46.875 C 44.394531 46.886719 44.316406 46.902344 44.265625 46.914062 C 43.261719 47.054688 42.421875 46.21875 42.410156 45.214844 C 42.410156 45.117188 42.425781 44.972656 42.441406 44.875 "/>
<path style=" stroke:none;fill-rule:nonzero;fill:rgb(100%,100%,100%);fill-opacity:1;" d="M 43.046875 44.054688 C 43.078125 44.027344 43.128906 43.988281 43.160156 43.964844 C 43.285156 43.875 43.453125 43.808594 43.601562 43.777344 L 43.820312 44.617188 L 43.046875 44.054688 "/>
<path style=" stroke:none;fill-rule:nonzero;fill:rgb(100%,100%,100%);fill-opacity:1;" d="M 44.242188 44.238281 L 44.097656 43.734375 C 44.226562 43.707031 44.40625 43.746094 44.539062 43.765625 L 44.242188 44.238281 "/>
<path style=" stroke:none;fill-rule:nonzero;fill:rgb(100%,100%,100%);fill-opacity:1;" d="M 44.945312 44.988281 L 45.371094 44.300781 C 45.402344 44.347656 45.453125 44.421875 45.484375 44.464844 C 45.558594 44.574219 45.648438 44.71875 45.683594 44.839844 C 45.695312 44.886719 45.710938 44.953125 45.71875 44.992188 L 44.945312 44.988281 "/>
<path style=" stroke:none;fill-rule:nonzero;fill:rgb(100%,100%,100%);fill-opacity:1;" d="M 44.742188 46.074219 L 45.605469 46.066406 C 45.566406 46.132812 45.507812 46.234375 45.464844 46.296875 C 45.386719 46.410156 45.285156 46.511719 45.183594 46.601562 C 45.121094 46.65625 45.019531 46.734375 44.949219 46.785156 L 44.742188 46.074219 "/>
</g>
</svg>
