<?xml version="1.0" encoding="UTF-8"?>
<svg xmlns="http://www.w3.org/2000/svg" xmlns:xlink="http://www.w3.org/1999/xlink" width="87pt" height="86pt" viewBox="0 0 87 86" version="1.1">
<g id="surface1">
<path style="fill-rule:nonzero;fill:rgb(100%,100%,100%);fill-opacity:1;stroke-width:2.835;stroke-linecap:butt;stroke-linejoin:round;stroke:rgb(13.729858%,12.159729%,12.548828%);stroke-opacity:1;stroke-miterlimit:4;" d="M 10 428.28125 C 10 663.085938 200.351562 853.476562 435.195312 853.476562 C 670.039062 853.476562 860.390625 663.085938 860.390625 428.28125 C 860.390625 193.4375 670.039062 3.085938 435.195312 3.085938 C 200.351562 3.085938 10 193.4375 10 428.28125 " transform="matrix(0.1,0,0,-0.1,0,86)"/>
<path style=" stroke:none;fill-rule:nonzero;fill:rgb(10.112%,40.585327%,73.280334%);fill-opacity:1;" d="M 2.417969 43.167969 C 2.417969 37.59375 3.492188 32.261719 5.644531 27.171875 C 7.726562 22.253906 10.660156 17.898438 14.457031 14.105469 C 18.246094 10.3125 22.601562 7.375 27.519531 5.296875 C 32.609375 3.144531 37.945312 2.066406 43.519531 2.066406 C 49.09375 2.066406 54.425781 3.144531 59.519531 5.296875 C 64.433594 7.375 68.789062 10.3125 72.582031 14.105469 C 76.375 17.898438 79.3125 22.253906 81.390625 27.171875 C 83.542969 32.261719 84.621094 37.59375 84.621094 43.167969 C 84.621094 48.746094 83.542969 54.078125 81.390625 59.167969 C 79.3125 64.085938 76.375 68.441406 72.582031 72.234375 C 68.789062 76.027344 64.433594 78.960938 59.519531 81.042969 C 54.425781 83.195312 49.09375 84.269531 43.519531 84.269531 C 37.945312 84.269531 32.609375 83.195312 27.519531 81.042969 C 22.601562 78.960938 18.246094 76.027344 14.457031 72.234375 C 10.660156 68.441406 7.726562 64.085938 5.644531 59.167969 C 3.492188 54.078125 2.417969 48.746094 2.417969 43.167969 "/>
<path style=" stroke:none;fill-rule:nonzero;fill:rgb(100%,100%,100%);fill-opacity:1;" d="M 69.457031 66.082031 L 58.839844 66.136719 L 58.875 57.742188 C 58.910156 52.597656 56.738281 47.675781 52.964844 44.3125 C 49.902344 41.578125 46 40.050781 41.9375 40.015625 L 35.03125 39.960938 L 37.199219 49.914062 C 37.34375 50.578125 37.113281 51.257812 36.597656 51.660156 C 36.027344 52.121094 35.242188 52.140625 34.636719 51.714844 L 12.804688 36.433594 C 12.339844 36.101562 12.035156 35.589844 12.074219 34.984375 C 12.089844 34.449219 12.355469 33.882812 12.820312 33.566406 L 35.296875 18.429688 C 35.722656 18.140625 36.257812 18.117188 36.703125 18.359375 C 37.273438 18.648438 37.574219 19.3125 37.433594 19.957031 L 35.222656 29.96875 L 42.367188 30.039062 C 51.859375 30.152344 60.605469 35.332031 65.5 43.710938 C 68.066406 48.097656 69.421875 53.113281 69.4375 58.238281 L 69.457031 66.082031 "/>
</g>
</svg>
