<?xml version="1.0" encoding="UTF-8"?>
<svg xmlns="http://www.w3.org/2000/svg" xmlns:xlink="http://www.w3.org/1999/xlink" width="87pt" height="86pt" viewBox="0 0 87 86" version="1.1">
<g id="surface1">
<path style="fill-rule:nonzero;fill:rgb(100%,100%,100%);fill-opacity:1;stroke-width:2.835;stroke-linecap:butt;stroke-linejoin:round;stroke:rgb(13.729858%,12.159729%,12.548828%);stroke-opacity:1;stroke-miterlimit:4;" d="M 860.390625 428.28125 C 860.390625 663.085938 670.039062 853.476562 435.195312 853.476562 C 200.351562 853.476562 10 663.085938 10 428.28125 C 10 193.4375 200.351562 3.085938 435.195312 3.085938 C 670.039062 3.085938 860.390625 193.4375 860.390625 428.28125 " transform="matrix(0.1,0,0,-0.1,0,86)"/>
<path style=" stroke:none;fill-rule:nonzero;fill:rgb(10.112%,40.585327%,73.280334%);fill-opacity:1;" d="M 84.621094 43.167969 C 84.621094 37.59375 83.542969 32.261719 81.390625 27.171875 C 79.3125 22.253906 76.375 17.898438 72.582031 14.105469 C 68.789062 10.3125 64.433594 7.375 59.519531 5.296875 C 54.425781 3.144531 49.09375 2.066406 43.519531 2.066406 C 37.945312 2.066406 32.609375 3.144531 27.519531 5.296875 C 22.601562 7.375 18.246094 10.3125 14.457031 14.105469 C 10.660156 17.898438 7.726562 22.253906 5.644531 27.171875 C 3.492188 32.261719 2.417969 37.59375 2.417969 43.167969 C 2.417969 48.746094 3.492188 54.078125 5.644531 59.167969 C 7.726562 64.085938 10.660156 68.441406 14.457031 72.234375 C 18.246094 76.027344 22.601562 78.960938 27.519531 81.042969 C 32.609375 83.195312 37.945312 84.269531 43.519531 84.269531 C 49.09375 84.269531 54.425781 83.195312 59.519531 81.042969 C 64.433594 78.960938 68.789062 76.027344 72.582031 72.234375 C 76.375 68.441406 79.3125 64.085938 81.390625 59.167969 C 83.542969 54.078125 84.621094 48.746094 84.621094 43.167969 "/>
<path style=" stroke:none;fill-rule:nonzero;fill:rgb(100%,100%,100%);fill-opacity:1;" d="M 48.480469 51.675781 L 57.042969 51.683594 L 55.65625 59.523438 C 55.632812 59.605469 55.621094 59.699219 55.621094 59.785156 C 55.621094 60.394531 56.113281 60.890625 56.722656 60.890625 C 56.949219 60.890625 57.164062 60.820312 57.339844 60.699219 L 75.632812 48.34375 C 75.921875 48.144531 76.117188 47.8125 76.117188 47.429688 C 76.117188 47.050781 75.917969 46.703125 75.628906 46.507812 L 57.332031 34.152344 C 57.160156 34.027344 56.945312 33.960938 56.71875 33.960938 C 56.109375 33.960938 55.613281 34.449219 55.613281 35.058594 C 55.613281 35.152344 55.628906 35.242188 55.652344 35.324219 L 57.054688 43.175781 L 48.347656 43.171875 C 43.035156 43.207031 38.15625 45.0625 34.304688 48.148438 L 34.304688 29.644531 L 42.15625 31.039062 C 42.238281 31.0625 42.328125 31.078125 42.421875 31.078125 C 43.03125 31.078125 43.519531 30.582031 43.519531 29.976562 C 43.519531 29.75 43.449219 29.53125 43.328125 29.359375 L 30.972656 11.066406 C 30.773438 10.773438 30.429688 10.574219 30.046875 10.574219 C 29.664062 10.574219 29.335938 10.769531 29.136719 11.0625 L 16.78125 29.351562 C 16.660156 29.527344 16.589844 29.742188 16.589844 29.96875 C 16.589844 30.578125 17.085938 31.070312 17.691406 31.070312 C 17.78125 31.070312 17.871094 31.058594 17.957031 31.035156 L 25.804688 29.644531 L 25.804688 73.648438 L 34.304688 73.648438 L 34.304688 65.847656 C 34.304688 61.9375 35.691406 58.59375 38.457031 55.828125 C 41.226562 53.0625 44.566406 51.675781 48.480469 51.675781 "/>
</g>
</svg>
