<?xml version="1.0" encoding="UTF-8"?>
<svg xmlns="http://www.w3.org/2000/svg" xmlns:xlink="http://www.w3.org/1999/xlink" width="87pt" height="86pt" viewBox="0 0 87 86" version="1.1">
<g id="surface1">
<path style="fill-rule:nonzero;fill:rgb(100%,100%,100%);fill-opacity:1;stroke-width:2.835;stroke-linecap:butt;stroke-linejoin:round;stroke:rgb(13.729858%,12.159729%,12.548828%);stroke-opacity:1;stroke-miterlimit:4;" d="M 435.351562 853.476562 C 670.195312 853.476562 860.546875 663.085938 860.546875 428.28125 C 860.546875 193.4375 670.195312 3.085938 435.351562 3.085938 C 200.507812 3.085938 10.15625 193.4375 10.15625 428.28125 C 10.15625 663.085938 200.507812 853.476562 435.351562 853.476562 " transform="matrix(0.1,0,0,-0.1,0,86)"/>
<path style=" stroke:none;fill-rule:nonzero;fill:rgb(10.112%,40.585327%,73.280334%);fill-opacity:1;" d="M 43.535156 2.070312 C 49.109375 2.070312 54.441406 3.148438 59.53125 5.300781 C 64.449219 7.378906 68.804688 10.316406 72.597656 14.109375 C 76.390625 17.902344 79.328125 22.257812 81.40625 27.175781 C 83.558594 32.265625 84.636719 37.597656 84.636719 43.171875 C 84.636719 48.75 83.558594 54.082031 81.40625 59.171875 C 79.328125 64.089844 76.390625 68.445312 72.597656 72.234375 C 68.804688 76.03125 64.449219 78.964844 59.53125 81.046875 C 54.441406 83.199219 49.109375 84.273438 43.535156 84.273438 C 37.960938 84.273438 32.625 83.199219 27.535156 81.046875 C 22.617188 78.964844 18.265625 76.03125 14.46875 72.234375 C 10.675781 68.445312 7.742188 64.089844 5.660156 59.171875 C 3.507812 54.082031 2.429688 48.75 2.429688 43.171875 C 2.429688 37.597656 3.507812 32.265625 5.660156 27.175781 C 7.742188 22.257812 10.675781 17.902344 14.46875 14.109375 C 18.265625 10.316406 22.617188 7.378906 27.535156 5.300781 C 32.625 3.148438 37.960938 2.070312 43.535156 2.070312 "/>
<path style=" stroke:none;fill-rule:nonzero;fill:rgb(100%,100%,100%);fill-opacity:1;" d="M 60.523438 29.246094 C 61.867188 30.875 62.957031 32.667969 63.785156 34.628906 C 64.929688 37.335938 65.503906 40.183594 65.503906 43.171875 C 65.503906 45.785156 65.066406 48.292969 64.191406 50.691406 L 72.183594 53.589844 C 73.398438 50.257812 74.007812 46.785156 74.007812 43.171875 C 74.007812 39.035156 73.210938 35.082031 71.617188 31.316406 C 70.167969 27.894531 68.160156 24.839844 65.59375 22.148438 L 70.546875 17.339844 C 70.609375 17.289062 70.664062 17.226562 70.714844 17.160156 C 71.039062 16.703125 70.929688 16.066406 70.46875 15.738281 C 70.292969 15.613281 70.097656 15.550781 69.898438 15.542969 L 49.390625 14.863281 C 49.066406 14.855469 48.738281 14.996094 48.535156 15.28125 C 48.332031 15.566406 48.296875 15.9375 48.410156 16.242188 L 55.671875 35.433594 C 55.742188 35.617188 55.863281 35.785156 56.039062 35.910156 C 56.5 36.242188 57.136719 36.140625 57.464844 35.683594 C 57.511719 35.613281 57.550781 35.542969 57.582031 35.46875 L 60.523438 29.246094 "/>
<path style=" stroke:none;fill-rule:nonzero;fill:rgb(100%,100%,100%);fill-opacity:1;" d="M 47.105469 64.800781 C 45.027344 65.148438 42.925781 65.199219 40.816406 64.933594 C 37.898438 64.574219 35.144531 63.644531 32.558594 62.152344 C 30.292969 60.84375 28.34375 59.210938 26.703125 57.253906 L 20.195312 62.730469 C 22.472656 65.445312 25.175781 67.707031 28.304688 69.515625 C 31.890625 71.585938 35.710938 72.871094 39.769531 73.375 C 43.453125 73.832031 47.105469 73.621094 50.71875 72.738281 L 52.40625 79.433594 C 52.417969 79.511719 52.445312 79.59375 52.480469 79.667969 C 52.710938 80.179688 53.316406 80.402344 53.835938 80.167969 C 54.027344 80.082031 54.179688 79.9375 54.285156 79.769531 L 65.128906 62.351562 C 65.300781 62.074219 65.339844 61.71875 65.195312 61.402344 C 65.050781 61.082031 64.746094 60.867188 64.425781 60.8125 L 44.175781 57.507812 C 43.980469 57.472656 43.773438 57.496094 43.578125 57.585938 C 43.0625 57.820312 42.832031 58.421875 43.0625 58.933594 C 43.097656 59.011719 43.140625 59.082031 43.191406 59.140625 L 47.105469 64.800781 "/>
<path style=" stroke:none;fill-rule:nonzero;fill:rgb(100%,100%,100%);fill-opacity:1;" d="M 22.984375 35.425781 C 23.722656 33.449219 24.734375 31.605469 26.015625 29.910156 C 27.789062 27.566406 29.96875 25.644531 32.554688 24.152344 C 34.820312 22.84375 37.207031 21.96875 39.722656 21.53125 L 38.234375 13.15625 C 34.742188 13.769531 31.433594 14.980469 28.304688 16.785156 C 24.71875 18.855469 21.695312 21.523438 19.230469 24.785156 C 16.992188 27.746094 15.347656 31.015625 14.304688 34.585938 L 7.664062 32.699219 C 7.585938 32.671875 7.507812 32.652344 7.421875 32.644531 C 6.863281 32.589844 6.367188 33.003906 6.3125 33.570312 C 6.292969 33.78125 6.335938 33.984375 6.429688 34.15625 L 16.09375 52.257812 C 16.25 52.546875 16.535156 52.757812 16.886719 52.789062 C 17.234375 52.824219 17.570312 52.667969 17.78125 52.417969 L 30.769531 36.535156 C 30.894531 36.382812 30.976562 36.191406 31 35.980469 C 31.054688 35.414062 30.648438 34.910156 30.089844 34.855469 C 30.007812 34.847656 29.921875 34.851562 29.84375 34.863281 L 22.984375 35.425781 "/>
</g>
</svg>
