<?xml version="1.0" encoding="UTF-8"?>
<svg xmlns="http://www.w3.org/2000/svg" xmlns:xlink="http://www.w3.org/1999/xlink" width="87pt" height="86pt" viewBox="0 0 87 86" version="1.1">
<g id="surface1">
<path style="fill-rule:nonzero;fill:rgb(100%,100%,100%);fill-opacity:1;stroke-width:2.835;stroke-linecap:butt;stroke-linejoin:miter;stroke:rgb(13.729858%,12.159729%,12.548828%);stroke-opacity:1;stroke-miterlimit:4;" d="M 860.390625 428.28125 C 860.390625 663.125 670.039062 853.476562 435.195312 853.476562 C 200.351562 853.476562 10 663.125 10 428.28125 C 10 193.4375 200.351562 3.085938 435.195312 3.085938 C 670.039062 3.085938 860.390625 193.4375 860.390625 428.28125 " transform="matrix(0.1,0,0,-0.1,0,86)"/>
<path style=" stroke:none;fill-rule:nonzero;fill:rgb(10.112%,40.585327%,73.280334%);fill-opacity:1;" d="M 84.621094 43.171875 C 84.621094 48.75 83.542969 54.082031 81.390625 59.171875 C 79.3125 64.089844 76.375 68.445312 72.582031 72.238281 C 68.789062 76.03125 64.433594 78.964844 59.519531 81.046875 C 54.425781 83.199219 49.09375 84.273438 43.519531 84.273438 C 37.941406 84.273438 32.609375 83.199219 27.519531 81.046875 C 22.601562 78.964844 18.246094 76.03125 14.453125 72.238281 C 10.660156 68.445312 7.726562 64.089844 5.644531 59.171875 C 3.492188 54.082031 2.417969 48.75 2.417969 43.171875 C 2.417969 37.597656 3.492188 32.265625 5.644531 27.171875 C 7.726562 22.257812 10.660156 17.902344 14.453125 14.109375 C 18.246094 10.316406 22.601562 7.378906 27.519531 5.300781 C 32.609375 3.148438 37.941406 2.070312 43.519531 2.070312 C 49.09375 2.070312 54.425781 3.148438 59.519531 5.300781 C 64.433594 7.378906 68.789062 10.316406 72.582031 14.109375 C 76.375 17.902344 79.3125 22.257812 81.390625 27.171875 C 83.542969 32.265625 84.621094 37.597656 84.621094 43.171875 "/>
<path style=" stroke:none;fill-rule:nonzero;fill:rgb(100%,100%,100%);fill-opacity:1;" d="M 22.601562 49.242188 C 22.371094 48.339844 22.347656 47.09375 22.347656 46.273438 C 22.347656 45.960938 22.351562 45.671875 22.359375 45.445312 C 22.363281 45.132812 22.363281 44.742188 22.363281 44.347656 C 22.363281 44.027344 22.363281 43.710938 22.359375 43.449219 C 22.359375 43.265625 22.359375 43.054688 22.359375 42.839844 C 22.359375 42.28125 22.363281 41.636719 22.378906 41.148438 C 22.382812 40.949219 22.394531 40.699219 22.40625 40.460938 C 22.164062 40.109375 21.96875 39.65625 21.925781 39.152344 C 21.917969 39.070312 21.914062 38.996094 21.914062 38.917969 C 21.914062 38.398438 22.066406 37.882812 22.359375 37.4375 C 22.429688 37.335938 22.496094 37.238281 22.570312 37.144531 C 22.941406 33.855469 23.597656 30.015625 24.757812 26.777344 C 24.710938 26.542969 24.675781 26.285156 24.675781 26.019531 C 24.675781 25.765625 24.707031 25.484375 24.789062 25.199219 C 25.003906 24.445312 25.371094 24.058594 25.664062 23.808594 C 25.8125 23.304688 26.113281 22.929688 26.394531 22.671875 C 28.261719 19.371094 30.988281 14.984375 35.417969 14.007812 C 35.464844 13.996094 35.519531 13.984375 35.597656 13.964844 C 35.769531 13.917969 36.144531 13.816406 36.550781 13.808594 L 49.707031 13.65625 L 49.753906 13.65625 C 50.375 13.65625 51.332031 13.796875 51.628906 13.84375 C 60.761719 15.304688 65.148438 30.601562 65.148438 43.996094 C 65.148438 55.503906 61.980469 67.730469 54.015625 71.757812 C 53.664062 71.933594 52.949219 72.28125 52.265625 72.441406 C 52.167969 72.464844 51.765625 72.558594 51.417969 72.5625 L 38.578125 72.625 L 38.554688 72.625 C 38.210938 72.625 37.867188 72.589844 37.625 72.5625 C 37.5625 72.554688 37.503906 72.546875 37.453125 72.542969 C 36.433594 72.449219 35.371094 72.195312 34.382812 71.703125 C 33.292969 71.160156 32.269531 70.320312 31.484375 69.609375 C 30.402344 68.625 29.339844 67.492188 28.484375 66.242188 C 28.191406 65.8125 27.839844 65.242188 27.546875 64.746094 C 27.542969 64.746094 27.535156 64.742188 27.527344 64.742188 C 27.066406 64.574219 26.582031 64.21875 26.316406 63.640625 C 26.207031 63.394531 26.121094 63.113281 26.082031 62.808594 C 25.734375 62.441406 25.589844 62.007812 25.53125 61.710938 C 25.503906 61.566406 25.484375 61.414062 25.484375 61.257812 C 25.484375 61.160156 25.492188 61.058594 25.507812 60.953125 C 25.394531 60.703125 25.28125 60.433594 25.195312 60.226562 C 24.746094 59.15625 24.246094 57.835938 23.949219 56.625 C 23.695312 55.605469 23.273438 53.84375 23.121094 52.691406 C 23.121094 52.671875 23.117188 52.65625 23.117188 52.644531 C 23.039062 52.539062 22.957031 52.425781 22.933594 52.398438 C 22.71875 52.109375 22.582031 51.808594 22.496094 51.519531 C 22.441406 51.320312 22.40625 51.097656 22.40625 50.859375 C 22.40625 50.613281 22.449219 50.320312 22.574219 50.027344 C 22.554688 49.925781 22.542969 49.804688 22.542969 49.6875 C 22.542969 49.609375 22.546875 49.515625 22.566406 49.40625 C 22.578125 49.347656 22.589844 49.292969 22.601562 49.242188 "/>
<path style=" stroke:none;fill-rule:nonzero;fill:rgb(13.729858%,12.159729%,12.548828%);fill-opacity:1;" d="M 51.410156 71.160156 L 38.570312 71.21875 C 38.246094 71.203125 37.90625 71.179688 37.589844 71.148438 C 36.703125 71.066406 35.8125 70.84375 35.019531 70.449219 C 34.101562 69.992188 33.191406 69.261719 32.4375 68.574219 C 31.410156 67.644531 30.429688 66.589844 29.652344 65.453125 C 29.285156 64.914062 28.792969 64.089844 28.464844 63.527344 C 28.320312 63.507812 28.152344 63.46875 28.007812 63.421875 C 27.835938 63.355469 27.683594 63.234375 27.609375 63.070312 C 27.53125 62.894531 27.488281 62.707031 27.484375 62.511719 C 27.484375 62.460938 27.476562 62.230469 27.457031 62.183594 C 27.457031 62.175781 27.132812 61.863281 27.125 61.855469 C 27.015625 61.753906 26.949219 61.601562 26.921875 61.453125 C 26.894531 61.320312 26.894531 61.179688 26.933594 61.054688 C 26.949219 60.988281 26.976562 60.917969 27.003906 60.855469 C 26.855469 60.523438 26.640625 60.03125 26.503906 59.699219 C 26.0625 58.648438 25.59375 57.40625 25.324219 56.300781 C 25.070312 55.261719 24.667969 53.582031 24.527344 52.519531 C 24.519531 52.398438 24.480469 52.175781 24.433594 52.0625 C 24.421875 52.035156 24.074219 51.574219 24.058594 51.550781 C 23.96875 51.429688 23.898438 51.292969 23.863281 51.148438 C 23.804688 50.960938 23.800781 50.746094 23.886719 50.570312 C 23.90625 50.53125 23.9375 50.480469 23.960938 50.453125 C 23.988281 50.414062 24.042969 50.332031 24.050781 50.289062 C 24.0625 50.207031 24.03125 50.070312 24.011719 49.984375 C 23.980469 49.894531 23.949219 49.742188 23.96875 49.644531 C 23.96875 49.605469 24.003906 49.542969 24.027344 49.507812 C 24.039062 49.484375 24.070312 49.425781 24.074219 49.394531 C 24.09375 49.308594 24.050781 49.15625 24.019531 49.074219 C 23.738281 48.195312 23.75 46.410156 23.773438 45.488281 C 23.78125 44.898438 23.78125 44.039062 23.78125 43.453125 C 23.773438 42.800781 23.773438 41.855469 23.792969 41.203125 C 23.800781 40.871094 23.832031 40.375 23.84375 40.039062 C 23.75 39.929688 23.664062 39.800781 23.582031 39.683594 C 23.449219 39.496094 23.355469 39.269531 23.335938 39.042969 C 23.3125 38.757812 23.382812 38.46875 23.542969 38.234375 C 23.652344 38.0625 23.792969 37.898438 23.933594 37.75 C 24.300781 34.261719 24.996094 30.15625 26.246094 26.859375 C 26.121094 26.484375 26.035156 26.015625 26.152344 25.605469 C 26.347656 24.921875 26.671875 24.910156 26.90625 24.617188 C 26.949219 24.570312 26.996094 24.328125 27.015625 24.265625 C 27.078125 23.992188 27.285156 23.765625 27.496094 23.609375 C 29.433594 20.171875 31.90625 16.242188 35.71875 15.40625 C 35.996094 15.339844 36.289062 15.292969 36.570312 15.242188 L 49.71875 15.085938 C 50.207031 15.117188 51.089844 15.210938 51.402344 15.257812 C 65.785156 17.5625 69.011719 62.613281 53.371094 70.503906 C 53.023438 70.6875 52.445312 70.957031 51.953125 71.074219 C 51.796875 71.105469 51.5625 71.160156 51.410156 71.160156 "/>
<path style=" stroke:none;fill-rule:nonzero;fill:rgb(100%,100%,100%);fill-opacity:1;" d="M 47.355469 56.753906 C 47.4375 56.773438 47.574219 56.820312 47.644531 56.855469 C 47.792969 56.933594 47.960938 57.085938 48.089844 57.207031 C 48.34375 57.46875 48.613281 57.753906 48.855469 58.039062 C 49.03125 58.246094 49.191406 58.488281 49.28125 58.746094 C 49.292969 58.78125 49.316406 58.875 49.324219 58.90625 C 49.65625 58.773438 50.027344 58.722656 50.386719 58.773438 C 50.738281 58.824219 51.074219 58.96875 51.351562 59.195312 C 51.363281 59.144531 51.382812 59.027344 51.40625 58.96875 C 51.453125 58.875 51.578125 58.734375 51.652344 58.65625 C 51.820312 58.476562 52.003906 58.289062 52.195312 58.128906 C 52.550781 57.820312 52.949219 57.53125 53.367188 57.308594 C 53.515625 57.226562 53.722656 57.128906 53.890625 57.085938 C 53.953125 57.078125 54.066406 57.066406 54.128906 57.0625 C 54.105469 56.988281 54.070312 56.867188 54.066406 56.792969 C 54.058594 56.703125 54.097656 56.542969 54.117188 56.457031 C 54.148438 56.316406 54.183594 56.109375 54.214844 55.972656 L 54.984375 53.242188 C 55.054688 53.046875 55.140625 52.855469 55.226562 52.671875 C 55.292969 52.554688 55.378906 52.445312 55.484375 52.355469 C 55.542969 52.308594 55.625 52.265625 55.683594 52.226562 C 55.625 52.132812 55.558594 52.035156 55.503906 51.933594 C 55.421875 51.804688 55.355469 51.660156 55.328125 51.515625 C 55.285156 51.34375 55.28125 51.117188 55.28125 50.945312 L 55.355469 48.820312 C 55.355469 48.675781 55.367188 48.449219 55.410156 48.3125 C 55.460938 48.175781 55.597656 47.980469 55.679688 47.863281 C 55.742188 47.777344 55.835938 47.648438 55.898438 47.570312 C 55.835938 47.476562 55.734375 47.324219 55.691406 47.226562 C 55.625 47.0625 55.589844 46.820312 55.570312 46.644531 C 55.484375 45.863281 55.382812 44.640625 55.484375 43.859375 C 55.519531 43.609375 55.589844 43.324219 55.722656 43.109375 C 55.785156 43.011719 55.921875 42.867188 56.003906 42.785156 C 55.921875 42.695312 55.839844 42.597656 55.761719 42.503906 C 55.601562 42.296875 55.484375 42.046875 55.421875 41.796875 C 55.34375 41.472656 55.292969 41.117188 55.265625 40.78125 C 55.222656 40.371094 55.160156 39.882812 55.097656 39.472656 C 55.054688 39.152344 54.984375 38.558594 55.054688 38.246094 C 55.097656 38.089844 55.234375 37.859375 55.320312 37.722656 C 55.386719 37.625 55.460938 37.519531 55.523438 37.425781 C 55.46875 37.402344 55.386719 37.359375 55.332031 37.328125 C 55.191406 37.234375 55.074219 37.082031 54.984375 36.933594 C 54.820312 36.652344 54.683594 36.347656 54.566406 36.039062 C 54.433594 35.707031 54.316406 35.363281 54.222656 35.019531 C 54.089844 34.574219 53.972656 34.085938 53.917969 33.628906 C 53.894531 33.449219 53.882812 33.226562 53.945312 33.054688 C 53.957031 33.023438 53.996094 32.953125 54.011719 32.917969 C 54.039062 32.875 54.078125 32.804688 54.09375 32.753906 C 54.105469 32.71875 54.117188 32.671875 54.128906 32.632812 C 54.066406 32.574219 53.976562 32.480469 53.917969 32.414062 C 53.765625 32.238281 53.628906 32.03125 53.503906 31.816406 C 53.214844 31.316406 52.933594 30.785156 52.671875 30.261719 C 52.539062 29.992188 52.34375 29.605469 52.214844 29.339844 C 52.140625 29.210938 52.050781 29.027344 52.015625 28.886719 C 51.96875 28.734375 51.96875 28.558594 51.976562 28.410156 C 51.980469 28.339844 51.984375 28.265625 51.988281 28.191406 C 51.882812 28.109375 51.722656 27.992188 51.621094 27.90625 C 51.375 27.695312 51.113281 27.421875 50.90625 27.179688 C 50.796875 27.050781 50.683594 26.921875 50.570312 26.796875 C 50.019531 26.9375 49.410156 26.871094 48.90625 26.589844 C 48.804688 26.796875 48.667969 27.058594 48.511719 27.21875 C 48.367188 27.367188 48.15625 27.484375 47.96875 27.558594 C 47.863281 27.601562 47.761719 27.640625 47.65625 27.679688 C 47.589844 27.914062 47.488281 28.265625 47.402344 28.496094 C 47.265625 28.878906 47.03125 29.351562 46.839844 29.714844 C 46.6875 30.019531 46.523438 30.339844 46.359375 30.636719 C 46.324219 30.710938 46.261719 30.828125 46.203125 30.890625 C 46.113281 30.988281 45.972656 31.058594 45.847656 31.109375 C 45.773438 31.136719 45.683594 31.167969 45.605469 31.191406 C 45.671875 31.292969 45.742188 31.394531 45.785156 31.5 C 45.867188 31.660156 45.890625 31.835938 45.878906 32.011719 C 45.867188 32.128906 45.835938 32.261719 45.804688 32.367188 L 45.171875 35.238281 C 45.128906 35.4375 45.066406 35.671875 44.980469 35.863281 C 44.929688 35.976562 44.859375 36.078125 44.777344 36.164062 C 44.730469 36.210938 44.667969 36.269531 44.617188 36.316406 C 44.652344 36.371094 44.691406 36.457031 44.714844 36.519531 C 44.796875 36.675781 44.917969 36.945312 44.960938 37.121094 C 44.992188 37.289062 44.984375 37.535156 44.972656 37.707031 L 44.855469 40.175781 C 44.832031 40.339844 44.796875 40.550781 44.730469 40.699219 C 44.710938 40.765625 44.640625 40.871094 44.605469 40.929688 C 44.589844 40.953125 44.566406 40.992188 44.546875 41.015625 C 44.515625 41.070312 44.472656 41.144531 44.445312 41.203125 C 44.546875 41.289062 44.660156 41.390625 44.753906 41.484375 C 44.878906 41.613281 44.972656 41.761719 45.027344 41.925781 C 45.085938 42.109375 45.105469 42.351562 45.109375 42.535156 C 45.121094 43.441406 45.121094 44.390625 45.085938 45.289062 C 45.066406 45.582031 45.027344 45.898438 44.929688 46.179688 C 44.902344 46.261719 44.820312 46.429688 44.78125 46.503906 C 44.839844 46.554688 44.910156 46.597656 44.96875 46.644531 C 45.105469 46.742188 45.308594 46.902344 45.402344 47.03125 C 45.570312 47.265625 45.652344 47.617188 45.691406 47.898438 C 45.761719 48.4375 45.816406 49.007812 45.855469 49.550781 C 45.867188 49.664062 45.878906 49.824219 45.890625 49.9375 C 45.910156 50.183594 45.9375 50.535156 45.9375 50.777344 C 45.9375 50.925781 45.9375 51.144531 45.929688 51.292969 C 46.003906 51.347656 46.074219 51.410156 46.148438 51.46875 C 46.277344 51.578125 46.417969 51.71875 46.511719 51.859375 C 46.59375 51.992188 46.667969 52.195312 46.71875 52.347656 C 46.980469 53.109375 47.199219 53.890625 47.367188 54.683594 C 47.429688 54.972656 47.492188 55.316406 47.53125 55.605469 C 47.566406 55.886719 47.550781 56.15625 47.480469 56.429688 C 47.449219 56.523438 47.398438 56.660156 47.355469 56.753906 "/>
<path style=" stroke:none;fill-rule:nonzero;fill:rgb(13.729858%,12.159729%,12.548828%);fill-opacity:1;" d="M 48.503906 55.847656 L 47.949219 53.164062 C 48.050781 53.019531 48.207031 52.804688 48.300781 52.65625 C 48.496094 52.34375 48.65625 52 48.785156 51.65625 C 48.996094 51.042969 49.160156 50.410156 49.265625 49.773438 C 49.496094 48.363281 49.570312 46.804688 49.582031 45.382812 C 49.59375 44.078125 49.539062 42.769531 49.40625 41.476562 C 49.269531 40.136719 49.007812 38.765625 48.703125 37.457031 C 48.445312 36.355469 48.089844 35.09375 47.628906 34.054688 C 47.40625 33.554688 47.03125 32.851562 46.769531 32.367188 C 46.8125 32.03125 46.902344 31.695312 47.03125 31.378906 C 47.136719 31.085938 47.28125 30.804688 47.453125 30.539062 C 47.617188 30.789062 47.847656 31.160156 47.988281 31.421875 C 48.28125 31.953125 48.589844 32.722656 48.800781 33.296875 C 49.039062 33.917969 49.296875 34.648438 49.484375 35.285156 C 49.785156 36.277344 50.027344 37.445312 50.214844 38.457031 C 50.417969 39.585938 50.585938 40.726562 50.714844 41.859375 C 50.863281 43.15625 50.957031 44.476562 50.957031 45.785156 C 50.964844 47 50.878906 48.226562 50.726562 49.4375 C 50.570312 50.636719 50.351562 51.863281 50.023438 53.027344 C 49.800781 53.796875 49.464844 54.523438 49.015625 55.183594 C 48.871094 55.382812 48.652344 55.660156 48.503906 55.847656 "/>
<path style=" stroke:none;fill-rule:nonzero;fill:rgb(100%,100%,100%);fill-opacity:1;" d="M 46.148438 69.820312 L 46.183594 69.808594 L 46.210938 69.777344 L 46.210938 69.730469 L 46.191406 69.695312 C 45.660156 69.25 45.089844 68.835938 44.511719 68.457031 C 43.820312 68.011719 43.089844 67.148438 42.582031 66.507812 C 42.515625 66.414062 41.285156 64.847656 41.226562 64.742188 C 41.109375 64.554688 40.949219 64.265625 40.84375 64.066406 C 40.84375 64.242188 40.839844 64.570312 40.789062 64.742188 C 40.71875 64.980469 40.457031 65.40625 40.320312 65.613281 C 40.152344 65.878906 39.933594 66.269531 39.789062 66.542969 C 39.65625 66.78125 39.46875 67.128906 39.324219 67.355469 C 39.21875 67.53125 38.351562 68.917969 38.261719 69.101562 C 38.1875 69.238281 38.003906 69.589844 37.917969 69.710938 C 37.878906 69.765625 37.773438 69.875 37.730469 69.925781 L 46.148438 69.820312 "/>
<path style=" stroke:none;fill-rule:nonzero;fill:rgb(100%,100%,100%);fill-opacity:1;" d="M 37.03125 69.078125 L 39.417969 65.058594 C 39.464844 64.984375 39.5 64.902344 39.507812 64.820312 C 39.519531 64.742188 39.480469 64.664062 39.414062 64.632812 C 39.332031 64.589844 39.230469 64.601562 39.167969 64.660156 C 39.113281 64.707031 39.0625 64.765625 39.03125 64.832031 L 36.441406 67.929688 C 36.3125 68.09375 36.1875 68.28125 36.105469 68.472656 C 36.046875 68.621094 36.066406 68.804688 36.113281 68.953125 C 36.148438 69.097656 36.238281 69.222656 36.367188 69.285156 C 36.601562 69.421875 36.894531 69.308594 37.03125 69.078125 "/>
<path style=" stroke:none;fill-rule:nonzero;fill:rgb(100%,100%,100%);fill-opacity:1;" d="M 35.066406 69.148438 C 35.089844 69.113281 35.089844 68.925781 35.089844 68.886719 C 35.089844 68.707031 35.089844 68.410156 35.148438 68.238281 C 35.214844 68.050781 35.40625 67.792969 35.523438 67.632812 L 38.074219 64.457031 C 38.210938 64.289062 38.40625 64.078125 38.578125 63.941406 C 38.636719 63.890625 38.769531 63.800781 38.835938 63.757812 L 34.945312 63.601562 C 34.890625 63.660156 34.816406 63.71875 34.753906 63.765625 C 34.648438 63.832031 34.519531 63.871094 34.394531 63.882812 C 34.277344 63.894531 34.152344 63.902344 34.035156 63.90625 L 29.953125 63.890625 C 30.15625 64.171875 30.457031 64.578125 30.65625 64.859375 C 30.992188 65.316406 31.425781 65.890625 31.800781 66.324219 C 32.164062 66.746094 32.636719 67.273438 33.0625 67.632812 C 33.1875 67.734375 33.347656 67.859375 33.480469 67.960938 C 33.808594 68.203125 34.171875 68.492188 34.476562 68.777344 C 34.625 68.917969 34.796875 69.046875 34.972656 69.15625 L 35.019531 69.167969 L 35.066406 69.148438 "/>
<path style=" stroke:none;fill-rule:nonzero;fill:rgb(100%,100%,100%);fill-opacity:1;" d="M 35.289062 62.808594 L 38.863281 62.90625 C 38.960938 62.871094 39.121094 62.808594 39.191406 62.734375 C 39.285156 62.632812 39.304688 62.453125 39.285156 62.308594 C 39.269531 62.164062 39.203125 61.984375 39.074219 61.914062 C 38.9375 61.84375 38.714844 61.84375 38.5625 61.859375 L 35.253906 62.105469 C 35.257812 62.25 35.265625 62.394531 35.273438 62.53125 C 35.277344 62.625 35.285156 62.71875 35.289062 62.808594 "/>
<path style=" stroke:none;fill-rule:nonzero;fill:rgb(100%,100%,100%);fill-opacity:1;" d="M 29.398438 62.847656 L 32.71875 62.867188 C 32.960938 62.847656 33.148438 62.640625 33.148438 62.402344 C 33.148438 62.136719 32.925781 61.929688 32.660156 61.933594 L 30.257812 61.945312 L 29.398438 62.847656 "/>
<path style=" stroke:none;fill-rule:nonzero;fill:rgb(100%,100%,100%);fill-opacity:1;" d="M 31.304688 60.90625 L 33.332031 60.878906 C 33.605469 60.867188 33.9375 60.867188 34.207031 60.921875 C 34.433594 60.964844 34.640625 61.078125 34.820312 61.214844 C 34.871094 61.246094 34.925781 61.292969 34.976562 61.328125 C 34.976562 61.328125 35.003906 61.335938 35.007812 61.339844 C 35.132812 61.355469 35.277344 61.304688 35.390625 61.261719 L 38.390625 60.925781 C 38.535156 60.898438 38.761719 60.871094 38.910156 60.878906 C 39 60.886719 39.136719 60.898438 39.230469 60.910156 C 39.109375 60.671875 38.933594 60.328125 38.816406 60.085938 C 38.535156 59.515625 38.273438 58.933594 38.03125 58.347656 C 37.761719 57.695312 37.492188 56.96875 37.316406 56.292969 C 37.253906 56.039062 37.171875 55.664062 37.117188 55.414062 C 37.058594 55.527344 36.964844 55.695312 36.910156 55.8125 C 36.867188 55.914062 36.734375 56.183594 36.671875 56.277344 C 36.617188 56.359375 36.492188 56.488281 36.417969 56.5625 L 33.664062 59.226562 C 33.570312 59.316406 33.464844 59.402344 33.359375 59.480469 C 33.210938 59.589844 33.03125 59.660156 32.847656 59.671875 C 32.765625 59.679688 32.632812 59.667969 32.550781 59.65625 L 31.304688 60.90625 "/>
<path style=" stroke:none;fill-rule:nonzero;fill:rgb(100%,100%,100%);fill-opacity:1;" d="M 27.882812 60.023438 L 33.664062 55.289062 C 33.738281 55.207031 33.84375 55.09375 33.929688 55.03125 C 33.988281 54.996094 34.089844 54.945312 34.15625 54.914062 L 31.332031 53.960938 C 31.253906 53.945312 31.140625 53.90625 31.074219 53.871094 C 31.023438 53.84375 30.953125 53.789062 30.90625 53.757812 C 30.808594 53.792969 30.703125 53.839844 30.605469 53.875 C 30.453125 53.933594 30.285156 53.964844 30.121094 53.957031 C 30.003906 53.945312 29.839844 53.898438 29.730469 53.863281 L 26.507812 52.835938 C 26.359375 52.800781 26.125 52.730469 25.976562 52.667969 C 25.878906 52.625 25.734375 52.539062 25.636719 52.480469 C 25.722656 52.996094 25.855469 53.757812 25.964844 54.269531 C 26.152344 55.125 26.394531 55.976562 26.671875 56.808594 C 26.871094 57.425781 27.09375 58.042969 27.332031 58.648438 C 27.476562 59.039062 27.722656 59.632812 27.882812 60.023438 "/>
<path style=" stroke:none;fill-rule:nonzero;fill:rgb(100%,100%,100%);fill-opacity:1;" d="M 32.847656 57.265625 L 33.367188 58.082031 L 35.625 55.96875 C 35.675781 55.917969 35.746094 55.84375 35.777344 55.769531 C 35.8125 55.6875 35.78125 55.582031 35.734375 55.503906 C 35.683594 55.410156 35.59375 55.339844 35.492188 55.332031 C 35.371094 55.3125 35.21875 55.355469 35.113281 55.398438 L 32.847656 57.265625 "/>
<path style=" stroke:none;fill-rule:nonzero;fill:rgb(100%,100%,100%);fill-opacity:1;" d="M 31.554688 59.289062 L 31.5625 59.273438 L 31.5625 59.257812 L 31.5 59.136719 C 31.4375 59.046875 31.363281 58.96875 31.289062 58.894531 C 31.175781 58.792969 31.023438 58.773438 30.886719 58.832031 C 30.6875 58.90625 30.535156 59.085938 30.429688 59.261719 C 30.347656 59.40625 30.265625 59.550781 30.1875 59.699219 C 30.097656 59.871094 29.96875 60.101562 29.851562 60.253906 C 29.714844 60.441406 29.515625 60.570312 29.296875 60.632812 C 29.210938 60.660156 29.074219 60.675781 28.980469 60.6875 C 28.871094 60.707031 28.710938 60.726562 28.609375 60.769531 C 28.386719 60.859375 28.25 61.074219 28.242188 61.316406 C 28.242188 61.457031 28.328125 61.601562 28.4375 61.703125 C 28.554688 61.800781 28.707031 61.859375 28.855469 61.832031 C 28.941406 61.808594 29.042969 61.761719 29.125 61.714844 L 31.554688 59.289062 "/>
<path style=" stroke:none;fill-rule:nonzero;fill:rgb(100%,100%,100%);fill-opacity:1;" d="M 35.132812 54.097656 C 35.238281 54.113281 35.359375 54.121094 35.46875 54.101562 C 35.652344 54.078125 35.800781 53.960938 35.878906 53.796875 C 35.9375 53.652344 35.957031 53.492188 35.894531 53.351562 C 35.84375 53.226562 35.75 53.132812 35.636719 53.070312 C 35.492188 52.992188 35.328125 52.9375 35.171875 52.894531 L 31.800781 52.320312 C 31.710938 52.316406 31.585938 52.308594 31.503906 52.347656 C 31.414062 52.386719 31.359375 52.515625 31.332031 52.609375 C 31.3125 52.695312 31.304688 52.800781 31.355469 52.875 C 31.417969 52.984375 31.566406 53.078125 31.6875 53.132812 L 35.132812 54.097656 "/>
<path style=" stroke:none;fill-rule:nonzero;fill:rgb(100%,100%,100%);fill-opacity:1;" d="M 29.113281 52.660156 C 29.210938 52.671875 29.359375 52.679688 29.453125 52.648438 C 29.601562 52.59375 29.683594 52.421875 29.710938 52.265625 C 29.726562 52.128906 29.714844 51.972656 29.621094 51.878906 C 29.550781 51.808594 29.414062 51.761719 29.320312 51.730469 L 25.773438 51.105469 C 25.726562 51.105469 25.675781 51.109375 25.632812 51.121094 C 25.550781 51.144531 25.484375 51.214844 25.46875 51.296875 C 25.457031 51.390625 25.472656 51.472656 25.535156 51.546875 C 25.59375 51.609375 25.671875 51.671875 25.753906 51.714844 L 29.113281 52.660156 "/>
<path style=" stroke:none;fill-rule:nonzero;fill:rgb(100%,100%,100%);fill-opacity:1;" d="M 27.519531 50.378906 L 30.132812 50.851562 C 30.292969 50.894531 30.46875 50.949219 30.625 51.019531 C 30.820312 51.09375 30.996094 51.226562 31.097656 51.402344 C 31.136719 51.457031 31.183594 51.558594 31.207031 51.621094 C 31.363281 51.570312 31.597656 51.488281 31.765625 51.46875 C 31.917969 51.453125 32.152344 51.472656 32.300781 51.488281 L 35.023438 51.902344 C 35.230469 51.941406 35.480469 51.996094 35.679688 52.0625 C 35.824219 52.105469 35.96875 52.175781 36.097656 52.257812 C 36.160156 52.292969 36.253906 52.351562 36.316406 52.394531 C 36.265625 52.207031 36.191406 51.929688 36.144531 51.742188 C 36.050781 51.34375 35.917969 50.675781 35.835938 50.269531 C 35.710938 49.632812 35.5 48.539062 35.40625 47.898438 C 35.328125 47.386719 35.269531 46.816406 35.246094 46.292969 C 35.242188 46.078125 35.234375 45.761719 35.234375 45.542969 C 35.203125 45.578125 35.148438 45.640625 35.121094 45.683594 C 35.105469 45.710938 35.078125 45.75 35.058594 45.777344 C 35.035156 45.824219 34.992188 45.882812 34.960938 45.921875 C 34.917969 45.96875 34.835938 46.03125 34.777344 46.074219 L 31.226562 48.5625 C 31.042969 48.671875 30.84375 48.777344 30.644531 48.855469 C 30.476562 48.914062 30.300781 48.9375 30.125 48.914062 C 30 48.90625 29.851562 48.871094 29.730469 48.835938 C 29.726562 48.871094 29.710938 48.929688 29.695312 48.957031 C 29.664062 49.011719 29.582031 49.070312 29.523438 49.09375 L 27.519531 50.378906 "/>
<path style=" stroke:none;fill-rule:nonzero;fill:rgb(100%,100%,100%);fill-opacity:1;" d="M 25.277344 50.222656 C 25.332031 50.304688 25.410156 50.382812 25.503906 50.429688 C 25.632812 50.484375 25.789062 50.484375 25.925781 50.429688 C 26.113281 50.363281 26.296875 50.253906 26.460938 50.144531 L 28.617188 48.703125 C 28.695312 48.632812 28.785156 48.558594 28.835938 48.46875 C 28.898438 48.363281 28.886719 48.226562 28.847656 48.121094 C 28.8125 48.015625 28.734375 47.921875 28.628906 47.886719 C 28.515625 47.84375 28.355469 47.851562 28.226562 47.875 L 25.582031 49.320312 C 25.484375 49.394531 25.382812 49.484375 25.300781 49.578125 C 25.222656 49.660156 25.171875 49.769531 25.164062 49.878906 C 25.164062 50 25.214844 50.121094 25.277344 50.222656 "/>
<path style=" stroke:none;fill-rule:nonzero;fill:rgb(100%,100%,100%);fill-opacity:1;" d="M 30.449219 47.378906 C 30.492188 47.472656 30.566406 47.558594 30.664062 47.597656 C 30.800781 47.640625 30.957031 47.617188 31.082031 47.539062 C 31.164062 47.492188 31.246094 47.429688 31.320312 47.367188 L 34.015625 45.488281 C 34.082031 45.4375 34.148438 45.378906 34.191406 45.3125 C 34.261719 45.191406 34.242188 45.042969 34.128906 44.957031 C 34.058594 44.902344 33.964844 44.871094 33.886719 44.90625 C 33.8125 44.933594 33.734375 44.988281 33.679688 45.039062 L 30.820312 46.644531 C 30.695312 46.703125 30.507812 46.792969 30.433594 46.914062 C 30.351562 47.039062 30.394531 47.234375 30.449219 47.378906 "/>
<path style=" stroke:none;fill-rule:nonzero;fill:rgb(100%,100%,100%);fill-opacity:1;" d="M 25.175781 48.539062 L 27.976562 47.109375 C 28.082031 47.054688 28.238281 46.972656 28.351562 46.9375 C 28.519531 46.886719 28.769531 46.875 28.945312 46.875 C 29.046875 46.875 29.152344 46.875 29.25 46.875 C 29.238281 46.792969 29.222656 46.667969 29.238281 46.597656 C 29.265625 46.476562 29.359375 46.367188 29.453125 46.289062 C 29.746094 46.054688 30.082031 45.859375 30.410156 45.695312 C 30.609375 45.59375 30.898438 45.429688 31.09375 45.316406 C 31.273438 45.210938 31.523438 45.066406 31.703125 44.972656 C 31.984375 44.832031 32.417969 44.617188 32.710938 44.523438 C 32.800781 44.496094 32.988281 44.453125 33.074219 44.429688 L 30.03125 43.148438 C 29.894531 43.078125 29.753906 42.992188 29.621094 42.902344 C 29.433594 42.785156 29.273438 42.621094 29.140625 42.441406 C 29.097656 42.378906 29.035156 42.277344 28.996094 42.207031 C 28.898438 42.203125 28.746094 42.179688 28.65625 42.152344 C 28.558594 42.121094 28.429688 42.058594 28.339844 42.015625 L 25.507812 40.71875 C 25.398438 40.695312 25.253906 40.648438 25.160156 40.582031 C 25.128906 40.554688 25.082031 40.496094 25.050781 40.464844 C 25.023438 40.800781 24.988281 41.296875 24.980469 41.640625 C 24.957031 42.191406 24.988281 43.234375 25.007812 43.792969 C 25.011719 43.992188 25.019531 44.304688 25.023438 44.503906 C 25.03125 44.929688 25.054688 45.53125 25.066406 45.949219 C 25.085938 46.273438 25.105469 46.746094 25.117188 47.066406 C 25.132812 47.335938 25.148438 47.730469 25.160156 48 C 25.167969 48.164062 25.171875 48.386719 25.175781 48.539062 "/>
<path style=" stroke:none;fill-rule:nonzero;fill:rgb(100%,100%,100%);fill-opacity:1;" d="M 34.269531 43.71875 C 34.28125 43.664062 34.300781 43.539062 34.289062 43.484375 C 34.25 43.34375 34.078125 43.207031 33.957031 43.128906 C 32.902344 42.417969 31.773438 41.738281 30.667969 41.113281 C 30.550781 41.0625 30.425781 41.027344 30.300781 41.011719 C 30.179688 41.003906 30.066406 41.042969 29.988281 41.125 C 29.90625 41.21875 29.875 41.34375 29.867188 41.46875 C 29.867188 41.621094 29.90625 41.785156 30.003906 41.902344 C 30.132812 42.042969 30.335938 42.164062 30.507812 42.246094 L 33.894531 43.789062 L 34.269531 43.71875 "/>
<path style=" stroke:none;fill-rule:nonzero;fill:rgb(100%,100%,100%);fill-opacity:1;" d="M 28.789062 40.898438 C 28.804688 40.871094 28.828125 40.8125 28.828125 40.777344 C 28.820312 40.699219 28.742188 40.605469 28.695312 40.550781 L 25.777344 38.714844 C 25.675781 38.664062 25.570312 38.617188 25.457031 38.605469 C 25.347656 38.59375 25.234375 38.628906 25.171875 38.71875 C 25.105469 38.828125 25.105469 39.011719 25.121094 39.136719 C 25.132812 39.296875 25.183594 39.515625 25.300781 39.632812 C 25.351562 39.691406 25.496094 39.75 25.582031 39.773438 L 28.179688 40.949219 L 28.789062 40.898438 "/>
<path style=" stroke:none;fill-rule:nonzero;fill:rgb(100%,100%,100%);fill-opacity:1;" d="M 35.085938 42.671875 C 35.085938 42.316406 35.085938 41.796875 35.097656 41.445312 C 35.109375 40.734375 35.171875 39.449219 35.210938 38.742188 C 35.242188 38.039062 35.308594 36.898438 35.414062 36.199219 C 35.457031 35.902344 35.539062 35.46875 35.59375 35.171875 C 35.535156 35.199219 35.402344 35.265625 35.34375 35.292969 C 35.132812 35.375 34.855469 35.453125 34.644531 35.503906 L 30.785156 36.238281 C 30.691406 36.300781 30.492188 36.429688 30.394531 36.480469 C 30.03125 36.667969 29.535156 36.835938 29.140625 36.941406 L 26.222656 37.78125 L 29.488281 39.875 C 29.582031 39.863281 29.667969 39.859375 29.757812 39.851562 C 29.953125 39.839844 30.179688 39.84375 30.359375 39.90625 C 30.515625 39.957031 30.707031 40.070312 30.847656 40.15625 L 35.085938 42.671875 "/>
<path style=" stroke:none;fill-rule:nonzero;fill:rgb(100%,100%,100%);fill-opacity:1;" d="M 25.417969 37.058594 L 29.347656 35.988281 C 29.476562 35.949219 29.609375 35.886719 29.714844 35.804688 C 29.789062 35.75 29.839844 35.667969 29.851562 35.582031 C 29.871094 35.488281 29.871094 35.375 29.828125 35.292969 C 29.761719 35.167969 29.632812 35.09375 29.492188 35.089844 C 29.269531 35.074219 29.035156 35.132812 28.832031 35.21875 L 25.847656 36.292969 C 25.738281 36.351562 25.59375 36.433594 25.5 36.519531 C 25.40625 36.609375 25.355469 36.730469 25.363281 36.855469 L 25.386719 37.042969 L 25.394531 37.050781 L 25.398438 37.058594 L 25.417969 37.058594 "/>
<path style=" stroke:none;fill-rule:nonzero;fill:rgb(100%,100%,100%);fill-opacity:1;" d="M 31.109375 35.332031 L 34.222656 34.683594 C 34.5 34.632812 34.78125 34.574219 35.042969 34.496094 C 35.253906 34.441406 35.457031 34.324219 35.582031 34.144531 C 35.667969 34.011719 35.644531 33.835938 35.542969 33.714844 C 35.425781 33.574219 35.21875 33.53125 35.039062 33.539062 C 34.605469 33.566406 34.15625 33.691406 33.746094 33.84375 C 33.347656 34 32.777344 34.167969 32.367188 34.289062 C 32.160156 34.34375 31.859375 34.429688 31.652344 34.496094 C 31.445312 34.554688 31.140625 34.648438 30.933594 34.710938 C 30.976562 34.8125 31.015625 34.925781 31.046875 35.039062 C 31.078125 35.132812 31.097656 35.230469 31.109375 35.332031 "/>
<path style=" stroke:none;fill-rule:nonzero;fill:rgb(100%,100%,100%);fill-opacity:1;" d="M 25.316406 35.726562 C 25.332031 35.726562 25.414062 35.664062 25.425781 35.65625 C 25.441406 35.644531 25.484375 35.605469 25.496094 35.601562 C 25.59375 35.535156 25.710938 35.476562 25.820312 35.425781 L 28.796875 34.3125 C 28.917969 34.261719 29.0625 34.210938 29.183594 34.164062 C 29.4375 34.082031 29.695312 34.042969 29.957031 34.050781 C 30.046875 34.050781 30.171875 34.0625 30.257812 34.066406 C 30.339844 34.03125 30.464844 33.976562 30.546875 33.9375 L 30.578125 33.929688 C 30.695312 33.875 30.871094 33.792969 30.996094 33.75 C 31.847656 33.386719 32.726562 33.105469 33.625 32.898438 C 33.8125 32.859375 34.078125 32.804688 34.261719 32.765625 L 31.570312 31.003906 C 31.378906 30.847656 31.179688 30.671875 30.996094 30.492188 C 30.839844 30.339844 30.691406 30.160156 30.601562 29.949219 C 30.582031 29.902344 30.554688 29.785156 30.539062 29.730469 C 30.476562 29.734375 30.378906 29.753906 30.308594 29.742188 C 30.257812 29.730469 30.171875 29.695312 30.121094 29.671875 L 27.613281 28.019531 C 27.507812 27.957031 27.363281 27.871094 27.273438 27.777344 C 27.234375 27.734375 27.179688 27.644531 27.148438 27.59375 C 26.9375 28.195312 26.644531 29.074219 26.460938 29.683594 C 26.222656 30.464844 25.917969 31.554688 25.792969 32.367188 C 25.773438 32.519531 25.460938 34.539062 25.425781 34.6875 C 25.34375 35.007812 25.28125 35.335938 25.242188 35.667969 L 25.25 35.695312 L 25.265625 35.71875 L 25.285156 35.726562 L 25.316406 35.726562 "/>
<path style=" stroke:none;fill-rule:nonzero;fill:rgb(100%,100%,100%);fill-opacity:1;" d="M 35.847656 32.230469 C 35.878906 32.199219 35.941406 32.144531 35.964844 32.105469 C 36.027344 31.984375 36.019531 31.84375 35.960938 31.726562 C 35.859375 31.53125 35.683594 31.363281 35.507812 31.226562 L 32.28125 28.859375 C 32.1875 28.808594 32.074219 28.765625 31.96875 28.75 C 31.851562 28.722656 31.722656 28.765625 31.617188 28.832031 C 31.46875 28.925781 31.382812 29.085938 31.355469 29.253906 C 31.332031 29.394531 31.347656 29.542969 31.425781 29.652344 C 31.519531 29.796875 31.679688 29.921875 31.824219 30.015625 L 35.25 32.273438 L 35.847656 32.230469 "/>
<path style=" stroke:none;fill-rule:nonzero;fill:rgb(100%,100%,100%);fill-opacity:1;" d="M 36.542969 31.121094 L 36.550781 31.121094 L 36.570312 31.101562 L 36.652344 30.753906 C 36.707031 30.433594 36.976562 29.601562 37.082031 29.292969 C 37.175781 29 37.675781 27.460938 37.808594 27.179688 C 38.027344 26.707031 38.363281 25.960938 38.550781 25.472656 C 38.632812 25.265625 38.84375 24.5625 38.65625 24.59375 C 37.339844 24.863281 35.222656 25.203125 33.929688 25.269531 C 33.667969 25.285156 33.421875 25.175781 33.210938 25.054688 C 32.953125 25.085938 32.578125 25.136719 32.328125 25.175781 C 31.890625 25.242188 30.941406 25.417969 30.511719 25.5 C 30.203125 25.554688 29.746094 25.636719 29.4375 25.695312 L 31.539062 27.644531 C 31.660156 27.648438 31.984375 27.675781 32.105469 27.714844 C 32.449219 27.808594 32.789062 27.988281 33.085938 28.175781 C 34.105469 28.8125 35.113281 29.664062 35.988281 30.492188 L 36.398438 30.882812 C 36.425781 30.914062 36.476562 31.015625 36.5 31.054688 C 36.503906 31.066406 36.53125 31.113281 36.542969 31.121094 "/>
<path style=" stroke:none;fill-rule:nonzero;fill:rgb(100%,100%,100%);fill-opacity:1;" d="M 30.28125 28.636719 C 30.304688 28.503906 30.355469 28.382812 30.429688 28.269531 C 30.5 28.15625 30.585938 28.054688 30.699219 27.980469 L 28.242188 25.867188 C 28.167969 25.855469 28.027344 25.839844 27.960938 25.867188 C 27.835938 25.902344 27.691406 26.140625 27.628906 26.246094 C 27.566406 26.347656 27.515625 26.46875 27.535156 26.585938 C 27.554688 26.714844 27.652344 26.867188 27.722656 26.980469 L 30.28125 28.636719 "/>
<path style=" stroke:none;fill-rule:nonzero;fill:rgb(100%,100%,100%);fill-opacity:1;" d="M 28.570312 24.855469 L 32.371094 24.230469 C 32.429688 24.21875 32.496094 24.203125 32.550781 24.171875 C 32.628906 24.148438 32.695312 24.085938 32.734375 24.015625 C 32.765625 23.949219 32.785156 23.867188 32.765625 23.792969 C 32.726562 23.683594 32.632812 23.601562 32.523438 23.554688 C 32.402344 23.515625 32.269531 23.492188 32.144531 23.472656 L 29.050781 23.679688 C 28.929688 23.804688 28.832031 23.949219 28.753906 24.105469 C 28.636719 24.339844 28.570312 24.597656 28.570312 24.855469 "/>
<path style=" stroke:none;fill-rule:nonzero;fill:rgb(100%,100%,100%);fill-opacity:1;" d="M 29.492188 22.804688 L 38.476562 22.167969 L 35.414062 19.097656 C 34.847656 18.523438 34.726562 17.851562 34.726562 17.167969 C 32.75 18.566406 30.816406 20.679688 29.492188 22.804688 "/>
<path style=" stroke:none;fill-rule:nonzero;fill:rgb(100%,100%,100%);fill-opacity:1;" d="M 33.6875 23.78125 L 33.695312 23.789062 C 33.695312 23.792969 33.695312 23.808594 33.695312 23.820312 C 33.695312 23.902344 33.714844 23.976562 33.761719 24.050781 C 33.832031 24.175781 33.964844 24.25 34.109375 24.269531 C 34.246094 24.28125 34.394531 24.257812 34.53125 24.226562 L 38.421875 23.675781 C 38.578125 23.632812 38.761719 23.527344 38.761719 23.351562 C 38.769531 22.96875 38.394531 23.011719 38.113281 23.011719 L 34.519531 23.261719 C 34.351562 23.269531 34.175781 23.289062 34.015625 23.332031 C 33.898438 23.355469 33.765625 23.417969 33.714844 23.527344 C 33.6875 23.585938 33.6875 23.71875 33.6875 23.78125 "/>
<path style=" stroke:none;fill-rule:nonzero;fill:rgb(100%,100%,100%);fill-opacity:1;" d="M 40.765625 21.328125 C 42.070312 19.414062 44.632812 17.382812 46.714844 16.363281 L 37.082031 16.402344 L 40.765625 21.328125 "/>
<path style=" stroke:none;fill-rule:nonzero;fill:rgb(100%,100%,100%);fill-opacity:1;" d="M 39.445312 21.351562 C 39.472656 21.332031 39.484375 21.292969 39.476562 21.257812 L 36.277344 17.203125 C 35.957031 17.15625 35.675781 17.429688 35.71875 17.75 L 39.066406 21.289062 C 39.167969 21.359375 39.351562 21.4375 39.445312 21.351562 "/>
<path style=" stroke:none;fill-rule:nonzero;fill:rgb(100%,100%,100%);fill-opacity:1;" d="M 50.242188 61.761719 C 50.429688 61.75 50.597656 61.683594 50.75 61.570312 C 50.898438 61.453125 51.003906 61.296875 51.054688 61.113281 C 51.105469 60.933594 51.101562 60.746094 51.035156 60.574219 C 50.972656 60.394531 50.867188 60.246094 50.710938 60.136719 C 50.195312 59.78125 49.476562 60.050781 49.328125 60.65625 C 49.183594 61.238281 49.644531 61.789062 50.242188 61.761719 "/>
<path style=" stroke:none;fill-rule:nonzero;fill:rgb(100%,100%,100%);fill-opacity:1;" d="M 52.046875 60.3125 C 52.246094 60.261719 52.492188 60.199219 52.691406 60.117188 C 53.027344 59.992188 53.328125 59.800781 53.597656 59.558594 C 53.691406 59.46875 54.007812 59.183594 54.09375 59.082031 C 54.175781 58.972656 54.203125 58.832031 54.160156 58.707031 C 54.109375 58.578125 54.007812 58.480469 53.878906 58.453125 C 53.734375 58.429688 53.378906 58.550781 53.238281 58.601562 C 52.871094 58.726562 52.539062 58.964844 52.328125 59.292969 C 52.207031 59.492188 52.121094 59.71875 52.089844 59.949219 C 52.070312 60.070312 52.058594 60.191406 52.046875 60.3125 "/>
<path style=" stroke:none;fill-rule:nonzero;fill:rgb(100%,100%,100%);fill-opacity:1;" d="M 55.664062 56.675781 C 55.789062 56.394531 55.894531 56.074219 55.972656 55.769531 C 56.089844 55.324219 56.222656 54.871094 56.371094 54.441406 C 56.445312 54.226562 56.539062 53.929688 56.570312 53.703125 C 56.578125 53.574219 56.558594 53.402344 56.453125 53.320312 C 56.316406 53.214844 56.128906 53.222656 56 53.335938 C 55.8125 53.503906 55.683594 53.898438 55.609375 54.136719 C 55.558594 54.328125 55.496094 54.59375 55.457031 54.78125 C 55.402344 55.035156 55.324219 55.386719 55.238281 55.625 C 55.125 55.988281 55.011719 56.445312 55.050781 56.820312 C 55.058594 56.945312 55.125 57.113281 55.246094 57.121094 C 55.417969 57.144531 55.59375 56.835938 55.664062 56.675781 "/>
<path style=" stroke:none;fill-rule:nonzero;fill:rgb(100%,100%,100%);fill-opacity:1;" d="M 56.738281 51.960938 C 56.816406 51.960938 56.910156 51.941406 56.964844 51.886719 C 57.058594 51.773438 57.113281 51.605469 57.132812 51.464844 C 57.164062 51.3125 57.257812 50.527344 57.269531 50.378906 C 57.300781 50.148438 57.320312 49.828125 57.332031 49.597656 C 57.339844 49.492188 57.347656 49.324219 57.351562 49.214844 C 57.371094 48.960938 57.351562 48.679688 57.269531 48.445312 C 57.21875 48.304688 57.113281 48.179688 56.96875 48.160156 C 56.820312 48.132812 56.675781 48.207031 56.601562 48.328125 C 56.488281 48.496094 56.433594 48.722656 56.421875 48.921875 C 56.394531 49.140625 56.386719 49.445312 56.382812 49.660156 C 56.382812 49.847656 56.371094 50.117188 56.359375 50.304688 C 56.328125 50.691406 56.3125 51.101562 56.359375 51.472656 C 56.382812 51.617188 56.433594 51.761719 56.53125 51.867188 C 56.582031 51.921875 56.660156 51.953125 56.738281 51.960938 "/>
<path style=" stroke:none;fill-rule:nonzero;fill:rgb(100%,100%,100%);fill-opacity:1;" d="M 57.382812 46.519531 C 57.410156 46.28125 57.441406 46.03125 57.460938 45.789062 C 57.472656 45.6875 57.484375 45.539062 57.492188 45.425781 C 57.535156 45 57.589844 44.40625 57.570312 43.96875 C 57.558594 43.726562 57.484375 43.484375 57.347656 43.28125 C 57.269531 43.148438 57.128906 43.027344 56.976562 43.015625 C 56.816406 43 56.652344 43.066406 56.578125 43.210938 C 56.441406 43.460938 56.453125 43.9375 56.472656 44.21875 C 56.476562 44.285156 56.558594 45.667969 56.558594 45.738281 C 56.542969 46.019531 56.554688 46.34375 56.628906 46.613281 C 56.667969 46.742188 56.761719 46.84375 56.882812 46.894531 C 56.996094 46.9375 57.152344 46.957031 57.242188 46.882812 C 57.328125 46.800781 57.367188 46.632812 57.382812 46.519531 "/>
<path style=" stroke:none;fill-rule:nonzero;fill:rgb(100%,100%,100%);fill-opacity:1;" d="M 57.019531 41.878906 C 57.164062 41.816406 57.238281 41.640625 57.257812 41.480469 C 57.300781 41.023438 57.234375 40.503906 57.144531 40.058594 C 57.128906 39.960938 56.980469 38.808594 56.964844 38.714844 C 56.945312 38.535156 56.894531 38.339844 56.789062 38.1875 C 56.71875 38.09375 56.59375 38.050781 56.476562 38.039062 C 56.332031 38.027344 56.171875 38.070312 56.078125 38.183594 C 55.957031 38.339844 55.914062 38.558594 55.914062 38.761719 C 55.917969 39.007812 55.96875 39.359375 56.007812 39.609375 C 56.03125 39.777344 56.078125 40.039062 56.09375 40.214844 C 56.132812 40.621094 56.207031 41.105469 56.359375 41.492188 C 56.429688 41.660156 56.570312 41.792969 56.746094 41.859375 C 56.820312 41.886719 56.945312 41.917969 57.019531 41.878906 "/>
<path style=" stroke:none;fill-rule:nonzero;fill:rgb(100%,100%,100%);fill-opacity:1;" d="M 56.359375 36.742188 C 56.394531 36.730469 56.445312 36.710938 56.464844 36.679688 C 56.507812 36.578125 56.476562 36.386719 56.457031 36.277344 C 56.414062 36.042969 56.207031 35.253906 56.152344 35.023438 C 56.105469 34.867188 56.039062 34.648438 55.988281 34.5 C 55.941406 34.328125 55.863281 34.085938 55.820312 33.917969 C 55.765625 33.683594 55.6875 33.449219 55.589844 33.226562 C 55.523438 33.085938 55.414062 32.941406 55.261719 32.890625 C 55.144531 32.847656 55.007812 32.882812 54.925781 32.980469 C 54.832031 33.121094 54.800781 33.308594 54.824219 33.484375 C 54.871094 33.890625 55.125 34.605469 55.261719 34.984375 C 55.351562 35.214844 55.488281 35.503906 55.59375 35.730469 C 55.671875 35.890625 55.78125 36.125 55.851562 36.285156 C 55.925781 36.453125 56.058594 36.691406 56.21875 36.753906 C 56.265625 36.773438 56.320312 36.761719 56.359375 36.742188 "/>
<path style=" stroke:none;fill-rule:nonzero;fill:rgb(100%,100%,100%);fill-opacity:1;" d="M 54.929688 31.855469 C 55.003906 31.847656 55.0625 31.789062 55.085938 31.71875 C 55.121094 31.601562 55.140625 31.460938 55.097656 31.34375 C 55.066406 31.226562 54.808594 30.65625 54.761719 30.542969 C 54.609375 30.210938 54.363281 29.636719 54.265625 29.277344 C 54.191406 29.035156 54.09375 28.761719 53.957031 28.546875 C 53.859375 28.402344 53.707031 28.304688 53.539062 28.292969 C 53.414062 28.285156 53.277344 28.316406 53.207031 28.410156 C 53.070312 28.578125 53.070312 28.828125 53.136719 29.035156 L 53.78125 30.316406 C 53.972656 30.71875 54.199219 31.125 54.445312 31.496094 C 54.546875 31.648438 54.742188 31.875 54.929688 31.855469 "/>
<path style=" stroke:none;fill-rule:nonzero;fill:rgb(100%,100%,100%);fill-opacity:1;" d="M 52.480469 27.441406 C 52.679688 27.273438 53.1875 27.019531 53.375 27.003906 C 53.28125 26.90625 53.148438 26.761719 53.054688 26.65625 C 52.78125 26.347656 52.449219 25.972656 52.035156 25.957031 C 51.867188 25.957031 51.71875 26.066406 51.675781 26.226562 C 51.628906 26.386719 51.648438 26.554688 51.730469 26.699219 C 51.863281 26.914062 52.027344 27.105469 52.214844 27.273438 C 52.261719 27.3125 52.441406 27.476562 52.480469 27.441406 "/>
<path style=" stroke:none;fill-rule:nonzero;fill:rgb(100%,100%,100%);fill-opacity:1;" d="M 49.746094 25.941406 C 49.941406 25.972656 50.132812 25.945312 50.308594 25.867188 C 50.484375 25.785156 50.632812 25.660156 50.734375 25.492188 C 50.839844 25.328125 50.890625 25.140625 50.886719 24.949219 C 50.882812 24.753906 50.820312 24.570312 50.710938 24.410156 C 50.296875 23.820312 49.40625 23.863281 49.050781 24.492188 C 48.722656 25.085938 49.074219 25.824219 49.746094 25.941406 "/>
<path style=" stroke:none;fill-rule:nonzero;fill:rgb(100%,100%,100%);fill-opacity:1;" d="M 48.40625 26.035156 C 48.230469 25.859375 48.085938 25.652344 47.980469 25.441406 C 47.761719 25.53125 47.472656 25.671875 47.285156 25.773438 C 47.46875 25.953125 47.597656 26.1875 47.660156 26.441406 C 47.929688 26.355469 48.191406 26.214844 48.40625 26.035156 "/>
<path style=" stroke:none;fill-rule:nonzero;fill:rgb(100%,100%,100%);fill-opacity:1;" d="M 46.902344 27.4375 C 46.933594 27.371094 46.984375 27.28125 47 27.210938 C 47.039062 27.050781 46.976562 26.886719 46.863281 26.777344 C 46.785156 26.710938 46.675781 26.628906 46.578125 26.625 C 46.375 26.613281 46.167969 26.679688 46.042969 26.832031 L 45.28125 28.414062 C 45.058594 28.886719 44.855469 29.394531 44.683594 29.894531 C 44.640625 30.027344 44.582031 30.222656 44.605469 30.359375 C 44.628906 30.453125 44.71875 30.527344 44.804688 30.570312 C 44.914062 30.625 45.050781 30.652344 45.167969 30.597656 C 45.332031 30.519531 45.476562 30.304688 45.5625 30.144531 C 45.894531 29.574219 46.195312 28.976562 46.460938 28.382812 C 46.570312 28.136719 46.777344 27.667969 46.902344 27.4375 "/>
<path style=" stroke:none;fill-rule:nonzero;fill:rgb(100%,100%,100%);fill-opacity:1;" d="M 44.792969 32.492188 C 44.824219 32.378906 44.84375 32.242188 44.84375 32.121094 C 44.84375 31.972656 44.773438 31.839844 44.648438 31.753906 C 44.53125 31.660156 44.363281 31.640625 44.21875 31.691406 C 44.09375 31.742188 43.972656 31.828125 43.914062 31.945312 C 43.832031 32.109375 43.773438 32.578125 43.753906 32.773438 C 43.71875 33.074219 43.65625 33.484375 43.597656 33.792969 C 43.519531 34.285156 43.441406 34.796875 43.398438 35.292969 C 43.378906 35.480469 43.398438 35.691406 43.5 35.855469 C 43.542969 35.925781 43.628906 35.960938 43.707031 35.96875 C 43.8125 35.980469 43.929688 35.953125 44 35.867188 C 44.085938 35.773438 44.136719 35.566406 44.160156 35.449219 C 44.21875 35.1875 44.300781 34.8125 44.355469 34.5625 C 44.429688 34.253906 44.53125 33.8125 44.59375 33.503906 C 44.605469 33.417969 44.636719 33.289062 44.648438 33.203125 C 44.6875 32.992188 44.742188 32.695312 44.792969 32.492188 "/>
<path style=" stroke:none;fill-rule:nonzero;fill:rgb(100%,100%,100%);fill-opacity:1;" d="M 43.488281 40.710938 C 43.582031 40.730469 43.667969 40.703125 43.71875 40.632812 C 43.789062 40.539062 43.839844 40.402344 43.871094 40.292969 C 43.964844 39.972656 43.988281 39.640625 43.976562 39.316406 C 43.964844 39.164062 43.957031 38.972656 43.980469 38.816406 C 44.039062 38.394531 44.089844 37.839844 44.015625 37.421875 C 43.980469 37.238281 43.851562 37.082031 43.675781 37.015625 C 43.507812 36.957031 43.3125 36.96875 43.175781 37.082031 C 43.023438 37.214844 42.933594 37.429688 42.902344 37.632812 C 42.824219 38.070312 42.851562 38.703125 42.886719 39.136719 C 42.914062 39.484375 42.96875 39.835938 43.0625 40.171875 C 43.121094 40.390625 43.265625 40.667969 43.488281 40.710938 "/>
<path style=" stroke:none;fill-rule:nonzero;fill:rgb(100%,100%,100%);fill-opacity:1;" d="M 44.089844 45.515625 C 44.085938 45.34375 44.09375 45.132812 44.105469 44.957031 C 44.109375 44.863281 44.117188 44.726562 44.117188 44.636719 C 44.121094 44.417969 44.105469 44 44.09375 43.789062 C 44.089844 43.578125 44.078125 43.25 44.089844 43.039062 C 44.097656 42.835938 44.128906 42.363281 44.078125 42.167969 C 44.027344 42 43.867188 41.882812 43.699219 41.835938 C 43.5 41.785156 43.273438 41.828125 43.148438 41.992188 C 43.035156 42.136719 42.988281 42.3125 42.988281 42.488281 C 42.992188 42.757812 43.054688 43.148438 43.097656 43.417969 C 43.125 43.605469 43.167969 43.886719 43.1875 44.074219 C 43.230469 44.550781 43.296875 45.085938 43.378906 45.558594 C 43.410156 45.746094 43.488281 45.960938 43.636719 46.078125 C 43.730469 46.148438 43.867188 46.164062 43.949219 46.089844 C 44.066406 45.96875 44.089844 45.6875 44.089844 45.515625 "/>
<path style=" stroke:none;fill-rule:nonzero;fill:rgb(100%,100%,100%);fill-opacity:1;" d="M 44.976562 50.917969 C 44.957031 50.621094 44.894531 50.269531 44.832031 49.976562 C 44.746094 49.53125 44.675781 49.085938 44.644531 48.628906 C 44.632812 48.386719 44.601562 48.09375 44.546875 47.863281 C 44.519531 47.71875 44.457031 47.574219 44.34375 47.480469 C 44.246094 47.398438 44.113281 47.386719 43.988281 47.417969 C 43.886719 47.441406 43.707031 47.503906 43.644531 47.585938 C 43.570312 47.699219 43.582031 47.886719 43.605469 48.011719 C 43.664062 48.304688 43.761719 48.71875 43.832031 49.003906 C 43.898438 49.261719 43.988281 49.636719 44.039062 49.886719 C 44.070312 50.03125 44.113281 50.210938 44.144531 50.351562 C 44.1875 50.515625 44.246094 50.738281 44.28125 50.914062 C 44.308594 51.042969 44.363281 51.277344 44.46875 51.355469 C 44.585938 51.457031 44.761719 51.425781 44.859375 51.308594 C 44.949219 51.199219 44.988281 51.054688 44.976562 50.917969 "/>
<path style=" stroke:none;fill-rule:nonzero;fill:rgb(100%,100%,100%);fill-opacity:1;" d="M 46.519531 55.867188 C 46.464844 55.542969 46.355469 55.179688 46.246094 54.867188 C 46.121094 54.492188 45.957031 53.96875 45.867188 53.585938 C 45.828125 53.371094 45.730469 52.960938 45.652344 52.753906 C 45.589844 52.578125 45.464844 52.402344 45.28125 52.34375 C 45.160156 52.308594 45.035156 52.355469 44.941406 52.445312 C 44.839844 52.542969 44.757812 52.671875 44.746094 52.808594 C 44.71875 53.210938 44.90625 53.765625 45.046875 54.140625 C 45.101562 54.277344 45.191406 54.46875 45.253906 54.605469 C 45.367188 54.859375 45.523438 55.21875 45.59375 55.488281 C 45.671875 55.765625 45.785156 56.105469 45.953125 56.34375 C 46.023438 56.445312 46.140625 56.53125 46.261719 56.503906 C 46.386719 56.472656 46.46875 56.34375 46.503906 56.21875 C 46.527344 56.105469 46.535156 55.988281 46.519531 55.867188 "/>
<path style=" stroke:none;fill-rule:nonzero;fill:rgb(100%,100%,100%);fill-opacity:1;" d="M 48.183594 59.636719 C 48.289062 59.535156 48.371094 59.378906 48.328125 59.238281 C 48.269531 59.085938 47.933594 58.730469 47.820312 58.617188 C 47.71875 58.507812 47.578125 58.34375 47.484375 58.226562 C 47.394531 58.097656 47.257812 57.941406 47.144531 57.835938 C 46.996094 57.703125 46.800781 57.621094 46.605469 57.617188 C 46.46875 57.609375 46.308594 57.636719 46.207031 57.734375 C 46.125 57.820312 46.089844 57.941406 46.121094 58.050781 C 46.144531 58.148438 46.351562 58.460938 46.40625 58.539062 C 46.664062 58.917969 46.988281 59.261719 47.34375 59.550781 C 47.433594 59.628906 47.574219 59.734375 47.683594 59.78125 C 47.851562 59.84375 48.050781 59.769531 48.183594 59.636719 "/>
<path style=" stroke:none;fill-rule:nonzero;fill:rgb(100%,100%,100%);fill-opacity:1;" d="M 48.234375 61 C 48.128906 61.015625 47.96875 61.035156 47.855469 61.027344 C 47.640625 61.011719 47.441406 60.910156 47.265625 60.785156 C 47.15625 60.703125 47.046875 60.609375 46.941406 60.515625 L 45.617188 59.140625 C 45.515625 59.007812 45.414062 58.859375 45.335938 58.707031 C 45.253906 58.554688 45.210938 58.378906 45.210938 58.203125 C 45.203125 58.09375 45.214844 57.976562 45.226562 57.867188 L 42.59375 60.464844 C 42.75 60.929688 42.757812 61.421875 42.605469 61.878906 C 42.464844 62.320312 42.1875 62.703125 41.820312 62.980469 C 41.964844 63.25 42.164062 63.648438 42.320312 63.90625 C 42.652344 64.46875 43.089844 65.054688 43.503906 65.5625 C 44.058594 66.257812 44.664062 66.90625 45.308594 67.515625 C 45.765625 67.945312 46.296875 68.402344 46.828125 68.734375 C 47.355469 69.058594 48.210938 69.429688 48.792969 69.671875 C 48.808594 69.46875 48.832031 69.253906 48.855469 69.050781 C 48.902344 68.664062 48.992188 68.28125 49.144531 67.914062 C 49.253906 67.644531 49.425781 67.339844 49.667969 67.164062 C 49.773438 67.09375 49.949219 67.007812 50.0625 66.957031 L 49.742188 62.898438 C 49.324219 62.847656 48.941406 62.648438 48.667969 62.34375 C 48.335938 61.980469 48.179688 61.488281 48.234375 61 "/>
<path style=" stroke:none;fill-rule:nonzero;fill:rgb(100%,100%,100%);fill-opacity:1;" d="M 44.953125 56.789062 C 44.90625 56.722656 44.785156 56.542969 44.753906 56.472656 C 44.679688 56.332031 44.460938 55.710938 44.40625 55.558594 C 44.378906 55.492188 43.8125 53.90625 43.789062 53.832031 C 43.71875 53.589844 43.679688 53.328125 43.683594 53.0625 C 43.683594 52.894531 43.703125 52.707031 43.757812 52.546875 C 43.777344 52.484375 43.8125 52.40625 43.839844 52.34375 C 43.765625 52.210938 43.667969 52.019531 43.601562 51.886719 C 43.460938 51.589844 43.335938 51.285156 43.242188 50.972656 C 43.179688 50.785156 43.109375 50.5 43.066406 50.300781 L 39.636719 52.65625 C 39.625 52.808594 39.605469 53.039062 39.574219 53.195312 C 39.488281 53.574219 39.289062 53.914062 39.023438 54.203125 C 38.804688 54.441406 38.554688 54.671875 38.308594 54.871094 C 38.40625 55.195312 38.554688 55.65625 38.667969 55.972656 C 38.898438 56.648438 39.175781 57.367188 39.449219 58.027344 C 39.492188 58.132812 39.558594 58.292969 39.601562 58.398438 C 39.722656 58.691406 39.902344 59.128906 40.015625 59.425781 C 40.050781 59.523438 40.109375 59.671875 40.144531 59.773438 C 40.261719 59.730469 40.390625 59.691406 40.507812 59.65625 C 40.71875 59.59375 40.972656 59.542969 41.195312 59.550781 C 41.421875 59.566406 41.714844 59.65625 41.933594 59.730469 L 44.953125 56.789062 "/>
<path style=" stroke:none;fill-rule:nonzero;fill:rgb(100%,100%,100%);fill-opacity:1;" d="M 42.832031 49.320312 C 42.769531 49.09375 42.710938 48.851562 42.660156 48.617188 C 42.601562 48.320312 42.5625 48 42.578125 47.699219 C 42.589844 47.539062 42.613281 47.378906 42.664062 47.230469 C 42.695312 47.148438 42.71875 47.066406 42.753906 46.988281 C 42.707031 46.933594 42.625 46.84375 42.59375 46.785156 C 42.527344 46.675781 42.488281 46.515625 42.46875 46.386719 C 42.433594 46.207031 42.40625 46.015625 42.382812 45.828125 C 42.371094 45.777344 42.363281 45.707031 42.351562 45.65625 C 42.3125 45.398438 42.25 45.015625 42.207031 44.761719 L 38.3125 44.59375 C 38.300781 44.671875 38.285156 44.75 38.273438 44.824219 C 38.21875 45.09375 38.085938 45.34375 37.890625 45.53125 C 37.710938 45.699219 37.503906 45.835938 37.265625 45.910156 C 37.066406 45.96875 36.84375 46.019531 36.640625 46.054688 C 36.660156 46.335938 36.699219 46.746094 36.734375 47.027344 C 36.804688 47.710938 36.890625 48.417969 37.015625 49.09375 C 37.113281 49.65625 37.296875 50.472656 37.429688 51.035156 C 37.609375 51.019531 37.8125 51.007812 37.992188 51.011719 C 38.304688 51.019531 38.609375 51.101562 38.875 51.269531 C 39.03125 51.371094 39.179688 51.488281 39.320312 51.601562 L 42.832031 49.320312 "/>
<path style=" stroke:none;fill-rule:nonzero;fill:rgb(100%,100%,100%);fill-opacity:1;" d="M 42.144531 43.753906 C 42.125 43.558594 42.105469 43.292969 42.070312 43.097656 C 42.03125 42.835938 41.96875 42.339844 41.96875 42.074219 C 41.96875 41.871094 42.054688 41.660156 42.164062 41.492188 C 42.210938 41.417969 42.269531 41.339844 42.324219 41.269531 C 42.28125 41.191406 42.21875 41.066406 42.1875 40.976562 C 42.105469 40.78125 42.050781 40.507812 42.011719 40.289062 C 41.90625 39.664062 41.867188 39.027344 41.878906 38.394531 C 41.878906 38.164062 41.894531 37.820312 41.960938 37.601562 C 41.980469 37.511719 42.070312 37.34375 42.113281 37.261719 L 38.839844 35.226562 C 38.773438 35.3125 38.679688 35.410156 38.597656 35.480469 C 38.464844 35.59375 38.304688 35.679688 38.140625 35.722656 C 37.910156 35.78125 37.667969 35.824219 37.425781 35.835938 C 37.296875 35.84375 37.117188 35.855469 36.992188 35.863281 C 36.972656 36.058594 36.953125 36.34375 36.933594 36.542969 C 36.902344 36.9375 36.847656 37.519531 36.816406 37.914062 C 36.785156 38.195312 36.746094 38.601562 36.726562 38.882812 C 36.644531 39.832031 36.570312 40.820312 36.535156 41.773438 C 36.527344 41.972656 36.515625 42.277344 36.515625 42.480469 C 36.671875 42.496094 36.851562 42.523438 37.007812 42.566406 C 37.289062 42.628906 37.550781 42.785156 37.777344 42.960938 C 37.910156 43.058594 38.042969 43.1875 38.128906 43.316406 C 38.183594 43.40625 38.253906 43.542969 38.296875 43.636719 L 42.144531 43.753906 "/>
<path style=" stroke:none;fill-rule:nonzero;fill:rgb(100%,100%,100%);fill-opacity:1;" d="M 42.488281 36.304688 C 42.46875 36.226562 42.40625 36.042969 42.394531 35.96875 C 42.382812 35.816406 42.394531 35.527344 42.402344 35.375 C 42.429688 34.980469 42.476562 34.585938 42.550781 34.195312 C 42.578125 34.035156 42.613281 33.828125 42.632812 33.667969 C 42.707031 33.117188 42.800781 32.550781 42.914062 32.007812 C 42.96875 31.71875 43.050781 31.425781 43.183594 31.171875 C 43.269531 31.003906 43.414062 30.863281 43.589844 30.800781 C 43.628906 30.785156 43.683594 30.773438 43.722656 30.761719 C 43.714844 30.664062 43.695312 30.519531 43.695312 30.425781 C 43.679688 30.085938 43.746094 29.726562 43.851562 29.402344 C 43.933594 29.125 44.035156 28.84375 44.136719 28.566406 C 44.164062 28.496094 44.207031 28.386719 44.234375 28.3125 L 41.800781 25.5625 C 41.71875 25.605469 41.632812 25.644531 41.550781 25.679688 C 41.289062 25.796875 41.007812 25.859375 40.730469 25.816406 C 40.480469 25.78125 40.195312 25.675781 39.964844 25.585938 C 39.859375 25.796875 39.710938 26.105469 39.613281 26.324219 C 39.25 27.085938 38.914062 27.875 38.628906 28.664062 C 38.316406 29.53125 38.054688 30.4375 37.835938 31.328125 C 37.773438 31.558594 37.699219 31.902344 37.640625 32.132812 C 37.785156 32.203125 37.941406 32.285156 38.078125 32.371094 C 38.367188 32.546875 38.605469 32.792969 38.792969 33.078125 C 38.9375 33.292969 39.050781 33.546875 39.089844 33.804688 C 39.113281 33.921875 39.113281 34.097656 39.113281 34.214844 L 42.488281 36.304688 "/>
<path style=" stroke:none;fill-rule:nonzero;fill:rgb(100%,100%,100%);fill-opacity:1;" d="M 44.605469 27.292969 L 44.621094 27.304688 L 44.640625 27.304688 L 44.65625 27.296875 L 44.667969 27.28125 C 44.804688 27.015625 44.917969 26.738281 45.023438 26.460938 C 45.121094 26.1875 45.316406 25.945312 45.585938 25.839844 C 45.613281 25.828125 46.019531 25.667969 46.046875 25.648438 C 46.085938 25.625 46.148438 25.566406 46.179688 25.535156 C 46.222656 25.492188 46.289062 25.433594 46.34375 25.398438 C 46.386719 25.371094 46.460938 25.34375 46.511719 25.328125 C 46.570312 25.304688 46.664062 25.265625 46.71875 25.230469 C 46.773438 25.183594 46.90625 25.027344 46.949219 24.972656 C 47.132812 24.753906 47.351562 24.566406 47.597656 24.421875 C 47.742188 24.332031 47.980469 24.246094 48.136719 24.183594 C 48.21875 23.523438 48.761719 22.972656 49.40625 22.878906 L 49.414062 18.5 C 48.695312 18.46875 47.929688 17.964844 47.5625 17.335938 C 45.335938 18.554688 42.941406 20.429688 41.472656 22.496094 C 41.632812 22.675781 42.039062 22.8125 42.171875 23.011719 C 42.332031 23.242188 42.433594 23.507812 42.476562 23.785156 C 42.507812 24.023438 42.492188 24.273438 42.421875 24.507812 C 42.390625 24.613281 42.347656 24.722656 42.308594 24.820312 L 44.605469 27.292969 "/>
<path style=" stroke:none;fill-rule:nonzero;fill:rgb(100%,100%,100%);fill-opacity:1;" d="M 50.453125 22.910156 C 51.269531 23.011719 51.902344 23.816406 51.832031 24.625 C 51.949219 24.625 52.160156 24.625 52.265625 24.65625 C 52.453125 24.71875 52.691406 24.898438 52.847656 25.027344 C 53.179688 25.304688 53.492188 25.628906 53.734375 25.992188 C 53.851562 26.160156 54.144531 26.59375 54.179688 26.800781 C 54.183594 26.832031 54.179688 26.949219 54.179688 26.984375 C 54.242188 27.023438 54.367188 27.105469 54.421875 27.15625 C 54.542969 27.273438 54.679688 27.488281 54.761719 27.625 C 54.796875 27.691406 54.859375 27.78125 54.898438 27.84375 L 57.273438 25.386719 C 57.253906 25.257812 57.226562 25.070312 57.226562 24.9375 C 57.226562 24.691406 57.300781 24.429688 57.398438 24.195312 C 57.5 23.941406 57.648438 23.667969 57.851562 23.472656 C 57.992188 23.335938 58.183594 23.195312 58.34375 23.078125 C 58.1875 22.804688 57.964844 22.402344 57.804688 22.132812 C 57.320312 21.328125 56.765625 20.570312 56.15625 19.859375 C 55.671875 19.296875 55.148438 18.757812 54.585938 18.28125 C 53.96875 17.757812 53.183594 17.210938 52.410156 16.996094 C 52.179688 16.929688 51.503906 16.636719 51.507812 16.855469 C 51.53125 17.492188 51.019531 18.027344 50.488281 18.378906 L 50.453125 22.910156 "/>
<path style=" stroke:none;fill-rule:nonzero;fill:rgb(100%,100%,100%);fill-opacity:1;" d="M 55.222656 28.796875 L 55.195312 28.851562 L 55.203125 28.914062 C 55.253906 29.03125 55.316406 29.140625 55.398438 29.234375 C 55.570312 29.421875 55.757812 30.03125 55.828125 30.273438 C 55.84375 30.339844 55.878906 30.445312 55.90625 30.507812 C 55.941406 30.628906 55.992188 30.789062 56.023438 30.90625 C 56.074219 31.105469 56.09375 31.316406 56.082031 31.523438 C 56.078125 31.648438 56.046875 31.835938 56.027344 31.964844 C 56.148438 32.066406 56.378906 32.277344 56.46875 32.410156 C 56.648438 32.667969 56.800781 33.148438 56.890625 33.449219 C 56.988281 33.792969 57.078125 34.144531 57.132812 34.488281 C 57.167969 34.71875 57.210938 34.960938 57.242188 35.1875 L 59.921875 33.753906 C 59.921875 33.648438 59.925781 33.476562 59.957031 33.367188 C 60 33.148438 60.132812 32.917969 60.265625 32.734375 C 60.464844 32.460938 60.699219 32.226562 60.976562 32.035156 C 61.113281 31.941406 61.261719 31.839844 61.402344 31.753906 C 61.28125 31.277344 61.101562 30.582031 60.976562 30.109375 C 60.78125 29.378906 60.574219 28.644531 60.351562 27.921875 C 60.230469 27.511719 60.042969 26.914062 59.917969 26.507812 C 59.519531 26.652344 59.082031 26.679688 58.65625 26.59375 C 58.328125 26.527344 58.007812 26.382812 57.730469 26.183594 L 55.222656 28.796875 "/>
<path style=" stroke:none;fill-rule:nonzero;fill:rgb(100%,100%,100%);fill-opacity:1;" d="M 57.460938 36.160156 C 57.460938 36.359375 57.453125 36.613281 57.398438 36.800781 C 57.375 36.875 57.308594 37.003906 57.273438 37.058594 C 57.351562 37.144531 57.441406 37.242188 57.503906 37.339844 C 57.621094 37.484375 57.703125 37.660156 57.753906 37.84375 C 57.890625 38.335938 57.980469 38.878906 58.035156 39.386719 C 58.050781 39.566406 58.085938 39.824219 58.105469 40 C 58.144531 40.296875 58.191406 40.726562 58.214844 41.019531 C 58.230469 41.222656 58.242188 41.511719 58.210938 41.71875 C 58.179688 41.863281 58.105469 42 58.015625 42.117188 C 57.984375 42.15625 57.933594 42.207031 57.902344 42.242188 L 60.679688 42.191406 C 60.851562 41.855469 61.105469 41.566406 61.417969 41.359375 C 61.742188 41.148438 62.117188 41.019531 62.503906 40.992188 C 62.511719 40.453125 62.519531 39.664062 62.488281 39.128906 C 62.457031 38.484375 62.351562 37.558594 62.273438 36.921875 C 62.226562 36.578125 62.167969 36.089844 62.125 35.738281 C 61.675781 35.785156 61.238281 35.683594 60.855469 35.445312 C 60.5625 35.257812 60.316406 34.996094 60.148438 34.6875 L 57.460938 36.160156 "/>
<path style=" stroke:none;fill-rule:nonzero;fill:rgb(100%,100%,100%);fill-opacity:1;" d="M 58.28125 43.269531 L 58.273438 43.273438 L 58.265625 43.28125 L 58.261719 43.292969 L 58.265625 43.304688 L 58.410156 43.523438 C 58.535156 43.65625 58.507812 43.941406 58.46875 44.117188 C 58.402344 44.40625 58.402344 44.824219 58.40625 45.125 C 58.410156 45.289062 58.410156 45.539062 58.40625 45.707031 C 58.386719 46 58.347656 46.59375 58.28125 46.882812 C 58.261719 46.96875 58.191406 47.15625 58.160156 47.238281 C 58.222656 47.441406 58.308594 47.703125 58.347656 47.910156 C 58.390625 48.15625 58.398438 48.425781 58.378906 48.679688 C 58.363281 48.859375 58.347656 49.054688 58.328125 49.234375 L 60.492188 50.554688 C 60.625 50.457031 60.769531 50.359375 60.90625 50.269531 C 61.160156 50.117188 61.449219 50.027344 61.742188 49.992188 C 61.898438 49.972656 62.058594 49.964844 62.207031 49.957031 C 62.257812 49.496094 62.324219 48.832031 62.359375 48.378906 C 62.417969 47.621094 62.457031 46.753906 62.480469 46 C 62.496094 45.632812 62.507812 45.085938 62.519531 44.710938 C 62.074219 44.695312 61.644531 44.53125 61.296875 44.25 C 60.957031 43.972656 60.71875 43.605469 60.605469 43.179688 L 58.28125 43.269531 "/>
<path style=" stroke:none;fill-rule:nonzero;fill:rgb(100%,100%,100%);fill-opacity:1;" d="M 58.175781 50.472656 L 58.148438 50.46875 L 58.128906 50.472656 L 58.117188 50.492188 L 58.113281 50.515625 C 58.113281 50.765625 58.136719 51.027344 58.175781 51.273438 C 58.222656 51.566406 58.183594 51.890625 57.992188 52.109375 C 57.914062 52.199219 57.726562 52.339844 57.636719 52.410156 C 57.683594 52.566406 57.726562 52.753906 57.761719 52.910156 C 57.816406 53.222656 57.804688 53.554688 57.738281 53.875 C 57.636719 54.347656 57.480469 54.882812 57.332031 55.34375 C 57.167969 55.84375 56.984375 56.367188 56.785156 56.859375 C 56.628906 57.226562 56.410156 57.6875 56.15625 58.003906 C 56.085938 58.085938 55.921875 58.246094 55.84375 58.324219 L 57.761719 59.808594 C 57.816406 59.769531 57.871094 59.726562 57.925781 59.6875 C 58.117188 59.550781 58.359375 59.414062 58.59375 59.390625 C 58.910156 59.351562 59.351562 59.457031 59.65625 59.546875 C 59.800781 59.589844 60 59.644531 60.144531 59.683594 C 60.253906 59.378906 60.40625 58.9375 60.519531 58.636719 C 60.71875 58.050781 60.953125 57.375 61.140625 56.789062 C 61.339844 56.144531 61.519531 55.46875 61.664062 54.8125 C 61.726562 54.5 61.816406 54.035156 61.871094 53.722656 C 61.371094 53.539062 60.792969 53.277344 60.414062 52.902344 C 60.207031 52.699219 60.089844 52.40625 60.042969 52.117188 C 60.019531 51.933594 60.007812 51.722656 60 51.535156 L 58.175781 50.472656 "/>
<path style=" stroke:none;fill-rule:nonzero;fill:rgb(100%,100%,100%);fill-opacity:1;" d="M 55.472656 59.25 C 55.40625 59.363281 55.238281 59.621094 55.148438 59.710938 C 54.921875 59.917969 54.234375 60.265625 53.960938 60.402344 C 53.8125 60.476562 53.59375 60.601562 53.453125 60.683594 C 53.21875 60.820312 52.867188 61.015625 52.617188 61.109375 C 52.484375 61.15625 52.1875 61.222656 52.050781 61.257812 C 52.054688 61.601562 51.949219 61.945312 51.75 62.222656 C 51.511719 62.566406 51.15625 62.808594 50.753906 62.90625 L 51.148438 66.878906 C 51.292969 66.914062 51.511719 66.972656 51.636719 67.042969 C 51.875 67.171875 52.074219 67.398438 52.210938 67.628906 C 52.425781 67.96875 52.578125 68.34375 52.675781 68.734375 C 52.726562 68.945312 52.78125 69.167969 52.824219 69.386719 C 53.148438 69.238281 53.617188 69.019531 53.925781 68.84375 C 54.519531 68.503906 55.082031 68.0625 55.582031 67.59375 C 56.164062 67.042969 56.695312 66.441406 57.152344 65.792969 C 57.550781 65.222656 57.910156 64.628906 58.234375 64.015625 C 58.390625 63.714844 58.546875 63.398438 58.703125 63.097656 C 58.441406 62.863281 58.164062 62.609375 57.921875 62.359375 C 57.785156 62.214844 57.664062 62.046875 57.566406 61.871094 C 57.410156 61.609375 57.347656 61.300781 57.390625 60.996094 C 57.402344 60.902344 57.421875 60.796875 57.445312 60.714844 L 55.472656 59.25 "/>
<path style=" stroke:none;fill-rule:nonzero;fill:rgb(100%,100%,100%);fill-opacity:1;" d="M 51.679688 69.859375 C 51.71875 69.789062 51.613281 69.207031 51.597656 69.121094 C 51.574219 69.011719 51.566406 68.847656 51.5625 68.742188 C 51.542969 68.554688 51.511719 68.367188 51.429688 68.195312 C 51.316406 67.933594 51.046875 67.757812 50.753906 67.761719 C 50.523438 67.761719 50.324219 67.914062 50.210938 68.113281 C 50.054688 68.390625 49.984375 68.707031 49.96875 69.023438 C 49.960938 69.289062 49.949219 69.578125 49.9375 69.851562 C 50.207031 69.910156 50.480469 69.953125 50.75 69.992188 C 50.988281 70.027344 51.5625 70.070312 51.679688 69.859375 "/>
<path style=" stroke:none;fill-rule:nonzero;fill:rgb(100%,100%,100%);fill-opacity:1;" d="M 41.417969 62.183594 C 41.449219 62.183594 41.667969 61.84375 41.679688 61.820312 C 41.8125 61.617188 41.855469 61.363281 41.785156 61.132812 C 41.722656 60.957031 41.601562 60.789062 41.425781 60.71875 C 41.261719 60.65625 41.078125 60.636719 40.90625 60.664062 C 40.804688 60.683594 40.699219 60.699219 40.597656 60.71875 C 40.730469 60.929688 40.867188 61.164062 40.953125 61.398438 C 41.054688 61.652344 41.183594 61.902344 41.324219 62.132812 L 41.367188 62.175781 L 41.417969 62.183594 "/>
<path style=" stroke:none;fill-rule:nonzero;fill:rgb(100%,100%,100%);fill-opacity:1;" d="M 38.023438 53.90625 C 38.144531 53.820312 38.265625 53.726562 38.375 53.636719 C 38.558594 53.480469 38.695312 53.273438 38.746094 53.039062 C 38.800781 52.808594 38.738281 52.574219 38.578125 52.398438 C 38.433594 52.238281 38.238281 52.132812 38.023438 52.113281 C 37.90625 52.101562 37.78125 52.101562 37.664062 52.105469 C 37.703125 52.417969 37.753906 52.730469 37.8125 53.042969 C 37.875 53.332031 37.945312 53.617188 38.023438 53.90625 "/>
<path style=" stroke:none;fill-rule:nonzero;fill:rgb(100%,100%,100%);fill-opacity:1;" d="M 36.609375 45.089844 C 36.777344 45.039062 36.953125 44.976562 37.105469 44.902344 C 37.304688 44.800781 37.464844 44.628906 37.519531 44.410156 C 37.574219 44.179688 37.464844 43.945312 37.265625 43.820312 C 37.113281 43.726562 36.929688 43.671875 36.753906 43.644531 C 36.691406 43.632812 36.625 43.621094 36.554688 43.613281 C 36.5625 43.808594 36.574219 44.101562 36.578125 44.308594 C 36.585938 44.535156 36.597656 44.859375 36.609375 45.089844 "/>
<path style=" stroke:none;fill-rule:nonzero;fill:rgb(100%,100%,100%);fill-opacity:1;" d="M 37.101562 34.992188 C 37.1875 35.082031 37.582031 34.96875 37.699219 34.933594 C 37.957031 34.851562 38.175781 34.664062 38.257812 34.402344 C 38.332031 34.1875 38.253906 33.957031 38.09375 33.792969 C 37.925781 33.609375 37.6875 33.472656 37.460938 33.371094 C 37.449219 33.613281 37.417969 33.902344 37.335938 34.132812 C 37.300781 34.21875 37.042969 34.925781 37.101562 34.992188 "/>
<path style=" stroke:none;fill-rule:nonzero;fill:rgb(100%,100%,100%);fill-opacity:1;" d="M 40.484375 24.675781 C 40.527344 24.746094 40.820312 24.746094 40.902344 24.742188 C 41.167969 24.742188 41.417969 24.605469 41.535156 24.363281 C 41.640625 24.15625 41.578125 23.894531 41.453125 23.703125 C 41.371094 23.574219 41.265625 23.457031 41.160156 23.351562 C 41.054688 23.574219 40.929688 23.824219 40.785156 24.027344 C 40.714844 24.132812 40.410156 24.570312 40.484375 24.675781 "/>
<path style=" stroke:none;fill-rule:nonzero;fill:rgb(100%,100%,100%);fill-opacity:1;" d="M 48.609375 16.949219 C 48.546875 17.507812 49.730469 17.769531 50.152344 17.375 C 50.335938 17.199219 50.480469 16.855469 50.566406 16.613281 C 49.953125 16.585938 49.324219 16.582031 48.765625 16.765625 L 48.609375 16.949219 "/>
<path style=" stroke:none;fill-rule:nonzero;fill:rgb(100%,100%,100%);fill-opacity:1;" d="M 58.765625 23.863281 C 58.636719 23.984375 58.515625 24.117188 58.410156 24.246094 C 58.226562 24.476562 58.113281 24.769531 58.15625 25.0625 C 58.183594 25.261719 58.300781 25.441406 58.460938 25.570312 C 58.660156 25.726562 58.921875 25.828125 59.171875 25.777344 C 59.269531 25.757812 59.410156 25.691406 59.496094 25.648438 C 59.402344 25.347656 59.289062 25.058594 59.175781 24.769531 C 59.046875 24.464844 58.910156 24.160156 58.765625 23.863281 "/>
<path style=" stroke:none;fill-rule:nonzero;fill:rgb(100%,100%,100%);fill-opacity:1;" d="M 61.636719 32.730469 C 61.457031 32.671875 61.148438 33.066406 61.035156 33.222656 C 60.886719 33.4375 60.8125 33.707031 60.855469 33.972656 C 60.894531 34.222656 61.066406 34.433594 61.300781 34.542969 C 61.488281 34.632812 61.703125 34.6875 61.90625 34.71875 C 61.863281 34.433594 61.824219 34.109375 61.820312 33.816406 C 61.8125 33.488281 61.78125 33.152344 61.726562 32.835938 L 61.699219 32.765625 L 61.636719 32.730469 "/>
<path style=" stroke:none;fill-rule:nonzero;fill:rgb(100%,100%,100%);fill-opacity:1;" d="M 62.566406 41.945312 C 62.453125 41.863281 62.105469 42.019531 61.984375 42.078125 C 61.792969 42.167969 61.632812 42.320312 61.542969 42.515625 C 61.453125 42.707031 61.460938 42.929688 61.535156 43.128906 C 61.597656 43.300781 61.71875 43.460938 61.886719 43.535156 C 62.089844 43.628906 62.34375 43.667969 62.566406 43.679688 C 62.539062 43.257812 62.90625 42.191406 62.566406 41.945312 "/>
<path style=" stroke:none;fill-rule:nonzero;fill:rgb(100%,100%,100%);fill-opacity:1;" d="M 61.957031 52.6875 C 62.109375 52.628906 62.109375 52.011719 62.109375 51.855469 C 62.101562 51.566406 62.144531 51.246094 62.195312 50.960938 C 62.015625 50.980469 61.816406 51.011719 61.640625 51.058594 C 61.402344 51.121094 61.1875 51.261719 61.0625 51.46875 C 60.945312 51.65625 60.925781 51.894531 61.03125 52.089844 C 61.152344 52.292969 61.335938 52.453125 61.546875 52.550781 C 61.613281 52.582031 61.894531 52.71875 61.957031 52.6875 "/>
<path style=" stroke:none;fill-rule:nonzero;fill:rgb(100%,100%,100%);fill-opacity:1;" d="M 59.890625 60.65625 C 59.601562 60.503906 59.253906 60.355469 58.925781 60.351562 C 58.777344 60.351562 58.625 60.425781 58.519531 60.542969 C 58.40625 60.667969 58.359375 60.84375 58.390625 61.019531 C 58.425781 61.261719 58.550781 61.496094 58.753906 61.65625 C 58.890625 61.769531 59.046875 61.875 59.195312 61.96875 C 59.308594 61.78125 59.414062 61.589844 59.519531 61.398438 C 59.644531 61.15625 59.769531 60.90625 59.890625 60.65625 "/>
<path style=" stroke:none;fill-rule:nonzero;fill:rgb(10.112%,40.585327%,73.280334%);fill-opacity:1;" d="M 47.644531 51.761719 C 48.027344 51.761719 48.90625 48.183594 48.738281 43.390625 C 48.589844 39.21875 46.929688 34.125 46.542969 34.378906 C 46.160156 34.632812 45.75 38.257812 46.046875 43.347656 C 46.34375 48.53125 47.34375 51.761719 47.644531 51.761719 "/>
</g>
</svg>
