<?xml version="1.0" encoding="UTF-8"?>
<svg xmlns="http://www.w3.org/2000/svg" xmlns:xlink="http://www.w3.org/1999/xlink" width="86pt" height="87pt" viewBox="0 0 86 87" version="1.1">
<g id="surface1">
<path style="fill-rule:nonzero;fill:rgb(100%,100%,100%);fill-opacity:1;stroke-width:2.835;stroke-linecap:butt;stroke-linejoin:round;stroke:rgb(13.729858%,12.159729%,12.548828%);stroke-opacity:1;stroke-miterlimit:4;" d="M 552.148438 841.992188 C 445.820312 873.28125 340.117188 863.75 241.132812 813.945312 C 142.1875 764.101562 71.5625 684.882812 33.398438 580.859375 C -4.765625 476.835938 -2.148438 370.703125 41.09375 268.710938 C 84.335938 166.679688 158.789062 91.015625 260.117188 46.132812 C 495.859375 -58.320312 769.570312 69.6875 840.546875 317.578125 C 904.765625 541.953125 775.976562 776.09375 552.148438 841.992188 " transform="matrix(0.1,0,0,-0.1,0,87)"/>
<path style=" stroke:none;fill-rule:nonzero;fill:rgb(10.112%,40.585327%,73.280334%);fill-opacity:1;" d="M 54.8125 4.160156 C 59.207031 5.453125 63.257812 7.410156 66.960938 10.035156 C 70.539062 12.570312 73.636719 15.609375 76.253906 19.160156 C 78.839844 22.667969 80.824219 26.492188 82.199219 30.628906 C 83.59375 34.824219 84.289062 39.125 84.289062 43.527344 C 84.289062 47.359375 83.757812 51.132812 82.691406 54.851562 C 81.410156 59.328125 79.445312 63.445312 76.800781 67.203125 C 74.257812 70.820312 71.195312 73.945312 67.617188 76.582031 C 64.089844 79.179688 60.25 81.164062 56.089844 82.542969 C 51.890625 83.933594 47.59375 84.628906 43.195312 84.628906 C 37.445312 84.628906 31.90625 83.449219 26.585938 81.09375 C 16.695312 76.710938 9.636719 69.539062 5.414062 59.574219 C 3.1875 54.328125 2.074219 49.003906 2.074219 43.601562 C 2.074219 38.847656 2.941406 34.113281 4.667969 29.402344 C 8.394531 19.246094 15.089844 11.734375 24.753906 6.871094 C 30.652344 3.902344 36.742188 2.414062 43.019531 2.414062 C 46.929688 2.414062 50.863281 2.996094 54.8125 4.160156 "/>
<path style=" stroke:none;fill-rule:nonzero;fill:rgb(100%,100%,100%);fill-opacity:1;" d="M 36.246094 52.949219 L 39.035156 52.035156 L 40.300781 52.777344 L 39.738281 53.582031 L 38.859375 53.222656 L 37.078125 53.746094 L 36.714844 54.652344 L 38.8125 54.683594 L 37.59375 56.75 L 50.582031 56.773438 L 51.199219 55.613281 C 50.800781 55.632812 50.011719 55.519531 49.640625 55.335938 C 49.371094 55.199219 49.113281 54.816406 49.300781 54.5625 C 49.367188 54.46875 49.519531 54.429688 49.632812 54.410156 C 49.746094 54.394531 50.292969 54.402344 50.410156 54.402344 C 50.929688 54.40625 52.226562 54.238281 52.730469 54.140625 L 53.777344 53.886719 C 53.964844 53.851562 54.214844 53.824219 54.394531 53.894531 C 54.5625 53.957031 54.714844 54.085938 54.773438 54.265625 C 54.824219 54.421875 54.78125 54.605469 54.71875 54.757812 C 54.648438 54.925781 54.359375 55.269531 53.457031 55.46875 L 52.351562 55.566406 L 51.652344 56.824219 L 53.691406 61.253906 C 54.71875 60.835938 55.957031 60.621094 57.046875 60.769531 C 58.738281 61 60.296875 61.828125 61.457031 63.121094 C 62.636719 64.4375 63.335938 66.148438 63.378906 67.945312 C 63.421875 69.882812 62.707031 71.753906 61.421875 73.152344 C 60.085938 74.601562 58.234375 75.410156 56.304688 75.417969 C 54.519531 75.425781 52.789062 74.746094 51.484375 73.488281 C 50.847656 72.871094 50.335938 72.125 49.96875 71.308594 C 49.65625 70.625 49.4375 69.894531 49.339844 69.144531 C 49.3125 68.914062 49.285156 68.585938 49.269531 68.355469 L 46.695312 68.335938 C 46.609375 68.566406 46.515625 68.804688 46.382812 69.011719 C 46.246094 69.21875 46.074219 69.40625 45.867188 69.539062 C 45.792969 69.589844 45.671875 69.652344 45.589844 69.691406 L 45.867188 70.777344 L 46.445312 70.632812 L 46.546875 71.101562 L 45.03125 71.53125 L 44.890625 71.066406 L 45.417969 70.898438 L 45.15625 69.84375 C 44.363281 69.988281 43.519531 69.734375 42.996094 69.109375 C 42.507812 68.523438 42.328125 67.722656 42.550781 66.980469 C 42.566406 66.929688 42.59375 66.84375 42.613281 66.792969 L 35.1875 60.863281 L 34.402344 62.042969 C 36.148438 63.484375 37.410156 65.683594 37.289062 67.980469 C 37.074219 72.085938 33.898438 75.429688 29.941406 75.332031 C 26.066406 75.238281 23.144531 71.777344 22.992188 67.746094 C 22.902344 65.386719 24.082031 63.183594 25.957031 61.851562 C 28.15625 60.300781 31.097656 60.148438 33.472656 61.386719 L 36.980469 55.679688 L 35.066406 55.613281 L 36.246094 52.949219 "/>
<path style=" stroke:none;fill-rule:nonzero;fill:rgb(10.112%,40.585327%,73.280334%);fill-opacity:1;" d="M 30.703125 67.976562 L 33.835938 62.902344 C 35.382812 64.121094 36.253906 65.925781 36.160156 67.851562 C 36 71.285156 33.484375 74.210938 30.175781 74.25 C 26.804688 74.292969 24.148438 71.382812 23.984375 67.878906 C 23.886719 65.828125 24.910156 63.910156 26.527344 62.734375 C 27.6875 61.898438 29.105469 61.539062 30.511719 61.582031 C 31.335938 61.609375 32.269531 61.847656 32.953125 62.3125 L 29.761719 67.453125 C 29.753906 67.46875 29.546875 67.796875 29.542969 67.816406 C 29.496094 68.027344 29.589844 68.246094 29.761719 68.375 C 29.980469 68.539062 30.285156 68.523438 30.488281 68.339844 L 30.703125 67.976562 "/>
<path style=" stroke:none;fill-rule:nonzero;fill:rgb(10.112%,40.585327%,73.280334%);fill-opacity:1;" d="M 56.355469 66.710938 L 54.164062 62.128906 C 56.003906 61.53125 58.03125 61.742188 59.644531 62.824219 C 61.347656 63.964844 62.46875 65.90625 62.402344 68.019531 C 62.292969 71.46875 59.765625 74.410156 56.449219 74.488281 C 53.277344 74.5625 50.652344 72.042969 50.214844 68.78125 C 50.203125 68.679688 50.183594 68.535156 50.175781 68.433594 L 54.984375 68.371094 C 55.1875 68.980469 55.75 69.511719 56.371094 69.453125 C 57.039062 69.394531 57.554688 68.828125 57.582031 68.132812 C 57.609375 67.414062 57.0625 66.78125 56.355469 66.710938 "/>
<path style=" stroke:none;fill-rule:nonzero;fill:rgb(10.112%,40.585327%,73.280334%);fill-opacity:1;" d="M 36.941406 57.886719 L 49.859375 57.910156 L 45.46875 65.640625 C 45.546875 65.5 44.511719 65.277344 44.550781 65.4375 L 44.394531 64.742188 L 44.878906 64.59375 L 44.753906 64.175781 L 43.28125 64.570312 L 43.394531 65.003906 L 43.882812 64.875 L 44.035156 65.496094 C 43.777344 65.578125 43.425781 65.78125 43.234375 65.980469 L 35.667969 60.023438 L 36.941406 57.886719 "/>
<path style=" stroke:none;fill-rule:nonzero;fill:rgb(10.112%,40.585327%,73.280334%);fill-opacity:1;" d="M 51.023438 57.972656 L 52.816406 61.722656 C 50.84375 62.75 49.609375 65.101562 49.25 67.382812 L 46.800781 67.417969 C 46.761719 67.195312 46.679688 66.921875 46.582031 66.71875 C 46.484375 66.535156 46.34375 66.328125 46.207031 66.1875 L 51.023438 57.972656 "/>
<path style=" stroke:none;fill-rule:nonzero;fill:rgb(10.112%,40.585327%,73.280334%);fill-opacity:1;" d="M 53.304688 62.558594 L 55.417969 67.007812 C 55.332031 67.085938 55.226562 67.222656 55.171875 67.324219 L 50.25 67.378906 C 50.304688 65.398438 51.691406 63.570312 53.304688 62.558594 "/>
<path style=" stroke:none;fill-rule:nonzero;fill:rgb(10.112%,40.585327%,73.280334%);fill-opacity:1;" d="M 43.101562 67.214844 L 44.796875 68.4375 L 45.003906 69.214844 C 44.011719 69.433594 43.085938 68.605469 43.070312 67.554688 C 43.070312 67.457031 43.089844 67.3125 43.101562 67.214844 "/>
<path style=" stroke:none;fill-rule:nonzero;fill:rgb(10.112%,40.585327%,73.280334%);fill-opacity:1;" d="M 43.667969 66.398438 C 43.816406 66.28125 44.019531 66.160156 44.195312 66.125 L 44.40625 66.964844 L 43.667969 66.398438 "/>
<path style=" stroke:none;fill-rule:nonzero;fill:rgb(10.112%,40.585327%,73.280334%);fill-opacity:1;" d="M 44.816406 66.582031 L 44.675781 66.078125 C 44.800781 66.054688 44.972656 66.089844 45.097656 66.109375 L 44.816406 66.582031 "/>
<path style=" stroke:none;fill-rule:nonzero;fill:rgb(10.112%,40.585327%,73.280334%);fill-opacity:1;" d="M 45.472656 67.324219 L 45.875 66.636719 C 45.863281 66.65625 46.171875 67.125 46.207031 67.328125 L 45.472656 67.324219 "/>
<path style=" stroke:none;fill-rule:nonzero;fill:rgb(10.112%,40.585327%,73.280334%);fill-opacity:1;" d="M 45.289062 68.414062 L 46.109375 68.40625 C 46.007812 68.589844 45.863281 68.796875 45.710938 68.941406 C 45.648438 68.996094 45.554688 69.074219 45.488281 69.125 L 45.289062 68.414062 "/>
<path style=" stroke:none;fill-rule:nonzero;fill:rgb(100%,100%,100%);fill-opacity:1;" d="M 36.351562 10.433594 C 36.351562 10.433594 35.675781 9.75 36.472656 9.636719 C 37.265625 9.519531 37.183594 9.636719 37.355469 9.054688 C 37.527344 8.476562 37.707031 8.191406 37.980469 8.21875 C 38.257812 8.246094 38.398438 8.035156 38.578125 8.117188 C 38.765625 8.191406 38.957031 8.296875 39.152344 8.308594 C 39.347656 8.320312 39.921875 8.230469 40.050781 8.308594 C 40.179688 8.382812 40.445312 8.488281 40.445312 8.773438 C 40.445312 9.054688 40.351562 9.929688 40.550781 10.023438 C 40.742188 10.113281 41.144531 10.28125 41.09375 10.550781 C 41.039062 10.820312 40.898438 10.8125 40.625 10.8125 C 40.351562 10.8125 40.179688 10.875 40.195312 11.042969 C 40.210938 11.210938 40.328125 11.492188 40.316406 11.800781 C 40.296875 12.113281 40.0625 12.742188 39.855469 13.039062 C 39.648438 13.335938 39.742188 13.453125 39.753906 13.554688 C 39.765625 13.65625 39.894531 13.746094 40 13.839844 C 40.105469 13.929688 41.953125 15.113281 42.238281 15.320312 C 42.527344 15.527344 43.023438 15.796875 43.113281 16.726562 C 43.207031 17.652344 43.125 18.207031 43.347656 18.660156 C 43.566406 19.109375 43.726562 20.320312 43.867188 21.277344 C 44.011719 22.226562 44.128906 23.03125 44.140625 23.316406 C 44.15625 23.597656 44.375 24.0625 44.429688 24.1875 C 44.480469 24.316406 45.597656 26.679688 45.847656 27.039062 C 45.847656 27.039062 45.976562 27.257812 45.875 27.324219 C 45.769531 27.386719 45.714844 27.53125 45.902344 27.59375 C 46.082031 27.65625 46.265625 27.964844 46.34375 28.109375 C 46.421875 28.246094 46.539062 28.585938 46.449219 28.765625 C 46.351562 28.949219 46.109375 29.152344 46.304688 29.371094 C 46.5 29.589844 46.640625 29.707031 46.773438 29.910156 C 46.902344 30.117188 47.347656 30.828125 47.398438 30.980469 C 47.449219 31.136719 47.5625 31.28125 47.722656 31.304688 C 47.878906 31.328125 48.453125 31.398438 48.726562 31.496094 C 49 31.601562 49.402344 31.832031 49.601562 31.832031 C 49.792969 31.832031 50.132812 31.832031 50.460938 31.9375 C 50.785156 32.039062 50.796875 31.949219 50.796875 31.84375 C 50.796875 31.746094 50.824219 31.628906 50.683594 31.578125 C 50.535156 31.523438 50.238281 31.421875 50.144531 31.199219 C 50.054688 30.980469 49.859375 30.644531 49.988281 30.234375 C 49.988281 30.234375 49.859375 29.613281 50.082031 29.296875 C 50.300781 28.972656 50.707031 28.742188 50.847656 28.742188 C 50.992188 28.742188 51.1875 28.84375 51.34375 28.792969 C 51.503906 28.742188 51.566406 28.675781 51.734375 28.742188 C 51.90625 28.804688 52.109375 28.917969 52.257812 28.933594 C 52.398438 28.949219 52.578125 28.972656 52.683594 29.046875 C 52.789062 29.128906 53.023438 29.242188 53.117188 29.410156 C 53.207031 29.578125 53.207031 29.65625 53.191406 30.003906 C 53.179688 30.351562 53.179688 30.726562 53.246094 30.84375 C 53.308594 30.957031 53.308594 31.230469 53.207031 31.328125 C 53.105469 31.429688 52.800781 31.601562 52.648438 31.601562 C 52.488281 31.601562 52.464844 31.652344 52.464844 31.746094 C 52.464844 31.832031 52.414062 32.101562 52.4375 32.179688 C 52.464844 32.261719 52.464844 32.363281 52.617188 32.425781 C 52.777344 32.492188 53.375 32.863281 53.570312 33.082031 C 53.765625 33.300781 54.117188 33.609375 54.144531 33.6875 C 54.167969 33.765625 54.09375 33.816406 54.09375 33.816406 C 54.09375 33.816406 54.09375 33.910156 54.199219 34.078125 C 54.296875 34.246094 54.574219 34.742188 54.667969 35.097656 C 54.757812 35.445312 55.054688 36.410156 55.054688 36.601562 C 55.054688 36.792969 55.25 37.492188 55.25 37.59375 C 55.25 37.695312 55.136719 37.671875 55.136719 37.671875 C 55.136719 37.671875 55.210938 37.980469 55.210938 38.125 C 55.210938 38.265625 55.199219 38.367188 55.082031 38.433594 C 54.964844 38.496094 54.964844 38.597656 54.835938 38.597656 C 54.703125 38.597656 54.742188 38.535156 54.613281 38.472656 C 54.484375 38.40625 54.363281 38.378906 54.394531 38.265625 C 54.417969 38.148438 54.402344 37.828125 54.402344 37.761719 C 54.402344 37.695312 54.378906 37.632812 54.328125 37.632812 C 54.273438 37.632812 54.144531 37.570312 54.144531 37.378906 C 54.144531 37.179688 54.078125 36.769531 54.039062 36.632812 C 54 36.484375 54.0625 36.242188 54 36.128906 C 53.933594 36.011719 53.414062 35.414062 53.320312 35.246094 C 53.234375 35.082031 53.152344 35.238281 53.152344 35.328125 C 53.152344 35.414062 53.167969 36.253906 53.246094 36.410156 C 53.320312 36.5625 53.246094 36.769531 53.390625 37.078125 C 53.53125 37.390625 53.859375 38.742188 53.910156 38.933594 C 53.960938 39.128906 54.105469 39.425781 54.117188 39.710938 C 54.128906 39.992188 54.273438 40.40625 53.894531 40.394531 C 53.519531 40.378906 53.308594 40.53125 52.972656 40.417969 C 52.632812 40.300781 52.609375 40.417969 52.617188 40.5625 C 52.632812 40.699219 52.683594 41.214844 52.777344 41.460938 C 52.867188 41.707031 52.660156 42.46875 52.789062 42.726562 C 52.917969 42.980469 53.078125 43.03125 53.117188 43.109375 C 53.167969 43.214844 53.207031 43.472656 52.972656 43.886719 C 52.738281 44.296875 52.023438 44.492188 51.894531 44.066406 C 51.761719 43.644531 51.917969 43.5625 52.011719 43.421875 C 52.097656 43.277344 52.097656 43.085938 51.941406 42.945312 C 51.789062 42.804688 51.472656 42.027344 51.40625 41.847656 C 51.34375 41.667969 51.042969 40.738281 50.980469 40.546875 C 50.914062 40.351562 50.8125 40.199219 50.707031 40.417969 C 50.601562 40.636719 50.355469 41.152344 50.394531 41.386719 C 50.429688 41.617188 50.496094 41.847656 50.496094 42.070312 C 50.496094 42.289062 50.378906 43.140625 50.300781 43.371094 C 50.226562 43.601562 50.300781 43.664062 50.34375 43.808594 C 50.378906 43.949219 50.578125 44.234375 50.394531 44.359375 C 50.210938 44.492188 49.210938 44.890625 49.050781 44.945312 C 48.898438 44.992188 48.675781 44.722656 48.777344 44.453125 C 48.878906 44.179688 49.21875 43.976562 49.273438 43.875 C 49.324219 43.769531 49.324219 43.726562 49.25 43.460938 C 49.167969 43.191406 49.101562 42.003906 49.15625 41.824219 C 49.210938 41.644531 49.25 41.308594 49.078125 41.191406 C 48.910156 41.078125 48.871094 40.714844 48.910156 40.523438 C 48.945312 40.332031 49.039062 39.695312 49.015625 39.59375 C 48.984375 39.492188 49.039062 39.375 48.871094 39.324219 C 48.699219 39.273438 47.878906 38.859375 47.816406 38.589844 C 47.75 38.316406 47.816406 38.074219 48.023438 37.8125 C 48.230469 37.558594 49.015625 36.359375 49.179688 35.804688 C 49.347656 35.246094 49.507812 34.566406 49.507812 34.175781 C 49.507812 33.792969 49.535156 33.523438 49.402344 33.457031 C 49.273438 33.394531 47.878906 32.722656 47.632812 32.734375 C 47.386719 32.746094 46.472656 32.230469 46.328125 32.039062 C 46.1875 31.84375 45.976562 31.707031 45.691406 30.714844 C 45.40625 29.71875 45.46875 29.667969 45.234375 29.65625 C 45.003906 29.644531 44.441406 29.449219 44.285156 29.140625 C 44.128906 28.828125 44.46875 28.445312 44.164062 28.542969 C 43.867188 28.648438 43.84375 28.742188 43.632812 28.378906 C 43.425781 28.015625 42.304688 25.429688 41.964844 24.304688 C 41.628906 23.183594 41.644531 23.789062 41.644531 23.980469 C 41.644531 24.175781 41.761719 25.363281 41.847656 25.605469 C 41.941406 25.851562 41.929688 26.210938 41.953125 26.585938 C 41.976562 26.960938 42.109375 28.277344 42.214844 28.792969 C 42.316406 29.304688 42.125 29.152344 41.953125 29.214844 C 41.785156 29.28125 41.742188 29.410156 41.761719 29.515625 C 41.773438 29.613281 41.550781 31.429688 41.507812 31.808594 C 41.472656 32.179688 41.144531 34.269531 41.105469 34.449219 C 41.070312 34.628906 41.070312 34.71875 41.105469 34.890625 C 41.144531 35.054688 41.71875 38.265625 41.71875 38.574219 C 41.71875 38.882812 41.996094 40.144531 42.007812 40.34375 C 42.019531 40.53125 41.964844 40.523438 41.929688 40.636719 C 41.890625 40.753906 41.953125 40.792969 42.019531 40.960938 C 42.082031 41.128906 42.355469 41.191406 42.316406 41.511719 C 42.28125 41.835938 42.125 41.910156 41.953125 42.132812 C 41.785156 42.351562 41.433594 43.339844 40.835938 43.625 C 40.234375 43.910156 39.765625 43.746094 39.660156 43.460938 C 39.554688 43.179688 39.609375 42.761719 39.957031 42.621094 C 39.957031 42.621094 40.144531 42.519531 40.167969 42.414062 C 40.195312 42.308594 40.167969 42.171875 40.027344 42.160156 C 39.882812 42.144531 39.855469 41.691406 39.699219 40.636719 C 39.542969 39.578125 39.285156 38.40625 39.128906 37.851562 C 38.96875 37.296875 38.386719 34.890625 38.320312 34.707031 C 38.257812 34.527344 38.203125 34.011719 38.242188 33.6875 C 38.28125 33.363281 38.203125 31.199219 37.980469 32.167969 C 37.757812 33.132812 37.300781 34.71875 37.214844 35.015625 C 37.121094 35.3125 37.09375 35.480469 37.09375 35.609375 C 37.09375 35.738281 37.226562 40.480469 37.148438 42.6875 C 37.148438 42.6875 37.160156 42.816406 37.046875 42.824219 C 36.925781 42.84375 37.109375 43.074219 37.132812 43.191406 C 37.160156 43.304688 37.367188 43.746094 37.015625 43.898438 C 36.664062 44.050781 36.132812 44.117188 35.769531 44.324219 C 35.402344 44.527344 34.453125 44.738281 33.867188 44.515625 C 33.277344 44.296875 33.878906 43.371094 34.738281 43.421875 C 34.738281 43.421875 35.089844 43.382812 34.804688 43.304688 C 34.804688 43.304688 34.6875 43.292969 34.699219 43.023438 C 34.710938 42.75 34.710938 38.859375 34.570312 37.285156 C 34.425781 35.710938 34.191406 33.960938 34.542969 32.375 C 34.894531 30.789062 35.011719 29.011719 34.792969 28.972656 C 34.570312 28.933594 34.292969 28.90625 34.347656 28.519531 C 34.398438 28.132812 34.660156 25.914062 34.777344 25.21875 C 34.894531 24.527344 35.285156 23.917969 35.261719 23.515625 C 35.230469 23.117188 35.21875 21.183594 34.878906 21.84375 C 34.542969 22.5 34.324219 22.792969 34.308594 23.621094 C 34.292969 24.445312 34.007812 25.863281 33.902344 26.199219 C 33.800781 26.535156 33.605469 27.863281 33.59375 28.226562 C 33.582031 28.585938 33.398438 28.394531 33.265625 28.378906 C 33.136719 28.363281 32.96875 28.246094 32.925781 28.46875 C 32.890625 28.6875 32.976562 28.6875 33.019531 28.894531 C 33.058594 29.097656 33.160156 29.5 32.785156 29.796875 C 32.40625 30.09375 32.289062 30.414062 31.757812 30.351562 C 31.222656 30.285156 31.066406 29.835938 31.117188 29.347656 C 31.167969 28.855469 31.3125 28.519531 31.492188 28.339844 C 31.679688 28.160156 31.613281 28.082031 31.507812 28.042969 C 31.40625 28.003906 31.167969 28.054688 31.195312 27.746094 C 31.222656 27.4375 31.613281 24.757812 31.664062 24.125 C 31.714844 23.496094 31.652344 22.046875 31.96875 21.160156 C 32.277344 20.273438 32.902344 17.898438 33.058594 16.765625 C 33.214844 15.632812 33.828125 14.960938 34.207031 14.742188 C 34.582031 14.523438 37.046875 13.605469 37.175781 13.476562 C 37.300781 13.347656 37.5 13.101562 37.34375 12.785156 C 37.183594 12.460938 36.886719 12.082031 36.886719 11.621094 C 36.886719 11.15625 36.941406 10.746094 36.78125 10.679688 C 36.628906 10.613281 36.378906 10.496094 36.351562 10.433594 "/>
</g>
</svg>
