<?xml version="1.0" encoding="UTF-8"?>
<svg xmlns="http://www.w3.org/2000/svg" xmlns:xlink="http://www.w3.org/1999/xlink" width="41pt" height="78pt" viewBox="0 0 41 78" version="1.1">
<g id="surface1">
<path style=" stroke:none;fill-rule:nonzero;fill:rgb(93.527222%,17.272949%,18.882751%);fill-opacity:1;" d="M 14.507812 39.171875 L 0.0390625 70.203125 L 2.671875 77.4375 L 9.914062 74.804688 L 20.519531 52.0625 L 31.121094 74.804688 L 38.359375 77.4375 L 41 70.203125 L 26.53125 39.171875 L 41 8.144531 L 38.359375 0.90625 L 31.121094 3.539062 L 20.515625 26.277344 L 9.914062 3.539062 L 2.671875 0.90625 L 0.0390625 8.144531 L 14.507812 39.171875 "/>
<path style=" stroke:none;fill-rule:nonzero;fill:rgb(100%,100%,100%);fill-opacity:1;" d="M 20.519531 31.4375 L 31.601562 7.671875 L 37.527344 10.4375 L 24.125 39.175781 L 37.527344 67.910156 L 31.601562 70.671875 L 20.519531 46.90625 L 9.4375 70.671875 L 3.511719 67.910156 L 16.914062 39.175781 L 3.511719 10.4375 L 9.4375 7.671875 L 20.519531 31.4375 "/>
</g>
</svg>
