<?xml version="1.0" encoding="UTF-8"?>
<svg xmlns="http://www.w3.org/2000/svg" xmlns:xlink="http://www.w3.org/1999/xlink" width="73pt" height="100pt" viewBox="0 0 73 100" version="1.1">
<g id="surface1">
<path style=" stroke:none;fill-rule:nonzero;fill:rgb(100%,100%,100%);fill-opacity:1;" d="M 1.085938 99.78125 L 71.953125 99.78125 L 71.953125 0.566406 L 1.085938 0.566406 Z M 1.085938 99.78125 "/>
<path style="fill:none;stroke-width:2.835;stroke-linecap:butt;stroke-linejoin:miter;stroke:rgb(13.729858%,12.159729%,12.548828%);stroke-opacity:1;stroke-miterlimit:4;" d="M 10.859375 2.1875 L 719.53125 2.1875 L 719.53125 994.335938 L 10.859375 994.335938 L 10.859375 2.1875 " transform="matrix(0.1,0,0,-0.1,0,100)"/>
<path style=" stroke:none;fill-rule:nonzero;fill:rgb(0%,49.674988%,27.331543%);fill-opacity:1;" d="M 2.503906 98.363281 L 70.535156 98.363281 L 70.535156 1.984375 L 2.503906 1.984375 Z M 2.503906 98.363281 "/>
<path style=" stroke:none;fill-rule:nonzero;fill:rgb(100%,100%,100%);fill-opacity:1;" d="M 59.101562 57.59375 L 59.101562 64.703125 C 59.101562 64.824219 59.101562 64.960938 59.085938 65.085938 C 59.078125 65.210938 59.050781 65.390625 58.976562 65.5 C 58.898438 65.605469 58.765625 65.679688 58.640625 65.714844 C 58.507812 65.753906 58.347656 65.761719 58.214844 65.761719 L 55.523438 65.761719 C 55.417969 65.761719 55.28125 65.753906 55.175781 65.726562 C 55.050781 65.691406 54.917969 65.636719 54.84375 65.535156 C 54.78125 65.457031 54.746094 65.347656 54.730469 65.253906 C 54.703125 65.109375 54.6875 64.960938 54.6875 64.816406 L 54.6875 58.328125 C 54.535156 58.347656 54.257812 58.402344 54.113281 58.417969 C 51.703125 58.808594 47.71875 58.933594 45.277344 58.988281 C 43.851562 59.023438 37.65625 59.148438 36.230469 59.148438 C 33.488281 59.148438 30.558594 59.066406 27.816406 58.960938 C 25.25 58.859375 21.714844 58.671875 19.148438 58.527344 L 18.558594 58.496094 L 18.558594 65.101562 C 18.542969 65.265625 18.488281 65.4375 18.386719 65.554688 C 18.300781 65.65625 18.1875 65.714844 18.058594 65.753906 C 18.015625 65.761719 17.625 65.761719 17.578125 65.761719 L 15.046875 65.761719 C 15.003906 65.761719 14.773438 65.761719 14.726562 65.753906 C 14.585938 65.726562 14.433594 65.660156 14.335938 65.546875 C 14.238281 65.425781 14.199219 65.246094 14.183594 65.09375 C 14.183594 65.054688 14.183594 64.714844 14.183594 64.667969 L 14.183594 57.53125 L 12.367188 57.539062 C 12.304688 57.539062 12 57.550781 11.941406 57.53125 C 11.789062 57.503906 11.65625 57.425781 11.535156 57.304688 C 11.441406 57.210938 11.367188 57.0625 11.332031 56.917969 C 11.289062 56.738281 11.296875 56.402344 11.304688 56.207031 C 11.347656 55.472656 11.316406 54.414062 11.289062 53.671875 C 11.253906 52.851562 11.199219 51.679688 11.128906 50.855469 C 11.027344 49.78125 10.859375 48.6875 10.59375 47.640625 C 10.539062 47.425781 10.382812 46.835938 10.351562 46.617188 C 10.273438 46.113281 10.289062 45.597656 10.371094 45.101562 C 10.460938 44.558594 10.621094 44.019531 10.871094 43.53125 C 11.261719 42.75 11.867188 42.101562 12.570312 41.59375 C 13.070312 41.242188 13.648438 40.957031 14.246094 40.835938 C 14.351562 40.8125 14.515625 40.792969 14.628906 40.773438 L 21.820312 31.027344 C 21.902344 30.917969 21.988281 30.816406 22.078125 30.71875 C 22.183594 30.621094 22.308594 30.511719 22.445312 30.445312 C 22.613281 30.367188 22.832031 30.339844 23.019531 30.332031 C 23.101562 30.332031 23.371094 30.332031 23.449219 30.332031 L 49.625 30.332031 C 49.757812 30.332031 49.9375 30.332031 50.070312 30.339844 C 50.238281 30.347656 50.433594 30.386719 50.597656 30.457031 C 50.753906 30.519531 50.898438 30.628906 51.015625 30.757812 C 51.03125 30.773438 51.289062 31.109375 51.308594 31.132812 L 58.730469 40.855469 C 58.878906 40.902344 59.097656 40.972656 59.246094 41.027344 C 59.742188 41.199219 60.226562 41.441406 60.65625 41.757812 C 61.242188 42.195312 61.730469 42.761719 62.089844 43.414062 C 62.460938 44.089844 62.703125 44.851562 62.738281 45.617188 C 62.765625 46.203125 62.558594 47.378906 62.460938 47.957031 C 62.347656 48.585938 62.238281 49.308594 62.160156 49.953125 C 62.070312 50.640625 61.980469 51.382812 61.910156 52.074219 C 61.855469 52.679688 61.808594 53.320312 61.792969 53.929688 C 61.777344 54.59375 61.792969 55.265625 61.855469 55.917969 C 61.875 56.113281 61.902344 56.492188 61.894531 56.691406 C 61.882812 56.894531 61.839844 57.113281 61.722656 57.289062 C 61.621094 57.433594 61.484375 57.539062 61.3125 57.585938 C 61.242188 57.605469 60.992188 57.605469 60.921875 57.605469 L 59.101562 57.59375 "/>
<path style=" stroke:none;fill-rule:nonzero;fill:rgb(0%,49.674988%,27.331543%);fill-opacity:1;" d="M 15.503906 43.429688 C 17.339844 43.417969 18.855469 44.902344 18.863281 46.761719 C 18.863281 48.648438 17.328125 50.167969 15.46875 50.140625 C 13.648438 50.113281 12.199219 48.605469 12.207031 46.761719 C 12.222656 44.925781 13.695312 43.433594 15.503906 43.429688 "/>
<path style=" stroke:none;fill-rule:nonzero;fill:rgb(0%,49.674988%,27.331543%);fill-opacity:1;" d="M 30.109375 46.78125 L 30.109375 54.367188 L 20.496094 54.367188 C 20.453125 54.367188 20.175781 54.367188 20.121094 54.367188 C 19.800781 54.339844 19.464844 54.230469 19.25 53.992188 C 19.054688 53.769531 18.972656 53.484375 19 53.195312 C 19.027344 53.015625 19.070312 52.832031 19.160156 52.679688 L 22.1875 47.449219 C 22.242188 47.359375 22.332031 47.203125 22.40625 47.121094 C 22.519531 46.996094 22.664062 46.886719 22.832031 46.835938 C 22.992188 46.773438 23.238281 46.761719 23.421875 46.761719 L 23.839844 46.78125 L 30.109375 46.78125 "/>
<path style=" stroke:none;fill-rule:nonzero;fill:rgb(0%,49.674988%,27.331543%);fill-opacity:1;" d="M 30.828125 46.78125 L 42.355469 46.78125 L 42.355469 54.367188 L 30.828125 54.367188 L 30.828125 46.78125 "/>
<path style=" stroke:none;fill-rule:nonzero;fill:rgb(0%,49.674988%,27.331543%);fill-opacity:1;" d="M 43.160156 46.78125 L 49.273438 46.78125 C 49.429688 46.78125 49.671875 46.78125 49.824219 46.78125 C 50.019531 46.789062 50.277344 46.816406 50.457031 46.90625 C 50.605469 46.976562 50.738281 47.105469 50.839844 47.242188 C 50.886719 47.304688 51 47.492188 51.035156 47.558594 L 54.019531 52.625 C 54.09375 52.753906 54.152344 52.886719 54.191406 53.023438 C 54.269531 53.304688 54.230469 53.601562 54.09375 53.84375 C 53.929688 54.117188 53.671875 54.285156 53.367188 54.359375 C 53.308594 54.367188 52.84375 54.367188 52.773438 54.367188 L 43.160156 54.367188 L 43.160156 46.78125 "/>
<path style=" stroke:none;fill-rule:nonzero;fill:rgb(0%,49.674988%,27.331543%);fill-opacity:1;" d="M 57.644531 43.414062 C 59.480469 43.433594 60.949219 44.949219 60.941406 46.808594 C 60.933594 48.699219 59.398438 50.207031 57.535156 50.179688 C 55.710938 50.160156 54.230469 48.667969 54.222656 46.820312 C 54.214844 44.910156 55.765625 43.394531 57.644531 43.414062 "/>
<path style=" stroke:none;fill-rule:nonzero;fill:rgb(0%,49.674988%,27.331543%);fill-opacity:1;" d="M 56.566406 41.136719 C 56.425781 41.136719 56.183594 41.144531 56.039062 41.144531 L 46.488281 40.378906 C 43.53125 40.140625 38.585938 40.140625 35.621094 40.160156 C 33.144531 40.175781 28.546875 40.21875 26.082031 40.324219 L 17.128906 40.910156 C 16.957031 40.929688 16.777344 40.9375 16.609375 40.949219 L 22.757812 32.796875 C 22.800781 32.734375 22.878906 32.628906 22.945312 32.570312 C 23.050781 32.457031 23.183594 32.367188 23.335938 32.3125 C 23.476562 32.257812 23.65625 32.226562 23.808594 32.222656 C 23.941406 32.210938 24.082031 32.210938 24.214844 32.210938 L 48.859375 32.210938 C 48.992188 32.210938 49.164062 32.210938 49.296875 32.222656 C 49.449219 32.226562 49.605469 32.257812 49.75 32.300781 C 49.882812 32.347656 50.011719 32.417969 50.117188 32.507812 C 50.203125 32.59375 50.304688 32.707031 50.382812 32.808594 L 56.566406 41.136719 "/>
</g>
</svg>
