<?xml version="1.0" encoding="UTF-8"?>
<svg xmlns="http://www.w3.org/2000/svg" xmlns:xlink="http://www.w3.org/1999/xlink" width="145pt" height="36pt" viewBox="0 0 145 36" version="1.1">
<g id="surface1">
<path style=" stroke:none;fill-rule:nonzero;fill:rgb(13.729858%,12.159729%,12.548828%);fill-opacity:1;" d="M 0.234375 35.890625 L 113.621094 35.890625 L 144.800781 18.183594 L 113.621094 0.457031 L 0.234375 0.457031 L 0.234375 35.890625 "/>
<path style=" stroke:none;fill-rule:nonzero;fill:rgb(100%,100%,100%);fill-opacity:1;" d="M 2.359375 33.761719 L 113.058594 33.761719 L 129.210938 18.179688 L 113.058594 2.582031 L 2.359375 2.582031 L 2.359375 33.761719 "/>
<path style=" stroke:none;fill-rule:nonzero;fill:rgb(13.729858%,12.159729%,12.548828%);fill-opacity:1;" d="M 30.441406 26.675781 L 33.511719 26.675781 L 33.511719 17.75 L 39.59375 17.75 L 39.59375 15.21875 L 33.511719 15.21875 L 33.511719 9.363281 L 39.878906 9.363281 L 39.878906 6.835938 L 30.441406 6.835938 L 30.441406 26.675781 "/>
<path style=" stroke:none;fill-rule:nonzero;fill:rgb(13.729858%,12.159729%,12.548828%);fill-opacity:1;" d="M 42.589844 26.675781 L 45.550781 26.675781 L 45.550781 5.355469 L 42.589844 5.355469 L 42.589844 26.675781 "/>
<path style=" stroke:none;fill-rule:nonzero;fill:rgb(13.729858%,12.159729%,12.548828%);fill-opacity:1;" d="M 49.667969 26.675781 L 52.625 26.675781 L 52.625 12.09375 L 49.667969 12.09375 L 49.667969 26.675781 "/>
<path style=" stroke:none;fill-rule:nonzero;fill:rgb(13.729858%,12.159729%,12.548828%);fill-opacity:1;" d="M 49.582031 9.164062 L 52.710938 9.164062 L 52.710938 6.011719 L 49.582031 6.011719 L 49.582031 9.164062 "/>
<path style=" stroke:none;fill-rule:nonzero;fill:rgb(13.729858%,12.159729%,12.548828%);fill-opacity:1;" d="M 56.761719 26.675781 L 59.710938 26.675781 L 59.710938 17.75 C 59.710938 16.671875 59.9375 15.847656 60.367188 15.25 C 60.792969 14.652344 61.445312 14.367188 62.273438 14.367188 C 63.636719 14.367188 64.316406 15.277344 64.316406 17.066406 L 64.316406 26.675781 L 67.277344 26.675781 L 67.277344 17.75 C 67.277344 16.671875 67.503906 15.847656 67.925781 15.25 C 68.355469 14.652344 69.007812 14.367188 69.832031 14.367188 C 71.195312 14.367188 71.878906 15.277344 71.878906 17.066406 L 71.878906 26.675781 L 74.835938 26.675781 L 74.835938 17.125 C 74.835938 15.417969 74.492188 14.109375 73.8125 13.230469 C 73.101562 12.351562 72.046875 11.894531 70.628906 11.894531 C 69.691406 11.894531 68.925781 12.121094 68.328125 12.578125 C 67.730469 13.058594 67.277344 13.597656 66.90625 14.199219 C 66.765625 13.914062 66.589844 13.628906 66.394531 13.34375 C 66.195312 13.089844 65.941406 12.832031 65.65625 12.605469 C 65.371094 12.40625 65.027344 12.234375 64.65625 12.09375 C 64.289062 11.949219 63.835938 11.894531 63.351562 11.894531 C 62.441406 11.894531 61.703125 12.121094 61.105469 12.578125 C 60.507812 13.058594 60.023438 13.628906 59.710938 14.335938 L 59.65625 14.335938 C 59.65625 14.253906 59.65625 14.082031 59.65625 13.855469 C 59.628906 13.65625 59.628906 13.429688 59.628906 13.203125 C 59.601562 12.972656 59.601562 12.746094 59.601562 12.546875 C 59.570312 12.351562 59.570312 12.175781 59.570312 12.09375 L 56.644531 12.09375 C 56.671875 12.492188 56.703125 12.917969 56.730469 13.371094 C 56.761719 13.828125 56.761719 14.308594 56.761719 14.851562 L 56.761719 26.675781 "/>
<path style=" stroke:none;fill-rule:nonzero;fill:rgb(13.729858%,12.159729%,12.548828%);fill-opacity:1;" d="M 78.582031 26.109375 C 79.039062 26.308594 79.609375 26.507812 80.320312 26.648438 C 81.003906 26.785156 81.769531 26.875 82.59375 26.875 C 84.242188 26.875 85.492188 26.476562 86.371094 25.652344 C 87.226562 24.828125 87.652344 23.777344 87.652344 22.46875 C 87.652344 21.589844 87.394531 20.878906 86.914062 20.339844 C 86.402344 19.796875 85.71875 19.253906 84.839844 18.773438 L 83.558594 18.0625 C 82.90625 17.691406 82.421875 17.378906 82.054688 17.066406 C 81.683594 16.78125 81.515625 16.386719 81.515625 15.902344 C 81.515625 15.394531 81.683594 14.964844 82.054688 14.652344 C 82.421875 14.335938 82.960938 14.199219 83.703125 14.199219 C 84.300781 14.199219 84.867188 14.253906 85.351562 14.367188 C 85.832031 14.511719 86.285156 14.652344 86.6875 14.824219 L 86.828125 12.433594 C 86.519531 12.320312 86.089844 12.207031 85.519531 12.066406 C 84.921875 11.949219 84.242188 11.894531 83.476562 11.894531 C 82.734375 11.894531 82.082031 12.007812 81.484375 12.234375 C 80.886719 12.460938 80.375 12.777344 79.949219 13.144531 C 79.523438 13.542969 79.179688 14 78.953125 14.480469 C 78.726562 14.992188 78.609375 15.53125 78.609375 16.074219 C 78.609375 16.585938 78.699219 17.039062 78.839844 17.4375 C 78.980469 17.835938 79.179688 18.175781 79.4375 18.488281 C 79.691406 18.800781 79.976562 19.058594 80.347656 19.285156 C 80.71875 19.539062 81.113281 19.769531 81.570312 19.996094 L 83.105469 20.765625 C 83.761719 21.078125 84.214844 21.417969 84.46875 21.757812 C 84.695312 22.097656 84.808594 22.46875 84.808594 22.835938 C 84.808594 23.40625 84.585938 23.835938 84.128906 24.117188 C 83.671875 24.429688 83.046875 24.574219 82.28125 24.574219 C 81.570312 24.574219 80.886719 24.460938 80.289062 24.203125 C 79.691406 23.972656 79.179688 23.746094 78.757812 23.550781 L 78.582031 26.109375 "/>
</g>
</svg>
