<?xml version="1.0" encoding="UTF-8"?>
<svg xmlns="http://www.w3.org/2000/svg" xmlns:xlink="http://www.w3.org/1999/xlink" width="115pt" height="82pt" viewBox="0 0 115 82" version="1.1">
<g id="surface1">
<path style=" stroke:none;fill-rule:nonzero;fill:rgb(100%,100%,100%);fill-opacity:1;" d="M 0.828125 81.425781 L 114.210938 81.425781 L 114.210938 0.921875 L 0.828125 0.921875 Z M 0.828125 81.425781 "/>
<path style="fill:none;stroke-width:2.835;stroke-linecap:butt;stroke-linejoin:miter;stroke:rgb(13.729858%,12.159729%,12.548828%);stroke-opacity:1;stroke-miterlimit:4;" d="M 8.28125 5.742188 L 1142.109375 5.742188 L 1142.109375 810.78125 L 8.28125 810.78125 L 8.28125 5.742188 " transform="matrix(0.1,0,0,-0.1,0,82)"/>
<path style=" stroke:none;fill-rule:nonzero;fill:rgb(13.729858%,12.159729%,12.548828%);fill-opacity:1;" d="M 111.945312 55.925781 L 111.945312 73.5 C 111.941406 76.628906 109.40625 79.164062 106.273438 79.167969 L 8.761719 79.167969 C 5.628906 79.167969 3.089844 76.628906 3.09375 73.5 L 3.09375 55.925781 L 111.945312 55.925781 "/>
<path style=" stroke:none;fill-rule:nonzero;fill:rgb(100%,100%,100%);fill-opacity:1;" d="M 8.761719 77.464844 C 6.570312 77.460938 4.796875 75.6875 4.792969 73.5 L 4.792969 57.640625 L 110.242188 57.640625 L 110.242188 73.5 C 110.242188 75.691406 108.46875 77.464844 106.273438 77.464844 L 8.761719 77.464844 "/>
<path style=" stroke:none;fill-rule:nonzero;fill:rgb(13.729858%,12.159729%,12.548828%);fill-opacity:1;" d="M 105.007812 67.855469 C 105.273438 67.628906 105.273438 67.222656 105.007812 66.996094 L 97.257812 60.359375 C 96.839844 60 96.207031 60.390625 96.339844 60.925781 L 97.578125 65.867188 L 89.359375 65.300781 L 89.359375 69.546875 L 97.578125 68.980469 L 96.339844 73.925781 C 96.207031 74.457031 96.839844 74.851562 97.257812 74.492188 L 105.007812 67.855469 "/>
<path style=" stroke:none;fill-rule:nonzero;fill:rgb(13.729858%,12.159729%,12.548828%);fill-opacity:1;" d="M 45.550781 71.804688 L 46.949219 71.804688 C 46.933594 71.589844 46.921875 71.363281 46.90625 71.121094 C 46.890625 70.894531 46.890625 70.652344 46.890625 70.410156 L 46.890625 64.496094 L 45.40625 64.496094 L 45.40625 68.785156 C 45.40625 69.355469 45.292969 69.8125 45.082031 70.152344 C 44.867188 70.492188 44.511719 70.664062 44.042969 70.664062 C 43.65625 70.664062 43.386719 70.535156 43.199219 70.28125 C 43.015625 70.023438 42.914062 69.609375 42.914062 69.042969 L 42.914062 64.496094 L 41.433594 64.496094 L 41.433594 69.382812 C 41.433594 70.152344 41.605469 70.765625 41.949219 71.21875 C 42.289062 71.675781 42.832031 71.902344 43.570312 71.902344 C 44.070312 71.902344 44.46875 71.789062 44.769531 71.550781 C 45.054688 71.320312 45.28125 71.035156 45.464844 70.695312 L 45.496094 70.695312 L 45.550781 71.804688 "/>
<path style=" stroke:none;fill-rule:nonzero;fill:rgb(13.729858%,12.159729%,12.548828%);fill-opacity:1;" d="M 48.710938 71.804688 L 53.542969 71.804688 L 53.542969 70.621094 L 50.238281 70.621094 L 53.457031 65.792969 L 53.457031 64.496094 L 48.8125 64.496094 L 48.8125 65.679688 L 51.960938 65.679688 L 48.710938 70.492188 L 48.710938 71.804688 "/>
<path style=" stroke:none;fill-rule:nonzero;fill:rgb(13.729858%,12.159729%,12.548828%);fill-opacity:1;" d="M 56.328125 68.570312 L 60.5 68.570312 L 60.5 68.074219 C 60.5 67.429688 60.429688 66.890625 60.300781 66.417969 C 60.171875 65.953125 59.988281 65.566406 59.746094 65.265625 C 59.503906 64.96875 59.203125 64.753906 58.878906 64.609375 C 58.535156 64.46875 58.164062 64.398438 57.765625 64.398438 C 57.308594 64.398438 56.898438 64.480469 56.539062 64.667969 C 56.167969 64.851562 55.855469 65.121094 55.613281 65.453125 C 55.371094 65.792969 55.171875 66.191406 55.042969 66.660156 C 54.914062 67.132812 54.84375 67.644531 54.84375 68.199219 C 54.84375 68.726562 54.914062 69.226562 55.042969 69.683594 C 55.171875 70.140625 55.355469 70.523438 55.628906 70.847656 C 55.882812 71.175781 56.214844 71.433594 56.609375 71.621094 C 57.011719 71.816406 57.480469 71.902344 58.007812 71.902344 C 58.464844 71.902344 58.878906 71.859375 59.230469 71.761719 C 59.589844 71.664062 59.871094 71.5625 60.117188 71.464844 L 60.042969 70.222656 C 59.859375 70.351562 59.617188 70.480469 59.332031 70.605469 C 59.03125 70.734375 58.675781 70.808594 58.25 70.808594 C 57.566406 70.808594 57.082031 70.621094 56.78125 70.238281 C 56.484375 69.867188 56.328125 69.3125 56.328125 68.570312 "/>
<path style=" stroke:none;fill-rule:nonzero;fill:rgb(13.729858%,12.159729%,12.548828%);fill-opacity:1;" d="M 62.253906 71.804688 L 63.734375 71.804688 L 63.734375 67.871094 C 63.734375 67.503906 63.777344 67.191406 63.863281 66.917969 C 63.949219 66.648438 64.0625 66.433594 64.203125 66.265625 C 64.347656 66.105469 64.519531 65.976562 64.703125 65.890625 C 64.886719 65.820312 65.074219 65.777344 65.285156 65.777344 C 65.371094 65.777344 65.457031 65.777344 65.527344 65.792969 C 65.601562 65.804688 65.6875 65.820312 65.757812 65.835938 L 65.757812 64.410156 C 65.726562 64.410156 65.703125 64.410156 65.6875 64.398438 C 65.671875 64.398438 65.644531 64.398438 65.613281 64.398438 C 65.34375 64.398438 65.101562 64.425781 64.886719 64.496094 C 64.671875 64.566406 64.503906 64.667969 64.347656 64.796875 C 64.1875 64.921875 64.046875 65.066406 63.933594 65.222656 C 63.820312 65.382812 63.71875 65.550781 63.648438 65.734375 L 63.621094 65.734375 C 63.621094 65.679688 63.621094 65.59375 63.621094 65.480469 C 63.605469 65.367188 63.605469 65.234375 63.589844 65.109375 C 63.578125 64.980469 63.578125 64.867188 63.578125 64.753906 C 63.5625 64.640625 63.5625 64.550781 63.5625 64.496094 L 62.195312 64.496094 C 62.210938 64.710938 62.222656 64.9375 62.238281 65.164062 C 62.253906 65.410156 62.253906 65.648438 62.253906 65.890625 L 62.253906 71.804688 "/>
<path style=" stroke:none;fill-rule:nonzero;fill:rgb(13.729858%,12.159729%,12.548828%);fill-opacity:1;" d="M 67.003906 71.804688 L 68.484375 71.804688 L 68.484375 67.472656 C 68.484375 66.90625 68.597656 66.449219 68.84375 66.121094 C 69.070312 65.792969 69.410156 65.636719 69.882812 65.636719 C 70.265625 65.636719 70.539062 65.765625 70.722656 66.023438 C 70.894531 66.277344 70.976562 66.691406 70.976562 67.261719 L 70.976562 71.804688 L 72.460938 71.804688 L 72.460938 66.917969 C 72.460938 66.148438 72.289062 65.535156 71.949219 65.082031 C 71.605469 64.625 71.0625 64.398438 70.324219 64.398438 C 69.898438 64.398438 69.527344 64.496094 69.199219 64.710938 C 68.871094 64.921875 68.613281 65.222656 68.425781 65.609375 L 68.398438 65.609375 C 68.398438 65.566406 68.398438 65.480469 68.398438 65.382812 C 68.386719 65.28125 68.386719 65.164062 68.371094 65.050781 C 68.355469 64.9375 68.355469 64.824219 68.355469 64.726562 C 68.34375 64.625 68.34375 64.539062 68.34375 64.496094 L 66.949219 64.496094 C 66.960938 64.710938 66.976562 64.9375 66.988281 65.164062 C 67.003906 65.410156 67.003906 65.648438 67.003906 65.890625 L 67.003906 71.804688 "/>
<path style=" stroke:none;fill-rule:nonzero;fill:rgb(13.729858%,12.159729%,12.548828%);fill-opacity:1;" d="M 35.972656 71.804688 L 40.773438 71.804688 L 40.773438 70.535156 L 37.511719 70.535156 L 37.511719 61.859375 L 35.972656 61.859375 L 35.972656 71.804688 "/>
<path style=" stroke:none;fill-rule:nonzero;fill:rgb(0%,49.674988%,27.331543%);fill-opacity:1;" d="M 111.945312 55.925781 L 114.210938 55.925781 L 114.210938 29.605469 L 111.945312 29.605469 Z M 111.945312 55.925781 "/>
<path style=" stroke:none;fill-rule:nonzero;fill:rgb(0%,49.674988%,27.331543%);fill-opacity:1;" d="M 0.824219 55.925781 L 3.09375 55.925781 L 3.09375 29.605469 L 0.824219 29.605469 Z M 0.824219 55.925781 "/>
<path style=" stroke:none;fill-rule:nonzero;fill:rgb(0%,49.674988%,27.331543%);fill-opacity:1;" d="M 4.792969 54.242188 L 110.242188 54.242188 L 110.242188 30.453125 L 4.792969 30.453125 Z M 4.792969 54.242188 "/>
<path style=" stroke:none;fill-rule:nonzero;fill:rgb(100%,100%,100%);fill-opacity:1;" d="M 10.894531 41.960938 C 10.578125 42.230469 10.578125 42.722656 10.894531 42.992188 L 20.199219 50.960938 C 20.703125 51.390625 21.464844 50.921875 21.300781 50.28125 L 19.816406 44.347656 L 29.679688 45.027344 L 29.679688 39.929688 L 19.816406 40.609375 L 21.300781 34.675781 C 21.464844 34.03125 20.703125 33.5625 20.199219 33.992188 L 10.894531 41.960938 "/>
<path style=" stroke:none;fill-rule:nonzero;fill:rgb(100%,100%,100%);fill-opacity:1;" d="M 35.972656 47.449219 L 39.21875 47.449219 C 39.820312 47.449219 40.347656 47.363281 40.808594 47.195312 C 41.269531 47.039062 41.648438 46.796875 41.972656 46.507812 C 42.296875 46.21875 42.535156 45.859375 42.707031 45.449219 C 42.859375 45.054688 42.945312 44.609375 42.945312 44.132812 C 42.945312 43.671875 42.878906 43.277344 42.757812 42.917969 C 42.621094 42.578125 42.449219 42.285156 42.246094 42.046875 C 42.023438 41.824219 41.785156 41.636719 41.527344 41.496094 C 41.253906 41.363281 40.980469 41.277344 40.707031 41.226562 L 40.707031 41.191406 C 40.964844 41.105469 41.203125 41.003906 41.441406 40.847656 C 41.664062 40.714844 41.867188 40.542969 42.058594 40.320312 C 42.246094 40.097656 42.382812 39.84375 42.5 39.53125 C 42.621094 39.242188 42.671875 38.882812 42.671875 38.492188 C 42.671875 37.53125 42.398438 36.796875 41.851562 36.285156 C 41.289062 35.769531 40.414062 35.515625 39.21875 35.515625 L 35.972656 35.515625 L 35.972656 47.449219 "/>
<path style=" stroke:none;fill-rule:nonzero;fill:rgb(100%,100%,100%);fill-opacity:1;" d="M 49.855469 47.449219 L 51.464844 47.449219 C 51.445312 47.296875 51.414062 47.074219 51.394531 46.816406 C 51.378906 46.5625 51.359375 46.285156 51.359375 45.996094 L 51.359375 41.808594 C 51.359375 41.226562 51.308594 40.746094 51.191406 40.371094 C 51.070312 39.996094 50.882812 39.6875 50.660156 39.429688 C 50.472656 39.207031 50.164062 39.003906 49.753906 38.816406 C 49.34375 38.644531 48.8125 38.558594 48.148438 38.558594 C 47.582031 38.558594 47.085938 38.628906 46.660156 38.765625 C 46.230469 38.902344 45.839844 39.054688 45.515625 39.242188 L 45.652344 40.765625 C 45.875 40.542969 46.199219 40.335938 46.625 40.148438 C 47.035156 39.976562 47.480469 39.894531 47.976562 39.894531 C 48.609375 39.894531 49.050781 40.0625 49.324219 40.40625 C 49.464844 40.578125 49.566406 40.765625 49.617188 40.96875 C 49.667969 41.191406 49.683594 41.429688 49.683594 41.707031 L 49.683594 42.0625 L 49.050781 42.0625 C 47.636719 42.0625 46.539062 42.304688 45.804688 42.765625 C 45.070312 43.242188 44.695312 43.996094 44.695312 45.023438 C 44.695312 45.433594 44.761719 45.789062 44.898438 46.117188 C 45.035156 46.441406 45.222656 46.695312 45.464844 46.917969 C 45.6875 47.140625 45.957031 47.296875 46.265625 47.398438 C 46.574219 47.515625 46.898438 47.566406 47.257812 47.566406 C 47.90625 47.566406 48.421875 47.433594 48.8125 47.160156 C 49.191406 46.902344 49.496094 46.59375 49.71875 46.25 L 49.753906 46.25 C 49.753906 46.304688 49.753906 46.386719 49.769531 46.507812 C 49.769531 46.628906 49.769531 46.75 49.789062 46.867188 C 49.804688 46.988281 49.804688 47.105469 49.820312 47.210938 C 49.839844 47.332031 49.839844 47.398438 49.855469 47.449219 "/>
<path style=" stroke:none;fill-rule:nonzero;fill:rgb(100%,100%,100%);fill-opacity:1;" d="M 53.636719 47.105469 C 53.910156 47.226562 54.25 47.34375 54.679688 47.433594 C 55.089844 47.515625 55.550781 47.566406 56.046875 47.566406 C 57.039062 47.566406 57.789062 47.332031 58.320312 46.832031 C 58.832031 46.339844 59.089844 45.703125 59.089844 44.917969 C 59.089844 44.386719 58.933594 43.960938 58.644531 43.636719 C 58.339844 43.3125 57.925781 42.988281 57.398438 42.695312 L 56.628906 42.269531 C 56.234375 42.046875 55.945312 41.859375 55.722656 41.671875 C 55.5 41.496094 55.398438 41.261719 55.398438 40.96875 C 55.398438 40.660156 55.5 40.40625 55.722656 40.214844 C 55.945312 40.03125 56.269531 39.945312 56.714844 39.945312 C 57.074219 39.945312 57.414062 39.976562 57.707031 40.046875 C 57.996094 40.132812 58.269531 40.214844 58.507812 40.320312 L 58.59375 38.882812 C 58.40625 38.816406 58.152344 38.746094 57.808594 38.660156 C 57.449219 38.59375 57.039062 38.558594 56.578125 38.558594 C 56.132812 38.558594 55.738281 38.628906 55.378906 38.765625 C 55.023438 38.902344 54.714844 39.089844 54.457031 39.308594 C 54.199219 39.550781 53.996094 39.824219 53.859375 40.113281 C 53.722656 40.421875 53.652344 40.746094 53.652344 41.070312 C 53.652344 41.378906 53.703125 41.652344 53.789062 41.894531 C 53.875 42.132812 53.996094 42.335938 54.148438 42.523438 C 54.300781 42.710938 54.472656 42.867188 54.695312 43.003906 C 54.917969 43.15625 55.160156 43.292969 55.429688 43.433594 L 56.355469 43.894531 C 56.746094 44.082031 57.023438 44.285156 57.175781 44.488281 C 57.3125 44.695312 57.378906 44.917969 57.378906 45.140625 C 57.378906 45.480469 57.242188 45.738281 56.96875 45.910156 C 56.695312 46.097656 56.320312 46.183594 55.859375 46.183594 C 55.429688 46.183594 55.023438 46.117188 54.660156 45.960938 C 54.300781 45.824219 53.996094 45.6875 53.738281 45.570312 L 53.636719 47.105469 "/>
<path style=" stroke:none;fill-rule:nonzero;fill:rgb(100%,100%,100%);fill-opacity:1;" d="M 62.683594 43.570312 L 67.695312 43.570312 L 67.695312 42.96875 C 67.695312 42.199219 67.609375 41.550781 67.457031 40.988281 C 67.300781 40.421875 67.078125 39.960938 66.789062 39.601562 C 66.5 39.242188 66.140625 38.984375 65.746094 38.816406 C 65.335938 38.644531 64.890625 38.558594 64.414062 38.558594 C 63.867188 38.558594 63.367188 38.660156 62.941406 38.882812 C 62.496094 39.105469 62.121094 39.429688 61.832031 39.824219 C 61.539062 40.234375 61.300781 40.714844 61.148438 41.277344 C 60.992188 41.839844 60.90625 42.457031 60.90625 43.125 C 60.90625 43.757812 60.992188 44.355469 61.148438 44.902344 C 61.300781 45.449219 61.523438 45.910156 61.847656 46.304688 C 62.15625 46.695312 62.550781 47.003906 63.027344 47.226562 C 63.507812 47.464844 64.070312 47.566406 64.703125 47.566406 C 65.25 47.566406 65.746094 47.515625 66.175781 47.398438 C 66.601562 47.277344 66.945312 47.160156 67.234375 47.039062 L 67.148438 45.550781 C 66.925781 45.703125 66.636719 45.859375 66.292969 46.015625 C 65.933594 46.167969 65.507812 46.25 64.992188 46.25 C 64.171875 46.25 63.589844 46.03125 63.230469 45.570312 C 62.875 45.125 62.683594 44.457031 62.683594 43.570312 "/>
<path style=" stroke:none;fill-rule:nonzero;fill:rgb(100%,100%,100%);fill-opacity:1;" d="M 69.84375 47.449219 L 71.617188 47.449219 L 71.617188 34.625 L 69.84375 34.625 L 69.84375 47.449219 "/>
<path style=" stroke:none;fill-rule:nonzero;fill:rgb(100%,100%,100%);fill-opacity:1;" d="M 56.328125 67.558594 C 56.339844 66.890625 56.46875 66.363281 56.710938 65.992188 C 56.953125 65.636719 57.292969 65.453125 57.722656 65.453125 C 58.605469 65.453125 59.046875 66.148438 59.046875 67.558594 L 56.328125 67.558594 "/>
<path style=" stroke:none;fill-rule:nonzero;fill:rgb(10.112%,40.585327%,73.280334%);fill-opacity:1;" d="M 8.761719 4.964844 C 6.570312 4.96875 4.796875 6.742188 4.792969 8.929688 L 4.792969 28.753906 L 110.242188 28.753906 L 110.242188 8.929688 C 110.242188 6.742188 108.46875 4.96875 106.273438 4.964844 L 8.761719 4.964844 "/>
<path style=" stroke:none;fill-rule:nonzero;fill:rgb(10.112%,40.585327%,73.280334%);fill-opacity:1;" d="M 0.824219 29.605469 L 0.824219 1 L 114.210938 1 L 114.210938 29.605469 L 111.945312 29.605469 L 111.945312 8.929688 C 111.941406 5.800781 109.40625 3.269531 106.273438 3.265625 L 8.761719 3.265625 C 5.632812 3.269531 3.09375 5.800781 3.09375 8.929688 L 3.09375 29.605469 L 0.824219 29.605469 "/>
<path style=" stroke:none;fill-rule:nonzero;fill:rgb(100%,100%,100%);fill-opacity:1;" d="M 9.804688 16.699219 C 9.371094 17.203125 9.84375 17.960938 10.484375 17.800781 L 16.425781 16.320312 L 15.742188 26.171875 L 20.847656 26.171875 L 20.167969 16.320312 L 26.105469 17.800781 C 26.746094 17.964844 27.21875 17.203125 26.785156 16.699219 L 18.8125 7.40625 C 18.539062 7.089844 18.050781 7.089844 17.777344 7.40625 L 9.804688 16.699219 "/>
<path style=" stroke:none;fill-rule:nonzero;fill:rgb(100%,100%,100%);fill-opacity:1;" d="M 45.554688 11.550781 L 47.0625 11.550781 L 47.0625 9.753906 L 45.554688 9.753906 L 45.554688 11.550781 "/>
<path style=" stroke:none;fill-rule:nonzero;fill:rgb(100%,100%,100%);fill-opacity:1;" d="M 48.363281 11.550781 L 49.863281 11.550781 L 49.863281 9.753906 L 48.363281 9.753906 L 48.363281 11.550781 "/>
<path style=" stroke:none;fill-rule:nonzero;fill:rgb(100%,100%,100%);fill-opacity:1;" d="M 49.371094 21.960938 L 51.042969 21.960938 C 51.027344 21.707031 51.011719 21.429688 50.992188 21.140625 C 50.976562 20.867188 50.976562 20.578125 50.976562 20.285156 L 50.976562 13.191406 L 49.199219 13.191406 L 49.199219 18.335938 C 49.199219 19.019531 49.0625 19.570312 48.804688 19.976562 C 48.546875 20.390625 48.121094 20.59375 47.558594 20.59375 C 47.097656 20.59375 46.769531 20.441406 46.546875 20.132812 C 46.328125 19.828125 46.207031 19.328125 46.207031 18.648438 L 46.207031 13.191406 L 44.429688 13.191406 L 44.429688 19.054688 C 44.429688 19.976562 44.636719 20.714844 45.046875 21.261719 C 45.453125 21.808594 46.105469 22.078125 46.992188 22.078125 C 47.59375 22.078125 48.070312 21.945312 48.429688 21.65625 C 48.773438 21.382812 49.046875 21.039062 49.269531 20.628906 L 49.300781 20.628906 L 49.371094 21.960938 "/>
<path style=" stroke:none;fill-rule:nonzero;fill:rgb(100%,100%,100%);fill-opacity:1;" d="M 53.5625 21.960938 L 55.339844 21.960938 L 55.339844 17.242188 C 55.339844 16.800781 55.390625 16.421875 55.492188 16.097656 C 55.597656 15.773438 55.734375 15.519531 55.90625 15.3125 C 56.074219 15.125 56.28125 14.96875 56.503906 14.867188 C 56.722656 14.78125 56.949219 14.730469 57.203125 14.730469 C 57.304688 14.730469 57.40625 14.730469 57.492188 14.746094 C 57.578125 14.765625 57.679688 14.78125 57.769531 14.800781 L 57.769531 13.089844 C 57.734375 13.089844 57.699219 13.089844 57.679688 13.074219 C 57.664062 13.074219 57.632812 13.074219 57.597656 13.074219 C 57.269531 13.074219 56.980469 13.105469 56.722656 13.191406 C 56.46875 13.277344 56.261719 13.398438 56.074219 13.550781 C 55.886719 13.703125 55.714844 13.875 55.582031 14.0625 C 55.441406 14.253906 55.324219 14.457031 55.238281 14.679688 L 55.203125 14.679688 C 55.203125 14.609375 55.203125 14.507812 55.203125 14.371094 C 55.1875 14.234375 55.1875 14.082031 55.167969 13.925781 C 55.152344 13.773438 55.152344 13.636719 55.152344 13.5 C 55.136719 13.363281 55.136719 13.261719 55.136719 13.191406 L 53.492188 13.191406 C 53.511719 13.449219 53.527344 13.722656 53.542969 13.996094 C 53.5625 14.285156 53.5625 14.578125 53.5625 14.867188 L 53.5625 21.960938 "/>
<path style=" stroke:none;fill-rule:nonzero;fill:rgb(100%,100%,100%);fill-opacity:1;" d="M 59.128906 21.960938 L 60.90625 21.960938 L 60.90625 13.191406 L 59.128906 13.191406 L 59.128906 21.960938 "/>
<path style=" stroke:none;fill-rule:nonzero;fill:rgb(100%,100%,100%);fill-opacity:1;" d="M 59.078125 11.429688 L 60.957031 11.429688 L 60.957031 9.53125 L 59.078125 9.53125 L 59.078125 11.429688 "/>
<path style=" stroke:none;fill-rule:nonzero;fill:rgb(100%,100%,100%);fill-opacity:1;" d="M 68.886719 21.722656 L 68.785156 20.21875 C 68.597656 20.335938 68.339844 20.441406 68.050781 20.527344 C 67.761719 20.613281 67.453125 20.664062 67.160156 20.664062 C 66.390625 20.664062 65.808594 20.390625 65.398438 19.84375 C 64.972656 19.296875 64.769531 18.558594 64.769531 17.636719 C 64.769531 16.558594 64.972656 15.773438 65.382812 15.261719 C 65.792969 14.746094 66.375 14.492188 67.125 14.492188 C 67.453125 14.492188 67.742188 14.527344 67.996094 14.609375 C 68.253906 14.695312 68.476562 14.78125 68.699219 14.902344 L 68.785156 13.414062 C 68.5625 13.328125 68.308594 13.242188 67.980469 13.175781 C 67.65625 13.105469 67.332031 13.074219 67.007812 13.074219 C 66.339844 13.074219 65.742188 13.175781 65.230469 13.398438 C 64.714844 13.621094 64.289062 13.945312 63.949219 14.339844 C 63.605469 14.746094 63.347656 15.226562 63.175781 15.789062 C 63.007812 16.355469 62.921875 16.953125 62.921875 17.621094 C 62.921875 18.234375 63.007812 18.816406 63.160156 19.363281 C 63.316406 19.910156 63.570312 20.390625 63.898438 20.78125 C 64.21875 21.175781 64.632812 21.5 65.144531 21.722656 C 65.640625 21.960938 66.238281 22.078125 66.921875 22.078125 C 67.296875 22.078125 67.65625 22.046875 68.015625 21.976562 C 68.375 21.894531 68.664062 21.808594 68.886719 21.722656 "/>
<path style=" stroke:none;fill-rule:nonzero;fill:rgb(100%,100%,100%);fill-opacity:1;" d="M 70.578125 21.960938 L 72.355469 21.960938 L 72.355469 16.765625 C 72.355469 16.082031 72.492188 15.535156 72.78125 15.140625 C 73.058594 14.746094 73.46875 14.558594 74.03125 14.558594 C 74.492188 14.558594 74.816406 14.714844 75.039062 15.019531 C 75.246094 15.328125 75.347656 15.824219 75.347656 16.507812 L 75.347656 21.960938 L 77.125 21.960938 L 77.125 16.097656 C 77.125 15.175781 76.921875 14.441406 76.511719 13.894531 C 76.097656 13.347656 75.449219 13.074219 74.5625 13.074219 C 73.980469 13.074219 73.519531 13.210938 73.195312 13.464844 C 72.851562 13.738281 72.578125 14.027344 72.390625 14.355469 L 72.355469 14.355469 L 72.355469 9.140625 L 70.578125 9.140625 L 70.578125 21.960938 "/>
<path style=" stroke:none;fill-rule:nonzero;fill:rgb(100%,100%,100%);fill-opacity:1;" d="M 35.972656 21.960938 L 43.015625 21.960938 L 43.015625 20.441406 L 38.039062 20.441406 L 42.929688 11.585938 L 42.929688 10.03125 L 36.125 10.03125 L 36.125 11.550781 L 40.757812 11.550781 L 35.972656 20.285156 L 35.972656 21.960938 "/>
<path style=" stroke:none;fill-rule:nonzero;fill:rgb(0%,49.674988%,27.331543%);fill-opacity:1;" d="M 37.785156 45.996094 L 37.785156 42.011719 L 39.082031 42.011719 C 39.441406 42.011719 39.730469 42.0625 39.988281 42.167969 C 40.246094 42.269531 40.449219 42.40625 40.621094 42.59375 C 40.777344 42.78125 40.894531 42.988281 40.980469 43.226562 C 41.066406 43.46875 41.101562 43.722656 41.101562 44.011719 C 41.101562 44.578125 40.929688 45.054688 40.585938 45.433594 C 40.246094 45.804688 39.730469 45.996094 39.03125 45.996094 L 37.785156 45.996094 "/>
<path style=" stroke:none;fill-rule:nonzero;fill:rgb(0%,49.674988%,27.331543%);fill-opacity:1;" d="M 49.683594 43.15625 L 49.683594 43.945312 C 49.683594 44.644531 49.53125 45.210938 49.222656 45.636719 C 48.898438 46.082031 48.4375 46.304688 47.804688 46.304688 C 47.34375 46.304688 47.003906 46.167969 46.761719 45.910156 C 46.523438 45.652344 46.402344 45.296875 46.402344 44.867188 C 46.402344 44.285156 46.625 43.859375 47.085938 43.570312 C 47.550781 43.277344 48.214844 43.140625 49.085938 43.140625 C 49.191406 43.140625 49.292969 43.140625 49.414062 43.140625 C 49.53125 43.140625 49.636719 43.140625 49.683594 43.15625 "/>
<path style=" stroke:none;fill-rule:nonzero;fill:rgb(0%,49.674988%,27.331543%);fill-opacity:1;" d="M 62.683594 42.355469 C 62.703125 41.550781 62.855469 40.917969 63.148438 40.472656 C 63.4375 40.046875 63.847656 39.824219 64.359375 39.824219 C 65.421875 39.824219 65.953125 40.660156 65.953125 42.355469 L 62.683594 42.355469 "/>
<path style=" stroke:none;fill-rule:nonzero;fill:rgb(0%,49.674988%,27.331543%);fill-opacity:1;" d="M 37.785156 40.59375 L 37.785156 36.933594 L 38.894531 36.933594 C 39.5625 36.933594 40.058594 37.089844 40.382812 37.414062 C 40.707031 37.738281 40.859375 38.164062 40.859375 38.679688 C 40.859375 39.242188 40.691406 39.707031 40.347656 40.0625 C 39.988281 40.421875 39.476562 40.59375 38.792969 40.59375 L 37.785156 40.59375 "/>
</g>
</svg>
