<?xml version="1.0" encoding="UTF-8"?>
<svg xmlns="http://www.w3.org/2000/svg" xmlns:xlink="http://www.w3.org/1999/xlink" width="126pt" height="149pt" viewBox="0 0 126 149" version="1.1">
<g id="surface1">
<path style=" stroke:none;fill-rule:nonzero;fill:rgb(100%,100%,100%);fill-opacity:1;" d="M 0.15625 147.875 L 124.878906 147.875 L 124.878906 0.472656 L 0.15625 0.472656 Z M 0.15625 147.875 "/>
<path style="fill:none;stroke-width:2.835;stroke-linecap:butt;stroke-linejoin:miter;stroke:rgb(13.729858%,12.159729%,12.548828%);stroke-opacity:1;stroke-miterlimit:4;" d="M 1.5625 11.25 L 1248.789062 11.25 L 1248.789062 1485.273438 L 1.5625 1485.273438 L 1.5625 11.25 " transform="matrix(0.1,0,0,-0.1,0,149)"/>
<path style=" stroke:none;fill-rule:nonzero;fill:rgb(10.112%,40.585327%,73.280334%);fill-opacity:1;" d="M 1.289062 146.738281 L 123.746094 146.738281 L 123.746094 1.605469 L 1.289062 1.605469 Z M 1.289062 146.738281 "/>
<path style=" stroke:none;fill-rule:nonzero;fill:rgb(100%,100%,100%);fill-opacity:1;" d="M 7.207031 29.097656 L 62.789062 29.097656 L 62.789062 5.84375 L 7.207031 5.84375 Z M 7.207031 29.097656 "/>
<path style=" stroke:none;fill-rule:nonzero;fill:rgb(100%,100%,100%);fill-opacity:1;" d="M 38.148438 59.316406 C 38.441406 59.652344 38.148438 60.15625 37.6875 60.070312 L 33.613281 59.0625 L 33.613281 141.074219 L 27.90625 141.074219 L 27.90625 59.0625 L 23.832031 60.070312 C 23.371094 60.15625 23.078125 59.652344 23.371094 59.316406 L 30.421875 51.507812 C 30.59375 51.296875 30.925781 51.296875 31.09375 51.507812 L 38.148438 59.316406 "/>
<path style=" stroke:none;fill-rule:nonzero;fill:rgb(100%,100%,100%);fill-opacity:1;" d="M 62.035156 95.285156 C 61.992188 95.703125 61.40625 95.871094 61.195312 95.492188 L 58.96875 91.886719 L 56.957031 93.898438 L 44.949219 105.902344 L 44.949219 141.074219 L 39.28125 141.074219 L 39.28125 103.59375 L 52.96875 89.871094 L 54.980469 87.898438 L 51.371094 85.671875 C 50.992188 85.464844 51.121094 84.875 51.582031 84.832031 L 62.078125 84.289062 C 62.371094 84.289062 62.582031 84.496094 62.582031 84.75 L 62.035156 95.285156 "/>
<path style=" stroke:none;fill-rule:nonzero;fill:rgb(100%,100%,100%);fill-opacity:1;" d="M 5.527344 44.710938 L 10.316406 44.710938 L 10.316406 43.445312 L 7.0625 43.445312 L 7.0625 34.789062 L 5.527344 34.789062 L 5.527344 44.710938 "/>
<path style=" stroke:none;fill-rule:nonzero;fill:rgb(100%,100%,100%);fill-opacity:1;" d="M 15.625 44.710938 L 16.960938 44.710938 C 16.949219 44.585938 16.921875 44.398438 16.90625 44.183594 C 16.890625 43.972656 16.878906 43.742188 16.878906 43.503906 L 16.878906 40.019531 C 16.878906 39.539062 16.835938 39.140625 16.734375 38.828125 C 16.636719 38.515625 16.480469 38.257812 16.292969 38.046875 C 16.140625 37.859375 15.882812 37.6875 15.539062 37.535156 C 15.199219 37.390625 14.757812 37.320312 14.203125 37.320312 C 13.738281 37.320312 13.324219 37.378906 12.96875 37.488281 C 12.613281 37.605469 12.285156 37.730469 12.015625 37.890625 L 12.128906 39.152344 C 12.316406 38.96875 12.585938 38.796875 12.941406 38.644531 C 13.28125 38.5 13.652344 38.429688 14.0625 38.429688 C 14.589844 38.429688 14.960938 38.570312 15.183594 38.855469 C 15.296875 38.996094 15.386719 39.152344 15.425781 39.324219 C 15.46875 39.507812 15.484375 39.707031 15.484375 39.9375 L 15.484375 40.234375 L 14.960938 40.234375 C 13.777344 40.234375 12.871094 40.433594 12.257812 40.816406 C 11.648438 41.214844 11.335938 41.839844 11.335938 42.691406 C 11.335938 43.035156 11.390625 43.332031 11.503906 43.601562 C 11.617188 43.871094 11.773438 44.085938 11.972656 44.269531 C 12.15625 44.453125 12.386719 44.585938 12.640625 44.667969 C 12.898438 44.765625 13.167969 44.808594 13.464844 44.808594 C 14.007812 44.808594 14.433594 44.699219 14.757812 44.46875 C 15.070312 44.257812 15.328125 44 15.511719 43.71875 L 15.539062 43.71875 C 15.539062 43.757812 15.539062 43.828125 15.554688 43.929688 C 15.554688 44.027344 15.554688 44.128906 15.570312 44.226562 C 15.585938 44.328125 15.585938 44.425781 15.597656 44.511719 C 15.613281 44.609375 15.613281 44.667969 15.625 44.710938 "/>
<path style=" stroke:none;fill-rule:nonzero;fill:rgb(100%,100%,100%);fill-opacity:1;" d="M 23.289062 44.710938 L 24.679688 44.710938 C 24.667969 44.496094 24.652344 44.269531 24.640625 44.027344 C 24.625 43.800781 24.625 43.558594 24.625 43.316406 L 24.625 37.421875 L 23.144531 37.421875 L 23.144531 41.699219 C 23.144531 42.265625 23.03125 42.722656 22.820312 43.0625 C 22.605469 43.402344 22.25 43.574219 21.78125 43.574219 C 21.398438 43.574219 21.128906 43.445312 20.941406 43.191406 C 20.757812 42.933594 20.660156 42.523438 20.660156 41.953125 L 20.660156 37.421875 L 19.179688 37.421875 L 19.179688 42.296875 C 19.179688 43.0625 19.351562 43.675781 19.691406 44.128906 C 20.035156 44.585938 20.574219 44.808594 21.3125 44.808594 C 21.808594 44.808594 22.207031 44.699219 22.507812 44.453125 C 22.792969 44.226562 23.019531 43.941406 23.203125 43.601562 L 23.230469 43.601562 L 23.289062 44.710938 "/>
<path style=" stroke:none;fill-rule:nonzero;fill:rgb(100%,100%,100%);fill-opacity:1;" d="M 26.996094 44.425781 C 27.222656 44.527344 27.507812 44.625 27.863281 44.699219 C 28.203125 44.765625 28.585938 44.808594 29 44.808594 C 29.824219 44.808594 30.449219 44.609375 30.890625 44.199219 C 31.316406 43.785156 31.53125 43.261719 31.53125 42.609375 C 31.53125 42.167969 31.402344 41.8125 31.160156 41.539062 C 30.90625 41.273438 30.5625 41 30.121094 40.757812 L 29.484375 40.40625 C 29.15625 40.21875 28.914062 40.0625 28.730469 39.90625 C 28.542969 39.765625 28.460938 39.566406 28.460938 39.324219 C 28.460938 39.066406 28.542969 38.855469 28.730469 38.699219 C 28.914062 38.542969 29.183594 38.472656 29.554688 38.472656 C 29.851562 38.472656 30.136719 38.5 30.378906 38.554688 C 30.621094 38.628906 30.847656 38.699219 31.046875 38.785156 L 31.117188 37.589844 C 30.960938 37.535156 30.746094 37.476562 30.464844 37.40625 C 30.164062 37.347656 29.824219 37.320312 29.441406 37.320312 C 29.070312 37.320312 28.742188 37.378906 28.445312 37.488281 C 28.148438 37.605469 27.890625 37.761719 27.675781 37.945312 C 27.464844 38.144531 27.292969 38.371094 27.179688 38.613281 C 27.066406 38.871094 27.007812 39.140625 27.007812 39.410156 C 27.007812 39.664062 27.050781 39.890625 27.121094 40.09375 C 27.195312 40.289062 27.292969 40.460938 27.421875 40.617188 C 27.546875 40.773438 27.691406 40.902344 27.875 41.015625 C 28.0625 41.144531 28.261719 41.257812 28.488281 41.371094 L 29.253906 41.753906 C 29.582031 41.910156 29.808594 42.082031 29.9375 42.253906 C 30.050781 42.421875 30.109375 42.609375 30.109375 42.792969 C 30.109375 43.074219 29.992188 43.289062 29.765625 43.433594 C 29.539062 43.589844 29.226562 43.660156 28.84375 43.660156 C 28.488281 43.660156 28.148438 43.601562 27.847656 43.476562 C 27.546875 43.359375 27.292969 43.246094 27.082031 43.148438 L 26.996094 44.425781 "/>
<path style=" stroke:none;fill-rule:nonzero;fill:rgb(100%,100%,100%);fill-opacity:1;" d="M 37.621094 44.710938 L 38.957031 44.710938 C 38.941406 44.585938 38.914062 44.398438 38.902344 44.183594 C 38.886719 43.972656 38.871094 43.742188 38.871094 43.503906 L 38.871094 40.019531 C 38.871094 39.539062 38.828125 39.140625 38.730469 38.828125 C 38.628906 38.515625 38.472656 38.257812 38.289062 38.046875 C 38.132812 37.859375 37.875 37.6875 37.535156 37.535156 C 37.195312 37.390625 36.753906 37.320312 36.199219 37.320312 C 35.730469 37.320312 35.316406 37.378906 34.964844 37.488281 C 34.609375 37.605469 34.28125 37.730469 34.011719 37.890625 L 34.125 39.152344 C 34.308594 38.96875 34.578125 38.796875 34.933594 38.644531 C 35.277344 38.5 35.644531 38.429688 36.058594 38.429688 C 36.582031 38.429688 36.953125 38.570312 37.179688 38.855469 C 37.292969 38.996094 37.378906 39.152344 37.421875 39.324219 C 37.464844 39.507812 37.480469 39.707031 37.480469 39.9375 L 37.480469 40.234375 L 36.953125 40.234375 C 35.773438 40.234375 34.863281 40.433594 34.253906 40.816406 C 33.640625 41.214844 33.328125 41.839844 33.328125 42.691406 C 33.328125 43.035156 33.386719 43.332031 33.5 43.601562 C 33.613281 43.871094 33.769531 44.085938 33.96875 44.269531 C 34.152344 44.453125 34.378906 44.585938 34.636719 44.667969 C 34.890625 44.765625 35.160156 44.808594 35.460938 44.808594 C 36 44.808594 36.425781 44.699219 36.753906 44.46875 C 37.066406 44.257812 37.324219 44 37.507812 43.71875 L 37.535156 43.71875 C 37.535156 43.757812 37.535156 43.828125 37.550781 43.929688 C 37.550781 44.027344 37.550781 44.128906 37.5625 44.226562 C 37.578125 44.328125 37.578125 44.425781 37.59375 44.511719 C 37.605469 44.609375 37.605469 44.667969 37.621094 44.710938 "/>
<path style=" stroke:none;fill-rule:nonzero;fill:rgb(100%,100%,100%);fill-opacity:1;" d="M 41.328125 44.710938 L 42.804688 44.710938 L 42.804688 40.390625 C 42.804688 39.820312 42.917969 39.367188 43.160156 39.039062 C 43.386719 38.714844 43.730469 38.554688 44.199219 38.554688 C 44.582031 38.554688 44.851562 38.683594 45.035156 38.941406 C 45.207031 39.195312 45.292969 39.609375 45.292969 40.175781 L 45.292969 44.710938 L 46.769531 44.710938 L 46.769531 39.835938 C 46.769531 39.066406 46.601562 38.457031 46.257812 38.003906 C 45.917969 37.546875 45.378906 37.320312 44.640625 37.320312 C 44.214844 37.320312 43.84375 37.421875 43.515625 37.632812 C 43.1875 37.847656 42.933594 38.144531 42.746094 38.527344 L 42.71875 38.527344 C 42.71875 38.484375 42.71875 38.398438 42.71875 38.300781 C 42.707031 38.203125 42.707031 38.089844 42.691406 37.972656 C 42.675781 37.859375 42.675781 37.746094 42.675781 37.648438 C 42.664062 37.546875 42.664062 37.460938 42.664062 37.421875 L 41.269531 37.421875 C 41.285156 37.632812 41.296875 37.859375 41.3125 38.089844 C 41.328125 38.328125 41.328125 38.570312 41.328125 38.8125 L 41.328125 44.710938 "/>
<path style=" stroke:none;fill-rule:nonzero;fill:rgb(100%,100%,100%);fill-opacity:1;" d="M 49.214844 44.710938 L 50.691406 44.710938 L 50.691406 40.390625 C 50.691406 39.820312 50.804688 39.367188 51.046875 39.039062 C 51.273438 38.714844 51.617188 38.554688 52.085938 38.554688 C 52.46875 38.554688 52.738281 38.683594 52.921875 38.941406 C 53.09375 39.195312 53.179688 39.609375 53.179688 40.175781 L 53.179688 44.710938 L 54.65625 44.710938 L 54.65625 39.835938 C 54.65625 39.066406 54.488281 38.457031 54.144531 38.003906 C 53.804688 37.546875 53.265625 37.320312 52.527344 37.320312 C 52.097656 37.320312 51.730469 37.421875 51.402344 37.632812 C 51.074219 37.847656 50.820312 38.144531 50.636719 38.527344 L 50.605469 38.527344 C 50.605469 38.484375 50.605469 38.398438 50.605469 38.300781 C 50.59375 38.203125 50.59375 38.089844 50.578125 37.972656 C 50.566406 37.859375 50.566406 37.746094 50.566406 37.648438 C 50.550781 37.546875 50.550781 37.460938 50.550781 37.421875 L 49.15625 37.421875 C 49.171875 37.632812 49.183594 37.859375 49.199219 38.089844 C 49.214844 38.328125 49.214844 38.570312 49.214844 38.8125 L 49.214844 44.710938 "/>
<path style=" stroke:none;fill-rule:nonzero;fill:rgb(100%,100%,100%);fill-opacity:1;" d="M 58.144531 41.484375 L 62.308594 41.484375 L 62.308594 40.988281 C 62.308594 40.347656 62.238281 39.808594 62.113281 39.339844 C 61.984375 38.871094 61.800781 38.484375 61.558594 38.1875 C 61.316406 37.890625 61.019531 37.675781 60.691406 37.535156 C 60.347656 37.390625 59.980469 37.320312 59.582031 37.320312 C 59.125 37.320312 58.714844 37.40625 58.359375 37.589844 C 57.988281 37.773438 57.675781 38.046875 57.4375 38.371094 C 57.195312 38.714844 56.996094 39.109375 56.867188 39.578125 C 56.738281 40.050781 56.667969 40.5625 56.667969 41.113281 C 56.667969 41.640625 56.738281 42.140625 56.867188 42.59375 C 56.996094 43.050781 57.179688 43.433594 57.449219 43.757812 C 57.707031 44.085938 58.03125 44.34375 58.429688 44.527344 C 58.828125 44.722656 59.296875 44.808594 59.824219 44.808594 C 60.277344 44.808594 60.691406 44.765625 61.046875 44.667969 C 61.402344 44.570312 61.683594 44.46875 61.925781 44.371094 L 61.855469 43.132812 C 61.671875 43.261719 61.429688 43.390625 61.144531 43.515625 C 60.847656 43.644531 60.492188 43.71875 60.066406 43.71875 C 59.382812 43.71875 58.898438 43.53125 58.601562 43.148438 C 58.304688 42.777344 58.144531 42.222656 58.144531 41.484375 "/>
<path style=" stroke:none;fill-rule:nonzero;fill:rgb(100%,100%,100%);fill-opacity:1;" d="M 72.296875 78.707031 L 73.832031 78.707031 L 73.832031 74.65625 L 76.773438 68.789062 L 75.109375 68.789062 L 73.089844 72.964844 L 71.03125 68.789062 L 69.339844 68.789062 L 72.296875 74.628906 L 72.296875 78.707031 "/>
<path style=" stroke:none;fill-rule:nonzero;fill:rgb(100%,100%,100%);fill-opacity:1;" d="M 78.910156 78.707031 L 80.660156 78.707031 L 82.863281 71.417969 L 81.386719 71.417969 L 79.820312 77.273438 L 79.792969 77.273438 L 78.257812 71.417969 L 76.695312 71.417969 L 78.910156 78.707031 "/>
<path style=" stroke:none;fill-rule:nonzero;fill:rgb(100%,100%,100%);fill-opacity:1;" d="M 85.445312 75.480469 L 89.609375 75.480469 L 89.609375 74.984375 C 89.609375 74.34375 89.539062 73.804688 89.410156 73.335938 C 89.28125 72.867188 89.097656 72.480469 88.855469 72.183594 C 88.613281 71.886719 88.316406 71.671875 87.988281 71.53125 C 87.648438 71.386719 87.277344 71.316406 86.882812 71.316406 C 86.425781 71.316406 86.015625 71.402344 85.65625 71.585938 C 85.289062 71.773438 84.976562 72.042969 84.734375 72.367188 C 84.492188 72.710938 84.292969 73.105469 84.167969 73.578125 C 84.039062 74.046875 83.96875 74.558594 83.96875 75.113281 C 83.96875 75.636719 84.039062 76.136719 84.167969 76.589844 C 84.292969 77.046875 84.480469 77.429688 84.746094 77.757812 C 85.003906 78.082031 85.332031 78.339844 85.730469 78.523438 C 86.128906 78.71875 86.597656 78.808594 87.121094 78.808594 C 87.578125 78.808594 87.988281 78.765625 88.34375 78.664062 C 88.699219 78.566406 88.984375 78.46875 89.226562 78.367188 L 89.15625 77.132812 C 88.96875 77.257812 88.726562 77.386719 88.445312 77.515625 C 88.144531 77.640625 87.789062 77.714844 87.363281 77.714844 C 86.683594 77.714844 86.199219 77.527344 85.902344 77.144531 C 85.601562 76.773438 85.445312 76.21875 85.445312 75.480469 "/>
<path style=" stroke:none;fill-rule:nonzero;fill:rgb(100%,100%,100%);fill-opacity:1;" d="M 91.777344 78.707031 L 93.253906 78.707031 L 93.253906 74.785156 C 93.253906 74.417969 93.296875 74.101562 93.382812 73.832031 C 93.46875 73.5625 93.582031 73.347656 93.722656 73.179688 C 93.863281 73.023438 94.035156 72.894531 94.21875 72.808594 C 94.40625 72.738281 94.589844 72.695312 94.800781 72.695312 C 94.890625 72.695312 94.972656 72.695312 95.042969 72.710938 C 95.117188 72.722656 95.203125 72.738281 95.273438 72.753906 L 95.273438 71.332031 C 95.242188 71.332031 95.214844 71.332031 95.203125 71.316406 C 95.1875 71.316406 95.15625 71.316406 95.128906 71.316406 C 94.859375 71.316406 94.617188 71.34375 94.40625 71.417969 C 94.191406 71.488281 94.023438 71.585938 93.863281 71.714844 C 93.707031 71.84375 93.566406 71.984375 93.453125 72.140625 C 93.339844 72.296875 93.238281 72.46875 93.167969 72.652344 L 93.140625 72.652344 C 93.140625 72.597656 93.140625 72.511719 93.140625 72.398438 C 93.125 72.285156 93.125 72.15625 93.113281 72.027344 C 93.097656 71.898438 93.097656 71.785156 93.097656 71.671875 C 93.082031 71.558594 93.082031 71.472656 93.082031 71.417969 L 91.71875 71.417969 C 91.730469 71.628906 91.746094 71.855469 91.761719 72.085938 C 91.777344 72.328125 91.777344 72.566406 91.777344 72.808594 L 91.777344 78.707031 "/>
<path style=" stroke:none;fill-rule:nonzero;fill:rgb(100%,100%,100%);fill-opacity:1;" d="M 100.96875 78.707031 L 102.378906 78.707031 C 102.363281 78.523438 102.351562 78.324219 102.335938 78.109375 C 102.320312 77.898438 102.320312 77.65625 102.320312 77.414062 L 102.320312 68.046875 L 100.84375 68.046875 L 100.84375 72.441406 L 100.8125 72.441406 C 100.628906 72.113281 100.386719 71.84375 100.089844 71.628906 C 99.789062 71.417969 99.40625 71.316406 98.9375 71.316406 C 98.171875 71.316406 97.558594 71.628906 97.101562 72.269531 C 96.648438 72.910156 96.421875 73.832031 96.421875 75.070312 C 96.421875 75.636719 96.476562 76.148438 96.59375 76.605469 C 96.691406 77.074219 96.859375 77.457031 97.078125 77.785156 C 97.289062 78.109375 97.558594 78.367188 97.871094 78.539062 C 98.183594 78.71875 98.554688 78.808594 98.964844 78.808594 C 99.234375 78.808594 99.476562 78.777344 99.691406 78.695312 C 99.890625 78.621094 100.074219 78.539062 100.230469 78.421875 C 100.386719 78.308594 100.515625 78.183594 100.613281 78.039062 C 100.714844 77.898438 100.8125 77.757812 100.886719 77.601562 L 100.929688 77.601562 C 100.929688 77.671875 100.929688 77.757812 100.941406 77.871094 C 100.941406 77.984375 100.941406 78.097656 100.957031 78.210938 C 100.957031 78.324219 100.957031 78.421875 100.96875 78.523438 C 100.96875 78.621094 100.96875 78.679688 100.96875 78.707031 "/>
<path style=" stroke:none;fill-rule:nonzero;fill:rgb(100%,100%,100%);fill-opacity:1;" d="M 105.3125 77.925781 C 105.585938 78.226562 105.910156 78.453125 106.296875 78.59375 C 106.664062 78.734375 107.0625 78.808594 107.488281 78.808594 C 107.917969 78.808594 108.3125 78.734375 108.699219 78.59375 C 109.066406 78.453125 109.394531 78.226562 109.664062 77.925781 C 109.933594 77.628906 110.160156 77.246094 110.316406 76.773438 C 110.472656 76.304688 110.5625 75.722656 110.5625 75.054688 C 110.5625 74.402344 110.472656 73.832031 110.316406 73.363281 C 110.160156 72.894531 109.933594 72.496094 109.664062 72.199219 C 109.394531 71.898438 109.066406 71.671875 108.699219 71.53125 C 108.3125 71.386719 107.917969 71.316406 107.488281 71.316406 C 107.0625 71.316406 106.664062 71.386719 106.296875 71.53125 C 105.910156 71.671875 105.585938 71.898438 105.3125 72.199219 C 105.046875 72.496094 104.816406 72.894531 104.660156 73.363281 C 104.503906 73.832031 104.421875 74.402344 104.421875 75.054688 C 104.421875 75.722656 104.503906 76.304688 104.660156 76.773438 C 104.816406 77.246094 105.046875 77.628906 105.3125 77.925781 "/>
<path style=" stroke:none;fill-rule:nonzero;fill:rgb(100%,100%,100%);fill-opacity:1;" d="M 112.578125 78.707031 L 114.058594 78.707031 L 114.058594 74.386719 C 114.058594 73.820312 114.171875 73.363281 114.410156 73.035156 C 114.640625 72.710938 114.980469 72.550781 115.449219 72.550781 C 115.835938 72.550781 116.105469 72.679688 116.289062 72.9375 C 116.460938 73.195312 116.546875 73.605469 116.546875 74.175781 L 116.546875 78.707031 L 118.023438 78.707031 L 118.023438 73.832031 C 118.023438 73.066406 117.851562 72.453125 117.511719 72 C 117.171875 71.542969 116.628906 71.316406 115.890625 71.316406 C 115.464844 71.316406 115.09375 71.417969 114.769531 71.628906 C 114.441406 71.84375 114.183594 72.140625 114 72.527344 L 113.972656 72.527344 C 113.972656 72.480469 113.972656 72.398438 113.972656 72.296875 C 113.957031 72.199219 113.957031 72.085938 113.945312 71.972656 C 113.929688 71.855469 113.929688 71.742188 113.929688 71.644531 C 113.914062 71.542969 113.914062 71.457031 113.914062 71.417969 L 112.523438 71.417969 C 112.535156 71.628906 112.550781 71.855469 112.5625 72.085938 C 112.578125 72.328125 112.578125 72.566406 112.578125 72.808594 L 112.578125 78.707031 "/>
<path style=" stroke:none;fill-rule:nonzero;fill:rgb(100%,100%,100%);fill-opacity:1;" d="M 69.339844 94.320312 L 70.875 94.320312 L 70.875 90.296875 L 71.796875 90.296875 C 72.835938 90.296875 73.628906 90.042969 74.171875 89.515625 C 74.699219 89.003906 74.96875 88.265625 74.96875 87.3125 C 74.96875 86.359375 74.699219 85.636719 74.15625 85.140625 C 73.617188 84.640625 72.878906 84.398438 71.953125 84.398438 L 69.339844 84.398438 L 69.339844 94.320312 "/>
<path style=" stroke:none;fill-rule:nonzero;fill:rgb(100%,100%,100%);fill-opacity:1;" d="M 76.324219 94.320312 L 77.804688 94.320312 L 77.804688 90.398438 C 77.804688 90.027344 77.84375 89.714844 77.929688 89.445312 C 78.015625 89.175781 78.128906 88.960938 78.273438 88.792969 C 78.414062 88.636719 78.585938 88.507812 78.769531 88.421875 C 78.953125 88.351562 79.140625 88.308594 79.351562 88.308594 C 79.4375 88.308594 79.523438 88.308594 79.59375 88.324219 C 79.664062 88.335938 79.75 88.351562 79.820312 88.363281 L 79.820312 86.945312 C 79.792969 86.945312 79.765625 86.945312 79.75 86.929688 C 79.734375 86.929688 79.707031 86.929688 79.679688 86.929688 C 79.410156 86.929688 79.167969 86.957031 78.953125 87.03125 C 78.742188 87.097656 78.570312 87.199219 78.414062 87.328125 C 78.257812 87.457031 78.117188 87.597656 78.003906 87.753906 C 77.890625 87.910156 77.789062 88.082031 77.71875 88.265625 L 77.691406 88.265625 C 77.691406 88.210938 77.691406 88.125 77.691406 88.011719 C 77.675781 87.898438 77.675781 87.769531 77.660156 87.640625 C 77.648438 87.511719 77.648438 87.398438 77.648438 87.285156 C 77.632812 87.171875 77.632812 87.085938 77.632812 87.03125 L 76.269531 87.03125 C 76.28125 87.242188 76.296875 87.46875 76.308594 87.699219 C 76.324219 87.941406 76.324219 88.179688 76.324219 88.421875 L 76.324219 94.320312 "/>
<path style=" stroke:none;fill-rule:nonzero;fill:rgb(100%,100%,100%);fill-opacity:1;" d="M 81.214844 94.320312 L 82.691406 94.320312 L 82.691406 87.03125 L 81.214844 87.03125 L 81.214844 94.320312 "/>
<path style=" stroke:none;fill-rule:nonzero;fill:rgb(100%,100%,100%);fill-opacity:1;" d="M 81.171875 85.566406 L 82.734375 85.566406 L 82.734375 83.984375 L 81.171875 83.984375 L 81.171875 85.566406 "/>
<path style=" stroke:none;fill-rule:nonzero;fill:rgb(100%,100%,100%);fill-opacity:1;" d="M 85.167969 94.320312 L 86.644531 94.320312 L 86.644531 83.660156 L 85.167969 83.660156 L 85.167969 94.320312 "/>
<path style=" stroke:none;fill-rule:nonzero;fill:rgb(100%,100%,100%);fill-opacity:1;" d="M 89.132812 94.320312 L 90.605469 94.320312 L 90.605469 83.660156 L 89.132812 83.660156 L 89.132812 94.320312 "/>
<path style=" stroke:none;fill-rule:nonzero;fill:rgb(100%,100%,100%);fill-opacity:1;" d="M 92.757812 96.125 L 92.6875 97.332031 C 92.816406 97.375 92.957031 97.402344 93.128906 97.429688 C 93.28125 97.460938 93.46875 97.472656 93.652344 97.472656 C 94.179688 97.472656 94.605469 97.332031 94.90625 97.046875 C 95.203125 96.75 95.429688 96.324219 95.585938 95.753906 L 98.171875 87.03125 L 96.722656 87.03125 L 95.273438 92.757812 L 95.246094 92.757812 L 93.695312 87.03125 L 92.160156 87.03125 L 94.519531 94.40625 L 94.308594 95.273438 C 94.207031 95.65625 94.09375 95.910156 93.964844 96.054688 C 93.824219 96.195312 93.640625 96.265625 93.425781 96.265625 C 93.296875 96.265625 93.167969 96.253906 93.070312 96.222656 C 92.957031 96.195312 92.855469 96.167969 92.757812 96.125 "/>
<path style=" stroke:none;fill-rule:nonzero;fill:rgb(0%,49.674988%,27.331543%);fill-opacity:1;" d="M 8.34375 27.964844 L 61.65625 27.964844 L 61.65625 6.976562 L 8.34375 6.976562 Z M 8.34375 27.964844 "/>
<path style=" stroke:none;fill-rule:nonzero;fill:rgb(10.112%,40.585327%,73.280334%);fill-opacity:1;" d="M 15.484375 41.144531 L 15.484375 41.796875 C 15.484375 42.378906 15.355469 42.847656 15.101562 43.203125 C 14.832031 43.574219 14.445312 43.757812 13.921875 43.757812 C 13.535156 43.757812 13.253906 43.644531 13.054688 43.433594 C 12.855469 43.21875 12.757812 42.921875 12.757812 42.566406 C 12.757812 42.082031 12.941406 41.726562 13.324219 41.484375 C 13.707031 41.242188 14.261719 41.128906 14.984375 41.128906 C 15.070312 41.128906 15.15625 41.128906 15.257812 41.128906 C 15.355469 41.128906 15.441406 41.128906 15.484375 41.144531 "/>
<path style=" stroke:none;fill-rule:nonzero;fill:rgb(10.112%,40.585327%,73.280334%);fill-opacity:1;" d="M 37.480469 41.144531 L 37.480469 41.796875 C 37.480469 42.378906 37.351562 42.847656 37.09375 43.203125 C 36.824219 43.574219 36.441406 43.757812 35.914062 43.757812 C 35.53125 43.757812 35.246094 43.644531 35.046875 43.433594 C 34.847656 43.21875 34.75 42.921875 34.75 42.566406 C 34.75 42.082031 34.933594 41.726562 35.316406 41.484375 C 35.703125 41.242188 36.257812 41.128906 36.980469 41.128906 C 37.066406 41.128906 37.152344 41.128906 37.25 41.128906 C 37.351562 41.128906 37.4375 41.128906 37.480469 41.144531 "/>
<path style=" stroke:none;fill-rule:nonzero;fill:rgb(10.112%,40.585327%,73.280334%);fill-opacity:1;" d="M 58.144531 40.476562 C 58.160156 39.808594 58.289062 39.28125 58.53125 38.910156 C 58.769531 38.554688 59.113281 38.371094 59.539062 38.371094 C 60.417969 38.371094 60.859375 39.066406 60.859375 40.476562 L 58.144531 40.476562 "/>
<path style=" stroke:none;fill-rule:nonzero;fill:rgb(10.112%,40.585327%,73.280334%);fill-opacity:1;" d="M 85.445312 74.472656 C 85.460938 73.804688 85.589844 73.277344 85.832031 72.910156 C 86.070312 72.550781 86.410156 72.367188 86.839844 72.367188 C 87.71875 72.367188 88.160156 73.066406 88.160156 74.472656 L 85.445312 74.472656 "/>
<path style=" stroke:none;fill-rule:nonzero;fill:rgb(10.112%,40.585327%,73.280334%);fill-opacity:1;" d="M 98.226562 77.015625 C 98.015625 76.578125 97.902344 75.90625 97.902344 75.027344 C 97.902344 74.1875 98.015625 73.546875 98.242188 73.105469 C 98.46875 72.667969 98.839844 72.441406 99.363281 72.441406 C 99.890625 72.441406 100.261719 72.667969 100.5 73.136719 C 100.730469 73.605469 100.84375 74.246094 100.84375 75.054688 C 100.84375 75.863281 100.730469 76.507812 100.5 76.972656 C 100.261719 77.445312 99.875 77.683594 99.347656 77.683594 C 98.808594 77.683594 98.441406 77.457031 98.226562 77.015625 "/>
<path style=" stroke:none;fill-rule:nonzero;fill:rgb(10.112%,40.585327%,73.280334%);fill-opacity:1;" d="M 106.296875 76.945312 C 106.167969 76.703125 106.082031 76.433594 106.039062 76.105469 C 105.980469 75.78125 105.953125 75.4375 105.953125 75.054688 C 105.953125 74.671875 105.980469 74.332031 106.039062 74.003906 C 106.082031 73.675781 106.167969 73.40625 106.296875 73.164062 C 106.421875 72.9375 106.578125 72.753906 106.777344 72.625 C 106.964844 72.496094 107.203125 72.425781 107.488281 72.425781 C 107.773438 72.425781 108.015625 72.496094 108.214844 72.625 C 108.398438 72.753906 108.554688 72.9375 108.683594 73.164062 C 108.8125 73.40625 108.898438 73.675781 108.953125 74.003906 C 108.996094 74.332031 109.023438 74.671875 109.023438 75.054688 C 109.023438 75.4375 108.996094 75.78125 108.953125 76.105469 C 108.898438 76.433594 108.8125 76.703125 108.683594 76.945312 C 108.554688 77.1875 108.398438 77.371094 108.214844 77.5 C 108.015625 77.628906 107.773438 77.699219 107.488281 77.699219 C 107.203125 77.699219 106.964844 77.628906 106.777344 77.5 C 106.578125 77.371094 106.421875 77.1875 106.296875 76.945312 "/>
<path style=" stroke:none;fill-rule:nonzero;fill:rgb(10.112%,40.585327%,73.280334%);fill-opacity:1;" d="M 70.875 89.089844 L 70.875 85.609375 L 71.570312 85.609375 C 72.179688 85.609375 72.636719 85.75 72.949219 86.019531 C 73.246094 86.304688 73.40625 86.757812 73.40625 87.371094 C 73.40625 87.925781 73.261719 88.335938 72.976562 88.636719 C 72.691406 88.933594 72.222656 89.089844 71.554688 89.089844 L 70.875 89.089844 "/>
<path style=" stroke:none;fill-rule:nonzero;fill:rgb(100%,100%,100%);fill-opacity:1;" d="M 18.644531 20.921875 C 18.503906 20.992188 18.332031 21.046875 18.121094 21.089844 C 17.90625 21.132812 17.707031 21.148438 17.492188 21.148438 C 16.996094 21.148438 16.554688 21.046875 16.171875 20.863281 C 15.789062 20.679688 15.476562 20.410156 15.234375 20.066406 C 14.976562 19.726562 14.792969 19.3125 14.664062 18.816406 C 14.535156 18.335938 14.46875 17.792969 14.46875 17.195312 C 14.46875 16.640625 14.535156 16.132812 14.695312 15.675781 C 14.847656 15.222656 15.0625 14.835938 15.332031 14.507812 C 15.601562 14.195312 15.917969 13.953125 16.285156 13.769531 C 16.65625 13.601562 17.066406 13.515625 17.507812 13.515625 C 17.917969 13.515625 18.332031 13.570312 18.730469 13.671875 C 19.113281 13.785156 19.484375 13.941406 19.808594 14.128906 L 19.851562 12.691406 C 19.582031 12.5625 19.242188 12.449219 18.84375 12.363281 C 18.433594 12.292969 17.976562 12.25 17.480469 12.25 C 16.753906 12.25 16.113281 12.378906 15.546875 12.621094 C 14.964844 12.859375 14.480469 13.214844 14.082031 13.65625 C 13.683594 14.097656 13.386719 14.636719 13.171875 15.261719 C 12.960938 15.890625 12.847656 16.570312 12.847656 17.324219 C 12.847656 18.019531 12.945312 18.6875 13.128906 19.300781 C 13.316406 19.925781 13.613281 20.464844 13.996094 20.921875 C 14.382812 21.390625 14.878906 21.746094 15.460938 22.015625 C 16.042969 22.285156 16.738281 22.410156 17.523438 22.410156 C 18.078125 22.410156 18.574219 22.355469 19.015625 22.242188 C 19.453125 22.144531 19.824219 22.027344 20.09375 21.902344 L 20.09375 16.785156 L 17.050781 16.785156 L 17.050781 18.019531 L 18.644531 18.019531 L 18.644531 20.921875 "/>
<path style=" stroke:none;fill-rule:nonzero;fill:rgb(100%,100%,100%);fill-opacity:1;" d="M 23.460938 19.074219 L 27.625 19.074219 L 27.625 18.574219 C 27.625 17.933594 27.554688 17.394531 27.425781 16.925781 C 27.296875 16.457031 27.113281 16.074219 26.871094 15.773438 C 26.628906 15.476562 26.332031 15.261719 26.003906 15.121094 C 25.664062 14.980469 25.292969 14.90625 24.894531 14.90625 C 24.441406 14.90625 24.027344 14.992188 23.671875 15.179688 C 23.300781 15.363281 22.988281 15.632812 22.75 15.960938 C 22.507812 16.300781 22.308594 16.699219 22.179688 17.167969 C 22.050781 17.636719 21.980469 18.148438 21.980469 18.703125 C 21.980469 19.226562 22.050781 19.726562 22.179688 20.183594 C 22.308594 20.636719 22.492188 21.019531 22.761719 21.347656 C 23.019531 21.671875 23.34375 21.929688 23.742188 22.113281 C 24.140625 22.3125 24.609375 22.398438 25.136719 22.398438 C 25.59375 22.398438 26.003906 22.355469 26.359375 22.257812 C 26.714844 22.15625 27 22.058594 27.242188 21.960938 L 27.167969 20.722656 C 26.984375 20.851562 26.742188 20.976562 26.460938 21.105469 C 26.160156 21.234375 25.804688 21.304688 25.378906 21.304688 C 24.695312 21.304688 24.210938 21.117188 23.914062 20.734375 C 23.617188 20.367188 23.460938 19.8125 23.460938 19.074219 "/>
<path style=" stroke:none;fill-rule:nonzero;fill:rgb(100%,100%,100%);fill-opacity:1;" d="M 29.789062 22.296875 L 31.269531 22.296875 L 31.269531 17.980469 C 31.269531 17.410156 31.382812 16.953125 31.621094 16.628906 C 31.851562 16.300781 32.191406 16.144531 32.660156 16.144531 C 33.042969 16.144531 33.316406 16.273438 33.5 16.527344 C 33.671875 16.785156 33.753906 17.195312 33.753906 17.765625 L 33.753906 22.296875 L 35.234375 22.296875 L 35.234375 17.425781 C 35.234375 16.65625 35.0625 16.046875 34.722656 15.589844 C 34.378906 15.136719 33.839844 14.90625 33.101562 14.90625 C 32.675781 14.90625 32.304688 15.007812 31.976562 15.222656 C 31.652344 15.433594 31.394531 15.730469 31.210938 16.117188 L 31.183594 16.117188 C 31.183594 16.074219 31.183594 15.988281 31.183594 15.890625 C 31.167969 15.789062 31.167969 15.675781 31.15625 15.5625 C 31.140625 15.449219 31.140625 15.335938 31.140625 15.234375 C 31.125 15.136719 31.125 15.050781 31.125 15.007812 L 29.734375 15.007812 C 29.746094 15.222656 29.761719 15.449219 29.777344 15.675781 C 29.789062 15.917969 29.789062 16.15625 29.789062 16.398438 L 29.789062 22.296875 "/>
<path style=" stroke:none;fill-rule:nonzero;fill:rgb(100%,100%,100%);fill-opacity:1;" d="M 39.863281 14.113281 L 40.875 14.113281 L 39.949219 12.050781 L 38.414062 12.050781 L 39.863281 14.113281 "/>
<path style=" stroke:none;fill-rule:nonzero;fill:rgb(100%,100%,100%);fill-opacity:1;" d="M 38.769531 19.074219 L 42.933594 19.074219 L 42.933594 18.574219 C 42.933594 17.933594 42.863281 17.394531 42.734375 16.925781 C 42.605469 16.457031 42.421875 16.074219 42.179688 15.773438 C 41.9375 15.476562 41.640625 15.261719 41.3125 15.121094 C 40.972656 14.980469 40.601562 14.90625 40.207031 14.90625 C 39.75 14.90625 39.339844 14.992188 38.980469 15.179688 C 38.613281 15.363281 38.300781 15.632812 38.058594 15.960938 C 37.816406 16.300781 37.617188 16.699219 37.492188 17.167969 C 37.363281 17.636719 37.292969 18.148438 37.292969 18.703125 C 37.292969 19.226562 37.363281 19.726562 37.492188 20.183594 C 37.617188 20.636719 37.804688 21.019531 38.074219 21.347656 C 38.328125 21.671875 38.65625 21.929688 39.054688 22.113281 C 39.453125 22.3125 39.921875 22.398438 40.449219 22.398438 C 40.902344 22.398438 41.3125 22.355469 41.667969 22.257812 C 42.023438 22.15625 42.308594 22.058594 42.550781 21.960938 L 42.480469 20.722656 C 42.292969 20.851562 42.050781 20.976562 41.769531 21.105469 C 41.46875 21.234375 41.113281 21.304688 40.6875 21.304688 C 40.007812 21.304688 39.523438 21.117188 39.222656 20.734375 C 38.925781 20.367188 38.769531 19.8125 38.769531 19.074219 "/>
<path style=" stroke:none;fill-rule:nonzero;fill:rgb(100%,100%,100%);fill-opacity:1;" d="M 46.453125 22.296875 L 48.203125 22.296875 L 50.40625 15.007812 L 48.929688 15.007812 L 47.363281 20.863281 L 47.335938 20.863281 L 45.800781 15.007812 L 44.238281 15.007812 L 46.453125 22.296875 "/>
<path style=" stroke:none;fill-rule:nonzero;fill:rgb(100%,100%,100%);fill-opacity:1;" d="M 52.988281 19.074219 L 57.152344 19.074219 L 57.152344 18.574219 C 57.152344 17.933594 57.082031 17.394531 56.957031 16.925781 C 56.828125 16.457031 56.644531 16.074219 56.402344 15.773438 C 56.160156 15.476562 55.859375 15.261719 55.535156 15.121094 C 55.191406 14.980469 54.824219 14.90625 54.425781 14.90625 C 53.96875 14.90625 53.558594 14.992188 53.203125 15.179688 C 52.832031 15.363281 52.519531 15.632812 52.28125 15.960938 C 52.039062 16.300781 51.839844 16.699219 51.710938 17.167969 C 51.582031 17.636719 51.511719 18.148438 51.511719 18.703125 C 51.511719 19.226562 51.582031 19.726562 51.710938 20.183594 C 51.839844 20.636719 52.023438 21.019531 52.292969 21.347656 C 52.546875 21.671875 52.875 21.929688 53.273438 22.113281 C 53.671875 22.3125 54.140625 22.398438 54.667969 22.398438 C 55.121094 22.398438 55.535156 22.355469 55.890625 22.257812 C 56.242188 22.15625 56.527344 22.058594 56.769531 21.960938 L 56.699219 20.722656 C 56.515625 20.851562 56.273438 20.976562 55.988281 21.105469 C 55.691406 21.234375 55.335938 21.304688 54.910156 21.304688 C 54.226562 21.304688 53.742188 21.117188 53.445312 20.734375 C 53.148438 20.367188 52.988281 19.8125 52.988281 19.074219 "/>
<path style=" stroke:none;fill-rule:nonzero;fill:rgb(0%,49.674988%,27.331543%);fill-opacity:1;" d="M 23.460938 18.0625 C 23.472656 17.394531 23.601562 16.871094 23.84375 16.5 C 24.085938 16.144531 24.425781 15.960938 24.851562 15.960938 C 25.734375 15.960938 26.171875 16.65625 26.171875 18.0625 L 23.460938 18.0625 "/>
<path style=" stroke:none;fill-rule:nonzero;fill:rgb(0%,49.674988%,27.331543%);fill-opacity:1;" d="M 38.769531 18.0625 C 38.785156 17.394531 38.910156 16.871094 39.152344 16.5 C 39.394531 16.144531 39.734375 15.960938 40.160156 15.960938 C 41.042969 15.960938 41.484375 16.65625 41.484375 18.0625 L 38.769531 18.0625 "/>
<path style=" stroke:none;fill-rule:nonzero;fill:rgb(0%,49.674988%,27.331543%);fill-opacity:1;" d="M 52.988281 18.0625 C 53.003906 17.394531 53.132812 16.871094 53.375 16.5 C 53.613281 16.144531 53.957031 15.960938 54.382812 15.960938 C 55.261719 15.960938 55.703125 16.65625 55.703125 18.0625 L 52.988281 18.0625 "/>
</g>
</svg>
