<?xml version="1.0" encoding="UTF-8"?>
<svg xmlns="http://www.w3.org/2000/svg" xmlns:xlink="http://www.w3.org/1999/xlink" width="145pt" height="36pt" viewBox="0 0 145 36" version="1.1">
<g id="surface1">
<path style=" stroke:none;fill-rule:nonzero;fill:rgb(13.729858%,12.159729%,12.548828%);fill-opacity:1;" d="M 0.234375 35.890625 L 113.621094 35.890625 L 144.800781 18.183594 L 113.621094 0.457031 L 0.234375 0.457031 L 0.234375 35.890625 "/>
<path style=" stroke:none;fill-rule:nonzero;fill:rgb(100%,100%,100%);fill-opacity:1;" d="M 2.359375 33.761719 L 113.058594 33.761719 L 129.210938 18.179688 L 113.058594 2.582031 L 2.359375 2.582031 L 2.359375 33.761719 "/>
<path style=" stroke:none;fill-rule:nonzero;fill:rgb(10.112%,40.585327%,73.280334%);fill-opacity:1;" d="M 6.613281 5.414062 L 32.132812 5.414062 L 32.132812 30.929688 L 6.613281 30.929688 L 6.613281 5.414062 "/>
<path style=" stroke:none;fill-rule:nonzero;fill:rgb(100%,100%,100%);fill-opacity:1;" d="M 17.230469 27.75 L 14.019531 27.75 L 14.019531 9.652344 L 23.066406 9.652344 C 23.8125 9.652344 24.621094 9.945312 25.109375 10.59375 C 25.761719 11.441406 25.726562 12.25 25.726562 12.25 L 25.726562 18.3125 C 25.726562 18.734375 25.597656 19.640625 24.945312 20.289062 C 24.363281 20.875 23.746094 21.101562 23.066406 21.101562 L 17.230469 21.101562 L 17.230469 27.75 "/>
<path style=" stroke:none;fill-rule:nonzero;fill:rgb(10.112%,40.585327%,73.280334%);fill-opacity:1;" d="M 17.203125 18.324219 L 17.203125 12.519531 L 21.808594 12.519531 C 22.003906 12.519531 22.226562 12.519531 22.359375 12.648438 C 22.488281 12.777344 22.519531 12.90625 22.519531 13.199219 L 22.519531 17.644531 C 22.519531 17.867188 22.457031 18.0625 22.324219 18.160156 C 22.195312 18.289062 22.066406 18.324219 21.839844 18.324219 L 17.203125 18.324219 "/>
<path style=" stroke:none;fill-rule:nonzero;fill:rgb(13.729858%,12.159729%,12.548828%);fill-opacity:1;" d="M 45.613281 24.089844 C 46.066406 24.242188 46.574219 24.390625 47.152344 24.496094 C 47.726562 24.617188 48.324219 24.683594 48.960938 24.683594 C 49.710938 24.683594 50.390625 24.578125 51.011719 24.390625 C 51.628906 24.175781 52.140625 23.878906 52.585938 23.515625 C 53.035156 23.132812 53.375 22.660156 53.609375 22.128906 C 53.847656 21.59375 53.972656 20.996094 53.972656 20.316406 C 53.972656 19.761719 53.886719 19.273438 53.738281 18.84375 C 53.570312 18.417969 53.355469 18.078125 53.078125 17.78125 C 52.800781 17.480469 52.480469 17.246094 52.121094 17.078125 C 51.757812 16.90625 51.375 16.777344 50.96875 16.714844 L 50.96875 16.671875 C 51.289062 16.605469 51.609375 16.5 51.945312 16.351562 C 52.265625 16.203125 52.585938 15.988281 52.863281 15.714844 C 53.140625 15.433594 53.355469 15.09375 53.527344 14.664062 C 53.695312 14.261719 53.78125 13.773438 53.78125 13.175781 C 53.78125 12.578125 53.675781 12.023438 53.460938 11.554688 C 53.226562 11.082031 52.929688 10.703125 52.542969 10.382812 C 52.164062 10.058594 51.710938 9.828125 51.179688 9.675781 C 50.648438 9.527344 50.09375 9.441406 49.472656 9.441406 C 48.75 9.441406 48.109375 9.507812 47.554688 9.613281 C 46.976562 9.738281 46.488281 9.890625 46.066406 10.058594 L 46.210938 12.085938 C 46.660156 11.851562 47.152344 11.660156 47.640625 11.511719 C 48.128906 11.359375 48.601562 11.300781 49.003906 11.300781 C 49.710938 11.300781 50.304688 11.488281 50.796875 11.871094 C 51.289062 12.257812 51.523438 12.8125 51.523438 13.515625 C 51.523438 13.964844 51.433594 14.328125 51.265625 14.621094 C 51.097656 14.941406 50.859375 15.175781 50.558594 15.394531 C 50.242188 15.582031 49.878906 15.730469 49.453125 15.816406 C 49.027344 15.925781 48.558594 15.96875 48.070312 15.96875 L 47.449219 15.96875 L 47.449219 17.757812 C 47.578125 17.757812 47.75 17.757812 47.960938 17.734375 C 48.152344 17.734375 48.40625 17.734375 48.707031 17.734375 C 49.601562 17.734375 50.304688 17.949219 50.820312 18.355469 C 51.332031 18.757812 51.585938 19.355469 51.585938 20.105469 C 51.585938 20.574219 51.5 20.976562 51.351562 21.316406 C 51.203125 21.660156 50.988281 21.9375 50.734375 22.148438 C 50.457031 22.382812 50.15625 22.554688 49.816406 22.660156 C 49.453125 22.769531 49.09375 22.832031 48.683594 22.832031 C 48.109375 22.832031 47.578125 22.746094 47.085938 22.578125 C 46.597656 22.425781 46.152344 22.234375 45.765625 22.042969 L 45.613281 24.089844 "/>
<path style=" stroke:none;fill-rule:nonzero;fill:rgb(13.729858%,12.159729%,12.548828%);fill-opacity:1;" d="M 57.289062 22.511719 C 57.648438 23.195312 58.121094 23.726562 58.695312 24.109375 C 59.273438 24.496094 59.953125 24.683594 60.785156 24.683594 C 61.617188 24.683594 62.320312 24.496094 62.894531 24.089844 C 63.46875 23.703125 63.941406 23.171875 64.300781 22.492188 C 64.664062 21.808594 64.921875 20.996094 65.070312 20.082031 C 65.21875 19.164062 65.304688 18.164062 65.304688 17.078125 C 65.304688 15.988281 65.21875 14.984375 65.070312 14.050781 C 64.921875 13.132812 64.664062 12.320312 64.300781 11.636719 C 63.941406 10.957031 63.46875 10.425781 62.894531 10.019531 C 62.320312 9.636719 61.617188 9.441406 60.785156 9.441406 C 59.953125 9.441406 59.25 9.636719 58.675781 10.019531 C 58.097656 10.425781 57.648438 10.957031 57.289062 11.636719 C 56.925781 12.320312 56.667969 13.132812 56.523438 14.050781 C 56.371094 14.984375 56.285156 15.988281 56.285156 17.078125 C 56.285156 18.164062 56.371094 19.164062 56.523438 20.082031 C 56.667969 21.019531 56.925781 21.828125 57.289062 22.511719 "/>
<path style=" stroke:none;fill-rule:nonzero;fill:rgb(13.729858%,12.159729%,12.548828%);fill-opacity:1;" d="M 68.425781 22.511719 C 68.789062 23.195312 69.257812 23.726562 69.835938 24.109375 C 70.410156 24.496094 71.089844 24.683594 71.921875 24.683594 C 72.753906 24.683594 73.460938 24.496094 74.03125 24.089844 C 74.605469 23.703125 75.078125 23.171875 75.4375 22.492188 C 75.800781 21.808594 76.054688 20.996094 76.203125 20.082031 C 76.355469 19.164062 76.441406 18.164062 76.441406 17.078125 C 76.441406 15.988281 76.355469 14.984375 76.203125 14.050781 C 76.054688 13.132812 75.800781 12.320312 75.4375 11.636719 C 75.078125 10.957031 74.605469 10.425781 74.03125 10.019531 C 73.460938 9.636719 72.753906 9.441406 71.921875 9.441406 C 71.089844 9.441406 70.390625 9.636719 69.8125 10.019531 C 69.238281 10.425781 68.789062 10.957031 68.425781 11.636719 C 68.0625 12.320312 67.808594 13.132812 67.660156 14.050781 C 67.507812 14.984375 67.421875 15.988281 67.421875 17.078125 C 67.421875 18.164062 67.507812 19.164062 67.660156 20.082031 C 67.808594 21.019531 68.0625 21.828125 68.425781 22.511719 "/>
<path style=" stroke:none;fill-rule:nonzero;fill:rgb(13.729858%,12.159729%,12.548828%);fill-opacity:1;" d="M 88.917969 24.515625 L 91.136719 24.515625 L 91.136719 17.824219 C 91.136719 17.011719 91.304688 16.394531 91.625 15.945312 C 91.945312 15.496094 92.433594 15.285156 93.054688 15.285156 C 94.078125 15.285156 94.59375 15.96875 94.59375 17.3125 L 94.59375 24.515625 L 96.804688 24.515625 L 96.804688 17.824219 C 96.804688 17.011719 96.976562 16.394531 97.300781 15.945312 C 97.617188 15.496094 98.109375 15.285156 98.722656 15.285156 C 99.75 15.285156 100.261719 15.96875 100.261719 17.3125 L 100.261719 24.515625 L 102.480469 24.515625 L 102.480469 17.355469 C 102.480469 16.074219 102.226562 15.09375 101.714844 14.429688 C 101.179688 13.773438 100.390625 13.429688 99.324219 13.429688 C 98.621094 13.429688 98.042969 13.597656 97.597656 13.941406 C 97.148438 14.304688 96.804688 14.707031 96.53125 15.15625 C 96.425781 14.941406 96.292969 14.730469 96.148438 14.519531 C 95.996094 14.328125 95.804688 14.132812 95.59375 13.964844 C 95.382812 13.8125 95.125 13.6875 94.847656 13.578125 C 94.570312 13.472656 94.226562 13.429688 93.863281 13.429688 C 93.183594 13.429688 92.628906 13.597656 92.179688 13.941406 C 91.734375 14.304688 91.371094 14.730469 91.136719 15.261719 L 91.09375 15.261719 C 91.09375 15.199219 91.09375 15.070312 91.09375 14.898438 C 91.070312 14.75 91.070312 14.582031 91.070312 14.410156 C 91.050781 14.238281 91.050781 14.070312 91.050781 13.917969 C 91.027344 13.773438 91.027344 13.644531 91.027344 13.578125 L 88.832031 13.578125 C 88.851562 13.878906 88.875 14.199219 88.898438 14.539062 C 88.917969 14.882812 88.917969 15.242188 88.917969 15.648438 L 88.917969 24.515625 "/>
<path style=" stroke:none;fill-rule:nonzero;fill:rgb(100%,100%,100%);fill-opacity:1;" d="M 59.035156 21.382812 C 58.71875 20.382812 58.546875 18.929688 58.546875 17.078125 C 58.546875 15.21875 58.71875 13.773438 59.035156 12.746094 C 59.355469 11.722656 59.953125 11.214844 60.785156 11.214844 C 61.636719 11.214844 62.234375 11.722656 62.554688 12.722656 C 62.871094 13.75 63.046875 15.199219 63.046875 17.078125 C 63.046875 18.929688 62.871094 20.382812 62.554688 21.382812 C 62.214844 22.40625 61.617188 22.917969 60.785156 22.917969 C 59.953125 22.917969 59.355469 22.40625 59.035156 21.382812 "/>
<path style=" stroke:none;fill-rule:nonzero;fill:rgb(100%,100%,100%);fill-opacity:1;" d="M 70.171875 21.382812 C 69.855469 20.382812 69.683594 18.929688 69.683594 17.078125 C 69.683594 15.21875 69.855469 13.773438 70.171875 12.746094 C 70.492188 11.722656 71.089844 11.214844 71.921875 11.214844 C 72.777344 11.214844 73.375 11.722656 73.695312 12.722656 C 74.011719 13.75 74.179688 15.199219 74.179688 17.078125 C 74.179688 18.929688 74.011719 20.382812 73.695312 21.382812 C 73.351562 22.40625 72.753906 22.917969 71.921875 22.917969 C 71.089844 22.917969 70.492188 22.40625 70.171875 21.382812 "/>
</g>
</svg>
