<?xml version="1.0" encoding="UTF-8"?>
<svg xmlns="http://www.w3.org/2000/svg" xmlns:xlink="http://www.w3.org/1999/xlink" width="185pt" height="37pt" viewBox="0 0 185 37" version="1.1">
<g id="surface1">
<path style="fill-rule:nonzero;fill:rgb(100%,100%,100%);fill-opacity:1;stroke-width:2.835;stroke-linecap:butt;stroke-linejoin:round;stroke:rgb(13.729858%,12.159729%,12.548828%);stroke-opacity:1;stroke-miterlimit:4;" d="M 3.945312 11.09375 L 3.945312 365.429688 L 1534.648438 365.429688 L 1846.445312 188.164062 L 1534.648438 11.09375 L 3.945312 11.09375 " transform="matrix(0.1,0,0,-0.1,0,37)"/>
<path style=" stroke:none;fill-rule:nonzero;fill:rgb(68.630981%,12.666321%,10.813904%);fill-opacity:1;" d="M 2.515625 33.761719 L 2.515625 2.582031 L 152.898438 2.582031 L 169.054688 18.179688 L 152.898438 33.761719 L 2.515625 33.761719 "/>
<path style=" stroke:none;fill-rule:nonzero;fill:rgb(100%,100%,100%);fill-opacity:1;" d="M 17.335938 16.917969 C 16.84375 16.785156 16.316406 16.683594 15.78125 16.683594 C 12.519531 16.683594 9.867188 19.335938 9.867188 22.59375 C 9.867188 25.855469 12.519531 28.507812 15.78125 28.507812 C 18.664062 28.507812 21.074219 26.433594 21.589844 23.699219 L 22.875 23.691406 C 23.191406 23.691406 23.578125 23.691406 23.886719 23.5625 C 24.210938 23.457031 24.492188 23.222656 24.730469 22.984375 L 31.996094 15.710938 L 32.40625 17.007812 C 30.160156 17.855469 28.515625 19.984375 28.515625 22.527344 C 28.515625 25.789062 31.164062 28.445312 34.429688 28.445312 C 37.699219 28.445312 40.347656 25.789062 40.347656 22.527344 C 40.347656 19.261719 37.699219 16.609375 34.429688 16.609375 C 34.105469 16.609375 33.816406 16.648438 33.503906 16.703125 L 31.722656 10.453125 C 31.597656 10.03125 31.433594 9.523438 31.136719 9.230469 C 30.796875 8.875 30.226562 8.652344 29.554688 8.652344 L 27.378906 8.652344 L 27.378906 9.804688 L 29.125 9.804688 C 29.46875 9.804688 29.898438 9.804688 30.132812 9.996094 C 30.367188 10.199219 30.441406 10.464844 30.53125 10.777344 L 30.921875 12.042969 L 20.476562 12.042969 L 20.105469 10.972656 L 21.757812 10.570312 L 21.757812 9.804688 L 18.046875 9.804688 L 18.046875 10.972656 L 18.945312 10.972656 L 19.332031 12.042969 L 17.335938 16.917969 "/>
<path style=" stroke:none;fill-rule:nonzero;fill:rgb(100%,100%,100%);fill-opacity:1;" d="M 67.851562 26.679688 L 70.921875 26.679688 L 72.429688 21.707031 L 79.621094 21.707031 L 81.128906 26.679688 L 84.3125 26.679688 L 77.859375 6.839844 L 74.503906 6.839844 L 67.851562 26.679688 "/>
<path style=" stroke:none;fill-rule:nonzero;fill:rgb(100%,100%,100%);fill-opacity:1;" d="M 90.167969 26.679688 L 95.570312 26.679688 C 96.5625 26.679688 97.445312 26.539062 98.210938 26.253906 C 98.980469 25.996094 99.605469 25.597656 100.144531 25.117188 C 100.6875 24.632812 101.085938 24.035156 101.371094 23.355469 C 101.625 22.699219 101.765625 21.960938 101.765625 21.167969 C 101.765625 20.394531 101.652344 19.746094 101.453125 19.148438 C 101.226562 18.578125 100.941406 18.09375 100.601562 17.695312 C 100.230469 17.328125 99.832031 17.015625 99.40625 16.785156 C 98.953125 16.558594 98.496094 16.417969 98.042969 16.332031 L 98.042969 16.273438 C 98.46875 16.132812 98.867188 15.960938 99.265625 15.707031 C 99.632812 15.476562 99.976562 15.195312 100.289062 14.828125 C 100.601562 14.457031 100.828125 14.03125 101.027344 13.515625 C 101.226562 13.035156 101.3125 12.4375 101.3125 11.785156 C 101.3125 10.191406 100.859375 8.96875 99.949219 8.117188 C 99.007812 7.261719 97.5625 6.839844 95.570312 6.839844 L 90.167969 6.839844 L 90.167969 26.679688 "/>
<path style=" stroke:none;fill-rule:nonzero;fill:rgb(100%,100%,100%);fill-opacity:1;" d="M 120.976562 26.253906 L 120.863281 23.355469 C 120.378906 23.664062 119.867188 23.894531 119.269531 24.066406 C 118.675781 24.234375 117.992188 24.320312 117.222656 24.320312 C 115.378906 24.320312 113.925781 23.664062 112.847656 22.328125 C 111.765625 20.992188 111.226562 19.058594 111.226562 16.476562 C 111.226562 15.222656 111.394531 14.144531 111.710938 13.207031 C 112.023438 12.296875 112.476562 11.53125 113.015625 10.929688 C 113.554688 10.335938 114.183594 9.910156 114.890625 9.597656 C 115.605469 9.3125 116.371094 9.167969 117.136719 9.167969 C 117.960938 9.167969 118.675781 9.28125 119.269531 9.480469 C 119.867188 9.707031 120.40625 9.964844 120.863281 10.21875 L 120.976562 7.347656 C 120.550781 7.152344 119.980469 6.980469 119.269531 6.808594 C 118.53125 6.664062 117.734375 6.582031 116.882812 6.582031 C 115.488281 6.582031 114.269531 6.839844 113.160156 7.320312 C 112.050781 7.804688 111.140625 8.515625 110.371094 9.394531 C 109.605469 10.304688 109.007812 11.386719 108.609375 12.609375 C 108.183594 13.859375 107.984375 15.222656 107.984375 16.730469 C 107.984375 18.125 108.183594 19.460938 108.550781 20.679688 C 108.921875 21.90625 109.464844 22.984375 110.199219 23.921875 C 110.941406 24.859375 111.878906 25.574219 113.015625 26.113281 C 114.152344 26.652344 115.488281 26.90625 117.027344 26.90625 C 117.765625 26.90625 118.472656 26.847656 119.1875 26.730469 C 119.894531 26.59375 120.492188 26.453125 120.976562 26.253906 "/>
<path style=" stroke:none;fill-rule:nonzero;fill:rgb(68.630981%,12.666321%,10.813904%);fill-opacity:1;" d="M 16.875 18.09375 C 16.523438 18.007812 16.160156 17.960938 15.78125 17.960938 C 13.21875 17.960938 11.144531 20.035156 11.144531 22.59375 C 11.144531 25.15625 13.21875 27.230469 15.78125 27.230469 C 17.953125 27.230469 19.78125 25.726562 20.285156 23.703125 L 16.550781 23.699219 C 16.101562 23.699219 15.40625 23.730469 15.125 23.28125 C 14.894531 22.910156 15.183594 22.324219 15.28125 22.058594 L 16.875 18.09375 "/>
<path style=" stroke:none;fill-rule:nonzero;fill:rgb(68.630981%,12.666321%,10.813904%);fill-opacity:1;" d="M 20.839844 13.148438 L 23.8125 22.246094 L 31.578125 14.402344 L 31.21875 13.148438 L 20.839844 13.148438 "/>
<path style=" stroke:none;fill-rule:nonzero;fill:rgb(68.630981%,12.666321%,10.813904%);fill-opacity:1;" d="M 18.429688 17.292969 C 20.339844 18.257812 21.65625 20.230469 21.691406 22.507812 L 22.699219 22.507812 L 19.867188 13.910156 L 18.429688 17.292969 "/>
<path style=" stroke:none;fill-rule:nonzero;fill:rgb(68.630981%,12.666321%,10.813904%);fill-opacity:1;" d="M 32.714844 18.226562 C 31.007812 18.910156 29.792969 20.578125 29.792969 22.527344 C 29.792969 25.082031 31.871094 27.160156 34.429688 27.160156 C 36.992188 27.160156 39.066406 25.082031 39.066406 22.527344 C 39.066406 19.972656 36.992188 17.894531 34.429688 17.894531 C 34.238281 17.894531 34.042969 17.90625 33.855469 17.929688 L 35.109375 22.367188 C 35.167969 22.589844 35.214844 23.007812 34.738281 23.144531 C 34.261719 23.28125 34.027344 22.945312 33.957031 22.703125 L 32.714844 18.226562 "/>
<path style=" stroke:none;fill-rule:nonzero;fill:rgb(68.630981%,12.666321%,10.813904%);fill-opacity:1;" d="M 17.960938 18.519531 L 16.382812 22.527344 L 20.386719 22.527344 C 20.386719 20.761719 19.414062 19.308594 17.960938 18.519531 "/>
<path style=" stroke:none;fill-rule:nonzero;fill:rgb(68.630981%,12.666321%,10.813904%);fill-opacity:1;" d="M 73.167969 19.234375 L 76.097656 9.648438 L 76.152344 9.648438 L 78.910156 19.234375 L 73.167969 19.234375 "/>
<path style=" stroke:none;fill-rule:nonzero;fill:rgb(68.630981%,12.666321%,10.813904%);fill-opacity:1;" d="M 93.183594 15.28125 L 93.183594 9.195312 L 95.03125 9.195312 C 96.140625 9.195312 96.964844 9.453125 97.503906 9.992188 C 98.042969 10.53125 98.296875 11.246094 98.296875 12.097656 C 98.296875 13.035156 98.015625 13.800781 97.445312 14.398438 C 96.847656 14.996094 95.996094 15.28125 94.855469 15.28125 L 93.183594 15.28125 "/>
<path style=" stroke:none;fill-rule:nonzero;fill:rgb(68.630981%,12.666321%,10.813904%);fill-opacity:1;" d="M 93.183594 24.261719 L 93.183594 17.640625 L 95.34375 17.640625 C 95.941406 17.640625 96.421875 17.726562 96.847656 17.894531 C 97.277344 18.066406 97.613281 18.292969 97.898438 18.605469 C 98.15625 18.917969 98.355469 19.257812 98.496094 19.65625 C 98.640625 20.058594 98.695312 20.480469 98.695312 20.964844 C 98.695312 21.90625 98.414062 22.699219 97.84375 23.328125 C 97.277344 23.949219 96.421875 24.261719 95.257812 24.261719 L 93.183594 24.261719 "/>
</g>
</svg>
