<?xml version="1.0" encoding="UTF-8"?>
<svg xmlns="http://www.w3.org/2000/svg" xmlns:xlink="http://www.w3.org/1999/xlink" width="29pt" height="30pt" viewBox="0 0 29 30" version="1.1">
<g id="surface1">
<path style=" stroke:none;fill-rule:nonzero;fill:rgb(13.729858%,12.159729%,12.548828%);fill-opacity:1;" d="M 0.128906 29.453125 L 0.128906 0.890625 L 28.90625 0.890625 L 28.90625 29.453125 L 0.128906 29.453125 M 0.207031 0.964844 L 0.207031 29.382812 L 28.839844 29.382812 L 28.839844 0.964844 L 0.207031 0.964844 "/>
<path style=" stroke:none;fill-rule:nonzero;fill:rgb(69.587708%,69.177246%,68.347168%);fill-opacity:1;" d="M 1.570312 2.320312 L 27.472656 2.320312 L 27.472656 28.027344 L 1.570312 28.027344 L 1.570312 2.320312 M 17.824219 18.667969 C 17.308594 18.828125 16.886719 19.199219 16.65625 19.675781 L 18.09375 20.132812 L 17.824219 18.667969 M 13.460938 12.675781 L 16.03125 11.273438 C 16.445312 12 17.402344 13.738281 17.402344 13.738281 C 17.402344 13.738281 15.988281 14.089844 15.285156 14.234375 L 15.222656 14.796875 L 13.890625 14.300781 L 14.535156 13.574219 L 13.460938 12.675781 M 15.921875 19.445312 C 16.242188 18.707031 16.890625 18.132812 17.683594 17.917969 L 17.539062 17.132812 C 16.699219 18.015625 15.898438 18.957031 15.460938 19 C 15.019531 19.046875 14.839844 18.710938 14.839844 18.449219 C 14.839844 18.132812 14.949219 17.40625 14.949219 17.207031 C 14.949219 17.207031 15.066406 16.113281 15.15625 15.410156 L 13.441406 14.773438 L 14.570312 19.019531 L 15.921875 19.445312 M 16.910156 9.050781 C 16.691406 8.554688 16.757812 7.667969 15.917969 7.484375 C 15.699219 7.441406 15.167969 7.503906 14.9375 8 C 14.914062 8.054688 14.730469 8.488281 14.730469 8.488281 L 16.910156 9.050781 M 16.355469 9.28125 L 16.355469 9.160156 L 14.683594 8.703125 C 14.640625 8.902344 14.574219 9.082031 14.574219 9.261719 C 14.566406 9.699219 14.757812 10.207031 15.285156 10.207031 C 15.667969 10.207031 16.355469 9.824219 16.355469 9.28125 M 20.414062 11.351562 C 20.414062 10.984375 18.550781 9.207031 18.132812 9.371094 C 17.984375 9.425781 17.867188 9.425781 17.777344 9.550781 C 17.675781 9.714844 18.09375 9.898438 18.277344 10.121094 C 18.679688 10.640625 18.933594 11.074219 19.164062 11.535156 C 19.21875 11.636719 19.425781 12.34375 19.730469 12.34375 C 20.101562 12.34375 20.414062 11.492188 20.414062 11.351562 M 18.429688 18.582031 L 18.78125 20.53125 C 18.820312 20.785156 18.660156 20.914062 18.367188 20.847656 C 17.925781 20.707031 17.210938 20.480469 16.484375 20.261719 C 16.472656 20.335938 16.46875 20.414062 16.46875 20.496094 C 16.46875 21.554688 17.339844 22.417969 18.398438 22.417969 C 19.464844 22.417969 20.332031 21.554688 20.332031 20.496094 C 20.332031 19.457031 19.480469 18.597656 18.429688 18.582031 M 12.359375 15.988281 L 12.96875 15.3125 C 13.222656 16.308594 14.117188 19.523438 14.117188 19.523438 C 14.117188 19.523438 14.855469 19.753906 15.746094 20.027344 C 15.71875 20.183594 15.707031 20.339844 15.707031 20.503906 C 15.707031 21.980469 16.910156 23.175781 18.398438 23.175781 C 19.886719 23.175781 21.097656 21.980469 21.097656 20.503906 C 21.097656 19.027344 19.886719 17.820312 18.398438 17.820312 C 18.363281 17.820312 18.328125 17.820312 18.292969 17.824219 L 18.070312 16.589844 C 18.835938 15.800781 19.859375 14.878906 19.804688 14.304688 C 19.695312 13.234375 18.351562 9.839844 17.183594 9.675781 C 17.019531 9.675781 17.011719 9.660156 16.964844 9.660156 C 16.335938 9.660156 13.988281 11.371094 12.558594 12.292969 C 12.101562 12.167969 11.636719 12.757812 11.992188 13.195312 C 12.195312 13.445312 12.484375 13.453125 12.695312 13.34375 C 12.859375 13.273438 12.96875 13.121094 12.996094 12.957031 C 13.253906 13.179688 13.699219 13.609375 13.699219 13.609375 C 13.113281 14.261719 12.621094 14.8125 12.203125 15.277344 C 12.144531 15.339844 12.054688 15.441406 11.941406 15.5625 C 11.472656 15.1875 10.878906 14.957031 10.230469 14.957031 C 8.746094 14.957031 7.539062 16.152344 7.539062 17.632812 C 7.539062 19.105469 8.746094 20.304688 10.230469 20.304688 C 11.71875 20.304688 12.929688 19.105469 12.929688 17.632812 C 12.929688 17.011719 12.714844 16.441406 12.359375 15.988281 M 16.199219 15.152344 L 17.65625 14.960938 L 17.269531 15.558594 L 16.199219 15.152344 M 15.804688 17.75 L 16.082031 15.75 L 16.917969 16.078125 L 15.804688 17.75 M 11.835938 16.566406 C 12.042969 16.867188 12.164062 17.238281 12.164062 17.632812 C 12.164062 18.691406 11.296875 19.554688 10.230469 19.554688 C 9.171875 19.554688 8.304688 18.691406 8.304688 17.632812 C 8.304688 16.574219 9.171875 15.71875 10.230469 15.71875 C 10.679688 15.71875 11.097656 15.871094 11.425781 16.128906 C 11.105469 16.484375 10.730469 16.898438 10.394531 17.273438 C 10.113281 17.351562 9.898438 17.433594 9.957031 17.722656 C 9.984375 17.871094 10.183594 17.960938 10.320312 17.90625 C 10.367188 17.894531 10.421875 17.878906 10.730469 17.785156 L 11.835938 16.566406 "/>
<path style=" stroke:none;fill-rule:nonzero;fill:rgb(19.784546%,18.254089%,18.563843%);fill-opacity:1;" d="M 1.574219 24.03125 L 23.453125 2.3125 L 24.316406 2.3125 L 1.574219 24.886719 L 1.574219 24.03125 "/>
<path style=" stroke:none;fill-rule:nonzero;fill:rgb(19.784546%,18.254089%,18.563843%);fill-opacity:1;" d="M 1.574219 26.570312 L 26.007812 2.3125 L 26.855469 2.3125 L 1.574219 27.433594 L 1.574219 26.570312 "/>
<path style=" stroke:none;fill-rule:nonzero;fill:rgb(19.784546%,18.254089%,18.563843%);fill-opacity:1;" d="M 2.644531 28.03125 L 27.46875 3.375 L 27.46875 4.234375 L 3.5 28.03125 L 2.644531 28.03125 "/>
<path style=" stroke:none;fill-rule:nonzero;fill:rgb(19.784546%,18.254089%,18.563843%);fill-opacity:1;" d="M 5.273438 28.03125 L 27.46875 5.984375 L 27.46875 6.84375 L 6.128906 28.03125 L 5.273438 28.03125 "/>
</g>
</svg>
