<?xml version="1.0" encoding="UTF-8"?>
<svg xmlns="http://www.w3.org/2000/svg" xmlns:xlink="http://www.w3.org/1999/xlink" width="129pt" height="62pt" viewBox="0 0 129 62" version="1.1">
<g id="surface1">
<path style=" stroke:none;fill-rule:nonzero;fill:rgb(10.112%,40.585327%,73.280334%);fill-opacity:1;" d="M 0.738281 61.789062 L 128.296875 61.789062 L 128.296875 0.558594 L 0.738281 0.558594 Z M 0.738281 61.789062 "/>
<path style=" stroke:none;fill-rule:nonzero;fill:rgb(100%,100%,100%);fill-opacity:1;" d="M 121.878906 60.429688 C 124.699219 60.429688 126.980469 58.148438 126.980469 55.332031 L 126.980469 7.011719 C 126.980469 4.195312 124.699219 1.914062 121.878906 1.914062 L 7.25 1.914062 C 4.429688 1.914062 2.152344 4.195312 2.152344 7.011719 L 2.152344 55.332031 C 2.152344 58.148438 4.429688 60.429688 7.25 60.429688 L 121.878906 60.429688 "/>
<path style=" stroke:none;fill-rule:nonzero;fill:rgb(10.112%,40.585327%,73.280334%);fill-opacity:1;" d="M 121.84375 59.0625 C 123.898438 59.0625 125.578125 57.386719 125.578125 55.3125 L 125.578125 7.011719 C 125.578125 4.9375 123.898438 3.28125 121.828125 3.28125 L 7.195312 3.28125 C 5.140625 3.28125 3.460938 4.9375 3.460938 7.011719 L 3.460938 55.3125 C 3.460938 57.386719 5.140625 59.0625 7.210938 59.0625 L 121.84375 59.0625 "/>
<path style=" stroke:none;fill-rule:nonzero;fill:rgb(100%,100%,100%);fill-opacity:1;" d="M 30.132812 27.171875 L 32.261719 27.171875 L 32.261719 16.671875 L 30.132812 16.671875 L 30.132812 27.171875 "/>
<path style=" stroke:none;fill-rule:nonzero;fill:rgb(100%,100%,100%);fill-opacity:1;" d="M 30.070312 14.566406 L 32.320312 14.566406 L 32.320312 12.292969 L 30.070312 12.292969 L 30.070312 14.566406 "/>
<path style=" stroke:none;fill-rule:nonzero;fill:rgb(100%,100%,100%);fill-opacity:1;" d="M 37.367188 22.527344 L 43.363281 22.527344 L 43.363281 21.8125 C 43.363281 20.890625 43.261719 20.113281 43.078125 19.4375 C 42.894531 18.761719 42.625 18.210938 42.277344 17.777344 C 41.929688 17.347656 41.5 17.042969 41.03125 16.839844 C 40.539062 16.632812 40.007812 16.53125 39.433594 16.53125 C 38.777344 16.53125 38.183594 16.652344 37.671875 16.917969 C 37.140625 17.183594 36.691406 17.574219 36.34375 18.042969 C 35.996094 18.535156 35.707031 19.109375 35.523438 19.785156 C 35.339844 20.460938 35.238281 21.195312 35.238281 21.996094 C 35.238281 22.753906 35.339844 23.46875 35.523438 24.125 C 35.707031 24.777344 35.976562 25.332031 36.363281 25.800781 C 36.730469 26.273438 37.203125 26.640625 37.777344 26.90625 C 38.347656 27.195312 39.023438 27.316406 39.78125 27.316406 C 40.4375 27.316406 41.03125 27.253906 41.542969 27.113281 C 42.050781 26.96875 42.460938 26.824219 42.808594 26.683594 L 42.707031 24.902344 C 42.441406 25.085938 42.09375 25.269531 41.683594 25.453125 C 41.253906 25.640625 40.742188 25.742188 40.128906 25.742188 C 39.148438 25.742188 38.453125 25.472656 38.023438 24.921875 C 37.589844 24.390625 37.367188 23.59375 37.367188 22.527344 "/>
<path style=" stroke:none;fill-rule:nonzero;fill:rgb(100%,100%,100%);fill-opacity:1;" d="M 52.800781 27.171875 L 54.828125 27.171875 C 54.804688 26.90625 54.785156 26.621094 54.765625 26.316406 C 54.746094 26.007812 54.746094 25.660156 54.746094 25.3125 L 54.746094 11.824219 L 52.617188 11.824219 L 52.617188 18.148438 L 52.574219 18.148438 C 52.308594 17.675781 51.960938 17.289062 51.53125 16.980469 C 51.101562 16.671875 50.550781 16.53125 49.875 16.53125 C 48.769531 16.53125 47.890625 16.980469 47.234375 17.902344 C 46.578125 18.824219 46.25 20.152344 46.25 21.933594 C 46.25 22.753906 46.332031 23.488281 46.496094 24.144531 C 46.640625 24.820312 46.886719 25.371094 47.191406 25.84375 C 47.5 26.316406 47.890625 26.683594 48.339844 26.925781 C 48.789062 27.195312 49.320312 27.316406 49.914062 27.316406 C 50.304688 27.316406 50.652344 27.277344 50.957031 27.152344 C 51.246094 27.050781 51.511719 26.925781 51.738281 26.765625 C 51.960938 26.601562 52.144531 26.417969 52.289062 26.210938 C 52.433594 26.007812 52.574219 25.800781 52.675781 25.578125 L 52.738281 25.578125 C 52.738281 25.679688 52.738281 25.800781 52.761719 25.964844 C 52.761719 26.128906 52.761719 26.292969 52.78125 26.457031 C 52.78125 26.621094 52.78125 26.765625 52.800781 26.90625 C 52.800781 27.050781 52.800781 27.132812 52.800781 27.171875 "/>
<path style=" stroke:none;fill-rule:nonzero;fill:rgb(100%,100%,100%);fill-opacity:1;" d="M 59.917969 22.527344 L 65.914062 22.527344 L 65.914062 21.8125 C 65.914062 20.890625 65.8125 20.113281 65.628906 19.4375 C 65.445312 18.761719 65.175781 18.210938 64.828125 17.777344 C 64.480469 17.347656 64.050781 17.042969 63.582031 16.839844 C 63.089844 16.632812 62.558594 16.53125 61.984375 16.53125 C 61.332031 16.53125 60.738281 16.652344 60.226562 16.917969 C 59.695312 17.183594 59.242188 17.574219 58.894531 18.042969 C 58.546875 18.535156 58.261719 19.109375 58.078125 19.785156 C 57.890625 20.460938 57.789062 21.195312 57.789062 21.996094 C 57.789062 22.753906 57.890625 23.46875 58.078125 24.125 C 58.261719 24.777344 58.527344 25.332031 58.914062 25.800781 C 59.285156 26.273438 59.753906 26.640625 60.328125 26.90625 C 60.902344 27.195312 61.574219 27.316406 62.335938 27.316406 C 62.988281 27.316406 63.582031 27.253906 64.09375 27.113281 C 64.605469 26.96875 65.015625 26.824219 65.363281 26.683594 L 65.257812 24.902344 C 64.992188 25.085938 64.644531 25.269531 64.238281 25.453125 C 63.804688 25.640625 63.296875 25.742188 62.679688 25.742188 C 61.699219 25.742188 61.003906 25.472656 60.574219 24.921875 C 60.144531 24.390625 59.917969 23.59375 59.917969 22.527344 "/>
<path style=" stroke:none;fill-rule:nonzero;fill:rgb(100%,100%,100%);fill-opacity:1;" d="M 69.03125 27.171875 L 71.160156 27.171875 L 71.160156 21.523438 C 71.160156 20.992188 71.21875 20.542969 71.34375 20.152344 C 71.46875 19.765625 71.628906 19.457031 71.835938 19.210938 C 72.039062 18.984375 72.285156 18.800781 72.550781 18.679688 C 72.816406 18.578125 73.082031 18.515625 73.390625 18.515625 C 73.515625 18.515625 73.636719 18.515625 73.738281 18.535156 C 73.839844 18.554688 73.964844 18.578125 74.066406 18.597656 L 74.066406 16.550781 C 74.027344 16.550781 73.984375 16.550781 73.964844 16.53125 C 73.945312 16.53125 73.902344 16.53125 73.859375 16.53125 C 73.472656 16.53125 73.125 16.570312 72.816406 16.671875 C 72.511719 16.777344 72.265625 16.917969 72.039062 17.101562 C 71.816406 17.289062 71.609375 17.492188 71.445312 17.71875 C 71.28125 17.941406 71.140625 18.1875 71.035156 18.453125 L 70.996094 18.453125 C 70.996094 18.371094 70.996094 18.25 70.996094 18.085938 C 70.976562 17.921875 70.976562 17.738281 70.953125 17.554688 C 70.933594 17.367188 70.933594 17.207031 70.933594 17.042969 C 70.914062 16.878906 70.914062 16.753906 70.914062 16.671875 L 68.949219 16.671875 C 68.96875 16.980469 68.988281 17.308594 69.011719 17.636719 C 69.03125 17.984375 69.03125 18.332031 69.03125 18.679688 L 69.03125 27.171875 "/>
<path style=" stroke:none;fill-rule:nonzero;fill:rgb(100%,100%,100%);fill-opacity:1;" d="M 76.046875 27.171875 L 78.050781 27.171875 C 78.050781 27.132812 78.050781 27.050781 78.074219 26.90625 C 78.09375 26.765625 78.09375 26.621094 78.113281 26.4375 C 78.113281 26.273438 78.113281 26.109375 78.132812 25.945312 C 78.132812 25.78125 78.132812 25.660156 78.132812 25.578125 L 78.175781 25.578125 C 78.277344 25.800781 78.421875 26.007812 78.585938 26.210938 C 78.726562 26.417969 78.910156 26.601562 79.136719 26.765625 C 79.363281 26.925781 79.605469 27.050781 79.914062 27.152344 C 80.222656 27.277344 80.570312 27.316406 80.957031 27.316406 C 81.550781 27.316406 82.085938 27.195312 82.535156 26.925781 C 82.984375 26.683594 83.375 26.316406 83.679688 25.84375 C 83.988281 25.371094 84.210938 24.820312 84.375 24.144531 C 84.519531 23.488281 84.601562 22.753906 84.601562 21.933594 C 84.601562 20.152344 84.273438 18.824219 83.617188 17.902344 C 82.964844 16.980469 82.085938 16.53125 80.980469 16.53125 C 80.304688 16.53125 79.75 16.671875 79.339844 16.980469 C 78.910156 17.289062 78.5625 17.675781 78.296875 18.148438 L 78.257812 18.148438 L 78.257812 11.824219 L 76.128906 11.824219 L 76.128906 25.3125 C 76.128906 25.660156 76.128906 26.007812 76.105469 26.316406 C 76.085938 26.621094 76.066406 26.90625 76.046875 27.171875 "/>
<path style=" stroke:none;fill-rule:nonzero;fill:rgb(100%,100%,100%);fill-opacity:1;" d="M 86.496094 27.171875 L 88.625 27.171875 L 88.625 16.671875 L 86.496094 16.671875 L 86.496094 27.171875 "/>
<path style=" stroke:none;fill-rule:nonzero;fill:rgb(100%,100%,100%);fill-opacity:1;" d="M 86.433594 14.566406 L 88.683594 14.566406 L 88.683594 12.292969 L 86.433594 12.292969 L 86.433594 14.566406 "/>
<path style=" stroke:none;fill-rule:nonzero;fill:rgb(100%,100%,100%);fill-opacity:1;" d="M 94.324219 25.699219 L 94.363281 25.699219 C 94.628906 26.171875 94.976562 26.558594 95.40625 26.867188 C 95.816406 27.171875 96.367188 27.316406 97.042969 27.316406 C 98.148438 27.316406 99.03125 26.867188 99.683594 25.945312 C 100.339844 25.023438 100.667969 23.695312 100.667969 21.914062 C 100.667969 21.09375 100.585938 20.355469 100.441406 19.683594 C 100.277344 19.027344 100.054688 18.453125 99.746094 17.984375 C 99.441406 17.511719 99.050781 17.164062 98.601562 16.898438 C 98.128906 16.652344 97.617188 16.53125 97.023438 16.53125 C 96.636719 16.53125 96.285156 16.570312 95.980469 16.671875 C 95.671875 16.777344 95.429688 16.917969 95.203125 17.082031 C 94.976562 17.246094 94.792969 17.429688 94.648438 17.636719 C 94.484375 17.839844 94.34375 18.042969 94.242188 18.269531 L 94.199219 18.269531 C 94.199219 18.167969 94.199219 18.042969 94.199219 17.882812 C 94.179688 17.71875 94.179688 17.554688 94.179688 17.390625 C 94.160156 17.226562 94.160156 17.082031 94.140625 16.941406 C 94.117188 16.796875 94.117188 16.714844 94.117188 16.671875 L 92.113281 16.671875 C 92.132812 16.941406 92.152344 17.226562 92.171875 17.53125 C 92.195312 17.839844 92.195312 18.1875 92.195312 18.535156 L 92.195312 31.59375 L 94.324219 31.59375 L 94.324219 25.699219 "/>
<path style=" stroke:none;fill-rule:nonzero;fill:rgb(100%,100%,100%);fill-opacity:1;" d="M 105.9375 25.699219 L 105.980469 25.699219 C 106.246094 26.171875 106.59375 26.558594 107.023438 26.867188 C 107.433594 27.171875 107.984375 27.316406 108.660156 27.316406 C 109.765625 27.316406 110.644531 26.867188 111.300781 25.945312 C 111.953125 25.023438 112.28125 23.695312 112.28125 21.914062 C 112.28125 21.09375 112.199219 20.355469 112.058594 19.683594 C 111.894531 19.027344 111.667969 18.453125 111.359375 17.984375 C 111.054688 17.511719 110.664062 17.164062 110.214844 16.898438 C 109.742188 16.652344 109.230469 16.53125 108.640625 16.53125 C 108.25 16.53125 107.902344 16.570312 107.59375 16.671875 C 107.289062 16.777344 107.042969 16.917969 106.816406 17.082031 C 106.59375 17.246094 106.40625 17.429688 106.265625 17.636719 C 106.101562 17.839844 105.957031 18.042969 105.855469 18.269531 L 105.8125 18.269531 C 105.8125 18.167969 105.8125 18.042969 105.8125 17.882812 C 105.792969 17.71875 105.792969 17.554688 105.792969 17.390625 C 105.773438 17.226562 105.773438 17.082031 105.753906 16.941406 C 105.730469 16.796875 105.730469 16.714844 105.730469 16.671875 L 103.726562 16.671875 C 103.746094 16.941406 103.769531 17.226562 103.789062 17.53125 C 103.808594 17.839844 103.808594 18.1875 103.808594 18.535156 L 103.808594 31.59375 L 105.9375 31.59375 L 105.9375 25.699219 "/>
<path style=" stroke:none;fill-rule:nonzero;fill:rgb(100%,100%,100%);fill-opacity:1;" d="M 39.84375 49.453125 L 41.652344 49.453125 L 41.652344 37.546875 L 40.066406 37.546875 L 37.40625 39.96875 L 38.292969 41.25 L 39.84375 39.660156 L 39.84375 49.453125 "/>
<path style=" stroke:none;fill-rule:nonzero;fill:rgb(100%,100%,100%);fill-opacity:1;" d="M 44.984375 47.847656 C 45.277344 48.394531 45.652344 48.820312 46.109375 49.128906 C 46.570312 49.4375 47.117188 49.589844 47.78125 49.589844 C 48.449219 49.589844 49.011719 49.4375 49.472656 49.113281 C 49.929688 48.804688 50.304688 48.378906 50.597656 47.832031 C 50.886719 47.285156 51.09375 46.636719 51.210938 45.90625 C 51.332031 45.171875 51.398438 44.371094 51.398438 43.5 C 51.398438 42.628906 51.332031 41.828125 51.210938 41.078125 C 51.09375 40.34375 50.886719 39.695312 50.597656 39.152344 C 50.304688 38.605469 49.929688 38.179688 49.472656 37.855469 C 49.011719 37.546875 48.449219 37.394531 47.78125 37.394531 C 47.117188 37.394531 46.554688 37.546875 46.09375 37.855469 C 45.632812 38.179688 45.277344 38.605469 44.984375 39.152344 C 44.695312 39.695312 44.492188 40.34375 44.371094 41.078125 C 44.253906 41.828125 44.183594 42.628906 44.183594 43.5 C 44.183594 44.371094 44.253906 45.171875 44.371094 45.90625 C 44.492188 46.65625 44.695312 47.304688 44.984375 47.847656 "/>
<path style=" stroke:none;fill-rule:nonzero;fill:rgb(100%,100%,100%);fill-opacity:1;" d="M 54.230469 47.847656 C 54.519531 48.394531 54.894531 48.820312 55.355469 49.128906 C 55.816406 49.4375 56.363281 49.589844 57.027344 49.589844 C 57.691406 49.589844 58.253906 49.4375 58.714844 49.113281 C 59.175781 48.804688 59.550781 48.378906 59.839844 47.832031 C 60.132812 47.285156 60.335938 46.636719 60.457031 45.90625 C 60.574219 45.171875 60.644531 44.371094 60.644531 43.5 C 60.644531 42.628906 60.574219 41.828125 60.457031 41.078125 C 60.335938 40.34375 60.132812 39.695312 59.839844 39.152344 C 59.550781 38.605469 59.175781 38.179688 58.714844 37.855469 C 58.253906 37.546875 57.691406 37.394531 57.027344 37.394531 C 56.363281 37.394531 55.796875 37.546875 55.339844 37.855469 C 54.878906 38.179688 54.519531 38.605469 54.230469 39.152344 C 53.941406 39.695312 53.734375 40.34375 53.617188 41.078125 C 53.496094 41.828125 53.429688 42.628906 53.429688 43.5 C 53.429688 44.371094 53.496094 45.171875 53.617188 45.90625 C 53.734375 46.65625 53.941406 47.304688 54.230469 47.847656 "/>
<path style=" stroke:none;fill-rule:nonzero;fill:rgb(100%,100%,100%);fill-opacity:1;" d="M 63.472656 47.847656 C 63.765625 48.394531 64.140625 48.820312 64.597656 49.128906 C 65.058594 49.4375 65.605469 49.589844 66.269531 49.589844 C 66.933594 49.589844 67.496094 49.4375 67.957031 49.113281 C 68.417969 48.804688 68.792969 48.378906 69.085938 47.832031 C 69.375 47.285156 69.578125 46.636719 69.699219 45.90625 C 69.816406 45.171875 69.886719 44.371094 69.886719 43.5 C 69.886719 42.628906 69.816406 41.828125 69.699219 41.078125 C 69.578125 40.34375 69.375 39.695312 69.085938 39.152344 C 68.792969 38.605469 68.417969 38.179688 67.957031 37.855469 C 67.496094 37.546875 66.933594 37.394531 66.269531 37.394531 C 65.605469 37.394531 65.042969 37.546875 64.582031 37.855469 C 64.121094 38.179688 63.765625 38.605469 63.472656 39.152344 C 63.183594 39.695312 62.980469 40.34375 62.859375 41.078125 C 62.738281 41.828125 62.671875 42.628906 62.671875 43.5 C 62.671875 44.371094 62.738281 45.171875 62.859375 45.90625 C 62.980469 46.65625 63.183594 47.304688 63.472656 47.847656 "/>
<path style=" stroke:none;fill-rule:nonzero;fill:rgb(100%,100%,100%);fill-opacity:1;" d="M 80.785156 49.453125 L 82.5625 49.453125 L 82.5625 44.097656 C 82.5625 43.449219 82.699219 42.953125 82.953125 42.597656 C 83.210938 42.238281 83.601562 42.066406 84.097656 42.066406 C 84.914062 42.066406 85.324219 42.613281 85.324219 43.6875 L 85.324219 49.453125 L 87.097656 49.453125 L 87.097656 44.097656 C 87.097656 43.449219 87.234375 42.953125 87.492188 42.597656 C 87.746094 42.238281 88.140625 42.066406 88.632812 42.066406 C 89.453125 42.066406 89.859375 42.613281 89.859375 43.6875 L 89.859375 49.453125 L 91.636719 49.453125 L 91.636719 43.722656 C 91.636719 42.699219 91.429688 41.914062 91.019531 41.386719 C 90.59375 40.855469 89.964844 40.582031 89.109375 40.582031 C 88.546875 40.582031 88.089844 40.71875 87.730469 40.992188 C 87.371094 41.28125 87.097656 41.605469 86.875 41.964844 C 86.789062 41.792969 86.6875 41.625 86.570312 41.453125 C 86.449219 41.300781 86.296875 41.148438 86.125 41.011719 C 85.957031 40.890625 85.75 40.789062 85.527344 40.703125 C 85.308594 40.617188 85.035156 40.582031 84.742188 40.582031 C 84.199219 40.582031 83.753906 40.71875 83.398438 40.992188 C 83.039062 41.28125 82.75 41.625 82.5625 42.050781 L 82.527344 42.050781 C 82.527344 42 82.527344 41.898438 82.527344 41.761719 C 82.511719 41.640625 82.511719 41.503906 82.511719 41.367188 C 82.492188 41.230469 82.492188 41.09375 82.492188 40.976562 C 82.476562 40.855469 82.476562 40.753906 82.476562 40.703125 L 80.71875 40.703125 C 80.734375 40.941406 80.753906 41.199219 80.769531 41.46875 C 80.785156 41.742188 80.785156 42.03125 80.785156 42.355469 L 80.785156 49.453125 "/>
<path style=" stroke:none;fill-rule:nonzero;fill:rgb(100%,100%,100%);fill-opacity:1;" d="M 16.757812 27.171875 L 18.804688 27.171875 L 18.804688 15.753906 L 18.84375 15.753906 L 23.898438 27.171875 L 26.582031 27.171875 L 26.582031 12.886719 L 24.535156 12.886719 L 24.535156 24.390625 L 24.492188 24.390625 L 19.4375 12.886719 L 16.757812 12.886719 L 16.757812 27.171875 "/>
<path style=" stroke:none;fill-rule:nonzero;fill:rgb(10.112%,40.585327%,73.280334%);fill-opacity:1;" d="M 37.367188 21.074219 C 37.386719 20.113281 37.570312 19.355469 37.917969 18.824219 C 38.265625 18.3125 38.757812 18.042969 39.371094 18.042969 C 40.640625 18.042969 41.277344 19.046875 41.277344 21.074219 L 37.367188 21.074219 "/>
<path style=" stroke:none;fill-rule:nonzero;fill:rgb(10.112%,40.585327%,73.280334%);fill-opacity:1;" d="M 48.851562 24.738281 C 48.542969 24.101562 48.378906 23.140625 48.378906 21.871094 C 48.378906 20.664062 48.542969 19.742188 48.871094 19.109375 C 49.199219 18.476562 49.730469 18.148438 50.488281 18.148438 C 51.246094 18.148438 51.777344 18.476562 52.125 19.148438 C 52.453125 19.824219 52.617188 20.746094 52.617188 21.914062 C 52.617188 23.082031 52.453125 24 52.125 24.675781 C 51.777344 25.351562 51.222656 25.699219 50.46875 25.699219 C 49.691406 25.699219 49.15625 25.371094 48.851562 24.738281 "/>
<path style=" stroke:none;fill-rule:nonzero;fill:rgb(10.112%,40.585327%,73.280334%);fill-opacity:1;" d="M 59.917969 21.074219 C 59.9375 20.113281 60.121094 19.355469 60.46875 18.824219 C 60.820312 18.3125 61.308594 18.042969 61.925781 18.042969 C 63.195312 18.042969 63.828125 19.046875 63.828125 21.074219 L 59.917969 21.074219 "/>
<path style=" stroke:none;fill-rule:nonzero;fill:rgb(10.112%,40.585327%,73.280334%);fill-opacity:1;" d="M 78.769531 24.65625 C 78.421875 23.980469 78.257812 23.058594 78.257812 21.914062 C 78.257812 20.746094 78.421875 19.824219 78.769531 19.148438 C 79.117188 18.476562 79.648438 18.148438 80.386719 18.148438 C 81.140625 18.148438 81.675781 18.476562 82 19.109375 C 82.308594 19.765625 82.472656 20.683594 82.472656 21.871094 C 82.472656 23.160156 82.328125 24.101562 82.023438 24.738281 C 81.714844 25.371094 81.164062 25.699219 80.40625 25.699219 C 79.648438 25.699219 79.097656 25.351562 78.769531 24.65625 "/>
<path style=" stroke:none;fill-rule:nonzero;fill:rgb(10.112%,40.585327%,73.280334%);fill-opacity:1;" d="M 94.835938 24.695312 C 94.484375 24.019531 94.324219 23.101562 94.324219 21.933594 C 94.324219 20.769531 94.484375 19.847656 94.835938 19.171875 C 95.160156 18.496094 95.714844 18.148438 96.472656 18.148438 C 97.25 18.148438 97.78125 18.476562 98.089844 19.109375 C 98.394531 19.742188 98.539062 20.707031 98.539062 21.972656 C 98.539062 23.183594 98.375 24.101562 98.066406 24.738281 C 97.738281 25.371094 97.207031 25.699219 96.453125 25.699219 C 95.695312 25.699219 95.160156 25.371094 94.835938 24.695312 "/>
<path style=" stroke:none;fill-rule:nonzero;fill:rgb(10.112%,40.585327%,73.280334%);fill-opacity:1;" d="M 106.449219 24.695312 C 106.101562 24.019531 105.9375 23.101562 105.9375 21.933594 C 105.9375 20.769531 106.101562 19.847656 106.449219 19.171875 C 106.777344 18.496094 107.328125 18.148438 108.085938 18.148438 C 108.863281 18.148438 109.394531 18.476562 109.703125 19.109375 C 110.011719 19.742188 110.152344 20.707031 110.152344 21.972656 C 110.152344 23.183594 109.988281 24.101562 109.683594 24.738281 C 109.355469 25.371094 108.824219 25.699219 108.066406 25.699219 C 107.308594 25.699219 106.777344 25.371094 106.449219 24.695312 "/>
<path style=" stroke:none;fill-rule:nonzero;fill:rgb(10.112%,40.585327%,73.280334%);fill-opacity:1;" d="M 46.382812 46.945312 C 46.128906 46.144531 45.992188 44.984375 45.992188 43.5 C 45.992188 42.015625 46.128906 40.855469 46.382812 40.039062 C 46.640625 39.21875 47.117188 38.808594 47.78125 38.808594 C 48.464844 38.808594 48.941406 39.21875 49.199219 40.019531 C 49.453125 40.839844 49.589844 42 49.589844 43.5 C 49.589844 44.984375 49.453125 46.144531 49.199219 46.945312 C 48.925781 47.765625 48.449219 48.171875 47.78125 48.171875 C 47.117188 48.171875 46.640625 47.765625 46.382812 46.945312 "/>
<path style=" stroke:none;fill-rule:nonzero;fill:rgb(10.112%,40.585327%,73.280334%);fill-opacity:1;" d="M 55.628906 46.945312 C 55.371094 46.144531 55.234375 44.984375 55.234375 43.5 C 55.234375 42.015625 55.371094 40.855469 55.628906 40.039062 C 55.882812 39.21875 56.363281 38.808594 57.027344 38.808594 C 57.707031 38.808594 58.1875 39.21875 58.441406 40.019531 C 58.699219 40.839844 58.835938 42 58.835938 43.5 C 58.835938 44.984375 58.699219 46.144531 58.441406 46.945312 C 58.167969 47.765625 57.691406 48.171875 57.027344 48.171875 C 56.363281 48.171875 55.882812 47.765625 55.628906 46.945312 "/>
<path style=" stroke:none;fill-rule:nonzero;fill:rgb(10.112%,40.585327%,73.280334%);fill-opacity:1;" d="M 64.871094 46.945312 C 64.613281 46.144531 64.480469 44.984375 64.480469 43.5 C 64.480469 42.015625 64.613281 40.855469 64.871094 40.039062 C 65.128906 39.21875 65.605469 38.808594 66.269531 38.808594 C 66.953125 38.808594 67.429688 39.21875 67.683594 40.019531 C 67.941406 40.839844 68.078125 42 68.078125 43.5 C 68.078125 44.984375 67.941406 46.144531 67.683594 46.945312 C 67.410156 47.765625 66.933594 48.171875 66.269531 48.171875 C 65.605469 48.171875 65.128906 47.765625 64.871094 46.945312 "/>
</g>
</svg>
