<?xml version="1.0" encoding="UTF-8"?>
<svg xmlns="http://www.w3.org/2000/svg" xmlns:xlink="http://www.w3.org/1999/xlink" width="115pt" height="114pt" viewBox="0 0 115 114" version="1.1">
<g id="surface1">
<path style=" stroke:none;fill-rule:nonzero;fill:rgb(10.112%,40.585327%,73.280334%);fill-opacity:1;" d="M 0.820312 113.871094 L 114.214844 113.871094 L 114.214844 0.476562 L 0.820312 0.476562 Z M 0.820312 113.871094 "/>
<path style=" stroke:none;fill-rule:nonzero;fill:rgb(100%,100%,100%);fill-opacity:1;" d="M 3.078125 105.945312 C 3.078125 109.074219 5.617188 111.613281 8.746094 111.613281 L 106.265625 111.613281 C 109.394531 111.613281 111.933594 109.074219 111.933594 105.945312 L 111.933594 8.425781 C 111.933594 5.296875 109.394531 2.757812 106.265625 2.757812 L 8.746094 2.757812 C 5.613281 2.757812 3.078125 5.296875 3.078125 8.425781 L 3.078125 105.945312 "/>
<path style=" stroke:none;fill-rule:nonzero;fill:rgb(10.112%,40.585327%,73.280334%);fill-opacity:1;" d="M 4.757812 105.917969 C 4.757812 108.109375 6.535156 109.886719 8.726562 109.886719 L 106.246094 109.886719 C 108.4375 109.886719 110.21875 108.109375 110.21875 105.917969 L 110.21875 8.394531 C 110.21875 6.203125 108.4375 4.425781 106.246094 4.425781 L 8.726562 4.425781 C 6.539062 4.425781 4.757812 6.203125 4.757812 8.394531 L 4.757812 105.917969 "/>
<path style=" stroke:none;fill-rule:nonzero;fill:rgb(100%,100%,100%);fill-opacity:1;" d="M 61.785156 22.5 L 74.015625 31.398438 L 14.96875 59.394531 L 26.113281 78.703125 L 79.882812 41.566406 L 81.472656 56.605469 C 81.597656 57.78125 82.597656 58.703125 83.808594 58.703125 C 84.722656 58.703125 85.523438 58.175781 85.90625 57.410156 L 102.785156 23.828125 C 102.949219 23.511719 103.035156 23.15625 103.035156 22.773438 C 103.035156 21.523438 102.0625 20.507812 100.832031 20.429688 L 63.304688 18.261719 C 63.257812 18.257812 63.214844 18.253906 63.167969 18.253906 C 61.871094 18.253906 60.820312 19.304688 60.820312 20.605469 C 60.820312 21.378906 61.199219 22.070312 61.785156 22.5 "/>
<path style=" stroke:none;fill-rule:nonzero;fill:rgb(100%,100%,100%);fill-opacity:1;" d="M 30.082031 100.613281 C 30.441406 100.816406 30.878906 100.953125 31.394531 101.070312 C 31.914062 101.171875 32.488281 101.210938 33.125 101.210938 C 34.457031 101.210938 35.535156 100.851562 36.308594 100.136719 C 37.085938 99.421875 37.464844 98.425781 37.464844 97.152344 C 37.464844 96.554688 37.386719 96.039062 37.203125 95.621094 C 37.027344 95.203125 36.765625 94.824219 36.46875 94.507812 C 36.171875 94.1875 35.8125 93.890625 35.394531 93.632812 C 34.976562 93.371094 34.539062 93.113281 34.082031 92.855469 C 33.742188 92.65625 33.445312 92.476562 33.207031 92.296875 C 32.945312 92.117188 32.746094 91.960938 32.609375 91.78125 C 32.449219 91.621094 32.332031 91.441406 32.269531 91.242188 C 32.210938 91.0625 32.171875 90.84375 32.171875 90.605469 C 32.171875 90.070312 32.351562 89.609375 32.707031 89.273438 C 33.066406 88.933594 33.566406 88.753906 34.222656 88.753906 C 34.71875 88.753906 35.195312 88.816406 35.613281 88.933594 C 36.03125 89.074219 36.390625 89.214844 36.707031 89.371094 L 36.765625 87.460938 C 36.507812 87.363281 36.128906 87.242188 35.671875 87.144531 C 35.195312 87.042969 34.660156 86.984375 34.0625 86.984375 C 33.503906 86.984375 32.988281 87.066406 32.488281 87.203125 C 31.992188 87.363281 31.554688 87.601562 31.175781 87.898438 C 30.796875 88.21875 30.5 88.597656 30.28125 89.054688 C 30.0625 89.511719 29.941406 90.03125 29.941406 90.625 C 29.941406 91.242188 30.023438 91.738281 30.199219 92.15625 C 30.378906 92.578125 30.617188 92.953125 30.917969 93.253906 C 31.214844 93.570312 31.554688 93.847656 31.972656 94.089844 C 32.367188 94.347656 32.808594 94.605469 33.265625 94.886719 C 33.644531 95.101562 33.960938 95.324219 34.222656 95.5 C 34.480469 95.699219 34.675781 95.898438 34.835938 96.078125 C 34.976562 96.257812 35.097656 96.457031 35.15625 96.65625 C 35.214844 96.875 35.234375 97.09375 35.234375 97.351562 C 35.234375 97.988281 35.015625 98.484375 34.597656 98.863281 C 34.179688 99.242188 33.625 99.441406 32.945312 99.441406 C 32.390625 99.441406 31.871094 99.34375 31.375 99.144531 C 30.878906 98.964844 30.480469 98.765625 30.160156 98.566406 L 30.082031 100.613281 "/>
<path style=" stroke:none;fill-rule:nonzero;fill:rgb(100%,100%,100%);fill-opacity:1;" d="M 40.90625 99.421875 C 41.382812 100.019531 41.941406 100.457031 42.597656 100.753906 C 43.230469 101.070312 43.929688 101.210938 44.664062 101.210938 C 45.441406 101.210938 46.160156 101.070312 46.816406 100.773438 C 47.472656 100.476562 48.03125 100.039062 48.507812 99.441406 C 48.984375 98.863281 49.363281 98.105469 49.640625 97.210938 C 49.898438 96.316406 50.039062 95.242188 50.039062 94.027344 C 50.039062 92.855469 49.898438 91.839844 49.640625 90.964844 C 49.363281 90.089844 48.984375 89.351562 48.507812 88.753906 C 48.03125 88.179688 47.472656 87.71875 46.835938 87.421875 C 46.179688 87.121094 45.480469 86.984375 44.746094 86.984375 C 43.96875 86.984375 43.273438 87.121094 42.617188 87.421875 C 41.960938 87.71875 41.382812 88.15625 40.90625 88.734375 C 40.425781 89.332031 40.046875 90.089844 39.789062 90.984375 C 39.511719 91.878906 39.371094 92.953125 39.371094 94.167969 C 39.371094 95.34375 39.511719 96.355469 39.789062 97.230469 C 40.046875 98.105469 40.425781 98.84375 40.90625 99.421875 "/>
<path style=" stroke:none;fill-rule:nonzero;fill:rgb(100%,100%,100%);fill-opacity:1;" d="M 52.773438 101.050781 L 54.921875 101.050781 L 54.921875 94.921875 L 55.601562 94.921875 C 56.179688 94.921875 56.617188 95.023438 56.933594 95.242188 C 57.230469 95.460938 57.492188 95.859375 57.667969 96.433594 L 59.160156 101.050781 L 61.449219 101.050781 L 59.578125 95.621094 C 59.398438 95.101562 59.179688 94.746094 58.941406 94.527344 C 58.683594 94.328125 58.386719 94.1875 58.046875 94.128906 L 58.046875 94.089844 C 58.960938 93.90625 59.640625 93.53125 60.097656 92.933594 C 60.554688 92.339844 60.773438 91.621094 60.773438 90.785156 C 60.773438 90.148438 60.671875 89.609375 60.472656 89.152344 C 60.277344 88.695312 59.996094 88.316406 59.640625 88.019531 C 59.28125 87.71875 58.863281 87.503906 58.363281 87.363281 C 57.867188 87.222656 57.3125 87.164062 56.714844 87.164062 L 52.773438 87.164062 L 52.773438 101.050781 "/>
<path style=" stroke:none;fill-rule:nonzero;fill:rgb(100%,100%,100%);fill-opacity:1;" d="M 65.261719 101.050781 L 67.410156 101.050781 L 67.410156 88.933594 L 70.535156 88.933594 L 70.535156 87.164062 L 62.117188 87.164062 L 62.117188 88.933594 L 65.261719 88.933594 L 65.261719 101.050781 "/>
<path style=" stroke:none;fill-rule:nonzero;fill:rgb(100%,100%,100%);fill-opacity:1;" d="M 72.355469 101.050781 L 74.503906 101.050781 L 74.503906 87.164062 L 72.355469 87.164062 L 72.355469 101.050781 "/>
<path style=" stroke:none;fill-rule:nonzero;fill:rgb(100%,100%,100%);fill-opacity:1;" d="M 77.980469 101.050781 L 85.089844 101.050781 L 85.089844 99.28125 L 80.132812 99.28125 L 80.132812 94.765625 L 84.628906 94.765625 L 84.628906 92.992188 L 80.132812 92.992188 L 80.132812 88.933594 L 84.867188 88.933594 L 84.867188 87.164062 L 77.980469 87.164062 L 77.980469 101.050781 "/>
<path style=" stroke:none;fill-rule:nonzero;fill:rgb(10.112%,40.585327%,73.280334%);fill-opacity:1;" d="M 42.398438 98.085938 C 41.859375 97.132812 41.601562 95.820312 41.601562 94.167969 C 41.601562 93.152344 41.679688 92.296875 41.859375 91.601562 C 42.019531 90.90625 42.238281 90.328125 42.535156 89.890625 C 42.816406 89.472656 43.152344 89.152344 43.53125 88.957031 C 43.910156 88.777344 44.328125 88.675781 44.746094 88.675781 C 45.742188 88.675781 46.496094 89.152344 47.035156 90.109375 C 47.550781 91.0625 47.808594 92.375 47.808594 94.027344 C 47.808594 95.042969 47.730469 95.898438 47.570312 96.59375 C 47.394531 97.292969 47.171875 97.867188 46.894531 98.285156 C 46.597656 98.726562 46.257812 99.042969 45.878906 99.222656 C 45.503906 99.421875 45.085938 99.519531 44.664062 99.519531 C 43.671875 99.519531 42.914062 99.042969 42.398438 98.085938 "/>
<path style=" stroke:none;fill-rule:nonzero;fill:rgb(10.112%,40.585327%,73.280334%);fill-opacity:1;" d="M 54.921875 93.273438 L 54.921875 88.855469 L 56.136719 88.855469 C 56.875 88.855469 57.472656 89.015625 57.90625 89.332031 C 58.324219 89.652344 58.542969 90.207031 58.542969 90.984375 C 58.542969 91.640625 58.34375 92.199219 57.945312 92.613281 C 57.527344 93.050781 56.933594 93.273438 56.117188 93.273438 L 54.921875 93.273438 "/>
</g>
</svg>
