<?xml version="1.0" encoding="UTF-8"?>
<svg xmlns="http://www.w3.org/2000/svg" xmlns:xlink="http://www.w3.org/1999/xlink" width="171pt" height="94pt" viewBox="0 0 171 94" version="1.1">
<g id="surface1">
<path style=" stroke:none;fill-rule:nonzero;fill:rgb(0%,49.674988%,27.331543%);fill-opacity:1;" d="M 0.480469 93.433594 L 170.558594 93.433594 L 170.558594 0.914062 L 0.480469 0.914062 Z M 0.480469 93.433594 "/>
<path style=" stroke:none;fill-rule:nonzero;fill:rgb(100%,100%,100%);fill-opacity:1;" d="M 7.28125 91.734375 L 163.753906 91.734375 C 166.570312 91.734375 168.855469 89.453125 168.855469 86.632812 L 168.855469 7.714844 C 168.855469 4.898438 166.570312 2.613281 163.753906 2.613281 L 7.28125 2.613281 C 4.464844 2.613281 2.183594 4.898438 2.179688 7.714844 L 2.179688 86.632812 C 2.179688 89.449219 4.460938 91.730469 7.28125 91.734375 "/>
<path style=" stroke:none;fill-rule:nonzero;fill:rgb(0%,49.674988%,27.331543%);fill-opacity:1;" d="M 7.28125 89.695312 C 5.589844 89.691406 4.222656 88.324219 4.21875 86.632812 L 4.21875 7.714844 C 4.222656 6.023438 5.589844 4.65625 7.28125 4.65625 L 163.753906 4.65625 C 165.445312 4.65625 166.8125 6.023438 166.816406 7.714844 L 166.816406 86.632812 C 166.8125 88.324219 165.445312 89.691406 163.753906 89.695312 L 7.28125 89.695312 "/>
<path style=" stroke:none;fill-rule:nonzero;fill:rgb(100%,100%,100%);fill-opacity:1;" d="M 22.761719 14.75 L 24.265625 14.75 L 24.265625 12.960938 L 22.761719 12.960938 L 22.761719 14.75 "/>
<path style=" stroke:none;fill-rule:nonzero;fill:rgb(100%,100%,100%);fill-opacity:1;" d="M 25.558594 14.75 L 27.0625 14.75 L 27.0625 12.960938 L 25.558594 12.960938 L 25.558594 14.75 "/>
<path style=" stroke:none;fill-rule:nonzero;fill:rgb(100%,100%,100%);fill-opacity:1;" d="M 26.566406 25.136719 L 28.238281 25.136719 C 28.222656 24.882812 28.203125 24.609375 28.1875 24.320312 C 28.167969 24.046875 28.167969 23.753906 28.167969 23.464844 L 28.167969 16.386719 L 26.394531 16.386719 L 26.394531 21.519531 C 26.394531 22.203125 26.257812 22.75 26.003906 23.15625 C 25.746094 23.566406 25.324219 23.773438 24.757812 23.773438 C 24.296875 23.773438 23.972656 23.621094 23.753906 23.3125 C 23.53125 23.003906 23.410156 22.511719 23.410156 21.828125 L 23.410156 16.386719 L 21.636719 16.386719 L 21.636719 22.238281 C 21.636719 23.15625 21.84375 23.890625 22.25 24.4375 C 22.660156 24.984375 23.308594 25.257812 24.195312 25.257812 C 24.792969 25.257812 25.269531 25.121094 25.628906 24.832031 C 25.96875 24.558594 26.242188 24.214844 26.464844 23.808594 L 26.5 23.808594 L 26.566406 25.136719 "/>
<path style=" stroke:none;fill-rule:nonzero;fill:rgb(100%,100%,100%);fill-opacity:1;" d="M 31.25 25.136719 L 33.027344 25.136719 L 33.027344 20.429688 C 33.027344 19.988281 33.078125 19.609375 33.179688 19.285156 C 33.28125 18.964844 33.417969 18.707031 33.589844 18.503906 C 33.757812 18.316406 33.964844 18.160156 34.183594 18.058594 C 34.40625 17.972656 34.628906 17.921875 34.882812 17.921875 C 34.988281 17.921875 35.089844 17.921875 35.175781 17.941406 C 35.261719 17.957031 35.363281 17.972656 35.449219 17.992188 L 35.449219 16.285156 C 35.414062 16.285156 35.378906 16.285156 35.363281 16.269531 C 35.34375 16.269531 35.308594 16.269531 35.277344 16.269531 C 34.953125 16.269531 34.664062 16.300781 34.40625 16.386719 C 34.152344 16.472656 33.945312 16.59375 33.757812 16.746094 C 33.570312 16.898438 33.402344 17.070312 33.265625 17.257812 C 33.128906 17.445312 33.007812 17.648438 32.921875 17.871094 L 32.890625 17.871094 C 32.890625 17.804688 32.890625 17.699219 32.890625 17.5625 C 32.871094 17.425781 32.871094 17.273438 32.855469 17.121094 C 32.835938 16.96875 32.835938 16.832031 32.835938 16.695312 C 32.820312 16.558594 32.820312 16.457031 32.820312 16.386719 L 31.183594 16.386719 C 31.199219 16.644531 31.21875 16.914062 31.234375 17.1875 C 31.25 17.480469 31.25 17.769531 31.25 18.058594 L 31.25 25.136719 "/>
<path style=" stroke:none;fill-rule:nonzero;fill:rgb(100%,100%,100%);fill-opacity:1;" d="M 37.117188 25.136719 L 38.890625 25.136719 L 38.890625 16.386719 L 37.117188 16.386719 L 37.117188 25.136719 "/>
<path style=" stroke:none;fill-rule:nonzero;fill:rgb(100%,100%,100%);fill-opacity:1;" d="M 37.066406 14.632812 L 38.941406 14.632812 L 38.941406 12.738281 L 37.066406 12.738281 L 37.066406 14.632812 "/>
<path style=" stroke:none;fill-rule:nonzero;fill:rgb(100%,100%,100%);fill-opacity:1;" d="M 47.269531 24.898438 L 47.167969 23.398438 C 46.980469 23.515625 46.726562 23.621094 46.433594 23.703125 C 46.144531 23.789062 45.839844 23.839844 45.546875 23.839844 C 44.78125 23.839844 44.199219 23.566406 43.789062 23.023438 C 43.363281 22.476562 43.160156 21.742188 43.160156 20.824219 C 43.160156 19.746094 43.363281 18.964844 43.773438 18.453125 C 44.183594 17.941406 44.761719 17.683594 45.515625 17.683594 C 45.839844 17.683594 46.128906 17.71875 46.382812 17.804688 C 46.640625 17.886719 46.859375 17.972656 47.082031 18.09375 L 47.167969 16.609375 C 46.945312 16.523438 46.691406 16.4375 46.367188 16.371094 C 46.042969 16.300781 45.71875 16.269531 45.394531 16.269531 C 44.730469 16.269531 44.132812 16.371094 43.621094 16.59375 C 43.109375 16.8125 42.683594 17.136719 42.339844 17.53125 C 42 17.941406 41.742188 18.417969 41.574219 18.980469 C 41.402344 19.542969 41.320312 20.140625 41.320312 20.804688 C 41.320312 21.417969 41.402344 22 41.554688 22.542969 C 41.710938 23.089844 41.964844 23.566406 42.289062 23.960938 C 42.613281 24.351562 43.023438 24.675781 43.535156 24.898438 C 44.03125 25.136719 44.625 25.257812 45.308594 25.257812 C 45.683594 25.257812 46.042969 25.222656 46.402344 25.152344 C 46.757812 25.070312 47.050781 24.984375 47.269531 24.898438 "/>
<path style=" stroke:none;fill-rule:nonzero;fill:rgb(100%,100%,100%);fill-opacity:1;" d="M 49.296875 25.136719 L 51.070312 25.136719 L 51.070312 19.953125 C 51.070312 19.269531 51.207031 18.722656 51.496094 18.332031 C 51.769531 17.941406 52.179688 17.75 52.742188 17.75 C 53.203125 17.75 53.527344 17.90625 53.75 18.210938 C 53.953125 18.519531 54.054688 19.015625 54.054688 19.695312 L 54.054688 25.136719 L 55.828125 25.136719 L 55.828125 19.285156 C 55.828125 18.367188 55.625 17.632812 55.214844 17.085938 C 54.804688 16.539062 54.15625 16.269531 53.269531 16.269531 C 52.691406 16.269531 52.230469 16.40625 51.90625 16.660156 C 51.566406 16.933594 51.292969 17.222656 51.105469 17.546875 L 51.070312 17.546875 L 51.070312 12.34375 L 49.296875 12.34375 L 49.296875 25.136719 "/>
<path style=" stroke:none;fill-rule:nonzero;fill:rgb(100%,100%,100%);fill-opacity:1;" d="M 12.855469 25.136719 L 19.878906 25.136719 L 19.878906 23.621094 L 14.917969 23.621094 L 19.792969 14.785156 L 19.792969 13.230469 L 13.007812 13.230469 L 13.007812 14.75 L 17.628906 14.75 L 12.855469 23.464844 L 12.855469 25.136719 "/>
<path style=" stroke:none;fill-rule:nonzero;fill:rgb(100%,100%,100%);fill-opacity:1;" d="M 12.855469 43.785156 L 16.09375 43.785156 C 16.691406 43.785156 17.21875 43.699219 17.679688 43.527344 C 18.140625 43.375 18.515625 43.136719 18.839844 42.847656 C 19.164062 42.554688 19.402344 42.199219 19.574219 41.789062 C 19.726562 41.398438 19.8125 40.953125 19.8125 40.476562 C 19.8125 40.015625 19.742188 39.621094 19.625 39.265625 C 19.488281 38.921875 19.320312 38.632812 19.113281 38.394531 C 18.890625 38.171875 18.652344 37.984375 18.398438 37.847656 C 18.125 37.710938 17.851562 37.628906 17.578125 37.578125 L 17.578125 37.542969 C 17.835938 37.457031 18.074219 37.355469 18.3125 37.199219 C 18.53125 37.0625 18.738281 36.894531 18.925781 36.671875 C 19.113281 36.449219 19.25 36.195312 19.367188 35.886719 C 19.488281 35.597656 19.539062 35.238281 19.539062 34.847656 C 19.539062 33.890625 19.265625 33.15625 18.722656 32.644531 C 18.15625 32.136719 17.289062 31.878906 16.09375 31.878906 L 12.855469 31.878906 L 12.855469 43.785156 "/>
<path style=" stroke:none;fill-rule:nonzero;fill:rgb(100%,100%,100%);fill-opacity:1;" d="M 27.160156 43.785156 L 28.765625 43.785156 C 28.746094 43.632812 28.710938 43.410156 28.695312 43.152344 C 28.675781 42.898438 28.660156 42.625 28.660156 42.335938 L 28.660156 38.15625 C 28.660156 37.578125 28.609375 37.097656 28.488281 36.722656 C 28.371094 36.347656 28.183594 36.039062 27.960938 35.785156 C 27.773438 35.5625 27.46875 35.359375 27.058594 35.171875 C 26.648438 35 26.121094 34.914062 25.453125 34.914062 C 24.890625 34.914062 24.398438 34.984375 23.96875 35.121094 C 23.542969 35.257812 23.152344 35.410156 22.828125 35.597656 L 22.964844 37.113281 C 23.1875 36.894531 23.511719 36.6875 23.9375 36.5 C 24.34375 36.332031 24.789062 36.246094 25.285156 36.246094 C 25.914062 36.246094 26.359375 36.414062 26.632812 36.757812 C 26.769531 36.925781 26.871094 37.113281 26.921875 37.320312 C 26.972656 37.542969 26.988281 37.78125 26.988281 38.050781 L 26.988281 38.410156 L 26.359375 38.410156 C 24.941406 38.410156 23.851562 38.648438 23.117188 39.109375 C 22.382812 39.589844 22.007812 40.339844 22.007812 41.363281 C 22.007812 41.773438 22.078125 42.128906 22.214844 42.453125 C 22.347656 42.777344 22.535156 43.035156 22.777344 43.257812 C 23 43.476562 23.269531 43.632812 23.578125 43.734375 C 23.886719 43.851562 24.210938 43.902344 24.566406 43.902344 C 25.214844 43.902344 25.726562 43.769531 26.121094 43.496094 C 26.496094 43.238281 26.800781 42.929688 27.023438 42.589844 L 27.058594 42.589844 C 27.058594 42.640625 27.058594 42.726562 27.074219 42.847656 C 27.074219 42.964844 27.074219 43.085938 27.089844 43.203125 C 27.109375 43.324219 27.109375 43.445312 27.125 43.546875 C 27.144531 43.664062 27.144531 43.734375 27.160156 43.785156 "/>
<path style=" stroke:none;fill-rule:nonzero;fill:rgb(100%,100%,100%);fill-opacity:1;" d="M 31.390625 43.445312 C 31.660156 43.5625 32.003906 43.683594 32.429688 43.769531 C 32.839844 43.851562 33.300781 43.902344 33.792969 43.902344 C 34.78125 43.902344 35.535156 43.664062 36.0625 43.171875 C 36.574219 42.675781 36.828125 42.042969 36.828125 41.261719 C 36.828125 40.730469 36.675781 40.304688 36.386719 39.980469 C 36.078125 39.65625 35.671875 39.332031 35.140625 39.042969 L 34.375 38.617188 C 33.980469 38.394531 33.691406 38.207031 33.46875 38.019531 C 33.246094 37.847656 33.144531 37.609375 33.144531 37.320312 C 33.144531 37.011719 33.246094 36.757812 33.46875 36.570312 C 33.691406 36.382812 34.015625 36.296875 34.460938 36.296875 C 34.816406 36.296875 35.15625 36.332031 35.449219 36.398438 C 35.738281 36.484375 36.011719 36.570312 36.25 36.671875 L 36.335938 35.238281 C 36.148438 35.171875 35.890625 35.101562 35.550781 35.015625 C 35.191406 34.949219 34.78125 34.914062 34.324219 34.914062 C 33.878906 34.914062 33.488281 34.984375 33.128906 35.121094 C 32.769531 35.257812 32.464844 35.445312 32.207031 35.664062 C 31.953125 35.90625 31.746094 36.175781 31.609375 36.46875 C 31.472656 36.773438 31.40625 37.097656 31.40625 37.421875 C 31.40625 37.730469 31.457031 38.003906 31.542969 38.242188 C 31.628906 38.480469 31.746094 38.683594 31.902344 38.871094 C 32.054688 39.058594 32.222656 39.214844 32.445312 39.351562 C 32.667969 39.503906 32.90625 39.640625 33.179688 39.777344 L 34.101562 40.234375 C 34.492188 40.421875 34.765625 40.628906 34.917969 40.832031 C 35.054688 41.039062 35.125 41.261719 35.125 41.480469 C 35.125 41.824219 34.988281 42.078125 34.714844 42.25 C 34.441406 42.4375 34.066406 42.523438 33.605469 42.523438 C 33.179688 42.523438 32.769531 42.453125 32.410156 42.300781 C 32.054688 42.164062 31.746094 42.027344 31.492188 41.90625 L 31.390625 43.445312 "/>
<path style=" stroke:none;fill-rule:nonzero;fill:rgb(100%,100%,100%);fill-opacity:1;" d="M 40.851562 39.910156 L 45.851562 39.910156 L 45.851562 39.316406 C 45.851562 38.546875 45.765625 37.898438 45.609375 37.335938 C 45.457031 36.773438 45.234375 36.3125 44.945312 35.957031 C 44.65625 35.597656 44.296875 35.339844 43.90625 35.171875 C 43.496094 35 43.050781 34.914062 42.574219 34.914062 C 42.03125 34.914062 41.535156 35.015625 41.109375 35.238281 C 40.664062 35.460938 40.289062 35.785156 40 36.175781 C 39.710938 36.585938 39.472656 37.0625 39.316406 37.628906 C 39.164062 38.191406 39.078125 38.804688 39.078125 39.46875 C 39.078125 40.097656 39.164062 40.695312 39.316406 41.242188 C 39.472656 41.789062 39.691406 42.25 40.015625 42.640625 C 40.324219 43.035156 40.714844 43.339844 41.191406 43.5625 C 41.671875 43.800781 42.234375 43.902344 42.863281 43.902344 C 43.410156 43.902344 43.90625 43.851562 44.332031 43.734375 C 44.757812 43.613281 45.097656 43.496094 45.390625 43.375 L 45.304688 41.890625 C 45.082031 42.042969 44.792969 42.199219 44.453125 42.351562 C 44.09375 42.503906 43.667969 42.589844 43.15625 42.589844 C 42.335938 42.589844 41.757812 42.367188 41.398438 41.90625 C 41.039062 41.464844 40.851562 40.800781 40.851562 39.910156 "/>
<path style=" stroke:none;fill-rule:nonzero;fill:rgb(100%,100%,100%);fill-opacity:1;" d="M 48.46875 43.785156 L 50.242188 43.785156 L 50.242188 30.992188 L 48.46875 30.992188 L 48.46875 43.785156 "/>
<path style=" stroke:none;fill-rule:nonzero;fill:rgb(100%,100%,100%);fill-opacity:1;" d="M 24.972656 62.429688 L 26.574219 62.429688 C 26.558594 62.28125 26.523438 62.054688 26.507812 61.800781 C 26.488281 61.542969 26.472656 61.273438 26.472656 60.980469 L 26.472656 56.804688 C 26.472656 56.222656 26.421875 55.746094 26.300781 55.371094 C 26.183594 54.996094 25.996094 54.6875 25.773438 54.433594 C 25.585938 54.210938 25.28125 54.007812 24.871094 53.820312 C 24.460938 53.648438 23.929688 53.5625 23.265625 53.5625 C 22.703125 53.5625 22.210938 53.632812 21.78125 53.769531 C 21.355469 53.90625 20.964844 54.054688 20.640625 54.246094 L 20.777344 55.765625 C 21 55.539062 21.324219 55.335938 21.75 55.148438 C 22.15625 54.976562 22.601562 54.894531 23.097656 54.894531 C 23.726562 54.894531 24.171875 55.0625 24.445312 55.40625 C 24.578125 55.574219 24.683594 55.765625 24.734375 55.96875 C 24.785156 56.191406 24.800781 56.429688 24.800781 56.703125 L 24.800781 57.058594 L 24.171875 57.058594 C 22.753906 57.058594 21.664062 57.296875 20.929688 57.757812 C 20.195312 58.234375 19.820312 58.984375 19.820312 60.011719 C 19.820312 60.417969 19.890625 60.777344 20.027344 61.101562 C 20.160156 61.425781 20.347656 61.679688 20.589844 61.90625 C 20.8125 62.125 21.082031 62.28125 21.390625 62.382812 C 21.699219 62.5 22.023438 62.550781 22.378906 62.550781 C 23.027344 62.550781 23.539062 62.414062 23.929688 62.144531 C 24.308594 61.886719 24.613281 61.578125 24.835938 61.238281 L 24.871094 61.238281 C 24.871094 61.289062 24.871094 61.375 24.886719 61.492188 C 24.886719 61.613281 24.886719 61.730469 24.902344 61.851562 C 24.921875 61.96875 24.921875 62.09375 24.9375 62.195312 C 24.957031 62.3125 24.957031 62.382812 24.972656 62.429688 "/>
<path style=" stroke:none;fill-rule:nonzero;fill:rgb(100%,100%,100%);fill-opacity:1;" d="M 34.167969 62.429688 L 35.839844 62.429688 C 35.824219 62.175781 35.804688 61.90625 35.789062 61.613281 C 35.769531 61.339844 35.769531 61.050781 35.769531 60.761719 L 35.769531 53.679688 L 33.996094 53.679688 L 33.996094 58.816406 C 33.996094 59.496094 33.859375 60.042969 33.605469 60.453125 C 33.347656 60.863281 32.921875 61.066406 32.359375 61.066406 C 31.898438 61.066406 31.574219 60.914062 31.351562 60.605469 C 31.132812 60.300781 31.011719 59.804688 31.011719 59.121094 L 31.011719 53.679688 L 29.238281 53.679688 L 29.238281 59.53125 C 29.238281 60.453125 29.441406 61.1875 29.851562 61.730469 C 30.261719 62.28125 30.910156 62.550781 31.796875 62.550781 C 32.394531 62.550781 32.871094 62.414062 33.230469 62.125 C 33.570312 61.851562 33.84375 61.511719 34.066406 61.101562 L 34.097656 61.101562 L 34.167969 62.429688 "/>
<path style=" stroke:none;fill-rule:nonzero;fill:rgb(100%,100%,100%);fill-opacity:1;" d="M 38.617188 62.09375 C 38.886719 62.210938 39.230469 62.332031 39.65625 62.414062 C 40.066406 62.5 40.527344 62.550781 41.019531 62.550781 C 42.007812 62.550781 42.761719 62.3125 43.289062 61.820312 C 43.800781 61.324219 44.054688 60.691406 44.054688 59.90625 C 44.054688 59.378906 43.902344 58.953125 43.613281 58.628906 C 43.304688 58.304688 42.898438 57.980469 42.367188 57.691406 L 41.597656 57.265625 C 41.207031 57.042969 40.917969 56.855469 40.695312 56.667969 C 40.472656 56.496094 40.371094 56.257812 40.371094 55.96875 C 40.371094 55.660156 40.472656 55.40625 40.695312 55.21875 C 40.917969 55.03125 41.242188 54.945312 41.683594 54.945312 C 42.042969 54.945312 42.382812 54.976562 42.675781 55.046875 C 42.964844 55.132812 43.238281 55.21875 43.476562 55.320312 L 43.5625 53.886719 C 43.375 53.820312 43.117188 53.75 42.777344 53.664062 C 42.417969 53.597656 42.007812 53.5625 41.546875 53.5625 C 41.105469 53.5625 40.714844 53.632812 40.355469 53.769531 C 39.996094 53.90625 39.691406 54.09375 39.433594 54.3125 C 39.179688 54.550781 38.972656 54.824219 38.835938 55.113281 C 38.699219 55.421875 38.632812 55.746094 38.632812 56.070312 C 38.632812 56.378906 38.683594 56.648438 38.769531 56.890625 C 38.855469 57.128906 38.972656 57.332031 39.128906 57.519531 C 39.28125 57.707031 39.453125 57.859375 39.671875 57.996094 C 39.894531 58.152344 40.132812 58.285156 40.40625 58.421875 L 41.328125 58.882812 C 41.71875 59.070312 41.992188 59.277344 42.144531 59.480469 C 42.28125 59.683594 42.351562 59.90625 42.351562 60.128906 C 42.351562 60.46875 42.214844 60.726562 41.941406 60.898438 C 41.667969 61.085938 41.292969 61.167969 40.832031 61.167969 C 40.40625 61.167969 39.996094 61.101562 39.640625 60.949219 C 39.28125 60.8125 38.972656 60.675781 38.71875 60.554688 L 38.617188 62.09375 "/>
<path style=" stroke:none;fill-rule:nonzero;fill:rgb(100%,100%,100%);fill-opacity:1;" d="M 51.367188 62.429688 L 52.96875 62.429688 C 52.953125 62.28125 52.917969 62.054688 52.902344 61.800781 C 52.882812 61.542969 52.867188 61.273438 52.867188 60.980469 L 52.867188 56.804688 C 52.867188 56.222656 52.816406 55.746094 52.695312 55.371094 C 52.578125 54.996094 52.390625 54.6875 52.167969 54.433594 C 51.980469 54.210938 51.671875 54.007812 51.265625 53.820312 C 50.855469 53.648438 50.324219 53.5625 49.660156 53.5625 C 49.097656 53.5625 48.601562 53.632812 48.175781 53.769531 C 47.75 53.90625 47.355469 54.054688 47.035156 54.246094 L 47.167969 55.765625 C 47.390625 55.539062 47.714844 55.335938 48.140625 55.148438 C 48.550781 54.976562 48.996094 54.894531 49.488281 54.894531 C 50.121094 54.894531 50.566406 55.0625 50.835938 55.40625 C 50.972656 55.574219 51.078125 55.765625 51.128906 55.96875 C 51.179688 56.191406 51.195312 56.429688 51.195312 56.703125 L 51.195312 57.058594 L 50.566406 57.058594 C 49.148438 57.058594 48.058594 57.296875 47.324219 57.757812 C 46.589844 58.234375 46.214844 58.984375 46.214844 60.011719 C 46.214844 60.417969 46.28125 60.777344 46.417969 61.101562 C 46.554688 61.425781 46.742188 61.679688 46.980469 61.90625 C 47.203125 62.125 47.476562 62.28125 47.785156 62.382812 C 48.089844 62.5 48.414062 62.550781 48.773438 62.550781 C 49.421875 62.550781 49.933594 62.414062 50.324219 62.144531 C 50.699219 61.886719 51.007812 61.578125 51.230469 61.238281 L 51.265625 61.238281 C 51.265625 61.289062 51.265625 61.375 51.28125 61.492188 C 51.28125 61.613281 51.28125 61.730469 51.296875 61.851562 C 51.316406 61.96875 51.316406 62.09375 51.332031 62.195312 C 51.347656 62.3125 51.347656 62.382812 51.367188 62.429688 "/>
<path style=" stroke:none;fill-rule:nonzero;fill:rgb(100%,100%,100%);fill-opacity:1;" d="M 55.8125 62.429688 L 57.585938 62.429688 L 57.585938 57.246094 C 57.585938 56.566406 57.722656 56.019531 58.011719 55.628906 C 58.285156 55.234375 58.695312 55.046875 59.257812 55.046875 C 59.71875 55.046875 60.042969 55.199219 60.265625 55.507812 C 60.46875 55.816406 60.570312 56.308594 60.570312 56.992188 L 60.570312 62.429688 L 62.34375 62.429688 L 62.34375 56.582031 C 62.34375 55.660156 62.140625 54.925781 61.730469 54.382812 C 61.320312 53.835938 60.671875 53.5625 59.785156 53.5625 C 59.273438 53.5625 58.832031 53.679688 58.4375 53.9375 C 58.046875 54.195312 57.738281 54.550781 57.519531 55.011719 L 57.484375 55.011719 C 57.484375 54.960938 57.484375 54.859375 57.484375 54.738281 C 57.464844 54.621094 57.464844 54.484375 57.449219 54.347656 C 57.433594 54.210938 57.433594 54.074219 57.433594 53.957031 C 57.414062 53.835938 57.414062 53.734375 57.414062 53.679688 L 55.742188 53.679688 C 55.761719 53.9375 55.777344 54.210938 55.796875 54.484375 C 55.8125 54.773438 55.8125 55.0625 55.8125 55.351562 L 55.8125 62.429688 "/>
<path style=" stroke:none;fill-rule:nonzero;fill:rgb(100%,100%,100%);fill-opacity:1;" d="M 65.277344 62.429688 L 67.050781 62.429688 L 67.050781 57.246094 C 67.050781 56.566406 67.1875 56.019531 67.476562 55.628906 C 67.75 55.234375 68.160156 55.046875 68.722656 55.046875 C 69.183594 55.046875 69.507812 55.199219 69.726562 55.507812 C 69.933594 55.816406 70.035156 56.308594 70.035156 56.992188 L 70.035156 62.429688 L 71.808594 62.429688 L 71.808594 56.582031 C 71.808594 55.660156 71.605469 54.925781 71.195312 54.382812 C 70.785156 53.835938 70.136719 53.5625 69.25 53.5625 C 68.738281 53.5625 68.296875 53.679688 67.902344 53.9375 C 67.511719 54.195312 67.203125 54.550781 66.980469 55.011719 L 66.949219 55.011719 C 66.949219 54.960938 66.949219 54.859375 66.949219 54.738281 C 66.929688 54.621094 66.929688 54.484375 66.914062 54.347656 C 66.898438 54.210938 66.898438 54.074219 66.898438 53.957031 C 66.878906 53.835938 66.878906 53.734375 66.878906 53.679688 L 65.210938 53.679688 C 65.226562 53.9375 65.242188 54.210938 65.261719 54.484375 C 65.277344 54.773438 65.277344 55.0625 65.277344 55.351562 L 65.277344 62.429688 "/>
<path style=" stroke:none;fill-rule:nonzero;fill:rgb(100%,100%,100%);fill-opacity:1;" d="M 75.996094 58.558594 L 80.992188 58.558594 L 80.992188 57.964844 C 80.992188 57.195312 80.90625 56.546875 80.753906 55.984375 C 80.601562 55.421875 80.378906 54.960938 80.089844 54.601562 C 79.796875 54.246094 79.441406 53.988281 79.046875 53.820312 C 78.640625 53.648438 78.195312 53.5625 77.71875 53.5625 C 77.171875 53.5625 76.675781 53.664062 76.25 53.886719 C 75.808594 54.109375 75.433594 54.433594 75.144531 54.824219 C 74.851562 55.234375 74.613281 55.710938 74.460938 56.273438 C 74.304688 56.835938 74.222656 57.453125 74.222656 58.117188 C 74.222656 58.746094 74.304688 59.34375 74.460938 59.890625 C 74.613281 60.4375 74.835938 60.898438 75.160156 61.289062 C 75.46875 61.679688 75.859375 61.988281 76.335938 62.210938 C 76.8125 62.449219 77.378906 62.550781 78.007812 62.550781 C 78.554688 62.550781 79.046875 62.5 79.476562 62.382812 C 79.902344 62.261719 80.242188 62.144531 80.53125 62.023438 L 80.445312 60.539062 C 80.226562 60.691406 79.933594 60.847656 79.59375 61 C 79.234375 61.152344 78.808594 61.238281 78.296875 61.238281 C 77.480469 61.238281 76.898438 61.015625 76.539062 60.554688 C 76.183594 60.113281 75.996094 59.449219 75.996094 58.558594 "/>
<path style=" stroke:none;fill-rule:nonzero;fill:rgb(100%,100%,100%);fill-opacity:1;" d="M 12.855469 62.429688 L 18.601562 62.429688 L 18.601562 60.914062 L 14.695312 60.914062 L 14.695312 50.527344 L 12.855469 50.527344 L 12.855469 62.429688 "/>
<path style=" stroke:none;fill-rule:nonzero;fill:rgb(100%,100%,100%);fill-opacity:1;" d="M 12.855469 81.078125 L 16.09375 81.078125 C 16.691406 81.078125 17.21875 80.996094 17.679688 80.824219 C 18.140625 80.671875 18.515625 80.429688 18.839844 80.140625 C 19.164062 79.851562 19.402344 79.492188 19.574219 79.085938 C 19.726562 78.691406 19.8125 78.246094 19.8125 77.773438 C 19.8125 77.308594 19.742188 76.917969 19.625 76.558594 C 19.488281 76.21875 19.320312 75.929688 19.113281 75.691406 C 18.890625 75.46875 18.652344 75.28125 18.398438 75.144531 C 18.125 75.007812 17.851562 74.921875 17.578125 74.871094 L 17.578125 74.835938 C 17.835938 74.75 18.074219 74.648438 18.3125 74.496094 C 18.53125 74.359375 18.738281 74.191406 18.925781 73.96875 C 19.113281 73.746094 19.25 73.488281 19.367188 73.183594 C 19.488281 72.894531 19.539062 72.535156 19.539062 72.144531 C 19.539062 71.1875 19.265625 70.453125 18.722656 69.941406 C 18.15625 69.429688 17.289062 69.175781 16.09375 69.175781 L 12.855469 69.175781 L 12.855469 81.078125 "/>
<path style=" stroke:none;fill-rule:nonzero;fill:rgb(100%,100%,100%);fill-opacity:1;" d="M 23.875 77.207031 L 28.871094 77.207031 L 28.871094 76.609375 C 28.871094 75.84375 28.785156 75.195312 28.632812 74.632812 C 28.480469 74.070312 28.257812 73.609375 27.96875 73.25 C 27.675781 72.894531 27.320312 72.636719 26.925781 72.464844 C 26.519531 72.296875 26.074219 72.210938 25.597656 72.210938 C 25.050781 72.210938 24.554688 72.3125 24.128906 72.535156 C 23.683594 72.757812 23.308594 73.082031 23.023438 73.472656 C 22.730469 73.882812 22.492188 74.359375 22.339844 74.921875 C 22.183594 75.484375 22.101562 76.097656 22.101562 76.765625 C 22.101562 77.394531 22.183594 77.992188 22.339844 78.539062 C 22.492188 79.085938 22.714844 79.542969 23.039062 79.9375 C 23.34375 80.328125 23.738281 80.636719 24.214844 80.859375 C 24.691406 81.09375 25.253906 81.199219 25.886719 81.199219 C 26.433594 81.199219 26.925781 81.148438 27.351562 81.027344 C 27.78125 80.910156 28.121094 80.789062 28.410156 80.671875 L 28.324219 79.1875 C 28.101562 79.339844 27.8125 79.492188 27.472656 79.648438 C 27.113281 79.800781 26.6875 79.886719 26.175781 79.886719 C 25.355469 79.886719 24.777344 79.664062 24.417969 79.203125 C 24.0625 78.761719 23.875 78.09375 23.875 77.207031 "/>
<path style=" stroke:none;fill-rule:nonzero;fill:rgb(100%,100%,100%);fill-opacity:1;" d="M 31.46875 81.078125 L 33.242188 81.078125 L 33.242188 76.371094 C 33.242188 75.929688 33.292969 75.554688 33.398438 75.230469 C 33.5 74.90625 33.636719 74.648438 33.804688 74.445312 C 33.976562 74.257812 34.179688 74.101562 34.402344 74 C 34.625 73.914062 34.84375 73.863281 35.101562 73.863281 C 35.203125 73.863281 35.304688 73.863281 35.390625 73.882812 C 35.476562 73.898438 35.578125 73.914062 35.664062 73.933594 L 35.664062 72.226562 C 35.628906 72.226562 35.597656 72.226562 35.578125 72.210938 C 35.5625 72.210938 35.527344 72.210938 35.492188 72.210938 C 35.167969 72.210938 34.878906 72.242188 34.625 72.332031 C 34.367188 72.414062 34.164062 72.535156 33.976562 72.6875 C 33.789062 72.839844 33.617188 73.011719 33.480469 73.199219 C 33.34375 73.386719 33.226562 73.59375 33.140625 73.816406 L 33.105469 73.816406 C 33.105469 73.746094 33.105469 73.644531 33.105469 73.507812 C 33.089844 73.371094 33.089844 73.21875 33.074219 73.0625 C 33.054688 72.910156 33.054688 72.773438 33.054688 72.636719 C 33.039062 72.5 33.039062 72.398438 33.039062 72.332031 L 31.402344 72.332031 C 31.417969 72.585938 31.433594 72.859375 31.453125 73.132812 C 31.46875 73.421875 31.46875 73.710938 31.46875 74 L 31.46875 81.078125 "/>
<path style=" stroke:none;fill-rule:nonzero;fill:rgb(100%,100%,100%);fill-opacity:1;" d="M 37.4375 81.078125 L 39.210938 81.078125 L 39.210938 75.894531 C 39.210938 75.210938 39.347656 74.667969 39.636719 74.273438 C 39.910156 73.882812 40.320312 73.695312 40.882812 73.695312 C 41.34375 73.695312 41.667969 73.847656 41.890625 74.15625 C 42.09375 74.460938 42.195312 74.957031 42.195312 75.640625 L 42.195312 81.078125 L 43.96875 81.078125 L 43.96875 75.230469 C 43.96875 74.308594 43.765625 73.574219 43.355469 73.03125 C 42.945312 72.484375 42.296875 72.210938 41.410156 72.210938 C 40.898438 72.210938 40.457031 72.332031 40.066406 72.585938 C 39.671875 72.839844 39.363281 73.199219 39.144531 73.660156 L 39.109375 73.660156 C 39.109375 73.609375 39.109375 73.507812 39.109375 73.386719 C 39.09375 73.269531 39.09375 73.132812 39.074219 72.996094 C 39.058594 72.859375 39.058594 72.722656 39.058594 72.601562 C 39.039062 72.484375 39.039062 72.382812 39.039062 72.332031 L 37.371094 72.332031 C 37.386719 72.585938 37.402344 72.859375 37.421875 73.132812 C 37.4375 73.421875 37.4375 73.710938 37.4375 74 L 37.4375 81.078125 "/>
<path style=" stroke:none;fill-rule:nonzero;fill:rgb(100%,100%,100%);fill-opacity:1;" d="M 146.113281 25.136719 L 147.890625 25.136719 L 147.890625 19.78125 C 147.890625 19.132812 148.027344 18.640625 148.28125 18.28125 C 148.539062 17.921875 148.929688 17.75 149.425781 17.75 C 150.242188 17.75 150.652344 18.296875 150.652344 19.371094 L 150.652344 25.136719 L 152.425781 25.136719 L 152.425781 19.78125 C 152.425781 19.132812 152.5625 18.640625 152.820312 18.28125 C 153.074219 17.921875 153.46875 17.75 153.960938 17.75 C 154.78125 17.75 155.1875 18.296875 155.1875 19.371094 L 155.1875 25.136719 L 156.964844 25.136719 L 156.964844 19.40625 C 156.964844 18.382812 156.757812 17.597656 156.351562 17.070312 C 155.925781 16.539062 155.292969 16.269531 154.4375 16.269531 C 153.878906 16.269531 153.414062 16.40625 153.058594 16.675781 C 152.699219 16.96875 152.425781 17.289062 152.203125 17.648438 C 152.117188 17.480469 152.019531 17.308594 151.898438 17.136719 C 151.777344 16.984375 151.625 16.832031 151.453125 16.695312 C 151.285156 16.574219 151.078125 16.472656 150.859375 16.386719 C 150.636719 16.300781 150.363281 16.269531 150.070312 16.269531 C 149.527344 16.269531 149.082031 16.40625 148.726562 16.675781 C 148.367188 16.96875 148.078125 17.308594 147.890625 17.734375 L 147.855469 17.734375 C 147.855469 17.683594 147.855469 17.582031 147.855469 17.445312 C 147.839844 17.324219 147.839844 17.1875 147.839844 17.050781 C 147.820312 16.914062 147.820312 16.78125 147.820312 16.660156 C 147.804688 16.539062 147.804688 16.4375 147.804688 16.386719 L 146.046875 16.386719 C 146.0625 16.625 146.082031 16.882812 146.097656 17.15625 C 146.113281 17.425781 146.113281 17.71875 146.113281 18.042969 L 146.113281 25.136719 "/>
<path style=" stroke:none;fill-rule:nonzero;fill:rgb(100%,100%,100%);fill-opacity:1;" d="M 136.960938 25.136719 L 138.734375 25.136719 L 138.734375 20.804688 L 138.769531 20.804688 L 141.683594 25.136719 L 143.800781 25.136719 L 140.253906 20.328125 L 143.492188 16.386719 L 141.53125 16.386719 L 138.734375 19.933594 L 138.734375 12.34375 L 136.960938 12.34375 L 136.960938 25.136719 "/>
<path style=" stroke:none;fill-rule:nonzero;fill:rgb(100%,100%,100%);fill-opacity:1;" d="M 146.113281 43.785156 L 147.890625 43.785156 L 147.890625 38.429688 C 147.890625 37.78125 148.027344 37.285156 148.28125 36.925781 C 148.539062 36.570312 148.929688 36.398438 149.425781 36.398438 C 150.242188 36.398438 150.652344 36.945312 150.652344 38.019531 L 150.652344 43.785156 L 152.425781 43.785156 L 152.425781 38.429688 C 152.425781 37.78125 152.5625 37.285156 152.820312 36.925781 C 153.074219 36.570312 153.46875 36.398438 153.960938 36.398438 C 154.78125 36.398438 155.1875 36.945312 155.1875 38.019531 L 155.1875 43.785156 L 156.964844 43.785156 L 156.964844 38.050781 C 156.964844 37.03125 156.757812 36.246094 156.351562 35.71875 C 155.925781 35.1875 155.292969 34.914062 154.4375 34.914062 C 153.878906 34.914062 153.414062 35.050781 153.058594 35.324219 C 152.699219 35.613281 152.425781 35.9375 152.203125 36.296875 C 152.117188 36.125 152.019531 35.957031 151.898438 35.785156 C 151.777344 35.632812 151.625 35.476562 151.453125 35.339844 C 151.285156 35.222656 151.078125 35.121094 150.859375 35.035156 C 150.636719 34.949219 150.363281 34.914062 150.070312 34.914062 C 149.527344 34.914062 149.082031 35.050781 148.726562 35.324219 C 148.367188 35.613281 148.078125 35.957031 147.890625 36.382812 L 147.855469 36.382812 C 147.855469 36.332031 147.855469 36.226562 147.855469 36.09375 C 147.839844 35.972656 147.839844 35.835938 147.839844 35.699219 C 147.820312 35.5625 147.820312 35.425781 147.820312 35.308594 C 147.804688 35.1875 147.804688 35.085938 147.804688 35.035156 L 146.046875 35.035156 C 146.0625 35.273438 146.082031 35.53125 146.097656 35.800781 C 146.113281 36.074219 146.113281 36.363281 146.113281 36.6875 L 146.113281 43.785156 "/>
<path style=" stroke:none;fill-rule:nonzero;fill:rgb(100%,100%,100%);fill-opacity:1;" d="M 136.960938 43.785156 L 138.734375 43.785156 L 138.734375 39.453125 L 138.769531 39.453125 L 141.683594 43.785156 L 143.800781 43.785156 L 140.253906 38.972656 L 143.492188 35.035156 L 141.53125 35.035156 L 138.734375 38.582031 L 138.734375 30.992188 L 136.960938 30.992188 L 136.960938 43.785156 "/>
<path style=" stroke:none;fill-rule:nonzero;fill:rgb(100%,100%,100%);fill-opacity:1;" d="M 146.113281 62.429688 L 147.890625 62.429688 L 147.890625 57.078125 C 147.890625 56.429688 148.027344 55.933594 148.28125 55.574219 C 148.539062 55.21875 148.929688 55.046875 149.425781 55.046875 C 150.242188 55.046875 150.652344 55.59375 150.652344 56.667969 L 150.652344 62.429688 L 152.425781 62.429688 L 152.425781 57.078125 C 152.425781 56.429688 152.5625 55.933594 152.820312 55.574219 C 153.074219 55.21875 153.46875 55.046875 153.960938 55.046875 C 154.78125 55.046875 155.1875 55.59375 155.1875 56.667969 L 155.1875 62.429688 L 156.964844 62.429688 L 156.964844 56.703125 C 156.964844 55.675781 156.757812 54.894531 156.351562 54.363281 C 155.925781 53.835938 155.292969 53.5625 154.4375 53.5625 C 153.878906 53.5625 153.414062 53.699219 153.058594 53.972656 C 152.699219 54.261719 152.425781 54.585938 152.203125 54.945312 C 152.117188 54.773438 152.019531 54.601562 151.898438 54.433594 C 151.777344 54.28125 151.625 54.125 151.453125 53.988281 C 151.285156 53.867188 151.078125 53.769531 150.859375 53.679688 C 150.636719 53.597656 150.363281 53.5625 150.070312 53.5625 C 149.527344 53.5625 149.082031 53.699219 148.726562 53.972656 C 148.367188 54.261719 148.078125 54.601562 147.890625 55.03125 L 147.855469 55.03125 C 147.855469 54.976562 147.855469 54.875 147.855469 54.738281 C 147.839844 54.621094 147.839844 54.484375 147.839844 54.347656 C 147.820312 54.210938 147.820312 54.074219 147.820312 53.957031 C 147.804688 53.835938 147.804688 53.734375 147.804688 53.679688 L 146.046875 53.679688 C 146.0625 53.921875 146.082031 54.175781 146.097656 54.449219 C 146.113281 54.722656 146.113281 55.011719 146.113281 55.335938 L 146.113281 62.429688 "/>
<path style=" stroke:none;fill-rule:nonzero;fill:rgb(100%,100%,100%);fill-opacity:1;" d="M 136.960938 62.429688 L 138.734375 62.429688 L 138.734375 58.097656 L 138.769531 58.097656 L 141.683594 62.429688 L 143.800781 62.429688 L 140.253906 57.621094 L 143.492188 53.679688 L 141.53125 53.679688 L 138.734375 57.230469 L 138.734375 49.640625 L 136.960938 49.640625 L 136.960938 62.429688 "/>
<path style=" stroke:none;fill-rule:nonzero;fill:rgb(100%,100%,100%);fill-opacity:1;" d="M 146.113281 81.078125 L 147.890625 81.078125 L 147.890625 75.722656 C 147.890625 75.078125 148.027344 74.582031 148.28125 74.222656 C 148.539062 73.863281 148.929688 73.695312 149.425781 73.695312 C 150.242188 73.695312 150.652344 74.238281 150.652344 75.316406 L 150.652344 81.078125 L 152.425781 81.078125 L 152.425781 75.722656 C 152.425781 75.078125 152.5625 74.582031 152.820312 74.222656 C 153.074219 73.863281 153.46875 73.695312 153.960938 73.695312 C 154.78125 73.695312 155.1875 74.238281 155.1875 75.316406 L 155.1875 81.078125 L 156.964844 81.078125 L 156.964844 75.347656 C 156.964844 74.324219 156.757812 73.539062 156.351562 73.011719 C 155.925781 72.484375 155.292969 72.210938 154.4375 72.210938 C 153.878906 72.210938 153.414062 72.347656 153.058594 72.621094 C 152.699219 72.910156 152.425781 73.234375 152.203125 73.59375 C 152.117188 73.421875 152.019531 73.25 151.898438 73.082031 C 151.777344 72.925781 151.625 72.773438 151.453125 72.636719 C 151.285156 72.519531 151.078125 72.414062 150.859375 72.332031 C 150.636719 72.242188 150.363281 72.210938 150.070312 72.210938 C 149.527344 72.210938 149.082031 72.347656 148.726562 72.621094 C 148.367188 72.910156 148.078125 73.25 147.890625 73.675781 L 147.855469 73.675781 C 147.855469 73.625 147.855469 73.523438 147.855469 73.386719 C 147.839844 73.269531 147.839844 73.132812 147.839844 72.996094 C 147.820312 72.859375 147.820312 72.722656 147.820312 72.601562 C 147.804688 72.484375 147.804688 72.382812 147.804688 72.332031 L 146.046875 72.332031 C 146.0625 72.570312 146.082031 72.824219 146.097656 73.097656 C 146.113281 73.371094 146.113281 73.660156 146.113281 73.984375 L 146.113281 81.078125 "/>
<path style=" stroke:none;fill-rule:nonzero;fill:rgb(100%,100%,100%);fill-opacity:1;" d="M 136.960938 81.078125 L 138.734375 81.078125 L 138.734375 76.746094 L 138.769531 76.746094 L 141.683594 81.078125 L 143.800781 81.078125 L 140.253906 76.269531 L 143.492188 72.332031 L 141.53125 72.332031 L 138.734375 75.878906 L 138.734375 68.285156 L 136.960938 68.285156 L 136.960938 81.078125 "/>
<path style=" stroke:none;fill-rule:nonzero;fill:rgb(100%,100%,100%);fill-opacity:1;" d="M 112.804688 22.542969 L 117.40625 22.542969 L 117.40625 25.136719 L 119.113281 25.136719 L 119.113281 22.542969 L 120.425781 22.542969 L 120.425781 21.128906 L 119.113281 21.128906 L 119.113281 13.230469 L 117 13.230469 L 112.804688 20.839844 L 112.804688 22.542969 "/>
<path style=" stroke:none;fill-rule:nonzero;fill:rgb(100%,100%,100%);fill-opacity:1;" d="M 121.632812 24.796875 C 121.988281 24.914062 122.398438 25.035156 122.859375 25.121094 C 123.320312 25.222656 123.796875 25.273438 124.308594 25.273438 C 124.90625 25.273438 125.453125 25.1875 125.945312 25.035156 C 126.441406 24.863281 126.851562 24.625 127.207031 24.335938 C 127.566406 24.027344 127.839844 23.652344 128.027344 23.226562 C 128.214844 22.800781 128.316406 22.324219 128.316406 21.777344 C 128.316406 21.335938 128.25 20.941406 128.128906 20.601562 C 127.992188 20.257812 127.820312 19.988281 127.601562 19.746094 C 127.378906 19.507812 127.121094 19.320312 126.832031 19.183594 C 126.542969 19.046875 126.234375 18.945312 125.910156 18.894531 L 125.910156 18.859375 C 126.167969 18.808594 126.425781 18.722656 126.695312 18.605469 C 126.953125 18.484375 127.207031 18.316406 127.429688 18.09375 C 127.652344 17.871094 127.820312 17.597656 127.960938 17.257812 C 128.097656 16.933594 128.164062 16.539062 128.164062 16.0625 C 128.164062 15.585938 128.078125 15.140625 127.90625 14.769531 C 127.71875 14.390625 127.480469 14.085938 127.175781 13.828125 C 126.867188 13.574219 126.511719 13.386719 126.082031 13.265625 C 125.65625 13.148438 125.214844 13.078125 124.71875 13.078125 C 124.136719 13.078125 123.625 13.128906 123.183594 13.214844 C 122.722656 13.316406 122.328125 13.4375 121.988281 13.574219 L 122.109375 15.195312 C 122.46875 15.007812 122.859375 14.851562 123.25 14.734375 C 123.644531 14.613281 124.019531 14.5625 124.34375 14.5625 C 124.90625 14.5625 125.382812 14.714844 125.773438 15.023438 C 126.167969 15.328125 126.355469 15.773438 126.355469 16.335938 C 126.355469 16.695312 126.285156 16.984375 126.148438 17.222656 C 126.015625 17.480469 125.828125 17.667969 125.589844 17.835938 C 125.332031 17.992188 125.042969 18.109375 124.699219 18.179688 C 124.359375 18.265625 123.984375 18.296875 123.59375 18.296875 L 123.097656 18.296875 L 123.097656 19.730469 C 123.199219 19.730469 123.335938 19.730469 123.507812 19.714844 C 123.660156 19.714844 123.863281 19.714844 124.105469 19.714844 C 124.820312 19.714844 125.382812 19.882812 125.792969 20.207031 C 126.203125 20.53125 126.40625 21.011719 126.40625 21.605469 C 126.40625 21.980469 126.339844 22.304688 126.21875 22.578125 C 126.101562 22.851562 125.929688 23.074219 125.726562 23.242188 C 125.503906 23.429688 125.265625 23.566406 124.992188 23.652344 C 124.699219 23.738281 124.410156 23.789062 124.085938 23.789062 C 123.625 23.789062 123.199219 23.722656 122.808594 23.585938 C 122.414062 23.464844 122.058594 23.3125 121.75 23.15625 L 121.632812 24.796875 "/>
<path style=" stroke:none;fill-rule:nonzero;fill:rgb(100%,100%,100%);fill-opacity:1;" d="M 109.46875 25.136719 L 111.273438 25.136719 L 111.273438 13.230469 L 109.6875 13.230469 L 107.027344 15.652344 L 107.914062 16.933594 L 109.46875 15.347656 L 109.46875 25.136719 "/>
<path style=" stroke:none;fill-rule:nonzero;fill:rgb(100%,100%,100%);fill-opacity:1;" d="M 117.359375 43.785156 L 119.164062 43.785156 L 119.164062 31.878906 L 117.578125 31.878906 L 114.917969 34.300781 L 115.804688 35.582031 L 117.359375 33.992188 L 117.359375 43.785156 "/>
<path style=" stroke:none;fill-rule:nonzero;fill:rgb(100%,100%,100%);fill-opacity:1;" d="M 120.691406 41.191406 L 125.296875 41.191406 L 125.296875 43.785156 L 127.003906 43.785156 L 127.003906 41.191406 L 128.316406 41.191406 L 128.316406 39.777344 L 127.003906 39.777344 L 127.003906 31.878906 L 124.890625 31.878906 L 120.691406 39.484375 L 120.691406 41.191406 "/>
<path style=" stroke:none;fill-rule:nonzero;fill:rgb(100%,100%,100%);fill-opacity:1;" d="M 111.539062 43.785156 L 113.347656 43.785156 L 113.347656 31.878906 L 111.761719 31.878906 L 109.101562 34.300781 L 109.988281 35.582031 L 111.539062 33.992188 L 111.539062 43.785156 "/>
<path style=" stroke:none;fill-rule:nonzero;fill:rgb(100%,100%,100%);fill-opacity:1;" d="M 116.929688 62.429688 L 118.738281 62.429688 L 118.738281 50.527344 L 117.152344 50.527344 L 114.492188 52.949219 L 115.378906 54.226562 L 116.929688 52.640625 L 116.929688 62.429688 "/>
<path style=" stroke:none;fill-rule:nonzero;fill:rgb(100%,100%,100%);fill-opacity:1;" d="M 122.910156 56.191406 L 122.875 56.171875 C 122.894531 55.644531 122.945312 55.113281 123.046875 54.585938 C 123.148438 54.074219 123.320312 53.613281 123.558594 53.203125 C 123.78125 52.796875 124.085938 52.453125 124.445312 52.199219 C 124.804688 51.941406 125.265625 51.824219 125.792969 51.824219 C 126.183594 51.824219 126.542969 51.875 126.867188 51.976562 C 127.191406 52.09375 127.464844 52.214844 127.6875 52.335938 L 127.769531 50.75 C 127.53125 50.664062 127.242188 50.578125 126.902344 50.492188 C 126.542969 50.40625 126.148438 50.371094 125.691406 50.371094 C 124.855469 50.371094 124.15625 50.527344 123.59375 50.851562 C 123.011719 51.175781 122.554688 51.617188 122.191406 52.199219 C 121.835938 52.777344 121.5625 53.476562 121.410156 54.28125 C 121.257812 55.097656 121.171875 56.003906 121.171875 56.992188 C 121.171875 57.808594 121.238281 58.558594 121.359375 59.242188 C 121.476562 59.925781 121.683594 60.503906 121.972656 61 C 122.261719 61.492188 122.636719 61.886719 123.113281 62.160156 C 123.574219 62.429688 124.15625 62.566406 124.855469 62.566406 C 125.910156 62.566406 126.746094 62.226562 127.378906 61.542969 C 128.011719 60.878906 128.316406 59.90625 128.316406 58.664062 C 128.316406 58.097656 128.25 57.589844 128.097656 57.128906 C 127.941406 56.667969 127.71875 56.257812 127.445312 55.914062 C 127.15625 55.59375 126.832031 55.320312 126.441406 55.132812 C 126.050781 54.945312 125.640625 54.859375 125.179688 54.859375 C 124.613281 54.859375 124.140625 54.976562 123.78125 55.21875 C 123.40625 55.472656 123.113281 55.796875 122.910156 56.191406 "/>
<path style=" stroke:none;fill-rule:nonzero;fill:rgb(100%,100%,100%);fill-opacity:1;" d="M 111.113281 62.429688 L 112.921875 62.429688 L 112.921875 50.527344 L 111.335938 50.527344 L 108.675781 52.949219 L 109.5625 54.226562 L 111.113281 52.640625 L 111.113281 62.429688 "/>
<path style=" stroke:none;fill-rule:nonzero;fill:rgb(100%,100%,100%);fill-opacity:1;" d="M 120.691406 78.488281 L 125.296875 78.488281 L 125.296875 81.078125 L 127.003906 81.078125 L 127.003906 78.488281 L 128.316406 78.488281 L 128.316406 77.070312 L 127.003906 77.070312 L 127.003906 69.175781 L 124.890625 69.175781 L 120.691406 76.78125 L 120.691406 78.488281 "/>
<path style=" stroke:none;fill-rule:nonzero;fill:rgb(100%,100%,100%);fill-opacity:1;" d="M 113.433594 81.078125 L 119.929688 81.078125 L 119.929688 79.5625 L 115.460938 79.5625 L 115.902344 79.085938 C 116.433594 78.503906 116.945312 77.90625 117.421875 77.292969 C 117.882812 76.695312 118.292969 76.082031 118.648438 75.484375 C 119.007812 74.886719 119.28125 74.308594 119.488281 73.726562 C 119.691406 73.164062 119.792969 72.621094 119.792969 72.109375 C 119.792969 71.679688 119.726562 71.289062 119.605469 70.914062 C 119.46875 70.539062 119.265625 70.214844 119.007812 69.925781 C 118.734375 69.652344 118.394531 69.429688 118.003906 69.261719 C 117.59375 69.105469 117.117188 69.019531 116.570312 69.019531 C 116.007812 69.019531 115.476562 69.089844 115.019531 69.207031 C 114.539062 69.34375 114.097656 69.515625 113.703125 69.71875 L 113.894531 71.460938 C 114.164062 71.238281 114.507812 71.015625 114.898438 70.828125 C 115.289062 70.640625 115.734375 70.539062 116.230469 70.539062 C 116.757812 70.539062 117.183594 70.710938 117.472656 71.066406 C 117.765625 71.425781 117.917969 71.867188 117.917969 72.433594 C 117.917969 72.824219 117.832031 73.25 117.660156 73.710938 C 117.472656 74.171875 117.234375 74.667969 116.910156 75.160156 C 116.585938 75.671875 116.210938 76.203125 115.785156 76.765625 C 115.34375 77.328125 114.863281 77.90625 114.335938 78.503906 L 113.433594 79.542969 L 113.433594 81.078125 "/>
<path style=" stroke:none;fill-rule:nonzero;fill:rgb(0%,49.674988%,27.331543%);fill-opacity:1;" d="M 14.660156 42.335938 L 14.660156 38.359375 L 15.957031 38.359375 C 16.316406 38.359375 16.605469 38.410156 16.863281 38.511719 C 17.964844 39.027344 17.980469 39.972656 17.96875 40.355469 C 17.96875 40.917969 17.800781 41.398438 17.460938 41.773438 C 17.117188 42.148438 16.605469 42.335938 15.90625 42.335938 L 14.660156 42.335938 "/>
<path style=" stroke:none;fill-rule:nonzero;fill:rgb(0%,49.674988%,27.331543%);fill-opacity:1;" d="M 26.988281 39.503906 L 26.988281 40.289062 C 26.988281 40.988281 26.835938 41.550781 26.53125 41.976562 C 26.207031 42.417969 25.746094 42.640625 25.113281 42.640625 C 24.652344 42.640625 24.3125 42.503906 24.074219 42.25 C 23.835938 41.992188 23.714844 41.636719 23.714844 41.210938 C 23.714844 40.628906 23.9375 40.203125 24.398438 39.910156 C 24.855469 39.621094 25.523438 39.484375 26.394531 39.484375 C 26.496094 39.484375 26.597656 39.484375 26.71875 39.484375 C 26.835938 39.484375 26.9375 39.484375 26.988281 39.503906 "/>
<path style=" stroke:none;fill-rule:nonzero;fill:rgb(0%,49.674988%,27.331543%);fill-opacity:1;" d="M 40.851562 38.703125 C 40.867188 37.898438 41.023438 37.269531 41.3125 36.824219 C 41.601562 36.398438 42.011719 36.175781 42.523438 36.175781 C 43.582031 36.175781 44.109375 37.011719 44.109375 38.703125 L 40.851562 38.703125 "/>
<path style=" stroke:none;fill-rule:nonzero;fill:rgb(0%,49.674988%,27.331543%);fill-opacity:1;" d="M 14.660156 36.945312 L 14.660156 33.292969 L 15.769531 33.292969 C 16.433594 33.292969 16.929688 33.449219 17.253906 33.773438 C 17.578125 34.09375 17.730469 34.523438 17.730469 35.035156 C 17.730469 35.597656 17.5625 36.058594 17.21875 36.414062 C 16.863281 36.773438 16.347656 36.945312 15.667969 36.945312 L 14.660156 36.945312 "/>
<path style=" stroke:none;fill-rule:nonzero;fill:rgb(0%,49.674988%,27.331543%);fill-opacity:1;" d="M 24.800781 58.152344 L 24.800781 58.933594 C 24.800781 59.636719 24.648438 60.199219 24.339844 60.625 C 24.019531 61.066406 23.558594 61.289062 22.925781 61.289062 C 22.464844 61.289062 22.125 61.152344 21.886719 60.898438 C 21.648438 60.640625 21.527344 60.28125 21.527344 59.855469 C 21.527344 59.277344 21.75 58.851562 22.210938 58.558594 C 22.667969 58.269531 23.335938 58.132812 24.207031 58.132812 C 24.308594 58.132812 24.410156 58.132812 24.527344 58.132812 C 24.648438 58.132812 24.75 58.132812 24.800781 58.152344 "/>
<path style=" stroke:none;fill-rule:nonzero;fill:rgb(0%,49.674988%,27.331543%);fill-opacity:1;" d="M 51.195312 58.152344 L 51.195312 58.933594 C 51.195312 59.636719 51.042969 60.199219 50.734375 60.625 C 50.410156 61.066406 49.949219 61.289062 49.320312 61.289062 C 48.859375 61.289062 48.519531 61.152344 48.277344 60.898438 C 48.039062 60.640625 47.921875 60.28125 47.921875 59.855469 C 47.921875 59.277344 48.140625 58.851562 48.601562 58.558594 C 49.0625 58.269531 49.726562 58.132812 50.597656 58.132812 C 50.699219 58.132812 50.804688 58.132812 50.921875 58.132812 C 51.042969 58.132812 51.144531 58.132812 51.195312 58.152344 "/>
<path style=" stroke:none;fill-rule:nonzero;fill:rgb(0%,49.674988%,27.331543%);fill-opacity:1;" d="M 75.996094 57.347656 C 76.011719 56.546875 76.164062 55.914062 76.457031 55.472656 C 76.746094 55.046875 77.15625 54.824219 77.667969 54.824219 C 78.722656 54.824219 79.253906 55.660156 79.253906 57.347656 L 75.996094 57.347656 "/>
<path style=" stroke:none;fill-rule:nonzero;fill:rgb(0%,49.674988%,27.331543%);fill-opacity:1;" d="M 14.660156 79.628906 L 14.660156 75.65625 L 15.957031 75.65625 C 16.316406 75.65625 16.605469 75.707031 16.863281 75.808594 C 17.117188 75.910156 17.324219 76.046875 17.492188 76.234375 C 17.648438 76.421875 17.765625 76.628906 17.851562 76.867188 C 17.933594 77.105469 17.96875 77.359375 17.96875 77.652344 C 17.96875 78.214844 17.800781 78.691406 17.460938 79.066406 C 17.117188 79.441406 16.605469 79.628906 15.90625 79.628906 L 14.660156 79.628906 "/>
<path style=" stroke:none;fill-rule:nonzero;fill:rgb(0%,49.674988%,27.331543%);fill-opacity:1;" d="M 23.875 75.996094 C 23.890625 75.195312 24.042969 74.566406 24.335938 74.121094 C 24.625 73.695312 25.035156 73.472656 25.542969 73.472656 C 26.601562 73.472656 27.132812 74.308594 27.132812 75.996094 L 23.875 75.996094 "/>
<path style=" stroke:none;fill-rule:nonzero;fill:rgb(0%,49.674988%,27.331543%);fill-opacity:1;" d="M 14.660156 74.238281 L 14.660156 70.589844 L 15.769531 70.589844 C 16.433594 70.589844 16.929688 70.742188 17.253906 71.066406 C 17.578125 71.390625 17.730469 71.820312 17.730469 72.332031 C 17.730469 72.894531 17.5625 73.351562 17.21875 73.710938 C 16.863281 74.070312 16.347656 74.238281 15.667969 74.238281 L 14.660156 74.238281 "/>
<path style=" stroke:none;fill-rule:nonzero;fill:rgb(0%,49.674988%,27.331543%);fill-opacity:1;" d="M 114.21875 21.128906 L 117.371094 15.074219 L 117.40625 15.074219 L 117.40625 21.128906 L 114.21875 21.128906 "/>
<path style=" stroke:none;fill-rule:nonzero;fill:rgb(0%,49.674988%,27.331543%);fill-opacity:1;" d="M 122.109375 39.777344 L 125.265625 33.722656 L 125.296875 33.722656 L 125.296875 39.777344 L 122.109375 39.777344 "/>
<path style=" stroke:none;fill-rule:nonzero;fill:rgb(0%,49.674988%,27.331543%);fill-opacity:1;" d="M 123.507812 60.4375 C 123.355469 60.214844 123.25 59.960938 123.183594 59.667969 C 123.113281 59.378906 123.082031 59.070312 123.082031 58.730469 C 123.082031 58.40625 123.113281 58.082031 123.199219 57.792969 C 123.269531 57.503906 123.371094 57.246094 123.523438 57.023438 C 123.660156 56.804688 123.832031 56.632812 124.054688 56.496094 C 124.273438 56.378906 124.515625 56.308594 124.804688 56.308594 C 125.09375 56.308594 125.347656 56.378906 125.570312 56.496094 C 125.792969 56.632812 125.964844 56.804688 126.101562 57.023438 C 126.234375 57.246094 126.339844 57.519531 126.40625 57.808594 C 126.476562 58.097656 126.511719 58.40625 126.511719 58.730469 C 126.511719 59.070312 126.476562 59.378906 126.40625 59.667969 C 126.339844 59.960938 126.234375 60.214844 126.101562 60.4375 C 125.945312 60.65625 125.773438 60.847656 125.554688 60.964844 C 125.332031 61.085938 125.09375 61.152344 124.804688 61.152344 C 124.515625 61.152344 124.257812 61.085938 124.035156 60.964844 C 123.8125 60.847656 123.644531 60.65625 123.507812 60.4375 "/>
<path style=" stroke:none;fill-rule:nonzero;fill:rgb(0%,49.674988%,27.331543%);fill-opacity:1;" d="M 122.109375 77.070312 L 125.265625 71.015625 L 125.296875 71.015625 L 125.296875 77.070312 L 122.109375 77.070312 "/>
</g>
</svg>
