<?xml version="1.0" encoding="UTF-8"?>
<svg xmlns="http://www.w3.org/2000/svg" xmlns:xlink="http://www.w3.org/1999/xlink" width="121pt" height="112pt" viewBox="0 0 121 112" version="1.1">
<g id="surface1">
<path style=" stroke:none;fill-rule:nonzero;fill:rgb(0%,49.674988%,27.331543%);fill-opacity:1;" d="M 0.988281 111.550781 L 120.046875 111.550781 L 120.046875 0.796875 L 0.988281 0.796875 Z M 0.988281 111.550781 "/>
<path style=" stroke:none;fill-rule:nonzero;fill:rgb(100%,100%,100%);fill-opacity:1;" d="M 7.453125 110.191406 C 4.636719 110.191406 2.347656 107.90625 2.351562 105.085938 L 2.351562 7.257812 C 2.347656 4.441406 4.636719 2.152344 7.453125 2.15625 L 113.582031 2.15625 C 116.402344 2.152344 118.6875 4.441406 118.6875 7.257812 L 118.6875 105.085938 C 118.6875 107.90625 116.402344 110.195312 113.582031 110.191406 L 7.453125 110.191406 "/>
<path style=" stroke:none;fill-rule:nonzero;fill:rgb(0%,49.674988%,27.331543%);fill-opacity:1;" d="M 7.453125 108.488281 L 113.582031 108.488281 C 115.460938 108.492188 116.984375 106.96875 116.984375 105.089844 L 116.984375 7.257812 C 116.984375 5.378906 115.460938 3.855469 113.582031 3.855469 L 7.453125 3.855469 C 5.574219 3.855469 4.050781 5.378906 4.050781 7.257812 L 4.050781 105.085938 C 4.050781 106.964844 5.574219 108.488281 7.453125 108.488281 "/>
<path style=" stroke:none;fill-rule:nonzero;fill:rgb(100%,100%,100%);fill-opacity:1;" d="M 63.375 83.113281 L 57.660156 83.113281 L 57.660156 90.867188 L 47.980469 88.800781 C 47.171875 88.625 46.644531 89.625 47.246094 90.195312 L 60.519531 102.707031 L 73.851562 90.136719 C 74.457031 89.570312 73.925781 88.566406 73.117188 88.742188 L 63.375 90.867188 L 63.375 83.113281 "/>
<path style=" stroke:none;fill-rule:nonzero;fill:rgb(100%,100%,100%);fill-opacity:1;" d="M 32.285156 74.949219 L 88.75 74.949219 L 88.75 49.777344 L 32.285156 49.777344 Z M 32.285156 74.949219 "/>
<path style=" stroke:none;fill-rule:nonzero;fill:rgb(100%,100%,100%);fill-opacity:1;" d="M 49.433594 24.269531 L 51.105469 24.269531 C 51.089844 24.011719 51.074219 23.738281 51.054688 23.449219 C 51.039062 23.175781 51.039062 22.886719 51.039062 22.597656 L 51.039062 15.519531 L 49.265625 15.519531 L 49.265625 20.652344 C 49.265625 21.335938 49.128906 21.878906 48.871094 22.289062 C 48.617188 22.699219 48.191406 22.902344 47.628906 22.902344 C 47.167969 22.902344 46.84375 22.75 46.621094 22.441406 C 46.398438 22.136719 46.28125 21.640625 46.28125 20.960938 L 46.28125 15.519531 L 44.507812 15.519531 L 44.507812 21.367188 C 44.507812 22.289062 44.710938 23.023438 45.121094 23.570312 C 45.527344 24.113281 46.175781 24.386719 47.066406 24.386719 C 47.660156 24.386719 48.136719 24.25 48.496094 23.960938 C 48.839844 23.6875 49.109375 23.347656 49.332031 22.9375 L 49.367188 22.9375 L 49.433594 24.269531 "/>
<path style=" stroke:none;fill-rule:nonzero;fill:rgb(100%,100%,100%);fill-opacity:1;" d="M 53.636719 24.269531 L 59.417969 24.269531 L 59.417969 22.851562 L 55.460938 22.851562 L 59.316406 17.070312 L 59.316406 15.519531 L 53.753906 15.519531 L 53.753906 16.933594 L 57.523438 16.933594 L 53.636719 22.699219 L 53.636719 24.269531 "/>
<path style=" stroke:none;fill-rule:nonzero;fill:rgb(100%,100%,100%);fill-opacity:1;" d="M 63.230469 20.394531 L 68.230469 20.394531 L 68.230469 19.796875 C 68.230469 19.03125 68.144531 18.382812 67.988281 17.820312 C 67.839844 17.257812 67.613281 16.796875 67.328125 16.4375 C 67.035156 16.082031 66.675781 15.824219 66.285156 15.65625 C 65.875 15.484375 65.433594 15.398438 64.957031 15.398438 C 64.410156 15.398438 63.914062 15.5 63.488281 15.722656 C 63.042969 15.945312 62.667969 16.269531 62.378906 16.660156 C 62.089844 17.070312 61.851562 17.546875 61.699219 18.109375 C 61.542969 18.671875 61.460938 19.289062 61.460938 19.953125 C 61.460938 20.582031 61.542969 21.179688 61.699219 21.726562 C 61.851562 22.273438 62.074219 22.734375 62.398438 23.125 C 62.703125 23.519531 63.097656 23.824219 63.574219 24.046875 C 64.050781 24.285156 64.613281 24.386719 65.246094 24.386719 C 65.789062 24.386719 66.285156 24.335938 66.710938 24.214844 C 67.136719 24.097656 67.480469 23.976562 67.769531 23.859375 L 67.683594 22.375 C 67.460938 22.527344 67.171875 22.683594 66.832031 22.835938 C 66.472656 22.988281 66.046875 23.074219 65.535156 23.074219 C 64.714844 23.074219 64.136719 22.851562 63.777344 22.390625 C 63.417969 21.949219 63.230469 21.285156 63.230469 20.394531 "/>
<path style=" stroke:none;fill-rule:nonzero;fill:rgb(100%,100%,100%);fill-opacity:1;" d="M 70.828125 24.269531 L 72.601562 24.269531 L 72.601562 19.558594 C 72.601562 19.117188 72.652344 18.742188 72.753906 18.417969 C 72.855469 18.09375 72.992188 17.839844 73.164062 17.632812 C 73.335938 17.445312 73.539062 17.292969 73.761719 17.191406 C 73.984375 17.105469 74.207031 17.054688 74.460938 17.054688 C 74.5625 17.054688 74.664062 17.054688 74.75 17.070312 C 74.835938 17.085938 74.9375 17.105469 75.023438 17.121094 L 75.023438 15.414062 C 74.988281 15.414062 74.957031 15.414062 74.9375 15.398438 C 74.921875 15.398438 74.886719 15.398438 74.851562 15.398438 C 74.527344 15.398438 74.238281 15.433594 73.984375 15.519531 C 73.726562 15.601562 73.523438 15.722656 73.335938 15.875 C 73.148438 16.03125 72.976562 16.199219 72.839844 16.386719 C 72.703125 16.574219 72.585938 16.78125 72.5 17.003906 L 72.464844 17.003906 C 72.464844 16.933594 72.464844 16.832031 72.464844 16.695312 C 72.449219 16.558594 72.449219 16.40625 72.429688 16.25 C 72.414062 16.097656 72.414062 15.960938 72.414062 15.824219 C 72.398438 15.6875 72.398438 15.585938 72.398438 15.519531 L 70.761719 15.519531 C 70.777344 15.773438 70.792969 16.046875 70.808594 16.320312 C 70.828125 16.609375 70.828125 16.898438 70.828125 17.191406 L 70.828125 24.269531 "/>
<path style=" stroke:none;fill-rule:nonzero;fill:rgb(100%,100%,100%);fill-opacity:1;" d="M 76.796875 24.269531 L 78.570312 24.269531 L 78.570312 19.082031 C 78.570312 18.402344 78.707031 17.855469 78.996094 17.464844 C 79.269531 17.070312 79.679688 16.882812 80.242188 16.882812 C 80.703125 16.882812 81.027344 17.035156 81.246094 17.34375 C 81.453125 17.652344 81.554688 18.144531 81.554688 18.828125 L 81.554688 24.269531 L 83.328125 24.269531 L 83.328125 18.417969 C 83.328125 17.496094 83.125 16.761719 82.714844 16.21875 C 82.304688 15.671875 81.65625 15.398438 80.769531 15.398438 C 80.257812 15.398438 79.816406 15.519531 79.421875 15.773438 C 79.03125 16.03125 78.722656 16.386719 78.503906 16.847656 L 78.46875 16.847656 C 78.46875 16.796875 78.46875 16.695312 78.46875 16.574219 C 78.449219 16.457031 78.449219 16.320312 78.433594 16.183594 C 78.417969 16.046875 78.417969 15.910156 78.417969 15.789062 C 78.398438 15.671875 78.398438 15.570312 78.398438 15.519531 L 76.726562 15.519531 C 76.746094 15.773438 76.761719 16.046875 76.78125 16.320312 C 76.796875 16.609375 76.796875 16.898438 76.796875 17.191406 L 76.796875 24.269531 "/>
<path style=" stroke:none;fill-rule:nonzero;fill:rgb(100%,100%,100%);fill-opacity:1;" d="M 37.707031 24.269531 L 43.457031 24.269531 L 43.457031 22.75 L 39.550781 22.75 L 39.550781 12.363281 L 37.707031 12.363281 L 37.707031 24.269531 "/>
<path style=" stroke:none;fill-rule:nonzero;fill:rgb(100%,100%,100%);fill-opacity:1;" d="M 28.453125 42.976562 L 30.226562 42.976562 L 30.226562 37.789062 C 30.226562 37.109375 30.363281 36.5625 30.652344 36.171875 C 30.925781 35.777344 31.335938 35.589844 31.898438 35.589844 C 32.359375 35.589844 32.683594 35.742188 32.90625 36.050781 C 33.109375 36.359375 33.210938 36.851562 33.210938 37.535156 L 33.210938 42.976562 L 34.984375 42.976562 L 34.984375 37.125 C 34.984375 36.203125 34.78125 35.472656 34.371094 34.925781 C 33.960938 34.378906 33.316406 34.105469 32.425781 34.105469 C 31.914062 34.105469 31.472656 34.226562 31.082031 34.480469 C 30.6875 34.738281 30.378906 35.097656 30.160156 35.554688 L 30.125 35.554688 C 30.125 35.507812 30.125 35.402344 30.125 35.285156 C 30.105469 35.164062 30.105469 35.027344 30.089844 34.890625 C 30.074219 34.753906 30.074219 34.617188 30.074219 34.5 C 30.054688 34.378906 30.054688 34.277344 30.054688 34.226562 L 28.386719 34.226562 C 28.402344 34.480469 28.417969 34.753906 28.4375 35.027344 C 28.453125 35.316406 28.453125 35.605469 28.453125 35.898438 L 28.453125 42.976562 "/>
<path style=" stroke:none;fill-rule:nonzero;fill:rgb(100%,100%,100%);fill-opacity:1;" d="M 41.996094 42.839844 L 41.996094 41.507812 C 41.875 41.558594 41.757812 41.609375 41.621094 41.644531 C 41.484375 41.699219 41.332031 41.714844 41.144531 41.714844 C 40.820312 41.714844 40.597656 41.609375 40.445312 41.425781 C 40.289062 41.234375 40.222656 40.914062 40.222656 40.433594 L 40.222656 35.589844 L 41.996094 35.589844 L 41.996094 34.226562 L 40.222656 34.226562 L 40.222656 31.90625 L 38.449219 32.433594 L 38.449219 34.226562 L 37.050781 34.226562 L 37.050781 35.589844 L 38.449219 35.589844 L 38.449219 40.792969 C 38.449219 41.628906 38.636719 42.226562 39.027344 42.566406 C 39.421875 42.925781 39.964844 43.09375 40.683594 43.09375 C 40.9375 43.09375 41.195312 43.078125 41.414062 43.027344 C 41.636719 42.960938 41.84375 42.910156 41.996094 42.839844 "/>
<path style=" stroke:none;fill-rule:nonzero;fill:rgb(100%,100%,100%);fill-opacity:1;" d="M 45.679688 39.105469 L 50.675781 39.105469 L 50.675781 38.507812 C 50.675781 37.738281 50.589844 37.09375 50.4375 36.527344 C 50.285156 35.964844 50.0625 35.507812 49.773438 35.148438 C 49.480469 34.789062 49.121094 34.53125 48.730469 34.363281 C 48.324219 34.191406 47.878906 34.105469 47.402344 34.105469 C 46.855469 34.105469 46.359375 34.210938 45.933594 34.429688 C 45.488281 34.652344 45.113281 34.976562 44.824219 35.367188 C 44.535156 35.777344 44.296875 36.257812 44.144531 36.820312 C 43.988281 37.382812 43.90625 37.996094 43.90625 38.660156 C 43.90625 39.292969 43.988281 39.890625 44.144531 40.433594 C 44.296875 40.980469 44.519531 41.441406 44.84375 41.832031 C 45.148438 42.226562 45.542969 42.53125 46.019531 42.753906 C 46.496094 42.992188 47.058594 43.09375 47.691406 43.09375 C 48.238281 43.09375 48.730469 43.042969 49.15625 42.925781 C 49.585938 42.804688 49.925781 42.6875 50.214844 42.566406 L 50.128906 41.082031 C 49.90625 41.234375 49.617188 41.390625 49.277344 41.542969 C 48.917969 41.699219 48.492188 41.78125 47.980469 41.78125 C 47.160156 41.78125 46.582031 41.558594 46.222656 41.101562 C 45.867188 40.65625 45.679688 39.992188 45.679688 39.105469 "/>
<path style=" stroke:none;fill-rule:nonzero;fill:rgb(100%,100%,100%);fill-opacity:1;" d="M 53.273438 42.976562 L 55.046875 42.976562 L 55.046875 38.269531 C 55.046875 37.824219 55.097656 37.449219 55.199219 37.125 C 55.304688 36.800781 55.441406 36.546875 55.609375 36.339844 C 55.78125 36.152344 55.984375 36 56.207031 35.898438 C 56.429688 35.8125 56.652344 35.761719 56.90625 35.761719 C 57.007812 35.761719 57.109375 35.761719 57.195312 35.777344 C 57.28125 35.792969 57.382812 35.8125 57.46875 35.828125 L 57.46875 34.125 C 57.433594 34.125 57.402344 34.125 57.382812 34.105469 C 57.367188 34.105469 57.332031 34.105469 57.296875 34.105469 C 56.972656 34.105469 56.683594 34.140625 56.429688 34.226562 C 56.171875 34.3125 55.96875 34.429688 55.78125 34.585938 C 55.59375 34.738281 55.421875 34.910156 55.285156 35.097656 C 55.148438 35.285156 55.03125 35.488281 54.945312 35.710938 L 54.910156 35.710938 C 54.910156 35.640625 54.910156 35.539062 54.910156 35.402344 C 54.894531 35.265625 54.894531 35.113281 54.878906 34.960938 C 54.859375 34.804688 54.859375 34.667969 54.859375 34.53125 C 54.84375 34.398438 54.84375 34.292969 54.84375 34.226562 L 53.207031 34.226562 C 53.222656 34.480469 53.238281 34.753906 53.257812 35.027344 C 53.273438 35.316406 53.273438 35.605469 53.273438 35.898438 L 53.273438 42.976562 "/>
<path style=" stroke:none;fill-rule:nonzero;fill:rgb(100%,100%,100%);fill-opacity:1;" d="M 59.191406 42.976562 L 60.964844 42.976562 L 60.964844 30.183594 L 59.191406 30.183594 L 59.191406 42.976562 "/>
<path style=" stroke:none;fill-rule:nonzero;fill:rgb(100%,100%,100%);fill-opacity:1;" d="M 68.59375 42.976562 L 70.199219 42.976562 C 70.179688 42.824219 70.148438 42.601562 70.132812 42.34375 C 70.113281 42.089844 70.097656 41.816406 70.097656 41.527344 L 70.097656 37.347656 C 70.097656 36.769531 70.042969 36.289062 69.925781 35.914062 C 69.804688 35.539062 69.617188 35.230469 69.398438 34.976562 C 69.210938 34.753906 68.902344 34.550781 68.492188 34.363281 C 68.085938 34.191406 67.554688 34.105469 66.890625 34.105469 C 66.328125 34.105469 65.832031 34.175781 65.40625 34.3125 C 64.980469 34.449219 64.585938 34.601562 64.265625 34.789062 L 64.398438 36.308594 C 64.621094 36.085938 64.945312 35.882812 65.371094 35.691406 C 65.78125 35.523438 66.222656 35.4375 66.71875 35.4375 C 67.351562 35.4375 67.792969 35.605469 68.066406 35.949219 C 68.203125 36.117188 68.304688 36.308594 68.355469 36.511719 C 68.40625 36.734375 68.425781 36.972656 68.425781 37.246094 L 68.425781 37.601562 L 67.792969 37.601562 C 66.378906 37.601562 65.285156 37.84375 64.554688 38.300781 C 63.820312 38.78125 63.445312 39.53125 63.445312 40.554688 C 63.445312 40.964844 63.511719 41.324219 63.648438 41.644531 C 63.785156 41.96875 63.972656 42.226562 64.210938 42.449219 C 64.433594 42.667969 64.707031 42.824219 65.015625 42.925781 C 65.320312 43.042969 65.644531 43.09375 66.003906 43.09375 C 66.652344 43.09375 67.164062 42.960938 67.554688 42.6875 C 67.929688 42.429688 68.238281 42.121094 68.460938 41.78125 L 68.492188 41.78125 C 68.492188 41.832031 68.492188 41.917969 68.511719 42.039062 C 68.511719 42.15625 68.511719 42.277344 68.527344 42.394531 C 68.542969 42.515625 68.542969 42.636719 68.5625 42.738281 C 68.578125 42.855469 68.578125 42.925781 68.59375 42.976562 "/>
<path style=" stroke:none;fill-rule:nonzero;fill:rgb(100%,100%,100%);fill-opacity:1;" d="M 73.023438 42.976562 L 74.796875 42.976562 L 74.796875 38.644531 L 74.832031 38.644531 L 77.75 42.976562 L 79.863281 42.976562 L 76.316406 38.164062 L 79.554688 34.226562 L 77.59375 34.226562 L 74.796875 37.773438 L 74.796875 30.183594 L 73.023438 30.183594 L 73.023438 42.976562 "/>
<path style=" stroke:none;fill-rule:nonzero;fill:rgb(100%,100%,100%);fill-opacity:1;" d="M 83.296875 39.105469 L 88.292969 39.105469 L 88.292969 38.507812 C 88.292969 37.738281 88.210938 37.09375 88.054688 36.527344 C 87.902344 35.964844 87.679688 35.507812 87.390625 35.148438 C 87.101562 34.789062 86.742188 34.53125 86.347656 34.363281 C 85.941406 34.191406 85.496094 34.105469 85.019531 34.105469 C 84.472656 34.105469 83.980469 34.210938 83.550781 34.429688 C 83.109375 34.652344 82.734375 34.976562 82.445312 35.367188 C 82.15625 35.777344 81.914062 36.257812 81.761719 36.820312 C 81.609375 37.382812 81.523438 37.996094 81.523438 38.660156 C 81.523438 39.292969 81.609375 39.890625 81.761719 40.433594 C 81.914062 40.980469 82.136719 41.441406 82.460938 41.832031 C 82.769531 42.226562 83.160156 42.53125 83.636719 42.753906 C 84.113281 42.992188 84.679688 43.09375 85.308594 43.09375 C 85.855469 43.09375 86.347656 43.042969 86.777344 42.925781 C 87.203125 42.804688 87.542969 42.6875 87.835938 42.566406 L 87.75 41.082031 C 87.527344 41.234375 87.238281 41.390625 86.898438 41.542969 C 86.535156 41.699219 86.109375 41.78125 85.597656 41.78125 C 84.78125 41.78125 84.203125 41.558594 83.84375 41.101562 C 83.484375 40.65625 83.296875 39.992188 83.296875 39.105469 "/>
<path style=" stroke:none;fill-rule:nonzero;fill:rgb(100%,100%,100%);fill-opacity:1;" d="M 90.890625 42.976562 L 92.667969 42.976562 L 92.667969 37.789062 C 92.667969 37.109375 92.800781 36.5625 93.09375 36.171875 C 93.367188 35.777344 93.777344 35.589844 94.339844 35.589844 C 94.796875 35.589844 95.121094 35.742188 95.34375 36.050781 C 95.546875 36.359375 95.652344 36.851562 95.652344 37.535156 L 95.652344 42.976562 L 97.425781 42.976562 L 97.425781 37.125 C 97.425781 36.203125 97.21875 35.472656 96.8125 34.925781 C 96.402344 34.378906 95.753906 34.105469 94.867188 34.105469 C 94.355469 34.105469 93.910156 34.226562 93.519531 34.480469 C 93.128906 34.738281 92.820312 35.097656 92.597656 35.554688 L 92.566406 35.554688 C 92.566406 35.507812 92.566406 35.402344 92.566406 35.285156 C 92.546875 35.164062 92.546875 35.027344 92.53125 34.890625 C 92.515625 34.753906 92.515625 34.617188 92.515625 34.5 C 92.496094 34.378906 92.496094 34.277344 92.496094 34.226562 L 90.824219 34.226562 C 90.839844 34.480469 90.859375 34.753906 90.875 35.027344 C 90.890625 35.316406 90.890625 35.605469 90.890625 35.898438 L 90.890625 42.976562 "/>
<path style=" stroke:none;fill-rule:nonzero;fill:rgb(100%,100%,100%);fill-opacity:1;" d="M 23.609375 42.976562 L 25.453125 42.976562 L 25.453125 31.070312 L 23.609375 31.070312 L 23.609375 42.976562 "/>
<path style=" stroke:none;fill-rule:nonzero;fill:rgb(0%,49.674988%,27.331543%);fill-opacity:1;" d="M 63.230469 19.183594 C 63.25 18.382812 63.402344 17.753906 63.695312 17.308594 C 63.980469 16.882812 64.390625 16.660156 64.902344 16.660156 C 65.960938 16.660156 66.488281 17.496094 66.488281 19.183594 L 63.230469 19.183594 "/>
<path style=" stroke:none;fill-rule:nonzero;fill:rgb(0%,49.674988%,27.331543%);fill-opacity:1;" d="M 45.679688 37.894531 C 45.695312 37.09375 45.847656 36.460938 46.140625 36.015625 C 46.429688 35.589844 46.839844 35.367188 47.347656 35.367188 C 48.40625 35.367188 48.933594 36.203125 48.933594 37.894531 L 45.679688 37.894531 "/>
<path style=" stroke:none;fill-rule:nonzero;fill:rgb(0%,49.674988%,27.331543%);fill-opacity:1;" d="M 68.425781 38.695312 L 68.425781 39.480469 C 68.425781 40.179688 68.273438 40.742188 67.964844 41.167969 C 67.640625 41.609375 67.179688 41.832031 66.546875 41.832031 C 66.089844 41.832031 65.746094 41.699219 65.507812 41.441406 C 65.269531 41.183594 65.152344 40.828125 65.152344 40.402344 C 65.152344 39.820312 65.371094 39.394531 65.832031 39.105469 C 66.292969 38.816406 66.957031 38.679688 67.828125 38.679688 C 67.929688 38.679688 68.03125 38.679688 68.152344 38.679688 C 68.273438 38.679688 68.375 38.679688 68.425781 38.695312 "/>
<path style=" stroke:none;fill-rule:nonzero;fill:rgb(0%,49.674988%,27.331543%);fill-opacity:1;" d="M 83.296875 37.894531 C 83.316406 37.09375 83.46875 36.460938 83.757812 36.015625 C 84.046875 35.589844 84.457031 35.367188 84.96875 35.367188 C 86.027344 35.367188 86.554688 36.203125 86.554688 37.894531 L 83.296875 37.894531 "/>
<path style=" stroke:none;fill-rule:nonzero;fill:rgb(10.112%,40.585327%,73.280334%);fill-opacity:1;" d="M 32.964844 74.269531 L 88.070312 74.269531 L 88.070312 50.457031 L 32.964844 50.457031 Z M 32.964844 74.269531 "/>
<path style=" stroke:none;fill-rule:nonzero;fill:rgb(100%,100%,100%);fill-opacity:1;" d="M 52.429688 66.238281 L 52.464844 66.238281 C 52.683594 66.632812 52.976562 66.957031 53.332031 67.214844 C 53.675781 67.46875 54.136719 67.589844 54.699219 67.589844 C 55.617188 67.589844 56.351562 67.214844 56.898438 66.445312 C 57.445312 65.675781 57.71875 64.570312 57.71875 63.085938 C 57.71875 62.402344 57.648438 61.789062 57.53125 61.226562 C 57.394531 60.679688 57.207031 60.203125 56.949219 59.8125 C 56.695312 59.417969 56.371094 59.128906 55.996094 58.90625 C 55.601562 58.703125 55.175781 58.597656 54.679688 58.597656 C 54.355469 58.597656 54.066406 58.632812 53.8125 58.71875 C 53.554688 58.804688 53.351562 58.921875 53.164062 59.058594 C 52.976562 59.195312 52.824219 59.351562 52.703125 59.519531 C 52.566406 59.691406 52.445312 59.863281 52.359375 60.050781 L 52.328125 60.050781 C 52.328125 59.964844 52.328125 59.863281 52.328125 59.726562 C 52.308594 59.589844 52.308594 59.453125 52.308594 59.316406 C 52.292969 59.179688 52.292969 59.058594 52.277344 58.941406 C 52.257812 58.820312 52.257812 58.753906 52.257812 58.71875 L 50.589844 58.71875 C 50.605469 58.941406 50.621094 59.179688 50.640625 59.433594 C 50.65625 59.691406 50.65625 59.980469 50.65625 60.269531 L 50.65625 71.152344 L 52.429688 71.152344 L 52.429688 66.238281 "/>
<path style=" stroke:none;fill-rule:nonzero;fill:rgb(100%,100%,100%);fill-opacity:1;" d="M 60.292969 67.46875 L 62.066406 67.46875 L 62.066406 58.71875 L 60.292969 58.71875 L 60.292969 67.46875 "/>
<path style=" stroke:none;fill-rule:nonzero;fill:rgb(100%,100%,100%);fill-opacity:1;" d="M 60.242188 56.960938 L 62.117188 56.960938 L 62.117188 55.070312 L 60.242188 55.070312 L 60.242188 56.960938 "/>
<path style=" stroke:none;fill-rule:nonzero;fill:rgb(100%,100%,100%);fill-opacity:1;" d="M 66.324219 63.597656 L 71.320312 63.597656 L 71.320312 63 C 71.320312 62.230469 71.234375 61.585938 71.082031 61.023438 C 70.925781 60.460938 70.707031 59.996094 70.417969 59.640625 C 70.125 59.28125 69.769531 59.027344 69.375 58.855469 C 68.96875 58.683594 68.523438 58.597656 68.042969 58.597656 C 67.5 58.597656 67.003906 58.703125 66.578125 58.921875 C 66.136719 59.144531 65.761719 59.46875 65.46875 59.863281 C 65.179688 60.269531 64.941406 60.746094 64.789062 61.3125 C 64.632812 61.875 64.550781 62.488281 64.550781 63.152344 C 64.550781 63.785156 64.632812 64.382812 64.789062 64.925781 C 64.941406 65.472656 65.164062 65.933594 65.484375 66.328125 C 65.792969 66.71875 66.1875 67.027344 66.664062 67.246094 C 67.140625 67.484375 67.707031 67.589844 68.335938 67.589844 C 68.882812 67.589844 69.375 67.535156 69.800781 67.417969 C 70.226562 67.296875 70.570312 67.179688 70.859375 67.058594 L 70.773438 65.574219 C 70.550781 65.730469 70.261719 65.882812 69.921875 66.035156 C 69.5625 66.191406 69.136719 66.277344 68.625 66.277344 C 67.804688 66.277344 67.226562 66.054688 66.867188 65.59375 C 66.511719 65.148438 66.324219 64.484375 66.324219 63.597656 "/>
<path style=" stroke:none;fill-rule:nonzero;fill:rgb(100%,100%,100%);fill-opacity:1;" d="M 73.445312 67.46875 L 79.226562 67.46875 L 79.226562 66.054688 L 75.269531 66.054688 L 79.121094 60.269531 L 79.121094 58.71875 L 73.5625 58.71875 L 73.5625 60.136719 L 77.332031 60.136719 L 73.445312 65.898438 L 73.445312 67.46875 "/>
<path style=" stroke:none;fill-rule:nonzero;fill:rgb(100%,100%,100%);fill-opacity:1;" d="M 41.929688 67.09375 C 42.234375 67.265625 42.609375 67.382812 43.054688 67.484375 C 43.496094 67.570312 43.992188 67.605469 44.539062 67.605469 C 45.679688 67.605469 46.601562 67.296875 47.269531 66.683594 C 47.933594 66.070312 48.257812 65.21875 48.257812 64.125 C 48.257812 63.613281 48.1875 63.171875 48.035156 62.8125 C 47.882812 62.457031 47.660156 62.128906 47.402344 61.855469 C 47.148438 61.585938 46.839844 61.328125 46.484375 61.105469 C 46.125 60.886719 45.75 60.664062 45.355469 60.441406 C 45.066406 60.269531 44.8125 60.117188 44.605469 59.964844 C 44.382812 59.8125 44.214844 59.675781 44.09375 59.519531 C 43.957031 59.382812 43.855469 59.230469 43.804688 59.058594 C 43.753906 58.90625 43.71875 58.71875 43.71875 58.515625 C 43.71875 58.054688 43.871094 57.660156 44.179688 57.371094 C 44.488281 57.082031 44.914062 56.925781 45.476562 56.925781 C 45.902344 56.925781 46.3125 56.980469 46.671875 57.082031 C 47.027344 57.199219 47.335938 57.320312 47.609375 57.457031 L 47.660156 55.820312 C 47.4375 55.734375 47.113281 55.632812 46.722656 55.546875 C 46.3125 55.460938 45.851562 55.410156 45.339844 55.410156 C 44.863281 55.410156 44.417969 55.476562 43.992188 55.597656 C 43.566406 55.734375 43.191406 55.9375 42.867188 56.195312 C 42.542969 56.46875 42.285156 56.789062 42.097656 57.183594 C 41.910156 57.574219 41.808594 58.019531 41.808594 58.53125 C 41.808594 59.058594 41.878906 59.488281 42.03125 59.84375 C 42.183594 60.203125 42.390625 60.527344 42.644531 60.78125 C 42.902344 61.054688 43.191406 61.292969 43.546875 61.5 C 43.890625 61.722656 44.265625 61.941406 44.65625 62.179688 C 44.980469 62.367188 45.253906 62.554688 45.476562 62.710938 C 45.699219 62.882812 45.867188 63.050781 46.003906 63.207031 C 46.125 63.359375 46.226562 63.527344 46.277344 63.699219 C 46.328125 63.886719 46.347656 64.074219 46.347656 64.296875 C 46.347656 64.84375 46.160156 65.269531 45.800781 65.59375 C 45.441406 65.917969 44.964844 66.085938 44.382812 66.085938 C 43.90625 66.085938 43.464844 66.003906 43.035156 65.832031 C 42.609375 65.675781 42.269531 65.507812 41.996094 65.335938 L 41.929688 67.09375 "/>
<path style=" stroke:none;fill-rule:nonzero;fill:rgb(10.112%,40.585327%,73.280334%);fill-opacity:1;" d="M 52.855469 65.40625 C 52.566406 64.84375 52.429688 64.074219 52.429688 63.101562 C 52.429688 62.128906 52.566406 61.363281 52.855469 60.800781 C 53.128906 60.238281 53.589844 59.949219 54.21875 59.949219 C 54.867188 59.949219 55.3125 60.21875 55.566406 60.746094 C 55.824219 61.277344 55.941406 62.078125 55.941406 63.136719 C 55.941406 64.144531 55.804688 64.910156 55.550781 65.4375 C 55.277344 65.96875 54.835938 66.238281 54.203125 66.238281 C 53.570312 66.238281 53.128906 65.96875 52.855469 65.40625 "/>
<path style=" stroke:none;fill-rule:nonzero;fill:rgb(10.112%,40.585327%,73.280334%);fill-opacity:1;" d="M 66.324219 62.386719 C 66.339844 61.585938 66.492188 60.953125 66.785156 60.511719 C 67.074219 60.082031 67.480469 59.863281 67.992188 59.863281 C 69.050781 59.863281 69.582031 60.699219 69.582031 62.386719 L 66.324219 62.386719 "/>
</g>
</svg>
