<?xml version="1.0" encoding="UTF-8"?>
<svg xmlns="http://www.w3.org/2000/svg" xmlns:xlink="http://www.w3.org/1999/xlink" width="153pt" height="153pt" viewBox="0 0 153 153" version="1.1">
<g id="surface1">
<path style=" stroke:none;fill-rule:nonzero;fill:rgb(13.729858%,12.159729%,12.548828%);fill-opacity:1;" d="M 0.59375 152.105469 L 152.445312 152.105469 L 152.445312 0.238281 L 0.59375 0.238281 Z M 0.59375 152.105469 "/>
<path style=" stroke:none;fill-rule:nonzero;fill:rgb(100%,100%,100%);fill-opacity:1;" d="M 3.027344 149.667969 L 150.023438 149.667969 L 150.023438 2.671875 L 3.027344 2.671875 Z M 3.027344 149.667969 "/>
<path style=" stroke:none;fill-rule:nonzero;fill:rgb(13.729858%,12.159729%,12.548828%);fill-opacity:1;" d="M 50.917969 45.453125 L 33.542969 19.933594 C 33.378906 19.691406 33.101562 19.535156 32.789062 19.535156 C 32.480469 19.535156 32.199219 19.691406 32.035156 19.929688 L 14.660156 45.449219 C 14.558594 45.597656 14.5 45.773438 14.5 45.964844 C 14.5 46.46875 14.910156 46.875 15.414062 46.875 C 15.484375 46.875 15.550781 46.863281 15.617188 46.851562 L 25.503906 44.578125 L 25.5 133.269531 L 40.078125 133.269531 L 40.078125 44.582031 L 49.964844 46.851562 C 50.027344 46.867188 50.09375 46.875 50.164062 46.875 C 50.667969 46.875 51.078125 46.46875 51.078125 45.964844 C 51.078125 45.773438 51.019531 45.597656 50.917969 45.453125 "/>
<path style=" stroke:none;fill-rule:nonzero;fill:rgb(13.729858%,12.159729%,12.548828%);fill-opacity:1;" d="M 94.652344 45.453125 L 77.277344 19.933594 C 77.113281 19.691406 76.835938 19.535156 76.523438 19.535156 C 76.214844 19.535156 75.933594 19.691406 75.773438 19.929688 L 58.394531 45.449219 C 58.292969 45.597656 58.234375 45.773438 58.234375 45.964844 C 58.234375 46.46875 58.644531 46.875 59.148438 46.875 C 59.21875 46.875 59.285156 46.863281 59.351562 46.851562 L 69.234375 44.578125 L 69.234375 133.269531 L 83.816406 133.269531 L 83.8125 44.582031 L 93.695312 46.847656 C 93.757812 46.863281 93.828125 46.875 93.898438 46.875 C 94.402344 46.875 94.808594 46.46875 94.808594 45.964844 C 94.808594 45.773438 94.75 45.597656 94.652344 45.453125 "/>
<path style=" stroke:none;fill-rule:nonzero;fill:rgb(13.729858%,12.159729%,12.548828%);fill-opacity:1;" d="M 112.96875 65.75 C 115.269531 65.023438 117.71875 64.636719 120.257812 64.636719 C 122.796875 64.636719 125.246094 65.023438 127.546875 65.75 L 127.546875 44.582031 L 137.429688 46.847656 C 137.496094 46.863281 137.5625 46.875 137.632812 46.875 C 138.140625 46.875 138.546875 46.46875 138.546875 45.964844 C 138.546875 45.773438 138.484375 45.597656 138.386719 45.453125 L 121.011719 19.933594 C 120.847656 19.691406 120.570312 19.535156 120.257812 19.535156 C 119.945312 19.535156 119.667969 19.6875 119.507812 19.929688 L 102.128906 45.449219 C 102.03125 45.597656 101.972656 45.773438 101.972656 45.964844 C 101.972656 46.46875 102.378906 46.875 102.882812 46.875 C 102.953125 46.875 103.019531 46.863281 103.085938 46.851562 L 112.96875 44.578125 L 112.96875 65.75 "/>
<path style=" stroke:none;fill-rule:nonzero;fill:rgb(13.729858%,12.159729%,12.548828%);fill-opacity:1;" d="M 127.546875 112.113281 C 125.246094 112.839844 122.796875 113.226562 120.257812 113.226562 C 117.71875 113.226562 115.269531 112.839844 112.96875 112.113281 L 112.96875 133.269531 L 127.546875 133.269531 L 127.546875 112.113281 "/>
<path style=" stroke:none;fill-rule:nonzero;fill:rgb(93.527222%,17.272949%,18.882751%);fill-opacity:1;" d="M 120.257812 64.636719 C 106.84375 64.636719 95.960938 75.515625 95.960938 88.929688 C 95.960938 102.347656 106.84375 113.226562 120.257812 113.226562 C 133.675781 113.226562 144.554688 102.347656 144.554688 88.929688 C 144.554688 75.515625 133.675781 64.636719 120.257812 64.636719 "/>
<path style=" stroke:none;fill-rule:nonzero;fill:rgb(100%,100%,100%);fill-opacity:1;" d="M 120.257812 72.734375 C 111.3125 72.734375 104.058594 79.988281 104.058594 88.933594 C 104.058594 97.878906 111.3125 105.132812 120.257812 105.132812 C 129.199219 105.132812 136.453125 97.878906 136.453125 88.933594 C 136.453125 79.988281 129.199219 72.734375 120.257812 72.734375 "/>
<path style=" stroke:none;fill-rule:nonzero;fill:rgb(13.729858%,12.159729%,12.548828%);fill-opacity:1;" d="M 115.320312 80.28125 C 115.605469 80.292969 116.019531 80.316406 116.296875 80.367188 C 116.636719 80.4375 116.960938 80.558594 117.261719 80.730469 C 117.917969 81.097656 118.4375 81.664062 118.769531 82.34375 C 119.039062 82.898438 119.164062 83.519531 119.179688 84.140625 C 119.195312 84.746094 119.105469 85.351562 118.894531 85.921875 C 118.71875 86.40625 118.457031 86.863281 118.144531 87.277344 C 118.101562 87.335938 118.035156 87.417969 117.988281 87.476562 C 118.023438 87.519531 118.082031 87.59375 118.109375 87.636719 C 118.578125 88.261719 118.972656 88.953125 119.234375 89.691406 C 119.5 90.429688 119.636719 91.21875 119.667969 92.003906 C 119.691406 92.617188 119.652344 93.261719 119.492188 93.851562 C 119.328125 94.464844 119.042969 95.042969 118.636719 95.527344 C 118.246094 95.988281 117.753906 96.351562 117.210938 96.617188 C 116.628906 96.894531 115.996094 97.046875 115.351562 97.054688 C 114.738281 97.058594 114.136719 96.929688 113.574219 96.679688 C 113.007812 96.421875 112.496094 96.042969 112.089844 95.570312 C 111.691406 95.109375 111.394531 94.566406 111.222656 93.980469 C 111.023438 93.332031 110.980469 92.601562 111.015625 91.921875 C 111.054688 91.121094 111.191406 90.3125 111.46875 89.558594 C 111.714844 88.875 112.074219 88.234375 112.523438 87.660156 C 112.558594 87.617188 112.613281 87.542969 112.648438 87.503906 C 112.621094 87.46875 112.574219 87.40625 112.542969 87.371094 C 112.175781 86.914062 111.898438 86.382812 111.714844 85.820312 C 111.535156 85.285156 111.441406 84.722656 111.445312 84.15625 C 111.445312 83.5 111.585938 82.835938 111.890625 82.253906 C 112.292969 81.5 112.949219 80.914062 113.738281 80.582031 C 114.007812 80.46875 114.285156 80.386719 114.570312 80.34375 C 114.785156 80.308594 115.101562 80.292969 115.320312 80.28125 "/>
<path style=" stroke:none;fill-rule:nonzero;fill:rgb(13.729858%,12.159729%,12.548828%);fill-opacity:1;" d="M 125.382812 80.285156 C 125.730469 80.285156 126.09375 80.355469 126.425781 80.457031 C 127.15625 80.675781 127.78125 81.195312 128.246094 81.800781 C 128.648438 82.332031 128.941406 82.96875 129.148438 83.601562 C 129.355469 84.210938 129.492188 84.839844 129.589844 85.476562 C 129.683594 86.125 129.734375 86.800781 129.757812 87.460938 C 129.78125 88.21875 129.773438 88.980469 129.722656 89.742188 C 129.671875 90.453125 129.585938 91.160156 129.457031 91.859375 C 129.3125 92.660156 129.105469 93.472656 128.804688 94.230469 C 128.535156 94.914062 128.148438 95.652344 127.605469 96.148438 C 127.007812 96.699219 126.226562 97.023438 125.40625 97.050781 C 124.636719 97.082031 123.867188 96.84375 123.261719 96.367188 C 122.605469 95.851562 122.148438 94.988281 121.859375 94.203125 C 121.585938 93.457031 121.394531 92.660156 121.269531 91.871094 C 121.15625 91.183594 121.085938 90.445312 121.035156 89.75 C 120.988281 89.066406 120.957031 88.296875 120.984375 87.609375 C 121.015625 86.90625 121.105469 86.175781 121.226562 85.480469 C 121.335938 84.871094 121.472656 84.226562 121.660156 83.636719 C 121.859375 83 122.148438 82.347656 122.546875 81.816406 C 123.023438 81.175781 123.679688 80.648438 124.445312 80.433594 C 124.742188 80.351562 125.070312 80.285156 125.382812 80.285156 "/>
<path style=" stroke:none;fill-rule:nonzero;fill:rgb(100%,100%,100%);fill-opacity:1;" d="M 115.304688 82.59375 C 115.675781 82.589844 116.03125 82.753906 116.308594 82.992188 C 116.605469 83.25 116.753906 83.632812 116.777344 84.019531 C 116.792969 84.320312 116.71875 84.65625 116.617188 84.945312 C 116.539062 85.179688 116.441406 85.410156 116.328125 85.632812 C 116.242188 85.808594 116.113281 86.023438 115.964844 86.148438 C 115.78125 86.300781 115.550781 86.378906 115.3125 86.375 C 115.070312 86.375 114.839844 86.289062 114.65625 86.136719 C 114.535156 86.03125 114.421875 85.863281 114.339844 85.722656 C 114.191406 85.476562 114.0625 85.210938 113.96875 84.9375 C 113.871094 84.65625 113.808594 84.34375 113.828125 84.042969 C 113.855469 83.675781 113.992188 83.300781 114.257812 83.050781 C 114.546875 82.777344 114.910156 82.597656 115.304688 82.59375 "/>
<path style=" stroke:none;fill-rule:nonzero;fill:rgb(100%,100%,100%);fill-opacity:1;" d="M 115.316406 88.761719 C 115.542969 88.777344 115.753906 88.867188 115.9375 88.996094 C 116.058594 89.085938 116.175781 89.234375 116.261719 89.359375 C 116.449219 89.628906 116.609375 89.925781 116.734375 90.230469 C 116.925781 90.671875 117.0625 91.132812 117.144531 91.605469 C 117.226562 92.070312 117.253906 92.570312 117.15625 93.027344 C 117.074219 93.425781 116.90625 93.816406 116.625 94.109375 C 116.292969 94.464844 115.832031 94.667969 115.347656 94.691406 C 114.796875 94.714844 114.265625 94.507812 113.882812 94.109375 C 113.601562 93.816406 113.425781 93.425781 113.351562 93.027344 C 113.261719 92.578125 113.304688 92.054688 113.382812 91.605469 C 113.460938 91.136719 113.578125 90.675781 113.734375 90.226562 C 113.851562 89.902344 114.015625 89.527344 114.238281 89.265625 C 114.367188 89.117188 114.523438 88.980469 114.703125 88.902344 C 114.894531 88.8125 115.109375 88.75 115.316406 88.761719 "/>
<path style=" stroke:none;fill-rule:nonzero;fill:rgb(100%,100%,100%);fill-opacity:1;" d="M 125.402344 82.695312 C 125.589844 82.6875 125.773438 82.726562 125.9375 82.820312 C 126.097656 82.902344 126.230469 83.054688 126.328125 83.203125 C 126.488281 83.453125 126.601562 83.808594 126.675781 84.097656 C 126.804688 84.589844 126.902344 85.089844 126.980469 85.59375 C 127.058594 86.113281 127.113281 86.640625 127.148438 87.164062 C 127.1875 87.703125 127.207031 88.242188 127.203125 88.78125 C 127.199219 89.390625 127.175781 90 127.121094 90.609375 C 127.066406 91.21875 126.980469 91.851562 126.847656 92.449219 C 126.757812 92.863281 126.636719 93.28125 126.472656 93.675781 C 126.390625 93.878906 126.28125 94.09375 126.15625 94.273438 C 126.066406 94.390625 125.960938 94.507812 125.835938 94.589844 C 125.703125 94.675781 125.542969 94.730469 125.382812 94.738281 C 125.1875 94.753906 124.992188 94.707031 124.835938 94.597656 C 124.722656 94.519531 124.617188 94.390625 124.539062 94.277344 C 124.417969 94.089844 124.3125 93.886719 124.226562 93.679688 C 124.066406 93.292969 123.957031 92.855469 123.878906 92.445312 C 123.769531 91.863281 123.699219 91.164062 123.652344 90.578125 C 123.609375 90 123.566406 89.332031 123.566406 88.753906 C 123.566406 88.21875 123.597656 87.675781 123.652344 87.144531 C 123.707031 86.617188 123.78125 86.085938 123.875 85.5625 C 123.960938 85.085938 124.0625 84.585938 124.191406 84.121094 C 124.273438 83.816406 124.402344 83.453125 124.578125 83.195312 C 124.679688 83.050781 124.8125 82.90625 124.96875 82.820312 C 125.101562 82.753906 125.25 82.703125 125.402344 82.695312 "/>
</g>
</svg>
