<?xml version="1.0" encoding="UTF-8"?>
<svg xmlns="http://www.w3.org/2000/svg" xmlns:xlink="http://www.w3.org/1999/xlink" width="71pt" height="100pt" viewBox="0 0 71 100" version="1.1">
<g id="surface1">
<path style=" stroke:none;fill-rule:nonzero;fill:rgb(100%,100%,100%);fill-opacity:1;" d="M 0.792969 99.777344 L 70.242188 99.777344 L 70.242188 0.566406 L 0.792969 0.566406 Z M 0.792969 99.777344 "/>
<path style="fill:none;stroke-width:2.835;stroke-linecap:butt;stroke-linejoin:miter;stroke:rgb(13.729858%,12.159729%,12.548828%);stroke-opacity:1;stroke-miterlimit:4;" d="M 7.929688 2.226562 L 702.421875 2.226562 L 702.421875 994.335938 L 7.929688 994.335938 L 7.929688 2.226562 " transform="matrix(0.1,0,0,-0.1,0,100)"/>
<path style=" stroke:none;fill-rule:nonzero;fill:rgb(10.112%,40.585327%,73.280334%);fill-opacity:1;" d="M 2.277344 98.289062 L 68.75 98.289062 L 68.75 2.054688 L 2.277344 2.054688 Z M 2.277344 98.289062 "/>
<path style=" stroke:none;fill-rule:nonzero;fill:rgb(100%,100%,100%);fill-opacity:1;" d="M 14.609375 87.03125 C 14.960938 87.15625 15.382812 87.28125 15.90625 87.402344 C 16.425781 87.527344 16.996094 87.574219 17.671875 87.574219 C 18.890625 87.574219 19.910156 87.355469 20.753906 86.882812 C 21.578125 86.410156 22.273438 85.761719 22.792969 84.914062 C 23.316406 84.070312 23.691406 83.050781 23.914062 81.855469 C 24.136719 80.6875 24.261719 79.367188 24.261719 77.925781 C 24.261719 76.734375 24.160156 75.640625 23.988281 74.644531 C 23.816406 73.648438 23.515625 72.777344 23.09375 72.054688 C 22.671875 71.335938 22.125 70.789062 21.449219 70.390625 C 20.753906 69.992188 19.910156 69.792969 18.890625 69.792969 C 17.347656 69.792969 16.128906 70.289062 15.207031 71.285156 C 14.289062 72.28125 13.839844 73.699219 13.839844 75.515625 C 13.839844 76.335938 13.964844 77.082031 14.1875 77.753906 C 14.410156 78.421875 14.710938 79.023438 15.132812 79.492188 C 15.53125 79.964844 16.003906 80.339844 16.578125 80.613281 C 17.125 80.886719 17.746094 81.035156 18.417969 81.035156 C 19.238281 81.035156 19.933594 80.859375 20.480469 80.488281 C 21.003906 80.140625 21.425781 79.667969 21.726562 79.097656 L 21.777344 79.117188 C 21.75 79.890625 21.675781 80.660156 21.527344 81.410156 C 21.378906 82.179688 21.128906 82.851562 20.804688 83.449219 C 20.457031 84.046875 20.007812 84.519531 19.484375 84.890625 C 18.964844 85.265625 18.292969 85.460938 17.523438 85.460938 C 16.949219 85.460938 16.425781 85.390625 15.953125 85.214844 C 15.480469 85.066406 15.082031 84.890625 14.761719 84.71875 L 14.609375 87.03125 "/>
<path style=" stroke:none;fill-rule:nonzero;fill:rgb(100%,100%,100%);fill-opacity:1;" d="M 26.113281 83.597656 L 32.832031 83.597656 L 32.832031 87.378906 L 35.320312 87.378906 L 35.320312 83.597656 L 37.230469 83.597656 L 37.230469 81.535156 L 35.320312 81.535156 L 35.320312 70.019531 L 32.234375 70.019531 L 26.113281 81.109375 L 26.113281 83.597656 "/>
<path style=" stroke:none;fill-rule:nonzero;fill:rgb(100%,100%,100%);fill-opacity:1;" d="M 39.839844 90.363281 L 41.976562 90.363281 L 43.746094 84.394531 L 41.105469 84.394531 L 39.839844 90.363281 "/>
<path style=" stroke:none;fill-rule:nonzero;fill:rgb(100%,100%,100%);fill-opacity:1;" d="M 49.308594 78.277344 L 49.257812 78.25 C 49.285156 77.480469 49.355469 76.707031 49.507812 75.9375 C 49.65625 75.191406 49.90625 74.519531 50.253906 73.921875 C 50.578125 73.328125 51.027344 72.828125 51.546875 72.453125 C 52.070312 72.082031 52.742188 71.90625 53.511719 71.90625 C 54.085938 71.90625 54.605469 71.980469 55.082031 72.132812 C 55.550781 72.304688 55.949219 72.480469 56.273438 72.652344 L 56.398438 70.339844 C 56.050781 70.21875 55.628906 70.089844 55.128906 69.96875 C 54.605469 69.84375 54.035156 69.792969 53.363281 69.792969 C 52.144531 69.792969 51.125 70.019531 50.300781 70.488281 C 49.457031 70.960938 48.785156 71.605469 48.265625 72.453125 C 47.742188 73.300781 47.34375 74.320312 47.117188 75.488281 C 46.894531 76.683594 46.773438 78 46.773438 79.445312 C 46.773438 80.640625 46.871094 81.730469 47.042969 82.726562 C 47.21875 83.722656 47.519531 84.566406 47.941406 85.289062 C 48.363281 86.011719 48.910156 86.585938 49.605469 86.980469 C 50.28125 87.378906 51.125 87.574219 52.144531 87.574219 C 53.6875 87.574219 54.90625 87.082031 55.828125 86.085938 C 56.746094 85.113281 57.195312 83.699219 57.195312 81.882812 C 57.195312 81.058594 57.09375 80.316406 56.867188 79.644531 C 56.648438 78.96875 56.324219 78.375 55.921875 77.878906 C 55.5 77.402344 55.03125 77.003906 54.457031 76.734375 C 53.886719 76.457031 53.289062 76.335938 52.613281 76.335938 C 51.796875 76.335938 51.097656 76.507812 50.578125 76.855469 C 50.03125 77.230469 49.605469 77.703125 49.308594 78.277344 "/>
<path style=" stroke:none;fill-rule:nonzero;fill:rgb(100%,100%,100%);fill-opacity:1;" d="M 10.714844 60.09375 L 60.320312 60.09375 L 60.320312 10.488281 L 10.714844 10.488281 Z M 10.714844 60.09375 "/>
<path style=" stroke:none;fill-rule:nonzero;fill:rgb(10.112%,40.585327%,73.280334%);fill-opacity:1;" d="M 17.84375 78.621094 C 17.523438 78.449219 17.273438 78.175781 17.074219 77.851562 C 16.875 77.53125 16.726562 77.15625 16.625 76.734375 C 16.527344 76.308594 16.476562 75.886719 16.476562 75.414062 C 16.476562 74.914062 16.527344 74.445312 16.625 74.023438 C 16.726562 73.597656 16.875 73.199219 17.097656 72.878906 C 17.296875 72.554688 17.546875 72.304688 17.871094 72.132812 C 18.167969 71.957031 18.539062 71.855469 18.964844 71.855469 C 19.386719 71.855469 19.761719 71.957031 20.082031 72.132812 C 20.40625 72.304688 20.65625 72.554688 20.851562 72.878906 C 21.050781 73.199219 21.203125 73.597656 21.300781 74.023438 C 21.402344 74.445312 21.449219 74.914062 21.449219 75.414062 C 21.449219 75.886719 21.402344 76.335938 21.300781 76.757812 C 21.203125 77.179688 21.050781 77.554688 20.851562 77.878906 C 20.632812 78.199219 20.382812 78.472656 20.058594 78.648438 C 19.734375 78.824219 19.386719 78.921875 18.964844 78.921875 C 18.539062 78.921875 18.167969 78.824219 17.84375 78.621094 "/>
<path style=" stroke:none;fill-rule:nonzero;fill:rgb(10.112%,40.585327%,73.280334%);fill-opacity:1;" d="M 28.179688 81.535156 L 32.78125 72.703125 L 32.832031 72.703125 L 32.832031 81.535156 L 28.179688 81.535156 "/>
<path style=" stroke:none;fill-rule:nonzero;fill:rgb(10.112%,40.585327%,73.280334%);fill-opacity:1;" d="M 50.179688 84.46875 C 49.953125 84.144531 49.804688 83.773438 49.707031 83.347656 C 49.605469 82.925781 49.554688 82.476562 49.554688 81.980469 C 49.554688 81.507812 49.605469 81.035156 49.730469 80.613281 C 49.832031 80.191406 49.980469 79.816406 50.203125 79.492188 C 50.402344 79.167969 50.652344 78.921875 50.972656 78.722656 C 51.296875 78.546875 51.644531 78.449219 52.070312 78.449219 C 52.492188 78.449219 52.863281 78.546875 53.1875 78.722656 C 53.511719 78.921875 53.761719 79.167969 53.960938 79.492188 C 54.15625 79.816406 54.308594 80.214844 54.40625 80.640625 C 54.507812 81.058594 54.554688 81.507812 54.554688 81.980469 C 54.554688 82.476562 54.507812 82.925781 54.40625 83.347656 C 54.308594 83.773438 54.15625 84.144531 53.960938 84.46875 C 53.738281 84.792969 53.488281 85.066406 53.164062 85.238281 C 52.839844 85.414062 52.492188 85.511719 52.070312 85.511719 C 51.644531 85.511719 51.273438 85.414062 50.949219 85.238281 C 50.628906 85.066406 50.378906 84.792969 50.179688 84.46875 "/>
<path style=" stroke:none;fill-rule:nonzero;fill:rgb(13.729858%,12.159729%,12.548828%);fill-opacity:1;" d="M 18.160156 32.109375 L 19.953125 32.109375 L 19.953125 25.984375 L 20.515625 25.984375 C 20.996094 25.984375 21.359375 26.082031 21.628906 26.300781 C 21.875 26.523438 22.089844 26.917969 22.238281 27.496094 L 23.484375 32.109375 L 25.390625 32.109375 L 23.832031 26.679688 C 23.683594 26.160156 23.503906 25.804688 23.300781 25.585938 C 23.085938 25.386719 22.835938 25.246094 22.554688 25.1875 L 22.554688 25.148438 C 23.316406 24.96875 23.882812 24.59375 24.265625 23.996094 C 24.644531 23.398438 24.828125 22.679688 24.828125 21.84375 C 24.828125 21.207031 24.742188 20.671875 24.582031 20.210938 C 24.414062 19.757812 24.183594 19.378906 23.882812 19.078125 C 23.585938 18.78125 23.234375 18.5625 22.820312 18.421875 C 22.40625 18.28125 21.941406 18.222656 21.445312 18.222656 L 18.160156 18.222656 L 18.160156 32.109375 "/>
<path style=" stroke:none;fill-rule:nonzero;fill:rgb(13.729858%,12.159729%,12.548828%);fill-opacity:1;" d="M 31.335938 32.109375 L 32.898438 32.109375 C 32.878906 31.933594 32.847656 31.675781 32.828125 31.375 C 32.8125 31.078125 32.796875 30.761719 32.796875 30.421875 L 32.796875 25.546875 C 32.796875 24.867188 32.746094 24.3125 32.628906 23.875 C 32.515625 23.4375 32.332031 23.078125 32.113281 22.78125 C 31.933594 22.519531 31.632812 22.285156 31.234375 22.066406 C 30.839844 21.863281 30.324219 21.765625 29.675781 21.765625 C 29.128906 21.765625 28.648438 21.84375 28.234375 22.003906 C 27.820312 22.164062 27.4375 22.339844 27.121094 22.558594 L 27.253906 24.332031 C 27.472656 24.074219 27.785156 23.835938 28.199219 23.617188 C 28.597656 23.417969 29.03125 23.316406 29.511719 23.316406 C 30.125 23.316406 30.554688 23.515625 30.824219 23.914062 C 30.953125 24.113281 31.054688 24.332031 31.105469 24.570312 C 31.152344 24.828125 31.171875 25.109375 31.171875 25.425781 L 31.171875 25.84375 L 30.554688 25.84375 C 29.179688 25.84375 28.117188 26.125 27.402344 26.660156 C 26.691406 27.21875 26.324219 28.09375 26.324219 29.285156 C 26.324219 29.765625 26.394531 30.183594 26.523438 30.5625 C 26.65625 30.941406 26.839844 31.238281 27.074219 31.496094 C 27.285156 31.753906 27.554688 31.933594 27.851562 32.054688 C 28.152344 32.191406 28.464844 32.25 28.8125 32.25 C 29.445312 32.25 29.941406 32.09375 30.324219 31.773438 C 30.6875 31.476562 30.984375 31.117188 31.203125 30.71875 L 31.234375 30.71875 C 31.234375 30.777344 31.234375 30.878906 31.253906 31.019531 C 31.253906 31.15625 31.253906 31.296875 31.269531 31.4375 C 31.285156 31.574219 31.285156 31.714844 31.304688 31.835938 C 31.320312 31.972656 31.320312 32.054688 31.335938 32.109375 "/>
<path style=" stroke:none;fill-rule:nonzero;fill:rgb(13.729858%,12.159729%,12.548828%);fill-opacity:1;" d="M 39.460938 32.109375 L 41.105469 32.109375 C 41.085938 31.855469 41.070312 31.574219 41.054688 31.277344 C 41.035156 30.976562 41.035156 30.640625 41.035156 30.300781 L 41.035156 17.1875 L 39.3125 17.1875 L 39.3125 23.335938 L 39.277344 23.335938 C 39.0625 22.878906 38.78125 22.5 38.433594 22.203125 C 38.082031 21.90625 37.636719 21.765625 37.085938 21.765625 C 36.191406 21.765625 35.480469 22.203125 34.949219 23.097656 C 34.417969 23.996094 34.152344 25.285156 34.152344 27.019531 C 34.152344 27.816406 34.21875 28.53125 34.351562 29.167969 C 34.46875 29.824219 34.667969 30.363281 34.917969 30.820312 C 35.167969 31.277344 35.480469 31.636719 35.84375 31.875 C 36.207031 32.128906 36.640625 32.25 37.121094 32.25 C 37.4375 32.25 37.71875 32.210938 37.96875 32.09375 C 38.199219 31.992188 38.414062 31.875 38.597656 31.714844 C 38.78125 31.554688 38.929688 31.375 39.042969 31.175781 C 39.160156 30.976562 39.277344 30.777344 39.359375 30.5625 L 39.410156 30.5625 C 39.410156 30.660156 39.410156 30.777344 39.429688 30.941406 C 39.429688 31.097656 39.429688 31.257812 39.445312 31.414062 C 39.445312 31.574219 39.445312 31.714844 39.460938 31.855469 C 39.460938 31.992188 39.460938 32.074219 39.460938 32.109375 "/>
<path style=" stroke:none;fill-rule:nonzero;fill:rgb(13.729858%,12.159729%,12.548828%);fill-opacity:1;" d="M 42.691406 32.109375 L 44.414062 32.109375 L 44.414062 21.90625 L 42.691406 21.90625 L 42.691406 32.109375 "/>
<path style=" stroke:none;fill-rule:nonzero;fill:rgb(13.729858%,12.159729%,12.548828%);fill-opacity:1;" d="M 42.640625 19.855469 L 44.464844 19.855469 L 44.464844 17.648438 L 42.640625 17.648438 L 42.640625 19.855469 "/>
<path style=" stroke:none;fill-rule:nonzero;fill:rgb(13.729858%,12.159729%,12.548828%);fill-opacity:1;" d="M 46.757812 31.019531 C 47.070312 31.4375 47.453125 31.753906 47.902344 31.953125 C 48.332031 32.148438 48.796875 32.25 49.292969 32.25 C 49.792969 32.25 50.257812 32.148438 50.707031 31.953125 C 51.136719 31.753906 51.515625 31.4375 51.835938 31.019531 C 52.148438 30.597656 52.414062 30.0625 52.59375 29.40625 C 52.78125 28.75 52.878906 27.933594 52.878906 27 C 52.878906 26.082031 52.78125 25.285156 52.59375 24.628906 C 52.414062 23.972656 52.148438 23.417969 51.835938 23 C 51.515625 22.582031 51.136719 22.261719 50.707031 22.066406 C 50.257812 21.863281 49.792969 21.765625 49.292969 21.765625 C 48.796875 21.765625 48.332031 21.863281 47.902344 22.066406 C 47.453125 22.261719 47.070312 22.582031 46.757812 23 C 46.441406 23.417969 46.175781 23.972656 45.992188 24.628906 C 45.8125 25.285156 45.710938 26.082031 45.710938 27 C 45.710938 27.933594 45.8125 28.75 45.992188 29.40625 C 46.175781 30.0625 46.441406 30.597656 46.757812 31.019531 "/>
<path style=" stroke:none;fill-rule:nonzero;fill:rgb(13.729858%,12.159729%,12.548828%);fill-opacity:1;" d="M 21.222656 51.992188 L 24.105469 51.992188 C 25.242188 51.992188 26.234375 51.832031 27.09375 51.492188 C 27.949219 51.175781 28.683594 50.71875 29.261719 50.097656 C 29.835938 49.484375 30.253906 48.746094 30.554688 47.871094 C 30.851562 46.996094 30.992188 46.023438 30.992188 44.925781 C 30.992188 43.414062 30.753906 42.179688 30.253906 41.222656 C 29.757812 40.289062 29.121094 39.574219 28.367188 39.078125 C 27.90625 38.777344 27.371094 38.539062 26.773438 38.359375 C 26.15625 38.179688 25.417969 38.101562 24.546875 38.101562 L 21.222656 38.101562 L 21.222656 51.992188 "/>
<path style=" stroke:none;fill-rule:nonzero;fill:rgb(13.729858%,12.159729%,12.548828%);fill-opacity:1;" d="M 32.40625 51.992188 L 34.558594 51.992188 L 34.558594 45.859375 L 35.230469 45.859375 C 35.808594 45.859375 36.246094 45.960938 36.566406 46.179688 C 36.863281 46.398438 37.121094 46.796875 37.300781 47.371094 L 38.792969 51.992188 L 41.082031 51.992188 L 39.210938 46.558594 C 39.03125 46.039062 38.8125 45.679688 38.574219 45.460938 C 38.316406 45.261719 38.019531 45.125 37.679688 45.066406 L 37.679688 45.027344 C 38.59375 44.847656 39.269531 44.46875 39.726562 43.871094 C 40.1875 43.273438 40.40625 42.558594 40.40625 41.722656 C 40.40625 41.085938 40.304688 40.546875 40.105469 40.089844 C 39.90625 39.632812 39.628906 39.257812 39.269531 38.957031 C 38.910156 38.65625 38.492188 38.4375 37.996094 38.300781 C 37.5 38.160156 36.945312 38.101562 36.347656 38.101562 L 32.40625 38.101562 L 32.40625 51.992188 "/>
<path style=" stroke:none;fill-rule:nonzero;fill:rgb(13.729858%,12.159729%,12.548828%);fill-opacity:1;" d="M 42.4375 51.554688 C 42.796875 51.753906 43.234375 51.890625 43.753906 52.007812 C 44.269531 52.109375 44.847656 52.152344 45.484375 52.152344 C 46.816406 52.152344 47.890625 51.792969 48.667969 51.074219 C 49.445312 50.359375 49.820312 49.363281 49.820312 48.089844 C 49.820312 47.492188 49.738281 46.976562 49.5625 46.558594 C 49.382812 46.140625 49.125 45.761719 48.824219 45.445312 C 48.527344 45.125 48.167969 44.828125 47.753906 44.566406 C 47.335938 44.308594 46.894531 44.050781 46.441406 43.792969 C 46.097656 43.59375 45.800781 43.414062 45.5625 43.234375 C 45.304688 43.054688 45.105469 42.898438 44.964844 42.71875 C 44.804688 42.558594 44.6875 42.378906 44.628906 42.179688 C 44.566406 42 44.53125 41.78125 44.53125 41.542969 C 44.53125 41.007812 44.707031 40.546875 45.066406 40.210938 C 45.421875 39.871094 45.917969 39.691406 46.578125 39.691406 C 47.074219 39.691406 47.550781 39.753906 47.96875 39.871094 C 48.386719 40.011719 48.746094 40.152344 49.066406 40.308594 L 49.125 38.398438 C 48.867188 38.300781 48.488281 38.179688 48.03125 38.082031 C 47.550781 37.980469 47.015625 37.921875 46.417969 37.921875 C 45.863281 37.921875 45.34375 38 44.847656 38.140625 C 44.347656 38.300781 43.910156 38.539062 43.53125 38.835938 C 43.15625 39.15625 42.855469 39.53125 42.636719 39.992188 C 42.417969 40.449219 42.296875 40.96875 42.296875 41.5625 C 42.296875 42.179688 42.378906 42.675781 42.558594 43.097656 C 42.738281 43.515625 42.976562 43.894531 43.273438 44.191406 C 43.574219 44.507812 43.910156 44.785156 44.332031 45.027344 C 44.726562 45.285156 45.164062 45.542969 45.621094 45.824219 C 46 46.039062 46.320312 46.257812 46.578125 46.4375 C 46.835938 46.636719 47.035156 46.835938 47.195312 47.015625 C 47.335938 47.195312 47.453125 47.394531 47.511719 47.59375 C 47.574219 47.8125 47.59375 48.03125 47.59375 48.289062 C 47.59375 48.925781 47.375 49.421875 46.957031 49.800781 C 46.535156 50.179688 45.980469 50.378906 45.304688 50.378906 C 44.746094 50.378906 44.226562 50.277344 43.730469 50.078125 C 43.234375 49.898438 42.835938 49.703125 42.519531 49.503906 L 42.4375 51.554688 "/>
<path style=" stroke:none;fill-rule:nonzero;fill:rgb(100%,100%,100%);fill-opacity:1;" d="M 19.953125 24.332031 L 19.953125 19.914062 L 20.960938 19.914062 C 21.578125 19.914062 22.074219 20.074219 22.4375 20.390625 C 22.789062 20.710938 22.96875 21.269531 22.96875 22.042969 C 22.96875 22.699219 22.804688 23.257812 22.472656 23.675781 C 22.125 24.113281 21.628906 24.332031 20.945312 24.332031 L 19.953125 24.332031 "/>
<path style=" stroke:none;fill-rule:nonzero;fill:rgb(100%,100%,100%);fill-opacity:1;" d="M 31.171875 27.117188 L 31.171875 28.035156 C 31.171875 28.847656 31.023438 29.507812 30.722656 30.003906 C 30.40625 30.523438 29.957031 30.777344 29.34375 30.777344 C 28.898438 30.777344 28.566406 30.621094 28.332031 30.324219 C 28.101562 30.023438 27.984375 29.605469 27.984375 29.105469 C 27.984375 28.433594 28.199219 27.933594 28.648438 27.59375 C 29.097656 27.257812 29.742188 27.097656 30.589844 27.097656 C 30.6875 27.097656 30.785156 27.097656 30.90625 27.097656 C 31.023438 27.097656 31.121094 27.097656 31.171875 27.117188 "/>
<path style=" stroke:none;fill-rule:nonzero;fill:rgb(100%,100%,100%);fill-opacity:1;" d="M 36.257812 29.746094 C 36.007812 29.128906 35.878906 28.191406 35.878906 26.957031 C 35.878906 25.785156 36.007812 24.890625 36.277344 24.273438 C 36.539062 23.65625 36.972656 23.335938 37.585938 23.335938 C 38.199219 23.335938 38.632812 23.65625 38.910156 24.3125 C 39.179688 24.96875 39.3125 25.863281 39.3125 27 C 39.3125 28.132812 39.179688 29.03125 38.910156 29.683594 C 38.632812 30.34375 38.183594 30.679688 37.570312 30.679688 C 36.9375 30.679688 36.507812 30.363281 36.257812 29.746094 "/>
<path style=" stroke:none;fill-rule:nonzero;fill:rgb(100%,100%,100%);fill-opacity:1;" d="M 47.902344 29.644531 C 47.753906 29.304688 47.652344 28.929688 47.601562 28.46875 C 47.535156 28.015625 47.503906 27.535156 47.503906 27 C 47.503906 26.460938 47.535156 25.984375 47.601562 25.527344 C 47.652344 25.066406 47.753906 24.691406 47.902344 24.351562 C 48.050781 24.03125 48.234375 23.777344 48.464844 23.597656 C 48.679688 23.417969 48.964844 23.316406 49.292969 23.316406 C 49.628906 23.316406 49.910156 23.417969 50.140625 23.597656 C 50.355469 23.777344 50.539062 24.03125 50.6875 24.351562 C 50.839844 24.691406 50.9375 25.066406 51.003906 25.527344 C 51.050781 25.984375 51.085938 26.460938 51.085938 27 C 51.085938 27.535156 51.050781 28.015625 51.003906 28.46875 C 50.9375 28.929688 50.839844 29.304688 50.6875 29.644531 C 50.539062 29.984375 50.355469 30.242188 50.140625 30.421875 C 49.910156 30.597656 49.628906 30.699219 49.292969 30.699219 C 48.964844 30.699219 48.679688 30.597656 48.464844 30.421875 C 48.234375 30.242188 48.050781 29.984375 47.902344 29.644531 "/>
<path style=" stroke:none;fill-rule:nonzero;fill:rgb(100%,100%,100%);fill-opacity:1;" d="M 23.371094 50.257812 L 23.371094 39.832031 L 24.328125 39.832031 C 25.101562 39.832031 25.777344 39.953125 26.335938 40.210938 C 26.894531 40.46875 27.351562 40.808594 27.707031 41.265625 C 28.046875 41.722656 28.304688 42.257812 28.484375 42.878906 C 28.644531 43.492188 28.722656 44.191406 28.722656 44.925781 C 28.722656 46.578125 28.367188 47.890625 27.648438 48.828125 C 26.914062 49.78125 25.816406 50.257812 24.328125 50.257812 L 23.371094 50.257812 "/>
<path style=" stroke:none;fill-rule:nonzero;fill:rgb(100%,100%,100%);fill-opacity:1;" d="M 34.558594 44.210938 L 34.558594 39.792969 L 35.769531 39.792969 C 36.503906 39.792969 37.101562 39.953125 37.539062 40.269531 C 37.957031 40.589844 38.175781 41.144531 38.175781 41.921875 C 38.175781 42.578125 37.976562 43.136719 37.578125 43.550781 C 37.160156 43.992188 36.566406 44.210938 35.75 44.210938 L 34.558594 44.210938 "/>
</g>
</svg>
