<?xml version="1.0" encoding="UTF-8"?>
<svg xmlns="http://www.w3.org/2000/svg" xmlns:xlink="http://www.w3.org/1999/xlink" width="87pt" height="86pt" viewBox="0 0 87 86" version="1.1">
<g id="surface1">
<path style=" stroke:none;fill-rule:nonzero;fill:rgb(100%,100%,100%);fill-opacity:1;" d="M 1 85.691406 L 86.039062 85.691406 L 86.039062 0.652344 L 1 0.652344 Z M 1 85.691406 "/>
<path style="fill:none;stroke-width:2.835;stroke-linecap:butt;stroke-linejoin:miter;stroke:rgb(13.729858%,12.159729%,12.548828%);stroke-opacity:1;stroke-miterlimit:4;" d="M 10 3.085938 L 860.390625 3.085938 L 860.390625 853.476562 L 10 853.476562 L 10 3.085938 " transform="matrix(0.1,0,0,-0.1,0,86)"/>
<path style=" stroke:none;fill-rule:nonzero;fill:rgb(13.729858%,12.159729%,12.548828%);fill-opacity:1;" d="M 34.804688 45.683594 C 35.039062 44.679688 35.203125 43.894531 35.5625 42.925781 C 35.9375 41.917969 36.367188 40.953125 36.871094 40 L 6.683594 40 L 6.71875 45.722656 L 34.804688 45.683594 "/>
<path style=" stroke:none;fill-rule:nonzero;fill:rgb(13.729858%,12.159729%,12.548828%);fill-opacity:1;" d="M 40.871094 34.636719 C 41.785156 33.8125 42.273438 33.253906 43.222656 32.484375 C 44.15625 31.714844 45.570312 30.726562 46.539062 30.011719 L 46.523438 6.101562 L 40.890625 6.101562 L 40.871094 34.636719 "/>
<path style=" stroke:none;fill-rule:nonzero;fill:rgb(13.729858%,12.159729%,12.548828%);fill-opacity:1;" d="M 37.914062 78.457031 L 49.359375 78.457031 L 49.375 53.003906 C 49.339844 50.042969 50.539062 47.03125 52.636719 44.933594 C 54.882812 42.691406 57.964844 41.507812 61.140625 41.6875 L 78.988281 41.648438 L 78.988281 30.277344 L 60.496094 30.296875 C 54.59375 30.261719 48.90625 32.539062 44.65625 36.628906 C 40.296875 40.824219 38.003906 46.546875 37.929688 52.609375 L 37.914062 78.457031 "/>
</g>
</svg>
