<?xml version="1.0" encoding="UTF-8"?>
<svg xmlns="http://www.w3.org/2000/svg" xmlns:xlink="http://www.w3.org/1999/xlink" width="129pt" height="44pt" viewBox="0 0 129 44" version="1.1">
<g id="surface1">
<path style=" stroke:none;fill-rule:nonzero;fill:rgb(100%,100%,100%);fill-opacity:1;" d="M 0.738281 43.433594 L 128.300781 43.433594 L 128.300781 0.914062 L 0.738281 0.914062 Z M 0.738281 43.433594 "/>
<path style="fill:none;stroke-width:2.835;stroke-linecap:butt;stroke-linejoin:miter;stroke:rgb(13.729858%,12.159729%,12.548828%);stroke-opacity:1;stroke-miterlimit:4;" d="M 7.382812 5.664062 L 1283.007812 5.664062 L 1283.007812 430.859375 L 7.382812 430.859375 L 7.382812 5.664062 " transform="matrix(0.1,0,0,-0.1,0,44)"/>
<path style=" stroke:none;fill-rule:nonzero;fill:rgb(13.729858%,12.159729%,12.548828%);fill-opacity:1;" d="M 7.828125 32.800781 L 26.253906 22.175781 L 7.828125 11.542969 L 7.828125 32.800781 "/>
<path style=" stroke:none;fill-rule:nonzero;fill:rgb(13.729858%,12.159729%,12.548828%);fill-opacity:1;" d="M 121.210938 32.800781 L 102.785156 22.175781 L 121.210938 11.542969 L 121.210938 32.800781 "/>
<path style=" stroke:none;fill-rule:nonzero;fill:rgb(13.729858%,12.159729%,12.548828%);fill-opacity:1;" d="M 32.089844 32.097656 C 32.664062 32.34375 33.328125 32.59375 34.070312 32.773438 C 34.808594 32.980469 35.578125 33.085938 36.402344 33.085938 C 37.367188 33.085938 38.246094 32.910156 39.039062 32.59375 C 39.839844 32.238281 40.5 31.738281 41.074219 31.140625 C 41.652344 30.496094 42.09375 29.71875 42.394531 28.828125 C 42.699219 27.9375 42.859375 26.945312 42.859375 25.808594 C 42.859375 24.882812 42.753906 24.066406 42.558594 23.355469 C 42.339844 22.644531 42.066406 22.078125 41.707031 21.578125 C 41.347656 21.082031 40.9375 20.691406 40.46875 20.40625 C 40 20.121094 39.507812 19.90625 38.984375 19.800781 L 38.984375 19.730469 C 39.402344 19.621094 39.808594 19.445312 40.25 19.199219 C 40.664062 18.949219 41.074219 18.59375 41.429688 18.132812 C 41.789062 17.671875 42.066406 17.101562 42.285156 16.390625 C 42.503906 15.714844 42.613281 14.898438 42.613281 13.902344 C 42.613281 12.90625 42.472656 11.984375 42.203125 11.203125 C 41.898438 10.421875 41.515625 9.78125 41.019531 9.246094 C 40.523438 8.714844 39.949219 8.324219 39.261719 8.074219 C 38.574219 7.824219 37.859375 7.683594 37.0625 7.683594 C 36.128906 7.683594 35.304688 7.792969 34.589844 7.96875 C 33.847656 8.179688 33.214844 8.429688 32.664062 8.714844 L 32.859375 12.089844 C 33.433594 11.699219 34.070312 11.378906 34.699219 11.128906 C 35.332031 10.882812 35.9375 10.777344 36.460938 10.777344 C 37.367188 10.777344 38.132812 11.09375 38.765625 11.734375 C 39.402344 12.375 39.699219 13.296875 39.699219 14.46875 C 39.699219 15.214844 39.589844 15.820312 39.371094 16.316406 C 39.152344 16.855469 38.847656 17.242188 38.464844 17.597656 C 38.050781 17.917969 37.585938 18.167969 37.035156 18.308594 C 36.484375 18.488281 35.878906 18.554688 35.25 18.554688 L 34.449219 18.554688 L 34.449219 21.539062 C 34.617188 21.539062 34.835938 21.539062 35.113281 21.507812 C 35.355469 21.507812 35.6875 21.507812 36.074219 21.507812 C 37.226562 21.507812 38.132812 21.859375 38.796875 22.539062 C 39.453125 23.210938 39.78125 24.207031 39.78125 25.449219 C 39.78125 26.230469 39.671875 26.910156 39.480469 27.476562 C 39.289062 28.046875 39.015625 28.507812 38.683594 28.863281 C 38.328125 29.253906 37.941406 29.535156 37.503906 29.71875 C 37.035156 29.894531 36.566406 30 36.042969 30 C 35.304688 30 34.617188 29.855469 33.984375 29.574219 C 33.351562 29.324219 32.777344 29.003906 32.28125 28.683594 L 32.089844 32.097656 "/>
<path style=" stroke:none;fill-rule:nonzero;fill:rgb(13.729858%,12.159729%,12.548828%);fill-opacity:1;" d="M 45.363281 37.070312 L 47.726562 37.070312 L 49.679688 28.542969 L 46.765625 28.542969 L 45.363281 37.070312 "/>
<path style=" stroke:none;fill-rule:nonzero;fill:rgb(13.729858%,12.159729%,12.548828%);fill-opacity:1;" d="M 52.324219 32.804688 L 61.222656 32.804688 L 61.222656 30.121094 L 55.101562 30.121094 L 55.707031 29.273438 C 56.433594 28.246094 57.132812 27.191406 57.789062 26.101562 C 58.417969 25.042969 58.980469 23.957031 59.46875 22.902344 C 59.960938 21.84375 60.335938 20.816406 60.613281 19.789062 C 60.894531 18.789062 61.035156 17.824219 61.035156 16.917969 C 61.035156 16.167969 60.941406 15.472656 60.777344 14.804688 C 60.59375 14.140625 60.3125 13.566406 59.960938 13.050781 C 59.589844 12.570312 59.121094 12.175781 58.585938 11.875 C 58.023438 11.605469 57.367188 11.453125 56.617188 11.453125 C 55.847656 11.453125 55.125 11.574219 54.496094 11.785156 C 53.839844 12.027344 53.234375 12.328125 52.695312 12.691406 L 52.953125 15.769531 C 53.328125 15.378906 53.792969 14.984375 54.332031 14.65625 C 54.871094 14.324219 55.476562 14.140625 56.15625 14.140625 C 56.878906 14.140625 57.460938 14.441406 57.855469 15.078125 C 58.257812 15.714844 58.464844 16.496094 58.464844 17.496094 C 58.464844 18.191406 58.351562 18.941406 58.117188 19.757812 C 57.855469 20.578125 57.535156 21.453125 57.085938 22.324219 C 56.644531 23.234375 56.128906 24.167969 55.546875 25.167969 C 54.9375 26.164062 54.285156 27.191406 53.5625 28.246094 L 52.324219 30.089844 L 52.324219 32.804688 "/>
<path style=" stroke:none;fill-rule:nonzero;fill:rgb(13.729858%,12.159729%,12.548828%);fill-opacity:1;" d="M 63.78125 29.96875 C 64.179688 30.933594 64.691406 31.691406 65.320312 32.234375 C 65.949219 32.777344 66.699219 33.046875 67.609375 33.046875 C 68.519531 33.046875 69.289062 32.777344 69.921875 32.203125 C 70.554688 31.660156 71.066406 30.90625 71.464844 29.9375 C 71.859375 28.972656 72.144531 27.824219 72.304688 26.523438 C 72.46875 25.226562 72.5625 23.804688 72.5625 22.265625 C 72.5625 20.722656 72.46875 19.304688 72.304688 17.976562 C 72.144531 16.675781 71.859375 15.53125 71.464844 14.566406 C 71.066406 13.59375 70.554688 12.84375 69.921875 12.269531 C 69.289062 11.722656 68.519531 11.453125 67.609375 11.453125 C 66.699219 11.453125 65.929688 11.722656 65.296875 12.269531 C 64.667969 12.84375 64.179688 13.59375 63.78125 14.566406 C 63.386719 15.53125 63.105469 16.675781 62.941406 17.976562 C 62.777344 19.304688 62.683594 20.722656 62.683594 22.265625 C 62.683594 23.804688 62.777344 25.226562 62.941406 26.523438 C 63.105469 27.855469 63.386719 29 63.78125 29.96875 "/>
<path style=" stroke:none;fill-rule:nonzero;fill:rgb(13.729858%,12.159729%,12.548828%);fill-opacity:1;" d="M 79.605469 32.804688 L 82.464844 32.804688 L 82.464844 21.648438 C 82.464844 20.300781 82.683594 19.269531 83.09375 18.519531 C 83.507812 17.777344 84.136719 17.417969 84.9375 17.417969 C 86.253906 17.417969 86.914062 18.554688 86.914062 20.796875 L 86.914062 32.804688 L 89.773438 32.804688 L 89.773438 21.648438 C 89.773438 20.300781 89.992188 19.269531 90.40625 18.519531 C 90.816406 17.777344 91.449219 17.417969 92.246094 17.417969 C 93.5625 17.417969 94.222656 18.554688 94.222656 20.796875 L 94.222656 32.804688 L 97.082031 32.804688 L 97.082031 20.867188 C 97.082031 18.738281 96.753906 17.101562 96.09375 16 C 95.40625 14.898438 94.386719 14.332031 93.015625 14.332031 C 92.105469 14.332031 91.367188 14.613281 90.785156 15.183594 C 90.210938 15.785156 89.773438 16.460938 89.414062 17.207031 C 89.277344 16.855469 89.113281 16.496094 88.917969 16.140625 C 88.726562 15.820312 88.480469 15.5 88.207031 15.214844 C 87.929688 14.96875 87.601562 14.753906 87.242188 14.578125 C 86.886719 14.398438 86.445312 14.332031 85.980469 14.332031 C 85.097656 14.332031 84.386719 14.613281 83.808594 15.183594 C 83.230469 15.785156 82.765625 16.496094 82.464844 17.386719 L 82.40625 17.386719 C 82.40625 17.277344 82.40625 17.066406 82.40625 16.78125 C 82.382812 16.535156 82.382812 16.25 82.382812 15.964844 C 82.351562 15.679688 82.351562 15.394531 82.351562 15.148438 C 82.324219 14.898438 82.324219 14.683594 82.324219 14.578125 L 79.492188 14.578125 C 79.523438 15.074219 79.546875 15.609375 79.578125 16.175781 C 79.605469 16.746094 79.605469 17.351562 79.605469 18.023438 L 79.605469 32.804688 "/>
<path style=" stroke:none;fill-rule:nonzero;fill:rgb(100%,100%,100%);fill-opacity:1;" d="M 65.695312 28.367188 C 65.34375 26.949219 65.15625 24.894531 65.15625 22.265625 C 65.15625 19.636719 65.34375 17.585938 65.695312 16.132812 C 66.042969 14.683594 66.699219 13.960938 67.609375 13.960938 C 68.546875 13.960938 69.199219 14.683594 69.550781 16.105469 C 69.898438 17.550781 70.085938 19.609375 70.085938 22.265625 C 70.085938 24.894531 69.898438 26.949219 69.550781 28.367188 C 69.175781 29.816406 68.519531 30.539062 67.609375 30.539062 C 66.699219 30.539062 66.042969 29.816406 65.695312 28.367188 "/>
</g>
</svg>
