<?xml version="1.0" encoding="UTF-8"?>
<svg xmlns="http://www.w3.org/2000/svg" xmlns:xlink="http://www.w3.org/1999/xlink" width="87pt" height="86pt" viewBox="0 0 87 86" version="1.1">
<g id="surface1">
<path style=" stroke:none;fill-rule:nonzero;fill:rgb(13.729858%,12.159729%,12.548828%);fill-opacity:1;" d="M 1 85.691406 L 86.039062 85.691406 L 86.039062 0.652344 L 1 0.652344 Z M 1 85.691406 "/>
<path style=" stroke:none;fill-rule:nonzero;fill:rgb(100%,100%,100%);fill-opacity:1;" d="M 1.707031 84.984375 L 85.328125 84.984375 L 85.328125 1.363281 L 1.707031 1.363281 Z M 1.707031 84.984375 "/>
<path style=" stroke:none;fill-rule:nonzero;fill:rgb(13.729858%,12.159729%,12.548828%);fill-opacity:1;" d="M 19.378906 71.953125 L 21.800781 71.324219 L 20.675781 69.855469 L 20.21875 70.203125 L 18.382812 67.71875 L 23.097656 64.21875 L 23.464844 64.886719 L 25 63.566406 L 21.996094 60.476562 L 23.464844 59.050781 L 26.683594 62.292969 L 41.453125 51.46875 L 42.855469 53.371094 L 27.722656 64.542969 L 28.066406 65.039062 L 36.199219 59.117188 L 37.453125 60.800781 L 29.949219 66.355469 C 29.84375 66.335938 29.691406 66.335938 29.582031 66.335938 C 28.417969 66.269531 27.246094 66.59375 26.230469 67.175781 C 25.28125 67.71875 24.503906 68.496094 23.9375 69.445312 C 23.378906 70.398438 23.074219 71.476562 23.097656 72.578125 C 23.117188 73.140625 23.226562 73.722656 23.378906 74.261719 C 23.441406 74.476562 23.570312 74.78125 23.636719 74.996094 L 7.269531 78.496094 L 7.398438 79.121094 L 6.492188 79.316406 L 6.363281 78.691406 L 4.222656 79.144531 L 3.832031 77.332031 L 18.988281 73.226562 L 19.378906 71.953125 "/>
<path style=" stroke:none;fill-rule:nonzero;fill:rgb(13.729858%,12.159729%,12.548828%);fill-opacity:1;" d="M 22.730469 43.898438 C 22.964844 43.835938 23.3125 43.726562 23.550781 43.683594 C 25.28125 43.253906 27.074219 43.078125 28.847656 43.078125 C 30.816406 43.101562 32.804688 43.382812 34.726562 43.878906 C 36.609375 44.398438 38.445312 45.152344 40.136719 46.125 C 41.863281 47.117188 43.445312 48.347656 44.847656 49.777344 C 46.230469 51.183594 47.441406 52.738281 48.4375 54.445312 C 49.429688 56.152344 50.183594 58.007812 50.703125 59.910156 C 51.160156 61.550781 51.441406 63.257812 51.484375 64.964844 C 51.484375 65.222656 51.484375 65.589844 51.484375 65.847656 L 50.183594 65.847656 C 50.183594 65.589844 50.183594 65.242188 50.164062 64.984375 C 50.121094 63.386719 49.863281 61.789062 49.429688 60.253906 C 48.933594 58.460938 48.21875 56.714844 47.269531 55.09375 C 46.339844 53.492188 45.214844 52.027344 43.898438 50.707031 C 42.574219 49.386719 41.085938 48.242188 39.484375 47.292969 C 37.886719 46.363281 36.179688 45.628906 34.382812 45.152344 C 32.589844 44.65625 30.707031 44.441406 28.847656 44.417969 C 27.203125 44.398438 25.476562 44.527344 23.894531 44.9375 C 23.65625 45 23.3125 45.089844 23.074219 45.175781 L 22.730469 43.898438 "/>
<path style=" stroke:none;fill-rule:nonzero;fill:rgb(13.729858%,12.159729%,12.548828%);fill-opacity:1;" d="M 29.285156 66.851562 C 32.417969 66.851562 34.925781 69.402344 34.925781 72.535156 C 34.925781 75.644531 32.394531 78.171875 29.261719 78.171875 C 26.148438 78.171875 23.617188 75.644531 23.617188 72.535156 C 23.617188 69.402344 26.148438 66.851562 29.285156 66.851562 "/>
<path style=" stroke:none;fill-rule:nonzero;fill:rgb(13.729858%,12.159729%,12.548828%);fill-opacity:1;" d="M 20.664062 36.339844 C 20.902344 36.277344 21.292969 36.1875 21.53125 36.125 C 23.929688 35.585938 26.398438 35.261719 28.859375 35.261719 C 31.519531 35.261719 34.179688 35.605469 36.75 36.320312 C 39.304688 37.011719 41.746094 38.046875 44.035156 39.363281 C 46.351562 40.703125 48.511719 42.34375 50.394531 44.246094 C 52.273438 46.125 53.898438 48.21875 55.214844 50.515625 C 56.535156 52.824219 57.574219 55.308594 58.265625 57.878906 C 58.910156 60.191406 59.28125 62.589844 59.324219 64.964844 C 59.324219 65.222656 59.324219 65.589844 59.324219 65.847656 L 58.175781 65.847656 C 58.175781 65.609375 58.175781 65.242188 58.175781 65.007812 C 58.136719 62.71875 57.769531 60.40625 57.140625 58.203125 C 56.472656 55.738281 55.496094 53.363281 54.222656 51.140625 C 52.949219 48.910156 51.390625 46.859375 49.574219 45.042969 C 47.757812 43.230469 45.703125 41.675781 43.476562 40.378906 C 41.273438 39.125 38.914062 38.132812 36.46875 37.464844 C 34.007812 36.792969 31.433594 36.425781 28.859375 36.40625 C 26.503906 36.40625 24.148438 36.707031 21.855469 37.246094 C 21.617188 37.3125 21.226562 37.398438 21.011719 37.464844 L 20.664062 36.339844 "/>
<path style=" stroke:none;fill-rule:nonzero;fill:rgb(13.729858%,12.159729%,12.548828%);fill-opacity:1;" d="M 18.570312 28.695312 C 18.785156 28.628906 19.21875 28.542969 19.433594 28.476562 C 22.503906 27.785156 25.683594 27.355469 28.84375 27.355469 C 32.195312 27.355469 35.566406 27.808594 38.804688 28.695312 C 42.027344 29.558594 45.121094 30.851562 48.019531 32.515625 C 50.9375 34.203125 53.617188 36.277344 55.996094 38.652344 C 58.375 41.027344 60.425781 43.683594 62.09375 46.578125 C 63.757812 49.492188 65.054688 52.609375 65.921875 55.847656 C 66.742188 58.828125 67.195312 61.898438 67.238281 64.964844 C 67.261719 65.242188 67.261719 65.589844 67.261719 65.847656 L 66.332031 65.847656 C 66.332031 65.589844 66.332031 65.222656 66.308594 64.964844 C 66.203125 61.980469 65.8125 58.980469 65.03125 56.085938 C 64.191406 52.910156 62.914062 49.859375 61.25 47.03125 C 59.628906 44.222656 57.636719 41.632812 55.347656 39.320312 C 53.011719 36.988281 50.378906 34.957031 47.5 33.292969 C 44.710938 31.695312 41.683594 30.464844 38.570312 29.621094 C 35.390625 28.757812 32.105469 28.28125 28.820312 28.28125 C 25.792969 28.304688 22.65625 28.757812 19.695312 29.40625 C 19.457031 29.449219 19.046875 29.558594 18.832031 29.601562 L 18.570312 28.695312 "/>
<path style=" stroke:none;fill-rule:nonzero;fill:rgb(13.729858%,12.159729%,12.548828%);fill-opacity:1;" d="M 16.527344 21.113281 C 16.765625 21.046875 17.132812 20.960938 17.367188 20.894531 C 21.128906 19.96875 24.980469 19.492188 28.847656 19.492188 C 32.914062 19.492188 36.957031 20.03125 40.871094 21.089844 C 44.742188 22.128906 48.460938 23.683594 51.941406 25.691406 C 55.464844 27.722656 58.726562 30.183594 61.605469 33.078125 C 64.4375 35.929688 66.902344 39.167969 68.914062 42.667969 C 70.925781 46.167969 72.523438 49.90625 73.558594 53.820312 C 74.535156 57.449219 75.03125 61.226562 75.140625 65.007812 C 75.140625 65.242188 75.140625 65.589844 75.140625 65.847656 L 74.382812 65.847656 C 74.359375 65.589844 74.359375 65.265625 74.359375 65.007812 C 74.253906 61.3125 73.796875 57.578125 72.847656 54.011719 C 71.832031 50.167969 70.253906 46.46875 68.242188 43.015625 C 66.253906 39.601562 63.855469 36.425781 61.042969 33.617188 C 58.230469 30.789062 55.03125 28.347656 51.550781 26.339844 C 48.132812 24.375 44.457031 22.863281 40.652344 21.824219 C 36.804688 20.789062 32.828125 20.226562 28.847656 20.226562 C 25.066406 20.226562 21.238281 20.765625 17.539062 21.609375 C 17.324219 21.671875 16.9375 21.761719 16.71875 21.804688 L 16.527344 21.113281 "/>
<path style=" stroke:none;fill-rule:nonzero;fill:rgb(13.729858%,12.159729%,12.548828%);fill-opacity:1;" d="M 14.464844 13.460938 C 14.679688 13.417969 15.066406 13.3125 15.261719 13.246094 C 19.714844 12.101562 24.28125 11.539062 28.863281 11.539062 C 33.597656 11.539062 38.332031 12.164062 42.917969 13.417969 C 47.476562 14.648438 51.867188 16.464844 55.953125 18.84375 C 60.058594 21.21875 63.824219 24.113281 67.175781 27.484375 C 70.527344 30.832031 73.421875 34.589844 75.777344 38.695312 C 78.15625 42.796875 79.976562 47.226562 81.226562 51.808594 C 82.394531 56.066406 83.109375 60.535156 83.066406 64.964844 C 83.042969 65.203125 83.042969 65.609375 83.042969 65.847656 L 82.570312 65.847656 C 82.570312 65.609375 82.570312 65.203125 82.570312 64.964844 C 82.523438 60.558594 81.878906 56.171875 80.730469 51.9375 C 79.496094 47.378906 77.703125 43.015625 75.347656 38.933594 C 73.015625 34.871094 70.136719 31.132812 66.828125 27.828125 C 63.5 24.503906 59.757812 21.628906 55.695312 19.277344 C 51.628906 16.941406 47.285156 15.125 42.765625 13.914062 C 38.222656 12.707031 33.554688 12.078125 28.84375 12.058594 C 24.300781 12.058594 19.78125 12.578125 15.390625 13.722656 C 15.175781 13.785156 14.808594 13.871094 14.59375 13.9375 L 14.464844 13.460938 "/>
<path style=" stroke:none;fill-rule:nonzero;fill:rgb(100%,100%,100%);fill-opacity:1;" d="M 29.332031 68.914062 C 31.320312 68.9375 32.921875 70.582031 32.921875 72.566406 C 32.898438 74.554688 31.300781 76.152344 29.308594 76.152344 C 27.320312 76.175781 25.699219 74.554688 25.699219 72.566406 C 25.675781 70.558594 27.320312 68.914062 29.332031 68.914062 "/>
<path style=" stroke:none;fill-rule:nonzero;fill:rgb(13.729858%,12.159729%,12.548828%);fill-opacity:1;" d="M 29.285156 69.398438 C 31.035156 69.421875 32.441406 70.84375 32.417969 72.574219 C 32.417969 74.300781 31.011719 75.683594 29.285156 75.683594 C 27.550781 75.707031 26.128906 74.324219 26.128906 72.574219 C 26.105469 70.824219 27.53125 69.398438 29.285156 69.398438 "/>
</g>
</svg>
