<?xml version="1.0" encoding="UTF-8"?>
<svg xmlns="http://www.w3.org/2000/svg" xmlns:xlink="http://www.w3.org/1999/xlink" width="129pt" height="44pt" viewBox="0 0 129 44" version="1.1">
<g id="surface1">
<path style=" stroke:none;fill-rule:nonzero;fill:rgb(100%,100%,100%);fill-opacity:1;" d="M 0.738281 43.433594 L 128.300781 43.433594 L 128.300781 0.914062 L 0.738281 0.914062 Z M 0.738281 43.433594 "/>
<path style="fill:none;stroke-width:2.835;stroke-linecap:butt;stroke-linejoin:miter;stroke:rgb(13.729858%,12.159729%,12.548828%);stroke-opacity:1;stroke-miterlimit:4;" d="M 7.382812 5.664062 L 1283.007812 5.664062 L 1283.007812 430.859375 L 7.382812 430.859375 L 7.382812 5.664062 " transform="matrix(0.1,0,0,-0.1,0,44)"/>
<path style=" stroke:none;fill-rule:nonzero;fill:rgb(13.729858%,12.159729%,12.548828%);fill-opacity:1;" d="M 2.871094 37.054688 C 2.871094 39.40625 4.769531 41.304688 7.121094 41.304688 L 121.921875 41.304688 C 124.269531 41.304688 126.175781 39.40625 126.175781 37.054688 L 126.175781 7.292969 C 126.175781 4.945312 124.269531 3.039062 121.921875 3.039062 L 7.121094 3.039062 C 4.769531 3.039062 2.871094 4.945312 2.871094 7.292969 L 2.871094 37.054688 "/>
<path style=" stroke:none;fill-rule:nonzero;fill:rgb(100%,100%,100%);fill-opacity:1;" d="M 4.289062 37.054688 C 4.289062 38.625 5.554688 39.886719 7.117188 39.886719 L 121.914062 39.886719 C 123.484375 39.886719 124.757812 38.625 124.757812 37.054688 L 124.757812 7.292969 C 124.757812 5.726562 123.484375 4.460938 121.914062 4.460938 L 7.117188 4.460938 C 5.554688 4.460938 4.289062 5.726562 4.289062 7.292969 L 4.289062 37.054688 "/>
<path style=" stroke:none;fill-rule:nonzero;fill:rgb(13.729858%,12.159729%,12.548828%);fill-opacity:1;" d="M 46.660156 27.785156 L 54.335938 27.785156 L 54.335938 32.101562 L 57.179688 32.101562 L 57.179688 27.785156 L 59.371094 27.785156 L 59.371094 25.425781 L 57.179688 25.425781 L 57.179688 12.265625 L 53.652344 12.265625 L 46.660156 24.941406 L 46.660156 27.785156 "/>
<path style=" stroke:none;fill-rule:nonzero;fill:rgb(13.729858%,12.159729%,12.548828%);fill-opacity:1;" d="M 65.300781 21.816406 C 64.195312 22.296875 63.285156 22.921875 62.601562 23.691406 C 61.921875 24.484375 61.582031 25.535156 61.582031 26.875 C 61.582031 27.644531 61.71875 28.382812 62.003906 29.035156 C 62.261719 29.6875 62.660156 30.285156 63.171875 30.769531 C 63.683594 31.253906 64.308594 31.648438 65.046875 31.90625 C 65.789062 32.1875 66.613281 32.332031 67.546875 32.332031 C 68.429688 32.332031 69.253906 32.214844 70.023438 31.933594 C 70.761719 31.679688 71.386719 31.335938 71.925781 30.855469 C 72.464844 30.371094 72.867188 29.800781 73.179688 29.117188 C 73.464844 28.4375 73.601562 27.671875 73.601562 26.820312 C 73.601562 25.566406 73.261719 24.515625 72.582031 23.660156 C 71.867188 22.835938 70.960938 22.183594 69.851562 21.699219 C 70.933594 21.160156 71.757812 20.449219 72.296875 19.570312 C 72.835938 18.714844 73.121094 17.808594 73.121094 16.839844 C 73.121094 16.128906 72.976562 15.476562 72.722656 14.878906 C 72.4375 14.28125 72.039062 13.769531 71.558594 13.34375 C 71.074219 12.914062 70.476562 12.601562 69.824219 12.347656 C 69.140625 12.121094 68.402344 12.007812 67.605469 12.007812 C 66.753906 12.007812 65.984375 12.121094 65.300781 12.375 C 64.621094 12.632812 64.054688 13.003906 63.570312 13.457031 C 63.085938 13.914062 62.71875 14.453125 62.460938 15.050781 C 62.207031 15.671875 62.0625 16.355469 62.0625 17.066406 C 62.0625 18.089844 62.316406 19 62.859375 19.792969 C 63.398438 20.621094 64.195312 21.273438 65.300781 21.816406 "/>
<path style=" stroke:none;fill-rule:nonzero;fill:rgb(13.729858%,12.159729%,12.548828%);fill-opacity:1;" d="M 81.550781 32.101562 L 84.507812 32.101562 L 84.507812 24.886719 L 84.566406 24.886719 L 89.425781 32.101562 L 92.949219 32.101562 L 87.039062 24.089844 L 92.441406 17.523438 L 89.167969 17.523438 L 84.507812 23.433594 L 84.507812 10.785156 L 81.550781 10.785156 L 81.550781 32.101562 "/>
<path style=" stroke:none;fill-rule:nonzero;fill:rgb(13.729858%,12.159729%,12.548828%);fill-opacity:1;" d="M 96.195312 32.101562 L 99.152344 32.101562 L 99.152344 23.179688 C 99.152344 22.097656 99.378906 21.273438 99.804688 20.675781 C 100.234375 20.078125 100.886719 19.792969 101.710938 19.792969 C 103.074219 19.792969 103.757812 20.707031 103.757812 22.496094 L 103.757812 32.101562 L 106.714844 32.101562 L 106.714844 23.179688 C 106.714844 22.097656 106.9375 21.273438 107.367188 20.675781 C 107.792969 20.078125 108.449219 19.792969 109.273438 19.792969 C 110.636719 19.792969 111.316406 20.707031 111.316406 22.496094 L 111.316406 32.101562 L 114.277344 32.101562 L 114.277344 22.550781 C 114.277344 20.847656 113.933594 19.539062 113.25 18.65625 C 112.539062 17.78125 111.488281 17.320312 110.066406 17.320312 C 109.128906 17.320312 108.363281 17.546875 107.765625 18.007812 C 107.171875 18.488281 106.714844 19.027344 106.347656 19.625 C 106.203125 19.339844 106.03125 19.058594 105.832031 18.773438 C 105.632812 18.515625 105.378906 18.261719 105.09375 18.035156 C 104.808594 17.832031 104.46875 17.664062 104.101562 17.523438 C 103.730469 17.378906 103.273438 17.320312 102.789062 17.320312 C 101.882812 17.320312 101.140625 17.546875 100.546875 18.007812 C 99.949219 18.488281 99.464844 19.058594 99.152344 19.765625 L 99.09375 19.765625 C 99.09375 19.683594 99.09375 19.511719 99.09375 19.285156 C 99.066406 19.085938 99.066406 18.859375 99.066406 18.632812 C 99.039062 18.402344 99.039062 18.175781 99.039062 17.976562 C 99.007812 17.78125 99.007812 17.605469 99.007812 17.523438 L 96.082031 17.523438 C 96.109375 17.917969 96.140625 18.347656 96.167969 18.800781 C 96.195312 19.253906 96.195312 19.738281 96.195312 20.28125 L 96.195312 32.101562 "/>
<path style=" stroke:none;fill-rule:nonzero;fill:rgb(100%,100%,100%);fill-opacity:1;" d="M 49.019531 25.425781 L 54.28125 15.335938 L 54.335938 15.335938 L 54.335938 25.425781 L 49.019531 25.425781 "/>
<path style=" stroke:none;fill-rule:nonzero;fill:rgb(100%,100%,100%);fill-opacity:1;" d="M 67.832031 20.734375 C 66.921875 20.28125 66.214844 19.765625 65.730469 19.171875 C 65.21875 18.601562 64.964844 17.949219 64.964844 17.210938 C 64.964844 16.355469 65.21875 15.671875 65.730469 15.132812 C 66.214844 14.621094 66.839844 14.367188 67.605469 14.367188 C 68.429688 14.367188 69.085938 14.621094 69.539062 15.105469 C 69.992188 15.617188 70.21875 16.269531 70.21875 17.039062 C 70.21875 17.4375 70.164062 17.808594 70.023438 18.148438 C 69.882812 18.515625 69.710938 18.832031 69.480469 19.144531 C 69.253906 19.457031 69 19.738281 68.714844 19.996094 C 68.429688 20.253906 68.148438 20.507812 67.832031 20.734375 "/>
<path style=" stroke:none;fill-rule:nonzero;fill:rgb(100%,100%,100%);fill-opacity:1;" d="M 67.40625 22.835938 C 67.832031 23.0625 68.230469 23.292969 68.628906 23.519531 C 69 23.777344 69.34375 24.03125 69.652344 24.34375 C 69.933594 24.660156 70.164062 24.996094 70.335938 25.367188 C 70.503906 25.769531 70.589844 26.222656 70.589844 26.730469 C 70.589844 27.699219 70.335938 28.496094 69.824219 29.089844 C 69.285156 29.71875 68.570312 30.03125 67.664062 30.03125 C 66.667969 30.03125 65.929688 29.71875 65.390625 29.066406 C 64.847656 28.410156 64.59375 27.644531 64.59375 26.703125 C 64.59375 26.222656 64.679688 25.792969 64.820312 25.425781 C 64.964844 25.054688 65.132812 24.714844 65.390625 24.402344 C 65.644531 24.089844 65.929688 23.835938 66.300781 23.578125 C 66.636719 23.320312 67.007812 23.09375 67.40625 22.835938 "/>
<path style=" stroke:none;fill-rule:nonzero;fill:rgb(10.112%,40.585327%,73.280334%);fill-opacity:1;" d="M 7.828125 36.34375 L 36.175781 36.34375 L 36.175781 7.996094 L 7.828125 7.996094 Z M 7.828125 36.34375 "/>
<path style=" stroke:none;fill-rule:nonzero;fill:rgb(100%,100%,100%);fill-opacity:1;" d="M 10.660156 33.511719 L 33.339844 33.511719 L 33.339844 10.832031 L 10.660156 10.832031 Z M 10.660156 33.511719 "/>
<path style=" stroke:none;fill-rule:nonzero;fill:rgb(13.729858%,12.159729%,12.548828%);fill-opacity:1;" d="M 24.671875 31.382812 L 24.671875 30.074219 L 24.664062 29.90625 C 24.660156 29.800781 24.578125 29.726562 24.527344 29.703125 C 24.503906 29.683594 24.472656 29.664062 24.453125 29.644531 C 24.425781 29.621094 24.398438 29.59375 24.386719 29.566406 C 24.332031 29.476562 24.339844 29.339844 24.339844 29.234375 L 24.339844 26.0625 C 24.359375 26.328125 24.417969 26.601562 24.472656 26.847656 C 24.539062 27.066406 24.621094 27.292969 24.722656 27.496094 C 24.835938 27.699219 24.976562 27.886719 25.140625 28.054688 C 25.273438 28.199219 25.441406 28.332031 25.617188 28.417969 C 25.792969 28.511719 26.019531 28.523438 26.191406 28.453125 C 26.316406 28.40625 26.421875 28.335938 26.515625 28.246094 C 26.894531 27.84375 26.886719 27.234375 26.773438 26.746094 C 26.746094 26.609375 26.601562 26.195312 26.554688 26.070312 C 26.433594 25.71875 26.335938 25.363281 26.269531 24.996094 C 26.125 24.253906 26.050781 22.753906 26.050781 22.027344 C 26.058594 21.886719 26.058594 21.316406 26.0625 21.171875 C 26.078125 20.992188 26.125 20.480469 26.136719 20.300781 C 26.171875 19.902344 26.179688 19.328125 26.117188 18.921875 C 26.097656 18.75 26.0625 18.496094 26.03125 18.332031 C 26.019531 18.273438 25.949219 17.992188 25.929688 17.921875 C 25.90625 17.835938 25.765625 17.277344 25.738281 17.1875 C 25.734375 17.175781 25.640625 16.847656 25.640625 16.78125 C 25.640625 16.683594 25.664062 16.5625 25.707031 16.480469 L 25.75 16.394531 C 25.765625 16.363281 25.757812 16.300781 25.757812 16.269531 C 25.757812 16.214844 25.75 16.117188 25.734375 16.070312 C 25.710938 16.003906 25.628906 15.945312 25.566406 15.9375 C 25.539062 15.929688 25.5 15.917969 25.480469 15.910156 C 25.441406 15.878906 25.273438 15.632812 25.246094 15.585938 C 25.167969 15.5 25.082031 15.425781 24.992188 15.367188 C 24.910156 15.320312 24.824219 15.289062 24.730469 15.261719 C 24.609375 15.246094 24.464844 15.261719 24.339844 15.261719 L 24.339844 14.109375 C 24.339844 13.464844 24.128906 12.980469 23.371094 12.980469 L 18.660156 12.957031 C 18.347656 12.957031 18.136719 13.035156 17.90625 13.21875 C 17.6875 13.378906 17.605469 13.78125 17.605469 14.042969 L 17.605469 29.285156 C 17.605469 29.359375 17.605469 29.445312 17.574219 29.511719 C 17.542969 29.578125 17.5 29.632812 17.421875 29.671875 L 17.320312 29.726562 C 17.265625 29.761719 17.195312 29.777344 17.195312 29.863281 L 17.1875 29.992188 L 17.167969 31.382812 L 24.671875 31.382812 "/>
<path style=" stroke:none;fill-rule:nonzero;fill:rgb(100%,100%,100%);fill-opacity:1;" d="M 23.5625 20.09375 L 23.5625 16.234375 L 18.648438 16.234375 L 18.648438 20.09375 L 23.5625 20.09375 "/>
<path style=" stroke:none;fill-rule:nonzero;fill:rgb(100%,100%,100%);fill-opacity:1;" d="M 23.5625 15.316406 L 23.5625 14.042969 L 18.648438 14.042969 L 18.648438 15.316406 L 23.5625 15.316406 "/>
<path style=" stroke:none;fill-rule:nonzero;fill:rgb(100%,100%,100%);fill-opacity:1;" d="M 24.664062 17.832031 L 25.113281 17.679688 C 25.160156 17.652344 25.226562 17.644531 25.265625 17.605469 C 25.320312 17.566406 25.328125 17.507812 25.328125 17.445312 L 25.328125 16.949219 L 25.03125 16.757812 L 25.03125 16.414062 L 24.664062 16.617188 L 24.664062 17.832031 "/>
<path style=" stroke:none;fill-rule:nonzero;fill:rgb(100%,100%,100%);fill-opacity:1;" d="M 24.335938 16.503906 L 25.226562 16.070312 C 25.207031 15.933594 25.132812 15.792969 25.058594 15.695312 C 25.011719 15.636719 24.949219 15.574219 24.890625 15.535156 C 24.832031 15.503906 24.769531 15.472656 24.707031 15.457031 C 24.601562 15.421875 24.4375 15.429688 24.335938 15.457031 L 24.335938 16.503906 "/>
<path style=" stroke:none;fill-rule:nonzero;fill:rgb(100%,100%,100%);fill-opacity:1;" d="M 25.554688 17.292969 C 25.546875 17.371094 25.535156 17.496094 25.535156 17.578125 L 25.519531 18.632812 C 25.496094 18.929688 25.460938 19.226562 25.402344 19.523438 C 25.351562 19.792969 25.277344 20.117188 25.207031 20.382812 L 24.976562 21.25 C 24.890625 21.550781 24.820312 21.867188 24.75 22.179688 C 24.703125 22.371094 24.65625 22.617188 24.625 22.820312 C 24.597656 23.039062 24.582031 23.347656 24.570312 23.574219 C 24.558594 23.816406 24.546875 24.117188 24.535156 24.367188 C 24.523438 24.582031 24.511719 24.898438 24.507812 25.117188 C 24.5 25.324219 24.5 25.578125 24.507812 25.785156 C 24.519531 26.039062 24.550781 26.296875 24.597656 26.542969 C 24.671875 26.867188 24.8125 27.226562 24.976562 27.507812 C 25.042969 27.628906 25.144531 27.789062 25.234375 27.902344 C 25.351562 28.042969 25.488281 28.15625 25.648438 28.242188 C 25.785156 28.320312 25.984375 28.347656 26.140625 28.261719 C 26.226562 28.21875 26.308594 28.144531 26.371094 28.070312 C 26.457031 27.96875 26.53125 27.835938 26.574219 27.703125 C 26.667969 27.417969 26.644531 27.09375 26.582031 26.800781 C 26.539062 26.601562 26.453125 26.324219 26.394531 26.136719 C 26.304688 25.839844 26.15625 25.371094 26.09375 25.070312 C 26.007812 24.703125 25.953125 24.296875 25.914062 23.925781 C 25.878906 23.632812 25.855469 23.3125 25.851562 23.015625 C 25.847656 22.734375 25.867188 22.269531 25.878906 21.988281 C 25.902344 21.421875 25.933594 20.855469 25.945312 20.296875 C 25.953125 20.058594 25.960938 19.726562 25.949219 19.488281 C 25.945312 19.226562 25.917969 18.96875 25.878906 18.707031 C 25.851562 18.492188 25.808594 18.273438 25.765625 18.0625 C 25.726562 17.894531 25.679688 17.714844 25.636719 17.550781 C 25.613281 17.476562 25.578125 17.359375 25.554688 17.292969 "/>
<path style=" stroke:none;fill-rule:nonzero;fill:rgb(100%,100%,100%);fill-opacity:1;" d="M 24.335938 18.128906 L 24.335938 23.105469 C 24.417969 22.546875 24.578125 21.820312 24.757812 21.246094 C 24.808594 21.089844 24.976562 20.53125 25.019531 20.378906 C 25.09375 20.105469 25.160156 19.820312 25.207031 19.539062 C 25.234375 19.332031 25.265625 18.929688 25.285156 18.714844 C 25.292969 18.640625 25.3125 18.324219 25.320312 18.25 C 25.324219 18.191406 25.324219 18.128906 25.324219 18.078125 C 25.324219 18.050781 25.324219 18.003906 25.304688 17.980469 C 25.296875 17.964844 25.277344 17.949219 25.261719 17.9375 C 25.246094 17.933594 25.21875 17.933594 25.199219 17.933594 C 25.160156 17.933594 25.113281 17.945312 25.074219 17.949219 L 24.972656 17.980469 L 24.335938 18.128906 "/>
</g>
</svg>
