<?xml version="1.0" encoding="UTF-8"?>
<svg xmlns="http://www.w3.org/2000/svg" xmlns:xlink="http://www.w3.org/1999/xlink" width="53pt" height="29pt" viewBox="0 0 53 29" version="1.1">
<g id="surface1">
<path style=" stroke:none;fill-rule:nonzero;fill:rgb(13.729858%,12.159729%,12.548828%);fill-opacity:1;" d="M 1.628906 17.164062 L 1.269531 16.777344 C 0.765625 16.230469 3.878906 14.5 5.246094 14.023438 C 6.207031 13.6875 8.746094 13.234375 9.289062 13.234375 L 9.289062 11.71875 C 9.289062 11.648438 9.289062 11.359375 9.429688 11.214844 C 9.574219 11.070312 9.90625 11.117188 10.007812 11.140625 C 10.21875 11.1875 10.730469 11.359375 10.730469 11.359375 C 10.804688 11.285156 10.949219 11.140625 11.019531 11.070312 C 11.164062 10.925781 12.175781 10.273438 12.609375 10.203125 C 13.402344 10.128906 14.054688 10.273438 14.777344 10.492188 L 15.644531 10.78125 C 15.941406 10.878906 16.574219 10.335938 16.871094 10.347656 C 17.40625 10.367188 19.96875 11.234375 19.835938 10.71875 L 19.398438 9.046875 C 19.335938 8.804688 18.941406 7.304688 18.75 7.167969 C 18.695312 7.132812 18.554688 7.183594 18.453125 7.257812 C 18.1875 7.453125 17.710938 7.394531 17.644531 7.105469 C 17.59375 6.894531 17.503906 6.65625 17.378906 6.519531 C 17.246094 6.378906 16.507812 6.246094 16.292969 6.230469 C 16.179688 6.21875 16.054688 6.128906 16.078125 6.015625 C 16.128906 5.730469 16.222656 5.433594 16.003906 5.074219 L 15.5 4.0625 C 15.355469 3.847656 15.355469 3.484375 15.355469 3.269531 C 15.355469 2.980469 15.355469 2.691406 15.425781 2.402344 C 15.644531 1.03125 17.085938 0.308594 18.242188 0.234375 C 19.183594 0.160156 20.84375 0.308594 21.496094 2.835938 C 21.566406 3.125 21.566406 3.558594 21.566406 3.773438 C 21.695312 3.773438 24.136719 3.902344 24.960938 4.207031 C 25.925781 4.5625 29.046875 6.921875 30.59375 8.46875 C 31.621094 9.238281 33.554688 10.917969 34.640625 12.371094 C 34.871094 12.832031 35.160156 13.378906 35.058594 14.167969 C 35.03125 14.363281 34.785156 15.332031 34.570312 15.546875 L 37.316406 17.351562 L 39.117188 15.1875 C 39.339844 14.96875 39.367188 14.691406 39.296875 14.507812 C 39.1875 14.226562 38.757812 14.175781 38.324219 14.03125 L 36.519531 13.382812 C 36.445312 13.308594 35.902344 13.195312 35.992188 12.585938 C 36.050781 12.179688 36.425781 12.011719 36.59375 12.007812 L 47.859375 11.792969 L 49.378906 11.863281 C 49.558594 11.871094 49.828125 12.097656 49.949219 12.398438 C 50.121094 12.832031 49.980469 13.210938 49.863281 13.339844 L 48.972656 14.28125 C 48.933594 14.507812 49.023438 14.628906 49.160156 14.753906 C 49.265625 14.847656 50.917969 16.246094 51.328125 17.0625 C 51.472656 17.28125 51.480469 18.09375 51.6875 18.089844 C 52.136719 18.074219 52.554688 18.367188 52.554688 18.722656 L 52.554688 23.5625 C 52.554688 23.636719 52.535156 23.824219 52.484375 23.925781 C 52.410156 24.0625 52.097656 24.128906 51.894531 24.125 C 51.476562 24.109375 51.183594 23.925781 51.109375 23.925781 C 51.109375 24 49.816406 28.507812 44.539062 28.546875 C 38.238281 28.597656 37.175781 22.695312 37.167969 22.699219 L 31.09375 25.136719 L 20.484375 25.152344 C 20.265625 25.152344 19.121094 25.179688 18.953125 24.402344 C 18.832031 23.84375 19.6875 23.058594 19.761719 22.988281 L 17.234375 19.59375 C 17.234375 19.59375 17.015625 19.160156 16.65625 19.300781 C 16.367188 19.375 16.367188 19.808594 16.367188 19.808594 L 16.339844 21.902344 C 16.339844 21.972656 16.339844 22.3125 16.148438 22.480469 C 15.914062 22.695312 15.4375 22.554688 15.226562 22.554688 C 14.5625 25.980469 11.542969 28.570312 7.925781 28.570312 C 3.816406 28.570312 0.484375 25.238281 0.484375 21.132812 C 0.484375 19.675781 0.902344 18.3125 1.628906 17.164062 "/>
<path style=" stroke:none;fill-rule:nonzero;fill:rgb(100%,100%,100%);fill-opacity:1;" d="M 20.398438 20.691406 L 18.449219 17.589844 C 18.230469 17.078125 18.230469 16.429688 18.59375 15.996094 C 18.878906 15.710938 19.390625 15.710938 19.824219 16.140625 C 20.398438 16.71875 20.613281 17.875 20.613281 18.378906 C 20.613281 18.957031 20.398438 19.898438 20.398438 20.691406 "/>
<path style=" stroke:none;fill-rule:nonzero;fill:rgb(100%,100%,100%);fill-opacity:1;" d="M 30.652344 21.628906 L 28.628906 21.410156 C 28.628906 21.410156 29.421875 19.964844 30.148438 19.242188 C 30.722656 18.667969 31.589844 18.085938 32.171875 17.726562 L 30.652344 21.628906 "/>
<path style=" stroke:none;fill-rule:nonzero;fill:rgb(100%,100%,100%);fill-opacity:1;" d="M 17.800781 13.597656 L 13.25 13.597656 C 13.25 13.597656 13.898438 12.152344 15.199219 12.222656 C 15.632812 12.222656 15.921875 12.152344 16.496094 12.519531 C 17.007812 12.878906 17.441406 13.238281 17.800781 13.597656 "/>
<path style=" stroke:none;fill-rule:nonzero;fill:rgb(100%,100%,100%);fill-opacity:1;" d="M 9.386719 20.308594 L 10.226562 19.046875 C 10.792969 19.621094 11.140625 20.394531 11.140625 21.261719 C 11.140625 23.019531 9.714844 24.445312 7.957031 24.445312 C 6.199219 24.445312 4.777344 23.019531 4.777344 21.261719 C 4.777344 19.550781 6.125 18.15625 7.820312 18.082031 L 7.894531 19.535156 C 6.96875 19.5625 6.230469 20.324219 6.230469 21.25 C 6.230469 22.199219 7 22.96875 7.949219 22.96875 C 8.894531 22.96875 9.667969 22.199219 9.667969 21.25 C 9.667969 20.90625 9.5625 20.582031 9.386719 20.308594 "/>
<path style=" stroke:none;fill-rule:nonzero;fill:rgb(100%,100%,100%);fill-opacity:1;" d="M 45.921875 21.925781 L 47.199219 22.558594 C 46.710938 23.6875 45.589844 24.472656 44.285156 24.472656 C 42.535156 24.472656 41.113281 23.050781 41.113281 21.300781 C 41.113281 20.726562 41.265625 20.183594 41.535156 19.71875 L 42.839844 20.359375 C 42.65625 20.636719 42.550781 20.964844 42.550781 21.320312 C 42.550781 22.28125 43.332031 23.0625 44.292969 23.0625 C 45.039062 23.0625 45.679688 22.589844 45.921875 21.925781 "/>
<path style=" stroke:none;fill-rule:nonzero;fill:rgb(100%,100%,100%);fill-opacity:1;" d="M 47.296875 20.304688 L 45.914062 20.695312 C 45.664062 20.042969 45.03125 19.582031 44.292969 19.582031 C 44.132812 19.582031 43.976562 19.601562 43.828125 19.644531 L 43.28125 18.292969 C 43.597656 18.1875 43.933594 18.128906 44.285156 18.128906 C 45.6875 18.128906 46.878906 19.042969 47.296875 20.304688 "/>
</g>
</svg>
