<?xml version="1.0" encoding="UTF-8"?>
<svg xmlns="http://www.w3.org/2000/svg" xmlns:xlink="http://www.w3.org/1999/xlink" width="87pt" height="85pt" viewBox="0 0 87 85" version="1.1">
<g id="surface1">
<path style=" stroke:none;fill-rule:nonzero;fill:rgb(13.729858%,12.159729%,12.548828%);fill-opacity:1;" d="M 33.515625 0.738281 L 34.535156 1.214844 L 35.472656 1.683594 L 36.417969 2.183594 L 37.335938 2.695312 L 38.199219 3.1875 L 38.964844 3.632812 L 39.738281 4.089844 L 40.519531 4.554688 L 41.292969 5.027344 L 42.070312 5.507812 L 42.839844 5.992188 L 43.605469 6.484375 L 44.363281 6.980469 L 45.113281 7.484375 L 45.84375 7.992188 L 46.5625 8.503906 L 47.257812 9.015625 L 47.953125 9.535156 L 48.636719 10.066406 L 49.320312 10.605469 L 50 11.152344 L 50.671875 11.707031 L 51.339844 12.273438 L 52 12.84375 L 52.65625 13.414062 L 53.308594 13.996094 L 53.953125 14.585938 L 54.589844 15.175781 L 55.847656 16.363281 L 57.042969 17.535156 L 57.636719 18.132812 L 58.226562 18.730469 L 58.808594 19.339844 L 59.386719 19.945312 L 59.964844 20.558594 L 60.53125 21.175781 L 61.097656 21.796875 L 61.65625 22.425781 L 62.207031 23.054688 L 62.757812 23.695312 L 63.296875 24.339844 L 63.832031 24.984375 L 64.363281 25.636719 L 64.882812 26.285156 L 65.394531 26.941406 L 65.898438 27.597656 L 66.402344 28.261719 L 66.894531 28.925781 L 67.386719 29.597656 L 67.867188 30.277344 L 68.34375 30.957031 L 68.816406 31.640625 L 69.28125 32.328125 L 69.742188 33.019531 L 70.195312 33.714844 L 70.644531 34.414062 L 71.085938 35.113281 L 71.527344 35.820312 L 71.957031 36.523438 L 72.382812 37.234375 L 72.796875 37.921875 L 73.207031 38.632812 L 73.621094 39.351562 L 74.03125 40.082031 L 74.449219 40.824219 L 74.859375 41.574219 L 75.269531 42.328125 L 76.082031 43.84375 L 76.484375 44.605469 L 76.878906 45.359375 L 77.269531 46.109375 L 77.65625 46.855469 L 78.03125 47.597656 L 78.402344 48.324219 L 78.761719 49.039062 L 79.148438 49.800781 L 79.546875 50.609375 L 79.957031 51.449219 L 80.371094 52.3125 L 80.777344 53.183594 L 81.167969 54.054688 L 81.539062 54.910156 L 81.886719 55.738281 L 82.195312 56.527344 L 82.503906 57.375 L 82.800781 58.242188 L 83.085938 59.113281 L 83.351562 59.996094 L 85.878906 68.761719 C 87.523438 74.488281 84.199219 80.460938 78.46875 82.074219 L 68.226562 84.949219 C 66.753906 85.367188 65.234375 84.464844 64.890625 82.96875 L 61.058594 66.34375 C 60.734375 64.945312 61.570312 63.539062 62.949219 63.15625 L 70.1875 61.117188 C 71.507812 60.742188 72.550781 59.722656 72.949219 58.410156 C 73.347656 57.09375 73.050781 55.667969 72.160156 54.625 L 68.558594 50.410156 L 67.890625 49.660156 L 67.222656 48.929688 L 66.582031 48.246094 L 65.941406 47.570312 L 65.292969 46.894531 L 64.636719 46.21875 L 63.976562 45.539062 L 63.3125 44.859375 L 62.648438 44.1875 L 61.988281 43.523438 L 61.355469 42.878906 L 60.65625 42.152344 L 59.917969 41.382812 L 59.199219 40.605469 L 58.523438 39.855469 L 57.941406 39.164062 L 57.339844 38.398438 L 56.703125 37.53125 L 56.066406 36.621094 L 55.457031 35.734375 L 54.914062 34.925781 L 54.382812 34.132812 L 53.8125 33.261719 L 53.234375 32.351562 L 52.664062 31.433594 L 52.132812 30.542969 L 51.664062 29.714844 L 49.324219 25.15625 L 48.703125 24.085938 L 47.992188 23.027344 L 47.210938 22.058594 L 46.492188 21.332031 L 45.710938 20.667969 L 44.882812 20.058594 L 44.214844 19.636719 L 43.496094 19.253906 L 42.765625 18.972656 L 42.257812 18.859375 L 41.730469 18.816406 L 41.210938 18.859375 L 40.570312 19.082031 L 39.945312 19.453125 L 39.394531 19.875 L 39.375 20.203125 L 39.007812 20.199219 L 38.851562 20.335938 L 36.609375 23.015625 C 35.730469 24.0625 34.203125 24.285156 33.066406 23.527344 L 19.4375 14.453125 C 18.214844 13.640625 17.875 11.992188 18.671875 10.761719 L 21.503906 6.382812 L 23.488281 3.484375 C 25.714844 0.242188 29.953125 -0.921875 33.515625 0.738281 M 0.921875 83.46875 C 1.527344 83.804688 2.265625 84.039062 3.140625 84.238281 C 4.015625 84.40625 4.988281 84.472656 6.066406 84.472656 C 8.316406 84.472656 10.132812 83.875 11.445312 82.660156 C 12.753906 81.449219 13.394531 79.769531 13.394531 77.613281 C 13.394531 76.605469 13.257812 75.726562 12.957031 75.023438 C 12.652344 74.316406 12.21875 73.675781 11.714844 73.136719 C 11.207031 72.597656 10.601562 72.09375 9.898438 71.65625 C 9.191406 71.21875 8.453125 70.78125 7.679688 70.34375 C 7.109375 70.007812 6.605469 69.703125 6.199219 69.402344 C 5.761719 69.097656 5.425781 68.832031 5.191406 68.527344 C 4.921875 68.257812 4.71875 67.953125 4.617188 67.617188 C 4.519531 67.3125 4.453125 66.945312 4.453125 66.539062 C 4.453125 65.632812 4.753906 64.859375 5.363281 64.285156 C 5.964844 63.714844 6.804688 63.410156 7.914062 63.410156 C 8.753906 63.410156 9.5625 63.511719 10.269531 63.714844 C 10.972656 63.949219 11.582031 64.183594 12.117188 64.453125 L 12.21875 61.222656 C 11.78125 61.054688 11.140625 60.851562 10.367188 60.683594 C 9.5625 60.519531 8.65625 60.414062 7.644531 60.414062 C 6.703125 60.414062 5.832031 60.550781 4.988281 60.785156 C 4.148438 61.054688 3.410156 61.460938 2.769531 61.964844 C 2.132812 62.503906 1.628906 63.140625 1.257812 63.914062 C 0.890625 64.6875 0.6875 65.566406 0.6875 66.574219 C 0.6875 67.617188 0.820312 68.460938 1.125 69.164062 C 1.425781 69.875 1.828125 70.511719 2.332031 71.015625 C 2.835938 71.554688 3.410156 72.027344 4.113281 72.429688 C 4.789062 72.867188 5.527344 73.304688 6.300781 73.777344 C 6.9375 74.144531 7.476562 74.519531 7.914062 74.820312 C 8.351562 75.15625 8.6875 75.492188 8.957031 75.796875 C 9.191406 76.101562 9.394531 76.433594 9.496094 76.769531 C 9.59375 77.144531 9.628906 77.511719 9.628906 77.949219 C 9.628906 79.023438 9.261719 79.867188 8.550781 80.507812 C 7.847656 81.144531 6.90625 81.480469 5.761719 81.480469 C 4.824219 81.480469 3.949219 81.316406 3.105469 80.980469 C 2.265625 80.675781 1.59375 80.335938 1.054688 80.003906 L 0.921875 83.46875 M 21.5625 79.195312 C 20.652344 77.578125 20.214844 75.359375 20.214844 72.566406 C 20.214844 70.847656 20.351562 69.402344 20.652344 68.222656 C 20.921875 67.042969 21.292969 66.070312 21.796875 65.328125 C 22.265625 64.621094 22.839844 64.085938 23.476562 63.746094 C 24.113281 63.445312 24.820312 63.277344 25.53125 63.277344 C 27.207031 63.277344 28.484375 64.085938 29.394531 65.703125 C 30.265625 67.3125 30.707031 69.535156 30.707031 72.328125 C 30.707031 74.046875 30.570312 75.492188 30.300781 76.667969 C 29.996094 77.847656 29.628906 78.824219 29.160156 79.53125 C 28.65625 80.273438 28.082031 80.8125 27.441406 81.113281 C 26.804688 81.449219 26.097656 81.617188 25.394531 81.617188 C 23.714844 81.617188 22.433594 80.8125 21.5625 79.195312 M 19.039062 81.449219 C 19.84375 82.457031 20.789062 83.199219 21.898438 83.703125 C 22.972656 84.238281 24.148438 84.472656 25.394531 84.472656 C 26.703125 84.472656 27.914062 84.238281 29.023438 83.738281 C 30.132812 83.230469 31.074219 82.492188 31.878906 81.480469 C 32.6875 80.507812 33.328125 79.230469 33.796875 77.710938 C 34.234375 76.199219 34.46875 74.382812 34.46875 72.328125 C 34.46875 70.34375 34.234375 68.625 33.796875 67.148438 C 33.328125 65.667969 32.6875 64.421875 31.878906 63.410156 C 31.074219 62.433594 30.132812 61.660156 29.054688 61.15625 C 27.949219 60.652344 26.773438 60.414062 25.53125 60.414062 C 24.21875 60.414062 23.039062 60.652344 21.929688 61.15625 C 20.824219 61.660156 19.84375 62.402344 19.039062 63.378906 C 18.234375 64.390625 17.59375 65.667969 17.15625 67.179688 C 16.6875 68.695312 16.453125 70.511719 16.453125 72.566406 C 16.453125 74.550781 16.6875 76.265625 17.15625 77.746094 C 17.59375 79.230469 18.234375 80.472656 19.039062 81.449219 M 37.878906 83.46875 C 38.480469 83.804688 39.21875 84.039062 40.09375 84.238281 C 40.96875 84.40625 41.945312 84.472656 43.019531 84.472656 C 45.273438 84.472656 47.085938 83.875 48.398438 82.660156 C 49.710938 81.449219 50.347656 79.769531 50.347656 77.613281 C 50.347656 76.605469 50.214844 75.726562 49.910156 75.023438 C 49.605469 74.316406 49.171875 73.675781 48.664062 73.136719 C 48.160156 72.597656 47.554688 72.09375 46.851562 71.65625 C 46.148438 71.21875 45.40625 70.78125 44.632812 70.34375 C 44.0625 70.007812 43.558594 69.703125 43.152344 69.402344 C 42.71875 69.097656 42.378906 68.832031 42.144531 68.527344 C 41.875 68.257812 41.675781 67.953125 41.574219 67.617188 C 41.472656 67.3125 41.40625 66.945312 41.40625 66.539062 C 41.40625 65.632812 41.710938 64.859375 42.316406 64.285156 C 42.917969 63.714844 43.757812 63.410156 44.867188 63.410156 C 45.707031 63.410156 46.515625 63.511719 47.222656 63.714844 C 47.925781 63.949219 48.53125 64.183594 49.070312 64.453125 L 49.171875 61.222656 C 48.734375 61.054688 48.09375 60.851562 47.320312 60.683594 C 46.515625 60.519531 45.609375 60.414062 44.601562 60.414062 C 43.65625 60.414062 42.785156 60.550781 41.945312 60.785156 C 41.101562 61.054688 40.363281 61.460938 39.722656 61.964844 C 39.085938 62.503906 38.582031 63.140625 38.210938 63.914062 C 37.84375 64.6875 37.644531 65.566406 37.644531 66.574219 C 37.644531 67.617188 37.777344 68.460938 38.078125 69.164062 C 38.382812 69.875 38.78125 70.511719 39.285156 71.015625 C 39.789062 71.554688 40.363281 72.027344 41.070312 72.429688 C 41.742188 72.867188 42.480469 73.304688 43.253906 73.777344 C 43.890625 74.144531 44.429688 74.519531 44.867188 74.820312 C 45.304688 75.15625 45.644531 75.492188 45.910156 75.796875 C 46.148438 76.101562 46.347656 76.433594 46.449219 76.769531 C 46.546875 77.144531 46.582031 77.511719 46.582031 77.949219 C 46.582031 79.023438 46.214844 79.867188 45.507812 80.507812 C 44.800781 81.144531 43.859375 81.480469 42.71875 81.480469 C 41.777344 81.480469 40.902344 81.316406 40.058594 80.980469 C 39.21875 80.675781 38.546875 80.335938 38.011719 80.003906 L 37.878906 83.46875 "/>
</g>
</svg>
