<svg width="200mm" height="50mm" version="1.1" viewBox="0 0 200 50" xmlns="http://www.w3.org/2000/svg">
 <rect width="200" height="50" fill="#fff" vector-effect="non-scaling-stroke" style="-inkscape-stroke:hairline;paint-order:markers stroke fill"/>
 <g fill-rule="evenodd">
  <path d="m0 25v-25h25z" vector-effect="non-scaling-stroke" style="-inkscape-stroke:hairline"/>
  <path d="m50 0v25h-25z" vector-effect="non-scaling-stroke" style="-inkscape-stroke:hairline"/>
  <path d="m0 25v25h25z" vector-effect="non-scaling-stroke" style="-inkscape-stroke:hairline"/>
  <path d="m50 50v-25h-25z" vector-effect="non-scaling-stroke" style="-inkscape-stroke:hairline"/>
  <path d="m50 25v-25h25z" vector-effect="non-scaling-stroke" style="-inkscape-stroke:hairline"/>
  <path d="m100 0v25h-25z" vector-effect="non-scaling-stroke" style="-inkscape-stroke:hairline"/>
  <path d="m50 25v25h25z" vector-effect="non-scaling-stroke" style="-inkscape-stroke:hairline"/>
  <path d="m100 50v-25h-25z" vector-effect="non-scaling-stroke" style="-inkscape-stroke:hairline"/>
  <path d="m200 25v-25h-25z" vector-effect="non-scaling-stroke" style="-inkscape-stroke:hairline"/>
  <path d="m150 0v25h25z" vector-effect="non-scaling-stroke" style="-inkscape-stroke:hairline"/>
  <path d="m200 25v25h-25z" vector-effect="non-scaling-stroke" style="-inkscape-stroke:hairline"/>
  <path d="m150 50v-25h25z" vector-effect="non-scaling-stroke" style="-inkscape-stroke:hairline"/>
  <path d="m150 25v-25h-25z" vector-effect="non-scaling-stroke" style="-inkscape-stroke:hairline"/>
  <path d="m100 0v25h25z" vector-effect="non-scaling-stroke" style="-inkscape-stroke:hairline"/>
  <path d="m150 25v25h-25z" vector-effect="non-scaling-stroke" style="-inkscape-stroke:hairline"/>
  <path d="m100 50v-25h25z" vector-effect="non-scaling-stroke" style="-inkscape-stroke:hairline"/>
 </g>
</svg>
