<?xml version="1.0" encoding="UTF-8" standalone="no"?>
<svg
   width="38.714802mm"
   height="9.8715715mm"
   version="1.1"
   id="svg676"
   xmlns="http://www.w3.org/2000/svg"
   xmlns:svg="http://www.w3.org/2000/svg"
   xmlns:rdf="http://www.w3.org/1999/02/22-rdf-syntax-ns#"
   xmlns:cc="http://creativecommons.org/ns#"
   xmlns:dc="http://purl.org/dc/elements/1.1/">
  <metadata
     id="metadata682">
    <rdf:RDF>
      <cc:Work
         rdf:about="">
        <dc:format>image/svg+xml</dc:format>
        <dc:type
           rdf:resource="http://purl.org/dc/dcmitype/StillImage" />
      </cc:Work>
    </rdf:RDF>
  </metadata>
  <defs
     id="defs680">
    <rect
       x="4.7620125"
       y="-79.222565"
       width="106.62644"
       height="23.477419"
       id="rect18240" />
    <rect
       x="4.7620125"
       y="-79.222565"
       width="106.62644"
       height="23.477419"
       id="rect18240-6" />
  </defs>
  <!-- Created with Method Draw - http://github.com/duopixel/Method-Draw/ -->
  <g
     display="none"
     overflow="visible"
     y="0"
     x="0"
     height="100%"
     width="100%"
     id="canvasGrid"
     transform="translate(-0.3623937,-0.05756579)">
    <rect
       fill="url(#gridpattern)"
       stroke-width="0"
       y="0"
       x="0"
       height="172.54172%"
       width="100%"
       id="rect663"
       style="stroke:#000000;stroke-opacity:1" />
  </g>
  <rect
     style="fill:#f8f8f8;fill-opacity:1;stroke:none;stroke-width:1.42661;stroke-opacity:1;paint-order:markers fill stroke"
     id="rect32430"
     width="146.32365"
     height="37.309875"
     x="0"
     y="0" />
  <rect
     style="fill:#7a2017;fill-opacity:1;stroke-width:1.07809;paint-order:markers fill stroke"
     id="rect11978"
     width="143.25568"
     height="34.42358"
     x="1.533989"
     y="1.4431477" />
  <path
     style="fill:#ffffff;fill-opacity:1;fill-rule:nonzero;stroke:none;stroke-width:0.388196"
     d="m 130.80555,14.031517 -3.59757,0.484058 c -0.15137,0.03141 -0.30114,-0.01714 -0.3897,-0.124227 -0.11595,-0.124227 -0.12401,-0.29986 -0.0258,-0.439794 l 5.31261,-7.4636259 c 0.1095,-0.137078 0.28181,-0.2313191 0.46217,-0.2313191 0.19969,-0.00566 0.38005,0.085674 0.48955,0.2313191 l 5.28686,7.4879009 c 0.0934,0.122799 0.0837,0.291292 -0.006,0.415519 -0.0902,0.124227 -0.25766,0.175631 -0.40582,0.147073 l -3.62172,-0.506904 1.16913,18.13003 h -5.84082 l 1.16753,-18.13003"
     id="path13982" />
  <text
     xml:space="default"
     dominant-baseline="middle"
     text-anchor="middle"
     font-family="sans-serif"
     font-size="12.0046px"
     id="svg_14"
     y="18.73407"
     x="68.836998"
     fill="#ffffff"
     style="clip-rule:evenodd;fill-rule:evenodd;stroke-width:0.171495"><tspan
       style="font-style:italic;font-variant:normal;font-weight:bold;font-stretch:normal;font-family:sans-serif;-inkscape-font-specification:'sans-serif Bold Italic'"
       id="tspan34346">param(text1)</tspan></text>
</svg>
