<?xml version="1.0" encoding="UTF-8"?>
<svg xmlns="http://www.w3.org/2000/svg" xmlns:xlink="http://www.w3.org/1999/xlink" width="121pt" height="106pt" viewBox="0 0 121 106" version="1.1">
<g id="surface1">
<path style=" stroke:none;fill-rule:nonzero;fill:rgb(93.527222%,17.272949%,18.882751%);fill-opacity:1;" d="M 5.210938 105.527344 L 115.585938 105.527344 C 119.40625 105.527344 121.792969 101.394531 119.886719 98.085938 L 64.695312 2.496094 C 62.785156 -0.8125 58.011719 -0.8125 56.101562 2.496094 L 0.910156 98.085938 C -0.996094 101.394531 1.390625 105.527344 5.210938 105.527344 "/>
<path style=" stroke:none;fill-rule:nonzero;fill:rgb(100%,100%,100%);fill-opacity:1;" d="M 13.800781 95.605469 L 106.996094 95.605469 L 60.398438 14.902344 L 13.800781 95.605469 "/>
<path style=" stroke:none;fill-rule:nonzero;fill:rgb(13.729858%,12.159729%,12.548828%);fill-opacity:1;" d="M 68.542969 89.859375 L 68.582031 66.300781 C 68.582031 66.136719 68.488281 66.007812 68.339844 65.929688 C 68.210938 65.875 68.0625 65.910156 67.953125 65.984375 L 62.039062 70.542969 C 58.90625 72.953125 54.644531 73.269531 51.199219 71.363281 C 48.046875 69.621094 46.121094 66.429688 46.085938 62.835938 L 46.085938 46.632812 L 51.144531 41.6875 L 56.183594 46.691406 L 56.183594 61.539062 C 56.183594 61.703125 56.277344 61.867188 56.421875 61.945312 C 56.589844 62.019531 56.757812 61.980469 56.890625 61.890625 L 62.578125 57.347656 C 65.820312 54.753906 70.359375 54.457031 73.917969 56.625 C 76.863281 58.421875 78.679688 61.632812 78.679688 65.09375 L 78.679688 89.878906 L 73.804688 85.167969 L 68.542969 89.859375 "/>
</g>
</svg>
