<?xml version="1.0" encoding="UTF-8" standalone="no"?>
<svg
   xmlns:dc="http://purl.org/dc/elements/1.1/"
   xmlns:cc="http://creativecommons.org/ns#"
   xmlns:rdf="http://www.w3.org/1999/02/22-rdf-syntax-ns#"
   xmlns:svg="http://www.w3.org/2000/svg"
   xmlns="http://www.w3.org/2000/svg"
   xmlns:sodipodi="http://sodipodi.sourceforge.net/DTD/sodipodi-0.dtd"
   xmlns:inkscape="http://www.inkscape.org/namespaces/inkscape"
   width="121pt"
   height="106pt"
   viewBox="0 0 121 106"
   version="1.1"
   id="svg914"
   sodipodi:docname="132.svg"
   inkscape:version="1.0.2 (e86c870879, 2021-01-15, custom)">
  <metadata
     id="metadata918">
    <rdf:RDF>
      <cc:Work
         rdf:about="">
        <dc:format>image/svg+xml</dc:format>
        <dc:type
           rdf:resource="http://purl.org/dc/dcmitype/StillImage" />
      </cc:Work>
    </rdf:RDF>
  </metadata>
  <sodipodi:namedview
     pagecolor="#ffffff"
     bordercolor="#666666"
     borderopacity="1"
     objecttolerance="10"
     gridtolerance="10"
     guidetolerance="10"
     inkscape:pageopacity="0"
     inkscape:pageshadow="2"
     inkscape:window-width="1920"
     inkscape:window-height="1017"
     id="namedview916"
     showgrid="false"
     inkscape:zoom="5.0082645"
     inkscape:cx="80.666667"
     inkscape:cy="70.666667"
     inkscape:window-x="5752"
     inkscape:window-y="-8"
     inkscape:window-maximized="1"
     inkscape:current-layer="svg914" />
  <defs
     id="defs905">
    <clipPath
       id="clip1">
      <path
         d="M 0 0.410156 L 120.191406 0.410156 L 120.191406 106 L 0 106 Z M 0 0.410156 "
         id="path902" />
    </clipPath>
  </defs>
  <g
     clip-path="url(#clip1)"
     clip-rule="nonzero"
     id="g909">
    <path
       style="fill:#ee2b2e;fill-opacity:1;fill-rule:nonzero;stroke:none"
       d="M 13.539062,96.070312 60.089844,15.304688 106.63672,96.070312 Z M 119.51953,98.554688 64.386719,2.894531 c -1.90625,-3.3125 -6.675781,-3.3125 -8.582031,0 L 0.671875,98.554688 C -1.234375,101.86328 1.148438,106 4.964844,106 H 115.22656 c 3.81641,0 6.19922,-4.13672 4.29297,-7.445312"
       id="path907" />
  </g>
  <path
     style="fill:#ffffff;fill-opacity:1;fill-rule:nonzero;stroke:none"
     d="M 13.492192,96.007814 H 106.6875 L 60.089844,15.304688 13.492192,96.007814"
     id="path946" />
  <path
     style="fill:#211e1e;fill-opacity:1;fill-rule:nonzero;stroke:none"
     d="m 74.023438,80.636719 c -3.253907,0 -5.996094,-2.253907 -6.742188,-5.289063 l 5.585938,-0.0078 c 0.679687,0 1.714843,0.04687 2.140624,-0.621094 0.347657,-0.566406 -0.09375,-1.441406 -0.234374,-1.847656 L 72.382812,66.9297 c 0.523438,-0.132813 1.074219,-0.199219 1.640626,-0.199219 3.828124,0 6.941406,3.117187 6.941406,6.953125 0,3.835937 -3.113282,6.953125 -6.941406,6.953125 z m -3.269532,-13.089844 2.355469,6.007813 h -5.996094 c 0,-2.648438 1.457031,-4.828126 3.640625,-6.007813 z m -5.542968,6.007813 h -1.511719 l 4.242187,-12.898438 2.144532,5.082031 c -2.851563,1.445313 -4.828126,4.402344 -4.875,7.816407 z m -3.1875,-0.386719 -11.628907,-11.765625 0.535157,-1.875 h 15.542968 z m -8.980469,0.414062 c 0,3.835938 -3.109375,6.945313 -6.941407,6.945313 -3.828124,0 -6.941406,-3.109375 -6.941406,-6.945313 0,-3.835937 3.113282,-6.945312 6.941406,-6.945312 0.289063,0 0.582032,0.01563 0.859376,0.05469 l -1.871094,6.65625 c -0.09766,0.324219 -0.167969,0.953125 0.550781,1.15625 0.710937,0.207032 1.066406,-0.292968 1.167969,-0.65625 l 1.859375,-6.71875 c 2.5625,1.019532 4.375,3.523438 4.375,6.453125 z m 21.023437,-8.757812 c -0.800781,0 -1.585937,0.152343 -2.335937,0.34375 L 68.75,57.863281 69.332031,56.25 h 1.335938 V 54.503906 H 65.109375 V 55.65625 L 67.585938,56.25 67.035156,57.863281 H 51.394531 l 0.578125,-1.898437 c 0.136719,-0.472656 0.253906,-0.863282 0.597656,-1.175782 0.351563,-0.285156 0.996094,-0.285156 1.511719,-0.285156 h 2.613281 v -1.734375 h -3.261718 c -1,0 -1.851563,0.335938 -2.363282,0.863281 -0.449218,0.449219 -0.695312,1.210938 -0.875,1.839844 l -2.667968,9.371094 c -0.46875,-0.07422 -0.90625,-0.136719 -1.390625,-0.136719 -4.894531,0 -8.863281,3.984375 -8.863281,8.878907 0,4.890624 3.96875,8.878906 8.863281,8.878906 4.886719,0 8.859375,-3.988282 8.859375,-8.878906 0,-3.816407 -2.46875,-7.007813 -5.832032,-8.28125 l 0.613282,-1.945313 10.882812,10.914063 c 0.363282,0.355468 0.78125,0.710937 1.269532,0.867187 0.460937,0.191406 1.042968,0.191406 1.511718,0.191406 l 1.925782,0.0078 c 0.769531,4.109375 4.378906,7.21875 8.699218,7.21875 4.886719,0 8.851563,-3.972656 8.851563,-8.867188 0,-4.898437 -3.964844,-8.867187 -8.851563,-8.867187"
     id="path911" />
</svg>
