<?xml version="1.0" encoding="UTF-8"?>
<svg xmlns="http://www.w3.org/2000/svg" xmlns:xlink="http://www.w3.org/1999/xlink" width="86pt" height="86pt" viewBox="0 0 86 86" version="1.1">
<g id="surface1">
<path style=" stroke:none;fill-rule:nonzero;fill:rgb(93.527222%,17.272949%,18.882751%);fill-opacity:1;" d="M 42.523438 0.648438 C 66.007812 0.648438 85.042969 19.683594 85.042969 43.167969 C 85.042969 66.652344 66.007812 85.6875 42.523438 85.6875 C 19.042969 85.6875 0.00390625 66.652344 0.00390625 43.167969 C 0.00390625 19.683594 19.042969 0.648438 42.523438 0.648438 "/>
<path style=" stroke:none;fill-rule:nonzero;fill:rgb(100%,100%,100%);fill-opacity:1;" d="M 42.527344 14.816406 C 46.378906 14.816406 50.054688 15.558594 53.558594 17.039062 C 56.949219 18.472656 59.953125 20.5 62.574219 23.121094 C 65.191406 25.738281 67.21875 28.746094 68.652344 32.136719 C 70.132812 35.636719 70.875 39.3125 70.875 43.164062 C 70.875 47.015625 70.132812 50.691406 68.652344 54.195312 C 67.21875 57.582031 65.191406 60.589844 62.574219 63.207031 C 59.953125 65.828125 56.949219 67.855469 53.558594 69.289062 C 50.054688 70.769531 46.378906 71.511719 42.527344 71.511719 C 38.675781 71.511719 35 70.769531 31.5 69.289062 C 28.109375 67.855469 25.105469 65.828125 22.484375 63.207031 C 19.863281 60.589844 17.835938 57.582031 16.402344 54.195312 C 14.921875 50.691406 14.179688 47.015625 14.179688 43.164062 C 14.179688 39.3125 14.921875 35.636719 16.402344 32.136719 C 17.835938 28.746094 19.863281 25.738281 22.484375 23.121094 C 25.105469 20.5 28.109375 18.472656 31.5 17.039062 C 35 15.558594 38.675781 14.816406 42.527344 14.816406 "/>
<path style=" stroke:none;fill-rule:nonzero;fill:rgb(13.729858%,12.159729%,12.548828%);fill-opacity:1;" d="M 26.9375 37.871094 L 26.9375 39.683594 L 32.554688 39.683594 C 33.28125 40.445312 34.460938 40.828125 35.367188 41.113281 C 36.722656 41.589844 38.085938 41.875 39.535156 42.066406 C 40.988281 42.164062 42.347656 42.257812 43.792969 42.164062 C 45.335938 42.066406 46.96875 41.875 48.511719 41.492188 C 49.417969 41.210938 50.683594 40.828125 51.503906 40.347656 C 51.863281 40.160156 52.226562 39.96875 52.589844 39.683594 L 58.117188 39.683594 L 58.117188 37.871094 L 54.765625 37.871094 C 55.035156 37.585938 55.308594 37.109375 55.492188 36.820312 C 55.761719 36.347656 56.035156 35.871094 56.214844 35.296875 C 56.578125 34.054688 56.757812 32.722656 56.667969 31.390625 C 56.488281 30.054688 55.945312 28.816406 55.21875 27.765625 C 54.402344 26.621094 53.3125 25.667969 52.136719 24.90625 C 50.863281 24.140625 49.507812 23.664062 48.054688 23.285156 C 46.425781 22.902344 44.792969 22.714844 43.160156 22.617188 C 40.988281 22.617188 38.71875 22.804688 36.632812 23.378906 C 34.914062 23.855469 33.28125 24.617188 31.832031 25.761719 C 30.5625 26.808594 29.652344 28.144531 29.109375 29.671875 C 28.75 30.816406 28.566406 32.054688 28.75 33.292969 C 28.929688 34.535156 29.292969 35.773438 29.925781 36.820312 C 30.105469 37.203125 30.382812 37.492188 30.5625 37.871094 L 26.9375 37.871094 "/>
<path style=" stroke:none;fill-rule:nonzero;fill:rgb(13.729858%,12.159729%,12.548828%);fill-opacity:1;" d="M 54.6875 48.730469 C 54.59375 48.730469 54.476562 48.636719 54.480469 48.425781 L 54.484375 46.925781 L 53.761719 46.925781 L 53.761719 45.972656 L 44.332031 45.972656 C 44.058594 46.640625 43.335938 47.023438 42.695312 46.925781 C 42.0625 46.832031 41.609375 46.453125 41.339844 45.972656 L 31.457031 45.972656 L 31.457031 46.925781 L 30.734375 46.925781 L 30.734375 48.265625 C 30.734375 48.453125 30.734375 48.644531 30.644531 48.738281 C 30.554688 48.835938 30.464844 48.835938 30.28125 48.835938 L 29.011719 48.835938 C 28.921875 48.835938 28.738281 48.835938 28.648438 48.738281 C 28.558594 48.644531 28.558594 48.453125 28.558594 48.265625 L 28.558594 45.785156 C 28.195312 45.785156 27.925781 45.496094 27.925781 45.117188 C 27.925781 44.640625 28.195312 44.355469 28.558594 44.355469 L 28.558594 41.589844 C 28.558594 41.492188 28.558594 41.398438 28.558594 41.398438 C 28.558594 41.207031 28.558594 41.113281 28.648438 41.019531 C 28.738281 40.921875 29.011719 40.921875 29.191406 40.921875 L 30.101562 40.921875 C 30.28125 40.921875 30.554688 40.921875 30.644531 41.019531 C 30.734375 41.113281 30.734375 41.207031 30.734375 41.304688 C 30.734375 41.398438 30.734375 41.492188 30.734375 41.589844 L 30.734375 43.402344 C 30.824219 43.402344 31.28125 43.402344 31.28125 43.402344 C 31.457031 43.402344 31.457031 43.402344 31.457031 43.59375 L 31.457031 44.355469 L 41.339844 44.355469 C 41.609375 43.785156 42.246094 43.304688 42.878906 43.304688 C 43.605469 43.304688 44.152344 43.785156 44.421875 44.449219 L 53.761719 44.449219 L 53.761719 43.402344 L 54.484375 43.402344 L 54.484375 41.78125 C 54.484375 41.683594 54.484375 41.304688 54.9375 41.304688 L 56.023438 41.304688 C 56.476562 41.304688 56.476562 41.683594 56.476562 41.875 L 56.476562 44.640625 C 56.839844 44.640625 57.109375 44.925781 57.109375 45.308594 C 57.109375 45.6875 56.839844 45.972656 56.476562 45.972656 L 56.476562 48.167969 C 56.476562 48.265625 56.476562 48.359375 56.476562 48.453125 C 56.476562 48.550781 56.476562 48.738281 56.207031 48.738281 L 54.6875 48.730469 "/>
<path style=" stroke:none;fill-rule:nonzero;fill:rgb(13.729858%,12.159729%,12.548828%);fill-opacity:1;" d="M 57.941406 58.191406 C 57.082031 58.378906 56.230469 58.476562 55.5625 58.570312 C 53 58.757812 50.816406 58.757812 47.871094 58.097656 C 47.300781 58.003906 44.738281 57.4375 44.164062 57.34375 C 42.835938 57.15625 41.503906 57.15625 40.175781 57.34375 C 39.132812 57.53125 38.089844 57.71875 37.042969 57.910156 C 36.28125 58.097656 34.761719 58.378906 34.003906 58.476562 C 32.769531 58.664062 31.441406 58.664062 30.109375 58.570312 C 29.0625 58.570312 28.019531 58.378906 27.070312 58.191406 C 26.121094 58.003906 25.265625 57.71875 24.507812 57.53125 L 24.507812 56.023438 C 25.171875 56.308594 26.214844 56.589844 26.882812 56.78125 C 27.828125 56.96875 28.683594 57.058594 29.636719 57.15625 C 30.679688 57.246094 31.722656 57.246094 32.769531 57.246094 C 33.71875 57.15625 34.859375 57.058594 35.808594 56.78125 C 37.707031 56.214844 39.609375 55.835938 41.601562 55.835938 C 42.644531 55.835938 43.691406 55.835938 44.738281 56.023438 C 45.496094 56.121094 46.445312 56.308594 47.203125 56.496094 C 49.199219 56.96875 51.574219 57.34375 53.570312 57.34375 C 54.804688 57.34375 56.039062 57.246094 57.179688 57.058594 C 58.316406 56.78125 59.457031 56.589844 60.59375 56.214844 L 60.59375 57.625 C 59.835938 57.8125 58.890625 58.003906 57.941406 58.191406 "/>
<path style=" stroke:none;fill-rule:nonzero;fill:rgb(13.729858%,12.159729%,12.548828%);fill-opacity:1;" d="M 57.894531 55.445312 C 57.035156 55.632812 56.183594 55.726562 55.515625 55.824219 C 52.953125 56.011719 50.769531 56.011719 47.824219 55.351562 C 47.253906 55.257812 44.691406 54.691406 44.117188 54.597656 C 42.789062 54.40625 41.457031 54.40625 40.128906 54.597656 C 39.085938 54.785156 38.042969 54.972656 36.996094 55.164062 C 36.234375 55.351562 34.714844 55.632812 33.957031 55.726562 C 32.722656 55.914062 31.394531 55.914062 30.066406 55.824219 C 29.015625 55.824219 27.972656 55.632812 27.023438 55.445312 C 26.074219 55.257812 25.21875 54.972656 24.460938 54.785156 L 24.460938 53.277344 C 25.125 53.5625 26.167969 53.84375 26.835938 54.03125 C 27.78125 54.21875 28.640625 54.3125 29.589844 54.40625 C 30.632812 54.5 31.675781 54.5 32.722656 54.5 C 33.671875 54.40625 34.8125 54.3125 35.761719 54.03125 C 37.660156 53.46875 39.5625 53.089844 41.554688 53.089844 C 42.597656 53.089844 43.644531 53.089844 44.691406 53.277344 C 45.449219 53.375 46.398438 53.5625 47.15625 53.75 C 49.152344 54.21875 51.527344 54.597656 53.523438 54.597656 C 54.757812 54.597656 55.992188 54.5 57.132812 54.3125 C 58.269531 54.03125 59.410156 53.84375 60.546875 53.46875 L 60.546875 54.878906 C 59.789062 55.066406 58.84375 55.257812 57.894531 55.445312 "/>
<path style=" stroke:none;fill-rule:nonzero;fill:rgb(96.374512%,51.715088%,16.333008%);fill-opacity:1;" d="M 35.59375 39.644531 C 35.648438 39.660156 35.699219 39.683594 35.753906 39.699219 C 37.0625 40.140625 38.316406 40.460938 39.648438 40.589844 C 40.546875 40.679688 41.40625 40.730469 42.269531 40.730469 C 42.742188 40.730469 43.222656 40.71875 43.710938 40.6875 C 45.238281 40.582031 46.773438 40.445312 48.175781 40.058594 C 49.058594 39.816406 50.191406 39.421875 50.871094 39.035156 C 52.199219 38.28125 53.527344 37.410156 54.347656 36.015625 C 54.628906 35.546875 54.808594 35.207031 54.925781 34.832031 C 55.1875 33.953125 55.355469 33.054688 55.355469 32.195312 C 55.355469 31.980469 55.34375 31.761719 55.320312 31.546875 C 55.21875 30.558594 54.777344 29.566406 54.140625 28.660156 C 53.460938 27.691406 52.523438 26.84375 51.464844 26.183594 C 50.363281 25.496094 49.136719 25.058594 47.75 24.71875 C 46.183594 24.328125 44.65625 24.089844 43.15625 24.089844 C 41.035156 24.089844 38.890625 24.273438 36.953125 24.804688 C 35.359375 25.242188 33.886719 25.925781 32.621094 26.945312 C 31.546875 27.808594 30.792969 28.917969 30.367188 30.179688 C 30.136719 30.847656 30.015625 31.554688 30.015625 32.25 C 30.015625 32.523438 30.03125 32.792969 30.066406 33.054688 C 30.226562 34.125 30.558594 35.15625 31.0625 36.035156 C 31.117188 36.136719 31.179688 36.234375 31.277344 36.378906 C 31.398438 36.566406 31.496094 36.824219 31.726562 37.09375 C 32.804688 38.347656 34.15625 39.15625 35.59375 39.644531 "/>
</g>
</svg>
