<svg width="86" height="86" xmlns="http://www.w3.org/2000/svg">
 <!-- Created with Method Draw - http://github.com/duopixel/Method-Draw/ -->

 <g>
  <title>background</title>
  <rect fill="#FFFFFF" opacity="0" id="canvas_background" height="88" width="88" y="-1" x="-1"/>
  <g display="none" overflow="visible" y="0" x="0" height="100%" width="100%" id="canvasGrid">
   <rect fill="url(#gridpattern)" stroke-width="0" y="0" x="0" height="100%" width="100%"/>
  </g>
 </g>
 <g>
  <title>Layer 1</title>
  <metadata id="svg_11">image/svg+xml</metadata>

  <g id="svg_13">
   <path fill="#ee2b2e" fill-rule="nonzero" id="svg_10" d="m43.00134,0.14045c23.67291,0 42.86089,19.18797 42.86089,42.86089c0,23.67291 -19.18798,42.86089 -42.86089,42.86089c-23.66898,0 -42.86089,-19.18798 -42.86089,-42.86089c0,-23.67292 19.19191,-42.86089 42.86089,-42.86089"/>
   <path fill="#ffffff" fill-rule="nonzero" id="svg_9" d="m43.00134,14.4261c3.88248,0 7.58777,0.74815 11.11981,2.2405c3.41784,1.4451 6.44587,3.48873 9.088,6.13086c2.6382,2.6382 4.68182,5.67016 6.12693,9.08407c1.49236,3.53204 2.24049,7.23733 2.24049,11.11981c0,3.88248 -0.74814,7.58777 -2.24049,11.11981c-1.44511,3.41391 -3.48873,6.44587 -6.12693,9.08407c-2.64213,2.64213 -5.67016,4.68576 -9.088,6.13086c-3.53204,1.49236 -7.23733,2.2405 -11.11981,2.2405c-3.88248,0 -7.58778,-0.74815 -11.11588,-2.2405c-3.41784,-1.4451 -6.44587,-3.48873 -9.088,-6.13086c-2.64213,-2.6382 -4.68576,-5.67016 -6.13086,-9.08407c-1.49236,-3.53204 -2.2405,-7.23733 -2.2405,-11.11981c0,-3.88248 0.74815,-7.58777 2.2405,-11.11981c1.4451,-3.41391 3.48873,-6.44587 6.13086,-9.08407c2.64213,-2.64213 5.67016,-4.68576 9.088,-6.13086c3.5281,-1.49236 7.2334,-2.2405 11.11588,-2.2405"/>
   <path fill="#211e1e" fill-rule="nonzero" id="svg_8" d="m62.30351,51.42389l0,-2.23656c-0.18901,0.09056 -0.38195,0.17719 -0.59852,0.23232c-0.21657,0.08269 -0.46464,0.11419 -0.7639,0.11419c-0.51976,0 -0.87414,-0.16932 -1.11828,-0.48827c-0.24808,-0.31501 -0.35832,-0.8584 -0.35832,-1.66166l0,-8.13904l2.83902,0l0,-2.28775l-2.83902,0l0,-3.89824l-2.83902,0.88596l0,3.01228l-2.24049,0l0,2.28775l2.24049,0l0,8.74149c0,1.40573 0.29926,2.40982 0.92928,2.98077c0.62608,0.60246 1.50023,0.88597 2.65001,0.88597c0.40951,0 0.81902,-0.0315 1.16947,-0.11419c0.35438,-0.11026 0.68515,-0.19688 0.92928,-0.31501"/>
  </g>
  <text xml:space="preserve" text-anchor="start" font-family="sans-serif" font-size="20" id="svg_14" y="51.08334" x="22.64286" stroke-width="0" stroke="#000" fill="#000000">param(text1)</text>
 </g>
</svg>