<?xml version="1.0" encoding="UTF-8" standalone="no"?>
<svg
   xmlns:dc="http://purl.org/dc/elements/1.1/"
   xmlns:cc="http://creativecommons.org/ns#"
   xmlns:rdf="http://www.w3.org/1999/02/22-rdf-syntax-ns#"
   xmlns:svg="http://www.w3.org/2000/svg"
   xmlns="http://www.w3.org/2000/svg"
   xmlns:sodipodi="http://sodipodi.sourceforge.net/DTD/sodipodi-0.dtd"
   xmlns:inkscape="http://www.inkscape.org/namespaces/inkscape"
   width="86"
   height="86"
   version="1.1"
   id="svg918"
   sodipodi:docname="220.svg"
   inkscape:version="1.0.2 (e86c870879, 2021-01-15, custom)">
  <metadata
     id="metadata924">
    <rdf:RDF>
      <cc:Work
         rdf:about="">
        <dc:format>image/svg+xml</dc:format>
        <dc:type
           rdf:resource="http://purl.org/dc/dcmitype/StillImage" />
        <dc:title></dc:title>
      </cc:Work>
    </rdf:RDF>
  </metadata>
  <defs
     id="defs922" />
  <sodipodi:namedview
     pagecolor="#ffffff"
     bordercolor="#666666"
     borderopacity="1"
     objecttolerance="10"
     gridtolerance="10"
     guidetolerance="10"
     inkscape:pageopacity="0"
     inkscape:pageshadow="2"
     inkscape:window-width="1920"
     inkscape:window-height="1017"
     id="namedview920"
     showgrid="false"
     inkscape:zoom="4.0069384"
     inkscape:cx="72.938299"
     inkscape:cy="38.144729"
     inkscape:window-x="3832"
     inkscape:window-y="-8"
     inkscape:window-maximized="1"
     inkscape:current-layer="svg918" />
  <!-- Created with Method Draw - http://github.com/duopixel/Method-Draw/ -->
  <g
     id="g898">
    <title
       id="title892">background</title>
    <rect
       fill="#ffffff"
       opacity="0"
       id="canvas_background"
       height="602"
       width="602"
       y="-1"
       x="-1" />
    <g
       display="none"
       overflow="visible"
       y="0"
       x="0"
       height="100%"
       width="100%"
       id="canvasGrid">
      <rect
         fill="url(#gridpattern)"
         stroke-width="0"
         y="0"
         x="0"
         height="100%"
         width="100%"
         id="rect895" />
    </g>
  </g>
  <g
     id="g916"
     transform="matrix(0.18747485,0,0,0.18747485,-13.522168,-13.186955)">
    <title
       id="title900">Layer 1</title>
    <metadata
       transform="matrix(5.284713788460294,0,0,5.284713788460294,0,0) "
       id="svg_27">image/svg+xml</metadata>
    <g
       id="svg_29">
      <path
         fill="#ee2b2e"
         fill-rule="nonzero"
         id="svg_26"
         d="m 299.99999,75.29645 c 124.10823,0 224.70355,100.59537 224.70355,224.70355 0,124.10823 -100.59532,224.70355 -224.70355,224.70355 C 175.89182,524.70355 75.29644,424.10823 75.29644,300 c 0,-124.10817 100.59537,-224.70355 224.70355,-224.70355" />
      <path
         fill="#ffffff"
         fill-rule="nonzero"
         id="svg_25"
         d="m 299.91745,150.21139 c 20.35439,0 39.77984,3.9016 58.297,11.72546 17.89785,7.57617 33.79326,18.29008 47.62436,32.14179 13.85171,13.85176 24.56562,29.72652 32.14179,47.64502 7.82386,18.4965 11.74607,37.92194 11.74607,58.27634 0,20.35445 -3.92221,39.77989 -11.74607,58.297 -7.57617,17.91851 -18.29008,33.79326 -32.14179,47.64502 -13.8311,13.8311 -29.72652,24.54501 -47.62436,32.12112 -18.51716,7.82386 -37.94261,11.74612 -58.297,11.74612 -20.35445,0 -39.77989,-3.92226 -58.27639,-11.74612 C 223.7226,430.48703 207.8478,419.77312 193.99609,405.94202 180.14433,392.09026 169.43042,376.2155 161.8543,358.297 154.03044,339.77989 150.10818,320.35445 150.10818,300 c 0,-20.35439 3.92226,-39.77984 11.74612,-58.27634 7.57611,-17.91851 18.29002,-33.79326 32.14179,-47.64502 13.85171,-13.85171 29.72652,-24.56562 47.64497,-32.14179 18.4965,-7.82386 37.92194,-11.72546 58.27639,-11.72546" />
      <path
         fill="#211e1e"
         fill-rule="nonzero"
         id="svg_24"
         d="m 212.36871,285.09546 c 9.33085,0 16.86569,7.41097 17.01017,16.556 0.10321,9.31019 -7.43163,17.0515 -16.9689,17.07211 -9.49594,0.0206 -17.11338,-7.67932 -17.03078,-17.01017 0.10321,-9.16565 7.61739,-16.61794 16.98951,-16.61794" />
      <path
         fill="#211e1e"
         fill-rule="nonzero"
         id="svg_23"
         d="m 351.46402,285.01291 c 9.68175,0 17.54694,7.74126 17.36113,17.21659 -0.20642,9.16565 -7.96834,16.30831 -17.29919,16.34958 -9.39273,0.0206 -17.23726,-7.18393 -17.42301,-16.37025 -0.16515,-9.47533 7.65871,-17.19593 17.36108,-17.19593" />
      <path
         fill="#211e1e"
         fill-rule="nonzero"
         id="svg_22"
         d="m 226.94295,360.8568 v 11.66352 l -21.26268,-1.5276 2.95199,12.1383 c 0.0206,0.10321 0.0826,0.37157 0.0826,0.49544 0.0619,0.53672 -0.16515,1.09409 -0.61932,1.44505 -0.49544,0.35096 -1.15603,0.39223 -1.65147,0.10321 -0.16515,-0.0826 -0.28902,-0.16515 -0.39223,-0.28902 l -19.65253,-16.80375 c -0.0826,-0.0619 -0.22708,-0.16515 -0.28902,-0.24769 -0.24769,-0.26836 -0.35096,-0.61932 -0.35096,-0.97022 0,-0.41289 0.10321,-0.7638 0.33029,-1.05282 0.0826,-0.10321 0.20642,-0.20642 0.26836,-0.28902 l 19.40483,-17.03084 c 0.14448,-0.12387 0.28902,-0.24769 0.41289,-0.33029 0.57804,-0.35096 1.30052,-0.35096 1.85789,0.0619 0.39223,0.28902 0.61932,0.74319 0.66059,1.25929 0,0.16515 -0.0412,0.33029 -0.0619,0.51611 l -2.91071,12.36538 21.22146,-1.50699" />
      <path
         fill="#211e1e"
         fill-rule="nonzero"
         id="svg_21"
         d="m 191.04405,265.93837 c -0.99088,0 -2.16753,0.68125 -2.91071,1.40378 -0.74314,0.70186 -1.40373,1.75468 -1.5276,2.82811 l -2.39461,23.01741 -1.79601,0.0619 c -0.59865,0.0826 -1.25924,0.18581 -1.71341,0.55738 -0.43351,0.45417 -0.55738,1.13537 -0.55738,1.67208 l -0.0619,2.02309 c 0,0.80507 0.45417,1.5276 1.11476,1.85789 0.16515,0.10321 0.45417,0.22708 0.68125,0.28902 l -0.22708,2.39461 h 10.01205 c 0,-0.30963 0,-0.7638 0,-1.07343 0.57804,-10.79651 9.64048,-19.30162 20.68469,-19.30162 11.20941,0 20.84989,8.36058 20.70535,19.30162 -0.0206,0.26836 -0.0206,0.63993 -0.0619,0.90828 l 97.00341,0.0412 c 0.0206,-0.35096 -0.0206,-0.59865 0.0206,-0.92895 1.09409,-11.12681 10.11526,-20.25118 21.53109,-20.14797 11.4571,0.10321 20.29246,9.496 21.18013,20.66408 0.0206,0.22708 0.0206,0.51611 0.0412,0.72253 h 14.51235 c 0.12387,-1.09415 1.21792,-6.42013 1.13537,-6.42013 l 20.12731,-4.3351 v -5.07829 l -37.4265,0.0619 c -0.28886,-0.53666 -0.68109,-1.09404 -1.05271,-1.52755 -0.43351,-0.53672 -1.25924,-1.40373 -1.81662,-2.0437 l 40.23406,-0.0206 v -57.76028 l -161.576,0.0619 v 58.15246 h 87.09457 c -0.53677,0.47478 -1.19736,1.19736 -1.67214,1.77535 l -1.1973,1.36245 -86.82621,-0.0412 0.0206,-41.96803 h -29.16914 c -2.08498,0 -4.25256,0.86701 -6.06918,1.94044 -1.63081,0.99088 -3.0552,2.41533 -3.86032,4.10807 l -7.22521,15.37931 -6.9568,0.0619" />
      <path
         fill="#211e1e"
         fill-rule="nonzero"
         id="svg_20"
         d="m 373.01577,360.8568 v 11.64286 l 21.26273,-1.5276 -2.95204,12.13835 c -0.0206,0.10321 -0.0826,0.37152 -0.0826,0.49544 -0.0619,0.53672 0.16515,1.09409 0.63993,1.445 0.47483,0.35096 1.13542,0.39223 1.65147,0.12387 0.14454,-0.10321 0.28902,-0.18581 0.37157,-0.28902 l 19.65253,-16.82436 c 0.10321,-0.0619 0.22708,-0.16515 0.28902,-0.24769 0.24769,-0.26836 0.37157,-0.61932 0.37157,-0.97022 0,-0.41289 -0.12387,-0.76385 -0.33029,-1.05282 -0.10321,-0.10321 -0.20642,-0.20642 -0.28902,-0.28902 l -19.40473,-17.03084 c -0.12387,-0.12387 -0.28902,-0.22708 -0.39223,-0.33029 -0.59865,-0.35096 -1.32118,-0.35096 -1.87856,0.0619 -0.39223,0.28902 -0.61932,0.74314 -0.66059,1.25924 0,0.16515 0.0412,0.33029 0.0619,0.51611 l 2.91071,12.36538 -21.2214,-1.48633" />
      <path
         fill="#ffffff"
         fill-rule="nonzero"
         id="svg_19"
         d="m 212.38937,294.90109 c 3.819,0.0206 6.89486,3.07586 6.99812,6.81231 0.0826,3.83966 -2.99331,7.0394 -6.93619,7.122 -4.00486,0.0619 -7.24587,-3.11719 -7.24587,-7.0394 0.0206,-3.86032 3.24101,-6.89491 7.18393,-6.89491" />
      <path
         fill="#ffffff"
         fill-rule="nonzero"
         id="svg_18"
         d="m 351.58789,294.77722 c 4.04614,0.0206 7.10133,3.50937 6.91552,7.4729 -0.18581,3.63324 -3.22035,6.46141 -6.93619,6.52335 -3.73645,0.0619 -6.9568,-2.72496 -7.24582,-6.42008 -0.26836,-4.12868 3.05525,-7.61744 7.26648,-7.57617" />
      <path
         fill="#ffffff"
         fill-rule="nonzero"
         id="svg_17"
         d="m 210.34567,248.70112 h 5.59435 l -8.05094,17.25792 h -5.59435 l 8.05094,-17.25792" />
      <path
         fill="#ffffff"
         fill-rule="nonzero"
         id="svg_16"
         d="m 220.64674,248.70112 h 14.96647 v 17.15471 h -22.97614 l 8.00967,-17.15471" />
    </g>
    <text
       xml:space="default"
       dominant-baseline="middle"
       text-anchor="middle"
       font-family="sans-serif"
       font-size="60px"
       id="svg_30"
       y="379.65417"
       x="300"
       stroke-width="0"
       fill="#000000">param(text1)</text>
  </g>
</svg>
