<?xml version="1.0" encoding="UTF-8" standalone="no"?>
<svg
   width="87pt"
   height="86pt"
   viewBox="0 0 87 86"
   version="1.1"
   id="svg5"
   xmlns="http://www.w3.org/2000/svg"
   xmlns:svg="http://www.w3.org/2000/svg">
  <defs
     id="defs5" />
  <path
     style="fill:#ffffff;fill-opacity:1;fill-rule:nonzero;stroke:#211e1e;stroke-width:0.2835;stroke-linecap:butt;stroke-linejoin:round;stroke-miterlimit:4;stroke-opacity:1"
     d="m 43.519531,0.652344 c 23.476563,0 42.519531,19.042969 42.519531,42.519531 0,23.480469 -19.042968,42.519531 -42.519531,42.519531 C 20.039062,85.691406 1,66.652344 1,43.171875 1,19.695313 20.039062,0.652344 43.519531,0.652344"
     id="path1" />
  <path
     style="fill:#1966ba;fill-opacity:1;fill-rule:nonzero;stroke:none"
     d="m 43.501953,2.074219 c 5.574218,0 10.90625,1.074219 15.996093,3.226562 4.917969,2.082031 9.269531,5.015625 13.066407,8.808594 3.792968,3.792969 6.726562,8.148437 8.808593,13.066406 2.152344,5.089844 3.226563,10.421875 3.226563,15.996094 0,5.574219 -1.074219,10.910156 -3.226563,15.996094 -2.082031,4.917969 -5.015625,9.273437 -8.808593,13.066406 -3.796876,3.792969 -8.148438,6.730469 -13.066407,8.808594 -5.089843,2.15625 -10.421875,3.230469 -15.996093,3.230469 -5.574219,0 -10.910157,-1.074219 -15.996094,-3.230469 C 22.58789,78.964844 18.232421,76.027344 14.439453,72.234375 10.646484,68.441406 7.7089847,64.085938 5.6308597,59.167969 3.4785157,54.082031 2.4003907,48.746094 2.4003907,43.171875 c 0,-5.574219 1.078125,-10.90625 3.230469,-15.996094 C 7.7089847,22.257812 10.646484,17.902344 14.439453,14.109375 18.232421,10.316406 22.58789,7.382812 27.505859,5.300781 32.591796,3.148438 37.927734,2.074219 43.501953,2.074219"
     id="path2" />
  <path
     style="fill:#1966ba;fill-opacity:1;fill-rule:nonzero;stroke:none"
     d="m 57.535156,29.5 c 0.496094,-0.01563 0.980469,0.08984 1.410156,0.316406 0.421876,0.214844 0.769532,0.597656 1.023438,0.972656 0.425781,0.632813 0.722656,1.53125 0.921875,2.261719 0.332031,1.246094 0.589844,2.515625 0.796875,3.789063 0.203125,1.3125 0.351562,2.644531 0.449219,3.972656 0.08984,1.363281 0.144531,2.726562 0.136719,4.09375 -0.0039,1.535156 -0.07813,3.078125 -0.21875,4.617188 -0.140626,1.542968 -0.367188,3.148437 -0.710938,4.65625 -0.242188,1.050781 -0.566406,2.109374 -0.988281,3.105468 -0.21875,0.515625 -0.5,1.054688 -0.835938,1.507813 -0.230469,0.300781 -0.507812,0.59375 -0.839843,0.804687 -0.351563,0.222656 -0.769532,0.355469 -1.195313,0.378906 -0.503906,0.03125 -1.019531,-0.08203 -1.433594,-0.363281 -0.296875,-0.195312 -0.574219,-0.519531 -0.777343,-0.8125 -0.320313,-0.46875 -0.59375,-0.980469 -0.820313,-1.507812 -0.425781,-0.972657 -0.714844,-2.085938 -0.917969,-3.117188 -0.28125,-1.46875 -0.46875,-3.242187 -0.59375,-4.726562 -0.121094,-1.464844 -0.226562,-3.160157 -0.226562,-4.621094 0,-1.347656 0.08594,-2.722656 0.226562,-4.066406 0.140625,-1.335938 0.34375,-2.675781 0.585938,-4.003907 0.21875,-1.207031 0.492187,-2.46875 0.832031,-3.648437 0.21875,-0.769531 0.554687,-1.6875 1.019531,-2.335937 0.265625,-0.371094 0.605469,-0.738282 1.019532,-0.949219 0.347656,-0.171875 0.738281,-0.296875 1.136718,-0.324219"
     id="path5" />
  <text
     xml:space="preserve"
     style="font-weight:bold;font-size:48px;line-height:1.25;font-family:Arial;-inkscape-font-specification:'Arial, Bold';text-align:center;text-anchor:middle;stroke-width:0.750002"
     x="43.113281"
     y="61.726952"
     id="text1"><tspan
       id="tspan1"
       style="font-style:normal;font-variant:normal;font-weight:bold;font-stretch:normal;font-size:48px;font-family:Arial;-inkscape-font-specification:'Arial Bold';text-align:center;text-anchor:middle;fill:#ffffff;fill-opacity:1;stroke-width:0.750002"
       x="43.113281"
       y="61.726952">param(text1)</tspan></text>
</svg>
