<?xml version="1.0" encoding="UTF-8"?>
<svg xmlns="http://www.w3.org/2000/svg" xmlns:xlink="http://www.w3.org/1999/xlink" width="87pt" height="86pt" viewBox="0 0 87 86" version="1.1">
<g id="surface1">
<path style="fill-rule:nonzero;fill:rgb(100%,100%,100%);fill-opacity:1;stroke-width:2.835;stroke-linecap:butt;stroke-linejoin:round;stroke:rgb(13.729858%,12.159729%,12.548828%);stroke-opacity:1;stroke-miterlimit:4;" d="M 134.53125 728.945312 C -31.523438 562.890625 -31.523438 293.671875 134.53125 127.617188 C 300.585938 -38.4375 569.804688 -38.4375 735.859375 127.617188 C 901.914062 293.671875 901.914062 562.890625 735.859375 728.945312 C 569.804688 894.960938 300.585938 894.960938 134.53125 728.945312 " transform="matrix(0.1,0,0,-0.1,0,86)"/>
<path style=" stroke:none;fill-rule:nonzero;fill:rgb(10.112%,40.585327%,73.280334%);fill-opacity:1;" d="M 14.453125 14.109375 C 10.507812 18.050781 7.5 22.582031 5.421875 27.707031 C 3.414062 32.652344 2.414062 37.808594 2.414062 43.171875 C 2.414062 48.535156 3.414062 53.691406 5.421875 58.640625 C 7.5 63.761719 10.507812 68.292969 14.453125 72.234375 C 18.394531 76.179688 22.925781 79.1875 28.046875 81.265625 C 32.996094 83.273438 38.152344 84.273438 43.515625 84.273438 C 48.878906 84.273438 54.035156 83.273438 58.980469 81.265625 C 64.105469 79.1875 68.636719 76.179688 72.578125 72.234375 C 76.523438 68.292969 79.53125 63.761719 81.605469 58.640625 C 83.613281 53.691406 84.617188 48.535156 84.617188 43.171875 C 84.617188 37.808594 83.613281 32.652344 81.605469 27.707031 C 79.53125 22.582031 76.523438 18.050781 72.578125 14.109375 C 68.636719 10.167969 64.105469 7.15625 58.980469 5.082031 C 54.035156 3.074219 48.878906 2.070312 43.515625 2.070312 C 38.152344 2.070312 32.996094 3.074219 28.046875 5.082031 C 22.925781 7.15625 18.394531 10.167969 14.453125 14.109375 "/>
<path style=" stroke:none;fill-rule:nonzero;fill:rgb(100%,100%,100%);fill-opacity:1;" d="M 17.972656 68.734375 C 17.632812 68.394531 17.496094 67.90625 17.578125 67.472656 L 22.632812 40.347656 C 22.679688 40.085938 22.804688 39.835938 23.003906 39.636719 C 23.539062 39.101562 24.410156 39.105469 24.953125 39.652344 C 25.035156 39.734375 25.105469 39.824219 25.160156 39.917969 L 31.011719 48.265625 L 62.078125 12.621094 L 74.066406 24.621094 L 38.421875 55.683594 L 46.769531 61.535156 C 46.863281 61.589844 46.957031 61.660156 47.035156 61.742188 C 47.582031 62.285156 47.585938 63.160156 47.050781 63.695312 C 46.851562 63.894531 46.601562 64.019531 46.339844 64.066406 L 19.214844 69.121094 C 18.78125 69.199219 18.3125 69.074219 17.972656 68.734375 "/>
</g>
</svg>
