<?xml version="1.0" encoding="UTF-8"?>
<svg xmlns="http://www.w3.org/2000/svg" xmlns:xlink="http://www.w3.org/1999/xlink" width="87pt" height="86pt" viewBox="0 0 87 86" version="1.1">
<g id="surface1">
<path style="fill-rule:nonzero;fill:rgb(100%,100%,100%);fill-opacity:1;stroke-width:2.835;stroke-linecap:butt;stroke-linejoin:round;stroke:rgb(13.729858%,12.159729%,12.548828%);stroke-opacity:1;stroke-miterlimit:4;" d="M 10 428.28125 C 10 663.085938 200.351562 853.476562 435.195312 853.476562 C 670.039062 853.476562 860.390625 663.085938 860.390625 428.28125 C 860.390625 193.4375 670.039062 3.085938 435.195312 3.085938 C 200.351562 3.085938 10 193.4375 10 428.28125 " transform="matrix(0.1,0,0,-0.1,0,86)"/>
<path style=" stroke:none;fill-rule:nonzero;fill:rgb(10.112%,40.585327%,73.280334%);fill-opacity:1;" d="M 2.417969 43.167969 C 2.417969 37.59375 3.492188 32.261719 5.644531 27.171875 C 7.726562 22.253906 10.660156 17.898438 14.457031 14.105469 C 18.246094 10.3125 22.601562 7.375 27.519531 5.296875 C 32.609375 3.144531 37.945312 2.066406 43.519531 2.066406 C 49.09375 2.066406 54.425781 3.144531 59.519531 5.296875 C 64.433594 7.375 68.789062 10.3125 72.582031 14.105469 C 76.375 17.898438 79.3125 22.253906 81.390625 27.171875 C 83.542969 32.261719 84.621094 37.59375 84.621094 43.167969 C 84.621094 48.746094 83.542969 54.078125 81.390625 59.167969 C 79.3125 64.085938 76.375 68.441406 72.582031 72.234375 C 68.789062 76.027344 64.433594 78.960938 59.519531 81.042969 C 54.425781 83.195312 49.09375 84.269531 43.519531 84.269531 C 37.945312 84.269531 32.609375 83.195312 27.519531 81.042969 C 22.601562 78.960938 18.246094 76.027344 14.457031 72.234375 C 10.660156 68.441406 7.726562 64.085938 5.644531 59.167969 C 3.492188 54.078125 2.417969 48.746094 2.417969 43.167969 "/>
<path style=" stroke:none;fill-rule:nonzero;fill:rgb(100%,100%,100%);fill-opacity:1;" d="M 43.53125 7.03125 C 43.050781 7.035156 42.609375 7.28125 42.359375 7.644531 L 26.753906 30.402344 C 26.601562 30.617188 26.511719 30.882812 26.511719 31.164062 C 26.511719 31.921875 27.132812 32.535156 27.902344 32.535156 C 28.019531 32.535156 28.132812 32.523438 28.238281 32.496094 L 38.277344 30.726562 L 35.039062 77.898438 L 52.003906 77.890625 L 48.765625 30.722656 L 58.804688 32.488281 C 58.910156 32.515625 59.023438 32.527344 59.140625 32.527344 C 59.90625 32.527344 60.527344 31.917969 60.527344 31.160156 C 60.527344 30.875 60.441406 30.613281 60.289062 30.394531 L 44.679688 7.636719 C 44.429688 7.277344 44.011719 7.03125 43.53125 7.03125 "/>
</g>
</svg>
