<?xml version="1.0" encoding="UTF-8"?>
<svg xmlns="http://www.w3.org/2000/svg" xmlns:xlink="http://www.w3.org/1999/xlink" width="87pt" height="86pt" viewBox="0 0 87 86" version="1.1">
<g id="surface1">
<path style=" stroke:none;fill-rule:nonzero;fill:rgb(93.527222%,17.272949%,18.882751%);fill-opacity:1;" d="M 86.039062 43.171875 C 86.039062 19.691406 67.003906 0.652344 43.519531 0.652344 C 20.035156 0.652344 1 19.691406 1 43.171875 C 1 66.65625 20.035156 85.691406 43.519531 85.691406 C 67.003906 85.691406 86.039062 66.65625 86.039062 43.171875 "/>
<path style=" stroke:none;fill-rule:nonzero;fill:rgb(100%,100%,100%);fill-opacity:1;" d="M 71.863281 43.171875 C 71.863281 27.515625 59.175781 14.828125 43.519531 14.828125 C 27.863281 14.828125 15.171875 27.515625 15.171875 43.171875 C 15.171875 58.828125 27.863281 71.519531 43.519531 71.519531 C 59.175781 71.519531 71.863281 58.828125 71.863281 43.171875 "/>
<path style=" stroke:none;fill-rule:nonzero;fill:rgb(13.729858%,12.159729%,12.548828%);fill-opacity:1;" d="M 47.746094 44.558594 C 47.316406 44.027344 47.058594 43.351562 47.058594 42.617188 C 47.058594 41.417969 47.742188 40.378906 48.746094 39.867188 L 50.976562 35.871094 C 51.242188 35.40625 51.734375 35.09375 52.304688 35.09375 L 61.582031 35.09375 C 62.152344 35.09375 62.648438 35.40625 62.90625 35.871094 L 65.144531 39.867188 C 66.144531 40.378906 66.832031 41.417969 66.832031 42.617188 C 66.832031 43.351562 66.570312 44.027344 66.140625 44.558594 L 65.933594 46.203125 L 65.601562 46.203125 L 65.601562 48.847656 L 67.6875 48.847656 C 68.078125 48.847656 68.390625 49.160156 68.390625 49.554688 C 68.390625 49.941406 68.078125 50.257812 67.6875 50.257812 L 46.199219 50.257812 C 45.8125 50.257812 45.496094 49.941406 45.496094 49.554688 C 45.496094 49.160156 45.8125 48.847656 46.199219 48.847656 L 48.285156 48.847656 L 48.285156 46.203125 L 47.957031 46.203125 L 47.746094 44.558594 "/>
<path style=" stroke:none;fill-rule:nonzero;fill:rgb(93.527222%,17.272949%,18.882751%);fill-opacity:1;" d="M 20.898438 44.558594 C 20.46875 44.027344 20.210938 43.351562 20.210938 42.617188 C 20.210938 41.417969 20.894531 40.378906 21.898438 39.867188 L 24.128906 35.871094 C 24.390625 35.40625 24.886719 35.09375 25.457031 35.09375 L 34.734375 35.09375 C 35.300781 35.09375 35.800781 35.40625 36.058594 35.871094 L 38.296875 39.867188 C 39.296875 40.378906 39.980469 41.417969 39.980469 42.617188 C 39.980469 43.351562 39.722656 44.027344 39.292969 44.558594 L 39.085938 46.203125 L 38.753906 46.203125 L 38.753906 48.847656 L 40.839844 48.847656 C 41.226562 48.847656 41.542969 49.160156 41.542969 49.554688 C 41.542969 49.941406 41.226562 50.257812 40.839844 50.257812 L 19.351562 50.257812 C 18.960938 50.257812 18.648438 49.941406 18.648438 49.554688 C 18.648438 49.160156 18.960938 48.847656 19.351562 48.847656 L 21.4375 48.847656 L 21.4375 46.203125 L 21.105469 46.203125 L 20.898438 44.558594 "/>
<path style=" stroke:none;fill-rule:nonzero;fill:rgb(100%,100%,100%);fill-opacity:1;" d="M 63.242188 39.765625 C 61.207031 39.660156 59.085938 39.59375 56.941406 39.578125 C 54.796875 39.59375 52.679688 39.660156 50.644531 39.765625 L 52.117188 37.125 C 52.285156 36.828125 52.601562 36.628906 52.964844 36.628906 L 60.921875 36.628906 C 61.28125 36.628906 61.597656 36.828125 61.765625 37.125 L 63.242188 39.765625 "/>
<path style=" stroke:none;fill-rule:nonzero;fill:rgb(100%,100%,100%);fill-opacity:1;" d="M 50.371094 46.203125 L 55.039062 46.203125 C 55.484375 46.765625 56.167969 47.121094 56.941406 47.121094 C 57.714844 47.121094 58.398438 46.765625 58.84375 46.203125 L 63.511719 46.203125 L 63.511719 48.847656 L 50.371094 48.847656 L 50.371094 46.203125 "/>
<path style=" stroke:none;fill-rule:nonzero;fill:rgb(100%,100%,100%);fill-opacity:1;" d="M 36.390625 39.765625 C 34.355469 39.660156 32.238281 39.59375 30.09375 39.578125 C 27.949219 39.59375 25.832031 39.660156 23.792969 39.765625 L 25.269531 37.125 C 25.433594 36.828125 25.75 36.628906 26.113281 36.628906 L 34.074219 36.628906 C 34.433594 36.628906 34.75 36.828125 34.914062 37.125 L 36.390625 39.765625 "/>
<path style=" stroke:none;fill-rule:nonzero;fill:rgb(100%,100%,100%);fill-opacity:1;" d="M 23.523438 46.203125 L 28.191406 46.203125 C 28.636719 46.765625 29.320312 47.121094 30.09375 47.121094 C 30.863281 47.121094 31.550781 46.765625 31.996094 46.203125 L 36.660156 46.203125 L 36.660156 48.847656 L 23.523438 48.847656 L 23.523438 46.203125 "/>
</g>
</svg>
