<?xml version="1.0" encoding="UTF-8" standalone="no"?>
<svg
   xmlns:dc="http://purl.org/dc/elements/1.1/"
   xmlns:cc="http://creativecommons.org/ns#"
   xmlns:rdf="http://www.w3.org/1999/02/22-rdf-syntax-ns#"
   xmlns:svg="http://www.w3.org/2000/svg"
   xmlns="http://www.w3.org/2000/svg"
   xmlns:sodipodi="http://sodipodi.sourceforge.net/DTD/sodipodi-0.dtd"
   xmlns:inkscape="http://www.inkscape.org/namespaces/inkscape"
   width="86"
   height="86"
   version="1.1"
   id="svg1361"
   sodipodi:docname="247.svg"
   inkscape:version="1.0.2 (e86c870879, 2021-01-15, custom)">
  <metadata
     id="metadata1367">
    <rdf:RDF>
      <cc:Work
         rdf:about="">
        <dc:format>image/svg+xml</dc:format>
        <dc:type
           rdf:resource="http://purl.org/dc/dcmitype/StillImage" />
        <dc:title></dc:title>
      </cc:Work>
    </rdf:RDF>
  </metadata>
  <defs
     id="defs1365" />
  <sodipodi:namedview
     pagecolor="#ffffff"
     bordercolor="#666666"
     borderopacity="1"
     objecttolerance="10"
     gridtolerance="10"
     guidetolerance="10"
     inkscape:pageopacity="0"
     inkscape:pageshadow="2"
     inkscape:window-width="1920"
     inkscape:window-height="1017"
     id="namedview1363"
     showgrid="false"
     inkscape:zoom="2.8333333"
     inkscape:cx="76.911701"
     inkscape:cy="74.627387"
     inkscape:window-x="3832"
     inkscape:window-y="-8"
     inkscape:window-maximized="1"
     inkscape:current-layer="svg1361" />
  <!-- Created with Method Draw - http://github.com/duopixel/Method-Draw/ -->
  <g
     id="g1341">
    <title
       id="title1335">background</title>
    <rect
       fill="#ffffff"
       opacity="0"
       id="canvas_background"
       height="602"
       width="602"
       y="-1"
       x="-1" />
    <g
       display="none"
       overflow="visible"
       y="0"
       x="0"
       height="100%"
       width="100%"
       id="canvasGrid">
      <rect
         fill="url(#gridpattern)"
         stroke-width="0"
         y="0"
         x="0"
         height="100%"
         width="100%"
         id="rect1338" />
    </g>
  </g>
  <g
     id="g1359"
     transform="matrix(0.18352625,0,0,0.18352625,-12.009129,-11.999049)">
    <title
       id="title1343">Layer 1</title>
    <metadata
       transform="matrix(5.408328439558829,0,0,5.408328439558829,0,0) "
       id="svg_27">image/svg+xml</metadata>
    <g
       id="svg_29">
      <path
         fill="#ee2b2e"
         fill-rule="nonzero"
         id="svg_26"
         d="m 143.75665,468.65991 c 33.94997,31.45706 75.14618,51.33688 120.86349,58.51984 45.71725,7.07728 90.94867,0.67604 132.90545,-19.01368 41.93564,-19.60519 75.82222,-50.1749 99.69491,-89.87122 C 521.00871,378.61973 532.1,334.38128 529.64938,288.09356 521.19887,126.37188 352.48433,23.8038 204.89613,90.85858 55.32205,158.75847 23.16786,357.09204 143.75665,468.65991" />
      <path
         fill="#ffffff"
         fill-rule="nonzero"
         id="svg_25"
         d="M 270.9369,450.70259 C 376.8641,470.79366 469.84083,378.1338 449.93986,272.16437 429.65863,163.91332 305.01359,111.87925 213.74804,173.58915 c -25.45716,17.17566 -44.55532,40.66809 -56.11141,69.08296 -11.55608,28.43596 -14.28139,58.51979 -8.07025,88.58247 6.10552,29.9782 20.57701,56.5762 42.5272,78.10389 21.84462,21.54878 48.65386,35.61893 78.84332,41.34413" />
      <path
         fill="#211e1e"
         fill-rule="nonzero"
         id="svg_24"
         d="m 210.3256,362.05673 c 9.61244,0 17.32352,7.77447 17.15451,17.36576 -0.19016,9.21109 -7.83786,16.45738 -17.04889,16.47853 -9.23218,0 -16.96441,-7.26744 -17.11228,-16.52077 -0.19021,-9.54905 7.54208,-17.32352 17.00665,-17.32352" />
      <path
         fill="#211e1e"
         fill-rule="nonzero"
         id="svg_23"
         d="m 430.92623,378.74645 -39.75965,-0.0422 c 0.0211,-0.27463 0.0211,-0.67604 0.0422,-0.95068 0.14786,-11.19692 -9.61249,-19.73196 -20.95727,-19.73196 -11.13358,0 -20.32352,8.70406 -20.87279,19.73196 0,0.33802 -0.0422,0.80281 -0.0422,1.11969 h -10.09838 l 0.21125,-2.45062 c -0.21125,-0.0634 -0.50703,-0.19016 -0.69713,-0.29578 -0.65495,-0.35917 -1.09859,-1.09859 -1.09859,-1.90141 l 0.0422,-2.09151 c 0,-0.54927 0.12677,-1.22531 0.57042,-1.66896 0.44365,-0.4225 1.11969,-0.52818 1.73234,-0.61266 l 1.81687,-0.0211 2.42953,-23.59805 c 0.10562,-1.07745 0.76057,-2.15489 1.54224,-2.87317 0.76052,-0.73943 1.94359,-1.45771 2.93656,-1.45771 l 2.93651,-0.0845 7.33083,-15.7391 c 0.80281,-1.75349 2.23943,-3.19005 3.88724,-4.20411 1.83802,-1.09859 4.64781,-2.00703 6.73932,-2.00703 l 23.89389,-0.0846 -0.14786,42.88637 45.92855,0.16901 c -2.49291,5.42942 -5.3027,10.83775 -8.36604,15.90806" />
      <path
         fill="#211e1e"
         fill-rule="nonzero"
         id="svg_22"
         d="m 440.81331,359.37366 -44.70319,-0.0211 0.31687,-59.09021 56.19594,-0.10562 c 0,0.27463 0,0.59156 0,0.8662 0,20.61925 -4.20416,40.33007 -11.80963,58.35078" />
      <path
         fill="#211e1e"
         fill-rule="nonzero"
         id="svg_21"
         d="m 146.41857,300.0933 h 107.32152 v 59.30151 h -26.91487 c 0.29578,0.29578 0.92953,1.20416 1.20416,1.54218 0.0634,0.0422 0.14786,0.14786 0.19016,0.21125 0.19016,0.21125 0.46479,0.50703 0.6338,0.67604 0.2324,0.31687 0.48588,0.6338 0.69719,0.97182 0.10562,0.16901 0.2324,0.44365 0.31687,0.59156 h 21.42206 l 0.16901,6.02098 -15.92926,5.93645 c 0.0422,0.2324 0.10562,0.61271 0.14786,0.8662 0.0845,0.42255 0.12677,0.84505 0.14786,1.2676 0,0.35917 0,0.73937 -0.0211,1.07739 -0.0211,0.25349 -0.0634,0.59156 -0.12677,0.82396 l -4.14072,-0.0422 c -0.0422,-0.2324 -0.0634,-0.52818 -0.0634,-0.76057 -0.8662,-11.30254 -9.5702,-20.72488 -20.87279,-20.85165 -11.21806,-0.0845 -20.11222,9.10546 -21.16852,20.30238 -0.0422,0.38026 -0.0211,1.18307 -0.0422,1.52109 h -21.04175 c -3.23234,-5.34494 -6.06328,-10.90119 -8.61952,-16.62639 l 30.80211,0.48588 c 0.0845,-0.10562 0.25349,-0.29578 0.35917,-0.42255 l 0.80281,-0.97182 c 0.27463,-0.33802 0.63375,-0.71828 0.92953,-1.03515 0.19016,-0.21125 1.58448,-1.39438 1.73234,-1.58448 h -36.18934 c -3.69713,-8.99978 -6.44354,-18.35873 -8.42942,-28.0557 -2.13375,-10.4364 -3.29567,-20.89389 -3.31682,-31.24581" />
      <path
         fill="#211e1e"
         fill-rule="nonzero"
         id="svg_20"
         d="m 370.29379,361.52855 c 9.46457,0 17.07004,7.56322 17.19681,16.92217 0.12677,9.52791 -7.52098,17.4503 -17.13342,17.49254 -9.61244,0.0211 -17.30243,-7.8801 -17.23905,-17.4292 0.10562,-9.38004 7.71109,-16.9855 17.17566,-16.9855" />
      <path
         fill="#ffffff"
         fill-rule="nonzero"
         id="svg_19"
         d="m 210.53685,371.81703 c 3.99286,0.0422 7.0139,3.54922 6.78156,7.56322 -0.14786,3.63375 -3.14786,6.50692 -6.78156,6.57025 -3.73937,0.0422 -6.86604,-2.7675 -7.11958,-6.48572 -0.29578,-4.16193 2.95771,-7.66885 7.11958,-7.64775" />
      <path
         fill="#ffffff"
         fill-rule="nonzero"
         id="svg_18"
         d="m 370.29379,371.5424 c 3.86614,0.0211 6.97166,3.14781 7.07734,6.95057 0.0845,3.92948 -3.02109,7.2252 -6.99281,7.30968 -4.05625,0.0845 -7.35197,-3.19005 -7.35197,-7.20406 0.0211,-3.92948 3.29573,-7.05619 7.26744,-7.05619" />
      <path
         fill="#ffffff"
         fill-rule="nonzero"
         id="svg_17"
         d="m 361.69541,326.41666 5.23932,0.0845 -7.03505,15.42217 -5.02807,-0.0211 6.8238,-15.48556" />
      <path
         fill="#ffffff"
         fill-rule="nonzero"
         id="svg_16"
         d="m 371.66702,326.52228 12.67577,0.10562 v 15.29546 l -19.94321,-0.0845 7.26744,-15.31655" />
    </g>
    <text
       xml:space="default"
       dominant-baseline="middle"
       text-anchor="middle"
       font-family="sans-serif"
       font-size="84px"
       id="svg_30"
       y="256"
       x="300"
       stroke-width="0"
       fill="#000000">param(text1)</text>
  </g>
</svg>
