<?xml version="1.0" encoding="UTF-8" standalone="no"?>
<svg
   xmlns:dc="http://purl.org/dc/elements/1.1/"
   xmlns:cc="http://creativecommons.org/ns#"
   xmlns:rdf="http://www.w3.org/1999/02/22-rdf-syntax-ns#"
   xmlns:svg="http://www.w3.org/2000/svg"
   xmlns="http://www.w3.org/2000/svg"
   xmlns:sodipodi="http://sodipodi.sourceforge.net/DTD/sodipodi-0.dtd"
   xmlns:inkscape="http://www.inkscape.org/namespaces/inkscape"
   width="86"
   height="86"
   version="1.1"
   id="svg1574"
   sodipodi:docname="253.svg"
   inkscape:version="1.0.2 (e86c870879, 2021-01-15, custom)">
  <metadata
     id="metadata1580">
    <rdf:RDF>
      <cc:Work
         rdf:about="">
        <dc:format>image/svg+xml</dc:format>
        <dc:type
           rdf:resource="http://purl.org/dc/dcmitype/StillImage" />
        <dc:title></dc:title>
      </cc:Work>
    </rdf:RDF>
  </metadata>
  <defs
     id="defs1578" />
  <sodipodi:namedview
     pagecolor="#ffffff"
     bordercolor="#666666"
     borderopacity="1"
     objecttolerance="10"
     gridtolerance="10"
     guidetolerance="10"
     inkscape:pageopacity="0"
     inkscape:pageshadow="2"
     inkscape:window-width="1920"
     inkscape:window-height="1017"
     id="namedview1576"
     showgrid="false"
     inkscape:zoom="2.8333333"
     inkscape:cx="160.83132"
     inkscape:cy="88.228507"
     inkscape:window-x="3832"
     inkscape:window-y="-8"
     inkscape:window-maximized="1"
     inkscape:current-layer="svg1574" />
  <!-- Created with Method Draw - http://github.com/duopixel/Method-Draw/ -->
  <g
     id="g1517">
    <title
       id="title1511">background</title>
    <rect
       fill="#ffffff"
       opacity="0"
       id="canvas_background"
       height="602"
       width="602"
       y="-1"
       x="-1" />
    <g
       display="none"
       overflow="visible"
       y="0"
       x="0"
       height="100%"
       width="100%"
       id="canvasGrid">
      <rect
         fill="url(#gridpattern)"
         stroke-width="0"
         y="0"
         x="0"
         height="100%"
         width="100%"
         id="rect1514" />
    </g>
  </g>
  <g
     id="g1572"
     transform="matrix(0.18924657,0,0,0.18924657,-13.538665,-13.891615)">
    <title
       id="title1519">Layer 1</title>
    <metadata
       transform="matrix(5.284713788460294,0,0,5.284713788460294,0,0) "
       id="svg_101">image/svg+xml</metadata>
    <g
       id="svg_103">
      <path
         fill="#ffffff"
         fill-rule="nonzero"
         stroke="#211e1e"
         stroke-width="0.2835"
         stroke-miterlimit="4"
         id="svg_100"
         d="m 299.99999,75.29643 c 124.10823,0 224.70355,100.61604 224.70355,224.7036 0,124.10817 -100.59532,224.70355 -224.70355,224.70355 -124.10817,0 -224.70355,-100.59537 -224.70355,-224.70355 0,-124.08756 100.59537,-224.7036 224.70355,-224.7036" />
      <path
         fill="#211e1e"
         fill-rule="nonzero"
         id="svg_99"
         d="m 196.72099,410.69 c -2.16753,-1.09409 -4.27317,-2.31206 -6.33753,-3.71584 -0.97022,-0.63993 -1.89917,-1.27985 -2.8075,-1.98177 l -44.85813,44.87879 c 1.19736,1.25924 2.43594,2.49787 3.67457,3.73645 1.23858,1.23863 2.47721,2.47721 3.73645,3.67451 L 196.721,410.68999" />
      <path
         fill="#211e1e"
         fill-rule="nonzero"
         id="svg_98"
         d="m 215.4033,416.38755 c -4.14935,-0.49544 -8.15415,-1.445 -12.01448,-2.82811 l -48.30556,48.28495 c 2.60103,2.35334 5.26405,4.64473 7.98901,6.85359 l 52.33103,-52.31042" />
      <path
         fill="#211e1e"
         fill-rule="nonzero"
         id="svg_97"
         d="m 243.35447,412.77498 c -5.92464,2.41527 -12.2209,3.77772 -18.8474,4.00481 l -56.12947,56.12947 c 2.82817,2.14691 5.69761,4.21123 8.60832,6.23427 l 66.36855,-66.36855" />
      <path
         fill="#211e1e"
         fill-rule="nonzero"
         id="svg_96"
         d="m 163.62959,370.74496 c -1.30052,-3.63324 -2.41527,-7.45224 -3.34422,-11.49837 l -48.82167,48.82167 c 1.77535,3.11719 3.6539,6.19305 5.61501,9.22764 l 46.55088,-46.55093" />
      <path
         fill="#211e1e"
         fill-rule="nonzero"
         id="svg_95"
         d="m 253.01561,266.5164 c 2.86944,1.94049 5.55307,4.19062 8.07155,6.75038 L 417.25457,117.12003 c -3.03459,-1.94049 -6.08979,-3.79839 -9.22759,-5.61501 L 253.0156,266.5164" />
      <path
         fill="#211e1e"
         fill-rule="nonzero"
         id="svg_94"
         d="m 171.51539,387.19781 c -0.37157,-0.59871 -0.74314,-1.19736 -1.09409,-1.81662 -1.48633,-2.49787 -2.82817,-5.11957 -4.06675,-7.84452 l -45.49811,45.47745 c 2.02309,2.91071 4.08741,5.78016 6.23432,8.60832 l 44.42463,-44.42463" />
      <path
         fill="#211e1e"
         fill-rule="nonzero"
         id="svg_93"
         d="m 324.83403,233.89978 -53.28064,53.26003 c -1.83728,-3.19974 -3.83966,-6.13111 -5.98658,-8.83541 l 71.94229,-71.94229 c -4.78927,6.66783 -8.75281,14.92519 -11.87,24.81337 -0.28902,0.88767 -0.53672,1.77535 -0.80507,2.70429" />
      <path
         fill="#211e1e"
         fill-rule="nonzero"
         id="svg_92"
         d="m 351.93885,191.95236 c 4.35577,-2.99326 9.04178,-5.20211 14.05813,-6.58523 3.36488,-0.94961 6.46141,-1.6102 9.28958,-1.91983 l 56.2739,-56.29462 c -2.8075,-2.16753 -5.67695,-4.23189 -8.58766,-6.23427 l -71.03395,71.03395" />
      <path
         fill="#211e1e"
         fill-rule="nonzero"
         id="svg_91"
         d="m 182.43578,400.63662 c -2.49787,-2.37395 -4.85121,-4.97503 -7.0394,-7.8032 l -44.09433,44.09433 c 2.20885,2.72496 4.50025,5.38792 6.85359,7.98901 l 44.28014,-44.28014" />
      <path
         fill="#211e1e"
         fill-rule="nonzero"
         id="svg_90"
         d="m 318.37262,264.69978 -39.42888,39.40827 c -1.13542,-3.69518 -2.51854,-7.28714 -4.10807,-10.71391 l 46.75735,-46.73669 c -0.68125,3.1378 -1.34184,6.44074 -1.91983,9.86751 -0.47478,2.76623 -0.90834,5.5118 -1.30057,8.17482" />
      <path
         fill="#211e1e"
         fill-rule="nonzero"
         id="svg_89"
         d="m 384.80316,183.4473 c 3.22035,0.39223 6.6265,1.11476 10.23913,2.20885 0.59865,0.18581 1.1973,0.37157 1.79596,0.57799 l 48.0372,-48.0372 c -2.60103,-2.35339 -5.28471,-4.64479 -7.96834,-6.85364 l -52.10395,52.104" />
      <path
         fill="#211e1e"
         fill-rule="nonzero"
         id="svg_88"
         d="m 316.2257,291.20589 -33.33909,33.31848 c -0.10321,-1.1973 -0.22708,-2.374 -0.37157,-3.55064 -0.39223,-3.19974 -0.90834,-6.31692 -1.58954,-9.33085 l 36.16726,-36.1466 c -0.33029,3.46809 -0.57804,6.83298 -0.72253,10.11526 -0.0826,1.75468 -0.12387,3.63324 -0.14448,5.59435" />
      <path
         fill="#211e1e"
         fill-rule="nonzero"
         id="svg_87"
         d="m 403.44414,189.12425 c 3.07586,1.65147 6.00724,3.67451 8.79408,6.04851 l 45.00267,-44.982 c -1.1973,-1.25924 -2.43594,-2.51848 -3.67451,-3.75711 -1.23863,-1.23858 -2.47721,-2.45655 -3.75711,-3.67451 l -46.36512,46.36512" />
      <path
         fill="#211e1e"
         fill-rule="nonzero"
         id="svg_86"
         d="m 283.32012,333.62814 32.98819,-33.00885 c 0.14448,4.39704 0.39223,9.0831 0.74314,14.09946 l -34.47446,34.47451 c 0.49544,-4.93376 0.74314,-9.76435 0.74314,-14.42975 0,-0.39223 0,-0.7638 0,-1.13537" />
      <path
         fill="#211e1e"
         fill-rule="nonzero"
         id="svg_85"
         d="m 417.1101,199.8175 c 1.58954,1.6928 3.11714,3.53003 4.60346,5.47052 0.68125,0.88767 1.36245,1.81662 2.00243,2.76623 l 44.94068,-44.94073 c -2.2088,-2.70429 -4.50025,-5.34665 -6.83292,-7.98901 l -44.71365,44.69298" />
      <path
         fill="#211e1e"
         fill-rule="nonzero"
         id="svg_84"
         d="m 281.02872,360.25813 36.74525,-36.7453 c 0.43351,4.72739 0.92895,9.1657 1.46572,13.35632 l -44.5485,44.56911 c 2.76623,-5.98658 4.87182,-13.04664 6.33753,-21.18013" />
      <path
         fill="#211e1e"
         fill-rule="nonzero"
         id="svg_83"
         d="m 427.32857,213.97889 c 1.73407,3.09653 3.30295,6.46141 4.76866,10.05338 l 47.00505,-47.0051 c -2.02309,-2.91071 -4.08741,-5.75949 -6.25499,-8.58766 l -45.51872,45.53938" />
      <path
         fill="#211e1e"
         fill-rule="nonzero"
         id="svg_82"
         d="m 322.93486,357.51256 c -0.929,-3.9842 -1.73407,-8.09222 -2.4566,-12.36544 L 182.68347,482.94191 c 3.03459,1.94049 6.11045,3.79839 9.22764,5.5944 L 322.93486,357.51256" />
      <path
         fill="#211e1e"
         fill-rule="nonzero"
         id="svg_81"
         d="m 434.63632,231.00973 c 1.21797,3.71579 2.29145,7.5555 3.24106,11.56031 L 488.495,191.95236 c -1.81662,-3.11714 -3.67451,-6.17239 -5.61501,-9.20692 l -48.24368,48.26429" />
      <path
         fill="#ffffff"
         fill-rule="nonzero"
         id="svg_80"
         d="m 220.08936,291.55685 c 5.32599,-0.0619 10.40428,2.08498 14.47103,5.49113 3.40616,2.76623 5.67695,7.34908 7.10133,11.49837 1.50699,4.4177 2.47721,10.19786 3.09653,14.82198 0.59865,4.21128 1.17664,9.496 1.27985,13.72789 0.0412,4.37638 0.0412,9.90884 -0.72247,14.18201 -2.39466,13.64529 -9.39279,29.1898 -25.43269,28.3434 -14.32654,-0.7638 -20.56087,-14.18201 -23.47158,-26.60933 -0.92895,-3.96354 -1.65147,-9.70242 -2.02304,-13.74855 -0.49544,-5.28471 -0.28902,-10.56943 0.51611,-15.81281 0.80507,-5.07829 2.18819,-10.07399 4.10802,-14.86326 1.73407,-4.31449 4.45898,-9.39279 8.13349,-12.2209 3.75711,-2.8075 8.27803,-4.76866 12.94343,-4.80994" />
      <path
         fill="#ffffff"
         fill-rule="nonzero"
         id="svg_79"
         d="m 379.99323,219.9242 c 2.51848,-0.0619 4.99569,0.47478 7.20454,1.67214 2.14691,1.13537 3.9016,3.15841 5.22278,5.14018 2.14691,3.36488 3.67457,8.11288 4.66545,11.99387 1.71336,6.58523 3.03454,13.33561 4.06675,20.06537 1.05282,6.95685 1.81662,13.99625 2.2914,21.03564 0.45417,7.22521 0.74319,14.45036 0.70186,21.67557 -0.0412,8.13349 -0.39223,16.32897 -1.1147,24.46246 -0.72253,8.19543 -1.87856,16.67988 -3.63324,24.66889 -1.23863,5.55307 -2.86944,11.16808 -5.01636,16.45279 -1.13542,2.70429 -2.55981,5.57373 -4.27322,7.96834 -1.17664,1.58954 -2.60103,3.15846 -4.27317,4.27317 -1.81662,1.17669 -3.92226,1.87856 -6.11045,2.00243 -2.55981,0.16515 -5.1815,-0.43351 -7.30776,-1.91983 -1.52765,-1.05282 -2.91071,-2.76623 -3.94292,-4.31449 -1.65147,-2.47721 -3.03459,-5.1815 -4.19062,-7.96834 -2.16753,-5.16084 -3.63324,-11.06487 -4.68601,-16.53539 -1.42444,-7.78253 -2.39466,-17.17532 -3.01398,-25.01979 -0.61926,-7.74126 -1.15603,-16.72115 -1.15603,-24.46246 0,-7.16327 0.43351,-14.40909 1.15603,-21.57236 0.72253,-7.0394 1.73407,-14.16139 2.97265,-21.18013 1.13542,-6.39947 2.51854,-13.08791 4.25256,-19.30157 1.09409,-4.08741 2.82817,-8.95928 5.1815,-12.40671 1.36245,-1.94049 3.11714,-3.88099 5.22278,-5.01636 1.75468,-0.90828 3.75711,-1.58954 5.78016,-1.71341" />
      <path
         fill="#211e1e"
         fill-rule="nonzero"
         id="svg_78"
         d="m 223.2065,296.30485 -22.89354,22.89354 c -0.39223,1.65147 -0.70186,3.30295 -0.97022,4.95442 -0.47478,3.11714 -0.72253,6.21366 -0.72253,9.26886 0,0.76385 0.0206,1.52765 0.0412,2.27079 l 34.16483,-34.14422 c -0.37157,-0.37157 -0.72253,-0.70186 -1.09409,-1.01149 l -0.0412,-0.0412 c -2.68363,-2.22952 -5.5118,-3.63324 -8.48445,-4.19062" />
      <path
         fill="#211e1e"
         fill-rule="nonzero"
         id="svg_77"
         d="m 236.43894,307.45227 -36.95172,36.93106 c 0.37157,2.99331 0.82574,5.5118 1.30052,7.59678 0.39223,1.65147 0.80513,3.2204 1.25929,4.68606 l 37.52971,-37.52971 c -0.63998,-3.79839 -1.36245,-6.83298 -2.14691,-9.12438 -0.33029,-0.90834 -0.66059,-1.77535 -0.99088,-2.55981" />
      <path
         fill="#211e1e"
         fill-rule="nonzero"
         id="svg_76"
         d="m 211.21268,371.85972 30.32517,-30.32517 c 0.0206,-0.61932 0.0206,-1.23858 0.0206,-1.85789 0,-0.72253 0,-1.54826 -0.0206,-2.51848 -0.0412,-2.64236 -0.30963,-5.88342 -0.7638,-9.70242 l -36.04339,36.04339 c 1.81662,3.6539 3.96354,6.42008 6.48202,8.36058" />
      <path
         fill="#211e1e"
         fill-rule="nonzero"
         id="svg_75"
         d="m 240.6089,351.95949 -22.87288,22.89354 c 0.78441,0.14448 1.54821,0.24769 2.37395,0.28902 0.35096,0.0206 0.68125,0.0206 1.01155,0.0206 5.36731,0 9.78496,-2.4566 13.23245,-7.30776 2.89005,-4.04614 4.97503,-9.35151 6.25493,-15.89547" />
      <path
         fill="#211e1e"
         fill-rule="nonzero"
         id="svg_74"
         d="m 368.49485,238.91614 14.26461,-14.24394 c -0.74319,-0.18581 -1.48633,-0.24769 -2.29145,-0.24769 -0.10321,0 -0.16515,0 -0.26836,0 -1.23858,0.0619 -2.51848,0.47478 -3.9016,1.1973 -1.1973,0.61932 -2.39461,1.81662 -3.61258,3.59197 -1.54826,2.25013 -2.93138,5.44986 -4.19062,9.70242" />
      <path
         fill="#211e1e"
         fill-rule="nonzero"
         id="svg_73"
         d="m 388.29187,228.65639 -22.85227,22.8316 c -0.49544,2.43594 -0.99088,4.99569 -1.445,7.65871 -0.61932,3.55064 -1.17669,6.97746 -1.65147,10.28041 l 30.22196,-30.22196 c -1.21797,-4.52091 -2.51854,-7.84452 -3.92226,-10.01205 -0.12387,-0.18581 -0.24769,-0.35096 -0.35096,-0.53672" />
      <path
         fill="#211e1e"
         fill-rule="nonzero"
         id="svg_72"
         d="m 394.42298,246.88448 -33.40103,33.40108 c -0.55738,5.53241 -0.90834,10.81712 -1.05282,15.85414 l 36.72464,-36.72464 c -0.63998,-4.31449 -1.40378,-8.46379 -2.27079,-12.53058" />
      <path
         fill="#211e1e"
         fill-rule="nonzero"
         id="svg_71"
         d="m 397.82914,267.81691 -37.86001,37.8394 c 0.0825,4.19062 0.30963,8.89729 0.6812,14.16139 l 38.37611,-38.37611 c -0.0206,-0.43351 -0.0413,-0.88767 -0.0825,-1.30057 -0.28902,-4.19062 -0.63998,-8.29864 -1.11476,-12.32411" />
      <path
         fill="#211e1e"
         fill-rule="nonzero"
         id="svg_70"
         d="m 203.65718,330.69676 c -1.30052,-3.63324 -2.41527,-7.45229 -3.34422,-11.49837 l -48.82167,48.82167 c 1.77535,3.11714 3.6539,6.193 5.61501,9.22759 l 46.55088,-46.55088" />
      <path
         fill="#211e1e"
         fill-rule="nonzero"
         id="svg_69"
         d="m 275.37244,258.98156 c -1.30057,-3.63324 -2.41533,-7.45229 -3.34427,-11.49843 l -48.82167,48.82172 c 1.77535,3.11714 3.6539,6.193 5.61501,9.22759 l 46.55093,-46.55088" />
      <path
         fill="#211e1e"
         fill-rule="nonzero"
         id="svg_68"
         d="m 204.64806,354.04447 c -0.37157,-0.59865 -0.74314,-1.19736 -1.09409,-1.81662 -1.48633,-2.49787 -2.82811,-5.11957 -4.06675,-7.84452 l -45.49806,45.47745 c 2.02304,2.91071 4.08736,5.78016 6.23427,8.60832 l 44.42463,-44.42463" />
      <path
         fill="#211e1e"
         fill-rule="nonzero"
         id="svg_67"
         d="m 284.00137,274.71183 c -0.37157,-0.59865 -0.74319,-1.1973 -1.09409,-1.81662 -1.48633,-2.49787 -2.82817,-5.11957 -4.06675,-7.84452 l -45.49811,45.47745 c 2.02304,2.91071 4.08741,5.78016 6.23432,8.60832 l 44.42463,-44.42463" />
      <path
         fill="#211e1e"
         fill-rule="nonzero"
         id="svg_66"
         d="m 211.77006,371.30234 c -2.49787,-2.374 -4.85121,-4.97503 -7.0394,-7.8032 l -44.09433,44.09433 c 2.20885,2.72496 4.50025,5.38792 6.85359,7.98901 l 44.28014,-44.28014" />
      <path
         fill="#211e1e"
         fill-rule="nonzero"
         id="svg_65"
         d="m 281.87506,301.19733 c -2.49782,-2.374 -4.85116,-4.97508 -7.0394,-7.8032 l -44.09433,44.09433 c 2.20885,2.7249 4.5003,5.38792 6.85364,7.98895 l 44.28009,-44.28009" />
      <path
         fill="#211e1e"
         fill-rule="nonzero"
         id="svg_64"
         d="m 241.57912,365.8112 c -2.16753,-1.09409 -4.27317,-2.31206 -6.33748,-3.71584 -0.97027,-0.63993 -1.89922,-1.27985 -2.8075,-1.98177 l -44.85818,44.87879 c 1.19736,1.25924 2.43594,2.49787 3.67457,3.73645 1.23858,1.23863 2.47721,2.47721 3.73645,3.67457 l 46.59215,-46.5922" />
      <path
         fill="#211e1e"
         fill-rule="nonzero"
         id="svg_63"
         d="m 282.88661,324.52438 c -2.16758,-1.09409 -4.27317,-2.31206 -6.33753,-3.71584 -0.97022,-0.63993 -1.89917,-1.27985 -2.8075,-1.98177 l -44.85813,44.87879 c 1.1973,1.25924 2.43594,2.49787 3.67451,3.73645 1.23863,1.23863 2.47721,2.47721 3.73645,3.67457 l 46.5922,-46.5922" />
      <path
         fill="#211e1e"
         fill-rule="nonzero"
         id="svg_62"
         d="m 316.22576,291.20589 c -2.16758,-1.09409 -4.27317,-2.31206 -6.33753,-3.71579 -0.97022,-0.63998 -1.89917,-1.2799 -2.8075,-1.98177 l -44.85813,44.87874 c 1.1973,1.25929 2.43594,2.49787 3.67451,3.7365 1.23863,1.23858 2.47721,2.47721 3.73645,3.67451 l 46.5922,-46.5922" />
      <path
         fill="#211e1e"
         fill-rule="nonzero"
         id="svg_61"
         d="m 375.28656,183.4473 -53.2807,53.25998 c -1.83723,-3.19968 -3.83966,-6.13106 -5.98658,-8.83535 l 71.94229,-71.94229 c -4.78927,6.66783 -8.75281,14.92519 -11.86994,24.81337 -0.28902,0.88767 -0.53672,1.77535 -0.80507,2.70429" />
      <path
         fill="#211e1e"
         fill-rule="nonzero"
         id="svg_60"
         d="m 263.70886,368.1026 c -4.14929,-0.49544 -8.1541,-1.445 -12.01443,-2.82811 l -48.30561,48.28495 c 2.60108,2.35334 5.2641,4.64473 7.98901,6.85359 l 52.33103,-52.31042" />
      <path
         fill="#211e1e"
         fill-rule="nonzero"
         id="svg_59"
         d="m 295.3346,336.45626 c -4.14935,-0.49544 -8.15415,-1.445 -12.01448,-2.82811 l -48.30556,48.28495 c 2.60103,2.35334 5.26405,4.64473 7.98901,6.85359 l 52.33103,-52.31042" />
      <path
         fill="#211e1e"
         fill-rule="nonzero"
         id="svg_58"
         d="m 299.87612,356.25332 c -5.92464,2.41527 -12.2209,3.77772 -18.8474,4.00481 l -56.12947,56.12942 c 2.82817,2.14691 5.69761,4.21128 8.60832,6.23432 l 66.36855,-66.36855" />
      <path
         fill="#211e1e"
         fill-rule="nonzero"
         id="svg_57"
         d="m 453.95856,226.48881 c -0.92895,-3.9842 -1.73402,-8.09222 -2.45655,-12.36538 L 313.70722,351.91817 c 3.03459,1.94049 6.11045,3.79839 9.22764,5.5944 l 131.0237,-131.02375" />
      <path
         fill="#211e1e"
         fill-rule="nonzero"
         id="svg_56"
         d="m 450.26343,205.8454 c -0.929,-3.9842 -1.73407,-8.09222 -2.4566,-12.36538 L 310.01204,331.27476 c 3.03459,1.94049 6.11045,3.79839 9.22764,5.5944 L 450.26343,205.84541" />
      <path
         fill="#211e1e"
         fill-rule="nonzero"
         id="svg_55"
         d="m 448.07519,183.695 c -0.92895,-3.98415 -1.73402,-8.09222 -2.45655,-12.36538 L 307.82385,309.12441 c 3.03459,1.94049 6.11045,3.79839 9.22759,5.59435 L 448.07519,183.69501" />
      <path
         fill="#211e1e"
         fill-rule="nonzero"
         id="svg_54"
         d="m 447.24945,160.18214 c -0.92895,-3.98415 -1.73402,-8.09222 -2.45655,-12.36538 L 306.99811,285.61155 c 3.03459,1.94049 6.11045,3.79839 9.22759,5.59435 L 447.24945,160.18215" />
      <path
         fill="#211e1e"
         fill-rule="nonzero"
         id="svg_53"
         d="m 396.83825,186.23415 c -0.92895,-3.9842 -1.73402,-8.09222 -2.45655,-12.36538 L 256.58691,311.66356 c 3.03459,1.94044 6.11045,3.79839 9.22759,5.59435 L 396.83825,186.23416" />
    </g>
    <text
       xml:space="default"
       dominant-baseline="middle"
       text-anchor="middle"
       font-family="sans-serif"
       font-size="230px"
       id="svg_104"
       y="386.5"
       x="300"
       stroke-width="0"
       stroke="#000000"
       fill="#000000">param(text1)</text>
  </g>
</svg>
