<?xml version="1.0" encoding="UTF-8" standalone="no"?>
<svg
   width="87pt"
   height="86pt"
   viewBox="0 0 87 86"
   version="1.1"
   id="svg5"
   xmlns="http://www.w3.org/2000/svg"
   xmlns:svg="http://www.w3.org/2000/svg">
  <defs
     id="defs5" />
  <path
     style="fill:#ffffff;fill-opacity:1;fill-rule:nonzero;stroke:#211e1e;stroke-width:0.2835;stroke-linecap:butt;stroke-linejoin:round;stroke-miterlimit:4;stroke-opacity:1"
     d="m 43.5,0.652344 c 23.476563,0 42.519531,19.042969 42.519531,42.519531 0,23.480469 -19.042968,42.519531 -42.519531,42.519531 -23.480469,0 -42.519531,-19.039062 -42.519531,-42.519531 C 0.980469,19.695313 20.019531,0.652344 43.5,0.652344"
     id="path1" />
  <path
     style="fill:#1966ba;fill-opacity:1;fill-rule:nonzero;stroke:none"
     d="M 11.632814,69.101565 C 9.1875,66.105469 7.207031,62.804688 5.679688,59.199219 3.527344,54.109375 2.449219,48.777344 2.449219,43.203125 c 0,-5.578125 1.078125,-10.910156 3.230469,-16 2.082031,-4.914063 5.019531,-9.269531 8.808593,-13.0625 3.792969,-3.792969 8.152344,-6.730469 13.0625,-8.8125 5.09375,-2.152344 10.421875,-3.226563 16,-3.226563 5.578125,0 10.910157,1.074219 16,3.226563 3.597657,1.527344 9.902344,5.957031 9.902344,5.957031"
     id="path4" />
  <path
     id="path5"
     style="fill:#1966ba;fill-opacity:1;fill-rule:nonzero;stroke:none"
     d="m 75.46875,17.300781 c 2.445312,2.996094 4.429688,6.296875 5.953125,9.902344 2.15625,5.089844 3.230469,10.421875 3.230469,16 0,5.574219 -1.074219,10.90625 -3.230469,15.996094 -2.078125,4.914062 -5.015625,9.269531 -8.808594,13.066406 -3.792969,3.789063 -8.148437,6.726563 -13.0625,8.808594 -5.089843,2.152343 -10.421875,3.226562 -16,3.226562 -5.578125,0 -10.90625,-1.074219 -16,-3.226562 -3.601562,-1.527344 -6.902343,-3.511719 -9.902343,-5.957031" />
  <text
     xml:space="preserve"
     style="font-weight:bold;font-size:48px;line-height:1.25;font-family:Arial;-inkscape-font-specification:'Arial, Bold';text-align:center;text-anchor:middle;stroke-width:0.750002"
     x="43.113281"
     y="61.565174"
     id="text1"><tspan
       id="tspan1"
       style="font-style:normal;font-variant:normal;font-weight:bold;font-stretch:normal;font-size:48px;font-family:Arial;-inkscape-font-specification:'Arial Bold';text-align:center;text-anchor:middle;fill:#ffffff;fill-opacity:1;stroke-width:0.750002"
       x="43.113281"
       y="61.565174">param(text1)</tspan></text>
  <path
     style="fill:#ee2b2e;fill-opacity:1;fill-rule:nonzero;stroke:none"
     d="M 17.101562,74.660156 75.007812,16.757812 C 73.484375,14.941406 71.8125,13.265625 70,11.738281 L 12.082031,69.65625 c 1.527344,1.808594 3.207031,3.484375 5.019531,5.003906"
     id="path2" />
</svg>
