<?xml version="1.0" encoding="UTF-8" standalone="no"?>
<svg
   xmlns:dc="http://purl.org/dc/elements/1.1/"
   xmlns:cc="http://creativecommons.org/ns#"
   xmlns:rdf="http://www.w3.org/1999/02/22-rdf-syntax-ns#"
   xmlns:svg="http://www.w3.org/2000/svg"
   xmlns="http://www.w3.org/2000/svg"
   xmlns:sodipodi="http://sodipodi.sourceforge.net/DTD/sodipodi-0.dtd"
   xmlns:inkscape="http://www.inkscape.org/namespaces/inkscape"
   width="73"
   height="100"
   version="1.1"
   id="svg172"
   sodipodi:docname="259-2-b.svg"
   inkscape:version="1.0.2 (e86c870879, 2021-01-15, custom)">
  <metadata
     id="metadata178">
    <rdf:RDF>
      <cc:Work
         rdf:about="">
        <dc:format>image/svg+xml</dc:format>
        <dc:type
           rdf:resource="http://purl.org/dc/dcmitype/StillImage" />
        <dc:title></dc:title>
      </cc:Work>
    </rdf:RDF>
  </metadata>
  <defs
     id="defs176" />
  <sodipodi:namedview
     pagecolor="#ffffff"
     bordercolor="#666666"
     borderopacity="1"
     objecttolerance="10"
     gridtolerance="10"
     guidetolerance="10"
     inkscape:pageopacity="0"
     inkscape:pageshadow="2"
     inkscape:window-width="1920"
     inkscape:window-height="1017"
     id="namedview174"
     showgrid="false"
     inkscape:zoom="3.5333333"
     inkscape:cx="87.457241"
     inkscape:cy="83.675039"
     inkscape:window-x="3832"
     inkscape:window-y="-8"
     inkscape:window-maximized="1"
     inkscape:current-layer="svg172" />
  <!-- Created with Method Draw - http://github.com/duopixel/Method-Draw/ -->
  <g
     id="g144">
    <title
       id="title138">background</title>
    <rect
       fill="#ffffff"
       opacity="0"
       id="canvas_background"
       height="602"
       width="440"
       y="-1"
       x="-1" />
    <g
       display="none"
       overflow="visible"
       y="0"
       x="0"
       height="100%"
       width="100%"
       id="canvasGrid">
      <rect
         fill="url(#gridpattern)"
         stroke-width="0"
         y="0"
         x="0"
         height="100%"
         width="100%"
         id="rect141" />
    </g>
  </g>
  <g
     id="g170"
     transform="matrix(0.24681386,0,0,0.24681386,-17.516147,-23.797902)">
    <title
       id="title146">Layer 1</title>
    <metadata
       transform="matrix(4,0,0,4,0,0) "
       id="svg_43">image/svg+xml</metadata>
    <g
       id="svg_45">
      <path
         fill="#ffffff"
         fill-rule="nonzero"
         id="svg_42"
         d="M 77.26561,498.42967 H 360.73437 V 101.57031 H 77.26561 Z m 0,0" />
      <path
         fill="none"
         stroke="#211e1e"
         stroke-width="0.2835"
         stroke-linejoin="round"
         stroke-miterlimit="4"
         id="svg_41"
         d="M 77.26561,498.42967 H 360.73437 V 101.57031 H 77.26561 v 396.85936" />
      <path
         fill="#211e1e"
         fill-rule="nonzero"
         id="svg_40"
         d="m 82.93749,118.58591 c 0,-3.1406 1.10936,-5.81248 3.31248,-8.03124 2.21876,-2.20312 4.90624,-3.31248 8.01564,-3.31248 h 249.45312 c 3.125,0 5.81248,1.10936 8.03124,3.31248 2.20312,2.21876 3.31252,4.89064 3.31252,8.03124 v 362.82812 c 0,3.125 -1.1094,5.81252 -3.31252,8.01564 -2.21876,2.20312 -4.90624,3.31252 -8.03124,3.31252 H 94.26561 c -3.1094,0 -5.79688,-1.1094 -8.01564,-3.31252 -2.20312,-2.20312 -3.31248,-4.89064 -3.31248,-8.01564 V 118.58591" />
      <path
         fill="#ffffff"
         fill-rule="nonzero"
         id="svg_39"
         d="m 88.59373,460.52343 23.78124,-34.2344 4.1094,4.03128 -27.89064,40.17188 v 4.95312 l 29.95312,-43.125 4.10936,4.03124 -33.28124,47.92188 c 0.23436,0.40624 0.53124,0.79688 0.89064,1.1406 0.35936,0.35936 0.73436,0.67188 1.1406,0.89064 l 33.29688,-47.95312 4.125,4.03124 -31.04688,44.70312 h 3.45312 l 29.64064,-42.68748 4.125,4.0156 -26.85936,38.67188 h 235.57812 c 1.57812,0 2.90624,-0.56248 4.01564,-1.67188 1.10936,-1.10936 1.65624,-2.43748 1.65624,-4 v -341.7656 l -21.56252,31.06248 -3.85936,-4.40624 25.42188,-36.60936 v -4.96876 l -27.34376,39.39064 -3.85936,-4.40628 30.5,-43.90624 c -0.25,-0.43748 -0.57812,-0.85936 -0.95312,-1.23436 -0.34376,-0.32812 -0.68752,-0.6094 -1.06252,-0.84376 l -30.40624,43.79688 -3.8594,-4.40624 27.93752,-40.21876 h -3.45312 l -26.40624,38.03124 -3.84376,-4.39064 23.34376,-33.6406 H 94.26561 c -1.56252,0 -2.89064,0.56248 -4,1.67188 -1.1094,1.10936 -1.67188,2.43748 -1.67188,4.0156 v 341.93752" />
      <path
         fill="#211e1e"
         fill-rule="nonzero"
         id="svg_38"
         d="m 190.46873,167.78903 c 1.35936,1.68752 2.95312,2.95316 4.82812,3.79688 1.82812,0.89064 3.81252,1.29688 5.90624,1.29688 2.21876,0 4.26564,-0.40624 6.15628,-1.23436 1.875,-0.8594 3.45312,-2.1094 4.82812,-3.81252 1.35936,-1.65624 2.43748,-3.81248 3.23436,-6.375 0.75,-2.54688 1.14064,-5.60936 1.14064,-9.07812 0,-3.35936 -0.39064,-6.26564 -1.14064,-8.76564 -0.79688,-2.49996 -1.875,-4.60936 -3.23436,-6.31248 -1.375,-1.64064 -2.95312,-2.95312 -4.76564,-3.81248 -1.89064,-0.84376 -3.875,-1.25 -5.98436,-1.25 -2.21876,0 -4.20312,0.40624 -6.09376,1.25 -1.85936,0.85936 -3.51564,2.10936 -4.875,3.7656 -1.375,1.70312 -2.45312,3.8594 -3.18752,6.42188 -0.78124,2.54688 -1.18748,5.625 -1.18748,9.07812 0,3.3594 0.40624,6.26564 1.18748,8.76564 0.7344,2.5 1.81252,4.60936 3.18752,6.2656" />
      <path
         fill="#211e1e"
         fill-rule="nonzero"
         id="svg_37"
         d="m 222.99997,172.42967 h 5.68752 v -31.71876 h 0.10936 l 14.04688,31.71876 h 7.43748 v -39.67188 h -5.68748 v 31.95312 h -0.10936 l -14.04688,-31.95312 h -7.43752 v 39.67188" />
      <path
         fill="#211e1e"
         fill-rule="nonzero"
         id="svg_36"
         d="m 258.56249,172.42967 h 20.29688 v -5.04688 h -14.15628 v -12.90624 h 12.8594 v -5.06252 h -12.8594 v -11.59372 h 13.53128 v -5.06252 h -19.67188 v 39.67188" />
      <path
         fill="#211e1e"
         fill-rule="nonzero"
         id="svg_35"
         d="m 159.12497,172.42967 h 23.43752 v -5.04688 h -16.54688 l 16.2656,-29.45312 v -5.17188 h -22.6406 v 5.06252 h 15.40624 l -15.92188,29.06248 v 5.54688" />
      <path
         fill="#ffffff"
         fill-rule="nonzero"
         id="svg_34"
         d="m 194.73437,163.96091 c -1.54688,-2.71872 -2.28128,-6.46872 -2.28128,-11.20312 0,-2.8906 0.23436,-5.32812 0.7344,-7.32812 0.45312,-1.98436 1.07812,-3.64064 1.93748,-4.875 0.79688,-1.20312 1.76564,-2.125 2.84376,-2.67188 1.07812,-0.53124 2.28124,-0.79688 3.46876,-0.79688 2.84372,0 5,1.34376 6.54688,4.09376 1.46872,2.71876 2.20312,6.46876 2.20312,11.20312 0,2.89064 -0.21876,5.32812 -0.67188,7.32812 -0.51564,1.9844 -1.14064,3.64064 -1.93752,4.82812 -0.85936,1.25 -1.81248,2.15628 -2.8906,2.67188 -1.09376,0.57812 -2.28128,0.84376 -3.4844,0.84376 -2.82812,0 -4.98436,-1.35936 -6.46872,-4.09376" />
      <path
         fill="#8f8f8f"
         fill-rule="nonzero"
         id="svg_33"
         d="m 299.18749,219.82031 c 44.28124,44.28124 44.28124,116.07812 0,160.35936 -44.28128,44.26564 -116.07812,44.26564 -160.34376,0 -44.28124,-44.28124 -44.28124,-116.07812 0,-160.35936 44.26564,-44.28128 116.06248,-44.28128 160.34376,0" />
      <path
         fill="#ffffff"
         fill-rule="nonzero"
         id="svg_32"
         d="m 174.18749,239.10155 105.71872,105.73436 c 3.7344,-5.06248 6.79688,-10.5 9.17188,-16.3906 3.68752,-9.09376 5.53128,-18.57812 5.53128,-28.46876 0,-9.875 -1.82816,-19.35936 -5.53128,-28.46876 -3.81248,-9.375 -9.32812,-17.71876 -16.60936,-24.96876 -7.25,-7.2656 -15.57812,-12.79684 -24.96876,-16.60936 -9.10936,-3.70312 -18.59376,-5.53124 -28.48436,-5.53124 -9.875,0 -19.3594,1.84376 -28.45312,5.5156 -5.875,2.39064 -11.34376,5.45316 -16.375,9.18752" />
      <path
         fill="#ffffff"
         fill-rule="nonzero"
         id="svg_31"
         d="M 263.87497,360.88279 158.15621,255.14843 c -3.75,5.04688 -6.79684,10.5 -9.18748,16.375 -3.67188,9.09376 -5.53124,18.59376 -5.53124,28.45312 0,9.89064 1.84372,19.39064 5.54688,28.48436 3.79684,9.39064 9.32812,17.71876 16.59372,24.96876 7.26564,7.28124 15.59376,12.79688 24.9844,16.625 9.10936,3.68752 18.57812,5.53124 28.46872,5.53124 9.89064,0 19.375,-1.85936 28.46876,-5.53124 5.875,-2.39064 11.32812,-5.45312 16.375,-9.17188" />
      <path
         fill="#636161"
         fill-rule="nonzero"
         id="svg_30"
         d="m 177.68749,239.41403 c 4.28124,-2.95312 8.85936,-5.40624 13.71872,-7.375 8.82816,-3.57812 18.03128,-5.35936 27.625,-5.375 9.57816,0 18.78128,1.79688 27.6094,5.375 9.125,3.70316 17.18748,9.06252 24.23436,16.1094 7.03124,7.03124 12.40624,15.10936 16.1094,24.23436 3.57812,8.81252 5.35936,18.01564 5.35936,27.6094 0,9.57812 -1.78124,18.78124 -5.35936,27.60936 -1.96876,4.85936 -4.42188,9.45312 -7.375,13.75 L 177.68749,239.41403" />
      <path
         fill="#636161"
         fill-rule="nonzero"
         id="svg_29"
         d="m 260.37497,360.57031 c -4.29688,2.95312 -8.875,5.40624 -13.75,7.375 -8.82812,3.57812 -18.03124,5.375 -27.60936,5.375 -9.59376,0 -18.79688,-1.79688 -27.6094,-5.375 -9.10936,-3.70312 -17.18748,-9.07812 -24.23436,-16.1094 -7.03124,-7.04688 -12.40624,-15.125 -16.10936,-24.23436 -3.57812,-8.82812 -5.375,-18.03124 -5.375,-27.60936 0.0156,-9.59376 1.79688,-18.79688 5.375,-27.6094 1.96872,-4.875 4.43748,-9.45312 7.375,-13.75 l 101.93748,101.93752" />
      <path
         fill="#ffffff"
         fill-rule="nonzero"
         id="svg_28"
         d="m 246.45309,464.41403 h 3.5 v -3.92184 h -3.5 v 3.92184" />
      <path
         fill="#211e1e"
         fill-rule="nonzero"
         id="svg_27"
         d="m 130.87497,444.39843 193.09376,-278.09376 3.85936,4.40624 -192.82812,277.70312 -4.125,-4.0156" />
      <path
         fill="#211e1e"
         fill-rule="nonzero"
         id="svg_26"
         d="m 124.70309,438.35155 193.4844,-278.64064 3.85936,4.40628 -193.21876,278.2656 -4.125,-4.03124" />
      <path
         fill="#211e1e"
         fill-rule="nonzero"
         id="svg_25"
         d="m 118.54685,432.32031 193.85936,-279.20312 3.8594,4.40624 -193.6094,278.82812 -4.10936,-4.03124" />
      <path
         fill="#211e1e"
         fill-rule="nonzero"
         id="svg_24"
         d="m 112.37497,426.28903 194.26564,-279.75 3.84376,4.39064 -194,279.39064 -4.1094,-4.03128" />
    </g>
    <text
       xml:space="default"
       dominant-baseline="middle"
       text-anchor="middle"
       font-family="sans-serif"
       font-size="28px"
       id="svg_46"
       y="469"
       x="220"
       stroke-width="0"
       stroke="#000000"
       fill="#000000">param(text1)</text>
  </g>
</svg>
