<?xml version="1.0" encoding="UTF-8" standalone="no"?>
<svg
   xmlns:dc="http://purl.org/dc/elements/1.1/"
   xmlns:cc="http://creativecommons.org/ns#"
   xmlns:rdf="http://www.w3.org/1999/02/22-rdf-syntax-ns#"
   xmlns:svg="http://www.w3.org/2000/svg"
   xmlns="http://www.w3.org/2000/svg"
   xmlns:sodipodi="http://sodipodi.sourceforge.net/DTD/sodipodi-0.dtd"
   xmlns:inkscape="http://www.inkscape.org/namespaces/inkscape"
   width="73"
   height="100"
   version="1.1"
   id="svg1735"
   sodipodi:docname="259-1-b.svg"
   inkscape:version="1.0.2 (e86c870879, 2021-01-15, custom)">
  <metadata
     id="metadata1741">
    <rdf:RDF>
      <cc:Work
         rdf:about="">
        <dc:format>image/svg+xml</dc:format>
        <dc:type
           rdf:resource="http://purl.org/dc/dcmitype/StillImage" />
        <dc:title></dc:title>
      </cc:Work>
    </rdf:RDF>
  </metadata>
  <defs
     id="defs1739" />
  <sodipodi:namedview
     pagecolor="#ffffff"
     bordercolor="#666666"
     borderopacity="1"
     objecttolerance="10"
     gridtolerance="10"
     guidetolerance="10"
     inkscape:pageopacity="0"
     inkscape:pageshadow="2"
     inkscape:window-width="1920"
     inkscape:window-height="1017"
     id="namedview1737"
     showgrid="false"
     inkscape:zoom="4.0069384"
     inkscape:cx="50.219076"
     inkscape:cy="68.290183"
     inkscape:window-x="3832"
     inkscape:window-y="-8"
     inkscape:window-maximized="1"
     inkscape:current-layer="svg1735" />
  <!-- Created with Method Draw - http://github.com/duopixel/Method-Draw/ -->
  <g
     id="g1712">
    <title
       id="title1706">background</title>
    <rect
       fill="#ffffff"
       opacity="0"
       id="canvas_background"
       height="602"
       width="440"
       y="-1"
       x="-1" />
    <g
       display="none"
       overflow="visible"
       y="0"
       x="0"
       height="100%"
       width="100%"
       id="canvasGrid">
      <rect
         fill="url(#gridpattern)"
         stroke-width="0"
         y="0"
         x="0"
         height="100%"
         width="100%"
         id="rect1709" />
    </g>
  </g>
  <g
     id="g1733"
     transform="matrix(0.24838985,0,0,0.24838985,-17.402188,-24.091238)">
    <title
       id="title1714">Layer 1</title>
    <metadata
       transform="matrix(4,0,0,4,0,0) "
       id="svg_33">image/svg+xml</metadata>
    <g
       id="svg_35">
      <path
         fill="#ffffff"
         fill-rule="nonzero"
         id="svg_32"
         d="M 77.26561,498.42967 H 360.73437 V 101.57031 H 77.26561 Z m 0,0" />
      <path
         fill="none"
         stroke="#211e1e"
         stroke-width="0.2835"
         stroke-miterlimit="4"
         id="svg_31"
         d="M 77.26561,498.42967 H 360.73437 V 101.57031 H 77.26561 v 396.85936" />
      <path
         fill="#211e1e"
         fill-rule="nonzero"
         id="svg_30"
         d="M 82.93749,481.41403 V 118.58591 c 0,-3.1406 1.10936,-5.81248 3.31248,-8.0156 2.21876,-2.21876 4.89064,-3.32812 8.01564,-3.32812 h 249.45312 c 3.125,0 5.81248,1.10936 8.01564,3.32812 2.21872,2.20312 3.32812,4.875 3.32812,8.0156 v 362.82812 c 0,3.125 -1.1094,5.79688 -3.32812,8.01564 -2.20316,2.21876 -4.89064,3.32812 -8.01564,3.32812 H 94.26561 c -3.125,0 -5.79688,-1.10936 -8.01564,-3.32812 -2.20312,-2.21876 -3.31248,-4.89064 -3.31248,-8.01564" />
      <path
         fill="#ffffff"
         fill-rule="nonzero"
         id="svg_29"
         d="M 88.60937,481.41403 V 118.58591 c 0,-1.57812 0.54684,-2.90624 1.65624,-4.0156 1.10936,-1.1094 2.43748,-1.65628 4,-1.65628 h 249.45312 c 1.56248,0 2.90624,0.54688 4.01564,1.65628 1.09372,1.10936 1.65624,2.43748 1.65624,4.0156 v 362.82812 c 0,1.56252 -0.56252,2.89064 -1.65624,4.01564 -1.1094,1.09376 -2.45316,1.65624 -4.01564,1.65624 H 94.26561 c -1.56252,0 -2.89064,-0.56248 -4,-1.65624 -1.1094,-1.125 -1.65624,-2.45312 -1.65624,-4.01564" />
      <path
         fill="#211e1e"
         fill-rule="nonzero"
         id="svg_28"
         d="m 159.12497,172.42967 h 23.43752 v -5.04688 h -16.54688 l 16.25,-29.45312 v -5.17188 h -22.64064 v 5.06252 h 15.42188 l -15.92188,29.06248 v 5.54688" />
      <path
         fill="#211e1e"
         fill-rule="nonzero"
         id="svg_27"
         d="m 190.46873,167.78903 c 1.35936,1.68752 2.95312,2.93752 4.82812,3.79688 1.81252,0.89064 3.81252,1.29688 5.90624,1.29688 2.21876,0 4.26564,-0.40624 6.15628,-1.23436 1.875,-0.8594 3.45312,-2.1094 4.81248,-3.81252 1.375,-1.65624 2.45312,-3.81248 3.25,-6.375 0.75,-2.54688 1.14064,-5.60936 1.14064,-9.07812 0,-3.35936 -0.39064,-6.26564 -1.14064,-8.76564 -0.79688,-2.5 -1.875,-4.60936 -3.25,-6.32812 -1.35936,-1.625 -2.93748,-2.93748 -4.76564,-3.79688 -1.875,-0.84372 -3.85936,-1.25 -5.96872,-1.25 -2.21876,0 -4.20312,0.40628 -6.09376,1.25 -1.875,0.8594 -3.51564,2.1094 -4.875,3.76564 -1.375,1.68752 -2.45312,3.85936 -3.18752,6.42188 -0.79684,2.54688 -1.20312,5.625 -1.20312,9.07812 0,3.35936 0.40624,6.26564 1.20312,8.76564 0.7344,2.5 1.81252,4.60936 3.18752,6.2656" />
      <path
         fill="#211e1e"
         fill-rule="nonzero"
         id="svg_26"
         d="m 222.99997,172.42967 h 5.68752 v -31.71876 h 0.10936 l 14.03124,31.71876 h 7.45312 v -39.67188 h -5.68748 v 31.95312 h -0.10936 l -14.04688,-31.95312 h -7.43752 v 39.67188" />
      <path
         fill="#211e1e"
         fill-rule="nonzero"
         id="svg_25"
         d="m 258.56249,172.42967 h 20.28124 v -5.04688 h -14.14064 v -12.90624 h 12.84376 v -5.06252 h -12.84376 v -11.59372 h 13.53128 v -5.06252 h -19.67188 v 39.67188" />
      <path
         fill="#ffffff"
         fill-rule="nonzero"
         id="svg_24"
         d="m 194.73437,163.96091 c -1.54688,-2.71872 -2.28128,-6.46872 -2.28128,-11.20312 0,-2.8906 0.23436,-5.32812 0.7344,-7.32812 0.45312,-1.98436 1.07812,-3.64064 1.93748,-4.875 0.79688,-1.20312 1.76564,-2.125 2.84376,-2.68748 1.07812,-0.51564 2.26564,-0.78128 3.46876,-0.78128 2.84372,0 5,1.34376 6.53124,4.09376 1.48436,2.71876 2.21876,6.46876 2.21876,11.20312 0,2.89064 -0.21876,5.32812 -0.67188,7.32812 -0.51564,1.9844 -1.14064,3.64064 -1.95312,4.82812 -0.84376,1.25 -1.81252,2.15628 -2.89064,2.67188 -1.07812,0.57812 -2.26564,0.84376 -3.46876,0.84376 -2.82812,0 -5,-1.35936 -6.46872,-4.09376" />
      <path
         fill="#ee2b2e"
         fill-rule="nonzero"
         id="svg_23"
         d="m 299.18749,219.82031 c 44.28124,44.28124 44.28124,116.07812 0,160.35936 -44.28128,44.26564 -116.07812,44.26564 -160.3594,0 -44.28124,-44.28124 -44.28124,-116.07812 0,-160.35936 44.28128,-44.28128 116.07812,-44.28128 160.3594,0" />
      <path
         fill="#ffffff"
         fill-rule="nonzero"
         id="svg_22"
         d="m 174.17185,239.10155 105.73436,105.73436 c 3.7344,-5.06248 6.79688,-10.5 9.17188,-16.3906 3.68752,-9.09376 5.53128,-18.57812 5.53128,-28.46876 0,-9.875 -1.82816,-19.35936 -5.53128,-28.46876 -3.81248,-9.375 -9.34372,-17.71876 -16.60936,-24.96876 -7.25,-7.2656 -15.59376,-12.79684 -24.96876,-16.60936 -9.10936,-3.70312 -18.59376,-5.54688 -28.48436,-5.54688 -9.875,0.0156 -19.3594,1.8594 -28.46876,5.53124 -5.85936,2.39064 -11.32812,5.45316 -16.375,9.18752" />
      <path
         fill="#ffffff"
         fill-rule="nonzero"
         id="svg_21"
         d="M 263.87497,360.88279 158.15621,255.14843 c -3.75,5.04688 -6.79684,10.5 -9.18748,16.375 -3.67188,9.09376 -5.53124,18.59376 -5.53124,28.45312 0,9.89064 1.84372,19.39064 5.54688,28.48436 3.79684,9.39064 9.32812,17.71876 16.59372,24.96876 7.26564,7.26564 15.59376,12.79688 24.9844,16.625 9.10936,3.68752 18.57812,5.53124 28.46872,5.53124 9.89064,0 19.375,-1.85936 28.46876,-5.53124 5.875,-2.39064 11.32812,-5.45312 16.375,-9.17188" />
      <path
         fill="#1966ba"
         fill-rule="nonzero"
         id="svg_20"
         d="m 177.67185,239.41403 c 4.29688,-2.95312 8.875,-5.40624 13.73436,-7.375 8.82816,-3.57812 18.03128,-5.375 27.625,-5.375 9.56252,0 18.76564,1.79688 27.6094,5.375 9.10936,3.70316 17.18748,9.06252 24.23436,16.1094 7.03124,7.03124 12.40624,15.10936 16.1094,24.23436 3.57812,8.81252 5.35936,18.01564 5.35936,27.6094 0,9.57812 -1.78124,18.78124 -5.35936,27.60936 -1.96876,4.85936 -4.43752,9.43748 -7.375,13.75 L 177.67185,239.41403" />
      <path
         fill="#1966ba"
         fill-rule="nonzero"
         id="svg_19"
         d="m 260.35937,360.57031 c -4.29688,2.95312 -8.8594,5.40624 -13.7344,7.375 -8.82812,3.57812 -18.03124,5.375 -27.60936,5.375 -9.59376,0 -18.79688,-1.79688 -27.6094,-5.375 -9.10936,-3.70312 -17.18748,-9.07812 -24.23436,-16.1094 -7.04688,-7.04688 -12.40624,-15.125 -16.10936,-24.23436 -3.57812,-8.82812 -5.375,-18.03124 -5.375,-27.60936 0.0156,-9.59376 1.79688,-18.79688 5.375,-27.625 1.96872,-4.8594 4.42188,-9.43752 7.375,-13.7344 l 101.92188,101.93752" />
    </g>
    <text
       xml:space="default"
       dominant-baseline="middle"
       text-anchor="middle"
       font-family="sans-serif"
       font-size="28px"
       id="svg_36"
       y="469"
       x="220"
       stroke-width="0"
       stroke="#000000"
       fill="#000000">param(text1)</text>
  </g>
</svg>
