<?xml version="1.0" encoding="UTF-8"?>
<svg xmlns="http://www.w3.org/2000/svg" xmlns:xlink="http://www.w3.org/1999/xlink" width="73pt" height="100pt" viewBox="0 0 73 100" version="1.1">
<g id="surface1">
<path style=" stroke:none;fill-rule:nonzero;fill:rgb(100%,100%,100%);fill-opacity:1;" d="M 1.085938 99.78125 L 71.953125 99.78125 L 71.953125 0.566406 L 1.085938 0.566406 Z M 1.085938 99.78125 "/>
<path style="fill:none;stroke-width:2.835;stroke-linecap:butt;stroke-linejoin:miter;stroke:rgb(13.729858%,12.159729%,12.548828%);stroke-opacity:1;stroke-miterlimit:4;" d="M 10.859375 2.1875 L 719.53125 2.1875 L 719.53125 994.335938 L 10.859375 994.335938 L 10.859375 2.1875 " transform="matrix(0.1,0,0,-0.1,0,100)"/>
<path style=" stroke:none;fill-rule:nonzero;fill:rgb(13.729858%,12.159729%,12.548828%);fill-opacity:1;" d="M 2.503906 95.527344 L 2.503906 4.820312 C 2.503906 4.035156 2.78125 3.367188 3.332031 2.816406 C 3.886719 2.261719 4.554688 1.984375 5.335938 1.984375 L 67.699219 1.984375 C 68.480469 1.984375 69.152344 2.261719 69.703125 2.816406 C 70.257812 3.367188 70.535156 4.035156 70.535156 4.820312 L 70.535156 95.527344 C 70.535156 96.308594 70.257812 96.976562 69.703125 97.53125 C 69.152344 98.085938 68.480469 98.363281 67.699219 98.363281 L 5.335938 98.363281 C 4.554688 98.363281 3.886719 98.085938 3.332031 97.53125 C 2.78125 96.976562 2.503906 96.308594 2.503906 95.527344 "/>
<path style=" stroke:none;fill-rule:nonzero;fill:rgb(100%,100%,100%);fill-opacity:1;" d="M 3.921875 95.527344 L 3.921875 4.820312 C 3.921875 4.425781 4.058594 4.09375 4.335938 3.816406 C 4.613281 3.539062 4.945312 3.402344 5.335938 3.402344 L 67.699219 3.402344 C 68.089844 3.402344 68.425781 3.539062 68.703125 3.816406 C 68.976562 4.09375 69.117188 4.425781 69.117188 4.820312 L 69.117188 95.527344 C 69.117188 95.917969 68.976562 96.25 68.703125 96.53125 C 68.425781 96.804688 68.089844 96.945312 67.699219 96.945312 L 5.335938 96.945312 C 4.945312 96.945312 4.613281 96.804688 4.335938 96.53125 C 4.058594 96.25 3.921875 95.917969 3.921875 95.527344 "/>
<path style=" stroke:none;fill-rule:nonzero;fill:rgb(13.729858%,12.159729%,12.548828%);fill-opacity:1;" d="M 21.550781 18.28125 L 27.410156 18.28125 L 27.410156 17.019531 L 23.273438 17.019531 L 27.335938 9.65625 L 27.335938 8.363281 L 21.675781 8.363281 L 21.675781 9.628906 L 25.53125 9.628906 L 21.550781 16.894531 L 21.550781 18.28125 "/>
<path style=" stroke:none;fill-rule:nonzero;fill:rgb(13.729858%,12.159729%,12.548828%);fill-opacity:1;" d="M 29.386719 17.121094 C 29.726562 17.542969 30.125 17.855469 30.59375 18.070312 C 31.046875 18.292969 31.546875 18.394531 32.070312 18.394531 C 32.625 18.394531 33.136719 18.292969 33.609375 18.085938 C 34.078125 17.871094 34.472656 17.558594 34.8125 17.132812 C 35.15625 16.71875 35.425781 16.179688 35.625 15.539062 C 35.8125 14.902344 35.910156 14.136719 35.910156 13.269531 C 35.910156 12.429688 35.8125 11.703125 35.625 11.078125 C 35.425781 10.453125 35.15625 9.925781 34.8125 9.496094 C 34.472656 9.089844 34.078125 8.761719 33.621094 8.546875 C 33.152344 8.335938 32.65625 8.234375 32.128906 8.234375 C 31.574219 8.234375 31.078125 8.335938 30.605469 8.546875 C 30.136719 8.761719 29.726562 9.074219 29.386719 9.488281 C 29.042969 9.910156 28.773438 10.453125 28.589844 11.09375 C 28.390625 11.730469 28.289062 12.5 28.289062 13.363281 C 28.289062 14.203125 28.390625 14.929688 28.589844 15.554688 C 28.773438 16.179688 29.042969 16.707031 29.386719 17.121094 "/>
<path style=" stroke:none;fill-rule:nonzero;fill:rgb(13.729858%,12.159729%,12.548828%);fill-opacity:1;" d="M 37.519531 18.28125 L 38.941406 18.28125 L 38.941406 10.351562 L 38.96875 10.351562 L 42.476562 18.28125 L 44.339844 18.28125 L 44.339844 8.363281 L 42.917969 8.363281 L 42.917969 16.351562 L 42.890625 16.351562 L 39.378906 8.363281 L 37.519531 8.363281 L 37.519531 18.28125 "/>
<path style=" stroke:none;fill-rule:nonzero;fill:rgb(13.729858%,12.159729%,12.548828%);fill-opacity:1;" d="M 46.410156 18.28125 L 51.480469 18.28125 L 51.480469 17.019531 L 47.945312 17.019531 L 47.945312 13.792969 L 51.15625 13.792969 L 51.15625 12.527344 L 47.945312 12.527344 L 47.945312 9.628906 L 51.328125 9.628906 L 51.328125 8.363281 L 46.410156 8.363281 L 46.410156 18.28125 "/>
<path style=" stroke:none;fill-rule:nonzero;fill:rgb(100%,100%,100%);fill-opacity:1;" d="M 30.453125 16.164062 C 30.066406 15.484375 29.882812 14.546875 29.882812 13.363281 C 29.882812 12.640625 29.941406 12.03125 30.066406 11.53125 C 30.179688 11.035156 30.335938 10.621094 30.550781 10.3125 C 30.75 10.011719 30.992188 9.78125 31.261719 9.640625 C 31.53125 9.511719 31.828125 9.445312 32.128906 9.445312 C 32.839844 9.445312 33.378906 9.78125 33.761719 10.46875 C 34.132812 11.148438 34.316406 12.085938 34.316406 13.269531 C 34.316406 13.992188 34.261719 14.601562 34.148438 15.101562 C 34.019531 15.597656 33.863281 16.011719 33.660156 16.308594 C 33.449219 16.621094 33.207031 16.847656 32.9375 16.976562 C 32.667969 17.121094 32.371094 17.1875 32.070312 17.1875 C 31.363281 17.1875 30.820312 16.847656 30.453125 16.164062 "/>
<path style=" stroke:none;fill-rule:nonzero;fill:rgb(93.527222%,17.272949%,18.882751%);fill-opacity:1;" d="M 36.519531 21.824219 C 20.867188 21.824219 8.175781 34.519531 8.175781 50.171875 C 8.175781 65.824219 20.867188 78.519531 36.519531 78.519531 C 52.171875 78.519531 64.867188 65.824219 64.867188 50.171875 C 64.867188 34.519531 52.171875 21.824219 36.519531 21.824219 "/>
<path style=" stroke:none;fill-rule:nonzero;fill:rgb(100%,100%,100%);fill-opacity:1;" d="M 36.523438 31.273438 C 26.085938 31.273438 17.625 39.734375 17.625 50.167969 C 17.625 60.605469 26.085938 69.066406 36.523438 69.066406 C 46.957031 69.066406 55.417969 60.605469 55.417969 50.167969 C 55.417969 39.734375 46.957031 31.273438 36.523438 31.273438 "/>
<path style=" stroke:none;fill-rule:nonzero;fill:rgb(13.729858%,12.159729%,12.548828%);fill-opacity:1;" d="M 28.480469 44.140625 L 26.503906 42.25 C 26.550781 42.152344 26.621094 42.003906 26.675781 41.90625 C 27.058594 41.214844 27.75 40.722656 28.476562 40.410156 C 29.125 40.136719 29.820312 40.007812 30.527344 40.027344 C 31.363281 40.050781 32.1875 40.285156 32.898438 40.726562 C 33.632812 41.183594 34.222656 41.832031 34.59375 42.613281 C 34.898438 43.246094 35.039062 43.941406 35.03125 44.644531 C 35.019531 45.449219 34.816406 46.238281 34.417969 46.933594 C 34.261719 47.203125 34.082031 47.449219 33.878906 47.675781 C 33.695312 47.878906 33.488281 48.0625 33.265625 48.222656 C 33.054688 48.378906 32.71875 48.574219 32.484375 48.703125 C 32.71875 48.804688 33.058594 48.957031 33.269531 49.097656 C 33.480469 49.234375 33.679688 49.40625 33.859375 49.589844 C 34.097656 49.820312 34.3125 50.109375 34.503906 50.382812 C 34.847656 50.882812 35.144531 51.433594 35.335938 52.003906 C 35.535156 52.582031 35.621094 53.203125 35.617188 53.816406 C 35.609375 54.542969 35.476562 55.257812 35.210938 55.933594 C 34.984375 56.527344 34.652344 57.078125 34.242188 57.5625 C 33.722656 58.171875 33.082031 58.667969 32.355469 59.015625 C 31.609375 59.371094 30.800781 59.574219 29.972656 59.59375 C 29.289062 59.621094 28.609375 59.523438 27.964844 59.316406 C 27.257812 59.085938 26.441406 58.617188 25.808594 58.222656 C 25.761719 58.1875 25.632812 58.109375 25.582031 58.074219 L 26.890625 55.648438 L 27.984375 56.351562 C 28.207031 56.492188 28.441406 56.621094 28.691406 56.722656 C 28.871094 56.796875 29.058594 56.847656 29.257812 56.878906 C 29.597656 56.929688 29.957031 56.90625 30.300781 56.835938 C 30.929688 56.695312 31.507812 56.378906 31.957031 55.921875 C 32.433594 55.433594 32.765625 54.808594 32.835938 54.128906 C 32.890625 53.496094 32.707031 52.859375 32.394531 52.308594 C 32.046875 51.695312 31.546875 51.183594 30.917969 50.84375 C 30.648438 50.691406 30.320312 50.5625 30.027344 50.464844 C 29.6875 50.355469 29.320312 50.25 28.972656 50.191406 C 28.898438 50.179688 28.792969 50.160156 28.722656 50.144531 L 28.71875 47.226562 C 28.800781 47.222656 28.917969 47.210938 29.003906 47.207031 C 29.355469 47.179688 29.710938 47.121094 30.054688 47.039062 C 30.453125 46.945312 30.90625 46.796875 31.234375 46.554688 C 31.546875 46.332031 31.785156 46.027344 31.960938 45.691406 C 32.160156 45.308594 32.28125 44.871094 32.25 44.433594 C 32.222656 43.972656 32.042969 43.511719 31.691406 43.203125 C 31.4375 42.984375 31.101562 42.859375 30.773438 42.804688 C 30.328125 42.738281 29.859375 42.777344 29.46875 42.988281 C 29.132812 43.171875 28.859375 43.488281 28.660156 43.816406 C 28.605469 43.910156 28.53125 44.042969 28.480469 44.140625 "/>
<path style=" stroke:none;fill-rule:nonzero;fill:rgb(13.729858%,12.159729%,12.548828%);fill-opacity:1;" d="M 42.328125 40.050781 C 42.734375 40.050781 43.15625 40.136719 43.542969 40.253906 C 44.398438 40.511719 45.125 41.113281 45.664062 41.820312 C 46.132812 42.4375 46.476562 43.179688 46.71875 43.917969 C 46.957031 44.625 47.117188 45.359375 47.226562 46.097656 C 47.339844 46.855469 47.398438 47.644531 47.425781 48.410156 C 47.453125 49.296875 47.445312 50.183594 47.386719 51.070312 C 47.328125 51.898438 47.226562 52.71875 47.078125 53.535156 C 46.90625 54.46875 46.664062 55.414062 46.316406 56.296875 C 46.003906 57.09375 45.546875 57.953125 44.921875 58.527344 C 44.21875 59.171875 43.308594 59.550781 42.355469 59.582031 C 41.457031 59.617188 40.566406 59.34375 39.859375 58.785156 C 39.09375 58.183594 38.5625 57.179688 38.226562 56.265625 C 37.90625 55.394531 37.683594 54.46875 37.535156 53.546875 C 37.40625 52.746094 37.324219 51.886719 37.265625 51.078125 C 37.210938 50.28125 37.171875 49.386719 37.207031 48.585938 C 37.242188 47.765625 37.347656 46.914062 37.488281 46.105469 C 37.613281 45.394531 37.777344 44.644531 37.996094 43.957031 C 38.226562 43.214844 38.558594 42.457031 39.027344 41.835938 C 39.582031 41.09375 40.34375 40.480469 41.234375 40.230469 C 41.582031 40.132812 41.96875 40.050781 42.328125 40.050781 "/>
<path style=" stroke:none;fill-rule:nonzero;fill:rgb(100%,100%,100%);fill-opacity:1;" d="M 42.347656 42.863281 C 42.566406 42.859375 42.78125 42.90625 42.972656 43.011719 C 43.160156 43.109375 43.3125 43.285156 43.425781 43.457031 C 43.613281 43.75 43.746094 44.164062 43.832031 44.5 C 43.980469 45.070312 44.097656 45.65625 44.1875 46.246094 C 44.277344 46.847656 44.34375 47.460938 44.386719 48.074219 C 44.425781 48.703125 44.453125 49.328125 44.449219 49.957031 C 44.445312 50.664062 44.414062 51.375 44.351562 52.085938 C 44.289062 52.796875 44.1875 53.535156 44.035156 54.226562 C 43.925781 54.710938 43.785156 55.199219 43.597656 55.65625 C 43.5 55.894531 43.375 56.144531 43.226562 56.351562 C 43.125 56.488281 43 56.625 42.855469 56.722656 C 42.699219 56.824219 42.515625 56.886719 42.324219 56.898438 C 42.101562 56.910156 41.871094 56.859375 41.6875 56.730469 C 41.554688 56.640625 41.433594 56.488281 41.34375 56.355469 C 41.203125 56.140625 41.082031 55.90625 40.980469 55.660156 C 40.792969 55.214844 40.664062 54.699219 40.574219 54.222656 C 40.449219 53.546875 40.367188 52.734375 40.3125 52.050781 C 40.257812 51.375 40.210938 50.59375 40.210938 49.921875 C 40.210938 49.300781 40.25 48.667969 40.3125 48.046875 C 40.375 47.433594 40.464844 46.816406 40.570312 46.207031 C 40.667969 45.652344 40.789062 45.070312 40.941406 44.527344 C 41.035156 44.171875 41.183594 43.75 41.390625 43.453125 C 41.507812 43.28125 41.660156 43.109375 41.84375 43.015625 C 41.996094 42.933594 42.171875 42.875 42.347656 42.863281 "/>
</g>
</svg>
