<?xml version="1.0" encoding="UTF-8"?>
<svg xmlns="http://www.w3.org/2000/svg" xmlns:xlink="http://www.w3.org/1999/xlink" width="101pt" height="72pt" viewBox="0 0 101 72" version="1.1">
<g id="surface1">
<path style=" stroke:none;fill-rule:nonzero;fill:rgb(100%,100%,100%);fill-opacity:1;" d="M 100.195312 71.671875 L 0.980469 71.671875 L 0.980469 0.804688 L 100.195312 0.804688 L 100.195312 71.671875 "/>
<path style="fill:none;stroke-width:2.835;stroke-linecap:butt;stroke-linejoin:round;stroke:rgb(13.729858%,12.159729%,12.548828%);stroke-opacity:1;stroke-miterlimit:4;" d="M 1001.953125 3.28125 L 9.804688 3.28125 L 9.804688 711.953125 L 1001.953125 711.953125 Z M 1001.953125 3.28125 " transform="matrix(0.1,0,0,-0.1,0,72)"/>
<path style=" stroke:none;fill-rule:nonzero;fill:rgb(13.729858%,12.159729%,12.548828%);fill-opacity:1;" d="M 2.394531 67.414062 C 2.394531 68.980469 3.664062 70.25 5.234375 70.25 L 95.9375 70.25 C 97.503906 70.25 98.777344 68.980469 98.777344 67.414062 L 98.777344 5.054688 C 98.777344 3.488281 97.503906 2.21875 95.9375 2.21875 L 5.234375 2.21875 C 3.664062 2.21875 2.394531 3.488281 2.394531 5.054688 L 2.394531 67.414062 "/>
<path style=" stroke:none;fill-rule:nonzero;fill:rgb(100%,100%,100%);fill-opacity:1;" d="M 3.816406 5.054688 C 3.816406 4.269531 4.449219 3.632812 5.230469 3.632812 L 91.125 3.632812 L 82.902344 9.339844 L 83.976562 10.3125 L 93.605469 3.632812 L 94.859375 3.632812 L 84.523438 10.804688 L 85.597656 11.78125 L 96.855469 3.964844 C 97.035156 4.121094 97.175781 4.320312 97.265625 4.546875 L 86.136719 12.269531 L 87.210938 13.242188 L 97.355469 6.203125 L 97.355469 7.0625 L 87.75 13.730469 L 88.824219 14.707031 L 97.355469 8.78125 L 97.355469 67.417969 C 97.355469 68.199219 96.722656 68.832031 95.941406 68.832031 L 10.828125 68.832031 L 15.640625 65.492188 L 14.707031 64.417969 L 8.347656 68.832031 L 7.109375 68.832031 L 14.242188 63.878906 L 13.3125 62.804688 L 4.75 68.75 C 4.507812 68.660156 4.296875 68.507812 4.136719 68.3125 L 12.847656 62.265625 L 11.914062 61.191406 L 3.816406 66.8125 L 3.816406 65.945312 L 11.445312 60.648438 L 10.515625 59.570312 L 3.816406 64.21875 L 3.816406 5.054688 "/>
<path style=" stroke:none;fill-rule:nonzero;fill:rgb(39.677429%,38.580322%,38.851929%);fill-opacity:1;" d="M 83.011719 61 L 83.011719 64.582031 L 18.152344 64.582031 L 18.152344 22.089844 L 83.011719 22.089844 L 83.023438 47.875 C 80.347656 45.101562 76.257812 44.226562 72.683594 45.664062 C 69.105469 47.105469 66.765625 50.574219 66.765625 54.425781 C 66.765625 58.28125 69.105469 61.75 72.683594 63.195312 C 76.257812 64.632812 80.335938 63.78125 83.011719 61 "/>
<path style=" stroke:none;fill-rule:nonzero;fill:rgb(100%,100%,100%);fill-opacity:1;" d="M 28.226562 38.640625 C 29.507812 38.640625 30.546875 39.683594 30.546875 40.964844 C 30.546875 42.246094 29.507812 43.285156 28.226562 43.285156 C 26.945312 43.285156 25.90625 42.246094 25.90625 40.964844 C 25.90625 39.683594 26.945312 38.640625 28.226562 38.640625 "/>
<path style=" stroke:none;fill-rule:nonzero;fill:rgb(100%,100%,100%);fill-opacity:1;" d="M 55.988281 29.320312 C 56.523438 29.320312 56.957031 29.757812 56.957031 30.289062 C 56.957031 30.824219 56.523438 31.257812 55.988281 31.257812 C 55.457031 31.257812 55.019531 30.824219 55.019531 30.289062 C 55.019531 29.757812 55.457031 29.320312 55.988281 29.320312 "/>
<path style=" stroke:none;fill-rule:nonzero;fill:rgb(100%,100%,100%);fill-opacity:1;" d="M 52.769531 50.597656 C 53.691406 50.597656 54.449219 51.351562 54.449219 52.277344 C 54.449219 53.203125 53.691406 53.960938 52.769531 53.960938 C 51.84375 53.960938 51.085938 53.203125 51.085938 52.277344 C 51.085938 51.351562 51.84375 50.597656 52.769531 50.597656 "/>
<path style=" stroke:none;fill-rule:nonzero;fill:rgb(100%,100%,100%);fill-opacity:1;" d="M 24.800781 48.480469 C 24.324219 49.363281 24.007812 50.078125 23.472656 50.945312 C 23.171875 51.636719 22.949219 52.40625 22.621094 53.011719 C 22.410156 53.453125 21.984375 53.863281 21.476562 53.757812 C 21.15625 53.640625 21.214844 53.449219 21.128906 53.269531 C 21.316406 49.878906 23.425781 46.847656 24.488281 45.035156 C 25.023438 44.707031 26.386719 43.554688 26.882812 43.566406 C 27.578125 43.582031 28.246094 43.726562 28.941406 43.742188 L 30.078125 45.117188 L 31.125 47.695312 C 31.210938 47.953125 31.515625 48.339844 31.738281 48.476562 C 32.332031 49.261719 33.9375 49.882812 34.664062 50.789062 C 35.179688 51.429688 34.226562 52.078125 33.695312 51.765625 L 33.6875 51.765625 C 32.1875 51.210938 30.582031 50.476562 29.300781 49.386719 C 29.203125 49.304688 29.109375 49.21875 29.011719 49.132812 C 28.53125 51.050781 30.277344 53.503906 31.007812 54.972656 C 31.976562 56.9375 32.953125 58.90625 33.925781 60.871094 C 34.328125 60.914062 34.765625 61.007812 35.171875 61.007812 C 35.507812 61.058594 35.234375 61.316406 35.109375 61.40625 C 34.722656 61.679688 34.371094 62.007812 33.949219 62.222656 L 32.261719 63.074219 C 31.191406 61.316406 31.023438 60.566406 30.40625 59.308594 C 29.378906 57.136719 28.355469 54.964844 27.335938 52.789062 L 26.921875 52.785156 L 23.933594 60.71875 L 23.519531 62.050781 L 24.285156 62.804688 C 24.378906 62.894531 24.519531 63.136719 24.238281 63.148438 L 23.742188 63.109375 C 23.101562 63.140625 22.808594 62.980469 22.347656 62.894531 C 21.917969 62.722656 21.363281 62.804688 20.953125 62.601562 C 20.636719 62.46875 21.027344 61.898438 21.136719 61.5625 C 21.230469 61.28125 21.402344 61.03125 21.496094 60.75 C 22.484375 57.730469 23.476562 54.714844 24.46875 51.699219 C 24.792969 50.710938 24.800781 49.515625 24.800781 48.480469 "/>
<path style=" stroke:none;fill-rule:nonzero;fill:rgb(100%,100%,100%);fill-opacity:1;" d="M 55.441406 55.488281 C 55.441406 56.449219 55.371094 57.441406 55.675781 58.355469 L 55.925781 58.683594 C 56.058594 58.859375 56.273438 58.90625 56.53125 58.921875 C 57.492188 58.890625 58.183594 58.230469 59.125 57.914062 C 59.234375 57.875 59.246094 57.835938 59.441406 57.789062 C 59.808594 58.367188 59.84375 58.664062 60.113281 59.234375 C 60.097656 59.390625 60.0625 59.535156 59.972656 59.675781 C 59.941406 59.734375 59.804688 59.726562 59.742188 59.664062 L 59.3125 59.265625 C 59.269531 59.222656 59.203125 59.199219 59.148438 59.238281 C 58.367188 59.824219 57.589844 60.433594 56.773438 60.976562 C 55.722656 60.628906 54.699219 59.886719 53.78125 59.273438 C 51.847656 60.078125 49.9375 61.398438 48.269531 62.648438 L 47.820312 62.898438 L 47.082031 62.125 C 46.933594 61.964844 46.71875 61.671875 46.824219 61.472656 C 46.808594 61.324219 46.90625 61.179688 47.140625 61.273438 L 47.851562 61.558594 C 49.28125 60.320312 50.726562 59.183594 52.261719 58.085938 C 52.25 57.84375 52.21875 57.730469 52.1875 57.535156 C 52.011719 57.179688 51.914062 56.046875 51.890625 55.859375 C 51.207031 55.859375 50.53125 56.207031 49.863281 56.207031 C 48.9375 56.25 48.222656 56.816406 47.382812 56.855469 C 47.117188 56.902344 46.898438 56.929688 46.660156 56.945312 C 46.269531 56.96875 46.109375 56.628906 46.394531 56.402344 C 46.632812 56.210938 46.871094 56.007812 47.164062 55.910156 C 47.9375 55.652344 48.679688 55.339844 49.472656 55.101562 C 51.167969 54.550781 54.015625 54.054688 55.0625 54.261719 C 55.574219 54.261719 55.972656 54.296875 56.585938 54.101562 L 58.070312 52.335938 L 58.429688 52.007812 L 58.433594 52.007812 C 59.234375 51.503906 59.621094 52.4375 59.375 52.589844 L 57.777344 54.710938 L 57.34375 55.167969 C 57.082031 55.445312 56.707031 55.578125 56.328125 55.578125 C 56.023438 55.578125 55.742188 55.566406 55.441406 55.488281 "/>
<path style=" stroke:none;fill-rule:nonzero;fill:rgb(100%,100%,100%);fill-opacity:1;" d="M 55.871094 37.917969 C 55.871094 38.777344 55.867188 39.636719 55.867188 40.496094 C 55.746094 40.914062 55.285156 40.839844 55.128906 40.527344 C 55.035156 39.949219 55.113281 38.589844 55.113281 37.925781 L 55.871094 37.917969 "/>
<path style=" stroke:none;fill-rule:nonzero;fill:rgb(100%,100%,100%);fill-opacity:1;" d="M 56.855469 37.921875 C 56.855469 39.015625 56.84375 40.113281 56.84375 41.207031 C 56.832031 41.492188 56.269531 41.648438 56.101562 41.195312 C 56.101562 40.101562 56.09375 39.015625 56.09375 37.925781 L 56.855469 37.921875 "/>
<path style=" stroke:none;fill-rule:nonzero;fill:rgb(100%,100%,100%);fill-opacity:1;" d="M 61.246094 37.710938 L 62.261719 38.929688 C 62.398438 38.835938 62.414062 38.671875 62.488281 38.53125 C 62.519531 38.355469 62.515625 38.226562 62.421875 38.109375 C 61.851562 37.535156 61.382812 36.871094 60.859375 36.25 C 59.875 36.742188 59.269531 35.960938 58.648438 35.234375 C 58.664062 35.207031 58.800781 35.042969 58.726562 34.863281 C 58.246094 33.765625 57.335938 30.769531 55.15625 31.894531 C 54.140625 32.53125 54.28125 33.785156 54.28125 34.808594 C 54.28125 34.925781 54.339844 34.957031 54.488281 35.09375 C 53.910156 35.820312 53.636719 36.875 53.636719 37.785156 L 58.332031 37.800781 C 58.332031 36.441406 57.761719 35.089844 56.691406 34.242188 L 56.699219 32.929688 C 56.773438 32.777344 56.863281 32.851562 56.925781 32.914062 C 57.433594 33.585938 57.71875 34.527344 58.074219 35.242188 C 58.097656 35.390625 58.015625 35.445312 58.226562 35.726562 C 58.535156 36.34375 59.109375 36.734375 59.550781 37.308594 C 59.429688 38.644531 59.203125 39.972656 59.203125 41.316406 C 59.203125 41.710938 59.753906 41.777344 59.855469 41.390625 L 60.019531 39.414062 L 60.410156 39.410156 C 60.464844 40.015625 60.574219 40.621094 60.574219 41.230469 C 60.640625 41.554688 61.132812 41.621094 61.21875 41.234375 L 61.21875 41.15625 C 61.21875 40.570312 61.109375 40 61.054688 39.417969 L 61.503906 39.417969 L 61.246094 37.710938 "/>
<path style=" stroke:none;fill-rule:nonzero;fill:rgb(100%,100%,100%);fill-opacity:1;" d="M 76.503906 30.210938 L 76.503906 39.554688 C 72.25 39.554688 68 39.558594 63.746094 39.570312 L 63.746094 30.226562 C 63.570312 30.359375 63.355469 30.5625 63.113281 30.5625 C 62.601562 30.644531 62.175781 30.226562 62.464844 29.65625 C 62.488281 29.589844 62.578125 29.507812 62.632812 29.464844 C 65.125 27.597656 67.621094 25.726562 70.117188 23.855469 C 72.617188 25.722656 75.117188 27.585938 77.617188 29.449219 C 77.738281 29.535156 77.808594 29.675781 77.859375 29.808594 C 78.023438 30.601562 77.136719 30.71875 76.796875 30.425781 C 76.699219 30.402344 76.574219 30.28125 76.503906 30.210938 "/>
<path style=" stroke:none;fill-rule:nonzero;fill:rgb(100%,100%,100%);fill-opacity:1;" d="M 60.238281 34.324219 C 60.71875 34.324219 61.105469 34.714844 61.105469 35.191406 C 61.105469 35.671875 60.71875 36.058594 60.238281 36.058594 C 59.757812 36.058594 59.371094 35.671875 59.371094 35.191406 C 59.371094 34.714844 59.757812 34.324219 60.238281 34.324219 "/>
<path style=" stroke:none;fill-rule:nonzero;fill:rgb(100%,100%,100%);fill-opacity:1;" d="M 42.75 46.472656 C 45.203125 46.472656 47.679688 46.292969 48.21875 45.976562 C 48.21875 46.910156 47.9375 48.667969 49.511719 48.140625 C 50.253906 47.894531 49.957031 46.320312 49.957031 45.960938 C 50.992188 45.441406 50.714844 44.789062 50.738281 43.632812 C 50.785156 41.644531 50.367188 39.660156 49.339844 39.199219 L 49.371094 39.1875 C 49.917969 39.09375 50.484375 39.105469 50.96875 39.140625 C 51.089844 39.148438 51.1875 39.085938 51.199219 38.902344 L 51.140625 38.15625 C 51.140625 38.003906 51.035156 37.953125 50.917969 37.960938 L 50.082031 37.933594 C 49.792969 37.910156 49.59375 37.894531 49.414062 38.097656 L 49.023438 38.839844 C 48.683594 37.511719 48.496094 36.394531 48.023438 35.074219 C 47.707031 34.1875 45.015625 34.042969 42.75 34.066406 C 40.484375 34.042969 37.789062 34.1875 37.46875 35.074219 C 36.996094 36.394531 36.808594 37.511719 36.46875 38.839844 L 36.082031 38.097656 C 35.898438 37.894531 35.699219 37.910156 35.414062 37.933594 L 34.578125 37.960938 C 34.457031 37.953125 34.351562 38.003906 34.351562 38.15625 L 34.296875 38.902344 C 34.308594 39.085938 34.40625 39.148438 34.523438 39.140625 C 35.007812 39.105469 35.578125 39.09375 36.121094 39.1875 L 36.15625 39.199219 C 35.125 39.660156 34.710938 41.644531 34.753906 43.632812 C 34.78125 44.789062 34.503906 45.441406 35.535156 45.960938 C 35.535156 46.320312 35.242188 47.894531 35.980469 48.140625 C 37.558594 48.667969 37.273438 46.910156 37.273438 45.976562 C 37.816406 46.292969 40.296875 46.472656 42.75 46.472656 "/>
<path style=" stroke:none;fill-rule:nonzero;fill:rgb(39.677429%,38.580322%,38.851929%);fill-opacity:1;" d="M 75.5625 38.320312 L 71.636719 38.304688 L 71.636719 34.765625 L 68.628906 34.765625 L 68.628906 38.304688 L 64.726562 38.304688 L 64.726562 29.585938 L 70.085938 25.695312 L 75.5625 29.871094 L 75.5625 38.320312 "/>
<path style=" stroke:none;fill-rule:nonzero;fill:rgb(39.677429%,38.580322%,38.851929%);fill-opacity:1;" d="M 55.007812 34.480469 C 55.007812 33.976562 55.007812 33.472656 55.007812 32.96875 C 55.023438 32.800781 55.273438 32.796875 55.273438 32.972656 C 55.273438 33.398438 55.277344 33.824219 55.277344 34.253906 C 55.15625 34.355469 55.148438 34.246094 55.007812 34.480469 "/>
<path style=" stroke:none;fill-rule:nonzero;fill:rgb(39.677429%,38.580322%,38.851929%);fill-opacity:1;" d="M 42.746094 45.1875 C 40.394531 45.191406 38.039062 45.085938 35.6875 44.871094 C 35.503906 44.855469 35.351562 44.695312 35.351562 44.507812 L 35.351562 44.285156 C 35.351562 44.097656 35.503906 43.960938 35.6875 43.980469 C 38.039062 44.195312 40.398438 44.300781 42.75 44.292969 C 45.101562 44.300781 47.457031 44.195312 49.808594 43.980469 C 49.996094 43.960938 50.144531 44.097656 50.144531 44.285156 L 50.144531 44.507812 C 50.144531 44.695312 49.996094 44.855469 49.808594 44.871094 C 47.457031 45.085938 45.101562 45.191406 42.746094 45.1875 "/>
<path style=" stroke:none;fill-rule:nonzero;fill:rgb(39.677429%,38.580322%,38.851929%);fill-opacity:1;" d="M 42.746094 43.304688 L 39.089844 43.304688 C 38.804688 43.304688 38.605469 43.09375 38.703125 42.902344 L 39.644531 40.984375 C 39.699219 40.863281 39.855469 40.785156 40.027344 40.785156 L 45.46875 40.785156 C 45.644531 40.785156 45.800781 40.863281 45.855469 40.984375 L 46.796875 42.902344 C 46.894531 43.09375 46.695312 43.304688 46.410156 43.304688 L 42.746094 43.304688 "/>
<path style=" stroke:none;fill-rule:nonzero;fill:rgb(39.677429%,38.580322%,38.851929%);fill-opacity:1;" d="M 48.636719 40.332031 C 49.242188 40.332031 49.738281 40.828125 49.738281 41.433594 C 49.738281 42.042969 49.242188 42.535156 48.636719 42.535156 C 48.027344 42.535156 47.53125 42.042969 47.53125 41.433594 C 47.53125 40.828125 48.027344 40.332031 48.636719 40.332031 "/>
<path style=" stroke:none;fill-rule:nonzero;fill:rgb(39.677429%,38.580322%,38.851929%);fill-opacity:1;" d="M 36.859375 40.332031 C 36.25 40.332031 35.753906 40.828125 35.753906 41.433594 C 35.753906 42.042969 36.25 42.535156 36.859375 42.535156 C 37.464844 42.535156 37.960938 42.042969 37.960938 41.433594 C 37.960938 40.828125 37.464844 40.332031 36.859375 40.332031 "/>
<path style=" stroke:none;fill-rule:nonzero;fill:rgb(39.677429%,38.580322%,38.851929%);fill-opacity:1;" d="M 42.773438 38.761719 C 44.828125 38.769531 46.617188 38.898438 48.289062 39.03125 C 48.125 38.363281 47.710938 36.144531 47.453125 35.605469 C 47.320312 35.246094 47.226562 34.917969 46.511719 34.839844 C 45.980469 34.582031 44.410156 34.492188 42.773438 34.515625 C 41.136719 34.492188 39.515625 34.582031 38.984375 34.839844 C 38.269531 34.917969 38.175781 35.246094 38.042969 35.605469 C 37.789062 36.144531 37.371094 38.363281 37.207031 39.03125 C 38.882812 38.898438 40.71875 38.769531 42.773438 38.761719 "/>
<path style=" stroke:none;fill-rule:nonzero;fill:rgb(13.729858%,12.159729%,12.548828%);fill-opacity:1;" d="M 72.347656 57.734375 L 75.722656 57.734375 L 75.722656 59.003906 L 70.75 59.003906 C 70.742188 55.890625 72.640625 54.855469 74.210938 52.363281 C 75.101562 50.945312 72.164062 49.539062 72.164062 52.253906 L 70.757812 52.257812 C 70.46875 47.804688 77.027344 49.027344 75.582031 52.78125 C 74.921875 54.488281 72.578125 55.816406 72.347656 57.734375 "/>
<path style=" stroke:none;fill-rule:nonzero;fill:rgb(13.729858%,12.159729%,12.548828%);fill-opacity:1;" d="M 79.132812 49.363281 C 83.273438 49.363281 82.128906 61.359375 78.070312 58.859375 C 75.917969 57.539062 75.820312 49.363281 79.132812 49.363281 "/>
<path style=" stroke:none;fill-rule:nonzero;fill:rgb(100%,100%,100%);fill-opacity:1;" d="M 68.648438 33.332031 L 71.632812 33.332031 L 71.632812 30.339844 L 68.648438 30.339844 Z M 68.648438 33.332031 "/>
<path style=" stroke:none;fill-rule:nonzero;fill:rgb(56.864929%,56.079102%,56.274414%);fill-opacity:1;" d="M 83.015625 41.980469 L 83.019531 47.859375 C 80.34375 45.085938 76.253906 44.210938 72.679688 45.652344 C 69.101562 47.089844 66.761719 50.5625 66.761719 54.414062 C 66.761719 58.269531 69.101562 61.734375 72.679688 63.179688 C 76.253906 64.617188 80.332031 63.765625 83.007812 60.988281 L 83.007812 64.570312 L 66.328125 64.574219 C 61.246094 59.628906 60.597656 51.691406 64.808594 45.992188 C 69.023438 40.289062 76.796875 38.578125 83.015625 41.980469 "/>
<path style=" stroke:none;fill-rule:nonzero;fill:rgb(100%,100%,100%);fill-opacity:1;" d="M 79.164062 50.769531 C 80.832031 50.769531 80.324219 59.328125 78.734375 57.644531 C 77.917969 56.777344 77.730469 50.769531 79.164062 50.769531 "/>
<path style=" stroke:none;fill-rule:nonzero;fill:rgb(13.729858%,12.159729%,12.548828%);fill-opacity:1;" d="M 14.707031 64.417969 L 87.75 13.730469 L 88.824219 14.707031 L 15.640625 65.492188 L 14.707031 64.417969 "/>
<path style=" stroke:none;fill-rule:nonzero;fill:rgb(13.729858%,12.159729%,12.548828%);fill-opacity:1;" d="M 13.3125 62.804688 L 86.136719 12.269531 L 87.210938 13.242188 L 14.242188 63.878906 L 13.3125 62.804688 "/>
<path style=" stroke:none;fill-rule:nonzero;fill:rgb(13.729858%,12.159729%,12.548828%);fill-opacity:1;" d="M 11.914062 61.191406 L 84.523438 10.804688 L 85.597656 11.78125 L 12.847656 62.265625 L 11.914062 61.191406 "/>
<path style=" stroke:none;fill-rule:nonzero;fill:rgb(13.729858%,12.159729%,12.548828%);fill-opacity:1;" d="M 10.515625 59.570312 L 82.902344 9.339844 L 83.976562 10.3125 L 11.445312 60.648438 L 10.515625 59.570312 "/>
<path style=" stroke:none;fill-rule:nonzero;fill:rgb(13.729858%,12.159729%,12.548828%);fill-opacity:1;" d="M 42.621094 15.984375 C 42.964844 16.40625 43.363281 16.722656 43.832031 16.933594 C 44.285156 17.15625 44.785156 17.257812 45.308594 17.257812 C 45.863281 17.257812 46.375 17.15625 46.84375 16.949219 C 47.3125 16.734375 47.710938 16.421875 48.054688 15.996094 C 48.390625 15.585938 48.660156 15.042969 48.863281 14.402344 C 49.046875 13.765625 49.148438 13 49.148438 12.132812 C 49.148438 11.292969 49.046875 10.566406 48.863281 9.941406 C 48.660156 9.316406 48.390625 8.789062 48.054688 8.363281 C 47.710938 7.953125 47.3125 7.625 46.859375 7.410156 C 46.390625 7.199219 45.894531 7.097656 45.363281 7.097656 C 44.808594 7.097656 44.3125 7.199219 43.84375 7.410156 C 43.378906 7.625 42.964844 7.9375 42.621094 8.351562 C 42.28125 8.777344 42.011719 9.316406 41.824219 9.957031 C 41.628906 10.59375 41.527344 11.363281 41.527344 12.226562 C 41.527344 13.066406 41.628906 13.792969 41.824219 14.417969 C 42.011719 15.042969 42.28125 15.570312 42.621094 15.984375 "/>
<path style=" stroke:none;fill-rule:nonzero;fill:rgb(13.729858%,12.159729%,12.548828%);fill-opacity:1;" d="M 50.757812 17.148438 L 52.175781 17.148438 L 52.175781 9.214844 L 52.203125 9.214844 L 55.714844 17.148438 L 57.578125 17.148438 L 57.578125 7.226562 L 56.15625 7.226562 L 56.15625 15.21875 L 56.128906 15.21875 L 52.617188 7.226562 L 50.757812 7.226562 L 50.757812 17.148438 "/>
<path style=" stroke:none;fill-rule:nonzero;fill:rgb(13.729858%,12.159729%,12.548828%);fill-opacity:1;" d="M 58.664062 17.148438 L 60.199219 17.148438 L 60.953125 14.660156 L 64.546875 14.660156 L 65.300781 17.148438 L 66.890625 17.148438 L 63.667969 7.226562 L 61.988281 7.226562 L 58.664062 17.148438 "/>
<path style=" stroke:none;fill-rule:nonzero;fill:rgb(13.729858%,12.159729%,12.548828%);fill-opacity:1;" d="M 34.785156 17.148438 L 40.644531 17.148438 L 40.644531 15.882812 L 36.507812 15.882812 L 40.574219 8.519531 L 40.574219 7.226562 L 34.917969 7.226562 L 34.917969 8.492188 L 38.769531 8.492188 L 34.785156 15.757812 L 34.785156 17.148438 "/>
<path style=" stroke:none;fill-rule:nonzero;fill:rgb(100%,100%,100%);fill-opacity:1;" d="M 43.691406 15.03125 C 43.304688 14.347656 43.121094 13.410156 43.121094 12.226562 C 43.121094 11.503906 43.175781 10.894531 43.304688 10.398438 C 43.417969 9.898438 43.574219 9.484375 43.785156 9.175781 C 43.984375 8.878906 44.230469 8.648438 44.5 8.507812 C 44.769531 8.375 45.070312 8.308594 45.363281 8.308594 C 46.078125 8.308594 46.617188 8.648438 47 9.332031 C 47.367188 10.011719 47.550781 10.949219 47.550781 12.132812 C 47.550781 12.855469 47.5 13.46875 47.382812 13.964844 C 47.257812 14.460938 47.097656 14.875 46.902344 15.171875 C 46.6875 15.488281 46.449219 15.714844 46.175781 15.839844 C 45.90625 15.984375 45.609375 16.050781 45.308594 16.050781 C 44.597656 16.050781 44.058594 15.714844 43.691406 15.03125 "/>
<path style=" stroke:none;fill-rule:nonzero;fill:rgb(100%,100%,100%);fill-opacity:1;" d="M 61.324219 13.421875 L 62.785156 8.632812 L 62.8125 8.632812 L 64.191406 13.421875 L 61.324219 13.421875 "/>
</g>
</svg>
