<?xml version="1.0" encoding="UTF-8" standalone="no"?>
<svg
   xmlns:dc="http://purl.org/dc/elements/1.1/"
   xmlns:cc="http://creativecommons.org/ns#"
   xmlns:rdf="http://www.w3.org/1999/02/22-rdf-syntax-ns#"
   xmlns:svg="http://www.w3.org/2000/svg"
   xmlns="http://www.w3.org/2000/svg"
   xmlns:sodipodi="http://sodipodi.sourceforge.net/DTD/sodipodi-0.dtd"
   xmlns:inkscape="http://www.inkscape.org/namespaces/inkscape"
   width="73"
   height="100"
   version="1.1"
   id="svg181"
   sodipodi:docname="407a.svg"
   inkscape:version="1.0.2 (e86c870879, 2021-01-15, custom)">
  <metadata
     id="metadata187">
    <rdf:RDF>
      <cc:Work
         rdf:about="">
        <dc:format>image/svg+xml</dc:format>
        <dc:type
           rdf:resource="http://purl.org/dc/dcmitype/StillImage" />
        <dc:title></dc:title>
      </cc:Work>
    </rdf:RDF>
  </metadata>
  <defs
     id="defs185" />
  <sodipodi:namedview
     pagecolor="#ffffff"
     bordercolor="#666666"
     borderopacity="1"
     objecttolerance="10"
     gridtolerance="10"
     guidetolerance="10"
     inkscape:pageopacity="0"
     inkscape:pageshadow="2"
     inkscape:window-width="1920"
     inkscape:window-height="1017"
     id="namedview183"
     showgrid="false"
     inkscape:zoom="2.498444"
     inkscape:cx="55.04673"
     inkscape:cy="81.86088"
     inkscape:window-x="3832"
     inkscape:window-y="-8"
     inkscape:window-maximized="1"
     inkscape:current-layer="svg181" />
  <!-- Created with Method Draw - http://github.com/duopixel/Method-Draw/ -->
  <g
     id="g179"
     transform="matrix(0.24889637,0,0,0.24889637,-18.115279,-24.182891)">
    <title
       id="title153">Layer 1</title>
    <metadata
       transform="matrix(4,0,0,4,0,0) "
       id="svg_47">image/svg+xml</metadata>
    <g
       id="svg_49">
      <path
         fill="#ffffff"
         fill-rule="nonzero"
         id="svg_46"
         d="M 77.26561,498.42967 H 360.73437 V 101.57031 H 77.26561 Z m 0,0" />
      <path
         fill="none"
         stroke="#211e1e"
         stroke-width="0.2835"
         stroke-miterlimit="4"
         id="svg_45"
         d="M 77.26561,498.42967 V 101.57031 H 360.73437 V 498.42967 H 77.26561" />
      <path
         fill="#1966ba"
         fill-rule="nonzero"
         id="svg_44"
         d="m 82.93749,492.74219 h 272.10936 v -385.5 H 82.93749 Z m 0,0" />
      <path
         fill="#ffffff"
         fill-rule="nonzero"
         id="svg_43"
         d="M 119.79685,342.50779 H 318.20309 V 144.10155 H 119.79685 Z m 0,0" />
      <path
         fill="#1966ba"
         fill-rule="nonzero"
         id="svg_42"
         d="m 172.29685,434.88279 c 1.28124,4.09376 3.67188,6.14064 7,6.14064 3.31252,0 5.70312,-2.04688 7.06252,-6.14064 1.28124,-4 1.95312,-9.79688 1.95312,-17.21876 0,-7.5156 -0.67188,-13.29684 -1.95312,-17.40624 -1.28128,-4 -3.65628,-6.04688 -7.06252,-6.04688 -3.32812,0 -5.71876,2.04688 -7,6.14064 -1.28124,4.09376 -1.96876,9.875 -1.96876,17.31248 0,7.42188 0.68752,13.21876 1.96876,17.21876" />
      <path
         fill="#211e1e"
         fill-rule="nonzero"
         id="svg_41"
         d="m 148.12497,297.16403 h 141.7344 v -82.5 l -35.81252,-36.56248 h -68.60936 l -37.31252,37.17188 v 81.8906" />
      <path
         fill="#ffffff"
         fill-rule="nonzero"
         id="svg_40"
         d="m 152.60937,292.33591 h 24.07812 v -14.18748 h -24.07812 z m 0,0" />
      <path
         fill="#ffffff"
         fill-rule="nonzero"
         id="svg_39"
         d="m 152.60937,272.99219 h 24.07812 v -14.20316 h -24.07812 z m 0,0" />
      <path
         fill="#ffffff"
         fill-rule="nonzero"
         id="svg_38"
         d="m 261.56249,292.33591 h 24.07812 v -14.18748 h -24.07812 z m 0,0" />
      <path
         fill="#ffffff"
         fill-rule="nonzero"
         id="svg_37"
         d="m 261.56249,272.99219 h 24.07812 v -14.20316 h -24.07812 z m 0,0" />
      <path
         fill="#ffffff"
         fill-rule="nonzero"
         id="svg_36"
         d="m 261.56249,254.27343 h 24.07812 v -14.5 h -24.07812 z m 0,0" />
      <path
         fill="#ffffff"
         fill-rule="nonzero"
         id="svg_35"
         d="m 152.60937,254.27343 h 24.07812 v -14.5 h -24.07812 z m 0,0" />
      <path
         fill="#ffffff"
         fill-rule="nonzero"
         id="svg_34"
         d="m 178.01561,234.91403 c 0.25,-0.84372 0.53124,-1.70312 0.78124,-2.53124 l -26.18748,-11.375 v 13.90624 h 25.40624" />
      <path
         fill="#ffffff"
         fill-rule="nonzero"
         id="svg_33"
         d="m 180.73437,227.77343 c 1.42184,-2.90624 3.1406,-5.625 5.125,-8.14064 l -17.89064,-17.95312 -15.35936,14.48436 28.125,11.6094" />
      <path
         fill="#ffffff"
         fill-rule="nonzero"
         id="svg_32"
         d="m 189.29685,215.86719 c 2.07812,-2.06252 4.35936,-3.90628 6.82812,-5.46876 l -10.98436,-25.625 -13.8594,13.57812 18.01564,17.51564" />
      <path
         fill="#ffffff"
         fill-rule="nonzero"
         id="svg_31"
         d="m 200.26561,208.02343 c 2.65624,-1.29688 5.46876,-2.3594 8.3906,-3.07812 l -3.09372,-22.28128 h -16.25 l 10.95312,25.3594" />
      <path
         fill="#ffffff"
         fill-rule="nonzero"
         id="svg_30"
         d="m 213.81249,203.97655 c 1.75,-0.23436 3.5156,-0.34376 5.32812,-0.34376 2.18748,0 4.375,0.15624 6.46876,0.5 l 2.875,-21.46876 h -17.78128 l 3.1094,21.31252" />
      <path
         fill="#ffffff"
         fill-rule="nonzero"
         id="svg_29"
         d="m 230.15621,205.07031 c 2.71876,0.7656 5.34376,1.71872 7.81252,2.95312 l 10.35936,-25.3594 h -15.375 l -2.79688,22.40628" />
      <path
         fill="#ffffff"
         fill-rule="nonzero"
         id="svg_28"
         d="m 259.28121,231.89843 c 0.35936,0.98436 0.67188,2 0.96876,3.0156 h 25.375 v -14.81248 l -26.34376,11.79688" />
      <path
         fill="#ffffff"
         fill-rule="nonzero"
         id="svg_27"
         d="m 252.26561,219.46091 c 1.96876,2.45312 3.67188,5.1094 5.07812,7.92188 l 28.28124,-11.5156 -15.31248,-14.4844 -18.04688,18.07812" />
      <path
         fill="#ffffff"
         fill-rule="nonzero"
         id="svg_26"
         d="m 241.93749,210.25779 c 2.53124,1.6094 4.90624,3.46876 7,5.56252 l 18.0156,-18.09376 -14.125,-15.07812 -10.8906,27.60936" />
    </g>
    <text
       xml:space="default"
       dominant-baseline="middle"
       text-anchor="middle"
       font-family="sans-serif"
       font-size="70px"
       id="svg_50"
       y="443"
       x="300"
       stroke-width="0"
       stroke="#000000"
       fill="#ffffff">param(text1)</text>
  </g>
</svg>
