<?xml version="1.0" encoding="UTF-8" standalone="no"?>
<svg
   xmlns:dc="http://purl.org/dc/elements/1.1/"
   xmlns:cc="http://creativecommons.org/ns#"
   xmlns:rdf="http://www.w3.org/1999/02/22-rdf-syntax-ns#"
   xmlns:svg="http://www.w3.org/2000/svg"
   xmlns="http://www.w3.org/2000/svg"
   xmlns:sodipodi="http://sodipodi.sourceforge.net/DTD/sodipodi-0.dtd"
   xmlns:inkscape="http://www.inkscape.org/namespaces/inkscape"
   width="73"
   height="100"
   version="1.1"
   id="svg110"
   sodipodi:docname="410.svg"
   inkscape:version="1.0.2 (e86c870879, 2021-01-15, custom)">
  <metadata
     id="metadata116">
    <rdf:RDF>
      <cc:Work
         rdf:about="">
        <dc:format>image/svg+xml</dc:format>
        <dc:type
           rdf:resource="http://purl.org/dc/dcmitype/StillImage" />
        <dc:title></dc:title>
      </cc:Work>
    </rdf:RDF>
  </metadata>
  <defs
     id="defs114" />
  <sodipodi:namedview
     pagecolor="#ffffff"
     bordercolor="#666666"
     borderopacity="1"
     objecttolerance="10"
     gridtolerance="10"
     guidetolerance="10"
     inkscape:pageopacity="0"
     inkscape:pageshadow="2"
     inkscape:window-width="1920"
     inkscape:window-height="1017"
     id="namedview112"
     showgrid="false"
     inkscape:zoom="3.5333333"
     inkscape:cx="86.402169"
     inkscape:cy="85.667953"
     inkscape:window-x="3832"
     inkscape:window-y="-8"
     inkscape:window-maximized="1"
     inkscape:current-layer="svg110" />
  <!-- Created with Method Draw - http://github.com/duopixel/Method-Draw/ -->
  <g
     id="g91">
    <title
       id="title85">background</title>
    <rect
       fill="#ffffff"
       opacity="0"
       id="canvas_background"
       height="602"
       width="440"
       y="-1"
       x="-1" />
    <g
       display="none"
       overflow="visible"
       y="0"
       x="0"
       height="100%"
       width="100%"
       id="canvasGrid">
      <rect
         fill="url(#gridpattern)"
         stroke-width="0"
         y="0"
         x="0"
         height="100%"
         width="100%"
         id="rect88" />
    </g>
  </g>
  <g
     id="g108"
     transform="matrix(0.24946603,0,0,0.24946603,-17.576991,-24.991673)">
    <title
       id="title93">Layer 1</title>
    <metadata
       transform="matrix(4,0,0,4,0,0) "
       id="svg_25">image/svg+xml</metadata>
    <g
       id="svg_27">
      <path
         fill="#ffffff"
         fill-rule="nonzero"
         id="svg_24"
         d="M 77.26561,498.42967 H 360.73437 V 101.57031 H 77.26561 Z m 0,0" />
      <path
         fill="none"
         stroke="#211e1e"
         stroke-width="0.2835"
         stroke-miterlimit="4"
         id="svg_23"
         d="M 77.26561,498.42967 H 360.73437 V 101.57031 H 77.26561 v 396.85936" />
      <path
         fill="#1966ba"
         fill-rule="nonzero"
         id="svg_22"
         d="m 82.93749,492.74219 h 272.10936 v -385.5 H 82.93749 Z m 0,0" />
      <path
         fill="#ffffff"
         fill-rule="nonzero"
         id="svg_21"
         d="M 119.79685,342.50779 H 318.20309 V 144.10155 H 119.79685 Z m 0,0" />
      <path
         fill="#ffffff"
         fill-rule="nonzero"
         id="svg_20"
         d="m 330.89061,464.32031 -4.45312,-63.64064 12.82812,3.18752 c 0.5,0.125 1,-0.0469 1.34376,-0.4844 0.35932,-0.48436 0.39064,-1.20312 0.0468,-1.75 l -18.18748,-29.81248 c -0.32812,-0.57812 -0.95312,-0.95312 -1.54688,-0.95312 -0.67188,0 -1.29688,0.375 -1.64064,0.98436 l -17.875,30.04688 c -0.29688,0.5 -0.26564,1.18748 0.0625,1.67188 0.32812,0.48436 0.8594,0.70312 1.39064,0.56248 l 12.95312,-3.23436 -3.60936,63.5 18.68748,-0.0781" />
      <path
         fill="#ffffff"
         fill-rule="nonzero"
         id="svg_19"
         d="m 126.79685,464.28903 -4.45312,-63.6406 12.82812,3.18748 c 0.5,0.14064 1,-0.0469 1.34376,-0.48436 0.35936,-0.48436 0.39064,-1.18752 0.0469,-1.75 l -18.18752,-29.81252 c -0.32812,-0.57812 -0.95312,-0.95312 -1.54688,-0.95312 -0.67188,0 -1.28124,0.375 -1.6406,0.9844 l -17.8594,30.04688 c -0.31248,0.5 -0.28124,1.18748 0.04688,1.67184 0.32812,0.4844 0.85936,0.70316 1.39064,0.56252 l 12.95312,-3.23436 -3.60936,63.5156 18.68748,-0.0938" />
      <path
         fill="#211e1e"
         fill-rule="nonzero"
         id="svg_18"
         d="m 151.74997,231.47655 h 15.21876 c -0.76564,-1.45312 -1.90624,-2.54688 -2.67188,-4.01564 -2.65624,-4.0156 -4.18748,-8.78124 -4.95312,-13.53124 -0.75,-4.75 0,-9.5 1.53124,-13.89064 2.28124,-5.84372 6.09376,-10.96872 11.42188,-14.98436 6.07812,-4.39064 12.92188,-7.32812 20.15624,-9.15624 8.75,-2.18752 18.26564,-2.92188 27.40628,-2.92188 6.84372,0.375 13.68748,1.10936 20.54684,2.56248 6.09376,1.46876 11.79688,3.29688 17.125,6.21876 4.93752,2.92188 9.51564,6.59376 12.92188,10.96876 3.06252,4.01564 5.32812,8.78124 6.09376,13.89064 0.39064,5.10936 -0.375,10.23436 -1.90624,15 -0.76564,2.18748 -1.89064,4.0156 -3.03124,5.84372 -0.76564,1.09376 -1.90628,2.92188 -3.06252,4.01564 h 14.09376 v 6.95312 h -23.21876 c -1.53124,1.09376 -3.03124,1.81252 -4.56248,2.54688 -3.42188,1.82812 -8.75,3.29688 -12.56252,4.39064 -6.45312,1.45312 -13.31248,2.18748 -19.78124,2.56248 -6.09376,0.35936 -11.79688,0 -17.89064,-0.375 -6.07812,-0.73436 -11.78124,-1.82812 -17.5,-3.65624 -3.81248,-1.09376 -8.75,-2.54688 -11.79688,-5.46876 h -23.57812 v -6.95312" />
      <path
         fill="#211e1e"
         fill-rule="nonzero"
         id="svg_17"
         d="m 268.26561,273.11719 c -0.39064,0 -0.875,-0.3594 -0.8594,-1.18752 l 0.0156,-5.71876 h -3.04688 v -3.65624 h -39.57812 c -1.14064,2.56252 -4.18748,4.03124 -6.85936,3.65624 -2.65628,-0.35936 -4.56252,-1.82812 -5.70312,-3.65624 h -41.46876 v 3.65624 h -3.03124 v 5.125 c 0,0.71876 0,1.45312 -0.39068,1.81252 -0.375,0.375 -0.75,0.375 -1.5156,0.375 h -5.32812 c -0.375,0 -1.14064,0 -1.53128,-0.375 -0.375,-0.35936 -0.375,-1.09376 -0.375,-1.81252 v -9.5 c -1.53124,0 -2.65624,-1.10936 -2.65624,-2.57812 0,-1.82812 1.125,-2.92188 2.65624,-2.92188 v -10.59372 c 0,-0.375 0,-0.7344 0,-0.7344 0,-0.73436 0,-1.09376 0.375,-1.45312 0.39064,-0.375 1.53128,-0.375 2.29688,-0.375 h 3.79688 c 0.76564,0 1.90624,0 2.28124,0.375 0.39064,0.35936 0.39064,0.71876 0.39064,1.09376 0,0.35936 0,0.71876 0,1.09376 v 6.93748 c 0.35936,0 2.28128,0 2.28128,0 0.75,0 0.75,0 0.75,0.73436 v 2.92188 h 41.46872 c 1.14064,-2.18748 3.79688,-4.0156 6.46876,-4.0156 3.04688,0 5.32812,1.82812 6.46876,4.375 h 39.20312 v -4.01564 h 3.04688 v -6.20312 c 0,-0.375 0,-1.82812 1.89064,-1.82812 h 4.56248 c 1.90624,0 1.90624,1.45312 1.90624,2.18748 v 10.59376 c 1.53128,0 2.67188,1.09376 2.67188,2.56252 0,1.46872 -1.1406,2.56248 -2.67188,2.56248 v 8.40624 c 0,0.375 0,0.7344 0,1.09376 0,0.375 0,1.09376 -1.1406,1.09376 l -6.375,-0.0312" />
      <path
         fill="#211e1e"
         fill-rule="nonzero"
         id="svg_16"
         d="m 280.73437,314.80467 c -3.40628,0.71876 -6.84376,1.09376 -9.5,1.45312 -10.28128,0.7344 -19.01564,0.7344 -30.82816,-1.82812 -2.28124,-0.35936 -12.56248,-2.54688 -14.84372,-2.92188 -5.31252,-0.73436 -10.65628,-0.73436 -15.9844,0 -4.18748,0.7344 -8.35936,1.46876 -12.54688,2.20312 -3.03124,0.71876 -9.125,1.81252 -12.18748,2.18752 -4.93752,0.73436 -10.26564,0.73436 -15.59376,0.35936 -4.18748,0 -8.35936,-0.7344 -12.18748,-1.45312 -3.79688,-0.7344 -7.21876,-1.82812 -10.26564,-2.56252 v -5.84376 c 2.67188,1.09376 6.85936,2.18752 9.51564,2.92188 3.81248,0.7344 7.23436,1.09376 11.03124,1.45312 4.20312,0.375 8.375,0.375 12.56248,0.375 3.79688,-0.375 8.375,-0.73436 12.17188,-1.82812 7.6094,-2.18748 15.21876,-3.65624 23.21876,-3.65624 4.18752,0 8.375,0 12.54688,0.73436 3.04688,0.3594 6.85936,1.09376 9.89064,1.82816 8,1.82812 17.5156,3.28124 25.5156,3.28124 4.93752,0 9.875,-0.35936 14.45312,-1.09376 4.56252,-1.09376 9.125,-1.82812 13.68752,-3.28124 v 5.46876 c -3.03124,0.73436 -6.84376,1.46876 -10.65624,2.20312" />
      <path
         fill="#211e1e"
         fill-rule="nonzero"
         id="svg_15"
         d="m 280.53121,304.13279 c -3.40624,0.71876 -6.82812,1.09376 -9.5,1.45312 -10.28124,0.7344 -19.0156,0.7344 -30.82812,-1.82812 -2.28124,-0.35936 -12.56248,-2.54688 -14.84372,-2.92188 -5.31252,-0.73436 -10.64064,-0.73436 -15.96876,0 -4.18752,0.7344 -8.375,1.46876 -12.56252,2.20312 -3.03124,0.71876 -9.125,1.81252 -12.18748,2.18752 -4.93752,0.73436 -10.26564,0.73436 -15.59376,0.35936 -4.18748,0 -8.35936,-0.73436 -12.17188,-1.45312 -3.81248,-0.73436 -7.23436,-1.82812 -10.28124,-2.56248 v -5.84376 c 2.67188,1.09376 6.85936,2.18748 9.53124,2.92188 3.79688,0.73436 7.21876,1.09376 11.03124,1.45312 4.18752,0.375 8.3594,0.375 12.54688,0.375 3.81252,-0.375 8.375,-0.73436 12.17188,-1.82812 7.625,-2.18752 15.21876,-3.65624 23.21876,-3.65624 4.18748,0 8.375,0 12.54688,0.73436 3.06248,0.35936 6.85936,1.09376 9.8906,1.82812 8,1.82812 17.51564,3.28124 25.51564,3.28124 4.93752,0 9.89064,-0.35936 14.45312,-1.09372 4.56252,-1.09376 9.125,-1.82816 13.68752,-3.28128 v 5.46876 c -3.03128,0.73436 -6.84376,1.46876 -10.65628,2.20312" />
    </g>
    <text
       xml:space="default"
       dominant-baseline="middle"
       text-anchor="middle"
       font-family="sans-serif"
       font-size="57px"
       id="svg_28"
       y="447"
       x="220"
       fill="#ffffff">param(text1)</text>
  </g>
</svg>
