<?xml version="1.0" encoding="UTF-8"?>
<svg xmlns="http://www.w3.org/2000/svg" xmlns:xlink="http://www.w3.org/1999/xlink" width="73pt" height="100pt" viewBox="0 0 73 100" version="1.1">
<g id="surface1">
<path style=" stroke:none;fill-rule:nonzero;fill:rgb(100%,100%,100%);fill-opacity:1;" d="M 1.050781 99.8125 L 71.914062 99.8125 L 71.914062 0.605469 L 1.050781 0.605469 Z M 1.050781 99.8125 "/>
<path style="fill:none;stroke-width:2.835;stroke-linecap:butt;stroke-linejoin:miter;stroke:rgb(13.729858%,12.159729%,12.548828%);stroke-opacity:1;stroke-miterlimit:4;" d="M 10.507812 1.875 L 719.140625 1.875 L 719.140625 993.945312 L 10.507812 993.945312 L 10.507812 1.875 " transform="matrix(0.1,0,0,-0.1,0,100)"/>
<path style=" stroke:none;fill-rule:nonzero;fill:rgb(10.112%,40.585327%,73.280334%);fill-opacity:1;" d="M 2.46875 98.394531 L 70.5 98.394531 L 70.5 2.019531 L 2.46875 2.019531 Z M 2.46875 98.394531 "/>
<path style=" stroke:none;fill-rule:nonzero;fill:rgb(100%,100%,100%);fill-opacity:1;" d="M 41.277344 68.148438 L 41.277344 72.746094 L 49.160156 72.746094 L 49.160156 77.425781 L 63.414062 77.421875 L 63.414062 82.097656 L 44.988281 82.097656 L 44.988281 77.421875 L 36.972656 77.421875 L 36.972656 72.746094 L 29.054688 72.746094 L 29.054688 68.074219 L 21.195312 68.066406 L 21.195312 63.394531 L 10.96875 63.394531 L 10.96875 58.71875 L 24.007812 58.71875 L 24.007812 63.390625 L 33.402344 63.386719 L 33.402344 68.074219 L 35.984375 68.074219 C 35.984375 67.753906 35.988281 67.332031 36.011719 66.835938 C 36.019531 66.75 36.042969 66.679688 36.089844 66.621094 C 36.128906 66.558594 36.179688 66.496094 36.234375 66.441406 C 36.359375 66.316406 36.503906 66.183594 36.589844 66.039062 C 36.691406 65.855469 36.675781 65.652344 36.585938 65.433594 C 36.507812 65.246094 36.269531 65 36.308594 64.703125 L 38.980469 57.019531 C 39.078125 56.785156 39.167969 56.546875 39.242188 56.308594 C 39.328125 56 39.320312 55.679688 39.28125 55.363281 C 39.105469 54.246094 39.078125 53.078125 38.816406 52.03125 C 38.738281 51.742188 38.625 51.402344 38.34375 51.449219 C 38.140625 51.484375 38.140625 51.78125 38.121094 51.976562 C 38.054688 52.535156 38.039062 53.105469 37.894531 53.621094 C 37.746094 54.082031 37.28125 54.421875 36.863281 54.820312 L 31.046875 59.441406 C 30.953125 59.492188 30.847656 59.546875 30.726562 59.546875 C 30.550781 59.546875 30.539062 59.484375 30.464844 59.460938 C 30.265625 59.40625 30.023438 59.496094 30.023438 59.675781 C 30.023438 59.796875 30.082031 59.902344 30.152344 60 C 30.488281 60.425781 30.753906 60.820312 31.023438 61.214844 C 31.195312 61.457031 31.492188 61.921875 31.652344 62.105469 C 31.90625 62.40625 32 63.035156 31.664062 63.246094 C 31.113281 63.585938 30.292969 63.195312 30.054688 62.96875 L 29.007812 61.816406 C 28.839844 61.679688 28.324219 61.035156 28.1875 60.796875 C 28.066406 60.585938 27.949219 60.015625 27.859375 59.867188 C 27.804688 59.796875 27.625 59.734375 27.617188 59.734375 C 27.59375 59.730469 27.265625 59.671875 27.175781 59.636719 L 25.835938 58.421875 C 25.9375 58.269531 26.070312 58.054688 26.242188 57.882812 C 26.296875 57.828125 26.367188 57.777344 26.441406 57.734375 C 26.511719 57.707031 26.613281 57.664062 26.691406 57.644531 C 26.796875 57.605469 26.910156 57.574219 27.007812 57.554688 C 27.210938 57.496094 27.398438 57.386719 27.511719 57.234375 C 27.597656 57.140625 27.683594 56.992188 27.765625 56.875 L 33.96875 51.398438 C 33.933594 50.246094 33.484375 48.878906 33.171875 47.601562 C 33.007812 46.90625 32.886719 46.199219 32.863281 45.480469 C 32.855469 44.875 33.121094 44.285156 33.03125 43.671875 C 32.980469 43.316406 32.660156 43.078125 32.496094 42.855469 L 34.210938 34.3125 C 34.21875 34.210938 34.199219 34.105469 34.121094 34.039062 C 33.980469 33.933594 33.820312 34.097656 33.726562 34.234375 C 33.464844 34.640625 33.246094 35.121094 33.046875 35.460938 C 32.234375 36.820312 31.90625 38.347656 31.539062 39.867188 C 31.433594 40.308594 31.398438 40.789062 31.226562 41.167969 C 31.167969 41.300781 31.011719 41.363281 30.863281 41.394531 C 30.699219 41.429688 30.527344 41.433594 30.367188 41.429688 C 30.261719 41.617188 30.152344 41.851562 30.1875 42.023438 C 30.316406 42.597656 30.332031 42.921875 30.09375 43.265625 C 29.820312 43.65625 29.480469 43.992188 29.101562 44.292969 C 28.878906 44.480469 28.5625 44.582031 28.273438 44.503906 C 28.109375 44.457031 27.949219 44.351562 27.917969 44.195312 C 27.859375 43.851562 27.800781 43.507812 27.738281 43.160156 C 27.679688 42.765625 27.800781 42.351562 28.195312 42.089844 C 28.324219 42.007812 28.453125 41.90625 28.496094 41.773438 C 28.542969 41.59375 28.414062 41.347656 28.351562 41.171875 C 28.09375 40.476562 28.363281 39.699219 28.539062 38.917969 C 28.921875 37.136719 29.050781 35.289062 29.785156 33.578125 C 30.359375 32.226562 31.308594 31.023438 32.195312 29.796875 C 32.835938 28.917969 33.511719 28.050781 34.25 27.230469 C 34.90625 26.503906 35.730469 25.914062 36.703125 25.585938 C 37.492188 25.359375 38.46875 25.347656 39.074219 24.859375 C 39.574219 24.457031 39.550781 23.765625 39.351562 23.214844 C 39.261719 22.949219 39.085938 22.703125 38.882812 22.503906 C 38.554688 22.140625 38.324219 21.714844 38.203125 21.261719 C 38.070312 20.8125 38.046875 20.347656 37.957031 19.898438 C 37.917969 19.675781 37.789062 19.46875 37.574219 19.347656 C 37.367188 19.226562 37.117188 19.230469 36.820312 19.277344 C 36.636719 19.332031 36.355469 19.398438 36.203125 19.320312 C 35.816406 19.1875 36 18.710938 36.539062 18.648438 C 36.9375 18.597656 37.273438 18.550781 37.523438 18.367188 C 37.800781 18.140625 37.742188 17.664062 37.789062 17.308594 C 37.832031 17.003906 37.992188 16.710938 38.234375 16.492188 C 38.566406 16.199219 39.078125 16.152344 39.558594 16.152344 C 39.902344 16.136719 40.273438 16.171875 40.613281 16.09375 C 41.234375 15.9375 42.070312 15.550781 42.53125 15.808594 C 42.835938 15.972656 42.980469 16.265625 43.074219 16.550781 C 43.195312 16.957031 43.238281 17.417969 43.558594 17.734375 C 43.792969 17.957031 44.171875 17.917969 44.511719 17.878906 C 44.730469 17.847656 44.984375 17.839844 45.179688 17.941406 C 45.296875 17.996094 45.332031 18.136719 45.304688 18.253906 C 45.257812 18.449219 45.023438 18.585938 44.796875 18.640625 C 44.550781 18.710938 44.320312 18.726562 44.105469 18.789062 C 43.738281 18.929688 43.679688 19.347656 43.757812 19.671875 C 43.824219 19.90625 43.925781 20.132812 44.070312 20.347656 C 44.199219 20.542969 44.320312 20.738281 44.445312 20.945312 C 44.5 21.058594 44.566406 21.191406 44.492188 21.328125 C 44.425781 21.507812 44.203125 21.570312 44.132812 21.730469 C 44.066406 21.910156 44.074219 22.101562 44.105469 22.285156 L 43.714844 22.359375 L 43.921875 22.492188 C 44.070312 22.617188 43.972656 22.800781 43.960938 22.957031 C 43.9375 23.148438 43.972656 23.367188 43.886719 23.558594 C 43.820312 23.699219 43.710938 23.746094 43.597656 23.785156 C 43.3125 23.882812 43.023438 23.898438 42.769531 24.007812 C 42.582031 24.082031 42.46875 24.265625 42.429688 24.449219 C 42.40625 24.539062 42.398438 24.636719 42.402344 24.726562 C 42.410156 25.226562 42.648438 25.683594 42.980469 26.070312 C 43.214844 26.296875 43.46875 26.519531 43.6875 26.75 C 43.847656 26.921875 43.96875 27.121094 44.042969 27.335938 C 44.109375 27.53125 44.15625 27.734375 44.1875 27.941406 C 44.214844 28.136719 44.246094 28.34375 44.265625 28.550781 C 44.3125 28.964844 44.355469 29.382812 44.394531 29.792969 C 44.421875 30.136719 44.445312 30.472656 44.464844 30.820312 C 44.476562 31.074219 44.484375 31.332031 44.484375 31.589844 C 44.484375 31.625 44.484375 31.664062 44.484375 31.703125 C 44.480469 31.804688 44.476562 31.949219 44.476562 32.054688 C 44.472656 32.128906 44.472656 32.210938 44.46875 32.285156 C 44.464844 32.488281 44.460938 32.695312 44.457031 32.898438 C 44.457031 33 44.457031 33.101562 44.457031 33.207031 C 44.460938 33.371094 44.46875 33.539062 44.476562 33.710938 C 44.488281 33.859375 44.503906 34.011719 44.527344 34.167969 C 44.546875 34.328125 44.582031 34.496094 44.628906 34.65625 C 44.667969 34.800781 44.722656 34.941406 44.789062 35.082031 C 44.84375 35.195312 44.902344 35.308594 44.96875 35.417969 C 45.074219 35.601562 45.1875 35.777344 45.304688 35.945312 L 49.242188 41.492188 L 49.109375 42.058594 C 49.160156 42.152344 49.21875 42.246094 49.273438 42.332031 C 49.304688 42.375 49.335938 42.417969 49.367188 42.464844 C 49.375 42.476562 49.386719 42.488281 49.394531 42.496094 C 49.417969 42.527344 49.449219 42.566406 49.476562 42.589844 C 49.492188 42.613281 49.515625 42.632812 49.53125 42.65625 C 49.601562 42.734375 49.667969 42.816406 49.730469 42.894531 C 49.765625 42.9375 49.789062 42.980469 49.816406 43.027344 C 49.871094 43.140625 49.90625 43.257812 49.921875 43.378906 C 49.941406 43.535156 49.9375 43.691406 49.90625 43.847656 C 49.867188 44.058594 49.792969 44.265625 49.679688 44.457031 C 49.578125 44.636719 49.441406 44.792969 49.269531 44.929688 C 49.113281 45.058594 48.933594 45.160156 48.742188 45.238281 C 48.582031 45.296875 48.410156 45.332031 48.238281 45.335938 C 48.117188 45.335938 48.007812 45.3125 47.898438 45.285156 C 47.824219 45.261719 47.75 45.230469 47.691406 45.183594 C 47.644531 45.148438 47.601562 45.105469 47.574219 45.054688 C 47.535156 44.984375 47.507812 44.914062 47.480469 44.839844 C 47.457031 44.746094 47.441406 44.65625 47.449219 44.554688 C 47.457031 44.46875 47.472656 44.378906 47.515625 44.289062 C 47.519531 44.277344 47.527344 44.261719 47.535156 44.246094 C 47.550781 44.214844 47.566406 44.179688 47.585938 44.148438 C 47.597656 44.132812 47.601562 44.105469 47.617188 44.089844 C 47.640625 44.050781 47.65625 44.011719 47.679688 43.96875 C 47.695312 43.953125 47.703125 43.929688 47.707031 43.910156 C 47.738281 43.839844 47.753906 43.773438 47.753906 43.699219 C 47.753906 43.636719 47.742188 43.570312 47.71875 43.507812 C 47.699219 43.457031 47.65625 43.402344 47.609375 43.363281 C 47.550781 43.324219 47.484375 43.289062 47.414062 43.273438 C 47.339844 43.25 47.261719 43.242188 47.1875 43.246094 C 47.101562 43.253906 47.019531 43.269531 46.945312 43.292969 C 46.910156 43.304688 46.871094 43.320312 46.839844 43.328125 C 46.796875 43.347656 46.757812 43.363281 46.714844 43.382812 L 44.289062 40.144531 C 44.257812 40.101562 44.214844 40.0625 44.179688 40.03125 C 44.15625 40.007812 44.121094 39.980469 44.09375 39.960938 C 44.054688 39.9375 44.019531 39.921875 43.972656 39.917969 C 43.925781 39.910156 43.890625 39.914062 43.847656 39.921875 C 43.824219 39.929688 43.796875 39.941406 43.785156 39.957031 C 43.753906 39.972656 43.730469 39.996094 43.710938 40.015625 C 43.6875 40.042969 43.667969 40.074219 43.65625 40.101562 C 43.640625 40.132812 43.632812 40.164062 43.628906 40.199219 C 43.621094 40.234375 43.621094 40.273438 43.613281 40.316406 C 43.613281 40.371094 43.613281 40.421875 43.621094 40.46875 L 43.851562 44.253906 C 43.847656 44.300781 43.84375 44.351562 43.835938 44.402344 C 43.832031 44.4375 43.820312 44.472656 43.808594 44.511719 C 43.792969 44.5625 43.765625 44.621094 43.730469 44.671875 C 43.707031 44.710938 43.664062 44.742188 43.621094 44.769531 C 43.539062 44.820312 43.445312 44.859375 43.347656 44.882812 C 43.191406 44.910156 43.027344 44.925781 42.871094 44.925781 C 42.773438 44.925781 42.675781 44.925781 42.582031 44.929688 C 42.410156 44.933594 42.234375 44.9375 42.0625 44.945312 C 42.058594 44.96875 42.046875 44.992188 42.042969 45.015625 C 42.042969 45.03125 42.039062 45.050781 42.035156 45.066406 C 42.027344 45.101562 42.023438 45.128906 42.023438 45.15625 C 42.019531 45.179688 42.023438 45.203125 42.023438 45.226562 C 42.027344 45.265625 42.039062 45.300781 42.042969 45.34375 C 42.066406 45.414062 42.085938 45.480469 42.109375 45.546875 C 42.117188 45.574219 42.121094 45.597656 42.128906 45.617188 C 42.148438 45.679688 42.171875 45.765625 42.191406 45.832031 C 42.203125 45.878906 42.21875 45.921875 42.226562 45.96875 C 42.25 46.050781 42.273438 46.132812 42.292969 46.214844 C 42.304688 46.253906 42.320312 46.296875 42.332031 46.335938 C 42.339844 46.375 42.355469 46.410156 42.363281 46.445312 C 42.402344 46.546875 42.453125 46.691406 42.484375 46.792969 C 42.511719 46.867188 42.535156 46.941406 42.5625 47.019531 C 42.640625 47.226562 42.710938 47.433594 42.78125 47.644531 C 42.816406 47.753906 42.847656 47.859375 42.878906 47.964844 C 42.914062 48.09375 42.949219 48.230469 42.976562 48.367188 C 43.050781 48.695312 43.109375 49.019531 43.171875 49.347656 C 43.195312 49.457031 43.214844 49.5625 43.238281 49.667969 C 43.273438 49.882812 43.316406 50.09375 43.351562 50.300781 L 43.773438 54.683594 C 43.816406 55.164062 43.914062 55.652344 43.890625 56.140625 C 43.878906 56.320312 43.847656 56.511719 43.808594 56.675781 L 41.105469 65.316406 C 41.046875 65.503906 40.796875 65.578125 40.789062 65.585938 C 40.667969 65.664062 40.421875 65.722656 40.398438 65.90625 C 40.332031 66.234375 40.902344 66.445312 41.308594 66.621094 C 42.125 66.949219 43.574219 66.984375 43.238281 67.828125 C 43.082031 68.230469 42.378906 68.082031 41.894531 68.160156 L 41.277344 68.148438 "/>
</g>
</svg>
