<?xml version="1.0" encoding="UTF-8"?>
<svg xmlns="http://www.w3.org/2000/svg" xmlns:xlink="http://www.w3.org/1999/xlink" width="72pt" height="100pt" viewBox="0 0 72 100" version="1.1">
<g id="surface1">
<path style=" stroke:none;fill-rule:nonzero;fill:rgb(100%,100%,100%);fill-opacity:1;" d="M 0.359375 99.660156 L 71.222656 99.660156 L 71.222656 0.453125 L 0.359375 0.453125 Z M 0.359375 99.660156 "/>
<path style="fill:none;stroke-width:2.835;stroke-linecap:butt;stroke-linejoin:miter;stroke:rgb(13.729858%,12.159729%,12.548828%);stroke-opacity:1;stroke-miterlimit:4;" d="M 3.59375 3.398438 L 712.226562 3.398438 L 712.226562 995.46875 L 3.59375 995.46875 L 3.59375 3.398438 " transform="matrix(0.1,0,0,-0.1,0,100)"/>
<path style=" stroke:none;fill-rule:nonzero;fill:rgb(10.112%,40.585327%,73.280334%);fill-opacity:1;" d="M 1.777344 98.242188 L 69.808594 98.242188 L 69.808594 1.867188 L 1.777344 1.867188 Z M 1.777344 98.242188 "/>
<path style=" stroke:none;fill-rule:nonzero;fill:rgb(100%,100%,100%);fill-opacity:1;" d="M 38.703125 66.234375 C 38.703125 66.234375 38.878906 66.59375 39.128906 66.5 C 39.367188 66.414062 41.058594 65.464844 41.058594 65.464844 C 41.058594 65.464844 41.230469 65.226562 41.113281 64.867188 C 40.992188 64.515625 40.667969 63.734375 40.484375 63.5 C 40.484375 63.5 41.175781 63.296875 40.992188 62.816406 C 40.820312 62.339844 39.421875 57.972656 39.246094 57.054688 C 39.0625 56.136719 38.671875 53.789062 39.246094 51.378906 C 39.820312 48.964844 40.363281 44.066406 40.210938 42.488281 C 40.210938 42.488281 40.300781 42.316406 40.539062 42.316406 C 40.785156 42.316406 41.175781 42.402344 41.230469 41.78125 C 41.296875 41.152344 41.625 38.734375 40.058594 35.421875 C 39.453125 34.140625 39.574219 31.109375 39.421875 30.277344 C 39.421875 30.277344 39.421875 29.925781 39.703125 30.246094 C 39.972656 30.578125 41.265625 31.441406 41.75 33.542969 C 42.230469 35.65625 42.746094 37.972656 42.746094 38.304688 C 42.746094 38.625 42.921875 38.75 43.171875 38.75 C 43.410156 38.75 43.714844 38.835938 43.53125 39.253906 C 43.347656 39.667969 43.019531 40.289062 43.324219 41.066406 C 43.617188 41.835938 44.257812 41.898438 44.832031 41.6875 C 45.40625 41.484375 46.035156 40.917969 45.589844 40.054688 C 45.132812 39.191406 44.613281 38.773438 44.886719 38.484375 C 45.15625 38.183594 45.523438 38.507812 45.308594 37.621094 C 45.101562 36.726562 44.496094 32.242188 44.074219 31.109375 C 43.648438 29.980469 43.226562 29.476562 42.53125 28.761719 C 41.839844 28.046875 39.789062 25.699219 39.214844 24.960938 C 38.640625 24.214844 37.21875 23.445312 36.34375 23.117188 C 35.472656 22.785156 35.140625 22.371094 35.171875 21.601562 C 35.203125 20.832031 35.648438 20.886719 35.953125 20.707031 C 36.257812 20.535156 36.949219 19.789062 37.164062 19.167969 C 37.164062 19.167969 37.21875 18.894531 37.4375 19.042969 C 37.644531 19.191406 38.304688 18.867188 37.914062 18.570312 C 37.523438 18.273438 37.675781 18.335938 37.828125 17.738281 C 37.976562 17.140625 38.183594 16.277344 37.4375 15.6875 C 36.679688 15.09375 35.289062 14.792969 34.78125 14.347656 C 34.261719 13.90625 33.328125 14.078125 33.058594 14.472656 C 32.785156 14.855469 32.359375 15.488281 32.121094 15.785156 C 31.882812 16.085938 31.785156 16.292969 31.496094 16.164062 C 31.195312 16.164062 30.832031 15.894531 30.703125 16.265625 C 30.625 16.519531 31.007812 16.632812 31.214844 16.757812 C 31.421875 16.863281 31.839844 16.816406 31.632812 17.230469 C 31.386719 17.660156 31.679688 17.671875 31.3125 18.492188 C 31.15625 18.824219 30.945312 19.203125 31.253906 19.363281 C 31.558594 19.410156 31.277344 20.757812 31.789062 21.121094 C 32.210938 21.335938 32.632812 21.21875 32.601562 21.6875 C 32.570312 22.167969 32.722656 22.339844 32.179688 22.636719 C 31.636719 22.9375 30.011719 23.917969 29.46875 24.546875 C 28.917969 25.167969 28.46875 26.476562 28.351562 27.601562 C 28.222656 28.730469 27.929688 31.261719 27.679688 32.007812 C 27.441406 32.742188 27.53125 33.339844 25.988281 34.644531 C 24.449219 35.957031 23.367188 37.503906 23.15625 37.738281 C 22.941406 37.972656 22.886719 38.183594 23.03125 38.484375 C 23.183594 38.773438 23.03125 38.890625 22.886719 39.019531 C 22.734375 39.136719 21.585938 39.9375 21.492188 40.414062 C 21.402344 40.886719 21.042969 42.074219 21.585938 42.253906 C 22.128906 42.433594 22.609375 42.820312 23.515625 41.867188 C 24.425781 40.917969 23.757812 40.023438 24.363281 40.117188 C 24.96875 40.203125 25.144531 40.265625 25.695312 39.605469 C 26.238281 38.957031 28.222656 37.375 28.765625 36.667969 C 29.316406 35.957031 30.160156 34.886719 30.855469 33.011719 C 30.855469 33.011719 31.636719 36.550781 31.453125 37.203125 C 31.277344 37.855469 31.0625 40.351562 30.976562 40.800781 C 30.878906 41.238281 31.152344 41.066406 31.300781 41.121094 C 31.453125 41.183594 31.757812 41.335938 31.300781 41.78125 C 30.855469 42.222656 27.746094 45.046875 26.988281 45.847656 C 26.238281 46.648438 25.238281 47.578125 25.664062 48.996094 C 26.085938 50.425781 27.257812 55.65625 27.355469 56.488281 C 27.441406 57.320312 27.953125 60.289062 28.621094 60.234375 C 29.285156 60.171875 29.914062 60.382812 29.285156 60.769531 C 28.644531 61.152344 27.503906 61.71875 26.78125 61.898438 C 26.054688 62.070312 25.082031 62.253906 25.113281 63.234375 L 23.320312 63.234375 L 23.320312 58.566406 L 10.28125 58.566406 L 10.28125 63.242188 L 20.503906 63.242188 L 20.503906 67.910156 L 28.367188 67.917969 L 28.367188 72.59375 L 36.285156 72.59375 L 36.285156 77.269531 L 44.300781 77.269531 L 44.300781 81.945312 L 62.726562 81.945312 L 62.726562 77.269531 L 48.46875 77.273438 L 48.46875 72.59375 L 40.585938 72.59375 L 40.585938 67.996094 L 36.160156 68 C 36.085938 68.078125 38.183594 66.769531 38.703125 66.234375 "/>
<path style=" stroke:none;fill-rule:nonzero;fill:rgb(10.112%,40.585327%,73.280334%);fill-opacity:1;" d="M 30.742188 62.601562 L 30.808594 63.03125 L 32.457031 62.664062 L 32.414062 62.390625 C 32.382812 62.199219 32.511719 62.128906 32.5 61.914062 C 32.554688 61.527344 32.027344 60.671875 32.359375 60.640625 C 32.695312 60.609375 32.566406 60.414062 32.597656 59.765625 C 32.628906 59.113281 31.773438 55.925781 30.503906 51.402344 C 30.503906 51.402344 30.351562 50.984375 30.957031 50.453125 C 31.566406 49.917969 33.582031 48.167969 33.886719 48.019531 C 34.1875 47.867188 34.308594 48.136719 34.277344 48.371094 C 34.246094 48.613281 33.796875 50.484375 33.855469 52.714844 C 33.917969 54.945312 34.761719 59.605469 35.089844 60.558594 C 35.425781 61.507812 35.882812 64.050781 35.972656 64.289062 C 36.058594 64.523438 36.203125 64.761719 36.378906 64.667969 C 36.5625 64.582031 36.929688 64.789062 36.539062 65.175781 C 36.148438 65.566406 35.773438 65.785156 35.199219 65.933594 C 34.625 66.082031 33.441406 66.425781 33.503906 67.761719 L 33.539062 67.929688 L 32.707031 67.929688 L 32.714844 63.316406 L 29.394531 63.320312 C 30.109375 63.054688 30.242188 63.042969 30.539062 62.832031 L 30.742188 62.601562 "/>
</g>
</svg>
