<?xml version="1.0" encoding="UTF-8" standalone="no"?>
<svg
   xmlns:dc="http://purl.org/dc/elements/1.1/"
   xmlns:cc="http://creativecommons.org/ns#"
   xmlns:rdf="http://www.w3.org/1999/02/22-rdf-syntax-ns#"
   xmlns:svg="http://www.w3.org/2000/svg"
   xmlns="http://www.w3.org/2000/svg"
   xmlns:sodipodi="http://sodipodi.sourceforge.net/DTD/sodipodi-0.dtd"
   xmlns:inkscape="http://www.inkscape.org/namespaces/inkscape"
   width="73"
   height="100"
   version="1.1"
   id="svg245"
   sodipodi:docname="422.svg"
   inkscape:version="1.0.2 (e86c870879, 2021-01-15, custom)">
  <metadata
     id="metadata251">
    <rdf:RDF>
      <cc:Work
         rdf:about="">
        <dc:format>image/svg+xml</dc:format>
        <dc:type
           rdf:resource="http://purl.org/dc/dcmitype/StillImage" />
        <dc:title></dc:title>
      </cc:Work>
    </rdf:RDF>
  </metadata>
  <defs
     id="defs249" />
  <sodipodi:namedview
     pagecolor="#ffffff"
     bordercolor="#666666"
     borderopacity="1"
     objecttolerance="10"
     gridtolerance="10"
     guidetolerance="10"
     inkscape:pageopacity="0"
     inkscape:pageshadow="2"
     inkscape:window-width="1920"
     inkscape:window-height="1017"
     id="namedview247"
     showgrid="false"
     inkscape:zoom="2.8333333"
     inkscape:cx="70.906086"
     inkscape:cy="85.916679"
     inkscape:window-x="3832"
     inkscape:window-y="-8"
     inkscape:window-maximized="1"
     inkscape:current-layer="svg245" />
  <!-- Created with Method Draw - http://github.com/duopixel/Method-Draw/ -->
  <g
     id="g230">
    <title
       id="title224">background</title>
    <rect
       fill="#ffffff"
       opacity="0"
       id="canvas_background"
       height="602"
       width="440"
       y="-1"
       x="-1" />
    <g
       display="none"
       overflow="visible"
       y="0"
       x="0"
       height="100%"
       width="100%"
       id="canvasGrid">
      <rect
         fill="url(#gridpattern)"
         stroke-width="0"
         y="0"
         x="0"
         height="100%"
         width="100%"
         id="rect227" />
    </g>
  </g>
  <g
     id="g243"
     transform="matrix(0.24617987,0,0,0.24617987,-17.352856,-23.221756)">
    <title
       id="title232">Layer 1</title>
    <metadata
       transform="matrix(4,0,0,4,0,0) "
       id="svg_17">image/svg+xml</metadata>
    <g
       id="svg_19">
      <path
         fill="#ffffff"
         fill-rule="nonzero"
         id="svg_16"
         d="M 77.26561,498.42967 H 360.73437 V 101.57031 H 77.26561 Z m 0,0" />
      <path
         fill="none"
         stroke="#211e1e"
         stroke-width="0.2835"
         stroke-miterlimit="4"
         id="svg_15"
         d="M 77.26561,498.42967 H 360.73437 V 101.57031 H 77.26561 v 396.85936" />
      <path
         fill="#1966ba"
         fill-rule="nonzero"
         id="svg_14"
         d="M 355.10937,492.74219 H 82.93749 V 107.22655 h 272.17188 v 385.51564" />
      <path
         fill="#ffffff"
         fill-rule="nonzero"
         id="svg_13"
         d="m 170.81249,314.17967 v -175.75 h 87.53124 c 8.53124,0 14.59376,3.17188 19.06248,7.92188 4.34376,4.46876 6.78128,9.79688 6.78128,16.84376 v 62.67188 c -0.14064,6.34372 -3.01564,12.25 -7.5,16.70312 -4.46876,4.32812 -11.28128,7.06248 -17.625,7.06248 h -56.18752 v 64.54688 h -32.06248" />
      <path
         fill="#ffffff"
         fill-rule="nonzero"
         id="svg_12"
         d="m 312.07809,467.24219 v -38.875 c 0,-0.71876 -0.14064,-2.89064 -0.28124,-3.45316 -0.85936,-8.35936 -3.31248,-16.42184 -7.20312,-23.7656 -3.31252,-6.32812 -7.48436,-12.2344 -12.67188,-17.28124 -4.89064,-4.89064 -10.65624,-9.07816 -16.84376,-12.39064 -7.92188,-4.31252 -16.28124,-7.32812 -26.78124,-7.32812 h -23.48436 l 8.21872,-24.21876 c 0,-3.45312 -0.14064,-3.89064 -1.57812,-5.03124 -1.59372,-1.15624 -4.46872,-1.57812 -5.34372,0.14064 l -53.14064,38.03124 c -2.01564,1.01564 -2.15624,2.59376 -2.15624,3.89064 0.14064,1.29688 1.29688,2.73436 2.43748,3.8906 l 52.57812,37.29688 c 1.57812,1.14064 3.75,1.57812 5.32812,0.28124 1.29688,-1 1.59376,-3.0156 1.59376,-4.60936 l -7.93748,-24.34376 h 20.75 c 5.60936,0 11.07812,1.875 16.125,4.18752 4.45312,2.0156 8.6406,4.8906 12.23436,8.34372 3.89064,3.75 6.92188,8.07812 9.07812,12.96876 1.7344,4.17188 2.875,8.78124 3.45312,13.25 0,0.42188 0.14064,2.29688 0.14064,2.73436 v 36.28128 h 25.4844" />
      <path
         fill="#1966ba"
         fill-rule="nonzero"
         id="svg_11"
         d="m 202.85937,223.27343 v -58.18752 h 39.1406 c 2.6094,0 6.21876,0.71876 7.95312,2.59376 1.875,1.73436 2.89064,4.17188 2.75,6.76564 l -0.29688,39.04688 c 0,2.59372 -1.15624,5.18748 -3.03124,7.04684 -1.875,1.875 -4.625,2.7344 -7.375,2.7344 h -39.14064" />
    </g>
    <text
       xml:space="preserve"
       text-anchor="start"
       font-family="sans-serif"
       font-size="50px"
       id="svg_20"
       y="472"
       x="102.5"
       fill="#ffffff">param(text1)</text>
  </g>
</svg>
