<?xml version="1.0" encoding="UTF-8" standalone="no"?>
<svg
   xmlns:dc="http://purl.org/dc/elements/1.1/"
   xmlns:cc="http://creativecommons.org/ns#"
   xmlns:rdf="http://www.w3.org/1999/02/22-rdf-syntax-ns#"
   xmlns:svg="http://www.w3.org/2000/svg"
   xmlns="http://www.w3.org/2000/svg"
   xmlns:sodipodi="http://sodipodi.sourceforge.net/DTD/sodipodi-0.dtd"
   xmlns:inkscape="http://www.inkscape.org/namespaces/inkscape"
   width="73"
   height="100"
   version="1.1"
   id="svg539"
   sodipodi:docname="423.svg"
   inkscape:version="1.0.2 (e86c870879, 2021-01-15, custom)">
  <metadata
     id="metadata545">
    <rdf:RDF>
      <cc:Work
         rdf:about="">
        <dc:format>image/svg+xml</dc:format>
        <dc:type
           rdf:resource="http://purl.org/dc/dcmitype/StillImage" />
        <dc:title></dc:title>
      </cc:Work>
    </rdf:RDF>
  </metadata>
  <defs
     id="defs543" />
  <sodipodi:namedview
     pagecolor="#ffffff"
     bordercolor="#666666"
     borderopacity="1"
     objecttolerance="10"
     gridtolerance="10"
     guidetolerance="10"
     inkscape:pageopacity="0"
     inkscape:pageshadow="2"
     inkscape:window-width="1920"
     inkscape:window-height="1017"
     id="namedview541"
     showgrid="false"
     inkscape:zoom="4.0069384"
     inkscape:cx="61.038278"
     inkscape:cy="18.45871"
     inkscape:window-x="3832"
     inkscape:window-y="-8"
     inkscape:window-maximized="1"
     inkscape:current-layer="svg539" />
  <!-- Created with Method Draw - http://github.com/duopixel/Method-Draw/ -->
  <g
     id="g519">
    <title
       id="title513">background</title>
    <rect
       fill="#ffffff"
       opacity="0"
       id="canvas_background"
       height="602"
       width="440"
       y="-1"
       x="-1" />
    <g
       display="none"
       overflow="visible"
       y="0"
       x="0"
       height="100%"
       width="100%"
       id="canvasGrid">
      <rect
         fill="url(#gridpattern)"
         stroke-width="0"
         y="0"
         x="0"
         height="100%"
         width="100%"
         id="rect516" />
    </g>
  </g>
  <g
     id="g537"
     transform="matrix(0.24869683,0,0,0.24869683,-18.174565,-24.122376)">
    <title
       id="title521">Layer 1</title>
    <metadata
       transform="matrix(4,0,0,4,0,0) "
       id="svg_27">image/svg+xml</metadata>
    <g
       id="svg_29">
      <path
         fill="#ffffff"
         fill-rule="nonzero"
         id="svg_26"
         d="M 77.26561,498.42967 H 360.73437 V 101.57031 H 77.26561 Z m 0,0" />
      <path
         fill="none"
         stroke="#211e1e"
         stroke-width="0.2835"
         stroke-miterlimit="4"
         id="svg_25"
         d="M 77.26561,498.42967 H 360.73437 V 101.57031 H 77.26561 v 396.85936" />
      <path
         fill="#1966ba"
         fill-rule="nonzero"
         id="svg_24"
         d="M 355.10937,492.74219 H 82.93749 V 107.22655 h 272.17188 v 385.51564" />
      <path
         fill="#ffffff"
         fill-rule="nonzero"
         id="svg_23"
         d="m 312.07809,467.24219 v -38.875 c 0,-0.71876 -0.14064,-2.89064 -0.28124,-3.45316 -0.85936,-8.35936 -3.31248,-16.42184 -7.20312,-23.7656 -3.31252,-6.32812 -7.48436,-12.2344 -12.67188,-17.28124 -4.89064,-4.89064 -10.65624,-9.07816 -16.84376,-12.39064 -7.92188,-4.31252 -16.28124,-7.32812 -26.78124,-7.32812 h -23.48436 l 8.21872,-24.21876 c 0,-3.45312 -0.14064,-3.89064 -1.57812,-5.03124 -1.59372,-1.15624 -4.46872,-1.57812 -5.34372,0.14064 l -53.14064,38.03124 c -2.01564,1.01564 -2.15624,2.59376 -2.15624,3.89064 0.14064,1.29688 1.29688,2.73436 2.43748,3.8906 l 52.57812,37.29688 c 1.57812,1.14064 3.75,1.57812 5.32812,0.28124 1.29688,-1 1.59376,-3.0156 1.59376,-4.60936 l -7.93748,-24.34376 h 20.75 c 5.60936,0 11.07812,1.875 16.125,4.18752 4.45312,2.0156 8.6406,4.8906 12.23436,8.34372 3.89064,3.75 6.92188,8.07812 9.07812,12.96876 1.7344,4.17188 2.875,8.78124 3.45312,13.25 0,0.42188 0.14064,2.29688 0.14064,2.73436 v 36.28128 h 25.4844" />
      <path
         fill="#ffffff"
         fill-rule="nonzero"
         id="svg_22"
         d="m 148.37497,230.22655 c 10.04688,0 18.03124,8.06248 18.03124,17.625 0.25,9.81248 -7.73436,18.125 -18.03124,18.125 -10.06248,0 -18.04688,-8.04688 -18.04688,-18.125 0,-9.56252 8.25,-17.625 18.04688,-17.625" />
      <path
         fill="#ffffff"
         fill-rule="nonzero"
         id="svg_21"
         d="m 276.93749,230.22655 c 10.31248,0 18.82812,8.29688 18.56248,18.375 -0.26564,9.56248 -8.5156,17.10936 -18.29688,17.10936 -10.06248,0 -18.29688,-7.54688 -18.56248,-17.35936 -0.25,-9.82812 8,-18.125 18.29688,-18.125" />
      <path
         fill="#ffffff"
         fill-rule="nonzero"
         id="svg_20"
         d="m 323.89061,227.94531 h -28.8594 l 2.57816,3.28124 23.70312,0.5 v 6.54688 l -17.26564,6.04688 c 0,0.25 0.26564,4.03124 0.26564,4.28124 h -4.64064 c 0,-0.25 0,-0.75 0,-0.75 -1.03124,-11.84376 -10.31248,-21.92188 -22.42188,-21.92188 -12.10936,-0.25 -21.90624,9.57812 -22.93748,21.15624 0,0.5 0,1 -0.26564,1.26564 l -83.75,-0.26564 c 0,-0.23436 0,-0.75 0,-1 0.26564,-11.57812 -10.04688,-20.39064 -21.89064,-20.39064 -11.59376,0 -21.39064,9.04688 -21.90624,20.39064 0,0.5 0,1 0,1.26564 h -10.82812 l 0.26564,-2.51564 c -0.26564,-0.26564 -0.76564,-0.26564 -1.29688,-0.76564 -0.51564,-0.5 -0.51564,-1.25 -0.51564,-1.5156 v -2.26564 c 0,-0.25 0,-1.5 0.26564,-1.75 0.25,-0.5 1.01564,-0.5 1.54688,-0.5 h 2.56252 l 2.57812,-24.42188 c 0,-1.0156 0.53124,-2.28124 1.29688,-3.03124 1.03124,-1 3.09376,-1.51564 3.34376,-1.51564 l 3.09372,-0.25 7.7344,-16.10936 c 1.54688,-3.01564 6.70312,-6.54688 11.07812,-6.54688 h 25.25 l -0.25,44.31252 82.71876,0.25 3.09372,-3.28128 -82.98436,-0.23436 0.53124,-61.18748 147.90624,-0.25 v 61.17188" />
      <path
         fill="#1966ba"
         fill-rule="nonzero"
         id="svg_19"
         d="m 148.37497,240.77343 c 4.1094,0 7.46876,3.28124 7.46876,7.06248 0,4.28128 -3.09376,7.56252 -7.21876,7.56252 -4.375,0.23436 -7.73436,-3.28124 -7.73436,-7.32812 0,-4.01564 3.35936,-7.29688 7.48436,-7.29688" />
      <path
         fill="#1966ba"
         fill-rule="nonzero"
         id="svg_18"
         d="m 277.21873,240.53903 c 4.35936,0 7.46876,3.79688 7.20312,8.07816 0,3.7656 -3.35936,6.79684 -7.20312,6.79684 -4.14064,0 -7.48436,-2.7656 -7.73436,-6.79684 -0.26564,-4.28128 3.34372,-8.07816 7.73436,-8.07816" />
      <path
         fill="#1966ba"
         fill-rule="nonzero"
         id="svg_17"
         d="m 149.92185,193.97655 13.15624,0.26564 v 15.84376 l -20.875,-0.23436 7.71876,-15.875" />
      <path
         fill="#1966ba"
         fill-rule="nonzero"
         id="svg_16"
         d="m 139.35937,193.97655 h 5.67184 l -7.46872,16.10936 h -5.42188 l 7.21876,-16.10936" />
    </g>
    <text
       xml:space="preserve"
       text-anchor="start"
       font-family="sans-serif"
       font-size="50px"
       id="svg_30"
       y="470"
       x="103.5"
       fill="#ffffff">param(text1)</text>
  </g>
</svg>
