<?xml version="1.0" encoding="UTF-8"?>
<svg xmlns="http://www.w3.org/2000/svg" xmlns:xlink="http://www.w3.org/1999/xlink" width="73pt" height="100pt" viewBox="0 0 73 100" version="1.1">
<g id="surface1">
<path style=" stroke:none;fill-rule:nonzero;fill:rgb(100%,100%,100%);fill-opacity:1;" d="M 1.085938 99.78125 L 71.953125 99.78125 L 71.953125 0.566406 L 1.085938 0.566406 Z M 1.085938 99.78125 "/>
<path style="fill:none;stroke-width:2.835;stroke-linecap:butt;stroke-linejoin:miter;stroke:rgb(13.729858%,12.159729%,12.548828%);stroke-opacity:1;stroke-miterlimit:4;" d="M 10.859375 2.1875 L 719.53125 2.1875 L 719.53125 994.335938 L 10.859375 994.335938 L 10.859375 2.1875 " transform="matrix(0.1,0,0,-0.1,0,100)"/>
<path style=" stroke:none;fill-rule:nonzero;fill:rgb(10.112%,40.585327%,73.280334%);fill-opacity:1;" d="M 2.503906 98.363281 L 70.535156 98.363281 L 70.535156 1.984375 L 2.503906 1.984375 Z M 2.503906 98.363281 "/>
<path style=" stroke:none;fill-rule:nonzero;fill:rgb(100%,100%,100%);fill-opacity:1;" d="M 38.148438 91.273438 C 38.128906 88.6875 38.207031 77.617188 38.039062 75.578125 C 37.910156 73.316406 37.703125 71.054688 37.363281 68.8125 C 36.75 64.710938 35.757812 60.464844 34.234375 56.613281 C 32.269531 51.667969 29.5625 46.445312 26.941406 41.816406 C 24.890625 38.222656 20.347656 30.378906 18.273438 26.808594 C 15.757812 22.453125 12.695312 17.101562 10.222656 12.75 C 9.628906 11.671875 8.761719 10.128906 8.171875 9.070312 L 27.425781 9.089844 C 27.597656 9.410156 27.871094 9.875 28.0625 10.210938 C 28.90625 11.691406 30.15625 13.847656 31.019531 15.328125 C 31.253906 15.75 31.632812 16.363281 31.867188 16.785156 C 32.796875 18.371094 34.105469 20.675781 35.015625 22.261719 C 36.136719 24.269531 37.804688 27.210938 38.988281 29.195312 C 40.957031 32.515625 44.253906 38.160156 46.050781 41.585938 C 46.875 43.210938 47.742188 45.242188 48.417969 46.953125 C 49.558594 49.808594 50.703125 52.914062 51.566406 55.855469 C 51.925781 57.058594 52.347656 58.625 52.667969 59.847656 C 52.792969 60.398438 53.003906 61.160156 53.152344 61.710938 L 53.109375 42.769531 L 51.503906 42.789062 L 51.503906 15.941406 L 64.855469 15.921875 L 64.863281 42.769531 L 63.132812 42.769531 L 63.1875 91.273438 L 38.148438 91.273438 "/>
<path style=" stroke:none;fill-rule:nonzero;fill:rgb(93.527222%,17.272949%,18.882751%);fill-opacity:1;" d="M 53.144531 41.1875 L 56.539062 41.1875 L 56.539062 37.792969 L 53.144531 37.792969 Z M 53.144531 41.1875 "/>
<path style=" stroke:none;fill-rule:nonzero;fill:rgb(93.527222%,17.272949%,18.882751%);fill-opacity:1;" d="M 59.933594 41.1875 L 63.332031 41.1875 L 63.332031 37.792969 L 59.933594 37.792969 Z M 59.933594 41.1875 "/>
<path style=" stroke:none;fill-rule:nonzero;fill:rgb(93.527222%,17.272949%,18.882751%);fill-opacity:1;" d="M 53.144531 34.398438 L 56.539062 34.398438 L 56.539062 31.003906 L 53.144531 31.003906 Z M 53.144531 34.398438 "/>
<path style=" stroke:none;fill-rule:nonzero;fill:rgb(93.527222%,17.272949%,18.882751%);fill-opacity:1;" d="M 59.933594 34.398438 L 63.332031 34.398438 L 63.332031 31.003906 L 59.933594 31.003906 Z M 59.933594 34.398438 "/>
<path style=" stroke:none;fill-rule:nonzero;fill:rgb(93.527222%,17.272949%,18.882751%);fill-opacity:1;" d="M 53.144531 27.605469 L 56.539062 27.605469 L 56.539062 24.210938 L 53.144531 24.210938 Z M 53.144531 27.605469 "/>
<path style=" stroke:none;fill-rule:nonzero;fill:rgb(93.527222%,17.272949%,18.882751%);fill-opacity:1;" d="M 59.933594 27.605469 L 63.332031 27.605469 L 63.332031 24.210938 L 59.933594 24.210938 Z M 59.933594 27.605469 "/>
<path style=" stroke:none;fill-rule:nonzero;fill:rgb(93.527222%,17.272949%,18.882751%);fill-opacity:1;" d="M 53.144531 20.816406 L 56.539062 20.816406 L 56.539062 17.421875 L 53.144531 17.421875 Z M 53.144531 20.816406 "/>
<path style=" stroke:none;fill-rule:nonzero;fill:rgb(93.527222%,17.272949%,18.882751%);fill-opacity:1;" d="M 59.933594 20.816406 L 63.332031 20.816406 L 63.332031 17.421875 L 59.933594 17.421875 Z M 59.933594 20.816406 "/>
<path style=" stroke:none;fill-rule:nonzero;fill:rgb(93.527222%,17.272949%,18.882751%);fill-opacity:1;" d="M 56.539062 37.792969 L 59.933594 37.792969 L 59.933594 34.398438 L 56.539062 34.398438 Z M 56.539062 37.792969 "/>
<path style=" stroke:none;fill-rule:nonzero;fill:rgb(93.527222%,17.272949%,18.882751%);fill-opacity:1;" d="M 56.539062 31.003906 L 59.933594 31.003906 L 59.933594 27.609375 L 56.539062 27.609375 Z M 56.539062 31.003906 "/>
<path style=" stroke:none;fill-rule:nonzero;fill:rgb(93.527222%,17.272949%,18.882751%);fill-opacity:1;" d="M 56.539062 24.210938 L 59.933594 24.210938 L 59.933594 20.816406 L 56.539062 20.816406 Z M 56.539062 24.210938 "/>
</g>
</svg>
