<?xml version="1.0" encoding="UTF-8" standalone="no"?>
<svg
   xmlns:dc="http://purl.org/dc/elements/1.1/"
   xmlns:cc="http://creativecommons.org/ns#"
   xmlns:rdf="http://www.w3.org/1999/02/22-rdf-syntax-ns#"
   xmlns:svg="http://www.w3.org/2000/svg"
   xmlns="http://www.w3.org/2000/svg"
   xmlns:sodipodi="http://sodipodi.sourceforge.net/DTD/sodipodi-0.dtd"
   xmlns:inkscape="http://www.inkscape.org/namespaces/inkscape"
   width="155"
   height="110"
   version="1.1"
   id="svg144"
   sodipodi:docname="435.svg"
   inkscape:version="1.0.2 (e86c870879, 2021-01-15, custom)">
  <metadata
     id="metadata150">
    <rdf:RDF>
      <cc:Work
         rdf:about="">
        <dc:format>image/svg+xml</dc:format>
        <dc:type
           rdf:resource="http://purl.org/dc/dcmitype/StillImage" />
        <dc:title></dc:title>
      </cc:Work>
    </rdf:RDF>
  </metadata>
  <defs
     id="defs148" />
  <sodipodi:namedview
     pagecolor="#ffffff"
     bordercolor="#666666"
     borderopacity="1"
     objecttolerance="10"
     gridtolerance="10"
     guidetolerance="10"
     inkscape:pageopacity="0"
     inkscape:pageshadow="2"
     inkscape:window-width="1920"
     inkscape:window-height="1017"
     id="namedview146"
     showgrid="false"
     inkscape:zoom="0.97462885"
     inkscape:cx="305.98537"
     inkscape:cy="241.07793"
     inkscape:window-x="3832"
     inkscape:window-y="-8"
     inkscape:window-maximized="1"
     inkscape:current-layer="svg144" />
  <!-- Created with Method Draw - http://github.com/duopixel/Method-Draw/ -->
  <g
     id="g121">
    <title
       id="title115">background</title>
    <rect
       fill="#ffffff"
       opacity="0"
       id="canvas_background"
       height="602"
       width="844"
       y="-1"
       x="-1" />
    <g
       display="none"
       overflow="visible"
       y="0"
       x="0"
       height="100%"
       width="100%"
       id="canvasGrid">
      <rect
         fill="url(#gridpattern)"
         stroke-width="0"
         y="0"
         x="0"
         height="100%"
         width="100%"
         id="rect118" />
    </g>
  </g>
  <g
     id="g142"
     transform="matrix(0.54215308,0,0,0.54233256,-151.95861,-108.10181)">
    <title
       id="title123">Layer 1</title>
    <metadata
       transform="matrix(2.449895730776475,0,0,2.449895730776475,0,0) "
       id="svg_29">image/svg+xml</metadata>
    <g
       id="svg_31">
      <path
         fill="#ffffff"
         fill-rule="nonzero"
         id="svg_28"
         d="M 282.11675,398.61309 H 559.89281 V 201.38693 H 282.11675 Z m 0,0" />
      <path
         fill="none"
         stroke="#211e1e"
         stroke-width="0.2835"
         stroke-miterlimit="4"
         id="svg_27"
         d="M 282.11675,398.61309 H 559.89281 V 201.38693 H 282.11675 v 197.22616" />
      <path
         fill="#211e1e"
         fill-rule="nonzero"
         id="svg_26"
         d="m 554.34226,336.14075 v 43.05501 c -0.01,7.6655 -6.22043,13.87636 -13.89549,13.88594 H 301.55322 c -7.67506,0 -13.89551,-6.22043 -13.88594,-13.88594 v -43.05501 h 266.67497" />
      <path
         fill="#ffffff"
         fill-rule="nonzero"
         id="svg_25"
         d="m 301.55322,388.9092 c -5.36873,-0.01 -9.71344,-4.3543 -9.72302,-9.71344 v -38.8538 h 258.33959 v 38.8538 c 0,5.36873 -4.34474,9.71344 -9.72302,9.71344 H 301.55322" />
      <path
         fill="#211e1e"
         fill-rule="nonzero"
         id="svg_24"
         d="m 537.34611,365.36724 c 0.65077,-0.55505 0.65077,-1.55032 0,-2.10539 L 518.35942,347.0026 c -1.02398,-0.88044 -2.5743,0.0766 -2.24893,1.38762 l 3.03368,12.10594 -20.13508,-1.38765 v 10.4025 l 20.13508,-1.38765 -3.03368,12.11549 c -0.32537,1.30151 1.22495,2.26806 2.24893,1.38765 l 18.98669,-16.25927" />
      <path
         fill="#007d45"
         fill-rule="nonzero"
         id="svg_23"
         d="m 554.34226,336.14075 h 5.55056 v -64.48202 h -5.55056 z m 0,0" />
      <path
         fill="#007d45"
         fill-rule="nonzero"
         id="svg_22"
         d="m 282.10717,336.14075 h 5.56011 v -64.48202 h -5.56011 z m 0,0" />
      <path
         fill="#007d45"
         fill-rule="nonzero"
         id="svg_21"
         d="M 291.8302,332.01613 H 550.16979 V 273.73541 H 291.8302 Z m 0,0" />
      <path
         fill="#ffffff"
         fill-rule="nonzero"
         id="svg_20"
         d="m 306.77838,301.92835 c -0.77515,0.66032 -0.77515,1.86613 0,2.52645 l 22.79552,19.52261 c 1.23453,1.0527 3.10064,-0.0957 2.69871,-1.66517 l -3.63655,-14.53668 24.16401,1.66515 V 296.952 l -24.16401,1.66517 3.63655,-14.5367 c 0.40193,-1.57903 -1.46418,-2.72742 -2.69871,-1.67472 l -22.79552,19.52261" />
      <path
         fill="#1966ba"
         fill-rule="nonzero"
         id="svg_19"
         d="m 301.55322,211.29176 c -5.36873,0.01 -9.71344,4.35432 -9.72302,9.71347 v 48.56727 h 258.33959 v -48.56727 c 0,-5.35915 -4.34474,-9.70389 -9.72302,-9.71347 H 301.55322" />
      <path
         fill="#1966ba"
         fill-rule="nonzero"
         id="svg_18"
         d="m 282.10717,271.65873 v -70.08042 h 277.78564 v 70.08042 h -5.55056 v -50.65351 c -0.01,-7.6655 -6.22043,-13.8668 -13.89549,-13.87638 H 301.55321 c -7.6655,0.01 -13.88594,6.21088 -13.88594,13.87638 v 50.65351 h -5.56011" />
      <path
         fill="#ffffff"
         fill-rule="nonzero"
         id="svg_17"
         d="m 304.10839,240.03977 c -1.06227,1.23453 0.0957,3.09108 1.66517,2.69871 l 14.55581,-3.627 -1.67472,24.13532 h 12.50787 l -1.66517,-24.13532 14.54626,3.627 c 1.56945,0.40193 2.72742,-1.46418 1.66517,-2.69871 l -19.53219,-22.76681 c -0.6699,-0.77517 -1.86613,-0.77517 -2.53603,0 l -19.53216,22.76681" />
    </g>
    <text
       xml:space="preserve"
       text-anchor="start"
       font-family="sans-serif"
       font-size="25px"
       id="svg_32"
       y="371.11121"
       x="366.12228"
       fill="#000000">param(text3)</text>
    <text
       font-weight="normal"
       xml:space="preserve"
       text-anchor="start"
       font-family="sans-serif"
       font-size="30px"
       id="svg_33"
       y="312.22223"
       x="365.01117"
       fill="#ffffff">param(text2)</text>
    <text
       font-weight="normal"
       xml:space="preserve"
       text-anchor="start"
       font-family="sans-serif"
       font-size="30px"
       id="svg_34"
       y="251.11102"
       x="363.90005"
       fill="#ffffff">param(text1)</text>
  </g>
</svg>
