<?xml version="1.0" encoding="UTF-8" standalone="no"?>
<svg
   xmlns:dc="http://purl.org/dc/elements/1.1/"
   xmlns:cc="http://creativecommons.org/ns#"
   xmlns:rdf="http://www.w3.org/1999/02/22-rdf-syntax-ns#"
   xmlns:svg="http://www.w3.org/2000/svg"
   xmlns="http://www.w3.org/2000/svg"
   xmlns:sodipodi="http://sodipodi.sourceforge.net/DTD/sodipodi-0.dtd"
   xmlns:inkscape="http://www.inkscape.org/namespaces/inkscape"
   width="103"
   height="81"
   version="1.1"
   id="svg4052"
   sodipodi:docname="440.svg"
   inkscape:version="1.0.2 (e86c870879, 2021-01-15, custom)">
  <metadata
     id="metadata4058">
    <rdf:RDF>
      <cc:Work
         rdf:about="">
        <dc:format>image/svg+xml</dc:format>
        <dc:type
           rdf:resource="http://purl.org/dc/dcmitype/StillImage" />
        <dc:title></dc:title>
      </cc:Work>
    </rdf:RDF>
  </metadata>
  <defs
     id="defs4056" />
  <sodipodi:namedview
     pagecolor="#ffffff"
     bordercolor="#666666"
     borderopacity="1"
     objecttolerance="10"
     gridtolerance="10"
     guidetolerance="10"
     inkscape:pageopacity="0"
     inkscape:pageshadow="2"
     inkscape:window-width="1920"
     inkscape:window-height="1017"
     id="namedview4054"
     showgrid="false"
     inkscape:zoom="5.6666667"
     inkscape:cx="60.081621"
     inkscape:cy="59.79399"
     inkscape:window-x="3832"
     inkscape:window-y="-8"
     inkscape:window-maximized="1"
     inkscape:current-layer="svg4052" />
  <!-- Created with Method Draw - http://github.com/duopixel/Method-Draw/ -->
  <g
     id="g4032">
    <title
       id="title4026">background</title>
    <rect
       fill="#ffffff"
       opacity="0"
       id="canvas_background"
       height="602"
       width="765"
       y="-1"
       x="-1" />
    <g
       display="none"
       overflow="visible"
       y="0"
       x="0"
       height="100%"
       width="100%"
       id="canvasGrid">
      <rect
         fill="url(#gridpattern)"
         stroke-width="0"
         y="0"
         x="0"
         height="100%"
         width="100%"
         id="rect4029" />
    </g>
  </g>
  <g
     id="g4050"
     transform="matrix(0.17900418,0,0,0.17900418,-16.820196,-13.262501)">
    <title
       id="title4034">Layer 1</title>
    <metadata
       transform="matrix(3.0539993705499455,0,0,3.0539993705499455,0,0) "
       id="svg_23">image/svg+xml</metadata>
    <g
       stroke="null"
       id="svg_25">
      <path
         fill="#ffffff"
         fill-rule="nonzero"
         id="svg_22"
         d="M 101.22977,523.42207 H 660.6591 V 78.80018 H 101.22977 Z m 0,0" />
      <path
         stroke="#211e1e"
         fill="none"
         stroke-width="0.2835"
         stroke-miterlimit="4"
         id="svg_21"
         d="M 101.22977,523.42207 H 660.63772 V 78.80018 H 101.22977 v 444.62189" />
      <path
         fill="#1966ba"
         fill-rule="nonzero"
         id="svg_20"
         d="M 107.46136,517.03247 H 654.40612 V 85.16786 H 107.46136 Z m 0,0" />
      <path
         fill="#ffffff"
         fill-rule="nonzero"
         id="svg_19"
         d="m 327.6226,344.64554 c -5.33215,9.21235 -12.80576,17.13364 -21.82121,22.60415 l 59.61764,61.00725 v 63.43614 h 31.05084 v -63.43614 l 121.11975,-71.5544 13.49108,-7.9213 6.5956,22.75736 c 0.66383,2.23193 3.876,2.40699 4.71119,0 l 17.88096,-56.04001 c 0.34263,-1.55361 -0.51395,-2.93221 -1.8416,-3.28233 L 501.91426,299.9842 c -2.37698,-0.52517 -4.06869,2.40704 -2.37698,4.1357 l 16.01793,17.2431 -13.49102,7.9213 -120.1133,70.85417 -54.32831,-55.49294" />
      <path
         fill="#ffffff"
         fill-rule="nonzero"
         id="svg_18"
         d="m 242.3077,257.55485 -19.78686,-20.15341 -10.96416,-11.37868 19.74405,-12.23206 c 2.01297,-1.37855 1.34914,-4.66087 -1.17777,-4.66087 l -57.54048,-3.10727 c -1.5204,-0.17506 -2.69817,1.02849 -2.69817,2.5821 l 3.0408,58.97217 c 0.17132,2.40704 3.36211,3.28233 4.56131,1.02849 l 12.14193,-20.00026 30.87953,31.55399 c 5.3322,-9.25615 12.763,-17.1118 21.79983,-22.6042" />
      <path
         fill="#ee2b2e"
         fill-rule="nonzero"
         id="svg_17"
         d="m 274.04385,248.69262 c 34.41289,0 62.31582,28.51232 62.31582,63.7206 0,35.18637 -27.90292,63.7206 -62.31582,63.7206 -34.41295,0 -62.31587,-28.53422 -62.31587,-63.7206 0,-35.20828 27.90292,-63.7206 62.31587,-63.7206" />
      <path
         fill="#ffffff"
         fill-rule="nonzero"
         id="svg_16"
         d="m 274.04385,269.91822 c 5.6534,0 11.04979,1.11599 16.16787,3.34798 4.96814,2.14443 9.37946,5.18604 13.21264,9.10294 3.83318,3.9169 6.80979,8.42456 8.90838,13.5012 2.18428,5.2517 3.25499,10.76601 3.25499,16.54288 0,5.77687 -1.07071,11.26928 -3.25499,16.52097 -2.0986,5.07664 -5.0752,9.58436 -8.90838,13.52311 -3.83318,3.9169 -8.2445,6.95851 -13.21264,9.10294 -5.11807,2.23199 -10.51447,3.32608 -16.16787,3.32608 -5.63202,0 -11.02841,-1.09409 -16.16787,-3.32608 -4.96814,-2.14443 -9.35808,-5.18604 -13.2127,-9.10294 -3.83318,-3.93875 -6.80979,-8.44647 -8.90838,-13.52311 -2.16285,-5.2517 -3.25499,-10.74411 -3.25499,-16.52097 0,-5.77687 1.09214,-11.29118 3.25499,-16.54288 2.0986,-5.07664 5.0752,-9.58431 8.90838,-13.5012 3.85462,-3.9169 8.24456,-6.95851 13.2127,-9.10294 5.13945,-2.23199 10.53585,-3.34798 16.16787,-3.34798" />
      <path
         fill="#211e1e"
         fill-rule="nonzero"
         id="svg_15"
         d="m 235.11246,297.53341 c -1.73453,4.74843 -2.61254,9.69377 -2.61254,14.87981 0,5.16414 0.87801,10.10953 2.61254,14.85791 l 12.97713,-14.92356 -12.97713,-14.81416" />
      <path
         fill="#211e1e"
         fill-rule="nonzero"
         id="svg_14"
         d="m 312.99663,327.27113 c 1.73453,-4.74838 2.61254,-9.69377 2.61254,-14.85791 0,-5.18604 -0.87801,-10.13138 -2.61254,-14.87981 l -12.97713,14.81416 12.97713,14.92356" />
    </g>
    <text
       xml:space="preserve"
       text-anchor="start"
       font-family="sans-serif"
       font-size="40px"
       id="svg_26"
       y="154.44417"
       x="135.38843"
       fill="#ffffff">param(text1)</text>
    <text
       xml:space="preserve"
       text-anchor="start"
       font-family="sans-serif"
       font-size="40px"
       id="svg_27"
       y="263.33325"
       x="470.94461"
       fill="#ffffff">param(text2)</text>
    <text
       xml:space="default"
       dominant-baseline="middle"
       text-anchor="middle"
       font-family="sans-serif"
       font-size="18px"
       id="svg_28"
       y="317.7778"
       x="252.05533"
       fill="#000000">param(text3)</text>
  </g>
</svg>
