<?xml version="1.0" encoding="UTF-8" standalone="no"?>
<svg
   width="132"
   height="126"
   version="1.1"
   id="svg4741"
   xmlns="http://www.w3.org/2000/svg"
   xmlns:svg="http://www.w3.org/2000/svg"
   xmlns:rdf="http://www.w3.org/1999/02/22-rdf-syntax-ns#"
   xmlns:cc="http://creativecommons.org/ns#"
   xmlns:dc="http://purl.org/dc/elements/1.1/">
  <metadata
     id="metadata4747">
    <rdf:RDF>
      <cc:Work
         rdf:about="">
        <dc:format>image/svg+xml</dc:format>
        <dc:type
           rdf:resource="http://purl.org/dc/dcmitype/StillImage" />
      </cc:Work>
    </rdf:RDF>
  </metadata>
  <defs
     id="defs4745" />
  <!-- Created with Method Draw - http://github.com/duopixel/Method-Draw/ -->
  <g
     id="g4725">
    <title
       id="title4719">background</title>
    <rect
       fill="#ffffff"
       opacity="0"
       id="canvas_background"
       height="602"
       width="631"
       y="-1"
       x="-1" />
    <g
       display="none"
       overflow="visible"
       y="0"
       x="0"
       height="100%"
       width="100%"
       id="canvasGrid">
      <rect
         fill="url(#gridpattern)"
         stroke-width="0"
         y="0"
         x="0"
         height="100%"
         width="100%"
         id="rect4722" />
    </g>
  </g>
  <path
     fill="#ffffff"
     fill-rule="nonzero"
     id="svg_16"
     d="M 2.4974004,124.01354 H 129.87194 V 2.8096665 H 2.4974004 Z m 0,0"
     style="stroke-width:0.285009" />
  <path
     stroke="#211e1e"
     fill="none"
     stroke-width="0.0808001"
     stroke-miterlimit="4"
     id="svg_15"
     d="M 2.4974004,124.01354 H 129.87194 V 2.8096665 H 2.4974004 V 124.01354" />
  <path
     fill="#211e1e"
     fill-rule="nonzero"
     id="svg_14"
     d="m 11.407244,5.0188988 c -3.6669668,0 -6.6432703,2.9570255 -6.6432703,6.6087042 V 115.20321 c 0,3.65168 2.9763035,6.6087 6.6432703,6.6087 H 121.06511 c 3.67079,0 6.64327,-2.95702 6.64327,-6.6087 V 11.627603 c 0,-3.6516787 -2.97248,-6.6087042 -6.64327,-6.6087042 H 11.407244"
     style="stroke-width:0.285009" />
  <path
     fill="#ffffff"
     fill-rule="nonzero"
     id="svg_13"
     d="m 11.407244,7.2281283 c -2.4497292,0 -4.4339325,1.9738802 -4.4339325,4.4070617 v 103.5718 c 0,2.437 1.9842061,4.40708 4.4339325,4.40708 H 121.05367 c 2.45354,0 4.43394,-1.97008 4.43394,-4.40708 V 11.63519 c 0,-2.4331815 -1.9804,-4.4070617 -4.43394,-4.4070617 H 11.407244"
     style="stroke-width:0.285009" />
  <path
     fill="#211e1e"
     fill-rule="nonzero"
     id="svg_12"
     d="M 51.782003,96.773988 66.182758,110.28369 80.656014,96.709462 c 0.289994,-0.273306 0.362495,-0.702248 0.175517,-1.05147 -0.186966,-0.35303 -0.583807,-0.535233 -0.973019,-0.45172 l -10.573525,2.296534 v -8.373804 h -6.200644 v 8.373804 L 52.575688,95.270807 c -0.389211,-0.0873 -0.786052,0.09869 -0.973018,0.44792 -0.183159,0.353021 -0.114477,0.781955 0.179339,1.055261"
     style="stroke-width:0.285009" />
  <path
     fill="#1966ba"
     fill-rule="nonzero"
     id="svg_11"
     d="M 18.902371,59.275077 H 113.55855 V 12.817084 H 18.902371 Z m 0,0"
     style="stroke-width:0.448352" />
  <text
     xml:space="default"
     dominant-baseline="middle"
     text-anchor="middle"
     font-family="sans-serif"
     font-size="11.4004px"
     id="svg_20"
     y="26.394127"
     x="66.224899"
     fill="#ffffff"
     style="stroke-width:0.285009">param(text1)</text>
  <text
     xml:space="default"
     dominant-baseline="middle"
     text-anchor="middle"
     font-family="sans-serif"
     font-size="11.4004px"
     id="svg_20-5"
     y="46.794849"
     x="66.224899"
     fill="#ffffff"
     style="stroke-width:0.285009">param(text2)</text>
  <text
     xml:space="default"
     dominant-baseline="middle"
     text-anchor="middle"
     font-family="sans-serif"
     font-size="11.4004px"
     id="svg_21"
     y="80.195488"
     x="67.45137"
     fill="#000000"
     style="stroke-width:0.285009">param(text3)</text>
</svg>
