<?xml version="1.0" encoding="UTF-8" standalone="no"?>
<svg
   xmlns:dc="http://purl.org/dc/elements/1.1/"
   xmlns:cc="http://creativecommons.org/ns#"
   xmlns:rdf="http://www.w3.org/1999/02/22-rdf-syntax-ns#"
   xmlns:svg="http://www.w3.org/2000/svg"
   xmlns="http://www.w3.org/2000/svg"
   xmlns:sodipodi="http://sodipodi.sourceforge.net/DTD/sodipodi-0.dtd"
   xmlns:inkscape="http://www.inkscape.org/namespaces/inkscape"
   width="145pt"
   height="36pt"
   viewBox="0 0 145 36"
   version="1.1"
   id="svg8120"
   sodipodi:docname="445-d.svg"
   inkscape:version="1.0.2 (e86c870879, 2021-01-15, custom)">
  <metadata
     id="metadata8126">
    <rdf:RDF>
      <cc:Work
         rdf:about="">
        <dc:format>image/svg+xml</dc:format>
        <dc:type
           rdf:resource="http://purl.org/dc/dcmitype/StillImage" />
        <dc:title></dc:title>
      </cc:Work>
    </rdf:RDF>
  </metadata>
  <defs
     id="defs8124" />
  <sodipodi:namedview
     pagecolor="#ffffff"
     bordercolor="#666666"
     borderopacity="1"
     objecttolerance="10"
     gridtolerance="10"
     guidetolerance="10"
     inkscape:pageopacity="0"
     inkscape:pageshadow="2"
     inkscape:window-width="1920"
     inkscape:window-height="1017"
     id="namedview8122"
     showgrid="false"
     inkscape:zoom="6.7396552"
     inkscape:cx="96.666667"
     inkscape:cy="24"
     inkscape:window-x="5752"
     inkscape:window-y="-8"
     inkscape:window-maximized="1"
     inkscape:current-layer="svg8120" />
  <g
     id="surface1">
    <path
       style=" stroke:none;fill-rule:nonzero;fill:rgb(13.729858%,12.159729%,12.548828%);fill-opacity:1;"
       d="M 0.234375 35.890625 L 113.621094 35.890625 L 144.800781 18.183594 L 113.621094 0.457031 L 0.234375 0.457031 L 0.234375 35.890625 "
       id="path8101" />
    <path
       style=" stroke:none;fill-rule:nonzero;fill:rgb(100%,100%,100%);fill-opacity:1;"
       d="M 2.359375 33.761719 L 113.058594 33.761719 L 129.210938 18.179688 L 113.058594 2.582031 L 2.359375 2.582031 L 2.359375 33.761719 "
       id="path8103" />
    <path
       style=" stroke:none;fill-rule:nonzero;fill:rgb(13.729858%,12.159729%,12.548828%);fill-opacity:1;"
       d="M 75.042969 21.730469 C 72.507812 21.730469 70.523438 23.839844 70.523438 26.3125 C 70.402344 28.792969 72.445312 30.957031 75.042969 30.957031 C 77.585938 30.957031 79.566406 28.914062 79.566406 26.3125 C 79.566406 23.839844 77.523438 21.730469 75.042969 21.730469 "
       id="path8105" />
    <path
       style=" stroke:none;fill-rule:nonzero;fill:rgb(13.729858%,12.159729%,12.548828%);fill-opacity:1;"
       d="M 42.792969 21.730469 C 40.1875 21.730469 38.023438 23.898438 38.082031 26.5 C 38.148438 28.980469 40.253906 30.898438 42.730469 30.898438 C 45.207031 30.898438 47.3125 28.980469 47.375 26.4375 C 47.4375 23.898438 45.390625 21.730469 42.792969 21.730469 "
       id="path8107" />
    <path
       style=" stroke:none;fill-rule:nonzero;fill:rgb(13.729858%,12.159729%,12.548828%);fill-opacity:1;"
       d="M 30.894531 21.175781 L 38.136719 21.175781 L 37.519531 22.042969 L 31.574219 22.167969 L 31.574219 23.839844 L 35.910156 25.386719 C 35.910156 25.453125 35.847656 26.441406 35.847656 26.5 L 37.023438 26.5 C 37.023438 26.441406 37.023438 26.3125 37.023438 26.3125 C 37.273438 23.285156 39.5625 20.679688 42.660156 20.679688 C 45.695312 20.621094 48.171875 23.15625 48.417969 26.132812 C 48.417969 26.253906 48.417969 26.378906 48.480469 26.441406 L 69.535156 26.378906 C 69.535156 26.3125 69.535156 26.191406 69.535156 26.132812 C 69.476562 23.15625 72.074219 20.867188 75.046875 20.867188 C 77.957031 20.867188 80.433594 23.21875 80.558594 26.132812 C 80.558594 26.253906 80.558594 26.378906 80.558594 26.441406 L 83.285156 26.441406 L 83.222656 25.761719 C 83.285156 25.695312 83.40625 25.695312 83.53125 25.574219 C 83.65625 25.453125 83.65625 25.265625 83.65625 25.203125 L 83.65625 24.644531 C 83.65625 24.582031 83.65625 24.210938 83.59375 24.148438 C 83.53125 24.027344 83.34375 24.027344 83.222656 24.027344 L 82.539062 24.027344 L 81.917969 17.773438 C 81.917969 17.523438 81.796875 17.152344 81.609375 16.964844 C 81.300781 16.71875 80.808594 16.59375 80.746094 16.59375 L 79.941406 16.535156 L 78.023438 12.382812 C 77.648438 11.578125 76.347656 10.710938 75.234375 10.710938 L 68.855469 10.710938 L 68.917969 22.105469 L 48.171875 22.167969 L 47.367188 21.300781 L 68.238281 21.238281 L 68.109375 5.511719 L 30.894531 5.445312 L 30.894531 21.175781 "
       id="path8109" />
    <path
       style=" stroke:none;fill-rule:nonzero;fill:rgb(100%,100%,100%);fill-opacity:1;"
       d="M 75.109375 24.457031 C 74.058594 24.457031 73.191406 25.324219 73.191406 26.320312 C 73.191406 27.367188 73.992188 28.238281 75.046875 28.238281 C 76.097656 28.300781 76.96875 27.367188 76.96875 26.378906 C 76.96875 25.324219 76.097656 24.457031 75.109375 24.457031 "
       id="path8111" />
    <path
       style=" stroke:none;fill-rule:nonzero;fill:rgb(100%,100%,100%);fill-opacity:1;"
       d="M 42.730469 24.394531 C 41.613281 24.394531 40.808594 25.390625 40.871094 26.5 C 40.871094 27.429688 41.738281 28.238281 42.730469 28.238281 C 43.71875 28.238281 44.589844 27.496094 44.648438 26.5 C 44.710938 25.390625 43.78125 24.394531 42.730469 24.394531 "
       id="path8113" />
    <path
       style=" stroke:none;fill-rule:nonzero;fill:rgb(100%,100%,100%);fill-opacity:1;"
       d="M 74.675781 12.445312 L 71.332031 12.507812 L 71.332031 16.59375 L 76.59375 16.535156 L 74.675781 12.445312 "
       id="path8115" />
    <path
       style=" stroke:none;fill-rule:nonzero;fill:rgb(100%,100%,100%);fill-opacity:1;"
       d="M 77.335938 12.445312 L 75.910156 12.445312 L 77.773438 16.59375 L 79.132812 16.59375 L 77.335938 12.445312 "
       id="path8117" />
  </g>
</svg>
