<?xml version="1.0" encoding="UTF-8" standalone="no"?>
<svg
   xmlns:dc="http://purl.org/dc/elements/1.1/"
   xmlns:cc="http://creativecommons.org/ns#"
   xmlns:rdf="http://www.w3.org/1999/02/22-rdf-syntax-ns#"
   xmlns:svg="http://www.w3.org/2000/svg"
   xmlns="http://www.w3.org/2000/svg"
   xmlns:sodipodi="http://sodipodi.sourceforge.net/DTD/sodipodi-0.dtd"
   xmlns:inkscape="http://www.inkscape.org/namespaces/inkscape"
   width="145pt"
   height="36pt"
   viewBox="0 0 145 36"
   version="1.1"
   id="svg8120"
   sodipodi:docname="445-g.svg"
   inkscape:version="1.0.2 (e86c870879, 2021-01-15, custom)">
  <metadata
     id="metadata8126">
    <rdf:RDF>
      <cc:Work
         rdf:about="">
        <dc:format>image/svg+xml</dc:format>
        <dc:type
           rdf:resource="http://purl.org/dc/dcmitype/StillImage" />
        <dc:title></dc:title>
      </cc:Work>
    </rdf:RDF>
  </metadata>
  <defs
     id="defs8124" />
  <sodipodi:namedview
     pagecolor="#ffffff"
     bordercolor="#666666"
     borderopacity="1"
     objecttolerance="10"
     gridtolerance="10"
     guidetolerance="10"
     inkscape:pageopacity="0"
     inkscape:pageshadow="2"
     inkscape:window-width="1920"
     inkscape:window-height="1017"
     id="namedview8122"
     showgrid="false"
     inkscape:zoom="3.3698276"
     inkscape:cx="89.989756"
     inkscape:cy="6.2801371"
     inkscape:window-x="5752"
     inkscape:window-y="-8"
     inkscape:window-maximized="1"
     inkscape:current-layer="svg8120" />
  <g
     id="surface1"
     transform="matrix(-1,0,0,1,145.03516,0)">
    <path
       style="fill:#211e1e;fill-opacity:1;fill-rule:nonzero;stroke:none"
       d="M 0.234375,35.890625 H 113.62109 L 144.80078,18.183594 113.62109,0.457031 H 0.234375 v 35.433594"
       id="path8101" />
    <path
       style="fill:#ffffff;fill-opacity:1;fill-rule:nonzero;stroke:none"
       d="M 2.359375,33.761719 H 113.05859 L 129.21094,18.179688 113.05859,2.582031 H 2.359375 v 31.179688"
       id="path8103" />
    <path
       style="fill:#211e1e;fill-opacity:1;fill-rule:nonzero;stroke:none"
       d="m 75.042969,21.730469 c -2.535157,0 -4.519531,2.109375 -4.519531,4.582031 -0.121094,2.480469 1.921874,4.644531 4.519531,4.644531 2.542969,0 4.523437,-2.042969 4.523437,-4.644531 0,-2.472656 -2.042968,-4.582031 -4.523437,-4.582031"
       id="path8105" />
    <path
       style="fill:#211e1e;fill-opacity:1;fill-rule:nonzero;stroke:none"
       d="m 42.792969,21.730469 c -2.605469,0 -4.769531,2.167969 -4.710938,4.769531 0.06641,2.480469 2.171875,4.398438 4.648438,4.398438 2.476562,0 4.582031,-1.917969 4.644531,-4.460938 0.0625,-2.539062 -1.984375,-4.707031 -4.582031,-4.707031"
       id="path8107" />
    <path
       style="fill:#211e1e;fill-opacity:1;fill-rule:nonzero;stroke:none"
       d="m 30.894531,21.175781 h 7.242188 l -0.617188,0.867188 -5.945312,0.125 v 1.671875 l 4.335937,1.546875 c 0,0.06641 -0.0625,1.054687 -0.0625,1.113281 h 1.175782 c 0,-0.05859 0,-0.1875 0,-0.1875 0.25,-3.027344 2.539062,-5.632812 5.636718,-5.632812 3.035156,-0.05859 5.511719,2.476562 5.757813,5.453124 0,0.121094 0,0.246094 0.0625,0.308594 l 21.054687,-0.0625 c 0,-0.06641 0,-0.1875 0,-0.246094 -0.05859,-2.976562 2.539063,-5.265624 5.511719,-5.265624 2.910156,0 5.386719,2.351562 5.511719,5.265624 0,0.121094 0,0.246094 0,0.308594 h 2.726562 l -0.0625,-0.679687 c 0.0625,-0.06641 0.183594,-0.06641 0.308594,-0.1875 0.125,-0.121094 0.125,-0.308594 0.125,-0.371094 v -0.558594 c 0,-0.0625 0,-0.433593 -0.0625,-0.496093 -0.0625,-0.121094 -0.25,-0.121094 -0.371094,-0.121094 h -0.683594 l -0.621093,-6.253906 c 0,-0.25 -0.121094,-0.621094 -0.308594,-0.808594 C 81.300781,16.71875 80.808594,16.59375 80.746094,16.59375 l -0.804688,-0.05859 -1.917968,-4.152344 c -0.375,-0.804687 -1.675782,-1.671874 -2.789063,-1.671874 h -6.378906 l 0.0625,11.394531 -20.746094,0.0625 -0.804687,-0.867188 20.871093,-0.0625 L 68.109375,5.511719 30.894531,5.445312 v 15.730469"
       id="path8109" />
    <path
       style="fill:#ffffff;fill-opacity:1;fill-rule:nonzero;stroke:none"
       d="m 75.109375,24.457031 c -1.050781,0 -1.917969,0.867188 -1.917969,1.863281 0,1.046876 0.800782,1.917969 1.855469,1.917969 1.050781,0.0625 1.921875,-0.871093 1.921875,-1.859375 0,-1.054687 -0.871094,-1.921875 -1.859375,-1.921875"
       id="path8111" />
    <path
       style="fill:#ffffff;fill-opacity:1;fill-rule:nonzero;stroke:none"
       d="m 42.730469,24.394531 c -1.117188,0 -1.921875,0.996094 -1.859375,2.105469 0,0.929688 0.867187,1.738281 1.859375,1.738281 0.988281,0 1.859375,-0.742187 1.917969,-1.738281 0.0625,-1.109375 -0.867188,-2.105469 -1.917969,-2.105469"
       id="path8113" />
    <path
       style="fill:#ffffff;fill-opacity:1;fill-rule:nonzero;stroke:none"
       d="m 74.675781,12.445312 -3.34375,0.0625 v 4.085938 l 5.261719,-0.05859 -1.917969,-4.089844"
       id="path8115" />
    <path
       style="fill:#ffffff;fill-opacity:1;fill-rule:nonzero;stroke:none"
       d="m 77.335938,12.445312 h -1.425782 l 1.863282,4.148438 h 1.359374 l -1.796874,-4.148438"
       id="path8117" />
  </g>
</svg>
