<?xml version="1.0" encoding="UTF-8" standalone="no"?>
<svg
   xmlns:dc="http://purl.org/dc/elements/1.1/"
   xmlns:cc="http://creativecommons.org/ns#"
   xmlns:rdf="http://www.w3.org/1999/02/22-rdf-syntax-ns#"
   xmlns:svg="http://www.w3.org/2000/svg"
   xmlns="http://www.w3.org/2000/svg"
   xmlns:sodipodi="http://sodipodi.sourceforge.net/DTD/sodipodi-0.dtd"
   xmlns:inkscape="http://www.inkscape.org/namespaces/inkscape"
   width="145pt"
   height="36pt"
   viewBox="0 0 145 36"
   version="1.1"
   id="svg980"
   sodipodi:docname="446-1-g.svg"
   inkscape:version="1.0.2 (e86c870879, 2021-01-15, custom)">
  <metadata
     id="metadata986">
    <rdf:RDF>
      <cc:Work
         rdf:about="">
        <dc:format>image/svg+xml</dc:format>
        <dc:type
           rdf:resource="http://purl.org/dc/dcmitype/StillImage" />
        <dc:title></dc:title>
      </cc:Work>
    </rdf:RDF>
  </metadata>
  <defs
     id="defs984" />
  <sodipodi:namedview
     pagecolor="#ffffff"
     bordercolor="#666666"
     borderopacity="1"
     objecttolerance="10"
     gridtolerance="10"
     guidetolerance="10"
     inkscape:pageopacity="0"
     inkscape:pageshadow="2"
     inkscape:window-width="1920"
     inkscape:window-height="1017"
     id="namedview982"
     showgrid="false"
     inkscape:zoom="2.9689655"
     inkscape:cx="96.666667"
     inkscape:cy="24"
     inkscape:window-x="5752"
     inkscape:window-y="-8"
     inkscape:window-maximized="1"
     inkscape:current-layer="svg980" />
  <path
     style="fill:#211e1e;fill-opacity:1;fill-rule:nonzero;stroke:none"
     d="M 144.80078,35.890625 H 31.414065 L 0.234375,18.183594 31.414065,0.457031 H 144.80078 v 35.433594"
     id="path949" />
  <path
     style="fill:#ffffff;fill-opacity:1;fill-rule:nonzero;stroke:none"
     d="M 142.67578,33.761719 H 31.976565 L 15.824215,18.179688 31.976565,2.582031 H 142.67578 v 31.179688"
     id="path951" />
  <path
     style="fill:#211e1e;fill-opacity:1;fill-rule:nonzero;stroke:none"
     d="m 96.753905,20.199219 h -5.816406 v -2.570313 h 5.816406 v -5.835937 h 2.53125 v 5.835937 h 5.828125 v 2.5625 l -5.828125,0.0078 v 5.769531 h -2.53125 v -5.769531"
     id="path953" />
  <g
     id="g1006"
     transform="translate(50.270034,-44.712544)">
    <path
       style="fill:#1966ba;fill-opacity:1;fill-rule:nonzero;stroke:none"
       d="M 7.3711207,49.873993 H 32.890652 V 75.389619 H 7.3711207 V 49.873993"
       id="path969" />
    <path
       style="fill:#ffffff;fill-opacity:1;fill-rule:nonzero;stroke:none"
       d="M 17.988309,72.209931 H 14.777371 V 54.112275 h 9.046875 c 0.746094,0 1.554688,0.292968 2.042969,0.941406 0.652344,0.847656 0.617187,1.65625 0.617187,1.65625 v 6.0625 c 0,0.421875 -0.128906,1.328125 -0.78125,1.976562 -0.582031,0.585938 -1.199218,0.8125 -1.878906,0.8125 h -5.835937 v 6.648438"
       id="path971" />
    <path
       style="fill:#1966ba;fill-opacity:1;fill-rule:nonzero;stroke:none"
       d="m 17.960965,62.78415 v -5.804688 h 4.605469 c 0.195312,0 0.417968,0 0.550781,0.128907 0.128906,0.128906 0.160156,0.257812 0.160156,0.550781 v 4.445312 c 0,0.222657 -0.0625,0.417969 -0.195312,0.515625 -0.128907,0.128906 -0.257813,0.164063 -0.484375,0.164063 h -4.636719"
       id="path973" />
  </g>
  <g
     id="g1017"
     transform="translate(41.933799,-43.702091)">
    <path
       style="fill:#211e1e;fill-opacity:1;fill-rule:nonzero;stroke:none"
       d="M 72.036504,50.137006 H 97.450566 V 49.625287 H 72.036504 Z m 0,0"
       id="path955" />
    <path
       style="fill:#211e1e;fill-opacity:1;fill-rule:nonzero;stroke:none"
       d="m 84.743535,59.586224 c 0.02734,-0.167968 -0.222657,-0.511718 -0.507813,-0.511718 l -12.203125,-0.0039 v -1.027343 h 12.203125 c 0.285156,0 0.507813,-0.230469 0.507813,-0.507813 0,-0.28125 -0.222657,-0.511719 -0.507813,-0.511719 l -12.203125,-0.0039 v -1.027344 h 9.914063 l -2.933594,-2.042968 5.726562,-3.324219 5.726563,3.324219 -2.925781,2.042968 h 6.507812 c 0.769532,0 1.40625,0.59375 1.511719,1.339844 l 1.386719,9.898438 H 72.032597 v -5.101563 l 12.203125,-0.02734 c 0.285156,0 0.507813,-0.226562 0.507813,-0.507812 0,-0.28125 -0.222657,-0.476563 -0.507813,-0.476563 H 72.032597 v -1.023437 h 12.203125 c 0.285156,0 0.507813,-0.226563 0.507813,-0.507813"
       id="path957" />
    <path
       style="fill:#211e1e;fill-opacity:1;fill-rule:nonzero;stroke:none"
       d="m 97.544316,71.480756 -0.453125,-3.21875 h -5.484375 v 3.800781 h 5.433594 c 0.28125,0 0.507812,-0.230469 0.507812,-0.511719 0,-0.02344 0,-0.04687 -0.0039,-0.07031"
       id="path959" />
    <path
       style="fill:#211e1e;fill-opacity:1;fill-rule:nonzero;stroke:none"
       d="m 90.591191,70.797162 c 0,-1.480469 -1.195313,-2.675782 -2.671875,-2.675782 -1.472656,0 -2.667969,1.195313 -2.667969,2.675782 0,1.480468 1.195313,2.675781 2.667969,2.675781 1.476562,0 2.671875,-1.195313 2.671875,-2.675781"
       id="path961" />
    <path
       style="fill:#211e1e;fill-opacity:1;fill-rule:nonzero;stroke:none"
       d="m 84.231816,70.797162 c 0,-1.480469 -1.191406,-2.675782 -2.667969,-2.675782 -1.472656,0 -2.667969,1.195313 -2.667969,2.675782 0,1.480468 1.195313,2.675781 2.667969,2.675781 1.476563,0 2.667969,-1.195313 2.667969,-2.675781"
       id="path963" />
    <path
       style="fill:#211e1e;fill-opacity:1;fill-rule:nonzero;stroke:none"
       d="M 72.036504,75.137006 H 97.458378 V 74.117474 H 72.036504 Z m 0,0"
       id="path965" />
    <path
       style="fill:#211e1e;fill-opacity:1;fill-rule:nonzero;stroke:none"
       d="m 72.036504,72.062787 h 5.847656 v -3.824219 h -5.847656 z m 0,0"
       id="path967" />
    <path
       style="fill:#ffffff;fill-opacity:1;fill-rule:nonzero;stroke:none"
       d="m 91.438847,61.597943 c 0,0.28125 0.226563,0.507813 0.507813,0.507813 h 2.667968 c 0.28125,0 0.511719,-0.226563 0.511719,-0.507813 0,-0.02734 0,-0.05078 -0.0039,-0.07422 l -0.570319,-4.05078 c -0.0625,-0.441406 -0.253906,-0.453125 -0.511718,-0.453125 h -2.097656 c -0.28125,0 -0.503907,0.210938 -0.503907,0.496094 v 4.082031"
       id="path975" />
    <path
       style="fill:#ffffff;fill-opacity:1;fill-rule:nonzero;stroke:none"
       d="m 83.731816,55.992474 h 2.023438 l 2.8125,-1.964844 -3.828126,-2.210937 -3.824218,2.214844 2.816406,1.960937"
       id="path977" />
  </g>
</svg>
