<?xml version="1.0" encoding="UTF-8" standalone="no"?>
<svg
   xmlns:dc="http://purl.org/dc/elements/1.1/"
   xmlns:cc="http://creativecommons.org/ns#"
   xmlns:rdf="http://www.w3.org/1999/02/22-rdf-syntax-ns#"
   xmlns:svg="http://www.w3.org/2000/svg"
   xmlns="http://www.w3.org/2000/svg"
   xmlns:sodipodi="http://sodipodi.sourceforge.net/DTD/sodipodi-0.dtd"
   xmlns:inkscape="http://www.inkscape.org/namespaces/inkscape"
   width="145pt"
   height="36pt"
   viewBox="0 0 145 36"
   version="1.1"
   id="svg980"
   sodipodi:docname="446-1-d.svg"
   inkscape:version="1.0.2 (e86c870879, 2021-01-15, custom)">
  <metadata
     id="metadata986">
    <rdf:RDF>
      <cc:Work
         rdf:about="">
        <dc:format>image/svg+xml</dc:format>
        <dc:type
           rdf:resource="http://purl.org/dc/dcmitype/StillImage" />
        <dc:title></dc:title>
      </cc:Work>
    </rdf:RDF>
  </metadata>
  <defs
     id="defs984" />
  <sodipodi:namedview
     pagecolor="#ffffff"
     bordercolor="#666666"
     borderopacity="1"
     objecttolerance="10"
     gridtolerance="10"
     guidetolerance="10"
     inkscape:pageopacity="0"
     inkscape:pageshadow="2"
     inkscape:window-width="1920"
     inkscape:window-height="1017"
     id="namedview982"
     showgrid="false"
     inkscape:zoom="2.9689655"
     inkscape:cx="96.666667"
     inkscape:cy="24"
     inkscape:window-x="5752"
     inkscape:window-y="-8"
     inkscape:window-maximized="1"
     inkscape:current-layer="svg980" />
  <g
     id="surface1">
    <path
       style=" stroke:none;fill-rule:nonzero;fill:rgb(13.729858%,12.159729%,12.548828%);fill-opacity:1;"
       d="M 0.234375 35.890625 L 113.621094 35.890625 L 144.800781 18.183594 L 113.621094 0.457031 L 0.234375 0.457031 L 0.234375 35.890625 "
       id="path949" />
    <path
       style=" stroke:none;fill-rule:nonzero;fill:rgb(100%,100%,100%);fill-opacity:1;"
       d="M 2.359375 33.761719 L 113.058594 33.761719 L 129.210938 18.179688 L 113.058594 2.582031 L 2.359375 2.582031 L 2.359375 33.761719 "
       id="path951" />
    <path
       style=" stroke:none;fill-rule:nonzero;fill:rgb(13.729858%,12.159729%,12.548828%);fill-opacity:1;"
       d="M 48.28125 20.199219 L 54.097656 20.199219 L 54.097656 17.628906 L 48.28125 17.628906 L 48.28125 11.792969 L 45.75 11.792969 L 45.75 17.628906 L 39.921875 17.628906 L 39.921875 20.191406 L 45.75 20.199219 L 45.75 25.96875 L 48.28125 25.96875 L 48.28125 20.199219 "
       id="path953" />
    <path
       style=" stroke:none;fill-rule:nonzero;fill:rgb(13.729858%,12.159729%,12.548828%);fill-opacity:1;"
       d="M 70.773438 5.929688 L 96.1875 5.929688 L 96.1875 5.417969 L 70.773438 5.417969 Z M 70.773438 5.929688 "
       id="path955" />
    <path
       style=" stroke:none;fill-rule:nonzero;fill:rgb(13.729858%,12.159729%,12.548828%);fill-opacity:1;"
       d="M 83.480469 15.378906 C 83.507812 15.210938 83.257812 14.867188 82.972656 14.867188 L 70.769531 14.863281 L 70.769531 13.835938 L 82.972656 13.835938 C 83.257812 13.835938 83.480469 13.605469 83.480469 13.328125 C 83.480469 13.046875 83.257812 12.816406 82.972656 12.816406 L 70.769531 12.8125 L 70.769531 11.785156 L 80.683594 11.785156 L 77.75 9.742188 L 83.476562 6.417969 L 89.203125 9.742188 L 86.277344 11.785156 L 92.785156 11.785156 C 93.554688 11.785156 94.191406 12.378906 94.296875 13.125 L 95.683594 23.023438 L 70.769531 23.023438 L 70.769531 17.921875 L 82.972656 17.894531 C 83.257812 17.894531 83.480469 17.667969 83.480469 17.386719 C 83.480469 17.105469 83.257812 16.910156 82.972656 16.910156 L 70.769531 16.910156 L 70.769531 15.886719 L 82.972656 15.886719 C 83.257812 15.886719 83.480469 15.660156 83.480469 15.378906 "
       id="path957" />
    <path
       style=" stroke:none;fill-rule:nonzero;fill:rgb(13.729858%,12.159729%,12.548828%);fill-opacity:1;"
       d="M 96.28125 27.273438 L 95.828125 24.054688 L 90.34375 24.054688 L 90.34375 27.855469 L 95.777344 27.855469 C 96.058594 27.855469 96.285156 27.625 96.285156 27.34375 C 96.285156 27.320312 96.285156 27.296875 96.28125 27.273438 "
       id="path959" />
    <path
       style=" stroke:none;fill-rule:nonzero;fill:rgb(13.729858%,12.159729%,12.548828%);fill-opacity:1;"
       d="M 89.328125 26.589844 C 89.328125 25.109375 88.132812 23.914062 86.65625 23.914062 C 85.183594 23.914062 83.988281 25.109375 83.988281 26.589844 C 83.988281 28.070312 85.183594 29.265625 86.65625 29.265625 C 88.132812 29.265625 89.328125 28.070312 89.328125 26.589844 "
       id="path961" />
    <path
       style=" stroke:none;fill-rule:nonzero;fill:rgb(13.729858%,12.159729%,12.548828%);fill-opacity:1;"
       d="M 82.96875 26.589844 C 82.96875 25.109375 81.777344 23.914062 80.300781 23.914062 C 78.828125 23.914062 77.632812 25.109375 77.632812 26.589844 C 77.632812 28.070312 78.828125 29.265625 80.300781 29.265625 C 81.777344 29.265625 82.96875 28.070312 82.96875 26.589844 "
       id="path963" />
    <path
       style=" stroke:none;fill-rule:nonzero;fill:rgb(13.729858%,12.159729%,12.548828%);fill-opacity:1;"
       d="M 70.773438 30.929688 L 96.195312 30.929688 L 96.195312 29.910156 L 70.773438 29.910156 Z M 70.773438 30.929688 "
       id="path965" />
    <path
       style=" stroke:none;fill-rule:nonzero;fill:rgb(13.729858%,12.159729%,12.548828%);fill-opacity:1;"
       d="M 70.773438 27.855469 L 76.621094 27.855469 L 76.621094 24.03125 L 70.773438 24.03125 Z M 70.773438 27.855469 "
       id="path967" />
    <path
       style=" stroke:none;fill-rule:nonzero;fill:rgb(10.112%,40.585327%,73.280334%);fill-opacity:1;"
       d="M 6.613281 5.414062 L 32.132812 5.414062 L 32.132812 30.929688 L 6.613281 30.929688 L 6.613281 5.414062 "
       id="path969" />
    <path
       style=" stroke:none;fill-rule:nonzero;fill:rgb(100%,100%,100%);fill-opacity:1;"
       d="M 17.230469 27.75 L 14.019531 27.75 L 14.019531 9.652344 L 23.066406 9.652344 C 23.8125 9.652344 24.621094 9.945312 25.109375 10.59375 C 25.761719 11.441406 25.726562 12.25 25.726562 12.25 L 25.726562 18.3125 C 25.726562 18.734375 25.597656 19.640625 24.945312 20.289062 C 24.363281 20.875 23.746094 21.101562 23.066406 21.101562 L 17.230469 21.101562 L 17.230469 27.75 "
       id="path971" />
    <path
       style=" stroke:none;fill-rule:nonzero;fill:rgb(10.112%,40.585327%,73.280334%);fill-opacity:1;"
       d="M 17.203125 18.324219 L 17.203125 12.519531 L 21.808594 12.519531 C 22.003906 12.519531 22.226562 12.519531 22.359375 12.648438 C 22.488281 12.777344 22.519531 12.90625 22.519531 13.199219 L 22.519531 17.644531 C 22.519531 17.867188 22.457031 18.0625 22.324219 18.160156 C 22.195312 18.289062 22.066406 18.324219 21.839844 18.324219 L 17.203125 18.324219 "
       id="path973" />
    <path
       style=" stroke:none;fill-rule:nonzero;fill:rgb(100%,100%,100%);fill-opacity:1;"
       d="M 90.175781 17.390625 C 90.175781 17.671875 90.402344 17.898438 90.683594 17.898438 L 93.351562 17.898438 C 93.632812 17.898438 93.863281 17.671875 93.863281 17.390625 C 93.863281 17.363281 93.863281 17.339844 93.859375 17.316406 L 93.289062 13.265625 C 93.226562 12.824219 93.035156 12.8125 92.777344 12.8125 L 90.679688 12.8125 C 90.398438 12.8125 90.175781 13.023438 90.175781 13.308594 L 90.175781 17.390625 "
       id="path975" />
    <path
       style=" stroke:none;fill-rule:nonzero;fill:rgb(100%,100%,100%);fill-opacity:1;"
       d="M 82.46875 11.785156 L 84.492188 11.785156 L 87.304688 9.820312 L 83.476562 7.609375 L 79.652344 9.824219 L 82.46875 11.785156 "
       id="path977" />
  </g>
</svg>
