<?xml version="1.0" encoding="UTF-8"?>
<svg xmlns="http://www.w3.org/2000/svg" xmlns:xlink="http://www.w3.org/1999/xlink" width="145pt" height="36pt" viewBox="0 0 145 36" version="1.1">
<g id="surface1">
<path style=" stroke:none;fill-rule:nonzero;fill:rgb(13.729858%,12.159729%,12.548828%);fill-opacity:1;" d="M 0.234375 35.890625 L 113.621094 35.890625 L 144.800781 18.183594 L 113.621094 0.457031 L 0.234375 0.457031 L 0.234375 35.890625 "/>
<path style=" stroke:none;fill-rule:nonzero;fill:rgb(100%,100%,100%);fill-opacity:1;" d="M 2.359375 33.761719 L 113.058594 33.761719 L 129.210938 18.179688 L 113.058594 2.582031 L 2.359375 2.582031 L 2.359375 33.761719 "/>
<path style=" stroke:none;fill-rule:nonzero;fill:rgb(13.729858%,12.159729%,12.548828%);fill-opacity:1;" d="M 43.070312 29.363281 L 45.585938 29.363281 L 57.121094 9.261719 L 55.171875 5.863281 L 55.964844 5.417969 L 57.679688 8.277344 L 59.382812 5.417969 L 60.15625 5.863281 L 58.195312 9.261719 L 69.820312 29.363281 L 72.429688 29.363281 L 72.429688 30.929688 L 43.070312 30.929688 L 43.070312 29.363281 "/>
<path style=" stroke:none;fill-rule:nonzero;fill:rgb(100%,100%,100%);fill-opacity:1;" d="M 52.921875 29.398438 L 57.671875 21.21875 L 62.382812 29.398438 L 52.921875 29.398438 "/>
</g>
</svg>
