<?xml version="1.0" encoding="UTF-8" standalone="no"?>
<svg
   xmlns:dc="http://purl.org/dc/elements/1.1/"
   xmlns:cc="http://creativecommons.org/ns#"
   xmlns:rdf="http://www.w3.org/1999/02/22-rdf-syntax-ns#"
   xmlns:svg="http://www.w3.org/2000/svg"
   xmlns="http://www.w3.org/2000/svg"
   xmlns:sodipodi="http://sodipodi.sourceforge.net/DTD/sodipodi-0.dtd"
   xmlns:inkscape="http://www.inkscape.org/namespaces/inkscape"
   width="145pt"
   height="36pt"
   viewBox="0 0 145 36"
   version="1.1"
   id="svg1031"
   sodipodi:docname="448-d.svg"
   inkscape:version="1.0.2 (e86c870879, 2021-01-15, custom)">
  <metadata
     id="metadata1037">
    <rdf:RDF>
      <cc:Work
         rdf:about="">
        <dc:format>image/svg+xml</dc:format>
        <dc:type
           rdf:resource="http://purl.org/dc/dcmitype/StillImage" />
        <dc:title></dc:title>
      </cc:Work>
    </rdf:RDF>
  </metadata>
  <defs
     id="defs1035" />
  <sodipodi:namedview
     pagecolor="#ffffff"
     bordercolor="#666666"
     borderopacity="1"
     objecttolerance="10"
     gridtolerance="10"
     guidetolerance="10"
     inkscape:pageopacity="0"
     inkscape:pageshadow="2"
     inkscape:window-width="1920"
     inkscape:window-height="1017"
     id="namedview1033"
     showgrid="false"
     inkscape:zoom="1.191414"
     inkscape:cx="2.0552281"
     inkscape:cy="3.9960577"
     inkscape:window-x="5752"
     inkscape:window-y="-8"
     inkscape:window-maximized="1"
     inkscape:current-layer="svg1031" />
  <g
     id="surface1">
    <path
       style=" stroke:none;fill-rule:nonzero;fill:rgb(13.729858%,12.159729%,12.548828%);fill-opacity:1;"
       d="M 0.234375 35.890625 L 113.621094 35.890625 L 144.800781 18.183594 L 113.621094 0.457031 L 0.234375 0.457031 L 0.234375 35.890625 "
       id="path1014" />
    <path
       style=" stroke:none;fill-rule:nonzero;fill:rgb(100%,100%,100%);fill-opacity:1;"
       d="M 2.359375 33.761719 L 113.058594 33.761719 L 129.210938 18.179688 L 113.058594 2.582031 L 2.359375 2.582031 L 2.359375 33.761719 "
       id="path1016" />
    <path
       style=" stroke:none;fill-rule:nonzero;fill:rgb(13.729858%,12.159729%,12.548828%);fill-opacity:1;"
       d="M 41.679688 29.601562 L 41.671875 25.800781 C 41.519531 25.644531 41.296875 25.425781 41.152344 25.273438 C 40.65625 24.757812 40.21875 24.1875 39.839844 23.578125 C 39.519531 23.070312 39.253906 22.535156 39.035156 21.976562 C 38.761719 21.242188 38.582031 20.460938 38.484375 19.683594 C 38.363281 18.738281 38.363281 17.785156 38.488281 16.847656 C 38.632812 15.761719 38.96875 14.707031 39.445312 13.726562 C 39.875 12.828125 40.4375 11.988281 41.125 11.261719 C 41.785156 10.570312 42.617188 9.953125 43.425781 9.4375 C 44.292969 8.886719 45.230469 8.398438 46.15625 7.96875 C 47.464844 7.359375 48.8125 6.847656 50.195312 6.449219 C 51.34375 6.117188 52.527344 5.871094 53.710938 5.695312 C 54.816406 5.527344 55.929688 5.441406 57.050781 5.421875 C 58.433594 5.386719 59.816406 5.472656 61.183594 5.664062 C 62.542969 5.859375 63.894531 6.175781 65.207031 6.582031 C 66.644531 7.027344 68.046875 7.609375 69.386719 8.292969 C 70.605469 8.914062 71.785156 9.636719 72.863281 10.472656 C 73.78125 11.191406 74.550781 12.101562 75.171875 13.089844 C 75.65625 13.851562 76.039062 14.679688 76.300781 15.542969 C 76.53125 16.316406 76.648438 17.152344 76.683594 17.957031 C 76.722656 18.75 76.679688 19.550781 76.53125 20.332031 C 76.339844 21.363281 75.957031 22.359375 75.4375 23.269531 C 75.050781 23.945312 74.582031 24.585938 74.023438 25.121094 C 73.902344 25.246094 73.710938 25.410156 73.582031 25.523438 L 73.59375 29.613281 L 76.976562 29.601562 L 76.957031 30.929688 L 38.382812 30.90625 L 38.390625 29.59375 L 41.679688 29.601562 "
       id="path1018" />
    <path
       style=" stroke:none;fill-rule:nonzero;fill:rgb(100%,100%,100%);fill-opacity:1;"
       d="M 57.414062 27.992188 C 57.257812 27.992188 57.09375 27.964844 56.945312 27.902344 C 56.792969 27.84375 56.65625 27.753906 56.535156 27.640625 C 56.421875 27.523438 56.332031 27.386719 56.265625 27.238281 C 56.207031 27.09375 56.167969 26.929688 56.167969 26.765625 C 56.167969 26.605469 56.203125 26.445312 56.261719 26.289062 C 56.328125 26.140625 56.417969 26.003906 56.53125 25.890625 C 56.648438 25.777344 56.785156 25.683594 56.9375 25.625 C 57.085938 25.5625 57.25 25.53125 57.410156 25.53125 C 58.203125 25.539062 58.78125 26.28125 58.59375 27.050781 C 58.460938 27.597656 57.976562 27.984375 57.414062 27.992188 "
       id="path1020" />
    <path
       style=" stroke:none;fill-rule:nonzero;fill:rgb(100%,100%,100%);fill-opacity:1;"
       d="M 55.222656 29.640625 C 54.597656 29.167969 54.15625 28.535156 53.929688 27.78125 C 53.707031 27.03125 53.726562 26.257812 54 25.523438 C 54.265625 24.78125 54.742188 24.175781 55.402344 23.742188 C 56.058594 23.316406 56.804688 23.109375 57.589844 23.15625 C 58.335938 23.199219 59.023438 23.460938 59.617188 23.925781 C 60.207031 24.390625 60.621094 25 60.839844 25.71875 C 61.054688 26.4375 61.039062 27.175781 60.804688 27.886719 C 60.574219 28.597656 60.140625 29.199219 59.535156 29.644531 L 72.394531 29.644531 L 72.398438 26.566406 C 72.375 26.585938 72.308594 26.628906 72.28125 26.636719 C 72.128906 26.703125 71.910156 26.722656 71.75 26.726562 L 61.558594 26.738281 C 61.53125 24.402344 59.605469 22.535156 57.265625 22.582031 C 55.003906 22.628906 53.183594 24.457031 53.148438 26.726562 L 50.902344 26.722656 L 50.882812 13.878906 C 50.894531 13.699219 50.859375 13.523438 50.78125 13.367188 C 50.605469 13.027344 50.246094 12.828125 49.871094 12.847656 L 44.832031 12.835938 C 44.496094 12.820312 44.167969 12.949219 43.933594 13.1875 C 43.722656 13.414062 43.613281 13.71875 43.628906 14.023438 L 43.628906 26.707031 L 42.769531 26.707031 L 42.777344 29.625 L 55.222656 29.640625 "
       id="path1022" />
    <path
       style=" stroke:none;fill-rule:nonzero;fill:rgb(100%,100%,100%);fill-opacity:1;"
       d="M 64.382812 18.121094 L 61.347656 18.125 C 61.140625 18.140625 60.941406 18.070312 60.785156 17.929688 C 60.648438 17.8125 60.5625 17.644531 60.539062 17.460938 L 60.542969 13.828125 C 60.515625 13.601562 60.582031 13.371094 60.726562 13.199219 C 60.894531 13.007812 61.128906 12.898438 61.382812 12.90625 L 67.917969 12.90625 C 68.175781 12.886719 68.421875 12.980469 68.605469 13.15625 C 68.773438 13.328125 68.863281 13.554688 68.855469 13.789062 L 68.855469 17.433594 C 68.847656 17.644531 68.75 17.839844 68.585938 17.972656 C 68.480469 18.058594 68.347656 18.113281 68.210938 18.128906 L 64.382812 18.121094 "
       id="path1024" />
    <path
       style=" stroke:none;fill-rule:nonzero;fill:rgb(13.729858%,12.159729%,12.548828%);fill-opacity:1;"
       d="M 44.453125 26.699219 L 44.441406 14.078125 C 44.421875 13.921875 44.480469 13.773438 44.59375 13.671875 C 44.683594 13.585938 44.808594 13.535156 44.9375 13.535156 L 49.644531 13.546875 C 49.828125 13.53125 50.007812 13.617188 50.105469 13.769531 C 50.175781 13.867188 50.203125 13.980469 50.199219 14.097656 L 50.167969 26.707031 L 44.453125 26.699219 "
       id="path1026" />
    <path
       style=" stroke:none;fill-rule:nonzero;fill:rgb(100%,100%,100%);fill-opacity:1;"
       d="M 45.28125 18.058594 L 45.28125 14.351562 L 49.359375 14.355469 L 49.347656 18.078125 L 45.28125 18.058594 "
       id="path1028" />
  </g>
</svg>
