<?xml version="1.0" encoding="UTF-8" standalone="no"?>
<svg
   xmlns:dc="http://purl.org/dc/elements/1.1/"
   xmlns:cc="http://creativecommons.org/ns#"
   xmlns:rdf="http://www.w3.org/1999/02/22-rdf-syntax-ns#"
   xmlns:svg="http://www.w3.org/2000/svg"
   xmlns="http://www.w3.org/2000/svg"
   xmlns:sodipodi="http://sodipodi.sourceforge.net/DTD/sodipodi-0.dtd"
   xmlns:inkscape="http://www.inkscape.org/namespaces/inkscape"
   width="86pt"
   height="22pt"
   viewBox="0 0 86 22"
   version="1.1"
   id="svg5103"
   sodipodi:docname="450-3-l.svg"
   inkscape:version="1.0.2 (e86c870879, 2021-01-15, custom)">
  <metadata
     id="metadata5109">
    <rdf:RDF>
      <cc:Work
         rdf:about="">
        <dc:format>image/svg+xml</dc:format>
        <dc:type
           rdf:resource="http://purl.org/dc/dcmitype/StillImage" />
        <dc:title></dc:title>
      </cc:Work>
    </rdf:RDF>
  </metadata>
  <defs
     id="defs5107" />
  <sodipodi:namedview
     pagecolor="#ffffff"
     bordercolor="#666666"
     borderopacity="1"
     objecttolerance="10"
     gridtolerance="10"
     guidetolerance="10"
     inkscape:pageopacity="0"
     inkscape:pageshadow="2"
     inkscape:window-width="1920"
     inkscape:window-height="1017"
     id="namedview5105"
     showgrid="false"
     inkscape:zoom="5.6568543"
     inkscape:cx="80.167501"
     inkscape:cy="6.3808664"
     inkscape:window-x="5752"
     inkscape:window-y="-8"
     inkscape:window-maximized="1"
     inkscape:current-layer="svg5103"
     inkscape:document-rotation="0" />
  <path
     style="fill:#ae1e19;fill-opacity:1;stroke-width:0.0115283"
     d=""
     id="path5716"
     transform="scale(0.75)" />
  <path
     style="fill:#ae1e19;fill-opacity:1;stroke-width:0.0115283"
     d=""
     id="path5728"
     transform="scale(0.75)" />
  <path
     style="fill:#ae1e19;fill-opacity:1;stroke-width:0.0115283"
     d=""
     id="path5732"
     transform="scale(0.75)" />
  <path
     style="fill:#ae1e19;fill-opacity:1;stroke-width:0.0115283"
     d=""
     id="path5750"
     transform="scale(0.75)" />
  <path
     style="fill:#ae1e19;fill-opacity:1;stroke-width:0.0115283"
     d=""
     id="path5754"
     transform="scale(0.75)" />
  <path
     style="fill:#ae1e19;fill-opacity:1;stroke-width:0.0115283"
     d=""
     id="path5756"
     transform="scale(0.75)" />
  <path
     style="fill:#ae1e19;fill-opacity:1;stroke-width:0.0115283"
     d=""
     id="path5758"
     transform="scale(0.75)" />
  <path
     style="fill:#ae1e19;fill-opacity:1;stroke-width:0.0115283"
     d=""
     id="path5760"
     transform="scale(0.75)" />
  <path
     style="fill:#ae1e19;fill-opacity:1;stroke-width:0.0115283"
     d=""
     id="path5772"
     transform="scale(0.75)" />
  <path
     style="fill:#ae1e19;fill-opacity:1;stroke-width:0.0115283"
     d=""
     id="path5790"
     transform="scale(0.75)" />
  <path
     style="fill:#ae1e19;fill-opacity:1;stroke-width:0.0115283"
     d=""
     id="path5808"
     transform="scale(0.75)" />
  <path
     style="fill:#ae1e19;fill-opacity:1;stroke-width:0.0115283"
     d=""
     id="path5812"
     transform="scale(0.75)" />
  <path
     style="fill:#ae1e19;fill-opacity:1;stroke-width:0.0115283"
     d=""
     id="path5824"
     transform="scale(0.75)" />
  <path
     style="fill:#ae1e19;fill-opacity:1;stroke-width:0.00204687"
     d=""
     id="path5840"
     transform="scale(0.75)" />
  <path
     style="fill:#ae1e19;fill-opacity:1;stroke-width:0.00204687"
     d=""
     id="path5846"
     transform="scale(0.75)" />
  <path
     style="fill:#ae1e19;fill-opacity:1;stroke-width:0.00204687"
     d=""
     id="path5858"
     transform="scale(0.75)" />
  <path
     style="fill:#ae1e19;fill-opacity:1;stroke-width:0.00204687"
     d=""
     id="path5868"
     transform="scale(0.75)" />
  <path
     style="fill:#ae1e19;fill-opacity:1;stroke-width:0.00204687"
     d=""
     id="path5878"
     transform="scale(0.75)" />
  <path
     style="fill:#ae1e19;fill-opacity:1;stroke-width:0.00204687"
     d=""
     id="path5880"
     transform="scale(0.75)" />
  <path
     style="fill:#ae1e19;fill-opacity:1;stroke-width:0.00204687"
     d=""
     id="path5882"
     transform="scale(0.75)" />
  <g
     stroke="null"
     id="svg_57"
     transform="matrix(-0.08554826,0,0,0.10700885,85.996017,0.28570541)">
    <path
       stroke="#211e1e"
       fill="#ffffff"
       fill-rule="nonzero"
       stroke-width="0.2835"
       stroke-linejoin="round"
       stroke-miterlimit="4"
       id="svg_54"
       d="M 830.75059,200.30066 999.96307,101.03283 830.75059,1.69931 H 0.03655 v 198.60134 h 830.71404" />
    <path
       fill="#ae1e19"
       fill-rule="nonzero"
       id="svg_53"
       d="M 827.67673,188.36836 915.35685,101.03283 827.67673,13.6097 H 11.54778 v 174.75866 h 816.12895" />
    <path
       fill="#ffffff"
       fill-rule="nonzero"
       id="svg_52"
       d="m 103.7645,42.48805 c 0.33919,1.35739 0.80559,2.9776 1.39919,4.22552 1.46274,2.91191 4.45183,4.90428 7.50452,5.05757 3.41305,0.10946 6.02056,-3.15275 6.50818,-6.63394 0.31797,-2.27699 -0.0636,-5.01374 -0.6996,-7.20312 l -14.7123,4.55397" />
    <path
       fill="#ffffff"
       fill-rule="nonzero"
       id="svg_51"
       d="m 118.09523,36.37956 c -0.40279,-1.24793 -0.86919,-2.60538 -1.39914,-3.78767 -1.16599,-2.53969 -3.47671,-4.5102 -6.10539,-4.90428 -2.8831,-0.35031 -5.8298,1.57637 -7.03818,4.24744 l -4.55782,10.53108 19.10052,-6.08657" />
    <path
       fill="#ffffff"
       fill-rule="nonzero"
       id="svg_50"
       d="M 86.76271,45.31235 70.14249,60.44117 c -1.27193,1.18229 -1.01756,3.48114 -0.38157,5.1232 0.72076,1.92668 2.81949,4.5978 4.28224,5.91142 0.53,0.43791 1.25076,0.78822 1.82315,0.54737 0.82675,-0.28462 1.50513,-1.51069 1.90792,-2.34267 l 2.03513,-4.48828 c 1.05995,-2.2113 3.09508,-5.73627 4.43066,-7.8381 l 5.2998,-7.44396 c 0.44518,-0.39414 1.99274,-1.70775 2.4167,-2.16752 0.31797,-0.37222 0.53,-0.89768 0.40279,-1.37931 -0.33919,-1.70775 -4.34584,-2.23321 -5.5966,-1.05092" />
    <path
       fill="#ffffff"
       fill-rule="nonzero"
       id="svg_49"
       d="m 76.58707,76.22684 c 1.73833,-5.03566 4.07026,-10.15886 6.63539,-14.84421 1.78071,-3.37168 3.96427,-6.91856 6.57173,-9.87424 1.78076,-2.01423 4.21869,-3.85336 6.8262,-4.24744 2.98909,-0.5036 6.46574,1.05092 9.00965,2.75867 l 30.10297,19.81412 c 3.1163,-1.29176 6.52934,0.89768 6.76254,4.33504 0.16959,3.2403 -3.15868,6.08657 -6.23259,5.18889 -0.99634,-0.28462 -1.86553,-0.89768 -2.52269,-1.75153 l -6.69894,5.75813 13.39793,15.52296 2.52269,2.9776 c 4.55782,-3.87528 9.90006,-5.82387 15.83585,-5.71441 11.72315,0.30653 21.75042,9.69909 23.1284,21.76277 0.69954,6.04274 -0.67838,11.71332 -3.96427,16.72706 -1.80193,2.73675 -4.11264,5.10134 -6.84737,6.91856 -8.07691,5.27644 -19.29134,4.99182 -27.15627,-1.00714 -7.78011,-6.02088 -11.27798,-16.90227 -8.69168,-26.49184 0.86919,-3.19658 2.3531,-6.15226 4.36706,-8.73578 l -5.72381,-6.83096 -10.09082,39.58452 -14.7759,5.01374 c 3.09508,16.33303 -10.04843,31.00203 -26.05388,29.22865 -12.93159,-1.37936 -22.4288,-13.42107 -21.36885,-26.55753 0.53,-6.61203 3.32828,-12.26069 8.20412,-16.63951 4.81218,-4.35696 10.66321,-6.37119 17.129,-5.95519 L 88.71308,111.93608 75.9087,96.91672 c -1.16594,-1.40122 -2.07751,-3.10892 -2.31071,-4.94805 -0.21198,-1.48877 -0.08482,-3.08706 0.14837,-4.57589 0.59361,-3.80953 1.58995,-7.50965 2.84071,-11.16594" />
    <path
       fill="#ae1e19"
       fill-rule="nonzero"
       id="svg_48"
       d="m 94.33084,84.78741 19.18535,4.20367 0.55117,5.36405 12.16839,-4.59775 -6.33858,-7.04988 8.90366,-7.66295 -22.57717,-13.81515 -11.8928,23.55801" />
    <path
       fill="#ae1e19"
       fill-rule="nonzero"
       id="svg_47"
       d="m 85.87236,129.9549 c -7.67417,0 -14.56392,5.42973 -16.64144,12.87375 -2.05635,7.46588 0.89036,15.74183 7.35615,20.05496 5.68137,3.76581 13.16473,3.65635 18.80372,-0.13138 5.7662,-3.89713 8.62813,-10.99079 7.61057,-17.71229 l -16.13265,5.25458 c -0.93274,0.32839 -1.97152,0.15324 -2.77711,-0.48168 -0.95396,-0.70061 -1.39914,-1.92668 -1.18716,-3.13089 l 2.96792,-16.72706" />
    <path
       fill="#ae1e19"
       fill-rule="nonzero"
       id="svg_46"
       d="m 93.22851,143.13518 -3.9431,1.42308 c -0.25436,0.0437 -0.50878,0 -0.65716,-0.21893 -0.08482,-0.13138 -0.12721,-0.32839 -0.10599,-0.45977 l 2.11995,-13.28969 c 2.33188,0.56923 4.49422,1.66392 6.33853,3.26221 2.01396,1.72961 3.60391,3.91905 4.57904,6.45874 l -8.33127,2.82436" />
    <path
       fill="#ae1e19"
       fill-rule="nonzero"
       id="svg_45"
       d="m 105.05765,103.04707 -5.78736,2.2989 9.11569,16.48627 -3.32833,-18.78517" />
    <path
       fill="#ae1e19"
       fill-rule="nonzero"
       id="svg_44"
       d="m 94.77602,97.02618 9.39128,1.00714 -7.39853,2.7149 -1.99274,-3.72204" />
    <path
       fill="#ae1e19"
       fill-rule="nonzero"
       id="svg_43"
       d="m 147.2654,107.05372 c 3.54026,-2.99951 7.7165,-4.35696 12.25316,-3.96282 9.11569,0.76624 16.19626,8.99842 15.75103,18.45667 -0.40279,9.21746 -7.84371,16.74903 -16.76859,16.92418 -8.81889,0.19707 -16.4294,-6.74341 -17.4258,-15.76375 -0.48756,-4.48834 0.59361,-8.73578 3.20112,-12.37021 l 10.1332,11.49445 4.09148,1.11655 c 1.46274,0.41599 2.92548,-0.63492 3.1163,-2.16747 0.12721,-1.24798 -0.65716,-2.43028 -1.80193,-2.75867 l -3.15868,-0.8539 -9.39128,-10.11503" />
    <path
       fill="#ae1e19"
       fill-rule="nonzero"
       id="svg_42"
       d="m 107.94075,137.90246 c -1.39914,-3.70007 -3.70985,-6.96228 -6.67772,-9.50202 -2.69234,-2.32076 -5.95701,-3.96282 -9.39128,-4.75104 l 1.10233,-7.42205 15.34829,15.82938 c 1.18716,1.18229 2.81949,1.77344 4.45183,1.55452 2.92548,-0.37222 4.98183,-3.02137 4.66381,-6.0428 l -2.92548,-28.28714 15.22108,-5.75818 0.67838,0.67875 -10.00605,39.45314 -12.46519,4.24744" />
  </g>
  <text
     xml:space="default"
     dominant-baseline="middle"
     text-anchor="left"
     font-family="sans-serif"
     font-size="6px"
     id="svg_12-4"
     y="12.630588"
     x="19.410696"
     stroke-width="0"
     stroke="#ffffff"
     fill="#ffffff"
     transform="scale(0.89411988,1.1184183)">param(text1)</text>
</svg>
