<?xml version="1.0" encoding="UTF-8" standalone="no"?>
<svg
   xmlns:dc="http://purl.org/dc/elements/1.1/"
   xmlns:cc="http://creativecommons.org/ns#"
   xmlns:rdf="http://www.w3.org/1999/02/22-rdf-syntax-ns#"
   xmlns:svg="http://www.w3.org/2000/svg"
   xmlns="http://www.w3.org/2000/svg"
   xmlns:sodipodi="http://sodipodi.sourceforge.net/DTD/sodipodi-0.dtd"
   xmlns:inkscape="http://www.inkscape.org/namespaces/inkscape"
   width="77pt"
   height="80pt"
   viewBox="0 0 77 80"
   version="1.1"
   id="svg4410"
   sodipodi:docname="450-5.svg"
   inkscape:version="1.0.2 (e86c870879, 2021-01-15, custom)">
  <metadata
     id="metadata4416">
    <rdf:RDF>
      <cc:Work
         rdf:about="">
        <dc:format>image/svg+xml</dc:format>
        <dc:type
           rdf:resource="http://purl.org/dc/dcmitype/StillImage" />
      </cc:Work>
    </rdf:RDF>
  </metadata>
  <defs
     id="defs4414" />
  <sodipodi:namedview
     pagecolor="#ffffff"
     bordercolor="#666666"
     borderopacity="1"
     objecttolerance="10"
     gridtolerance="10"
     guidetolerance="10"
     inkscape:pageopacity="0"
     inkscape:pageshadow="2"
     inkscape:window-width="1920"
     inkscape:window-height="1017"
     id="namedview4412"
     showgrid="false"
     inkscape:zoom="3.984375"
     inkscape:cx="97.932869"
     inkscape:cy="59.660915"
     inkscape:window-x="5752"
     inkscape:window-y="-8"
     inkscape:window-maximized="1"
     inkscape:current-layer="svg4410" />
  <rect
     style="opacity:1;fill:#ffffff;fill-opacity:1;stroke:#ffffff;stroke-width:0.0750683;stroke-opacity:1"
     id="rect4981"
     width="77.011688"
     height="79.929344"
     x="0.070622422"
     y="0.070622414" />
  <path
     style="fill:#ae1e19;fill-opacity:1;fill-rule:nonzero;stroke:none"
     d="m 1.53125,1.804688 h 73.984375 v 18.1875 H 1.53125 v -18.1875 m 0,58.539062 v 18.1875 H 75.515625 V 60.34375 H 1.53125 m 0,-39.042969 V 39.496094 H 75.515625 V 21.300781 H 1.53125 m 0,19.53125 v 18.1875 h 73.984375 v -18.1875 H 1.53125 m 31.082031,-9.0625 c 0,-0.402343 -0.07813,-0.738281 -0.230469,-1 C 32.238281,30.5 32.039062,30.289062 31.804688,30.148438 31.566406,29.996094 31.3125,29.90625 31.050781,29.859375 v -0.01563 c 0.359375,-0.101562 0.675781,-0.292969 0.945313,-0.578125 0.277344,-0.277344 0.421875,-0.679687 0.433594,-1.191406 0,-0.621094 -0.191407,-1.109375 -0.589844,-1.4375 C 31.445312,26.300781 30.835938,26.125 30.007812,26.125 H 27.71875 v 7.820312 h 2.289062 c 0.828126,-0.01953 1.472657,-0.222656 1.921876,-0.625 0.453124,-0.390624 0.683593,-0.914062 0.683593,-1.550781 M 31.15625,28.199219 c 0,-0.339844 -0.113281,-0.613281 -0.339844,-0.824219 -0.234375,-0.210938 -0.578125,-0.320312 -1.042968,-0.320312 H 29 v 2.394531 h 0.699219 c 0.488281,-0.0078 0.847656,-0.125 1.089843,-0.351563 0.242188,-0.226562 0.367188,-0.53125 0.367188,-0.898437 m 0.164062,3.492187 c 0.01172,-0.375 -0.109374,-0.6875 -0.332031,-0.929687 -0.234375,-0.246094 -0.585937,-0.371094 -1.078125,-0.378907 H 29 v 2.601563 h 0.871094 c 0.488281,-0.0039 0.847656,-0.125 1.089844,-0.367187 0.242187,-0.242188 0.359374,-0.546876 0.359374,-0.925782 m 7.40625,2.253906 c -0.01953,-0.109374 -0.03516,-0.253906 -0.04687,-0.421874 -0.01953,-0.167969 -0.02344,-0.34375 -0.02344,-0.539063 v -2.726563 c 0,-0.378906 -0.05078,-0.699218 -0.128906,-0.953124 -0.08984,-0.25 -0.207032,-0.457032 -0.359375,-0.621094 -0.144531,-0.148438 -0.351563,-0.273438 -0.640625,-0.390625 -0.292969,-0.113281 -0.664063,-0.167969 -1.121094,-0.179688 -0.398438,0.01172 -0.75,0.05078 -1.054688,0.144531 -0.308593,0.08594 -0.578124,0.183594 -0.800781,0.308594 l 0.09766,0.992188 c 0.160156,-0.152344 0.394531,-0.277344 0.683593,-0.394532 0.28125,-0.109374 0.605469,-0.167968 0.945313,-0.175781 0.433594,0 0.746094,0.117188 0.957031,0.335938 0.179687,0.226562 0.257813,0.511719 0.25,0.867187 v 0.234375 h -0.449219 c -1,0 -1.757812,0.152344 -2.277344,0.46875 -0.511718,0.308594 -0.773437,0.796875 -0.78125,1.453125 0.01563,0.546875 0.1875,0.96875 0.527344,1.242188 0.34375,0.285156 0.769532,0.429687 1.273438,0.429687 0.449218,0 0.816406,-0.07422 1.085937,-0.21875 0.28125,-0.144531 0.496094,-0.328125 0.65625,-0.554687 h 0.0078 c 0,0.08594 0.01172,0.210937 0.01953,0.359375 0.01563,0.152343 0.03516,0.269531 0.05078,0.339843 h 1.128906 m -1.242187,-2.304687 v -0.503906 c -0.05469,0 -0.109375,-0.0039 -0.191406,-0.0039 -0.07813,0 -0.160157,0 -0.234375,0 -1.238282,0 -1.871094,0.367188 -1.878906,1.113282 0,0.285156 0.08203,0.515625 0.253906,0.683594 0.160156,0.171874 0.402344,0.257812 0.726562,0.257812 0.441406,-0.0078 0.765625,-0.152344 0.988282,-0.425781 0.21875,-0.289063 0.324218,-0.65625 0.335937,-1.121094 m 7.671875,2.304687 C 45.1328,33.652351 45.11327,33.316413 45.11327,32.917976 v -7.375 h -1.25 v 3.34375 h -0.0078 c -0.175782,-0.253914 -0.390626,-0.44532 -0.640626,-0.57032 -0.253906,-0.136718 -0.566406,-0.203125 -0.960938,-0.203125 -0.660156,0.01172 -1.167968,0.261719 -1.546875,0.757813 -0.378906,0.503906 -0.570312,1.234375 -0.578125,2.199218 0.0078,0.90625 0.1875,1.625 0.558594,2.148438 0.359375,0.523438 0.890625,0.792969 1.589844,0.800781 0.449218,-0.0078 0.804687,-0.08203 1.054687,-0.242187 C 43.585938,33.625 43.773438,33.421875 43.90625,33.1875 h 0.01953 c 0,0.117188 0,0.261719 0.01953,0.429688 0.0078,0.160156 0.01953,0.269531 0.02344,0.328124 h 1.1875 M 43.863281,31.0625 c 0,-0.648438 -0.09766,-1.152344 -0.296875,-1.511719 -0.199218,-0.363281 -0.515625,-0.546875 -0.953125,-0.546875 -0.433593,0 -0.75,0.179688 -0.945312,0.53125 -0.199219,0.351563 -0.289063,0.855469 -0.289063,1.5 -0.0078,0.699219 0.08984,1.222656 0.269532,1.574219 0.191406,0.351563 0.503906,0.527344 0.953124,0.527344 0.441407,-0.0078 0.765626,-0.191407 0.964844,-0.5625 0.207032,-0.367188 0.296875,-0.871094 0.296875,-1.511719 m 7.441407,0.328125 v -0.394531 c -0.01953,-1 -0.234376,-1.730469 -0.648438,-2.199219 C 50.242188,28.332031 49.683594,28.105469 49,28.105469 c -0.78125,0.01953 -1.386719,0.292969 -1.816406,0.839843 -0.425782,0.539063 -0.640625,1.261719 -0.648438,2.152344 0,0.570313 0.09766,1.0625 0.289063,1.5 0.199219,0.4375 0.492187,0.785156 0.890625,1.035156 0.386718,0.242188 0.890625,0.371094 1.484375,0.378907 0.378906,0 0.71875,-0.04297 1.023437,-0.109375 0.296875,-0.06641 0.550782,-0.152344 0.757813,-0.234375 l -0.06641,-0.972657 c -0.148437,0.105469 -0.359374,0.207032 -0.609374,0.308594 -0.242188,0.09375 -0.546876,0.144532 -0.898438,0.144532 -0.566406,0 -0.980469,-0.144532 -1.246094,-0.449219 -0.25,-0.292969 -0.382812,-0.730469 -0.375,-1.308594 h 3.519532 M 50.082031,30.59375 c 0,-1.101562 -0.378906,-1.65625 -1.117187,-1.65625 -0.359375,0 -0.648438,0.152344 -0.855469,0.4375 -0.207031,0.285156 -0.3125,0.6875 -0.324219,1.21875 h 2.296875 m 7.25,3.324219 v -3.839844 c 0.0078,-0.609375 -0.144531,-1.089844 -0.429687,-1.445313 -0.300782,-0.351562 -0.75,-0.527343 -1.371094,-0.535156 -0.730469,-0.01563 -1.257812,0.261719 -1.601562,0.820313 h -0.01563 c 0,-0.08203 -0.01172,-0.207031 -0.01953,-0.367188 -0.01563,-0.167969 -0.02734,-0.292969 -0.02734,-0.378906 h -1.175782 c 0.02344,0.34375 0.04297,0.707031 0.05078,1.101563 v 4.644531 h 1.242187 v -3.402344 c 0,-0.453125 0.09766,-0.796875 0.296875,-1.058594 0.195312,-0.25 0.496094,-0.386719 0.878906,-0.386719 0.320313,-0.0039 0.554688,0.09375 0.703125,0.304688 0.144531,0.199219 0.226563,0.53125 0.226563,0.972656 v 3.570313 h 1.242187 M 33.515625,49.835938 c -0.0078,-0.847657 -0.152344,-1.535157 -0.449219,-2.074219 -0.289062,-0.535157 -0.667968,-0.9375 -1.136718,-1.21875 C 31.660156,46.375 31.339844,46.242188 30.96875,46.152344 30.597656,46.046875 30.148438,46 29.628906,46 h -1.996094 v 7.816406 h 1.734376 c 1.371093,-0.01563 2.402343,-0.367187 3.105468,-1.0625 0.691406,-0.707031 1.042969,-1.675781 1.042969,-2.917968 m -1.367187,0 c 0.0078,-0.554688 -0.07813,-1.046876 -0.261719,-1.480469 -0.179688,-0.425781 -0.464844,-0.769531 -0.855469,-1.011719 -0.394531,-0.246094 -0.898438,-0.363281 -1.527344,-0.371094 h -0.578125 v 5.871094 h 0.578125 c 0.890625,-0.0078 1.554688,-0.277344 1.996094,-0.808594 0.429688,-0.523437 0.65625,-1.257812 0.648438,-2.199218 m 6.613281,-2.839844 v -1.175782 h -1.054688 v 1.175782 h 1.054688 m -1.972657,0 v -1.175782 h -1.050781 v 1.175782 h 1.050781 m 2.699219,6.820312 c -0.01953,-0.105468 -0.02344,-0.25 -0.04297,-0.417968 -0.01953,-0.167969 -0.01953,-0.34375 -0.02734,-0.539063 v -2.726563 c 0,-0.378906 -0.03516,-0.699218 -0.128907,-0.953124 -0.07812,-0.25 -0.203124,-0.460938 -0.359374,-0.621094 -0.132813,-0.152344 -0.347657,-0.277344 -0.636719,-0.394532 -0.285157,-0.109374 -0.664063,-0.167968 -1.125,-0.175781 -0.386719,0.0078 -0.738281,0.05078 -1.042969,0.144531 -0.304688,0.08594 -0.578125,0.183594 -0.808594,0.308594 l 0.09766,0.992188 c 0.171876,-0.152344 0.398438,-0.277344 0.683594,-0.394532 0.289063,-0.109374 0.601563,-0.167968 0.945313,-0.179687 0.429687,0 0.746093,0.121094 0.953125,0.339844 0.179687,0.226562 0.261718,0.511719 0.25,0.867187 v 0.234375 h -0.449219 c -0.996094,0 -1.753906,0.152344 -2.273437,0.46875 -0.515626,0.308594 -0.773438,0.796875 -0.785157,1.453125 0.01953,0.546875 0.199219,0.96875 0.535157,1.242188 0.339843,0.285156 0.761718,0.429687 1.265624,0.429687 0.460938,0 0.820313,-0.07813 1.097657,-0.21875 0.269531,-0.144531 0.484375,-0.328125 0.648437,-0.554687 h 0.0078 c 0,0.08594 0.0078,0.210937 0.02734,0.359375 0.01172,0.152343 0.02734,0.269531 0.04688,0.335937 h 1.121093 m -1.242187,-2.300781 v -0.503906 c -0.04297,0 -0.105469,-0.0078 -0.1875,-0.0078 -0.08203,0 -0.152344,0 -0.230469,0 -1.242187,0 -1.867187,0.371094 -1.882813,1.117188 0,0.285156 0.08203,0.515625 0.25,0.679687 0.171876,0.175781 0.414063,0.261719 0.730469,0.261719 0.441407,-0.0078 0.765625,-0.152344 0.992188,-0.425781 0.222656,-0.289063 0.328125,-0.65625 0.328125,-1.121094 m 5.867187,2.210937 v -0.875 c -0.148437,0.07422 -0.347656,0.125 -0.601562,0.136719 -0.214844,0.0039 -0.386719,-0.0625 -0.484375,-0.1875 -0.109375,-0.125 -0.164063,-0.34375 -0.164063,-0.652343 v -3.183594 h 1.25 v -0.890625 h -1.25 v -1.53125 l -1.242187,0.351562 v 1.179688 h -0.988282 v 0.890625 h 0.988282 v 3.417968 c 0,0.542969 0.136718,0.941407 0.40625,1.175782 0.269531,0.226562 0.65625,0.34375 1.160156,0.335937 0.378906,-0.0078 0.683594,-0.06641 0.925781,-0.167969 m 4.1875,0 v -0.875 c -0.144531,0.07422 -0.355469,0.125 -0.59375,0.136719 -0.230469,0.0039 -0.390625,-0.0625 -0.496093,-0.1875 -0.109376,-0.125 -0.152344,-0.34375 -0.152344,-0.652343 v -3.183594 h 1.242187 v -0.890625 h -1.242187 v -1.53125 l -1.253906,0.351562 v 1.179688 h -0.976563 v 0.890625 h 0.976563 v 3.417968 c 0,0.542969 0.136718,0.941407 0.40625,1.175782 0.269531,0.226562 0.65625,0.34375 1.171874,0.335937 0.367188,-0.0078 0.683594,-0.06641 0.917969,-0.167969 m 8.976563,-5.652343 h -1.222656 l -1.074219,4.636719 h -0.01563 l -1.117188,-4.636719 h -1.457031 l -1.097656,4.636719 h -0.02344 L 50.1875,48.074219 h -1.292969 l 1.644531,5.742187 h 1.382813 l 1.132813,-4.660156 h 0.01953 l 1.207031,4.660156 h 1.378906 l 1.617188,-5.742187 m 2.484375,-1.160157 V 45.667969 H 58.4375 v 1.246093 h 1.324219 m -0.03516,6.902344 v -5.742187 h -1.253906 v 5.742187 h 1.253906 m 3.191407,0 v -8.398437 h -1.25 v 8.398437 h 1.25 M 10.671875,73.085938 V 65.277344 H 9.472656 v 6.179687 H 9.46875 L 6.550781,65.277344 H 4.914062 v 7.808594 H 6.121094 V 66.964844 H 6.125 l 2.917969,6.121094 h 1.628906 m 6.449219,-2.542969 v -0.394531 c -0.01563,-1 -0.234375,-1.738282 -0.648438,-2.203126 -0.414062,-0.460937 -0.96875,-0.695312 -1.652344,-0.6875 -0.78125,0.01563 -1.386718,0.296876 -1.820312,0.832032 -0.417969,0.546875 -0.636719,1.261718 -0.648438,2.160156 0,0.5625 0.101563,1.066406 0.289063,1.503906 0.199219,0.4375 0.496094,0.773438 0.894531,1.023438 0.382813,0.253906 0.886719,0.378906 1.480469,0.386718 0.378906,-0.0078 0.71875,-0.04297 1.027344,-0.117187 0.296875,-0.06641 0.550781,-0.144531 0.753906,-0.234375 l -0.05859,-0.976562 c -0.15625,0.121093 -0.359375,0.21875 -0.613281,0.308593 -0.246094,0.09375 -0.550781,0.148438 -0.898438,0.152344 -0.570312,0 -0.984374,-0.152344 -1.242187,-0.441406 -0.253906,-0.304688 -0.390625,-0.742188 -0.378906,-1.3125 h 3.515625 m -1.222656,-0.800781 c 0,-1.097657 -0.378907,-1.652344 -1.117188,-1.652344 -0.359375,0 -0.644531,0.140625 -0.851562,0.429687 -0.210938,0.28125 -0.316407,0.699219 -0.324219,1.222657 h 2.292969 m 7.296874,3.34375 c -0.02734,-0.34375 -0.04687,-0.703126 -0.05078,-1.089844 V 67.34375 H 21.902344 V 70.75 c 0,0.449219 -0.101563,0.800781 -0.300782,1.054688 -0.195312,0.25 -0.492187,0.386718 -0.882812,0.394531 -0.3125,0 -0.546875,-0.105469 -0.699219,-0.304688 C 19.867188,71.6875 19.796875,71.367188 19.796875,70.917969 V 67.34375 h -1.242187 v 3.84375 c -0.01172,0.605469 0.144531,1.09375 0.429687,1.445312 0.296875,0.347657 0.746094,0.53125 1.367187,0.539063 0.730469,0.0078 1.261719,-0.269531 1.605469,-0.828125 h 0.01563 c 0,0.08203 0.0078,0.207031 0.01953,0.375 0.01562,0.160156 0.02344,0.285156 0.02344,0.367188 h 1.179687 m 6.199219,-2.542969 v -0.394531 c -0.01953,-1 -0.234375,-1.738282 -0.648437,-2.203126 -0.414063,-0.460937 -0.972656,-0.695312 -1.65625,-0.6875 -0.78125,0.01563 -1.382813,0.296876 -1.816406,0.832032 -0.421876,0.546875 -0.636719,1.261718 -0.648438,2.160156 0,0.5625 0.101562,1.066406 0.300781,1.503906 0.183594,0.4375 0.484375,0.773438 0.878907,1.023438 0.386718,0.253906 0.890624,0.378906 1.484374,0.386718 0.378907,-0.0078 0.71875,-0.04297 1.027344,-0.117187 0.296875,-0.06641 0.546875,-0.144531 0.753906,-0.234375 l -0.0625,-0.976562 c -0.152343,0.121093 -0.359374,0.21875 -0.609374,0.308593 -0.246094,0.09375 -0.550782,0.148438 -0.902344,0.152344 -0.566406,0 -0.980469,-0.152344 -1.238282,-0.441406 -0.253906,-0.304688 -0.378906,-0.742188 -0.378906,-1.3125 h 3.515625 m -1.222656,-0.800781 c 0,-1.097657 -0.378906,-1.652344 -1.117187,-1.652344 -0.359376,0 -0.648438,0.140625 -0.851563,0.429687 -0.210937,0.28125 -0.316406,0.699219 -0.324219,1.222657 h 2.292969 m 7.25,3.328124 V 69.222656 C 35.433601,68.609375 35.27735,68.132812 34.992194,67.777344 34.695318,67.425781 34.2461,67.25 33.6211,67.242188 c -0.726563,-0.01953 -1.257813,0.261718 -1.597656,0.832031 h -0.01953 c 0,-0.08594 -0.0078,-0.210938 -0.01953,-0.378907 -0.01563,-0.160156 -0.02344,-0.285156 -0.02344,-0.371093 H 30.78125 c 0.02734,0.335937 0.04687,0.707031 0.05469,1.09375 v 4.652343 h 1.238281 v -3.410156 c 0,-0.441406 0.101562,-0.796875 0.300781,-1.050781 0.199219,-0.261719 0.492188,-0.382813 0.882812,-0.394531 0.3125,0 0.542969,0.101562 0.699219,0.304687 0.152344,0.210938 0.222657,0.527344 0.222657,0.972657 v 3.578124 h 1.242187 m 6.296875,0.01563 V 69.25 c 0.01172,-0.613281 -0.140625,-1.09375 -0.429688,-1.445312 -0.296874,-0.351563 -0.746093,-0.53125 -1.367187,-0.535157 -0.402344,0.0039 -0.71875,0.07422 -0.960937,0.214844 -0.246094,0.144531 -0.433594,0.308594 -0.570313,0.511719 H 38.375 V 64.6875 h -1.242188 v 8.398438 H 38.375 V 69.6875 c 0,-0.449219 0.09766,-0.800781 0.296875,-1.058594 0.199219,-0.25 0.492187,-0.386718 0.882813,-0.386718 0.3125,0 0.546874,0.101562 0.703124,0.300781 0.140626,0.203125 0.21875,0.53125 0.21875,0.976562 v 3.566407 h 1.242188 m 6.671875,-2.878907 c 0,-0.6875 -0.121094,-1.253906 -0.355469,-1.679687 -0.222656,-0.4375 -0.527344,-0.753906 -0.925781,-0.957032 -0.386719,-0.210937 -0.824219,-0.3125 -1.304687,-0.300781 -0.484376,-0.01172 -0.921876,0.08984 -1.3125,0.300781 -0.398438,0.203126 -0.703126,0.519532 -0.925782,0.957032 -0.234375,0.425781 -0.351562,0.992187 -0.351562,1.679687 0,0.695313 0.117187,1.269531 0.351562,1.703125 0.222656,0.4375 0.527344,0.757813 0.925782,0.957032 0.390624,0.203124 0.828124,0.296874 1.3125,0.296874 0.480468,0 0.917968,-0.09375 1.304687,-0.296874 0.398437,-0.199219 0.703125,-0.519532 0.925781,-0.957032 0.234375,-0.433594 0.355469,-1.007812 0.355469,-1.703125 m -1.289063,0 c 0,-0.613281 -0.08984,-1.101562 -0.289062,-1.488281 -0.199219,-0.375 -0.539062,-0.570312 -1.007812,-0.585938 -0.472657,0.01563 -0.808594,0.210938 -1.007813,0.585938 -0.199219,0.386719 -0.292969,0.875 -0.285156,1.488281 -0.0078,0.613281 0.08594,1.109375 0.285156,1.496094 0.199219,0.375 0.535156,0.578125 1.007813,0.589844 0.46875,-0.01172 0.808593,-0.214844 1.007812,-0.589844 0.199219,-0.386719 0.289062,-0.882813 0.289062,-1.496094 m 5.75,-4.628906 v -0.898437 c -0.144531,-0.03125 -0.296874,-0.06641 -0.46875,-0.08203 -0.160156,-0.02734 -0.304687,-0.04687 -0.429687,-0.04687 -0.59375,0.01172 -1.019531,0.167969 -1.273437,0.464844 -0.257813,0.285156 -0.375,0.664063 -0.363282,1.109375 v 1.21875 h -1.011718 v 0.898438 h 1.011718 v 4.84375 h 1.238282 v -4.84375 h 1.117187 V 67.34375 H 51.554688 V 66.25 c -0.0078,-0.523438 0.234374,-0.78125 0.722656,-0.789062 0.07813,0 0.167968,0.01562 0.277344,0.03125 0.117187,0.02734 0.214843,0.05078 0.296874,0.08594 m -9.902343,-54.589844 0.910156,2.113281 c 0.05469,0.144532 0.222656,0.453126 0.08984,0.65625 -0.164063,0.238282 -0.554688,0.21875 -0.816407,0.21875 l -2.128906,0.0039 c 0.285156,1.078125 1.328125,1.878906 2.570313,1.878906 1.457031,0 2.644531,-1.105469 2.644531,-2.46875 0,-1.363281 -1.1875,-2.472656 -2.644531,-2.472656 -0.214844,0 -0.425781,0.02734 -0.625,0.07031 m -2.253903,-2.6289 H 34.769531 L 34.566406,9.027344 39,13.207031 40.695312,8.359375 m 1.378907,2.207031 -0.816407,-1.808594 -1.617187,4.585938 h 0.574219 c 0.01953,-1.214844 0.769531,-2.265625 1.859375,-2.777344 m -8.164063,0.492188 -0.707031,2.390625 c -0.04297,0.128906 -0.175781,0.304687 -0.445313,0.230469 -0.273437,-0.07031 -0.25,-0.292969 -0.210937,-0.410157 l 0.714844,-2.363281 c -0.109375,-0.01563 -0.21875,-0.01953 -0.328125,-0.01953 -1.460938,0 -2.648438,1.101562 -2.648438,2.464843 0,1.363282 1.1875,2.46875 2.648438,2.46875 1.457031,0 2.644531,-1.105468 2.644531,-2.46875 0,-1.039062 -0.691406,-1.929687 -1.667969,-2.292968 M 42.699219,10.363281 41.5625,7.765625 41.78125,7.195312 h 0.511719 V 6.574219 h -2.121094 v 0.40625 L 41.117188,7.195312 40.90625,7.765625 H 34.945312 L 35.167969,7.09375 c 0.05078,-0.167969 0.09375,-0.308594 0.226562,-0.417969 0.132813,-0.101562 0.378907,-0.101562 0.574219,-0.101562 h 1 V 5.957031 h -1.246094 c -0.378906,0 -0.703125,0.121094 -0.902344,0.308594 -0.167968,0.15625 -0.265624,0.429687 -0.332031,0.652344 l -1.015625,3.328125 c -0.179687,-0.02734 -0.347656,-0.04687 -0.53125,-0.04687 -1.863281,0 -3.378906,1.414062 -3.378906,3.152343 0,1.738282 1.515625,3.15625 3.378906,3.15625 1.863282,0 3.378906,-1.417968 3.378906,-3.15625 0,-1.355468 -0.941406,-2.488281 -2.222656,-2.941406 l 0.230469,-0.691406 4.148437,3.878906 c 0.140626,0.125 0.296876,0.25 0.484376,0.308594 0.175781,0.06641 0.398437,0.06641 0.574218,0.06641 l 0.738282,0.0039 c 0.292968,1.457032 1.667968,2.5625 3.316406,2.5625 1.863281,0 3.375,-1.410156 3.375,-3.148437 0,-1.738281 -1.511719,-3.152344 -3.375,-3.152344 -0.308594,0 -0.605469,0.05469 -0.890625,0.125 m -0.371094,0.84375 c -0.832031,0.421875 -1.386719,1.195313 -1.386719,2.136719 h 2.285156 L 42.328125,11.207031 M 9.832031,37.015625 h 3.800781 L 13.125,30.15625 17.546875,31.1875 c 0.03906,0.01172 0.08203,0.01563 0.125,0.01563 0.28125,0 0.503906,-0.214844 0.503906,-0.476563 0,-0.117187 -0.04297,-0.222656 -0.121093,-0.304687 l -5.9375,-6.46875 c -0.09375,-0.101563 -0.230469,-0.167969 -0.386719,-0.167969 -0.152344,0 -0.292969,0.06641 -0.386719,0.167969 l -5.9375,6.46875 c -0.074219,0.08203 -0.121094,0.1875 -0.121094,0.304687 0,0.261719 0.226563,0.476563 0.507813,0.476563 0.039062,0 0.082031,-0.0078 0.121093,-0.01563 l 4.421876,-1.03125 -0.503907,6.859375 m 8.34375,14.683594 v -3.550781 l -7.347656,0.472656 1.105469,-4.128906 c 0.01172,-0.03516 0.01563,-0.07422 0.01563,-0.113282 0,-0.261718 -0.226563,-0.476562 -0.503907,-0.476562 -0.125,0 -0.242187,0.04687 -0.332031,0.117187 L 4.1875,49.5625 c -0.109375,0.08984 -0.179688,0.21875 -0.179688,0.359375 0,0.144531 0.070313,0.273437 0.179688,0.359375 l 6.925781,5.546875 c 0.08984,0.07031 0.207031,0.113281 0.332031,0.113281 0.277344,0 0.503907,-0.210937 0.503907,-0.472656 0,-0.03906 -0.0039,-0.07813 -0.01563,-0.117188 l -1.105469,-4.128906 7.347656,0.476563 m 40.265625,19.511719 7.347656,-0.472657 -1.105468,4.128907 c -0.01172,0.03906 -0.01563,0.07812 -0.01563,0.117187 0,0.261719 0.226562,0.472656 0.503906,0.472656 0.125,0 0.242187,-0.04297 0.332031,-0.113281 l 6.925782,-5.546875 c 0.109374,-0.08594 0.179687,-0.214844 0.179687,-0.359375 0,-0.144531 -0.07031,-0.273438 -0.179687,-0.359375 L 65.503906,63.53125 c -0.08984,-0.07031 -0.207031,-0.113281 -0.332031,-0.113281 -0.277344,0 -0.503906,0.214843 -0.503906,0.472656 0,0.04297 0.0039,0.08203 0.01563,0.117187 l 1.105468,4.128907 -7.347656,-0.472657 v 3.546876"
     id="path4407" />
</svg>
