<?xml version="1.0" encoding="UTF-8" standalone="no"?>
<svg
   width="86pt"
   height="22pt"
   viewBox="0 0 86 22"
   version="1.1"
   id="svg6028"
   xmlns="http://www.w3.org/2000/svg"
   xmlns:svg="http://www.w3.org/2000/svg"
   xmlns:rdf="http://www.w3.org/1999/02/22-rdf-syntax-ns#"
   xmlns:cc="http://creativecommons.org/ns#"
   xmlns:dc="http://purl.org/dc/elements/1.1/">
  <metadata
     id="metadata6034">
    <rdf:RDF>
      <cc:Work
         rdf:about="">
        <dc:format>image/svg+xml</dc:format>
        <dc:type
           rdf:resource="http://purl.org/dc/dcmitype/StillImage" />
      </cc:Work>
    </rdf:RDF>
  </metadata>
  <defs
     id="defs6032" />
  <g
     aria-label="i"
     id="text10957"
     style="font-style:italic;font-size:12px;line-height:1.25;-inkscape-font-specification:'sans-serif Italic';fill:#ffffff;stroke-width:0.75">
    <g
       id="g12356">
      <path
         style="fill:#ffffff;fill-opacity:1;stroke:none;stroke-width:0.75px;stroke-linecap:butt;stroke-linejoin:miter;stroke-opacity:1"
         d="M 0.484375,0.496094 V 21.472656 L 72.613281,21.613281 85.160152,10.984375 72.613281,0.351562 Z"
         id="path1150" />
      <g
         id="surface1">
        <path
           style="fill:#ae1e19;fill-opacity:1;fill-rule:nonzero;stroke:none"
           d="M 1.773438,1.777344 V 20.203125 H 72.625 L 81.097656,10.984375 72.625,1.777344 H 1.773438 m 16.679687,9.09375 c 0.214844,0.05859 0.324219,0.191406 0.324219,0.398437 0,0.113281 -0.02734,0.242188 -0.08203,0.382813 -0.07812,0.210937 -0.265624,0.421875 -0.5625,0.632812 -0.300781,0.207032 -0.5625,0.316406 -0.792968,0.324219 -0.617188,-0.0078 -1.1875,-0.01172 -1.714844,-0.01172 -0.324219,0 -0.765625,0.0039 -1.324219,0.0078 -0.585937,0.0039 -1.0625,0.0078 -1.425781,0.0078 -0.171875,0 -0.34375,0 -0.523438,-0.0039 -0.925781,-0.0039 -1.5625,-0.08203 -1.914062,-0.234375 -0.15625,-0.06641 -0.269531,-0.148438 -0.335938,-0.253906 -0.06641,-0.101563 -0.09766,-0.234375 -0.09766,-0.398438 0,-0.238281 0.07031,-0.574218 0.207032,-1 v -0.0039 c 0.05859,-0.179688 0.210937,-0.429688 0.460937,-0.75 0.300781,-0.386719 0.515625,-0.726562 0.652344,-1.019531 0.226562,-0.496094 0.367187,-1.085938 0.414062,-1.773438 0.01563,-0.171875 0.07813,-0.40625 0.179688,-0.707031 0.05859,-0.175781 0.125,-0.316406 0.1875,-0.417969 0.05469,-0.085937 0.09766,-0.132812 0.128906,-0.140625 0.0078,0 0.01172,0.00391 0.02344,0.00781 0.214844,0.136719 0.464844,0.207031 0.746094,0.207031 0.242188,0 0.613282,-0.074219 1.105469,-0.222656 0.457031,-0.136719 0.785156,-0.203125 0.988281,-0.203125 0.195313,0 0.363282,0.042969 0.511719,0.128906 -0.296875,0.785156 -0.613281,1.625 -0.953125,2.523437 -0.05078,0.132813 -0.07422,0.261719 -0.07422,0.390626 0,0.53125 0.414063,0.976562 1.246094,1.34375 0.433594,0.191406 1.132813,0.40625 2.097656,0.648437 0.246094,0.0625 0.421875,0.109375 0.527344,0.136719 m 0.136719,-0.492188 c -0.08594,-0.02734 -0.265625,-0.07031 -0.539063,-0.140625 -0.9375,-0.234375 -1.609375,-0.441406 -2.015625,-0.621093 -0.628906,-0.277344 -0.941406,-0.570313 -0.941406,-0.875 0,-0.066407 0.01172,-0.136719 0.03906,-0.210938 0.34375,-0.910156 0.664063,-1.75 0.957032,-2.519531 l 0.152344,-0.40625 -0.371094,-0.21875 C 15.644531,5.253906 15.386719,5.1875 15.101562,5.1875 c -0.253906,0 -0.632812,0.074219 -1.136718,0.226562 -0.445313,0.132813 -0.765625,0.199219 -0.957032,0.199219 -0.183593,0 -0.34375,-0.042969 -0.476562,-0.128906 C 12.47266,5.449219 12.414062,5.425781 12.355469,5.410156 l -0.125,-0.027344 -0.121094,0.03125 C 11.949219,5.457031 11.804688,5.578125 11.679688,5.773438 11.589844,5.910156 11.511719,6.085938 11.4375,6.300781 11.320312,6.636719 11.253906,6.914062 11.230469,7.125 V 7.144531 C 11.1875,7.765625 11.0625,8.292969 10.859375,8.734375 c -0.117187,0.257813 -0.3125,0.5625 -0.589844,0.917969 -0.285156,0.371094 -0.46875,0.671875 -0.542969,0.910156 -0.152343,0.480469 -0.230468,0.863281 -0.230468,1.15625 0,0.269531 0.058594,0.496094 0.179687,0.679688 0.125,0.1875 0.3125,0.339843 0.5625,0.445312 0.414063,0.179688 1.117188,0.269531 2.113281,0.277344 h 0.527344 c 0.363282,0 0.839844,-0.0039 1.429688,-0.0078 0.554687,-0.0039 0.992187,-0.0078 1.316406,-0.0078 0.527344,0 1.09375,0.0078 1.710938,0.01563 h 0.02344 c 0.332031,-0.01172 0.6875,-0.152344 1.066406,-0.421875 0.382813,-0.269531 0.632813,-0.558594 0.75,-0.867188 0.07422,-0.199219 0.113281,-0.386719 0.113281,-0.566406 0,-0.464844 -0.234374,-0.757813 -0.699218,-0.886719 m -9.605469,3.804688 c 0.507813,0 0.921875,0.414062 0.921875,0.921875 0,0.507812 -0.414062,0.921875 -0.921875,0.921875 -0.507813,0 -0.921875,-0.414063 -0.921875,-0.921875 0,-0.507813 0.414062,-0.921875 0.921875,-0.921875 m 0,-0.503906 c 0.785156,0 1.421875,0.640624 1.421875,1.425781 0,0.785156 -0.636719,1.421875 -1.421875,1.421875 -0.785156,0 -1.421875,-0.636719 -1.421875,-1.421875 0,-0.785157 0.636719,-1.425781 1.421875,-1.425781 M 12.375,14.183594 c 0.507812,0 0.921875,0.414062 0.921875,0.921875 0,0.507812 -0.414063,0.921875 -0.921875,0.921875 -0.511719,0 -0.921875,-0.414063 -0.921875,-0.921875 0,-0.507813 0.410156,-0.921875 0.921875,-0.921875 m 0,-0.503906 c 0.785156,0 1.421875,0.640624 1.421875,1.425781 0,0.785156 -0.636719,1.421875 -1.421875,1.421875 -0.789062,0 -1.425781,-0.636719 -1.425781,-1.421875 0,-0.785157 0.636719,-1.425781 1.425781,-1.425781 m 3.394531,0.503906 c 0.507813,0 0.921875,0.414062 0.921875,0.921875 0,0.507812 -0.414062,0.921875 -0.921875,0.921875 -0.507812,0 -0.921875,-0.414063 -0.921875,-0.921875 0,-0.507813 0.414063,-0.921875 0.921875,-0.921875 m 0,-0.503906 c 0.785157,0 1.421875,0.640624 1.421875,1.425781 0,0.785156 -0.636718,1.421875 -1.421875,1.421875 -0.789062,0 -1.425781,-0.636719 -1.425781,-1.421875 0,-0.785157 0.636719,-1.425781 1.425781,-1.425781 m 3.394531,0.503906 c 0.507813,0 0.921876,0.414062 0.921876,0.921875 0,0.507812 -0.414063,0.921875 -0.921876,0.921875 -0.507812,0 -0.921874,-0.414063 -0.921874,-0.921875 0,-0.507813 0.414062,-0.921875 0.921874,-0.921875 m 0,-0.503906 c 0.785157,0 1.421876,0.640624 1.421876,1.425781 0,0.785156 -0.636719,1.421875 -1.421876,1.421875 -0.789062,0 -1.425781,-0.636719 -1.425781,-1.421875 0,-0.785157 0.636719,-1.425781 1.425781,-1.425781"
           id="path6023" />
        <path
           style="fill:#211e1e;fill-opacity:1;fill-rule:nonzero;stroke:none"
           d="M 0.34375,0.351562 H 72.613281 L 85.382812,10.984375 72.613281,21.613281 H 0.34375 V 0.351562 M 0.484375,0.496094 V 21.472656 H 72.5625 L 85.160156,10.984375 72.5625,0.496094 H 0.484375"
           id="path6025" />
      </g>
      <path
         id="rect1240"
         style="fill:#ffffff;fill-opacity:1;stroke-width:1.3;stroke-linecap:square"
         d="m 15.086793,5.2752096 c -0.253905,0 -0.632811,0.07471 -1.136716,0.227051 -0.445311,0.128906 -0.765623,0.194824 -0.960935,0.194824 -0.179688,0 -0.340332,-0.04248 -0.473143,-0.124512 -0.05859,-0.03516 -0.117187,-0.05908 -0.175781,-0.07471 l -0.124512,-0.02783 -0.121581,0.03223 c -0.160156,0.04297 -0.304687,0.15918 -0.433593,0.354493 -0.08594,0.136719 -0.163086,0.313477 -0.237304,0.524414 -0.117187,0.332032 -0.188475,0.60498 -0.208007,0.815918 v 0.01611 c -0.04687,0.61328 -0.167479,1.139648 -0.370605,1.5732428 C 10.72743,9.0403472 10.527722,9.341618 10.254286,9.6931808 9.9652229,10.06037 9.7865131,10.361151 9.7122939,10.595526 c -0.1562498,0.472656 -0.234375,0.854981 -0.234375,1.144043 0,0.261719 0.06201,0.488769 0.1831057,0.672363 0.1210928,0.1875 0.3085933,0.331544 0.5624994,0.440918 0.414062,0.171876 1.117673,0.265625 2.113764,0.269531 h 0.527342 c 0.36328,0 0.839843,9.68e-4 1.429684,-0.0029 0.554687,-0.0039 0.99121,-0.0088 1.315428,-0.0088 0.527343,0 1.097657,0.0039 1.710938,0.01172 h 0.02344 c 0.332032,-0.01172 0.687499,-0.147461 1.066407,-0.413086 0.382812,-0.269531 0.632811,-0.555175 0.75,-0.859863 0.07422,-0.195312 0.114257,-0.382324 0.114257,-0.558105 0,-0.460937 -0.230957,-0.753907 -0.6958,-0.878907 C 18.489144,10.389 18.312869,10.34115 18.035527,10.274745 17.098027,10.040369 16.426151,9.8377332 16.019902,9.6580448 15.390994,9.38458 15.079471,9.0960316 15.079471,8.7952498 c 0,-0.06641 0.01123,-0.1367194 0.04248,-0.2109388 0.339844,-0.8984374 0.660645,-1.7314464 0.953613,-2.4931644 l 0.152344,-0.398437 -0.372069,-0.218262 c -0.226563,-0.132812 -0.483888,-0.199219 -0.769044,-0.199219 z m 0,0.508301 c 0.191406,0 0.362792,0.04297 0.511231,0.128906 -0.300782,0.777344 -0.616701,1.605469 -0.956543,2.496094 -0.05078,0.1328124 -0.07471,0.2617188 -0.07471,0.3867192 0,0.5234382 0.41455,0.9638694 1.246582,1.3271522 0.433593,0.1875 1.132811,0.40332 2.097656,0.641601 0.25,0.0625 0.425782,0.108891 0.527344,0.136231 0.214843,0.05859 0.323731,0.187989 0.323731,0.391113 0,0.113282 -0.02686,0.241211 -0.07764,0.37793 l -0.0044,0.0044 c -0.07813,0.207031 -0.265625,0.414551 -0.5625,0.625488 -0.296875,0.207031 -0.562011,0.311536 -0.792481,0.319336 -0.617187,-0.0078 -1.187989,-0.01172 -1.715332,-0.01172 -0.324219,0 -0.765625,0.0049 -1.324217,0.0088 -0.585936,0.0039 -1.062009,0.0073 -1.425289,0.0073 -0.171876,0 -0.347167,-4.95e-4 -0.522948,-0.0044 -0.925802,-0.0039 -1.563008,-0.08153 -1.914569,-0.229963 -0.156249,-0.06641 -0.269038,-0.147948 -0.335449,-0.253417 -0.06641,-0.09766 -0.09814,-0.231445 -0.09814,-0.395508 0,-0.234375 0.06592,-0.56543 0.206543,-0.987305 0.0586,-0.179688 0.210936,-0.430664 0.45703,-0.74707 0.300784,-0.3828132 0.519534,-0.718753 0.656252,-1.0078158 0.226562,-0.4921892 0.363769,-1.0737326 0.414549,-1.7534196 0.01562,-0.171876 0.07471,-0.401855 0.180175,-0.69873 0.0586,-0.171875 0.12109,-0.312988 0.1875,-0.414551 0.05468,-0.08594 0.09766,-0.132815 0.128905,-0.140625 0.0039,0.0039 0.01172,0.0078 0.02344,0.01172 0.214844,0.132812 0.464355,0.203613 0.745604,0.203613 0.242186,0 0.613769,-0.0752 1.105954,-0.219727 0.453125,-0.136719 0.784666,-0.202148 0.991697,-0.202148 z M 8.9696184,13.677558 c -0.7890623,0 -1.4252932,0.6333 -1.4252932,1.410644 0,0.777343 0.6362309,1.40625 1.4252932,1.40625 0.785157,0 1.4223616,-0.628907 1.4223616,-1.40625 0,-0.777344 -0.6372046,-1.410644 -1.4223616,-1.410644 z m 3.3911066,0 c -0.789061,0 -1.426753,0.6333 -1.426753,1.410644 0,0.777343 0.637692,1.40625 1.426753,1.40625 0.785155,0 1.420896,-0.628907 1.420896,-1.40625 0,-0.777344 -0.635741,-1.410644 -1.420896,-1.410644 z m 3.394037,0 c -0.789063,0 -1.425292,0.6333 -1.425292,1.410644 0,0.777343 0.636229,1.40625 1.425292,1.40625 0.785156,0 1.422363,-0.628907 1.422363,-1.40625 0,-0.777344 -0.637207,-1.410644 -1.422363,-1.410644 z m 3.394043,0 c -0.785156,0 -1.425293,0.6333 -1.425293,1.410644 0,0.777343 0.640137,1.40625 1.425293,1.40625 0.785155,0 1.426757,-0.628907 1.426757,-1.40625 0,-0.777344 -0.641602,-1.410644 -1.426757,-1.410644 z M 8.9696184,14.177069 c 0.507813,0 0.9213873,0.407226 0.9213873,0.911133 0,0.503906 -0.4135743,0.909668 -0.9213873,0.909668 -0.5078123,0 -0.921387,-0.405762 -0.921387,-0.909668 0,-0.503907 0.4135747,-0.911133 0.921387,-0.911133 z m 3.3911066,0 c 0.507811,0 0.921385,0.407226 0.921385,0.911133 0,0.503906 -0.413574,0.909668 -0.921385,0.909668 -0.511718,0 -0.922848,-0.405762 -0.922848,-0.909668 0,-0.503907 0.41113,-0.911133 0.922848,-0.911133 z m 3.394037,0 c 0.507812,0 0.921387,0.407226 0.921387,0.911133 0,0.503906 -0.413575,0.909668 -0.921387,0.909668 -0.507813,0 -0.921387,-0.405762 -0.921387,-0.909668 0,-0.503907 0.413574,-0.911133 0.921387,-0.911133 z m 3.394043,0 c 0.507812,0 0.922851,0.407226 0.922851,0.911133 0,0.503906 -0.415039,0.909668 -0.922851,0.909668 -0.507812,0 -0.921387,-0.405762 -0.921387,-0.909668 0,-0.503907 0.413575,-0.911133 0.921387,-0.911133 z" />
      <text
         xml:space="default"
         dominant-baseline="middle"
         text-anchor="middle"
         font-family="sans-serif"
         font-size="9.6528px"
         id="svg_50-5"
         y="13.194674"
         x="48.183975"
         stroke-width="0"
         stroke="#ffffff"
         fill="#ffffff"
         style="font-style:italic;font-size:7.5px;-inkscape-font-specification:'sans-serif Italic';stroke-width:0.141732;stroke-miterlimit:4;stroke-dasharray:none"><tspan
           style="font-style:normal;font-variant:normal;font-weight:normal;font-stretch:normal;font-size:7.5px;font-family:sans-serif;-inkscape-font-specification:sans-serif;fill:#ffffff;fill-opacity:1;stroke:none;stroke-width:0.141732;stroke-miterlimit:4;stroke-dasharray:none;stroke-opacity:1"
           id="tspan16486">param(text1)</tspan></text>
    </g>
  </g>
</svg>
