<?xml version="1.0" encoding="UTF-8" standalone="no"?>
<!-- Created with Inkscape (http://www.inkscape.org/) -->

<svg
   width="67.999718mm"
   height="11.499999mm"
   viewBox="0 0 67.999719 11.499999"
   version="1.1"
   id="svg1"
   xml:space="preserve"
   xmlns="http://www.w3.org/2000/svg"
   xmlns:svg="http://www.w3.org/2000/svg"><defs
     id="defs1"><rect
       x="121.1518"
       y="511.35498"
       width="77.411278"
       height="16.67804"
       id="rect71" /><rect
       x="121.1518"
       y="511.35498"
       width="77.411278"
       height="16.67804"
       id="rect71-0" /><rect
       x="121.1518"
       y="511.35498"
       width="77.411278"
       height="16.67804"
       id="rect71-05" /><rect
       x="121.1518"
       y="511.35498"
       width="77.411278"
       height="16.67804"
       id="rect71-0-7" /><rect
       x="121.1518"
       y="511.35498"
       width="77.411278"
       height="16.67804"
       id="rect71-05-9" /><rect
       x="121.1518"
       y="511.35498"
       width="77.411278"
       height="16.67804"
       id="rect71-05-9-4" /><rect
       x="121.1518"
       y="511.35498"
       width="77.411278"
       height="16.67804"
       id="rect71-0-7-9" /><rect
       x="121.1518"
       y="511.35498"
       width="77.411278"
       height="16.67804"
       id="rect71-0-7-9-7" /><rect
       x="121.1518"
       y="511.35498"
       width="98.026649"
       height="15.626271"
       id="rect71-4" /><rect
       x="121.1518"
       y="511.35498"
       width="77.411278"
       height="16.67804"
       id="rect71-0-0" /></defs><g
     id="layer1"
     transform="translate(-31.092894,-208.18877)"><g
       id="layer1-8"
       transform="translate(-8.8362431,62.737923)"><g
         id="layer1-0"
         transform="translate(8.360858,-5.6065024)" /><path
         style="fill:#ffffff;fill-opacity:1;stroke:#000000;stroke-width:0.101149;stroke-linecap:butt;stroke-linejoin:miter;stroke-dasharray:none;stroke-opacity:1"
         d="m 39.979712,145.50142 v 11.39885 h 60.937248 l 6.93194,-5.62802 -7.02436,-5.77083 z"
         id="path1" /><path
         style="fill:#c90b1c;fill-opacity:1"
         d="m 40.645486,151.20124 v -4.826 H 66.78985 99.992221 l 2.582769,2.41096 2.49335,2.41096 -2.43338,2.41165 -2.5228,2.41163 -33.262341,0.003 -26.204333,0.003 z"
         id="path38" /><path
         id="path69-7-3"
         style="fill:#ffffff;fill-opacity:1;fill-rule:nonzero;stroke:none;stroke-width:0.563944"
         d="m 58.453504,148.02222 v 0.37009 h 0.560088 c 0.110145,0 0.248929,2.7e-4 0.323827,0.062 0.0727,0.0661 0.09638,0.1498 0.127218,0.25113 l 0.123913,0.40561 h -3.350618 l -0.117304,-0.34365 0.528697,-0.12805 v -0.24699 h -1.189569 v 0.37504 h 0.286653 l 0.125566,0.34365 -0.641045,1.55966 c -0.15861,-0.0418 -0.328509,-0.0752 -0.498133,-0.0752 -1.048582,0 -1.8967,0.8484 -1.8967,1.89257 0,1.04638 0.848118,1.89176 1.8967,1.89176 0.92522,0 1.69844,-0.66308 1.863658,-1.53983 l 0.412219,-0.002 c 0.09913,0 0.224696,0 0.323826,-0.0397 0.103537,-0.0331 0.193856,-0.11014 0.270958,-0.18504 l 2.330397,-2.32875 0.132174,0.41387 c -0.720349,0.27096 -1.249046,0.95194 -1.249046,1.76701 0,1.04418 0.850321,1.8967 1.8967,1.8967 1.048583,0 1.901658,-0.85252 1.901658,-1.8967 0,-1.04417 -0.853075,-1.89422 -1.901658,-1.89422 -0.103536,0 -0.196058,0.0127 -0.297391,0.0281 L 59.84629,148.5993 c -0.03965,-0.13437 -0.0928,-0.29766 -0.187522,-0.39239 -0.110146,-0.11234 -0.292711,-0.18504 -0.506393,-0.18504 z m -2.096615,1.44318 h 3.330792 l 0.114,0.40066 -2.491485,2.51131 z m -0.315566,0.24039 0.91035,2.75335 h -0.323826 c -0.01101,-0.72695 -0.433972,-1.35946 -1.044177,-1.66786 z m 4.678969,1.27713 c 0.81948,0 1.486961,0.66336 1.486961,1.48283 0,0.81948 -0.667481,1.48283 -1.486961,1.48283 -0.821683,0 -1.48696,-0.66335 -1.48696,-1.48283 0,-0.62342 0.388262,-1.159 0.936785,-1.37709 l 0.398175,1.43409 c 0.02203,0.0771 0.09693,0.18312 0.251131,0.14126 0.152,-0.044 0.139332,-0.17816 0.117304,-0.24865 l -0.401479,-1.42088 c 0.05948,-0.007 0.123362,-0.0116 0.185044,-0.0116 z m -5.980886,0.0223 c 0.12116,0 0.240392,0.0135 0.352741,0.0421 l -0.51135,1.26887 c -0.03084,0.0859 -0.12529,0.27288 -0.05039,0.39405 0.09032,0.14098 0.312811,0.13217 0.456001,0.13217 l 1.198655,0.002 c -0.160813,0.64766 -0.747336,1.12761 -1.445656,1.12761 -0.819481,0 -1.486961,-0.665 -1.486961,-1.48448 0,-0.81728 0.66748,-1.48284 1.486961,-1.48284 z m 0.700524,0.17183 c 0.467016,0.25333 0.779828,0.71814 0.779828,1.28209 h -1.286221 z" /><text
         xml:space="preserve"
         transform="matrix(0.35976716,0,0,0.39727746,19.650449,-54.352992)"
         id="text71"
         style="font-weight:bold;font-size:12.005px;line-height:1.25;font-family:Arial;-inkscape-font-specification:'Arial, Bold';text-align:center;letter-spacing:0.542724px;white-space:pre;shape-inside:url(#rect71-4);display:inline;fill:#ffffff;fill-opacity:1;stroke:#ffffff;stroke-width:0.241611;stroke-dasharray:none;stroke-opacity:1"><tspan
           x="133.15514"
           y="522.16903"
           id="tspan4"><tspan
             style="font-weight:normal;-inkscape-font-specification:Arial"
             id="tspan3">param(text2)</tspan></tspan></text><path
         id="VL_Logo_Route_3_svg__polygon4-9"
         style="fill:#449dd7;stroke-width:0.0386575"
         d="M 49.448278,155.21543 H 41.41912 v -8.02917 h 8.029158 z" /><text
         xml:space="preserve"
         style="font-weight:bold;font-size:4.23333px;line-height:1.25;font-family:Arial;-inkscape-font-specification:'Arial, Bold';text-align:center;text-anchor:middle;stroke-width:0.264584"
         x="45.532917"
         y="153.44432"
         id="text1"><tspan
           id="tspan1"
           style="font-style:italic;font-variant:normal;font-weight:bold;font-stretch:normal;font-size:4.23333px;font-family:Arial;-inkscape-font-specification:'Arial Bold Italic';text-align:center;text-anchor:middle;fill:#ffffff;fill-opacity:1;stroke-width:0.264584"
           x="45.532917"
           y="153.44432">param(text1)</tspan></text></g></g><style
     type="text/css"
     id="style2">.VL_Logo_Route_3_svg__st1{fill-rule:evenodd;clip-rule:evenodd}</style></svg>
