<?xml version="1.0" encoding="UTF-8" standalone="no"?>
<svg
   width="130.11552pt"
   height="25.872572pt"
   viewBox="0 0 130.11552 25.872572"
   version="1.1"
   id="svg5103"
   xmlns="http://www.w3.org/2000/svg"
   xmlns:svg="http://www.w3.org/2000/svg"
   xmlns:rdf="http://www.w3.org/1999/02/22-rdf-syntax-ns#"
   xmlns:cc="http://creativecommons.org/ns#"
   xmlns:dc="http://purl.org/dc/elements/1.1/">
  <metadata
     id="metadata5109">
    <rdf:RDF>
      <cc:Work
         rdf:about="">
        <dc:format>image/svg+xml</dc:format>
        <dc:type
           rdf:resource="http://purl.org/dc/dcmitype/StillImage" />
      </cc:Work>
    </rdf:RDF>
  </metadata>
  <defs
     id="defs5107" />
  <path
     style="fill:#ae1e19;fill-opacity:1;stroke-width:0.00864622"
     d=""
     id="path5716" />
  <path
     style="fill:#ae1e19;fill-opacity:1;stroke-width:0.00864622"
     d=""
     id="path5728" />
  <path
     style="fill:#ae1e19;fill-opacity:1;stroke-width:0.00864622"
     d=""
     id="path5732" />
  <path
     style="fill:#ae1e19;fill-opacity:1;stroke-width:0.00864622"
     d=""
     id="path5750" />
  <path
     style="fill:#ae1e19;fill-opacity:1;stroke-width:0.00864622"
     d=""
     id="path5754" />
  <path
     style="fill:#ae1e19;fill-opacity:1;stroke-width:0.00864622"
     d=""
     id="path5756" />
  <path
     style="fill:#ae1e19;fill-opacity:1;stroke-width:0.00864622"
     d=""
     id="path5758" />
  <path
     style="fill:#ae1e19;fill-opacity:1;stroke-width:0.00864622"
     d=""
     id="path5760" />
  <path
     style="fill:#ae1e19;fill-opacity:1;stroke-width:0.00864622"
     d=""
     id="path5772" />
  <path
     style="fill:#ae1e19;fill-opacity:1;stroke-width:0.00864622"
     d=""
     id="path5790" />
  <path
     style="fill:#ae1e19;fill-opacity:1;stroke-width:0.00864622"
     d=""
     id="path5808" />
  <path
     style="fill:#ae1e19;fill-opacity:1;stroke-width:0.00864622"
     d=""
     id="path5812" />
  <path
     style="fill:#ae1e19;fill-opacity:1;stroke-width:0.00864622"
     d=""
     id="path5824" />
  <path
     style="fill:#ae1e19;fill-opacity:1;stroke-width:0.00153515"
     d=""
     id="path5840" />
  <path
     style="fill:#ae1e19;fill-opacity:1;stroke-width:0.00153515"
     d=""
     id="path5846" />
  <path
     style="fill:#ae1e19;fill-opacity:1;stroke-width:0.00153515"
     d=""
     id="path5858" />
  <path
     style="fill:#ae1e19;fill-opacity:1;stroke-width:0.00153515"
     d=""
     id="path5868" />
  <path
     style="fill:#ae1e19;fill-opacity:1;stroke-width:0.00153515"
     d=""
     id="path5878" />
  <path
     style="fill:#ae1e19;fill-opacity:1;stroke-width:0.00153515"
     d=""
     id="path5880" />
  <path
     style="fill:#ae1e19;fill-opacity:1;stroke-width:0.00153515"
     d=""
     id="path5882" />
  <path
     stroke="#211e1e"
     fill="#ffffff"
     fill-rule="nonzero"
     stroke-width="0.03688"
     stroke-linejoin="round"
     stroke-miterlimit="4"
     id="svg_54"
     d="M 22.030985,25.854132 0.0184382,12.940559 22.030985,0.01844 H 130.09708 V 25.854131 H 22.030985" />
  <path
     fill="#ae1e19"
     fill-rule="nonzero"
     id="svg_53"
     d="M 22.430858,24.301881 11.024709,12.940559 22.430858,1.567841 H 128.5996 v 22.73404 H 22.430858"
     style="stroke-width:0.130088" />
  <path
     id="rect1240-9"
     style="font-style:italic;font-size:12px;-inkscape-font-specification:'sans-serif Italic';fill:#ffffff;fill-opacity:1;stroke-width:1.68526;stroke-linecap:square"
     d="m 117.56463,6.3492483 c -0.32916,0 -0.82035,0.096851 -1.4736,0.2943391 -0.57728,0.1671082 -0.99253,0.2525615 -1.24572,0.2525615 -0.23294,0 -0.44119,-0.055069 -0.61336,-0.161412 -0.076,-0.04558 -0.15192,-0.076589 -0.22787,-0.096851 l -0.16142,-0.036078 -0.15761,0.041782 c -0.20762,0.055705 -0.39499,0.2063541 -0.56209,0.4595495 -0.11136,0.1772353 -0.21143,0.4063781 -0.30764,0.6798278 -0.15191,0.430432 -0.24433,0.78427 -0.26964,1.057721 v 0.020884 c -0.0608,0.79503 -0.21712,1.4773898 -0.48045,2.0394828 -0.15192,0.329153 -0.41081,0.719706 -0.76527,1.175455 -0.37474,0.476006 -0.60641,0.865925 -0.70262,1.169759 -0.20255,0.612731 -0.30384,1.108361 -0.30384,1.483088 0,0.339281 0.0804,0.633619 0.23738,0.871623 0.15697,0.243067 0.40004,0.429799 0.7292,0.571587 0.53677,0.222812 1.4489,0.344345 2.7402,0.349408 h 0.68362 c 0.47094,0 1.08873,0.0013 1.85339,-0.0038 0.71906,-0.0051 1.28496,-0.01141 1.70527,-0.01141 0.68362,0 1.42294,0.0051 2.21797,0.01519 h 0.0303 c 0.43044,-0.01519 0.89124,-0.191162 1.38245,-0.535507 0.49625,-0.349408 0.82034,-0.719705 0.97226,-1.114689 0.0962,-0.253194 0.14813,-0.495629 0.14813,-0.723504 0,-0.597538 -0.29941,-0.977332 -0.90201,-1.139377 -0.11641,-0.03039 -0.34499,-0.09242 -0.70452,-0.178502 -1.21533,-0.303835 -2.08632,-0.566521 -2.61296,-0.799459 -0.81529,-0.354508 -1.21913,-0.728569 -1.21913,-1.118488 0,-0.08609 0.0145,-0.177237 0.0551,-0.273451 0.44055,-1.1646948 0.85643,-2.244572 1.23622,-3.2320305 l 0.19749,-0.5165166 -0.48234,-0.2829455 c -0.2937,-0.1721717 -0.62728,-0.2582589 -0.99695,-0.2582589 z m 0,0.6589395 c 0.24812,0 0.4703,0.055705 0.66273,0.1671082 -0.38991,1.0077154 -0.79946,2.0812613 -1.24003,3.235829 -0.0658,0.172171 -0.0968,0.339279 -0.0968,0.501324 0,0.678561 0.5374,1.249516 1.61602,1.720456 0.56209,0.243067 1.46853,0.522847 2.7193,0.831744 0.32409,0.08102 0.55197,0.141162 0.68364,0.176604 0.27851,0.07595 0.41967,0.243701 0.41967,0.507022 0,0.146854 -0.0349,0.312696 -0.1006,0.489933 l -0.005,0.0057 c -0.10124,0.268386 -0.34435,0.537406 -0.7292,0.810855 -0.38486,0.268386 -0.72856,0.403862 -1.02733,0.413974 -0.8001,-0.01011 -1.54006,-0.01519 -2.22368,-0.01519 -0.42031,0 -0.99253,0.0064 -1.71666,0.01141 -0.75959,0.0051 -1.37676,0.0095 -1.8477,0.0095 -0.22281,0 -0.45005,-6.42e-4 -0.67793,-0.0057 -1.20014,-0.0051 -2.02618,-0.105705 -2.48194,-0.298136 -0.20256,-0.08609 -0.34877,-0.191795 -0.43487,-0.32852 -0.0861,-0.126603 -0.12717,-0.300036 -0.12717,-0.51272 0,-0.303834 0.0854,-0.732999 0.26776,-1.2799 0.076,-0.23294 0.27344,-0.558294 0.59248,-0.968469 0.38992,-0.496259 0.67349,-0.931756 0.85073,-1.306483 0.29371,-0.638051 0.47158,-1.3919389 0.53741,-2.2730556 0.0202,-0.2228124 0.0968,-0.5209473 0.23356,-0.9058033 0.076,-0.2228113 0.15698,-0.4057441 0.24307,-0.5374061 0.0709,-0.1114089 0.12665,-0.1721756 0.16711,-0.1823002 0.005,0.00506 0.0152,0.010112 0.0303,0.015193 0.27852,0.1721717 0.60197,0.2639551 0.96657,0.2639551 0.31396,0 0.79567,-0.097486 1.43371,-0.2848446 0.58742,-0.1772367 1.01721,-0.262056 1.2856,-0.262056 z m -7.93007,10.2334952 c -1.0229,0 -1.84768,0.820983 -1.84768,1.828698 0,1.007714 0.82478,1.823002 1.84768,1.823002 1.01785,0 1.84389,-0.815288 1.84389,-1.823002 0,-1.007715 -0.82604,-1.828698 -1.84389,-1.828698 z m 4.39609,0 c -1.0229,0 -1.84957,0.820983 -1.84957,1.828698 0,1.007714 0.82667,1.823002 1.84957,1.823002 1.01785,0 1.842,-0.815288 1.842,-1.823002 0,-1.007715 -0.82415,-1.828698 -1.842,-1.828698 z m 4.3999,0 c -1.02291,0 -1.84769,0.820983 -1.84769,1.828698 0,1.007714 0.82478,1.823002 1.84769,1.823002 1.01784,0 1.84389,-0.815288 1.84389,-1.823002 0,-1.007715 -0.82605,-1.828698 -1.84389,-1.828698 z m 4.39989,0 c -1.01785,0 -1.84768,0.820983 -1.84768,1.828698 0,1.007714 0.82983,1.823002 1.84768,1.823002 1.01784,0 1.84959,-0.815288 1.84959,-1.823002 0,-1.007715 -0.83175,-1.828698 -1.84959,-1.828698 z m -13.19588,0.647544 c 0.65831,0 1.19446,0.527911 1.19446,1.181154 0,0.653242 -0.53615,1.179254 -1.19446,1.179254 -0.6583,0 -1.19445,-0.526012 -1.19445,-1.179254 0,-0.653243 0.53615,-1.181154 1.19445,-1.181154 z m 4.39609,0 c 0.65832,0 1.19445,0.527911 1.19445,1.181154 0,0.653242 -0.53613,1.179254 -1.19445,1.179254 -0.66337,0 -1.19634,-0.526012 -1.19634,-1.179254 0,-0.653243 0.53297,-1.181154 1.19634,-1.181154 z m 4.3999,0 c 0.65831,0 1.19444,0.527911 1.19444,1.181154 0,0.653242 -0.53613,1.179254 -1.19444,1.179254 -0.65831,0 -1.19445,-0.526012 -1.19445,-1.179254 0,-0.653243 0.53614,-1.181154 1.19445,-1.181154 z m 4.39989,0 c 0.6583,0 1.19634,0.527911 1.19634,1.181154 0,0.653242 -0.53804,1.179254 -1.19634,1.179254 -0.6583,0 -1.19445,-0.526012 -1.19445,-1.179254 0,-0.653243 0.53615,-1.181154 1.19445,-1.181154 z" />
  <text
     xml:space="default"
     dominant-baseline="middle"
     text-anchor="middle"
     font-family="sans-serif"
     font-size="9.6528px"
     id="svg_50-5-3"
     y="15.942868"
     x="63.142136"
     stroke-width="0"
     stroke="#ffffff"
     fill="#ffffff"
     style="stroke-width:0.141732;stroke-miterlimit:4;stroke-dasharray:none"><tspan
       style="fill:#ffffff;fill-opacity:1;stroke:none;stroke-width:0.141732;stroke-miterlimit:4;stroke-dasharray:none;stroke-opacity:1"
       id="tspan16486-9">param(text1)</tspan></text>
</svg>
