<?xml version="1.0" encoding="UTF-8" standalone="no"?>
<svg
   xmlns:dc="http://purl.org/dc/elements/1.1/"
   xmlns:cc="http://creativecommons.org/ns#"
   xmlns:rdf="http://www.w3.org/1999/02/22-rdf-syntax-ns#"
   xmlns:svg="http://www.w3.org/2000/svg"
   xmlns="http://www.w3.org/2000/svg"
   xmlns:sodipodi="http://sodipodi.sourceforge.net/DTD/sodipodi-0.dtd"
   xmlns:inkscape="http://www.inkscape.org/namespaces/inkscape"
   width="86pt"
   height="22pt"
   viewBox="0 0 86 22"
   version="1.1"
   id="svg5103"
   sodipodi:docname="450-1-r.svg"
   inkscape:version="1.0.2 (e86c870879, 2021-01-15, custom)">
  <metadata
     id="metadata5109">
    <rdf:RDF>
      <cc:Work
         rdf:about="">
        <dc:format>image/svg+xml</dc:format>
        <dc:type
           rdf:resource="http://purl.org/dc/dcmitype/StillImage" />
        <dc:title></dc:title>
      </cc:Work>
    </rdf:RDF>
  </metadata>
  <defs
     id="defs5107" />
  <sodipodi:namedview
     pagecolor="#ffffff"
     bordercolor="#666666"
     borderopacity="1"
     objecttolerance="10"
     gridtolerance="10"
     guidetolerance="10"
     inkscape:pageopacity="0"
     inkscape:pageshadow="2"
     inkscape:window-width="1920"
     inkscape:window-height="1017"
     id="namedview5105"
     showgrid="false"
     inkscape:zoom="5.6568543"
     inkscape:cx="42.0302"
     inkscape:cy="-4.0956397"
     inkscape:window-x="5752"
     inkscape:window-y="-8"
     inkscape:window-maximized="1"
     inkscape:current-layer="svg5103"
     inkscape:document-rotation="0" />
  <path
     style="fill:#ae1e19;fill-opacity:1;stroke-width:0.0115283"
     d=""
     id="path5716"
     transform="scale(0.75)" />
  <path
     style="fill:#ae1e19;fill-opacity:1;stroke-width:0.0115283"
     d=""
     id="path5728"
     transform="scale(0.75)" />
  <path
     style="fill:#ae1e19;fill-opacity:1;stroke-width:0.0115283"
     d=""
     id="path5732"
     transform="scale(0.75)" />
  <path
     style="fill:#ae1e19;fill-opacity:1;stroke-width:0.0115283"
     d=""
     id="path5750"
     transform="scale(0.75)" />
  <path
     style="fill:#ae1e19;fill-opacity:1;stroke-width:0.0115283"
     d=""
     id="path5754"
     transform="scale(0.75)" />
  <path
     style="fill:#ae1e19;fill-opacity:1;stroke-width:0.0115283"
     d=""
     id="path5756"
     transform="scale(0.75)" />
  <path
     style="fill:#ae1e19;fill-opacity:1;stroke-width:0.0115283"
     d=""
     id="path5758"
     transform="scale(0.75)" />
  <path
     style="fill:#ae1e19;fill-opacity:1;stroke-width:0.0115283"
     d=""
     id="path5760"
     transform="scale(0.75)" />
  <path
     style="fill:#ae1e19;fill-opacity:1;stroke-width:0.0115283"
     d=""
     id="path5772"
     transform="scale(0.75)" />
  <path
     style="fill:#ae1e19;fill-opacity:1;stroke-width:0.0115283"
     d=""
     id="path5790"
     transform="scale(0.75)" />
  <path
     style="fill:#ae1e19;fill-opacity:1;stroke-width:0.0115283"
     d=""
     id="path5808"
     transform="scale(0.75)" />
  <path
     style="fill:#ae1e19;fill-opacity:1;stroke-width:0.0115283"
     d=""
     id="path5812"
     transform="scale(0.75)" />
  <path
     style="fill:#ae1e19;fill-opacity:1;stroke-width:0.0115283"
     d=""
     id="path5824"
     transform="scale(0.75)" />
  <path
     style="fill:#ae1e19;fill-opacity:1;stroke-width:0.00204687"
     d=""
     id="path5840"
     transform="scale(0.75)" />
  <path
     style="fill:#ae1e19;fill-opacity:1;stroke-width:0.00204687"
     d=""
     id="path5846"
     transform="scale(0.75)" />
  <path
     style="fill:#ae1e19;fill-opacity:1;stroke-width:0.00204687"
     d=""
     id="path5858"
     transform="scale(0.75)" />
  <path
     style="fill:#ae1e19;fill-opacity:1;stroke-width:0.00204687"
     d=""
     id="path5868"
     transform="scale(0.75)" />
  <path
     style="fill:#ae1e19;fill-opacity:1;stroke-width:0.00204687"
     d=""
     id="path5878"
     transform="scale(0.75)" />
  <path
     style="fill:#ae1e19;fill-opacity:1;stroke-width:0.00204687"
     d=""
     id="path5880"
     transform="scale(0.75)" />
  <path
     style="fill:#ae1e19;fill-opacity:1;stroke-width:0.00204687"
     d=""
     id="path5882"
     transform="scale(0.75)" />
  <g
     stroke="null"
     id="svg_23"
     transform="matrix(0.08563213,0,0,0.1018247,0.35310272,0.83726077)">
    <path
       stroke="#211e1e"
       fill="#ffffff"
       fill-rule="nonzero"
       stroke-width="0.2835"
       stroke-linejoin="round"
       stroke-miterlimit="4"
       id="svg_20-7"
       d="M 830.08902,200.30066 998.96303,100.53299 830.08902,0.6993 H 1.03659 v 199.60135 h 829.05243" />
    <path
       fill="#ae1e19"
       fill-rule="nonzero"
       id="svg_19"
       d="M 827.02131,188.30828 914.52605,100.533 827.02131,12.66967 H 12.5248 v 175.63861 h 814.49651" />
    <path
       fill="#ffffff"
       fill-rule="nonzero"
       id="svg_18"
       d="m 91.37637,91.11511 c -2.6869,-0.72611 -5.52193,-1.32023 -8.42044,-1.32023 -17.66598,0 -32.03146,14.94092 -32.03146,33.31455 0,18.3516 14.36548,33.29258 32.03146,33.29258 15.61374,0 28.66754,-11.68431 31.46027,-27.10934 l 6.98175,-0.022 c 1.69255,0 3.78708,0 5.45845,-0.70414 1.75603,-0.61615 3.27932,-1.93638 4.56988,-3.2787 l 39.35177,-40.97203 2.24261,7.30541 c -12.16522,4.75294 -21.09338,16.76729 -21.09338,31.09212 0,18.37363 14.36548,33.33657 32.05264,33.33657 17.6871,0 32.05258,-14.96295 32.05258,-33.33657 0,-18.3956 -14.36548,-33.33657 -32.05258,-33.33657 -1.7772,0 -3.3428,0.22003 -5.03534,0.5281 l -9.6264,-35.20694 c -0.69814,-2.3765 -1.58672,-5.23705 -3.19466,-6.90935 -1.84063,-1.98043 -4.92957,-3.23464 -8.54734,-3.23464 h -11.80554 v 6.49126 h 9.45709 c 1.8618,0 4.21025,0 5.45845,1.07823 1.26944,1.16622 1.67143,2.64052 2.17919,4.40087 l 2.09454,7.12938 h -56.57347 l -2.00988,-6.02917 8.94933,-2.24446 V 51.04522 H 95.22692 v 6.5793 h 4.86604 l 2.09454,6.02917 -10.81113,27.46141" />
    <path
       fill="#ae1e19"
       fill-rule="nonzero"
       id="svg_17"
       d="m 88.87984,97.71644 c -1.9041,-0.48411 -3.87168,-0.74813 -5.92392,-0.74813 -13.85772,0 -25.11319,11.70628 -25.11319,26.14112 0,14.41282 11.25547,26.11915 25.11319,26.11915 11.76324,0 21.68579,-8.49366 24.39387,-19.86989 l -20.22598,-0.0439 c -2.45417,0 -6.19895,0.17603 -7.72224,-2.3325 -1.24826,-2.11242 0.33851,-5.43505 0.8251,-6.90935 l 8.65317,-22.3564" />
    <path
       fill="#ae1e19"
       fill-rule="nonzero"
       id="svg_16"
       d="m 110.39638,69.90296 16.07921,51.24806 42.0598,-44.1847 -1.92528,-7.06336 h -56.21372" />
    <path
       fill="#ae1e19"
       fill-rule="nonzero"
       id="svg_15"
       d="m 97.30029,93.22753 c 10.34572,5.43511 17.47555,16.54726 17.66598,29.3538 h 5.45845 L 105.08601,74.14977 97.30029,93.22753" />
    <path
       fill="#ae1e19"
       fill-rule="nonzero"
       id="svg_14"
       d="m 174.69204,98.4866 c -9.24554,3.82871 -15.80418,13.2466 -15.80418,24.22677 0,14.39085 11.25547,26.0751 25.11319,26.0751 13.85777,0 25.11319,-11.68425 25.11319,-26.0751 0,-14.39085 -11.25542,-26.09713 -25.11319,-26.09713 -1.05783,0 -2.09454,0.06602 -3.13119,0.19806 l 6.79132,24.99692 c 0.33851,1.23224 0.59242,3.58666 -2.00988,4.35682 -2.56,0.79218 -3.82938,-1.1002 -4.23137,-2.46449 L 174.69204,98.4866" />
    <path
       fill="#ae1e19"
       fill-rule="nonzero"
       id="svg_13"
       d="m 94.76146,100.13693 -8.5474,22.57643 h 21.70697 c 0,-9.94599 -5.28925,-18.13157 -13.15958,-22.57643" />
  </g>
  <text
     xml:space="default"
     dominant-baseline="middle"
     text-anchor="left"
     font-family="sans-serif"
     font-size="6px"
     id="svg_12"
     y="12.589558"
     x="23.903097"
     stroke-width="0"
     stroke="#ffffff"
     fill="#ffffff"
     transform="scale(0.91704746,1.0904561)"
     style="font-style:normal;font-variant:normal;font-weight:normal;font-stretch:normal;font-size:5px;font-family:sans-serif;-inkscape-font-specification:'sans-serif, Normal';font-variant-ligatures:normal;font-variant-caps:normal;font-variant-numeric:normal;font-variant-east-asian:normal;dominant-baseline:middle;fill:#ffffff;stroke:#ffffff;stroke-width:0">param(text1)</text>
</svg>
