<?xml version="1.0" encoding="UTF-8" standalone="no"?>
<svg
   width="28.348766pt"
   height="83pt"
   viewBox="0 0 28.348766 83"
   version="1.1"
   id="svg843"
   xml:space="preserve"
   xmlns="http://www.w3.org/2000/svg"
   xmlns:svg="http://www.w3.org/2000/svg"><defs
     id="defs847" /><rect
     style="fill:#ffffff;fill-opacity:1;stroke:#000000;stroke-width:0.197916;stroke-linecap:square;stroke-miterlimit:4;stroke-dasharray:none;stroke-opacity:1"
     id="rect1252"
     width="28.15085"
     height="82.802086"
     x="0.098958001"
     y="0.098958001" /><path
     style="fill:#c90b1c;fill-opacity:1;fill-rule:nonzero;stroke:none;stroke-width:1.42108"
     d="M 1.4243826,1.492741 H 26.924384 V 81.631364 H 1.4243826 V 1.492741"
     id="path826" /><path
     style="fill:#ffffff;fill-opacity:1;fill-rule:nonzero;stroke:none"
     d="m 10.622734,44.168531 c -0.8984374,-9.699219 3.71875,-9.242188 5.824219,-9.242188 -0.378907,0.824219 -0.332032,0.800781 -0.917969,2.089844 0,1.132813 0.917969,0.863281 0.917969,0.863281 0,0 2.601563,-2.109375 4.589844,-3.914062 0.566406,-0.472656 0,-0.910156 0,-0.910156 -2.035157,-1.898438 -2.800781,-2.519532 -4.589844,-4.105469 -0.371094,-0.320313 -1.269531,-0.01563 -0.917969,0.890625 0.402344,1.0625 0.539063,1.035156 0.917969,1.988281 -8.8359384,0 -9.3867204,6.132813 -9.3867204,12.339844 1.855469,0 3.5625014,0 3.5625014,0"
     id="path1" /><path
     id="path69-7-3"
     style="fill:#ffffff;fill-opacity:1;fill-rule:nonzero;stroke:none;stroke-width:1.1334"
     d="M 12.711697,8.1722782 V 8.916077 h -1.125652 c -0.221367,0 -0.500292,5.42e-4 -0.65082,0.124607 -0.146112,0.132846 -0.193703,0.301064 -0.25568,0.504715 l -0.249037,0.815185 h 6.733995 L 17.400258,9.669924 16.337694,9.412573 V 8.916178 h 2.39077 v 0.753746 h -0.57611 l -0.25236,0.69066 1.288359,3.134569 c 0.31877,-0.08401 0.66023,-0.151135 1.001136,-0.151135 2.107417,0 3.811945,1.705095 3.811945,3.803645 0,2.102989 -1.704528,3.801995 -3.811945,3.801995 -1.859486,0 -3.413487,-1.332623 -3.745537,-3.094716 l -0.828468,-0.004 c -0.19923,0 -0.45159,0 -0.650819,-0.07978 -0.208086,-0.06653 -0.389608,-0.221357 -0.544566,-0.371889 L 9.7365206,12.719004 9.4708805,13.550791 c 1.4477405,0.544569 2.5103045,1.913186 2.5103045,3.551296 0,2.098569 -1.708956,3.811944 -3.8119445,3.811944 -2.107419,0 -3.821909,-1.713375 -3.821909,-3.811944 0,-2.09855 1.71449,-3.80696 3.821909,-3.80696 0.208084,0 0.394032,0.02553 0.5976891,0.05647 l 1.145577,-4.01949 C 9.9921966,9.062033 10.099014,8.733876 10.289385,8.54349 10.510754,8.3176914 10.877669,8.1715807 11.307121,8.1715807 Z m 4.213729,2.9004708 h -6.69415 l -0.229115,0.805217 5.00733,5.047174 z m 0.634218,0.483131 -1.829601,5.533619 h 0.650818 c 0.02212,-1.461027 0.872187,-2.732211 2.098563,-3.352047 z m -9.4036865,2.566746 c -1.646972,0 -2.98846,1.333206 -2.98846,2.980158 0,1.646972 1.341488,2.980158 2.98846,2.980158 1.6513991,0 2.9884595,-1.333186 2.9884595,-2.980158 0,-1.252936 -0.78032,-2.329331 -1.8827305,-2.767644 l -0.800243,2.882201 c -0.04428,0.154954 -0.194808,0.368031 -0.504717,0.283902 -0.305486,-0.08843 -0.280027,-0.358063 -0.235755,-0.499732 l 0.806883,-2.855652 c -0.119541,-0.01407 -0.247929,-0.02331 -0.371897,-0.02331 z m 12.0202485,0.04481 c -0.243503,0 -0.483134,0.02714 -0.70893,0.08461 l 1.027699,2.550146 c 0.06198,0.17264 0.251805,0.548428 0.101271,0.791953 -0.181524,0.283338 -0.628681,0.265632 -0.916461,0.265632 l -2.409029,0.004 c 0.323198,1.301652 1.50198,2.266244 2.905447,2.266244 1.646974,0 2.98846,-1.336501 2.98846,-2.983474 0,-1.64255 -1.341486,-2.980178 -2.98846,-2.980178 z m -1.407896,0.345341 c -0.938599,0.50914 -1.567281,1.443305 -1.567281,2.576719 h 2.585018 z" /><text
     xml:space="preserve"
     style="font-weight:bold;font-size:8.5px;line-height:1.25;font-family:Arial;-inkscape-font-specification:'Arial, Bold';text-align:center;text-anchor:middle;stroke-width:0.750002"
     x="14.166082"
     y="55.765068"
     id="text1-6"><tspan
       id="tspan1-3"
       style="font-style:normal;font-variant:normal;font-weight:normal;font-stretch:normal;font-size:8.5px;font-family:sans-serif;-inkscape-font-specification:sans-serif;text-align:center;text-anchor:middle;fill:#ffffff;fill-opacity:1;stroke-width:0.750002"
       x="14.166082"
       y="55.765068">param(text2)</tspan></text><path
     id="VL_Logo_Route_3_svg__polygon4-9"
     style="fill:#449dd7;stroke-width:0.0900021"
     d="M 23.521115,78.151279 H 4.8276512 V 59.457787 H 23.521115 Z" /><text
     xml:space="preserve"
     style="font-weight:bold;font-size:9.85602px;line-height:1.25;font-family:Arial;-inkscape-font-specification:'Arial, Bold';text-align:center;text-anchor:middle;stroke-width:0.616003"
     x="14.405384"
     y="74.027809"
     id="text1"><tspan
       id="tspan1"
       style="font-style:italic;font-variant:normal;font-weight:bold;font-stretch:normal;font-size:9.85602px;font-family:Arial;-inkscape-font-specification:'Arial Bold Italic';text-align:center;text-anchor:middle;fill:#ffffff;fill-opacity:1;stroke-width:0.616003"
       x="14.405384"
       y="74.027809">param(text1)</tspan></text></svg>
