<?xml version="1.0" encoding="UTF-8" standalone="no"?>
<svg
   width="28.348763pt"
   height="28.349001pt"
   viewBox="0 0 28.348763 28.349001"
   version="1.1"
   id="svg843"
   xmlns="http://www.w3.org/2000/svg"
   xmlns:svg="http://www.w3.org/2000/svg">
  <defs
     id="defs847" />
  <rect
     style="fill:#ffffff;fill-opacity:1;stroke:#000000;stroke-width:0.115737;stroke-linecap:square;stroke-miterlimit:4;stroke-dasharray:none;stroke-opacity:1"
     id="rect1252"
     width="28.233025"
     height="28.233263"
     x="0.057868499"
     y="0.057868499" />
  <path
     style="fill:#c90b1c;fill-opacity:1;fill-rule:nonzero;stroke:none"
     d="M 1.4243807,2.1336516 H 26.924381 V 26.215348 H 1.4243807 V 2.1336516 m 17.6328133,12.0687914 0.90625,2.238281 c 0.05469,0.152344 0.222656,0.484375 0.08984,0.695312 -0.160157,0.25 -0.554688,0.234376 -0.8125,0.234376 l -2.132813,0.0039 c 0.285156,1.140625 1.332031,1.992187 2.574219,1.992187 1.457031,0 2.644531,-1.175781 2.644531,-2.621093 0,-1.441407 -1.1875,-2.617188 -2.644531,-2.617188 -0.21875,0 -0.429688,0.02734 -0.625,0.07422 M 16.803288,11.41338 h -5.925782 l -0.207031,0.707032 4.4375,4.429687 1.695313,-5.136719 m 1.378906,2.339844 -0.820313,-1.914062 -1.617187,4.855468 h 0.574218 c 0.01953,-1.285156 0.773438,-2.398437 1.863282,-2.941406 m -8.164063,0.523438 -0.7109373,2.53125 c -0.039063,0.136718 -0.175782,0.324218 -0.445313,0.246093 -0.273437,-0.07422 -0.246093,-0.3125 -0.210937,-0.433593 l 0.714844,-2.507813 c -0.105469,-0.01563 -0.21875,-0.01953 -0.328126,-0.01953 -1.460937,0 -2.644531,1.167968 -2.644531,2.613281 0,1.445313 1.183594,2.617187 2.644531,2.617187 1.4609383,0 2.6445323,-1.171874 2.6445323,-2.617187 0,-1.101563 -0.6875,-2.042969 -1.664063,-2.429687 m 8.789063,-0.738282 -1.140625,-2.75 0.222656,-0.609375 h 0.507813 V 9.5227556 H 16.27985 v 0.433594 l 0.945312,0.2226554 -0.210937,0.609375 h -5.960937 l 0.21875,-0.714843 c 0.05078,-0.1796874 0.09766,-0.3242184 0.226562,-0.4414064 0.132812,-0.109375 0.382812,-0.109375 0.578125,-0.109375 h 0.996094 v -0.652343 h -1.246094 c -0.378906,0 -0.703125,0.125 -0.898437,0.324218 -0.171876,0.167969 -0.265626,0.457032 -0.335938,0.691406 L 9.5767247,13.417286 c -0.179687,-0.03125 -0.34375,-0.05078 -0.527344,-0.05078 -1.867187,0 -3.382812,1.496094 -3.382812,3.339844 0,1.84375 1.515625,3.34375 3.382812,3.34375 1.8593753,0 3.3750003,-1.5 3.3750003,-3.34375 0,-1.4375 -0.941406,-2.636719 -2.222656,-3.117187 l 0.234375,-0.730469 4.148438,4.105469 c 0.136718,0.136718 0.296874,0.269531 0.484374,0.328124 0.175782,0.07422 0.394532,0.07422 0.574219,0.07422 h 0.734375 c 0.292969,1.546875 1.671875,2.71875 3.316406,2.71875 1.863282,0 3.375,-1.496093 3.375,-3.339843 0,-1.84375 -1.511718,-3.339844 -3.375,-3.339844 -0.304687,0 -0.605468,0.05859 -0.886718,0.132812 M 18.4361,14.43682 c -0.832031,0.441406 -1.386719,1.261718 -1.386719,2.257812 h 2.285157 L 18.4361,14.436818"
     id="path826" />
</svg>
