<?xml version="1.0" encoding="UTF-8" standalone="no"?>
<svg
   width="29pt"
   height="44pt"
   viewBox="0 0 29 44"
   version="1.1"
   id="svg843"
   xmlns="http://www.w3.org/2000/svg"
   xmlns:svg="http://www.w3.org/2000/svg">
  <defs
     id="defs847" />
  <g
     id="surface1">
    <rect
       style="fill:#ffffff;fill-opacity:1;stroke:#000000;stroke-width:0.14173229;stroke-linecap:square;stroke-miterlimit:4;stroke-dasharray:none;stroke-opacity:1"
       id="rect1252"
       width="28.207031"
       height="42.378906"
       x="0.34375"
       y="0.94921899" />
    <path
       style="fill:#c90b1c;fill-opacity:1;fill-rule:nonzero;stroke:none"
       d="m 1.769531,2.371094 h 25.5 v 39.683594 h -25.5 V 2.371094 m 17.632813,9.109375 0.90625,2.238281 c 0.05469,0.152344 0.222656,0.484375 0.08984,0.695312 -0.160157,0.25 -0.554688,0.234376 -0.8125,0.234376 l -2.132813,0.0039 c 0.285156,1.140625 1.332031,1.992187 2.574219,1.992187 1.457031,0 2.644531,-1.175781 2.644531,-2.621093 0,-1.441407 -1.1875,-2.617188 -2.644531,-2.617188 -0.21875,0 -0.429688,0.02734 -0.625,0.07422 M 17.148438,8.691406 h -5.925782 l -0.207031,0.707032 4.4375,4.429687 1.695313,-5.136719 m 1.378906,2.339844 -0.820313,-1.914062 -1.617187,4.855468 h 0.574218 C 16.683594,12.6875 17.4375,11.574219 18.527344,11.03125 m -8.164063,0.523438 -0.710937,2.53125 c -0.039063,0.136718 -0.175782,0.324218 -0.445313,0.246093 -0.273437,-0.07422 -0.246093,-0.3125 -0.210937,-0.433593 l 0.714844,-2.507813 c -0.105469,-0.01563 -0.21875,-0.01953 -0.328126,-0.01953 -1.460937,0 -2.644531,1.167968 -2.644531,2.613281 0,1.445313 1.183594,2.617187 2.644531,2.617187 1.460938,0 2.644532,-1.171874 2.644532,-2.617187 0,-1.101563 -0.6875,-2.042969 -1.664063,-2.429687 m 8.789063,-0.738282 -1.140625,-2.75 0.222656,-0.609375 h 0.507813 V 6.800781 H 16.625 v 0.433594 l 0.945312,0.222656 -0.210937,0.609375 h -5.960937 l 0.21875,-0.714844 c 0.05078,-0.179687 0.09766,-0.324218 0.226562,-0.441406 0.132812,-0.109375 0.382812,-0.109375 0.578125,-0.109375 h 0.996094 V 6.148438 h -1.246094 c -0.378906,0 -0.703125,0.125 -0.898437,0.324218 -0.171876,0.167969 -0.265626,0.457032 -0.335938,0.691406 l -1.015625,3.53125 c -0.179687,-0.03125 -0.34375,-0.05078 -0.527344,-0.05078 -1.867187,0 -3.382812,1.496094 -3.382812,3.339844 0,1.84375 1.515625,3.34375 3.382812,3.34375 1.859375,0 3.375,-1.5 3.375,-3.34375 0,-1.4375 -0.941406,-2.636719 -2.222656,-3.117187 l 0.234375,-0.730469 4.148438,4.105469 c 0.136718,0.136718 0.296874,0.269531 0.484374,0.328124 0.175782,0.07422 0.394532,0.07422 0.574219,0.07422 h 0.734375 c 0.292969,1.546875 1.671875,2.71875 3.316406,2.71875 1.863282,0 3.375,-1.496093 3.375,-3.339843 0,-1.84375 -1.511718,-3.339844 -3.375,-3.339844 -0.304687,0 -0.605468,0.05859 -0.886718,0.132812 m -0.371094,0.898438 c -0.832031,0.441406 -1.386719,1.261718 -1.386719,2.257812 h 2.285157 L 18.78125,11.714844"
       id="path826" />
    <path
       style="fill:#449dd7;fill-opacity:1;fill-rule:nonzero;stroke:none"
       d="M 6.773438,23.617188 H 22.542969 V 39.226562 H 6.773438 V 23.617188"
       id="path828" />
    <text
       xml:space="preserve"
       style="font-weight:bold;font-size:12px;line-height:1.25;font-family:Arial;-inkscape-font-specification:'Arial, Bold';text-align:center;text-anchor:middle;stroke-width:0.750002"
       x="14.939453"
       y="34.527344"
       id="text1"><tspan
         id="tspan1"
         style="font-style:italic;font-variant:normal;font-weight:bold;font-stretch:normal;font-size:12px;font-family:Arial;-inkscape-font-specification:'Arial Bold Italic';text-align:center;text-anchor:middle;fill:#ffffff;fill-opacity:1;stroke-width:0.750002"
         x="14.939453"
         y="34.527344">param(text1)</tspan></text>
  </g>
</svg>
