<?xml version="1.0" encoding="UTF-8" standalone="no"?>
<svg
   width="29pt"
   height="44pt"
   viewBox="0 0 29 44"
   version="1.1"
   id="svg843"
   xml:space="preserve"
   xmlns="http://www.w3.org/2000/svg"
   xmlns:svg="http://www.w3.org/2000/svg"><defs
     id="defs847" /><g
     id="surface1"
     transform="translate(0.05273438)"><rect
       style="fill:#ffffff;fill-opacity:1;stroke:#000000;stroke-width:0.141732;stroke-linecap:square;stroke-miterlimit:4;stroke-dasharray:none;stroke-opacity:1"
       id="rect1252"
       width="28.207031"
       height="42.378906"
       x="0.34375"
       y="0.94921899" /><path
       style="fill:#c90b1c;fill-opacity:1;fill-rule:nonzero;stroke:none"
       d="m 1.769531,2.371094 h 25.5 v 39.683594 h -25.5 V 2.371094"
       id="path826" /></g><style
     type="text/css"
     id="style2">.ML_SO_44_075_svg__st0{fill:#fab600}.ML_SO_44_075_svg__st1{fill:#fff}</style><g
     id="ML_SO_44_075_svg__g160"
     transform="matrix(0.07417686,0,0,0.07417686,-7.4786036,9.5412706)"><rect
       style="fill:#fab600;fill-opacity:1;stroke:none;stroke-width:1.33289;paint-order:markers fill stroke"
       id="rect1"
       width="212.59999"
       height="212.59999"
       x="189.49774"
       y="183.66678" /><text
       xml:space="preserve"
       style="font-weight:bold;font-size:148.294px;line-height:1.25;font-family:Arial;-inkscape-font-specification:'Arial, Bold';text-align:center;text-anchor:middle;stroke-width:10.111"
       x="299.77563"
       y="336.84384"
       id="text1"><tspan
         id="tspan1"
         style="font-style:italic;font-variant:normal;font-weight:bold;font-stretch:normal;font-size:148.294px;font-family:Arial;-inkscape-font-specification:'Arial Bold Italic';text-align:center;text-anchor:middle;fill:#ffffff;fill-opacity:1;stroke-width:10.111"
         x="299.77563"
         y="336.84384">param(text1)</tspan></text></g><path
     id="path47-1"
     style="fill:#fffdfd;fill-opacity:1;fill-rule:nonzero;stroke:none;stroke-width:1"
     d="m 15.974368,4.9779533 c -0.244545,-0.01134 -0.669433,0.09128 -0.864258,0.518541 -0.02721,0.05471 -0.208006,0.484866 -0.208006,0.484866 l 2.141603,0.555166 c -0.214838,-0.49218 -0.148932,-1.367178 -0.977052,-1.546866 -0.02636,-0.0057 -0.05734,-0.01134 -0.0923,-0.01134 z m -1.119141,1.20994 c -0.04297,0.199275 -0.108397,0.375505 -0.108397,0.555193 -0.004,0.429676 0.179207,0.930161 0.698735,0.930161 0.378904,0 1.050293,-0.375959 1.050293,-0.911112 v -0.117071 z m 3.430664,0.654803 c -0.01559,0.0014 -0.03101,0.0057 -0.04397,0.01134 -0.140627,0.05074 -0.256819,0.05074 -0.342771,0.175749 -0.101566,0.164125 0.312009,0.343729 0.487794,0.562478 0.398435,0.511739 0.648927,0.940451 0.87158,1.397481 0.05468,0.09751 0.261241,0.796875 0.558108,0.796875 0.363282,0 0.66797,-0.838885 0.66797,-0.9756 0,-0.351921 -1.715057,-2.009679 -2.19873,-1.967272 z m -1.187986,0.294435 c -0.61719,0 -2.922366,1.691404 -4.328614,2.601552 -0.449218,-0.125008 -0.905276,0.4609417 -0.553709,0.8906177 0.195307,0.250015 0.47998,0.254834 0.687011,0.149385 0.160157,-0.0703 0.270028,-0.223653 0.29736,-0.383782 0.249987,0.222803 0.687013,0.644542 0.687013,0.644542 -0.57422,0.644513 -1.055177,1.187971 -1.469239,1.645001 -0.05859,0.06265 -0.144057,0.164693 -0.253418,0.285647 -0.460939,-0.374995 -1.046387,-0.597656 -1.683105,-0.597656 -1.4570332,0 -2.6411132,1.17873 -2.6411132,2.63965 0,1.457036 1.18408,2.636731 2.6411132,2.636731 1.464843,0 2.651366,-1.179695 2.651366,-2.636731 0,-0.613275 -0.210926,-1.179184 -0.562498,-1.624507 l 0.602053,-0.667956 c 0.249987,0.988271 1.129394,4.160154 1.129394,4.160154 0,0 0.722168,0.225922 1.601073,0.499493 -0.02721,0.152504 -0.04249,0.308608 -0.04249,0.468766 0,1.460919 1.183595,2.641096 2.648438,2.641096 1.46094,0 2.651369,-1.180177 2.651369,-2.641096 0,-1.457036 -1.190429,-2.648438 -2.651369,-2.648438 -0.03515,0 -0.0703,4.82e-4 -0.105477,0.0057 L 18.18335,13.982151 c 0.753905,-0.777345 1.758299,-1.690413 1.703613,-2.25292 -0.105477,-1.058599 -1.425294,-4.4101697 -2.57373,-4.5703277 -0.160158,0 -0.168463,-0.01984 -0.215348,-0.01984 z m -0.914065,1.593751 c 0.40625,0.714841 1.343262,2.4345637 1.343262,2.4345637 0,0 -1.38623,0.347159 -2.081543,0.487785 l -0.05859,0.555194 -1.308107,-0.48926 0.635743,-0.714841 -1.057617,-0.890645 z m -2.54736,3.4541007 1.68457,0.632806 c -0.08595,0.691398 -0.203613,1.772447 -0.203613,1.772447 0,0.195307 -0.10987,0.915052 -0.10987,1.227543 0,0.257953 0.18017,0.58887 0.613771,0.542013 0.429687,-0.03912 1.219238,-0.97268 2.043454,-1.839855 l 0.140627,0.770513 c -0.777342,0.218835 -1.415039,0.781257 -1.731444,1.511717 l -1.327148,-0.42188 z m 4.145505,0.18737 -0.38672,0.588869 -1.051758,-0.401358 z m -7.300781,0.750019 c 0.445312,0 0.85449,0.151937 1.174805,0.405751 -0.312497,0.351552 -0.67871,0.757814 -1.010741,1.125014 -0.277342,0.07824 -0.484376,0.164693 -0.433596,0.449688 0.03124,0.144567 0.226063,0.229606 0.358889,0.178866 0.04688,-0.01134 0.101083,-0.03033 0.405762,-0.120189 l 1.08252,-1.204101 c 0.203131,0.300785 0.323731,0.664073 0.323731,1.054687 0,1.046891 -0.850586,1.898447 -1.901367,1.898447 -1.0390652,0 -1.8911142,-0.851556 -1.8911142,-1.898447 0,-1.050775 0.852049,-1.889631 1.8911142,-1.889631 z m 5.749512,0.02551 0.824706,0.325191 -1.094235,1.652343 z m 2.308592,2.800772 c 1.031253,0.01984 1.867678,0.863773 1.867678,1.891134 0,1.046863 -0.851565,1.894025 -1.898439,1.894025 -1.039062,0 -1.895508,-0.847162 -1.895508,-1.894025 0,-0.07824 0.004,-0.156189 0.01162,-0.234425 0.714844,0.218834 1.418457,0.440929 1.855956,0.581556 0.285157,0.06265 0.437992,-0.06208 0.402832,-0.31201 z m -0.597656,0.08646 0.269518,1.445811 -1.413576,-0.449717 c 0.226574,-0.468737 0.640137,-0.839849 1.144044,-0.996094 z" /></svg>
