<?xml version="1.0" encoding="UTF-8" standalone="no"?>
<svg
   xmlns:dc="http://purl.org/dc/elements/1.1/"
   xmlns:cc="http://creativecommons.org/ns#"
   xmlns:rdf="http://www.w3.org/1999/02/22-rdf-syntax-ns#"
   xmlns:svg="http://www.w3.org/2000/svg"
   xmlns="http://www.w3.org/2000/svg"
   xmlns:sodipodi="http://sodipodi.sourceforge.net/DTD/sodipodi-0.dtd"
   xmlns:inkscape="http://www.inkscape.org/namespaces/inkscape"
   width="75pt"
   height="22pt"
   viewBox="0 0 75 22"
   version="1.1"
   id="svg6731"
   sodipodi:docname="451-1-l.svg"
   inkscape:version="1.0.2 (e86c870879, 2021-01-15, custom)">
  <metadata
     id="metadata6737">
    <rdf:RDF>
      <cc:Work
         rdf:about="">
        <dc:format>image/svg+xml</dc:format>
        <dc:type
           rdf:resource="http://purl.org/dc/dcmitype/StillImage" />
        <dc:title />
      </cc:Work>
    </rdf:RDF>
  </metadata>
  <defs
     id="defs6735" />
  <sodipodi:namedview
     pagecolor="#ffffff"
     bordercolor="#666666"
     borderopacity="1"
     objecttolerance="10"
     gridtolerance="10"
     guidetolerance="10"
     inkscape:pageopacity="0"
     inkscape:pageshadow="2"
     inkscape:window-width="1920"
     inkscape:window-height="1017"
     id="namedview6733"
     showgrid="false"
     inkscape:zoom="6.515"
     inkscape:cx="30.670812"
     inkscape:cy="10.324397"
     inkscape:window-x="3832"
     inkscape:window-y="-3"
     inkscape:window-maximized="1"
     inkscape:current-layer="svg6731"
     inkscape:document-rotation="0" />
  <path
     stroke="#211e1e"
     fill="#ffffff"
     fill-rule="nonzero"
     stroke-width="0.0248775"
     stroke-linejoin="round"
     stroke-miterlimit="4"
     id="svg_20"
     d="M 13.515625,21.660156 1.1419367,11.175345 13.515625,0.683594 H 74.261719 V 21.660156 H 13.515625" />
  <path
     style="fill:#211e1e;fill-opacity:1;fill-rule:nonzero;stroke:none"
     d="M 74.40625,0.542969 H 13.464844 L 0.703125,11.226562 13.464844,21.800781 H 74.40625 V 0.542969 M 74.261719,0.683594 V 21.660156 H 13.515625 L 0.925781,11.226562 13.515625,0.683594 h 60.746094"
     id="path6712" />
  <path
     style="fill:#ae1e19;fill-opacity:1;fill-rule:nonzero;stroke:none"
     d="M 72.832031,1.964844 H 13.453125 l -8.5,9.261718 8.5,9.125 H 72.832031 V 1.964844 M 47.886719,10.875 l 0.910156,2.261719 c 0.05469,0.152343 0.222656,0.488281 0.08984,0.703125 -0.160156,0.253906 -0.554688,0.234375 -0.8125,0.234375 l -2.132813,0.0039 c 0.285157,1.15625 1.332031,2.011719 2.570313,2.011719 1.460937,0 2.648437,-1.183594 2.648437,-2.644532 0,-1.457031 -1.1875,-2.644531 -2.648437,-2.644531 -0.214844,0 -0.425782,0.02734 -0.625,0.07422 M 45.632809,8.058589 H 39.707027 L 39.503906,8.773438 43.9375,13.25 45.632813,8.058594 m 1.378906,2.363281 -0.816406,-1.933594 -1.617188,4.90625 h 0.574219 c 0.01953,-1.296875 0.773437,-2.425781 1.859375,-2.972656 m -8.164063,0.53125 -0.710937,2.554687 c -0.03906,0.136719 -0.175782,0.328126 -0.445313,0.25 -0.273437,-0.07812 -0.246093,-0.316406 -0.210937,-0.441406 l 0.714844,-2.53125 c -0.105469,-0.01563 -0.21875,-0.01953 -0.328126,-0.01953 -1.460937,0 -2.648437,1.183594 -2.648437,2.640625 0,1.457031 1.1875,2.640625 2.648437,2.640625 1.460938,0 2.648438,-1.183594 2.648438,-2.640625 0,-1.113281 -0.691406,-2.066406 -1.667969,-2.453125 M 47.636719,10.207031 46.5,7.425781 46.722656,6.8125 h 0.507813 V 6.148438 h -2.117188 v 0.4375 L 46.058594,6.8125 45.847656,7.425781 h -5.964843 l 0.21875,-0.722656 C 40.15625,6.523438 40.199219,6.375 40.332031,6.257812 40.464844,6.148438 40.710937,6.148438 40.90625,6.148438 h 0.996094 V 5.488281 h -1.242188 c -0.382812,0 -0.707031,0.125 -0.902343,0.328125 -0.171876,0.167969 -0.265626,0.460938 -0.332032,0.699219 l -1.019531,3.566406 c -0.179687,-0.03125 -0.34375,-0.05078 -0.527344,-0.05078 -1.867187,0 -3.382812,1.511719 -3.382812,3.375 0,1.863281 1.515625,3.378906 3.382812,3.378906 1.863281,0 3.375,-1.515625 3.375,-3.378906 0,-1.449219 -0.941406,-2.664062 -2.222656,-3.148438 l 0.234375,-0.738282 4.148438,4.148438 C 43.554687,13.800781 43.710937,13.9375 43.898437,14 c 0.175782,0.07031 0.398438,0.07031 0.578126,0.07031 l 0.734374,0.0039 c 0.292969,1.5625 1.667969,2.746093 3.316407,2.746093 1.863281,0 3.375,-1.511718 3.375,-3.375 0,-1.859374 -1.511719,-3.371093 -3.375,-3.371093 -0.304688,0 -0.605469,0.05469 -0.890625,0.132812 m -0.367188,0.902344 c -0.832031,0.449219 -1.390625,1.277344 -1.390625,2.285156 h 2.289063 l -0.898438,-2.285156 m -29.277344,0.1875 c -0.21875,0.0625 -0.328124,0.195313 -0.328124,0.398437 0,0.113282 0.03125,0.242188 0.08203,0.382813 h 0.0039 v 0.0039 c 0.07813,0.207031 0.265625,0.417969 0.5625,0.628907 0.296875,0.210937 0.5625,0.320312 0.792969,0.328124 0.617187,-0.0078 1.1875,-0.01562 1.714844,-0.01562 0.324218,0 0.765624,0.0039 1.324218,0.0078 0.585938,0.0039 1.0625,0.0078 1.425782,0.0078 0.171874,0 0.347656,0 0.523437,0 0.925781,-0.0078 1.5625,-0.08594 1.914063,-0.234374 0.15625,-0.06641 0.269531,-0.152344 0.335937,-0.253907 0.06641,-0.101562 0.101563,-0.234375 0.101563,-0.402343 0,-0.238282 -0.07031,-0.570313 -0.210938,-1 -0.05469,-0.179688 -0.210938,-0.429688 -0.457031,-0.75 C 25.476556,10.011684 25.257806,9.67184 25.124993,9.378871 24.894524,8.882777 24.757806,8.292934 24.707024,7.60934 V 7.60543 c -0.01563,-0.171875 -0.07422,-0.40625 -0.179687,-0.703125 -0.05859,-0.175782 -0.125,-0.316406 -0.1875,-0.421875 -0.05469,-0.082031 -0.09766,-0.132813 -0.128907,-0.140625 -0.0078,0.00391 -0.01172,0.00781 -0.02344,0.011718 -0.214844,0.136719 -0.464844,0.203126 -0.746094,0.203126 -0.242187,0 -0.613281,-0.070313 -1.105469,-0.21875 C 21.882803,6.19918 21.550771,6.132773 21.34374,6.132773 c -0.191406,0 -0.363281,0.042969 -0.511719,0.128907 0.300782,0.78125 0.617188,1.625 0.957032,2.519531 0.05078,0.132812 0.07422,0.261719 0.07422,0.390625 0,0.53125 -0.414062,0.976563 -1.246094,1.34375 -0.433593,0.191406 -1.132812,0.40625 -2.101562,0.648437 -0.246094,0.0625 -0.421875,0.105469 -0.523438,0.132813 m -0.140624,-0.492187 c -0.464844,0.128906 -0.699219,0.425781 -0.699219,0.890624 0,0.175782 0.03906,0.363282 0.117187,0.5625 0.117188,0.308594 0.367188,0.597657 0.746094,0.867188 0.382812,0.269531 0.738281,0.410156 1.070312,0.421875 h 0.02345 c 0.613281,-0.0078 1.183594,-0.01563 1.710938,-0.01563 0.320312,0 0.761718,0.0039 1.316406,0.0078 0.589844,0.0039 1.066406,0.0078 1.433594,0.0078 0.226562,0 0.402343,0 0.523437,0 0.996094,-0.0078 1.699219,-0.09766 2.113281,-0.277344 0.253906,-0.105469 0.441406,-0.253906 0.5625,-0.445312 0.121094,-0.183594 0.183594,-0.410157 0.183594,-0.675781 0,-0.292969 -0.07813,-0.679688 -0.234375,-1.15625 C 26.64453,10.753837 26.460937,10.44915 26.179687,10.081962 25.902344,9.726493 25.703125,9.421806 25.585937,9.163993 25.382813,8.726493 25.261719,8.195243 25.214844,7.57415 V 7.558594 C 25.195314,7.34375 25.125004,7.070312 25.011719,6.734375 24.937499,6.519531 24.855469,6.34375 24.769531,6.207031 24.640625,6.007812 24.5,5.890625 24.335937,5.847656 l -0.121093,-0.03125 -0.125,0.027344 c -0.05859,0.015625 -0.117188,0.039062 -0.175781,0.074219 -0.132813,0.085937 -0.289063,0.125 -0.472657,0.125 -0.195312,0 -0.515625,-0.066407 -0.960937,-0.199219 -0.503906,-0.148438 -0.882813,-0.226562 -1.136719,-0.226562 -0.285156,0 -0.539063,0.070312 -0.769531,0.203124 l -0.371094,0.21875 0.152344,0.402344 c 0.292968,0.773438 0.609375,1.609375 0.957031,2.519532 0.02734,0.074218 0.03906,0.144531 0.03906,0.210937 0,0.304687 -0.3125,0.597656 -0.941407,0.875 -0.40625,0.179687 -1.078125,0.386719 -2.019531,0.621094 -0.269531,0.06641 -0.449219,0.113281 -0.539062,0.136719 m 9.609374,3.804687 c -0.507812,0 -0.921874,0.410156 -0.921874,0.921875 0,0.507812 0.414062,0.917969 0.921874,0.917969 0.507813,0 0.921876,-0.410157 0.921876,-0.917969 0,-0.511719 -0.414063,-0.921875 -0.921876,-0.921875 m 0,-0.503906 c -0.785156,0 -1.421874,0.636719 -1.421874,1.425781 0,0.785156 0.636718,1.421875 1.421874,1.421875 0.789063,0 1.425782,-0.636719 1.425782,-1.421875 0,-0.789062 -0.636719,-1.425781 -1.425782,-1.425781 m -3.386718,0.503906 c -0.511719,0 -0.925782,0.410156 -0.925782,0.921875 0,0.507812 0.414063,0.917969 0.925782,0.917969 0.507812,0 0.917968,-0.410157 0.917968,-0.917969 0,-0.511719 -0.410156,-0.921875 -0.917968,-0.921875 m 0,-0.503906 c -0.789063,0 -1.425782,0.636719 -1.425782,1.425781 0,0.785156 0.636719,1.421875 1.425782,1.421875 0.785156,0 1.421875,-0.636719 1.421875,-1.421875 0,-0.789062 -0.636719,-1.425781 -1.421875,-1.425781 m -3.398438,0.503906 c -0.507812,0 -0.921875,0.410156 -0.921875,0.921875 0,0.507812 0.414063,0.917969 0.921875,0.917969 0.511719,0 0.921875,-0.410157 0.921875,-0.917969 0,-0.511719 -0.410156,-0.921875 -0.921875,-0.921875 m 0,-0.503906 c -0.785156,0 -1.421875,0.636719 -1.421875,1.425781 0,0.785156 0.636719,1.421875 1.421875,1.421875 0.785156,0 1.425782,-0.636719 1.425782,-1.421875 0,-0.789062 -0.640626,-1.425781 -1.425782,-1.425781 m -3.394531,0.503906 c -0.511719,0 -0.921875,0.410156 -0.921875,0.921875 0,0.507812 0.410156,0.917969 0.921875,0.917969 0.507813,0 0.921875,-0.410157 0.921875,-0.917969 0,-0.511719 -0.414062,-0.921875 -0.921875,-0.921875 m 0,-0.503906 c -0.785156,0 -1.425781,0.636719 -1.425781,1.425781 0,0.785156 0.640625,1.421875 1.425781,1.421875 0.785156,0 1.421875,-0.636719 1.421875,-1.421875 0,-0.789062 -0.636719,-1.425781 -1.421875,-1.425781"
     id="path6714" />
  <g
     id="g7316"
     transform="translate(52.502773,-24.746055)">
    <path
       style="fill:#1966ba;fill-opacity:1;fill-rule:nonzero;stroke:none"
       d="M 3.0480079,28.046805 H 18.829258 V 43.816336 H 3.0480079 V 28.046805"
       id="path6716" />
    <path
       style="fill:#211e1e;fill-opacity:1;fill-rule:nonzero;stroke:none"
       d="m 18.395664,33.56243 -0.425781,0.05469 v -0.08203 l 0.324218,-0.04687 -0.324218,-0.175782 v -0.09375 l 0.425781,0.234375 v 0.109375 m -0.191406,-0.371094 c -0.01563,-0.0078 -0.03516,-0.01953 -0.05469,-0.03516 -0.0078,-0.0078 -0.01563,-0.02734 -0.01563,-0.05469 0,-0.03516 0.01563,-0.05469 0.05469,-0.05469 0.0078,0 0.0078,0 0.01563,0 v 0.144531 m 0.05469,-0.214843 v 0.226562 c 0.03516,0 0.05469,-0.01172 0.06641,-0.03125 0.01563,-0.0039 0.01563,-0.03516 0.01563,-0.05859 0,-0.02734 -0.01172,-0.06641 -0.01563,-0.08984 l 0.05859,0.0078 c 0,0.01563 0.01172,0.02734 0.01172,0.04687 0.0078,0.01563 0.0078,0.03516 0.0078,0.05078 0,0.04297 -0.0078,0.08203 -0.03516,0.109376 -0.01953,0.02734 -0.05469,0.03516 -0.09766,0.04297 -0.03516,0 -0.07422,-0.0078 -0.101563,-0.02344 -0.02734,-0.01953 -0.05469,-0.03906 -0.07422,-0.06641 -0.01563,-0.02344 -0.02344,-0.05469 -0.02344,-0.08984 0,-0.04297 0.0078,-0.07031 0.03516,-0.09766 0.01953,-0.01562 0.04297,-0.02734 0.08984,-0.02734 0.01953,0 0.04297,0 0.0625,0 m 0.136739,-0.02734 -0.460937,-0.09766 v -0.08203 l 0.460937,0.09766 v 0.08203 m -0.324219,-0.367187 c 0,-0.04688 0.01953,-0.07422 0.03516,-0.09766 0.02734,-0.03125 0.0625,-0.04687 0.109376,-0.04687 0.03516,0 0.0625,0.01172 0.09766,0.02734 0.02734,0.01953 0.04687,0.03516 0.0625,0.0625 0.01953,0.02734 0.02734,0.0625 0.02734,0.101562 0,0.03906 -0.01953,0.07813 -0.04297,0.105469 -0.01953,0.01953 -0.05469,0.03516 -0.101563,0.03516 -0.03516,0 -0.07031,-0.0078 -0.09766,-0.02734 -0.02734,-0.01953 -0.04687,-0.03516 -0.06641,-0.0625 -0.01563,-0.02734 -0.02344,-0.0625 -0.02344,-0.09766 m 0.269532,0.03516 c 0,0.02734 -0.01172,0.04687 -0.02734,0.05078 -0.0078,0.01172 -0.02734,0.01172 -0.04297,0.01172 -0.03125,0 -0.04687,0 -0.06641,-0.01172 -0.01563,-0.0039 -0.03516,-0.01563 -0.04297,-0.03516 -0.01953,-0.0039 -0.02734,-0.02344 -0.02734,-0.04297 0,-0.02734 0.0078,-0.04687 0.02734,-0.05469 0.0078,-0.0078 0.02734,-0.0078 0.05469,-0.0078 0.01953,0 0.03516,0 0.05469,0.0078 0.01563,0.0078 0.03516,0.01953 0.04297,0.02734 0.01563,0.01953 0.02734,0.03516 0.02734,0.05469 m 0.05469,-0.207032 -0.460937,-0.09766 v -0.08203 l 0.460937,0.09766 v 0.08203 m -0.08984,-0.242187 c -0.01172,-0.0078 -0.02734,-0.0078 -0.03516,-0.02734 -0.01172,-0.01172 -0.01172,-0.01563 -0.01953,-0.03516 0,-0.01953 0,-0.03516 0,-0.04687 v -0.02734 c 0.02734,0 0.04297,0.0078 0.0625,0.02734 0.01563,0.01172 0.02734,0.03516 0.02734,0.06641 0,0.0039 0,0.01563 -0.01172,0.02344 0,0.01172 -0.0039,0.01172 -0.02344,0.01953 m 0.08985,-0.117187 -0.04687,-0.01172 c 0.01953,0.01953 0.02734,0.03125 0.03516,0.04687 0.01172,0.01953 0.01953,0.03906 0.01953,0.05469 0,0.03516 -0.0078,0.05469 -0.02734,0.07422 -0.01563,0.01563 -0.03516,0.02344 -0.0625,0.02344 -0.02734,0 -0.04297,-0.0078 -0.0625,-0.01953 -0.01563,-0.0039 -0.02734,-0.02344 -0.03516,-0.04297 0,-0.02734 -0.01172,-0.04688 -0.01172,-0.0625 0,-0.02734 -0.0078,-0.04297 -0.0078,-0.0625 v -0.02734 c -0.0078,-0.0078 -0.0078,-0.0078 -0.02734,-0.0078 -0.0078,0 -0.01953,0.0078 -0.01953,0.0078 -0.0078,0.0078 -0.0078,0.01563 -0.01563,0.02734 0,0.0078 0,0.01953 0,0.02734 0,0.03516 0.0078,0.07031 0.02734,0.105469 l -0.07031,-0.01563 c -0.01172,-0.02734 -0.01953,-0.0625 -0.01953,-0.09766 0,-0.03125 0.0078,-0.04687 0.0078,-0.06641 0.01172,-0.01562 0.01563,-0.03516 0.03516,-0.04297 0.01172,-0.01172 0.02734,-0.01563 0.05469,-0.01563 0.01172,0 0.02734,0 0.04688,0.0039 0.01953,0 0.03516,0 0.0625,0.01172 0.01562,0 0.04687,0.0078 0.0625,0.0078 0.01953,0.01172 0.03516,0.01172 0.05469,0.01172 v 0.07031 m 0,-0.144532 -0.269531,-0.0625 c -0.01953,0 -0.03516,0 -0.04687,-0.0078 v -0.07032 h 0.03516 c -0.01953,-0.01172 -0.02344,-0.03125 -0.02344,-0.03906 -0.01172,-0.01563 -0.01953,-0.03516 -0.01953,-0.05469 0,-0.02734 0.0078,-0.05078 0.02344,-0.07031 0.01953,-0.01953 0.04687,-0.02734 0.08594,-0.02734 0.0078,0 0.01563,0 0.02344,0 0.01953,0 0.03125,0.0078 0.03516,0.0078 l 0.156216,0.03906 v 0.07813 l -0.144531,-0.03516 c -0.01563,0 -0.02734,0 -0.03516,0 -0.01172,-0.0078 -0.01953,-0.0078 -0.03516,-0.0078 -0.01172,0 -0.01953,0.0078 -0.03125,0.01563 -0.0078,0.0078 -0.01563,0.01953 -0.01563,0.02734 0,0.01563 0.0078,0.03516 0.01563,0.04687 0.01172,0.01953 0.03125,0.02344 0.03906,0.02344 0.01563,0.01172 0.03516,0.01953 0.04687,0.01953 l 0.160156,0.03516 v 0.08203 m -0.261704,-0.554687 c 0,-0.01953 0.0078,-0.03906 0.02734,-0.04687 0.01953,-0.0078 0.03516,-0.0078 0.05469,-0.0078 0.01953,0 0.03516,0 0.05469,0.0078 0.01563,0.0078 0.03516,0.01563 0.04297,0.02734 0.01563,0.01953 0.02734,0.03516 0.02734,0.05469 0,0.01563 -0.01172,0.02344 -0.01563,0.03516 0,0 -0.01953,0.0078 -0.03125,0.0078 -0.0078,0.01172 -0.01562,0.01172 -0.03516,0.01172 -0.0078,0 -0.02344,-0.01172 -0.04297,-0.01172 -0.02734,-0.0078 -0.04688,-0.01953 -0.05469,-0.03516 -0.01953,-0.0078 -0.02734,-0.02734 -0.02734,-0.04297 m -0.199208,-0.121091 v -0.08984 l 0.390624,0.08984 c 0.01563,0 0.02344,0 0.04297,0.01172 0.0078,0 0.01563,0 0.02734,0 v 0.07813 l -0.04687,-0.0078 c 0.01953,0.0078 0.02734,0.02734 0.03516,0.04297 0.01172,0.01172 0.01953,0.03906 0.01953,0.05469 0,0.03125 -0.0078,0.04688 -0.01953,0.06641 -0.01563,0.01563 -0.02344,0.02344 -0.05469,0.03516 -0.01563,0.0078 -0.03516,0.0078 -0.05859,0.0078 -0.03125,0 -0.06641,-0.0078 -0.08984,-0.01953 -0.03125,-0.0078 -0.05469,-0.02344 -0.07422,-0.05078 -0.01562,-0.01953 -0.03516,-0.04687 -0.03516,-0.08203 0,-0.04687 0.01953,-0.07031 0.04297,-0.101563 l -0.179692,-0.03515 m 0.04687,-0.558594 0.07422,0.01953 c -0.01172,0.01172 -0.01953,0.02734 -0.01953,0.03516 0,0.01953 -0.01172,0.03906 -0.01172,0.05469 0,0.01172 0,0.01953 0.01172,0.03125 0,0.0039 0.0078,0.01563 0.01953,0.02344 0,0.01172 0.0039,0.01172 0.02344,0.01563 0.01563,-0.0039 0.02734,-0.0039 0.03516,-0.02344 0.01172,-0.01563 0.02734,-0.02734 0.03516,-0.05469 0.01171,-0.01563 0.01952,-0.02734 0.03906,-0.04687 0.01563,-0.01563 0.04687,-0.01563 0.07031,-0.02344 0.03516,0 0.06641,0.0078 0.08203,0.02344 0.01953,0.01953 0.03516,0.03906 0.04297,0.06641 0.01172,0.02344 0.01953,0.05469 0.01953,0.08984 0,0.01953 -0.0078,0.03516 -0.0078,0.0625 -0.01172,0.01563 -0.01172,0.03516 -0.01953,0.05078 l -0.07031,-0.01563 c 0.0078,-0.01953 0.01953,-0.03516 0.01953,-0.05469 0.0039,-0.01953 0.0039,-0.03516 0.0039,-0.05469 0,-0.0078 0,-0.02344 -0.0039,-0.03516 0,-0.0078 -0.01172,-0.02344 -0.01953,-0.02344 -0.01172,-0.01172 -0.01953,-0.01953 -0.03516,-0.01953 -0.01953,0 -0.03516,0.0078 -0.04687,0.02344 -0.0078,0.01172 -0.01953,0.03125 -0.02734,0.04688 -0.01563,0.01953 -0.02734,0.03906 -0.04687,0.05469 -0.0078,0.0078 -0.03516,0.01953 -0.05859,0.01953 -0.03125,0 -0.05469,-0.01172 -0.07422,-0.01953 -0.01563,-0.01563 -0.03516,-0.03516 -0.04687,-0.06641 -0.0078,-0.01563 -0.0078,-0.03906 -0.0078,-0.07031 0,-0.03516 0.0078,-0.07031 0.01953,-0.109375 m 0.109376,-0.292969 0.05859,0.01953 c -0.0078,0.01563 -0.01563,0.03516 -0.01563,0.05859 0,0.01953 0.0078,0.03516 0.01563,0.05469 0.01953,0.01953 0.03125,0.02734 0.04687,0.03516 0.01953,0.01172 0.03906,0.01172 0.0625,0.01172 0.01172,0 0.02734,0 0.03516,0 0.01172,-0.01172 0.03125,-0.01953 0.03125,-0.02734 0.0039,-0.0078 0.01563,-0.01953 0.01563,-0.03906 0,-0.01563 0,-0.02344 -0.01172,-0.03516 0,-0.0078 0,-0.02344 -0.0039,-0.03516 l 0.05859,0.01172 c 0.01172,0.01563 0.01172,0.02344 0.01172,0.03516 0.0078,0.01953 0.0078,0.02344 0.0078,0.04297 0,0.03516 -0.01953,0.07031 -0.03516,0.101563 -0.02734,0.01562 -0.0625,0.03516 -0.09766,0.03516 -0.03516,0 -0.07422,-0.01172 -0.101563,-0.02734 -0.02734,-0.01953 -0.05469,-0.03906 -0.07422,-0.0625 -0.01563,-0.02734 -0.02344,-0.06641 -0.02344,-0.101562 0,-0.01563 0.0078,-0.02344 0.0078,-0.04297 0,-0.01172 0,-0.02734 0.01172,-0.03516 m 0.304687,0.0078 -0.460937,-0.09766 v -0.08203 l 0.179687,0.04687 v -0.01172 c -0.01953,-0.0078 -0.02344,-0.01953 -0.02344,-0.03516 -0.01172,-0.01953 -0.01953,-0.02734 -0.01953,-0.04297 0,-0.03516 0.0078,-0.06641 0.02344,-0.08203 0.01953,-0.01953 0.04687,-0.02734 0.08594,-0.02734 0.0078,0 0.01563,0 0.02344,0.0078 0.01953,0 0.03125,0 0.03516,0 l 0.15625,0.03516 v 0.08203 l -0.14455,-0.02734 c -0.01563,-0.0078 -0.02734,-0.0078 -0.03516,-0.0078 -0.01172,0 -0.01953,0 -0.03516,0 -0.01172,0 -0.01953,0 -0.03125,0.0078 -0.0078,0.01172 -0.01563,0.01563 -0.01563,0.03516 0,0.01953 0.0078,0.02734 0.01563,0.04687 0.01172,0.0078 0.03125,0.01953 0.03906,0.02734 0.01563,0 0.03516,0.0078 0.04687,0.0078 l 0.160156,0.03516 v 0.08203 m 0,-0.441406 -0.316406,0.04297 v -0.07812 l 0.23439,-0.02734 -0.234375,-0.117188 v -0.08984 l 0.234375,-0.01563 -0.234375,-0.121093 v -0.07813 l 0.316406,0.167968 v 0.08984 l -0.246094,0.01953 0.246094,0.117187 v 0.08984 m -0.191406,-0.566407 c -0.01563,0 -0.03516,-0.01953 -0.05469,-0.02734 -0.0078,-0.01563 -0.01563,-0.03516 -0.01563,-0.05078 0,-0.03516 0.01563,-0.05469 0.05469,-0.05469 0.0078,0 0.0078,0 0.01563,0 v 0.132812 m 0.05469,-0.207031 v 0.226563 c 0.03516,0 0.05469,-0.0078 0.06641,-0.02734 0.01563,-0.01953 0.01563,-0.03516 0.01563,-0.06641 0,-0.03516 -0.01172,-0.05859 -0.01563,-0.09375 l 0.05859,0.0039 c 0,0.01953 0.01172,0.03906 0.01172,0.05469 0.0078,0.01953 0.0078,0.03516 0.0078,0.04687 0,0.05469 -0.0078,0.08984 -0.03516,0.117188 -0.01953,0.02734 -0.05469,0.03516 -0.09766,0.03516 -0.03516,0 -0.07422,-0.0078 -0.101563,-0.01953 -0.02734,-0.01563 -0.05469,-0.03516 -0.07422,-0.05859 -0.01563,-0.03125 -0.02344,-0.06641 -0.02344,-0.101562 0,-0.03516 0.0078,-0.0625 0.03516,-0.08984 0.01953,-0.01953 0.04297,-0.03516 0.08984,-0.03516 0.01953,0 0.04297,0.0078 0.0625,0.0078 m -0.234355,-0.105471 -0.07813,-0.01953 v -0.08203 l 0.07813,0.01953 v 0.08203 m 0.371094,0.07031 -0.316406,-0.0625 v -0.08203 l 0.316406,0.0625 v 0.08203 m -0.316406,-0.46875 0.0625,0.01953 0.1875,0.1875 v -0.152344 l 0.06641,0.0078 v 0.261719 l -0.06641,-0.0078 -0.1875,-0.199219 v 0.144532 l -0.0625,-0.0078 V 28.667899 M 4.1456639,31.484305 4.0558199,31.132743 c -0.015625,-0.05078 -0.035156,-0.08984 -0.0625,-0.105469 -0.027343,-0.01953 -0.050781,-0.03125 -0.082031,-0.01953 h -0.015625 v 0.476562 h -0.332031 v -1.230469 h 0.492187 c 0.125,0 0.226563,0.02344 0.289063,0.07813 0.070312,0.05469 0.109375,0.136718 0.109375,0.25 0,0.06641 -0.019531,0.109374 -0.039063,0.144531 -0.023437,0.04687 -0.054687,0.07422 -0.089844,0.08984 -0.035156,0.03125 -0.078124,0.03516 -0.113281,0.04688 v 0.0078 c 0.023438,0.01172 0.042969,0.01953 0.0625,0.03125 0.027344,0.01563 0.035157,0.03516 0.050781,0.07031 0.019532,0.02344 0.035157,0.07031 0.054688,0.125 l 0.109375,0.386719 h -0.34375 m -0.257813,-0.71875 v -0.277343 h 0.089844 c 0.042969,0 0.078125,0.01562 0.109375,0.04297 0.015625,0.02734 0.035157,0.0625 0.035157,0.09766 0,0.04297 -0.019532,0.07422 -0.046876,0.09766 -0.027343,0.03125 -0.054687,0.03906 -0.089843,0.03906 h -0.097657 m 0.691407,0.261719 c 0,-0.08203 0.011719,-0.164062 0.046875,-0.234375 0.023437,-0.07422 0.070312,-0.136719 0.144531,-0.179687 0.058594,-0.04688 0.148437,-0.06641 0.269531,-0.07422 0.109375,0.0078 0.195313,0.02734 0.257813,0.07422 0.074219,0.04297 0.121093,0.105468 0.15625,0.179687 0.023437,0.07031 0.042969,0.152344 0.042969,0.234375 0,0.08984 -0.019532,0.160156 -0.042969,0.234375 -0.035157,0.07813 -0.082031,0.132813 -0.15625,0.179687 -0.0625,0.04297 -0.148438,0.07031 -0.257813,0.07031 -0.121094,0 -0.210937,-0.02734 -0.269531,-0.07031 -0.074219,-0.04687 -0.121094,-0.101562 -0.144531,-0.179687 -0.035156,-0.07422 -0.046875,-0.144531 -0.046875,-0.234375 m 0.332031,0 c 0,-0.04687 0,-0.08984 0.00781,-0.125 0,-0.05078 0.019532,-0.07422 0.039063,-0.101562 0.015627,-0.02734 0.046877,-0.03516 0.082033,-0.04297 0.035156,0.0078 0.058594,0.01563 0.078125,0.04297 0.019531,0.02734 0.03125,0.05078 0.035157,0.101562 0,0.03516 0.011718,0.07813 0.011718,0.125 0,0.04297 -0.011718,0.08984 -0.011718,0.125 -0.00391,0.04297 -0.015626,0.07813 -0.035157,0.09766 -0.019531,0.02734 -0.042969,0.04687 -0.078125,0.04687 -0.035156,0 -0.066406,-0.01953 -0.082031,-0.04687 -0.019531,-0.01953 -0.039063,-0.05469 -0.039063,-0.09766 -0.00781,-0.03516 -0.00781,-0.08203 -0.00781,-0.125 m 1.574219,-0.460938 v 0.765626 c 0,0.03516 0,0.07031 0,0.09766 0,0.02734 0.011719,0.04687 0.011719,0.05469 h -0.296876 c -0.00781,-0.01953 -0.00781,-0.04297 -0.00781,-0.07422 0,-0.02344 0,-0.05469 0,-0.07812 h -0.011719 c 0,0.01953 -0.00781,0.04297 -0.035156,0.07031 -0.019531,0.02734 -0.042969,0.04687 -0.078125,0.07422 -0.039062,0.01563 -0.085938,0.03516 -0.144531,0.03516 -0.074219,0 -0.144531,-0.02734 -0.199219,-0.07031 -0.046875,-0.05469 -0.074219,-0.128906 -0.082031,-0.226562 v -0.648438 h 0.324219 v 0.550782 c 0,0.08984 0.027343,0.132812 0.089843,0.132812 0.046875,0 0.070313,-0.01953 0.089844,-0.05469 0.015625,-0.02734 0.015625,-0.0625 0.015625,-0.09766 v -0.53125 h 0.324219 m 0.109375,0.214844 v -0.214844 h 0.160156 v -0.199218 l 0.320312,-0.09766 v 0.296874 h 0.179688 v 0.214844 h -0.179688 v 0.386719 c 0,0.04687 0.00391,0.07422 0.023438,0.09375 0.027344,0.01563 0.046875,0.02344 0.082031,0.02344 0.027344,0 0.054688,-0.0078 0.074219,-0.01953 l 0.00781,0.21875 c -0.027343,0.0078 -0.054687,0.0078 -0.09375,0.01563 -0.035156,0 -0.070312,0.01172 -0.125,0.01172 -0.078124,0 -0.152343,-0.02734 -0.203124,-0.07031 -0.054686,-0.04687 -0.085936,-0.121093 -0.085936,-0.199218 V 30.78118 h -0.160156 m 1.054687,0.164063 c 0,-0.0625 0.019531,-0.117188 0.042969,-0.152344 0.019531,-0.03516 0.054688,-0.05469 0.101562,-0.05469 0.054688,0 0.078126,0.01953 0.105469,0.04297 0.019531,0.03125 0.027344,0.07031 0.027344,0.136719 v 0.02734 h -0.277344 m 0.566407,0.171875 h -0.558594 c 0.011718,0.07031 0.035156,0.125 0.070312,0.148437 0.046875,0.03125 0.101563,0.03906 0.164063,0.03906 0.046875,0 0.089843,-0.0078 0.136719,-0.01953 0.042968,-0.01953 0.089843,-0.03516 0.132812,-0.05469 v 0.226563 c -0.035156,0.0078 -0.078125,0.02734 -0.132812,0.03516 -0.054688,0.0078 -0.121094,0.01953 -0.179688,0.01953 -0.128906,0 -0.226562,-0.02734 -0.300781,-0.07031 -0.0625,-0.05469 -0.113281,-0.109374 -0.144531,-0.191406 -0.023438,-0.07422 -0.042969,-0.144531 -0.042969,-0.222656 0,-0.08984 0.019531,-0.175781 0.054687,-0.246094 0.027344,-0.07031 0.078125,-0.125 0.144532,-0.167968 0.0625,-0.04688 0.132812,-0.06641 0.234374,-0.07422 0.089844,0.0078 0.167969,0.02734 0.234376,0.07422 0.058593,0.04297 0.105468,0.09766 0.144531,0.179687 0.023437,0.07031 0.042969,0.144531 0.042969,0.234375 v 0.08984 m -4.105469,-1.253906 -0.25,-0.933594 v 0.933594 h -0.296875 v -1.230469 h 0.492187 l 0.164063,0.773437 h 0.011718 l 0.179688,-0.773437 h 0.472656 v 1.230469 h -0.292968 v -0.933594 h -0.011719 l -0.261719,0.933594 h -0.207031 m 0.984375,-1.058594 v -0.261719 h 0.324218 v 0.261719 h -0.324218 m 0,1.058594 v -0.917969 h 0.324218 v 0.917969 h -0.324218 m 0.449218,-0.699219 v -0.21875 h 0.148438 V 28.74993 l 0.324219,-0.09766 v 0.292969 h 0.183593 v 0.21875 h -0.183593 v 0.394531 c 0,0.03516 0.011719,0.06641 0.03125,0.08203 0.019531,0.01953 0.042969,0.02734 0.070312,0.02734 0.035157,0 0.0625,-0.0078 0.082031,-0.01953 l 0.00781,0.214844 c -0.027341,0.01172 -0.054684,0.01172 -0.089841,0.01953 -0.035156,0 -0.082031,0.01172 -0.125,0.01172 -0.089843,0 -0.164062,-0.03125 -0.214843,-0.07422 -0.046876,-0.04687 -0.085938,-0.117188 -0.085938,-0.195313 v -0.460937 h -0.148438 m 0.71875,0 v -0.21875 h 0.152344 V 28.74993 l 0.324219,-0.09766 v 0.292969 h 0.179687 v 0.21875 h -0.179687 v 0.394531 c 0,0.03516 0.011719,0.06641 0.027344,0.08203 0.019531,0.01953 0.042969,0.02734 0.074219,0.02734 0.035156,0 0.058593,-0.0078 0.078124,-0.01953 l 0.011719,0.214844 c -0.03125,0.01172 -0.054687,0.01172 -0.089843,0.01953 -0.039063,0 -0.085938,0.01172 -0.128907,0.01172 -0.089843,0 -0.160156,-0.03125 -0.207031,-0.07422 -0.054688,-0.04687 -0.078125,-0.117188 -0.089844,-0.195313 v -0.460937 h -0.152344 m 1.050782,0.160156 c 0,-0.05859 0.019531,-0.109375 0.046875,-0.152344 0.019531,-0.03516 0.054687,-0.05078 0.097656,-0.05078 0.046875,0 0.082031,0.01563 0.101563,0.04297 0.023437,0.02734 0.035156,0.08203 0.035156,0.136719 v 0.02344 h -0.28125 m 0.570312,0.171875 h -0.558594 c 0.00781,0.07422 0.023438,0.128906 0.074219,0.152344 0.042969,0.02734 0.09375,0.03516 0.160157,0.03516 0.042968,0 0.089843,-0.0078 0.132812,-0.01563 0.046875,-0.01953 0.089844,-0.03906 0.136719,-0.05469 v 0.226562 c -0.035157,0.0078 -0.082031,0.02344 -0.136719,0.03516 -0.054688,0.0078 -0.113281,0.01953 -0.179688,0.01953 -0.125,0 -0.222656,-0.03125 -0.296874,-0.07422 -0.070313,-0.05469 -0.117188,-0.105469 -0.140626,-0.191407 -0.039062,-0.07031 -0.050781,-0.144531 -0.050781,-0.222656 0,-0.08984 0.019531,-0.171875 0.054688,-0.242187 0.03125,-0.07422 0.082031,-0.128907 0.144531,-0.171875 0.066406,-0.04687 0.136719,-0.0625 0.234375,-0.0625 0.089844,0 0.171875,0.01563 0.234375,0.0625 0.066406,0.04297 0.109375,0.109375 0.144531,0.179687 0.027344,0.07422 0.046875,0.144531 0.046875,0.234375 v 0.08984 m 0.160156,0.367188 v -1.320313 h 0.324219 v 1.320313 h -0.324219 m 0.523438,0 v -1.320313 h 0.324219 v 1.320313 h -0.324219 m 1.042969,-0.414063 c 0,0.03516 -0.0078,0.06641 -0.0078,0.101563 -0.0078,0.03516 -0.02734,0.07422 -0.04297,0.09766 -0.03125,0.02734 -0.06641,0.03516 -0.109376,0.03516 -0.03516,0 -0.06641,-0.0078 -0.08203,-0.02344 -0.019543,-0.01953 -0.027355,-0.04687 -0.039074,-0.08203 0.011719,-0.05469 0.03125,-0.09766 0.074219,-0.117187 0.035156,-0.02734 0.101562,-0.03516 0.171874,-0.03516 h 0.03516 v 0.02344 m 0.277343,-0.179687 v 0.398437 c 0,0.03516 0,0.07031 0.01172,0.105469 0,0.03516 0,0.06641 0,0.08984 h -0.28125 c -0.0078,-0.03516 -0.0078,-0.07813 -0.0078,-0.125 -0.04687,0.05469 -0.08984,0.08984 -0.136719,0.117187 -0.03516,0.01953 -0.08984,0.03906 -0.144531,0.03906 -0.078125,0 -0.148438,-0.03125 -0.195313,-0.08594 -0.054703,-0.05078 -0.082047,-0.125 -0.082047,-0.214844 0,-0.203125 0.152344,-0.3125 0.476563,-0.3125 h 0.08203 v -0.02734 c 0,-0.02734 -0.01563,-0.0625 -0.04687,-0.08203 -0.02344,-0.02734 -0.07031,-0.04297 -0.132813,-0.04297 -0.04687,0 -0.089843,0.0078 -0.144531,0.02734 -0.046879,0.01563 -0.082035,0.03516 -0.117192,0.05859 l -0.00781,-0.230469 c 0.035156,-0.0078 0.078125,-0.02734 0.144531,-0.03906 0.054688,-0.01563 0.125,-0.01563 0.199219,-0.01563 0.105469,0 0.1875,0.01172 0.238281,0.04687 0.06641,0.02344 0.101563,0.07031 0.121094,0.113281 0.01563,0.05469 0.02344,0.109375 0.02344,0.179688 m 0.1796881,0.59375 v -0.726563 c -0.0039,-0.03516 -0.0039,-0.07031 -0.0039,-0.105469 0,-0.03906 0,-0.06641 -0.01172,-0.08594 h 0.304687 c 0,0.01953 0,0.04687 0,0.07422 0,0.02734 0,0.05469 0,0.08203 h 0.01172 c 0,-0.01953 0.01563,-0.04687 0.03516,-0.07031 0.01953,-0.03125 0.04297,-0.04687 0.07812,-0.07422 0.03516,-0.01563 0.08594,-0.02734 0.144532,-0.03516 0.08203,0 0.144531,0.02344 0.199218,0.07813 0.05469,0.04687 0.08203,0.121094 0.08203,0.226563 v 0.636719 H 10.58317 V 29.31631 c 0,-0.08984 -0.02734,-0.136718 -0.08203,-0.136718 -0.04297,0 -0.07031,0.01953 -0.08984,0.05469 -0.01953,0.03516 -0.02734,0.08203 -0.02734,0.125 v 0.503907 h -0.316415 m 1.316406,-0.464844 c 0,-0.07422 0.0078,-0.132813 0.02734,-0.1875 0.01953,-0.04687 0.05469,-0.06641 0.09766,-0.06641 0.04687,0 0.07031,0.01953 0.08984,0.06641 0.02734,0.05469 0.03516,0.113281 0.03516,0.1875 0,0.08203 -0.0078,0.140625 -0.03516,0.1875 -0.01953,0.04297 -0.04297,0.07422 -0.08984,0.07422 -0.04297,0 -0.07813,-0.03125 -0.09766,-0.07422 -0.01953,-0.04687 -0.02734,-0.105469 -0.02734,-0.1875 m 0.566406,-0.855469 v 1.160156 c 0,0.05469 0.0078,0.105469 0.0078,0.160157 H 11.65347 c 0,-0.04297 -0.0078,-0.09766 -0.0078,-0.144532 -0.03516,0.06641 -0.07422,0.101563 -0.121094,0.128906 -0.03516,0.02734 -0.07813,0.03516 -0.125,0.03516 -0.07813,0 -0.148437,-0.02734 -0.195312,-0.0625 -0.05469,-0.04687 -0.08984,-0.105469 -0.117188,-0.179688 -0.01953,-0.07031 -0.03516,-0.160156 -0.03516,-0.25 0,-0.07422 0.01563,-0.144531 0.03516,-0.21875 0.02734,-0.07031 0.0625,-0.125 0.109375,-0.179687 0.04297,-0.04687 0.105469,-0.0625 0.1875,-0.0625 0.0625,0 0.105469,0.01172 0.140625,0.03516 0.04687,0.02734 0.08594,0.06641 0.109375,0.117188 h 0.01172 c -0.01172,-0.04688 -0.01172,-0.09766 -0.01172,-0.160157 v -0.378906 h 0.316406"
       id="path6718" />
    <path
       style="fill:#bf4742;fill-opacity:1;fill-rule:nonzero;stroke:none"
       d="m 6.4425389,33.078055 3.339844,-1.082031 -0.730469,3.6875 -3.328125,1.132812 0.71875,-3.738281"
       id="path6720" />
    <path
       style="fill:#ee2b2e;fill-opacity:1;fill-rule:nonzero;stroke:#bf4742;stroke-width:0.25;stroke-linecap:butt;stroke-linejoin:miter;stroke-miterlimit:4;stroke-opacity:1"
       d="m 6.4425389,33.078055 3.339844,-1.082031 -0.730469,3.6875 -3.328125,1.132813 0.71875,-3.738282"
       id="path6722" />
    <path
       style="fill:#fafdfd;fill-opacity:1;fill-rule:nonzero;stroke:none"
       d="m 7.6222269,33.128836 0.675781,-0.230468 -0.191407,0.96875 0.804688,-0.28125 -0.164062,0.828125 -0.792969,0.269531 -0.1875,0.964844 -0.675781,0.234375 0.179687,-0.964844 -0.800781,0.28125 0.160156,-0.820313 0.804688,-0.277343 0.1875,-0.972657"
       id="path6724" />
    <path
       style="fill:#ffffff;fill-opacity:1;fill-rule:nonzero;stroke:#fafdfd;stroke-width:0.25;stroke-linecap:butt;stroke-linejoin:miter;stroke-miterlimit:4;stroke-opacity:1"
       d="m 7.6222264,33.128837 0.6757813,-0.230469 -0.1914063,0.96875 0.8046875,-0.28125 -0.1640625,0.828125 -0.7929687,0.269531 -0.1875,0.964844 -0.6757813,0.234375 0.1796875,-0.964844 -0.8007812,0.28125 0.1601562,-0.820313 0.8046875,-0.277343 0.1875,-0.972656"
       id="path6726" />
    <path
       style="fill:#ffffff;fill-opacity:1;fill-rule:nonzero;stroke:none"
       d="m 17.505039,31.988212 -0.386719,2.246093 h -5.085937 l -0.367188,1.996094 c 2.84375,0 4.589844,1.144531 4.589844,3.761719 0,1.773437 -0.964844,3.054687 -2.296875,3.824218 H 7.2901949 l 0.457032,-2.351562 c 0.929687,0.574219 1.882812,0.71875 2.6757811,0.71875 1.390625,0 2.679687,-0.59375 2.679687,-2.011719 0,-1.355469 -1.167968,-1.800781 -2.394531,-1.800781 -0.7890631,0 -1.5585941,0.109375 -2.2656251,0.261719 l 1.339844,-6.644531 h 7.7226561"
       id="path6728" />
  </g>
</svg>
