<?xml version="1.0" encoding="UTF-8" standalone="no"?>
<svg
   xmlns:dc="http://purl.org/dc/elements/1.1/"
   xmlns:cc="http://creativecommons.org/ns#"
   xmlns:rdf="http://www.w3.org/1999/02/22-rdf-syntax-ns#"
   xmlns:svg="http://www.w3.org/2000/svg"
   xmlns="http://www.w3.org/2000/svg"
   xmlns:sodipodi="http://sodipodi.sourceforge.net/DTD/sodipodi-0.dtd"
   xmlns:inkscape="http://www.inkscape.org/namespaces/inkscape"
   width="75pt"
   height="22pt"
   viewBox="0 0 75 22"
   version="1.1"
   id="svg6731"
   sodipodi:docname="451-1-r.svg"
   inkscape:version="1.0.2 (e86c870879, 2021-01-15, custom)">
  <metadata
     id="metadata6737">
    <rdf:RDF>
      <cc:Work
         rdf:about="">
        <dc:format>image/svg+xml</dc:format>
        <dc:type
           rdf:resource="http://purl.org/dc/dcmitype/StillImage" />
        <dc:title />
      </cc:Work>
    </rdf:RDF>
  </metadata>
  <defs
     id="defs6735" />
  <sodipodi:namedview
     pagecolor="#ffffff"
     bordercolor="#666666"
     borderopacity="1"
     objecttolerance="10"
     gridtolerance="10"
     guidetolerance="10"
     inkscape:pageopacity="0"
     inkscape:pageshadow="2"
     inkscape:window-width="1920"
     inkscape:window-height="1017"
     id="namedview6733"
     showgrid="false"
     inkscape:zoom="6.515"
     inkscape:cx="62.02524"
     inkscape:cy="13.486895"
     inkscape:window-x="5752"
     inkscape:window-y="-8"
     inkscape:window-maximized="1"
     inkscape:current-layer="svg6731"
     inkscape:document-rotation="0" />
  <path
     stroke="#211e1e"
     fill="#ffffff"
     fill-rule="nonzero"
     stroke-width="0.0248775"
     stroke-linejoin="round"
     stroke-miterlimit="4"
     id="svg_20"
     d="M 61.59375,21.660156 73.967439,11.175345 61.59375,0.683594 H 0.8476564 V 21.660156 H 61.59375" />
  <path
     style="fill:#211e1e;fill-opacity:1;fill-rule:nonzero;stroke:none;stroke-opacity:1"
     d="M 0.703125,0.542969 H 61.644531 L 74.40625,11.226562 61.644531,21.800781 H 0.703125 V 0.542969 M 0.847656,0.683594 V 21.660156 H 61.59375 L 74.183594,11.226562 61.59375,0.683594 H 0.847656"
     id="path6712" />
  <path
     style="fill:#ae1e19;fill-opacity:1;fill-rule:nonzero;stroke:none"
     d="M 2.277344,1.964844 H 61.65625 l 8.5,9.261718 -8.5,9.125 H 2.277344 V 1.964844 M 27.222656,10.875 26.3125,13.136719 c -0.05469,0.152343 -0.222656,0.488281 -0.08984,0.703125 0.160156,0.253906 0.554688,0.234375 0.8125,0.234375 l 2.132813,0.0039 c -0.285157,1.15625 -1.332031,2.011719 -2.570313,2.011719 -1.460937,0 -2.648437,-1.183594 -2.648437,-2.644532 0,-1.457031 1.1875,-2.644531 2.648437,-2.644531 0.214844,0 0.425782,0.02734 0.625,0.07422 m 2.253906,-2.816406 h 5.925782 L 35.605469,8.773438 31.171875,13.25 29.476562,8.058594 m -1.378906,2.363281 0.816406,-1.933594 1.617188,4.90625 H 29.957031 C 29.9375,12.097656 29.183594,10.96875 28.097656,10.421875 m 8.164063,0.53125 0.710937,2.554687 c 0.03906,0.136719 0.175782,0.328126 0.445313,0.25 0.273437,-0.07812 0.246093,-0.316406 0.210937,-0.441406 l -0.714844,-2.53125 c 0.105469,-0.01563 0.21875,-0.01953 0.328126,-0.01953 1.460937,0 2.648437,1.183594 2.648437,2.640625 0,1.457031 -1.1875,2.640625 -2.648437,2.640625 -1.460938,0 -2.648438,-1.183594 -2.648438,-2.640625 0,-1.113281 0.691406,-2.066406 1.667969,-2.453125 M 27.472656,10.207031 28.609375,7.425781 28.386719,6.8125 H 27.878906 V 6.148438 h 2.117188 v 0.4375 L 29.050781,6.8125 29.261719,7.425781 h 5.964843 L 35.007812,6.703125 C 34.953125,6.523438 34.910156,6.375 34.777344,6.257812 34.644531,6.148438 34.398438,6.148438 34.203125,6.148438 H 33.207031 V 5.488281 h 1.242188 c 0.382812,0 0.707031,0.125 0.902343,0.328125 0.171876,0.167969 0.265626,0.460938 0.332032,0.699219 l 1.019531,3.566406 c 0.179687,-0.03125 0.34375,-0.05078 0.527344,-0.05078 1.867187,0 3.382812,1.511719 3.382812,3.375 0,1.863281 -1.515625,3.378906 -3.382812,3.378906 -1.863281,0 -3.375,-1.515625 -3.375,-3.378906 0,-1.449219 0.941406,-2.664062 2.222656,-3.148438 L 35.84375,9.519531 31.695312,13.667969 C 31.554688,13.800781 31.398438,13.9375 31.210938,14 31.035156,14.07031 30.8125,14.07031 30.632812,14.07031 l -0.734374,0.0039 c -0.292969,1.5625 -1.667969,2.746093 -3.316407,2.746093 -1.863281,0 -3.375,-1.511718 -3.375,-3.375 0,-1.859374 1.511719,-3.371093 3.375,-3.371093 0.304688,0 0.605469,0.05469 0.890625,0.132812 m 0.367188,0.902344 c 0.832031,0.449219 1.390625,1.277344 1.390625,2.285156 h -2.289063 l 0.898438,-2.285156 m 29.277344,0.1875 c 0.21875,0.0625 0.328124,0.195313 0.328124,0.398437 0,0.113282 -0.03125,0.242188 -0.08203,0.382813 h -0.0039 v 0.0039 c -0.07813,0.207031 -0.265625,0.417969 -0.5625,0.628907 -0.296875,0.210937 -0.5625,0.320312 -0.792969,0.328124 -0.617187,-0.0078 -1.1875,-0.01562 -1.714844,-0.01562 -0.324218,0 -0.765624,0.0039 -1.324218,0.0078 -0.585938,0.0039 -1.0625,0.0078 -1.425782,0.0078 -0.171874,0 -0.347656,0 -0.523437,0 -0.925781,-0.0078 -1.5625,-0.08594 -1.914063,-0.234374 -0.15625,-0.06641 -0.269531,-0.152344 -0.335937,-0.253907 -0.06641,-0.101562 -0.101563,-0.234375 -0.101563,-0.402343 0,-0.238282 0.07031,-0.570313 0.210938,-1 0.05469,-0.179688 0.210938,-0.429688 0.457031,-0.75 0.300781,-0.386719 0.519531,-0.726563 0.652344,-1.019532 0.230469,-0.496094 0.367187,-1.085937 0.417969,-1.769531 V 7.60543 c 0.01563,-0.171875 0.07422,-0.40625 0.179687,-0.703125 0.05859,-0.175782 0.125,-0.316406 0.1875,-0.421875 0.05469,-0.082031 0.09766,-0.132813 0.128907,-0.140625 0.0078,0.00391 0.01172,0.00781 0.02344,0.011718 0.214844,0.136719 0.464844,0.203126 0.746094,0.203126 0.242187,0 0.613281,-0.070313 1.105469,-0.21875 0.453124,-0.136719 0.785156,-0.203126 0.992187,-0.203126 0.191406,0 0.363281,0.042969 0.511719,0.128907 -0.300782,0.78125 -0.617188,1.625 -0.957032,2.519531 -0.05078,0.132812 -0.07422,0.261719 -0.07422,0.390625 0,0.53125 0.414062,0.976563 1.246094,1.34375 0.433593,0.191406 1.132812,0.40625 2.101562,0.648437 0.246094,0.0625 0.421875,0.105469 0.523438,0.132813 m 0.140624,-0.492187 c 0.464844,0.128906 0.699219,0.425781 0.699219,0.890624 0,0.175782 -0.03906,0.363282 -0.117187,0.5625 -0.117188,0.308594 -0.367188,0.597657 -0.746094,0.867188 -0.382812,0.269531 -0.738281,0.410156 -1.070312,0.421875 H 56 c -0.613281,-0.0078 -1.183594,-0.01563 -1.710938,-0.01563 -0.320312,0 -0.761718,0.0039 -1.316406,0.0078 -0.589844,0.0039 -1.066406,0.0078 -1.433594,0.0078 -0.226562,0 -0.402343,0 -0.523437,0 -0.996094,-0.0078 -1.699219,-0.09766 -2.113281,-0.277344 -0.253906,-0.105469 -0.441406,-0.253906 -0.5625,-0.445312 -0.121094,-0.183594 -0.183594,-0.410157 -0.183594,-0.675781 0,-0.292969 0.07813,-0.679688 0.234375,-1.15625 0.07422,-0.238282 0.257813,-0.542969 0.539063,-0.910157 0.277343,-0.355469 0.476562,-0.660156 0.59375,-0.917969 0.203124,-0.4375 0.324218,-0.96875 0.371093,-1.589843 V 7.558594 c 0.01953,-0.214844 0.08984,-0.488282 0.203125,-0.824219 0.07422,-0.214844 0.15625,-0.390625 0.242188,-0.527344 0.128906,-0.199219 0.269531,-0.316406 0.433594,-0.359375 l 0.121093,-0.03125 0.125,0.027344 c 0.05859,0.015625 0.117188,0.039062 0.175781,0.074219 0.132813,0.085937 0.289063,0.125 0.472657,0.125 0.195312,0 0.515625,-0.066407 0.960937,-0.199219 0.503906,-0.148438 0.882813,-0.226562 1.136719,-0.226562 0.285156,0 0.539063,0.070312 0.769531,0.203124 l 0.371094,0.21875 -0.152344,0.402344 c -0.292968,0.773438 -0.609375,1.609375 -0.957031,2.519532 -0.02734,0.074218 -0.03906,0.144531 -0.03906,0.210937 0,0.304687 0.3125,0.597656 0.941407,0.875 0.40625,0.179687 1.078125,0.386719 2.019531,0.621094 0.269531,0.06641 0.449219,0.113281 0.539062,0.136719 m -9.609374,3.804687 c 0.507812,0 0.921874,0.410156 0.921874,0.921875 0,0.507812 -0.414062,0.917969 -0.921874,0.917969 -0.507813,0 -0.921876,-0.410157 -0.921876,-0.917969 0,-0.511719 0.414063,-0.921875 0.921876,-0.921875 m 0,-0.503906 c 0.785156,0 1.421874,0.636719 1.421874,1.425781 0,0.785156 -0.636718,1.421875 -1.421874,1.421875 -0.789063,0 -1.425782,-0.636719 -1.425782,-1.421875 0,-0.789062 0.636719,-1.425781 1.425782,-1.425781 m 3.386718,0.503906 c 0.511719,0 0.925782,0.410156 0.925782,0.921875 0,0.507812 -0.414063,0.917969 -0.925782,0.917969 -0.507812,0 -0.917968,-0.410157 -0.917968,-0.917969 0,-0.511719 0.410156,-0.921875 0.917968,-0.921875 m 0,-0.503906 c 0.789063,0 1.425782,0.636719 1.425782,1.425781 0,0.785156 -0.636719,1.421875 -1.425782,1.421875 -0.785156,0 -1.421875,-0.636719 -1.421875,-1.421875 0,-0.789062 0.636719,-1.425781 1.421875,-1.425781 m 3.398438,0.503906 c 0.507812,0 0.921875,0.410156 0.921875,0.921875 0,0.507812 -0.414063,0.917969 -0.921875,0.917969 -0.511719,0 -0.921875,-0.410157 -0.921875,-0.917969 0,-0.511719 0.410156,-0.921875 0.921875,-0.921875 m 0,-0.503906 c 0.785156,0 1.421875,0.636719 1.421875,1.425781 0,0.785156 -0.636719,1.421875 -1.421875,1.421875 -0.785156,0 -1.425782,-0.636719 -1.425782,-1.421875 0,-0.789062 0.640626,-1.425781 1.425782,-1.425781 m 3.394531,0.503906 c 0.511719,0 0.921875,0.410156 0.921875,0.921875 0,0.507812 -0.410156,0.917969 -0.921875,0.917969 -0.507813,0 -0.921875,-0.410157 -0.921875,-0.917969 0,-0.511719 0.414062,-0.921875 0.921875,-0.921875 m 0,-0.503906 c 0.785156,0 1.425781,0.636719 1.425781,1.425781 0,0.785156 -0.640625,1.421875 -1.425781,1.421875 -0.785156,0 -1.421875,-0.636719 -1.421875,-1.421875 0,-0.789062 0.636719,-1.425781 1.421875,-1.425781"
     id="path6714" />
  <path
     style="fill:#1966ba;fill-opacity:1;fill-rule:nonzero;stroke:none"
     d="m 3.699219,3.300781 h 15.78125 V 19.070312 H 3.699219 V 3.300781"
     id="path6716" />
  <path
     style="fill:#211e1e;fill-opacity:1;fill-rule:nonzero;stroke:none"
     d="M 19.046875,8.816406 18.621094,8.871094 V 8.789062 L 18.945312,8.742188 18.621094,8.566406 v -0.09375 l 0.425781,0.234375 V 8.816406 M 18.855469,8.445312 c -0.01563,-0.00781 -0.03516,-0.019531 -0.05469,-0.035156 -0.0078,-0.00781 -0.01563,-0.027344 -0.01563,-0.054687 0,-0.035157 0.01563,-0.054688 0.05469,-0.054688 0.0078,0 0.0078,0 0.01563,0 v 0.144531 m 0.05469,-0.214843 v 0.226562 c 0.03516,0 0.05469,-0.011719 0.06641,-0.03125 0.01563,-0.00391 0.01563,-0.035156 0.01563,-0.058593 0,-0.027344 -0.01172,-0.066407 -0.01563,-0.089844 l 0.05859,0.00781 c 0,0.015625 0.01172,0.027344 0.01172,0.046875 0.0078,0.015625 0.0078,0.035157 0.0078,0.050781 0,0.042969 -0.0078,0.082032 -0.03516,0.109376 -0.01953,0.027343 -0.05469,0.035156 -0.09766,0.042968 -0.03516,0 -0.07422,-0.00781 -0.101563,-0.023437 -0.02734,-0.019531 -0.05469,-0.039063 -0.07422,-0.066407 -0.01563,-0.023437 -0.02344,-0.054687 -0.02344,-0.089843 0,-0.042969 0.0078,-0.070313 0.03516,-0.097657 0.01953,-0.015624 0.04297,-0.027343 0.08984,-0.027343 0.01953,0 0.04297,0 0.0625,0 M 19.046875,8.203125 18.585938,8.105469 V 8.023438 l 0.460937,0.097656 V 8.203125 M 18.722656,7.835938 c 0,-0.046876 0.01953,-0.074219 0.03516,-0.097657 0.02734,-0.03125 0.0625,-0.046875 0.109376,-0.046875 0.03516,0 0.0625,0.011719 0.09766,0.027344 0.02734,0.019531 0.04687,0.035156 0.0625,0.0625 0.01953,0.027344 0.02734,0.0625 0.02734,0.101562 0,0.039063 -0.01953,0.078126 -0.04297,0.105469 -0.01953,0.019531 -0.05469,0.035157 -0.101563,0.035157 -0.03516,0 -0.07031,-0.00781 -0.09766,-0.027344 -0.02734,-0.019532 -0.04687,-0.035156 -0.06641,-0.0625 -0.01563,-0.027344 -0.02344,-0.0625 -0.02344,-0.097656 m 0.269532,0.035156 c 0,0.027344 -0.01172,0.046875 -0.02734,0.050781 -0.0078,0.011719 -0.02734,0.011719 -0.04297,0.011719 -0.03125,0 -0.04687,0 -0.06641,-0.011719 -0.01563,-0.00391 -0.03516,-0.015625 -0.04297,-0.035156 -0.01953,-0.00391 -0.02734,-0.023438 -0.02734,-0.042969 0,-0.027344 0.0078,-0.046875 0.02734,-0.054688 0.0078,-0.00781 0.02734,-0.00781 0.05469,-0.00781 0.01953,0 0.03516,0 0.05469,0.00781 0.01563,0.00781 0.03516,0.019532 0.04297,0.027344 0.01563,0.019532 0.02734,0.035156 0.02734,0.054688 M 19.046875,7.664062 18.585938,7.566406 V 7.484375 l 0.460937,0.097656 v 0.082031 m -0.08984,-0.242187 c -0.01172,-0.00781 -0.02734,-0.00781 -0.03516,-0.027344 -0.01172,-0.011719 -0.01172,-0.015625 -0.01953,-0.035156 0,-0.019531 0,-0.035156 0,-0.046875 V 7.285156 c 0.02734,0 0.04297,0.00781 0.0625,0.027344 0.01563,0.011719 0.02734,0.035156 0.02734,0.066406 0,0.00391 0,0.015625 -0.01172,0.023438 0,0.011718 -0.0039,0.011718 -0.02344,0.019531 M 19.046875,7.304688 19,7.292969 c 0.01953,0.019531 0.02734,0.03125 0.03516,0.046875 0.01172,0.019531 0.01953,0.039062 0.01953,0.054687 0,0.035157 -0.0078,0.054688 -0.02734,0.074219 -0.01563,0.015625 -0.03516,0.023438 -0.0625,0.023438 -0.02734,0 -0.04297,-0.00781 -0.0625,-0.019532 -0.01563,-0.00391 -0.02734,-0.023437 -0.03516,-0.042968 0,-0.027344 -0.01172,-0.046876 -0.01172,-0.0625 0,-0.027344 -0.0078,-0.042969 -0.0078,-0.0625 V 7.277344 c -0.0078,-0.00781 -0.0078,-0.00781 -0.02734,-0.00781 -0.0078,0 -0.01953,0.00781 -0.01953,0.00781 -0.0078,0.00781 -0.0078,0.015625 -0.01563,0.027344 0,0.00781 0,0.019531 0,0.027343 0,0.035157 0.0078,0.070313 0.02734,0.105469 L 18.7422,7.421875 c -0.01172,-0.027344 -0.01953,-0.0625 -0.01953,-0.097656 0,-0.03125 0.0078,-0.046875 0.0078,-0.066407 0.01172,-0.015624 0.01563,-0.035156 0.03516,-0.042968 0.01172,-0.011719 0.02734,-0.015625 0.05469,-0.015625 0.01172,0 0.02734,0 0.04688,0.00391 0.01953,0 0.03516,0 0.0625,0.011719 0.01562,0 0.04687,0.00781 0.0625,0.00781 0.01953,0.011719 0.03516,0.011719 0.05469,0.011719 V 7.30469 m 0,-0.144532 -0.269531,-0.0625 c -0.01953,0 -0.03516,0 -0.04687,-0.00781 V 7.019531 h 0.03516 c -0.01953,-0.011719 -0.02344,-0.03125 -0.02344,-0.039062 -0.01172,-0.015625 -0.01953,-0.035157 -0.01953,-0.054688 0,-0.027343 0.0078,-0.050781 0.02344,-0.070312 0.01953,-0.019531 0.04687,-0.027344 0.08594,-0.027344 0.0078,0 0.01563,0 0.02344,0 0.01953,0 0.03125,0.00781 0.03516,0.00781 L 19.046875,6.875 V 6.953125 L 18.902344,6.917969 c -0.01563,0 -0.02734,0 -0.03516,0 -0.01172,-0.00781 -0.01953,-0.00781 -0.03516,-0.00781 -0.01172,0 -0.01953,0.00781 -0.03125,0.015625 -0.0078,0.00781 -0.01563,0.019531 -0.01563,0.027344 0,0.015625 0.0078,0.035156 0.01563,0.046875 0.01172,0.019531 0.03125,0.023438 0.03906,0.023438 0.01563,0.011718 0.03516,0.019531 0.04687,0.019531 L 19.04686,7.078128 V 7.160156 M 18.785156,6.605469 c 0,-0.019531 0.0078,-0.039063 0.02734,-0.046875 0.01953,-0.00781 0.03516,-0.00781 0.05469,-0.00781 0.01953,0 0.03516,0 0.05469,0.00781 0.01563,0.00781 0.03516,0.015625 0.04297,0.027344 0.01563,0.019531 0.02734,0.035156 0.02734,0.054687 0,0.015625 -0.01172,0.023437 -0.01563,0.035156 0,0 -0.01953,0.00781 -0.03125,0.00781 -0.0078,0.011718 -0.01562,0.011718 -0.03516,0.011718 -0.0078,0 -0.02344,-0.011718 -0.04297,-0.011718 -0.02734,-0.00781 -0.04688,-0.019532 -0.05469,-0.035156 -0.01953,-0.00781 -0.02734,-0.027344 -0.02734,-0.042969 M 18.585938,6.484375 V 6.394531 l 0.390624,0.089844 c 0.01563,0 0.02344,0 0.04297,0.011719 0.0078,0 0.01563,0 0.02734,0 V 6.574219 L 19,6.566406 c 0.01953,0.00781 0.02734,0.027344 0.03516,0.042969 0.01172,0.011719 0.01953,0.039063 0.01953,0.054687 0,0.03125 -0.0078,0.046876 -0.01953,0.066407 -0.01563,0.015625 -0.02344,0.023437 -0.05469,0.035156 -0.01563,0.00781 -0.03516,0.00781 -0.05859,0.00781 -0.03125,0 -0.06641,-0.00781 -0.08984,-0.019532 C 18.80079,6.746093 18.77735,6.730466 18.75782,6.703122 18.7422,6.683591 18.72266,6.656247 18.72266,6.621091 c 0,-0.046875 0.01953,-0.070313 0.04297,-0.101563 L 18.585938,6.484375 m 0.04687,-0.558594 0.07422,0.019531 c -0.01172,0.011719 -0.01953,0.027344 -0.01953,0.035157 0,0.019531 -0.01172,0.039062 -0.01172,0.054687 0,0.011719 0,0.019532 0.01172,0.03125 0,0.00391 0.0078,0.015625 0.01953,0.023438 0,0.011718 0.0039,0.011718 0.02344,0.015625 0.01563,-0.00391 0.02734,-0.00391 0.03516,-0.023438 0.01172,-0.015625 0.02734,-0.027343 0.03516,-0.054687 C 18.8125,6.011719 18.820312,6 18.839844,5.980469 c 0.01563,-0.015625 0.04687,-0.015625 0.07031,-0.023438 0.03516,0 0.06641,0.00781 0.08203,0.023438 0.01953,0.019531 0.03516,0.039062 0.04297,0.066406 0.01172,0.023437 0.01953,0.054687 0.01953,0.089844 0,0.019531 -0.0078,0.035156 -0.0078,0.0625 -0.01172,0.015625 -0.01172,0.035156 -0.01953,0.050781 l -0.07031,-0.015625 c 0.0078,-0.019531 0.01953,-0.035156 0.01953,-0.054687 0.0039,-0.019532 0.0039,-0.035157 0.0039,-0.054688 0,-0.00781 0,-0.023438 -0.0039,-0.035156 0,-0.00781 -0.01172,-0.023438 -0.01953,-0.023438 -0.01172,-0.011718 -0.01953,-0.019531 -0.03516,-0.019531 -0.01953,0 -0.03516,0.00781 -0.04687,0.023437 -0.0078,0.011719 -0.01953,0.03125 -0.02734,0.046876 -0.01563,0.019531 -0.02734,0.039062 -0.04687,0.054687 -0.0078,0.00781 -0.03516,0.019531 -0.05859,0.019531 -0.03125,0 -0.05469,-0.011718 -0.07422,-0.019531 -0.01563,-0.015625 -0.03516,-0.035156 -0.04687,-0.066406 -0.0078,-0.015625 -0.0078,-0.039063 -0.0078,-0.070313 0,-0.035156 0.0078,-0.070312 0.01953,-0.109375 m 0.109376,-0.292969 0.05859,0.019532 c -0.0078,0.015625 -0.01563,0.035156 -0.01563,0.058594 0,0.019531 0.0078,0.035156 0.01563,0.054687 0.01953,0.019531 0.03125,0.027344 0.04687,0.035156 0.01953,0.011719 0.03906,0.011719 0.0625,0.011719 0.01172,0 0.02734,0 0.03516,0 0.01172,-0.011719 0.03125,-0.019531 0.03125,-0.027344 0.0039,-0.00781 0.01563,-0.019531 0.01563,-0.039062 0,-0.015625 0,-0.023438 -0.01172,-0.035156 0,-0.00781 0,-0.023438 -0.0039,-0.035157 L 19.0352,5.6875 c 0.01172,0.015625 0.01172,0.023438 0.01172,0.035156 0.0078,0.019532 0.0078,0.023438 0.0078,0.042969 0,0.035156 -0.01953,0.070313 -0.03516,0.101563 -0.02734,0.015624 -0.0625,0.035156 -0.09766,0.035156 -0.03516,0 -0.07422,-0.011719 -0.101563,-0.027344 -0.02734,-0.019531 -0.05469,-0.039062 -0.07422,-0.0625 -0.01563,-0.027344 -0.02344,-0.066406 -0.02344,-0.101562 0,-0.015626 0.0078,-0.023438 0.0078,-0.042969 0,-0.011719 0,-0.027344 0.01172,-0.035157 m 0.304687,0.00781 -0.460937,-0.097656 V 5.460938 l 0.179687,0.046874 V 5.496094 c -0.01953,-0.00781 -0.02344,-0.019532 -0.02344,-0.035156 -0.01172,-0.019532 -0.01953,-0.027344 -0.01953,-0.042969 0,-0.035157 0.0078,-0.066407 0.02344,-0.082031 0.01953,-0.019532 0.04687,-0.027344 0.08594,-0.027344 0.0078,0 0.01563,0 0.02344,0.00781 0.01953,0 0.03125,0 0.03516,0 l 0.15625,0.035156 V 5.433594 L 18.902344,5.40625 c -0.01563,-0.00781 -0.02734,-0.00781 -0.03516,-0.00781 -0.01172,0 -0.01953,0 -0.03516,0 -0.01172,0 -0.01953,0 -0.03125,0.00781 -0.0078,0.011719 -0.01563,0.015625 -0.01563,0.035156 0,0.019532 0.0078,0.027344 0.01563,0.046875 0.01172,0.00781 0.03125,0.019531 0.03906,0.027344 0.01563,0 0.03516,0.00781 0.04687,0.00781 l 0.160156,0.035156 v 0.082031 m 0,-0.441406 -0.316406,0.042969 V 5.164062 L 18.964844,5.136719 18.730469,5.019531 V 4.929688 L 18.964844,4.914062 18.730469,4.792969 V 4.714844 l 0.316406,0.167968 v 0.089844 l -0.246094,0.019532 0.246094,0.117187 V 5.199219 M 18.855469,4.632812 c -0.01563,0 -0.03516,-0.019531 -0.05469,-0.027343 -0.0078,-0.015625 -0.01563,-0.035157 -0.01563,-0.050781 0,-0.035157 0.01563,-0.054688 0.05469,-0.054688 0.0078,0 0.0078,0 0.01563,0 v 0.132812 m 0.05469,-0.207031 v 0.226563 c 0.03516,0 0.05469,-0.00781 0.06641,-0.027344 0.01563,-0.019531 0.01563,-0.035156 0.01563,-0.066406 0,-0.035156 -0.01172,-0.058594 -0.01563,-0.09375 l 0.05859,0.00391 c 0,0.019531 0.01172,0.039062 0.01172,0.054688 0.0078,0.019531 0.0078,0.035156 0.0078,0.046874 0,0.054688 -0.0078,0.089844 -0.03516,0.117188 -0.01953,0.027344 -0.05469,0.035156 -0.09766,0.035156 -0.03516,0 -0.07422,-0.00781 -0.101563,-0.019531 -0.02734,-0.015625 -0.05469,-0.035156 -0.07422,-0.058594 -0.01563,-0.03125 -0.02344,-0.066406 -0.02344,-0.101562 0,-0.035157 0.0078,-0.0625 0.03516,-0.089844 0.01953,-0.019531 0.04297,-0.035156 0.08984,-0.035156 0.01953,0 0.04297,0.00781 0.0625,0.00781 M 18.675781,4.320312 18.597656,4.300781 V 4.21875 l 0.07813,0.019531 v 0.082031 m 0.371094,0.070313 -0.316406,-0.0625 V 4.246094 l 0.316406,0.0625 v 0.082031 m -0.316406,-0.46875 0.0625,0.019531 0.1875,0.1875 V 3.976562 l 0.06641,0.00781 v 0.261719 l -0.06641,-0.00781 -0.1875,-0.199219 v 0.144532 l -0.0625,-0.00781 V 3.921875 M 4.796875,6.738281 4.707031,6.386719 C 4.691406,6.335938 4.671875,6.296875 4.644531,6.28125 4.617188,6.261719 4.59375,6.25 4.5625,6.261719 H 4.546875 V 6.738281 H 4.214844 V 5.507812 h 0.492187 c 0.125,0 0.226563,0.023438 0.289063,0.078126 0.070312,0.054687 0.109375,0.136718 0.109375,0.25 0,0.066406 -0.019531,0.109374 -0.039063,0.144531 C 5.042969,6.027344 5.011719,6.054688 4.976562,6.070312 4.941406,6.101562 4.898438,6.105469 4.863281,6.117188 V 6.125 C 4.886719,6.136719 4.90625,6.144531 4.925781,6.15625 4.953125,6.171875 4.960938,6.191406 4.976562,6.226562 4.996094,6.25 5.011719,6.296875 5.03125,6.351562 L 5.140625,6.738281 H 4.796875 M 4.539062,6.019531 V 5.742188 h 0.089844 c 0.042969,0 0.078125,0.015624 0.109375,0.042968 0.015625,0.027344 0.035157,0.0625 0.035157,0.097656 0,0.042969 -0.019532,0.074219 -0.046876,0.097657 C 4.699219,6.011719 4.671875,6.019531 4.636719,6.019531 H 4.539062 M 5.230469,6.28125 c 0,-0.082031 0.011719,-0.164062 0.046875,-0.234375 C 5.300781,5.972656 5.347656,5.910156 5.421875,5.867188 5.480469,5.820312 5.570312,5.800781 5.691406,5.792969 c 0.109375,0.00781 0.195313,0.027343 0.257813,0.074219 0.074219,0.042968 0.121093,0.105468 0.15625,0.179687 0.023437,0.070313 0.042969,0.152344 0.042969,0.234375 0,0.089844 -0.019532,0.160156 -0.042969,0.234375 C 6.070312,6.59375 6.023438,6.648438 5.949219,6.695312 5.886719,6.738281 5.800781,6.765625 5.691406,6.765625 5.570312,6.765625 5.480469,6.738281 5.421875,6.695312 5.347656,6.648438 5.300781,6.59375 5.277344,6.515625 5.242188,6.441406 5.230469,6.371094 5.230469,6.28125 m 0.332031,0 c 0,-0.046875 0,-0.089844 0.00781,-0.125 0,-0.050781 0.019532,-0.074219 0.039063,-0.101562 C 5.625,6.027344 5.65625,6.019531 5.691406,6.011719 5.726562,6.019531 5.75,6.027344 5.769531,6.054688 c 0.019531,0.027343 0.03125,0.050781 0.035157,0.101562 0,0.035156 0.011718,0.078125 0.011718,0.125 0,0.042969 -0.011718,0.089844 -0.011718,0.125 C 5.800781,6.449219 5.789062,6.484375 5.769531,6.503906 5.75,6.53125 5.726562,6.550781 5.691406,6.550781 5.65625,6.550781 5.625,6.53125 5.609375,6.503906 5.589844,6.484375 5.570312,6.449219 5.570312,6.40625 5.5625,6.371094 5.5625,6.324219 5.5625,6.28125 M 7.136719,5.820312 v 0.765626 c 0,0.035156 0,0.070312 0,0.097656 0,0.027344 0.011719,0.046875 0.011719,0.054687 H 6.851562 C 6.84375,6.71875 6.84375,6.695312 6.84375,6.664062 c 0,-0.023437 0,-0.054687 0,-0.078124 H 6.832031 c 0,0.019531 -0.00781,0.042968 -0.035156,0.070312 C 6.777344,6.683594 6.753906,6.703125 6.71875,6.730469 6.679688,6.746094 6.632812,6.765625 6.574219,6.765625 6.5,6.765625 6.429688,6.738281 6.375,6.695312 6.328125,6.640625 6.300781,6.566406 6.292969,6.46875 V 5.820312 h 0.324219 v 0.550782 c 0,0.089844 0.027343,0.132812 0.089843,0.132812 0.046875,0 0.070313,-0.019531 0.089844,-0.054687 C 6.8125,6.421875 6.8125,6.386719 6.8125,6.351562 V 5.820312 H 7.136719 M 7.246094,6.035156 V 5.820312 H 7.40625 V 5.621094 L 7.726562,5.523438 V 5.820312 H 7.90625 V 6.035156 H 7.726562 v 0.386719 c 0,0.046875 0.00391,0.074219 0.023438,0.09375 0.027344,0.015625 0.046875,0.023437 0.082031,0.023437 0.027344,0 0.054688,-0.00781 0.074219,-0.019531 l 0.00781,0.21875 c -0.027343,0.00781 -0.054687,0.00781 -0.09375,0.015625 -0.035156,0 -0.070312,0.011719 -0.125,0.011719 -0.078124,0 -0.152343,-0.027344 -0.203124,-0.070313 C 7.4375,6.648438 7.40625,6.574219 7.40625,6.496094 V 6.035156 H 7.246094 m 1.054687,0.164063 c 0,-0.0625 0.019531,-0.117188 0.042969,-0.152344 0.019531,-0.035156 0.054688,-0.054687 0.101562,-0.054687 0.054688,0 0.078126,0.019531 0.105469,0.042968 0.019531,0.03125 0.027344,0.070313 0.027344,0.136719 V 6.199219 H 8.300781 M 8.867188,6.371094 H 8.308594 c 0.011718,0.070312 0.035156,0.125 0.070312,0.148437 0.046875,0.03125 0.101563,0.039063 0.164063,0.039063 0.046875,0 0.089843,-0.00781 0.136719,-0.019532 C 8.722656,6.519531 8.769531,6.503906 8.8125,6.484375 V 6.710938 C 8.777344,6.71875 8.734375,6.738281 8.679688,6.746094 8.625,6.753906 8.558594,6.765625 8.5,6.765625 8.371094,6.765625 8.273438,6.738281 8.199219,6.695312 8.136719,6.640625 8.085938,6.585938 8.054688,6.503906 8.03125,6.429688 8.011719,6.359375 8.011719,6.28125 8.011719,6.191406 8.03125,6.105469 8.066406,6.035156 8.09375,5.964844 8.144531,5.910156 8.210938,5.867188 8.273438,5.820312 8.34375,5.800781 8.445312,5.792969 8.535156,5.800781 8.613281,5.820312 8.679688,5.867188 8.738281,5.910156 8.785156,5.964844 8.824219,6.046875 8.847656,6.117188 8.867188,6.191406 8.867188,6.28125 V 6.371094 M 4.761719,5.117188 4.511719,4.183594 V 5.117188 H 4.214844 V 3.886719 H 4.707031 L 4.871094,4.660156 H 4.882812 L 5.0625,3.886719 H 5.535156 V 5.117188 H 5.242188 V 4.183594 H 5.230469 L 4.96875,5.117188 H 4.761719 M 5.746094,4.058594 V 3.796875 H 6.070312 V 4.058594 H 5.746094 m 0,1.058594 V 4.199219 H 6.070312 V 5.117188 H 5.746094 M 6.195312,4.417969 V 4.199219 H 6.34375 V 4.003906 L 6.667969,3.90625 v 0.292969 h 0.183593 v 0.21875 H 6.667969 V 4.8125 c 0,0.035156 0.011719,0.066406 0.03125,0.082031 0.019531,0.019531 0.042969,0.027344 0.070312,0.027344 0.035157,0 0.0625,-0.00781 0.082031,-0.019531 l 0.00781,0.214844 C 6.832031,5.128906 6.804688,5.128906 6.769531,5.136719 c -0.035156,0 -0.082031,0.011719 -0.125,0.011719 -0.089843,0 -0.164062,-0.03125 -0.214843,-0.074219 C 6.382812,5.027344 6.34375,4.957031 6.34375,4.878906 V 4.417969 H 6.195312 m 0.71875,0 V 4.199219 H 7.066406 V 4.003906 L 7.390625,3.90625 v 0.292969 h 0.179687 v 0.21875 H 7.390625 V 4.8125 c 0,0.035156 0.011719,0.066406 0.027344,0.082031 0.019531,0.019531 0.042969,0.027344 0.074219,0.027344 0.035156,0 0.058593,-0.00781 0.078124,-0.019531 l 0.011719,0.214844 c -0.03125,0.011718 -0.054687,0.011718 -0.089843,0.019531 -0.039063,0 -0.085938,0.011719 -0.128907,0.011719 -0.089843,0 -0.160156,-0.03125 -0.207031,-0.074219 C 7.101562,5.027344 7.078125,4.957031 7.066406,4.878906 V 4.417969 H 6.914062 m 1.050782,0.160156 c 0,-0.058594 0.019531,-0.109375 0.046875,-0.152344 C 8.03125,4.390625 8.066406,4.375 8.109375,4.375 8.15625,4.375 8.191406,4.390625 8.210938,4.417969 8.234375,4.445312 8.246094,4.5 8.246094,4.554688 V 4.578125 H 7.964844 M 8.535156,4.75 H 7.976562 C 7.984375,4.824219 8,4.878906 8.050781,4.902344 8.09375,4.929688 8.144531,4.9375 8.210938,4.9375 8.253906,4.9375 8.300781,4.929688 8.34375,4.921875 8.390625,4.902344 8.433594,4.882812 8.480469,4.867188 V 5.09375 C 8.445312,5.101562 8.398438,5.117188 8.34375,5.128906 8.289062,5.136719 8.230469,5.148438 8.164062,5.148438 c -0.125,0 -0.222656,-0.03125 -0.296874,-0.074219 C 7.796875,5.019531 7.75,4.96875 7.726562,4.882812 7.6875,4.8125 7.675781,4.738281 7.675781,4.660156 7.675781,4.570312 7.695312,4.488281 7.730469,4.417969 7.761719,4.34375 7.8125,4.289062 7.875,4.246094 c 0.066406,-0.046875 0.136719,-0.0625 0.234375,-0.0625 0.089844,0 0.171875,0.015625 0.234375,0.0625 C 8.410156,4.289062 8.453125,4.355469 8.488281,4.425781 8.515625,4.5 8.535156,4.570312 8.535156,4.660156 V 4.75 M 8.695312,5.117188 V 3.796875 H 9.019531 V 5.117188 H 8.695312 m 0.523438,0 V 3.796875 H 9.542969 V 5.117188 H 9.21875 m 1.042969,-0.414063 c 0,0.035156 -0.0078,0.066406 -0.0078,0.101563 -0.0078,0.035156 -0.02734,0.074218 -0.04297,0.097656 -0.03125,0.027344 -0.06641,0.035156 -0.109376,0.035156 -0.03516,0 -0.06641,-0.00781 -0.08203,-0.023438 C 10,4.894531 9.992188,4.867188 9.980469,4.832031 9.992188,4.777344 10.011719,4.734375 10.054688,4.714844 10.089844,4.6875 10.15625,4.679688 10.226562,4.679688 h 0.03516 v 0.023437 m 0.277343,-0.179687 v 0.398437 c 0,0.035156 0,0.070313 0.01172,0.105469 0,0.035156 0,0.066406 0,0.089844 h -0.28125 c -0.0078,-0.035157 -0.0078,-0.078126 -0.0078,-0.125 -0.04687,0.054687 -0.08984,0.089843 -0.136719,0.117187 -0.03516,0.019531 -0.08984,0.039063 -0.144531,0.039063 C 9.90236,5.148438 9.832047,5.117188 9.785172,5.0625 9.730469,5.011719 9.703125,4.9375 9.703125,4.847656 c 0,-0.203125 0.152344,-0.3125 0.476563,-0.3125 h 0.08203 V 4.507812 c 0,-0.027343 -0.01563,-0.0625 -0.04687,-0.082031 -0.02344,-0.027343 -0.07031,-0.042969 -0.132813,-0.042969 -0.04687,0 -0.089843,0.00781 -0.144531,0.027344 C 9.890625,4.425781 9.855469,4.445312 9.820312,4.46875 L 9.8125,4.238281 c 0.035156,-0.00781 0.078125,-0.027343 0.144531,-0.039062 0.054688,-0.015625 0.125,-0.015625 0.199219,-0.015625 0.105469,0 0.1875,0.011718 0.238281,0.046875 0.06641,0.023437 0.101563,0.070312 0.121094,0.113281 0.01563,0.054688 0.02344,0.109375 0.02344,0.179688 m 0.179688,0.59375 V 4.390625 c -0.0039,-0.035156 -0.0039,-0.070313 -0.0039,-0.105469 0,-0.039062 0,-0.066406 -0.01172,-0.085937 h 0.304687 c 0,0.019531 0,0.046875 0,0.074219 0,0.027343 0,0.054687 0,0.082031 h 0.01172 c 0,-0.019531 0.01563,-0.046875 0.03516,-0.070313 0.01953,-0.03125 0.04297,-0.046875 0.07812,-0.074218 0.03516,-0.015626 0.08594,-0.027344 0.144532,-0.035157 0.08203,0 0.144531,0.023438 0.199218,0.078125 C 11.53126,4.300781 11.5586,4.375 11.5586,4.480469 V 5.117188 H 11.234375 V 4.570312 c 0,-0.089843 -0.02734,-0.136718 -0.08203,-0.136718 -0.04297,0 -0.07031,0.019531 -0.08984,0.054687 -0.01953,0.035157 -0.02734,0.082031 -0.02734,0.125 V 5.117188 H 10.71875 m 1.316406,-0.464844 c 0,-0.074219 0.0078,-0.132813 0.02734,-0.1875 0.01953,-0.046875 0.05469,-0.066406 0.09766,-0.066406 0.04687,0 0.07031,0.019531 0.08984,0.066406 0.02734,0.054687 0.03516,0.113281 0.03516,0.1875 0,0.082031 -0.0078,0.140625 -0.03516,0.1875 -0.01953,0.042968 -0.04297,0.074218 -0.08984,0.074218 -0.04297,0 -0.07813,-0.03125 -0.09766,-0.074218 -0.01953,-0.046875 -0.02734,-0.105469 -0.02734,-0.1875 m 0.566406,-0.855469 v 1.160156 c 0,0.054688 0.0078,0.105469 0.0078,0.160157 h -0.304687 c 0,-0.042969 -0.0078,-0.097657 -0.0078,-0.144532 -0.03516,0.066406 -0.07422,0.101563 -0.121094,0.128906 -0.03516,0.027344 -0.07813,0.035157 -0.125,0.035157 -0.07813,0 -0.148437,-0.027344 -0.195312,-0.0625 -0.05469,-0.046875 -0.08984,-0.105469 -0.117188,-0.179688 -0.01953,-0.070312 -0.03516,-0.160156 -0.03516,-0.25 0,-0.074219 0.01563,-0.144531 0.03516,-0.21875 0.02734,-0.070312 0.0625,-0.125 0.109375,-0.179687 0.04297,-0.046875 0.105469,-0.0625 0.1875,-0.0625 0.0625,0 0.105469,0.011718 0.140625,0.035156 0.04687,0.027344 0.08594,0.066406 0.109375,0.117188 h 0.01172 C 12.285156,4.289062 12.285156,4.238281 12.285156,4.175781 V 3.796875 h 0.316406"
     id="path6718" />
  <path
     style="fill:#bf4742;fill-opacity:1;fill-rule:nonzero;stroke:none"
     d="M 7.09375,8.332031 10.433594,7.25 9.703125,10.9375 6.375,12.070312 7.09375,8.332031"
     id="path6720" />
  <path
     style="fill:#ee2b2e;fill-opacity:1;fill-rule:nonzero;stroke:#bf4742;stroke-width:0.25;stroke-linecap:butt;stroke-linejoin:miter;stroke-miterlimit:4;stroke-opacity:1"
     d="M 7.09375,8.332031 10.433594,7.25 9.703125,10.9375 6.375,12.070313 7.09375,8.332031"
     id="path6722" />
  <path
     style="fill:#fafdfd;fill-opacity:1;fill-rule:nonzero;stroke:none"
     d="M 8.273438,8.382812 8.949219,8.152344 8.757812,9.121094 9.5625,8.839844 9.398438,9.667969 8.605469,9.9375 8.417969,10.902344 7.742188,11.136719 7.921875,10.171875 7.121094,10.453125 7.28125,9.632812 8.085938,9.355469 8.273438,8.382812"
     id="path6724" />
  <path
     style="fill:#ffffff;fill-opacity:1;fill-rule:nonzero;stroke:#fafdfd;stroke-width:0.25;stroke-linecap:butt;stroke-linejoin:miter;stroke-miterlimit:4;stroke-opacity:1"
     d="M 8.2734375,8.382813 8.9492188,8.152344 8.7578125,9.121094 9.5625,8.839844 9.3984375,9.667969 8.6054688,9.9375 8.4179688,10.902344 7.7421875,11.136719 7.921875,10.171875 7.1210938,10.453125 7.28125,9.632812 8.0859375,9.355469 l 0.1875,-0.972656"
     id="path6726" />
  <path
     style="fill:#ffffff;fill-opacity:1;fill-rule:nonzero;stroke:none"
     d="m 18.15625,7.242188 -0.386719,2.246093 h -5.085937 l -0.367188,1.996094 c 2.84375,0 4.589844,1.144531 4.589844,3.761719 0,1.773437 -0.964844,3.054687 -2.296875,3.824218 H 7.941406 L 8.398438,16.71875 c 0.929687,0.574219 1.882812,0.71875 2.675781,0.71875 1.390625,0 2.679687,-0.59375 2.679687,-2.011719 0,-1.355469 -1.167968,-1.800781 -2.394531,-1.800781 -0.789063,0 -1.558594,0.109375 -2.265625,0.261719 l 1.339844,-6.644531 h 7.722656"
     id="path6728" />
</svg>
