<?xml version="1.0" encoding="UTF-8" standalone="no"?>
<svg
   xmlns:dc="http://purl.org/dc/elements/1.1/"
   xmlns:cc="http://creativecommons.org/ns#"
   xmlns:rdf="http://www.w3.org/1999/02/22-rdf-syntax-ns#"
   xmlns:svg="http://www.w3.org/2000/svg"
   xmlns="http://www.w3.org/2000/svg"
   xmlns:sodipodi="http://sodipodi.sourceforge.net/DTD/sodipodi-0.dtd"
   xmlns:inkscape="http://www.inkscape.org/namespaces/inkscape"
   width="177"
   height="137"
   version="1.1"
   id="svg745"
   sodipodi:docname="455.svg"
   inkscape:version="1.0.2 (e86c870879, 2021-01-15, custom)">
  <metadata
     id="metadata751">
    <rdf:RDF>
      <cc:Work
         rdf:about="">
        <dc:format>image/svg+xml</dc:format>
        <dc:type
           rdf:resource="http://purl.org/dc/dcmitype/StillImage" />
        <dc:title></dc:title>
      </cc:Work>
    </rdf:RDF>
  </metadata>
  <defs
     id="defs749" />
  <sodipodi:namedview
     pagecolor="#ffffff"
     bordercolor="#666666"
     borderopacity="1"
     objecttolerance="10"
     gridtolerance="10"
     guidetolerance="10"
     inkscape:pageopacity="0"
     inkscape:pageshadow="2"
     inkscape:window-width="1920"
     inkscape:window-height="1017"
     id="namedview747"
     showgrid="false"
     inkscape:zoom="2.0034692"
     inkscape:cx="171.57999"
     inkscape:cy="73.617342"
     inkscape:window-x="3832"
     inkscape:window-y="-8"
     inkscape:window-maximized="1"
     inkscape:current-layer="svg745" />
  <!-- Created with Method Draw - http://github.com/duopixel/Method-Draw/ -->
  <g
     id="g724">
    <title
       id="title718">background</title>
    <rect
       fill="#ffffff"
       opacity="0"
       id="canvas_background"
       height="602"
       width="777"
       y="-1"
       x="-1" />
    <g
       display="none"
       overflow="visible"
       y="0"
       x="0"
       height="100%"
       width="100%"
       id="canvasGrid">
      <rect
         fill="url(#gridpattern)"
         stroke-width="0"
         y="0"
         x="0"
         height="100%"
         width="100%"
         id="rect721" />
    </g>
  </g>
  <g
     id="g743"
     transform="matrix(0.28861719,0,0,0.28861719,-23.425456,-16.901115)">
    <title
       id="title726">Layer 1</title>
    <metadata
       transform="matrix(1.8316376518701105,0,0,1.8316376518701105,0,0) "
       id="svg_29">image/svg+xml</metadata>
    <g
       stroke="null"
       id="svg_31">
      <path
         fill="#ffffff"
         fill-rule="nonzero"
         id="svg_28"
         d="M 87.89426,523.45677 H 687.10568 V 73.20987 H 87.89426 Z m 0,0" />
      <path
         stroke="#211e1e"
         fill="none"
         stroke-width="0.2835"
         stroke-miterlimit="4"
         id="svg_27"
         d="M 87.89426,523.45677 H 687.10568 V 73.20987 H 87.89426 v 450.2469" />
      <path
         fill="#1966ba"
         fill-rule="nonzero"
         id="svg_26"
         d="m 95.74309,516.13192 h 583.7446 V 80.87943 H 95.74309 Z m 0,0" />
      <path
         fill="#ffffff"
         fill-rule="nonzero"
         id="svg_25"
         d="m 611.33413,149.99174 c 0.88791,0.96516 1.02997,2.41292 0.35504,3.53317 -0.7103,1.13754 -2.07763,1.68906 -3.39172,1.39605 l -27.96802,-6.51482 V 429.80183 H 541.68896 V 279.71955 H 470.2325 l -21.87733,-37.52059 h 93.33379 V 148.3889 l -27.98593,6.53207 c -1.31405,0.29301 -2.68138,-0.25851 -3.37395,-1.3788 -0.69253,-1.1375 -0.55047,-2.58526 0.35517,-3.55042 l 48.01647,-51.75669 c 1.22527,-1.32709 3.39168,-1.32709 4.59922,0 l 48.0342,51.75669" />
      <path
         fill="#ffffff"
         fill-rule="nonzero"
         id="svg_24"
         d="m 195.39859,212.15838 c 1.0122,-0.87899 2.48604,-1.01687 3.65807,-0.36193 1.15421,0.6894 1.74023,2.01649 1.42061,3.29187 l -6.7124,27.1451 h 132.50699 l -22.09039,37.52059 h -110.4166 l 6.7124,27.12789 c 0.31962,1.27538 -0.26635,2.61972 -1.42061,3.27462 -1.17203,0.6894 -2.64587,0.53431 -3.65807,-0.32747 l -53.30821,-46.60342 c -1.3851,-1.18921 -1.3851,-3.27462 -0.0177,-4.46387 l 53.32594,-46.60342" />
      <path
         fill="#ee2b2e"
         fill-rule="nonzero"
         id="svg_23"
         d="m 487.68816,335.92285 1.11876,-0.0862 1.10098,-0.22405 1.06543,-0.32747 0.99442,-0.44814 0.95892,-0.58598 0.85236,-0.6894 0.78131,-0.77557 0.6748,-0.89624 0.58602,-1.05133 0.44396,-1.10304 0.24862,-1.15475 0.12429,-1.1375 -0.0533,-1.17196 -0.21307,-1.172 -0.35517,-1.12025 -0.51501,-1.08583 -99.46012,-170.57468 -0.6748,-0.99966 -0.78131,-0.91345 -0.90564,-0.79282 -0.99442,-0.6894 -1.06548,-0.55152 -1.13648,-0.43089 -1.18976,-0.29301 -1.22527,-0.12063 -1.34955,0.0172 -1.33182,0.2068 -1.26082,0.39639 -1.20749,0.53431 -1.10098,0.6894 -1.01215,0.84449 -0.88791,0.96516 -0.74581,1.10304 -100.41904,170.59198 -0.53274,1.08579 -0.3729,1.12029 -0.21311,1.15475 -0.0355,1.17196 0.10656,1.172 0.28412,1.15471 0.42618,1.12029 0.60375,1.06858 0.6748,0.87899 0.78131,0.79278 0.85236,0.6894 0.94115,0.56877 1.0122,0.4481 1.06548,0.34472 1.11871,0.2068 1.13648,0.069 h 201.08674" />
      <path
         fill="#ffffff"
         fill-rule="nonzero"
         id="svg_22"
         d="M 471.26242,318.48102 387.02051,175.827 303.4179,318.3776 l 167.84452,0.10342" />
      <path
         fill="#211e1e"
         fill-rule="nonzero"
         id="svg_21"
         d="m 351.93155,297.98862 v -6.25631 h -4.61695 v -8.73815 h 4.61695 v -15.02891 h -4.61695 v -8.73815 h 4.61695 v -4.99814 l 4.29737,-7.51443 4.688,7.51443 v 4.99814 h 6.42823 v -4.99814 l 4.3151,-7.51443 4.67022,7.51443 v 4.99814 h 6.42823 v -4.99814 l 4.36837,-7.51443 4.61699,7.51443 v 4.99814 h 6.41045 v -4.99814 l 4.40388,-7.51443 4.59922,7.51443 v 4.99814 h 6.42823 v -4.99814 l 4.40388,-7.51443 4.56371,7.51443 v 4.99814 h 4.63472 v 8.73815 h -4.63472 v 15.02891 h 4.63472 v 8.73815 h -4.63472 v 6.25631 h -8.96759 v -6.25631 h -6.42823 v 6.25631 h -9.00309 v -6.25631 h -6.41045 v 6.25631 h -8.98536 v -6.25631 h -6.42823 v 6.25631 h -8.98532 v -6.25631 h -6.42823 v 6.25631 h -8.98536" />
      <path
         fill="#ffffff"
         fill-rule="nonzero"
         id="svg_20"
         d="m 361.05898,283.02867 h 6.42823 v -15.01171 h -6.42823 z m 0,0" />
      <path
         fill="#ffffff"
         fill-rule="nonzero"
         id="svg_19"
         d="m 376.27718,283.02867 h 6.42823 v -15.01171 h -6.42823 z m 0,0" />
      <path
         fill="#ffffff"
         fill-rule="nonzero"
         id="svg_18"
         d="m 391.69078,283.02867 h 6.42823 v -15.01171 h -6.42823 z m 0,0" />
      <path
         fill="#ffffff"
         fill-rule="nonzero"
         id="svg_17"
         d="m 407.21088,283.02867 h 6.4105 v -15.01171 h -6.4105 z m 0,0" />
    </g>
    <text
       xml:space="default"
       dominant-baseline="middle"
       text-anchor="middle"
       font-family="sans-serif"
       font-size="40px"
       id="svg_32"
       y="483.3338"
       x="560"
       fill="#ffffff">param(text1)</text>
  </g>
</svg>
