<?xml version="1.0" encoding="UTF-8" standalone="no"?>
<svg
   xmlns:dc="http://purl.org/dc/elements/1.1/"
   xmlns:cc="http://creativecommons.org/ns#"
   xmlns:rdf="http://www.w3.org/1999/02/22-rdf-syntax-ns#"
   xmlns:svg="http://www.w3.org/2000/svg"
   xmlns="http://www.w3.org/2000/svg"
   xmlns:sodipodi="http://sodipodi.sourceforge.net/DTD/sodipodi-0.dtd"
   xmlns:inkscape="http://www.inkscape.org/namespaces/inkscape"
   width="78.75pt"
   height="45pt"
   version="1.1"
   id="svg5903"
   sodipodi:docname="458.svg"
   inkscape:version="1.0.2 (e86c870879, 2021-01-15, custom)"
   viewBox="0 0 78.75 45">
  <metadata
     id="metadata5909">
    <rdf:RDF>
      <cc:Work
         rdf:about="">
        <dc:format>image/svg+xml</dc:format>
        <dc:type
           rdf:resource="http://purl.org/dc/dcmitype/StillImage" />
        <dc:title></dc:title>
      </cc:Work>
    </rdf:RDF>
  </metadata>
  <defs
     id="defs5907" />
  <sodipodi:namedview
     pagecolor="#ffffff"
     bordercolor="#666666"
     borderopacity="1"
     objecttolerance="10"
     gridtolerance="10"
     guidetolerance="10"
     inkscape:pageopacity="0"
     inkscape:pageshadow="2"
     inkscape:window-width="1920"
     inkscape:window-height="1017"
     id="namedview5905"
     showgrid="false"
     inkscape:zoom="1.8101934"
     inkscape:cx="-8.2996049"
     inkscape:cy="-47.682807"
     inkscape:window-x="3832"
     inkscape:window-y="-3"
     inkscape:window-maximized="1"
     inkscape:current-layer="svg5903"
     inkscape:document-rotation="0"
     units="pt" />
  <!-- Created with Method Draw - http://github.com/duopixel/Method-Draw/ -->
  <g
     id="g5901"
     transform="matrix(0.75338895,0,0,0.75338895,-0.28982059,0.06018458)">
    <title
       id="title5894">Layer 1</title>
    <metadata
       id="svg_9">image/svg+xml</metadata>
    <g
       id="svg_11">
      <path
         fill="#ffffff"
         fill-rule="nonzero"
         stroke="#211e1e"
         stroke-width="0.2835"
         stroke-linejoin="round"
         stroke-miterlimit="4"
         id="svg_8"
         d="m 104.39262,10.72481 c 0,-5.38758 -4.40921,-9.75372 -9.84516,-9.75372 H 10.90823 c -5.43595,0 -9.84128,4.36613 -9.84128,9.75372 v 39.011 c 0,5.39526 4.40145,9.76523 9.84128,9.75372 h 83.64311 c 5.43595,0 9.84128,-4.36613 9.84128,-9.75372 v -39.011" />
      <path
         fill="#ee2b2e"
         fill-rule="nonzero"
         id="svg_7"
         d="M 52.69491,3.2636 10.1062,9.92992 c -2.39833,0.36864 -4.15348,2.41155 -4.15348,4.81542 v 30.67811 c 0,2.40003 1.75516,4.44293 4.15348,4.81542 l 42.58871,6.66632 42.58484,-6.66632 c 2.39445,-0.37249 4.15348,-2.41539 4.15348,-4.81542 V 14.74534 c 0,-2.40003 -1.75903,-4.44293 -4.14962,-4.81542 L 52.6949,3.2636" />
    </g>
    <text
       xml:space="default"
       dominant-baseline="middle"
       text-anchor="middle"
       font-family="sans-serif"
       font-size="30px"
       id="svg_12"
       y="40.34483"
       x="53.5"
       fill="#ffffff">param(text1)</text>
  </g>
</svg>
