<svg width="100.99999999999999" height="51" xmlns="http://www.w3.org/2000/svg">
 <!-- Created with Method Draw - http://github.com/duopixel/Method-Draw/ -->

 <g>
  <title>background</title>
  <rect fill="#fff" id="canvas_background" height="53" width="103" y="-1" x="-1"/>
  <g display="none" overflow="visible" y="0" x="0" height="100%" width="100%" id="canvasGrid">
   <rect fill="url(#gridpattern)" stroke-width="0" y="0" x="0" height="100%" width="100%"/>
  </g>
 </g>
 <g>
  <title>Layer 1</title>
  <metadata id="svg_15">image/svg+xml</metadata>

  <g id="svg_17">
   <path fill="#ffffff" fill-rule="nonzero" id="svg_14" d="m0.88537,50.30663l99.58505,0l0,-49.614l-99.58505,0l0,49.614zm0,0"/>
   <path fill="none" stroke="#211e1e" stroke-width="0.2835" stroke-miterlimit="4" id="svg_13" d="m0.88537,50.30663l99.58505,0l0,-49.614l-99.58505,0l0,49.614"/>
   <path fill="#211e1e" fill-rule="nonzero" id="svg_12" d="m13.68737,2.818c-5.89323,0 -10.66898,4.75863 -10.66898,10.63074l0,24.09789c0,5.8721 4.77575,10.63464 10.66898,10.63464l73.98106,0c5.89323,0 10.66898,-4.76254 10.66898,-10.63464l0,-24.09789c0,-5.87211 -4.77575,-10.63074 -10.66898,-10.63074l-73.98106,0"/>
   <path fill="#ffffff" fill-rule="nonzero" id="svg_11" d="m13.69129,5.65443c-4.32092,0 -7.82628,3.48888 -7.82628,7.79431l0,24.09789c0,4.30933 3.50536,7.79821 7.82628,7.79821l73.97713,0c4.317,0 7.82236,-3.48888 7.82236,-7.79821l0,-24.09789c0,-4.30543 -3.50536,-7.79431 -7.82236,-7.79431l-73.97713,0"/>
   <path fill="#211e1e" fill-rule="nonzero" id="svg_10" d="m33.41774,37.90216l-7.11265,0l0,-7.94278c0,-3.54749 -1.77621,-6.86446 -4.73654,-8.83746l-1.03122,-0.68762l-1.439,3.96943l-0.10194,0.17581l-0.14116,0.14455l-0.17252,0.09377l-0.19997,0.04298l-0.11371,0l-0.10979,-0.01562l-0.10194,-0.03517l-0.10194,-0.05079l-0.09018,-0.06642l-0.07843,-0.07814l-0.06666,-0.08986l-0.05097,-0.10158l-4.317,-10.34943l-0.04706,-0.17191l0,-0.1719l0.03529,-0.168l0.07842,-0.16019l0.11763,-0.12893l0.14116,-0.09768l0.16468,-0.0586l0.17252,-0.01953l11.43358,0.01953l0.16076,0.01953l0.14508,0.06251l0.12155,0.09768l0.09803,0.12893l0.03921,0.08595l0.02744,0.09768l0.00783,0.09377l-0.00391,0.09377l-0.02353,0.09377l-0.03921,0.08986l-0.05097,0.08204l-0.06666,0.07813l-3.11326,2.78564l3.15639,2.06285c2.40748,1.57449 3.85432,4.24682 3.85432,7.11059c0,-2.86767 1.45468,-5.54392 3.86217,-7.1145l3.14855,-2.05894l-3.11327,-2.78564l-0.06666,-0.07813l-0.05097,-0.08204l-0.03921,-0.08986l-0.02353,-0.09377l-0.00391,-0.09377l0.00783,-0.09377l0.02353,-0.09768l0.04313,-0.08595l0.0941,-0.12893l0.12547,-0.09768l0.149,-0.06251l0.15684,-0.01953l11.43358,-0.01953l0.17252,0.01953l0.16076,0.0586l0.14508,0.09768l0.11763,0.12893l0.0745,0.16019l0.03921,0.168l0,0.1719l-0.04705,0.17191l-4.317,10.34943l-0.05097,0.10158l-0.06666,0.08986l-0.08234,0.07814l-0.08626,0.06642l-0.10195,0.05079l-0.10586,0.03517l-0.10979,0.01562l-0.11371,0l-0.19605,-0.04298l-0.17644,-0.09377l-0.14116,-0.14455l-0.09803,-0.17581l-1.44292,-3.96943l-1.03905,0.69543c-2.94858,1.96519 -4.72479,5.28216 -4.72479,8.82965l0,7.94278"/>
  </g>
  <text xml:space="preserve" text-anchor="start" font-family="sans-serif" font-size="24" id="svg_18" y="33.89286" x="55.41071" stroke-width="0" stroke="#000" fill="#000000">param(text1)</text>
 </g>
</svg>