<svg width="129" height="62" xmlns="http://www.w3.org/2000/svg">
 <!-- Created with Method Draw - http://github.com/duopixel/Method-Draw/ -->

 <g>
  <title>background</title>
  <rect fill="#fff" id="canvas_background" height="64" width="131" y="-1" x="-1"/>
  <g display="none" overflow="visible" y="0" x="0" height="100%" width="100%" id="canvasGrid">
   <rect fill="url(#gridpattern)" stroke-width="0" y="0" x="0" height="100%" width="100%"/>
  </g>
 </g>
 <g>
  <title>Layer 1</title>
  <metadata id="svg_11">image/svg+xml</metadata>

  <g id="svg_13">
   <path fill="#1966ba" fill-rule="nonzero" id="svg_10" d="m0.55538,61.15695l127.89074,0l0,-60.31184l-127.89074,0l0,60.31184zm0,0"/>
   <path fill="#ffffff" fill-rule="nonzero" id="svg_9" d="m122.01144,59.81797c2.82765,0 5.11484,-2.24702 5.11484,-5.02118l0,-47.59537c0,-2.77416 -2.28719,-5.02118 -5.11484,-5.02118l-114.92739,0c-2.82765,0 -5.11093,2.24702 -5.11093,5.02118l0,47.59537c0,2.77416 2.28328,5.02118 5.11093,5.02118l114.92739,0"/>
   <path fill="#1966ba" fill-rule="nonzero" id="svg_8" d="m121.97619,58.4713c2.06004,0 3.7441,-1.65064 3.7441,-3.69374l0,-47.57613c0,-2.0431 -1.68406,-3.6745 -3.75976,-3.6745l-114.93131,0c-2.06003,0 -3.74409,1.6314 -3.74409,3.6745l0,47.57613c0,2.0431 1.68406,3.69374 3.75976,3.69374l114.9313,0"/>
  </g>
  <text xml:space="default" dominant-baseline="middle" text-anchor="middle" font-family="sans-serif" font-size="15" id="svg_14" y="23.85715" x="65.5" fill="#ffffff">param(text1)</text>
  <text xml:space="default" dominant-baseline="middle" text-anchor="middle" font-family="sans-serif" font-size="12" id="svg_15" y="48.34695" x="65.5" fill="#ffffff">param(text2)</text>
 </g>
</svg>