<?xml version="1.0" encoding="UTF-8" standalone="no"?>
<svg
   width="172"
   height="82"
   version="1.1"
   id="svg1729"
   xmlns="http://www.w3.org/2000/svg"
   xmlns:svg="http://www.w3.org/2000/svg"
   xmlns:rdf="http://www.w3.org/1999/02/22-rdf-syntax-ns#"
   xmlns:cc="http://creativecommons.org/ns#"
   xmlns:dc="http://purl.org/dc/elements/1.1/">
  <metadata
     id="metadata1735">
    <rdf:RDF>
      <cc:Work
         rdf:about="">
        <dc:format>image/svg+xml</dc:format>
        <dc:type
           rdf:resource="http://purl.org/dc/dcmitype/StillImage" />
      </cc:Work>
    </rdf:RDF>
  </metadata>
  <defs
     id="defs1733" />
  <rect
     style="fill:#ffffff;stroke-width:0.417333;paint-order:markers fill stroke;stroke:none"
     id="rect1510"
     width="172"
     height="82"
     x="0"
     y="0" />
  <!-- Created with Method Draw - http://github.com/duopixel/Method-Draw/ -->
  <path
     fill="#1966ba"
     fill-rule="nonzero"
     id="svg_10"
     d="M 0,82 H 172 V 0 H 0 Z m 0,0"
     style="stroke-width:1.35223" />
  <path
     fill="#ffffff"
     fill-rule="nonzero"
     id="svg_9"
     d="m 163.28018,80.182141 c 3.8029,0 6.87893,-3.05505 6.87893,-6.826799 V 8.6446583 c 0,-3.7717491 -3.07603,-6.8267983 -6.87893,-6.8267983 H 8.7145673 c -3.8029008,0 -6.8736795,3.0550492 -6.8736795,6.8267983 V 73.355342 c 0,3.771749 3.0707787,6.826799 6.8736795,6.826799 H 163.28018"
     style="stroke-width:1.35223" />
  <path
     fill="#1966ba"
     fill-rule="nonzero"
     id="svg_8"
     d="m 163.29597,78.351194 c 2.77054,0 5.03543,-2.244212 5.03543,-5.02201 V 8.644658 c 0,-2.7777996 -2.26489,-4.9958516 -5.05649,-4.9958516 H 8.7040216 c -2.7705301,0 -5.035419,2.218052 -5.035419,4.9958516 v 64.684526 c 0,2.777798 2.2648889,5.02201 5.0564935,5.02201 H 163.29597"
     style="stroke-width:1.35223" />
  <text
     xml:space="default"
     dominant-baseline="middle"
     text-anchor="middle"
     font-family="sans-serif"
     font-size="20.2143px"
     id="svg_14"
     y="29.0"
     x="86.0"
     fill="#ffffff"
     style="stroke-width:1.34762"
     transform="scale(0.99388373,1.0061539)">param(text1)</text>
  <text
     xml:space="default"
     dominant-baseline="middle"
     text-anchor="middle"
     font-family="sans-serif"
     font-size="16.1714px"
     id="svg_15"
     y="62.0"
     x="86.0"
     fill="#ffffff"
     style="stroke-width:1.34762"
     transform="scale(1.0,1.0)">param(text2)</text>
</svg>
