<?xml version="1.0" encoding="UTF-8" standalone="no"?>
<svg
   width="170"
   height="121"
   version="1.1"
   id="svg4845"
   xmlns="http://www.w3.org/2000/svg"
   xmlns:svg="http://www.w3.org/2000/svg"
   xmlns:rdf="http://www.w3.org/1999/02/22-rdf-syntax-ns#"
   xmlns:cc="http://creativecommons.org/ns#"
   xmlns:dc="http://purl.org/dc/elements/1.1/">
  <metadata
     id="metadata4851">
    <rdf:RDF>
      <cc:Work
         rdf:about="">
        <dc:format>image/svg+xml</dc:format>
        <dc:type
           rdf:resource="http://purl.org/dc/dcmitype/StillImage" />
      </cc:Work>
    </rdf:RDF>
  </metadata>
  <defs
     id="defs4849" />
  <!-- Created with Method Draw - http://github.com/duopixel/Method-Draw/ -->
  <path
     fill="#1966ba"
     fill-rule="nonzero"
     id="svg_28"
     d="M 0,38.419179 V 121 H 169.99999 V 38.419179 h -1.35484 v 76.123981 c 0,2.80647 -2.28801,5.09875 -5.11093,5.09875 H 6.4384553 c -2.7994917,0 -5.0875167,-2.29228 -5.0875167,-5.09875 V 38.419179 H 0"
     style="stroke-width:1.00495" />
  <path
     fill="#1966ba"
     fill-rule="nonzero"
     id="svg_27"
     d="m 166.9428,39.188498 v 75.354662 c 0,1.87228 -1.51883,3.39131 -3.40858,3.39131 H 6.4384553 c -1.8663311,0 -3.3851682,-1.51903 -3.3851682,-3.39131 V 39.188498 H 166.9428"
     style="stroke-width:1.00495" />
  <path
     fill="#ffffff"
     fill-rule="nonzero"
     id="svg_26"
     d="m 39.364727,66.044255 c 0.257692,-0.537744 -0.09371,-1.146148 -0.675479,-1.193242 L 22.35301,63.704865 c -0.745744,-0.07065 -1.167427,0.843913 -0.652045,1.381646 l 4.689258,4.843607 -15.867706,8.466513 3.080618,5.3107 15.239085,-9.522366 1.842907,6.480395 c 0.210841,0.726138 1.190861,0.820345 1.514931,0.141301 l 7.164679,-14.762406"
     style="stroke-width:1.00495" />
  <path
     fill="#ffffff"
     fill-rule="nonzero"
     id="svg_25"
     d="m 101.6486,109.42872 c 0.32406,0.11775 0.69889,0.23943 1.144,0.32186 0.42558,0.10597 0.90193,0.15308 1.39779,0.15308 1.26505,0 2.23726,-0.37289 2.92054,-1.11081 0.68328,-0.7497 1.02298,-1.76238 1.02298,-3.0459 0,-0.58092 -0.0858,-1.11081 -0.2538,-1.55828 -0.19132,-0.46316 -0.42949,-0.83997 -0.71842,-1.14614 -0.28893,-0.31008 -0.64814,-0.52989 -1.04249,-0.68689 -0.40997,-0.15309 -0.83556,-0.23944 -1.28067,-0.23944 -0.27331,0 -0.5271,0.0196 -0.74966,0.051 -0.23817,0.0196 -0.44511,0.0706 -0.59737,0.12167 v -3.014499 h 4.08015 v -1.452297 h -5.75517 v 6.091796 c 0.29283,-0.0824 0.60129,-0.16878 0.90583,-0.25514 0.30846,-0.0863 0.66767,-0.12168 1.05812,-0.12168 0.81993,0 1.43293,0.22373 1.86242,0.65157 0.40998,0.42784 0.613,1.01269 0.613,1.71136 0,0.73792 -0.20303,1.33846 -0.62862,1.7977 -0.42949,0.4828 -1.01125,0.7183 -1.74138,0.7183 -0.42949,0 -0.81994,-0.0667 -1.17914,-0.18449 -0.35921,-0.12167 -0.68328,-0.25905 -0.9566,-0.41213 l -0.10151,1.6093"
     style="stroke-width:1.00495" />
  <path
     fill="#ffffff"
     fill-rule="nonzero"
     id="svg_24"
     d="m 110.74208,108.1609 c 0.28892,0.5456 0.66375,0.97344 1.12838,1.28352 0.46074,0.30616 1.00735,0.45924 1.67111,0.45924 0.66766,0 1.22991,-0.15308 1.69063,-0.47494 0.46073,-0.31009 0.83555,-0.73793 1.12448,-1.28744 0.29283,-0.5456 0.49587,-1.19717 0.6169,-1.93117 0.11713,-0.73792 0.18742,-1.54257 0.18742,-2.41395 0,-0.87531 -0.0703,-1.67996 -0.18742,-2.43359 -0.12104,-0.73399 -0.32407,-1.385568 -0.6169,-1.931157 -0.28893,-0.549522 -0.66375,-0.977358 -1.12448,-1.30315 -0.46073,-0.306149 -1.02298,-0.459238 -1.69063,-0.459238 -0.66376,0 -1.22991,0.153089 -1.69062,0.459238 -0.46074,0.325782 -0.81995,0.753628 -1.10887,1.30315 -0.28893,0.545599 -0.49587,1.197167 -0.613,1.931157 -0.12104,0.75363 -0.18742,1.55828 -0.18742,2.43359 0,0.87138 0.0664,1.67603 0.18742,2.41395 0.11713,0.75363 0.32407,1.4052 0.613,1.95079"
     style="stroke-width:1.00495" />
  <path
     fill="#ffffff"
     fill-rule="nonzero"
     id="svg_23"
     d="m 119.99563,108.1609 c 0.28893,0.5456 0.66376,0.97344 1.12448,1.28352 0.46073,0.30616 1.00736,0.45924 1.67502,0.45924 0.66375,0 1.22599,-0.15308 1.68672,-0.47494 0.46072,-0.31009 0.83555,-0.73793 1.12838,-1.28744 0.28893,-0.5456 0.49588,-1.19717 0.613,-1.93117 0.12105,-0.73792 0.18742,-1.54257 0.18742,-2.41395 0,-0.87531 -0.0664,-1.67996 -0.18742,-2.43359 -0.11712,-0.73399 -0.32407,-1.385568 -0.613,-1.931157 -0.29283,-0.549522 -0.66767,-0.977358 -1.12838,-1.30315 -0.46073,-0.306149 -1.02297,-0.459238 -1.68672,-0.459238 -0.66767,0 -1.22991,0.153089 -1.69063,0.459238 -0.46074,0.325782 -0.81994,0.753628 -1.10887,1.30315 -0.29283,0.545599 -0.49587,1.197167 -0.6169,1.931157 -0.11713,0.75363 -0.18741,1.55828 -0.18741,2.43359 0,0.87138 0.0703,1.67603 0.18741,2.41395 0.12104,0.75363 0.32407,1.4052 0.6169,1.95079"
     style="stroke-width:1.00495" />
  <path
     fill="#ffffff"
     fill-rule="nonzero"
     id="svg_22"
     d="m 137.31969,109.7702 h 1.77654 v -5.37349 c 0,-0.65158 0.13667,-1.15007 0.39436,-1.50725 0.25379,-0.36112 0.64814,-0.53382 1.14009,-0.53382 0.82384,0 1.23382,0.54951 1.23382,1.62892 v 5.78564 h 1.77262 v -5.37349 c 0,-0.65158 0.13666,-1.15007 0.39435,-1.50725 0.25379,-0.36112 0.64814,-0.53382 1.1401,-0.53382 0.81994,0 1.22991,0.54951 1.22991,1.62892 v 5.78564 h 1.77654 v -5.75031 c 0,-1.02839 -0.20695,-1.81734 -0.6169,-2.34724 -0.42558,-0.5299 -1.05812,-0.80465 -1.90929,-0.80465 -0.56614,0 -1.02297,0.13738 -1.38217,0.41213 -0.35921,0.29047 -0.63252,0.61624 -0.85508,0.97344 -0.0858,-0.16878 -0.18742,-0.34149 -0.30455,-0.5142 -0.12104,-0.15308 -0.27721,-0.30615 -0.44511,-0.44354 -0.17179,-0.12168 -0.37482,-0.22374 -0.59738,-0.31009 -0.22255,-0.0824 -0.49586,-0.11774 -0.78479,-0.11774 -0.54663,0 -0.99174,0.13738 -1.35094,0.41213 -0.35531,0.29047 -0.64814,0.63195 -0.83556,1.05979 h -0.0351 c 0,-0.0511 0,-0.15308 0,-0.29046 -0.0156,-0.12169 -0.0156,-0.25905 -0.0156,-0.39643 -0.0156,-0.13347 -0.0156,-0.27083 -0.0156,-0.39252 -0.0195,-0.11776 -0.0195,-0.21981 -0.0195,-0.27477 h -1.757 c 0.0156,0.24337 0.0351,0.4985 0.0508,0.77326 0.0156,0.27084 0.0156,0.56523 0.0156,0.891 v 7.12019"
     style="stroke-width:1.00495" />
  <path
     fill="#007d45"
     fill-rule="nonzero"
     id="svg_21"
     d="M 0,38.419179 V 0 h 169.99999 v 38.419179 h -1.35484 V 6.4803849 c 0,-2.8300097 -2.28801,-5.1222856 -5.11093,-5.1222856 H 6.4618799 c -2.8229263,0 -5.1109312,2.2922759 -5.1109312,5.1222856 V 38.419179 H 0"
     style="stroke-width:1.00495" />
  <path
     fill="#007d45"
     fill-rule="nonzero"
     id="svg_20"
     d="M 166.9428,37.504616 V 6.4803849 c 0,-1.895843 -1.51883,-3.4148571 -3.40858,-3.4148571 H 6.4618799 c -1.8897658,0 -3.4085928,1.5190141 -3.4085928,3.4148571 V 37.504616 H 166.9428"
     style="stroke-width:1.00495" />
  <path
     fill="#1966ba"
     fill-rule="nonzero"
     id="svg_19"
     d="m 112.13987,107.2542 c -0.25379,-0.80467 -0.39044,-1.97042 -0.39044,-3.45805 0,-1.49156 0.13666,-2.6534 0.39044,-3.47374 0.25769,-0.82428 0.73794,-1.236414 1.4017,-1.236414 0.68329,0 1.15962,0.412144 1.41731,1.216784 0.25769,0.82428 0.39045,1.98612 0.39045,3.49337 0,1.48762 -0.13276,2.65338 -0.39045,3.45805 -0.27331,0.82034 -0.74966,1.23249 -1.41731,1.23249 -0.66376,0 -1.14401,-0.41215 -1.4017,-1.23249"
     style="stroke-width:1.00495" />
  <path
     fill="#1966ba"
     fill-rule="nonzero"
     id="svg_18"
     d="m 121.39342,107.2542 c -0.25769,-0.80467 -0.39043,-1.97042 -0.39043,-3.45805 0,-1.49156 0.13274,-2.6534 0.39043,-3.47374 0.2538,-0.82428 0.73405,-1.236414 1.40171,-1.236414 0.67936,0 1.15961,0.412144 1.41341,1.216784 0.25769,0.82428 0.39435,1.98612 0.39435,3.49337 0,1.48762 -0.13666,2.65338 -0.39435,3.45805 -0.27332,0.82034 -0.74966,1.23249 -1.41341,1.23249 -0.66767,0 -1.14791,-0.41215 -1.40171,-1.23249"
     style="stroke-width:1.00495" />
  <path
     fill="#ffffff"
     fill-rule="nonzero"
     id="svg_17"
     d="m 25.574185,9.4517156 9.569818,11.1827014 c 0.511487,0.608394 -0.02733,1.522956 -0.819933,1.334552 l -7.141245,-1.801636 0.819933,11.885293 h -6.114376 l 0.816038,-11.885293 -7.117831,1.801636 c -0.769178,0.188404 -1.354844,-0.726148 -0.816027,-1.334552 L 24.336474,9.4517156 c 0.304551,-0.3728862 0.909746,-0.3728862 1.237711,0"
     style="stroke-width:1.00495" />
  <text
     xml:space="preserve"
     text-anchor="start"
     font-family="sans-serif"
     font-size="15.0742px"
     id="svg_32"
     y="25.775692"
     x="46.2"
     fill="#ffffff"
     style="stroke-width:1.00495">param(text1)</text>
  <text
     xml:space="preserve"
     text-anchor="start"
     font-family="sans-serif"
     font-size="15.0742px"
     id="svg_33"
     y="59.943977"
     x="46.2"
     fill="#ffffff"
     style="stroke-width:1.00495">param(text2)</text>
  <text
     xml:space="preserve"
     text-anchor="start"
     font-family="sans-serif"
     font-size="15.0742px"
     id="svg_34"
     y="85.067719"
     x="46.2"
     fill="#ffffff"
     style="stroke-width:1.00495">param(text3)</text>
  <path
     style="fill:#ffffff;stroke:#ffffff;stroke-width:0.331668;stroke-linejoin:round;paint-order:fill markers stroke;stroke-opacity:1"
     d="M 5.145978,119.36404 C 3.739349,118.98445 2.6400275,118.02087 1.9206631,116.537 L 1.495243,115.65946 1.4935285,60.625239 C 1.4919386,9.5912199 1.5131983,5.5282571 1.786016,4.727581 2.181193,3.5678004 3.5678004,2.181193 4.727581,1.786016 5.5304393,1.5124547 11.170946,1.491814 85.124385,1.491814 h 79.533365 l 1.08499,0.5421762 c 0.73036,0.3649629 1.28578,0.8051371 1.69929,1.3466929 1.23164,1.6130393 1.13992,-3.22674187 1.09018,57.5252579 l -0.045,54.929029 -0.46698,0.87754 c -0.59495,1.11804 -1.40641,1.89325 -2.51665,2.40424 l -0.87754,0.40388 -79.329401,0.0325 c -63.423431,0.026 -79.4940736,-0.0119 -80.150681,-0.18911 z m 159.702712,-1.60686 c 0.86726,-0.36237 1.42288,-0.89707 1.81501,-1.7467 0.31182,-0.67562 0.32415,-2.13644 0.32786,-38.831044 l 0.004,-38.129011 H 84.943694 2.8919749 l 0.045826,38.216765 0.045827,38.21676 0.4280913,0.74748 c 0.4465924,0.77978 0.9640567,1.2166 1.8535066,1.56465 0.4000734,0.15655 19.5479212,0.20923 79.7299322,0.21938 71.111182,0.012 79.269832,-0.0144 79.853532,-0.25828 z m 2.14672,-96.14215 V 5.583696 L 166.5869,4.8101847 c -0.26831,-0.508018 -0.70032,-0.9542306 -1.25866,-1.3000341 L 164.4781,2.983628 85.663449,2.9385966 C 32.935992,2.9084703 6.5300481,2.9524903 5.88578,3.0715897 4.7520845,3.2811647 3.8716615,3.9234092 3.3469963,4.9235629 2.988283,5.6073671 2.9830199,5.8214078 2.936163,21.631303 L 2.888698,37.646365 h 82.053359 82.053353 z"
     id="path1" />
</svg>
