<?xml version="1.0" encoding="UTF-8" standalone="no"?>
<svg
   width="172"
   height="128"
   version="1.1"
   id="svg5524"
   xmlns="http://www.w3.org/2000/svg"
   xmlns:svg="http://www.w3.org/2000/svg"
   xmlns:rdf="http://www.w3.org/1999/02/22-rdf-syntax-ns#"
   xmlns:cc="http://creativecommons.org/ns#"
   xmlns:dc="http://purl.org/dc/elements/1.1/">
  <metadata
     id="metadata5530">
    <rdf:RDF>
      <cc:Work
         rdf:about="">
        <dc:format>image/svg+xml</dc:format>
        <dc:type
           rdf:resource="http://purl.org/dc/dcmitype/StillImage" />
      </cc:Work>
    </rdf:RDF>
  </metadata>
  <defs
     id="defs5528" />
  <rect
     style="fill:#ffffff;stroke-width:0.417333;paint-order:markers fill stroke"
     id="rect937"
     width="172"
     height="128"
     x="0"
     y="0" />
  <!-- Created with Method Draw - http://github.com/duopixel/Method-Draw/ -->
  <path
     fill="#1966ba"
     fill-rule="nonzero"
     id="svg_12"
     d="M 0,128 H 172 V 0 H 0 Z m 0,0"
     style="stroke-width:1.35574" />
  <path
     fill="#ffffff"
     fill-rule="nonzero"
     id="svg_11"
     d="m 169.70877,9.139856 c 0,-3.785099 -3.08131,-6.856204 -6.88421,-6.856204 H 9.175441 c -3.802901,0 -6.884215,3.071105 -6.884215,6.856204 V 118.85489 c 0,3.79033 3.081314,6.86146 6.878941,6.86146 H 162.82456 c 3.8029,0.005 6.88421,-3.07112 6.88421,-6.85622 V 9.139856"
     style="stroke-width:1.35574" />
  <path
     fill="#1966ba"
     fill-rule="nonzero"
     id="svg_10"
     d="M 167.41227,9.139856 V 118.86013 c 0,2.52515 -2.0542,4.57257 -4.58771,4.56731 H 9.170167 c -2.528249,0.005 -4.587714,-2.04216 -4.58244,-4.57255 V 9.139856 C 4.582427,6.614708 6.641918,4.567305 9.175441,4.572551 H 162.82456 c 2.53351,-0.0053 4.59299,2.042157 4.58771,4.567305"
     style="stroke-width:1.35574" />
  <path
     fill="#ffffff"
     fill-rule="nonzero"
     id="svg_9"
     d="m 105.16466,88.752681 c 0.34237,-0.698214 -0.13169,-1.517184 -0.91123,-1.574931 L 82.220785,85.61331 c -1.006025,-0.0735 -1.569625,1.13395 -0.86908,1.858436 l 6.310092,6.50446 -21.38478,11.355264 4.12948,7.12395 20.557826,-12.777946 2.496643,8.698876 c 0.279163,0.96595 1.606492,1.08146 2.04893,0.1785 l 9.654764,-19.802155"
     style="stroke-width:1.35574" />
  <text
     xml:space="default"
     dominant-baseline="middle"
     text-anchor="middle"
     font-family="sans-serif"
     font-size="20.3361px"
     id="svg_16"
     y="32.3"
     x="86.0"
     fill="#ffffff"
     transform="scale(0.99753946,1.0024666)"
     style="stroke-width:1.35574">param(text1)</text>
  <text
     xml:space="default"
     dominant-baseline="middle"
     text-anchor="middle"
     font-family="sans-serif"
     font-size="20.3361px"
     id="svg_17"
     y="63.7"
     x="86.0"
     fill="#ffffff"
     transform="scale(0.99753946,1.0024666)"
     style="stroke-width:1.35574">param(text2)</text>
</svg>
