<?xml version="1.0" encoding="UTF-8" standalone="no"?>
<svg
   width="228"
   height="104"
   version="1.1"
   id="svg8708"
   xmlns="http://www.w3.org/2000/svg"
   xmlns:svg="http://www.w3.org/2000/svg"
   xmlns:rdf="http://www.w3.org/1999/02/22-rdf-syntax-ns#"
   xmlns:cc="http://creativecommons.org/ns#"
   xmlns:dc="http://purl.org/dc/elements/1.1/">
  <metadata
     id="metadata8714">
    <rdf:RDF>
      <cc:Work
         rdf:about="">
        <dc:format>image/svg+xml</dc:format>
        <dc:type
           rdf:resource="http://purl.org/dc/dcmitype/StillImage" />
      </cc:Work>
    </rdf:RDF>
  </metadata>
  <defs
     id="defs8712" />
  <!-- Created with Method Draw - http://github.com/duopixel/Method-Draw/ -->
  <rect
     fill="#ffffff"
     id="canvas_background"
     height="104"
     width="228"
     y="0"
     x="0"
     style="stroke-width:0.971087" />
  <path
     fill="#007d45"
     fill-rule="nonzero"
     id="svg_20"
     d="M 102.29876,101.54365 H 225.58762 V 2.1512254 H 102.29876 Z m 0,0"
     style="stroke-width:0.971087" />
  <path
     fill="#007d45"
     fill-rule="nonzero"
     id="svg_19"
     d="M 2.4142096,101.54365 H 99.65618 V 2.1512254 H 2.4142096 Z m 0,0"
     style="stroke-width:0.971087" />
  <path
     fill="#ffffff"
     fill-rule="nonzero"
     id="svg_18"
     d="m 110.54561,3.8384359 c -3.59989,0 -6.51671,2.9030288 -6.51671,6.4809401 v 82.971765 c 0,3.577901 2.91682,6.480928 6.51671,6.480928 H 217.3308 c 3.59988,0 6.5167,-2.903027 6.5167,-6.480928 V 10.319376 c 0,-3.5779113 -2.91681,-6.4809401 -6.5167,-6.4809401 H 110.54561"
     style="stroke-width:0.971087" />
  <path
     fill="#ffffff"
     fill-rule="nonzero"
     id="svg_17"
     d="m 91.44922,99.772069 c 3.59491,0 6.511726,-2.903027 6.511726,-6.480928 V 10.319376 c 0,-3.5779113 -2.916816,-6.4809401 -6.511726,-6.4809401 h -80.7433 c -3.5949103,0 -6.5117192,2.9030288 -6.5117192,6.4809401 v 82.971765 c 0,3.577901 2.9167992,6.480928 6.5117192,6.480928 h 80.7433"
     style="stroke-width:0.971087" />
  <path
     fill="#007d45"
     fill-rule="nonzero"
     id="svg_16"
     d="m 110.53065,6.0119874 c -2.39826,0 -4.3428,1.9353525 -4.3428,4.3222686 v 82.971765 c 0,2.381969 1.94454,4.317313 4.3428,4.317313 h 106.79016 c 2.39828,0 4.33782,-1.935354 4.33782,-4.317313 V 10.334256 c 0,-2.3869161 -1.93954,-4.3222686 -4.33782,-4.3222686 H 110.53065"
     style="stroke-width:0.971087" />
  <path
     fill="#007d45"
     fill-rule="nonzero"
     id="svg_15"
     d="m 91.434259,97.623334 c 2.39827,0 4.342819,-1.935354 4.342819,-4.317313 V 10.334256 c 0,-2.3819688 -1.94454,-4.3222686 -4.342819,-4.3222686 h -80.7433 c -2.398259,0 -4.3427985,1.9402998 -4.3427985,4.3222686 v 82.971765 c 0,2.381969 1.9445395,4.317313 4.3427985,4.317313 h 80.7433"
     style="stroke-width:0.971087" />
  <path
     fill="#ffffff"
     fill-rule="nonzero"
     id="svg_14"
     d="M 33.237656,88.988718 15.861446,87.758039 C 15.572264,87.733219 15.312995,87.574435 15.17338,87.326303 15.02879,87.07818 15.01383,86.775482 15.14345,86.517426 l 7.613629,-15.5969 c 0.159552,-0.322565 0.498593,-0.516092 0.85759,-0.481365 0.358989,0.02978 0.663141,0.277894 0.757872,0.620317 l 1.969475,6.853104 16.214477,-10.068764 3.255859,5.61249 -16.862657,8.947257 4.976037,5.126189 c 0.249296,0.253089 0.314116,0.640154 0.159551,0.962709 -0.149587,0.327513 -0.488638,0.52106 -0.847626,0.496246"
     style="stroke-width:0.971087" />
  <path
     fill="#ffffff"
     fill-rule="nonzero"
     id="svg_13"
     d="m 194.74421,88.998642 17.37621,-1.230679 c 0.2892,-0.02482 0.54348,-0.183604 0.69305,-0.431726 0.13961,-0.248133 0.15457,-0.550841 0.0249,-0.808878 l -7.6136,-15.596909 c -0.15955,-0.322546 -0.49859,-0.516093 -0.85758,-0.481345 -0.359,0.02978 -0.65817,0.272928 -0.75788,0.620307 l -1.96948,6.853104 -16.21946,-10.068765 -3.25587,5.612501 16.87263,8.947256 -4.98101,5.121222 c -0.2493,0.258037 -0.31411,0.645112 -0.16454,0.967667 0.15457,0.327533 0.49362,0.526026 0.85261,0.496245"
     style="stroke-width:0.971087" />
  <text
     xml:space="default"
     dominant-baseline="middle"
     text-anchor="middle"
     font-family="sans-serif"
     font-size="14.5663px"
     id="svg_24"
     y="30.103706"
     x="51.520985"
     fill="#ffffff"
     style="stroke-width:0.971087">param(text1)</text>
  <text
     xml:space="default"
     dominant-baseline="middle"
     text-anchor="middle"
     font-family="sans-serif"
     font-size="14.5663px"
     id="svg_25"
     y="49.525452"
     x="51.520985"
     fill="#ffffff"
     style="stroke-width:0.971087">param(text2)</text>
  <text
     xml:space="default"
     dominant-baseline="middle"
     text-anchor="middle"
     font-family="sans-serif"
     font-size="14.5663px"
     id="svg_26"
     y="30.103706"
     x="160.2294"
     fill="#ffffff"
     style="stroke-width:0.971087">param(text3)</text>
  <text
     xml:space="default"
     dominant-baseline="middle"
     text-anchor="middle"
     font-family="sans-serif"
     font-size="14.5663px"
     id="svg_27"
     y="49.525452"
     x="160.2294"
     fill="#ffffff"
     style="stroke-width:0.971087">param(text4)</text>
</svg>
