<?xml version="1.0" encoding="UTF-8"?>
<svg xmlns="http://www.w3.org/2000/svg" xmlns:xlink="http://www.w3.org/1999/xlink" width="175pt" height="79pt" viewBox="0 0 175 79" version="1.1">
<g id="surface1">
<path style=" stroke:none;fill-rule:nonzero;fill:rgb(0%,49.674988%,27.331543%);fill-opacity:1;" d="M 78.351562 78.292969 L 174.941406 78.292969 L 174.941406 0.0546875 L 78.351562 0.0546875 Z M 78.351562 78.292969 "/>
<path style=" stroke:none;fill-rule:nonzero;fill:rgb(0%,49.674988%,27.331543%);fill-opacity:1;" d="M 0.0976562 78.292969 L 76.28125 78.292969 L 76.28125 0.0546875 L 0.0976562 0.0546875 Z M 0.0976562 78.292969 "/>
<path style=" stroke:none;fill-rule:nonzero;fill:rgb(100%,100%,100%);fill-opacity:1;" d="M 84.8125 1.382812 C 81.992188 1.382812 79.707031 3.667969 79.707031 6.484375 L 79.707031 71.796875 C 79.707031 74.613281 81.992188 76.898438 84.8125 76.898438 L 168.472656 76.898438 C 171.292969 76.898438 173.578125 74.613281 173.578125 71.796875 L 173.578125 6.484375 C 173.578125 3.667969 171.292969 1.382812 168.472656 1.382812 L 84.8125 1.382812 "/>
<path style=" stroke:none;fill-rule:nonzero;fill:rgb(100%,100%,100%);fill-opacity:1;" d="M 69.851562 76.898438 C 72.667969 76.898438 74.953125 74.613281 74.953125 71.796875 L 74.953125 6.484375 C 74.953125 3.667969 72.667969 1.382812 69.851562 1.382812 L 6.59375 1.382812 C 3.777344 1.382812 1.492188 3.667969 1.492188 6.484375 L 1.492188 71.796875 C 1.492188 74.613281 3.777344 76.898438 6.59375 76.898438 L 69.851562 76.898438 "/>
<path style=" stroke:none;fill-rule:nonzero;fill:rgb(0%,49.674988%,27.331543%);fill-opacity:1;" d="M 84.800781 3.09375 C 82.921875 3.09375 81.398438 4.617188 81.398438 6.496094 L 81.398438 71.808594 C 81.398438 73.683594 82.921875 75.207031 84.800781 75.207031 L 168.464844 75.207031 C 170.34375 75.207031 171.863281 73.683594 171.863281 71.808594 L 171.863281 6.496094 C 171.863281 4.617188 170.34375 3.09375 168.464844 3.09375 L 84.800781 3.09375 "/>
<path style=" stroke:none;fill-rule:nonzero;fill:rgb(0%,49.674988%,27.331543%);fill-opacity:1;" d="M 69.839844 75.207031 C 71.71875 75.207031 73.242188 73.683594 73.242188 71.808594 L 73.242188 6.496094 C 73.242188 4.621094 71.71875 3.09375 69.839844 3.09375 L 6.582031 3.09375 C 4.703125 3.09375 3.179688 4.621094 3.179688 6.496094 L 3.179688 71.808594 C 3.179688 73.683594 4.703125 75.207031 6.582031 75.207031 L 69.839844 75.207031 "/>
<path style=" stroke:none;fill-rule:nonzero;fill:rgb(100%,100%,100%);fill-opacity:1;" d="M 24.246094 68.410156 L 10.632812 67.441406 C 10.40625 67.421875 10.203125 67.296875 10.09375 67.101562 C 9.980469 66.90625 9.96875 66.667969 10.070312 66.464844 L 16.035156 54.1875 C 16.160156 53.933594 16.425781 53.78125 16.707031 53.808594 C 16.988281 53.832031 17.226562 54.027344 17.300781 54.296875 L 18.84375 59.691406 L 31.546875 51.765625 L 34.097656 56.183594 L 20.886719 63.226562 L 24.785156 67.261719 C 24.980469 67.460938 25.03125 67.765625 24.910156 68.019531 C 24.792969 68.277344 24.527344 68.429688 24.246094 68.410156 "/>
<path style=" stroke:none;fill-rule:nonzero;fill:rgb(100%,100%,100%);fill-opacity:1;" d="M 150.777344 68.417969 L 164.390625 67.449219 C 164.617188 67.429688 164.816406 67.304688 164.933594 67.109375 C 165.042969 66.914062 165.054688 66.675781 164.953125 66.472656 L 158.988281 54.195312 C 158.863281 53.941406 158.597656 53.789062 158.316406 53.816406 C 158.035156 53.839844 157.800781 54.03125 157.722656 54.304688 L 156.179688 59.699219 L 143.472656 51.773438 L 140.921875 56.191406 L 154.140625 63.234375 L 150.238281 67.265625 C 150.042969 67.46875 149.992188 67.773438 150.109375 68.027344 C 150.230469 68.285156 150.496094 68.441406 150.777344 68.417969 "/>
<path style=" stroke:none;fill-rule:nonzero;fill:rgb(100%,100%,100%);fill-opacity:1;" d="M 21.503906 24.863281 L 23.347656 24.863281 L 23.347656 14.476562 L 26.023438 14.476562 L 26.023438 12.960938 L 18.8125 12.960938 L 18.8125 14.476562 L 21.503906 14.476562 L 21.503906 24.863281 "/>
<path style=" stroke:none;fill-rule:nonzero;fill:rgb(100%,100%,100%);fill-opacity:1;" d="M 27.585938 24.863281 L 29.359375 24.863281 L 29.359375 19.679688 C 29.359375 18.996094 29.496094 18.453125 29.785156 18.058594 C 30.058594 17.667969 30.46875 17.480469 31.03125 17.480469 C 31.492188 17.480469 31.816406 17.632812 32.035156 17.941406 C 32.242188 18.246094 32.34375 18.742188 32.34375 19.421875 L 32.34375 24.863281 L 34.117188 24.863281 L 34.117188 19.015625 C 34.117188 18.09375 33.914062 17.359375 33.503906 16.816406 C 33.09375 16.269531 32.445312 15.996094 31.558594 15.996094 C 30.980469 15.996094 30.519531 16.132812 30.195312 16.386719 C 29.855469 16.660156 29.582031 16.949219 29.394531 17.273438 L 29.359375 17.273438 L 29.359375 12.074219 L 27.585938 12.074219 L 27.585938 24.863281 "/>
<path style=" stroke:none;fill-rule:nonzero;fill:rgb(100%,100%,100%);fill-opacity:1;" d="M 41.96875 24.863281 L 43.640625 24.863281 C 43.621094 24.609375 43.605469 24.335938 43.589844 24.046875 C 43.570312 23.773438 43.570312 23.484375 43.570312 23.195312 L 43.570312 16.113281 L 41.796875 16.113281 L 41.796875 21.25 C 41.796875 21.929688 41.660156 22.476562 41.40625 22.886719 C 41.148438 23.296875 40.722656 23.5 40.160156 23.5 C 39.699219 23.5 39.375 23.347656 39.152344 23.039062 C 38.933594 22.734375 38.8125 22.238281 38.8125 21.554688 L 38.8125 16.113281 L 37.039062 16.113281 L 37.039062 21.964844 C 37.039062 22.886719 37.242188 23.621094 37.652344 24.164062 C 38.0625 24.710938 38.710938 24.984375 39.597656 24.984375 C 40.195312 24.984375 40.671875 24.847656 41.03125 24.558594 C 41.371094 24.285156 41.644531 23.945312 41.863281 23.535156 L 41.898438 23.535156 L 41.96875 24.863281 "/>
<path style=" stroke:none;fill-rule:nonzero;fill:rgb(100%,100%,100%);fill-opacity:1;" d="M 46.640625 24.863281 L 48.414062 24.863281 L 48.414062 19.679688 C 48.414062 18.996094 48.550781 18.453125 48.84375 18.058594 C 49.113281 17.667969 49.523438 17.480469 50.085938 17.480469 C 50.546875 17.480469 50.871094 17.632812 51.09375 17.941406 C 51.296875 18.246094 51.398438 18.742188 51.398438 19.421875 L 51.398438 24.863281 L 53.171875 24.863281 L 53.171875 19.015625 C 53.171875 18.09375 52.96875 17.359375 52.558594 16.816406 C 52.152344 16.269531 51.503906 15.996094 50.613281 15.996094 C 50.105469 15.996094 49.660156 16.113281 49.269531 16.371094 C 48.875 16.625 48.570312 16.984375 48.347656 17.445312 L 48.3125 17.445312 C 48.3125 17.394531 48.3125 17.292969 48.3125 17.171875 C 48.296875 17.050781 48.296875 16.917969 48.28125 16.78125 C 48.261719 16.644531 48.261719 16.507812 48.261719 16.386719 C 48.246094 16.269531 48.246094 16.164062 48.246094 16.113281 L 46.574219 16.113281 C 46.589844 16.371094 46.609375 16.644531 46.625 16.917969 C 46.640625 17.207031 46.640625 17.496094 46.640625 17.785156 L 46.640625 24.863281 "/>
<path style=" stroke:none;fill-rule:nonzero;fill:rgb(100%,100%,100%);fill-opacity:1;" d="M 18.285156 43.613281 C 18.113281 43.699219 17.910156 43.765625 17.652344 43.816406 C 17.398438 43.867188 17.160156 43.886719 16.902344 43.886719 C 16.304688 43.886719 15.777344 43.765625 15.316406 43.542969 C 14.855469 43.324219 14.480469 43 14.191406 42.589844 C 13.886719 42.179688 13.664062 41.683594 13.507812 41.089844 C 13.355469 40.507812 13.269531 39.859375 13.269531 39.144531 C 13.269531 38.476562 13.355469 37.863281 13.542969 37.320312 C 13.730469 36.773438 13.984375 36.3125 14.308594 35.917969 C 14.632812 35.542969 15.011719 35.253906 15.453125 35.035156 C 15.898438 34.828125 16.390625 34.726562 16.921875 34.726562 C 17.414062 34.726562 17.910156 34.792969 18.386719 34.914062 C 18.847656 35.050781 19.289062 35.238281 19.683594 35.460938 L 19.734375 33.738281 C 19.410156 33.585938 19 33.449219 18.523438 33.34375 C 18.027344 33.261719 17.480469 33.207031 16.886719 33.207031 C 16.015625 33.207031 15.25 33.363281 14.566406 33.652344 C 13.867188 33.941406 13.289062 34.367188 12.808594 34.898438 C 12.332031 35.425781 11.972656 36.074219 11.71875 36.824219 C 11.460938 37.574219 11.328125 38.394531 11.328125 39.296875 C 11.328125 40.132812 11.445312 40.933594 11.667969 41.667969 C 11.890625 42.417969 12.246094 43.066406 12.707031 43.613281 C 13.167969 44.175781 13.765625 44.601562 14.464844 44.925781 C 15.164062 45.25 16 45.402344 16.9375 45.402344 C 17.601562 45.402344 18.199219 45.335938 18.726562 45.199219 C 19.257812 45.078125 19.699219 44.941406 20.023438 44.789062 L 20.023438 38.648438 L 16.375 38.648438 L 16.375 40.132812 L 18.285156 40.132812 L 18.285156 43.613281 "/>
<path style=" stroke:none;fill-rule:nonzero;fill:rgb(100%,100%,100%);fill-opacity:1;" d="M 27.515625 45.265625 L 29.183594 45.265625 C 29.167969 45.011719 29.152344 44.738281 29.132812 44.449219 C 29.117188 44.175781 29.117188 43.886719 29.117188 43.597656 L 29.117188 36.515625 L 27.34375 36.515625 L 27.34375 41.652344 C 27.34375 42.332031 27.207031 42.878906 26.953125 43.289062 C 26.695312 43.699219 26.269531 43.902344 25.707031 43.902344 C 25.246094 43.902344 24.921875 43.75 24.699219 43.441406 C 24.480469 43.136719 24.359375 42.640625 24.359375 41.957031 L 24.359375 36.515625 L 22.585938 36.515625 L 22.585938 42.367188 C 22.585938 43.289062 22.789062 44.023438 23.199219 44.566406 C 23.609375 45.113281 24.257812 45.386719 25.144531 45.386719 C 25.742188 45.386719 26.21875 45.25 26.578125 44.960938 C 26.917969 44.6875 27.191406 44.34375 27.410156 43.9375 L 27.445312 43.9375 L 27.515625 45.265625 "/>
<path style=" stroke:none;fill-rule:nonzero;fill:rgb(100%,100%,100%);fill-opacity:1;" d="M 32.1875 45.265625 L 33.960938 45.265625 L 33.960938 40.082031 C 33.960938 39.402344 34.097656 38.855469 34.386719 38.460938 C 34.660156 38.070312 35.070312 37.882812 35.632812 37.882812 C 36.09375 37.882812 36.417969 38.035156 36.640625 38.34375 C 36.84375 38.648438 36.945312 39.144531 36.945312 39.828125 L 36.945312 45.265625 L 38.71875 45.265625 L 38.71875 39.417969 C 38.71875 38.496094 38.515625 37.761719 38.105469 37.21875 C 37.695312 36.671875 37.050781 36.398438 36.160156 36.398438 C 35.652344 36.398438 35.207031 36.515625 34.816406 36.773438 C 34.421875 37.027344 34.113281 37.386719 33.894531 37.847656 L 33.859375 37.847656 C 33.859375 37.796875 33.859375 37.695312 33.859375 37.574219 C 33.84375 37.457031 33.84375 37.320312 33.828125 37.183594 C 33.808594 37.046875 33.808594 36.910156 33.808594 36.789062 C 33.792969 36.671875 33.792969 36.566406 33.792969 36.515625 L 32.121094 36.515625 C 32.136719 36.773438 32.15625 37.046875 32.171875 37.320312 C 32.1875 37.609375 32.1875 37.898438 32.1875 38.1875 L 32.1875 45.265625 "/>
<path style=" stroke:none;fill-rule:nonzero;fill:rgb(100%,100%,100%);fill-opacity:1;" d="M 45.726562 45.132812 L 45.726562 43.800781 C 45.609375 43.851562 45.488281 43.902344 45.351562 43.9375 C 45.21875 43.988281 45.0625 44.003906 44.875 44.003906 C 44.550781 44.003906 44.332031 43.902344 44.175781 43.714844 C 44.023438 43.527344 43.957031 43.203125 43.957031 42.726562 L 43.957031 37.882812 L 45.726562 37.882812 L 45.726562 36.515625 L 43.957031 36.515625 L 43.957031 34.199219 L 42.179688 34.726562 L 42.179688 36.515625 L 40.785156 36.515625 L 40.785156 37.882812 L 42.179688 37.882812 L 42.179688 43.085938 C 42.179688 43.917969 42.367188 44.515625 42.761719 44.859375 C 43.15625 45.214844 43.699219 45.386719 44.414062 45.386719 C 44.671875 45.386719 44.925781 45.367188 45.148438 45.320312 C 45.371094 45.25 45.574219 45.199219 45.726562 45.132812 "/>
<path style=" stroke:none;fill-rule:nonzero;fill:rgb(100%,100%,100%);fill-opacity:1;" d="M 49.410156 41.394531 L 54.40625 41.394531 L 54.40625 40.796875 C 54.40625 40.03125 54.324219 39.382812 54.167969 38.820312 C 54.015625 38.257812 53.792969 37.796875 53.503906 37.4375 C 53.214844 37.082031 52.855469 36.824219 52.464844 36.652344 C 52.054688 36.484375 51.609375 36.398438 51.132812 36.398438 C 50.585938 36.398438 50.09375 36.5 49.667969 36.722656 C 49.222656 36.945312 48.847656 37.269531 48.558594 37.660156 C 48.269531 38.070312 48.03125 38.546875 47.875 39.109375 C 47.722656 39.671875 47.636719 40.285156 47.636719 40.953125 C 47.636719 41.582031 47.722656 42.179688 47.875 42.726562 C 48.03125 43.273438 48.25 43.734375 48.574219 44.125 C 48.882812 44.515625 49.273438 44.824219 49.75 45.046875 C 50.230469 45.28125 50.792969 45.386719 51.421875 45.386719 C 51.96875 45.386719 52.464844 45.335938 52.890625 45.214844 C 53.316406 45.097656 53.65625 44.976562 53.949219 44.859375 L 53.863281 43.375 C 53.640625 43.527344 53.351562 43.679688 53.007812 43.835938 C 52.652344 43.988281 52.222656 44.074219 51.714844 44.074219 C 50.894531 44.074219 50.316406 43.851562 49.957031 43.390625 C 49.597656 42.949219 49.410156 42.28125 49.410156 41.394531 "/>
<path style=" stroke:none;fill-rule:nonzero;fill:rgb(100%,100%,100%);fill-opacity:1;" d="M 57.003906 45.265625 L 58.777344 45.265625 L 58.777344 40.082031 C 58.777344 39.402344 58.914062 38.855469 59.203125 38.460938 C 59.476562 38.070312 59.886719 37.882812 60.449219 37.882812 C 60.910156 37.882812 61.234375 38.035156 61.457031 38.34375 C 61.660156 38.648438 61.761719 39.144531 61.761719 39.828125 L 61.761719 45.265625 L 63.535156 45.265625 L 63.535156 39.417969 C 63.535156 38.496094 63.332031 37.761719 62.921875 37.21875 C 62.511719 36.671875 61.863281 36.398438 60.976562 36.398438 C 60.464844 36.398438 60.023438 36.515625 59.628906 36.773438 C 59.238281 37.027344 58.929688 37.386719 58.710938 37.847656 L 58.675781 37.847656 C 58.675781 37.796875 58.675781 37.695312 58.675781 37.574219 C 58.65625 37.457031 58.65625 37.320312 58.640625 37.183594 C 58.625 37.046875 58.625 36.910156 58.625 36.789062 C 58.605469 36.671875 58.605469 36.566406 58.605469 36.515625 L 56.9375 36.515625 C 56.953125 36.773438 56.96875 37.046875 56.988281 37.320312 C 57.003906 37.609375 57.003906 37.898438 57.003906 38.1875 L 57.003906 45.265625 "/>
<path style=" stroke:none;fill-rule:nonzero;fill:rgb(100%,100%,100%);fill-opacity:1;" d="M 90.933594 24.863281 L 92.777344 24.863281 L 92.777344 19.472656 L 96.613281 19.472656 L 96.613281 24.863281 L 98.457031 24.863281 L 98.457031 12.960938 L 96.613281 12.960938 L 96.613281 17.921875 L 92.777344 17.921875 L 92.777344 12.960938 L 90.933594 12.960938 L 90.933594 24.863281 "/>
<path style=" stroke:none;fill-rule:nonzero;fill:rgb(100%,100%,100%);fill-opacity:1;" d="M 102.816406 20.992188 L 107.8125 20.992188 L 107.8125 20.394531 C 107.8125 19.628906 107.726562 18.980469 107.574219 18.417969 C 107.421875 17.855469 107.199219 17.394531 106.910156 17.035156 C 106.621094 16.675781 106.261719 16.421875 105.867188 16.25 C 105.460938 16.082031 105.015625 15.996094 104.539062 15.996094 C 103.992188 15.996094 103.5 16.097656 103.074219 16.320312 C 102.628906 16.542969 102.253906 16.867188 101.964844 17.257812 C 101.675781 17.667969 101.4375 18.144531 101.28125 18.707031 C 101.128906 19.269531 101.042969 19.882812 101.042969 20.550781 C 101.042969 21.179688 101.128906 21.777344 101.28125 22.324219 C 101.4375 22.871094 101.65625 23.328125 101.980469 23.722656 C 102.289062 24.113281 102.679688 24.421875 103.15625 24.644531 C 103.636719 24.882812 104.199219 24.984375 104.828125 24.984375 C 105.375 24.984375 105.867188 24.929688 106.296875 24.8125 C 106.722656 24.695312 107.0625 24.574219 107.355469 24.457031 L 107.269531 22.972656 C 107.046875 23.125 106.757812 23.277344 106.414062 23.429688 C 106.058594 23.585938 105.632812 23.671875 105.117188 23.671875 C 104.300781 23.671875 103.722656 23.449219 103.363281 22.988281 C 103.003906 22.546875 102.816406 21.878906 102.816406 20.992188 "/>
<path style=" stroke:none;fill-rule:nonzero;fill:rgb(100%,100%,100%);fill-opacity:1;" d="M 110.394531 24.863281 L 112.167969 24.863281 L 112.167969 16.113281 L 110.394531 16.113281 L 110.394531 24.863281 "/>
<path style=" stroke:none;fill-rule:nonzero;fill:rgb(100%,100%,100%);fill-opacity:1;" d="M 110.34375 14.359375 L 112.21875 14.359375 L 112.21875 12.464844 L 110.34375 12.464844 L 110.34375 14.359375 "/>
<path style=" stroke:none;fill-rule:nonzero;fill:rgb(100%,100%,100%);fill-opacity:1;" d="M 115.140625 24.863281 L 116.914062 24.863281 L 116.914062 19.507812 C 116.914062 18.859375 117.050781 18.367188 117.308594 18.007812 C 117.5625 17.648438 117.957031 17.480469 118.449219 17.480469 C 119.269531 17.480469 119.679688 18.023438 119.679688 19.097656 L 119.679688 24.863281 L 121.453125 24.863281 L 121.453125 19.507812 C 121.453125 18.859375 121.589844 18.367188 121.84375 18.007812 C 122.101562 17.648438 122.492188 17.480469 122.984375 17.480469 C 123.804688 17.480469 124.214844 18.023438 124.214844 19.097656 L 124.214844 24.863281 L 125.988281 24.863281 L 125.988281 19.132812 C 125.988281 18.109375 125.785156 17.324219 125.375 16.796875 C 124.949219 16.269531 124.316406 15.996094 123.464844 15.996094 C 122.902344 15.996094 122.441406 16.132812 122.082031 16.40625 C 121.726562 16.695312 121.453125 17.019531 121.230469 17.378906 C 121.144531 17.207031 121.042969 17.035156 120.925781 16.867188 C 120.804688 16.710938 120.648438 16.558594 120.480469 16.421875 C 120.308594 16.300781 120.105469 16.199219 119.882812 16.113281 C 119.660156 16.03125 119.390625 15.996094 119.097656 15.996094 C 118.554688 15.996094 118.109375 16.132812 117.75 16.40625 C 117.394531 16.695312 117.105469 17.035156 116.914062 17.460938 L 116.882812 17.460938 C 116.882812 17.410156 116.882812 17.308594 116.882812 17.171875 C 116.863281 17.050781 116.863281 16.917969 116.863281 16.78125 C 116.847656 16.644531 116.847656 16.507812 116.847656 16.386719 C 116.832031 16.269531 116.832031 16.164062 116.832031 16.113281 L 115.074219 16.113281 C 115.089844 16.355469 115.109375 16.609375 115.125 16.882812 C 115.140625 17.15625 115.140625 17.445312 115.140625 17.769531 L 115.140625 24.863281 "/>
<path style=" stroke:none;fill-rule:nonzero;fill:rgb(100%,100%,100%);fill-opacity:1;" d="M 128.855469 24.863281 L 130.527344 24.863281 C 130.527344 24.832031 130.527344 24.761719 130.546875 24.644531 C 130.5625 24.523438 130.5625 24.402344 130.578125 24.25 C 130.578125 24.113281 130.578125 23.976562 130.597656 23.839844 C 130.597656 23.703125 130.597656 23.601562 130.597656 23.535156 L 130.632812 23.535156 C 130.714844 23.722656 130.835938 23.894531 130.972656 24.0625 C 131.089844 24.234375 131.242188 24.386719 131.433594 24.523438 C 131.621094 24.660156 131.824219 24.761719 132.078125 24.847656 C 132.335938 24.949219 132.625 24.984375 132.949219 24.984375 C 133.445312 24.984375 133.886719 24.882812 134.261719 24.660156 C 134.640625 24.457031 134.960938 24.148438 135.21875 23.757812 C 135.472656 23.363281 135.660156 22.902344 135.796875 22.339844 C 135.917969 21.792969 135.984375 21.179688 135.984375 20.5 C 135.984375 19.015625 135.710938 17.90625 135.167969 17.140625 C 134.621094 16.371094 133.886719 15.996094 132.96875 15.996094 C 132.402344 15.996094 131.945312 16.113281 131.601562 16.371094 C 131.242188 16.625 130.953125 16.949219 130.730469 17.34375 L 130.699219 17.34375 L 130.699219 12.074219 L 128.925781 12.074219 L 128.925781 23.3125 C 128.925781 23.601562 128.925781 23.894531 128.90625 24.148438 C 128.890625 24.402344 128.875 24.644531 128.855469 24.863281 "/>
<path style=" stroke:none;fill-rule:nonzero;fill:rgb(100%,100%,100%);fill-opacity:1;" d="M 140.136719 20.992188 L 145.132812 20.992188 L 145.132812 20.394531 C 145.132812 19.628906 145.046875 18.980469 144.894531 18.417969 C 144.738281 17.855469 144.519531 17.394531 144.226562 17.035156 C 143.9375 16.675781 143.578125 16.421875 143.1875 16.25 C 142.777344 16.082031 142.335938 15.996094 141.855469 15.996094 C 141.3125 15.996094 140.816406 16.097656 140.390625 16.320312 C 139.945312 16.542969 139.570312 16.867188 139.28125 17.257812 C 138.992188 17.667969 138.753906 18.144531 138.601562 18.707031 C 138.445312 19.269531 138.363281 19.882812 138.363281 20.550781 C 138.363281 21.179688 138.445312 21.777344 138.601562 22.324219 C 138.753906 22.871094 138.976562 23.328125 139.300781 23.722656 C 139.605469 24.113281 140 24.421875 140.476562 24.644531 C 140.953125 24.882812 141.515625 24.984375 142.148438 24.984375 C 142.691406 24.984375 143.1875 24.929688 143.613281 24.8125 C 144.039062 24.695312 144.382812 24.574219 144.671875 24.457031 L 144.585938 22.972656 C 144.363281 23.125 144.074219 23.277344 143.734375 23.429688 C 143.375 23.585938 142.949219 23.671875 142.4375 23.671875 C 141.617188 23.671875 141.039062 23.449219 140.679688 22.988281 C 140.320312 22.546875 140.136719 21.878906 140.136719 20.992188 "/>
<path style=" stroke:none;fill-rule:nonzero;fill:rgb(100%,100%,100%);fill-opacity:1;" d="M 147.726562 24.863281 L 149.503906 24.863281 L 149.503906 20.15625 C 149.503906 19.714844 149.554688 19.339844 149.652344 19.015625 C 149.757812 18.691406 149.894531 18.433594 150.0625 18.230469 C 150.234375 18.042969 150.4375 17.890625 150.660156 17.785156 C 150.882812 17.699219 151.105469 17.648438 151.359375 17.648438 C 151.464844 17.648438 151.566406 17.648438 151.648438 17.667969 C 151.734375 17.683594 151.839844 17.699219 151.925781 17.71875 L 151.925781 16.011719 C 151.890625 16.011719 151.855469 16.011719 151.839844 15.996094 C 151.820312 15.996094 151.785156 15.996094 151.753906 15.996094 C 151.429688 15.996094 151.140625 16.03125 150.882812 16.113281 C 150.628906 16.199219 150.421875 16.320312 150.234375 16.472656 C 150.046875 16.625 149.878906 16.796875 149.738281 16.984375 C 149.605469 17.171875 149.484375 17.378906 149.398438 17.597656 L 149.363281 17.597656 C 149.363281 17.53125 149.363281 17.425781 149.363281 17.292969 C 149.347656 17.15625 149.347656 17.003906 149.332031 16.847656 C 149.3125 16.695312 149.3125 16.558594 149.3125 16.421875 C 149.296875 16.285156 149.296875 16.183594 149.296875 16.113281 L 147.660156 16.113281 C 147.675781 16.371094 147.695312 16.644531 147.710938 16.917969 C 147.726562 17.207031 147.726562 17.496094 147.726562 17.785156 L 147.726562 24.863281 "/>
<path style=" stroke:none;fill-rule:nonzero;fill:rgb(100%,100%,100%);fill-opacity:1;" d="M 153.519531 26.449219 L 153.414062 28.105469 C 153.707031 28.222656 154.117188 28.34375 154.628906 28.464844 C 155.140625 28.582031 155.667969 28.652344 156.195312 28.652344 C 157.492188 28.652344 158.464844 28.292969 159.113281 27.59375 C 159.761719 26.894531 160.085938 25.886719 160.085938 24.59375 L 160.085938 17.597656 C 160.085938 17.34375 160.101562 17.105469 160.117188 16.847656 C 160.136719 16.59375 160.136719 16.355469 160.152344 16.113281 L 158.515625 16.113281 C 158.515625 16.164062 158.515625 16.269531 158.515625 16.386719 C 158.496094 16.507812 158.496094 16.644531 158.480469 16.78125 C 158.464844 16.917969 158.464844 17.035156 158.464844 17.15625 C 158.445312 17.273438 158.445312 17.378906 158.445312 17.425781 L 158.394531 17.425781 C 158.175781 17.035156 157.886719 16.695312 157.527344 16.40625 C 157.167969 16.132812 156.726562 15.996094 156.179688 15.996094 C 155.648438 15.996094 155.175781 16.097656 154.78125 16.320312 C 154.390625 16.542969 154.046875 16.832031 153.792969 17.222656 C 153.535156 17.613281 153.332031 18.09375 153.210938 18.640625 C 153.074219 19.203125 153.007812 19.816406 153.007812 20.5 C 153.007812 21.316406 153.09375 22 153.28125 22.5625 C 153.449219 23.125 153.671875 23.585938 153.960938 23.925781 C 154.253906 24.285156 154.578125 24.523438 154.933594 24.675781 C 155.292969 24.832031 155.667969 24.914062 156.042969 24.914062 C 156.640625 24.914062 157.117188 24.78125 157.476562 24.488281 C 157.832031 24.214844 158.125 23.875 158.347656 23.449219 L 158.378906 23.449219 L 158.378906 24.539062 C 158.378906 24.898438 158.347656 25.257812 158.277344 25.582031 C 158.191406 25.90625 158.070312 26.175781 157.902344 26.414062 C 157.714844 26.65625 157.476562 26.84375 157.167969 26.996094 C 156.859375 27.132812 156.46875 27.199219 156.007812 27.199219 C 155.53125 27.199219 155.070312 27.113281 154.609375 26.960938 C 154.148438 26.789062 153.792969 26.621094 153.519531 26.449219 "/>
<path style=" stroke:none;fill-rule:nonzero;fill:rgb(100%,100%,100%);fill-opacity:1;" d="M 94.433594 44.890625 C 94.738281 45.0625 95.113281 45.183594 95.558594 45.28125 C 96 45.367188 96.496094 45.402344 97.039062 45.402344 C 98.183594 45.402344 99.105469 45.097656 99.769531 44.480469 C 100.4375 43.867188 100.761719 43.015625 100.761719 41.925781 C 100.761719 41.414062 100.691406 40.96875 100.535156 40.609375 C 100.382812 40.253906 100.160156 39.929688 99.90625 39.65625 C 99.652344 39.382812 99.34375 39.128906 98.984375 38.90625 C 98.628906 38.683594 98.253906 38.460938 97.859375 38.238281 C 97.570312 38.070312 97.316406 37.914062 97.109375 37.761719 C 96.886719 37.609375 96.71875 37.472656 96.597656 37.320312 C 96.460938 37.183594 96.359375 37.027344 96.308594 36.859375 C 96.257812 36.703125 96.222656 36.515625 96.222656 36.3125 C 96.222656 35.851562 96.375 35.460938 96.683594 35.171875 C 96.988281 34.878906 97.414062 34.726562 97.980469 34.726562 C 98.40625 34.726562 98.816406 34.777344 99.171875 34.878906 C 99.53125 35 99.839844 35.117188 100.109375 35.253906 L 100.160156 33.617188 C 99.941406 33.53125 99.617188 33.429688 99.222656 33.34375 C 98.816406 33.261719 98.355469 33.207031 97.84375 33.207031 C 97.363281 33.207031 96.921875 33.277344 96.496094 33.394531 C 96.070312 33.53125 95.695312 33.738281 95.371094 33.992188 C 95.046875 34.265625 94.789062 34.589844 94.601562 34.980469 C 94.414062 35.375 94.3125 35.820312 94.3125 36.328125 C 94.3125 36.859375 94.382812 37.285156 94.535156 37.644531 C 94.6875 38 94.894531 38.324219 95.148438 38.582031 C 95.40625 38.855469 95.695312 39.09375 96.050781 39.296875 C 96.394531 39.519531 96.769531 39.742188 97.160156 39.980469 C 97.484375 40.167969 97.757812 40.355469 97.980469 40.507812 C 98.203125 40.679688 98.371094 40.847656 98.507812 41.003906 C 98.628906 41.15625 98.730469 41.328125 98.78125 41.496094 C 98.832031 41.683594 98.847656 41.875 98.847656 42.09375 C 98.847656 42.640625 98.660156 43.066406 98.304688 43.390625 C 97.945312 43.714844 97.46875 43.886719 96.886719 43.886719 C 96.410156 43.886719 95.96875 43.800781 95.539062 43.628906 C 95.113281 43.476562 94.773438 43.304688 94.5 43.136719 L 94.433594 44.890625 "/>
<path style=" stroke:none;fill-rule:nonzero;fill:rgb(100%,100%,100%);fill-opacity:1;" d="M 104.515625 41.394531 L 109.511719 41.394531 L 109.511719 40.796875 C 109.511719 40.03125 109.425781 39.382812 109.273438 38.820312 C 109.121094 38.257812 108.898438 37.796875 108.609375 37.4375 C 108.316406 37.082031 107.960938 36.824219 107.566406 36.652344 C 107.160156 36.484375 106.714844 36.398438 106.238281 36.398438 C 105.691406 36.398438 105.195312 36.5 104.769531 36.722656 C 104.328125 36.945312 103.953125 37.269531 103.664062 37.660156 C 103.371094 38.070312 103.132812 38.546875 102.980469 39.109375 C 102.824219 39.671875 102.742188 40.285156 102.742188 40.953125 C 102.742188 41.582031 102.824219 42.179688 102.980469 42.726562 C 103.132812 43.273438 103.355469 43.734375 103.679688 44.125 C 103.984375 44.515625 104.378906 44.824219 104.855469 45.046875 C 105.335938 45.28125 105.894531 45.386719 106.527344 45.386719 C 107.074219 45.386719 107.566406 45.335938 107.992188 45.214844 C 108.421875 45.097656 108.761719 44.976562 109.050781 44.859375 L 108.964844 43.375 C 108.742188 43.527344 108.453125 43.679688 108.113281 43.835938 C 107.753906 43.988281 107.328125 44.074219 106.816406 44.074219 C 106 44.074219 105.417969 43.851562 105.0625 43.390625 C 104.703125 42.949219 104.515625 42.28125 104.515625 41.394531 "/>
<path style=" stroke:none;fill-rule:nonzero;fill:rgb(100%,100%,100%);fill-opacity:1;" d="M 112.792969 45.265625 L 114.566406 45.265625 L 114.566406 37.882812 L 116.152344 37.882812 L 116.152344 36.515625 L 114.566406 36.515625 L 114.566406 34.84375 C 114.566406 34.453125 114.652344 34.164062 114.804688 33.960938 C 114.960938 33.753906 115.230469 33.652344 115.589844 33.652344 C 115.691406 33.652344 115.828125 33.667969 115.980469 33.703125 C 116.136719 33.738281 116.289062 33.773438 116.40625 33.824219 L 116.40625 32.457031 C 116.222656 32.40625 115.996094 32.355469 115.742188 32.320312 C 115.488281 32.285156 115.28125 32.269531 115.128906 32.269531 C 114.703125 32.269531 114.328125 32.339844 114.039062 32.457031 C 113.746094 32.578125 113.511719 32.746094 113.320312 32.96875 C 113.132812 33.191406 112.996094 33.429688 112.910156 33.71875 C 112.824219 34.011719 112.792969 34.335938 112.792969 34.65625 L 112.792969 36.515625 L 111.359375 36.515625 L 111.359375 37.882812 L 112.792969 37.882812 L 112.792969 45.265625 "/>
<path style=" stroke:none;fill-rule:nonzero;fill:rgb(100%,100%,100%);fill-opacity:1;" d="M 122.761719 45.132812 L 122.761719 43.800781 C 122.644531 43.851562 122.523438 43.902344 122.386719 43.9375 C 122.25 43.988281 122.097656 44.003906 121.90625 44.003906 C 121.585938 44.003906 121.363281 43.902344 121.210938 43.714844 C 121.058594 43.527344 120.988281 43.203125 120.988281 42.726562 L 120.988281 37.882812 L 122.761719 37.882812 L 122.761719 36.515625 L 120.988281 36.515625 L 120.988281 34.199219 L 119.214844 34.726562 L 119.214844 36.515625 L 117.816406 36.515625 L 117.816406 37.882812 L 119.214844 37.882812 L 119.214844 43.085938 C 119.214844 43.917969 119.402344 44.515625 119.796875 44.859375 C 120.1875 45.214844 120.730469 45.386719 121.449219 45.386719 C 121.703125 45.386719 121.960938 45.367188 122.183594 45.320312 C 122.402344 45.25 122.609375 45.199219 122.761719 45.132812 "/>
<path style=" stroke:none;fill-rule:nonzero;fill:rgb(100%,100%,100%);fill-opacity:1;" d="M 125.09375 45.265625 L 126.867188 45.265625 L 126.867188 36.515625 L 125.09375 36.515625 L 125.09375 45.265625 "/>
<path style=" stroke:none;fill-rule:nonzero;fill:rgb(100%,100%,100%);fill-opacity:1;" d="M 125.042969 34.761719 L 126.917969 34.761719 L 126.917969 32.867188 L 125.042969 32.867188 L 125.042969 34.761719 "/>
<path style=" stroke:none;fill-rule:nonzero;fill:rgb(100%,100%,100%);fill-opacity:1;" d="M 129.855469 46.851562 L 129.753906 48.507812 C 130.042969 48.628906 130.453125 48.746094 130.964844 48.863281 C 131.476562 48.984375 132.003906 49.050781 132.53125 49.050781 C 133.828125 49.050781 134.800781 48.695312 135.449219 47.996094 C 136.097656 47.296875 136.421875 46.289062 136.421875 44.996094 L 136.421875 38 C 136.421875 37.746094 136.4375 37.507812 136.453125 37.25 C 136.472656 36.996094 136.472656 36.757812 136.488281 36.515625 L 134.851562 36.515625 C 134.851562 36.566406 134.851562 36.671875 134.851562 36.789062 C 134.835938 36.910156 134.835938 37.046875 134.816406 37.183594 C 134.800781 37.320312 134.800781 37.4375 134.800781 37.558594 C 134.785156 37.675781 134.785156 37.78125 134.785156 37.832031 L 134.730469 37.832031 C 134.511719 37.4375 134.222656 37.097656 133.863281 36.808594 C 133.503906 36.535156 133.0625 36.398438 132.515625 36.398438 C 131.984375 36.398438 131.511719 36.5 131.117188 36.722656 C 130.726562 36.945312 130.382812 37.234375 130.128906 37.625 C 129.871094 38.019531 129.667969 38.496094 129.546875 39.042969 C 129.410156 39.605469 129.34375 40.21875 129.34375 40.902344 C 129.34375 41.71875 129.429688 42.402344 129.617188 42.964844 C 129.785156 43.527344 130.007812 43.988281 130.296875 44.328125 C 130.589844 44.6875 130.914062 44.925781 131.269531 45.078125 C 131.628906 45.234375 132.003906 45.320312 132.378906 45.320312 C 132.976562 45.320312 133.453125 45.183594 133.8125 44.890625 C 134.167969 44.617188 134.460938 44.277344 134.683594 43.851562 L 134.714844 43.851562 L 134.714844 44.941406 C 134.714844 45.300781 134.683594 45.660156 134.613281 45.984375 C 134.527344 46.304688 134.40625 46.582031 134.238281 46.820312 C 134.050781 47.054688 133.8125 47.246094 133.503906 47.398438 C 133.195312 47.535156 132.804688 47.601562 132.34375 47.601562 C 131.867188 47.601562 131.40625 47.519531 130.945312 47.363281 C 130.484375 47.195312 130.128906 47.023438 129.855469 46.851562 "/>
<path style=" stroke:none;fill-rule:nonzero;fill:rgb(100%,100%,100%);fill-opacity:1;" d="M 140.648438 41.394531 L 145.644531 41.394531 L 145.644531 40.796875 C 145.644531 40.03125 145.5625 39.382812 145.40625 38.820312 C 145.253906 38.257812 145.03125 37.796875 144.742188 37.4375 C 144.453125 37.082031 144.09375 36.824219 143.699219 36.652344 C 143.292969 36.484375 142.847656 36.398438 142.371094 36.398438 C 141.824219 36.398438 141.332031 36.5 140.90625 36.722656 C 140.460938 36.945312 140.085938 37.269531 139.796875 37.660156 C 139.507812 38.070312 139.269531 38.546875 139.113281 39.109375 C 138.960938 39.671875 138.875 40.285156 138.875 40.953125 C 138.875 41.582031 138.960938 42.179688 139.113281 42.726562 C 139.269531 43.273438 139.488281 43.734375 139.8125 44.125 C 140.121094 44.515625 140.511719 44.824219 140.988281 45.046875 C 141.46875 45.28125 142.03125 45.386719 142.660156 45.386719 C 143.207031 45.386719 143.699219 45.335938 144.128906 45.214844 C 144.554688 45.097656 144.894531 44.976562 145.183594 44.859375 L 145.101562 43.375 C 144.878906 43.527344 144.589844 43.679688 144.246094 43.835938 C 143.890625 43.988281 143.464844 44.074219 142.949219 44.074219 C 142.132812 44.074219 141.554688 43.851562 141.195312 43.390625 C 140.835938 42.949219 140.648438 42.28125 140.648438 41.394531 "/>
<path style=" stroke:none;fill-rule:nonzero;fill:rgb(100%,100%,100%);fill-opacity:1;" d="M 148.242188 45.265625 L 150.019531 45.265625 L 150.019531 40.082031 C 150.019531 39.398438 150.152344 38.855469 150.441406 38.460938 C 150.714844 38.070312 151.125 37.882812 151.6875 37.882812 C 152.148438 37.882812 152.472656 38.035156 152.695312 38.34375 C 152.898438 38.648438 153 39.144531 153 39.828125 L 153 45.265625 L 154.773438 45.265625 L 154.773438 39.417969 C 154.773438 38.496094 154.570312 37.761719 154.160156 37.21875 C 153.753906 36.671875 153.105469 36.398438 152.21875 36.398438 C 151.703125 36.398438 151.261719 36.515625 150.871094 36.773438 C 150.476562 37.027344 150.171875 37.386719 149.949219 37.847656 L 149.914062 37.847656 C 149.914062 37.796875 149.914062 37.695312 149.914062 37.574219 C 149.898438 37.457031 149.898438 37.320312 149.882812 37.183594 C 149.863281 37.046875 149.863281 36.910156 149.863281 36.789062 C 149.847656 36.671875 149.847656 36.566406 149.847656 36.515625 L 148.175781 36.515625 C 148.191406 36.773438 148.210938 37.046875 148.226562 37.320312 C 148.242188 37.609375 148.242188 37.898438 148.242188 38.1875 L 148.242188 45.265625 "/>
<path style=" stroke:none;fill-rule:nonzero;fill:rgb(0%,49.674988%,27.331543%);fill-opacity:1;" d="M 49.410156 40.183594 C 49.425781 39.382812 49.582031 38.75 49.871094 38.308594 C 50.160156 37.882812 50.570312 37.660156 51.082031 37.660156 C 52.140625 37.660156 52.667969 38.496094 52.667969 40.183594 L 49.410156 40.183594 "/>
<path style=" stroke:none;fill-rule:nonzero;fill:rgb(0%,49.674988%,27.331543%);fill-opacity:1;" d="M 102.816406 19.78125 C 102.832031 18.980469 102.988281 18.347656 103.277344 17.90625 C 103.566406 17.480469 103.976562 17.257812 104.488281 17.257812 C 105.546875 17.257812 106.074219 18.09375 106.074219 19.78125 L 102.816406 19.78125 "/>
<path style=" stroke:none;fill-rule:nonzero;fill:rgb(0%,49.674988%,27.331543%);fill-opacity:1;" d="M 131.125 22.765625 C 130.835938 22.203125 130.699219 21.4375 130.699219 20.480469 C 130.699219 19.507812 130.835938 18.742188 131.125 18.179688 C 131.414062 17.613281 131.859375 17.34375 132.472656 17.34375 C 133.105469 17.34375 133.546875 17.613281 133.820312 18.144531 C 134.074219 18.691406 134.210938 19.457031 134.210938 20.449219 C 134.210938 21.523438 134.09375 22.304688 133.835938 22.835938 C 133.582031 23.363281 133.121094 23.636719 132.488281 23.636719 C 131.859375 23.636719 131.398438 23.347656 131.125 22.765625 "/>
<path style=" stroke:none;fill-rule:nonzero;fill:rgb(0%,49.674988%,27.331543%);fill-opacity:1;" d="M 140.136719 19.78125 C 140.152344 18.980469 140.304688 18.347656 140.597656 17.90625 C 140.886719 17.480469 141.296875 17.257812 141.808594 17.257812 C 142.863281 17.257812 143.394531 18.09375 143.394531 19.78125 L 140.136719 19.78125 "/>
<path style=" stroke:none;fill-rule:nonzero;fill:rgb(0%,49.674988%,27.331543%);fill-opacity:1;" d="M 155.257812 22.800781 C 154.96875 22.304688 154.8125 21.523438 154.8125 20.449219 C 154.8125 19.441406 154.949219 18.691406 155.226562 18.160156 C 155.480469 17.648438 155.925781 17.394531 156.535156 17.378906 C 157.117188 17.378906 157.5625 17.632812 157.886719 18.144531 C 158.191406 18.65625 158.347656 19.421875 158.347656 20.429688 C 158.347656 21.488281 158.191406 22.273438 157.902344 22.785156 C 157.613281 23.3125 157.132812 23.570312 156.46875 23.570312 C 155.957031 23.570312 155.546875 23.3125 155.257812 22.800781 "/>
<path style=" stroke:none;fill-rule:nonzero;fill:rgb(0%,49.674988%,27.331543%);fill-opacity:1;" d="M 104.515625 40.183594 C 104.53125 39.382812 104.6875 38.75 104.976562 38.308594 C 105.265625 37.882812 105.675781 37.660156 106.1875 37.660156 C 107.242188 37.660156 107.773438 38.496094 107.773438 40.183594 L 104.515625 40.183594 "/>
<path style=" stroke:none;fill-rule:nonzero;fill:rgb(0%,49.674988%,27.331543%);fill-opacity:1;" d="M 131.59375 43.203125 C 131.304688 42.707031 131.152344 41.925781 131.152344 40.847656 C 131.152344 39.84375 131.285156 39.09375 131.5625 38.5625 C 131.816406 38.050781 132.261719 37.796875 132.875 37.78125 C 133.453125 37.78125 133.894531 38.035156 134.222656 38.546875 C 134.527344 39.058594 134.683594 39.828125 134.683594 40.832031 C 134.683594 41.890625 134.527344 42.675781 134.238281 43.1875 C 133.949219 43.714844 133.472656 43.96875 132.804688 43.96875 C 132.292969 43.96875 131.882812 43.714844 131.59375 43.203125 "/>
<path style=" stroke:none;fill-rule:nonzero;fill:rgb(0%,49.674988%,27.331543%);fill-opacity:1;" d="M 140.648438 40.183594 C 140.664062 39.382812 140.820312 38.75 141.109375 38.308594 C 141.398438 37.882812 141.808594 37.660156 142.320312 37.660156 C 143.378906 37.660156 143.90625 38.496094 143.90625 40.183594 L 140.648438 40.183594 "/>
</g>
</svg>
