<?xml version="1.0" encoding="UTF-8" standalone="no"?>
<svg
   xmlns:dc="http://purl.org/dc/elements/1.1/"
   xmlns:cc="http://creativecommons.org/ns#"
   xmlns:rdf="http://www.w3.org/1999/02/22-rdf-syntax-ns#"
   xmlns:svg="http://www.w3.org/2000/svg"
   xmlns="http://www.w3.org/2000/svg"
   xmlns:sodipodi="http://sodipodi.sourceforge.net/DTD/sodipodi-0.dtd"
   xmlns:inkscape="http://www.inkscape.org/namespaces/inkscape"
   width="175pt"
   height="79pt"
   version="1.1"
   id="svg8708"
   sodipodi:docname="464.svg"
   inkscape:version="1.0.2 (e86c870879, 2021-01-15, custom)">
  <metadata
     id="metadata8714">
    <rdf:RDF>
      <cc:Work
         rdf:about="">
        <dc:format>image/svg+xml</dc:format>
        <dc:type
           rdf:resource="http://purl.org/dc/dcmitype/StillImage" />
        <dc:title></dc:title>
      </cc:Work>
    </rdf:RDF>
  </metadata>
  <defs
     id="defs8712" />
  <sodipodi:namedview
     pagecolor="#ffffff"
     bordercolor="#666666"
     borderopacity="1"
     objecttolerance="10"
     gridtolerance="10"
     guidetolerance="10"
     inkscape:pageopacity="0"
     inkscape:pageshadow="2"
     inkscape:window-width="1920"
     inkscape:window-height="1017"
     id="namedview8710"
     showgrid="false"
     units="pt"
     inkscape:zoom="2.7961373"
     inkscape:cx="100.92453"
     inkscape:cy="54.362736"
     inkscape:window-x="3832"
     inkscape:window-y="-3"
     inkscape:window-maximized="1"
     inkscape:current-layer="svg8708" />
  <!-- Created with Method Draw - http://github.com/duopixel/Method-Draw/ -->
  <g
     id="g9298"
     transform="matrix(0.97326084,0,0,0.97326084,3.7231772,1.6387206)">
    <g
       id="g8688">
      <title
         id="title8682">background</title>
      <rect
         fill="#ffffff"
         id="canvas_background"
         height="107"
         width="235"
         y="-1"
         x="-1" />
      <g
         display="none"
         overflow="visible"
         y="0"
         x="0"
         height="100%"
         width="100%"
         id="canvasGrid">
        <rect
           fill="url(#gridpattern)"
           stroke-width="0"
           y="0"
           x="0"
           height="100%"
           width="100%"
           id="rect8685" />
      </g>
    </g>
    <g
       id="g8706">
      <title
         id="title8690">Layer 1</title>
      <metadata
         id="svg_21">image/svg+xml</metadata>
      <g
         id="svg_23">
        <path
           fill="#007d45"
           fill-rule="nonzero"
           id="svg_20"
           d="M 104.43951,103.4728 H 231.51355 V 1.21328 H 104.43951 Z m 0,0" />
        <path
           fill="#007d45"
           fill-rule="nonzero"
           id="svg_19"
           d="M 1.48833,103.4728 H 101.7158 V 1.21328 H 1.48833 Z m 0,0" />
        <path
           fill="#ffffff"
           fill-rule="nonzero"
           id="svg_18"
           d="m 112.93955,2.94916 c -3.71041,0 -6.71678,2.98677 -6.71678,6.66789 v 85.36518 c 0,3.68111 3.00637,6.66788 6.71678,6.66788 h 110.06368 c 3.71041,0 6.71677,-2.98677 6.71677,-6.66788 V 9.61705 c 0,-3.68112 -3.00635,-6.66789 -6.71677,-6.66789 H 112.93955" />
        <path
           fill="#ffffff"
           fill-rule="nonzero"
           id="svg_17"
           d="m 93.25687,101.65011 c 3.70528,0 6.71165,-2.98677 6.71165,-6.66788 V 9.61705 c 0,-3.68112 -3.00637,-6.66789 -6.71165,-6.66789 H 10.03461 c -3.70528,0 -6.71164,2.98677 -6.71164,6.66789 v 85.36518 c 0,3.68111 3.00635,6.66788 6.71164,6.66788 h 83.22226" />
        <path
           fill="#007d45"
           fill-rule="nonzero"
           id="svg_16"
           d="m 112.92413,5.18541 c -2.47189,0 -4.47613,1.99118 -4.47613,4.44695 v 85.36518 c 0,2.45068 2.00424,4.44185 4.47613,4.44185 h 110.06881 c 2.4719,0 4.471,-1.99118 4.471,-4.44185 V 9.63236 c 0,-2.45577 -1.9991,-4.44695 -4.471,-4.44695 H 112.92413" />
        <path
           fill="#007d45"
           fill-rule="nonzero"
           id="svg_15"
           d="m 93.24145,99.43939 c 2.4719,0 4.47615,-1.99118 4.47615,-4.44185 V 9.63236 c 0,-2.45068 -2.00424,-4.44695 -4.47615,-4.44695 H 10.01919 c -2.47189,0 -4.47613,1.99627 -4.47613,4.44695 v 85.36518 c 0,2.45068 2.00424,4.44185 4.47613,4.44185 h 83.22226" />
        <path
           fill="#ffffff"
           fill-rule="nonzero"
           id="svg_14"
           d="M 33.25811,90.5557 15.34842,89.28952 c -0.29806,-0.02553 -0.56529,-0.1889 -0.70919,-0.44419 -0.14903,-0.25528 -0.16445,-0.56671 -0.03084,-0.83221 l 7.84738,-16.04681 c 0.16445,-0.33187 0.5139,-0.53098 0.88392,-0.49525 0.37001,0.03064 0.6835,0.28591 0.78114,0.63821 l 2.02994,7.05079 16.71229,-10.35921 3.35582,5.77439 -17.38037,9.20535 5.12881,5.27406 c 0.25695,0.26039 0.32376,0.65862 0.16445,0.99048 -0.15418,0.33696 -0.50364,0.53609 -0.87365,0.51056" />
        <path
           fill="#ffffff"
           fill-rule="nonzero"
           id="svg_13"
           d="m 199.72319,90.56591 17.90969,-1.26618 c 0.29808,-0.02553 0.56017,-0.1889 0.71433,-0.44418 0.1439,-0.25529 0.15932,-0.56673 0.0257,-0.83221 l -7.84737,-16.04682 c -0.16445,-0.33185 -0.5139,-0.53098 -0.88392,-0.49523 -0.37001,0.03064 -0.67837,0.2808 -0.78114,0.6382 l -2.02994,7.05079 -16.71743,-10.35921 -3.35583,5.7744 17.39065,9.20535 -5.13394,5.26895 c -0.25695,0.26548 -0.32376,0.66372 -0.16959,0.99558 0.15932,0.33698 0.50877,0.5412 0.87878,0.51056" />
      </g>
      <text
         xml:space="default"
         dominant-baseline="middle"
         text-anchor="middle"
         font-family="sans-serif"
         font-size="15px"
         id="svg_24"
         y="30"
         x="50"
         fill="#ffffff">param(text1)</text>
      <text
         xml:space="default"
         dominant-baseline="middle"
         text-anchor="middle"
         font-family="sans-serif"
         font-size="15px"
         id="svg_25"
         y="50"
         x="50"
         fill="#ffffff">param(text2)</text>
      <text
         xml:space="default"
         dominant-baseline="middle"
         text-anchor="middle"
         font-family="sans-serif"
         font-size="15px"
         id="svg_26"
         y="30"
         x="164"
         fill="#ffffff">param(text3)</text>
      <text
         xml:space="default"
         dominant-baseline="middle"
         text-anchor="middle"
         font-family="sans-serif"
         font-size="15px"
         id="svg_27"
         y="50"
         x="164"
         fill="#ffffff">param(text4)</text>
    </g>
  </g>
</svg>
