<?xml version="1.0" encoding="UTF-8" standalone="no"?>
<svg
   width="87pt"
   height="94pt"
   viewBox="0 0 87 94"
   version="1.1"
   id="svg847"
   xmlns="http://www.w3.org/2000/svg"
   xmlns:svg="http://www.w3.org/2000/svg">
  <defs
     id="defs851" />
  <g
     id="g7079">
    <path
       style="fill:#007d45;fill-opacity:1;fill-rule:nonzero;stroke:none"
       d="M 1,93.945312 H 86.039062 V 0.402344 H 1 Z m 0,0"
       id="path824" />
    <path
       style="fill:#ffffff;fill-opacity:1;fill-rule:nonzero;stroke:none"
       d="M 2.359375,87.484375 V 6.863281 c 0,-2.820312 2.285156,-5.101562 5.101563,-5.101562 h 72.117187 c 2.820313,0 5.101563,2.28125 5.101563,5.101562 v 80.621094 c 0,2.8125 -2.285157,5.097656 -5.101563,5.097656 H 7.464844 c -2.820313,0 -5.105469,-2.277343 -5.105469,-5.097656"
       id="path826" />
    <path
       style="fill:#007d45;fill-opacity:1;fill-rule:nonzero;stroke:none"
       d="M 3.71875,87.480469 V 6.859375 c 0,-2.0625 1.679688,-3.742187 3.746094,-3.742187 h 72.113281 c 2.066406,0 3.738281,1.679687 3.738281,3.75 v 80.617187 c 0,2.0625 -1.667968,3.738281 -3.738281,3.738281 H 7.460938 c -2.0625,0 -3.742188,-1.675781 -3.742188,-3.742187"
       id="path828" />
    <path
       style="fill:#ffffff;fill-opacity:1;fill-rule:nonzero;stroke:none"
       d="m 70.167969,15.980469 -4.683594,14.414062 c -0.08594,0.273438 -0.339844,0.457031 -0.625,0.453125 -0.285156,-0.0078 -0.535156,-0.195312 -0.617187,-0.46875 l -1.726563,-5.824218 -3.535156,2.042968 c -7.070313,4.0625 -11.394531,11.578125 -11.394531,19.734375 V 65.042969 H 39.421875 V 46.332031 c 0,-8.140625 -4.34375,-15.664062 -11.394531,-19.734375 l -3.535156,-2.042968 -1.726563,5.824218 c -0.08203,0.273438 -0.332031,0.460938 -0.617187,0.464844 -0.285157,0.0078 -0.542969,-0.179688 -0.632813,-0.449219 L 16.835938,15.980469 c -0.121094,-0.371094 0.105468,-0.761719 0.484374,-0.84375 l 14.820313,-3.148438 c 0.28125,-0.05859 0.566406,0.07031 0.707031,0.320313 0.136719,0.246094 0.101563,0.558594 -0.09375,0.769531 l -4.183594,4.40625 3.535157,2.039063 c 4.753906,2.746093 8.6875,6.65625 11.40625,11.425781 2.726562,-4.765625 6.671875,-8.714844 11.433593,-11.453125 l 3.488282,-2.011719 -4.179688,-4.40625 c -0.199218,-0.207031 -0.238281,-0.519531 -0.09766,-0.769531 0.140625,-0.25 0.425781,-0.378906 0.703125,-0.320313 l 14.824219,3.148438 c 0.378906,0.08203 0.605468,0.472656 0.484375,0.84375"
       id="path830" />
    <path
       style="fill:#ffffff;fill-opacity:1;fill-rule:nonzero;stroke:none"
       d="m 59.375,85.125 v -7.097656 c 0,-0.324219 0,-0.613282 -0.01953,-0.886719 -0.01563,-0.273437 -0.03125,-0.527344 -0.05078,-0.769531 h 1.75781 c 0,0.05469 0,0.15625 0.01953,0.277344 0,0.117187 0,0.253906 0.01563,0.390624 0,0.136719 0,0.273438 0.01563,0.390626 0,0.140624 0,0.238281 0,0.292968 h 0.03516 c 0.1875,-0.429687 0.480468,-0.769531 0.835937,-1.058594 0.359375,-0.273437 0.800781,-0.410156 1.347656,-0.410156 0.289063,0 0.5625,0.03516 0.785157,0.117188 0.222656,0.08984 0.425781,0.191406 0.597656,0.308594 0.171875,0.136718 0.324218,0.289062 0.441406,0.445312 0.121094,0.167969 0.222656,0.339844 0.308594,0.511719 0.222656,-0.359375 0.496094,-0.683594 0.855468,-0.972657 0.355469,-0.273437 0.816407,-0.410156 1.378907,-0.410156 0.855469,0 1.484375,0.273438 1.910156,0.800782 0.410156,0.53125 0.613281,1.316406 0.613281,2.339843 V 85.125 h -1.773437 v -5.765625 c 0,-1.074219 -0.40625,-1.621094 -1.226563,-1.621094 -0.496094,0 -0.886718,0.171875 -1.144531,0.53125 -0.253906,0.355469 -0.390625,0.851563 -0.390625,1.5 V 85.125 h -1.773438 v -5.765625 c 0,-1.074219 -0.410156,-1.621094 -1.230468,-1.621094 -0.492188,0 -0.886719,0.171875 -1.144532,0.53125 -0.253906,0.355469 -0.390624,0.851563 -0.390624,1.5 V 85.125 H 59.375"
       id="path840" />
    <text
       xml:space="preserve"
       text-anchor="start"
       font-family="sans-serif"
       font-size="10.5px"
       id="svg_20"
       y="85.419281"
       x="44.675201"
       fill="#ffffff"
       transform="scale(1.002622,0.99738486)"
       style="stroke-width:0.71207"><tspan
         style="text-align:center;text-anchor:middle"
         id="tspan1540">param(text1)</tspan></text>
  </g>
</svg>
