<?xml version="1.0" encoding="UTF-8" standalone="no"?>
<svg
   width="163pt"
   height="144pt"
   viewBox="0 0 163 144"
   version="1.1"
   id="svg929"
   xmlns="http://www.w3.org/2000/svg"
   xmlns:svg="http://www.w3.org/2000/svg">
  <defs
     id="defs933" />
  <path
     style="fill:#007d45;fill-opacity:1;fill-rule:nonzero;stroke:none"
     d="M 0.730469,143.4375 H 162.30859 V 0.914062 H 0.730469 Z m 0,0"
     id="path824" />
  <path
     style="fill:#ffffff;fill-opacity:1;fill-rule:nonzero;stroke:none"
     d="m 160.60547,136.63672 c 0,2.8164 -2.28516,5.10156 -5.10156,5.10156 H 7.535156 c -2.816406,0 -5.105468,-2.28516 -5.101562,-5.10547 V 7.714844 C 2.429688,4.898438 4.71875,2.609375 7.535156,2.613281 H 155.50391 c 2.8164,-0.00391 5.10546,2.285157 5.10156,5.101563 V 136.63672"
     id="path826" />
  <path
     style="fill:#007d45;fill-opacity:1;fill-rule:nonzero;stroke:none"
     d="M 158.5625,136.63281 V 63.839844 H 4.476562 v 72.792966 c -0.00391,1.69141 1.367188,3.0625 3.058594,3.0625 H 155.50391 c 1.6914,0.004 3.0625,-1.37109 3.05859,-3.0625"
     id="path828" />
  <path
     style="fill:#007d45;fill-opacity:1;fill-rule:nonzero;stroke:none"
     d="M 158.5625,61.800781 H 4.476562 V 7.714844 C 4.472656,6.023438 5.84375,4.652344 7.535156,4.652344 H 155.50391 c 1.6914,0 3.0625,1.371094 3.05859,3.0625 v 54.085937"
     id="path830" />
  <path
     style="fill:#ffffff;fill-opacity:1;fill-rule:nonzero;stroke:none"
     d="m 30.15625,49.410156 h -6.125 l 0.613281,-17.960937 -6.53125,1.632812 c -0.726562,0.183594 -1.292969,-0.628906 -0.875,-1.25 l 9.179688,-13.566406 c 0.324219,-0.480469 1.027343,-0.480469 1.351562,0 l 9.179688,13.566406 c 0.417969,0.621094 -0.148438,1.433594 -0.875,1.25 l -6.53125,-1.632812 0.613281,17.960937"
     id="path832" />
  <path
     style="fill:#ffffff;fill-opacity:1;fill-rule:nonzero;stroke:none"
     d="M 15.699219,107.92188 12.640625,102.61719 28.5,94.167969 23.820312,89.328125 c -0.523437,-0.539063 -0.101562,-1.433594 0.644532,-1.378906 l 16.339844,1.160156 c 0.578124,0.04297 0.929687,0.65625 0.675781,1.171875 l -7.160157,14.73438 c -0.328124,0.67578 -1.316406,0.58593 -1.519531,-0.13282 l -1.851562,-6.472654 -15.25,9.511724"
     id="path834" />
  <path
     style="fill:#ffffff;fill-opacity:1;fill-rule:nonzero;stroke:none"
     d="m 91.753906,132.55078 c 0.324219,0.12109 0.699219,0.23828 1.144532,0.32422 0.425781,0.10156 0.902343,0.15234 1.398437,0.15234 1.265625,0 2.238281,-0.375 2.921875,-1.10937 0.6875,-0.75 1.027344,-1.76172 1.027344,-3.04297 0,-0.58203 -0.08594,-1.10937 -0.257813,-1.55469 -0.1875,-0.46093 -0.425781,-0.83593 -0.714843,-1.14453 -0.292969,-0.30859 -0.652344,-0.53125 -1.042969,-0.68359 -0.410157,-0.15235 -0.839844,-0.23828 -1.28125,-0.23828 -0.273438,0 -0.53125,0.0156 -0.75,0.0508 -0.242188,0.0156 -0.445313,0.0664 -0.601563,0.11719 v -3.00782 h 4.085938 v -1.45312 h -5.761719 v 6.08594 c 0.292969,-0.0859 0.601563,-0.16797 0.90625,-0.25782 0.308594,-0.082 0.667969,-0.11718 1.0625,-0.11718 0.820313,0 1.433594,0.22265 1.859375,0.64843 0.410156,0.42578 0.617188,1.01172 0.617188,1.71094 0,0.73437 -0.207032,1.33203 -0.632813,1.79297 -0.425781,0.48047 -1.007813,0.71875 -1.742187,0.71875 -0.429688,0 -0.820313,-0.0703 -1.179688,-0.1875 -0.359375,-0.1211 -0.683594,-0.25781 -0.957031,-0.41016 l -0.101563,1.60547"
     id="path892" />
  <path
     style="fill:#ffffff;fill-opacity:1;fill-rule:nonzero;stroke:none"
     d="m 100.85547,131.28516 c 0.29297,0.55078 0.66797,0.97656 1.12891,1.28125 0.46093,0.30859 1.00781,0.46093 1.67578,0.46093 0.66797,0 1.23047,-0.15234 1.6914,-0.47656 0.46094,-0.30859 0.83594,-0.73437 1.12891,-1.28125 0.28906,-0.54687 0.49609,-1.19531 0.61328,-1.92969 0.12109,-0.73828 0.1875,-1.53906 0.1875,-2.41406 0,-0.87109 -0.0664,-1.67187 -0.1875,-2.42578 -0.11719,-0.73437 -0.32422,-1.38672 -0.61328,-1.92969 -0.29297,-0.54687 -0.66797,-0.97656 -1.12891,-1.30078 -0.46093,-0.30859 -1.02343,-0.46094 -1.6914,-0.46094 -0.66797,0 -1.23047,0.15235 -1.69141,0.46094 -0.46094,0.32422 -0.82031,0.75391 -1.11328,1.30078 -0.28906,0.54297 -0.49219,1.19532 -0.61328,1.92969 -0.1211,0.75391 -0.1875,1.55469 -0.1875,2.42578 0,0.875 0.0664,1.67578 0.1875,2.41406 0.12109,0.75 0.32422,1.39844 0.61328,1.94532"
     id="path894" />
  <path
     style="fill:#ffffff;fill-opacity:1;fill-rule:nonzero;stroke:none"
     d="m 110.11719,131.28516 c 0.29297,0.55078 0.66797,0.97656 1.1289,1.28125 0.46485,0.30859 1.01172,0.46093 1.67579,0.46093 0.66796,0 1.23046,-0.15234 1.6914,-0.47656 0.46094,-0.30859 0.83985,-0.73437 1.12891,-1.28125 0.28906,-0.54687 0.49609,-1.19531 0.61328,-1.92969 0.12109,-0.73828 0.19141,-1.53906 0.19141,-2.41406 0,-0.87109 -0.0703,-1.67187 -0.19141,-2.42578 -0.11719,-0.73437 -0.32422,-1.38672 -0.61328,-1.92969 -0.28906,-0.54687 -0.66797,-0.97656 -1.12891,-1.30078 -0.46094,-0.30859 -1.02344,-0.46094 -1.6914,-0.46094 -0.66407,0 -1.23047,0.15235 -1.69141,0.46094 -0.46094,0.32422 -0.82031,0.75391 -1.11328,1.30078 -0.28906,0.54297 -0.49219,1.19532 -0.61328,1.92969 -0.11719,0.75391 -0.1875,1.55469 -0.1875,2.42578 0,0.875 0.0703,1.67578 0.1875,2.41406 0.12109,0.75 0.32422,1.39844 0.61328,1.94532"
     id="path896" />
  <path
     style="fill:#ffffff;fill-opacity:1;fill-rule:nonzero;stroke:none"
     d="m 127.46875,132.89453 h 1.77734 v -5.36719 c 0,-0.64843 0.13672,-1.14453 0.39453,-1.5039 0.25391,-0.35938 0.64454,-0.53125 1.14063,-0.53125 0.82031,0 1.23437,0.54687 1.23437,1.62109 v 5.78125 h 1.77344 v -5.36719 c 0,-0.64843 0.14063,-1.14453 0.39453,-1.5039 0.25391,-0.35938 0.64844,-0.53125 1.14453,-0.53125 0.82032,0 1.23047,0.54687 1.23047,1.62109 v 5.78125 h 1.77735 v -5.74609 c 0,-1.02344 -0.20313,-1.8086 -0.61328,-2.33985 -0.42969,-0.53125 -1.0625,-0.80468 -1.91407,-0.80468 -0.5664,0 -1.02734,0.13672 -1.38672,0.41015 -0.35937,0.29297 -0.63281,0.61719 -0.85546,0.97657 -0.0859,-0.17188 -0.1836,-0.34375 -0.30469,-0.51172 -0.1211,-0.15625 -0.27344,-0.3086 -0.44531,-0.44922 -0.17188,-0.11719 -0.375,-0.21875 -0.59766,-0.30469 -0.22266,-0.0859 -0.49609,-0.12109 -0.78516,-0.12109 -0.54687,0 -0.99218,0.13672 -1.35156,0.41015 -0.35937,0.29297 -0.64844,0.63282 -0.83594,1.0625 h -0.0352 c 0,-0.0547 0,-0.15625 0,-0.29297 -0.0195,-0.11718 -0.0195,-0.25781 -0.0195,-0.39453 -0.0156,-0.13281 -0.0156,-0.26953 -0.0156,-0.39062 -0.0156,-0.1211 -0.0156,-0.22266 -0.0156,-0.27344 h -1.76172 c 0.0156,0.23828 0.0352,0.49609 0.0508,0.76953 0.0195,0.27344 0.0195,0.5625 0.0195,0.88672 v 7.11328"
     id="path898" />
  <path
     style="fill:#007d45;fill-opacity:1;fill-rule:nonzero;stroke:none"
     d="m 102.25781,130.38281 c -0.2539,-0.80469 -0.39062,-1.96875 -0.39062,-3.45703 0,-1.48437 0.13672,-2.64844 0.39062,-3.46875 0.25782,-0.82031 0.73438,-1.23047 1.40235,-1.23047 0.68359,0 1.16015,0.41016 1.41797,1.21485 0.25781,0.82031 0.39453,1.98047 0.39453,3.48437 0,1.48828 -0.13672,2.65234 -0.39453,3.45703 -0.27344,0.82031 -0.75,1.22656 -1.41797,1.22656 -0.66797,0 -1.14453,-0.40625 -1.40235,-1.22656"
     id="path924" />
  <path
     style="fill:#007d45;fill-opacity:1;fill-rule:nonzero;stroke:none"
     d="m 111.51953,130.38281 c -0.2539,-0.80469 -0.39062,-1.96875 -0.39062,-3.45703 0,-1.48437 0.13672,-2.64844 0.39062,-3.46875 0.25781,-0.82031 0.73828,-1.23047 1.40235,-1.23047 0.68359,0 1.16406,0.41016 1.41796,1.21485 0.25782,0.82031 0.39454,1.98047 0.39454,3.48437 0,1.48828 -0.13672,2.65234 -0.39454,3.45703 -0.27343,0.82031 -0.75,1.22656 -1.41796,1.22656 -0.66407,0 -1.14454,-0.40625 -1.40235,-1.22656"
     id="path926" />
  <text
     xml:space="default"
     dominant-baseline="middle"
     text-anchor="middle"
     font-family="sans-serif"
     font-size="9.44724px"
     id="svg_20"
     y="25.137634"
     x="94.705505"
     fill="#ffffff"
     transform="scale(0.99896845,1.0010326)"
     style="font-size:13px;stroke-width:0.726711">param(text1)</text>
  <text
     xml:space="default"
     dominant-baseline="middle"
     text-anchor="middle"
     font-family="sans-serif"
     font-size="9.44724px"
     id="svg_20-0"
     y="43.623135"
     x="94.705505"
     fill="#ffffff"
     transform="scale(0.99896846,1.0010326)"
     style="font-size:13px;stroke-width:0.726711">param(text2)</text>
  <text
     xml:space="default"
     dominant-baseline="middle"
     text-anchor="middle"
     font-family="sans-serif"
     font-size="9.44724px"
     id="svg_20-0-0"
     y="86.058357"
     x="94.705505"
     fill="#ffffff"
     transform="scale(0.99896846,1.0010326)"
     style="font-size:13px;stroke-width:0.726711">param(text3)</text>
  <text
     xml:space="default"
     dominant-baseline="middle"
     text-anchor="middle"
     font-family="sans-serif"
     font-size="9.44724px"
     id="svg_20-0-7"
     y="104.39975"
     x="94.705505"
     fill="#ffffff"
     transform="scale(0.99896846,1.0010326)"
     style="font-size:13px;stroke-width:0.726711">param(text4)</text>
</svg>
