<?xml version="1.0" encoding="UTF-8" standalone="no"?>
<svg
   xmlns:dc="http://purl.org/dc/elements/1.1/"
   xmlns:cc="http://creativecommons.org/ns#"
   xmlns:rdf="http://www.w3.org/1999/02/22-rdf-syntax-ns#"
   xmlns:svg="http://www.w3.org/2000/svg"
   xmlns="http://www.w3.org/2000/svg"
   xmlns:sodipodi="http://sodipodi.sourceforge.net/DTD/sodipodi-0.dtd"
   xmlns:inkscape="http://www.inkscape.org/namespaces/inkscape"
   width="69pt"
   height="44pt"
   version="1.1"
   id="svg2063"
   sodipodi:docname="471-c.svg"
   inkscape:version="1.0.2 (e86c870879, 2021-01-15, custom)">
  <metadata
     id="metadata2069">
    <rdf:RDF>
      <cc:Work
         rdf:about="">
        <dc:format>image/svg+xml</dc:format>
        <dc:type
           rdf:resource="http://purl.org/dc/dcmitype/StillImage" />
        <dc:title></dc:title>
      </cc:Work>
    </rdf:RDF>
  </metadata>
  <defs
     id="defs2067" />
  <sodipodi:namedview
     pagecolor="#ffffff"
     bordercolor="#666666"
     borderopacity="1"
     objecttolerance="10"
     gridtolerance="10"
     guidetolerance="10"
     inkscape:pageopacity="0"
     inkscape:pageshadow="2"
     inkscape:window-width="1920"
     inkscape:window-height="1017"
     id="namedview2065"
     showgrid="false"
     units="pt"
     inkscape:zoom="6.6765227"
     inkscape:cx="72.531465"
     inkscape:cy="41.569052"
     inkscape:window-x="5752"
     inkscape:window-y="-8"
     inkscape:window-maximized="1"
     inkscape:current-layer="svg2063" />
  <!-- Created with Method Draw - http://github.com/duopixel/Method-Draw/ -->
  <g
     id="g3438"
     transform="matrix(1.4116742,0,0,1.4116742,-1.5509468,-2.4649378)">
    <g
       id="g2061"
       transform="translate(-0.59911426,0.59911426)">
      <title
         id="title2037">Layer 1</title>
      <g
         id="svg_121">
        <path
           fill="#ffffff"
           fill-rule="nonzero"
           id="svg_118"
           d="M 2.32531,42.11092 H 66.67566 V 1.89195 H 2.32531 Z m 0,0" />
        <path
           fill="none"
           stroke="#211e1e"
           stroke-width="0.2835"
           stroke-linejoin="round"
           stroke-miterlimit="4"
           id="svg_117"
           d="M 2.32531,42.11092 H 66.67566 V 1.89195 H 2.32531 v 40.21897" />
        <path
           fill="#211e1e"
           fill-rule="nonzero"
           id="svg_116"
           d="m 3.59635,37.57728 c 0,1.77724 1.44101,3.21825 3.22195,3.21825 h 55.3385 c 1.77724,0 3.21825,-1.44101 3.21825,-3.21825 V 6.36647 c 0,-1.77724 -1.44101,-3.21825 -3.21825,-3.21825 H 6.8183 c -1.78094,0 -3.22195,1.44101 -3.22195,3.21825 v 31.21081" />
        <path
           fill="#ffffff"
           fill-rule="nonzero"
           id="svg_115"
           d="m 6.80352,4.12367 c -1.24517,0 -2.25019,1.0087 -2.25019,2.25389 v 31.2108 c 0,1.24149 1.00501,2.2502 2.25019,2.2502 h 55.3422 c 1.24517,0 2.25389,-1.00871 2.25389,-2.2502 V 6.37756 c 0,-1.24518 -1.00871,-2.25389 -2.25389,-2.25389 H 6.80352" />
        <path
           fill="#211e1e"
           fill-rule="nonzero"
           id="svg_114"
           d="m 17.14923,18.90695 h 1.39668 V 15.2527 h 0.83874 c 0.9422,0 1.6627,-0.23278 2.15412,-0.70942 0.47665,-0.46555 0.7242,-1.13434 0.7242,-1.99894 0,-0.8646 -0.24755,-1.52229 -0.73898,-1.97677 -0.48772,-0.45078 -1.1602,-0.66878 -1.99894,-0.66878 h -2.37582 v 9.00816" />
        <path
           fill="#211e1e"
           fill-rule="nonzero"
           id="svg_113"
           d="m 23.73354,18.19753 c 0.24756,0.26973 0.54315,0.47665 0.89047,0.60597 0.33624,0.12932 0.69833,0.19213 1.0863,0.19213 0.38796,0 0.75006,-0.06282 1.09738,-0.19213 0.33254,-0.12932 0.63183,-0.33624 0.87569,-0.60597 0.24756,-0.27342 0.45447,-0.62074 0.59488,-1.04565 0.14041,-0.42861 0.218,-0.95698 0.218,-1.56295 0,-0.59487 -0.07759,-1.10846 -0.218,-1.53708 -0.14041,-0.42491 -0.34732,-0.78701 -0.59488,-1.05674 -0.24386,-0.26972 -0.54315,-0.47664 -0.87569,-0.60596 -0.34732,-0.12932 -0.70942,-0.19583 -1.09738,-0.19583 -0.38797,0 -0.75007,0.06651 -1.0863,0.19583 -0.34732,0.12932 -0.64291,0.33624 -0.89047,0.60596 -0.24386,0.26973 -0.45078,0.63183 -0.59118,1.05674 -0.1441,0.42861 -0.22169,0.9422 -0.22169,1.53708 0,0.60597 0.07759,1.13434 0.22169,1.56295 0.14041,0.42491 0.34732,0.77223 0.59118,1.04565" />
        <path
           fill="#211e1e"
           fill-rule="nonzero"
           id="svg_112"
           d="m 30.34741,18.90695 h 1.34125 V 9.22632 h -1.34125 v 9.68063" />
        <path
           fill="#211e1e"
           fill-rule="nonzero"
           id="svg_111"
           d="m 33.92778,18.90695 h 1.34124 v -6.62126 h -1.34124 v 6.62126" />
        <path
           fill="#211e1e"
           fill-rule="nonzero"
           id="svg_110"
           d="m 33.88713,10.95553 h 1.41884 V 9.52191 h -1.41884 v 1.43362" />
        <path
           fill="#211e1e"
           fill-rule="nonzero"
           id="svg_109"
           d="m 37.17929,18.90695 h 4.37845 v -1.07152 h -2.99656 l 2.91897,-4.37476 v -1.17498 h -4.20849 v 1.07153 h 2.85247 l -2.94483,4.36367 v 1.18606" />
        <path
           fill="#211e1e"
           fill-rule="nonzero"
           id="svg_108"
           d="m 43.5382,18.90695 h 1.34495 V 12.28569 H 43.5382 v 6.62126" />
        <path
           fill="#211e1e"
           fill-rule="nonzero"
           id="svg_107"
           d="m 43.50125,10.95553 h 1.41884 V 9.52191 h -1.41884 v 1.43362" />
        <path
           fill="#211e1e"
           fill-rule="nonzero"
           id="svg_106"
           d="m 50.63979,18.90695 h 1.21193 c -0.01478,-0.11824 -0.03695,-0.28451 -0.05173,-0.47664 -0.01478,-0.19583 -0.02586,-0.40274 -0.02586,-0.62074 v -3.16283 c 0,-0.4397 -0.04065,-0.7981 -0.12931,-1.0826 -0.08868,-0.28452 -0.23278,-0.51729 -0.39905,-0.70942 -0.1441,-0.16997 -0.37688,-0.32515 -0.68356,-0.46556 -0.31037,-0.12932 -0.71311,-0.19583 -1.21562,-0.19583 -0.42491,0 -0.7981,0.05173 -1.12325,0.15518 -0.32146,0.10345 -0.61705,0.22169 -0.8646,0.3621 l 0.10345,1.14912 c 0.16997,-0.16628 0.41383,-0.32146 0.73528,-0.46556 0.31038,-0.12932 0.64661,-0.19214 1.0198,-0.19214 0.48033,0 0.81287,0.12932 1.01979,0.38797 0.10346,0.12932 0.18105,0.26973 0.2217,0.42491 0.03695,0.16627 0.05173,0.34732 0.05173,0.55424 v 0.27342 h -0.48033 c -1.06783,0 -1.89549,0.17736 -2.44972,0.52837 -0.55423,0.35841 -0.83874,0.92742 -0.83874,1.70335 0,0.31038 0.05173,0.58011 0.15519,0.82766 0.09976,0.24387 0.24386,0.436 0.42491,0.60597 0.16627,0.16627 0.37318,0.28081 0.60596,0.35841 0.23278,0.09238 0.47665,0.12931 0.75007,0.12931 0.48772,0 0.87569,-0.09975 1.17128,-0.31037 0.28451,-0.19214 0.51729,-0.42491 0.68356,-0.68356 h 0.02956 c 0,0.04065 0,0.10346 0.01109,0.19583 0,0.08868 0,0.18105 0.01478,0.26973 0.01109,0.09238 0.01109,0.18105 0.02217,0.25865 0.01478,0.08868 0.01478,0.14041 0.02956,0.18104" />
        <path
           fill="#211e1e"
           fill-rule="nonzero"
           id="svg_105"
           d="m 42.62556,34.35533 h 1.17128 v -3.5471 c 0,-0.42861 0.09238,-0.75746 0.26233,-0.99394 0.16997,-0.23647 0.42861,-0.35101 0.75745,-0.35101 0.53946,0 0.81288,0.3621 0.81288,1.07522 v 3.81683 h 1.17498 v -3.5471 c 0,-0.42861 0.08868,-0.75746 0.25864,-0.99394 0.16997,-0.23647 0.42861,-0.35101 0.75376,-0.35101 0.54315,0 0.81657,0.3621 0.81657,1.07522 v 3.81683 h 1.17498 v -3.79466 c 0,-0.67986 -0.13671,-1.19715 -0.40644,-1.54816 -0.28451,-0.35102 -0.70203,-0.53207 -1.26735,-0.53207 -0.37318,0 -0.67617,0.09238 -0.91265,0.27342 -0.24016,0.19214 -0.41752,0.40644 -0.56531,0.64291 -0.05542,-0.11455 -0.12563,-0.22539 -0.20323,-0.33994 -0.07759,-0.09976 -0.18104,-0.20322 -0.29559,-0.29189 -0.11084,-0.08129 -0.24756,-0.1478 -0.39536,-0.20322 -0.1441,-0.05912 -0.32515,-0.0813 -0.51728,-0.0813 -0.3621,0 -0.654,0.09239 -0.89416,0.27343 -0.23647,0.19213 -0.42861,0.41752 -0.55424,0.69833 h -0.02217 c 0,-0.03326 0,-0.09976 0,-0.19214 -0.01109,-0.07759 -0.01109,-0.16996 -0.01109,-0.25864 -0.01109,-0.08868 -0.01109,-0.18105 -0.01109,-0.25865 -0.01109,-0.08129 -0.01109,-0.1478 -0.01109,-0.18105 h -1.1602 c 0.0074,0.15888 0.02217,0.32515 0.03326,0.5062 0.01109,0.18105 0.01109,0.37318 0.01109,0.58749 v 4.69991" />
        <path
           fill="#ffffff"
           fill-rule="nonzero"
           id="svg_104"
           d="m 18.54591,14.15901 v -3.16652 h 0.63183 c 0.55423,0 0.96806,0.12932 1.25256,0.37687 0.26973,0.25865 0.41383,0.67247 0.41383,1.22671 0,0.50251 -0.12931,0.87569 -0.38796,1.14911 -0.25865,0.26973 -0.68356,0.41383 -1.29322,0.41383 h -0.61704" />
        <path
           fill="#ffffff"
           fill-rule="nonzero"
           id="svg_103"
           d="m 24.62402,17.30707 c -0.11455,-0.2217 -0.19214,-0.46556 -0.22909,-0.76115 -0.05542,-0.29929 -0.07759,-0.60596 -0.07759,-0.95698 0,-0.34732 0.02217,-0.65769 0.07759,-0.95328 0.03695,-0.29929 0.11454,-0.54315 0.22909,-0.76115 0.11824,-0.20691 0.25865,-0.37688 0.43969,-0.49142 0.16627,-0.11824 0.38797,-0.18105 0.6466,-0.18105 0.25865,0 0.47665,0.06282 0.6577,0.18105 0.16627,0.11454 0.31037,0.28451 0.42491,0.49142 0.11824,0.218 0.19583,0.46186 0.24755,0.76115 0.03695,0.29559 0.06282,0.60596 0.06282,0.95328 0,0.35102 -0.02586,0.65769 -0.06282,0.95698 -0.05173,0.29559 -0.12931,0.53945 -0.24755,0.76115 -0.11455,0.218 -0.25865,0.38427 -0.42491,0.50251 -0.18105,0.11454 -0.39905,0.18104 -0.6577,0.18104 -0.25864,0 -0.48033,-0.06651 -0.6466,-0.18104 -0.18105,-0.11824 -0.32145,-0.28451 -0.43969,-0.50251" />
        <path
           fill="#ffffff"
           fill-rule="nonzero"
           id="svg_102"
           d="m 50.51048,15.66653 v 0.59488 c 0,0.52837 -0.11824,0.95328 -0.35102,1.27843 -0.24386,0.33254 -0.59118,0.50251 -1.06782,0.50251 -0.35102,0 -0.60967,-0.10345 -0.79071,-0.29928 -0.18105,-0.19214 -0.26973,-0.46187 -0.26973,-0.78332 0,-0.43969 0.16627,-0.76484 0.51729,-0.98284 0.34731,-0.218 0.84982,-0.32146 1.50752,-0.32146 0.07759,0 0.15518,0 0.24756,0 0.08868,0 0.16627,0 0.20691,0.01109" />
      </g>
      <metadata
         id="svg_39">image/svg+xml</metadata>
      <metadata
         id="svg_77">image/svg+xml</metadata>
      <text
         xml:space="preserve"
         text-anchor="start"
         font-family="sans-serif"
         font-size="10px"
         id="svg_80"
         y="35.258419"
         x="16"
         stroke-width="0"
         stroke="#000000"
         fill="#000000">param(text1)</text>
      <metadata
         id="svg_119">image/svg+xml</metadata>
    </g>
  </g>
</svg>
