<?xml version="1.0" encoding="UTF-8" standalone="no"?>
<svg
   xmlns:dc="http://purl.org/dc/elements/1.1/"
   xmlns:cc="http://creativecommons.org/ns#"
   xmlns:rdf="http://www.w3.org/1999/02/22-rdf-syntax-ns#"
   xmlns:svg="http://www.w3.org/2000/svg"
   xmlns="http://www.w3.org/2000/svg"
   xmlns:sodipodi="http://sodipodi.sourceforge.net/DTD/sodipodi-0.dtd"
   xmlns:inkscape="http://www.inkscape.org/namespaces/inkscape"
   width="69"
   height="44"
   version="1.1"
   id="svg2754"
   sodipodi:docname="471-a.svg"
   inkscape:version="1.0.2 (e86c870879, 2021-01-15, custom)">
  <metadata
     id="metadata2760">
    <rdf:RDF>
      <cc:Work
         rdf:about="">
        <dc:format>image/svg+xml</dc:format>
        <dc:type
           rdf:resource="http://purl.org/dc/dcmitype/StillImage" />
        <dc:title></dc:title>
      </cc:Work>
    </rdf:RDF>
  </metadata>
  <defs
     id="defs2758" />
  <sodipodi:namedview
     pagecolor="#ffffff"
     bordercolor="#666666"
     borderopacity="1"
     objecttolerance="10"
     gridtolerance="10"
     guidetolerance="10"
     inkscape:pageopacity="0"
     inkscape:pageshadow="2"
     inkscape:window-width="1920"
     inkscape:window-height="1017"
     id="namedview2756"
     showgrid="false"
     inkscape:zoom="9.442029"
     inkscape:cx="40.089214"
     inkscape:cy="20.703862"
     inkscape:window-x="5752"
     inkscape:window-y="-8"
     inkscape:window-maximized="1"
     inkscape:current-layer="svg2754" />
  <!-- Created with Method Draw - http://github.com/duopixel/Method-Draw/ -->
  <g
     id="g4129"
     transform="matrix(0.94704528,0,0,0.94704528,1.8534152,1.1120492)">
    <g
       id="g2728">
      <title
         id="title2722">background</title>
      <rect
         fill="#fff"
         id="canvas_background"
         height="46"
         width="71"
         y="-1"
         x="-1" />
      <g
         display="none"
         overflow="visible"
         y="0"
         x="0"
         height="100%"
         width="100%"
         id="canvasGrid">
        <rect
           fill="url(#gridpattern)"
           stroke-width="0"
           y="0"
           x="0"
           height="100%"
           width="100%"
           id="rect2725" />
      </g>
    </g>
    <g
       id="g2752">
      <title
         id="title2730">Layer 1</title>
      <metadata
         id="svg_39">image/svg+xml</metadata>
      <g
         id="svg_41">
        <path
           fill="#ffffff"
           fill-rule="nonzero"
           id="svg_38"
           d="m 0.75233,43.00977 h 67.7211 V 0.54371 H 0.75233 Z m 0,0" />
        <path
           fill="none"
           stroke="#211e1e"
           stroke-width="0.2835"
           stroke-linejoin="round"
           stroke-miterlimit="4"
           id="svg_37"
           d="m 0.75233,43.00977 h 67.7211 V 0.54371 H 0.75233 v 42.46606" />
        <path
           fill="#211e1e"
           fill-rule="nonzero"
           id="svg_36"
           d="m 2.08995,38.22283 c 0,1.87654 1.51649,3.39806 3.39072,3.39806 h 58.23719 c 1.87033,0 3.38683,-1.52152 3.38683,-3.39806 V 5.26822 c 0,-1.87654 -1.51649,-3.39806 -3.38683,-3.39806 H 5.48067 c -1.87423,0 -3.39072,1.52152 -3.39072,3.39806 v 32.95461" />
        <path
           fill="#ffffff"
           fill-rule="nonzero"
           id="svg_35"
           d="m 5.46512,2.90012 c -1.3104,0 -2.36805,1.06506 -2.36805,2.37981 v 32.9546 c 0,1.31085 1.05766,2.37592 2.36805,2.37592 H 63.7062 c 1.3104,0 2.37195,-1.06507 2.37195,-2.37592 V 5.27993 c 0,-1.31475 -1.06155,-2.37981 -2.37195,-2.37981 H 5.46512" />
        <path
           fill="#211e1e"
           fill-rule="nonzero"
           id="svg_34"
           d="m 16.50829,18.50937 h 1.46984 v -3.85842 h 0.88268 c 0.99155,0 1.7498,-0.24578 2.26696,-0.74906 0.50161,-0.49156 0.75825,-1.19771 0.75825,-2.11062 0,-0.91291 -0.25663,-1.60735 -0.77381,-2.08721 C 20.59894,9.2281 19.89124,8.99792 19.00856,8.99792 h -2.50027 v 9.51145" />
        <path
           fill="#211e1e"
           fill-rule="nonzero"
           id="svg_33"
           d="m 23.43749,17.76031 c 0.25663,0.2848 0.5716,0.50328 0.93712,0.63982 0.35385,0.13655 0.73491,0.20286 1.1432,0.20286 0.4044,0 0.78546,-0.06633 1.15098,-0.20286 0.35384,-0.13655 0.66881,-0.35502 0.92544,-0.63982 0.25664,-0.2887 0.4744,-0.65542 0.62604,-1.10407 0.14776,-0.45256 0.22942,-1.01045 0.22942,-1.65027 0,-0.62811 -0.08166,-1.1704 -0.22942,-1.62296 -0.15165,-0.44866 -0.3694,-0.83098 -0.62604,-1.11579 -0.25663,-0.28479 -0.5716,-0.50327 -0.92544,-0.63981 -0.36552,-0.13655 -0.74658,-0.20677 -1.15098,-0.20677 -0.40829,0 -0.78935,0.07022 -1.1432,0.20677 -0.36552,0.13655 -0.68048,0.35502 -0.93712,0.63981 -0.25663,0.2848 -0.47439,0.66713 -0.62603,1.11579 -0.14776,0.45256 -0.22942,0.99485 -0.22942,1.62296 0,0.63982 0.08166,1.19771 0.22942,1.65027 0.15165,0.44865 0.3694,0.81537 0.62603,1.10407" />
        <path
           fill="#211e1e"
           fill-rule="nonzero"
           id="svg_32"
           d="m 30.39391,18.50937 h 1.4154 V 8.28787 h -1.4154 v 10.2215" />
        <path
           fill="#211e1e"
           fill-rule="nonzero"
           id="svg_31"
           d="m 34.16571,18.50937 h 1.4115 v -6.9912 h -1.4115 v 6.9912" />
        <path
           fill="#211e1e"
           fill-rule="nonzero"
           id="svg_30"
           d="M 34.12294,10.11369 H 35.6161 V 8.59998 h -1.49316 v 1.51371" />
        <path
           fill="#211e1e"
           fill-rule="nonzero"
           id="svg_29"
           d="m 37.58754,18.50937 h 4.60391 V 17.37798 H 39.0418 l 3.06798,-4.61918 v -1.24063 h -4.42504 v 1.1314 h 3.00188 l -3.09909,4.60748 v 1.25232" />
        <path
           fill="#211e1e"
           fill-rule="nonzero"
           id="svg_28"
           d="m 45.23221,15.41561 h 3.97788 v -0.47596 c 0,-0.61252 -0.06999,-1.1314 -0.19054,-1.58395 -0.12054,-0.44866 -0.29941,-0.81538 -0.52883,-1.10408 -0.2333,-0.2848 -0.51716,-0.48767 -0.82824,-0.62421 -0.32663,-0.13655 -0.68047,-0.20677 -1.06155,-0.20677 -0.43551,0 -0.82824,0.08583 -1.16653,0.26139 -0.35385,0.17556 -0.65326,0.43695 -0.88268,0.74906 -0.23331,0.32771 -0.42384,0.71004 -0.54439,1.15869 -0.12054,0.44866 -0.19053,0.94023 -0.19053,1.47081 0,0.50328 0.06999,0.98313 0.19053,1.41619 0.12055,0.43695 0.29942,0.80368 0.55605,1.11968 0.24497,0.31211 0.55604,0.5579 0.93711,0.73346 0.38107,0.19116 0.82825,0.27309 1.32985,0.27309 0.43551,0 0.83213,-0.03901 1.17042,-0.13654 0.3383,-0.09363 0.61048,-0.19117 0.8438,-0.2848 l -0.06999,-1.18601 c -0.17498,0.12484 -0.40829,0.24578 -0.68047,0.37062 -0.28386,0.12095 -0.62215,0.18726 -1.03044,0.18726 -0.65326,0 -1.1121,-0.17556 -1.39984,-0.54229 -0.28386,-0.35501 -0.43161,-0.88559 -0.43161,-1.59564" />
        <path
           fill="#211e1e"
           fill-rule="nonzero"
           id="svg_27"
           d="m 51.26707,18.50937 h 1.41151 v -6.9912 h -1.41151 v 6.9912" />
        <path
           fill="#211e1e"
           fill-rule="nonzero"
           id="svg_26"
           d="m 51.22429,10.11369 h 1.49316 V 8.59998 h -1.49316 v 1.51371" />
        <path
           fill="#211e1e"
           fill-rule="nonzero"
           id="svg_25"
           d="m 43.16356,34.82087 h 1.23263 v -3.74528 c 0,-0.45256 0.09721,-0.79978 0.27608,-1.04947 0.17887,-0.24969 0.45106,-0.37062 0.79713,-0.37062 0.56772,0 0.85546,0.38233 0.85546,1.13529 v 4.03009 h 1.23653 V 31.0756 c 0,-0.45256 0.09332,-0.79978 0.27218,-1.04947 0.17887,-0.24969 0.45106,-0.37062 0.79325,-0.37062 0.5716,0 0.85934,0.38233 0.85934,1.13529 v 4.03009 h 1.23653 v -4.00667 c 0,-0.71785 -0.14387,-1.26404 -0.42773,-1.63466 -0.29941,-0.37063 -0.73881,-0.56179 -1.33373,-0.56179 -0.39273,0 -0.71159,0.09754 -0.96045,0.2887 -0.25274,0.20287 -0.43939,0.42915 -0.59493,0.67884 -0.05832,-0.12095 -0.13221,-0.23798 -0.21387,-0.35893 -0.08166,-0.10534 -0.19053,-0.21457 -0.31108,-0.3082 -0.11665,-0.08583 -0.26053,-0.15605 -0.41606,-0.21457 -0.15165,-0.06242 -0.34218,-0.08584 -0.54438,-0.08584 -0.38106,0 -0.68826,0.09755 -0.941,0.28871 -0.24886,0.20286 -0.45106,0.44084 -0.58327,0.73735 h -0.02333 c 0,-0.03512 0,-0.10534 0,-0.20287 -0.01167,-0.08193 -0.01167,-0.17945 -0.01167,-0.27309 -0.01167,-0.09363 -0.01167,-0.19117 -0.01167,-0.2731 -0.01167,-0.08583 -0.01167,-0.15605 -0.01167,-0.19117 h -1.22097 c 0.0078,0.16776 0.02333,0.34332 0.035,0.53449 0.01167,0.19117 0.01167,0.39403 0.01167,0.62031 v 4.9625" />
        <path
           fill="#ffffff"
           fill-rule="nonzero"
           id="svg_24"
           d="m 17.97813,13.49615 v -3.34344 h 0.66492 c 0.58326,0 1.01876,0.13655 1.31429,0.39793 0.28774,0.2731 0.43551,0.71005 0.43551,1.29525 0,0.53058 -0.1361,0.92462 -0.40829,1.21331 -0.27219,0.2848 -0.71937,0.43695 -1.35706,0.43695 h -0.64937" />
        <path
           fill="#ffffff"
           fill-rule="nonzero"
           id="svg_23"
           d="M 24.37461,16.82009 C 24.25406,16.586 24.17241,16.32852 24.12963,16.01641 24.07519,15.7004 24.04797,15.3766 24.04797,15.00596 c 0,-0.36673 0.02722,-0.69444 0.08166,-1.00654 0.04277,-0.31601 0.12443,-0.5735 0.24498,-0.80368 0.12054,-0.21847 0.27219,-0.39794 0.46272,-0.51888 0.17498,-0.12484 0.40829,-0.19117 0.68047,-0.19117 0.26831,0 0.50161,0.06633 0.69215,0.19117 0.17498,0.12094 0.32274,0.3004 0.44717,0.51888 0.12054,0.23018 0.20219,0.48767 0.25663,0.80368 0.04277,0.31211 0.06999,0.63981 0.06999,1.00654 0,0.37063 -0.02722,0.69444 -0.06999,1.01045 -0.05444,0.31211 -0.1361,0.56959 -0.25663,0.80368 -0.12443,0.23018 -0.27219,0.40574 -0.44717,0.53058 -0.19054,0.12094 -0.42384,0.19116 -0.69215,0.19116 -0.27218,0 -0.50549,-0.07022 -0.68047,-0.19116 -0.19054,-0.12484 -0.34218,-0.3004 -0.46272,-0.53058" />
        <path
           fill="#ffffff"
           fill-rule="nonzero"
           id="svg_22"
           d="m 45.23221,14.44808 c 0.01167,-0.63982 0.13221,-1.14309 0.36552,-1.49811 0.22942,-0.34332 0.55604,-0.51888 0.96433,-0.51888 0.8399,0 1.25986,0.66713 1.25986,2.01699 h -2.58971" />
      </g>
      <text
         xml:space="preserve"
         text-anchor="start"
         font-family="sans-serif"
         font-size="10px"
         id="svg_42"
         y="35.258419"
         x="16"
         stroke-width="0"
         stroke="#000000"
         fill="#000000">param(text1)</text>
    </g>
  </g>
</svg>
