<?xml version="1.0" encoding="UTF-8" standalone="no"?>
<!-- Created with Inkscape (http://www.inkscape.org/) -->

<svg
   width="70.000877mm"
   height="100mm"
   viewBox="0 0 70.000877 100"
   version="1.1"
   id="svg1222"
   xmlns="http://www.w3.org/2000/svg"
   xmlns:svg="http://www.w3.org/2000/svg">
  <defs
     id="defs1219" />
  <g
     id="layer1"
     transform="translate(-129.07197,-91.693953)">
    <g
       id="g2071"
       transform="matrix(3.6199739,0,0,3.6199739,-397.66037,-375.58144)">
      <path
         d="m 145.50787,129.08318 h 19.3361 v 27.62321 h -19.3361 z"
         style="fill:#231f20;fill-opacity:1;fill-rule:evenodd;stroke:none;stroke-width:0.352778"
         id="path846" />
      <path
         d="m 145.50787,129.08318 h 19.3361 v 27.62321 h -19.3361 z"
         style="fill:none;stroke:#231f20;stroke-width:0.00129822;stroke-linecap:square;stroke-linejoin:miter;stroke-miterlimit:2.6131;stroke-dasharray:none;stroke-opacity:1"
         id="path848" />
      <path
         d="m 145.92202,129.49734 h 18.50779 v 26.79488 h -18.50779 z"
         style="fill:#ffffff;fill-opacity:1;fill-rule:evenodd;stroke:none;stroke-width:0.352778"
         id="path850" />
      <path
         d="m 145.92202,129.49734 h 18.50779 v 26.79488 h -18.50779 z"
         style="fill:none;stroke:#231f20;stroke-width:0.00129822;stroke-linecap:square;stroke-linejoin:miter;stroke-miterlimit:2.6131;stroke-dasharray:none;stroke-opacity:1"
         id="path852" />
      <path
         d="m 157.80006,140.27047 -8.01052,8.01052 v 6.62976 h 2.76224 v -5.65362 l 5.24828,-5.24828 v 10.9019 h 2.76225 v -18.80976 -0.49707 l 1.90641,0.42228 c 0.0889,0.0201 0.16545,-0.0582 0.16545,-0.14005 0,-0.0243 -0.007,-0.049 -0.0229,-0.072 l -3.31682,-4.87715 c -0.0261,-0.0388 -0.0695,-0.0586 -0.11326,-0.0586 -0.0437,0 -0.0871,0.0198 -0.11358,0.0586 l -3.31682,4.87715 c -0.0159,0.0229 -0.0226,0.0473 -0.0226,0.072 0,0.0818 0.0762,0.16016 0.16511,0.14005 l 1.90675,-0.42228 v 0.49707 0 4.16948 0 0 z"
         style="fill:#231f20;fill-opacity:1;fill-rule:evenodd;stroke:none;stroke-width:0.352778"
         id="path854" />
    </g>
  </g>
</svg>
