<?xml version="1.0" encoding="UTF-8" standalone="no"?>
<!-- Created with Inkscape (http://www.inkscape.org/) -->

<svg
   width="100mm"
   height="99.998177mm"
   viewBox="0 0 100 99.998177"
   version="1.1"
   id="svg2837"
   xmlns="http://www.w3.org/2000/svg"
   xmlns:svg="http://www.w3.org/2000/svg">
  <defs
     id="defs2834" />
  <g
     id="layer1"
     transform="translate(-55.217441,-87.39702)">
    <g
       id="g1914"
       transform="matrix(5.1712316,0,0,5.1712316,-203.24588,-41.526391)">
      <path
         d="M 49.981648,44.267643 H 69.318103 V 24.93154 H 49.981648 Z"
         style="fill:#231f20;fill-opacity:1;fill-rule:evenodd;stroke:none;stroke-width:0.352778"
         id="path910" />
      <path
         d="M 49.981648,44.267643 H 69.318103 V 24.93154 H 49.981648 Z"
         style="fill:none;stroke:#231f20;stroke-width:0.00129822;stroke-linecap:square;stroke-linejoin:miter;stroke-miterlimit:2.6131;stroke-dasharray:none;stroke-opacity:1"
         id="path912" />
      <path
         d="M 50.271628,25.22188 H 69.027767 V 43.978005 H 50.271628 Z"
         style="fill:#ffffff;fill-opacity:1;fill-rule:evenodd;stroke:none;stroke-width:0.352778"
         id="path914" />
      <path
         d="M 50.271628,25.22188 H 69.027767 V 43.978005 H 50.271628 Z"
         style="fill:none;stroke:#231f20;stroke-width:0.00129822;stroke-linecap:square;stroke-linejoin:miter;stroke-miterlimit:2.6131;stroke-dasharray:none;stroke-opacity:1"
         id="path916" />
      <path
         d="m 64.290664,38.370264 -5.607399,-5.60741 v -3.266362 l -1.334559,0.295631 c -0.06244,0.01376 -0.115714,-0.04058 -0.115714,-0.09841 0,-0.01693 0.0049,-0.03425 0.01552,-0.0501 l 2.321627,-3.41418 c 0.0187,-0.02716 0.04939,-0.04093 0.07972,-0.04093 0.03034,0 0.06103,0.01376 0.07938,0.04093 l 2.32198,3.41418 c 0.01094,0.01584 0.01588,0.03316 0.01588,0.0501 0,0.05749 -0.05327,0.112179 -0.116064,0.09841 L 60.61683,29.496492 v 2.583035 l 3.673827,3.673842 v -6.256877 l -1.334202,0.295631 c -0.06279,0.01376 -0.116064,-0.04058 -0.116064,-0.09841 0,-0.01693 0.0049,-0.03425 0.01552,-0.0501 l 2.321634,-3.41418 c 0.0187,-0.02716 0.04939,-0.04093 0.08008,-0.04093 0.03034,0 0.06068,0.01376 0.07937,0.04093 l 2.321983,3.41418 c 0.01058,0.01584 0.01552,0.03316 0.01552,0.0501 0,0.05749 -0.05363,0.112179 -0.116071,0.09841 l -1.334202,-0.295631 v 13.514193 h -1.933578 v -4.640421 0 0 z"
         style="fill:#231f20;fill-opacity:1;fill-rule:evenodd;stroke:none;stroke-width:0.352778"
         id="path918" />
      <path
         d="M 55.009081,26.188498 H 53.075855 V 39.703393 L 51.7413,39.407762 c -0.06244,-0.01376 -0.116064,0.04095 -0.116064,0.09808 0,0.01729 0.0049,0.03457 0.01552,0.05045 l 2.321983,3.413831 c 0.0187,0.02716 0.04904,0.04056 0.07973,0.04056 0.03069,0 0.06103,-0.01337 0.07973,-0.04056 l 2.32163,-3.413831 c 0.01094,-0.01588 0.01587,-0.03316 0.01587,-0.05045 0,-0.05714 -0.05362,-0.111827 -0.116067,-0.09808 l -1.334558,0.295631 z"
         style="fill:#231f20;fill-opacity:1;fill-rule:evenodd;stroke:none;stroke-width:0.352778"
         id="path920" />
    </g>
  </g>
</svg>
