<?xml version="1.0" encoding="UTF-8" standalone="no"?>
<!-- Created with Inkscape (http://www.inkscape.org/) -->

<svg
   width="80.001915mm"
   height="100mm"
   viewBox="0 0 80.001915 100"
   version="1.1"
   id="svg1366"
   xmlns="http://www.w3.org/2000/svg"
   xmlns:svg="http://www.w3.org/2000/svg">
  <defs
     id="defs1363" />
  <g
     id="layer1"
     transform="translate(-128.54444,-151.97658)">
    <g
       id="g2159"
       transform="matrix(4.1371604,0,0,4.1371604,-493.32062,-582.50749)">
      <path
         d="m 150.3127,201.7039 h 19.3361 v -24.16987 h -19.3361 z"
         style="fill:#231f20;fill-opacity:1;fill-rule:evenodd;stroke:none;stroke-width:0.352778"
         id="path1116" />
      <path
         d="m 150.3127,201.7039 h 19.3361 v -24.16987 h -19.3361 z"
         style="fill:none;stroke:#231f20;stroke-width:0.00129822;stroke-linecap:square;stroke-linejoin:miter;stroke-miterlimit:2.6131;stroke-dasharray:none;stroke-opacity:1"
         id="path1118" />
      <path
         d="m 150.60269,177.82401 h 18.75577 v 23.5899 h -18.75577 z"
         style="fill:#ffffff;fill-opacity:1;fill-rule:evenodd;stroke:none;stroke-width:0.352778"
         id="path1120" />
      <path
         d="m 150.60269,177.82401 h 18.75577 v 23.5899 h -18.75577 z"
         style="fill:none;stroke:#231f20;stroke-width:0.00129822;stroke-linecap:square;stroke-linejoin:miter;stroke-miterlimit:2.6131;stroke-dasharray:none;stroke-opacity:1"
         id="path1122" />
      <path
         d="m 156.40376,182.8257 v 0 -0.14712 l -1.33491,0.29563 c -0.0617,0.0138 -0.11571,-0.0413 -0.11571,-0.0984 0,-0.0173 0.005,-0.0342 0.0159,-0.0501 l 2.32164,-3.41419 c 0.0183,-0.0272 0.0494,-0.0406 0.0797,-0.0406 0.0307,0 0.061,0.0134 0.0797,0.0406 l 2.32163,3.41419 c 0.0109,0.0159 0.0155,0.0328 0.0155,0.0501 0,0.0572 -0.0529,0.11219 -0.11571,0.0984 l -1.33456,-0.29563 v 0.14712 0 c 0,0 7.1e-4,0.502 0,1.61218 -7.1e-4,1.10985 -0.47414,2.06517 -1.41605,2.84974 0,0 -0.80187,0.66958 -1.36701,1.13984 -0.56444,0.47025 -0.84879,1.04421 -0.84949,1.70956 0,0 7e-4,1.75259 0,2.41828 -7.1e-4,0.6657 0.28539,1.23826 0.84949,1.70957 0,0 0.4265,0.35454 1.36701,1.14053 0.9412,0.78493 1.41675,1.73919 1.41605,2.84974 v 1.61184 h -1.93323 v -1.61184 c -7e-4,-0.6657 -0.28538,-1.23896 -0.84983,-1.71027 -0.5641,-0.47132 -1.36702,-1.13947 -1.36702,-1.13947 -0.94157,-0.78599 -1.41534,-1.74062 -1.41605,-2.8501 -3.5e-4,-1.10948 0,-2.41828 0,-2.41828 -3.5e-4,-1.1095 0.47519,-2.06481 1.41605,-2.8494 0.94086,-0.78457 1.36702,-1.14018 1.36702,-1.14018 0.56514,-0.47059 0.85054,-1.04316 0.84983,-1.70956 -7e-4,-0.66674 0,-1.61218 0,-1.61218 v 0 0 z"
         style="fill:#231f20;fill-opacity:1;fill-rule:evenodd;stroke:none;stroke-width:0.352778"
         id="path1124" />
      <path
         d="m 166.07163,182.8257 c 0,0 3.6e-4,0.3683 0,1.61218 -7e-4,1.2432 -0.53162,2.31247 -1.58573,3.19158 0,0 -0.9151,0.76377 -1.36702,1.13948 -0.4526,0.37642 -0.6791,0.83574 -0.68015,1.36808 0,0 0.001,1.88595 0,2.41828 -7.1e-4,0.5327 0.22755,0.99096 0.68015,1.36807 0,0 0.31363,0.26176 1.36702,1.13984 1.05339,0.87805 1.58609,1.94944 1.58573,3.19193 v 1.61184 h -1.93356 v -1.61184 c -7.1e-4,-0.79904 -0.34256,-1.48661 -1.01919,-2.05176 -0.67733,-0.56586 -1.36771,-1.14017 -1.36771,-1.14017 -0.82904,-0.6911 -1.24496,-1.53177 -1.24566,-2.50791 -7e-4,-0.97614 0,-2.41828 0,-2.41828 -7e-4,-0.9758 0.41698,-1.81716 1.24566,-2.50756 0.82902,-0.69039 1.36771,-1.14018 1.36771,-1.14018 0.67663,-0.56514 1.01954,-1.25305 1.01919,-2.0514 -7.1e-4,-0.79868 0,-1.61218 0,-1.61218 v -0.14712 l -1.33422,0.29563 c -0.0624,0.0138 -0.11571,-0.0413 -0.11571,-0.0984 0,-0.0173 0.005,-0.0342 0.0152,-0.0501 l 2.32198,-3.41419 c 0.0187,-0.0272 0.049,-0.0406 0.0797,-0.0406 0.0307,0 0.061,0.0134 0.0794,0.0406 l 2.32198,3.41419 c 0.0109,0.0159 0.0152,0.0328 0.0152,0.0501 0,0.0572 -0.0529,0.11219 -0.1157,0.0984 l -1.33421,-0.29563 v 0.14712 0 0 z"
         style="fill:#231f20;fill-opacity:1;fill-rule:evenodd;stroke:none;stroke-width:0.352778"
         id="path1126" />
    </g>
  </g>
</svg>
