<?xml version="1.0" encoding="UTF-8" standalone="no"?>
<!-- Created with Inkscape (http://www.inkscape.org/) -->

<svg
   width="100.00002mm"
   height="100mm"
   viewBox="0 0 100.00002 100"
   version="1.1"
   id="svg1223"
   xmlns="http://www.w3.org/2000/svg"
   xmlns:svg="http://www.w3.org/2000/svg">
  <defs
     id="defs1220" />
  <g
     id="layer1"
     transform="translate(-144.37037,-108.49826)">
    <g
       id="g2226"
       transform="matrix(5.1713265,0,0,5.1713265,-182.44981,-1078.3942)">
      <path
         d="m 63.199169,248.85087 h 19.336103 v -19.3361 H 63.199169 Z"
         style="fill:#231f20;fill-opacity:1;fill-rule:evenodd;stroke:none;stroke-width:0.352778"
         id="path1174" />
      <path
         d="m 63.199169,248.85087 h 19.336103 v -19.3361 H 63.199169 Z"
         style="fill:none;stroke:#231f20;stroke-width:0.00129822;stroke-linecap:square;stroke-linejoin:miter;stroke-miterlimit:2.6131;stroke-dasharray:none;stroke-opacity:1"
         id="path1176" />
      <path
         d="m 63.489153,229.80511 h 18.756135 v 18.75578 H 63.489153 Z"
         style="fill:#ffffff;fill-opacity:1;fill-rule:evenodd;stroke:none;stroke-width:0.352778"
         id="path1178" />
      <path
         d="m 63.489153,229.80511 h 18.756135 v 18.75578 H 63.489153 Z"
         style="fill:none;stroke:#231f20;stroke-width:0.00129822;stroke-linecap:square;stroke-linejoin:miter;stroke-miterlimit:2.6131;stroke-dasharray:none;stroke-opacity:1"
         id="path1180" />
      <path
         d="M 71.127148,230.77172 H 74.6073 v 6.76733 h -3.480152 z"
         style="fill:#ed1c24;fill-opacity:1;fill-rule:evenodd;stroke:none;stroke-width:0.352778"
         id="path1182" />
      <path
         d="m 79.441414,247.59393 h -1.933578 v -8.31427 l -3.673828,3.67383 v 4.64044 h -1.933575 v -4.64044 l -3.673828,-3.67383 v 8.31427 h -1.933571 v -10.24749 0 0 -3.26673 l -1.334558,0.29564 c -0.06244,0.0138 -0.115711,-0.0409 -0.115711,-0.0988 0,-0.0166 0.0046,-0.0342 0.01517,-0.0501 l 2.321983,-3.41418 c 0.0187,-0.0268 0.04939,-0.0406 0.07973,-0.0406 0.03034,0 0.06103,0.0138 0.07938,0.0406 l 2.321983,3.41418 c 0.01094,0.0159 0.01552,0.0335 0.01552,0.0501 0,0.0579 -0.05327,0.11255 -0.11606,0.0988 l -1.333857,-0.29564 v 2.46522 l 4.640439,4.64115 4.640792,-4.64115 v -2.46522 l -1.334558,0.29564 c -0.06244,0.0138 -0.115715,-0.0409 -0.115715,-0.0988 0,-0.0166 0.0049,-0.0342 0.01552,-0.0501 l 2.321983,-3.41418 c 0.01834,-0.0268 0.04903,-0.0406 0.07972,-0.0406 0.03034,0 0.06103,0.0138 0.07937,0.0406 l 2.32163,3.41418 c 0.01094,0.0159 0.01587,0.0335 0.01587,0.0501 0,0.0579 -0.05328,0.11255 -0.116067,0.0988 l -1.334202,-0.29564 v 3.26673 10.24749 0 0 z"
         style="fill:#231f20;fill-opacity:1;fill-rule:evenodd;stroke:none;stroke-width:0.352778"
         id="path1184" />
    </g>
  </g>
</svg>
