<?xml version="1.0" encoding="UTF-8" standalone="no"?>
<!-- Created with Inkscape (http://www.inkscape.org/) -->

<svg
   width="70.00103mm"
   height="100mm"
   viewBox="0 0 70.001031 99.999999"
   version="1.1"
   id="svg2623"
   xmlns="http://www.w3.org/2000/svg"
   xmlns:svg="http://www.w3.org/2000/svg">
  <defs
     id="defs2620" />
  <g
     id="layer1"
     transform="translate(-101.64034,-131.78633)">
    <g
       id="g1906"
       transform="matrix(3.619975,0,0,3.619975,19.824648,41.537124)">
      <path
         d="M 22.601825,24.93154 H 41.937962 V 52.554742 H 22.601825 Z"
         style="fill:#231f20;fill-opacity:1;fill-rule:evenodd;stroke:none;stroke-width:0.352778"
         id="path900" />
      <path
         d="M 22.601825,24.93154 H 41.937962 V 52.554742 H 22.601825 Z"
         style="fill:none;stroke:#231f20;stroke-width:0.00129822;stroke-linecap:square;stroke-linejoin:miter;stroke-miterlimit:2.6131;stroke-dasharray:none;stroke-opacity:1"
         id="path902" />
      <path
         d="M 23.016267,25.346047 H 41.523802 V 52.140235 H 23.016267 Z"
         style="fill:#ffffff;fill-opacity:1;fill-rule:evenodd;stroke:none;stroke-width:0.352778"
         id="path904" />
      <path
         d="M 23.016267,25.346047 H 41.523802 V 52.140235 H 23.016267 Z"
         style="fill:none;stroke:#231f20;stroke-width:0.00129822;stroke-linecap:square;stroke-linejoin:miter;stroke-miterlimit:2.6131;stroke-dasharray:none;stroke-opacity:1"
         id="path906" />
      <path
         d="M 34.894118,44.129707 26.883416,36.118825 V 31.45263 l -1.906199,0.422279 c -0.08922,0.01975 -0.165522,-0.05819 -0.165522,-0.139693 0,-0.02505 0.0069,-0.04973 0.0224,-0.07232 l 3.316921,-4.877491 c 0.02671,-0.03847 0.06996,-0.05823 0.113523,-0.05823 0.04374,0 0.08735,0.01976 0.113701,0.05823 l 3.317276,4.877491 c 0.01517,0.02258 0.02205,0.04729 0.02205,0.07195 0,0.0815 -0.07631,0.159825 -0.165558,0.140063 L 29.645667,31.45263 v 3.690419 l 5.248452,5.248282 V 31.45263 l -1.906341,0.422279 c -0.08925,0.01975 -0.165383,-0.05819 -0.165383,-0.139693 0,-0.02505 0.0069,-0.04973 0.0224,-0.07232 l 3.316782,-4.877491 c 0.02681,-0.03847 0.0702,-0.05823 0.113946,-0.05823 0.04339,0 0.08714,0.01976 0.113244,0.05823 l 3.31717,4.877491 c 0.01517,0.02258 0.02222,0.04729 0.02222,0.07195 0,0.0815 -0.0762,0.159825 -0.165455,0.140063 l -1.90605,-0.422279 v 19.30648 h -2.762531 v -6.629403 0 0 z"
         style="fill:#231f20;fill-opacity:1;fill-rule:evenodd;stroke:none;stroke-width:0.352778"
         id="path908" />
    </g>
  </g>
</svg>
