<?xml version="1.0" encoding="UTF-8" standalone="no"?>
<svg
   xmlns:dc="http://purl.org/dc/elements/1.1/"
   xmlns:cc="http://creativecommons.org/ns#"
   xmlns:rdf="http://www.w3.org/1999/02/22-rdf-syntax-ns#"
   xmlns:svg="http://www.w3.org/2000/svg"
   xmlns="http://www.w3.org/2000/svg"
   xmlns:sodipodi="http://sodipodi.sourceforge.net/DTD/sodipodi-0.dtd"
   xmlns:inkscape="http://www.inkscape.org/namespaces/inkscape"
   width="153"
   height="153"
   version="1.1"
   id="svg1118"
   sodipodi:docname="477-1.svg"
   inkscape:version="1.0.2 (e86c870879, 2021-01-15, custom)">
  <metadata
     id="metadata1124">
    <rdf:RDF>
      <cc:Work
         rdf:about="">
        <dc:format>image/svg+xml</dc:format>
        <dc:type
           rdf:resource="http://purl.org/dc/dcmitype/StillImage" />
        <dc:title></dc:title>
      </cc:Work>
    </rdf:RDF>
  </metadata>
  <defs
     id="defs1122" />
  <sodipodi:namedview
     pagecolor="#ffffff"
     bordercolor="#666666"
     borderopacity="1"
     objecttolerance="10"
     gridtolerance="10"
     guidetolerance="10"
     inkscape:pageopacity="0"
     inkscape:pageshadow="2"
     inkscape:window-width="1920"
     inkscape:window-height="1017"
     id="namedview1120"
     showgrid="false"
     inkscape:zoom="2.7777778"
     inkscape:cx="133.91508"
     inkscape:cy="76.720259"
     inkscape:window-x="3832"
     inkscape:window-y="-3"
     inkscape:window-maximized="1"
     inkscape:current-layer="svg1118" />
  <!-- Created with Method Draw - http://github.com/duopixel/Method-Draw/ -->
  <g
     id="g1705"
     transform="matrix(0.97909677,0,0,0.97909677,1.7790968,1.4190968)">
    <g
       id="g1101">
      <title
         id="title1095">background</title>
      <rect
         fill="#fff"
         id="canvas_background"
         height="155"
         width="155"
         y="-1"
         x="-1" />
      <g
         display="none"
         overflow="visible"
         y="0"
         x="0"
         height="100%"
         width="100%"
         id="canvasGrid">
        <rect
           fill="url(#gridpattern)"
           stroke-width="0"
           y="0"
           x="0"
           height="100%"
           width="100%"
           id="rect1098" />
      </g>
    </g>
    <g
       id="g1116">
      <title
         id="title1103">Layer 1</title>
      <metadata
         id="svg_21">image/svg+xml</metadata>
      <g
         id="svg_23">
        <path
           fill="#211e1e"
           fill-rule="nonzero"
           id="svg_20"
           d="m 1.59163,151.41358 h 150.6481 V 0.75293 H 1.59163 Z m 0,0" />
        <path
           fill="#ffffff"
           fill-rule="nonzero"
           id="svg_19"
           d="M 4.00594,148.99545 H 149.83706 V 3.1672 H 4.00594 Z m 0,0" />
        <path
           fill="#211e1e"
           fill-rule="nonzero"
           id="svg_18"
           d="M 51.51702,45.60856 34.27972,20.29177 c -0.16276,-0.24026 -0.43791,-0.39526 -0.74794,-0.39526 -0.30614,0 -0.58517,0.15501 -0.74793,0.3914 l -17.2373,25.31678 c -0.10077,0.14726 -0.15889,0.32164 -0.15889,0.51152 0,0.49991 0.40691,0.90293 0.90682,0.90293 0.06975,0 0.13564,-0.01163 0.20152,-0.02325 l 9.80837,-2.25537 -0.0039,87.98677 h 14.46259 v -87.9829 l 9.80836,2.2515 c 0.062,0.01551 0.12789,0.02325 0.19764,0.02325 0.49992,0 0.90683,-0.40302 0.90683,-0.90292 0,-0.18989 -0.05814,-0.36427 -0.15889,-0.50765" />
        <path
           fill="#211e1e"
           fill-rule="nonzero"
           id="svg_17"
           d="M 94.90479,45.60856 77.66749,20.29177 c -0.16276,-0.24026 -0.4379,-0.39526 -0.74793,-0.39526 -0.30615,0 -0.58518,0.15501 -0.74406,0.3914 L 58.93432,45.60469 c -0.10076,0.14726 -0.15888,0.32164 -0.15888,0.51152 0,0.49991 0.4069,0.90293 0.90682,0.90293 0.06975,0 0.13564,-0.01163 0.20151,-0.02325 l 9.8045,-2.25538 v 87.98678 h 14.46646 l -0.0039,-87.9829 9.80449,2.24762 c 0.062,0.01551 0.13176,0.02712 0.20151,0.02712 0.49992,0 0.90295,-0.40302 0.90295,-0.90292 0,-0.18989 -0.05813,-0.36427 -0.15501,-0.50765" />
        <path
           fill="#211e1e"
           fill-rule="nonzero"
           id="svg_16"
           d="m 113.07603,65.74418 c 2.28255,-0.72079 4.71236,-1.10444 7.23129,-1.10444 2.51895,0 4.94875,0.38365 7.2313,1.10444 v -20.9998 l 9.80449,2.24763 c 0.0659,0.01551 0.13176,0.02712 0.20151,0.02712 0.50379,0 0.90682,-0.40302 0.90682,-0.90293 0,-0.18989 -0.062,-0.36427 -0.15888,-0.50765 l -17.2373,-25.31678 c -0.16276,-0.24027 -0.43791,-0.39527 -0.74794,-0.39527 -0.31002,0 -0.58517,0.15114 -0.74406,0.3914 l -17.24117,25.31679 c -0.0969,0.14725 -0.15501,0.32163 -0.15501,0.51152 0,0.49991 0.40303,0.90293 0.90294,0.90293 0.0697,0 0.13564,-0.01163 0.20152,-0.02325 l 9.80449,-2.25538 v 21.00368" />
        <path
           fill="#211e1e"
           fill-rule="nonzero"
           id="svg_15"
           d="m 127.53863,111.73912 c -2.28256,0.72079 -4.71236,1.10444 -7.2313,1.10444 -2.51894,0 -4.94875,-0.38365 -7.23129,-1.10444 v 20.98817 h 14.46259 v -20.98817" />
        <path
           fill="#ee2b2e"
           fill-rule="nonzero"
           id="svg_14"
           d="m 120.30733,64.63975 c -13.30775,0 -24.10431,10.79248 -24.10431,24.09997 0,13.31137 10.79656,24.10384 24.10431,24.10384 13.31163,0 24.10432,-10.79247 24.10432,-24.10384 0,-13.30749 -10.79269,-24.09997 -24.10432,-24.09997" />
        <path
           fill="#ffffff"
           fill-rule="nonzero"
           id="svg_13"
           d="m 120.30733,72.67307 c -8.87442,0 -16.07084,7.19627 -16.07084,16.07051 0,8.87425 7.19642,16.07052 16.07084,16.07052 8.87055,0 16.06696,-7.19627 16.06696,-16.07052 0,-8.87424 -7.19641,-16.07051 -16.06696,-16.07051" />
      </g>
      <text
         xml:space="default"
         dominant-baseline="middle"
         text-anchor="middle"
         font-family="sans-serif"
         font-size="15px"
         id="svg_24"
         y="93.861038"
         x="112.12499"
         stroke-width="0"
         stroke="#000000"
         fill="#000000">param(text1)</text>
    </g>
  </g>
</svg>
