<?xml version="1.0" encoding="UTF-8" standalone="no"?>
<!-- Created with Inkscape (http://www.inkscape.org/) -->

<svg
   width="99.998138mm"
   height="100mm"
   viewBox="0 0 99.998138 100"
   version="1.1"
   id="svg1224"
   xmlns="http://www.w3.org/2000/svg"
   xmlns:svg="http://www.w3.org/2000/svg">
  <defs
     id="defs1221" />
  <g
     id="layer1"
     transform="translate(-136.45759,-165.47161)">
    <g
       id="g2008"
       transform="matrix(5.1713238,0,0,5.1713238,-58.686093,-502.69808)">
      <path
         d="m 37.736379,148.54346 h 19.33575 v -19.33611 h -19.33575 z"
         style="fill:#231f20;fill-opacity:1;fill-rule:evenodd;stroke:none;stroke-width:0.352778"
         id="path832" />
      <path
         d="m 37.736379,148.54346 h 19.33575 v -19.33611 h -19.33575 z"
         style="fill:none;stroke:#231f20;stroke-width:0.00129822;stroke-linecap:square;stroke-linejoin:miter;stroke-miterlimit:2.6131;stroke-dasharray:none;stroke-opacity:1"
         id="path834" />
      <path
         d="m 38.026361,129.49734 h 18.755784 v 18.75614 H 38.026361 Z"
         style="fill:#ffffff;fill-opacity:1;fill-rule:evenodd;stroke:none;stroke-width:0.352778"
         id="path836" />
      <path
         d="m 38.026361,129.49734 h 18.755784 v 18.75614 H 38.026361 Z"
         style="fill:none;stroke:#231f20;stroke-width:0.00129822;stroke-linecap:square;stroke-linejoin:miter;stroke-miterlimit:2.6131;stroke-dasharray:none;stroke-opacity:1"
         id="path838" />
      <path
         d="m 40.829888,135.1051 h 1.933574 v 7.9068 l 1.334559,-0.29562 c 0.06244,-0.0138 0.115711,0.0416 0.115711,0.0988 0,0.0166 -0.0049,0.0342 -0.01517,0.0501 l -2.321984,3.41419 c -0.0187,0.0268 -0.04939,0.0406 -0.07973,0.0406 -0.03034,0 -0.06068,-0.0138 -0.07937,-0.0406 l -2.321982,-3.41419 c -0.01094,-0.0159 -0.01587,-0.0332 -0.01587,-0.0501 0,-0.0572 0.05362,-0.11254 0.115711,-0.0988 l 1.33456,0.29562 z"
         style="fill:#231f20;fill-opacity:1;fill-rule:evenodd;stroke:none;stroke-width:0.352778"
         id="path840" />
      <path
         d="m 46.43729,142.64607 h 1.933924 v -7.90717 l 1.334213,0.29528 c 0.06244,0.0141 0.11606,-0.0406 0.11606,-0.0977 0,-0.0173 -0.0049,-0.0346 -0.01552,-0.0505 l -2.321983,-3.41419 c -0.0187,-0.0268 -0.04904,-0.0406 -0.07973,-0.0406 -0.03069,0 -0.06103,0.0138 -0.07937,0.0406 l -2.321983,3.41419 c -0.01058,0.0159 -0.01552,0.0332 -0.01552,0.0505 0,0.0571 0.05327,0.11183 0.116064,0.0977 l 1.333852,-0.29528 v 7.90717 0 0 z"
         style="fill:#231f20;fill-opacity:1;fill-rule:evenodd;stroke:none;stroke-width:0.352778"
         id="path842" />
      <path
         d="m 52.045045,142.64607 h 1.933572 v -7.90717 l 1.334558,0.29528 c 0.06245,0.0141 0.115711,-0.0406 0.115711,-0.0977 0,-0.0173 -0.0049,-0.0346 -0.01552,-0.0505 l -2.321987,-3.41419 c -0.01834,-0.0268 -0.04903,-0.0406 -0.07937,-0.0406 -0.03034,0 -0.06103,0.0138 -0.07937,0.0406 l -2.321987,3.41419 c -0.01094,0.0159 -0.01588,0.0332 -0.01588,0.0505 0,0.0571 0.05327,0.11183 0.115711,0.0977 l 1.334558,-0.29528 v 7.90717 0 0 z"
         style="fill:#231f20;fill-opacity:1;fill-rule:evenodd;stroke:none;stroke-width:0.352778"
         id="path844" />
    </g>
  </g>
</svg>
