<?xml version="1.0" encoding="UTF-8" standalone="no"?>
<!-- Created with Inkscape (http://www.inkscape.org/) -->

<svg
   width="85.71273mm"
   height="100mm"
   viewBox="0 0 85.71273 100"
   version="1.1"
   id="svg1225"
   xmlns="http://www.w3.org/2000/svg"
   xmlns:svg="http://www.w3.org/2000/svg">
  <defs
     id="defs1222" />
  <g
     id="layer1"
     transform="translate(-59.43787,-97.391044)">
    <g
       id="g2247"
       transform="matrix(4.432483,0,0,4.432483,-461.9833,-918.49723)">
      <path
         d="m 117.63701,251.75176 h 19.33611 v -22.55942 h -19.33611 z"
         style="fill:#231f20;fill-opacity:1;fill-rule:evenodd;stroke:none;stroke-width:0.352778"
         id="path1204" />
      <path
         d="m 117.63701,251.75176 h 19.33611 v -22.55942 h -19.33611 z"
         style="fill:none;stroke:#231f20;stroke-width:0.00129822;stroke-linecap:square;stroke-linejoin:miter;stroke-miterlimit:2.6131;stroke-dasharray:none;stroke-opacity:1"
         id="path1206" />
      <path
         d="m 117.82999,229.386 h 18.94945 v 22.17209 h -18.94945 z"
         style="fill:#ffffff;fill-opacity:1;fill-rule:evenodd;stroke:none;stroke-width:0.352778"
         id="path1208" />
      <path
         d="m 117.82999,229.386 h 18.94945 v 22.17209 h -18.94945 z"
         style="fill:none;stroke:#231f20;stroke-width:0.00129822;stroke-linecap:square;stroke-linejoin:miter;stroke-miterlimit:2.6131;stroke-dasharray:none;stroke-opacity:1"
         id="path1210" />
      <path
         d="m 126.5316,250.65604 h -0.38701 c 0,-0.6724 0.18028,-2.84339 1.02377,-4.06859 0.0314,-0.0455 0.0857,-0.0564 0.13617,-0.0564 0.0512,0 0.10549,0.0109 0.13722,0.0564 0.8495,1.23402 1.02307,3.40642 1.02307,4.06859 h -0.38629 c 0,-0.0737 -0.003,-0.16193 -0.009,-0.26247 l -0.26246,0.26247 h -0.22332 l 0.46991,-0.47061 c -0.0109,-0.12806 -0.0261,-0.26952 -0.0459,-0.41945 l -0.88969,0.89006 h -0.22331 l 1.08584,-1.08656 c -0.0187,-0.12876 -0.0406,-0.26247 -0.0653,-0.3997 l -1.38219,1.38219 c -7.1e-4,0.0374 -10e-4,0.0716 -10e-4,0.10407 z m 1.34762,-1.67429 c -0.0251,-0.12594 -0.0526,-0.25435 -0.0829,-0.38241 l -1.20686,1.20721 c -0.0219,0.18803 -0.0367,0.36089 -0.0462,0.51118 z m -0.12737,-0.56162 c -0.031,-0.12206 -0.0653,-0.24377 -0.10124,-0.36371 l -0.93591,0.93556 c -0.037,0.19156 -0.0674,0.37959 -0.0924,0.5581 z m -0.15556,-0.5334 c -0.0388,-0.11712 -0.0801,-0.23072 -0.12418,-0.34078 l -0.5327,0.53234 c -0.0639,0.20814 -0.11924,0.42051 -0.16651,0.63183 z m -0.19051,-0.49883 c -0.0321,-0.073 -0.066,-0.14464 -0.10125,-0.21272 -0.0935,0.17498 -0.17709,0.36583 -0.25153,0.56621 z"
         style="fill:#231f20;fill-opacity:1;fill-rule:evenodd;stroke:none;stroke-width:0.352778"
         id="path1212" />
      <path
         d="m 126.5316,230.15894 h -0.38701 c 0,0.67275 0.18028,2.84374 1.02377,4.06894 0.0314,0.0455 0.0857,0.0565 0.13617,0.0565 0.0512,0 0.10549,-0.0109 0.13722,-0.0565 0.8495,-1.23402 1.02307,-3.40677 1.02307,-4.06894 h -0.38629 c 0,0.0737 -0.003,0.16193 -0.009,0.26283 l -0.26246,-0.26283 h -0.22332 l 0.46991,0.47061 c -0.0109,0.12841 -0.0261,0.26952 -0.0459,0.41981 l -0.88969,-0.89042 h -0.22331 l 1.08584,1.08692 c -0.0187,0.12875 -0.0406,0.26246 -0.0653,0.39934 l -1.38219,-1.38218 c -7.1e-4,-0.0371 -10e-4,-0.0716 -10e-4,-0.10408 z m 1.34762,1.67394 c -0.0251,0.12664 -0.0526,0.2547 -0.0829,0.38311 l -1.20686,-1.2072 c -0.0219,-0.18839 -0.0367,-0.36125 -0.0462,-0.51153 z m -0.12737,0.56196 c -0.031,0.12278 -0.0653,0.24413 -0.10124,0.36407 L 126.7147,231.823 c -0.037,-0.19157 -0.0674,-0.37959 -0.0924,-0.5581 z m -0.15556,0.53341 c -0.0388,0.11712 -0.0801,0.23071 -0.12418,0.34114 l -0.5327,-0.5334 c -0.0639,-0.20673 -0.11924,-0.42016 -0.16651,-0.63112 z m -0.19051,0.49883 c -0.0321,0.073 -0.066,0.14393 -0.10125,0.21307 -0.0935,-0.17498 -0.17709,-0.36583 -0.25153,-0.56655 z"
         style="fill:#231f20;fill-opacity:1;fill-rule:evenodd;stroke:none;stroke-width:0.352778"
         id="path1214" />
      <path
         d="m 120.02178,233.40838 v -0.91475 l -0.8897,0.19685 c -0.042,0.009 -0.0769,-0.0268 -0.0769,-0.0653 0,-0.0116 0.002,-0.0229 0.0102,-0.0339 l 1.54764,-2.27577 c 0.0123,-0.018 0.0328,-0.0268 0.0529,-0.0268 0.0208,0 0.0406,0.009 0.0529,0.0268 l 1.54835,2.27577 c 0.007,0.0109 0.0102,0.0222 0.0102,0.0339 0,0.0384 -0.0356,0.0744 -0.0769,0.0653 l -0.88972,-0.19685 v 0.91475 c 0,2.08315 0.22684,3.87455 1.69934,5.34705 0,0 6.41315,6.41315 7.29157,7.29192 0.87876,0.87841 1.32185,1.94769 1.32185,3.19087 v 1.28906 h -1.2894 v -1.28906 c 0,-0.88829 -0.31608,-1.6517 -0.94404,-2.27929 -0.62759,-0.62725 -7.29156,-7.29192 -7.29156,-7.29192 -1.72402,-1.72332 -2.07681,-3.82128 -2.07681,-6.25863 v 0 0 z"
         style="fill:#231f20;fill-opacity:1;fill-rule:evenodd;stroke:none;stroke-width:0.352778"
         id="path1216" />
      <path
         d="m 123.88894,232.72576 v -0.23213 l -0.89006,0.19685 c -0.0413,0.009 -0.0769,-0.0268 -0.0769,-0.0653 0,-0.0116 0.003,-0.0229 0.0102,-0.0339 l 1.548,-2.27577 c 0.0127,-0.018 0.0325,-0.0268 0.0533,-0.0268 0.0201,0 0.0406,0.009 0.0529,0.0268 l 1.54764,2.27577 c 0.007,0.0109 0.0106,0.0222 0.0106,0.0339 0,0.0384 -0.0353,0.0744 -0.0769,0.0653 l -0.89007,-0.19685 v 0.23213 c 0,1.26505 0.45192,2.35444 1.34621,3.25014 0,0 5.83635,5.836 7.29262,7.29191 1.45592,1.45592 1.28729,3.9116 1.28729,5.97041 v 1.28906 h -1.2894 v -1.28906 c 0,-1.70427 0.29492,-3.85445 -0.90947,-5.05883 -1.20509,-1.20438 -7.29262,-7.29192 -7.29262,-7.29192 -1.14583,-1.14582 -1.72296,-2.54035 -1.72332,-4.16171 v 0 0 z"
         style="fill:#231f20;fill-opacity:1;fill-rule:evenodd;stroke:none;stroke-width:0.352778"
         id="path1218" />
    </g>
  </g>
</svg>
