<?xml version="1.0" encoding="UTF-8" standalone="no"?>
<!-- Created with Inkscape (http://www.inkscape.org/) -->

<svg
   width="100mm"
   height="99.998352mm"
   viewBox="0 0 100 99.998352"
   version="1.1"
   id="svg4001"
   xmlns="http://www.w3.org/2000/svg"
   xmlns:svg="http://www.w3.org/2000/svg">
  <defs
     id="defs3998" />
  <g
     id="layer1"
     transform="translate(-71.043576,-104.80572)">
    <g
       id="g1999"
       transform="matrix(5.1713353,0,0,5.1713353,-57.109419,-300.56859)">
      <path
         d="M 24.782062,97.725109 H 44.118129 V 78.38936 H 24.782062 Z"
         style="fill:#231f20;fill-opacity:1;fill-rule:evenodd;stroke:none;stroke-width:0.352778"
         id="path972" />
      <path
         d="M 24.782062,97.725109 H 44.118129 V 78.38936 H 24.782062 Z"
         style="fill:none;stroke:#231f20;stroke-width:0.00129822;stroke-linecap:square;stroke-linejoin:miter;stroke-miterlimit:2.6131;stroke-dasharray:none;stroke-opacity:1"
         id="path974" />
      <path
         d="M 25.071798,78.678997 H 43.82779 V 97.435123 H 25.071798 Z"
         style="fill:#ffffff;fill-opacity:1;fill-rule:evenodd;stroke:none;stroke-width:0.352778"
         id="path976" />
      <path
         d="M 25.071798,78.678997 H 43.82779 V 97.435123 H 25.071798 Z"
         style="fill:none;stroke:#231f20;stroke-width:0.00129822;stroke-linecap:square;stroke-linejoin:miter;stroke-miterlimit:2.6131;stroke-dasharray:none;stroke-opacity:1"
         id="path978" />
      <path
         d="M 28.938911,96.468526 H 27.005512 V 82.953609 l -1.334626,0.295963 c -0.06234,0.01341 -0.115748,-0.04091 -0.115748,-0.09804 0,-0.01729 0.0048,-0.03457 0.01584,-0.05045 l 2.322019,-3.414554 c 0.01792,-0.02678 0.0489,-0.04055 0.07924,-0.04055 0.0303,0 0.06131,0.01376 0.07924,0.04055 l 2.321979,3.414554 c 0.01104,0.01588 0.01584,0.03316 0.01584,0.05008 0,0.05751 -0.05338,0.111827 -0.115747,0.09841 L 28.93892,82.953609 v 13.514917 0 0 z"
         style="fill:#231f20;fill-opacity:1;fill-rule:evenodd;stroke:none;stroke-width:0.352778"
         id="path980" />
      <path
         d="M 34.546843,96.468526 H 32.612774 V 82.953609 l -1.333957,0.295963 c -0.06269,0.01341 -0.116099,-0.04091 -0.116099,-0.09804 0,-0.01729 0.0048,-0.03457 0.01552,-0.05045 l 2.321985,-3.414554 c 0.01859,-0.02678 0.04893,-0.04055 0.07923,-0.04055 0.03101,0 0.06131,0.01376 0.07994,0.04055 l 2.32191,3.414554 c 0.01059,0.01588 0.01517,0.03316 0.01517,0.05008 0,0.05751 -0.05291,0.111827 -0.115709,0.09841 l -1.333926,-0.295963 v 13.514917 0 0 z"
         style="fill:#231f20;fill-opacity:1;fill-rule:evenodd;stroke:none;stroke-width:0.352778"
         id="path982" />
      <path
         d="m 41.449715,96.468526 h -2.05775 l -1.171223,-6.643875 v -6.871042 l -1.334559,0.295963 c -0.0628,0.01341 -0.115712,-0.04091 -0.115712,-0.09804 0,-0.01729 0.0046,-0.03457 0.01517,-0.05045 l 2.322337,-3.414554 c 0.01799,-0.02678 0.04833,-0.04055 0.07937,-0.04055 0.03034,0 0.06067,0.01376 0.07937,0.04055 l 2.321985,3.414554 c 0.01094,0.01588 0.01588,0.03316 0.01588,0.05008 0,0.05751 -0.05398,0.111827 -0.115711,0.09841 l -1.334911,-0.295963 v 6.167251 l 1.29575,7.347666 v 0 0 z"
         style="fill:#231f20;fill-opacity:1;fill-rule:evenodd;stroke:none;stroke-width:0.352778"
         id="path984" />
    </g>
  </g>
</svg>
