<?xml version="1.0" encoding="UTF-8" standalone="no"?>
<!-- Created with Inkscape (http://www.inkscape.org/) -->

<svg
   width="80.003731mm"
   height="100mm"
   viewBox="0 0 80.003731 100"
   version="1.1"
   id="svg1223"
   xmlns="http://www.w3.org/2000/svg"
   xmlns:svg="http://www.w3.org/2000/svg">
  <defs
     id="defs1220" />
  <g
     id="layer1"
     transform="translate(-119.57606,-106.08121)">
    <g
       id="g2167"
       transform="matrix(4.1371022,0,0,4.1371022,-390.2055,-627.19141)">
      <path
         d="m 123.22254,201.41391 h 19.33681 V 177.2437 h -19.33681 z"
         style="fill:#231f20;fill-opacity:1;fill-rule:evenodd;stroke:none;stroke-width:0.352778"
         id="path868" />
      <path
         d="m 123.22254,201.41391 h 19.33681 V 177.2437 h -19.33681 z"
         style="fill:none;stroke:#231f20;stroke-width:0.00129822;stroke-linecap:square;stroke-linejoin:miter;stroke-miterlimit:2.6131;stroke-dasharray:none;stroke-opacity:1"
         id="path870" />
      <path
         d="m 123.51252,177.53368 h 18.75649 v 23.59024 h -18.75649 z"
         style="fill:#ffffff;fill-opacity:1;fill-rule:evenodd;stroke:none;stroke-width:0.352778"
         id="path872" />
      <path
         d="m 123.51252,177.53368 h 18.75649 v 23.59024 h -18.75649 z"
         style="fill:none;stroke:#231f20;stroke-width:0.00129822;stroke-linecap:square;stroke-linejoin:miter;stroke-miterlimit:2.6131;stroke-dasharray:none;stroke-opacity:1"
         id="path874" />
      <path
         d="m 129.21766,182.8331 c 0,0.59726 0,1.8154 0,2.46874 0,0.88759 -0.20321,1.64818 -0.6477,2.41689 0,0 0.12276,-0.21309 -1.20864,2.09338 -1.33103,2.30645 -1.94343,4.58787 -1.94274,7.25134 v 2.41688 h 1.93358 v -2.41688 c 0.001,-2.30716 0.52952,-4.28589 1.68416,-6.28438 1.15429,-1.99813 1.20826,-2.09338 1.20826,-2.09338 0.62195,-1.07598 0.90736,-2.14172 0.90664,-3.38385 0,-0.88336 0,-1.93498 0,-2.46874 v 0 -0.31997 c 0,-0.004 0,-0.007 0,-0.01 0,-0.0123 0,-0.0183 0,-0.0183 l 1.33456,0.29562 c 0.0628,0.0141 0.11571,-0.0406 0.11571,-0.0981 0,-0.0169 -0.005,-0.0346 -0.0155,-0.0504 l -2.32199,-3.41382 c -0.0183,-0.0272 -0.049,-0.0409 -0.0797,-0.0409 -0.0303,0 -0.0607,0.0138 -0.079,0.0409 l -2.32199,3.41382 c -0.0109,0.0159 -0.0159,0.0335 -0.0159,0.0504 0,0.0575 0.0533,0.11218 0.11571,0.0981 l 1.33457,-0.29562 v 0.34819 0 0 0 z"
         style="fill:#231f20;fill-opacity:1;fill-rule:evenodd;stroke:none;stroke-width:0.352778"
         id="path876" />
      <path
         d="m 136.95229,182.8331 c 0,0.37501 0,1.10985 0,2.46874 0,2.30822 -0.53092,4.28625 -1.68415,6.28439 0,0 -0.58702,1.0174 -1.20827,2.09302 -0.62123,1.07598 -0.90733,2.14172 -0.90698,3.3842 v 2.41688 h 1.93393 v -2.41688 c 7e-4,-0.88864 0.20284,-1.64783 0.64769,-2.41723 0.44451,-0.76941 1.20862,-2.09338 1.20862,-2.09338 1.33103,-2.30471 1.94275,-4.58859 1.94275,-7.251 -7e-4,-1.40935 -3.5e-4,-2.11595 -3.5e-4,-2.46874 h 3.5e-4 v -0.34678 c 0,-0.001 0,-0.001 0,-0.001 l 1.33456,0.29562 c 0.0621,0.0141 0.11571,-0.0406 0.11571,-0.0981 0,-0.0169 -0.005,-0.0346 -0.0155,-0.0504 l -2.32199,-3.41382 c -0.0187,-0.0272 -0.049,-0.0409 -0.0797,-0.0409 -0.0307,0 -0.061,0.0138 -0.0794,0.0409 l -2.32198,3.41382 c -0.0109,0.0159 -0.0155,0.0335 -0.0155,0.0504 -3.5e-4,0.0575 0.0533,0.11218 0.11605,0.0981 l 1.3342,-0.29562 v 0.34819 0 0 0 z"
         style="fill:#231f20;fill-opacity:1;fill-rule:evenodd;stroke:none;stroke-width:0.352778"
         id="path878" />
    </g>
  </g>
</svg>
