<?xml version="1.0" encoding="UTF-8" standalone="no"?>
<!-- Created with Inkscape (http://www.inkscape.org/) -->

<svg
   width="100mm"
   height="99.996338mm"
   viewBox="0 0 100 99.996338"
   version="1.1"
   id="svg4166"
   xmlns="http://www.w3.org/2000/svg"
   xmlns:svg="http://www.w3.org/2000/svg">
  <defs
     id="defs4163" />
  <g
     id="layer1"
     transform="translate(-124.85138,-130.12704)">
    <g
       id="g1990"
       transform="matrix(5.1711364,0,0,5.1711364,-143.37976,-273.73029)">
      <path
         d="M 51.871479,97.435123 H 71.20829 V 78.09902 H 51.871479 Z"
         style="fill:#231f20;fill-opacity:1;fill-rule:evenodd;stroke:none;stroke-width:0.352778"
         id="path986" />
      <path
         d="M 51.871479,97.435123 H 71.20829 V 78.09902 H 51.871479 Z"
         style="fill:none;stroke:#231f20;stroke-width:0.00129822;stroke-linecap:square;stroke-linejoin:miter;stroke-miterlimit:2.6131;stroke-dasharray:none;stroke-opacity:1"
         id="path988" />
      <path
         d="M 52.161459,78.38936 H 70.917944 V 97.145157 H 52.161459 Z"
         style="fill:#ffffff;fill-opacity:1;fill-rule:evenodd;stroke:none;stroke-width:0.352778"
         id="path990" />
      <path
         d="M 52.161459,78.38936 H 70.917944 V 97.145157 H 52.161459 Z"
         style="fill:none;stroke:#231f20;stroke-width:0.00129822;stroke-linecap:square;stroke-linejoin:miter;stroke-miterlimit:2.6131;stroke-dasharray:none;stroke-opacity:1"
         id="path992" />
      <path
         d="m 67.050801,96.178186 h 1.933222 V 82.663972 l 1.334558,0.295631 c 0.06279,0.01376 0.115715,-0.04093 0.115715,-0.09841 0,-0.01693 -0.0046,-0.03422 -0.01588,-0.05011 l -2.321626,-3.41455 c -0.01834,-0.02681 -0.04868,-0.04056 -0.07937,-0.04056 -0.03034,0 -0.06104,0.01376 -0.07973,0.04056 l -2.321634,3.414554 c -0.01094,0.01587 -0.01587,0.03316 -0.01587,0.05011 0,0.05748 0.05328,0.11218 0.115715,0.09841 l 1.334911,-0.295631 v 13.514214 0 0 z"
         style="fill:#231f20;fill-opacity:1;fill-rule:evenodd;stroke:none;stroke-width:0.352778"
         id="path994" />
      <path
         d="m 61.346384,96.178186 h 1.933924 V 82.663972 l 1.33385,0.295631 c 0.0628,0.01376 0.115714,-0.04093 0.115714,-0.09841 0,-0.01693 -0.0046,-0.03422 -0.01517,-0.05011 l -2.321987,-3.414554 c -0.01835,-0.02681 -0.04868,-0.04056 -0.07937,-0.04056 -0.03069,0 -0.06103,0.01376 -0.07972,0.04056 l -2.321994,3.414554 c -0.01058,0.01587 -0.01517,0.03316 -0.01517,0.05011 -7.06e-4,0.05748 0.05327,0.11218 0.115718,0.09841 l 1.334202,-0.295631 v 13.514214 0 0 z"
         style="fill:#231f20;fill-opacity:1;fill-rule:evenodd;stroke:none;stroke-width:0.352778"
         id="path996" />
      <path
         d="m 54.540243,96.178186 h 2.057403 l 1.171568,-6.643874 v -6.87034 l 1.334206,0.295631 c 0.06279,0.01376 0.115714,-0.04093 0.115714,-0.09841 0,-0.01693 -0.0046,-0.03422 -0.01517,-0.05011 L 56.88197,79.396529 c -0.01835,-0.02681 -0.04867,-0.04056 -0.07973,-0.04056 -0.03034,0 -0.06067,0.01376 -0.07937,0.04056 l -2.321983,3.414554 c -0.01058,0.01587 -0.01552,0.03316 -0.01552,0.05011 -3.53e-4,0.05748 0.05362,0.11218 0.116064,0.09841 l 1.334202,-0.295631 v 6.166548 l -1.295397,7.347666 v 0 0 z"
         style="fill:#231f20;fill-opacity:1;fill-rule:evenodd;stroke:none;stroke-width:0.352778"
         id="path998" />
    </g>
  </g>
</svg>
