<?xml version="1.0" encoding="UTF-8" standalone="no"?>
<!-- Created with Inkscape (http://www.inkscape.org/) -->

<svg
   width="80.000771mm"
   height="100mm"
   viewBox="0 0 80.000771 100"
   version="1.1"
   id="svg1377"
   xmlns="http://www.w3.org/2000/svg"
   xmlns:svg="http://www.w3.org/2000/svg">
  <defs
     id="defs1374" />
  <g
     id="layer1"
     transform="translate(-128.54444,-141.95331)">
    <g
       id="g2218"
       transform="matrix(4.1371005,0,0,4.1371005,-19.639803,-807.56967)">
      <path
         d="M 35.819031,253.68499 H 55.155134 V 229.51477 H 35.819031 Z"
         style="fill:#231f20;fill-opacity:1;fill-rule:evenodd;stroke:none;stroke-width:0.352778"
         id="path1140" />
      <path
         d="M 35.819031,253.68499 H 55.155134 V 229.51477 H 35.819031 Z"
         style="fill:none;stroke:#231f20;stroke-width:0.00129822;stroke-linecap:square;stroke-linejoin:miter;stroke-miterlimit:2.6131;stroke-dasharray:none;stroke-opacity:1"
         id="path1142" />
      <path
         d="m 36.109013,229.80511 h 18.756134 v 23.5899 H 36.109013 Z"
         style="fill:#ffffff;fill-opacity:1;fill-rule:evenodd;stroke:none;stroke-width:0.352778"
         id="path1144" />
      <path
         d="m 36.109013,229.80511 h 18.756134 v 23.5899 H 36.109013 Z"
         style="fill:none;stroke:#231f20;stroke-width:0.00129822;stroke-linecap:square;stroke-linejoin:miter;stroke-miterlimit:2.6131;stroke-dasharray:none;stroke-opacity:1"
         id="path1146" />
      <path
         d="m 37.269299,231.15836 h 3.480508 v 6.76804 h -3.480508 z"
         style="fill:#ed1c24;fill-opacity:1;fill-rule:evenodd;stroke:none;stroke-width:0.352778"
         id="path1148" />
      <path
         d="m 41.910093,231.15836 h 0.386643 v 4.2538 h -0.386643 z"
         style="fill:#231f20;fill-opacity:1;fill-rule:evenodd;stroke:none;stroke-width:0.352778"
         id="path1150" />
      <path
         d="m 41.910093,231.15836 h 0.386643 v 4.2538 h -0.386643 z"
         style="fill:none;stroke:#231f20;stroke-width:0.00129822;stroke-linecap:square;stroke-linejoin:miter;stroke-miterlimit:2.6131;stroke-dasharray:none;stroke-opacity:1"
         id="path1152" />
      <path
         d="m 41.910093,236.37947 h 0.386643 v 4.25345 h -0.386643 z"
         style="fill:#231f20;fill-opacity:1;fill-rule:evenodd;stroke:none;stroke-width:0.352778"
         id="path1154" />
      <path
         d="m 41.910093,236.37947 h 0.386643 v 4.25345 h -0.386643 z"
         style="fill:none;stroke:#231f20;stroke-width:0.00129822;stroke-linecap:square;stroke-linejoin:miter;stroke-miterlimit:2.6131;stroke-dasharray:none;stroke-opacity:1"
         id="path1156" />
      <path
         d="m 41.910093,241.60023 h 0.386643 v 4.25415 h -0.386643 z"
         style="fill:#231f20;fill-opacity:1;fill-rule:evenodd;stroke:none;stroke-width:0.352778"
         id="path1158" />
      <path
         d="m 41.910093,241.60023 h 0.386643 v 4.25415 h -0.386643 z"
         style="fill:none;stroke:#231f20;stroke-width:0.00129822;stroke-linecap:square;stroke-linejoin:miter;stroke-miterlimit:2.6131;stroke-dasharray:none;stroke-opacity:1"
         id="path1160" />
      <path
         d="m 41.910093,247.7876 h 0.386643 v 4.25415 h -0.386643 z"
         style="fill:#231f20;fill-opacity:1;fill-rule:evenodd;stroke:none;stroke-width:0.352778"
         id="path1162" />
      <path
         d="m 41.910093,247.7876 h 0.386643 v 4.25415 h -0.386643 z"
         style="fill:none;stroke:#231f20;stroke-width:0.00129822;stroke-linecap:square;stroke-linejoin:miter;stroke-miterlimit:2.6131;stroke-dasharray:none;stroke-opacity:1"
         id="path1164" />
      <path
         d="m 48.097459,231.15836 h 0.387004 v 20.88339 h -0.387004 z"
         style="fill:#231f20;fill-opacity:1;fill-rule:evenodd;stroke:none;stroke-width:0.352778"
         id="path1166" />
      <path
         d="m 48.097459,231.15836 h 0.387004 v 20.88339 h -0.387004 z"
         style="fill:none;stroke:#231f20;stroke-width:0.00129822;stroke-linecap:square;stroke-linejoin:miter;stroke-miterlimit:2.6131;stroke-dasharray:none;stroke-opacity:1"
         id="path1168" />
      <path
         d="m 44.230312,234.8142 v 0 -0.34819 l -1.334558,0.29562 c -0.06209,0.0138 -0.115711,-0.0406 -0.115711,-0.0977 0,-0.0173 0.0049,-0.0353 0.01587,-0.0505 l 2.321631,-3.41382 c 0.0187,-0.0275 0.04904,-0.0413 0.07973,-0.0413 0.03034,0 0.06103,0.0138 0.07938,0.0413 l 2.321983,3.41382 c 0.01094,0.0152 0.01552,0.0332 0.01552,0.0505 0,0.0571 -0.05327,0.11147 -0.115704,0.0977 l -1.334566,-0.29562 v 0.34819 0 c 0,0 7.06e-4,2.22744 0,3.62338 -3.49e-4,1.39594 -0.496707,2.59786 -1.484485,3.58352 0,0 -0.04975,0.0497 -1.367015,1.36772 -1.317979,1.31832 -1.982259,2.9217 -1.982612,4.78542 v 2.9009 H 39.3962 v -2.9009 c 0,-2.39571 0.854077,-4.45804 2.548821,-6.15314 1.694747,-1.69405 1.367366,-1.36702 1.367366,-1.36702 0.610304,-0.6103 0.917572,-1.3529 0.917929,-2.2165 3.53e-4,-0.86395 0,-3.62338 0,-3.62338 v 0 0 z"
         style="fill:#231f20;fill-opacity:1;fill-rule:evenodd;stroke:none;stroke-width:0.352778"
         id="path1170" />
      <path
         d="m 52.351606,234.8142 v 0 c 0,0 3.53e-4,0.52281 0,3.62338 -3.46e-4,3.10056 -1.105606,5.76791 -3.296708,7.95902 0,0 -1.253773,1.25412 -1.367364,1.36772 -0.113238,0.11359 -0.169686,0.25082 -0.169686,0.40992 v 2.9009 h -1.933927 v -2.9009 c -3.53e-4,-0.6925 0.247293,-1.28834 0.736243,-1.77764 0.48931,-0.4886 1.36737,-1.36702 1.36737,-1.36702 1.815748,-1.81574 2.730148,-4.02448 2.730493,-6.592 7.06e-4,-2.56716 0,-3.62338 0,-3.62338 v -0.34819 l -1.334554,0.29562 c -0.06208,0.0138 -0.115708,-0.0406 -0.115708,-0.0977 0,-0.0173 0.0049,-0.0353 0.01552,-0.0505 l 2.32198,-3.41382 c 0.0187,-0.0275 0.04904,-0.0413 0.07973,-0.0413 0.03069,0 0.06103,0.0138 0.07937,0.0413 l 2.32163,3.41382 c 0.01129,0.0152 0.01588,0.0332 0.01588,0.0505 0,0.0571 -0.05327,0.11147 -0.115714,0.0977 l -1.334559,-0.29562 v 0.34819 0 0 z"
         style="fill:#231f20;fill-opacity:1;fill-rule:evenodd;stroke:none;stroke-width:0.352778"
         id="path1172" />
    </g>
  </g>
</svg>
