<?xml version="1.0" encoding="UTF-8" standalone="no"?>
<!-- Created with Inkscape (http://www.inkscape.org/) -->

<svg
   width="100mm"
   height="100mm"
   viewBox="0 0 100 100"
   version="1.1"
   id="svg1635"
   sodipodi:docname="477_28-2.svg"
   inkscape:version="1.1.2 (b8e25be8, 2022-02-05)"
   xmlns:inkscape="http://www.inkscape.org/namespaces/inkscape"
   xmlns:sodipodi="http://sodipodi.sourceforge.net/DTD/sodipodi-0.dtd"
   xmlns="http://www.w3.org/2000/svg"
   xmlns:svg="http://www.w3.org/2000/svg">
  <sodipodi:namedview
     id="namedview844"
     pagecolor="#ffffff"
     bordercolor="#666666"
     borderopacity="1.0"
     inkscape:pageshadow="2"
     inkscape:pageopacity="0.0"
     inkscape:pagecheckerboard="0"
     inkscape:document-units="mm"
     showgrid="false"
     inkscape:zoom="1.052072"
     inkscape:cx="149.22934"
     inkscape:cy="289.42887"
     inkscape:window-width="1312"
     inkscape:window-height="969"
     inkscape:window-x="342"
     inkscape:window-y="25"
     inkscape:window-maximized="0"
     inkscape:current-layer="g9347" />
  <defs
     id="defs1632" />
  <g
     id="layer1"
     transform="translate(-115.35571,-118.52093)">
    <g
       id="g2277"
       transform="matrix(5.1710858,0,0,5.1710858,-638.61337,-1193.4532)">
      <g
         id="g9347">
        <path
           d="m 165.14244,273.05112 h -19.337 v -19.337 h 19.337 z"
           style="fill:#231f20;fill-opacity:1;fill-rule:evenodd;stroke:none;stroke-width:0.352778"
           id="path1334" />
        <path
           d="m 165.14244,273.05112 h -19.337 v -19.337 h 19.337 z"
           style="fill:none;stroke:#231f20;stroke-width:0.00129822;stroke-linecap:square;stroke-linejoin:miter;stroke-miterlimit:2.6131;stroke-dasharray:none;stroke-opacity:1"
           id="path1336" />
        <path
           d="m 164.83306,254.0235 h -18.71823 v 18.71823 h 18.71823 z"
           style="fill:#ffffff;fill-opacity:1;fill-rule:evenodd;stroke:none;stroke-width:0.352778"
           id="path1338" />
        <path
           d="m 164.83306,254.0235 h -18.71823 v 18.71823 h 18.71823 z"
           style="fill:none;stroke:#231f20;stroke-width:0.00129822;stroke-linecap:square;stroke-linejoin:miter;stroke-miterlimit:2.6131;stroke-dasharray:none;stroke-opacity:1"
           id="path1340" />
        <path
           d="m 158.18101,272.20021 h 0.46427 c 0,-0.80681 -0.21626,-3.4121 -1.22839,-4.88179 -0.0377,-0.055 -0.10301,-0.0684 -0.16404,-0.0684 -0.061,0 -0.12665,0.0134 -0.16369,0.0684 -1.0199,1.48063 -1.22875,4.08803 -1.22875,4.88179 h 0.46427 c 0,-0.0882 0.004,-0.19438 0.0109,-0.31503 l 0.31432,0.31503 h 0.26812 l -0.5641,-0.56445 c 0.0138,-0.15381 0.0321,-0.32315 0.0557,-0.50377 l 1.06716,1.06822 h 0.26847 l -1.30317,-1.30388 c 0.0226,-0.15416 0.0487,-0.31539 0.0783,-0.47943 l 1.65843,1.65842 c 0.001,0.0448 0.002,0.0861 0.002,0.12489 v 0 0 z m -1.6175,-2.00874 c 0.03,-0.15134 0.0631,-0.30515 0.0995,-0.45861 l 1.44851,1.44816 c 0.0261,0.22543 0.0441,0.43287 0.055,0.61384 z m 0.15276,-0.67381 c 0.0377,-0.14746 0.0787,-0.29281 0.12206,-0.43675 l 1.12291,1.12291 c 0.0441,0.22966 0.0811,0.45544 0.11113,0.66993 z m 0.18662,-0.63994 c 0.0469,-0.14076 0.0967,-0.27764 0.14888,-0.40993 l 0.63994,0.63994 c 0.0765,0.24871 0.14288,0.50448 0.19932,0.75777 z m 0.2286,-0.59903 c 0.0388,-0.0882 0.0794,-0.17357 0.12136,-0.25541 0.11254,0.20955 0.21308,0.43886 0.30198,0.67945 z"
           style="fill:#231f20;fill-opacity:1;fill-rule:evenodd;stroke:none;stroke-width:0.352778"
           id="path1342" />
        <path
           d="m 158.18101,272.20021 h 0.46427 c 0,-0.80681 -0.21626,-3.4121 -1.22839,-4.88179 -0.0377,-0.055 -0.10301,-0.0684 -0.16404,-0.0684 -0.061,0 -0.12665,0.0134 -0.16369,0.0684 -1.0199,1.48063 -1.22875,4.08803 -1.22875,4.88179 h 0.46427 c 0,-0.0882 0.004,-0.19438 0.0109,-0.31503 l 0.31432,0.31503 h 0.26812 l -0.5641,-0.56445 c 0.0138,-0.15381 0.0321,-0.32315 0.0557,-0.50377 l 1.06716,1.06822 h 0.26847 l -1.30317,-1.30388 c 0.0226,-0.15416 0.0487,-0.31539 0.0783,-0.47943 l 1.65843,1.65842 c 0.001,0.0448 0.002,0.0861 0.002,0.12489 v 0 z m -1.6175,-2.00874 c 0.03,-0.15134 0.0631,-0.30515 0.0995,-0.45861 l 1.44851,1.44816 c 0.0261,0.22543 0.0441,0.43287 0.055,0.61384 z m 0.15276,-0.67381 c 0.0377,-0.14746 0.0787,-0.29281 0.12206,-0.43675 l 1.12291,1.12291 c 0.0441,0.22966 0.0811,0.45544 0.11113,0.66993 z m 0.18662,-0.63994 c 0.0469,-0.14076 0.0967,-0.27764 0.14888,-0.40993 l 0.63994,0.63994 c 0.0765,0.24871 0.14288,0.50448 0.19932,0.75777 z m 0.2286,-0.59903 c 0.0388,-0.0882 0.0794,-0.17357 0.12136,-0.25541 0.11254,0.20955 0.21308,0.43886 0.30198,0.67945 z"
           style="fill:none;stroke:#231f20;stroke-width:0.00129822;stroke-linecap:square;stroke-linejoin:miter;stroke-miterlimit:2.6131;stroke-dasharray:none;stroke-opacity:1"
           id="path1344" />
        <path
           d="m 158.18101,254.56502 h 0.46427 c 0,0.80682 -0.21626,3.4114 -1.22839,4.8825 -0.0377,0.0547 -0.10301,0.0677 -0.16404,0.0677 -0.061,0 -0.12665,-0.013 -0.16369,-0.0677 -1.0199,-1.48133 -1.22875,-4.08874 -1.22875,-4.8825 h 0.46427 c 0,0.0882 0.004,0.19439 0.0109,0.31504 l 0.31432,-0.31504 h 0.26812 l -0.5641,0.56446 c 0.0138,0.1538 0.0321,0.32314 0.0557,0.50376 l 1.06716,-1.06822 h 0.26847 l -1.30317,1.30388 c 0.0226,0.15417 0.0487,0.3154 0.0783,0.47943 l 1.65843,-1.65842 c 0.001,-0.0448 0.002,-0.0861 0.002,-0.12489 v 0 0 z m -1.6175,2.00874 c 0.03,0.15135 0.0631,0.30516 0.0995,0.45897 l 1.44851,-1.44852 c 0.0261,-0.22543 0.0441,-0.43322 0.055,-0.61384 z m 0.15276,0.67381 c 0.0377,0.14746 0.0787,0.29281 0.12206,0.43675 l 1.12291,-1.1229 c 0.0441,-0.23037 0.0811,-0.45545 0.11113,-0.66994 z m 0.18662,0.63995 c 0.0469,0.14076 0.0967,0.27764 0.14888,0.40993 l 0.63994,-0.63994 c 0.0765,-0.24871 0.14288,-0.50448 0.19932,-0.75778 z m 0.2286,0.59902 c 0.0388,0.0882 0.0794,0.17357 0.12136,0.25542 0.11254,-0.20955 0.21308,-0.43886 0.30198,-0.67946 z"
           style="fill:#231f20;fill-opacity:1;fill-rule:evenodd;stroke:none;stroke-width:0.352778"
           id="path1346" />
        <path
           d="m 158.18101,254.56502 h 0.46427 c 0,0.80682 -0.21626,3.4114 -1.22839,4.8825 -0.0377,0.0547 -0.10301,0.0677 -0.16404,0.0677 -0.061,0 -0.12665,-0.013 -0.16369,-0.0677 -1.0199,-1.48133 -1.22875,-4.08874 -1.22875,-4.8825 h 0.46427 c 0,0.0882 0.004,0.19439 0.0109,0.31504 l 0.31432,-0.31504 h 0.26812 l -0.5641,0.56446 c 0.0138,0.1538 0.0321,0.32314 0.0557,0.50376 l 1.06716,-1.06822 h 0.26847 l -1.30317,1.30388 c 0.0226,0.15417 0.0487,0.3154 0.0783,0.47943 l 1.65843,-1.65842 c 0.001,-0.0448 0.002,-0.0861 0.002,-0.12489 v 0 z m -1.6175,2.00874 c 0.03,0.15135 0.0631,0.30516 0.0995,0.45897 l 1.44851,-1.44852 c 0.0261,-0.22543 0.0441,-0.43322 0.055,-0.61384 z m 0.15276,0.67381 c 0.0377,0.14746 0.0787,0.29281 0.12206,0.43675 l 1.12291,-1.1229 c 0.0441,-0.23037 0.0811,-0.45545 0.11113,-0.66994 z m 0.18662,0.63995 c 0.0469,0.14076 0.0967,0.27764 0.14888,0.40993 l 0.63994,-0.63994 c 0.0765,-0.24871 0.14288,-0.50448 0.19932,-0.75778 z m 0.2286,0.59902 c 0.0388,0.0882 0.0794,0.17357 0.12136,0.25542 0.11254,-0.20955 0.21308,-0.43886 0.30198,-0.67946 z"
           style="fill:none;stroke:#231f20;stroke-width:0.00129822;stroke-linecap:square;stroke-linejoin:miter;stroke-miterlimit:2.6131;stroke-dasharray:none;stroke-opacity:1"
           id="path1348" />
        <path
           d="m 149.20908,271.58143 h 1.5466 v -14.06045 l 1.06787,0.23637 c 0.0494,0.0109 0.0921,-0.0332 0.0921,-0.0783 0,-0.0141 -0.003,-0.0279 -0.0123,-0.0409 l -1.8574,-2.73123 c -0.0145,-0.0212 -0.0392,-0.0325 -0.0635,-0.0325 -0.024,0 -0.049,0.0113 -0.0639,0.0325 l -1.85704,2.73123 c -0.009,0.0131 -0.0127,0.0268 -0.0127,0.0409 0,0.0451 0.0423,0.0892 0.0924,0.0783 l 1.06787,-0.23637 z"
           style="fill:#231f20;fill-opacity:1;fill-rule:evenodd;stroke:none;stroke-width:0.352778"
           id="path1350" />
        <path
           d="m 160.06486,258.47949 c 0,0.63959 -0.22718,1.18922 -0.67945,1.64113 0,0 -4.85885,4.85921 -5.6124,5.6124 -0.75354,0.75284 -1.13278,1.66937 -1.13278,2.73477 v 3.09353 h 1.54731 v -3.09353 c 0,-0.63889 0.22753,-1.18958 0.67945,-1.64079 0.4519,-0.45192 5.61204,-5.61275 5.61204,-5.61275 0.7539,-0.75319 1.13314,-1.67007 1.13314,-2.73476 v -0.97826 l 1.06752,0.23636 c 0.0497,0.0109 0.0924,-0.0325 0.0924,-0.0787 0,-0.0138 -0.004,-0.0275 -0.0123,-0.0399 l -1.85775,-2.73158 c -0.0145,-0.0219 -0.0392,-0.0328 -0.0635,-0.0328 -0.0243,0 -0.0487,0.0109 -0.0639,0.0328 l -1.85739,2.73158 c -0.008,0.0123 -0.0123,0.0261 -0.0123,0.0399 -3.5e-4,0.0462 0.0423,0.0896 0.0928,0.0787 l 1.06716,-0.23636 v 0.97826 0 0 z"
           style="fill:#231f20;fill-opacity:1;fill-rule:evenodd;stroke:none;stroke-width:0.352778"
           id="path1352" />
        <path
           d="m 149.97487,258.9012 c 1.70876,0 3.09392,1.3852 3.09392,3.09397 0,1.70869 -1.38516,3.09392 -3.09392,3.09392 -1.70872,0 -3.09392,-1.38523 -3.09392,-3.09392 0,-1.70877 1.3852,-3.09397 3.09392,-3.09397 z"
           style="fill:#ef2c30;fill-opacity:1;fill-rule:nonzero;stroke:none;stroke-width:0.352778"
           id="path1354" />
        <path
           d="m 149.97487,259.93252 c 0.28019,0 0.54773,0.0539 0.80255,0.16167 0.24665,0.10431 0.46529,0.25183 0.65595,0.44244 0.19065,0.19066 0.33817,0.4093 0.44248,0.65595 0.10773,0.25482 0.16166,0.52236 0.16166,0.80259 0,0.28018 -0.0539,0.54772 -0.16166,0.80254 -0.10431,0.24664 -0.25183,0.46529 -0.44248,0.65594 -0.19066,0.19065 -0.4093,0.33811 -0.65595,0.44242 -0.25482,0.10779 -0.52236,0.16173 -0.80255,0.16173 -0.28022,0 -0.54772,-0.0539 -0.80254,-0.16173 -0.24665,-0.10431 -0.4653,-0.25177 -0.65595,-0.44242 -0.19065,-0.19065 -0.33814,-0.4093 -0.44245,-0.65594 -0.10779,-0.25482 -0.1617,-0.52236 -0.1617,-0.80254 0,-0.28023 0.0539,-0.54777 0.1617,-0.80259 0.10431,-0.24665 0.2518,-0.46529 0.44245,-0.65595 0.19065,-0.19061 0.4093,-0.33813 0.65595,-0.44244 0.25482,-0.10777 0.52232,-0.16167 0.80254,-0.16167 z"
           style="fill:#ffffff;fill-opacity:1;fill-rule:nonzero;stroke:none;stroke-width:0.352778"
           id="path1356" />
        <path
           d="m 148.04188,261.27324 c -0.0864,0.23052 -0.12968,0.47101 -0.12968,0.72196 0,0.2507 0.0432,0.49141 0.12968,0.72192 l 0.64387,-0.72431 z"
           style="fill:#231f20;fill-opacity:1;fill-rule:nonzero;stroke:none;stroke-width:0.352778"
           id="path1358" />
        <path
           d="m 151.90804,262.71712 c 0.0862,-0.23051 0.1294,-0.47122 0.1294,-0.72192 0,-0.25095 -0.0432,-0.49144 -0.1294,-0.72196 l -0.64415,0.71957 z"
           style="fill:#231f20;fill-opacity:1;fill-rule:nonzero;stroke:none;stroke-width:0.352778"
           id="path1360" />
        <text
           xml:space="default"
           dominant-baseline="middle"
           text-anchor="middle"
           font-family="sans-serif"
           font-size="0.751446px"
           id="svg_24"
           y="262.27084"
           x="149.44908"
           stroke-width="0"
           stroke="#000000"
           fill="#000000"
           style="font-size:1.37282px;font-family:sans-serif;dominant-baseline:middle;text-anchor:middle;fill:#000000;stroke:#000000;stroke-width:0"><tspan
             style="font-style:normal;font-variant:normal;font-weight:normal;font-stretch:normal;font-size:1.22798px;font-family:sans-serif;-inkscape-font-specification:'sans-serif, Normal';font-variant-ligatures:normal;font-variant-caps:normal;font-variant-numeric:normal;font-variant-east-asian:normal"
             id="tspan11417">param(text1)m</tspan></text>
      </g>
    </g>
  </g>
</svg>
