<?xml version="1.0" encoding="UTF-8" standalone="no"?>
<!-- Created with Inkscape (http://www.inkscape.org/) -->

<svg
   width="100mm"
   height="100.00005mm"
   viewBox="0 0 100 100.00005"
   version="1.1"
   id="svg3852"
   xmlns="http://www.w3.org/2000/svg"
   xmlns:svg="http://www.w3.org/2000/svg">
  <defs
     id="defs3849" />
  <g
     id="layer1"
     transform="translate(-94.254917,-89.507134)">
    <g
       id="g1947"
       transform="matrix(5.1713238,0,0,5.1713238,-722.4355,-41.562125)">
      <path
         d="m 157.92741,44.682167 h 19.33611 v -19.33612 h -19.33611 z"
         style="fill:#231f20;fill-opacity:1;fill-rule:evenodd;stroke:none;stroke-width:0.352778"
         id="path958" />
      <path
         d="m 157.92741,44.682167 h 19.33611 v -19.33612 h -19.33611 z"
         style="fill:none;stroke:#231f20;stroke-width:0.00129822;stroke-linecap:square;stroke-linejoin:miter;stroke-miterlimit:2.6131;stroke-dasharray:none;stroke-opacity:1"
         id="path960" />
      <path
         d="m 158.21739,25.636034 h 18.75579 V 44.39218 h -18.75579 z"
         style="fill:#ffffff;fill-opacity:1;fill-rule:evenodd;stroke:none;stroke-width:0.352778"
         id="path962" />
      <path
         d="m 158.21739,25.636034 h 18.75579 V 44.39218 h -18.75579 z"
         style="fill:none;stroke:#231f20;stroke-width:0.00129822;stroke-linecap:square;stroke-linejoin:miter;stroke-miterlimit:2.6131;stroke-dasharray:none;stroke-opacity:1"
         id="path964" />
      <path
         d="m 162.08419,43.425213 h -1.93322 V 29.910646 l -1.33386,0.295984 c -0.0628,0.0134 -0.11677,-0.04128 -0.11677,-0.09841 0,-0.01729 0.005,-0.03422 0.0159,-0.05011 l 2.32198,-3.41455 c 0.0187,-0.02681 0.049,-0.04056 0.0794,-0.04056 0.031,0 0.0614,0.01376 0.0801,0.04056 l 2.32198,3.41455 c 0.0102,0.01588 0.0152,0.03281 0.0152,0.04974 3.6e-4,0.05751 -0.0533,0.112197 -0.11606,0.09878 l -1.33455,-0.295984 z"
         style="fill:#231f20;fill-opacity:1;fill-rule:evenodd;stroke:none;stroke-width:0.352778"
         id="path966" />
      <path
         d="m 174.59546,43.425213 h -2.05811 l -1.17123,-6.643853 v -6.870714 l -1.3342,0.295984 c -0.0624,0.0134 -0.11642,-0.04128 -0.11642,-0.09841 0,-0.01729 0.005,-0.03422 0.0159,-0.05011 l 2.32199,-3.41455 c 0.0187,-0.02681 0.049,-0.04056 0.0794,-0.04056 0.0303,0 0.0614,0.01376 0.0801,0.04056 l 2.32163,3.41455 c 0.0106,0.01588 0.0155,0.03281 0.0155,0.04974 0,0.05751 -0.0533,0.112197 -0.11607,0.09878 l -1.33455,-0.295984 v 6.166901 z"
         style="fill:#231f20;fill-opacity:1;fill-rule:evenodd;stroke:none;stroke-width:0.352778"
         id="path968" />
      <path
         d="m 168.98769,43.425213 h -2.0574 l -1.17192,-6.643853 v -6.870714 l -1.33421,0.295984 c -0.0628,0.0134 -0.11571,-0.04128 -0.11571,-0.09841 0,-0.01729 0.005,-0.03422 0.0155,-0.05011 l 2.32164,-3.41455 c 0.0187,-0.02681 0.0497,-0.04056 0.0797,-0.04056 0.0303,0 0.0607,0.01376 0.0794,0.04056 l 2.32199,3.41455 c 0.0109,0.01588 0.0155,0.03281 0.0155,0.04974 3.4e-4,0.05751 -0.0533,0.112197 -0.11571,0.09878 l -1.33422,-0.295984 v 6.166901 l 1.29541,7.347666 v 0 0 z"
         style="fill:#231f20;fill-opacity:1;fill-rule:evenodd;stroke:none;stroke-width:0.352778"
         id="path970" />
    </g>
  </g>
</svg>
