<?xml version="1.0" encoding="UTF-8" standalone="no"?>
<!-- Created with Inkscape (http://www.inkscape.org/) -->

<svg
   width="100mm"
   height="100mm"
   viewBox="0 0 100 100"
   version="1.1"
   id="svg1382"
   xmlns="http://www.w3.org/2000/svg"
   xmlns:svg="http://www.w3.org/2000/svg">
  <defs
     id="defs1379" />
  <g
     id="layer1"
     transform="translate(-80.011239,-102.69506)">
    <g
       id="g2259"
       transform="matrix(5.1711393,0,0,5.1711393,-669.88572,-1082.4871)">
      <path
         d="m 145.01646,248.52914 h 19.3368 v -19.3368 h -19.3368 z"
         style="fill:#231f20;fill-opacity:1;fill-rule:evenodd;stroke:none;stroke-width:0.352778"
         id="path880" />
      <path
         d="m 145.01646,248.52914 h 19.3368 v -19.3368 h -19.3368 z"
         style="fill:none;stroke:#231f20;stroke-width:0.00129822;stroke-linecap:square;stroke-linejoin:miter;stroke-miterlimit:2.6131;stroke-dasharray:none;stroke-opacity:1"
         id="path882" />
      <path
         d="m 145.32583,229.50171 h 18.71804 v 18.71805 h -18.71804 z"
         style="fill:#ffffff;fill-opacity:1;fill-rule:evenodd;stroke:none;stroke-width:0.352778"
         id="path884" />
      <path
         d="m 145.32583,229.50171 h 18.71804 v 18.71805 h -18.71804 z"
         style="fill:none;stroke:#231f20;stroke-width:0.00129822;stroke-linecap:square;stroke-linejoin:miter;stroke-miterlimit:2.6131;stroke-dasharray:none;stroke-opacity:1"
         id="path886" />
      <path
         d="m 151.97782,247.67824 h -0.46426 c 0,-0.8068 0.21625,-3.41207 1.22837,-4.88174 0.0377,-0.055 0.10301,-0.0684 0.16404,-0.0684 0.061,0 0.12664,0.0134 0.16369,0.0684 1.01988,1.48061 1.22873,4.08799 1.22873,4.88174 h -0.46426 c 0,-0.0882 -0.004,-0.19438 -0.0109,-0.31503 l -0.31433,0.31503 h -0.2681 l 0.56409,-0.56444 c -0.0138,-0.15381 -0.0321,-0.32315 -0.0557,-0.50377 l -1.06715,1.06821 h -0.26847 l 1.30316,-1.30387 c -0.0226,-0.15416 -0.0487,-0.31538 -0.0783,-0.47942 l -1.65841,1.6584 c -0.001,0.0448 -0.002,0.0861 -0.002,0.12489 v 0 0 z m 1.61748,-2.00872 c -0.03,-0.15134 -0.0632,-0.30515 -0.0995,-0.45861 l -1.4485,1.44816 c -0.0261,0.22542 -0.0441,0.43285 -0.055,0.61383 z m -0.15275,-0.6738 c -0.0378,-0.14746 -0.0787,-0.29281 -0.12207,-0.43674 l -1.12289,1.12289 c -0.0441,0.22966 -0.0811,0.45544 -0.11113,0.66993 z m -0.18663,-0.63994 c -0.0469,-0.14076 -0.0967,-0.27763 -0.14887,-0.40992 l -0.63994,0.63993 c -0.0766,0.24871 -0.14287,0.50447 -0.19931,0.75776 z m -0.2286,-0.59902 c -0.0388,-0.0882 -0.0794,-0.17356 -0.12135,-0.25541 -0.11254,0.20955 -0.21308,0.43886 -0.30198,0.67945 z"
         style="fill:#231f20;fill-opacity:1;fill-rule:evenodd;stroke:none;stroke-width:0.352778"
         id="path888" />
      <path
         d="m 151.97782,247.67824 h -0.46426 c 0,-0.8068 0.21625,-3.41207 1.22837,-4.88174 0.0377,-0.055 0.10301,-0.0684 0.16404,-0.0684 0.061,0 0.12664,0.0134 0.16369,0.0684 1.01988,1.48061 1.22873,4.08799 1.22873,4.88174 h -0.46426 c 0,-0.0882 -0.004,-0.19438 -0.0109,-0.31503 l -0.31433,0.31503 h -0.2681 l 0.56409,-0.56444 c -0.0138,-0.15381 -0.0321,-0.32315 -0.0557,-0.50377 l -1.06715,1.06821 h -0.26847 l 1.30316,-1.30387 c -0.0226,-0.15416 -0.0487,-0.31538 -0.0783,-0.47942 l -1.65841,1.6584 c -0.001,0.0448 -0.002,0.0861 -0.002,0.12489 v 0 z m 1.61748,-2.00872 c -0.03,-0.15134 -0.0632,-0.30515 -0.0995,-0.45861 l -1.4485,1.44816 c -0.0261,0.22542 -0.0441,0.43285 -0.055,0.61383 z m -0.15275,-0.6738 c -0.0378,-0.14746 -0.0787,-0.29281 -0.12207,-0.43674 l -1.12289,1.12289 c -0.0441,0.22966 -0.0811,0.45544 -0.11113,0.66993 z m -0.18663,-0.63994 c -0.0469,-0.14076 -0.0967,-0.27763 -0.14887,-0.40992 l -0.63994,0.63993 c -0.0766,0.24871 -0.14287,0.50447 -0.19931,0.75776 z m -0.2286,-0.59902 c -0.0388,-0.0882 -0.0794,-0.17356 -0.12135,-0.25541 -0.11254,0.20955 -0.21308,0.43886 -0.30198,0.67945 z"
         style="fill:none;stroke:#231f20;stroke-width:0.00129822;stroke-linecap:square;stroke-linejoin:miter;stroke-miterlimit:2.6131;stroke-dasharray:none;stroke-opacity:1"
         id="path890" />
      <path
         d="m 151.97782,230.04323 h -0.46426 c 0,0.8068 0.21625,3.41136 1.22837,4.88245 0.0377,0.0547 0.10301,0.0677 0.16404,0.0677 0.061,0 0.12664,-0.0131 0.16369,-0.0677 1.01988,-1.48132 1.22873,-4.0887 1.22873,-4.88245 h -0.46426 c 0,0.0882 -0.004,0.19438 -0.0109,0.31503 l -0.31433,-0.31503 h -0.2681 l 0.56409,0.56445 c -0.0138,0.1538 -0.0321,0.32314 -0.0557,0.50376 l -1.06715,-1.06821 h -0.26847 l 1.30316,1.30386 c -0.0226,0.15417 -0.0487,0.3154 -0.0783,0.47943 l -1.65841,-1.65841 c -0.001,-0.0448 -0.002,-0.0861 -0.002,-0.12488 v 0 0 z m 1.61748,2.00872 c -0.03,0.15135 -0.0632,0.30515 -0.0995,0.45897 l -1.4485,-1.44851 c -0.0261,-0.22543 -0.0441,-0.43322 -0.055,-0.61384 z m -0.15275,0.67381 c -0.0378,0.14745 -0.0787,0.2928 -0.12207,0.43673 l -1.12289,-1.12288 c -0.0441,-0.23037 -0.0811,-0.45544 -0.11113,-0.66994 z m -0.18663,0.63994 c -0.0469,0.14075 -0.0967,0.27763 -0.14887,0.40992 l -0.63994,-0.63994 c -0.0766,-0.2487 -0.14287,-0.50447 -0.19931,-0.75776 z m -0.2286,0.59901 c -0.0388,0.0882 -0.0794,0.17357 -0.12135,0.25541 -0.11254,-0.20954 -0.21308,-0.43885 -0.30198,-0.67945 z"
         style="fill:#231f20;fill-opacity:1;fill-rule:evenodd;stroke:none;stroke-width:0.352778"
         id="path892" />
      <path
         d="m 151.97782,230.04323 h -0.46426 c 0,0.8068 0.21625,3.41136 1.22837,4.88245 0.0377,0.0547 0.10301,0.0677 0.16404,0.0677 0.061,0 0.12664,-0.0131 0.16369,-0.0677 1.01988,-1.48132 1.22873,-4.0887 1.22873,-4.88245 h -0.46426 c 0,0.0882 -0.004,0.19438 -0.0109,0.31503 l -0.31433,-0.31503 h -0.2681 l 0.56409,0.56445 c -0.0138,0.1538 -0.0321,0.32314 -0.0557,0.50376 l -1.06715,-1.06821 h -0.26847 l 1.30316,1.30386 c -0.0226,0.15417 -0.0487,0.3154 -0.0783,0.47943 l -1.65841,-1.65841 c -0.001,-0.0448 -0.002,-0.0861 -0.002,-0.12488 v 0 z m 1.61748,2.00872 c -0.03,0.15135 -0.0632,0.30515 -0.0995,0.45897 l -1.4485,-1.44851 c -0.0261,-0.22543 -0.0441,-0.43322 -0.055,-0.61384 z m -0.15275,0.67381 c -0.0378,0.14745 -0.0787,0.2928 -0.12207,0.43673 l -1.12289,-1.12288 c -0.0441,-0.23037 -0.0811,-0.45544 -0.11113,-0.66994 z m -0.18663,0.63994 c -0.0469,0.14075 -0.0967,0.27763 -0.14887,0.40992 l -0.63994,-0.63994 c -0.0766,-0.2487 -0.14287,-0.50447 -0.19931,-0.75776 z m -0.2286,0.59901 c -0.0388,0.0882 -0.0794,0.17357 -0.12135,0.25541 -0.11254,-0.20954 -0.21308,-0.43885 -0.30198,-0.67945 z"
         style="fill:none;stroke:#231f20;stroke-width:0.00129822;stroke-linecap:square;stroke-linejoin:miter;stroke-miterlimit:2.6131;stroke-dasharray:none;stroke-opacity:1"
         id="path894" />
      <path
         d="m 160.94965,247.05947 h -1.54658 v -14.06031 l -1.06785,0.23636 c -0.0494,0.0109 -0.0921,-0.0332 -0.0921,-0.0783 0,-0.0141 0.003,-0.0279 0.0123,-0.0409 l 1.85737,-2.7312 c 0.0145,-0.0212 0.0392,-0.0325 0.0635,-0.0325 0.024,0 0.049,0.0113 0.0639,0.0325 l 1.85703,2.7312 c 0.009,0.0131 0.0127,0.0268 0.0127,0.0409 0,0.0452 -0.0423,0.0893 -0.0924,0.0783 l -1.06786,-0.23636 v 14.06031 0 0 z"
         style="fill:#231f20;fill-opacity:1;fill-rule:evenodd;stroke:none;stroke-width:0.352778"
         id="path896" />
      <path
         d="m 150.09398,233.95765 c 0,0.63959 0.22718,1.18922 0.67945,1.64113 0,0 4.8588,4.85916 5.61234,5.61234 0.75353,0.75283 1.13277,1.66934 1.13277,2.73474 v 3.0935 h -1.54729 v -3.0935 c 0,-0.63889 -0.22754,-1.18957 -0.67944,-1.64078 -0.4519,-0.45191 -5.61199,-5.61269 -5.61199,-5.61269 -0.75389,-0.75318 -1.13313,-1.67006 -1.13313,-2.73474 v -0.97825 l -1.0675,0.23637 c -0.0497,0.0109 -0.0924,-0.0325 -0.0924,-0.0787 0,-0.0138 0.004,-0.0275 0.0123,-0.0399 l 1.85772,-2.73156 c 0.0145,-0.0219 0.0391,-0.0328 0.0635,-0.0328 0.0243,0 0.0487,0.0109 0.0638,0.0328 l 1.85738,2.73156 c 0.008,0.0123 0.0123,0.0261 0.0123,0.0399 3.6e-4,0.0462 -0.0423,0.0896 -0.0928,0.0787 l -1.06714,-0.23637 v 0.97825 0 0 z"
         style="fill:#231f20;fill-opacity:1;fill-rule:evenodd;stroke:none;stroke-width:0.352778"
         id="path898" />
    </g>
  </g>
</svg>
