<?xml version="1.0" encoding="UTF-8"?>
<svg xmlns="http://www.w3.org/2000/svg" xmlns:xlink="http://www.w3.org/1999/xlink" width="73pt" height="100pt" viewBox="0 0 73 100" version="1.1">
<g id="surface1">
<path style=" stroke:none;fill-rule:nonzero;fill:rgb(100%,100%,100%);fill-opacity:1;" d="M 1.085938 99.78125 L 71.953125 99.78125 L 71.953125 0.566406 L 1.085938 0.566406 Z M 1.085938 99.78125 "/>
<path style="fill:none;stroke-width:2.835;stroke-linecap:butt;stroke-linejoin:miter;stroke:rgb(13.729858%,12.159729%,12.548828%);stroke-opacity:1;stroke-miterlimit:4;" d="M 10.859375 2.1875 L 719.53125 2.1875 L 719.53125 994.335938 L 10.859375 994.335938 L 10.859375 2.1875 " transform="matrix(0.1,0,0,-0.1,0,100)"/>
<path style=" stroke:none;fill-rule:nonzero;fill:rgb(10.112%,40.585327%,73.280334%);fill-opacity:1;" d="M 2.503906 98.363281 L 70.53125 98.363281 L 70.53125 1.984375 L 2.503906 1.984375 Z M 2.503906 98.363281 "/>
<path style=" stroke:none;fill-rule:nonzero;fill:rgb(100%,100%,100%);fill-opacity:1;" d="M 11.71875 60.804688 L 61.320312 60.804688 L 61.320312 11.199219 L 11.71875 11.199219 Z M 11.71875 60.804688 "/>
<path style=" stroke:none;fill-rule:nonzero;fill:rgb(13.729858%,12.159729%,12.548828%);fill-opacity:1;" d="M 28.015625 19.878906 L 34.476562 16.160156 L 38.699219 16.160156 L 45.019531 19.738281 L 45.019531 21.28125 L 37.992188 21.28125 L 37.992188 23.796875 L 45.019531 23.796875 L 45.019531 25.179688 L 38.699219 28.847656 L 38.699219 36.621094 C 38.699219 36.699219 38.722656 36.859375 38.738281 36.949219 C 38.761719 37.085938 38.800781 37.261719 38.859375 37.390625 C 38.925781 37.515625 39.035156 37.628906 39.136719 37.71875 C 39.265625 37.828125 39.414062 37.929688 39.566406 37.980469 C 39.640625 38.003906 39.769531 38.03125 39.855469 38.039062 L 39.855469 55.84375 L 33.40625 55.84375 L 33.40625 38.039062 C 33.457031 38.03125 33.542969 38.03125 33.59375 38.015625 C 33.710938 37.988281 33.808594 37.945312 33.910156 37.878906 C 33.984375 37.828125 34.0625 37.753906 34.121094 37.675781 C 34.183594 37.617188 34.234375 37.527344 34.285156 37.449219 C 34.359375 37.300781 34.449219 37.125 34.460938 36.949219 C 34.476562 36.886719 34.476562 36.785156 34.476562 36.722656 L 34.476562 28.847656 L 28.015625 25.191406 L 28.015625 23.796875 L 35.128906 23.796875 L 35.128906 21.28125 L 28.015625 21.28125 L 28.015625 19.878906 "/>
</g>
</svg>
