<?xml version="1.0" encoding="UTF-8"?>
<svg xmlns="http://www.w3.org/2000/svg" xmlns:xlink="http://www.w3.org/1999/xlink" width="73pt" height="100pt" viewBox="0 0 73 100" version="1.1">
<g id="surface1">
<path style=" stroke:none;fill-rule:nonzero;fill:rgb(100%,100%,100%);fill-opacity:1;" d="M 1.085938 99.78125 L 71.953125 99.78125 L 71.953125 0.566406 L 1.085938 0.566406 Z M 1.085938 99.78125 "/>
<path style="fill:none;stroke-width:2.835;stroke-linecap:butt;stroke-linejoin:miter;stroke:rgb(13.729858%,12.159729%,12.548828%);stroke-opacity:1;stroke-miterlimit:4;" d="M 10.859375 2.1875 L 719.53125 2.1875 L 719.53125 994.335938 L 10.859375 994.335938 L 10.859375 2.1875 " transform="matrix(0.1,0,0,-0.1,0,100)"/>
<path style=" stroke:none;fill-rule:nonzero;fill:rgb(10.112%,40.585327%,73.280334%);fill-opacity:1;" d="M 2.503906 98.363281 L 70.53125 98.363281 L 70.53125 1.984375 L 2.503906 1.984375 Z M 2.503906 98.363281 "/>
<path style=" stroke:none;fill-rule:nonzero;fill:rgb(100%,100%,100%);fill-opacity:1;" d="M 11.71875 60.804688 L 61.320312 60.804688 L 61.320312 11.199219 L 11.71875 11.199219 Z M 11.71875 60.804688 "/>
<path style=" stroke:none;fill-rule:nonzero;fill:rgb(13.729858%,12.159729%,12.548828%);fill-opacity:1;" d="M 56.359375 43.054688 L 16.671875 43.054688 C 16.671875 43.105469 16.671875 43.15625 16.671875 43.15625 C 16.722656 43.609375 16.777344 44.0625 16.980469 44.464844 C 17.179688 44.96875 17.539062 45.421875 17.945312 45.773438 C 18.402344 46.175781 19.011719 46.480469 19.667969 46.582031 C 19.871094 46.628906 20.074219 46.628906 20.226562 46.628906 L 53.265625 46.628906 C 53.671875 46.582031 54.027344 46.429688 54.378906 46.277344 C 54.9375 45.925781 55.445312 45.523438 55.800781 44.96875 C 56.15625 44.464844 56.359375 43.863281 56.359375 43.257812 C 56.359375 43.207031 56.359375 43.105469 56.359375 43.054688 "/>
<path style=" stroke:none;fill-rule:nonzero;fill:rgb(13.729858%,12.159729%,12.548828%);fill-opacity:1;" d="M 21.546875 26.789062 C 21.546875 26.890625 21.546875 26.992188 21.546875 27.09375 C 21.546875 27.847656 21.648438 28.65625 21.75 29.460938 C 21.90625 30.617188 22.207031 31.828125 22.613281 32.9375 C 22.96875 33.945312 23.421875 34.847656 23.929688 35.753906 C 24.339844 36.460938 24.796875 37.164062 25.304688 37.820312 C 25.960938 38.628906 26.625 39.378906 27.382812 40.085938 C 27.992188 40.640625 28.601562 41.144531 29.261719 41.597656 C 29.3125 41.648438 29.363281 41.699219 29.414062 41.75 L 43.671875 41.75 C 43.824219 41.648438 44.03125 41.546875 44.132812 41.445312 C 44.640625 41.09375 45.246094 40.539062 45.652344 40.136719 C 46.007812 39.78125 46.515625 39.28125 46.871094 38.929688 C 47.328125 38.425781 47.785156 37.820312 48.140625 37.214844 C 48.191406 37.164062 48.242188 37.015625 48.292969 36.914062 L 54.433594 33.539062 C 54.535156 33.488281 54.6875 33.390625 54.785156 33.339844 C 55.09375 33.085938 55.394531 32.785156 55.652344 32.480469 C 55.953125 32.027344 56.109375 31.523438 56.210938 31.019531 C 56.261719 30.464844 56.261719 29.960938 56.109375 29.460938 C 55.953125 28.957031 55.703125 28.503906 55.34375 28.152344 C 55.09375 27.796875 54.785156 27.496094 54.378906 27.292969 C 53.976562 27.042969 53.46875 26.839844 52.960938 26.839844 C 52.859375 26.789062 52.707031 26.789062 52.554688 26.789062 L 21.546875 26.789062 "/>
<path style=" stroke:none;fill-rule:nonzero;fill:rgb(100%,100%,100%);fill-opacity:1;" d="M 51.183594 28.300781 C 51.183594 28.402344 51.183594 28.503906 51.183594 28.605469 C 51.183594 29.007812 51.082031 29.460938 51.03125 29.863281 C 50.980469 30.417969 50.832031 31.074219 50.726562 31.628906 C 50.574219 32.132812 50.371094 32.683594 50.167969 33.238281 L 49.714844 34.347656 C 49.714844 34.449219 49.660156 34.546875 49.660156 34.648438 L 53.570312 32.28125 L 53.925781 32.082031 C 54.179688 31.882812 54.378906 31.628906 54.484375 31.328125 C 54.636719 30.972656 54.6875 30.570312 54.636719 30.21875 C 54.636719 29.863281 54.484375 29.511719 54.28125 29.210938 C 54.078125 28.957031 53.824219 28.707031 53.519531 28.554688 C 53.265625 28.453125 53.011719 28.402344 52.707031 28.351562 C 52.707031 28.351562 52.503906 28.300781 52.453125 28.300781 L 51.183594 28.300781 "/>
</g>
</svg>
