<?xml version="1.0" encoding="UTF-8"?>
<svg xmlns="http://www.w3.org/2000/svg" xmlns:xlink="http://www.w3.org/1999/xlink" width="67pt" height="100pt" viewBox="0 0 67 100" version="1.1">
<g id="surface1">
<path style=" stroke:none;fill-rule:nonzero;fill:rgb(10.112%,40.585327%,73.280334%);fill-opacity:1;" d="M 0.777344 99.777344 L 66.257812 99.777344 L 66.257812 0.566406 L 0.777344 0.566406 Z M 0.777344 99.777344 "/>
<path style=" stroke:none;fill-rule:nonzero;fill:rgb(100%,100%,100%);fill-opacity:1;" d="M 23.378906 17.96875 L 35.902344 17.96875 C 35.902344 17.96875 36.136719 17.96875 36.257812 17.96875 C 36.371094 17.96875 36.605469 17.851562 36.726562 17.851562 C 36.960938 17.730469 37.074219 17.730469 37.308594 17.617188 C 37.429688 17.496094 37.542969 17.496094 37.542969 17.382812 L 35.433594 21.601562 L 23.378906 21.601562 L 23.378906 35.535156 C 23.496094 35.535156 23.730469 35.535156 23.84375 35.648438 C 24.546875 35.769531 25.253906 35.882812 25.953125 36.238281 C 27.125 36.707031 28.183594 37.410156 29 38.34375 C 30.28125 39.984375 31.101562 41.859375 31.101562 43.96875 C 31.101562 46.300781 30.164062 48.644531 28.53125 50.167969 C 26.65625 51.925781 24.199219 52.628906 21.734375 52.628906 C 19.277344 52.628906 16.816406 52.042969 14.941406 50.40625 C 13.078125 48.878906 12.023438 46.535156 11.90625 44.207031 C 11.789062 41.859375 12.722656 39.632812 14.25 37.992188 C 15.527344 36.707031 17.285156 35.769531 19.277344 35.535156 C 19.394531 35.535156 19.511719 35.535156 19.628906 35.535156 L 19.628906 21.601562 L 6.75 21.601562 L 6.75 17.496094 L 6.867188 17.617188 C 6.984375 17.730469 7.21875 17.851562 7.335938 17.851562 C 7.570312 17.96875 7.804688 17.96875 7.921875 17.96875 C 8.039062 17.96875 8.273438 17.96875 8.273438 17.96875 L 19.628906 17.96875 L 19.628906 8.253906 C 19.628906 8.136719 19.628906 8.019531 19.628906 7.902344 C 19.628906 7.667969 19.628906 7.550781 19.628906 7.316406 C 19.628906 7.082031 19.511719 6.847656 19.394531 6.730469 C 19.394531 6.613281 19.277344 6.613281 19.277344 6.496094 L 23.496094 6.496094 C 23.496094 6.613281 23.496094 6.613281 23.496094 6.730469 C 23.378906 6.847656 23.378906 6.964844 23.378906 7.082031 C 23.378906 7.316406 23.378906 7.550781 23.378906 7.785156 L 23.378906 17.96875 "/>
<path style=" stroke:none;fill-rule:nonzero;fill:rgb(10.112%,40.585327%,73.280334%);fill-opacity:1;" d="M 21.628906 38.96875 C 22.683594 39.085938 23.84375 39.203125 24.78125 39.671875 C 25.601562 40.023438 26.304688 40.726562 26.890625 41.429688 C 27.359375 42.238281 27.59375 43.175781 27.59375 44.113281 C 27.59375 44.933594 27.359375 45.871094 26.890625 46.574219 C 26.421875 47.394531 25.71875 48.097656 24.898438 48.566406 C 23.960938 49.035156 22.800781 49.152344 21.746094 49.152344 C 21.042969 49.152344 20.222656 49.035156 19.519531 48.917969 C 18.347656 48.566406 17.292969 47.980469 16.472656 47.042969 C 15.886719 46.222656 15.535156 45.167969 15.535156 43.996094 C 15.417969 43.175781 15.652344 42.238281 16.121094 41.535156 C 16.589844 40.609375 17.527344 39.90625 18.464844 39.554688 C 19.402344 39.085938 20.574219 38.96875 21.628906 38.96875 "/>
<path style=" stroke:none;fill-rule:nonzero;fill:rgb(100%,100%,100%);fill-opacity:1;" d="M 7.976562 72.730469 L 9.96875 72.730469 L 9.96875 72.453125 C 9.96875 72.097656 9.933594 71.792969 9.871094 71.53125 C 9.8125 71.269531 9.722656 71.050781 9.605469 70.886719 C 9.492188 70.71875 9.347656 70.597656 9.195312 70.519531 C 9.03125 70.441406 8.855469 70.402344 8.664062 70.402344 C 8.445312 70.402344 8.25 70.449219 8.082031 70.550781 C 7.902344 70.65625 7.753906 70.804688 7.640625 70.988281 C 7.523438 71.179688 7.425781 71.402344 7.367188 71.664062 C 7.304688 71.925781 7.269531 72.214844 7.269531 72.523438 C 7.269531 72.820312 7.304688 73.097656 7.367188 73.351562 C 7.425781 73.609375 7.515625 73.824219 7.644531 74.007812 C 7.769531 74.191406 7.925781 74.332031 8.113281 74.433594 C 8.304688 74.546875 8.527344 74.59375 8.777344 74.59375 C 8.996094 74.59375 9.195312 74.570312 9.363281 74.515625 C 9.53125 74.460938 9.667969 74.40625 9.785156 74.347656 L 9.75 73.65625 C 9.660156 73.726562 9.546875 73.800781 9.410156 73.871094 C 9.269531 73.945312 9.097656 73.980469 8.894531 73.980469 C 8.570312 73.980469 8.335938 73.878906 8.195312 73.664062 C 8.050781 73.457031 7.976562 73.148438 7.976562 72.730469 "/>
<path style=" stroke:none;fill-rule:nonzero;fill:rgb(100%,100%,100%);fill-opacity:1;" d="M 11.300781 74.539062 L 12.136719 74.539062 L 13.1875 70.457031 L 12.484375 70.457031 L 11.734375 73.734375 L 11.722656 73.734375 L 10.988281 70.457031 L 10.242188 70.457031 L 11.300781 74.539062 "/>
<path style=" stroke:none;fill-rule:nonzero;fill:rgb(100%,100%,100%);fill-opacity:1;" d="M 15.351562 74.539062 L 15.992188 74.539062 C 15.984375 74.46875 15.96875 74.363281 15.964844 74.246094 C 15.957031 74.125 15.949219 74 15.949219 73.863281 L 15.949219 71.910156 C 15.949219 71.644531 15.929688 71.417969 15.882812 71.242188 C 15.835938 71.070312 15.757812 70.925781 15.671875 70.804688 C 15.597656 70.703125 15.472656 70.605469 15.308594 70.519531 C 15.148438 70.441406 14.9375 70.402344 14.671875 70.402344 C 14.449219 70.402344 14.253906 70.433594 14.082031 70.496094 C 13.914062 70.558594 13.757812 70.632812 13.628906 70.71875 L 13.683594 71.425781 C 13.769531 71.324219 13.898438 71.226562 14.070312 71.140625 C 14.230469 71.058594 14.40625 71.019531 14.605469 71.019531 C 14.855469 71.019531 15.03125 71.101562 15.140625 71.261719 C 15.195312 71.339844 15.238281 71.425781 15.257812 71.523438 C 15.277344 71.625 15.285156 71.738281 15.285156 71.863281 L 15.285156 72.03125 L 15.03125 72.03125 C 14.46875 72.03125 14.035156 72.144531 13.742188 72.359375 C 13.449219 72.582031 13.300781 72.929688 13.300781 73.410156 C 13.300781 73.601562 13.328125 73.765625 13.382812 73.917969 C 13.4375 74.070312 13.515625 74.191406 13.605469 74.292969 C 13.695312 74.398438 13.804688 74.46875 13.925781 74.515625 C 14.046875 74.570312 14.179688 74.59375 14.320312 74.59375 C 14.578125 74.59375 14.78125 74.53125 14.9375 74.40625 C 15.089844 74.28125 15.210938 74.144531 15.296875 73.980469 L 15.308594 73.980469 C 15.308594 74.007812 15.308594 74.046875 15.316406 74.101562 C 15.316406 74.15625 15.316406 74.214844 15.324219 74.269531 C 15.332031 74.324219 15.332031 74.378906 15.339844 74.425781 C 15.34375 74.480469 15.34375 74.515625 15.351562 74.539062 "/>
<path style=" stroke:none;fill-rule:nonzero;fill:rgb(100%,100%,100%);fill-opacity:1;" d="M 16.617188 74.539062 L 17.324219 74.539062 L 17.324219 72.117188 C 17.324219 71.800781 17.378906 71.546875 17.492188 71.363281 C 17.601562 71.179688 17.765625 71.09375 17.988281 71.09375 C 18.171875 71.09375 18.300781 71.164062 18.390625 71.308594 C 18.46875 71.453125 18.511719 71.683594 18.511719 72 L 18.511719 74.539062 L 19.214844 74.539062 L 19.214844 71.808594 C 19.214844 71.378906 19.136719 71.039062 18.972656 70.78125 C 18.808594 70.53125 18.550781 70.402344 18.199219 70.402344 C 17.996094 70.402344 17.816406 70.457031 17.664062 70.574219 C 17.507812 70.695312 17.382812 70.859375 17.296875 71.074219 L 17.285156 71.074219 C 17.285156 71.050781 17.285156 71.003906 17.285156 70.949219 C 17.277344 70.894531 17.277344 70.832031 17.269531 70.765625 C 17.261719 70.703125 17.261719 70.640625 17.261719 70.585938 C 17.257812 70.53125 17.257812 70.480469 17.257812 70.457031 L 16.589844 70.457031 C 16.597656 70.574219 16.601562 70.703125 16.609375 70.832031 C 16.617188 70.964844 16.617188 71.101562 16.617188 71.238281 L 16.617188 74.539062 "/>
<path style=" stroke:none;fill-rule:nonzero;fill:rgb(100%,100%,100%);fill-opacity:1;" d="M 19.90625 75.277344 L 19.863281 76.050781 C 19.980469 76.105469 20.144531 76.160156 20.347656 76.21875 C 20.550781 76.273438 20.761719 76.304688 20.96875 76.304688 C 21.488281 76.304688 21.875 76.136719 22.132812 75.808594 C 22.390625 75.484375 22.519531 75.015625 22.519531 74.410156 L 22.519531 71.148438 C 22.519531 71.03125 22.523438 70.917969 22.53125 70.796875 C 22.539062 70.679688 22.539062 70.566406 22.546875 70.457031 L 21.894531 70.457031 C 21.894531 70.480469 21.894531 70.53125 21.894531 70.585938 C 21.886719 70.640625 21.886719 70.703125 21.878906 70.765625 C 21.875 70.832031 21.875 70.886719 21.875 70.941406 C 21.867188 70.996094 21.867188 71.046875 21.867188 71.070312 L 21.847656 71.070312 C 21.757812 70.886719 21.644531 70.726562 21.503906 70.59375 C 21.359375 70.464844 21.183594 70.402344 20.964844 70.402344 C 20.753906 70.402344 20.566406 70.449219 20.40625 70.550781 C 20.253906 70.65625 20.117188 70.789062 20.015625 70.972656 C 19.910156 71.15625 19.832031 71.378906 19.78125 71.636719 C 19.730469 71.898438 19.703125 72.183594 19.703125 72.503906 C 19.703125 72.882812 19.734375 73.203125 19.8125 73.464844 C 19.878906 73.726562 19.96875 73.945312 20.082031 74.101562 C 20.195312 74.269531 20.328125 74.378906 20.46875 74.453125 C 20.613281 74.523438 20.761719 74.558594 20.910156 74.558594 C 21.148438 74.558594 21.339844 74.5 21.480469 74.363281 C 21.621094 74.234375 21.738281 74.078125 21.828125 73.878906 L 21.839844 73.878906 L 21.839844 74.386719 C 21.839844 74.554688 21.828125 74.71875 21.800781 74.871094 C 21.765625 75.023438 21.71875 75.152344 21.652344 75.261719 C 21.574219 75.371094 21.480469 75.460938 21.359375 75.53125 C 21.238281 75.597656 21.082031 75.628906 20.898438 75.628906 C 20.707031 75.628906 20.523438 75.585938 20.339844 75.515625 C 20.15625 75.433594 20.015625 75.355469 19.90625 75.277344 "/>
<path style=" stroke:none;fill-rule:nonzero;fill:rgb(100%,100%,100%);fill-opacity:1;" d="M 23.222656 74.539062 L 23.957031 74.539062 L 23.957031 73.574219 L 23.222656 73.574219 L 23.222656 74.539062 "/>
<path style=" stroke:none;fill-rule:nonzero;fill:rgb(100%,100%,100%);fill-opacity:1;" d="M 27.46875 74.539062 L 28.171875 74.539062 L 28.171875 72.34375 C 28.171875 72.136719 28.191406 71.960938 28.234375 71.808594 C 28.273438 71.65625 28.328125 71.539062 28.398438 71.445312 C 28.464844 71.355469 28.546875 71.285156 28.632812 71.238281 C 28.722656 71.195312 28.808594 71.171875 28.910156 71.171875 C 28.953125 71.171875 28.992188 71.171875 29.027344 71.179688 C 29.0625 71.191406 29.101562 71.195312 29.136719 71.203125 L 29.136719 70.40625 C 29.121094 70.40625 29.105469 70.40625 29.101562 70.402344 C 29.09375 70.402344 29.082031 70.402344 29.066406 70.402344 C 28.9375 70.402344 28.824219 70.414062 28.722656 70.457031 C 28.621094 70.496094 28.539062 70.550781 28.464844 70.621094 C 28.390625 70.695312 28.320312 70.773438 28.265625 70.859375 C 28.214844 70.949219 28.164062 71.046875 28.132812 71.148438 L 28.117188 71.148438 C 28.117188 71.117188 28.117188 71.070312 28.117188 71.003906 C 28.109375 70.941406 28.109375 70.867188 28.105469 70.796875 C 28.097656 70.726562 28.097656 70.660156 28.097656 70.597656 C 28.089844 70.535156 28.089844 70.488281 28.089844 70.457031 L 27.4375 70.457031 C 27.445312 70.574219 27.453125 70.703125 27.460938 70.832031 C 27.46875 70.964844 27.46875 71.101562 27.46875 71.238281 L 27.46875 74.539062 "/>
<path style=" stroke:none;fill-rule:nonzero;fill:rgb(100%,100%,100%);fill-opacity:1;" d="M 29.890625 72.730469 L 31.882812 72.730469 L 31.882812 72.453125 C 31.882812 72.097656 31.847656 71.792969 31.785156 71.53125 C 31.726562 71.269531 31.636719 71.050781 31.523438 70.886719 C 31.40625 70.71875 31.261719 70.597656 31.105469 70.519531 C 30.945312 70.441406 30.769531 70.402344 30.578125 70.402344 C 30.359375 70.402344 30.164062 70.449219 29.992188 70.550781 C 29.816406 70.65625 29.667969 70.804688 29.554688 70.988281 C 29.4375 71.179688 29.34375 71.402344 29.28125 71.664062 C 29.21875 71.925781 29.183594 72.214844 29.183594 72.523438 C 29.183594 72.820312 29.21875 73.097656 29.28125 73.351562 C 29.34375 73.609375 29.429688 73.824219 29.558594 74.007812 C 29.683594 74.191406 29.839844 74.332031 30.027344 74.433594 C 30.21875 74.546875 30.441406 74.59375 30.691406 74.59375 C 30.910156 74.59375 31.105469 74.570312 31.277344 74.515625 C 31.445312 74.460938 31.582031 74.40625 31.699219 74.347656 L 31.664062 73.65625 C 31.574219 73.726562 31.460938 73.800781 31.324219 73.871094 C 31.179688 73.945312 31.011719 73.980469 30.808594 73.980469 C 30.484375 73.980469 30.25 73.878906 30.109375 73.664062 C 29.96875 73.457031 29.890625 73.148438 29.890625 72.730469 "/>
<path style=" stroke:none;fill-rule:nonzero;fill:rgb(100%,100%,100%);fill-opacity:1;" d="M 32.777344 74.539062 L 33.484375 74.539062 L 33.484375 71.09375 L 34.113281 71.09375 L 34.113281 70.457031 L 33.484375 70.457031 L 33.484375 69.675781 C 33.484375 69.492188 33.519531 69.355469 33.578125 69.261719 C 33.636719 69.164062 33.746094 69.117188 33.890625 69.117188 C 33.929688 69.117188 33.984375 69.128906 34.046875 69.144531 C 34.105469 69.15625 34.167969 69.175781 34.214844 69.199219 L 34.214844 68.558594 C 34.144531 68.539062 34.054688 68.511719 33.949219 68.496094 C 33.851562 68.480469 33.769531 68.472656 33.707031 68.472656 C 33.539062 68.472656 33.390625 68.503906 33.277344 68.558594 C 33.160156 68.617188 33.0625 68.699219 32.992188 68.800781 C 32.914062 68.902344 32.863281 69.015625 32.828125 69.152344 C 32.792969 69.285156 32.777344 69.4375 32.777344 69.589844 L 32.777344 70.457031 L 32.210938 70.457031 L 32.210938 71.09375 L 32.777344 71.09375 L 32.777344 74.539062 "/>
<path style=" stroke:none;fill-rule:nonzero;fill:rgb(100%,100%,100%);fill-opacity:1;" d="M 34.699219 74.539062 L 35.433594 74.539062 L 35.433594 73.574219 L 34.699219 73.574219 L 34.699219 74.539062 "/>
<path style=" stroke:none;fill-rule:nonzero;fill:rgb(100%,100%,100%);fill-opacity:1;" d="M 44.785156 74.425781 C 44.878906 74.46875 44.992188 74.507812 45.136719 74.546875 C 45.277344 74.585938 45.433594 74.601562 45.617188 74.601562 C 45.953125 74.601562 46.226562 74.53125 46.460938 74.378906 C 46.683594 74.226562 46.871094 74.023438 47.015625 73.753906 C 47.15625 73.480469 47.261719 73.15625 47.324219 72.773438 C 47.382812 72.398438 47.417969 71.976562 47.417969 71.515625 C 47.417969 71.132812 47.390625 70.78125 47.34375 70.464844 C 47.292969 70.144531 47.214844 69.867188 47.097656 69.636719 C 46.980469 69.40625 46.832031 69.230469 46.648438 69.101562 C 46.460938 68.976562 46.226562 68.910156 45.953125 68.910156 C 45.53125 68.910156 45.199219 69.070312 44.945312 69.390625 C 44.695312 69.707031 44.574219 70.160156 44.574219 70.742188 C 44.574219 71.003906 44.605469 71.242188 44.667969 71.460938 C 44.726562 71.671875 44.808594 71.863281 44.925781 72.015625 C 45.035156 72.167969 45.160156 72.289062 45.320312 72.371094 C 45.46875 72.460938 45.640625 72.511719 45.824219 72.511719 C 46.046875 72.511719 46.234375 72.453125 46.386719 72.335938 C 46.527344 72.222656 46.644531 72.070312 46.722656 71.890625 L 46.738281 71.898438 C 46.730469 72.144531 46.710938 72.390625 46.667969 72.628906 C 46.628906 72.875 46.558594 73.09375 46.472656 73.28125 C 46.378906 73.472656 46.257812 73.621094 46.113281 73.742188 C 45.96875 73.863281 45.785156 73.925781 45.578125 73.925781 C 45.421875 73.925781 45.277344 73.902344 45.148438 73.847656 C 45.023438 73.800781 44.914062 73.742188 44.824219 73.6875 L 44.785156 74.425781 "/>
<path style=" stroke:none;fill-rule:nonzero;fill:rgb(100%,100%,100%);fill-opacity:1;" d="M 47.988281 74.539062 L 48.71875 74.539062 L 48.71875 73.574219 L 47.988281 73.574219 L 47.988281 74.539062 "/>
<path style=" stroke:none;fill-rule:nonzero;fill:rgb(100%,100%,100%);fill-opacity:1;" d="M 50.042969 74.539062 L 50.761719 74.539062 L 50.761719 68.984375 L 50.132812 68.984375 L 49.074219 70.113281 L 49.425781 70.710938 L 50.042969 69.96875 L 50.042969 74.539062 "/>
<path style=" stroke:none;fill-rule:nonzero;fill:rgb(100%,100%,100%);fill-opacity:1;" d="M 51.355469 74.378906 C 51.484375 74.433594 51.636719 74.492188 51.8125 74.53125 C 51.980469 74.578125 52.171875 74.601562 52.367188 74.601562 C 52.871094 74.601562 53.257812 74.425781 53.527344 74.085938 C 53.800781 73.734375 53.9375 73.265625 53.9375 72.667969 C 53.9375 72.398438 53.902344 72.152344 53.835938 71.945312 C 53.761719 71.726562 53.664062 71.554688 53.546875 71.410156 C 53.433594 71.269531 53.292969 71.164062 53.136719 71.09375 C 52.972656 71.019531 52.800781 70.980469 52.628906 70.980469 C 52.519531 70.980469 52.414062 70.988281 52.328125 71.003906 C 52.234375 71.011719 52.152344 71.039062 52.089844 71.058594 L 52.089844 69.660156 L 53.714844 69.660156 L 53.714844 68.984375 L 51.425781 68.984375 L 51.425781 71.816406 C 51.539062 71.777344 51.660156 71.738281 51.785156 71.699219 C 51.90625 71.65625 52.050781 71.644531 52.207031 71.644531 C 52.53125 71.644531 52.777344 71.746094 52.945312 71.945312 C 53.105469 72.144531 53.191406 72.414062 53.191406 72.742188 C 53.191406 73.082031 53.105469 73.359375 52.941406 73.574219 C 52.769531 73.800781 52.539062 73.910156 52.246094 73.910156 C 52.078125 73.910156 51.921875 73.878906 51.777344 73.824219 C 51.636719 73.765625 51.507812 73.703125 51.398438 73.632812 L 51.355469 74.378906 "/>
<path style=" stroke:none;fill-rule:nonzero;fill:rgb(100%,100%,100%);fill-opacity:1;" d="M 57.246094 74.539062 L 57.953125 74.539062 L 57.953125 72.117188 C 57.953125 71.800781 58.007812 71.546875 58.121094 71.363281 C 58.230469 71.179688 58.394531 71.09375 58.617188 71.09375 C 58.800781 71.09375 58.929688 71.164062 59.019531 71.308594 C 59.101562 71.453125 59.140625 71.683594 59.140625 72 L 59.140625 74.539062 L 59.847656 74.539062 L 59.847656 71.808594 C 59.847656 71.378906 59.765625 71.039062 59.605469 70.78125 C 59.441406 70.53125 59.179688 70.402344 58.828125 70.402344 C 58.597656 70.402344 58.414062 70.464844 58.285156 70.585938 C 58.152344 70.710938 58.042969 70.847656 57.96875 70.996094 L 57.953125 70.996094 L 57.953125 68.570312 L 57.246094 68.570312 L 57.246094 74.539062 "/>
<path style=" stroke:none;fill-rule:nonzero;fill:rgb(100%,100%,100%);fill-opacity:1;" d="M 9.644531 83.324219 L 9.605469 82.621094 C 9.53125 82.675781 9.429688 82.726562 9.3125 82.765625 C 9.195312 82.804688 9.074219 82.828125 8.957031 82.828125 C 8.652344 82.828125 8.421875 82.703125 8.257812 82.449219 C 8.085938 82.195312 8.007812 81.851562 8.007812 81.417969 C 8.007812 80.917969 8.085938 80.554688 8.25 80.316406 C 8.414062 80.078125 8.644531 79.957031 8.945312 79.957031 C 9.074219 79.957031 9.1875 79.972656 9.292969 80.011719 C 9.394531 80.050781 9.480469 80.09375 9.570312 80.148438 L 9.605469 79.457031 C 9.515625 79.414062 9.414062 79.378906 9.285156 79.34375 C 9.15625 79.3125 9.023438 79.296875 8.898438 79.296875 C 8.632812 79.296875 8.394531 79.34375 8.1875 79.449219 C 7.988281 79.550781 7.816406 79.703125 7.679688 79.886719 C 7.542969 80.078125 7.441406 80.296875 7.375 80.558594 C 7.304688 80.824219 7.269531 81.101562 7.269531 81.414062 C 7.269531 81.699219 7.304688 81.96875 7.367188 82.222656 C 7.425781 82.476562 7.53125 82.703125 7.660156 82.886719 C 7.789062 83.070312 7.953125 83.21875 8.15625 83.324219 C 8.351562 83.4375 8.59375 83.492188 8.863281 83.492188 C 9.011719 83.492188 9.15625 83.472656 9.296875 83.445312 C 9.441406 83.402344 9.558594 83.363281 9.644531 83.324219 "/>
<path style=" stroke:none;fill-rule:nonzero;fill:rgb(100%,100%,100%);fill-opacity:1;" d="M 11.984375 83.4375 L 12.625 83.4375 C 12.617188 83.363281 12.605469 83.261719 12.597656 83.140625 C 12.589844 83.019531 12.582031 82.894531 12.582031 82.757812 L 12.582031 80.808594 C 12.582031 80.539062 12.5625 80.316406 12.515625 80.140625 C 12.46875 79.964844 12.390625 79.820312 12.304688 79.703125 C 12.226562 79.597656 12.105469 79.503906 11.945312 79.414062 C 11.78125 79.335938 11.570312 79.296875 11.304688 79.296875 C 11.078125 79.296875 10.882812 79.328125 10.714844 79.390625 C 10.542969 79.457031 10.386719 79.527344 10.257812 79.613281 L 10.308594 80.320312 C 10.398438 80.21875 10.53125 80.121094 10.699219 80.035156 C 10.863281 79.957031 11.039062 79.914062 11.234375 79.914062 C 11.488281 79.914062 11.664062 79.996094 11.773438 80.15625 C 11.828125 80.234375 11.867188 80.320312 11.886719 80.417969 C 11.910156 80.519531 11.914062 80.632812 11.914062 80.761719 L 11.914062 80.929688 L 11.664062 80.929688 C 11.097656 80.929688 10.664062 81.039062 10.375 81.253906 C 10.082031 81.476562 9.929688 81.828125 9.929688 82.304688 C 9.929688 82.496094 9.957031 82.664062 10.011719 82.8125 C 10.066406 82.964844 10.140625 83.085938 10.238281 83.191406 C 10.324219 83.292969 10.433594 83.363281 10.558594 83.410156 C 10.679688 83.46875 10.808594 83.492188 10.949219 83.492188 C 11.210938 83.492188 11.414062 83.425781 11.570312 83.300781 C 11.71875 83.179688 11.84375 83.039062 11.929688 82.878906 L 11.945312 82.878906 C 11.945312 82.902344 11.945312 82.941406 11.953125 82.996094 C 11.953125 83.054688 11.953125 83.109375 11.957031 83.164062 C 11.964844 83.21875 11.964844 83.277344 11.972656 83.324219 C 11.980469 83.378906 11.980469 83.410156 11.984375 83.4375 "/>
<path style=" stroke:none;fill-rule:nonzero;fill:rgb(100%,100%,100%);fill-opacity:1;" d="M 14.984375 83.371094 L 14.984375 82.75 C 14.933594 82.773438 14.886719 82.796875 14.832031 82.8125 C 14.777344 82.839844 14.714844 82.847656 14.644531 82.847656 C 14.511719 82.847656 14.421875 82.796875 14.363281 82.710938 C 14.300781 82.621094 14.273438 82.46875 14.273438 82.25 L 14.273438 79.988281 L 14.984375 79.988281 L 14.984375 79.351562 L 14.273438 79.351562 L 14.273438 78.269531 L 13.566406 78.515625 L 13.566406 79.351562 L 13.011719 79.351562 L 13.011719 79.988281 L 13.566406 79.988281 L 13.566406 82.414062 C 13.566406 82.804688 13.640625 83.085938 13.796875 83.246094 C 13.953125 83.410156 14.171875 83.492188 14.457031 83.492188 C 14.558594 83.492188 14.664062 83.480469 14.75 83.460938 C 14.839844 83.425781 14.917969 83.402344 14.984375 83.371094 "/>
<path style=" stroke:none;fill-rule:nonzero;fill:rgb(100%,100%,100%);fill-opacity:1;" d="M 15.507812 83.4375 L 16.214844 83.4375 L 16.214844 81.015625 C 16.214844 80.699219 16.269531 80.441406 16.386719 80.257812 C 16.496094 80.078125 16.660156 79.988281 16.882812 79.988281 C 17.066406 79.988281 17.195312 80.058594 17.285156 80.203125 C 17.367188 80.347656 17.40625 80.578125 17.40625 80.898438 L 17.40625 83.4375 L 18.113281 83.4375 L 18.113281 80.707031 C 18.113281 80.273438 18.03125 79.933594 17.867188 79.679688 C 17.703125 79.425781 17.449219 79.296875 17.09375 79.296875 C 16.863281 79.296875 16.679688 79.359375 16.550781 79.480469 C 16.414062 79.605469 16.304688 79.742188 16.230469 79.894531 L 16.214844 79.894531 L 16.214844 77.464844 L 15.507812 77.464844 L 15.507812 83.4375 "/>
<path style=" stroke:none;fill-rule:nonzero;fill:rgb(100%,100%,100%);fill-opacity:1;" d="M 18.546875 83.4375 L 19.285156 83.4375 L 19.285156 82.46875 L 18.546875 82.46875 L 18.546875 83.4375 "/>
<path style=" stroke:none;fill-rule:nonzero;fill:rgb(100%,100%,100%);fill-opacity:1;" d="M 22.796875 83.4375 L 23.503906 83.4375 L 23.503906 81.238281 C 23.503906 81.03125 23.527344 80.855469 23.566406 80.707031 C 23.605469 80.554688 23.660156 80.433594 23.730469 80.339844 C 23.796875 80.25 23.878906 80.179688 23.964844 80.132812 C 24.054688 80.09375 24.144531 80.066406 24.246094 80.066406 C 24.285156 80.066406 24.328125 80.066406 24.363281 80.078125 C 24.394531 80.085938 24.4375 80.09375 24.46875 80.097656 L 24.46875 79.304688 C 24.457031 79.304688 24.441406 79.304688 24.4375 79.296875 C 24.429688 79.296875 24.414062 79.296875 24.402344 79.296875 C 24.273438 79.296875 24.15625 79.3125 24.054688 79.351562 C 23.953125 79.390625 23.875 79.449219 23.796875 79.519531 C 23.722656 79.589844 23.652344 79.667969 23.601562 79.757812 C 23.546875 79.84375 23.496094 79.941406 23.464844 80.042969 L 23.449219 80.042969 C 23.449219 80.011719 23.449219 79.964844 23.449219 79.902344 C 23.445312 79.839844 23.445312 79.765625 23.4375 79.695312 C 23.429688 79.621094 23.429688 79.558594 23.429688 79.496094 C 23.421875 79.429688 23.421875 79.382812 23.421875 79.351562 L 22.769531 79.351562 C 22.777344 79.46875 22.785156 79.597656 22.792969 79.726562 C 22.796875 79.859375 22.796875 79.996094 22.796875 80.132812 L 22.796875 83.4375 "/>
<path style=" stroke:none;fill-rule:nonzero;fill:rgb(100%,100%,100%);fill-opacity:1;" d="M 24.957031 82.996094 C 25.089844 83.164062 25.242188 83.292969 25.429688 83.371094 C 25.605469 83.453125 25.792969 83.492188 25.996094 83.492188 C 26.203125 83.492188 26.394531 83.453125 26.578125 83.371094 C 26.753906 83.292969 26.910156 83.164062 27.039062 82.996094 C 27.167969 82.828125 27.277344 82.613281 27.351562 82.351562 C 27.425781 82.089844 27.46875 81.761719 27.46875 81.390625 C 27.46875 81.023438 27.425781 80.707031 27.351562 80.441406 C 27.277344 80.179688 27.167969 79.957031 27.039062 79.789062 C 26.910156 79.621094 26.753906 79.496094 26.578125 79.414062 C 26.394531 79.335938 26.203125 79.296875 25.996094 79.296875 C 25.792969 79.296875 25.605469 79.335938 25.429688 79.414062 C 25.242188 79.496094 25.089844 79.621094 24.957031 79.789062 C 24.828125 79.957031 24.71875 80.179688 24.644531 80.441406 C 24.570312 80.707031 24.527344 81.023438 24.527344 81.390625 C 24.527344 81.761719 24.570312 82.089844 24.644531 82.351562 C 24.71875 82.613281 24.828125 82.828125 24.957031 82.996094 "/>
<path style=" stroke:none;fill-rule:nonzero;fill:rgb(100%,100%,100%);fill-opacity:1;" d="M 27.960938 83.4375 L 28.667969 83.4375 L 28.667969 80.9375 C 28.667969 80.632812 28.722656 80.402344 28.824219 80.234375 C 28.925781 80.066406 29.082031 79.988281 29.277344 79.988281 C 29.605469 79.988281 29.769531 80.242188 29.769531 80.746094 L 29.769531 83.4375 L 30.476562 83.4375 L 30.476562 80.9375 C 30.476562 80.632812 30.53125 80.402344 30.632812 80.234375 C 30.734375 80.066406 30.890625 79.988281 31.089844 79.988281 C 31.414062 79.988281 31.578125 80.242188 31.578125 80.746094 L 31.578125 83.4375 L 32.285156 83.4375 L 32.285156 80.761719 C 32.285156 80.285156 32.203125 79.914062 32.039062 79.667969 C 31.871094 79.425781 31.621094 79.296875 31.28125 79.296875 C 31.054688 79.296875 30.871094 79.359375 30.726562 79.488281 C 30.585938 79.621094 30.476562 79.773438 30.386719 79.941406 C 30.355469 79.859375 30.316406 79.78125 30.265625 79.703125 C 30.21875 79.632812 30.15625 79.558594 30.089844 79.496094 C 30.023438 79.441406 29.9375 79.390625 29.851562 79.351562 C 29.761719 79.3125 29.65625 79.296875 29.539062 79.296875 C 29.320312 79.296875 29.144531 79.359375 29 79.488281 C 28.859375 79.621094 28.742188 79.78125 28.667969 79.980469 L 28.652344 79.980469 C 28.652344 79.957031 28.652344 79.90625 28.652344 79.84375 C 28.644531 79.789062 28.644531 79.726562 28.644531 79.660156 C 28.640625 79.597656 28.640625 79.535156 28.640625 79.480469 C 28.632812 79.425781 28.632812 79.378906 28.632812 79.351562 L 27.933594 79.351562 C 27.941406 79.460938 27.945312 79.582031 27.953125 79.710938 C 27.960938 79.839844 27.960938 79.972656 27.960938 80.121094 L 27.960938 83.4375 "/>
<path style=" stroke:none;fill-rule:nonzero;fill:rgb(100%,100%,100%);fill-opacity:1;" d="M 32.964844 83.4375 L 33.695312 83.4375 L 33.695312 82.46875 L 32.964844 82.46875 L 32.964844 83.4375 "/>
<path style=" stroke:none;fill-rule:nonzero;fill:rgb(100%,100%,100%);fill-opacity:1;" d="M 43.414062 83.324219 C 43.511719 83.363281 43.628906 83.402344 43.769531 83.445312 C 43.910156 83.480469 44.070312 83.5 44.253906 83.5 C 44.585938 83.5 44.863281 83.425781 45.097656 83.277344 C 45.320312 83.125 45.511719 82.917969 45.652344 82.648438 C 45.796875 82.375 45.898438 82.050781 45.960938 81.667969 C 46.023438 81.292969 46.054688 80.871094 46.054688 80.410156 C 46.054688 80.03125 46.027344 79.679688 45.976562 79.359375 C 45.933594 79.039062 45.851562 78.761719 45.734375 78.53125 C 45.617188 78.300781 45.46875 78.128906 45.285156 77.996094 C 45.097656 77.871094 44.863281 77.804688 44.585938 77.804688 C 44.164062 77.804688 43.832031 77.964844 43.582031 78.285156 C 43.328125 78.601562 43.203125 79.054688 43.203125 79.640625 C 43.203125 79.902344 43.238281 80.140625 43.300781 80.355469 C 43.363281 80.570312 43.445312 80.761719 43.558594 80.910156 C 43.667969 81.0625 43.796875 81.183594 43.953125 81.269531 C 44.101562 81.355469 44.273438 81.40625 44.457031 81.40625 C 44.679688 81.40625 44.871094 81.347656 45.023438 81.230469 C 45.164062 81.117188 45.28125 80.96875 45.359375 80.785156 L 45.375 80.792969 C 45.367188 81.039062 45.347656 81.285156 45.304688 81.523438 C 45.265625 81.769531 45.199219 81.988281 45.109375 82.175781 C 45.015625 82.367188 44.894531 82.519531 44.75 82.640625 C 44.605469 82.757812 44.421875 82.820312 44.210938 82.820312 C 44.054688 82.820312 43.910156 82.796875 43.785156 82.742188 C 43.65625 82.695312 43.542969 82.640625 43.457031 82.585938 L 43.414062 83.324219 "/>
<path style=" stroke:none;fill-rule:nonzero;fill:rgb(100%,100%,100%);fill-opacity:1;" d="M 46.625 83.4375 L 47.359375 83.4375 L 47.359375 82.46875 L 46.625 82.46875 L 46.625 83.4375 "/>
<path style=" stroke:none;fill-rule:nonzero;fill:rgb(100%,100%,100%);fill-opacity:1;" d="M 47.839844 83.277344 C 47.980469 83.332031 48.144531 83.390625 48.332031 83.425781 C 48.515625 83.472656 48.707031 83.5 48.90625 83.5 C 49.148438 83.5 49.363281 83.460938 49.5625 83.390625 C 49.757812 83.308594 49.921875 83.199219 50.0625 83.058594 C 50.207031 82.917969 50.316406 82.742188 50.390625 82.542969 C 50.464844 82.34375 50.507812 82.121094 50.507812 81.867188 C 50.507812 81.660156 50.480469 81.476562 50.429688 81.316406 C 50.375 81.15625 50.308594 81.03125 50.21875 80.917969 C 50.132812 80.808594 50.03125 80.71875 49.914062 80.65625 C 49.796875 80.59375 49.675781 80.546875 49.546875 80.519531 L 49.546875 80.507812 C 49.652344 80.480469 49.75 80.441406 49.859375 80.386719 C 49.964844 80.332031 50.0625 80.25 50.152344 80.148438 C 50.238281 80.042969 50.308594 79.914062 50.363281 79.757812 C 50.417969 79.605469 50.445312 79.425781 50.445312 79.199219 C 50.445312 78.976562 50.410156 78.769531 50.34375 78.59375 C 50.269531 78.421875 50.171875 78.277344 50.050781 78.15625 C 49.925781 78.039062 49.785156 77.949219 49.613281 77.894531 C 49.445312 77.839844 49.269531 77.804688 49.070312 77.804688 C 48.839844 77.804688 48.636719 77.832031 48.457031 77.871094 C 48.277344 77.917969 48.117188 77.976562 47.980469 78.039062 L 48.03125 78.792969 C 48.171875 78.707031 48.332031 78.636719 48.484375 78.582031 C 48.644531 78.523438 48.792969 78.5 48.921875 78.5 C 49.148438 78.5 49.335938 78.574219 49.492188 78.714844 C 49.652344 78.855469 49.722656 79.066406 49.722656 79.328125 C 49.722656 79.496094 49.699219 79.632812 49.644531 79.742188 C 49.585938 79.859375 49.515625 79.949219 49.417969 80.03125 C 49.316406 80.097656 49.203125 80.15625 49.066406 80.1875 C 48.929688 80.226562 48.777344 80.242188 48.621094 80.242188 L 48.425781 80.242188 L 48.425781 80.910156 C 48.464844 80.910156 48.523438 80.910156 48.589844 80.902344 C 48.652344 80.902344 48.730469 80.902344 48.828125 80.902344 C 49.109375 80.902344 49.335938 80.984375 49.5 81.136719 C 49.664062 81.285156 49.742188 81.507812 49.742188 81.789062 C 49.742188 81.960938 49.71875 82.113281 49.671875 82.242188 C 49.621094 82.367188 49.554688 82.46875 49.472656 82.550781 C 49.382812 82.640625 49.289062 82.703125 49.179688 82.742188 C 49.066406 82.78125 48.949219 82.804688 48.820312 82.804688 C 48.636719 82.804688 48.464844 82.773438 48.308594 82.710938 C 48.152344 82.65625 48.011719 82.585938 47.890625 82.511719 L 47.839844 83.277344 "/>
<path style=" stroke:none;fill-rule:nonzero;fill:rgb(100%,100%,100%);fill-opacity:1;" d="M 51.324219 82.6875 C 51.441406 82.941406 51.589844 83.140625 51.773438 83.28125 C 51.957031 83.425781 52.171875 83.5 52.4375 83.5 C 52.703125 83.5 52.925781 83.425781 53.109375 83.277344 C 53.292969 83.132812 53.445312 82.933594 53.558594 82.675781 C 53.675781 82.421875 53.757812 82.121094 53.804688 81.777344 C 53.851562 81.4375 53.878906 81.0625 53.878906 80.65625 C 53.878906 80.25 53.851562 79.878906 53.804688 79.527344 C 53.757812 79.183594 53.675781 78.882812 53.558594 78.628906 C 53.445312 78.375 53.292969 78.175781 53.109375 78.023438 C 52.925781 77.878906 52.703125 77.804688 52.4375 77.804688 C 52.171875 77.804688 51.949219 77.878906 51.765625 78.023438 C 51.582031 78.175781 51.441406 78.375 51.324219 78.628906 C 51.207031 78.882812 51.125 79.183594 51.078125 79.527344 C 51.03125 79.878906 51.003906 80.25 51.003906 80.65625 C 51.003906 81.0625 51.03125 81.4375 51.078125 81.777344 C 51.125 82.128906 51.207031 82.433594 51.324219 82.6875 "/>
<path style=" stroke:none;fill-rule:nonzero;fill:rgb(100%,100%,100%);fill-opacity:1;" d="M 57.246094 83.4375 L 57.957031 83.4375 L 57.957031 81.015625 C 57.957031 80.699219 58.007812 80.441406 58.125 80.257812 C 58.234375 80.078125 58.398438 79.988281 58.621094 79.988281 C 58.804688 79.988281 58.933594 80.058594 59.023438 80.203125 C 59.105469 80.347656 59.144531 80.578125 59.144531 80.898438 L 59.144531 83.4375 L 59.851562 83.4375 L 59.851562 80.707031 C 59.851562 80.273438 59.769531 79.933594 59.609375 79.679688 C 59.445312 79.425781 59.1875 79.296875 58.832031 79.296875 C 58.601562 79.296875 58.417969 79.359375 58.289062 79.480469 C 58.152344 79.605469 58.042969 79.742188 57.96875 79.894531 L 57.957031 79.894531 L 57.957031 77.464844 L 57.246094 77.464844 L 57.246094 83.4375 "/>
<path style=" stroke:none;fill-rule:nonzero;fill:rgb(100%,100%,100%);fill-opacity:1;" d="M 9.648438 92.21875 L 9.605469 91.519531 C 9.53125 91.574219 9.429688 91.625 9.3125 91.664062 C 9.195312 91.703125 9.074219 91.726562 8.960938 91.726562 C 8.652344 91.726562 8.421875 91.601562 8.257812 91.347656 C 8.085938 91.09375 8.007812 90.75 8.007812 90.320312 C 8.007812 89.816406 8.085938 89.453125 8.25 89.210938 C 8.414062 88.976562 8.648438 88.855469 8.945312 88.855469 C 9.074219 88.855469 9.191406 88.867188 9.292969 88.910156 C 9.394531 88.949219 9.484375 88.988281 9.574219 89.046875 L 9.605469 88.351562 C 9.515625 88.3125 9.417969 88.273438 9.285156 88.242188 C 9.15625 88.210938 9.027344 88.195312 8.898438 88.195312 C 8.632812 88.195312 8.394531 88.242188 8.191406 88.34375 C 7.988281 88.449219 7.816406 88.597656 7.679688 88.785156 C 7.542969 88.976562 7.441406 89.199219 7.375 89.460938 C 7.304688 89.71875 7.269531 90 7.269531 90.3125 C 7.269531 90.597656 7.304688 90.867188 7.367188 91.121094 C 7.425781 91.375 7.53125 91.601562 7.660156 91.785156 C 7.789062 91.96875 7.953125 92.117188 8.15625 92.21875 C 8.355469 92.332031 8.59375 92.390625 8.863281 92.390625 C 9.011719 92.390625 9.15625 92.371094 9.300781 92.34375 C 9.445312 92.300781 9.558594 92.261719 9.648438 92.21875 "/>
<path style=" stroke:none;fill-rule:nonzero;fill:rgb(100%,100%,100%);fill-opacity:1;" d="M 11.984375 92.332031 L 12.625 92.332031 C 12.621094 92.261719 12.605469 92.15625 12.597656 92.039062 C 12.59375 91.917969 12.585938 91.792969 12.585938 91.65625 L 12.585938 89.707031 C 12.585938 89.4375 12.566406 89.210938 12.519531 89.039062 C 12.46875 88.863281 12.394531 88.71875 12.304688 88.597656 C 12.234375 88.496094 12.109375 88.402344 11.945312 88.3125 C 11.78125 88.234375 11.574219 88.195312 11.304688 88.195312 C 11.082031 88.195312 10.886719 88.226562 10.714844 88.289062 C 10.542969 88.351562 10.390625 88.425781 10.261719 88.511719 L 10.3125 89.21875 C 10.402344 89.117188 10.53125 89.019531 10.703125 88.933594 C 10.863281 88.855469 11.042969 88.816406 11.238281 88.816406 C 11.488281 88.816406 11.667969 88.894531 11.777344 89.054688 C 11.832031 89.132812 11.871094 89.21875 11.894531 89.316406 C 11.914062 89.417969 11.917969 89.53125 11.917969 89.65625 L 11.917969 89.828125 L 11.667969 89.828125 C 11.101562 89.828125 10.667969 89.9375 10.375 90.152344 C 10.082031 90.375 9.933594 90.726562 9.933594 91.203125 C 9.933594 91.394531 9.960938 91.5625 10.011719 91.710938 C 10.070312 91.863281 10.144531 91.984375 10.238281 92.085938 C 10.328125 92.191406 10.4375 92.261719 10.558594 92.308594 C 10.679688 92.363281 10.808594 92.390625 10.953125 92.390625 C 11.214844 92.390625 11.417969 92.324219 11.574219 92.199219 C 11.722656 92.078125 11.84375 91.9375 11.933594 91.773438 L 11.945312 91.773438 C 11.945312 91.800781 11.945312 91.839844 11.953125 91.894531 C 11.953125 91.949219 11.953125 92.007812 11.960938 92.0625 C 11.964844 92.117188 11.964844 92.171875 11.972656 92.21875 C 11.980469 92.277344 11.980469 92.308594 11.984375 92.332031 "/>
<path style=" stroke:none;fill-rule:nonzero;fill:rgb(100%,100%,100%);fill-opacity:1;" d="M 14.988281 92.269531 L 14.988281 91.648438 C 14.941406 91.671875 14.890625 91.699219 14.835938 91.710938 C 14.785156 91.738281 14.71875 91.746094 14.648438 91.746094 C 14.515625 91.746094 14.429688 91.699219 14.367188 91.609375 C 14.308594 91.519531 14.28125 91.367188 14.28125 91.148438 L 14.28125 88.886719 L 14.988281 88.886719 L 14.988281 88.25 L 14.28125 88.25 L 14.28125 87.164062 L 13.570312 87.414062 L 13.570312 88.25 L 13.011719 88.25 L 13.011719 88.886719 L 13.570312 88.886719 L 13.570312 91.3125 C 13.570312 91.703125 13.648438 91.984375 13.804688 92.144531 C 13.960938 92.308594 14.175781 92.390625 14.464844 92.390625 C 14.566406 92.390625 14.667969 92.378906 14.757812 92.355469 C 14.84375 92.324219 14.925781 92.300781 14.988281 92.269531 "/>
<path style=" stroke:none;fill-rule:nonzero;fill:rgb(100%,100%,100%);fill-opacity:1;" d="M 15.515625 92.332031 L 16.222656 92.332031 L 16.222656 89.914062 C 16.222656 89.59375 16.277344 89.339844 16.390625 89.15625 C 16.503906 88.976562 16.664062 88.886719 16.886719 88.886719 C 17.070312 88.886719 17.203125 88.957031 17.289062 89.101562 C 17.371094 89.246094 17.410156 89.476562 17.410156 89.792969 L 17.410156 92.332031 L 18.121094 92.332031 L 18.121094 89.601562 C 18.121094 89.171875 18.039062 88.832031 17.875 88.578125 C 17.710938 88.324219 17.457031 88.195312 17.097656 88.195312 C 16.867188 88.195312 16.683594 88.257812 16.554688 88.378906 C 16.417969 88.503906 16.308594 88.640625 16.234375 88.789062 L 16.222656 88.789062 L 16.222656 86.363281 L 15.515625 86.363281 L 15.515625 92.332031 "/>
<path style=" stroke:none;fill-rule:nonzero;fill:rgb(100%,100%,100%);fill-opacity:1;" d="M 18.554688 92.332031 L 19.292969 92.332031 L 19.292969 91.367188 L 18.554688 91.367188 L 18.554688 92.332031 "/>
<path style=" stroke:none;fill-rule:nonzero;fill:rgb(100%,100%,100%);fill-opacity:1;" d="M 25.046875 92.21875 L 25.007812 91.519531 C 24.929688 91.574219 24.832031 91.625 24.714844 91.664062 C 24.597656 91.703125 24.476562 91.726562 24.359375 91.726562 C 24.054688 91.726562 23.824219 91.601562 23.660156 91.347656 C 23.488281 91.09375 23.40625 90.75 23.40625 90.320312 C 23.40625 89.816406 23.488281 89.453125 23.652344 89.210938 C 23.816406 88.976562 24.046875 88.855469 24.347656 88.855469 C 24.476562 88.855469 24.589844 88.867188 24.695312 88.910156 C 24.796875 88.949219 24.882812 88.988281 24.972656 89.046875 L 25.007812 88.351562 C 24.917969 88.3125 24.816406 88.273438 24.6875 88.242188 C 24.558594 88.210938 24.425781 88.195312 24.300781 88.195312 C 24.035156 88.195312 23.796875 88.242188 23.589844 88.34375 C 23.386719 88.449219 23.21875 88.597656 23.082031 88.785156 C 22.945312 88.976562 22.84375 89.199219 22.773438 89.460938 C 22.707031 89.71875 22.671875 90 22.671875 90.3125 C 22.671875 90.597656 22.707031 90.867188 22.769531 91.121094 C 22.832031 91.375 22.929688 91.601562 23.0625 91.785156 C 23.191406 91.96875 23.355469 92.117188 23.558594 92.21875 C 23.753906 92.332031 23.992188 92.390625 24.265625 92.390625 C 24.414062 92.390625 24.558594 92.371094 24.699219 92.34375 C 24.84375 92.300781 24.960938 92.261719 25.046875 92.21875 "/>
<path style=" stroke:none;fill-rule:nonzero;fill:rgb(100%,100%,100%);fill-opacity:1;" d="M 25.523438 92.332031 L 26.230469 92.332031 L 26.230469 90.136719 C 26.230469 89.929688 26.253906 89.753906 26.292969 89.601562 C 26.335938 89.453125 26.386719 89.332031 26.457031 89.238281 C 26.523438 89.148438 26.605469 89.078125 26.695312 89.03125 C 26.785156 88.988281 26.871094 88.964844 26.972656 88.964844 C 27.015625 88.964844 27.054688 88.964844 27.089844 88.976562 C 27.125 88.980469 27.164062 88.988281 27.199219 88.996094 L 27.199219 88.203125 C 27.183594 88.203125 27.171875 88.203125 27.164062 88.195312 C 27.15625 88.195312 27.144531 88.195312 27.132812 88.195312 C 27 88.195312 26.886719 88.210938 26.785156 88.25 C 26.679688 88.289062 26.601562 88.34375 26.523438 88.414062 C 26.453125 88.488281 26.382812 88.566406 26.328125 88.65625 C 26.273438 88.742188 26.222656 88.839844 26.191406 88.941406 L 26.175781 88.941406 C 26.175781 88.910156 26.175781 88.863281 26.175781 88.796875 C 26.171875 88.734375 26.171875 88.664062 26.164062 88.59375 C 26.15625 88.519531 26.15625 88.457031 26.15625 88.394531 C 26.152344 88.332031 26.152344 88.28125 26.152344 88.25 L 25.496094 88.25 C 25.503906 88.367188 25.511719 88.496094 25.519531 88.625 C 25.523438 88.757812 25.523438 88.894531 25.523438 89.03125 L 25.523438 92.332031 "/>
<path style=" stroke:none;fill-rule:nonzero;fill:rgb(100%,100%,100%);fill-opacity:1;" d="M 27.539062 92.332031 L 28.246094 92.332031 L 28.246094 88.25 L 27.539062 88.25 L 27.539062 92.332031 "/>
<path style=" stroke:none;fill-rule:nonzero;fill:rgb(100%,100%,100%);fill-opacity:1;" d="M 27.515625 87.429688 L 28.265625 87.429688 L 28.265625 86.546875 L 27.515625 86.546875 L 27.515625 87.429688 "/>
<path style=" stroke:none;fill-rule:nonzero;fill:rgb(100%,100%,100%);fill-opacity:1;" d="M 28.851562 92.171875 C 28.964844 92.230469 29.097656 92.285156 29.269531 92.324219 C 29.433594 92.363281 29.617188 92.390625 29.8125 92.390625 C 30.207031 92.390625 30.507812 92.277344 30.71875 92.046875 C 30.921875 91.816406 31.023438 91.519531 31.023438 91.15625 C 31.023438 90.90625 30.960938 90.707031 30.847656 90.558594 C 30.726562 90.40625 30.5625 90.257812 30.347656 90.117188 L 30.042969 89.917969 C 29.890625 89.816406 29.773438 89.730469 29.683594 89.644531 C 29.597656 89.5625 29.554688 89.453125 29.554688 89.316406 C 29.554688 89.171875 29.597656 89.054688 29.683594 88.964844 C 29.773438 88.878906 29.902344 88.839844 30.078125 88.839844 C 30.222656 88.839844 30.355469 88.855469 30.472656 88.886719 C 30.589844 88.925781 30.699219 88.964844 30.792969 89.011719 L 30.828125 88.34375 C 30.753906 88.3125 30.648438 88.28125 30.515625 88.242188 C 30.371094 88.210938 30.207031 88.195312 30.023438 88.195312 C 29.847656 88.195312 29.691406 88.226562 29.546875 88.289062 C 29.40625 88.351562 29.28125 88.441406 29.179688 88.542969 C 29.078125 88.65625 28.996094 88.785156 28.941406 88.917969 C 28.886719 89.058594 28.859375 89.210938 28.859375 89.363281 C 28.859375 89.507812 28.878906 89.636719 28.914062 89.746094 C 28.949219 89.855469 28.996094 89.953125 29.058594 90.042969 C 29.121094 90.128906 29.1875 90.199219 29.277344 90.261719 C 29.363281 90.335938 29.460938 90.398438 29.570312 90.460938 L 29.9375 90.675781 C 30.09375 90.765625 30.203125 90.859375 30.261719 90.957031 C 30.316406 91.050781 30.34375 91.15625 30.34375 91.257812 C 30.34375 91.417969 30.289062 91.539062 30.179688 91.617188 C 30.074219 91.703125 29.921875 91.746094 29.738281 91.746094 C 29.570312 91.746094 29.40625 91.710938 29.261719 91.640625 C 29.121094 91.574219 28.996094 91.511719 28.894531 91.457031 L 28.851562 92.171875 "/>
<path style=" stroke:none;fill-rule:nonzero;fill:rgb(100%,100%,100%);fill-opacity:1;" d="M 33.4375 92.269531 L 33.4375 91.648438 C 33.390625 91.671875 33.339844 91.699219 33.285156 91.710938 C 33.230469 91.738281 33.167969 91.746094 33.097656 91.746094 C 32.964844 91.746094 32.878906 91.699219 32.816406 91.609375 C 32.757812 91.519531 32.726562 91.367188 32.726562 91.148438 L 32.726562 88.886719 L 33.4375 88.886719 L 33.4375 88.25 L 32.726562 88.25 L 32.726562 87.164062 L 32.019531 87.414062 L 32.019531 88.25 L 31.464844 88.25 L 31.464844 88.886719 L 32.019531 88.886719 L 32.019531 91.3125 C 32.019531 91.703125 32.097656 91.984375 32.253906 92.144531 C 32.410156 92.308594 32.625 92.390625 32.914062 92.390625 C 33.011719 92.390625 33.117188 92.378906 33.207031 92.355469 C 33.292969 92.324219 33.375 92.300781 33.4375 92.269531 "/>
<path style=" stroke:none;fill-rule:nonzero;fill:rgb(100%,100%,100%);fill-opacity:1;" d="M 33.984375 92.332031 L 34.71875 92.332031 L 34.71875 91.367188 L 33.984375 91.367188 L 33.984375 92.332031 "/>
<path style=" stroke:none;fill-rule:nonzero;fill:rgb(100%,100%,100%);fill-opacity:1;" d="M 43.402344 92.21875 C 43.5 92.261719 43.613281 92.300781 43.757812 92.34375 C 43.898438 92.378906 44.054688 92.398438 44.238281 92.398438 C 44.574219 92.398438 44.851562 92.324219 45.085938 92.171875 C 45.308594 92.019531 45.5 91.816406 45.640625 91.546875 C 45.785156 91.273438 45.886719 90.949219 45.949219 90.566406 C 46.007812 90.191406 46.042969 89.769531 46.042969 89.308594 C 46.042969 88.925781 46.015625 88.578125 45.96875 88.257812 C 45.921875 87.941406 45.839844 87.660156 45.722656 87.429688 C 45.609375 87.199219 45.457031 87.023438 45.277344 86.898438 C 45.085938 86.769531 44.851562 86.707031 44.574219 86.707031 C 44.152344 86.707031 43.820312 86.863281 43.566406 87.183594 C 43.316406 87.5 43.191406 87.957031 43.191406 88.535156 C 43.191406 88.796875 43.226562 89.039062 43.285156 89.253906 C 43.347656 89.46875 43.429688 89.65625 43.546875 89.808594 C 43.65625 89.960938 43.785156 90.082031 43.941406 90.167969 C 44.089844 90.257812 44.261719 90.304688 44.445312 90.304688 C 44.667969 90.304688 44.859375 90.25 45.007812 90.128906 C 45.152344 90.015625 45.269531 89.863281 45.347656 89.683594 L 45.363281 89.691406 C 45.355469 89.9375 45.335938 90.183594 45.296875 90.421875 C 45.253906 90.667969 45.183594 90.886719 45.097656 91.074219 C 45.003906 91.265625 44.878906 91.417969 44.734375 91.539062 C 44.59375 91.65625 44.410156 91.71875 44.199219 91.71875 C 44.042969 91.71875 43.898438 91.699219 43.773438 91.640625 C 43.640625 91.59375 43.53125 91.539062 43.445312 91.480469 L 43.402344 92.21875 "/>
<path style=" stroke:none;fill-rule:nonzero;fill:rgb(100%,100%,100%);fill-opacity:1;" d="M 46.617188 92.332031 L 47.347656 92.332031 L 47.347656 91.367188 L 46.617188 91.367188 L 46.617188 92.332031 "/>
<path style=" stroke:none;fill-rule:nonzero;fill:rgb(100%,100%,100%);fill-opacity:1;" d="M 47.832031 92.171875 C 47.972656 92.230469 48.136719 92.285156 48.320312 92.324219 C 48.503906 92.371094 48.695312 92.398438 48.898438 92.398438 C 49.136719 92.398438 49.355469 92.355469 49.550781 92.285156 C 49.75 92.207031 49.910156 92.09375 50.054688 91.957031 C 50.199219 91.816406 50.308594 91.640625 50.382812 91.441406 C 50.457031 91.242188 50.496094 91.019531 50.496094 90.765625 C 50.496094 90.558594 50.472656 90.375 50.421875 90.214844 C 50.367188 90.054688 50.300781 89.929688 50.210938 89.816406 C 50.125 89.707031 50.019531 89.617188 49.90625 89.554688 C 49.789062 89.492188 49.667969 89.445312 49.539062 89.417969 L 49.539062 89.402344 C 49.640625 89.382812 49.742188 89.339844 49.851562 89.285156 C 49.953125 89.230469 50.054688 89.148438 50.144531 89.046875 C 50.230469 88.941406 50.300781 88.816406 50.355469 88.65625 C 50.410156 88.503906 50.4375 88.324219 50.4375 88.097656 C 50.4375 87.878906 50.40625 87.667969 50.335938 87.492188 C 50.261719 87.320312 50.164062 87.175781 50.039062 87.054688 C 49.917969 86.9375 49.777344 86.847656 49.605469 86.792969 C 49.4375 86.738281 49.261719 86.707031 49.0625 86.707031 C 48.832031 86.707031 48.628906 86.730469 48.453125 86.769531 C 48.265625 86.820312 48.109375 86.875 47.972656 86.9375 L 48.019531 87.691406 C 48.164062 87.605469 48.320312 87.535156 48.476562 87.476562 C 48.632812 87.421875 48.78125 87.398438 48.910156 87.398438 C 49.136719 87.398438 49.328125 87.46875 49.484375 87.613281 C 49.640625 87.757812 49.714844 87.960938 49.714844 88.226562 C 49.714844 88.394531 49.6875 88.53125 49.632812 88.640625 C 49.582031 88.757812 49.503906 88.847656 49.40625 88.925781 C 49.308594 88.996094 49.191406 89.054688 49.054688 89.085938 C 48.917969 89.125 48.769531 89.140625 48.613281 89.140625 L 48.414062 89.140625 L 48.414062 89.808594 C 48.457031 89.808594 48.511719 89.808594 48.578125 89.800781 C 48.640625 89.800781 48.722656 89.800781 48.816406 89.800781 C 49.101562 89.800781 49.328125 89.882812 49.492188 90.03125 C 49.65625 90.183594 49.734375 90.40625 49.734375 90.6875 C 49.734375 90.859375 49.707031 91.011719 49.660156 91.140625 C 49.613281 91.265625 49.542969 91.367188 49.464844 91.449219 C 49.375 91.539062 49.28125 91.601562 49.171875 91.640625 C 49.054688 91.679688 48.941406 91.703125 48.8125 91.703125 C 48.628906 91.703125 48.457031 91.671875 48.300781 91.609375 C 48.144531 91.550781 48 91.480469 47.878906 91.410156 L 47.832031 92.171875 "/>
<path style=" stroke:none;fill-rule:nonzero;fill:rgb(100%,100%,100%);fill-opacity:1;" d="M 51.316406 91.585938 C 51.429688 91.839844 51.582031 92.039062 51.765625 92.179688 C 51.949219 92.324219 52.164062 92.398438 52.429688 92.398438 C 52.699219 92.398438 52.921875 92.324219 53.105469 92.171875 C 53.289062 92.03125 53.4375 91.832031 53.554688 91.574219 C 53.667969 91.320312 53.75 91.019531 53.796875 90.675781 C 53.84375 90.335938 53.875 89.960938 53.875 89.554688 C 53.875 89.148438 53.84375 88.777344 53.796875 88.425781 C 53.75 88.082031 53.667969 87.78125 53.554688 87.527344 C 53.4375 87.273438 53.289062 87.074219 53.105469 86.921875 C 52.921875 86.777344 52.699219 86.707031 52.429688 86.707031 C 52.164062 86.707031 51.941406 86.777344 51.757812 86.921875 C 51.574219 87.074219 51.429688 87.273438 51.316406 87.527344 C 51.199219 87.78125 51.117188 88.082031 51.070312 88.425781 C 51.023438 88.777344 50.996094 89.148438 50.996094 89.554688 C 50.996094 89.960938 51.023438 90.335938 51.070312 90.675781 C 51.117188 91.027344 51.199219 91.332031 51.316406 91.585938 "/>
<path style=" stroke:none;fill-rule:nonzero;fill:rgb(100%,100%,100%);fill-opacity:1;" d="M 57.246094 92.332031 L 57.953125 92.332031 L 57.953125 89.914062 C 57.953125 89.59375 58.007812 89.339844 58.121094 89.15625 C 58.230469 88.976562 58.394531 88.886719 58.617188 88.886719 C 58.800781 88.886719 58.929688 88.957031 59.019531 89.101562 C 59.101562 89.246094 59.144531 89.476562 59.144531 89.792969 L 59.144531 92.332031 L 59.851562 92.332031 L 59.851562 89.601562 C 59.851562 89.171875 59.769531 88.832031 59.605469 88.578125 C 59.445312 88.324219 59.183594 88.195312 58.832031 88.195312 C 58.597656 88.195312 58.414062 88.257812 58.285156 88.378906 C 58.152344 88.503906 58.042969 88.640625 57.96875 88.789062 L 57.953125 88.789062 L 57.953125 86.363281 L 57.246094 86.363281 L 57.246094 92.332031 "/>
<path style=" stroke:none;fill-rule:nonzero;fill:rgb(10.112%,40.585327%,73.280334%);fill-opacity:1;" d="M 7.976562 72.167969 C 7.984375 71.792969 8.046875 71.5 8.160156 71.292969 C 8.277344 71.09375 8.441406 70.988281 8.644531 70.988281 C 9.0625 70.988281 9.273438 71.378906 9.273438 72.167969 L 7.976562 72.167969 "/>
<path style=" stroke:none;fill-rule:nonzero;fill:rgb(10.112%,40.585327%,73.280334%);fill-opacity:1;" d="M 15.285156 72.542969 L 15.285156 72.90625 C 15.285156 73.230469 15.222656 73.496094 15.101562 73.695312 C 14.972656 73.902344 14.789062 74.007812 14.535156 74.007812 C 14.355469 74.007812 14.21875 73.945312 14.125 73.824219 C 14.027344 73.703125 13.980469 73.539062 13.980469 73.339844 C 13.980469 73.066406 14.070312 72.867188 14.253906 72.730469 C 14.4375 72.597656 14.699219 72.535156 15.046875 72.535156 C 15.089844 72.535156 15.128906 72.535156 15.175781 72.535156 C 15.222656 72.535156 15.265625 72.535156 15.285156 72.542969 "/>
<path style=" stroke:none;fill-rule:nonzero;fill:rgb(10.112%,40.585327%,73.280334%);fill-opacity:1;" d="M 20.597656 73.574219 C 20.484375 73.347656 20.421875 72.976562 20.421875 72.476562 C 20.421875 72.007812 20.476562 71.65625 20.585938 71.410156 C 20.683594 71.171875 20.863281 71.050781 21.105469 71.046875 C 21.339844 71.046875 21.515625 71.164062 21.644531 71.402344 C 21.765625 71.644531 21.828125 72 21.828125 72.46875 C 21.828125 72.964844 21.765625 73.328125 21.652344 73.570312 C 21.535156 73.816406 21.34375 73.933594 21.082031 73.933594 C 20.878906 73.933594 20.714844 73.816406 20.597656 73.574219 "/>
<path style=" stroke:none;fill-rule:nonzero;fill:rgb(10.112%,40.585327%,73.280334%);fill-opacity:1;" d="M 29.890625 72.167969 C 29.898438 71.792969 29.960938 71.5 30.074219 71.292969 C 30.191406 71.09375 30.351562 70.988281 30.554688 70.988281 C 30.976562 70.988281 31.1875 71.378906 31.1875 72.167969 L 29.890625 72.167969 "/>
<path style=" stroke:none;fill-rule:nonzero;fill:rgb(10.112%,40.585327%,73.280334%);fill-opacity:1;" d="M 45.664062 71.738281 C 45.578125 71.683594 45.511719 71.59375 45.453125 71.492188 C 45.402344 71.386719 45.359375 71.269531 45.335938 71.132812 C 45.304688 70.996094 45.292969 70.859375 45.292969 70.710938 C 45.292969 70.550781 45.304688 70.402344 45.335938 70.265625 C 45.359375 70.132812 45.402344 70.003906 45.460938 69.898438 C 45.515625 69.796875 45.582031 69.714844 45.671875 69.660156 C 45.753906 69.605469 45.855469 69.570312 45.96875 69.570312 C 46.085938 69.570312 46.1875 69.605469 46.277344 69.660156 C 46.363281 69.714844 46.433594 69.796875 46.488281 69.898438 C 46.539062 70.003906 46.582031 70.132812 46.609375 70.265625 C 46.636719 70.402344 46.648438 70.550781 46.648438 70.710938 C 46.648438 70.859375 46.636719 71.003906 46.609375 71.140625 C 46.582031 71.273438 46.539062 71.394531 46.488281 71.5 C 46.425781 71.601562 46.355469 71.691406 46.269531 71.746094 C 46.179688 71.800781 46.085938 71.835938 45.96875 71.835938 C 45.855469 71.835938 45.753906 71.800781 45.664062 71.738281 "/>
<path style=" stroke:none;fill-rule:nonzero;fill:rgb(10.112%,40.585327%,73.280334%);fill-opacity:1;" d="M 11.914062 81.4375 L 11.914062 81.804688 C 11.914062 82.128906 11.855469 82.394531 11.730469 82.59375 C 11.601562 82.796875 11.417969 82.902344 11.167969 82.902344 C 10.984375 82.902344 10.851562 82.839844 10.753906 82.71875 C 10.65625 82.597656 10.609375 82.433594 10.609375 82.234375 C 10.609375 81.960938 10.699219 81.761719 10.882812 81.628906 C 11.066406 81.492188 11.332031 81.429688 11.679688 81.429688 C 11.71875 81.429688 11.761719 81.429688 11.808594 81.429688 C 11.855469 81.429688 11.894531 81.429688 11.914062 81.4375 "/>
<path style=" stroke:none;fill-rule:nonzero;fill:rgb(10.112%,40.585327%,73.280334%);fill-opacity:1;" d="M 25.429688 82.449219 C 25.363281 82.3125 25.324219 82.160156 25.304688 81.976562 C 25.277344 81.796875 25.265625 81.605469 25.265625 81.390625 C 25.265625 81.171875 25.277344 80.984375 25.304688 80.800781 C 25.324219 80.617188 25.363281 80.464844 25.429688 80.332031 C 25.488281 80.203125 25.566406 80.097656 25.65625 80.03125 C 25.746094 79.957031 25.863281 79.914062 25.996094 79.914062 C 26.132812 79.914062 26.25 79.957031 26.34375 80.03125 C 26.433594 80.097656 26.507812 80.203125 26.570312 80.332031 C 26.628906 80.464844 26.671875 80.617188 26.699219 80.800781 C 26.71875 80.984375 26.734375 81.171875 26.734375 81.390625 C 26.734375 81.605469 26.71875 81.796875 26.699219 81.976562 C 26.671875 82.160156 26.628906 82.3125 26.570312 82.449219 C 26.507812 82.585938 26.433594 82.6875 26.34375 82.757812 C 26.25 82.828125 26.132812 82.867188 25.996094 82.867188 C 25.863281 82.867188 25.746094 82.828125 25.65625 82.757812 C 25.566406 82.6875 25.488281 82.585938 25.429688 82.449219 "/>
<path style=" stroke:none;fill-rule:nonzero;fill:rgb(10.112%,40.585327%,73.280334%);fill-opacity:1;" d="M 44.300781 80.632812 C 44.210938 80.578125 44.144531 80.488281 44.089844 80.386719 C 44.035156 80.285156 43.992188 80.164062 43.96875 80.03125 C 43.941406 79.894531 43.925781 79.757812 43.925781 79.605469 C 43.925781 79.449219 43.941406 79.296875 43.96875 79.160156 C 43.992188 79.027344 44.035156 78.898438 44.097656 78.792969 C 44.152344 78.691406 44.21875 78.609375 44.308594 78.554688 C 44.390625 78.5 44.488281 78.46875 44.605469 78.46875 C 44.722656 78.46875 44.824219 78.5 44.914062 78.554688 C 45 78.609375 45.070312 78.691406 45.121094 78.792969 C 45.175781 78.898438 45.21875 79.027344 45.246094 79.160156 C 45.273438 79.296875 45.285156 79.449219 45.285156 79.605469 C 45.285156 79.757812 45.273438 79.902344 45.246094 80.035156 C 45.21875 80.167969 45.175781 80.289062 45.121094 80.394531 C 45.0625 80.496094 44.992188 80.585938 44.90625 80.640625 C 44.816406 80.699219 44.722656 80.730469 44.605469 80.730469 C 44.488281 80.730469 44.390625 80.699219 44.300781 80.632812 "/>
<path style=" stroke:none;fill-rule:nonzero;fill:rgb(10.112%,40.585327%,73.280334%);fill-opacity:1;" d="M 51.882812 82.265625 C 51.777344 81.890625 51.722656 81.347656 51.722656 80.65625 C 51.722656 79.964844 51.777344 79.425781 51.882812 79.039062 C 51.980469 78.65625 52.171875 78.46875 52.4375 78.46875 C 52.710938 78.46875 52.902344 78.65625 53.003906 79.035156 C 53.105469 79.414062 53.15625 79.957031 53.15625 80.65625 C 53.15625 81.347656 53.105469 81.890625 53.003906 82.265625 C 52.894531 82.648438 52.703125 82.839844 52.4375 82.839844 C 52.171875 82.839844 51.980469 82.648438 51.882812 82.265625 "/>
<path style=" stroke:none;fill-rule:nonzero;fill:rgb(10.112%,40.585327%,73.280334%);fill-opacity:1;" d="M 11.917969 90.335938 L 11.917969 90.699219 C 11.917969 91.027344 11.859375 91.292969 11.738281 91.488281 C 11.605469 91.699219 11.421875 91.800781 11.167969 91.800781 C 10.988281 91.800781 10.851562 91.738281 10.757812 91.617188 C 10.660156 91.5 10.613281 91.332031 10.613281 91.132812 C 10.613281 90.859375 10.703125 90.660156 10.886719 90.523438 C 11.070312 90.390625 11.335938 90.328125 11.679688 90.328125 C 11.722656 90.328125 11.761719 90.328125 11.808594 90.328125 C 11.859375 90.328125 11.898438 90.328125 11.917969 90.335938 "/>
<path style=" stroke:none;fill-rule:nonzero;fill:rgb(10.112%,40.585327%,73.280334%);fill-opacity:1;" d="M 44.289062 89.53125 C 44.199219 89.476562 44.132812 89.390625 44.078125 89.285156 C 44.023438 89.179688 43.980469 89.058594 43.957031 88.925781 C 43.925781 88.789062 43.914062 88.65625 43.914062 88.503906 C 43.914062 88.34375 43.925781 88.195312 43.957031 88.058594 C 43.980469 87.925781 44.023438 87.796875 44.085938 87.691406 C 44.140625 87.589844 44.207031 87.507812 44.292969 87.453125 C 44.375 87.398438 44.480469 87.363281 44.59375 87.363281 C 44.710938 87.363281 44.8125 87.398438 44.902344 87.453125 C 44.988281 87.507812 45.054688 87.589844 45.113281 87.691406 C 45.164062 87.796875 45.207031 87.925781 45.230469 88.058594 C 45.261719 88.195312 45.277344 88.34375 45.277344 88.503906 C 45.277344 88.65625 45.261719 88.796875 45.230469 88.933594 C 45.207031 89.070312 45.164062 89.191406 45.113281 89.292969 C 45.046875 89.398438 44.980469 89.484375 44.894531 89.539062 C 44.804688 89.59375 44.710938 89.628906 44.59375 89.628906 C 44.480469 89.628906 44.375 89.59375 44.289062 89.53125 "/>
<path style=" stroke:none;fill-rule:nonzero;fill:rgb(10.112%,40.585327%,73.280334%);fill-opacity:1;" d="M 51.871094 91.164062 C 51.769531 90.789062 51.71875 90.25 51.71875 89.554688 C 51.71875 88.863281 51.769531 88.324219 51.871094 87.941406 C 51.972656 87.554688 52.164062 87.363281 52.429688 87.363281 C 52.703125 87.363281 52.894531 87.554688 52.996094 87.929688 C 53.097656 88.3125 53.152344 88.855469 53.152344 89.554688 C 53.152344 90.25 53.097656 90.789062 52.996094 91.164062 C 52.886719 91.546875 52.699219 91.738281 52.429688 91.738281 C 52.164062 91.738281 51.972656 91.546875 51.871094 91.164062 "/>
</g>
</svg>
