<?xml version="1.0" encoding="UTF-8" standalone="no"?>
<svg
   xmlns:dc="http://purl.org/dc/elements/1.1/"
   xmlns:cc="http://creativecommons.org/ns#"
   xmlns:rdf="http://www.w3.org/1999/02/22-rdf-syntax-ns#"
   xmlns:svg="http://www.w3.org/2000/svg"
   xmlns="http://www.w3.org/2000/svg"
   xmlns:sodipodi="http://sodipodi.sourceforge.net/DTD/sodipodi-0.dtd"
   xmlns:inkscape="http://www.inkscape.org/namespaces/inkscape"
   version="1.0"
   width="101"
   height="200"
   id="svg856"
   sodipodi:docname="493.svg"
   inkscape:version="1.0.2 (e86c870879, 2021-01-15, custom)">
  <metadata
     id="metadata860">
    <rdf:RDF>
      <cc:Work
         rdf:about="">
        <dc:format>image/svg+xml</dc:format>
        <dc:type
           rdf:resource="http://purl.org/dc/dcmitype/StillImage" />
        <dc:title></dc:title>
      </cc:Work>
    </rdf:RDF>
  </metadata>
  <sodipodi:namedview
     pagecolor="#ffffff"
     bordercolor="#666666"
     borderopacity="1"
     objecttolerance="10"
     gridtolerance="10"
     guidetolerance="10"
     inkscape:pageopacity="0"
     inkscape:pageshadow="2"
     inkscape:window-width="1920"
     inkscape:window-height="1017"
     id="namedview858"
     showgrid="false"
     inkscape:zoom="1.1810976"
     inkscape:cx="165.36"
     inkscape:cy="325.96799"
     inkscape:window-x="3832"
     inkscape:window-y="-3"
     inkscape:window-maximized="1"
     inkscape:current-layer="svg856"
     units="px" />
  <defs
     id="defs834">
    <pattern
       id="WMFhbasepattern"
       patternUnits="userSpaceOnUse"
       width="6"
       height="6"
       x="0"
       y="0" />
  </defs>
  <g
     id="g875"
     transform="matrix(0.30622633,0,0,0.30622633,-0.03468868,-0.03468868)">
    <rect
       style="fill:#ffffff;stroke:#ffffff;stroke-width:0.1"
       id="rect862"
       width="330.62399"
       height="651.84003"
       x="0"
       y="0" />
    <path
       style="fill:#000000;fill-opacity:1;fill-rule:evenodd;stroke:none"
       d="m 54.703466,187.36326 h 98.775804 v -32.91792 l -8.55378,-5.17398 -1.14051,0.8148 -1.09977,0.73332 -1.05904,0.73332 -0.97757,0.65184 -0.85538,0.57036 -0.73318,0.48888 -0.57025,0.4074 -0.36659,0.28518 -0.1222,16.9071 h -1.99588 l -0.1222,-1.91478 -7.65767,-7.57764 -8.26866,7.37394 v 2.19996 h -1.22196 v -4.52214 l -8.26866,-3.42216 -0.0815,-1.54812 -2.60687,-3.09624 -2.7698,3.01476 v 1.6296 l -7.209611,3.34068 v 9.89982 l -2.403205,0.16296 -0.08147,-3.2592 -6.23204,-48.76578 -9.042569,45.99546 0.285126,6.02952 h -1.995882 v -8.3517 l -11.608703,-7.7406 -12.016025,7.57764 z"
       id="path836" />
    <path
       style="fill:#000000;fill-opacity:1;fill-rule:evenodd;stroke:none"
       d="m 54.78493,312.43506 h 98.57214 v -32.83644 l -8.55378,-5.25546 -1.1405,0.8148 -1.09977,0.8148 -1.05904,0.69258 -0.93685,0.69258 -0.89611,0.57036 -0.69245,0.48888 -0.57025,0.4074 -0.40732,0.28518 -0.0815,16.9071 h -2.03661 v -1.99626 l -7.65767,-7.49616 -8.26866,7.29246 v 2.19996 l -1.34416,0.0815 v -4.4814 l -8.14646,-3.4629 -0.0815,-1.6296 -2.60687,-2.97402 -2.7698,2.97402 v 1.6296 l -7.209611,3.2592 v 9.9813 l -2.321741,0.0815 -0.08146,-3.2592 -6.313505,-48.64356 -8.961104,45.87324 0.203661,6.02952 h -1.995882 v -8.3517 l -11.527238,-7.65912 -12.016026,7.49616 z"
       id="path838" />
    <path
       style="fill:#0070ff;fill-opacity:1;fill-rule:evenodd;stroke:none"
       d="M 3.7473707,648.09192 V 3.74808 H 326.79516 V 648.09192 Z M 28.308942,359.08236 V 481.83198 H 302.31506 V 359.08236 Z m 0,-132.36426 V 349.58994 H 302.31506 V 226.7181 Z m 0,-132.28278 V 217.30716 H 302.31506 V 94.43532 Z m 0,396.92982 V 614.11476 H 302.31506 V 491.36514 Z M 165.2509,14.29974 l -2.56613,0.04074 -2.5254,0.12222 -2.48467,0.2037 -2.44394,0.32592 -2.44394,0.36666 -2.36247,0.4074 -2.32174,0.52962 -2.24028,0.6111 -2.24027,0.65184 -2.11808,0.73332 -2.11808,0.77406 -2.03662,0.85554 -1.95515,0.93702 -1.87368,0.97776 -1.79222,1.05924 -1.75149,1.05924 -1.62929,1.18146 -1.58856,1.18146 -1.46637,1.26294 -1.42563,1.26294 -1.2627,1.34442 -1.22197,1.38516 -1.09977,1.4259 -1.0183,1.46664 -0.89611,1.50738 -0.77392,1.54812 -0.65171,1.54812 -0.57026,1.58886 -0.44805,1.6296 -0.32586,1.67034 -0.16293,1.67034 -0.0815,1.71108 0.0815,1.67034 0.16293,1.71108 0.32586,1.67034 0.44805,1.6296 0.57026,1.58886 0.65171,1.58886 0.77392,1.50738 0.89611,1.50738 1.0183,1.46664 1.09977,1.4259 1.22197,1.4259 1.2627,1.30368 1.42563,1.30368 1.46637,1.26294 1.58856,1.2222 1.62929,1.14072 1.75149,1.09998 1.79222,1.0185 1.87368,0.97776 1.95515,0.93702 2.03662,0.85554 2.11808,0.8148 2.11808,0.69258 2.24027,0.69258 2.24028,0.57036 2.32174,0.52962 2.36247,0.44814 2.44394,0.36666 2.44394,0.28518 2.48467,0.2037 2.5254,0.12222 2.56613,0.04074 2.60687,-0.04074 2.5254,-0.12222 2.48467,-0.2037 2.48467,-0.28518 2.4032,-0.36666 2.40321,-0.44814 2.32174,-0.52962 2.24028,-0.57036 2.24027,-0.69258 2.15881,-0.69258 2.07735,-0.8148 2.03661,-0.85554 1.95515,-0.93702 1.87369,-0.97776 1.83295,-1.0185 1.75149,-1.09998 1.62929,-1.14072 1.58856,-1.2222 1.46637,-1.26294 1.38489,-1.30368 1.30344,-1.30368 1.22197,-1.4259 1.09977,-1.4259 0.97757,-1.46664 0.89611,-1.50738 0.81465,-1.50738 0.65171,-1.58886 0.57026,-1.58886 0.44805,-1.6296 0.32586,-1.67034 0.16293,-1.71108 0.0815,-1.67034 -0.0815,-1.71108 -0.16293,-1.67034 -0.32586,-1.67034 -0.44805,-1.6296 -0.57026,-1.58886 -0.65171,-1.54812 -0.81465,-1.54812 -0.89611,-1.50738 -0.97757,-1.46664 -1.09977,-1.4259 -1.22197,-1.38516 -1.30344,-1.34442 -1.38489,-1.26294 -1.46637,-1.26294 -1.58856,-1.18146 -1.62929,-1.18146 -1.75149,-1.05924 -1.83295,-1.05924 -1.87369,-0.97776 -1.95515,-0.93702 -2.03661,-0.85554 -2.07735,-0.77406 -2.15881,-0.73332 -2.24027,-0.65184 -2.24028,-0.6111 -2.32174,-0.52962 -2.40321,-0.4074 -2.4032,-0.36666 -2.48467,-0.32592 -2.48467,-0.2037 -2.5254,-0.12222 z"
       id="path840" />
    <path
       style="fill:#ff1721;fill-opacity:1;fill-rule:evenodd;stroke:none"
       d="m 254.98414,110.69058 -1.09977,-0.32592 -1.09978,-0.28518 -1.09977,-0.28518 -1.09977,-0.24444 -1.09977,-0.2037 -1.09977,-0.2037 -1.09978,-0.12222 -1.09977,-0.16296 -1.09977,-0.0815 -1.09977,-0.0815 -1.09977,-0.0407 -1.09978,-0.0407 h -1.09977 l -1.09977,0.0407 -1.05904,0.0407 -1.09977,0.0815 -1.05904,0.12222 -1.09977,0.12222 -1.05904,0.16296 -1.09977,0.2037 -1.05904,0.2037 -1.05904,0.24444 -1.09977,0.28518 -1.05904,0.28518 -1.05904,0.32592 -1.05904,0.36666 -1.05904,0.36666 -1.05904,0.4074 -1.01831,0.4074 -1.05904,0.48888 -1.01831,0.44814 -1.05904,0.52962 -1.0183,0.52962 -0.97758,0.57036 -0.97757,0.52962 -0.97758,0.6111 -0.93684,0.6111 -0.93684,0.6111 -0.89611,0.65184 -0.89611,0.65184 -0.85538,0.69258 -0.85538,0.69258 -0.85538,0.73332 -0.81464,0.73332 -0.77392,0.73332 -0.77391,0.77406 -0.73318,0.77406 -0.73318,0.8148 -0.73318,0.8148 -0.69245,0.85554 -0.69245,0.85554 -0.65172,0.89628 -0.61098,0.85554 -0.61099,0.93702 -0.61098,0.93702 -0.57025,0.93702 -0.57026,0.93702 -0.52952,0.97776 -0.48878,0.97776 -0.48879,1.0185 -0.48879,1.0185 -0.44805,1.05924 -0.40733,1.05924 -0.40732,1.05924 -0.40732,1.09998 -0.36659,1.05924 -0.32586,1.09998 -0.28513,1.05924 -0.28512,1.09998 -0.2444,1.09998 -0.24439,1.05924 -0.16293,1.09998 -0.20366,1.09998 -0.1222,1.09998 -0.12219,1.05924 -0.0815,1.09998 -0.0815,1.09998 -0.0407,1.09998 v 1.05924 1.09998 l 0.0407,1.09998 0.0815,1.09998 0.0815,1.05924 0.12219,1.09998 0.16293,1.09998 0.16293,1.05924 0.20366,1.09998 0.20366,1.05924 0.2444,1.09998 0.28512,1.05924 0.32586,1.09998 0.32586,1.05924 0.36659,1.05924 0.36659,1.05924 0.40732,1.09998 0.44806,1.05924 0.44805,1.0185 0.48879,1.05924 0.48879,1.0185 0.52952,1.0185 0.52952,0.97776 0.57025,0.93702 0.57025,0.97776 0.61099,0.93702 0.61098,0.89628 0.65172,0.89628 0.65171,0.89628 0.69245,0.85554 0.69245,0.85554 0.69245,0.8148 0.73318,0.8148 0.77392,0.77406 0.77391,0.77406 0.77391,0.73332 0.81465,0.73332 0.81464,0.73332 0.85538,0.69258 0.85538,0.65184 0.89611,0.65184 0.89611,0.65184 0.93684,0.6111 0.93685,0.6111 0.93684,0.57036 0.97757,0.57036 0.97758,0.52962 1.01831,0.52962 1.0183,0.48888 1.05904,0.44814 2.48467,1.0185 2.48467,0.89628 2.48467,0.69258 2.52541,0.57036 2.5254,0.44814 2.48467,0.28518 2.5254,0.16296 h 2.5254 l 2.48467,-0.12222 2.44394,-0.24444 2.44394,-0.36666 2.44393,-0.48888 2.36248,-0.6111 2.36247,-0.77406 2.28101,-0.85554 2.24027,-0.97776 2.19955,-1.09998 2.15881,-1.2222 2.07734,-1.30368 1.99589,-1.4259 1.91441,-1.54812 1.87369,-1.6296 1.75149,-1.71108 1.71075,-1.8333 1.58856,-1.95552 1.5071,-2.037 1.3849,-2.11848 1.2627,-2.19996 1.18123,-2.28144 1.05904,-2.36292 0.93685,-2.48514 0.77391,-2.52588 0.61098,-2.36292 0.48879,-2.32218 0.36659,-2.36292 0.2444,-2.32218 0.12219,-2.36292 0.0407,-2.28144 -0.12219,-2.32218 -0.20366,-2.28144 -0.32586,-2.28144 -0.44806,-2.19996 -0.52952,-2.2407 -0.65171,-2.15922 -0.73318,-2.11848 -0.85538,-2.11848 -0.93685,-2.037 -1.0183,-1.99626 -1.14051,-1.95552 -1.22197,-1.87404 -1.30343,-1.8333 -1.42563,-1.79256 -1.46636,-1.71108 -1.58856,-1.6296 -1.67002,-1.54812 -1.71076,-1.50738 -1.83295,-1.38516 -1.87369,-1.30368 -1.99588,-1.26294 -2.03662,-1.14072 -2.11808,-1.0185 -2.15881,-0.97776 -2.24027,-0.8148 z m -4.39909,15.03306 1.54783,0.52962 1.46636,0.52962 1.46636,0.65184 1.3849,0.69258 1.3849,0.77406 1.30343,0.8148 1.2627,0.89628 1.18124,0.93702 1.18123,0.97776 1.09978,1.05924 1.0183,1.09998 1.01831,1.14072 0.93684,1.18146 0.85538,1.2222 0.81465,1.26294 0.77391,1.30368 0.65172,1.34442 0.65171,1.34442 0.57026,1.38516 0.48878,1.4259 0.40733,1.46664 0.36659,1.46664 0.28512,1.50738 0.20366,1.46664 0.16293,1.54812 0.0407,1.54812 v 1.50738 l -0.0815,1.58886 -0.16293,1.54812 -0.24439,1.54812 -0.32586,1.54812 -0.40732,1.58886 -0.52952,1.67034 -0.61099,1.6296 -0.73318,1.58886 -0.77391,1.54812 -0.85538,1.46664 -0.93684,1.4259 -0.97758,1.34442 -1.05904,1.26294 -1.1405,1.2222 -1.18124,1.18146 -1.22197,1.05924 -1.30343,1.05924 -1.34416,0.93702 -1.3849,0.85554 -1.42563,0.8148 -1.46637,0.73332 -1.46636,0.65184 -1.54782,0.57036 -1.54783,0.52962 -1.58856,0.4074 -1.62929,0.32592 -1.62929,0.24444 -1.6293,0.16296 -1.67002,0.0815 h -1.67002 l -1.67003,-0.12222 -1.67002,-0.2037 -1.67003,-0.28518 -1.71075,-0.36666 -1.62929,-0.48888 -1.67003,-0.57036 -1.67002,-0.69258 -1.34417,-0.65184 -1.34416,-0.69258 -1.30344,-0.73332 -1.22196,-0.8148 -1.18124,-0.85554 -1.1405,-0.89628 -1.09978,-0.97776 -1.0183,-1.0185 -0.97758,-1.0185 -0.93684,-1.14072 -0.89611,-1.14072 -0.85538,-1.2222 -0.77391,-1.2222 -0.73318,-1.30368 -0.65172,-1.34442 -0.61099,-1.38516 -0.61098,-1.4259 -0.48879,-1.4259 -0.40732,-1.4259 -0.36659,-1.46664 -0.28513,-1.4259 -0.24439,-1.46664 -0.1222,-1.4259 -0.0815,-1.46664 v -1.46664 l 0.0815,-1.4259 0.1222,-1.46664 0.24439,-1.46664 0.28513,-1.4259 0.36659,-1.46664 0.40732,-1.4259 0.48879,-1.46664 0.57025,-1.38516 0.61099,-1.38516 0.65171,-1.34442 0.73318,-1.30368 0.77392,-1.2222 0.85538,-1.2222 0.85537,-1.14072 0.93685,-1.14072 1.0183,-1.05924 1.05904,-1.0185 1.05904,-0.97776 1.18124,-0.89628 1.18124,-0.85554 1.2627,-0.85554 1.2627,-0.73332 1.34416,-0.73332 1.3849,-0.65184 1.3849,-0.6111 1.42563,-0.48888 1.3849,-0.48888 1.42563,-0.36666 1.42563,-0.28518 1.42563,-0.24444 1.46636,-0.16296 1.46636,-0.12222 h 1.42563 l 1.46637,0.0407 1.46636,0.12222 1.46636,0.16296 1.50709,0.28518 1.46637,0.32592 z m -31.77119,4.80732 5.37667,-3.91104 -1.05904,-1.46664 -3.74737,2.81106 -1.71076,-2.40366 2.48467,-1.8333 -1.05904,-1.4259 -2.56614,1.79256 -1.46636,-1.99626 3.74737,-2.77032 -1.05904,-1.46664 -5.37666,3.95178 z m 7.20962,-4.97028 1.71075,-0.69258 -2.56613,-6.59988 5.66179,5.45916 2.19954,-0.85554 -3.95103,-10.10352 -1.71076,0.6111 2.68834,6.80358 -5.78399,-5.58138 -2.07735,0.77406 z m 27.2499,-1.75182 6.02838,2.89254 0.77391,-1.6296 -4.19542,-2.037 1.22197,-2.68884 2.89199,1.34442 0.77391,-1.6296 -2.89199,-1.34442 1.05904,-2.19996 4.23616,2.037 0.85538,-1.6296 -6.06912,-2.89254 z m -41.18034,4.23696 2.32174,1.8333 0.24439,0.16296 0.20366,0.2037 0.28513,0.36666 0.24439,0.36666 0.20366,0.36666 0.16293,0.36666 0.0815,0.48888 0.0407,0.48888 v 0.48888 l -0.0407,0.44814 -0.1222,0.4074 -0.1222,0.36666 -0.20366,0.36666 -0.20366,0.36666 -0.32586,0.36666 -0.32586,0.28518 -0.40732,0.24444 -0.40732,0.16296 -0.36659,0.2037 -0.40733,0.12222 -0.40732,0.0407 -0.44805,0.0407 -0.40733,-0.0407 -0.44805,-0.12222 -0.44806,-0.12222 -0.40732,-0.2037 -0.28513,-0.16296 -0.28512,-0.24444 -2.892,-2.28144 -0.36659,-0.28518 -0.32585,-0.28518 -0.20367,-0.32592 -0.20366,-0.36666 -0.16293,-0.36666 -0.0815,-0.4074 -0.1222,-0.4074 -0.0407,-0.4074 V 130.205 l 0.0815,-0.44814 0.0815,-0.4074 0.16293,-0.44814 0.24439,-0.36666 0.2444,-0.4074 0.32585,-0.32592 0.28513,-0.28518 0.32586,-0.24444 0.32586,-0.2037 0.36659,-0.16296 0.40732,-0.12222 0.40732,-0.0815 h 0.36659 0.32586 l 0.32586,0.0815 0.32586,0.0815 0.36659,0.12222 h 0.0407 0.0815 l 0.0407,0.0407 v 0.0407 l -1.14051,1.54812 h -0.12219 -0.0815 l -0.20366,-0.0407 -0.24439,0.0407 -0.20366,0.0407 -0.20367,0.0407 -0.20366,0.12222 -0.20366,0.16296 -0.20366,0.16296 -0.16293,0.16296 -0.1222,0.2037 -0.12219,0.28518 -0.0815,0.24444 -0.0407,0.32592 v 0.24444 l 0.0815,0.24444 0.0815,0.24444 0.1222,0.2037 0.20366,0.24444 0.16293,0.16296 3.38078,2.56662 0.12219,0.12222 0.16293,0.0815 0.1222,0.0815 h 0.0815 l 0.28513,0.12222 h 0.28513 l 0.24439,-0.0407 0.24439,-0.0815 0.2444,-0.0815 0.24439,-0.12222 0.2444,-0.16296 0.20366,-0.2037 0.16293,-0.24444 0.12219,-0.24444 0.0815,-0.28518 0.0407,-0.28518 -0.0407,-0.28518 -0.0407,-0.24444 -0.0815,-0.2037 -0.1222,-0.2037 -0.20366,-0.2037 -0.20366,-0.2037 -1.1405,-0.85554 -1.05904,1.34442 -1.42563,-1.14072 z m 64.80507,0 -1.2627,-1.54812 -8.63525,6.5184 3.74737,4.92954 1.42563,-1.05924 -2.60686,-3.38142 z m -32.95242,-6.23322 2.03661,-10.67388 4.60275,0.77406 0.24439,0.12222 0.2444,0.0815 0.32586,0.16296 0.32585,0.24444 0.28513,0.24444 0.28513,0.28518 0.20366,0.4074 0.16293,0.4074 0.0815,0.4074 0.0407,0.4074 v 0.32592 l -0.0815,0.28518 v 0.36666 l -0.1222,0.28518 -0.0815,0.28518 -0.0815,0.28518 -0.16293,0.28518 -0.20366,0.24444 -0.20366,0.24444 -0.32586,0.28518 -0.40732,0.2037 -0.40732,0.16296 -0.40733,0.12222 h -0.0815 -0.1222 l 1.54783,5.0925 -2.19954,-0.4074 -1.54783,-5.05176 -1.14051,-0.2037 -0.77391,4.6851 z m 25.53914,-1.05924 -1.42563,-1.26294 -7.00595,8.3517 4.80641,3.95178 1.1405,-1.34442 -3.25858,-2.77032 z m -34.25585,1.6296 6.63936,-0.57036 -0.1222,-1.8333 -4.68421,0.36666 -0.28513,-2.8518 3.13639,-0.28518 -0.16293,-1.8333 -3.17712,0.28518 -0.20366,-2.48514 4.72495,-0.4074 -0.20367,-1.79256 -6.72082,0.65184 z m 11.89382,-6.7221 2.40321,0.48888 h 0.16293 0.1222 0.24439 l 0.24439,-0.12222 0.1222,-0.16296 0.16293,-0.2037 0.0815,-0.12222 v -0.16296 l 0.1222,-0.48888 v -0.12222 -0.16296 l -0.0407,-0.24444 -0.0815,-0.24444 -0.0815,-0.0815 -0.0815,-0.0815 -0.0815,-0.0815 -0.1222,-0.0407 -0.16293,-0.0815 h -0.12219 l -2.48467,-0.48888 z m -5.45812,125.2755 -2.44394,0.0407 -2.4032,0.2037 -2.36248,0.28518 -2.32174,0.4074 -2.28101,0.52962 -2.24027,0.65184 -2.19955,0.73332 -2.15881,0.85554 -2.07734,0.93702 -2.03662,1.0185 -1.99588,1.14072 -1.91442,1.26294 -1.83295,1.30368 -1.79222,1.38516 -1.71076,1.50738 -1.62929,1.54812 -1.54783,1.6296 -1.50709,1.71108 -1.3849,1.79256 -1.34417,1.87404 -1.22196,1.91478 -1.14051,1.95552 -1.01831,2.037 -0.93684,2.07774 -0.85538,2.15922 -0.73318,2.19996 -0.65171,2.2407 -0.52952,2.28144 -0.40733,2.32218 -0.28512,2.36292 -0.20366,2.40366 -0.0407,2.4444 0.0407,2.4444 0.20366,2.40366 0.28512,2.36292 0.40733,2.32218 0.52952,2.28144 0.65171,2.2407 0.73318,2.19996 0.85538,2.11848 0.93684,2.11848 1.01831,2.037 1.14051,1.95552 1.22196,1.91478 1.34417,1.87404 1.3849,1.79256 1.50709,1.71108 1.54783,1.6296 1.62929,1.54812 1.71076,1.50738 1.79222,1.38516 1.83295,1.30368 1.91442,1.2222 1.99588,1.14072 2.03662,1.05924 2.07734,0.93702 2.15881,0.85554 2.19955,0.73332 2.24027,0.65184 2.28101,0.52962 2.32174,0.4074 2.36248,0.28518 2.4032,0.2037 2.44394,0.0407 2.44394,-0.0407 2.36247,-0.2037 2.4032,-0.28518 2.32174,-0.4074 2.28101,-0.52962 2.24028,-0.65184 2.19954,-0.73332 2.11808,-0.85554 2.11808,-0.93702 2.03661,-1.05924 1.95515,-1.14072 1.91442,-1.2222 1.87369,-1.30368 1.75149,-1.38516 1.75148,-1.50738 1.6293,-1.54812 1.54782,-1.6296 1.5071,-1.71108 1.3849,-1.79256 1.30343,-1.87404 1.22197,-1.91478 1.1405,-1.95552 1.05904,-2.037 0.93684,-2.11848 0.85538,-2.11848 0.73318,-2.19996 0.65172,-2.2407 0.52952,-2.28144 0.40732,-2.32218 0.28513,-2.36292 0.20366,-2.40366 0.0407,-2.4444 -0.0407,-2.4444 -0.20366,-2.40366 -0.28513,-2.36292 -0.40732,-2.32218 -0.52952,-2.28144 -0.65172,-2.2407 -0.73318,-2.19996 -0.85538,-2.15922 -0.93684,-2.07774 -1.05904,-2.037 -1.1405,-1.95552 -1.22197,-1.91478 -1.30343,-1.87404 -1.3849,-1.79256 -1.5071,-1.71108 -1.54782,-1.6296 -1.6293,-1.54812 -1.75148,-1.50738 -1.75149,-1.38516 -1.87369,-1.30368 -1.91442,-1.26294 -1.95515,-1.14072 -2.03661,-1.0185 -2.11808,-0.93702 -2.11808,-0.85554 -2.19954,-0.73332 -2.24028,-0.65184 -2.28101,-0.52962 -2.32174,-0.4074 -2.4032,-0.28518 -2.36247,-0.2037 z m 0,15.72564 -1.62929,0.0407 -1.58856,0.12222 -1.58856,0.2037 -1.54783,0.28518 -1.50709,0.32592 -1.5071,0.44814 -1.46636,0.48888 -1.42563,0.57036 -1.3849,0.6111 -1.34416,0.69258 -1.34417,0.77406 -1.2627,0.8148 -1.22197,0.89628 -1.22197,0.93702 -1.1405,0.97776 -1.09977,1.05924 -1.01831,1.05924 -0.97758,1.14072 -0.93684,1.2222 -0.89611,1.2222 -0.81465,1.26294 -0.77391,1.34442 -0.69245,1.34442 -0.61098,1.38516 -0.57025,1.4259 -0.48879,1.46664 -0.44806,1.50738 -0.32586,1.50738 -0.28512,1.54812 -0.20366,1.58886 -0.1222,1.58886 -0.0407,1.6296 0.0407,1.6296 0.1222,1.58886 0.20366,1.58886 0.28512,1.54812 0.32586,1.50738 0.44806,1.50738 0.48879,1.4259 0.57025,1.46664 0.61098,1.38516 0.69245,1.34442 0.77391,1.30368 0.81465,1.30368 0.89611,1.2222 0.93684,1.18146 0.97758,1.14072 1.01831,1.09998 1.09977,1.05924 1.1405,0.97776 1.22197,0.93702 1.22197,0.89628 1.2627,0.8148 1.34417,0.73332 1.34416,0.69258 1.3849,0.65184 1.42563,0.57036 1.46636,0.48888 1.5071,0.4074 1.50709,0.36666 1.54783,0.28518 1.58856,0.2037 1.58856,0.12222 1.62929,0.0407 1.62929,-0.0407 1.58856,-0.12222 1.54783,-0.2037 1.54782,-0.28518 1.54783,-0.36666 1.50709,-0.4074 1.42564,-0.48888 1.42563,-0.57036 1.42563,-0.65184 1.34416,-0.69258 1.30343,-0.73332 1.30344,-0.8148 1.22197,-0.89628 1.18123,-0.93702 1.14051,-0.97776 1.09977,-1.05924 1.05904,-1.09998 0.97757,-1.14072 0.93685,-1.18146 0.89611,-1.2222 0.81464,-1.30368 0.73318,-1.30368 0.69245,-1.34442 0.65172,-1.38516 0.57025,-1.46664 0.48879,-1.4259 0.40732,-1.50738 0.36659,-1.50738 0.28513,-1.54812 0.20366,-1.58886 0.1222,-1.58886 0.0407,-1.6296 -0.0407,-1.6296 -0.1222,-1.58886 -0.20366,-1.58886 -0.28513,-1.54812 -0.36659,-1.50738 -0.40732,-1.50738 -0.48879,-1.46664 -0.57025,-1.4259 -0.65172,-1.38516 -0.69245,-1.34442 -0.73318,-1.34442 -0.81464,-1.26294 -0.89611,-1.2222 -0.93685,-1.2222 -0.97757,-1.14072 -1.05904,-1.05924 -1.09977,-1.05924 -1.14051,-0.97776 -1.18123,-0.93702 -1.22197,-0.89628 -1.30344,-0.8148 -1.30343,-0.77406 -1.34416,-0.69258 -1.42563,-0.6111 -1.42563,-0.57036 -1.42564,-0.48888 -1.50709,-0.44814 -1.54783,-0.32592 -1.54782,-0.28518 -1.54783,-0.2037 -1.58856,-0.12222 z m 0,248.79918 -2.44394,0.0815 -2.4032,0.16296 -2.36248,0.28518 -2.32174,0.44814 -2.28101,0.52962 -2.24027,0.6111 -2.19955,0.77406 -2.15881,0.8148 -2.07734,0.97776 -2.03662,1.0185 -1.99588,1.14072 -1.91442,1.26294 -1.83295,1.30368 -1.79222,1.38516 -1.71076,1.50738 -1.62929,1.54812 -1.54783,1.67034 -1.50709,1.71108 -1.3849,1.79256 -1.34417,1.8333 -1.22196,1.95552 -1.14051,1.95552 -1.01831,2.037 -0.93684,2.11848 -0.85538,2.11848 -0.73318,2.19996 -0.65171,2.28144 -0.52952,2.28144 -0.40733,2.32218 -0.28512,2.36292 -0.20366,2.40366 -0.0407,2.4444 0.0407,2.40366 0.20366,2.40366 0.28512,2.36292 0.40733,2.32218 0.52952,2.28144 0.65171,2.2407 0.73318,2.15922 0.85538,2.15922 0.93684,2.07774 1.01831,2.037 1.14051,1.99626 1.22196,1.91478 1.34417,1.8333 1.3849,1.79256 1.50709,1.71108 1.54783,1.67034 1.62929,1.54812 1.71076,1.46664 1.79222,1.4259 1.83295,1.30368 1.91442,1.26294 1.99588,1.09998 2.03662,1.05924 2.07734,0.93702 2.15881,0.85554 2.19955,0.73332 2.24027,0.65184 2.28101,0.52962 2.32174,0.4074 2.36248,0.32592 2.4032,0.16296 2.44394,0.0815 2.44394,-0.0815 2.36247,-0.16296 2.4032,-0.32592 2.32174,-0.4074 2.28101,-0.52962 2.24028,-0.65184 2.19954,-0.73332 2.11808,-0.85554 2.11808,-0.93702 2.03661,-1.05924 1.95515,-1.09998 1.91442,-1.26294 1.87369,-1.30368 1.75149,-1.4259 1.75148,-1.46664 1.6293,-1.54812 1.54782,-1.67034 1.5071,-1.71108 1.3849,-1.79256 1.30343,-1.8333 1.22197,-1.91478 1.1405,-1.99626 1.05904,-2.037 0.93684,-2.07774 0.85538,-2.15922 0.73318,-2.15922 0.65172,-2.2407 0.52952,-2.28144 0.40732,-2.32218 0.28513,-2.36292 0.20366,-2.40366 0.0407,-2.40366 -0.0407,-2.4444 -0.20366,-2.40366 -0.28513,-2.36292 -0.40732,-2.32218 -0.52952,-2.28144 -0.65172,-2.28144 -0.73318,-2.19996 -0.85538,-2.11848 -0.93684,-2.11848 -1.05904,-2.037 -1.1405,-1.95552 -1.22197,-1.95552 -1.30343,-1.8333 -1.3849,-1.79256 -1.5071,-1.71108 -1.54782,-1.67034 -1.6293,-1.54812 -1.75148,-1.50738 -1.75149,-1.38516 -1.87369,-1.30368 -1.91442,-1.26294 -1.95515,-1.14072 -2.03661,-1.0185 -2.11808,-0.97776 -2.11808,-0.8148 -2.19954,-0.77406 -2.24028,-0.6111 -2.28101,-0.52962 -2.32174,-0.44814 -2.4032,-0.28518 -2.36247,-0.16296 z m 0,15.72564 -1.62929,0.0407 -1.58856,0.12222 -1.58856,0.2037 -1.54783,0.28518 -1.50709,0.36666 -1.5071,0.4074 -1.46636,0.48888 -1.42563,0.57036 -1.3849,0.65184 -1.34416,0.69258 -1.34417,0.73332 -1.2627,0.85554 -1.22197,0.85554 -1.22197,0.93702 -1.1405,1.0185 -1.09977,1.0185 -1.01831,1.09998 -0.97758,1.14072 -0.93684,1.18146 -0.89611,1.26294 -0.81465,1.26294 -0.77391,1.34442 -0.69245,1.34442 -0.61098,1.4259 -0.57025,1.4259 -0.48879,1.46664 -0.44806,1.50738 -0.32586,1.50738 -0.28512,1.54812 -0.20366,1.58886 -0.1222,1.6296 -0.0407,1.6296 0.0407,1.58886 0.1222,1.6296 0.20366,1.54812 0.28512,1.54812 0.32586,1.54812 0.44806,1.46664 0.48879,1.46664 0.57025,1.4259 0.61098,1.38516 0.69245,1.38516 0.77391,1.30368 0.81465,1.26294 0.89611,1.26294 0.93684,1.18146 0.97758,1.14072 1.01831,1.09998 1.09977,1.0185 1.1405,1.0185 1.22197,0.93702 1.22197,0.85554 1.2627,0.8148 1.34417,0.77406 1.34416,0.69258 1.3849,0.65184 1.42563,0.52962 1.46636,0.52962 1.5071,0.4074 1.50709,0.36666 1.54783,0.24444 1.58856,0.2037 1.58856,0.12222 1.62929,0.0407 1.62929,-0.0407 1.58856,-0.12222 1.54783,-0.2037 1.54782,-0.24444 1.54783,-0.36666 1.50709,-0.4074 1.42564,-0.52962 1.42563,-0.52962 1.42563,-0.65184 1.34416,-0.69258 1.30343,-0.77406 1.30344,-0.8148 1.22197,-0.85554 1.18123,-0.93702 1.14051,-1.0185 1.09977,-1.0185 1.05904,-1.09998 0.97757,-1.14072 0.93685,-1.18146 0.89611,-1.26294 0.81464,-1.26294 0.73318,-1.30368 0.69245,-1.38516 0.65172,-1.38516 0.57025,-1.4259 0.48879,-1.46664 0.40732,-1.46664 0.36659,-1.54812 0.28513,-1.54812 0.20366,-1.54812 0.1222,-1.6296 0.0407,-1.58886 -0.0407,-1.6296 -0.1222,-1.6296 -0.20366,-1.58886 -0.28513,-1.54812 -0.36659,-1.50738 -0.40732,-1.50738 -0.48879,-1.46664 -0.57025,-1.4259 -0.65172,-1.4259 -0.69245,-1.34442 -0.73318,-1.34442 -0.81464,-1.26294 -0.89611,-1.26294 -0.93685,-1.18146 -0.97757,-1.14072 -1.05904,-1.09998 -1.09977,-1.0185 -1.14051,-1.0185 -1.18123,-0.93702 -1.22197,-0.85554 -1.30344,-0.85554 -1.30343,-0.73332 -1.34416,-0.69258 -1.42563,-0.65184 -1.42563,-0.57036 -1.42564,-0.48888 -1.50709,-0.4074 -1.54783,-0.36666 -1.54782,-0.28518 -1.54783,-0.2037 -1.58856,-0.12222 z m 0,-148.00842 -2.44394,0.0815 -2.4032,0.16296 -2.36248,0.32592 -2.32174,0.4074 -2.28101,0.52962 -2.24027,0.65184 -2.19955,0.73332 -2.15881,0.85554 -2.07734,0.93702 -2.03662,1.05924 -1.99588,1.14072 -1.91442,1.2222 -1.83295,1.30368 -1.79222,1.4259 -1.71076,1.46664 -1.62929,1.58886 -1.54783,1.6296 -1.50709,1.71108 -1.3849,1.79256 -1.34417,1.8333 -1.22196,1.91478 -1.14051,1.99626 -1.01831,2.037 -0.93684,2.07774 -0.85538,2.15922 -0.73318,2.15922 -0.65171,2.2407 -0.52952,2.28144 -0.40733,2.32218 -0.28512,2.36292 -0.20366,2.40366 -0.0407,2.4444 0.0407,2.40366 0.20366,2.40366 0.28512,2.36292 0.40733,2.32218 0.52952,2.32218 0.65171,2.2407 0.73318,2.19996 0.85538,2.11848 0.93684,2.11848 1.01831,2.037 1.14051,1.99626 1.22196,1.91478 1.34417,1.8333 1.3849,1.79256 1.50709,1.71108 1.54783,1.67034 1.62929,1.54812 1.71076,1.50738 1.79222,1.38516 1.83295,1.34442 1.91442,1.2222 1.99588,1.14072 2.03662,1.0185 2.07734,0.97776 2.15881,0.85554 2.19955,0.73332 2.24027,0.6111 2.28101,0.52962 2.32174,0.44814 2.36248,0.28518 2.4032,0.2037 2.44394,0.0407 2.44394,-0.0407 2.36247,-0.2037 2.4032,-0.28518 2.32174,-0.44814 2.28101,-0.52962 2.24028,-0.6111 2.19954,-0.73332 2.11808,-0.85554 2.11808,-0.97776 2.03661,-1.0185 1.95515,-1.14072 1.91442,-1.2222 1.87369,-1.34442 1.75149,-1.38516 1.75148,-1.50738 1.6293,-1.54812 1.54782,-1.67034 1.5071,-1.71108 1.3849,-1.79256 1.30343,-1.8333 1.22197,-1.91478 1.1405,-1.99626 1.05904,-2.037 0.93684,-2.11848 0.85538,-2.11848 0.73318,-2.19996 0.65172,-2.2407 0.52952,-2.32218 0.40732,-2.32218 0.28513,-2.36292 0.20366,-2.40366 0.0407,-2.40366 -0.0407,-2.4444 -0.20366,-2.40366 -0.28513,-2.36292 -0.40732,-2.32218 -0.52952,-2.28144 -0.65172,-2.2407 -0.73318,-2.15922 -0.85538,-2.15922 -0.93684,-2.07774 -1.05904,-2.037 -1.1405,-1.99626 -1.22197,-1.91478 -1.30343,-1.8333 -1.3849,-1.79256 -1.5071,-1.71108 -1.54782,-1.6296 -1.6293,-1.58886 -1.75148,-1.46664 -1.75149,-1.4259 -1.87369,-1.30368 -1.91442,-1.2222 -1.95515,-1.14072 -2.03661,-1.05924 -2.11808,-0.93702 -2.11808,-0.85554 -2.19954,-0.73332 -2.24028,-0.65184 -2.28101,-0.52962 -2.32174,-0.4074 -2.4032,-0.32592 -2.36247,-0.16296 z m 0,15.76638 -1.62929,0.0407 -1.58856,0.12222 -1.58856,0.2037 -1.54783,0.24444 -1.50709,0.36666 -1.5071,0.44814 -1.46636,0.48888 -1.42563,0.57036 -1.3849,0.6111 -1.34416,0.69258 -1.34417,0.77406 -1.2627,0.8148 -1.22197,0.85554 -1.22197,0.93702 -1.1405,1.0185 -1.09977,1.0185 -1.01831,1.09998 -0.97758,1.14072 -0.93684,1.18146 -0.89611,1.26294 -0.81465,1.26294 -0.77391,1.30368 -0.69245,1.38516 -0.61098,1.38516 -0.57025,1.4259 -0.48879,1.46664 -0.44806,1.50738 -0.32586,1.50738 -0.28512,1.54812 -0.20366,1.58886 -0.1222,1.58886 -0.0407,1.6296 0.0407,1.6296 0.1222,1.58886 0.20366,1.58886 0.28512,1.54812 0.32586,1.54812 0.44806,1.46664 0.48879,1.46664 0.57025,1.46664 0.61098,1.38516 0.69245,1.34442 0.77391,1.34442 0.81465,1.26294 0.89611,1.26294 0.93684,1.18146 0.97758,1.14072 1.01831,1.09998 1.09977,1.05924 1.1405,0.97776 1.22197,0.93702 1.22197,0.89628 1.2627,0.8148 1.34417,0.73332 1.34416,0.69258 1.3849,0.65184 1.42563,0.57036 1.46636,0.48888 1.5071,0.4074 1.50709,0.36666 1.54783,0.28518 1.58856,0.2037 1.58856,0.12222 1.62929,0.0407 1.62929,-0.0407 1.58856,-0.12222 1.54783,-0.2037 1.54782,-0.28518 1.54783,-0.36666 1.50709,-0.4074 1.42564,-0.48888 1.42563,-0.57036 1.42563,-0.65184 1.34416,-0.69258 1.30343,-0.73332 1.30344,-0.8148 1.22197,-0.89628 1.18123,-0.93702 1.14051,-0.97776 1.09977,-1.05924 1.05904,-1.09998 0.97757,-1.14072 0.93685,-1.18146 0.89611,-1.26294 0.81464,-1.26294 0.73318,-1.34442 0.69245,-1.34442 0.65172,-1.38516 0.57025,-1.46664 0.48879,-1.46664 0.40732,-1.46664 0.36659,-1.54812 0.28513,-1.54812 0.20366,-1.58886 0.1222,-1.58886 0.0407,-1.6296 -0.0407,-1.6296 -0.1222,-1.58886 -0.20366,-1.58886 -0.28513,-1.54812 -0.36659,-1.50738 -0.40732,-1.50738 -0.48879,-1.46664 -0.57025,-1.4259 -0.65172,-1.38516 -0.69245,-1.38516 -0.73318,-1.30368 -0.81464,-1.26294 -0.89611,-1.26294 -0.93685,-1.18146 -0.97757,-1.14072 -1.05904,-1.09998 -1.09977,-1.0185 -1.14051,-1.0185 -1.18123,-0.93702 -1.22197,-0.85554 -1.30344,-0.8148 -1.30343,-0.77406 -1.34416,-0.69258 -1.42563,-0.6111 -1.42563,-0.57036 -1.42564,-0.48888 -1.50709,-0.44814 -1.54783,-0.36666 -1.54782,-0.24444 -1.54783,-0.2037 -1.58856,-0.12222 z"
       id="path842" />
    <path
       style="fill:#ff1721;fill-opacity:1;fill-rule:evenodd;stroke:none"
       d="m 62.564798,322.33488 75.639862,-75.65418 7.37255,7.37394 -75.599135,75.65418 z"
       id="path844" />
    <path
       style="fill:#000000;fill-opacity:1;fill-rule:evenodd;stroke:none"
       d="M 0,651.84 V 0 h 330.624 v 651.84 z m 0.20366145,-0.2037 H 330.42034 V 0.2037 H 0.20366145 Z"
       id="path846" />
    <path
       style="fill:#000000;fill-opacity:1;fill-rule:evenodd;stroke:none"
       d="m 232.05186,275.85054 0.24439,0.0407 0.28513,0.0407 0.24439,0.0407 0.28513,0.0815 0.24439,0.12222 0.20366,0.12222 0.2444,0.16296 0.16293,0.16296 0.20366,0.2037 0.20366,0.2037 0.12219,0.24444 0.16293,0.24444 0.0815,0.28518 0.0815,0.28518 0.0815,0.28518 0.0407,0.28518 -0.0407,0.44814 -0.0815,0.44814 -0.12219,0.4074 -0.16293,0.4074 -0.0815,0.36666 -0.12219,0.32592 -0.1222,0.36666 -0.1222,0.28518 -0.16293,0.28518 -0.20366,0.28518 -0.20366,0.24444 -0.20366,0.24444 -0.28513,0.16296 -0.32586,0.12222 -0.28512,0.0815 h -0.36659 -0.36659 l -0.32586,-0.0815 -0.16293,-0.0407 -0.1222,-0.0815 -0.16293,-0.0815 -0.0815,-0.0815 -0.40732,-0.44814 -0.28513,-0.4074 -0.20366,-0.36666 -0.16293,-0.36666 -0.16293,-0.4074 -0.1222,-0.4074 -0.16293,-0.4074 -0.0815,-0.4074 -0.0407,-0.44814 v -0.44814 -0.28518 l 0.0407,-0.24444 0.0407,-0.24444 0.1222,-0.28518 0.1222,-0.24444 0.12219,-0.2037 0.20366,-0.24444 0.20367,-0.16296 0.16292,-0.2037 0.2444,-0.16296 0.24439,-0.12222 0.2444,-0.12222 0.24439,-0.12222 0.28513,-0.0815 0.28512,-0.0407 z m 0,12.0183 0.36659,0.0407 0.28512,0.0815 0.32586,0.12222 0.28513,0.12222 0.28512,0.36666 0.28513,0.4074 0.28513,0.36666 0.24439,0.44814 0.20366,0.44814 0.2444,0.48888 0.24439,0.57036 0.20366,0.65184 0.16293,0.69258 0.1222,0.65184 0.12219,0.73332 0.0407,0.69258 -0.0407,0.69258 -0.12219,0.65184 -0.0407,0.32592 -0.0815,0.28518 -0.0815,0.24444 -0.1222,0.28518 -0.28513,0.52962 -0.32586,0.44814 -0.28512,0.24444 -0.28513,0.2037 -0.28512,0.2037 -0.32586,0.16296 -0.32586,0.12222 -0.32586,0.0815 -0.32586,0.0815 -0.32586,0.0815 -0.44805,-0.0407 -0.40732,-0.0407 -0.36659,-0.0815 -0.36659,-0.16296 -0.3666,-0.12222 -0.32585,-0.2037 -0.32586,-0.24444 -0.28513,-0.28518 -0.20366,-0.2037 -0.16293,-0.24444 -0.16293,-0.24444 -0.16293,-0.28518 -0.20366,-0.52962 -0.16293,-0.6111 -0.0407,-0.32592 -0.0407,-0.32592 -0.0407,-0.36666 0.0407,-0.36666 0.0407,-0.69258 0.1222,-0.69258 0.12219,-0.65184 0.16293,-0.65184 0.20366,-0.69258 0.20367,-0.69258 0.16292,-0.44814 0.2444,-0.48888 0.24439,-0.48888 0.28513,-0.4074 0.24439,-0.2037 0.20366,-0.2037 0.2444,-0.16296 0.28512,-0.0815 0.2444,-0.12222 0.28512,-0.0815 0.32586,-0.0815 z m 0,-16.4997 h 0.48879 l 0.48878,0.0407 0.48879,0.0815 0.44806,0.0407 0.48878,0.12222 0.48879,0.16296 0.40732,0.2037 0.44806,0.2037 0.48879,0.28518 0.44805,0.32592 0.40732,0.36666 0.40733,0.36666 0.32586,0.4074 0.32585,0.44814 0.32586,0.48888 0.2444,0.48888 0.16292,0.36666 0.16293,0.44814 0.1222,0.4074 0.1222,0.44814 0.0815,0.44814 0.0815,0.44814 0.0407,0.44814 v 0.4074 l 0.0407,0.44814 -0.0407,0.44814 v 0.44814 l -0.0815,0.44814 -0.0815,0.4074 -0.1222,0.44814 -0.12219,0.4074 -0.16293,0.4074 -0.2444,0.69258 -0.32586,0.69258 -0.40732,0.65184 -0.44805,0.65184 -0.16293,0.2037 -0.16293,0.2037 0.16293,0.12222 0.16293,0.16296 0.61098,0.93702 0.57025,0.97776 0.2444,0.52962 0.24439,0.52962 0.24439,0.48888 0.16293,0.57036 0.20367,0.52962 0.16292,0.52962 0.16293,0.57036 0.0815,0.57036 0.16293,1.09998 0.12219,1.09998 v 0.93702 0.93702 l -0.12219,0.89628 -0.20366,0.85554 -0.28513,0.89628 -0.40732,0.8148 -0.2444,0.4074 -0.24439,0.4074 -0.24439,0.4074 -0.28513,0.36666 -0.28513,0.28518 -0.32585,0.32592 -0.32586,0.28518 -0.32586,0.28518 -0.36659,0.24444 -0.36659,0.24444 -0.40733,0.24444 -0.36659,0.16296 -0.85537,0.36666 -0.85538,0.24444 -0.44806,0.12222 -0.48879,0.0815 -0.44805,0.0407 -0.44806,0.0407 -0.48878,-0.0407 -0.44806,-0.0407 -0.44805,-0.0407 -0.44806,-0.0815 -0.40732,-0.12222 -0.40732,-0.12222 -0.40733,-0.16296 -0.40732,-0.16296 -0.44806,-0.2037 -0.40732,-0.2037 -0.36659,-0.24444 -0.36659,-0.28518 -0.36659,-0.24444 -0.32586,-0.32592 -0.32586,-0.28518 -0.28512,-0.32592 -0.52952,-0.73332 -0.48879,-0.77406 -0.20366,-0.4074 -0.16293,-0.4074 -0.20366,-0.4074 -0.1222,-0.44814 -0.16293,-0.44814 -0.0815,-0.48888 -0.0815,-0.48888 -0.0407,-0.48888 -0.0815,-1.0185 0.0407,-0.97776 0.12219,-1.18146 0.1222,-1.18146 0.1222,-0.57036 0.1222,-0.57036 0.20366,-0.57036 0.16293,-0.52962 0.40732,-1.0185 0.48879,-0.93702 0.52952,-0.93702 0.61098,-0.85554 0.1222,-0.12222 0.16293,-0.16296 -0.1222,-0.12222 -0.0815,-0.0815 -0.2444,-0.36666 -0.28512,-0.36666 -0.20367,-0.36666 -0.20366,-0.36666 -0.36659,-0.77406 -0.32586,-0.85554 -0.12219,-0.36666 -0.1222,-0.4074 -0.0815,-0.4074 -0.0407,-0.36666 -0.0815,-0.8148 -0.0407,-0.77406 0.0407,-0.52962 v -0.48888 l 0.0815,-0.44814 0.0815,-0.48888 0.12219,-0.44814 0.1222,-0.48888 0.20366,-0.4074 0.2444,-0.44814 0.28512,-0.52962 0.36659,-0.48888 0.40733,-0.48888 0.40732,-0.4074 0.48879,-0.4074 0.48878,-0.36666 0.52952,-0.32592 0.57026,-0.24444 0.36659,-0.16296 0.40732,-0.12222 0.40732,-0.12222 0.44806,-0.0815 h 0.32586 l 0.40732,-0.0407 0.36659,-0.0407 z m 19.59223,4.6851 h 0.28513 l 0.28512,0.0815 0.2444,0.0407 0.24439,0.0815 0.20366,0.16296 0.20366,0.16296 0.20366,0.2037 0.16293,0.24444 0.20366,0.36666 0.20367,0.44814 0.16292,0.44814 0.0815,0.44814 0.20366,0.73332 0.16293,0.73332 0.1222,0.73332 0.0815,0.77406 0.1222,0.73332 0.12219,0.77406 0.0815,0.73332 0.0815,0.73332 v 0.8148 l 0.0407,0.77406 0.0407,0.77406 v 0.8148 0.85554 l -0.0407,0.89628 -0.0815,0.89628 -0.0815,0.89628 -0.0815,0.89628 -0.12219,0.89628 -0.1222,0.89628 -0.1222,0.85554 -0.16293,0.65184 -0.20366,0.6111 -0.20366,0.57036 -0.20366,0.57036 -0.28513,0.6111 -0.28512,0.52962 -0.16293,0.2037 -0.16293,0.16296 -0.16293,0.16296 -0.20366,0.16296 -0.20366,0.12222 -0.2444,0.0815 -0.20366,0.0407 -0.20366,0.0407 -0.28513,-0.0407 -0.28512,-0.0407 -0.2444,-0.0815 -0.24439,-0.12222 -0.20366,-0.16296 -0.16293,-0.16296 -0.1222,-0.16296 -0.0815,-0.2037 -0.20366,-0.2037 -0.16293,-0.28518 -0.16293,-0.32592 -0.16293,-0.32592 -0.20366,-0.52962 -0.16293,-0.6111 -0.16293,-0.6111 -0.1222,-0.65184 -0.12219,-0.85554 -0.1222,-0.93702 -0.0815,-0.93702 -0.0815,-0.89628 -0.0407,-0.85554 -0.0815,-0.89628 -0.0407,-0.89628 v -0.8148 -0.8148 l 0.0407,-0.77406 0.0815,-0.77406 0.0407,-0.8148 0.0815,-0.77406 0.0815,-0.77406 0.1222,-0.73332 0.12219,-0.77406 0.1222,-0.73332 0.16293,-0.69258 0.16293,-0.69258 0.20366,-0.69258 0.1222,-0.44814 0.16292,-0.48888 0.2444,-0.44814 0.24439,-0.4074 0.16293,-0.24444 0.16293,-0.2037 0.16293,-0.16296 0.20366,-0.16296 0.40732,-0.12222 z m 0,-4.6851 h 0.48879 l 0.52952,0.0407 0.48878,0.12222 0.48879,0.12222 0.52952,0.2037 0.52952,0.24444 0.48879,0.28518 0.44805,0.32592 0.44806,0.32592 0.40732,0.4074 0.36659,0.4074 0.36659,0.48888 0.52952,0.8148 0.44806,0.8148 0.40732,0.89628 0.32586,0.89628 0.28513,0.93702 0.20366,0.89628 0.20366,0.89628 0.16293,0.93702 0.12219,0.93702 0.1222,0.97776 0.0815,0.97776 0.0815,0.93702 v 1.14072 l -0.0407,1.14072 v 1.09998 l -0.0815,1.14072 -0.0815,1.0185 -0.1222,1.0185 -0.16293,1.0185 -0.20366,1.05924 -0.24439,1.18146 -0.28513,1.14072 -0.32586,1.14072 -0.40732,1.14072 -0.16293,0.48888 -0.24439,0.48888 -0.2444,0.48888 -0.28512,0.48888 -0.28513,0.44814 -0.32586,0.44814 -0.36659,0.44814 -0.36659,0.36666 -0.44805,0.4074 -0.48879,0.32592 -0.52952,0.32592 -0.52952,0.24444 -0.52952,0.2037 -0.61098,0.16296 -0.57026,0.0815 -0.61098,0.0815 -0.52952,-0.0407 -0.57025,-0.0407 -0.52952,-0.12222 -0.52952,-0.12222 -0.52952,-0.2037 -0.52952,-0.2037 -0.44806,-0.28518 -0.44805,-0.32592 -0.48879,-0.44814 -0.40732,-0.44814 -0.40733,-0.52962 -0.36659,-0.52962 -0.28512,-0.52962 -0.28513,-0.6111 -0.24439,-0.57036 -0.20366,-0.57036 -0.40733,-1.09998 -0.32585,-1.09998 -0.2444,-1.18146 -0.20366,-1.14072 -0.16293,-1.0185 -0.1222,-1.0185 -0.12219,-1.05924 -0.0407,-1.0185 -0.0815,-1.05924 -0.0407,-1.05924 -0.0407,-1.05924 0.0407,-1.05924 0.0407,-1.0185 0.0815,-1.0185 0.16292,-1.05924 0.20367,-1.0185 0.16292,-0.89628 0.20367,-0.89628 0.24439,-0.89628 0.24439,-0.85554 0.32586,-0.93702 0.36659,-0.93702 0.20366,-0.4074 0.20367,-0.44814 0.24439,-0.4074 0.28513,-0.4074 0.36659,-0.48888 0.40732,-0.4074 0.44805,-0.4074 0.44806,-0.36666 0.48879,-0.32592 0.48878,-0.28518 0.52952,-0.24444 0.57026,-0.16296 0.44805,-0.12222 0.44806,-0.12222 0.48878,-0.0407 z m -23.99132,264.81 0.0815,31.85868 h -4.68421 l -0.1222,-23.87364 -0.12219,0.0815 -0.16293,0.0815 -0.32586,0.36666 -0.32586,0.32592 -0.57025,0.32592 -0.57025,0.32592 -0.48879,0.32592 -0.48879,0.24444 -0.20366,0.16296 -0.16293,0.0407 -2.32174,-3.82956 0.20366,-0.16296 0.16293,-0.12222 0.44806,-0.24444 0.44805,-0.24444 0.40733,-0.28518 0.44805,-0.28518 0.48879,-0.44814 0.44805,-0.44814 0.44806,-0.44814 0.44805,-0.48888 0.36659,-0.52962 0.3666,-0.52962 0.28512,-0.57036 0.32586,-0.57036 0.1222,-0.24444 0.12219,-0.24444 0.1222,-0.28518 0.0815,-0.28518 z m 30.0197,4.39992 0.28512,-0.0407 0.2444,0.0407 0.28512,0.0815 0.2444,0.12222 0.20366,0.16296 0.16293,0.2037 0.16293,0.2037 0.16293,0.2037 0.24439,0.36666 0.20366,0.44814 0.16293,0.44814 0.16293,0.44814 0.1222,0.73332 0.16293,0.73332 0.12219,0.69258 0.16293,0.73332 0.0407,0.77406 0.0815,0.77406 0.0815,0.73332 0.0815,0.77406 0.0407,0.8148 0.0407,0.77406 v 0.77406 0.73332 0.89628 0.89628 l -0.0815,0.89628 -0.1222,0.85554 -0.0407,0.93702 -0.1222,0.93702 -0.12219,0.89628 -0.16293,0.85554 -0.16293,0.6111 -0.16293,0.57036 -0.20366,0.57036 -0.2444,0.57036 -0.0815,0.28518 -0.16293,0.32592 -0.1222,0.28518 -0.20366,0.24444 -0.28513,0.36666 -0.28512,0.32592 -0.2444,0.12222 -0.20366,0.0815 -0.24439,0.0407 -0.28513,0.0407 -0.28512,-0.0407 -0.2444,-0.0407 -0.24439,-0.0815 -0.28513,-0.12222 -0.28512,-0.32592 -0.28513,-0.36666 -0.28512,-0.48888 -0.28513,-0.57036 -0.20366,-0.57036 -0.16293,-0.6111 -0.16293,-0.6111 -0.16293,-0.6111 -0.1222,-0.85554 -0.16293,-0.93702 -0.0815,-0.93702 -0.1222,-0.89628 v -0.89628 l -0.0407,-0.89628 -0.0407,-0.89628 v -0.85554 -0.8148 -0.77406 l 0.0407,-0.8148 0.0407,-0.77406 0.16293,-0.73332 0.0815,-0.77406 0.12219,-0.77406 0.1222,-0.77406 0.16293,-0.69258 0.1222,-0.69258 0.16293,-0.69258 0.12219,-0.73332 0.16293,-0.44814 0.20366,-0.44814 0.20367,-0.44814 0.20366,-0.36666 0.16293,-0.2037 0.20366,-0.2037 0.20366,-0.2037 0.20366,-0.16296 0.44806,-0.12222 z m -0.0815,-4.6851 h 0.52952 l 0.52952,0.0815 0.52952,0.0815 0.52952,0.12222 0.48879,0.2037 0.48879,0.24444 0.48879,0.28518 0.44805,0.32592 0.40732,0.32592 0.40733,0.36666 0.36659,0.4074 0.36659,0.44814 0.52952,0.8148 0.48878,0.85554 0.40733,0.93702 0.36659,0.93702 0.28512,0.85554 0.20367,0.93702 0.20366,0.89628 0.0815,0.93702 0.1222,0.93702 0.1222,0.97776 0.0815,0.93702 0.0815,1.0185 v 1.05924 l -0.0407,1.14072 v 1.09998 l -0.0815,1.09998 -0.0815,1.0185 -0.12219,1.0185 -0.1222,1.0185 -0.1222,1.05924 -0.24439,1.14072 -0.28513,1.18146 -0.32586,1.14072 -0.40732,1.14072 -0.48879,0.97776 -0.52952,0.97776 -0.32585,0.44814 -0.32586,0.44814 -0.36659,0.4074 -0.36659,0.4074 -0.44806,0.36666 -0.48879,0.32592 -0.48878,0.32592 -0.52952,0.24444 -0.57026,0.2037 -0.57025,0.16296 -0.57025,0.12222 -0.57025,0.0815 -0.57025,-0.0407 -0.52952,-0.0815 -0.57026,-0.0815 -0.52952,-0.16296 -0.48878,-0.2037 -0.52952,-0.2037 -0.44806,-0.28518 -0.44805,-0.28518 -0.48879,-0.44814 -0.44806,-0.44814 -0.36659,-0.52962 -0.36659,-0.52962 -0.32586,-0.57036 -0.28512,-0.57036 -0.28513,-0.57036 -0.20366,-0.57036 -0.36659,-1.09998 -0.28513,-1.14072 -0.28512,-1.14072 -0.2444,-1.14072 -0.12219,-1.0185 -0.0815,-1.0185 -0.0815,-1.05924 -0.0815,-1.0185 -0.0815,-1.0185 -0.0407,-1.05924 v -1.0185 l 0.0407,-1.0185 v -1.05924 l 0.1222,-1.0185 0.16293,-1.05924 0.16292,-1.0185 0.16293,-0.93702 0.16293,-0.89628 0.20366,-0.93702 0.2444,-0.85554 0.32586,-0.89628 0.40732,-0.89628 0.20366,-0.44814 0.24439,-0.44814 0.28513,-0.4074 0.28513,-0.36666 0.36659,-0.44814 0.40732,-0.44814 0.40732,-0.4074 0.44806,-0.36666 0.48879,-0.32592 0.48878,-0.28518 0.48879,-0.24444 0.52952,-0.16296 0.48879,-0.12222 0.44805,-0.0815 0.44806,-0.0815 z m -10.18307,27.9069 v 4.23696 h -16.49658 l -0.0815,-2.77032 0.0407,-0.6111 0.1222,-0.69258 0.16293,-0.65184 0.12219,-0.52962 0.16293,-0.6111 0.20366,-0.6111 0.2444,-0.57036 0.28512,-0.52962 0.44806,-0.97776 0.52952,-0.97776 0.52952,-0.93702 0.57025,-0.93702 0.57025,-0.77406 0.57026,-0.77406 0.52952,-0.73332 0.57025,-0.69258 0.32586,-0.52962 0.40732,-0.52962 4.15469,-5.2962 0.2444,-0.32592 0.36659,-0.44814 0.32585,-0.4074 0.20367,-0.32592 0.12219,-0.44814 0.16293,-0.44814 0.0815,-0.4074 v -0.44814 -0.28518 l -0.0407,-0.28518 -0.0407,-0.32592 -0.12219,-0.28518 -0.0815,-0.28518 -0.1222,-0.24444 -0.16293,-0.24444 -0.16292,-0.24444 -0.32586,-0.32592 -0.32586,-0.28518 -0.32586,-0.28518 -0.36659,-0.2037 -0.40732,-0.12222 -0.40733,-0.12222 -0.40732,-0.0815 h -0.40732 -0.36659 l -0.36659,0.0407 -0.32586,0.0815 -0.32586,0.12222 -0.28513,0.16296 -0.28512,0.2037 -0.28513,0.2037 -0.28512,0.24444 -0.20367,0.16296 -0.16292,0.2037 -0.16293,0.24444 -0.16293,0.2037 -0.1222,0.28518 -0.1222,0.24444 -0.0407,0.28518 -0.0815,0.28518 v 0.52962 0.6111 1.05924 h -4.68422 l -0.0407,-0.44814 -0.0407,-0.4074 0.0407,-0.48888 0.0407,-0.48888 v -0.44814 l 0.0815,-0.4074 0.0407,-0.36666 0.0815,-0.32592 0.16293,-0.65184 0.2444,-0.65184 0.32586,-0.6111 0.32585,-0.57036 0.44806,-0.57036 0.44805,-0.48888 0.48879,-0.48888 0.52952,-0.44814 0.52952,-0.4074 0.57025,-0.32592 0.61099,-0.28518 0.61098,-0.24444 0.65172,-0.2037 0.65172,-0.16296 0.69244,-0.0815 0.65172,-0.0407 0.77392,0.0407 0.69244,0.0815 0.73319,0.16296 0.69244,0.2037 0.65172,0.24444 0.65172,0.32592 0.61098,0.36666 0.57025,0.4074 0.44806,0.4074 0.44805,0.44814 0.36659,0.48888 0.3666,0.48888 0.32585,0.52962 0.28513,0.57036 0.24439,0.6111 0.20366,0.57036 0.20367,0.57036 0.0815,0.6111 0.0815,0.57036 0.0407,0.57036 -0.0407,0.65184 -0.0815,0.65184 -0.0815,0.65184 -0.20367,0.6111 -0.12219,0.36666 -0.16293,0.36666 -0.1222,0.36666 -0.16293,0.36666 -0.44805,0.57036 -0.40733,0.57036 -6.15057,7.98504 -0.32586,0.36666 -0.32586,0.48888 -0.24439,0.28518 -0.2444,0.32592 -0.24439,0.36666 -0.24439,0.36666 -0.28513,0.44814 -0.28512,0.52962 -0.2444,0.52962 -0.24439,0.48888 -0.20366,0.4074 -0.16293,0.36666 -0.1222,0.4074 -0.0815,0.36666 -0.0407,0.32592 -0.0407,0.32592 z m -19.38857,-159.9045 0.1222,31.89942 h -4.60275 l -0.1222,-23.91438 -0.12219,0.0815 -0.16293,0.12222 -0.36659,0.36666 -0.40733,0.28518 -0.52952,0.32592 -0.52952,0.36666 -0.44805,0.32592 -0.48879,0.24444 -0.20366,0.12222 -0.20366,0.0407 -2.40321,-3.91104 0.16293,-0.0407 0.0815,-0.0407 0.0815,-0.0407 0.0815,-0.0815 0.48878,-0.24444 0.44806,-0.24444 0.44805,-0.28518 0.44806,-0.28518 0.48879,-0.4074 0.44805,-0.44814 0.44806,-0.48888 0.40732,-0.48888 0.36659,-0.48888 0.36659,-0.57036 0.32586,-0.57036 0.28512,-0.57036 0.20367,-0.48888 0.28512,-0.57036 z m 10.54966,4.31844 0.28513,0.0407 0.24439,0.0407 0.28513,0.0815 0.24439,0.12222 0.2444,0.16296 0.20366,0.2037 0.16293,0.2037 0.16293,0.2037 0.20366,0.4074 0.16293,0.44814 0.16293,0.44814 0.16293,0.44814 0.12219,0.69258 0.16293,0.73332 0.1222,0.73332 0.16293,0.69258 0.0815,0.77406 0.0815,0.77406 0.0815,0.77406 0.0407,0.77406 0.0407,0.77406 0.0407,0.77406 v 0.77406 0.73332 0.93702 0.89628 l -0.0407,0.85554 -0.0407,0.85554 -0.0815,0.93702 -0.1222,0.93702 -0.16293,0.89628 -0.20366,0.89628 -0.16293,0.57036 -0.16293,0.57036 -0.16293,0.57036 -0.20366,0.57036 -0.12219,0.32592 -0.16293,0.28518 -0.16293,0.32592 -0.20366,0.24444 -0.28513,0.36666 -0.28513,0.28518 -0.24439,0.12222 -0.20366,0.0815 -0.20366,0.0815 h -0.2444 -0.28512 l -0.28513,-0.0815 -0.28512,-0.0815 -0.28513,-0.12222 -0.1222,-0.12222 -0.16293,-0.16296 -0.0815,-0.16296 -0.1222,-0.2037 -0.20366,-0.24444 -0.16293,-0.28518 -0.16293,-0.28518 -0.12219,-0.36666 -0.20367,-0.52962 -0.16292,-0.57036 -0.16293,-0.65184 -0.16293,-0.65184 -0.1222,-0.8148 -0.0815,-0.89628 -0.0815,-0.93702 -0.0815,-0.89628 -0.0815,-0.85554 -0.0407,-0.89628 -0.0407,-0.89628 -0.0407,-0.89628 0.0407,-0.77406 0.0407,-0.8148 0.0407,-0.77406 0.0815,-0.8148 0.0815,-0.73332 0.0815,-0.73332 0.0815,-0.8148 0.1222,-0.77406 0.16293,-0.65184 0.16293,-0.69258 0.16292,-0.73332 0.20367,-0.69258 0.0815,-0.44814 0.16293,-0.44814 0.20366,-0.44814 0.20366,-0.4074 0.16293,-0.2037 0.20366,-0.2037 0.20366,-0.2037 0.20367,-0.16296 0.44805,-0.12222 z m 0,-4.60362 0.52952,0.0407 0.48879,0.0407 0.52952,0.0815 0.48879,0.12222 0.52952,0.2037 0.48879,0.24444 0.48878,0.28518 0.44806,0.32592 0.40732,0.32592 0.40732,0.4074 0.40733,0.4074 0.36659,0.4074 0.28512,0.4074 0.2444,0.4074 0.24439,0.44814 0.2444,0.44814 0.40732,0.89628 0.32586,0.93702 0.24439,0.89628 0.24439,0.89628 0.20367,0.93702 0.16292,0.93702 0.1222,0.93702 0.0815,0.93702 0.0407,0.97776 0.0407,0.97776 0.0407,1.05924 -0.0407,1.09998 -0.0407,1.09998 -0.0815,1.14072 -0.0407,1.0185 -0.1222,1.0185 -0.12219,1.0185 -0.16293,1.09998 -0.2444,1.14072 -0.28512,1.14072 -0.32586,1.09998 -0.40732,1.09998 -0.44806,1.0185 -0.52952,1.0185 -0.28512,0.44814 -0.32586,0.48888 -0.32586,0.4074 -0.40732,0.36666 -0.44806,0.36666 -0.48879,0.36666 -0.52952,0.28518 -0.52952,0.24444 -0.52952,0.2037 -0.57025,0.16296 -0.61098,0.0815 -0.61099,0.0407 h -0.52952 l -0.52952,-0.0407 -0.57025,-0.0815 -0.52952,-0.16296 -0.52952,-0.16296 -0.48878,-0.24444 -0.48879,-0.28518 -0.44806,-0.28518 -0.44805,-0.4074 -0.40733,-0.48888 -0.40732,-0.48888 -0.36659,-0.52962 -0.32586,-0.57036 -0.28512,-0.57036 -0.2444,-0.57036 -0.20366,-0.6111 -0.40732,-1.09998 -0.32586,-1.09998 -0.24439,-1.14072 -0.16293,-1.14072 -0.20366,-1.05924 -0.1222,-1.0185 -0.0815,-1.05924 -0.0815,-1.0185 -0.0815,-1.0185 -0.0407,-1.0185 v -1.05924 l 0.0407,-1.0185 0.0407,-1.0185 0.0815,-1.05924 0.16293,-1.0185 0.20366,-1.0185 0.1222,-0.93702 0.20366,-0.93702 0.20366,-0.89628 0.20366,-0.89628 0.36659,-0.89628 0.40733,-0.89628 0.20366,-0.44814 0.24439,-0.44814 0.2444,-0.36666 0.28512,-0.4074 0.36659,-0.44814 0.40733,-0.44814 0.40732,-0.4074 0.44805,-0.36666 0.48879,-0.32592 0.52952,-0.28518 0.52952,-0.2037 0.57025,-0.2037 0.40733,-0.12222 0.44805,-0.0815 0.44806,-0.0407 z m 18.73686,4.60362 0.28512,0.0407 0.28513,0.0407 0.24439,0.0815 0.2444,0.12222 0.20366,0.16296 0.20366,0.2037 0.20366,0.2037 0.16293,0.2037 0.20366,0.4074 0.20366,0.44814 0.16293,0.44814 0.0815,0.44814 0.20366,0.69258 0.16293,0.73332 0.12219,0.73332 0.0815,0.69258 0.1222,0.77406 0.12219,0.77406 0.0815,0.77406 0.0815,0.77406 0.0407,0.77406 0.0407,0.77406 v 0.77406 0.73332 0.93702 l -0.0407,0.89628 -0.0815,0.85554 -0.0815,0.85554 -0.0815,0.93702 -0.1222,0.93702 -0.12219,0.89628 -0.1222,0.89628 -0.16293,0.57036 -0.20366,0.57036 -0.20366,0.57036 -0.20366,0.57036 -0.28513,0.6111 -0.28513,0.57036 -0.16292,0.2037 -0.16293,0.16296 -0.16293,0.16296 -0.20366,0.12222 -0.20367,0.12222 -0.24439,0.0815 -0.20366,0.0815 h -0.20366 -0.28513 l -0.28512,-0.0815 -0.2444,-0.0815 -0.24439,-0.12222 -0.28513,-0.28518 -0.28512,-0.36666 -0.16293,-0.24444 -0.16293,-0.28518 -0.16293,-0.28518 -0.0815,-0.36666 -0.28512,-0.52962 -0.16293,-0.57036 -0.16293,-0.65184 -0.0815,-0.65184 -0.12219,-0.8148 -0.16293,-0.89628 -0.0815,-0.93702 -0.12219,-0.89628 -0.0407,-0.85554 -0.0815,-0.89628 -0.0407,-0.89628 v -0.89628 -0.77406 l 0.0407,-0.8148 0.0815,-0.77406 0.0407,-0.8148 0.12219,-0.73332 0.0815,-0.73332 0.16293,-0.8148 0.12219,-0.77406 0.0815,-0.65184 0.1222,-0.69258 0.16293,-0.73332 0.20366,-0.69258 0.16293,-0.44814 0.16293,-0.44814 0.20366,-0.44814 0.24439,-0.4074 0.16293,-0.2037 0.16293,-0.2037 0.20366,-0.2037 0.24439,-0.16296 0.36659,-0.12222 z m 0,-4.60362 0.48879,0.0407 0.52951,0.0407 0.48879,0.0815 0.48879,0.12222 0.52952,0.2037 0.52952,0.24444 0.48879,0.28518 0.44805,0.32592 0.44806,0.32592 0.40732,0.4074 0.36659,0.4074 0.36659,0.4074 0.2444,0.4074 0.28512,0.4074 0.24439,0.44814 0.20367,0.44814 0.40732,0.89628 0.32586,0.93702 0.28512,0.89628 0.20366,0.89628 0.20367,0.93702 0.16293,0.93702 0.12219,0.93702 0.0815,0.93702 0.0815,0.97776 v 0.97776 l 0.0815,1.05924 v 1.09998 1.09998 l -0.0815,1.14072 -0.0815,1.0185 -0.1222,1.0185 -0.16293,1.0185 -0.20366,1.09998 -0.24439,1.14072 -0.28513,1.14072 -0.32586,1.09998 -0.40732,1.09998 -0.16293,0.52962 -0.24439,0.48888 -0.2444,0.52962 -0.28512,0.48888 -0.28513,0.44814 -0.32586,0.48888 -0.36659,0.4074 -0.36659,0.36666 -0.44805,0.36666 -0.48879,0.36666 -0.48879,0.28518 -0.52952,0.24444 -0.57025,0.2037 -0.57025,0.16296 -0.57026,0.0815 -0.57025,0.0407 h -0.57025 l -0.57025,-0.0407 -0.57025,-0.0815 -0.52952,-0.16296 -0.52952,-0.16296 -0.52952,-0.24444 -0.44806,-0.28518 -0.44805,-0.28518 -0.44806,-0.4074 -0.44805,-0.48888 -0.36659,-0.48888 -0.3666,-0.52962 -0.28512,-0.57036 -0.28513,-0.57036 -0.28512,-0.57036 -0.20366,-0.6111 -0.40733,-1.09998 -0.32586,-1.09998 -0.24439,-1.14072 -0.20366,-1.14072 -0.1222,-1.05924 -0.1222,-1.0185 -0.12219,-1.05924 -0.0815,-1.0185 -0.0815,-1.0185 -0.0407,-1.0185 v -1.05924 -1.0185 l 0.0815,-1.0185 0.1222,-1.05924 0.12219,-1.0185 0.16293,-1.0185 0.16293,-0.93702 0.20366,-0.93702 0.2444,-0.89628 0.24439,-0.89628 0.32586,-0.89628 0.40732,-0.89628 0.20366,-0.44814 0.2444,-0.44814 0.28512,-0.36666 0.28513,-0.4074 0.32586,-0.44814 0.40732,-0.44814 0.40732,-0.4074 0.44806,-0.36666 0.48879,-0.32592 0.48878,-0.28518 0.52952,-0.2037 0.52952,-0.2037 0.44806,-0.12222 0.44805,-0.0815 0.48879,-0.0407 z m -5.37666,-263.87298 -0.44806,0.0407 -0.40732,0.0815 -0.44806,0.0815 -0.40732,0.0815 -0.57025,0.2037 -0.52952,0.24444 -0.52952,0.28518 -0.44806,0.32592 -0.44805,0.36666 -0.40733,0.4074 -0.40732,0.4074 -0.32586,0.44814 -0.28512,0.4074 -0.2444,0.44814 -0.24439,0.4074 -0.24439,0.44814 -0.36659,0.89628 -0.32586,0.85554 -0.28513,0.89628 -0.24439,0.89628 -0.20366,0.93702 -0.16293,0.93702 -0.1222,0.97776 -0.1222,0.97776 -0.12219,1.05924 -0.0815,1.0185 v 1.0185 1.0185 l 0.0407,1.05924 0.0407,1.0185 0.0815,1.0185 0.1222,1.05924 0.12219,1.0185 0.16293,1.0185 0.20366,1.09998 0.2444,1.14072 0.16293,0.52962 0.16293,0.57036 0.16293,0.52962 0.20366,0.57036 0.24439,0.57036 0.24439,0.57036 0.28513,0.57036 0.32586,0.57036 0.32586,0.52962 0.40732,0.52962 0.40732,0.44814 0.44806,0.4074 0.44805,0.32592 0.44806,0.28518 0.48879,0.2037 0.52952,0.2037 0.52952,0.16296 0.57025,0.0815 0.52952,0.0815 h 0.57025 l 0.57025,-0.0407 0.57025,-0.12222 0.57026,-0.16296 0.57025,-0.2037 0.52952,-0.24444 0.48879,-0.32592 0.48878,-0.32592 0.44806,-0.36666 0.36659,-0.4074 0.36659,-0.4074 0.32586,-0.4074 0.32586,-0.48888 0.24439,-0.44814 0.24439,-0.48888 0.2444,-0.52962 0.20366,-0.48888 0.36659,-1.09998 0.32586,-1.18146 0.28512,-1.14072 0.2444,-1.18146 0.20366,-1.0185 0.1222,-0.97776 0.0815,-1.0185 0.0815,-1.0185 0.0815,-1.09998 0.0407,-1.09998 v -1.09998 l -0.0407,-1.09998 v -0.97776 l -0.0407,-0.93702 -0.1222,-0.97776 -0.1222,-0.97776 -0.16293,-0.85554 -0.20366,-0.89628 -0.20366,-0.89628 -0.28512,-0.89628 -0.32586,-0.93702 -0.40733,-0.89628 -0.20366,-0.4074 -0.24439,-0.44814 -0.28513,-0.36666 -0.24439,-0.4074 -0.36659,-0.4074 -0.36659,-0.4074 -0.40733,-0.4074 -0.44805,-0.32592 -0.44806,-0.32592 -0.48878,-0.28518 -0.52952,-0.24444 -0.52952,-0.16296 -0.44806,-0.16296 -0.48879,-0.12222 -0.52951,-0.0815 z m -12.46409,0.4074 h -15.19314 v 16.58118 l 4.52128,1.05924 v -0.12222 l 0.0815,-0.16296 0.1222,-0.24444 0.0815,-0.2037 0.24439,-0.32592 0.28513,-0.24444 0.28513,-0.28518 0.32585,-0.2037 0.44806,-0.2037 0.44805,-0.16296 0.44806,-0.0815 0.48879,-0.0407 h 0.28512 l 0.28513,0.0407 0.28513,0.0407 0.28512,0.0815 0.2444,0.0815 0.28512,0.16296 0.2444,0.16296 0.20366,0.2037 0.32585,0.32592 0.32586,0.4074 0.28513,0.48888 0.20366,0.48888 0.16293,0.36666 0.1222,0.36666 0.12219,0.4074 0.0815,0.4074 0.1222,0.48888 0.0407,0.52962 0.0407,0.48888 v 0.48888 0.52962 0.48888 l -0.0407,0.44814 -0.0815,0.44814 -0.12219,0.48888 -0.1222,0.48888 -0.1222,0.44814 -0.20366,0.4074 -0.24439,0.44814 -0.28513,0.4074 -0.36659,0.36666 -0.32586,0.32592 -0.44805,0.24444 -0.48879,0.24444 -0.28513,0.0815 -0.24439,0.0407 -0.28513,0.0407 h -0.28512 l -0.48879,-0.0407 -0.48879,-0.0815 -0.48878,-0.2037 -0.44806,-0.24444 -0.40732,-0.28518 -0.36659,-0.36666 -0.16293,-0.16296 -0.1222,-0.2037 -0.0815,-0.2037 -0.1222,-0.2037 -0.1222,-0.32592 -0.16293,-0.24444 -4.31762,1.2222 0.1222,0.28518 0.0815,0.28518 0.1222,0.4074 0.16293,0.36666 0.16293,0.36666 0.24439,0.32592 0.36659,0.57036 0.40732,0.48888 0.44806,0.48888 0.48879,0.44814 0.52952,0.4074 0.52952,0.36666 0.61098,0.32592 0.65172,0.24444 0.77391,0.24444 0.77391,0.2037 0.40733,0.0407 0.40732,0.0407 h 0.40732 l 0.36659,-0.0407 0.65172,-0.0407 0.65172,-0.0815 0.65171,-0.16296 0.65172,-0.2037 0.61098,-0.28518 0.61099,-0.28518 0.57025,-0.36666 0.48879,-0.4074 0.57025,-0.48888 0.44806,-0.57036 0.44805,-0.57036 0.36659,-0.57036 0.36659,-0.73332 0.28513,-0.73332 0.28512,-0.77406 0.20367,-0.73332 0.20366,-0.85554 0.16293,-0.85554 0.0815,-0.89628 0.0407,-0.85554 -0.0407,-0.8148 -0.0815,-0.8148 -0.1222,-0.8148 -0.1222,-0.8148 -0.20366,-0.73332 -0.20366,-0.8148 -0.32586,-0.77406 -0.32586,-0.73332 -0.36659,-0.65184 -0.44805,-0.6111 -0.2444,-0.32592 -0.24439,-0.28518 -0.24439,-0.28518 -0.28513,-0.24444 -0.57025,-0.48888 -0.65172,-0.4074 -0.65172,-0.32592 -0.69244,-0.32592 -0.69245,-0.2037 -0.69245,-0.12222 -0.69245,-0.12222 -0.73318,-0.0407 -0.69245,0.0407 -0.73318,0.12222 -0.69245,0.12222 -0.65172,0.2037 -0.16293,0.12222 -0.12219,0.0815 v -7.00728 h 10.46819 z m 12.54555,4.31844 h 0.28513 0.24439 l 0.24439,0.0815 0.28513,0.12222 0.20366,0.16296 0.16293,0.16296 0.16293,0.2037 0.16293,0.2037 0.24439,0.4074 0.20366,0.44814 0.1222,0.44814 0.0815,0.44814 0.20367,0.73332 0.16293,0.69258 0.12219,0.73332 0.0815,0.73332 0.12219,0.73332 0.1222,0.73332 0.0815,0.77406 0.0815,0.73332 0.0407,0.77406 0.0407,0.77406 v 0.8148 0.77406 0.89628 l -0.0407,0.85554 -0.0815,0.85554 -0.0815,0.85554 -0.0815,0.93702 -0.1222,0.89628 -0.1222,0.85554 -0.12219,0.85554 -0.16293,0.65184 -0.16293,0.6111 -0.20366,0.57036 -0.2444,0.57036 -0.24439,0.57036 -0.32586,0.57036 -0.28512,0.32592 -0.28513,0.28518 -0.24439,0.12222 -0.20366,0.0815 -0.2444,0.0407 -0.28512,0.0407 h -0.2444 l -0.24439,-0.0407 -0.28513,-0.0815 -0.28512,-0.16296 -0.1222,-0.12222 -0.16293,-0.16296 -0.1222,-0.16296 -0.0815,-0.16296 -0.36659,-0.57036 -0.28513,-0.57036 -0.20366,-0.57036 -0.16293,-0.6111 -0.16293,-0.6111 -0.16293,-0.6111 -0.12219,-0.85554 -0.0815,-0.89628 -0.0815,-0.93702 -0.0815,-0.85554 -0.0815,-0.85554 -0.0407,-0.89628 -0.0407,-0.89628 -0.0407,-0.89628 0.0407,-0.77406 0.0407,-0.77406 0.0407,-0.73332 0.0815,-0.77406 0.0815,-0.77406 0.0815,-0.77406 0.0815,-0.77406 0.12219,-0.77406 0.16293,-0.65184 0.16293,-0.69258 0.16293,-0.73332 0.20366,-0.69258 0.0815,-0.44814 0.16293,-0.44814 0.20366,-0.44814 0.20366,-0.4074 0.16293,-0.2037 0.20366,-0.2037 0.20366,-0.16296 0.20366,-0.16296 0.44806,-0.16296 z"
       id="path848" />
    <path
       style="fill:#00ba00;fill-opacity:1;fill-rule:evenodd;stroke:none"
       d="m 99.916308,509.00556 h 2.403202 l -0.69245,25.0551 h -7.942792 z m 6.232042,0 0.36659,25.0551 h 7.98353 l -6.06911,-25.0551 z m -31.282401,29.29206 v 3.54438 h 6.883758 v 7.00728 h 3.38078 l 1.914417,-7.00728 h 33.970726 l 1.6293,7.00728 h 3.46224 V 541.842 h 7.08742 v -3.54438 z m 15.926326,7.00728 -12.667742,51.25092 H 100.4051 l 1.0183,-51.16944 z m 15.844865,0 0.44805,51.25092 h 22.0769 L 117.1868,545.3049 Z M 70.711256,600.01872 H 137.43075 V 505.46118 H 70.711256 Z m 12.871404,-186.14106 -0.325859,0.0407 -0.285126,0.0407 -0.325858,0.0815 -0.285126,0.12222 -0.285126,0.12222 -0.244394,0.16296 -0.244394,0.16296 -0.244393,0.24444 -0.203662,0.2037 -0.162929,0.24444 -0.162929,0.28518 -0.122197,0.28518 -0.122197,0.28518 -0.08146,0.32592 -0.04073,0.32592 -0.04073,0.32592 0.04073,0.36666 0.04073,0.32592 0.08146,0.28518 0.08146,0.32592 0.122197,0.28518 0.162929,0.24444 0.203661,0.28518 0.203662,0.2037 0.203661,0.2037 0.244394,0.2037 0.244394,0.16296 0.285126,0.12222 0.285126,0.12222 0.325858,0.0815 0.325858,0.0407 0.325859,0.0407 0.325858,-0.0407 0.366591,-0.0407 0.285126,-0.0815 0.325858,-0.12222 0.285126,-0.12222 0.244394,-0.16296 0.244393,-0.2037 0.244394,-0.2037 0.203662,-0.2037 0.203661,-0.28518 0.162929,-0.24444 0.122197,-0.28518 0.122197,-0.32592 0.08146,-0.28518 0.04073,-0.32592 v -0.36666 -0.32592 l -0.04073,-0.32592 -0.08146,-0.32592 -0.122197,-0.28518 -0.122197,-0.28518 -0.162929,-0.28518 -0.203661,-0.24444 -0.203662,-0.2037 -0.244394,-0.24444 -0.244393,-0.16296 -0.244394,-0.16296 -0.285126,-0.12222 -0.325858,-0.12222 -0.285126,-0.0815 -0.366591,-0.0407 z m 14.215569,3.2592 h -6.069111 -0.366591 -0.325858 -0.244394 l -0.285126,0.16296 -0.203662,0.16296 -0.08146,0.16296 -0.122197,0.2037 -2.973457,5.0925 -0.08146,0.28518 v 0.2037 l -0.04073,0.2037 0.04073,0.2037 0.08146,0.2037 0.122197,0.24444 0.162929,0.12222 0.203661,0.0815 0.244394,0.0407 0.244394,0.0407 h 0.203661 0.162929 9.327695 z m 0.773913,0 v 7.41468 h 11.201378 v -7.41468 z m 11.975298,0 v 7.41468 h 9.32769 0.32586 0.24439 l 0.2444,-0.0407 0.20366,-0.0815 0.16293,-0.16296 0.16293,-0.2037 0.0815,-0.16296 0.0407,-0.2037 v -0.24444 l -0.0407,-0.16296 -0.0815,-0.2037 -0.1222,-0.16296 -2.85126,-5.01102 -0.1222,-0.16296 -0.0815,-0.12222 -0.20366,-0.2037 -0.16293,-0.16296 -0.36659,-0.0815 -0.32586,-0.0407 h -0.2444 -0.24439 z m 14.1341,-3.34068 h -0.36659 l -0.32586,0.0815 -0.32586,0.0815 -0.28512,0.12222 -0.28513,0.12222 -0.28512,0.16296 -0.2444,0.2037 -0.24439,0.2037 -0.2444,0.24444 -0.20366,0.28518 -0.16293,0.24444 -0.12219,0.32592 -0.1222,0.28518 -0.0815,0.32592 -0.0407,0.32592 -0.0407,0.32592 0.0407,0.36666 0.0407,0.32592 0.0815,0.28518 0.0815,0.32592 0.16293,0.28518 0.16293,0.28518 0.16293,0.24444 0.20366,0.24444 0.2444,0.2037 0.24439,0.2037 0.28513,0.16296 0.28512,0.12222 0.28513,0.12222 0.32586,0.12222 0.32586,0.0407 0.32585,0.0407 0.36659,-0.0407 0.32586,-0.0407 0.28513,-0.0815 0.32586,-0.12222 0.28512,-0.12222 0.2444,-0.16296 0.24439,-0.2037 0.24439,-0.24444 0.20367,-0.2037 0.20366,-0.28518 0.16293,-0.28518 0.12219,-0.28518 0.1222,-0.28518 0.0815,-0.32592 0.0407,-0.32592 v -0.36666 -0.32592 l -0.0407,-0.32592 -0.0815,-0.32592 -0.1222,-0.28518 -0.12219,-0.28518 -0.16293,-0.28518 -0.20366,-0.24444 -0.20367,-0.24444 -0.20366,-0.2037 -0.24439,-0.2037 -0.28513,-0.16296 -0.24439,-0.12222 -0.28513,-0.12222 -0.32586,-0.12222 -0.28512,-0.0407 z m -1.05904,-2.19996 -6.06911,-8.148 -0.1222,-0.16296 -0.16293,-0.16296 -0.12219,-0.12222 -0.16293,-0.0407 -0.2444,-0.0407 -0.24439,-0.0815 h -0.16293 -0.20366 -23.991319 -0.244394 -0.244394 l -0.203661,0.0815 -0.16293,0.0407 -0.244393,0.12222 -0.162929,0.16296 h -0.04073 l -0.08146,0.0407 -0.04073,0.0815 v 0.0815 l -6.069111,7.9443 h 0.285126 0.285126 l 8.635246,-0.57036 1.018307,-0.0407 1.140504,-0.0407 1.221969,-0.0407 h 1.303433 l 1.262701,-0.0407 h 1.262699 l 1.14051,-0.0407 h 0.97757 1.18124 1.30343 1.3849 l 1.46636,0.0407 h 1.42563 l 1.42563,0.0407 1.30343,0.0407 1.14051,0.0815 9.32769,0.77406 h 0.20366 z m 2.48467,16.13304 h 1.71076 0.20366 0.20366 l 0.1222,-0.0407 0.0815,-0.0407 0.0815,-0.0815 0.0815,-0.12222 0.16293,-0.32592 0.0407,-0.28518 v -0.36666 -0.36666 l -0.0407,-0.48888 -0.0407,-0.48888 v -0.48888 -0.48888 -0.44814 l 0.0407,-0.44814 0.0407,-0.44814 v -0.44814 l 0.0815,-0.52962 0.0815,-0.52962 0.0407,-0.52962 0.0815,-0.52962 0.0815,-0.44814 0.0815,-0.52962 0.0407,-0.48888 0.0815,-0.44814 0.0815,-0.52962 0.1222,-0.65184 0.0407,-0.6111 0.0407,-0.52962 -0.0815,-0.57036 -0.1222,-0.57036 -0.20366,-0.52962 -0.2444,-0.52962 -0.32586,-0.44814 -0.32585,-0.4074 -0.36659,-0.4074 -0.44806,-0.36666 -0.28513,-0.2037 -0.32585,-0.16296 -0.36659,-0.16296 -0.36659,-0.16296 -0.2444,-0.0815 -0.20366,-0.0815 -7.20962,-9.53316 -0.20366,-0.16296 -0.0815,-0.2037 -0.2444,-0.12222 -0.24439,-0.16296 -0.0815,-0.0407 -0.1222,-0.0407 h -0.1222 -0.16293 -0.20366 -0.28512 -25.416953 -0.244394 -0.244393 -0.244394 l -0.203662,0.0815 -0.244393,0.16296 -0.16293,0.12222 -0.122196,0.16296 -0.16293,0.12222 -7.005953,9.49242 -0.203662,0.0815 -0.162929,0.0407 -0.448055,0.0815 -0.407323,0.16296 -0.407323,0.24444 -0.366591,0.28518 -0.488787,0.36666 -0.448055,0.44814 -0.407323,0.52962 -0.325859,0.57036 -0.122196,0.36666 -0.122197,0.36666 -0.122197,0.36666 -0.08146,0.4074 -0.08146,0.36666 v 0.36666 0.36666 l 0.08146,0.36666 0.08146,0.48888 0.08146,0.57036 0.203662,0.73332 0.162929,0.73332 0.122197,0.8148 0.122197,0.77406 v 0.69258 l 0.04073,0.73332 0.04073,0.73332 v 0.6111 l 0.04073,0.65184 0.04073,0.65184 v 0.65184 0.57036 l -0.04073,0.16296 -0.04073,0.2037 0.04073,0.16296 0.04073,0.12222 0.04073,0.12222 0.04073,0.12222 0.04073,0.0815 0.08146,0.0815 0.08147,0.0815 0.08146,0.0815 0.08146,0.0407 0.122197,0.0815 h 0.244394 0.162929 1.832953 v 7.00728 0.12222 0.24444 0.2037 l 0.08146,0.16296 0.203662,0.2037 0.162929,0.12222 h 0.203662 0.203661 2.403205 0.244394 0.203661 l 0.203662,-0.12222 0.122197,-0.0815 0.122197,-0.24444 0.04073,-0.24444 v -0.48888 -6.02952 l 0.570252,0.0815 0.977575,0.0407 1.059039,0.0407 1.099772,0.0815 1.099772,0.0407 1.099772,0.0407 1.099772,0.0407 1.059039,0.0815 0.977575,0.0407 h 1.018307 l 1.018308,0.0407 1.018307,0.0407 1.05904,0.0407 h 1.059047 l 1.0183,0.0407 h 1.01831 1.01831 0.73318 1.01831 l 1.2627,-0.0407 h 1.3849 l 1.34416,-0.0407 1.2627,-0.0407 1.01831,-0.0407 h 0.73318 l 0.93684,-0.0407 h 1.09977 l 1.14051,-0.0407 1.18124,-0.0407 1.1405,-0.0407 1.1405,-0.0815 1.05904,-0.12222 0.93685,-0.12222 0.0815,-0.0815 h 0.16293 l 0.16293,-0.0407 h 0.16293 v 6.35544 0.2037 0.16296 l 0.0407,0.2037 0.0407,0.0815 0.20366,0.16296 0.20367,0.0407 0.12219,0.0815 0.16293,0.0407 h 2.68833 l 0.20366,-0.0407 0.16293,-0.0815 h 0.0815 l 0.12219,-0.0407 0.0815,-0.0815 v -0.0815 l 0.0815,-0.16296 0.0407,-0.2037 0.0815,-0.24444 v -0.12222 z M 70.711256,467.73594 H 137.43075 V 373.1784 H 70.711256 Z"
       id="path850" />
    <path
       style="fill:#000000;fill-opacity:1;fill-rule:evenodd;stroke:none"
       d="m 161.62573,65.34696 -0.20366,-5.66286 -0.73318,0.44814 -0.77392,0.36666 -0.81464,0.28518 -0.85538,0.24444 -0.44806,0.16296 -0.44805,0.08148 -0.44806,0.08148 -0.52952,0.08148 -1.0183,0.08148 h -1.14051 -0.65172 l -0.65171,-0.04074 -0.65172,-0.08148 -0.61098,-0.12222 -0.61099,-0.12222 -0.57025,-0.16296 -0.52952,-0.2037 -0.57025,-0.2037 -0.48879,-0.24444 -0.52952,-0.28518 -0.48879,-0.32592 -0.44805,-0.32592 -0.44806,-0.4074 -0.44805,-0.4074 -0.40732,-0.4074 -0.40733,-0.48888 -0.40732,-0.52962 -0.36659,-0.52962 -0.36659,-0.57036 -0.32586,-0.57036 -0.28513,-0.65184 -0.28512,-0.65184 -0.20366,-0.65184 -0.2444,-0.73332 -0.16293,-0.73332 -0.16293,-0.73332 -0.16292,-0.8148 -0.1222,-0.8148 -0.0815,-0.85554 -0.0407,-0.89628 -0.0407,-0.93702 v -0.93702 -0.89628 l 0.0407,-0.85554 0.0815,-0.8148 0.12219,-0.8148 0.1222,-0.8148 0.16293,-0.77406 0.20366,-0.73332 0.20366,-0.73332 0.28513,-0.65184 0.24439,-0.6111 0.32586,-0.57036 0.28513,-0.57036 0.36659,-0.57036 0.32585,-0.48888 0.3666,-0.48888 0.40732,-0.44814 0.40732,-0.44814 0.40732,-0.36666 0.44806,-0.36666 0.44805,-0.32592 0.44806,-0.32592 0.48879,-0.28518 0.48878,-0.24444 0.48879,-0.24444 0.57025,-0.2037 0.52952,-0.16296 0.57026,-0.16296 0.57025,-0.12222 0.57025,-0.08148 0.57025,-0.08148 0.57025,-0.04074 h 0.57026 l 1.1405,0.04074 1.05904,0.08148 0.52952,0.08148 0.48879,0.12222 0.44805,0.12222 0.44806,0.12222 0.85538,0.36666 0.81464,0.36666 0.77392,0.36666 0.73318,0.32592 0.20366,-5.66286 -0.69245,-0.24444 -0.77391,-0.28518 -0.89612,-0.24444 -1.0183,-0.28518 -1.09977,-0.16296 -1.14051,-0.12222 -1.18123,-0.08148 h -1.26271 l -1.0183,0.04074 -0.93685,0.04074 -0.97757,0.12222 -0.89611,0.16296 -0.89611,0.2037 -0.89611,0.24444 -0.85538,0.28518 -0.81465,0.32592 -0.81464,0.4074 -0.77392,0.4074 -0.73318,0.44814 -0.69245,0.48888 -0.65171,0.52962 -0.61099,0.52962 -0.61098,0.6111 -0.61098,0.6111 -0.52952,0.69258 -0.52952,0.73332 -0.48879,0.77406 -0.44806,0.77406 -0.40732,0.8148 -0.36659,0.8148 -0.36659,0.85554 -0.28513,0.89628 -0.32586,0.93702 -0.24439,0.97776 -0.20366,0.97776 -0.20366,0.97776 -0.1222,1.05924 -0.0815,1.05924 -0.0815,1.05924 v 1.09998 1.0185 l 0.0815,0.97776 0.0815,1.0185 0.1222,0.97776 0.16293,0.97776 0.20366,0.97776 0.24439,0.89628 0.2444,0.93702 0.28512,0.89628 0.28513,0.85554 0.36659,0.8148 0.36659,0.8148 0.40732,0.77406 0.44806,0.73332 0.48878,0.73332 0.52952,0.69258 0.57026,0.69258 0.61098,0.6111 0.65172,0.6111 0.65171,0.52962 0.73319,0.52962 0.73318,0.48888 0.81464,0.44814 0.81465,0.4074 0.85538,0.36666 0.89611,0.32592 0.89611,0.28518 0.97757,0.2037 1.01831,0.16296 1.05904,0.12222 1.05904,0.08148 h 1.09977 1.05904 l 1.09977,-0.08148 1.01831,-0.08148 1.05904,-0.12222 1.01831,-0.2037 0.93684,-0.24444 0.81464,-0.24444 z"
       id="path852" />
    <path
       style="fill:#000000;fill-opacity:1;fill-rule:evenodd;stroke:none"
       d="m 165.82115,66.24324 h 6.06911 V 48.56208 h 12.58628 v 17.68116 h 6.02838 V 27.17358 h -6.02838 V 43.3881 H 171.89026 V 27.17358 h -6.06911 z"
       id="path854" />
  </g>
</svg>
