<?xml version="1.0" encoding="UTF-8" standalone="no"?>
<svg
   xmlns:dc="http://purl.org/dc/elements/1.1/"
   xmlns:cc="http://creativecommons.org/ns#"
   xmlns:rdf="http://www.w3.org/1999/02/22-rdf-syntax-ns#"
   xmlns:svg="http://www.w3.org/2000/svg"
   xmlns="http://www.w3.org/2000/svg"
   xmlns:sodipodi="http://sodipodi.sourceforge.net/DTD/sodipodi-0.dtd"
   xmlns:inkscape="http://www.inkscape.org/namespaces/inkscape"
   version="1.0"
   width="71"
   height="100"
   id="svg884"
   sodipodi:docname="495.svg"
   inkscape:version="1.0.2 (e86c870879, 2021-01-15, custom)">
  <metadata
     id="metadata888">
    <rdf:RDF>
      <cc:Work
         rdf:about="">
        <dc:format>image/svg+xml</dc:format>
        <dc:type
           rdf:resource="http://purl.org/dc/dcmitype/StillImage" />
        <dc:title></dc:title>
      </cc:Work>
    </rdf:RDF>
  </metadata>
  <sodipodi:namedview
     pagecolor="#ffffff"
     bordercolor="#666666"
     borderopacity="1"
     objecttolerance="10"
     gridtolerance="10"
     guidetolerance="10"
     inkscape:pageopacity="0"
     inkscape:pageshadow="2"
     inkscape:window-width="1920"
     inkscape:window-height="1017"
     id="namedview886"
     showgrid="false"
     units="px"
     inkscape:zoom="6.4207155"
     inkscape:cx="14.419016"
     inkscape:cy="61.88003"
     inkscape:window-x="3832"
     inkscape:window-y="-3"
     inkscape:window-maximized="1"
     inkscape:current-layer="svg884" />
  <defs
     id="defs878">
    <pattern
       id="WMFhbasepattern"
       patternUnits="userSpaceOnUse"
       width="6"
       height="6"
       x="0"
       y="0" />
  </defs>
  <rect
     style="fill:#ffffff;stroke:#ffffff;stroke-width:0.1"
     id="rect1455"
     width="70.63488"
     height="98.917549"
     x="0.15574588"
     y="0.21810755" />
  <g
     id="g1453"
     transform="matrix(0.74774391,0,0,0.74774391,0.15574588,0.21810755)">
    <path
       style="fill:#00ba00;fill-opacity:1;fill-rule:evenodd;stroke:none"
       d="m 44.061152,34.56024 -0.157096,0.07441 -0.173632,0.05788 -0.09095,0.0248 -0.09095,0.01654 -0.08268,0.01654 h -0.07441 l -0.14056,0.05788 -0.148827,0.04134 -0.148827,0.04961 -0.148827,0.03307 -0.305923,0.06614 -0.305923,0.04961 -0.305923,0.04134 -0.305923,0.0248 -0.297654,0.01654 -0.289387,0.0083 -0.322459,-0.0083 -0.322459,-0.01654 -0.322459,-0.0248 -0.322459,-0.04134 -0.305923,-0.04961 -0.305923,-0.06614 -0.157095,-0.03307 -0.148828,-0.04961 -0.148827,-0.04134 -0.140559,-0.05788 -0.214973,-0.06614 -0.198436,-0.07441 -0.198437,-0.07441 -0.190168,-0.08268 -0.190168,-0.08268 -0.1819,-0.09095 -0.1819,-0.09095 -0.1819,-0.107484 -0.214973,-0.115752 -0.214973,-0.132288 -0.214973,-0.148824 -0.206704,-0.157092 -0.206705,-0.16536 -0.198436,-0.173628 -0.190169,-0.173628 -0.1819,-0.181896 -0.173631,-0.148824 -0.214973,-0.148824 -0.107487,-0.08268 -0.09922,-0.09095 -0.09095,-0.09922 -0.08268,-0.09922 -14.783512,-0.09922 -8.06148,12.964224 0.0083,0.190164 0.0248,0.198432 0.04134,0.190164 0.04134,0.181896 0.05788,0.181896 0.06615,0.173628 0.07441,0.16536 0.08268,0.16536 0.09095,0.16536 0.107487,0.148824 0.107486,0.148824 0.115755,0.140556 0.124022,0.140556 0.132291,0.12402 0.132291,0.12402 0.140559,0.115752 0.148828,0.107484 0.157095,0.09922 0.165364,0.09095 0.165364,0.07441 0.165363,0.07441 0.173632,0.06614 0.173632,0.05788 0.1819,0.04134 0.190168,0.04134 0.1819,0.0248 0.190169,0.01654 h 0.198436 0.190168 l 0.198437,-0.01654 0.190168,-0.0248 0.198436,-0.04134 6.722034,-10.847616 h 8.061479 L 20.637387,53.667588 V 65.763672 H 9.5001432 l -0.1405591,0.132288 -0.1405592,0.148824 -0.1322909,0.148824 -0.1157546,0.148824 -0.1157545,0.16536 -0.099218,0.157092 -0.09095,0.173628 -0.082682,0.16536 -0.066146,0.173628 -0.066145,0.173628 -0.049609,0.181896 -0.041341,0.173628 -0.033073,0.181896 -0.024805,0.181896 -0.016536,0.181896 -0.00827,0.181896 0.00827,0.181896 0.016536,0.181896 0.024805,0.181896 0.033073,0.181896 0.041341,0.173628 0.049609,0.173628 0.066145,0.173628 0.066146,0.16536 0.082682,0.16536 0.09095,0.16536 0.099218,0.157092 0.1157545,0.148824 0.1157546,0.148824 0.1322909,0.140556 0.1405592,0.140556 0.1405591,0.12402 H 25.920756 V 57.123612 l 9.119807,7.19316 v 14.8824 l 0.124023,0.16536 0.124022,0.157092 0.132291,0.148824 0.148828,0.140556 0.140559,0.12402 0.157095,0.115752 0.157096,0.107484 0.165364,0.09922 0.165363,0.09095 0.173632,0.07441 0.173632,0.07441 0.173632,0.05788 0.1819,0.04961 0.1819,0.03307 0.1819,0.03307 0.1819,0.01654 0.190168,0.0083 h 0.1819 l 0.1819,-0.0083 0.190168,-0.0248 0.181901,-0.03307 0.1819,-0.04134 0.173631,-0.05788 0.173632,-0.05788 0.173632,-0.07441 0.173632,-0.08268 0.165364,-0.09922 0.157095,-0.107484 0.157096,-0.115752 0.148827,-0.12402 0.148827,-0.140556 0.140559,-0.140556 v -17.85888 l -7.970529,-6.24234 6.432647,-10.268856 v 7.292376 H 52.701404 V 47.235084 H 44.061152 Z M 86.204084,80.257476 V 20.926308 H 55.967336 V 80.257476 Z M 92.636731,1.827228 H 1.9182186 V 130.36982 H 92.636731 Z M 25.151815,96.669456 v 7.391594 h 30.04658 l -7.391756,7.20143 h 10.55847 L 69.601571,100.41486 58.365109,89.567244 h -10.55847 l 7.391756,7.102212 z m 15.742622,-75.643932 0.322459,0.0083 0.314191,0.0248 0.314191,0.04134 0.314191,0.04961 0.297655,0.07441 0.297654,0.08268 0.289387,0.09922 0.281118,0.107484 0.281118,0.12402 0.264582,0.140556 0.264582,0.148824 0.256314,0.16536 0.239777,0.173628 0.239778,0.190164 0.22324,0.198432 0.214973,0.2067 0.206705,0.214968 0.198436,0.231504 0.1819,0.239772 0.173632,0.24804 0.165364,0.256308 0.148827,0.264576 0.140559,0.272844 0.124023,0.281112 0.107486,0.28938 0.09922,0.297648 0.08268,0.305916 0.07441,0.305916 0.04961,0.314184 0.04134,0.322452 0.02481,0.322452 0.0083,0.33072 -0.0083,0.322452 -0.02481,0.322452 -0.04134,0.305916 -0.04961,0.314184 -0.07441,0.297648 -0.08268,0.297648 -0.09922,0.28938 -0.107486,0.281112 -0.124023,0.281112 -0.140559,0.264576 -0.148827,0.264576 -0.165364,0.256308 -0.173632,0.239772 -0.1819,0.239772 -0.198436,0.223236 -0.206705,0.214968 -0.214973,0.2067 -0.22324,0.198432 -0.239778,0.181896 -0.239777,0.173628 -0.256314,0.16536 -0.264582,0.148824 -0.264582,0.140556 -0.281118,0.12402 -0.281118,0.107484 -0.289387,0.09922 -0.297654,0.08268 -0.297655,0.07441 -0.314191,0.04961 -0.314191,0.04134 -0.314191,0.0248 -0.322459,0.0083 -0.322459,-0.0083 -0.314191,-0.0248 -0.314191,-0.04134 -0.314191,-0.04961 -0.305923,-0.07441 -0.297654,-0.08268 -0.289387,-0.09922 -0.289386,-0.107484 -0.281119,-0.12402 -0.27285,-0.140556 -0.264581,-0.148824 -0.256314,-0.16536 -0.248046,-0.173628 -0.239777,-0.181896 -0.231509,-0.198432 -0.223241,-0.2067 -0.206705,-0.214968 -0.198436,-0.223236 -0.190168,-0.239772 -0.1819,-0.239772 -0.165364,-0.256308 -0.157096,-0.264576 -0.140559,-0.264576 -0.124022,-0.281112 -0.115755,-0.281112 -0.09922,-0.28938 -0.09095,-0.297648 -0.06615,-0.297648 -0.05788,-0.314184 -0.04134,-0.305916 -0.02481,-0.322452 -0.0083,-0.322452 0.0083,-0.33072 0.02481,-0.322452 0.04134,-0.322452 0.05788,-0.314184 0.06615,-0.305916 0.09095,-0.305916 0.09922,-0.297648 0.115755,-0.28938 0.124022,-0.281112 0.140559,-0.272844 0.157096,-0.264576 0.165364,-0.256308 0.1819,-0.24804 0.190168,-0.239772 0.198436,-0.231504 0.206705,-0.214968 0.223241,-0.2067 0.231509,-0.198432 0.239777,-0.190164 0.248046,-0.173628 0.256314,-0.16536 0.264581,-0.148824 0.27285,-0.140556 0.281119,-0.12402 0.289386,-0.107484 0.289387,-0.09922 0.297654,-0.08268 0.305923,-0.07441 0.314191,-0.04961 0.314191,-0.04134 0.314191,-0.0248 z"
       id="path880" />
    <path
       style="fill:#000000;fill-opacity:1;fill-rule:evenodd;stroke:none"
       d="M 0,132.288 V 0 h 94.464 v 132.288 z m 0.19016823,-0.19016 H 94.273832 V 0.190164 H 0.19016823 Z"
       id="path882" />
  </g>
</svg>
