<?xml version="1.0" encoding="UTF-8" standalone="no"?>
<svg
   xmlns:dc="http://purl.org/dc/elements/1.1/"
   xmlns:cc="http://creativecommons.org/ns#"
   xmlns:rdf="http://www.w3.org/1999/02/22-rdf-syntax-ns#"
   xmlns:svg="http://www.w3.org/2000/svg"
   xmlns="http://www.w3.org/2000/svg"
   xmlns:sodipodi="http://sodipodi.sourceforge.net/DTD/sodipodi-0.dtd"
   xmlns:inkscape="http://www.inkscape.org/namespaces/inkscape"
   width="129pt"
   height="44pt"
   version="1.1"
   id="svg4410"
   sodipodi:docname="503.svg"
   inkscape:version="1.0.2 (e86c870879, 2021-01-15, custom)">
  <metadata
     id="metadata4416">
    <rdf:RDF>
      <cc:Work
         rdf:about="">
        <dc:format>image/svg+xml</dc:format>
        <dc:type
           rdf:resource="http://purl.org/dc/dcmitype/StillImage" />
        <dc:title></dc:title>
      </cc:Work>
    </rdf:RDF>
  </metadata>
  <defs
     id="defs4414" />
  <sodipodi:namedview
     pagecolor="#ffffff"
     bordercolor="#666666"
     borderopacity="1"
     objecttolerance="10"
     gridtolerance="10"
     guidetolerance="10"
     inkscape:pageopacity="0"
     inkscape:pageshadow="2"
     inkscape:window-width="1920"
     inkscape:window-height="1017"
     id="namedview4412"
     showgrid="false"
     units="pt"
     inkscape:zoom="3.8099415"
     inkscape:cx="78.979379"
     inkscape:cy="6.8774331"
     inkscape:window-x="3832"
     inkscape:window-y="-3"
     inkscape:window-maximized="1"
     inkscape:current-layer="svg4410" />
  <!-- Created with Method Draw - http://github.com/duopixel/Method-Draw/ -->
  <g
     id="g5672"
     transform="matrix(0.97375288,0,0,0.97375288,2.8609362,1.5485801)">
    <g
       id="g5655">
      <g
         id="g4397">
        <title
           id="title4391">background</title>
        <rect
           fill="#ffffff"
           id="canvas_background"
           height="60"
           width="173"
           y="-1"
           x="-1" />
        <g
           display="none"
           overflow="visible"
           y="0"
           x="0"
           height="100%"
           width="100%"
           id="canvasGrid">
          <rect
             fill="url(#gridpattern)"
             stroke-width="0"
             y="0"
             x="0"
             height="100%"
             width="100%"
             id="rect4394" />
        </g>
      </g>
      <g
         id="g4408">
        <title
           id="title4399">Layer 1</title>
        <metadata
           id="svg_13">image/svg+xml</metadata>
        <g
           id="svg_15">
          <path
             fill="#ffffff"
             fill-rule="nonzero"
             id="svg_12"
             d="M 0.15739,57.55952 H 170.51036 V -0.55605 H 0.15739 Z m 0,0" />
          <path
             fill="none"
             stroke="#211e1e"
             stroke-width="0.2835"
             stroke-miterlimit="4"
             id="svg_11"
             d="M 0.15739,57.55952 H 170.51036 V -0.55605 H 0.15739 v 58.11557" />
          <path
             fill="#211e1e"
             fill-rule="nonzero"
             id="svg_10"
             d="m 158.17313,51.69725 -2.13359,-32.95262 6.11907,1.66044 c 0.24517,0.06406 0.48514,-0.03204 0.64163,-0.25627 0.17215,-0.25093 0.1878,-0.61932 0.0312,-0.90764 L 154.15636,3.8113 c -0.16172,-0.30433 -0.45385,-0.49654 -0.74076,-0.49654 -0.31821,0 -0.61556,0.19221 -0.7877,0.51255 l -8.50827,15.55801 c -0.15128,0.25627 -0.13563,0.6033 0.026,0.85958 0.14607,0.25627 0.40169,0.36839 0.65729,0.28831 l 6.18166,-1.67646 -1.72669,32.88856 8.91515,-0.04806" />
          <path
             fill="#211e1e"
             fill-rule="nonzero"
             id="svg_9"
             d="m 21.88971,51.69725 -2.12315,-32.94729 6.11384,1.66045 c 0.23997,0.06406 0.47993,-0.03737 0.64164,-0.25627 0.17736,-0.25627 0.18779,-0.61934 0.02608,-0.91298 L 17.87814,3.81664 C 17.71643,3.51232 17.4243,3.32011 17.1426,3.32011 c -0.32343,0 -0.62077,0.19221 -0.79292,0.51255 L 7.84143,19.38532 c -0.14607,0.25627 -0.13563,0.60865 0.02608,0.85958 0.14606,0.25627 0.40168,0.36839 0.65729,0.29366 l 6.18165,-1.6818 -1.72669,32.88321 8.90994,-0.04271" />
        </g>
        <text
           xml:space="default"
           dominant-baseline="middle"
           text-anchor="middle"
           font-family="sans-serif"
           font-size="24px"
           id="svg_16"
           y="37.333309"
           x="85.5"
           stroke-width="0"
           stroke="#000000"
           fill="#000000">param(text1)</text>
      </g>
    </g>
  </g>
</svg>
