<?xml version="1.0" encoding="UTF-8"?>
<svg xmlns="http://www.w3.org/2000/svg" xmlns:xlink="http://www.w3.org/1999/xlink" width="87pt" height="30pt" viewBox="0 0 87 30" version="1.1">
<g id="surface1">
<path style=" stroke:none;fill-rule:nonzero;fill:rgb(100%,100%,100%);fill-opacity:1;" d="M 1 29.34375 L 86.039062 29.34375 L 86.039062 1 L 1 1 Z M 1 29.34375 "/>
<path style="fill:none;stroke-width:2.835;stroke-linecap:butt;stroke-linejoin:miter;stroke:rgb(13.729858%,12.159729%,12.548828%);stroke-opacity:1;stroke-miterlimit:4;" d="M 10 6.5625 L 860.390625 6.5625 L 860.390625 290 L 10 290 L 10 6.5625 " transform="matrix(0.1,0,0,-0.1,0,30)"/>
<path style=" stroke:none;fill-rule:nonzero;fill:rgb(13.729858%,12.159729%,12.548828%);fill-opacity:1;" d="M 33.597656 21.136719 L 38.375 21.136719 L 38.375 19.617188 L 35.089844 19.617188 L 35.414062 19.140625 C 35.804688 18.558594 36.183594 17.964844 36.53125 17.351562 C 36.871094 16.753906 37.171875 16.136719 37.433594 15.539062 C 37.699219 14.945312 37.898438 14.367188 38.050781 13.78125 C 38.199219 13.222656 38.273438 12.675781 38.273438 12.164062 C 38.273438 11.738281 38.222656 11.347656 38.136719 10.972656 C 38.035156 10.59375 37.886719 10.269531 37.699219 9.980469 C 37.496094 9.707031 37.246094 9.484375 36.960938 9.316406 C 36.65625 9.160156 36.308594 9.078125 35.90625 9.078125 C 35.492188 9.078125 35.101562 9.148438 34.765625 9.265625 C 34.414062 9.402344 34.085938 9.570312 33.796875 9.777344 L 33.933594 11.515625 C 34.136719 11.296875 34.390625 11.074219 34.675781 10.886719 C 34.964844 10.699219 35.289062 10.59375 35.652344 10.59375 C 36.042969 10.59375 36.355469 10.765625 36.570312 11.121094 C 36.78125 11.484375 36.894531 11.925781 36.894531 12.488281 C 36.894531 12.878906 36.832031 13.308594 36.707031 13.769531 C 36.570312 14.230469 36.394531 14.722656 36.15625 15.214844 C 35.917969 15.730469 35.640625 16.257812 35.328125 16.820312 C 35 17.382812 34.652344 17.964844 34.261719 18.558594 L 33.597656 19.601562 L 33.597656 21.136719 "/>
<path style=" stroke:none;fill-rule:nonzero;fill:rgb(13.729858%,12.159729%,12.548828%);fill-opacity:1;" d="M 39.75 19.53125 C 39.960938 20.078125 40.238281 20.503906 40.578125 20.8125 C 40.914062 21.121094 41.316406 21.269531 41.804688 21.269531 C 42.292969 21.269531 42.710938 21.121094 43.046875 20.796875 C 43.386719 20.488281 43.660156 20.0625 43.871094 19.515625 C 44.089844 18.96875 44.234375 18.324219 44.324219 17.589844 C 44.410156 16.855469 44.460938 16.054688 44.460938 15.183594 C 44.460938 14.3125 44.410156 13.511719 44.324219 12.761719 C 44.234375 12.027344 44.089844 11.378906 43.871094 10.835938 C 43.660156 10.289062 43.386719 9.863281 43.046875 9.539062 C 42.710938 9.230469 42.292969 9.078125 41.804688 9.078125 C 41.316406 9.078125 40.902344 9.230469 40.5625 9.539062 C 40.222656 9.863281 39.960938 10.289062 39.75 10.835938 C 39.535156 11.378906 39.386719 12.027344 39.300781 12.761719 C 39.210938 13.511719 39.160156 14.3125 39.160156 15.183594 C 39.160156 16.054688 39.210938 16.855469 39.300781 17.589844 C 39.386719 18.335938 39.535156 18.988281 39.75 19.53125 "/>
<path style=" stroke:none;fill-rule:nonzero;fill:rgb(13.729858%,12.159729%,12.548828%);fill-opacity:1;" d="M 45.980469 16.441406 C 46.132812 16.820312 46.324219 17.121094 46.558594 17.332031 C 46.796875 17.546875 47.078125 17.65625 47.421875 17.65625 C 47.765625 17.65625 48.054688 17.546875 48.289062 17.324219 C 48.527344 17.105469 48.71875 16.8125 48.867188 16.425781 C 49.019531 16.042969 49.125 15.589844 49.183594 15.078125 C 49.246094 14.566406 49.28125 14.003906 49.28125 13.394531 C 49.28125 12.785156 49.246094 12.222656 49.183594 11.699219 C 49.125 11.183594 49.019531 10.730469 48.867188 10.347656 C 48.71875 9.96875 48.527344 9.667969 48.289062 9.441406 C 48.054688 9.230469 47.765625 9.121094 47.421875 9.121094 C 47.078125 9.121094 46.789062 9.230469 46.554688 9.441406 C 46.316406 9.667969 46.132812 9.96875 45.980469 10.347656 C 45.835938 10.730469 45.730469 11.183594 45.667969 11.699219 C 45.605469 12.222656 45.570312 12.785156 45.570312 13.394531 C 45.570312 14.003906 45.605469 14.566406 45.667969 15.078125 C 45.730469 15.605469 45.835938 16.058594 45.980469 16.441406 "/>
<path style=" stroke:none;fill-rule:nonzero;fill:rgb(13.729858%,12.159729%,12.548828%);fill-opacity:1;" d="M 50.285156 16.441406 C 50.4375 16.820312 50.628906 17.121094 50.867188 17.332031 C 51.101562 17.546875 51.386719 17.65625 51.726562 17.65625 C 52.070312 17.65625 52.355469 17.546875 52.59375 17.324219 C 52.832031 17.105469 53.027344 16.8125 53.171875 16.425781 C 53.320312 16.042969 53.429688 15.589844 53.492188 15.078125 C 53.550781 14.566406 53.589844 14.003906 53.589844 13.394531 C 53.589844 12.785156 53.550781 12.222656 53.492188 11.699219 C 53.429688 11.183594 53.320312 10.730469 53.171875 10.347656 C 53.027344 9.96875 52.832031 9.667969 52.59375 9.441406 C 52.355469 9.230469 52.070312 9.121094 51.726562 9.121094 C 51.386719 9.121094 51.09375 9.230469 50.859375 9.441406 C 50.621094 9.667969 50.4375 9.96875 50.285156 10.347656 C 50.140625 10.730469 50.03125 11.183594 49.96875 11.699219 C 49.910156 12.222656 49.875 12.785156 49.875 13.394531 C 49.875 14.003906 49.910156 14.566406 49.96875 15.078125 C 50.03125 15.605469 50.140625 16.058594 50.285156 16.441406 "/>
<path style=" stroke:none;fill-rule:nonzero;fill:rgb(13.729858%,12.159729%,12.548828%);fill-opacity:1;" d="M 55.34375 17.058594 L 58.148438 17.058594 L 58.148438 15.578125 L 55.34375 15.578125 L 55.34375 17.058594 "/>
<path style=" stroke:none;fill-rule:nonzero;fill:rgb(13.729858%,12.159729%,12.548828%);fill-opacity:1;" d="M 60.46875 19.53125 C 60.683594 20.078125 60.957031 20.503906 61.296875 20.8125 C 61.632812 21.121094 62.035156 21.269531 62.523438 21.269531 C 63.011719 21.269531 63.425781 21.121094 63.765625 20.796875 C 64.101562 20.488281 64.382812 20.0625 64.59375 19.515625 C 64.804688 18.96875 64.957031 18.324219 65.042969 17.589844 C 65.132812 16.855469 65.183594 16.054688 65.183594 15.183594 C 65.183594 14.3125 65.132812 13.511719 65.042969 12.761719 C 64.957031 12.027344 64.804688 11.378906 64.59375 10.835938 C 64.382812 10.289062 64.101562 9.863281 63.765625 9.539062 C 63.425781 9.230469 63.011719 9.078125 62.523438 9.078125 C 62.035156 9.078125 61.621094 9.230469 61.285156 9.539062 C 60.945312 9.863281 60.683594 10.289062 60.46875 10.835938 C 60.253906 11.378906 60.101562 12.027344 60.019531 12.761719 C 59.929688 13.511719 59.882812 14.3125 59.882812 15.183594 C 59.882812 16.054688 59.929688 16.855469 60.019531 17.589844 C 60.101562 18.335938 60.253906 18.988281 60.46875 19.53125 "/>
<path style=" stroke:none;fill-rule:nonzero;fill:rgb(13.729858%,12.159729%,12.548828%);fill-opacity:1;" d="M 67.269531 14.890625 L 67.242188 14.878906 C 67.253906 14.347656 67.292969 13.820312 67.367188 13.289062 C 67.445312 12.777344 67.566406 12.316406 67.742188 11.90625 C 67.90625 11.5 68.132812 11.160156 68.394531 10.902344 C 68.65625 10.648438 68.996094 10.527344 69.386719 10.527344 C 69.671875 10.527344 69.933594 10.578125 70.175781 10.679688 C 70.414062 10.796875 70.613281 10.917969 70.777344 11.039062 L 70.839844 9.453125 C 70.664062 9.367188 70.449219 9.28125 70.203125 9.195312 C 69.933594 9.109375 69.648438 9.078125 69.308594 9.078125 C 68.699219 9.078125 68.183594 9.230469 67.769531 9.554688 C 67.34375 9.878906 67.003906 10.324219 66.742188 10.902344 C 66.476562 11.484375 66.277344 12.179688 66.164062 12.984375 C 66.050781 13.800781 65.988281 14.707031 65.988281 15.695312 C 65.988281 16.515625 66.039062 17.265625 66.128906 17.949219 C 66.214844 18.628906 66.363281 19.207031 66.578125 19.707031 C 66.789062 20.199219 67.066406 20.589844 67.417969 20.863281 C 67.757812 21.136719 68.183594 21.269531 68.699219 21.269531 C 69.472656 21.269531 70.085938 20.933594 70.550781 20.25 C 71.015625 19.582031 71.242188 18.609375 71.242188 17.363281 C 71.242188 16.804688 71.191406 16.292969 71.078125 15.832031 C 70.964844 15.371094 70.800781 14.960938 70.601562 14.621094 C 70.390625 14.296875 70.152344 14.023438 69.863281 13.835938 C 69.574219 13.648438 69.273438 13.5625 68.933594 13.5625 C 68.519531 13.5625 68.167969 13.683594 67.90625 13.917969 C 67.632812 14.175781 67.417969 14.5 67.269531 14.890625 "/>
<path style=" stroke:none;fill-rule:nonzero;fill:rgb(13.729858%,12.159729%,12.548828%);fill-opacity:1;" d="M 72.761719 16.441406 C 72.910156 16.820312 73.101562 17.121094 73.339844 17.332031 C 73.578125 17.546875 73.859375 17.65625 74.203125 17.65625 C 74.542969 17.65625 74.832031 17.546875 75.070312 17.324219 C 75.304688 17.105469 75.496094 16.8125 75.648438 16.425781 C 75.796875 16.042969 75.902344 15.589844 75.964844 15.078125 C 76.027344 14.566406 76.058594 14.003906 76.058594 13.394531 C 76.058594 12.785156 76.027344 12.222656 75.964844 11.699219 C 75.902344 11.183594 75.796875 10.730469 75.648438 10.347656 C 75.496094 9.96875 75.304688 9.667969 75.070312 9.441406 C 74.832031 9.230469 74.542969 9.121094 74.203125 9.121094 C 73.859375 9.121094 73.570312 9.230469 73.332031 9.441406 C 73.09375 9.667969 72.910156 9.96875 72.761719 10.347656 C 72.609375 10.730469 72.507812 11.183594 72.445312 11.699219 C 72.382812 12.222656 72.347656 12.785156 72.347656 13.394531 C 72.347656 14.003906 72.382812 14.566406 72.445312 15.078125 C 72.507812 15.605469 72.609375 16.058594 72.761719 16.441406 "/>
<path style=" stroke:none;fill-rule:nonzero;fill:rgb(13.729858%,12.159729%,12.548828%);fill-opacity:1;" d="M 77.066406 16.441406 C 77.214844 16.820312 77.410156 17.121094 77.644531 17.332031 C 77.882812 17.546875 78.160156 17.65625 78.503906 17.65625 C 78.84375 17.65625 79.136719 17.546875 79.375 17.324219 C 79.609375 17.105469 79.800781 16.8125 79.953125 16.425781 C 80.101562 16.042969 80.207031 15.589844 80.269531 15.078125 C 80.328125 14.566406 80.363281 14.003906 80.363281 13.394531 C 80.363281 12.785156 80.328125 12.222656 80.269531 11.699219 C 80.207031 11.183594 80.101562 10.730469 79.953125 10.347656 C 79.800781 9.96875 79.609375 9.667969 79.375 9.441406 C 79.136719 9.230469 78.84375 9.121094 78.503906 9.121094 C 78.160156 9.121094 77.875 9.230469 77.636719 9.441406 C 77.398438 9.667969 77.214844 9.96875 77.066406 10.347656 C 76.914062 10.730469 76.8125 11.183594 76.75 11.699219 C 76.691406 12.222656 76.652344 12.785156 76.652344 13.394531 C 76.652344 14.003906 76.691406 14.566406 76.75 15.078125 C 76.8125 15.605469 76.914062 16.058594 77.066406 16.441406 "/>
<path style=" stroke:none;fill-rule:nonzero;fill:rgb(100%,100%,100%);fill-opacity:1;" d="M 40.777344 18.628906 C 40.589844 17.828125 40.488281 16.667969 40.488281 15.183594 C 40.488281 13.699219 40.589844 12.542969 40.777344 11.71875 C 40.964844 10.902344 41.316406 10.492188 41.804688 10.492188 C 42.304688 10.492188 42.65625 10.902344 42.84375 11.703125 C 43.03125 12.523438 43.132812 13.683594 43.132812 15.183594 C 43.132812 16.667969 43.03125 17.828125 42.84375 18.628906 C 42.644531 19.445312 42.292969 19.855469 41.804688 19.855469 C 41.316406 19.855469 40.964844 19.445312 40.777344 18.628906 "/>
<path style=" stroke:none;fill-rule:nonzero;fill:rgb(100%,100%,100%);fill-opacity:1;" d="M 46.703125 15.804688 C 46.570312 15.246094 46.5 14.433594 46.5 13.394531 C 46.5 12.355469 46.570312 11.542969 46.703125 10.972656 C 46.835938 10.398438 47.078125 10.109375 47.421875 10.109375 C 47.773438 10.109375 48.019531 10.398438 48.148438 10.957031 C 48.28125 11.53125 48.351562 12.34375 48.351562 13.394531 C 48.351562 14.433594 48.28125 15.246094 48.148438 15.804688 C 48.007812 16.378906 47.765625 16.667969 47.421875 16.667969 C 47.078125 16.667969 46.835938 16.378906 46.703125 15.804688 "/>
<path style=" stroke:none;fill-rule:nonzero;fill:rgb(100%,100%,100%);fill-opacity:1;" d="M 51.007812 15.804688 C 50.875 15.246094 50.804688 14.433594 50.804688 13.394531 C 50.804688 12.355469 50.875 11.542969 51.007812 10.972656 C 51.140625 10.398438 51.386719 10.109375 51.726562 10.109375 C 52.078125 10.109375 52.324219 10.398438 52.453125 10.957031 C 52.585938 11.53125 52.65625 12.34375 52.65625 13.394531 C 52.65625 14.433594 52.585938 15.246094 52.453125 15.804688 C 52.3125 16.378906 52.070312 16.667969 51.726562 16.667969 C 51.386719 16.667969 51.140625 16.378906 51.007812 15.804688 "/>
<path style=" stroke:none;fill-rule:nonzero;fill:rgb(100%,100%,100%);fill-opacity:1;" d="M 61.496094 18.628906 C 61.308594 17.828125 61.210938 16.667969 61.210938 15.183594 C 61.210938 13.699219 61.308594 12.542969 61.496094 11.71875 C 61.683594 10.902344 62.035156 10.492188 62.523438 10.492188 C 63.027344 10.492188 63.375 10.902344 63.5625 11.703125 C 63.753906 12.523438 63.851562 13.683594 63.851562 15.183594 C 63.851562 16.667969 63.753906 17.828125 63.5625 18.628906 C 63.363281 19.445312 63.011719 19.855469 62.523438 19.855469 C 62.035156 19.855469 61.683594 19.445312 61.496094 18.628906 "/>
<path style=" stroke:none;fill-rule:nonzero;fill:rgb(100%,100%,100%);fill-opacity:1;" d="M 67.707031 19.140625 C 67.59375 18.921875 67.515625 18.660156 67.464844 18.371094 C 67.417969 18.082031 67.394531 17.777344 67.394531 17.433594 C 67.394531 17.109375 67.417969 16.785156 67.480469 16.496094 C 67.53125 16.207031 67.605469 15.949219 67.71875 15.730469 C 67.820312 15.507812 67.945312 15.339844 68.105469 15.203125 C 68.269531 15.082031 68.445312 15.015625 68.65625 15.015625 C 68.871094 15.015625 69.058594 15.082031 69.222656 15.203125 C 69.386719 15.339844 69.511719 15.507812 69.609375 15.730469 C 69.710938 15.949219 69.789062 16.222656 69.839844 16.515625 C 69.886719 16.804688 69.910156 17.109375 69.910156 17.433594 C 69.910156 17.777344 69.886719 18.082031 69.839844 18.371094 C 69.789062 18.660156 69.710938 18.921875 69.609375 19.140625 C 69.5 19.363281 69.375 19.550781 69.207031 19.667969 C 69.046875 19.789062 68.871094 19.855469 68.65625 19.855469 C 68.445312 19.855469 68.257812 19.789062 68.09375 19.667969 C 67.929688 19.550781 67.804688 19.363281 67.707031 19.140625 "/>
<path style=" stroke:none;fill-rule:nonzero;fill:rgb(100%,100%,100%);fill-opacity:1;" d="M 73.480469 15.804688 C 73.347656 15.246094 73.28125 14.433594 73.28125 13.394531 C 73.28125 12.355469 73.347656 11.542969 73.480469 10.972656 C 73.609375 10.398438 73.859375 10.109375 74.203125 10.109375 C 74.550781 10.109375 74.796875 10.398438 74.929688 10.957031 C 75.058594 11.53125 75.132812 12.34375 75.132812 13.394531 C 75.132812 14.433594 75.058594 15.246094 74.929688 15.804688 C 74.789062 16.378906 74.542969 16.667969 74.203125 16.667969 C 73.859375 16.667969 73.609375 16.378906 73.480469 15.804688 "/>
<path style=" stroke:none;fill-rule:nonzero;fill:rgb(100%,100%,100%);fill-opacity:1;" d="M 77.78125 15.804688 C 77.65625 15.246094 77.582031 14.433594 77.582031 13.394531 C 77.582031 12.355469 77.65625 11.542969 77.78125 10.972656 C 77.917969 10.398438 78.160156 10.109375 78.503906 10.109375 C 78.855469 10.109375 79.101562 10.398438 79.234375 10.957031 C 79.363281 11.53125 79.433594 12.34375 79.433594 13.394531 C 79.433594 14.433594 79.363281 15.246094 79.234375 15.804688 C 79.09375 16.378906 78.84375 16.667969 78.503906 16.667969 C 78.160156 16.667969 77.917969 16.378906 77.78125 15.804688 "/>
<path style=" stroke:none;fill-rule:nonzero;fill:rgb(10.112%,40.585327%,73.280334%);fill-opacity:1;" d="M 6.667969 4.542969 L 27.929688 4.542969 L 27.929688 25.804688 L 6.667969 25.804688 L 6.667969 4.542969 "/>
<path style=" stroke:none;fill-rule:nonzero;fill:rgb(100%,100%,100%);fill-opacity:1;" d="M 15.511719 23.125 L 12.835938 23.125 L 12.835938 8.050781 L 20.375 8.050781 C 20.992188 8.050781 21.671875 8.292969 22.074219 8.832031 C 22.613281 9.539062 22.589844 10.210938 22.589844 10.210938 L 22.589844 15.261719 C 22.589844 15.617188 22.480469 16.371094 21.941406 16.910156 C 21.453125 17.398438 20.941406 17.589844 20.375 17.589844 L 15.511719 17.589844 L 15.511719 23.125 "/>
<path style=" stroke:none;fill-rule:nonzero;fill:rgb(10.112%,40.585327%,73.280334%);fill-opacity:1;" d="M 15.511719 15.269531 L 15.511719 10.433594 L 19.347656 10.433594 C 19.511719 10.433594 19.699219 10.433594 19.804688 10.542969 C 19.914062 10.652344 19.941406 10.757812 19.941406 11 L 19.941406 14.703125 C 19.941406 14.890625 19.886719 15.054688 19.78125 15.132812 C 19.671875 15.242188 19.566406 15.269531 19.375 15.269531 L 15.511719 15.269531 "/>
</g>
</svg>
