<?xml version="1.0" encoding="UTF-8" standalone="no"?>
<svg
   xmlns:dc="http://purl.org/dc/elements/1.1/"
   xmlns:cc="http://creativecommons.org/ns#"
   xmlns:rdf="http://www.w3.org/1999/02/22-rdf-syntax-ns#"
   xmlns:svg="http://www.w3.org/2000/svg"
   xmlns="http://www.w3.org/2000/svg"
   xmlns:sodipodi="http://sodipodi.sourceforge.net/DTD/sodipodi-0.dtd"
   xmlns:inkscape="http://www.inkscape.org/namespaces/inkscape"
   width="171"
   height="58"
   version="1.1"
   id="svg7339"
   sodipodi:docname="517.svg"
   inkscape:version="1.0.2 (e86c870879, 2021-01-15, custom)">
  <metadata
     id="metadata7345">
    <rdf:RDF>
      <cc:Work
         rdf:about="">
        <dc:format>image/svg+xml</dc:format>
        <dc:type
           rdf:resource="http://purl.org/dc/dcmitype/StillImage" />
        <dc:title></dc:title>
      </cc:Work>
    </rdf:RDF>
  </metadata>
  <defs
     id="defs7343" />
  <sodipodi:namedview
     pagecolor="#ffffff"
     bordercolor="#666666"
     borderopacity="1"
     objecttolerance="10"
     gridtolerance="10"
     guidetolerance="10"
     inkscape:pageopacity="0"
     inkscape:pageshadow="2"
     inkscape:window-width="1920"
     inkscape:window-height="1017"
     id="namedview7341"
     showgrid="false"
     inkscape:zoom="2.6940355"
     inkscape:cx="129.30621"
     inkscape:cy="60.389278"
     inkscape:window-x="5752"
     inkscape:window-y="-8"
     inkscape:window-maximized="1"
     inkscape:current-layer="svg7339" />
  <!-- Created with Method Draw - http://github.com/duopixel/Method-Draw/ -->
  <g
     id="g7932"
     transform="matrix(0.96288096,0,0,0.96288096,4.4171653,1.076452)">
    <g
       id="g7316">
      <title
         id="title7310">background</title>
      <rect
         fill="#ffffff"
         id="canvas_background"
         height="60"
         width="173"
         y="-1"
         x="-1" />
      <g
         display="none"
         overflow="visible"
         y="0"
         x="0"
         height="100%"
         width="100%"
         id="canvasGrid">
        <rect
           fill="url(#gridpattern)"
           stroke-width="0"
           y="0"
           x="0"
           height="100%"
           width="100%"
           id="rect7313" />
      </g>
    </g>
    <g
       id="g7337">
      <title
         id="title7318">Layer 1</title>
      <metadata
         id="svg_13">image/svg+xml</metadata>
      <metadata
         id="svg_47">image/svg+xml</metadata>
      <g
         id="svg_49">
        <path
           fill="#ffffff"
           fill-rule="nonzero"
           id="svg_46"
           d="M 0.69133,57.04522 H 169.97006 V 0.61799 H 0.69133 Z m 0,0" />
        <path
           fill="none"
           stroke="#211e1e"
           stroke-width="0.2835"
           stroke-miterlimit="4"
           id="svg_45"
           d="M 0.69133,57.04522 H 169.97006 V 0.61799 H 0.69133 v 56.42723" />
        <path
           fill="#211e1e"
           fill-rule="nonzero"
           id="svg_44"
           d="m 3.52162,48.57985 c 0,3.12073 2.51928,5.64013 5.63986,5.64013 h 152.34361 c 3.11539,0 5.64503,-2.5194 5.64503,-5.64013 V 9.08338 c 0,-3.11556 -2.52964,-5.64532 -5.64503,-5.64532 H 9.16148 c -3.12058,0 -5.63986,2.52976 -5.63986,5.64532 v 39.49647" />
        <path
           fill="#ffffff"
           fill-rule="nonzero"
           id="svg_43"
           d="m 5.4033,48.57985 c 0,2.08394 1.67952,3.75836 3.753,3.75836 h 152.33841 c 2.08386,0 3.77373,-1.67442 3.77373,-3.75836 V 9.08338 c 0,-2.07877 -1.68987,-3.75836 -3.77373,-3.75836 H 9.1563 c -2.07348,0 -3.753,1.67959 -3.753,3.75836 v 39.49647" />
        <path
           fill="#1966ba"
           fill-rule="nonzero"
           id="svg_42"
           d="M 10.09974,47.63637 H 47.7178 V 10.01648 H 10.09974 Z m 0,0" />
        <path
           fill="#ffffff"
           fill-rule="nonzero"
           id="svg_41"
           d="M 13.85792,43.87801 H 43.95444 V 13.78003 H 13.85792 Z m 0,0" />
        <path
           fill="#211e1e"
           fill-rule="nonzero"
           id="svg_40"
           d="m 32.45183,41.05276 v -1.73662 l -0.01035,-0.22291 c -0.0052,-0.13997 -0.11406,-0.23846 -0.18143,-0.26956 -0.03111,-0.02592 -0.07258,-0.05184 -0.09849,-0.07775 -0.03628,-0.03111 -0.07258,-0.06739 -0.08813,-0.10369 -0.07258,-0.11923 -0.0622,-0.30068 -0.0622,-0.44065 v -4.20936 c 0.02592,0.35251 0.10368,0.71538 0.17624,1.04198 0.08813,0.2903 0.19698,0.59097 0.33176,0.86052 0.15033,0.26957 0.33695,0.5184 0.55466,0.74131 0.17624,0.1918 0.39914,0.36806 0.63241,0.48211 0.23326,0.12441 0.53392,0.13997 0.762,0.04666 0.16588,-0.0622 0.30584,-0.15552 0.43025,-0.27475 0.50281,-0.53395 0.49245,-1.34264 0.34212,-1.99063 -0.03628,-0.18144 -0.22809,-0.73093 -0.29029,-0.89682 -0.16069,-0.46656 -0.29029,-0.93831 -0.37841,-1.42559 -0.1918,-0.98495 -0.29029,-2.97559 -0.29029,-3.9398 0.01035,-0.18663 0.01035,-0.94348 0.01555,-1.13529 0.02074,-0.23846 0.08294,-0.91756 0.09849,-1.15603 0.04666,-0.52875 0.05702,-1.29079 -0.02592,-1.82992 -0.02592,-0.2281 -0.07258,-0.56505 -0.11404,-0.78278 -0.01555,-0.07775 -0.10886,-0.451 -0.13477,-0.54431 -0.03111,-0.11405 -0.21771,-0.85535 -0.25401,-0.97459 -0.0052,-0.01555 -0.1296,-0.451 -0.1296,-0.53913 0,-0.1296 0.03111,-0.2903 0.08813,-0.39916 l 0.05701,-0.11405 c 0.02074,-0.04147 0.01035,-0.12441 0.01035,-0.16589 0,-0.07258 -0.01035,-0.20217 -0.03111,-0.26438 -0.03111,-0.08813 -0.13996,-0.16589 -0.2229,-0.17625 -0.03628,-0.01035 -0.08813,-0.02592 -0.11404,-0.03628 -0.05183,-0.04147 -0.27473,-0.36806 -0.31102,-0.43027 -0.10368,-0.11405 -0.21773,-0.21253 -0.33695,-0.2903 -0.10886,-0.06221 -0.2229,-0.10369 -0.34731,-0.13997 -0.16069,-0.02074 -0.35248,0 -0.51836,0 v -1.52926 c 0,-0.85535 -0.27992,-1.49816 -1.28556,-1.49816 l -6.25154,-0.03111 c -0.4147,0 -0.69462,0.10369 -1.00046,0.34733 -0.29029,0.21255 -0.39914,0.74649 -0.39914,1.09381 v 20.22775 c 0,0.0985 0,0.21253 -0.04147,0.30067 -0.04147,0.08813 -0.09849,0.1607 -0.20216,0.21255 l -0.13479,0.07258 c -0.07258,0.04666 -0.16588,0.06739 -0.16588,0.18144 l -0.01035,0.17106 -0.02592,1.84549 h 9.95788" />
        <path
           fill="#ffffff"
           fill-rule="nonzero"
           id="svg_39"
           d="m 30.97966,26.07116 v -5.12173 h -6.52108 v 5.12173 h 6.52108" />
        <path
           fill="#ffffff"
           fill-rule="nonzero"
           id="svg_38"
           d="m 30.97966,19.7312 v -1.68997 h -6.52108 v 1.68997 h 6.52108" />
        <path
           fill="#ffffff"
           fill-rule="nonzero"
           id="svg_37"
           d="m 32.44145,23.06966 0.59613,-0.20217 c 0.0622,-0.03628 0.15033,-0.04666 0.20217,-0.0985 0.07258,-0.05184 0.08294,-0.1296 0.08294,-0.21255 v -0.65836 l -0.39397,-0.25402 v -0.45619 l -0.48727,0.26957 v 1.6122" />
        <path
           fill="#ffffff"
           fill-rule="nonzero"
           id="svg_36"
           d="m 32.00603,21.30712 1.18188,-0.57543 c -0.02592,-0.18144 -0.12441,-0.36806 -0.2229,-0.49766 -0.0622,-0.07775 -0.14514,-0.1607 -0.22289,-0.21253 -0.07775,-0.04147 -0.1607,-0.08294 -0.24364,-0.10369 -0.13996,-0.04666 -0.35767,-0.03628 -0.49245,0 v 1.38929" />
        <path
           fill="#ffffff"
           fill-rule="nonzero"
           id="svg_35"
           d="m 33.62334,22.35427 c -0.01035,0.10369 -0.02592,0.26956 -0.02592,0.37843 l -0.02074,1.39966 c -0.03111,0.39399 -0.07775,0.78796 -0.15551,1.18195 -0.06739,0.35769 -0.16588,0.78796 -0.25918,1.14046 l -0.30584,1.15084 c -0.11404,0.39916 -0.20735,0.81907 -0.30065,1.23378 -0.0622,0.254 -0.12441,0.5806 -0.16588,0.85016 -0.03628,0.2903 -0.05702,0.69984 -0.07258,1.00051 -0.01555,0.32141 -0.03111,0.72057 -0.04666,1.05234 -0.01555,0.28511 -0.03111,0.70502 -0.03628,0.99532 -0.01035,0.27475 -0.01035,0.61171 0,0.88646 0.01555,0.33695 0.05702,0.67909 0.11922,1.00568 0.09849,0.43027 0.2851,0.90719 0.50282,1.28043 0.08813,0.16071 0.22289,0.37324 0.34212,0.52358 0.15551,0.18663 0.33693,0.33696 0.54947,0.45101 0.18143,0.10367 0.4458,0.13997 0.65315,0.02592 0.11404,-0.05703 0.2229,-0.15552 0.30584,-0.25402 0.11404,-0.13478 0.21252,-0.31103 0.26955,-0.48729 0.12441,-0.37842 0.0933,-0.80869 0.01035,-1.19749 -0.05702,-0.26438 -0.17105,-0.63244 -0.24882,-0.88127 -0.11922,-0.39399 -0.3162,-1.01606 -0.39914,-1.41522 -0.11404,-0.48729 -0.18661,-1.02642 -0.23845,-1.51889 -0.04666,-0.3888 -0.07775,-0.81388 -0.08294,-1.20786 -0.0052,-0.37324 0.02074,-0.99013 0.03628,-1.36337 0.03111,-0.75168 0.07258,-1.50334 0.08813,-2.24465 0.01035,-0.31622 0.02074,-0.75685 0.0052,-1.07307 -0.0052,-0.34733 -0.04147,-0.68946 -0.0933,-1.03679 -0.03628,-0.28511 -0.0933,-0.57541 -0.15033,-0.85535 -0.05183,-0.22291 -0.11404,-0.46138 -0.17105,-0.6791 -0.03111,-0.0985 -0.07775,-0.25402 -0.10886,-0.34214" />
        <path
           fill="#ffffff"
           fill-rule="nonzero"
           id="svg_34"
           d="m 32.00603,23.46364 v 6.60434 c 0.10886,-0.7413 0.32139,-1.70552 0.55983,-2.46756 0.06739,-0.20736 0.29029,-0.94866 0.34731,-1.15083 0.09849,-0.36288 0.18662,-0.74131 0.24882,-1.11456 0.03628,-0.27475 0.07775,-0.80869 0.10368,-1.09381 0.01035,-0.0985 0.03628,-0.51839 0.04666,-0.61688 0.0052,-0.07775 0.0052,-0.1607 0.0052,-0.22809 0,-0.03628 0,-0.0985 -0.02592,-0.1296 -0.01035,-0.02074 -0.03628,-0.04147 -0.05702,-0.05703 -0.02074,-0.0052 -0.05702,-0.0052 -0.08294,-0.0052 -0.05183,0 -0.11404,0.01555 -0.16588,0.02074 l -0.13477,0.04147 -0.84494,0.19698" />
      </g>
      <text
         xml:space="preserve"
         text-anchor="start"
         font-family="sans-serif"
         font-size="30px"
         id="svg_50"
         y="39.338982"
         x="67.025429"
         stroke-width="0"
         stroke="#000000"
         fill="#000000">param(text1)</text>
    </g>
  </g>
</svg>
