<?xml version="1.0" encoding="UTF-8"?>
<svg xmlns="http://www.w3.org/2000/svg" xmlns:xlink="http://www.w3.org/1999/xlink" width="106pt" height="106pt" viewBox="0 0 106 106" version="1.1">
<defs>
<clipPath id="clip1">
  <path d="M 0 0.488281 L 105.511719 0.488281 L 105.511719 106 L 0 106 Z M 0 0.488281 "/>
</clipPath>
</defs>
<g id="surface1">
<g clip-path="url(#clip1)" clip-rule="nonzero">
<path style=" stroke:none;fill-rule:nonzero;fill:rgb(18.763733%,19.329834%,19.992065%);fill-opacity:1;" d="M 105.511719 106 L 0 106 L 0 0.488281 L 105.511719 0.488281 L 105.511719 106 "/>
</g>
<path style=" stroke:none;fill-rule:nonzero;fill:rgb(97.40448%,85.484314%,9.342957%);fill-opacity:1;" d="M 89.058594 82.289062 L 65.246094 68.59375 L 65.246094 78.976562 L 18.839844 78.976562 L 18.839844 85.597656 L 65.246094 85.597656 L 65.246094 95.980469 L 89.058594 82.289062 "/>
<path style=" stroke:none;fill-rule:nonzero;fill:rgb(97.40448%,85.484314%,9.342957%);fill-opacity:1;" d="M 27.882812 45.152344 L 49.699219 45.152344 L 71.113281 21.765625 L 71.113281 21.757812 L 38.265625 21.757812 Z M 49.894531 49.023438 L 24.90625 49.023438 C 24.253906 49.023438 23.640625 48.691406 23.285156 48.140625 C 22.925781 47.59375 22.871094 46.902344 23.140625 46.300781 L 35.75 17.886719 L 73.917969 17.886719 L 75.492188 22.710938 L 52.417969 47.910156 C 51.769531 48.617188 50.855469 49.023438 49.894531 49.023438 "/>
<path style=" stroke:none;fill-rule:nonzero;fill:rgb(97.40448%,85.484314%,9.342957%);fill-opacity:1;" d="M 25.460938 32.117188 C 17.957031 32.117188 11.855469 38.21875 11.855469 45.71875 C 11.855469 53.222656 17.957031 59.324219 25.460938 59.324219 C 32.960938 59.324219 39.0625 53.222656 39.0625 45.71875 C 39.0625 38.21875 32.960938 32.117188 25.460938 32.117188 Z M 25.460938 63.195312 C 15.824219 63.195312 7.988281 55.355469 7.988281 45.71875 C 7.988281 36.085938 15.824219 28.246094 25.460938 28.246094 C 35.09375 28.246094 42.933594 36.085938 42.933594 45.71875 C 42.933594 55.355469 35.09375 63.195312 25.460938 63.195312 "/>
<path style=" stroke:none;fill-rule:nonzero;fill:rgb(97.40448%,85.484314%,9.342957%);fill-opacity:1;" d="M 80.785156 32.117188 C 73.285156 32.117188 67.183594 38.21875 67.183594 45.71875 C 67.183594 53.222656 73.285156 59.324219 80.785156 59.324219 C 88.289062 59.324219 94.390625 53.222656 94.390625 45.71875 C 94.390625 38.21875 88.289062 32.117188 80.785156 32.117188 Z M 80.785156 63.195312 C 71.152344 63.195312 63.3125 55.355469 63.3125 45.71875 C 63.3125 36.085938 71.152344 28.246094 80.785156 28.246094 C 90.421875 28.246094 98.261719 36.085938 98.261719 45.71875 C 98.261719 55.355469 90.421875 63.195312 80.785156 63.195312 "/>
<path style=" stroke:none;fill-rule:nonzero;fill:rgb(97.40448%,85.484314%,9.342957%);fill-opacity:1;" d="M 47.386719 48.605469 L 34.113281 13.589844 L 37.726562 12.203125 L 51 47.21875 L 47.386719 48.605469 "/>
<path style=" stroke:none;fill-rule:nonzero;fill:rgb(97.40448%,85.484314%,9.342957%);fill-opacity:1;" d="M 30.574219 11.152344 L 46.261719 11.152344 L 46.261719 12.898438 L 43.222656 13.667969 C 40.109375 14.457031 36.90625 14.859375 33.691406 14.859375 L 30.574219 14.859375 L 30.574219 11.152344 "/>
<path style=" stroke:none;fill-rule:nonzero;fill:rgb(97.40448%,85.484314%,9.342957%);fill-opacity:1;" d="M 82.628906 45.132812 L 74.355469 19.222656 L 72.027344 12.089844 C 71.125 9.328125 68.566406 7.46875 65.65625 7.46875 L 59.921875 7.46875 L 59.921875 11.339844 L 65.65625 11.339844 C 66.886719 11.339844 67.96875 12.125 68.347656 13.292969 L 70.671875 20.410156 L 78.945312 46.308594 C 79.207031 47.132812 79.96875 47.65625 80.785156 47.65625 C 80.980469 47.65625 81.179688 47.625 81.375 47.5625 C 82.394531 47.238281 82.957031 46.148438 82.628906 45.132812 "/>
</g>
</svg>
