<?xml version="1.0" encoding="UTF-8" standalone="no"?>
<svg
   width="110.15816pt"
   height="35.776272pt"
   viewBox="0 0 110.15816 35.776272"
   version="1.1"
   id="svg3513"
   xmlns="http://www.w3.org/2000/svg"
   xmlns:svg="http://www.w3.org/2000/svg">
  <defs
     id="defs3517" />
  <g
     id="layer2"
     style="display:inline"
     transform="scale(0.74036996,1)" />
  <g
     id="layer1">
    <rect
       style="display:inline;fill:#ffffff;stroke:none;stroke-width:0;stroke-linecap:square;stroke-miterlimit:4;stroke-dasharray:none;stroke-opacity:1"
       id="rect3621"
       width="110.15816"
       height="35.776272"
       x="0"
       y="8.8817842e-16" />
    <rect
       style="display:inline;fill:none;stroke:#000000;stroke-width:0.223236;stroke-linecap:square;stroke-miterlimit:4;stroke-dasharray:none;stroke-opacity:1"
       id="rect3621-4"
       width="108.49678"
       height="34.468613"
       x="0.89951152"
       y="0.729029" />
  </g>
  <g
     id="layer3"
     style="display:inline">
    <g
       id="surface1"
       transform="translate(4.1107379,3.195839)">
      <path
         style="fill:#211e1e;fill-opacity:1;fill-rule:nonzero;stroke:none"
         d="M 17.507812,18.429688 V 1.191406 h 40.152344 v 17.238282 h -7.164062 l 0.671875,0.785156 h 16.71875 l 0.648437,-0.785156 H 63.09375 V 1.191406 l 39.71484,-0.226562 v 17.464844 h -2.64453 c 0.0664,0.05078 0.16016,0.128906 0.21875,0.1875 0.1211,0.113281 0.22657,0.234374 0.32032,0.375 0.0508,0.0625 0.10937,0.15625 0.15234,0.222656 h 1.39844 v 4.542968 h -0.85157 c -0.008,-0.183593 -0.0195,-0.433593 -0.0352,-0.605468 -0.33985,-3.421875 -3.261721,-5.992188 -6.703128,-5.976563 -3.417968,0.0078 -6.320312,2.554688 -6.640624,5.960938 -0.02344,0.179687 -0.03125,0.4375 -0.03906,0.621093 h -7.101563 c -0.01172,-0.203124 -0.01562,-0.492187 -0.03906,-0.695312 -0.34375,-3.453125 -3.3125,-6.023438 -6.789062,-6 -3.511719,0.01953 -6.519532,2.640625 -6.734376,6.152344 -0.0078,0.152344 -0.0078,0.382812 -0.0078,0.542968 H 66.691406 V 23.0625 L 62.53125,20.933594 h -4.589844 l -4.839844,1.792968 v 1.503907 h -1.941406 c 0,-0.15625 -0.0078,-0.386719 -0.01563,-0.546875 -0.222656,-3.230469 -2.820312,-5.84375 -6.058593,-5.851563 -3.234376,-0.01563 -5.847657,2.5625 -6.097657,5.78125 -0.01563,0.179688 -0.02344,0.4375 -0.02344,0.617188 H 16.335938 c 0,-0.15625 -0.0078,-0.378907 -0.02344,-0.53125 C 16.054688,20.378906 13.28125,17.816406 9.957031,17.851562 6.738281,17.898438 4.125,20.429688 3.816406,23.640625 3.800781,23.8125 3.789062,24.058594 3.789062,24.230469 H 0.230469 v -2.253907 l 1.230469,-0.0078 0.878906,-6.546875 C 2.355469,15.277344 2.375,15.117188 2.398438,14.96875 2.433594,14.722656 2.492188,14.390625 2.578125,14.167969 2.6875,13.867188 2.875,13.59375 3.132812,13.40625 c 0.222657,-0.167969 0.503907,-0.265625 0.777344,-0.316406 0.085938,-0.01563 0.203125,-0.03125 0.289063,-0.04687 L 6.753906,7.726562 C 6.804688,7.625 6.863281,7.507812 6.910156,7.402344 7.003906,7.222656 7.148438,6.992188 7.300781,6.863281 7.464844,6.730469 7.675781,6.652344 7.882812,6.617188 8.035156,6.59375 8.273438,6.589844 8.421875,6.589844 h 8.214844 v 12.625 h 22.277343 l 0.683594,-0.785156 H 17.507812"
         id="path1740" />
      <path
         style="fill:#211e1e;fill-opacity:1;fill-rule:nonzero;stroke:none"
         d="m 10.015625,18.863281 c 2.902344,-0.02344 5.277344,2.324219 5.269531,5.230469 -0.0078,2.835938 -2.296875,5.140625 -5.132812,5.171875 C 7.257812,29.292969 4.890625,26.96875 4.882812,24.066406 4.875,21.214844 7.15625,18.875 10.015625,18.863281"
         id="path1742" />
      <path
         style="fill:#211e1e;fill-opacity:1;fill-rule:nonzero;stroke:none"
         d="m 45.109375,19.042969 c 2.769531,0.01172 4.980469,2.28125 5.015625,5.050781 0.03516,2.808594 -2.179688,5.125 -4.988281,5.171875 -2.851563,0.04297 -5.183594,-2.246094 -5.195313,-5.105469 -0.02344,-2.84375 2.316406,-5.132812 5.167969,-5.117187"
         id="path1744" />
      <path
         style="fill:#211e1e;fill-opacity:1;fill-rule:nonzero;stroke:none"
         d="m 74.050781,18.386719 c 3.007813,-0.01563 5.457031,2.40625 5.480469,5.40625 0.01172,3.015625 -2.433594,5.472656 -5.449219,5.476562 -3.007812,0.0078 -5.449219,-2.425781 -5.457031,-5.425781 -0.0078,-3.007812 2.425781,-5.449219 5.425781,-5.457031"
         id="path1746" />
      <path
         style="fill:#211e1e;fill-opacity:1;fill-rule:nonzero;stroke:none"
         d="m 94.65625,18.421875 c 2.988281,-0.0078 5.40625,2.40625 5.4375,5.386719 0.0195,3.007812 -2.382812,5.484375 -5.390625,5.5 -3.023437,0.0039 -5.457031,-2.464844 -5.441406,-5.484375 0.01172,-2.980469 2.417969,-5.402344 5.394531,-5.402344"
         id="path1748" />
      <path
         style="fill:#ffffff;fill-opacity:1;fill-rule:nonzero;stroke:none"
         d="M 7.46875,8.925781 H 8.800781 L 6.949219,13.042969 H 5.523438 L 7.46875,8.925781"
         id="path1750" />
      <path
         style="fill:#ffffff;fill-opacity:1;fill-rule:nonzero;stroke:none"
         d="m 9.972656,8.925781 h 4.125 v 4.117188 H 8.109375 L 9.972656,8.925781"
         id="path1752" />
      <path
         style="fill:#ffffff;fill-opacity:1;fill-rule:nonzero;stroke:none"
         d="m 79.546875,18.425781 h 9.769531 l -0.757812,0.785157 h -8.328125 l -0.683594,-0.785157"
         id="path1754" />
      <path
         style="fill:#ffffff;fill-opacity:1;fill-rule:nonzero;stroke:none"
         d="m 10.050781,22.242188 c 1.03125,0 1.851563,0.851562 1.835938,1.882812 -0.0078,1 -0.8125,1.8125 -1.8125,1.820312 -1.03125,0.01172 -1.863281,-0.8125 -1.871094,-1.835937 -0.00781,-1.03125 0.820313,-1.871094 1.847656,-1.867187"
         id="path1756" />
      <path
         style="fill:#ffffff;fill-opacity:1;fill-rule:nonzero;stroke:none"
         d="m 45.136719,22.214844 c 1.039062,-0.01563 1.902343,0.816406 1.902343,1.851562 0,1.035156 -0.859374,1.871094 -1.902343,1.863282 -1.015625,-0.0078 -1.84375,-0.828126 -1.84375,-1.847657 -0.0039,-1.023437 0.824219,-1.859375 1.84375,-1.867187"
         id="path1758" />
      <path
         style="fill:#ffffff;fill-opacity:1;fill-rule:nonzero;stroke:none"
         d="m 74.074219,21.941406 c 1.058593,-0.01563 1.964843,0.816406 1.945312,1.871094 -0.02344,1.050781 -0.917969,1.859375 -1.960937,1.824219 -0.992188,-0.03125 -1.789063,-0.84375 -1.789063,-1.835938 0.0078,-1.007812 0.796875,-1.835937 1.804688,-1.859375"
         id="path1760" />
      <path
         style="fill:#ffffff;fill-opacity:1;fill-rule:nonzero;stroke:none"
         d="m 94.660156,21.96875 c 1.019532,0.01172 1.863282,0.824219 1.871094,1.851562 0.01172,1.03125 -0.820312,1.871094 -1.859375,1.886719 -1.058594,0.0078 -1.917969,-0.84375 -1.914063,-1.902343 0.01563,-1.027344 0.871094,-1.839844 1.902344,-1.835938"
         id="path1762" />
    </g>
  </g>
</svg>
