<?xml version="1.0" encoding="UTF-8"?>
<svg xmlns="http://www.w3.org/2000/svg" xmlns:xlink="http://www.w3.org/1999/xlink" width="103pt" height="30pt" viewBox="0 0 103 30" version="1.1">
<g id="surface1">
<path style=" stroke:none;fill-rule:nonzero;fill:rgb(13.729858%,12.159729%,12.548828%);fill-opacity:1;" d="M 17.507812 18.429688 L 17.507812 1.191406 L 57.660156 1.191406 L 57.660156 18.429688 L 50.496094 18.429688 L 51.167969 19.214844 L 67.886719 19.214844 L 68.535156 18.429688 L 63.09375 18.429688 L 63.09375 1.191406 L 102.808594 0.964844 L 102.808594 18.429688 L 100.164062 18.429688 C 100.230469 18.480469 100.324219 18.558594 100.382812 18.617188 C 100.503906 18.730469 100.609375 18.851562 100.703125 18.992188 C 100.753906 19.054688 100.8125 19.148438 100.855469 19.214844 L 102.253906 19.214844 L 102.253906 23.757812 L 101.402344 23.757812 C 101.394531 23.574219 101.382812 23.324219 101.367188 23.152344 C 101.027344 19.730469 98.105469 17.160156 94.664062 17.175781 C 91.246094 17.183594 88.34375 19.730469 88.023438 23.136719 C 88 23.316406 87.992188 23.574219 87.984375 23.757812 L 80.882812 23.757812 C 80.871094 23.554688 80.867188 23.265625 80.84375 23.0625 C 80.5 19.609375 77.53125 17.039062 74.054688 17.0625 C 70.542969 17.082031 67.535156 19.703125 67.320312 23.214844 C 67.3125 23.367188 67.3125 23.597656 67.3125 23.757812 L 66.691406 23.757812 L 66.691406 23.0625 L 62.53125 20.933594 L 57.941406 20.933594 L 53.101562 22.726562 L 53.101562 24.230469 L 51.160156 24.230469 C 51.160156 24.074219 51.152344 23.84375 51.144531 23.683594 C 50.921875 20.453125 48.324219 17.839844 45.085938 17.832031 C 41.851562 17.816406 39.238281 20.394531 38.988281 23.613281 C 38.972656 23.792969 38.964844 24.050781 38.964844 24.230469 L 16.335938 24.230469 C 16.335938 24.074219 16.328125 23.851562 16.3125 23.699219 C 16.054688 20.378906 13.28125 17.816406 9.957031 17.851562 C 6.738281 17.898438 4.125 20.429688 3.816406 23.640625 C 3.800781 23.8125 3.789062 24.058594 3.789062 24.230469 L 0.230469 24.230469 L 0.230469 21.976562 L 1.460938 21.96875 L 2.339844 15.421875 C 2.355469 15.277344 2.375 15.117188 2.398438 14.96875 C 2.433594 14.722656 2.492188 14.390625 2.578125 14.167969 C 2.6875 13.867188 2.875 13.59375 3.132812 13.40625 C 3.355469 13.238281 3.636719 13.140625 3.910156 13.089844 C 3.996094 13.074219 4.113281 13.058594 4.199219 13.042969 L 6.753906 7.726562 C 6.804688 7.625 6.863281 7.507812 6.910156 7.402344 C 7.003906 7.222656 7.148438 6.992188 7.300781 6.863281 C 7.464844 6.730469 7.675781 6.652344 7.882812 6.617188 C 8.035156 6.59375 8.273438 6.589844 8.421875 6.589844 L 16.636719 6.589844 L 16.636719 19.214844 L 38.914062 19.214844 L 39.597656 18.429688 L 17.507812 18.429688 "/>
<path style=" stroke:none;fill-rule:nonzero;fill:rgb(13.729858%,12.159729%,12.548828%);fill-opacity:1;" d="M 10.015625 18.863281 C 12.917969 18.839844 15.292969 21.1875 15.285156 24.09375 C 15.277344 26.929688 12.988281 29.234375 10.152344 29.265625 C 7.257812 29.292969 4.890625 26.96875 4.882812 24.066406 C 4.875 21.214844 7.15625 18.875 10.015625 18.863281 "/>
<path style=" stroke:none;fill-rule:nonzero;fill:rgb(13.729858%,12.159729%,12.548828%);fill-opacity:1;" d="M 45.109375 19.042969 C 47.878906 19.054688 50.089844 21.324219 50.125 24.09375 C 50.160156 26.902344 47.945312 29.21875 45.136719 29.265625 C 42.285156 29.308594 39.953125 27.019531 39.941406 24.160156 C 39.917969 21.316406 42.257812 19.027344 45.109375 19.042969 "/>
<path style=" stroke:none;fill-rule:nonzero;fill:rgb(13.729858%,12.159729%,12.548828%);fill-opacity:1;" d="M 74.050781 18.386719 C 77.058594 18.371094 79.507812 20.792969 79.53125 23.792969 C 79.542969 26.808594 77.097656 29.265625 74.082031 29.269531 C 71.074219 29.277344 68.632812 26.84375 68.625 23.84375 C 68.617188 20.835938 71.050781 18.394531 74.050781 18.386719 "/>
<path style=" stroke:none;fill-rule:nonzero;fill:rgb(13.729858%,12.159729%,12.548828%);fill-opacity:1;" d="M 94.65625 18.421875 C 97.644531 18.414062 100.0625 20.828125 100.09375 23.808594 C 100.113281 26.816406 97.710938 29.292969 94.703125 29.308594 C 91.679688 29.3125 89.246094 26.84375 89.261719 23.824219 C 89.273438 20.84375 91.679688 18.421875 94.65625 18.421875 "/>
<path style=" stroke:none;fill-rule:nonzero;fill:rgb(100%,100%,100%);fill-opacity:1;" d="M 7.46875 8.925781 L 8.800781 8.925781 L 6.949219 13.042969 L 5.523438 13.042969 L 7.46875 8.925781 "/>
<path style=" stroke:none;fill-rule:nonzero;fill:rgb(100%,100%,100%);fill-opacity:1;" d="M 9.972656 8.925781 L 14.097656 8.925781 L 14.097656 13.042969 L 8.109375 13.042969 L 9.972656 8.925781 "/>
<path style=" stroke:none;fill-rule:nonzero;fill:rgb(100%,100%,100%);fill-opacity:1;" d="M 79.546875 18.425781 L 89.316406 18.425781 L 88.558594 19.210938 L 80.230469 19.210938 L 79.546875 18.425781 "/>
<path style=" stroke:none;fill-rule:nonzero;fill:rgb(100%,100%,100%);fill-opacity:1;" d="M 10.050781 22.242188 C 11.082031 22.242188 11.902344 23.09375 11.886719 24.125 C 11.878906 25.125 11.074219 25.9375 10.074219 25.945312 C 9.042969 25.957031 8.210938 25.132812 8.203125 24.109375 C 8.195312 23.078125 9.023438 22.238281 10.050781 22.242188 "/>
<path style=" stroke:none;fill-rule:nonzero;fill:rgb(100%,100%,100%);fill-opacity:1;" d="M 45.136719 22.214844 C 46.175781 22.199219 47.039062 23.03125 47.039062 24.066406 C 47.039062 25.101562 46.179688 25.9375 45.136719 25.929688 C 44.121094 25.921875 43.292969 25.101562 43.292969 24.082031 C 43.289062 23.058594 44.117188 22.222656 45.136719 22.214844 "/>
<path style=" stroke:none;fill-rule:nonzero;fill:rgb(100%,100%,100%);fill-opacity:1;" d="M 74.074219 21.941406 C 75.132812 21.925781 76.039062 22.757812 76.019531 23.8125 C 75.996094 24.863281 75.101562 25.671875 74.058594 25.636719 C 73.066406 25.605469 72.269531 24.792969 72.269531 23.800781 C 72.277344 22.792969 73.066406 21.964844 74.074219 21.941406 "/>
<path style=" stroke:none;fill-rule:nonzero;fill:rgb(100%,100%,100%);fill-opacity:1;" d="M 94.660156 21.96875 C 95.679688 21.980469 96.523438 22.792969 96.53125 23.820312 C 96.542969 24.851562 95.710938 25.691406 94.671875 25.707031 C 93.613281 25.714844 92.753906 24.863281 92.757812 23.804688 C 92.773438 22.777344 93.628906 21.964844 94.660156 21.96875 "/>
</g>
</svg>
