<?xml version="1.0" encoding="UTF-8" standalone="no"?>
<svg
   width="95.00042pt"
   height="70pt"
   viewBox="0 0 95.00042 70"
   version="1.1"
   id="svg837"
   xmlns="http://www.w3.org/2000/svg"
   xmlns:svg="http://www.w3.org/2000/svg">
  <defs
     id="defs841" />
  <rect
     style="fill:#ffffff;stroke:#000000;stroke-width:0.664602;stroke-linecap:square;stroke-miterlimit:4;stroke-dasharray:none;stroke-opacity:1"
     id="rect941"
     width="94.335815"
     height="69.335396"
     x="0.33230099"
     y="0.33230099" />
  <g
     id="surface1"
     transform="matrix(0.51955564,0,0,0.51955564,52.970924,47.3686)">
    <path
       style="fill:#211e1e;fill-opacity:1;fill-rule:nonzero;stroke:none"
       d="m 33.613281,12.800781 c 0.714844,-0.1875 1.464844,-0.332031 2.226563,-0.332031 4.65625,0 8.4375,3.78125 8.4375,8.4375 0,4.660156 -3.78125,8.4375 -8.4375,8.4375 -4.121094,0 -7.558594,-2.957031 -8.296875,-6.867188 l -1.832031,-0.0078 c -0.449219,0 -1.003907,0 -1.441407,-0.179688 -0.46875,-0.152343 -0.863281,-0.488281 -1.210937,-0.828124 l -10.375,-10.382813 -0.582032,1.851563 c 3.203126,1.210937 5.558594,4.25 5.558594,7.875 0,4.660156 -3.789062,8.457031 -8.445312,8.457031 -4.667969,0 -8.453125,-3.796875 -8.453125,-8.457031 0,-4.65625 3.785156,-8.445313 8.453125,-8.445313 0.460937,0 0.878906,0.05859 1.324218,0.132813 l 2.542969,-8.921876 c 0.171875,-0.597656 0.410157,-1.324218 0.832031,-1.75 C 14.40625,1.316406 15.21875,1 16.167969,1 h 3.113281 v 1.648438 h -2.492188 c -0.492187,0 -1.109374,0 -1.441406,0.273437 -0.332031,0.296875 -0.4375,0.671875 -0.566406,1.117187 L 14.226562,5.84375 H 29.136719 L 29.660156,4.3125 27.300781,3.742188 v -1.09375 h 5.296875 V 4.3125 h -1.273437 l -0.554688,1.53125 2.84375,6.957031"
       id="path824" />
    <path
       style="fill:#ffffff;fill-opacity:1;fill-rule:nonzero;stroke:none"
       d="m 34.242188,14.46875 c 0.496093,-0.121094 1.023437,-0.183594 1.5625,-0.183594 3.648437,0 6.613281,2.964844 6.613281,6.613282 0,3.652343 -2.964844,6.621093 -6.613281,6.621093 -3.105469,0 -5.71875,-2.148437 -6.429688,-5.035156 l 5.328125,-0.0078 c 0.644531,0 1.632813,0.04297 2.035156,-0.589843 0.332031,-0.539063 -0.08594,-1.375 -0.222656,-1.757813 L 34.242188,14.46875"
       id="path826" />
    <path
       style="fill:#ffffff;fill-opacity:1;fill-rule:nonzero;stroke:none"
       d="M 28.601562,7.429688 24.363281,20.410156 13.273438,9.214844 13.785156,7.429688 h 14.816406"
       id="path828" />
    <path
       style="fill:#ffffff;fill-opacity:1;fill-rule:nonzero;stroke:none"
       d="m 32.050781,13.339844 c -2.71875,1.375 -4.597656,4.191406 -4.648437,7.4375 h -1.441406 l 4.046874,-12.273438 2.042969,4.835938"
       id="path830" />
    <path
       style="fill:#ffffff;fill-opacity:1;fill-rule:nonzero;stroke:none"
       d="m 11.632812,14.664062 c 2.441407,0.972657 4.167969,3.355469 4.167969,6.140626 0,3.652343 -2.964843,6.613281 -6.617187,6.613281 -3.648438,0 -6.613282,-2.960938 -6.613282,-6.613281 0,-3.648438 2.964844,-6.605469 6.613282,-6.605469 0.273437,0 0.554687,0.01172 0.824218,0.04687 L 8.21875,20.582031 C 8.125,20.894531 8.0625,21.492188 8.746094,21.6875 9.421875,21.878906 9.761719,21.40625 9.863281,21.058594 l 1.769531,-6.394532"
       id="path832" />
    <path
       style="fill:#ffffff;fill-opacity:1;fill-rule:nonzero;stroke:none"
       d="m 32.683594,15.0625 2.25,5.714844 h -5.71875 c 0,-2.519532 1.390625,-4.59375 3.46875,-5.714844"
       id="path834" />
  </g>
  <text
     xml:space="preserve"
     style="font-style:italic;font-size:12px;line-height:1.25;font-family:sans-serif;-inkscape-font-specification:'sans-serif Italic';stroke-width:0.75"
     x="7.9726591"
     y="13.305556"
     id="text1237"><tspan
       id="tspan1235"
       style="font-style:normal;font-variant:normal;font-weight:normal;font-stretch:normal;font-size:12px;font-family:Arial;-inkscape-font-specification:Arial;stroke-width:0.75"
       x="7.9726591"
       y="13.305556">ausgenommen</tspan></text>
  <g
     id="surface1-8"
     transform="matrix(0.52338632,0,0,0.52338632,21.185357,47.964906)">
    <path
       style="fill:#211e1e;fill-opacity:1;fill-rule:nonzero;stroke:none"
       d="m 34.648438,23.308594 -6.457032,0.144531 0.07422,2.367187 L 29.34375,25.75 v 0.71875 l -2.945312,0.07031 -0.07031,-0.71875 1,-0.07031 -0.07031,-2.296875 H 25.96875 c -0.433594,0 -0.867188,0 -1.21875,-0.144531 -1.367188,-0.433594 -2.441406,-1.507813 -2.585938,-2.945313 -0.07031,-1 0.363282,-2.007812 1.074219,-2.722656 0.07031,-0.07031 0.214844,-0.144531 0.214844,-0.214844 l -0.785156,-1.152343 0.355469,-0.640626 c 0.07031,-0.289062 0.285156,-0.648437 0.285156,-0.9375 L 17.789062,11.328125 C 17.570312,11.183594 17.210938,10.96875 16.996094,10.75 16.78125,10.605469 16.5625,10.390625 16.417969,10.175781 16.203125,9.960938 15.777344,8.742188 15.777344,8.527344 L 14.625,10.75 l 0.289062,0.144531 c 1.722657,1.363281 2.296876,1.867188 3.015626,3.152344 0.929687,1.441406 1.363281,3.089844 1.507812,4.8125 0,0 -0.21875,0.214844 -0.289062,0.214844 l -0.503907,0.07031 C 18.789062,25.460938 12.546875,29.910156 6.589844,27.828125 0.773438,25.75 -1.308594,18.570312 2.496094,13.6875 L 2.136719,13.40625 C 1.925781,13.265625 1.78125,13.046875 1.925781,12.902344 l 0.28125,-0.285156 C 2.710938,12.113281 3.503906,11.390625 4.148438,10.96875 5.152344,10.320312 6.230469,9.816406 7.375,9.597656 9.3125,9.167969 11.257812,9.3125 13.121094,10.03125 c 0.144531,0 0.359375,0.07031 0.496094,0.144531 l 1.371093,-2.875 c -0.07422,0 -1.441406,0.359375 -1.578125,0.359375 -0.07031,0 -0.214844,0 -0.289062,-0.070312 C 13.050781,7.519531 12.976562,7.445312 12.976562,7.300781 V 5.148438 5.292969 c 0,0 -0.07031,-0.433594 0.144532,-0.640625 0.07422,-0.070313 0.289062,-0.144532 0.425781,-0.144532 0.359375,0 0.71875,0.074219 1.078125,0.144532 L 16.132812,4.933594 16.78125,3.5 c -0.722656,0 -1.578125,-0.863281 -1.578125,-1.792969 0,-0.71875 0.144531,-1.574219 1,-1.574219 0.214844,0 0.648437,-0.0742182 0.863281,-0.0742182 L 23.8125,0.132812 v 0.855469 h -6.816406 c -0.503906,0 -0.863282,0.289063 -0.863282,0.648438 0,0.648437 0.285157,0.789062 0.648438,0.863281 l 1.644531,0.425781 -1.070312,2.296875 C 17.5,5.148438 18.574219,4.859375 19.148438,4.933594 c 0.9375,0.144531 1.792968,0.359375 2.730468,1.007812 1.144532,0.71875 2.007813,2.152344 2.222656,3.226563 l 0.07031,1.726562 c 0,0.359375 0.07422,0.710938 0.21875,1.074219 0.359375,0.71875 1.214844,1.367188 2.152344,1.863281 0.503906,0.214844 1.503906,0.433594 2.078125,0.578125 0.507812,0.07031 1.722656,0.503906 1.9375,0.140625 L 35.800781,4.4375 c -0.144531,0 -1.292969,-0.289062 -1.65625,-0.433594 C 33.503906,3.714844 32.640625,3.355469 32.496094,2.707031 32.28125,2.140625 32.929688,1.347656 33.648438,1.5625 c 0.785156,0 1.9375,0.503906 2.867187,0.503906 0.789063,0.074219 2.367187,-0.144531 3.160156,-0.144531 0.933594,0 1.289063,1.433594 0.792969,2.082031 -0.144531,0.359375 -0.792969,0.855469 -1.511719,1 -0.425781,0.074219 -1.507812,0 -1.578125,-0.144531 l 2.222656,5.027344 C 39.820312,9.816406 40.105469,9.671875 40.394531,9.597656 41.324219,9.382812 42.40625,9.3125 43.40625,9.382812 c 2.511719,0.214844 4.878906,1.441407 6.609375,3.304688 0.785156,0.792969 1.433594,1.792969 1.71875,2.871094 0.07422,0.140625 0.07422,0.28125 0.07422,0.28125 l 1.070312,0.07422 c 0.07422,0 0.359375,0 0.433594,0.07031 0.07031,0.07422 0.07031,0.21875 0.07031,0.359375 v 4.089844 c 0,0.144531 0,0.289062 -0.144531,0.359375 l -1.574219,0.363281 c -1.152343,3.726562 -4.449218,6.386719 -8.332031,6.671875 -3.511719,0.21875 -6.816406,-1.503906 -8.683593,-4.519531"
       id="path8325" />
    <path
       style="fill:#ffffff;fill-opacity:1;fill-rule:nonzero;stroke:none"
       d="m 16.613281,19.742188 h -5.3125 c 0,0.714843 -0.929687,1.363281 -1.792969,1.363281 -1.289062,0 -2.371093,-1.503907 -1.722656,-2.585938 0,-0.144531 0.144532,-0.289062 0.21875,-0.433593 L 4.984375,13.78125 c -4.089844,3.519531 -2.871094,10.125 2.152344,11.988281 4.378906,1.648438 9.117187,-1.367187 9.476562,-6.027343"
       id="path8327" />
    <path
       style="fill:#ffffff;fill-opacity:1;fill-rule:nonzero;stroke:none"
       d="m 11.046875,18.203125 2.371094,-4.875 c 0.07031,0.07422 0.214843,0.136719 0.289062,0.207031 0.855469,0.503906 1.503907,1.296875 2.007813,2.089844 0.503906,0.855469 0.792968,1.863281 0.863281,2.792969 0.07031,0.144531 0.07031,0.289062 0.07031,0.359375 l -5.242188,0.144531 c 0,-0.07031 0,-0.214844 -0.07031,-0.429687 -0.07031,-0.144532 -0.214844,-0.289063 -0.289063,-0.289063"
       id="path8329" />
    <path
       style="fill:#ffffff;fill-opacity:1;fill-rule:nonzero;stroke:none"
       d="M 8.738281,17.628906 5.648438,13.320312 C 5.792969,13.25 5.863281,13.175781 6.007812,13.105469 c 0.855469,-0.503907 1.867188,-0.792969 2.875,-0.9375 1.070313,-0.0625 2.222657,0 3.222657,0.433593 0.07422,0.07031 0.21875,0.144532 0.289062,0.144532 l -2.296875,4.808594 c -0.07031,0 -0.289062,-0.144532 -0.648437,-0.144532 -0.214844,0 -0.496094,0 -0.710938,0.21875"
       id="path8331" />
    <path
       style="fill:#ffffff;fill-opacity:1;fill-rule:nonzero;stroke:none"
       d="m 32.007812,16.511719 4.664063,-10.40625 1.9375,4.234375 c -0.07031,0.07422 -0.214844,0.144531 -0.285156,0.214844 -1.148438,0.570312 -2.082031,1.363281 -2.941407,2.296874 -0.863281,1.003907 -1.65625,2.15625 -1.941406,3.441407 0,0.07422 -0.07422,0.21875 -0.07422,0.289062 l -1.359376,-0.07031"
       id="path8333" />
    <path
       style="fill:#ffffff;fill-opacity:1;fill-rule:nonzero;stroke:none"
       d="m 39.734375,12.851562 1.582031,3.730469 c 0,0 0,0.07422 -0.07031,0.07422 -0.214844,0 -0.648438,0.503906 -0.648438,0.789062 h -4.523437 c 0.144531,-1.144531 0.648437,-2.296874 1.363281,-3.160156 0.648438,-0.640625 1.4375,-1.144531 2.296875,-1.433594"
       id="path8335" />
    <path
       style="fill:#ffffff;fill-opacity:1;fill-rule:nonzero;stroke:none"
       d="m 49.726562,18.347656 -4.234374,-0.07422 c 0,-0.07031 -0.285157,-0.933594 -1.007813,-1.503907 -0.570313,-0.429687 -1.289063,-0.503906 -2.007813,-0.503906 l -1.71875,-3.800781 c 2.007813,-0.648438 4.230469,-0.289063 5.953126,0.929687 1.726562,1.152344 2.800781,2.945313 3.015624,4.953125"
       id="path8337" />
    <path
       style="fill:#ffffff;fill-opacity:1;fill-rule:nonzero;stroke:none"
       d="m 42.828125,22.105469 v 0.503906 h 2.371094 v 0.71875 h -7.828125 c 0.07422,0.136719 0.144531,0.28125 0.214844,0.355469 1.867187,2.4375 5.242187,2.941406 8.035156,1.726562 2.371094,-1.007812 4.027344,-3.234375 4.097656,-5.816406 0,-0.144531 0,-0.289062 0,-0.363281 h -4.167969 c 0,0.792969 -0.28125,1.515625 -0.785156,2.082031 -0.503906,0.503906 -1.222656,0.792969 -1.9375,0.792969"
       id="path8339" />
  </g>
  <g
     id="surface1-3"
     transform="matrix(0.78173436,0,0,0.78173436,19.73316,22.035062)">
    <path
       style="fill:#211e1e;fill-opacity:1;fill-rule:nonzero;stroke:none"
       d="M 5.390625,1.070312 61.65625,0.957031 c 0.421875,0 0.859375,0.058594 1.21875,0.230469 0.324219,0.15625 0.597656,0.425781 0.800781,0.710938 l 6.558594,10.066406 c 0.07031,0.125 0.136719,0.273437 0.171875,0.410156 0.06641,0.171875 0.06641,0.878906 0.06641,1.058594 l 0.01953,9.410156 c 0,0.410156 -0.121094,0.855469 -0.4375,1.125 -0.347657,0.289062 -0.851563,0.34375 -1.289063,0.34375 H 58.308594 c 0.0078,-0.199219 0.01563,-0.496094 0,-0.707031 -0.191406,-3.070313 -2.847656,-5.347657 -5.929688,-5.382813 -3.140625,-0.03516 -5.917968,2.230469 -6.128906,5.363282 -0.0078,0.203124 -0.0078,0.496093 -0.0078,0.691406 L 18.617188,24.25 c 0,-0.144531 0,-0.355469 -0.01563,-0.503906 -0.199218,-3.070313 -2.878906,-5.308594 -5.953124,-5.316406 -3.066407,0 -5.671876,2.261718 -5.992188,5.316406 -0.019531,0.148437 -0.035156,0.371094 -0.035156,0.53125 L 1.847656,24.3125 C 1.53125,24.328125 1.222656,24.175781 0.984375,23.960938 0.734375,23.6875 0.59375,23.292969 0.59375,22.925781 l -0.046875,-9.09375 c 0,-0.21875 0.011719,-0.46875 0.042969,-0.679687 0.019531,-0.316406 0.09375,-0.847656 0.179687,-1.128906 l 2.375,-9.734376 C 3.238281,1.863281 3.589844,1.503906 3.980469,1.324219 4.40625,1.113281 4.9375,1.070312 5.390625,1.070312"
       id="path8475" />
    <path
       style="fill:#211e1e;fill-opacity:1;fill-rule:nonzero;stroke:none"
       d="m 12.683594,19.351562 c 2.742187,0 4.960937,2.226563 4.960937,4.96875 0,2.75 -2.222656,4.976563 -4.96875,4.976563 -2.726562,0 -4.953125,-2.203125 -4.96875,-4.941406 -0.011719,-2.761719 2.21875,-5.003907 4.976563,-5.003907"
       id="path8477" />
    <path
       style="fill:#211e1e;fill-opacity:1;fill-rule:nonzero;stroke:none"
       d="m 52.371094,19.273438 c 2.773437,0.02734 4.945312,2.347656 4.910156,5.125 -0.04297,2.714843 -2.253906,4.914062 -4.976562,4.917968 -2.757813,0.0078 -5.019532,-2.195312 -5.046876,-4.945312 -0.04297,-2.835938 2.277344,-5.125 5.113282,-5.097656"
       id="path8479" />
    <path
       style="fill:#ffffff;fill-opacity:1;fill-rule:nonzero;stroke:none"
       d="M 4.347656,3.144531 6.421875,3.132812 4.074219,12.613281 h -2.0625 l 2.335937,-9.46875"
       id="path8481" />
    <path
       style="fill:#ffffff;fill-opacity:1;fill-rule:nonzero;stroke:none"
       d="m 7.945312,3.117188 6.359376,-0.027344 0.0625,9.515625 -8.746094,0.03125 2.324218,-9.519531"
       id="path8483" />
    <path
       style="fill:#ffffff;fill-opacity:1;fill-rule:nonzero;stroke:none"
       d="m 15.679688,3.089844 h 7.121093 l -0.05859,9.523437 h -7.035157 l -0.02734,-9.523437"
       id="path8485" />
    <path
       style="fill:#ffffff;fill-opacity:1;fill-rule:nonzero;stroke:none"
       d="m 24.132812,3.089844 h 7.011719 l 0.01563,9.523437 H 24.132812 V 3.089844"
       id="path8487" />
    <path
       style="fill:#ffffff;fill-opacity:1;fill-rule:nonzero;stroke:none"
       d="m 32.59375,3.089844 7.132812,0.027344 0.09375,9.519531 H 32.636719 L 32.59375,3.089844"
       id="path8489" />
    <path
       style="fill:#ffffff;fill-opacity:1;fill-rule:nonzero;stroke:none"
       d="m 41.117188,3.117188 7.316406,-0.035157 0.09375,9.574219 -7.296875,-0.01953 -0.113281,-9.519531"
       id="path8491" />
    <path
       style="fill:#ffffff;fill-opacity:1;fill-rule:nonzero;stroke:none"
       d="M 49.84375,3.089844 H 57 l 0.06641,9.480468 -7.128906,0.06641 -0.09375,-9.546875"
       id="path8493" />
    <path
       style="fill:#ffffff;fill-opacity:1;fill-rule:nonzero;stroke:none"
       d="m 58.460938,3.089844 h 4.363281 l 5.976562,9.480468 H 58.484375 l -0.02344,-9.480468"
       id="path8495" />
    <path
       style="fill:#ffffff;fill-opacity:1;fill-rule:nonzero;stroke:none"
       d="m 12.675781,22.183594 c 1.167969,0 2.089844,0.972656 2.066407,2.136718 -0.01172,1.117188 -0.921876,2.023438 -2.035157,2.023438 -1.125,0.0078 -2.039062,-0.886719 -2.082031,-2 -0.02734,-1.167969 0.886719,-2.15625 2.050781,-2.160156"
       id="path8497" />
    <path
       style="fill:#ffffff;fill-opacity:1;fill-rule:nonzero;stroke:none"
       d="m 52.347656,22.160156 c 1.195313,0.0078 2.140625,1.015625 2.058594,2.21875 -0.0625,1.066406 -0.984375,1.863282 -2.0625,1.871094 -1.097656,0.0078 -2.046875,-0.792969 -2.125,-1.871094 -0.07813,-1.21875 0.90625,-2.234375 2.128906,-2.21875"
       id="path8499" />
  </g>
</svg>
