<?xml version="1.0" encoding="UTF-8" standalone="no"?>
<svg
   width="59.392017pt"
   height="32.632977pt"
   viewBox="0 0 59.392018 32.632977"
   version="1.1"
   id="svg3513"
   xmlns="http://www.w3.org/2000/svg"
   xmlns:svg="http://www.w3.org/2000/svg">
  <defs
     id="defs3517" />
  <g
     id="layer2"
     style="display:inline"
     transform="scale(0.74036996,1)" />
  <g
     id="layer1"
     transform="scale(0.99710032,0.91214023)">
    <rect
       style="display:inline;fill:#ffffff;stroke:none;stroke-width:0;stroke-linecap:square;stroke-miterlimit:4;stroke-dasharray:none;stroke-opacity:1"
       id="rect3621"
       width="59.564735"
       height="35.776272"
       x="0"
       y="8.8817842e-16" />
    <rect
       style="display:inline;fill:none;stroke:#000000;stroke-width:0.164154;stroke-linecap:square;stroke-miterlimit:4;stroke-dasharray:none;stroke-opacity:1"
       id="rect3621-4"
       width="58.666401"
       height="34.468613"
       x="0.486384"
       y="0.729029" />
  </g>
  <g
     id="layer3"
     style="display:inline"
     transform="matrix(0.92877431,0,0,0.92877431,1.4940648,-0.60467709)">
    <g
       id="surface1"
       transform="translate(3.8451591,3.8232397)">
      <path
         style="fill:#211e1e;fill-opacity:1;fill-rule:nonzero;stroke:none"
         d="M 1.628906,17.164062 1.269531,16.777344 C 0.765625,16.230469 3.878906,14.5 5.246094,14.023438 c 0.960937,-0.335938 3.5,-0.789063 4.042968,-0.789063 V 11.71875 c 0,-0.07031 0,-0.359375 0.140626,-0.503906 0.144531,-0.144532 0.476562,-0.09766 0.578124,-0.07422 0.210938,0.04687 0.722657,0.21875 0.722657,0.21875 0.07422,-0.07422 0.21875,-0.21875 0.289062,-0.289063 0.144531,-0.144531 1.15625,-0.796874 1.589844,-0.867187 0.792969,-0.07422 1.445313,0.07031 2.167969,0.289063 l 0.867187,0.289062 c 0.296875,0.09766 0.929688,-0.445312 1.226563,-0.433594 0.535156,0.01953 3.097656,0.886719 2.964844,0.371094 l -0.4375,-1.671875 C 19.335938,8.804688 18.941406,7.304688 18.75,7.167969 18.695312,7.132812 18.554688,7.183594 18.453125,7.257812 18.1875,7.453125 17.710938,7.394531 17.644531,7.105469 17.59375,6.894531 17.503906,6.65625 17.378906,6.519531 17.246094,6.378906 16.507812,6.246094 16.292969,6.230469 16.179688,6.21875 16.054688,6.128906 16.078125,6.015625 16.128906,5.730469 16.222656,5.433594 16.003906,5.074219 L 15.5,4.0625 C 15.355469,3.847656 15.355469,3.484375 15.355469,3.269531 c 0,-0.289062 0,-0.578125 0.07031,-0.867187 0.21875,-1.371094 1.660157,-2.09375 2.816407,-2.167969 0.941406,-0.074219 2.601562,0.074219 3.253906,2.601563 0.07031,0.289062 0.07031,0.722656 0.07031,0.9375 0.128906,0 2.570313,0.128906 3.394532,0.433593 0.964843,0.355469 4.085937,2.714844 5.632812,4.261719 1.027344,0.769531 2.960938,2.449219 4.046875,3.902344 0.230469,0.460937 0.519531,1.007812 0.417969,1.796875 -0.02734,0.195312 -0.273438,1.164062 -0.488282,1.378906 l 2.746094,1.804687 1.800782,-2.164062 c 0.222656,-0.21875 0.25,-0.496094 0.179687,-0.679688 -0.109375,-0.28125 -0.539063,-0.332031 -0.972656,-0.476562 l -1.804688,-0.648438 c -0.07422,-0.07422 -0.617187,-0.1875 -0.527343,-0.796874 0.05859,-0.40625 0.433593,-0.574219 0.601562,-0.578126 l 11.265625,-0.214843 1.519531,0.07031 c 0.179688,0.0078 0.449219,0.234375 0.570313,0.535157 0.171875,0.433593 0.03125,0.8125 -0.08594,0.941406 l -0.890625,0.941406 c -0.03906,0.226562 0.05078,0.347656 0.1875,0.472656 0.105469,0.09375 1.757813,1.492188 2.167969,2.308594 0.144531,0.21875 0.152344,1.03125 0.359375,1.027344 0.449219,-0.01563 0.867188,0.277344 0.867188,0.632812 V 23.5625 c 0,0.07422 -0.01953,0.261719 -0.07031,0.363281 -0.07422,0.136719 -0.386719,0.203125 -0.589844,0.199219 -0.417969,-0.01563 -0.710937,-0.199219 -0.785156,-0.199219 0,0.07422 -1.292969,4.582031 -6.570313,4.621094 -6.300781,0.05078 -7.363281,-5.851563 -7.371093,-5.847656 l -6.074219,2.4375 -10.609375,0.01563 c -0.21875,0 -1.363281,0.02734 -1.53125,-0.75 -0.121094,-0.558594 0.734375,-1.34375 0.808594,-1.414063 L 17.234375,19.59375 c 0,0 -0.21875,-0.433594 -0.578125,-0.292969 -0.289062,0.07422 -0.289062,0.507813 -0.289062,0.507813 l -0.02734,2.09375 c 0,0.07031 0,0.410156 -0.191406,0.578125 -0.234376,0.214843 -0.710938,0.07422 -0.921876,0.07422 -0.664062,3.425781 -3.683593,6.015624 -7.300781,6.015624 -4.109375,0 -7.441406,-3.332031 -7.441406,-7.4375 0,-1.457031 0.417969,-2.820312 1.144531,-3.96875"
         id="path3003" />
      <path
         style="fill:#ffffff;fill-opacity:1;fill-rule:nonzero;stroke:none"
         d="m 20.398438,20.691406 -1.949219,-3.101562 c -0.21875,-0.511719 -0.21875,-1.160156 0.144531,-1.59375 0.285156,-0.285156 0.796875,-0.285156 1.230469,0.144531 0.574219,0.578125 0.789062,1.734375 0.789062,2.238281 0,0.578125 -0.214843,1.519532 -0.214843,2.3125"
         id="path3005" />
      <path
         style="fill:#ffffff;fill-opacity:1;fill-rule:nonzero;stroke:none"
         d="m 30.652344,21.628906 -2.023438,-0.21875 c 0,0 0.792969,-1.445312 1.519532,-2.167968 0.574218,-0.574219 1.441406,-1.15625 2.023437,-1.515626 l -1.519531,3.902344"
         id="path3007" />
      <path
         style="fill:#ffffff;fill-opacity:1;fill-rule:nonzero;stroke:none"
         d="M 17.800781,13.597656 H 13.25 c 0,0 0.648438,-1.445312 1.949219,-1.375 0.433593,0 0.722656,-0.07031 1.296875,0.296875 0.511718,0.359375 0.945312,0.71875 1.304687,1.078125"
         id="path3009" />
      <path
         style="fill:#ffffff;fill-opacity:1;fill-rule:nonzero;stroke:none"
         d="m 9.386719,20.308594 0.839843,-1.261719 c 0.566407,0.574219 0.914063,1.347656 0.914063,2.214844 0,1.757812 -1.425781,3.183593 -3.183594,3.183593 -1.757812,0 -3.179687,-1.425781 -3.179687,-3.183593 0,-1.710938 1.347656,-3.105469 3.042968,-3.179688 l 0.074219,1.453125 C 6.96875,19.5625 6.230469,20.324219 6.230469,21.25 c 0,0.949219 0.769531,1.71875 1.71875,1.71875 0.945312,0 1.71875,-0.769531 1.71875,-1.71875 0,-0.34375 -0.105469,-0.667969 -0.28125,-0.941406"
         id="path3011" />
      <path
         style="fill:#ffffff;fill-opacity:1;fill-rule:nonzero;stroke:none"
         d="m 45.921875,21.925781 1.277344,0.632813 c -0.488281,1.128906 -1.609375,1.914062 -2.914063,1.914062 -1.75,0 -3.171875,-1.421875 -3.171875,-3.171875 0,-0.574219 0.152344,-1.117187 0.421875,-1.582031 l 1.304688,0.640625 c -0.183594,0.277344 -0.289063,0.605469 -0.289063,0.960937 0,0.960938 0.78125,1.742188 1.742188,1.742188 0.746093,0 1.386719,-0.472656 1.628906,-1.136719"
         id="path3013" />
      <path
         style="fill:#ffffff;fill-opacity:1;fill-rule:nonzero;stroke:none"
         d="m 47.296875,20.304688 -1.382813,0.390624 c -0.25,-0.652343 -0.882812,-1.113281 -1.621093,-1.113281 -0.160157,0 -0.316407,0.01953 -0.464844,0.0625 L 43.28125,18.292969 c 0.316406,-0.105469 0.652344,-0.164063 1.003906,-0.164063 1.402344,0 2.59375,0.914063 3.011719,2.175782"
         id="path3015" />
    </g>
  </g>
</svg>
