<?xml version="1.0" encoding="UTF-8" standalone="no"?>
<svg
   width="66.12326pt"
   height="35.171947pt"
   viewBox="0 0 66.123261 35.171948"
   version="1.1"
   id="svg3513"
   xmlns="http://www.w3.org/2000/svg"
   xmlns:svg="http://www.w3.org/2000/svg">
  <defs
     id="defs3517" />
  <g
     id="layer2"
     style="display:inline"
     transform="matrix(0.74036996,0,0,1,3.1206337,-0.91530217)" />
  <g
     id="layer1"
     transform="scale(1.1101075,0.98310825)">
    <rect
       style="display:inline;fill:#ffffff;stroke:none;stroke-width:0;stroke-linecap:square;stroke-miterlimit:4;stroke-dasharray:none;stroke-opacity:1"
       id="rect3621"
       width="59.564735"
       height="35.776272"
       x="0"
       y="8.8817842e-16" />
    <rect
       style="display:inline;fill:none;stroke:#000000;stroke-width:0.164154;stroke-linecap:square;stroke-miterlimit:4;stroke-dasharray:none;stroke-opacity:1"
       id="rect3621-4"
       width="58.666401"
       height="34.468613"
       x="0.486384"
       y="0.729029" />
  </g>
  <g
     id="layer3"
     style="display:inline"
     transform="translate(3.1206337,-0.91530217)">
    <g
       id="surface1-8"
       transform="translate(2.963661,4.2986703)">
      <path
         style="fill:#211e1e;fill-opacity:1;fill-rule:nonzero;stroke:none"
         d="m 34.648438,23.308594 -6.457032,0.144531 0.07422,2.367187 L 29.34375,25.75 v 0.71875 l -2.945312,0.07031 -0.07031,-0.71875 1,-0.07031 -0.07031,-2.296875 H 25.96875 c -0.433594,0 -0.867188,0 -1.21875,-0.144531 -1.367188,-0.433594 -2.441406,-1.507813 -2.585938,-2.945313 -0.07031,-1 0.363282,-2.007812 1.074219,-2.722656 0.07031,-0.07031 0.214844,-0.144531 0.214844,-0.214844 l -0.785156,-1.152343 0.355469,-0.640626 c 0.07031,-0.289062 0.285156,-0.648437 0.285156,-0.9375 L 17.789062,11.328125 C 17.570312,11.183594 17.210938,10.96875 16.996094,10.75 16.78125,10.605469 16.5625,10.390625 16.417969,10.175781 16.203125,9.960938 15.777344,8.742188 15.777344,8.527344 L 14.625,10.75 l 0.289062,0.144531 c 1.722657,1.363281 2.296876,1.867188 3.015626,3.152344 0.929687,1.441406 1.363281,3.089844 1.507812,4.8125 0,0 -0.21875,0.214844 -0.289062,0.214844 l -0.503907,0.07031 C 18.789062,25.460938 12.546875,29.910156 6.589844,27.828125 0.773438,25.75 -1.308594,18.570312 2.496094,13.6875 L 2.136719,13.40625 C 1.925781,13.265625 1.78125,13.046875 1.925781,12.902344 l 0.28125,-0.285156 C 2.710938,12.113281 3.503906,11.390625 4.148438,10.96875 5.152344,10.320312 6.230469,9.816406 7.375,9.597656 9.3125,9.167969 11.257812,9.3125 13.121094,10.03125 c 0.144531,0 0.359375,0.07031 0.496094,0.144531 l 1.371093,-2.875 c -0.07422,0 -1.441406,0.359375 -1.578125,0.359375 -0.07031,0 -0.214844,0 -0.289062,-0.070312 C 13.050781,7.519531 12.976562,7.445312 12.976562,7.300781 V 5.148438 5.292969 c 0,0 -0.07031,-0.433594 0.144532,-0.640625 0.07422,-0.070313 0.289062,-0.144532 0.425781,-0.144532 0.359375,0 0.71875,0.074219 1.078125,0.144532 L 16.132812,4.933594 16.78125,3.5 c -0.722656,0 -1.578125,-0.863281 -1.578125,-1.792969 0,-0.71875 0.144531,-1.574219 1,-1.574219 0.214844,0 0.648437,-0.0742182 0.863281,-0.0742182 L 23.8125,0.132812 v 0.855469 h -6.816406 c -0.503906,0 -0.863282,0.289063 -0.863282,0.648438 0,0.648437 0.285157,0.789062 0.648438,0.863281 l 1.644531,0.425781 -1.070312,2.296875 C 17.5,5.148438 18.574219,4.859375 19.148438,4.933594 c 0.9375,0.144531 1.792968,0.359375 2.730468,1.007812 1.144532,0.71875 2.007813,2.152344 2.222656,3.226563 l 0.07031,1.726562 c 0,0.359375 0.07422,0.710938 0.21875,1.074219 0.359375,0.71875 1.214844,1.367188 2.152344,1.863281 0.503906,0.214844 1.503906,0.433594 2.078125,0.578125 0.507812,0.07031 1.722656,0.503906 1.9375,0.140625 L 35.800781,4.4375 c -0.144531,0 -1.292969,-0.289062 -1.65625,-0.433594 C 33.503906,3.714844 32.640625,3.355469 32.496094,2.707031 32.28125,2.140625 32.929688,1.347656 33.648438,1.5625 c 0.785156,0 1.9375,0.503906 2.867187,0.503906 0.789063,0.074219 2.367187,-0.144531 3.160156,-0.144531 0.933594,0 1.289063,1.433594 0.792969,2.082031 -0.144531,0.359375 -0.792969,0.855469 -1.511719,1 -0.425781,0.074219 -1.507812,0 -1.578125,-0.144531 l 2.222656,5.027344 C 39.820312,9.816406 40.105469,9.671875 40.394531,9.597656 41.324219,9.382812 42.40625,9.3125 43.40625,9.382812 c 2.511719,0.214844 4.878906,1.441407 6.609375,3.304688 0.785156,0.792969 1.433594,1.792969 1.71875,2.871094 0.07422,0.140625 0.07422,0.28125 0.07422,0.28125 l 1.070312,0.07422 c 0.07422,0 0.359375,0 0.433594,0.07031 0.07031,0.07422 0.07031,0.21875 0.07031,0.359375 v 4.089844 c 0,0.144531 0,0.289062 -0.144531,0.359375 l -1.574219,0.363281 c -1.152343,3.726562 -4.449218,6.386719 -8.332031,6.671875 -3.511719,0.21875 -6.816406,-1.503906 -8.683593,-4.519531"
         id="path3186" />
      <path
         style="fill:#ffffff;fill-opacity:1;fill-rule:nonzero;stroke:none"
         d="m 16.613281,19.742188 h -5.3125 c 0,0.714843 -0.929687,1.363281 -1.792969,1.363281 -1.289062,0 -2.371093,-1.503907 -1.722656,-2.585938 0,-0.144531 0.144532,-0.289062 0.21875,-0.433593 L 4.984375,13.78125 c -4.089844,3.519531 -2.871094,10.125 2.152344,11.988281 4.378906,1.648438 9.117187,-1.367187 9.476562,-6.027343"
         id="path3188" />
      <path
         style="fill:#ffffff;fill-opacity:1;fill-rule:nonzero;stroke:none"
         d="m 11.046875,18.203125 2.371094,-4.875 c 0.07031,0.07422 0.214843,0.136719 0.289062,0.207031 0.855469,0.503906 1.503907,1.296875 2.007813,2.089844 0.503906,0.855469 0.792968,1.863281 0.863281,2.792969 0.07031,0.144531 0.07031,0.289062 0.07031,0.359375 l -5.242188,0.144531 c 0,-0.07031 0,-0.214844 -0.07031,-0.429687 -0.07031,-0.144532 -0.214844,-0.289063 -0.289063,-0.289063"
         id="path3190" />
      <path
         style="fill:#ffffff;fill-opacity:1;fill-rule:nonzero;stroke:none"
         d="M 8.738281,17.628906 5.648438,13.320312 C 5.792969,13.25 5.863281,13.175781 6.007812,13.105469 c 0.855469,-0.503907 1.867188,-0.792969 2.875,-0.9375 1.070313,-0.0625 2.222657,0 3.222657,0.433593 0.07422,0.07031 0.21875,0.144532 0.289062,0.144532 l -2.296875,4.808594 c -0.07031,0 -0.289062,-0.144532 -0.648437,-0.144532 -0.214844,0 -0.496094,0 -0.710938,0.21875"
         id="path3192" />
      <path
         style="fill:#ffffff;fill-opacity:1;fill-rule:nonzero;stroke:none"
         d="m 32.007812,16.511719 4.664063,-10.40625 1.9375,4.234375 c -0.07031,0.07422 -0.214844,0.144531 -0.285156,0.214844 -1.148438,0.570312 -2.082031,1.363281 -2.941407,2.296874 -0.863281,1.003907 -1.65625,2.15625 -1.941406,3.441407 0,0.07422 -0.07422,0.21875 -0.07422,0.289062 l -1.359376,-0.07031"
         id="path3194" />
      <path
         style="fill:#ffffff;fill-opacity:1;fill-rule:nonzero;stroke:none"
         d="m 39.734375,12.851562 1.582031,3.730469 c 0,0 0,0.07422 -0.07031,0.07422 -0.214844,0 -0.648438,0.503906 -0.648438,0.789062 h -4.523437 c 0.144531,-1.144531 0.648437,-2.296874 1.363281,-3.160156 0.648438,-0.640625 1.4375,-1.144531 2.296875,-1.433594"
         id="path3196" />
      <path
         style="fill:#ffffff;fill-opacity:1;fill-rule:nonzero;stroke:none"
         d="m 49.726562,18.347656 -4.234374,-0.07422 c 0,-0.07031 -0.285157,-0.933594 -1.007813,-1.503907 -0.570313,-0.429687 -1.289063,-0.503906 -2.007813,-0.503906 l -1.71875,-3.800781 c 2.007813,-0.648438 4.230469,-0.289063 5.953126,0.929687 1.726562,1.152344 2.800781,2.945313 3.015624,4.953125"
         id="path3198" />
      <path
         style="fill:#ffffff;fill-opacity:1;fill-rule:nonzero;stroke:none"
         d="m 42.828125,22.105469 v 0.503906 h 2.371094 v 0.71875 h -7.828125 c 0.07422,0.136719 0.144531,0.28125 0.214844,0.355469 1.867187,2.4375 5.242187,2.941406 8.035156,1.726562 2.371094,-1.007812 4.027344,-3.234375 4.097656,-5.816406 0,-0.144531 0,-0.289062 0,-0.363281 h -4.167969 c 0,0.792969 -0.28125,1.515625 -0.785156,2.082031 -0.503906,0.503906 -1.222656,0.792969 -1.9375,0.792969"
         id="path3200" />
    </g>
  </g>
</svg>
