<?xml version="1.0" encoding="UTF-8"?>
<svg xmlns="http://www.w3.org/2000/svg" xmlns:xlink="http://www.w3.org/1999/xlink" width="54pt" height="29pt" viewBox="0 0 54 29" version="1.1">
<g id="surface1">
<path style=" stroke:none;fill-rule:nonzero;fill:rgb(13.729858%,12.159729%,12.548828%);fill-opacity:1;" d="M 34.648438 23.308594 L 28.191406 23.453125 L 28.265625 25.820312 L 29.34375 25.75 L 29.34375 26.46875 L 26.398438 26.539062 L 26.328125 25.820312 L 27.328125 25.75 L 27.257812 23.453125 L 25.96875 23.453125 C 25.535156 23.453125 25.101562 23.453125 24.75 23.308594 C 23.382812 22.875 22.308594 21.800781 22.164062 20.363281 C 22.09375 19.363281 22.527344 18.355469 23.238281 17.640625 C 23.308594 17.570312 23.453125 17.496094 23.453125 17.425781 L 22.667969 16.273438 L 23.023438 15.632812 C 23.09375 15.34375 23.308594 14.984375 23.308594 14.695312 L 17.789062 11.328125 C 17.570312 11.183594 17.210938 10.96875 16.996094 10.75 C 16.78125 10.605469 16.5625 10.390625 16.417969 10.175781 C 16.203125 9.960938 15.777344 8.742188 15.777344 8.527344 L 14.625 10.75 L 14.914062 10.894531 C 16.636719 12.257812 17.210938 12.761719 17.929688 14.046875 C 18.859375 15.488281 19.292969 17.136719 19.4375 18.859375 C 19.4375 18.859375 19.21875 19.074219 19.148438 19.074219 L 18.644531 19.144531 C 18.789062 25.460938 12.546875 29.910156 6.589844 27.828125 C 0.773438 25.75 -1.308594 18.570312 2.496094 13.6875 L 2.136719 13.40625 C 1.925781 13.265625 1.78125 13.046875 1.925781 12.902344 L 2.207031 12.617188 C 2.710938 12.113281 3.503906 11.390625 4.148438 10.96875 C 5.152344 10.320312 6.230469 9.816406 7.375 9.597656 C 9.3125 9.167969 11.257812 9.3125 13.121094 10.03125 C 13.265625 10.03125 13.480469 10.101562 13.617188 10.175781 L 14.988281 7.300781 C 14.914062 7.300781 13.546875 7.660156 13.410156 7.660156 C 13.339844 7.660156 13.195312 7.660156 13.121094 7.589844 C 13.050781 7.519531 12.976562 7.445312 12.976562 7.300781 L 12.976562 5.148438 L 12.976562 5.292969 C 12.976562 5.292969 12.90625 4.859375 13.121094 4.652344 C 13.195312 4.582031 13.410156 4.507812 13.546875 4.507812 C 13.90625 4.507812 14.265625 4.582031 14.625 4.652344 L 16.132812 4.933594 L 16.78125 3.5 C 16.058594 3.5 15.203125 2.636719 15.203125 1.707031 C 15.203125 0.988281 15.347656 0.132812 16.203125 0.132812 C 16.417969 0.132812 16.851562 0.0585938 17.066406 0.0585938 L 23.8125 0.132812 L 23.8125 0.988281 L 16.996094 0.988281 C 16.492188 0.988281 16.132812 1.277344 16.132812 1.636719 C 16.132812 2.285156 16.417969 2.425781 16.78125 2.5 L 18.425781 2.925781 L 17.355469 5.222656 C 17.5 5.148438 18.574219 4.859375 19.148438 4.933594 C 20.085938 5.078125 20.941406 5.292969 21.878906 5.941406 C 23.023438 6.660156 23.886719 8.09375 24.101562 9.167969 L 24.171875 10.894531 C 24.171875 11.253906 24.246094 11.605469 24.390625 11.96875 C 24.75 12.6875 25.605469 13.335938 26.542969 13.832031 C 27.046875 14.046875 28.046875 14.265625 28.621094 14.410156 C 29.128906 14.480469 30.34375 14.914062 30.558594 14.550781 L 35.800781 4.4375 C 35.65625 4.4375 34.507812 4.148438 34.144531 4.003906 C 33.503906 3.714844 32.640625 3.355469 32.496094 2.707031 C 32.28125 2.140625 32.929688 1.347656 33.648438 1.5625 C 34.433594 1.5625 35.585938 2.066406 36.515625 2.066406 C 37.304688 2.140625 38.882812 1.921875 39.675781 1.921875 C 40.609375 1.921875 40.964844 3.355469 40.46875 4.003906 C 40.324219 4.363281 39.675781 4.859375 38.957031 5.003906 C 38.53125 5.078125 37.449219 5.003906 37.378906 4.859375 L 39.601562 9.886719 C 39.820312 9.816406 40.105469 9.671875 40.394531 9.597656 C 41.324219 9.382812 42.40625 9.3125 43.40625 9.382812 C 45.917969 9.597656 48.285156 10.824219 50.015625 12.6875 C 50.800781 13.480469 51.449219 14.480469 51.734375 15.558594 C 51.808594 15.699219 51.808594 15.839844 51.808594 15.839844 L 52.878906 15.914062 C 52.953125 15.914062 53.238281 15.914062 53.3125 15.984375 C 53.382812 16.058594 53.382812 16.203125 53.382812 16.34375 L 53.382812 20.433594 C 53.382812 20.578125 53.382812 20.722656 53.238281 20.792969 L 51.664062 21.15625 C 50.511719 24.882812 47.214844 27.542969 43.332031 27.828125 C 39.820312 28.046875 36.515625 26.324219 34.648438 23.308594 "/>
<path style=" stroke:none;fill-rule:nonzero;fill:rgb(100%,100%,100%);fill-opacity:1;" d="M 16.613281 19.742188 L 11.300781 19.742188 C 11.300781 20.457031 10.371094 21.105469 9.507812 21.105469 C 8.21875 21.105469 7.136719 19.601562 7.785156 18.519531 C 7.785156 18.375 7.929688 18.230469 8.003906 18.085938 L 4.984375 13.78125 C 0.894531 17.300781 2.113281 23.90625 7.136719 25.769531 C 11.515625 27.417969 16.253906 24.402344 16.613281 19.742188 "/>
<path style=" stroke:none;fill-rule:nonzero;fill:rgb(100%,100%,100%);fill-opacity:1;" d="M 11.046875 18.203125 L 13.417969 13.328125 C 13.488281 13.402344 13.632812 13.464844 13.707031 13.535156 C 14.5625 14.039062 15.210938 14.832031 15.714844 15.625 C 16.21875 16.480469 16.507812 17.488281 16.578125 18.417969 C 16.648438 18.5625 16.648438 18.707031 16.648438 18.777344 L 11.40625 18.921875 C 11.40625 18.851562 11.40625 18.707031 11.335938 18.492188 C 11.265625 18.347656 11.121094 18.203125 11.046875 18.203125 "/>
<path style=" stroke:none;fill-rule:nonzero;fill:rgb(100%,100%,100%);fill-opacity:1;" d="M 8.738281 17.628906 L 5.648438 13.320312 C 5.792969 13.25 5.863281 13.175781 6.007812 13.105469 C 6.863281 12.601562 7.875 12.3125 8.882812 12.167969 C 9.953125 12.105469 11.105469 12.167969 12.105469 12.601562 C 12.179688 12.671875 12.324219 12.746094 12.394531 12.746094 L 10.097656 17.554688 C 10.027344 17.554688 9.808594 17.410156 9.449219 17.410156 C 9.234375 17.410156 8.953125 17.410156 8.738281 17.628906 "/>
<path style=" stroke:none;fill-rule:nonzero;fill:rgb(100%,100%,100%);fill-opacity:1;" d="M 32.007812 16.511719 L 36.671875 6.105469 L 38.609375 10.339844 C 38.539062 10.414062 38.394531 10.484375 38.324219 10.554688 C 37.175781 11.125 36.242188 11.917969 35.382812 12.851562 C 34.519531 13.855469 33.726562 15.007812 33.441406 16.292969 C 33.441406 16.367188 33.367188 16.511719 33.367188 16.582031 L 32.007812 16.511719 "/>
<path style=" stroke:none;fill-rule:nonzero;fill:rgb(100%,100%,100%);fill-opacity:1;" d="M 39.734375 12.851562 L 41.316406 16.582031 C 41.316406 16.582031 41.316406 16.65625 41.246094 16.65625 C 41.03125 16.65625 40.597656 17.160156 40.597656 17.445312 L 36.074219 17.445312 C 36.21875 16.300781 36.722656 15.148438 37.4375 14.285156 C 38.085938 13.644531 38.875 13.140625 39.734375 12.851562 "/>
<path style=" stroke:none;fill-rule:nonzero;fill:rgb(100%,100%,100%);fill-opacity:1;" d="M 49.726562 18.347656 L 45.492188 18.273438 C 45.492188 18.203125 45.207031 17.339844 44.484375 16.769531 C 43.914062 16.339844 43.195312 16.265625 42.476562 16.265625 L 40.757812 12.464844 C 42.765625 11.816406 44.988281 12.175781 46.710938 13.394531 C 48.4375 14.546875 49.511719 16.339844 49.726562 18.347656 "/>
<path style=" stroke:none;fill-rule:nonzero;fill:rgb(100%,100%,100%);fill-opacity:1;" d="M 42.828125 22.105469 L 42.828125 22.609375 L 45.199219 22.609375 L 45.199219 23.328125 L 37.371094 23.328125 C 37.445312 23.464844 37.515625 23.609375 37.585938 23.683594 C 39.453125 26.121094 42.828125 26.625 45.621094 25.410156 C 47.992188 24.402344 49.648438 22.175781 49.71875 19.59375 C 49.71875 19.449219 49.71875 19.304688 49.71875 19.230469 L 45.550781 19.230469 C 45.550781 20.023438 45.269531 20.746094 44.765625 21.3125 C 44.261719 21.816406 43.542969 22.105469 42.828125 22.105469 "/>
</g>
</svg>
