<?xml version="1.0" encoding="UTF-8" standalone="no"?>
<svg
   width="95.000008pt"
   height="50pt"
   viewBox="0 0 95.000008 50"
   version="1.1"
   id="svg837"
   xmlns="http://www.w3.org/2000/svg"
   xmlns:svg="http://www.w3.org/2000/svg">
  <defs
     id="defs841" />
  <rect
     style="fill:#ffffff;stroke:#000000;stroke-width:0.561506;stroke-linecap:square;stroke-miterlimit:4;stroke-dasharray:none;stroke-opacity:1"
     id="rect941"
     width="94.438499"
     height="49.438496"
     x="0.28075299"
     y="0.28075299" />
  <g
     id="surface1"
     transform="translate(24.980471,18.022363)">
    <path
       style="fill:#211e1e;fill-opacity:1;fill-rule:nonzero;stroke:none"
       d="m 33.613281,12.800781 c 0.714844,-0.1875 1.464844,-0.332031 2.226563,-0.332031 4.65625,0 8.4375,3.78125 8.4375,8.4375 0,4.660156 -3.78125,8.4375 -8.4375,8.4375 -4.121094,0 -7.558594,-2.957031 -8.296875,-6.867188 l -1.832031,-0.0078 c -0.449219,0 -1.003907,0 -1.441407,-0.179688 -0.46875,-0.152343 -0.863281,-0.488281 -1.210937,-0.828124 l -10.375,-10.382813 -0.582032,1.851563 c 3.203126,1.210937 5.558594,4.25 5.558594,7.875 0,4.660156 -3.789062,8.457031 -8.445312,8.457031 -4.667969,0 -8.453125,-3.796875 -8.453125,-8.457031 0,-4.65625 3.785156,-8.445313 8.453125,-8.445313 0.460937,0 0.878906,0.05859 1.324218,0.132813 l 2.542969,-8.921876 c 0.171875,-0.597656 0.410157,-1.324218 0.832031,-1.75 C 14.40625,1.316406 15.21875,1 16.167969,1 h 3.113281 v 1.648438 h -2.492188 c -0.492187,0 -1.109374,0 -1.441406,0.273437 -0.332031,0.296875 -0.4375,0.671875 -0.566406,1.117187 L 14.226562,5.84375 H 29.136719 L 29.660156,4.3125 27.300781,3.742188 v -1.09375 h 5.296875 V 4.3125 h -1.273437 l -0.554688,1.53125 2.84375,6.957031"
       id="path824" />
    <path
       style="fill:#ffffff;fill-opacity:1;fill-rule:nonzero;stroke:none"
       d="m 34.242188,14.46875 c 0.496093,-0.121094 1.023437,-0.183594 1.5625,-0.183594 3.648437,0 6.613281,2.964844 6.613281,6.613282 0,3.652343 -2.964844,6.621093 -6.613281,6.621093 -3.105469,0 -5.71875,-2.148437 -6.429688,-5.035156 l 5.328125,-0.0078 c 0.644531,0 1.632813,0.04297 2.035156,-0.589843 0.332031,-0.539063 -0.08594,-1.375 -0.222656,-1.757813 L 34.242188,14.46875"
       id="path826" />
    <path
       style="fill:#ffffff;fill-opacity:1;fill-rule:nonzero;stroke:none"
       d="M 28.601562,7.429688 24.363281,20.410156 13.273438,9.214844 13.785156,7.429688 h 14.816406"
       id="path828" />
    <path
       style="fill:#ffffff;fill-opacity:1;fill-rule:nonzero;stroke:none"
       d="m 32.050781,13.339844 c -2.71875,1.375 -4.597656,4.191406 -4.648437,7.4375 h -1.441406 l 4.046874,-12.273438 2.042969,4.835938"
       id="path830" />
    <path
       style="fill:#ffffff;fill-opacity:1;fill-rule:nonzero;stroke:none"
       d="m 11.632812,14.664062 c 2.441407,0.972657 4.167969,3.355469 4.167969,6.140626 0,3.652343 -2.964843,6.613281 -6.617187,6.613281 -3.648438,0 -6.613282,-2.960938 -6.613282,-6.613281 0,-3.648438 2.964844,-6.605469 6.613282,-6.605469 0.273437,0 0.554687,0.01172 0.824218,0.04687 L 8.21875,20.582031 C 8.125,20.894531 8.0625,21.492188 8.746094,21.6875 9.421875,21.878906 9.761719,21.40625 9.863281,21.058594 l 1.769531,-6.394532"
       id="path832" />
    <path
       style="fill:#ffffff;fill-opacity:1;fill-rule:nonzero;stroke:none"
       d="m 32.683594,15.0625 2.25,5.714844 h -5.71875 c 0,-2.519532 1.390625,-4.59375 3.46875,-5.714844"
       id="path834" />
  </g>
  <text
     xml:space="preserve"
     style="font-style:italic;font-size:12px;line-height:1.25;font-family:sans-serif;-inkscape-font-specification:'sans-serif Italic';stroke-width:0.75"
     x="7.9726591"
     y="13.305556"
     id="text1237"><tspan
       id="tspan1235"
       style="font-style:normal;font-variant:normal;font-weight:normal;font-stretch:normal;font-size:12px;font-family:Arial;-inkscape-font-specification:Arial;stroke-width:0.75"
       x="7.9726591"
       y="13.305556">ausgenommen</tspan></text>
</svg>
