<?xml version="1.0" encoding="UTF-8" standalone="no"?>
<svg
   width="59.564735pt"
   height="35.776272pt"
   viewBox="0 0 59.564736 35.776272"
   version="1.1"
   id="svg3513"
   xmlns="http://www.w3.org/2000/svg"
   xmlns:svg="http://www.w3.org/2000/svg">
  <defs
     id="defs3517" />
  <g
     id="layer2"
     style="display:inline"
     transform="scale(0.74036996,1)" />
  <g
     id="layer1">
    <rect
       style="display:inline;fill:#ffffff;stroke:none;stroke-width:0;stroke-linecap:square;stroke-miterlimit:4;stroke-dasharray:none;stroke-opacity:1"
       id="rect3621"
       width="59.564735"
       height="35.776272"
       x="0"
       y="8.8817842e-16" />
    <rect
       style="display:inline;fill:none;stroke:#000000;stroke-width:0.164154;stroke-linecap:square;stroke-miterlimit:4;stroke-dasharray:none;stroke-opacity:1"
       id="rect3621-4"
       width="58.666401"
       height="34.468613"
       x="0.486384"
       y="0.729029" />
  </g>
  <path
     style="fill:#211e1e;fill-opacity:1;fill-rule:nonzero;stroke:none"
     d="m 25.231588,18.583193 c -0.01953,-0.957032 -0.01953,-4.207032 0,-4.953126 -2.296875,0.304688 -6.039063,0.914063 -9.531251,1.972657 -1.691406,0.511719 -3.140625,0.984375 -3.980469,1.574219 -1.203125,0.832031 -1.527343,1.84375 -1.648437,2.433593 1.347656,-1.28125 3.164062,-2.074219 5.164062,-2.074219 2.238282,0 4.261719,0.988282 5.632814,2.554688 l 4.363281,-1.507812 m 0.992188,-5.078126 c -0.0078,0.02734 -0.0078,0.05859 -0.0078,0.08984 -0.04689,2.339844 0.01561,3.972656 0.04686,4.632813 l 0.757812,-0.269531 c -0.0039,-0.703126 -0.01953,-3.5 -0.01953,-3.933594 0,-0.140625 0.02344,-0.363282 0.0625,-0.617188 -0.207032,0.02734 -0.492188,0.05078 -0.839844,0.09766 m 4.980468,-2.546874 c 0.07031,-0.08203 0.199219,-0.08984 0.289063,-0.01953 l 2.789062,2.257813 c 0.08984,0.07031 0.109375,0.199219 0.04297,0.28125 -0.06641,0.08203 -0.195312,0.08594 -0.28125,0.01563 l -1.085938,-0.875 c -0.113282,-0.04297 -0.234375,-0.04297 -0.320313,0.09375 -0.1875,0.300781 -1.097656,1.53125 -1.097656,1.53125 0,0 -0.07422,0.132812 -0.01953,0.257812 0.05469,0.128906 0.125,0.378906 -0.05469,0.550782 -0.167969,0.152343 -2.679687,2.59375 -3.1875,3.042968 l 0.01563,1.5 h 4.109375 c 0.117187,-0.367187 0.457031,-1.234375 1.238281,-2.371094 1.042969,-1.515624 3.128906,-3.613281 6.601563,-4.425781 L 38.692524,5.0363241 c 0,0 -4.070313,0.09766 -5.832032,0.230469 -1.761718,0.136719 -1.898437,0.136719 -2.070312,0.183594 -0.1875,0.05469 -0.421875,0.128906 -0.601563,0.570313 -0.179687,0.429687 -1.832031,3.664062 -2.269531,6.4218739 -0.03906,0.253907 0.800781,-1.128906 1.285156,-1.503906 0.101563,-0.08594 0.277344,-0.148437 0.449219,-0.105468 0.167969,0.04687 0.328125,0.226562 0.355469,0.410156 0.01953,0.179687 0.210937,1.25 0.210937,1.25 0,0 0.02734,0.320312 0.09375,0.390625 0.0625,0.0625 0.539063,0.734375 0.539063,0.734375 0,0 0.109375,0.06641 0.203125,-0.01172 0.08984,-0.07813 1.285156,-1.269531 1.285156,-1.269531 0,0 0.08203,-0.0625 0.04687,-0.179688 l -1.14062,-0.917968 c -0.08594,-0.07031 -0.105469,-0.195313 -0.04297,-0.28125 m 18.398438,6.179687 c 1.378906,1.625 2.21875,3.726563 2.21875,6.019531 0,5.144532 -4.191406,9.34375 -9.332032,9.34375 -4.183593,0 -7.738281,-2.785156 -8.917968,-6.601562 H 22.6769 c -0.425781,3.730468 -3.605469,6.640625 -7.441407,6.640625 -4.128906,0 -7.4921866,-3.371094 -7.4921866,-7.503907 0,-1.9375 0.738281,-3.707031 1.9492191,-5.042968 0.105468,-0.609375 0.3710925,-1.585938 0.9687495,-2.300782 0.9375,-1.125 3.109374,-1.746093 4.972656,-2.371093 1.515625,-0.503907 6.261719,-1.550781 9.617188,-2.007813 0.05078,-0.753906 0.238281,-2.964844 1.085938,-5.0273439 0.945312,-2.296874 1.464843,-2.871093 1.25,-3.546874 -0.214844,-0.671876 0.492187,-0.367188 0.644531,-0.183594 0.152344,0.183594 0.519531,0.671875 0.0625,1.585937 -0.4375,0.875 -1.878906,4.0781249 -2.0625,7.0546879 0.320312,-0.03516 0.617188,-0.0625 0.878906,-0.07031 0.101563,-0.566406 0.238282,-1.191406 0.289063,-1.472656 0.08984,-0.472656 1.085937,-3.5351559 1.65625,-4.8164059 0.558593,-1.277344 0.484375,-1.109375 0.484375,-1.109375 0,0 0.304687,-1.148438 1.785156,-1.21875 1.484375,-0.06641 3.710938,-0.269531 5.207031,-0.316407 1.492188,-0.04687 4.832031,0.03906 6.347657,0.191407 1.503906,0.167969 1.433593,0.105469 1.71875,0.585937 0.28125,0.472656 0.28125,0.472656 0.28125,0.472656 0,0 0.816406,1.964844 1.265624,3.375 0.433594,1.4062499 0.949219,3.6093759 1.003907,3.9726569 0.05469,0.359375 -0.07813,0.601562 0.222656,0.738281 0.308594,0.132812 1.941406,0.78125 2.925781,1.523438 0.988282,0.734374 1.070313,0.765624 1.097656,0.859374 0.03516,0.08984 0.132813,0.183594 -0.230468,0.332032 -0.335938,0.132812 -0.960938,0.449218 -1.5625,0.894531 M 15.235493,29.153505 c 2.261719,0 4.105469,-1.851562 4.105469,-4.117188 0,-2.265624 -1.84375,-4.113281 -4.105469,-4.113281 -2.261718,0 -4.105468,1.847657 -4.105468,4.113281 0,2.265626 1.84375,4.117188 4.105468,4.117188 M 42.4894,28.317567 c 2.84375,0 5.15625,-2.316406 5.15625,-5.160156 0,-2.839844 -2.3125,-5.152344 -5.15625,-5.152344 -2.835937,0 -5.15625,2.3125 -5.15625,5.152344 0,2.84375 2.320313,5.160156 5.15625,5.160156 M 35.169088,16.571474 c 0,0 2.378906,-3.167969 7.296875,-3.40625 4.921875,-0.238281 8.058594,2.34375 8.492187,2.820312 l -0.828124,0.441407 c -0.03125,0.01953 -2.292969,-2.605469 -7.101563,-2.742188 -3.71875,-0.09766 -6.511719,1.703125 -7.679687,2.882812 -0.183594,0.1875 -0.179688,0.0039 -0.179688,0.0039 M 40.14565,5.0792791 41.782369,12.544123 c 0,0 1.5,-0.195313 3.96875,0.140625 0,0 0.359375,0 0.292969,-0.441406 -0.07031,-0.441406 -0.605469,-4.1328129 -2.011719,-6.6289059 0,0 -0.07813,-0.257813 -0.640625,-0.328126 -0.566406,-0.0664 -1.992187,-0.175774 -3.246094,-0.207024 M 15.235493,26.559755 c 0.839844,0 1.523438,-0.6875 1.523438,-1.523438 0,-0.84375 -0.683594,-1.523437 -1.523438,-1.523437 -0.835937,0 -1.519531,0.679687 -1.519531,1.523437 0,0.835938 0.683594,1.523438 1.519531,1.523438 M 42.4894,24.680849 c 0.839844,0 1.519532,-0.683594 1.519532,-1.523438 0,-0.839844 -0.679688,-1.527344 -1.519532,-1.527344 -0.84375,0 -1.523437,0.6875 -1.523437,1.527344 0,0.839844 0.679687,1.523438 1.523437,1.523438"
     id="path5018" />
</svg>
