<?xml version="1.0" encoding="UTF-8" standalone="no"?>
<svg
   width="69.55426pt"
   height="35.776272pt"
   viewBox="0 0 69.554261 35.776272"
   version="1.1"
   id="svg3513"
   xmlns="http://www.w3.org/2000/svg"
   xmlns:svg="http://www.w3.org/2000/svg">
  <defs
     id="defs3517" />
  <g
     id="layer2"
     style="display:inline"
     transform="scale(0.74036996,1)" />
  <g
     id="layer1"
     transform="scale(1.1677087,1)">
    <rect
       style="display:inline;fill:#ffffff;stroke:none;stroke-width:0;stroke-linecap:square;stroke-miterlimit:4;stroke-dasharray:none;stroke-opacity:1"
       id="rect3621"
       width="59.564735"
       height="35.776272"
       x="0"
       y="8.8817842e-16" />
    <rect
       style="display:inline;fill:none;stroke:#000000;stroke-width:0.164154;stroke-linecap:square;stroke-miterlimit:4;stroke-dasharray:none;stroke-opacity:1"
       id="rect3621-4"
       width="58.666401"
       height="34.468613"
       x="0.486384"
       y="0.729029" />
  </g>
  <g
     id="surface1"
     transform="matrix(0.94856218,0,0,0.94856218,2.472406,5.1458375)">
    <path
       style="fill:#211e1e;fill-opacity:1;fill-rule:nonzero;stroke:none"
       d="M 3.910156,13.765625 22.339844,10.910156 H 58.03125 l 10.152344,2.539063 v 4.414062 h -1.054688 v 0.683594 l -7.546875,8.785156 c -0.121093,0.136719 -0.308593,0.292969 -0.453125,0.40625 -0.195312,0.160157 -0.410156,0.304688 -0.648437,0.398438 -0.199219,0.07813 -0.4375,0.128906 -0.652344,0.164062 -0.05859,0.0078 -0.316406,0.04297 -0.375,0.04297 H 16.148438 c -0.160157,0 -0.441407,0 -0.597657,0 -0.28125,-0.01563 -0.632812,-0.04297 -0.886719,-0.15625 -0.230468,-0.09375 -0.488281,-0.3125 -0.667968,-0.476562 -0.0078,-0.0078 -0.402344,-0.375 -0.410156,-0.378907 L 5.199219,19.453125 v -0.90625 H 3.910156 v -4.78125"
       id="path5151" />
    <path
       style="fill:#211e1e;fill-opacity:1;fill-rule:nonzero;stroke:none"
       d="M 3.914062,5.074219 V 5.726562 L 31.742188,4.324219 V 2.691406 L 36.84375,0 H 50.164062 L 54.875,2.570312 V 9.992188 H 31.742188 V 7.855469 L 3.914062,8.144531 v 0.777344 h -3.0625 V 5.074219 h 3.0625"
       id="path5153" />
    <path
       style="fill:#ffffff;fill-opacity:1;fill-rule:nonzero;stroke:none"
       d="m 11.765625,24.402344 c 0.09375,-0.300782 0.246094,-0.742188 0.382813,-1.027344 0.316406,-0.636719 0.820312,-1.160156 1.417968,-1.53125 0.625,-0.390625 1.34375,-0.605469 2.078125,-0.621094 0.753907,-0.02344 1.496094,0.171875 2.140625,0.5625 0.59375,0.351563 1.082032,0.847656 1.417969,1.445313 0.160156,0.28125 0.28125,0.574219 0.367187,0.882812 0.02344,0.08203 0.05078,0.210938 0.07422,0.289063 h 2.515625 c 0.02734,-0.101563 0.07031,-0.246094 0.109375,-0.347656 0.08984,-0.292969 0.214844,-0.566407 0.371094,-0.824219 0.355469,-0.582031 0.84375,-1.082031 1.425781,-1.425781 0.660156,-0.378907 1.410156,-0.566407 2.171875,-0.546876 0.707031,0.02344 1.386719,0.222657 1.984375,0.585938 0.621094,0.371094 1.128906,0.90625 1.476563,1.539062 0.136719,0.226563 0.234375,0.472657 0.324219,0.730469 0.02734,0.08594 0.0625,0.210938 0.08594,0.289063 h 1.632813 c 0.02734,-0.07031 0.0625,-0.171875 0.08594,-0.253906 0.105469,-0.300782 0.242187,-0.617188 0.402344,-0.890626 0.378906,-0.625 0.949219,-1.128906 1.589843,-1.488281 0.648438,-0.359375 1.378907,-0.574219 2.128907,-0.574219 0.761719,0 1.511719,0.214844 2.179687,0.597657 0.609375,0.34375 1.164063,0.839843 1.511719,1.457031 0.105469,0.1875 0.277344,0.632812 0.363281,0.835938 0.03516,0.08594 0.09375,0.230468 0.132813,0.316406 h 2.695312 c 0.02734,-0.09375 0.06641,-0.238282 0.09375,-0.332032 0.09375,-0.289062 0.207031,-0.558593 0.351563,-0.820312 0.355468,-0.625 0.855468,-1.164062 1.484375,-1.523438 0.609375,-0.34375 1.320312,-0.496093 2.019531,-0.488281 0.734375,0.0039 1.464844,0.171875 2.09375,0.554688 0.601562,0.355469 1.085938,0.890625 1.429688,1.507812 0.128906,0.230469 0.246093,0.492188 0.339843,0.742188 0.04297,0.105469 0.08984,0.25 0.128907,0.359375 h 2.59375 c 0.03125,-0.09375 0.07422,-0.222656 0.109374,-0.316406 0.101563,-0.304688 0.230469,-0.609376 0.386719,-0.890626 0.339844,-0.613281 0.835938,-1.132812 1.433594,-1.496093 0.640625,-0.382813 1.367187,-0.585938 2.113281,-0.570313 0.699219,0.01563 1.375,0.222656 1.980469,0.570313 0.601563,0.351562 1.136719,0.839843 1.464844,1.449219 0.117187,0.21875 0.246093,0.554687 0.332031,0.785156 l -0.78125,0.921875 c -0.02344,-0.07422 -0.06641,-0.179688 -0.08984,-0.25 -0.05469,-0.167969 -0.265625,-0.75 -0.34375,-0.902344 -0.230468,-0.460937 -0.621094,-0.832031 -1.058594,-1.105469 -0.457031,-0.28125 -0.984374,-0.449218 -1.523437,-0.449218 -0.554687,0 -1.09375,0.183593 -1.566406,0.46875 -0.441407,0.273437 -0.828125,0.632812 -1.089844,1.085937 -0.265625,0.453125 -0.386719,0.980469 -0.40625,1.503906 -0.02344,0.53125 0.0625,1.066407 0.265625,1.554688 0.07031,0.171875 0.191406,0.410156 0.277344,0.574219 h -5.824219 c 0.05859,-0.08594 0.144531,-0.222657 0.195313,-0.308594 0.128906,-0.203125 0.273437,-0.445313 0.359374,-0.664063 C 49.75,26 49.808594,25.605469 49.792969,25.214844 49.78125,24.726562 49.65625,24.25 49.421875,23.832031 49.167969,23.375 48.792969,23 48.347656,22.726562 47.875,22.4375 47.335938,22.28125 46.789062,22.273438 c -0.53125,-0.0078 -1.050781,0.128906 -1.503906,0.386718 -0.460937,0.265625 -0.839844,0.65625 -1.109375,1.117188 -0.25,0.429687 -0.394531,0.921875 -0.402343,1.421875 -0.0078,0.546875 0.136718,1.085937 0.402343,1.570312 0.101563,0.164063 0.269531,0.402344 0.375,0.566407 h -6.242187 c 0.136718,-0.171876 0.332031,-0.429688 0.445312,-0.617188 0.273438,-0.453125 0.4375,-0.980469 0.429688,-1.503906 -0.0078,-0.488282 -0.171875,-0.972656 -0.414063,-1.394532 -0.261719,-0.453124 -0.621093,-0.855468 -1.074219,-1.128906 -0.453124,-0.28125 -0.976562,-0.425781 -1.511718,-0.433594 -0.550782,0 -1.097656,0.152344 -1.574219,0.441407 -0.4375,0.257812 -0.796875,0.632812 -1.0625,1.0625 -0.261719,0.4375 -0.425781,0.9375 -0.441406,1.453125 -0.0039,0.546875 0.152343,1.085937 0.453125,1.554687 0.109375,0.171875 0.304687,0.410157 0.441406,0.566407 h -5.65625 c 0.136719,-0.15625 0.339844,-0.394532 0.453125,-0.574219 0.277344,-0.4375 0.398437,-0.964844 0.382813,-1.488281 -0.01563,-0.476563 -0.148438,-0.949219 -0.375,-1.367188 -0.257813,-0.476562 -0.625,-0.878906 -1.078126,-1.152344 -0.445312,-0.273437 -0.957031,-0.417968 -1.472656,-0.4375 -0.589844,-0.01563 -1.179687,0.121094 -1.683594,0.421875 -0.445312,0.269531 -0.804687,0.644531 -1.066406,1.082031 -0.257812,0.445313 -0.410156,0.941407 -0.421875,1.453126 -0.01563,0.582031 0.136719,1.164062 0.472657,1.640624 0.09375,0.128907 0.261718,0.300782 0.367187,0.421876 h -6.019531 c 0.121094,-0.148438 0.292968,-0.378907 0.394531,-0.546876 0.265625,-0.453124 0.390625,-0.976562 0.382813,-1.5 C 18.671875,24.761719 18.535156,24.25 18.269531,23.804688 18.011719,23.367188 17.652344,23 17.210938,22.75 c -0.46875,-0.273438 -1.007813,-0.425781 -1.546876,-0.417969 -0.546874,0.0039 -1.070312,0.179688 -1.546874,0.449219 -0.429688,0.253906 -0.8125,0.601562 -1.070313,1.03125 -0.152344,0.25 -0.257813,0.523438 -0.324219,0.8125 -0.02734,0.144531 -0.05859,0.359375 -0.07813,0.503906 L 11.76562,24.402344"
       id="path5155" />
  </g>
</svg>
