<?xml version="1.0" encoding="UTF-8" standalone="no"?>
<svg
   width="37.565792pt"
   height="36.120956pt"
   viewBox="0 0 37.565792 36.120957"
   version="1.1"
   id="svg3513"
   xmlns="http://www.w3.org/2000/svg"
   xmlns:svg="http://www.w3.org/2000/svg">
  <defs
     id="defs3517" />
  <g
     id="layer2"
     style="display:inline"
     transform="matrix(0.74036996,0,0,1,-10.999472,0.17234229)" />
  <rect
     style="display:inline;fill:#ffffff;stroke:none;stroke-width:0;stroke-linecap:square;stroke-miterlimit:4;stroke-dasharray:none;stroke-opacity:1"
     id="rect3621"
     width="37.565792"
     height="36.120956"
     x="0"
     y="0" />
  <rect
     style="display:inline;fill:none;stroke:#000000;stroke-width:0.131352;stroke-linecap:square;stroke-miterlimit:4;stroke-dasharray:none;stroke-opacity:1"
     id="rect3621-4"
     width="36.712025"
     height="35.267181"
     x="0.4268837"
     y="0.42688751" />
  <g
     id="surface1"
     transform="translate(2.9567243,2.937634)">
    <path
       style="fill:#211e1e;fill-opacity:1;fill-rule:nonzero;stroke:none"
       d="M 30.957031,14.011719 31.324219,14.601562 6.648438,28.84375 c -0.058594,0.03516 -0.171876,0.09375 -0.222657,0.128906 -0.167969,0.08594 -0.347656,0.167969 -0.527343,0.222656 -0.199219,0.05859 -0.417969,0.09375 -0.617188,0.101563 -0.238281,0 -0.460938,-0.02734 -0.691406,-0.08594 C 4.417969,29.160156 4.25,29.09375 4.085938,29.007812 3.914062,28.914062 3.761719,28.808594 3.625,28.675781 3.53125,28.582031 3.4375,28.484375 3.351562,28.363281 3.324219,28.304688 3.265625,28.230469 3.230469,28.167969 l 0.539062,-0.304688 c 0.027344,0.05078 0.070313,0.117188 0.101563,0.160157 0.105468,0.136718 0.234375,0.257812 0.371094,0.359374 0.167968,0.128907 0.363281,0.199219 0.5625,0.253907 0.160156,0.03516 0.316406,0.05078 0.476562,0.03906 0.128906,-0.01172 0.28125,-0.04687 0.394531,-0.08203 0.136719,-0.03906 0.289063,-0.101562 0.425781,-0.167969 l 0.257813,-0.164062 10.796875,-6.253907 -0.1875,-0.671874 c -0.01563,-0.04688 -0.02344,-0.128907 -0.03125,-0.191407 -0.0078,-0.06641 -0.0078,-0.132812 0.01563,-0.1875 0.0078,-0.05859 0.01953,-0.125 0.04297,-0.1875 0.02734,-0.109375 0.09375,-0.203125 0.179687,-0.292969 0.05078,-0.05078 0.08594,-0.101562 0.152344,-0.140624 L 18.5,19.394531 11.101562,17.640625 10.871094,17.582031 c -0.144532,-0.03516 -0.335938,-0.08594 -0.472656,-0.128906 -0.152344,-0.05078 -0.296876,-0.125 -0.433594,-0.195313 C 9.742188,17.136719 9.511719,16.992188 9.339844,16.796875 9.179688,16.636719 9.066406,16.421875 9.015625,16.191406 9,16.0625 8.992188,15.917969 9,15.796875 9.015625,15.660156 9.042969,15.539062 9.082031,15.421875 9.136719,15.25 9.246094,15.054688 9.347656,14.90625 9.390625,14.839844 9.453125,14.738281 9.496094,14.6875 L 10,13.949219 0.328125,13.902344 0.34375,13.457031 h 0.453125 c 0,-0.02734 -0.007813,-0.07031 -0.015625,-0.113281 -0.003906,-0.167969 0.023438,-0.339844 0.082031,-0.484375 0.042969,-0.128906 0.105469,-0.242187 0.1875,-0.335937 0.078125,-0.08594 0.191407,-0.167969 0.308594,-0.222657 0.050781,-0.01563 0.113281,-0.04297 0.164063,-0.06641 L 6.914062,6.75 7.085938,6.550781 C 7.167969,6.457031 7.28125,6.320312 7.339844,6.21875 7.390625,6.125 7.4375,6.015625 7.460938,5.910156 7.476562,5.835938 7.476562,5.765625 7.46875,5.691406 7.453125,5.644531 7.445312,5.59375 7.433594,5.542969 7.390625,5.484375 7.332031,5.441406 7.28125,5.40625 7.230469,5.375 7.179688,5.355469 7.128906,5.339844 7.074219,5.324219 7.007812,5.332031 6.949219,5.332031 c -0.0625,-0.00781 -0.1875,0 -0.238281,0 C 6.429688,5.367188 6.136719,5.367188 5.871094,5.296875 5.589844,5.246094 5.324219,5.125 5.085938,4.945312 4.839844,4.777344 4.625,4.5625 4.480469,4.296875 4.316406,4.042969 4.214844,3.742188 4.179688,3.441406 4.148438,3.160156 4.15625,2.871094 4.242188,2.597656 4.316406,2.304688 4.445312,2.03125 4.625,1.785156 4.804688,1.554688 5.035156,1.367188 5.292969,1.230469 5.554688,1.085938 5.835938,0.992188 6.128906,0.957031 6.417969,0.9375 6.699219,0.949219 6.972656,1.03125 7.246094,1.101562 7.503906,1.246094 7.734375,1.417969 7.941406,1.589844 8.128906,1.804688 8.273438,2.03125 8.417969,2.28125 8.53125,2.5625 8.5625,2.855469 8.582031,3.050781 8.554688,3.28125 8.53125,3.46875 8.527344,3.546875 8.511719,3.683594 8.488281,3.757812 c 0.039063,0.00781 0.082031,0.00781 0.117188,0.00781 l 0.425781,0.00781 c 0.367188,0.00391 0.726562,0.054687 1.078125,0.140624 0.546875,0.128907 1.101563,0.355469 1.613281,0.613282 0.554688,0.28125 1.078125,0.625 1.582032,1 0.523437,0.402344 1.015624,0.886718 1.460937,1.351562 0.402344,0.425782 0.796875,0.894532 1.128906,1.367188 l 0.648438,0.929687 c 0.07813,0.121094 0.273437,0.410157 0.339843,0.53125 0.07813,0.136719 0.148438,0.289063 0.175782,0.449219 0.03125,0.113281 0.03125,0.257812 0.01563,0.378906 0,0.101563 0,0.210938 -0.02734,0.308594 -0.02344,0.160156 -0.07813,0.3125 -0.136719,0.441406 -0.02734,0.07813 -0.07813,0.15625 -0.109375,0.222656 -0.05859,0.105469 -0.128906,0.207032 -0.195312,0.300782 -0.05078,0.06641 -0.15625,0.1875 -0.207031,0.261718 l -1.257813,1.4375 9.238281,0.02734 0.0078,-1.09375 0.480469,0.03125 -0.01953,2.523438 -0.484375,-0.01172 0.0078,-0.980469 -9.691406,-0.05078 c -0.03516,0.03516 -0.08594,0.09375 -0.125,0.125 -0.04688,0.05078 -0.277344,0.273437 -0.316407,0.328125 -0.09766,0.117188 -0.1875,0.230469 -0.257812,0.367188 -0.03516,0.08594 -0.08594,0.195312 -0.09375,0.296874 -0.0078,0.05078 -0.0078,0.101563 0,0.15625 0.0078,0.08984 0.04297,0.167969 0.08594,0.230469 0.05859,0.08594 0.128906,0.144531 0.210938,0.1875 0.121094,0.07813 0.351562,0.1875 0.488281,0.238281 0.08594,0.03516 0.273437,0.101563 0.367187,0.152344 l 6.980469,3.199219 8.9375,-5.222656"
       id="path5758" />
    <path
       style="fill:#ffffff;fill-opacity:1;fill-rule:nonzero;stroke:none"
       d="m 10.3125,13.492188 -7.902344,-0.02734 c 0.019532,-0.03516 0.042969,-0.09375 0.066406,-0.128906 L 2.5625,13.175781 c 0.027344,-0.05859 0.050781,-0.105469 0.0625,-0.179687 0,-0.0078 0.023438,-0.105469 0.03125,-0.121094 0.011719,-0.04297 0.050781,-0.109375 0.070312,-0.128906 l 0.109376,-0.21875 c 0.050781,-0.07813 0.105468,-0.148438 0.171874,-0.222656 L 6.359375,9.382812 C 6.449219,9.304688 6.554688,9.226562 6.648438,9.160156 6.726562,9.101562 6.820312,9.03125 6.921875,8.980469 7.023438,8.929688 7.117188,8.894531 7.226562,8.867188 7.398438,8.824219 7.613281,8.824219 7.800781,8.824219 c 0.273438,0.00391 0.554688,0.027343 0.835938,0.0625 0.335937,0.050781 0.675781,0.125 0.992187,0.210937 0.335938,0.097656 0.710938,0.265625 1.019532,0.410156 0.238281,0.105469 0.648437,0.285157 0.878906,0.402344 0.125,0.0625 0.296875,0.15625 0.382812,0.257813 0.05078,0.06641 0.09375,0.144531 0.113282,0.230469 0.01562,0.06641 0.01562,0.121093 0.0078,0.1875 -0.0078,0.07031 -0.01953,0.144531 -0.05859,0.207031 -0.01172,0.06641 -0.05078,0.128906 -0.09375,0.179687 L 10.3125,13.492188"
       id="path5760" />
  </g>
</svg>
