<?xml version="1.0" encoding="UTF-8"?>
<svg xmlns="http://www.w3.org/2000/svg" xmlns:xlink="http://www.w3.org/1999/xlink" width="486pt" height="184pt" viewBox="0 0 486 184" version="1.1">
<defs>
<clipPath id="clip1">
  <path d="M 0 0.371094 L 485.929688 0.371094 L 485.929688 184 L 0 184 Z M 0 0.371094 "/>
</clipPath>
</defs>
<g id="surface1">
<g clip-path="url(#clip1)" clip-rule="nonzero">
<path style=" stroke:none;fill-rule:nonzero;fill:rgb(1.713562%,2.252197%,2.304077%);fill-opacity:1;" d="M 475.289062 86.011719 L 475.300781 85.988281 L 402.144531 43.75 L 402.144531 43.761719 C 369.335938 23.683594 332.839844 8.824219 293.714844 0.371094 L 172.109375 0.371094 C 166.148438 0.371094 160.789062 2.878906 156.960938 6.867188 C 147.546875 17.183594 139.078125 28.644531 131.8125 41.238281 C 124.117188 54.558594 118.1875 68.410156 113.902344 82.523438 L 125.53125 82.523438 C 129.550781 70.109375 134.875 58.097656 141.410156 46.78125 C 148.082031 35.21875 156.03125 24.347656 165.035156 14.460938 C 166.941406 12.519531 169.445312 11.453125 172.109375 11.453125 L 292.519531 11.453125 C 329.367188 19.546875 364.296875 33.59375 396.355469 53.214844 L 413.226562 62.945312 L 460.402344 90.183594 L 460.378906 90.234375 L 469.796875 95.636719 C 473.125 97.535156 475.082031 101.183594 474.820312 104.972656 L 471.746094 140.132812 L 451.804688 140.132812 L 450.378906 149.5625 C 448.371094 162.875 436.683594 172.917969 423.191406 172.917969 C 409.699219 172.917969 398.007812 162.875 395.996094 149.5625 L 394.574219 140.132812 L 190.765625 140.132812 L 189.210938 149.375 C 186.976562 162.640625 175.574219 172.273438 162.097656 172.273438 C 148.621094 172.273438 137.222656 162.640625 134.988281 149.375 L 128.242188 109.753906 C 126.753906 101.03125 119.199219 94.652344 110.351562 94.652344 L 82.785156 94.652344 L 82.785156 87.667969 C 82.785156 79.921875 76.507812 73.636719 68.761719 73.636719 L 26.664062 73.636719 L 26.664062 80.820312 L 5.242188 80.820312 C 2.347656 80.820312 0 83.171875 0 86.066406 C 0 88.964844 2.347656 91.308594 5.242188 91.308594 L 26.664062 91.308594 L 26.664062 109.074219 L 5.242188 109.074219 C 2.347656 109.074219 0 111.421875 0 114.316406 C 0 117.214844 2.347656 119.558594 5.242188 119.558594 L 26.664062 119.558594 L 26.664062 126.746094 L 68.761719 126.746094 C 76.507812 126.746094 82.785156 120.46875 82.785156 112.714844 L 82.785156 105.734375 L 110.375 105.734375 C 113.792969 105.734375 116.714844 108.199219 117.289062 111.566406 L 124.035156 151.085938 L 124.058594 151.214844 C 127.128906 169.457031 142.988281 183.355469 162.097656 183.355469 C 181.210938 183.355469 197.070312 169.457031 200.140625 151.214844 L 385.039062 151.214844 C 387.839844 169.773438 403.855469 184 423.191406 184 C 442.527344 184 458.539062 169.773438 461.339844 151.214844 L 472.300781 151.214844 C 478.082031 151.214844 482.773438 146.542969 482.816406 140.769531 L 485.847656 106.144531 C 485.847656 106.140625 485.847656 106.128906 485.851562 106.121094 C 486.589844 97.664062 482.210938 89.960938 475.289062 86.011719 "/>
</g>
</g>
</svg>
