<?xml version="1.0" encoding="UTF-8" standalone="no"?>
<svg
   width="94.884857pt"
   height="35.941235pt"
   viewBox="0 0 94.884858 35.941235"
   version="1.1"
   id="svg3513"
   xmlns="http://www.w3.org/2000/svg"
   xmlns:svg="http://www.w3.org/2000/svg">
  <defs
     id="defs3517">
    <clipPath
       id="clip1">
      <path
         d="M 0,0.371094 H 485.92969 V 184 H 0 Z m 0,0"
         id="path6178" />
    </clipPath>
  </defs>
  <g
     id="layer2"
     style="display:inline"
     transform="matrix(0.74036996,0,0,1,0.09569389,-0.14695108)" />
  <rect
     style="display:inline;fill:#ffffff;stroke:none;stroke-width:0;stroke-linecap:square;stroke-miterlimit:4;stroke-dasharray:none;stroke-opacity:1"
     id="rect3621"
     width="94.884857"
     height="35.941235"
     x="1.3877788e-17"
     y="0" />
  <rect
     style="display:inline;fill:none;stroke:#000000;stroke-width:0.209374;stroke-linecap:square;stroke-miterlimit:4;stroke-dasharray:none;stroke-opacity:1"
     id="rect3621-4"
     width="93.956657"
     height="35.013035"
     x="0.46410018"
     y="0.46410018" />
  <path
     style="clip-rule:nonzero;fill:#020505;fill-opacity:1;fill-rule:nonzero;stroke:none;stroke-width:0.14579"
     d="m 81.312837,17.070642 0.0017,-0.0035 -10.665422,-6.157904 v 0.0017 C 65.865955,7.9837561 60.545207,5.8174092 54.84119,4.5850324 H 37.112355 c -0.869045,0 -1.650386,0.3656131 -2.208477,0.9470645 -1.372483,1.5040253 -2.607139,3.1749132 -3.666401,5.0109491 -1.121879,1.941966 -1.986373,3.961381 -2.611101,6.018951 h 1.695364 c 0.586019,-1.80984 1.362233,-3.561027 2.314986,-5.210843 0.972698,-1.6856929 2.13161,-3.2705859 3.444276,-4.7119675 0.27792,-0.2830364 0.642959,-0.4385082 1.031353,-0.4385082 h 17.554564 c 5.372012,1.1799868 10.464388,3.2278758 15.138215,6.0884287 l 2.459633,1.418604 6.877731,3.971061 -0.0037,0.0074 1.373036,0.787588 c 0.485224,0.276779 0.770537,0.808676 0.732379,1.361091 l -0.44819,5.125998 H 77.888768 L 77.680895,26.3356 c -0.292706,1.940824 -1.996621,3.404976 -3.963657,3.404976 -1.967018,0 -3.671506,-1.464152 -3.964782,-3.404976 l -0.20729,-1.374776 H 39.831974 l -0.226658,1.347413 c -0.325756,1.933984 -1.988088,3.338358 -3.952838,3.338358 -1.964749,0 -3.626527,-1.404374 -3.952264,-3.338358 l -0.983519,-5.776349 c -0.216962,-1.271672 -1.318361,-2.201657 -2.608263,-2.201657 h -4.018901 v -1.018248 c 0,-1.1293 -0.915168,-2.045612 -2.044476,-2.045612 H 15.90765 v 1.047295 h -3.123091 c -0.421998,0 -0.764252,0.342834 -0.764252,0.764827 0,0.422562 0.342254,0.764263 0.764252,0.764263 h 3.123091 v 2.590033 h -3.123091 c -0.421998,0 -0.764252,0.342273 -0.764252,0.76425 0,0.42257 0.342254,0.764271 0.764252,0.764271 h 3.123091 v 1.047851 h 6.137405 c 1.129308,0 2.044476,-0.915166 2.044476,-2.045598 v -1.017676 h 4.022311 c 0.498312,0 0.924292,0.359342 1.007998,0.850243 l 0.983518,5.761529 0.0037,0.0188 c 0.447621,2.659526 2.759749,4.685769 5.54571,4.685769 2.786515,0 5.098643,-2.026243 5.546265,-4.685769 h 26.956299 c 0.40832,2.705647 2.743232,4.779743 5.562208,4.779743 2.818976,0 5.153335,-2.074096 5.561656,-4.779743 h 1.597996 c 0.842835,0 1.52679,-0.681117 1.533058,-1.522828 l 0.441914,-5.047966 c 0,-5.73e-4 0,-0.0018 5.9e-4,-0.0037 0.107659,-1.23294 -0.530774,-2.355982 -1.539895,-2.93173"
     id="path6183" />
</svg>
