<?xml version="1.0" encoding="UTF-8" standalone="no"?>
<svg
   width="97.756058pt"
   height="35.939728pt"
   viewBox="0 0 97.756057 35.939728"
   version="1.1"
   id="svg3513"
   xmlns="http://www.w3.org/2000/svg"
   xmlns:svg="http://www.w3.org/2000/svg">
  <defs
     id="defs3517" />
  <g
     id="layer2"
     style="display:inline"
     transform="matrix(0.74036996,0,0,1,-1.2893718,0.081728)" />
  <rect
     style="display:inline;fill:#ffffff;stroke:none;stroke-width:0;stroke-linecap:square;stroke-miterlimit:4;stroke-dasharray:none;stroke-opacity:1"
     id="rect3621"
     width="97.756058"
     height="35.939728"
     x="0"
     y="1.3877788e-17" />
  <rect
     style="display:inline;fill:none;stroke:#000000;stroke-width:0.212532;stroke-linecap:square;stroke-miterlimit:4;stroke-dasharray:none;stroke-opacity:1"
     id="rect3621-4"
     width="96.82473"
     height="35.008404"
     x="0.46566391"
     y="0.46566197" />
  <g
     id="surface1-2"
     transform="translate(7.0518569,3.0218158)">
    <path
       style="fill:#211e1e;fill-opacity:1;fill-rule:nonzero;stroke:none"
       d="m 82.871094,14.144531 c -0.136719,-0.01563 -0.125,0.03516 -0.476563,-0.01563 -0.699219,-0.08594 -1.332031,0.117188 -1.964843,0.304688 -0.835938,0.222656 -1.75,0.617187 -2.519532,0.972656 -0.546875,0.257812 -1.085937,0.53125 -1.597656,0.820312 -0.08984,0.05078 -0.246094,0.136719 -0.324219,0.183594 l 1.425781,-4 h -3.992187 c 0.136719,-0.125 0.347656,-0.296875 0.484375,-0.433594 0.238281,-0.238281 0.4375,-0.511718 0.613281,-0.800781 0.171875,-0.269531 0.285157,-0.574219 0.375,-0.898437 0.05078,-0.171875 0.08594,-0.425782 0.121094,-0.613282 0.136719,0 0.351563,0.015626 0.511719,0 0.164062,-0.035156 0.375,-0.085937 0.523437,-0.207031 C 76.171875,9.355464 76.253906,9.218745 76.3125,9.070307 76.35937,8.894526 76.35937,8.636714 76.35937,8.468745 V 6.152344 c 0,-0.257813 -0.03516,-0.511719 -0.136719,-0.75 C 76.140625,5.179688 76,4.972656 75.816406,4.820312 75.605469,4.648438 75.351562,4.546875 75.09375,4.496094 74.894531,4.445312 74.382812,4.410156 74.195312,4.394531 L 67.785156,4.019531 64.496094,0.78125 H 51.695312 L 49,4.019531 45.097656,4.410156 c -0.1875,0.019532 -0.394531,0.050782 -0.582031,0.109375 -0.164063,0.027344 -0.375,0.097657 -0.527344,0.214844 -0.1875,0.121094 -0.335937,0.324219 -0.421875,0.53125 C 43.464844,5.484375 43.394531,5.742188 43.378906,6 l -0.210937,2.449219 c -0.01172,0.171875 -0.01172,0.359375 0,0.53125 0.02344,0.136719 0.03906,0.304687 0.125,0.414062 0.08594,0.113281 0.222656,0.183594 0.359375,0.234375 0.136718,0.035156 0.386718,0.035156 0.523437,0.035156 h 1.859375 c 0.03516,0.152344 0.05078,0.355469 0.08594,0.492188 0.08594,0.394531 0.222656,0.75 0.425781,1.09375 0.1875,0.300781 0.421875,0.578125 0.710937,0.800781 0.125,0.121094 0.324219,0.25 0.460938,0.359375 h -9.863281 c 0.167969,-0.136718 0.402343,-0.324218 0.5625,-0.484375 0.238281,-0.214843 0.425781,-0.472656 0.574219,-0.761719 0.136718,-0.273437 0.261718,-0.546874 0.324218,-0.835937 0.05078,-0.1875 0.101563,-0.476563 0.136719,-0.664063 0.08594,0 0.210937,-0.019531 0.273437,-0.019531 C 39.929688,9.609375 40.125,9.53125 40.273438,9.40625 c 0.117187,-0.101562 0.203124,-0.238281 0.253906,-0.386719 0.07031,-0.195312 0.08594,-0.433593 0.08594,-0.636719 V 6.203125 c 0,-0.289063 -0.06641,-0.582031 -0.203125,-0.820313 C 40.289062,5.164062 40.089844,4.972656 39.863281,4.84375 39.628906,4.707031 39.316406,4.632812 39.042969,4.582031 L 38.15625,4.53125 31.714844,4.019531 28.582031,0.78125 H 15.679688 l -2.714844,3.238281 -3.269532,0.5 -0.617187,0.078125 C 8.863281,4.648438 8.601562,4.707031 8.4375,4.820312 8.242188,4.941406 8.089844,5.109375 7.988281,5.316406 7.902344,5.503906 7.839844,5.691406 7.804688,5.914062 L 7.480469,8.433594 C 7.464844,8.570312 7.464844,8.742188 7.464844,8.882812 c -0.023438,0.148438 0,0.335938 0.066406,0.460938 0.0625,0.097656 0.171875,0.1875 0.273438,0.234375 0.136718,0.066406 0.273437,0.085937 0.421874,0.085937 h 2.320313 c 0.01172,0.132813 0.05078,0.320313 0.08594,0.457032 0.08594,0.378906 0.222657,0.734375 0.425782,1.078125 0.171875,0.289062 0.394531,0.5625 0.632812,0.800781 0.136719,0.113281 0.351563,0.285156 0.488282,0.410156 H 6.285156 l 1.09375,3.578125 -0.324218,-0.152343 C 6.386719,15.492188 5.398438,15.015625 4.6875,14.757812 3.851562,14.453125 2.964844,14.230469 2.070312,14.164062 1.71875,14.144531 1.121094,14.144531 0.78125,14.144531 v 4.671875 c 0.324219,-0.01953 0.867188,0 1.191406,0.01563 0.785156,0.03516 1.617188,0.289063 2.367188,0.582031 0.546875,0.21875 1.859375,0.851563 2.40625,1.109376 0.683594,0.339843 1.554687,0.726562 2.28125,0.949218 0.769531,0.238282 1.570312,0.375 2.390625,0.375 0.8125,0 1.648437,-0.113281 2.453125,-0.335937 0.851562,-0.261719 1.886718,-0.722657 2.671875,-1.097657 0.648437,-0.300781 1.859375,-0.882812 2.527343,-1.085937 0.886719,-0.289063 1.785157,-0.445313 2.730469,-0.445313 0.8125,-0.01562 1.667969,0.08594 2.445313,0.324219 0.671875,0.222657 1.78125,0.769531 2.40625,1.09375 0.785156,0.386719 1.828125,0.886719 2.664062,1.136719 0.863282,0.273438 1.773438,0.410156 2.671875,0.410156 0.90625,0 1.804688,-0.136718 2.664063,-0.4375 0.574218,-0.1875 2.144531,-0.996094 2.691406,-1.269531 0.679688,-0.335937 1.5,-0.710937 2.234375,-0.914063 0.847656,-0.257812 1.734375,-0.359374 2.621094,-0.34375 0.753906,0 1.519531,0.09766 2.230469,0.324219 0.707031,0.207031 1.621093,0.667969 2.269531,0.992188 0.632812,0.324219 1.652343,0.851562 2.316406,1.101562 0.820313,0.308594 1.707031,0.53125 2.578125,0.546875 0.851562,0.02344 1.722656,-0.136718 2.542969,-0.375 0.777343,-0.234375 1.648437,-0.609375 2.382812,-0.972656 0.546875,-0.25 1.90625,-0.898438 2.46875,-1.085938 0.972657,-0.34375 1.980469,-0.511718 2.988281,-0.53125 0.847657,-0.01562 1.71875,0.07031 2.535157,0.308594 0.699219,0.203125 1.691406,0.683594 2.339843,1.007813 0.726563,0.375 1.820313,0.902343 2.582032,1.160156 0.871094,0.285156 1.78125,0.472656 2.679687,0.488281 0.800781,0.02344 1.621094,-0.08594 2.390625,-0.300781 C 75.230469,21.359375 76.050781,21 76.75,20.6875 c 0.261719,-0.113281 1.980469,-0.917969 2.253906,-1.019531 0.761719,-0.304688 1.597656,-0.5625 2.417969,-0.6875 0.410156,-0.04687 1.023437,-0.07813 1.449219,-0.09766 v -4.738281"
       id="path6641" />
    <path
       style="fill:#211e1e;fill-opacity:1;fill-rule:nonzero;stroke:none"
       d="m 82.871094,21.386719 c -0.136719,0 -0.339844,0 -0.476563,0 -0.632812,0.02344 -1.347656,0.175781 -1.964843,0.375 -0.847657,0.257812 -1.71875,0.621093 -2.519532,0.996093 -0.425781,0.183594 -2.082031,0.949219 -2.519531,1.121094 -0.921875,0.324219 -1.894531,0.511719 -2.867187,0.511719 -0.769532,0 -1.546876,-0.121094 -2.304688,-0.324219 -0.695312,-0.222656 -1.5625,-0.597656 -2.246094,-0.921875 -0.632812,-0.308593 -1.992187,-0.949219 -2.679687,-1.195312 -0.933594,-0.324219 -1.921875,-0.523438 -2.914063,-0.539063 -0.984375,0 -1.992187,0.199219 -2.929687,0.507813 -0.8125,0.253906 -1.722657,0.628906 -2.519531,1.003906 C 56.34375,23.195312 55,23.804688 54.402344,23.992188 c -0.886719,0.296874 -1.820313,0.449218 -2.757813,0.398437 -0.734375,-0.05078 -1.484375,-0.238281 -2.183593,-0.496094 -0.71875,-0.253906 -1.554688,-0.648437 -2.230469,-0.972656 -0.582031,-0.289063 -1.707031,-0.835937 -2.320313,-1.035156 -0.882812,-0.3125 -1.804687,-0.476563 -2.761718,-0.476563 -0.921876,0.01563 -1.859376,0.199219 -2.746094,0.488282 -0.734375,0.257812 -1.855469,0.785156 -2.554688,1.144531 -0.648437,0.324219 -1.605468,0.761719 -2.316406,0.988281 -0.800781,0.238281 -1.636719,0.359375 -2.492188,0.359375 -0.835937,0 -1.648437,-0.121094 -2.457031,-0.339844 -0.796875,-0.222656 -1.648437,-0.597656 -2.398437,-0.972656 -0.53125,-0.257813 -2.113282,-1.042969 -2.675782,-1.230469 -0.921874,-0.300781 -1.894531,-0.4375 -2.867187,-0.4375 -0.785156,0.01563 -1.582031,0.136719 -2.347656,0.351563 -0.804688,0.222656 -1.753907,0.667969 -2.503907,1.042969 -0.632812,0.324218 -1.894531,0.953124 -2.5625,1.160156 -0.835937,0.289062 -1.722656,0.425781 -2.609374,0.425781 -0.78125,0 -1.582032,-0.101563 -2.34375,-0.324219 C 8.625,23.863281 7.667969,23.402344 7.054688,23.09375 6.371094,22.757812 5.414062,22.273438 4.6875,22.019531 3.851562,21.710938 2.964844,21.488281 2.070312,21.425781 1.71875,21.410156 1.207031,21.410156 0.847656,21.410156 v 4.664063 c 0.324219,-0.01172 0.800782,0 1.125,0.02344 0.785156,0.02734 1.617188,0.289063 2.367188,0.574219 0.546875,0.222656 1.859375,0.859375 2.40625,1.109375 0.683594,0.335938 1.554687,0.734375 2.28125,0.957031 0.769531,0.238281 1.570312,0.375 2.390625,0.375 0.8125,0 1.648437,-0.125 2.453125,-0.34375 0.851562,-0.253906 1.886718,-0.714843 2.671875,-1.089843 0.648437,-0.308594 1.859375,-0.886719 2.527343,-1.09375 0.886719,-0.289063 1.785157,-0.441407 2.730469,-0.460938 0.8125,0 1.667969,0.08594 2.445313,0.34375 0.671875,0.203125 1.792968,0.765625 2.40625,1.089844 0.808594,0.410156 1.808594,0.886718 2.664062,1.144531 0.863282,0.273437 1.773438,0.410156 2.671875,0.410156 0.90625,0 1.804688,-0.136719 2.664063,-0.445312 0.574218,-0.1875 2.144531,-0.988281 2.691406,-1.261719 0.679688,-0.335938 1.5,-0.71875 2.234375,-0.921875 0.847656,-0.25 1.734375,-0.375 2.621094,-0.359375 0.753906,0.01953 1.519531,0.121094 2.230469,0.34375 0.707031,0.203125 1.621093,0.664062 2.269531,0.988281 0.632812,0.324219 1.652343,0.847657 2.316406,1.109375 0.820313,0.308594 1.707031,0.527344 2.578125,0.546875 0.851562,0.01563 1.722656,-0.136719 2.542969,-0.375 0.777343,-0.246093 1.648437,-0.621093 2.382812,-0.972656 0.5625,-0.257813 1.90625,-0.90625 2.46875,-1.09375 0.972657,-0.339844 1.980469,-0.527344 2.988281,-0.546875 0.847657,-0.01563 1.71875,0.08594 2.535157,0.324219 0.699219,0.207031 1.691406,0.683593 2.339843,1.007812 0.726563,0.359375 1.820313,0.90625 2.582032,1.160157 0.871094,0.289062 1.78125,0.476562 2.679687,0.496093 0.820313,0.01563 1.621094,-0.08594 2.390625,-0.308593 0.714844,-0.1875 1.5625,-0.546876 2.246094,-0.851563 0.359375,-0.171875 1.878906,-0.871094 2.253906,-1.023437 0.761719,-0.308594 1.597656,-0.558594 2.417969,-0.683594 0.410156,-0.04687 1.023437,-0.08594 1.449219,-0.101563 v -4.757812"
       id="path6643" />
    <path
       style="fill:#ffffff;fill-opacity:1;fill-rule:nonzero;stroke:none"
       d="m 52.480469,9.664062 h 15.96875 c 0.01563,0.175782 0.03516,0.414063 0.07031,0.578126 0.05078,0.324218 0.167969,0.648437 0.324219,0.957031 0.152344,0.289062 0.355469,0.5625 0.613281,0.785156 0.164063,0.136719 0.425781,0.300781 0.613281,0.425781 H 50.910156 c 0.136719,-0.125 0.335938,-0.273437 0.476563,-0.390625 0.234375,-0.222656 0.480469,-0.496093 0.644531,-0.769531 0.210938,-0.359375 0.324219,-0.75 0.398438,-1.160156 0.01562,-0.121094 0.02734,-0.308594 0.05078,-0.425782"
       id="path6645" />
    <path
       style="fill:#ffffff;fill-opacity:1;fill-rule:nonzero;stroke:none"
       d="m 17.078125,9.664062 h 15.902344 c 0.01563,0.136719 0.01563,0.363282 0.05078,0.5 0.05078,0.351563 0.167969,0.710938 0.355469,1.035157 0.171875,0.324219 0.394531,0.613281 0.667969,0.835937 0.152343,0.113282 0.410156,0.273438 0.574218,0.375 H 15.371094 c 0.152344,-0.136718 0.386718,-0.324218 0.546875,-0.476562 0.25,-0.238282 0.476562,-0.511719 0.664062,-0.804688 0.183594,-0.324218 0.320313,-0.664062 0.40625,-1.023437 0.03906,-0.117188 0.06641,-0.304688 0.08984,-0.441407"
       id="path6647" />
  </g>
</svg>
