<?xml version="1.0" encoding="UTF-8"?>
<svg xmlns="http://www.w3.org/2000/svg" xmlns:xlink="http://www.w3.org/1999/xlink" width="44pt" height="44pt" viewBox="0 0 44 44" version="1.1">
<g id="surface1">
<path style=" stroke:none;fill-rule:nonzero;fill:rgb(10.112%,40.585327%,73.280334%);fill-opacity:1;" d="M 0.507812 43.085938 L 0.507812 0.566406 L 43.03125 0.566406 L 43.03125 43.085938 L 0.507812 43.085938 M 16.949219 4.730469 L 16.949219 13.371094 L 9.523438 9.050781 L 4.679688 17.507812 L 12.089844 21.824219 L 4.679688 26.144531 L 9.523438 34.59375 L 16.949219 30.273438 L 16.949219 38.914062 L 26.59375 38.914062 L 26.59375 30.273438 L 34.027344 34.59375 L 38.867188 26.144531 L 31.4375 21.824219 L 38.867188 17.507812 L 34.027344 9.050781 L 26.59375 13.371094 L 26.59375 4.730469 L 16.949219 4.730469 M 23.429688 20.746094 L 23.488281 19.582031 L 23.257812 19.582031 L 23.203125 20.746094 L 23.429688 20.746094 M 21.984375 25.605469 L 21.929688 23.867188 L 21.695312 23.890625 L 21.757812 25.605469 L 21.984375 25.605469 M 23.042969 29.617188 L 23.121094 28.15625 L 22.890625 28.15625 L 22.835938 29.617188 L 23.042969 29.617188 M 22.738281 32.21875 L 22.816406 31.992188 L 23.007812 31.394531 L 23.121094 31.101562 L 23.238281 30.816406 L 23.355469 30.503906 L 23.660156 29.90625 L 23.972656 29.289062 L 24.066406 29.113281 L 24.148438 28.941406 L 24.1875 28.804688 L 24.222656 28.652344 L 24.242188 28.5 L 24.242188 28.382812 L 24.222656 28.242188 L 24.1875 28.132812 L 24.148438 28.019531 L 24.089844 27.898438 L 24.027344 27.800781 L 23.953125 27.703125 L 23.78125 27.496094 L 23.546875 27.300781 L 23.121094 26.9375 L 22.949219 26.78125 L 22.96875 26.570312 L 23.023438 25.121094 L 23.085938 23.695312 L 23.144531 22.34375 L 24.28125 21.113281 L 24.417969 20.933594 L 24.554688 20.746094 L 24.589844 20.664062 L 24.628906 20.574219 L 24.664062 20.476562 L 24.703125 20.394531 L 24.726562 20.300781 L 24.738281 20.207031 L 24.738281 20.109375 L 24.761719 20.03125 L 24.738281 19.839844 L 24.703125 19.644531 L 24.652344 19.484375 L 24.566406 19.3125 L 24.457031 19.140625 L 24.339844 18.96875 L 24.199219 18.8125 L 24.027344 18.660156 L 23.839844 18.523438 L 23.648438 18.390625 L 23.292969 18.179688 L 23.316406 17.949219 L 23.375 16.480469 L 23.429688 15.015625 L 23.488281 13.511719 L 23.5625 11.984375 L 23.625 10.402344 L 23.488281 10.207031 L 23.335938 10.035156 L 23.203125 9.882812 L 23.066406 9.765625 L 22.910156 9.667969 L 22.777344 9.609375 L 22.71875 9.570312 L 22.640625 9.570312 L 22.566406 9.554688 L 22.429688 9.554688 L 22.371094 9.570312 L 22.296875 9.570312 L 22.214844 9.609375 L 22.082031 9.667969 L 21.945312 9.765625 L 21.792969 9.882812 L 21.660156 10.035156 L 21.5 10.207031 L 21.367188 10.402344 L 21.402344 11.308594 L 21.539062 11.289062 L 21.734375 11.308594 L 21.929688 11.347656 L 22.121094 11.386719 L 22.296875 11.480469 L 22.484375 11.597656 L 22.664062 11.71875 L 22.816406 11.867188 L 22.96875 12.039062 L 23.105469 12.257812 L 23.179688 12.367188 L 23.21875 12.488281 L 23.28125 12.625 L 23.316406 12.734375 L 23.335938 12.871094 L 23.335938 13.101562 L 23.292969 13.238281 L 23.21875 13.371094 L 23.121094 13.488281 L 23.023438 13.566406 L 22.871094 13.621094 L 22.738281 13.644531 L 22.601562 13.644531 L 22.46875 13.621094 L 22.332031 13.566406 L 22.214844 13.53125 L 22.101562 13.488281 L 21.984375 13.449219 L 21.867188 13.433594 L 21.769531 13.410156 L 21.5 13.410156 L 21.636719 17.152344 L 21.597656 17.117188 L 21.5 17.054688 L 21.402344 16.980469 L 21.3125 16.882812 L 21.117188 16.6875 L 21.035156 16.578125 L 20.945312 16.460938 L 20.863281 16.328125 L 20.691406 16.058594 L 20.558594 15.789062 L 20.421875 15.496094 L 20.308594 15.1875 L 20.246094 15.03125 L 20.210938 14.894531 L 20.171875 14.742188 L 20.171875 14.609375 L 20.152344 14.472656 L 20.152344 14.339844 L 20.171875 14.222656 L 20.171875 14.105469 L 20.210938 13.988281 L 20.246094 13.878906 L 20.285156 13.78125 L 20.34375 13.683594 L 20.40625 13.585938 L 20.460938 13.488281 L 20.539062 13.410156 L 20.613281 13.351562 L 20.691406 13.277344 L 20.789062 13.21875 L 20.886719 13.179688 L 21 13.125 L 21.097656 13.082031 L 21.195312 13.066406 L 21.3125 13.042969 L 21.445312 13.027344 L 21.671875 13.027344 L 21.808594 13.042969 L 21.945312 13.042969 L 22.0625 13.066406 L 22.199219 13.101562 L 22.332031 13.164062 L 22.46875 13.21875 L 22.566406 13.238281 L 22.640625 13.261719 L 22.71875 13.277344 L 22.777344 13.261719 L 22.835938 13.238281 L 22.871094 13.199219 L 22.910156 13.164062 L 22.933594 13.101562 L 22.949219 13.042969 L 22.949219 12.832031 L 22.910156 12.734375 L 22.871094 12.640625 L 22.851562 12.5625 L 22.777344 12.445312 L 22.664062 12.292969 L 22.542969 12.136719 L 22.40625 12 L 22.273438 11.90625 L 22.121094 11.8125 L 21.984375 11.753906 L 21.832031 11.71875 L 21.671875 11.695312 L 21.523438 11.675781 L 21.367188 11.695312 L 21.214844 11.71875 L 21.058594 11.753906 L 20.886719 11.8125 L 20.753906 11.867188 L 20.578125 11.949219 L 20.421875 12.039062 L 20.171875 12.195312 L 19.917969 12.390625 L 19.707031 12.5625 L 19.515625 12.757812 L 19.363281 12.949219 L 19.207031 13.164062 L 19.09375 13.351562 L 18.996094 13.566406 L 18.898438 13.800781 L 18.859375 13.988281 L 18.800781 14.222656 L 18.800781 14.429688 L 18.78125 14.648438 L 18.800781 14.882812 L 18.824219 15.089844 L 18.875 15.300781 L 18.9375 15.53125 L 18.996094 15.746094 L 19.070312 15.960938 L 19.191406 16.148438 L 19.28125 16.363281 L 19.402344 16.578125 L 19.535156 16.75 L 19.671875 16.945312 L 19.804688 17.117188 L 19.976562 17.289062 L 20.136719 17.460938 L 20.285156 17.640625 L 20.460938 17.777344 L 20.632812 17.910156 L 20.808594 18.046875 L 21 18.179688 L 21.3125 18.367188 L 21.617188 18.5625 L 21.71875 18.621094 L 21.851562 22.191406 L 21.671875 22.363281 L 21.425781 22.636719 L 21.292969 22.746094 L 21.171875 22.882812 L 21.058594 23.019531 L 20.960938 23.15625 L 20.863281 23.285156 L 20.789062 23.421875 L 20.730469 23.554688 L 20.65625 23.695312 L 20.613281 23.828125 L 20.558594 23.964844 L 20.519531 24.097656 L 20.496094 24.234375 L 20.480469 24.390625 L 20.480469 24.796875 L 20.519531 24.929688 L 20.539062 25.066406 L 20.578125 25.199219 L 20.613281 25.335938 L 20.675781 25.46875 L 20.730469 25.628906 L 20.808594 25.761719 L 20.886719 25.898438 L 20.980469 26.046875 L 21.058594 26.179688 L 21.171875 26.339844 L 21.292969 26.472656 L 21.539062 26.742188 L 21.808594 27.03125 L 22.039062 27.246094 L 22.332031 34.09375 L 22.675781 34.09375 L 22.738281 32.53125 L 22.738281 32.21875 M 1.269531 1.316406 L 1.269531 42.328125 L 42.28125 42.328125 L 42.28125 1.316406 L 1.269531 1.316406 "/>
</g>
</svg>
