<?xml version="1.0" encoding="UTF-8" standalone="no"?>
<svg
   width="68pt"
   height="68pt"
   viewBox="0 0 68.000001 68.000001"
   version="1.1"
   id="svg3513"
   xmlns="http://www.w3.org/2000/svg"
   xmlns:svg="http://www.w3.org/2000/svg">
  <defs
     id="defs3517">
    <clipPath
       id="clip1">
      <path
         d="M 0,0.371094 H 485.92969 V 184 H 0 Z m 0,0"
         id="path6178" />
    </clipPath>
  </defs>
  <g
     id="layer2"
     style="display:inline"
     transform="matrix(0.74036996,0,0,1,0.57805507,0.4117761)" />
  <rect
     style="display:inline;fill:#ffffff;stroke:none;stroke-width:0;stroke-linecap:square;stroke-miterlimit:4;stroke-dasharray:none;stroke-opacity:1"
     id="rect3621"
     width="68"
     height="68"
     x="-5.5511151e-17"
     y="1.110223e-16" />
  <rect
     style="display:inline;fill:none;stroke:#000000;stroke-width:0.194925;stroke-linecap:square;stroke-miterlimit:4;stroke-dasharray:none;stroke-opacity:1"
     id="rect3621-4"
     width="63.805077"
     height="63.805077"
     x="2.0974617"
     y="2.0974617" />
  <g
     id="surface1"
     transform="translate(18,4.75)">
    <path
       style="fill:#ee2b2e;fill-opacity:1;fill-rule:nonzero;stroke:none"
       d="m 15.707031,2.972656 v 2.953125 h 3.023438 l -0.07031,7.273438 c -2.085937,0.910156 -3.542968,2.988281 -3.542968,5.417969 v 33.078124 c 0,3.257813 2.640624,5.902344 5.902343,5.902344 3.257813,0 5.902344,-2.644531 5.902344,-5.902344 L 26.9375,18.648438 c 0,-2.429688 -1.476562,-4.582032 -3.566406,-5.488282 L 23.375,5.921875 h 1.773438 l 2.125,4.011719 h 4.246093 L 27.273438,2.96875 15.707031,2.972656"
       id="path959" />
    <path
       style="fill:#ee2b2e;fill-opacity:1;fill-rule:nonzero;stroke:none"
       d="M 13.46875,4.449219 0.480469,7.992188 V 0.902344 L 13.46875,4.449219"
       id="path961" />
  </g>
</svg>
