<?xml version="1.0" encoding="UTF-8"?>
<svg xmlns="http://www.w3.org/2000/svg" xmlns:xlink="http://www.w3.org/1999/xlink" width="121pt" height="107pt" viewBox="0 0 121 107" version="1.1">
<g id="surface1">
<path style=" stroke:none;fill-rule:nonzero;fill:rgb(93.527222%,17.272949%,18.882751%);fill-opacity:1;" d="M 5.132812 106.257812 L 115.511719 106.257812 C 119.328125 106.257812 121.71875 102.125 119.808594 98.816406 L 64.617188 3.230469 C 62.710938 -0.078125 57.933594 -0.078125 56.027344 3.230469 L 0.835938 98.816406 C -1.074219 102.125 1.316406 106.257812 5.132812 106.257812 "/>
<path style=" stroke:none;fill-rule:nonzero;fill:rgb(100%,100%,100%);fill-opacity:1;" d="M 13.722656 96.335938 L 106.921875 96.335938 L 60.324219 15.632812 L 13.722656 96.335938 "/>
<path style=" stroke:none;fill-rule:nonzero;fill:rgb(13.729858%,12.159729%,12.548828%);fill-opacity:1;" d="M 35.523438 82.140625 L 35.59375 74.1875 C 35.984375 74.179688 36.40625 74.152344 36.792969 74.082031 C 37.195312 74.003906 37.585938 73.828125 37.867188 73.539062 C 38.210938 73.183594 38.5 72.707031 38.722656 72.269531 C 39.15625 71.410156 39.832031 70.148438 40.429688 69.398438 C 41.4375 68.136719 42.96875 67.34375 44.535156 66.941406 C 46.308594 66.484375 48.1875 66.554688 49.894531 67.214844 C 51.355469 67.769531 52.574219 68.71875 53.53125 69.953125 C 54.09375 70.683594 54.765625 71.769531 55.375 72.460938 C 56.261719 73.46875 57.5 74.117188 58.8125 74.398438 C 59.648438 74.574219 60.511719 74.585938 61.347656 74.410156 C 62.429688 74.183594 63.464844 73.683594 64.222656 72.882812 C 64.957031 72.113281 65.644531 70.90625 66.269531 70.054688 C 67.09375 68.929688 68.167969 68.011719 69.421875 67.402344 C 70.925781 66.664062 72.617188 66.414062 74.273438 66.640625 C 75.726562 66.832031 77.105469 67.390625 78.265625 68.28125 C 79.1875 68.992188 79.953125 69.902344 80.546875 70.910156 C 80.777344 71.304688 81.527344 72.574219 81.789062 72.945312 C 82.050781 73.3125 82.429688 73.601562 82.820312 73.820312 C 83.175781 74.015625 83.582031 74.160156 83.988281 74.1875 C 84.367188 74.207031 84.757812 74.175781 85.128906 74.148438 L 85.105469 82.121094 L 35.523438 82.140625 "/>
</g>
</svg>
