<?xml version="1.0" encoding="UTF-8"?>
<svg xmlns="http://www.w3.org/2000/svg" xmlns:xlink="http://www.w3.org/1999/xlink" width="121pt" height="106pt" viewBox="0 0 121 106" version="1.1">
<g id="surface1">
<path style=" stroke:none;fill-rule:nonzero;fill:rgb(93.527222%,17.272949%,18.882751%);fill-opacity:1;" d="M 5.210938 105.527344 L 115.589844 105.527344 C 119.40625 105.527344 121.792969 101.394531 119.886719 98.085938 L 64.695312 2.496094 C 62.785156 -0.808594 58.011719 -0.808594 56.105469 2.496094 L 0.914062 98.085938 C -0.996094 101.394531 1.390625 105.527344 5.210938 105.527344 "/>
<path style=" stroke:none;fill-rule:nonzero;fill:rgb(100%,100%,100%);fill-opacity:1;" d="M 13.800781 95.605469 L 106.996094 95.605469 L 60.398438 14.902344 L 13.800781 95.605469 "/>
<path style=" stroke:none;fill-rule:nonzero;fill:rgb(13.729858%,12.159729%,12.548828%);fill-opacity:1;" d="M 38.460938 84.269531 L 84.238281 84.269531 L 84.238281 82.738281 L 77.671875 82.828125 C 77.671875 82.558594 77.761719 82.289062 77.761719 82.109375 C 77.761719 82.019531 77.671875 81.296875 77.761719 81.117188 C 77.761719 81.027344 77.761719 80.847656 77.851562 80.757812 C 77.941406 80.667969 77.941406 80.488281 78.03125 80.398438 C 78.03125 80.21875 78.03125 79.863281 78.03125 79.683594 C 77.941406 79.59375 77.941406 79.503906 77.941406 79.414062 C 77.941406 79.050781 77.941406 78.421875 78.03125 78.0625 C 78.03125 77.613281 78.121094 77.074219 78.210938 76.710938 C 78.480469 76.171875 78.480469 75.8125 78.480469 75.722656 C 78.574219 75.453125 78.660156 75.183594 78.660156 74.914062 C 78.660156 74.550781 78.480469 74.101562 78.390625 73.742188 C 78.210938 73.5625 77.761719 72.664062 77.671875 72.480469 C 77.402344 72.03125 77.222656 71.496094 77.132812 71.046875 C 77.042969 70.597656 77.042969 70.054688 77.042969 69.515625 C 77.132812 68.976562 77.222656 68.347656 77.402344 67.804688 C 77.402344 67.535156 77.582031 66.726562 77.761719 66.1875 C 77.851562 65.644531 77.941406 65.105469 77.941406 64.476562 C 77.941406 64.027344 77.761719 63.664062 77.761719 63.214844 C 77.851562 63.304688 78.210938 63.394531 78.390625 64.925781 C 78.480469 65.554688 78.390625 66.277344 78.300781 66.90625 C 78.300781 67.535156 78.210938 68.707031 78.210938 69.335938 C 78.210938 70.054688 78.390625 70.867188 78.480469 71.585938 C 78.660156 72.394531 79.023438 73.292969 79.292969 74.101562 C 79.382812 74.550781 79.652344 75.003906 79.921875 75.363281 C 80.011719 75.542969 80.28125 75.722656 80.460938 75.722656 C 80.550781 75.632812 80.640625 75.363281 80.640625 75.273438 C 80.640625 74.730469 80.550781 74.460938 80.550781 73.5625 C 80.550781 72.574219 80.371094 71.316406 80.460938 70.234375 C 80.460938 69.964844 80.640625 68.4375 80.640625 67.984375 C 80.730469 66.996094 80.640625 66.007812 80.371094 65.105469 C 80.101562 64.207031 79.5625 63.304688 79.023438 62.589844 C 78.753906 62.230469 78.390625 61.78125 78.03125 61.597656 C 77.941406 61.511719 77.671875 61.417969 77.492188 61.417969 C 77.3125 61.058594 76.953125 60.519531 76.683594 60.25 C 76.234375 59.710938 75.515625 59.347656 74.886719 59.078125 C 74.34375 58.808594 73.714844 58.628906 73.085938 58.539062 C 72.183594 58.449219 71.378906 58.539062 70.570312 58.71875 C 69.941406 58.808594 68.949219 59.078125 68.320312 59.261719 C 67.960938 59.347656 67.597656 59.441406 67.148438 59.53125 C 65.984375 59.800781 64.722656 59.980469 63.371094 60.070312 C 62.472656 60.070312 61.484375 60.070312 60.585938 59.710938 C 59.777344 59.441406 59.054688 58.988281 58.335938 58.359375 C 57.707031 57.730469 56.984375 57.097656 56.445312 56.378906 C 55.910156 55.75 55.28125 55.03125 54.832031 54.402344 C 54.378906 53.773438 53.75 53.054688 53.121094 52.511719 C 52.582031 51.972656 51.949219 51.523438 51.230469 51.253906 C 50.785156 51.074219 50.332031 50.894531 49.882812 50.714844 C 49.703125 50.714844 49.433594 50.625 49.253906 50.53125 C 49.164062 50.261719 49.074219 49.902344 48.984375 49.632812 C 48.894531 49.453125 48.625 48.824219 48.535156 48.554688 C 48.445312 48.644531 47.992188 50.625 47.992188 50.804688 C 47.992188 50.894531 47.8125 51.074219 47.8125 51.074219 C 47.542969 51.433594 47.09375 52.152344 46.734375 52.601562 C 46.285156 53.144531 45.746094 54.132812 45.476562 54.492188 C 45.207031 54.847656 45.207031 55.03125 45.207031 55.210938 C 45.207031 55.300781 45.207031 55.480469 45.207031 55.570312 C 45.117188 55.839844 44.847656 56.289062 44.667969 56.648438 C 44.578125 56.738281 44.488281 57.011719 44.398438 57.097656 C 44.21875 57.460938 44.128906 57.820312 43.949219 58.089844 C 43.675781 58.539062 43.496094 58.988281 43.40625 59.53125 C 43.316406 59.800781 43.226562 60.070312 43.226562 60.339844 C 43.226562 60.609375 43.40625 60.789062 43.585938 60.96875 C 43.765625 61.058594 43.855469 61.148438 44.035156 61.148438 C 44.035156 61.148438 44.667969 61.417969 44.847656 61.417969 C 44.9375 61.417969 45.117188 61.417969 45.207031 61.328125 C 45.207031 61.148438 45.296875 60.878906 45.296875 60.878906 C 45.386719 60.699219 45.476562 60.609375 45.566406 60.519531 C 45.746094 60.339844 46.375 59.800781 46.464844 59.710938 C 46.734375 59.53125 47.003906 59.347656 47.273438 59.261719 C 47.542969 59.167969 48.351562 58.898438 48.535156 58.71875 C 48.804688 58.539062 49.074219 58.269531 49.253906 58 C 49.433594 57.820312 49.523438 57.460938 49.613281 57.460938 C 49.882812 57.371094 50.242188 58.269531 50.515625 58.628906 C 51.054688 59.347656 51.410156 60.160156 51.679688 61.058594 C 51.949219 62.140625 52.21875 63.304688 52.398438 64.386719 C 52.488281 64.835938 52.761719 66.636719 52.941406 67.085938 C 53.03125 67.535156 53.300781 68.164062 53.570312 68.527344 C 53.660156 68.886719 53.839844 69.246094 54.019531 69.605469 C 54.289062 70.328125 54.46875 71.046875 54.558594 71.851562 C 54.648438 72.933594 54.738281 74.191406 54.738281 75.273438 C 54.738281 75.453125 54.738281 75.722656 54.738281 75.902344 C 54.738281 75.992188 54.832031 77.882812 54.832031 78.421875 C 54.832031 78.960938 54.832031 79.503906 54.832031 79.953125 C 54.832031 80.128906 54.832031 80.21875 54.917969 80.398438 C 54.738281 80.578125 54.738281 80.757812 54.738281 80.757812 C 54.738281 80.847656 54.832031 81.117188 54.832031 81.296875 C 54.738281 81.390625 54.46875 81.75 54.378906 81.929688 C 54.289062 82.019531 54.109375 82.648438 54.109375 82.828125 L 38.460938 82.828125 L 38.460938 84.269531 "/>
<path style=" stroke:none;fill-rule:nonzero;fill:rgb(100%,100%,100%);fill-opacity:1;" d="M 56.253906 82.835938 C 56.253906 82.65625 56.433594 82.027344 56.34375 81.847656 C 56.34375 81.757812 56.253906 81.484375 56.253906 81.394531 C 56.253906 81.304688 56.703125 80.855469 56.703125 80.765625 C 56.703125 80.675781 56.703125 80.585938 56.613281 80.40625 C 56.613281 80.316406 56.523438 80.046875 56.523438 79.957031 C 56.433594 79.597656 56.433594 79.144531 56.433594 78.875 C 56.433594 78.695312 56.523438 78.339844 56.523438 78.160156 C 56.613281 77.890625 56.703125 76.71875 56.703125 76.539062 C 56.792969 76.359375 56.882812 75.820312 56.882812 75.640625 C 56.882812 75.460938 56.882812 75.191406 56.882812 75.011719 C 56.882812 75.011719 57.332031 72.488281 57.332031 72.21875 C 57.421875 71.859375 57.511719 71.410156 57.511719 71.050781 C 57.601562 70.871094 57.691406 69.972656 57.78125 69.703125 C 59.757812 70.238281 62.097656 70.417969 63.71875 70.0625 C 67.765625 69.074219 68.753906 68.445312 70.28125 68.082031 C 70.371094 68.082031 70.460938 69.164062 70.550781 69.523438 C 70.730469 70.152344 71.089844 70.78125 71.453125 71.320312 C 71.722656 72.21875 72.351562 72.578125 72.710938 73.210938 C 72.890625 73.480469 73.070312 73.839844 73.25 74.199219 C 73.25 74.378906 73.339844 74.46875 73.339844 74.648438 C 73.339844 74.917969 73.25 75.371094 73.160156 75.730469 C 72.800781 76.808594 72.351562 78.339844 71.992188 79.414062 C 71.992188 79.507812 71.539062 80.316406 71.453125 80.496094 C 71.453125 80.675781 71.359375 81.035156 71.269531 81.214844 C 71.179688 81.484375 70.910156 81.757812 70.820312 82.027344 C 70.730469 82.207031 70.640625 82.566406 70.550781 82.835938 L 56.253906 82.835938 "/>
<path style=" stroke:none;fill-rule:nonzero;fill:rgb(100%,100%,100%);fill-opacity:1;" d="M 72.71875 82.835938 C 72.71875 82.65625 72.71875 82.566406 72.71875 82.386719 C 72.71875 82.296875 72.628906 81.664062 72.71875 81.484375 C 72.71875 81.484375 72.988281 81.214844 73.078125 81.125 C 73.167969 81.125 73.257812 81.035156 73.347656 80.945312 C 73.4375 80.765625 73.617188 79.867188 73.707031 79.6875 C 73.796875 79.144531 74.070312 78.609375 74.339844 78.160156 C 74.519531 77.800781 74.96875 76.988281 75.148438 76.71875 C 75.324219 76.449219 75.683594 75.910156 75.773438 75.730469 L 75.773438 74.109375 C 75.863281 74.46875 76.40625 74.46875 76.40625 75.820312 C 76.40625 76.089844 76.40625 76.71875 76.40625 76.988281 C 76.316406 77.53125 76.316406 78.160156 76.316406 78.695312 L 76.316406 78.964844 C 76.316406 79.234375 76.316406 79.597656 76.316406 79.957031 C 76.316406 80.136719 76.316406 80.675781 76.222656 80.855469 C 76.136719 81.214844 75.957031 81.578125 75.773438 81.847656 C 75.683594 82.027344 75.503906 82.296875 75.414062 82.476562 C 75.414062 82.566406 75.324219 82.746094 75.324219 82.835938 L 72.71875 82.835938 "/>
</g>
</svg>
