<?xml version="1.0" encoding="UTF-8"?>
<svg xmlns="http://www.w3.org/2000/svg" xmlns:xlink="http://www.w3.org/1999/xlink" width="86pt" height="86pt" viewBox="0 0 86 86" version="1.1">
<g id="surface1">
<path style=" stroke:none;fill-rule:nonzero;fill:rgb(93.527222%,17.272949%,18.882751%);fill-opacity:1;" d="M 42.523438 0.648438 C 66.007812 0.648438 85.042969 19.683594 85.042969 43.167969 C 85.042969 66.652344 66.007812 85.6875 42.523438 85.6875 C 19.042969 85.6875 0.00390625 66.652344 0.00390625 43.167969 C 0.00390625 19.683594 19.042969 0.648438 42.523438 0.648438 "/>
<path style=" stroke:none;fill-rule:nonzero;fill:rgb(100%,100%,100%);fill-opacity:1;" d="M 42.523438 14.820312 C 46.375 14.820312 50.050781 15.5625 53.554688 17.042969 C 56.945312 18.476562 59.949219 20.503906 62.570312 23.125 C 65.1875 25.742188 67.214844 28.75 68.648438 32.136719 C 70.128906 35.640625 70.871094 39.316406 70.871094 43.167969 C 70.871094 47.019531 70.128906 50.695312 68.648438 54.199219 C 67.214844 57.585938 65.1875 60.59375 62.570312 63.210938 C 59.949219 65.832031 56.945312 67.859375 53.554688 69.292969 C 50.050781 70.773438 46.375 71.515625 42.523438 71.515625 C 38.671875 71.515625 34.996094 70.773438 31.496094 69.292969 C 28.105469 67.859375 25.101562 65.832031 22.480469 63.210938 C 19.859375 60.59375 17.832031 57.585938 16.398438 54.199219 C 14.917969 50.695312 14.175781 47.019531 14.175781 43.167969 C 14.175781 39.316406 14.917969 35.640625 16.398438 32.136719 C 17.832031 28.75 19.859375 25.742188 22.480469 23.125 C 25.101562 20.503906 28.105469 18.476562 31.496094 17.042969 C 34.996094 15.5625 38.671875 14.820312 42.523438 14.820312 "/>
<path style=" stroke:none;fill-rule:nonzero;fill:rgb(13.729858%,12.159729%,12.548828%);fill-opacity:1;" d="M 15.960938 33.246094 C 14.773438 36.414062 14.175781 39.71875 14.175781 43.167969 C 14.175781 46.613281 14.773438 49.921875 15.960938 53.089844 L 24.808594 43.136719 L 15.960938 33.246094 "/>
<path style=" stroke:none;fill-rule:nonzero;fill:rgb(13.729858%,12.159729%,12.548828%);fill-opacity:1;" d="M 69.09375 53.089844 C 70.277344 49.921875 70.871094 46.613281 70.871094 43.167969 C 70.871094 39.71875 70.277344 36.414062 69.09375 33.246094 L 60.238281 43.136719 L 69.09375 53.089844 "/>
<path style=" stroke:none;fill-rule:nonzero;fill:rgb(13.729858%,12.159729%,12.548828%);fill-opacity:1;" d="M 31.148438 51.695312 L 40.894531 51.695312 L 40.894531 49.421875 L 34.195312 49.421875 L 34.859375 48.707031 C 35.652344 47.835938 36.414062 46.941406 37.132812 46.019531 C 37.824219 45.121094 38.4375 44.203125 38.972656 43.304688 C 39.511719 42.410156 39.921875 41.539062 40.226562 40.667969 C 40.535156 39.828125 40.6875 39.007812 40.6875 38.238281 C 40.6875 37.601562 40.585938 37.011719 40.40625 36.449219 C 40.203125 35.886719 39.894531 35.398438 39.511719 34.96875 C 39.105469 34.558594 38.589844 34.222656 38.003906 33.96875 C 37.386719 33.734375 36.671875 33.609375 35.855469 33.609375 C 35.015625 33.609375 34.21875 33.710938 33.527344 33.890625 C 32.8125 34.097656 32.148438 34.351562 31.558594 34.65625 L 31.839844 37.269531 C 32.25 36.9375 32.761719 36.601562 33.351562 36.320312 C 33.9375 36.039062 34.605469 35.886719 35.34375 35.886719 C 36.132812 35.886719 36.773438 36.140625 37.210938 36.679688 C 37.644531 37.21875 37.875 37.882812 37.875 38.726562 C 37.875 39.316406 37.746094 39.953125 37.492188 40.644531 C 37.210938 41.335938 36.851562 42.078125 36.363281 42.820312 C 35.882812 43.589844 35.320312 44.382812 34.679688 45.222656 C 34.015625 46.070312 33.296875 46.941406 32.503906 47.835938 L 31.148438 49.398438 L 31.148438 51.695312 "/>
<path style=" stroke:none;fill-rule:nonzero;fill:rgb(13.729858%,12.159729%,12.548828%);fill-opacity:1;" d="M 44.65625 41.960938 L 46.25 41.960938 L 46.25 37.140625 C 46.25 36.558594 46.371094 36.113281 46.601562 35.789062 C 46.832031 35.46875 47.183594 35.3125 47.632812 35.3125 C 48.371094 35.3125 48.738281 35.804688 48.738281 36.769531 L 48.738281 41.960938 L 50.332031 41.960938 L 50.332031 37.140625 C 50.332031 36.558594 50.457031 36.113281 50.683594 35.789062 C 50.914062 35.46875 51.269531 35.3125 51.710938 35.3125 C 52.449219 35.3125 52.816406 35.804688 52.816406 36.769531 L 52.816406 41.960938 L 54.414062 41.960938 L 54.414062 36.804688 C 54.414062 35.882812 54.230469 35.175781 53.859375 34.703125 C 53.476562 34.222656 52.910156 33.976562 52.144531 33.976562 C 51.636719 33.976562 51.222656 34.101562 50.898438 34.34375 C 50.578125 34.605469 50.332031 34.898438 50.132812 35.222656 C 50.054688 35.070312 49.960938 34.914062 49.851562 34.761719 C 49.746094 34.621094 49.609375 34.484375 49.457031 34.363281 C 49.304688 34.253906 49.121094 34.160156 48.921875 34.085938 C 48.722656 34.011719 48.476562 33.976562 48.214844 33.976562 C 47.726562 33.976562 47.328125 34.101562 47.003906 34.34375 C 46.679688 34.605469 46.417969 34.914062 46.25 35.296875 L 46.21875 35.296875 C 46.21875 35.253906 46.21875 35.15625 46.21875 35.035156 C 46.203125 34.929688 46.203125 34.804688 46.203125 34.683594 C 46.1875 34.558594 46.1875 34.4375 46.1875 34.332031 C 46.171875 34.222656 46.171875 34.132812 46.171875 34.085938 L 44.59375 34.085938 C 44.609375 34.300781 44.621094 34.53125 44.640625 34.777344 C 44.65625 35.023438 44.65625 35.285156 44.65625 35.574219 L 44.65625 41.960938 "/>
</g>
</svg>
