<?xml version="1.0" encoding="UTF-8"?>
<svg xmlns="http://www.w3.org/2000/svg" xmlns:xlink="http://www.w3.org/1999/xlink" width="87pt" height="86pt" viewBox="0 0 87 86" version="1.1">
<g id="surface1">
<path style=" stroke:none;fill-rule:nonzero;fill:rgb(93.527222%,17.272949%,18.882751%);fill-opacity:1;" d="M 43.519531 0.644531 C 67.003906 0.644531 86.039062 19.679688 86.039062 43.164062 C 86.039062 66.648438 67.003906 85.683594 43.519531 85.683594 C 20.035156 85.683594 1 66.648438 1 43.164062 C 1 19.679688 20.035156 0.644531 43.519531 0.644531 "/>
<path style=" stroke:none;fill-rule:nonzero;fill:rgb(100%,100%,100%);fill-opacity:1;" d="M 43.503906 14.820312 C 47.355469 14.820312 51.03125 15.558594 54.535156 17.039062 C 57.921875 18.472656 60.929688 20.5 63.546875 23.121094 C 66.167969 25.742188 68.195312 28.746094 69.628906 32.136719 C 71.109375 35.636719 71.851562 39.3125 71.851562 43.164062 C 71.851562 47.015625 71.109375 50.691406 69.628906 54.195312 C 68.195312 57.585938 66.167969 60.589844 63.546875 63.210938 C 60.929688 65.828125 57.921875 67.855469 54.535156 69.289062 C 51.03125 70.769531 47.355469 71.511719 43.503906 71.511719 C 39.652344 71.511719 35.976562 70.769531 32.476562 69.289062 C 29.085938 67.855469 26.082031 65.828125 23.460938 63.210938 C 20.839844 60.589844 18.8125 57.585938 17.378906 54.195312 C 15.898438 50.691406 15.15625 47.015625 15.15625 43.164062 C 15.15625 39.3125 15.898438 35.636719 17.378906 32.136719 C 18.8125 28.746094 20.839844 25.742188 23.460938 23.121094 C 26.082031 20.5 29.085938 18.472656 32.476562 17.039062 C 35.976562 15.558594 39.652344 14.820312 43.503906 14.820312 "/>
<path style=" stroke:none;fill-rule:nonzero;fill:rgb(13.729858%,12.159729%,12.548828%);fill-opacity:1;" d="M 26.9375 40.34375 C 28.703125 40.34375 30.128906 41.746094 30.15625 43.476562 C 30.175781 45.238281 28.75 46.703125 26.945312 46.707031 C 25.148438 46.710938 23.707031 45.253906 23.722656 43.488281 C 23.742188 41.753906 25.164062 40.34375 26.9375 40.34375 "/>
<path style=" stroke:none;fill-rule:nonzero;fill:rgb(13.729858%,12.159729%,12.548828%);fill-opacity:1;" d="M 53.257812 40.328125 C 55.089844 40.328125 56.578125 41.792969 56.542969 43.585938 C 56.503906 45.320312 55.035156 46.671875 53.269531 46.679688 C 51.492188 46.683594 50.007812 45.320312 49.972656 43.582031 C 49.941406 41.789062 51.421875 40.328125 53.257812 40.328125 "/>
<path style=" stroke:none;fill-rule:nonzero;fill:rgb(13.729858%,12.159729%,12.548828%);fill-opacity:1;" d="M 29.695312 54.679688 L 29.695312 56.886719 L 25.671875 56.597656 L 26.230469 58.894531 C 26.234375 58.914062 26.246094 58.964844 26.246094 58.988281 C 26.257812 59.089844 26.214844 59.195312 26.128906 59.261719 C 26.035156 59.328125 25.910156 59.335938 25.816406 59.28125 C 25.785156 59.265625 25.761719 59.25 25.742188 59.226562 L 22.023438 56.046875 C 22.007812 56.035156 21.980469 56.015625 21.96875 56 C 21.921875 55.949219 21.902344 55.882812 21.902344 55.816406 C 21.902344 55.738281 21.921875 55.671875 21.964844 55.617188 C 21.980469 55.597656 22.003906 55.578125 22.015625 55.5625 L 25.6875 52.339844 C 25.714844 52.316406 25.742188 52.292969 25.765625 52.277344 C 25.875 52.210938 26.011719 52.210938 26.117188 52.289062 C 26.191406 52.34375 26.234375 52.429688 26.242188 52.527344 C 26.242188 52.558594 26.234375 52.589844 26.230469 52.625 L 25.679688 54.964844 L 29.695312 54.679688 "/>
<path style=" stroke:none;fill-rule:nonzero;fill:rgb(13.729858%,12.159729%,12.548828%);fill-opacity:1;" d="M 22.902344 36.71875 C 22.714844 36.71875 22.492188 36.847656 22.351562 36.984375 C 22.210938 37.117188 22.085938 37.316406 22.0625 37.519531 L 21.609375 41.875 L 21.269531 41.886719 C 21.15625 41.902344 21.03125 41.921875 20.945312 41.992188 C 20.863281 42.078125 20.839844 42.207031 20.839844 42.308594 L 20.828125 42.691406 C 20.828125 42.84375 20.914062 42.980469 21.039062 43.042969 C 21.070312 43.0625 21.125 43.085938 21.167969 43.097656 L 21.125 43.550781 L 23.019531 43.550781 C 23.019531 43.492188 23.019531 43.40625 23.019531 43.347656 C 23.128906 41.304688 24.84375 39.695312 26.933594 39.695312 C 29.054688 39.695312 30.878906 41.277344 30.851562 43.347656 C 30.847656 43.398438 30.847656 43.46875 30.839844 43.519531 L 49.195312 43.527344 C 49.199219 43.460938 49.191406 43.414062 49.199219 43.351562 C 49.40625 41.246094 51.113281 39.519531 53.273438 39.539062 C 55.441406 39.558594 57.113281 41.335938 57.28125 43.449219 C 57.285156 43.492188 57.285156 43.546875 57.289062 43.585938 L 60.035156 43.585938 C 60.058594 43.378906 60.265625 42.371094 60.25 42.371094 L 64.058594 41.550781 L 64.058594 40.589844 L 56.976562 40.601562 C 56.921875 40.5 56.847656 40.394531 56.777344 40.3125 C 56.695312 40.210938 56.539062 40.046875 56.433594 39.925781 L 64.046875 39.921875 L 64.046875 28.992188 L 33.472656 29.003906 L 33.472656 40.007812 L 49.953125 40.007812 C 49.851562 40.097656 49.726562 40.234375 49.636719 40.34375 L 49.410156 40.601562 L 32.980469 40.59375 L 32.984375 32.652344 L 27.464844 32.652344 C 27.070312 32.652344 26.660156 32.816406 26.316406 33.019531 C 26.007812 33.207031 25.738281 33.476562 25.585938 33.796875 L 24.21875 36.707031 L 22.902344 36.71875 "/>
<path style=" stroke:none;fill-rule:nonzero;fill:rgb(13.729858%,12.159729%,12.548828%);fill-opacity:1;" d="M 57.335938 54.679688 L 57.335938 56.882812 L 61.359375 56.59375 L 60.800781 58.890625 C 60.796875 58.910156 60.785156 58.960938 60.785156 58.984375 C 60.773438 59.085938 60.816406 59.191406 60.90625 59.257812 C 60.996094 59.324219 61.121094 59.332031 61.21875 59.28125 C 61.246094 59.261719 61.273438 59.246094 61.289062 59.226562 L 65.007812 56.042969 C 65.027344 56.03125 65.050781 56.011719 65.0625 55.996094 C 65.109375 55.945312 65.132812 55.878906 65.132812 55.8125 C 65.132812 55.734375 65.109375 55.667969 65.070312 55.613281 C 65.050781 55.59375 65.03125 55.574219 65.015625 55.558594 L 61.34375 52.335938 C 61.320312 52.3125 61.289062 52.292969 61.269531 52.273438 C 61.15625 52.207031 61.019531 52.207031 60.914062 52.285156 C 60.839844 52.339844 60.796875 52.425781 60.789062 52.523438 C 60.789062 52.554688 60.796875 52.585938 60.800781 52.621094 L 61.351562 54.960938 L 57.335938 54.679688 "/>
<path style=" stroke:none;fill-rule:nonzero;fill:rgb(13.729858%,12.159729%,12.548828%);fill-opacity:1;" d="M 33.195312 62.15625 L 34.730469 62.15625 L 34.730469 49.402344 L 33.382812 49.402344 L 31.113281 51.996094 L 31.871094 53.367188 L 33.195312 51.667969 L 33.195312 62.15625 "/>
<path style=" stroke:none;fill-rule:nonzero;fill:rgb(13.729858%,12.159729%,12.548828%);fill-opacity:1;" d="M 36.628906 60.4375 C 36.878906 61.027344 37.199219 61.480469 37.589844 61.808594 C 37.984375 62.136719 38.449219 62.300781 39.011719 62.300781 C 39.582031 62.300781 40.058594 62.136719 40.453125 61.792969 C 40.84375 61.464844 41.160156 61.007812 41.410156 60.417969 C 41.660156 59.835938 41.832031 59.144531 41.933594 58.355469 C 42.035156 57.570312 42.09375 56.710938 42.09375 55.78125 C 42.09375 54.847656 42.035156 53.988281 41.933594 53.183594 C 41.832031 52.398438 41.660156 51.707031 41.410156 51.117188 C 41.160156 50.535156 40.84375 50.078125 40.453125 49.730469 C 40.058594 49.402344 39.582031 49.238281 39.011719 49.238281 C 38.449219 49.238281 37.96875 49.402344 37.578125 49.730469 C 37.183594 50.078125 36.878906 50.535156 36.628906 51.117188 C 36.382812 51.707031 36.207031 52.398438 36.105469 53.183594 C 36.007812 53.988281 35.949219 54.847656 35.949219 55.78125 C 35.949219 56.710938 36.007812 57.570312 36.105469 58.355469 C 36.207031 59.160156 36.382812 59.855469 36.628906 60.4375 "/>
<path style=" stroke:none;fill-rule:nonzero;fill:rgb(13.729858%,12.159729%,12.548828%);fill-opacity:1;" d="M 45.257812 62.15625 L 46.769531 62.15625 L 46.769531 56.421875 C 46.769531 55.726562 46.886719 55.195312 47.101562 54.8125 C 47.320312 54.425781 47.65625 54.242188 48.078125 54.242188 C 48.777344 54.242188 49.121094 54.828125 49.121094 55.980469 L 49.121094 62.15625 L 50.632812 62.15625 L 50.632812 56.421875 C 50.632812 55.726562 50.753906 55.195312 50.96875 54.8125 C 51.1875 54.425781 51.519531 54.242188 51.941406 54.242188 C 52.640625 54.242188 52.988281 54.828125 52.988281 55.980469 L 52.988281 62.15625 L 54.5 62.15625 L 54.5 56.019531 C 54.5 54.917969 54.324219 54.082031 53.976562 53.511719 C 53.613281 52.945312 53.074219 52.65625 52.347656 52.65625 C 51.867188 52.65625 51.476562 52.796875 51.171875 53.09375 C 50.867188 53.40625 50.632812 53.75 50.445312 54.136719 C 50.375 53.953125 50.285156 53.769531 50.183594 53.589844 C 50.082031 53.421875 49.953125 53.257812 49.804688 53.113281 C 49.660156 52.980469 49.484375 52.875 49.296875 52.78125 C 49.105469 52.691406 48.878906 52.65625 48.628906 52.65625 C 48.164062 52.65625 47.785156 52.796875 47.480469 53.09375 C 47.175781 53.40625 46.929688 53.769531 46.769531 54.222656 L 46.742188 54.222656 C 46.742188 54.171875 46.742188 54.0625 46.742188 53.914062 C 46.726562 53.789062 46.726562 53.640625 46.726562 53.492188 C 46.714844 53.347656 46.714844 53.203125 46.714844 53.078125 C 46.695312 52.945312 46.695312 52.839844 46.695312 52.78125 L 45.203125 52.78125 C 45.214844 53.035156 45.230469 53.3125 45.242188 53.605469 C 45.257812 53.898438 45.257812 54.207031 45.257812 54.554688 L 45.257812 62.15625 "/>
<path style=" stroke:none;fill-rule:nonzero;fill:rgb(100%,100%,100%);fill-opacity:1;" d="M 26.941406 42.199219 C 27.664062 42.203125 28.246094 42.78125 28.265625 43.488281 C 28.28125 44.214844 27.699219 44.820312 26.953125 44.835938 C 26.195312 44.847656 25.582031 44.246094 25.582031 43.503906 C 25.585938 42.773438 26.195312 42.199219 26.941406 42.199219 "/>
<path style=" stroke:none;fill-rule:nonzero;fill:rgb(100%,100%,100%);fill-opacity:1;" d="M 53.28125 42.175781 C 54.046875 42.179688 54.625 42.839844 54.589844 43.589844 C 54.554688 44.277344 53.980469 44.8125 53.277344 44.824219 C 52.570312 44.835938 51.960938 44.308594 51.90625 43.609375 C 51.855469 42.828125 52.484375 42.167969 53.28125 42.175781 "/>
<path style=" stroke:none;fill-rule:nonzero;fill:rgb(100%,100%,100%);fill-opacity:1;" d="M 26.554688 33.457031 L 27.613281 33.457031 L 26.089844 36.722656 L 25.03125 36.722656 L 26.554688 33.457031 "/>
<path style=" stroke:none;fill-rule:nonzero;fill:rgb(100%,100%,100%);fill-opacity:1;" d="M 28.503906 33.457031 L 31.335938 33.457031 L 31.335938 36.703125 L 26.988281 36.703125 L 28.503906 33.457031 "/>
<path style=" stroke:none;fill-rule:nonzero;fill:rgb(100%,100%,100%);fill-opacity:1;" d="M 37.820312 59.46875 C 37.605469 58.613281 37.484375 57.367188 37.484375 55.78125 C 37.484375 54.1875 37.605469 52.945312 37.820312 52.070312 C 38.039062 51.195312 38.449219 50.753906 39.011719 50.753906 C 39.59375 50.753906 40.003906 51.195312 40.21875 52.050781 C 40.4375 52.929688 40.554688 54.171875 40.554688 55.78125 C 40.554688 57.367188 40.4375 58.613281 40.21875 59.46875 C 39.988281 60.347656 39.582031 60.785156 39.011719 60.785156 C 38.449219 60.785156 38.039062 60.347656 37.820312 59.46875 "/>
</g>
</svg>
