<?xml version="1.0" encoding="UTF-8"?>
<svg xmlns="http://www.w3.org/2000/svg" xmlns:xlink="http://www.w3.org/1999/xlink" width="87pt" height="86pt" viewBox="0 0 87 86" version="1.1">
<g id="surface1">
<path style=" stroke:none;fill-rule:nonzero;fill:rgb(93.527222%,17.272949%,18.882751%);fill-opacity:1;" d="M 86.039062 43.171875 C 86.039062 19.691406 67.003906 0.652344 43.519531 0.652344 C 20.035156 0.652344 1 19.691406 1 43.171875 C 1 66.65625 20.035156 85.691406 43.519531 85.691406 C 67.003906 85.691406 86.039062 66.65625 86.039062 43.171875 "/>
<path style=" stroke:none;fill-rule:nonzero;fill:rgb(100%,100%,100%);fill-opacity:1;" d="M 71.863281 43.171875 C 71.863281 27.515625 59.175781 14.828125 43.519531 14.828125 C 27.863281 14.828125 15.171875 27.515625 15.171875 43.171875 C 15.171875 58.828125 27.863281 71.519531 43.519531 71.519531 C 59.175781 71.519531 71.863281 58.828125 71.863281 43.171875 "/>
<path style=" stroke:none;fill-rule:nonzero;fill:rgb(13.729858%,12.159729%,12.548828%);fill-opacity:1;" d="M 62.652344 46.007812 L 24.386719 46.007812 C 22.824219 46.007812 21.550781 44.734375 21.550781 43.171875 C 21.550781 41.605469 22.824219 40.335938 24.386719 40.335938 L 62.652344 40.335938 C 64.21875 40.335938 65.488281 41.605469 65.488281 43.171875 C 65.488281 44.734375 64.21875 46.007812 62.652344 46.007812 "/>
<path style=" stroke:none;fill-rule:nonzero;fill:rgb(13.729858%,12.159729%,12.548828%);fill-opacity:1;" d="M 23.679688 37.074219 L 25.347656 37.074219 C 26.007812 37.074219 26.585938 36.964844 27.082031 36.722656 C 27.578125 36.496094 28.003906 36.167969 28.335938 35.722656 C 28.671875 35.285156 28.914062 34.761719 29.085938 34.132812 C 29.257812 33.507812 29.34375 32.8125 29.34375 32.03125 C 29.34375 30.949219 29.203125 30.070312 28.914062 29.386719 C 28.625 28.71875 28.257812 28.207031 27.820312 27.851562 C 27.550781 27.640625 27.242188 27.464844 26.898438 27.339844 C 26.539062 27.210938 26.113281 27.15625 25.605469 27.15625 L 23.679688 27.15625 L 23.679688 37.074219 "/>
<path style=" stroke:none;fill-rule:nonzero;fill:rgb(13.729858%,12.159729%,12.548828%);fill-opacity:1;" d="M 30.859375 35.910156 C 31.136719 36.335938 31.460938 36.648438 31.84375 36.863281 C 32.210938 37.085938 32.613281 37.1875 33.042969 37.1875 C 33.492188 37.1875 33.90625 37.085938 34.289062 36.875 C 34.667969 36.664062 34.988281 36.351562 35.269531 35.925781 C 35.542969 35.511719 35.765625 34.972656 35.925781 34.332031 C 36.074219 33.695312 36.15625 32.925781 36.15625 32.058594 C 36.15625 31.21875 36.074219 30.492188 35.925781 29.871094 C 35.765625 29.246094 35.542969 28.71875 35.269531 28.289062 C 34.988281 27.878906 34.667969 27.550781 34.300781 27.339844 C 33.917969 27.128906 33.515625 27.027344 33.089844 27.027344 C 32.640625 27.027344 32.234375 27.128906 31.855469 27.339844 C 31.472656 27.550781 31.136719 27.867188 30.859375 28.28125 C 30.585938 28.703125 30.363281 29.246094 30.21875 29.886719 C 30.054688 30.523438 29.972656 31.292969 29.972656 32.15625 C 29.972656 32.996094 30.054688 33.722656 30.21875 34.34375 C 30.363281 34.972656 30.585938 35.496094 30.859375 35.910156 "/>
<path style=" stroke:none;fill-rule:nonzero;fill:rgb(13.729858%,12.159729%,12.548828%);fill-opacity:1;" d="M 41.492188 35.699219 C 41.378906 35.769531 41.238281 35.824219 41.066406 35.867188 C 40.894531 35.910156 40.730469 35.925781 40.558594 35.925781 C 40.15625 35.925781 39.796875 35.824219 39.488281 35.640625 C 39.171875 35.453125 38.921875 35.183594 38.722656 34.847656 C 38.519531 34.503906 38.367188 34.089844 38.261719 33.59375 C 38.15625 33.109375 38.101562 32.570312 38.101562 31.972656 C 38.101562 31.417969 38.15625 30.90625 38.285156 30.453125 C 38.414062 29.996094 38.585938 29.613281 38.804688 29.289062 C 39.027344 28.972656 39.277344 28.734375 39.578125 28.550781 C 39.878906 28.378906 40.214844 28.289062 40.570312 28.289062 C 40.90625 28.289062 41.238281 28.347656 41.558594 28.449219 C 41.875 28.558594 42.171875 28.71875 42.4375 28.902344 L 42.472656 27.464844 C 42.253906 27.339844 41.976562 27.226562 41.652344 27.140625 C 41.320312 27.070312 40.953125 27.027344 40.546875 27.027344 C 39.957031 27.027344 39.441406 27.15625 38.980469 27.398438 C 38.503906 27.640625 38.113281 27.996094 37.789062 28.433594 C 37.46875 28.875 37.226562 29.414062 37.054688 30.039062 C 36.878906 30.667969 36.785156 31.347656 36.785156 32.101562 C 36.785156 32.796875 36.867188 33.46875 37.015625 34.074219 C 37.167969 34.703125 37.410156 35.242188 37.71875 35.699219 C 38.03125 36.167969 38.433594 36.523438 38.90625 36.792969 C 39.382812 37.0625 39.949219 37.1875 40.582031 37.1875 C 41.03125 37.1875 41.433594 37.128906 41.789062 37.019531 C 42.152344 36.917969 42.449219 36.804688 42.667969 36.679688 L 42.667969 31.5625 L 40.199219 31.5625 L 40.199219 32.796875 L 41.492188 32.796875 L 41.492188 35.699219 "/>
<path style=" stroke:none;fill-rule:nonzero;fill:rgb(13.729858%,12.159729%,12.548828%);fill-opacity:1;" d="M 43.230469 37.074219 L 44.472656 37.074219 L 45.085938 34.589844 L 48.003906 34.589844 L 48.613281 37.074219 L 49.90625 37.074219 L 47.289062 27.15625 L 45.925781 27.15625 L 43.230469 37.074219 "/>
<path style=" stroke:none;fill-rule:nonzero;fill:rgb(13.729858%,12.159729%,12.548828%);fill-opacity:1;" d="M 50.515625 37.074219 L 51.664062 37.074219 L 51.664062 29.144531 L 51.691406 29.144531 L 54.539062 37.074219 L 56.050781 37.074219 L 56.050781 27.15625 L 54.898438 27.15625 L 54.898438 35.144531 L 54.871094 35.144531 L 52.027344 27.15625 L 50.515625 27.15625 L 50.515625 37.074219 "/>
<path style=" stroke:none;fill-rule:nonzero;fill:rgb(13.729858%,12.159729%,12.548828%);fill-opacity:1;" d="M 56.679688 37.074219 L 57.925781 37.074219 L 58.539062 34.589844 L 61.457031 34.589844 L 62.066406 37.074219 L 63.359375 37.074219 L 60.742188 27.15625 L 59.382812 27.15625 L 56.679688 37.074219 "/>
<path style=" stroke:none;fill-rule:nonzero;fill:rgb(13.729858%,12.159729%,12.548828%);fill-opacity:1;" d="M 23.679688 59.183594 L 25.484375 59.183594 C 26.191406 59.183594 26.8125 59.070312 27.347656 58.828125 C 27.882812 58.601562 28.339844 58.273438 28.703125 57.832031 C 29.066406 57.394531 29.324219 56.867188 29.511719 56.242188 C 29.699219 55.613281 29.785156 54.917969 29.785156 54.140625 C 29.785156 53.058594 29.636719 52.175781 29.324219 51.492188 C 29.015625 50.828125 28.613281 50.316406 28.144531 49.960938 C 27.859375 49.746094 27.519531 49.574219 27.148438 49.449219 C 26.765625 49.320312 26.304688 49.265625 25.757812 49.265625 L 23.679688 49.265625 L 23.679688 59.183594 "/>
<path style=" stroke:none;fill-rule:nonzero;fill:rgb(13.729858%,12.159729%,12.548828%);fill-opacity:1;" d="M 31.425781 58.019531 C 31.722656 58.445312 32.070312 58.757812 32.480469 58.96875 C 32.882812 59.195312 33.316406 59.296875 33.777344 59.296875 C 34.261719 59.296875 34.710938 59.195312 35.121094 58.984375 C 35.53125 58.773438 35.875 58.457031 36.175781 58.03125 C 36.472656 57.621094 36.710938 57.082031 36.882812 56.4375 C 37.046875 55.800781 37.132812 55.035156 37.132812 54.167969 C 37.132812 53.328125 37.046875 52.601562 36.882812 51.976562 C 36.710938 51.351562 36.472656 50.828125 36.175781 50.398438 C 35.875 49.988281 35.53125 49.660156 35.132812 49.449219 C 34.71875 49.234375 34.285156 49.136719 33.824219 49.136719 C 33.34375 49.136719 32.90625 49.234375 32.496094 49.449219 C 32.085938 49.660156 31.722656 49.972656 31.425781 50.386719 C 31.128906 50.8125 30.890625 51.351562 30.726562 51.992188 C 30.554688 52.628906 30.46875 53.402344 30.46875 54.265625 C 30.46875 55.101562 30.554688 55.832031 30.726562 56.453125 C 30.890625 57.082031 31.128906 57.605469 31.425781 58.019531 "/>
<path style=" stroke:none;fill-rule:nonzero;fill:rgb(13.729858%,12.159729%,12.548828%);fill-opacity:1;" d="M 38.070312 49.265625 L 38.070312 55.601562 C 38.070312 56.085938 38.09375 56.496094 38.15625 56.839844 C 38.21875 57.195312 38.316406 57.523438 38.46875 57.832031 C 38.675781 58.289062 39 58.640625 39.410156 58.902344 C 39.820312 59.171875 40.320312 59.296875 40.90625 59.296875 C 41.488281 59.296875 41.984375 59.171875 42.394531 58.902344 C 42.808594 58.632812 43.128906 58.273438 43.34375 57.816406 C 43.492188 57.507812 43.585938 57.179688 43.648438 56.839844 C 43.714844 56.496094 43.738281 56.085938 43.738281 55.601562 L 43.738281 49.265625 L 42.394531 49.265625 L 42.394531 55.703125 C 42.394531 56.511719 42.273438 57.09375 42.023438 57.480469 C 41.761719 57.859375 41.390625 58.0625 40.90625 58.0625 C 39.90625 58.0625 39.410156 57.277344 39.410156 55.703125 L 39.410156 49.265625 L 38.070312 49.265625 "/>
<path style=" stroke:none;fill-rule:nonzero;fill:rgb(13.729858%,12.159729%,12.548828%);fill-opacity:1;" d="M 43.804688 59.183594 L 45.144531 59.183594 L 45.804688 56.699219 L 48.953125 56.699219 L 49.609375 59.183594 L 51.003906 59.183594 L 48.179688 49.265625 L 46.710938 49.265625 L 43.804688 59.183594 "/>
<path style=" stroke:none;fill-rule:nonzero;fill:rgb(13.729858%,12.159729%,12.548828%);fill-opacity:1;" d="M 51.65625 59.183594 L 52.90625 59.183594 L 52.90625 51.25 L 52.929688 51.25 L 56 59.183594 L 57.632812 59.183594 L 57.632812 49.265625 L 56.386719 49.265625 L 56.386719 57.253906 L 56.359375 57.253906 L 53.289062 49.265625 L 51.65625 49.265625 L 51.65625 59.183594 "/>
<path style=" stroke:none;fill-rule:nonzero;fill:rgb(13.729858%,12.159729%,12.548828%);fill-opacity:1;" d="M 58.910156 59.183594 L 63.355469 59.183594 L 63.355469 57.917969 L 60.257812 57.917969 L 60.257812 54.691406 L 63.066406 54.691406 L 63.066406 53.425781 L 60.257812 53.425781 L 60.257812 50.527344 L 63.21875 50.527344 L 63.21875 49.265625 L 58.910156 49.265625 L 58.910156 59.183594 "/>
<path style=" stroke:none;fill-rule:nonzero;fill:rgb(100%,100%,100%);fill-opacity:1;" d="M 24.925781 35.839844 L 24.925781 28.390625 L 25.480469 28.390625 C 25.925781 28.390625 26.316406 28.476562 26.640625 28.660156 C 26.964844 28.84375 27.230469 29.089844 27.4375 29.414062 C 27.636719 29.742188 27.78125 30.125 27.886719 30.566406 C 27.980469 31.007812 28.027344 31.503906 28.027344 32.03125 C 28.027344 33.210938 27.820312 34.148438 27.40625 34.816406 C 26.976562 35.496094 26.34375 35.839844 25.480469 35.839844 L 24.925781 35.839844 "/>
<path style=" stroke:none;fill-rule:nonzero;fill:rgb(100%,100%,100%);fill-opacity:1;" d="M 31.730469 34.957031 C 31.414062 34.277344 31.265625 33.339844 31.265625 32.15625 C 31.265625 31.433594 31.3125 30.820312 31.414062 30.324219 C 31.507812 29.828125 31.636719 29.414062 31.808594 29.105469 C 31.96875 28.804688 32.164062 28.574219 32.382812 28.433594 C 32.601562 28.304688 32.84375 28.234375 33.089844 28.234375 C 33.664062 28.234375 34.105469 28.574219 34.414062 29.257812 C 34.714844 29.941406 34.863281 30.878906 34.863281 32.058594 C 34.863281 32.78125 34.816406 33.394531 34.726562 33.890625 C 34.621094 34.390625 34.492188 34.800781 34.335938 35.101562 C 34.164062 35.414062 33.964844 35.640625 33.746094 35.769531 C 33.527344 35.910156 33.285156 35.980469 33.042969 35.980469 C 32.46875 35.980469 32.027344 35.640625 31.730469 34.957031 "/>
<path style=" stroke:none;fill-rule:nonzero;fill:rgb(100%,100%,100%);fill-opacity:1;" d="M 45.382812 33.351562 L 46.570312 28.558594 L 46.597656 28.558594 L 47.714844 33.351562 L 45.382812 33.351562 "/>
<path style=" stroke:none;fill-rule:nonzero;fill:rgb(100%,100%,100%);fill-opacity:1;" d="M 58.835938 33.351562 L 60.023438 28.558594 L 60.050781 28.558594 L 61.164062 33.351562 L 58.835938 33.351562 "/>
<path style=" stroke:none;fill-rule:nonzero;fill:rgb(100%,100%,100%);fill-opacity:1;" d="M 25.023438 57.949219 L 25.023438 50.5 L 25.621094 50.5 C 26.101562 50.5 26.527344 50.585938 26.875 50.769531 C 27.222656 50.953125 27.511719 51.199219 27.734375 51.523438 C 27.945312 51.847656 28.105469 52.234375 28.21875 52.671875 C 28.316406 53.117188 28.367188 53.613281 28.367188 54.140625 C 28.367188 55.320312 28.144531 56.253906 27.695312 56.925781 C 27.234375 57.605469 26.550781 57.949219 25.621094 57.949219 L 25.023438 57.949219 "/>
<path style=" stroke:none;fill-rule:nonzero;fill:rgb(100%,100%,100%);fill-opacity:1;" d="M 32.359375 57.066406 C 32.019531 56.386719 31.859375 55.445312 31.859375 54.265625 C 31.859375 53.539062 31.910156 52.929688 32.019531 52.429688 C 32.121094 51.933594 32.257812 51.523438 32.445312 51.210938 C 32.617188 50.914062 32.832031 50.683594 33.066406 50.542969 C 33.300781 50.410156 33.566406 50.34375 33.824219 50.34375 C 34.445312 50.34375 34.917969 50.683594 35.257812 51.367188 C 35.582031 52.046875 35.738281 52.984375 35.738281 54.167969 C 35.738281 54.890625 35.691406 55.503906 35.59375 56 C 35.480469 56.496094 35.34375 56.910156 35.171875 57.210938 C 34.984375 57.523438 34.769531 57.75 34.53125 57.875 C 34.300781 58.019531 34.035156 58.089844 33.777344 58.089844 C 33.15625 58.089844 32.683594 57.75 32.359375 57.066406 "/>
<path style=" stroke:none;fill-rule:nonzero;fill:rgb(100%,100%,100%);fill-opacity:1;" d="M 46.128906 55.460938 L 47.410156 50.667969 L 47.433594 50.667969 L 48.640625 55.460938 L 46.128906 55.460938 "/>
</g>
</svg>
