<?xml version="1.0" encoding="UTF-8"?>
<svg xmlns="http://www.w3.org/2000/svg" xmlns:xlink="http://www.w3.org/1999/xlink" width="87pt" height="86pt" viewBox="0 0 87 86" version="1.1">
<g id="surface1">
<path style="fill-rule:nonzero;fill:rgb(100%,100%,100%);fill-opacity:1;stroke-width:2.835;stroke-linecap:butt;stroke-linejoin:round;stroke:rgb(13.729858%,12.159729%,12.548828%);stroke-opacity:1;stroke-miterlimit:4;" d="M 435.195312 853.476562 C 669.960938 853.476562 860.390625 663.046875 860.390625 428.28125 C 860.390625 193.476562 669.960938 3.085938 435.195312 3.085938 C 200.390625 3.085938 10 193.476562 10 428.28125 C 10 663.046875 200.390625 853.476562 435.195312 853.476562 " transform="matrix(0.1,0,0,-0.1,0,86)"/>
<path style=" stroke:none;fill-rule:nonzero;fill:rgb(93.527222%,17.272949%,18.882751%);fill-opacity:1;" d="M 17.101562 74.660156 L 75.007812 16.757812 C 73.484375 14.941406 71.8125 13.265625 70 11.738281 L 12.082031 69.65625 C 13.609375 71.464844 15.289062 73.140625 17.101562 74.660156 "/>
<path style=" stroke:none;fill-rule:nonzero;fill:rgb(10.112%,40.585327%,73.280334%);fill-opacity:1;" d="M 60.625 32.140625 L 53.101562 39.664062 C 53.050781 40.039062 53.007812 40.414062 52.96875 40.789062 C 52.828125 42.136719 52.742188 43.507812 52.742188 44.859375 C 52.742188 46.320312 52.847656 48.015625 52.96875 49.476562 C 53.09375 50.964844 53.28125 52.734375 53.5625 54.203125 C 53.769531 55.234375 54.054688 56.347656 54.480469 57.320312 C 54.707031 57.847656 54.980469 58.359375 55.300781 58.828125 C 55.507812 59.125 55.78125 59.449219 56.078125 59.644531 C 56.492188 59.921875 57.007812 60.035156 57.511719 60.007812 C 57.941406 59.980469 58.359375 59.847656 58.707031 59.628906 C 59.039062 59.414062 59.320312 59.125 59.546875 58.824219 C 59.886719 58.367188 60.164062 57.828125 60.386719 57.3125 C 60.804688 56.320312 61.128906 55.257812 61.371094 54.210938 C 61.71875 52.703125 61.945312 51.097656 62.085938 49.550781 C 62.222656 48.015625 62.296875 46.46875 62.304688 44.933594 C 62.308594 43.570312 62.257812 42.203125 62.164062 40.839844 C 62.070312 39.515625 61.917969 38.179688 61.71875 36.867188 C 61.511719 35.59375 61.253906 34.324219 60.917969 33.078125 C 60.839844 32.78125 60.742188 32.460938 60.625 32.140625 "/>
<path style=" stroke:none;fill-rule:nonzero;fill:rgb(10.112%,40.585327%,73.280334%);fill-opacity:1;" d="M 22.507812 58.226562 L 20.996094 57.289062 L 18.039062 62.558594 C 18.0625 62.574219 18.09375 62.589844 18.125 62.613281 L 11.632812 69.101562 C 9.1875 66.105469 7.207031 62.804688 5.679688 59.199219 C 3.527344 54.109375 2.449219 48.777344 2.449219 43.203125 C 2.449219 37.625 3.527344 32.292969 5.679688 27.203125 C 7.761719 22.289062 10.699219 17.933594 14.488281 14.140625 C 18.28125 10.347656 22.640625 7.410156 27.550781 5.328125 C 32.644531 3.175781 37.972656 2.101562 43.550781 2.101562 C 49.128906 2.101562 54.460938 3.175781 59.550781 5.328125 C 63.148438 6.855469 66.453125 8.839844 69.453125 11.285156 L 57.316406 23.417969 C 56.566406 23.445312 55.777344 23.605469 55.058594 23.800781 C 53.046875 24.339844 51.328125 25.675781 50.074219 27.289062 C 49.023438 28.636719 48.269531 30.289062 47.75 31.894531 C 47.578125 32.402344 47.429688 32.917969 47.289062 33.449219 L 36.664062 44.074219 C 36.28125 43.695312 35.851562 43.34375 35.390625 43.066406 C 34.910156 42.761719 34.148438 42.425781 33.621094 42.203125 C 34.148438 41.917969 34.902344 41.503906 35.378906 41.164062 C 35.882812 40.820312 36.351562 40.417969 36.765625 39.980469 C 37.226562 39.484375 37.628906 38.949219 37.976562 38.371094 C 38.882812 36.859375 39.34375 35.136719 39.363281 33.390625 C 39.375 31.867188 39.058594 30.355469 38.382812 28.980469 C 37.539062 27.289062 36.210938 25.871094 34.550781 24.886719 C 32.945312 23.925781 31.09375 23.414062 29.203125 23.363281 C 27.609375 23.320312 26.035156 23.601562 24.574219 24.199219 C 22.9375 24.875 21.378906 25.945312 20.503906 27.449219 C 20.386719 27.65625 20.230469 27.972656 20.121094 28.195312 L 24.585938 32.300781 C 24.695312 32.089844 24.859375 31.796875 24.988281 31.59375 C 25.4375 30.882812 26.058594 30.199219 26.8125 29.796875 C 27.695312 29.339844 28.753906 29.253906 29.75 29.398438 C 30.5 29.519531 31.253906 29.789062 31.824219 30.261719 C 32.617188 30.933594 33.019531 31.933594 33.089844 32.929688 C 33.15625 33.886719 32.890625 34.832031 32.433594 35.671875 C 32.042969 36.398438 31.496094 37.054688 30.796875 37.542969 C 30.054688 38.066406 29.039062 38.390625 28.132812 38.589844 C 27.359375 38.769531 26.5625 38.894531 25.765625 38.960938 C 25.570312 38.96875 25.304688 38.988281 25.121094 39 L 25.132812 45.34375 C 25.296875 45.375 25.527344 45.410156 25.6875 45.441406 C 26.472656 45.566406 27.304688 45.796875 28.066406 46.039062 C 28.734375 46.246094 29.476562 46.53125 30.085938 46.859375 C 30.90625 47.285156 31.628906 47.839844 32.246094 48.488281 L 22.507812 58.226562 "/>
<path style=" stroke:none;fill-rule:nonzero;fill:rgb(10.112%,40.585327%,73.280334%);fill-opacity:1;" d="M 26.902344 65.863281 C 27.25 65.878906 27.597656 65.878906 27.949219 65.867188 C 29.8125 65.816406 31.644531 65.386719 33.328125 64.605469 C 34.964844 63.851562 36.414062 62.78125 37.585938 61.445312 C 38.511719 60.394531 39.253906 59.199219 39.769531 57.917969 C 40.367188 56.445312 40.675781 54.894531 40.683594 53.316406 C 40.6875 52.921875 40.675781 52.523438 40.640625 52.125 L 46.058594 46.707031 C 46.070312 46.925781 46.089844 47.148438 46.101562 47.363281 C 46.234375 49.121094 46.421875 50.988281 46.710938 52.730469 C 47.042969 54.726562 47.542969 56.738281 48.269531 58.632812 C 49.03125 60.609375 50.230469 62.796875 51.953125 64.101562 C 53.546875 65.316406 55.558594 65.910156 57.589844 65.835938 C 59.742188 65.765625 61.796875 64.945312 63.375 63.542969 C 64.792969 62.292969 65.820312 60.421875 66.527344 58.699219 C 67.308594 56.785156 67.855469 54.726562 68.238281 52.699219 C 68.574219 50.929688 68.804688 49.140625 68.933594 47.34375 C 69.070312 45.417969 69.09375 43.488281 69.03125 41.570312 C 68.96875 39.90625 68.835938 38.195312 68.585938 36.546875 C 68.335938 34.945312 67.96875 33.347656 67.433594 31.8125 C 66.921875 30.3125 66.207031 28.804688 65.253906 27.515625 L 75.46875 17.300781 C 77.914062 20.296875 79.898438 23.597656 81.421875 27.203125 C 83.578125 32.292969 84.652344 37.625 84.652344 43.203125 C 84.652344 48.777344 83.578125 54.109375 81.421875 59.199219 C 79.34375 64.113281 76.40625 68.46875 72.613281 72.265625 C 68.820312 76.054688 64.464844 78.992188 59.550781 81.074219 C 54.460938 83.226562 49.128906 84.300781 43.550781 84.300781 C 37.972656 84.300781 32.644531 83.226562 27.550781 81.074219 C 23.949219 79.546875 20.648438 77.5625 17.648438 75.117188 L 26.902344 65.863281 "/>
</g>
</svg>
