<?xml version="1.0" encoding="UTF-8"?>
<svg xmlns="http://www.w3.org/2000/svg" xmlns:xlink="http://www.w3.org/1999/xlink" width="73pt" height="100pt" viewBox="0 0 73 100" version="1.1">
<g id="surface1">
<path style=" stroke:none;fill-rule:nonzero;fill:rgb(100%,100%,100%);fill-opacity:1;" d="M 1.085938 99.78125 L 71.953125 99.78125 L 71.953125 0.566406 L 1.085938 0.566406 Z M 1.085938 99.78125 "/>
<path style="fill:none;stroke-width:2.835;stroke-linecap:butt;stroke-linejoin:miter;stroke:rgb(13.729858%,12.159729%,12.548828%);stroke-opacity:1;stroke-miterlimit:4;" d="M 10.859375 2.1875 L 719.53125 2.1875 L 719.53125 994.335938 L 10.859375 994.335938 L 10.859375 2.1875 " transform="matrix(0.1,0,0,-0.1,0,100)"/>
<path style=" stroke:none;fill-rule:nonzero;fill:rgb(13.729858%,12.159729%,12.548828%);fill-opacity:1;" d="M 2.503906 95.527344 L 2.503906 4.820312 C 2.503906 4.035156 2.78125 3.367188 3.332031 2.816406 C 3.886719 2.261719 4.554688 1.984375 5.335938 1.984375 L 67.699219 1.984375 C 68.480469 1.984375 69.152344 2.261719 69.703125 2.816406 C 70.257812 3.367188 70.535156 4.035156 70.535156 4.820312 L 70.535156 95.527344 C 70.535156 96.308594 70.257812 96.976562 69.703125 97.53125 C 69.152344 98.085938 68.480469 98.363281 67.699219 98.363281 L 5.335938 98.363281 C 4.554688 98.363281 3.886719 98.085938 3.332031 97.53125 C 2.78125 96.976562 2.503906 96.308594 2.503906 95.527344 "/>
<path style=" stroke:none;fill-rule:nonzero;fill:rgb(100%,100%,100%);fill-opacity:1;" d="M 3.921875 95.527344 L 3.921875 4.820312 C 3.921875 4.425781 4.058594 4.09375 4.335938 3.816406 C 4.613281 3.539062 4.945312 3.402344 5.335938 3.402344 L 67.699219 3.402344 C 68.089844 3.402344 68.425781 3.539062 68.703125 3.816406 C 68.976562 4.09375 69.117188 4.425781 69.117188 4.820312 L 69.117188 95.527344 C 69.117188 95.917969 68.976562 96.25 68.703125 96.53125 C 68.425781 96.804688 68.089844 96.945312 67.699219 96.945312 L 5.335938 96.945312 C 4.945312 96.945312 4.613281 96.804688 4.335938 96.53125 C 4.058594 96.25 3.921875 95.917969 3.921875 95.527344 "/>
<path style=" stroke:none;fill-rule:nonzero;fill:rgb(13.729858%,12.159729%,12.548828%);fill-opacity:1;" d="M 21.550781 18.28125 L 27.410156 18.28125 L 27.410156 17.019531 L 23.273438 17.019531 L 27.335938 9.65625 L 27.335938 8.363281 L 21.675781 8.363281 L 21.675781 9.628906 L 25.53125 9.628906 L 21.550781 16.894531 L 21.550781 18.28125 "/>
<path style=" stroke:none;fill-rule:nonzero;fill:rgb(13.729858%,12.159729%,12.548828%);fill-opacity:1;" d="M 29.386719 17.121094 C 29.726562 17.542969 30.125 17.855469 30.59375 18.070312 C 31.046875 18.292969 31.546875 18.394531 32.070312 18.394531 C 32.625 18.394531 33.136719 18.292969 33.609375 18.085938 C 34.078125 17.871094 34.472656 17.558594 34.8125 17.132812 C 35.15625 16.71875 35.425781 16.179688 35.625 15.539062 C 35.8125 14.902344 35.910156 14.136719 35.910156 13.269531 C 35.910156 12.429688 35.8125 11.703125 35.625 11.078125 C 35.425781 10.453125 35.15625 9.925781 34.8125 9.496094 C 34.472656 9.089844 34.078125 8.761719 33.621094 8.546875 C 33.152344 8.335938 32.65625 8.234375 32.128906 8.234375 C 31.574219 8.234375 31.078125 8.335938 30.605469 8.546875 C 30.136719 8.761719 29.726562 9.074219 29.386719 9.488281 C 29.042969 9.910156 28.773438 10.453125 28.589844 11.09375 C 28.390625 11.730469 28.289062 12.5 28.289062 13.363281 C 28.289062 14.203125 28.390625 14.929688 28.589844 15.554688 C 28.773438 16.179688 29.042969 16.707031 29.386719 17.121094 "/>
<path style=" stroke:none;fill-rule:nonzero;fill:rgb(13.729858%,12.159729%,12.548828%);fill-opacity:1;" d="M 37.519531 18.28125 L 38.941406 18.28125 L 38.941406 10.351562 L 38.96875 10.351562 L 42.476562 18.28125 L 44.339844 18.28125 L 44.339844 8.363281 L 42.917969 8.363281 L 42.917969 16.351562 L 42.890625 16.351562 L 39.378906 8.363281 L 37.519531 8.363281 L 37.519531 18.28125 "/>
<path style=" stroke:none;fill-rule:nonzero;fill:rgb(13.729858%,12.159729%,12.548828%);fill-opacity:1;" d="M 46.410156 18.28125 L 51.480469 18.28125 L 51.480469 17.019531 L 47.945312 17.019531 L 47.945312 13.792969 L 51.15625 13.792969 L 51.15625 12.527344 L 47.945312 12.527344 L 47.945312 9.628906 L 51.328125 9.628906 L 51.328125 8.363281 L 46.410156 8.363281 L 46.410156 18.28125 "/>
<path style=" stroke:none;fill-rule:nonzero;fill:rgb(100%,100%,100%);fill-opacity:1;" d="M 30.453125 16.164062 C 30.066406 15.484375 29.882812 14.546875 29.882812 13.363281 C 29.882812 12.640625 29.941406 12.03125 30.066406 11.53125 C 30.179688 11.035156 30.335938 10.621094 30.550781 10.3125 C 30.75 10.011719 30.992188 9.78125 31.261719 9.640625 C 31.53125 9.511719 31.828125 9.445312 32.128906 9.445312 C 32.839844 9.445312 33.378906 9.78125 33.761719 10.46875 C 34.132812 11.148438 34.316406 12.085938 34.316406 13.269531 C 34.316406 13.992188 34.261719 14.601562 34.148438 15.101562 C 34.019531 15.597656 33.863281 16.011719 33.660156 16.308594 C 33.449219 16.621094 33.207031 16.847656 32.9375 16.976562 C 32.667969 17.121094 32.371094 17.1875 32.070312 17.1875 C 31.363281 17.1875 30.820312 16.847656 30.453125 16.164062 "/>
<path style=" stroke:none;fill-rule:nonzero;fill:rgb(10.112%,40.585327%,73.280334%);fill-opacity:1;" d="M 36.519531 21.824219 C 52.175781 21.824219 64.867188 34.515625 64.867188 50.171875 C 64.867188 65.824219 52.175781 78.519531 36.519531 78.519531 C 20.867188 78.519531 8.175781 65.824219 8.175781 50.171875 C 8.175781 34.515625 20.867188 21.824219 36.519531 21.824219 "/>
<path style=" stroke:none;fill-rule:nonzero;fill:rgb(100%,100%,100%);fill-opacity:1;" d="M 27.257812 58.273438 L 29.785156 58.257812 L 29.789062 66.617188 C 29.769531 67.300781 29.21875 67.84375 28.535156 67.851562 C 27.824219 67.859375 27.242188 67.285156 27.25 66.574219 L 27.257812 58.273438 "/>
<path style=" stroke:none;fill-rule:nonzero;fill:rgb(100%,100%,100%);fill-opacity:1;" d="M 30.523438 58.273438 L 33.058594 58.265625 L 33.054688 68.898438 C 33.054688 69.59375 32.503906 70.15625 31.808594 70.164062 C 31.109375 70.179688 30.53125 69.613281 30.523438 68.910156 L 30.523438 58.273438 "/>
<path style=" stroke:none;fill-rule:nonzero;fill:rgb(100%,100%,100%);fill-opacity:1;" d="M 37.988281 57.863281 C 38.007812 55.296875 37.382812 52.757812 36.164062 50.492188 C 35.246094 48.777344 34.003906 47.253906 32.515625 46 L 32.515625 41.800781 C 32.503906 41.632812 32.597656 41.476562 32.753906 41.410156 C 32.953125 41.324219 33.1875 41.417969 33.273438 41.617188 L 37.128906 49.328125 C 37.089844 49.597656 37.105469 49.875 37.179688 50.140625 C 37.269531 50.460938 37.4375 50.75 37.667969 50.988281 L 42.046875 56.222656 L 40.878906 69.550781 C 40.824219 70.140625 41.246094 70.671875 41.839844 70.742188 C 42.429688 70.816406 42.96875 70.410156 43.058594 69.824219 L 43.601562 63.238281 L 44.910156 63.222656 L 45.453125 69.230469 C 45.515625 69.855469 46.089844 70.296875 46.707031 70.199219 C 47.277344 70.101562 47.675781 69.585938 47.617188 69.011719 L 47.054688 63.253906 L 48.566406 63.246094 L 47.699219 57.546875 L 51.078125 61.625 C 51.46875 61.289062 51.738281 60.824219 51.828125 60.308594 C 51.929688 59.742188 51.808594 59.160156 51.492188 58.679688 L 46.410156 52.695312 C 45.519531 53.234375 44.449219 53.417969 43.421875 53.203125 C 42.757812 53.066406 42.140625 52.769531 41.621094 52.332031 L 39.039062 49.304688 C 39.175781 49.15625 39.273438 48.972656 39.328125 48.773438 C 39.398438 48.476562 39.359375 48.160156 39.210938 47.894531 L 35.523438 40.53125 C 34.480469 38.585938 32.433594 37.386719 30.222656 37.421875 C 27.183594 37.46875 24.683594 39.8125 24.425781 42.835938 L 24.464844 47.707031 C 24.472656 48.011719 24.589844 48.308594 24.792969 48.535156 C 24.902344 48.660156 25.027344 48.761719 25.167969 48.832031 C 24.304688 50.070312 23.628906 51.417969 23.148438 52.84375 C 22.609375 54.441406 22.335938 56.117188 22.328125 57.800781 L 37.988281 57.863281 "/>
<path style=" stroke:none;fill-rule:nonzero;fill:rgb(100%,100%,100%);fill-opacity:1;" d="M 43.46875 51.863281 C 45.519531 52.441406 47.464844 50.652344 47.0625 48.558594 C 46.679688 46.5625 44.398438 45.582031 42.6875 46.683594 C 42.21875 46.984375 41.855469 47.402344 41.621094 47.914062 C 41.394531 48.421875 41.316406 48.972656 41.398438 49.527344 C 41.480469 50.078125 41.714844 50.582031 42.089844 51.003906 C 42.457031 51.417969 42.925781 51.714844 43.46875 51.863281 "/>
<path style=" stroke:none;fill-rule:nonzero;fill:rgb(100%,100%,100%);fill-opacity:1;" d="M 30.191406 36.097656 C 32.410156 36.058594 33.921875 33.84375 33.160156 31.761719 C 32.363281 29.589844 29.605469 28.941406 27.921875 30.523438 C 27.441406 30.976562 27.121094 31.539062 26.980469 32.183594 C 26.839844 32.832031 26.894531 33.476562 27.144531 34.089844 C 27.394531 34.699219 27.804688 35.203125 28.355469 35.566406 C 28.90625 35.929688 29.53125 36.109375 30.191406 36.097656 "/>
<path style=" stroke:none;fill-rule:nonzero;fill:rgb(10.112%,40.585327%,73.280334%);fill-opacity:1;" d="M 26.902344 46.785156 L 26.902344 41.785156 C 26.914062 41.53125 27.136719 41.34375 27.390625 41.367188 C 27.609375 41.394531 27.78125 41.574219 27.789062 41.796875 L 27.800781 46.023438 C 27.664062 46.089844 27.527344 46.175781 27.402344 46.269531 C 27.210938 46.414062 27.039062 46.589844 26.902344 46.785156 "/>
</g>
</svg>
