<?xml version="1.0" encoding="UTF-8"?>
<svg xmlns="http://www.w3.org/2000/svg" xmlns:xlink="http://www.w3.org/1999/xlink" width="87pt" height="86pt" viewBox="0 0 87 86" version="1.1">
<g id="surface1">
<path style="fill-rule:nonzero;fill:rgb(100%,100%,100%);fill-opacity:1;stroke-width:2.835;stroke-linecap:butt;stroke-linejoin:round;stroke:rgb(13.729858%,12.159729%,12.548828%);stroke-opacity:1;stroke-miterlimit:4;" d="M 435.195312 853.476562 C 200.390625 853.476562 10 663.046875 10 428.28125 C 10 193.476562 200.390625 3.085938 435.195312 3.085938 C 669.960938 3.085938 860.390625 193.476562 860.390625 428.28125 C 860.390625 663.046875 669.960938 853.476562 435.195312 853.476562 " transform="matrix(0.1,0,0,-0.1,0,86)"/>
<path style=" stroke:none;fill-rule:nonzero;fill:rgb(10.112%,40.585327%,73.280334%);fill-opacity:1;" d="M 43.523438 2.066406 C 20.824219 2.066406 2.417969 20.472656 2.417969 43.167969 C 2.417969 65.867188 20.824219 84.273438 43.523438 84.273438 C 66.21875 84.273438 84.628906 65.867188 84.628906 43.167969 C 84.628906 20.472656 66.21875 2.066406 43.523438 2.066406 "/>
<path style=" stroke:none;fill-rule:nonzero;fill:rgb(100%,100%,100%);fill-opacity:1;" d="M 32.324219 23.351562 L 36.828125 21.914062 L 38.871094 23.082031 L 37.960938 24.347656 L 36.542969 23.785156 L 33.667969 24.609375 L 33.078125 26.035156 L 36.464844 26.085938 L 34.496094 29.34375 L 55.464844 29.378906 L 56.460938 27.550781 C 55.816406 27.578125 54.542969 27.402344 53.945312 27.109375 C 53.503906 26.898438 53.09375 26.296875 53.394531 25.898438 C 53.503906 25.753906 53.75 25.683594 53.929688 25.660156 C 54.113281 25.628906 55 25.640625 55.1875 25.640625 C 56.023438 25.652344 58.117188 25.390625 58.929688 25.226562 L 60.621094 24.832031 C 60.925781 24.777344 61.328125 24.734375 61.617188 24.84375 C 61.890625 24.941406 62.136719 25.148438 62.226562 25.429688 C 62.308594 25.671875 62.242188 25.964844 62.140625 26.203125 C 62.027344 26.46875 61.558594 27.003906 60.101562 27.324219 L 58.324219 27.472656 L 57.1875 29.460938 L 60.480469 36.441406 C 62.140625 35.78125 64.136719 35.441406 65.898438 35.675781 C 68.625 36.042969 71.140625 37.34375 73.015625 39.382812 C 74.921875 41.457031 76.046875 44.148438 76.117188 46.984375 C 76.183594 50.035156 75.035156 52.980469 72.960938 55.1875 C 70.800781 57.472656 67.8125 58.746094 64.703125 58.757812 C 61.820312 58.769531 59.027344 57.703125 56.917969 55.714844 C 55.890625 54.746094 55.066406 53.566406 54.46875 52.285156 C 53.964844 51.203125 53.613281 50.054688 53.457031 48.871094 C 53.414062 48.507812 53.371094 47.988281 53.34375 47.628906 L 49.1875 47.601562 C 49.054688 47.964844 48.902344 48.339844 48.683594 48.664062 C 48.460938 48.988281 48.1875 49.285156 47.855469 49.492188 C 47.730469 49.570312 47.539062 49.671875 47.40625 49.730469 L 47.855469 51.441406 L 48.78125 51.21875 L 48.953125 51.953125 L 46.507812 52.628906 L 46.277344 51.898438 L 47.128906 51.636719 L 46.707031 49.972656 C 45.425781 50.203125 44.066406 49.804688 43.21875 48.816406 C 42.429688 47.894531 42.140625 46.632812 42.496094 45.464844 C 42.527344 45.382812 42.570312 45.25 42.601562 45.167969 L 30.617188 35.824219 L 29.34375 37.6875 C 32.167969 39.953125 34.203125 43.417969 34.003906 47.039062 C 33.65625 53.507812 28.53125 58.777344 22.148438 58.621094 C 15.894531 58.472656 11.171875 53.023438 10.929688 46.667969 C 10.785156 42.949219 12.6875 39.480469 15.71875 37.382812 C 19.265625 34.941406 24.019531 34.699219 27.851562 36.644531 L 33.511719 27.65625 L 30.421875 27.550781 L 32.324219 23.351562 "/>
<path style=" stroke:none;fill-rule:nonzero;fill:rgb(10.112%,40.585327%,73.280334%);fill-opacity:1;" d="M 23.382812 47.03125 L 28.4375 39.039062 C 30.933594 40.960938 32.34375 43.800781 32.195312 46.839844 C 31.933594 52.253906 27.871094 56.859375 22.535156 56.921875 C 17.089844 56.984375 12.804688 52.398438 12.539062 46.882812 C 12.382812 43.648438 14.03125 40.625 16.644531 38.777344 C 18.515625 37.460938 20.800781 36.894531 23.078125 36.960938 C 24.40625 37.003906 25.910156 37.378906 27.011719 38.109375 L 21.859375 46.210938 C 21.851562 46.234375 21.519531 46.75 21.515625 46.78125 C 21.441406 47.113281 21.585938 47.464844 21.859375 47.660156 C 22.222656 47.921875 22.707031 47.894531 23.039062 47.605469 L 23.382812 47.03125 "/>
<path style=" stroke:none;fill-rule:nonzero;fill:rgb(10.112%,40.585327%,73.280334%);fill-opacity:1;" d="M 64.785156 45.039062 L 61.246094 37.816406 C 64.21875 36.871094 67.492188 37.210938 70.089844 38.910156 C 72.84375 40.710938 74.652344 43.769531 74.542969 47.097656 C 74.371094 52.535156 70.292969 57.167969 64.929688 57.292969 C 59.820312 57.40625 55.578125 53.4375 54.871094 48.296875 C 54.851562 48.136719 54.828125 47.910156 54.808594 47.753906 L 62.574219 47.652344 C 62.902344 48.617188 63.804688 49.449219 64.8125 49.355469 C 65.890625 49.265625 66.722656 48.375 66.769531 47.277344 C 66.808594 46.144531 65.925781 45.148438 64.785156 45.039062 "/>
<path style=" stroke:none;fill-rule:nonzero;fill:rgb(10.112%,40.585327%,73.280334%);fill-opacity:1;" d="M 33.449219 31.132812 L 54.300781 31.164062 L 47.21875 43.34375 C 47.34375 43.125 45.671875 42.773438 45.730469 43.027344 L 45.484375 41.929688 L 46.265625 41.695312 L 46.066406 41.039062 L 43.6875 41.660156 L 43.867188 42.339844 L 44.652344 42.140625 L 44.902344 43.117188 C 44.484375 43.246094 43.914062 43.566406 43.605469 43.878906 L 31.394531 34.492188 L 33.449219 31.132812 "/>
<path style=" stroke:none;fill-rule:nonzero;fill:rgb(10.112%,40.585327%,73.280334%);fill-opacity:1;" d="M 56.179688 31.265625 L 59.074219 37.171875 C 55.890625 38.792969 53.902344 42.5 53.320312 46.097656 L 49.367188 46.148438 C 49.304688 45.796875 49.171875 45.367188 49.007812 45.042969 C 48.855469 44.757812 48.632812 44.433594 48.40625 44.207031 L 56.179688 31.265625 "/>
<path style=" stroke:none;fill-rule:nonzero;fill:rgb(10.112%,40.585327%,73.280334%);fill-opacity:1;" d="M 59.855469 38.496094 L 63.269531 45.507812 C 63.128906 45.632812 62.960938 45.84375 62.871094 46.007812 L 54.925781 46.09375 C 55.015625 42.972656 57.253906 40.089844 59.855469 38.496094 "/>
<path style=" stroke:none;fill-rule:nonzero;fill:rgb(10.112%,40.585327%,73.280334%);fill-opacity:1;" d="M 43.394531 45.839844 L 46.128906 47.765625 L 46.460938 48.988281 C 44.859375 49.335938 43.363281 48.03125 43.34375 46.375 C 43.34375 46.21875 43.371094 45.996094 43.394531 45.839844 "/>
<path style=" stroke:none;fill-rule:nonzero;fill:rgb(10.112%,40.585327%,73.280334%);fill-opacity:1;" d="M 44.308594 44.535156 C 44.546875 44.347656 44.875 44.160156 45.164062 44.097656 L 45.5 45.425781 L 44.308594 44.535156 "/>
<path style=" stroke:none;fill-rule:nonzero;fill:rgb(10.112%,40.585327%,73.280334%);fill-opacity:1;" d="M 46.15625 44.828125 L 45.929688 44.035156 C 46.132812 43.996094 46.410156 44.050781 46.605469 44.085938 L 46.15625 44.828125 "/>
<path style=" stroke:none;fill-rule:nonzero;fill:rgb(10.112%,40.585327%,73.280334%);fill-opacity:1;" d="M 47.222656 46.003906 L 47.875 44.917969 C 47.851562 44.949219 48.347656 45.691406 48.40625 46.011719 L 47.222656 46.003906 "/>
<path style=" stroke:none;fill-rule:nonzero;fill:rgb(10.112%,40.585327%,73.280334%);fill-opacity:1;" d="M 46.917969 47.71875 L 48.242188 47.710938 C 48.078125 47.996094 47.84375 48.324219 47.59375 48.550781 C 47.496094 48.636719 47.34375 48.761719 47.238281 48.84375 L 46.917969 47.71875 "/>
</g>
</svg>
