<?xml version="1.0" encoding="UTF-8"?>
<svg xmlns="http://www.w3.org/2000/svg" xmlns:xlink="http://www.w3.org/1999/xlink" width="87pt" height="86pt" viewBox="0 0 87 86" version="1.1">
<g id="surface1">
<path style="fill-rule:nonzero;fill:rgb(100%,100%,100%);fill-opacity:1;stroke-width:2.835;stroke-linecap:butt;stroke-linejoin:round;stroke:rgb(13.729858%,12.159729%,12.548828%);stroke-opacity:1;stroke-miterlimit:4;" d="M 259.0625 3.085938 L 611.289062 3.085938 L 860.390625 252.148438 L 860.390625 604.375 L 611.289062 853.476562 L 259.0625 853.476562 L 10 604.375 L 10 252.148438 L 259.0625 3.085938 " transform="matrix(0.1,0,0,-0.1,0,86)"/>
<path style=" stroke:none;fill-rule:nonzero;fill:rgb(93.527222%,17.272949%,18.882751%);fill-opacity:1;" d="M 27.273438 82.390625 L 59.765625 82.390625 L 82.734375 59.417969 L 82.734375 26.925781 L 59.765625 3.957031 L 27.273438 3.957031 L 4.300781 26.925781 L 4.300781 59.417969 L 27.273438 82.390625 "/>
<path style=" stroke:none;fill-rule:nonzero;fill:rgb(100%,100%,100%);fill-opacity:1;" d="M 12.933594 54.8125 C 13.546875 55.167969 14.296875 55.414062 15.1875 55.625 C 16.078125 55.804688 17.066406 55.875 18.15625 55.875 C 20.445312 55.875 22.289062 55.238281 23.621094 53.957031 C 24.953125 52.679688 25.605469 50.90625 25.605469 48.628906 C 25.605469 47.566406 25.46875 46.640625 25.160156 45.894531 C 24.851562 45.148438 24.410156 44.472656 23.894531 43.902344 C 23.382812 43.335938 22.769531 42.800781 22.050781 42.339844 C 21.335938 41.878906 20.582031 41.414062 19.796875 40.957031 C 19.21875 40.597656 18.703125 40.277344 18.292969 39.957031 C 17.851562 39.640625 17.507812 39.355469 17.269531 39.035156 C 16.996094 38.753906 16.792969 38.429688 16.6875 38.074219 C 16.585938 37.753906 16.519531 37.367188 16.519531 36.9375 C 16.519531 35.980469 16.824219 35.164062 17.441406 34.558594 C 18.054688 33.953125 18.910156 33.632812 20.035156 33.632812 C 20.890625 33.632812 21.710938 33.742188 22.425781 33.953125 C 23.148438 34.203125 23.757812 34.449219 24.304688 34.734375 L 24.410156 31.324219 C 23.964844 31.144531 23.316406 30.933594 22.53125 30.757812 C 21.710938 30.582031 20.789062 30.472656 19.761719 30.472656 C 18.808594 30.472656 17.917969 30.613281 17.066406 30.859375 C 16.214844 31.144531 15.460938 31.574219 14.8125 32.105469 C 14.160156 32.675781 13.648438 33.347656 13.277344 34.164062 C 12.898438 34.984375 12.695312 35.90625 12.695312 36.972656 C 12.695312 38.074219 12.828125 38.964844 13.136719 39.710938 C 13.445312 40.457031 13.855469 41.132812 14.367188 41.664062 C 14.882812 42.234375 15.460938 42.730469 16.175781 43.160156 C 16.859375 43.617188 17.613281 44.082031 18.398438 44.582031 C 19.046875 44.96875 19.59375 45.363281 20.035156 45.683594 C 20.480469 46.035156 20.820312 46.390625 21.09375 46.710938 C 21.335938 47.03125 21.539062 47.386719 21.640625 47.742188 C 21.746094 48.132812 21.777344 48.523438 21.777344 48.988281 C 21.777344 50.121094 21.402344 51.011719 20.683594 51.6875 C 19.96875 52.359375 19.015625 52.71875 17.851562 52.71875 C 16.894531 52.71875 16.007812 52.539062 15.15625 52.183594 C 14.296875 51.863281 13.617188 51.507812 13.070312 51.15625 L 12.933594 54.8125 "/>
<path style=" stroke:none;fill-rule:nonzero;fill:rgb(100%,100%,100%);fill-opacity:1;" d="M 31.511719 55.59375 L 35.199219 55.59375 L 35.199219 33.953125 L 40.5625 33.953125 L 40.5625 30.792969 L 26.117188 30.792969 L 26.117188 33.953125 L 31.511719 33.953125 L 31.511719 55.59375 "/>
<path style=" stroke:none;fill-rule:nonzero;fill:rgb(100%,100%,100%);fill-opacity:1;" d="M 42.609375 52.679688 C 43.429688 53.746094 44.382812 54.527344 45.511719 55.058594 C 46.601562 55.625 47.796875 55.875 49.0625 55.875 C 50.394531 55.875 51.621094 55.625 52.75 55.09375 C 53.875 54.5625 54.835938 53.78125 55.65625 52.71875 C 56.472656 51.6875 57.117188 50.335938 57.597656 48.734375 C 58.042969 47.136719 58.28125 45.21875 58.28125 43.050781 C 58.28125 40.957031 58.042969 39.140625 57.597656 37.578125 C 57.117188 36.015625 56.472656 34.703125 55.65625 33.632812 C 54.835938 32.601562 53.875 31.785156 52.785156 31.253906 C 51.65625 30.71875 50.460938 30.472656 49.195312 30.472656 C 47.863281 30.472656 46.667969 30.71875 45.542969 31.253906 C 44.414062 31.785156 43.429688 32.566406 42.609375 33.601562 C 41.789062 34.664062 41.144531 36.015625 40.695312 37.613281 C 40.21875 39.214844 39.980469 41.132812 39.980469 43.296875 C 39.980469 45.398438 40.21875 47.207031 40.695312 48.769531 C 41.144531 50.335938 41.789062 51.652344 42.609375 52.679688 "/>
<path style=" stroke:none;fill-rule:nonzero;fill:rgb(100%,100%,100%);fill-opacity:1;" d="M 60.816406 55.59375 L 64.503906 55.59375 L 64.503906 45.539062 L 66.722656 45.539062 C 69.21875 45.539062 71.132812 44.898438 72.425781 43.582031 C 73.691406 42.304688 74.34375 40.457031 74.34375 38.074219 C 74.34375 35.695312 73.691406 33.882812 72.394531 32.640625 C 71.09375 31.398438 69.320312 30.792969 67.097656 30.792969 L 60.816406 30.792969 L 60.816406 55.59375 "/>
<path style=" stroke:none;fill-rule:nonzero;fill:rgb(93.527222%,17.272949%,18.882751%);fill-opacity:1;" d="M 45.167969 50.300781 C 44.246094 48.59375 43.804688 46.25 43.804688 43.296875 C 43.804688 41.488281 43.9375 39.957031 44.246094 38.714844 C 44.519531 37.46875 44.894531 36.441406 45.40625 35.660156 C 45.882812 34.914062 46.464844 34.34375 47.113281 33.988281 C 47.765625 33.667969 48.480469 33.492188 49.195312 33.492188 C 50.90625 33.492188 52.203125 34.34375 53.125 36.050781 C 54.011719 37.753906 54.457031 40.101562 54.457031 43.050781 C 54.457031 44.863281 54.324219 46.390625 54.046875 47.632812 C 53.738281 48.878906 53.363281 49.90625 52.886719 50.652344 C 52.375 51.4375 51.792969 52.007812 51.144531 52.324219 C 50.496094 52.679688 49.78125 52.855469 49.0625 52.855469 C 47.351562 52.855469 46.054688 52.007812 45.167969 50.300781 "/>
<path style=" stroke:none;fill-rule:nonzero;fill:rgb(93.527222%,17.272949%,18.882751%);fill-opacity:1;" d="M 64.503906 42.519531 L 64.503906 33.8125 L 66.175781 33.8125 C 67.644531 33.8125 68.738281 34.164062 69.492188 34.84375 C 70.210938 35.550781 70.585938 36.691406 70.585938 38.21875 C 70.585938 39.605469 70.242188 40.636719 69.5625 41.378906 C 68.878906 42.125 67.75 42.519531 66.144531 42.519531 L 64.503906 42.519531 "/>
</g>
</svg>
