<?xml version="1.0" encoding="UTF-8"?>
<svg xmlns="http://www.w3.org/2000/svg" xmlns:xlink="http://www.w3.org/1999/xlink" width="73pt" height="100pt" viewBox="0 0 73 100" version="1.1">
<g id="surface1">
<path style=" stroke:none;fill-rule:nonzero;fill:rgb(100%,100%,100%);fill-opacity:1;" d="M 1.082031 99.78125 L 71.953125 99.78125 L 71.953125 0.566406 L 1.082031 0.566406 Z M 1.082031 99.78125 "/>
<path style="fill:none;stroke-width:2.835;stroke-linecap:butt;stroke-linejoin:miter;stroke:rgb(13.729858%,12.159729%,12.548828%);stroke-opacity:1;stroke-miterlimit:4;" d="M 10.820312 2.1875 L 719.53125 2.1875 L 719.53125 994.335938 L 10.820312 994.335938 L 10.820312 2.1875 " transform="matrix(0.1,0,0,-0.1,0,100)"/>
<path style=" stroke:none;fill-rule:nonzero;fill:rgb(10.112%,40.585327%,73.280334%);fill-opacity:1;" d="M 2.5 70.019531 L 70.53125 70.019531 L 70.53125 1.988281 L 2.5 1.988281 Z M 2.5 70.019531 "/>
<path style=" stroke:none;fill-rule:nonzero;fill:rgb(100%,100%,100%);fill-opacity:1;" d="M 30.53125 62.222656 L 33.152344 25.546875 L 25.140625 27.425781 C 24.828125 27.492188 24.507812 27.386719 24.3125 27.140625 C 24.074219 26.855469 24.050781 26.445312 24.253906 26.132812 L 35.546875 8.90625 C 35.761719 8.574219 36.125 8.371094 36.523438 8.363281 C 36.933594 8.355469 37.320312 8.558594 37.546875 8.910156 L 48.777344 26.175781 C 48.972656 26.46875 48.964844 26.855469 48.753906 27.140625 C 48.558594 27.417969 48.21875 27.546875 47.890625 27.472656 L 39.785156 25.628906 L 42.210938 62.210938 L 30.53125 62.222656 "/>
<path style=" stroke:none;fill-rule:nonzero;fill:rgb(93.527222%,17.272949%,18.882751%);fill-opacity:1;" d="M 7.554688 96.238281 C 7.277344 96.238281 7.019531 96.097656 6.875 95.863281 C 6.71875 95.609375 6.714844 95.296875 6.863281 95.042969 L 19.542969 73.246094 C 19.675781 73.015625 19.925781 72.867188 20.191406 72.859375 C 20.480469 72.847656 20.75 72.996094 20.894531 73.246094 L 33.574219 95.035156 C 33.71875 95.289062 33.71875 95.601562 33.566406 95.847656 C 33.421875 96.089844 33.15625 96.238281 32.875 96.238281 L 7.554688 96.238281 "/>
<path style=" stroke:none;fill-rule:nonzero;fill:rgb(100%,100%,100%);fill-opacity:1;" d="M 29.878906 93.722656 L 10.53125 93.71875 L 20.207031 77.09375 L 29.878906 93.722656 "/>
<path style=" stroke:none;fill-rule:nonzero;fill:rgb(13.729858%,12.159729%,12.548828%);fill-opacity:1;" d="M 21.691406 91.6875 L 21.699219 85.648438 L 20.714844 85.890625 C 20.648438 85.90625 20.582031 85.882812 20.542969 85.828125 C 20.503906 85.769531 20.503906 85.699219 20.539062 85.640625 L 22.226562 83.175781 C 22.253906 83.132812 22.304688 83.105469 22.355469 83.105469 C 22.410156 83.101562 22.460938 83.132812 22.492188 83.175781 L 24.183594 85.644531 C 24.21875 85.703125 24.21875 85.773438 24.179688 85.828125 C 24.144531 85.882812 24.074219 85.910156 24.011719 85.894531 L 23.023438 85.652344 L 23 91.6875 L 21.691406 91.6875 "/>
<path style=" stroke:none;fill-rule:nonzero;fill:rgb(13.729858%,12.159729%,12.548828%);fill-opacity:1;" d="M 17.394531 83.449219 L 18.714844 83.46875 L 18.726562 89.515625 L 19.722656 89.277344 C 19.78125 89.265625 19.847656 89.289062 19.878906 89.339844 C 19.914062 89.390625 19.914062 89.457031 19.878906 89.507812 L 18.1875 91.996094 C 18.15625 92.039062 18.105469 92.066406 18.050781 92.066406 C 17.996094 92.0625 17.949219 92.039062 17.921875 91.996094 L 16.238281 89.515625 C 16.207031 89.464844 16.203125 89.398438 16.234375 89.34375 C 16.269531 89.285156 16.339844 89.257812 16.410156 89.273438 L 17.390625 89.519531 L 17.394531 83.449219 "/>
<path style=" stroke:none;fill-rule:nonzero;fill:rgb(13.729858%,12.159729%,12.548828%);fill-opacity:1;" d="M 48.65625 77.707031 L 50.613281 77.097656 L 51.503906 77.59375 L 51.105469 78.128906 L 50.492188 77.890625 L 49.242188 78.238281 L 48.984375 78.84375 L 50.460938 78.863281 L 49.601562 80.242188 L 58.71875 80.257812 L 59.148438 79.472656 C 59.09375 79.476562 58.871094 79.464844 58.820312 79.464844 C 58.589844 79.453125 58.273438 79.398438 58.058594 79.296875 C 57.953125 79.246094 57.84375 79.164062 57.800781 79.050781 C 57.769531 78.964844 57.761719 78.855469 57.820312 78.78125 C 57.867188 78.722656 57.972656 78.695312 58.050781 78.683594 C 58.132812 78.671875 58.519531 78.675781 58.597656 78.675781 C 58.800781 78.679688 59.246094 78.628906 59.445312 78.601562 C 59.605469 78.585938 60.070312 78.53125 60.226562 78.5 L 60.964844 78.335938 C 61.09375 78.308594 61.269531 78.292969 61.398438 78.339844 C 61.515625 78.378906 61.621094 78.46875 61.660156 78.585938 C 61.695312 78.691406 61.667969 78.8125 61.621094 78.914062 C 61.574219 79.027344 61.496094 79.128906 61.390625 79.199219 C 61.304688 79.253906 61.078125 79.308594 60.976562 79.335938 L 60.472656 79.464844 C 60.3125 79.507812 60.109375 79.511719 59.941406 79.519531 L 59.46875 80.292969 L 60.902344 83.246094 C 61.066406 83.183594 61.308594 83.089844 61.476562 83.042969 C 62.050781 82.875 62.664062 82.847656 63.257812 82.921875 C 64.445312 83.078125 65.539062 83.628906 66.351562 84.492188 C 67.179688 85.371094 67.671875 86.507812 67.699219 87.710938 C 67.730469 89 67.230469 90.25 66.328125 91.179688 C 65.390625 92.148438 64.089844 92.6875 62.734375 92.691406 C 61.484375 92.699219 60.269531 92.246094 59.351562 91.40625 C 58.90625 90.992188 58.546875 90.496094 58.289062 89.953125 C 58.070312 89.496094 57.914062 89.007812 57.847656 88.507812 C 57.828125 88.355469 57.808594 88.136719 57.796875 87.980469 L 55.992188 87.96875 C 55.980469 88 55.964844 88.042969 55.953125 88.074219 C 55.910156 88.195312 55.847656 88.308594 55.773438 88.417969 C 55.675781 88.554688 55.554688 88.683594 55.410156 88.773438 C 55.355469 88.804688 55.273438 88.84375 55.214844 88.871094 L 55.382812 89.570312 L 55.796875 89.472656 L 55.886719 89.8125 L 54.839844 90.074219 L 54.757812 89.78125 L 55.09375 89.675781 L 54.910156 88.972656 C 54.871094 88.980469 54.808594 88.992188 54.769531 88.996094 C 54.253906 89.066406 53.738281 88.871094 53.394531 88.484375 C 53.054688 88.09375 52.925781 87.558594 53.082031 87.066406 C 53.09375 87.03125 53.113281 86.976562 53.125 86.941406 L 47.914062 82.984375 L 47.363281 83.773438 C 47.5 83.882812 47.695312 84.03125 47.820312 84.148438 C 48.847656 85.066406 49.464844 86.367188 49.390625 87.730469 C 49.238281 90.46875 47.007812 92.699219 44.234375 92.636719 C 41.511719 92.570312 39.460938 90.265625 39.355469 87.578125 C 39.289062 86 40.117188 84.53125 41.4375 83.644531 C 42.871094 82.683594 44.703125 82.457031 46.292969 83.136719 C 46.414062 83.191406 46.59375 83.277344 46.710938 83.335938 L 49.171875 79.527344 L 47.832031 79.484375 L 48.65625 77.707031 "/>
<path style=" stroke:none;fill-rule:nonzero;fill:rgb(100%,100%,100%);fill-opacity:1;" d="M 44.765625 87.734375 L 46.964844 84.351562 C 47.03125 84.402344 47.125 84.472656 47.1875 84.523438 C 48.128906 85.292969 48.65625 86.449219 48.597656 87.652344 C 48.484375 89.945312 46.71875 91.894531 44.398438 91.917969 C 42.03125 91.949219 40.164062 90.007812 40.050781 87.667969 C 39.980469 86.300781 40.699219 85.023438 41.835938 84.238281 C 42.648438 83.683594 43.644531 83.445312 44.632812 83.46875 C 45.136719 83.488281 45.679688 83.582031 46.121094 83.824219 C 46.1875 83.859375 46.28125 83.917969 46.34375 83.957031 L 44.105469 87.386719 C 44.097656 87.398438 43.957031 87.617188 43.953125 87.628906 C 43.917969 87.769531 43.984375 87.917969 44.105469 88 C 44.261719 88.109375 44.472656 88.101562 44.617188 87.976562 L 44.765625 87.734375 "/>
<path style=" stroke:none;fill-rule:nonzero;fill:rgb(100%,100%,100%);fill-opacity:1;" d="M 62.761719 86.890625 L 61.21875 83.832031 C 61.296875 83.808594 61.410156 83.773438 61.484375 83.753906 C 62.703125 83.410156 64.003906 83.617188 65.066406 84.292969 C 66.265625 85.054688 67.050781 86.351562 67.003906 87.761719 C 66.925781 90.0625 65.15625 92.023438 62.824219 92.074219 C 60.601562 92.125 58.757812 90.445312 58.449219 88.269531 C 58.441406 88.199219 58.429688 88.105469 58.421875 88.035156 L 61.796875 87.996094 C 61.820312 88.0625 61.859375 88.160156 61.894531 88.222656 C 62.070312 88.542969 62.40625 88.746094 62.773438 88.71875 C 63.238281 88.675781 63.601562 88.300781 63.621094 87.835938 C 63.636719 87.40625 63.355469 87.015625 62.929688 86.914062 C 62.882812 86.902344 62.808594 86.894531 62.761719 86.890625 "/>
<path style=" stroke:none;fill-rule:nonzero;fill:rgb(100%,100%,100%);fill-opacity:1;" d="M 49.140625 81.011719 L 58.210938 81.023438 L 55.144531 86.140625 C 55.035156 86.109375 54.878906 86.070312 54.769531 86.054688 C 54.6875 86.046875 54.566406 86.046875 54.480469 86.046875 L 54.375 85.582031 L 54.714844 85.484375 L 54.628906 85.207031 L 53.59375 85.46875 L 53.671875 85.757812 L 54.015625 85.671875 L 54.121094 86.085938 C 54.019531 86.113281 53.867188 86.164062 53.78125 86.21875 C 53.710938 86.265625 53.617188 86.347656 53.558594 86.40625 L 48.246094 82.433594 L 49.140625 81.011719 "/>
<path style=" stroke:none;fill-rule:nonzero;fill:rgb(100%,100%,100%);fill-opacity:1;" d="M 59.019531 81.070312 L 60.277344 83.570312 C 60.15625 83.632812 59.980469 83.722656 59.863281 83.792969 C 58.800781 84.429688 58.144531 85.578125 57.878906 86.777344 C 57.84375 86.945312 57.804688 87.179688 57.777344 87.347656 L 56.054688 87.371094 C 56.042969 87.3125 56.027344 87.222656 56.007812 87.160156 C 55.980469 87.074219 55.941406 86.984375 55.902344 86.902344 C 55.859375 86.828125 55.8125 86.753906 55.761719 86.6875 C 55.726562 86.644531 55.675781 86.585938 55.640625 86.546875 L 59.019531 81.070312 "/>
<path style=" stroke:none;fill-rule:nonzero;fill:rgb(100%,100%,100%);fill-opacity:1;" d="M 60.613281 84.128906 L 62.097656 87.09375 C 62.070312 87.121094 62.023438 87.160156 62 87.191406 C 61.972656 87.222656 61.945312 87.269531 61.925781 87.304688 L 58.472656 87.34375 C 58.472656 87.265625 58.480469 87.148438 58.488281 87.070312 C 58.59375 85.949219 59.324219 84.96875 60.269531 84.34375 C 60.371094 84.273438 60.515625 84.1875 60.613281 84.128906 "/>
<path style=" stroke:none;fill-rule:nonzero;fill:rgb(100%,100%,100%);fill-opacity:1;" d="M 53.453125 87.234375 L 54.644531 88.050781 L 54.785156 88.570312 C 54.753906 88.574219 54.703125 88.585938 54.667969 88.59375 C 54 88.691406 53.441406 88.128906 53.429688 87.460938 C 53.429688 87.398438 53.445312 87.300781 53.453125 87.234375 "/>
<path style=" stroke:none;fill-rule:nonzero;fill:rgb(100%,100%,100%);fill-opacity:1;" d="M 53.855469 86.683594 C 53.878906 86.667969 53.910156 86.644531 53.929688 86.625 C 54.015625 86.566406 54.128906 86.523438 54.226562 86.5 L 54.371094 87.0625 L 53.855469 86.683594 "/>
<path style=" stroke:none;fill-rule:nonzero;fill:rgb(100%,100%,100%);fill-opacity:1;" d="M 54.65625 86.808594 L 54.558594 86.472656 C 54.644531 86.457031 54.765625 86.480469 54.851562 86.496094 L 54.65625 86.808594 "/>
<path style=" stroke:none;fill-rule:nonzero;fill:rgb(100%,100%,100%);fill-opacity:1;" d="M 55.128906 87.308594 L 55.410156 86.847656 C 55.429688 86.878906 55.464844 86.929688 55.484375 86.960938 C 55.535156 87.03125 55.59375 87.125 55.617188 87.207031 C 55.628906 87.238281 55.636719 87.28125 55.640625 87.308594 L 55.128906 87.308594 "/>
<path style=" stroke:none;fill-rule:nonzero;fill:rgb(100%,100%,100%);fill-opacity:1;" d="M 54.988281 88.035156 L 55.566406 88.03125 C 55.539062 88.074219 55.503906 88.140625 55.472656 88.183594 C 55.417969 88.257812 55.351562 88.324219 55.285156 88.386719 C 55.242188 88.421875 55.175781 88.472656 55.128906 88.507812 L 54.988281 88.035156 "/>
</g>
</svg>
