<?xml version="1.0" encoding="UTF-8"?>
<svg xmlns="http://www.w3.org/2000/svg" xmlns:xlink="http://www.w3.org/1999/xlink" width="73pt" height="72pt" viewBox="0 0 73 72" version="1.1">
<g id="surface1">
<path style=" stroke:none;fill-rule:nonzero;fill:rgb(100%,100%,100%);fill-opacity:1;" d="M 1.085938 71.605469 L 71.953125 71.605469 L 71.953125 0.738281 L 1.085938 0.738281 Z M 1.085938 71.605469 "/>
<path style="fill:none;stroke-width:2.835;stroke-linecap:butt;stroke-linejoin:miter;stroke:rgb(13.729858%,12.159729%,12.548828%);stroke-opacity:1;stroke-miterlimit:4;" d="M 10.859375 3.945312 L 719.53125 3.945312 L 719.53125 712.617188 L 10.859375 712.617188 L 10.859375 3.945312 " transform="matrix(0.1,0,0,-0.1,0,72)"/>
<path style=" stroke:none;fill-rule:nonzero;fill:rgb(10.112%,40.585327%,73.280334%);fill-opacity:1;" d="M 2.503906 70.1875 L 70.535156 70.1875 L 70.535156 2.15625 L 2.503906 2.15625 Z M 2.503906 70.1875 "/>
<path style=" stroke:none;fill-rule:nonzero;fill:rgb(100%,100%,100%);fill-opacity:1;" d="M 30.535156 62.394531 L 33.15625 25.71875 L 25.140625 27.59375 C 24.832031 27.664062 24.511719 27.554688 24.3125 27.3125 C 24.074219 27.027344 24.054688 26.617188 24.253906 26.304688 L 35.546875 9.078125 C 35.765625 8.746094 36.128906 8.542969 36.523438 8.535156 C 36.933594 8.527344 37.324219 8.730469 37.550781 9.082031 L 48.777344 26.347656 C 48.972656 26.640625 48.964844 27.027344 48.757812 27.3125 C 48.5625 27.589844 48.21875 27.71875 47.894531 27.644531 L 39.785156 25.800781 L 42.210938 62.382812 L 30.535156 62.394531 "/>
</g>
</svg>
