<?xml version="1.0" encoding="UTF-8"?>
<svg xmlns="http://www.w3.org/2000/svg" xmlns:xlink="http://www.w3.org/1999/xlink" width="73pt" height="100pt" viewBox="0 0 73 100" version="1.1">
<g id="surface1">
<path style=" stroke:none;fill-rule:nonzero;fill:rgb(100%,100%,100%);fill-opacity:1;" d="M 1.085938 99.78125 L 71.953125 99.78125 L 71.953125 0.566406 L 1.085938 0.566406 Z M 1.085938 99.78125 "/>
<path style="fill:none;stroke-width:2.835;stroke-linecap:butt;stroke-linejoin:miter;stroke:rgb(13.729858%,12.159729%,12.548828%);stroke-opacity:1;stroke-miterlimit:4;" d="M 10.859375 2.1875 L 719.53125 2.1875 L 719.53125 994.335938 L 10.859375 994.335938 L 10.859375 2.1875 " transform="matrix(0.1,0,0,-0.1,0,100)"/>
<path style=" stroke:none;fill-rule:nonzero;fill:rgb(10.112%,40.585327%,73.280334%);fill-opacity:1;" d="M 2.503906 98.363281 L 70.535156 98.363281 L 70.535156 1.984375 L 2.503906 1.984375 Z M 2.503906 98.363281 "/>
<path style=" stroke:none;fill-rule:nonzero;fill:rgb(100%,100%,100%);fill-opacity:1;" d="M 6.757812 57.261719 L 66.285156 57.261719 L 36.515625 6.234375 L 6.757812 57.261719 "/>
<path style=" stroke:none;fill-rule:nonzero;fill:rgb(13.729858%,12.159729%,12.548828%);fill-opacity:1;" d="M 13.839844 53.621094 L 17.796875 45.277344 L 20.515625 45.273438 L 17.09375 53.640625 L 13.839844 53.621094 "/>
<path style=" stroke:none;fill-rule:nonzero;fill:rgb(13.729858%,12.159729%,12.548828%);fill-opacity:1;" d="M 20.757812 53.632812 L 23.523438 45.265625 L 26.070312 45.261719 L 23.773438 53.613281 L 20.757812 53.632812 "/>
<path style=" stroke:none;fill-rule:nonzero;fill:rgb(13.729858%,12.159729%,12.548828%);fill-opacity:1;" d="M 27.667969 53.628906 L 29.289062 45.269531 L 31.785156 45.257812 L 30.667969 53.628906 L 27.667969 53.628906 "/>
<path style=" stroke:none;fill-rule:nonzero;fill:rgb(13.729858%,12.159729%,12.548828%);fill-opacity:1;" d="M 34.207031 53.652344 L 34.832031 52.214844 L 35.5625 52.164062 L 37.597656 45.265625 L 38.035156 45.273438 L 37.375 53.648438 L 34.207031 53.652344 "/>
<path style=" stroke:none;fill-rule:nonzero;fill:rgb(13.729858%,12.159729%,12.548828%);fill-opacity:1;" d="M 42.003906 53.671875 L 41.113281 45.691406 L 44.226562 50.664062 L 43.585938 51.011719 C 43.199219 51.222656 43.167969 52.015625 43.226562 52.253906 L 44.535156 52.238281 L 44.738281 53.667969 L 42.003906 53.671875 "/>
<path style=" stroke:none;fill-rule:nonzero;fill:rgb(13.729858%,12.159729%,12.548828%);fill-opacity:1;" d="M 49.226562 53.675781 L 47.03125 45.238281 L 49.59375 45.226562 L 52.277344 53.65625 L 49.226562 53.675781 "/>
<path style=" stroke:none;fill-rule:nonzero;fill:rgb(13.729858%,12.159729%,12.548828%);fill-opacity:1;" d="M 55.890625 53.71875 L 52.53125 45.234375 L 55.234375 45.214844 L 59.179688 53.660156 L 55.890625 53.71875 "/>
<path style=" stroke:none;fill-rule:nonzero;fill:rgb(13.729858%,12.159729%,12.548828%);fill-opacity:1;" d="M 44.820312 35.820312 L 44.34375 35.851562 L 44.390625 35.96875 C 44.410156 36.03125 44.449219 36.117188 44.488281 36.164062 L 44.636719 36.292969 C 44.734375 36.410156 44.742188 36.574219 44.730469 36.742188 C 44.71875 36.988281 44.695312 37.308594 44.519531 37.425781 C 44.179688 37.652344 43.507812 37.386719 43.367188 36.984375 C 43.292969 36.777344 43.328125 36.46875 43.335938 36.292969 L 43.378906 35.863281 L 43.035156 35.878906 L 42.566406 31.554688 L 40.746094 29.832031 L 40.945312 34.535156 L 42.496094 37.820312 L 41.8125 38.238281 L 43.59375 42.960938 L 47.398438 49.71875 L 47.113281 49.898438 L 47.457031 50.3125 C 47.59375 50.460938 47.597656 50.960938 47.597656 51.152344 L 45.917969 51.800781 L 44.070312 51.800781 L 44.058594 51.449219 C 44.074219 51.25 44.261719 51.070312 44.457031 50.992188 L 44.875 50.855469 C 45.234375 50.742188 45.230469 50.59375 45.300781 50.382812 L 44.953125 50.496094 L 41.222656 44.515625 L 38.636719 39.113281 L 35.199219 50.417969 L 35 50.363281 L 34.667969 51.835938 L 31.433594 50.898438 C 31.394531 50.824219 31.398438 50.714844 31.433594 50.640625 C 31.5 50.496094 31.652344 50.394531 31.800781 50.351562 L 32.9375 50.273438 C 33.253906 50.253906 33.394531 50.035156 33.464844 49.8125 L 32.574219 49.433594 L 35.179688 38.542969 L 34.765625 38.371094 L 35.421875 34.40625 L 34.382812 31.554688 L 33.519531 32.773438 L 30.210938 35.429688 L 30.027344 35.210938 L 29.964844 35.484375 L 29.894531 35.824219 C 29.867188 35.871094 29.8125 35.90625 29.769531 35.933594 C 29.714844 35.96875 29.648438 35.996094 29.582031 36.003906 L 29.300781 36.042969 C 29.226562 36.082031 29.152344 36.144531 29.09375 36.207031 L 28.917969 36.382812 C 28.75 36.554688 28.429688 36.546875 28.339844 36.339844 C 28.144531 35.886719 28.34375 35.28125 28.59375 34.917969 C 28.617188 34.882812 28.667969 34.832031 28.710938 34.796875 L 29.253906 34.378906 L 29.078125 34.09375 L 32.113281 31.375 L 33.386719 26.394531 L 33.5 25.972656 C 33.511719 25.933594 33.53125 25.894531 33.550781 25.863281 C 33.585938 25.789062 33.636719 25.722656 33.695312 25.664062 C 33.722656 25.636719 33.753906 25.613281 33.785156 25.585938 C 33.914062 25.496094 34.085938 25.425781 34.230469 25.382812 L 35.738281 24.921875 C 35.753906 24.761719 35.722656 24.570312 35.550781 24.496094 C 35.464844 24.460938 35.136719 24.40625 35.050781 24.367188 C 34.929688 24.34375 34.789062 24.285156 34.714844 24.207031 C 34.628906 24.117188 34.613281 23.972656 34.621094 23.847656 C 34.621094 23.832031 34.628906 23.589844 34.628906 23.554688 C 34.625 23.445312 34.570312 23.382812 34.542969 23.367188 L 34.453125 23.324219 C 34.378906 23.289062 34.359375 23.183594 34.378906 23.105469 C 34.390625 23.058594 34.429688 23 34.457031 22.960938 L 34.601562 22.757812 L 34.6875 22.613281 C 34.660156 22.535156 34.652344 22.378906 34.652344 22.289062 L 34.675781 21.898438 L 33.820312 21.824219 L 33.894531 21.429688 L 34.734375 21.402344 L 34.9375 20.640625 C 34.992188 20.507812 35.101562 20.230469 35.179688 20.113281 C 35.214844 20.066406 35.253906 20.023438 35.300781 19.992188 C 35.347656 19.960938 35.414062 19.945312 35.472656 19.941406 C 35.546875 19.9375 35.667969 19.960938 35.742188 19.976562 L 36.535156 20.164062 C 36.695312 20.164062 36.953125 20.085938 37.109375 20.074219 C 37.324219 20.054688 37.628906 20.027344 37.800781 20.167969 C 37.949219 20.289062 37.996094 20.511719 38.03125 20.695312 L 38.136719 21.148438 L 38.671875 21.203125 L 38.648438 21.734375 L 37.988281 21.777344 C 38.058594 21.773438 38.058594 22.488281 37.882812 22.855469 L 37.621094 23.382812 C 37.554688 23.519531 37.519531 23.667969 37.550781 23.820312 C 37.585938 23.984375 37.671875 24.136719 37.789062 24.253906 C 37.796875 24.261719 37.867188 24.324219 37.867188 24.324219 L 38.59375 24.28125 C 38.738281 24.292969 38.894531 24.371094 38.996094 24.464844 L 43.699219 29.316406 C 43.976562 29.601562 44.207031 30.015625 44.253906 30.441406 L 44.820312 35.820312 "/>
</g>
</svg>
