<?xml version="1.0" encoding="UTF-8"?>
<svg xmlns="http://www.w3.org/2000/svg" xmlns:xlink="http://www.w3.org/1999/xlink" width="73pt" height="100pt" viewBox="0 0 73 100" version="1.1">
<g id="surface1">
<path style=" stroke:none;fill-rule:nonzero;fill:rgb(100%,100%,100%);fill-opacity:1;" d="M 1.085938 99.78125 L 71.953125 99.78125 L 71.953125 0.566406 L 1.085938 0.566406 Z M 1.085938 99.78125 "/>
<path style="fill:none;stroke-width:2.835;stroke-linecap:butt;stroke-linejoin:miter;stroke:rgb(13.729858%,12.159729%,12.548828%);stroke-opacity:1;stroke-miterlimit:4;" d="M 10.859375 2.1875 L 719.53125 2.1875 L 719.53125 994.335938 L 10.859375 994.335938 L 10.859375 2.1875 " transform="matrix(0.1,0,0,-0.1,0,100)"/>
<path style=" stroke:none;fill-rule:nonzero;fill:rgb(10.112%,40.585327%,73.280334%);fill-opacity:1;" d="M 36.585938 98.355469 L 70.472656 98.363281 L 70.53125 2.058594 L 36.585938 2.023438 L 36.585938 16.222656 L 62.023438 30.882812 L 62.023438 69.46875 L 36.585938 84.195312 L 36.585938 98.355469 "/>
<path style=" stroke:none;fill-rule:nonzero;fill:rgb(10.112%,40.585327%,73.280334%);fill-opacity:1;" d="M 11.042969 1.992188 L 2.566406 1.984375 L 2.503906 98.351562 L 11.042969 98.355469 L 11.042969 1.992188 "/>
<path style=" stroke:none;fill-rule:nonzero;fill:rgb(13.729858%,12.159729%,12.548828%);fill-opacity:1;" d="M 36.542969 78.882812 L 38.671875 78.882812 L 38.671875 72.503906 L 36.542969 72.503906 Z M 36.542969 78.882812 "/>
<path style=" stroke:none;fill-rule:nonzero;fill:rgb(13.729858%,12.159729%,12.548828%);fill-opacity:1;" d="M 36.542969 66.121094 L 38.671875 66.121094 L 38.671875 59.742188 L 36.542969 59.742188 Z M 36.542969 66.121094 "/>
<path style=" stroke:none;fill-rule:nonzero;fill:rgb(13.729858%,12.159729%,12.548828%);fill-opacity:1;" d="M 36.542969 53.363281 L 38.671875 53.363281 L 38.671875 46.984375 L 36.542969 46.984375 Z M 36.542969 53.363281 "/>
<path style=" stroke:none;fill-rule:nonzero;fill:rgb(13.729858%,12.159729%,12.548828%);fill-opacity:1;" d="M 36.542969 40.605469 L 38.671875 40.605469 L 38.671875 34.226562 L 36.542969 34.226562 Z M 36.542969 40.605469 "/>
<path style=" stroke:none;fill-rule:nonzero;fill:rgb(13.729858%,12.159729%,12.548828%);fill-opacity:1;" d="M 36.542969 27.847656 L 38.671875 27.847656 L 38.671875 21.46875 L 36.542969 21.46875 Z M 36.542969 27.847656 "/>
<path style=" stroke:none;fill-rule:nonzero;fill:rgb(13.729858%,12.159729%,12.548828%);fill-opacity:1;" d="M 44.964844 31.878906 L 44.320312 33.824219 C 44.269531 33.964844 44.128906 34.0625 43.976562 34.058594 C 43.832031 34.058594 43.710938 33.96875 43.65625 33.832031 L 41.296875 27.539062 C 41.253906 27.4375 41.265625 27.324219 41.328125 27.226562 C 41.382812 27.140625 41.484375 27.078125 41.589844 27.070312 L 48.3125 26.398438 C 48.441406 26.382812 48.570312 26.445312 48.640625 26.558594 C 48.722656 26.695312 48.703125 26.871094 48.589844 26.984375 L 47.117188 28.441406 L 54.9375 32.890625 L 54.933594 40.53125 L 50.679688 40.53125 L 50.679688 35.617188 L 44.964844 31.878906 "/>
<path style=" stroke:none;fill-rule:nonzero;fill:rgb(13.729858%,12.159729%,12.548828%);fill-opacity:1;" d="M 50.683594 59.699219 L 54.933594 59.667969 L 54.9375 67.363281 L 43.21875 74.144531 L 41.203125 70.128906 L 50.675781 64.652344 L 50.683594 59.699219 "/>
<path style=" stroke:none;fill-rule:nonzero;fill:rgb(13.729858%,12.159729%,12.548828%);fill-opacity:1;" d="M 50.6875 58.246094 L 54.9375 58.246094 L 54.9375 56.117188 L 50.6875 56.117188 Z M 50.6875 58.246094 "/>
<path style=" stroke:none;fill-rule:nonzero;fill:rgb(13.729858%,12.159729%,12.548828%);fill-opacity:1;" d="M 50.6875 54.699219 L 54.9375 54.699219 L 54.9375 52.570312 L 50.6875 52.570312 Z M 50.6875 54.699219 "/>
<path style=" stroke:none;fill-rule:nonzero;fill:rgb(13.729858%,12.159729%,12.548828%);fill-opacity:1;" d="M 50.6875 51.152344 L 54.9375 51.152344 L 54.9375 49.027344 L 50.6875 49.027344 Z M 50.6875 51.152344 "/>
<path style=" stroke:none;fill-rule:nonzero;fill:rgb(13.729858%,12.159729%,12.548828%);fill-opacity:1;" d="M 50.6875 47.609375 L 54.9375 47.609375 L 54.9375 45.480469 L 50.6875 45.480469 Z M 50.6875 47.609375 "/>
<path style=" stroke:none;fill-rule:nonzero;fill:rgb(13.729858%,12.159729%,12.548828%);fill-opacity:1;" d="M 50.6875 44.0625 L 54.9375 44.0625 L 54.9375 41.933594 L 50.6875 41.933594 Z M 50.6875 44.0625 "/>
</g>
</svg>
