<?xml version="1.0" encoding="UTF-8" standalone="no"?>
<svg
   width="73pt"
   height="100pt"
   viewBox="0 0 73 100"
   version="1.1"
   id="svg5713"
   xmlns="http://www.w3.org/2000/svg"
   xmlns:svg="http://www.w3.org/2000/svg">
  <defs
     id="defs5717" />
  <g
     id="surface1">
    <path
       style="fill:#ffffff;fill-opacity:1;fill-rule:nonzero;stroke:none"
       d="M 1.085938,99.78125 H 71.953125 V 0.566406 H 1.085938 Z m 0,0"
       id="path5692" />
    <path
       style="fill:none;stroke:#211e1e;stroke-width:2.835;stroke-linecap:butt;stroke-linejoin:miter;stroke-miterlimit:4;stroke-opacity:1"
       d="M 10.859375,2.1875 H 719.53125 V 994.33594 H 10.859375 V 2.1875"
       transform="matrix(0.1,0,0,-0.1,0,100)"
       id="path5694" />
    <path
       style="fill:#1966ba;fill-opacity:1;fill-rule:nonzero;stroke:none"
       d="M 2.5,98.363281 H 70.53125 V 1.984375 H 2.5 Z m 0,0"
       id="path5696" />
    <path
       style="fill:#ffffff;fill-opacity:1;fill-rule:nonzero;stroke:none"
       d="M 20.21875,57.96875 H 52.816406 V 90.566406 H 20.21875 V 57.96875"
       id="path5702" />
    <path
       style="fill:#1966ba;fill-opacity:1;fill-rule:nonzero;stroke:none"
       d="m 36.515625,59.914062 c 3.832031,0 7.453125,1.617188 10.25,4.269532 2.757813,2.566406 4.078125,6.378906 4.035156,10.148437 -0.08203,3.8125 -1.605469,7.414063 -4.324219,10.066407 -2.671874,2.566406 -6.210937,4.015624 -9.917968,4.015624 -3.746094,0 -7.324219,-1.492187 -10,-4.144531 -2.675782,-2.566406 -4.199219,-6.125 -4.238282,-9.855469 -0.08594,-3.851562 1.234376,-7.75 4.074219,-10.355468 2.757813,-2.527344 6.339844,-4.144532 10.121094,-4.144532"
       id="path5704" />
    <path
       style="fill:#ffffff;fill-opacity:1;fill-rule:nonzero;stroke:none"
       d="m 36.515625,60.785156 c 3.578125,0 7.039063,1.53125 9.675781,4.015625 2.589844,2.40625 3.824219,5.964844 3.78125,9.53125 -0.03906,3.558594 -1.519531,6.996094 -4.070312,9.480469 -2.511719,2.40625 -5.886719,3.730469 -9.347656,3.730469 -3.496094,0 -6.871094,-1.40625 -9.382813,-3.851563 -2.511719,-2.445312 -3.949219,-5.800781 -4.03125,-9.277344 -0.08594,-3.605468 1.152344,-7.25 3.785156,-9.695312 2.632813,-2.445312 6.007813,-3.933594 9.589844,-3.933594"
       id="path5706" />
    <path
       style="fill:#1966ba;fill-opacity:1;fill-rule:nonzero;stroke:none"
       d="m 25.652344,69.152344 7.574218,3.519531 c 0,0.04297 -0.04297,0.125 -0.04297,0.125 -0.08203,0.25 -0.164063,0.453125 -0.207032,0.664063 -0.03906,0.246093 -0.08203,0.453124 -0.08203,0.660156 0,0.25 0.04297,0.535156 0.08203,0.785156 0.04297,0.207031 0.125,0.375 0.207032,0.578125 0.04297,0.04687 0.08203,0.128906 0.08203,0.171875 l -7.53125,3.476562 c -0.04297,-0.04297 -0.08203,-0.125 -0.125,-0.210937 -0.164063,-0.367187 -0.328125,-0.824219 -0.449219,-1.238281 -0.167968,-0.621094 -0.332031,-1.199219 -0.414062,-1.824219 -0.08594,-0.578125 -0.125,-1.203125 -0.125,-1.78125 0,-0.535156 0.03906,-1.074219 0.125,-1.613281 0.04297,-0.5 0.164062,-1.035156 0.285156,-1.53125 0.128906,-0.5 0.289062,-1.039063 0.5,-1.535156 0.03906,-0.08203 0.07813,-0.164063 0.121094,-0.246094"
       id="path5708" />
    <path
       style="fill:#1966ba;fill-opacity:1;fill-rule:nonzero;stroke:none"
       d="m 47.34375,69.113281 c 0.04297,0.08594 0.08203,0.207031 0.125,0.289063 0.328125,0.664062 0.574219,1.40625 0.699219,2.152344 0.246093,1.039062 0.328125,2.15625 0.289062,3.191406 -0.04297,0.703125 -0.167969,1.410156 -0.289062,2.074218 -0.167969,0.699219 -0.410157,1.40625 -0.660157,2.105469 -0.03906,0.04297 -0.08203,0.210938 -0.121093,0.292969 l -7.492188,-3.519531 c 0.03906,-0.08203 0.03906,-0.167969 0.08203,-0.210938 0.08203,-0.203125 0.121094,-0.410156 0.167969,-0.578125 0.07813,-0.203125 0.07813,-0.453125 0.07813,-0.664062 0,-0.203125 -0.04297,-0.453125 -0.07813,-0.699219 -0.04687,-0.210937 -0.08594,-0.457031 -0.167969,-0.664063 -0.04297,-0.08203 -0.08203,-0.164062 -0.08203,-0.207031 l 7.449219,-3.5625"
       id="path5710" />
    <g
       id="surface1-8"
       transform="translate(83.547597,-4.0695743)">
      <path
         style="fill:#ffffff;fill-opacity:1;fill-rule:nonzero;stroke:none;stroke-width:0.926165"
         d="m -71.392163,19.578771 18.295381,-9.48234 33.5554,9.659614 v 4.124329 l -33.5554,-9.569167 -18.295381,9.569167 v -4.301603"
         id="path5805-1" />
      <path
         style="fill:#ffffff;fill-opacity:1;fill-rule:nonzero;stroke:none;stroke-width:0.926165"
         d="m -50.651127,59.320665 h -6.302265 V 23.880374 h 17.756323 c 1.461605,0 3.053452,0.568 4.00856,1.837859 1.269858,1.649732 1.208355,3.241579 1.208355,3.241579 v 11.877344 c 0,0.824867 -0.253247,2.601222 -1.526725,3.874699 -1.143236,1.143236 -2.355209,1.588229 -3.69019,1.588229 h -11.454058 v 13.020581"
         id="path5807-3" />
      <path
         style="fill:#1966ba;fill-opacity:1;fill-rule:nonzero;stroke:none;stroke-width:0.926165"
         d="M -50.665599,40.84801 V 29.48078 h 9.033729 c 0.38349,0 0.824866,0 1.085349,0.253247 0.249631,0.253249 0.314752,0.506497 0.314752,1.081733 v 8.700887 c 0,0.444994 -0.126624,0.824866 -0.379872,1.016612 -0.256866,0.253248 -0.510114,0.314751 -0.958726,0.314751 h -9.095232"
         id="path5809-8" />
    </g>
  </g>
</svg>
