<?xml version="1.0" encoding="UTF-8" standalone="no"?>
<svg
   width="73pt"
   height="100pt"
   viewBox="0 0 73 100"
   version="1.1"
   id="svg845"
   xmlns="http://www.w3.org/2000/svg"
   xmlns:svg="http://www.w3.org/2000/svg">
  <defs
     id="defs849" />
  <g
     id="surface1">
    <path
       style="fill:#ffffff;fill-opacity:1;fill-rule:nonzero;stroke:none"
       d="M 1.085938,99.78125 H 71.953125 V 0.566406 H 1.085938 Z m 0,0"
       id="path824" />
    <path
       style="fill:none;stroke:#211e1e;stroke-width:2.835;stroke-linecap:butt;stroke-linejoin:miter;stroke-miterlimit:4;stroke-opacity:1"
       d="M 10.859375,2.1875 H 719.53125 V 994.33594 H 10.859375 V 2.1875"
       transform="matrix(0.1,0,0,-0.1,0,100)"
       id="path826" />
    <path
       style="fill:#1966ba;fill-opacity:1;fill-rule:nonzero;stroke:none"
       d="M 70.546875,98.359375 H 2.503906 V 1.980469 h 68.042969 v 96.378906"
       id="path828" />
    <path
       style="fill:#ffffff;fill-opacity:1;fill-rule:nonzero;stroke:none"
       d="M 24.472656,53.71875 V 9.78125 h 21.882813 c 2.132812,0 3.648437,0.792969 4.765625,1.980469 1.085937,1.117187 1.695312,2.449219 1.695312,4.210937 v 15.667969 c -0.03516,1.585937 -0.753906,3.0625 -1.875,4.175781 -1.117187,1.082032 -2.820312,1.765625 -4.40625,1.765625 H 32.488281 V 53.71875 h -8.015625"
       id="path830" />
    <path
       style="fill:#ffffff;fill-opacity:1;fill-rule:nonzero;stroke:none"
       d="m 12.472659,91.984375 v -9.71875 c 0,-0.179687 0.03516,-0.722656 0.07031,-0.863281 0.214846,-2.089844 0.828127,-4.105469 1.800783,-5.941406 0.828125,-1.582032 1.871094,-3.058594 3.167969,-4.320313 1.222656,-1.222656 2.664062,-2.269531 4.210938,-3.097656 1.980468,-1.078125 4.070312,-1.832031 6.695312,-1.832031 h 5.871094 L 32.234377,60.15625 c 0,-0.863281 0.03516,-0.972656 0.394532,-1.257812 0.398437,-0.289063 1.117187,-0.394532 1.335937,0.03516 l 13.285156,9.507812 c 0.503907,0.253906 0.539063,0.648438 0.539063,0.972656 -0.03516,0.324219 -0.324219,0.683594 -0.609375,0.972657 l -13.144531,9.324219 c -0.394532,0.285156 -0.9375,0.394531 -1.332032,0.07031 -0.324218,-0.25 -0.398437,-0.753906 -0.398437,-1.152344 l 1.984375,-6.085937 h -5.1875 c -1.402344,0 -2.769532,0.46875 -4.03125,1.046875 -1.113282,0.503906 -2.160156,1.222656 -3.058594,2.085937 -0.972656,0.9375 -1.730469,2.019531 -2.269531,3.242188 -0.433594,1.042969 -0.71875,2.195312 -0.863281,3.3125 0,0.105469 -0.03516,0.574219 -0.03516,0.683593 v 9.070313 h -6.371093"
       id="path832" />
    <path
       style="fill:#1966ba;fill-opacity:1;fill-rule:nonzero;stroke:none"
       d="M 32.484375,30.992188 V 16.445312 h 9.785156 c 0.652344,0 1.554688,0.179688 1.988281,0.648438 0.46875,0.433594 0.722657,1.042969 0.6875,1.691406 l -0.07422,9.761719 c 0,0.648437 -0.289063,1.296875 -0.757813,1.761719 -0.46875,0.46875 -1.15625,0.683594 -1.84375,0.683594 h -9.785156"
       id="path834" />
    <path
       style="fill:#ffffff;fill-opacity:1;fill-rule:nonzero;stroke:none"
       d="m 33.589844,91.703125 c 0.269531,0.09766 0.578125,0.199219 0.949218,0.273437 0.355469,0.07813 0.753907,0.121094 1.167969,0.121094 1.050781,0 1.859375,-0.308594 2.429688,-0.921875 0.566406,-0.625 0.851562,-1.460937 0.851562,-2.527343 0,-0.488282 -0.07031,-0.925782 -0.210937,-1.296876 C 38.617188,86.96875 38.421875,86.65625 38.179688,86.402344 37.9375,86.144531 37.640625,85.960938 37.3125,85.832031 c -0.34375,-0.128906 -0.695312,-0.195312 -1.066406,-0.195312 -0.226563,0 -0.441406,0.01172 -0.625,0.03516 -0.199219,0.01563 -0.367188,0.05859 -0.5,0.105469 v -2.503906 h 3.398437 V 82.066406 H 33.730469 V 87.125 c 0.238281,-0.07422 0.496093,-0.140625 0.75,-0.210938 0.257812,-0.07422 0.554687,-0.101562 0.882812,-0.101562 0.683594,0 1.195313,0.1875 1.546875,0.539062 0.34375,0.355469 0.515625,0.839844 0.515625,1.421876 0,0.613281 -0.171875,1.109374 -0.523437,1.496093 -0.359375,0.394531 -0.839844,0.59375 -1.453125,0.59375 -0.355469,0 -0.683594,-0.05469 -0.980469,-0.15625 -0.300781,-0.09766 -0.570312,-0.210937 -0.796875,-0.34375 l -0.08203,1.339844"
       id="path836" />
    <path
       style="fill:#ffffff;fill-opacity:1;fill-rule:nonzero;stroke:none"
       d="m 40.910156,90.648438 c 0.242188,0.457031 0.554688,0.808593 0.941406,1.066406 0.378907,0.261718 0.839844,0.382812 1.390626,0.382812 0.554687,0 1.023437,-0.121094 1.410156,-0.394531 0.378906,-0.257813 0.695312,-0.609375 0.9375,-1.066406 0.238281,-0.457031 0.414062,-0.996094 0.507812,-1.605469 0.101563,-0.613281 0.160156,-1.277344 0.160156,-2.003906 0,-0.726563 -0.05859,-1.390625 -0.160156,-2.019532 -0.09375,-0.609374 -0.269531,-1.152343 -0.507812,-1.605468 -0.242188,-0.457032 -0.558594,-0.808594 -0.9375,-1.078125 -0.386719,-0.257813 -0.855469,-0.386719 -1.410156,-0.386719 -0.550782,0 -1.023438,0.128906 -1.40625,0.386719 -0.382813,0.269531 -0.683594,0.621093 -0.925782,1.078125 -0.238281,0.453125 -0.410156,0.996094 -0.507812,1.605468 -0.101563,0.628907 -0.15625,1.292969 -0.15625,2.019532 0,0.726562 0.05469,1.390625 0.15625,2.003906 0.09766,0.625 0.269531,1.164062 0.507812,1.617188"
       id="path838" />
    <path
       style="fill:#ffffff;fill-opacity:1;fill-rule:nonzero;stroke:none"
       d="m 54.570312,91.984375 h 1.480469 v -4.460937 c 0,-0.539063 0.113281,-0.953126 0.328125,-1.25 0.210938,-0.300782 0.539063,-0.441407 0.949219,-0.441407 0.683594,0 1.023437,0.453125 1.023437,1.351563 v 4.800781 h 1.476563 v -4.460937 c 0,-0.539063 0.117187,-0.953126 0.328125,-1.25 0.214844,-0.300782 0.539062,-0.441407 0.953125,-0.441407 0.679687,0 1.023437,0.453125 1.023437,1.351563 v 4.800781 h 1.476563 v -4.773437 c 0,-0.851563 -0.167969,-1.507813 -0.511719,-1.945313 -0.351562,-0.441406 -0.878906,-0.671875 -1.589844,-0.671875 -0.46875,0 -0.855468,0.117188 -1.152343,0.34375 -0.300781,0.238281 -0.527344,0.511719 -0.710938,0.808594 -0.07031,-0.140625 -0.15625,-0.285156 -0.253906,-0.425782 -0.101563,-0.128906 -0.226563,-0.253906 -0.371094,-0.371093 -0.140625,-0.101563 -0.3125,-0.183594 -0.496093,-0.253907 -0.183594,-0.07422 -0.414063,-0.101562 -0.65625,-0.101562 -0.453126,0 -0.824219,0.117188 -1.125,0.34375 -0.292969,0.238281 -0.539063,0.523438 -0.691407,0.882812 h -0.03125 c 0,-0.04297 0,-0.132812 0,-0.242187 -0.01172,-0.101563 -0.01172,-0.214844 -0.01172,-0.328125 -0.01562,-0.117188 -0.01562,-0.226562 -0.01562,-0.328125 -0.01563,-0.09766 -0.01563,-0.183594 -0.01563,-0.226563 h -1.460937 c 0.01563,0.199219 0.02344,0.414063 0.03906,0.640626 0.01562,0.226562 0.01562,0.46875 0.01562,0.738281 v 5.910156"
       id="path840" />
    <path
       style="fill:#1966ba;fill-opacity:1;fill-rule:nonzero;stroke:none"
       d="M 42.078125,89.898438 C 41.863281,89.230469 41.75,88.261719 41.75,87.027344 c 0,-1.238282 0.113281,-2.203125 0.328125,-2.886719 0.210937,-0.679687 0.613281,-1.023437 1.164063,-1.023437 0.570312,0 0.96875,0.34375 1.179687,1.007812 0.214844,0.683594 0.328125,1.652344 0.328125,2.902344 0,1.234375 -0.113281,2.203125 -0.328125,2.871094 -0.226563,0.683593 -0.625,1.019531 -1.179687,1.019531 -0.550782,0 -0.953126,-0.335938 -1.164063,-1.019531"
       id="path842" />
  </g>
</svg>
