<?xml version="1.0" encoding="UTF-8" standalone="no"?>
<svg
   width="73pt"
   height="100pt"
   viewBox="0 0 73 100"
   version="1.1"
   id="svg1162"
   xmlns="http://www.w3.org/2000/svg"
   xmlns:svg="http://www.w3.org/2000/svg">
  <defs
     id="defs1166" />
  <g
     id="surface1">
    <path
       style="fill:#ffffff;fill-opacity:1;fill-rule:nonzero;stroke:none"
       d="M 1.085938,99.78125 H 71.953125 V 0.566406 H 1.085938 Z m 0,0"
       id="path1131" />
    <path
       style="fill:none;stroke:#211e1e;stroke-width:2.835;stroke-linecap:butt;stroke-linejoin:miter;stroke-miterlimit:4;stroke-opacity:1"
       d="M 10.859375,2.1875 H 719.53125 V 994.33594 H 10.859375 V 2.1875"
       transform="matrix(0.1,0,0,-0.1,0,100)"
       id="path1133" />
    <path
       style="fill:#1966ba;fill-opacity:1;fill-rule:nonzero;stroke:none"
       d="M 70.546875,98.359375 H 2.503906 V 1.980469 h 68.042969 v 96.378906"
       id="path1135" />
    <path
       style="fill:#ffffff;fill-opacity:1;fill-rule:nonzero;stroke:none"
       d="m 12.472659,91.984375 v -9.71875 c 0,-0.179687 0.03516,-0.722656 0.07031,-0.863281 0.214846,-2.089844 0.828127,-4.105469 1.800783,-5.941406 0.828125,-1.582032 1.871094,-3.058594 3.167969,-4.320313 1.222656,-1.222656 2.664062,-2.269531 4.210938,-3.097656 1.980468,-1.078125 4.070312,-1.832031 6.695312,-1.832031 h 5.871094 L 32.234377,60.15625 c 0,-0.863281 0.03516,-0.972656 0.394532,-1.257812 0.398437,-0.289063 1.117187,-0.394532 1.335937,0.03516 l 13.285156,9.507812 c 0.503907,0.253906 0.539063,0.648438 0.539063,0.972656 -0.03516,0.324219 -0.324219,0.683594 -0.609375,0.972657 l -13.144531,9.324219 c -0.394532,0.285156 -0.9375,0.394531 -1.332032,0.07031 -0.324218,-0.25 -0.398437,-0.753906 -0.398437,-1.152344 l 1.984375,-6.085937 h -5.1875 c -1.402344,0 -2.769532,0.46875 -4.03125,1.046875 -1.113282,0.503906 -2.160156,1.222656 -3.058594,2.085937 -0.972656,0.9375 -1.730469,2.019531 -2.269531,3.242188 -0.433594,1.042969 -0.71875,2.195312 -0.863281,3.3125 0,0.105469 -0.03516,0.574219 -0.03516,0.683593 v 9.070313 h -6.371093"
       id="path1137" />
    <path
       style="fill:#ffffff;fill-opacity:1;fill-rule:nonzero;stroke:none"
       d="m 33.589844,91.703125 c 0.269531,0.09766 0.578125,0.199219 0.949218,0.273437 0.355469,0.07813 0.753907,0.121094 1.167969,0.121094 1.050781,0 1.859375,-0.308594 2.429688,-0.921875 0.566406,-0.625 0.851562,-1.460937 0.851562,-2.527343 0,-0.488282 -0.07031,-0.925782 -0.210937,-1.296876 C 38.617188,86.96875 38.421875,86.65625 38.179688,86.402344 37.9375,86.144531 37.640625,85.960938 37.3125,85.832031 c -0.34375,-0.128906 -0.695312,-0.195312 -1.066406,-0.195312 -0.226563,0 -0.441406,0.01172 -0.625,0.03516 -0.199219,0.01563 -0.367188,0.05859 -0.5,0.105469 v -2.503906 h 3.398437 V 82.066406 H 33.730469 V 87.125 c 0.238281,-0.07422 0.496093,-0.140625 0.75,-0.210938 0.257812,-0.07422 0.554687,-0.101562 0.882812,-0.101562 0.683594,0 1.195313,0.1875 1.546875,0.539062 0.34375,0.355469 0.515625,0.839844 0.515625,1.421876 0,0.613281 -0.171875,1.109374 -0.523437,1.496093 -0.359375,0.394531 -0.839844,0.59375 -1.453125,0.59375 -0.355469,0 -0.683594,-0.05469 -0.980469,-0.15625 -0.300781,-0.09766 -0.570312,-0.210937 -0.796875,-0.34375 l -0.08203,1.339844"
       id="path1139" />
    <path
       style="fill:#ffffff;fill-opacity:1;fill-rule:nonzero;stroke:none"
       d="m 40.910156,90.648438 c 0.242188,0.457031 0.554688,0.808593 0.941406,1.066406 0.378907,0.261718 0.839844,0.382812 1.390626,0.382812 0.554687,0 1.023437,-0.121094 1.410156,-0.394531 0.378906,-0.257813 0.695312,-0.609375 0.9375,-1.066406 0.238281,-0.457031 0.414062,-0.996094 0.507812,-1.605469 0.101563,-0.613281 0.160156,-1.277344 0.160156,-2.003906 0,-0.726563 -0.05859,-1.390625 -0.160156,-2.019532 -0.09375,-0.609374 -0.269531,-1.152343 -0.507812,-1.605468 -0.242188,-0.457032 -0.558594,-0.808594 -0.9375,-1.078125 -0.386719,-0.257813 -0.855469,-0.386719 -1.410156,-0.386719 -0.550782,0 -1.023438,0.128906 -1.40625,0.386719 -0.382813,0.269531 -0.683594,0.621093 -0.925782,1.078125 -0.238281,0.453125 -0.410156,0.996094 -0.507812,1.605468 -0.101563,0.628907 -0.15625,1.292969 -0.15625,2.019532 0,0.726562 0.05469,1.390625 0.15625,2.003906 0.09766,0.625 0.269531,1.164062 0.507812,1.617188"
       id="path1141" />
    <path
       style="fill:#ffffff;fill-opacity:1;fill-rule:nonzero;stroke:none"
       d="m 54.570312,91.984375 h 1.480469 v -4.460937 c 0,-0.539063 0.113281,-0.953126 0.328125,-1.25 0.210938,-0.300782 0.539063,-0.441407 0.949219,-0.441407 0.683594,0 1.023437,0.453125 1.023437,1.351563 v 4.800781 h 1.476563 v -4.460937 c 0,-0.539063 0.117187,-0.953126 0.328125,-1.25 0.214844,-0.300782 0.539062,-0.441407 0.953125,-0.441407 0.679687,0 1.023437,0.453125 1.023437,1.351563 v 4.800781 h 1.476563 v -4.773437 c 0,-0.851563 -0.167969,-1.507813 -0.511719,-1.945313 -0.351562,-0.441406 -0.878906,-0.671875 -1.589844,-0.671875 -0.46875,0 -0.855468,0.117188 -1.152343,0.34375 -0.300781,0.238281 -0.527344,0.511719 -0.710938,0.808594 -0.07031,-0.140625 -0.15625,-0.285156 -0.253906,-0.425782 -0.101563,-0.128906 -0.226563,-0.253906 -0.371094,-0.371093 -0.140625,-0.101563 -0.3125,-0.183594 -0.496093,-0.253907 -0.183594,-0.07422 -0.414063,-0.101562 -0.65625,-0.101562 -0.453126,0 -0.824219,0.117188 -1.125,0.34375 -0.292969,0.238281 -0.539063,0.523438 -0.691407,0.882812 h -0.03125 c 0,-0.04297 0,-0.132812 0,-0.242187 -0.01172,-0.101563 -0.01172,-0.214844 -0.01172,-0.328125 -0.01562,-0.117188 -0.01562,-0.226562 -0.01562,-0.328125 -0.01563,-0.09766 -0.01563,-0.183594 -0.01563,-0.226563 h -1.460937 c 0.01563,0.199219 0.02344,0.414063 0.03906,0.640626 0.01562,0.226562 0.01562,0.46875 0.01562,0.738281 v 5.910156"
       id="path1143" />
    <path
       style="fill:#ffffff;fill-opacity:1;fill-rule:nonzero;stroke:none"
       d="m 18.863281,32.730469 c 2.511719,0 4.507813,2.015625 4.507813,4.40625 0.0625,2.453125 -1.933594,4.53125 -4.507813,4.53125 -2.515625,0 -4.511719,-2.011719 -4.511719,-4.53125 0,-2.390625 2.0625,-4.40625 4.511719,-4.40625"
       id="path1145" />
    <path
       style="fill:#ffffff;fill-opacity:1;fill-rule:nonzero;stroke:none"
       d="m 51.003906,32.730469 c 2.578125,0 4.707032,2.074219 4.640625,4.59375 -0.06641,2.390625 -2.128906,4.277343 -4.574219,4.277343 -2.515624,0 -4.574218,-1.886718 -4.640624,-4.339843 -0.0625,-2.457031 2,-4.53125 4.574218,-4.53125"
       id="path1147" />
    <path
       style="fill:#ffffff;fill-opacity:1;fill-rule:nonzero;stroke:none"
       d="m 62.742188,32.160156 h -7.214844 l 0.644531,0.820313 5.925781,0.125 v 1.636719 l -4.316406,1.511718 c 0,0.0625 0.06641,1.007813 0.06641,1.070313 H 56.6875 c 0,-0.0625 0,-0.1875 0,-0.1875 -0.257812,-2.960938 -2.578125,-5.480469 -5.605469,-5.480469 -3.027343,-0.0625 -5.476562,2.394531 -5.734375,5.289062 0,0.125 0,0.25 -0.06641,0.316407 l -20.9375,-0.06641 c 0,-0.05859 0,-0.1875 0,-0.25 0.06641,-2.894531 -2.511719,-5.097656 -5.472656,-5.097656 -2.898438,0 -5.347656,2.261719 -5.476563,5.097656 0,0.125 0,0.25 0,0.316407 H 10.6875 l 0.06641,-0.628907 c -0.06641,-0.06641 -0.191406,-0.06641 -0.324218,-0.191406 -0.128907,-0.125 -0.128907,-0.3125 -0.128907,-0.378906 v -0.566406 c 0,-0.0625 0,-0.375 0.06641,-0.4375 0.0625,-0.125 0.253906,-0.125 0.386718,-0.125 h 0.640625 l 0.644531,-6.105469 c 0,-0.253906 0.132813,-0.570313 0.324219,-0.757813 0.257813,-0.25 0.773438,-0.378906 0.835938,-0.378906 l 0.773437,-0.0625 1.933594,-4.027344 c 0.386719,-0.753906 1.675781,-1.636718 2.769531,-1.636718 h 6.3125 l -0.0625,11.078125 20.679688,0.0625 0.773437,-0.820313 -20.746094,-0.05859 0.132813,-15.296874 36.976563,-0.0625 v 15.292968"
       id="path1149" />
    <path
       style="fill:#1966ba;fill-opacity:1;fill-rule:nonzero;stroke:none"
       d="M 42.078125,89.898438 C 41.863281,89.230469 41.75,88.261719 41.75,87.027344 c 0,-1.238282 0.113281,-2.203125 0.328125,-2.886719 0.210937,-0.679687 0.613281,-1.023437 1.164063,-1.023437 0.570312,0 0.96875,0.34375 1.179687,1.007812 0.214844,0.683594 0.328125,1.652344 0.328125,2.902344 0,1.234375 -0.113281,2.203125 -0.328125,2.871094 -0.226563,0.683593 -0.625,1.019531 -1.179687,1.019531 -0.550782,0 -0.953126,-0.335938 -1.164063,-1.019531"
       id="path1151" />
    <path
       style="fill:#1966ba;fill-opacity:1;fill-rule:nonzero;stroke:none"
       d="m 18.863281,35.367188 c 1.027344,0 1.867188,0.820312 1.867188,1.765624 0,1.070313 -0.773438,1.890626 -1.804688,1.890626 -1.09375,0.05859 -1.933593,-0.820313 -1.933593,-1.832032 0,-1.003906 0.839843,-1.824218 1.871093,-1.824218"
       id="path1153" />
    <path
       style="fill:#1966ba;fill-opacity:1;fill-rule:nonzero;stroke:none"
       d="m 51.074219,35.308594 c 1.089843,0 1.867187,0.949218 1.800781,2.019531 0,0.941406 -0.839844,1.699219 -1.800781,1.699219 -1.035157,0 -1.871094,-0.691406 -1.933594,-1.699219 -0.06641,-1.070313 0.835937,-2.019531 1.933594,-2.019531"
       id="path1155" />
    <path
       style="fill:#1966ba;fill-opacity:1;fill-rule:nonzero;stroke:none"
       d="m 19.25,23.667969 3.289062,0.06641 v 3.960937 l -5.21875,-0.05859 1.929688,-3.96875"
       id="path1157" />
    <path
       style="fill:#1966ba;fill-opacity:1;fill-rule:nonzero;stroke:none"
       d="m 16.609375,23.667969 h 1.417969 l -1.867188,4.027343 h -1.355468 l 1.804687,-4.027343"
       id="path1159" />
  </g>
</svg>
