<?xml version="1.0" encoding="UTF-8" standalone="no"?>
<svg
   width="73pt"
   height="100pt"
   viewBox="0 0 73 100"
   version="1.1"
   id="svg2563"
   xmlns="http://www.w3.org/2000/svg"
   xmlns:svg="http://www.w3.org/2000/svg">
  <defs
     id="defs2567" />
  <g
     id="surface1">
    <path
       style="fill:#ffffff;fill-opacity:1;fill-rule:nonzero;stroke:none"
       d="M 1.085938,99.78125 H 71.953125 V 0.566406 H 1.085938 Z m 0,0"
       id="path2532" />
    <path
       style="fill:none;stroke:#211e1e;stroke-width:2.835;stroke-linecap:butt;stroke-linejoin:miter;stroke-miterlimit:4;stroke-opacity:1"
       d="M 10.859375,2.1875 H 719.53125 V 994.33594 H 10.859375 V 2.1875"
       transform="matrix(0.1,0,0,-0.1,0,100)"
       id="path2534" />
    <path
       style="fill:#1966ba;fill-opacity:1;fill-rule:nonzero;stroke:none"
       d="M 2.503906,98.359375 H 70.53125 v -96.375 H 2.503906 Z m 0,0"
       id="path2536" />
    <path
       style="fill:#ffffff;fill-opacity:1;fill-rule:nonzero;stroke:none"
       d="M 19.488281,57.96875 H 11.71875 V 14.035156 h 21.902344 c 1.808594,0 3.769531,0.703125 4.949218,2.28125 1.570313,2.046875 1.492188,4.015625 1.492188,4.015625 v 14.722657 c 0,1.027343 -0.316406,3.230468 -1.886719,4.804687 -1.414062,1.417969 -2.902343,1.96875 -4.554687,1.96875 H 19.488281 V 57.96875"
       id="path2538" />
    <path
       style="fill:#ffffff;fill-opacity:1;fill-rule:nonzero;stroke:none"
       d="m 52.601562,49.316406 h 8.722657 v -3.859375 h -8.722657 v -8.746093 h -3.796874 v 8.746093 l -8.742188,0.0039 v 3.847656 l 8.742188,0.0078 v 8.652344 h 3.796874 v -8.652344"
       id="path2540" />
    <path
       style="fill:#1966ba;fill-opacity:1;fill-rule:nonzero;stroke:none"
       d="m 19.480469,35.050781 v -14.09375 h 11.152343 c 0.46875,0 1.019532,0 1.335938,0.3125 0.3125,0.316407 0.390625,0.632813 0.390625,1.339844 v 10.789063 c 0,0.550781 -0.160156,1.023437 -0.472656,1.261718 -0.3125,0.3125 -0.625,0.390625 -1.175781,0.390625 H 19.480469"
       id="path2560" />
  </g>
  <g
     id="g3157"
     transform="translate(-108.89386,0.46309381)">
    <path
       style="fill:#ffffff;fill-opacity:1;fill-rule:nonzero;stroke:none"
       d="m 158.16925,87.238661 v -8.078125 h -4.80859 c -0.13672,0 -0.26953,0 -0.39844,-0.136719 -0.13672,-0.128906 -0.13672,-0.265625 -0.13672,-0.398437 v -6.347657 c 0,-0.128906 0,-0.261719 0.13672,-0.398437 0.12891,-0.132813 0.19531,-0.132813 0.32813,-0.132813 h 4.8125 v -1.070312 h -21.30469 c -0.40234,0.06641 -0.73438,0.132812 -1.07031,0.335937 -0.33203,0.269532 -0.60157,0.601563 -0.73438,1.003906 l -2.27344,8.542969 c -0.0625,0.335938 -0.0625,0.40625 -0.0625,0.605469 v 5.273438 c 0,0.199218 0.12891,0.402343 0.26563,0.535156 0.19922,0.132812 0.40234,0.265625 0.66797,0.265625 h 9.68359 c 0.26563,0 0.53516,-0.06641 0.73438,-0.199219 0.13281,-0.132812 0.26562,-0.332031 0.26562,-0.601562 -0.13281,-2.871094 2.27344,-5.273438 5.14453,-5.074219 2.53907,0.132812 4.60547,2.203125 4.60547,4.808593 0,0.265626 0.0703,0.535157 0.26953,0.734376 0.19922,0.199218 0.46875,0.332031 0.73438,0.332031 h 3.14062"
       id="path3093" />
    <path
       style="fill:#ffffff;fill-opacity:1;fill-rule:nonzero;stroke:none"
       d="m 149.35285,89.910536 c 2.40234,-0.203125 4.0039,-2.472656 3.33593,-4.808594 -0.73437,-2.605469 -4.07421,-3.539062 -6.07812,-1.667969 -0.59766,0.53125 -0.93359,1.199219 -1.13281,2.003907 -0.13282,0.734374 -0.0664,1.46875 0.26562,2.203124 0.26953,0.734376 0.80078,1.265626 1.47266,1.738282 0.66406,0.398437 1.39844,0.53125 2.13672,0.53125"
       id="path3095" />
    <path
       style="fill:#1966ba;fill-opacity:1;fill-rule:nonzero;stroke:none"
       d="m 151.75128,78.695692 v -6.28125 c 0,-0.132812 0,-0.335938 -0.0664,-0.464844 -0.13671,-0.136718 -0.26562,-0.203125 -0.46484,-0.203125 h -6.28125 c -0.19922,0 -0.39844,-0.06641 -0.60156,0.136719 -0.13281,0.132812 -0.13281,0.332031 -0.13281,0.464844 v 6.277344 c 0,0.136718 0.0664,0.265624 0.20312,0.398437 0.13282,0.136719 0.26563,0.136719 0.46485,0.136719 h 6.41406 c 0.13281,0 0.26172,-0.06641 0.33203,-0.136719 0.0664,-0.06641 0.13281,-0.199219 0.13281,-0.328125"
       id="path3097" />
    <path
       style="fill:#1966ba;fill-opacity:1;fill-rule:nonzero;stroke:none"
       d="m 143.21222,80.488661 v -7.882813 c 0,-0.53125 -0.40234,-0.929687 -0.87109,-0.929687 -0.46485,0.0625 -0.80078,0.398437 -0.86719,0.863281 l 0.0664,8.015625 c -0.0664,0.46875 0.33594,0.9375 0.87109,0.9375 0.46485,-0.06641 0.86719,-0.46875 0.80078,-1.003906"
       id="path3099" />
    <path
       style="fill:#1966ba;fill-opacity:1;fill-rule:nonzero;stroke:none"
       d="m 140.47003,80.62538 -0.0664,-8.019532 c 0.0664,-0.53125 -0.33593,-0.929687 -0.80078,-0.929687 -0.46875,0 -0.87109,0.398437 -0.87109,0.863281 v 7.949219 c -0.0664,0.535156 0.33594,1.003906 0.87109,1.003906 0.46485,0 0.80078,-0.402344 0.86719,-0.867187"
       id="path3101" />
    <path
       style="fill:#1966ba;fill-opacity:1;fill-rule:nonzero;stroke:none"
       d="m 137.79816,80.762098 -0.0664,-8.210937 c 0,-0.402344 -0.26563,-0.667969 -0.66797,-0.804688 -0.39844,-0.06641 -0.80078,0.06641 -1.00391,0.472657 l -2.26953,8.410156 c 0,0.06641 -0.13281,0.335937 0,0.535156 0.13282,0.199219 0.33594,0.199219 0.46875,0.199219 h 3.07422 c 0.13281,0 0.19922,-0.06641 0.26172,-0.132813 0.13672,-0.132812 0.20313,-0.265625 0.20313,-0.46875"
       id="path3103" />
    <path
       style="fill:#1966ba;fill-opacity:1;fill-rule:nonzero;stroke:none"
       d="m 149.16144,84.047254 c 1.16016,0 2.10938,0.945313 2.10938,2.109376 0,1.160156 -0.94922,2.109374 -2.10938,2.109374 -1.16406,0 -2.10937,-0.949218 -2.10937,-2.109374 0,-1.164063 0.94531,-2.109376 2.10937,-2.109376"
       id="path3105" />
  </g>
</svg>
