<?xml version="1.0" encoding="UTF-8" standalone="no"?>
<svg
   width="73pt"
   height="100pt"
   viewBox="0 0 73 100"
   version="1.1"
   id="svg2563"
   xmlns="http://www.w3.org/2000/svg"
   xmlns:svg="http://www.w3.org/2000/svg">
  <defs
     id="defs2567" />
  <g
     id="g2992">
    <g
       id="surface1">
      <path
         style="fill:#ffffff;fill-opacity:1;fill-rule:nonzero;stroke:none"
         d="M 1.085938,99.78125 H 71.953125 V 0.566406 H 1.085938 Z m 0,0"
         id="path2532" />
      <path
         style="fill:none;stroke:#211e1e;stroke-width:2.835;stroke-linecap:butt;stroke-linejoin:miter;stroke-miterlimit:4;stroke-opacity:1"
         d="M 10.859375,2.1875 H 719.53125 V 994.33594 H 10.859375 V 2.1875"
         transform="matrix(0.1,0,0,-0.1,0,100)"
         id="path2534" />
      <path
         style="fill:#1966ba;fill-opacity:1;fill-rule:nonzero;stroke:none"
         d="M 2.503906,98.359375 H 70.53125 v -96.375 H 2.503906 Z m 0,0"
         id="path2536" />
      <path
         style="fill:#ffffff;fill-opacity:1;fill-rule:nonzero;stroke:none"
         d="M 19.488281,57.96875 H 11.71875 V 14.035156 h 21.902344 c 1.808594,0 3.769531,0.703125 4.949218,2.28125 1.570313,2.046875 1.492188,4.015625 1.492188,4.015625 v 14.722657 c 0,1.027343 -0.316406,3.230468 -1.886719,4.804687 -1.414062,1.417969 -2.902343,1.96875 -4.554687,1.96875 H 19.488281 V 57.96875"
         id="path2538" />
      <path
         style="fill:#ffffff;fill-opacity:1;fill-rule:nonzero;stroke:none"
         d="m 52.601562,49.316406 h 8.722657 v -3.859375 h -8.722657 v -8.746093 h -3.796874 v 8.746093 l -8.742188,0.0039 v 3.847656 l 8.742188,0.0078 v 8.652344 h 3.796874 v -8.652344"
         id="path2540" />
      <path
         style="fill:#1966ba;fill-opacity:1;fill-rule:nonzero;stroke:none"
         d="m 19.480469,35.050781 v -14.09375 h 11.152343 c 0.46875,0 1.019532,0 1.335938,0.3125 0.3125,0.316407 0.390625,0.632813 0.390625,1.339844 v 10.789063 c 0,0.550781 -0.160156,1.023437 -0.472656,1.261718 -0.3125,0.3125 -0.625,0.390625 -1.175781,0.390625 H 19.480469"
         id="path2560" />
    </g>
    <g
       id="g2733"
       transform="translate(-127.42133,2.5470157)">
      <path
         style="fill:#ffffff;fill-opacity:1;fill-rule:nonzero;stroke:none"
         d="m 151.185,89.948412 h 25.51172 V 88.983568 H 151.185 Z m 0,0"
         id="path2596" />
      <path
         style="fill:#ffffff;fill-opacity:1;fill-rule:nonzero;stroke:none"
         d="m 158.10687,86.725756 h 5.3125 c -0.40234,1.050781 -1.53125,1.773437 -2.73828,1.773437 -1.125,0 -2.17187,-0.722656 -2.57422,-1.773437"
         id="path2598" />
      <path
         style="fill:#ffffff;fill-opacity:1;fill-rule:nonzero;stroke:none"
         d="m 164.46625,86.725756 5.23047,-0.07813 c -0.40235,1.128907 -1.36719,1.773438 -2.57422,1.851563 -1.125,0 -2.25391,-0.722656 -2.65625,-1.773437"
         id="path2600" />
      <path
         style="fill:#ffffff;fill-opacity:1;fill-rule:nonzero;stroke:none"
         d="m 151.58734,85.600756 c -0.082,0 -0.16015,0 -0.23828,-0.07813 -0.082,-0.08203 -0.082,-0.164058 -0.082,-0.324214 v -3.621094 c 0,-0.08203 0,-0.160156 0,-0.160156 0,-0.08203 0,-0.160156 0,-0.246094 l 2.73437,-9.09375 c 0.16016,-0.320312 0.40235,-0.640625 0.72657,-0.800781 0.32031,-0.160157 0.64062,-0.242188 0.96484,-0.242188 h 4.34375 l 5.63672,-5.554687 c 0.23828,-0.15625 0.48047,-0.15625 0.64453,0.08203 0.15625,0.160156 0.15625,0.320313 0,0.484375 l -4.91016,4.988281 h 15.20704 v 0.964844 h -5.23047 c -0.0781,0 -0.16016,0 -0.24219,0.07813 -0.16016,0.164062 -0.23828,0.324219 -0.23828,0.488281 l 0.0781,6.355469 c -0.0781,0.160156 0,0.242188 0.082,0.402344 0.0781,0.08203 0.24219,0.08203 0.39844,0.08203 h 5.15234 v 6.195313 h -25.02735"
         id="path2602" />
      <path
         style="fill:#ffffff;fill-opacity:1;fill-rule:nonzero;stroke:none"
         d="m 151.26703,65.081224 h 25.34766 v -0.484375 h -25.34766 z m 0,0"
         id="path2604" />
      <path
         style="fill:#1966ba;fill-opacity:1;fill-rule:nonzero;stroke:none"
         d="m 169.53656,79.409349 h -6.43359 c -0.16407,0.07813 -0.32422,0 -0.40235,-0.164062 -0.0859,-0.07813 -0.16406,-0.238281 -0.16406,-0.402344 v -6.4375 c 0.0781,-0.08203 0.0781,-0.160156 0.16406,-0.242187 0.0781,-0.08203 0.23828,-0.160157 0.40235,-0.160157 h 6.43359 c 0.082,0 0.24219,0.07813 0.32031,0.160157 0.0859,0.08203 0.16407,0.242187 0.16407,0.402343 v 6.277344 c 0,0.08203 -0.0781,0.242187 -0.16407,0.402344 -0.0781,0.08203 -0.15625,0.164062 -0.32031,0.164062"
         id="path2606" />
      <path
         style="fill:#1966ba;fill-opacity:1;fill-rule:nonzero;stroke:none"
         d="m 161.64984,80.854662 c 0,0.324218 -0.24219,0.644531 -0.64453,0.726562 -0.48047,0.08203 -0.88281,-0.238281 -0.88281,-0.726562 l -0.082,-8.207032 c 0.082,-0.484374 0.48437,-0.804687 0.88672,-0.722656 0.40234,0 0.72265,0.320313 0.72265,0.722656 v 8.207032"
         id="path2608" />
      <path
         style="fill:#1966ba;fill-opacity:1;fill-rule:nonzero;stroke:none"
         d="m 159.07562,80.940599 c 0,0.402344 -0.40234,0.722657 -0.80468,0.722657 -0.39844,-0.08203 -0.72266,-0.402344 -0.72266,-0.808594 V 72.64763 c 0,-0.484374 0.40234,-0.804687 0.88281,-0.804687 0.40625,0.08203 0.64453,0.402344 0.64453,0.804687 v 8.292969"
         id="path2610" />
      <path
         style="fill:#1966ba;fill-opacity:1;fill-rule:nonzero;stroke:none"
         d="m 156.57953,80.940599 c 0,0.160157 0,0.324219 -0.16406,0.402344 -0.0781,0.08203 -0.15625,0.160156 -0.32032,0.160156 h -3.30078 c -0.0781,0 -0.24218,0 -0.32031,-0.07813 -0.16016,-0.160156 -0.16016,-0.324218 -0.16016,-0.402344 l 2.73438,-8.613276 c 0.16016,-0.402343 0.56641,-0.566406 0.96875,-0.480469 0.32031,0.07813 0.5625,0.402344 0.5625,0.800782 v 8.210937"
         id="path2612" />
    </g>
  </g>
</svg>
