<?xml version="1.0" encoding="UTF-8" standalone="no"?>
<svg
   width="81pt"
   height="58pt"
   viewBox="0 0 81 58"
   version="1.1"
   id="svg877"
   sodipodi:docname="427-1.svg"
   inkscape:version="1.1.2 (b8e25be8, 2022-02-05)"
   xmlns:inkscape="http://www.inkscape.org/namespaces/inkscape"
   xmlns:sodipodi="http://sodipodi.sourceforge.net/DTD/sodipodi-0.dtd"
   xmlns="http://www.w3.org/2000/svg"
   xmlns:svg="http://www.w3.org/2000/svg">
  <defs
     id="defs881" />
  <sodipodi:namedview
     id="namedview879"
     pagecolor="#ffffff"
     bordercolor="#666666"
     borderopacity="1.0"
     inkscape:pageshadow="2"
     inkscape:pageopacity="0.0"
     inkscape:pagecheckerboard="0"
     inkscape:document-units="pt"
     showgrid="false"
     inkscape:zoom="5.1887368"
     inkscape:cx="57.528453"
     inkscape:cy="30.546934"
     inkscape:window-width="1312"
     inkscape:window-height="785"
     inkscape:window-x="0"
     inkscape:window-y="25"
     inkscape:window-maximized="0"
     inkscape:current-layer="surface1" />
  <g
     id="surface1">
    <g
       id="g1101">
      <path
         style=" stroke:none;fill-rule:nonzero;fill:rgb(100%,100%,100%);fill-opacity:1;"
         d="M 0.832031 57.519531 L 80.203125 57.519531 L 80.203125 0.828125 L 0.832031 0.828125 Z M 0.832031 57.519531 "
         id="path824" />
      <path
         style="fill:none;stroke-width:2.835;stroke-linecap:butt;stroke-linejoin:miter;stroke:rgb(13.729858%,12.159729%,12.548828%);stroke-opacity:1;stroke-miterlimit:4;"
         d="M 8.320312 4.804688 L 802.03125 4.804688 L 802.03125 571.71875 L 8.320312 571.71875 L 8.320312 4.804688 "
         transform="matrix(0.1,0,0,-0.1,0,58)"
         id="path826" />
      <path
         style=" stroke:none;fill-rule:nonzero;fill:rgb(10.112%,40.585327%,73.280334%);fill-opacity:1;"
         d="M 1.96875 56.386719 L 79.070312 56.386719 L 79.070312 1.960938 L 1.96875 1.960938 Z M 1.96875 56.386719 "
         id="path828" />
      <path
         style="fill:#ffffff;fill-opacity:1;fill-rule:nonzero;stroke:none"
         d="m 27.800781,34.535156 h 3.238281 c 0.597657,0 1.125,-0.08203 1.585938,-0.253906 0.460938,-0.15625 0.835938,-0.394531 1.160156,-0.683594 0.324219,-0.289062 0.5625,-0.644531 0.734375,-1.054687 0.152344,-0.394531 0.238281,-0.839844 0.238281,-1.3125 0,-0.460938 -0.06641,-0.855469 -0.1875,-1.214844 -0.136718,-0.339844 -0.304687,-0.628906 -0.511718,-0.867187 -0.21875,-0.222657 -0.460938,-0.410157 -0.714844,-0.550782 -0.273438,-0.132812 -0.546875,-0.21875 -0.816406,-0.269531 v -0.03516 c 0.25,-0.08594 0.492187,-0.1875 0.730468,-0.339844 0.21875,-0.136719 0.425782,-0.308594 0.613282,-0.527344 0.1875,-0.222656 0.324218,-0.480469 0.441406,-0.789062 0.121094,-0.285157 0.171875,-0.648438 0.171875,-1.039063 0,-0.957031 -0.269531,-1.6875 -0.820313,-2.199218 -0.558593,-0.511719 -1.429687,-0.765626 -2.625,-0.765626 h -3.238281 v 11.902344"
         id="path834" />
      <path
         style="fill:#ffffff;fill-opacity:1;fill-rule:nonzero;stroke:none"
         d="m 36.882812,34.535156 h 1.773438 v -8.75 h -1.773438 v 8.75"
         id="path836" />
      <path
         style="fill:#ffffff;fill-opacity:1;fill-rule:nonzero;stroke:none"
         d="m 36.832031,24.027344 h 1.875 v -1.890625 h -1.875 v 1.890625"
         id="path838" />
      <path
         style="fill:#ffffff;fill-opacity:1;fill-rule:nonzero;stroke:none"
         d="m 42.472656,30.664062 h 4.996094 v -0.59375 c 0,-0.769531 -0.08203,-1.417968 -0.238281,-1.980468 -0.152344,-0.566406 -0.375,-1.023438 -0.664063,-1.382813 C 46.277344,26.351562 45.917969,26.09375 45.527344,25.921875 45.117188,25.75 44.671875,25.667969 44.195312,25.667969 c -0.542968,0 -1.039062,0.101562 -1.464843,0.320312 -0.445313,0.222657 -0.820313,0.546875 -1.109375,0.941407 -0.292969,0.410156 -0.53125,0.886718 -0.683594,1.449218 -0.152344,0.5625 -0.238281,1.175782 -0.238281,1.839844 0,0.632812 0.08594,1.230469 0.238281,1.777344 0.152344,0.546875 0.375,1.003906 0.699219,1.398437 0.304687,0.390625 0.699219,0.699219 1.175781,0.921875 0.476562,0.234375 1.042969,0.335938 1.671875,0.335938 0.546875,0 1.042969,-0.05078 1.46875,-0.167969 0.425781,-0.121094 0.765625,-0.238281 1.054687,-0.359375 l -0.08203,-1.480469 c -0.222656,0.152344 -0.515625,0.308594 -0.851562,0.457031 -0.359375,0.15625 -0.789063,0.242188 -1.296875,0.242188 -0.820313,0 -1.398438,-0.222656 -1.757813,-0.683594 -0.359375,-0.441406 -0.546875,-1.109375 -0.546875,-1.996094"
         id="path840" />
      <path
         style="fill:#ffffff;fill-opacity:1;fill-rule:nonzero;stroke:none"
         d="m 49.609375,34.535156 h 1.773437 V 21.746094 h -1.773437 v 12.789062"
         id="path842" />
      <path
         style="fill:#1966ba;fill-opacity:1;fill-rule:nonzero;stroke:none"
         d="m 29.609375,27.699219 v -3.652344 h 1.109375 c 0.664062,0 1.160156,0.15625 1.480469,0.476563 0.328125,0.324218 0.476562,0.753906 0.476562,1.261718 0,0.566406 -0.167969,1.027344 -0.511719,1.382813 -0.355468,0.355469 -0.867187,0.53125 -1.550781,0.53125 h -1.003906"
         id="path862" />
      <path
         style="fill:#1966ba;fill-opacity:1;fill-rule:nonzero;stroke:none"
         d="m 29.609375,33.085938 v -3.972657 h 1.292969 c 0.359375,0 0.648437,0.05078 0.90625,0.152344 0.257812,0.101563 0.460937,0.238281 0.628906,0.429687 0.152344,0.1875 0.273438,0.390626 0.359375,0.628907 0.08594,0.238281 0.121094,0.492187 0.121094,0.785156 0,0.5625 -0.171875,1.039063 -0.511719,1.414063 -0.339844,0.375 -0.855469,0.5625 -1.554688,0.5625 h -1.242187"
         id="path864" />
      <path
         style="fill:#1966ba;fill-opacity:1;fill-rule:nonzero;stroke:none"
         d="m 42.472656,29.453125 c 0.01563,-0.800781 0.171875,-1.433594 0.460938,-1.875 0.289062,-0.425781 0.699218,-0.648437 1.210937,-0.648437 1.058594,0 1.585938,0.835937 1.585938,2.523437 h -3.257813"
         id="path866" />
    </g>
  </g>
</svg>
