<?xml version="1.0" encoding="UTF-8" standalone="no"?>
<svg
   width="81pt"
   height="58pt"
   viewBox="0 0 81 58"
   version="1.1"
   id="svg877"
   sodipodi:docname="427-2.svg"
   inkscape:version="1.1.2 (b8e25be8, 2022-02-05)"
   xmlns:inkscape="http://www.inkscape.org/namespaces/inkscape"
   xmlns:sodipodi="http://sodipodi.sourceforge.net/DTD/sodipodi-0.dtd"
   xmlns="http://www.w3.org/2000/svg"
   xmlns:svg="http://www.w3.org/2000/svg">
  <defs
     id="defs881" />
  <sodipodi:namedview
     id="namedview879"
     pagecolor="#ffffff"
     bordercolor="#666666"
     borderopacity="1.0"
     inkscape:pageshadow="2"
     inkscape:pageopacity="0.0"
     inkscape:pagecheckerboard="0"
     inkscape:document-units="pt"
     showgrid="false"
     inkscape:zoom="5.1887368"
     inkscape:cx="76.993691"
     inkscape:cy="30.546934"
     inkscape:window-width="1312"
     inkscape:window-height="785"
     inkscape:window-x="0"
     inkscape:window-y="25"
     inkscape:window-maximized="0"
     inkscape:current-layer="surface1" />
  <g
     id="surface1">
    <g
       id="g952">
      <path
         style=" stroke:none;fill-rule:nonzero;fill:rgb(100%,100%,100%);fill-opacity:1;"
         d="M 0.832031 57.519531 L 80.203125 57.519531 L 80.203125 0.828125 L 0.832031 0.828125 Z M 0.832031 57.519531 "
         id="path824" />
      <path
         style="fill:none;stroke-width:2.835;stroke-linecap:butt;stroke-linejoin:miter;stroke:rgb(13.729858%,12.159729%,12.548828%);stroke-opacity:1;stroke-miterlimit:4;"
         d="M 8.320312 4.804688 L 802.03125 4.804688 L 802.03125 571.71875 L 8.320312 571.71875 L 8.320312 4.804688 "
         transform="matrix(0.1,0,0,-0.1,0,58)"
         id="path826" />
      <path
         style=" stroke:none;fill-rule:nonzero;fill:rgb(10.112%,40.585327%,73.280334%);fill-opacity:1;"
         d="M 1.96875 56.386719 L 79.070312 56.386719 L 79.070312 1.960938 L 1.96875 1.960938 Z M 1.96875 56.386719 "
         id="path828" />
      <path
         style="fill:#ffffff;fill-opacity:1;fill-rule:nonzero;stroke:none"
         d="m 27.800781,25.535156 h 3.238281 c 0.597657,0 1.125,-0.08203 1.585938,-0.253906 0.460938,-0.15625 0.835938,-0.394531 1.160156,-0.683594 0.324219,-0.289062 0.5625,-0.644531 0.734375,-1.054687 0.152344,-0.394531 0.238281,-0.839844 0.238281,-1.3125 0,-0.460938 -0.06641,-0.855469 -0.1875,-1.214844 -0.136718,-0.339844 -0.304687,-0.628906 -0.511718,-0.867187 -0.21875,-0.222657 -0.460938,-0.410157 -0.714844,-0.550782 -0.273438,-0.132812 -0.546875,-0.21875 -0.816406,-0.269531 v -0.03516 c 0.25,-0.08594 0.492187,-0.1875 0.730468,-0.339844 0.21875,-0.136719 0.425782,-0.308594 0.613282,-0.527344 0.1875,-0.222656 0.324218,-0.480469 0.441406,-0.789062 0.121094,-0.285157 0.171875,-0.648438 0.171875,-1.039063 0,-0.957031 -0.269531,-1.6875 -0.820313,-2.199218 -0.558593,-0.511719 -1.429687,-0.765626 -2.625,-0.765626 h -3.238281 v 11.902344"
         id="path834" />
      <path
         style="fill:#ffffff;fill-opacity:1;fill-rule:nonzero;stroke:none"
         d="m 36.882812,25.535156 h 1.773438 v -8.75 h -1.773438 v 8.75"
         id="path836" />
      <path
         style="fill:#ffffff;fill-opacity:1;fill-rule:nonzero;stroke:none"
         d="m 36.832031,15.027344 h 1.875 v -1.890625 h -1.875 v 1.890625"
         id="path838" />
      <path
         style="fill:#ffffff;fill-opacity:1;fill-rule:nonzero;stroke:none"
         d="m 42.472656,21.664062 h 4.996094 v -0.59375 c 0,-0.769531 -0.08203,-1.417968 -0.238281,-1.980468 -0.152344,-0.566406 -0.375,-1.023438 -0.664063,-1.382813 C 46.277344,17.351562 45.917969,17.09375 45.527344,16.921875 45.117188,16.75 44.671875,16.667969 44.195312,16.667969 c -0.542968,0 -1.039062,0.101562 -1.464843,0.320312 -0.445313,0.222657 -0.820313,0.546875 -1.109375,0.941407 -0.292969,0.410156 -0.53125,0.886718 -0.683594,1.449218 -0.152344,0.5625 -0.238281,1.175782 -0.238281,1.839844 0,0.632812 0.08594,1.230469 0.238281,1.777344 0.152344,0.546875 0.375,1.003906 0.699219,1.398437 0.304687,0.390625 0.699219,0.699219 1.175781,0.921875 0.476562,0.234375 1.042969,0.335938 1.671875,0.335938 0.546875,0 1.042969,-0.05078 1.46875,-0.167969 0.425781,-0.121094 0.765625,-0.238281 1.054687,-0.359375 l -0.08203,-1.480469 c -0.222656,0.152344 -0.515625,0.308594 -0.851562,0.457031 -0.359375,0.15625 -0.789063,0.242188 -1.296875,0.242188 -0.820313,0 -1.398438,-0.222656 -1.757813,-0.683594 -0.359375,-0.441406 -0.546875,-1.109375 -0.546875,-1.996094"
         id="path840" />
      <path
         style="fill:#ffffff;fill-opacity:1;fill-rule:nonzero;stroke:none"
         d="m 49.609375,25.535156 h 1.773437 V 12.746094 h -1.773437 v 12.789062"
         id="path842" />
      <path
         style="fill:#ffffff;fill-opacity:1;fill-rule:nonzero;stroke:none"
         d="m 16.585938,43.675781 h 3.238281 c 0.597656,0 1.125,-0.08594 1.585937,-0.257812 0.460938,-0.152344 0.835938,-0.390625 1.160156,-0.679688 0.324219,-0.292969 0.5625,-0.648437 0.734376,-1.058593 0.15625,-0.394532 0.238281,-0.835938 0.238281,-1.3125 0,-0.460938 -0.06641,-0.855469 -0.1875,-1.210938 C 23.21875,38.816406 23.050781,38.523438 22.84375,38.285156 22.625,38.0625 22.386719,37.875 22.128906,37.738281 21.855469,37.601562 21.582031,37.519531 21.308594,37.46875 v -0.03516 c 0.253906,-0.08594 0.496094,-0.1875 0.734375,-0.34375 0.222656,-0.136719 0.425781,-0.304688 0.613281,-0.527344 0.1875,-0.222656 0.324219,-0.476562 0.441406,-0.785156 0.121094,-0.289063 0.175782,-0.648438 0.175782,-1.039063 0,-0.957031 -0.277344,-1.691406 -0.820313,-2.203125 -0.5625,-0.511718 -1.433594,-0.765625 -2.628906,-0.765625 h -3.238281 v 11.90625"
         id="path844" />
      <path
         style="fill:#ffffff;fill-opacity:1;fill-rule:nonzero;stroke:none"
         d="m 25.667969,43.675781 h 1.773437 v -8.753906 h -1.773437 v 8.753906"
         id="path846" />
      <path
         style="fill:#ffffff;fill-opacity:1;fill-rule:nonzero;stroke:none"
         d="m 25.617188,33.167969 h 1.875 v -1.894531 h -1.875 v 1.894531"
         id="path848" />
      <path
         style="fill:#ffffff;fill-opacity:1;fill-rule:nonzero;stroke:none"
         d="m 31.261719,39.800781 h 4.996093 v -0.59375 c 0,-0.769531 -0.08203,-1.417969 -0.238281,-1.980469 -0.152343,-0.5625 -0.375,-1.023437 -0.667969,-1.382812 -0.285156,-0.355469 -0.644531,-0.613281 -1.039062,-0.78125 -0.40625,-0.171875 -0.851562,-0.257812 -1.328125,-0.257812 -0.546875,0 -1.039063,0.101562 -1.46875,0.324218 -0.441406,0.222656 -0.816406,0.546875 -1.109375,0.9375 -0.289062,0.410156 -0.527344,0.886719 -0.679688,1.453125 -0.152343,0.5625 -0.238281,1.175781 -0.238281,1.839844 0,0.628906 0.08594,1.230469 0.238281,1.773437 0.152344,0.546876 0.375,1.007813 0.699219,1.398438 0.304688,0.394531 0.699219,0.699219 1.175781,0.921875 0.476563,0.238281 1.042969,0.339844 1.671876,0.339844 0.546874,0 1.039062,-0.05078 1.464843,-0.167969 0.425781,-0.121094 0.769531,-0.238281 1.058594,-0.359375 l -0.08203,-1.484375 c -0.222656,0.152344 -0.515625,0.308594 -0.855469,0.460938 -0.359375,0.152343 -0.785156,0.238281 -1.292969,0.238281 -0.824218,0 -1.402344,-0.222657 -1.757812,-0.683594 C 31.44922,41.355469 31.26172,40.691406 31.26172,39.800781"
         id="path850" />
      <path
         style="fill:#ffffff;fill-opacity:1;fill-rule:nonzero;stroke:none"
         d="m 38.355469,43.675781 h 1.773437 v -5.1875 c 0,-0.683593 0.136719,-1.226562 0.425782,-1.621093 0.273437,-0.390626 0.683593,-0.578126 1.242187,-0.578126 0.464844,0 0.789063,0.152344 1.007813,0.460938 0.207031,0.308594 0.308593,0.800781 0.308593,1.484375 v 5.441406 h 1.773438 v -5.851562 c 0,-0.921875 -0.207031,-1.652344 -0.613281,-2.199219 -0.410157,-0.546875 -1.058594,-0.820312 -1.945313,-0.820312 -0.511719,0 -0.957031,0.117187 -1.347656,0.375 -0.390625,0.257812 -0.699219,0.613281 -0.921875,1.074218 h -0.03516 c 0,-0.05078 0,-0.152344 0,-0.273437 -0.01563,-0.117188 -0.01563,-0.253907 -0.03516,-0.390625 -0.01563,-0.136719 -0.01563,-0.269532 -0.01563,-0.390625 -0.01563,-0.121094 -0.01563,-0.222657 -0.01563,-0.277344 h -1.667969 c 0.01563,0.257813 0.03516,0.53125 0.05078,0.804687 0.01563,0.289063 0.01563,0.578126 0.01563,0.871094 v 7.078125"
         id="path852" />
      <path
         style="fill:#ffffff;fill-opacity:1;fill-rule:nonzero;stroke:none"
         d="m 47.328125,43.675781 h 1.773437 v -5.1875 c 0,-0.683593 0.136719,-1.226562 0.425782,-1.621093 0.273437,-0.390626 0.683594,-0.578126 1.246094,-0.578126 0.460937,0 0.785156,0.152344 1.007812,0.460938 0.203125,0.308594 0.304688,0.800781 0.304688,1.484375 v 5.441406 h 1.773437 v -5.851562 c 0,-0.921875 -0.203125,-1.652344 -0.613281,-2.199219 -0.40625,-0.546875 -1.054688,-0.820312 -1.945313,-0.820312 -0.511719,0 -0.953125,0.117187 -1.34375,0.375 C 49.5625,35.4375 49.253906,35.792969 49.03125,36.253906 H 49 c 0,-0.05078 0,-0.152344 0,-0.273437 -0.01953,-0.117188 -0.01953,-0.253907 -0.03516,-0.390625 -0.01563,-0.136719 -0.01563,-0.269532 -0.01563,-0.390625 -0.01953,-0.121094 -0.01953,-0.222657 -0.01953,-0.277344 h -1.667969 c 0.01563,0.257813 0.03125,0.53125 0.05078,0.804687 0.01563,0.289063 0.01563,0.578126 0.01563,0.871094 v 7.078125"
         id="path854" />
      <path
         style="fill:#ffffff;fill-opacity:1;fill-rule:nonzero;stroke:none"
         d="m 57.605469,39.800781 h 4.996093 v -0.59375 c 0,-0.769531 -0.08203,-1.417969 -0.238281,-1.980469 -0.152343,-0.5625 -0.375,-1.023437 -0.667969,-1.382812 -0.285156,-0.355469 -0.648437,-0.613281 -1.039062,-0.78125 -0.410156,-0.171875 -0.851562,-0.257812 -1.328125,-0.257812 -0.546875,0 -1.042969,0.101562 -1.46875,0.324218 -0.441406,0.222656 -0.816406,0.546875 -1.105469,0.9375 -0.292968,0.410156 -0.53125,0.886719 -0.683594,1.453125 -0.152343,0.5625 -0.238281,1.175781 -0.238281,1.839844 0,0.628906 0.08594,1.230469 0.238281,1.773437 0.152344,0.546876 0.375,1.007813 0.699219,1.398438 0.304688,0.394531 0.699219,0.699219 1.175781,0.921875 0.476563,0.238281 1.039063,0.339844 1.671876,0.339844 0.542968,0 1.039062,-0.05078 1.464843,-0.167969 0.429688,-0.121094 0.769531,-0.238281 1.058594,-0.359375 l -0.08594,-1.484375 c -0.21875,0.152344 -0.511719,0.308594 -0.851563,0.460938 -0.359375,0.152343 -0.785156,0.238281 -1.296875,0.238281 -0.816406,0 -1.398438,-0.222657 -1.753906,-0.683594 -0.363282,-0.441406 -0.546875,-1.105469 -0.546875,-1.996094"
         id="path856" />
      <path
         style="fill:#1966ba;fill-opacity:1;fill-rule:nonzero;stroke:none"
         d="m 29.609375,18.699219 v -3.652344 h 1.109375 c 0.664062,0 1.160156,0.15625 1.480469,0.476563 0.328125,0.324218 0.476562,0.753906 0.476562,1.261718 0,0.566406 -0.167969,1.027344 -0.511719,1.382813 -0.355468,0.355469 -0.867187,0.53125 -1.550781,0.53125 h -1.003906"
         id="path862" />
      <path
         style="fill:#1966ba;fill-opacity:1;fill-rule:nonzero;stroke:none"
         d="m 29.609375,24.085938 v -3.972657 h 1.292969 c 0.359375,0 0.648437,0.05078 0.90625,0.152344 0.257812,0.101563 0.460937,0.238281 0.628906,0.429687 0.152344,0.1875 0.273438,0.390626 0.359375,0.628907 0.08594,0.238281 0.121094,0.492187 0.121094,0.785156 0,0.5625 -0.171875,1.039063 -0.511719,1.414063 -0.339844,0.375 -0.855469,0.5625 -1.554688,0.5625 h -1.242187"
         id="path864" />
      <path
         style="fill:#1966ba;fill-opacity:1;fill-rule:nonzero;stroke:none"
         d="m 42.472656,20.453125 c 0.01563,-0.800781 0.171875,-1.433594 0.460938,-1.875 0.289062,-0.425781 0.699218,-0.648437 1.210937,-0.648437 1.058594,0 1.585938,0.835937 1.585938,2.523437 h -3.257813"
         id="path866" />
      <path
         style="fill:#1966ba;fill-opacity:1;fill-rule:nonzero;stroke:none"
         d="m 18.394531,36.835938 v -3.652344 h 1.109375 c 0.664063,0 1.160156,0.15625 1.480469,0.480468 0.324219,0.324219 0.480469,0.75 0.480469,1.257813 0,0.566406 -0.171875,1.027344 -0.515625,1.382813 -0.355469,0.359374 -0.867188,0.53125 -1.550781,0.53125 h -1.003907"
         id="path868" />
      <path
         style="fill:#1966ba;fill-opacity:1;fill-rule:nonzero;stroke:none"
         d="M 18.394531,42.222656 V 38.25 H 19.6875 c 0.359375,0 0.648438,0.05078 0.90625,0.152344 0.253906,0.105468 0.460938,0.238281 0.628906,0.429687 0.15625,0.1875 0.273438,0.390625 0.359375,0.632813 0.08594,0.238281 0.121094,0.492187 0.121094,0.78125 0,0.5625 -0.171875,1.039062 -0.511719,1.417968 -0.34375,0.371094 -0.855468,0.558594 -1.554687,0.558594 h -1.242188"
         id="path870" />
      <path
         style="fill:#1966ba;fill-opacity:1;fill-rule:nonzero;stroke:none"
         d="m 31.261719,38.59375 c 0.01563,-0.804688 0.167969,-1.433594 0.460937,-1.878906 0.289063,-0.425782 0.699219,-0.648438 1.207032,-0.648438 1.0625,0 1.589843,0.835938 1.589843,2.527344 h -3.257812"
         id="path872" />
      <path
         style="fill:#1966ba;fill-opacity:1;fill-rule:nonzero;stroke:none"
         d="m 57.605469,38.59375 c 0.01563,-0.804688 0.167969,-1.433594 0.460937,-1.878906 0.289063,-0.425782 0.699219,-0.648438 1.207032,-0.648438 1.0625,0 1.585937,0.835938 1.585937,2.527344 h -3.253906"
         id="path874" />
    </g>
  </g>
</svg>
