<?xml version="1.0" encoding="UTF-8" standalone="no"?>
<svg
   width="81pt"
   height="59pt"
   viewBox="0 0 81 59"
   version="1.1"
   id="svg841"
   sodipodi:docname="429-3.svg"
   inkscape:version="1.1.2 (b8e25be8, 2022-02-05)"
   xmlns:inkscape="http://www.inkscape.org/namespaces/inkscape"
   xmlns:sodipodi="http://sodipodi.sourceforge.net/DTD/sodipodi-0.dtd"
   xmlns="http://www.w3.org/2000/svg"
   xmlns:svg="http://www.w3.org/2000/svg">
  <defs
     id="defs845" />
  <sodipodi:namedview
     id="namedview843"
     pagecolor="#ffffff"
     bordercolor="#666666"
     borderopacity="1.0"
     inkscape:pageshadow="2"
     inkscape:pageopacity="0.0"
     inkscape:pagecheckerboard="0"
     inkscape:document-units="pt"
     showgrid="false"
     inkscape:zoom="1.6247324"
     inkscape:cx="94.784837"
     inkscape:cy="50.777591"
     inkscape:window-width="1312"
     inkscape:window-height="785"
     inkscape:window-x="0"
     inkscape:window-y="25"
     inkscape:window-maximized="0"
     inkscape:current-layer="surface1" />
  <g
     id="surface1">
    <path
       style="fill:#211e1e;fill-opacity:1;fill-rule:nonzero;stroke:none"
       d="M 0.832031,57.519531 H 80.203125 V 0.828125 H 0.832031 Z m 0,0"
       id="path824" />
    <path
       style="fill:none;stroke:#ffffff;stroke-width:1;stroke-linecap:butt;stroke-linejoin:miter;stroke-miterlimit:4;stroke-opacity:1"
       d="M 0.8320312,57.519531 H 80.203125 V 0.828125 H 0.8320312 v 56.691406"
       id="path826" />
    <path
       style="fill:#ffffff;fill-opacity:1;fill-rule:nonzero;stroke:none"
       d="M 1.96875,56.386719 H 79.070312 V 1.960938 H 1.96875 Z m 0,0"
       id="path828" />
    <g
       id="g8062"
       transform="matrix(0.6600885,0,0,0.6600885,13.773054,-1.0376259)">
      <path
         style="fill:#211e1e;fill-opacity:1;fill-rule:nonzero;stroke:none"
         d="m 11.113281,33.557099 h 2.84375 V 16.725068 h 0.05469 l 5.089843,16.832031 h 2.1875 l 5.316407,-16.832031 h 0.05469 v 16.832031 h 2.84375 V 13.713349 H 24.98438 l -4.632813,15.292969 h -0.05859 L 15.777344,13.713349 h -4.664063 v 19.84375"
         id="path830" />
      <path
         style="fill:#211e1e;fill-opacity:1;fill-rule:nonzero;stroke:none"
         d="m 41.449219,33.557099 h 2.671875 c -0.03125,-0.253907 -0.08984,-0.625 -0.117188,-1.054688 -0.02734,-0.425781 -0.05469,-0.878906 -0.05469,-1.363281 v -6.964844 c 0,-0.964844 -0.08594,-1.761718 -0.285157,-2.386718 -0.195312,-0.625 -0.511718,-1.136719 -0.878906,-1.5625 C 42.46875,19.853974 41.960938,19.51413 41.277344,19.20163 40.59375,18.916474 39.71875,18.775849 38.609375,18.775849 c -0.941406,0 -1.765625,0.113281 -2.476563,0.339843 -0.710937,0.226563 -1.363281,0.484376 -1.902343,0.796876 l 0.226562,2.527343 c 0.371094,-0.367187 0.910157,-0.710937 1.621094,-1.019531 0.679687,-0.285156 1.421875,-0.425781 2.246094,-0.425781 1.050781,0 1.789062,0.28125 2.242187,0.851562 0.226563,0.28125 0.398438,0.59375 0.484375,0.933594 0.08203,0.371094 0.109375,0.769531 0.109375,1.226563 v 0.59375 h -1.046875 c -2.359375,0 -4.179687,0.398437 -5.398437,1.167968 -1.226563,0.792969 -1.851563,2.046875 -1.851563,3.75 0,0.683594 0.117188,1.28125 0.34375,1.820313 0.226563,0.542969 0.539063,0.96875 0.9375,1.339843 0.371094,0.367188 0.824219,0.625 1.335938,0.792969 0.511719,0.195313 1.050781,0.28125 1.648437,0.28125 1.082032,0 1.933594,-0.222656 2.589844,-0.679687 0.621094,-0.425782 1.132812,-0.9375 1.5,-1.503906 h 0.05859 c 0,0.08203 0,0.226562 0.02734,0.425781 0,0.199219 0,0.394531 0.03125,0.59375 0.02344,0.199219 0.02344,0.398437 0.05469,0.570312 0.02734,0.195313 0.02734,0.3125 0.05859,0.398438"
         id="path832" />
      <path
         style="fill:#211e1e;fill-opacity:1;fill-rule:nonzero;stroke:none"
         d="m 55.949219,33.557099 h 2.785156 c -0.03125,-0.429688 -0.05859,-0.878907 -0.08594,-1.363281 -0.02734,-0.457032 -0.02734,-0.9375 -0.02734,-1.425782 V 18.975068 h -2.957032 v 8.554687 c 0,1.136719 -0.230468,2.046875 -0.652343,2.726563 -0.429688,0.683593 -1.140625,1.027343 -2.078125,1.027343 -0.765625,0 -1.308594,-0.257812 -1.675782,-0.769531 -0.371093,-0.511719 -0.566406,-1.335938 -0.566406,-2.472656 V 18.975068 H 47.73047 v 9.746093 c 0,1.535157 0.34375,2.761719 1.023437,3.667969 0.683594,0.914062 1.761719,1.363281 3.242188,1.363281 0.992187,0 1.792968,-0.222656 2.390625,-0.707031 0.566406,-0.457031 1.019531,-1.027344 1.390625,-1.707031 h 0.05469 l 0.117188,2.21875"
         id="path834" />
      <path
         style="fill:#211e1e;fill-opacity:1;fill-rule:nonzero;stroke:none"
         d="m 62.933594,33.557099 h 2.953125 v -7.847657 c 0,-0.738281 0.08594,-1.363281 0.257812,-1.902343 0.167969,-0.542969 0.394531,-0.96875 0.683594,-1.308594 0.28125,-0.3125 0.625,-0.570313 0.992187,-0.738281 0.371094,-0.140625 0.738282,-0.230469 1.164063,-0.230469 0.171875,0 0.34375,0 0.484375,0.03125 0.140625,0.02734 0.3125,0.05859 0.457031,0.08594 v -2.84375 c -0.05859,0 -0.117187,0 -0.144531,-0.02734 -0.02734,0 -0.08203,0 -0.140625,0 -0.539063,0 -1.023437,0.05469 -1.449219,0.199219 -0.425781,0.140624 -0.769531,0.339843 -1.082031,0.59375 -0.3125,0.257812 -0.597656,0.542968 -0.824219,0.855468 -0.230468,0.3125 -0.425781,0.652344 -0.566406,1.023438 h -0.05859 c 0,-0.117188 0,-0.285156 0,-0.511719 -0.02734,-0.230469 -0.02734,-0.484375 -0.05859,-0.742187 -0.02344,-0.253907 -0.02344,-0.484376 -0.02344,-0.710938 -0.03125,-0.222656 -0.03125,-0.398438 -0.03125,-0.507812 h -2.730469 c 0.02734,0.425781 0.05859,0.878906 0.08594,1.335937 0.03125,0.484375 0.03125,0.964844 0.03125,1.449219 v 11.796875"
         id="path836" />
      <path
         style="fill:#ffffff;fill-opacity:1;fill-rule:nonzero;stroke:none"
         d="m 41.160156,26.42038 v 1.308594 c 0,1.167968 -0.253906,2.101562 -0.761718,2.8125 -0.539063,0.742187 -1.304688,1.109375 -2.359376,1.109375 -0.765624,0 -1.335937,-0.226563 -1.734374,-0.652344 -0.398438,-0.425781 -0.597657,-1.023437 -0.597657,-1.734375 0,-0.96875 0.371094,-1.675781 1.136719,-2.160156 0.765625,-0.484375 1.875,-0.710938 3.328125,-0.710938 0.167969,0 0.339844,0 0.535156,0 0.199219,0 0.371094,0 0.453125,0.02734"
         id="path838" />
    </g>
    <text
       xml:space="default"
       dominant-baseline="middle"
       text-anchor="left"
       font-family="sans-serif"
       font-size="9.82778px"
       id="svg_12-5-2"
       y="49.163761"
       x="28.988205"
       stroke-width="0"
       stroke="#ffffff"
       fill="#ffffff"><tspan
         style="fill:#000000;fill-opacity:1;stroke:#030303;stroke-opacity:1"
         id="tspan2027">(ZH)</tspan></text>
    <g
       id="g8045"
       transform="matrix(1.0363047,0,0,1.0363047,93.510955,-42.004636)">
      <path
         style="fill:#000000;fill-opacity:1;fill-rule:nonzero;stroke:none"
         d="m -65.367387,77.397611 h 3.238281 c 0.597656,0 1.125,-0.0859 1.585937,-0.25781 0.460938,-0.15235 0.835938,-0.39063 1.160156,-0.67969 0.324219,-0.29297 0.5625,-0.64844 0.734376,-1.05859 0.15625,-0.39453 0.238281,-0.83594 0.238281,-1.3125 0,-0.46094 -0.06641,-0.85547 -0.1875,-1.21094 -0.136719,-0.33984 -0.304688,-0.63281 -0.511719,-0.87109 -0.21875,-0.22266 -0.457031,-0.41016 -0.714844,-0.54688 -0.273437,-0.13672 -0.546875,-0.21875 -0.820312,-0.26953 v -0.0352 c 0.253906,-0.0859 0.496094,-0.1875 0.734375,-0.34375 0.222656,-0.13672 0.425781,-0.30469 0.613281,-0.52734 0.1875,-0.22266 0.324219,-0.47657 0.441406,-0.78516 0.121094,-0.28906 0.175782,-0.64844 0.175782,-1.03906 0,-0.95703 -0.277344,-1.69141 -0.820313,-2.20313 -0.5625,-0.51172 -1.433594,-0.76562 -2.628906,-0.76562 h -3.238281 v 11.90625"
         id="path1401" />
      <path
         style="fill:#000000;fill-opacity:1;fill-rule:nonzero;stroke:none"
         d="m -56.285356,77.397611 h 1.773437 v -8.75391 h -1.773437 v 8.75391"
         id="path1403" />
      <path
         style="fill:#000000;fill-opacity:1;fill-rule:nonzero;stroke:none"
         d="m -56.336137,66.889801 h 1.875 v -1.89453 h -1.875 v 1.89453"
         id="path1405" />
      <path
         style="fill:#000000;fill-opacity:1;fill-rule:nonzero;stroke:none"
         d="m -51.696544,77.397611 h 1.773437 v -5.1875 c 0,-0.68359 0.136719,-1.22656 0.425782,-1.62109 0.273437,-0.39063 0.683593,-0.57813 1.242187,-0.57813 0.464844,0 0.789063,0.15235 1.007813,0.46094 0.207031,0.30859 0.308593,0.80078 0.308593,1.48437 v 5.44141 h 1.773438 v -5.85156 c 0,-0.92188 -0.207031,-1.65235 -0.613281,-2.19922 -0.410157,-0.54688 -1.058594,-0.82031 -1.945313,-0.82031 -0.511719,0 -0.957031,0.11718 -1.347656,0.375 -0.390625,0.25781 -0.699219,0.61328 -0.921875,1.07422 h -0.03516 c 0,-0.0508 0,-0.15235 0,-0.27344 -0.01563,-0.11719 -0.01563,-0.25391 -0.03516,-0.39063 -0.01563,-0.13672 -0.01563,-0.26953 -0.01563,-0.39062 -0.01563,-0.1211 -0.01563,-0.22266 -0.01563,-0.27735 h -1.667969 c 0.01563,0.25782 0.03516,0.53125 0.05078,0.80469 0.01563,0.28906 0.01563,0.57813 0.01563,0.8711 v 7.07812"
         id="path1409" />
      <path
         style="fill:#ffffff;fill-opacity:1;fill-rule:nonzero;stroke:none"
         d="m -63.558794,70.557771 v -3.65235 h 1.109375 c 0.664063,0 1.160156,0.15625 1.480469,0.48047 0.324219,0.32422 0.480469,0.75 0.480469,1.25781 0,0.56641 -0.171875,1.02735 -0.515625,1.38282 -0.355469,0.35937 -0.867188,0.53125 -1.550781,0.53125 h -1.003907"
         id="path1425" />
      <path
         style="fill:#ffffff;fill-opacity:1;fill-rule:nonzero;stroke:none"
         d="m -63.558794,75.944491 v -3.97266 h 1.292969 c 0.359375,0 0.648438,0.0508 0.90625,0.15234 0.253906,0.10547 0.460938,0.23828 0.628906,0.42969 0.15625,0.1875 0.273438,0.39063 0.359375,0.63281 0.08594,0.23828 0.121094,0.49219 0.121094,0.78125 0,0.5625 -0.171875,1.03907 -0.511719,1.41797 -0.34375,0.3711 -0.855468,0.5586 -1.554687,0.5586 h -1.242188"
         id="path1427" />
      <text
         xml:space="preserve"
         style="font-style:italic;font-size:14.9234px;line-height:1.25;font-family:sans-serif;-inkscape-font-specification:'sans-serif Italic';stroke-width:0.307736;stroke-miterlimit:4;stroke-dasharray:none"
         x="-46.587017"
         y="72.592484"
         id="text2369"
         transform="scale(0.93812248,1.0659589)"><tspan
           sodipodi:role="line"
           id="tspan2367"
           style="font-style:normal;font-variant:normal;font-weight:normal;font-stretch:normal;font-family:Verdana;-inkscape-font-specification:Verdana;stroke:#000000;stroke-width:0.307736;stroke-miterlimit:4;stroke-dasharray:none;stroke-opacity:1"
           x="-46.587017"
           y="72.592484">z</tspan></text>
    </g>
  </g>
</svg>
