<?xml version="1.0" encoding="UTF-8"?>
<svg xmlns="http://www.w3.org/2000/svg" xmlns:xlink="http://www.w3.org/1999/xlink" width="109pt" height="92pt" viewBox="0 0 109 92" version="1.1">
<g id="surface1">
<path style=" stroke:none;fill-rule:nonzero;fill:rgb(100%,100%,100%);fill-opacity:1;" d="M 0.652344 91.542969 L 108.371094 91.542969 L 108.371094 0.835938 L 0.652344 0.835938 Z M 0.652344 91.542969 "/>
<path style="fill:none;stroke-width:2.835;stroke-linecap:butt;stroke-linejoin:miter;stroke:rgb(13.729858%,12.159729%,12.548828%);stroke-opacity:1;stroke-miterlimit:4;" d="M 6.523438 4.570312 L 1083.710938 4.570312 L 1083.710938 911.640625 L 6.523438 911.640625 L 6.523438 4.570312 " transform="matrix(0.1,0,0,-0.1,0,92)"/>
<path style=" stroke:none;fill-rule:nonzero;fill:rgb(10.112%,40.585327%,73.280334%);fill-opacity:1;" d="M 1.792969 90.402344 L 107.230469 90.402344 L 107.230469 1.972656 L 1.792969 1.972656 Z M 1.792969 90.402344 "/>
<path style=" stroke:none;fill-rule:nonzero;fill:rgb(100%,100%,100%);fill-opacity:1;" d="M 81.132812 64.421875 C 80.980469 64.855469 80.394531 64.824219 80.273438 64.421875 L 79.070312 60.359375 L 76.609375 61.777344 L 54.511719 74.550781 L 54.511719 85.878906 L 48.851562 85.878906 L 48.851562 74.550781 L 16.78125 42.480469 L 14.566406 46.050781 C 14.351562 46.449219 13.765625 46.296875 13.734375 45.863281 L 13.179688 35.339844 C 13.179688 35.0625 13.394531 34.847656 13.671875 34.875 L 24.167969 35.429688 C 24.628906 35.429688 24.753906 36.015625 24.382812 36.261719 L 20.78125 38.445312 L 22.78125 40.480469 L 26.414062 44.109375 L 51.867188 69.53125 L 73.777344 56.882812 L 76.238281 55.46875 L 73.316406 52.390625 C 73.007812 52.082031 73.316406 51.558594 73.746094 51.652344 L 84.058594 53.835938 C 84.304688 53.898438 84.457031 54.144531 84.394531 54.421875 L 81.132812 64.421875 "/>
<path style=" stroke:none;fill-rule:nonzero;fill:rgb(100%,100%,100%);fill-opacity:1;" d="M 6.039062 29.460938 L 51.402344 29.460938 L 51.402344 6.21875 L 6.039062 6.21875 Z M 6.039062 29.460938 "/>
<path style=" stroke:none;fill-rule:nonzero;fill:rgb(0%,49.674988%,27.331543%);fill-opacity:1;" d="M 7.179688 28.320312 L 50.265625 28.320312 L 50.265625 7.359375 L 7.179688 7.359375 Z M 7.179688 28.320312 "/>
<path style=" stroke:none;fill-rule:nonzero;fill:rgb(100%,100%,100%);fill-opacity:1;" d="M 13.105469 22.660156 L 15.8125 22.660156 C 16.308594 22.660156 16.75 22.589844 17.136719 22.445312 C 17.519531 22.316406 17.835938 22.117188 18.105469 21.875 C 18.378906 21.632812 18.578125 21.335938 18.71875 20.992188 C 18.847656 20.664062 18.917969 20.292969 18.917969 19.894531 C 18.917969 19.507812 18.859375 19.179688 18.761719 18.882812 C 18.648438 18.597656 18.503906 18.355469 18.332031 18.15625 C 18.148438 17.96875 17.949219 17.8125 17.734375 17.699219 C 17.507812 17.585938 17.28125 17.511719 17.050781 17.472656 L 17.050781 17.441406 C 17.265625 17.371094 17.464844 17.285156 17.664062 17.15625 C 17.847656 17.042969 18.019531 16.902344 18.175781 16.714844 C 18.332031 16.53125 18.449219 16.316406 18.546875 16.058594 C 18.648438 15.816406 18.691406 15.515625 18.691406 15.191406 C 18.691406 14.390625 18.460938 13.777344 18.007812 13.351562 C 17.535156 12.921875 16.808594 12.710938 15.8125 12.710938 L 13.105469 12.710938 L 13.105469 22.660156 "/>
<path style=" stroke:none;fill-rule:nonzero;fill:rgb(100%,100%,100%);fill-opacity:1;" d="M 25.054688 22.660156 L 26.394531 22.660156 C 26.382812 22.53125 26.355469 22.34375 26.339844 22.132812 C 26.324219 21.917969 26.3125 21.691406 26.3125 21.445312 L 26.3125 17.957031 C 26.3125 17.472656 26.265625 17.070312 26.167969 16.757812 C 26.066406 16.445312 25.914062 16.1875 25.726562 15.972656 C 25.570312 15.789062 25.3125 15.617188 24.972656 15.460938 C 24.628906 15.316406 24.1875 15.246094 23.632812 15.246094 C 23.164062 15.246094 22.75 15.304688 22.394531 15.417969 C 22.035156 15.53125 21.707031 15.660156 21.4375 15.816406 L 21.550781 17.085938 C 21.738281 16.902344 22.007812 16.730469 22.363281 16.574219 C 22.707031 16.429688 23.074219 16.359375 23.488281 16.359375 C 24.015625 16.359375 24.386719 16.5 24.613281 16.785156 C 24.730469 16.929688 24.816406 17.085938 24.855469 17.257812 C 24.898438 17.441406 24.914062 17.640625 24.914062 17.871094 L 24.914062 18.167969 L 24.386719 18.167969 C 23.203125 18.167969 22.292969 18.367188 21.679688 18.753906 C 21.066406 19.152344 20.753906 19.78125 20.753906 20.636719 C 20.753906 20.976562 20.8125 21.277344 20.925781 21.546875 C 21.039062 21.816406 21.195312 22.03125 21.394531 22.21875 C 21.582031 22.402344 21.808594 22.53125 22.066406 22.617188 C 22.320312 22.714844 22.59375 22.757812 22.890625 22.757812 C 23.433594 22.757812 23.859375 22.644531 24.1875 22.417969 C 24.5 22.203125 24.757812 21.945312 24.941406 21.664062 L 24.972656 21.664062 C 24.972656 21.703125 24.972656 21.777344 24.984375 21.875 C 24.984375 21.976562 24.984375 22.074219 25 22.175781 C 25.015625 22.273438 25.015625 22.375 25.027344 22.460938 C 25.042969 22.558594 25.042969 22.617188 25.054688 22.660156 "/>
<path style=" stroke:none;fill-rule:nonzero;fill:rgb(100%,100%,100%);fill-opacity:1;" d="M 28.589844 22.375 C 28.816406 22.472656 29.101562 22.574219 29.457031 22.644531 C 29.800781 22.714844 30.183594 22.757812 30.597656 22.757812 C 31.425781 22.757812 32.050781 22.558594 32.492188 22.144531 C 32.921875 21.734375 33.132812 21.207031 33.132812 20.550781 C 33.132812 20.109375 33.003906 19.75 32.765625 19.480469 C 32.507812 19.210938 32.164062 18.9375 31.722656 18.695312 L 31.082031 18.339844 C 30.753906 18.15625 30.511719 18 30.328125 17.839844 C 30.140625 17.699219 30.054688 17.5 30.054688 17.257812 C 30.054688 17 30.140625 16.785156 30.328125 16.628906 C 30.511719 16.472656 30.785156 16.402344 31.152344 16.402344 C 31.453125 16.402344 31.738281 16.429688 31.980469 16.488281 C 32.222656 16.558594 32.449219 16.628906 32.652344 16.714844 L 32.722656 15.515625 C 32.5625 15.460938 32.351562 15.402344 32.066406 15.332031 C 31.765625 15.273438 31.425781 15.246094 31.039062 15.246094 C 30.671875 15.246094 30.34375 15.304688 30.042969 15.417969 C 29.742188 15.53125 29.484375 15.6875 29.273438 15.875 C 29.058594 16.074219 28.890625 16.300781 28.773438 16.542969 C 28.660156 16.800781 28.601562 17.070312 28.601562 17.34375 C 28.601562 17.597656 28.644531 17.828125 28.71875 18.027344 C 28.789062 18.226562 28.890625 18.398438 29.015625 18.554688 C 29.144531 18.710938 29.285156 18.839844 29.472656 18.953125 C 29.65625 19.082031 29.855469 19.195312 30.085938 19.308594 L 30.855469 19.695312 C 31.183594 19.851562 31.410156 20.023438 31.539062 20.195312 C 31.652344 20.363281 31.710938 20.550781 31.710938 20.734375 C 31.710938 21.019531 31.59375 21.234375 31.367188 21.375 C 31.140625 21.535156 30.824219 21.605469 30.441406 21.605469 C 30.085938 21.605469 29.742188 21.546875 29.445312 21.417969 C 29.144531 21.304688 28.890625 21.191406 28.675781 21.09375 L 28.589844 22.375 "/>
<path style=" stroke:none;fill-rule:nonzero;fill:rgb(100%,100%,100%);fill-opacity:1;" d="M 36.496094 19.425781 L 40.667969 19.425781 L 40.667969 18.925781 C 40.667969 18.28125 40.597656 17.742188 40.46875 17.269531 C 40.339844 16.800781 40.15625 16.414062 39.914062 16.117188 C 39.671875 15.816406 39.371094 15.601562 39.046875 15.460938 C 38.703125 15.316406 38.332031 15.246094 37.933594 15.246094 C 37.476562 15.246094 37.066406 15.332031 36.707031 15.515625 C 36.335938 15.703125 36.023438 15.972656 35.78125 16.300781 C 35.539062 16.644531 35.339844 17.042969 35.210938 17.511719 C 35.085938 17.984375 35.011719 18.496094 35.011719 19.050781 C 35.011719 19.578125 35.085938 20.078125 35.210938 20.535156 C 35.339844 20.992188 35.527344 21.375 35.796875 21.703125 C 36.054688 22.03125 36.378906 22.289062 36.777344 22.472656 C 37.179688 22.671875 37.648438 22.757812 38.175781 22.757812 C 38.632812 22.757812 39.046875 22.714844 39.402344 22.617188 C 39.757812 22.515625 40.042969 22.417969 40.285156 22.316406 L 40.214844 21.078125 C 40.027344 21.207031 39.785156 21.335938 39.5 21.460938 C 39.199219 21.589844 38.847656 21.664062 38.417969 21.664062 C 37.734375 21.664062 37.25 21.476562 36.949219 21.09375 C 36.652344 20.71875 36.496094 20.164062 36.496094 19.425781 "/>
<path style=" stroke:none;fill-rule:nonzero;fill:rgb(100%,100%,100%);fill-opacity:1;" d="M 42.855469 22.660156 L 44.339844 22.660156 L 44.339844 11.96875 L 42.855469 11.96875 L 42.855469 22.660156 "/>
<path style=" stroke:none;fill-rule:nonzero;fill:rgb(100%,100%,100%);fill-opacity:1;" d="M 63.921875 44.789062 L 69.792969 44.789062 L 69.792969 43.523438 L 65.648438 43.523438 L 69.722656 36.136719 L 69.722656 34.839844 L 64.050781 34.839844 L 64.050781 36.109375 L 67.910156 36.109375 L 63.921875 43.394531 L 63.921875 44.789062 "/>
<path style=" stroke:none;fill-rule:nonzero;fill:rgb(100%,100%,100%);fill-opacity:1;" d="M 72.199219 36.109375 L 73.453125 36.109375 L 73.453125 34.613281 L 72.199219 34.613281 L 72.199219 36.109375 "/>
<path style=" stroke:none;fill-rule:nonzero;fill:rgb(100%,100%,100%);fill-opacity:1;" d="M 74.539062 36.109375 L 75.789062 36.109375 L 75.789062 34.613281 L 74.539062 34.613281 L 74.539062 36.109375 "/>
<path style=" stroke:none;fill-rule:nonzero;fill:rgb(100%,100%,100%);fill-opacity:1;" d="M 75.378906 44.789062 L 76.773438 44.789062 C 76.761719 44.578125 76.746094 44.351562 76.730469 44.105469 C 76.71875 43.878906 76.71875 43.636719 76.71875 43.394531 L 76.71875 37.480469 L 75.234375 37.480469 L 75.234375 41.769531 C 75.234375 42.339844 75.121094 42.796875 74.90625 43.136719 C 74.691406 43.480469 74.339844 43.652344 73.867188 43.652344 C 73.480469 43.652344 73.210938 43.523438 73.027344 43.265625 C 72.839844 43.007812 72.742188 42.59375 72.742188 42.027344 L 72.742188 37.480469 L 71.261719 37.480469 L 71.261719 42.367188 C 71.261719 43.136719 71.429688 43.75 71.773438 44.207031 C 72.113281 44.664062 72.65625 44.890625 73.398438 44.890625 C 73.894531 44.890625 74.292969 44.777344 74.59375 44.535156 C 74.878906 44.304688 75.109375 44.019531 75.292969 43.679688 L 75.320312 43.679688 L 75.378906 44.789062 "/>
<path style=" stroke:none;fill-rule:nonzero;fill:rgb(100%,100%,100%);fill-opacity:1;" d="M 79.289062 44.789062 L 80.773438 44.789062 L 80.773438 40.855469 C 80.773438 40.488281 80.816406 40.171875 80.898438 39.902344 C 80.988281 39.628906 81.101562 39.417969 81.242188 39.246094 C 81.386719 39.089844 81.554688 38.960938 81.742188 38.875 C 81.925781 38.804688 82.113281 38.761719 82.324219 38.761719 C 82.410156 38.761719 82.496094 38.761719 82.566406 38.777344 C 82.640625 38.789062 82.726562 38.804688 82.796875 38.820312 L 82.796875 37.394531 C 82.765625 37.394531 82.738281 37.394531 82.726562 37.378906 C 82.710938 37.378906 82.679688 37.378906 82.652344 37.378906 C 82.382812 37.378906 82.140625 37.40625 81.925781 37.480469 C 81.714844 37.550781 81.542969 37.648438 81.386719 37.777344 C 81.226562 37.90625 81.085938 38.050781 80.972656 38.203125 C 80.859375 38.363281 80.757812 38.53125 80.6875 38.71875 L 80.660156 38.71875 C 80.660156 38.660156 80.660156 38.578125 80.660156 38.460938 C 80.644531 38.347656 80.644531 38.21875 80.628906 38.089844 C 80.617188 37.960938 80.617188 37.847656 80.617188 37.734375 C 80.601562 37.621094 80.601562 37.535156 80.601562 37.480469 L 79.234375 37.480469 C 79.246094 37.691406 79.261719 37.921875 79.277344 38.148438 C 79.289062 38.390625 79.289062 38.632812 79.289062 38.875 L 79.289062 44.789062 "/>
<path style=" stroke:none;fill-rule:nonzero;fill:rgb(100%,100%,100%);fill-opacity:1;" d="M 84.191406 44.789062 L 85.675781 44.789062 L 85.675781 37.480469 L 84.191406 37.480469 L 84.191406 44.789062 "/>
<path style=" stroke:none;fill-rule:nonzero;fill:rgb(100%,100%,100%);fill-opacity:1;" d="M 84.148438 36.011719 L 85.714844 36.011719 L 85.714844 34.425781 L 84.148438 34.425781 L 84.148438 36.011719 "/>
<path style=" stroke:none;fill-rule:nonzero;fill:rgb(100%,100%,100%);fill-opacity:1;" d="M 92.671875 44.589844 L 92.585938 43.335938 C 92.429688 43.4375 92.21875 43.523438 91.976562 43.59375 C 91.730469 43.664062 91.476562 43.707031 91.234375 43.707031 C 90.59375 43.707031 90.109375 43.480469 89.765625 43.023438 C 89.410156 42.566406 89.238281 41.953125 89.238281 41.183594 C 89.238281 40.285156 89.410156 39.628906 89.75 39.203125 C 90.09375 38.777344 90.578125 38.5625 91.207031 38.5625 C 91.476562 38.5625 91.71875 38.589844 91.929688 38.660156 C 92.144531 38.730469 92.328125 38.804688 92.515625 38.902344 L 92.585938 37.664062 C 92.402344 37.59375 92.1875 37.519531 91.917969 37.464844 C 91.648438 37.40625 91.375 37.378906 91.105469 37.378906 C 90.550781 37.378906 90.050781 37.464844 89.625 37.648438 C 89.195312 37.835938 88.839844 38.105469 88.554688 38.433594 C 88.269531 38.777344 88.054688 39.175781 87.914062 39.644531 C 87.769531 40.117188 87.699219 40.613281 87.699219 41.167969 C 87.699219 41.683594 87.769531 42.167969 87.898438 42.625 C 88.027344 43.082031 88.242188 43.480469 88.511719 43.808594 C 88.785156 44.132812 89.125 44.40625 89.550781 44.589844 C 89.964844 44.789062 90.464844 44.890625 91.035156 44.890625 C 91.347656 44.890625 91.648438 44.859375 91.945312 44.804688 C 92.246094 44.734375 92.488281 44.664062 92.671875 44.589844 "/>
<path style=" stroke:none;fill-rule:nonzero;fill:rgb(100%,100%,100%);fill-opacity:1;" d="M 94.367188 44.789062 L 95.847656 44.789062 L 95.847656 40.457031 C 95.847656 39.886719 95.960938 39.429688 96.203125 39.101562 C 96.429688 38.777344 96.773438 38.617188 97.242188 38.617188 C 97.628906 38.617188 97.898438 38.746094 98.082031 39.003906 C 98.253906 39.261719 98.339844 39.671875 98.339844 40.246094 L 98.339844 44.789062 L 99.820312 44.789062 L 99.820312 39.902344 C 99.820312 39.132812 99.652344 38.519531 99.308594 38.0625 C 98.96875 37.605469 98.425781 37.378906 97.683594 37.378906 C 97.199219 37.378906 96.816406 37.492188 96.542969 37.707031 C 96.257812 37.933594 96.03125 38.175781 95.875 38.449219 L 95.847656 38.449219 L 95.847656 34.097656 L 94.367188 34.097656 L 94.367188 44.789062 "/>
<path style=" stroke:none;fill-rule:nonzero;fill:rgb(0%,49.674988%,27.331543%);fill-opacity:1;" d="M 14.617188 16.941406 L 14.617188 13.894531 L 15.539062 13.894531 C 16.097656 13.894531 16.511719 14.019531 16.78125 14.292969 C 17.050781 14.5625 17.179688 14.917969 17.179688 15.347656 C 17.179688 15.816406 17.039062 16.203125 16.75 16.5 C 16.453125 16.800781 16.027344 16.941406 15.457031 16.941406 L 14.617188 16.941406 "/>
<path style=" stroke:none;fill-rule:nonzero;fill:rgb(0%,49.674988%,27.331543%);fill-opacity:1;" d="M 14.617188 21.445312 L 14.617188 18.128906 L 15.699219 18.128906 C 15.996094 18.128906 16.238281 18.167969 16.453125 18.253906 C 16.667969 18.339844 16.839844 18.453125 16.980469 18.609375 C 17.109375 18.769531 17.207031 18.9375 17.28125 19.136719 C 17.351562 19.339844 17.378906 19.550781 17.378906 19.792969 C 17.378906 20.265625 17.238281 20.664062 16.953125 20.976562 C 16.667969 21.292969 16.238281 21.445312 15.65625 21.445312 L 14.617188 21.445312 "/>
<path style=" stroke:none;fill-rule:nonzero;fill:rgb(0%,49.674988%,27.331543%);fill-opacity:1;" d="M 24.914062 19.082031 L 24.914062 19.738281 C 24.914062 20.320312 24.785156 20.792969 24.53125 21.148438 C 24.257812 21.519531 23.875 21.703125 23.347656 21.703125 C 22.960938 21.703125 22.675781 21.589844 22.476562 21.375 C 22.277344 21.164062 22.179688 20.863281 22.179688 20.507812 C 22.179688 20.023438 22.363281 19.667969 22.75 19.425781 C 23.132812 19.179688 23.6875 19.066406 24.414062 19.066406 C 24.5 19.066406 24.585938 19.066406 24.6875 19.066406 C 24.785156 19.066406 24.871094 19.066406 24.914062 19.082031 "/>
<path style=" stroke:none;fill-rule:nonzero;fill:rgb(0%,49.674988%,27.331543%);fill-opacity:1;" d="M 36.496094 18.410156 C 36.507812 17.742188 36.636719 17.214844 36.878906 16.84375 C 37.121094 16.488281 37.464844 16.300781 37.890625 16.300781 C 38.773438 16.300781 39.214844 17 39.214844 18.410156 L 36.496094 18.410156 "/>
</g>
</svg>
