<?xml version="1.0" encoding="UTF-8"?>
<svg xmlns="http://www.w3.org/2000/svg" xmlns:xlink="http://www.w3.org/1999/xlink" width="127pt" height="81pt" viewBox="0 0 127 81" version="1.1">
<g id="surface1">
<path style=" stroke:none;fill-rule:nonzero;fill:rgb(100%,100%,100%);fill-opacity:1;" d="M 1.140625 79.871094 L 125.863281 79.871094 L 125.863281 0.5 L 1.140625 0.5 Z M 1.140625 79.871094 "/>
<path style="fill:none;stroke-width:2.835;stroke-linecap:butt;stroke-linejoin:miter;stroke:rgb(13.729858%,12.159729%,12.548828%);stroke-opacity:1;stroke-miterlimit:4;" d="M 11.40625 11.289062 L 1258.632812 11.289062 L 1258.632812 805 L 11.40625 805 L 11.40625 11.289062 " transform="matrix(0.1,0,0,-0.1,0,81)"/>
<path style=" stroke:none;fill-rule:nonzero;fill:rgb(25.102234%,23.899841%,25.068665%);fill-opacity:1;" d="M 124.171875 7.855469 L 124.171875 72.484375 C 124.171875 75.621094 121.617188 78.175781 118.507812 78.175781 L 8.496094 78.175781 C 5.355469 78.175781 2.832031 75.621094 2.832031 72.484375 L 2.832031 7.855469 C 2.832031 4.746094 5.355469 2.191406 8.496094 2.191406 L 118.507812 2.191406 C 121.617188 2.191406 124.171875 4.746094 124.171875 7.855469 "/>
<path style=" stroke:none;fill-rule:nonzero;fill:rgb(100%,100%,100%);fill-opacity:1;" d="M 122.480469 7.855469 C 122.480469 5.667969 120.695312 3.882812 118.507812 3.914062 L 8.496094 3.914062 C 6.308594 3.882812 4.523438 5.667969 4.523438 7.855469 L 4.523438 72.484375 C 4.523438 74.699219 6.308594 76.453125 8.496094 76.453125 L 118.507812 76.453125 C 120.695312 76.453125 122.480469 74.699219 122.480469 72.484375 L 122.480469 7.855469 "/>
<path style=" stroke:none;fill-rule:nonzero;fill:rgb(13.729858%,12.159729%,12.548828%);fill-opacity:1;" d="M 88.652344 34.230469 C 88.558594 34.535156 88.097656 34.535156 88.003906 34.230469 L 87.109375 31.183594 L 85.265625 32.257812 L 65.625 43.585938 L 65.625 71.929688 L 61.378906 71.929688 L 61.378906 43.585938 L 41.738281 32.257812 L 39.894531 31.183594 L 39 34.230469 C 38.90625 34.535156 38.445312 34.535156 38.351562 34.230469 L 35.890625 26.71875 C 35.828125 26.535156 35.953125 26.320312 36.167969 26.289062 L 43.863281 24.628906 C 44.203125 24.566406 44.417969 24.964844 44.203125 25.210938 L 42.015625 27.488281 L 43.863281 28.566406 L 63.503906 39.890625 L 83.140625 28.566406 L 84.988281 27.488281 L 82.800781 25.210938 C 82.585938 24.964844 82.800781 24.566406 83.109375 24.628906 L 90.835938 26.289062 C 91.050781 26.320312 91.144531 26.535156 91.082031 26.71875 L 88.652344 34.230469 "/>
<path style=" stroke:none;fill-rule:nonzero;fill:rgb(13.729858%,12.159729%,12.548828%);fill-opacity:1;" d="M 7.9375 16.382812 L 10.101562 16.382812 C 10.5 16.382812 10.851562 16.324219 11.160156 16.210938 C 11.46875 16.109375 11.71875 15.949219 11.933594 15.753906 C 12.152344 15.558594 12.3125 15.320312 12.425781 15.046875 C 12.527344 14.785156 12.585938 14.488281 12.585938 14.167969 C 12.585938 13.859375 12.539062 13.597656 12.460938 13.359375 C 12.367188 13.132812 12.253906 12.9375 12.117188 12.777344 C 11.96875 12.628906 11.808594 12.503906 11.640625 12.410156 C 11.457031 12.320312 11.273438 12.265625 11.09375 12.230469 L 11.09375 12.207031 C 11.261719 12.148438 11.421875 12.082031 11.582031 11.976562 C 11.730469 11.886719 11.867188 11.773438 11.992188 11.625 C 12.117188 11.476562 12.207031 11.304688 12.289062 11.097656 C 12.367188 10.90625 12.402344 10.664062 12.402344 10.402344 C 12.402344 9.765625 12.21875 9.273438 11.855469 8.933594 C 11.476562 8.589844 10.898438 8.417969 10.101562 8.417969 L 7.9375 8.417969 L 7.9375 16.382812 "/>
<path style=" stroke:none;fill-rule:nonzero;fill:rgb(13.729858%,12.159729%,12.548828%);fill-opacity:1;" d="M 15.296875 13.792969 L 18.636719 13.792969 L 18.636719 13.394531 C 18.636719 12.878906 18.578125 12.445312 18.476562 12.070312 C 18.375 11.691406 18.226562 11.386719 18.03125 11.144531 C 17.839844 10.90625 17.597656 10.734375 17.335938 10.621094 C 17.0625 10.507812 16.765625 10.449219 16.445312 10.449219 C 16.085938 10.449219 15.753906 10.519531 15.46875 10.664062 C 15.171875 10.816406 14.921875 11.03125 14.726562 11.292969 C 14.535156 11.566406 14.371094 11.886719 14.269531 12.265625 C 14.167969 12.640625 14.113281 13.050781 14.113281 13.496094 C 14.113281 13.917969 14.167969 14.316406 14.269531 14.683594 C 14.371094 15.046875 14.523438 15.355469 14.738281 15.617188 C 14.945312 15.878906 15.207031 16.085938 15.523438 16.234375 C 15.84375 16.390625 16.21875 16.460938 16.644531 16.460938 C 17.003906 16.460938 17.335938 16.425781 17.621094 16.347656 C 17.90625 16.269531 18.132812 16.1875 18.328125 16.109375 L 18.269531 15.117188 C 18.121094 15.21875 17.929688 15.320312 17.703125 15.421875 C 17.460938 15.527344 17.175781 15.582031 16.835938 15.582031 C 16.289062 15.582031 15.902344 15.433594 15.660156 15.128906 C 15.421875 14.832031 15.296875 14.386719 15.296875 13.792969 "/>
<path style=" stroke:none;fill-rule:nonzero;fill:rgb(13.729858%,12.159729%,12.548828%);fill-opacity:1;" d="M 23.472656 16.382812 L 24.546875 16.382812 C 24.535156 16.28125 24.511719 16.132812 24.5 15.960938 C 24.488281 15.789062 24.476562 15.605469 24.476562 15.410156 L 24.476562 12.617188 C 24.476562 12.230469 24.441406 11.910156 24.363281 11.65625 C 24.28125 11.410156 24.15625 11.203125 24.007812 11.03125 C 23.882812 10.882812 23.679688 10.746094 23.40625 10.621094 C 23.132812 10.507812 22.78125 10.449219 22.335938 10.449219 C 21.957031 10.449219 21.628906 10.496094 21.34375 10.585938 C 21.058594 10.675781 20.796875 10.78125 20.578125 10.90625 L 20.671875 11.921875 C 20.820312 11.773438 21.035156 11.636719 21.320312 11.511719 C 21.59375 11.398438 21.890625 11.339844 22.222656 11.339844 C 22.640625 11.339844 22.9375 11.453125 23.121094 11.679688 C 23.210938 11.796875 23.28125 11.921875 23.3125 12.058594 C 23.347656 12.207031 23.359375 12.367188 23.359375 12.546875 L 23.359375 12.789062 L 22.9375 12.789062 C 21.992188 12.789062 21.261719 12.949219 20.773438 13.257812 C 20.28125 13.578125 20.035156 14.078125 20.035156 14.761719 C 20.035156 15.035156 20.078125 15.277344 20.167969 15.492188 C 20.261719 15.710938 20.386719 15.878906 20.542969 16.027344 C 20.695312 16.175781 20.875 16.28125 21.082031 16.347656 C 21.285156 16.425781 21.503906 16.460938 21.742188 16.460938 C 22.175781 16.460938 22.515625 16.371094 22.78125 16.1875 C 23.027344 16.015625 23.234375 15.8125 23.382812 15.582031 L 23.40625 15.582031 C 23.40625 15.617188 23.40625 15.675781 23.417969 15.753906 C 23.417969 15.835938 23.417969 15.914062 23.429688 15.992188 C 23.441406 16.074219 23.441406 16.152344 23.449219 16.222656 C 23.460938 16.300781 23.460938 16.347656 23.472656 16.382812 "/>
<path style=" stroke:none;fill-rule:nonzero;fill:rgb(13.729858%,12.159729%,12.548828%);fill-opacity:1;" d="M 29.160156 16.289062 L 29.160156 15.402344 C 29.082031 15.433594 29.003906 15.46875 28.910156 15.492188 C 28.820312 15.527344 28.71875 15.539062 28.59375 15.539062 C 28.375 15.539062 28.226562 15.46875 28.125 15.34375 C 28.023438 15.21875 27.976562 15.003906 27.976562 14.683594 L 27.976562 11.441406 L 29.160156 11.441406 L 29.160156 10.53125 L 27.976562 10.53125 L 27.976562 8.976562 L 26.792969 9.332031 L 26.792969 10.53125 L 25.855469 10.53125 L 25.855469 11.441406 L 26.792969 11.441406 L 26.792969 14.921875 C 26.792969 15.480469 26.917969 15.878906 27.179688 16.109375 C 27.441406 16.347656 27.804688 16.460938 28.285156 16.460938 C 28.457031 16.460938 28.625 16.449219 28.773438 16.414062 C 28.921875 16.371094 29.058594 16.335938 29.160156 16.289062 "/>
<path style=" stroke:none;fill-rule:nonzero;fill:rgb(13.729858%,12.159729%,12.548828%);fill-opacity:1;" d="M 31.621094 13.792969 L 34.957031 13.792969 L 34.957031 13.394531 C 34.957031 12.878906 34.902344 12.445312 34.800781 12.070312 C 34.699219 11.691406 34.550781 11.386719 34.355469 11.144531 C 34.160156 10.90625 33.921875 10.734375 33.660156 10.621094 C 33.386719 10.507812 33.089844 10.449219 32.769531 10.449219 C 32.40625 10.449219 32.078125 10.519531 31.792969 10.664062 C 31.496094 10.816406 31.242188 11.03125 31.050781 11.292969 C 30.855469 11.566406 30.699219 11.886719 30.59375 12.265625 C 30.492188 12.640625 30.4375 13.050781 30.4375 13.496094 C 30.4375 13.917969 30.492188 14.316406 30.59375 14.683594 C 30.699219 15.046875 30.84375 15.355469 31.0625 15.617188 C 31.269531 15.878906 31.53125 16.085938 31.847656 16.234375 C 32.167969 16.390625 32.542969 16.460938 32.96875 16.460938 C 33.328125 16.460938 33.660156 16.425781 33.945312 16.347656 C 34.230469 16.269531 34.457031 16.1875 34.652344 16.109375 L 34.59375 15.117188 C 34.445312 15.21875 34.253906 15.320312 34.023438 15.421875 C 33.785156 15.527344 33.5 15.582031 33.160156 15.582031 C 32.613281 15.582031 32.222656 15.433594 31.984375 15.128906 C 31.746094 14.832031 31.621094 14.386719 31.621094 13.792969 "/>
<path style=" stroke:none;fill-rule:nonzero;fill:rgb(13.729858%,12.159729%,12.548828%);fill-opacity:1;" d="M 36.695312 16.382812 L 37.878906 16.382812 L 37.878906 12.914062 C 37.878906 12.457031 37.972656 12.09375 38.164062 11.832031 C 38.347656 11.566406 38.621094 11.441406 38.996094 11.441406 C 39.304688 11.441406 39.519531 11.542969 39.667969 11.75 C 39.804688 11.957031 39.875 12.289062 39.875 12.742188 L 39.875 16.382812 L 41.058594 16.382812 L 41.058594 12.46875 C 41.058594 11.855469 40.921875 11.363281 40.648438 10.996094 C 40.375 10.632812 39.945312 10.449219 39.351562 10.449219 C 39.007812 10.449219 38.710938 10.53125 38.449219 10.699219 C 38.1875 10.871094 37.980469 11.109375 37.835938 11.417969 L 37.8125 11.417969 C 37.8125 11.386719 37.8125 11.316406 37.8125 11.234375 C 37.800781 11.15625 37.800781 11.066406 37.789062 10.976562 C 37.777344 10.882812 37.777344 10.792969 37.777344 10.710938 C 37.765625 10.632812 37.765625 10.5625 37.765625 10.53125 L 36.648438 10.53125 C 36.660156 10.699219 36.671875 10.882812 36.683594 11.066406 C 36.695312 11.257812 36.695312 11.453125 36.695312 11.648438 L 36.695312 16.382812 "/>
<path style=" stroke:none;fill-rule:nonzero;fill:rgb(13.729858%,12.159729%,12.548828%);fill-opacity:1;" d="M 42.976562 16.382812 L 44.09375 16.382812 C 44.09375 16.359375 44.09375 16.3125 44.101562 16.234375 C 44.113281 16.152344 44.113281 16.074219 44.128906 15.972656 C 44.128906 15.878906 44.128906 15.789062 44.136719 15.699219 C 44.136719 15.605469 44.136719 15.539062 44.136719 15.492188 L 44.160156 15.492188 C 44.21875 15.617188 44.296875 15.730469 44.390625 15.84375 C 44.46875 15.960938 44.570312 16.0625 44.695312 16.152344 C 44.824219 16.246094 44.960938 16.3125 45.128906 16.371094 C 45.300781 16.4375 45.496094 16.460938 45.710938 16.460938 C 46.042969 16.460938 46.335938 16.390625 46.589844 16.246094 C 46.839844 16.109375 47.054688 15.902344 47.226562 15.640625 C 47.398438 15.378906 47.523438 15.070312 47.613281 14.695312 C 47.695312 14.328125 47.738281 13.917969 47.738281 13.460938 C 47.738281 12.46875 47.554688 11.726562 47.191406 11.214844 C 46.828125 10.699219 46.335938 10.449219 45.722656 10.449219 C 45.347656 10.449219 45.039062 10.53125 44.808594 10.699219 C 44.570312 10.871094 44.378906 11.089844 44.230469 11.351562 L 44.207031 11.351562 L 44.207031 7.828125 L 43.019531 7.828125 L 43.019531 15.34375 C 43.019531 15.539062 43.019531 15.730469 43.007812 15.902344 C 42.996094 16.074219 42.984375 16.234375 42.976562 16.382812 "/>
<path style=" stroke:none;fill-rule:nonzero;fill:rgb(13.729858%,12.159729%,12.548828%);fill-opacity:1;" d="M 50.511719 13.792969 L 53.847656 13.792969 L 53.847656 13.394531 C 53.847656 12.878906 53.792969 12.445312 53.691406 12.070312 C 53.589844 11.691406 53.441406 11.386719 53.246094 11.144531 C 53.054688 10.90625 52.816406 10.734375 52.550781 10.621094 C 52.277344 10.507812 51.980469 10.449219 51.660156 10.449219 C 51.296875 10.449219 50.96875 10.519531 50.679688 10.664062 C 50.386719 10.816406 50.136719 11.03125 49.941406 11.292969 C 49.75 11.566406 49.589844 11.886719 49.484375 12.265625 C 49.382812 12.640625 49.328125 13.050781 49.328125 13.496094 C 49.328125 13.917969 49.382812 14.316406 49.484375 14.683594 C 49.589844 15.046875 49.738281 15.355469 49.953125 15.617188 C 50.160156 15.878906 50.421875 16.085938 50.742188 16.234375 C 51.058594 16.390625 51.433594 16.460938 51.855469 16.460938 C 52.222656 16.460938 52.550781 16.425781 52.835938 16.347656 C 53.121094 16.269531 53.347656 16.1875 53.542969 16.109375 L 53.488281 15.117188 C 53.335938 15.21875 53.144531 15.320312 52.917969 15.421875 C 52.675781 15.527344 52.394531 15.582031 52.050781 15.582031 C 51.503906 15.582031 51.113281 15.433594 50.875 15.128906 C 50.636719 14.832031 50.511719 14.386719 50.511719 13.792969 "/>
<path style=" stroke:none;fill-rule:nonzero;fill:rgb(13.729858%,12.159729%,12.548828%);fill-opacity:1;" d="M 55.585938 16.382812 L 56.769531 16.382812 L 56.769531 13.234375 C 56.769531 12.9375 56.804688 12.6875 56.871094 12.46875 C 56.941406 12.253906 57.035156 12.082031 57.148438 11.945312 C 57.261719 11.820312 57.398438 11.714844 57.542969 11.648438 C 57.695312 11.589844 57.84375 11.554688 58.011719 11.554688 C 58.082031 11.554688 58.148438 11.554688 58.207031 11.566406 C 58.265625 11.578125 58.332031 11.589844 58.390625 11.601562 L 58.390625 10.460938 C 58.367188 10.460938 58.34375 10.460938 58.332031 10.449219 C 58.320312 10.449219 58.296875 10.449219 58.277344 10.449219 C 58.058594 10.449219 57.863281 10.472656 57.695312 10.53125 C 57.523438 10.585938 57.386719 10.664062 57.261719 10.769531 C 57.136719 10.871094 57.023438 10.984375 56.929688 11.109375 C 56.839844 11.234375 56.757812 11.375 56.703125 11.523438 L 56.679688 11.523438 C 56.679688 11.476562 56.679688 11.410156 56.679688 11.316406 C 56.667969 11.222656 56.667969 11.121094 56.65625 11.019531 C 56.644531 10.917969 56.644531 10.824219 56.644531 10.734375 C 56.636719 10.644531 56.636719 10.574219 56.636719 10.53125 L 55.542969 10.53125 C 55.550781 10.699219 55.5625 10.882812 55.574219 11.066406 C 55.585938 11.257812 55.585938 11.453125 55.585938 11.648438 L 55.585938 16.382812 "/>
<path style=" stroke:none;fill-rule:nonzero;fill:rgb(13.729858%,12.159729%,12.548828%);fill-opacity:1;" d="M 59.457031 17.441406 L 59.386719 18.546875 C 59.582031 18.628906 59.855469 18.707031 60.199219 18.789062 C 60.539062 18.867188 60.890625 18.914062 61.246094 18.914062 C 62.109375 18.914062 62.761719 18.671875 63.195312 18.207031 C 63.628906 17.738281 63.84375 17.066406 63.84375 16.199219 L 63.84375 11.523438 C 63.84375 11.351562 63.855469 11.191406 63.867188 11.019531 C 63.878906 10.847656 63.878906 10.6875 63.890625 10.53125 L 62.792969 10.53125 C 62.792969 10.5625 62.792969 10.632812 62.792969 10.710938 C 62.785156 10.792969 62.785156 10.882812 62.773438 10.976562 C 62.761719 11.066406 62.761719 11.144531 62.761719 11.222656 C 62.75 11.304688 62.75 11.375 62.75 11.410156 L 62.714844 11.410156 C 62.566406 11.144531 62.375 10.917969 62.132812 10.722656 C 61.894531 10.539062 61.597656 10.449219 61.234375 10.449219 C 60.878906 10.449219 60.5625 10.519531 60.300781 10.664062 C 60.039062 10.816406 59.808594 11.007812 59.640625 11.269531 C 59.46875 11.53125 59.332031 11.855469 59.25 12.21875 C 59.160156 12.59375 59.117188 13.003906 59.117188 13.460938 C 59.117188 14.011719 59.171875 14.464844 59.296875 14.84375 C 59.410156 15.21875 59.558594 15.527344 59.753906 15.753906 C 59.945312 15.992188 60.164062 16.152344 60.402344 16.257812 C 60.640625 16.359375 60.890625 16.414062 61.144531 16.414062 C 61.539062 16.414062 61.863281 16.324219 62.097656 16.132812 C 62.339844 15.949219 62.53125 15.71875 62.679688 15.433594 L 62.703125 15.433594 L 62.703125 16.164062 C 62.703125 16.402344 62.679688 16.644531 62.636719 16.859375 C 62.578125 17.078125 62.5 17.261719 62.386719 17.417969 C 62.257812 17.578125 62.097656 17.703125 61.894531 17.808594 C 61.691406 17.898438 61.429688 17.945312 61.121094 17.945312 C 60.800781 17.945312 60.492188 17.886719 60.1875 17.785156 C 59.878906 17.671875 59.640625 17.554688 59.457031 17.441406 "/>
<path style=" stroke:none;fill-rule:nonzero;fill:rgb(13.729858%,12.159729%,12.548828%);fill-opacity:1;" d="M 89.148438 16.382812 L 90.21875 16.382812 C 90.207031 16.28125 90.183594 16.132812 90.171875 15.960938 C 90.160156 15.789062 90.148438 15.605469 90.148438 15.410156 L 90.148438 12.617188 C 90.148438 12.230469 90.113281 11.910156 90.035156 11.65625 C 89.957031 11.410156 89.832031 11.203125 89.683594 11.03125 C 89.558594 10.882812 89.351562 10.746094 89.082031 10.621094 C 88.804688 10.507812 88.453125 10.449219 88.007812 10.449219 C 87.632812 10.449219 87.300781 10.496094 87.019531 10.585938 C 86.730469 10.675781 86.46875 10.78125 86.253906 10.90625 L 86.34375 11.921875 C 86.492188 11.773438 86.707031 11.636719 86.996094 11.511719 C 87.265625 11.398438 87.566406 11.339844 87.894531 11.339844 C 88.316406 11.339844 88.613281 11.453125 88.792969 11.679688 C 88.886719 11.796875 88.953125 11.921875 88.988281 12.058594 C 89.023438 12.207031 89.035156 12.367188 89.035156 12.546875 L 89.035156 12.789062 L 88.613281 12.789062 C 87.667969 12.789062 86.9375 12.949219 86.449219 13.257812 C 85.957031 13.578125 85.707031 14.078125 85.707031 14.761719 C 85.707031 15.035156 85.753906 15.277344 85.84375 15.492188 C 85.933594 15.710938 86.058594 15.878906 86.21875 16.027344 C 86.367188 16.175781 86.550781 16.28125 86.753906 16.347656 C 86.960938 16.425781 87.175781 16.460938 87.414062 16.460938 C 87.847656 16.460938 88.191406 16.371094 88.453125 16.1875 C 88.703125 16.015625 88.90625 15.8125 89.054688 15.582031 L 89.082031 15.582031 C 89.082031 15.617188 89.082031 15.675781 89.089844 15.753906 C 89.089844 15.835938 89.089844 15.914062 89.101562 15.992188 C 89.113281 16.074219 89.113281 16.152344 89.125 16.222656 C 89.136719 16.300781 89.136719 16.347656 89.148438 16.382812 "/>
<path style=" stroke:none;fill-rule:nonzero;fill:rgb(13.729858%,12.159729%,12.548828%);fill-opacity:1;" d="M 92.078125 16.382812 L 93.195312 16.382812 C 93.195312 16.359375 93.195312 16.3125 93.207031 16.234375 C 93.21875 16.152344 93.21875 16.074219 93.226562 15.972656 C 93.226562 15.878906 93.226562 15.789062 93.238281 15.699219 C 93.238281 15.605469 93.238281 15.539062 93.238281 15.492188 L 93.261719 15.492188 C 93.320312 15.617188 93.398438 15.730469 93.492188 15.84375 C 93.570312 15.960938 93.671875 16.0625 93.796875 16.152344 C 93.921875 16.246094 94.0625 16.3125 94.230469 16.371094 C 94.402344 16.4375 94.597656 16.460938 94.8125 16.460938 C 95.144531 16.460938 95.4375 16.390625 95.691406 16.246094 C 95.941406 16.109375 96.15625 15.902344 96.328125 15.640625 C 96.5 15.378906 96.625 15.070312 96.714844 14.695312 C 96.796875 14.328125 96.839844 13.917969 96.839844 13.460938 C 96.839844 12.46875 96.660156 11.726562 96.292969 11.214844 C 95.929688 10.699219 95.4375 10.449219 94.824219 10.449219 C 94.449219 10.449219 94.140625 10.53125 93.914062 10.699219 C 93.671875 10.871094 93.480469 11.089844 93.332031 11.351562 L 93.308594 11.351562 L 93.308594 7.828125 L 92.121094 7.828125 L 92.121094 15.34375 C 92.121094 15.539062 92.121094 15.730469 92.109375 15.902344 C 92.097656 16.074219 92.089844 16.234375 92.078125 16.382812 "/>
<path style=" stroke:none;fill-rule:nonzero;fill:rgb(13.729858%,12.159729%,12.548828%);fill-opacity:1;" d="M 97.910156 16.382812 L 99.09375 16.382812 L 99.09375 13.484375 L 99.117188 13.484375 L 101.066406 16.382812 L 102.480469 16.382812 L 100.109375 13.164062 L 102.273438 10.53125 L 100.964844 10.53125 L 99.09375 12.902344 L 99.09375 7.828125 L 97.910156 7.828125 L 97.910156 16.382812 "/>
<path style=" stroke:none;fill-rule:nonzero;fill:rgb(13.729858%,12.159729%,12.548828%);fill-opacity:1;" d="M 104.773438 13.792969 L 108.113281 13.792969 L 108.113281 13.394531 C 108.113281 12.878906 108.054688 12.445312 107.953125 12.070312 C 107.851562 11.691406 107.703125 11.386719 107.507812 11.144531 C 107.316406 10.90625 107.074219 10.734375 106.8125 10.621094 C 106.539062 10.507812 106.242188 10.449219 105.925781 10.449219 C 105.5625 10.449219 105.230469 10.519531 104.945312 10.664062 C 104.648438 10.816406 104.398438 11.03125 104.203125 11.292969 C 104.011719 11.566406 103.851562 11.886719 103.746094 12.265625 C 103.644531 12.640625 103.589844 13.050781 103.589844 13.496094 C 103.589844 13.917969 103.644531 14.316406 103.746094 14.683594 C 103.851562 15.046875 104 15.355469 104.214844 15.617188 C 104.421875 15.878906 104.683594 16.085938 105.003906 16.234375 C 105.320312 16.390625 105.695312 16.460938 106.121094 16.460938 C 106.480469 16.460938 106.8125 16.425781 107.097656 16.347656 C 107.382812 16.269531 107.609375 16.1875 107.804688 16.109375 L 107.746094 15.117188 C 107.601562 15.21875 107.40625 15.320312 107.179688 15.421875 C 106.9375 15.527344 106.652344 15.582031 106.3125 15.582031 C 105.765625 15.582031 105.378906 15.433594 105.136719 15.128906 C 104.898438 14.832031 104.773438 14.386719 104.773438 13.792969 "/>
<path style=" stroke:none;fill-rule:nonzero;fill:rgb(13.729858%,12.159729%,12.548828%);fill-opacity:1;" d="M 109.847656 16.382812 L 111.03125 16.382812 L 111.03125 13.234375 C 111.03125 12.9375 111.066406 12.6875 111.136719 12.46875 C 111.203125 12.253906 111.296875 12.082031 111.410156 11.945312 C 111.523438 11.820312 111.660156 11.714844 111.808594 11.648438 C 111.957031 11.589844 112.105469 11.554688 112.273438 11.554688 C 112.34375 11.554688 112.414062 11.554688 112.46875 11.566406 C 112.527344 11.578125 112.59375 11.589844 112.652344 11.601562 L 112.652344 10.460938 C 112.628906 10.460938 112.605469 10.460938 112.59375 10.449219 C 112.582031 10.449219 112.558594 10.449219 112.539062 10.449219 C 112.320312 10.449219 112.125 10.472656 111.957031 10.53125 C 111.785156 10.585938 111.648438 10.664062 111.523438 10.769531 C 111.398438 10.871094 111.28125 10.984375 111.191406 11.109375 C 111.101562 11.234375 111.019531 11.375 110.964844 11.523438 L 110.941406 11.523438 C 110.941406 11.476562 110.941406 11.410156 110.941406 11.316406 C 110.929688 11.222656 110.929688 11.121094 110.917969 11.019531 C 110.90625 10.917969 110.90625 10.824219 110.90625 10.734375 C 110.898438 10.644531 110.898438 10.574219 110.898438 10.53125 L 109.804688 10.53125 C 109.8125 10.699219 109.824219 10.882812 109.835938 11.066406 C 109.847656 11.257812 109.847656 11.453125 109.847656 11.648438 L 109.847656 16.382812 "/>
<path style=" stroke:none;fill-rule:nonzero;fill:rgb(13.729858%,12.159729%,12.548828%);fill-opacity:1;" d="M 113.835938 16.382812 L 115.019531 16.382812 L 115.019531 12.914062 C 115.019531 12.457031 115.113281 12.09375 115.304688 11.832031 C 115.488281 11.566406 115.761719 11.441406 116.136719 11.441406 C 116.445312 11.441406 116.660156 11.542969 116.808594 11.75 C 116.945312 11.957031 117.015625 12.289062 117.015625 12.742188 L 117.015625 16.382812 L 118.199219 16.382812 L 118.199219 12.46875 C 118.199219 11.855469 118.0625 11.363281 117.789062 10.996094 C 117.515625 10.632812 117.085938 10.449219 116.492188 10.449219 C 116.148438 10.449219 115.851562 10.53125 115.589844 10.699219 C 115.328125 10.871094 115.121094 11.109375 114.976562 11.417969 L 114.953125 11.417969 C 114.953125 11.386719 114.953125 11.316406 114.953125 11.234375 C 114.941406 11.15625 114.941406 11.066406 114.929688 10.976562 C 114.914062 10.882812 114.914062 10.792969 114.914062 10.710938 C 114.90625 10.632812 114.90625 10.5625 114.90625 10.53125 L 113.789062 10.53125 C 113.800781 10.699219 113.8125 10.882812 113.824219 11.066406 C 113.835938 11.257812 113.835938 11.453125 113.835938 11.648438 L 113.835938 16.382812 "/>
<path style=" stroke:none;fill-rule:nonzero;fill:rgb(13.729858%,12.159729%,12.548828%);fill-opacity:1;" d="M 78.988281 16.382812 L 80.214844 16.382812 L 80.214844 12.777344 L 82.78125 12.777344 L 82.78125 16.382812 L 84.011719 16.382812 L 84.011719 8.417969 L 82.78125 8.417969 L 82.78125 11.738281 L 80.214844 11.738281 L 80.214844 8.417969 L 78.988281 8.417969 L 78.988281 16.382812 "/>
<path style=" stroke:none;fill-rule:nonzero;fill:rgb(100%,100%,100%);fill-opacity:1;" d="M 9.144531 15.410156 L 9.144531 12.753906 L 10.011719 12.753906 C 10.25 12.753906 10.445312 12.789062 10.613281 12.855469 C 10.785156 12.925781 10.917969 13.015625 11.035156 13.144531 C 11.136719 13.269531 11.21875 13.402344 11.273438 13.566406 C 11.332031 13.722656 11.351562 13.894531 11.351562 14.089844 C 11.351562 14.464844 11.242188 14.785156 11.011719 15.035156 C 10.785156 15.285156 10.445312 15.410156 9.976562 15.410156 L 9.144531 15.410156 "/>
<path style=" stroke:none;fill-rule:nonzero;fill:rgb(100%,100%,100%);fill-opacity:1;" d="M 15.296875 12.980469 C 15.308594 12.445312 15.410156 12.023438 15.605469 11.726562 C 15.796875 11.441406 16.074219 11.292969 16.414062 11.292969 C 17.117188 11.292969 17.472656 11.855469 17.472656 12.980469 L 15.296875 12.980469 "/>
<path style=" stroke:none;fill-rule:nonzero;fill:rgb(100%,100%,100%);fill-opacity:1;" d="M 23.359375 13.519531 L 23.359375 14.042969 C 23.359375 14.511719 23.257812 14.886719 23.050781 15.171875 C 22.835938 15.46875 22.527344 15.617188 22.105469 15.617188 C 21.796875 15.617188 21.570312 15.527344 21.410156 15.355469 C 21.25 15.183594 21.171875 14.945312 21.171875 14.660156 C 21.171875 14.273438 21.320312 13.988281 21.628906 13.792969 C 21.933594 13.597656 22.378906 13.507812 22.960938 13.507812 C 23.027344 13.507812 23.097656 13.507812 23.175781 13.507812 C 23.257812 13.507812 23.324219 13.507812 23.359375 13.519531 "/>
<path style=" stroke:none;fill-rule:nonzero;fill:rgb(100%,100%,100%);fill-opacity:1;" d="M 31.621094 12.980469 C 31.632812 12.445312 31.734375 12.023438 31.929688 11.726562 C 32.121094 11.441406 32.398438 11.292969 32.738281 11.292969 C 33.445312 11.292969 33.796875 11.855469 33.796875 12.980469 L 31.621094 12.980469 "/>
<path style=" stroke:none;fill-rule:nonzero;fill:rgb(100%,100%,100%);fill-opacity:1;" d="M 44.492188 14.980469 C 44.296875 14.601562 44.207031 14.089844 44.207031 13.449219 C 44.207031 12.800781 44.296875 12.289062 44.492188 11.910156 C 44.683594 11.53125 44.980469 11.351562 45.394531 11.351562 C 45.8125 11.351562 46.109375 11.53125 46.289062 11.886719 C 46.460938 12.253906 46.554688 12.765625 46.554688 13.425781 C 46.554688 14.148438 46.472656 14.671875 46.300781 15.023438 C 46.132812 15.378906 45.824219 15.558594 45.402344 15.558594 C 44.980469 15.558594 44.671875 15.367188 44.492188 14.980469 "/>
<path style=" stroke:none;fill-rule:nonzero;fill:rgb(100%,100%,100%);fill-opacity:1;" d="M 50.511719 12.980469 C 50.523438 12.445312 50.625 12.023438 50.820312 11.726562 C 51.011719 11.441406 51.285156 11.292969 51.628906 11.292969 C 52.335938 11.292969 52.6875 11.855469 52.6875 12.980469 L 50.511719 12.980469 "/>
<path style=" stroke:none;fill-rule:nonzero;fill:rgb(100%,100%,100%);fill-opacity:1;" d="M 60.617188 15.003906 C 60.425781 14.671875 60.324219 14.148438 60.324219 13.425781 C 60.324219 12.753906 60.414062 12.253906 60.597656 11.898438 C 60.769531 11.554688 61.066406 11.386719 61.472656 11.375 C 61.863281 11.375 62.15625 11.542969 62.375 11.886719 C 62.578125 12.230469 62.679688 12.742188 62.679688 13.414062 C 62.679688 14.125 62.578125 14.648438 62.386719 14.988281 C 62.191406 15.34375 61.871094 15.515625 61.429688 15.515625 C 61.085938 15.515625 60.8125 15.34375 60.617188 15.003906 "/>
<path style=" stroke:none;fill-rule:nonzero;fill:rgb(100%,100%,100%);fill-opacity:1;" d="M 9.144531 11.808594 L 9.144531 9.367188 L 9.882812 9.367188 C 10.328125 9.367188 10.660156 9.46875 10.875 9.683594 C 11.09375 9.902344 11.195312 10.1875 11.195312 10.53125 C 11.195312 10.90625 11.082031 11.214844 10.851562 11.453125 C 10.613281 11.691406 10.269531 11.808594 9.816406 11.808594 L 9.144531 11.808594 "/>
<path style=" stroke:none;fill-rule:nonzero;fill:rgb(100%,100%,100%);fill-opacity:1;" d="M 89.035156 13.519531 L 89.035156 14.042969 C 89.035156 14.511719 88.929688 14.886719 88.726562 15.171875 C 88.511719 15.46875 88.203125 15.617188 87.78125 15.617188 C 87.472656 15.617188 87.246094 15.527344 87.085938 15.355469 C 86.925781 15.183594 86.84375 14.945312 86.84375 14.660156 C 86.84375 14.273438 86.996094 13.988281 87.300781 13.792969 C 87.609375 13.597656 88.054688 13.507812 88.636719 13.507812 C 88.703125 13.507812 88.773438 13.507812 88.851562 13.507812 C 88.929688 13.507812 89 13.507812 89.035156 13.519531 "/>
<path style=" stroke:none;fill-rule:nonzero;fill:rgb(100%,100%,100%);fill-opacity:1;" d="M 93.59375 14.980469 C 93.398438 14.601562 93.308594 14.089844 93.308594 13.449219 C 93.308594 12.800781 93.398438 12.289062 93.59375 11.910156 C 93.785156 11.53125 94.082031 11.351562 94.492188 11.351562 C 94.914062 11.351562 95.210938 11.53125 95.394531 11.886719 C 95.566406 12.253906 95.65625 12.765625 95.65625 13.425781 C 95.65625 14.148438 95.574219 14.671875 95.40625 15.023438 C 95.234375 15.378906 94.925781 15.558594 94.503906 15.558594 C 94.082031 15.558594 93.777344 15.367188 93.59375 14.980469 "/>
<path style=" stroke:none;fill-rule:nonzero;fill:rgb(100%,100%,100%);fill-opacity:1;" d="M 104.773438 12.980469 C 104.785156 12.445312 104.886719 12.023438 105.082031 11.726562 C 105.273438 11.441406 105.550781 11.292969 105.890625 11.292969 C 106.597656 11.292969 106.949219 11.855469 106.949219 12.980469 L 104.773438 12.980469 "/>
</g>
</svg>
