<?xml version="1.0" encoding="UTF-8"?>
<svg xmlns="http://www.w3.org/2000/svg" xmlns:xlink="http://www.w3.org/1999/xlink" width="137pt" height="109pt" viewBox="0 0 137 109" version="1.1">
<g id="surface1">
<path style=" stroke:none;fill-rule:nonzero;fill:rgb(100%,100%,100%);fill-opacity:1;" d="M 0.460938 108.046875 L 136.523438 108.046875 L 136.523438 0.328125 L 0.460938 0.328125 Z M 0.460938 108.046875 "/>
<path style="fill:none;stroke-width:2.835;stroke-linecap:butt;stroke-linejoin:miter;stroke:rgb(13.729858%,12.159729%,12.548828%);stroke-opacity:1;stroke-miterlimit:4;" d="M 4.609375 9.53125 L 1365.234375 9.53125 L 1365.234375 1086.71875 L 4.609375 1086.71875 L 4.609375 9.53125 " transform="matrix(0.1,0,0,-0.1,0,109)"/>
<path style=" stroke:none;fill-rule:nonzero;fill:rgb(13.729858%,12.159729%,12.548828%);fill-opacity:1;" d="M 134.800781 7.683594 C 134.800781 4.574219 132.277344 2.019531 129.136719 2.019531 L 7.816406 2.019531 C 4.675781 2.019531 2.152344 4.574219 2.152344 7.683594 L 2.152344 100.660156 C 2.152344 103.796875 4.675781 106.351562 7.816406 106.351562 L 129.136719 106.351562 C 132.277344 106.351562 134.800781 103.796875 134.800781 100.660156 L 134.800781 7.683594 "/>
<path style=" stroke:none;fill-rule:nonzero;fill:rgb(100%,100%,100%);fill-opacity:1;" d="M 133.105469 7.683594 L 133.105469 100.660156 C 133.105469 102.875 131.324219 104.628906 129.136719 104.628906 L 7.816406 104.628906 C 5.632812 104.628906 3.84375 102.875 3.84375 100.660156 L 3.84375 7.683594 C 3.84375 5.496094 5.632812 3.714844 7.816406 3.742188 L 129.136719 3.742188 C 131.324219 3.714844 133.105469 5.496094 133.105469 7.683594 "/>
<path style=" stroke:none;fill-rule:nonzero;fill:rgb(13.729858%,12.159729%,12.548828%);fill-opacity:1;" d="M 52.042969 56.09375 C 52.347656 56.1875 52.347656 56.648438 52.011719 56.742188 L 48.996094 57.632812 L 50.042969 59.480469 L 57.152344 71.761719 L 57.152344 100.105469 L 52.902344 100.105469 L 52.902344 72.898438 L 46.378906 61.601562 L 45.300781 59.757812 L 43.023438 61.941406 C 42.777344 62.1875 42.378906 61.941406 42.441406 61.636719 L 44.101562 53.910156 C 44.132812 53.726562 44.347656 53.601562 44.53125 53.664062 L 52.042969 56.09375 "/>
<path style=" stroke:none;fill-rule:nonzero;fill:rgb(13.729858%,12.159729%,12.548828%);fill-opacity:1;" d="M 101.59375 49.355469 C 101.652344 49.695312 101.285156 49.910156 101.039062 49.664062 L 98.730469 47.507812 L 97.683594 49.324219 L 84.082031 72.898438 L 84.082031 100.105469 L 79.832031 100.105469 L 79.832031 71.761719 L 93.988281 47.199219 L 95.066406 45.355469 L 92.019531 44.460938 C 91.714844 44.367188 91.683594 43.9375 92.019531 43.816406 L 99.53125 41.382812 C 99.714844 41.324219 99.898438 41.445312 99.960938 41.628906 L 101.59375 49.355469 "/>
<path style=" stroke:none;fill-rule:nonzero;fill:rgb(13.729858%,12.159729%,12.548828%);fill-opacity:1;" d="M 7.261719 47.386719 L 11.945312 47.386719 L 11.945312 46.375 L 8.636719 46.375 L 11.886719 40.484375 L 11.886719 39.449219 L 7.363281 39.449219 L 7.363281 40.460938 L 10.445312 40.460938 L 7.261719 46.273438 L 7.261719 47.386719 "/>
<path style=" stroke:none;fill-rule:nonzero;fill:rgb(13.729858%,12.159729%,12.548828%);fill-opacity:1;" d="M 13.296875 47.386719 L 14.480469 47.386719 L 14.480469 41.554688 L 13.296875 41.554688 L 13.296875 47.386719 "/>
<path style=" stroke:none;fill-rule:nonzero;fill:rgb(13.729858%,12.159729%,12.548828%);fill-opacity:1;" d="M 13.265625 40.382812 L 14.515625 40.382812 L 14.515625 39.121094 L 13.265625 39.121094 L 13.265625 40.382812 "/>
<path style=" stroke:none;fill-rule:nonzero;fill:rgb(13.729858%,12.159729%,12.548828%);fill-opacity:1;" d="M 16.464844 47.386719 L 17.648438 47.386719 L 17.648438 43.816406 C 17.648438 43.382812 17.738281 43.054688 17.910156 42.816406 C 18.078125 42.578125 18.339844 42.464844 18.671875 42.464844 C 19.214844 42.464844 19.488281 42.828125 19.488281 43.542969 L 19.488281 47.386719 L 20.671875 47.386719 L 20.671875 43.816406 C 20.671875 43.382812 20.761719 43.054688 20.933594 42.816406 C 21.105469 42.578125 21.363281 42.464844 21.695312 42.464844 C 22.238281 42.464844 22.515625 42.828125 22.515625 43.542969 L 22.515625 47.386719 L 23.695312 47.386719 L 23.695312 43.566406 C 23.695312 42.886719 23.558594 42.359375 23.285156 42.007812 C 23.003906 41.65625 22.582031 41.472656 22.015625 41.472656 C 21.636719 41.472656 21.332031 41.566406 21.09375 41.746094 C 20.851562 41.941406 20.671875 42.15625 20.523438 42.394531 C 20.46875 42.28125 20.398438 42.167969 20.320312 42.054688 C 20.238281 41.953125 20.136719 41.847656 20.023438 41.757812 C 19.910156 41.679688 19.773438 41.609375 19.625 41.554688 C 19.476562 41.496094 19.296875 41.472656 19.101562 41.472656 C 18.738281 41.472656 18.441406 41.566406 18.203125 41.746094 C 17.964844 41.941406 17.773438 42.167969 17.648438 42.453125 L 17.625 42.453125 C 17.625 42.417969 17.625 42.347656 17.625 42.257812 C 17.613281 42.179688 17.613281 42.089844 17.613281 41.996094 C 17.601562 41.90625 17.601562 41.816406 17.601562 41.734375 C 17.589844 41.65625 17.589844 41.585938 17.589844 41.554688 L 16.417969 41.554688 C 16.429688 41.710938 16.441406 41.882812 16.453125 42.066406 C 16.464844 42.246094 16.464844 42.441406 16.464844 42.65625 L 16.464844 47.386719 "/>
<path style=" stroke:none;fill-rule:nonzero;fill:rgb(13.729858%,12.159729%,12.548828%);fill-opacity:1;" d="M 25.648438 47.386719 L 26.832031 47.386719 L 26.832031 43.816406 C 26.832031 43.382812 26.921875 43.054688 27.09375 42.816406 C 27.265625 42.578125 27.527344 42.464844 27.855469 42.464844 C 28.402344 42.464844 28.675781 42.828125 28.675781 43.542969 L 28.675781 47.386719 L 29.859375 47.386719 L 29.859375 43.816406 C 29.859375 43.382812 29.949219 43.054688 30.117188 42.816406 C 30.289062 42.578125 30.550781 42.464844 30.878906 42.464844 C 31.425781 42.464844 31.699219 42.828125 31.699219 43.542969 L 31.699219 47.386719 L 32.882812 47.386719 L 32.882812 43.566406 C 32.882812 42.886719 32.746094 42.359375 32.472656 42.007812 C 32.1875 41.65625 31.765625 41.472656 31.199219 41.472656 C 30.824219 41.472656 30.515625 41.566406 30.277344 41.746094 C 30.039062 41.941406 29.859375 42.15625 29.710938 42.394531 C 29.652344 42.28125 29.585938 42.167969 29.503906 42.054688 C 29.425781 41.953125 29.324219 41.847656 29.210938 41.757812 C 29.097656 41.679688 28.960938 41.609375 28.8125 41.554688 C 28.664062 41.496094 28.480469 41.472656 28.289062 41.472656 C 27.921875 41.472656 27.628906 41.566406 27.390625 41.746094 C 27.152344 41.941406 26.957031 42.167969 26.832031 42.453125 L 26.808594 42.453125 C 26.808594 42.417969 26.808594 42.347656 26.808594 42.257812 C 26.800781 42.179688 26.800781 42.089844 26.800781 41.996094 C 26.789062 41.90625 26.789062 41.816406 26.789062 41.734375 C 26.777344 41.65625 26.777344 41.585938 26.777344 41.554688 L 25.605469 41.554688 C 25.617188 41.710938 25.628906 41.882812 25.640625 42.066406 C 25.648438 42.246094 25.648438 42.441406 25.648438 42.65625 L 25.648438 47.386719 "/>
<path style=" stroke:none;fill-rule:nonzero;fill:rgb(13.729858%,12.159729%,12.548828%);fill-opacity:1;" d="M 35.671875 44.804688 L 39.003906 44.804688 L 39.003906 44.40625 C 39.003906 43.894531 38.949219 43.464844 38.84375 43.089844 C 38.742188 42.714844 38.59375 42.40625 38.402344 42.167969 C 38.207031 41.929688 37.96875 41.757812 37.707031 41.644531 C 37.433594 41.53125 37.136719 41.472656 36.820312 41.472656 C 36.457031 41.472656 36.128906 41.542969 35.84375 41.691406 C 35.546875 41.839844 35.296875 42.054688 35.101562 42.316406 C 34.910156 42.589844 34.75 42.90625 34.648438 43.28125 C 34.546875 43.65625 34.488281 44.066406 34.488281 44.511719 C 34.488281 44.929688 34.546875 45.328125 34.648438 45.691406 C 34.75 46.054688 34.898438 46.363281 35.113281 46.625 C 35.320312 46.886719 35.582031 47.089844 35.898438 47.238281 C 36.21875 47.394531 36.59375 47.464844 37.011719 47.464844 C 37.378906 47.464844 37.707031 47.429688 37.992188 47.351562 C 38.277344 47.273438 38.503906 47.191406 38.695312 47.113281 L 38.640625 46.125 C 38.492188 46.226562 38.296875 46.328125 38.070312 46.429688 C 37.832031 46.535156 37.546875 46.589844 37.207031 46.589844 C 36.660156 46.589844 36.273438 46.441406 36.035156 46.136719 C 35.796875 45.839844 35.671875 45.398438 35.671875 44.804688 "/>
<path style=" stroke:none;fill-rule:nonzero;fill:rgb(13.729858%,12.159729%,12.548828%);fill-opacity:1;" d="M 40.734375 47.386719 L 41.917969 47.386719 L 41.917969 44.246094 C 41.917969 43.953125 41.953125 43.703125 42.019531 43.484375 C 42.089844 43.269531 42.179688 43.101562 42.292969 42.964844 C 42.40625 42.839844 42.542969 42.734375 42.691406 42.667969 C 42.839844 42.609375 42.988281 42.578125 43.15625 42.578125 C 43.226562 42.578125 43.292969 42.578125 43.351562 42.589844 C 43.40625 42.597656 43.476562 42.609375 43.535156 42.621094 L 43.535156 41.484375 C 43.511719 41.484375 43.488281 41.484375 43.476562 41.472656 C 43.464844 41.472656 43.441406 41.472656 43.417969 41.472656 C 43.203125 41.472656 43.007812 41.496094 42.839844 41.554688 C 42.667969 41.609375 42.53125 41.691406 42.40625 41.792969 C 42.28125 41.894531 42.167969 42.007812 42.078125 42.132812 C 41.988281 42.257812 41.90625 42.394531 41.851562 42.542969 L 41.828125 42.542969 C 41.828125 42.496094 41.828125 42.429688 41.828125 42.339844 C 41.816406 42.246094 41.816406 42.144531 41.804688 42.042969 C 41.792969 41.941406 41.792969 41.847656 41.792969 41.757812 C 41.78125 41.667969 41.78125 41.597656 41.78125 41.554688 L 40.691406 41.554688 C 40.703125 41.722656 40.710938 41.90625 40.722656 42.089844 C 40.734375 42.28125 40.734375 42.472656 40.734375 42.667969 L 40.734375 47.386719 "/>
<path style=" stroke:none;fill-rule:nonzero;fill:rgb(13.729858%,12.159729%,12.548828%);fill-opacity:1;" d="M 46.132812 47.386719 L 47.449219 47.386719 L 48.519531 42.65625 L 48.542969 42.65625 L 49.679688 47.386719 L 50.988281 47.386719 L 52.523438 41.554688 L 51.363281 41.554688 L 50.351562 46.261719 L 50.328125 46.261719 L 49.269531 41.554688 L 47.894531 41.554688 L 46.847656 46.261719 L 46.824219 46.261719 L 45.800781 41.554688 L 44.574219 41.554688 L 46.132812 47.386719 "/>
<path style=" stroke:none;fill-rule:nonzero;fill:rgb(13.729858%,12.159729%,12.548828%);fill-opacity:1;" d="M 56.945312 47.386719 L 58.011719 47.386719 C 58.003906 47.285156 57.980469 47.136719 57.96875 46.964844 C 57.957031 46.796875 57.945312 46.613281 57.945312 46.417969 L 57.945312 43.636719 C 57.945312 43.246094 57.910156 42.929688 57.832031 42.679688 C 57.753906 42.429688 57.628906 42.226562 57.476562 42.054688 C 57.351562 41.90625 57.148438 41.769531 56.875 41.644531 C 56.601562 41.53125 56.25 41.472656 55.808594 41.472656 C 55.433594 41.472656 55.101562 41.519531 54.820312 41.609375 C 54.535156 41.699219 54.273438 41.804688 54.058594 41.929688 L 54.148438 42.941406 C 54.292969 42.792969 54.511719 42.65625 54.796875 42.53125 C 55.066406 42.417969 55.363281 42.359375 55.695312 42.359375 C 56.113281 42.359375 56.410156 42.472656 56.589844 42.703125 C 56.683594 42.816406 56.75 42.941406 56.785156 43.078125 C 56.820312 43.222656 56.832031 43.382812 56.832031 43.566406 L 56.832031 43.804688 L 56.410156 43.804688 C 55.46875 43.804688 54.738281 43.964844 54.25 44.273438 C 53.761719 44.589844 53.511719 45.089844 53.511719 45.773438 C 53.511719 46.046875 53.554688 46.285156 53.648438 46.5 C 53.738281 46.714844 53.863281 46.886719 54.023438 47.035156 C 54.167969 47.179688 54.351562 47.285156 54.554688 47.351562 C 54.761719 47.429688 54.976562 47.464844 55.214844 47.464844 C 55.648438 47.464844 55.988281 47.375 56.25 47.191406 C 56.5 47.023438 56.707031 46.820312 56.851562 46.589844 L 56.875 46.589844 C 56.875 46.625 56.875 46.679688 56.886719 46.761719 C 56.886719 46.839844 56.886719 46.921875 56.898438 47 C 56.910156 47.078125 56.910156 47.160156 56.921875 47.226562 C 56.933594 47.304688 56.933594 47.351562 56.945312 47.386719 "/>
<path style=" stroke:none;fill-rule:nonzero;fill:rgb(13.729858%,12.159729%,12.548828%);fill-opacity:1;" d="M 59.894531 47.386719 L 61.078125 47.386719 L 61.078125 38.859375 L 59.894531 38.859375 L 59.894531 47.386719 "/>
<path style=" stroke:none;fill-rule:nonzero;fill:rgb(13.729858%,12.159729%,12.548828%);fill-opacity:1;" d="M 65.734375 47.386719 L 66.859375 47.386719 C 66.847656 47.238281 66.835938 47.078125 66.824219 46.910156 C 66.8125 46.738281 66.8125 46.542969 66.8125 46.351562 L 66.8125 38.859375 L 65.632812 38.859375 L 65.632812 42.371094 L 65.609375 42.371094 C 65.460938 42.109375 65.269531 41.894531 65.03125 41.722656 C 64.789062 41.554688 64.484375 41.472656 64.109375 41.472656 C 63.496094 41.472656 63.003906 41.722656 62.640625 42.234375 C 62.277344 42.746094 62.097656 43.484375 62.097656 44.476562 C 62.097656 44.929688 62.140625 45.339844 62.230469 45.703125 C 62.3125 46.078125 62.449219 46.386719 62.617188 46.648438 C 62.789062 46.910156 63.003906 47.113281 63.257812 47.25 C 63.507812 47.394531 63.800781 47.464844 64.132812 47.464844 C 64.347656 47.464844 64.539062 47.441406 64.710938 47.375 C 64.871094 47.320312 65.019531 47.25 65.144531 47.160156 C 65.269531 47.066406 65.371094 46.964844 65.449219 46.851562 C 65.53125 46.738281 65.609375 46.625 65.667969 46.5 L 65.699219 46.5 C 65.699219 46.554688 65.699219 46.625 65.710938 46.714844 C 65.710938 46.808594 65.710938 46.898438 65.722656 46.988281 C 65.722656 47.078125 65.722656 47.160156 65.734375 47.238281 C 65.734375 47.320312 65.734375 47.363281 65.734375 47.386719 "/>
<path style=" stroke:none;fill-rule:nonzero;fill:rgb(13.729858%,12.159729%,12.548828%);fill-opacity:1;" d="M 85.773438 35.476562 L 87 35.476562 L 87 31.691406 L 87.035156 31.691406 L 89.605469 35.476562 L 91.140625 35.476562 L 88.082031 31.28125 L 90.902344 27.539062 L 89.46875 27.539062 L 87.035156 30.941406 L 87 30.941406 L 87 27.539062 L 85.773438 27.539062 L 85.773438 35.476562 "/>
<path style=" stroke:none;fill-rule:nonzero;fill:rgb(13.729858%,12.159729%,12.548828%);fill-opacity:1;" d="M 92.828125 32.894531 L 96.15625 32.894531 L 96.15625 32.496094 C 96.15625 31.984375 96.101562 31.554688 96 31.179688 C 95.898438 30.804688 95.75 30.496094 95.554688 30.257812 C 95.363281 30.019531 95.125 29.847656 94.863281 29.734375 C 94.589844 29.621094 94.292969 29.5625 93.976562 29.5625 C 93.613281 29.5625 93.28125 29.632812 92.996094 29.78125 C 92.703125 29.925781 92.453125 30.144531 92.257812 30.40625 C 92.066406 30.675781 91.90625 30.996094 91.804688 31.371094 C 91.703125 31.746094 91.644531 32.15625 91.644531 32.601562 C 91.644531 33.019531 91.703125 33.417969 91.804688 33.78125 C 91.90625 34.148438 92.054688 34.453125 92.269531 34.714844 C 92.472656 34.976562 92.738281 35.179688 93.054688 35.328125 C 93.371094 35.484375 93.746094 35.554688 94.167969 35.554688 C 94.53125 35.554688 94.863281 35.519531 95.148438 35.441406 C 95.429688 35.363281 95.65625 35.28125 95.851562 35.203125 L 95.792969 34.214844 C 95.648438 34.316406 95.453125 34.417969 95.226562 34.519531 C 94.988281 34.625 94.703125 34.679688 94.363281 34.679688 C 93.816406 34.679688 93.429688 34.53125 93.191406 34.226562 C 92.953125 33.929688 92.828125 33.488281 92.828125 32.894531 "/>
<path style=" stroke:none;fill-rule:nonzero;fill:rgb(13.729858%,12.159729%,12.548828%);fill-opacity:1;" d="M 97.90625 35.476562 L 99.085938 35.476562 L 99.085938 32.019531 C 99.085938 31.566406 99.175781 31.199219 99.371094 30.941406 C 99.554688 30.675781 99.828125 30.550781 100.203125 30.550781 C 100.507812 30.550781 100.726562 30.65625 100.871094 30.859375 C 101.007812 31.066406 101.078125 31.394531 101.078125 31.847656 L 101.078125 35.476562 L 102.261719 35.476562 L 102.261719 31.578125 C 102.261719 30.964844 102.121094 30.472656 101.851562 30.109375 C 101.578125 29.746094 101.144531 29.5625 100.554688 29.5625 C 100.167969 29.5625 99.859375 29.652344 99.644531 29.824219 C 99.417969 30.007812 99.234375 30.199219 99.109375 30.417969 L 99.085938 30.417969 L 99.085938 26.949219 L 97.90625 26.949219 L 97.90625 35.476562 "/>
<path style=" stroke:none;fill-rule:nonzero;fill:rgb(13.729858%,12.159729%,12.548828%);fill-opacity:1;" d="M 104.304688 35.476562 L 105.484375 35.476562 L 105.484375 32.339844 C 105.484375 32.042969 105.519531 31.792969 105.589844 31.578125 C 105.65625 31.359375 105.746094 31.1875 105.859375 31.054688 C 105.976562 30.929688 106.109375 30.828125 106.257812 30.757812 C 106.40625 30.699219 106.554688 30.667969 106.726562 30.667969 C 106.792969 30.667969 106.863281 30.667969 106.917969 30.675781 C 106.976562 30.691406 107.042969 30.699219 107.101562 30.710938 L 107.101562 29.574219 C 107.078125 29.574219 107.054688 29.574219 107.042969 29.5625 C 107.03125 29.5625 107.007812 29.5625 106.988281 29.5625 C 106.769531 29.5625 106.578125 29.585938 106.40625 29.644531 C 106.238281 29.699219 106.101562 29.78125 105.976562 29.882812 C 105.851562 29.984375 105.734375 30.097656 105.644531 30.222656 C 105.554688 30.347656 105.472656 30.484375 105.417969 30.632812 L 105.394531 30.632812 C 105.394531 30.585938 105.394531 30.519531 105.394531 30.425781 C 105.382812 30.335938 105.382812 30.234375 105.371094 30.132812 C 105.359375 30.03125 105.359375 29.9375 105.359375 29.847656 C 105.351562 29.757812 105.351562 29.6875 105.351562 29.644531 L 104.257812 29.644531 C 104.269531 29.8125 104.28125 29.996094 104.289062 30.179688 C 104.304688 30.371094 104.304688 30.5625 104.304688 30.757812 L 104.304688 35.476562 "/>
<path style=" stroke:none;fill-rule:nonzero;fill:rgb(13.729858%,12.159729%,12.548828%);fill-opacity:1;" d="M 108.121094 35.25 C 108.304688 35.328125 108.53125 35.40625 108.816406 35.464844 C 109.089844 35.519531 109.394531 35.554688 109.726562 35.554688 C 110.386719 35.554688 110.886719 35.398438 111.238281 35.066406 C 111.578125 34.738281 111.75 34.316406 111.75 33.792969 C 111.75 33.441406 111.644531 33.15625 111.453125 32.941406 C 111.25 32.726562 110.976562 32.507812 110.625 32.316406 L 110.113281 32.03125 C 109.851562 31.882812 109.65625 31.757812 109.511719 31.632812 C 109.359375 31.519531 109.292969 31.359375 109.292969 31.167969 C 109.292969 30.964844 109.359375 30.792969 109.511719 30.667969 C 109.65625 30.539062 109.875 30.484375 110.171875 30.484375 C 110.40625 30.484375 110.636719 30.507812 110.828125 30.550781 C 111.023438 30.609375 111.203125 30.667969 111.363281 30.734375 L 111.421875 29.78125 C 111.296875 29.734375 111.125 29.6875 110.894531 29.632812 C 110.65625 29.585938 110.386719 29.5625 110.078125 29.5625 C 109.78125 29.5625 109.519531 29.609375 109.28125 29.699219 C 109.042969 29.789062 108.839844 29.914062 108.667969 30.066406 C 108.496094 30.222656 108.359375 30.40625 108.269531 30.597656 C 108.179688 30.804688 108.132812 31.019531 108.132812 31.234375 C 108.132812 31.441406 108.167969 31.621094 108.226562 31.78125 C 108.28125 31.941406 108.359375 32.078125 108.464844 32.203125 C 108.566406 32.328125 108.679688 32.429688 108.828125 32.519531 C 108.976562 32.621094 109.132812 32.714844 109.316406 32.804688 L 109.929688 33.109375 C 110.191406 33.238281 110.375 33.375 110.476562 33.507812 C 110.566406 33.644531 110.613281 33.792969 110.613281 33.941406 C 110.613281 34.167969 110.523438 34.339844 110.339844 34.453125 C 110.15625 34.578125 109.90625 34.636719 109.601562 34.636719 C 109.316406 34.636719 109.042969 34.589844 108.804688 34.488281 C 108.566406 34.394531 108.359375 34.304688 108.191406 34.226562 L 108.121094 35.25 "/>
<path style=" stroke:none;fill-rule:nonzero;fill:rgb(13.729858%,12.159729%,12.548828%);fill-opacity:1;" d="M 116.621094 35.476562 L 117.691406 35.476562 C 117.679688 35.375 117.65625 35.226562 117.644531 35.054688 C 117.636719 34.886719 117.621094 34.703125 117.621094 34.511719 L 117.621094 31.722656 C 117.621094 31.335938 117.589844 31.019531 117.507812 30.769531 C 117.429688 30.519531 117.304688 30.3125 117.15625 30.144531 C 117.03125 29.996094 116.824219 29.859375 116.554688 29.734375 C 116.28125 29.621094 115.929688 29.5625 115.484375 29.5625 C 115.109375 29.5625 114.78125 29.609375 114.496094 29.699219 C 114.210938 29.789062 113.949219 29.894531 113.734375 30.019531 L 113.824219 31.03125 C 113.972656 30.882812 114.1875 30.746094 114.472656 30.621094 C 114.746094 30.507812 115.042969 30.449219 115.371094 30.449219 C 115.792969 30.449219 116.089844 30.5625 116.269531 30.792969 C 116.359375 30.90625 116.429688 31.03125 116.464844 31.167969 C 116.496094 31.316406 116.507812 31.472656 116.507812 31.65625 L 116.507812 31.894531 L 116.089844 31.894531 C 115.144531 31.894531 114.414062 32.054688 113.929688 32.359375 C 113.4375 32.679688 113.1875 33.179688 113.1875 33.863281 C 113.1875 34.136719 113.234375 34.375 113.324219 34.589844 C 113.414062 34.804688 113.539062 34.976562 113.699219 35.125 C 113.847656 35.273438 114.03125 35.375 114.234375 35.441406 C 114.4375 35.519531 114.65625 35.554688 114.894531 35.554688 C 115.324219 35.554688 115.667969 35.464844 115.929688 35.28125 C 116.179688 35.113281 116.382812 34.910156 116.53125 34.679688 L 116.554688 34.679688 C 116.554688 34.714844 116.554688 34.773438 116.566406 34.851562 C 116.566406 34.929688 116.566406 35.011719 116.578125 35.089844 C 116.589844 35.167969 116.589844 35.25 116.597656 35.316406 C 116.609375 35.398438 116.609375 35.441406 116.621094 35.476562 "/>
<path style=" stroke:none;fill-rule:nonzero;fill:rgb(13.729858%,12.159729%,12.548828%);fill-opacity:1;" d="M 122.300781 35.386719 L 122.300781 34.496094 C 122.21875 34.53125 122.140625 34.566406 122.046875 34.589844 C 121.957031 34.625 121.855469 34.636719 121.730469 34.636719 C 121.515625 34.636719 121.363281 34.566406 121.265625 34.441406 C 121.160156 34.316406 121.113281 34.101562 121.113281 33.78125 L 121.113281 30.550781 L 122.300781 30.550781 L 122.300781 29.644531 L 121.113281 29.644531 L 121.113281 28.097656 L 119.933594 28.449219 L 119.933594 29.644531 L 119 29.644531 L 119 30.550781 L 119.933594 30.550781 L 119.933594 34.023438 C 119.933594 34.578125 120.058594 34.976562 120.320312 35.203125 C 120.582031 35.441406 120.945312 35.554688 121.421875 35.554688 C 121.59375 35.554688 121.761719 35.542969 121.910156 35.507812 C 122.058594 35.464844 122.195312 35.429688 122.300781 35.386719 "/>
<path style=" stroke:none;fill-rule:nonzero;fill:rgb(13.729858%,12.159729%,12.548828%);fill-opacity:1;" d="M 123.691406 35.476562 L 127.546875 35.476562 L 127.546875 34.53125 L 124.90625 34.53125 L 127.480469 30.675781 L 127.480469 29.644531 L 123.769531 29.644531 L 123.769531 30.585938 L 126.285156 30.585938 L 123.691406 34.429688 L 123.691406 35.476562 "/>
<path style=" stroke:none;fill-rule:nonzero;fill:rgb(10.112%,40.585327%,73.280334%);fill-opacity:1;" d="M 93.714844 24.148438 L 122.613281 24.148438 L 122.613281 8.269531 L 93.714844 8.269531 Z M 93.714844 24.148438 "/>
<path style=" stroke:none;fill-rule:nonzero;fill:rgb(100%,100%,100%);fill-opacity:1;" d="M 35.671875 43.996094 C 35.683594 43.464844 35.785156 43.042969 35.980469 42.746094 C 36.171875 42.464844 36.445312 42.316406 36.785156 42.316406 C 37.492188 42.316406 37.84375 42.871094 37.84375 43.996094 L 35.671875 43.996094 "/>
<path style=" stroke:none;fill-rule:nonzero;fill:rgb(100%,100%,100%);fill-opacity:1;" d="M 56.832031 44.53125 L 56.832031 45.054688 C 56.832031 45.519531 56.726562 45.898438 56.523438 46.179688 C 56.308594 46.476562 56 46.625 55.582031 46.625 C 55.273438 46.625 55.046875 46.535156 54.886719 46.363281 C 54.726562 46.191406 54.648438 45.953125 54.648438 45.667969 C 54.648438 45.285156 54.796875 45 55.101562 44.804688 C 55.410156 44.613281 55.851562 44.523438 56.433594 44.523438 C 56.5 44.523438 56.570312 44.523438 56.648438 44.523438 C 56.726562 44.523438 56.796875 44.523438 56.832031 44.53125 "/>
<path style=" stroke:none;fill-rule:nonzero;fill:rgb(100%,100%,100%);fill-opacity:1;" d="M 63.539062 46.035156 C 63.371094 45.679688 63.277344 45.148438 63.277344 44.441406 C 63.277344 43.769531 63.371094 43.257812 63.550781 42.90625 C 63.734375 42.554688 64.027344 42.371094 64.449219 42.371094 C 64.871094 42.371094 65.167969 42.554688 65.359375 42.929688 C 65.539062 43.304688 65.632812 43.816406 65.632812 44.464844 C 65.632812 45.113281 65.539062 45.625 65.359375 46 C 65.167969 46.375 64.859375 46.566406 64.4375 46.566406 C 64.007812 46.566406 63.710938 46.386719 63.539062 46.035156 "/>
<path style=" stroke:none;fill-rule:nonzero;fill:rgb(100%,100%,100%);fill-opacity:1;" d="M 92.828125 32.085938 C 92.839844 31.554688 92.941406 31.132812 93.136719 30.839844 C 93.328125 30.550781 93.601562 30.40625 93.941406 30.40625 C 94.648438 30.40625 95 30.964844 95 32.085938 L 92.828125 32.085938 "/>
<path style=" stroke:none;fill-rule:nonzero;fill:rgb(100%,100%,100%);fill-opacity:1;" d="M 116.507812 32.621094 L 116.507812 33.144531 C 116.507812 33.609375 116.40625 33.988281 116.203125 34.269531 C 115.984375 34.566406 115.679688 34.714844 115.257812 34.714844 C 114.949219 34.714844 114.726562 34.625 114.5625 34.453125 C 114.402344 34.28125 114.324219 34.042969 114.324219 33.757812 C 114.324219 33.375 114.472656 33.089844 114.78125 32.894531 C 115.085938 32.703125 115.53125 32.613281 116.109375 32.613281 C 116.179688 32.613281 116.246094 32.613281 116.328125 32.613281 C 116.40625 32.613281 116.476562 32.613281 116.507812 32.621094 "/>
<path style=" stroke:none;fill-rule:nonzero;fill:rgb(100%,100%,100%);fill-opacity:1;" d="M 97.789062 19.59375 L 99.953125 19.59375 C 100.347656 19.59375 100.699219 19.539062 101.007812 19.425781 C 101.3125 19.324219 101.566406 19.160156 101.78125 18.96875 C 101.996094 18.777344 102.15625 18.535156 102.269531 18.265625 C 102.371094 18.003906 102.429688 17.707031 102.429688 17.390625 C 102.429688 17.082031 102.386719 16.820312 102.304688 16.582031 C 102.214844 16.355469 102.101562 16.160156 101.964844 16 C 101.816406 15.855469 101.65625 15.730469 101.484375 15.636719 C 101.304688 15.546875 101.121094 15.488281 100.941406 15.457031 L 100.941406 15.433594 C 101.109375 15.375 101.269531 15.308594 101.429688 15.207031 C 101.578125 15.113281 101.714844 15 101.839844 14.855469 C 101.964844 14.707031 102.054688 14.535156 102.136719 14.328125 C 102.214844 14.136719 102.246094 13.898438 102.246094 13.636719 C 102.246094 13 102.066406 12.511719 101.703125 12.167969 C 101.324219 11.828125 100.746094 11.660156 99.953125 11.660156 L 97.789062 11.660156 L 97.789062 19.59375 "/>
<path style=" stroke:none;fill-rule:nonzero;fill:rgb(100%,100%,100%);fill-opacity:1;" d="M 105.136719 17.015625 L 108.46875 17.015625 L 108.46875 16.617188 C 108.46875 16.101562 108.410156 15.671875 108.308594 15.296875 C 108.207031 14.921875 108.058594 14.613281 107.863281 14.375 C 107.671875 14.136719 107.433594 13.96875 107.171875 13.851562 C 106.898438 13.738281 106.601562 13.679688 106.285156 13.679688 C 105.921875 13.679688 105.59375 13.75 105.308594 13.898438 C 105.011719 14.046875 104.761719 14.261719 104.566406 14.523438 C 104.375 14.796875 104.214844 15.113281 104.113281 15.488281 C 104.011719 15.863281 103.953125 16.273438 103.953125 16.71875 C 103.953125 17.140625 104.011719 17.535156 104.113281 17.902344 C 104.214844 18.265625 104.363281 18.570312 104.578125 18.832031 C 104.785156 19.09375 105.046875 19.300781 105.363281 19.449219 C 105.683594 19.605469 106.058594 19.671875 106.480469 19.671875 C 106.84375 19.671875 107.171875 19.640625 107.457031 19.5625 C 107.738281 19.480469 107.96875 19.402344 108.160156 19.324219 L 108.105469 18.332031 C 107.957031 18.433594 107.765625 18.535156 107.535156 18.640625 C 107.296875 18.742188 107.011719 18.800781 106.671875 18.800781 C 106.125 18.800781 105.738281 18.652344 105.5 18.34375 C 105.261719 18.050781 105.136719 17.605469 105.136719 17.015625 "/>
<path style=" stroke:none;fill-rule:nonzero;fill:rgb(100%,100%,100%);fill-opacity:1;" d="M 110.199219 19.59375 L 111.382812 19.59375 L 111.382812 16.457031 C 111.382812 16.160156 111.417969 15.910156 111.484375 15.695312 C 111.554688 15.480469 111.644531 15.308594 111.757812 15.171875 C 111.871094 15.046875 112.007812 14.945312 112.15625 14.875 C 112.304688 14.820312 112.453125 14.785156 112.621094 14.785156 C 112.6875 14.785156 112.757812 14.785156 112.8125 14.796875 C 112.871094 14.808594 112.941406 14.820312 112.996094 14.832031 L 112.996094 13.695312 C 112.976562 13.695312 112.949219 13.695312 112.941406 13.679688 C 112.929688 13.679688 112.90625 13.679688 112.882812 13.679688 C 112.667969 13.679688 112.472656 13.703125 112.304688 13.761719 C 112.132812 13.820312 111.996094 13.898438 111.871094 14 C 111.746094 14.101562 111.632812 14.214844 111.542969 14.339844 C 111.449219 14.464844 111.371094 14.601562 111.3125 14.75 L 111.289062 14.75 C 111.289062 14.707031 111.289062 14.636719 111.289062 14.546875 C 111.277344 14.457031 111.277344 14.351562 111.269531 14.25 C 111.257812 14.148438 111.257812 14.058594 111.257812 13.96875 C 111.246094 13.875 111.246094 13.808594 111.246094 13.761719 L 110.15625 13.761719 C 110.164062 13.933594 110.175781 14.113281 110.1875 14.296875 C 110.199219 14.488281 110.199219 14.683594 110.199219 14.875 L 110.199219 19.59375 "/>
<path style=" stroke:none;fill-rule:nonzero;fill:rgb(100%,100%,100%);fill-opacity:1;" d="M 114.179688 19.59375 L 115.359375 19.59375 L 115.359375 16.136719 C 115.359375 15.683594 115.453125 15.320312 115.644531 15.058594 C 115.828125 14.796875 116.101562 14.671875 116.476562 14.671875 C 116.78125 14.671875 116.996094 14.773438 117.144531 14.976562 C 117.28125 15.183594 117.351562 15.511719 117.351562 15.96875 L 117.351562 19.59375 L 118.53125 19.59375 L 118.53125 15.695312 C 118.53125 15.082031 118.398438 14.59375 118.125 14.226562 C 117.851562 13.863281 117.421875 13.679688 116.828125 13.679688 C 116.484375 13.679688 116.191406 13.761719 115.929688 13.933594 C 115.667969 14.101562 115.464844 14.339844 115.316406 14.648438 L 115.292969 14.648438 C 115.292969 14.613281 115.292969 14.546875 115.292969 14.464844 C 115.28125 14.386719 115.28125 14.296875 115.269531 14.207031 C 115.257812 14.113281 115.257812 14.023438 115.257812 13.945312 C 115.246094 13.863281 115.246094 13.796875 115.246094 13.761719 L 114.132812 13.761719 C 114.144531 13.933594 114.15625 14.113281 114.167969 14.296875 C 114.179688 14.488281 114.179688 14.683594 114.179688 14.875 L 114.179688 19.59375 "/>
<path style=" stroke:none;fill-rule:nonzero;fill:rgb(10.112%,40.585327%,73.280334%);fill-opacity:1;" d="M 98.996094 15.035156 L 98.996094 12.601562 L 99.734375 12.601562 C 100.179688 12.601562 100.507812 12.703125 100.726562 12.917969 C 100.941406 13.136719 101.042969 13.421875 101.042969 13.761719 C 101.042969 14.136719 100.929688 14.445312 100.699219 14.683594 C 100.464844 14.921875 100.121094 15.035156 99.664062 15.035156 L 98.996094 15.035156 "/>
<path style=" stroke:none;fill-rule:nonzero;fill:rgb(10.112%,40.585327%,73.280334%);fill-opacity:1;" d="M 98.996094 18.628906 L 98.996094 15.976562 L 99.859375 15.976562 C 100.101562 15.976562 100.292969 16.011719 100.464844 16.082031 C 100.632812 16.148438 100.769531 16.242188 100.882812 16.367188 C 100.984375 16.492188 101.066406 16.625 101.121094 16.785156 C 101.179688 16.945312 101.199219 17.117188 101.199219 17.308594 C 101.199219 17.683594 101.089844 18.003906 100.859375 18.253906 C 100.632812 18.503906 100.292969 18.628906 99.828125 18.628906 L 98.996094 18.628906 "/>
<path style=" stroke:none;fill-rule:nonzero;fill:rgb(10.112%,40.585327%,73.280334%);fill-opacity:1;" d="M 105.136719 16.207031 C 105.148438 15.671875 105.25 15.25 105.441406 14.957031 C 105.636719 14.671875 105.910156 14.523438 106.25 14.523438 C 106.953125 14.523438 107.308594 15.082031 107.308594 16.207031 L 105.136719 16.207031 "/>
</g>
</svg>
