<?xml version="1.0" encoding="UTF-8" standalone="no"?>
<svg
   width="132pt"
   height="126pt"
   viewBox="0 0 132 126"
   version="1.1"
   id="svg981"
   xmlns="http://www.w3.org/2000/svg"
   xmlns:svg="http://www.w3.org/2000/svg">
  <defs
     id="defs985" />
  <g
     id="g6087">
    <path
       style="fill:#ffffff;fill-opacity:1;fill-rule:nonzero;stroke:none"
       d="M 0.628906,125.38281 H 131.02344 V 0.65625 H 0.628906 Z m 0,0"
       id="path934" />
    <path
       style="fill:none;stroke:#211e1e;stroke-width:0.2835;stroke-linecap:butt;stroke-linejoin:miter;stroke-miterlimit:4;stroke-opacity:1"
       d="M 0.6289062,125.38281 H 131.02344 V 0.65625 H 0.6289062 v 124.72656"
       id="path936" />
    <path
       style="fill:#211e1e;fill-opacity:1;fill-rule:nonzero;stroke:none"
       d="m 9.75,2.929688 c -3.753906,0 -6.800781,3.042968 -6.800781,6.800781 V 116.31641 c 0,3.75781 3.046875,6.80078 6.800781,6.80078 h 112.25781 c 3.75782,0 6.80078,-3.04297 6.80078,-6.80078 V 9.730469 c 0,-3.757813 -3.04296,-6.800781 -6.80078,-6.800781 H 9.75"
       id="path938" />
    <path
       style="fill:#ffffff;fill-opacity:1;fill-rule:nonzero;stroke:none"
       d="m 9.75,5.203125 c -2.507812,0 -4.539062,2.03125 -4.539062,4.535156 V 116.32031 c 0,2.50782 2.03125,4.53516 4.539062,4.53516 h 112.24609 c 2.51172,0 4.53907,-2.02734 4.53907,-4.53516 V 9.738281 c 0,-2.503906 -2.02735,-4.535156 -4.53907,-4.535156 H 9.75"
       id="path940" />
    <path
       style="fill:#211e1e;fill-opacity:1;fill-rule:nonzero;stroke:none"
       d="M 51.082031,98.851562 65.824219,112.75391 80.640625,98.785156 C 80.9375,98.503906 81.011719,98.0625 80.820312,97.703125 80.628906,97.339844 80.222656,97.152344 79.824219,97.238281 L 69,99.601562 v -8.617187 h -6.347656 v 8.617187 L 51.894531,97.304688 c -0.398437,-0.08984 -0.804687,0.101562 -0.996093,0.460937 -0.1875,0.363281 -0.117188,0.804687 0.183593,1.085937"
       id="path942" />
    <g
       id="g1392"
       transform="matrix(0.96223877,0,0,0.96223877,2.4855691,7.4596841)">
      <path
         style="fill:#211e1e;fill-opacity:1;fill-rule:nonzero;stroke:none"
         d="m 29.320312,78.242188 h 2.148438 v -6.625 h 0.05859 l 4.5,6.625 h 2.6875 l -5.355469,-7.34375 4.9375,-6.546876 h -2.507813 l -4.261718,5.949219 h -0.05859 v -5.949219 h -2.148438 v 13.890626"
         id="path944" />
      <path
         style="fill:#211e1e;fill-opacity:1;fill-rule:nonzero;stroke:none"
         d="M 41.667969,73.726562 H 47.5 v -0.699218 c 0,-0.894532 -0.09766,-1.648438 -0.28125,-2.308594 -0.175781,-0.65625 -0.4375,-1.191406 -0.773438,-1.609375 -0.339843,-0.417969 -0.757812,-0.71875 -1.214843,-0.917969 -0.476563,-0.199218 -0.996094,-0.296875 -1.550781,-0.296875 -0.636719,0 -1.214844,0.121094 -1.710938,0.378907 -0.519531,0.257812 -0.957031,0.636718 -1.292969,1.09375 -0.339843,0.476562 -0.621093,1.035156 -0.796875,1.691406 -0.179687,0.65625 -0.277344,1.371094 -0.277344,2.148437 0,0.738281 0.09766,1.433594 0.277344,2.070313 0.175782,0.636718 0.4375,1.175781 0.816406,1.632812 0.355469,0.457032 0.816407,0.8125 1.371094,1.074219 0.558594,0.277344 1.214844,0.394531 1.949219,0.394531 0.640625,0 1.214844,-0.05859 1.714844,-0.195312 0.496093,-0.140625 0.894531,-0.277344 1.234375,-0.417969 l -0.101563,-1.730469 c -0.257812,0.175782 -0.597656,0.355469 -0.996093,0.535156 -0.417969,0.179688 -0.914063,0.277344 -1.511719,0.277344 -0.953125,0 -1.632813,-0.257812 -2.050781,-0.796875 -0.417969,-0.515625 -0.636719,-1.292969 -0.636719,-2.324219"
         id="path946" />
      <path
         style="fill:#211e1e;fill-opacity:1;fill-rule:nonzero;stroke:none"
         d="M 50.554688,78.242188 H 52.625 v -6.046876 c 0,-0.796874 0.15625,-1.433593 0.496094,-1.894531 C 53.4375,69.84375 53.917969,69.625 54.574219,69.625 c 0.535156,0 0.914062,0.179688 1.171875,0.539062 0.238281,0.359376 0.359375,0.933594 0.359375,1.730469 v 6.347657 h 2.070312 v -6.824219 c 0,-1.074219 -0.242187,-1.933594 -0.714843,-2.570313 -0.480469,-0.632812 -1.234376,-0.953125 -2.269532,-0.953125 -0.679687,0 -1.214844,0.160157 -1.59375,0.457031 -0.398437,0.320313 -0.714844,0.65625 -0.933594,1.035157 H 52.625 v -6.070313 h -2.070312 v 14.925782"
         id="path948" />
      <path
         style="fill:#211e1e;fill-opacity:1;fill-rule:nonzero;stroke:none"
         d="m 61.753906,78.242188 h 2.066406 V 72.75 c 0,-0.519531 0.05859,-0.957031 0.179688,-1.332031 0.117188,-0.378907 0.277344,-0.679688 0.476562,-0.917969 0.199219,-0.21875 0.4375,-0.394531 0.699219,-0.515625 0.257813,-0.09766 0.515625,-0.160156 0.8125,-0.160156 0.121094,0 0.238281,0 0.339844,0.01953 0.09766,0.01953 0.21875,0.04297 0.320313,0.05859 v -1.988282 c -0.04297,0 -0.08203,0 -0.101563,-0.01953 -0.01953,0 -0.05859,0 -0.09766,0 -0.378907,0 -0.71875,0.03906 -1.015625,0.136719 -0.300782,0.101562 -0.539063,0.242188 -0.757813,0.421875 -0.21875,0.179687 -0.417969,0.375 -0.578125,0.59375 -0.15625,0.21875 -0.296875,0.460937 -0.394531,0.71875 h -0.04297 c 0,-0.08203 0,-0.199219 0,-0.359375 -0.01563,-0.160156 -0.01563,-0.335938 -0.03906,-0.515625 -0.01953,-0.179687 -0.01953,-0.339844 -0.01953,-0.5 -0.01953,-0.15625 -0.01953,-0.277344 -0.01953,-0.359375 h -1.910156 c 0.01953,0.300781 0.03906,0.621094 0.05859,0.9375 0.02344,0.339844 0.02344,0.675781 0.02344,1.015625 v 8.257813"
         id="path950" />
      <path
         style="fill:#211e1e;fill-opacity:1;fill-rule:nonzero;stroke:none"
         d="m 68.433594,77.84375 c 0.320312,0.140625 0.71875,0.277344 1.214844,0.378906 0.476562,0.09766 1.015624,0.15625 1.589843,0.15625 1.15625,0 2.03125,-0.277344 2.648438,-0.851562 0.597656,-0.578125 0.894531,-1.316406 0.894531,-2.230469 0,-0.617187 -0.179688,-1.113281 -0.515625,-1.492187 -0.359375,-0.378907 -0.835937,-0.757813 -1.453125,-1.09375 l -0.894531,-0.5 c -0.457031,-0.257813 -0.796875,-0.476563 -1.058594,-0.695313 -0.257813,-0.199219 -0.375,-0.476563 -0.375,-0.816406 0,-0.355469 0.117187,-0.65625 0.375,-0.875 0.261719,-0.21875 0.640625,-0.316407 1.15625,-0.316407 0.417969,0 0.816406,0.03906 1.152344,0.117188 0.339843,0.101562 0.660156,0.199219 0.9375,0.320312 l 0.101562,-1.671874 c -0.222656,-0.08203 -0.519531,-0.160157 -0.917969,-0.257813 -0.417968,-0.08203 -0.894531,-0.121094 -1.433593,-0.121094 -0.515625,0 -0.972657,0.07813 -1.390625,0.238281 -0.417969,0.160157 -0.777344,0.378907 -1.074219,0.636719 -0.300781,0.277344 -0.539063,0.597657 -0.699219,0.9375 -0.15625,0.355469 -0.238281,0.734375 -0.238281,1.113281 0,0.359376 0.0625,0.675782 0.160156,0.953126 0.101563,0.28125 0.238281,0.519531 0.417969,0.738281 0.179688,0.21875 0.378906,0.398437 0.636719,0.558593 0.257812,0.175782 0.535156,0.335938 0.855469,0.496094 l 1.074218,0.535156 c 0.457032,0.21875 0.777344,0.457032 0.957032,0.699219 0.160156,0.238281 0.238281,0.496094 0.238281,0.753907 0,0.398437 -0.160157,0.699218 -0.480469,0.898437 -0.316406,0.21875 -0.753906,0.316406 -1.292969,0.316406 -0.496093,0 -0.972656,-0.07813 -1.390625,-0.257812 -0.417968,-0.160157 -0.777344,-0.320313 -1.078125,-0.460938 l -0.117187,1.792969"
         id="path952" />
      <path
         style="fill:#211e1e;fill-opacity:1;fill-rule:nonzero;stroke:none"
         d="m 83.308594,78.242188 h 1.871094 c -0.01953,-0.179688 -0.05859,-0.4375 -0.07813,-0.738282 -0.01953,-0.296875 -0.03906,-0.613281 -0.03906,-0.953125 v -4.875 c 0,-0.679687 -0.0625,-1.234375 -0.199219,-1.671875 -0.140625,-0.4375 -0.359375,-0.796875 -0.617187,-1.09375 -0.21875,-0.257812 -0.578125,-0.5 -1.054688,-0.71875 -0.480468,-0.199218 -1.09375,-0.296875 -1.871094,-0.296875 -0.65625,0 -1.234374,0.07813 -1.730468,0.238281 -0.5,0.160157 -0.957032,0.335938 -1.332032,0.558594 l 0.15625,1.769532 c 0.257813,-0.257813 0.636719,-0.496094 1.132813,-0.714844 0.480469,-0.199219 0.996094,-0.300782 1.574219,-0.300782 0.734375,0 1.253906,0.199219 1.570312,0.597657 0.160156,0.199219 0.28125,0.417969 0.339844,0.65625 0.05859,0.261719 0.07813,0.539062 0.07813,0.855469 v 0.417968 H 82.375 c -1.652344,0 -2.925781,0.28125 -3.78125,0.816406 -0.855469,0.558594 -1.292969,1.433594 -1.292969,2.625 0,0.480469 0.07813,0.898438 0.238281,1.277344 0.160157,0.375 0.378907,0.675782 0.65625,0.933594 0.257813,0.257812 0.578126,0.4375 0.9375,0.558594 0.355469,0.136718 0.734376,0.195312 1.152344,0.195312 0.753906,0 1.351563,-0.15625 1.8125,-0.472656 0.4375,-0.300781 0.796875,-0.660156 1.054688,-1.058594 h 0.03906 c 0,0.0625 0,0.160156 0.01953,0.300782 0,0.136718 0,0.277343 0.01953,0.417968 0.01953,0.136719 0.01953,0.277344 0.03906,0.398438 0.01953,0.136718 0.01953,0.21875 0.03906,0.277344"
         id="path954" />
      <path
         style="fill:#211e1e;fill-opacity:1;fill-rule:nonzero;stroke:none"
         d="M 93.242188,78.082031 V 76.53125 c -0.140626,0.05859 -0.277344,0.121094 -0.4375,0.160156 -0.160157,0.05859 -0.339844,0.07813 -0.558594,0.07813 -0.378906,0 -0.636719,-0.117187 -0.816406,-0.339843 C 91.25,76.210938 91.171875,75.832031 91.171875,75.277344 V 69.625 h 2.070313 v -1.59375 h -2.070313 v -2.703125 l -2.070313,0.617187 V 68.03125 H 87.472656 V 69.625 h 1.628906 v 6.070312 c 0,0.976563 0.222657,1.671876 0.679688,2.070313 0.453125,0.417969 1.09375,0.613281 1.929688,0.613281 0.296874,0 0.597656,-0.01953 0.855468,-0.07813 0.257813,-0.07813 0.496094,-0.140625 0.675782,-0.21875"
         id="path956" />
      <path
         style="fill:#211e1e;fill-opacity:1;fill-rule:nonzero;stroke:none"
         d="m 95.683594,78.242188 h 6.746096 V 76.589844 H 97.8125 l 4.49609,-6.746094 v -1.8125 h -6.484371 v 1.652344 h 4.394531 l -4.535156,6.726562 v 1.832032"
         id="path958" />
      <path
         style="fill:#ffffff;fill-opacity:1;fill-rule:nonzero;stroke:none"
         d="m 41.667969,72.3125 c 0.01953,-0.933594 0.199219,-1.671875 0.539062,-2.191406 0.335938,-0.496094 0.816407,-0.753906 1.410157,-0.753906 1.234374,0 1.851562,0.976562 1.851562,2.945312 h -3.800781"
         id="path960" />
      <path
         style="fill:#ffffff;fill-opacity:1;fill-rule:nonzero;stroke:none"
         d="m 83.109375,73.246094 v 0.917968 c 0,0.8125 -0.179687,1.472657 -0.535156,1.96875 -0.378907,0.519532 -0.917969,0.777344 -1.652344,0.777344 -0.539063,0 -0.9375,-0.160156 -1.214844,-0.457031 -0.277343,-0.300781 -0.417969,-0.71875 -0.417969,-1.214844 0,-0.679687 0.257813,-1.175781 0.796876,-1.511719 0.535156,-0.339843 1.3125,-0.5 2.328124,-0.5 0.121094,0 0.238282,0 0.378907,0 0.136719,0 0.257812,0 0.316406,0.01953"
         id="path962" />
    </g>
    <path
       style="fill:#1966ba;fill-opacity:1;fill-rule:nonzero;stroke:none;stroke-width:1.53109"
       d="M 20.832441,59.844621 H 110.91366 V 11.128906 H 20.832441 Z m 0,0"
       id="path964" />
    <g
       id="g1623"
       transform="matrix(1.1476791,0,0,1.1476791,-9.7263494,18.613781)">
      <path
         style="fill:#ffffff;fill-opacity:1;fill-rule:nonzero;stroke:none;stroke-width:0.768479"
         d="m 49.930107,30.069781 h 3.320071 c 0.612382,0 1.152719,-0.08705 1.624012,-0.261163 0.471295,-0.159099 0.858536,-0.40225 1.188742,-0.699436 0.333208,-0.297185 0.576359,-0.663413 0.75347,-1.083676 0.156097,-0.402251 0.243151,-0.855533 0.243151,-1.344839 0,-0.474295 -0.06904,-0.873544 -0.19212,-1.242774 C 56.726345,25.089676 56.552237,24.79249 56.345108,24.546337 56.116966,24.318195 55.870812,24.129077 55.60965,23.987988 55.330475,23.8469 55.051301,23.759846 54.769125,23.708815 v -0.03602 c 0.264165,-0.08705 0.507317,-0.19212 0.75347,-0.348217 0.228142,-0.141088 0.435271,-0.315196 0.627391,-0.543339 0.195122,-0.228142 0.333208,-0.489305 0.456284,-0.804501 0.120075,-0.297186 0.174109,-0.663414 0.174109,-1.065665 0,-0.97861 -0.279174,-1.729078 -0.840524,-2.254406 -0.576359,-0.525327 -1.464913,-0.78649 -2.689677,-0.78649 h -3.320071 v 12.199607"
         id="path966" />
      <path
         style="fill:#ffffff;fill-opacity:1;fill-rule:nonzero;stroke:none;stroke-width:0.768479"
         d="m 61.223149,26.101306 h 5.118191 v -0.609379 c 0,-0.786491 -0.08705,-1.452907 -0.243151,-2.029266 -0.156097,-0.57636 -0.38424,-1.047653 -0.681425,-1.413881 -0.297185,-0.369231 -0.666415,-0.630394 -1.065664,-0.804502 -0.420263,-0.174109 -0.873545,-0.264165 -1.365852,-0.264165 -0.558348,0 -1.065665,0.108068 -1.500936,0.333208 -0.456284,0.228142 -0.837522,0.558348 -1.137709,0.960599 -0.297186,0.420262 -0.540337,0.909567 -0.696435,1.485926 -0.159099,0.57636 -0.246153,1.206753 -0.246153,1.888177 0,0.645403 0.08705,1.257785 0.246153,1.816133 0.156098,0.56135 0.38424,1.032644 0.714446,1.434895 0.315197,0.402251 0.717447,0.717447 1.206752,0.942588 0.489306,0.243151 1.065665,0.348217 1.714069,0.348217 0.558348,0 1.065665,-0.05103 1.500936,-0.171107 0.438273,-0.123077 0.78649,-0.246154 1.083676,-0.36923 l -0.08705,-1.518948 c -0.225141,0.156098 -0.525328,0.315198 -0.873545,0.471294 -0.366228,0.156098 -0.804502,0.243152 -1.326827,0.243152 -0.840524,0 -1.434895,-0.22514 -1.801123,-0.696434 -0.366229,-0.456284 -0.558349,-1.13771 -0.558349,-2.047277"
         id="path968" />
      <path
         style="fill:#ffffff;fill-opacity:1;fill-rule:nonzero;stroke:none;stroke-width:0.768479"
         d="m 69.004001,30.069781 h 1.819134 v -4.824008 c 0,-0.453283 0.05103,-0.837522 0.156098,-1.17073 0.105065,-0.333208 0.243151,-0.594371 0.420261,-0.804502 0.174109,-0.19212 0.38424,-0.348216 0.60938,-0.453282 0.228142,-0.08705 0.456285,-0.141088 0.717448,-0.141088 0.105065,0 0.21013,0 0.297185,0.01801 0.08705,0.01801 0.19212,0.03603 0.279174,0.05103 v -1.744088 c -0.03302,0 -0.06904,0 -0.08705,-0.02101 -0.01801,0 -0.05103,0 -0.08705,0 -0.330205,0 -0.630393,0.03602 -0.891556,0.123077 -0.261163,0.08705 -0.471293,0.210131 -0.663413,0.36923 -0.19212,0.156097 -0.366229,0.330206 -0.507316,0.522325 -0.138087,0.19212 -0.261163,0.402252 -0.351219,0.630394 h -0.03302 c 0,-0.07204 0,-0.174109 0,-0.315197 -0.01801,-0.141088 -0.01801,-0.297185 -0.03602,-0.453282 -0.01802,-0.159107 -0.01802,-0.297194 -0.01802,-0.438282 -0.01501,-0.141088 -0.01501,-0.243151 -0.01501,-0.315196 H 68.93496 c 0.01801,0.261163 0.03302,0.543339 0.05103,0.822512 0.01801,0.297186 0.01801,0.594371 0.01801,0.891557 v 7.252522"
         id="path970" />
      <path
         style="fill:#ffffff;fill-opacity:1;fill-rule:nonzero;stroke:none;stroke-width:0.768479"
         d="m 75.118813,30.069781 h 1.819135 v -5.313313 c 0,-0.699436 0.141088,-1.257784 0.435271,-1.660035 0.282176,-0.402251 0.699436,-0.594371 1.275795,-0.594371 0.471295,0 0.804502,0.156098 1.032644,0.471294 0.20713,0.315197 0.315197,0.822513 0.315197,1.521949 v 5.574476 h 1.816133 v -5.994738 c 0,-0.942588 -0.210132,-1.696058 -0.630394,-2.254406 -0.41726,-0.558348 -1.080674,-0.840524 -1.99024,-0.840524 -0.525328,0 -0.978611,0.123077 -1.380862,0.38424 -0.40225,0.264165 -0.717447,0.630393 -0.945589,1.101687 h -0.03302 c 0,-0.05103 0,-0.156098 0,-0.279175 -0.01801,-0.123076 -0.01801,-0.261163 -0.03602,-0.40225 -0.01801,-0.138086 -0.01801,-0.279174 -0.01801,-0.402251 -0.01801,-0.120075 -0.01801,-0.225141 -0.01801,-0.279174 h -1.711067 c 0.01801,0.261163 0.03302,0.543339 0.05403,0.822512 0.01501,0.297186 0.01501,0.594371 0.01501,0.891557 v 7.252522"
         id="path972" />
      <path
         style="fill:#1966ba;fill-opacity:1;fill-rule:nonzero;stroke:none;stroke-width:0.768479"
         d="m 51.782263,23.06041 v -3.73733 h 1.134707 c 0.681425,0 1.188741,0.156098 1.521949,0.486303 0.330206,0.333208 0.489305,0.771481 0.489305,1.293807 0,0.576359 -0.17711,1.050655 -0.525327,1.416883 -0.366229,0.366228 -0.891556,0.540337 -1.590993,0.540337 h -1.029641"
         id="path974" />
      <path
         style="fill:#1966ba;fill-opacity:1;fill-rule:nonzero;stroke:none;stroke-width:0.768479"
         d="m 51.782263,28.583854 v -4.070538 h 1.326827 c 0.36923,0 0.666416,0.05103 0.927578,0.156098 0.261163,0.105065 0.471294,0.243151 0.645403,0.435271 0.159099,0.195122 0.279174,0.402251 0.36923,0.648404 0.08705,0.246154 0.123077,0.507317 0.123077,0.804502 0,0.576359 -0.177111,1.065664 -0.525327,1.449904 -0.35122,0.384239 -0.873545,0.576359 -1.590993,0.576359 h -1.275795"
         id="path976" />
      <path
         style="fill:#1966ba;fill-opacity:1;fill-rule:nonzero;stroke:none;stroke-width:0.768479"
         d="m 61.223149,24.861533 c 0.01501,-0.822513 0.174109,-1.467915 0.471294,-1.921198 0.297185,-0.438273 0.714446,-0.666415 1.239774,-0.666415 1.083675,0 1.627014,0.858535 1.627014,2.587613 h -3.338082"
         id="path978" />
    </g>
    <g
       id="g934"
       transform="matrix(0.67195991,0,0,0.67195991,-0.24743724,11.705989)">
      <path
         style="fill:#ffffff;fill-opacity:1;fill-rule:nonzero;stroke:none;stroke-width:1.01593"
         d="m 63.637092,28.997519 h 11.89766 V 26.42988 H 67.133369 L 75.391885,11.464545 V 8.8413451 H 63.895047 v 2.5676399 h 7.825945 l -8.0839,14.758971 v 2.829563"
         id="path828" />
      <path
         style="fill:#ffffff;fill-opacity:1;fill-rule:nonzero;stroke:none;stroke-width:1.01593"
         d="m 79.828704,11.408985 h 2.539861 V 8.3770255 h -2.539861 v 3.0319595"
         id="path830" />
      <path
         style="fill:#ffffff;fill-opacity:1;fill-rule:nonzero;stroke:none;stroke-width:1.01593"
         d="m 84.563164,11.408985 h 2.543828 V 8.3770255 h -2.543828 v 3.0319595"
         id="path832" />
      <path
         style="fill:#ffffff;fill-opacity:1;fill-rule:nonzero;stroke:none;stroke-width:1.01593"
         d="m 86.269632,28.997519 h 2.829564 c -0.02778,-0.432568 -0.05953,-0.892919 -0.08731,-1.388985 -0.02778,-0.46035 -0.02778,-0.948479 -0.02778,-1.440578 V 14.182989 h -3.004179 v 8.691087 c 0,1.154842 -0.230175,2.079509 -0.662745,2.774003 -0.436538,0.694493 -1.154843,1.039755 -2.11126,1.039755 -0.777832,0 -1.32549,-0.257954 -1.702499,-0.777832 -0.373042,-0.523847 -0.579406,-1.361206 -0.579406,-2.512081 v -9.214932 h -3.000211 v 9.905457 c 0,1.559633 0.345264,2.801783 1.035788,3.726452 0.694493,0.920699 1.793777,1.381049 3.29785,1.381049 1.008008,0 1.817588,-0.226207 2.424773,-0.718305 0.575438,-0.460349 1.039756,-1.039755 1.412798,-1.730279 h 0.05953 l 0.115087,2.250156"
         id="path834" />
      <path
         style="fill:#ffffff;fill-opacity:1;fill-rule:nonzero;stroke:none;stroke-width:1.01593"
         d="m 93.353462,28.997519 h 3.000211 v -7.968812 c 0,-0.750053 0.09127,-1.388986 0.261922,-1.936645 0.170649,-0.547656 0.404792,-0.984194 0.690525,-1.329456 0.289703,-0.317483 0.634966,-0.575438 1.011977,-0.750054 0.373043,-0.142867 0.746084,-0.230174 1.182622,-0.230174 0.170647,0 0.345262,0 0.488129,0.02777 0.146832,0.02777 0.321452,0.05953 0.464322,0.08731 v -2.889092 c -0.0595,0 -0.11509,0 -0.14287,-0.02777 -0.0318,0 -0.0873,0 -0.14684,0 -0.547654,0 -1.039751,0.05557 -1.47232,0.202396 -0.428603,0.142866 -0.777835,0.345262 -1.095317,0.603216 -0.313514,0.261923 -0.603217,0.551626 -0.83736,0.869109 -0.230175,0.317483 -0.43257,0.666714 -0.575437,1.039755 h -0.05952 c 0,-0.115087 0,-0.285734 0,-0.519877 -0.02777,-0.230175 -0.02777,-0.492099 -0.05557,-0.750053 -0.03175,-0.261922 -0.03175,-0.492097 -0.03175,-0.722273 -0.02777,-0.230175 -0.02777,-0.40479 -0.02777,-0.519877 h -2.774003 c 0.03175,0.432569 0.05953,0.892919 0.08731,1.357238 0.03175,0.492097 0.03175,0.980227 0.03175,1.472324 v 11.984968"
         id="path836" />
      <path
         style="fill:#ffffff;fill-opacity:1;fill-rule:nonzero;stroke:none;stroke-width:1.01593"
         d="m 102.75492,28.997519 h 3.00418 v -14.81453 h -3.00418 v 14.81453"
         id="path838" />
      <path
         style="fill:#ffffff;fill-opacity:1;fill-rule:nonzero;stroke:none;stroke-width:1.01593"
         d="m 102.66761,11.206589 h 3.17879 V 8.0039848 h -3.17879 v 3.2026042"
         id="path840" />
      <path
         style="fill:#ffffff;fill-opacity:1;fill-rule:nonzero;stroke:none;stroke-width:1.01593"
         d="m 119.24416,28.59273 -0.17065,-2.539861 c -0.32144,0.198426 -0.754,0.377011 -1.24611,0.519877 -0.48813,0.142869 -1.008,0.230176 -1.50011,0.230176 -1.30167,0 -2.28191,-0.46035 -2.97639,-1.385017 -0.72228,-0.924669 -1.06753,-2.16682 -1.06753,-3.726452 0,-1.821558 0.34525,-3.147047 1.03975,-4.016156 0.69449,-0.865139 1.67471,-1.297711 2.94862,-1.297711 0.54766,0 1.03578,0.05557 1.46836,0.202396 0.43653,0.142867 0.80957,0.289703 1.18659,0.48813 l 0.14682,-2.512081 c -0.37701,-0.142867 -0.81354,-0.289702 -1.3612,-0.400821 -0.54766,-0.119056 -1.09928,-0.174617 -1.64693,-0.174617 -1.12707,0 -2.13508,0.174617 -3.00419,0.547659 -0.86514,0.37701 -1.5874,0.924667 -2.16284,1.591381 -0.57941,0.690525 -1.01596,1.500104 -1.29772,2.452552 -0.2897,0.952448 -0.43653,1.964423 -0.43653,3.091487 0,1.039756 0.14683,2.023953 0.40479,2.944652 0.26192,0.924667 0.69051,1.734248 1.24214,2.400961 0.54766,0.658778 1.24216,1.206434 2.11127,1.583445 0.83339,0.404789 1.84537,0.603217 3.00021,0.603217 0.63497,0 1.24214,-0.05557 1.84537,-0.174616 0.61114,-0.138899 1.09927,-0.285734 1.47628,-0.428601"
         id="path842" />
      <path
         style="fill:#ffffff;fill-opacity:1;fill-rule:nonzero;stroke:none;stroke-width:1.01593"
         d="m 122.10151,28.997519 h 3.00021 v -8.778393 c 0,-1.154842 0.23017,-2.083479 0.72624,-2.742255 0.46035,-0.666713 1.15484,-0.984196 2.10332,-0.984196 0.78181,0 1.32946,0.257955 1.70648,0.777832 0.34922,0.523846 0.51987,1.361205 0.51987,2.512082 v 9.21493 h 3.00418 v -9.905457 c 0,-1.555663 -0.34526,-2.801782 -1.03976,-3.726451 -0.69449,-0.920699 -1.78981,-1.385018 -3.29388,-1.385018 -0.98419,0 -1.76202,0.230176 -2.30968,0.662746 -0.5794,0.464317 -1.03975,0.952447 -1.35724,1.504073 h -0.0595 V 7.337271 h -3.00021 v 21.660248"
         id="path844" />
    </g>
  </g>
</svg>
