<?xml version="1.0" encoding="UTF-8" standalone="no"?>
<svg
   width="145"
   height="37"
   version="1.1"
   id="svg1635"
   xmlns="http://www.w3.org/2000/svg"
   xmlns:svg="http://www.w3.org/2000/svg"
   xmlns:rdf="http://www.w3.org/1999/02/22-rdf-syntax-ns#"
   xmlns:cc="http://creativecommons.org/ns#"
   xmlns:dc="http://purl.org/dc/elements/1.1/">
  <metadata
     id="metadata1641">
    <rdf:RDF>
      <cc:Work
         rdf:about="">
        <dc:format>image/svg+xml</dc:format>
        <dc:type
           rdf:resource="http://purl.org/dc/dcmitype/StillImage" />
      </cc:Work>
    </rdf:RDF>
  </metadata>
  <defs
     id="defs1639" />
  <!-- Created with Method Draw - http://github.com/duopixel/Method-Draw/ -->
  <g
     id="g1622">
    <title
       id="title1616">background</title>
    <rect
       fill="#ffffff"
       opacity="0"
       id="canvas_background"
       height="202"
       width="1030"
       y="-1"
       x="-1" />
    <g
       display="none"
       overflow="visible"
       y="0"
       x="0"
       height="100%"
       width="100%"
       id="canvasGrid">
      <rect
         fill="url(#gridpattern)"
         stroke-width="0"
         y="0"
         x="0"
         height="100%"
         width="100%"
         id="rect1619" />
    </g>
  </g>
  <g
     stroke="null"
     id="svg_15"
     transform="matrix(0.14033135,0,0,0.14033135,0.61214531,5.0641471)">
    <path
       fill="#211e1e"
       fill-rule="nonzero"
       id="svg_12"
       d="M 852.51997,198.30067 1025.9631,99.55442 852.51997,0.69932 H 1.03654 v 197.60135 h 851.48343" />
    <path
       fill="#d1d1d1"
       fill-rule="nonzero"
       id="svg_11"
       d="M 849.36926,186.42845 1002.0174,99.55442 849.36926,12.54973 H 12.83557 v 173.87871 h 836.53369" />
    <path
       fill="#211e1e"
       fill-rule="nonzero"
       id="svg_10"
       d="m 852.54172,59.9514 c 21.75103,0 39.43862,17.73207 39.43862,39.53772 0,21.8056 -17.68759,39.53767 -39.43862,39.53767 -21.75103,0 -39.43862,-17.73207 -39.43862,-39.53767 0,-21.80566 17.68759,-39.53772 39.43862,-39.53772" />
    <path
       fill="#ee2b2e"
       fill-rule="nonzero"
       id="svg_9"
       d="m 852.54172,63.91607 c 19.55632,0 35.48393,15.96756 35.48393,35.57305 0,19.60544 -15.92761,35.57299 -35.48393,35.57299 -19.57807,0 -35.48393,-15.96756 -35.48393,-35.57299 0,-19.60549 15.90586,-35.57305 35.48393,-35.57305" />
  </g>
  <text
     xml:space="default"
     dominant-baseline="middle"
     text-anchor="left"
     font-family="sans-serif"
     font-size="13.1037px"
     id="svg_12-0"
     y="24"
     x="4.7474542"
     stroke-width="0"
     stroke="#000000"
     fill="#000000"
     style="font-style:normal;font-variant:normal;font-weight:normal;font-stretch:normal;font-size:11.3333px;font-family:sans-serif;-inkscape-font-specification:'sans-serif, Normal';font-variant-ligatures:normal;font-variant-caps:normal;font-variant-numeric:normal;font-variant-east-asian:normal;dominant-baseline:middle;fill:#000000;stroke:#000000;stroke-width:0" />
  <text
     xml:space="preserve"
     style="font-style:italic;font-size:13.3333px;line-height:1.25;font-family:sans-serif;-inkscape-font-specification:'sans-serif Italic'"
     x="29.567158"
     y="24.546324"
     id="text3643"><tspan
       id="tspan3641"
       x="29.567158"
       y="24.546324"
       style="font-style:normal;font-variant:normal;font-weight:normal;font-stretch:normal;font-size:13.3333px;font-family:sans-serif;-inkscape-font-specification:sans-serif">Indu SA</tspan></text>
</svg>
