<?xml version="1.0" encoding="UTF-8" standalone="no"?>
<svg
   xmlns:dc="http://purl.org/dc/elements/1.1/"
   xmlns:cc="http://creativecommons.org/ns#"
   xmlns:rdf="http://www.w3.org/1999/02/22-rdf-syntax-ns#"
   xmlns:svg="http://www.w3.org/2000/svg"
   xmlns="http://www.w3.org/2000/svg"
   xmlns:sodipodi="http://sodipodi.sourceforge.net/DTD/sodipodi-0.dtd"
   xmlns:inkscape="http://www.inkscape.org/namespaces/inkscape"
   width="97pt"
   height="65pt"
   viewBox="0 0 97 65"
   version="1.1"
   id="svg5077"
   sodipodi:docname="450-6.svg"
   inkscape:version="1.0.2 (e86c870879, 2021-01-15, custom)">
  <metadata
     id="metadata5083">
    <rdf:RDF>
      <cc:Work
         rdf:about="">
        <dc:format>image/svg+xml</dc:format>
        <dc:type
           rdf:resource="http://purl.org/dc/dcmitype/StillImage" />
      </cc:Work>
    </rdf:RDF>
  </metadata>
  <defs
     id="defs5081" />
  <sodipodi:namedview
     pagecolor="#ffffff"
     bordercolor="#666666"
     borderopacity="1"
     objecttolerance="10"
     gridtolerance="10"
     guidetolerance="10"
     inkscape:pageopacity="0"
     inkscape:pageshadow="2"
     inkscape:window-width="1920"
     inkscape:window-height="1017"
     id="namedview5079"
     showgrid="false"
     inkscape:zoom="4.9038462"
     inkscape:cx="35.12156"
     inkscape:cy="15.186212"
     inkscape:window-x="5752"
     inkscape:window-y="-8"
     inkscape:window-maximized="1"
     inkscape:current-layer="svg5077" />
  <rect
     style="fill:#ffffff;stroke:#ffffff;stroke-width:0.0754852"
     id="rect5648"
     width="96.703934"
     height="64.72995"
     x="0.10759244"
     y="0.1168699" />
  <path
     style="fill:#ae1e19;fill-opacity:1;fill-rule:nonzero;stroke:none"
     d="m 1.511719,43.464844 h 93.5625 V 62.847656 H 1.511719 V 43.464844 m 0,-41.582032 v 19.371094 h 93.5625 V 1.882812 h -93.5625 m 0,20.796876 V 42.0625 h 93.5625 V 22.679688 H 1.511719 M 31.941406,15.152344 V 10.855469 H 29.375 v 1.039062 h 1.34375 v 2.433594 c -0.125,0.06641 -0.277344,0.105469 -0.445312,0.144531 -0.171876,0.03516 -0.351563,0.05078 -0.519532,0.05078 -0.855468,-0.01563 -1.488281,-0.308594 -1.914062,-0.910157 -0.429688,-0.589843 -0.632813,-1.386719 -0.632813,-2.40625 0.0078,-0.949219 0.25,-1.699219 0.714844,-2.253906 C 28.390625,8.402344 29,8.128906 29.761719,8.117188 c 0.347656,0 0.691406,0.046874 1.011719,0.136718 0.332031,0.097656 0.636718,0.222656 0.921874,0.375 l 0.03516,-1.210937 C 31.5,7.3125 31.222656,7.222656 30.882812,7.160156 30.542969,7.089844 30.15625,7.054688 29.734375,7.054688 28.925781,7.0625 28.226562,7.238281 27.644531,7.597656 c -0.574219,0.351563 -1.023437,0.851563 -1.335937,1.488282 -0.316406,0.636718 -0.464844,1.375 -0.464844,2.226562 0,0.796875 0.132812,1.511719 0.429688,2.15625 0.289062,0.644531 0.71875,1.15625 1.300781,1.53125 0.582031,0.382812 1.316406,0.574219 2.195312,0.582031 0.464844,0 0.886719,-0.04297 1.257813,-0.132812 0.375,-0.08984 0.679687,-0.191407 0.914062,-0.296875 m 6.382813,-2.382813 v -0.417969 c -0.01953,-1.066406 -0.234375,-1.84375 -0.648438,-2.34375 -0.410156,-0.492187 -0.964843,-0.734374 -1.648437,-0.734374 -0.78125,0.019531 -1.378906,0.3125 -1.808594,0.894531 -0.425781,0.582031 -0.640625,1.34375 -0.648438,2.292969 0,0.605468 0.09766,1.132812 0.296876,1.597656 0.1875,0.464844 0.480468,0.835937 0.875,1.101562 0.390624,0.257813 0.890624,0.402344 1.484374,0.402344 0.375,0 0.714844,-0.04297 1.019532,-0.113281 0.292968,-0.07031 0.546875,-0.164063 0.753906,-0.25 l -0.06641,-1.039063 c -0.148438,0.113282 -0.355469,0.222656 -0.605469,0.328125 -0.242187,0.101563 -0.546875,0.15625 -0.898437,0.15625 -0.5625,0 -0.976563,-0.15625 -1.238282,-0.476562 -0.25,-0.3125 -0.375,-0.777344 -0.375,-1.398438 h 3.507813 m -1.21875,-0.847656 c 0,-1.171875 -0.378907,-1.753906 -1.113281,-1.765625 -0.359376,0 -0.644532,0.164062 -0.851563,0.464844 -0.207031,0.304687 -0.3125,0.734375 -0.324219,1.300781 h 2.289063 m 7.222656,3.542969 V 11.375 c 0.0078,-0.652344 -0.140625,-1.164062 -0.429687,-1.539062 -0.296876,-0.375 -0.746094,-0.5625 -1.363282,-0.574219 -0.726562,-0.015625 -1.253906,0.28125 -1.59375,0.878906 h -0.01953 c 0,-0.08984 -0.01172,-0.222656 -0.01563,-0.394531 C 40.886719,9.566406 40.875,9.433594 40.875,9.34375 h -1.171875 c 0.02344,0.367188 0.04297,0.761719 0.05469,1.171875 v 4.949219 h 1.238282 v -3.625 c 0,-0.472656 0.09375,-0.847656 0.292968,-1.128906 0.195313,-0.265626 0.496094,-0.410157 0.878907,-0.410157 0.316406,-0.0078 0.546875,0.101563 0.699219,0.320313 0.152343,0.21875 0.226562,0.566406 0.226562,1.039062 v 3.804688 h 1.234375 M 48.8125,8.617188 48.039062,6.882812 H 46.75 l 1.21875,1.734376 h 0.84375 m 1.738281,4.164062 v -0.421875 c -0.01953,-1.0625 -0.226562,-1.84375 -0.644531,-2.34375 C 49.492188,9.523438 48.9375,9.28125 48.257812,9.28125 c -0.785156,0.015625 -1.382812,0.3125 -1.8125,0.894531 -0.421874,0.574219 -0.636718,1.34375 -0.644531,2.292969 0,0.605469 0.09766,1.136719 0.292969,1.601562 0.191406,0.464844 0.484375,0.832032 0.878906,1.097657 0.386719,0.261719 0.890625,0.40625 1.480469,0.40625 0.382813,0 0.71875,-0.04687 1.023437,-0.117188 0.304688,-0.07422 0.542969,-0.164062 0.75,-0.25 l -0.0625,-1.039062 c -0.152343,0.117187 -0.359374,0.226562 -0.609374,0.332031 -0.242188,0.09766 -0.546876,0.148438 -0.898438,0.148438 -0.5625,0 -0.972656,-0.148438 -1.234375,-0.472657 -0.253906,-0.3125 -0.378906,-0.777343 -0.378906,-1.394531 h 3.507812 m -1.21875,-0.851562 c 0,-1.171876 -0.375,-1.753907 -1.113281,-1.761719 -0.355469,0 -0.644531,0.160156 -0.851562,0.464843 -0.203126,0.304688 -0.3125,0.734376 -0.324219,1.296876 h 2.289062 m 7.25,-2.558594 H 55.339844 L 54.03125,14.285156 H 54 L 52.710938,9.371094 h -1.316407 l 1.863281,6.121094 h 1.472657 l 1.851562,-6.121094 m 5.632813,3.398437 v -0.417969 c -0.0078,-1.066406 -0.222656,-1.84375 -0.636719,-2.34375 -0.421875,-0.492187 -0.96875,-0.734374 -1.660156,-0.734374 -0.769531,0.019531 -1.371094,0.3125 -1.800781,0.894531 -0.421876,0.582031 -0.636719,1.34375 -0.644532,2.292969 0,0.605468 0.09766,1.132812 0.285156,1.597656 0.199219,0.464844 0.484376,0.835937 0.878907,1.101562 0.394531,0.257813 0.886719,0.402344 1.488281,0.402344 0.378906,0 0.71875,-0.04297 1.023438,-0.113281 0.292968,-0.07031 0.546874,-0.164063 0.742187,-0.25 l -0.05469,-1.039063 c -0.160157,0.113282 -0.359376,0.222656 -0.609376,0.328125 -0.25,0.101563 -0.546874,0.15625 -0.894531,0.15625 -0.5625,0 -0.976562,-0.15625 -1.238281,-0.476562 -0.257812,-0.3125 -0.382812,-0.777344 -0.375,-1.398438 h 3.496094 m -1.222656,-0.847656 c 0,-1.171875 -0.363282,-1.753906 -1.109376,-1.765625 -0.359374,0 -0.636718,0.164062 -0.84375,0.464844 -0.203124,0.304687 -0.3125,0.734375 -0.320312,1.300781 h 2.273438 M 31.894531,35.910156 v -8.320312 h -1.191406 v 6.585937 h -0.01172 l -2.90625,-6.585937 H 26.15625 v 8.320312 h 1.199219 v -6.519531 h 0.01172 l 2.90625,6.519531 h 1.621093 m 6.328125,-6.117187 h -1.21875 l -1.21875,4.8125 h -0.02734 l -1.300781,-4.8125 h -1.289062 l 1.980469,6.191406 -0.179688,0.734375 c -0.07031,0.3125 -0.171875,0.527344 -0.285156,0.652344 -0.117188,0.125 -0.269532,0.1875 -0.449219,0.179687 -0.226563,-0.01172 -0.410156,-0.04687 -0.566406,-0.117187 l -0.0625,1.011718 c 0.21875,0.07422 0.492187,0.109376 0.816406,0.117188 0.441406,0 0.78125,-0.117188 1.039063,-0.367188 0.261718,-0.242187 0.449218,-0.601562 0.585937,-1.074218 l 2.175781,-7.328125 m 6.015625,3.050781 c -0.0078,-0.734375 -0.125,-1.324219 -0.355469,-1.789062 C 43.65625,30.589844 43.351562,30.25 42.957031,30.035156 42.574219,29.820312 42.132812,29.710938 41.65625,29.710938 c -0.484375,0 -0.921875,0.109374 -1.308594,0.324218 -0.394531,0.214844 -0.699218,0.554688 -0.925781,1.019532 -0.230469,0.464843 -0.34375,1.054687 -0.34375,1.789062 0,0.753906 0.113281,1.351562 0.34375,1.816406 0.226563,0.464844 0.53125,0.804688 0.925781,1.019532 0.386719,0.214843 0.824219,0.324218 1.308594,0.316406 0.476562,0.0078 0.917969,-0.101563 1.300781,-0.316406 0.394531,-0.214844 0.699219,-0.554688 0.925781,-1.019532 0.230469,-0.464844 0.347657,-1.0625 0.355469,-1.816406 m -1.289062,0 c 0,-0.644531 -0.08984,-1.171875 -0.289063,-1.574219 -0.195312,-0.410156 -0.535156,-0.617187 -1.003906,-0.625 -0.476562,0.0078 -0.804688,0.214844 -1.003906,0.625 -0.195313,0.402344 -0.296875,0.929688 -0.285156,1.574219 -0.01172,0.652344 0.08984,1.183594 0.285156,1.59375 0.199218,0.410156 0.527344,0.617188 1.003906,0.625 0.46875,-0.0078 0.808594,-0.214844 1.003906,-0.625 0.199219,-0.410156 0.289063,-0.941406 0.289063,-1.59375 m 7.332031,3.050781 v -4.097656 c 0,-0.644531 -0.140625,-1.164063 -0.429688,-1.539063 -0.296874,-0.367187 -0.753906,-0.5625 -1.363281,-0.574218 -0.726562,-0.0078 -1.253906,0.285156 -1.605469,0.886718 H 46.875 c 0,-0.08984 -0.01172,-0.222656 -0.02734,-0.402343 C 46.839844,30 46.828125,29.863281 46.828125,29.773438 H 45.65625 c 0.02344,0.367187 0.04297,0.753906 0.04297,1.164062 v 4.957031 h 1.25 v -3.632812 c 0,-0.472657 0.09375,-0.847657 0.292969,-1.117188 0.195312,-0.269531 0.484374,-0.410156 0.878906,-0.421875 0.3125,0 0.546875,0.105469 0.699218,0.320313 0.144532,0.226562 0.214844,0.566406 0.214844,1.039062 v 3.8125 H 50.28125 M 30.164062,56.941406 v -1.054687 h -2.734374 v -7.265625 h -1.292969 v 8.320312 h 4.027343 m 5.628907,0 c -0.01563,-0.113281 -0.03516,-0.257812 -0.04687,-0.4375 -0.01563,-0.179687 -0.02344,-0.367187 -0.02344,-0.570312 v -2.910156 c 0,-0.402344 -0.04687,-0.742188 -0.125,-1.011719 -0.08984,-0.269531 -0.207031,-0.492188 -0.371094,-0.660157 C 35.09375,51.191406 34.886719,51.046875 34.59375,50.929688 34.304688,50.8125 33.9375,50.75 33.472656,50.742188 c -0.386718,0.0078 -0.738281,0.05469 -1.042968,0.144531 -0.304688,0.09375 -0.574219,0.203125 -0.792969,0.328125 l 0.09375,1.066406 c 0.164062,-0.160156 0.394531,-0.304688 0.675781,-0.421875 0.285156,-0.117187 0.609375,-0.179687 0.949219,-0.1875 0.429687,0 0.742187,0.113281 0.941406,0.359375 0.179687,0.234375 0.269531,0.542969 0.25,0.917969 v 0.253906 h -0.4375 c -0.996094,0 -1.75,0.160156 -2.269531,0.492187 -0.519532,0.339844 -0.777344,0.859376 -0.777344,1.558594 0.01563,0.578125 0.183594,1.019532 0.527344,1.324219 0.339844,0.304687 0.761718,0.453125 1.265625,0.453125 0.445312,-0.0078 0.8125,-0.07813 1.082031,-0.230469 0.28125,-0.152343 0.496094,-0.347656 0.644531,-0.59375 h 0.01953 c 0,0.08984 0.0078,0.214844 0.01563,0.386719 0.01953,0.164062 0.03906,0.277344 0.05469,0.347656 h 1.121094 M 34.546875,54.5 v -0.535156 c -0.04297,-0.01172 -0.105469,-0.01172 -0.179687,-0.01172 -0.07813,0 -0.160157,0 -0.230469,0 -1.238281,0 -1.867188,0.394531 -1.882813,1.191406 0.0078,0.304688 0.08594,0.542969 0.261719,0.722657 0.160156,0.179687 0.398437,0.28125 0.722656,0.28125 0.429688,-0.01172 0.765625,-0.160157 0.984375,-0.460938 0.21875,-0.300781 0.324219,-0.695312 0.324219,-1.1875 m 7.503906,2.441406 c -0.02734,-0.359375 -0.04297,-0.75 -0.04297,-1.164062 v -4.957032 h -1.246093 v 3.632813 c 0,0.476563 -0.101563,0.851563 -0.296875,1.121094 -0.199219,0.277343 -0.484375,0.414062 -0.878906,0.417969 -0.3125,0 -0.546876,-0.105469 -0.699219,-0.320313 -0.144531,-0.222656 -0.222657,-0.5625 -0.214844,-1.039063 v -3.8125 H 37.42578 v 4.097657 c 0,0.65625 0.144531,1.164062 0.429688,1.539062 0.296875,0.378907 0.742187,0.566407 1.363281,0.574219 0.726562,0.01953 1.253906,-0.273438 1.605469,-0.882812 h 0.0078 c 0,0.08984 0.0078,0.21875 0.02734,0.398437 0.0078,0.171875 0.01563,0.304687 0.01563,0.394531 h 1.175781 m 5.191407,-1.761718 c 0,-0.355469 -0.109376,-0.660157 -0.3125,-0.894532 -0.207032,-0.230468 -0.496094,-0.457031 -0.871094,-0.652344 l -0.539063,-0.304687 c -0.269531,-0.144531 -0.472656,-0.277344 -0.625,-0.414063 -0.152343,-0.132812 -0.222656,-0.292968 -0.234375,-0.488281 0,-0.214843 0.08203,-0.394531 0.234375,-0.519531 0.152344,-0.125 0.375,-0.199219 0.691407,-0.199219 0.5,0.01953 0.921874,0.109375 1.253906,0.257813 l 0.0625,-1 c -0.132813,-0.04297 -0.3125,-0.09766 -0.558594,-0.144532 -0.25,-0.05469 -0.527344,-0.07031 -0.859375,-0.07812 -0.628906,0.01953 -1.121094,0.195312 -1.488281,0.539062 -0.359375,0.335938 -0.542969,0.738281 -0.554688,1.214844 0.01172,0.429687 0.125,0.757812 0.339844,1.007812 0.226562,0.253906 0.53125,0.460938 0.90625,0.640625 l 0.644531,0.320313 c 0.269531,0.132812 0.457031,0.273437 0.566407,0.417968 0.105468,0.144532 0.160156,0.296876 0.152343,0.449219 0,0.242188 -0.101562,0.421875 -0.285156,0.546875 -0.191406,0.125 -0.449219,0.1875 -0.785156,0.1875 -0.292969,-0.0078 -0.570313,-0.05469 -0.828125,-0.152344 -0.253906,-0.08984 -0.46875,-0.179687 -0.648438,-0.277343 l -0.07031,1.070312 c 0.195312,0.09375 0.4375,0.175781 0.722656,0.226563 0.289062,0.0625 0.609375,0.09766 0.960938,0.09766 0.691406,-0.0078 1.222656,-0.1875 1.578124,-0.519531 0.367188,-0.339844 0.546876,-0.777344 0.546876,-1.332031 m 5.855468,1.761718 c -0.02734,-0.113281 -0.03516,-0.257812 -0.05469,-0.4375 -0.01563,-0.179687 -0.01563,-0.367187 -0.01563,-0.570312 v -2.910163 c -0.0117,-0.402344 -0.04686,-0.742188 -0.136701,-1.011719 -0.08203,-0.269531 -0.207031,-0.492188 -0.359375,-0.660157 -0.132812,-0.160156 -0.347656,-0.304687 -0.636719,-0.421874 -0.285156,-0.117188 -0.660156,-0.179688 -1.121093,-0.1875 -0.382813,0.0078 -0.734376,0.05469 -1.039063,0.144531 -0.304687,0.09375 -0.574219,0.203125 -0.796875,0.328125 l 0.08984,1.066406 c 0.167968,-0.160156 0.394531,-0.304688 0.679687,-0.421875 0.289063,-0.117187 0.601563,-0.179687 0.953125,-0.1875 0.417969,0 0.734375,0.113281 0.9375,0.359375 0.179688,0.234375 0.261719,0.542969 0.25,0.917969 v 0.253906 h -0.4375 c -0.996094,0 -1.753906,0.160156 -2.269531,0.492187 -0.519531,0.339844 -0.777344,0.859376 -0.777344,1.558594 0.0078,0.578125 0.1875,1.019532 0.527344,1.324219 0.332031,0.304687 0.753906,0.453125 1.265625,0.453125 0.449219,-0.0078 0.808594,-0.07813 1.082031,-0.230469 0.269531,-0.152343 0.484375,-0.347656 0.648438,-0.59375 h 0.0078 c 0,0.08984 0.0078,0.214844 0.02734,0.386719 0.01172,0.164062 0.02734,0.277344 0.04687,0.347656 h 1.128906 M 51.847656,54.5 v -0.535156 c -0.04297,-0.01172 -0.105468,-0.01172 -0.183594,-0.01172 -0.08203,0 -0.15625,0 -0.234374,0 -1.238282,0 -1.855469,0.394531 -1.875,1.191406 0,0.304688 0.08203,0.542969 0.25,0.722657 0.171874,0.179687 0.414062,0.28125 0.726562,0.28125 0.4375,-0.01172 0.773438,-0.160157 0.988281,-0.460938 0.222657,-0.300781 0.328125,-0.695312 0.328125,-1.1875 m 7.460938,2.425781 v -4.101562 c 0,-0.644531 -0.144532,-1.164063 -0.4375,-1.539063 C 58.585938,50.921875 58.125,50.722656 57.515625,50.714844 56.789062,50.707031 56.253906,51 55.914062,51.601562 h -0.01172 c 0,-0.08984 -0.0078,-0.226562 -0.02734,-0.40625 -0.0078,-0.167968 -0.01563,-0.300781 -0.01563,-0.394531 h -1.175781 c 0.02734,0.371094 0.04687,0.753907 0.04687,1.164063 v 4.960937 h 1.242187 v -3.636719 c 0,-0.46875 0.101563,-0.847656 0.296875,-1.117187 0.199219,-0.265625 0.484375,-0.410156 0.878907,-0.421875 0.3125,0 0.546874,0.109375 0.691406,0.324219 0.152344,0.226562 0.222656,0.566406 0.222656,1.039062 v 3.8125 h 1.246094 m 6.285156,0 v -4.101562 c 0,-0.644531 -0.140625,-1.164063 -0.429688,-1.539063 -0.296874,-0.363281 -0.746093,-0.5625 -1.363281,-0.570312 C 63.074219,50.707031 62.546875,51 62.207031,51.601562 H 62.1875 c 0,-0.08984 -0.01172,-0.226562 -0.01953,-0.40625 -0.01563,-0.167968 -0.02734,-0.300781 -0.02734,-0.394531 h -1.17188 c 0.02344,0.371094 0.04297,0.753907 0.05469,1.164063 v 4.960937 h 1.238281 v -3.636719 c 0,-0.46875 0.09375,-0.847656 0.292969,-1.117187 C 62.75,51.90625 63.046875,51.761719 63.433594,51.75 c 0.3125,0 0.546875,0.109375 0.699218,0.324219 0.140626,0.226562 0.222657,0.566406 0.222657,1.039062 v 3.8125 h 1.238281 m 6.222656,-2.695312 v -0.421875 c -0.01953,-1.0625 -0.234375,-1.847656 -0.644531,-2.34375 -0.414063,-0.492188 -0.96875,-0.742188 -1.648437,-0.734375 -0.785157,0.01953 -1.382813,0.316406 -1.8125,0.894531 -0.425782,0.574219 -0.636719,1.34375 -0.644532,2.292969 0,0.601562 0.09375,1.136719 0.285156,1.601562 0.199219,0.46875 0.492188,0.832031 0.886719,1.09375 0.386719,0.269531 0.890625,0.398438 1.480469,0.410157 0.375,-0.01172 0.71875,-0.04688 1.023438,-0.117188 0.292968,-0.07813 0.542968,-0.160156 0.75,-0.257812 l -0.0625,-1.039063 c -0.152344,0.125 -0.359376,0.234375 -0.609376,0.328125 -0.242187,0.101562 -0.546874,0.15625 -0.898437,0.164062 -0.5625,0 -0.972656,-0.164062 -1.234375,-0.472656 -0.253906,-0.316406 -0.386719,-0.78125 -0.378906,-1.398437 h 3.507812 m -1.21875,-0.851563 c 0,-1.167968 -0.378906,-1.761718 -1.113281,-1.761718 -0.355469,0 -0.644531,0.152343 -0.851563,0.457031 -0.207031,0.316406 -0.3125,0.746093 -0.324218,1.304687 h 2.289062 M 8.042969,52.238281 c -0.199219,-0.05078 -0.410157,-0.07422 -0.625,-0.07422 -1.453125,0 -2.636719,1.179688 -2.636719,2.628907 0,1.453125 1.183594,2.632812 2.636719,2.632812 1.238281,0 2.277343,-0.851562 2.5625,-2 l -2.125,-0.0039 c -0.253907,0 -0.648438,0.01563 -0.808594,-0.234375 -0.132813,-0.214844 0.035156,-0.546875 0.089844,-0.699219 l 0.90625,-2.25 m 2.242187,-2.804687 1.691406,5.164062 4.417969,-4.453125 -0.203125,-0.710937 h -5.90625 m -1.371094,2.351562 c 1.082032,0.546875 1.832032,1.667969 1.851563,2.957032 h 0.574219 l -1.613282,-4.882813 -0.8125,1.925781 m 8.132813,0.527344 c -0.972656,0.386719 -1.660156,1.335938 -1.660156,2.441406 0,1.453125 1.179687,2.628906 2.636719,2.628906 1.453124,0 2.636718,-1.175781 2.636718,-2.628906 0,-1.453125 -1.183594,-2.628906 -2.636718,-2.628906 -0.109376,0 -0.222657,0.0078 -0.328126,0.01953 l 0.710938,2.519531 c 0.03906,0.125 0.0625,0.363282 -0.207031,0.441407 -0.273438,0.07422 -0.40625,-0.113281 -0.445313,-0.25 L 17.046875,52.3125 M 8.289062,51.570312 C 8.007812,51.496094 7.707031,51.4375 7.40625,51.4375 c -1.859375,0 -3.363281,1.503906 -3.363281,3.355469 0,1.855469 1.503906,3.355469 3.363281,3.355469 1.640625,0 3.011719,-1.175782 3.304688,-2.730469 l 0.730468,-0.0039 c 0.175782,0 0.398438,0 0.574219,-0.07031 0.183594,-0.05859 0.34375,-0.195312 0.480469,-0.328125 l 4.132812,-4.128906 0.234375,0.734375 c -1.277343,0.480468 -2.214843,1.6875 -2.214843,3.132812 0,1.851563 1.507812,3.363282 3.363281,3.363282 1.859375,0 3.371093,-1.511719 3.371093,-3.363282 0,-1.851562 -1.511718,-3.359375 -3.371093,-3.359375 -0.183594,0 -0.347657,0.02344 -0.527344,0.05078 L 16.472656,47.898438 C 16.402344,47.660156 16.308594,47.371094 16.140625,47.203125 15.945312,47.003906 15.621094,46.875 15.242188,46.875 h -1.238282 v 0.65625 h 0.992188 c 0.195312,0 0.441406,0 0.574218,0.109375 0.128907,0.117187 0.171876,0.265625 0.226563,0.445313 l 0.21875,0.71875 h -5.941406 l -0.207031,-0.609376 0.9375,-0.226562 v -0.4375 H 8.695312 v 0.664062 h 0.507813 l 0.222656,0.609376 -1.136719,2.765624 m 0.371094,0.898438 -0.898437,2.273438 h 2.28125 c 0,-1 -0.554688,-1.824219 -1.382813,-2.273438 M 86.027344,5.421875 C 85.8125,4.929688 85.878906,4.054688 85.050781,3.875 84.839844,3.828125 84.316406,3.894531 84.09375,4.382812 84.066406,4.4375 83.886719,4.867188 83.886719,4.867188 l 2.140625,0.554687 M 85.480469,5.648438 V 5.53125 L 83.839844,5.074219 c -0.04297,0.199219 -0.109375,0.375 -0.109375,0.554687 -0.0039,0.429688 0.179687,0.929688 0.699219,0.929688 0.378906,0 1.050781,-0.375 1.050781,-0.910156 m 3.988281,2.046874 c 0,-0.363281 -1.828125,-2.117187 -2.242188,-1.957031 -0.140624,0.050781 -0.257812,0.050781 -0.34375,0.175781 -0.101562,0.164063 0.3125,0.34375 0.488282,0.5625 0.398437,0.511719 0.648437,0.941407 0.871094,1.398438 0.05469,0.097656 0.261718,0.796875 0.558593,0.796875 0.363281,0 0.667969,-0.839844 0.667969,-0.976563 m -1.945312,7.140626 0.34375,1.925781 c 0.03516,0.25 -0.117188,0.375 -0.402344,0.3125 -0.4375,-0.140625 -1.140625,-0.363281 -1.855469,-0.582031 -0.0078,0.07812 -0.01172,0.15625 -0.01172,0.234374 0,1.046876 0.855469,1.894532 1.894532,1.894532 1.046874,0 1.898437,-0.847656 1.898437,-1.894532 0,-1.027343 -0.835937,-1.871093 -1.867187,-1.890624 m -5.96875,-2.5625 0.601562,-0.667969 c 0.25,0.988281 1.128906,4.160156 1.128906,4.160156 0,0 0.722656,0.226563 1.601563,0.5 -0.02734,0.152344 -0.04297,0.308594 -0.04297,0.46875 0,1.460937 1.183594,2.640625 2.648438,2.640625 1.460937,0 2.652343,-1.179688 2.652343,-2.640625 0,-1.457031 -1.191406,-2.648437 -2.652343,-2.648437 -0.03516,0 -0.07031,0 -0.105469,0.0039 l -0.21875,-1.222656 c 0.753906,-0.777344 1.757812,-1.691407 1.703125,-2.253907 -0.105469,-1.058593 -1.425782,-4.410156 -2.574219,-4.570312 -0.160156,0 -0.167969,-0.019531 -0.214844,-0.019531 -0.617187,0 -2.921875,1.691406 -4.328125,2.601562 -0.449218,-0.125 -0.90625,0.460938 -0.554687,0.890625 0.195312,0.25 0.480469,0.253906 0.6875,0.148437 0.160156,-0.070312 0.269531,-0.222656 0.296875,-0.382812 0.25,0.222656 0.6875,0.644531 0.6875,0.644531 -0.574219,0.644531 -1.054688,1.1875 -1.46875,1.644531 -0.05859,0.0625 -0.144532,0.164063 -0.253906,0.285157 -0.460938,-0.375 -1.046876,-0.597657 -1.683594,-0.597657 -1.457032,0 -2.640625,1.179688 -2.640625,2.640626 0,1.457031 1.183593,2.636718 2.640625,2.636718 1.464844,0 2.652344,-1.179687 2.652344,-2.636718 0,-0.613282 -0.210938,-1.179688 -0.5625,-1.625 M 82.640625,9 l 1.058594,0.890625 -0.636719,0.714844 1.308594,0.488281 0.05859,-0.554688 c 0.695312,-0.140624 2.082031,-0.488281 2.082031,-0.488281 0,0 -0.9375,-1.71875 -1.34375,-2.433593 L 82.640625,9 m 2.6875,2.445312 1.050781,0.402344 0.386719,-0.589844 -1.4375,0.1875 m -0.382813,2.566407 1.09375,-1.652344 -0.824218,-0.324219 -0.269532,1.976563 m 1.980469,0.910156 c -0.503906,0.15625 -0.917969,0.527344 -1.144531,0.996094 l 1.414062,0.449219 -0.269531,-1.445313 M 85.058594,15.6875 C 85.375,14.957031 86.011719,14.394531 86.789062,14.175781 L 86.648438,13.40625 c -0.824219,0.867188 -1.613282,1.800781 -2.042969,1.839844 -0.433594,0.04687 -0.613281,-0.285156 -0.613281,-0.542969 0,-0.3125 0.109374,-1.03125 0.109374,-1.226563 0,0 0.117188,-1.082031 0.203126,-1.773437 l -1.683594,-0.632813 1.109375,4.195313 1.328125,0.421875 m -4.015625,-2.84375 -1.082031,1.203125 c -0.304688,0.08984 -0.359376,0.109375 -0.40625,0.121094 -0.132813,0.05078 -0.328126,-0.03516 -0.359376,-0.179688 -0.05078,-0.285156 0.15625,-0.371093 0.433594,-0.449219 0.332032,-0.367187 0.699219,-0.773437 1.011719,-1.125 -0.320313,-0.253906 -0.730469,-0.40625 -1.175781,-0.40625 -1.039063,0 -1.890625,0.839844 -1.890625,1.890626 0,1.046874 0.851562,1.898437 1.890625,1.898437 1.050781,0 1.902344,-0.851563 1.902344,-1.898437 0,-0.390626 -0.121094,-0.753907 -0.324219,-1.054688 M 79.25,32.882812 c -0.214844,0.05859 -0.324219,0.191407 -0.324219,0.394532 0,0.113281 0.02734,0.238281 0.08203,0.378906 v 0.0039 c 0.07813,0.207032 0.265626,0.417969 0.5625,0.625 0.296876,0.210938 0.558594,0.316406 0.789063,0.324219 0.613281,-0.0078 1.183594,-0.01172 1.710937,-0.01172 0.320313,0 0.761719,0.0039 1.316407,0.0078 0.585937,0.0039 1.058593,0.0078 1.417969,0.0078 0.171874,0 0.347656,0 0.523437,-0.0039 0.925781,-0.0039 1.558594,-0.08203 1.90625,-0.230469 0.160156,-0.06641 0.269531,-0.152344 0.335937,-0.253906 0.06641,-0.101562 0.09766,-0.230469 0.09766,-0.398438 0,-0.238281 -0.07031,-0.566406 -0.207031,-0.992187 v -0.0039 c -0.05469,-0.179688 -0.207032,-0.429688 -0.457032,-0.746094 -0.296875,-0.386719 -0.515625,-0.722656 -0.648437,-1.011719 -0.226563,-0.496094 -0.367188,-1.082031 -0.414063,-1.765625 -0.01953,-0.171875 -0.07813,-0.40625 -0.179687,-0.699219 -0.05859,-0.175781 -0.121094,-0.316406 -0.1875,-0.417968 -0.05469,-0.08594 -0.09766,-0.132813 -0.128907,-0.140625 -0.0039,0 -0.01172,0.0039 -0.02344,0.0078 -0.214844,0.136719 -0.460937,0.203125 -0.742187,0.203125 -0.246094,0 -0.609376,-0.07031 -1.101563,-0.21875 -0.453125,-0.136718 -0.785156,-0.203125 -0.988281,-0.203125 -0.191406,0 -0.359375,0.04297 -0.507813,0.128907 0.296875,0.78125 0.613281,1.617187 0.949219,2.511718 0.05078,0.128906 0.07422,0.261719 0.07422,0.386719 0,0.527344 -0.410157,0.96875 -1.242188,1.335937 -0.429687,0.1875 -1.125,0.402344 -2.089843,0.644532 -0.246094,0.0625 -0.421876,0.105468 -0.523438,0.136718 m -0.136719,-0.492187 c -0.464843,0.128906 -0.699219,0.421875 -0.699219,0.882813 0,0.179687 0.03906,0.367187 0.117188,0.5625 0.113281,0.308593 0.363281,0.59375 0.746094,0.863281 0.378906,0.265625 0.730468,0.40625 1.0625,0.417969 h 0.02344 c 0.613281,-0.0078 1.179688,-0.01172 1.703125,-0.01172 0.324219,0 0.761719,0 1.3125,0.0039 0.589844,0.0078 1.0625,0.0078 1.425782,0.0078 0.226562,0 0.40625,0 0.527343,0 0.988281,-0.0078 1.691407,-0.09766 2.101563,-0.273438 0.25,-0.109375 0.4375,-0.253906 0.5625,-0.441406 0.117187,-0.1875 0.179687,-0.410156 0.179687,-0.675782 0,-0.292968 -0.07813,-0.675781 -0.230469,-1.152343 -0.07812,-0.234375 -0.253906,-0.539063 -0.539062,-0.902344 -0.277344,-0.355469 -0.476562,-0.660156 -0.589844,-0.914063 -0.203125,-0.4375 -0.328125,-0.964843 -0.371094,-1.582031 V 29.15625 C 86.421875,28.945312 86.355469,28.671875 86.242188,28.339844 86.167969,28.125 86.085938,27.949219 86,27.816406 85.875,27.617188 85.730469,27.496094 85.574219,27.457031 l -0.125,-0.03516 -0.121094,0.03125 c -0.0625,0.01563 -0.121094,0.03906 -0.175781,0.07422 -0.132813,0.08203 -0.292969,0.125 -0.476563,0.125 -0.191406,0 -0.511719,-0.06641 -0.953125,-0.199219 -0.503906,-0.148437 -0.878906,-0.222656 -1.132812,-0.222656 -0.285156,0 -0.539063,0.06641 -0.769532,0.199219 l -0.367187,0.21875 0.152344,0.398437 c 0.292969,0.769531 0.609375,1.605469 0.949219,2.507813 0.03125,0.07422 0.04297,0.144531 0.04297,0.210937 0,0.304687 -0.3125,0.59375 -0.941406,0.871094 -0.402344,0.175781 -1.070312,0.382812 -2.007812,0.617187 -0.269532,0.06641 -0.449219,0.113282 -0.535157,0.136719 m 9.570313,3.785156 c -0.507813,0 -0.917969,0.410157 -0.917969,0.914063 0,0.507812 0.410156,0.917968 0.917969,0.917968 0.507812,0 0.917968,-0.410156 0.917968,-0.917968 0,-0.503906 -0.410156,-0.914063 -0.917968,-0.914063 m 0,-0.5 c -0.78125,0 -1.417969,0.632813 -1.417969,1.414063 0,0.78125 0.636719,1.417968 1.417969,1.417968 0.785156,0 1.417968,-0.636718 1.417968,-1.417968 0,-0.78125 -0.632812,-1.414063 -1.417968,-1.414063 m -3.378906,0.5 c -0.503907,0 -0.914063,0.410157 -0.914063,0.914063 0,0.507812 0.410156,0.917968 0.914063,0.917968 0.511718,0 0.917968,-0.410156 0.917968,-0.917968 0,-0.503906 -0.40625,-0.914063 -0.917968,-0.914063 m 0,-0.5 c -0.78125,0 -1.414063,0.632813 -1.414063,1.414063 0,0.78125 0.632813,1.417968 1.414063,1.417968 0.785156,0 1.421874,-0.636718 1.421874,-1.417968 0,-0.78125 -0.636718,-1.414063 -1.421874,-1.414063 m -3.378907,0.5 c -0.507812,0 -0.917969,0.410157 -0.917969,0.914063 0,0.507812 0.410157,0.917968 0.917969,0.917968 0.503907,0 0.917969,-0.410156 0.917969,-0.917968 0,-0.503906 -0.414062,-0.914063 -0.917969,-0.914063 m 0,-0.5 c -0.785156,0 -1.417969,0.632813 -1.417969,1.414063 0,0.78125 0.632813,1.417968 1.417969,1.417968 0.78125,0 1.417969,-0.636718 1.417969,-1.417968 0,-0.78125 -0.636719,-1.414063 -1.417969,-1.414063 m -3.382812,0.5 c -0.507813,0 -0.917969,0.410157 -0.917969,0.914063 0,0.507812 0.410156,0.917968 0.917969,0.917968 0.503906,0 0.917969,-0.410156 0.917969,-0.917968 0,-0.503906 -0.414063,-0.914063 -0.917969,-0.914063 m 0,-0.5 c -0.785157,0 -1.417969,0.632813 -1.417969,1.414063 0,0.78125 0.632812,1.417968 1.417969,1.417968 0.78125,0 1.417969,-0.636718 1.417969,-1.417968 0,-0.78125 -0.636719,-1.414063 -1.417969,-1.414063 M 18.027344,34.558594 v -3.78125 l -7.320313,0.503906 1.097657,-4.398438 c 0.01172,-0.03906 0.01953,-0.07812 0.01953,-0.121093 0,-0.28125 -0.226563,-0.503907 -0.507813,-0.503907 -0.125,0 -0.238281,0.04688 -0.328125,0.121094 l -6.902343,5.90625 c -0.109376,0.09375 -0.175782,0.230469 -0.175782,0.382813 0,0.152343 0.066406,0.292969 0.175782,0.382812 l 6.902343,5.910157 c 0.08984,0.07422 0.203125,0.121093 0.328125,0.121093 0.28125,0 0.507813,-0.226562 0.507813,-0.503906 0,-0.04297 -0.0078,-0.08594 -0.01953,-0.125 l -1.097657,-4.398437 7.320313,0.503906 m 60.414062,20.835937 7.320313,-0.503906 -1.101563,4.398437 c -0.01172,0.03906 -0.01563,0.08203 -0.01563,0.125 0,0.277344 0.222657,0.503907 0.503907,0.503907 0.125,0 0.242187,-0.04687 0.328124,-0.121094 l 6.90625,-5.910156 c 0.105469,-0.08984 0.171876,-0.230469 0.171876,-0.382813 0,-0.152344 -0.06641,-0.289062 -0.171876,-0.382812 l -6.90625,-5.90625 c -0.08594,-0.07422 -0.203124,-0.121094 -0.328124,-0.121094 -0.28125,0 -0.503907,0.226562 -0.503907,0.503906 0,0.04297 0.0039,0.08203 0.01563,0.121094 l 1.101563,4.398438 -7.320313,-0.503907 v 3.78125 M 10.4375,17.898438 h 3.789062 L 13.71875,10.589844 18.128906,11.6875 c 0.03516,0.01172 0.07813,0.01563 0.121094,0.01563 0.28125,0 0.507812,-0.222656 0.507812,-0.503906 0,-0.125 -0.04687,-0.238281 -0.125,-0.328125 L 12.714844,3.980469 C 12.621094,3.875 12.484375,3.804688 12.332031,3.804688 c -0.152343,0 -0.292969,0.070312 -0.382812,0.175781 L 6.03125,10.871094 c -0.078125,0.08984 -0.125,0.203125 -0.125,0.328125 0,0.28125 0.226562,0.503906 0.507812,0.503906 0.042969,0 0.085938,-0.0039 0.121094,-0.01563 l 4.40625,-1.097656 -0.503906,7.308594"
     id="path5074" />
</svg>
