<?xml version="1.0" encoding="UTF-8" standalone="no"?>
<svg
   width="97pt"
   height="65pt"
   viewBox="0 0 97 65"
   version="1.1"
   id="svg5077"
   xmlns="http://www.w3.org/2000/svg"
   xmlns:svg="http://www.w3.org/2000/svg"
   xmlns:rdf="http://www.w3.org/1999/02/22-rdf-syntax-ns#"
   xmlns:cc="http://creativecommons.org/ns#"
   xmlns:dc="http://purl.org/dc/elements/1.1/">
  <metadata
     id="metadata5083">
    <rdf:RDF>
      <cc:Work
         rdf:about="">
        <dc:format>image/svg+xml</dc:format>
        <dc:type
           rdf:resource="http://purl.org/dc/dcmitype/StillImage" />
      </cc:Work>
    </rdf:RDF>
  </metadata>
  <defs
     id="defs5081" />
  <rect
     style="fill:#ffffff;stroke:#ffffff;stroke-width:0.0754852"
     id="rect5648"
     width="96.703934"
     height="64.72995"
     x="0.10759244"
     y="0.1168699" />
  <path
     style="fill:#ae1e19;fill-opacity:1;fill-rule:nonzero;stroke:none"
     d="M 1.511719,22.679688 V 42.0625 h 93.5625 V 22.679688 h -93.5625"
     id="path2" />
  <path
     style="fill:#ae1e19;fill-opacity:1;fill-rule:nonzero;stroke:none"
     d="m 1.511719,1.882812 v 19.371094 h 93.5625 V 1.882812 h -93.5625"
     id="path1" />
  <path
     style="fill:#ae1e19;fill-opacity:1;fill-rule:nonzero;stroke:none"
     d="m 1.511719,43.464844 h 93.5625 V 62.847656 H 1.511719 V 43.464844"
     id="path5074" />
  <path
     id="path34"
     style="fill:#fffefe;fill-opacity:1;fill-rule:nonzero;stroke:none"
     d="m 14.003906,46.875 v 0.65625 h 0.991699 c 0.195312,0 0.441407,4.88e-4 0.574219,0.109863 0.128907,0.117187 0.172364,0.265625 0.227051,0.445313 l 0.218262,0.717773 H 10.07373 L 9.8671875,48.194824 10.804688,47.969238 V 47.53125 H 8.6953125 v 0.663574 h 0.5083008 l 0.2226562,0.609375 -1.1367187,2.765625 C 8.0083008,51.495606 7.707031,51.437988 7.40625,51.437988 c -1.859375,0 -3.3632813,1.502929 -3.3632812,3.354492 0,1.855469 1.5039062,3.355958 3.3632812,3.355958 1.640625,0 3.011719,-1.175782 3.304688,-2.730469 l 0.730957,-0.0044 c 0.175782,0 0.398437,-2e-6 0.574218,-0.07031 0.183594,-0.05859 0.34375,-0.195312 0.480469,-0.328125 l 4.132324,-4.12793 0.234375,0.733887 c -1.277343,0.480468 -2.214843,1.687989 -2.214843,3.133301 0,1.851563 1.507812,3.363281 3.363281,3.363281 1.859375,0 3.370605,-1.511718 3.370605,-3.363281 0,-1.851562 -1.51123,-3.360352 -3.370605,-3.360352 -0.183594,0 -0.347657,0.02393 -0.527344,0.05127 L 16.472168,47.898926 C 16.401856,47.660644 16.309082,47.371094 16.141113,47.203125 15.9458,47.003906 15.620605,46.875 15.241699,46.875 Z m -3.719238,2.559082 h 5.90625 l 0.203613,0.710449 -4.417968,4.453125 z m -0.5581055,0.424805 1.6127925,4.883789 H 10.765137 C 10.745606,53.453613 9.9956062,52.332031 8.9135742,51.785156 Z M 18.023438,52.125 c 1.453124,0 2.636718,1.17627 2.636718,2.629395 0,1.453125 -1.183594,2.627929 -2.636718,2.627929 -1.457032,0 -2.636719,-1.174804 -2.636719,-2.627929 0,-1.105468 0.687012,-2.055176 1.659668,-2.441895 l 0.707519,2.542969 c 0.03906,0.136719 0.171875,0.324708 0.445313,0.250488 0.269531,-0.07813 0.245603,-0.317383 0.206543,-0.442383 l -0.710449,-2.519531 c 0.105468,-0.01173 0.218749,-0.01904 0.328125,-0.01904 z M 7.4179688,52.16455 c 0.214843,0 0.4262692,0.02246 0.6254882,0.07324 l -0.9067382,2.25 c -0.054688,0.152344 -0.2221685,0.485351 -0.089355,0.700195 0.160156,0.250005 0.5546867,0.234375 0.8085937,0.234375 l 2.1240235,0.0029 c -0.285157,1.148438 -1.3237308,2.000977 -2.5620117,2.000977 -1.453125,0 -2.6367188,-1.180665 -2.6367188,-2.63379 0,-1.449219 1.1835938,-2.627929 2.6367188,-2.627929 z m 1.2421875,0.304687 c 0.8281249,0.449219 1.3828127,1.273438 1.3828127,2.273438 H 7.762207 Z" />
  <path
     style="fill:#fffefe;fill-opacity:1;fill-rule:nonzero;stroke:none"
     d="m 78.441406,55.394531 7.320313,-0.503906 -1.101563,4.398437 c -0.01172,0.03906 -0.01563,0.08203 -0.01563,0.125 0,0.277344 0.222657,0.503907 0.503907,0.503907 0.125,0 0.242187,-0.04687 0.328124,-0.121094 l 6.90625,-5.910156 c 0.105469,-0.08984 0.171876,-0.230469 0.171876,-0.382813 0,-0.152344 -0.06641,-0.289062 -0.171876,-0.382812 l -6.90625,-5.90625 c -0.08594,-0.07422 -0.203124,-0.121094 -0.328124,-0.121094 -0.28125,0 -0.503907,0.226562 -0.503907,0.503906 0,0.04297 0.0039,0.08203 0.01563,0.121094 l 1.101563,4.398438 -7.320313,-0.503907 v 3.78125"
     id="path57" />
  <path
     id="path28"
     style="fill:#fffefe;fill-opacity:1;fill-rule:nonzero;stroke:none"
     d="M 69.522949 50.730469 C 68.737792 50.749999 68.140625 51.047363 67.710938 51.625488 C 67.285156 52.199707 67.074219 52.96875 67.066406 53.917969 C 67.066406 54.519531 67.160645 55.0542 67.352051 55.519043 C 67.55127 55.987793 67.84375 56.351562 68.238281 56.613281 C 68.625 56.882812 69.129394 57.011719 69.719238 57.023438 C 70.094238 57.011718 70.437011 56.976558 70.741699 56.90625 C 71.034667 56.82812 71.284667 56.746093 71.491699 56.648438 L 71.430176 55.609863 C 71.277832 55.734863 71.070801 55.844238 70.820801 55.937988 C 70.578614 56.03955 70.27295 56.094239 69.921387 56.102051 C 69.358887 56.102051 68.949707 55.9375 68.687988 55.628906 C 68.434082 55.3125 68.300781 54.847167 68.308594 54.22998 L 71.816895 54.22998 L 71.816895 53.808105 C 71.797365 52.745605 71.582519 51.960449 71.172363 51.464355 C 70.7583 50.972167 70.202636 50.722656 69.522949 50.730469 z M 69.484863 51.616699 C 70.219238 51.616699 70.598145 52.210938 70.598145 53.378906 L 68.308594 53.378906 C 68.320312 52.820312 68.425293 52.390136 68.632324 52.07373 C 68.839356 51.769042 69.129394 51.616699 69.484863 51.616699 z " />
  <path
     style="fill:#fffefe;fill-opacity:1;fill-rule:nonzero;stroke:none"
     d="m 65.593742,56.925781 v -4.101562 c 0,-0.644531 -0.140625,-1.164063 -0.429688,-1.539063 -0.296874,-0.363281 -0.746093,-0.5625 -1.363281,-0.570312 C 63.074219,50.707031 62.546875,51 62.207031,51.601562 H 62.1875 c 0,-0.08984 -0.01172,-0.226562 -0.01953,-0.40625 -0.01563,-0.167968 -0.02734,-0.300781 -0.02734,-0.394531 h -1.17188 c 0.02344,0.371094 0.04297,0.753907 0.05469,1.164063 v 4.960937 h 1.238281 v -3.636719 c 0,-0.46875 0.09375,-0.847656 0.292969,-1.117187 C 62.75,51.90625 63.046875,51.761719 63.433594,51.75 c 0.3125,0 0.546875,0.109375 0.699218,0.324219 0.140626,0.226562 0.222657,0.566406 0.222657,1.039062 v 3.8125 h 1.238281"
     id="path26" />
  <path
     style="fill:#fffefe;fill-opacity:1;fill-rule:nonzero;stroke:none"
     d="m 59.308594,56.92578 v -4.101562 c 0,-0.644531 -0.144532,-1.164063 -0.4375,-1.539063 C 58.585938,50.921875 58.125,50.722656 57.515625,50.714844 56.789062,50.707031 56.253906,51 55.914062,51.601562 h -0.01172 c 0,-0.08984 -0.0078,-0.226562 -0.02734,-0.40625 -0.0078,-0.167968 -0.01563,-0.300781 -0.01563,-0.394531 h -1.175781 c 0.02734,0.371094 0.04687,0.753907 0.04687,1.164063 v 4.960937 h 1.242187 v -3.636719 c 0,-0.46875 0.101563,-0.847656 0.296875,-1.117187 0.199219,-0.265625 0.484375,-0.410156 0.878907,-0.421875 0.3125,0 0.546874,0.109375 0.691406,0.324219 0.152344,0.226562 0.222656,0.566406 0.222656,1.039062 v 3.8125 h 1.246094"
     id="path25" />
  <path
     id="path24"
     style="fill:#fffefe;fill-opacity:1;fill-rule:nonzero;stroke:none"
     d="M 50.772949 50.742188 C 50.390136 50.749988 50.039062 50.797366 49.734375 50.887207 C 49.429688 50.980957 49.160156 51.090332 48.9375 51.215332 L 49.026855 52.281738 C 49.194823 52.121582 49.421387 51.97705 49.706543 51.859863 C 49.995606 51.742676 50.308594 51.680176 50.660156 51.672363 C 51.078125 51.672363 51.394531 51.785156 51.597656 52.03125 C 51.777344 52.265625 51.859864 52.574707 51.848145 52.949707 L 51.848145 53.203125 L 51.410156 53.203125 C 50.414062 53.203125 49.656738 53.363282 49.141113 53.695313 C 48.621582 54.035157 48.363281 54.554688 48.363281 55.253906 C 48.371081 55.832031 48.550781 56.273438 48.890625 56.578125 C 49.222656 56.882812 49.644531 57.030762 50.15625 57.030762 C 50.605469 57.022962 50.965333 56.95312 51.23877 56.800781 C 51.508301 56.648438 51.722167 56.453614 51.88623 56.20752 L 51.89502 56.20752 C 51.89502 56.29736 51.901847 56.422363 51.921387 56.594238 C 51.933107 56.7583 51.948732 56.871094 51.968262 56.941406 L 53.097656 56.941406 C 53.070316 56.828125 53.062987 56.683106 53.043457 56.503418 C 53.027827 56.323731 53.027344 56.136719 53.027344 55.933594 L 53.027344 53.022949 C 53.015644 52.620605 52.980954 52.281738 52.891113 52.012207 C 52.809083 51.742676 52.683106 51.519531 52.530762 51.351563 C 52.39795 51.191407 52.184083 51.046875 51.89502 50.929688 C 51.609864 50.8125 51.233886 50.75 50.772949 50.742188 z M 51.429199 53.953125 L 51.663574 53.953125 C 51.7417 53.953125 51.805175 53.953124 51.848145 53.964844 L 51.848145 54.499512 C 51.848145 54.9917 51.742677 55.386719 51.52002 55.6875 C 51.305177 55.988281 50.96875 56.137206 50.53125 56.148926 C 50.21875 56.148926 49.976562 56.047363 49.804688 55.867676 C 49.636718 55.687988 49.554199 55.448731 49.554199 55.144043 C 49.57373 54.347168 50.190917 53.953125 51.429199 53.953125 z " />
  <path
     style="fill:#fffefe;fill-opacity:1;fill-rule:nonzero;stroke:none"
     d="m 47.242176,55.179687 c 0,-0.355469 -0.109376,-0.660157 -0.3125,-0.894532 -0.207032,-0.230468 -0.496094,-0.457031 -0.871094,-0.652344 l -0.539063,-0.304687 c -0.269531,-0.144531 -0.472656,-0.277344 -0.625,-0.414063 -0.152343,-0.132812 -0.222656,-0.292968 -0.234375,-0.488281 0,-0.214843 0.08203,-0.394531 0.234375,-0.519531 0.152344,-0.125 0.375,-0.199219 0.691407,-0.199219 0.5,0.01953 0.921874,0.109375 1.253906,0.257813 l 0.0625,-1 c -0.132813,-0.04297 -0.3125,-0.09766 -0.558594,-0.144532 -0.25,-0.05469 -0.527344,-0.07031 -0.859375,-0.07812 -0.628906,0.01953 -1.121094,0.195312 -1.488281,0.539062 -0.359375,0.335938 -0.542969,0.738281 -0.554688,1.214844 0.01172,0.429687 0.125,0.757812 0.339844,1.007812 0.226562,0.253906 0.53125,0.460938 0.90625,0.640625 l 0.644531,0.320313 c 0.269531,0.132812 0.457031,0.273437 0.566407,0.417968 0.105468,0.144532 0.160156,0.296876 0.152343,0.449219 0,0.242188 -0.101562,0.421875 -0.285156,0.546875 -0.191406,0.125 -0.449219,0.1875 -0.785156,0.1875 -0.292969,-0.0078 -0.570313,-0.05469 -0.828125,-0.152344 -0.253906,-0.08984 -0.46875,-0.179687 -0.648438,-0.277343 l -0.07031,1.070312 c 0.195312,0.09375 0.4375,0.175781 0.722656,0.226563 0.289062,0.0625 0.609375,0.09766 0.960938,0.09766 0.691406,-0.0078 1.222656,-0.1875 1.578124,-0.519531 0.367188,-0.339844 0.546876,-0.777344 0.546876,-1.332031"
     id="path22" />
  <path
     style="fill:#fffefe;fill-opacity:1;fill-rule:nonzero;stroke:none"
     d="m 42.050781,56.941405 c -0.02734,-0.359375 -0.04297,-0.75 -0.04297,-1.164062 v -4.957032 h -1.246093 v 3.632813 c 0,0.476563 -0.101563,0.851563 -0.296875,1.121094 -0.199219,0.277343 -0.484375,0.414062 -0.878906,0.417969 -0.3125,0 -0.546876,-0.105469 -0.699219,-0.320313 -0.144531,-0.222656 -0.222657,-0.5625 -0.214844,-1.039063 v -3.8125 H 37.42578 v 4.097657 c 0,0.65625 0.144531,1.164062 0.429688,1.539062 0.296875,0.378907 0.742187,0.566407 1.363281,0.574219 0.726562,0.01953 1.253906,-0.273438 1.605469,-0.882812 h 0.0078 c 0,0.08984 0.0078,0.21875 0.02734,0.398437 0.0078,0.171875 0.01563,0.304687 0.01563,0.394531 h 1.175781"
     id="path21" />
  <path
     id="path20"
     style="fill:#fffefe;fill-opacity:1;fill-rule:nonzero;stroke:none"
     d="M 33.473145 50.742188 C 33.086427 50.749988 32.734863 50.797366 32.430176 50.887207 C 32.125488 50.980957 31.85498 51.090332 31.63623 51.215332 L 31.72998 52.281738 C 31.894042 52.121582 32.125488 51.97705 32.406738 51.859863 C 32.691894 51.742676 33.016113 51.680176 33.355957 51.672363 C 33.785644 51.672363 34.097168 51.785156 34.296387 52.03125 C 34.476074 52.265625 34.566406 52.574707 34.546875 52.949707 L 34.546875 53.203125 L 34.108887 53.203125 C 33.112793 53.203125 32.359375 53.363282 31.839844 53.695313 C 31.320312 54.035157 31.062012 54.554688 31.062012 55.253906 C 31.077642 55.832031 31.245605 56.273438 31.589355 56.578125 C 31.929199 56.882812 32.351073 57.030762 32.85498 57.030762 C 33.300292 57.022962 33.667969 56.95312 33.9375 56.800781 C 34.21875 56.648438 34.433594 56.453614 34.582031 56.20752 L 34.601074 56.20752 C 34.601074 56.29736 34.609358 56.422363 34.617188 56.594238 C 34.636718 56.7583 34.655757 56.871094 34.671387 56.941406 L 35.793457 56.941406 C 35.777827 56.828125 35.758292 56.683106 35.746582 56.503418 C 35.730952 56.323731 35.723145 56.136719 35.723145 55.933594 L 35.723145 53.022949 C 35.723145 52.620605 35.675298 52.281738 35.597168 52.012207 C 35.507328 51.742676 35.390626 51.519531 35.226563 51.351563 C 35.093748 51.191407 34.886719 51.046875 34.59375 50.929688 C 34.304688 50.8125 33.937989 50.75 33.473145 50.742188 z M 34.136719 53.953125 L 34.366699 53.953125 C 34.440917 53.953125 34.503905 53.953124 34.546875 53.964844 L 34.546875 54.499512 C 34.546875 54.9917 34.441895 55.386719 34.223145 55.6875 C 34.004395 55.988281 33.668458 56.137206 33.23877 56.148926 C 32.914551 56.148926 32.675293 56.047363 32.515137 55.867676 C 32.339358 55.687988 32.262195 55.448731 32.254395 55.144043 C 32.27002 54.347168 32.898438 53.953125 34.136719 53.953125 z " />
  <path
     style="fill:#fffefe;fill-opacity:1;fill-rule:nonzero;stroke:none"
     d="m 30.164062,56.941406 v -1.054687 h -2.734374 v -7.265625 h -1.292969 v 8.320312 h 4.027343"
     id="path18" />
  <path
     style="fill:#fffefe;fill-opacity:1;fill-rule:nonzero;stroke:none"
     d="m 18.027344,34.558594 v -3.78125 l -7.320313,0.503906 1.097657,-4.398438 c 0.01172,-0.03906 0.01953,-0.07812 0.01953,-0.121093 0,-0.28125 -0.226563,-0.503907 -0.507813,-0.503907 -0.125,0 -0.238281,0.04688 -0.328125,0.121094 l -6.902343,5.90625 c -0.109376,0.09375 -0.175782,0.230469 -0.175782,0.382813 0,0.152343 0.066406,0.292969 0.175782,0.382812 l 6.902343,5.910157 c 0.08984,0.07422 0.203125,0.121093 0.328125,0.121093 0.28125,0 0.507813,-0.226562 0.507813,-0.503906 0,-0.04297 -0.0078,-0.08594 -0.01953,-0.125 l -1.097657,-4.398437 7.320313,0.503906"
     id="path56" />
  <path
     id="path55"
     style="fill:#fffefe;fill-opacity:1;fill-rule:nonzero;stroke:none"
     d="M 82.589355 27.22998 C 82.304199 27.22998 82.050782 27.29639 81.820313 27.429199 L 81.452637 27.648926 L 81.60498 28.047363 C 81.897949 28.816894 82.214355 29.652832 82.554199 30.555176 C 82.585449 30.629396 82.598145 30.699707 82.598145 30.766113 C 82.598145 31.0708 82.285156 31.358886 81.65625 31.63623 C 81.253906 31.812011 80.585449 32.02002 79.647949 32.254395 C 79.378417 32.320805 79.199219 32.367188 79.113281 32.390625 C 78.648438 32.519531 78.414551 32.812988 78.414551 33.273926 C 78.414551 33.453613 78.45361 33.641113 78.531738 33.836426 C 78.645019 34.145019 78.894531 34.429688 79.277344 34.699219 C 79.65625 34.964844 80.007323 35.10498 80.339355 35.116699 L 80.362793 35.116699 C 80.976074 35.108899 81.542969 35.10498 82.066406 35.10498 C 82.390625 35.10498 82.828125 35.105475 83.378906 35.109375 C 83.96875 35.117175 84.440917 35.116699 84.804199 35.116699 L 85.331543 35.116699 C 86.319824 35.108899 87.023438 35.020016 87.433594 34.844238 C 87.683594 34.734863 87.871094 34.589355 87.996094 34.401855 C 88.113281 34.214355 88.17627 33.992188 88.17627 33.726563 C 88.17627 33.433595 88.097163 33.050292 87.944824 32.57373 C 87.866704 32.339355 87.690918 32.034668 87.405762 31.671387 C 87.128418 31.315918 86.930177 31.011231 86.816895 30.757324 C 86.61377 30.319824 86.487793 29.792481 86.444824 29.175293 L 86.444824 29.15625 C 86.421384 28.945312 86.355957 28.672363 86.242676 28.340332 C 86.168457 28.125488 86.08545 27.948731 85.999512 27.815918 C 85.874512 27.6167 85.730957 27.496094 85.574707 27.457031 L 85.44873 27.421875 L 85.328613 27.452637 C 85.266113 27.468267 85.207519 27.492184 85.152832 27.527344 C 85.020019 27.609374 84.858887 27.651855 84.675293 27.651855 C 84.483887 27.651855 84.164551 27.585446 83.723145 27.452637 C 83.219239 27.3042 82.843261 27.22998 82.589355 27.22998 z M 82.589355 27.738281 C 82.79248 27.738281 83.125 27.805177 83.578125 27.941895 C 84.070312 28.090335 84.433594 28.160156 84.679688 28.160156 C 84.960938 28.160156 85.207519 28.093262 85.422363 27.956543 C 85.432618 27.95313 85.440066 27.950019 85.444336 27.949219 L 85.445801 27.949219 C 85.477048 27.957031 85.520017 28.003904 85.574707 28.089844 C 85.641113 28.191406 85.703617 28.331543 85.762207 28.507324 C 85.863764 28.800293 85.921388 29.035645 85.940918 29.20752 C 85.987793 29.891114 86.128906 30.476562 86.355469 30.972656 C 86.488281 31.261719 86.70752 31.598144 87.004395 31.984863 C 87.254395 32.301269 87.406736 32.550781 87.461426 32.730469 L 87.461426 32.734863 C 87.598147 33.160644 87.667969 33.488281 87.667969 33.726563 C 87.667969 33.894531 87.636234 34.023438 87.569824 34.125 C 87.503418 34.226562 87.394531 34.312008 87.234375 34.378418 C 86.886719 34.526857 86.254394 34.605963 85.328613 34.609863 C 85.152832 34.613763 84.976073 34.612793 84.804199 34.612793 C 84.444823 34.612793 83.972167 34.609369 83.38623 34.605469 C 82.831542 34.601569 82.391114 34.598145 82.070801 34.598145 C 81.543458 34.598145 80.973144 34.602063 80.359863 34.609863 C 80.129394 34.60205 79.867189 34.495606 79.570313 34.284668 C 79.273439 34.077637 79.085943 33.867677 79.007813 33.660645 L 79.007813 33.65625 C 78.953123 33.515625 78.925781 33.390136 78.925781 33.276855 C 78.925781 33.07373 79.034668 32.941403 79.249512 32.882813 C 79.351074 32.851562 79.527832 32.809082 79.773926 32.746582 C 80.738769 32.504394 81.433106 32.289551 81.862793 32.102051 C 82.694824 31.734864 83.10498 31.293457 83.10498 30.766113 C 83.10498 30.641113 83.082518 30.508301 83.031738 30.379395 C 82.6958 29.484864 82.379395 28.648438 82.08252 27.867188 C 82.230958 27.781251 82.397949 27.738281 82.589355 27.738281 z M 78.543457 35.67627 C 77.7583 35.67627 77.125488 36.308594 77.125488 37.089844 C 77.125488 37.871094 77.7583 38.507813 78.543457 38.507813 C 79.324707 38.507813 79.961426 37.871094 79.961426 37.089844 C 79.961426 36.308594 79.324707 35.67627 78.543457 35.67627 z M 81.925781 35.67627 C 81.140625 35.67627 80.507813 36.308594 80.507813 37.089844 C 80.507813 37.871094 81.140625 38.507813 81.925781 38.507813 C 82.707031 38.507813 83.34375 37.871094 83.34375 37.089844 C 83.34375 36.308594 82.707031 35.67627 81.925781 35.67627 z M 85.305176 35.67627 C 84.523926 35.67627 83.890137 36.308594 83.890137 37.089844 C 83.890137 37.871094 84.523926 38.507813 85.305176 38.507813 C 86.090332 38.507813 86.726074 37.871094 86.726074 37.089844 C 86.726074 36.308594 86.090332 35.67627 85.305176 35.67627 z M 88.683105 35.67627 C 87.901855 35.67627 87.265137 36.308594 87.265137 37.089844 C 87.265137 37.871094 87.901855 38.507813 88.683105 38.507813 C 89.468261 38.507813 90.101074 37.871094 90.101074 37.089844 C 90.101074 36.308594 89.468261 35.67627 88.683105 35.67627 z M 78.543457 36.175781 C 79.047363 36.175781 79.460449 36.585938 79.460449 37.089844 C 79.460449 37.597656 79.047363 38.008301 78.543457 38.008301 C 78.035644 38.008301 77.625 37.597656 77.625 37.089844 C 77.625 36.585938 78.035644 36.175781 78.543457 36.175781 z M 81.925781 36.175781 C 82.429688 36.175781 82.844238 36.585938 82.844238 37.089844 C 82.844238 37.597656 82.429688 38.008301 81.925781 38.008301 C 81.417969 38.008301 81.007324 37.597656 81.007324 37.089844 C 81.007324 36.585938 81.417969 36.175781 81.925781 36.175781 z M 85.305176 36.175781 C 85.816894 36.175781 86.222168 36.585938 86.222168 37.089844 C 86.222168 37.597656 85.816894 38.008301 85.305176 38.008301 C 84.801269 38.008301 84.391113 37.597656 84.391113 37.089844 C 84.391113 36.585938 84.801269 36.175781 85.305176 36.175781 z M 88.683105 36.175781 C 89.190917 36.175781 89.601563 36.585938 89.601563 37.089844 C 89.601563 37.597656 89.190917 38.008301 88.683105 38.008301 C 88.175292 38.008301 87.766113 37.597656 87.766113 37.089844 C 87.766113 36.585938 88.175292 36.175781 88.683105 36.175781 z " />
  <path
     style="fill:#fffefe;fill-opacity:1;fill-rule:nonzero;stroke:none"
     d="m 50.28125,35.894531 v -4.097656 c 0,-0.644531 -0.140625,-1.164063 -0.429688,-1.539063 -0.296874,-0.367187 -0.753906,-0.5625 -1.363281,-0.574218 -0.726562,-0.0078 -1.253906,0.285156 -1.605469,0.886718 H 46.875 c 0,-0.08984 -0.01172,-0.222656 -0.02734,-0.402343 C 46.839844,30 46.828125,29.863281 46.828125,29.773438 H 45.65625 c 0.02344,0.367187 0.04297,0.753906 0.04297,1.164062 v 4.957031 h 1.25 v -3.632812 c 0,-0.472657 0.09375,-0.847657 0.292969,-1.117188 0.195312,-0.269531 0.484374,-0.410156 0.878906,-0.421875 0.3125,0 0.546875,0.105469 0.699218,0.320313 0.144532,0.226562 0.214844,0.566406 0.214844,1.039062 v 3.8125 h 1.246093"
     id="path17" />
  <path
     id="path16"
     style="fill:#fffefe;fill-opacity:1;fill-rule:nonzero;stroke:none"
     d="M 41.655762 29.711426 C 41.171387 29.711426 40.734375 29.820312 40.347656 30.035156 C 39.953125 30.25 39.648438 30.589844 39.421875 31.054688 C 39.191406 31.51953 39.077637 32.108887 39.077637 32.843262 C 39.077637 33.597168 39.191406 34.194824 39.421875 34.659668 C 39.648438 35.124512 39.953125 35.464355 40.347656 35.679199 C 40.734375 35.894042 41.171387 36.003417 41.655762 35.995605 C 42.132324 36.003405 42.573731 35.894042 42.956543 35.679199 C 43.351074 35.464355 43.655762 35.124512 43.882324 34.659668 C 44.112793 34.194824 44.230469 33.597168 44.238281 32.843262 C 44.230481 32.108887 44.112793 31.519531 43.882324 31.054688 C 43.655757 30.589844 43.351074 30.25 42.956543 30.035156 C 42.573731 29.820312 42.132324 29.711426 41.655762 29.711426 z M 41.655762 30.644531 C 42.124512 30.652344 42.465333 30.859864 42.660645 31.27002 C 42.859868 31.672364 42.949219 32.198731 42.949219 32.843262 C 42.949219 33.495606 42.859864 34.026856 42.660645 34.437012 C 42.465333 34.847168 42.124512 35.0547 41.655762 35.0625 C 41.1792 35.054688 40.851562 34.847168 40.652344 34.437012 C 40.457028 34.026856 40.354979 33.495606 40.366699 32.843262 C 40.35498 32.198731 40.457031 31.672364 40.652344 31.27002 C 40.851562 30.859864 41.1792 30.652331 41.655762 30.644531 z " />
  <path
     style="fill:#fffefe;fill-opacity:1;fill-rule:nonzero;stroke:none"
     d="m 38.222657,29.792969 h -1.21875 l -1.21875,4.8125 h -0.02734 l -1.300781,-4.8125 h -1.289062 l 1.980469,6.191406 -0.179688,0.734375 c -0.07031,0.3125 -0.171875,0.527344 -0.285156,0.652344 -0.117188,0.125 -0.269532,0.1875 -0.449219,0.179687 -0.226563,-0.01172 -0.410156,-0.04687 -0.566406,-0.117187 l -0.0625,1.011718 c 0.21875,0.07422 0.492187,0.109376 0.816406,0.117188 0.441406,0 0.78125,-0.117188 1.039063,-0.367188 0.261718,-0.242187 0.449218,-0.601562 0.585937,-1.074218 l 2.175781,-7.328125"
     id="path14" />
  <path
     style="fill:#fffefe;fill-opacity:1;fill-rule:nonzero;stroke:none"
     d="m 31.894531,35.910156 v -8.320312 h -1.191406 v 6.585937 h -0.01172 l -2.90625,-6.585937 H 26.15625 v 8.320312 h 1.199219 v -6.519531 h 0.01172 l 2.90625,6.519531 h 1.621093"
     id="path13" />
  <path
     style="fill:#fffdfd;fill-opacity:1;fill-rule:nonzero;stroke:none"
     d="m 10.4375,17.898438 h 3.789062 L 13.71875,10.589844 18.128906,11.6875 c 0.03516,0.01172 0.07813,0.01563 0.121094,0.01563 0.28125,0 0.507812,-0.222656 0.507812,-0.503906 0,-0.125 -0.04687,-0.238281 -0.125,-0.328125 L 12.714844,3.980469 C 12.621094,3.875 12.484375,3.804688 12.332031,3.804688 c -0.152343,0 -0.292969,0.070312 -0.382812,0.175781 L 6.03125,10.871094 c -0.078125,0.08984 -0.125,0.203125 -0.125,0.328125 0,0.28125 0.226562,0.503906 0.507812,0.503906 0.042969,0 0.085938,-0.0039 0.121094,-0.01563 l 4.40625,-1.097656 -0.503906,7.308594"
     id="path58" />
  <path
     id="path45"
     style="fill:#fffdfd;fill-opacity:1;fill-rule:nonzero;stroke:none"
     d="M 84.958008 3.862793 C 84.713463 3.8507766 84.288574 3.9555666 84.09375 4.3828125 C 84.066406 4.4375005 83.887207 4.8676758 83.887207 4.8676758 L 86.027344 5.4213867 C 85.8125 4.9291997 85.878418 4.0541997 85.050293 3.8745117 C 85.023926 3.8686523 84.992943 3.8645096 84.958008 3.862793 z M 83.840332 5.0742188 C 83.797362 5.2734378 83.730469 5.4497075 83.730469 5.6293945 C 83.726569 6.0590825 83.909667 6.5581055 84.429199 6.5581055 C 84.808105 6.5581055 85.480957 6.1835935 85.480957 5.6484375 L 85.480957 5.53125 L 83.840332 5.0742188 z M 87.294434 5.7275391 C 87.269144 5.7269753 87.24646 5.7302857 87.227051 5.737793 C 87.086427 5.788574 86.968751 5.7885742 86.882813 5.9135742 C 86.781251 6.0776372 87.194823 6.2573242 87.370605 6.4760742 C 87.769042 6.9877932 88.019531 7.417969 88.242188 7.875 C 88.296878 7.972656 88.503418 8.671875 88.800293 8.671875 C 89.163574 8.671875 89.468262 7.8315432 89.468262 7.6948242 C 89.468262 7.348572 87.808652 5.7390014 87.294434 5.7275391 z M 86.081543 6.0234375 C 85.464356 6.0234375 83.160645 7.714844 81.754395 8.625 C 81.305177 8.5 80.847656 9.085938 81.199219 9.515625 C 81.394531 9.765625 81.679199 9.7690432 81.88623 9.6635742 C 82.046386 9.5932622 82.15625 9.441406 82.183594 9.28125 C 82.433594 9.503906 82.870605 9.9257813 82.870605 9.9257813 C 82.296386 10.570312 81.816894 11.11377 81.402832 11.570801 C 81.344242 11.633301 81.257323 11.733886 81.147949 11.85498 C 80.687011 11.47998 80.101562 11.257324 79.464844 11.257324 C 78.007812 11.257324 76.82373 12.4375 76.82373 13.898438 C 76.82373 15.355469 78.007812 16.535156 79.464844 16.535156 C 80.929688 16.535156 82.117676 15.355469 82.117676 13.898438 C 82.117676 13.285157 81.906736 12.719237 81.555176 12.273926 L 82.155762 11.605957 C 82.405762 12.594238 83.285156 15.766113 83.285156 15.766113 C 83.285156 15.766113 84.007323 15.992188 84.88623 16.265625 C 84.85889 16.417969 84.84375 16.574219 84.84375 16.734375 C 84.84375 18.195312 86.027344 19.375488 87.492188 19.375488 C 88.953125 19.375488 90.14502 18.195312 90.14502 16.734375 C 90.14502 15.277344 88.953125 14.085938 87.492188 14.085938 C 87.457028 14.085938 87.421878 14.086432 87.386719 14.090332 L 87.168457 12.867188 C 87.922363 12.089844 88.925292 11.175293 88.870605 10.612793 C 88.765136 9.5542 87.445312 6.2026365 86.296875 6.0424805 C 86.136719 6.0424805 86.128418 6.0234375 86.081543 6.0234375 z M 85.16748 7.6171875 C 85.57373 8.3320305 86.512207 10.050293 86.512207 10.050293 C 86.512207 10.050293 85.124511 10.398927 84.429199 10.539551 L 84.370605 11.093262 L 83.0625 10.605469 L 83.699707 9.890625 L 82.640625 9 L 85.16748 7.6171875 z M 82.621582 11.069824 L 84.304688 11.702637 C 84.21875 12.394043 84.101074 13.476563 84.101074 13.476563 C 84.101074 13.671876 83.992676 14.390137 83.992676 14.702637 C 83.992676 14.96045 84.171386 15.292964 84.60498 15.246094 C 85.034667 15.207031 85.824219 14.273438 86.648438 13.40625 L 86.789063 14.175293 C 86.01172 14.394043 85.375488 14.956543 85.059082 15.687012 L 83.730469 15.265137 L 82.621582 11.069824 z M 86.765625 11.257324 L 86.378906 11.847656 L 85.328613 11.444824 L 86.765625 11.257324 z M 79.464844 12.007324 C 79.910156 12.007324 80.3208 12.160645 80.641113 12.414551 C 80.328613 12.766114 79.960938 13.172364 79.628906 13.539551 C 79.351562 13.617677 79.144533 13.702637 79.195313 13.987793 C 79.226563 14.132321 79.421386 14.218749 79.554199 14.167969 C 79.601073 14.15625 79.656738 14.136227 79.961426 14.046387 L 81.04248 12.84375 C 81.245605 13.144531 81.367676 13.507812 81.367676 13.898438 C 81.367676 14.945312 80.515625 15.796875 79.464844 15.796875 C 78.425781 15.796875 77.57373 14.945312 77.57373 13.898438 C 77.57373 12.847656 78.425781 12.007324 79.464844 12.007324 z M 85.214355 12.035156 L 86.039063 12.358887 L 84.944824 14.01123 L 85.214355 12.035156 z M 87.522949 14.835938 C 88.554199 14.855468 89.390625 15.699708 89.390625 16.727051 C 89.390625 17.773927 88.539062 18.621094 87.492188 18.621094 C 86.453125 18.621094 85.598145 17.773927 85.598145 16.727051 C 85.598145 16.648927 85.602063 16.570796 85.609863 16.492676 C 86.324707 16.711426 87.026855 16.933594 87.464355 17.074219 C 87.749511 17.136719 87.902348 17.012207 87.867188 16.762207 L 87.522949 14.835938 z M 86.925293 14.922363 L 87.194824 16.366699 L 85.78125 15.918457 C 86.007812 15.449707 86.421387 15.078613 86.925293 14.922363 z " />
  <path
     id="path12"
     style="fill:#fffdfd;fill-opacity:1;fill-rule:nonzero;stroke:none"
     d="M 59.917969 9.2739258 C 59.148438 9.2934568 58.547363 9.5854495 58.117676 10.16748 C 57.6958 10.749511 57.480958 11.512207 57.473145 12.461426 C 57.473145 13.066894 57.569828 13.593261 57.757324 14.058105 C 57.956543 14.522949 58.241699 14.894043 58.63623 15.159668 C 59.030761 15.417481 59.52295 15.5625 60.124512 15.5625 C 60.503418 15.5625 60.84375 15.520018 61.148438 15.449707 C 61.441406 15.379397 61.6958 15.285156 61.891113 15.199219 L 61.835449 14.160645 C 61.675292 14.273927 61.476074 14.383301 61.226074 14.48877 C 60.976074 14.590333 60.680177 14.644043 60.33252 14.644043 C 59.77002 14.644043 59.354981 14.488281 59.093262 14.167969 C 58.83545 13.855469 58.71045 13.390137 58.718262 12.769043 L 62.214844 12.769043 L 62.214844 12.351563 C 62.207044 11.285157 61.9917 10.507813 61.577637 10.007813 C 61.155762 9.5156255 60.609375 9.2739258 59.917969 9.2739258 z M 59.882813 10.155762 C 60.628906 10.167481 60.991699 10.750488 60.991699 11.922363 L 58.718262 11.922363 C 58.726074 11.355957 58.835939 10.926269 59.039063 10.621582 C 59.246094 10.3208 59.523439 10.155762 59.882813 10.155762 z " />
  <path
     style="fill:#fffdfd;fill-opacity:1;fill-rule:nonzero;stroke:none"
     d="M 56.582031,9.371094 H 55.339844 L 54.03125,14.285156 H 54 L 52.710938,9.371094 h -1.316407 l 1.863281,6.121094 h 1.472657 l 1.851562,-6.121094"
     id="path10" />
  <path
     id="path9"
     style="fill:#fffdfd;fill-opacity:1;fill-rule:nonzero;stroke:none"
     d="M 46.750488 6.8833008 L 47.969238 8.6176758 L 48.812988 8.6176758 L 48.039551 6.8833008 L 46.750488 6.8833008 z M 48.257813 9.28125 C 47.472657 9.296875 46.875489 9.5942385 46.445801 10.17627 C 46.023927 10.750489 45.809083 11.519531 45.80127 12.46875 C 45.80127 13.074219 45.898929 13.604981 46.094238 14.069824 C 46.285644 14.534668 46.578614 14.902832 46.973145 15.168457 C 47.359864 15.430176 47.862793 15.574219 48.452637 15.574219 C 48.83545 15.574219 49.171876 15.527349 49.476563 15.457031 C 49.781251 15.382811 50.019531 15.292481 50.226563 15.206543 L 50.163574 14.167969 C 50.011231 14.285156 49.804199 14.395019 49.554199 14.500488 C 49.312011 14.598148 49.007812 14.648438 48.65625 14.648438 C 48.09375 14.648438 47.683106 14.499512 47.421387 14.175293 C 47.167481 13.862793 47.043457 13.39795 47.043457 12.780762 L 50.550293 12.780762 L 50.550293 12.358887 C 50.530763 11.296387 50.323731 10.515137 49.905762 10.015137 C 49.4917 9.5229497 48.937501 9.28125 48.257813 9.28125 z M 48.218262 10.16748 C 48.956543 10.175292 49.331543 10.757812 49.331543 11.929688 L 47.043457 11.929688 C 47.055176 11.367188 47.164062 10.937989 47.367188 10.633301 C 47.574219 10.328614 47.862793 10.16748 48.218262 10.16748 z " />
  <path
     style="fill:#fffdfd;fill-opacity:1;fill-rule:nonzero;stroke:none"
     d="M 44.328121,15.464844 V 11.375 c 0.0078,-0.652344 -0.140625,-1.164062 -0.429687,-1.539062 -0.296876,-0.375 -0.746094,-0.5625 -1.363282,-0.574219 -0.726562,-0.015625 -1.253906,0.28125 -1.59375,0.878906 h -0.01953 c 0,-0.08984 -0.01172,-0.222656 -0.01563,-0.394531 C 40.886719,9.566406 40.875,9.433594 40.875,9.34375 h -1.171875 c 0.02344,0.367188 0.04297,0.761719 0.05469,1.171875 v 4.949219 h 1.238282 v -3.625 c 0,-0.472656 0.09375,-0.847656 0.292968,-1.128906 0.195313,-0.265626 0.496094,-0.410157 0.878907,-0.410157 0.316406,-0.0078 0.546875,0.101563 0.699219,0.320313 0.152343,0.21875 0.226562,0.566406 0.226562,1.039062 v 3.804688 h 1.234375"
     id="path6" />
  <path
     id="path5"
     style="fill:#fffdfd;fill-opacity:1;fill-rule:nonzero;stroke:none"
     d="M 36.027832 9.2739258 C 35.246582 9.2934568 34.648438 9.5854495 34.21875 10.16748 C 33.792969 10.749511 33.577637 11.512207 33.569824 12.461426 C 33.569824 13.066894 33.667972 13.593261 33.867188 14.058105 C 34.054688 14.522949 34.347167 14.894043 34.741699 15.159668 C 35.132323 15.417481 35.633301 15.5625 36.227051 15.5625 C 36.602051 15.5625 36.941894 15.520018 37.246582 15.449707 C 37.53955 15.379397 37.792481 15.285156 37.999512 15.199219 L 37.933594 14.160645 C 37.785156 14.273927 37.578613 14.383301 37.328613 14.48877 C 37.086426 14.590333 36.780761 14.644043 36.429199 14.644043 C 35.866699 14.644043 35.453125 14.488281 35.191406 14.167969 C 34.941406 13.855469 34.816406 13.390137 34.816406 12.769043 L 38.324707 12.769043 L 38.324707 12.351563 C 38.305177 11.285157 38.089844 10.507813 37.675781 10.007813 C 37.265625 9.5156255 36.711426 9.2739258 36.027832 9.2739258 z M 35.992676 10.155762 C 36.72705 10.167481 37.105957 10.750488 37.105957 11.922363 L 34.816406 11.922363 C 34.828125 11.355957 34.933106 10.926269 35.140137 10.621582 C 35.347168 10.3208 35.6333 10.155762 35.992676 10.155762 z " />
  <path
     style="fill:#fffdfd;fill-opacity:1;fill-rule:nonzero;stroke:none"
     d="M 31.941406,15.152344 V 10.855469 H 29.375 v 1.039062 h 1.34375 v 2.433594 c -0.125,0.06641 -0.277344,0.105469 -0.445312,0.144531 -0.171876,0.03516 -0.351563,0.05078 -0.519532,0.05078 -0.855468,-0.01563 -1.488281,-0.308594 -1.914062,-0.910157 -0.429688,-0.589843 -0.632813,-1.386719 -0.632813,-2.40625 0.0078,-0.949219 0.25,-1.699219 0.714844,-2.253906 C 28.390625,8.402344 29,8.128906 29.761719,8.117188 c 0.347656,0 0.691406,0.046874 1.011719,0.136718 0.332031,0.097656 0.636718,0.222656 0.921874,0.375 l 0.03516,-1.210937 C 31.5,7.3125 31.222656,7.222656 30.882812,7.160156 30.542969,7.089844 30.15625,7.054688 29.734375,7.054688 28.925781,7.0625 28.226562,7.238281 27.644531,7.597656 c -0.574219,0.351563 -1.023437,0.851563 -1.335937,1.488282 -0.316406,0.636718 -0.464844,1.375 -0.464844,2.226562 0,0.796875 0.132812,1.511719 0.429688,2.15625 0.289062,0.644531 0.71875,1.15625 1.300781,1.53125 0.582031,0.382812 1.316406,0.574219 2.195312,0.582031 0.464844,0 0.886719,-0.04297 1.257813,-0.132812 0.375,-0.08984 0.679687,-0.191407 0.914062,-0.296875"
     id="path3" />
</svg>
