<?xml version="1.0" encoding="UTF-8" standalone="no"?>
<!-- Created with Inkscape (http://www.inkscape.org/) -->

<svg
   width="60.110432mm"
   height="11.329401mm"
   viewBox="0 0 60.110432 11.329401"
   version="1.1"
   id="svg1"
   xml:space="preserve"
   xmlns="http://www.w3.org/2000/svg"
   xmlns:svg="http://www.w3.org/2000/svg"><defs
     id="defs1"><rect
       x="121.1518"
       y="511.35498"
       width="77.411278"
       height="16.67804"
       id="rect71" /><rect
       x="121.1518"
       y="511.35498"
       width="77.411278"
       height="16.67804"
       id="rect71-0" /></defs><path
     style="fill:#ffffff;fill-opacity:1;stroke:#000000;stroke-width:0.1;stroke-linecap:butt;stroke-linejoin:miter;stroke-dasharray:none;stroke-opacity:1"
     d="M 60.060433,0.14133 V 11.2794 H 6.9263507 L 0.07916973,5.71036 7.0176447,0.05003 Z"
     id="path1" /><path
     style="fill:#c90b1c;fill-opacity:1"
     d="M 59.394068,5.6651 V 0.8391 H 33.249704 7.1053407 l -2.582769,2.41096 -2.582768,2.41096 2.522799,2.41165 2.5228,2.41163 26.2043323,0.003 26.204333,0.003 z"
     id="path38" /><path
     id="path69-7-3"
     style="fill:#ffffff;fill-opacity:1;fill-rule:nonzero;stroke:none;stroke-width:0.563944"
     d="M 52.077266,2.77121 V 3.1413 h -0.560088 c -0.110145,0 -0.248929,2.7e-4 -0.323827,0.062 -0.0727,0.0661 -0.09638,0.1498 -0.127218,0.25113 L 50.94222,3.86004 h 3.350618 L 54.410142,3.51639 53.881445,3.38834 V 3.14135 h 1.189569 V 3.51639 H 54.784361 L 54.658795,3.86004 55.29984,5.4197 c 0.15861,-0.0418 0.328509,-0.0752 0.498134,-0.0752 1.048582,0 1.8967,0.8484 1.8967,1.89257 0,1.04638 -0.848118,1.89175 -1.8967,1.89175 -0.925221,0 -1.698441,-0.66307 -1.863659,-1.53983 l -0.412219,-0.002 c -0.09913,0 -0.224696,0 -0.323826,-0.0397 C 53.094733,7.51419 53.004414,7.43715 52.927312,7.36225 L 50.596915,5.0335 50.464741,5.44737 c 0.720349,0.27096 1.249046,0.95194 1.249046,1.76701 0,1.04418 -0.850321,1.8967 -1.8967,1.8967 -1.048583,0 -1.901658,-0.85252 -1.901658,-1.8967 0,-1.04417 0.853075,-1.89422 1.901658,-1.89422 0.103536,0 0.196058,0.0127 0.297391,0.0281 L 50.68448,3.34828 c 0.03965,-0.13438 0.0928,-0.29766 0.187522,-0.39239 0.110146,-0.11235 0.292711,-0.18505 0.506393,-0.18505 z m 2.096615,1.44318 h -3.330792 l -0.114,0.40065 2.491485,2.51131 z m 0.315566,0.24039 -0.91035,2.75335 h 0.323826 C 53.913933,6.48117 54.336895,5.84867 54.9471,5.54026 Z m -4.678969,1.27713 c -0.81948,0 -1.486961,0.66336 -1.486961,1.48283 0,0.81948 0.667481,1.48283 1.486961,1.48283 0.821683,0 1.48696,-0.66335 1.48696,-1.48283 0,-0.62342 -0.388262,-1.159 -0.936785,-1.37709 l -0.398175,1.43409 c -0.02203,0.0771 -0.09693,0.18312 -0.251131,0.14126 -0.152,-0.044 -0.139332,-0.17816 -0.117304,-0.24865 l 0.401479,-1.42088 c -0.05948,-0.007 -0.123362,-0.0116 -0.185044,-0.0116 z m 5.980887,0.0223 c -0.12116,0 -0.240393,0.0135 -0.352742,0.0421 l 0.511351,1.26887 c 0.03084,0.0859 0.12529,0.27288 0.05039,0.39405 -0.09032,0.14098 -0.312811,0.13217 -0.456002,0.13217 l -1.198655,0.002 c 0.160813,0.64766 0.747336,1.12761 1.445657,1.12761 0.819481,0 1.486961,-0.665 1.486961,-1.48448 0,-0.81728 -0.66748,-1.48284 -1.486961,-1.48284 z M 55.09084,5.92604 c -0.467016,0.25333 -0.779828,0.71814 -0.779828,1.28209 h 1.286221 z" /><text
     xml:space="preserve"
     transform="matrix(0.3938655,0,0,0.434931,-43.583459,-219.39103)"
     id="text71"
     style="font-weight:bold;font-size:12.005px;line-height:1.25;font-family:Arial;-inkscape-font-specification:'Arial, Bold';text-align:center;letter-spacing:0.542724px;white-space:pre;shape-inside:url(#rect71);display:inline;fill:#ffffff;fill-opacity:1;stroke:#ffffff;stroke-width:0.241611;stroke-dasharray:none;stroke-opacity:1"><tspan
       x="128.62778"
       y="522.31707"
       id="tspan6"><tspan
         style="font-weight:normal;font-family:Geneva;-inkscape-font-specification:Geneva;baseline-shift:baseline"
         id="tspan2">Bellinzona</tspan></tspan></text><text
     xml:space="preserve"
     transform="matrix(0.28155333,0,0,0.33115831,-3.3834398,-165.16052)"
     id="text71-2"
     style="font-weight:bold;font-size:12.005px;line-height:1.25;font-family:Arial;-inkscape-font-specification:'Arial, Bold';text-align:center;letter-spacing:0.542724px;white-space:pre;shape-inside:url(#rect71-0);display:inline;fill:#ffffff;fill-opacity:1;stroke:#ffffff;stroke-width:0.114623;stroke-dasharray:none;stroke-opacity:1"><tspan
       x="145.69978"
       y="522.16903"
       id="tspan8"><tspan
         style="font-weight:normal;font-family:'Avenir Next';-inkscape-font-specification:'Avenir Next'"
         id="tspan7">7 km</tspan></tspan></text></svg>
