<?xml version="1.0" encoding="UTF-8" standalone="no"?>
<!-- Created with Inkscape (http://www.inkscape.org/) -->

<svg
   width="60.110226mm"
   height="11.3794mm"
   viewBox="0 0 60.110226 11.3794"
   version="1.1"
   id="svg1"
   xml:space="preserve"
   xmlns="http://www.w3.org/2000/svg"
   xmlns:svg="http://www.w3.org/2000/svg"><defs
     id="defs1"><rect
       x="121.1518"
       y="511.35498"
       width="77.411278"
       height="16.67804"
       id="rect71" /><rect
       x="121.1518"
       y="511.35498"
       width="77.411278"
       height="16.67804"
       id="rect71-0" /></defs><path
     style="fill:#ffffff;fill-opacity:1;stroke:#000000;stroke-width:0.1;stroke-linecap:butt;stroke-linejoin:miter;stroke-dasharray:none;stroke-opacity:1"
     d="M 60.060224,0.05 V 11.3294 H 6.9261415 L 0.07896051,5.76036 7.0174355,0.05 Z"
     id="path1" /><path
     style="fill:#c90b1c;fill-opacity:1"
     d="M 59.393859,5.7151 V 0.8891 H 33.249495 7.1051315 l -2.582769,2.41096 -2.582768,2.41096 2.522799,2.41165 2.5228,2.41163 26.2043325,0.003 26.204333,0.003 z"
     id="path38" /><path
     id="path69-7-3"
     style="fill:#ffffff;fill-opacity:1;fill-rule:nonzero;stroke:none;stroke-width:0.563944"
     d="M 52.077057,2.82121 V 3.1913 h -0.560088 c -0.110145,0 -0.248929,2.7e-4 -0.323827,0.062 -0.0727,0.0661 -0.09638,0.1498 -0.127218,0.25113 l -0.123913,0.40561 h 3.350618 L 54.409933,3.56639 53.881236,3.43834 V 3.19135 h 1.189569 v 0.37504 h -0.286653 l -0.125566,0.34365 0.641045,1.55966 c 0.15861,-0.0418 0.328509,-0.0752 0.498134,-0.0752 1.048582,0 1.8967,0.8484 1.8967,1.89257 0,1.04638 -0.848118,1.89175 -1.8967,1.89175 -0.925221,0 -1.698441,-0.66307 -1.863659,-1.53983 l -0.412219,-0.002 c -0.09913,0 -0.224696,0 -0.323826,-0.0397 C 53.094524,7.56419 53.004205,7.48715 52.927103,7.41225 L 50.596706,5.0835 50.464532,5.49737 c 0.720349,0.27096 1.249046,0.95194 1.249046,1.76701 0,1.04418 -0.850321,1.8967 -1.8967,1.8967 -1.048583,0 -1.901658,-0.85252 -1.901658,-1.8967 0,-1.04417 0.853075,-1.89422 1.901658,-1.89422 0.103536,0 0.196058,0.0127 0.297391,0.0281 l 0.570002,-1.99998 c 0.03965,-0.13438 0.0928,-0.29766 0.187522,-0.39239 0.110146,-0.11235 0.292711,-0.18505 0.506393,-0.18505 z m 2.096615,1.44318 H 50.84288 l -0.114,0.40065 2.491485,2.51131 z m 0.315566,0.24039 -0.91035,2.75335 h 0.323826 c 0.01101,-0.72696 0.433972,-1.35946 1.044177,-1.66787 z m -4.678969,1.27713 c -0.81948,0 -1.486961,0.66336 -1.486961,1.48283 0,0.81948 0.667481,1.48283 1.486961,1.48283 0.821683,0 1.48696,-0.66335 1.48696,-1.48283 0,-0.62342 -0.388262,-1.159 -0.936785,-1.37709 l -0.398175,1.43409 c -0.02203,0.0771 -0.09693,0.18312 -0.251131,0.14126 -0.152,-0.044 -0.139332,-0.17816 -0.117304,-0.24865 l 0.401479,-1.42088 c -0.05948,-0.007 -0.123362,-0.0116 -0.185044,-0.0116 z m 5.980887,0.0223 c -0.12116,0 -0.240393,0.0135 -0.352742,0.0421 l 0.511351,1.26887 c 0.03084,0.0859 0.12529,0.27288 0.05039,0.39405 -0.09032,0.14098 -0.312811,0.13217 -0.456002,0.13217 l -1.198655,0.002 c 0.160813,0.64766 0.747336,1.12761 1.445657,1.12761 0.819481,0 1.486961,-0.665 1.486961,-1.48448 0,-0.81728 -0.66748,-1.48284 -1.486961,-1.48284 z m -0.700525,0.17183 c -0.467016,0.25333 -0.779828,0.71814 -0.779828,1.28209 h 1.286221 z" /><path
     style="font-size:12.005px;line-height:1.25;font-family:Geneva;-inkscape-font-specification:Geneva;text-align:center;letter-spacing:0.542724px;baseline-shift:baseline;white-space:pre;fill:#ffffff;stroke:#ffffff;stroke-width:0.1"
     d="m 9.029287,5.7504719 q 0.4248115,0.1147304 0.6141309,0.3875235 0.1916273,0.2702444 0.1916273,0.6118783 0,0.2829922 -0.1315983,0.5328383 Q 9.5718446,7.5325625 9.3294243,7.6829834 9.0870041,7.8308556 8.4913416,7.8308556 H 7.4177666 V 3.8740534 h 0.9512128 q 0.6510715,0 0.8727153,0.104527 0.223948,0.1019782 0.337078,0.3033904 0.11313,0.2014079 0.11313,0.4461566 0,0.2727974 -0.1431425,0.5430418 Q 9.4056137,5.5388649 9.029287,5.7504719 Z M 7.8841388,5.5949536 h 0.4478999 q 0.3463142,0 0.5171651,-0.1019783 Q 9.0223589,5.390997 9.1239447,5.2023327 9.2278386,5.011124 9.2278386,4.8097118 q 0,-0.2218061 -0.1616109,-0.3798731 Q 8.9069209,4.2717717 8.4890335,4.2717717 H 7.8841388 Z m 0,1.840728 h 0.6579957 q 0.4663722,0 0.6372231,-0.1912087 0.1731551,-0.1937618 0.1731551,-0.4563601 0,-0.2116069 -0.110818,-0.3900722 Q 9.1308728,6.2195797 8.9115409,6.1074023 8.6945132,5.9926762 8.2304529,5.9926762 H 7.8841388 Z M 12.325252,7.0991494 h 0.429428 v 0.025487 q 0,0.1886643 -0.136215,0.3849748 -0.136218,0.1963104 -0.36017,0.2982887 -0.223948,0.1019783 -0.514853,0.1019783 -0.588735,0 -0.909656,-0.4206653 -0.31861,-0.4206652 -0.31861,-1.0631366 0,-0.6577636 0.337082,-1.088628 0.33939,-0.433413 0.872711,-0.433413 0.293218,0 0.531018,0.1402217 0.237804,0.1402218 0.37633,0.4385105 0.138527,0.29574 0.138527,0.826034 v 0.158067 h -1.830852 q 0,0.45636 0.22164,0.7521 0.223951,0.2957401 0.61875,0.2957401 0.283977,0 0.413268,-0.1198279 0.131602,-0.1223721 0.131602,-0.2702443 z M 10.967696,6.109951 h 1.392185 V 6.053862 q 0,-0.1988591 -0.08773,-0.3849704 -0.08542,-0.1886644 -0.237804,-0.2778949 -0.152379,-0.091783 -0.35555,-0.091783 -0.240113,0 -0.443284,0.2141556 -0.203172,0.2116114 -0.267817,0.5965817 z m 3.037381,1.7209046 H 13.575649 V 3.7159821 h 0.429428 z m 1.324278,0 H 14.899923 V 3.7159821 h 0.429432 z m 0.894846,-2.847776 h 0.429432 v 2.847776 h -0.429432 z m 0,-0.6322722 v -0.476754 h 0.429432 v 0.476754 z m 1.75371,3.4800482 H 17.54848 v -2.847776 h 0.429431 v 0.4920505 q 0.136219,-0.2320052 0.263201,-0.3441826 0.12929,-0.1121775 0.267817,-0.1682662 0.140834,-0.058637 0.311681,-0.058637 0.24242,0 0.434048,0.1096288 0.193939,0.1096287 0.300141,0.3237843 0.106202,0.211607 0.106202,0.6807105 V 7.8308556 H 19.231569 V 6.2221284 q 0,-0.3824217 -0.04617,-0.5404931 -0.04618,-0.1606156 -0.180083,-0.2498461 -0.13391,-0.091784 -0.290905,-0.091784 -0.189319,0 -0.36017,0.1223766 -0.170847,0.1223765 -0.274741,0.3416296 -0.101586,0.2192574 -0.101586,0.6271748 z m 4.568096,-0.395174 v 0.395174 H 20.449646 V 7.4356816 L 21.980357,5.3782492 H 20.486586 V 4.9830796 h 2.004008 v 0.3951696 l -1.503007,2.0574324 z m 1.89916,0.4742053 q -0.505621,0 -0.863479,-0.3773244 -0.355551,-0.3798731 -0.355551,-1.1268714 0,-0.7444497 0.355551,-1.1217741 0.357858,-0.3798731 0.863479,-0.3798731 0.503309,0 0.858859,0.3798731 0.357862,0.3773244 0.357862,1.1217741 0,0.7469983 -0.357862,1.1268714 -0.35555,0.3773244 -0.858859,0.3773244 z m 0,-0.3951696 q 0.346314,0 0.556414,-0.3033905 0.212404,-0.3059348 0.212404,-0.8056357 0,-0.4971479 -0.212404,-0.8005384 -0.2101,-0.3059391 -0.556414,-0.3059391 -0.348626,0 -0.56103,0.3059391 -0.2101,0.3033905 -0.2101,0.8005384 0,0.4997009 0.2101,0.8056357 0.212404,0.3033905 0.56103,0.3033905 z m 2.414013,0.3161383 h -0.429431 v -2.847776 h 0.429431 v 0.4920505 q 0.136219,-0.2320052 0.263201,-0.3441826 0.12929,-0.1121775 0.267817,-0.1682662 0.140834,-0.058637 0.311685,-0.058637 0.24242,0 0.434048,0.1096288 0.193935,0.1096287 0.300137,0.3237843 0.106206,0.211607 0.106206,0.6807105 V 7.8308556 H 28.112842 V 6.2221284 q 0,-0.3824217 -0.04618,-0.5404931 -0.04617,-0.1606156 -0.180084,-0.2498461 -0.133906,-0.091784 -0.290905,-0.091784 -0.189319,0 -0.360166,0.1223766 -0.170847,0.122377 -0.274741,0.3416301 -0.101586,0.2192574 -0.101586,0.6271748 z m 4.134048,0 q -0.06695,-0.2294566 -0.06695,-0.395174 -0.281669,0.3084879 -0.482533,0.3926209 -0.198555,0.081584 -0.380946,0.081584 -0.307066,0 -0.52871,-0.2065096 -0.219331,-0.2090539 -0.219331,-0.5736305 0,-0.4130192 0.309377,-0.637374 0.311681,-0.2243548 1.071267,-0.3875192 L 30.926275,6.056411 V 5.7351753 q 0,-0.2625939 -0.159307,-0.3671252 -0.159303,-0.10708 -0.383255,-0.10708 -0.267816,0 -0.417887,0.1300269 -0.150067,0.1300227 -0.150067,0.3033862 v 0.040796 h -0.466372 v -0.03823 q 0,-0.1886644 0.143143,-0.3900723 0.145454,-0.2014122 0.383254,-0.3033904 0.240113,-0.1019783 0.524094,-0.1019783 0.281669,0 0.512545,0.096881 0.230876,0.096881 0.337078,0.2625939 0.106205,0.1631687 0.106205,0.6169757 v 1.1064776 q 0,0.1810139 0.0069,0.3824217 0.0093,0.1988635 0.08312,0.4640105 z m -0.06695,-1.4379124 -0.12929,0.035708 q -0.653384,0.1759122 -0.835775,0.3339791 -0.182391,0.1580714 -0.182391,0.3773244 0,0.1121774 0.0531,0.2090583 0.05541,0.096881 0.161614,0.1504209 0.106202,0.05354 0.210096,0.05354 0.180083,0 0.353242,-0.1147261 0.175468,-0.1172791 0.272433,-0.3110409 0.09697,-0.1937574 0.09697,-0.4512583 z"
     id="text71"
     aria-label="Bellinzona" /><path
     style="font-size:12.005px;line-height:1.25;font-family:'Avenir Next';-inkscape-font-specification:'Avenir Next';text-align:center;letter-spacing:0.542724px;white-space:pre;fill:#ffffff;stroke:#ffffff;stroke-width:0.0350002"
     d="M 39.321873,5.2577869 38.358561,7.8100935 H 38.084776 L 39.075131,5.2498358 H 37.902253 V 4.9954002 h 1.41962 z m 1.968596,1.5305872 h 0.01013 L 42.03069,5.9495335 h 0.331244 l -0.797691,0.8507689 0.878813,1.0097911 h -0.338 L 41.300604,6.8321069 h -0.01013 V 7.8100935 H 41.06063 v -3.00552 h 0.229844 z m 1.86649,-0.5207961 q 0.0676,-0.1629995 0.206184,-0.2623867 0.141962,-0.1033644 0.314343,-0.1033644 0.06422,0 0.131823,0.015896 0.07098,0.015896 0.135202,0.063609 0.0676,0.043729 0.121682,0.1192666 0.05746,0.075534 0.09802,0.1948006 0.08112,-0.1908267 0.219704,-0.2902139 0.141962,-0.1033645 0.334624,-0.1033645 0.300825,0 0.449548,0.2107028 0.1521,0.2107061 0.1521,0.5565778 V 7.8100869 H 45.090346 V 6.7804164 q 0,-0.2941912 -0.09464,-0.4730895 -0.09126,-0.1789017 -0.314343,-0.1789017 -0.125063,0 -0.212945,0.059635 -0.0845,0.059632 -0.13858,0.1590223 -0.0507,0.095413 -0.07436,0.2186539 -0.02365,0.1232438 -0.02365,0.2544355 v 0.989915 H 44.001982 V 6.7247586 q 0,-0.1351689 -0.01689,-0.2464845 -0.01689,-0.1113155 -0.06084,-0.1868494 -0.04056,-0.079511 -0.114922,-0.1192667 -0.07436,-0.043733 -0.189282,-0.043733 -0.08112,0 -0.165624,0.043733 -0.08112,0.04373 -0.148722,0.1351689 -0.06422,0.087462 -0.10478,0.226605 -0.04056,0.1351689 -0.04056,0.3220217 V 7.8100869 H 42.930514 V 6.3590075 q 0,-0.075534 -0.0034,-0.1948006 -0.0034,-0.1192667 -0.01014,-0.21468 h 0.219702 q 0.0068,0.075534 0.01014,0.1669733 0.0034,0.091436 0.0034,0.1510711 h 0.0068 z"
     id="text71-2"
     aria-label="7 km" /></svg>
