<?xml version="1.0" encoding="UTF-8" standalone="no"?>
<!-- Created with Inkscape (http://www.inkscape.org/) -->

<svg
   width="60.000465mm"
   height="14.999779mm"
   viewBox="0 0 60.000466 14.999778"
   version="1.1"
   id="svg1"
   xml:space="preserve"
   xmlns="http://www.w3.org/2000/svg"
   xmlns:svg="http://www.w3.org/2000/svg"><defs
     id="defs1"><rect
       x="121.1518"
       y="511.35498"
       width="77.411278"
       height="16.67804"
       id="rect71" /><rect
       x="121.1518"
       y="511.35498"
       width="77.411278"
       height="16.67804"
       id="rect71-0" /><rect
       x="121.1518"
       y="511.35498"
       width="77.411278"
       height="16.67804"
       id="rect71-05-9" /><rect
       x="121.1518"
       y="511.35498"
       width="77.411278"
       height="16.67804"
       id="rect71-05-9-4" /><rect
       x="121.1518"
       y="511.35498"
       width="77.411278"
       height="16.67804"
       id="rect71-0-7-9" /><rect
       x="121.1518"
       y="511.35498"
       width="77.411278"
       height="16.67804"
       id="rect71-0-7-9-7" /></defs><path
     style="fill:#ffffff;fill-opacity:1;stroke:#000000;stroke-width:0.114939;stroke-linecap:butt;stroke-linejoin:miter;stroke-dasharray:none;stroke-opacity:1"
     d="M 0.05758258,0.05735888 0.05805673,14.94242 H 53.071376 L 59.922105,7.5889179 52.980032,0.05735888 Z"
     id="path1-6-8" /><path
     style="fill:#c90b1c;fill-opacity:1;stroke-width:1.16819"
     d="M 0.80500105,7.52929 V 0.89828724 H 26.771458 52.589667 l 2.565192,3.31269966 2.565198,3.3126996 -2.505641,3.3136405 -2.505626,3.313621 -25.877771,0.004 -26.02601795,0.004 z"
     id="path38-7-8" /><path
     style="font-size:12.005px;line-height:1.25;font-family:Geneva;-inkscape-font-specification:Geneva;text-align:center;letter-spacing:0.542724px;baseline-shift:baseline;white-space:pre;fill:#ffffff;stroke:#ffffff;stroke-width:0.241611"
     d="m 133.58102,517.53382 q 1.07857,0.26379 1.55924,0.891 0.48653,0.62135 0.48653,1.40684 0,0.65066 -0.33412,1.22511 -0.33413,0.57446 -0.94962,0.92031 -0.61549,0.33999 -2.12784,0.33999 h -2.72574 v -9.09754 h 2.41507 q 1.65303,0 2.21577,0.24033 0.56859,0.23447 0.85582,0.69756 0.28723,0.46308 0.28723,1.02581 0,0.62722 -0.36343,1.24857 -0.36344,0.61549 -1.31891,1.10202 z m -2.90746,-0.35757 h 1.13719 q 0.87927,0 1.31305,-0.23447 0.43963,-0.23447 0.69755,-0.66825 0.26378,-0.43963 0.26378,-0.90272 0,-0.50998 -0.41032,-0.87341 -0.40447,-0.36343 -1.46546,-0.36343 h -1.53579 z m 0,4.23223 h 1.67061 q 1.18409,0 1.61787,-0.43963 0.43963,-0.4455 0.43963,-1.04927 0,-0.48653 -0.28136,-0.89686 -0.28137,-0.41032 -0.83824,-0.66824 -0.55102,-0.26378 -1.72924,-0.26378 h -0.87927 z m 11.27571,-0.77376 h 1.09029 v 0.0586 q 0,0.43378 -0.34584,0.88514 -0.34585,0.45136 -0.91445,0.68583 -0.56859,0.23447 -1.30718,0.23447 -1.49476,0 -2.30956,-0.9672 -0.80893,-0.9672 -0.80893,-2.44438 0,-1.51234 0.85583,-2.50299 0.86169,-0.99651 2.21576,-0.99651 0.74446,0 1.34822,0.3224 0.60377,0.3224 0.95548,1.00823 0.35171,0.67997 0.35171,1.89923 v 0.36343 h -4.64842 q 0,1.04927 0.56273,1.72924 0.5686,0.67997 1.57097,0.67997 0.721,0 1.04926,-0.27551 0.33413,-0.28136 0.33413,-0.62135 z m -3.44675,-2.27438 h 3.53467 v -0.12896 q 0,-0.45722 -0.22274,-0.88513 -0.21689,-0.43378 -0.60377,-0.63894 -0.38688,-0.21103 -0.90272,-0.21103 -0.60963,0 -1.12547,0.49239 -0.51584,0.48654 -0.67997,1.37167 z m 7.71172,3.95673 h -1.09029 v -9.46098 h 1.09029 z m 3.36226,0 h -1.0903 v -9.46098 h 1.0903 z m 2.27196,-6.54765 h 1.0903 v 6.54765 h -1.0903 z m 0,-1.45373 v -1.09616 h 1.0903 v 1.09616 z m 4.45256,8.00138 h -1.0903 v -6.54765 h 1.0903 v 1.13133 q 0.34585,-0.53343 0.66825,-0.79135 0.32826,-0.25792 0.67997,-0.38688 0.35757,-0.13482 0.79134,-0.13482 0.61549,0 1.10202,0.25206 0.4924,0.25206 0.76204,0.74445 0.26964,0.48653 0.26964,1.5651 v 4.16776 h -1.0903 v -3.69881 q 0,-0.87927 -0.11723,-1.24271 -0.11724,-0.36929 -0.45722,-0.57445 -0.33999,-0.21103 -0.73859,-0.21103 -0.48067,0 -0.91445,0.28137 -0.43377,0.28137 -0.69755,0.78548 -0.25792,0.50412 -0.25792,1.44201 z m 11.59811,-0.90859 v 0.90859 h -5.32253 v -0.90859 l 3.88638,-4.73048 h -3.79259 v -0.90858 h 5.08805 v 0.90858 l -3.81604,4.73048 z m 4.82185,1.0903 q -1.28374,0 -2.19232,-0.86755 -0.90272,-0.87341 -0.90272,-2.59092 0,-1.71165 0.90272,-2.5792 0.90858,-0.87341 2.19232,-0.87341 1.27787,0 2.18059,0.87341 0.90859,0.86755 0.90859,2.5792 0,1.71751 -0.90859,2.59092 -0.90272,0.86755 -2.18059,0.86755 z m 0,-0.90858 q 0.87927,0 1.4127,-0.69756 0.53928,-0.70341 0.53928,-1.85233 0,-1.14305 -0.53928,-1.84061 -0.53343,-0.70342 -1.4127,-0.70342 -0.88514,0 -1.42442,0.70342 -0.53343,0.69756 -0.53343,1.84061 0,1.14892 0.53343,1.85233 0.53928,0.69756 1.42442,0.69756 z m 6.12903,0.72687 h -1.0903 v -6.54765 h 1.0903 v 1.13133 q 0.34585,-0.53343 0.66825,-0.79135 0.32826,-0.25792 0.67997,-0.38688 0.35757,-0.13482 0.79135,-0.13482 0.61549,0 1.10202,0.25206 0.49239,0.25206 0.76203,0.74445 0.26965,0.48653 0.26965,1.5651 v 4.16776 h -1.0903 v -3.69881 q 0,-0.87927 -0.11724,-1.24271 -0.11723,-0.36929 -0.45722,-0.57445 -0.33998,-0.21103 -0.73859,-0.21103 -0.48067,0 -0.91444,0.28137 -0.43378,0.28137 -0.69756,0.78548 -0.25792,0.50412 -0.25792,1.44201 z m 10.49609,0 q -0.16999,-0.52757 -0.16999,-0.90859 -0.71514,0.70928 -1.22512,0.90272 -0.50412,0.18758 -0.9672,0.18758 -0.77962,0 -1.34236,-0.47481 -0.55687,-0.48066 -0.55687,-1.3189 0,-0.94962 0.78549,-1.46546 0.79134,-0.51584 2.71988,-0.89099 l 0.58618,-0.11138 v -0.73859 q 0,-0.60376 -0.40447,-0.8441 -0.40446,-0.2462 -0.97306,-0.2462 -0.67997,0 -1.06099,0.29896 -0.38101,0.29895 -0.38101,0.69755 v 0.0938 h -1.18409 v -0.0879 q 0,-0.43378 0.36343,-0.89686 0.3693,-0.46309 0.97306,-0.69756 0.60963,-0.23447 1.33064,-0.23447 0.71514,0 1.30132,0.22275 0.58618,0.22275 0.85582,0.60376 0.26965,0.37516 0.26965,1.41856 v 2.54403 q 0,0.41619 0.0176,0.87927 0.0235,0.45723 0.21103,1.06686 z m -0.16999,-3.30607 -0.32826,0.0821 q -1.6589,0.40446 -2.12198,0.76789 -0.46308,0.36344 -0.46308,0.86755 0,0.25792 0.13482,0.48067 0.14068,0.22275 0.41033,0.34585 0.26964,0.1231 0.53342,0.1231 0.45722,0 0.89686,-0.26378 0.4455,-0.26965 0.69169,-0.71515 0.2462,-0.44549 0.2462,-1.03754 z"
     id="text71-0-4"
     transform="matrix(0.34270027,0,0,0.37836882,-29.923898,-190.86603)"
     aria-label="Bellinzona" /><path
     style="font-size:12.005px;line-height:1.25;font-family:Geneva;-inkscape-font-specification:Geneva;text-align:center;letter-spacing:0.542724px;white-space:pre;fill:#ffffff;stroke:#ffffff;stroke-width:0.241611"
     d="m 135.89866,522.31707 v -9.09754 h 1.18409 v 8.09516 h 4.77152 v 1.00238 z m 10.3261,0.18171 q -1.28374,0 -2.19232,-0.86755 -0.90272,-0.87341 -0.90272,-2.59092 0,-1.71165 0.90272,-2.5792 0.90858,-0.87341 2.19232,-0.87341 1.27787,0 2.18059,0.87341 0.90858,0.86755 0.90858,2.5792 0,1.71751 -0.90858,2.59092 -0.90272,0.86755 -2.18059,0.86755 z m 0,-0.90858 q 0.87927,0 1.41269,-0.69756 0.53929,-0.70341 0.53929,-1.85233 0,-1.14305 -0.53929,-1.84061 -0.53342,-0.70342 -1.41269,-0.70342 -0.88514,0 -1.42443,0.70342 -0.53342,0.69756 -0.53342,1.84061 0,1.14892 0.53342,1.85233 0.53929,0.69756 1.42443,0.69756 z m 9.13028,-0.95548 h 1.09616 v 0.0586 q 0,0.43964 -0.33412,0.88514 -0.32826,0.44549 -0.86755,0.68583 -0.53343,0.23447 -1.2896,0.23447 -1.44787,0 -2.23335,-0.91444 -0.77963,-0.92031 -0.77963,-2.54403 0,-1.61786 0.77963,-2.5323 0.78548,-0.92031 2.23335,-0.92031 0.75617,0 1.2896,0.24033 0.53929,0.23448 0.86755,0.65067 0.33412,0.41032 0.33412,0.91444 v 0.0586 h -1.09616 v -0.0586 q 0.0176,-0.35757 -0.31654,-0.62721 -0.32826,-0.26965 -1.01995,-0.26965 -0.82066,0 -1.37753,0.60377 -0.55687,0.60377 -0.55687,1.94026 0,1.34236 0.55687,1.94612 0.55687,0.60377 1.37753,0.60377 0.69169,0 1.01409,-0.26964 0.3224,-0.26965 0.3224,-0.62722 z m 7.03762,1.68235 q -0.17,-0.52757 -0.17,-0.90859 -0.71514,0.70928 -1.22511,0.90272 -0.50412,0.18758 -0.9672,0.18758 -0.77963,0 -1.34236,-0.47481 -0.55687,-0.48066 -0.55687,-1.3189 0,-0.94962 0.78548,-1.46546 0.79135,-0.51584 2.71988,-0.89099 l 0.58618,-0.11138 v -0.73859 q 0,-0.60376 -0.40446,-0.8441 -0.40447,-0.2462 -0.97306,-0.2462 -0.67997,0 -1.06099,0.29896 -0.38102,0.29895 -0.38102,0.69755 v 0.0938 h -1.18409 v -0.0879 q 0,-0.43378 0.36344,-0.89686 0.36929,-0.46309 0.97306,-0.69756 0.60963,-0.23447 1.33063,-0.23447 0.71514,0 1.30132,0.22275 0.58619,0.22275 0.85583,0.60376 0.26964,0.37516 0.26964,1.41856 v 2.54403 q 0,0.41619 0.0176,0.87927 0.0235,0.45723 0.21102,1.06686 z m -0.17,-3.30607 -0.32826,0.0821 q -1.65889,0.40446 -2.12197,0.76789 -0.46309,0.36344 -0.46309,0.86755 0,0.25792 0.13482,0.48067 0.14069,0.22275 0.41033,0.34585 0.26964,0.1231 0.53343,0.1231 0.45722,0 0.89685,-0.26378 0.4455,-0.26965 0.6917,-0.71515 0.24619,-0.44549 0.24619,-1.03754 z m 4.40567,3.30607 h -1.0903 v -6.54765 h 1.0903 v 1.15477 q 0.26964,-0.49825 0.58618,-0.77376 0.3224,-0.2755 0.67997,-0.41618 0.36343,-0.14655 0.73859,-0.14655 0.33998,0 0.58618,0.0996 v 1.13133 q -0.38688,-0.18758 -0.82066,-0.18758 -0.61549,0 -1.19581,0.53929 -0.57445,0.53929 -0.57445,1.91095 z m 5.17942,0 h -1.0903 v -6.54765 h 1.0903 v 1.13133 q 0.34585,-0.53343 0.66825,-0.79135 0.32826,-0.25792 0.67997,-0.38688 0.35757,-0.13482 0.79134,-0.13482 0.61549,0 1.10202,0.25206 0.4924,0.25206 0.76204,0.74445 0.26964,0.48653 0.26964,1.5651 v 4.16776 h -1.0903 v -3.69881 q 0,-0.87927 -0.11723,-1.24271 -0.11724,-0.36929 -0.45722,-0.57445 -0.33999,-0.21103 -0.73859,-0.21103 -0.48067,0 -0.91445,0.28137 -0.43377,0.28137 -0.69755,0.78548 -0.25792,0.50412 -0.25792,1.44201 z m 9.23579,0.18171 q -1.28373,0 -2.19232,-0.86755 -0.90272,-0.87341 -0.90272,-2.59092 0,-1.71165 0.90272,-2.5792 0.90859,-0.87341 2.19232,-0.87341 1.27788,0 2.1806,0.87341 0.90858,0.86755 0.90858,2.5792 0,1.71751 -0.90858,2.59092 -0.90272,0.86755 -2.1806,0.86755 z m 0,-0.90858 q 0.87928,0 1.4127,-0.69756 0.53929,-0.70341 0.53929,-1.85233 0,-1.14305 -0.53929,-1.84061 -0.53342,-0.70342 -1.4127,-0.70342 -0.88513,0 -1.42442,0.70342 -0.53342,0.69756 -0.53342,1.84061 0,1.14892 0.53342,1.85233 0.53929,0.69756 1.42442,0.69756 z"
     id="text71-0-4-2"
     transform="matrix(0.34270027,0,0,0.37836882,-32.120328,-185.75559)"
     aria-label="Locarno" /><path
     style="font-size:12.005px;line-height:1.25;font-family:'Avenir Next';-inkscape-font-specification:'Avenir Next';text-align:center;letter-spacing:0.542724px;white-space:pre;fill:#ffffff;stroke:#ffffff;stroke-width:0.114623"
     d="m 151.67827,514.46182 -3.42142,7.70721 h -0.97241 l 3.51747,-7.73122 h -4.16574 v -0.76832 h 5.0421 z m 6.99191,4.62192 h 0.036 l 2.59308,-2.53305 h 1.17649 l -2.83318,2.56907 3.1213,3.04927 h -1.2005 l -2.85719,-2.95323 h -0.036 v 2.95323 h -0.81634 v -9.07578 h 0.81634 z m 6.62926,-1.57265 q 0.2401,-0.49221 0.73231,-0.79233 0.50421,-0.31213 1.11646,-0.31213 0.2281,0 0.4682,0.048 0.2521,0.048 0.4802,0.19208 0.2401,0.13205 0.43218,0.36015 0.20408,0.22809 0.34814,0.58824 0.28812,-0.57624 0.78033,-0.87636 0.50421,-0.31213 1.18849,-0.31213 1.06845,0 1.59667,0.63626 0.54022,0.63627 0.54022,1.6807 v 3.44544 h -0.81634 v -3.1093 q 0,-0.88837 -0.33614,-1.42859 -0.32413,-0.54023 -1.11646,-0.54023 -0.44419,0 -0.75632,0.18008 -0.30012,0.18007 -0.4922,0.4802 -0.18008,0.28812 -0.26411,0.66027 -0.084,0.37216 -0.084,0.76832 v 2.98925 h -0.81634 v -3.27737 q 0,-0.40817 -0.06,-0.74431 -0.06,-0.33614 -0.21609,-0.56423 -0.14406,-0.2401 -0.40817,-0.36015 -0.26411,-0.13206 -0.67228,-0.13206 -0.28812,0 -0.58825,0.13206 -0.28812,0.13205 -0.52822,0.40817 -0.22809,0.26411 -0.37215,0.68428 -0.14406,0.40817 -0.14406,0.97241 v 2.8812 h -0.81634 v -4.38183 q 0,-0.22809 -0.012,-0.58824 -0.012,-0.36015 -0.036,-0.64827 h 0.78032 q 0.024,0.22809 0.036,0.50421 0.012,0.27611 0.012,0.45619 h 0.024 z"
     id="text71-2-6-6"
     transform="matrix(0.28177829,0,0,0.33136833,3.7691889,-166.1621)"
     aria-label="7 km" /><path
     style="font-size:12.005px;line-height:1.25;font-family:'Avenir Next';-inkscape-font-specification:'Avenir Next';text-align:center;letter-spacing:0.542724px;white-space:pre;fill:#ffffff;stroke:#ffffff;stroke-width:0.114623"
     d="m 147.99749,522.16903 h -5.43827 v -0.90038 l 3.48145,-3.51746 q 0.19208,-0.19208 0.37216,-0.40817 0.19208,-0.2281 0.33614,-0.4682 0.14406,-0.2401 0.22809,-0.50421 0.084,-0.27611 0.084,-0.56423 0,-0.37216 -0.13206,-0.67228 -0.13205,-0.30013 -0.37215,-0.50421 -0.2281,-0.21609 -0.54023,-0.32414 -0.30012,-0.12005 -0.63626,-0.12005 -0.68429,0 -1.15248,0.43218 -0.4682,0.42018 -0.60025,1.08045 l -0.85236,-0.16807 q 0.084,-0.44418 0.31213,-0.82834 0.2401,-0.38416 0.57624,-0.66028 0.34815,-0.27611 0.78033,-0.43218 0.43218,-0.15606 0.93639,-0.15606 0.51621,0 0.9724,0.15606 0.4682,0.14406 0.81634,0.44419 0.34815,0.28812 0.55223,0.7323 0.21609,0.43218 0.21609,1.00842 0,0.40817 -0.12005,0.75632 -0.10804,0.34814 -0.30012,0.66027 -0.18008,0.31213 -0.43218,0.60025 -0.25211,0.27612 -0.52822,0.55223 l -3.06128,3.03727 h 4.50188 z m 5.75289,0 h -0.86436 v -7.4311 l -1.53664,1.30855 -0.52822,-0.60025 2.1609,-1.77674 h 0.76832 z m 8.67261,-3.08529 h 0.036 l 2.59308,-2.53305 h 1.17649 l -2.83318,2.56907 3.1213,3.04927 h -1.2005 L 162.459,519.2158 h -0.036 v 2.95323 h -0.81634 v -9.07578 h 0.81634 z m 6.62926,-1.57265 q 0.2401,-0.49221 0.73231,-0.79233 0.50421,-0.31213 1.11646,-0.31213 0.2281,0 0.4682,0.048 0.2521,0.048 0.4802,0.19208 0.2401,0.13205 0.43218,0.36015 0.20408,0.22809 0.34814,0.58824 0.28812,-0.57624 0.78033,-0.87636 0.50421,-0.31213 1.18849,-0.31213 1.06845,0 1.59667,0.63626 0.54022,0.63627 0.54022,1.6807 v 3.44544 h -0.81634 v -3.1093 q 0,-0.88837 -0.33614,-1.42859 -0.32413,-0.54023 -1.11646,-0.54023 -0.44419,0 -0.75632,0.18008 -0.30012,0.18007 -0.4922,0.4802 -0.18008,0.28812 -0.26411,0.66027 -0.084,0.37216 -0.084,0.76832 v 2.98925 h -0.81634 v -3.27737 q 0,-0.40817 -0.06,-0.74431 -0.06,-0.33614 -0.21609,-0.56423 -0.14406,-0.2401 -0.40817,-0.36015 -0.26411,-0.13206 -0.67228,-0.13206 -0.28812,0 -0.58825,0.13206 -0.28812,0.13205 -0.52822,0.40817 -0.22809,0.26411 -0.37215,0.68428 -0.14406,0.40817 -0.14406,0.97241 v 2.8812 h -0.81634 v -4.38183 q 0,-0.22809 -0.012,-0.58824 -0.012,-0.36015 -0.036,-0.64827 h 0.78032 q 0.024,0.22809 0.036,0.50421 0.012,0.27611 0.012,0.45619 h 0.024 z"
     id="text71-2-6-6-6"
     transform="matrix(0.28177829,0,0,0.33136833,2.7117277,-161.02736)"
     aria-label="21 km" /><path
     id="path69-7-3-8-1"
     style="fill:#ffffff;fill-opacity:1;fill-rule:nonzero;stroke:none;stroke-width:0.564348"
     d="m 8.1810605,4.3479838 v 0.3703246 h 0.5605353 c 0.1102326,0 0.2491276,2.702e-4 0.3240854,0.062039 0.072758,0.066142 0.096457,0.1498951 0.1273196,0.2512893 l 0.124012,0.4058672 H 5.9637182 L 5.8463205,5.0936364 6.37544,4.9655051 V 4.7183584 H 5.1849205 v 0.375278 H 5.4718026 L 5.5974688,5.4375042 4.9559117,6.9981534 C 4.7971749,6.9563269 4.6271402,6.9229058 4.4573806,6.9229058 c -1.0494198,0 -1.8982151,0.848938 -1.8982151,1.8937702 0,1.0470436 0.8487953,1.89295 1.8982151,1.89295 0.9259593,0 1.6997971,-0.663491 1.8651471,-1.5408068 l 0.4125484,-0.002 c 0.09921,0 0.2248755,0 0.3240848,-0.039725 0.1036196,-0.033124 0.1940108,-0.1102126 0.2711745,-0.18516 L 9.6625934,6.6117085 9.794873,7.0258409 c -0.7209243,0.271132 -1.2500434,0.9525439 -1.2500434,1.7681308 0,1.0448422 0.8509998,1.8979033 1.8982144,1.8979033 1.049422,0 1.903177,-0.8530611 1.903177,-1.8979033 0,-1.0448323 -0.853756,-1.8954214 -1.903177,-1.8954214 -0.103619,0 -0.196215,0.012708 -0.297628,0.028117 L 9.5749584,4.9254197 C 9.5352768,4.7909544 9.4820843,4.6275709 9.3872866,4.5327809 9.2770529,4.4203596 9.094342,4.3476135 8.8804893,4.3476135 Z M 6.0827704,5.792079 H 9.4162227 L 9.5303138,6.1929831 7.036839,8.7058858 Z M 5.7669522,6.0326215 6.6780296,8.7877177 H 6.3539449 C 6.342926,8.0602967 5.919626,7.4273955 5.3089336,7.1187899 Z m 4.6827068,1.27794 c 0.820135,0 1.488149,0.6637807 1.488149,1.4837704 0,0.8199997 -0.668014,1.4837711 -1.488149,1.4837711 -0.8223397,0 -1.488148,-0.6637714 -1.488148,-1.4837711 0,-0.6238154 0.3885719,-1.159735 0.9375334,-1.3779634 L 10.297537,8.851368 c 0.02205,0.077149 0.09701,0.1832362 0.251331,0.1413497 0.152122,-0.044028 0.139444,-0.178273 0.117399,-0.2488078 l -0.4018,-1.4217811 c 0.05953,-0.007 0.123461,-0.011607 0.185192,-0.011607 z m -5.9856641,0.022314 c 0.1212569,0 0.2405841,0.013509 0.3530229,0.042127 L 4.3052592,8.644677 c -0.030864,0.085955 -0.1253901,0.2730531 -0.05043,0.3942999 0.090392,0.1410695 0.313061,0.1322538 0.4563654,0.1322538 l 1.1996127,0.002 C 5.7498657,9.8213005 5.1628741,10.301556 4.4639961,10.301556 c -0.8201358,0 -1.488149,-0.6654228 -1.488149,-1.4854226 0,-0.8177983 0.6680132,-1.4837804 1.488149,-1.4837804 z M 5.1650786,7.5048143 C 5.6324678,7.7583049 5.9455298,8.2234098 5.9455298,8.7877174 H 4.6582811 Z" /></svg>
