<?xml version="1.0" encoding="UTF-8"?>
<svg xmlns="http://www.w3.org/2000/svg" xmlns:xlink="http://www.w3.org/1999/xlink" width="185pt" height="37pt" viewBox="0 0 185 37" version="1.1">
<g id="surface1">
<path style="fill-rule:nonzero;fill:rgb(100%,100%,100%);fill-opacity:1;stroke-width:2.835;stroke-linecap:butt;stroke-linejoin:round;stroke:rgb(13.729858%,12.159729%,12.548828%);stroke-opacity:1;stroke-miterlimit:4;" d="M 1534.648438 11.09375 L 1846.445312 188.203125 L 1534.648438 365.429688 L 3.945312 365.429688 L 3.945312 11.09375 L 1534.648438 11.09375 " transform="matrix(0.1,0,0,-0.1,0,37)"/>
<path style=" stroke:none;fill-rule:nonzero;fill:rgb(68.630981%,12.666321%,10.813904%);fill-opacity:1;" d="M 152.898438 33.761719 L 169.054688 18.179688 L 152.898438 2.582031 L 2.515625 2.582031 L 2.515625 33.761719 L 152.898438 33.761719 "/>
<path style=" stroke:none;fill-rule:nonzero;fill:rgb(100%,100%,100%);fill-opacity:1;" d="M 17.074219 16.507812 C 16.578125 16.378906 16.054688 16.273438 15.519531 16.273438 C 12.257812 16.273438 9.605469 18.925781 9.605469 22.1875 C 9.605469 25.445312 12.257812 28.097656 15.519531 28.097656 C 18.402344 28.097656 20.8125 26.023438 21.328125 23.285156 L 22.617188 23.28125 C 22.929688 23.28125 23.316406 23.28125 23.625 23.15625 C 23.949219 23.046875 24.230469 22.8125 24.46875 22.574219 L 31.734375 15.300781 L 32.148438 16.597656 C 29.902344 17.441406 28.253906 19.574219 28.253906 22.117188 C 28.253906 25.378906 30.90625 28.035156 34.171875 28.035156 C 37.4375 28.035156 40.089844 25.378906 40.089844 22.117188 C 40.089844 18.851562 37.4375 16.199219 34.171875 16.199219 C 33.84375 16.199219 33.554688 16.238281 33.242188 16.292969 L 31.464844 10.042969 C 31.335938 9.621094 31.171875 9.113281 30.875 8.816406 C 30.535156 8.464844 29.964844 8.242188 29.296875 8.242188 L 27.117188 8.242188 L 27.117188 9.394531 L 28.863281 9.394531 C 29.207031 9.394531 29.640625 9.394531 29.871094 9.585938 C 30.105469 9.792969 30.179688 10.054688 30.273438 10.367188 L 30.660156 11.632812 L 20.214844 11.632812 L 19.84375 10.5625 L 21.496094 10.164062 L 21.496094 9.394531 L 17.785156 9.394531 L 17.785156 10.5625 L 18.683594 10.5625 L 19.070312 11.632812 L 17.074219 16.507812 "/>
<path style=" stroke:none;fill-rule:nonzero;fill:rgb(100%,100%,100%);fill-opacity:1;" d="M 47.792969 26.675781 L 50.636719 26.675781 L 50.636719 9.851562 L 50.695312 9.851562 L 55.78125 26.675781 L 57.972656 26.675781 L 63.289062 9.851562 L 63.347656 9.851562 L 63.347656 26.675781 L 66.1875 26.675781 L 66.1875 6.839844 L 61.667969 6.839844 L 57.035156 22.132812 L 56.976562 22.132812 L 52.457031 6.839844 L 47.792969 6.839844 L 47.792969 26.675781 "/>
<path style=" stroke:none;fill-rule:nonzero;fill:rgb(100%,100%,100%);fill-opacity:1;" d="M 76.875 26.675781 L 79.546875 26.675781 C 79.519531 26.421875 79.464844 26.054688 79.433594 25.628906 C 79.40625 25.203125 79.378906 24.746094 79.378906 24.261719 L 79.378906 17.300781 C 79.378906 16.332031 79.289062 15.535156 79.09375 14.910156 C 78.894531 14.285156 78.582031 13.773438 78.210938 13.347656 C 77.898438 12.976562 77.386719 12.636719 76.707031 12.324219 C 76.023438 12.039062 75.140625 11.898438 74.03125 11.898438 C 73.09375 11.898438 72.269531 12.011719 71.558594 12.238281 C 70.847656 12.464844 70.195312 12.71875 69.652344 13.035156 L 69.878906 15.566406 C 70.25 15.195312 70.789062 14.855469 71.503906 14.542969 C 72.183594 14.257812 72.921875 14.113281 73.746094 14.113281 C 74.800781 14.113281 75.539062 14.398438 75.992188 14.96875 C 76.21875 15.25 76.394531 15.566406 76.476562 15.90625 C 76.5625 16.273438 76.589844 16.671875 76.589844 17.128906 L 76.589844 17.722656 L 75.539062 17.722656 C 73.175781 17.722656 71.359375 18.125 70.136719 18.890625 C 68.914062 19.6875 68.289062 20.9375 68.289062 22.640625 C 68.289062 23.328125 68.40625 23.921875 68.632812 24.464844 C 68.859375 25.003906 69.171875 25.429688 69.570312 25.800781 C 69.9375 26.167969 70.394531 26.421875 70.90625 26.59375 C 71.417969 26.789062 71.957031 26.875 72.554688 26.875 C 73.636719 26.875 74.488281 26.652344 75.140625 26.195312 C 75.765625 25.769531 76.277344 25.261719 76.648438 24.691406 L 76.707031 24.691406 C 76.707031 24.773438 76.707031 24.917969 76.730469 25.113281 C 76.730469 25.3125 76.730469 25.515625 76.761719 25.714844 C 76.789062 25.910156 76.789062 26.113281 76.816406 26.28125 C 76.847656 26.480469 76.847656 26.59375 76.875 26.675781 "/>
<path style=" stroke:none;fill-rule:nonzero;fill:rgb(100%,100%,100%);fill-opacity:1;" d="M 82.175781 26.675781 L 85.132812 26.675781 L 85.132812 18.832031 C 85.132812 18.09375 85.21875 17.46875 85.390625 16.929688 C 85.558594 16.390625 85.789062 15.960938 86.074219 15.621094 C 86.355469 15.308594 86.695312 15.054688 87.066406 14.882812 C 87.4375 14.738281 87.804688 14.652344 88.234375 14.652344 C 88.402344 14.652344 88.574219 14.652344 88.714844 14.683594 C 88.855469 14.710938 89.027344 14.738281 89.167969 14.769531 L 89.167969 11.925781 C 89.113281 11.925781 89.058594 11.925781 89.027344 11.898438 C 89 11.898438 88.941406 11.898438 88.886719 11.898438 C 88.34375 11.898438 87.863281 11.953125 87.4375 12.097656 C 87.007812 12.238281 86.667969 12.4375 86.355469 12.691406 C 86.042969 12.949219 85.761719 13.230469 85.53125 13.542969 C 85.300781 13.859375 85.105469 14.199219 84.964844 14.570312 L 84.90625 14.570312 C 84.90625 14.457031 84.90625 14.285156 84.90625 14.054688 C 84.878906 13.828125 84.878906 13.574219 84.847656 13.320312 C 84.820312 13.0625 84.820312 12.835938 84.820312 12.609375 C 84.792969 12.382812 84.792969 12.210938 84.792969 12.097656 L 82.0625 12.097656 C 82.089844 12.523438 82.121094 12.976562 82.148438 13.433594 C 82.175781 13.914062 82.175781 14.398438 82.175781 14.882812 L 82.175781 26.675781 "/>
<path style=" stroke:none;fill-rule:nonzero;fill:rgb(100%,100%,100%);fill-opacity:1;" d="M 98.890625 26.453125 L 98.890625 24.234375 C 98.691406 24.320312 98.492188 24.40625 98.261719 24.464844 C 98.035156 24.546875 97.78125 24.574219 97.46875 24.574219 C 96.925781 24.574219 96.5625 24.40625 96.308594 24.09375 C 96.050781 23.78125 95.9375 23.238281 95.9375 22.445312 L 95.9375 14.371094 L 98.890625 14.371094 L 98.890625 12.097656 L 95.9375 12.097656 L 95.9375 8.230469 L 92.980469 9.109375 L 92.980469 12.097656 L 90.648438 12.097656 L 90.648438 14.371094 L 92.980469 14.371094 L 92.980469 23.042969 C 92.980469 24.433594 93.292969 25.429688 93.945312 25.996094 C 94.601562 26.59375 95.511719 26.875 96.699219 26.875 C 97.128906 26.875 97.554688 26.847656 97.921875 26.761719 C 98.289062 26.652344 98.632812 26.566406 98.890625 26.453125 "/>
<path style=" stroke:none;fill-rule:nonzero;fill:rgb(100%,100%,100%);fill-opacity:1;" d="M 101.027344 26.675781 L 103.984375 26.675781 L 103.984375 12.097656 L 101.027344 12.097656 L 101.027344 26.675781 "/>
<path style=" stroke:none;fill-rule:nonzero;fill:rgb(100%,100%,100%);fill-opacity:1;" d="M 100.941406 9.167969 L 104.070312 9.167969 L 104.070312 6.015625 L 100.941406 6.015625 L 100.941406 9.167969 "/>
<path style=" stroke:none;fill-rule:nonzero;fill:rgb(100%,100%,100%);fill-opacity:1;" d="M 107.019531 29.320312 L 106.851562 32.078125 C 107.335938 32.273438 108.015625 32.472656 108.867188 32.675781 C 109.722656 32.875 110.605469 32.988281 111.484375 32.988281 C 113.644531 32.988281 115.265625 32.390625 116.347656 31.226562 C 117.425781 30.058594 117.964844 28.382812 117.964844 26.222656 L 117.964844 14.570312 C 117.964844 14.144531 117.992188 13.746094 118.023438 13.320312 C 118.050781 12.894531 118.050781 12.492188 118.082031 12.097656 L 115.351562 12.097656 C 115.351562 12.179688 115.351562 12.351562 115.351562 12.550781 C 115.324219 12.75 115.324219 12.976562 115.292969 13.207031 C 115.265625 13.433594 115.265625 13.632812 115.265625 13.828125 C 115.234375 14.03125 115.234375 14.199219 115.234375 14.285156 L 115.152344 14.285156 C 114.78125 13.632812 114.300781 13.0625 113.703125 12.582031 C 113.105469 12.121094 112.367188 11.898438 111.457031 11.898438 C 110.574219 11.898438 109.777344 12.070312 109.125 12.4375 C 108.472656 12.808594 107.902344 13.289062 107.476562 13.945312 C 107.050781 14.597656 106.707031 15.394531 106.511719 16.300781 C 106.28125 17.242188 106.167969 18.265625 106.167969 19.402344 C 106.167969 20.765625 106.3125 21.90625 106.625 22.839844 C 106.910156 23.78125 107.277344 24.546875 107.761719 25.113281 C 108.246094 25.714844 108.785156 26.113281 109.382812 26.367188 C 109.976562 26.625 110.605469 26.761719 111.230469 26.761719 C 112.222656 26.761719 113.019531 26.535156 113.617188 26.054688 C 114.214844 25.597656 114.695312 25.03125 115.066406 24.320312 L 115.125 24.320312 L 115.125 26.136719 C 115.125 26.730469 115.066406 27.328125 114.953125 27.867188 C 114.8125 28.410156 114.609375 28.867188 114.328125 29.261719 C 114.015625 29.664062 113.617188 29.976562 113.105469 30.230469 C 112.59375 30.457031 111.9375 30.570312 111.171875 30.570312 C 110.378906 30.570312 109.609375 30.429688 108.839844 30.175781 C 108.070312 29.886719 107.476562 29.605469 107.019531 29.320312 "/>
<path style=" stroke:none;fill-rule:nonzero;fill:rgb(100%,100%,100%);fill-opacity:1;" d="M 120.917969 26.675781 L 123.871094 26.675781 L 123.871094 18.039062 C 123.871094 16.902344 124.101562 15.988281 124.582031 15.339844 C 125.039062 14.683594 125.71875 14.371094 126.660156 14.371094 C 127.425781 14.371094 127.964844 14.625 128.335938 15.136719 C 128.679688 15.652344 128.847656 16.476562 128.847656 17.609375 L 128.847656 26.675781 L 131.804688 26.675781 L 131.804688 16.929688 C 131.804688 15.394531 131.460938 14.171875 130.78125 13.261719 C 130.097656 12.351562 129.019531 11.898438 127.539062 11.898438 C 126.6875 11.898438 125.945312 12.097656 125.296875 12.523438 C 124.640625 12.949219 124.128906 13.542969 123.757812 14.3125 L 123.703125 14.3125 C 123.703125 14.230469 123.703125 14.054688 123.703125 13.859375 C 123.675781 13.660156 123.675781 13.433594 123.644531 13.207031 C 123.617188 12.976562 123.617188 12.75 123.617188 12.550781 C 123.589844 12.351562 123.589844 12.179688 123.589844 12.097656 L 120.800781 12.097656 C 120.832031 12.523438 120.859375 12.976562 120.890625 13.433594 C 120.917969 13.914062 120.917969 14.398438 120.917969 14.882812 L 120.917969 26.675781 "/>
<path style=" stroke:none;fill-rule:nonzero;fill:rgb(100%,100%,100%);fill-opacity:1;" d="M 134.523438 30.285156 L 134.382812 32.703125 C 134.636719 32.789062 134.921875 32.84375 135.265625 32.902344 C 135.574219 32.960938 135.945312 32.988281 136.3125 32.988281 C 137.367188 32.988281 138.21875 32.703125 138.816406 32.136719 C 139.414062 31.539062 139.867188 30.683594 140.179688 29.546875 L 145.355469 12.097656 L 142.457031 12.097656 L 139.558594 23.554688 L 139.5 23.554688 L 136.402344 12.097656 L 133.328125 12.097656 L 138.050781 26.847656 L 137.625 28.582031 C 137.425781 29.347656 137.195312 29.859375 136.941406 30.144531 C 136.65625 30.429688 136.285156 30.570312 135.859375 30.570312 C 135.605469 30.570312 135.351562 30.542969 135.152344 30.488281 C 134.921875 30.429688 134.722656 30.371094 134.523438 30.285156 "/>
<path style=" stroke:none;fill-rule:nonzero;fill:rgb(68.630981%,12.666321%,10.813904%);fill-opacity:1;" d="M 16.613281 17.679688 C 16.261719 17.59375 15.898438 17.546875 15.519531 17.546875 C 12.960938 17.546875 10.882812 19.625 10.882812 22.1875 C 10.882812 24.746094 12.960938 26.824219 15.519531 26.824219 C 17.691406 26.824219 19.523438 25.316406 20.023438 23.296875 L 16.289062 23.289062 C 15.835938 23.289062 15.144531 23.320312 14.863281 22.875 C 14.632812 22.5 14.925781 21.910156 15.015625 21.648438 L 16.613281 17.679688 "/>
<path style=" stroke:none;fill-rule:nonzero;fill:rgb(68.630981%,12.666321%,10.813904%);fill-opacity:1;" d="M 20.585938 12.742188 L 23.554688 21.839844 L 31.320312 13.996094 L 30.964844 12.742188 L 20.585938 12.742188 "/>
<path style=" stroke:none;fill-rule:nonzero;fill:rgb(68.630981%,12.666321%,10.813904%);fill-opacity:1;" d="M 18.167969 16.882812 C 20.078125 17.847656 21.394531 19.820312 21.429688 22.09375 L 22.4375 22.09375 L 19.605469 13.496094 L 18.167969 16.882812 "/>
<path style=" stroke:none;fill-rule:nonzero;fill:rgb(68.630981%,12.666321%,10.813904%);fill-opacity:1;" d="M 32.457031 17.816406 C 30.75 18.496094 29.539062 20.167969 29.539062 22.117188 C 29.539062 24.671875 31.617188 26.746094 34.175781 26.746094 C 36.734375 26.746094 38.8125 24.671875 38.8125 22.117188 C 38.8125 19.5625 36.734375 17.484375 34.175781 17.484375 C 33.980469 17.484375 33.789062 17.496094 33.597656 17.519531 L 34.851562 21.957031 C 34.914062 22.175781 34.960938 22.59375 34.480469 22.730469 C 34.007812 22.871094 33.773438 22.535156 33.699219 22.292969 L 32.457031 17.816406 "/>
<path style=" stroke:none;fill-rule:nonzero;fill:rgb(68.630981%,12.666321%,10.813904%);fill-opacity:1;" d="M 17.699219 18.109375 L 16.121094 22.117188 L 20.128906 22.117188 C 20.128906 20.351562 19.152344 18.898438 17.699219 18.109375 "/>
<path style=" stroke:none;fill-rule:nonzero;fill:rgb(68.630981%,12.666321%,10.813904%);fill-opacity:1;" d="M 76.589844 19.542969 L 76.589844 20.851562 C 76.589844 22.015625 76.335938 22.957031 75.824219 23.664062 C 75.285156 24.40625 74.515625 24.773438 73.460938 24.773438 C 72.695312 24.773438 72.125 24.546875 71.730469 24.121094 C 71.332031 23.695312 71.132812 23.097656 71.132812 22.386719 C 71.132812 21.421875 71.503906 20.710938 72.269531 20.226562 C 73.039062 19.742188 74.144531 19.519531 75.597656 19.519531 C 75.765625 19.519531 75.933594 19.519531 76.136719 19.519531 C 76.335938 19.519531 76.503906 19.519531 76.589844 19.542969 "/>
<path style=" stroke:none;fill-rule:nonzero;fill:rgb(68.630981%,12.666321%,10.813904%);fill-opacity:1;" d="M 109.921875 23.238281 C 109.4375 22.414062 109.183594 21.109375 109.183594 19.316406 C 109.183594 17.636719 109.40625 16.390625 109.863281 15.507812 C 110.289062 14.652344 111.03125 14.230469 112.054688 14.199219 C 113.019531 14.199219 113.761719 14.625 114.300781 15.476562 C 114.8125 16.332031 115.066406 17.609375 115.066406 19.285156 C 115.066406 21.050781 114.8125 22.359375 114.328125 23.210938 C 113.84375 24.09375 113.046875 24.519531 111.9375 24.519531 C 111.085938 24.519531 110.40625 24.09375 109.921875 23.238281 "/>
</g>
</svg>
