<?xml version="1.0" encoding="UTF-8" standalone="no"?>
<!-- Created with Inkscape (http://www.inkscape.org/) -->

<svg
   width="60.110432mm"
   height="11.329401mm"
   viewBox="0 0 60.110432 11.329401"
   version="1.1"
   id="svg1"
   xml:space="preserve"
   xmlns="http://www.w3.org/2000/svg"
   xmlns:svg="http://www.w3.org/2000/svg"><defs
     id="defs1"><rect
       x="121.1518"
       y="511.35498"
       width="77.411278"
       height="16.67804"
       id="rect71" /><rect
       x="121.1518"
       y="511.35498"
       width="77.411278"
       height="16.67804"
       id="rect71-0" /></defs><path
     style="fill:#ffffff;fill-opacity:1;stroke:#000000;stroke-width:0.1;stroke-linecap:butt;stroke-linejoin:miter;stroke-dasharray:none;stroke-opacity:1"
     d="M 60.060433,0.14133 V 11.2794 H 6.9263507 L 0.07916973,5.71036 7.0176447,0.05003 Z"
     id="path1" /><path
     style="fill:#c90b1c;fill-opacity:1"
     d="M 59.394068,5.6651 V 0.8391 H 33.249704 7.1053407 l -2.582769,2.41096 -2.582768,2.41096 2.522799,2.41165 2.5228,2.41163 26.2043323,0.003 26.204333,0.003 z"
     id="path38" /><path
     id="path69-7-3"
     style="fill:#ffffff;fill-opacity:1;fill-rule:nonzero;stroke:none;stroke-width:0.563944"
     d="M 52.077266,2.77121 V 3.1413 h -0.560088 c -0.110145,0 -0.248929,2.7e-4 -0.323827,0.062 -0.0727,0.0661 -0.09638,0.1498 -0.127218,0.25113 L 50.94222,3.86004 h 3.350618 L 54.410142,3.51639 53.881445,3.38834 V 3.14135 h 1.189569 V 3.51639 H 54.784361 L 54.658795,3.86004 55.29984,5.4197 c 0.15861,-0.0418 0.328509,-0.0752 0.498134,-0.0752 1.048582,0 1.8967,0.8484 1.8967,1.89257 0,1.04638 -0.848118,1.89175 -1.8967,1.89175 -0.925221,0 -1.698441,-0.66307 -1.863659,-1.53983 l -0.412219,-0.002 c -0.09913,0 -0.224696,0 -0.323826,-0.0397 C 53.094733,7.51419 53.004414,7.43715 52.927312,7.36225 L 50.596915,5.0335 50.464741,5.44737 c 0.720349,0.27096 1.249046,0.95194 1.249046,1.76701 0,1.04418 -0.850321,1.8967 -1.8967,1.8967 -1.048583,0 -1.901658,-0.85252 -1.901658,-1.8967 0,-1.04417 0.853075,-1.89422 1.901658,-1.89422 0.103536,0 0.196058,0.0127 0.297391,0.0281 L 50.68448,3.34828 c 0.03965,-0.13438 0.0928,-0.29766 0.187522,-0.39239 0.110146,-0.11235 0.292711,-0.18505 0.506393,-0.18505 z m 2.096615,1.44318 h -3.330792 l -0.114,0.40065 2.491485,2.51131 z m 0.315566,0.24039 -0.91035,2.75335 h 0.323826 C 53.913933,6.48117 54.336895,5.84867 54.9471,5.54026 Z m -4.678969,1.27713 c -0.81948,0 -1.486961,0.66336 -1.486961,1.48283 0,0.81948 0.667481,1.48283 1.486961,1.48283 0.821683,0 1.48696,-0.66335 1.48696,-1.48283 0,-0.62342 -0.388262,-1.159 -0.936785,-1.37709 l -0.398175,1.43409 c -0.02203,0.0771 -0.09693,0.18312 -0.251131,0.14126 -0.152,-0.044 -0.139332,-0.17816 -0.117304,-0.24865 l 0.401479,-1.42088 c -0.05948,-0.007 -0.123362,-0.0116 -0.185044,-0.0116 z m 5.980887,0.0223 c -0.12116,0 -0.240393,0.0135 -0.352742,0.0421 l 0.511351,1.26887 c 0.03084,0.0859 0.12529,0.27288 0.05039,0.39405 -0.09032,0.14098 -0.312811,0.13217 -0.456002,0.13217 l -1.198655,0.002 c 0.160813,0.64766 0.747336,1.12761 1.445657,1.12761 0.819481,0 1.486961,-0.665 1.486961,-1.48448 0,-0.81728 -0.66748,-1.48284 -1.486961,-1.48284 z M 55.09084,5.92604 c -0.467016,0.25333 -0.779828,0.71814 -0.779828,1.28209 h 1.286221 z" /><path
     style="font-size:12.005px;line-height:1.25;font-family:Geneva;-inkscape-font-specification:Geneva;text-align:center;letter-spacing:0.542724px;baseline-shift:baseline;white-space:pre;fill:#ffffff;stroke:#ffffff;stroke-width:0.241611"
     d="m 133.58102,517.53382 q 1.07857,0.26379 1.55924,0.891 0.48653,0.62135 0.48653,1.40684 0,0.65066 -0.33412,1.22511 -0.33413,0.57446 -0.94962,0.92031 -0.61549,0.33999 -2.12784,0.33999 h -2.72574 v -9.09754 h 2.41507 q 1.65303,0 2.21577,0.24033 0.56859,0.23447 0.85582,0.69756 0.28723,0.46308 0.28723,1.02581 0,0.62722 -0.36343,1.24857 -0.36344,0.61549 -1.31891,1.10202 z m -2.90746,-0.35757 h 1.13719 q 0.87927,0 1.31305,-0.23447 0.43963,-0.23447 0.69755,-0.66825 0.26378,-0.43963 0.26378,-0.90272 0,-0.50998 -0.41032,-0.87341 -0.40447,-0.36343 -1.46546,-0.36343 h -1.53579 z m 0,4.23223 h 1.67061 q 1.18409,0 1.61787,-0.43963 0.43963,-0.4455 0.43963,-1.04927 0,-0.48653 -0.28136,-0.89686 -0.28137,-0.41032 -0.83824,-0.66824 -0.55102,-0.26378 -1.72924,-0.26378 h -0.87927 z m 11.27571,-0.77376 h 1.09029 v 0.0586 q 0,0.43378 -0.34584,0.88514 -0.34585,0.45136 -0.91445,0.68583 -0.56859,0.23447 -1.30718,0.23447 -1.49476,0 -2.30956,-0.9672 -0.80893,-0.9672 -0.80893,-2.44438 0,-1.51234 0.85583,-2.50299 0.86169,-0.99651 2.21576,-0.99651 0.74446,0 1.34822,0.3224 0.60377,0.3224 0.95548,1.00823 0.35171,0.67997 0.35171,1.89923 v 0.36343 h -4.64842 q 0,1.04927 0.56273,1.72924 0.5686,0.67997 1.57097,0.67997 0.721,0 1.04926,-0.27551 0.33413,-0.28136 0.33413,-0.62135 z m -3.44675,-2.27438 h 3.53467 v -0.12896 q 0,-0.45722 -0.22274,-0.88513 -0.21689,-0.43378 -0.60377,-0.63894 -0.38688,-0.21103 -0.90272,-0.21103 -0.60963,0 -1.12547,0.49239 -0.51584,0.48654 -0.67997,1.37167 z m 7.71172,3.95673 h -1.09029 v -9.46098 h 1.09029 z m 3.36226,0 h -1.0903 v -9.46098 h 1.0903 z m 2.27196,-6.54765 h 1.0903 v 6.54765 h -1.0903 z m 0,-1.45373 v -1.09616 h 1.0903 v 1.09616 z m 4.45256,8.00138 h -1.0903 v -6.54765 h 1.0903 v 1.13133 q 0.34585,-0.53343 0.66825,-0.79135 0.32826,-0.25792 0.67997,-0.38688 0.35757,-0.13482 0.79134,-0.13482 0.61549,0 1.10202,0.25206 0.4924,0.25206 0.76204,0.74445 0.26964,0.48653 0.26964,1.5651 v 4.16776 h -1.0903 v -3.69881 q 0,-0.87927 -0.11723,-1.24271 -0.11724,-0.36929 -0.45722,-0.57445 -0.33999,-0.21103 -0.73859,-0.21103 -0.48067,0 -0.91445,0.28137 -0.43377,0.28137 -0.69755,0.78548 -0.25792,0.50412 -0.25792,1.44201 z m 11.59811,-0.90859 v 0.90859 h -5.32253 v -0.90859 l 3.88638,-4.73048 h -3.79259 v -0.90858 h 5.08805 v 0.90858 l -3.81604,4.73048 z m 4.82185,1.0903 q -1.28374,0 -2.19232,-0.86755 -0.90272,-0.87341 -0.90272,-2.59092 0,-1.71165 0.90272,-2.5792 0.90858,-0.87341 2.19232,-0.87341 1.27787,0 2.18059,0.87341 0.90859,0.86755 0.90859,2.5792 0,1.71751 -0.90859,2.59092 -0.90272,0.86755 -2.18059,0.86755 z m 0,-0.90858 q 0.87927,0 1.4127,-0.69756 0.53928,-0.70341 0.53928,-1.85233 0,-1.14305 -0.53928,-1.84061 -0.53343,-0.70342 -1.4127,-0.70342 -0.88514,0 -1.42442,0.70342 -0.53343,0.69756 -0.53343,1.84061 0,1.14892 0.53343,1.85233 0.53928,0.69756 1.42442,0.69756 z m 6.12903,0.72687 h -1.0903 v -6.54765 h 1.0903 v 1.13133 q 0.34585,-0.53343 0.66825,-0.79135 0.32826,-0.25792 0.67997,-0.38688 0.35757,-0.13482 0.79135,-0.13482 0.61549,0 1.10202,0.25206 0.49239,0.25206 0.76203,0.74445 0.26965,0.48653 0.26965,1.5651 v 4.16776 h -1.0903 v -3.69881 q 0,-0.87927 -0.11724,-1.24271 -0.11723,-0.36929 -0.45722,-0.57445 -0.33998,-0.21103 -0.73859,-0.21103 -0.48067,0 -0.91444,0.28137 -0.43378,0.28137 -0.69756,0.78548 -0.25792,0.50412 -0.25792,1.44201 z m 10.49609,0 q -0.16999,-0.52757 -0.16999,-0.90859 -0.71514,0.70928 -1.22512,0.90272 -0.50412,0.18758 -0.9672,0.18758 -0.77962,0 -1.34236,-0.47481 -0.55687,-0.48066 -0.55687,-1.3189 0,-0.94962 0.78549,-1.46546 0.79134,-0.51584 2.71988,-0.89099 l 0.58618,-0.11138 v -0.73859 q 0,-0.60376 -0.40447,-0.8441 -0.40446,-0.2462 -0.97306,-0.2462 -0.67997,0 -1.06099,0.29896 -0.38101,0.29895 -0.38101,0.69755 v 0.0938 h -1.18409 v -0.0879 q 0,-0.43378 0.36343,-0.89686 0.3693,-0.46309 0.97306,-0.69756 0.60963,-0.23447 1.33064,-0.23447 0.71514,0 1.30132,0.22275 0.58618,0.22275 0.85582,0.60376 0.26965,0.37516 0.26965,1.41856 v 2.54403 q 0,0.41619 0.0176,0.87927 0.0235,0.45723 0.21103,1.06686 z m -0.16999,-3.30607 -0.32826,0.0821 q -1.6589,0.40446 -2.12198,0.76789 -0.46308,0.36344 -0.46308,0.86755 0,0.25792 0.13482,0.48067 0.14068,0.22275 0.41033,0.34585 0.26964,0.1231 0.53342,0.1231 0.45722,0 0.89686,-0.26378 0.4455,-0.26965 0.69169,-0.71515 0.2462,-0.44549 0.2462,-1.03754 z"
     id="text71"
     transform="matrix(0.3938655,0,0,0.434931,-43.583459,-219.39103)"
     aria-label="Bellinzona" /><path
     style="font-size:12.005px;line-height:1.25;font-family:'Avenir Next';-inkscape-font-specification:'Avenir Next';text-align:center;letter-spacing:0.542724px;white-space:pre;fill:#ffffff;stroke:#ffffff;stroke-width:0.114623"
     d="m 151.67827,514.46182 -3.42142,7.70721 h -0.97241 l 3.51747,-7.73122 h -4.16574 v -0.76832 h 5.0421 z m 6.99191,4.62192 h 0.036 l 2.59308,-2.53305 h 1.17649 l -2.83318,2.56907 3.1213,3.04927 h -1.2005 l -2.85719,-2.95323 h -0.036 v 2.95323 h -0.81634 v -9.07578 h 0.81634 z m 6.62926,-1.57265 q 0.2401,-0.49221 0.73231,-0.79233 0.50421,-0.31213 1.11646,-0.31213 0.2281,0 0.4682,0.048 0.2521,0.048 0.4802,0.19208 0.2401,0.13205 0.43218,0.36015 0.20408,0.22809 0.34814,0.58824 0.28812,-0.57624 0.78033,-0.87636 0.50421,-0.31213 1.18849,-0.31213 1.06845,0 1.59667,0.63626 0.54022,0.63627 0.54022,1.6807 v 3.44544 h -0.81634 v -3.1093 q 0,-0.88837 -0.33614,-1.42859 -0.32413,-0.54023 -1.11646,-0.54023 -0.44419,0 -0.75632,0.18008 -0.30012,0.18007 -0.4922,0.4802 -0.18008,0.28812 -0.26411,0.66027 -0.084,0.37216 -0.084,0.76832 v 2.98925 h -0.81634 v -3.27737 q 0,-0.40817 -0.06,-0.74431 -0.06,-0.33614 -0.21609,-0.56423 -0.14406,-0.2401 -0.40817,-0.36015 -0.26411,-0.13206 -0.67228,-0.13206 -0.28812,0 -0.58825,0.13206 -0.28812,0.13205 -0.52822,0.40817 -0.22809,0.26411 -0.37215,0.68428 -0.14406,0.40817 -0.14406,0.97241 v 2.8812 h -0.81634 v -4.38183 q 0,-0.22809 -0.012,-0.58824 -0.012,-0.36015 -0.036,-0.64827 h 0.78032 q 0.024,0.22809 0.036,0.50421 0.012,0.27611 0.012,0.45619 h 0.024 z"
     id="text71-2"
     transform="matrix(0.28155333,0,0,0.33115831,-3.3834398,-165.16052)"
     aria-label="7 km" /></svg>
