<?xml version="1.0" encoding="UTF-8" standalone="no"?>
<svg
   width="86pt"
   height="22pt"
   viewBox="0 0 86 22"
   version="1.1"
   id="svg6028"
   xmlns="http://www.w3.org/2000/svg"
   xmlns:svg="http://www.w3.org/2000/svg"
   xmlns:rdf="http://www.w3.org/1999/02/22-rdf-syntax-ns#"
   xmlns:cc="http://creativecommons.org/ns#"
   xmlns:dc="http://purl.org/dc/elements/1.1/">
  <metadata
     id="metadata6034">
    <rdf:RDF>
      <cc:Work
         rdf:about="">
        <dc:format>image/svg+xml</dc:format>
        <dc:type
           rdf:resource="http://purl.org/dc/dcmitype/StillImage" />
      </cc:Work>
    </rdf:RDF>
  </metadata>
  <defs
     id="defs6032" />
  <g
     aria-label="i"
     id="text10957"
     style="font-style:italic;font-size:12px;line-height:1.25;-inkscape-font-specification:'sans-serif Italic';fill:#ffffff;stroke-width:0.75">
    <g
       id="g12356">
      <g
         id="surface1">
        <path
           style=" stroke:none;fill-rule:nonzero;fill:rgb(68.630981%,12.666321%,10.813904%);fill-opacity:1;"
           d="M 32.535156 14.46875 C 32.324219 14.550781 32.074219 14.621094 31.777344 14.664062 C 31.492188 14.71875 31.183594 14.746094 30.867188 14.746094 C 30.003906 14.738281 29.285156 14.539062 28.726562 14.160156 C 28.160156 13.777344 27.738281 13.261719 27.46875 12.613281 C 27.191406 11.976562 27.054688 11.246094 27.054688 10.453125 C 27.054688 9.597656 27.207031 8.859375 27.503906 8.214844 C 27.800781 7.574219 28.234375 7.078125 28.792969 6.71875 C 29.347656 6.359375 30.023438 6.179688 30.804688 6.167969 C 31.171875 6.167969 31.507812 6.203125 31.804688 6.269531 C 32.109375 6.339844 32.355469 6.414062 32.535156 6.492188 L 32.488281 7.710938 C 32.289062 7.589844 32.074219 7.492188 31.816406 7.402344 C 31.550781 7.3125 31.257812 7.265625 30.914062 7.257812 C 30.464844 7.257812 30.058594 7.367188 29.679688 7.589844 C 29.300781 7.804688 28.996094 8.148438 28.773438 8.609375 C 28.539062 9.058594 28.421875 9.644531 28.421875 10.34375 C 28.429688 11.425781 28.65625 12.246094 29.105469 12.8125 C 29.554688 13.367188 30.164062 13.648438 30.949219 13.65625 C 31.582031 13.648438 32.09375 13.511719 32.488281 13.242188 L 32.535156 14.46875 M 38.6875 14.648438 L 37.519531 14.648438 C 37.507812 14.558594 37.5 14.425781 37.488281 14.25 C 37.472656 14.070312 37.464844 13.9375 37.464844 13.847656 L 37.453125 13.847656 C 37.113281 14.460938 36.574219 14.753906 35.84375 14.738281 C 35.234375 14.730469 34.773438 14.539062 34.484375 14.160156 C 34.191406 13.78125 34.046875 13.269531 34.046875 12.613281 L 34.046875 8.488281 L 35.292969 8.488281 L 35.292969 12.324219 C 35.292969 12.804688 35.367188 13.152344 35.523438 13.367188 C 35.664062 13.585938 35.898438 13.691406 36.222656 13.691406 C 36.609375 13.6875 36.90625 13.550781 37.09375 13.269531 C 37.292969 13 37.394531 12.625 37.394531 12.144531 L 37.394531 8.488281 L 38.640625 8.488281 L 38.640625 13.476562 C 38.640625 13.890625 38.660156 14.289062 38.6875 14.648438 M 45.148438 14.648438 L 43.960938 14.648438 C 43.960938 14.59375 43.949219 14.476562 43.929688 14.296875 C 43.925781 14.125 43.914062 13.972656 43.914062 13.847656 L 43.90625 13.847656 C 43.769531 14.101562 43.574219 14.304688 43.332031 14.476562 C 43.078125 14.648438 42.726562 14.730469 42.269531 14.738281 C 41.574219 14.730469 41.046875 14.441406 40.675781 13.875 C 40.308594 13.316406 40.128906 12.550781 40.128906 11.578125 C 40.136719 10.542969 40.324219 9.761719 40.703125 9.222656 C 41.082031 8.679688 41.59375 8.417969 42.25 8.410156 C 42.636719 8.410156 42.960938 8.484375 43.210938 8.628906 C 43.464844 8.761719 43.671875 8.96875 43.84375 9.238281 L 43.851562 9.238281 L 43.851562 5.644531 L 45.101562 5.644531 L 45.101562 13.558594 C 45.113281 13.980469 45.117188 14.339844 45.148438 14.648438 M 43.851562 11.570312 C 43.859375 10.878906 43.761719 10.335938 43.566406 9.949219 C 43.355469 9.5625 43.042969 9.363281 42.609375 9.363281 C 42.167969 9.363281 41.855469 9.550781 41.664062 9.929688 C 41.464844 10.308594 41.367188 10.839844 41.367188 11.542969 C 41.367188 12.28125 41.460938 12.839844 41.648438 13.21875 C 41.835938 13.59375 42.152344 13.78125 42.59375 13.78125 C 43.042969 13.78125 43.367188 13.578125 43.566406 13.1875 C 43.761719 12.792969 43.859375 12.253906 43.851562 11.570312 M 49.742188 9.625 C 49.628906 9.597656 49.492188 9.582031 49.347656 9.570312 C 48.988281 9.570312 48.679688 9.707031 48.429688 9.984375 C 48.175781 10.273438 48.050781 10.722656 48.042969 11.335938 L 48.042969 14.648438 L 46.792969 14.648438 L 46.792969 9.671875 C 46.792969 9.257812 46.773438 8.859375 46.75 8.488281 L 47.902344 8.488281 C 47.902344 8.597656 47.90625 8.753906 47.917969 8.953125 C 47.9375 9.140625 47.945312 9.300781 47.945312 9.410156 L 47.957031 9.410156 C 48.097656 9.101562 48.296875 8.859375 48.554688 8.679688 C 48.820312 8.507812 49.179688 8.417969 49.628906 8.410156 C 49.664062 8.417969 49.707031 8.417969 49.742188 8.429688 L 49.742188 9.625 M 55.484375 11.921875 L 51.96875 11.921875 C 51.96875 12.539062 52.09375 13.007812 52.34375 13.324219 C 52.605469 13.636719 53.019531 13.800781 53.585938 13.800781 C 53.9375 13.792969 54.242188 13.746094 54.488281 13.636719 C 54.738281 13.542969 54.945312 13.433594 55.097656 13.308594 L 55.160156 14.351562 C 54.957031 14.449219 54.703125 14.53125 54.40625 14.609375 C 54.097656 14.683594 53.757812 14.71875 53.378906 14.730469 C 52.785156 14.71875 52.28125 14.585938 51.894531 14.316406 C 51.5 14.050781 51.203125 13.6875 51.015625 13.21875 C 50.816406 12.75 50.714844 12.210938 50.714844 11.605469 C 50.726562 10.652344 50.941406 9.875 51.363281 9.300781 C 51.792969 8.71875 52.398438 8.417969 53.179688 8.402344 C 53.863281 8.394531 54.421875 8.644531 54.835938 9.140625 C 55.25 9.636719 55.464844 10.425781 55.484375 11.496094 L 55.484375 11.921875 M 54.261719 11.066406 C 54.261719 9.886719 53.882812 9.292969 53.144531 9.292969 C 52.785156 9.292969 52.496094 9.445312 52.292969 9.75 C 52.082031 10.066406 51.972656 10.5 51.96875 11.066406 L 54.261719 11.066406 M 59.910156 6.601562 C 59.820312 6.566406 59.722656 6.539062 59.613281 6.519531 C 59.496094 6.492188 59.40625 6.484375 59.335938 6.472656 C 58.84375 6.492188 58.597656 6.773438 58.613281 7.320312 L 58.613281 8.488281 L 59.730469 8.488281 L 59.730469 9.457031 L 58.613281 9.457031 L 58.613281 14.648438 L 57.367188 14.648438 L 57.367188 9.457031 L 56.359375 9.457031 L 56.359375 8.488281 L 57.367188 8.488281 L 57.367188 7.1875 C 57.355469 6.707031 57.480469 6.3125 57.734375 6 C 57.984375 5.683594 58.410156 5.519531 59.011719 5.511719 C 59.128906 5.511719 59.273438 5.519531 59.441406 5.546875 C 59.605469 5.574219 59.765625 5.601562 59.910156 5.640625 L 59.910156 6.601562 M 62.285156 7.257812 L 62.285156 5.925781 L 60.964844 5.925781 L 60.964844 7.257812 L 62.285156 7.257812 M 62.25 14.648438 L 62.25 8.488281 L 61 8.488281 L 61 14.648438 L 62.25 14.648438 M 68.683594 14.628906 L 67.429688 14.628906 L 67.429688 10.792969 C 67.429688 10.320312 67.359375 9.976562 67.210938 9.75 C 67.054688 9.535156 66.832031 9.425781 66.507812 9.425781 C 66.117188 9.4375 65.824219 9.582031 65.625 9.851562 C 65.433594 10.121094 65.335938 10.5 65.335938 10.972656 L 65.335938 14.628906 L 64.085938 14.628906 L 64.085938 9.644531 C 64.085938 9.226562 64.066406 8.84375 64.042969 8.472656 L 65.210938 8.472656 C 65.21875 8.5625 65.21875 8.699219 65.234375 8.867188 C 65.253906 9.046875 65.253906 9.183594 65.265625 9.277344 L 65.273438 9.277344 C 65.613281 8.671875 66.15625 8.375 66.886719 8.382812 C 67.496094 8.394531 67.953125 8.589844 68.242188 8.957031 C 68.539062 9.335938 68.683594 9.859375 68.683594 10.507812 L 68.683594 14.628906 M 1.773438 1.777344 L 1.773438 20.203125 L 72.625 20.203125 L 81.097656 10.984375 L 72.625 1.777344 L 1.773438 1.777344 M 18.453125 10.871094 C 18.667969 10.929688 18.777344 11.0625 18.777344 11.269531 C 18.777344 11.382812 18.75 11.511719 18.695312 11.652344 C 18.617188 11.863281 18.429688 12.074219 18.132812 12.285156 C 17.832031 12.492188 17.570312 12.601562 17.339844 12.609375 C 16.722656 12.601562 16.152344 12.597656 15.625 12.597656 C 15.300781 12.597656 14.859375 12.601562 14.300781 12.605469 C 13.714844 12.609375 13.238281 12.613281 12.875 12.613281 C 12.703125 12.613281 12.53125 12.613281 12.351562 12.609375 C 11.425781 12.605469 10.789062 12.527344 10.4375 12.375 C 10.28125 12.308594 10.167969 12.226562 10.101562 12.121094 C 10.035156 12.019531 10.003906 11.886719 10.003906 11.722656 C 10.003906 11.484375 10.074219 11.148438 10.210938 10.722656 L 10.210938 10.71875 C 10.269531 10.539062 10.421875 10.289062 10.671875 9.96875 C 10.972656 9.582031 11.1875 9.242188 11.324219 8.949219 C 11.550781 8.453125 11.691406 7.863281 11.738281 7.175781 C 11.753906 7.003906 11.816406 6.769531 11.917969 6.46875 C 11.976562 6.292969 12.042969 6.152344 12.105469 6.050781 C 12.160156 5.964844 12.203125 5.917969 12.234375 5.910156 C 12.242188 5.910156 12.246094 5.914062 12.257812 5.917969 C 12.472656 6.054688 12.722656 6.125 13.003906 6.125 C 13.246094 6.125 13.617188 6.050781 14.109375 5.902344 C 14.566406 5.765625 14.894531 5.699219 15.097656 5.699219 C 15.292969 5.699219 15.460938 5.742188 15.609375 5.828125 C 15.3125 6.613281 14.996094 7.453125 14.65625 8.351562 C 14.605469 8.484375 14.582031 8.613281 14.582031 8.742188 C 14.582031 9.273438 14.996094 9.71875 15.828125 10.085938 C 16.261719 10.277344 16.960938 10.492188 17.925781 10.734375 C 18.171875 10.796875 18.347656 10.84375 18.453125 10.871094 M 18.589844 10.378906 C 18.503906 10.351562 18.324219 10.308594 18.050781 10.238281 C 17.113281 10.003906 16.441406 9.796875 16.035156 9.617188 C 15.40625 9.339844 15.09375 9.046875 15.09375 8.742188 C 15.09375 8.675781 15.105469 8.605469 15.132812 8.53125 C 15.476562 7.621094 15.796875 6.78125 16.089844 6.011719 L 16.242188 5.605469 L 15.871094 5.386719 C 15.644531 5.253906 15.386719 5.1875 15.101562 5.1875 C 14.847656 5.1875 14.46875 5.261719 13.964844 5.414062 C 13.519531 5.546875 13.199219 5.613281 13.007812 5.613281 C 12.824219 5.613281 12.664062 5.570312 12.53125 5.484375 C 12.472656 5.449219 12.414062 5.425781 12.355469 5.410156 L 12.230469 5.382812 L 12.109375 5.414062 C 11.949219 5.457031 11.804688 5.578125 11.679688 5.773438 C 11.589844 5.910156 11.511719 6.085938 11.4375 6.300781 C 11.320312 6.636719 11.253906 6.914062 11.230469 7.125 L 11.230469 7.144531 C 11.1875 7.765625 11.0625 8.292969 10.859375 8.734375 C 10.742188 8.992188 10.546875 9.296875 10.269531 9.652344 C 9.984375 10.023438 9.800781 10.324219 9.726562 10.5625 C 9.574219 11.042969 9.496094 11.425781 9.496094 11.71875 C 9.496094 11.988281 9.554688 12.214844 9.675781 12.398438 C 9.800781 12.585938 9.988281 12.738281 10.238281 12.84375 C 10.652344 13.023438 11.355469 13.113281 12.351562 13.121094 C 12.472656 13.121094 12.648438 13.121094 12.878906 13.121094 C 13.242188 13.121094 13.71875 13.117188 14.308594 13.113281 C 14.863281 13.109375 15.300781 13.105469 15.625 13.105469 C 16.152344 13.105469 16.71875 13.113281 17.335938 13.121094 L 17.359375 13.121094 C 17.691406 13.109375 18.046875 12.96875 18.425781 12.699219 C 18.808594 12.429688 19.058594 12.140625 19.175781 11.832031 C 19.25 11.632812 19.289062 11.445312 19.289062 11.265625 C 19.289062 10.800781 19.054688 10.507812 18.589844 10.378906 M 8.984375 14.183594 C 9.492188 14.183594 9.90625 14.597656 9.90625 15.105469 C 9.90625 15.613281 9.492188 16.027344 8.984375 16.027344 C 8.476562 16.027344 8.0625 15.613281 8.0625 15.105469 C 8.0625 14.597656 8.476562 14.183594 8.984375 14.183594 M 8.984375 13.679688 C 9.769531 13.679688 10.40625 14.320312 10.40625 15.105469 C 10.40625 15.890625 9.769531 16.527344 8.984375 16.527344 C 8.199219 16.527344 7.5625 15.890625 7.5625 15.105469 C 7.5625 14.320312 8.199219 13.679688 8.984375 13.679688 M 12.375 14.183594 C 12.882812 14.183594 13.296875 14.597656 13.296875 15.105469 C 13.296875 15.613281 12.882812 16.027344 12.375 16.027344 C 11.863281 16.027344 11.453125 15.613281 11.453125 15.105469 C 11.453125 14.597656 11.863281 14.183594 12.375 14.183594 M 12.375 13.679688 C 13.160156 13.679688 13.796875 14.320312 13.796875 15.105469 C 13.796875 15.890625 13.160156 16.527344 12.375 16.527344 C 11.585938 16.527344 10.949219 15.890625 10.949219 15.105469 C 10.949219 14.320312 11.585938 13.679688 12.375 13.679688 M 15.769531 14.183594 C 16.277344 14.183594 16.691406 14.597656 16.691406 15.105469 C 16.691406 15.613281 16.277344 16.027344 15.769531 16.027344 C 15.261719 16.027344 14.847656 15.613281 14.847656 15.105469 C 14.847656 14.597656 15.261719 14.183594 15.769531 14.183594 M 15.769531 13.679688 C 16.554688 13.679688 17.191406 14.320312 17.191406 15.105469 C 17.191406 15.890625 16.554688 16.527344 15.769531 16.527344 C 14.980469 16.527344 14.34375 15.890625 14.34375 15.105469 C 14.34375 14.320312 14.980469 13.679688 15.769531 13.679688 M 19.164062 14.183594 C 19.671875 14.183594 20.085938 14.597656 20.085938 15.105469 C 20.085938 15.613281 19.671875 16.027344 19.164062 16.027344 C 18.65625 16.027344 18.242188 15.613281 18.242188 15.105469 C 18.242188 14.597656 18.65625 14.183594 19.164062 14.183594 M 19.164062 13.679688 C 19.949219 13.679688 20.585938 14.320312 20.585938 15.105469 C 20.585938 15.890625 19.949219 16.527344 19.164062 16.527344 C 18.375 16.527344 17.738281 15.890625 17.738281 15.105469 C 17.738281 14.320312 18.375 13.679688 19.164062 13.679688 "
           id="path6023" />
        <path
           style=" stroke:none;fill-rule:nonzero;fill:rgb(13.729858%,12.159729%,12.548828%);fill-opacity:1;"
           d="M 0.34375 0.351562 L 72.613281 0.351562 L 85.382812 10.984375 L 72.613281 21.613281 L 0.34375 21.613281 L 0.34375 0.351562 M 0.484375 0.496094 L 0.484375 21.472656 L 72.5625 21.472656 L 85.160156 10.984375 L 72.5625 0.496094 L 0.484375 0.496094 "
           id="path6025" />
      </g>
      <path
         id="rect1240"
         style="fill:#ffffff;fill-opacity:1;stroke-width:1.3;stroke-linecap:square"
         d="m 15.086793,5.2752096 c -0.253905,0 -0.632811,0.07471 -1.136716,0.227051 -0.445311,0.128906 -0.765623,0.194824 -0.960935,0.194824 -0.179688,0 -0.340332,-0.04248 -0.473143,-0.124512 -0.05859,-0.03516 -0.117187,-0.05908 -0.175781,-0.07471 l -0.124512,-0.02783 -0.121581,0.03223 c -0.160156,0.04297 -0.304687,0.15918 -0.433593,0.354493 -0.08594,0.136719 -0.163086,0.313477 -0.237304,0.524414 -0.117187,0.332032 -0.188475,0.60498 -0.208007,0.815918 v 0.01611 c -0.04687,0.61328 -0.167479,1.139648 -0.370605,1.5732428 C 10.72743,9.0403472 10.527722,9.341618 10.254286,9.6931808 9.9652229,10.06037 9.7865131,10.361151 9.7122939,10.595526 c -0.1562498,0.472656 -0.234375,0.854981 -0.234375,1.144043 0,0.261719 0.06201,0.488769 0.1831057,0.672363 0.1210928,0.1875 0.3085933,0.331544 0.5624994,0.440918 0.414062,0.171876 1.117673,0.265625 2.113764,0.269531 h 0.527342 c 0.36328,0 0.839843,9.68e-4 1.429684,-0.0029 0.554687,-0.0039 0.99121,-0.0088 1.315428,-0.0088 0.527343,0 1.097657,0.0039 1.710938,0.01172 h 0.02344 c 0.332032,-0.01172 0.687499,-0.147461 1.066407,-0.413086 0.382812,-0.269531 0.632811,-0.555175 0.75,-0.859863 0.07422,-0.195312 0.114257,-0.382324 0.114257,-0.558105 0,-0.460937 -0.230957,-0.753907 -0.6958,-0.878907 C 18.489144,10.389 18.312869,10.34115 18.035527,10.274745 17.098027,10.040369 16.426151,9.8377332 16.019902,9.6580448 15.390994,9.38458 15.079471,9.0960316 15.079471,8.7952498 c 0,-0.06641 0.01123,-0.1367194 0.04248,-0.2109388 0.339844,-0.8984374 0.660645,-1.7314464 0.953613,-2.4931644 l 0.152344,-0.398437 -0.372069,-0.218262 c -0.226563,-0.132812 -0.483888,-0.199219 -0.769044,-0.199219 z m 0,0.508301 c 0.191406,0 0.362792,0.04297 0.511231,0.128906 -0.300782,0.777344 -0.616701,1.605469 -0.956543,2.496094 -0.05078,0.1328124 -0.07471,0.2617188 -0.07471,0.3867192 0,0.5234382 0.41455,0.9638694 1.246582,1.3271522 0.433593,0.1875 1.132811,0.40332 2.097656,0.641601 0.25,0.0625 0.425782,0.108891 0.527344,0.136231 0.214843,0.05859 0.323731,0.187989 0.323731,0.391113 0,0.113282 -0.02686,0.241211 -0.07764,0.37793 l -0.0044,0.0044 c -0.07813,0.207031 -0.265625,0.414551 -0.5625,0.625488 -0.296875,0.207031 -0.562011,0.311536 -0.792481,0.319336 -0.617187,-0.0078 -1.187989,-0.01172 -1.715332,-0.01172 -0.324219,0 -0.765625,0.0049 -1.324217,0.0088 -0.585936,0.0039 -1.062009,0.0073 -1.425289,0.0073 -0.171876,0 -0.347167,-4.95e-4 -0.522948,-0.0044 -0.925802,-0.0039 -1.563008,-0.08153 -1.914569,-0.229963 -0.156249,-0.06641 -0.269038,-0.147948 -0.335449,-0.253417 -0.06641,-0.09766 -0.09814,-0.231445 -0.09814,-0.395508 0,-0.234375 0.06592,-0.56543 0.2065431,-0.987305 0.0586,-0.179688 0.210936,-0.430664 0.45703,-0.74707 0.300784,-0.3828132 0.519534,-0.718753 0.656252,-1.0078158 0.226562,-0.4921892 0.363769,-1.0737326 0.414549,-1.7534196 0.01562,-0.171876 0.07471,-0.401855 0.180175,-0.69873 0.0586,-0.171875 0.12109,-0.312988 0.1875,-0.414551 0.05468,-0.08594 0.09766,-0.132815 0.128905,-0.140625 0.0039,0.0039 0.01172,0.0078 0.02344,0.01172 0.214844,0.132812 0.464355,0.203613 0.745604,0.203613 0.242186,0 0.613769,-0.0752 1.105954,-0.219727 0.453125,-0.136719 0.784666,-0.202148 0.991697,-0.202148 z M 8.9696184,13.677558 c -0.7890623,0 -1.4252932,0.6333 -1.4252932,1.410644 0,0.777343 0.6362309,1.40625 1.4252932,1.40625 0.785157,0 1.4223616,-0.628907 1.4223616,-1.40625 0,-0.777344 -0.6372046,-1.410644 -1.4223616,-1.410644 z m 3.3911066,0 c -0.789061,0 -1.426753,0.6333 -1.426753,1.410644 0,0.777343 0.637692,1.40625 1.426753,1.40625 0.785155,0 1.420896,-0.628907 1.420896,-1.40625 0,-0.777344 -0.635741,-1.410644 -1.420896,-1.410644 z m 3.394037,0 c -0.789063,0 -1.425292,0.6333 -1.425292,1.410644 0,0.777343 0.636229,1.40625 1.425292,1.40625 0.785156,0 1.422363,-0.628907 1.422363,-1.40625 0,-0.777344 -0.637207,-1.410644 -1.422363,-1.410644 z m 3.394043,0 c -0.785156,0 -1.425293,0.6333 -1.425293,1.410644 0,0.777343 0.640137,1.40625 1.425293,1.40625 0.785155,0 1.426757,-0.628907 1.426757,-1.40625 0,-0.777344 -0.641602,-1.410644 -1.426757,-1.410644 z M 8.9696184,14.177069 c 0.507813,0 0.9213873,0.407226 0.9213873,0.911133 0,0.503906 -0.4135743,0.909668 -0.9213873,0.909668 -0.5078123,0 -0.921387,-0.405762 -0.921387,-0.909668 0,-0.503907 0.4135747,-0.911133 0.921387,-0.911133 z m 3.3911066,0 c 0.507811,0 0.921385,0.407226 0.921385,0.911133 0,0.503906 -0.413574,0.909668 -0.921385,0.909668 -0.511718,0 -0.922848,-0.405762 -0.922848,-0.909668 0,-0.503907 0.41113,-0.911133 0.922848,-0.911133 z m 3.394037,0 c 0.507812,0 0.921387,0.407226 0.921387,0.911133 0,0.503906 -0.413575,0.909668 -0.921387,0.909668 -0.507813,0 -0.921387,-0.405762 -0.921387,-0.909668 0,-0.503907 0.413574,-0.911133 0.921387,-0.911133 z m 3.394043,0 c 0.507812,0 0.922851,0.407226 0.922851,0.911133 0,0.503906 -0.415039,0.909668 -0.922851,0.909668 -0.507812,0 -0.921387,-0.405762 -0.921387,-0.909668 0,-0.503907 0.413575,-0.911133 0.921387,-0.911133 z" />
      <path
         d="M 62.353867,6.9248734 H 61.111679 V 5.7822952 h 1.242188 z m -0.07031,7.6406246 H 61.181992 V 8.0205765 h 1.101562 z"
         style="font-style:normal;-inkscape-font-specification:sans-serif"
         id="path12227" />
    </g>
  </g>
</svg>
