<?xml version="1.0" encoding="UTF-8" standalone="no"?>
<!-- Created with Inkscape (http://www.inkscape.org/) -->

<svg
   width="68.000084mm"
   height="11.499999mm"
   viewBox="0 0 68.000085 11.499999"
   version="1.1"
   id="svg1"
   xml:space="preserve"
   xmlns="http://www.w3.org/2000/svg"
   xmlns:svg="http://www.w3.org/2000/svg"><defs
     id="defs1"><rect
       x="121.1518"
       y="511.35498"
       width="77.411278"
       height="16.67804"
       id="rect71" /><rect
       x="121.1518"
       y="511.35498"
       width="77.411278"
       height="16.67804"
       id="rect71-0" /><rect
       x="121.1518"
       y="511.35498"
       width="77.411278"
       height="16.67804"
       id="rect71-05" /><rect
       x="121.1518"
       y="511.35498"
       width="77.411278"
       height="16.67804"
       id="rect71-0-7" /><rect
       x="121.1518"
       y="511.35498"
       width="77.411278"
       height="16.67804"
       id="rect71-05-9" /><rect
       x="121.1518"
       y="511.35498"
       width="77.411278"
       height="16.67804"
       id="rect71-05-9-4" /><rect
       x="121.1518"
       y="511.35498"
       width="77.411278"
       height="16.67804"
       id="rect71-0-7-9" /><rect
       x="121.1518"
       y="511.35498"
       width="77.411278"
       height="16.67804"
       id="rect71-0-7-9-7" /><rect
       x="121.1518"
       y="511.35498"
       width="77.411278"
       height="16.67804"
       id="rect71-4" /><rect
       x="121.1518"
       y="511.35498"
       width="77.411278"
       height="16.67804"
       id="rect71-0-0" /></defs><path
     style="fill:#ffffff;fill-opacity:1;stroke:#000000;stroke-width:0.101149;stroke-linecap:butt;stroke-linejoin:miter;stroke-dasharray:none;stroke-opacity:1"
     d="M 67.949508,0.0505745 V 11.449425 H 7.0119328 L 0.07995276,5.8214045 7.1043628,0.0505745 Z"
     id="path1" /><path
     style="fill:#c90b1c;fill-opacity:1"
     d="m 67.283717,5.7503995 v -4.826 H 41.139353 7.9369818 l -2.582769,2.41096 -2.493347,2.41096 2.433378,2.41165 2.5228,2.4116305 33.2623402,0.003 26.204333,0.003 z"
     id="path38" /><path
     id="path69-7-3"
     style="fill:#ffffff;fill-opacity:1;fill-rule:nonzero;stroke:none;stroke-width:0.563944"
     d="m 49.475699,2.5713795 v 0.37009 h -0.560088 c -0.110145,0 -0.248929,2.7e-4 -0.323827,0.062 -0.0727,0.0661 -0.09638,0.1498 -0.127218,0.25113 l -0.123913,0.40561 h 3.350618 l 0.117304,-0.34365 -0.528697,-0.12805 v -0.24699 h 1.189569 v 0.37504 h -0.286653 l -0.125566,0.34365 0.641045,1.55966 c 0.15861,-0.0418 0.328509,-0.0752 0.498133,-0.0752 1.048582,0 1.8967,0.8484 1.8967,1.89257 0,1.04638 -0.848118,1.89175 -1.8967,1.89175 -0.92522,0 -1.69844,-0.66307 -1.863658,-1.53983 l -0.412219,-0.002 c -0.09913,0 -0.224696,0 -0.323826,-0.0397 -0.103537,-0.0331 -0.193856,-0.11014 -0.270958,-0.18504 l -2.330397,-2.32875 -0.132174,0.41387 c 0.720349,0.27096 1.249046,0.95194 1.249046,1.76701 0,1.04418 -0.850321,1.8967 -1.8967,1.8967 -1.048583,0 -1.901658,-0.85252 -1.901658,-1.8967 0,-1.04417 0.853075,-1.89422 1.901658,-1.89422 0.103536,0 0.196058,0.0127 0.297391,0.0281 l 0.570002,-1.99998 c 0.03965,-0.13438 0.0928,-0.29766 0.187522,-0.39239 0.110146,-0.11235 0.292711,-0.18505 0.506393,-0.18505 z m 2.096615,1.44318 h -3.330792 l -0.114,0.40065 2.491485,2.51131 z m 0.315566,0.24039 -0.91035,2.75335 h 0.323826 c 0.01101,-0.72696 0.433972,-1.35946 1.044177,-1.66787 z m -4.678969,1.27713 c -0.81948,0 -1.486961,0.66336 -1.486961,1.48283 0,0.81948 0.667481,1.48283 1.486961,1.48283 0.821683,0 1.48696,-0.66335 1.48696,-1.48283 0,-0.62342 -0.388262,-1.159 -0.936785,-1.37709 l -0.398175,1.43409 c -0.02203,0.0771 -0.09693,0.18312 -0.251131,0.14126 -0.152,-0.044 -0.139332,-0.17816 -0.117304,-0.24865 l 0.401479,-1.42088 c -0.05948,-0.007 -0.123362,-0.0116 -0.185044,-0.0116 z m 5.980886,0.0223 c -0.12116,0 -0.240392,0.0135 -0.352741,0.0421 l 0.51135,1.26887 c 0.03084,0.0859 0.12529,0.27288 0.05039,0.39405 -0.09032,0.14098 -0.312811,0.13217 -0.456001,0.13217 l -1.198655,0.002 c 0.160813,0.64766 0.747336,1.12761 1.445656,1.12761 0.819481,0 1.486961,-0.665 1.486961,-1.48448 0,-0.81728 -0.66748,-1.48284 -1.486961,-1.48284 z m -0.700524,0.17183 c -0.467016,0.25333 -0.779828,0.71814 -0.779828,1.28209 h 1.286221 z" /><path
     style="font-size:12.005px;line-height:1.25;font-family:Geneva;-inkscape-font-specification:Geneva;text-align:center;letter-spacing:0.542724px;baseline-shift:baseline;white-space:pre;fill:#ffffff;stroke:#ffffff;stroke-width:0.0913428"
     d="m 10.846059,5.6929415 q 0.388034,0.1047978 0.560963,0.3539742 0.175037,0.2468483 0.175037,0.5589058 0,0.2584926 -0.120205,0.4867086 -0.120209,0.22822 -0.341642,0.3656184 -0.221433,0.1350704 -0.765527,0.1350704 H 9.374053 V 3.9789713 h 0.868863 q 0.594706,0 0.797161,0.095478 0.20456,0.09315 0.307896,0.2771249 0.103336,0.1839712 0.103336,0.4075311 0,0.2491804 -0.13075,0.4960288 -0.130754,0.2445203 -0.4745,0.4378074 z M 9.80005,5.550887 h 0.409124 q 0.316332,0 0.472392,-0.09315 0.158164,-0.09315 0.250955,-0.2654806 0.0949,-0.1746551 0.0949,-0.3586303 0,-0.2026036 -0.14762,-0.3469862 Q 10.734286,4.3422574 10.352577,4.3422574 H 9.80005 Z m 0,1.6813696 h 0.601031 q 0.425996,0 0.582056,-0.1746551 0.158164,-0.1769871 0.158164,-0.4168514 0,-0.1932874 -0.101224,-0.3563022 Q 10.93885,6.121437 10.738506,6.0189712 10.540267,5.9141773 10.116382,5.9141773 H 9.80005 Z m 4.05663,-0.3073975 h 0.392251 v 0.023281 q 0,0.172331 -0.124422,0.3516462 -0.124426,0.1793151 -0.328989,0.2724648 -0.20456,0.09315 -0.470281,0.09315 -0.537765,0 -0.830904,-0.3842467 -0.291026,-0.3842468 -0.291026,-0.9710971 0,-0.6008186 0.307899,-0.9943815 0.310008,-0.395891 0.797158,-0.395891 0.267832,0 0.485045,0.1280823 0.217217,0.1280822 0.343751,0.400547 0.126533,0.2701368 0.126533,0.7545213 V 6.347317 h -1.672348 q 0,0.4168514 0.202451,0.6869881 0.204564,0.2701368 0.565184,0.2701368 0.259392,0 0.377489,-0.1094539 Q 13.85668,7.08321 13.85668,6.9481396 Z M 12.616653,6.0212992 h 1.271658 v -0.051233 q 0,-0.1816432 -0.08013,-0.3516422 -0.07803,-0.172331 -0.217216,-0.2538364 -0.139187,-0.083838 -0.324769,-0.083838 -0.219325,0 -0.404908,0.1956155 -0.185582,0.1932913 -0.24463,0.5449335 z m 2.774423,1.5719197 h -0.39225 V 3.8345848 h 0.39225 z m 1.209631,0 H 16.208453 V 3.8345848 h 0.392254 z m 0.817377,-2.6012338 h 0.392254 v 2.6012338 h -0.392254 z m 0,-0.5775341 V 3.9789713 h 0.392254 V 4.414451 Z m 1.601884,3.1787679 H 18.627714 V 4.9919851 h 0.392254 V 5.441437 q 0.124426,-0.2119197 0.240415,-0.3143855 0.118097,-0.1024658 0.244631,-0.1536987 0.128642,-0.053561 0.284698,-0.053561 0.221433,0 0.39647,0.1001377 0.17715,0.1001378 0.274157,0.2957532 0.09701,0.1932874 0.09701,0.621779 V 7.5932189 H 20.165093 V 6.123765 q 0,-0.3493141 -0.04218,-0.4937006 -0.04218,-0.1467106 -0.164492,-0.2282161 -0.122318,-0.083837 -0.265721,-0.083837 -0.172929,0 -0.328989,0.1117819 -0.156056,0.111782 -0.250955,0.3120535 -0.09279,0.2002755 -0.09279,0.5728781 z M 23.192587,7.2322566 V 7.5932189 H 21.277716 V 7.2322566 L 22.675908,5.3529435 H 21.311459 V 4.9919851 h 1.830513 v 0.3609584 l -1.372886,1.8793131 z m 1.734744,0.4331516 q -0.461848,0 -0.788725,-0.3446581 -0.324769,-0.3469861 -0.324769,-1.0293141 0,-0.68 0.324769,-1.024658 0.326877,-0.3469861 0.788725,-0.3469861 0.459735,0 0.784504,0.3469861 0.326881,0.344658 0.326881,1.024658 0,0.682328 -0.326881,1.0293141 -0.324769,0.3446581 -0.784504,0.3446581 z m 0,-0.3609584 q 0.316332,0 0.508243,-0.2771248 0.194015,-0.279449 0.194015,-0.735889 0,-0.454108 -0.194015,-0.7312329 -0.191911,-0.2794529 -0.508243,-0.2794529 -0.318445,0 -0.51246,0.2794529 -0.19191,0.2771249 -0.19191,0.7312329 0,0.45644 0.19191,0.735889 0.194015,0.2771248 0.51246,0.2771248 z m 2.205023,0.2887691 H 26.7401 V 4.9919851 h 0.392254 V 5.441437 Q 27.25678,5.2295173 27.372769,5.1270515 27.490866,5.0245857 27.6174,4.9733528 q 0.128642,-0.053561 0.284702,-0.053561 0.221433,0 0.39647,0.1001377 0.177146,0.1001378 0.274153,0.2957532 0.09701,0.1932874 0.09701,0.621779 V 7.5932189 H 28.277483 V 6.123765 q 0,-0.3493141 -0.04218,-0.4937006 -0.04218,-0.1467106 -0.164492,-0.2282161 -0.122314,-0.083837 -0.265721,-0.083837 -0.172929,0 -0.328985,0.1117819 -0.15606,0.111782 -0.250959,0.3120535 -0.09279,0.2002755 -0.09279,0.5728781 z m 3.776149,0 q -0.06116,-0.2095917 -0.06116,-0.3609623 -0.257284,0.2817809 -0.440758,0.3586303 -0.181366,0.074521 -0.347967,0.074521 -0.280481,0 -0.482937,-0.1886313 -0.200343,-0.1909554 -0.200343,-0.5239693 0,-0.3772626 0.282593,-0.5821942 0.284698,-0.2049316 0.978524,-0.3539703 l 0.210888,-0.044249 V 5.6789692 q 0,-0.2398602 -0.145515,-0.3353419 -0.145511,-0.09781 -0.350075,-0.09781 -0.244631,0 -0.381709,0.1187701 -0.137075,0.1187661 -0.137075,0.2771209 v 0.037265 h -0.425997 v -0.034921 q 0,-0.172331 0.13075,-0.3563023 0.132862,-0.1839752 0.350075,-0.2771248 0.219325,-0.09315 0.478721,-0.09315 0.257284,0 0.468172,0.088494 0.210888,0.088493 0.307896,0.2398602 0.09701,0.1490426 0.09701,0.5635619 v 1.0106858 q 0,0.1653429 0.0063,0.3493142 0.0085,0.1816471 0.07592,0.4238394 z m -0.06116,-1.3134271 -0.118097,0.032617 q -0.596818,0.1606828 -0.763419,0.3050654 -0.166601,0.1443865 -0.166601,0.344658 0,0.1024658 0.0485,0.1909594 0.05061,0.088494 0.147623,0.1373984 0.09701,0.048905 0.191907,0.048905 0.164493,0 0.322661,-0.1047938 0.160276,-0.1071259 0.248847,-0.284113 0.08857,-0.1769831 0.08857,-0.4121912 z"
     id="text71"
     aria-label="Bellinzona" /><path
     style="font-size:12.005px;line-height:1.25;font-family:'Avenir Next';-inkscape-font-specification:'Avenir Next';text-align:center;letter-spacing:0.542724px;white-space:pre;fill:#ffffff;stroke:#ffffff;stroke-width:0.0342217"
     d="M 35.1391,5.1984366 34.197214,7.6939749 H 33.929518 L 34.897846,5.1906623 H 33.751055 V 4.9418859 H 35.1391 Z m 1.92481,1.4965439 h 0.0099 l 0.713862,-0.8201831 h 0.323877 L 37.3316,6.7066435 38.190866,7.6939749 H 37.860379 L 37.073821,6.7377406 h -0.0099 V 7.6939749 H 36.839179 V 4.7553036 h 0.224731 z m 1.824976,-0.5092126 q 0.0661,-0.159374 0.201598,-0.2565506 0.138805,-0.1010654 0.307352,-0.1010654 0.06279,0 0.128891,0.015542 0.0694,0.015542 0.132195,0.062194 0.0661,0.042757 0.118975,0.1166139 0.05618,0.073854 0.09584,0.1904679 0.07932,-0.1865823 0.214817,-0.283759 0.138805,-0.1010654 0.327181,-0.1010654 0.294135,0 0.439549,0.2060163 0.148718,0.2060196 0.148718,0.5441984 V 7.6939684 H 40.779271 V 6.6871998 q 0,-0.2876477 -0.09254,-0.462567 -0.08923,-0.1749226 -0.307351,-0.1749226 -0.122282,0 -0.208208,0.058309 -0.08262,0.058305 -0.135498,0.1554853 -0.04957,0.093291 -0.07271,0.2137906 -0.02312,0.1205027 -0.02312,0.2487764 v 0.9678969 h -0.22473 V 6.6327799 q 0,-0.1321624 -0.01652,-0.2410021 -0.01652,-0.1088397 -0.05949,-0.1826936 -0.03966,-0.077743 -0.112366,-0.1166139 -0.07271,-0.04276 -0.185072,-0.04276 -0.07932,0 -0.16194,0.04276 -0.07932,0.042757 -0.145414,0.1321625 -0.06279,0.085517 -0.10245,0.2215648 -0.03966,0.1321625 -0.03966,0.3148593 V 7.6939684 H 38.667477 V 6.2751639 q 0,-0.073854 -0.0033,-0.1904679 -0.0033,-0.1166139 -0.0099,-0.209905 h 0.214816 q 0.0066,0.073854 0.0099,0.1632595 0.0033,0.089402 0.0033,0.147711 h 0.0066 z"
     id="text71-2"
     aria-label="7 km" /><g
     id="g75-9"
     transform="matrix(0.72533773,0,0,0.72533773,27.913298,-102.50808)"><path
       id="VL_Logo_Route_3_svg__polygon4-9"
       style="fill:#449dd7;stroke-width:0.0532958"
       d="M 53.089924,154.78937 H 42.02038 v -11.06955 h 11.069544 z" /><path
       id="VL_Logo_Route_3_svg__polygon6-9"
       d="m 43.064978,153.00396 h -0.202524 v 0.59691 l -0.229172,-0.59691 h -0.266479 v 0.86339 h 0.202524 v -0.60224 h 0.0053 l 0.218513,0.60224 h 0.271808 z"
       style="stroke-width:0.0532958" /><path
       class="VL_Logo_Route_3_svg__st1"
       d="m 43.411401,153.54758 c 0,-0.0959 0.01066,-0.18654 0.08527,-0.18654 0.07461,0 0.08527,0.0906 0.08527,0.18654 0,0.0959 -0.01066,0.18653 -0.08527,0.18653 -0.06929,0 -0.08527,-0.0959 -0.08527,-0.18653 z m -0.229172,0 c 0,0.17587 0.08527,0.33576 0.319775,0.33576 0.234502,0 0.319775,-0.15989 0.319775,-0.33576 0,-0.17588 -0.08527,-0.3411 -0.319775,-0.3411 -0.234501,0 -0.319775,0.15989 -0.319775,0.3411 z"
       id="VL_Logo_Route_3_svg__path8-6"
       style="clip-rule:evenodd;fill-rule:evenodd;stroke-width:0.0532958" /><path
       d="m 43.928371,153.86735 h 0.223842 v -0.31977 c 0,-0.0853 0.04797,-0.14923 0.122581,-0.14923 0.02665,0 0.05862,0.005 0.06395,0.005 v -0.19187 c -0.01599,0 -0.02132,-0.005 -0.03731,-0.005 -0.106592,0 -0.143899,0.0746 -0.165217,0.12258 0,-0.0373 0,-0.0799 -0.0053,-0.10659 h -0.207854 c 0.0053,0.032 0.0053,0.0959 0.0053,0.18654 z"
       id="VL_Logo_Route_3_svg__path10-1"
       style="stroke-width:0.0532958" /><path
       class="VL_Logo_Route_3_svg__st1"
       d="m 45.020935,152.93467 h -0.223842 v 0.26115 c 0,0.048 0,0.0906 0.0053,0.11725 -0.04797,-0.0746 -0.0906,-0.11192 -0.175877,-0.11192 -0.159887,0 -0.229172,0.17055 -0.229172,0.32511 0,0.19719 0.06929,0.34642 0.239831,0.34642 0.06395,0 0.122581,-0.0266 0.170547,-0.11192 0,0.0373 0.0053,0.0693 0.0053,0.10659 h 0.213183 c 0,-0.0373 -0.0053,-0.0746 -0.0053,-0.11192 z m -0.394389,0.60225 c 0,-0.1066 0.02132,-0.18121 0.08527,-0.18121 0.05329,0 0.08527,0.0746 0.08527,0.18121 0,0.10659 -0.03198,0.1812 -0.08527,0.1812 -0.06395,0.005 -0.08527,-0.0693 -0.08527,-0.1812 z"
       id="VL_Logo_Route_3_svg__path12-7"
       style="clip-rule:evenodd;fill-rule:evenodd;stroke-width:0.0532958" /><path
       id="VL_Logo_Route_3_svg__polygon14-3"
       d="m 45.447302,153.41967 h -0.319775 v 0.17587 h 0.319775 z"
       style="stroke-width:0.0532958" /><path
       d="m 45.559223,153.85136 c 0.04264,0.0107 0.12791,0.032 0.229172,0.032 0.202525,0 0.335764,-0.0959 0.335764,-0.2878 0,-0.12791 -0.06928,-0.1812 -0.143899,-0.21851 l -0.101262,-0.048 c -0.07461,-0.0373 -0.09593,-0.0533 -0.09593,-0.10126 0,-0.0533 0.04264,-0.0799 0.111921,-0.0799 0.06395,0 0.138569,0.0213 0.175876,0.0426 l 0.01066,-0.17054 c -0.06928,-0.0266 -0.149228,-0.0373 -0.218512,-0.0373 -0.181206,0 -0.314446,0.0906 -0.314446,0.25582 0,0.12258 0.04264,0.20252 0.186536,0.25582 l 0.04797,0.0213 c 0.06395,0.0266 0.106591,0.0426 0.106591,0.10126 0,0.0533 -0.03198,0.0906 -0.11725,0.0906 -0.07994,0 -0.165217,-0.0373 -0.191865,-0.0533 z"
       id="VL_Logo_Route_3_svg__path16-9"
       style="stroke-width:0.0532958" /><path
       class="VL_Logo_Route_3_svg__st1"
       d="m 46.342672,153.12121 h 0.154558 v -0.16522 h -0.154558 z m 0.218513,0 h 0.154558 v -0.16522 h -0.154558 z m 0.25582,0.10126 h -0.223843 v 0.37307 c 0,0.048 -0.01599,0.10659 -0.07994,0.10659 -0.04264,0 -0.06395,-0.032 -0.06395,-0.0906 v -0.38906 h -0.223843 v 0.45302 c 0,0.14389 0.08527,0.20785 0.191865,0.20785 0.12791,0 0.170547,-0.0906 0.181206,-0.12258 0,0.0373 0,0.0799 0.0053,0.10659 h 0.207853 c -0.0053,-0.016 -0.0053,-0.0586 -0.0053,-0.10659 v -0.53829 z"
       id="VL_Logo_Route_3_svg__path18-8"
       style="clip-rule:evenodd;fill-rule:evenodd;stroke-width:0.0532958" /><path
       class="VL_Logo_Route_3_svg__st1"
       d="m 47.547158,152.93467 h -0.223843 v 0.26115 c 0,0.048 0,0.0906 0.0053,0.11725 -0.04797,-0.0746 -0.0906,-0.11192 -0.175876,-0.11192 -0.159888,0 -0.229172,0.17055 -0.229172,0.32511 0,0.19719 0.06928,0.34642 0.239831,0.34642 0.06395,0 0.12258,-0.0266 0.170546,-0.11192 0,0.0373 0.0053,0.0693 0.0053,0.10659 h 0.213183 c 0,-0.0373 -0.0053,-0.0746 -0.0053,-0.11192 z m -0.394389,0.60225 c 0,-0.1066 0.02132,-0.18121 0.08527,-0.18121 0.0533,0 0.08527,0.0746 0.08527,0.18121 0,0.10659 -0.03198,0.1812 -0.08527,0.1812 -0.06395,0.005 -0.08527,-0.0693 -0.08527,-0.1812 z"
       id="VL_Logo_Route_3_svg__path20-4"
       style="clip-rule:evenodd;fill-rule:evenodd;stroke-width:0.0532958" /><path
       id="VL_Logo_Route_3_svg__polygon22-0"
       d="m 47.973524,153.41967 h -0.319775 v 0.17587 h 0.319775 z"
       style="stroke-width:0.0532958" /><path
       class="VL_Logo_Route_3_svg__st1"
       d="m 48.319947,153.36104 v -0.19719 h 0.06395 c 0.06929,0 0.09593,0.0426 0.09593,0.10126 0,0.0533 -0.04797,0.0906 -0.09593,0.0906 h -0.06395 z m 0.181206,0.50631 h 0.239831 l -0.07994,-0.27181 c -0.03198,-0.12258 -0.06395,-0.1439 -0.117251,-0.15989 v -0.005 c 0.07461,-0.016 0.165217,-0.0693 0.165217,-0.19719 0,-0.15989 -0.09593,-0.2345 -0.271809,-0.2345 h -0.341093 v 0.86872 h 0.229172 v -0.33576 h 0.01066 c 0.03731,0 0.07461,0.0107 0.09593,0.0906 z"
       id="VL_Logo_Route_3_svg__path24-6"
       style="clip-rule:evenodd;fill-rule:evenodd;stroke-width:0.0532958" /><path
       class="VL_Logo_Route_3_svg__st1"
       d="m 49.028782,153.54758 c 0,-0.0959 0.01066,-0.18654 0.08527,-0.18654 0.07461,0 0.08527,0.0906 0.08527,0.18654 0,0.0959 -0.01066,0.18653 -0.08527,0.18653 -0.07461,0 -0.08527,-0.0959 -0.08527,-0.18653 z m -0.229172,0 c 0,0.17587 0.08527,0.33576 0.319775,0.33576 0.234501,0 0.319775,-0.15989 0.319775,-0.33576 0,-0.17588 -0.08527,-0.3411 -0.319775,-0.3411 -0.234502,0 -0.319775,0.15989 -0.319775,0.3411 z"
       id="VL_Logo_Route_3_svg__path26-3"
       style="clip-rule:evenodd;fill-rule:evenodd;stroke-width:0.0532958" /><path
       d="m 50.121346,153.22247 h -0.223842 v 0.37307 c 0,0.048 -0.01599,0.10659 -0.07994,0.10659 -0.04264,0 -0.06395,-0.032 -0.06395,-0.0906 v -0.38906 h -0.223842 v 0.45302 c 0,0.14389 0.08527,0.20785 0.191865,0.20785 0.12791,0 0.170546,-0.0906 0.181205,-0.12258 0,0.0373 0,0.0799 0.0053,0.10659 h 0.207854 c -0.0053,-0.016 -0.0053,-0.0586 -0.0053,-0.10659 v -0.53829 z"
       id="VL_Logo_Route_3_svg__path28-4"
       style="stroke-width:0.0532958" /><path
       d="m 50.20129,153.3717 h 0.111921 v 0.31977 c 0,0.12258 0.08527,0.19187 0.207854,0.19187 0.06395,0 0.117251,-0.0107 0.143899,-0.016 l -0.0053,-0.14923 c -0.01066,0.005 -0.03198,0.0107 -0.0533,0.0107 -0.03731,0 -0.07461,-0.0213 -0.07461,-0.0799 v -0.27714 h 0.122581 v -0.14923 h -0.122581 v -0.20785 l -0.223842,0.0693 v 0.13857 h -0.111921 v 0.14923 z"
       id="VL_Logo_Route_3_svg__path30-6"
       style="stroke-width:0.0532958" /><path
       class="VL_Logo_Route_3_svg__st1"
       d="m 51.325832,153.6062 v -0.064 c 0,-0.17588 -0.09593,-0.33577 -0.293127,-0.33577 -0.191865,0 -0.298457,0.15989 -0.298457,0.33577 0,0.16521 0.07462,0.34109 0.335764,0.34109 0.0906,0 0.170547,-0.0213 0.223843,-0.0373 l -0.0053,-0.15456 c -0.0533,0.0213 -0.12791,0.0533 -0.186535,0.0533 -0.07994,0 -0.154558,-0.032 -0.159888,-0.13324 h 0.38373 z m -0.394389,-0.11725 c 0,-0.0906 0.03731,-0.1439 0.101262,-0.1439 0.06395,0 0.0906,0.0426 0.0906,0.12791 v 0.016 z"
       id="VL_Logo_Route_3_svg__path32-9"
       style="clip-rule:evenodd;fill-rule:evenodd;stroke-width:0.0532958" /><path
       id="VL_Logo_Route_3_svg__polygon34-7"
       d="m 42.691908,154.06454 h -0.06395 l -0.122581,0.22918 -0.02665,-0.22918 h -0.05862 l 0.03731,0.29846 h 0.06929 z"
       style="stroke-width:0.0532958" /><path
       class="VL_Logo_Route_3_svg__st1"
       d="m 42.862454,154.2724 c 0.0053,-0.016 0.0053,-0.032 0.0053,-0.048 0,-0.0533 -0.03731,-0.0853 -0.0906,-0.0853 -0.06929,0 -0.12258,0.064 -0.12258,0.13324 0,0.064 0.04264,0.0959 0.106591,0.0959 0.02132,0 0.04797,-0.005 0.06929,-0.0107 l 0.0053,-0.0426 c -0.02132,0.0106 -0.04264,0.016 -0.06928,0.016 -0.03731,0 -0.05863,-0.016 -0.05863,-0.0533 h 0.154558 z m -0.143898,-0.0426 c 0.01066,-0.032 0.02665,-0.0533 0.06395,-0.0533 0.02132,0 0.03731,0.0107 0.03731,0.0373 v 0.016 z"
       id="VL_Logo_Route_3_svg__path36-4"
       style="clip-rule:evenodd;fill-rule:evenodd;stroke-width:0.0532958" /><path
       id="VL_Logo_Route_3_svg__polygon38-9"
       d="m 43.011683,154.04323 h -0.05863 l -0.06395,0.31977 h 0.0533 z"
       style="stroke-width:0.0532958" /><path
       class="VL_Logo_Route_3_svg__st1"
       d="m 43.118274,154.32036 c -0.03198,0 -0.04264,-0.0213 -0.04264,-0.0533 0,-0.0373 0.02132,-0.0906 0.06928,-0.0906 0.03198,0 0.04264,0.0213 0.04264,0.0533 -0.0053,0.0426 -0.02665,0.0906 -0.06929,0.0906 z m 0.02665,-0.1812 c -0.07461,0 -0.12791,0.0586 -0.12791,0.12791 0,0.064 0.03731,0.10126 0.101262,0.10126 0.07461,0 0.12791,-0.0586 0.12791,-0.13324 -0.0053,-0.064 -0.04264,-0.0959 -0.101262,-0.0959 z"
       id="VL_Logo_Route_3_svg__path40-4"
       style="clip-rule:evenodd;fill-rule:evenodd;stroke-width:0.0532958" /><path
       id="VL_Logo_Route_3_svg__polygon42-1"
       d="m 43.390083,154.04323 h -0.05862 l -0.06395,0.31977 h 0.0533 z"
       style="stroke-width:0.0532958" /><path
       class="VL_Logo_Route_3_svg__st1"
       d="m 43.517993,154.363 h 0.04797 c 0.0053,-0.0426 0.02665,-0.12791 0.02665,-0.15456 0,-0.0533 -0.04264,-0.0693 -0.08527,-0.0693 -0.02665,0 -0.04797,0.005 -0.07461,0.0107 l -0.01066,0.048 c 0.02132,-0.0106 0.04797,-0.016 0.06928,-0.016 0.02132,0 0.04264,0.005 0.04264,0.0266 v 0.0213 h -0.02132 c -0.0533,0 -0.133239,0.005 -0.133239,0.0799 0,0.0426 0.02665,0.064 0.06928,0.064 0.03198,0 0.0533,-0.016 0.06928,-0.0373 z m -0.07994,-0.0586 c 0,-0.0373 0.04797,-0.0426 0.07461,-0.0426 h 0.02132 c -0.01066,0.0373 -0.02132,0.064 -0.06395,0.064 -0.01599,0 -0.03198,-0.0106 -0.03198,-0.0213 z"
       id="VL_Logo_Route_3_svg__path44-9"
       style="clip-rule:evenodd;fill-rule:evenodd;stroke-width:0.0532958" /><path
       d="m 43.619255,154.363 h 0.05863 l 0.02132,-0.11192 c 0.0053,-0.032 0.02132,-0.0693 0.05862,-0.0693 0.01599,0 0.03198,0.0106 0.03198,0.032 0,0.016 -0.0053,0.032 -0.0053,0.048 l -0.02132,0.10126 h 0.05862 l 0.02132,-0.10659 c 0.0053,-0.016 0.0053,-0.032 0.0053,-0.048 0,-0.0426 -0.02665,-0.0693 -0.06928,-0.0693 -0.02665,0 -0.04797,0.0107 -0.06395,0.0266 l 0.0053,-0.0213 h -0.0533 c 0,0.005 -0.0053,0.016 -0.0053,0.032 z"
       id="VL_Logo_Route_3_svg__path46-6"
       style="stroke-width:0.0532958" /><path
       class="VL_Logo_Route_3_svg__st1"
       d="m 44.093588,154.04323 -0.02665,0.12791 c -0.01599,-0.0213 -0.03731,-0.032 -0.06929,-0.032 -0.07461,0 -0.111921,0.0746 -0.111921,0.13857 0,0.048 0.02132,0.0906 0.07461,0.0906 0.03198,0 0.0533,-0.016 0.06928,-0.0373 l -0.0053,0.032 h 0.0533 c 0,-0.0107 0.0053,-0.032 0.01066,-0.048 l 0.05863,-0.27181 z m -0.08527,0.13857 c 0.02665,0 0.04264,0.0266 0.04264,0.0533 0,0.0426 -0.02665,0.0906 -0.06395,0.0906 -0.02665,0 -0.03731,-0.032 -0.03731,-0.0533 0,-0.032 0.01599,-0.0906 0.05863,-0.0906 z"
       id="VL_Logo_Route_3_svg__path48-7"
       style="clip-rule:evenodd;fill-rule:evenodd;stroke-width:0.0532958" /><path
       d="m 44.482648,154.0752 c -0.02665,-0.0107 -0.0533,-0.0107 -0.07461,-0.0107 -0.05863,0 -0.111921,0.0267 -0.111921,0.0906 0,0.0799 0.101262,0.0693 0.101262,0.12258 0,0.032 -0.02665,0.048 -0.05862,0.048 -0.02665,0 -0.04797,-0.0106 -0.07461,-0.0213 l -0.01599,0.048 c 0.02665,0.0107 0.05862,0.016 0.08527,0.016 0.06395,0 0.122581,-0.0266 0.122581,-0.10126 0,-0.0799 -0.101262,-0.0799 -0.101262,-0.12791 0,-0.0267 0.02665,-0.032 0.04797,-0.032 0.02132,0 0.04264,0.005 0.06395,0.016 z"
       id="VL_Logo_Route_3_svg__path50-0"
       style="stroke-width:0.0532958" /><path
       d="m 44.690501,154.14449 c -0.01599,-0.005 -0.03731,-0.0107 -0.05862,-0.0107 -0.07994,0 -0.12791,0.0586 -0.12791,0.13324 0,0.0586 0.03731,0.0959 0.0906,0.0959 0.02132,0 0.03731,0 0.0533,-0.0107 l 0.0053,-0.0426 c -0.01599,0.005 -0.03198,0.0106 -0.04797,0.0106 -0.03731,0 -0.04797,-0.0266 -0.04797,-0.0586 0,-0.0426 0.02665,-0.0853 0.06928,-0.0853 0.01599,0 0.03198,0.005 0.04264,0.0107 z"
       id="VL_Logo_Route_3_svg__path52-9"
       style="stroke-width:0.0532958" /><path
       d="m 44.685172,154.363 h 0.05862 l 0.02132,-0.11192 c 0.0053,-0.032 0.02132,-0.0693 0.05863,-0.0693 0.01599,0 0.03198,0.0106 0.03198,0.032 0,0.016 -0.0053,0.032 -0.0053,0.048 l -0.02132,0.10126 h 0.05863 l 0.02132,-0.10659 c 0.0053,-0.016 0.0053,-0.032 0.0053,-0.048 0,-0.0426 -0.02665,-0.0693 -0.06929,-0.0693 -0.02665,0 -0.04797,0.0107 -0.06395,0.0266 l 0.02665,-0.12258 h -0.05862 z"
       id="VL_Logo_Route_3_svg__path54-7"
       style="stroke-width:0.0532958" /><path
       id="VL_Logo_Route_3_svg__polygon56-3"
       d="m 45.138186,154.19245 0.01066,0.17055 h 0.06395 l 0.122581,-0.21851 h -0.05863 l -0.08527,0.16522 -0.01066,-0.16522 h -0.06395 l -0.07994,0.16522 -0.01599,-0.16522 h -0.05862 l 0.03198,0.21851 h 0.06395 z"
       style="stroke-width:0.0532958" /><path
       class="VL_Logo_Route_3_svg__st1"
       d="m 45.537905,154.2724 c 0.0053,-0.016 0.0053,-0.032 0.0053,-0.048 0,-0.0533 -0.03731,-0.0853 -0.0906,-0.0853 -0.06929,0 -0.122581,0.064 -0.122581,0.13324 0,0.064 0.04264,0.0959 0.106592,0.0959 0.02132,0 0.04797,-0.005 0.06928,-0.0107 l 0.0053,-0.0426 c -0.02132,0.0106 -0.04264,0.016 -0.06929,0.016 -0.03731,0 -0.05862,-0.016 -0.05862,-0.0533 h 0.154558 z m -0.149228,-0.0426 c 0.01066,-0.032 0.02665,-0.0533 0.06395,-0.0533 0.02132,0 0.03731,0.0107 0.03731,0.0373 v 0.016 z"
       id="VL_Logo_Route_3_svg__path58-1"
       style="clip-rule:evenodd;fill-rule:evenodd;stroke-width:0.0532958" /><path
       class="VL_Logo_Route_3_svg__st1"
       d="m 45.559223,154.363 h 0.05863 l 0.04797,-0.21851 h -0.05862 z m 0.05863,-0.26115 h 0.05862 l 0.01066,-0.0533 h -0.05863 z"
       id="VL_Logo_Route_3_svg__path60-5"
       style="clip-rule:evenodd;fill-rule:evenodd;stroke-width:0.0532958" /><path
       id="VL_Logo_Route_3_svg__polygon62-6"
       d="m 45.703122,154.18713 h 0.101262 l -0.133239,0.12791 -0.01066,0.048 h 0.186536 l 0.0053,-0.048 H 45.74573 l 0.133239,-0.12791 0.01066,-0.0426 h -0.175876 z"
       style="stroke-width:0.0532958" /><path
       id="VL_Logo_Route_3_svg__polygon64-4"
       style="fill:#e41b18;stroke:#e41b18;stroke-width:0;stroke-linecap:square;stroke-miterlimit:2"
       d="m 46.070863,150.16329 -2.254413,-0.5223 0.522299,-2.25441 2.254413,0.5223 z" /><path
       id="VL_Logo_Route_3_svg__polygon66-5"
       style="fill:#ffffff;stroke:#ffffff;stroke-width:0.00530293;stroke-linecap:square;stroke-miterlimit:2"
       d="m 44.418693,148.34057 -0.117251,0.49565 0.580924,0.13324 -0.133239,0.58093 0.490321,0.11192 0.138569,-0.5756 0.570266,0.13324 0.117251,-0.49565 -0.575595,-0.13324 0.133239,-0.58625 -0.490321,-0.11192 -0.13324,0.58092 z" /><path
       d="m 47.664409,148.58573 0.298456,-1.58821 c 0.239831,0.048 0.559606,0.048 0.858063,0.048 0.570265,0 1.710796,-0.0746 1.710796,-1.02861 0,-0.74081 -0.714164,-0.938 -1.353714,-0.938 -0.618231,0 -1.412339,0.18653 -1.892002,0.39972 l 0.207854,-1.7641 h 4.098449 c 0.660869,0.32511 1.145861,0.9007 1.145861,1.81739 0,1.35372 -0.938007,2.15315 -2.185129,2.27573 v 0.0266 c 0.938006,0.22384 1.508272,0.75147 1.508272,1.77475 0,2.17447 -2.04656,2.77672 -3.746697,2.77672 -0.916689,0 -1.939968,-0.17588 -2.664792,-0.54895 l 0.415708,-1.67882 c 0.724823,0.35175 1.364373,0.50098 2.17447,0.50098 0.76213,0 1.604204,-0.27714 1.604204,-1.1885 0,-0.85273 -0.810097,-0.92734 -1.412339,-0.92734 -0.234502,0.005 -0.532959,0.0213 -0.76746,0.0426 z"
       id="VL_Logo_Route_3_svg__path68-1"
       style="fill:#ffffff;stroke-width:0.0532958" /></g><style
     type="text/css"
     id="style2">.VL_Logo_Route_3_svg__st1{fill-rule:evenodd;clip-rule:evenodd}</style></svg>
