<?xml version="1.0" encoding="UTF-8" standalone="no"?>
<svg
   width="77pt"
   height="80pt"
   viewBox="0 0 77 80"
   version="1.1"
   id="svg4410"
   xmlns="http://www.w3.org/2000/svg"
   xmlns:svg="http://www.w3.org/2000/svg"
   xmlns:rdf="http://www.w3.org/1999/02/22-rdf-syntax-ns#"
   xmlns:cc="http://creativecommons.org/ns#"
   xmlns:dc="http://purl.org/dc/elements/1.1/">
  <metadata
     id="metadata4416">
    <rdf:RDF>
      <cc:Work
         rdf:about="">
        <dc:format>image/svg+xml</dc:format>
        <dc:type
           rdf:resource="http://purl.org/dc/dcmitype/StillImage" />
      </cc:Work>
    </rdf:RDF>
  </metadata>
  <defs
     id="defs4414" />
  <rect
     style="opacity:1;fill:#ffffff;fill-opacity:1;stroke:#ffffff;stroke-width:0.0750683;stroke-opacity:1"
     id="rect4981"
     width="77.011688"
     height="79.929344"
     x="0.070622422"
     y="0.070622414" />
  <path
     style="fill:#c90b1c;fill-opacity:1;fill-rule:nonzero;stroke:none"
     d="m 1.53125,40.832031 v 18.1875 h 73.984375 v -18.1875 H 1.53125"
     id="path3" />
  <path
     style="fill:#c90b1c;fill-opacity:1;fill-rule:nonzero;stroke:none"
     d="m 1.53125,60.34375 v 18.1875 H 75.515625 V 60.34375 H 1.53125"
     id="path1" />
  <path
     style="fill:#c90b1c;fill-opacity:1;fill-rule:nonzero;stroke:none"
     d="m 1.53125,1.804688 h 73.984375 v 18.1875 H 1.53125 v -18.1875"
     id="path4407" />
  <path
     id="path42"
     style="fill:#ffffff;fill-opacity:1;fill-rule:nonzero;stroke:none"
     d="M 35.723145 5.9575195 C 35.344239 5.9575195 35.02002 6.0776367 34.820801 6.2651367 C 34.652833 6.4213867 34.554688 6.6958 34.488281 6.918457 L 33.473145 10.246582 C 33.293458 10.219242 33.125 10.199707 32.941406 10.199707 C 31.078125 10.199707 29.562012 11.61377 29.562012 13.352051 C 29.562012 15.090333 31.078125 16.507324 32.941406 16.507324 C 34.804688 16.507324 36.320801 15.090333 36.320801 13.352051 C 36.320801 11.996583 35.378418 10.86377 34.097168 10.410645 L 34.328613 9.7192383 L 38.477051 13.598145 C 38.617677 13.723145 38.772949 13.847168 38.960449 13.905762 C 39.13623 13.972172 39.358887 13.973145 39.534668 13.973145 L 40.272949 13.976074 C 40.565917 15.433106 41.940917 16.539551 43.589355 16.539551 C 45.452636 16.539551 46.964355 15.128418 46.964355 13.390137 C 46.964355 11.651856 45.452636 10.237793 43.589355 10.237793 C 43.280761 10.237793 42.983886 10.29346 42.69873 10.36377 L 41.562012 7.7651367 L 41.781738 7.1953125 L 42.292969 7.1953125 L 42.292969 6.5742188 L 40.171875 6.5742188 L 40.171875 6.9799805 L 41.116699 7.1953125 L 40.905762 7.7651367 L 34.945313 7.7651367 L 35.167969 7.0942383 C 35.218749 6.9262693 35.262208 6.784668 35.39502 6.675293 C 35.527833 6.573731 35.773926 6.5742188 35.969238 6.5742188 L 36.968262 6.5742188 L 36.968262 5.9575195 L 35.723145 5.9575195 z M 34.769531 8.3598633 L 40.694824 8.3598633 L 39 13.207031 L 34.565918 9.027832 L 34.769531 8.3598633 z M 41.257324 8.7583008 L 42.074707 10.565918 C 40.984863 11.077637 40.233885 12.128418 40.214355 13.343262 L 39.640137 13.343262 L 41.257324 8.7583008 z M 32.934082 10.886719 C 33.043457 10.886719 33.152832 10.890132 33.262207 10.905762 L 32.547363 13.27002 C 32.5083 13.387208 32.484864 13.609866 32.758301 13.680176 C 33.027833 13.754394 33.160643 13.577636 33.203613 13.44873 L 33.909668 11.058105 C 34.886231 11.421386 35.578125 12.312989 35.578125 13.352051 C 35.578125 14.715333 34.391113 15.820313 32.934082 15.820313 C 31.473144 15.820313 30.285645 14.715333 30.285645 13.352051 C 30.285645 11.98877 31.473144 10.886719 32.934082 10.886719 z M 43.574707 10.91748 C 45.031738 10.91748 46.21875 12.026856 46.21875 13.390137 C 46.21875 14.753418 45.031738 15.859863 43.574707 15.859863 C 42.332519 15.859863 41.289062 15.058594 41.003906 13.980469 L 43.132324 13.976074 C 43.394043 13.976074 43.785644 13.996095 43.949707 13.757813 C 44.082523 13.554688 43.913577 13.246095 43.858887 13.101563 L 42.949219 10.987793 C 43.148438 10.944823 43.359863 10.91748 43.574707 10.91748 z M 42.328125 11.20752 L 43.226074 13.343262 L 40.940918 13.343262 C 40.940918 12.401856 41.496094 11.629395 42.328125 11.20752 z " />
  <path
     style="fill:#c90b1c;fill-opacity:1;fill-rule:nonzero;stroke:none"
     d="M 1.53125,21.300781 V 39.496094 H 75.515625 V 21.300781 H 1.53125"
     id="path2" />
  <path
     style="fill:#ffffff;fill-opacity:1;fill-rule:nonzero;stroke:none"
     d="m 9.832031,37.015625 h 3.800781 L 13.125,30.15625 17.546875,31.1875 c 0.03906,0.01172 0.08203,0.01563 0.125,0.01563 0.28125,0 0.503906,-0.214844 0.503906,-0.476563 0,-0.117187 -0.04297,-0.222656 -0.121093,-0.304687 l -5.9375,-6.46875 c -0.09375,-0.101563 -0.230469,-0.167969 -0.386719,-0.167969 -0.152344,0 -0.292969,0.06641 -0.386719,0.167969 l -5.9375,6.46875 c -0.074219,0.08203 -0.121094,0.1875 -0.121094,0.304687 0,0.261719 0.226563,0.476563 0.507813,0.476563 0.039062,0 0.082031,-0.0078 0.121093,-0.01563 l 4.421876,-1.03125 -0.503907,6.859375"
     id="path43" />
  <path
     id="path13"
     style="fill:#ffffff;fill-opacity:1;fill-rule:nonzero;stroke:none"
     d="M 43.863281 25.54248 L 43.863281 28.886719 L 43.855957 28.886719 C 43.680175 28.632805 43.464355 28.441895 43.214355 28.316895 C 42.960449 28.180177 42.64795 28.113281 42.253418 28.113281 C 41.593262 28.125001 41.08545 28.374511 40.706543 28.870605 C 40.327637 29.374511 40.137208 30.105958 40.129395 31.070801 C 40.137195 31.977051 40.316406 32.694824 40.6875 33.218262 C 41.046875 33.7417 41.577636 34.011719 42.276855 34.019531 C 42.726073 34.011731 43.081543 33.937989 43.331543 33.777832 C 43.58545 33.625488 43.77295 33.421875 43.905762 33.1875 L 43.92627 33.1875 C 43.92627 33.304688 43.925783 33.44873 43.945313 33.616699 C 43.953113 33.776855 43.96484 33.886231 43.96875 33.944824 L 45.156738 33.944824 C 45.133298 33.651856 45.112793 33.316406 45.112793 32.917969 L 45.112793 25.54248 L 43.863281 25.54248 z M 27.719238 26.125488 L 27.719238 33.944824 L 30.007324 33.944824 C 30.83545 33.925294 31.47998 33.723145 31.929199 33.320801 C 32.382323 32.930177 32.613281 32.40625 32.613281 31.769531 C 32.613281 31.367188 32.53564 31.030762 32.383301 30.769043 C 32.23877 30.499512 32.039062 30.288573 31.804688 30.147949 C 31.566406 29.995605 31.312012 29.90625 31.050293 29.859375 L 31.050293 29.843262 C 31.409668 29.7417 31.72705 29.551269 31.996582 29.266113 C 32.273926 28.988769 32.418457 28.585449 32.430176 28.07373 C 32.430176 27.452636 32.238281 26.964844 31.839844 26.636719 C 31.445312 26.300786 30.83545 26.125488 30.007324 26.125488 L 27.719238 26.125488 z M 28.999512 27.054199 L 29.772949 27.054199 C 30.237792 27.054199 30.581543 27.164062 30.815918 27.375 C 31.042481 27.585938 31.155762 27.859863 31.155762 28.199707 C 31.155762 28.566894 31.031739 28.871094 30.789551 29.097656 C 30.547364 29.324219 30.187988 29.441419 29.699707 29.449219 L 28.999512 29.449219 L 28.999512 27.054199 z M 55.530762 28.097168 C 54.800293 28.081538 54.273437 28.358886 53.929688 28.91748 L 53.913574 28.91748 C 53.913574 28.83545 53.902341 28.711427 53.894531 28.55127 C 53.878901 28.383301 53.866699 28.257812 53.866699 28.171875 L 52.691895 28.171875 C 52.715335 28.515625 52.733889 28.878906 52.741699 29.273438 L 52.741699 33.918457 L 53.983887 33.918457 L 53.983887 30.515625 C 53.983887 30.0625 54.082035 29.718262 54.28125 29.456543 C 54.476562 29.206543 54.777344 29.069824 55.160156 29.069824 C 55.480469 29.065924 55.714844 29.163574 55.863281 29.374512 C 56.007812 29.573731 56.090332 29.905762 56.090332 30.347168 L 56.090332 33.918457 L 57.33252 33.918457 L 57.33252 30.077637 C 57.34032 29.468262 57.187011 28.98877 56.901855 28.633301 C 56.601073 28.281739 56.151856 28.104981 55.530762 28.097168 z M 49.000488 28.105957 C 48.219238 28.125487 47.613769 28.398438 47.184082 28.945313 C 46.7583 29.484376 46.542969 30.206543 46.535156 31.097168 C 46.535156 31.667481 46.632327 32.159668 46.82373 32.597168 C 47.022949 33.034668 47.315917 33.382812 47.714355 33.632813 C 48.101073 33.875 48.605957 34.004394 49.199707 34.012207 C 49.578613 34.012207 49.917481 33.968749 50.222168 33.902344 C 50.519043 33.835934 50.773926 33.75 50.980957 33.667969 L 50.913574 32.695313 C 50.765137 32.800782 50.554199 32.902833 50.304199 33.004395 C 50.062011 33.098145 49.757812 33.147949 49.40625 33.147949 C 48.839844 33.147949 48.425293 33.004394 48.159668 32.699707 C 47.909668 32.406738 47.776856 31.968262 47.784668 31.390137 L 51.304688 31.390137 L 51.304688 30.996094 C 51.285158 29.996094 51.069824 29.266113 50.655762 28.797363 C 50.2417 28.332519 49.684082 28.105957 49.000488 28.105957 z M 36.405762 28.113281 C 36.007324 28.125001 35.655762 28.16455 35.351074 28.258301 C 35.042481 28.344241 34.773927 28.440918 34.55127 28.565918 L 34.647949 29.559082 C 34.808105 29.406738 35.042969 29.280762 35.332031 29.163574 C 35.613281 29.0542 35.937011 28.995606 36.276855 28.987793 C 36.710449 28.987793 37.023926 29.105957 37.234863 29.324707 C 37.41455 29.551269 37.4917 29.836427 37.483887 30.191895 L 37.483887 30.42627 L 37.035645 30.42627 C 36.035645 30.42627 35.277345 30.578614 34.757813 30.89502 C 34.246095 31.203614 33.984864 31.691895 33.977051 32.348145 C 33.992681 32.89502 34.164551 33.316894 34.504395 33.590332 C 34.848145 33.875488 35.273438 34.019531 35.777344 34.019531 C 36.226562 34.019531 36.593262 33.9458 36.862793 33.80127 C 37.144043 33.656739 37.358887 33.472656 37.519043 33.246094 L 37.527832 33.246094 C 37.527832 33.332034 37.539065 33.456542 37.546875 33.60498 C 37.562505 33.757323 37.582525 33.874512 37.598145 33.944824 L 38.726074 33.944824 C 38.706544 33.83545 38.690909 33.690917 38.679199 33.522949 C 38.659669 33.35498 38.655762 33.1792 38.655762 32.983887 L 38.655762 30.257813 C 38.655762 29.878907 38.604981 29.558105 38.526855 29.304199 C 38.437015 29.054199 38.320312 28.847167 38.167969 28.683105 C 38.023438 28.534667 37.816894 28.410644 37.527832 28.293457 C 37.234863 28.180176 36.862793 28.125 36.405762 28.113281 z M 48.965332 28.937988 C 49.703613 28.937988 50.081543 29.4917 50.081543 30.593262 L 47.784668 30.593262 C 47.796387 30.062012 47.902832 29.659668 48.109863 29.374512 C 48.316894 29.089356 48.605957 28.937988 48.965332 28.937988 z M 42.61377 29.003906 C 43.05127 29.003906 43.3667 29.187012 43.565918 29.550293 C 43.765133 29.909668 43.863281 30.413574 43.863281 31.062012 C 43.863281 31.702637 43.77295 32.206542 43.565918 32.57373 C 43.3667 32.944823 43.043458 33.12843 42.602051 33.13623 C 42.152833 33.13623 41.839844 32.96045 41.648438 32.608887 C 41.468746 32.257324 41.371106 31.734864 41.378906 31.035645 C 41.378906 30.391114 41.468261 29.887208 41.66748 29.535645 C 41.862792 29.184083 42.180177 29.003906 42.61377 29.003906 z M 28.999512 30.382324 L 29.910645 30.382324 C 30.402833 30.390137 30.754395 30.515625 30.98877 30.761719 C 31.211427 31.003906 31.331544 31.316895 31.319824 31.691895 C 31.319824 32.070801 31.203125 32.375488 30.960938 32.617676 C 30.71875 32.859863 30.359375 32.979987 29.871094 32.983887 L 28.999512 32.983887 L 28.999512 30.382324 z M 37.059082 31.132324 L 37.293457 31.132324 C 37.375488 31.132324 37.429197 31.136719 37.483887 31.136719 L 37.483887 31.640625 C 37.472168 32.105469 37.367188 32.472167 37.148438 32.76123 C 36.92578 33.034667 36.601074 33.1797 36.159668 33.1875 C 35.83545 33.1875 35.593261 33.101562 35.433105 32.929688 C 35.261229 32.761718 35.179688 32.530761 35.179688 32.245605 C 35.187499 31.499511 35.8208 31.132324 37.059082 31.132324 z " />
  <path
     style="fill:#ffffff;fill-opacity:1;fill-rule:nonzero;stroke:none"
     d="m 18.175781,51.699219 v -3.550781 l -7.347656,0.472656 1.105469,-4.128906 c 0.01172,-0.03516 0.01563,-0.07422 0.01563,-0.113282 0,-0.261718 -0.226563,-0.476562 -0.503907,-0.476562 -0.125,0 -0.242187,0.04687 -0.332031,0.117187 L 4.1875,49.5625 c -0.109375,0.08984 -0.179688,0.21875 -0.179688,0.359375 0,0.144531 0.070313,0.273437 0.179688,0.359375 l 6.925781,5.546875 c 0.08984,0.07031 0.207031,0.113281 0.332031,0.113281 0.277344,0 0.503907,-0.210937 0.503907,-0.472656 0,-0.03906 -0.0039,-0.07813 -0.01563,-0.117188 l -1.105469,-4.128906 7.347656,0.476563"
     id="path44" />
  <path
     id="path25"
     style="fill:#ffffff;fill-opacity:1;fill-rule:nonzero;stroke:none"
     d="M 61.668457 45.41748 L 61.668457 53.816895 L 62.917969 53.816895 L 62.917969 45.41748 L 61.668457 45.41748 z M 58.437012 45.667969 L 58.437012 46.914551 L 59.76123 46.914551 L 59.76123 45.667969 L 58.437012 45.667969 z M 35.737793 45.820313 L 35.737793 46.996582 L 36.789551 46.996582 L 36.789551 45.820313 L 35.737793 45.820313 z M 37.706543 45.820313 L 37.706543 46.996582 L 38.76123 46.996582 L 38.76123 45.820313 L 37.706543 45.820313 z M 27.632813 46.000488 L 27.632813 53.816895 L 29.367188 53.816895 C 30.738281 53.801265 31.769531 53.448731 32.472656 52.753418 C 33.164062 52.046387 33.515625 51.077636 33.515625 49.835449 C 33.507825 48.987792 33.362793 48.300292 33.065918 47.76123 C 32.776856 47.226073 32.397949 46.82373 31.929199 46.54248 C 31.659667 46.374511 31.339356 46.242676 30.968262 46.152832 C 30.597168 46.047363 30.148927 46.000488 29.629395 46.000488 L 27.632813 46.000488 z M 42.862793 46.54248 L 41.620605 46.894043 L 41.620605 48.074707 L 40.633301 48.074707 L 40.633301 48.965332 L 41.620605 48.965332 L 41.620605 52.382813 C 41.620605 52.925782 41.7583 53.324707 42.027832 53.559082 C 42.297363 53.785644 42.684082 53.902344 43.187988 53.894531 C 43.566894 53.886731 43.871583 53.827633 44.11377 53.726074 L 44.11377 52.851563 C 43.965333 52.925783 43.765625 52.976074 43.511719 52.987793 C 43.296875 52.991693 43.124511 52.925293 43.026855 52.800293 C 42.91748 52.675293 42.862793 52.457031 42.862793 52.148438 L 42.862793 48.965332 L 44.11377 48.965332 L 44.11377 48.074707 L 42.862793 48.074707 L 42.862793 46.54248 z M 47.058105 46.54248 L 45.804199 46.894043 L 45.804199 48.074707 L 44.828613 48.074707 L 44.828613 48.965332 L 45.804199 48.965332 L 45.804199 52.382813 C 45.804199 52.925782 45.941894 53.324707 46.211426 53.559082 C 46.480957 53.785644 46.867677 53.902344 47.383301 53.894531 C 47.750489 53.886731 48.065918 53.827633 48.300293 53.726074 L 48.300293 52.851563 C 48.155762 52.925783 47.945312 52.976074 47.707031 52.987793 C 47.476562 52.991693 47.315917 52.925293 47.210449 52.800293 C 47.101073 52.675293 47.058105 52.457031 47.058105 52.148438 L 47.058105 48.965332 L 48.300293 48.965332 L 48.300293 48.074707 L 47.058105 48.074707 L 47.058105 46.54248 z M 28.92627 46.973145 L 29.503418 46.973145 C 30.132324 46.980958 30.636719 47.097656 31.03125 47.34375 C 31.421875 47.585938 31.707031 47.930176 31.886719 48.355957 C 32.070308 48.78955 32.156726 49.280761 32.148926 49.835449 C 32.156738 50.776855 31.929688 51.512208 31.5 52.035645 C 31.058594 52.566895 30.394043 52.836438 29.503418 52.844238 L 28.92627 52.844238 L 28.92627 46.973145 z M 37.16748 47.988281 C 36.780761 47.996081 36.4292 48.03955 36.124512 48.133301 C 35.819824 48.219241 35.546387 48.315918 35.315918 48.440918 L 35.414063 49.434082 C 35.585939 49.281738 35.812989 49.155762 36.098145 49.038574 C 36.387208 48.9292 36.699219 48.871582 37.042969 48.859863 C 37.472656 48.859863 37.78955 48.980957 37.996582 49.199707 C 38.176269 49.426269 38.257323 49.711427 38.245605 50.066895 L 38.245605 50.30127 L 37.797363 50.30127 C 36.801269 50.30127 36.043457 50.453614 35.523926 50.77002 C 35.0083 51.078614 34.750489 51.566895 34.73877 52.223145 C 34.7583 52.77002 34.9375 53.191894 35.273438 53.465332 C 35.613281 53.750488 36.035157 53.894531 36.539063 53.894531 C 37.000001 53.894531 37.358886 53.81689 37.63623 53.67627 C 37.905761 53.531739 38.121094 53.347656 38.285156 53.121094 L 38.29248 53.121094 C 38.29248 53.207034 38.300773 53.331542 38.320313 53.47998 C 38.332033 53.632323 38.347648 53.750489 38.367188 53.816895 L 39.487793 53.816895 C 39.468263 53.711427 39.464843 53.565917 39.445313 53.397949 C 39.425783 53.22998 39.42529 53.0542 39.41748 52.858887 L 39.41748 50.132813 C 39.41748 49.753907 39.382321 49.433105 39.288574 49.179199 C 39.210454 48.929199 39.085938 48.718261 38.929688 48.558105 C 38.796875 48.405761 38.581542 48.281251 38.29248 48.164063 C 38.007323 48.054689 37.628417 47.996094 37.16748 47.988281 z M 48.89502 48.074707 L 50.538574 53.816895 L 51.921387 53.816895 L 53.055176 49.155762 L 53.074219 49.155762 L 54.28125 53.816895 L 55.659668 53.816895 L 57.276855 48.074707 L 56.055176 48.074707 L 54.97998 52.710938 L 54.965332 52.710938 L 53.847656 48.074707 L 52.390137 48.074707 L 51.292969 52.710938 L 51.269531 52.710938 L 50.187012 48.074707 L 48.89502 48.074707 z M 58.472168 48.074707 L 58.472168 53.816895 L 59.726074 53.816895 L 59.726074 48.074707 L 58.472168 48.074707 z M 37.828125 51.004395 L 38.058105 51.004395 C 38.140136 51.004395 38.202635 51.011719 38.245605 51.011719 L 38.245605 51.515625 C 38.245605 51.980469 38.140136 52.347167 37.91748 52.63623 C 37.690917 52.909667 37.367188 53.0547 36.925781 53.0625 C 36.609375 53.0625 36.3667 52.976074 36.194824 52.800293 C 36.026854 52.636231 35.945801 52.405761 35.945801 52.120605 C 35.961427 51.374511 36.585938 51.004395 37.828125 51.004395 z " />
  <path
     style="fill:#ffffff;fill-opacity:1;fill-rule:nonzero;stroke:none"
     d="m 58.441401,71.210938 7.347656,-0.472657 -1.105468,4.128907 c -0.01172,0.03906 -0.01563,0.07812 -0.01563,0.117187 0,0.261719 0.226562,0.472656 0.503906,0.472656 0.125,0 0.242187,-0.04297 0.332031,-0.113281 l 6.925782,-5.546875 c 0.109374,-0.08594 0.179687,-0.214844 0.179687,-0.359375 0,-0.144531 -0.07031,-0.273438 -0.179687,-0.359375 L 65.503906,63.53125 c -0.08984,-0.07031 -0.207031,-0.113281 -0.332031,-0.113281 -0.277344,0 -0.503906,0.214843 -0.503906,0.472656 0,0.04297 0.0039,0.08203 0.01563,0.117187 l 1.105468,4.128907 -7.347656,-0.472657 v 3.546876"
     id="path45" />
  <path
     id="path36"
     style="fill:#ffffff;fill-opacity:1;fill-rule:nonzero;stroke:none"
     d="M 51.953613 64.55127 C 51.359863 64.56299 50.933105 64.71875 50.679199 65.015625 C 50.421386 65.300781 50.3042 65.6792 50.315918 66.124512 L 50.315918 67.343262 L 49.305176 67.343262 L 49.305176 68.242676 L 50.315918 68.242676 L 50.315918 73.085449 L 51.555176 73.085449 L 51.555176 68.242676 L 52.671387 68.242676 L 52.671387 67.343262 L 51.555176 67.343262 L 51.555176 66.250488 C 51.547376 65.72705 51.789062 65.46875 52.277344 65.460938 C 52.355474 65.460938 52.444823 65.476069 52.554199 65.491699 C 52.671386 65.519039 52.769532 65.542965 52.851563 65.578125 L 52.851563 64.680176 C 52.707032 64.648926 52.554689 64.613765 52.382813 64.598145 C 52.222657 64.570805 52.078613 64.55127 51.953613 64.55127 z M 37.132324 64.6875 L 37.132324 73.085449 L 38.374512 73.085449 L 38.374512 69.687012 C 38.374512 69.237793 38.47266 68.887208 38.671875 68.629395 C 38.871094 68.379395 39.16455 68.242676 39.555176 68.242676 C 39.867676 68.242676 40.102051 68.34375 40.258301 68.542969 C 40.398927 68.746094 40.476563 69.074708 40.476563 69.52002 L 40.476563 73.085449 L 41.71875 73.085449 L 41.71875 69.250488 C 41.73047 68.637207 41.578614 68.15625 41.289551 67.804688 C 40.992677 67.453125 40.542481 67.273927 39.921387 67.27002 C 39.519043 67.27392 39.202636 67.343263 38.960449 67.483887 C 38.714355 67.628418 38.527344 67.793457 38.390625 67.996582 L 38.374512 67.996582 L 38.374512 64.6875 L 37.132324 64.6875 z M 4.9145508 65.277832 L 4.9145508 73.085449 L 6.121582 73.085449 L 6.121582 66.965332 L 6.1245117 66.965332 L 9.0424805 73.085449 L 10.671387 73.085449 L 10.671387 65.277832 L 9.4731445 65.277832 L 9.4731445 71.456543 L 9.46875 71.456543 L 6.5507813 65.277832 L 4.9145508 65.277832 z M 33.621094 67.242188 C 32.894531 67.222657 32.362792 67.503906 32.022949 68.074219 L 32.003906 68.074219 C 32.003906 67.988279 31.996593 67.862793 31.984863 67.694824 C 31.969233 67.534668 31.961426 67.410156 31.961426 67.324219 L 30.780762 67.324219 C 30.808102 67.660156 30.828606 68.031738 30.836426 68.418457 L 30.836426 73.070801 L 32.074219 73.070801 L 32.074219 69.660645 C 32.074219 69.219239 32.175293 68.862793 32.374512 68.608887 C 32.573731 68.347168 32.867189 68.226562 33.257813 68.214844 C 33.570312 68.214844 33.800293 68.316406 33.956543 68.519531 C 34.108887 68.730469 34.179199 69.046875 34.179199 69.492188 L 34.179199 73.070801 L 35.421387 73.070801 L 35.421387 69.222656 C 35.433107 68.609375 35.277344 68.132323 34.992188 67.776855 C 34.695312 67.425292 34.246094 67.25 33.621094 67.242188 z M 14.819824 67.258301 C 14.038574 67.273931 13.434082 67.555176 13.000488 68.090332 C 12.582519 68.637207 12.363282 69.351074 12.351563 70.249512 C 12.351563 70.812012 12.452637 71.316406 12.640137 71.753906 C 12.839356 72.191406 13.136719 72.527832 13.535156 72.777832 C 13.917969 73.031738 14.422363 73.156739 15.016113 73.164551 C 15.395019 73.156751 15.734375 73.12158 16.042969 73.047363 C 16.339844 72.980953 16.594238 72.902832 16.797363 72.812988 L 16.73877 71.835938 C 16.58252 71.957031 16.378906 72.055177 16.125 72.14502 C 15.878906 72.23877 15.574708 72.293457 15.227051 72.297363 C 14.656739 72.297363 14.242676 72.144042 13.984863 71.85498 C 13.730957 71.550292 13.59375 71.112792 13.605469 70.54248 L 17.121094 70.54248 L 17.121094 70.148438 C 17.105464 69.148438 16.886231 68.410157 16.472168 67.945313 C 16.058106 67.484375 15.503418 67.250489 14.819824 67.258301 z M 27.089355 67.258301 C 26.308105 67.273931 25.706542 67.555176 25.272949 68.090332 C 24.851073 68.637207 24.637207 69.351074 24.625488 70.249512 C 24.625488 70.812012 24.726562 71.316406 24.925781 71.753906 C 25.109375 72.191406 25.410156 72.527832 25.804688 72.777832 C 26.191406 73.031738 26.694824 73.156739 27.288574 73.164551 C 27.667481 73.156751 28.008301 73.12158 28.316895 73.047363 C 28.61377 72.980953 28.862793 72.902832 29.069824 72.812988 L 29.008301 71.835938 C 28.855958 71.957031 28.648926 72.055177 28.398926 72.14502 C 28.152832 72.23877 27.848144 72.293457 27.496582 72.297363 C 26.930176 72.297363 26.515137 72.144042 26.257324 71.85498 C 26.003418 71.550292 25.879395 71.112792 25.879395 70.54248 L 29.39502 70.54248 L 29.39502 70.148438 C 29.37549 69.148438 29.160156 68.410157 28.746094 67.945313 C 28.332031 67.484375 27.772949 67.250489 27.089355 67.258301 z M 45.804199 67.27002 C 45.319823 67.2583 44.882323 67.359371 44.491699 67.570313 C 44.093261 67.773438 43.788574 68.089355 43.565918 68.526855 C 43.331543 68.952636 43.214355 69.519531 43.214355 70.207031 C 43.214355 70.902344 43.331543 71.477051 43.565918 71.910645 C 43.788574 72.348145 44.093261 72.667969 44.491699 72.867188 C 44.882323 73.070312 45.319823 73.164551 45.804199 73.164551 C 46.284667 73.164551 46.722656 73.070312 47.109375 72.867188 C 47.507812 72.667969 47.8125 72.348145 48.035156 71.910645 C 48.269531 71.477051 48.391113 70.902344 48.391113 70.207031 C 48.391113 69.519531 48.269531 68.952636 48.035156 68.526855 C 47.8125 68.089355 47.507812 67.773439 47.109375 67.570313 C 46.722656 67.359376 46.284667 67.258301 45.804199 67.27002 z M 18.555176 67.343262 L 18.555176 71.187012 C 18.543456 71.792481 18.699219 72.281251 18.984375 72.632813 C 19.28125 72.98047 19.729981 73.164062 20.351074 73.171875 C 21.081543 73.179675 21.612793 72.902832 21.956543 72.344238 L 21.972656 72.344238 C 21.972656 72.426268 21.979969 72.551269 21.991699 72.719238 C 22.007319 72.879394 22.015137 73.003417 22.015137 73.085449 L 23.195801 73.085449 C 23.168461 72.741699 23.148441 72.382323 23.144531 71.995605 L 23.144531 67.343262 L 21.902344 67.343262 L 21.902344 70.750488 C 21.902344 71.199707 21.80127 71.551269 21.602051 71.805176 C 21.406739 72.055176 21.109375 72.191406 20.71875 72.199219 C 20.40625 72.199219 20.172364 72.09375 20.02002 71.894531 C 19.867677 71.6875 19.797363 71.366699 19.797363 70.91748 L 19.797363 67.343262 L 18.555176 67.343262 z M 14.781738 68.090332 C 15.520019 68.090332 15.897949 68.645019 15.897949 69.742676 L 13.605469 69.742676 C 13.613281 69.219238 13.718261 68.800781 13.929199 68.519531 C 14.13623 68.230469 14.422363 68.090332 14.781738 68.090332 z M 27.054199 68.090332 C 27.79248 68.090332 28.171875 68.645019 28.171875 69.742676 L 25.879395 69.742676 C 25.887208 69.219238 25.992188 68.800781 26.203125 68.519531 C 26.40625 68.230469 26.694823 68.090332 27.054199 68.090332 z M 45.804199 68.132813 C 46.272949 68.148438 46.612793 68.34375 46.812012 68.71875 C 47.011234 69.105469 47.102051 69.59375 47.102051 70.207031 C 47.102051 70.820312 47.011231 71.315918 46.812012 71.702637 C 46.612793 72.077637 46.272949 72.281249 45.804199 72.292969 C 45.331542 72.28125 44.995606 72.077637 44.796387 71.702637 C 44.597171 71.315918 44.504407 70.820312 44.512207 70.207031 C 44.504394 69.59375 44.597168 69.105469 44.796387 68.71875 C 44.995606 68.34375 45.331542 68.148443 45.804199 68.132813 z " />
</svg>
