<?xml version="1.0" encoding="UTF-8" standalone="no"?>
<svg
   width="28.348764pt"
   height="75.471298pt"
   viewBox="0 0 28.348764 75.471298"
   version="1.1"
   id="svg843"
   xml:space="preserve"
   xmlns="http://www.w3.org/2000/svg"
   xmlns:svg="http://www.w3.org/2000/svg"><defs
     id="defs847" /><rect
     style="fill:#ffffff;fill-opacity:1;stroke:#000000;stroke-width:0.188746;stroke-linecap:square;stroke-miterlimit:4;stroke-dasharray:none;stroke-opacity:1"
     id="rect1252"
     width="28.160019"
     height="75.282555"
     x="0.094373003"
     y="0.094373003" /><path
     style="fill:#c90b1c;fill-opacity:1;fill-rule:nonzero;stroke:none;stroke-width:1.34989"
     d="M 1.4243821,1.4927409 H 26.924383 V 73.803846 H 1.4243821 V 1.4927409"
     id="path826" /><g
     id="g1"
     transform="matrix(1.0674052,0,0,1.0674052,-1.4718602,26.778187)"><path
       style="fill:#449dd7;fill-opacity:1;fill-rule:nonzero;stroke:none"
       d="M 6.773438,23.617188 H 22.542969 V 39.226562 H 6.773438 V 23.617188"
       id="path828" /><path
       style="fill:#211e1e;fill-opacity:1;fill-rule:nonzero;stroke:none"
       d="M 7.871094,27.019531 7.78125,26.671875 C 7.761719,26.617188 7.746094,26.582031 7.714844,26.566406 7.699219,26.546875 7.671875,26.535156 7.644531,26.535156 H 7.625 v 0.484375 H 7.296875 v -1.21875 h 0.492187 c 0.125,0 0.214844,0.02344 0.285157,0.07813 0.066406,0.05078 0.101562,0.136719 0.101562,0.25 0,0.0625 -0.00781,0.105469 -0.035156,0.140625 -0.027344,0.04687 -0.054687,0.07031 -0.089844,0.08984 -0.035156,0.02734 -0.070312,0.03516 -0.105469,0.04687 v 0.0078 c 0.015626,0.0078 0.042969,0.01563 0.058594,0.02734 0.019532,0.01953 0.035156,0.03516 0.054688,0.07031 0.015625,0.02344 0.027344,0.07031 0.046875,0.125 L 8.21875,27.019531 H 7.871094 M 7.609375,26.304688 h 0.101563 c 0.035156,0 0.070312,-0.0078 0.09375,-0.03516 0.019531,-0.02344 0.039062,-0.05078 0.039062,-0.09766 0,-0.03516 -0.00781,-0.07031 -0.039062,-0.09766 C 7.789062,26.050781 7.753906,26.03125 7.699219,26.03125 H 7.609375 v 0.273438 m 0.695313,0.261718 c 0,-0.08203 0.015624,-0.160156 0.042968,-0.230468 C 8.375,26.261718 8.429688,26.199219 8.488281,26.15625 8.5625,26.10938 8.652344,26.08594 8.761719,26.08594 c 0.105469,0 0.195312,0.02344 0.269531,0.07031 0.0625,0.04297 0.117188,0.105469 0.144531,0.179688 0.027344,0.07031 0.042969,0.148437 0.042969,0.230468 0,0.08984 -0.015625,0.160156 -0.042969,0.230469 -0.027343,0.07031 -0.082031,0.132813 -0.144531,0.179687 -0.074219,0.04297 -0.164062,0.05859 -0.269531,0.07031 C 8.652344,27.035156 8.5625,27.019531 8.488281,26.976562 8.429688,26.929688 8.375,26.867188 8.347656,26.796875 8.320312,26.726562 8.304688,26.65625 8.304688,26.566406 m 0.328124,0 c 0,0.04297 0,0.08984 0.011719,0.125 0.00781,0.04297 0.019531,0.07031 0.035157,0.09375 0.019531,0.03125 0.042968,0.03906 0.082031,0.04687 0.035156,-0.0078 0.0625,-0.01563 0.082031,-0.04687 0.015625,-0.02344 0.023438,-0.05078 0.035156,-0.09375 0.00781,-0.03516 0.00781,-0.08203 0.00781,-0.125 0,-0.04687 0,-0.08984 -0.00781,-0.125 -0.011718,-0.04687 -0.019531,-0.07031 -0.035156,-0.101562 -0.019531,-0.02344 -0.046875,-0.04297 -0.082031,-0.04297 -0.039063,0 -0.0625,0.01953 -0.082031,0.04297 -0.015626,0.03125 -0.027344,0.05469 -0.035157,0.101562 -0.011719,0.03516 -0.011719,0.07813 -0.011719,0.125 m 1.578126,-0.457031 v 0.757813 c 0,0.03516 0,0.07422 0,0.09766 0.0078,0.02734 0.0078,0.04687 0.0078,0.05469 H 9.921875 c 0,-0.01953 0,-0.04297 -0.00781,-0.07422 0,-0.02344 0,-0.05078 0,-0.07812 -0.00781,0.01953 -0.019531,0.04297 -0.039062,0.07422 -0.015625,0.02344 -0.042969,0.03906 -0.078125,0.07031 -0.035156,0.01563 -0.082031,0.02344 -0.144531,0.03516 -0.082032,0 -0.144532,-0.02734 -0.195313,-0.07031 C 9.402344,26.921875 9.371094,26.851562 9.371094,26.75 V 26.109375 H 9.6875 v 0.546875 c 0,0.08594 0.027344,0.128906 0.089844,0.128906 0.042968,0 0.082031,-0.01563 0.089844,-0.05078 0.019531,-0.02734 0.027343,-0.0625 0.027343,-0.09766 v -0.527344 h 0.316407 m 0.109374,0.214844 v -0.214844 h 0.160157 v -0.195313 l 0.3125,-0.09766 v 0.292969 h 0.179687 v 0.214844 h -0.179687 v 0.382812 c 0,0.04297 0.01953,0.07422 0.03516,0.08984 0.01953,0.01953 0.04687,0.02734 0.07422,0.02734 0.03516,0 0.05469,-0.0078 0.07031,-0.01953 l 0.01172,0.214843 c -0.01953,0.0078 -0.04687,0.0078 -0.08203,0.01563 -0.03516,0 -0.07813,0.01172 -0.125,0.01172 -0.09375,0 -0.164063,-0.02734 -0.21875,-0.07031 -0.05078,-0.05469 -0.07813,-0.121093 -0.07813,-0.207031 v -0.445312 h -0.160157 m 1.058594,0.160156 h 0.273438 v -0.02344 c 0,-0.06641 -0.01172,-0.109376 -0.03125,-0.136719 -0.01953,-0.02734 -0.05469,-0.04297 -0.09766,-0.04297 -0.04688,0 -0.08203,0.01563 -0.105469,0.05469 -0.03125,0.03516 -0.03906,0.08594 -0.03906,0.148437 M 11.9375,26.65625 h -0.550781 c 0,0.07031 0.03125,0.113281 0.07422,0.148438 0.04687,0.02734 0.08984,0.03516 0.152343,0.03516 0.04297,0 0.08984,-0.0078 0.144531,-0.01563 0.04297,-0.01953 0.08984,-0.03906 0.125,-0.05469 l 0.0078,0.222657 c -0.03516,0.0078 -0.08984,0.01953 -0.144531,0.03516 -0.05078,0.0078 -0.113282,0.0078 -0.179688,0.01953 -0.125,-0.01172 -0.214844,-0.02734 -0.285156,-0.07031 -0.07422,-0.05469 -0.128906,-0.121093 -0.152344,-0.191406 -0.03125,-0.07031 -0.04687,-0.148437 -0.03516,-0.230468 0,-0.07813 0.0039,-0.160157 0.04297,-0.230469 0.03516,-0.07031 0.08203,-0.125 0.144531,-0.167969 0.0625,-0.04687 0.140625,-0.07031 0.234375,-0.07031 0.09766,0 0.179687,0.02344 0.242187,0.07031 0.0625,0.04297 0.109376,0.09766 0.132813,0.167969 0.03516,0.07031 0.04687,0.152343 0.04687,0.242187 v 0.08984 M 7.835938,25.414062 7.582031,24.488281 v 0.925781 H 7.296875 V 24.199219 H 7.78125 l 0.167969,0.765625 0.179687,-0.765625 h 0.480469 v 1.214843 H 8.3125 V 24.488281 L 8.039062,25.414062 H 7.835938 m 0.988281,-1.050781 v -0.253906 h 0.3125 v 0.253906 h -0.3125 m 0,1.050781 v -0.90625 h 0.3125 v 0.90625 h -0.3125 M 9.265625,24.722656 V 24.507812 H 9.425781 V 24.3125 l 0.316407,-0.09766 v 0.292968 h 0.179687 v 0.214844 H 9.742188 v 0.390625 c 0,0.03516 0.00781,0.0625 0.035156,0.08203 0.019531,0.01563 0.042968,0.02344 0.074218,0.02344 0.035157,0 0.054688,-0.0078 0.070313,-0.01563 l 0.00781,0.210937 c -0.015626,0.01172 -0.042969,0.01172 -0.089844,0.01953 -0.035156,0 -0.070313,0.01172 -0.113282,0.01172 -0.089843,0 -0.164062,-0.03125 -0.21875,-0.07422 C 9.457031,25.328125 9.425781,25.253906 9.425781,25.175781 V 24.722656 H 9.265625 m 0.71875,0 v -0.214844 h 0.160156 V 24.3125 l 0.320313,-0.09766 v 0.292968 h 0.179687 v 0.214844 h -0.179687 v 0.390625 c 0,0.03516 0.0039,0.0625 0.03516,0.08203 0.01563,0.01563 0.04297,0.02344 0.07031,0.02344 0.03516,0 0.05469,-0.0078 0.07422,-0.01563 l 0.0039,0.210937 c -0.01563,0.01172 -0.04297,0.01172 -0.07813,0.01953 -0.04687,0 -0.08203,0.01172 -0.125,0.01172 -0.08984,0 -0.164062,-0.03125 -0.21875,-0.07422 -0.05078,-0.04297 -0.08203,-0.117188 -0.08203,-0.195313 V 24.722656 H 9.984375 m 1.0625,0.160156 h 0.269531 v -0.02734 c 0,-0.0625 -0.0078,-0.105469 -0.02734,-0.132813 -0.01562,-0.02734 -0.05469,-0.04297 -0.09766,-0.04297 -0.04297,0 -0.08203,0.01562 -0.109375,0.05078 -0.02734,0.04297 -0.03516,0.08984 -0.03516,0.152343 m 0.554687,0.167969 h -0.546874 c 0,0.07422 0.02734,0.125 0.07422,0.152344 0.04297,0.02734 0.08984,0.03516 0.152344,0.03516 0.04687,0 0.08984,-0.0078 0.136719,-0.01953 0.05078,-0.01563 0.09766,-0.03516 0.132812,-0.05469 l 0.0078,0.226563 c -0.04297,0.0078 -0.08984,0.02344 -0.140625,0.03516 -0.05469,0.0078 -0.121094,0.01953 -0.183594,0.01953 -0.125,0 -0.222656,-0.03125 -0.285156,-0.07422 -0.07422,-0.05078 -0.125,-0.105469 -0.15625,-0.1875 -0.02344,-0.07031 -0.04297,-0.140625 -0.04297,-0.21875 0,-0.08984 0.01953,-0.171875 0.05469,-0.242188 0.03516,-0.07422 0.07812,-0.125 0.144531,-0.167968 0.0625,-0.04688 0.144531,-0.06641 0.234375,-0.07422 0.09766,0.0078 0.179687,0.02734 0.238281,0.07422 0.06641,0.04297 0.109375,0.09375 0.136719,0.175781 0.03906,0.07422 0.04297,0.144531 0.04297,0.234375 v 0.08594 m 0.175782,0.363281 v -1.304687 h 0.3125 v 1.304687 h -0.3125 m 0.519531,0 v -1.304687 h 0.3125 v 1.304687 h -0.3125 m 1.035156,-0.40625 v -0.02734 h -0.03906 c -0.07031,0 -0.125,0.0078 -0.167969,0.03516 -0.04687,0.01953 -0.0625,0.0625 -0.0625,0.117187 0,0.03125 0.0078,0.0625 0.02734,0.07813 0.01953,0.01953 0.04297,0.02734 0.07813,0.02734 0.04687,0 0.08594,-0.0078 0.109375,-0.03516 0.02734,-0.02734 0.03516,-0.0625 0.04687,-0.09766 0.0078,-0.03516 0.0078,-0.07031 0.0078,-0.09766 m 0.285157,-0.1875 v 0.398438 c 0,0.03516 0,0.07031 0,0.109375 0,0.03516 0.01172,0.0625 0.01172,0.08594 H 13.34375 c 0,-0.03516 -0.01172,-0.07812 -0.01172,-0.125 -0.04297,0.05469 -0.08984,0.08984 -0.125,0.117188 -0.04687,0.01953 -0.09375,0.03906 -0.152343,0.03906 -0.08203,0 -0.144532,-0.03125 -0.199219,-0.08203 -0.05469,-0.05469 -0.07031,-0.125 -0.08203,-0.214843 0,-0.203126 0.160156,-0.308594 0.480468,-0.308594 h 0.07813 V 24.8086 c 0,-0.03516 -0.0078,-0.05859 -0.03906,-0.08594 -0.02344,-0.01953 -0.07031,-0.03906 -0.132813,-0.03906 -0.05078,0 -0.09766,0.01172 -0.140625,0.03125 -0.04687,0.01563 -0.08984,0.03516 -0.128906,0.05859 l -0.0078,-0.230469 c 0.03516,-0.01563 0.08984,-0.02344 0.144532,-0.03516 0.0625,-0.01953 0.125,-0.01953 0.207031,-0.02734 0.09766,0.0078 0.1875,0.01953 0.242187,0.05469 0.05469,0.02734 0.08984,0.07031 0.105469,0.113282 0.03125,0.05469 0.03516,0.109374 0.03516,0.171874 m 0.175781,0.59375 v -0.71875 c 0,-0.03516 0,-0.07031 0,-0.105468 -0.01172,-0.03516 -0.01172,-0.0625 -0.01172,-0.08203 h 0.296875 c 0,0.01953 0,0.04688 0.0078,0.07031 0,0.02734 0,0.05469 0,0.08203 0.01172,-0.01563 0.01953,-0.04687 0.03516,-0.07031 0.01953,-0.02734 0.04687,-0.04687 0.08594,-0.07031 0.03516,-0.01953 0.07813,-0.03125 0.140625,-0.03906 0.08203,0 0.144532,0.02734 0.199219,0.07422 0.05469,0.05078 0.08203,0.125 0.08203,0.21875 v 0.640624 H 14.3125 V 24.875 c 0,-0.08984 -0.02734,-0.136719 -0.08984,-0.136719 -0.03516,0 -0.07031,0.01953 -0.08984,0.05469 -0.01562,0.03516 -0.02734,0.08203 -0.02734,0.125 v 0.496093 h -0.3125 m 1.320312,-0.460937 c 0,0.08203 0.0078,0.140625 0.02734,0.1875 0.01953,0.04297 0.04297,0.07031 0.08984,0.07031 0.04297,0 0.07422,-0.02734 0.09766,-0.07031 0.01953,-0.04687 0.02734,-0.105469 0.02734,-0.1875 0,-0.07031 -0.0078,-0.132813 -0.02734,-0.183594 -0.02344,-0.04687 -0.05469,-0.06641 -0.09766,-0.07422 -0.04687,0.0078 -0.07031,0.02734 -0.08984,0.07422 -0.01953,0.05078 -0.02734,0.113281 -0.02734,0.183594 m 0.566407,-0.84375 v 1.144531 c 0,0.05469 0,0.109375 0,0.160156 H 15.382812 C 15.375,25.371094 15.375,25.320312 15.375,25.273438 h -0.01172 c -0.02344,0.0625 -0.07031,0.09766 -0.105469,0.125 -0.04297,0.02734 -0.08984,0.03516 -0.136718,0.03516 -0.08203,0 -0.140625,-0.02734 -0.195313,-0.07031 -0.04687,-0.03516 -0.08984,-0.09766 -0.109375,-0.167969 -0.02734,-0.08203 -0.03516,-0.160156 -0.03516,-0.25 0,-0.08203 0.0078,-0.152343 0.03516,-0.214843 0.01953,-0.07031 0.05469,-0.132813 0.09766,-0.175781 0.05469,-0.04688 0.117188,-0.06641 0.191407,-0.07422 0.0625,0 0.113281,0.01953 0.152343,0.04687 0.03516,0.02734 0.07031,0.0625 0.105469,0.117187 0,-0.04687 -0.0078,-0.101562 -0.0078,-0.171875 v -0.363281 h 0.324219 m 6.433593,4.96875 -0.421875,0.05078 v -0.08984 l 0.332032,-0.03516 -0.332032,-0.175781 v -0.08984 l 0.421875,0.230469 v 0.109375 M 21.933609,28.710942 V 28.56641 c -0.0078,0 -0.01953,0 -0.02734,0 -0.03516,0 -0.05469,0.01953 -0.05469,0.05469 0,0.02734 0.0078,0.04687 0.02734,0.05078 0.01172,0.01953 0.02734,0.03125 0.05469,0.03906 m 0.05469,-0.214844 v 0.222656 c 0.02734,0 0.04687,-0.0078 0.0625,-0.02734 0.0078,-0.0078 0.01953,-0.03516 0.01953,-0.05859 -0.01172,-0.03906 -0.01172,-0.06641 -0.03125,-0.08984 l 0.06641,0.0039 c 0.0078,0.01172 0.0078,0.03125 0.01953,0.04687 0,0.01953 0,0.03906 0,0.05469 0,0.04297 -0.01172,0.07812 -0.03516,0.109374 -0.01953,0.02344 -0.05469,0.03125 -0.101563,0.03125 -0.03516,0 -0.0625,0 -0.08984,-0.01562 -0.03906,-0.01563 -0.05469,-0.03516 -0.07422,-0.0625 -0.01953,-0.02734 -0.02344,-0.05469 -0.02344,-0.08984 0,-0.04297 0.0039,-0.07422 0.02344,-0.09766 0.01953,-0.01563 0.05469,-0.02734 0.08984,-0.03516 0.03125,0 0.04688,0.0078 0.07422,0.0078 m 0.125,-0.02734 -0.449219,-0.09766 v -0.07813 l 0.449219,0.09766 v 0.07813 m -0.3125,-0.367188 c 0,-0.03906 0.0039,-0.07422 0.03516,-0.09375 0.01562,-0.02734 0.05469,-0.04687 0.09766,-0.04687 0.03516,0 0.07031,0.01172 0.101562,0.02734 0.02344,0.01953 0.05469,0.03906 0.05859,0.0625 0.01953,0.02734 0.03125,0.0625 0.03125,0.101563 0,0.04297 -0.01172,0.07422 -0.03516,0.09375 -0.03125,0.02734 -0.06641,0.04687 -0.109375,0.04687 -0.03516,0 -0.06641,-0.01172 -0.08984,-0.02734 -0.03125,-0.01953 -0.05469,-0.03906 -0.06641,-0.0625 -0.01953,-0.03516 -0.02344,-0.0625 -0.02344,-0.101563 m 0.257813,0.03906 c 0,-0.01953 -0.0078,-0.03906 -0.01953,-0.05469 -0.01562,-0.0078 -0.02344,-0.01563 -0.05078,-0.02344 -0.01953,-0.01172 -0.03516,-0.01172 -0.05469,-0.01172 -0.01953,0 -0.03516,0 -0.05469,0.01172 -0.0078,0.0078 -0.01953,0.02344 -0.01953,0.03906 0,0.03125 0.01172,0.05078 0.01953,0.05469 0.01953,0.01953 0.02734,0.02734 0.05469,0.03906 0.01953,0.0078 0.03516,0.0078 0.05469,0.0078 0.01563,0 0.03516,0 0.05078,-0.0078 0.01172,-0.01953 0.01953,-0.02734 0.01953,-0.05469 m 0.05469,-0.203125 -0.449219,-0.101562 v -0.07813 l 0.449219,0.09766 v 0.08203 m -0.07813,-0.25 c 0.0039,0 0.01563,0 0.02344,-0.01172 0,-0.0078 0.01172,-0.01563 0.01172,-0.02344 -0.01172,-0.03125 -0.01953,-0.05469 -0.03516,-0.06641 -0.01172,-0.01563 -0.03906,-0.02344 -0.06641,-0.02344 v 0.02344 c 0,0.01172 0,0.03125 0.01172,0.04687 0,0.01953 0.0078,0.02734 0.01563,0.03516 0.0078,0.01953 0.01953,0.01953 0.03906,0.01953 m 0.07813,-0.105469 -0.04297,-0.01172 c 0.01953,0.01563 0.02344,0.02734 0.04297,0.04688 0.01172,0.01562 0.01172,0.03516 0.01172,0.05078 0,0.03906 -0.01172,0.05469 -0.01953,0.07422 -0.01563,0.01562 -0.04687,0.02344 -0.07031,0.02344 -0.03125,0 -0.04687,-0.0078 -0.06641,-0.01953 -0.0078,-0.0039 -0.01563,-0.02344 -0.02344,-0.03906 -0.01172,-0.03125 -0.01953,-0.04687 -0.01953,-0.06641 0,-0.02344 0,-0.04297 0,-0.05859 v -0.03125 c -0.01172,-0.0078 -0.01953,-0.0078 -0.02734,-0.0078 -0.0078,0 -0.01953,0.0078 -0.02734,0.0078 0,0.01172 -0.01172,0.01953 -0.01172,0.03125 0,0.0039 -0.0078,0.01563 -0.0078,0.02344 0,0.03516 0.0078,0.07031 0.02734,0.105469 l -0.0625,-0.01563 c -0.01563,-0.02734 -0.01563,-0.0625 -0.01563,-0.09766 0,-0.02734 0,-0.04687 0.0039,-0.0625 0,-0.01953 0.01953,-0.03516 0.03125,-0.04297 0.01562,-0.01172 0.03516,-0.01953 0.05469,-0.01953 0.01563,0 0.02344,0 0.04297,0.0078 0.01953,0 0.04687,0 0.0625,0.01172 0.02734,0 0.04297,0.0078 0.0625,0.0078 0.03125,0.0078 0.04687,0.0078 0.05469,0.0078 v 0.07422 m 0,-0.144531 -0.261719,-0.0625 c -0.02734,0 -0.03516,-0.0078 -0.04687,-0.0078 v -0.08203 l 0.03125,0.01172 c -0.01172,-0.01172 -0.01953,-0.03125 -0.03125,-0.03516 -0.0039,-0.01953 -0.0039,-0.03906 -0.0039,-0.05469 0,-0.02734 0.0039,-0.05469 0.02344,-0.07031 0.01953,-0.01953 0.03516,-0.03125 0.07422,-0.03125 0.0078,0 0.02734,0 0.03516,0 0.01172,0 0.01953,0.01172 0.02734,0.01172 l 0.152343,0.03516 v 0.07813 l -0.144531,-0.03516 c -0.0078,0 -0.01563,0 -0.03516,0 -0.0078,-0.0078 -0.01953,-0.0078 -0.02734,-0.0078 -0.01563,0 -0.02734,0.0078 -0.03516,0.01953 -0.01172,0 -0.01172,0.01563 -0.01172,0.02344 0,0.01953 0,0.03516 0.01953,0.04687 0.01172,0.0078 0.01953,0.01953 0.03516,0.02344 0.01172,0.01172 0.03125,0.01172 0.04688,0.01953 l 0.152343,0.03516 v 0.08203 m -0.253906,-0.550781 c 0,0.01563 0.01172,0.03516 0.01953,0.04297 0.01953,0.01562 0.03516,0.02734 0.05469,0.03516 0.01953,0 0.03516,0.01172 0.05469,0.01172 0.0078,0 0.01563,-0.01172 0.03516,-0.01172 0.01172,0 0.01562,-0.0078 0.02734,-0.01953 0.0078,0 0.0078,-0.0039 0.0078,-0.02344 0,-0.01953 -0.0078,-0.03516 -0.01953,-0.05469 -0.01562,-0.01172 -0.02344,-0.01563 -0.04297,-0.02734 -0.02734,-0.0078 -0.04297,-0.0078 -0.0625,-0.0078 -0.01953,0 -0.03516,0 -0.05469,0.0078 -0.0078,0.01172 -0.01953,0.02734 -0.01953,0.04687 m -0.195313,-0.125 v -0.08203 l 0.386719,0.08984 c 0.0078,0 0.02734,0 0.03906,0.01172 0.0039,0 0.01563,0 0.02344,0 v 0.07031 h -0.04297 c 0.01953,0.0039 0.03516,0.02344 0.04297,0.03516 0.01172,0.01563 0.01172,0.03516 0.01172,0.05859 0,0.03125 -0.01172,0.04688 -0.01953,0.06641 -0.01172,0.01563 -0.02734,0.02344 -0.04687,0.03516 -0.01953,0.0078 -0.04297,0.0078 -0.0625,0.0078 -0.03516,0 -0.0625,-0.0078 -0.09766,-0.01953 -0.02734,-0.0078 -0.05469,-0.02344 -0.07422,-0.05469 -0.01953,-0.01563 -0.02344,-0.05078 -0.02344,-0.07813 0,-0.04687 0.0039,-0.07031 0.04297,-0.09766 l -0.179688,-0.04297 m 0.03516,-0.542969 0.07031,0.01563 c -0.0039,0.01172 -0.0039,0.02734 -0.01563,0.03516 0,0.01953 0,0.03516 0,0.05469 0,0.01172 0,0.01563 0,0.02734 0.01172,0.0078 0.01172,0.01953 0.01563,0.02734 0.01172,0.0078 0.01953,0.0078 0.03125,0.0078 0.01563,0 0.02344,0 0.04297,-0.01563 0.0078,-0.01953 0.01563,-0.03516 0.02734,-0.05469 0.0078,-0.01953 0.02734,-0.03516 0.04297,-0.04687 0.01953,-0.01563 0.03906,-0.02344 0.06641,-0.02344 0.03516,0 0.05859,0.0078 0.08984,0.02344 0.01953,0.01953 0.03516,0.03516 0.04297,0.06641 0.01172,0.02344 0.01172,0.05078 0.01172,0.08594 0,0.01953 0,0.03906 -0.01172,0.0625 0,0.01563 -0.0078,0.03516 -0.01953,0.05078 l -0.07031,-0.01563 c 0.01172,-0.01953 0.01562,-0.03516 0.02734,-0.05469 0,-0.01563 0.0078,-0.03516 0.0078,-0.05078 0,-0.0078 -0.0078,-0.02734 -0.0078,-0.03516 -0.01172,-0.01953 -0.01172,-0.02734 -0.02734,-0.02734 -0.0078,-0.01172 -0.01953,-0.01562 -0.03516,-0.01562 -0.01953,0 -0.02734,0.0039 -0.04297,0.02344 -0.01172,0.01172 -0.01953,0.02734 -0.03125,0.04687 -0.0078,0.01563 -0.02344,0.03516 -0.03516,0.05469 -0.01953,0.0039 -0.03516,0.01562 -0.0625,0.01562 -0.03516,0 -0.05078,-0.01172 -0.08203,-0.01562 -0.01563,-0.01953 -0.02344,-0.03906 -0.03516,-0.06641 -0.0078,-0.01563 -0.01953,-0.04297 -0.01953,-0.07031 0,-0.03516 0.01172,-0.07813 0.01953,-0.105469 m 0.105469,-0.292969 0.07422,0.01563 c -0.01953,0.01953 -0.01953,0.03516 -0.01953,0.0625 0,0.01563 0.01172,0.03516 0.01953,0.05078 0.01172,0.01953 0.02734,0.03125 0.04687,0.03906 0.01953,0.0078 0.03516,0.0078 0.05469,0.0078 0.01563,0 0.02344,0 0.03516,0 0.01953,-0.0078 0.02344,-0.01562 0.03516,-0.02734 0.0078,-0.0078 0.0078,-0.02344 0.0078,-0.04297 0,-0.01172 0,-0.01563 0,-0.02734 -0.0078,-0.0078 -0.0078,-0.02734 -0.01953,-0.03516 l 0.07422,0.0078 c 0,0.0078 0.01172,0.02734 0.01172,0.03906 0,0.01563 0,0.02344 0,0.03906 0,0.03906 -0.01172,0.07422 -0.03516,0.101562 -0.03125,0.01563 -0.05469,0.03516 -0.101563,0.03516 -0.03516,0 -0.07422,-0.01172 -0.09766,-0.02734 -0.03125,-0.01953 -0.04687,-0.03516 -0.06641,-0.0625 -0.01953,-0.02734 -0.02344,-0.0625 -0.02344,-0.09766 0,-0.01953 0,-0.02734 0,-0.04297 0,-0.01172 0.0039,-0.03125 0.0039,-0.03516 m 0.308593,0.0039 -0.449219,-0.09375 v -0.08203 l 0.171876,0.03516 c -0.01172,-0.0078 -0.01953,-0.01562 -0.03125,-0.03516 -0.0039,-0.01953 -0.0039,-0.03516 -0.0039,-0.05469 0,-0.02344 0.0039,-0.05078 0.02344,-0.07031 0.01953,-0.01953 0.03516,-0.02344 0.07422,-0.02344 0.0078,0 0.02734,0 0.03516,0.0039 0.01172,0 0.01953,0 0.02734,0 l 0.152343,0.03906 v 0.08203 l -0.144531,-0.03125 c -0.0078,-0.0039 -0.01563,-0.0039 -0.03516,-0.0039 -0.0078,0 -0.01953,0 -0.02734,0 -0.01563,0 -0.02734,0 -0.03516,0.0039 -0.01172,0.01172 -0.01172,0.01953 -0.01172,0.03516 0,0.01953 0,0.03125 0.01953,0.04687 0.01172,0.0078 0.01953,0.01953 0.03516,0.02734 0.01172,0 0.03125,0.0078 0.04688,0.0078 l 0.152343,0.03516 v 0.07813 m 0,-0.433594 -0.308593,0.04297 v -0.07812 l 0.234374,-0.02734 -0.234374,-0.113282 v -0.08984 l 0.234374,-0.01953 -0.234374,-0.117188 v -0.07813 l 0.308593,0.167969 v 0.08984 l -0.234375,0.01562 0.234375,0.117188 v 0.08984 m -0.179687,-0.5625 v -0.128906 c -0.0078,0 -0.01953,0 -0.02734,0 -0.03516,0 -0.05469,0.01562 -0.05469,0.03906 0,0.03125 0.0078,0.04687 0.02734,0.06641 0.01172,0.0078 0.02734,0.01563 0.05469,0.02344 m 0.05469,-0.203125 v 0.214843 c 0.02734,0 0.04687,0 0.0625,-0.01953 0.0078,-0.01563 0.01953,-0.03516 0.01953,-0.0625 -0.01172,-0.03516 -0.01172,-0.05859 -0.03125,-0.09375 l 0.06641,0.0039 c 0.0078,0.01953 0.0078,0.03516 0.01953,0.05469 0,0.01563 0,0.03516 0,0.04687 0,0.04297 -0.01172,0.07813 -0.03516,0.105469 -0.01953,0.02734 -0.05469,0.04297 -0.101563,0.04297 -0.03516,0 -0.0625,-0.0078 -0.08984,-0.01563 -0.03906,-0.01953 -0.05469,-0.04297 -0.07422,-0.0625 -0.01953,-0.02734 -0.02344,-0.0625 -0.02344,-0.101562 0,-0.03516 0.0039,-0.05859 0.02344,-0.08594 0.01953,-0.02734 0.05469,-0.03516 0.08984,-0.03516 0.03125,0 0.04688,0 0.07422,0.0078 M 21.746094,24.625 21.671874,24.60547 v -0.07813 l 0.07422,0.0078 V 24.625 m 0.367187,0.07031 -0.308593,-0.0625 v -0.07812 l 0.308593,0.05859 v 0.08203 m -0.308593,-0.460937 0.06641,0.01563 0.179687,0.1875 v -0.152344 l 0.0625,0.0078 v 0.261719 l -0.0625,-0.01172 -0.179687,-0.195313 v 0.140625 l -0.06641,-0.0078 v -0.246094"
       id="path830" /><path
       style="fill:#bf4742;fill-opacity:1;fill-rule:nonzero;stroke:none"
       d="m 10.175781,28.59375 3.328125,-1.066406 -0.730468,3.648437 -3.328126,1.121094 0.730469,-3.703125"
       id="path832" /><path
       style="fill:#ee2b2e;fill-opacity:1;fill-rule:nonzero;stroke:#bf4742;stroke-width:0.25;stroke-linecap:butt;stroke-linejoin:miter;stroke-miterlimit:4;stroke-opacity:1"
       d="m 10.175781,28.59375 3.328125,-1.066406 -0.730468,3.648437 -3.3281255,1.121094 0.7304685,-3.703125"
       id="path834" /><path
       style="fill:#fafdfd;fill-opacity:1;fill-rule:nonzero;stroke:none"
       d="m 11.34375,28.648438 -0.191406,0.960937 -0.796875,0.269531 -0.164063,0.804688 0.800782,-0.265625 -0.179688,0.953125 0.675781,-0.230469 0.199219,-0.953125 0.789062,-0.269531 0.164063,-0.816407 -0.804687,0.277344 0.191406,-0.960937 -0.683594,0.230469"
       id="path836" /><path
       style="fill:#ffffff;fill-opacity:1;fill-rule:nonzero;stroke:#fafdfd;stroke-width:0.25;stroke-linecap:butt;stroke-linejoin:miter;stroke-miterlimit:4;stroke-opacity:1"
       d="m 11.34375,28.648438 -0.191406,0.960937 -0.796875,0.269531 -0.164063,0.804688 0.800782,-0.265625 -0.179688,0.953125 0.675781,-0.230469 0.199219,-0.953125 0.789063,-0.269531 0.164062,-0.816406 -0.804687,0.277343 0.191406,-0.960937 -0.683594,0.230469"
       id="path838" /><path
       style="fill:#ffffff;fill-opacity:1;fill-rule:nonzero;stroke:none"
       d="m 21.230469,27.515625 -0.394531,2.226563 h -5.074219 l -0.378907,1.976562 c 2.84375,0 4.589844,1.132812 4.589844,3.71875 0,1.757812 -0.960937,3.027344 -2.289062,3.789062 h -6.664063 l 0.449219,-2.328124 c 0.9375,0.570312 1.878906,0.714843 2.683594,0.714843 1.382812,0 2.671875,-0.589843 2.671875,-1.996093 0,-1.34375 -1.171875,-1.78125 -2.382813,-1.78125 -0.804687,0 -1.558594,0.101562 -2.269531,0.261718 l 1.332031,-6.582031 h 7.726563"
       id="path840" /></g><path
     style="fill:#ffffff;fill-opacity:1;fill-rule:nonzero;stroke:none"
     d="m 17.726032,44.168531 c 0.898437,-9.699219 -3.71875,-9.242188 -5.824219,-9.242188 0.378906,0.824219 0.332031,0.800781 0.917969,2.089844 0,1.132813 -0.917969,0.863281 -0.917969,0.863281 0,0 -2.6015635,-2.109375 -4.5898445,-3.914062 -0.566406,-0.472656 0,-0.910156 0,-0.910156 2.035157,-1.898438 2.8007815,-2.519532 4.5898445,-4.105469 0.371094,-0.320313 1.269531,-0.01563 0.917969,0.890625 -0.402344,1.0625 -0.539063,1.035156 -0.917969,1.988281 8.835938,0 9.38672,6.132813 9.38672,12.339844 -1.855469,0 -3.562501,0 -3.562501,0"
     id="path1" /><path
     id="path69-7-3"
     style="fill:#ffffff;fill-opacity:1;fill-rule:nonzero;stroke:none;stroke-width:1.1334"
     d="m 12.711697,8.1722781 v 0.7437988 h -1.125652 c -0.221367,0 -0.500292,5.42e-4 -0.65082,0.124607 -0.146112,0.132846 -0.193703,0.301064 -0.25568,0.504715 l -0.249037,0.8151851 h 6.733995 l 0.235755,-0.6906601 -1.062564,-0.257351 v -0.496395 h 2.39077 v 0.753746 h -0.57611 l -0.25236,0.6906601 1.288359,3.134569 c 0.31877,-0.08401 0.66023,-0.151135 1.001136,-0.151135 2.107417,0 3.811945,1.705095 3.811945,3.803645 0,2.102989 -1.704528,3.801995 -3.811945,3.801995 -1.859486,0 -3.413487,-1.332623 -3.745537,-3.094716 l -0.828468,-0.004 c -0.19923,0 -0.45159,0 -0.650819,-0.07978 -0.208086,-0.06653 -0.389608,-0.221357 -0.544566,-0.371889 L 9.7365205,12.719004 9.4708804,13.550791 c 1.4477406,0.544569 2.5103046,1.913186 2.5103046,3.551296 0,2.098569 -1.708956,3.811944 -3.8119446,3.811944 -2.107419,0 -3.821909,-1.713375 -3.821909,-3.811944 0,-2.09855 1.71449,-3.80696 3.821909,-3.80696 0.208084,0 0.394032,0.02553 0.5976891,0.05647 l 1.145577,-4.0194901 c 0.07969,-0.270074 0.1865075,-0.598231 0.3768785,-0.788617 0.221369,-0.2257986 0.588284,-0.3719093 1.017736,-0.3719093 z m 4.213729,2.9004709 h -6.69415 l -0.229115,0.805217 5.00733,5.047174 z m 0.634218,0.483131 -1.829601,5.533619 h 0.650818 c 0.02212,-1.461027 0.872187,-2.732211 2.098563,-3.352047 z m -9.4036866,2.566746 c -1.646972,0 -2.98846,1.333206 -2.98846,2.980158 0,1.646972 1.341488,2.980158 2.98846,2.980158 1.6513991,0 2.9884596,-1.333186 2.9884596,-2.980158 0,-1.252936 -0.78032,-2.329331 -1.8827306,-2.767644 l -0.800243,2.882201 c -0.04428,0.154954 -0.194808,0.368031 -0.504717,0.283902 -0.305486,-0.08843 -0.280027,-0.358063 -0.235755,-0.499732 l 0.806883,-2.855652 c -0.119541,-0.01407 -0.247929,-0.02331 -0.371897,-0.02331 z m 12.0202486,0.04481 c -0.243503,0 -0.483134,0.02714 -0.70893,0.08461 l 1.027699,2.550146 c 0.06198,0.17264 0.251805,0.548428 0.101271,0.791953 -0.181524,0.283338 -0.628681,0.265632 -0.916461,0.265632 l -2.409029,0.004 c 0.323198,1.301652 1.50198,2.266244 2.905447,2.266244 1.646974,0 2.98846,-1.336501 2.98846,-2.983474 0,-1.64255 -1.341486,-2.980178 -2.98846,-2.980178 z m -1.407896,0.345341 c -0.938599,0.50914 -1.567281,1.443305 -1.567281,2.576719 h 2.585018 z" /></svg>
