<?xml version="1.0" encoding="UTF-8" standalone="no"?>
<svg
   xmlns:dc="http://purl.org/dc/elements/1.1/"
   xmlns:cc="http://creativecommons.org/ns#"
   xmlns:rdf="http://www.w3.org/1999/02/22-rdf-syntax-ns#"
   xmlns:svg="http://www.w3.org/2000/svg"
   xmlns="http://www.w3.org/2000/svg"
   xmlns:sodipodi="http://sodipodi.sourceforge.net/DTD/sodipodi-0.dtd"
   xmlns:inkscape="http://www.inkscape.org/namespaces/inkscape"
   width="29pt"
   height="44pt"
   viewBox="0 0 29 44"
   version="1.1"
   id="svg6552"
   sodipodi:docname="451-2.svg"
   inkscape:version="1.0.2 (e86c870879, 2021-01-15, custom)">
  <metadata
     id="metadata6558">
    <rdf:RDF>
      <cc:Work
         rdf:about="">
        <dc:format>image/svg+xml</dc:format>
        <dc:type
           rdf:resource="http://purl.org/dc/dcmitype/StillImage" />
      </cc:Work>
    </rdf:RDF>
  </metadata>
  <defs
     id="defs6556" />
  <sodipodi:namedview
     pagecolor="#ffffff"
     bordercolor="#666666"
     borderopacity="1"
     objecttolerance="10"
     gridtolerance="10"
     guidetolerance="10"
     inkscape:pageopacity="0"
     inkscape:pageshadow="2"
     inkscape:window-width="1920"
     inkscape:window-height="1017"
     id="namedview6554"
     showgrid="false"
     inkscape:zoom="10.245013"
     inkscape:cx="8.6729382"
     inkscape:cy="24.199674"
     inkscape:window-x="5752"
     inkscape:window-y="-8"
     inkscape:window-maximized="1"
     inkscape:current-layer="svg6552" />
  <rect
     style="fill:#ffffff;stroke:#ffffff;stroke-width:0.075"
     id="rect7123"
     width="28.0625"
     height="42.238281"
     x="0.48828098"
     y="1.054688" />
  <path
     style="fill:#211e1e;fill-opacity:1;fill-rule:nonzero;stroke:none"
     d="M 0.34375,0.914062 H 28.691406 V 43.433594 H 0.34375 V 0.914062 m 0.144531,0.140626 v 42.238281 h 28.0625 V 1.054688 h -28.0625"
     id="path6547" />
  <path
     style="fill:#ae1e19;fill-opacity:1;fill-rule:nonzero;stroke:none"
     d="m 1.769531,2.328125 h 25.5 v 39.699219 h -25.5 V 2.328125 m 10.328125,35.871094 c -0.898437,-9.699219 3.71875,-9.242188 5.824219,-9.242188 -0.378906,0.824219 -0.332031,0.800781 -0.917969,2.089844 0,1.132813 0.917969,0.863281 0.917969,0.863281 0,0 2.601563,-2.109375 4.589844,-3.914062 0.566406,-0.472656 0,-0.910156 0,-0.910156 -2.035157,-1.898438 -2.800781,-2.519532 -4.589844,-4.105469 -0.371094,-0.320313 -1.269531,-0.01563 -0.917969,0.890625 0.402344,1.0625 0.539063,1.035156 0.917969,1.988281 -8.835937,0 -9.386719,6.132813 -9.386719,12.339844 1.855469,0 3.5625,0 3.5625,0 m 7.160156,-26.394531 c -0.101562,-0.02734 -0.277343,-0.07422 -0.527343,-0.136719 -0.964844,-0.238281 -1.664063,-0.453125 -2.097657,-0.640625 -0.832031,-0.363282 -1.246093,-0.804688 -1.246093,-1.328125 0,-0.125 0.02344,-0.253907 0.07422,-0.386719 C 15.800782,8.421875 16.117189,7.59375 16.41797,6.816406 16.269531,6.730469 16.097656,6.6875 15.90625,6.6875 c -0.207031,0 -0.539062,0.066406 -0.992188,0.203125 -0.492187,0.144531 -0.863281,0.21875 -1.105468,0.21875 -0.28125,0 -0.53125,-0.070313 -0.746094,-0.203125 -0.01172,-0.00391 -0.01953,-0.00781 -0.02344,-0.011719 -0.03125,0.00781 -0.07422,0.054688 -0.128906,0.140625 -0.06641,0.101563 -0.128906,0.242188 -0.1875,0.414063 -0.105468,0.296875 -0.164062,0.527343 -0.179687,0.699219 -0.05078,0.679687 -0.1875,1.261718 -0.414063,1.753906 -0.136718,0.289062 -0.355468,0.625 -0.65625,1.007812 -0.246094,0.316406 -0.398437,0.566406 -0.457031,0.746094 -0.140625,0.421875 -0.207031,0.753906 -0.207031,0.988281 0,0.164063 0.03125,0.296875 0.09766,0.394531 0.06641,0.105469 0.179688,0.1875 0.335938,0.253907 0.351562,0.148437 0.988281,0.226562 1.914062,0.230469 0.175781,0.0039 0.351562,0.0039 0.523438,0.0039 0.363281,0 0.839843,-0.0039 1.425781,-0.0078 0.558593,-0.0039 1,-0.0078 1.324219,-0.0078 0.527343,0 1.097656,0.0039 1.714843,0.01172 0.230469,-0.0078 0.496094,-0.113282 0.792969,-0.320313 0.296875,-0.210937 0.484375,-0.417969 0.5625,-0.625 l 0.0039,-0.0039 c 0.05078,-0.136719 0.07813,-0.265625 0.07813,-0.378907 0,-0.203124 -0.109375,-0.332031 -0.324219,-0.390624 m 0.140626,-0.488282 c -0.08984,-0.02344 -0.265626,-0.07031 -0.542969,-0.136718 -0.9375,-0.234376 -1.609375,-0.4375 -2.015625,-0.617188 C 16.210938,10.289062 15.898438,10 15.898438,9.699219 c 0,-0.066407 0.01172,-0.136719 0.04297,-0.210938 0.339844,-0.898437 0.660156,-1.730469 0.953125,-2.492187 L 17.046875,6.597656 16.675781,6.378906 C 16.449219,6.246094 16.191406,6.179688 15.90625,6.179688 c -0.253906,0 -0.632812,0.074218 -1.136719,0.226562 -0.445312,0.128906 -0.765625,0.195312 -0.960937,0.195312 -0.179688,0 -0.339844,-0.042968 -0.472656,-0.125 C 13.277344,6.441406 13.21875,6.417969 13.160156,6.402344 L 13.035156,6.375 12.914062,6.40625 c -0.160156,0.042969 -0.304687,0.160156 -0.433593,0.355469 -0.08594,0.136719 -0.164063,0.3125 -0.238281,0.523437 -0.117188,0.332032 -0.1875,0.605469 -0.207032,0.816406 v 0.015626 c -0.04687,0.613281 -0.167968,1.140624 -0.371094,1.574218 -0.117187,0.253906 -0.316406,0.554688 -0.589843,0.90625 -0.289063,0.367188 -0.46875,0.667969 -0.542969,0.902344 -0.15625,0.472656 -0.234375,0.855469 -0.234375,1.144531 0,0.261719 0.0625,0.488281 0.183594,0.671875 0.121093,0.1875 0.308593,0.332032 0.5625,0.441406 0.414062,0.171876 1.117187,0.265626 2.113281,0.269532 0.121094,0 0.296875,0 0.527344,0 0.363281,0 0.839844,0 1.429687,-0.0039 0.554688,-0.0039 0.992188,-0.0078 1.316407,-0.0078 0.527343,0 1.097656,0.0039 1.710937,0.01172 h 0.02344 c 0.332032,-0.01172 0.6875,-0.148438 1.066407,-0.414063 0.382812,-0.269531 0.632812,-0.554687 0.75,-0.859375 0.07422,-0.195312 0.113281,-0.382812 0.113281,-0.558594 0,-0.460937 -0.230469,-0.753906 -0.695312,-0.878906 m -9.609376,3.765625 c -0.507812,0 -0.921874,0.40625 -0.921874,0.910157 0,0.503906 0.414062,0.910156 0.921874,0.910156 0.507813,0 0.921876,-0.40625 0.921876,-0.910156 0,-0.503907 -0.414063,-0.910157 -0.921876,-0.910157 m 0,-0.5 c -0.789062,0 -1.425781,0.632813 -1.425781,1.410157 0,0.777343 0.636719,1.40625 1.425781,1.40625 0.785157,0 1.421876,-0.628907 1.421876,-1.40625 0,-0.777344 -0.636719,-1.410157 -1.421876,-1.410157 m 3.390626,0.5 c -0.511719,0 -0.921876,0.40625 -0.921876,0.910157 0,0.503906 0.410157,0.910156 0.921876,0.910156 0.507812,0 0.921874,-0.40625 0.921874,-0.910156 0,-0.503907 -0.414062,-0.910157 -0.921874,-0.910157 m 0,-0.5 c -0.789063,0 -1.425782,0.632813 -1.425782,1.410157 0,0.777343 0.636719,1.40625 1.425782,1.40625 0.785156,0 1.421874,-0.628907 1.421874,-1.40625 0,-0.777344 -0.636718,-1.410157 -1.421874,-1.410157 m 3.394531,0.5 c -0.507813,0 -0.921875,0.40625 -0.921875,0.910157 0,0.503906 0.414062,0.910156 0.921875,0.910156 0.507812,0 0.921875,-0.40625 0.921875,-0.910156 0,-0.503907 -0.414063,-0.910157 -0.921875,-0.910157 m 0,-0.5 c -0.789063,0 -1.425781,0.632813 -1.425781,1.410157 0,0.777343 0.636718,1.40625 1.425781,1.40625 0.785156,0 1.421875,-0.628907 1.421875,-1.40625 0,-0.777344 -0.636719,-1.410157 -1.421875,-1.410157 m 3.394531,0.5 c -0.507812,0 -0.921875,0.40625 -0.921875,0.910157 0,0.503906 0.414063,0.910156 0.921875,0.910156 0.507812,0 0.921875,-0.40625 0.921875,-0.910156 0,-0.503907 -0.414063,-0.910157 -0.921875,-0.910157 m 0,-0.5 c -0.785156,0 -1.425781,0.632813 -1.425781,1.410157 0,0.777343 0.640625,1.40625 1.425781,1.40625 0.785156,0 1.425781,-0.628907 1.425781,-1.40625 0,-0.777344 -0.640625,-1.410157 -1.425781,-1.410157"
     id="path6549" />
</svg>
