<?xml version="1.0" encoding="UTF-8" standalone="no"?>
<svg
   xmlns:dc="http://purl.org/dc/elements/1.1/"
   xmlns:cc="http://creativecommons.org/ns#"
   xmlns:rdf="http://www.w3.org/1999/02/22-rdf-syntax-ns#"
   xmlns:svg="http://www.w3.org/2000/svg"
   xmlns="http://www.w3.org/2000/svg"
   xmlns:sodipodi="http://sodipodi.sourceforge.net/DTD/sodipodi-0.dtd"
   xmlns:inkscape="http://www.inkscape.org/namespaces/inkscape"
   width="75pt"
   height="22pt"
   viewBox="0 0 75 22"
   version="1.1"
   id="svg6731"
   sodipodi:docname="451-1-d.svg"
   inkscape:version="1.0.2 (e86c870879, 2021-01-15, custom)">
  <metadata
     id="metadata6737">
    <rdf:RDF>
      <cc:Work
         rdf:about="">
        <dc:format>image/svg+xml</dc:format>
        <dc:type
           rdf:resource="http://purl.org/dc/dcmitype/StillImage" />
        <dc:title></dc:title>
      </cc:Work>
    </rdf:RDF>
  </metadata>
  <defs
     id="defs6735" />
  <sodipodi:namedview
     pagecolor="#ffffff"
     bordercolor="#666666"
     borderopacity="1"
     objecttolerance="10"
     gridtolerance="10"
     guidetolerance="10"
     inkscape:pageopacity="0"
     inkscape:pageshadow="2"
     inkscape:window-width="1920"
     inkscape:window-height="1017"
     id="namedview6733"
     showgrid="false"
     inkscape:zoom="4.6068007"
     inkscape:cx="3.8376036"
     inkscape:cy="12.873298"
     inkscape:window-x="5752"
     inkscape:window-y="-8"
     inkscape:window-maximized="1"
     inkscape:current-layer="svg6731" />
  <g
     id="surface1">
    <path
       style=" stroke:none;fill-rule:nonzero;fill:rgb(13.729858%,12.159729%,12.548828%);fill-opacity:1;"
       d="M 0.703125 0.542969 L 61.644531 0.542969 L 74.40625 11.226562 L 61.644531 21.800781 L 0.703125 21.800781 L 0.703125 0.542969 M 0.847656 0.683594 L 0.847656 21.660156 L 61.59375 21.660156 L 74.183594 11.226562 L 61.59375 0.683594 L 0.847656 0.683594 "
       id="path6712" />
    <path
       style=" stroke:none;fill-rule:nonzero;fill:rgb(68.630981%,12.666321%,10.813904%);fill-opacity:1;"
       d="M 2.277344 1.964844 L 61.65625 1.964844 L 70.15625 11.226562 L 61.65625 20.351562 L 2.277344 20.351562 L 2.277344 1.964844 M 27.222656 10.875 L 26.3125 13.136719 C 26.257812 13.289062 26.089844 13.625 26.222656 13.839844 C 26.382812 14.09375 26.777344 14.074219 27.035156 14.074219 L 29.167969 14.078125 C 28.882812 15.234375 27.835938 16.089844 26.597656 16.089844 C 25.136719 16.089844 23.949219 14.90625 23.949219 13.445312 C 23.949219 11.988281 25.136719 10.800781 26.597656 10.800781 C 26.8125 10.800781 27.023438 10.828125 27.222656 10.875 M 29.476562 8.058594 L 35.402344 8.058594 L 35.605469 8.773438 L 31.171875 13.25 L 29.476562 8.058594 M 28.097656 10.421875 L 28.914062 8.488281 L 30.53125 13.394531 L 29.957031 13.394531 C 29.9375 12.097656 29.183594 10.96875 28.097656 10.421875 M 36.261719 10.953125 L 36.972656 13.507812 C 37.011719 13.644531 37.148438 13.835938 37.417969 13.757812 C 37.691406 13.679688 37.664062 13.441406 37.628906 13.316406 L 36.914062 10.785156 C 37.019531 10.769531 37.132812 10.765625 37.242188 10.765625 C 38.703125 10.765625 39.890625 11.949219 39.890625 13.40625 C 39.890625 14.863281 38.703125 16.046875 37.242188 16.046875 C 35.78125 16.046875 34.59375 14.863281 34.59375 13.40625 C 34.59375 12.292969 35.285156 11.339844 36.261719 10.953125 M 27.472656 10.207031 L 28.609375 7.425781 L 28.386719 6.8125 L 27.878906 6.8125 L 27.878906 6.148438 L 29.996094 6.148438 L 29.996094 6.585938 L 29.050781 6.8125 L 29.261719 7.425781 L 35.226562 7.425781 L 35.007812 6.703125 C 34.953125 6.523438 34.910156 6.375 34.777344 6.257812 C 34.644531 6.148438 34.398438 6.148438 34.203125 6.148438 L 33.207031 6.148438 L 33.207031 5.488281 L 34.449219 5.488281 C 34.832031 5.488281 35.15625 5.613281 35.351562 5.816406 C 35.523438 5.984375 35.617188 6.277344 35.683594 6.515625 L 36.703125 10.082031 C 36.882812 10.050781 37.046875 10.03125 37.230469 10.03125 C 39.097656 10.03125 40.613281 11.542969 40.613281 13.40625 C 40.613281 15.269531 39.097656 16.785156 37.230469 16.785156 C 35.367188 16.785156 33.855469 15.269531 33.855469 13.40625 C 33.855469 11.957031 34.796875 10.742188 36.078125 10.257812 L 35.84375 9.519531 L 31.695312 13.667969 C 31.554688 13.800781 31.398438 13.9375 31.210938 14 C 31.035156 14.070312 30.8125 14.070312 30.632812 14.070312 L 29.898438 14.074219 C 29.605469 15.636719 28.230469 16.820312 26.582031 16.820312 C 24.71875 16.820312 23.207031 15.308594 23.207031 13.445312 C 23.207031 11.585938 24.71875 10.074219 26.582031 10.074219 C 26.886719 10.074219 27.1875 10.128906 27.472656 10.207031 M 27.839844 11.109375 C 28.671875 11.558594 29.230469 12.386719 29.230469 13.394531 L 26.941406 13.394531 L 27.839844 11.109375 M 57.117188 11.296875 C 57.335938 11.359375 57.445312 11.492188 57.445312 11.695312 C 57.445312 11.808594 57.414062 11.9375 57.363281 12.078125 L 57.359375 12.078125 L 57.359375 12.082031 C 57.28125 12.289062 57.09375 12.5 56.796875 12.710938 C 56.5 12.921875 56.234375 13.03125 56.003906 13.039062 C 55.386719 13.03125 54.816406 13.023438 54.289062 13.023438 C 53.964844 13.023438 53.523438 13.027344 52.964844 13.03125 C 52.378906 13.035156 51.902344 13.039062 51.539062 13.039062 C 51.367188 13.039062 51.191406 13.039062 51.015625 13.039062 C 50.089844 13.03125 49.453125 12.953125 49.101562 12.804688 C 48.945312 12.738281 48.832031 12.652344 48.765625 12.550781 C 48.699219 12.449219 48.664062 12.316406 48.664062 12.148438 C 48.664062 11.910156 48.734375 11.578125 48.875 11.148438 C 48.929688 10.96875 49.085938 10.71875 49.332031 10.398438 C 49.632812 10.011719 49.851562 9.671875 49.984375 9.378906 C 50.214844 8.882812 50.351562 8.292969 50.402344 7.609375 L 50.402344 7.605469 C 50.417969 7.433594 50.476562 7.199219 50.582031 6.902344 C 50.640625 6.726562 50.707031 6.585938 50.769531 6.480469 C 50.824219 6.398438 50.867188 6.347656 50.898438 6.339844 C 50.90625 6.34375 50.910156 6.347656 50.921875 6.351562 C 51.136719 6.488281 51.386719 6.554688 51.667969 6.554688 C 51.910156 6.554688 52.28125 6.484375 52.773438 6.335938 C 53.226562 6.199219 53.558594 6.132812 53.765625 6.132812 C 53.957031 6.132812 54.128906 6.175781 54.277344 6.261719 C 53.976562 7.042969 53.660156 7.886719 53.320312 8.78125 C 53.269531 8.914062 53.246094 9.042969 53.246094 9.171875 C 53.246094 9.703125 53.660156 10.148438 54.492188 10.515625 C 54.925781 10.707031 55.625 10.921875 56.59375 11.164062 C 56.839844 11.226562 57.015625 11.269531 57.117188 11.296875 M 57.257812 10.804688 C 57.722656 10.933594 57.957031 11.230469 57.957031 11.695312 C 57.957031 11.871094 57.917969 12.058594 57.839844 12.257812 C 57.722656 12.566406 57.472656 12.855469 57.09375 13.125 C 56.710938 13.394531 56.355469 13.535156 56.023438 13.546875 L 56 13.546875 C 55.386719 13.539062 54.816406 13.53125 54.289062 13.53125 C 53.96875 13.53125 53.527344 13.535156 52.972656 13.539062 C 52.382812 13.542969 51.90625 13.546875 51.539062 13.546875 C 51.3125 13.546875 51.136719 13.546875 51.015625 13.546875 C 50.019531 13.539062 49.316406 13.449219 48.902344 13.269531 C 48.648438 13.164062 48.460938 13.015625 48.339844 12.824219 C 48.21875 12.640625 48.15625 12.414062 48.15625 12.148438 C 48.15625 11.855469 48.234375 11.46875 48.390625 10.992188 C 48.464844 10.753906 48.648438 10.449219 48.929688 10.082031 C 49.207031 9.726562 49.40625 9.421875 49.523438 9.164062 C 49.726562 8.726562 49.847656 8.195312 49.894531 7.574219 L 49.894531 7.558594 C 49.914062 7.34375 49.984375 7.070312 50.097656 6.734375 C 50.171875 6.519531 50.253906 6.34375 50.339844 6.207031 C 50.46875 6.007812 50.609375 5.890625 50.773438 5.847656 L 50.894531 5.816406 L 51.019531 5.84375 C 51.078125 5.859375 51.136719 5.882812 51.195312 5.917969 C 51.328125 6.003906 51.484375 6.042969 51.667969 6.042969 C 51.863281 6.042969 52.183594 5.976562 52.628906 5.84375 C 53.132812 5.695312 53.511719 5.617188 53.765625 5.617188 C 54.050781 5.617188 54.304688 5.6875 54.535156 5.820312 L 54.90625 6.039062 L 54.753906 6.441406 C 54.460938 7.214844 54.144531 8.050781 53.796875 8.960938 C 53.769531 9.035156 53.757812 9.105469 53.757812 9.171875 C 53.757812 9.476562 54.070312 9.769531 54.699219 10.046875 C 55.105469 10.226562 55.777344 10.433594 56.71875 10.667969 C 56.988281 10.734375 57.167969 10.78125 57.257812 10.804688 M 47.648438 14.609375 C 48.15625 14.609375 48.570312 15.019531 48.570312 15.53125 C 48.570312 16.039062 48.15625 16.449219 47.648438 16.449219 C 47.140625 16.449219 46.726562 16.039062 46.726562 15.53125 C 46.726562 15.019531 47.140625 14.609375 47.648438 14.609375 M 47.648438 14.105469 C 48.433594 14.105469 49.070312 14.742188 49.070312 15.53125 C 49.070312 16.316406 48.433594 16.953125 47.648438 16.953125 C 46.859375 16.953125 46.222656 16.316406 46.222656 15.53125 C 46.222656 14.742188 46.859375 14.105469 47.648438 14.105469 M 51.035156 14.609375 C 51.546875 14.609375 51.960938 15.019531 51.960938 15.53125 C 51.960938 16.039062 51.546875 16.449219 51.035156 16.449219 C 50.527344 16.449219 50.117188 16.039062 50.117188 15.53125 C 50.117188 15.019531 50.527344 14.609375 51.035156 14.609375 M 51.035156 14.105469 C 51.824219 14.105469 52.460938 14.742188 52.460938 15.53125 C 52.460938 16.316406 51.824219 16.953125 51.035156 16.953125 C 50.25 16.953125 49.613281 16.316406 49.613281 15.53125 C 49.613281 14.742188 50.25 14.105469 51.035156 14.105469 M 54.433594 14.609375 C 54.941406 14.609375 55.355469 15.019531 55.355469 15.53125 C 55.355469 16.039062 54.941406 16.449219 54.433594 16.449219 C 53.921875 16.449219 53.511719 16.039062 53.511719 15.53125 C 53.511719 15.019531 53.921875 14.609375 54.433594 14.609375 M 54.433594 14.105469 C 55.21875 14.105469 55.855469 14.742188 55.855469 15.53125 C 55.855469 16.316406 55.21875 16.953125 54.433594 16.953125 C 53.648438 16.953125 53.007812 16.316406 53.007812 15.53125 C 53.007812 14.742188 53.648438 14.105469 54.433594 14.105469 M 57.828125 14.609375 C 58.339844 14.609375 58.75 15.019531 58.75 15.53125 C 58.75 16.039062 58.339844 16.449219 57.828125 16.449219 C 57.320312 16.449219 56.90625 16.039062 56.90625 15.53125 C 56.90625 15.019531 57.320312 14.609375 57.828125 14.609375 M 57.828125 14.105469 C 58.613281 14.105469 59.253906 14.742188 59.253906 15.53125 C 59.253906 16.316406 58.613281 16.953125 57.828125 16.953125 C 57.042969 16.953125 56.40625 16.316406 56.40625 15.53125 C 56.40625 14.742188 57.042969 14.105469 57.828125 14.105469 "
       id="path6714" />
    <path
       style=" stroke:none;fill-rule:nonzero;fill:rgb(10.112%,40.585327%,73.280334%);fill-opacity:1;"
       d="M 3.699219 3.300781 L 19.480469 3.300781 L 19.480469 19.070312 L 3.699219 19.070312 L 3.699219 3.300781 "
       id="path6716" />
    <path
       style=" stroke:none;fill-rule:nonzero;fill:rgb(13.729858%,12.159729%,12.548828%);fill-opacity:1;"
       d="M 19.046875 8.816406 L 18.621094 8.871094 L 18.621094 8.789062 L 18.945312 8.742188 L 18.621094 8.566406 L 18.621094 8.472656 L 19.046875 8.707031 L 19.046875 8.816406 M 18.855469 8.445312 C 18.839844 8.4375 18.820312 8.425781 18.800781 8.410156 C 18.792969 8.402344 18.785156 8.382812 18.785156 8.355469 C 18.785156 8.320312 18.800781 8.300781 18.839844 8.300781 C 18.847656 8.300781 18.847656 8.300781 18.855469 8.300781 L 18.855469 8.445312 M 18.910156 8.230469 L 18.910156 8.457031 C 18.945312 8.457031 18.964844 8.445312 18.976562 8.425781 C 18.992188 8.421875 18.992188 8.390625 18.992188 8.367188 C 18.992188 8.339844 18.980469 8.300781 18.976562 8.277344 L 19.035156 8.285156 C 19.035156 8.300781 19.046875 8.3125 19.046875 8.332031 C 19.054688 8.347656 19.054688 8.367188 19.054688 8.382812 C 19.054688 8.425781 19.046875 8.464844 19.019531 8.492188 C 19 8.519531 18.964844 8.527344 18.921875 8.535156 C 18.886719 8.535156 18.847656 8.527344 18.820312 8.511719 C 18.792969 8.492188 18.765625 8.472656 18.746094 8.445312 C 18.730469 8.421875 18.722656 8.390625 18.722656 8.355469 C 18.722656 8.3125 18.730469 8.285156 18.757812 8.257812 C 18.777344 8.242188 18.800781 8.230469 18.847656 8.230469 C 18.867188 8.230469 18.890625 8.230469 18.910156 8.230469 M 19.046875 8.203125 L 18.585938 8.105469 L 18.585938 8.023438 L 19.046875 8.121094 L 19.046875 8.203125 M 18.722656 7.835938 C 18.722656 7.789062 18.742188 7.761719 18.757812 7.738281 C 18.785156 7.707031 18.820312 7.691406 18.867188 7.691406 C 18.902344 7.691406 18.929688 7.703125 18.964844 7.71875 C 18.992188 7.738281 19.011719 7.753906 19.027344 7.78125 C 19.046875 7.808594 19.054688 7.84375 19.054688 7.882812 C 19.054688 7.921875 19.035156 7.960938 19.011719 7.988281 C 18.992188 8.007812 18.957031 8.023438 18.910156 8.023438 C 18.875 8.023438 18.839844 8.015625 18.8125 7.996094 C 18.785156 7.976562 18.765625 7.960938 18.746094 7.933594 C 18.730469 7.90625 18.722656 7.871094 18.722656 7.835938 M 18.992188 7.871094 C 18.992188 7.898438 18.980469 7.917969 18.964844 7.921875 C 18.957031 7.933594 18.9375 7.933594 18.921875 7.933594 C 18.890625 7.933594 18.875 7.933594 18.855469 7.921875 C 18.839844 7.917969 18.820312 7.90625 18.8125 7.886719 C 18.792969 7.882812 18.785156 7.863281 18.785156 7.84375 C 18.785156 7.816406 18.792969 7.796875 18.8125 7.789062 C 18.820312 7.78125 18.839844 7.78125 18.867188 7.78125 C 18.886719 7.78125 18.902344 7.78125 18.921875 7.789062 C 18.9375 7.796875 18.957031 7.808594 18.964844 7.816406 C 18.980469 7.835938 18.992188 7.851562 18.992188 7.871094 M 19.046875 7.664062 L 18.585938 7.566406 L 18.585938 7.484375 L 19.046875 7.582031 L 19.046875 7.664062 M 18.957031 7.421875 C 18.945312 7.414062 18.929688 7.414062 18.921875 7.394531 C 18.910156 7.382812 18.910156 7.378906 18.902344 7.359375 C 18.902344 7.339844 18.902344 7.324219 18.902344 7.3125 L 18.902344 7.285156 C 18.929688 7.285156 18.945312 7.292969 18.964844 7.3125 C 18.980469 7.324219 18.992188 7.347656 18.992188 7.378906 C 18.992188 7.382812 18.992188 7.394531 18.980469 7.402344 C 18.980469 7.414062 18.976562 7.414062 18.957031 7.421875 M 19.046875 7.304688 L 19 7.292969 C 19.019531 7.3125 19.027344 7.324219 19.035156 7.339844 C 19.046875 7.359375 19.054688 7.378906 19.054688 7.394531 C 19.054688 7.429688 19.046875 7.449219 19.027344 7.46875 C 19.011719 7.484375 18.992188 7.492188 18.964844 7.492188 C 18.9375 7.492188 18.921875 7.484375 18.902344 7.472656 C 18.886719 7.46875 18.875 7.449219 18.867188 7.429688 C 18.867188 7.402344 18.855469 7.382812 18.855469 7.367188 C 18.855469 7.339844 18.847656 7.324219 18.847656 7.304688 L 18.847656 7.277344 C 18.839844 7.269531 18.839844 7.269531 18.820312 7.269531 C 18.8125 7.269531 18.800781 7.277344 18.800781 7.277344 C 18.792969 7.285156 18.792969 7.292969 18.785156 7.304688 C 18.785156 7.3125 18.785156 7.324219 18.785156 7.332031 C 18.785156 7.367188 18.792969 7.402344 18.8125 7.4375 L 18.742188 7.421875 C 18.730469 7.394531 18.722656 7.359375 18.722656 7.324219 C 18.722656 7.292969 18.730469 7.277344 18.730469 7.257812 C 18.742188 7.242188 18.746094 7.222656 18.765625 7.214844 C 18.777344 7.203125 18.792969 7.199219 18.820312 7.199219 C 18.832031 7.199219 18.847656 7.199219 18.867188 7.203125 C 18.886719 7.203125 18.902344 7.203125 18.929688 7.214844 C 18.945312 7.214844 18.976562 7.222656 18.992188 7.222656 C 19.011719 7.234375 19.027344 7.234375 19.046875 7.234375 L 19.046875 7.304688 M 19.046875 7.160156 L 18.777344 7.097656 C 18.757812 7.097656 18.742188 7.097656 18.730469 7.089844 L 18.730469 7.019531 L 18.765625 7.019531 C 18.746094 7.007812 18.742188 6.988281 18.742188 6.980469 C 18.730469 6.964844 18.722656 6.945312 18.722656 6.925781 C 18.722656 6.898438 18.730469 6.875 18.746094 6.855469 C 18.765625 6.835938 18.792969 6.828125 18.832031 6.828125 C 18.839844 6.828125 18.847656 6.828125 18.855469 6.828125 C 18.875 6.828125 18.886719 6.835938 18.890625 6.835938 L 19.046875 6.875 L 19.046875 6.953125 L 18.902344 6.917969 C 18.886719 6.917969 18.875 6.917969 18.867188 6.917969 C 18.855469 6.910156 18.847656 6.910156 18.832031 6.910156 C 18.820312 6.910156 18.8125 6.917969 18.800781 6.925781 C 18.792969 6.933594 18.785156 6.945312 18.785156 6.953125 C 18.785156 6.96875 18.792969 6.988281 18.800781 7 C 18.8125 7.019531 18.832031 7.023438 18.839844 7.023438 C 18.855469 7.035156 18.875 7.042969 18.886719 7.042969 L 19.046875 7.078125 L 19.046875 7.160156 M 18.785156 6.605469 C 18.785156 6.585938 18.792969 6.566406 18.8125 6.558594 C 18.832031 6.550781 18.847656 6.550781 18.867188 6.550781 C 18.886719 6.550781 18.902344 6.550781 18.921875 6.558594 C 18.9375 6.566406 18.957031 6.574219 18.964844 6.585938 C 18.980469 6.605469 18.992188 6.621094 18.992188 6.640625 C 18.992188 6.65625 18.980469 6.664062 18.976562 6.675781 C 18.976562 6.675781 18.957031 6.683594 18.945312 6.683594 C 18.9375 6.695312 18.929688 6.695312 18.910156 6.695312 C 18.902344 6.695312 18.886719 6.683594 18.867188 6.683594 C 18.839844 6.675781 18.820312 6.664062 18.8125 6.648438 C 18.792969 6.640625 18.785156 6.621094 18.785156 6.605469 M 18.585938 6.484375 L 18.585938 6.394531 L 18.976562 6.484375 C 18.992188 6.484375 19 6.484375 19.019531 6.496094 C 19.027344 6.496094 19.035156 6.496094 19.046875 6.496094 L 19.046875 6.574219 L 19 6.566406 C 19.019531 6.574219 19.027344 6.59375 19.035156 6.609375 C 19.046875 6.621094 19.054688 6.648438 19.054688 6.664062 C 19.054688 6.695312 19.046875 6.710938 19.035156 6.730469 C 19.019531 6.746094 19.011719 6.753906 18.980469 6.765625 C 18.964844 6.773438 18.945312 6.773438 18.921875 6.773438 C 18.890625 6.773438 18.855469 6.765625 18.832031 6.753906 C 18.800781 6.746094 18.777344 6.730469 18.757812 6.703125 C 18.742188 6.683594 18.722656 6.65625 18.722656 6.621094 C 18.722656 6.574219 18.742188 6.550781 18.765625 6.519531 L 18.585938 6.484375 M 18.632812 5.925781 L 18.707031 5.945312 C 18.695312 5.957031 18.6875 5.972656 18.6875 5.980469 C 18.6875 6 18.675781 6.019531 18.675781 6.035156 C 18.675781 6.046875 18.675781 6.054688 18.6875 6.066406 C 18.6875 6.070312 18.695312 6.082031 18.707031 6.089844 C 18.707031 6.101562 18.710938 6.101562 18.730469 6.105469 C 18.746094 6.101562 18.757812 6.101562 18.765625 6.082031 C 18.777344 6.066406 18.792969 6.054688 18.800781 6.027344 C 18.8125 6.011719 18.820312 6 18.839844 5.980469 C 18.855469 5.964844 18.886719 5.964844 18.910156 5.957031 C 18.945312 5.957031 18.976562 5.964844 18.992188 5.980469 C 19.011719 6 19.027344 6.019531 19.035156 6.046875 C 19.046875 6.070312 19.054688 6.101562 19.054688 6.136719 C 19.054688 6.15625 19.046875 6.171875 19.046875 6.199219 C 19.035156 6.214844 19.035156 6.234375 19.027344 6.25 L 18.957031 6.234375 C 18.964844 6.214844 18.976562 6.199219 18.976562 6.179688 C 18.980469 6.160156 18.980469 6.144531 18.980469 6.125 C 18.980469 6.117188 18.980469 6.101562 18.976562 6.089844 C 18.976562 6.082031 18.964844 6.066406 18.957031 6.066406 C 18.945312 6.054688 18.9375 6.046875 18.921875 6.046875 C 18.902344 6.046875 18.886719 6.054688 18.875 6.070312 C 18.867188 6.082031 18.855469 6.101562 18.847656 6.117188 C 18.832031 6.136719 18.820312 6.15625 18.800781 6.171875 C 18.792969 6.179688 18.765625 6.191406 18.742188 6.191406 C 18.710938 6.191406 18.6875 6.179688 18.667969 6.171875 C 18.652344 6.15625 18.632812 6.136719 18.621094 6.105469 C 18.613281 6.089844 18.613281 6.066406 18.613281 6.035156 C 18.613281 6 18.621094 5.964844 18.632812 5.925781 M 18.742188 5.632812 L 18.800781 5.652344 C 18.792969 5.667969 18.785156 5.6875 18.785156 5.710938 C 18.785156 5.730469 18.792969 5.746094 18.800781 5.765625 C 18.820312 5.785156 18.832031 5.792969 18.847656 5.800781 C 18.867188 5.8125 18.886719 5.8125 18.910156 5.8125 C 18.921875 5.8125 18.9375 5.8125 18.945312 5.8125 C 18.957031 5.800781 18.976562 5.792969 18.976562 5.785156 C 18.980469 5.777344 18.992188 5.765625 18.992188 5.746094 C 18.992188 5.730469 18.992188 5.722656 18.980469 5.710938 C 18.980469 5.703125 18.980469 5.6875 18.976562 5.675781 L 19.035156 5.6875 C 19.046875 5.703125 19.046875 5.710938 19.046875 5.722656 C 19.054688 5.742188 19.054688 5.746094 19.054688 5.765625 C 19.054688 5.800781 19.035156 5.835938 19.019531 5.867188 C 18.992188 5.882812 18.957031 5.902344 18.921875 5.902344 C 18.886719 5.902344 18.847656 5.890625 18.820312 5.875 C 18.792969 5.855469 18.765625 5.835938 18.746094 5.8125 C 18.730469 5.785156 18.722656 5.746094 18.722656 5.710938 C 18.722656 5.695312 18.730469 5.6875 18.730469 5.667969 C 18.730469 5.65625 18.730469 5.640625 18.742188 5.632812 M 19.046875 5.640625 L 18.585938 5.542969 L 18.585938 5.460938 L 18.765625 5.507812 L 18.765625 5.496094 C 18.746094 5.488281 18.742188 5.476562 18.742188 5.460938 C 18.730469 5.441406 18.722656 5.433594 18.722656 5.417969 C 18.722656 5.382812 18.730469 5.351562 18.746094 5.335938 C 18.765625 5.316406 18.792969 5.308594 18.832031 5.308594 C 18.839844 5.308594 18.847656 5.308594 18.855469 5.316406 C 18.875 5.316406 18.886719 5.316406 18.890625 5.316406 L 19.046875 5.351562 L 19.046875 5.433594 L 18.902344 5.40625 C 18.886719 5.398438 18.875 5.398438 18.867188 5.398438 C 18.855469 5.398438 18.847656 5.398438 18.832031 5.398438 C 18.820312 5.398438 18.8125 5.398438 18.800781 5.40625 C 18.792969 5.417969 18.785156 5.421875 18.785156 5.441406 C 18.785156 5.460938 18.792969 5.46875 18.800781 5.488281 C 18.8125 5.496094 18.832031 5.507812 18.839844 5.515625 C 18.855469 5.515625 18.875 5.523438 18.886719 5.523438 L 19.046875 5.558594 L 19.046875 5.640625 M 19.046875 5.199219 L 18.730469 5.242188 L 18.730469 5.164062 L 18.964844 5.136719 L 18.730469 5.019531 L 18.730469 4.929688 L 18.964844 4.914062 L 18.730469 4.792969 L 18.730469 4.714844 L 19.046875 4.882812 L 19.046875 4.972656 L 18.800781 4.992188 L 19.046875 5.109375 L 19.046875 5.199219 M 18.855469 4.632812 C 18.839844 4.632812 18.820312 4.613281 18.800781 4.605469 C 18.792969 4.589844 18.785156 4.570312 18.785156 4.554688 C 18.785156 4.519531 18.800781 4.5 18.839844 4.5 C 18.847656 4.5 18.847656 4.5 18.855469 4.5 L 18.855469 4.632812 M 18.910156 4.425781 L 18.910156 4.652344 C 18.945312 4.652344 18.964844 4.644531 18.976562 4.625 C 18.992188 4.605469 18.992188 4.589844 18.992188 4.558594 C 18.992188 4.523438 18.980469 4.5 18.976562 4.464844 L 19.035156 4.46875 C 19.035156 4.488281 19.046875 4.507812 19.046875 4.523438 C 19.054688 4.542969 19.054688 4.558594 19.054688 4.570312 C 19.054688 4.625 19.046875 4.660156 19.019531 4.6875 C 19 4.714844 18.964844 4.722656 18.921875 4.722656 C 18.886719 4.722656 18.847656 4.714844 18.820312 4.703125 C 18.792969 4.6875 18.765625 4.667969 18.746094 4.644531 C 18.730469 4.613281 18.722656 4.578125 18.722656 4.542969 C 18.722656 4.507812 18.730469 4.480469 18.757812 4.453125 C 18.777344 4.433594 18.800781 4.417969 18.847656 4.417969 C 18.867188 4.417969 18.890625 4.425781 18.910156 4.425781 M 18.675781 4.320312 L 18.597656 4.300781 L 18.597656 4.21875 L 18.675781 4.238281 L 18.675781 4.320312 M 19.046875 4.390625 L 18.730469 4.328125 L 18.730469 4.246094 L 19.046875 4.308594 L 19.046875 4.390625 M 18.730469 3.921875 L 18.792969 3.941406 L 18.980469 4.128906 L 18.980469 3.976562 L 19.046875 3.984375 L 19.046875 4.246094 L 18.980469 4.238281 L 18.792969 4.039062 L 18.792969 4.183594 L 18.730469 4.175781 L 18.730469 3.921875 M 4.796875 6.738281 L 4.707031 6.386719 C 4.691406 6.335938 4.671875 6.296875 4.644531 6.28125 C 4.617188 6.261719 4.59375 6.25 4.5625 6.261719 L 4.546875 6.261719 L 4.546875 6.738281 L 4.214844 6.738281 L 4.214844 5.507812 L 4.707031 5.507812 C 4.832031 5.507812 4.933594 5.53125 4.996094 5.585938 C 5.066406 5.640625 5.105469 5.722656 5.105469 5.835938 C 5.105469 5.902344 5.085938 5.945312 5.066406 5.980469 C 5.042969 6.027344 5.011719 6.054688 4.976562 6.070312 C 4.941406 6.101562 4.898438 6.105469 4.863281 6.117188 L 4.863281 6.125 C 4.886719 6.136719 4.90625 6.144531 4.925781 6.15625 C 4.953125 6.171875 4.960938 6.191406 4.976562 6.226562 C 4.996094 6.25 5.011719 6.296875 5.03125 6.351562 L 5.140625 6.738281 L 4.796875 6.738281 M 4.539062 6.019531 L 4.539062 5.742188 L 4.628906 5.742188 C 4.671875 5.742188 4.707031 5.757812 4.738281 5.785156 C 4.753906 5.8125 4.773438 5.847656 4.773438 5.882812 C 4.773438 5.925781 4.753906 5.957031 4.726562 5.980469 C 4.699219 6.011719 4.671875 6.019531 4.636719 6.019531 L 4.539062 6.019531 M 5.230469 6.28125 C 5.230469 6.199219 5.242188 6.117188 5.277344 6.046875 C 5.300781 5.972656 5.347656 5.910156 5.421875 5.867188 C 5.480469 5.820312 5.570312 5.800781 5.691406 5.792969 C 5.800781 5.800781 5.886719 5.820312 5.949219 5.867188 C 6.023438 5.910156 6.070312 5.972656 6.105469 6.046875 C 6.128906 6.117188 6.148438 6.199219 6.148438 6.28125 C 6.148438 6.371094 6.128906 6.441406 6.105469 6.515625 C 6.070312 6.59375 6.023438 6.648438 5.949219 6.695312 C 5.886719 6.738281 5.800781 6.765625 5.691406 6.765625 C 5.570312 6.765625 5.480469 6.738281 5.421875 6.695312 C 5.347656 6.648438 5.300781 6.59375 5.277344 6.515625 C 5.242188 6.441406 5.230469 6.371094 5.230469 6.28125 M 5.5625 6.28125 C 5.5625 6.234375 5.5625 6.191406 5.570312 6.15625 C 5.570312 6.105469 5.589844 6.082031 5.609375 6.054688 C 5.625 6.027344 5.65625 6.019531 5.691406 6.011719 C 5.726562 6.019531 5.75 6.027344 5.769531 6.054688 C 5.789062 6.082031 5.800781 6.105469 5.804688 6.15625 C 5.804688 6.191406 5.816406 6.234375 5.816406 6.28125 C 5.816406 6.324219 5.804688 6.371094 5.804688 6.40625 C 5.800781 6.449219 5.789062 6.484375 5.769531 6.503906 C 5.75 6.53125 5.726562 6.550781 5.691406 6.550781 C 5.65625 6.550781 5.625 6.53125 5.609375 6.503906 C 5.589844 6.484375 5.570312 6.449219 5.570312 6.40625 C 5.5625 6.371094 5.5625 6.324219 5.5625 6.28125 M 7.136719 5.820312 L 7.136719 6.585938 C 7.136719 6.621094 7.136719 6.65625 7.136719 6.683594 C 7.136719 6.710938 7.148438 6.730469 7.148438 6.738281 L 6.851562 6.738281 C 6.84375 6.71875 6.84375 6.695312 6.84375 6.664062 C 6.84375 6.640625 6.84375 6.609375 6.84375 6.585938 L 6.832031 6.585938 C 6.832031 6.605469 6.824219 6.628906 6.796875 6.65625 C 6.777344 6.683594 6.753906 6.703125 6.71875 6.730469 C 6.679688 6.746094 6.632812 6.765625 6.574219 6.765625 C 6.5 6.765625 6.429688 6.738281 6.375 6.695312 C 6.328125 6.640625 6.300781 6.566406 6.292969 6.46875 L 6.292969 5.820312 L 6.617188 5.820312 L 6.617188 6.371094 C 6.617188 6.460938 6.644531 6.503906 6.707031 6.503906 C 6.753906 6.503906 6.777344 6.484375 6.796875 6.449219 C 6.8125 6.421875 6.8125 6.386719 6.8125 6.351562 L 6.8125 5.820312 L 7.136719 5.820312 M 7.246094 6.035156 L 7.246094 5.820312 L 7.40625 5.820312 L 7.40625 5.621094 L 7.726562 5.523438 L 7.726562 5.820312 L 7.90625 5.820312 L 7.90625 6.035156 L 7.726562 6.035156 L 7.726562 6.421875 C 7.726562 6.46875 7.730469 6.496094 7.75 6.515625 C 7.777344 6.53125 7.796875 6.539062 7.832031 6.539062 C 7.859375 6.539062 7.886719 6.53125 7.90625 6.519531 L 7.914062 6.738281 C 7.886719 6.746094 7.859375 6.746094 7.820312 6.753906 C 7.785156 6.753906 7.75 6.765625 7.695312 6.765625 C 7.617188 6.765625 7.542969 6.738281 7.492188 6.695312 C 7.4375 6.648438 7.40625 6.574219 7.40625 6.496094 L 7.40625 6.035156 L 7.246094 6.035156 M 8.300781 6.199219 C 8.300781 6.136719 8.320312 6.082031 8.34375 6.046875 C 8.363281 6.011719 8.398438 5.992188 8.445312 5.992188 C 8.5 5.992188 8.523438 6.011719 8.550781 6.035156 C 8.570312 6.066406 8.578125 6.105469 8.578125 6.171875 L 8.578125 6.199219 L 8.300781 6.199219 M 8.867188 6.371094 L 8.308594 6.371094 C 8.320312 6.441406 8.34375 6.496094 8.378906 6.519531 C 8.425781 6.550781 8.480469 6.558594 8.542969 6.558594 C 8.589844 6.558594 8.632812 6.550781 8.679688 6.539062 C 8.722656 6.519531 8.769531 6.503906 8.8125 6.484375 L 8.8125 6.710938 C 8.777344 6.71875 8.734375 6.738281 8.679688 6.746094 C 8.625 6.753906 8.558594 6.765625 8.5 6.765625 C 8.371094 6.765625 8.273438 6.738281 8.199219 6.695312 C 8.136719 6.640625 8.085938 6.585938 8.054688 6.503906 C 8.03125 6.429688 8.011719 6.359375 8.011719 6.28125 C 8.011719 6.191406 8.03125 6.105469 8.066406 6.035156 C 8.09375 5.964844 8.144531 5.910156 8.210938 5.867188 C 8.273438 5.820312 8.34375 5.800781 8.445312 5.792969 C 8.535156 5.800781 8.613281 5.820312 8.679688 5.867188 C 8.738281 5.910156 8.785156 5.964844 8.824219 6.046875 C 8.847656 6.117188 8.867188 6.191406 8.867188 6.28125 L 8.867188 6.371094 M 4.761719 5.117188 L 4.511719 4.183594 L 4.511719 5.117188 L 4.214844 5.117188 L 4.214844 3.886719 L 4.707031 3.886719 L 4.871094 4.660156 L 4.882812 4.660156 L 5.0625 3.886719 L 5.535156 3.886719 L 5.535156 5.117188 L 5.242188 5.117188 L 5.242188 4.183594 L 5.230469 4.183594 L 4.96875 5.117188 L 4.761719 5.117188 M 5.746094 4.058594 L 5.746094 3.796875 L 6.070312 3.796875 L 6.070312 4.058594 L 5.746094 4.058594 M 5.746094 5.117188 L 5.746094 4.199219 L 6.070312 4.199219 L 6.070312 5.117188 L 5.746094 5.117188 M 6.195312 4.417969 L 6.195312 4.199219 L 6.34375 4.199219 L 6.34375 4.003906 L 6.667969 3.90625 L 6.667969 4.199219 L 6.851562 4.199219 L 6.851562 4.417969 L 6.667969 4.417969 L 6.667969 4.8125 C 6.667969 4.847656 6.679688 4.878906 6.699219 4.894531 C 6.71875 4.914062 6.742188 4.921875 6.769531 4.921875 C 6.804688 4.921875 6.832031 4.914062 6.851562 4.902344 L 6.859375 5.117188 C 6.832031 5.128906 6.804688 5.128906 6.769531 5.136719 C 6.734375 5.136719 6.6875 5.148438 6.644531 5.148438 C 6.554688 5.148438 6.480469 5.117188 6.429688 5.074219 C 6.382812 5.027344 6.34375 4.957031 6.34375 4.878906 L 6.34375 4.417969 L 6.195312 4.417969 M 6.914062 4.417969 L 6.914062 4.199219 L 7.066406 4.199219 L 7.066406 4.003906 L 7.390625 3.90625 L 7.390625 4.199219 L 7.570312 4.199219 L 7.570312 4.417969 L 7.390625 4.417969 L 7.390625 4.8125 C 7.390625 4.847656 7.402344 4.878906 7.417969 4.894531 C 7.4375 4.914062 7.460938 4.921875 7.492188 4.921875 C 7.527344 4.921875 7.550781 4.914062 7.570312 4.902344 L 7.582031 5.117188 C 7.550781 5.128906 7.527344 5.128906 7.492188 5.136719 C 7.453125 5.136719 7.40625 5.148438 7.363281 5.148438 C 7.273438 5.148438 7.203125 5.117188 7.15625 5.074219 C 7.101562 5.027344 7.078125 4.957031 7.066406 4.878906 L 7.066406 4.417969 L 6.914062 4.417969 M 7.964844 4.578125 C 7.964844 4.519531 7.984375 4.46875 8.011719 4.425781 C 8.03125 4.390625 8.066406 4.375 8.109375 4.375 C 8.15625 4.375 8.191406 4.390625 8.210938 4.417969 C 8.234375 4.445312 8.246094 4.5 8.246094 4.554688 L 8.246094 4.578125 L 7.964844 4.578125 M 8.535156 4.75 L 7.976562 4.75 C 7.984375 4.824219 8 4.878906 8.050781 4.902344 C 8.09375 4.929688 8.144531 4.9375 8.210938 4.9375 C 8.253906 4.9375 8.300781 4.929688 8.34375 4.921875 C 8.390625 4.902344 8.433594 4.882812 8.480469 4.867188 L 8.480469 5.09375 C 8.445312 5.101562 8.398438 5.117188 8.34375 5.128906 C 8.289062 5.136719 8.230469 5.148438 8.164062 5.148438 C 8.039062 5.148438 7.941406 5.117188 7.867188 5.074219 C 7.796875 5.019531 7.75 4.96875 7.726562 4.882812 C 7.6875 4.8125 7.675781 4.738281 7.675781 4.660156 C 7.675781 4.570312 7.695312 4.488281 7.730469 4.417969 C 7.761719 4.34375 7.8125 4.289062 7.875 4.246094 C 7.941406 4.199219 8.011719 4.183594 8.109375 4.183594 C 8.199219 4.183594 8.28125 4.199219 8.34375 4.246094 C 8.410156 4.289062 8.453125 4.355469 8.488281 4.425781 C 8.515625 4.5 8.535156 4.570312 8.535156 4.660156 L 8.535156 4.75 M 8.695312 5.117188 L 8.695312 3.796875 L 9.019531 3.796875 L 9.019531 5.117188 L 8.695312 5.117188 M 9.21875 5.117188 L 9.21875 3.796875 L 9.542969 3.796875 L 9.542969 5.117188 L 9.21875 5.117188 M 10.261719 4.703125 C 10.261719 4.738281 10.253906 4.769531 10.253906 4.804688 C 10.246094 4.839844 10.226562 4.878906 10.210938 4.902344 C 10.179688 4.929688 10.144531 4.9375 10.101562 4.9375 C 10.066406 4.9375 10.035156 4.929688 10.019531 4.914062 C 10 4.894531 9.992188 4.867188 9.980469 4.832031 C 9.992188 4.777344 10.011719 4.734375 10.054688 4.714844 C 10.089844 4.6875 10.15625 4.679688 10.226562 4.679688 L 10.261719 4.679688 L 10.261719 4.703125 M 10.539062 4.523438 L 10.539062 4.921875 C 10.539062 4.957031 10.539062 4.992188 10.550781 5.027344 C 10.550781 5.0625 10.550781 5.09375 10.550781 5.117188 L 10.269531 5.117188 C 10.261719 5.082031 10.261719 5.039062 10.261719 4.992188 C 10.214844 5.046875 10.171875 5.082031 10.125 5.109375 C 10.089844 5.128906 10.035156 5.148438 9.980469 5.148438 C 9.902344 5.148438 9.832031 5.117188 9.785156 5.0625 C 9.730469 5.011719 9.703125 4.9375 9.703125 4.847656 C 9.703125 4.644531 9.855469 4.535156 10.179688 4.535156 L 10.261719 4.535156 L 10.261719 4.507812 C 10.261719 4.480469 10.246094 4.445312 10.214844 4.425781 C 10.191406 4.398438 10.144531 4.382812 10.082031 4.382812 C 10.035156 4.382812 9.992188 4.390625 9.9375 4.410156 C 9.890625 4.425781 9.855469 4.445312 9.820312 4.46875 L 9.8125 4.238281 C 9.847656 4.230469 9.890625 4.210938 9.957031 4.199219 C 10.011719 4.183594 10.082031 4.183594 10.15625 4.183594 C 10.261719 4.183594 10.34375 4.195312 10.394531 4.230469 C 10.460938 4.253906 10.496094 4.300781 10.515625 4.34375 C 10.53125 4.398438 10.539062 4.453125 10.539062 4.523438 M 10.71875 5.117188 L 10.71875 4.390625 C 10.714844 4.355469 10.714844 4.320312 10.714844 4.285156 C 10.714844 4.246094 10.714844 4.21875 10.703125 4.199219 L 11.007812 4.199219 C 11.007812 4.21875 11.007812 4.246094 11.007812 4.273438 C 11.007812 4.300781 11.007812 4.328125 11.007812 4.355469 L 11.019531 4.355469 C 11.019531 4.335938 11.035156 4.308594 11.054688 4.285156 C 11.074219 4.253906 11.097656 4.238281 11.132812 4.210938 C 11.167969 4.195312 11.21875 4.183594 11.277344 4.175781 C 11.359375 4.175781 11.421875 4.199219 11.476562 4.253906 C 11.53125 4.300781 11.558594 4.375 11.558594 4.480469 L 11.558594 5.117188 L 11.234375 5.117188 L 11.234375 4.570312 C 11.234375 4.480469 11.207031 4.433594 11.152344 4.433594 C 11.109375 4.433594 11.082031 4.453125 11.0625 4.488281 C 11.042969 4.523438 11.035156 4.570312 11.035156 4.613281 L 11.035156 5.117188 L 10.71875 5.117188 M 12.035156 4.652344 C 12.035156 4.578125 12.042969 4.519531 12.0625 4.464844 C 12.082031 4.417969 12.117188 4.398438 12.160156 4.398438 C 12.207031 4.398438 12.230469 4.417969 12.25 4.464844 C 12.277344 4.519531 12.285156 4.578125 12.285156 4.652344 C 12.285156 4.734375 12.277344 4.792969 12.25 4.839844 C 12.230469 4.882812 12.207031 4.914062 12.160156 4.914062 C 12.117188 4.914062 12.082031 4.882812 12.0625 4.839844 C 12.042969 4.792969 12.035156 4.734375 12.035156 4.652344 M 12.601562 3.796875 L 12.601562 4.957031 C 12.601562 5.011719 12.609375 5.0625 12.609375 5.117188 L 12.304688 5.117188 C 12.304688 5.074219 12.296875 5.019531 12.296875 4.972656 C 12.261719 5.039062 12.222656 5.074219 12.175781 5.101562 C 12.140625 5.128906 12.097656 5.136719 12.050781 5.136719 C 11.972656 5.136719 11.902344 5.109375 11.855469 5.074219 C 11.800781 5.027344 11.765625 4.96875 11.738281 4.894531 C 11.71875 4.824219 11.703125 4.734375 11.703125 4.644531 C 11.703125 4.570312 11.71875 4.5 11.738281 4.425781 C 11.765625 4.355469 11.800781 4.300781 11.847656 4.246094 C 11.890625 4.199219 11.953125 4.183594 12.035156 4.183594 C 12.097656 4.183594 12.140625 4.195312 12.175781 4.21875 C 12.222656 4.246094 12.261719 4.285156 12.285156 4.335938 L 12.296875 4.335938 C 12.285156 4.289062 12.285156 4.238281 12.285156 4.175781 L 12.285156 3.796875 L 12.601562 3.796875 "
       id="path6718" />
    <path
       style=" stroke:none;fill-rule:nonzero;fill:rgb(75.527954%,28.138733%,26.107788%);fill-opacity:1;"
       d="M 7.09375 8.332031 L 10.433594 7.25 L 9.703125 10.9375 L 6.375 12.070312 L 7.09375 8.332031 "
       id="path6720" />
    <path
       style="fill-rule:nonzero;fill:rgb(93.527222%,17.272949%,18.882751%);fill-opacity:1;stroke-width:2.5;stroke-linecap:butt;stroke-linejoin:miter;stroke:rgb(75.527954%,28.138733%,26.107788%);stroke-opacity:1;stroke-miterlimit:4;"
       d="M 70.9375 136.679688 L 104.335938 147.5 L 97.03125 110.625 L 63.75 99.296875 L 70.9375 136.679688 "
       transform="matrix(0.1,0,0,-0.1,0,22)"
       id="path6722" />
    <path
       style=" stroke:none;fill-rule:nonzero;fill:rgb(98.773193%,99.197388%,99.346924%);fill-opacity:1;"
       d="M 8.273438 8.382812 L 8.949219 8.152344 L 8.757812 9.121094 L 9.5625 8.839844 L 9.398438 9.667969 L 8.605469 9.9375 L 8.417969 10.902344 L 7.742188 11.136719 L 7.921875 10.171875 L 7.121094 10.453125 L 7.28125 9.632812 L 8.085938 9.355469 L 8.273438 8.382812 "
       id="path6724" />
    <path
       style="fill-rule:nonzero;fill:rgb(100%,100%,100%);fill-opacity:1;stroke-width:2.5;stroke-linecap:butt;stroke-linejoin:miter;stroke:rgb(98.773193%,99.197388%,99.346924%);stroke-opacity:1;stroke-miterlimit:4;"
       d="M 82.734375 136.171875 L 89.492188 138.476562 L 87.578125 128.789062 L 95.625 131.601562 L 93.984375 123.320312 L 86.054688 120.625 L 84.179688 110.976562 L 77.421875 108.632812 L 79.21875 118.28125 L 71.210938 115.46875 L 72.8125 123.671875 L 80.859375 126.445312 L 82.734375 136.171875 "
       transform="matrix(0.1,0,0,-0.1,0,22)"
       id="path6726" />
    <path
       style=" stroke:none;fill-rule:nonzero;fill:rgb(100%,100%,100%);fill-opacity:1;"
       d="M 18.15625 7.242188 L 17.769531 9.488281 L 12.683594 9.488281 L 12.316406 11.484375 C 15.160156 11.484375 16.90625 12.628906 16.90625 15.246094 C 16.90625 17.019531 15.941406 18.300781 14.609375 19.070312 L 7.941406 19.070312 L 8.398438 16.71875 C 9.328125 17.292969 10.28125 17.4375 11.074219 17.4375 C 12.464844 17.4375 13.753906 16.84375 13.753906 15.425781 C 13.753906 14.070312 12.585938 13.625 11.359375 13.625 C 10.570312 13.625 9.800781 13.734375 9.09375 13.886719 L 10.433594 7.242188 L 18.15625 7.242188 "
       id="path6728" />
  </g>
</svg>
