<?xml version="1.0" encoding="UTF-8" standalone="no"?>
<svg
   width="29pt"
   height="44pt"
   viewBox="0 0 29 44"
   version="1.1"
   id="svg843"
   xml:space="preserve"
   xmlns="http://www.w3.org/2000/svg"
   xmlns:svg="http://www.w3.org/2000/svg"><defs
     id="defs847" /><g
     id="surface1"
     transform="translate(0.05273437)"><rect
       style="fill:#ffffff;fill-opacity:1;stroke:#000000;stroke-width:0.141732;stroke-linecap:square;stroke-miterlimit:4;stroke-dasharray:none;stroke-opacity:1"
       id="rect1252"
       width="28.207031"
       height="42.378906"
       x="0.34375"
       y="0.94921899" /><path
       style="fill:#c90b1c;fill-opacity:1;fill-rule:nonzero;stroke:none"
       d="m 1.769531,2.371094 h 25.5 v 39.683594 h -25.5 V 2.371094"
       id="path826" /></g><style
     type="text/css"
     id="style2">.ML_SO_44_075_svg__st0{fill:#fab600}.ML_SO_44_075_svg__st1{fill:#fff}</style><g
     id="ML_SO_44_075_svg__g160"
     transform="matrix(0.07417686,0,0,0.07417686,-7.4786036,9.5412706)"><path
       class="ML_SO_44_075_svg__st0"
       d="m 386.6,316.8 c 0,-0.5 -0.2,-0.7 -0.7,-0.7 -0.7,0 -1,0.4 -1.2,1 h 1.9 z"
       id="ML_SO_44_075_svg__path4" /><path
       class="ML_SO_44_075_svg__st0"
       d="m 357.1,374.3 c 0,-1.2 -0.8,-1.8 -1.8,-1.8 h -1.1 v 3.7 h 0.9 c 1.1,-0.1 2,-0.5 2,-1.9 z"
       id="ML_SO_44_075_svg__path6" /><path
       class="ML_SO_44_075_svg__st0"
       d="m 355.6,379.1 h -1.4 v 3.9 h 1.2 c 1.3,0 2,-0.6 2,-1.9 0,-1.2 -0.7,-2 -1.8,-2 z"
       id="ML_SO_44_075_svg__path8" /><path
       class="ML_SO_44_075_svg__st0"
       d="m 380.4,338.4 c 0,1.1 0.6,1.5 1.5,1.5 2,0 2.2,-2 2.2,-3.2 v -0.4 h -0.5 c -1.9,0.1 -3.2,0.7 -3.2,2.1 z"
       id="ML_SO_44_075_svg__path10" /><path
       class="ML_SO_44_075_svg__st0"
       d="m 376.1,307.8 c 0,-0.5 -0.2,-0.7 -0.7,-0.7 -0.7,0 -1,0.4 -1.2,1 h 1.9 z"
       id="ML_SO_44_075_svg__path12" /><path
       class="ML_SO_44_075_svg__st0"
       d="m 350.3,309.5 c 0,0.3 0.3,0.4 0.6,0.4 0.8,0 1.1,-0.6 1.2,-1.2 h -0.4 c -0.5,0 -1.4,0.1 -1.4,0.8 z"
       id="ML_SO_44_075_svg__path14" /><path
       class="ML_SO_44_075_svg__st0"
       d="m 333.2,309.9 c 0.9,0 1.3,-1 1.3,-1.7 0,-0.5 -0.2,-1 -0.8,-1 -0.9,0 -1.3,1 -1.3,1.7 -0.1,0.6 0.2,1 0.8,1 z"
       id="ML_SO_44_075_svg__path16" /><path
       class="ML_SO_44_075_svg__st0"
       d="m 321.5,354.1 c -1.2,0 -1.9,1.1 -1.9,2.8 h 3.7 v -0.4 c 0,-1.6 -0.5,-2.4 -1.8,-2.4 z"
       id="ML_SO_44_075_svg__path18" /><path
       class="ML_SO_44_075_svg__st0"
       d="m 280,354.1 c -1.2,0 -1.9,1.1 -1.9,2.8 h 3.7 v -0.4 c 0,-1.6 -0.5,-2.4 -1.8,-2.4 z"
       id="ML_SO_44_075_svg__path20" /><path
       class="ML_SO_44_075_svg__st0"
       d="m 363.3,309.9 c 0.9,0 1.2,-1.1 1.2,-1.8 0,-0.5 -0.3,-0.9 -0.8,-0.9 -0.7,0 -1.2,1 -1.2,1.7 0.1,0.6 0.3,1 0.8,1 z"
       id="ML_SO_44_075_svg__path22" /><path
       class="ML_SO_44_075_svg__st0"
       d="m 360,332.3 c -1.2,0 -1.9,1.1 -1.9,2.8 h 3.7 v -0.4 c -0.1,-1.6 -0.5,-2.4 -1.8,-2.4 z"
       id="ML_SO_44_075_svg__path24" /><path
       class="ML_SO_44_075_svg__st0"
       d="m 389.6,376 c -1.2,0 -1.9,1.1 -1.9,2.8 h 3.7 v -0.4 c -0.1,-1.6 -0.5,-2.4 -1.8,-2.4 z"
       id="ML_SO_44_075_svg__path26" /><path
       class="ML_SO_44_075_svg__st0"
       d="m 391.3,309.9 c 0.8,0 1.3,-0.9 1.3,-1.7 0,-0.5 -0.2,-1 -0.8,-1 -0.8,0 -1.2,1.1 -1.2,1.7 0.1,0.4 0.2,1 0.7,1 z"
       id="ML_SO_44_075_svg__path28" /><path
       class="ML_SO_44_075_svg__st0"
       d="m 370.6,356.6 c 0,-1.7 -0.5,-2.5 -1.7,-2.5 -1.2,0 -1.9,1.1 -1.9,2.8 h 3.7 v -0.3 z"
       id="ML_SO_44_075_svg__path30" /><path
       class="ML_SO_44_075_svg__st0"
       d="m 366.9,250 h 15.4 l -3.9,19.8 h -15.7 l -4.6,20.9 h -27.5 l 4.4,-20.9 h -47.9 l 3.3,-19.8 58.1,-68 H 277.6 L 263,250 h 15.4 l -3.9,19.8 h -15.7 l -4.6,20.9 h -27.5 l 4.4,-20.9 H 190 V 394.6 H 402.6 V 182 h -21.2 z m -96.4,114.2 h -5.3 l -1.8,-12.8 -1.8,12.8 h -5.2 l -3.3,-16.7 h 4.2 l 1.8,11.7 1.7,-11.7 h 5.2 l 1.8,11.7 1.8,-11.7 h 3.8 z m 15.2,-5 h -7.5 c 0.1,2 1.5,2.6 3.1,2.6 1.2,0 2.6,-0.5 3.6,-1 l 0.1,3 c -1,0.3 -2.6,0.7 -4.3,0.7 -5,0 -6.5,-3.4 -6.5,-6.6 0,-3.4 2,-6.4 5.8,-6.4 3.9,0 5.7,3.1 5.7,6.5 z m -13.8,-33.9 -14.6,16.5 -32.4,-18.2 14.6,-16.5 14.6,-16.5 32.4,18.2 z m 106.9,-20.8 h 1.1 l -1.3,6.2 h -1.1 z m 9.2,37.9 h -3.8 c 0,-0.6 -0.1,-1.1 -0.1,-1.7 -1.2,1.4 -2.2,2 -3.7,2 -2.2,0 -3.8,-1.6 -3.8,-4 0,-2.8 2.1,-4.2 6.4,-4.2 h 1.1 v -0.4 c 0,-0.8 -0.6,-1.7 -2.3,-1.7 -1.3,0 -2.7,0.6 -3.6,1.2 l -0.1,-3.1 c 1,-0.4 2.6,-0.8 4.7,-0.8 4.4,0 5.2,2.1 5.2,4.6 v 5.4 c -0.1,0.9 0,1.9 0,2.7 z m -11.2,7.5 v -3.6 h 4.3 v 3.6 z m 4.3,1.9 v 12.4 h -4.3 v -12.4 z m 0.2,-32.1 h -1.2 l -0.2,-3.2 -1.5,3.2 h -1.2 l -0.6,-4.2 h 1.1 l 0.3,3.2 1.5,-3.2 h 1.2 l 0.2,3.2 1.6,-3.2 h 1.1 z m -5.9,-13.4 c 1,0 1.7,0.5 1.7,1.6 0,0.3 0,0.6 -0.1,0.9 h -3 c 0,0.8 0.4,1.1 1.2,1.1 0.5,0 0.9,-0.1 1.3,-0.3 l -0.1,0.9 c -0.4,0.1 -0.9,0.2 -1.3,0.2 -1.2,0 -2,-0.6 -2,-1.8 -0.1,-1.3 1,-2.6 2.3,-2.6 z m -7.8,23.6 h 4 c 0.1,0.5 0.1,1.4 0.1,2.1 0.4,-1 1.1,-2.4 3.2,-2.4 0.3,0 0.5,0 0.7,0.1 v 3.7 c -0.2,-0.1 -0.8,-0.1 -1.3,-0.1 -1.4,0 -2.3,1.2 -2.3,2.9 v 6.2 h -4.3 v -8.8 c 0,-1.8 -0.1,-3.1 -0.1,-3.7 z m 5.4,-14.1 c 0.3,-0.3 0.7,-0.5 1.2,-0.5 0.8,0 1.4,0.5 1.4,1.4 0,0.3 -0.1,0.7 -0.1,0.9 l -0.4,2 H 374 l 0.4,-2 c 0.1,-0.3 0.1,-0.6 0.1,-0.9 0,-0.4 -0.2,-0.6 -0.6,-0.6 -0.8,0 -1,0.7 -1.2,1.3 l -0.5,2.1 h -1.1 l 1.3,-6.2 h 1.1 z m -2,0.6 c -0.2,-0.1 -0.5,-0.2 -0.8,-0.2 -0.9,0 -1.4,0.8 -1.4,1.6 0,0.5 0.2,1.1 0.9,1.1 0.3,0 0.6,-0.1 0.9,-0.2 l -0.1,0.9 c -0.3,0.2 -0.7,0.2 -1.1,0.2 -1.1,0 -1.8,-0.7 -1.8,-1.8 0,-1.5 1,-2.6 2.5,-2.6 0.4,0 0.8,0.1 1.1,0.2 z m -0.2,-11.9 -0.7,3.5 1.5,-1.5 h 1.4 l -2,1.9 1.3,2.3 H 371 l -1.1,-2.2 -0.5,2.2 h -1.1 l 1.3,-6.2 z m -3.4,0.1 h 1.1 l -0.2,1 h -1.1 z m -0.4,1.8 h 1.1 l -0.9,4.2 h -1.1 z m 0.3,7.7 -0.3,0.9 c -0.3,-0.2 -0.8,-0.3 -1.2,-0.3 -0.4,0 -1,0.2 -1,0.7 0,0.9 2,0.9 2,2.5 0,1.4 -1.1,1.9 -2.4,1.9 -0.5,0 -1.1,-0.1 -1.6,-0.3 l 0.3,-1 c 0.4,0.2 0.9,0.4 1.4,0.4 0.5,0 1.1,-0.3 1.1,-0.9 0,-1 -2,-0.9 -2,-2.4 0,-1.2 1,-1.7 2.1,-1.7 0.6,-0.1 1.1,0 1.6,0.2 z m -6.1,25.8 c 1.2,0 2.6,-0.5 3.6,-1 l 0.1,3 c -1,0.3 -2.6,0.7 -4.3,0.7 -5,0 -6.5,-3.4 -6.5,-6.6 0,-3.4 2,-6.4 5.8,-6.4 3.9,0 5.7,3.1 5.7,6.5 v 1.2 h -7.5 c 0.2,2 1.5,2.6 3.1,2.6 z m -8.5,14.8 v -2.9 h 2.1 v -2.6 l 4.3,-1.3 v 4 h 2.4 v 2.9 h -2.4 v 5.3 c 0,1.1 0.6,1.5 1.4,1.5 0.4,0 0.8,-0.1 1,-0.2 l 0.1,2.9 c -0.5,0.1 -1.6,0.3 -2.8,0.3 -2.4,0 -4,-1.3 -4,-3.7 v -6.2 z m 9.7,-50.2 h 1.1 l -0.5,2.3 c 0.3,-0.3 0.6,-0.5 1.1,-0.5 1,0 1.5,0.7 1.5,1.7 0,1.3 -0.7,2.7 -2.2,2.7 -0.6,0 -0.9,-0.1 -1.2,-0.7 l -0.1,0.6 h -1 z m -5.4,1.9 h 1.1 l -0.1,0.4 c 0.3,-0.3 0.7,-0.5 1.2,-0.5 0.8,0 1.4,0.5 1.4,1.4 0,0.3 -0.1,0.7 -0.1,0.9 l -0.4,2 H 359 l 0.4,-2 c 0.1,-0.3 0.1,-0.6 0.1,-0.9 0,-0.4 -0.2,-0.6 -0.6,-0.6 -0.8,0 -1,0.7 -1.2,1.3 l -0.5,2.1 h -1.1 l 0.8,-3.6 c 0,-0.1 0.1,-0.3 0.1,-0.5 z m -1.9,-1.8 h 1.1 l -0.2,1 h -1.1 z m -0.4,1.8 h 1.1 l -0.9,4.2 h -1.1 z m -3.3,0.7 c -0.5,0 -1,0.1 -1.4,0.3 l 0.2,-0.9 c 0.5,-0.2 0.9,-0.3 1.4,-0.3 0.8,0 1.6,0.3 1.6,1.3 0,0.6 -0.4,2.2 -0.5,3 h -0.9 l 0.1,-0.6 c -0.4,0.5 -0.8,0.7 -1.4,0.7 -0.8,0 -1.3,-0.4 -1.3,-1.2 0,-1.4 1.6,-1.5 2.6,-1.5 h 0.4 v -0.4 c 0.1,-0.2 -0.4,-0.4 -0.8,-0.4 z m -4.2,30.6 -1.3,-0.5 c -2,-0.7 -2.6,-1.9 -2.6,-3.5 0,-2.2 1.4,-4.1 5.2,-4.1 1.3,0 2.6,0.3 3.5,0.6 l -0.1,3.1 c -0.8,-0.4 -2,-0.8 -3.1,-0.8 -0.8,0 -1.5,0.2 -1.5,0.9 0,0.4 0.4,0.7 1.4,1.1 l 1.4,0.5 c 1.6,0.6 2.5,1.3 2.5,3.5 0,2.6 -1.6,4.1 -5.3,4.1 -1.4,0 -3.1,-0.3 -3.8,-0.6 l 0.1,-3.3 c 0.7,0.3 1.7,0.9 3.2,0.9 1.2,0 1.8,-0.3 1.8,-0.9 0,-0.4 -0.4,-0.6 -1.4,-1 z m -0.7,-31.3 h 0.8 l 0.2,-0.9 1.2,-0.4 -0.3,1.3 h 1 l -0.2,0.8 h -1 l -0.4,1.8 v 0.4 c 0,0.3 0.2,0.4 0.4,0.4 0.2,0 0.4,0 0.5,-0.1 l -0.2,0.9 c -0.2,0 -0.4,0.1 -0.6,0.1 -0.7,0 -1.3,-0.3 -1.3,-1.1 0,-0.3 0.1,-0.6 0.1,-1 l 0.3,-1.4 h -0.8 z m -10.1,2.1 0.4,-2 h 1.1 l -0.4,2 c -0.1,0.3 -0.1,0.6 -0.1,0.9 0,0.4 0.2,0.6 0.6,0.6 0.8,0 1,-0.7 1.2,-1.3 l 0.5,-2.1 h 1.1 l -0.8,3.6 c 0,0.3 -0.1,0.5 -0.1,0.6 h -1.1 l 0.1,-0.4 c -0.3,0.3 -0.7,0.5 -1.2,0.5 -0.8,0 -1.4,-0.5 -1.4,-1.4 0,-0.4 0.1,-0.7 0.1,-1 z m -2.7,-2.2 c 1.1,0 1.9,0.7 1.9,1.9 0,1.5 -1,2.6 -2.5,2.6 -1.2,0 -1.9,-0.7 -1.9,-1.9 0,-1.5 1.1,-2.6 2.5,-2.6 z m -9.1,-1.4 h 1.9 l 0.4,4.1 2.3,-4.1 h 1.9 l -1.2,5.7 h -1.2 l 1.1,-4.7 -2.6,4.7 H 326 l -0.5,-4.7 -1.1,4.7 h -1.1 z m 1.3,29.5 H 327 V 334 c 0,-0.8 -0.6,-1.7 -2.3,-1.7 -1.3,0 -2.7,0.6 -3.6,1.2 l -0.1,-3.1 c 1,-0.4 2.6,-0.8 4.7,-0.8 4.4,0 5.2,2.1 5.2,4.6 v 5.4 c 0,1 0.1,2 0.1,2.7 h -3.8 c 0,-0.6 -0.1,-1.1 -0.1,-1.7 -1.2,1.4 -2.2,2 -3.7,2 -2.2,0 -3.8,-1.6 -3.8,-4 -0.1,-2.7 2,-4.2 6.3,-4.2 z m -19.6,-9.9 h 4.3 v 5.5 c 0,0.5 0,1.1 -0.1,1.5 h 0.1 c 0.7,-1.3 1.8,-1.9 3.3,-1.9 2.1,0 3.8,1.3 3.8,4 v 8.7 h -4.3 v -7.5 c 0,-1.2 -0.4,-1.8 -1.2,-1.8 -1.1,0 -1.6,1.1 -1.6,2.4 v 6.8 h -4.3 z m -14.1,39.7 h -4.3 v -12.4 h 4.3 z m 0,-14.3 h -4.3 v -3.6 h 4.3 z m 6,14.6 c -1.4,0 -3.1,-0.3 -3.8,-0.6 l 0.1,-3.3 c 0.7,0.3 1.7,0.9 3.2,0.9 1.2,0 1.8,-0.3 1.8,-0.9 0,-0.4 -0.3,-0.7 -1.4,-1.1 l -1.3,-0.5 c -2,-0.7 -2.6,-1.9 -2.6,-3.5 0,-2.2 1.4,-4.1 5.2,-4.1 1.3,0 2.6,0.3 3.5,0.6 l -0.1,3.1 c -0.8,-0.4 -2,-0.8 -3.1,-0.8 -0.8,0 -1.5,0.2 -1.5,0.9 0,0.4 0.4,0.7 1.4,1.1 l 1.4,0.5 c 1.6,0.6 2.5,1.3 2.5,3.5 0,2.7 -1.6,4.2 -5.3,4.2 z m 2,-21.8 c -4.8,0 -8.3,-2.9 -8.3,-8.7 0,-4.9 2.8,-8.5 8.3,-8.5 2.2,0 3.6,0.6 4,0.8 L 304,330 c -0.5,-0.3 -1.8,-1 -3.2,-1 -2.9,0 -4.2,1.9 -4.2,5.1 0,2.9 1.6,5.1 4.4,5.1 1.6,0 2.8,-0.6 3.2,-0.9 l 0.2,3.9 c -1.5,0.2 -2.9,0.5 -4.2,0.5 z m 8.6,21.8 c -1.4,0 -3.1,-0.3 -3.8,-0.6 l 0.1,-3.3 c 0.7,0.3 1.7,0.9 3.2,0.9 1.2,0 1.8,-0.3 1.8,-0.9 0,-0.4 -0.3,-0.7 -1.4,-1.1 l -1.3,-0.5 c -2,-0.7 -2.6,-1.9 -2.6,-3.5 0,-2.2 1.4,-4.1 5.2,-4.1 1.3,0 2.6,0.3 3.5,0.6 l -0.1,3.1 c -0.8,-0.4 -2,-0.8 -3.1,-0.8 -0.8,0 -1.5,0.2 -1.5,0.9 0,0.4 0.4,0.7 1.4,1.1 l 1.4,0.5 c 1.6,0.6 2.5,1.3 2.5,3.5 0,2.7 -1.6,4.2 -5.3,4.2 z m 18.4,-5.3 h -7.5 c 0.1,2 1.5,2.6 3.1,2.6 1.2,0 2.6,-0.5 3.6,-1 l 0.1,3 c -1,0.3 -2.6,0.7 -4.3,0.7 -5,0 -6.5,-3.4 -6.5,-6.6 0,-3.4 2,-6.4 5.8,-6.4 3.9,0 5.7,3.1 5.7,6.5 z m 13.4,5 h -4.3 v -7.5 c 0,-1.2 -0.4,-1.8 -1.2,-1.8 -1.1,0 -1.6,1.1 -1.6,2.4 v 6.8 h -4.3 v -9.9 c 0,-0.9 -0.1,-2 -0.1,-2.5 h 4 c 0.1,0.5 0.1,1.4 0.1,2.1 0.2,-0.7 1.1,-2.4 3.5,-2.4 2.1,0 3.8,1.3 3.8,4 v 8.8 z m -3.9,-21.5 c -1.4,0 -3.1,-0.3 -3.8,-0.6 l 0.1,-3.3 c 0.7,0.3 1.7,0.9 3.2,0.9 1.2,0 1.8,-0.3 1.8,-0.9 0,-0.4 -0.3,-0.7 -1.4,-1.1 l -1.3,-0.5 c -2,-0.7 -2.6,-1.9 -2.6,-3.5 0,-2.2 1.4,-4.1 5.2,-4.1 1.3,0 2.6,0.3 3.5,0.6 l -0.1,3.1 c -0.8,-0.4 -2,-0.8 -3.1,-0.8 -0.8,0 -1.5,0.2 -1.5,0.9 0,0.4 0.4,0.7 1.4,1.1 l 1.4,0.5 c 1.6,0.6 2.5,1.3 2.5,3.5 0,2.7 -1.7,4.2 -5.3,4.2 z m 4.4,-32 0.8,-3.6 c 0,-0.3 0.1,-0.5 0.1,-0.6 h 1.1 l -0.1,0.4 c 0.3,-0.3 0.7,-0.5 1.2,-0.5 0.8,0 1.4,0.5 1.4,1.4 0,0.3 -0.1,0.7 -0.1,0.9 l -0.4,2 H 344 l 0.4,-2 c 0.1,-0.3 0.1,-0.6 0.1,-0.9 0,-0.4 -0.2,-0.6 -0.6,-0.6 -0.8,0 -1,0.7 -1.2,1.3 l -0.5,2.1 h -1.1 z m 1.5,53.3 0.1,-3.3 c 0.7,0.3 1.7,0.9 3.2,0.9 1.2,0 1.8,-0.3 1.8,-0.9 0,-0.4 -0.3,-0.7 -1.4,-1.1 l -1.3,-0.5 c -2,-0.7 -2.6,-1.9 -2.6,-3.5 0,-2.2 1.4,-4.1 5.2,-4.1 1.3,0 2.6,0.3 3.5,0.6 l -0.1,3.1 c -0.8,-0.4 -2,-0.8 -3.1,-0.8 -0.8,0 -1.5,0.2 -1.5,0.9 0,0.4 0.4,0.7 1.4,1.1 l 1.4,0.5 c 1.6,0.6 2.5,1.3 2.5,3.5 0,2.6 -1.6,4.1 -5.3,4.1 -1.4,0 -3.1,-0.3 -3.8,-0.5 z m 13.7,22.1 h -6.4 v -16.7 h 6.3 c 3.5,0 5.3,1.5 5.3,3.9 0,2.7 -1.5,3.7 -3.1,4.1 2.1,0.4 3.4,1.7 3.4,3.9 -0.1,3.4 -2.3,4.8 -5.5,4.8 z m 11.9,0 h -4.3 v -12.4 h 4.3 z m 0,-14.3 h -4.3 v -3.6 h 4.3 z M 363,358 c 0,-3.4 2,-6.4 5.8,-6.4 3.9,0 5.7,3.1 5.7,6.5 v 1.2 H 367 c 0.1,2 1.5,2.6 3.1,2.6 1.2,0 2.6,-0.5 3.6,-1 l 0.1,3 c -1,0.3 -2.6,0.7 -4.3,0.7 -5.1,0 -6.5,-3.4 -6.5,-6.6 z m 15,28.1 -2.7,-5.8 v 5.8 H 371 v -17.9 h 4.3 v 10.5 l 2.8,-5 h 4.3 l -3.5,5.7 3.8,6.7 z m 17.3,-5 h -7.5 c 0.1,2 1.5,2.6 3.1,2.6 1.2,0 2.6,-0.5 3.6,-1 l 0.1,3 c -1,0.3 -2.6,0.7 -4.3,0.7 -5,0 -6.5,-3.4 -6.5,-6.6 0,-3.4 2,-6.4 5.8,-6.4 3.9,0 5.7,3.1 5.7,6.5 z m -0.4,-16.9 h -4.3 v -7.5 c 0,-1.2 -0.4,-1.8 -1.2,-1.8 -1.1,0 -1.6,1.1 -1.6,2.4 v 6.8 h -4.3 v -9.9 c 0,-0.9 -0.1,-2 -0.1,-2.5 h 4 c 0.1,0.5 0.1,1.4 0.1,2.1 0.2,-0.7 1.1,-2.4 3.5,-2.4 2.1,0 3.8,1.3 3.8,4 v 8.8 z m -4.1,-47.9 0.2,-0.9 h 3.3 l -0.2,0.9 -2.6,2.5 h 2.1 l -0.2,0.9 H 390 l 0.2,-0.9 2.6,-2.5 z m 4,26.1 h -4.3 v -17.9 h 4.3 z m -3.2,-36.1 c 0.5,0 1,0.2 1.3,0.6 l 0.5,-2.4 h 1.1 l -1.1,5.2 c -0.1,0.4 -0.1,0.7 -0.2,0.9 h -1 l 0.1,-0.6 c -0.3,0.5 -0.7,0.7 -1.4,0.7 -1,0 -1.5,-0.8 -1.5,-1.8 0.1,-1.2 0.8,-2.6 2.2,-2.6 z m -2.3,7.3 h 1.1 l -0.2,1 h -1.1 z m 0.7,1.8 -0.9,4.2 H 388 l 0.9,-4.2 z m -4.9,-8.4 c 0,-0.3 0.1,-0.5 0.1,-0.6 h 1.1 l -0.1,0.4 c 0.3,-0.3 0.7,-0.5 1.2,-0.5 0.8,0 1.4,0.5 1.4,1.4 0,0.3 -0.1,0.7 -0.1,0.9 l -0.4,2 h -1.1 l 0.4,-2 c 0.1,-0.3 0.1,-0.6 0.1,-0.9 0,-0.4 -0.2,-0.6 -0.6,-0.6 -0.8,0 -1,0.7 -1.2,1.3 l -0.5,2.1 h -1.1 z m 0.8,8.3 c 1,0 1.7,0.5 1.7,1.6 0,0.3 0,0.6 -0.1,0.9 h -3 c 0,0.8 0.4,1.1 1.2,1.1 0.5,0 0.9,-0.1 1.3,-0.3 l -0.1,0.9 c -0.4,0.1 -0.9,0.2 -1.3,0.2 -1.2,0 -2,-0.6 -2,-1.8 -0.1,-1.3 0.9,-2.6 2.3,-2.6 z m -2.1,-7.7 c 0,0.6 -0.4,2.2 -0.5,3 h -0.9 l 0.1,-0.6 c -0.4,0.5 -0.8,0.7 -1.4,0.7 -0.8,0 -1.3,-0.4 -1.3,-1.2 0,-1.4 1.6,-1.5 2.6,-1.5 h 0.4 v -0.4 c 0,-0.4 -0.5,-0.5 -0.8,-0.5 -0.5,0 -1,0.1 -1.4,0.3 l 0.2,-0.9 c 0.5,-0.2 0.9,-0.3 1.4,-0.3 0.8,0.1 1.6,0.5 1.6,1.4 z"
       id="ML_SO_44_075_svg__path32" /><path
       class="ML_SO_44_075_svg__st0"
       id="ML_SO_44_075_svg__polygon34"
       d="m 244.7,182 h -54.6 v 63.9 z" /><path
       class="ML_SO_44_075_svg__st0"
       d="m 380.8,309.5 c 0,0.3 0.3,0.4 0.6,0.4 0.8,0 1.1,-0.6 1.2,-1.2 h -0.4 c -0.5,0 -1.4,0.1 -1.4,0.8 z"
       id="ML_SO_44_075_svg__path36" /><path
       class="ML_SO_44_075_svg__st0"
       id="ML_SO_44_075_svg__polygon38"
       d="m 210.3,250 h 26.4 l 11.1,-46.2 h -0.3 z" /><path
       class="ML_SO_44_075_svg__st0"
       d="m 324.8,339.9 c 2,0 2.2,-2 2.2,-3.2 v -0.4 h -0.5 c -1.9,0 -3.2,0.6 -3.2,2.1 0.1,1.1 0.7,1.5 1.5,1.5 z"
       id="ML_SO_44_075_svg__path40" /><path
       class="ML_SO_44_075_svg__st0"
       id="ML_SO_44_075_svg__polygon42"
       d="m 314.2,250 h 26.3 l 11.2,-46.2 h -0.3 z" /><path
       class="ML_SO_44_075_svg__st1"
       d="m 226.8,290.7 h 27.5 l 4.6,-20.9 h 15.7 L 278.5,250 H 263 l 14.6,-68 h -32.9 l -54.6,63.9 v 23.9 h 41.1 z M 210.3,250 247.5,203.7 h 0.3 L 236.7,250 Z"
       id="ML_SO_44_075_svg__path44" /><path
       class="ML_SO_44_075_svg__st1"
       d="M 287.2,269.8 H 335 l -4.4,20.9 h 27.5 l 4.6,-20.9 h 15.7 l 3.9,-19.8 h -15.4 l 14.7,-68 h -33 l -58.1,68 z m 64.2,-66 h 0.3 L 340.5,250 h -26.4 z"
       id="ML_SO_44_075_svg__path46" /><path
       d="m 300.9,339.1 c -2.8,0 -4.4,-2.2 -4.4,-5.1 0,-3.2 1.3,-5.1 4.2,-5.1 1.4,0 2.7,0.6 3.2,1 l 0.2,-3.7 c -0.4,-0.2 -1.9,-0.8 -4,-0.8 -5.5,0 -8.3,3.6 -8.3,8.5 0,5.8 3.5,8.7 8.3,8.7 1.3,0 2.7,-0.2 4.1,-0.6 l -0.2,-3.9 c -0.3,0.3 -1.5,1 -3.1,1 z"
       id="ML_SO_44_075_svg__path48" /><path
       d="m 310.6,335.5 c 0,-1.3 0.5,-2.4 1.6,-2.4 0.8,0 1.2,0.6 1.2,1.8 v 7.5 h 4.3 v -8.7 c 0,-2.7 -1.6,-4 -3.8,-4 -1.5,0 -2.6,0.6 -3.3,1.9 h -0.1 c 0,-0.5 0.1,-1 0.1,-1.5 v -5.5 h -4.3 v 17.9 h 4.3 z"
       id="ML_SO_44_075_svg__path50" /><path
       d="m 323.3,342.7 c 1.5,0 2.5,-0.6 3.7,-2 0,0.6 0.1,1.1 0.1,1.7 h 3.8 c -0.1,-0.7 -0.1,-1.7 -0.1,-2.7 v -5.4 c 0,-2.6 -0.9,-4.6 -5.2,-4.6 -2.1,0 -3.6,0.4 -4.7,0.8 l 0.1,3.1 c 0.9,-0.6 2.2,-1.2 3.6,-1.2 1.7,0 2.3,0.9 2.3,1.7 v 0.4 h -1.1 c -4.3,0 -6.4,1.5 -6.4,4.2 0.1,2.4 1.7,4 3.9,4 z m 3.2,-6.3 h 0.5 v 0.4 c 0,1.2 -0.2,3.2 -2.2,3.2 -0.9,0 -1.5,-0.4 -1.5,-1.5 0.1,-1.5 1.3,-2.1 3.2,-2.1 z"
       id="ML_SO_44_075_svg__path52" /><path
       d="m 339.5,335.1 -1.4,-0.5 c -1,-0.4 -1.4,-0.7 -1.4,-1.1 0,-0.7 0.7,-0.9 1.5,-0.9 1.1,0 2.3,0.4 3.1,0.8 l 0.1,-3.1 c -0.9,-0.3 -2.2,-0.6 -3.5,-0.6 -3.8,0 -5.2,1.9 -5.2,4.1 0,1.6 0.6,2.8 2.6,3.5 l 1.3,0.5 c 1,0.4 1.4,0.6 1.4,1.1 0,0.6 -0.6,0.9 -1.8,0.9 -1.5,0 -2.6,-0.5 -3.2,-0.9 l -0.1,3.3 c 0.7,0.3 2.4,0.6 3.8,0.6 3.7,0 5.3,-1.5 5.3,-4.1 0,-2.3 -1,-3 -2.5,-3.6 z"
       id="ML_SO_44_075_svg__path54" /><path
       d="m 346.8,339.6 c -1.5,0 -2.6,-0.5 -3.2,-0.9 l -0.1,3.3 c 0.7,0.3 2.4,0.6 3.8,0.6 3.7,0 5.3,-1.5 5.3,-4.1 0,-2.2 -0.9,-2.9 -2.5,-3.5 l -1.4,-0.5 c -1,-0.4 -1.4,-0.7 -1.4,-1.1 0,-0.7 0.7,-0.9 1.5,-0.9 1.1,0 2.3,0.4 3.1,0.8 l 0.1,-3.1 c -0.9,-0.3 -2.2,-0.6 -3.5,-0.6 -3.8,0 -5.2,1.9 -5.2,4.1 0,1.6 0.6,2.8 2.6,3.5 l 1.3,0.5 c 1.1,0.4 1.4,0.6 1.4,1.1 0,0.5 -0.6,0.8 -1.8,0.8 z"
       id="ML_SO_44_075_svg__path56" /><path
       d="m 365.6,336.1 c 0,-3.4 -1.8,-6.5 -5.7,-6.5 -3.7,0 -5.8,3 -5.8,6.4 0,3.2 1.5,6.6 6.5,6.6 1.7,0 3.3,-0.4 4.3,-0.7 l -0.1,-3 c -1.1,0.5 -2.5,1 -3.6,1 -1.6,0 -3,-0.6 -3.1,-2.6 h 7.5 z m -3.9,-1 H 358 c 0,-1.7 0.7,-2.8 1.9,-2.8 1.3,0 1.7,0.8 1.7,2.5 v 0.3 z"
       id="ML_SO_44_075_svg__path58" /><path
       d="m 372,342.4 v -6.2 c 0,-1.6 1,-2.9 2.3,-2.9 0.5,0 1.1,0.1 1.3,0.1 v -3.7 c -0.3,0 -0.4,-0.1 -0.7,-0.1 -2.1,0 -2.8,1.4 -3.2,2.4 0,-0.7 0,-1.6 -0.1,-2.1 h -4 c 0.1,0.6 0.1,1.8 0.1,3.6 v 8.8 h 4.3 z"
       id="ML_SO_44_075_svg__path60" /><path
       d="m 382.7,329.6 c -2.1,0 -3.6,0.4 -4.7,0.8 l 0.1,3.1 c 0.9,-0.6 2.2,-1.2 3.6,-1.2 1.7,0 2.3,0.9 2.3,1.7 v 0.4 h -1 c -4.3,0 -6.4,1.5 -6.4,4.2 0,2.4 1.6,4 3.8,4 1.5,0 2.5,-0.6 3.7,-2 0,0.6 0.1,1.1 0.1,1.7 h 3.8 c -0.1,-0.7 -0.1,-1.7 -0.1,-2.7 v -5.4 c 0,-2.5 -0.9,-4.6 -5.2,-4.6 z m 1.4,7.2 c 0,1.2 -0.2,3.2 -2.2,3.2 -0.9,0 -1.5,-0.4 -1.5,-1.5 0,-1.5 1.3,-2.1 3.2,-2.1 h 0.5 z"
       id="ML_SO_44_075_svg__path62" /><path
       id="ML_SO_44_075_svg__rect64"
       d="m 390.5,324.5 h 4.3 v 17.9 h -4.3 z" /><path
       id="ML_SO_44_075_svg__polygon66"
       d="m 266,347.6 h -5.2 l -1.7,11.7 -1.8,-11.7 h -4.2 l 3.3,16.6 h 5.2 l 1.8,-12.8 1.8,12.8 h 5.3 l 3.1,-16.6 h -3.9 l -1.8,11.7 z" /><path
       d="m 279.9,351.5 c -3.7,0 -5.8,3 -5.8,6.4 0,3.2 1.5,6.6 6.5,6.6 1.7,0 3.3,-0.4 4.3,-0.7 l -0.1,-3 c -1.1,0.5 -2.5,1 -3.6,1 -1.6,0 -3,-0.6 -3.1,-2.6 h 7.5 V 358 c 0.1,-3.4 -1.8,-6.5 -5.7,-6.5 z m 1.9,5.5 h -3.7 c 0,-1.7 0.7,-2.8 1.9,-2.8 1.3,0 1.7,0.8 1.7,2.5 v 0.3 z"
       id="ML_SO_44_075_svg__path68" /><path
       id="ML_SO_44_075_svg__rect70"
       d="m 287.9,346.3 h 4.3 v 3.6 h -4.3 z" /><path
       id="ML_SO_44_075_svg__rect72"
       d="m 287.9,351.8 h 4.3 v 12.4 h -4.3 z" /><path
       d="m 301.1,357 -1.4,-0.5 c -1,-0.4 -1.4,-0.7 -1.4,-1.1 0,-0.7 0.7,-0.9 1.5,-0.9 1.1,0 2.3,0.4 3.1,0.8 l 0.1,-3.1 c -0.9,-0.3 -2.2,-0.6 -3.5,-0.6 -3.8,0 -5.2,1.9 -5.2,4.1 0,1.6 0.6,2.8 2.6,3.5 l 1.3,0.5 c 1.1,0.4 1.4,0.6 1.4,1.1 0,0.6 -0.6,0.9 -1.8,0.9 -1.5,0 -2.6,-0.5 -3.2,-0.9 l -0.1,3.3 c 0.7,0.3 2.4,0.6 3.8,0.6 3.7,0 5.3,-1.5 5.3,-4.1 -0.1,-2.3 -1,-3.1 -2.5,-3.6 z"
       id="ML_SO_44_075_svg__path74" /><path
       d="m 311.7,357 -1.4,-0.5 c -1,-0.4 -1.4,-0.7 -1.4,-1.1 0,-0.7 0.7,-0.9 1.5,-0.9 1.1,0 2.3,0.4 3.1,0.8 l 0.1,-3.1 c -0.9,-0.3 -2.2,-0.6 -3.5,-0.6 -3.8,0 -5.2,1.9 -5.2,4.1 0,1.6 0.6,2.8 2.6,3.5 l 1.3,0.5 c 1.1,0.4 1.4,0.6 1.4,1.1 0,0.6 -0.6,0.9 -1.8,0.9 -1.5,0 -2.6,-0.5 -3.2,-0.9 L 305,364 c 0.7,0.3 2.4,0.6 3.8,0.6 3.7,0 5.3,-1.5 5.3,-4.1 0,-2.2 -0.9,-3 -2.4,-3.5 z"
       id="ML_SO_44_075_svg__path76" /><path
       d="m 321.5,351.5 c -3.7,0 -5.8,3 -5.8,6.4 0,3.2 1.5,6.6 6.5,6.6 1.7,0 3.3,-0.4 4.3,-0.7 l -0.1,-3 c -1.1,0.5 -2.5,1 -3.6,1 -1.6,0 -3,-0.6 -3.1,-2.6 h 7.5 V 358 c 0,-3.4 -1.8,-6.5 -5.7,-6.5 z m 1.8,5.5 h -3.7 c 0,-1.7 0.7,-2.8 1.9,-2.8 1.3,0 1.7,0.8 1.7,2.5 v 0.3 z"
       id="ML_SO_44_075_svg__path78" /><path
       d="m 336.8,351.5 c -2.4,0 -3.3,1.7 -3.5,2.4 0,-0.7 0,-1.6 -0.1,-2.1 h -4 c 0.1,0.6 0.1,1.6 0.1,2.5 v 9.9 h 4.3 v -6.8 c 0,-1.3 0.5,-2.4 1.6,-2.4 0.8,0 1.2,0.6 1.2,1.8 v 7.5 h 4.3 v -8.7 c -0.1,-2.8 -1.8,-4.1 -3.9,-4.1 z"
       id="ML_SO_44_075_svg__path80" /><path
       d="m 351.7,360.4 c 0,-2.2 -0.9,-2.9 -2.5,-3.5 l -1.4,-0.5 c -1,-0.4 -1.4,-0.7 -1.4,-1.1 0,-0.7 0.7,-0.9 1.5,-0.9 1.1,0 2.3,0.4 3.1,0.8 l 0.1,-3.1 c -0.9,-0.3 -2.2,-0.6 -3.5,-0.6 -3.8,0 -5.2,1.9 -5.2,4.1 0,1.6 0.6,2.8 2.6,3.5 l 1.3,0.5 c 1.1,0.4 1.4,0.6 1.4,1.1 0,0.6 -0.6,0.9 -1.8,0.9 -1.5,0 -2.6,-0.5 -3.2,-0.9 l -0.1,3.3 c 0.7,0.3 2.4,0.6 3.8,0.6 3.7,-0.1 5.3,-1.6 5.3,-4.2 z"
       id="ML_SO_44_075_svg__path82" /><path
       d="m 358.8,364.5 c 1.2,0 2.3,-0.2 2.8,-0.3 l -0.1,-2.9 c -0.2,0.1 -0.6,0.2 -1,0.2 -0.8,0 -1.4,-0.5 -1.4,-1.5 v -5.3 h 2.4 v -2.9 h -2.4 v -4 l -4.3,1.3 v 2.6 h -2.1 v 2.9 h 2.1 v 6.2 c 0,2.4 1.6,3.7 4,3.7 z"
       id="ML_SO_44_075_svg__path84" /><path
       d="m 373.7,360.8 c -1,0.5 -2.5,1 -3.6,1 -1.6,0 -3,-0.6 -3.1,-2.6 h 7.5 V 358 c 0,-3.4 -1.8,-6.5 -5.7,-6.5 -3.7,0 -5.8,3 -5.8,6.4 0,3.2 1.5,6.6 6.5,6.6 1.7,0 3.3,-0.4 4.3,-0.7 z m -4.9,-6.7 c 1.3,0 1.7,0.8 1.7,2.5 v 0.4 h -3.7 c 0.1,-1.8 0.8,-2.9 2,-2.9 z"
       id="ML_SO_44_075_svg__path86" /><path
       id="ML_SO_44_075_svg__rect88"
       d="m 376.8,351.8 h 4.3 v 12.4 h -4.3 z" /><path
       id="ML_SO_44_075_svg__rect90"
       d="m 376.8,346.3 h 4.3 v 3.6 h -4.3 z" /><path
       d="m 391.2,351.5 c -2.4,0 -3.3,1.7 -3.5,2.4 0,-0.7 0,-1.6 -0.1,-2.1 h -4 c 0.1,0.6 0.1,1.6 0.1,2.5 v 9.9 h 4.3 v -6.8 c 0,-1.3 0.5,-2.4 1.6,-2.4 0.8,0 1.2,0.6 1.2,1.8 v 7.5 h 4.3 v -8.7 c -0.2,-2.8 -1.8,-4.1 -3.9,-4.1 z"
       id="ML_SO_44_075_svg__path92" /><path
       d="m 358.3,377.5 c 1.7,-0.5 3.1,-1.4 3.1,-4.1 0,-2.5 -1.7,-3.9 -5.3,-3.9 h -6.3 v 16.7 h 6.4 c 3.2,0 5.4,-1.4 5.4,-4.7 0.1,-2.3 -1.2,-3.6 -3.3,-4 z m -4.1,-5 h 1.1 c 1,0 1.8,0.6 1.8,1.8 0,1.4 -1,1.8 -2.1,1.8 h -0.9 v -3.6 z m 1.2,10.5 h -1.2 v -3.9 h 1.4 c 1.2,0 1.8,0.7 1.8,2 0,1.3 -0.7,1.9 -2,1.9 z"
       id="ML_SO_44_075_svg__path94" /><path
       id="ML_SO_44_075_svg__rect96"
       d="m 363.9,373.7 h 4.3 v 12.4 h -4.3 z" /><path
       id="ML_SO_44_075_svg__rect98"
       d="m 363.9,368.2 h 4.3 v 3.6 h -4.3 z" /><path
       id="ML_SO_44_075_svg__polygon100"
       d="M 375.3,378.7 V 368.2 H 371 v 17.9 h 4.3 v -5.8 l 2.7,5.8 h 4.7 l -3.7,-6.7 3.4,-5.7 h -4.3 z" /><path
       d="m 389.5,373.4 c -3.7,0 -5.8,3 -5.8,6.4 0,3.2 1.5,6.6 6.5,6.6 1.7,0 3.3,-0.4 4.3,-0.7 l -0.1,-3 c -1.1,0.5 -2.5,1 -3.6,1 -1.6,0 -3,-0.6 -3.1,-2.6 h 7.5 v -1.2 c 0.1,-3.4 -1.8,-6.5 -5.7,-6.5 z m 1.8,5.4 h -3.7 c 0,-1.7 0.7,-2.8 1.9,-2.8 1.3,0 1.7,0.8 1.7,2.5 v 0.3 z"
       id="ML_SO_44_075_svg__path102" /><path
       id="ML_SO_44_075_svg__polygon104"
       d="m 326,310.7 h 1.1 l 2.6,-4.8 -1.1,4.8 h 1.2 l 1.2,-5.8 h -1.9 l -2.2,4.2 -0.4,-4.2 h -1.9 l -1.2,5.8 h 1.1 l 1,-4.8 z" /><path
       d="m 333.1,310.8 c 1.5,0 2.5,-1.1 2.5,-2.6 0,-1.2 -0.8,-1.9 -1.9,-1.9 -1.4,0 -2.5,1.1 -2.5,2.5 0,1.2 0.7,2 1.9,2 z m 0.5,-3.6 c 0.6,0 0.8,0.5 0.8,1 0,0.7 -0.4,1.7 -1.3,1.7 -0.6,0 -0.9,-0.4 -0.9,-1 0.1,-0.7 0.6,-1.7 1.4,-1.7 z"
       id="ML_SO_44_075_svg__path106" /><path
       d="m 337.7,310.8 c 0.5,0 0.9,-0.2 1.2,-0.5 l -0.1,0.4 h 1.1 c 0,-0.1 0.1,-0.4 0.1,-0.6 l 0.8,-3.6 h -1.1 l -0.5,2.1 c -0.1,0.6 -0.4,1.3 -1.2,1.3 -0.4,0 -0.6,-0.2 -0.6,-0.6 0,-0.3 0.1,-0.6 0.1,-0.9 l 0.4,-2 h -1.1 l -0.4,2 c -0.1,0.3 -0.1,0.6 -0.1,0.9 0,0.9 0.6,1.5 1.4,1.5 z"
       id="ML_SO_44_075_svg__path108" /><path
       d="m 343.8,307.2 c 0.4,0 0.6,0.2 0.6,0.6 0,0.3 -0.1,0.6 -0.1,0.9 l -0.4,2 h 1.1 l 0.4,-2 c 0.1,-0.3 0.1,-0.6 0.1,-0.9 0,-0.8 -0.5,-1.4 -1.4,-1.4 -0.5,0 -0.9,0.2 -1.2,0.5 l 0.1,-0.4 h -1.1 c 0,0.1 -0.1,0.4 -0.1,0.6 l -0.8,3.6 h 1.1 l 0.5,-2.1 c 0.1,-0.7 0.4,-1.4 1.2,-1.4 z"
       id="ML_SO_44_075_svg__path110" /><path
       d="m 346.8,308.7 c -0.1,0.3 -0.1,0.7 -0.1,1 0,0.8 0.5,1.1 1.3,1.1 0.2,0 0.4,-0.1 0.6,-0.1 l 0.2,-0.9 c -0.1,0.1 -0.3,0.1 -0.5,0.1 -0.2,0 -0.4,-0.2 -0.4,-0.4 v -0.4 l 0.4,-1.8 h 1 l 0.2,-0.8 h -1 l 0.3,-1.3 -1.2,0.4 -0.2,0.9 h -0.8 l -0.2,0.8 h 0.8 z"
       id="ML_SO_44_075_svg__path112" /><path
       d="m 351.8,308.1 c -1,0 -2.6,0.1 -2.6,1.5 0,0.8 0.5,1.2 1.3,1.2 0.6,0 1,-0.3 1.4,-0.7 l -0.1,0.6 h 0.9 c 0.1,-0.8 0.5,-2.5 0.5,-3 0,-1 -0.8,-1.3 -1.6,-1.3 -0.5,0 -1,0.1 -1.4,0.3 l -0.2,0.9 c 0.4,-0.2 0.9,-0.3 1.4,-0.3 0.4,0 0.8,0.1 0.8,0.5 v 0.4 h -0.4 z m -0.9,1.9 c -0.3,0 -0.6,-0.1 -0.6,-0.4 0,-0.7 0.9,-0.8 1.4,-0.8 h 0.4 c -0.2,0.6 -0.4,1.2 -1.2,1.2 z"
       id="ML_SO_44_075_svg__path114" /><path
       id="ML_SO_44_075_svg__polygon116"
       d="m 353.8,310.7 h 1.1 l 0.9,-4.3 h -1.1 z" /><path
       id="ML_SO_44_075_svg__polygon118"
       d="m 354.9,305.7 h 1.1 l 0.2,-1.1 h -1.1 z" /><path
       d="m 357.2,310.7 0.5,-2.1 c 0.1,-0.6 0.4,-1.3 1.2,-1.3 0.4,0 0.6,0.2 0.6,0.6 0,0.3 -0.1,0.6 -0.1,0.9 l -0.4,2 h 1.1 l 0.4,-2 c 0.1,-0.3 0.1,-0.6 0.1,-0.9 0,-0.8 -0.5,-1.4 -1.4,-1.4 -0.5,0 -0.9,0.2 -1.2,0.5 l 0.1,-0.4 H 357 c 0,0.1 -0.1,0.4 -0.1,0.6 l -0.8,3.6 h 1.1 z"
       id="ML_SO_44_075_svg__path120" /><path
       d="m 362.3,310.1 c 0.4,0.6 0.6,0.7 1.2,0.7 1.5,0 2.2,-1.4 2.2,-2.7 0,-1 -0.5,-1.7 -1.5,-1.7 -0.5,0 -0.9,0.2 -1.1,0.5 l 0.5,-2.3 h -1.1 l -1.3,6.2 h 1 z m 1.5,-2.9 c 0.5,0 0.8,0.4 0.8,0.9 0,0.7 -0.3,1.8 -1.2,1.8 -0.5,0 -0.7,-0.5 -0.7,-1 -0.1,-0.7 0.3,-1.7 1.1,-1.7 z"
       id="ML_SO_44_075_svg__path122" /><path
       id="ML_SO_44_075_svg__polygon124"
       d="m 366.1,310.7 h 1.1 l 0.9,-4.3 H 367 Z" /><path
       id="ML_SO_44_075_svg__polygon126"
       d="m 367.2,305.7 h 1.1 l 0.2,-1.1 h -1.1 z" /><path
       id="ML_SO_44_075_svg__polygon128"
       d="m 370,308.4 1,2.3 h 1.3 l -1.3,-2.3 2,-2 h -1.4 l -1.5,1.6 0.7,-3.5 h -1.1 l -1.3,6.2 h 1.1 l 0.4,-2.3 z" /><path
       d="m 375.1,310.8 c 0.5,0 0.9,-0.1 1.3,-0.2 l 0.1,-0.9 c -0.4,0.2 -0.8,0.3 -1.3,0.3 -0.8,0 -1.2,-0.3 -1.2,-1.1 h 3 c 0.1,-0.3 0.1,-0.6 0.1,-0.9 0,-1.1 -0.7,-1.6 -1.7,-1.6 -1.4,0 -2.4,1.3 -2.4,2.6 0,1.2 0.9,1.8 2.1,1.8 z m 0.3,-3.7 c 0.5,0 0.7,0.3 0.7,0.7 v 0.3 h -1.9 c 0.2,-0.5 0.5,-1 1.2,-1 z"
       id="ML_SO_44_075_svg__path130" /><path
       id="ML_SO_44_075_svg__polygon132"
       d="m 377.5,310.7 h 1.1 l 1.3,-6.2 h -1.1 z" /><path
       d="m 380.7,306.6 -0.2,0.9 c 0.4,-0.2 0.9,-0.3 1.4,-0.3 0.4,0 0.8,0.1 0.8,0.5 v 0.4 h -0.4 c -1,0 -2.6,0.1 -2.6,1.5 0,0.8 0.5,1.2 1.3,1.2 0.6,0 1,-0.3 1.4,-0.7 l -0.1,0.6 h 0.9 c 0.1,-0.8 0.5,-2.5 0.5,-3 0,-1 -0.8,-1.3 -1.6,-1.3 -0.4,-0.1 -0.9,0 -1.4,0.2 z m 0.7,3.4 c -0.3,0 -0.6,-0.1 -0.6,-0.4 0,-0.7 0.9,-0.8 1.4,-0.8 h 0.4 c -0.1,0.6 -0.4,1.2 -1.2,1.2 z"
       id="ML_SO_44_075_svg__path134" /><path
       d="m 385.9,308.5 c 0.1,-0.6 0.4,-1.3 1.2,-1.3 0.4,0 0.6,0.2 0.6,0.6 0,0.3 -0.1,0.6 -0.1,0.9 l -0.4,2 h 1.1 l 0.4,-2 c 0.1,-0.3 0.1,-0.6 0.1,-0.9 0,-0.8 -0.5,-1.4 -1.4,-1.4 -0.5,0 -0.9,0.2 -1.2,0.5 l 0.1,-0.4 h -1.1 c 0,0.1 -0.1,0.4 -0.1,0.6 l -0.8,3.6 h 1.1 z"
       id="ML_SO_44_075_svg__path136" /><path
       d="m 391,310.8 c 0.6,0 1,-0.3 1.4,-0.7 l -0.1,0.6 h 1 c 0,-0.2 0.1,-0.6 0.2,-0.9 l 1.1,-5.2 h -1.1 L 393,307 c -0.3,-0.4 -0.8,-0.6 -1.3,-0.6 -1.4,0 -2.1,1.4 -2.1,2.7 -0.1,0.8 0.4,1.7 1.4,1.7 z m 0.8,-3.6 c 0.6,0 0.8,0.5 0.8,1 0,0.8 -0.5,1.7 -1.3,1.7 -0.5,0 -0.7,-0.6 -0.7,-1 0.1,-0.6 0.4,-1.7 1.2,-1.7 z"
       id="ML_SO_44_075_svg__path138" /><path
       d="m 363.7,315.6 c 0,1.5 2,1.4 2,2.4 0,0.6 -0.5,0.9 -1.1,0.9 -0.5,0 -1,-0.2 -1.4,-0.4 l -0.3,1 c 0.5,0.2 1.1,0.3 1.6,0.3 1.3,0 2.4,-0.5 2.4,-1.9 0,-1.6 -2,-1.5 -2,-2.5 0,-0.5 0.5,-0.7 1,-0.7 0.4,0 0.9,0.1 1.2,0.3 l 0.3,-0.9 c -0.5,-0.2 -1,-0.3 -1.5,-0.3 -1.2,0 -2.2,0.6 -2.2,1.8 z"
       id="ML_SO_44_075_svg__path140" /><path
       d="m 367.7,317.9 c 0,1.1 0.7,1.8 1.8,1.8 0.4,0 0.7,0 1.1,-0.2 l 0.1,-0.9 c -0.3,0.1 -0.6,0.2 -0.9,0.2 -0.8,0 -0.9,-0.5 -0.9,-1.1 0,-0.8 0.5,-1.6 1.4,-1.6 0.3,0 0.6,0.1 0.8,0.2 l 0.3,-0.9 c -0.3,-0.1 -0.7,-0.2 -1.1,-0.2 -1.7,0.1 -2.6,1.3 -2.6,2.7 z"
       id="ML_SO_44_075_svg__path142" /><path
       d="m 372.4,313.5 -1.3,6.2 h 1.1 l 0.5,-2.1 c 0.1,-0.6 0.4,-1.3 1.2,-1.3 0.4,0 0.6,0.2 0.6,0.6 0,0.3 -0.1,0.6 -0.1,0.9 l -0.4,2 h 1.1 l 0.4,-2 c 0.1,-0.3 0.1,-0.6 0.1,-0.9 0,-0.8 -0.5,-1.4 -1.4,-1.4 -0.5,0 -0.9,0.2 -1.2,0.5 l 0.5,-2.3 h -1.1 z"
       id="ML_SO_44_075_svg__path144" /><path
       id="ML_SO_44_075_svg__polygon146"
       d="m 380.9,318.6 -0.2,-3.2 h -1.2 l -1.6,3.2 -0.3,-3.2 h -1.1 l 0.6,4.3 h 1.2 l 1.6,-3.3 0.2,3.3 h 1.2 l 2.4,-4.3 h -1.1 z" /><path
       d="m 385.6,319.8 c 0.5,0 0.9,-0.1 1.3,-0.2 l 0.1,-0.9 c -0.4,0.2 -0.8,0.3 -1.3,0.3 -0.8,0 -1.2,-0.3 -1.2,-1.1 h 3 c 0.1,-0.3 0.1,-0.6 0.1,-0.9 0,-1.1 -0.7,-1.6 -1.7,-1.6 -1.4,0 -2.4,1.3 -2.4,2.6 0,1.2 0.8,1.8 2.1,1.8 z m 0.3,-3.7 c 0.5,0 0.7,0.3 0.7,0.7 v 0.3 h -1.9 c 0.2,-0.5 0.5,-1 1.2,-1 z"
       id="ML_SO_44_075_svg__path148" /><path
       id="ML_SO_44_075_svg__polygon150"
       d="m 389.1,314.7 h 1.1 l 0.2,-1.1 h -1.1 z" /><path
       id="ML_SO_44_075_svg__polygon152"
       d="m 388.9,315.4 -0.9,4.3 h 1.1 l 0.9,-4.3 z" /><path
       id="ML_SO_44_075_svg__polygon154"
       d="m 393.7,318.8 h -2.2 l 2.6,-2.5 0.2,-0.9 H 391 l -0.2,0.9 h 1.9 l -2.6,2.5 -0.1,0.9 h 3.5 z" /><path
       id="ML_SO_44_075_svg__polygon156"
       style="fill:#e41b18"
       d="m 239.6,307.1 32.3,18.2 14.7,-16.5 -32.4,-18.1 z" /><path
       class="ML_SO_44_075_svg__st1"
       id="ML_SO_44_075_svg__polygon158"
       d="M 257.3,341.8 272,325.3 h -0.1 l -32.3,-18.2 -14.7,16.5 z" /></g><path
     id="path47-1"
     style="fill:#fffdfd;fill-opacity:1;fill-rule:nonzero;stroke:none;stroke-width:1"
     d="m 15.974368,4.9779533 c -0.244545,-0.01134 -0.669433,0.09128 -0.864258,0.518541 -0.02721,0.05471 -0.208006,0.484866 -0.208006,0.484866 l 2.141603,0.555166 c -0.214838,-0.49218 -0.148932,-1.367178 -0.977052,-1.546866 -0.02636,-0.0057 -0.05734,-0.01134 -0.0923,-0.01134 z m -1.119141,1.20994 c -0.04297,0.199275 -0.108397,0.375505 -0.108397,0.555193 -0.004,0.429676 0.179207,0.930161 0.698735,0.930161 0.378904,0 1.050293,-0.375959 1.050293,-0.911112 v -0.117071 z m 3.430664,0.654803 c -0.01559,0.0014 -0.03101,0.0057 -0.04397,0.01134 -0.140627,0.05074 -0.256819,0.05074 -0.342771,0.175749 -0.101566,0.164125 0.312009,0.343729 0.487794,0.562478 0.398435,0.511739 0.648927,0.940451 0.87158,1.397481 0.05468,0.09751 0.261241,0.796875 0.558108,0.796875 0.363282,0 0.66797,-0.838885 0.66797,-0.9756 0,-0.351921 -1.715057,-2.009679 -2.19873,-1.967272 z m -1.187986,0.294435 c -0.61719,0 -2.922366,1.691404 -4.328614,2.601552 -0.449218,-0.125008 -0.905276,0.4609417 -0.553709,0.8906177 0.195307,0.250015 0.47998,0.254834 0.687011,0.149385 0.160157,-0.0703 0.270028,-0.223653 0.29736,-0.383782 0.249987,0.222803 0.687013,0.644542 0.687013,0.644542 -0.57422,0.644513 -1.055177,1.187971 -1.469239,1.645001 -0.05859,0.06265 -0.144057,0.164693 -0.253418,0.285647 -0.460939,-0.374995 -1.046387,-0.597656 -1.683105,-0.597656 -1.4570332,0 -2.6411132,1.17873 -2.6411132,2.63965 0,1.457036 1.18408,2.636731 2.6411132,2.636731 1.464843,0 2.651366,-1.179695 2.651366,-2.636731 0,-0.613275 -0.210926,-1.179184 -0.562498,-1.624507 l 0.602053,-0.667956 c 0.249987,0.988271 1.129394,4.160154 1.129394,4.160154 0,0 0.722168,0.225922 1.601073,0.499493 -0.02721,0.152504 -0.04249,0.308608 -0.04249,0.468766 0,1.460919 1.183595,2.641096 2.648438,2.641096 1.46094,0 2.651369,-1.180177 2.651369,-2.641096 0,-1.457036 -1.190429,-2.648438 -2.651369,-2.648438 -0.03515,0 -0.0703,4.82e-4 -0.105477,0.0057 L 18.18335,13.982151 c 0.753905,-0.777345 1.758299,-1.690413 1.703613,-2.25292 -0.105477,-1.058599 -1.425294,-4.4101697 -2.57373,-4.5703277 -0.160158,0 -0.168463,-0.01984 -0.215348,-0.01984 z m -0.914065,1.593751 c 0.40625,0.714841 1.343262,2.4345637 1.343262,2.4345637 0,0 -1.38623,0.347159 -2.081543,0.487785 l -0.05859,0.555194 -1.308107,-0.48926 0.635743,-0.714841 -1.057617,-0.890645 z m -2.54736,3.4541007 1.68457,0.632806 c -0.08595,0.691398 -0.203613,1.772447 -0.203613,1.772447 0,0.195307 -0.10987,0.915052 -0.10987,1.227543 0,0.257953 0.18017,0.58887 0.613771,0.542013 0.429687,-0.03912 1.219238,-0.97268 2.043454,-1.839855 l 0.140627,0.770513 c -0.777342,0.218835 -1.415039,0.781257 -1.731444,1.511717 l -1.327148,-0.42188 z m 4.145505,0.18737 -0.38672,0.588869 -1.051758,-0.401358 z m -7.300781,0.750019 c 0.445312,0 0.85449,0.151937 1.174805,0.405751 -0.312497,0.351552 -0.67871,0.757814 -1.010741,1.125014 -0.277342,0.07824 -0.484376,0.164693 -0.433596,0.449688 0.03124,0.144567 0.226063,0.229606 0.358889,0.178866 0.04688,-0.01134 0.101083,-0.03033 0.405762,-0.120189 l 1.08252,-1.204101 c 0.203131,0.300785 0.323731,0.664073 0.323731,1.054687 0,1.046891 -0.850586,1.898447 -1.901367,1.898447 -1.0390652,0 -1.8911142,-0.851556 -1.8911142,-1.898447 0,-1.050775 0.852049,-1.889631 1.8911142,-1.889631 z m 5.749512,0.02551 0.824706,0.325191 -1.094235,1.652343 z m 2.308592,2.800772 c 1.031253,0.01984 1.867678,0.863773 1.867678,1.891134 0,1.046863 -0.851565,1.894025 -1.898439,1.894025 -1.039062,0 -1.895508,-0.847162 -1.895508,-1.894025 0,-0.07824 0.004,-0.156189 0.01162,-0.234425 0.714844,0.218834 1.418457,0.440929 1.855956,0.581556 0.285157,0.06265 0.437992,-0.06208 0.402832,-0.31201 z m -0.597656,0.08646 0.269518,1.445811 -1.413576,-0.449717 c 0.226574,-0.468737 0.640137,-0.839849 1.144044,-0.996094 z" /></svg>
