<?xml version="1.0" encoding="UTF-8"?>
<svg xmlns="http://www.w3.org/2000/svg" xmlns:xlink="http://www.w3.org/1999/xlink" width="81pt" height="82pt" viewBox="0 0 81 82" version="1.1">
<g id="surface1">
<path style="fill-rule:nonzero;fill:rgb(100%,100%,100%);fill-opacity:1;stroke-width:2.835;stroke-linecap:butt;stroke-linejoin:round;stroke:rgb(13.729858%,12.159729%,12.548828%);stroke-opacity:1;stroke-miterlimit:4;" d="M 405.273438 809.296875 L 4.21875 408.28125 L 405.273438 7.226562 L 806.171875 408.28125 L 405.273438 809.296875 " transform="matrix(0.1,0,0,-0.1,0,82)"/>
<path style=" stroke:none;fill-rule:nonzero;fill:rgb(68.630981%,12.666321%,10.813904%);fill-opacity:1;" d="M 40.5625 6.699219 L 6.039062 41.222656 L 40.5625 75.746094 L 75.078125 41.222656 L 40.5625 6.699219 "/>
<path style=" stroke:none;fill-rule:nonzero;fill:rgb(100%,100%,100%);fill-opacity:1;" d="M 50.019531 37.28125 C 50.621094 37.125 51.253906 37 51.902344 37 C 55.84375 37 59.046875 40.203125 59.046875 44.148438 C 59.046875 48.089844 55.84375 51.292969 51.902344 51.292969 C 48.414062 51.292969 45.5 48.785156 44.878906 45.476562 L 43.320312 45.46875 C 42.941406 45.46875 42.472656 45.46875 42.101562 45.316406 C 41.710938 45.1875 41.371094 44.90625 41.082031 44.613281 L 32.292969 35.820312 L 31.792969 37.390625 C 34.515625 38.410156 36.503906 40.988281 36.503906 44.0625 C 36.503906 48.007812 33.300781 51.21875 29.351562 51.21875 C 25.402344 51.21875 22.191406 48.007812 22.199219 44.0625 C 22.199219 40.113281 25.402344 36.910156 29.351562 36.910156 C 29.742188 36.910156 30.09375 36.957031 30.476562 37.019531 L 32.625 29.464844 C 32.777344 28.957031 32.976562 28.34375 33.335938 27.984375 C 33.742188 27.558594 34.4375 27.289062 35.242188 27.28125 L 37.878906 27.28125 L 37.878906 28.679688 L 35.769531 28.679688 C 35.355469 28.679688 34.832031 28.679688 34.546875 28.914062 C 34.265625 29.164062 34.175781 29.480469 34.066406 29.859375 L 33.597656 31.390625 L 46.222656 31.390625 L 46.671875 30.09375 L 44.671875 29.609375 L 44.671875 28.679688 L 49.160156 28.679688 L 49.160156 30.09375 L 48.078125 30.09375 L 47.609375 31.394531 L 50.019531 37.28125 "/>
<path style=" stroke:none;fill-rule:nonzero;fill:rgb(68.630981%,12.666321%,10.813904%);fill-opacity:1;" d="M 50.476562 38.699219 C 50.902344 38.589844 51.34375 38.539062 51.800781 38.539062 C 54.894531 38.539062 57.40625 41.050781 57.40625 44.148438 C 57.40625 47.238281 54.894531 49.753906 51.800781 49.753906 C 49.179688 49.753906 46.957031 47.933594 46.347656 45.488281 L 50.871094 45.480469 C 51.414062 45.488281 52.253906 45.519531 52.59375 44.980469 C 52.875 44.527344 52.519531 43.816406 52.40625 43.496094 L 50.476562 38.699219 "/>
<path style=" stroke:none;fill-rule:nonzero;fill:rgb(68.630981%,12.666321%,10.813904%);fill-opacity:1;" d="M 45.746094 32.769531 L 42.152344 43.765625 L 32.785156 34.28125 L 33.195312 32.769531 L 45.746094 32.769531 "/>
<path style=" stroke:none;fill-rule:nonzero;fill:rgb(68.630981%,12.666321%,10.813904%);fill-opacity:1;" d="M 48.699219 37.738281 C 46.390625 38.902344 44.796875 41.292969 44.753906 44.035156 L 43.535156 44.035156 L 46.960938 33.636719 L 48.699219 37.738281 "/>
<path style=" stroke:none;fill-rule:nonzero;fill:rgb(68.630981%,12.666321%,10.813904%);fill-opacity:1;" d="M 31.320312 38.902344 C 33.382812 39.726562 34.851562 41.746094 34.851562 44.101562 C 34.851562 47.191406 32.335938 49.703125 29.25 49.703125 C 26.152344 49.703125 23.636719 47.191406 23.636719 44.101562 C 23.636719 41.015625 26.152344 38.503906 29.238281 38.503906 C 29.476562 38.496094 29.710938 38.515625 29.941406 38.539062 L 28.425781 43.914062 C 28.351562 44.175781 28.292969 44.675781 28.875 44.847656 C 29.449219 45.015625 29.730469 44.609375 29.816406 44.320312 L 31.320312 38.902344 "/>
<path style=" stroke:none;fill-rule:nonzero;fill:rgb(68.630981%,12.666321%,10.813904%);fill-opacity:1;" d="M 49.164062 39.25 L 51.058594 44.097656 L 46.226562 44.097656 C 46.226562 41.964844 47.410156 40.207031 49.164062 39.25 "/>
</g>
</svg>
