<?xml version="1.0" encoding="UTF-8"?>
<svg xmlns="http://www.w3.org/2000/svg" xmlns:xlink="http://www.w3.org/1999/xlink" width="101pt" height="72pt" viewBox="0 0 101 72" version="1.1">
<g id="surface1">
<path style=" stroke:none;fill-rule:nonzero;fill:rgb(48.272705%,47.331238%,47.564697%);fill-opacity:1;" d="M 0.914062 71.609375 L 100.125 71.609375 L 100.125 0.742188 L 0.914062 0.742188 Z M 0.914062 71.609375 "/>
<path style="fill:none;stroke-width:2.835;stroke-linecap:butt;stroke-linejoin:miter;stroke:rgb(13.729858%,12.159729%,12.548828%);stroke-opacity:1;stroke-miterlimit:4;" d="M 9.140625 3.90625 L 1001.25 3.90625 L 1001.25 712.578125 L 9.140625 712.578125 L 9.140625 3.90625 " transform="matrix(0.1,0,0,-0.1,0,72)"/>
<path style=" stroke:none;fill-rule:nonzero;fill:rgb(100%,100%,100%);fill-opacity:1;" d="M 0.9375 53.390625 L 0.9375 63.511719 L 30.695312 63.507812 L 30.695312 71.609375 L 40.609375 71.609375 L 40.609375 63.507812 L 82.269531 63.507812 L 82.269531 71.609375 L 92.1875 71.609375 L 92.1875 63.511719 L 100.125 63.511719 L 100.125 53.390625 L 92.1875 53.390625 L 92.1875 18.972656 L 100.125 18.972656 L 100.125 8.851562 L 92.1875 8.851562 L 92.1875 0.753906 L 82.269531 0.753906 L 82.269531 8.851562 L 40.609375 8.851562 L 40.609375 0.753906 L 30.695312 0.753906 L 30.695312 8.851562 L 0.9375 8.851562 L 0.9375 18.972656 L 30.695312 18.972656 L 30.695312 53.390625 L 0.9375 53.390625 "/>
<path style=" stroke:none;fill-rule:nonzero;fill:rgb(48.272705%,47.331238%,47.564697%);fill-opacity:1;" d="M 40.597656 53.382812 L 82.253906 53.382812 L 82.257812 18.964844 L 40.597656 18.964844 L 40.597656 53.382812 "/>
<path style=" stroke:none;fill-rule:nonzero;fill:rgb(13.729858%,12.159729%,12.548828%);fill-opacity:1;" d="M 22.371094 17.859375 L 18.269531 14.085938 C 18.164062 13.992188 18.164062 13.820312 18.269531 13.722656 L 22.371094 9.953125 C 22.449219 9.878906 22.5625 9.871094 22.652344 9.921875 C 22.742188 9.976562 22.789062 10.085938 22.761719 10.1875 L 22.246094 12.386719 L 82.253906 12.386719 C 85.816406 12.386719 88.699219 15.332031 88.699219 18.964844 L 88.699219 53.378906 C 88.699219 57.015625 85.816406 59.960938 82.253906 59.960938 L 40.101562 59.960938 C 38.457031 59.960938 37.125 61.320312 37.125 62.996094 L 37.125 71.601562 L 34.148438 71.601562 L 34.148438 63.503906 C 34.148438 59.867188 37.035156 56.921875 40.597656 56.921875 L 82.746094 56.921875 C 84.394531 56.921875 85.722656 55.566406 85.722656 53.886719 L 85.722656 18.460938 C 85.722656 16.78125 84.394531 15.421875 82.746094 15.421875 L 22.246094 15.421875 L 22.761719 17.621094 C 22.789062 17.722656 22.742188 17.832031 22.652344 17.886719 C 22.5625 17.941406 22.449219 17.929688 22.371094 17.859375 "/>
</g>
</svg>
