<?xml version="1.0" encoding="UTF-8"?>
<svg xmlns="http://www.w3.org/2000/svg" xmlns:xlink="http://www.w3.org/1999/xlink" width="133pt" height="103pt" viewBox="0 0 133 103" version="1.1">
<g id="surface1">
<path style=" stroke:none;fill-rule:nonzero;fill:rgb(100%,100%,100%);fill-opacity:1;" d="M 0.613281 102.195312 L 132.425781 102.195312 L 132.425781 0.148438 L 0.613281 0.148438 Z M 0.613281 102.195312 "/>
<path style="fill:none;stroke-width:2.835;stroke-linecap:butt;stroke-linejoin:miter;stroke:rgb(13.729858%,12.159729%,12.548828%);stroke-opacity:1;stroke-miterlimit:4;" d="M 6.132812 8.046875 L 1324.257812 8.046875 L 1324.257812 1028.515625 L 6.132812 1028.515625 L 6.132812 8.046875 " transform="matrix(0.1,0,0,-0.1,0,103)"/>
<path style=" stroke:none;fill-rule:nonzero;fill:rgb(10.112%,40.585327%,73.280334%);fill-opacity:1;" d="M 2.339844 100.535156 L 130.75 100.535156 L 130.75 1.886719 L 2.339844 1.886719 Z M 2.339844 100.535156 "/>
<path style=" stroke:none;fill-rule:nonzero;fill:rgb(100%,100%,100%);fill-opacity:1;" d="M 115.757812 17.550781 C 115.953125 17.769531 115.984375 18.097656 115.835938 18.351562 C 115.679688 18.609375 115.378906 18.734375 115.089844 18.667969 L 108.9375 17.191406 L 108.9375 80.96875 L 100.4375 80.96875 L 100.4375 46.953125 L 84.71875 46.953125 L 79.90625 38.449219 L 100.4375 38.449219 L 100.4375 17.1875 L 94.28125 18.667969 C 93.992188 18.734375 93.691406 18.609375 93.539062 18.355469 C 93.386719 18.097656 93.417969 17.769531 93.617188 17.550781 L 104.179688 5.820312 C 104.449219 5.519531 104.925781 5.519531 105.191406 5.820312 L 115.757812 17.550781 "/>
<path style=" stroke:none;fill-rule:nonzero;fill:rgb(100%,100%,100%);fill-opacity:1;" d="M 24.261719 31.640625 C 24.484375 31.441406 24.808594 31.410156 25.066406 31.558594 C 25.320312 31.714844 25.449219 32.015625 25.378906 32.304688 L 23.902344 38.457031 L 53.050781 38.457031 L 48.191406 46.960938 L 23.902344 46.960938 L 25.378906 53.109375 C 25.449219 53.398438 25.320312 53.703125 25.066406 53.851562 C 24.808594 54.007812 24.484375 53.972656 24.261719 53.777344 L 12.535156 43.214844 C 12.230469 42.945312 12.230469 42.472656 12.53125 42.203125 L 24.261719 31.640625 "/>
<path style=" stroke:none;fill-rule:nonzero;fill:rgb(100%,100%,100%);fill-opacity:1;" d="M 91.089844 95.207031 C 91.332031 95.292969 91.609375 95.382812 91.945312 95.449219 C 92.265625 95.523438 92.621094 95.5625 92.992188 95.5625 C 93.941406 95.5625 94.667969 95.28125 95.179688 94.730469 C 95.695312 94.167969 95.949219 93.414062 95.949219 92.457031 C 95.949219 92.019531 95.882812 91.621094 95.757812 91.289062 C 95.617188 90.945312 95.4375 90.664062 95.21875 90.433594 C 95.003906 90.203125 94.730469 90.035156 94.441406 89.921875 C 94.132812 89.804688 93.8125 89.742188 93.480469 89.742188 C 93.273438 89.742188 93.082031 89.753906 92.914062 89.78125 C 92.738281 89.792969 92.582031 89.832031 92.46875 89.867188 L 92.46875 87.617188 L 95.527344 87.617188 L 95.527344 86.53125 L 91.21875 86.53125 L 91.21875 91.085938 C 91.433594 91.019531 91.664062 90.957031 91.894531 90.894531 C 92.121094 90.832031 92.394531 90.804688 92.6875 90.804688 C 93.300781 90.804688 93.761719 90.96875 94.082031 91.289062 C 94.386719 91.609375 94.542969 92.042969 94.542969 92.570312 C 94.542969 93.121094 94.386719 93.566406 94.066406 93.914062 C 93.746094 94.269531 93.3125 94.449219 92.761719 94.449219 C 92.445312 94.449219 92.148438 94.398438 91.882812 94.308594 C 91.609375 94.21875 91.371094 94.117188 91.164062 94 L 91.089844 95.207031 "/>
<path style=" stroke:none;fill-rule:nonzero;fill:rgb(100%,100%,100%);fill-opacity:1;" d="M 97.679688 94.257812 C 97.898438 94.667969 98.179688 94.988281 98.527344 95.21875 C 98.871094 95.449219 99.28125 95.5625 99.777344 95.5625 C 100.277344 95.5625 100.699219 95.449219 101.042969 95.207031 C 101.390625 94.972656 101.671875 94.65625 101.890625 94.246094 C 102.105469 93.835938 102.261719 93.351562 102.351562 92.800781 C 102.4375 92.25 102.492188 91.648438 102.492188 90.996094 C 102.492188 90.34375 102.4375 89.742188 102.351562 89.179688 C 102.261719 88.628906 102.105469 88.144531 101.890625 87.734375 C 101.671875 87.324219 101.390625 87.007812 101.042969 86.761719 C 100.699219 86.53125 100.277344 86.414062 99.777344 86.414062 C 99.28125 86.414062 98.859375 86.53125 98.511719 86.761719 C 98.167969 87.007812 97.898438 87.324219 97.679688 87.734375 C 97.464844 88.144531 97.308594 88.628906 97.21875 89.179688 C 97.128906 89.742188 97.082031 90.34375 97.082031 90.996094 C 97.082031 91.648438 97.128906 92.25 97.21875 92.800781 C 97.308594 93.363281 97.464844 93.847656 97.679688 94.257812 "/>
<path style=" stroke:none;fill-rule:nonzero;fill:rgb(100%,100%,100%);fill-opacity:1;" d="M 109.976562 95.460938 L 111.308594 95.460938 L 111.308594 91.445312 C 111.308594 90.957031 111.410156 90.585938 111.601562 90.320312 C 111.796875 90.046875 112.089844 89.921875 112.460938 89.921875 C 113.074219 89.921875 113.382812 90.332031 113.382812 91.136719 L 113.382812 95.460938 L 114.714844 95.460938 L 114.714844 91.445312 C 114.714844 90.957031 114.8125 90.585938 115.007812 90.320312 C 115.199219 90.046875 115.492188 89.921875 115.863281 89.921875 C 116.476562 89.921875 116.785156 90.332031 116.785156 91.136719 L 116.785156 95.460938 L 118.113281 95.460938 L 118.113281 91.164062 C 118.113281 90.394531 117.960938 89.804688 117.652344 89.410156 C 117.335938 89.015625 116.859375 88.808594 116.222656 88.808594 C 115.800781 88.808594 115.453125 88.910156 115.1875 89.113281 C 114.914062 89.335938 114.714844 89.574219 114.546875 89.84375 C 114.480469 89.714844 114.402344 89.589844 114.316406 89.460938 C 114.226562 89.347656 114.109375 89.230469 113.980469 89.128906 C 113.855469 89.039062 113.703125 88.960938 113.535156 88.898438 C 113.367188 88.835938 113.164062 88.808594 112.945312 88.808594 C 112.535156 88.808594 112.203125 88.910156 111.933594 89.113281 C 111.667969 89.335938 111.449219 89.589844 111.308594 89.90625 L 111.28125 89.90625 C 111.28125 89.867188 111.28125 89.792969 111.28125 89.691406 C 111.269531 89.601562 111.269531 89.5 111.269531 89.398438 C 111.257812 89.292969 111.257812 89.191406 111.257812 89.101562 C 111.246094 89.015625 111.246094 88.9375 111.246094 88.898438 L 109.929688 88.898438 C 109.9375 89.078125 109.953125 89.269531 109.964844 89.472656 C 109.976562 89.679688 109.976562 89.894531 109.976562 90.140625 L 109.976562 95.460938 "/>
<path style=" stroke:none;fill-rule:nonzero;fill:rgb(10.112%,40.585327%,73.280334%);fill-opacity:1;" d="M 98.726562 93.582031 C 98.539062 92.980469 98.433594 92.109375 98.433594 90.996094 C 98.433594 89.882812 98.539062 89.015625 98.726562 88.398438 C 98.921875 87.785156 99.28125 87.476562 99.777344 87.476562 C 100.289062 87.476562 100.648438 87.785156 100.84375 88.386719 C 101.03125 89 101.136719 89.867188 101.136719 90.996094 C 101.136719 92.109375 101.03125 92.980469 100.84375 93.582031 C 100.636719 94.195312 100.277344 94.5 99.777344 94.5 C 99.28125 94.5 98.921875 94.195312 98.726562 93.582031 "/>
<path style=" stroke:none;fill-rule:nonzero;fill:rgb(93.527222%,17.272949%,18.882751%);fill-opacity:1;" d="M 88.558594 59.691406 L 88.804688 59.671875 L 89.046875 59.621094 L 89.28125 59.546875 L 89.5 59.445312 L 89.710938 59.3125 L 89.898438 59.15625 L 90.070312 58.980469 L 90.21875 58.777344 L 90.347656 58.539062 L 90.445312 58.289062 L 90.5 58.027344 L 90.527344 57.769531 L 90.515625 57.503906 L 90.46875 57.238281 L 90.390625 56.984375 L 90.277344 56.738281 L 68.398438 18.078125 L 68.25 17.851562 L 68.078125 17.644531 L 67.878906 17.464844 L 67.660156 17.308594 L 67.425781 17.183594 L 67.175781 17.085938 L 66.914062 17.019531 L 66.644531 16.992188 L 66.347656 16.996094 L 66.054688 17.042969 L 65.777344 17.132812 L 65.511719 17.253906 L 65.269531 17.410156 L 65.046875 17.601562 L 64.851562 17.820312 L 64.6875 18.070312 L 42.597656 56.734375 L 42.480469 56.980469 L 42.398438 57.234375 L 42.351562 57.496094 L 42.34375 57.761719 L 42.367188 58.027344 L 42.429688 58.289062 L 42.523438 58.542969 L 42.65625 58.785156 L 42.804688 58.984375 L 42.976562 59.164062 L 43.164062 59.320312 L 43.371094 59.449219 L 43.59375 59.550781 L 43.828125 59.628906 L 44.074219 59.675781 L 44.324219 59.691406 L 88.558594 59.691406 "/>
<path style=" stroke:none;fill-rule:nonzero;fill:rgb(100%,100%,100%);fill-opacity:1;" d="M 84.945312 55.738281 L 66.414062 23.40625 L 48.023438 55.714844 L 84.945312 55.738281 "/>
<path style=" stroke:none;fill-rule:nonzero;fill:rgb(13.729858%,12.159729%,12.548828%);fill-opacity:1;" d="M 58.695312 51.09375 L 58.695312 49.675781 L 57.679688 49.675781 L 57.679688 47.695312 L 58.695312 47.695312 L 58.695312 44.289062 L 57.679688 44.289062 L 57.679688 42.308594 L 58.695312 42.308594 L 58.695312 41.175781 L 59.640625 39.472656 L 60.671875 41.175781 L 60.671875 42.308594 L 62.085938 42.308594 L 62.085938 41.175781 L 63.035156 39.472656 L 64.0625 41.175781 L 64.0625 42.308594 L 65.476562 42.308594 L 65.476562 41.175781 L 66.4375 39.472656 L 67.453125 41.175781 L 67.453125 42.308594 L 68.863281 42.308594 L 68.863281 41.175781 L 69.832031 39.472656 L 70.84375 41.175781 L 70.84375 42.308594 L 72.257812 42.308594 L 72.257812 41.175781 L 73.226562 39.472656 L 74.230469 41.175781 L 74.230469 42.308594 L 75.25 42.308594 L 75.25 44.289062 L 74.230469 44.289062 L 74.230469 47.695312 L 75.25 47.695312 L 75.25 49.675781 L 74.230469 49.675781 L 74.230469 51.09375 L 72.257812 51.09375 L 72.257812 49.675781 L 70.84375 49.675781 L 70.84375 51.09375 L 68.863281 51.09375 L 68.863281 49.675781 L 67.453125 49.675781 L 67.453125 51.09375 L 65.476562 51.09375 L 65.476562 49.675781 L 64.0625 49.675781 L 64.0625 51.09375 L 62.085938 51.09375 L 62.085938 49.675781 L 60.671875 49.675781 L 60.671875 51.09375 L 58.695312 51.09375 "/>
<path style=" stroke:none;fill-rule:nonzero;fill:rgb(100%,100%,100%);fill-opacity:1;" d="M 60.703125 47.703125 L 62.117188 47.703125 L 62.117188 44.300781 L 60.703125 44.300781 Z M 60.703125 47.703125 "/>
<path style=" stroke:none;fill-rule:nonzero;fill:rgb(100%,100%,100%);fill-opacity:1;" d="M 64.050781 47.703125 L 65.464844 47.703125 L 65.464844 44.300781 L 64.050781 44.300781 Z M 64.050781 47.703125 "/>
<path style=" stroke:none;fill-rule:nonzero;fill:rgb(100%,100%,100%);fill-opacity:1;" d="M 67.441406 47.703125 L 68.855469 47.703125 L 68.855469 44.300781 L 67.441406 44.300781 Z M 67.441406 47.703125 "/>
<path style=" stroke:none;fill-rule:nonzero;fill:rgb(100%,100%,100%);fill-opacity:1;" d="M 70.855469 47.703125 L 72.265625 47.703125 L 72.265625 44.300781 L 70.855469 44.300781 Z M 70.855469 47.703125 "/>
</g>
</svg>
