<?xml version="1.0" encoding="UTF-8"?>
<svg xmlns="http://www.w3.org/2000/svg" xmlns:xlink="http://www.w3.org/1999/xlink" width="69pt" height="44pt" viewBox="0 0 69 44" version="1.1">
<g id="surface1">
<path style=" stroke:none;fill-rule:nonzero;fill:rgb(100%,100%,100%);fill-opacity:1;" d="M 0.503906 43.433594 L 68.535156 43.433594 L 68.535156 0.914062 L 0.503906 0.914062 Z M 0.503906 43.433594 "/>
<path style="fill:none;stroke-width:2.835;stroke-linecap:butt;stroke-linejoin:round;stroke:rgb(13.729858%,12.159729%,12.548828%);stroke-opacity:1;stroke-miterlimit:4;" d="M 5.039062 5.664062 L 685.351562 5.664062 L 685.351562 430.859375 L 5.039062 430.859375 L 5.039062 5.664062 " transform="matrix(0.1,0,0,-0.1,0,44)"/>
<path style=" stroke:none;fill-rule:nonzero;fill:rgb(13.729858%,12.159729%,12.548828%);fill-opacity:1;" d="M 1.851562 38.640625 C 1.851562 40.519531 3.371094 42.042969 5.253906 42.042969 L 63.757812 42.042969 C 65.636719 42.042969 67.160156 40.519531 67.160156 38.640625 L 67.160156 5.644531 C 67.160156 3.765625 65.636719 2.242188 63.757812 2.242188 L 5.253906 2.242188 C 3.371094 2.242188 1.851562 3.765625 1.851562 5.644531 L 1.851562 38.640625 "/>
<path style=" stroke:none;fill-rule:nonzero;fill:rgb(100%,100%,100%);fill-opacity:1;" d="M 5.238281 3.273438 C 3.925781 3.273438 2.859375 4.339844 2.859375 5.65625 L 2.859375 38.652344 C 2.859375 39.964844 3.925781 41.03125 5.238281 41.03125 L 63.746094 41.03125 C 65.0625 41.03125 66.128906 39.964844 66.128906 38.652344 L 66.128906 5.65625 C 66.128906 4.339844 65.0625 3.273438 63.746094 3.273438 L 5.238281 3.273438 "/>
<path style=" stroke:none;fill-rule:nonzero;fill:rgb(13.729858%,12.159729%,12.548828%);fill-opacity:1;" d="M 18.324219 18.902344 L 19.796875 18.902344 L 19.796875 15.039062 L 20.683594 15.039062 C 21.679688 15.039062 22.445312 14.792969 22.964844 14.289062 C 23.46875 13.796875 23.726562 13.089844 23.726562 12.175781 C 23.726562 11.261719 23.46875 10.566406 22.949219 10.085938 C 22.429688 9.609375 21.722656 9.378906 20.835938 9.378906 L 18.324219 9.378906 L 18.324219 18.902344 "/>
<path style=" stroke:none;fill-rule:nonzero;fill:rgb(13.729858%,12.159729%,12.548828%);fill-opacity:1;" d="M 25.285156 18.152344 C 25.542969 18.4375 25.859375 18.65625 26.226562 18.792969 C 26.582031 18.929688 26.964844 18.996094 27.371094 18.996094 C 27.78125 18.996094 28.164062 18.929688 28.53125 18.792969 C 28.886719 18.65625 29.199219 18.4375 29.460938 18.152344 C 29.71875 17.863281 29.9375 17.496094 30.089844 17.046875 C 30.238281 16.59375 30.320312 16.035156 30.320312 15.394531 C 30.320312 14.765625 30.238281 14.222656 30.089844 13.769531 C 29.9375 13.320312 29.71875 12.9375 29.460938 12.652344 C 29.199219 12.367188 28.886719 12.148438 28.53125 12.011719 C 28.164062 11.875 27.78125 11.804688 27.371094 11.804688 C 26.964844 11.804688 26.582031 11.875 26.226562 12.011719 C 25.859375 12.148438 25.542969 12.367188 25.285156 12.652344 C 25.027344 12.9375 24.808594 13.320312 24.65625 13.769531 C 24.507812 14.222656 24.425781 14.765625 24.425781 15.394531 C 24.425781 16.035156 24.507812 16.59375 24.65625 17.046875 C 24.808594 17.496094 25.027344 17.863281 25.285156 18.152344 "/>
<path style=" stroke:none;fill-rule:nonzero;fill:rgb(13.729858%,12.159729%,12.548828%);fill-opacity:1;" d="M 32.277344 18.902344 L 33.695312 18.902344 L 33.695312 8.667969 L 32.277344 8.667969 L 32.277344 18.902344 "/>
<path style=" stroke:none;fill-rule:nonzero;fill:rgb(13.729858%,12.159729%,12.548828%);fill-opacity:1;" d="M 36.058594 18.902344 L 37.480469 18.902344 L 37.480469 11.902344 L 36.058594 11.902344 L 36.058594 18.902344 "/>
<path style=" stroke:none;fill-rule:nonzero;fill:rgb(13.729858%,12.159729%,12.548828%);fill-opacity:1;" d="M 36.019531 10.496094 L 37.519531 10.496094 L 37.519531 8.980469 L 36.019531 8.980469 L 36.019531 10.496094 "/>
<path style=" stroke:none;fill-rule:nonzero;fill:rgb(13.729858%,12.159729%,12.548828%);fill-opacity:1;" d="M 44.183594 18.710938 L 44.101562 17.511719 C 43.949219 17.605469 43.746094 17.6875 43.515625 17.757812 C 43.28125 17.824219 43.035156 17.863281 42.804688 17.863281 C 42.191406 17.863281 41.726562 17.648438 41.398438 17.210938 C 41.058594 16.773438 40.894531 16.1875 40.894531 15.449219 C 40.894531 14.589844 41.058594 13.960938 41.386719 13.554688 C 41.714844 13.144531 42.175781 12.9375 42.777344 12.9375 C 43.035156 12.9375 43.269531 12.964844 43.472656 13.035156 C 43.675781 13.101562 43.855469 13.171875 44.03125 13.265625 L 44.101562 12.078125 C 43.921875 12.011719 43.71875 11.941406 43.460938 11.890625 C 43.199219 11.835938 42.941406 11.804688 42.679688 11.804688 C 42.148438 11.804688 41.671875 11.890625 41.261719 12.066406 C 40.851562 12.242188 40.511719 12.503906 40.238281 12.816406 C 39.964844 13.144531 39.761719 13.527344 39.625 13.976562 C 39.488281 14.425781 39.421875 14.902344 39.421875 15.4375 C 39.421875 15.925781 39.488281 16.390625 39.613281 16.828125 C 39.734375 17.265625 39.9375 17.648438 40.199219 17.960938 C 40.457031 18.273438 40.785156 18.535156 41.195312 18.710938 C 41.589844 18.902344 42.070312 18.996094 42.613281 18.996094 C 42.914062 18.996094 43.199219 18.96875 43.488281 18.914062 C 43.773438 18.847656 44.003906 18.777344 44.183594 18.710938 "/>
<path style=" stroke:none;fill-rule:nonzero;fill:rgb(13.729858%,12.159729%,12.548828%);fill-opacity:1;" d="M 46.71875 15.804688 L 50.71875 15.804688 L 50.71875 15.328125 C 50.71875 14.714844 50.648438 14.195312 50.527344 13.742188 C 50.402344 13.292969 50.226562 12.925781 49.996094 12.636719 C 49.761719 12.351562 49.476562 12.148438 49.160156 12.011719 C 48.835938 11.875 48.480469 11.804688 48.097656 11.804688 C 47.660156 11.804688 47.265625 11.890625 46.921875 12.066406 C 46.570312 12.242188 46.269531 12.503906 46.039062 12.816406 C 45.804688 13.144531 45.613281 13.527344 45.492188 13.976562 C 45.367188 14.425781 45.300781 14.917969 45.300781 15.449219 C 45.300781 15.953125 45.367188 16.433594 45.492188 16.867188 C 45.613281 17.304688 45.792969 17.671875 46.050781 17.988281 C 46.296875 18.300781 46.609375 18.546875 46.992188 18.722656 C 47.375 18.914062 47.824219 18.996094 48.328125 18.996094 C 48.765625 18.996094 49.160156 18.957031 49.503906 18.859375 C 49.84375 18.765625 50.117188 18.667969 50.347656 18.574219 L 50.28125 17.386719 C 50.101562 17.511719 49.871094 17.632812 49.597656 17.757812 C 49.3125 17.878906 48.96875 17.945312 48.5625 17.945312 C 47.90625 17.945312 47.441406 17.769531 47.15625 17.402344 C 46.871094 17.046875 46.71875 16.515625 46.71875 15.804688 "/>
<path style=" stroke:none;fill-rule:nonzero;fill:rgb(13.729858%,12.159729%,12.548828%);fill-opacity:1;" d="M 18.988281 30.910156 C 18.523438 31.113281 18.140625 31.378906 17.855469 31.699219 C 17.570312 32.035156 17.425781 32.476562 17.425781 33.035156 C 17.425781 33.359375 17.484375 33.667969 17.605469 33.945312 C 17.710938 34.21875 17.878906 34.46875 18.09375 34.671875 C 18.308594 34.875 18.570312 35.042969 18.882812 35.148438 C 19.191406 35.269531 19.539062 35.328125 19.933594 35.328125 C 20.304688 35.328125 20.648438 35.28125 20.972656 35.164062 C 21.28125 35.054688 21.542969 34.910156 21.773438 34.707031 C 22 34.507812 22.164062 34.265625 22.296875 33.980469 C 22.417969 33.695312 22.476562 33.371094 22.476562 33.011719 C 22.476562 32.488281 22.332031 32.046875 22.046875 31.6875 C 21.746094 31.34375 21.367188 31.066406 20.902344 30.863281 C 21.351562 30.636719 21.699219 30.339844 21.925781 29.96875 C 22.152344 29.609375 22.273438 29.226562 22.273438 28.824219 C 22.273438 28.523438 22.214844 28.25 22.105469 27.996094 C 21.984375 27.746094 21.820312 27.53125 21.617188 27.351562 C 21.414062 27.175781 21.164062 27.042969 20.886719 26.933594 C 20.601562 26.839844 20.289062 26.792969 19.957031 26.792969 C 19.597656 26.792969 19.277344 26.839844 18.988281 26.949219 C 18.703125 27.054688 18.464844 27.210938 18.261719 27.402344 C 18.058594 27.59375 17.902344 27.820312 17.796875 28.070312 C 17.6875 28.332031 17.628906 28.617188 17.628906 28.917969 C 17.628906 29.347656 17.734375 29.730469 17.960938 30.0625 C 18.191406 30.410156 18.523438 30.683594 18.988281 30.910156 "/>
<path style=" stroke:none;fill-rule:nonzero;fill:rgb(13.729858%,12.159729%,12.548828%);fill-opacity:1;" d="M 24.519531 34.113281 C 24.71875 34.492188 24.984375 34.792969 25.304688 35.007812 C 25.628906 35.222656 26.011719 35.328125 26.476562 35.328125 C 26.941406 35.328125 27.335938 35.222656 27.65625 34.996094 C 27.980469 34.78125 28.242188 34.480469 28.445312 34.101562 C 28.648438 33.71875 28.792969 33.261719 28.875 32.75 C 28.960938 32.238281 29.007812 31.675781 29.007812 31.066406 C 29.007812 30.457031 28.960938 29.894531 28.875 29.371094 C 28.792969 28.859375 28.648438 28.402344 28.445312 28.023438 C 28.242188 27.640625 27.980469 27.339844 27.65625 27.113281 C 27.335938 26.898438 26.941406 26.792969 26.476562 26.792969 C 26.011719 26.792969 25.617188 26.898438 25.292969 27.113281 C 24.972656 27.339844 24.71875 27.640625 24.519531 28.023438 C 24.316406 28.402344 24.171875 28.859375 24.089844 29.371094 C 24.003906 29.894531 23.957031 30.457031 23.957031 31.066406 C 23.957031 31.675781 24.003906 32.238281 24.089844 32.75 C 24.171875 33.277344 24.316406 33.730469 24.519531 34.113281 "/>
<path style=" stroke:none;fill-rule:nonzero;fill:rgb(13.729858%,12.159729%,12.548828%);fill-opacity:1;" d="M 30.988281 34.113281 C 31.191406 34.492188 31.453125 34.792969 31.777344 35.007812 C 32.097656 35.222656 32.480469 35.328125 32.945312 35.328125 C 33.410156 35.328125 33.804688 35.222656 34.128906 34.996094 C 34.449219 34.78125 34.714844 34.480469 34.914062 34.101562 C 35.117188 33.71875 35.261719 33.261719 35.347656 32.75 C 35.429688 32.238281 35.476562 31.675781 35.476562 31.066406 C 35.476562 30.457031 35.429688 29.894531 35.347656 29.371094 C 35.261719 28.859375 35.117188 28.402344 34.914062 28.023438 C 34.714844 27.640625 34.449219 27.339844 34.128906 27.113281 C 33.804688 26.898438 33.410156 26.792969 32.945312 26.792969 C 32.480469 26.792969 32.085938 26.898438 31.765625 27.113281 C 31.441406 27.339844 31.191406 27.640625 30.988281 28.023438 C 30.785156 28.402344 30.640625 28.859375 30.558594 29.371094 C 30.476562 29.894531 30.425781 30.457031 30.425781 31.066406 C 30.425781 31.675781 30.476562 32.238281 30.558594 32.75 C 30.640625 33.277344 30.785156 33.730469 30.988281 34.113281 "/>
<path style=" stroke:none;fill-rule:nonzero;fill:rgb(13.729858%,12.159729%,12.548828%);fill-opacity:1;" d="M 43.109375 35.234375 L 44.351562 35.234375 L 44.351562 31.484375 C 44.351562 31.03125 44.445312 30.683594 44.625 30.433594 C 44.804688 30.183594 45.078125 30.0625 45.425781 30.0625 C 45.996094 30.0625 46.285156 30.445312 46.285156 31.199219 L 46.285156 35.234375 L 47.527344 35.234375 L 47.527344 31.484375 C 47.527344 31.03125 47.621094 30.683594 47.800781 30.433594 C 47.980469 30.183594 48.253906 30.0625 48.601562 30.0625 C 49.171875 30.0625 49.460938 30.445312 49.460938 31.199219 L 49.460938 35.234375 L 50.703125 35.234375 L 50.703125 31.222656 C 50.703125 30.503906 50.558594 29.957031 50.273438 29.585938 C 49.972656 29.214844 49.53125 29.023438 48.933594 29.023438 C 48.539062 29.023438 48.21875 29.121094 47.96875 29.3125 C 47.71875 29.515625 47.527344 29.742188 47.371094 29.992188 C 47.3125 29.871094 47.238281 29.753906 47.15625 29.632812 C 47.074219 29.527344 46.964844 29.417969 46.84375 29.324219 C 46.726562 29.238281 46.582031 29.167969 46.425781 29.109375 C 46.273438 29.046875 46.082031 29.023438 45.878906 29.023438 C 45.496094 29.023438 45.183594 29.121094 44.933594 29.3125 C 44.683594 29.515625 44.480469 29.753906 44.351562 30.050781 L 44.324219 30.050781 C 44.324219 30.015625 44.324219 29.945312 44.324219 29.847656 C 44.3125 29.765625 44.3125 29.667969 44.3125 29.574219 C 44.300781 29.480469 44.300781 29.382812 44.300781 29.300781 C 44.289062 29.214844 44.289062 29.144531 44.289062 29.109375 L 43.0625 29.109375 C 43.074219 29.277344 43.085938 29.453125 43.097656 29.644531 C 43.109375 29.835938 43.109375 30.039062 43.109375 30.265625 L 43.109375 35.234375 "/>
<path style=" stroke:none;fill-rule:nonzero;fill:rgb(100%,100%,100%);fill-opacity:1;" d="M 19.796875 13.882812 L 19.796875 10.535156 L 20.464844 10.535156 C 21.050781 10.535156 21.488281 10.671875 21.789062 10.933594 C 22.078125 11.207031 22.226562 11.644531 22.226562 12.230469 C 22.226562 12.761719 22.089844 13.15625 21.816406 13.445312 C 21.542969 13.730469 21.09375 13.882812 20.453125 13.882812 L 19.796875 13.882812 "/>
<path style=" stroke:none;fill-rule:nonzero;fill:rgb(100%,100%,100%);fill-opacity:1;" d="M 26.226562 17.210938 C 26.101562 16.976562 26.023438 16.71875 25.980469 16.40625 C 25.925781 16.089844 25.898438 15.765625 25.898438 15.394531 C 25.898438 15.027344 25.925781 14.699219 25.980469 14.386719 C 26.023438 14.070312 26.101562 13.8125 26.226562 13.582031 C 26.347656 13.363281 26.5 13.183594 26.691406 13.0625 C 26.867188 12.9375 27.097656 12.871094 27.371094 12.871094 C 27.644531 12.871094 27.878906 12.9375 28.066406 13.0625 C 28.246094 13.183594 28.398438 13.363281 28.519531 13.582031 C 28.640625 13.8125 28.722656 14.070312 28.777344 14.386719 C 28.820312 14.699219 28.847656 15.027344 28.847656 15.394531 C 28.847656 15.765625 28.820312 16.089844 28.777344 16.40625 C 28.722656 16.71875 28.640625 16.976562 28.519531 17.210938 C 28.398438 17.441406 28.246094 17.617188 28.066406 17.742188 C 27.878906 17.863281 27.644531 17.933594 27.371094 17.933594 C 27.097656 17.933594 26.867188 17.863281 26.691406 17.742188 C 26.5 17.617188 26.347656 17.441406 26.226562 17.210938 "/>
<path style=" stroke:none;fill-rule:nonzero;fill:rgb(100%,100%,100%);fill-opacity:1;" d="M 46.71875 14.835938 C 46.734375 14.195312 46.855469 13.691406 47.089844 13.335938 C 47.320312 12.992188 47.648438 12.816406 48.054688 12.816406 C 48.902344 12.816406 49.324219 13.484375 49.324219 14.835938 L 46.71875 14.835938 "/>
<path style=" stroke:none;fill-rule:nonzero;fill:rgb(100%,100%,100%);fill-opacity:1;" d="M 20.050781 30.457031 C 19.667969 30.265625 19.371094 30.050781 19.167969 29.800781 C 18.953125 29.5625 18.847656 29.289062 18.847656 28.976562 C 18.847656 28.617188 18.953125 28.332031 19.167969 28.105469 C 19.371094 27.890625 19.632812 27.78125 19.957031 27.78125 C 20.304688 27.78125 20.578125 27.890625 20.769531 28.09375 C 20.960938 28.308594 21.054688 28.582031 21.054688 28.90625 C 21.054688 29.074219 21.03125 29.226562 20.972656 29.371094 C 20.910156 29.527344 20.839844 29.65625 20.746094 29.789062 C 20.648438 29.921875 20.542969 30.039062 20.421875 30.148438 C 20.304688 30.253906 20.183594 30.363281 20.050781 30.457031 "/>
<path style=" stroke:none;fill-rule:nonzero;fill:rgb(100%,100%,100%);fill-opacity:1;" d="M 19.871094 31.34375 C 20.050781 31.4375 20.21875 31.53125 20.386719 31.628906 C 20.542969 31.734375 20.683594 31.84375 20.816406 31.972656 C 20.933594 32.105469 21.03125 32.25 21.101562 32.402344 C 21.175781 32.570312 21.210938 32.761719 21.210938 32.976562 C 21.210938 33.382812 21.101562 33.71875 20.886719 33.96875 C 20.660156 34.230469 20.363281 34.363281 19.980469 34.363281 C 19.5625 34.363281 19.253906 34.230469 19.027344 33.957031 C 18.796875 33.679688 18.691406 33.359375 18.691406 32.964844 C 18.691406 32.761719 18.726562 32.582031 18.785156 32.425781 C 18.847656 32.273438 18.917969 32.128906 19.027344 31.996094 C 19.132812 31.867188 19.253906 31.757812 19.40625 31.652344 C 19.550781 31.542969 19.707031 31.449219 19.871094 31.34375 "/>
<path style=" stroke:none;fill-rule:nonzero;fill:rgb(100%,100%,100%);fill-opacity:1;" d="M 25.496094 33.476562 C 25.316406 32.917969 25.222656 32.105469 25.222656 31.066406 C 25.222656 30.027344 25.316406 29.214844 25.496094 28.644531 C 25.675781 28.070312 26.011719 27.78125 26.476562 27.78125 C 26.953125 27.78125 27.289062 28.070312 27.464844 28.632812 C 27.648438 29.203125 27.742188 30.015625 27.742188 31.066406 C 27.742188 32.105469 27.648438 32.917969 27.464844 33.476562 C 27.277344 34.050781 26.941406 34.335938 26.476562 34.335938 C 26.011719 34.335938 25.675781 34.050781 25.496094 33.476562 "/>
<path style=" stroke:none;fill-rule:nonzero;fill:rgb(100%,100%,100%);fill-opacity:1;" d="M 31.96875 33.476562 C 31.789062 32.917969 31.691406 32.105469 31.691406 31.066406 C 31.691406 30.027344 31.789062 29.214844 31.96875 28.644531 C 32.144531 28.070312 32.480469 27.78125 32.945312 27.78125 C 33.421875 27.78125 33.757812 28.070312 33.9375 28.632812 C 34.117188 29.203125 34.210938 30.015625 34.210938 31.066406 C 34.210938 32.105469 34.117188 32.917969 33.9375 33.476562 C 33.746094 34.050781 33.410156 34.335938 32.945312 34.335938 C 32.480469 34.335938 32.144531 34.050781 31.96875 33.476562 "/>
</g>
</svg>
