<?xml version="1.0" encoding="UTF-8" standalone="no"?>
<!-- Created with Inkscape (http://www.inkscape.org/) -->

<svg
   width="100mm"
   height="100.00011mm"
   viewBox="0 0 100 100.00011"
   version="1.1"
   id="svg4315"
   xmlns="http://www.w3.org/2000/svg"
   xmlns:svg="http://www.w3.org/2000/svg">
  <defs
     id="defs4312" />
  <g
     id="layer1"
     transform="translate(-119.04889,-126.43431)">
    <g
       id="g1981"
       transform="matrix(5.171326,0,0,5.171326,-289.2841,-275.93821)">
      <path
         d="M 78.961633,97.145157 H 98.297735 V 77.809033 H 78.961633 Z"
         style="fill:#231f20;fill-opacity:1;fill-rule:evenodd;stroke:none;stroke-width:0.352778"
         id="path1000" />
      <path
         d="M 78.961633,97.145157 H 98.297735 V 77.809033 H 78.961633 Z"
         style="fill:none;stroke:#231f20;stroke-width:0.00129822;stroke-linecap:square;stroke-linejoin:miter;stroke-miterlimit:2.6131;stroke-dasharray:none;stroke-opacity:1"
         id="path1002" />
      <path
         d="m 79.251616,78.09902 h 18.75579 v 18.75615 h -18.75579 z"
         style="fill:#ffffff;fill-opacity:1;fill-rule:evenodd;stroke:none;stroke-width:0.352778"
         id="path1004" />
      <path
         d="m 79.251616,78.09902 h 18.75579 v 18.75615 h -18.75579 z"
         style="fill:none;stroke:#231f20;stroke-width:0.00129822;stroke-linecap:square;stroke-linejoin:miter;stroke-miterlimit:2.6131;stroke-dasharray:none;stroke-opacity:1"
         id="path1006" />
      <path
         d="m 94.140955,95.88822 h 1.933226 V 82.373985 l 1.334554,0.295282 c 0.0628,0.01411 0.115715,-0.04093 0.115715,-0.09806 0,-0.01729 -0.0046,-0.03457 -0.01588,-0.05011 l -2.321638,-3.414532 c -0.01834,-0.02685 -0.04903,-0.04058 -0.07936,-0.04058 -0.03034,0 -0.06104,0.01376 -0.07973,0.04058 L 92.706211,82.5211 c -0.01094,0.01552 -0.01587,0.03281 -0.01587,0.05011 0,0.05713 0.05328,0.112176 0.115715,0.09806 l 1.334914,-0.295282 v 13.514235 0 0 z"
         style="fill:#231f20;fill-opacity:1;fill-rule:evenodd;stroke:none;stroke-width:0.352778"
         id="path1008" />
      <path
         d="M 81.630397,95.88822 H 83.6878 l 1.171222,-6.643874 v -6.870361 l 1.334559,0.295282 c 0.06279,0.01411 0.115714,-0.04093 0.115714,-0.09806 0,-0.01729 -0.0046,-0.03457 -0.01517,-0.05011 l -2.321983,-3.414532 c -0.01834,-0.02685 -0.04939,-0.04058 -0.07973,-0.04058 -0.03034,0 -0.06068,0.01376 -0.07937,0.04058 L 81.491053,82.5211 c -0.01094,0.01552 -0.01587,0.03281 -0.01587,0.05011 0,0.05713 0.05398,0.112176 0.116413,0.09806 l 1.334213,-0.295282 v 6.166569 L 81.6304,95.88822 v 0 0 z"
         style="fill:#231f20;fill-opacity:1;fill-rule:evenodd;stroke:none;stroke-width:0.352778"
         id="path1010" />
      <path
         d="m 87.23745,95.88822 h 2.058106 l 1.171225,-6.643874 v -6.870361 l 1.334192,0.295282 c 0.06245,0.01411 0.115714,-0.04093 0.115714,-0.09806 0,-0.01729 -0.0042,-0.03457 -0.01517,-0.05011 l -2.321976,-3.414532 c -0.0187,-0.02685 -0.04903,-0.04058 -0.07972,-0.04058 -0.03069,0 -0.06103,0.01376 -0.07937,0.04058 L 87.098452,82.5211 c -0.01058,0.01552 -0.01552,0.03281 -0.01552,0.05011 0,0.05713 0.05328,0.112176 0.116064,0.09806 l 1.333853,-0.295282 v 6.166569 l -1.295393,7.347666 v 0 0 z"
         style="fill:#231f20;fill-opacity:1;fill-rule:evenodd;stroke:none;stroke-width:0.352778"
         id="path1012" />
    </g>
  </g>
</svg>
