<?xml version="1.0" encoding="UTF-8" standalone="no"?>
<!-- Created with Inkscape (http://www.inkscape.org/) -->

<svg
   width="70.004349mm"
   height="100mm"
   viewBox="0 0 70.004349 100"
   version="1.1"
   id="svg1223"
   xmlns="http://www.w3.org/2000/svg"
   xmlns:svg="http://www.w3.org/2000/svg">
  <defs
     id="defs1220" />
  <g
     id="layer1"
     transform="translate(-119.57606,-106.99255)">
    <g
       id="g1972"
       transform="matrix(3.6200206,0,0,3.6200206,-262.82942,-174.22592)">
      <path
         d="m 105.63692,77.684866 h 19.33681 v 27.622854 h -19.33681 z"
         style="fill:#231f20;fill-opacity:1;fill-rule:evenodd;stroke:none;stroke-width:0.352778"
         id="path1014" />
      <path
         d="m 105.63692,77.684866 h 19.33681 v 27.622854 h -19.33681 z"
         style="fill:none;stroke:#231f20;stroke-width:0.00129822;stroke-linecap:square;stroke-linejoin:miter;stroke-miterlimit:2.6131;stroke-dasharray:none;stroke-opacity:1"
         id="path1016" />
      <path
         d="m 106.05178,78.09902 h 18.50708 v 26.79454 h -18.50708 z"
         style="fill:#ffffff;fill-opacity:1;fill-rule:evenodd;stroke:none;stroke-width:0.352778"
         id="path1018" />
      <path
         d="m 106.05178,78.09902 h 18.50708 v 26.79454 h -18.50708 z"
         style="fill:none;stroke:#231f20;stroke-width:0.00129822;stroke-linecap:square;stroke-linejoin:miter;stroke-miterlimit:2.6131;stroke-dasharray:none;stroke-opacity:1"
         id="path1020" />
      <path
         d="m 117.92947,103.51209 h 2.7626 V 84.205275 l 1.90606,0.422258 c 0.0893,0.02011 0.16545,-0.05821 0.16545,-0.139693 0,-0.0247 -0.007,-0.0494 -0.0222,-0.07162 l -3.31717,-4.877844 c -0.0261,-0.03847 -0.0699,-0.05823 -0.11359,-0.05823 -0.0434,0 -0.0868,0.01976 -0.1136,0.05823 l -3.31682,4.877844 c -0.0152,0.02223 -0.0222,0.04692 -0.0222,0.07162 0,0.08148 0.0762,0.159805 0.16546,0.139693 l 1.90605,-0.422258 v 19.306815 0 0 z"
         style="fill:#231f20;fill-opacity:1;fill-rule:evenodd;stroke:none;stroke-width:0.352778"
         id="path1022" />
      <path
         d="m 109.91859,103.51209 h 2.76225 V 84.205275 l 1.90677,0.422258 c 0.0889,0.02011 0.16509,-0.05821 0.16509,-0.139693 0,-0.0247 -0.007,-0.0494 -0.0219,-0.07162 l -3.31718,-4.877844 c -0.0265,-0.03847 -0.0702,-0.05823 -0.11359,-0.05823 -0.0437,0 -0.0871,0.01976 -0.11359,0.05823 l -3.31682,4.877844 c -0.0152,0.02223 -0.0226,0.04692 -0.0226,0.07162 0,0.08148 0.0762,0.159805 0.1658,0.139693 l 1.9057,-0.422258 v 19.306815 0 0 z"
         style="fill:#231f20;fill-opacity:1;fill-rule:evenodd;stroke:none;stroke-width:0.352778"
         id="path1024" />
    </g>
  </g>
  <g
     id="g1026"
     transform="matrix(0.66700824,0,0,0.66700824,-30.850196,-0.63792671)">
    <path
       style="fill:#ee2b2e;fill-opacity:1;fill-rule:nonzero;stroke:none"
       d="m 120.25781,64.636719 c -13.41406,0 -24.296872,10.878906 -24.296872,24.292969 0,13.417972 10.882812,24.296872 24.296872,24.296872 13.41797,0 24.29688,-10.8789 24.29688,-24.296872 0,-13.414063 -10.87891,-24.292969 -24.29688,-24.292969"
       id="path928" />
    <path
       style="fill:#ffffff;fill-opacity:1;fill-rule:nonzero;stroke:none"
       d="m 120.25781,72.734375 c -8.94531,0 -16.19922,7.253906 -16.19922,16.199219 0,8.945312 7.25391,16.199216 16.19922,16.199216 8.94141,0 16.19531,-7.253904 16.19531,-16.199216 0,-8.945313 -7.2539,-16.199219 -16.19531,-16.199219"
       id="path930" />
    <path
       style="fill:#211e1e;fill-opacity:1;fill-rule:nonzero;stroke:none"
       d="m 115.32031,80.28125 c 0.28516,0.01172 0.69922,0.03516 0.97657,0.08594 0.33984,0.07031 0.66406,0.191406 0.96484,0.363281 0.65625,0.367187 1.17578,0.933593 1.50781,1.613281 0.26953,0.554688 0.39453,1.175781 0.41016,1.796875 0.0156,0.605469 -0.0742,1.210937 -0.28516,1.78125 -0.17578,0.484375 -0.4375,0.941406 -0.75,1.355469 -0.043,0.05859 -0.10937,0.140625 -0.15625,0.199218 0.0352,0.04297 0.0937,0.117188 0.1211,0.160157 0.46875,0.625 0.86328,1.316406 1.125,2.054687 0.26562,0.738282 0.40234,1.527344 0.43359,2.3125 0.0234,0.613282 -0.0156,1.257813 -0.17578,1.847656 -0.16406,0.613282 -0.44922,1.191407 -0.85547,1.675782 -0.39063,0.460937 -0.88281,0.824218 -1.42578,1.089844 -0.58203,0.277343 -1.21485,0.429687 -1.85938,0.4375 -0.61328,0.0039 -1.21484,-0.125 -1.77734,-0.375 -0.56641,-0.257813 -1.07813,-0.636719 -1.48438,-1.109376 -0.39843,-0.460937 -0.69531,-1.003906 -0.86718,-1.589843 -0.19922,-0.648438 -0.24219,-1.378907 -0.20703,-2.058594 0.0391,-0.800781 0.17578,-1.609375 0.45312,-2.363281 0.24609,-0.683594 0.60547,-1.324219 1.05469,-1.898438 0.0352,-0.04297 0.0898,-0.117187 0.125,-0.15625 -0.0273,-0.03516 -0.0742,-0.09766 -0.10547,-0.132812 -0.36719,-0.457032 -0.64453,-0.988282 -0.82813,-1.550782 -0.17968,-0.535156 -0.27343,-1.097656 -0.26953,-1.664062 0,-0.65625 0.14063,-1.320312 0.44532,-1.902344 0.40234,-0.753906 1.05859,-1.339844 1.84765,-1.671875 0.26953,-0.113281 0.54688,-0.195312 0.83203,-0.238281 0.21485,-0.03516 0.53125,-0.05078 0.75,-0.0625"
       id="path932" />
    <path
       style="fill:#211e1e;fill-opacity:1;fill-rule:nonzero;stroke:none"
       d="m 125.38281,80.285156 c 0.34766,0 0.71094,0.07031 1.04297,0.171875 0.73047,0.21875 1.35547,0.738281 1.82031,1.34375 0.40235,0.53125 0.69532,1.167969 0.90235,1.800781 0.20703,0.609376 0.34375,1.238282 0.4414,1.875 0.0937,0.648438 0.14453,1.324219 0.16797,1.984376 0.0234,0.757812 0.0156,1.519531 -0.0352,2.28125 -0.0508,0.710937 -0.13672,1.417968 -0.26563,2.117187 -0.14453,0.800781 -0.35156,1.613281 -0.65234,2.371094 -0.26953,0.683593 -0.65625,1.421875 -1.19922,1.917969 -0.59766,0.550781 -1.37891,0.875 -2.19922,0.902343 -0.76953,0.03125 -1.53906,-0.207031 -2.14453,-0.683593 -0.65625,-0.515626 -1.11328,-1.378907 -1.40234,-2.164063 -0.27344,-0.746094 -0.46485,-1.542969 -0.58985,-2.332031 -0.11328,-0.6875 -0.18359,-1.425782 -0.23437,-2.121094 -0.0469,-0.683594 -0.0781,-1.453125 -0.0508,-2.140625 0.0312,-0.703125 0.12109,-1.433594 0.24218,-2.128906 0.10938,-0.609375 0.2461,-1.253907 0.4336,-1.84375 0.19922,-0.636719 0.48828,-1.289063 0.88672,-1.820313 0.47656,-0.640625 1.13281,-1.167968 1.89843,-1.382812 0.29688,-0.08203 0.625,-0.148438 0.9375,-0.148438"
       id="path934" />
    <path
       style="fill:#ffffff;fill-opacity:1;fill-rule:nonzero;stroke:none"
       d="m 115.30469,82.59375 c 0.37109,-0.0039 0.72656,0.160156 1.0039,0.398438 0.29688,0.257812 0.44532,0.640624 0.46875,1.027343 0.0156,0.300781 -0.0586,0.636719 -0.16015,0.925781 -0.0781,0.234376 -0.17578,0.464844 -0.28906,0.6875 -0.0859,0.175782 -0.21485,0.390626 -0.36329,0.515626 -0.18359,0.152343 -0.41406,0.230468 -0.65234,0.226562 -0.24219,0 -0.47266,-0.08594 -0.65625,-0.238281 -0.12109,-0.105469 -0.23437,-0.273438 -0.31641,-0.414063 -0.14843,-0.246094 -0.27734,-0.511718 -0.37109,-0.785156 -0.0977,-0.28125 -0.16016,-0.59375 -0.14062,-0.894531 0.0273,-0.367188 0.16406,-0.742188 0.42968,-0.992188 0.28907,-0.273437 0.65235,-0.453125 1.04688,-0.457031"
       id="path936" />
    <path
       style="fill:#ffffff;fill-opacity:1;fill-rule:nonzero;stroke:none"
       d="m 115.31641,88.761719 c 0.22656,0.01563 0.4375,0.105469 0.62109,0.234375 0.12109,0.08984 0.23828,0.238281 0.32422,0.363281 0.1875,0.269531 0.34766,0.566406 0.47266,0.871094 0.1914,0.441406 0.32812,0.902343 0.41015,1.375 0.082,0.464843 0.10938,0.964843 0.0117,1.421875 -0.082,0.398437 -0.25,0.789062 -0.53125,1.082031 -0.33203,0.355469 -0.79297,0.558594 -1.27734,0.582031 -0.55078,0.02344 -1.08203,-0.183594 -1.46485,-0.582031 -0.28125,-0.292969 -0.45703,-0.683594 -0.53125,-1.082031 -0.0898,-0.449219 -0.0469,-0.972656 0.0312,-1.421875 0.0781,-0.46875 0.19532,-0.929688 0.35157,-1.378907 0.11718,-0.324218 0.28125,-0.699218 0.5039,-0.960937 0.12891,-0.148437 0.28516,-0.285156 0.46485,-0.363281 0.1914,-0.08984 0.40625,-0.152344 0.61328,-0.140625"
       id="path938" />
    <path
       style="fill:#ffffff;fill-opacity:1;fill-rule:nonzero;stroke:none"
       d="m 125.40234,82.695312 c 0.1875,-0.0078 0.3711,0.03125 0.53516,0.125 0.16016,0.08203 0.29297,0.234376 0.39063,0.382813 0.16015,0.25 0.27343,0.605469 0.34765,0.894531 0.12891,0.492188 0.22656,0.992188 0.30469,1.496094 0.0781,0.519531 0.13281,1.046875 0.16797,1.570312 0.0391,0.539063 0.0586,1.078126 0.0547,1.617188 -0.004,0.609375 -0.0273,1.21875 -0.082,1.828125 -0.0547,0.609375 -0.14062,1.242187 -0.27343,1.839844 -0.0898,0.414062 -0.21094,0.832031 -0.375,1.226562 -0.082,0.203125 -0.19141,0.417969 -0.31641,0.597657 -0.0898,0.117187 -0.19531,0.234374 -0.32031,0.316406 -0.13281,0.08594 -0.29297,0.140625 -0.45313,0.148437 -0.19531,0.01563 -0.39062,-0.03125 -0.54687,-0.140625 -0.11328,-0.07813 -0.21875,-0.207031 -0.29688,-0.320312 -0.12109,-0.1875 -0.22656,-0.390625 -0.3125,-0.597656 -0.16015,-0.386719 -0.26953,-0.824219 -0.34765,-1.234376 -0.10938,-0.582031 -0.17969,-1.28125 -0.22657,-1.867187 -0.043,-0.578125 -0.0859,-1.246094 -0.0859,-1.824219 0,-0.535156 0.0312,-1.078125 0.0859,-1.609375 0.0547,-0.527343 0.12891,-1.058593 0.22266,-1.582031 0.0859,-0.476562 0.1875,-0.976562 0.31641,-1.441406 0.082,-0.304688 0.21093,-0.667969 0.38672,-0.925782 0.10156,-0.144531 0.23437,-0.289062 0.39062,-0.375 0.13281,-0.06641 0.28125,-0.117187 0.43359,-0.125"
       id="path940" />
  </g>
</svg>
