<?xml version="1.0" encoding="UTF-8" standalone="no"?>
<!-- Created with Inkscape (http://www.inkscape.org/) -->

<svg
   width="79.999329mm"
   height="100mm"
   viewBox="0 0 79.999329 100"
   version="1.1"
   id="svg1366"
   xmlns="http://www.w3.org/2000/svg"
   xmlns:svg="http://www.w3.org/2000/svg">
  <defs
     id="defs1363" />
  <g
     id="layer1"
     transform="translate(-152.81105,-113.46665)">
    <g
       id="g2175"
       transform="matrix(4.1371022,0,0,4.1371022,-243.69898,-619.80597)">
      <path
         d="M 95.843104,201.41391 H 115.17885 V 177.2437 H 95.843104 Z"
         style="fill:#231f20;fill-opacity:1;fill-rule:evenodd;stroke:none;stroke-width:0.352778"
         id="path856" />
      <path
         d="M 95.843104,201.41391 H 115.17885 V 177.2437 H 95.843104 Z"
         style="fill:none;stroke:#231f20;stroke-width:0.00129822;stroke-linecap:square;stroke-linejoin:miter;stroke-miterlimit:2.6131;stroke-dasharray:none;stroke-opacity:1"
         id="path858" />
      <path
         d="m 96.133091,177.53403 h 18.755789 v 23.58989 H 96.133091 Z"
         style="fill:#ffffff;fill-opacity:1;fill-rule:evenodd;stroke:none;stroke-width:0.352778"
         id="path860" />
      <path
         d="m 96.133091,177.53403 h 18.755789 v 23.58989 H 96.133091 Z"
         style="fill:none;stroke:#231f20;stroke-width:0.00129822;stroke-linecap:square;stroke-linejoin:miter;stroke-miterlimit:2.6131;stroke-dasharray:none;stroke-opacity:1"
         id="path862" />
      <path
         d="m 109.15624,182.8331 c 0,0.59726 0,1.8154 0,2.46874 0,0.88759 0.2032,1.64818 0.6477,2.41724 0,0 -0.12276,-0.21344 1.20862,2.09303 1.33103,2.30645 1.94344,4.58787 1.94309,7.25134 v 2.41688 h -1.93428 v -2.41688 c -3.5e-4,-2.30716 -0.52917,-4.28589 -1.6831,-6.28438 -1.15499,-1.99813 -1.20897,-2.09338 -1.20897,-2.09338 -0.62194,-1.07598 -0.90698,-2.14172 -0.90629,-3.38385 0,-0.88336 0,-1.93498 0,-2.46874 v 0 -0.31997 c 0,-0.004 0,-0.007 0,-0.01 0,-0.0123 0,-0.0183 0,-0.0183 l -1.3349,0.29562 c -0.0621,0.0141 -0.11572,-0.0406 -0.11572,-0.0981 0,-0.0169 0.005,-0.0346 0.0152,-0.0504 l 2.32198,-3.41382 c 0.0187,-0.0272 0.0497,-0.0406 0.0801,-0.0406 0.0303,0 0.0607,0.0134 0.079,0.0406 l 2.32199,3.41382 c 0.0113,0.0159 0.0159,0.0335 0.0159,0.0504 0,0.0575 -0.0536,0.11218 -0.11571,0.0981 l -1.33456,-0.29562 v 0.34819 0 0 0 z"
         style="fill:#231f20;fill-opacity:1;fill-rule:evenodd;stroke:none;stroke-width:0.352778"
         id="path864" />
      <path
         d="m 101.42194,182.8331 c 0,0.37501 0,1.10985 0,2.46874 0,2.30822 0.53022,4.28625 1.6838,6.28439 0,0 0.58739,1.0174 1.20827,2.09302 0.62124,1.07598 0.90769,2.14172 0.90664,3.3842 v 2.41688 h -1.93358 v -2.41688 c -7e-4,-0.88864 -0.2032,-1.64783 -0.6477,-2.41723 -0.44414,-0.76941 -1.20827,-2.09338 -1.20827,-2.09338 -1.33138,-2.30471 -1.943442,-4.58859 -1.94274,-7.251 3.53e-4,-1.40935 3.53e-4,-2.11595 0,-2.46874 v 0 -0.34678 c 0,-7e-4 0,-0.001 0,-0.001 l -1.334202,0.29562 c -0.0628,0.0141 -0.116067,-0.0406 -0.116067,-0.0981 0,-0.0169 0.0049,-0.0346 0.01517,-0.0504 l 2.321979,-3.41382 c 0.0187,-0.0272 0.049,-0.0406 0.0801,-0.0406 0.0303,0 0.0607,0.0134 0.0794,0.0406 l 2.32199,3.41382 c 0.0106,0.0159 0.0155,0.0335 0.0155,0.0504 0,0.0575 -0.0536,0.11218 -0.11641,0.0981 l -1.33385,-0.29562 v 0.34819 0 0 0 z"
         style="fill:#231f20;fill-opacity:1;fill-rule:evenodd;stroke:none;stroke-width:0.352778"
         id="path866" />
    </g>
  </g>
</svg>
