<?xml version="1.0" encoding="UTF-8" standalone="no"?>
<!-- Created with Inkscape (http://www.inkscape.org/) -->

<svg
   width="100mm"
   height="100.00001mm"
   viewBox="0 0 100 100.00001"
   version="1.1"
   id="svg3367"
   xmlns="http://www.w3.org/2000/svg"
   xmlns:svg="http://www.w3.org/2000/svg">
  <defs
     id="defs3364" />
  <g
     id="layer1"
     transform="translate(-47.83219,-103.22295)">
    <g
       id="g1922"
       transform="matrix(5.171326,0,0,5.171326,-349.22827,-25.702811)">
      <path
         d="M 76.781819,44.267643 H 96.117921 V 24.93154 H 76.781819 Z"
         style="fill:#231f20;fill-opacity:1;fill-rule:evenodd;stroke:none;stroke-width:0.352778"
         id="path922" />
      <path
         d="M 76.781819,44.267643 H 96.117921 V 24.93154 H 76.781819 Z"
         style="fill:none;stroke:#231f20;stroke-width:0.00129822;stroke-linecap:square;stroke-linejoin:miter;stroke-miterlimit:2.6131;stroke-dasharray:none;stroke-opacity:1"
         id="path924" />
      <path
         d="m 77.071802,25.22188 h 18.75614 v 18.756125 h -18.75614 z"
         style="fill:#ffffff;fill-opacity:1;fill-rule:evenodd;stroke:none;stroke-width:0.352778"
         id="path926" />
      <path
         d="m 77.071802,25.22188 h 18.75614 v 18.756125 h -18.75614 z"
         style="fill:none;stroke:#231f20;stroke-width:0.00129822;stroke-linecap:square;stroke-linejoin:miter;stroke-miterlimit:2.6131;stroke-dasharray:none;stroke-opacity:1"
         id="path928" />
      <path
         d="m 85.483079,38.370264 -5.607399,-5.60741 v -3.266362 l -1.334205,0.295631 c -0.0628,0.01376 -0.116061,-0.04058 -0.116061,-0.09841 0,-0.01693 0.0046,-0.03425 0.01552,-0.0501 l 2.321983,-3.41418 c 0.01834,-0.02716 0.04904,-0.04093 0.07937,-0.04093 0.03069,0 0.06139,0.01376 0.07973,0.04093 l 2.32163,3.41418 c 0.01094,0.01584 0.01552,0.03316 0.01552,0.0501 3.53e-4,0.05749 -0.05291,0.112179 -0.115704,0.09841 l -1.334212,-0.295631 v 2.583035 l 3.673824,3.673842 v -6.256877 l -1.334202,0.295631 c -0.06279,0.01376 -0.116061,-0.04058 -0.116061,-0.09841 0,-0.01693 0.0049,-0.03425 0.01587,-0.0501 l 2.321631,-3.41418 c 0.01834,-0.02716 0.04904,-0.04093 0.07937,-0.04093 0.03069,0 0.06138,0.01376 0.07973,0.04093 l 2.321987,3.41418 c 0.01094,0.01584 0.01552,0.03316 0.01552,0.0501 0,0.05749 -0.05328,0.112179 -0.115715,0.09841 l -1.334551,-0.295631 v 13.514193 h -1.933586 v -4.640421 0 0 z"
         style="fill:#231f20;fill-opacity:1;fill-rule:evenodd;stroke:none;stroke-width:0.352778"
         id="path930" />
      <path
         d="M 93.024064,43.010685 H 91.090485 V 29.496492 l -1.334202,0.295631 c -0.06244,0.01376 -0.116067,-0.04058 -0.116067,-0.09841 0,-0.01693 0.0049,-0.03425 0.01588,-0.0501 l 2.321627,-3.41418 c 0.0187,-0.02716 0.0494,-0.04093 0.07974,-0.04093 0.03034,0 0.06102,0.01376 0.07936,0.04093 l 2.321987,3.41418 c 0.01094,0.01584 0.01552,0.03316 0.01552,0.0501 0,0.05749 -0.05327,0.112179 -0.115715,0.09841 l -1.334551,-0.295631 z"
         style="fill:#231f20;fill-opacity:1;fill-rule:evenodd;stroke:none;stroke-width:0.352778"
         id="path932" />
    </g>
  </g>
</svg>
