<?xml version="1.0" encoding="UTF-8" standalone="no"?>
<!-- Created with Inkscape (http://www.inkscape.org/) -->

<svg
   width="99.999939mm"
   height="100mm"
   viewBox="0 0 99.999939 100"
   version="1.1"
   id="svg1223"
   xmlns="http://www.w3.org/2000/svg"
   xmlns:svg="http://www.w3.org/2000/svg">
  <defs
     id="defs1220" />
  <g
     id="layer1"
     transform="translate(-169.69187,-104.80553)">
    <g
       id="g2183"
       transform="matrix(5.1713238,0,0,5.1713238,-190.54075,-812.33935)">
      <path
         d="M 69.660301,196.68881 H 88.9964 V 177.3527 H 69.660301 Z"
         style="fill:#231f20;fill-opacity:1;fill-rule:evenodd;stroke:none;stroke-width:0.352778"
         id="path1104" />
      <path
         d="M 69.660301,196.68881 H 88.9964 V 177.3527 H 69.660301 Z"
         style="fill:none;stroke:#231f20;stroke-width:0.00129822;stroke-linecap:square;stroke-linejoin:miter;stroke-miterlimit:2.6131;stroke-dasharray:none;stroke-opacity:1"
         id="path1106" />
      <path
         d="m 69.950278,177.64268 h 18.755786 v 18.75579 H 69.950278 Z"
         style="fill:#ffffff;fill-opacity:1;fill-rule:evenodd;stroke:none;stroke-width:0.352778"
         id="path1108" />
      <path
         d="m 69.950278,177.64268 h 18.755786 v 18.75579 H 69.950278 Z"
         style="fill:none;stroke:#231f20;stroke-width:0.00129822;stroke-linecap:square;stroke-linejoin:miter;stroke-miterlimit:2.6131;stroke-dasharray:none;stroke-opacity:1"
         id="path1110" />
      <path
         d="m 83.969313,185.18366 -5.607755,5.60776 v 4.64044 h 1.933575 v -3.95747 l 3.67418,-3.67383 v 7.6313 h 1.933219 v -13.16673 -0.3482 l 1.334565,0.29564 c 0.0628,0.0138 0.115704,-0.0406 0.115704,-0.0981 0,-0.0169 -0.0046,-0.0342 -0.01552,-0.0501 l -2.32199,-3.41418 c -0.01799,-0.0268 -0.04904,-0.0409 -0.07937,-0.0409 -0.03034,0 -0.06068,0.0141 -0.07937,0.0409 l -2.321987,3.41418 c -0.01094,0.0159 -0.01588,0.0332 -0.01588,0.0501 0,0.0575 0.05362,0.11184 0.116064,0.0981 l 1.334555,-0.29564 v 0.3482 0 2.91853 0 0 z"
         style="fill:#231f20;fill-opacity:1;fill-rule:evenodd;stroke:none;stroke-width:0.352778"
         id="path1112" />
      <path
         d="m 72.754152,178.6093 h 1.933578 v 13.16707 0.34784 l 1.334209,-0.29563 c 0.06279,-0.0141 0.116064,0.0406 0.115708,0.0981 0,0.0169 -0.0046,0.0342 -0.01517,0.0501 l -2.321983,3.41453 c -0.01834,0.0272 -0.04868,0.0406 -0.07973,0.0406 -0.03034,0 -0.06067,-0.0134 -0.07937,-0.0406 l -2.321983,-3.41453 c -0.01094,-0.0155 -0.01588,-0.0332 -0.01588,-0.0501 0,-0.0575 0.05398,-0.1122 0.116416,-0.0981 l 1.334202,0.29563 v -0.34784 0 -13.16707 0 0 z"
         style="fill:#231f20;fill-opacity:1;fill-rule:evenodd;stroke:none;stroke-width:0.352778"
         id="path1114" />
    </g>
  </g>
</svg>
