<?xml version="1.0" encoding="UTF-8" standalone="no"?>
<!-- Created with Inkscape (http://www.inkscape.org/) -->

<svg
   width="100.00367mm"
   height="100mm"
   viewBox="0 0 100.00367 100"
   version="1.1"
   id="svg1360"
   xmlns="http://www.w3.org/2000/svg"
   xmlns:svg="http://www.w3.org/2000/svg">
  <defs
     id="defs1357" />
  <g
     id="layer1"
     transform="translate(-64.1853,-68.405896)">
    <g
       id="g2191"
       transform="matrix(5.1713265,0,0,5.1713265,-148.26223,-848.17579)">
      <path
         d="m 41.082474,196.5798 h 19.33681 v -19.3361 h -19.33681 z"
         style="fill:#231f20;fill-opacity:1;fill-rule:evenodd;stroke:none;stroke-width:0.352778"
         id="path1092" />
      <path
         d="m 41.082474,196.5798 h 19.33681 v -19.3361 h -19.33681 z"
         style="fill:none;stroke:#231f20;stroke-width:0.00129822;stroke-linecap:square;stroke-linejoin:miter;stroke-miterlimit:2.6131;stroke-dasharray:none;stroke-opacity:1"
         id="path1094" />
      <path
         d="m 41.372459,177.53403 h 18.756486 v 18.75578 H 41.372459 Z"
         style="fill:#ffffff;fill-opacity:1;fill-rule:evenodd;stroke:none;stroke-width:0.352778"
         id="path1096" />
      <path
         d="m 41.372459,177.53403 h 18.756486 v 18.75578 H 41.372459 Z"
         style="fill:none;stroke:#231f20;stroke-width:0.00129822;stroke-linecap:square;stroke-linejoin:miter;stroke-miterlimit:2.6131;stroke-dasharray:none;stroke-opacity:1"
         id="path1098" />
      <path
         d="m 49.784089,185.075 -5.607399,5.60741 v 4.64043 h 1.933571 v -3.95711 l 3.673828,-3.67381 v 7.63092 h 1.933575 v -13.16672 -0.34783 l 1.334555,0.29562 c 0.06244,0.0141 0.115718,-0.0406 0.115718,-0.0984 0,-0.0166 -0.0049,-0.0342 -0.01588,-0.0497 l -2.321987,-3.41454 c -0.01834,-0.0268 -0.04904,-0.0406 -0.07937,-0.0406 -0.03034,0 -0.06103,0.0138 -0.07937,0.0406 l -2.321983,3.41454 c -0.01058,0.0155 -0.01552,0.0332 -0.01552,0.0497 0,0.0579 0.05291,0.11255 0.1157,0.0984 l 1.334562,-0.29562 v 0.34783 0 z"
         style="fill:#231f20;fill-opacity:1;fill-rule:evenodd;stroke:none;stroke-width:0.352778"
         id="path1100" />
      <path
         d="m 55.391492,195.32284 h 1.933578 v -13.16672 -0.34783 l 1.334206,0.29562 c 0.06279,0.0141 0.11606,-0.0406 0.11606,-0.0984 0,-0.0166 -0.0049,-0.0342 -0.01517,-0.0497 l -2.321984,-3.41454 c -0.0187,-0.0268 -0.04903,-0.0406 -0.08008,-0.0406 -0.03034,0 -0.06068,0.0138 -0.07937,0.0406 l -2.321983,3.41454 c -0.01058,0.0155 -0.01587,0.0332 -0.01587,0.0497 0,0.0579 0.05397,0.11255 0.116417,0.0984 l 1.334202,-0.29562 v 0.34783 0 z"
         style="fill:#231f20;fill-opacity:1;fill-rule:evenodd;stroke:none;stroke-width:0.352778"
         id="path1102" />
    </g>
  </g>
</svg>
