<?xml version="1.0" encoding="UTF-8" standalone="no"?>
<!-- Created with Inkscape (http://www.inkscape.org/) -->

<svg
   width="80.001495mm"
   height="100mm"
   viewBox="0 0 80.001495 100"
   version="1.1"
   id="svg1223"
   xmlns="http://www.w3.org/2000/svg"
   xmlns:svg="http://www.w3.org/2000/svg">
  <defs
     id="defs1220" />
  <g
     id="layer1"
     transform="translate(-105.33299,-103.97108)">
    <g
       id="g2199"
       transform="matrix(4.1371005,0,0,4.1371005,69.222423,-844.35223)">
      <path
         d="M 8.7291211,253.39501 H 28.065398 V 229.22479 H 8.7291211 Z"
         style="fill:#231f20;fill-opacity:1;fill-rule:evenodd;stroke:none;stroke-width:0.352778"
         id="path1128" />
      <path
         d="M 8.7291211,253.39501 H 28.065398 V 229.22479 H 8.7291211 Z"
         style="fill:none;stroke:#231f20;stroke-width:0.00129822;stroke-linecap:square;stroke-linejoin:miter;stroke-miterlimit:2.6131;stroke-dasharray:none;stroke-opacity:1"
         id="path1130" />
      <path
         d="M 9.0192106,229.51477 H 27.775346 v 23.5899 H 9.0192106 Z"
         style="fill:#ffffff;fill-opacity:1;fill-rule:evenodd;stroke:none;stroke-width:0.352778"
         id="path1132" />
      <path
         d="M 9.0192106,229.51477 H 27.775346 v 23.5899 H 9.0192106 Z"
         style="fill:none;stroke:#231f20;stroke-width:0.00129822;stroke-linecap:square;stroke-linejoin:miter;stroke-miterlimit:2.6131;stroke-dasharray:none;stroke-opacity:1"
         id="path1134" />
      <path
         d="m 21.974481,234.51646 v 0 -0.14676 l 1.334275,0.29563 c 0.06255,0.0137 0.115957,-0.0406 0.115957,-0.0984 0,-0.0166 -0.005,-0.0346 -0.0157,-0.0504 l -2.321982,-3.41419 c -0.01827,-0.0268 -0.04893,-0.0406 -0.07941,-0.0406 -0.03048,0 -0.06117,0.0138 -0.07941,0.0406 l -2.321983,3.41419 c -0.01069,0.0159 -0.01552,0.0339 -0.01552,0.0504 0,0.0579 0.05341,0.11218 0.115744,0.0984 l 1.334312,-0.29563 v 0.14676 0 c 0,0 -5.29e-4,0.50235 0,1.6122 6.7e-4,1.11018 0.474028,2.06515 1.415909,2.84973 0,0 0.802533,0.66993 1.367188,1.13982 0.564837,0.47061 0.848891,1.04458 0.849736,1.71027 0,0 -8.46e-4,1.7519 0,2.41759 7.06e-4,0.66639 -0.285078,1.23895 -0.849736,1.71026 0,0 -0.426155,0.35419 -1.367188,1.14018 -0.940999,0.78563 -1.416438,1.73919 -1.415909,2.84974 v 1.61184 h 1.933718 v -1.61184 c 5.29e-4,-0.66534 0.284902,-1.2386 0.849379,-1.70991 0.564658,-0.47132 1.367193,-1.13983 1.367193,-1.13983 0.941741,-0.78599 1.415593,-1.74025 1.415945,-2.85044 4.94e-4,-1.10914 0,-2.41759 0,-2.41759 4.94e-4,-1.11019 -0.47456,-2.06516 -1.415945,-2.85009 -0.941035,-0.78458 -1.367193,-1.13947 -1.367193,-1.13947 -0.564655,-0.47131 -0.850051,-1.04387 -0.849379,-1.71026 5.29e-4,-0.66606 0,-1.6122 0,-1.6122 z"
         style="fill:#231f20;fill-opacity:1;fill-rule:evenodd;stroke:none;stroke-width:0.352778"
         id="path1136" />
      <path
         d="m 12.306357,234.51646 c 0,0 -5.29e-4,0.36865 0,1.6122 4.94e-4,1.24388 0.531567,2.31245 1.585596,3.19157 0,0 0.915001,0.76412 1.367367,1.14053 0.452332,0.37536 0.679027,0.83503 0.679696,1.36772 0,0 -6.7e-4,1.88559 0,2.41759 7.06e-4,0.53269 -0.227364,0.99165 -0.679696,1.36842 0,0 -0.313866,0.26176 -1.367367,1.13983 -1.053183,0.87841 -1.586125,1.94909 -1.585596,3.19193 v 1.61184 h 1.933541 v -1.61184 c 7.05e-4,-0.79904 0.342441,-1.48696 1.019422,-2.05176 0.676944,-0.56585 1.367331,-1.14017 1.367331,-1.14017 0.82924,-0.69074 1.245411,-1.53177 1.246116,-2.50825 3.18e-4,-0.97543 0,-2.41759 0,-2.41759 3.18e-4,-0.97649 -0.417371,-1.81786 -1.246116,-2.50825 -0.828887,-0.69038 -1.367331,-1.13947 -1.367331,-1.13947 -0.677156,-0.56586 -1.019951,-1.25342 -1.019422,-2.0521 7.05e-4,-0.79834 0,-1.6122 0,-1.6122 v -0.14676 l 1.334453,0.29563 c 0.06255,0.0137 0.115922,-0.0406 0.115922,-0.0984 0,-0.0166 -0.0048,-0.0346 -0.01584,-0.0504 l -2.321806,-3.41419 c -0.01845,-0.0268 -0.04893,-0.0406 -0.07941,-0.0406 -0.03066,0 -0.06117,0.0138 -0.07959,0.0406 l -2.321807,3.41419 c -0.01086,0.0159 -0.0157,0.0339 -0.0157,0.0504 0,0.0579 0.05341,0.11218 0.115745,0.0984 l 1.334487,-0.29563 z"
         style="fill:#231f20;fill-opacity:1;fill-rule:evenodd;stroke:none;stroke-width:0.352778"
         id="path1138" />
    </g>
  </g>
</svg>
