<?xml version="1.0" encoding="UTF-8" standalone="no"?>
<!-- Created with Inkscape (http://www.inkscape.org/) -->

<svg
   width="124.99953mm"
   height="100mm"
   viewBox="0 0 124.99953 100"
   version="1.1"
   id="svg1225"
   xmlns="http://www.w3.org/2000/svg"
   xmlns:svg="http://www.w3.org/2000/svg">
  <defs
     id="defs1222" />
  <g
     id="layer1"
     transform="translate(-70.515852,-87.747998)">
    <g
       id="g2027"
       transform="matrix(6.4640162,0,0,6.4640162,-520.25146,-747.82248)">
      <path
         d="M 91.393878,144.73452 H 110.73033 V 129.26556 H 91.393878 Z"
         style="fill:#231f20;fill-opacity:1;fill-rule:evenodd;stroke:none;stroke-width:0.352778"
         id="path1066" />
      <path
         d="M 91.393878,144.73452 H 110.73033 V 129.26556 H 91.393878 Z"
         style="fill:none;stroke:#231f20;stroke-width:0.00129822;stroke-linecap:square;stroke-linejoin:miter;stroke-miterlimit:2.6131;stroke-dasharray:none;stroke-opacity:1"
         id="path1068" />
      <path
         d="M 91.625999,129.49734 H 110.4982 v 15.00505 H 91.625999 Z"
         style="fill:#ffffff;fill-opacity:1;fill-rule:evenodd;stroke:none;stroke-width:0.352778"
         id="path1070" />
      <path
         d="M 91.625999,129.49734 H 110.4982 v 15.00505 H 91.625999 Z"
         style="fill:none;stroke:#231f20;stroke-width:0.00129822;stroke-linecap:square;stroke-linejoin:miter;stroke-miterlimit:2.6131;stroke-dasharray:none;stroke-opacity:1"
         id="path1072" />
      <path
         d="m 93.559926,133.98361 h 1.546934 v 6.32601 l 1.06715,-0.23671 c 0.05011,-0.0113 0.09278,0.0325 0.09278,0.0783 0,0.0134 -0.0039,0.0275 -0.0127,0.0402 l -1.857735,2.73155 c -0.01446,0.0215 -0.0388,0.0325 -0.0635,0.0325 -0.02399,0 -0.04868,-0.0109 -0.06314,-0.0325 l -1.857735,-2.73155 c -0.0088,-0.0127 -0.01235,-0.0265 -0.01235,-0.0402 -3.53e-4,-0.0459 0.04233,-0.0896 0.09243,-0.0783 l 1.067851,0.23671 v -6.32601 0 0 z"
         style="fill:#231f20;fill-opacity:1;fill-rule:evenodd;stroke:none;stroke-width:0.352778"
         id="path1074" />
      <path
         d="m 98.045503,133.98361 h 1.547276 v 6.32601 l 1.067161,-0.23671 c 0.0501,-0.0113 0.0928,0.0325 0.0928,0.0783 0,0.0134 -0.004,0.0275 -0.0123,0.0402 l -1.857726,2.73155 c -0.01482,0.0215 -0.03915,0.0325 -0.0635,0.0325 -0.02469,0 -0.04868,-0.0109 -0.06385,-0.0325 l -1.857375,-2.73155 c -0.0085,-0.0127 -0.01235,-0.0265 -0.01235,-0.0402 -3.42e-4,-0.0459 0.04234,-0.0896 0.09244,-0.0783 l 1.067502,0.23671 v -6.32601 0 0 z"
         style="fill:#231f20;fill-opacity:1;fill-rule:evenodd;stroke:none;stroke-width:0.352778"
         id="path1076" />
      <path
         d="m 102.53177,140.01647 h 1.54659 v -6.32601 l 1.06749,0.23671 c 0.0501,0.0109 0.0932,-0.0328 0.0932,-0.0787 0,-0.0134 -0.004,-0.0275 -0.0127,-0.0402 l -1.85737,-2.7312 c -0.0152,-0.0219 -0.0395,-0.0328 -0.0635,-0.0328 -0.0247,0 -0.049,0.0109 -0.0642,0.0328 l -1.85738,2.7312 c -0.008,0.0127 -0.0123,0.0268 -0.0123,0.0402 0,0.0459 0.0427,0.0896 0.0928,0.0787 l 1.0675,-0.23671 v 6.32601 0 0 z"
         style="fill:#231f20;fill-opacity:1;fill-rule:evenodd;stroke:none;stroke-width:0.352778"
         id="path1078" />
      <path
         d="m 107.0177,140.01647 h 1.54693 v -6.32601 l 1.0675,0.23671 c 0.0498,0.0109 0.0928,-0.0328 0.0928,-0.0787 0,-0.0134 -0.004,-0.0275 -0.013,-0.0402 l -1.85702,-2.7312 c -0.0148,-0.0219 -0.0395,-0.0328 -0.0639,-0.0328 -0.024,0 -0.049,0.0109 -0.0635,0.0328 l -1.85738,2.7312 c -0.009,0.0127 -0.0127,0.0268 -0.0127,0.0402 0,0.0459 0.043,0.0896 0.0924,0.0787 l 1.06786,-0.23671 v 6.32601 0 0 z"
         style="fill:#231f20;fill-opacity:1;fill-rule:evenodd;stroke:none;stroke-width:0.352778"
         id="path1080" />
    </g>
  </g>
</svg>
