<?xml version="1.0" encoding="UTF-8" standalone="no"?>
<svg
   xmlns:dc="http://purl.org/dc/elements/1.1/"
   xmlns:cc="http://creativecommons.org/ns#"
   xmlns:rdf="http://www.w3.org/1999/02/22-rdf-syntax-ns#"
   xmlns:svg="http://www.w3.org/2000/svg"
   xmlns="http://www.w3.org/2000/svg"
   xmlns:sodipodi="http://sodipodi.sourceforge.net/DTD/sodipodi-0.dtd"
   xmlns:inkscape="http://www.inkscape.org/namespaces/inkscape"
   width="100"
   height="100"
   viewBox="0 0 26.458333 26.458334"
   version="1.1"
   id="svg1434"
   inkscape:version="1.0.2 (e86c870879, 2021-01-15, custom)"
   sodipodi:docname="477-c.svg">
  <defs
     id="defs1428" />
  <sodipodi:namedview
     id="base"
     pagecolor="#ffffff"
     bordercolor="#666666"
     borderopacity="1.0"
     inkscape:pageopacity="0.0"
     inkscape:pageshadow="2"
     inkscape:zoom="2.8"
     inkscape:cx="-5.2899802"
     inkscape:cy="34.532532"
     inkscape:document-units="mm"
     inkscape:current-layer="layer1"
     inkscape:document-rotation="0"
     showgrid="false"
     units="px"
     inkscape:window-width="1920"
     inkscape:window-height="1017"
     inkscape:window-x="3832"
     inkscape:window-y="-3"
     inkscape:window-maximized="1" />
  <metadata
     id="metadata1431">
    <rdf:RDF>
      <cc:Work
         rdf:about="">
        <dc:format>image/svg+xml</dc:format>
        <dc:type
           rdf:resource="http://purl.org/dc/dcmitype/StillImage" />
        <dc:title></dc:title>
      </cc:Work>
    </rdf:RDF>
  </metadata>
  <g
     inkscape:label="Calque 1"
     inkscape:groupmode="layer"
     id="layer1">
    <rect
       style="fill:#ffffff;stroke:#ffffff;stroke-width:0.0264583"
       id="rect2091"
       width="26.195324"
       height="26.195324"
       x="0.17875256"
       y="0.17875175" />
    <g
       id="g2089"
       transform="matrix(0.67909198,0,0,0.67909198,-11.621604,5.0626346)">
      <path
         style="fill:#211e1e;fill-opacity:1;fill-rule:nonzero;stroke:none;stroke-width:0.352778"
         d="M 17.376669,31.38226 H 55.950713 V -7.191784 H 17.376669 Z m 0,0"
         id="path1596" />
      <path
         style="fill:#ffffff;fill-opacity:1;fill-rule:nonzero;stroke:none;stroke-width:0.352778"
         d="M 17.832796,30.926129 H 55.482178 V -6.723251 H 17.832796 Z m 0,0"
         id="path1602" />
      <path
         style="fill:#211e1e;fill-opacity:1;fill-rule:nonzero;stroke:none;stroke-width:0.352778"
         d="m 51.445903,0.60928994 c 0.02067,0.0289384 0.03447,0.0675241 0.03447,0.10886511 0,0.1074868 -0.08682,0.19292534 -0.192924,0.19292534 -0.01517,0 -0.0303,0 -0.0441,-0.004135 L 49.152862,0.4260106 V 28.456685 H 46.066056 V 0.42601096 l -2.091859,0.48093523 c -0.01379,0.004135 -0.02755,0.004135 -0.04272,0.004135 -0.106109,0 -0.192924,-0.0854385 -0.192924,-0.19292534 0,-0.041341 0.01238,-0.0799264 0.03306,-0.1088651 L 47.4496,-4.791241 c 0.03583,-0.052366 0.0937,-0.085439 0.159851,-0.085439 0.06615,0 0.125402,0.033073 0.158475,0.085439 l 3.677983,5.40053139"
         id="path1608" />
      <path
         style="fill:#211e1e;fill-opacity:1;fill-rule:nonzero;stroke:none;stroke-width:0.352778"
         d="M 29.544743,0.61755835 25.86676,-4.7843513 c -0.03447,-0.050987 -0.0937,-0.08406 -0.159851,-0.08406 -0.06477,0 -0.124026,0.033073 -0.158475,0.08406 l -3.679363,5.4032876 c -0.0193,0.0316935 -0.03306,0.0689021 -0.03306,0.11024305 0,0.10610885 0.08681,0.1915474 0.194303,0.1915474 0.01379,0 0.02755,0 0.04272,-0.004135 L 24.1649,0.43290071 V 1.8619262 c 0,2.1318251 0.86403,4.0597006 2.259982,5.4556532 l 11.19656,11.1979386 c 0.837847,0.837847 1.35599,1.995399 1.35599,3.271462 v 6.680729 h 3.086805 V 21.78698 c 0,-2.126312 -0.859896,-4.050054 -2.251713,-5.44325 L 28.606301,5.1347673 C 27.767075,4.298298 27.250312,3.1421243 27.250312,1.8619265 V 0.43290106 l 2.091859,0.48093523 c 0.01379,0.002752 0.02755,0.00689 0.04272,0.00689 0.107488,0 0.192924,-0.0881944 0.192924,-0.1956816 0,-0.0385851 -0.01101,-0.0757922 -0.03305,-0.1074868"
         id="path1610" />
      <path
         style="fill:#211e1e;fill-opacity:1;fill-rule:nonzero;stroke:none;stroke-width:0.352778"
         d="m 30.309555,29.71759 v -0.620116 c 0,-3.323829 0.888834,-6.439573 2.44602,-9.12537 0.06752,-0.118511 0.184654,-0.176389 0.330729,-0.176389 0.147447,0 0.279739,0.08544 0.348643,0.205328 1.546158,2.677528 2.428102,5.785004 2.428102,9.097807 l 0.0014,0.61874 h -0.952225 v -0.620116 c 0,-0.252183 -0.0055,-0.502984 -0.01655,-0.753787 l -1.389062,1.373903 h -0.56224 l 1.919609,-1.915473 c -0.0248,-0.333485 -0.06201,-0.691775 -0.107488,-1.01837 l -2.933845,2.933843 h -1.513085"
         id="path1612" />
      <path
         style="fill:#211e1e;fill-opacity:1;fill-rule:nonzero;stroke:none;stroke-width:0.352778"
         d="m 33.444592,4.2748715 c 1.555806,-2.6844184 2.444641,-5.8001626 2.444641,-9.1253686 l 0.0014,-0.6187394 h -1.514461 l -2.936635,2.9076607 c -0.04548,-0.3279732 -0.07993,-0.6587024 -0.103353,-0.9908095 l 1.918229,-1.9168512 h -0.56224 l -1.387687,1.3739043 c -0.01101,-0.2494251 -0.01655,-0.5016059 -0.01655,-0.7551649 v -0.6187394 h -0.952225 v 0.6187394 c 0,3.3141817 0.881945,6.4202799 2.428103,9.0978078 0.0689,0.1198894 0.202572,0.2053276 0.348643,0.2053276 0.14745,0 0.263207,-0.059255 0.332108,-0.1777668"
         id="path1614" />
      <path
         style="fill:#ffffff;fill-opacity:1;fill-rule:nonzero;stroke:none;stroke-width:0.352778"
         d="M 34.034394,23.599101 C 33.9462,23.320737 33.845602,23.047885 33.733979,22.776412 l -1.863107,1.845193 c -0.130913,0.474045 -0.238401,0.954981 -0.321081,1.444184 l 2.484603,-2.466688"
         id="path1626" />
      <path
         style="fill:#ffffff;fill-opacity:1;fill-rule:nonzero;stroke:none;stroke-width:0.352778"
         d="m 31.445058,26.724491 c -0.0565,0.405143 -0.09784,0.814421 -0.122643,1.22921 l 3.099206,-3.068891 c -0.0689,-0.293522 -0.154341,-0.602202 -0.24667,-0.890212 l -2.729893,2.729893"
         id="path1628" />
      <path
         style="fill:#ffffff;fill-opacity:1;fill-rule:nonzero;stroke:none;stroke-width:0.352778"
         d="m 31.296232,28.586221 c -0.0055,0.170875 -0.0069,0.338999 -0.0069,0.509874 v 0.620116 l 3.423045,-3.414778 c -0.04823,-0.30868 -0.112999,-0.643543 -0.183279,-0.946712 l -3.232877,3.2315"
         id="path1630" />
      <path
         style="fill:#ffffff;fill-opacity:1;fill-rule:nonzero;stroke:none;stroke-width:0.352778"
         d="m 33.583773,22.369891 c -0.14056,-0.34451 -0.297656,-0.70969 -0.467155,-1.041797 -0.402385,0.795128 -0.742763,1.626085 -1.012857,2.485981 l 1.480012,-1.444184"
         id="path1632" />
      <path
         style="fill:#ffffff;fill-opacity:1;fill-rule:nonzero;stroke:none;stroke-width:0.352778"
         d="m 34.876372,-3.7370422 -3.100585,3.06889103 c 0.0689,0.29352204 0.15572,0.60220259 0.248049,0.89021248 L 34.75235,-2.5064543 c 0.05788,-0.4051434 0.09784,-0.8157986 0.124022,-1.2305879"
         id="path1634" />
      <path
         style="fill:#ffffff;fill-opacity:1;fill-rule:nonzero;stroke:none;stroke-width:0.352778"
         d="M 31.680703,-1.1132576 34.91358,-4.343379 c 0.0055,-0.1694988 0.0083,-0.3417535 0.0083,-0.5140082 v -0.6187394 l -3.423045,3.4147788 c 0.04685,0.3086805 0.111619,0.6449218 0.181899,0.9480902"
         id="path1636" />
      <path
         style="fill:#ffffff;fill-opacity:1;fill-rule:nonzero;stroke:none;stroke-width:0.352778"
         d="M 34.10054,0.39569394 32.628793,1.8591706 c 0.139182,0.3431315 0.289388,0.6903971 0.458887,1.0225045 0.403764,-0.7951282 0.744142,-1.6260853 1.01286,-2.48598116"
         id="path1638" />
      <path
         style="fill:#ffffff;fill-opacity:1;fill-rule:nonzero;stroke:none;stroke-width:0.352778"
         d="m 34.660021,-1.8381058 -2.492869,2.47771276 c 0.08819,0.27698558 0.187413,0.55121524 0.299032,0.82268874 l 1.874132,-1.85897344 c 0.130916,-0.47404513 0.235645,-0.95222446 0.319705,-1.44142806"
         id="path1640" />
    </g>
  </g>
</svg>
