<?xml version="1.0" encoding="UTF-8" standalone="no"?>
<!-- Created with Inkscape (http://www.inkscape.org/) -->

<svg
   width="130"
   height="129.99998"
   viewBox="0 0 130 129.99998"
   version="1.1"
   id="svg2829"
   xmlns="http://www.w3.org/2000/svg"
   xmlns:svg="http://www.w3.org/2000/svg">
  <defs
     id="defs1" />
  <path
     style="fill:#1c1917;fill-opacity:1;fill-rule:nonzero;stroke:#1c1917;stroke-width:0.159602;stroke-linecap:butt;stroke-linejoin:miter;stroke-miterlimit:10;stroke-opacity:1"
     d="M 0.079801,129.92019 H 129.9202 V 0.079801 H 0.079801 Z m 0,0"
     id="path3759" />
  <path
     style="fill:#ffffff;fill-opacity:1;fill-rule:nonzero;stroke:none;stroke-width:1.33002"
     d="M 2.027876,127.97174 H 127.97212 V 2.0282437 H 2.027876 Z m 0,0"
     id="path3761" />
  <path
     style="fill:#1c1917;fill-opacity:1;fill-rule:evenodd;stroke:none;stroke-width:1.33002"
     d="m 83.176811,94.863455 v 33.757765 h 1.94806 V 95.985784 L 129.12538,70.577806 128.15391,68.89435 83.176811,94.863455"
     id="path3775" />
  <path
     style="fill:#1c1917;fill-opacity:1;fill-rule:nonzero;stroke:#1c1917;stroke-width:0.00931011;stroke-linecap:butt;stroke-linejoin:miter;stroke-miterlimit:10;stroke-opacity:1"
     d="m 83.176814,87.06959 h 1.948057 V 71.492267 h -1.948057 z m 0,0"
     id="path3769" />
  <path
     style="fill:#1c1917;fill-opacity:1;fill-rule:nonzero;stroke:#1c1917;stroke-width:0.00931011;stroke-linecap:butt;stroke-linejoin:miter;stroke-miterlimit:10;stroke-opacity:1"
     d="m 83.176814,40.327252 h 1.948057 V 24.749929 h -1.948057 z m 0,0"
     id="path3771" />
  <path
     style="fill:#1c1917;fill-opacity:1;fill-rule:nonzero;stroke:#1c1917;stroke-width:0.00931011;stroke-linecap:butt;stroke-linejoin:miter;stroke-miterlimit:10;stroke-opacity:1"
     d="m 83.176814,63.69844 h 1.948057 V 48.121117 h -1.948057 z m 0,0"
     id="path3773" />
  <path
     style="fill:#1c1917;fill-opacity:1;fill-rule:nonzero;stroke:#1c1917;stroke-width:0.00931011;stroke-linecap:butt;stroke-linejoin:miter;stroke-miterlimit:10;stroke-opacity:1"
     d="m 83.176814,16.961305 h 1.948057 V 1.3787785 h -1.948057 z m 0,0"
     id="path3783" />
  <path
     style="fill:#1c1917;fill-opacity:1;fill-rule:evenodd;stroke:none;stroke-width:1.33002"
     d="M 16.957709,114.98718 H 29.939642 V 37.220128 l 8.961152,1.984795 c 0.42078,0.09351 0.779208,-0.270346 0.779208,-0.654673 0,-0.114247 -0.03016,-0.233772 -0.103668,-0.337838 L 23.986562,15.288105 c -0.130056,-0.187017 -0.332492,-0.275247 -0.535078,-0.275247 -0.207714,0 -0.410376,0.08823 -0.535041,0.275247 L 7.3266334,38.212412 c -0.072756,0.104066 -0.1089458,0.223591 -0.1089458,0.337838 0,0.384516 0.363781,0.748219 0.7792454,0.654673 l 8.961153,-1.984795"
     id="path3765-4" />
  <path
     style="fill:#1c1917;fill-opacity:1;fill-rule:evenodd;stroke:none;stroke-width:1.33002"
     d="M 54.610275,114.98718 H 67.592207 V 37.220128 l 8.961153,1.984795 c 0.42078,0.09351 0.779208,-0.270346 0.779208,-0.654673 0,-0.114247 -0.03016,-0.233772 -0.103668,-0.337838 L 61.639128,15.288105 c -0.130056,-0.187017 -0.332492,-0.275247 -0.535079,-0.275247 -0.207713,0 -0.410375,0.08823 -0.53504,0.275247 l -15.58981,22.924307 c -0.07276,0.104066 -0.108946,0.223591 -0.108946,0.337838 0,0.384516 0.363781,0.748219 0.779246,0.654673 l 8.961153,-1.984795"
     id="path3765" />
  <path
     style="fill:#1c1917;fill-opacity:1;fill-rule:evenodd;stroke:none;stroke-width:1.33002"
     d="M 88.911927,114.98718 H 101.8991 V 64.353113 l 15.11704,-26.769282 6.76369,6.198714 c 0.31704,0.291083 0.81042,0.15082 1.00261,-0.181739 0.0573,-0.09879 0.0882,-0.218312 0.078,-0.348017 l -2.03638,-27.647396 c -0.0151,-0.218312 -0.15079,-0.400089 -0.32722,-0.504004 -0.17642,-0.104066 -0.39997,-0.124804 -0.59739,-0.03016 l -24.966471,12.0597 c -0.114224,0.05731 -0.202436,0.140263 -0.259736,0.23905 -0.192258,0.332559 -0.06748,0.831359 0.34267,0.961253 l 8.753327,2.758993 -16.857313,29.855669"
     id="path3779" />
</svg>
