<?xml version="1.0" encoding="UTF-8" standalone="no"?>
<!-- Created with Inkscape (http://www.inkscape.org/) -->

<svg
   width="71.999275mm"
   height="100mm"
   viewBox="0 0 71.999275 100"
   version="1.1"
   id="svg1369"
   xmlns="http://www.w3.org/2000/svg"
   xmlns:svg="http://www.w3.org/2000/svg">
  <defs
     id="defs1366" />
  <g
     id="layer1"
     transform="translate(-117.46647,-60.425709)">
    <g
       id="g2237"
       transform="matrix(3.7233855,0,0,3.7233855,-218.59224,-792.94331)">
      <path
         d="M 90.256872,256.04832 H 109.59262 V 229.19234 H 90.256872 Z"
         style="fill:#231f20;fill-opacity:1;fill-rule:evenodd;stroke:none;stroke-width:0.352778"
         id="path1186" />
      <path
         d="M 90.256872,256.04832 H 109.59262 V 229.19234 H 90.256872 Z"
         style="fill:none;stroke:#231f20;stroke-width:0.00129822;stroke-linecap:square;stroke-linejoin:miter;stroke-miterlimit:2.6131;stroke-dasharray:none;stroke-opacity:1"
         id="path1188" />
      <path
         d="m 90.578961,229.51477 h 18.691919 v 26.21111 H 90.578961 Z"
         style="fill:#ffffff;fill-opacity:1;fill-rule:evenodd;stroke:none;stroke-width:0.352778"
         id="path1190" />
      <path
         d="m 90.578961,229.51477 h 18.691919 v 26.21111 H 90.578961 Z"
         style="fill:none;stroke:#231f20;stroke-width:0.00129822;stroke-linecap:square;stroke-linejoin:miter;stroke-miterlimit:2.6131;stroke-dasharray:none;stroke-opacity:1"
         id="path1192" />
      <path
         d="m 98.635689,254.86665 h -0.644518 c 0,-1.12028 0.300218,-4.73837 1.706034,-6.7806 0.05221,-0.0758 0.142885,-0.0945 0.227894,-0.0945 0.08467,0 0.175331,0.0187 0.227541,0.0945 1.4164,2.0567 1.70568,5.67831 1.70568,6.7806 h -0.64416 c 0,-0.12195 -0.005,-0.26942 -0.0152,-0.43695 l -0.4371,0.43695 h -0.37254 l 0.78353,-0.78338 c -0.0187,-0.21378 -0.0441,-0.44943 -0.0766,-0.69955 l -1.482734,1.48293 H 99.24107 l 1.8101,-1.80996 c -0.0318,-0.21519 -0.0677,-0.43815 -0.10935,-0.6664 l -2.303647,2.30343 c -0.0014,0.062 -0.0025,0.11988 -0.0025,0.17293 v 0 0 z m 2.246501,-2.78927 c -0.042,-0.21061 -0.0878,-0.42439 -0.13829,-0.63782 l -2.011183,2.01189 c -0.03669,0.31291 -0.06174,0.60148 -0.07727,0.85231 z m -0.21202,-0.93627 c -0.0526,-0.20391 -0.10902,-0.40711 -0.1697,-0.60643 l -1.559621,1.55928 c -0.06138,0.31962 -0.11219,0.63253 -0.153811,0.93027 z m -0.25966,-0.88865 c -0.0645,-0.19579 -0.13298,-0.38594 -0.20672,-0.56938 l -0.88864,0.889 c -0.106535,0.34501 -0.198261,0.69991 -0.276571,1.05198 z m -0.31678,-0.83185 c -0.054,-0.12206 -0.110422,-0.24095 -0.168631,-0.3549 -0.156982,0.29069 -0.295984,0.60996 -0.419798,0.94333 z"
         style="fill:#231f20;fill-opacity:1;fill-rule:evenodd;stroke:none;stroke-width:0.352778"
         id="path1194" />
      <path
         d="m 98.635689,254.86665 h -0.644518 c 0,-1.12028 0.300218,-4.73837 1.706034,-6.7806 0.05221,-0.0758 0.142885,-0.0945 0.227894,-0.0945 0.08467,0 0.175331,0.0187 0.227541,0.0945 1.4164,2.0567 1.70568,5.67831 1.70568,6.7806 h -0.64416 c 0,-0.12195 -0.005,-0.26942 -0.0152,-0.43695 l -0.4371,0.43695 h -0.37254 l 0.78353,-0.78338 c -0.0187,-0.21378 -0.0441,-0.44943 -0.0766,-0.69955 l -1.482734,1.48293 H 99.24107 l 1.8101,-1.80996 c -0.0318,-0.21519 -0.0677,-0.43815 -0.10935,-0.6664 l -2.303647,2.30343 c -0.0014,0.062 -0.0025,0.11988 -0.0025,0.17293 v 0 z m 2.246501,-2.78927 c -0.042,-0.21061 -0.0878,-0.42439 -0.13829,-0.63782 l -2.011183,2.01189 c -0.03669,0.31291 -0.06174,0.60148 -0.07727,0.85231 z m -0.21202,-0.93627 c -0.0526,-0.20391 -0.10902,-0.40711 -0.1697,-0.60643 l -1.559621,1.55928 c -0.06138,0.31962 -0.11219,0.63253 -0.153811,0.93027 z m -0.25966,-0.88865 c -0.0645,-0.19579 -0.13298,-0.38594 -0.20672,-0.56938 l -0.88864,0.889 c -0.106535,0.34501 -0.198261,0.69991 -0.276571,1.05198 z m -0.31678,-0.83185 c -0.054,-0.12206 -0.110422,-0.24095 -0.168631,-0.3549 -0.156982,0.29069 -0.295984,0.60996 -0.419798,0.94333 z"
         style="fill:none;stroke:#231f20;stroke-width:0.00129822;stroke-linecap:square;stroke-linejoin:miter;stroke-miterlimit:2.6131;stroke-dasharray:none;stroke-opacity:1"
         id="path1196" />
      <path
         d="m 98.635689,230.37414 h -0.644518 c 0,1.12112 0.300218,4.73851 1.706034,6.78074 0.05221,0.0755 0.142885,0.0942 0.227894,0.0942 0.08467,0 0.175331,-0.0187 0.227541,-0.0942 1.4164,-2.05705 1.70568,-5.67831 1.70568,-6.78074 h -0.64416 c 0,0.12206 -0.005,0.26952 -0.0152,0.43745 l -0.4371,-0.43745 h -0.37254 l 0.78353,0.78422 c -0.0187,0.21343 -0.0441,0.44838 -0.0766,0.6985 l -1.482734,-1.48272 H 99.24107 l 1.8101,1.8101 c -0.0318,0.21485 -0.0677,0.43815 -0.10935,0.66675 L 98.638173,230.547 c -0.0014,-0.0614 -0.0025,-0.11924 -0.0025,-0.17286 v 0 0 z m 2.246501,2.78976 c -0.042,0.21096 -0.0878,0.42369 -0.13829,0.63748 l -2.011183,-2.01119 c -0.03669,-0.31362 -0.06174,-0.60185 -0.07727,-0.85302 z m -0.21202,0.93627 c -0.0526,0.20391 -0.10902,0.40677 -0.1697,0.60573 l -1.559621,-1.55929 c -0.06138,-0.31961 -0.11219,-0.63253 -0.153811,-0.92956 z m -0.25966,0.8883 c -0.0645,0.19579 -0.13298,0.38594 -0.20672,0.56903 l -0.88864,-0.88794 c -0.106535,-0.34607 -0.198261,-0.70097 -0.276571,-1.05304 z m -0.31678,0.83149 c -0.054,0.12278 -0.110422,0.24131 -0.168631,0.3549 -0.156982,-0.29069 -0.295984,-0.6089 -0.419798,-0.94333 z"
         style="fill:#231f20;fill-opacity:1;fill-rule:evenodd;stroke:none;stroke-width:0.352778"
         id="path1198" />
      <path
         d="m 98.635689,230.37414 h -0.644518 c 0,1.12112 0.300218,4.73851 1.706034,6.78074 0.05221,0.0755 0.142885,0.0942 0.227894,0.0942 0.08467,0 0.175331,-0.0187 0.227541,-0.0942 1.4164,-2.05705 1.70568,-5.67831 1.70568,-6.78074 h -0.64416 c 0,0.12206 -0.005,0.26952 -0.0152,0.43745 l -0.4371,-0.43745 h -0.37254 l 0.78353,0.78422 c -0.0187,0.21343 -0.0441,0.44838 -0.0766,0.6985 l -1.482734,-1.48272 H 99.24107 l 1.8101,1.8101 c -0.0318,0.21485 -0.0677,0.43815 -0.10935,0.66675 L 98.638173,230.547 c -0.0014,-0.0614 -0.0025,-0.11924 -0.0025,-0.17286 v 0 z m 2.246501,2.78976 c -0.042,0.21096 -0.0878,0.42369 -0.13829,0.63748 l -2.011183,-2.01119 c -0.03669,-0.31362 -0.06174,-0.60185 -0.07727,-0.85302 z m -0.21202,0.93627 c -0.0526,0.20391 -0.10902,0.40677 -0.1697,0.60573 l -1.559621,-1.55929 c -0.06138,-0.31961 -0.11219,-0.63253 -0.153811,-0.92956 z m -0.25966,0.8883 c -0.0645,0.19579 -0.13298,0.38594 -0.20672,0.56903 l -0.88864,-0.88794 c -0.106535,-0.34607 -0.198261,-0.70097 -0.276571,-1.05304 z m -0.31678,0.83149 c -0.054,0.12278 -0.110422,0.24131 -0.168631,0.3549 -0.156982,-0.29069 -0.295984,-0.6089 -0.419798,-0.94333 z"
         style="fill:none;stroke:#231f20;stroke-width:0.00129822;stroke-linecap:square;stroke-linejoin:miter;stroke-miterlimit:2.6131;stroke-dasharray:none;stroke-opacity:1"
         id="path1200" />
      <path
         d="m 95.789485,236.05351 c 0,0.88759 0.316086,1.65171 0.944027,2.27859 0,0 6.748638,6.74899 7.794988,7.79498 1.04598,1.04598 1.57304,2.31845 1.57304,3.798 v 4.29719 h -2.14877 v -4.29719 c 0,-0.88688 -0.31645,-1.6517 -0.94369,-2.27859 -0.62759,-0.62724 -7.794982,-7.79498 -7.794982,-7.79498 -1.046332,-1.04598 -1.573029,-2.31916 -1.573029,-3.798 v -1.35925 l -1.483082,0.32807 c -0.06914,0.0159 -0.128407,-0.0448 -0.128407,-0.109 0,-0.0187 0.0053,-0.0377 0.01729,-0.0557 l 2.57986,-3.79307 c 0.02081,-0.0303 0.05432,-0.0455 0.08819,-0.0455 0.03422,0 0.06809,0.0152 0.08855,0.0455 l 2.579853,3.79307 c 0.01199,0.018 0.01729,0.037 0.01729,0.0557 3.53e-4,0.0642 -0.05927,0.12488 -0.128768,0.109 l -1.482368,-0.32807 v 1.35925 0 0 z"
         style="fill:#231f20;fill-opacity:1;fill-rule:evenodd;stroke:none;stroke-width:0.352778"
         id="path1202" />
    </g>
  </g>
</svg>
