<?xml version="1.0" encoding="UTF-8"?>
<svg xmlns="http://www.w3.org/2000/svg" xmlns:xlink="http://www.w3.org/1999/xlink" width="129pt" height="44pt" viewBox="0 0 129 44" version="1.1">
<g id="surface1">
<path style=" stroke:none;fill-rule:nonzero;fill:rgb(100%,100%,100%);fill-opacity:1;" d="M 0.738281 43.433594 L 128.300781 43.433594 L 128.300781 0.914062 L 0.738281 0.914062 Z M 0.738281 43.433594 "/>
<path style="fill:none;stroke-width:2.835;stroke-linecap:butt;stroke-linejoin:miter;stroke:rgb(13.729858%,12.159729%,12.548828%);stroke-opacity:1;stroke-miterlimit:4;" d="M 7.382812 5.664062 L 1283.007812 5.664062 L 1283.007812 430.859375 L 7.382812 430.859375 L 7.382812 5.664062 " transform="matrix(0.1,0,0,-0.1,0,44)"/>
<path style=" stroke:none;fill-rule:nonzero;fill:rgb(24.468994%,23.448181%,24.919128%);fill-opacity:1;" d="M 35.453125 21.320312 C 34.066406 21.925781 32.925781 22.707031 32.074219 23.667969 C 31.222656 24.660156 30.796875 25.976562 30.796875 27.648438 C 30.796875 28.605469 30.972656 29.53125 31.328125 30.347656 C 31.644531 31.164062 32.148438 31.914062 32.785156 32.519531 C 33.425781 33.117188 34.207031 33.617188 35.132812 33.933594 C 36.050781 34.289062 37.085938 34.464844 38.253906 34.464844 C 39.355469 34.464844 40.390625 34.324219 41.347656 33.972656 C 42.273438 33.652344 43.054688 33.226562 43.730469 32.621094 C 44.40625 32.015625 44.902344 31.308594 45.292969 30.457031 C 45.648438 29.601562 45.828125 28.644531 45.828125 27.578125 C 45.828125 26.011719 45.398438 24.699219 44.546875 23.632812 C 43.660156 22.601562 42.523438 21.785156 41.136719 21.179688 C 42.484375 20.503906 43.515625 19.617188 44.191406 18.515625 C 44.863281 17.449219 45.222656 16.3125 45.222656 15.105469 C 45.222656 14.214844 45.042969 13.398438 44.722656 12.652344 C 44.367188 11.90625 43.871094 11.265625 43.265625 10.734375 C 42.660156 10.203125 41.917969 9.808594 41.097656 9.488281 C 40.246094 9.203125 39.324219 9.0625 38.328125 9.0625 C 37.261719 9.0625 36.304688 9.203125 35.453125 9.523438 C 34.597656 9.84375 33.886719 10.304688 33.285156 10.875 C 32.679688 11.441406 32.214844 12.121094 31.898438 12.863281 C 31.578125 13.648438 31.398438 14.5 31.398438 15.390625 C 31.398438 16.667969 31.71875 17.804688 32.394531 18.796875 C 33.066406 19.832031 34.066406 20.648438 35.453125 21.320312 "/>
<path style=" stroke:none;fill-rule:nonzero;fill:rgb(24.468994%,23.448181%,24.919128%);fill-opacity:1;" d="M 51.140625 30.847656 C 51.742188 31.984375 52.523438 32.871094 53.484375 33.511719 C 54.441406 34.152344 55.578125 34.464844 56.964844 34.464844 C 58.351562 34.464844 59.523438 34.152344 60.484375 33.472656 C 61.441406 32.835938 62.222656 31.949219 62.828125 30.8125 C 63.433594 29.671875 63.859375 28.324219 64.105469 26.792969 C 64.355469 25.265625 64.5 23.597656 64.5 21.785156 C 64.5 19.972656 64.355469 18.300781 64.105469 16.738281 C 63.859375 15.210938 63.433594 13.859375 62.828125 12.722656 C 62.222656 11.585938 61.441406 10.699219 60.484375 10.019531 C 59.523438 9.382812 58.351562 9.0625 56.964844 9.0625 C 55.578125 9.0625 54.410156 9.382812 53.449219 10.019531 C 52.488281 10.699219 51.742188 11.585938 51.140625 12.722656 C 50.535156 13.859375 50.105469 15.210938 49.859375 16.738281 C 49.609375 18.300781 49.46875 19.972656 49.46875 21.785156 C 49.46875 23.597656 49.609375 25.265625 49.859375 26.792969 C 50.105469 28.359375 50.535156 29.710938 51.140625 30.847656 "/>
<path style=" stroke:none;fill-rule:nonzero;fill:rgb(24.468994%,23.448181%,24.919128%);fill-opacity:1;" d="M 75.636719 34.183594 L 79.335938 34.183594 L 79.335938 23.027344 C 79.335938 21.675781 79.617188 20.648438 80.152344 19.898438 C 80.683594 19.15625 81.503906 18.796875 82.53125 18.796875 C 84.238281 18.796875 85.09375 19.933594 85.09375 22.175781 L 85.09375 34.183594 L 88.785156 34.183594 L 88.785156 23.027344 C 88.785156 21.675781 89.070312 20.648438 89.601562 19.898438 C 90.136719 19.15625 90.953125 18.796875 91.984375 18.796875 C 93.6875 18.796875 94.539062 19.933594 94.539062 22.175781 L 94.539062 34.183594 L 98.238281 34.183594 L 98.238281 22.246094 C 98.238281 20.117188 97.808594 18.480469 96.960938 17.378906 C 96.070312 16.277344 94.757812 15.710938 92.980469 15.710938 C 91.804688 15.710938 90.847656 15.992188 90.097656 16.5625 C 89.351562 17.164062 88.785156 17.839844 88.324219 18.585938 C 88.148438 18.234375 87.929688 17.875 87.683594 17.519531 C 87.433594 17.199219 87.113281 16.878906 86.761719 16.59375 C 86.40625 16.347656 85.976562 16.132812 85.515625 15.957031 C 85.054688 15.777344 84.484375 15.710938 83.882812 15.710938 C 82.742188 15.710938 81.824219 15.992188 81.074219 16.5625 C 80.328125 17.164062 79.722656 17.875 79.335938 18.765625 L 79.261719 18.765625 C 79.261719 18.65625 79.261719 18.445312 79.261719 18.160156 C 79.226562 17.910156 79.226562 17.628906 79.226562 17.34375 C 79.191406 17.058594 79.191406 16.773438 79.191406 16.527344 C 79.15625 16.277344 79.15625 16.0625 79.15625 15.957031 L 75.496094 15.957031 C 75.53125 16.453125 75.566406 16.988281 75.601562 17.554688 C 75.636719 18.125 75.636719 18.730469 75.636719 19.402344 L 75.636719 34.183594 "/>
<path style=" stroke:none;fill-rule:nonzero;fill:rgb(100%,100%,100%);fill-opacity:1;" d="M 38.613281 19.972656 C 37.472656 19.402344 36.589844 18.765625 35.984375 18.015625 C 35.34375 17.308594 35.023438 16.488281 35.023438 15.566406 C 35.023438 14.5 35.34375 13.648438 35.984375 12.972656 C 36.589844 12.332031 37.371094 12.011719 38.328125 12.011719 C 39.355469 12.011719 40.175781 12.332031 40.742188 12.9375 C 41.3125 13.574219 41.597656 14.394531 41.597656 15.351562 C 41.597656 15.847656 41.527344 16.3125 41.347656 16.738281 C 41.171875 17.199219 40.960938 17.59375 40.675781 17.980469 C 40.390625 18.371094 40.070312 18.730469 39.714844 19.050781 C 39.355469 19.367188 39.003906 19.6875 38.613281 19.972656 "/>
<path style=" stroke:none;fill-rule:nonzero;fill:rgb(100%,100%,100%);fill-opacity:1;" d="M 38.078125 22.601562 C 38.613281 22.886719 39.109375 23.171875 39.609375 23.457031 C 40.070312 23.773438 40.496094 24.09375 40.886719 24.484375 C 41.242188 24.875 41.527344 25.304688 41.738281 25.765625 C 41.953125 26.261719 42.058594 26.828125 42.058594 27.46875 C 42.058594 28.679688 41.738281 29.671875 41.097656 30.417969 C 40.425781 31.199219 39.535156 31.59375 38.398438 31.59375 C 37.152344 31.59375 36.230469 31.199219 35.554688 30.382812 C 34.882812 29.566406 34.5625 28.605469 34.5625 27.433594 C 34.5625 26.828125 34.667969 26.296875 34.847656 25.835938 C 35.023438 25.375 35.234375 24.945312 35.554688 24.558594 C 35.875 24.164062 36.230469 23.84375 36.691406 23.523438 C 37.121094 23.203125 37.582031 22.917969 38.078125 22.601562 "/>
<path style=" stroke:none;fill-rule:nonzero;fill:rgb(100%,100%,100%);fill-opacity:1;" d="M 54.050781 28.964844 C 53.519531 27.292969 53.234375 24.875 53.234375 21.785156 C 53.234375 18.695312 53.519531 16.277344 54.050781 14.570312 C 54.585938 12.863281 55.578125 12.011719 56.964844 12.011719 C 58.386719 12.011719 59.382812 12.863281 59.917969 14.535156 C 60.449219 16.242188 60.734375 18.65625 60.734375 21.785156 C 60.734375 24.875 60.449219 27.292969 59.917969 28.964844 C 59.347656 30.667969 58.351562 31.519531 56.964844 31.519531 C 55.578125 31.519531 54.585938 30.667969 54.050781 28.964844 "/>
</g>
</svg>
