<?xml version="1.0" encoding="UTF-8" standalone="no"?>
<svg
   width="73pt"
   height="51pt"
   viewBox="0 0 73 51"
   version="1.1"
   id="svg839"
   sodipodi:docname="502-l.svg"
   inkscape:version="1.1.2 (b8e25be8, 2022-02-05)"
   xmlns:inkscape="http://www.inkscape.org/namespaces/inkscape"
   xmlns:sodipodi="http://sodipodi.sourceforge.net/DTD/sodipodi-0.dtd"
   xmlns="http://www.w3.org/2000/svg"
   xmlns:svg="http://www.w3.org/2000/svg">
  <defs
     id="defs843" />
  <sodipodi:namedview
     id="namedview841"
     pagecolor="#ffffff"
     bordercolor="#666666"
     borderopacity="1.0"
     inkscape:pageshadow="2"
     inkscape:pageopacity="0.0"
     inkscape:pagecheckerboard="0"
     inkscape:document-units="pt"
     showgrid="false"
     inkscape:zoom="6.2321474"
     inkscape:cx="48.057272"
     inkscape:cy="38.911147"
     inkscape:window-width="1312"
     inkscape:window-height="785"
     inkscape:window-x="0"
     inkscape:window-y="25"
     inkscape:window-maximized="0"
     inkscape:current-layer="surface1" />
  <g
     id="surface1">
    <path
       style=" stroke:none;fill-rule:nonzero;fill:rgb(100%,100%,100%);fill-opacity:1;"
       d="M 1.085938 49.976562 L 71.953125 49.976562 L 71.953125 0.371094 L 1.085938 0.371094 Z M 1.085938 49.976562 "
       id="path824" />
    <path
       style="fill:none;stroke-width:2.835;stroke-linecap:butt;stroke-linejoin:miter;stroke:rgb(13.729858%,12.159729%,12.548828%);stroke-opacity:1;stroke-miterlimit:4;"
       d="M 10.859375 10.234375 L 719.53125 10.234375 L 719.53125 506.289062 L 10.859375 506.289062 L 10.859375 10.234375 "
       transform="matrix(0.1,0,0,-0.1,0,51)"
       id="path826" />
    <path
       style="fill:#211e1e;fill-opacity:1;fill-rule:nonzero;stroke:none"
       d="m 42.889335,19.550781 1.875,5.800781 c 0.0078,0.03125 0.07422,0.21875 0.07422,0.242188 0.0625,0.363281 -0.179687,0.703125 -0.480468,0.898438 -0.335938,0.230468 -0.78125,0.28125 -1.140626,0.07422 L 43.006522,26.417969 29.791678,17.054688 c -0.05078,-0.04297 -0.195312,-0.144532 -0.238281,-0.1875 -0.230469,-0.207032 -0.359375,-0.496094 -0.375,-0.804688 -0.01953,-0.289062 0.07031,-0.59375 0.269531,-0.796875 0.05469,-0.05078 0.199219,-0.15625 0.25,-0.199219 L 43.080741,5.488281 c 0.0625,-0.039062 0.164062,-0.105469 0.238281,-0.148437 0.367187,-0.175782 0.804687,-0.121094 1.121094,0.136718 0.3125,0.242188 0.449219,0.648438 0.40625,1.027344 0,0.0625 -0.0078,0.164063 -0.02344,0.214844 l -1.902343,5.722656 h 5.414062 c 0.25,0 0.671875,0.02734 0.894531,0.05078 2.105469,0.167968 4.152344,0.871093 6.011719,1.851562 1.59375,0.839844 3.058594,1.917969 4.339844,3.1875 1.304687,1.304688 2.394531,2.789062 3.246094,4.425781 0.980468,1.898438 1.628906,3.972657 1.851562,6.113281 0,0.01172 0,0.02344 0.0078,0.04297 0.01563,0.195313 0.06641,0.691407 0.06641,0.871094 V 45.71875 H 57.635428 V 29.648438 c 0,-0.07813 -0.04297,-0.460938 -0.05859,-0.621094 0,-0.01172 0,-0.01953 -0.0078,-0.02734 -0.128906,-1.117188 -0.394531,-2.226562 -0.847656,-3.242188 -0.511719,-1.183593 -1.25,-2.25 -2.179688,-3.152343 -0.871093,-0.855469 -1.894531,-1.546875 -3.011719,-2.058594 -1.019531,-0.464844 -2.105468,-0.78125 -3.214843,-0.925781 -0.01563,0 -0.02344,0 -0.04297,0 -0.175781,-0.02734 -0.554688,-0.07031 -0.652344,-0.07031 H 42.88935"
       id="path828" />
    <path
       style="fill:#211e1e;fill-opacity:1;fill-rule:nonzero;stroke:none"
       d="m 8.421875,44.566406 c 0.40625,0.152344 0.875,0.300782 1.429687,0.410156 0.535157,0.121094 1.128907,0.1875 1.746094,0.1875 1.582032,0 2.792969,-0.464843 3.648438,-1.382812 0.851562,-0.941406 1.28125,-2.199219 1.28125,-3.796875 0,-0.726563 -0.109375,-1.386719 -0.320313,-1.941406 C 15.972656,37.46875 15.671875,37 15.308594,36.613281 14.945312,36.230469 14.5,35.953125 14.011719,35.761719 13.5,35.570312 12.960938,35.464844 12.40625,35.464844 c -0.335938,0 -0.65625,0.01953 -0.933594,0.0625 -0.300781,0.02344 -0.554687,0.08594 -0.746094,0.148437 v -3.75 h 5.09375 v -1.8125 H 8.636719 v 7.589844 C 9,37.59375 9.378906,37.488281 9.765625,37.382812 c 0.386719,-0.105468 0.832031,-0.148437 1.320313,-0.148437 1.027343,0 1.792968,0.277344 2.324218,0.808594 0.511719,0.535156 0.769532,1.257812 0.769532,2.132812 0,0.917969 -0.257813,1.664063 -0.789063,2.238281 -0.53125,0.597657 -1.261719,0.898438 -2.175781,0.898438 -0.53125,0 -1.019532,-0.08594 -1.472656,-0.238281 C 9.296875,42.925781 8.890625,42.757812 8.550781,42.5625 l -0.128906,2.003906"
       id="path830" />
    <path
       style="fill:#211e1e;fill-opacity:1;fill-rule:nonzero;stroke:none"
       d="m 19.410156,42.992188 c 0.363282,0.679687 0.832032,1.210937 1.40625,1.597656 0.578125,0.386718 1.261719,0.574218 2.09375,0.574218 0.828125,0 1.53125,-0.1875 2.109375,-0.597656 0.574219,-0.382812 1.042969,-0.917968 1.40625,-1.597656 0.363281,-0.683594 0.617188,-1.492188 0.765625,-2.40625 0.144532,-0.917969 0.230469,-1.917969 0.230469,-3.007812 0,-1.085938 -0.08594,-2.089844 -0.230469,-3.027344 -0.148437,-0.917969 -0.402344,-1.726563 -0.765625,-2.414063 -0.363281,-0.679687 -0.832031,-1.210937 -1.40625,-1.617187 -0.578125,-0.382813 -1.28125,-0.578125 -2.109375,-0.578125 -0.832031,0 -1.539062,0.195312 -2.113281,0.578125 -0.578125,0.40625 -1.023437,0.9375 -1.386719,1.617187 -0.359375,0.6875 -0.617187,1.496094 -0.765625,2.414063 -0.148437,0.9375 -0.234375,1.941406 -0.234375,3.027344 0,1.089843 0.08594,2.089843 0.234375,3.007812 0.148438,0.933594 0.40625,1.742188 0.765625,2.429688"
       id="path832" />
    <path
       style="fill:#211e1e;fill-opacity:1;fill-rule:nonzero;stroke:none"
       d="m 31.894531,44.992188 h 2.21875 v -6.691407 c 0,-0.8125 0.167969,-1.429687 0.488281,-1.875 0.320313,-0.453125 0.808594,-0.664062 1.429688,-0.664062 1.023438,0 1.535156,0.683593 1.535156,2.027343 v 7.203126 h 2.214844 v -6.691407 c 0,-0.8125 0.171875,-1.429687 0.492188,-1.875 0.320312,-0.453125 0.808593,-0.664062 1.429687,-0.664062 1.019531,0 1.53125,0.683593 1.53125,2.027343 v 7.203126 h 2.21875 v -7.160157 c 0,-1.28125 -0.257813,-2.261719 -0.769531,-2.921875 C 44.152344,34.25 43.363281,33.90625 42.296875,33.90625 c -0.703125,0 -1.28125,0.171875 -1.726563,0.511719 -0.445312,0.363281 -0.789062,0.769531 -1.066406,1.21875 -0.105468,-0.21875 -0.230468,-0.429688 -0.382812,-0.640625 -0.148438,-0.191406 -0.339844,-0.386719 -0.554688,-0.554688 -0.214844,-0.152344 -0.46875,-0.277344 -0.746094,-0.386718 -0.277343,-0.101563 -0.617187,-0.148438 -0.980468,-0.148438 -0.683594,0 -1.238282,0.171875 -1.683594,0.511719 -0.449219,0.363281 -0.808594,0.789062 -1.042969,1.320312 h -0.04297 c 0,-0.0625 0,-0.1875 0,-0.359375 -0.02344,-0.148437 -0.02344,-0.320312 -0.02344,-0.492187 -0.01953,-0.167969 -0.01953,-0.339844 -0.01953,-0.488281 -0.02344,-0.148438 -0.02344,-0.277344 -0.02344,-0.34375 h -2.195312 c 0.02344,0.300781 0.04297,0.621093 0.0625,0.960937 0.02344,0.34375 0.02344,0.703125 0.02344,1.109375 v 8.867188"
       id="path834" />
    <path
       style="fill:#ffffff;fill-opacity:1;fill-rule:nonzero;stroke:none"
       d="m 21.160156,41.859375 c -0.320312,-1 -0.492187,-2.449219 -0.492187,-4.304687 0,-1.855469 0.171875,-3.304688 0.492187,-4.332032 0.320313,-1.019531 0.917969,-1.53125 1.75,-1.53125 0.851563,0 1.445313,0.511719 1.765625,1.511719 0.320313,1.023437 0.488281,2.472656 0.488281,4.351563 0,1.855468 -0.167968,3.304687 -0.488281,4.304687 -0.339843,1.023437 -0.9375,1.535156 -1.765625,1.535156 -0.832031,0 -1.429687,-0.511719 -1.75,-1.535156"
       id="path836" />
  </g>
</svg>
