<?xml version="1.0" encoding="UTF-8" standalone="no"?>
<svg
   width="86.046928pt"
   height="35.776272pt"
   viewBox="0 0 86.04693 35.776272"
   version="1.1"
   id="svg3513"
   xmlns="http://www.w3.org/2000/svg"
   xmlns:svg="http://www.w3.org/2000/svg">
  <defs
     id="defs3517" />
  <g
     id="layer2"
     style="display:inline"
     transform="scale(0.74036996,1)" />
  <g
     id="layer1">
    <rect
       style="display:inline;fill:#ffffff;stroke:none;stroke-width:0;stroke-linecap:square;stroke-miterlimit:4;stroke-dasharray:none;stroke-opacity:1"
       id="rect3621"
       width="86.046928"
       height="35.776272"
       x="0"
       y="8.8817842e-16" />
    <rect
       style="display:inline;fill:none;stroke:#000000;stroke-width:0.197298;stroke-linecap:square;stroke-miterlimit:4;stroke-dasharray:none;stroke-opacity:1"
       id="rect3621-4"
       width="84.749191"
       height="34.468613"
       x="0.70262796"
       y="0.729029" />
  </g>
  <g
     id="layer3"
     style="display:inline">
    <g
       id="surface1-3"
       transform="translate(4.2640642,3.6821363)">
      <path
         style="fill:#211e1e;fill-opacity:1;fill-rule:nonzero;stroke:none"
         d="m 17.796875,12.9375 -0.0039,-12.011719 h 60.695312 v 18.976563 h -2.277343 l 0.4375,0.714844 h 1.210937 v 3.425781 H 76.71875 c -0.0039,-0.15625 -0.01172,-0.394531 -0.01953,-0.558594 -0.28125,-3.4375 -3.125,-6.117187 -6.578125,-6.097656 -3.414063,0.02344 -6.246094,2.679687 -6.453125,6.097656 -0.0078,0.164063 -0.0078,0.402344 -0.0078,0.558594 H 62.75 c 0,-0.121094 -0.0078,-0.300781 -0.01563,-0.429688 -0.210937,-3.410156 -3,-6.105469 -6.417969,-6.109375 -3.410156,-0.0078 -6.144531,2.714844 -6.46875,6.109375 -0.01172,0.121094 -0.01953,0.308594 -0.02734,0.429688 h -11.8125 L 36.160156,17.128906 H 29.65625 c 0.09766,0.01563 0.222656,0.03516 0.320312,0.05859 0.171876,0.02734 0.378907,0.07031 0.550782,0.113281 0.167968,0.05078 0.324218,0.101563 0.480468,0.164063 0.117188,0.04297 0.265626,0.109375 0.375,0.160156 0.05469,0.02734 0.191407,0.08594 0.257813,0.113281 H 35.5 v 6.304688 h -0.953125 c 0,-0.117188 0,-0.292969 -0.0078,-0.410157 -0.148437,-3.273437 -2.863281,-5.828124 -6.136718,-5.808593 -3.210938,0.01563 -5.855469,2.527343 -6.019532,5.738281 -0.0078,0.136719 -0.0078,0.34375 -0.0078,0.480469 H 16.6094 c -0.0078,-0.136719 -0.01563,-0.332031 -0.02734,-0.464844 -0.128906,-1.691406 -0.890625,-3.289063 -2.164062,-4.414063 -1.152344,-1.015624 -2.65625,-1.546874 -4.199219,-1.519531 -1.667969,0.02734 -3.257812,0.703125 -4.417969,1.898438 -0.988281,1.027343 -1.621093,2.363281 -1.664062,3.789062 -0.00391,0.210938 0.00781,0.511719 0.015625,0.710938 H 0.546875 v -2.191407 l 1.183594,0.0039 0.886719,-6.851563 0.03125,-0.289062 c 0.019531,-0.199219 0.0625,-0.429688 0.144531,-0.617188 0.148437,-0.355468 0.441406,-0.648437 0.773437,-0.859375 0.183594,-0.121093 0.40625,-0.21875 0.628906,-0.265625 0.078126,-0.01172 0.1875,-0.02734 0.265626,-0.03516 L 7.226562,7.292969 C 7.238281,7.273438 7.3125,7.121094 7.324219,7.101562 7.417969,6.9375 7.554688,6.800781 7.71875,6.699219 7.871094,6.613281 8.035156,6.554688 8.207031,6.542969 c 0.027344,0 0.28125,0 0.316407,0 h 8.4375 v 11.195312 h 8.34375 c 0.05078,-0.01953 0.136718,-0.06641 0.1875,-0.08594 0.1875,-0.08594 0.394531,-0.148438 0.582031,-0.207032 0.242187,-0.07422 0.527343,-0.144531 0.773437,-0.203124 0.148438,-0.03516 0.335938,-0.08594 0.488282,-0.113282 h -9.539063 v -3.515625 h 20.871094 l 1.824219,7.003907 h 9.464843 c 0.01172,-0.04297 0.03516,-0.09766 0.05078,-0.136719 0.04297,-0.08984 0.105469,-0.191407 0.15625,-0.277344 0.04297,-0.05859 0.08594,-0.121094 0.128907,-0.171875 0.03125,-0.04297 0.07813,-0.09375 0.113281,-0.128906 h -9.3125 L 39.203125,12.9375 h -21.40625"
         id="path1976" />
      <path
         style="fill:#211e1e;fill-opacity:1;fill-rule:nonzero;stroke:none"
         d="m 10.226562,18.789062 c 2.902344,-0.02734 5.304688,2.269532 5.304688,5.171876 -0.0078,2.863281 -2.351562,5.15625 -5.214844,5.15625 -2.847656,-0.0078 -5.160156,-2.292969 -5.167968,-5.136719 -0.011719,-2.828125 2.25,-5.15625 5.078124,-5.191407"
         id="path1978" />
      <path
         style="fill:#211e1e;fill-opacity:1;fill-rule:nonzero;stroke:none"
         d="m 28.402344,18.703125 c 2.921875,-0.01563 5.285156,2.355469 5.261718,5.273437 -0.01172,2.871094 -2.347656,5.183594 -5.21875,5.183594 -2.867187,0 -5.195312,-2.320312 -5.210937,-5.183594 -0.01953,-2.890624 2.285156,-5.257812 5.167969,-5.273437"
         id="path1980" />
      <path
         style="fill:#211e1e;fill-opacity:1;fill-rule:nonzero;stroke:none"
         d="m 56.316406,18.695312 c 2.9375,0 5.304688,2.394532 5.285156,5.332032 -0.01562,2.921875 -2.40625,5.265625 -5.328124,5.25 -2.902344,-0.01563 -5.257813,-2.371094 -5.257813,-5.28125 0,-2.929688 2.371094,-5.308594 5.300781,-5.300782"
         id="path1982" />
      <path
         style="fill:#211e1e;fill-opacity:1;fill-rule:nonzero;stroke:none"
         d="m 70.167969,18.703125 c 2.910156,-0.0078 5.265625,2.34375 5.273437,5.246094 0,2.875 -2.328125,5.210937 -5.210937,5.234375 -2.90625,0.01953 -5.292969,-2.308594 -5.308594,-5.214844 -0.01172,-2.902344 2.34375,-5.257812 5.246094,-5.265625"
         id="path1984" />
      <path
         style="fill:#ffffff;fill-opacity:1;fill-rule:nonzero;stroke:none"
         d="M 7.667969,8.855469 H 8.898438 L 7.15625,12.941406 H 5.71875 L 7.667969,8.855469"
         id="path1986" />
      <path
         style="fill:#ffffff;fill-opacity:1;fill-rule:nonzero;stroke:none"
         d="m 10.074219,8.855469 h 4.261719 v 4.085937 H 8.316406 l 1.757813,-4.085937"
         id="path1988" />
      <path
         style="fill:#ffffff;fill-opacity:1;fill-rule:nonzero;stroke:none"
         d="M 62.238281,19.90625 H 64.1875 l -0.402344,0.714844 h -1.109375 l -0.4375,-0.714844"
         id="path1990" />
      <path
         style="fill:#ffffff;fill-opacity:1;fill-rule:nonzero;stroke:none"
         d="m 10.273438,21.980469 c 1.058593,0.01563 1.871093,0.925781 1.824218,1.984375 -0.03516,0.980468 -0.835937,1.746094 -1.808594,1.769531 -1.027343,0.02734 -1.90625,-0.746094 -1.964843,-1.761719 -0.058594,-1.105468 0.84375,-2.011718 1.949219,-1.992187"
         id="path1992" />
      <path
         style="fill:#ffffff;fill-opacity:1;fill-rule:nonzero;stroke:none"
         d="m 28.445312,22.015625 c 1.070313,-0.0039 1.90625,0.902344 1.863282,1.972656 -0.03516,1 -0.867188,1.796875 -1.875,1.78125 -0.96875,-0.0078 -1.757813,-0.773437 -1.804688,-1.738281 -0.05859,-1.070312 0.75,-2 1.816406,-2.015625"
         id="path1994" />
      <path
         style="fill:#ffffff;fill-opacity:1;fill-rule:nonzero;stroke:none"
         d="m 56.289062,22.152344 c 1.054688,-0.03516 1.984376,0.746094 2,1.804687 0.0039,1.082031 -0.910156,1.929688 -1.992187,1.894531 -1.003906,-0.03906 -1.789063,-0.863281 -1.777344,-1.863281 0.01563,-0.980469 0.789063,-1.800781 1.769531,-1.835937"
         id="path1996" />
      <path
         style="fill:#ffffff;fill-opacity:1;fill-rule:nonzero;stroke:none"
         d="m 70.207031,22.074219 c 1.015625,0.01563 1.8125,0.859375 1.8125,1.875 0,1 -0.789062,1.8125 -1.785156,1.84375 -1.054687,0.03516 -1.933594,-0.796875 -1.949219,-1.84375 -0.01172,-1.058594 0.867188,-1.898438 1.921875,-1.875"
         id="path1998" />
    </g>
  </g>
</svg>
