<?xml version="1.0" encoding="UTF-8" standalone="no"?>
<svg
   width="78.179924pt"
   height="35.776272pt"
   viewBox="0 0 78.179925 35.776272"
   version="1.1"
   id="svg3513"
   xmlns="http://www.w3.org/2000/svg"
   xmlns:svg="http://www.w3.org/2000/svg">
  <defs
     id="defs3517" />
  <g
     id="layer2"
     style="display:inline"
     transform="scale(0.74036996,1)" />
  <g
     id="layer1">
    <rect
       style="display:inline;fill:#ffffff;stroke:none;stroke-width:0;stroke-linecap:square;stroke-miterlimit:4;stroke-dasharray:none;stroke-opacity:1"
       id="rect3621"
       width="78.179924"
       height="35.776272"
       x="0"
       y="8.8817842e-16" />
    <rect
       style="display:inline;fill:none;stroke:#000000;stroke-width:0.188063;stroke-linecap:square;stroke-miterlimit:4;stroke-dasharray:none;stroke-opacity:1"
       id="rect3621-4"
       width="77.000839"
       height="34.468613"
       x="0.63838887"
       y="0.729029" />
  </g>
  <g
     id="layer3"
     style="display:inline">
    <g
       id="surface1"
       transform="translate(3.7427166,3.9294719)"
       style="display:inline">
      <path
         style="fill:#211e1e;fill-opacity:1;fill-rule:nonzero;stroke:none"
         d="M 5.390625,1.070312 61.65625,0.957031 c 0.421875,0 0.859375,0.058594 1.21875,0.230469 0.324219,0.15625 0.597656,0.425781 0.800781,0.710938 l 6.558594,10.066406 c 0.07031,0.125 0.136719,0.273437 0.171875,0.410156 0.06641,0.171875 0.06641,0.878906 0.06641,1.058594 l 0.01953,9.410156 c 0,0.410156 -0.121094,0.855469 -0.4375,1.125 -0.347657,0.289062 -0.851563,0.34375 -1.289063,0.34375 H 58.308594 c 0.0078,-0.199219 0.01563,-0.496094 0,-0.707031 -0.191406,-3.070313 -2.847656,-5.347657 -5.929688,-5.382813 -3.140625,-0.03516 -5.917968,2.230469 -6.128906,5.363282 -0.0078,0.203124 -0.0078,0.496093 -0.0078,0.691406 L 18.617188,24.25 c 0,-0.144531 0,-0.355469 -0.01563,-0.503906 -0.199218,-3.070313 -2.878906,-5.308594 -5.953124,-5.316406 -3.066407,0 -5.671876,2.261718 -5.992188,5.316406 -0.019531,0.148437 -0.035156,0.371094 -0.035156,0.53125 L 1.847656,24.3125 C 1.53125,24.328125 1.222656,24.175781 0.984375,23.960938 0.734375,23.6875 0.59375,23.292969 0.59375,22.925781 l -0.046875,-9.09375 c 0,-0.21875 0.011719,-0.46875 0.042969,-0.679687 0.019531,-0.316406 0.09375,-0.847656 0.179687,-1.128906 l 2.375,-9.734376 C 3.238281,1.863281 3.589844,1.503906 3.980469,1.324219 4.40625,1.113281 4.9375,1.070312 5.390625,1.070312"
         id="path2212" />
      <path
         style="fill:#211e1e;fill-opacity:1;fill-rule:nonzero;stroke:none"
         d="m 12.683594,19.351562 c 2.742187,0 4.960937,2.226563 4.960937,4.96875 0,2.75 -2.222656,4.976563 -4.96875,4.976563 -2.726562,0 -4.953125,-2.203125 -4.96875,-4.941406 -0.011719,-2.761719 2.21875,-5.003907 4.976563,-5.003907"
         id="path2214" />
      <path
         style="fill:#211e1e;fill-opacity:1;fill-rule:nonzero;stroke:none"
         d="m 52.371094,19.273438 c 2.773437,0.02734 4.945312,2.347656 4.910156,5.125 -0.04297,2.714843 -2.253906,4.914062 -4.976562,4.917968 -2.757813,0.0078 -5.019532,-2.195312 -5.046876,-4.945312 -0.04297,-2.835938 2.277344,-5.125 5.113282,-5.097656"
         id="path2216" />
      <path
         style="fill:#ffffff;fill-opacity:1;fill-rule:nonzero;stroke:none"
         d="M 4.347656,3.144531 6.421875,3.132812 4.074219,12.613281 h -2.0625 l 2.335937,-9.46875"
         id="path2218" />
      <path
         style="fill:#ffffff;fill-opacity:1;fill-rule:nonzero;stroke:none"
         d="m 7.945312,3.117188 6.359376,-0.027344 0.0625,9.515625 -8.746094,0.03125 2.324218,-9.519531"
         id="path2220" />
      <path
         style="fill:#ffffff;fill-opacity:1;fill-rule:nonzero;stroke:none"
         d="m 15.679688,3.089844 h 7.121093 l -0.05859,9.523437 h -7.035157 l -0.02734,-9.523437"
         id="path2222" />
      <path
         style="fill:#ffffff;fill-opacity:1;fill-rule:nonzero;stroke:none"
         d="m 24.132812,3.089844 h 7.011719 l 0.01563,9.523437 H 24.132812 V 3.089844"
         id="path2224" />
      <path
         style="fill:#ffffff;fill-opacity:1;fill-rule:nonzero;stroke:none"
         d="m 32.59375,3.089844 7.132812,0.027344 0.09375,9.519531 H 32.636719 L 32.59375,3.089844"
         id="path2226" />
      <path
         style="fill:#ffffff;fill-opacity:1;fill-rule:nonzero;stroke:none"
         d="m 41.117188,3.117188 7.316406,-0.035157 0.09375,9.574219 -7.296875,-0.01953 -0.113281,-9.519531"
         id="path2228" />
      <path
         style="fill:#ffffff;fill-opacity:1;fill-rule:nonzero;stroke:none"
         d="M 49.84375,3.089844 H 57 l 0.06641,9.480468 -7.128906,0.06641 -0.09375,-9.546875"
         id="path2230" />
      <path
         style="fill:#ffffff;fill-opacity:1;fill-rule:nonzero;stroke:none"
         d="m 58.460938,3.089844 h 4.363281 l 5.976562,9.480468 H 58.484375 l -0.02344,-9.480468"
         id="path2232" />
      <path
         style="fill:#ffffff;fill-opacity:1;fill-rule:nonzero;stroke:none"
         d="m 12.675781,22.183594 c 1.167969,0 2.089844,0.972656 2.066407,2.136718 -0.01172,1.117188 -0.921876,2.023438 -2.035157,2.023438 -1.125,0.0078 -2.039062,-0.886719 -2.082031,-2 -0.02734,-1.167969 0.886719,-2.15625 2.050781,-2.160156"
         id="path2234" />
      <path
         style="fill:#ffffff;fill-opacity:1;fill-rule:nonzero;stroke:none"
         d="m 52.347656,22.160156 c 1.195313,0.0078 2.140625,1.015625 2.058594,2.21875 -0.0625,1.066406 -0.984375,1.863282 -2.0625,1.871094 -1.097656,0.0078 -2.046875,-0.792969 -2.125,-1.871094 -0.07813,-1.21875 0.90625,-2.234375 2.128906,-2.21875"
         id="path2236" />
    </g>
  </g>
</svg>
