<?xml version="1.0" encoding="UTF-8" standalone="no"?>
<svg
   width="78.179924pt"
   height="35.776272pt"
   viewBox="0 0 78.179925 35.776272"
   version="1.1"
   id="svg3513"
   xmlns="http://www.w3.org/2000/svg"
   xmlns:svg="http://www.w3.org/2000/svg">
  <defs
     id="defs3517" />
  <g
     id="layer2"
     style="display:inline"
     transform="scale(0.74036996,1)" />
  <g
     id="layer1">
    <rect
       style="display:inline;fill:#ffffff;stroke:none;stroke-width:0;stroke-linecap:square;stroke-miterlimit:4;stroke-dasharray:none;stroke-opacity:1"
       id="rect3621"
       width="78.179924"
       height="35.776272"
       x="0"
       y="8.8817842e-16" />
    <rect
       style="display:inline;fill:none;stroke:#000000;stroke-width:0.188063;stroke-linecap:square;stroke-miterlimit:4;stroke-dasharray:none;stroke-opacity:1"
       id="rect3621-4"
       width="77.000839"
       height="34.468613"
       x="0.63838887"
       y="0.729029" />
  </g>
  <g
     id="layer3"
     style="display:inline">
    <g
       id="surface1-1"
       transform="translate(2.3190253,3.329401)"
       style="display:inline">
      <path
         style="fill:#211e1e;fill-opacity:1;fill-rule:nonzero;stroke:none"
         d="M 0.9375,18.027344 H 14.035156 L 14.011719,1.007812 72.042969,1 72.101562,19.761719 H 55.613281 c -0.0078,-0.07813 -0.0078,-0.171875 -0.01563,-0.242188 C 55.160156,13.101562 49.585938,8.378906 43.15625,8.359375 36.714844,8.34375 31.089844,13.050781 30.613281,19.488281 c -0.0039,0.08203 -0.0039,0.1875 -0.01172,0.273438 H 0.9375 v -1.734375"
         id="path2457" />
      <path
         style="fill:#211e1e;fill-opacity:1;fill-rule:nonzero;stroke:none"
         d="M 33.539062,20.90625 H 31.78125 c 0,-0.417969 0,-1.027344 0.04297,-1.4375 0.53125,-5.734375 5.507812,-9.9375 11.253906,-9.9375 5.730469,0 10.5625,4.285156 11.296875,9.980469 0.05078,0.402343 0.07813,0.984375 0.09375,1.394531 h -1.792969 c -0.01953,-0.410156 -0.05859,-0.992188 -0.121093,-1.386719 -0.734376,-4.675781 -4.714844,-8.171875 -9.449219,-8.1875 -4.757813,-0.01563 -8.875,3.414063 -9.488281,8.136719 -0.05078,0.410156 -0.07031,1.019531 -0.07813,1.4375"
         id="path2459" />
      <path
         style="fill:#211e1e;fill-opacity:1;fill-rule:nonzero;stroke:none"
         d="m 43.097656,12.535156 c 4.617188,0 8.375,3.730469 8.40625,8.34375 0.01953,4.660156 -3.738281,8.464844 -8.40625,8.464844 -4.648437,0 -8.398437,-3.800781 -8.378906,-8.457031 0.02344,-4.617188 3.765625,-8.351563 8.378906,-8.351563"
         id="path2461" />
      <path
         style="fill:#ffffff;fill-opacity:1;fill-rule:nonzero;stroke:none"
         d="m 43.085938,18.128906 c 1.539062,0 2.800781,1.238282 2.816406,2.777344 0.01172,1.554688 -1.242188,2.824219 -2.804688,2.832031 C 41.53125,23.75 40.25,22.476562 40.257812,20.90625 c 0.01172,-1.546875 1.277344,-2.777344 2.828126,-2.777344"
         id="path2463" />
    </g>
  </g>
</svg>
