<?xml version="1.0" encoding="UTF-8"?>
<svg xmlns="http://www.w3.org/2000/svg" xmlns:xlink="http://www.w3.org/1999/xlink" width="55pt" height="30pt" viewBox="0 0 55 30" version="1.1">
<g id="surface1">
<path style=" stroke:none;fill-rule:nonzero;fill:rgb(13.729858%,12.159729%,12.548828%);fill-opacity:1;" d="M 10.667969 21.957031 C 12.660156 21.964844 14.25 23.613281 14.242188 25.605469 C 14.242188 27.570312 12.667969 29.179688 10.703125 29.203125 C 8.695312 29.230469 7.046875 27.621094 7.027344 25.621094 C 7.003906 23.59375 8.644531 21.945312 10.667969 21.957031 "/>
<path style=" stroke:none;fill-rule:nonzero;fill:rgb(13.729858%,12.159729%,12.548828%);fill-opacity:1;" d="M 42.171875 21.9375 C 44.1875 21.921875 45.847656 23.519531 45.863281 25.527344 C 45.878906 27.554688 44.222656 29.203125 42.195312 29.195312 C 40.179688 29.1875 38.554688 27.535156 38.578125 25.519531 C 38.597656 23.542969 40.203125 21.949219 42.171875 21.9375 "/>
<path style=" stroke:none;fill-rule:nonzero;fill:rgb(13.729858%,12.159729%,12.548828%);fill-opacity:1;" d="M 0.0703125 21.875 L 0.925781 21.875 L 0.925781 16.566406 C 0.925781 16.523438 0.941406 16.171875 0.941406 16.136719 C 0.949219 15.949219 0.957031 15.679688 0.992188 15.496094 C 1.019531 15.308594 1.078125 15.097656 1.136719 14.917969 C 1.195312 14.761719 1.257812 14.574219 1.316406 14.414062 L 1.480469 14 L 3.460938 8.011719 L 14.609375 8.011719 L 14.609375 21.3125 L 15.769531 21.3125 L 15.769531 7.25 L 3.460938 7.25 L 3.460938 3.171875 C 3.460938 3.0625 3.460938 2.828125 3.46875 2.726562 C 3.496094 2.46875 3.566406 2.222656 3.683594 1.992188 C 3.777344 1.820312 3.890625 1.660156 4.019531 1.511719 C 4.179688 1.34375 4.359375 1.179688 4.566406 1.078125 C 4.738281 0.984375 4.949219 0.933594 5.144531 0.90625 C 5.25 0.882812 5.445312 0.855469 5.5625 0.855469 L 50.953125 0.855469 C 51.101562 0.855469 51.277344 0.863281 51.425781 0.871094 C 51.699219 0.898438 51.96875 0.957031 52.21875 1.058594 C 52.519531 1.179688 52.785156 1.367188 53.03125 1.582031 C 53.238281 1.769531 53.425781 1.984375 53.59375 2.214844 C 53.707031 2.378906 53.808594 2.554688 53.894531 2.738281 C 53.980469 2.933594 54.046875 3.152344 54.066406 3.367188 C 54.082031 3.480469 54.089844 3.597656 54.089844 3.710938 L 54.089844 21.875 L 54.96875 21.875 L 54.96875 24.386719 L 46.722656 24.386719 C 46.703125 24.304688 46.664062 24.199219 46.636719 24.121094 C 46.535156 23.832031 46.414062 23.539062 46.261719 23.269531 C 45.851562 22.550781 45.234375 21.96875 44.515625 21.550781 C 43.800781 21.140625 42.996094 20.898438 42.167969 20.910156 C 41.386719 20.917969 40.621094 21.164062 39.9375 21.558594 C 39.207031 21.984375 38.574219 22.582031 38.175781 23.328125 C 38.046875 23.558594 37.941406 23.824219 37.851562 24.074219 C 37.816406 24.167969 37.773438 24.292969 37.746094 24.386719 L 15.191406 24.386719 C 15.164062 24.300781 15.121094 24.191406 15.09375 24.105469 C 14.984375 23.816406 14.847656 23.507812 14.691406 23.242188 C 14.285156 22.53125 13.675781 21.953125 12.96875 21.550781 C 12.273438 21.148438 11.480469 20.917969 10.683594 20.917969 C 9.78125 20.917969 8.90625 21.191406 8.148438 21.679688 C 7.523438 22.082031 7 22.625 6.609375 23.261719 C 6.460938 23.515625 6.332031 23.789062 6.230469 24.070312 C 6.199219 24.164062 6.164062 24.292969 6.136719 24.386719 L 0.0703125 24.386719 L 0.0703125 21.875 "/>
<path style=" stroke:none;fill-rule:nonzero;fill:rgb(100%,100%,100%);fill-opacity:1;" d="M 10.726562 24.359375 C 11.367188 24.386719 11.835938 24.941406 11.84375 25.574219 C 11.847656 26.207031 11.367188 26.746094 10.734375 26.78125 C 10.035156 26.820312 9.4375 26.28125 9.425781 25.582031 C 9.402344 24.875 10.023438 24.332031 10.726562 24.359375 "/>
<path style=" stroke:none;fill-rule:nonzero;fill:rgb(100%,100%,100%);fill-opacity:1;" d="M 42.191406 24.367188 C 42.875 24.359375 43.464844 24.875 43.46875 25.566406 C 43.476562 26.238281 42.925781 26.777344 42.246094 26.792969 C 41.550781 26.804688 40.953125 26.273438 40.953125 25.566406 C 40.953125 24.898438 41.515625 24.375 42.191406 24.367188 "/>
<path style=" stroke:none;fill-rule:nonzero;fill:rgb(100%,100%,100%);fill-opacity:1;" d="M 2.09375 15.378906 L 4.367188 9.085938 L 13.058594 9.085938 L 13.058594 15.378906 L 2.09375 15.378906 "/>
<path style=" stroke:none;fill-rule:nonzero;fill:rgb(100%,100%,100%);fill-opacity:1;" d="M 27.390625 23.480469 L 27.390625 7.25 L 35.367188 7.25 L 35.367188 23.480469 L 27.390625 23.480469 "/>
<path style=" stroke:none;fill-rule:nonzero;fill:rgb(100%,100%,100%);fill-opacity:1;" d="M 38.382812 15.378906 L 38.382812 7.242188 L 50.945312 7.242188 L 50.945312 15.378906 L 38.382812 15.378906 "/>
</g>
</svg>
