<?xml version="1.0" encoding="UTF-8" standalone="no"?>
<svg
   width="95.00042pt"
   height="70pt"
   viewBox="0 0 95.00042 70"
   version="1.1"
   id="svg837"
   sodipodi:docname="531-3-b.svg"
   inkscape:version="1.1.2 (b8e25be8, 2022-02-05)"
   xmlns:inkscape="http://www.inkscape.org/namespaces/inkscape"
   xmlns:sodipodi="http://sodipodi.sourceforge.net/DTD/sodipodi-0.dtd"
   xmlns="http://www.w3.org/2000/svg"
   xmlns:svg="http://www.w3.org/2000/svg">
  <sodipodi:namedview
     id="namedview842"
     pagecolor="#ffffff"
     bordercolor="#666666"
     borderopacity="1.0"
     inkscape:pageshadow="2"
     inkscape:pageopacity="0.0"
     inkscape:pagecheckerboard="0"
     inkscape:document-units="pt"
     showgrid="false"
     inkscape:zoom="2.8524936"
     inkscape:cx="63.102683"
     inkscape:cy="61.525116"
     inkscape:window-width="1312"
     inkscape:window-height="969"
     inkscape:window-x="0"
     inkscape:window-y="25"
     inkscape:window-maximized="0"
     inkscape:current-layer="svg837" />
  <defs
     id="defs841" />
  <g
     id="g1001">
    <rect
       style="fill:#ffffff;stroke:#000000;stroke-width:0.664602;stroke-linecap:square;stroke-miterlimit:4;stroke-dasharray:none;stroke-opacity:1"
       id="rect941"
       width="94.335815"
       height="69.335396"
       x="0.33230099"
       y="0.33230099" />
    <g
       id="surface1"
       transform="matrix(0.71384693,0,0,0.71384693,20.92471,22.420313)">
      <path
         style="fill:#211e1e;fill-opacity:1;fill-rule:nonzero;stroke:none"
         d="m 33.613281,12.800781 c 0.714844,-0.1875 1.464844,-0.332031 2.226563,-0.332031 4.65625,0 8.4375,3.78125 8.4375,8.4375 0,4.660156 -3.78125,8.4375 -8.4375,8.4375 -4.121094,0 -7.558594,-2.957031 -8.296875,-6.867188 l -1.832031,-0.0078 c -0.449219,0 -1.003907,0 -1.441407,-0.179688 -0.46875,-0.152343 -0.863281,-0.488281 -1.210937,-0.828124 l -10.375,-10.382813 -0.582032,1.851563 c 3.203126,1.210937 5.558594,4.25 5.558594,7.875 0,4.660156 -3.789062,8.457031 -8.445312,8.457031 -4.667969,0 -8.453125,-3.796875 -8.453125,-8.457031 0,-4.65625 3.785156,-8.445313 8.453125,-8.445313 0.460937,0 0.878906,0.05859 1.324218,0.132813 l 2.542969,-8.921876 c 0.171875,-0.597656 0.410157,-1.324218 0.832031,-1.75 C 14.40625,1.316406 15.21875,1 16.167969,1 h 3.113281 v 1.648438 h -2.492188 c -0.492187,0 -1.109374,0 -1.441406,0.273437 -0.332031,0.296875 -0.4375,0.671875 -0.566406,1.117187 L 14.226562,5.84375 H 29.136719 L 29.660156,4.3125 27.300781,3.742188 v -1.09375 h 5.296875 V 4.3125 h -1.273437 l -0.554688,1.53125 2.84375,6.957031"
         id="path824" />
      <path
         style="fill:#ffffff;fill-opacity:1;fill-rule:nonzero;stroke:none"
         d="m 34.242188,14.46875 c 0.496093,-0.121094 1.023437,-0.183594 1.5625,-0.183594 3.648437,0 6.613281,2.964844 6.613281,6.613282 0,3.652343 -2.964844,6.621093 -6.613281,6.621093 -3.105469,0 -5.71875,-2.148437 -6.429688,-5.035156 l 5.328125,-0.0078 c 0.644531,0 1.632813,0.04297 2.035156,-0.589843 0.332031,-0.539063 -0.08594,-1.375 -0.222656,-1.757813 L 34.242188,14.46875"
         id="path826" />
      <path
         style="fill:#ffffff;fill-opacity:1;fill-rule:nonzero;stroke:none"
         d="M 28.601562,7.429688 24.363281,20.410156 13.273438,9.214844 13.785156,7.429688 h 14.816406"
         id="path828" />
      <path
         style="fill:#ffffff;fill-opacity:1;fill-rule:nonzero;stroke:none"
         d="m 32.050781,13.339844 c -2.71875,1.375 -4.597656,4.191406 -4.648437,7.4375 h -1.441406 l 4.046874,-12.273438 2.042969,4.835938"
         id="path830" />
      <path
         style="fill:#ffffff;fill-opacity:1;fill-rule:nonzero;stroke:none"
         d="m 11.632812,14.664062 c 2.441407,0.972657 4.167969,3.355469 4.167969,6.140626 0,3.652343 -2.964843,6.613281 -6.617187,6.613281 -3.648438,0 -6.613282,-2.960938 -6.613282,-6.613281 0,-3.648438 2.964844,-6.605469 6.613282,-6.605469 0.273437,0 0.554687,0.01172 0.824218,0.04687 L 8.21875,20.582031 C 8.125,20.894531 8.0625,21.492188 8.746094,21.6875 9.421875,21.878906 9.761719,21.40625 9.863281,21.058594 l 1.769531,-6.394532"
         id="path832" />
      <path
         style="fill:#ffffff;fill-opacity:1;fill-rule:nonzero;stroke:none"
         d="m 32.683594,15.0625 2.25,5.714844 h -5.71875 c 0,-2.519532 1.390625,-4.59375 3.46875,-5.714844"
         id="path834" />
    </g>
    <g
       aria-label="exceptés"
       id="text1237"
       style="font-style:italic;font-size:12px;line-height:1.25;-inkscape-font-specification:'sans-serif Italic';stroke-width:0.75">
      <path
         d="m 28.53927,11.30165 1.089844,0.134766 q -0.257812,0.955078 -0.955078,1.482422 -0.697266,0.527343 -1.78125,0.527343 -1.365234,0 -2.167969,-0.83789 -0.796875,-0.84375 -0.796875,-2.361328 0,-1.570313 0.808594,-2.4375005 0.808594,-0.8671875 2.097656,-0.8671875 1.248047,0 2.039063,0.8496094 0.791015,0.8496094 0.791015,2.3906246 0,0.09375 -0.0059,0.28125 h -4.640625 q 0.05859,1.025391 0.580078,1.570313 0.521485,0.544922 1.300781,0.544922 0.580079,0 0.990235,-0.304688 0.410156,-0.304687 0.65039,-0.972656 z M 25.07638,9.5965719 h 3.474609 q -0.07031,-0.7851562 -0.398437,-1.1777344 -0.503907,-0.609375 -1.306641,-0.609375 -0.726562,0 -1.224609,0.4863282 -0.492188,0.4863281 -0.544922,1.3007812 z"
         style="font-style:normal;font-family:Arial;-inkscape-font-specification:Arial"
         id="path924" />
      <path
         d="M 30.256067,13.305556 32.529505,10.071181 30.425989,7.0829 h 1.31836 l 0.955078,1.4589844 Q 32.968958,8.9579 33.13302,9.23915 33.390833,8.8524313 33.60763,8.5536032 L 34.656458,7.0829 h 1.259766 l -2.150391,2.929688 2.314453,3.292968 h -1.294922 l -1.277344,-1.933593 -0.339843,-0.521485 -1.634766,2.455078 z"
         style="font-style:normal;font-family:Arial;-inkscape-font-specification:Arial"
         id="path926" />
      <path
         d="m 41.019739,11.026259 1.03711,0.134766 q -0.169922,1.072266 -0.873047,1.681641 -0.697266,0.603515 -1.716797,0.603515 -1.277344,0 -2.056641,-0.832031 -0.773437,-0.837891 -0.773437,-2.396484 0,-1.0078128 0.333984,-1.7636722 0.333984,-0.7558594 1.013672,-1.1308594 0.685547,-0.3808594 1.488281,-0.3808594 1.013672,0 1.658203,0.515625 0.644532,0.5097657 0.826172,1.453125 l -1.02539,0.1582032 Q 40.785364,8.442275 40.410364,8.1258688 40.041224,7.8094625 39.51388,7.8094625 q -0.796875,0 -1.294922,0.5742188 -0.498047,0.5683594 -0.498047,1.8046877 0,1.253906 0.480469,1.822265 0.480469,0.56836 1.253906,0.56836 0.621094,0 1.037109,-0.38086 0.416016,-0.380859 0.527344,-1.171875 z"
         style="font-style:normal;font-family:Arial;-inkscape-font-specification:Arial"
         id="path928" />
      <path
         d="m 47.218958,11.30165 1.089844,0.134766 q -0.257813,0.955078 -0.955078,1.482422 -0.697266,0.527343 -1.78125,0.527343 -1.365235,0 -2.167969,-0.83789 -0.796875,-0.84375 -0.796875,-2.361328 0,-1.570313 0.808594,-2.4375005 0.808593,-0.8671875 2.097656,-0.8671875 1.248047,0 2.039062,0.8496094 0.791016,0.8496094 0.791016,2.3906246 0,0.09375 -0.0059,0.28125 h -4.640625 q 0.05859,1.025391 0.580078,1.570313 0.521484,0.544922 1.300781,0.544922 0.580078,0 0.990234,-0.304688 0.410157,-0.304687 0.650391,-0.972656 z M 43.756067,9.5965719 h 3.47461 q -0.07031,-0.7851562 -0.398438,-1.1777344 -0.503906,-0.609375 -1.30664,-0.609375 -0.726563,0 -1.22461,0.4863282 -0.492187,0.4863281 -0.544922,1.3007812 z"
         style="font-style:normal;font-family:Arial;-inkscape-font-specification:Arial"
         id="path930" />
      <path
         d="M 49.63888,15.690322 V 7.0829 h 0.960937 v 0.8085938 q 0.339844,-0.4746094 0.767578,-0.7089844 0.427735,-0.2402344 1.03711,-0.2402344 0.796875,0 1.40625,0.4101563 0.609375,0.4101562 0.919922,1.1601562 0.310547,0.7441407 0.310547,1.6347655 0,0.955078 -0.345704,1.722656 -0.339843,0.761719 -0.996093,1.171875 -0.650391,0.404297 -1.371094,0.404297 -0.527344,0 -0.949219,-0.222656 -0.416015,-0.222656 -0.685547,-0.5625 v 3.029297 z m 0.955078,-5.460938 q 0,1.201172 0.486328,1.775391 0.486328,0.574219 1.177734,0.574219 0.703125,0 1.201172,-0.591797 0.503907,-0.597656 0.503907,-1.845703 0,-1.1894533 -0.492188,-1.7812502 -0.486328,-0.5917969 -1.166016,-0.5917969 -0.673828,0 -1.195312,0.6328125 -0.515625,0.6269531 -0.515625,1.8281246 z"
         style="font-style:normal;font-family:Arial;-inkscape-font-specification:Arial"
         id="path932" />
      <path
         d="m 58.621302,12.362197 0.152343,0.931641 q -0.445312,0.09375 -0.796875,0.09375 -0.574218,0 -0.890625,-0.181641 -0.316406,-0.181641 -0.445312,-0.474609 -0.128906,-0.298829 -0.128906,-1.248047 V 7.9032125 H 55.738489 V 7.0829 h 0.773438 V 5.5418844 L 57.560755,4.9090719 V 7.0829 h 1.060547 v 0.8203125 h -1.060547 v 3.6386715 q 0,0.451172 0.05273,0.580079 0.05859,0.128906 0.181641,0.205078 0.128906,0.07617 0.363281,0.07617 0.175781,0 0.462891,-0.04102 z"
         style="font-style:normal;font-family:Arial;-inkscape-font-specification:Arial"
         id="path934" />
      <path
         d="m 63.906458,11.30165 1.089844,0.134766 q -0.257813,0.955078 -0.955078,1.482422 -0.697266,0.527343 -1.78125,0.527343 -1.365235,0 -2.167969,-0.83789 -0.796875,-0.84375 -0.796875,-2.361328 0,-1.570313 0.808594,-2.4375005 0.808593,-0.8671875 2.097656,-0.8671875 1.248047,0 2.039062,0.8496094 0.791016,0.8496094 0.791016,2.3906246 0,0.09375 -0.0059,0.28125 h -4.640625 q 0.05859,1.025391 0.580078,1.570313 0.521484,0.544922 1.300781,0.544922 0.580078,0 0.990234,-0.304688 0.410157,-0.304687 0.650391,-0.972656 z M 60.443567,9.5965719 h 3.47461 q -0.07031,-0.7851562 -0.398438,-1.1777344 -0.503906,-0.609375 -1.30664,-0.609375 -0.726563,0 -1.22461,0.4863282 -0.492187,0.4863281 -0.544922,1.3007812 z m 1.136719,-3.2871094 0.779297,-1.640625 h 1.382812 l -1.289062,1.640625 z"
         style="font-style:normal;font-family:Arial;-inkscape-font-specification:Arial"
         id="path936" />
      <path
         d="m 65.904505,11.448134 1.042969,-0.164062 q 0.08789,0.626953 0.486328,0.960937 0.404297,0.333985 1.125,0.333985 0.726562,0 1.078125,-0.292969 0.351562,-0.298828 0.351562,-0.697266 0,-0.357421 -0.310547,-0.5625 Q 69.461145,10.885634 68.599817,10.668838 67.439661,10.375869 66.988489,10.164931 66.543177,9.9481344 66.308802,9.5731344 66.080286,9.192275 66.080286,8.7352438 q 0,-0.4160156 0.1875,-0.7675781 0.193359,-0.3574219 0.521484,-0.5917969 0.246094,-0.1816406 0.667969,-0.3046875 0.427735,-0.1289063 0.914063,-0.1289063 0.732422,0 1.283203,0.2109375 0.55664,0.2109375 0.820312,0.5742188 0.263672,0.3574219 0.363282,0.9609375 l -1.03125,0.140625 q -0.07031,-0.4804688 -0.410157,-0.75 -0.333984,-0.2695313 -0.949218,-0.2695313 -0.726563,0 -1.03711,0.2402344 -0.310547,0.2402344 -0.310547,0.5625 0,0.2050781 0.128907,0.3691406 0.128906,0.1699219 0.404296,0.28125 0.158204,0.058594 0.931641,0.2695313 1.119141,0.2988281 1.558594,0.4921872 0.445312,0.1875 0.697265,0.550782 0.251954,0.363281 0.251954,0.902343 0,0.527344 -0.310547,0.996094 -0.304688,0.462891 -0.884766,0.720703 -0.580078,0.251953 -1.3125,0.251953 -1.212891,0 -1.851562,-0.503906 -0.632813,-0.503906 -0.808594,-1.494141 z"
         style="font-style:normal;font-family:Arial;-inkscape-font-specification:Arial"
         id="path938" />
    </g>
    <g
       aria-label="Taxis"
       id="text1237-6"
       style="font-style:italic;font-size:10px;line-height:1.25;-inkscape-font-specification:'sans-serif Italic';stroke-width:0.75">
      <path
         d="M 41.421108,59.112553 V 52.799076 H 39.06271 V 51.95435 h 5.673828 v 0.844726 h -2.368164 v 6.313477 z"
         style="font-style:normal;font-family:Arial;-inkscape-font-specification:Arial"
         id="path946" />
      <path
         d="m 47.871304,58.472904 q -0.488282,0.415039 -0.942383,0.585938 -0.449219,0.170898 -0.966797,0.170898 -0.854492,0 -1.313477,-0.415039 -0.458984,-0.419922 -0.458984,-1.069336 0,-0.380859 0.170898,-0.693359 0.175782,-0.317383 0.454102,-0.507813 0.283203,-0.190429 0.634766,-0.288086 0.258789,-0.06836 0.78125,-0.131836 1.064453,-0.126953 1.567382,-0.302734 0.0049,-0.180664 0.0049,-0.229492 0,-0.53711 -0.249023,-0.756836 -0.336914,-0.297852 -1.000977,-0.297852 -0.620117,0 -0.917969,0.219727 -0.292968,0.214844 -0.43457,0.766601 L 44.34103,55.406498 q 0.117188,-0.551758 0.385742,-0.888672 0.268555,-0.341797 0.776367,-0.522461 0.507813,-0.185547 1.176758,-0.185547 0.664063,0 1.079102,0.15625 0.415039,0.15625 0.610351,0.395508 0.195313,0.234375 0.273438,0.595703 0.04394,0.22461 0.04394,0.810547 v 1.171875 q 0,1.225586 0.05371,1.552734 0.05859,0.322266 0.22461,0.620118 h -0.917969 q -0.136719,-0.273438 -0.175781,-0.639649 z m -0.07324,-1.96289 q -0.478515,0.195312 -1.435547,0.332031 -0.541992,0.07813 -0.766601,0.175781 -0.224609,0.09766 -0.34668,0.288086 -0.12207,0.185547 -0.12207,0.415039 0,0.351563 0.263672,0.585938 0.268554,0.234375 0.78125,0.234375 0.507812,0 0.90332,-0.219727 0.395508,-0.224609 0.581055,-0.610352 0.141601,-0.297851 0.141601,-0.878906 z"
         style="font-style:normal;font-family:Arial;-inkscape-font-specification:Arial"
         id="path948" />
      <path
         d="m 49.467983,59.112553 1.894531,-2.695313 -1.752929,-2.490234 h 1.098633 l 0.795898,1.21582 q 0.224609,0.34668 0.361328,0.581055 0.214844,-0.322266 0.395508,-0.571289 l 0.874023,-1.225586 h 1.049805 l -1.791992,2.441406 1.928711,2.744141 h -1.079102 l -1.064453,-1.611328 -0.283203,-0.434571 -1.362305,2.045899 z"
         style="font-style:normal;font-family:Arial;-inkscape-font-specification:Arial"
         id="path950" />
      <path
         d="M 55.058804,52.965092 V 51.95435 h 0.878906 v 1.010742 z m 0,6.147461 v -5.185547 h 0.878906 v 5.185547 z"
         style="font-style:normal;font-family:Arial;-inkscape-font-specification:Arial"
         id="path952" />
      <path
         d="m 56.928921,57.564701 0.86914,-0.136719 q 0.07324,0.522461 0.405274,0.800782 0.336914,0.27832 0.9375,0.27832 0.605469,0 0.898437,-0.244141 0.292969,-0.249023 0.292969,-0.581054 0,-0.297852 -0.258789,-0.46875 -0.180664,-0.117188 -0.898438,-0.297852 -0.966796,-0.244141 -1.342773,-0.419922 -0.371094,-0.180664 -0.566406,-0.493164 -0.19043,-0.317383 -0.19043,-0.698242 0,-0.34668 0.15625,-0.639649 0.161133,-0.297851 0.43457,-0.493164 0.205079,-0.151367 0.556641,-0.253906 0.356445,-0.107422 0.761719,-0.107422 0.610351,0 1.069336,0.175782 0.463867,0.175781 0.683593,0.478515 0.219727,0.297852 0.302735,0.800781 l -0.859375,0.117188 q -0.05859,-0.400391 -0.341797,-0.625 -0.27832,-0.224609 -0.791016,-0.224609 -0.605468,0 -0.864257,0.200195 -0.25879,0.200195 -0.25879,0.46875 0,0.170898 0.107422,0.307617 0.107422,0.141602 0.336914,0.234375 0.131836,0.04883 0.776368,0.224609 0.932617,0.249024 1.298828,0.410157 0.371093,0.15625 0.581054,0.458984 0.209961,0.302734 0.209961,0.751953 0,0.439453 -0.258789,0.830078 -0.253906,0.385742 -0.737304,0.600586 -0.483399,0.209961 -1.09375,0.209961 -1.010743,0 -1.542969,-0.419922 -0.527344,-0.419922 -0.673828,-1.245117 z"
         style="font-style:normal;font-family:Arial;-inkscape-font-specification:Arial"
         id="path954" />
    </g>
    <g
       aria-label="et"
       id="text1237-6-8"
       style="font-style:italic;font-size:10px;line-height:1.25;-inkscape-font-specification:'sans-serif Italic';stroke-width:0.75">
      <path
         d="m 61.753666,36.904762 0.908203,0.112305 q -0.214844,0.795898 -0.795898,1.235352 -0.581055,0.439453 -1.484375,0.439453 -1.137696,0 -1.806641,-0.698243 -0.664063,-0.703125 -0.664063,-1.967773 0,-1.308594 0.673829,-2.03125 0.673828,-0.722656 1.748046,-0.722656 1.04004,0 1.699219,0.708008 0.65918,0.708007 0.65918,1.992187 0,0.07813 -0.0049,0.234375 h -3.867187 q 0.04883,0.854492 0.483398,1.308594 0.43457,0.454101 1.083984,0.454101 0.483399,0 0.825196,-0.253906 0.341797,-0.253906 0.541992,-0.810547 z m -2.885742,-1.420898 h 2.895508 q -0.05859,-0.654297 -0.332032,-0.981445 -0.419922,-0.507813 -1.088867,-0.507813 -0.605469,0 -1.020508,0.405273 -0.410156,0.405274 -0.454101,1.083985 z"
         style="font-style:normal;font-family:Arial;-inkscape-font-specification:Arial"
         id="path941" />
      <path
         d="m 65.689213,37.788551 0.126953,0.776368 q -0.371094,0.07813 -0.664063,0.07813 -0.478515,0 -0.742187,-0.151368 Q 64.146244,38.340309 64.038822,38.096169 63.9314,37.847145 63.9314,37.056129 V 34.072731 H 63.286869 V 33.389137 H 63.9314 v -1.284179 l 0.874024,-0.527344 v 1.811523 h 0.883789 v 0.683594 h -0.883789 v 3.032227 q 0,0.375976 0.04394,0.483398 0.04883,0.107422 0.151367,0.170898 0.107422,0.06348 0.302735,0.06348 0.146484,0 0.385742,-0.03418 z"
         style="font-style:normal;font-family:Arial;-inkscape-font-specification:Arial"
         id="path943" />
    </g>
  </g>
  <text
     xml:space="preserve"
     style="font-style:italic;font-size:14px;line-height:1.25;font-family:sans-serif;-inkscape-font-specification:'sans-serif Italic';stroke-width:0.75"
     x="10.071049"
     y="55.577263"
     id="text10099"><tspan
       id="tspan10097"
       style="stroke-width:0.75"
       x="10.071049"
       y="55.577263" /></text>
</svg>
