<?xml version="1.0" encoding="UTF-8" standalone="no"?>
<svg
   width="95.000008pt"
   height="50pt"
   viewBox="0 0 95.000008 50"
   version="1.1"
   id="svg837"
   sodipodi:docname="531-2-b.svg"
   inkscape:version="1.1.2 (b8e25be8, 2022-02-05)"
   xmlns:inkscape="http://www.inkscape.org/namespaces/inkscape"
   xmlns:sodipodi="http://sodipodi.sourceforge.net/DTD/sodipodi-0.dtd"
   xmlns="http://www.w3.org/2000/svg"
   xmlns:svg="http://www.w3.org/2000/svg">
  <sodipodi:namedview
     id="namedview836"
     pagecolor="#ffffff"
     bordercolor="#666666"
     borderopacity="1.0"
     inkscape:pageshadow="2"
     inkscape:pageopacity="0.0"
     inkscape:pagecheckerboard="0"
     inkscape:document-units="pt"
     showgrid="false"
     inkscape:zoom="3.5143927"
     inkscape:cx="60.892454"
     inkscape:cy="35.710294"
     inkscape:window-width="1312"
     inkscape:window-height="969"
     inkscape:window-x="0"
     inkscape:window-y="25"
     inkscape:window-maximized="0"
     inkscape:current-layer="svg837" />
  <defs
     id="defs841" />
  <g
     id="g970">
    <rect
       style="fill:#ffffff;stroke:#000000;stroke-width:0.561506;stroke-linecap:square;stroke-miterlimit:4;stroke-dasharray:none;stroke-opacity:1"
       id="rect941"
       width="94.438499"
       height="49.438496"
       x="0.28075299"
       y="0.28075299" />
    <g
       id="surface1"
       transform="translate(24.980471,17.96067)">
      <path
         style="fill:#211e1e;fill-opacity:1;fill-rule:nonzero;stroke:none"
         d="m 33.613281,12.800781 c 0.714844,-0.1875 1.464844,-0.332031 2.226563,-0.332031 4.65625,0 8.4375,3.78125 8.4375,8.4375 0,4.660156 -3.78125,8.4375 -8.4375,8.4375 -4.121094,0 -7.558594,-2.957031 -8.296875,-6.867188 l -1.832031,-0.0078 c -0.449219,0 -1.003907,0 -1.441407,-0.179688 -0.46875,-0.152343 -0.863281,-0.488281 -1.210937,-0.828124 l -10.375,-10.382813 -0.582032,1.851563 c 3.203126,1.210937 5.558594,4.25 5.558594,7.875 0,4.660156 -3.789062,8.457031 -8.445312,8.457031 -4.667969,0 -8.453125,-3.796875 -8.453125,-8.457031 0,-4.65625 3.785156,-8.445313 8.453125,-8.445313 0.460937,0 0.878906,0.05859 1.324218,0.132813 l 2.542969,-8.921876 c 0.171875,-0.597656 0.410157,-1.324218 0.832031,-1.75 C 14.40625,1.316406 15.21875,1 16.167969,1 h 3.113281 v 1.648438 h -2.492188 c -0.492187,0 -1.109374,0 -1.441406,0.273437 -0.332031,0.296875 -0.4375,0.671875 -0.566406,1.117187 L 14.226562,5.84375 H 29.136719 L 29.660156,4.3125 27.300781,3.742188 v -1.09375 h 5.296875 V 4.3125 h -1.273437 l -0.554688,1.53125 2.84375,6.957031"
         id="path824" />
      <path
         style="fill:#ffffff;fill-opacity:1;fill-rule:nonzero;stroke:none"
         d="m 34.242188,14.46875 c 0.496093,-0.121094 1.023437,-0.183594 1.5625,-0.183594 3.648437,0 6.613281,2.964844 6.613281,6.613282 0,3.652343 -2.964844,6.621093 -6.613281,6.621093 -3.105469,0 -5.71875,-2.148437 -6.429688,-5.035156 l 5.328125,-0.0078 c 0.644531,0 1.632813,0.04297 2.035156,-0.589843 0.332031,-0.539063 -0.08594,-1.375 -0.222656,-1.757813 L 34.242188,14.46875"
         id="path826" />
      <path
         style="fill:#ffffff;fill-opacity:1;fill-rule:nonzero;stroke:none"
         d="M 28.601562,7.429688 24.363281,20.410156 13.273438,9.214844 13.785156,7.429688 h 14.816406"
         id="path828" />
      <path
         style="fill:#ffffff;fill-opacity:1;fill-rule:nonzero;stroke:none"
         d="m 32.050781,13.339844 c -2.71875,1.375 -4.597656,4.191406 -4.648437,7.4375 h -1.441406 l 4.046874,-12.273438 2.042969,4.835938"
         id="path830" />
      <path
         style="fill:#ffffff;fill-opacity:1;fill-rule:nonzero;stroke:none"
         d="m 11.632812,14.664062 c 2.441407,0.972657 4.167969,3.355469 4.167969,6.140626 0,3.652343 -2.964843,6.613281 -6.617187,6.613281 -3.648438,0 -6.613282,-2.960938 -6.613282,-6.613281 0,-3.648438 2.964844,-6.605469 6.613282,-6.605469 0.273437,0 0.554687,0.01172 0.824218,0.04687 L 8.21875,20.582031 C 8.125,20.894531 8.0625,21.492188 8.746094,21.6875 9.421875,21.878906 9.761719,21.40625 9.863281,21.058594 l 1.769531,-6.394532"
         id="path832" />
      <path
         style="fill:#ffffff;fill-opacity:1;fill-rule:nonzero;stroke:none"
         d="m 32.683594,15.0625 2.25,5.714844 h -5.71875 c 0,-2.519532 1.390625,-4.59375 3.46875,-5.714844"
         id="path834" />
    </g>
    <g
       aria-label="exceptés"
       id="text1237"
       style="font-style:italic;font-size:12px;line-height:1.25;-inkscape-font-specification:'sans-serif Italic';stroke-width:0.75">
      <path
         d="m 28.539066,11.239958 1.089844,0.134765 q -0.257812,0.955079 -0.955078,1.482422 -0.697266,0.527344 -1.78125,0.527344 -1.365234,0 -2.167969,-0.837891 -0.796875,-0.84375 -0.796875,-2.361328 0,-1.5703122 0.808594,-2.4374997 0.808594,-0.8671875 2.097656,-0.8671875 1.248047,0 2.039063,0.8496094 0.791015,0.8496094 0.791015,2.3906248 0,0.09375 -0.0059,0.28125 h -4.640625 q 0.05859,1.025391 0.580078,1.570313 0.521484,0.544922 1.300781,0.544922 0.580078,0 0.990235,-0.304688 0.410156,-0.304687 0.65039,-0.972656 z m -3.46289,-1.7050783 h 3.474609 q -0.07031,-0.7851563 -0.398437,-1.1777344 -0.503907,-0.609375 -1.306641,-0.609375 -0.726563,0 -1.224609,0.4863281 -0.492188,0.4863282 -0.544922,1.3007813 z"
         style="font-style:normal;font-family:Arial;-inkscape-font-specification:Arial"
         id="path918" />
      <path
         d="m 30.255863,13.243864 2.273438,-3.234375 -2.103516,-2.9882812 h 1.318359 l 0.955079,1.4589844 q 0.269531,0.4160156 0.433593,0.6972656 0.257813,-0.3867187 0.47461,-0.6855469 l 1.048828,-1.4707031 h 1.259765 l -2.15039,2.9296875 2.314453,3.2929687 H 34.78516 l -1.277344,-1.933594 -0.339843,-0.521484 -1.634766,2.455078 z"
         style="font-style:normal;font-family:Arial;-inkscape-font-specification:Arial"
         id="path920" />
      <path
         d="m 41.019535,10.964567 1.037109,0.134766 q -0.169921,1.072265 -0.873046,1.68164 -0.697266,0.603516 -1.716797,0.603516 -1.277344,0 -2.056641,-0.832031 -0.773437,-0.837891 -0.773437,-2.396485 0,-1.0078121 0.333984,-1.7636714 0.333984,-0.7558594 1.013672,-1.1308594 0.685547,-0.3808594 1.488281,-0.3808594 1.013672,0 1.658203,0.515625 0.644531,0.5097656 0.826172,1.453125 L 40.931644,9.0075359 Q 40.78516,8.3805828 40.41016,8.0641766 40.041019,7.7477703 39.513676,7.7477703 q -0.796875,0 -1.294922,0.5742188 -0.498047,0.5683593 -0.498047,1.8046879 0,1.253906 0.480469,1.822265 0.480468,0.56836 1.253906,0.56836 0.621094,0 1.037109,-0.38086 0.416016,-0.380859 0.527344,-1.171875 z"
         style="font-style:normal;font-family:Arial;-inkscape-font-specification:Arial"
         id="path922" />
      <path
         d="m 47.218754,11.239958 1.089844,0.134765 q -0.257813,0.955079 -0.955079,1.482422 -0.697265,0.527344 -1.78125,0.527344 -1.365234,0 -2.167968,-0.837891 -0.796875,-0.84375 -0.796875,-2.361328 0,-1.5703122 0.808593,-2.4374997 0.808594,-0.8671875 2.097657,-0.8671875 1.248047,0 2.039062,0.8496094 0.791016,0.8496094 0.791016,2.3906248 0,0.09375 -0.0059,0.28125 h -4.640625 q 0.05859,1.025391 0.580079,1.570313 0.521484,0.544922 1.300781,0.544922 0.580078,0 0.990234,-0.304688 0.410156,-0.304687 0.650391,-0.972656 z M 43.755863,9.5348797 h 3.47461 q -0.07031,-0.7851563 -0.398438,-1.1777344 -0.503906,-0.609375 -1.306641,-0.609375 -0.726562,0 -1.224609,0.4863281 -0.492187,0.4863282 -0.544922,1.3007813 z"
         style="font-style:normal;font-family:Arial;-inkscape-font-specification:Arial"
         id="path924" />
      <path
         d="M 49.638676,15.62863 V 7.0212078 h 0.960937 v 0.8085938 q 0.339844,-0.4746094 0.767578,-0.7089844 0.427735,-0.2402344 1.03711,-0.2402344 0.796875,0 1.40625,0.4101563 0.609375,0.4101562 0.919922,1.1601562 0.310546,0.7441406 0.310546,1.6347657 0,0.955078 -0.345703,1.722656 -0.339843,0.761719 -0.996093,1.171875 -0.650391,0.404297 -1.371094,0.404297 -0.527344,0 -0.949219,-0.222656 -0.416016,-0.222656 -0.685547,-0.5625 v 3.029297 z m 0.955078,-5.460938 q 0,1.201172 0.486328,1.775391 0.486328,0.574219 1.177734,0.574219 0.703125,0 1.201172,-0.591797 0.503906,-0.597657 0.503906,-1.845703 0,-1.1894536 -0.492187,-1.7812504 -0.486328,-0.5917969 -1.166016,-0.5917969 -0.673828,0 -1.195312,0.6328125 -0.515625,0.6269531 -0.515625,1.8281248 z"
         style="font-style:normal;font-family:Arial;-inkscape-font-specification:Arial"
         id="path926" />
      <path
         d="m 58.621098,12.300505 0.152343,0.93164 q -0.445312,0.09375 -0.796875,0.09375 -0.574218,0 -0.890625,-0.18164 -0.316406,-0.181641 -0.445312,-0.47461 -0.128906,-0.298828 -0.128906,-1.248047 V 7.8415203 H 55.738285 V 7.0212078 h 0.773438 V 5.4801922 l 1.048828,-0.6328125 v 2.1738281 h 1.060547 v 0.8203125 h -1.060547 v 3.6386717 q 0,0.451172 0.05273,0.580078 0.05859,0.128907 0.181641,0.205078 0.128906,0.07617 0.363281,0.07617 0.175781,0 0.462891,-0.04101 z"
         style="font-style:normal;font-family:Arial;-inkscape-font-specification:Arial"
         id="path928" />
      <path
         d="m 63.906254,11.239958 1.089844,0.134765 q -0.257813,0.955079 -0.955079,1.482422 -0.697265,0.527344 -1.78125,0.527344 -1.365234,0 -2.167968,-0.837891 -0.796875,-0.84375 -0.796875,-2.361328 0,-1.5703122 0.808593,-2.4374997 0.808594,-0.8671875 2.097657,-0.8671875 1.248047,0 2.039062,0.8496094 0.791016,0.8496094 0.791016,2.3906248 0,0.09375 -0.0059,0.28125 h -4.640625 q 0.05859,1.025391 0.580079,1.570313 0.521484,0.544922 1.300781,0.544922 0.580078,0 0.990234,-0.304688 0.410156,-0.304687 0.650391,-0.972656 z M 60.443363,9.5348797 h 3.47461 q -0.07031,-0.7851563 -0.398438,-1.1777344 -0.503906,-0.609375 -1.306641,-0.609375 -0.726562,0 -1.224609,0.4863281 -0.492187,0.4863282 -0.544922,1.3007813 z m 1.136719,-3.2871094 0.779297,-1.640625 h 1.382812 l -1.289062,1.640625 z"
         style="font-style:normal;font-family:Arial;-inkscape-font-specification:Arial"
         id="path930" />
      <path
         d="m 65.904301,11.386442 1.042968,-0.164062 q 0.08789,0.626953 0.486329,0.960937 0.404296,0.333985 1.125,0.333985 0.726562,0 1.078125,-0.292969 0.351562,-0.298828 0.351562,-0.697266 0,-0.357422 -0.310547,-0.5625 -0.216797,-0.140625 -1.078125,-0.357422 -1.160156,-0.292968 -1.611328,-0.503906 -0.445312,-0.2167968 -0.679687,-0.5917968 -0.228516,-0.3808594 -0.228516,-0.8378906 0,-0.4160157 0.1875,-0.7675782 0.193359,-0.3574218 0.521484,-0.5917968 0.246094,-0.1816407 0.667969,-0.3046875 0.427734,-0.1289063 0.914063,-0.1289063 0.732421,0 1.283203,0.2109375 0.55664,0.2109375 0.820312,0.5742188 0.263672,0.3574218 0.363281,0.9609375 l -1.03125,0.140625 q -0.07031,-0.4804688 -0.410156,-0.75 -0.333984,-0.2695313 -0.949219,-0.2695313 -0.726562,0 -1.037109,0.2402344 -0.310547,0.2402344 -0.310547,0.5625 0,0.2050781 0.128906,0.3691406 0.128907,0.1699219 0.404297,0.28125 0.158203,0.058594 0.931641,0.2695313 1.119141,0.2988281 1.558594,0.4921875 0.445312,0.1874999 0.697265,0.5507809 0.251953,0.363282 0.251953,0.902344 0,0.527344 -0.310546,0.996094 -0.304688,0.46289 -0.884766,0.720703 -0.580078,0.251953 -1.3125,0.251953 -1.212891,0 -1.851563,-0.503906 -0.632812,-0.503906 -0.808593,-1.494141 z"
         style="font-style:normal;font-family:Arial;-inkscape-font-specification:Arial"
         id="path932" />
    </g>
  </g>
</svg>
