<?xml version="1.0" encoding="UTF-8" standalone="no"?>
<svg
   width="95.000008pt"
   height="50pt"
   viewBox="0 0 95.000008 50"
   version="1.1"
   id="svg837"
   sodipodi:docname="531-1-b.svg"
   inkscape:version="1.1.2 (b8e25be8, 2022-02-05)"
   xmlns:inkscape="http://www.inkscape.org/namespaces/inkscape"
   xmlns:sodipodi="http://sodipodi.sourceforge.net/DTD/sodipodi-0.dtd"
   xmlns="http://www.w3.org/2000/svg"
   xmlns:svg="http://www.w3.org/2000/svg">
  <sodipodi:namedview
     id="namedview3667"
     pagecolor="#ffffff"
     bordercolor="#666666"
     borderopacity="1.0"
     inkscape:pageshadow="2"
     inkscape:pageopacity="0.0"
     inkscape:pagecheckerboard="0"
     inkscape:document-units="pt"
     showgrid="false"
     inkscape:zoom="4.4436853"
     inkscape:cx="54.79686"
     inkscape:cy="16.540325"
     inkscape:window-width="1661"
     inkscape:window-height="969"
     inkscape:window-x="0"
     inkscape:window-y="25"
     inkscape:window-maximized="0"
     inkscape:current-layer="g1389" />
  <defs
     id="defs841" />
  <g
     id="g1389">
    <g
       id="g2317">
      <rect
         style="fill:#ffffff;stroke:#000000;stroke-width:0.561506;stroke-linecap:square;stroke-miterlimit:4;stroke-dasharray:none;stroke-opacity:1"
         id="rect941"
         width="94.438499"
         height="49.438496"
         x="0.28075299"
         y="0.28075299" />
      <g
         aria-label="autorisés"
         id="text1237"
         style="font-style:italic;font-size:13px;line-height:1.25;-inkscape-font-specification:'sans-serif Italic';stroke-width:0.75">
        <path
           d="m 26.378176,44.892563 q -0.634766,0.539551 -1.225098,0.761719 -0.583984,0.222168 -1.256836,0.222168 -1.11084,0 -1.707519,-0.539551 -0.59668,-0.545899 -0.59668,-1.390137 0,-0.495117 0.222168,-0.901367 0.228516,-0.412598 0.590332,-0.660156 0.368164,-0.247559 0.825195,-0.374512 0.336426,-0.08887 1.015625,-0.171387 1.383789,-0.165039 2.037598,-0.393554 0.0063,-0.234864 0.0063,-0.29834 0,-0.698243 -0.323731,-0.983887 -0.437988,-0.387207 -1.301269,-0.387207 -0.806153,0 -1.19336,0.285644 -0.380859,0.279297 -0.564941,0.996582 L 21.78882,40.906235 q 0.152344,-0.717285 0.501465,-1.155274 0.349121,-0.444336 1.009277,-0.679199 0.660157,-0.241211 1.529786,-0.241211 0.863281,0 1.402832,0.203125 0.53955,0.203125 0.793457,0.51416 0.253906,0.304688 0.355468,0.774414 0.05713,0.291993 0.05713,1.053711 v 1.523438 q 0,1.593262 0.06982,2.018554 0.07617,0.418946 0.291992,0.806153 h -1.19336 q -0.177734,-0.355469 -0.228515,-0.831543 z m -0.09521,-2.551758 q -0.62207,0.253906 -1.866211,0.431641 -0.70459,0.101562 -0.996582,0.228515 -0.291992,0.126953 -0.450684,0.374512 -0.158691,0.241211 -0.158691,0.539551 0,0.457031 0.342773,0.761719 0.349121,0.304687 1.015625,0.304687 0.660157,0 1.174317,-0.285644 0.51416,-0.291993 0.755371,-0.793458 0.184082,-0.387207 0.184082,-1.142578 z"
           style="font-style:normal;font-family:Arial;-inkscape-font-specification:Arial"
           id="path2262" />
        <path
           d="m 33.633547,45.724106 v -0.990235 q -0.78711,1.142579 -2.13916,1.142579 -0.59668,0 -1.117188,-0.228516 -0.51416,-0.228516 -0.768066,-0.571289 -0.247559,-0.349121 -0.349121,-0.850586 -0.06982,-0.336426 -0.06982,-1.066406 v -4.176758 h 1.142579 v 3.738769 q 0,0.89502 0.06982,1.206055 0.10791,0.450684 0.457031,0.710938 0.349121,0.253906 0.863281,0.253906 0.51416,0 0.964844,-0.260254 0.450684,-0.266602 0.634766,-0.717285 0.190429,-0.457031 0.190429,-1.320313 v -3.611816 h 1.142578 v 6.741211 z"
           style="font-style:normal;font-family:Arial;-inkscape-font-specification:Arial"
           id="path2264" />
        <path
           d="m 38.946535,44.702133 0.165039,1.009278 q -0.482422,0.101562 -0.863281,0.101562 -0.62207,0 -0.964844,-0.196777 -0.342773,-0.196778 -0.482422,-0.51416 -0.139648,-0.323731 -0.139648,-1.352051 v -3.878418 h -0.837891 v -0.888672 h 0.837891 v -1.669434 l 1.13623,-0.685547 v 2.354981 h 1.148926 v 0.888672 h -1.148926 v 3.941894 q 0,0.48877 0.05713,0.628418 0.06348,0.139649 0.196778,0.222168 0.139648,0.08252 0.393554,0.08252 0.19043,0 0.501465,-0.04443 z"
           style="font-style:normal;font-family:Arial;-inkscape-font-specification:Arial"
           id="path2266" />
        <path
           d="m 39.632082,42.3535 q 0,-1.872558 1.041016,-2.773925 0.869629,-0.749024 2.120117,-0.749024 1.390137,0 2.272461,0.914063 0.882324,0.907714 0.882324,2.513672 0,1.301269 -0.393555,2.050292 -0.387207,0.742676 -1.13623,1.155274 -0.742676,0.412598 -1.625,0.412598 -1.415528,0 -2.291504,-0.907715 Q 39.632082,44.06102 39.632082,42.3535 Z m 1.174316,0 q 0,1.294922 0.564942,1.942383 0.564941,0.641113 1.421875,0.641113 0.850586,0 1.415527,-0.64746 0.564942,-0.647461 0.564942,-1.974122 0,-1.250488 -0.57129,-1.891601 -0.564941,-0.647461 -1.409179,-0.647461 -0.856934,0 -1.421875,0.641113 -0.564942,0.641113 -0.564942,1.936035 z"
           style="font-style:normal;font-family:Arial;-inkscape-font-specification:Arial"
           id="path2268" />
        <path
           d="m 47.281008,45.724106 v -6.741211 h 1.02832 v 1.021973 q 0.393555,-0.717286 0.723633,-0.945801 0.336426,-0.228516 0.736328,-0.228516 0.577637,0 1.174316,0.368164 l -0.393554,1.060059 q -0.418946,-0.247559 -0.837891,-0.247559 -0.374512,0 -0.672851,0.228516 -0.29834,0.222168 -0.425293,0.62207 -0.19043,0.609375 -0.19043,1.333008 v 3.529297 z"
           style="font-style:normal;font-family:Arial;-inkscape-font-specification:Arial"
           id="path2270" />
        <path
           d="m 51.641848,37.732407 v -1.313965 h 1.142578 v 1.313965 z m 0,7.991699 v -6.741211 h 1.142578 v 6.741211 z"
           style="font-style:normal;font-family:Arial;-inkscape-font-specification:Arial"
           id="path2272" />
        <path
           d="m 54.073,43.711899 1.129883,-0.177735 q 0.09522,0.6792 0.526855,1.041016 0.437989,0.361816 1.21875,0.361816 0.78711,0 1.167969,-0.317382 0.380859,-0.323731 0.380859,-0.755371 0,-0.387207 -0.336425,-0.609375 -0.234864,-0.152344 -1.167969,-0.387207 -1.256836,-0.317383 -1.745606,-0.545899 -0.482422,-0.234863 -0.736328,-0.641113 -0.247558,-0.412598 -0.247558,-0.907715 0,-0.450684 0.203125,-0.831543 0.209472,-0.387207 0.564941,-0.641113 0.266602,-0.196778 0.723633,-0.330078 0.463379,-0.139649 0.990234,-0.139649 0.793457,0 1.390137,0.228516 0.603027,0.228515 0.888672,0.62207 0.285644,0.387207 0.393555,1.041016 l -1.117188,0.152343 q -0.07617,-0.520507 -0.444336,-0.8125 -0.361816,-0.291992 -1.02832,-0.291992 -0.78711,0 -1.123535,0.260254 -0.336426,0.260254 -0.336426,0.609375 0,0.222168 0.139648,0.399903 0.139649,0.184082 0.437989,0.304687 0.171386,0.06348 1.009277,0.291992 1.212402,0.323731 1.688476,0.533203 0.482422,0.203125 0.755372,0.59668 0.272949,0.393555 0.272949,0.977539 0,0.571289 -0.336426,1.079102 -0.330078,0.501464 -0.958496,0.780761 -0.628418,0.27295 -1.421875,0.27295 -1.313965,0 -2.005859,-0.545899 Q 54.26343,44.784653 54.073,43.711899 Z"
           style="font-style:normal;font-family:Arial;-inkscape-font-specification:Arial"
           id="path2274" />
        <path
           d="m 65.644777,43.553207 1.180664,0.145996 q -0.279297,1.034668 -1.034668,1.605958 -0.755371,0.571289 -1.929687,0.571289 -1.479004,0 -2.348633,-0.907715 -0.863281,-0.914063 -0.863281,-2.558106 0,-1.701172 0.875976,-2.640625 0.875977,-0.939453 2.272461,-0.939453 1.352051,0 2.208985,0.92041 0.856933,0.92041 0.856933,2.589844 0,0.101563 -0.0063,0.304688 h -5.027344 q 0.06348,1.110839 0.628418,1.701171 0.564941,0.590332 1.40918,0.590332 0.628418,0 1.072753,-0.330078 0.444336,-0.330078 0.70459,-1.053711 z m -3.751465,-1.847168 h 3.764161 q -0.07617,-0.850586 -0.431641,-1.275878 -0.545898,-0.660157 -1.415527,-0.660157 -0.78711,0 -1.326661,0.526856 -0.533203,0.526855 -0.590332,1.409179 z m 1.231446,-3.561035 0.844238,-1.777343 h 1.498047 l -1.396484,1.777343 z"
           style="font-style:normal;font-family:Arial;-inkscape-font-specification:Arial"
           id="path2276" />
        <path
           d="m 67.809328,43.711899 1.129883,-0.177735 q 0.09521,0.6792 0.526855,1.041016 0.437989,0.361816 1.21875,0.361816 0.78711,0 1.167969,-0.317382 0.380859,-0.323731 0.380859,-0.755371 0,-0.387207 -0.336425,-0.609375 -0.234864,-0.152344 -1.167969,-0.387207 -1.256836,-0.317383 -1.745606,-0.545899 -0.482421,-0.234863 -0.736328,-0.641113 -0.247558,-0.412598 -0.247558,-0.907715 0,-0.450684 0.203125,-0.831543 0.209472,-0.387207 0.564941,-0.641113 0.266602,-0.196778 0.723633,-0.330078 0.463379,-0.139649 0.990234,-0.139649 0.793457,0 1.390137,0.228516 0.603027,0.228515 0.888672,0.62207 0.285644,0.387207 0.393555,1.041016 l -1.117188,0.152343 q -0.07617,-0.520507 -0.444336,-0.8125 -0.361816,-0.291992 -1.02832,-0.291992 -0.787109,0 -1.123535,0.260254 -0.336426,0.260254 -0.336426,0.609375 0,0.222168 0.139648,0.399903 0.139649,0.184082 0.437989,0.304687 0.171386,0.06348 1.009277,0.291992 1.212402,0.323731 1.688477,0.533203 0.482421,0.203125 0.755371,0.59668 0.272949,0.393555 0.272949,0.977539 0,0.571289 -0.336426,1.079102 -0.330078,0.501464 -0.958496,0.780761 -0.628418,0.27295 -1.421875,0.27295 -1.313965,0 -2.005859,-0.545899 -0.685547,-0.545898 -0.875977,-1.618652 z"
           style="font-style:normal;font-family:Arial;-inkscape-font-specification:Arial"
           id="path2278" />
      </g>
      <g
         id="g1093"
         transform="matrix(0.98299447,0,0,0.98299447,0.99157798,1.5994297)">
        <path
           style="fill:#211e1e;fill-opacity:1;fill-rule:nonzero;stroke:none"
           d="m 33.613281,12.800781 c 0.714844,-0.1875 1.464844,-0.332031 2.226563,-0.332031 4.65625,0 8.4375,3.78125 8.4375,8.4375 0,4.660156 -3.78125,8.4375 -8.4375,8.4375 -4.121094,0 -7.558594,-2.957031 -8.296875,-6.867188 l -1.832031,-0.0078 c -0.449219,0 -1.003907,0 -1.441407,-0.179688 -0.46875,-0.152343 -0.863281,-0.488281 -1.210937,-0.828124 l -10.375,-10.382813 -0.582032,1.851563 c 3.203126,1.210937 5.558594,4.25 5.558594,7.875 0,4.660156 -3.789062,8.457031 -8.445312,8.457031 -4.667969,0 -8.453125,-3.796875 -8.453125,-8.457031 0,-4.65625 3.785156,-8.445313 8.453125,-8.445313 0.460937,0 0.878906,0.05859 1.324218,0.132813 l 2.542969,-8.921876 c 0.171875,-0.597656 0.410157,-1.324218 0.832031,-1.75 C 14.40625,1.316406 15.21875,1 16.167969,1 h 3.113281 v 1.648438 h -2.492188 c -0.492187,0 -1.109374,0 -1.441406,0.273437 -0.332031,0.296875 -0.4375,0.671875 -0.566406,1.117187 L 14.226562,5.84375 H 29.136719 L 29.660156,4.3125 27.300781,3.742188 v -1.09375 h 5.296875 V 4.3125 h -1.273437 l -0.554688,1.53125 2.84375,6.957031"
           id="path824"
           transform="translate(24.793476,2.9850478)" />
        <path
           style="fill:#ffffff;fill-opacity:1;fill-rule:nonzero;stroke:none"
           d="m 34.242188,14.46875 c 0.496093,-0.121094 1.023437,-0.183594 1.5625,-0.183594 3.648437,0 6.613281,2.964844 6.613281,6.613282 0,3.652343 -2.964844,6.621093 -6.613281,6.621093 -3.105469,0 -5.71875,-2.148437 -6.429688,-5.035156 l 5.328125,-0.0078 c 0.644531,0 1.632813,0.04297 2.035156,-0.589843 0.332031,-0.539063 -0.08594,-1.375 -0.222656,-1.757813 L 34.242188,14.46875"
           id="path826"
           transform="translate(24.793476,2.9850478)" />
        <path
           style="fill:#ffffff;fill-opacity:1;fill-rule:nonzero;stroke:none"
           d="M 28.601562,7.429688 24.363281,20.410156 13.273438,9.214844 13.785156,7.429688 h 14.816406"
           id="path828"
           transform="translate(24.793476,2.9850478)" />
        <path
           style="fill:#ffffff;fill-opacity:1;fill-rule:nonzero;stroke:none"
           d="m 32.050781,13.339844 c -2.71875,1.375 -4.597656,4.191406 -4.648437,7.4375 h -1.441406 l 4.046874,-12.273438 2.042969,4.835938"
           id="path830"
           transform="translate(24.793476,2.9850478)" />
        <path
           style="fill:#ffffff;fill-opacity:1;fill-rule:nonzero;stroke:none"
           d="m 11.632812,14.664062 c 2.441407,0.972657 4.167969,3.355469 4.167969,6.140626 0,3.652343 -2.964843,6.613281 -6.617187,6.613281 -3.648438,0 -6.613282,-2.960938 -6.613282,-6.613281 0,-3.648438 2.964844,-6.605469 6.613282,-6.605469 0.273437,0 0.554687,0.01172 0.824218,0.04687 L 8.21875,20.582031 C 8.125,20.894531 8.0625,21.492188 8.746094,21.6875 9.421875,21.878906 9.761719,21.40625 9.863281,21.058594 l 1.769531,-6.394532"
           id="path832"
           transform="translate(24.793476,2.9850478)" />
        <path
           style="fill:#ffffff;fill-opacity:1;fill-rule:nonzero;stroke:none"
           d="m 32.683594,15.0625 2.25,5.714844 h -5.71875 c 0,-2.519532 1.390625,-4.59375 3.46875,-5.714844"
           id="path834"
           transform="translate(24.793476,2.9850478)" />
      </g>
    </g>
  </g>
</svg>
