<?xml version="1.0" encoding="UTF-8" standalone="no"?>
<svg
   width="95pt"
   height="50pt"
   viewBox="0 0 95 50"
   version="1.1"
   id="svg837"
   sodipodi:docname="531-1-a.svg"
   inkscape:version="1.1.2 (b8e25be8, 2022-02-05)"
   xmlns:inkscape="http://www.inkscape.org/namespaces/inkscape"
   xmlns:sodipodi="http://sodipodi.sourceforge.net/DTD/sodipodi-0.dtd"
   xmlns="http://www.w3.org/2000/svg"
   xmlns:svg="http://www.w3.org/2000/svg">
  <sodipodi:namedview
     id="namedview837"
     pagecolor="#ffffff"
     bordercolor="#666666"
     borderopacity="1.0"
     inkscape:pageshadow="2"
     inkscape:pageopacity="0.0"
     inkscape:pagecheckerboard="0"
     inkscape:document-units="pt"
     showgrid="false"
     fit-margin-top="0"
     fit-margin-left="0"
     fit-margin-right="0"
     fit-margin-bottom="0"
     inkscape:zoom="3.0539449"
     inkscape:cx="61.887168"
     inkscape:cy="35.855264"
     inkscape:window-width="1572"
     inkscape:window-height="969"
     inkscape:window-x="0"
     inkscape:window-y="25"
     inkscape:window-maximized="0"
     inkscape:current-layer="text1237" />
  <defs
     id="defs841" />
  <g
     id="surface1"
     transform="translate(25.07694,3.268512)" />
  <g
     id="g1085"
     transform="matrix(0.98299446,0,0,0.98299446,0.27864383,0.27864374)">
    <g
       id="g997">
      <g
         aria-label="gestattet"
         id="text1237"
         style="font-style:italic;font-size:14px;line-height:1.25;-inkscape-font-specification:'sans-serif Italic';stroke-width:0.75">
        <g
           id="g1061">
          <rect
             style="fill:#ffffff;stroke:#000000;stroke-width:0.57122;stroke-linecap:square;stroke-miterlimit:4;stroke-dasharray:none;stroke-opacity:1"
             id="rect941"
             width="96.072258"
             height="50.293766"
             x="0.0021456964"
             y="0.0021464869" />
          <g
             id="g1093"
             transform="translate(0.72526721)">
            <path
               style="fill:#211e1e;fill-opacity:1;fill-rule:nonzero;stroke:none"
               d="m 33.613281,12.800781 c 0.714844,-0.1875 1.464844,-0.332031 2.226563,-0.332031 4.65625,0 8.4375,3.78125 8.4375,8.4375 0,4.660156 -3.78125,8.4375 -8.4375,8.4375 -4.121094,0 -7.558594,-2.957031 -8.296875,-6.867188 l -1.832031,-0.0078 c -0.449219,0 -1.003907,0 -1.441407,-0.179688 -0.46875,-0.152343 -0.863281,-0.488281 -1.210937,-0.828124 l -10.375,-10.382813 -0.582032,1.851563 c 3.203126,1.210937 5.558594,4.25 5.558594,7.875 0,4.660156 -3.789062,8.457031 -8.445312,8.457031 -4.667969,0 -8.453125,-3.796875 -8.453125,-8.457031 0,-4.65625 3.785156,-8.445313 8.453125,-8.445313 0.460937,0 0.878906,0.05859 1.324218,0.132813 l 2.542969,-8.921876 c 0.171875,-0.597656 0.410157,-1.324218 0.832031,-1.75 C 14.40625,1.316406 15.21875,1 16.167969,1 h 3.113281 v 1.648438 h -2.492188 c -0.492187,0 -1.109374,0 -1.441406,0.273437 -0.332031,0.296875 -0.4375,0.671875 -0.566406,1.117187 L 14.226562,5.84375 H 29.136719 L 29.660156,4.3125 27.300781,3.742188 v -1.09375 h 5.296875 V 4.3125 h -1.273437 l -0.554688,1.53125 2.84375,6.957031"
               id="path824"
               transform="translate(24.793476,2.9850478)" />
            <path
               style="fill:#ffffff;fill-opacity:1;fill-rule:nonzero;stroke:none"
               d="m 34.242188,14.46875 c 0.496093,-0.121094 1.023437,-0.183594 1.5625,-0.183594 3.648437,0 6.613281,2.964844 6.613281,6.613282 0,3.652343 -2.964844,6.621093 -6.613281,6.621093 -3.105469,0 -5.71875,-2.148437 -6.429688,-5.035156 l 5.328125,-0.0078 c 0.644531,0 1.632813,0.04297 2.035156,-0.589843 0.332031,-0.539063 -0.08594,-1.375 -0.222656,-1.757813 L 34.242188,14.46875"
               id="path826"
               transform="translate(24.793476,2.9850478)" />
            <path
               style="fill:#ffffff;fill-opacity:1;fill-rule:nonzero;stroke:none"
               d="M 28.601562,7.429688 24.363281,20.410156 13.273438,9.214844 13.785156,7.429688 h 14.816406"
               id="path828"
               transform="translate(24.793476,2.9850478)" />
            <path
               style="fill:#ffffff;fill-opacity:1;fill-rule:nonzero;stroke:none"
               d="m 32.050781,13.339844 c -2.71875,1.375 -4.597656,4.191406 -4.648437,7.4375 h -1.441406 l 4.046874,-12.273438 2.042969,4.835938"
               id="path830"
               transform="translate(24.793476,2.9850478)" />
            <path
               style="fill:#ffffff;fill-opacity:1;fill-rule:nonzero;stroke:none"
               d="m 11.632812,14.664062 c 2.441407,0.972657 4.167969,3.355469 4.167969,6.140626 0,3.652343 -2.964843,6.613281 -6.617187,6.613281 -3.648438,0 -6.613282,-2.960938 -6.613282,-6.613281 0,-3.648438 2.964844,-6.605469 6.613282,-6.605469 0.273437,0 0.554687,0.01172 0.824218,0.04687 L 8.21875,20.582031 C 8.125,20.894531 8.0625,21.492188 8.746094,21.6875 9.421875,21.878906 9.761719,21.40625 9.863281,21.058594 l 1.769531,-6.394532"
               id="path832"
               transform="translate(24.793476,2.9850478)" />
            <path
               style="fill:#ffffff;fill-opacity:1;fill-rule:nonzero;stroke:none"
               d="m 32.683594,15.0625 2.25,5.714844 h -5.71875 c 0,-2.519532 1.390625,-4.59375 3.46875,-5.714844"
               id="path834"
               transform="translate(24.793476,2.9850478)" />
          </g>
          <path
             d="m 21.706244,45.343853 1.196289,0.177734 q 0.0752,0.553711 0.416992,0.806641 0.458008,0.341797 1.250976,0.341797 0.854493,0 1.319336,-0.341797 0.464844,-0.341797 0.628907,-0.957031 0.0957,-0.375977 0.08887,-1.579102 -0.806641,0.950195 -2.009766,0.950195 -1.49707,0 -2.317383,-1.080078 -0.820312,-1.080078 -0.820312,-2.59082 0,-1.039062 0.375976,-1.914062 0.375977,-0.881836 1.086914,-1.360352 0.717774,-0.478516 1.681641,-0.478516 1.285156,0 2.119141,1.039063 v -0.875 h 1.134765 v 6.27539 q 0,1.695313 -0.348633,2.399415 -0.341796,0.710937 -1.09375,1.121093 -0.745117,0.410157 -1.838867,0.410157 -1.298828,0 -2.098633,-0.587891 -0.799804,-0.581055 -0.77246,-1.756836 z m 1.018554,-4.361328 q 0,1.428711 0.567383,2.084961 0.567383,0.65625 1.421875,0.65625 0.847656,0 1.421875,-0.649414 0.574219,-0.65625 0.574219,-2.050782 0,-1.333007 -0.594727,-2.009765 -0.58789,-0.676758 -1.421875,-0.676758 -0.820312,0 -1.394531,0.669922 -0.574219,0.663086 -0.574219,1.975586 z"
             style="font-style:normal;font-family:Arial;-inkscape-font-specification:Arial"
             id="path999" />
          <path
             d="m 34.694525,42.4044 1.271484,0.157226 q -0.300781,1.114258 -1.114258,1.729493 -0.813476,0.615234 -2.078125,0.615234 -1.592773,0 -2.529297,-0.977539 -0.929687,-0.984375 -0.929687,-2.754883 0,-1.832031 0.943359,-2.84375 0.94336,-1.011719 2.447266,-1.011719 1.456055,0 2.378906,0.991211 0.922852,0.991211 0.922852,2.789063 0,0.109375 -0.0068,0.328125 h -5.414063 q 0.06836,1.196289 0.676758,1.832031 0.608399,0.635742 1.517578,0.635742 0.676758,0 1.155274,-0.355469 0.478515,-0.355468 0.758789,-1.134765 z m -4.040039,-1.989258 h 4.053711 q -0.08203,-0.916016 -0.464844,-1.374023 -0.587891,-0.710938 -1.524414,-0.710938 -0.847656,0 -1.428711,0.567383 -0.574219,0.567383 -0.635742,1.517578 z"
             style="font-style:normal;font-family:Arial;-inkscape-font-specification:Arial"
             id="path1001" />
          <path
             d="m 37.025579,42.575298 1.216797,-0.191406 q 0.102539,0.731445 0.567383,1.121094 0.47168,0.389648 1.3125,0.389648 0.847656,0 1.257813,-0.341797 0.410156,-0.348632 0.410156,-0.813476 0,-0.416992 -0.362305,-0.65625 -0.252929,-0.164063 -1.257812,-0.416992 -1.353516,-0.341797 -1.879883,-0.587891 -0.519531,-0.25293 -0.792969,-0.69043 -0.266601,-0.444336 -0.266601,-0.977539 0,-0.485351 0.21875,-0.895508 0.225586,-0.416992 0.608398,-0.690429 0.287109,-0.211914 0.779297,-0.355469 0.499023,-0.150391 1.066406,-0.150391 0.854492,0 1.49707,0.246094 0.649415,0.246094 0.957032,0.669922 0.307617,0.416992 0.423828,1.121094 l -1.203125,0.164062 q -0.08203,-0.560547 -0.478516,-0.875 -0.389648,-0.314453 -1.107422,-0.314453 -0.847656,0 -1.209961,0.280274 -0.362304,0.280273 -0.362304,0.65625 0,0.239257 0.15039,0.430664 0.150391,0.198242 0.47168,0.328125 0.18457,0.06836 1.086914,0.314453 1.305664,0.348633 1.818359,0.574218 0.519532,0.21875 0.813477,0.642579 0.293945,0.423828 0.293945,1.052734 0,0.615234 -0.362304,1.162109 -0.355469,0.540039 -1.032227,0.840821 -0.676758,0.293945 -1.53125,0.293945 -1.415039,0 -2.160156,-0.587891 -0.738281,-0.58789 -0.94336,-1.743164 z"
             style="font-style:normal;font-family:Arial;-inkscape-font-specification:Arial"
             id="path1003" />
          <path
             d="m 47.20429,43.641705 0.177735,1.086914 q -0.519531,0.109375 -0.929688,0.109375 -0.669922,0 -1.039062,-0.211914 -0.369141,-0.211915 -0.519531,-0.553711 -0.150391,-0.348633 -0.150391,-1.456055 v -4.176758 h -0.902344 v -0.957031 h 0.902344 v -1.797852 l 1.223633,-0.738281 v 2.536133 h 1.237304 v 0.957031 h -1.237304 v 4.245117 q 0,0.526367 0.06152,0.676758 0.06836,0.150391 0.211914,0.239258 0.150391,0.08887 0.423828,0.08887 0.205078,0 0.540039,-0.04785 z"
             style="font-style:normal;font-family:Arial;-inkscape-font-specification:Arial"
             id="path1005" />
          <path
             d="m 53.137884,43.846783 q -0.683594,0.581054 -1.319336,0.820312 -0.628906,0.239258 -1.353515,0.239258 -1.196289,0 -1.838868,-0.581055 -0.642578,-0.58789 -0.642578,-1.49707 0,-0.533203 0.239258,-0.970703 0.246094,-0.444336 0.635742,-0.710938 0.396485,-0.266601 0.888672,-0.40332 0.362305,-0.0957 1.09375,-0.18457 1.490235,-0.177735 2.194336,-0.423828 0.0068,-0.25293 0.0068,-0.321289 0,-0.751954 -0.348633,-1.059571 -0.471679,-0.416992 -1.401367,-0.416992 -0.868164,0 -1.285156,0.307617 -0.410156,0.300781 -0.608399,1.073242 l -1.203125,-0.164062 q 0.164063,-0.772461 0.540039,-1.244141 0.375977,-0.478515 1.086914,-0.731445 0.710938,-0.259766 1.647461,-0.259766 0.929688,0 1.510743,0.21875 0.581054,0.21875 0.854492,0.553711 0.273437,0.328125 0.382812,0.833985 0.06152,0.314453 0.06152,1.134765 v 1.640625 q 0,1.715821 0.0752,2.173828 0.08203,0.451172 0.314453,0.868164 h -1.285156 q -0.191406,-0.382812 -0.246094,-0.895507 z m -0.102539,-2.748047 q -0.669922,0.273437 -2.009766,0.464844 -0.758789,0.109375 -1.073242,0.246093 -0.314453,0.136719 -0.485351,0.403321 -0.170899,0.259765 -0.170899,0.581054 0,0.492188 0.369141,0.820313 0.375976,0.328125 1.09375,0.328125 0.710937,0 1.264648,-0.307617 0.553711,-0.314454 0.813477,-0.854493 0.198242,-0.416992 0.198242,-1.230468 z"
             style="font-style:normal;font-family:Arial;-inkscape-font-specification:Arial"
             id="path1007" />
          <path
             d="m 58.880072,43.641705 0.177734,1.086914 q -0.519531,0.109375 -0.929687,0.109375 -0.669922,0 -1.039063,-0.211914 -0.369141,-0.211915 -0.519531,-0.553711 -0.150391,-0.348633 -0.150391,-1.456055 V 38.439556 H 55.51679 v -0.957031 h 0.902344 v -1.797852 l 1.223633,-0.738281 v 2.536133 h 1.237305 v 0.957031 h -1.237305 v 4.245117 q 0,0.526367 0.06152,0.676758 0.06836,0.150391 0.211914,0.239258 0.150391,0.08887 0.423829,0.08887 0.205078,0 0.540039,-0.04785 z"
             style="font-style:normal;font-family:Arial;-inkscape-font-specification:Arial"
             id="path1009" />
          <path
             d="m 62.762884,43.641705 0.177735,1.086914 q -0.519532,0.109375 -0.929688,0.109375 -0.669922,0 -1.039062,-0.211914 -0.369141,-0.211915 -0.519532,-0.553711 -0.15039,-0.348633 -0.15039,-1.456055 v -4.176758 h -0.902344 v -0.957031 h 0.902344 v -1.797852 l 1.223632,-0.738281 v 2.536133 h 1.237305 v 0.957031 h -1.237305 v 4.245117 q 0,0.526367 0.06152,0.676758 0.06836,0.150391 0.211914,0.239258 0.150391,0.08887 0.423828,0.08887 0.205078,0 0.540039,-0.04785 z"
             style="font-style:normal;font-family:Arial;-inkscape-font-specification:Arial"
             id="path1011" />
          <path
             d="m 68.9289,42.4044 1.271484,0.157226 q -0.300781,1.114258 -1.114258,1.729493 -0.813476,0.615234 -2.078125,0.615234 -1.592773,0 -2.529297,-0.977539 -0.929687,-0.984375 -0.929687,-2.754883 0,-1.832031 0.943359,-2.84375 0.94336,-1.011719 2.447266,-1.011719 1.456055,0 2.378906,0.991211 0.922852,0.991211 0.922852,2.789063 0,0.109375 -0.0068,0.328125 h -5.414063 q 0.06836,1.196289 0.676758,1.832031 0.608399,0.635742 1.517578,0.635742 0.676758,0 1.155274,-0.355469 0.478515,-0.355468 0.758789,-1.134765 z m -4.040039,-1.989258 h 4.053711 q -0.08203,-0.916016 -0.464844,-1.374023 -0.587891,-0.710938 -1.524414,-0.710938 -0.847656,0 -1.428711,0.567383 -0.574219,0.567383 -0.635742,1.517578 z"
             style="font-style:normal;font-family:Arial;-inkscape-font-specification:Arial"
             id="path1013" />
          <path
             d="m 74.438665,43.641705 0.177735,1.086914 q -0.519531,0.109375 -0.929688,0.109375 -0.669922,0 -1.039062,-0.211914 -0.369141,-0.211915 -0.519531,-0.553711 -0.150391,-0.348633 -0.150391,-1.456055 v -4.176758 h -0.902344 v -0.957031 h 0.902344 v -1.797852 l 1.223633,-0.738281 v 2.536133 h 1.237304 v 0.957031 h -1.237304 v 4.245117 q 0,0.526367 0.06152,0.676758 0.06836,0.150391 0.211914,0.239258 0.150391,0.08887 0.423828,0.08887 0.205078,0 0.540039,-0.04785 z"
             style="font-style:normal;font-family:Arial;-inkscape-font-specification:Arial"
             id="path1015" />
        </g>
      </g>
    </g>
  </g>
</svg>
