<?xml version="1.0" encoding="UTF-8" standalone="no"?>
<svg
   width="95.000008pt"
   height="50pt"
   viewBox="0 0 95.000008 50"
   version="1.1"
   id="svg837"
   sodipodi:docname="531-2-a.svg"
   inkscape:version="1.1.2 (b8e25be8, 2022-02-05)"
   xmlns:inkscape="http://www.inkscape.org/namespaces/inkscape"
   xmlns:sodipodi="http://sodipodi.sourceforge.net/DTD/sodipodi-0.dtd"
   xmlns="http://www.w3.org/2000/svg"
   xmlns:svg="http://www.w3.org/2000/svg">
  <sodipodi:namedview
     id="namedview836"
     pagecolor="#ffffff"
     bordercolor="#666666"
     borderopacity="1.0"
     inkscape:pageshadow="2"
     inkscape:pageopacity="0.0"
     inkscape:pagecheckerboard="0"
     inkscape:document-units="pt"
     showgrid="false"
     inkscape:zoom="2.9369643"
     inkscape:cx="53.456557"
     inkscape:cy="38.985833"
     inkscape:window-width="1312"
     inkscape:window-height="969"
     inkscape:window-x="0"
     inkscape:window-y="25"
     inkscape:window-maximized="0"
     inkscape:current-layer="svg837" />
  <defs
     id="defs841" />
  <g
     id="g979">
    <rect
       style="fill:#ffffff;stroke:#000000;stroke-width:0.561506;stroke-linecap:square;stroke-miterlimit:4;stroke-dasharray:none;stroke-opacity:1"
       id="rect941"
       width="94.438499"
       height="49.438496"
       x="0.28075299"
       y="0.28075299" />
    <g
       id="surface1"
       transform="translate(24.980471,18.022363)">
      <path
         style="fill:#211e1e;fill-opacity:1;fill-rule:nonzero;stroke:none"
         d="m 33.613281,12.800781 c 0.714844,-0.1875 1.464844,-0.332031 2.226563,-0.332031 4.65625,0 8.4375,3.78125 8.4375,8.4375 0,4.660156 -3.78125,8.4375 -8.4375,8.4375 -4.121094,0 -7.558594,-2.957031 -8.296875,-6.867188 l -1.832031,-0.0078 c -0.449219,0 -1.003907,0 -1.441407,-0.179688 -0.46875,-0.152343 -0.863281,-0.488281 -1.210937,-0.828124 l -10.375,-10.382813 -0.582032,1.851563 c 3.203126,1.210937 5.558594,4.25 5.558594,7.875 0,4.660156 -3.789062,8.457031 -8.445312,8.457031 -4.667969,0 -8.453125,-3.796875 -8.453125,-8.457031 0,-4.65625 3.785156,-8.445313 8.453125,-8.445313 0.460937,0 0.878906,0.05859 1.324218,0.132813 l 2.542969,-8.921876 c 0.171875,-0.597656 0.410157,-1.324218 0.832031,-1.75 C 14.40625,1.316406 15.21875,1 16.167969,1 h 3.113281 v 1.648438 h -2.492188 c -0.492187,0 -1.109374,0 -1.441406,0.273437 -0.332031,0.296875 -0.4375,0.671875 -0.566406,1.117187 L 14.226562,5.84375 H 29.136719 L 29.660156,4.3125 27.300781,3.742188 v -1.09375 h 5.296875 V 4.3125 h -1.273437 l -0.554688,1.53125 2.84375,6.957031"
         id="path824" />
      <path
         style="fill:#ffffff;fill-opacity:1;fill-rule:nonzero;stroke:none"
         d="m 34.242188,14.46875 c 0.496093,-0.121094 1.023437,-0.183594 1.5625,-0.183594 3.648437,0 6.613281,2.964844 6.613281,6.613282 0,3.652343 -2.964844,6.621093 -6.613281,6.621093 -3.105469,0 -5.71875,-2.148437 -6.429688,-5.035156 l 5.328125,-0.0078 c 0.644531,0 1.632813,0.04297 2.035156,-0.589843 0.332031,-0.539063 -0.08594,-1.375 -0.222656,-1.757813 L 34.242188,14.46875"
         id="path826" />
      <path
         style="fill:#ffffff;fill-opacity:1;fill-rule:nonzero;stroke:none"
         d="M 28.601562,7.429688 24.363281,20.410156 13.273438,9.214844 13.785156,7.429688 h 14.816406"
         id="path828" />
      <path
         style="fill:#ffffff;fill-opacity:1;fill-rule:nonzero;stroke:none"
         d="m 32.050781,13.339844 c -2.71875,1.375 -4.597656,4.191406 -4.648437,7.4375 h -1.441406 l 4.046874,-12.273438 2.042969,4.835938"
         id="path830" />
      <path
         style="fill:#ffffff;fill-opacity:1;fill-rule:nonzero;stroke:none"
         d="m 11.632812,14.664062 c 2.441407,0.972657 4.167969,3.355469 4.167969,6.140626 0,3.652343 -2.964843,6.613281 -6.617187,6.613281 -3.648438,0 -6.613282,-2.960938 -6.613282,-6.613281 0,-3.648438 2.964844,-6.605469 6.613282,-6.605469 0.273437,0 0.554687,0.01172 0.824218,0.04687 L 8.21875,20.582031 C 8.125,20.894531 8.0625,21.492188 8.746094,21.6875 9.421875,21.878906 9.761719,21.40625 9.863281,21.058594 l 1.769531,-6.394532"
         id="path832" />
      <path
         style="fill:#ffffff;fill-opacity:1;fill-rule:nonzero;stroke:none"
         d="m 32.683594,15.0625 2.25,5.714844 h -5.71875 c 0,-2.519532 1.390625,-4.59375 3.46875,-5.714844"
         id="path834" />
    </g>
    <g
       aria-label="ausgenommen"
       id="text1237"
       style="font-style:italic;font-size:12px;line-height:1.25;-inkscape-font-specification:'sans-serif Italic';stroke-width:0.75">
      <path
         d="m 12.824222,12.537978 q -0.585938,0.498047 -1.13086,0.703125 -0.539062,0.205078 -1.160156,0.205078 -1.0253906,0 -1.5761719,-0.498047 -0.5507812,-0.503906 -0.5507812,-1.283203 0,-0.457031 0.2050781,-0.832031 0.2109375,-0.380859 0.5449219,-0.609375 0.3398437,-0.2285156 0.7617187,-0.3457031 0.3105464,-0.082031 0.9375004,-0.1582031 1.277343,-0.1523438 1.880859,-0.3632813 0.0059,-0.2167968 0.0059,-0.2753906 0,-0.6445312 -0.298828,-0.9082031 -0.404297,-0.3574219 -1.201172,-0.3574219 -0.74414,0 -1.101562,0.2636719 -0.3515626,0.2578125 -0.5214845,0.9199219 l -1.03125,-0.140625 Q 8.7285185,8.1961813 9.0507841,7.7918844 9.3730497,7.3817282 9.9824247,7.1649313 10.5918,6.942275 11.394534,6.942275 q 0.796875,0 1.294922,0.1875 0.498047,0.1875 0.732422,0.4746094 0.234375,0.28125 0.328125,0.7148438 0.05273,0.2695312 0.05273,0.9726562 v 1.4062496 q 0,1.470704 0.06445,1.863282 0.07031,0.386718 0.269532,0.74414 h -1.101563 q -0.164062,-0.328125 -0.210937,-0.767578 z m -0.08789,-2.355469 q -0.574219,0.234375 -1.722656,0.398438 -0.650391,0.09375 -0.919922,0.210937 -0.2695314,0.117188 -0.4160158,0.345704 -0.1464843,0.222656 -0.1464843,0.498046 0,0.421875 0.3164062,0.703125 0.3222659,0.28125 0.9374999,0.28125 0.609375,0 1.083984,-0.263671 0.47461,-0.269532 0.697266,-0.732422 0.169922,-0.357422 0.169922,-1.054688 z"
         style="font-style:normal;font-family:Arial;-inkscape-font-specification:Arial"
         id="path918" />
      <path
         d="m 19.521487,13.305556 v -0.914062 q -0.726562,1.054687 -1.974609,1.054687 -0.550781,0 -1.03125,-0.210937 -0.47461,-0.210938 -0.708985,-0.527344 -0.228515,-0.322266 -0.322265,-0.785156 -0.06445,-0.310547 -0.06445,-0.984375 V 7.0829 h 1.054687 v 3.451172 q 0,0.826172 0.06445,1.113281 0.09961,0.416016 0.421875,0.65625 0.322266,0.234375 0.796875,0.234375 0.47461,0 0.890625,-0.240234 0.416016,-0.246094 0.585938,-0.66211 0.175781,-0.421875 0.175781,-1.21875 V 7.0829 h 1.054688 v 6.222656 z"
         style="font-style:normal;font-family:Arial;-inkscape-font-specification:Arial"
         id="path920" />
      <path
         d="m 21.701175,11.448134 1.042968,-0.164062 q 0.08789,0.626953 0.486329,0.960937 0.404296,0.333985 1.125,0.333985 0.726562,0 1.078125,-0.292969 0.351562,-0.298828 0.351562,-0.697266 0,-0.357421 -0.310547,-0.5625 Q 25.257815,10.885634 24.396487,10.668838 23.236331,10.375869 22.785159,10.164931 22.339847,9.9481344 22.105472,9.5731344 21.876956,9.192275 21.876956,8.7352438 q 0,-0.4160156 0.1875,-0.7675781 0.193359,-0.3574219 0.521484,-0.5917969 0.246094,-0.1816406 0.667969,-0.3046875 0.427734,-0.1289063 0.914063,-0.1289063 0.732421,0 1.283203,0.2109375 0.55664,0.2109375 0.820312,0.5742188 0.263672,0.3574219 0.363281,0.9609375 l -1.03125,0.140625 q -0.07031,-0.4804688 -0.410156,-0.75 -0.333984,-0.2695313 -0.949219,-0.2695313 -0.726562,0 -1.037109,0.2402344 -0.310547,0.2402344 -0.310547,0.5625 0,0.2050781 0.128906,0.3691406 0.128907,0.1699219 0.404297,0.28125 0.158203,0.058594 0.931641,0.2695313 1.119141,0.2988281 1.558594,0.4921872 0.445312,0.1875 0.697265,0.550782 0.251953,0.363281 0.251953,0.902343 0,0.527344 -0.310546,0.996094 -0.304688,0.462891 -0.884766,0.720703 -0.580078,0.251953 -1.3125,0.251953 -1.212891,0 -1.851563,-0.503906 -0.632812,-0.503906 -0.808593,-1.494141 z"
         style="font-style:normal;font-family:Arial;-inkscape-font-specification:Arial"
         id="path922" />
      <path
         d="m 27.92969,13.821181 1.025391,0.152344 q 0.06445,0.474609 0.357422,0.691406 0.392578,0.292969 1.072265,0.292969 0.732422,0 1.13086,-0.292969 0.398437,-0.292968 0.539062,-0.820312 0.08203,-0.322266 0.07617,-1.353516 -0.691406,0.814453 -1.722656,0.814453 -1.283203,0 -1.986328,-0.925781 -0.703125,-0.925781 -0.703125,-2.220703 0,-0.8906251 0.322265,-1.6406251 0.322266,-0.7558594 0.931641,-1.1660156 0.615234,-0.4101563 1.441406,-0.4101563 1.101563,0 1.816407,0.890625 v -0.75 h 0.972656 v 5.378906 q 0,1.453125 -0.298828,2.056641 -0.292969,0.609375 -0.9375,0.960937 -0.638672,0.351563 -1.576172,0.351563 -1.113281,0 -1.798828,-0.503906 -0.685547,-0.498047 -0.66211,-1.50586 z M 28.802737,10.0829 q 0,1.224609 0.486328,1.787109 0.486328,0.5625 1.21875,0.5625 0.726563,0 1.21875,-0.55664 0.492188,-0.5625 0.492188,-1.757813 0,-1.1425778 -0.509766,-1.722656 -0.503906,-0.5800781 -1.21875,-0.5800781 -0.703125,0 -1.195312,0.5742188 Q 28.802737,8.9579 28.802737,10.0829 Z"
         style="font-style:normal;font-family:Arial;-inkscape-font-specification:Arial"
         id="path924" />
      <path
         d="m 39.062503,11.30165 1.089844,0.134766 q -0.257813,0.955078 -0.955079,1.482422 -0.697265,0.527343 -1.78125,0.527343 -1.365234,0 -2.167968,-0.83789 -0.796875,-0.84375 -0.796875,-2.361328 0,-1.570313 0.808593,-2.4375005 0.808594,-0.8671875 2.097657,-0.8671875 1.248047,0 2.039062,0.8496094 0.791016,0.8496094 0.791016,2.3906246 0,0.09375 -0.0059,0.28125 h -4.640625 q 0.05859,1.025391 0.580079,1.570313 0.521484,0.544922 1.300781,0.544922 0.580078,0 0.990234,-0.304688 0.410156,-0.304687 0.650391,-0.972656 z M 35.599612,9.5965719 h 3.47461 q -0.07031,-0.7851562 -0.398438,-1.1777344 -0.503906,-0.609375 -1.306641,-0.609375 -0.726562,0 -1.224609,0.4863282 -0.492187,0.4863281 -0.544922,1.3007812 z"
         style="font-style:normal;font-family:Arial;-inkscape-font-specification:Arial"
         id="path926" />
      <path
         d="M 41.482425,13.305556 V 7.0829 h 0.949218 V 7.9676657 Q 43.11719,6.942275 44.412112,6.942275 q 0.5625,0 1.03125,0.2050782 0.47461,0.1992187 0.708985,0.5273437 0.234375,0.328125 0.328125,0.7792969 0.05859,0.2929687 0.05859,1.0253906 V 13.305556 H 45.484378 V 9.5204 q 0,-0.6445312 -0.123047,-0.9609375 -0.123047,-0.3222656 -0.439453,-0.5097656 -0.310547,-0.1933594 -0.732422,-0.1933594 -0.673828,0 -1.166016,0.4277344 -0.486328,0.4277344 -0.486328,1.6230469 v 3.3984372 z"
         style="font-style:normal;font-family:Arial;-inkscape-font-specification:Arial"
         id="path928" />
      <path
         d="m 47.769534,10.194228 q 0,-1.7285155 0.960938,-2.5605467 0.802734,-0.6914063 1.957031,-0.6914063 1.283203,0 2.097656,0.84375 0.814453,0.8378907 0.814453,2.320313 0,1.201171 -0.363281,1.892578 -0.357422,0.685547 -1.048828,1.066406 -0.685547,0.380859 -1.5,0.380859 -1.306641,0 -2.115235,-0.83789 -0.802734,-0.837891 -0.802734,-2.414063 z m 1.083984,0 q 0,1.195313 0.521485,1.792969 0.521484,0.591797 1.3125,0.591797 0.785156,0 1.30664,-0.597656 0.521485,-0.597657 0.521485,-1.822266 0,-1.154297 -0.527344,-1.7460938 -0.521484,-0.5976563 -1.300781,-0.5976563 -0.791016,0 -1.3125,0.5917969 -0.521485,0.5917969 -0.521485,1.7871092 z"
         style="font-style:normal;font-family:Arial;-inkscape-font-specification:Arial"
         id="path930" />
      <path
         d="M 54.8418,13.305556 V 7.0829 h 0.943359 v 0.8730469 q 0.292969,-0.4570312 0.779297,-0.7324219 0.486328,-0.28125 1.107422,-0.28125 0.691406,0 1.130859,0.2871094 0.445313,0.2871094 0.626953,0.8027344 0.738282,-1.0898438 1.921875,-1.0898438 0.925782,0 1.423828,0.515625 0.498047,0.5097657 0.498047,1.5761719 V 13.305556 H 62.224612 V 9.3856344 q 0,-0.6328125 -0.105469,-0.9082031 -0.09961,-0.28125 -0.36914,-0.4511719 -0.269531,-0.1699219 -0.632813,-0.1699219 -0.65625,0 -1.089843,0.4394532 -0.433594,0.4335937 -0.433594,1.3945312 V 13.305556 H 58.539065 V 9.2625875 q 0,-0.703125 -0.257812,-1.0546875 -0.257813,-0.3515625 -0.84375,-0.3515625 -0.445313,0 -0.826172,0.234375 -0.375,0.234375 -0.544922,0.6855469 -0.169922,0.4511719 -0.169922,1.3007816 v 3.228515 z"
         style="font-style:normal;font-family:Arial;-inkscape-font-specification:Arial"
         id="path932" />
      <path
         d="M 64.849612,13.305556 V 7.0829 h 0.94336 v 0.8730469 q 0.292968,-0.4570312 0.779296,-0.7324219 0.486329,-0.28125 1.107422,-0.28125 0.691407,0 1.13086,0.2871094 0.445312,0.2871094 0.626953,0.8027344 0.738281,-1.0898438 1.921875,-1.0898438 0.925781,0 1.423828,0.515625 0.498047,0.5097657 0.498047,1.5761719 V 13.305556 H 72.232425 V 9.3856344 q 0,-0.6328125 -0.105469,-0.9082031 -0.09961,-0.28125 -0.369141,-0.4511719 -0.269531,-0.1699219 -0.632812,-0.1699219 -0.65625,0 -1.089844,0.4394532 -0.433594,0.4335937 -0.433594,1.3945312 V 13.305556 H 68.546878 V 9.2625875 q 0,-0.703125 -0.257813,-1.0546875 -0.257812,-0.3515625 -0.84375,-0.3515625 -0.445312,0 -0.826172,0.234375 -0.375,0.234375 -0.544921,0.6855469 Q 65.9043,9.2274313 65.9043,10.077041 v 3.228515 z"
         style="font-style:normal;font-family:Arial;-inkscape-font-specification:Arial"
         id="path934" />
      <path
         d="m 79.11719,11.30165 1.089844,0.134766 q -0.257812,0.955078 -0.955078,1.482422 -0.697266,0.527343 -1.78125,0.527343 -1.365234,0 -2.167969,-0.83789 -0.796875,-0.84375 -0.796875,-2.361328 0,-1.570313 0.808594,-2.4375005 0.808594,-0.8671875 2.097656,-0.8671875 1.248047,0 2.039063,0.8496094 0.791015,0.8496094 0.791015,2.3906246 0,0.09375 -0.0059,0.28125 h -4.640625 q 0.05859,1.025391 0.580078,1.570313 0.521484,0.544922 1.300781,0.544922 0.580078,0 0.990235,-0.304688 0.410156,-0.304687 0.65039,-0.972656 z M 75.6543,9.5965719 h 3.474609 q -0.07031,-0.7851562 -0.398437,-1.1777344 -0.503907,-0.609375 -1.306641,-0.609375 -0.726563,0 -1.224609,0.4863282 -0.492188,0.4863281 -0.544922,1.3007812 z"
         style="font-style:normal;font-family:Arial;-inkscape-font-specification:Arial"
         id="path936" />
      <path
         d="M 81.537112,13.305556 V 7.0829 h 0.949219 V 7.9676657 Q 83.171878,6.942275 84.4668,6.942275 q 0.5625,0 1.03125,0.2050782 0.474609,0.1992187 0.708984,0.5273437 0.234375,0.328125 0.328125,0.7792969 0.05859,0.2929687 0.05859,1.0253906 V 13.305556 H 85.539065 V 9.5204 q 0,-0.6445312 -0.123047,-0.9609375 -0.123046,-0.3222656 -0.439453,-0.5097656 -0.310547,-0.1933594 -0.732422,-0.1933594 -0.673828,0 -1.166015,0.4277344 Q 82.5918,8.7118063 82.5918,9.9071188 v 3.3984372 z"
         style="font-style:normal;font-family:Arial;-inkscape-font-specification:Arial"
         id="path938" />
    </g>
  </g>
</svg>
