<?xml version="1.0" encoding="UTF-8" standalone="no"?>
<svg
   width="69.55426pt"
   height="35.776272pt"
   viewBox="0 0 69.554261 35.776272"
   version="1.1"
   id="svg3513"
   xmlns="http://www.w3.org/2000/svg"
   xmlns:svg="http://www.w3.org/2000/svg">
  <defs
     id="defs3517" />
  <g
     id="layer2"
     style="display:inline"
     transform="scale(0.74036996,1)" />
  <g
     id="layer1"
     transform="scale(1.1677087,1)">
    <rect
       style="display:inline;fill:#ffffff;stroke:none;stroke-width:0;stroke-linecap:square;stroke-miterlimit:4;stroke-dasharray:none;stroke-opacity:1"
       id="rect3621"
       width="59.564735"
       height="35.776272"
       x="0"
       y="8.8817842e-16" />
    <rect
       style="display:inline;fill:none;stroke:#000000;stroke-width:0.164154;stroke-linecap:square;stroke-miterlimit:4;stroke-dasharray:none;stroke-opacity:1"
       id="rect3621-4"
       width="58.666401"
       height="34.468613"
       x="0.486384"
       y="0.729029" />
  </g>
  <g
     id="surface1"
     transform="translate(2.1976806,2.8701407)">
    <path
       style="fill:#211e1e;fill-opacity:1;fill-rule:nonzero;stroke:none"
       d="m 64.75,25.101562 -0.289062,0.359376 h -5.464844 l 0.21875,-0.359376 H 64.75"
       id="path4695" />
    <path
       style="fill:#211e1e;fill-opacity:1;fill-rule:nonzero;stroke:none"
       d="M 62.589844,28.988281 62.375,29.347656 H 0.289062 l 0.214844,-0.359375 h 62.085938"
       id="path4697" />
    <path
       style="fill:#211e1e;fill-opacity:1;fill-rule:nonzero;stroke:none"
       d="m 38.851562,11.070312 h -24.53125 c 0,-0.07422 0,-0.144531 0,-0.21875 0,-0.214843 0.07422,-0.429687 0.214844,-0.644531 0.07422,-0.144531 0.21875,-0.289062 0.289063,-0.363281 0.144531,-0.140625 0.214843,-0.214844 0.359375,-0.285156 0.144531,-0.074219 0.289062,-0.074219 0.433594,-0.144532 0.07031,0 0.144531,0 0.214843,0 h 21.515625 c 0.07031,0 0.289063,0 0.359375,0 0.289063,0.070313 0.570313,0.214844 0.710938,0.429688 0.144531,0.144531 0.289062,0.363281 0.363281,0.578125 0,0.144531 0.07031,0.289063 0.07031,0.429687 0,0.07422 0,0.144532 0,0.21875"
       id="path4699" />
    <path
       style="fill:#211e1e;fill-opacity:1;fill-rule:nonzero;stroke:none"
       d="m 2.738281,25.101562 h 5.246094 l 0.214844,0.359376 h -5.75 l 0.289062,-0.359376"
       id="path4701" />
    <path
       style="fill:#211e1e;fill-opacity:1;fill-rule:nonzero;stroke:none"
       d="M 57.125,13.589844 H 9.785156 c 0,-0.07422 0.070313,-0.144532 0.070313,-0.144532 0.144531,-0.289062 0.289062,-0.503906 0.433593,-0.71875 0.144532,-0.21875 0.359376,-0.433593 0.574219,-0.578124 0.289063,-0.214844 0.648438,-0.429688 1.007813,-0.574219 0.289062,-0.144531 0.578125,-0.21875 0.867187,-0.21875 h 28.34375 V 10.566406 L 34.890625,6.46875 43.597656,2.652344 V 1.355469 H 42.957031 C 42.882812,1.429688 42.882812,1.429688 42.882812,1.5 V 1.644531 H 42.59375 V 1.355469 c 0,0 0,-0.070313 0.07422,-0.070313 0,-0.074218 0,-0.144531 0.07031,-0.144531 0,-0.070313 0.07422,-0.070313 0.07422,-0.070313 0.07031,-0.074218 0.07031,-0.074218 0.144531,-0.074218 h 1.574219 c 0.07422,0.074218 0.144531,0.074218 0.144531,0.074218 0.07031,0.070313 0.07031,0.070313 0.144531,0.140626 v 0.074218 c 0,0.070313 0,0.070313 0,0.070313 V 1.644531 H 44.605469 V 1.574219 c 0,-0.074219 0,-0.074219 -0.07422,-0.144531 0,0 0,0 0,-0.074219 0,0 -0.07031,0 -0.140625,0 h -0.507813 v 1.296875 l 9.066407,3.960937 -6.113281,3.953125 v 0.789063 h 6.832031 c 0.21875,0 0.503906,0.07422 0.722656,0.144531 l 0.644531,0.144531 c 0,0 0.07422,0.07422 0.144532,0.07422 l 0.07422,-0.363281 h 1.078125 c 0.07422,0 0.144531,0 0.144531,0.07422 0.07031,0 0.07031,0 0.144532,0.07031 0,0 0.07422,0 0.07422,0.07422 v 1.367187 l 0.07031,0.07031 0.144531,0.21875 c 0.07031,0.07031 0.140625,0.140625 0.140625,0.214843 0,0.07031 0.07422,0.07031 0.07422,0.144532"
       id="path4703" />
    <path
       style="fill:#211e1e;fill-opacity:1;fill-rule:nonzero;stroke:none"
       d="m 9.574219,14.316406 h 47.773437 l 0.359375,1.289063 H 56.84375 l 1.078125,4.03125 c 0,0.07422 0.07422,0.144531 0.07422,0.214843 v 0.21875 l 0.07422,0.359376 v 0.289062 l 0.140626,3.09375 0.570312,0.144531 v 1 l -0.496094,0.144531 v 0.433594 l -1.371094,0.285156 c 0,0.07422 -0.07031,0.07422 -0.07031,0.07422 -0.07031,0 -0.07031,0.07031 -0.07031,0.07031 -0.07422,0.07422 -0.07422,0.144531 0,0.144531 0,0.07031 0,0.07031 0.07031,0.144531 0,0 0.07031,0 0.144531,0 h 1.296875 l 0.496094,0.289063 h 1.296875 c 0,0 0.07031,0 0.07031,-0.07422 0,0 0.07031,0 0.07031,-0.07031 v -0.07422 l 0.07422,-0.07031 h 0.07031 c 0.07422,0 0.07422,0 0.07422,0 v 0.792969 c 0,0 0,0 -0.07422,0 0,0 0,0 -0.07031,0 0,0 0,-0.07422 -0.07422,-0.07422 0,-0.07031 0,-0.07031 0,-0.140625 0,0 0,-0.07422 -0.07031,-0.07422 -0.07031,0 -0.07031,0 -0.144532,0 H 55.83594 v 0.07422 c 0,0.07031 0,0.140625 0,0.214844 -0.07031,0.07031 -0.144532,0.140625 -0.144532,0.140625 -0.07031,0.07422 -0.07031,0.07422 -0.144531,0.07422 -0.07031,0.07031 -0.07031,0.07031 -0.140625,0.07031 -0.07422,0 -0.07422,0 -0.144531,0 H 54.39844 c 0,0.07422 0,0.144531 -0.07422,0.144531 0,0.21875 -0.07031,0.433594 -0.144531,0.648438 -0.07031,0.21875 -0.285157,0.433594 -0.433594,0.578125 -0.285156,0.140625 -0.644532,0.285156 -1.007813,0.285156 -0.429687,0 -0.863281,-0.214843 -1.148437,-0.503906 -0.21875,-0.285156 -0.433594,-0.574219 -0.433594,-0.933594 0,-0.07422 0,-0.144531 0,-0.21875 H 47.63672 c 0,0.07422 0,0.21875 -0.07422,0.289063 0,0.289062 -0.214844,0.648437 -0.429688,0.863281 -0.289062,0.289063 -0.722656,0.433594 -1.082031,0.503906 -0.503906,0 -0.9375,-0.214843 -1.292969,-0.503906 -0.21875,-0.285156 -0.363281,-0.574219 -0.363281,-0.933594 0,0 0,-0.144531 0,-0.21875 h -1.078125 c -0.07422,0 -0.07422,0 -0.144531,0 -0.07422,-0.07031 -0.144531,-0.07031 -0.214844,-0.144531 -0.07422,-0.07031 -0.07422,-0.07031 -0.144531,-0.140625 0,-0.07422 0,-0.144531 -0.07422,-0.144531 0,-0.07031 0,-0.144532 0,-0.144532 H 24.25 v 0.144532 c 0,0 0,0.144531 -0.07422,0.144531 0,0.07031 0,0.140625 -0.07031,0.140625 0,0.07422 -0.07031,0.07422 -0.144531,0.144531 -0.07031,0 -0.144532,0 -0.214844,0 h -0.71875 c 0,0.07422 0,0.144531 0,0.21875 -0.07422,0.359375 -0.21875,0.71875 -0.503906,0.933594 -0.289063,0.289063 -0.722657,0.503906 -1.082032,0.503906 -0.429687,0 -0.855468,-0.214843 -1.144531,-0.429687 -0.214844,-0.289063 -0.359375,-0.503906 -0.433594,-0.863282 0,-0.07422 -0.07031,-0.21875 -0.07031,-0.363281 h -3.527344 c 0,0.07422 0,0.21875 -0.07422,0.289063 0,0.289062 -0.144531,0.648437 -0.429687,0.863281 -0.289063,0.289063 -0.722657,0.433594 -1.152344,0.503906 -0.433594,0 -0.863281,-0.214843 -1.152344,-0.503906 -0.214843,-0.285156 -0.359375,-0.503906 -0.359375,-0.863281 0,-0.07031 0,-0.214844 0,-0.289063 h -1.800781 c -0.07031,0 -0.136719,0 -0.207031,0 -0.07422,-0.07031 -0.144532,-0.07031 -0.144532,-0.144531 -0.07422,0 -0.144531,-0.07031 -0.21875,-0.140625 0,-0.07422 0,-0.144531 0,-0.214844 V 26.75781 H 6.984375 c -0.070313,0 -0.070313,0 -0.144531,0.07422 0,0 0,0 0,0.07031 l -0.144532,0.144531 c -0.070312,0 -0.070312,0 -0.070312,0 -0.074219,0 -0.144531,0 -0.21875,0 l 0.074219,-0.792969 c 0,0 0.070312,0 0.144531,0 l 0.144531,0.144532 c 0,0 0.070313,0.07031 0.144531,0.07031 H 8.207031 L 8.570312,26.2539 h 2.15625 V 25.894531 L 9,25.675781 9.074219,25.101562 8.570312,24.957031 v -1 l 0.503907,-0.144531 0.5,-9.496094"
       id="path4705" />
    <path
       style="fill:#ffffff;fill-opacity:1;fill-rule:nonzero;stroke:none"
       d="m 46.121094,11.429688 h -4.316406 v -0.863282 h 4.316406 v 0.863282"
       id="path4707" />
    <path
       style="fill:#ffffff;fill-opacity:1;fill-rule:nonzero;stroke:none"
       d="M 51.804688,6.613281 46.410156,9.996094 H 41.371094 L 35.90625,6.539062 43.746094,2.875 51.804688,6.613281"
       id="path4709" />
    <path
       style="fill:#ffffff;fill-opacity:1;fill-rule:nonzero;stroke:none"
       d="m 12.382812,20.0625 h -2.375 C 9.9375,20.0625 9.863281,19.98828 9.792969,19.98828 9.71875,19.917969 9.71875,19.84375 9.648438,19.773438 c 0,-0.07031 0,-0.144532 0,-0.214844 l 0.359374,-4.457032 v -0.07422 c 0,-0.07031 0.07422,-0.140625 0.07422,-0.214844 0.07031,-0.07031 0.140625,-0.144531 0.214844,-0.144531 H 12.3125 c 0.07031,0 0.144531,0 0.214844,0 0.07422,0 0.07422,0.07422 0.144531,0.07422 0.07031,0.07031 0.07031,0.144531 0.07031,0.214843 0.07422,0.07031 0.07422,0.07031 0.07422,0.144531 v 4.382813 c 0,0.07422 0,0.144531 0,0.21875 -0.07422,0.07031 -0.07422,0.140625 -0.144531,0.214844 0,0.07031 -0.07031,0.07031 -0.144531,0.144531 0,0 -0.07031,0 -0.144532,0"
       id="path4711" />
    <path
       style="fill:#ffffff;fill-opacity:1;fill-rule:nonzero;stroke:none"
       d="M 17.128906,25.460938 H 13.671875 V 14.667969 h 3.457031 v 10.792969"
       id="path4713" />
    <path
       style="fill:#ffffff;fill-opacity:1;fill-rule:nonzero;stroke:none"
       d="M 21.449219,25.460938 H 17.847656 V 14.667969 h 3.601563 v 10.792969"
       id="path4715" />
    <path
       style="fill:#ffffff;fill-opacity:1;fill-rule:nonzero;stroke:none"
       d="m 29.355469,20.0625 h -6.472657 c -0.07422,0 -0.144531,-0.07422 -0.21875,-0.07422 0,-0.07031 -0.07031,-0.144531 -0.07031,-0.214843 0,-0.07031 -0.07031,-0.07031 -0.07031,-0.144532 v -4.527344 c 0,0 0.07031,-0.07422 0.07031,-0.144531 0,-0.07031 0.07031,-0.144531 0.144531,-0.214843 0.07031,0 0.144531,-0.07422 0.214844,-0.07422 0.07422,0 0.144531,0 0.144531,0 h 6.257813 c 0.144531,0 0.214843,0 0.289062,0.07422 0.07031,0.07031 0.140625,0.214843 0.140625,0.285156 0,0.07422 0,0.07422 0,0.144531 v 4.386719 c 0,0.07031 0,0.144531 0,0.144531 0,0.07031 -0.07031,0.140625 -0.07031,0.214844 -0.07031,0.07031 -0.144532,0.144531 -0.214844,0.144531 -0.07422,0 -0.07422,0 -0.144531,0"
       id="path4717" />
    <path
       style="fill:#ffffff;fill-opacity:1;fill-rule:nonzero;stroke:none"
       d="m 36.90625,20.0625 h -6.039062 c -0.07422,0 -0.144532,0 -0.144532,0 -0.07031,0 -0.214844,-0.07422 -0.214844,-0.144531 -0.07422,-0.07422 -0.144531,-0.144531 -0.144531,-0.214844 0,-0.07422 0,-0.07422 0,-0.144531 v -4.386719 c 0,0 0,-0.07031 0,-0.144531 0,-0.07031 0.07031,-0.140625 0.144531,-0.214844 0.07031,-0.07031 0.144532,-0.144531 0.214844,-0.144531 0,0 0.144532,0 0.214844,0 h 5.96875 c 0.07422,0 0.144531,0 0.214844,0 0.07422,0 0.21875,0.07422 0.289062,0.144531 0,0.07422 0.07422,0.144531 0.07422,0.289062 v 4.457032 c 0,0.07031 0,0.144531 0,0.214844 -0.07422,0.07031 -0.144531,0.144531 -0.214844,0.214843 -0.07422,0.07422 -0.148437,0.07422 -0.21875,0.07422 -0.07031,0 -0.144531,0 -0.144531,0"
       id="path4719" />
    <path
       style="fill:#ffffff;fill-opacity:1;fill-rule:nonzero;stroke:none"
       d="m 44.609375,20.0625 h -6.039063 c -0.07031,0 -0.144531,0 -0.144531,0 -0.07031,0 -0.214843,0 -0.285156,-0.07422 0,-0.07031 -0.07422,-0.144531 -0.07422,-0.285156 0,0 -0.07031,-0.07422 -0.07031,-0.144531 v -4.386719 c 0,-0.07031 0.07031,-0.144531 0.07031,-0.214844 0,-0.07031 0.07422,-0.144531 0.144532,-0.214843 0.07031,-0.07422 0.214843,-0.07422 0.289062,-0.07422 h 6.109375 c 0.07422,0 0.21875,0 0.21875,0 0.07031,0 0.144531,0.07422 0.214844,0.144531 0,0 0.07031,0.07422 0.07031,0.144531 0,0.07031 0,0.144531 0,0.214844 v 4.457031 c 0,0.144532 -0.07031,0.214844 -0.07031,0.289063 -0.07031,0.07031 -0.144531,0.07031 -0.214844,0.144531 -0.07031,0 -0.144531,0 -0.21875,0"
       id="path4721" />
    <path
       style="fill:#ffffff;fill-opacity:1;fill-rule:nonzero;stroke:none"
       d="M 52.09375,25.460938 H 47.058594 V 14.667969 h 5.035156 v 10.792969"
       id="path4723" />
    <path
       style="fill:#ffffff;fill-opacity:1;fill-rule:nonzero;stroke:none"
       d="m 56.914062,20.0625 h -3.671874 c -0.07031,0 -0.07031,0 -0.140626,0 -0.07422,0 -0.144531,-0.07422 -0.144531,-0.144531 -0.07422,0 -0.144531,-0.07422 -0.144531,-0.144531 0,-0.07031 0,-0.07031 0,-0.144532 v -2.664062 c 0,-0.07031 0,-0.144532 0,-0.214844 0,-0.214844 0.144531,-0.359375 0.214844,-0.578125 0.144531,-0.140625 0.289062,-0.285156 0.433594,-0.429687 0.214843,-0.07422 0.433593,-0.144532 0.648437,-0.144532 0.07031,-0.07031 0.144531,-0.07031 0.214844,-0.07031 h 1.441406 c 0.07031,0 0.214844,0.07031 0.285156,0.07031 0.07422,0 0.144531,0 0.21875,0.07031 0,0.07422 0.07031,0.07422 0.07031,0.144531 0.07031,0.07422 0.07031,0.21875 0.144531,0.21875 l 0.863281,3.238281 c 0,0.07422 0,0.214844 0,0.289063 0.07031,0.07031 0,0.144531 0,0.285156 -0.07031,0.07422 -0.144531,0.144531 -0.214844,0.144531 -0.07422,0.07422 -0.144531,0.07422 -0.21875,0.07422"
       id="path4725" />
  </g>
</svg>
