<?xml version="1.0" encoding="UTF-8" standalone="no"?>
<svg
   width="69.55426pt"
   height="35.776272pt"
   viewBox="0 0 69.554261 35.776272"
   version="1.1"
   id="svg3513"
   xmlns="http://www.w3.org/2000/svg"
   xmlns:svg="http://www.w3.org/2000/svg">
  <defs
     id="defs3517" />
  <g
     id="layer2"
     style="display:inline"
     transform="scale(0.74036996,1)" />
  <g
     id="layer1"
     transform="scale(1.1677087,1)">
    <rect
       style="display:inline;fill:#ffffff;stroke:none;stroke-width:0;stroke-linecap:square;stroke-miterlimit:4;stroke-dasharray:none;stroke-opacity:1"
       id="rect3621"
       width="59.564735"
       height="35.776272"
       x="0"
       y="8.8817842e-16" />
    <rect
       style="display:inline;fill:none;stroke:#000000;stroke-width:0.164154;stroke-linecap:square;stroke-miterlimit:4;stroke-dasharray:none;stroke-opacity:1"
       id="rect3621-4"
       width="58.666401"
       height="34.468613"
       x="0.486384"
       y="0.729029" />
  </g>
  <g
     id="surface1-5"
     transform="translate(5.3647884,3.4520047)">
    <path
       style="fill:#211e1e;fill-opacity:1;fill-rule:nonzero;stroke:none"
       d="m 46.84375,16.105469 v 2.097656 L 45.25,18.246094 V 19.03125 H 3.027344 c -0.117188,0 -0.25,-0.01172 -0.367188,-0.02734 C 2.40625,18.96875 2.148438,18.890625 1.925781,18.746094 1.726562,18.625 1.5625,18.46875 1.417969,18.28125 1.304688,18.132812 1.203125,17.96875 1.132812,17.789062 1.113281,17.726562 1.082031,17.640625 1.0625,17.574219 L 0.148438,17.019531 V 14.761719 L 0.828125,14.375 v -2.363281 c 0,-0.05078 0.027344,-0.457031 0.035156,-0.507813 C 0.875,11.285156 0.898438,11.011719 0.933594,10.796875 0.96875,10.554688 1.027344,10.304688 1.105469,10.078125 1.160156,9.917969 1.226562,9.769531 1.296875,9.621094 L 4.890625,2.140625 C 4.910156,2.097656 5.039062,1.914062 5.070312,1.878906 5.167969,1.726562 5.296875,1.554688 5.433594,1.441406 5.519531,1.371094 5.632812,1.292969 5.730469,1.234375 5.839844,1.171875 5.96875,1.097656 6.089844,1.0625 6.210938,1.019531 6.375,1 6.503906,0.984375 6.605469,0.976562 6.796875,0.964844 6.898438,0.964844 h 8.398437 c 0.105469,0 0.234375,0 0.34375,0.011718 0.148437,0.03125 0.304687,0.078126 0.449219,0.136719 0.121094,0.058594 0.242187,0.121094 0.347656,0.199219 0.08594,0.074219 0.164062,0.15625 0.230469,0.234375 0.07813,0.09375 0.15625,0.210937 0.199219,0.316406 0.03516,0.09375 0.05859,0.191407 0.05859,0.285157 v 13.957031 h 4.382813 v -1.621094 l 0.695312,-0.703125 h 1.097656 l 0.3125,0.296875 11.9375,-1.980469 0.0625,0.386719 9.835938,-1.628906 1.949219,-1.085938 4.839843,8.304688 c 0.08984,-0.01953 0.222657,-0.0625 0.308594,-0.08594 0.535156,-0.148437 1.109375,-0.261719 1.664063,-0.269531 2.058593,-0.02344 3.949219,1.105469 5,2.886719 1.066406,1.796875 1.078125,4.03125 0.02734,5.839843 -1.035156,1.773438 -2.933593,2.855469 -4.984374,2.863282 -2.085938,0.0078 -4.027344,-1.082032 -5.054688,-2.90625 -1.007812,-1.785156 -0.992188,-3.964844 0.01953,-5.75 0.378907,-0.671875 0.90625,-1.25 1.507813,-1.734375 0.09375,-0.07813 0.230468,-0.179688 0.328125,-0.257813 l -4.011719,-7.011718 -7.792969,4.457031 h 7.792969"
       id="path5418" />
    <path
       style="fill:#211e1e;fill-opacity:1;fill-rule:nonzero;stroke:none"
       d="M 39.046875,29.007812 H 8.851562 c -0.00781,0 -0.695312,-0.05078 -0.699218,-0.05078 C 7.980469,28.945312 7.730469,28.921875 7.566406,28.871094 7.457031,28.84375 7.25,28.742188 7.152344,28.699219 7.117188,28.679688 6.800781,28.535156 6.757812,28.515625 c -0.085937,-0.03516 -0.171874,-0.08594 -0.25,-0.136719 L 1.929688,25.714844 1.644531,25.558594 c -0.5,-0.285156 -0.9375,-0.679688 -1.222656,-1.179688 -0.582031,-1 -0.589844,-2.242187 -0.027344,-3.253906 0.277344,-0.496094 0.691407,-0.902344 1.199219,-1.167969 0.5,-0.261719 1.078125,-0.382812 1.652344,-0.414062 0.105468,-0.0078 0.21875,-0.0078 0.328125,-0.0078 l 35.535156,0.06641 h 0.53125 c 0.835937,0.01563 1.671875,0.207032 2.398437,0.621094 0.707032,0.398438 1.285157,1.007813 1.671876,1.734375 0.769531,1.464844 0.777343,3.214844 -0.0078,4.671875 -0.40625,0.757813 -1.027344,1.363282 -1.777344,1.785156 -0.628906,0.351563 -1.328125,0.558594 -2.050781,0.59375 h -0.828125"
       id="path5420" />
    <path
       style="fill:#ffffff;fill-opacity:1;fill-rule:nonzero;stroke:none"
       d="m 52.972656,23.515625 c 0,-0.578125 0.480469,-1.027344 1.058594,-1.027344 0.570312,0.0039 1.027344,0.460938 1.035156,1.035157 0,0.5625 -0.449218,1.019531 -1.015625,1.035156 -0.589843,0.01563 -1.078125,-0.457032 -1.078125,-1.042969"
       id="path5422" />
    <path
       style="fill:#ffffff;fill-opacity:1;fill-rule:nonzero;stroke:none"
       d="M 14.03125,9.148438 H 3.417969 L 6.1875,3.320312 h 7.84375 v 5.828126"
       id="path5424" />
    <path
       style="fill:#ffffff;fill-opacity:1;fill-rule:nonzero;stroke:none"
       d="M 36.234375,16.105469 H 23.929688 v -0.398438 l 11.691406,-1.921875 -0.05859,-0.40625 7.542969,-1.222656 -6.871094,3.949219"
       id="path5426" />
    <path
       style="fill:#ffffff;fill-opacity:1;fill-rule:nonzero;stroke:none"
       d="m 5.3125,22.753906 c -0.00781,1.15625 -0.929688,2.101563 -2.085938,2.113282 -1.1875,0.0078 -2.15625,-0.949219 -2.152343,-2.136719 0.00781,-1.175781 0.972656,-2.125 2.160156,-2.105469 1.15625,0.01563 2.078125,0.964844 2.078125,2.128906"
       id="path5428" />
    <path
       style="fill:#ffffff;fill-opacity:1;fill-rule:nonzero;stroke:none"
       d="m 37.464844,24.324219 c -0.0078,-1.1875 0.964844,-2.152344 2.148437,-2.136719 1.160157,0.01563 2.09375,0.957031 2.09375,2.113281 0,1.15625 -0.925781,2.105469 -2.085937,2.121094 C 38.445312,26.4375 37.472656,25.5 37.464844,24.324219"
       id="path5430" />
  </g>
</svg>
