<?xml version="1.0" encoding="UTF-8"?>
<svg xmlns="http://www.w3.org/2000/svg" xmlns:xlink="http://www.w3.org/1999/xlink" width="41pt" height="29pt" viewBox="0 0 41 29" version="1.1">
<g id="surface1">
<path style=" stroke:none;fill-rule:nonzero;fill:rgb(13.729858%,12.159729%,12.548828%);fill-opacity:1;" d="M 40.199219 15.542969 L 29.160156 26.625 C 29.046875 26.734375 28.703125 27.050781 28.578125 27.164062 C 28.386719 27.335938 28.105469 27.574219 27.867188 27.691406 C 27.597656 27.804688 27.246094 27.851562 26.960938 27.855469 L 7.441406 27.855469 C 7.195312 27.855469 6.769531 27.855469 6.539062 27.804688 C 6.257812 27.757812 5.992188 27.648438 5.769531 27.46875 C 5.546875 27.289062 5.375 27.050781 5.273438 26.796875 C 5.207031 26.632812 5.148438 26.386719 5.105469 26.214844 L 4.558594 26.214844 C 4.597656 26.46875 4.660156 26.820312 4.753906 27.058594 C 4.890625 27.386719 5.113281 27.691406 5.402344 27.914062 C 5.667969 28.117188 5.980469 28.261719 6.308594 28.332031 C 6.632812 28.40625 7.042969 28.425781 7.382812 28.425781 L 25.988281 28.425781 C 26.144531 28.425781 26.902344 28.425781 27.058594 28.410156 C 27.40625 28.394531 27.808594 28.332031 28.117188 28.179688 C 28.378906 28.066406 28.652344 27.84375 28.859375 27.65625 C 29.070312 27.46875 29.402344 27.136719 29.59375 26.941406 L 40.199219 16.292969 L 40.199219 15.542969 "/>
<path style=" stroke:none;fill-rule:nonzero;fill:rgb(13.729858%,12.159729%,12.548828%);fill-opacity:1;" d="M 40.199219 9.539062 L 40.199219 8.984375 L 28.507812 8.984375 L 23.503906 4.15625 L 2.304688 4.15625 C 2.167969 4.15625 1.84375 4.15625 1.707031 4.191406 C 1.480469 4.246094 1.277344 4.378906 1.125 4.566406 C 0.980469 4.738281 0.917969 4.960938 0.910156 5.191406 C 0.902344 5.421875 0.960938 5.660156 1.105469 5.847656 C 1.242188 6.035156 1.429688 6.164062 1.636719 6.226562 C 1.808594 6.277344 2.105469 6.292969 2.285156 6.292969 L 2.78125 6.292969 L 15.785156 19.308594 L 16.1875 18.898438 L 3.585938 6.292969 L 13.328125 6.292969 L 19.882812 12.765625 L 23.105469 9.539062 L 19.882812 6.292969 L 22.683594 6.292969 L 26.554688 10.058594 C 26.648438 10.152344 26.835938 10.332031 26.960938 10.410156 C 27.089844 10.503906 27.253906 10.578125 27.425781 10.605469 C 27.644531 10.640625 27.882812 10.589844 28.070312 10.460938 C 28.253906 10.339844 28.386719 10.152344 28.441406 9.949219 C 28.476562 9.828125 28.5 9.660156 28.507812 9.539062 L 40.199219 9.539062 "/>
<path style=" stroke:none;fill-rule:nonzero;fill:rgb(13.729858%,12.159729%,12.548828%);fill-opacity:1;" d="M 13.171875 3.6875 C 12.191406 3.679688 11.40625 2.878906 11.398438 1.886719 C 11.398438 0.886719 12.214844 0.0507812 13.230469 0.0664062 C 14.207031 0.078125 14.992188 0.886719 14.992188 1.863281 C 14.992188 2.863281 14.171875 3.695312 13.171875 3.6875 "/>
<path style=" stroke:none;fill-rule:nonzero;fill:rgb(13.729858%,12.159729%,12.548828%);fill-opacity:1;" d="M 24.351562 10.765625 L 29.6875 16.042969 L 36.21875 16.042969 C 36.40625 16.042969 36.695312 16.046875 36.875 16.09375 C 37.089844 16.148438 37.289062 16.273438 37.433594 16.4375 C 37.601562 16.644531 37.65625 16.898438 37.628906 17.164062 C 37.613281 17.394531 37.53125 17.605469 37.371094 17.777344 C 37.226562 17.933594 37.039062 18.042969 36.832031 18.09375 C 36.679688 18.136719 36.28125 18.144531 36.117188 18.144531 L 30.550781 18.144531 C 30.316406 18.144531 29.941406 18.136719 29.703125 18.113281 C 29.402344 18.09375 29.097656 18.027344 28.824219 17.921875 C 28.542969 17.804688 28.269531 17.605469 28.039062 17.410156 C 27.894531 17.28125 27.507812 16.890625 27.371094 16.753906 L 24.351562 13.757812 L 19.304688 18.847656 L 19.304688 25.976562 C 19.304688 26.144531 19.296875 26.453125 19.253906 26.613281 C 19.199219 26.84375 19.074219 27.058594 18.886719 27.195312 C 18.714844 27.316406 18.515625 27.382812 18.3125 27.386719 C 18.097656 27.394531 17.871094 27.351562 17.707031 27.238281 C 17.511719 27.113281 17.375 26.914062 17.296875 26.691406 C 17.21875 26.476562 17.203125 26.214844 17.203125 25.984375 L 17.203125 19.359375 C 17.203125 19.136719 17.203125 18.894531 17.238281 18.675781 C 17.269531 18.4375 17.332031 18.203125 17.433594 17.992188 C 17.519531 17.789062 17.636719 17.605469 17.773438 17.445312 C 17.921875 17.25 18.117188 17.042969 18.289062 16.867188 L 24.351562 10.765625 "/>
</g>
</svg>
