<?xml version="1.0" encoding="UTF-8" standalone="no"?>
<svg
   width="39.029526pt"
   height="36.138451pt"
   viewBox="0 0 39.029526 36.138451"
   version="1.1"
   id="svg3513"
   xmlns="http://www.w3.org/2000/svg"
   xmlns:svg="http://www.w3.org/2000/svg">
  <defs
     id="defs3517" />
  <g
     id="layer2"
     style="display:inline"
     transform="matrix(0.74036996,0,0,1,0.09569326,-0.14695174)" />
  <rect
     style="display:inline;fill:#ffffff;stroke:none;stroke-width:0;stroke-linecap:square;stroke-miterlimit:4;stroke-dasharray:none;stroke-opacity:1"
     id="rect3621"
     width="39.029526"
     height="36.138451"
     x="1.3877788e-17"
     y="-2.7755576e-17" />
  <rect
     style="display:inline;fill:none;stroke:#000000;stroke-width:0.133966;stroke-linecap:square;stroke-miterlimit:4;stroke-dasharray:none;stroke-opacity:1"
     id="rect3621-4"
     width="38.172791"
     height="35.281715"
     x="0.42836794"
     y="0.42836797" />
  <g
     id="surface1-8"
     transform="translate(3.9952317,3.4731862)">
    <path
       style="fill:#211e1e;fill-opacity:1;fill-rule:nonzero;stroke:none"
       d="m 10.3125,0.667969 c 0.953125,-0.523438 2.117188,-0.164063 2.65625,0.765625 0.527344,0.933594 0.21875,2.109375 -0.703125,2.65625 C 11.308594,4.664062 10.078125,4.355469 9.507812,3.398438 8.953125,2.425781 9.328125,1.195312 10.3125,0.667969"
       id="path5980" />
    <path
       style="fill:#211e1e;fill-opacity:1;fill-rule:nonzero;stroke:none"
       d="M 1.292969,24.261719 C 1.34375,24.335938 1.40625,24.445312 1.445312,24.5 1.5,24.585938 1.644531,24.796875 1.6875,24.875 c 0.074219,0.07422 0.160156,0.210938 0.21875,0.265625 0.042969,0.07422 0.15625,0.195313 0.207031,0.265625 0.027344,0.02344 0.085938,0.08203 0.109375,0.109375 l 8.15625,-4.707031 c 0.01563,-0.08203 0.01563,-0.171875 0.01563,-0.253906 -0.0078,-0.164063 0.01172,-0.324219 0.02734,-0.488282 0.02344,-0.1875 0.05859,-0.425781 0.113281,-0.621094 0.06641,-0.15625 0.132813,-0.324218 0.238282,-0.472656 0.05859,-0.07422 0.117187,-0.167968 0.179687,-0.253906 L 11.121095,18.523438 15.101563,13.613281 12.29297,8.691406 C 12.25,8.609375 12.191406,8.496094 12.15625,8.394531 12.042969,8.164062 11.933594,7.925781 11.863281,7.660156 11.78125,7.414062 11.726562,7.164062 11.726562,6.898438 11.710938,6.363281 11.855469,5.84375 12.128906,5.378906 12.371094,4.917969 12.734375,4.519531 13.171875,4.246094 13.675781,3.960938 14.238281,3.828125 14.8125,3.835938 15.171875,3.859375 15.535156,3.929688 15.878906,4.066406 16.125,4.183594 16.375,4.335938 16.605469,4.507812 l 0.253906,0.230469 4.621094,3.605469 3.285156,4.15625 2.621094,-1.476562 0.386719,0.625 -1.886719,1.09375 2.382812,4.148437 1.875,-1.042969 0.464844,0.746094 -19.007813,10.96875 c -0.04297,0.01953 -0.222656,0.128906 -0.265624,0.136719 -0.597657,0.316406 -1.253907,0.574219 -1.90625,0.777343 C 8.757812,28.640625 8.082031,28.742188 7.375,28.765625 6.675781,28.769531 5.964844,28.671875 5.273438,28.496094 4.605469,28.316406 3.957031,28.035156 3.359375,27.691406 2.738281,27.335938 2.15625,26.925781 1.6875,26.445312 1.25,26.011719 0.894531,25.542969 0.585938,25.046875 0.535156,24.960938 0.472656,24.859375 0.429688,24.78125 l 0.863281,-0.519531"
       id="path5982" />
    <path
       style="fill:#ffffff;fill-opacity:1;fill-rule:nonzero;stroke:none"
       d="m 6.46875,23.996094 1.390625,2.398437 -0.167969,0.488281 0.542969,0.101563 0.34375,0.640625 c -0.109375,0.01563 -0.25,0.03516 -0.34375,0.06641 C 7.945312,27.726562 7.664062,27.75 7.375,27.769531 6.785156,27.777344 6.144531,27.667969 5.570312,27.511719 4.984375,27.34375 4.394531,27.128906 3.875,26.855469 3.558594,26.667969 3.273438,26.480469 3.007812,26.25 2.949219,26.207031 2.875,26.128906 2.804688,26.085938 L 6.46875,23.996094"
       id="path5984" />
    <path
       style="fill:#ffffff;fill-opacity:1;fill-rule:nonzero;stroke:none"
       d="m 7.289062,23.507812 2.953126,-1.683593 -0.460938,3.734375 0.445312,0.07813 -0.429687,0.390625 -1.097656,-0.113282 -1.410157,-2.40625"
       id="path5986" />
    <path
       style="fill:#ffffff;fill-opacity:1;fill-rule:nonzero;stroke:none"
       d="m 9.746094,27.316406 -0.179688,0.06641 -0.09375,-0.125 0.0625,-0.03516 0.210938,0.09375"
       id="path5988" />
    <path
       style="fill:#ffffff;fill-opacity:1;fill-rule:nonzero;stroke:none"
       d="m 18.039062,22.816406 -6.011718,3.5 1.679687,-4.984375 C 13.710938,21.261719 13.804688,21 13.84375,20.9375 c 0.0625,-0.1875 0.128906,-0.351562 0.207031,-0.527344 0.121094,-0.230468 0.25,-0.4375 0.417969,-0.632812 L 14.75,19.425781 c 0.07813,-0.09375 0.238281,-0.332031 0.316406,-0.398437 0.08594,-0.07031 0.171875,-0.128906 0.257813,-0.183594 0.05859,-0.03125 0.125,-0.06641 0.179687,-0.09766 0.05078,-0.01172 0.101563,-0.03906 0.144532,-0.07031 l 2.390624,4.140625"
       id="path5990" />
    <path
       style="fill:#ffffff;fill-opacity:1;fill-rule:nonzero;stroke:none"
       d="m 18.902344,22.332031 -2.390625,-4.152343 6.699219,-3.859376 c 0.04297,0.01563 0.07812,0.03516 0.105468,0.05859 0.210938,0.09375 0.425782,0.105469 0.640625,0.0625 0.1875,-0.01953 0.367188,-0.113281 0.535157,-0.230468 0.136718,-0.101563 0.242187,-0.214844 0.335937,-0.335938 0.06641,-0.117188 0.125,-0.269531 0.144531,-0.40625 0.0078,-0.04687 0.0078,-0.128906 0.02344,-0.171875 l 0.03516,-0.0078 2.398438,4.148438 -8.527344,4.894531"
       id="path5992" />
    <path
       style="fill:#ffffff;fill-opacity:1;fill-rule:nonzero;stroke:none"
       d="m 15.519531,13.339844 -0.527343,-0.898438 3.738281,-2.160156 0.546875,0.871094 -3.757813,2.1875"
       id="path5994" />
    <path
       style="fill:#ffffff;fill-opacity:1;fill-rule:nonzero;stroke:none"
       d="m 21.632812,14.335938 -3.019531,-5.191407 1.371094,1.015625 2.699219,3.554688 -1.050782,0.621094"
       id="path5996" />
  </g>
</svg>
