<?xml version="1.0" encoding="UTF-8" standalone="no"?>
<svg
   width="113.12998pt"
   height="36.259609pt"
   viewBox="0 0 113.12998 36.259609"
   version="1.1"
   id="svg3513"
   xmlns="http://www.w3.org/2000/svg"
   xmlns:svg="http://www.w3.org/2000/svg">
  <defs
     id="defs3517" />
  <g
     id="layer2"
     style="display:inline"
     transform="matrix(0.74036996,0,0,1,0.12702584,-0.1225037)" />
  <rect
     style="display:inline;fill:#ffffff;stroke:none;stroke-width:0;stroke-linecap:square;stroke-miterlimit:4;stroke-dasharray:none;stroke-opacity:1"
     id="rect3621"
     width="113.12998"
     height="36.259609"
     x="2.7755576e-17"
     y="0" />
  <rect
     style="display:inline;fill:none;stroke:#000000;stroke-width:0.229313;stroke-linecap:square;stroke-miterlimit:4;stroke-dasharray:none;stroke-opacity:1"
     id="rect3621-4"
     width="111.77069"
     height="35.305103"
     x="0.67964554"
     y="0.47725242" />
  <g
     id="surface1"
     transform="translate(9.0454595,2.9594249)">
    <path
       style="fill:#211e1e;fill-opacity:1;fill-rule:nonzero;stroke:none"
       d="M 0.839844,29.34375 H 94.199219 V 23.722656 H 84.113281 c 0.308594,-0.296875 0.753907,-0.71875 0.984375,-1.074218 0.414063,-0.582032 0.640625,-1.257813 0.683594,-1.980469 0.03906,-0.632813 -0.07813,-1.273438 -0.371094,-1.839844 -0.210937,-0.40625 -0.65625,-0.929687 -0.949218,-1.277344 h 6.636718 V 14.210938 H 82.65625 c 0.152344,-0.136719 0.390625,-0.308594 0.542969,-0.46875 0.273437,-0.265626 0.503906,-0.574219 0.699219,-0.90625 0.195312,-0.332032 0.328124,-0.683594 0.410156,-1.027344 0.05469,-0.21875 0.113281,-0.507813 0.152344,-0.699219 0.15625,0 0.40625,0.01953 0.558593,0 0.214844,-0.03516 0.449219,-0.101563 0.605469,-0.230469 0.136719,-0.121094 0.230469,-0.296875 0.289062,-0.46875 0.0625,-0.171875 0.07813,-0.46875 0.07813,-0.664062 V 7.113281 c 0,-0.296875 -0.05859,-0.582031 -0.152344,-0.855469 -0.101563,-0.253906 -0.25,-0.484374 -0.46875,-0.65625 C 85.144531,5.40625 84.847656,5.289062 84.558594,5.210938 84.308594,5.15625 83.78125,5.132812 83.53125,5.109375 L 76.234375,4.6875 72.492188,1 h -14.59375 l -3.046876,3.6875 -4.460937,0.445312 c -0.210937,0.023438 -0.425781,0.058594 -0.644531,0.09375 -0.207032,0.0625 -0.421875,0.136719 -0.617188,0.25 -0.210937,0.160157 -0.367187,0.375 -0.484375,0.628907 -0.113281,0.25 -0.171875,0.539062 -0.191406,0.8125 L 48.21875,9.734375 c -0.01953,0.191406 -0.01953,0.386719 0,0.574219 0,0.160156 0.03906,0.351562 0.132812,0.488281 0.101563,0.136719 0.25,0.210937 0.410157,0.253906 0.15625,0.05859 0.410156,0.05859 0.582031,0.05859 h 2.132812 c 0.04297,0.15625 0.05469,0.410156 0.101563,0.558594 0.08984,0.425781 0.25,0.859375 0.457031,1.226562 0.238282,0.34375 0.503906,0.65625 0.835938,0.929688 0.136718,0.113281 0.367187,0.273437 0.527344,0.386719 H 42.164062 C 42.359375,14.074219 42.625,13.84375 42.804688,13.6875 c 0.269531,-0.269531 0.484374,-0.5625 0.65625,-0.894531 0.160156,-0.289063 0.296874,-0.617188 0.375,-0.929688 0.05859,-0.230469 0.117187,-0.539062 0.128906,-0.753906 0.101562,0 0.238281,-0.02344 0.332031,-0.03516 0.238281,-0.04297 0.445313,-0.125 0.621094,-0.277344 0.136719,-0.113281 0.234375,-0.269531 0.292969,-0.421875 0.07812,-0.21875 0.09375,-0.511719 0.09375,-0.742188 v -2.48437 c 0,-0.308594 -0.07031,-0.640626 -0.230469,-0.929688 -0.15625,-0.25 -0.367188,-0.464844 -0.617188,-0.605469 -0.277343,-0.148437 -0.621093,-0.25 -0.9375,-0.285156 L 42.511719,5.246094 35.179688,4.6875 31.589844,1 h -14.6875 l -3.066406,3.6875 -3.726563,0.558594 c -0.01953,0 -0.675781,0.101562 -0.71875,0.101562 C 9.160156,5.382812 8.875,5.464844 8.65625,5.601562 8.441406,5.738281 8.289062,5.925781 8.175781,6.140625 8.050781,6.355469 7.996094,6.585938 7.957031,6.816406 l -0.367187,2.875 c -0.019532,0.171875 -0.042969,0.351563 -0.042969,0.523438 0,0.160156 0.023437,0.390625 0.101563,0.527344 0.082031,0.113281 0.195312,0.207031 0.308593,0.265624 0.160157,0.06641 0.3125,0.101563 0.484375,0.101563 h 2.640625 c 0.02344,0.15625 0.05859,0.367187 0.09375,0.523437 0.101563,0.425782 0.253907,0.835938 0.492188,1.203126 0.191406,0.347656 0.445312,0.640624 0.710937,0.90625 0.160156,0.160156 0.390625,0.332031 0.570313,0.46875 H 4.503906 v 3.339843 h 7.234375 c -0.324219,0.367188 -0.8125,0.910157 -1.042969,1.320313 -0.308593,0.539062 -0.484374,1.164062 -0.484374,1.785156 0,0.675781 0.195312,1.339844 0.542968,1.898438 0.230469,0.371093 0.675782,0.851562 0.984375,1.167968 H 0.839844 v 5.621094"
       id="path6467" />
    <path
       style="fill:#ffffff;fill-opacity:1;fill-rule:nonzero;stroke:none"
       d="m 18.507812,11.117188 h 18.097657 c 0,0.148437 0.02344,0.386718 0.05859,0.558593 0.06641,0.414063 0.195313,0.816407 0.390626,1.183594 0.191406,0.351563 0.445312,0.683594 0.777343,0.949219 0.171875,0.136718 0.46875,0.292968 0.660157,0.410156 h -21.94531 c 0.195313,-0.160156 0.46875,-0.367188 0.640625,-0.523438 0.289062,-0.289062 0.542969,-0.585937 0.757812,-0.929687 0.214844,-0.355469 0.367188,-0.742187 0.46875,-1.144531 0.03516,-0.160156 0.07031,-0.367188 0.09375,-0.503906"
       id="path6469" />
    <path
       style="fill:#ffffff;fill-opacity:1;fill-rule:nonzero;stroke:none"
       d="m 58.78125,11.117188 h 18.203125 c 0.02344,0.171874 0.03906,0.464843 0.05859,0.640624 0.05859,0.386719 0.214843,0.753907 0.386719,1.085938 0.175781,0.324219 0.40625,0.65625 0.699218,0.90625 0.171875,0.160156 0.484375,0.351562 0.675782,0.46875 H 57.019531 c 0.15625,-0.117188 0.386719,-0.289062 0.539063,-0.425781 0.296875,-0.273438 0.527344,-0.5625 0.742187,-0.890625 0.230469,-0.410156 0.367188,-0.859375 0.445313,-1.304688 0.02344,-0.136718 0.03516,-0.34375 0.03516,-0.480468"
       id="path6471" />
    <path
       style="fill:#ffffff;fill-opacity:1;fill-rule:nonzero;stroke:none"
       d="m 16.261719,17.550781 h 3.914062 c -0.25,0.3125 -0.597656,0.78125 -0.789062,1.109375 -0.355469,0.597656 -0.605469,1.261719 -0.621094,1.960938 -0.02344,0.652344 0.152344,1.316406 0.480469,1.898437 0.21875,0.390625 0.644531,0.871094 0.929687,1.203125 H 16.261719 C 16.546875,23.390625 16.957031,22.886719 17.175781,22.5 17.5,21.917969 17.691406,21.273438 17.679688,20.597656 c 0,-0.640625 -0.214844,-1.296875 -0.546876,-1.863281 -0.210937,-0.367187 -0.597656,-0.851563 -0.871093,-1.183594"
       id="path6473" />
    <path
       style="fill:#ffffff;fill-opacity:1;fill-rule:nonzero;stroke:none"
       d="M 76.113281,17.550781 H 79.9375 c -0.273438,0.367188 -0.675781,0.917969 -0.871094,1.320313 -0.273437,0.558594 -0.433594,1.1875 -0.410156,1.785156 0.03516,0.757812 0.289062,1.453125 0.734375,2.058594 0.238281,0.332031 0.660156,0.734375 0.949219,1.007812 h -4.226563 c 0.308594,-0.308594 0.757813,-0.8125 0.988281,-1.179687 0.328126,-0.570313 0.488282,-1.222657 0.488282,-1.886719 0,-0.597656 -0.101563,-1.226562 -0.386719,-1.765625 C 76.96875,18.46875 76.46875,17.90625 76.113281,17.550781"
       id="path6475" />
    <path
       style="fill:#ffffff;fill-opacity:1;fill-rule:nonzero;stroke:none"
       d="m 24.621094,17.550781 h 46.871094 c -0.269532,0.3125 -0.65625,0.757813 -0.851563,1.109375 -0.351563,0.597656 -0.546875,1.261719 -0.558594,1.960938 -0.02344,0.652344 0.113281,1.316406 0.445313,1.898437 0.207031,0.390625 0.652344,0.894531 0.964844,1.203125 H 24.621094 c 0.273437,-0.332031 0.695312,-0.835937 0.914062,-1.222656 0.324219,-0.582031 0.515625,-1.226562 0.503906,-1.902344 0,-0.65625 -0.179687,-1.296875 -0.503906,-1.863281 -0.238281,-0.367187 -0.640625,-0.851563 -0.914062,-1.183594"
       id="path6477" />
  </g>
</svg>
