<?xml version="1.0" encoding="UTF-8" standalone="no"?>
<svg
   width="47pt"
   height="47.000004pt"
   viewBox="0 0 47.000001 47.000004"
   version="1.1"
   id="svg3513"
   xmlns="http://www.w3.org/2000/svg"
   xmlns:svg="http://www.w3.org/2000/svg">
  <defs
     id="defs3517">
    <clipPath
       id="clip1">
      <path
         d="M 0,0.371094 H 485.92969 V 184 H 0 Z m 0,0"
         id="path6178" />
    </clipPath>
  </defs>
  <g
     id="layer2"
     style="display:inline"
     transform="matrix(0.74036996,0,0,1,-21.137063,-89.900778)" />
  <rect
     style="fill:#ffffff;fill-opacity:1;stroke:#ffffff;stroke-width:0.150286;stroke-linecap:square;stroke-miterlimit:4;stroke-dasharray:none"
     id="rect7490"
     width="46.849712"
     height="46.849716"
     x="0.075143002"
     y="0.075143002" />
  <path
     style="fill:#1966ba;fill-opacity:1;fill-rule:nonzero;stroke:none;stroke-width:1"
     d="M 2.0823618,44.980585 V 2.4610499 H 44.6058 V 44.980585 H 2.0823618 M 18.523769,6.6251129 v 8.6406221 l -7.42578,-4.32031 -4.8437512,8.45703 7.4101562,4.31641 -7.4101562,4.32031 4.8437512,8.44922 7.42578,-4.32031 v 8.64062 H 28.1683 v -8.64062 l 7.433595,4.32031 4.839844,-8.44922 -7.429689,-4.32031 7.429689,-4.31641 -4.839844,-8.45703 -7.433595,4.32031 V 6.6251129 h -9.644531 m 6.480469,16.0156221 0.05859,-1.16406 h -0.230469 l -0.05469,1.16406 h 0.226563 m -1.445313,4.85938 -0.05469,-1.73828 -0.234376,0.0234 0.06251,1.71485 h 0.226562 m 1.058594,4.01172 0.07813,-1.46094 h -0.23047 l -0.05469,1.46094 h 0.20703 m -0.304687,2.60156 0.07813,-0.22657 0.191406,-0.59765 0.113285,-0.29297 0.117188,-0.28516 0.117188,-0.3125 0.304687,-0.59765 0.312499,-0.61719 0.09375,-0.17577 0.08203,-0.17187 0.03907,-0.13672 0.03516,-0.15233 0.01953,-0.15236 v -0.11719 l -0.01953,-0.14062 -0.03516,-0.10938 -0.03907,-0.11328 -0.05859,-0.12109 -0.06251,-0.0977 -0.07422,-0.0977 -0.171875,-0.20704 -0.234375,-0.19531 -0.425781,-0.36328 -0.171876,-0.15624 0.01953,-0.21094 0.05469,-1.44922 0.06251,-1.42578 0.05859,-1.35156 1.136719,-1.23047 0.136719,-0.17968 0.13672,-0.1875 0.03516,-0.082 0.03906,-0.0899 0.03516,-0.0977 0.03907,-0.082 0.02344,-0.0938 0.01172,-0.0937 v -0.0977 l 0.02344,-0.0781 -0.02344,-0.19141 -0.03516,-0.19531 -0.05078,-0.16015 -0.08594,-0.17187 -0.109377,-0.17186 -0.117187,-0.17189 -0.140625,-0.15624 -0.171876,-0.15234 -0.187499,-0.13672 -0.191406,-0.13281 -0.355469,-0.21094 0.02344,-0.23046 0.05859,-1.46875 0.05469,-1.46485 0.05858,-1.50391 0.07422,-1.52733 0.06249,-1.58203 -0.136719,-0.19531 -0.152342,-0.17187 -0.132814,-0.15233 -0.136719,-0.11719 -0.15625,-0.0977 -0.132812,-0.0586 -0.0586,-0.0391 h -0.07813 l -0.07422,-0.0156 h -0.136712 l -0.05859,0.0156 h -0.07422 l -0.08203,0.0391 -0.132813,0.0586 -0.136719,0.0977 -0.152343,0.11719 -0.132813,0.15233 -0.160157,0.17187 -0.132812,0.19531 0.03516,0.90625 0.136718,-0.0195 0.195313,0.0195 0.195313,0.0391 0.191406,0.0391 0.175781,0.0937 0.187501,0.11719 0.179686,0.12109 0.152344,0.14843 0.152344,0.17187 0.136719,0.21875 0.07422,0.10938 0.03907,0.12109 0.06251,0.13672 0.03516,0.10937 0.01953,0.13672 v 0.23045 l -0.04297,0.13672 -0.07422,0.13281 -0.09766,0.11718 -0.09766,0.0781 -0.152343,0.0547 -0.132813,0.0234 h -0.13672 l -0.132812,-0.0234 -0.136719,-0.0547 -0.117187,-0.0352 -0.113286,-0.043 -0.117186,-0.0391 -0.117187,-0.0156 -0.09766,-0.0234 h -0.269521 l 0.136718,3.74219 -0.03905,-0.0352 -0.09766,-0.0625 -0.09766,-0.0742 -0.08984,-0.0977 -0.195312,-0.19531 -0.08203,-0.10938 -0.08984,-0.11718 -0.08203,-0.13281 -0.171875,-0.26953 -0.132812,-0.26954 -0.13672,-0.29296 -0.113285,-0.3086 -0.06251,-0.15624 -0.03516,-0.13672 -0.03907,-0.15234 v -0.13281 l -0.01953,-0.13671 v -0.13281 l 0.01953,-0.11719 v -0.11719 l 0.03907,-0.11719 0.03516,-0.10937 0.03907,-0.0977 0.05859,-0.0977 0.06251,-0.0977 0.05469,-0.0977 0.07812,-0.0781 0.07422,-0.0586 0.07813,-0.0742 0.09766,-0.0586 0.09766,-0.0391 0.113274,-0.0547 0.09766,-0.043 0.09766,-0.0156 0.117188,-0.0234 0.132812,-0.0156 h 0.226564 l 0.136718,0.0156 h 0.136718 l 0.117188,0.0234 0.136719,0.0352 0.132812,0.0625 0.13672,0.0547 0.09766,0.0195 0.07422,0.0234 0.07813,0.0156 0.05859,-0.0156 0.05859,-0.0234 0.03516,-0.0391 0.03907,-0.0352 0.02344,-0.0625 0.01564,-0.0586 v -0.21095 l -0.03907,-0.0977 -0.03907,-0.0938 -0.01953,-0.0781 -0.07422,-0.11719 -0.113285,-0.15233 -0.121093,-0.15625 -0.136742,-0.13671 -0.132813,-0.0938 -0.152344,-0.0937 -0.136719,-0.0586 -0.152344,-0.0351 -0.160156,-0.0234 -0.148437,-0.0195 -0.15625,0.0195 -0.152343,0.0234 -0.156251,0.0351 -0.171875,0.0586 -0.132813,0.0547 -0.175781,0.082 -0.15625,0.0898 -0.249999,0.15625 -0.253907,0.19531 -0.210937,0.17186 -0.191407,0.19532 -0.152343,0.1914 -0.15625,0.21485 -0.113286,0.1875 -0.09766,0.21484 -0.09766,0.23438 -0.03907,0.1875 -0.05859,0.23437 v 0.20703 l -0.01953,0.21875 0.01953,0.23438 0.02344,0.20703 0.05078,0.21093 0.06251,0.23047 0.05859,0.21485 0.07422,0.21484 0.121095,0.1875 0.08984,0.21484 0.121094,0.21485 0.132812,0.17187 0.136719,0.19531 0.132813,0.17188 0.171875,0.17187 0.160156,0.17189 0.148437,0.17967 0.175782,0.13672 0.171875,0.13281 0.175782,0.13672 0.191411,0.13281 0.3125,0.1875 0.304689,0.19531 0.101559,0.0586 0.132812,3.57032 -0.179688,0.17186 -0.246093,0.27344 -0.132812,0.10938 -0.121095,0.13671 -0.113285,0.13672 -0.09766,0.13671 -0.09766,0.12891 -0.07422,0.13672 -0.05859,0.13281 -0.07422,0.14062 -0.04297,0.13281 -0.05469,0.13671 -0.03906,0.13281 -0.02344,0.13672 -0.01564,0.15624 v 0.40625 l 0.03906,0.13282 0.01953,0.13671 0.03906,0.13281 0.03516,0.13672 0.06251,0.13281 0.05469,0.16015 0.07813,0.13281 0.07813,0.13671 0.09375,0.14844 0.07813,0.13281 0.113285,0.16015 0.121095,0.13281 0.246093,0.26953 0.269532,0.28906 0.230468,0.21485 0.292969,6.84765 h 0.34375 l 0.06249,-1.5625 v -0.31243 M 2.8440808,3.2110499 V 44.222765 H 43.8558 V 3.2110499 H 2.8440808"
     id="path7119" />
</svg>
