<?xml version="1.0" encoding="UTF-8" standalone="no"?>
<svg
   width="69.372574pt"
   height="68.012329pt"
   viewBox="0 0 69.372575 68.012329"
   version="1.1"
   id="svg3513"
   xmlns="http://www.w3.org/2000/svg"
   xmlns:svg="http://www.w3.org/2000/svg">
  <defs
     id="defs3517">
    <clipPath
       id="clip1">
      <path
         d="M 0,0.371094 H 485.92969 V 184 H 0 Z m 0,0"
         id="path6178" />
    </clipPath>
  </defs>
  <g
     id="layer2"
     style="display:inline"
     transform="matrix(0.74036996,0,0,1,1.6313102,0.84750972)" />
  <rect
     style="display:inline;fill:#ffffff;stroke:none;stroke-width:0;stroke-linecap:square;stroke-miterlimit:4;stroke-dasharray:none;stroke-opacity:1"
     id="rect3621"
     width="69.372574"
     height="68.012329"
     x="1.110223e-16"
     y="8.6736174e-19" />
  <rect
     style="display:inline;fill:none;stroke:#000000;stroke-width:0.207135;stroke-linecap:square;stroke-miterlimit:4;stroke-dasharray:none;stroke-opacity:1"
     id="rect3621-4"
     width="68.485321"
     height="67.125069"
     x="0.44362637"
     y="0.44363022" />
  <path
     style="fill:#211e1e;fill-opacity:1;fill-rule:nonzero;stroke:none;stroke-width:0.681263"
     d="m 27.88871,5.5426008 0.694569,0.324665 0.638684,0.319342 0.644007,0.340632 0.625379,0.348614 0.588121,0.33531 0.521592,0.303374 0.526914,0.311359 0.532237,0.316681 0.526915,0.322004 0.529575,0.327325 0.524254,0.329987 0.521592,0.335309 0.51627,0.337971 0.510947,0.3432912 0.497642,0.345955 0.489657,0.348614 0.473691,0.348615 0.473691,0.353938 0.465707,0.361921 0.465707,0.367244 0.463046,0.372565 0.457724,0.377887 0.455063,0.385873 0.44974,0.388532 0.447079,0.388533 0.444418,0.396517 0.439095,0.401839 0.433773,0.401838 0.856901,0.809 0.814323,0.798355 0.4045,0.407161 0.401838,0.407162 0.396517,0.415145 0.393855,0.412483 0.393855,0.417806 0.385872,0.420467 0.385871,0.423128 0.38055,0.428451 0.375227,0.428451 0.375226,0.436433 0.367244,0.439096 0.364582,0.439095 0.361921,0.444418 0.353938,0.441757 0.348615,0.447079 0.343293,0.447078 0.343293,0.452402 0.335309,0.452401 0.335309,0.457724 0.327326,0.463046 0.324664,0.463046 0.322003,0.465707 0.316681,0.468369 0.31402,0.471029 0.308697,0.473691 0.306036,0.476352 0.300715,0.476352 0.300713,0.481674 0.29273,0.479014 0.290069,0.484335 0.282086,0.468368 0.279426,0.484335 0.282084,0.489658 0.279427,0.497642 0.284741,0.505625 0.279427,0.510948 0.279426,0.513608 0.553527,1.032539 0.274099,0.518932 0.268779,0.513608 0.266122,0.510947 0.263458,0.508287 0.255474,0.505624 0.252809,0.494981 0.244826,0.486996 0.263458,0.518931 0.271443,0.550865 0.279426,0.572155 0.282084,0.588122 0.276763,0.593444 0.266115,0.593444 0.252817,0.582799 0.236841,0.564171 0.210238,0.53756 0.210231,0.577476 0.202253,0.590784 0.194263,0.593443 0.180964,0.601428 1.721783,5.971697 c 1.120358,3.901296 -1.144311,7.970247 -5.048262,9.069316 l -6.977628,1.958631 c -1.003266,0.284747 -2.038466,-0.329987 -2.272651,-1.34922 l -2.610621,-11.326 c -0.220879,-0.952704 0.348615,-1.91073 1.288013,-2.171526 l 4.931174,-1.389138 c 0.89948,-0.255474 1.610016,-0.950043 1.881457,-1.844201 0.271439,-0.896819 0.06919,-1.868151 -0.537559,-2.578687 L 51.762193,39.382217 51.307131,38.871269 50.852068,38.373629 50.415634,37.907921 49.9792,37.447536 49.537444,36.987151 49.090365,36.526766 48.640624,36.06372 48.188223,35.600674 47.735822,35.142951 47.286081,34.69055 46.85497,34.251454 l -0.476352,-0.49498 -0.502964,-0.524254 -0.489658,-0.529575 -0.460384,-0.510947 -0.396517,-0.47103 -0.409822,-0.521592 -0.433774,-0.590783 -0.433773,-0.620056 -0.415144,-0.604089 -0.369905,-0.550865 -0.361921,-0.540221 -0.388533,-0.593443 -0.393855,-0.620057 -0.388533,-0.625377 -0.361921,-0.60675 -0.319342,-0.564171 -1.594049,-3.105602 -0.423129,-0.729165 -0.484335,-0.721181 -0.532237,-0.659973 -0.489658,-0.494981 -0.532236,-0.452401 -0.564172,-0.415145 -0.455062,-0.287407 -0.489658,-0.260797 -0.497641,-0.191605 -0.345955,-0.07717 -0.359259,-0.02927 -0.353937,0.02927 -0.436436,0.151687 -0.425789,0.252813 -0.375227,0.287408 -0.01331,0.223539 -0.250152,-0.0027 -0.106447,0.09314 -1.527519,1.825572 c -0.598767,0.713197 -1.63929,0.864884 -2.413694,0.348615 L 18.297797,14.885976 C 17.464847,14.33245 17.233324,13.20943 17.776205,12.371158 l 1.929359,-2.9831872 1.351881,-1.974598 c 1.516875,-2.208783 4.40426,-3.001816 6.83126,-1.870813 M 5.6837893,61.903777 c 0.412484,0.228862 0.915447,0.388533 1.511553,0.524253 0.596105,0.114431 1.25874,0.159671 1.993226,0.159671 1.5328427,0 2.7702937,-0.407161 3.6644507,-1.234789 0.891497,-0.824967 1.327932,-1.969276 1.327932,-3.43825 0,-0.686585 -0.09314,-1.285352 -0.298053,-1.764364 -0.207572,-0.481675 -0.502964,-0.91811 -0.846256,-1.285353 -0.345955,-0.367243 -0.758438,-0.710536 -1.237451,-1.008589 -0.481674,-0.298052 -0.984638,-0.596105 -1.511553,-0.894157 -0.3885327,-0.228863 -0.7318257,-0.436435 -1.0085887,-0.641346 -0.298053,-0.207572 -0.526915,-0.388533 -0.686586,-0.596105 -0.183621,-0.183622 -0.322003,-0.391194 -0.391193,-0.620056 -0.06653,-0.207572 -0.11177,-0.457724 -0.11177,-0.734487 0,-0.617395 0.204911,-1.144309 0.620055,-1.535503 0.409823,-0.388533 0.981978,-0.596105 1.7377527,-0.596105 0.572156,0 1.123021,0.06919 1.604695,0.207572 0.479013,0.159671 0.894158,0.319342 1.258741,0.502964 l 0.06919,-2.2008 c -0.298052,-0.11443 -0.734487,-0.252812 -1.261401,-0.367243 -0.548204,-0.11177 -1.165598,-0.183622 -1.854846,-0.183622 -0.6413447,0 -1.2347897,0.09314 -1.8096047,0.252813 -0.572155,0.183622 -1.075119,0.460385 -1.511553,0.803678 -0.433773,0.367243 -0.777066,0.801016 -1.029878,1.32793 -0.250151,0.526915 -0.388533,1.125681 -0.388533,1.812267 0,0.710536 0.09048,1.285352 0.298053,1.764365 0.204911,0.484336 0.479013,0.918109 0.822305,1.261401 0.343294,0.367244 0.734487,0.689247 1.2135,0.963349 0.460385,0.298053 0.963349,0.596106 1.490263,0.918109 0.433774,0.250151 0.8010167,0.505624 1.0990687,0.710535 0.298054,0.228862 0.526916,0.457725 0.710538,0.665297 0.159671,0.207572 0.298052,0.433773 0.367243,0.662634 0.06653,0.255474 0.09048,0.505626 0.09048,0.803678 0,0.731826 -0.250151,1.306642 -0.734487,1.743075 -0.479014,0.433774 -1.1203587,0.662636 -1.9000857,0.662636 -0.638684,0 -1.234789,-0.11177 -1.809605,-0.340632 -0.572155,-0.207573 -1.029878,-0.439095 -1.397121,-0.665296 l -0.09048,2.36047 M 19.745487,58.992442 c -0.620055,-1.10173 -0.918108,-2.613283 -0.918108,-4.51603 0,-1.170921 0.09314,-2.155559 0.298053,-2.959237 0.183621,-0.803677 0.436434,-1.466312 0.779727,-1.971937 0.319342,-0.481674 0.710536,-0.846256 1.144308,-1.077779 0.433774,-0.204912 0.915448,-0.319342 1.399784,-0.319342 1.141647,0 2.011855,0.550865 2.63191,1.652595 0.593445,1.096408 0.894159,2.610621 0.894159,4.513368 0,1.170921 -0.09314,2.15556 -0.276764,2.956576 -0.207572,0.803677 -0.457723,1.468974 -0.777066,1.950648 -0.343292,0.505625 -0.734486,0.872868 -1.170921,1.077779 -0.433772,0.228862 -0.915447,0.343293 -1.39446,0.343293 -1.144309,0 -2.017177,-0.548204 -2.610622,-1.649934 m -1.719125,1.535503 c 0.548204,0.686585 1.192211,1.192211 1.947988,1.535503 0.731825,0.364582 1.532842,0.524253 2.381759,0.524253 0.891497,0 1.716464,-0.159671 2.47224,-0.500302 0.755776,-0.345954 1.397122,-0.848917 1.945326,-1.538164 0.550865,-0.662636 0.987299,-1.532842 1.306641,-2.568043 0.298053,-1.029878 0.457724,-2.267329 0.457724,-3.667112 0,-1.351881 -0.159671,-2.522802 -0.457724,-3.52873 -0.319342,-1.008589 -0.755776,-1.857507 -1.306641,-2.546753 -0.548204,-0.665296 -1.18955,-1.192211 -1.924036,-1.535503 -0.753115,-0.343293 -1.554132,-0.505626 -2.400388,-0.505626 -0.894158,0 -1.697836,0.162333 -2.453612,0.505626 -0.753115,0.343292 -1.421073,0.848917 -1.969277,1.514213 -0.548203,0.689247 -0.984638,1.559454 -1.28269,2.589333 -0.319342,1.032539 -0.479013,2.26999 -0.479013,3.669772 0,1.351882 0.159671,2.520142 0.479013,3.528731 0.298052,1.01125 0.734487,1.857506 1.28269,2.522802 m 12.834892,1.375832 c 0.409822,0.228862 0.912786,0.388533 1.508891,0.524253 0.596106,0.114431 1.261402,0.159671 1.993227,0.159671 1.535504,0 2.770293,-0.407161 3.664451,-1.234789 0.894158,-0.824967 1.327931,-1.969276 1.327931,-3.43825 0,-0.686585 -0.09048,-1.285352 -0.298053,-1.764364 -0.207572,-0.481675 -0.502964,-0.91811 -0.848918,-1.285353 -0.343292,-0.367243 -0.755775,-0.710536 -1.234789,-1.008589 -0.479013,-0.298052 -0.984638,-0.596105 -1.511553,-0.894157 -0.388532,-0.228863 -0.731825,-0.436435 -1.008588,-0.641346 -0.295392,-0.207572 -0.526915,-0.388533 -0.686586,-0.596105 -0.183621,-0.183622 -0.319342,-0.391194 -0.388532,-0.620056 -0.06919,-0.207572 -0.114431,-0.457724 -0.114431,-0.734487 0,-0.617395 0.207572,-1.144309 0.620055,-1.535503 0.409823,-0.388533 0.981977,-0.596105 1.737754,-0.596105 0.572154,0 1.123019,0.06919 1.604693,0.207572 0.479014,0.159671 0.891497,0.319342 1.25874,0.502964 l 0.06919,-2.2008 c -0.298052,-0.11443 -0.734486,-0.252812 -1.261401,-0.367243 -0.548204,-0.11177 -1.165598,-0.183622 -1.852184,-0.183622 -0.644007,0 -1.237451,0.09314 -1.809605,0.252813 -0.574816,0.183622 -1.07778,0.460385 -1.514214,0.803678 -0.433773,0.367243 -0.777066,0.801016 -1.029878,1.32793 -0.250152,0.526915 -0.385872,1.125681 -0.385872,1.812267 0,0.710536 0.09048,1.285352 0.295391,1.764365 0.207572,0.484336 0.479013,0.918109 0.822306,1.261401 0.343293,0.367244 0.734487,0.689247 1.216161,0.963349 0.457725,0.298053 0.960688,0.596106 1.487602,0.918109 0.433773,0.250151 0.801017,0.505624 1.09907,0.710535 0.298052,0.228862 0.529575,0.457725 0.710536,0.665297 0.162332,0.207572 0.298052,0.433773 0.367243,0.662634 0.06653,0.255474 0.09048,0.505626 0.09048,0.803678 0,0.731826 -0.250151,1.306642 -0.731826,1.743075 -0.481674,0.433774 -1.123019,0.662636 -1.900085,0.662636 -0.641345,0 -1.23745,-0.11177 -1.812266,-0.340632 -0.572155,-0.207573 -1.029879,-0.439095 -1.394461,-0.665296 l -0.09048,2.36047"
     id="path7695" />
</svg>
