<?xml version="1.0" encoding="UTF-8"?>
<svg xmlns="http://www.w3.org/2000/svg" xmlns:xlink="http://www.w3.org/1999/xlink" width="122pt" height="106pt" viewBox="0 0 122 106" version="1.1">
<g id="surface1">
<path style=" stroke:none;fill-rule:nonzero;fill:rgb(93.527222%,17.272949%,18.882751%);fill-opacity:1;" d="M 5.710938 105.527344 L 116.085938 105.527344 C 119.90625 105.527344 122.292969 101.394531 120.386719 98.085938 L 65.195312 2.496094 C 63.285156 -0.8125 58.511719 -0.8125 56.601562 2.496094 L 1.414062 98.085938 C -0.496094 101.394531 1.890625 105.527344 5.710938 105.527344 "/>
<path style=" stroke:none;fill-rule:nonzero;fill:rgb(100%,100%,100%);fill-opacity:1;" d="M 14.300781 95.605469 L 107.496094 95.605469 L 60.898438 14.902344 L 14.300781 95.605469 "/>
<path style=" stroke:none;fill-rule:nonzero;fill:rgb(13.729858%,12.159729%,12.548828%);fill-opacity:1;" d="M 51.140625 42.441406 L 44.746094 46.859375 L 49.28125 52.773438 C 50.503906 53.046875 51.863281 53.382812 53.089844 53.777344 C 55.09375 54.371094 57.046875 55.445312 58.777344 56.640625 C 61.082031 58.234375 63.164062 60.207031 64.78125 62.511719 C 66.210938 64.554688 67.289062 66.839844 67.941406 69.257812 C 68.492188 71.429688 68.777344 73.847656 68.8125 76.113281 C 68.90625 80.148438 68.8125 85.832031 68.8125 89.9375 L 73.976562 85.234375 L 79.160156 89.9375 L 79.160156 77.003906 C 79.160156 73.640625 78.882812 70.167969 78.046875 66.914062 C 77.230469 63.757812 75.96875 60.722656 74.257812 57.9375 C 72.230469 54.535156 69.554688 51.527344 66.394531 49.148438 C 62.957031 46.546875 59.074219 44.445312 54.964844 43.351562 C 52.03125 42.570312 51.140625 42.441406 51.140625 42.441406 "/>
</g>
</svg>
