<?xml version="1.0" encoding="UTF-8"?>
<svg xmlns="http://www.w3.org/2000/svg" xmlns:xlink="http://www.w3.org/1999/xlink" width="121pt" height="106pt" viewBox="0 0 121 106" version="1.1">
<g id="surface1">
<path style=" stroke:none;fill-rule:nonzero;fill:rgb(93.527222%,17.272949%,18.882751%);fill-opacity:1;" d="M 5.210938 105.527344 L 115.585938 105.527344 C 119.40625 105.527344 121.792969 101.394531 119.886719 98.085938 L 64.695312 2.496094 C 62.785156 -0.8125 58.011719 -0.8125 56.101562 2.496094 L 0.910156 98.085938 C -0.996094 101.394531 1.390625 105.527344 5.210938 105.527344 "/>
<path style=" stroke:none;fill-rule:nonzero;fill:rgb(100%,100%,100%);fill-opacity:1;" d="M 13.800781 95.605469 L 106.996094 95.605469 L 60.398438 14.902344 L 13.800781 95.605469 "/>
<path style=" stroke:none;fill-rule:nonzero;fill:rgb(13.729858%,12.159729%,12.548828%);fill-opacity:1;" d="M 52.28125 89.859375 L 52.242188 66.300781 C 52.242188 66.136719 52.335938 66.007812 52.480469 65.929688 C 52.613281 65.875 52.757812 65.910156 52.871094 65.984375 L 58.78125 70.542969 C 61.914062 72.953125 66.175781 73.269531 69.621094 71.363281 C 72.777344 69.621094 74.703125 66.429688 74.738281 62.835938 L 74.738281 46.632812 L 69.679688 41.6875 L 64.640625 46.691406 L 64.640625 61.539062 C 64.640625 61.703125 64.546875 61.867188 64.398438 61.945312 C 64.230469 62.019531 64.0625 61.980469 63.933594 61.890625 L 58.246094 57.347656 C 55.003906 54.753906 50.460938 54.457031 46.90625 56.625 C 43.957031 58.421875 42.144531 61.632812 42.144531 65.09375 L 42.144531 89.878906 L 47.019531 85.167969 L 52.28125 89.859375 "/>
</g>
</svg>
