<?xml version="1.0" encoding="UTF-8"?>
<svg xmlns="http://www.w3.org/2000/svg" xmlns:xlink="http://www.w3.org/1999/xlink" width="121pt" height="106pt" viewBox="0 0 121 106" version="1.1">
<g id="surface1">
<path style=" stroke:none;fill-rule:nonzero;fill:rgb(93.527222%,17.272949%,18.882751%);fill-opacity:1;" d="M 5.210938 105.527344 L 115.585938 105.527344 C 119.40625 105.527344 121.792969 101.394531 119.886719 98.085938 L 64.695312 2.496094 C 62.785156 -0.8125 58.011719 -0.8125 56.101562 2.496094 L 0.910156 98.085938 C -0.996094 101.394531 1.390625 105.527344 5.210938 105.527344 "/>
<path style=" stroke:none;fill-rule:nonzero;fill:rgb(100%,100%,100%);fill-opacity:1;" d="M 13.800781 95.605469 L 106.996094 95.605469 L 60.398438 14.902344 L 13.800781 95.605469 "/>
<path style=" stroke:none;fill-rule:nonzero;fill:rgb(13.729858%,12.159729%,12.548828%);fill-opacity:1;" d="M 17.425781 94.183594 L 19.527344 90.660156 L 36.050781 90.660156 L 33.96875 88.207031 L 32.679688 88.261719 L 31.300781 84.46875 L 35.183594 80.882812 L 37.136719 81.453125 L 39.933594 80.09375 L 44.144531 81.433594 C 44.441406 81.542969 44.699219 81.746094 44.84375 82.003906 C 44.992188 82.261719 45.046875 82.539062 45.011719 82.832031 L 44.460938 86.699219 L 40.472656 90.652344 L 55.015625 90.652344 C 55.328125 90.191406 55.535156 89.660156 55.832031 89.199219 C 56.492188 88.1875 57.117188 87.15625 57.726562 86.109375 C 57.929688 85.742188 58.316406 85.058594 58.464844 84.65625 C 58.574219 84.359375 59.160156 82.152344 59.253906 81.820312 C 59.328125 81.582031 59.417969 81.230469 59.492188 80.992188 L 58.039062 78.710938 L 61.8125 69.566406 L 61.847656 65.996094 L 57.007812 60.988281 L 58.5 51.972656 L 59.953125 49.636719 L 61.464844 42.71875 L 68.070312 35.652344 L 69.394531 33.183594 L 104.519531 94.195312 L 17.425781 94.183594 "/>
<path style=" stroke:none;fill-rule:nonzero;fill:rgb(13.729858%,12.159729%,12.548828%);fill-opacity:1;" d="M 52.832031 39.351562 L 55.277344 38.226562 L 57.210938 39.902344 L 58.277344 39.316406 L 59.269531 41.191406 L 57.394531 45.367188 L 53.953125 45.921875 L 51.910156 43.363281 L 52.8125 41.707031 L 52.832031 39.351562 "/>
<path style=" stroke:none;fill-rule:nonzero;fill:rgb(13.729858%,12.159729%,12.548828%);fill-opacity:1;" d="M 47.21875 47.414062 L 49.648438 48.371094 L 49.996094 50.617188 L 47.234375 51.738281 L 45.304688 50.304688 L 45.15625 48.5 L 47.21875 47.414062 "/>
<path style=" stroke:none;fill-rule:nonzero;fill:rgb(13.729858%,12.159729%,12.548828%);fill-opacity:1;" d="M 50.308594 55.34375 L 53.824219 55.691406 L 53.878906 58.414062 L 54.578125 59.355469 L 51.796875 62.796875 L 50.527344 63.257812 L 49.277344 65.207031 L 46.371094 64.027344 L 45.027344 61.140625 L 50.308594 55.34375 "/>
<path style=" stroke:none;fill-rule:nonzero;fill:rgb(13.729858%,12.159729%,12.548828%);fill-opacity:1;" d="M 40.316406 66.074219 L 42.320312 66.941406 L 44.585938 66.054688 L 47.273438 67.730469 L 45.871094 71.761719 L 41.273438 74.90625 L 38.605469 73.953125 L 37.464844 67.953125 L 40.316406 66.074219 "/>
</g>
</svg>
