<?xml version="1.0" encoding="UTF-8"?>
<svg xmlns="http://www.w3.org/2000/svg" xmlns:xlink="http://www.w3.org/1999/xlink" width="121pt" height="106pt" viewBox="0 0 121 106" version="1.1">
<g id="surface1">
<path style=" stroke:none;fill-rule:nonzero;fill:rgb(93.527222%,17.272949%,18.882751%);fill-opacity:1;" d="M 115.441406 105.527344 L 5.066406 105.527344 C 1.246094 105.527344 -1.140625 101.394531 0.769531 98.085938 L 55.960938 2.496094 C 57.867188 -0.8125 62.640625 -0.8125 64.550781 2.496094 L 119.742188 98.085938 C 121.648438 101.394531 119.261719 105.527344 115.441406 105.527344 "/>
<path style=" stroke:none;fill-rule:nonzero;fill:rgb(100%,100%,100%);fill-opacity:1;" d="M 106.855469 95.605469 L 13.65625 95.605469 L 60.253906 14.902344 L 106.855469 95.605469 "/>
<path style=" stroke:none;fill-rule:nonzero;fill:rgb(13.729858%,12.159729%,12.548828%);fill-opacity:1;" d="M 103.226562 94.183594 L 101.125 90.660156 L 84.601562 90.660156 L 86.683594 88.207031 L 87.972656 88.261719 L 89.351562 84.46875 L 85.46875 80.882812 L 83.519531 81.453125 L 80.722656 80.09375 L 76.507812 81.433594 C 76.214844 81.542969 75.957031 81.746094 75.808594 82.003906 C 75.660156 82.261719 75.605469 82.539062 75.644531 82.832031 L 76.195312 86.699219 L 80.179688 90.652344 L 65.636719 90.652344 C 65.324219 90.191406 65.117188 89.660156 64.824219 89.199219 C 64.160156 88.1875 63.535156 87.15625 62.925781 86.109375 C 62.722656 85.742188 62.339844 85.058594 62.191406 84.65625 C 62.082031 84.359375 61.492188 82.152344 61.398438 81.820312 C 61.328125 81.582031 61.234375 81.230469 61.160156 80.992188 L 62.613281 78.710938 L 58.84375 69.566406 L 58.804688 65.996094 L 63.644531 60.988281 L 62.15625 51.972656 L 60.699219 49.636719 L 59.191406 42.71875 L 52.585938 35.652344 L 51.261719 33.183594 L 16.136719 94.195312 L 103.226562 94.183594 "/>
<path style=" stroke:none;fill-rule:nonzero;fill:rgb(13.729858%,12.159729%,12.548828%);fill-opacity:1;" d="M 67.824219 39.351562 L 65.375 38.226562 L 63.445312 39.902344 L 62.378906 39.316406 L 61.382812 41.191406 L 63.261719 45.367188 L 66.703125 45.921875 L 68.742188 43.363281 L 67.84375 41.707031 L 67.824219 39.351562 "/>
<path style=" stroke:none;fill-rule:nonzero;fill:rgb(13.729858%,12.159729%,12.548828%);fill-opacity:1;" d="M 73.4375 47.414062 L 71.007812 48.371094 L 70.65625 50.617188 L 73.417969 51.738281 L 75.351562 50.304688 L 75.496094 48.5 L 73.4375 47.414062 "/>
<path style=" stroke:none;fill-rule:nonzero;fill:rgb(13.729858%,12.159729%,12.548828%);fill-opacity:1;" d="M 70.34375 55.34375 L 66.832031 55.691406 L 66.777344 58.414062 L 66.078125 59.355469 L 68.855469 62.796875 L 70.125 63.257812 L 71.375 65.207031 L 74.285156 64.027344 L 75.628906 61.140625 L 70.34375 55.34375 "/>
<path style=" stroke:none;fill-rule:nonzero;fill:rgb(13.729858%,12.159729%,12.548828%);fill-opacity:1;" d="M 80.339844 66.074219 L 78.332031 66.941406 L 76.070312 66.054688 L 73.382812 67.730469 L 74.78125 71.761719 L 79.382812 74.90625 L 82.050781 73.953125 L 83.191406 67.953125 L 80.339844 66.074219 "/>
</g>
</svg>
