<?xml version="1.0" encoding="UTF-8"?>
<svg xmlns="http://www.w3.org/2000/svg" xmlns:xlink="http://www.w3.org/1999/xlink" width="121pt" height="106pt" viewBox="0 0 121 106" version="1.1">
<g id="surface1">
<path style=" stroke:none;fill-rule:nonzero;fill:rgb(93.527222%,17.272949%,18.882751%);fill-opacity:1;" d="M 5.402344 105.527344 L 115.777344 105.527344 C 119.597656 105.527344 121.984375 101.394531 120.078125 98.085938 L 64.886719 2.496094 C 62.976562 -0.808594 58.203125 -0.808594 56.296875 2.496094 L 1.105469 98.085938 C -0.804688 101.394531 1.582031 105.527344 5.402344 105.527344 "/>
<path style=" stroke:none;fill-rule:nonzero;fill:rgb(100%,100%,100%);fill-opacity:1;" d="M 13.992188 95.605469 L 107.1875 95.605469 L 60.589844 14.902344 L 13.992188 95.605469 "/>
<path style=" stroke:none;fill-rule:nonzero;fill:rgb(13.729858%,12.159729%,12.548828%);fill-opacity:1;" d="M 25.089844 81.027344 L 25.339844 81.421875 L 31.65625 81.421875 L 31.402344 81.027344 L 25.089844 81.027344 "/>
<path style=" stroke:none;fill-rule:nonzero;fill:rgb(13.729858%,12.159729%,12.548828%);fill-opacity:1;" d="M 83.097656 85.289062 C 83.933594 85.207031 84.707031 84.660156 84.707031 83.714844 C 84.707031 83.636719 84.707031 83.554688 84.707031 83.476562 L 86.949219 83.476562 C 87.199219 83.476562 87.28125 83.398438 87.363281 83.320312 C 87.445312 83.238281 87.445312 82.84375 87.445312 82.84375 L 91.765625 82.84375 L 92.179688 83.160156 C 92.179688 83.160156 92.265625 83.160156 92.347656 83.160156 L 92.347656 82.289062 L 92.179688 82.289062 L 91.765625 82.527344 L 90.351562 82.527344 L 89.855469 82.289062 L 87.445312 82.289062 L 87.445312 81.894531 L 89.359375 81.65625 L 89.359375 81.027344 L 89.855469 80.867188 L 89.855469 79.757812 L 89.277344 79.597656 L 88.691406 69.148438 L 33.542969 69.148438 L 33.214844 70.574219 L 34.128906 70.574219 L 32.878906 75.007812 C 32.878906 75.085938 32.796875 75.480469 32.796875 75.480469 L 32.628906 79.597656 L 31.96875 79.757812 L 31.96875 80.867188 L 32.546875 81.027344 L 32.546875 81.5 L 34.039062 81.8125 C 34.292969 81.894531 34.292969 81.972656 34.292969 81.972656 C 34.292969 82.050781 34.292969 82.128906 34.292969 82.128906 C 34.292969 82.289062 34.292969 82.289062 34.210938 82.289062 L 32.546875 82.289062 L 31.96875 82.605469 L 30.46875 82.605469 L 30.140625 82.289062 L 29.972656 82.289062 L 29.972656 83.160156 L 30.140625 83.160156 L 30.46875 82.84375 L 35.289062 82.84375 C 35.289062 82.84375 35.289062 83.160156 35.457031 83.320312 C 35.621094 83.476562 35.785156 83.476562 35.871094 83.476562 L 37.03125 83.476562 C 37.03125 83.554688 37.03125 84.109375 37.199219 84.425781 C 37.421875 84.855469 37.984375 85.222656 38.523438 85.289062 L 27.566406 85.289062 L 27.8125 85.683594 L 99.488281 85.683594 L 99.242188 85.289062 L 83.097656 85.289062 "/>
<path style=" stroke:none;fill-rule:nonzero;fill:rgb(13.729858%,12.159729%,12.548828%);fill-opacity:1;" d="M 54.976562 65.59375 L 83.21875 65.59375 C 83.21875 65.511719 83.21875 65.433594 83.21875 65.355469 C 83.21875 64.957031 83.132812 64.5625 82.96875 64.324219 C 82.71875 64.007812 82.300781 63.769531 81.472656 63.769531 L 56.636719 63.769531 C 56.058594 63.769531 55.644531 64.007812 55.394531 64.246094 C 55.144531 64.484375 54.976562 64.957031 54.976562 65.355469 C 54.976562 65.433594 54.976562 65.511719 54.976562 65.59375 "/>
<path style=" stroke:none;fill-rule:nonzero;fill:rgb(13.729858%,12.159729%,12.548828%);fill-opacity:1;" d="M 96.667969 81.027344 L 90.605469 81.027344 L 90.355469 81.421875 L 96.917969 81.421875 L 96.667969 81.027344 "/>
<path style=" stroke:none;fill-rule:nonzero;fill:rgb(13.729858%,12.159729%,12.548828%);fill-opacity:1;" d="M 85.042969 65.902344 L 52.402344 65.902344 L 52.402344 65.03125 L 59.460938 60.519531 L 49.410156 56.324219 L 49.410156 54.902344 L 50.242188 54.902344 C 50.324219 54.902344 50.324219 55.136719 50.324219 55.136719 L 50.324219 55.21875 L 50.574219 55.21875 L 50.574219 54.820312 C 50.574219 54.664062 50.488281 54.582031 50.488281 54.582031 C 50.40625 54.503906 50.242188 54.503906 50.242188 54.503906 L 48.496094 54.503906 C 48.496094 54.503906 48.246094 54.503906 48.164062 54.582031 C 48.082031 54.664062 48.082031 54.742188 48.082031 54.820312 C 48.082031 54.902344 48.082031 54.902344 48.082031 54.902344 L 48.082031 55.21875 L 48.328125 55.21875 L 48.328125 55.058594 C 48.328125 54.980469 48.328125 55.058594 48.328125 54.980469 C 48.328125 54.980469 48.328125 54.980469 48.410156 54.902344 L 49.078125 54.902344 L 49.078125 56.324219 L 38.695312 60.679688 L 45.671875 65.03125 L 45.671875 65.902344 L 37.863281 65.902344 C 37.53125 65.902344 37.285156 65.980469 36.953125 66.058594 L 36.121094 66.296875 L 36.039062 65.902344 L 34.710938 65.902344 C 34.710938 65.902344 34.542969 65.902344 34.457031 65.980469 C 34.375 66.058594 34.375 66.21875 34.375 66.21875 L 34.375 67.644531 L 34.042969 67.960938 C 33.960938 68.039062 33.960938 68.039062 33.878906 68.121094 C 33.878906 68.199219 33.878906 68.277344 33.878906 68.355469 L 88.53125 68.355469 C 88.445312 68.277344 87.617188 65.902344 85.042969 65.902344 "/>
<path style=" stroke:none;fill-rule:nonzero;fill:rgb(100%,100%,100%);fill-opacity:1;" d="M 85.453125 75.484375 L 88.113281 75.484375 C 88.195312 75.484375 88.195312 75.484375 88.277344 75.484375 C 88.359375 75.484375 88.445312 75.484375 88.527344 75.40625 C 88.609375 75.328125 88.609375 75.246094 88.609375 75.167969 C 88.609375 75.089844 88.609375 75.011719 88.609375 74.929688 L 88.195312 70.023438 L 88.195312 69.945312 C 88.195312 69.863281 88.195312 69.707031 88.113281 69.628906 C 88.113281 69.628906 88.03125 69.546875 87.945312 69.546875 C 87.859375 69.546875 87.859375 69.546875 87.777344 69.546875 L 85.371094 69.546875 C 85.203125 69.546875 85.121094 69.628906 85.121094 69.628906 C 85.039062 69.707031 85.039062 69.785156 85.039062 69.863281 C 85.039062 69.945312 85.039062 69.945312 85.039062 70.023438 L 85.039062 75.089844 C 85.039062 75.167969 85.039062 75.328125 85.121094 75.40625 C 85.203125 75.484375 85.453125 75.484375 85.453125 75.484375 "/>
<path style=" stroke:none;fill-rule:nonzero;fill:rgb(100%,100%,100%);fill-opacity:1;" d="M 79.976562 81.421875 L 84.042969 81.421875 L 84.042969 69.546875 L 79.976562 69.546875 L 79.976562 81.421875 "/>
<path style=" stroke:none;fill-rule:nonzero;fill:rgb(100%,100%,100%);fill-opacity:1;" d="M 75.078125 81.421875 L 79.144531 81.421875 L 79.144531 69.546875 L 75.078125 69.546875 L 75.078125 81.421875 "/>
<path style=" stroke:none;fill-rule:nonzero;fill:rgb(100%,100%,100%);fill-opacity:1;" d="M 48.242188 75.484375 L 55.390625 75.484375 C 55.390625 75.484375 55.636719 75.484375 55.800781 75.328125 C 55.886719 75.246094 55.886719 75.011719 55.886719 74.929688 L 55.886719 70.101562 C 55.886719 70.023438 55.886719 69.785156 55.800781 69.707031 C 55.636719 69.46875 55.21875 69.546875 55.21875 69.546875 L 48.078125 69.546875 C 48.078125 69.546875 47.910156 69.546875 47.828125 69.628906 C 47.664062 69.707031 47.746094 70.023438 47.746094 70.101562 L 47.746094 74.851562 C 47.746094 74.851562 47.746094 75.246094 47.828125 75.328125 C 47.996094 75.484375 48.160156 75.484375 48.242188 75.484375 "/>
<path style=" stroke:none;fill-rule:nonzero;fill:rgb(100%,100%,100%);fill-opacity:1;" d="M 39.691406 81.421875 L 45.425781 81.421875 L 45.425781 69.546875 L 39.691406 69.546875 L 39.691406 81.421875 "/>
<path style=" stroke:none;fill-rule:nonzero;fill:rgb(100%,100%,100%);fill-opacity:1;" d="M 34.128906 75.484375 L 38.363281 75.484375 C 38.363281 75.484375 38.53125 75.484375 38.695312 75.40625 C 38.863281 75.328125 38.863281 75.089844 38.863281 75.011719 L 38.863281 72.078125 C 38.863281 71.609375 38.777344 71.210938 38.449219 70.894531 C 38.117188 70.578125 37.53125 70.5 37.117188 70.5 L 35.375 70.5 C 35.289062 70.5 35.042969 70.5 34.875 70.65625 C 34.710938 70.816406 34.628906 71.054688 34.628906 71.054688 L 33.628906 74.613281 C 33.628906 74.691406 33.464844 74.929688 33.628906 75.246094 C 33.628906 75.328125 33.796875 75.484375 34.128906 75.484375 "/>
<path style=" stroke:none;fill-rule:nonzero;fill:rgb(100%,100%,100%);fill-opacity:1;" d="M 46.582031 65.980469 L 51.566406 65.980469 L 51.566406 65.03125 L 46.582031 65.03125 L 46.582031 65.980469 "/>
<path style=" stroke:none;fill-rule:nonzero;fill:rgb(100%,100%,100%);fill-opacity:1;" d="M 40.023438 60.679688 L 46.253906 64.402344 L 52.066406 64.402344 L 58.296875 60.601562 L 49.242188 56.5625 L 40.023438 60.679688 "/>
<path style=" stroke:none;fill-rule:nonzero;fill:rgb(100%,100%,100%);fill-opacity:1;" d="M 46.265625 85.289062 L 38.925781 85.289062 C 39.382812 85.246094 39.90625 85.082031 40.191406 84.742188 C 40.519531 84.425781 40.6875 83.953125 40.6875 83.476562 L 44.757812 83.476562 C 44.757812 83.628906 44.757812 85.144531 46.265625 85.289062 "/>
<path style=" stroke:none;fill-rule:nonzero;fill:rgb(100%,100%,100%);fill-opacity:1;" d="M 74.832031 85.289062 L 46.769531 85.289062 C 48.496094 85.144531 48.496094 83.628906 48.496094 83.476562 L 49.90625 83.476562 C 50.070312 83.398438 50.320312 83.238281 50.320312 83.160156 C 50.402344 83.082031 50.484375 82.84375 50.484375 82.84375 L 71.835938 82.84375 L 71.835938 83.160156 C 71.917969 83.238281 71.917969 83.320312 72 83.320312 C 72 83.398438 72.082031 83.398438 72.164062 83.476562 C 72.246094 83.476562 72.332031 83.476562 72.414062 83.476562 L 73.246094 83.476562 C 73.246094 84.292969 73.679688 85.179688 74.832031 85.289062 "/>
<path style=" stroke:none;fill-rule:nonzero;fill:rgb(100%,100%,100%);fill-opacity:1;" d="M 82.617188 85.289062 L 75.335938 85.289062 C 77.132812 85.136719 76.980469 83.476562 76.980469 83.476562 L 81.054688 83.476562 C 81.054688 83.554688 81.054688 83.554688 81.054688 83.636719 C 81.054688 84.449219 81.484375 85.191406 82.617188 85.289062 "/>
<path style=" stroke:none;fill-rule:nonzero;fill:rgb(100%,100%,100%);fill-opacity:1;" d="M 57.085938 75.515625 L 64.230469 75.515625 C 64.230469 75.515625 64.480469 75.515625 64.644531 75.355469 C 64.726562 75.277344 64.726562 75.039062 64.726562 74.960938 L 64.726562 70.132812 C 64.726562 70.050781 64.726562 69.816406 64.644531 69.734375 C 64.480469 69.496094 64.0625 69.578125 64.0625 69.578125 L 56.917969 69.578125 C 56.917969 69.578125 56.753906 69.578125 56.671875 69.65625 C 56.503906 69.734375 56.589844 70.050781 56.589844 70.132812 L 56.589844 74.878906 C 56.589844 74.878906 56.589844 75.277344 56.671875 75.355469 C 56.835938 75.515625 57.003906 75.515625 57.085938 75.515625 "/>
<path style=" stroke:none;fill-rule:nonzero;fill:rgb(100%,100%,100%);fill-opacity:1;" d="M 65.898438 75.492188 L 73.042969 75.492188 C 73.042969 75.492188 73.292969 75.492188 73.457031 75.335938 C 73.539062 75.253906 73.539062 75.015625 73.539062 74.9375 L 73.539062 70.109375 C 73.539062 70.03125 73.539062 69.792969 73.457031 69.714844 C 73.292969 69.476562 72.875 69.554688 72.875 69.554688 L 65.730469 69.554688 C 65.730469 69.554688 65.566406 69.554688 65.484375 69.636719 C 65.316406 69.714844 65.402344 70.03125 65.402344 70.109375 L 65.402344 74.859375 C 65.402344 74.859375 65.402344 75.253906 65.484375 75.335938 C 65.648438 75.492188 65.816406 75.492188 65.898438 75.492188 "/>
</g>
</svg>
