<?xml version="1.0" encoding="UTF-8"?>
<svg xmlns="http://www.w3.org/2000/svg" xmlns:xlink="http://www.w3.org/1999/xlink" width="121pt" height="106pt" viewBox="0 0 121 106" version="1.1">
<g id="surface1">
<path style=" stroke:none;fill-rule:nonzero;fill:rgb(93.527222%,17.272949%,18.882751%);fill-opacity:1;" d="M 5.402344 105.527344 L 115.777344 105.527344 C 119.597656 105.527344 121.984375 101.394531 120.078125 98.085938 L 64.886719 2.496094 C 62.976562 -0.808594 58.203125 -0.808594 56.296875 2.496094 L 1.105469 98.085938 C -0.804688 101.394531 1.582031 105.527344 5.402344 105.527344 "/>
<path style=" stroke:none;fill-rule:nonzero;fill:rgb(100%,100%,100%);fill-opacity:1;" d="M 13.992188 95.605469 L 107.1875 95.605469 L 60.589844 14.902344 L 13.992188 95.605469 "/>
<path style=" stroke:none;fill-rule:nonzero;fill:rgb(13.729858%,12.159729%,12.548828%);fill-opacity:1;" d="M 46.914062 89.226562 L 46.910156 55.449219 C 46.894531 55.441406 46.730469 55.332031 46.707031 55.316406 C 46.527344 55.175781 46.382812 55.003906 46.304688 54.792969 C 46.191406 54.460938 46.246094 54.125 46.421875 53.824219 C 46.605469 53.507812 46.9375 53.289062 47.300781 53.226562 C 47.605469 53.171875 47.949219 53.242188 48.203125 53.425781 C 48.324219 53.507812 48.523438 53.730469 48.507812 53.730469 L 60.097656 51.070312 C 60.117188 51.066406 60.136719 51.0625 60.152344 51.058594 L 60.425781 51.011719 C 60.609375 50.984375 60.855469 50.953125 61.042969 50.960938 C 61.25 50.96875 61.472656 51.019531 61.664062 51.105469 L 62.210938 51.472656 L 83.773438 69.171875 C 83.777344 69.179688 84.265625 69.628906 84.332031 69.746094 C 84.429688 69.910156 84.488281 70.074219 84.507812 70.261719 C 84.550781 70.738281 84.367188 71.300781 84.226562 71.78125 C 84.019531 72.449219 83.675781 73.304688 83.367188 73.933594 C 83.195312 74.285156 82.511719 75.367188 82.292969 75.703125 C 81.988281 76.171875 81.378906 76.976562 81.007812 77.382812 C 80.867188 77.527344 80.695312 77.6875 80.507812 77.78125 C 80.25 77.914062 79.910156 77.9375 79.617188 77.917969 C 79.441406 77.90625 79.164062 77.832031 79.003906 77.777344 L 52.394531 68.703125 L 51.835938 68.476562 C 51.65625 68.367188 51.484375 68.179688 51.378906 67.980469 C 51.34375 67.917969 51.265625 67.695312 51.234375 67.613281 L 48.308594 58.003906 L 48.308594 89.226562 L 46.914062 89.226562 "/>
<path style=" stroke:none;fill-rule:nonzero;fill:rgb(100%,100%,100%);fill-opacity:1;" d="M 59.109375 52.320312 L 48.636719 54.699219 L 48.320312 55.292969 L 51.347656 65.015625 C 51.988281 62.585938 52.980469 60.261719 54.289062 58.113281 C 55.609375 55.957031 57.230469 54.007812 59.109375 52.320312 "/>
<path style=" stroke:none;fill-rule:nonzero;fill:rgb(100%,100%,100%);fill-opacity:1;" d="M 65.707031 70.648438 C 65.523438 70.832031 65.109375 71.238281 64.867188 71.335938 C 64.625 71.453125 64.320312 71.5625 64.078125 71.574219 C 63.761719 71.609375 63.398438 71.542969 63.082031 71.433594 L 59.335938 70.144531 C 61.363281 68.253906 63.070312 66.042969 64.394531 63.601562 C 65.605469 61.355469 66.476562 58.9375 66.972656 56.429688 L 70.453125 59.273438 C 70.496094 59.308594 70.625 59.410156 70.664062 59.449219 C 70.757812 59.535156 70.835938 59.652344 70.902344 59.765625 C 70.976562 59.894531 71.03125 60.035156 71.050781 60.179688 C 71.078125 60.339844 71.078125 60.503906 71.054688 60.660156 C 71.042969 60.78125 71.023438 60.914062 71 61.035156 C 70.640625 62.746094 69.992188 64.40625 69.171875 65.949219 C 68.257812 67.679688 67.09375 69.265625 65.707031 70.648438 "/>
<path style=" stroke:none;fill-rule:nonzero;fill:rgb(100%,100%,100%);fill-opacity:1;" d="M 52.457031 63.765625 C 52.289062 64.269531 52.132812 64.796875 51.996094 65.304688 C 51.910156 65.644531 51.847656 65.996094 51.808594 66.34375 C 51.78125 66.644531 51.71875 67.003906 51.847656 67.292969 C 51.929688 67.476562 52.101562 67.617188 52.304688 67.664062 C 52.570312 67.742188 52.941406 67.683594 53.191406 67.574219 C 55.617188 66.457031 57.679688 63.613281 59.007812 61.292969 C 60.386719 58.894531 61.324219 56.265625 61.738281 53.527344 C 61.777344 53.285156 61.804688 53.019531 61.804688 52.773438 C 61.804688 52.605469 61.78125 52.4375 61.726562 52.28125 C 61.632812 51.996094 61.238281 51.855469 60.917969 51.910156 C 60.703125 51.953125 60.433594 52.113281 60.25 52.238281 C 58.992188 53.085938 57.894531 54.246094 56.933594 55.429688 C 56.128906 56.410156 55.316406 57.527344 54.714844 58.648438 C 53.890625 60.183594 53.082031 62.144531 52.457031 63.765625 "/>
<path style=" stroke:none;fill-rule:nonzero;fill:rgb(100%,100%,100%);fill-opacity:1;" d="M 75.734375 75.132812 C 75.492188 75.367188 75.117188 75.488281 74.804688 75.421875 L 70.3125 73.882812 C 71.75 72.355469 72.988281 70.652344 74 68.816406 C 74.859375 67.253906 75.546875 65.59375 76.050781 63.886719 L 79.289062 66.558594 L 79.667969 66.941406 C 79.8125 67.199219 79.777344 67.523438 79.730469 67.808594 C 79.53125 69.113281 79.152344 70.445312 78.503906 71.59375 C 77.769531 72.902344 76.820312 74.089844 75.734375 75.132812 "/>
</g>
</svg>
