<?xml version="1.0" encoding="UTF-8"?>
<svg xmlns="http://www.w3.org/2000/svg" xmlns:xlink="http://www.w3.org/1999/xlink" width="86pt" height="86pt" viewBox="0 0 86 86" version="1.1">
<g id="surface1">
<path style=" stroke:none;fill-rule:nonzero;fill:rgb(93.527222%,17.272949%,18.882751%);fill-opacity:1;" d="M 42.523438 0.648438 C 66.007812 0.648438 85.042969 19.683594 85.042969 43.167969 C 85.042969 66.652344 66.007812 85.6875 42.523438 85.6875 C 19.042969 85.6875 0.00390625 66.652344 0.00390625 43.167969 C 0.00390625 19.683594 19.042969 0.648438 42.523438 0.648438 "/>
<path style=" stroke:none;fill-rule:nonzero;fill:rgb(100%,100%,100%);fill-opacity:1;" d="M 14.394531 39.621094 L 70.65625 39.621094 C 70.335938 37.042969 69.667969 34.550781 68.648438 32.136719 C 67.214844 28.75 65.191406 25.746094 62.570312 23.125 C 59.949219 20.503906 56.941406 18.476562 53.554688 17.042969 C 50.050781 15.5625 46.375 14.824219 42.523438 14.824219 C 38.671875 14.824219 34.996094 15.5625 31.492188 17.042969 C 28.105469 18.476562 25.101562 20.503906 22.480469 23.125 C 19.863281 25.746094 17.835938 28.75 16.398438 32.136719 C 15.378906 34.550781 14.710938 37.042969 14.394531 39.621094 "/>
<path style=" stroke:none;fill-rule:nonzero;fill:rgb(100%,100%,100%);fill-opacity:1;" d="M 70.65625 46.710938 L 14.394531 46.710938 C 14.710938 49.289062 15.378906 51.78125 16.398438 54.199219 C 17.835938 57.585938 19.863281 60.59375 22.480469 63.214844 C 25.101562 65.832031 28.105469 67.855469 31.492188 69.292969 C 34.996094 70.773438 38.671875 71.515625 42.523438 71.515625 C 46.375 71.515625 50.050781 70.773438 53.554688 69.292969 C 56.941406 67.855469 59.949219 65.832031 62.570312 63.214844 C 65.191406 60.59375 67.214844 57.585938 68.648438 54.199219 C 69.667969 51.78125 70.335938 49.289062 70.65625 46.710938 "/>
<path style=" stroke:none;fill-rule:nonzero;fill:rgb(13.729858%,12.159729%,12.548828%);fill-opacity:1;" d="M 54.121094 32.738281 L 54.121094 36.265625 C 54.121094 36.324219 54.121094 36.390625 54.113281 36.453125 C 54.109375 36.515625 54.09375 36.605469 54.058594 36.660156 C 54.019531 36.714844 53.949219 36.75 53.886719 36.769531 C 53.816406 36.785156 53.734375 36.789062 53.664062 36.789062 L 52.285156 36.789062 C 52.230469 36.789062 52.160156 36.785156 52.101562 36.773438 C 52.042969 36.753906 51.972656 36.726562 51.933594 36.675781 C 51.902344 36.636719 51.882812 36.585938 51.878906 36.535156 C 51.863281 36.464844 51.855469 36.390625 51.855469 36.316406 L 51.855469 33.101562 C 51.777344 33.109375 51.636719 33.140625 51.558594 33.144531 C 50.320312 33.339844 48.277344 33.402344 47.019531 33.425781 C 46.289062 33.445312 43.109375 33.511719 42.375 33.511719 C 40.96875 33.511719 39.464844 33.46875 38.050781 33.414062 C 36.734375 33.367188 34.921875 33.273438 33.601562 33.199219 L 33.300781 33.183594 L 33.300781 36.460938 C 33.289062 36.542969 33.265625 36.628906 33.214844 36.683594 C 33.167969 36.734375 33.109375 36.769531 33.046875 36.785156 C 33.019531 36.789062 32.824219 36.789062 32.796875 36.789062 L 31.496094 36.789062 C 31.476562 36.789062 31.355469 36.789062 31.332031 36.785156 C 31.261719 36.773438 31.183594 36.738281 31.132812 36.679688 C 31.082031 36.625 31.0625 36.535156 31.054688 36.457031 C 31.054688 36.441406 31.054688 36.269531 31.054688 36.246094 L 31.054688 32.707031 L 30.121094 32.710938 C 30.089844 32.710938 29.933594 32.71875 29.902344 32.707031 C 29.824219 32.691406 29.753906 32.652344 29.695312 32.59375 C 29.644531 32.542969 29.605469 32.472656 29.589844 32.402344 C 29.566406 32.316406 29.570312 32.144531 29.574219 32.046875 C 29.601562 31.683594 29.582031 31.164062 29.566406 30.796875 C 29.550781 30.386719 29.519531 29.800781 29.484375 29.394531 C 29.433594 28.863281 29.347656 28.320312 29.210938 27.800781 C 29.183594 27.691406 29.097656 27.402344 29.085938 27.292969 C 29.046875 27.042969 29.054688 26.789062 29.097656 26.539062 C 29.144531 26.273438 29.226562 26.003906 29.351562 25.761719 C 29.554688 25.378906 29.863281 25.054688 30.226562 24.800781 C 30.480469 24.628906 30.78125 24.484375 31.085938 24.425781 C 31.140625 24.414062 31.222656 24.40625 31.28125 24.394531 L 34.972656 19.558594 C 35.019531 19.507812 35.0625 19.457031 35.109375 19.410156 C 35.160156 19.359375 35.226562 19.304688 35.296875 19.273438 C 35.382812 19.230469 35.496094 19.21875 35.59375 19.214844 C 35.632812 19.214844 35.769531 19.214844 35.8125 19.214844 L 49.257812 19.214844 C 49.324219 19.214844 49.414062 19.214844 49.484375 19.21875 C 49.570312 19.226562 49.667969 19.242188 49.753906 19.277344 C 49.835938 19.308594 49.90625 19.363281 49.96875 19.425781 C 49.976562 19.433594 50.109375 19.597656 50.121094 19.613281 L 53.933594 24.433594 C 54.007812 24.457031 54.121094 24.492188 54.195312 24.519531 C 54.449219 24.605469 54.699219 24.726562 54.917969 24.882812 C 55.222656 25.097656 55.472656 25.382812 55.65625 25.707031 C 55.847656 26.039062 55.96875 26.414062 55.988281 26.796875 C 56.003906 27.085938 55.898438 27.671875 55.847656 27.957031 C 55.785156 28.273438 55.730469 28.628906 55.691406 28.949219 C 55.644531 29.285156 55.597656 29.65625 55.5625 30 C 55.539062 30.300781 55.511719 30.617188 55.507812 30.917969 C 55.496094 31.253906 55.507812 31.582031 55.539062 31.90625 C 55.546875 32.003906 55.558594 32.191406 55.554688 32.289062 C 55.546875 32.390625 55.527344 32.503906 55.46875 32.585938 C 55.417969 32.65625 55.34375 32.710938 55.257812 32.734375 C 55.222656 32.742188 55.09375 32.742188 55.054688 32.742188 L 54.121094 32.738281 "/>
<path style=" stroke:none;fill-rule:nonzero;fill:rgb(13.729858%,12.159729%,12.548828%);fill-opacity:1;" d="M 44.894531 62.695312 L 39.410156 62.730469 C 39.296875 62.730469 39.1875 62.730469 39.109375 62.730469 C 39.039062 62.695312 38.964844 62.695312 38.925781 62.660156 C 38.816406 62.621094 38.738281 62.585938 38.699219 62.515625 C 38.664062 62.441406 38.628906 62.367188 38.628906 62.296875 C 38.628906 62.222656 38.628906 62.152344 38.628906 62.078125 C 38.664062 62.007812 38.699219 61.933594 38.777344 61.863281 C 38.777344 61.828125 38.886719 61.753906 38.925781 61.753906 C 38.964844 61.71875 39 61.683594 39.039062 61.644531 L 37.730469 59.945312 C 37.730469 59.945312 37.621094 59.726562 37.433594 59.800781 C 37.285156 59.835938 37.285156 60.054688 37.285156 60.054688 L 37.246094 61.101562 C 37.246094 61.140625 37.246094 61.246094 37.210938 61.285156 C 37.210938 61.320312 37.210938 61.390625 37.175781 61.390625 C 37.136719 61.425781 36.910156 61.5 36.835938 61.5 C 36.800781 61.5 36.765625 61.464844 36.722656 61.464844 C 36.722656 61.535156 36.6875 61.570312 36.6875 61.644531 C 36.054688 64.464844 32.25 65.296875 30.273438 63.382812 C 29.117188 62.296875 28.632812 60.597656 29.5625 59.003906 C 29.601562 58.933594 29.675781 58.824219 29.75 58.789062 L 29.5625 58.679688 C 29.5625 58.644531 29.492188 58.574219 29.492188 58.535156 C 29.492188 58.5 29.492188 58.464844 29.492188 58.390625 C 29.527344 58.351562 29.5625 58.246094 29.640625 58.210938 C 29.828125 57.992188 30.050781 57.777344 30.273438 57.632812 C 30.535156 57.414062 30.835938 57.269531 31.167969 57.125 C 31.46875 56.980469 31.839844 56.839844 32.171875 56.796875 C 32.472656 56.726562 32.773438 56.691406 33.105469 56.726562 C 33.222656 56.726562 33.59375 56.761719 33.632812 56.761719 L 33.632812 56.007812 C 33.632812 55.964844 33.632812 55.824219 33.703125 55.75 C 33.78125 55.679688 33.96875 55.679688 34.003906 55.714844 C 34.113281 55.75 34.378906 55.824219 34.378906 55.824219 C 34.414062 55.785156 34.488281 55.714844 34.523438 55.679688 C 34.601562 55.605469 34.675781 55.535156 34.746094 55.5 C 34.898438 55.355469 35.121094 55.28125 35.34375 55.246094 C 35.757812 55.210938 36.089844 55.28125 36.464844 55.390625 L 36.910156 55.535156 C 36.953125 55.5 37.433594 55.320312 37.546875 55.320312 C 37.65625 55.320312 37.808594 55.320312 37.917969 55.355469 C 38.066406 55.390625 38.851562 55.570312 38.925781 55.570312 C 38.964844 55.570312 39.039062 55.535156 39.074219 55.5 L 38.851562 54.667969 C 38.816406 54.59375 38.664062 54.304688 38.664062 54.265625 C 38.628906 54.195312 38.589844 54.125 38.589844 54.050781 C 38.554688 53.980469 38.554688 53.90625 38.515625 53.835938 C 38.515625 53.800781 38.515625 53.761719 38.515625 53.726562 C 38.476562 53.726562 38.40625 53.761719 38.367188 53.761719 C 38.289062 53.800781 38.21875 53.835938 38.179688 53.835938 C 38.144531 53.835938 38.105469 53.800781 38.03125 53.800781 C 37.996094 53.761719 37.957031 53.726562 37.957031 53.691406 C 37.917969 53.65625 37.882812 53.582031 37.882812 53.507812 C 37.84375 53.472656 37.84375 53.433594 37.808594 53.398438 C 37.769531 53.363281 37.730469 53.328125 37.695312 53.292969 C 37.695312 53.292969 37.65625 53.292969 37.621094 53.292969 C 37.585938 53.292969 37.546875 53.292969 37.546875 53.292969 L 37.398438 53.292969 C 37.363281 53.292969 37.324219 53.292969 37.324219 53.292969 C 37.285156 53.257812 37.246094 53.257812 37.210938 53.21875 C 37.210938 53.183594 37.210938 53.113281 37.210938 53.074219 C 37.210938 53.003906 37.210938 52.929688 37.175781 52.859375 C 37.136719 52.824219 37.136719 52.746094 37.097656 52.675781 L 36.835938 52.136719 C 36.765625 52.027344 36.765625 51.878906 36.765625 51.773438 C 36.765625 51.628906 36.765625 51.484375 36.800781 51.339844 C 36.835938 51.195312 36.910156 51.046875 36.988281 50.90625 C 37.175781 50.652344 37.472656 50.4375 37.730469 50.328125 C 37.917969 50.289062 38.066406 50.253906 38.253906 50.253906 C 38.40625 50.21875 38.964844 50.289062 39.109375 50.363281 C 39.222656 50.4375 39.339844 50.472656 39.449219 50.582031 C 39.5625 50.6875 39.632812 50.761719 39.710938 50.867188 C 39.859375 51.085938 39.894531 51.339844 39.933594 51.554688 C 39.933594 51.699219 39.972656 51.917969 39.972656 52.027344 C 40.007812 52.027344 40.640625 52.136719 40.792969 52.136719 C 40.902344 52.136719 41.613281 52.207031 41.722656 52.242188 C 41.871094 52.28125 42.695312 52.675781 42.878906 52.824219 C 43.140625 53.074219 44.148438 53.90625 44.632812 54.378906 C 44.933594 54.59375 45.265625 54.957031 45.566406 55.171875 C 45.675781 55.28125 46.273438 55.785156 46.386719 55.929688 C 46.5 56.042969 46.609375 56.1875 46.722656 56.332031 C 46.796875 56.472656 46.832031 56.65625 46.867188 56.839844 C 46.910156 56.945312 46.910156 57.089844 46.910156 57.234375 C 46.910156 57.34375 46.867188 57.449219 46.832031 57.558594 C 46.832031 57.742188 46.796875 57.8125 46.683594 57.921875 L 48.101562 58.824219 L 48.175781 58.71875 C 48.363281 58.464844 48.585938 58.171875 48.773438 57.992188 C 48.808594 57.921875 48.996094 57.777344 49.03125 57.742188 C 49.070312 57.707031 49.109375 57.632812 49.109375 57.59375 C 49.109375 57.523438 49.109375 57.484375 49.070312 57.449219 C 48.996094 57.304688 48.84375 57.234375 48.621094 57.160156 C 48.546875 57.125 48.433594 57.089844 48.324219 57.054688 L 47.691406 56.839844 C 47.652344 56.796875 47.578125 56.796875 47.542969 56.726562 C 47.429688 56.617188 47.429688 56.367188 47.542969 56.257812 C 47.613281 56.222656 47.652344 56.1875 47.730469 56.148438 L 53.546875 56.042969 L 54.328125 56.078125 C 54.402344 56.148438 54.589844 56.402344 54.589844 56.472656 C 54.628906 56.546875 54.628906 56.65625 54.589844 56.726562 C 54.589844 56.796875 54.515625 56.875 54.480469 56.910156 L 54.328125 57.089844 C 54.253906 57.125 54.21875 57.199219 54.179688 57.269531 C 54.179688 57.304688 54.179688 57.34375 54.179688 57.378906 C 54.179688 57.449219 54.179688 57.484375 54.21875 57.523438 C 54.253906 57.558594 54.328125 57.59375 54.367188 57.632812 C 54.550781 57.742188 54.777344 57.957031 54.925781 58.101562 C 55.113281 58.246094 55.222656 58.464844 55.335938 58.679688 C 55.410156 58.789062 55.484375 58.933594 55.523438 59.078125 C 55.523438 59.113281 55.523438 59.183594 55.558594 59.21875 C 55.59375 59.21875 55.710938 59.21875 55.710938 59.21875 C 55.78125 59.21875 55.824219 59.21875 55.859375 59.261719 C 55.894531 59.261719 55.933594 59.296875 55.96875 59.332031 C 55.96875 59.367188 55.96875 59.511719 55.96875 59.511719 L 55.96875 61.933594 C 55.96875 61.972656 55.96875 62.078125 55.933594 62.113281 C 55.894531 62.152344 55.859375 62.1875 55.824219 62.222656 C 55.78125 62.222656 55.710938 62.222656 55.636719 62.222656 C 55.59375 62.222656 55.523438 62.222656 55.484375 62.222656 C 55.410156 62.1875 55.371094 62.152344 55.300781 62.152344 C 55.300781 62.113281 55.261719 62.113281 55.222656 62.113281 C 55.222656 62.152344 55.183594 62.1875 55.183594 62.257812 C 54.664062 63.453125 53.25 64.429688 51.832031 64.429688 C 50.117188 64.429688 48.511719 63.382812 48.101562 61.644531 C 48.066406 61.609375 48.066406 61.535156 48.023438 61.5 L 44.894531 62.695312 "/>
<path style=" stroke:none;fill-rule:nonzero;fill:rgb(100%,100%,100%);fill-opacity:1;" d="M 31.734375 25.71875 C 32.675781 25.714844 33.453125 26.449219 33.460938 27.375 C 33.460938 28.3125 32.671875 29.0625 31.714844 29.050781 C 30.78125 29.039062 30.035156 28.289062 30.039062 27.375 C 30.050781 26.464844 30.804688 25.726562 31.734375 25.71875 "/>
<path style=" stroke:none;fill-rule:nonzero;fill:rgb(100%,100%,100%);fill-opacity:1;" d="M 39.230469 27.382812 L 39.230469 31.148438 L 34.289062 31.148438 C 34.269531 31.148438 34.128906 31.148438 34.101562 31.148438 C 33.933594 31.132812 33.761719 31.078125 33.648438 30.960938 C 33.550781 30.851562 33.511719 30.710938 33.523438 30.566406 C 33.539062 30.476562 33.558594 30.386719 33.605469 30.308594 L 35.160156 27.71875 C 35.1875 27.671875 35.234375 27.59375 35.269531 27.554688 C 35.332031 27.492188 35.402344 27.4375 35.488281 27.410156 C 35.574219 27.378906 35.703125 27.375 35.792969 27.375 L 36.007812 27.382812 L 39.230469 27.382812 "/>
<path style=" stroke:none;fill-rule:nonzero;fill:rgb(100%,100%,100%);fill-opacity:1;" d="M 39.597656 27.382812 L 45.519531 27.382812 L 45.519531 31.148438 L 39.597656 31.148438 L 39.597656 27.382812 "/>
<path style=" stroke:none;fill-rule:nonzero;fill:rgb(100%,100%,100%);fill-opacity:1;" d="M 45.933594 27.382812 L 49.074219 27.382812 C 49.15625 27.382812 49.277344 27.382812 49.355469 27.382812 C 49.457031 27.390625 49.585938 27.402344 49.679688 27.449219 C 49.757812 27.484375 49.828125 27.542969 49.878906 27.613281 C 49.902344 27.644531 49.957031 27.738281 49.976562 27.769531 L 51.511719 30.285156 C 51.546875 30.34375 51.578125 30.414062 51.597656 30.480469 C 51.640625 30.617188 51.621094 30.765625 51.546875 30.890625 C 51.464844 31.023438 51.332031 31.109375 51.175781 31.144531 C 51.144531 31.148438 50.90625 31.148438 50.867188 31.148438 L 45.933594 31.148438 L 45.933594 27.382812 "/>
<path style=" stroke:none;fill-rule:nonzero;fill:rgb(100%,100%,100%);fill-opacity:1;" d="M 53.375 25.707031 C 54.316406 25.714844 55.074219 26.472656 55.070312 27.394531 C 55.0625 28.328125 54.277344 29.078125 53.320312 29.0625 C 52.382812 29.054688 51.625 28.316406 51.617188 27.398438 C 51.613281 26.453125 52.410156 25.699219 53.375 25.707031 "/>
<path style=" stroke:none;fill-rule:nonzero;fill:rgb(100%,100%,100%);fill-opacity:1;" d="M 52.820312 24.578125 C 52.746094 24.578125 52.621094 24.582031 52.550781 24.582031 L 47.648438 24.199219 C 46.128906 24.085938 43.585938 24.085938 42.0625 24.09375 C 40.792969 24.101562 38.429688 24.121094 37.164062 24.175781 L 32.566406 24.464844 C 32.480469 24.472656 32.386719 24.476562 32.300781 24.484375 L 35.457031 20.441406 C 35.480469 20.410156 35.523438 20.355469 35.554688 20.332031 C 35.609375 20.273438 35.675781 20.226562 35.757812 20.199219 C 35.828125 20.171875 35.917969 20.15625 35.996094 20.152344 C 36.066406 20.148438 36.136719 20.148438 36.207031 20.148438 L 48.863281 20.148438 C 48.933594 20.148438 49.019531 20.148438 49.085938 20.152344 C 49.164062 20.15625 49.246094 20.171875 49.320312 20.195312 C 49.390625 20.21875 49.453125 20.253906 49.507812 20.296875 C 49.554688 20.335938 49.605469 20.394531 49.644531 20.445312 L 52.820312 24.578125 "/>
<path style=" stroke:none;fill-rule:nonzero;fill:rgb(100%,100%,100%);fill-opacity:1;" d="M 38.023438 56.945312 L 35.671875 56.945312 C 35.597656 56.945312 35.898438 56.550781 36.082031 56.402344 C 36.269531 56.257812 36.492188 56.257812 36.679688 56.257812 C 36.90625 56.257812 37.128906 56.292969 37.351562 56.402344 C 37.539062 56.511719 37.726562 56.65625 37.871094 56.800781 C 37.914062 56.839844 37.984375 56.910156 38.023438 56.945312 "/>
<path style=" stroke:none;fill-rule:nonzero;fill:rgb(100%,100%,100%);fill-opacity:1;" d="M 33.699219 60.273438 L 34.152344 59.625 C 34.484375 59.949219 34.671875 60.382812 34.632812 60.78125 C 34.632812 61.214844 34.449219 61.609375 34.152344 61.898438 C 33.8125 62.226562 33.40625 62.371094 32.957031 62.371094 C 32.507812 62.371094 32.0625 62.191406 31.765625 61.863281 C 31.464844 61.574219 31.3125 61.179688 31.3125 60.78125 C 31.277344 60.347656 31.464844 59.949219 31.800781 59.625 C 32.097656 59.332031 32.878906 59.222656 32.878906 59.222656 L 32.917969 59.949219 C 32.878906 59.949219 32.585938 60.019531 32.507812 60.054688 C 32.433594 60.128906 32.355469 60.164062 32.320312 60.234375 C 32.171875 60.382812 32.097656 60.5625 32.097656 60.78125 C 32.097656 60.996094 32.132812 61.214844 32.320312 61.394531 C 32.472656 61.574219 32.730469 61.648438 32.957031 61.648438 C 33.328125 61.648438 33.699219 61.539062 33.851562 61.03125 C 33.886719 60.816406 33.777344 60.457031 33.777344 60.347656 C 33.738281 60.308594 33.738281 60.308594 33.699219 60.273438 "/>
<path style=" stroke:none;fill-rule:nonzero;fill:rgb(100%,100%,100%);fill-opacity:1;" d="M 39.367188 60.496094 L 38.359375 58.941406 C 38.246094 58.6875 38.246094 58.359375 38.433594 58.144531 C 38.585938 58 38.84375 58 39.066406 58.214844 C 39.367188 58.507812 39.476562 59.085938 39.476562 59.339844 C 39.476562 59.628906 39.367188 60.097656 39.367188 60.496094 "/>
<path style=" stroke:none;fill-rule:nonzero;fill:rgb(100%,100%,100%);fill-opacity:1;" d="M 44.664062 60.964844 L 43.617188 60.855469 C 43.65625 60.820312 43.804688 60.457031 43.882812 60.347656 C 43.992188 60.09375 44.253906 59.878906 44.515625 59.625 C 44.8125 59.335938 45.148438 59.191406 45.449219 59.011719 L 44.664062 60.964844 "/>
<path style=" stroke:none;fill-rule:nonzero;fill:rgb(100%,100%,100%);fill-opacity:1;" d="M 50.976562 60.414062 C 50.917969 60.527344 50.878906 60.667969 50.878906 60.800781 C 50.878906 61.25 51.257812 61.617188 51.71875 61.617188 C 52.078125 61.617188 52.386719 61.394531 52.507812 61.082031 L 53.207031 61.425781 C 52.949219 61.96875 52.386719 62.367188 51.714844 62.367188 C 50.824219 62.367188 50.113281 61.675781 50.113281 60.8125 C 50.113281 60.523438 50.152344 60.304688 50.300781 60.089844 L 50.976562 60.414062 "/>
<path style=" stroke:none;fill-rule:nonzero;fill:rgb(100%,100%,100%);fill-opacity:1;" d="M 52.515625 60.507812 L 52.660156 60.46875 L 53.257812 60.328125 C 53.035156 59.710938 52.4375 59.242188 51.730469 59.242188 C 51.542969 59.242188 51.359375 59.277344 51.207031 59.316406 L 51.507812 60.003906 C 51.582031 60.003906 51.65625 60.003906 51.730469 60.003906 C 52.066406 60.003906 52.363281 60.21875 52.515625 60.507812 "/>
</g>
</svg>
