<?xml version="1.0" encoding="UTF-8"?>
<svg xmlns="http://www.w3.org/2000/svg" xmlns:xlink="http://www.w3.org/1999/xlink" width="87pt" height="86pt" viewBox="0 0 87 86" version="1.1">
<g id="surface1">
<path style=" stroke:none;fill-rule:nonzero;fill:rgb(93.527222%,17.272949%,18.882751%);fill-opacity:1;" d="M 1 43.167969 C 1 19.683594 20.035156 0.648438 43.519531 0.648438 C 67.003906 0.648438 86.039062 19.683594 86.039062 43.167969 C 86.039062 66.652344 67.003906 85.6875 43.519531 85.6875 C 20.035156 85.6875 1 66.652344 1 43.167969 "/>
<path style=" stroke:none;fill-rule:nonzero;fill:rgb(100%,100%,100%);fill-opacity:1;" d="M 15.175781 43.167969 C 15.175781 39.316406 15.917969 35.640625 17.398438 32.136719 C 18.832031 28.75 20.859375 25.742188 23.476562 23.125 C 26.097656 20.503906 29.101562 18.476562 32.492188 17.042969 C 35.996094 15.5625 39.671875 14.820312 43.523438 14.820312 C 47.371094 14.820312 51.050781 15.5625 54.550781 17.042969 C 57.941406 18.476562 60.945312 20.503906 63.566406 23.125 C 66.1875 25.742188 68.214844 28.75 69.648438 32.136719 C 71.128906 35.640625 71.867188 39.316406 71.867188 43.167969 C 71.867188 47.019531 71.128906 50.695312 69.648438 54.199219 C 68.214844 57.585938 66.1875 60.59375 63.566406 63.210938 C 60.945312 65.832031 57.941406 67.859375 54.550781 69.292969 C 51.050781 70.773438 47.371094 71.515625 43.523438 71.515625 C 39.671875 71.515625 35.996094 70.773438 32.492188 69.292969 C 29.101562 67.859375 26.097656 65.832031 23.476562 63.210938 C 20.859375 60.59375 18.832031 57.585938 17.398438 54.199219 C 15.917969 50.695312 15.175781 47.019531 15.175781 43.167969 "/>
<path style=" stroke:none;fill-rule:nonzero;fill:rgb(13.729858%,12.159729%,12.548828%);fill-opacity:1;" d="M 33.597656 69.730469 C 36.765625 70.921875 40.070312 71.515625 43.519531 71.515625 C 46.964844 71.515625 50.273438 70.921875 53.441406 69.730469 L 43.488281 60.882812 L 33.597656 69.730469 "/>
<path style=" stroke:none;fill-rule:nonzero;fill:rgb(13.729858%,12.159729%,12.548828%);fill-opacity:1;" d="M 53.441406 16.601562 C 50.273438 15.414062 46.964844 14.820312 43.519531 14.820312 C 40.070312 14.820312 36.765625 15.414062 33.597656 16.601562 L 43.488281 25.453125 L 53.441406 16.601562 "/>
<path style=" stroke:none;fill-rule:nonzero;fill:rgb(13.729858%,12.159729%,12.548828%);fill-opacity:1;" d="M 21.691406 51.054688 C 22.289062 51.253906 22.96875 51.453125 23.742188 51.59375 C 24.507812 51.761719 25.304688 51.847656 26.15625 51.847656 C 27.152344 51.847656 28.0625 51.703125 28.886719 51.453125 C 29.710938 51.167969 30.390625 50.773438 30.988281 50.285156 C 31.585938 49.773438 32.039062 49.148438 32.351562 48.4375 C 32.664062 47.730469 32.835938 46.933594 32.835938 46.023438 C 32.835938 45.285156 32.722656 44.628906 32.523438 44.0625 C 32.292969 43.492188 32.011719 43.039062 31.644531 42.640625 C 31.273438 42.242188 30.847656 41.929688 30.359375 41.703125 C 29.878906 41.472656 29.367188 41.304688 28.828125 41.21875 L 28.828125 41.164062 C 29.257812 41.078125 29.679688 40.933594 30.136719 40.734375 C 30.5625 40.535156 30.988281 40.253906 31.359375 39.882812 C 31.730469 39.515625 32.011719 39.058594 32.242188 38.488281 C 32.46875 37.949219 32.578125 37.296875 32.578125 36.5 C 32.578125 35.703125 32.4375 34.964844 32.15625 34.335938 C 31.839844 33.714844 31.445312 33.203125 30.929688 32.773438 C 30.417969 32.351562 29.820312 32.035156 29.113281 31.835938 C 28.402344 31.636719 27.660156 31.527344 26.835938 31.527344 C 25.871094 31.527344 25.019531 31.609375 24.28125 31.753906 C 23.511719 31.921875 22.859375 32.121094 22.289062 32.351562 L 22.488281 35.050781 C 23.085938 34.738281 23.742188 34.480469 24.394531 34.285156 C 25.046875 34.082031 25.675781 34 26.214844 34 C 27.152344 34 27.945312 34.253906 28.601562 34.765625 C 29.257812 35.277344 29.566406 36.015625 29.566406 36.953125 C 29.566406 37.550781 29.453125 38.035156 29.226562 38.429688 C 28.996094 38.859375 28.6875 39.171875 28.289062 39.457031 C 27.863281 39.710938 27.378906 39.910156 26.808594 40.027344 C 26.238281 40.164062 25.617188 40.222656 24.960938 40.222656 L 24.136719 40.222656 L 24.136719 42.609375 C 24.308594 42.609375 24.535156 42.609375 24.820312 42.582031 C 25.078125 42.582031 25.414062 42.582031 25.816406 42.582031 C 27.011719 42.582031 27.945312 42.867188 28.628906 43.40625 C 29.308594 43.945312 29.652344 44.746094 29.652344 45.738281 C 29.652344 46.363281 29.535156 46.90625 29.339844 47.359375 C 29.140625 47.8125 28.855469 48.183594 28.515625 48.46875 C 28.148438 48.78125 27.746094 49.007812 27.292969 49.148438 C 26.808594 49.292969 26.324219 49.378906 25.785156 49.378906 C 25.019531 49.378906 24.308594 49.261719 23.65625 49.035156 C 23 48.839844 22.402344 48.582031 21.890625 48.324219 L 21.691406 51.054688 "/>
<path style=" stroke:none;fill-rule:nonzero;fill:rgb(13.729858%,12.159729%,12.548828%);fill-opacity:1;" d="M 34.980469 54.175781 L 36.808594 54.175781 L 38.324219 49.066406 L 36.0625 49.066406 L 34.980469 54.175781 "/>
<path style=" stroke:none;fill-rule:nonzero;fill:rgb(13.729858%,12.159729%,12.548828%);fill-opacity:1;" d="M 41.324219 51.195312 C 41.730469 51.347656 42.199219 51.496094 42.753906 51.601562 C 43.285156 51.726562 43.882812 51.789062 44.5 51.789062 C 46.078125 51.789062 47.292969 51.328125 48.144531 50.40625 C 49 49.46875 49.425781 48.210938 49.425781 46.613281 C 49.425781 45.886719 49.320312 45.226562 49.105469 44.671875 C 48.871094 44.097656 48.574219 43.628906 48.210938 43.242188 C 47.847656 42.859375 47.402344 42.582031 46.910156 42.390625 C 46.398438 42.199219 45.863281 42.09375 45.3125 42.09375 C 44.96875 42.09375 44.648438 42.113281 44.371094 42.15625 C 44.074219 42.179688 43.820312 42.242188 43.628906 42.304688 L 43.628906 38.554688 L 48.722656 38.554688 L 48.722656 36.742188 L 41.535156 36.742188 L 41.535156 44.332031 C 41.898438 44.222656 42.285156 44.117188 42.664062 44.011719 C 43.050781 43.90625 43.496094 43.863281 43.988281 43.863281 C 45.015625 43.863281 45.78125 44.140625 46.3125 44.671875 C 46.824219 45.207031 47.082031 45.929688 47.082031 46.804688 C 47.082031 47.722656 46.824219 48.46875 46.289062 49.042969 C 45.757812 49.640625 45.035156 49.941406 44.117188 49.941406 C 43.585938 49.941406 43.09375 49.851562 42.644531 49.703125 C 42.199219 49.554688 41.792969 49.386719 41.453125 49.191406 L 41.324219 51.195312 "/>
<path style=" stroke:none;fill-rule:nonzero;fill:rgb(13.729858%,12.159729%,12.548828%);fill-opacity:1;" d="M 53.695312 44.679688 L 55.914062 44.679688 L 55.914062 37.984375 C 55.914062 37.175781 56.082031 36.554688 56.402344 36.109375 C 56.722656 35.660156 57.214844 35.445312 57.832031 35.445312 C 58.855469 35.445312 59.367188 36.128906 59.367188 37.472656 L 59.367188 44.679688 L 61.582031 44.679688 L 61.582031 37.984375 C 61.582031 37.175781 61.75 36.554688 62.070312 36.109375 C 62.390625 35.660156 62.878906 35.445312 63.5 35.445312 C 64.523438 35.445312 65.03125 36.128906 65.03125 37.472656 L 65.03125 44.679688 L 67.25 44.679688 L 67.25 37.515625 C 67.25 36.234375 66.996094 35.253906 66.484375 34.59375 C 65.953125 33.933594 65.160156 33.59375 64.097656 33.59375 C 63.390625 33.59375 62.820312 33.761719 62.367188 34.101562 C 61.921875 34.46875 61.582031 34.871094 61.304688 35.320312 C 61.195312 35.105469 61.070312 34.890625 60.917969 34.679688 C 60.769531 34.488281 60.582031 34.292969 60.367188 34.125 C 60.15625 33.972656 59.898438 33.847656 59.621094 33.738281 C 59.34375 33.636719 59.003906 33.59375 58.644531 33.59375 C 57.960938 33.59375 57.40625 33.761719 56.957031 34.101562 C 56.511719 34.46875 56.148438 34.890625 55.914062 35.425781 L 55.871094 35.425781 C 55.871094 35.359375 55.871094 35.234375 55.871094 35.0625 C 55.847656 34.914062 55.847656 34.742188 55.847656 34.570312 C 55.828125 34.402344 55.828125 34.234375 55.828125 34.082031 C 55.804688 33.933594 55.804688 33.804688 55.804688 33.738281 L 53.609375 33.738281 C 53.632812 34.039062 53.652344 34.359375 53.675781 34.703125 C 53.695312 35.042969 53.695312 35.402344 53.695312 35.808594 L 53.695312 44.679688 "/>
</g>
</svg>
