<?xml version="1.0" encoding="UTF-8"?>
<svg xmlns="http://www.w3.org/2000/svg" xmlns:xlink="http://www.w3.org/1999/xlink" width="87pt" height="86pt" viewBox="0 0 87 86" version="1.1">
<g id="surface1">
<path style=" stroke:none;fill-rule:nonzero;fill:rgb(93.527222%,17.272949%,18.882751%);fill-opacity:1;" d="M 13.433594 13.085938 C -3.152344 29.695312 -3.152344 56.652344 13.433594 73.257812 C 30.039062 89.84375 56.996094 89.84375 73.605469 73.257812 C 90.191406 56.652344 90.191406 29.695312 73.605469 13.085938 C 56.996094 -3.496094 30.039062 -3.496094 13.433594 13.085938 "/>
<path style=" stroke:none;fill-rule:nonzero;fill:rgb(100%,100%,100%);fill-opacity:1;" d="M 64.949219 16.726562 L 17.078125 64.597656 C 14.957031 61.996094 13.265625 59.125 11.992188 55.988281 C 10.335938 51.886719 9.5 47.621094 9.496094 43.171875 C 9.5 38.722656 10.335938 34.453125 11.992188 30.355469 C 13.707031 26.117188 16.195312 22.371094 19.460938 19.105469 C 22.722656 15.84375 26.46875 13.355469 30.707031 11.640625 C 34.804688 9.980469 39.074219 9.148438 43.519531 9.148438 C 47.972656 9.148438 52.238281 9.980469 56.339844 11.640625 C 59.472656 12.914062 62.347656 14.609375 64.949219 16.726562 "/>
<path style=" stroke:none;fill-rule:nonzero;fill:rgb(100%,100%,100%);fill-opacity:1;" d="M 22.085938 69.613281 L 69.953125 21.738281 C 72.078125 24.347656 73.773438 27.21875 75.042969 30.351562 C 76.703125 34.453125 77.535156 38.71875 77.535156 43.171875 C 77.535156 47.621094 76.703125 51.886719 75.042969 55.988281 C 73.332031 60.222656 70.84375 63.96875 67.578125 67.234375 C 64.316406 70.496094 60.566406 72.988281 56.332031 74.703125 C 52.230469 76.359375 47.964844 77.191406 43.511719 77.195312 C 39.066406 77.191406 34.796875 76.359375 30.699219 74.703125 C 27.558594 73.429688 24.691406 71.734375 22.085938 69.613281 "/>
<path style=" stroke:none;fill-rule:nonzero;fill:rgb(13.729858%,12.159729%,12.548828%);fill-opacity:1;" d="M 27.210938 64.488281 L 36.980469 54.71875 L 36.980469 69.382812 L 27.210938 69.382812 L 27.210938 64.488281 "/>
<path style=" stroke:none;fill-rule:nonzero;fill:rgb(13.729858%,12.159729%,12.548828%);fill-opacity:1;" d="M 46.105469 35.570312 L 44.058594 35.570312 C 42.113281 35.570312 40.199219 36.335938 38.878906 37.78125 C 37.660156 39.066406 36.980469 40.902344 36.980469 42.6875 L 36.980469 44.695312 L 27.210938 54.464844 L 27.210938 42.488281 C 27.230469 38.78125 28.460938 35.195312 30.75 32.269531 C 33.964844 28.167969 38.84375 25.953125 44.058594 26.027344 L 54.078125 25.988281 L 54.078125 19.78125 L 58.84375 22.832031 L 46.105469 35.570312 "/>
<path style=" stroke:none;fill-rule:nonzero;fill:rgb(13.729858%,12.159729%,12.548828%);fill-opacity:1;" d="M 54.097656 37.597656 L 64.960938 26.738281 L 69.730469 29.789062 L 54.097656 41.039062 L 54.097656 37.597656 "/>
</g>
</svg>
