<?xml version="1.0" encoding="UTF-8"?>
<svg xmlns="http://www.w3.org/2000/svg" xmlns:xlink="http://www.w3.org/1999/xlink" width="87pt" height="86pt" viewBox="0 0 87 86" version="1.1">
<g id="surface1">
<path style=" stroke:none;fill-rule:nonzero;fill:rgb(93.527222%,17.272949%,18.882751%);fill-opacity:1;" d="M 13.453125 13.105469 C 30.058594 -3.496094 56.980469 -3.496094 73.585938 13.105469 C 90.191406 29.710938 90.191406 56.632812 73.585938 73.238281 C 56.980469 89.84375 30.058594 89.84375 13.453125 73.238281 C -3.152344 56.632812 -3.152344 29.710938 13.453125 13.105469 "/>
<path style=" stroke:none;fill-rule:nonzero;fill:rgb(100%,100%,100%);fill-opacity:1;" d="M 21.121094 60.558594 L 38.507812 43.171875 L 21.121094 25.789062 C 19.523438 27.835938 18.230469 30.070312 17.246094 32.5 C 15.863281 35.910156 15.167969 39.472656 15.167969 43.175781 C 15.171875 46.878906 15.863281 50.4375 17.246094 53.847656 C 18.230469 56.277344 19.519531 58.511719 21.121094 60.558594 "/>
<path style=" stroke:none;fill-rule:nonzero;fill:rgb(100%,100%,100%);fill-opacity:1;" d="M 60.90625 65.566406 L 43.519531 48.183594 L 26.132812 65.566406 C 28.179688 67.167969 30.417969 68.457031 32.839844 69.445312 C 36.257812 70.828125 39.816406 71.519531 43.519531 71.523438 C 47.222656 71.519531 50.78125 70.828125 54.195312 69.445312 C 56.617188 68.457031 58.859375 67.167969 60.90625 65.566406 "/>
<path style=" stroke:none;fill-rule:nonzero;fill:rgb(100%,100%,100%);fill-opacity:1;" d="M 65.917969 25.789062 L 48.53125 43.171875 L 65.917969 60.558594 C 67.515625 58.511719 68.808594 56.277344 69.792969 53.847656 C 71.171875 50.4375 71.863281 46.878906 71.867188 43.175781 C 71.867188 39.472656 71.171875 35.910156 69.792969 32.5 C 68.808594 30.070312 67.511719 27.835938 65.917969 25.789062 "/>
<path style=" stroke:none;fill-rule:nonzero;fill:rgb(100%,100%,100%);fill-opacity:1;" d="M 26.132812 20.777344 L 43.519531 38.160156 L 60.902344 20.777344 C 58.855469 19.179688 56.617188 17.890625 54.191406 16.902344 C 50.78125 15.515625 47.226562 14.828125 43.519531 14.828125 C 39.8125 14.828125 36.257812 15.515625 32.84375 16.902344 C 30.417969 17.890625 28.183594 19.179688 26.132812 20.777344 "/>
<path style=" stroke:none;fill-rule:nonzero;fill:rgb(10.112%,40.585327%,73.280334%);fill-opacity:1;" d="M 21.210938 59.265625 C 19.925781 57.492188 18.867188 55.578125 18.035156 53.527344 C 16.695312 50.222656 16.023438 46.769531 16.023438 43.171875 C 16.023438 39.585938 16.695312 36.132812 18.039062 32.816406 C 18.867188 30.769531 19.925781 28.855469 21.214844 27.078125 L 37.304688 43.171875 L 21.210938 59.265625 "/>
<path style=" stroke:none;fill-rule:nonzero;fill:rgb(10.112%,40.585327%,73.280334%);fill-opacity:1;" d="M 59.613281 65.480469 C 57.839844 66.769531 55.925781 67.828125 53.875 68.65625 C 50.5625 70 47.109375 70.671875 43.519531 70.671875 C 39.925781 70.671875 36.476562 70 33.160156 68.65625 C 31.109375 67.828125 29.199219 66.769531 27.425781 65.480469 L 43.519531 49.386719 L 59.613281 65.480469 "/>
<path style=" stroke:none;fill-rule:nonzero;fill:rgb(10.112%,40.585327%,73.280334%);fill-opacity:1;" d="M 65.824219 27.078125 C 67.109375 28.855469 68.167969 30.769531 69 32.816406 C 70.34375 36.132812 71.015625 39.585938 71.015625 43.171875 C 71.015625 46.769531 70.34375 50.222656 69.003906 53.527344 C 68.171875 55.578125 67.109375 57.492188 65.824219 59.265625 L 49.730469 43.171875 L 65.824219 27.078125 "/>
<path style=" stroke:none;fill-rule:nonzero;fill:rgb(10.112%,40.585327%,73.280334%);fill-opacity:1;" d="M 27.429688 20.867188 C 29.199219 19.582031 31.109375 18.523438 33.164062 17.691406 C 36.46875 16.347656 39.921875 15.675781 43.519531 15.675781 C 47.117188 15.675781 50.570312 16.347656 53.871094 17.691406 C 55.925781 18.523438 57.839844 19.582031 59.609375 20.867188 L 43.519531 36.957031 L 27.429688 20.867188 "/>
</g>
</svg>
