<?xml version="1.0" encoding="UTF-8"?>
<svg xmlns="http://www.w3.org/2000/svg" xmlns:xlink="http://www.w3.org/1999/xlink" width="86pt" height="86pt" viewBox="0 0 86 86" version="1.1">
<g id="surface1">
<path style=" stroke:none;fill-rule:nonzero;fill:rgb(56.864929%,56.079102%,56.274414%);fill-opacity:1;" d="M 54.773438 2.113281 C 44.148438 -1.023438 33.574219 -0.0664062 23.675781 4.917969 C 13.78125 9.898438 6.714844 17.820312 2.898438 28.222656 C -0.921875 38.628906 -0.65625 49.242188 3.667969 59.445312 C 7.992188 69.640625 15.441406 77.210938 25.570312 81.699219 C 49.148438 92.144531 76.519531 79.34375 83.617188 54.554688 C 90.042969 32.121094 77.167969 8.699219 54.773438 2.113281 "/>
<path style=" stroke:none;fill-rule:nonzero;fill:rgb(100%,100%,100%);fill-opacity:1;" d="M 15.644531 27.332031 L 17.699219 24.140625 L 16.636719 23.457031 L 15.234375 25.628906 L 7.964844 20.941406 L 7.304688 21.960938 L 15.644531 27.332031 "/>
<path style=" stroke:none;fill-rule:nonzero;fill:rgb(100%,100%,100%);fill-opacity:1;" d="M 17.992188 23.839844 L 18.722656 22.921875 L 13.011719 18.394531 L 12.285156 19.308594 L 17.992188 23.839844 "/>
<path style=" stroke:none;fill-rule:nonzero;fill:rgb(100%,100%,100%);fill-opacity:1;" d="M 11.113281 18.425781 L 11.886719 17.453125 L 10.648438 16.472656 L 9.878906 17.445312 L 11.113281 18.425781 "/>
<path style=" stroke:none;fill-rule:nonzero;fill:rgb(100%,100%,100%);fill-opacity:1;" d="M 19.230469 22.003906 L 20.109375 21.230469 L 17.160156 17.886719 C 16.800781 17.480469 16.59375 17.109375 16.523438 16.773438 C 16.453125 16.4375 16.554688 16.160156 16.796875 15.945312 C 17.207031 15.589844 17.707031 15.75 18.300781 16.417969 L 21.476562 20.019531 L 22.355469 19.246094 L 19.40625 15.902344 C 19.046875 15.496094 18.84375 15.125 18.773438 14.789062 C 18.699219 14.453125 18.804688 14.175781 19.042969 13.960938 C 19.453125 13.601562 19.957031 13.761719 20.550781 14.4375 L 23.726562 18.035156 L 24.601562 17.261719 L 21.445312 13.683594 C 20.882812 13.042969 20.34375 12.640625 19.855469 12.488281 C 19.351562 12.347656 18.886719 12.449219 18.460938 12.824219 C 18.183594 13.070312 18.03125 13.359375 18.007812 13.683594 C 17.988281 14.023438 18.03125 14.34375 18.121094 14.664062 C 17.984375 14.597656 17.839844 14.535156 17.6875 14.480469 C 17.539062 14.4375 17.382812 14.40625 17.21875 14.398438 C 17.070312 14.398438 16.914062 14.421875 16.753906 14.464844 C 16.597656 14.507812 16.445312 14.605469 16.300781 14.730469 C 16.03125 14.972656 15.886719 15.253906 15.863281 15.578125 C 15.839844 15.914062 15.886719 16.253906 16.027344 16.605469 L 16.015625 16.621094 C 15.984375 16.589844 15.925781 16.523438 15.851562 16.4375 C 15.78125 16.371094 15.703125 16.285156 15.628906 16.199219 C 15.542969 16.121094 15.46875 16.039062 15.402344 15.964844 C 15.328125 15.898438 15.273438 15.832031 15.242188 15.800781 L 14.371094 16.566406 C 14.515625 16.707031 14.667969 16.863281 14.824219 17.023438 C 14.984375 17.1875 15.144531 17.371094 15.324219 17.574219 L 19.230469 22.003906 "/>
<path style=" stroke:none;fill-rule:nonzero;fill:rgb(100%,100%,100%);fill-opacity:1;" d="M 25.523438 16.898438 L 26.519531 16.277344 L 22.664062 10.089844 L 21.667969 10.710938 L 25.523438 16.898438 "/>
<path style=" stroke:none;fill-rule:nonzero;fill:rgb(100%,100%,100%);fill-opacity:1;" d="M 20.867188 9.484375 L 21.917969 8.832031 L 21.082031 7.492188 L 20.03125 8.148438 L 20.867188 9.484375 "/>
<path style=" stroke:none;fill-rule:nonzero;fill:rgb(100%,100%,100%);fill-opacity:1;" d="M 29.804688 14.386719 L 29.292969 13.398438 C 29.242188 13.476562 29.195312 13.550781 29.128906 13.617188 C 29.066406 13.695312 28.980469 13.753906 28.867188 13.808594 C 28.683594 13.90625 28.511719 13.902344 28.351562 13.804688 C 28.1875 13.71875 28.023438 13.496094 27.839844 13.144531 L 25.988281 9.558594 L 27.03125 9.019531 L 26.507812 8.007812 L 25.46875 8.546875 L 24.578125 6.828125 L 23.742188 7.753906 L 24.425781 9.082031 L 23.605469 9.507812 L 24.128906 10.519531 L 24.949219 10.09375 L 26.941406 13.945312 C 27.261719 14.566406 27.59375 14.953125 27.957031 15.085938 C 28.324219 15.230469 28.707031 15.1875 29.128906 14.96875 C 29.28125 14.890625 29.421875 14.804688 29.53125 14.695312 C 29.640625 14.585938 29.738281 14.484375 29.804688 14.386719 "/>
<path style=" stroke:none;fill-rule:nonzero;fill:rgb(100%,100%,100%);fill-opacity:1;" d="M 33.5625 13.070312 L 34.5625 12.710938 C 34.507812 12.597656 34.425781 12.429688 34.339844 12.234375 C 34.261719 12.035156 34.171875 11.828125 34.089844 11.597656 L 32.914062 8.324219 C 32.753906 7.863281 32.589844 7.503906 32.40625 7.234375 C 32.226562 6.96875 32.027344 6.769531 31.816406 6.617188 C 31.636719 6.480469 31.390625 6.390625 31.082031 6.335938 C 30.78125 6.292969 30.425781 6.34375 30.015625 6.492188 C 29.664062 6.613281 29.375 6.78125 29.152344 6.980469 C 28.921875 7.183594 28.722656 7.390625 28.570312 7.609375 L 29.082031 8.773438 C 29.15625 8.546875 29.300781 8.316406 29.519531 8.074219 C 29.722656 7.847656 29.972656 7.683594 30.28125 7.570312 C 30.671875 7.429688 30.996094 7.46875 31.261719 7.675781 C 31.398438 7.777344 31.511719 7.902344 31.601562 8.050781 C 31.695312 8.210938 31.773438 8.398438 31.851562 8.609375 L 31.953125 8.894531 L 31.558594 9.03125 C 30.675781 9.347656 30.066406 9.777344 29.738281 10.304688 C 29.417969 10.839844 29.394531 11.511719 29.683594 12.316406 C 29.796875 12.640625 29.941406 12.902344 30.117188 13.128906 C 30.292969 13.351562 30.476562 13.511719 30.691406 13.628906 C 30.890625 13.757812 31.105469 13.8125 31.324219 13.828125 C 31.542969 13.847656 31.765625 13.816406 31.984375 13.738281 C 32.386719 13.59375 32.667969 13.378906 32.835938 13.074219 C 33 12.789062 33.101562 12.480469 33.144531 12.164062 L 33.164062 12.15625 C 33.179688 12.199219 33.203125 12.265625 33.246094 12.351562 C 33.28125 12.449219 33.316406 12.542969 33.363281 12.628906 C 33.40625 12.71875 33.4375 12.816406 33.476562 12.890625 C 33.519531 12.980469 33.542969 13.035156 33.5625 13.070312 "/>
<path style=" stroke:none;fill-rule:nonzero;fill:rgb(100%,100%,100%);fill-opacity:1;" d="M 46.972656 8.738281 L 50.234375 9.261719 L 50.316406 8.773438 C 50.414062 8.140625 50.449219 7.601562 50.425781 7.121094 C 50.398438 6.644531 50.316406 6.238281 50.175781 5.914062 C 50.03125 5.589844 49.835938 5.339844 49.601562 5.160156 C 49.355469 4.976562 49.078125 4.855469 48.769531 4.804688 C 48.410156 4.75 48.074219 4.78125 47.765625 4.917969 C 47.449219 5.054688 47.160156 5.28125 46.917969 5.578125 C 46.675781 5.878906 46.457031 6.25 46.28125 6.691406 C 46.105469 7.140625 45.96875 7.640625 45.878906 8.1875 C 45.796875 8.707031 45.773438 9.207031 45.800781 9.667969 C 45.824219 10.136719 45.910156 10.539062 46.066406 10.894531 C 46.214844 11.25 46.429688 11.542969 46.710938 11.777344 C 46.996094 12.019531 47.34375 12.160156 47.757812 12.230469 C 48.113281 12.285156 48.441406 12.296875 48.738281 12.246094 C 49.03125 12.195312 49.269531 12.132812 49.472656 12.0625 L 49.617188 10.832031 C 49.449219 10.9375 49.238281 11.03125 49 11.125 C 48.746094 11.210938 48.457031 11.234375 48.121094 11.183594 C 47.589844 11.09375 47.238281 10.855469 47.066406 10.4375 C 46.890625 10.035156 46.859375 9.46875 46.972656 8.738281 "/>
<path style=" stroke:none;fill-rule:nonzero;fill:rgb(100%,100%,100%);fill-opacity:1;" d="M 50.453125 12.640625 L 51.5625 13.003906 L 52.902344 8.894531 C 53.078125 8.355469 53.304688 7.953125 53.589844 7.703125 C 53.863281 7.445312 54.171875 7.378906 54.523438 7.496094 C 54.816406 7.59375 54.976562 7.777344 55.039062 8.070312 C 55.085938 8.351562 55.019531 8.765625 54.84375 9.304688 L 53.441406 13.617188 L 54.554688 13.980469 L 56.066406 9.34375 C 56.304688 8.613281 56.363281 7.992188 56.246094 7.476562 C 56.132812 6.964844 55.796875 6.609375 55.238281 6.425781 C 54.914062 6.324219 54.609375 6.328125 54.296875 6.453125 C 53.984375 6.570312 53.699219 6.792969 53.441406 7.113281 L 53.417969 7.105469 C 53.433594 7.066406 53.457031 6.984375 53.488281 6.890625 C 53.511719 6.792969 53.542969 6.683594 53.566406 6.570312 C 53.589844 6.460938 53.625 6.355469 53.660156 6.257812 C 53.675781 6.160156 53.707031 6.082031 53.71875 6.039062 L 52.667969 5.695312 C 52.613281 5.902344 52.554688 6.121094 52.492188 6.34375 C 52.425781 6.578125 52.355469 6.804688 52.28125 7.035156 L 50.453125 12.640625 "/>
<path style=" stroke:none;fill-rule:nonzero;fill:rgb(100%,100%,100%);fill-opacity:1;" d="M 57.757812 11.921875 L 60.695312 13.441406 L 60.921875 12.996094 C 61.214844 12.425781 61.414062 11.921875 61.535156 11.460938 C 61.660156 11 61.707031 10.589844 61.675781 10.234375 C 61.644531 9.882812 61.527344 9.585938 61.363281 9.339844 C 61.191406 9.089844 60.960938 8.890625 60.683594 8.746094 C 60.363281 8.578125 60.03125 8.507812 59.699219 8.539062 C 59.351562 8.574219 59.007812 8.699219 58.683594 8.898438 C 58.359375 9.117188 58.035156 9.398438 57.730469 9.769531 C 57.429688 10.136719 57.140625 10.566406 56.886719 11.058594 C 56.644531 11.527344 56.46875 11.996094 56.347656 12.441406 C 56.230469 12.894531 56.1875 13.300781 56.222656 13.691406 C 56.253906 14.078125 56.371094 14.421875 56.558594 14.726562 C 56.753906 15.046875 57.042969 15.292969 57.414062 15.484375 C 57.734375 15.648438 58.046875 15.761719 58.339844 15.808594 C 58.632812 15.847656 58.882812 15.863281 59.09375 15.863281 L 59.617188 14.738281 C 59.425781 14.785156 59.199219 14.808594 58.9375 14.820312 C 58.671875 14.824219 58.386719 14.761719 58.085938 14.605469 C 57.605469 14.355469 57.351562 14.019531 57.316406 13.566406 C 57.273438 13.132812 57.421875 12.582031 57.757812 11.921875 "/>
<path style=" stroke:none;fill-rule:nonzero;fill:rgb(100%,100%,100%);fill-opacity:1;" d="M 59.824219 16.75 L 60.777344 17.433594 L 63.0625 14.253906 C 63.277344 13.949219 63.488281 13.71875 63.699219 13.535156 C 63.914062 13.355469 64.109375 13.238281 64.300781 13.164062 C 64.484375 13.101562 64.667969 13.078125 64.835938 13.09375 C 64.996094 13.117188 65.144531 13.167969 65.28125 13.269531 C 65.335938 13.308594 65.386719 13.34375 65.425781 13.394531 C 65.464844 13.441406 65.511719 13.484375 65.546875 13.53125 L 66.378906 12.378906 C 66.359375 12.367188 66.34375 12.351562 66.339844 12.332031 C 66.332031 12.328125 66.3125 12.3125 66.292969 12.300781 C 66.117188 12.175781 65.945312 12.085938 65.769531 12.046875 C 65.589844 12.007812 65.421875 12.007812 65.242188 12.039062 C 65.070312 12.070312 64.898438 12.121094 64.734375 12.195312 C 64.570312 12.273438 64.40625 12.363281 64.25 12.480469 L 64.230469 12.46875 C 64.265625 12.421875 64.316406 12.351562 64.382812 12.257812 C 64.441406 12.160156 64.515625 12.054688 64.578125 11.945312 C 64.644531 11.835938 64.710938 11.742188 64.777344 11.652344 C 64.832031 11.550781 64.882812 11.480469 64.914062 11.433594 L 64.042969 10.804688 C 63.925781 10.984375 63.800781 11.175781 63.675781 11.367188 C 63.542969 11.570312 63.40625 11.765625 63.261719 11.964844 L 59.824219 16.75 "/>
<path style=" stroke:none;fill-rule:nonzero;fill:rgb(100%,100%,100%);fill-opacity:1;" d="M 64.597656 20.632812 L 65.378906 21.347656 C 65.457031 21.246094 65.5625 21.101562 65.703125 20.929688 C 65.835938 20.765625 65.980469 20.59375 66.144531 20.414062 L 68.503906 17.855469 C 68.832031 17.496094 69.078125 17.183594 69.230469 16.898438 C 69.386719 16.617188 69.46875 16.34375 69.507812 16.089844 C 69.542969 15.867188 69.507812 15.605469 69.414062 15.308594 C 69.3125 15.019531 69.101562 14.730469 68.777344 14.433594 C 68.503906 14.179688 68.226562 14 67.945312 13.898438 C 67.660156 13.785156 67.378906 13.707031 67.117188 13.671875 L 66.328125 14.667969 C 66.5625 14.632812 66.832031 14.648438 67.144531 14.722656 C 67.445312 14.804688 67.707031 14.953125 67.949219 15.171875 C 68.25 15.453125 68.367188 15.757812 68.3125 16.089844 C 68.28125 16.253906 68.222656 16.417969 68.136719 16.5625 C 68.035156 16.71875 67.90625 16.878906 67.753906 17.046875 L 67.550781 17.265625 L 67.242188 16.980469 C 66.554688 16.347656 65.890625 16.007812 65.273438 15.960938 C 64.648438 15.921875 64.042969 16.214844 63.464844 16.839844 C 63.230469 17.09375 63.0625 17.34375 62.945312 17.601562 C 62.828125 17.863281 62.777344 18.105469 62.765625 18.34375 C 62.75 18.582031 62.796875 18.796875 62.886719 18.996094 C 62.972656 19.203125 63.101562 19.382812 63.273438 19.539062 C 63.589844 19.832031 63.910156 19.980469 64.257812 19.988281 C 64.585938 20 64.90625 19.949219 65.207031 19.839844 L 65.222656 19.855469 C 65.195312 19.886719 65.144531 19.9375 65.085938 20.015625 C 65.015625 20.09375 64.949219 20.164062 64.890625 20.242188 C 64.828125 20.328125 64.761719 20.398438 64.71875 20.46875 C 64.65625 20.550781 64.617188 20.59375 64.597656 20.632812 "/>
<path style=" stroke:none;fill-rule:nonzero;fill:rgb(100%,100%,100%);fill-opacity:1;" d="M 65.957031 22.097656 L 66.71875 22.988281 L 74.832031 16.074219 L 74.070312 15.179688 L 65.957031 22.097656 "/>
<path style=" stroke:none;fill-rule:nonzero;fill:rgb(100%,100%,100%);fill-opacity:1;" d="M 69.152344 26.328125 L 69.75 27.203125 C 69.847656 27.121094 69.988281 27 70.160156 26.867188 C 70.332031 26.742188 70.511719 26.601562 70.707031 26.46875 L 73.582031 24.5 C 73.984375 24.222656 74.289062 23.972656 74.503906 23.726562 C 74.71875 23.488281 74.859375 23.242188 74.949219 23 C 75.035156 22.792969 75.0625 22.53125 75.035156 22.21875 C 75 21.914062 74.863281 21.585938 74.613281 21.222656 C 74.40625 20.917969 74.171875 20.679688 73.917969 20.511719 C 73.667969 20.34375 73.414062 20.203125 73.164062 20.113281 L 72.171875 20.90625 C 72.40625 20.917969 72.671875 21 72.957031 21.144531 C 73.226562 21.285156 73.453125 21.484375 73.640625 21.753906 C 73.871094 22.101562 73.917969 22.425781 73.785156 22.730469 C 73.722656 22.886719 73.628906 23.03125 73.507812 23.15625 C 73.375 23.289062 73.21875 23.410156 73.03125 23.535156 L 72.78125 23.707031 L 72.546875 23.363281 C 72.019531 22.589844 71.445312 22.109375 70.855469 21.925781 C 70.253906 21.753906 69.597656 21.898438 68.894531 22.382812 C 68.613281 22.578125 68.394531 22.78125 68.222656 23.007812 C 68.046875 23.234375 67.945312 23.457031 67.882812 23.691406 C 67.8125 23.917969 67.808594 24.140625 67.851562 24.355469 C 67.886719 24.574219 67.972656 24.777344 68.105469 24.972656 C 68.351562 25.328125 68.628906 25.539062 68.964844 25.625 C 69.28125 25.707031 69.605469 25.734375 69.921875 25.695312 L 69.9375 25.710938 C 69.902344 25.738281 69.839844 25.777344 69.769531 25.839844 C 69.6875 25.898438 69.601562 25.957031 69.527344 26.023438 C 69.453125 26.085938 69.367188 26.144531 69.304688 26.199219 C 69.230469 26.261719 69.183594 26.292969 69.152344 26.328125 "/>
<path style=" stroke:none;fill-rule:nonzero;fill:rgb(100%,100%,100%);fill-opacity:1;" d="M 43.199219 12.269531 C 43.082031 12.46875 42.925781 12.628906 42.726562 12.757812 C 42.523438 12.878906 42.269531 12.933594 41.960938 12.9375 C 41.644531 12.945312 41.34375 12.882812 41.039062 12.753906 C 40.726562 12.617188 40.488281 12.476562 40.304688 12.339844 L 40.261719 13.71875 C 40.453125 13.816406 40.726562 13.914062 41.066406 14.007812 C 41.40625 14.101562 41.757812 14.152344 42.101562 14.148438 C 42.960938 14.132812 43.597656 13.824219 44.011719 13.238281 C 44.378906 12.71875 44.546875 12.007812 44.578125 11.097656 L 44.484375 5.617188 C 44.480469 5.402344 44.488281 5.203125 44.496094 4.988281 C 44.503906 4.777344 44.503906 4.578125 44.511719 4.378906 L 43.429688 4.394531 C 43.429688 4.441406 43.429688 4.527344 43.433594 4.621094 C 43.425781 4.722656 43.425781 4.835938 43.417969 4.949219 C 43.410156 5.066406 43.410156 5.164062 43.410156 5.265625 C 43.398438 5.363281 43.398438 5.449219 43.398438 5.488281 L 43.367188 5.488281 C 43.214844 5.167969 43.019531 4.882812 42.78125 4.644531 C 42.546875 4.421875 42.246094 4.3125 41.886719 4.316406 C 41.539062 4.324219 41.226562 4.414062 40.972656 4.601562 C 40.714844 4.792969 40.488281 5.035156 40.328125 5.367188 C 40.164062 5.691406 40.035156 6.09375 39.964844 6.546875 C 39.882812 7.023438 39.84375 7.535156 39.851562 8.105469 C 39.863281 8.785156 39.929688 9.351562 40.0625 9.816406 C 40.179688 10.289062 40.332031 10.667969 40.527344 10.949219 C 40.722656 11.242188 40.9375 11.441406 41.175781 11.5625 C 41.417969 11.691406 41.667969 11.75 41.910156 11.746094 C 42.308594 11.742188 42.617188 11.628906 42.851562 11.382812 C 43.082031 11.148438 43.269531 10.863281 43.414062 10.507812 L 43.433594 10.507812 L 43.449219 11.398438 C 43.398438 11.667969 43.308594 12.070312 43.199219 12.269531 "/>
<path style=" stroke:none;fill-rule:nonzero;fill:rgb(100%,100%,100%);fill-opacity:1;" d="M 50.757812 15.691406 C 65.679688 20.085938 74.265625 35.695312 69.980469 50.648438 C 65.246094 67.164062 47.011719 75.703125 31.292969 68.734375 C 24.546875 65.746094 19.582031 60.703125 16.695312 53.90625 C 13.8125 47.101562 13.640625 40.027344 16.183594 33.097656 C 18.726562 26.164062 23.4375 20.882812 30.03125 17.5625 C 36.628906 14.242188 43.675781 13.605469 50.757812 15.691406 "/>
<path style=" stroke:none;fill-rule:nonzero;fill:rgb(56.864929%,56.079102%,56.274414%);fill-opacity:1;" d="M 32.257812 9.75 L 32.476562 10.363281 C 32.675781 10.910156 32.734375 11.386719 32.664062 11.792969 C 32.589844 12.210938 32.359375 12.488281 31.972656 12.628906 C 31.683594 12.734375 31.433594 12.703125 31.21875 12.554688 C 30.992188 12.40625 30.820312 12.152344 30.699219 11.816406 C 30.535156 11.363281 30.554688 10.976562 30.757812 10.644531 C 30.964844 10.320312 31.34375 10.0625 31.878906 9.871094 C 31.945312 9.847656 32.007812 9.824219 32.085938 9.800781 C 32.160156 9.769531 32.222656 9.75 32.257812 9.75 "/>
<path style=" stroke:none;fill-rule:nonzero;fill:rgb(56.864929%,56.079102%,56.274414%);fill-opacity:1;" d="M 47.136719 7.738281 C 47.257812 7.082031 47.441406 6.582031 47.691406 6.246094 C 47.933594 5.925781 48.230469 5.789062 48.566406 5.84375 C 49.253906 5.957031 49.488281 6.695312 49.261719 8.085938 L 47.136719 7.738281 "/>
<path style=" stroke:none;fill-rule:nonzero;fill:rgb(56.864929%,56.079102%,56.274414%);fill-opacity:1;" d="M 58.222656 11.027344 C 58.539062 10.4375 58.871094 10.019531 59.210938 9.777344 C 59.542969 9.550781 59.867188 9.511719 60.167969 9.667969 C 60.785156 9.988281 60.78125 10.765625 60.132812 12.015625 L 58.222656 11.027344 "/>
<path style=" stroke:none;fill-rule:nonzero;fill:rgb(56.864929%,56.079102%,56.274414%);fill-opacity:1;" d="M 66.933594 17.933594 L 66.488281 18.414062 C 66.097656 18.84375 65.703125 19.117188 65.3125 19.242188 C 64.90625 19.367188 64.554688 19.296875 64.246094 19.015625 C 64.027344 18.808594 63.9375 18.574219 63.964844 18.304688 C 63.996094 18.046875 64.140625 17.773438 64.378906 17.511719 C 64.707031 17.15625 65.054688 16.992188 65.441406 17.023438 C 65.832031 17.050781 66.226562 17.265625 66.652344 17.65625 C 66.703125 17.703125 66.753906 17.75 66.808594 17.800781 C 66.867188 17.851562 66.914062 17.898438 66.933594 17.933594 "/>
<path style=" stroke:none;fill-rule:nonzero;fill:rgb(56.864929%,56.079102%,56.274414%);fill-opacity:1;" d="M 72.03125 24.222656 L 71.492188 24.589844 C 71.011719 24.917969 70.570312 25.097656 70.160156 25.136719 C 69.734375 25.167969 69.414062 25.019531 69.175781 24.679688 C 69.003906 24.421875 68.96875 24.175781 69.054688 23.925781 C 69.144531 23.671875 69.34375 23.441406 69.640625 23.238281 C 70.035156 22.964844 70.414062 22.886719 70.785156 23 C 71.15625 23.117188 71.496094 23.414062 71.820312 23.886719 C 71.855469 23.945312 71.898438 24.003906 71.941406 24.066406 C 71.988281 24.132812 72.027344 24.1875 72.03125 24.222656 "/>
<path style=" stroke:none;fill-rule:nonzero;fill:rgb(56.864929%,56.079102%,56.274414%);fill-opacity:1;" d="M 41.363281 10 C 41.171875 9.585938 41.058594 8.941406 41.042969 8.042969 C 41.035156 7.203125 41.113281 6.574219 41.285156 6.136719 C 41.449219 5.703125 41.734375 5.488281 42.144531 5.464844 C 42.523438 5.457031 42.824219 5.667969 43.039062 6.09375 C 43.246094 6.511719 43.359375 7.152344 43.375 7.992188 C 43.386719 8.875 43.289062 9.527344 43.105469 9.957031 C 42.925781 10.402344 42.617188 10.617188 42.179688 10.625 C 41.839844 10.632812 41.566406 10.421875 41.363281 10 "/>
<path style=" stroke:none;fill-rule:nonzero;fill:rgb(13.729858%,12.159729%,12.548828%);fill-opacity:1;" d="M 40.152344 28.921875 L 26.890625 28.921875 L 26.890625 43.550781 L 30.789062 44.480469 C 30.820312 44.394531 30.863281 44.261719 30.898438 44.175781 C 30.953125 44.046875 31.027344 43.914062 31.101562 43.800781 C 31.359375 43.425781 31.6875 43.109375 32.070312 42.871094 C 32.5625 42.570312 33.128906 42.40625 33.707031 42.410156 C 34.378906 42.414062 35.03125 42.636719 35.539062 43.0625 C 35.992188 43.449219 36.324219 44.035156 36.550781 44.582031 C 36.738281 45.03125 36.890625 45.5 36.988281 45.984375 C 37.113281 46.570312 37.179688 47.167969 37.179688 47.773438 C 37.1875 48.332031 37.136719 48.894531 37.03125 49.441406 C 36.929688 49.992188 36.765625 50.542969 36.515625 51.042969 C 36.261719 51.546875 35.917969 52.011719 35.460938 52.347656 C 34.957031 52.722656 34.347656 52.925781 33.71875 52.945312 C 33.097656 52.953125 32.488281 52.777344 31.96875 52.433594 C 31.484375 52.113281 31.101562 51.675781 30.867188 51.152344 C 30.800781 51.015625 30.726562 50.800781 30.675781 50.65625 L 26.890625 51.757812 C 26.921875 51.90625 26.960938 52.121094 27 52.269531 C 27.125 52.722656 27.371094 53.191406 27.628906 53.585938 C 28.042969 54.226562 28.542969 54.828125 29.125 55.320312 C 29.734375 55.828125 30.4375 56.214844 31.175781 56.492188 C 32.050781 56.820312 32.976562 56.996094 33.902344 56.964844 C 34.6875 56.941406 35.46875 56.761719 36.199219 56.476562 C 36.9375 56.191406 37.632812 55.796875 38.238281 55.289062 C 38.886719 54.742188 39.425781 54.085938 39.84375 53.351562 C 40.289062 52.554688 40.609375 51.628906 40.835938 50.742188 C 41.082031 49.773438 41.25 48.746094 41.261719 47.746094 C 41.269531 46.8125 41.132812 45.828125 40.941406 44.90625 C 40.75 43.996094 40.460938 43.015625 40.03125 42.1875 C 39.625 41.398438 39.074219 40.691406 38.410156 40.101562 C 37.75 39.515625 36.984375 39.054688 36.15625 38.746094 C 35.359375 38.445312 34.507812 38.285156 33.652344 38.285156 C 32.839844 38.285156 32.027344 38.425781 31.273438 38.746094 C 31.1875 38.789062 31.046875 38.851562 30.960938 38.890625 L 30.960938 32.699219 L 40.152344 32.699219 L 40.152344 28.921875 "/>
<path style=" stroke:none;fill-rule:nonzero;fill:rgb(13.729858%,12.159729%,12.548828%);fill-opacity:1;" d="M 17.703125 56.003906 C 17.933594 56.441406 18.171875 56.871094 18.417969 57.292969 L 30.558594 45.15625 L 28.9375 44.765625 L 17.703125 56.003906 "/>
<path style=" stroke:none;fill-rule:nonzero;fill:rgb(13.729858%,12.159729%,12.548828%);fill-opacity:1;" d="M 19.027344 58.289062 C 19.285156 58.695312 19.558594 59.09375 19.835938 59.488281 L 26.453125 52.871094 C 26.394531 52.730469 26.351562 52.589844 26.316406 52.457031 C 26.292969 52.367188 26.257812 52.21875 26.21875 52.015625 C 26.210938 51.960938 26.199219 51.917969 26.195312 51.898438 L 26.066406 51.257812 L 28.882812 50.441406 L 35.390625 43.933594 C 35.292969 43.804688 35.1875 43.699219 35.078125 43.601562 C 34.808594 43.378906 34.5 43.230469 34.15625 43.160156 L 19.027344 58.289062 "/>
<path style=" stroke:none;fill-rule:nonzero;fill:rgb(13.729858%,12.159729%,12.548828%);fill-opacity:1;" d="M 36.375 46.558594 C 36.351562 46.414062 36.324219 46.273438 36.296875 46.136719 C 36.214844 45.742188 36.097656 45.355469 35.945312 44.976562 L 31.121094 49.800781 L 31.34375 50.417969 C 31.417969 50.632812 31.476562 50.777344 31.511719 50.859375 C 31.570312 50.988281 31.636719 51.105469 31.714844 51.222656 L 36.375 46.558594 "/>
<path style=" stroke:none;fill-rule:nonzero;fill:rgb(13.729858%,12.159729%,12.548828%);fill-opacity:1;" d="M 34.4375 52.101562 L 35.945312 50.59375 C 36.113281 50.226562 36.242188 49.800781 36.332031 49.3125 C 36.410156 48.898438 36.453125 48.480469 36.46875 48.0625 L 32.566406 51.96875 C 32.90625 52.148438 33.269531 52.234375 33.652344 52.234375 C 33.667969 52.234375 33.6875 52.234375 33.699219 52.234375 C 33.960938 52.230469 34.203125 52.1875 34.4375 52.101562 "/>
<path style=" stroke:none;fill-rule:nonzero;fill:rgb(13.729858%,12.159729%,12.548828%);fill-opacity:1;" d="M 24.035156 64.109375 C 24.390625 64.421875 24.757812 64.722656 25.132812 65.019531 L 32.5625 57.589844 C 32.035156 57.507812 31.5 57.371094 30.972656 57.171875 L 24.035156 64.109375 "/>
<path style=" stroke:none;fill-rule:nonzero;fill:rgb(13.729858%,12.159729%,12.548828%);fill-opacity:1;" d="M 26.046875 65.707031 C 26.441406 65.984375 26.835938 66.257812 27.242188 66.523438 L 36.746094 57.019531 C 36.648438 57.054688 36.550781 57.097656 36.453125 57.136719 C 35.660156 57.445312 34.871094 57.621094 34.089844 57.664062 L 26.046875 65.707031 "/>
<path style=" stroke:none;fill-rule:nonzero;fill:rgb(13.729858%,12.159729%,12.548828%);fill-opacity:1;" d="M 51.183594 28.625 C 50.660156 28.625 50.101562 28.742188 49.597656 28.882812 C 48.304688 29.246094 47.195312 30.136719 46.390625 31.214844 C 45.714844 32.117188 45.230469 33.21875 44.894531 34.289062 C 44.578125 35.292969 44.339844 36.382812 44.160156 37.410156 C 43.957031 38.585938 43.800781 39.816406 43.753906 41.007812 C 43.703125 42.171875 43.757812 43.46875 43.839844 44.625 C 43.921875 45.796875 44.042969 47.046875 44.226562 48.210938 C 44.441406 49.546875 44.761719 50.890625 45.230469 52.15625 C 45.71875 53.476562 46.492188 54.9375 47.597656 55.808594 C 48.625 56.621094 49.917969 57.019531 51.222656 56.964844 C 52.609375 56.921875 53.925781 56.375 54.945312 55.4375 C 55.855469 54.601562 56.515625 53.351562 56.96875 52.199219 C 57.472656 50.917969 57.824219 49.546875 58.070312 48.191406 C 58.285156 47.007812 58.433594 45.816406 58.519531 44.609375 C 58.605469 43.328125 58.617188 42.039062 58.578125 40.753906 C 58.539062 39.644531 58.457031 38.5 58.289062 37.402344 C 58.128906 36.332031 57.894531 35.261719 57.550781 34.234375 C 57.199219 33.167969 56.703125 32.089844 56.023438 31.195312 C 55.242188 30.164062 54.183594 29.289062 52.945312 28.917969 C 52.378906 28.746094 51.769531 28.625 51.183594 28.625 "/>
<path style=" stroke:none;fill-rule:nonzero;fill:rgb(13.729858%,12.159729%,12.548828%);fill-opacity:1;" d="M 20.523438 60.402344 C 20.816406 60.777344 21.117188 61.144531 21.429688 61.503906 L 27.859375 55.074219 C 27.570312 54.742188 27.292969 54.375 27.03125 53.972656 C 27.023438 53.957031 27.011719 53.941406 27 53.925781 L 20.523438 60.402344 "/>
<path style=" stroke:none;fill-rule:nonzero;fill:rgb(13.729858%,12.159729%,12.548828%);fill-opacity:1;" d="M 22.191406 62.339844 C 22.519531 62.683594 22.855469 63.019531 23.195312 63.34375 L 29.867188 56.675781 C 29.429688 56.4375 29.03125 56.167969 28.667969 55.859375 L 22.191406 62.339844 "/>
<path style=" stroke:none;fill-rule:nonzero;fill:rgb(13.729858%,12.159729%,12.548828%);fill-opacity:1;" d="M 28.230469 67.128906 C 28.65625 67.378906 29.085938 67.617188 29.523438 67.84375 L 44.675781 52.691406 C 44.640625 52.597656 44.601562 52.5 44.566406 52.402344 C 44.421875 52.011719 44.289062 51.609375 44.164062 51.195312 L 28.230469 67.128906 "/>
<path style=" stroke:none;fill-rule:nonzero;fill:rgb(13.729858%,12.159729%,12.548828%);fill-opacity:1;" d="M 57.238281 18.472656 C 56.816406 18.222656 56.386719 17.980469 55.953125 17.753906 L 40.859375 32.84375 L 40.859375 33.40625 L 40.300781 33.40625 L 35.816406 37.886719 C 36.015625 37.945312 36.214844 38.007812 36.40625 38.082031 C 36.699219 38.191406 36.980469 38.316406 37.253906 38.457031 L 57.238281 18.472656 "/>
<path style=" stroke:none;fill-rule:nonzero;fill:rgb(13.729858%,12.159729%,12.548828%);fill-opacity:1;" d="M 59.414062 19.90625 C 59.027344 19.625 58.628906 19.351562 58.226562 19.089844 L 48.976562 28.339844 C 49.117188 28.285156 49.261719 28.242188 49.40625 28.199219 C 50.082031 28.011719 50.671875 27.917969 51.183594 27.917969 C 51.253906 27.917969 51.328125 27.917969 51.398438 27.921875 L 59.414062 19.90625 "/>
<path style=" stroke:none;fill-rule:nonzero;fill:rgb(13.729858%,12.159729%,12.548828%);fill-opacity:1;" d="M 61.425781 21.511719 C 61.066406 21.199219 60.699219 20.890625 60.328125 20.59375 L 52.789062 28.136719 C 52.90625 28.167969 53.027344 28.203125 53.152344 28.238281 C 53.527344 28.355469 53.890625 28.503906 54.242188 28.691406 L 61.425781 21.511719 "/>
<path style=" stroke:none;fill-rule:nonzero;fill:rgb(13.729858%,12.159729%,12.548828%);fill-opacity:1;" d="M 67.796875 29.574219 C 67.566406 29.140625 67.324219 28.710938 67.074219 28.289062 L 58.855469 36.503906 C 58.90625 36.765625 58.953125 37.027344 58.992188 37.296875 C 59.039062 37.605469 59.082031 37.921875 59.117188 38.253906 L 67.796875 29.574219 "/>
<path style=" stroke:none;fill-rule:nonzero;fill:rgb(13.729858%,12.159729%,12.548828%);fill-opacity:1;" d="M 66.457031 27.300781 C 66.195312 26.902344 65.921875 26.507812 65.636719 26.117188 L 58.101562 33.652344 C 58.140625 33.773438 58.183594 33.890625 58.222656 34.011719 C 58.347656 34.394531 58.464844 34.785156 58.570312 35.191406 L 66.457031 27.300781 "/>
<path style=" stroke:none;fill-rule:nonzero;fill:rgb(13.729858%,12.159729%,12.548828%);fill-opacity:1;" d="M 64.941406 25.207031 C 64.648438 24.835938 64.34375 24.46875 64.03125 24.113281 L 56.914062 31.230469 C 57.175781 31.621094 57.414062 32.050781 57.632812 32.519531 L 64.941406 25.207031 "/>
<path style=" stroke:none;fill-rule:nonzero;fill:rgb(13.729858%,12.159729%,12.548828%);fill-opacity:1;" d="M 63.265625 23.273438 C 62.9375 22.933594 62.605469 22.597656 62.257812 22.273438 L 55.203125 29.328125 C 55.558594 29.613281 55.902344 29.941406 56.222656 30.316406 L 63.265625 23.273438 "/>
<path style=" stroke:none;fill-rule:nonzero;fill:rgb(13.729858%,12.159729%,12.548828%);fill-opacity:1;" d="M 43.832031 35.492188 C 43.949219 34.992188 44.078125 34.519531 44.21875 34.078125 C 44.398438 33.507812 44.601562 32.976562 44.828125 32.488281 L 38.246094 39.066406 C 38.46875 39.222656 38.675781 39.390625 38.882812 39.574219 C 39.03125 39.710938 39.183594 39.851562 39.324219 40 L 43.832031 35.492188 "/>
<path style=" stroke:none;fill-rule:nonzero;fill:rgb(13.729858%,12.159729%,12.548828%);fill-opacity:1;" d="M 43.121094 39.808594 C 43.191406 39.074219 43.289062 38.304688 43.425781 37.503906 L 40.054688 40.871094 C 40.277344 41.183594 40.480469 41.515625 40.660156 41.859375 C 40.707031 41.953125 40.753906 42.039062 40.796875 42.140625 L 43.121094 39.808594 "/>
<path style=" stroke:none;fill-rule:nonzero;fill:rgb(13.729858%,12.159729%,12.548828%);fill-opacity:1;" d="M 43.058594 43.476562 C 43.035156 42.949219 43.023438 42.445312 43.023438 41.96875 C 43.023438 41.808594 43.023438 41.65625 43.027344 41.503906 L 41.246094 43.285156 C 41.394531 43.738281 41.523438 44.234375 41.636719 44.761719 C 41.640625 44.800781 41.652344 44.84375 41.660156 44.882812 L 43.058594 43.476562 "/>
<path style=" stroke:none;fill-rule:nonzero;fill:rgb(13.729858%,12.159729%,12.548828%);fill-opacity:1;" d="M 41.882812 46.261719 C 41.941406 46.75 41.96875 47.214844 41.96875 47.652344 C 41.96875 47.683594 41.96875 47.71875 41.96875 47.753906 C 41.964844 47.898438 41.960938 48.046875 41.957031 48.199219 L 43.328125 46.824219 C 43.261719 46.253906 43.203125 45.640625 43.15625 44.988281 L 41.882812 46.261719 "/>
<path style=" stroke:none;fill-rule:nonzero;fill:rgb(13.729858%,12.159729%,12.548828%);fill-opacity:1;" d="M 43.515625 48.238281 L 41.722656 50.03125 C 41.664062 50.320312 41.597656 50.617188 41.523438 50.917969 C 41.332031 51.65625 41.113281 52.320312 40.855469 52.910156 L 43.839844 49.925781 C 43.71875 49.410156 43.613281 48.875 43.527344 48.324219 C 43.523438 48.292969 43.523438 48.265625 43.515625 48.238281 "/>
<path style=" stroke:none;fill-rule:nonzero;fill:rgb(100%,100%,100%);fill-opacity:1;" d="M 51.207031 32.703125 C 51.527344 32.691406 51.839844 32.761719 52.113281 32.910156 C 52.390625 33.054688 52.609375 33.3125 52.777344 33.5625 C 53.046875 33.984375 53.238281 34.585938 53.363281 35.074219 C 53.582031 35.902344 53.746094 36.753906 53.878906 37.605469 C 54.007812 38.484375 54.101562 39.371094 54.164062 40.257812 C 54.222656 41.167969 54.261719 42.082031 54.253906 42.992188 C 54.25 44.019531 54.207031 45.050781 54.113281 46.082031 C 54.023438 47.109375 53.878906 48.183594 53.65625 49.191406 C 53.5 49.890625 53.292969 50.601562 53.023438 51.265625 C 52.882812 51.605469 52.699219 51.96875 52.480469 52.273438 C 52.339844 52.472656 52.15625 52.667969 51.945312 52.8125 C 51.71875 52.957031 51.453125 53.046875 51.175781 53.0625 C 50.851562 53.082031 50.519531 53.007812 50.253906 52.820312 C 50.0625 52.6875 49.882812 52.472656 49.753906 52.277344 C 49.546875 51.964844 49.371094 51.621094 49.226562 51.269531 C 48.953125 50.621094 48.769531 49.875 48.636719 49.183594 C 48.457031 48.203125 48.332031 47.023438 48.253906 46.03125 C 48.179688 45.050781 48.109375 43.917969 48.109375 42.941406 C 48.109375 42.042969 48.164062 41.125 48.253906 40.226562 C 48.34375 39.332031 48.472656 38.433594 48.632812 37.546875 C 48.773438 36.746094 48.949219 35.898438 49.164062 35.113281 C 49.304688 34.597656 49.519531 33.984375 49.820312 33.550781 C 49.988281 33.304688 50.210938 33.058594 50.480469 32.917969 C 50.703125 32.800781 50.953125 32.71875 51.207031 32.703125 "/>
<path style=" stroke:none;fill-rule:nonzero;fill:rgb(13.729858%,12.159729%,12.548828%);fill-opacity:1;" d="M 49.191406 48.175781 L 53.53125 43.839844 C 53.539062 43.554688 53.542969 43.277344 53.546875 42.992188 C 53.546875 42.933594 53.546875 42.875 53.546875 42.820312 C 53.546875 42.496094 53.539062 42.167969 53.53125 41.828125 L 48.992188 46.367188 C 49.050781 47.03125 49.117188 47.632812 49.191406 48.175781 "/>
<path style=" stroke:none;fill-rule:nonzero;fill:rgb(13.729858%,12.159729%,12.548828%);fill-opacity:1;" d="M 51.101562 33.429688 L 50.179688 34.351562 C 50.0625 34.609375 49.953125 34.921875 49.851562 35.296875 C 49.699219 35.84375 49.5625 36.445312 49.433594 37.105469 L 52.328125 34.214844 C 52.28125 34.109375 52.230469 34.023438 52.183594 33.949219 C 52.050781 33.746094 51.917969 33.609375 51.78125 33.539062 C 51.625 33.453125 51.457031 33.40625 51.28125 33.40625 C 51.269531 33.40625 51.253906 33.410156 51.234375 33.410156 C 51.195312 33.410156 51.148438 33.417969 51.101562 33.429688 "/>
<path style=" stroke:none;fill-rule:nonzero;fill:rgb(13.729858%,12.159729%,12.548828%);fill-opacity:1;" d="M 52.722656 35.421875 L 49.113281 39.03125 C 49.050781 39.464844 49 39.886719 48.960938 40.292969 C 48.925781 40.628906 48.898438 40.957031 48.878906 41.273438 L 53.074219 37.078125 C 52.976562 36.507812 52.855469 35.957031 52.722656 35.421875 "/>
<path style=" stroke:none;fill-rule:nonzero;fill:rgb(13.729858%,12.159729%,12.548828%);fill-opacity:1;" d="M 53.28125 38.472656 L 48.816406 42.9375 C 48.816406 42.941406 48.816406 42.941406 48.816406 42.941406 C 48.816406 43.480469 48.839844 44.125 48.886719 44.878906 L 53.457031 40.300781 C 53.417969 39.695312 53.359375 39.082031 53.28125 38.472656 "/>
</g>
</svg>
