<?xml version="1.0" encoding="UTF-8"?>
<svg xmlns="http://www.w3.org/2000/svg" xmlns:xlink="http://www.w3.org/1999/xlink" width="87pt" height="86pt" viewBox="0 0 87 86" version="1.1">
<g id="surface1">
<path style="fill-rule:nonzero;fill:rgb(100%,100%,100%);fill-opacity:1;stroke-width:2.835;stroke-linecap:butt;stroke-linejoin:round;stroke:rgb(13.729858%,12.159729%,12.548828%);stroke-opacity:1;stroke-miterlimit:4;" d="M 435.195312 853.476562 C 200.429688 853.476562 10 663.007812 10 428.28125 C 10 193.515625 200.429688 3.085938 435.195312 3.085938 C 669.921875 3.085938 860.390625 193.515625 860.390625 428.28125 C 860.390625 663.007812 669.921875 853.476562 435.195312 853.476562 " transform="matrix(0.1,0,0,-0.1,0,86)"/>
<path style=" stroke:none;fill-rule:nonzero;fill:rgb(13.729858%,12.159729%,12.548828%);fill-opacity:1;" d="M 48.59375 56.980469 L 45.074219 56.988281 L 45.0625 58.054688 L 76.3125 58.054688 L 76.332031 57.011719 L 72.238281 57.011719 C 72.347656 56.929688 72.496094 56.808594 72.570312 56.695312 C 72.660156 56.554688 72.695312 56.367188 72.695312 56.199219 L 72.691406 52.121094 L 73.519531 52.132812 C 73.550781 51.988281 73.597656 51.773438 73.609375 51.628906 C 73.625 51.476562 73.625 51.257812 73.621094 51.105469 C 73.617188 51.0625 73.617188 51.019531 73.617188 50.972656 C 73.617188 50.929688 73.617188 50.886719 73.617188 50.84375 C 73.617188 50.820312 73.617188 50.796875 73.617188 50.777344 C 73.617188 50.753906 73.617188 50.734375 73.621094 50.710938 C 73.636719 50.382812 73.707031 50.039062 73.796875 49.722656 C 73.847656 49.546875 73.921875 49.296875 73.972656 49.125 C 73.992188 49.058594 74.015625 48.988281 74.035156 48.921875 C 74.054688 48.855469 74.078125 48.785156 74.097656 48.71875 C 74.109375 48.667969 74.128906 48.613281 74.144531 48.5625 C 74.15625 48.507812 74.171875 48.457031 74.1875 48.40625 C 74.28125 48.085938 74.347656 47.757812 74.386719 47.425781 C 74.402344 47.285156 74.414062 47.140625 74.417969 47 C 74.417969 46.859375 74.417969 46.714844 74.40625 46.574219 C 74.386719 46.292969 74.3125 46.019531 74.1875 45.765625 C 74.117188 45.621094 74.03125 45.480469 73.9375 45.347656 C 73.839844 45.214844 73.734375 45.089844 73.617188 44.972656 C 73.390625 44.75 73.121094 44.554688 72.824219 44.441406 C 72.558594 44.339844 72.226562 44.261719 71.949219 44.203125 L 69.171875 38.628906 C 69.054688 38.390625 68.90625 38.164062 68.742188 37.957031 C 68.570312 37.738281 68.332031 37.460938 68.113281 37.28125 C 67.882812 37.09375 67.601562 36.976562 67.304688 36.925781 C 67.09375 36.890625 66.847656 36.867188 66.632812 36.847656 C 66.605469 36.847656 66.570312 36.84375 66.542969 36.839844 C 66.503906 36.835938 66.464844 36.832031 66.425781 36.832031 C 66.386719 36.828125 66.347656 36.824219 66.308594 36.820312 C 66.292969 36.820312 66.277344 36.820312 66.257812 36.816406 C 66.242188 36.816406 66.222656 36.816406 66.207031 36.816406 L 53.21875 36.796875 C 52.933594 36.796875 52.660156 36.894531 52.425781 37.046875 C 52.164062 37.21875 51.949219 37.445312 51.796875 37.714844 C 51.699219 37.894531 51.574219 38.136719 51.484375 38.316406 L 48.605469 44.15625 C 48.363281 44.210938 48.078125 44.289062 47.847656 44.378906 C 47.644531 44.457031 47.453125 44.566406 47.28125 44.703125 C 47.175781 44.785156 47.074219 44.878906 46.976562 44.972656 C 46.882812 45.074219 46.792969 45.175781 46.710938 45.28125 C 46.488281 45.578125 46.308594 45.910156 46.21875 46.269531 C 46.132812 46.597656 46.105469 46.941406 46.152344 47.277344 C 46.179688 47.503906 46.238281 47.832031 46.277344 48.054688 C 46.285156 48.097656 46.292969 48.140625 46.300781 48.179688 C 46.308594 48.222656 46.3125 48.257812 46.320312 48.300781 C 46.324219 48.320312 46.328125 48.34375 46.332031 48.363281 C 46.335938 48.382812 46.339844 48.402344 46.34375 48.421875 C 46.382812 48.648438 46.429688 48.976562 46.460938 49.203125 C 46.464844 49.246094 46.472656 49.300781 46.480469 49.347656 C 46.488281 49.402344 46.492188 49.441406 46.5 49.492188 C 46.503906 49.519531 46.507812 49.539062 46.511719 49.566406 C 46.515625 49.589844 46.519531 49.617188 46.523438 49.636719 C 46.53125 49.703125 46.695312 50.78125 46.695312 50.84375 C 46.695312 50.96875 46.679688 52.054688 46.761719 52.148438 C 46.820312 52.21875 46.910156 52.257812 47.003906 52.261719 C 47.179688 52.261719 47.359375 52.253906 47.535156 52.238281 C 47.714844 52.21875 47.890625 52.195312 48.0625 52.160156 L 48.101562 56.082031 C 48.101562 56.269531 48.132812 56.550781 48.273438 56.675781 L 48.597656 56.972656 L 48.597656 56.980469 L 48.59375 56.980469 "/>
<path style=" stroke:none;fill-rule:nonzero;fill:rgb(13.729858%,12.159729%,12.548828%);fill-opacity:1;" d="M 39.75 56.875 L 37.304688 56.894531 L 37.296875 56.894531 C 37.945312 56.8125 37.945312 56.476562 37.957031 56.003906 L 37.96875 55.496094 L 37.96875 50.410156 L 39.746094 50.410156 L 39.746094 22.789062 C 39.746094 21.902344 39.007812 21.207031 38.125 21.207031 L 12.097656 21.21875 C 11.429688 21.21875 10.707031 21.375 10.710938 22.609375 L 10.730469 50.410156 L 12.507812 50.410156 L 12.496094 55.777344 C 12.5 56.113281 12.589844 56.894531 13.273438 56.894531 L 10.710938 56.894531 L 10.710938 58.054688 L 39.765625 58.054688 L 39.75 56.875 "/>
<path style=" stroke:none;fill-rule:nonzero;fill:rgb(13.729858%,12.159729%,12.548828%);fill-opacity:1;" d="M 21.332031 77.78125 C 21.90625 78.148438 22.484375 78.503906 23.078125 78.84375 L 44.359375 57.558594 L 44.375 56.28125 L 45.644531 56.277344 L 47.378906 54.542969 L 47.363281 52.960938 C 47.253906 52.96875 47.132812 52.96875 47.003906 52.96875 C 46.757812 52.96875 46.542969 52.898438 46.363281 52.75 L 40.480469 58.636719 L 40.480469 58.765625 L 40.351562 58.765625 L 21.332031 77.78125 "/>
<path style=" stroke:none;fill-rule:nonzero;fill:rgb(13.729858%,12.159729%,12.548828%);fill-opacity:1;" d="M 7.851562 63.617188 C 8.1875 64.207031 8.542969 64.789062 8.914062 65.363281 L 15.515625 58.761719 L 12.707031 58.761719 L 7.851562 63.617188 "/>
<path style=" stroke:none;fill-rule:nonzero;fill:rgb(13.729858%,12.159729%,12.548828%);fill-opacity:1;" d="M 9.628906 66.449219 C 10.011719 66.996094 10.402344 67.539062 10.808594 68.074219 L 20.117188 58.765625 L 17.316406 58.761719 L 9.628906 66.449219 "/>
<path style=" stroke:none;fill-rule:nonzero;fill:rgb(13.729858%,12.159729%,12.548828%);fill-opacity:1;" d="M 11.605469 69.078125 C 12.023438 69.59375 12.453125 70.097656 12.902344 70.589844 L 24.726562 58.765625 L 21.921875 58.765625 L 11.605469 69.078125 "/>
<path style=" stroke:none;fill-rule:nonzero;fill:rgb(13.729858%,12.159729%,12.548828%);fill-opacity:1;" d="M 13.765625 71.527344 C 13.996094 71.765625 14.226562 72.003906 14.460938 72.230469 C 14.695312 72.46875 14.929688 72.699219 15.167969 72.929688 L 29.335938 58.765625 L 26.53125 58.765625 L 13.765625 71.527344 "/>
<path style=" stroke:none;fill-rule:nonzero;fill:rgb(13.729858%,12.159729%,12.548828%);fill-opacity:1;" d="M 16.105469 73.792969 C 16.601562 74.242188 17.105469 74.671875 17.617188 75.089844 L 33.941406 58.765625 L 31.136719 58.765625 L 16.105469 73.792969 "/>
<path style=" stroke:none;fill-rule:nonzero;fill:rgb(13.729858%,12.159729%,12.548828%);fill-opacity:1;" d="M 18.621094 75.882812 C 19.152344 76.289062 19.699219 76.6875 20.25 77.0625 L 38.546875 58.765625 L 35.742188 58.765625 L 18.621094 75.882812 "/>
<path style=" stroke:none;fill-rule:nonzero;fill:rgb(13.729858%,12.159729%,12.548828%);fill-opacity:1;" d="M 65.710938 8.566406 C 65.136719 8.199219 64.558594 7.847656 63.964844 7.503906 L 40.453125 31.015625 L 40.453125 33.824219 L 65.710938 8.566406 "/>
<path style=" stroke:none;fill-rule:nonzero;fill:rgb(13.729858%,12.159729%,12.548828%);fill-opacity:1;" d="M 68.417969 10.464844 C 67.886719 10.054688 67.34375 9.664062 66.792969 9.285156 L 40.453125 35.625 L 40.453125 38.429688 L 68.417969 10.464844 "/>
<path style=" stroke:none;fill-rule:nonzero;fill:rgb(13.729858%,12.159729%,12.548828%);fill-opacity:1;" d="M 70.9375 12.554688 C 70.445312 12.109375 69.941406 11.675781 69.425781 11.257812 L 40.453125 40.230469 L 40.453125 43.039062 L 70.9375 12.554688 "/>
<path style=" stroke:none;fill-rule:nonzero;fill:rgb(13.729858%,12.159729%,12.548828%);fill-opacity:1;" d="M 73.277344 14.824219 C 73.046875 14.585938 72.816406 14.347656 72.578125 14.113281 C 72.347656 13.878906 72.109375 13.648438 71.871094 13.421875 L 40.453125 44.839844 L 40.453125 47.648438 L 73.277344 14.824219 "/>
<path style=" stroke:none;fill-rule:nonzero;fill:rgb(13.729858%,12.159729%,12.548828%);fill-opacity:1;" d="M 75.4375 17.269531 C 75.019531 16.761719 74.585938 16.257812 74.140625 15.757812 L 53.8125 36.089844 L 56.613281 36.09375 L 75.4375 17.269531 "/>
<path style=" stroke:none;fill-rule:nonzero;fill:rgb(13.729858%,12.159729%,12.548828%);fill-opacity:1;" d="M 77.410156 19.902344 C 77.03125 19.351562 76.636719 18.808594 76.226562 18.277344 L 58.40625 36.09375 L 61.210938 36.101562 L 77.410156 19.902344 "/>
<path style=" stroke:none;fill-rule:nonzero;fill:rgb(13.729858%,12.159729%,12.548828%);fill-opacity:1;" d="M 79.1875 22.730469 C 78.847656 22.136719 78.496094 21.558594 78.128906 20.984375 L 63.007812 36.101562 L 65.808594 36.109375 L 79.1875 22.730469 "/>
<path style=" stroke:none;fill-rule:nonzero;fill:rgb(100%,100%,100%);fill-opacity:1;" d="M 50.621094 52.15625 L 57.808594 52.148438 C 58.027344 52.375 58.285156 52.617188 58.535156 52.804688 C 58.738281 52.957031 58.960938 53.074219 59.203125 53.15625 C 59.347656 53.207031 59.496094 53.242188 59.652344 53.277344 C 59.804688 53.304688 59.957031 53.324219 60.113281 53.335938 C 60.472656 53.355469 60.832031 53.328125 61.183594 53.246094 C 61.324219 53.214844 61.460938 53.171875 61.59375 53.113281 C 61.726562 53.054688 61.855469 52.988281 61.976562 52.910156 C 62.242188 52.730469 62.574219 52.382812 62.789062 52.144531 L 70.160156 52.121094 L 70.1875 56.203125 C 70.1875 56.375 70.257812 56.539062 70.363281 56.675781 C 70.457031 56.789062 70.566406 56.898438 70.667969 56.996094 L 50.222656 57 C 50.304688 56.933594 50.386719 56.859375 50.457031 56.777344 C 50.59375 56.621094 50.664062 56.421875 50.660156 56.214844 L 50.621094 52.15625 "/>
<path style=" stroke:none;fill-rule:nonzero;fill:rgb(100%,100%,100%);fill-opacity:1;" d="M 69.832031 43.707031 C 69.242188 43.617188 68.371094 43.496094 67.78125 43.425781 C 67.082031 43.347656 66.378906 43.285156 65.671875 43.25 C 64.527344 43.1875 63.382812 43.148438 62.234375 43.128906 C 60.25 43.097656 58.203125 43.117188 56.222656 43.214844 C 54.953125 43.28125 53.582031 43.386719 52.324219 43.570312 C 51.847656 43.640625 51.15625 43.757812 50.683594 43.84375 L 52.871094 39.226562 C 52.980469 38.996094 53.144531 38.796875 53.339844 38.636719 C 53.507812 38.503906 53.691406 38.390625 53.890625 38.300781 C 53.953125 38.273438 54.015625 38.253906 54.082031 38.238281 C 54.148438 38.226562 54.214844 38.21875 54.28125 38.21875 L 66.167969 38.273438 C 66.46875 38.277344 66.777344 38.335938 67.039062 38.476562 C 67.183594 38.554688 67.3125 38.65625 67.425781 38.78125 C 67.488281 38.847656 67.542969 38.917969 67.59375 38.996094 C 67.644531 39.070312 67.691406 39.152344 67.726562 39.230469 L 69.832031 43.707031 "/>
<path style=" stroke:none;fill-rule:nonzero;fill:rgb(100%,100%,100%);fill-opacity:1;" d="M 33.285156 50.410156 L 33.28125 55.828125 C 33.296875 56.140625 33.246094 56.894531 34.175781 56.894531 L 16.699219 56.894531 C 17.257812 56.894531 17.230469 55.882812 17.230469 55.585938 L 17.25 50.410156 L 22.453125 50.410156 C 22.550781 50.601562 22.660156 50.792969 22.773438 50.984375 C 22.835938 51.089844 22.910156 51.195312 23 51.285156 C 24.039062 52.40625 25.84375 52.632812 27.058594 51.640625 C 27.199219 51.523438 27.324219 51.390625 27.429688 51.242188 C 27.617188 50.972656 27.792969 50.695312 27.953125 50.410156 L 33.285156 50.410156 "/>
<path style=" stroke:none;fill-rule:nonzero;fill:rgb(13.729858%,12.159729%,12.548828%);fill-opacity:1;" d="M 45.984375 51.328125 C 45.984375 51.273438 45.984375 51.214844 45.984375 51.15625 C 45.984375 51.085938 45.984375 51 45.984375 50.902344 C 45.984375 50.890625 45.984375 50.882812 45.984375 50.878906 C 45.96875 50.746094 45.914062 50.367188 45.824219 49.742188 C 45.824219 49.734375 45.820312 49.722656 45.816406 49.699219 C 45.8125 49.6875 45.8125 49.679688 45.8125 49.675781 C 45.804688 49.640625 45.800781 49.617188 45.800781 49.59375 C 45.789062 49.535156 45.78125 49.484375 45.777344 49.441406 C 45.777344 49.425781 45.773438 49.398438 45.765625 49.359375 C 45.761719 49.332031 45.757812 49.308594 45.757812 49.300781 C 45.730469 49.128906 45.710938 48.964844 45.691406 48.816406 L 38.667969 55.835938 L 38.664062 56.023438 C 38.664062 56.023438 38.664062 56.027344 38.664062 56.035156 C 38.664062 56.082031 38.664062 56.128906 38.664062 56.171875 L 40.453125 56.160156 L 40.460938 56.851562 L 45.984375 51.328125 "/>
<path style=" stroke:none;fill-rule:nonzero;fill:rgb(13.729858%,12.159729%,12.548828%);fill-opacity:1;" d="M 45.4375 47.269531 C 45.425781 47.164062 45.417969 47.058594 45.417969 46.949219 C 45.417969 46.660156 45.457031 46.378906 45.53125 46.089844 C 45.644531 45.65625 45.847656 45.242188 46.148438 44.855469 C 46.246094 44.71875 46.355469 44.597656 46.46875 44.480469 C 46.582031 44.363281 46.707031 44.253906 46.839844 44.148438 C 47.070312 43.964844 47.320312 43.820312 47.589844 43.714844 C 47.742188 43.660156 47.917969 43.601562 48.117188 43.546875 L 49.828125 40.074219 L 40.453125 49.449219 L 40.453125 51.117188 L 38.785156 51.117188 L 38.679688 51.222656 L 38.679688 54.027344 L 45.4375 47.269531 "/>
</g>
</svg>
