<?xml version="1.0" encoding="UTF-8"?>
<svg xmlns="http://www.w3.org/2000/svg" xmlns:xlink="http://www.w3.org/1999/xlink" width="87pt" height="86pt" viewBox="0 0 87 86" version="1.1">
<g id="surface1">
<path style="fill-rule:nonzero;fill:rgb(100%,100%,100%);fill-opacity:1;stroke-width:2.835;stroke-linecap:butt;stroke-linejoin:round;stroke:rgb(13.729858%,12.159729%,12.548828%);stroke-opacity:1;stroke-miterlimit:4;" d="M 860.429688 428.28125 C 860.429688 663.125 670.039062 853.515625 435.195312 853.515625 C 200.3125 853.515625 9.960938 663.125 9.960938 428.28125 C 9.960938 193.398438 200.3125 3.046875 435.195312 3.046875 C 670.039062 3.046875 860.429688 193.398438 860.429688 428.28125 " transform="matrix(0.1,0,0,-0.1,0,86)"/>
<path style=" stroke:none;fill-rule:nonzero;fill:rgb(10.112%,40.585327%,73.280334%);fill-opacity:1;" d="M 23.96875 56.710938 C 23.964844 56.679688 23.957031 56.652344 23.949219 56.625 C 23.699219 55.605469 23.273438 53.847656 23.121094 52.691406 C 23.121094 52.671875 23.117188 52.660156 23.117188 52.644531 C 23.039062 52.539062 22.957031 52.429688 22.933594 52.398438 C 22.71875 52.113281 22.582031 51.8125 22.5 51.523438 C 22.441406 51.328125 22.40625 51.101562 22.40625 50.867188 C 22.40625 50.613281 22.449219 50.324219 22.574219 50.027344 C 22.554688 49.925781 22.546875 49.808594 22.546875 49.6875 C 22.546875 49.613281 22.546875 49.515625 22.566406 49.40625 C 22.578125 49.351562 22.589844 49.296875 22.601562 49.246094 C 22.371094 48.34375 22.347656 47.09375 22.347656 46.277344 C 22.347656 45.964844 22.351562 45.675781 22.359375 45.445312 C 22.363281 45.136719 22.363281 44.742188 22.363281 44.351562 C 22.363281 44.03125 22.363281 43.714844 22.363281 43.449219 C 22.363281 43.265625 22.359375 43.058594 22.359375 42.84375 C 22.359375 42.28125 22.363281 41.640625 22.378906 41.148438 C 22.382812 40.953125 22.394531 40.699219 22.40625 40.460938 C 22.164062 40.109375 21.96875 39.65625 21.925781 39.152344 C 21.917969 39.074219 21.914062 38.996094 21.914062 38.917969 C 21.914062 38.398438 22.066406 37.882812 22.363281 37.4375 C 22.429688 37.335938 22.5 37.238281 22.570312 37.148438 C 22.941406 33.855469 23.601562 30.015625 24.757812 26.777344 C 24.710938 26.542969 24.675781 26.285156 24.675781 26.019531 C 24.675781 25.765625 24.707031 25.484375 24.789062 25.199219 C 25.003906 24.445312 25.371094 24.054688 25.667969 23.808594 C 25.8125 23.304688 26.113281 22.929688 26.394531 22.671875 C 28.261719 19.371094 30.992188 14.984375 35.417969 14.007812 C 35.464844 13.996094 35.519531 13.984375 35.597656 13.960938 C 35.773438 13.914062 36.144531 13.816406 36.550781 13.808594 L 49.707031 13.652344 L 49.753906 13.652344 C 50.378906 13.652344 51.335938 13.796875 51.628906 13.84375 C 55.105469 14.398438 57.898438 16.960938 60.019531 20.660156 L 69.449219 11.234375 C 62.378906 5.488281 53.363281 2.042969 43.542969 2.042969 C 20.84375 2.042969 2.4375 20.449219 2.4375 43.152344 C 2.4375 52.96875 5.882812 61.980469 11.625 69.054688 L 23.96875 56.710938 "/>
<path style=" stroke:none;fill-rule:nonzero;fill:rgb(10.112%,40.585327%,73.280334%);fill-opacity:1;" d="M 63.367188 29.292969 C 64.566406 33.929688 65.152344 39.09375 65.152344 43.996094 C 65.152344 55.507812 61.984375 67.734375 54.015625 71.761719 C 53.667969 71.9375 52.953125 72.285156 52.265625 72.445312 C 52.167969 72.464844 51.765625 72.5625 51.421875 72.566406 L 38.578125 72.628906 L 38.558594 72.628906 C 38.210938 72.628906 37.871094 72.59375 37.625 72.566406 C 37.566406 72.558594 37.507812 72.550781 37.453125 72.546875 C 36.433594 72.453125 35.371094 72.199219 34.386719 71.707031 C 33.292969 71.164062 32.269531 70.324219 31.484375 69.609375 C 30.402344 68.628906 29.34375 67.492188 28.484375 66.246094 C 28.238281 65.882812 27.949219 65.421875 27.691406 64.984375 L 17.628906 75.054688 C 24.699219 80.808594 33.71875 84.257812 43.542969 84.257812 C 66.246094 84.257812 84.652344 65.851562 84.652344 43.152344 C 84.652344 33.316406 81.199219 24.289062 75.441406 17.214844 L 63.367188 29.292969 "/>
<path style=" stroke:none;fill-rule:nonzero;fill:rgb(93.527222%,17.272949%,18.882751%);fill-opacity:1;" d="M 17.058594 74.621094 L 74.972656 16.679688 C 73.4375 14.855469 71.78125 13.257812 69.960938 11.722656 L 12.058594 69.621094 C 13.582031 71.429688 15.253906 73.105469 17.058594 74.621094 "/>
<path style=" stroke:none;fill-rule:nonzero;fill:rgb(10.112%,40.585327%,73.280334%);fill-opacity:1;" d="M 48.757812 43.910156 L 46.320312 46.347656 C 46.738281 49.75 47.410156 51.765625 47.648438 51.765625 C 48.015625 51.765625 48.847656 48.445312 48.757812 43.910156 "/>
<path style=" stroke:none;fill-rule:nonzero;fill:rgb(13.729858%,12.159729%,12.548828%);fill-opacity:1;" d="M 56.449219 36.214844 C 56.453125 36.234375 56.457031 36.253906 56.460938 36.273438 C 56.480469 36.382812 56.511719 36.574219 56.46875 36.675781 C 56.449219 36.707031 56.398438 36.730469 56.363281 36.738281 C 56.324219 36.757812 56.269531 36.769531 56.222656 36.75 C 56.160156 36.726562 56.101562 36.675781 56.050781 36.613281 L 55.335938 37.332031 C 55.390625 37.367188 55.472656 37.40625 55.527344 37.429688 C 55.464844 37.523438 55.390625 37.628906 55.324219 37.730469 C 55.234375 37.867188 55.097656 38.09375 55.058594 38.25 C 54.988281 38.566406 55.058594 39.15625 55.101562 39.476562 C 55.164062 39.886719 55.226562 40.371094 55.269531 40.78125 C 55.296875 41.121094 55.347656 41.472656 55.425781 41.796875 C 55.488281 42.050781 55.601562 42.296875 55.765625 42.507812 C 55.84375 42.601562 55.925781 42.699219 56.007812 42.789062 C 55.925781 42.871094 55.789062 43.015625 55.726562 43.113281 C 55.59375 43.328125 55.523438 43.613281 55.488281 43.859375 C 55.386719 44.640625 55.488281 45.867188 55.570312 46.648438 C 55.59375 46.824219 55.628906 47.066406 55.695312 47.230469 C 55.738281 47.328125 55.839844 47.476562 55.902344 47.574219 C 55.839844 47.652344 55.746094 47.78125 55.683594 47.867188 C 55.601562 47.980469 55.464844 48.175781 55.414062 48.3125 C 55.371094 48.449219 55.359375 48.675781 55.359375 48.820312 L 55.285156 50.949219 C 55.285156 51.121094 55.289062 51.34375 55.332031 51.519531 C 55.359375 51.664062 55.425781 51.808594 55.507812 51.9375 C 55.558594 52.039062 55.628906 52.136719 55.6875 52.230469 C 55.628906 52.265625 55.546875 52.3125 55.488281 52.359375 C 55.382812 52.445312 55.296875 52.558594 55.230469 52.675781 C 55.144531 52.859375 55.058594 53.050781 54.988281 53.246094 L 54.21875 55.972656 C 54.191406 56.109375 54.152344 56.320312 54.121094 56.460938 C 54.101562 56.546875 54.0625 56.707031 54.070312 56.792969 C 54.074219 56.871094 54.109375 56.992188 54.132812 57.066406 C 54.070312 57.070312 53.957031 57.082031 53.894531 57.089844 C 53.722656 57.128906 53.519531 57.230469 53.371094 57.3125 C 52.953125 57.535156 52.554688 57.824219 52.199219 58.132812 C 52.007812 58.292969 51.824219 58.480469 51.65625 58.660156 C 51.582031 58.738281 51.457031 58.878906 51.410156 58.972656 C 51.386719 59.03125 51.367188 59.148438 51.355469 59.199219 C 51.074219 58.972656 50.738281 58.824219 50.386719 58.777344 C 50.03125 58.726562 49.660156 58.777344 49.324219 58.910156 C 49.320312 58.878906 49.296875 58.78125 49.285156 58.75 C 49.191406 58.492188 49.035156 58.25 48.855469 58.042969 C 48.617188 57.757812 48.347656 57.472656 48.089844 57.210938 C 47.964844 57.085938 47.796875 56.941406 47.648438 56.859375 C 47.578125 56.824219 47.441406 56.777344 47.359375 56.757812 C 47.398438 56.660156 47.453125 56.527344 47.480469 56.429688 C 47.554688 56.160156 47.570312 55.886719 47.535156 55.609375 C 47.496094 55.320312 47.429688 54.976562 47.371094 54.683594 C 47.203125 53.894531 46.984375 53.113281 46.722656 52.347656 C 46.671875 52.199219 46.597656 51.996094 46.515625 51.863281 C 46.417969 51.71875 46.28125 51.582031 46.152344 51.46875 C 46.078125 51.414062 46.007812 51.351562 45.933594 51.296875 C 45.941406 51.148438 45.941406 50.925781 45.941406 50.78125 C 45.941406 50.539062 45.914062 50.183594 45.890625 49.941406 C 45.882812 49.824219 45.867188 49.667969 45.859375 49.550781 C 45.820312 49.007812 45.765625 48.441406 45.695312 47.898438 C 45.660156 47.671875 45.597656 47.394531 45.492188 47.179688 L 44.589844 48.078125 C 44.617188 48.261719 44.636719 48.457031 44.644531 48.628906 C 44.675781 49.089844 44.746094 49.535156 44.832031 49.980469 C 44.894531 50.273438 44.957031 50.625 44.976562 50.917969 C 44.988281 51.054688 44.949219 51.203125 44.859375 51.3125 C 44.761719 51.429688 44.585938 51.460938 44.46875 51.359375 C 44.363281 51.28125 44.308594 51.046875 44.28125 50.914062 C 44.246094 50.742188 44.1875 50.519531 44.144531 50.355469 C 44.113281 50.214844 44.070312 50.035156 44.039062 49.890625 C 43.988281 49.640625 43.898438 49.265625 43.832031 49.003906 C 43.820312 48.960938 43.808594 48.917969 43.800781 48.871094 L 40.839844 51.832031 L 43.066406 50.304688 C 43.109375 50.503906 43.179688 50.785156 43.242188 50.972656 C 43.335938 51.285156 43.460938 51.59375 43.601562 51.890625 C 43.667969 52.023438 43.765625 52.214844 43.839844 52.34375 C 43.8125 52.40625 43.777344 52.488281 43.757812 52.550781 C 43.703125 52.710938 43.683594 52.898438 43.683594 53.066406 C 43.679688 53.332031 43.71875 53.589844 43.789062 53.835938 C 43.8125 53.90625 44.378906 55.496094 44.40625 55.566406 C 44.460938 55.714844 44.679688 56.335938 44.753906 56.472656 C 44.785156 56.546875 44.90625 56.726562 44.953125 56.792969 L 41.933594 59.730469 C 41.714844 59.660156 41.421875 59.570312 41.195312 59.554688 C 40.972656 59.546875 40.71875 59.59375 40.507812 59.660156 C 40.390625 59.695312 40.261719 59.730469 40.144531 59.777344 C 40.109375 59.675781 40.050781 59.527344 40.015625 59.429688 C 39.902344 59.132812 39.722656 58.695312 39.601562 58.402344 C 39.558594 58.296875 39.488281 58.136719 39.449219 58.03125 C 39.175781 57.371094 38.898438 56.652344 38.664062 55.972656 C 38.554688 55.65625 38.40625 55.199219 38.308594 54.875 C 38.554688 54.675781 38.800781 54.445312 39.023438 54.207031 C 39.289062 53.917969 39.488281 53.578125 39.574219 53.199219 C 39.582031 53.164062 39.585938 53.121094 39.59375 53.078125 L 37.140625 55.53125 C 37.195312 55.773438 37.257812 56.078125 37.3125 56.292969 C 37.488281 56.972656 37.757812 57.699219 38.027344 58.351562 C 38.269531 58.9375 38.53125 59.515625 38.8125 60.089844 C 38.929688 60.332031 39.105469 60.675781 39.226562 60.914062 C 39.132812 60.902344 38.996094 60.890625 38.90625 60.882812 C 38.757812 60.875 38.53125 60.902344 38.386719 60.929688 L 35.386719 61.265625 C 35.273438 61.308594 35.128906 61.359375 35.003906 61.34375 C 35 61.339844 34.972656 61.332031 34.972656 61.332031 C 34.921875 61.292969 34.867188 61.246094 34.816406 61.214844 C 34.636719 61.078125 34.429688 60.96875 34.203125 60.925781 C 33.933594 60.871094 33.601562 60.871094 33.328125 60.882812 L 31.773438 60.902344 L 30.730469 61.945312 L 32.65625 61.9375 C 32.921875 61.933594 33.144531 62.140625 33.144531 62.40625 C 33.144531 62.644531 32.957031 62.851562 32.714844 62.871094 L 29.824219 62.855469 L 28.71875 63.960938 C 29.019531 64.460938 29.371094 65.042969 29.652344 65.457031 C 30.433594 66.589844 31.410156 67.644531 32.4375 68.578125 C 33.191406 69.265625 34.105469 69.996094 35.019531 70.453125 C 35.816406 70.847656 36.703125 71.070312 37.589844 71.152344 C 37.90625 71.183594 38.25 71.207031 38.574219 71.222656 L 51.414062 71.164062 C 51.566406 71.164062 51.796875 71.109375 51.953125 71.078125 C 52.449219 70.960938 53.027344 70.691406 53.375 70.507812 C 63.421875 65.433594 65.683594 45.019531 62.199219 30.460938 L 61.304688 31.355469 C 61.34375 31.496094 61.375 31.628906 61.40625 31.75 C 61.265625 31.835938 61.113281 31.9375 60.976562 32.03125 C 60.703125 32.222656 60.46875 32.457031 60.269531 32.730469 C 60.136719 32.914062 60.003906 33.144531 59.960938 33.363281 C 59.929688 33.472656 59.925781 33.644531 59.925781 33.75 L 57.742188 34.917969 L 56.449219 36.214844 "/>
<path style=" stroke:none;fill-rule:nonzero;fill:rgb(13.729858%,12.159729%,12.548828%);fill-opacity:1;" d="M 26.042969 54.636719 C 26.015625 54.515625 25.988281 54.394531 25.960938 54.273438 C 25.851562 53.761719 25.71875 53 25.628906 52.480469 C 25.730469 52.542969 25.875 52.625 25.972656 52.667969 C 26.121094 52.734375 26.355469 52.800781 26.503906 52.839844 L 27.515625 53.164062 L 28.253906 52.425781 L 25.75 51.71875 C 25.667969 51.675781 25.589844 51.613281 25.53125 51.550781 C 25.46875 51.476562 25.453125 51.390625 25.464844 51.300781 C 25.480469 51.21875 25.546875 51.148438 25.628906 51.125 C 25.671875 51.113281 25.722656 51.109375 25.769531 51.109375 L 29.003906 51.679688 L 29.871094 50.808594 L 27.515625 50.378906 L 29.519531 49.097656 C 29.578125 49.074219 29.660156 49.015625 29.691406 48.960938 C 29.707031 48.933594 29.722656 48.875 29.726562 48.839844 C 29.847656 48.875 29.996094 48.90625 30.121094 48.917969 C 30.296875 48.941406 30.472656 48.917969 30.640625 48.855469 C 30.839844 48.78125 31.039062 48.671875 31.222656 48.566406 L 34.207031 46.476562 L 36.570312 44.113281 C 36.5625 43.941406 36.554688 43.753906 36.550781 43.613281 C 36.621094 43.621094 36.6875 43.632812 36.75 43.644531 C 36.828125 43.65625 36.90625 43.671875 36.984375 43.699219 L 37.746094 42.9375 C 37.523438 42.773438 37.273438 42.628906 37.007812 42.566406 C 36.851562 42.527344 36.671875 42.5 36.511719 42.484375 C 36.515625 42.28125 36.527344 41.976562 36.535156 41.777344 C 36.570312 40.824219 36.644531 39.835938 36.726562 38.886719 C 36.746094 38.605469 36.785156 38.199219 36.816406 37.917969 C 36.847656 37.519531 36.902344 36.941406 36.933594 36.546875 C 36.953125 36.347656 36.972656 36.0625 36.992188 35.863281 C 37.117188 35.859375 37.296875 35.847656 37.421875 35.839844 C 37.667969 35.824219 37.910156 35.785156 38.140625 35.722656 C 38.304688 35.679688 38.464844 35.59375 38.597656 35.484375 C 38.679688 35.410156 38.773438 35.3125 38.839844 35.230469 L 42.113281 37.265625 C 42.070312 37.347656 41.980469 37.515625 41.960938 37.601562 C 41.894531 37.824219 41.878906 38.167969 41.878906 38.394531 C 41.875 38.53125 41.875 38.667969 41.878906 38.800781 L 42.875 37.808594 C 42.882812 37.746094 42.890625 37.6875 42.898438 37.632812 C 42.933594 37.429688 43.019531 37.214844 43.171875 37.082031 C 43.308594 36.964844 43.5 36.957031 43.667969 37.011719 L 45.082031 35.601562 C 45.117188 35.480469 45.148438 35.351562 45.175781 35.238281 L 45.808594 32.367188 C 45.835938 32.261719 45.867188 32.128906 45.882812 32.011719 C 45.894531 31.835938 45.867188 31.660156 45.789062 31.5 C 45.742188 31.398438 45.675781 31.292969 45.609375 31.191406 C 45.683594 31.171875 45.777344 31.136719 45.851562 31.109375 C 45.976562 31.058594 46.117188 30.988281 46.203125 30.890625 C 46.265625 30.828125 46.328125 30.714844 46.363281 30.636719 C 46.523438 30.339844 46.691406 30.019531 46.84375 29.714844 C 47.035156 29.351562 47.265625 28.882812 47.402344 28.496094 C 47.492188 28.265625 47.589844 27.914062 47.660156 27.683594 C 47.765625 27.644531 47.867188 27.601562 47.972656 27.558594 C 48.160156 27.484375 48.371094 27.367188 48.515625 27.21875 C 48.667969 27.058594 48.808594 26.796875 48.90625 26.589844 C 49.410156 26.871094 50.019531 26.9375 50.574219 26.796875 C 50.6875 26.921875 50.800781 27.050781 50.910156 27.179688 C 51.117188 27.421875 51.378906 27.695312 51.625 27.90625 C 51.726562 27.996094 51.886719 28.109375 51.992188 28.195312 C 51.988281 28.265625 51.980469 28.339844 51.976562 28.414062 C 51.976562 28.503906 51.972656 28.601562 51.980469 28.699219 L 54.101562 26.582031 C 53.996094 26.367188 53.824219 26.109375 53.738281 25.988281 C 53.492188 25.625 53.183594 25.300781 52.847656 25.023438 C 52.695312 24.894531 52.457031 24.714844 52.265625 24.65625 C 52.160156 24.621094 51.949219 24.621094 51.835938 24.621094 C 51.90625 23.8125 51.273438 23.007812 50.457031 22.90625 L 50.492188 18.371094 C 51.023438 18.023438 51.53125 17.488281 51.511719 16.847656 C 51.507812 16.628906 52.183594 16.925781 52.414062 16.992188 C 53.1875 17.207031 53.972656 17.753906 54.589844 18.277344 C 55.152344 18.753906 55.675781 19.292969 56.15625 19.855469 C 56.765625 20.566406 57.324219 21.324219 57.808594 22.128906 C 57.890625 22.265625 57.984375 22.433594 58.082031 22.601562 L 58.96875 21.714844 C 56.996094 18.148438 54.453125 15.742188 51.40625 15.253906 C 51.09375 15.207031 50.207031 15.113281 49.722656 15.085938 L 36.570312 15.238281 C 36.289062 15.289062 36 15.339844 35.722656 15.40625 C 31.910156 16.242188 29.433594 20.171875 27.5 23.609375 C 27.285156 23.765625 27.078125 23.992188 27.015625 24.265625 C 27 24.328125 26.949219 24.566406 26.90625 24.617188 C 26.675781 24.910156 26.351562 24.921875 26.152344 25.605469 C 26.035156 26.015625 26.121094 26.484375 26.246094 26.859375 C 24.996094 30.15625 24.300781 34.261719 23.933594 37.75 C 23.792969 37.898438 23.652344 38.066406 23.542969 38.238281 C 23.382812 38.472656 23.3125 38.757812 23.335938 39.042969 C 23.355469 39.269531 23.449219 39.496094 23.582031 39.683594 C 23.664062 39.804688 23.75 39.929688 23.84375 40.039062 C 23.832031 40.375 23.800781 40.871094 23.792969 41.203125 C 23.773438 41.855469 23.773438 42.800781 23.78125 43.453125 C 23.785156 44.039062 23.785156 44.902344 23.773438 45.492188 C 23.75 46.414062 23.738281 48.199219 24.019531 49.078125 C 24.050781 49.160156 24.09375 49.316406 24.074219 49.402344 C 24.070312 49.429688 24.039062 49.492188 24.027344 49.511719 C 24.003906 49.546875 23.96875 49.609375 23.96875 49.648438 C 23.949219 49.746094 23.980469 49.898438 24.011719 49.992188 C 24.03125 50.074219 24.066406 50.210938 24.050781 50.292969 C 24.042969 50.335938 23.988281 50.417969 23.960938 50.460938 C 23.9375 50.484375 23.90625 50.535156 23.886719 50.574219 C 23.800781 50.75 23.804688 50.964844 23.863281 51.152344 C 23.898438 51.292969 23.96875 51.429688 24.0625 51.554688 C 24.074219 51.574219 24.425781 52.035156 24.433594 52.066406 C 24.480469 52.175781 24.519531 52.398438 24.527344 52.523438 C 24.640625 53.347656 24.90625 54.554688 25.140625 55.539062 L 26.042969 54.636719 "/>
<path style=" stroke:none;fill-rule:nonzero;fill:rgb(13.729858%,12.159729%,12.548828%);fill-opacity:1;" d="M 50.726562 41.9375 L 49.535156 43.128906 C 49.574219 43.878906 49.59375 44.632812 49.585938 45.382812 C 49.574219 46.808594 49.496094 48.367188 49.269531 49.777344 C 49.164062 50.410156 49.003906 51.046875 48.789062 51.65625 C 48.660156 52.003906 48.5 52.34375 48.300781 52.660156 C 48.210938 52.808594 48.054688 53.023438 47.949219 53.164062 L 48.507812 55.851562 C 48.65625 55.664062 48.875 55.382812 49.019531 55.1875 C 49.46875 54.527344 49.804688 53.800781 50.027344 53.03125 C 50.355469 51.867188 50.574219 50.640625 50.730469 49.441406 C 50.882812 48.230469 50.96875 47.003906 50.960938 45.785156 C 50.960938 44.503906 50.871094 43.210938 50.726562 41.9375 "/>
<path style=" stroke:none;fill-rule:nonzero;fill:rgb(13.729858%,12.159729%,12.548828%);fill-opacity:1;" d="M 47.300781 33.378906 L 48.402344 32.28125 C 48.269531 31.972656 48.132812 31.671875 47.992188 31.421875 C 47.851562 31.164062 47.617188 30.789062 47.457031 30.539062 C 47.285156 30.804688 47.140625 31.089844 47.03125 31.378906 C 46.90625 31.695312 46.816406 32.035156 46.773438 32.367188 C 46.925781 32.65625 47.121094 33.023438 47.300781 33.378906 "/>
<path style=" stroke:none;fill-rule:nonzero;fill:rgb(100%,100%,100%);fill-opacity:1;" d="M 50.246094 61.765625 C 49.644531 61.792969 49.1875 61.242188 49.332031 60.65625 C 49.480469 60.054688 50.199219 59.78125 50.714844 60.140625 C 50.871094 60.25 50.976562 60.398438 51.039062 60.574219 C 51.101562 60.753906 51.109375 60.9375 51.058594 61.117188 C 51.007812 61.300781 50.902344 61.457031 50.753906 61.574219 C 50.601562 61.6875 50.433594 61.753906 50.246094 61.765625 "/>
<path style=" stroke:none;fill-rule:nonzero;fill:rgb(100%,100%,100%);fill-opacity:1;" d="M 52.050781 60.316406 C 52.0625 60.195312 52.074219 60.074219 52.09375 59.953125 C 52.125 59.722656 52.210938 59.496094 52.332031 59.296875 C 52.542969 58.964844 52.875 58.730469 53.242188 58.605469 C 53.382812 58.554688 53.738281 58.433594 53.882812 58.457031 C 54.011719 58.484375 54.113281 58.582031 54.164062 58.710938 C 54.207031 58.835938 54.179688 58.976562 54.09375 59.085938 C 54.011719 59.191406 53.695312 59.472656 53.601562 59.5625 C 53.332031 59.804688 53.03125 59.996094 52.695312 60.121094 C 52.496094 60.203125 52.25 60.265625 52.050781 60.316406 "/>
<path style=" stroke:none;fill-rule:nonzero;fill:rgb(100%,100%,100%);fill-opacity:1;" d="M 55.667969 56.679688 C 55.597656 56.839844 55.417969 57.148438 55.25 57.125 C 55.128906 57.113281 55.066406 56.949219 55.050781 56.824219 C 55.015625 56.449219 55.128906 55.992188 55.242188 55.628906 C 55.328125 55.386719 55.40625 55.039062 55.460938 54.785156 C 55.5 54.597656 55.558594 54.328125 55.613281 54.140625 C 55.6875 53.902344 55.816406 53.507812 56.003906 53.339844 C 56.132812 53.226562 56.320312 53.21875 56.457031 53.320312 C 56.5625 53.40625 56.582031 53.578125 56.574219 53.707031 C 56.542969 53.933594 56.449219 54.230469 56.375 54.445312 C 56.226562 54.875 56.09375 55.328125 55.976562 55.773438 C 55.898438 56.074219 55.792969 56.394531 55.667969 56.679688 "/>
<path style=" stroke:none;fill-rule:nonzero;fill:rgb(100%,100%,100%);fill-opacity:1;" d="M 56.742188 51.964844 C 56.664062 51.957031 56.585938 51.925781 56.53125 51.871094 C 56.441406 51.765625 56.386719 51.621094 56.363281 51.476562 C 56.316406 51.101562 56.332031 50.695312 56.363281 50.308594 C 56.375 50.121094 56.386719 49.851562 56.386719 49.664062 C 56.390625 49.449219 56.398438 49.140625 56.425781 48.925781 C 56.441406 48.726562 56.492188 48.5 56.605469 48.332031 C 56.679688 48.210938 56.824219 48.136719 56.972656 48.164062 C 57.117188 48.183594 57.21875 48.308594 57.269531 48.445312 C 57.355469 48.683594 57.375 48.964844 57.355469 49.21875 C 57.351562 49.328125 57.34375 49.492188 57.335938 49.601562 C 57.324219 49.828125 57.300781 50.152344 57.273438 50.378906 C 57.261719 50.53125 57.164062 51.316406 57.136719 51.46875 C 57.117188 51.609375 57.0625 51.777344 56.96875 51.890625 C 56.914062 51.945312 56.820312 51.964844 56.742188 51.964844 "/>
<path style=" stroke:none;fill-rule:nonzero;fill:rgb(100%,100%,100%);fill-opacity:1;" d="M 57.386719 46.519531 C 57.371094 46.636719 57.332031 46.804688 57.246094 46.882812 C 57.15625 46.960938 57 46.941406 56.886719 46.898438 C 56.765625 46.847656 56.671875 46.742188 56.632812 46.617188 C 56.558594 46.347656 56.546875 46.023438 56.5625 45.742188 C 56.5625 45.671875 56.476562 44.289062 56.476562 44.21875 C 56.457031 43.941406 56.445312 43.464844 56.582031 43.210938 C 56.65625 43.070312 56.820312 43.003906 56.980469 43.019531 C 57.132812 43.027344 57.269531 43.152344 57.351562 43.285156 C 57.488281 43.484375 57.5625 43.730469 57.574219 43.972656 C 57.589844 44.40625 57.539062 45 57.496094 45.429688 C 57.484375 45.542969 57.476562 45.691406 57.464844 45.792969 C 57.445312 46.035156 57.414062 46.28125 57.386719 46.519531 "/>
<path style=" stroke:none;fill-rule:nonzero;fill:rgb(100%,100%,100%);fill-opacity:1;" d="M 57.023438 41.878906 C 56.949219 41.917969 56.824219 41.886719 56.75 41.859375 C 56.574219 41.792969 56.429688 41.660156 56.363281 41.492188 C 56.210938 41.105469 56.136719 40.621094 56.097656 40.214844 C 56.082031 40.035156 56.035156 39.777344 56.011719 39.609375 C 55.96875 39.359375 55.921875 39.007812 55.917969 38.757812 C 55.917969 38.558594 55.960938 38.339844 56.082031 38.183594 C 56.175781 38.066406 56.335938 38.023438 56.480469 38.039062 C 56.597656 38.050781 56.71875 38.09375 56.792969 38.1875 C 56.898438 38.339844 56.949219 38.535156 56.96875 38.710938 C 56.980469 38.808594 57.132812 39.960938 57.148438 40.058594 C 57.238281 40.503906 57.300781 41.023438 57.261719 41.480469 C 57.242188 41.640625 57.167969 41.816406 57.023438 41.878906 "/>
<path style=" stroke:none;fill-rule:nonzero;fill:rgb(100%,100%,100%);fill-opacity:1;" d="M 52.480469 27.4375 C 52.445312 27.472656 52.265625 27.308594 52.21875 27.269531 C 52.03125 27.101562 51.867188 26.910156 51.734375 26.695312 C 51.652344 26.550781 51.632812 26.382812 51.679688 26.222656 C 51.722656 26.0625 51.871094 25.953125 52.039062 25.953125 C 52.449219 25.96875 52.785156 26.34375 53.058594 26.652344 C 53.152344 26.757812 53.285156 26.902344 53.378906 26.996094 C 53.191406 27.015625 52.683594 27.269531 52.480469 27.4375 "/>
<path style=" stroke:none;fill-rule:nonzero;fill:rgb(100%,100%,100%);fill-opacity:1;" d="M 49.75 25.9375 C 49.078125 25.820312 48.726562 25.082031 49.054688 24.488281 C 49.40625 23.859375 50.300781 23.816406 50.714844 24.40625 C 50.824219 24.566406 50.886719 24.746094 50.886719 24.945312 C 50.894531 25.136719 50.84375 25.324219 50.738281 25.488281 C 50.636719 25.65625 50.488281 25.78125 50.3125 25.863281 C 50.136719 25.941406 49.945312 25.96875 49.75 25.9375 "/>
<path style=" stroke:none;fill-rule:nonzero;fill:rgb(100%,100%,100%);fill-opacity:1;" d="M 48.410156 26.03125 C 48.195312 26.210938 47.933594 26.351562 47.660156 26.4375 C 47.601562 26.183594 47.472656 25.949219 47.289062 25.769531 C 47.476562 25.667969 47.765625 25.53125 47.980469 25.441406 C 48.089844 25.648438 48.234375 25.855469 48.410156 26.03125 "/>
<path style=" stroke:none;fill-rule:nonzero;fill:rgb(100%,100%,100%);fill-opacity:1;" d="M 46.90625 27.433594 C 46.78125 27.664062 46.570312 28.132812 46.464844 28.378906 C 46.199219 28.972656 45.898438 29.570312 45.566406 30.140625 C 45.480469 30.300781 45.332031 30.515625 45.171875 30.59375 C 45.054688 30.648438 44.917969 30.621094 44.808594 30.566406 C 44.722656 30.523438 44.632812 30.449219 44.609375 30.355469 C 44.585938 30.21875 44.640625 30.023438 44.6875 29.890625 C 44.859375 29.390625 45.0625 28.882812 45.285156 28.410156 L 46.046875 26.828125 C 46.171875 26.675781 46.378906 26.609375 46.582031 26.621094 C 46.679688 26.625 46.789062 26.707031 46.867188 26.773438 C 46.980469 26.882812 47.042969 27.046875 47.003906 27.207031 C 46.988281 27.277344 46.9375 27.367188 46.90625 27.433594 "/>
<path style=" stroke:none;fill-rule:nonzero;fill:rgb(100%,100%,100%);fill-opacity:1;" d="M 44.792969 32.488281 C 44.742188 32.691406 44.6875 32.988281 44.648438 33.199219 C 44.636719 33.285156 44.605469 33.414062 44.59375 33.5 C 44.53125 33.808594 44.429688 34.25 44.355469 34.558594 C 44.300781 34.808594 44.21875 35.183594 44.160156 35.445312 C 44.136719 35.5625 44.085938 35.769531 44 35.863281 C 43.929688 35.949219 43.8125 35.976562 43.707031 35.964844 C 43.628906 35.957031 43.542969 35.921875 43.5 35.851562 C 43.398438 35.6875 43.378906 35.476562 43.398438 35.289062 C 43.441406 34.792969 43.519531 34.28125 43.597656 33.792969 C 43.65625 33.480469 43.71875 33.070312 43.753906 32.769531 C 43.773438 32.574219 43.832031 32.105469 43.914062 31.941406 C 43.972656 31.824219 44.09375 31.738281 44.21875 31.6875 C 44.363281 31.636719 44.53125 31.65625 44.648438 31.75 C 44.773438 31.835938 44.84375 31.96875 44.84375 32.117188 C 44.84375 32.238281 44.824219 32.371094 44.792969 32.488281 "/>
<path style=" stroke:none;fill-rule:nonzero;fill:rgb(100%,100%,100%);fill-opacity:1;" d="M 46.523438 55.871094 C 46.539062 55.992188 46.53125 56.109375 46.507812 56.222656 C 46.472656 56.347656 46.390625 56.472656 46.265625 56.507812 C 46.144531 56.535156 46.027344 56.449219 45.957031 56.347656 C 45.789062 56.109375 45.675781 55.769531 45.597656 55.492188 C 45.527344 55.222656 45.371094 54.863281 45.257812 54.609375 C 45.195312 54.472656 45.105469 54.28125 45.050781 54.140625 C 44.90625 53.769531 44.722656 53.214844 44.75 52.8125 C 44.761719 52.675781 44.84375 52.546875 44.945312 52.445312 C 45.039062 52.359375 45.164062 52.3125 45.28125 52.347656 C 45.46875 52.402344 45.59375 52.582031 45.65625 52.757812 C 45.734375 52.964844 45.832031 53.375 45.871094 53.589844 C 45.960938 53.972656 46.125 54.496094 46.25 54.867188 C 46.359375 55.183594 46.46875 55.546875 46.523438 55.871094 "/>
<path style=" stroke:none;fill-rule:nonzero;fill:rgb(100%,100%,100%);fill-opacity:1;" d="M 48.1875 59.640625 C 48.054688 59.773438 47.855469 59.847656 47.6875 59.78125 C 47.578125 59.734375 47.441406 59.632812 47.34375 59.554688 C 46.992188 59.265625 46.667969 58.921875 46.410156 58.542969 C 46.355469 58.460938 46.148438 58.152344 46.125 58.054688 C 46.09375 57.945312 46.128906 57.820312 46.210938 57.738281 C 46.3125 57.640625 46.46875 57.613281 46.605469 57.621094 C 46.804688 57.621094 47 57.707031 47.148438 57.839844 C 47.261719 57.945312 47.394531 58.101562 47.488281 58.230469 C 47.582031 58.347656 47.71875 58.507812 47.824219 58.621094 C 47.941406 58.734375 48.273438 59.089844 48.332031 59.242188 C 48.375 59.378906 48.292969 59.539062 48.1875 59.640625 "/>
<path style=" stroke:none;fill-rule:nonzero;fill:rgb(100%,100%,100%);fill-opacity:1;" d="M 48.238281 61.003906 C 48.183594 61.492188 48.339844 61.980469 48.667969 62.347656 C 48.945312 62.652344 49.328125 62.851562 49.746094 62.902344 L 50.066406 66.957031 C 49.953125 67.011719 49.777344 67.09375 49.671875 67.167969 C 49.429688 67.34375 49.257812 67.644531 49.148438 67.917969 C 48.996094 68.28125 48.90625 68.667969 48.855469 69.054688 C 48.835938 69.257812 48.808594 69.46875 48.796875 69.675781 C 48.214844 69.433594 47.359375 69.066406 46.832031 68.734375 C 46.300781 68.40625 45.769531 67.949219 45.3125 67.519531 C 44.667969 66.90625 44.0625 66.261719 43.507812 65.566406 C 43.09375 65.058594 42.65625 64.46875 42.324219 63.910156 C 42.167969 63.648438 41.96875 63.253906 41.824219 62.984375 C 42.191406 62.707031 42.46875 62.320312 42.609375 61.882812 C 42.757812 61.425781 42.753906 60.929688 42.597656 60.46875 L 45.226562 57.871094 C 45.21875 57.980469 45.207031 58.09375 45.214844 58.207031 C 45.214844 58.382812 45.257812 58.558594 45.339844 58.710938 C 45.414062 58.859375 45.519531 59.007812 45.621094 59.144531 L 46.945312 60.519531 C 47.050781 60.609375 47.160156 60.707031 47.269531 60.789062 C 47.441406 60.914062 47.644531 61.015625 47.859375 61.03125 C 47.972656 61.039062 48.132812 61.019531 48.238281 61.003906 "/>
<path style=" stroke:none;fill-rule:nonzero;fill:rgb(100%,100%,100%);fill-opacity:1;" d="M 42.484375 36.300781 L 39.109375 34.210938 C 39.109375 34.09375 39.109375 33.917969 39.085938 33.800781 C 39.046875 33.542969 38.933594 33.289062 38.789062 33.074219 C 38.601562 32.789062 38.363281 32.542969 38.070312 32.367188 C 37.933594 32.28125 37.78125 32.199219 37.636719 32.128906 C 37.695312 31.898438 37.769531 31.554688 37.832031 31.324219 C 38.050781 30.433594 38.3125 29.527344 38.621094 28.660156 C 38.910156 27.867188 39.246094 27.082031 39.609375 26.316406 C 39.707031 26.101562 39.855469 25.792969 39.960938 25.578125 C 40.191406 25.671875 40.476562 25.777344 40.726562 25.808594 C 41.003906 25.851562 41.285156 25.792969 41.546875 25.675781 C 41.628906 25.640625 41.714844 25.601562 41.796875 25.558594 L 44.230469 28.308594 C 44.203125 28.378906 44.160156 28.492188 44.132812 28.558594 C 44.03125 28.839844 43.929688 29.121094 43.847656 29.398438 C 43.742188 29.722656 43.675781 30.078125 43.691406 30.421875 C 43.691406 30.515625 43.710938 30.660156 43.71875 30.757812 C 43.679688 30.765625 43.628906 30.78125 43.585938 30.796875 C 43.410156 30.859375 43.265625 31 43.179688 31.167969 C 43.046875 31.421875 42.964844 31.714844 42.910156 32.003906 C 42.796875 32.546875 42.703125 33.113281 42.628906 33.664062 C 42.609375 33.824219 42.574219 34.03125 42.546875 34.191406 C 42.472656 34.582031 42.429688 34.976562 42.398438 35.371094 C 42.390625 35.523438 42.378906 35.8125 42.390625 35.964844 C 42.402344 36.042969 42.464844 36.226562 42.484375 36.300781 "/>
<path style=" stroke:none;fill-rule:nonzero;fill:rgb(100%,100%,100%);fill-opacity:1;" d="M 44.609375 27.289062 L 42.3125 24.816406 C 42.351562 24.71875 42.390625 24.609375 42.425781 24.503906 C 42.496094 24.269531 42.511719 24.019531 42.476562 23.78125 C 42.4375 23.503906 42.335938 23.238281 42.175781 23.007812 C 42.042969 22.808594 41.636719 22.671875 41.476562 22.492188 C 42.941406 20.425781 45.339844 18.546875 47.566406 17.332031 C 47.933594 17.960938 48.699219 18.460938 49.417969 18.496094 L 49.410156 22.875 C 48.765625 22.96875 48.222656 23.519531 48.140625 24.179688 C 47.980469 24.238281 47.746094 24.328125 47.601562 24.417969 C 47.355469 24.5625 47.136719 24.746094 46.953125 24.96875 C 46.910156 25.023438 46.777344 25.179688 46.722656 25.226562 C 46.667969 25.261719 46.574219 25.300781 46.515625 25.324219 C 46.464844 25.34375 46.390625 25.367188 46.347656 25.394531 C 46.292969 25.429688 46.226562 25.488281 46.183594 25.53125 C 46.152344 25.5625 46.089844 25.621094 46.050781 25.644531 C 46.023438 25.664062 45.617188 25.824219 45.589844 25.835938 C 45.320312 25.941406 45.125 26.183594 45.027344 26.457031 C 44.921875 26.734375 44.808594 27.011719 44.671875 27.277344 L 44.660156 27.292969 L 44.640625 27.300781 L 44.625 27.300781 L 44.609375 27.289062 "/>
<path style=" stroke:none;fill-rule:nonzero;fill:rgb(100%,100%,100%);fill-opacity:1;" d="M 57.464844 36.164062 L 60.152344 34.691406 C 60.320312 35 60.566406 35.261719 60.859375 35.449219 C 61.242188 35.683594 61.679688 35.789062 62.128906 35.742188 C 62.167969 36.09375 62.230469 36.582031 62.273438 36.925781 C 62.351562 37.558594 62.460938 38.488281 62.492188 39.132812 C 62.523438 39.667969 62.515625 40.457031 62.503906 40.996094 C 62.121094 41.023438 61.746094 41.148438 61.421875 41.363281 C 61.109375 41.570312 60.855469 41.859375 60.683594 42.195312 L 57.90625 42.242188 C 57.9375 42.210938 57.988281 42.15625 58.019531 42.121094 C 58.109375 42.003906 58.183594 41.867188 58.214844 41.722656 C 58.246094 41.515625 58.234375 41.226562 58.21875 41.023438 C 58.195312 40.730469 58.148438 40.300781 58.109375 40.003906 C 58.089844 39.828125 58.054688 39.570312 58.035156 39.390625 C 57.984375 38.882812 57.894531 38.339844 57.757812 37.84375 C 57.707031 37.664062 57.625 37.488281 57.507812 37.339844 C 57.445312 37.246094 57.351562 37.148438 57.277344 37.0625 C 57.308594 37.007812 57.378906 36.875 57.402344 36.804688 C 57.453125 36.617188 57.464844 36.363281 57.464844 36.164062 "/>
<path style=" stroke:none;fill-rule:nonzero;fill:rgb(100%,100%,100%);fill-opacity:1;" d="M 58.285156 43.273438 L 60.609375 43.183594 C 60.722656 43.609375 60.960938 43.976562 61.300781 44.253906 C 61.648438 44.535156 62.078125 44.699219 62.523438 44.714844 C 62.511719 45.089844 62.503906 45.636719 62.484375 46.003906 C 62.460938 46.757812 62.421875 47.625 62.363281 48.382812 C 62.328125 48.835938 62.261719 49.503906 62.210938 49.960938 C 62.0625 49.964844 61.902344 49.976562 61.746094 49.996094 C 61.453125 50.03125 61.160156 50.121094 60.910156 50.273438 C 60.773438 50.363281 60.628906 50.460938 60.496094 50.558594 L 58.328125 49.238281 C 58.351562 49.058594 58.367188 48.863281 58.382812 48.683594 C 58.402344 48.429688 58.394531 48.160156 58.351562 47.914062 C 58.3125 47.707031 58.226562 47.445312 58.164062 47.242188 C 58.195312 47.15625 58.265625 46.96875 58.285156 46.882812 C 58.351562 46.597656 58.390625 46.003906 58.410156 45.710938 C 58.414062 45.542969 58.414062 45.292969 58.410156 45.128906 C 58.40625 44.828125 58.40625 44.410156 58.472656 44.121094 C 58.507812 43.945312 58.539062 43.660156 58.414062 43.527344 L 58.269531 43.304688 L 58.265625 43.296875 L 58.269531 43.285156 L 58.277344 43.277344 L 58.285156 43.273438 "/>
<path style=" stroke:none;fill-rule:nonzero;fill:rgb(100%,100%,100%);fill-opacity:1;" d="M 58.175781 50.476562 L 60.003906 51.539062 C 60.011719 51.726562 60.023438 51.933594 60.046875 52.121094 C 60.09375 52.410156 60.207031 52.703125 60.417969 52.902344 C 60.792969 53.277344 61.375 53.542969 61.875 53.722656 C 61.820312 54.039062 61.730469 54.503906 61.664062 54.816406 C 61.523438 55.472656 61.34375 56.148438 61.144531 56.792969 C 60.957031 57.378906 60.722656 58.054688 60.523438 58.640625 C 60.410156 58.941406 60.257812 59.382812 60.148438 59.6875 C 60.003906 59.648438 59.804688 59.59375 59.660156 59.546875 C 59.355469 59.460938 58.910156 59.355469 58.59375 59.394531 C 58.363281 59.417969 58.121094 59.550781 57.929688 59.691406 C 57.875 59.730469 57.820312 59.773438 57.765625 59.8125 L 55.847656 58.324219 C 55.925781 58.25 56.089844 58.089844 56.15625 58.007812 C 56.414062 57.691406 56.628906 57.230469 56.789062 56.863281 C 56.984375 56.371094 57.171875 55.847656 57.335938 55.347656 C 57.484375 54.886719 57.636719 54.351562 57.742188 53.878906 C 57.808594 53.558594 57.820312 53.226562 57.765625 52.914062 C 57.730469 52.757812 57.6875 52.570312 57.636719 52.414062 C 57.730469 52.34375 57.917969 52.203125 57.992188 52.109375 C 58.1875 51.890625 58.222656 51.570312 58.179688 51.277344 C 58.140625 51.027344 58.117188 50.769531 58.117188 50.515625 L 58.121094 50.496094 L 58.132812 50.476562 L 58.152344 50.472656 L 58.175781 50.476562 "/>
<path style=" stroke:none;fill-rule:nonzero;fill:rgb(100%,100%,100%);fill-opacity:1;" d="M 55.476562 59.253906 L 57.449219 60.714844 C 57.425781 60.800781 57.40625 60.90625 57.394531 61 C 57.351562 61.300781 57.414062 61.613281 57.570312 61.875 C 57.667969 62.050781 57.789062 62.21875 57.925781 62.359375 C 58.167969 62.613281 58.445312 62.863281 58.707031 63.101562 C 58.550781 63.402344 58.394531 63.71875 58.238281 64.015625 C 57.914062 64.632812 57.554688 65.226562 57.15625 65.792969 C 56.699219 66.445312 56.167969 67.046875 55.585938 67.597656 C 55.085938 68.066406 54.523438 68.507812 53.929688 68.847656 C 53.621094 69.023438 53.152344 69.238281 52.828125 69.386719 C 52.785156 69.171875 52.730469 68.949219 52.679688 68.738281 C 52.582031 68.347656 52.429688 67.972656 52.214844 67.632812 C 52.078125 67.402344 51.878906 67.171875 51.640625 67.046875 C 51.515625 66.976562 51.292969 66.917969 51.152344 66.882812 L 50.757812 62.910156 C 51.160156 62.808594 51.515625 62.570312 51.753906 62.226562 C 51.949219 61.949219 52.058594 61.605469 52.054688 61.257812 C 52.191406 61.226562 52.484375 61.15625 52.617188 61.109375 C 52.871094 61.019531 53.21875 60.824219 53.457031 60.6875 C 53.597656 60.605469 53.816406 60.480469 53.960938 60.40625 C 54.238281 60.269531 54.925781 59.917969 55.152344 59.710938 C 55.242188 59.625 55.410156 59.363281 55.476562 59.253906 "/>
<path style=" stroke:none;fill-rule:nonzero;fill:rgb(100%,100%,100%);fill-opacity:1;" d="M 51.683594 69.863281 C 51.566406 70.074219 50.992188 70.03125 50.753906 69.996094 C 50.484375 69.957031 50.210938 69.914062 49.941406 69.855469 C 49.953125 69.582031 49.964844 69.292969 49.972656 69.027344 C 49.988281 68.710938 50.058594 68.394531 50.214844 68.117188 C 50.328125 67.917969 50.527344 67.765625 50.757812 67.765625 C 51.050781 67.761719 51.320312 67.9375 51.433594 68.199219 C 51.515625 68.371094 51.546875 68.558594 51.566406 68.746094 C 51.570312 68.851562 51.578125 69.015625 51.601562 69.125 C 51.617188 69.207031 51.722656 69.789062 51.683594 69.863281 "/>
<path style=" stroke:none;fill-rule:nonzero;fill:rgb(100%,100%,100%);fill-opacity:1;" d="M 41.417969 62.1875 L 41.367188 62.179688 L 41.324219 62.136719 C 41.183594 61.90625 41.054688 61.65625 40.953125 61.398438 C 40.867188 61.167969 40.730469 60.929688 40.597656 60.722656 C 40.699219 60.703125 40.804688 60.6875 40.90625 60.667969 C 41.078125 60.640625 41.261719 60.65625 41.425781 60.722656 C 41.601562 60.792969 41.722656 60.960938 41.785156 61.136719 C 41.855469 61.367188 41.8125 61.621094 41.679688 61.824219 C 41.667969 61.84375 41.449219 62.1875 41.417969 62.1875 "/>
<path style=" stroke:none;fill-rule:nonzero;fill:rgb(100%,100%,100%);fill-opacity:1;" d="M 37.101562 34.988281 C 37.039062 34.921875 37.296875 34.214844 37.332031 34.128906 C 37.414062 33.898438 37.445312 33.609375 37.457031 33.367188 C 37.683594 33.46875 37.921875 33.609375 38.089844 33.789062 C 38.253906 33.953125 38.328125 34.183594 38.257812 34.398438 C 38.171875 34.660156 37.953125 34.847656 37.695312 34.929688 C 37.578125 34.964844 37.183594 35.078125 37.101562 34.988281 "/>
<path style=" stroke:none;fill-rule:nonzero;fill:rgb(100%,100%,100%);fill-opacity:1;" d="M 40.484375 24.671875 C 40.410156 24.566406 40.714844 24.128906 40.785156 24.023438 C 40.929688 23.820312 41.054688 23.570312 41.160156 23.347656 C 41.265625 23.453125 41.371094 23.570312 41.453125 23.699219 C 41.578125 23.890625 41.640625 24.152344 41.535156 24.359375 C 41.417969 24.601562 41.167969 24.738281 40.902344 24.738281 C 40.820312 24.746094 40.527344 24.746094 40.484375 24.671875 "/>
<path style=" stroke:none;fill-rule:nonzero;fill:rgb(100%,100%,100%);fill-opacity:1;" d="M 48.613281 16.945312 L 48.769531 16.761719 C 49.324219 16.578125 49.957031 16.582031 50.570312 16.609375 C 50.484375 16.851562 50.339844 17.195312 50.152344 17.371094 C 49.734375 17.765625 48.550781 17.503906 48.613281 16.945312 "/>
<path style=" stroke:none;fill-rule:nonzero;fill:rgb(100%,100%,100%);fill-opacity:1;" d="M 61.640625 32.726562 L 61.703125 32.761719 L 61.730469 32.832031 C 61.785156 33.148438 61.816406 33.484375 61.824219 33.8125 C 61.828125 34.105469 61.867188 34.429688 61.910156 34.714844 C 61.707031 34.683594 61.492188 34.628906 61.304688 34.539062 C 61.070312 34.429688 60.898438 34.21875 60.859375 33.96875 C 60.816406 33.707031 60.890625 33.433594 61.039062 33.21875 C 61.152344 33.0625 61.460938 32.667969 61.640625 32.726562 "/>
<path style=" stroke:none;fill-rule:nonzero;fill:rgb(100%,100%,100%);fill-opacity:1;" d="M 62.570312 41.949219 C 62.910156 42.195312 62.542969 43.257812 62.570312 43.683594 C 62.347656 43.671875 62.089844 43.632812 61.890625 43.539062 C 61.722656 43.464844 61.601562 43.304688 61.539062 43.132812 C 61.464844 42.933594 61.457031 42.707031 61.546875 42.519531 C 61.632812 42.324219 61.796875 42.171875 61.984375 42.082031 C 62.109375 42.019531 62.457031 41.867188 62.570312 41.949219 "/>
<path style=" stroke:none;fill-rule:nonzero;fill:rgb(100%,100%,100%);fill-opacity:1;" d="M 61.960938 52.691406 C 61.898438 52.71875 61.617188 52.585938 61.550781 52.554688 C 61.339844 52.457031 61.15625 52.292969 61.035156 52.09375 C 60.929688 51.898438 60.949219 51.660156 61.066406 51.472656 C 61.191406 51.265625 61.40625 51.125 61.644531 51.066406 C 61.820312 51.015625 62.019531 50.984375 62.199219 50.964844 C 62.148438 51.25 62.105469 51.570312 62.113281 51.859375 C 62.113281 52.015625 62.113281 52.632812 61.960938 52.691406 "/>
<path style=" stroke:none;fill-rule:nonzero;fill:rgb(100%,100%,100%);fill-opacity:1;" d="M 59.894531 60.660156 C 59.773438 60.910156 59.648438 61.15625 59.519531 61.398438 C 59.414062 61.59375 59.3125 61.785156 59.199219 61.972656 C 59.050781 61.878906 58.894531 61.773438 58.757812 61.660156 C 58.554688 61.5 58.429688 61.265625 58.394531 61.023438 C 58.363281 60.847656 58.40625 60.671875 58.523438 60.546875 C 58.628906 60.429688 58.78125 60.355469 58.929688 60.355469 C 59.257812 60.359375 59.605469 60.507812 59.894531 60.660156 "/>
<path style=" stroke:none;fill-rule:nonzero;fill:rgb(100%,100%,100%);fill-opacity:1;" d="M 46.152344 69.824219 L 37.734375 69.925781 C 37.777344 69.878906 37.882812 69.769531 37.921875 69.710938 C 38.007812 69.59375 38.191406 69.238281 38.261719 69.105469 C 38.355469 68.917969 39.21875 67.535156 39.328125 67.355469 C 39.472656 67.132812 39.660156 66.785156 39.792969 66.546875 C 39.9375 66.273438 40.15625 65.882812 40.320312 65.617188 C 40.460938 65.410156 40.722656 64.984375 40.792969 64.746094 C 40.84375 64.570312 40.847656 64.246094 40.847656 64.066406 C 40.953125 64.269531 41.113281 64.554688 41.230469 64.746094 C 41.289062 64.851562 42.519531 66.417969 42.585938 66.511719 C 43.09375 67.152344 43.824219 68.011719 44.515625 68.460938 C 45.09375 68.835938 45.664062 69.253906 46.195312 69.699219 L 46.214844 69.734375 L 46.214844 69.78125 L 46.1875 69.8125 L 46.152344 69.824219 "/>
<path style=" stroke:none;fill-rule:nonzero;fill:rgb(100%,100%,100%);fill-opacity:1;" d="M 37.027344 69.082031 C 36.890625 69.3125 36.597656 69.421875 36.363281 69.289062 C 36.234375 69.226562 36.144531 69.097656 36.109375 68.957031 C 36.0625 68.808594 36.042969 68.625 36.101562 68.476562 C 36.183594 68.285156 36.308594 68.097656 36.4375 67.933594 L 39.027344 64.835938 C 39.058594 64.769531 39.109375 64.707031 39.164062 64.664062 C 39.226562 64.601562 39.328125 64.59375 39.410156 64.636719 C 39.476562 64.667969 39.515625 64.742188 39.503906 64.824219 C 39.496094 64.90625 39.460938 64.988281 39.414062 65.058594 L 37.027344 69.082031 "/>
<path style=" stroke:none;fill-rule:nonzero;fill:rgb(100%,100%,100%);fill-opacity:1;" d="M 35.0625 69.152344 L 35.015625 69.171875 L 34.96875 69.160156 C 34.792969 69.050781 34.621094 68.917969 34.472656 68.78125 C 34.167969 68.496094 33.804688 68.207031 33.472656 67.964844 C 33.34375 67.859375 33.183594 67.738281 33.058594 67.636719 C 32.632812 67.273438 32.160156 66.75 31.796875 66.328125 C 31.421875 65.894531 30.988281 65.320312 30.652344 64.863281 C 30.449219 64.582031 30.152344 64.175781 29.945312 63.894531 L 34.03125 63.910156 C 34.148438 63.90625 34.273438 63.898438 34.390625 63.886719 C 34.515625 63.871094 34.644531 63.832031 34.75 63.769531 C 34.8125 63.722656 34.886719 63.664062 34.941406 63.605469 L 38.832031 63.761719 C 38.765625 63.804688 38.632812 63.894531 38.574219 63.945312 C 38.402344 64.082031 38.210938 64.292969 38.070312 64.460938 L 35.519531 67.636719 C 35.40625 67.796875 35.210938 68.054688 35.144531 68.242188 C 35.085938 68.410156 35.085938 68.710938 35.085938 68.890625 C 35.085938 68.929688 35.085938 69.117188 35.0625 69.152344 "/>
<path style=" stroke:none;fill-rule:nonzero;fill:rgb(100%,100%,100%);fill-opacity:1;" d="M 35.285156 62.816406 C 35.28125 62.71875 35.273438 62.628906 35.269531 62.53125 C 35.261719 62.398438 35.253906 62.253906 35.25 62.109375 L 38.558594 61.863281 C 38.710938 61.84375 38.933594 61.84375 39.070312 61.917969 C 39.199219 61.988281 39.265625 62.164062 39.28125 62.316406 C 39.300781 62.457031 39.28125 62.636719 39.1875 62.738281 C 39.121094 62.816406 38.957031 62.875 38.859375 62.90625 L 35.285156 62.816406 "/>
<path style=" stroke:none;fill-rule:nonzero;fill:rgb(100%,100%,100%);fill-opacity:1;" d="M 36.953125 55.722656 L 33.03125 59.644531 C 33.148438 59.609375 33.253906 59.554688 33.355469 59.484375 C 33.460938 59.40625 33.566406 59.320312 33.660156 59.226562 L 36.414062 56.566406 C 36.488281 56.492188 36.613281 56.363281 36.667969 56.28125 C 36.730469 56.1875 36.863281 55.917969 36.90625 55.816406 C 36.917969 55.785156 36.933594 55.753906 36.953125 55.722656 "/>
<path style=" stroke:none;fill-rule:nonzero;fill:rgb(100%,100%,100%);fill-opacity:1;" d="M 25.273438 50.226562 C 25.210938 50.125 25.164062 50.003906 25.164062 49.882812 C 25.167969 49.773438 25.21875 49.664062 25.296875 49.582031 C 25.378906 49.488281 25.480469 49.398438 25.578125 49.320312 L 28.222656 47.878906 C 28.351562 47.855469 28.511719 47.84375 28.625 47.890625 C 28.730469 47.925781 28.808594 48.019531 28.84375 48.121094 C 28.886719 48.230469 28.894531 48.367188 28.832031 48.472656 C 28.78125 48.5625 28.691406 48.636719 28.613281 48.707031 L 26.457031 50.148438 C 26.292969 50.257812 26.109375 50.363281 25.921875 50.433594 C 25.785156 50.488281 25.628906 50.488281 25.5 50.433594 C 25.40625 50.386719 25.328125 50.308594 25.273438 50.226562 "/>
<path style=" stroke:none;fill-rule:nonzero;fill:rgb(100%,100%,100%);fill-opacity:1;" d="M 30.445312 47.382812 C 30.390625 47.238281 30.347656 47.042969 30.429688 46.917969 C 30.503906 46.796875 30.691406 46.703125 30.816406 46.648438 L 33.675781 45.042969 C 33.730469 44.992188 33.808594 44.9375 33.882812 44.90625 C 33.960938 44.875 34.054688 44.90625 34.125 44.957031 C 34.238281 45.042969 34.261719 45.195312 34.1875 45.316406 C 34.144531 45.382812 34.078125 45.441406 34.011719 45.492188 L 31.316406 47.371094 C 31.242188 47.433594 31.160156 47.496094 31.078125 47.542969 C 30.953125 47.621094 30.796875 47.644531 30.660156 47.601562 C 30.5625 47.5625 30.488281 47.476562 30.445312 47.382812 "/>
<path style=" stroke:none;fill-rule:nonzero;fill:rgb(100%,100%,100%);fill-opacity:1;" d="M 25.171875 48.542969 C 25.167969 48.390625 25.164062 48.164062 25.15625 48.003906 C 25.144531 47.734375 25.128906 47.339844 25.113281 47.066406 C 25.101562 46.75 25.078125 46.277344 25.0625 45.953125 C 25.050781 45.535156 25.03125 44.933594 25.019531 44.507812 C 25.015625 44.304688 25.007812 43.996094 25.003906 43.796875 C 24.984375 43.238281 24.953125 42.195312 24.976562 41.644531 C 24.984375 41.300781 25.019531 40.804688 25.046875 40.464844 C 25.078125 40.496094 25.121094 40.558594 25.15625 40.585938 C 25.25 40.652344 25.394531 40.695312 25.503906 40.722656 L 28.335938 42.015625 C 28.425781 42.058594 28.554688 42.125 28.652344 42.15625 C 28.746094 42.183594 28.894531 42.203125 28.992188 42.207031 C 29.03125 42.28125 29.09375 42.382812 29.136719 42.445312 C 29.269531 42.625 29.429688 42.789062 29.617188 42.90625 C 29.75 42.996094 29.890625 43.078125 30.03125 43.152344 L 33.070312 44.433594 C 32.984375 44.453125 32.796875 44.496094 32.707031 44.527344 C 32.414062 44.621094 31.980469 44.835938 31.699219 44.976562 C 31.519531 45.070312 31.269531 45.214844 31.09375 45.320312 C 30.894531 45.433594 30.605469 45.59375 30.40625 45.699219 C 30.078125 45.863281 29.742188 46.058594 29.449219 46.292969 C 29.355469 46.371094 29.261719 46.480469 29.234375 46.601562 C 29.21875 46.671875 29.234375 46.796875 29.246094 46.878906 C 29.148438 46.878906 29.042969 46.878906 28.941406 46.878906 C 28.765625 46.878906 28.515625 46.886719 28.347656 46.941406 C 28.234375 46.972656 28.078125 47.058594 27.972656 47.109375 L 25.171875 48.542969 "/>
<path style=" stroke:none;fill-rule:nonzero;fill:rgb(100%,100%,100%);fill-opacity:1;" d="M 34.265625 43.71875 L 33.894531 43.792969 L 30.503906 42.25 C 30.332031 42.167969 30.128906 42.046875 30 41.90625 C 29.902344 41.785156 29.863281 41.625 29.863281 41.46875 C 29.871094 41.347656 29.902344 41.222656 29.984375 41.128906 C 30.0625 41.046875 30.175781 41.007812 30.296875 41.015625 C 30.421875 41.03125 30.546875 41.066406 30.664062 41.117188 C 31.769531 41.742188 32.898438 42.421875 33.953125 43.132812 C 34.078125 43.210938 34.246094 43.34375 34.285156 43.488281 C 34.296875 43.542969 34.277344 43.664062 34.265625 43.71875 "/>
<path style=" stroke:none;fill-rule:nonzero;fill:rgb(100%,100%,100%);fill-opacity:1;" d="M 28.785156 40.898438 L 28.175781 40.949219 L 25.578125 39.773438 C 25.492188 39.75 25.347656 39.691406 25.296875 39.632812 C 25.179688 39.515625 25.128906 39.296875 25.117188 39.136719 C 25.101562 39.011719 25.101562 38.828125 25.167969 38.71875 C 25.230469 38.628906 25.347656 38.59375 25.453125 38.605469 C 25.566406 38.613281 25.671875 38.664062 25.773438 38.710938 L 28.691406 40.550781 C 28.742188 40.605469 28.816406 40.699219 28.824219 40.777344 C 28.824219 40.8125 28.800781 40.871094 28.785156 40.898438 "/>
<path style=" stroke:none;fill-rule:nonzero;fill:rgb(100%,100%,100%);fill-opacity:1;" d="M 35.085938 42.675781 L 30.84375 40.160156 C 30.703125 40.074219 30.511719 39.960938 30.355469 39.90625 C 30.175781 39.847656 29.949219 39.84375 29.753906 39.851562 C 29.664062 39.863281 29.578125 39.867188 29.484375 39.878906 L 26.21875 37.785156 L 29.136719 36.945312 C 29.53125 36.835938 30.027344 36.671875 30.390625 36.484375 C 30.488281 36.433594 30.6875 36.304688 30.78125 36.242188 L 34.640625 35.507812 C 34.851562 35.453125 35.132812 35.378906 35.339844 35.296875 C 35.398438 35.265625 35.53125 35.203125 35.59375 35.171875 C 35.539062 35.472656 35.453125 35.90625 35.410156 36.203125 C 35.304688 36.902344 35.238281 38.042969 35.207031 38.746094 C 35.167969 39.449219 35.105469 40.738281 35.09375 41.449219 C 35.085938 41.800781 35.085938 42.320312 35.085938 42.675781 "/>
<path style=" stroke:none;fill-rule:nonzero;fill:rgb(100%,100%,100%);fill-opacity:1;" d="M 25.414062 37.054688 L 25.394531 37.054688 L 25.390625 37.050781 L 25.382812 37.039062 L 25.359375 36.851562 C 25.351562 36.726562 25.402344 36.605469 25.496094 36.515625 C 25.589844 36.429688 25.734375 36.347656 25.84375 36.289062 L 28.828125 35.214844 C 29.03125 35.128906 29.265625 35.070312 29.488281 35.085938 C 29.628906 35.089844 29.757812 35.164062 29.824219 35.289062 C 29.867188 35.371094 29.867188 35.484375 29.847656 35.578125 C 29.835938 35.664062 29.785156 35.746094 29.714844 35.800781 C 29.605469 35.882812 29.472656 35.945312 29.34375 35.984375 L 25.414062 37.054688 "/>
<path style=" stroke:none;fill-rule:nonzero;fill:rgb(100%,100%,100%);fill-opacity:1;" d="M 31.105469 35.328125 C 31.09375 35.226562 31.074219 35.128906 31.042969 35.035156 C 31.011719 34.921875 30.972656 34.808594 30.929688 34.707031 C 31.136719 34.644531 31.441406 34.550781 31.648438 34.492188 C 31.855469 34.425781 32.15625 34.339844 32.363281 34.285156 C 32.773438 34.164062 33.34375 33.996094 33.742188 33.84375 C 34.152344 33.6875 34.601562 33.5625 35.035156 33.535156 C 35.21875 33.527344 35.421875 33.570312 35.539062 33.710938 C 35.640625 33.832031 35.664062 34.007812 35.578125 34.140625 C 35.453125 34.320312 35.25 34.433594 35.039062 34.492188 C 34.777344 34.570312 34.496094 34.628906 34.21875 34.679688 L 31.105469 35.328125 "/>
<path style=" stroke:none;fill-rule:nonzero;fill:rgb(100%,100%,100%);fill-opacity:1;" d="M 25.308594 35.722656 L 25.28125 35.722656 L 25.261719 35.714844 L 25.246094 35.691406 L 25.238281 35.664062 C 25.277344 35.332031 25.339844 35.003906 25.421875 34.683594 C 25.457031 34.535156 25.765625 32.515625 25.789062 32.363281 C 25.914062 31.550781 26.21875 30.460938 26.453125 29.679688 C 26.636719 29.070312 26.933594 28.191406 27.144531 27.589844 C 27.175781 27.640625 27.230469 27.730469 27.269531 27.773438 C 27.359375 27.867188 27.503906 27.953125 27.609375 28.011719 L 30.117188 29.667969 C 30.167969 29.691406 30.253906 29.726562 30.304688 29.738281 C 30.375 29.75 30.472656 29.730469 30.535156 29.726562 C 30.550781 29.78125 30.578125 29.894531 30.597656 29.945312 C 30.6875 30.15625 30.835938 30.335938 30.996094 30.488281 C 31.179688 30.667969 31.375 30.84375 31.566406 31 L 34.261719 32.761719 C 34.074219 32.800781 33.808594 32.855469 33.621094 32.894531 C 32.722656 33.101562 31.84375 33.382812 30.992188 33.746094 C 30.867188 33.792969 30.691406 33.871094 30.574219 33.925781 L 30.542969 33.933594 C 30.460938 33.976562 30.335938 34.027344 30.253906 34.0625 C 30.167969 34.058594 30.042969 34.046875 29.953125 34.046875 C 29.691406 34.039062 29.433594 34.078125 29.179688 34.160156 C 29.058594 34.207031 28.914062 34.257812 28.792969 34.308594 L 25.816406 35.421875 C 25.707031 35.472656 25.589844 35.53125 25.492188 35.597656 C 25.480469 35.601562 25.4375 35.640625 25.421875 35.652344 C 25.410156 35.660156 25.328125 35.722656 25.308594 35.722656 "/>
<path style=" stroke:none;fill-rule:nonzero;fill:rgb(100%,100%,100%);fill-opacity:1;" d="M 35.84375 32.226562 L 35.246094 32.269531 L 31.820312 30.011719 C 31.675781 29.917969 31.515625 29.792969 31.421875 29.648438 C 31.34375 29.539062 31.328125 29.390625 31.351562 29.25 C 31.378906 29.082031 31.464844 28.921875 31.613281 28.828125 C 31.71875 28.761719 31.847656 28.71875 31.964844 28.746094 C 32.070312 28.761719 32.183594 28.804688 32.277344 28.855469 L 35.503906 31.222656 C 35.679688 31.359375 35.855469 31.527344 35.960938 31.726562 C 36.015625 31.839844 36.023438 31.980469 35.960938 32.101562 C 35.9375 32.144531 35.875 32.195312 35.84375 32.226562 "/>
<path style=" stroke:none;fill-rule:nonzero;fill:rgb(100%,100%,100%);fill-opacity:1;" d="M 36.539062 31.117188 C 36.527344 31.109375 36.5 31.0625 36.496094 31.050781 C 36.472656 31.011719 36.421875 30.910156 36.394531 30.878906 L 35.984375 30.488281 C 35.109375 29.660156 34.101562 28.808594 33.082031 28.171875 C 32.785156 27.984375 32.445312 27.804688 32.101562 27.710938 C 31.980469 27.671875 31.65625 27.644531 31.535156 27.640625 L 29.433594 25.691406 C 29.742188 25.632812 30.199219 25.550781 30.507812 25.496094 C 30.9375 25.414062 31.886719 25.238281 32.324219 25.171875 C 32.574219 25.132812 32.949219 25.082031 33.207031 25.050781 C 33.417969 25.171875 33.664062 25.28125 33.925781 25.265625 C 35.21875 25.199219 37.335938 24.859375 38.652344 24.589844 C 38.839844 24.558594 38.628906 25.257812 38.546875 25.46875 C 38.359375 25.957031 38.027344 26.703125 37.804688 27.175781 C 37.671875 27.457031 37.171875 28.996094 37.078125 29.289062 C 36.972656 29.597656 36.703125 30.429688 36.648438 30.75 L 36.566406 31.097656 L 36.546875 31.117188 L 36.539062 31.117188 "/>
<path style=" stroke:none;fill-rule:nonzero;fill:rgb(100%,100%,100%);fill-opacity:1;" d="M 30.277344 28.632812 L 27.71875 26.976562 C 27.648438 26.863281 27.550781 26.710938 27.53125 26.582031 C 27.511719 26.464844 27.5625 26.34375 27.625 26.242188 C 27.6875 26.136719 27.832031 25.898438 27.957031 25.863281 C 28.023438 25.835938 28.164062 25.851562 28.238281 25.863281 L 30.695312 27.976562 C 30.585938 28.050781 30.496094 28.152344 30.425781 28.265625 C 30.351562 28.378906 30.304688 28.5 30.277344 28.632812 "/>
<path style=" stroke:none;fill-rule:nonzero;fill:rgb(100%,100%,100%);fill-opacity:1;" d="M 28.566406 24.851562 C 28.566406 24.59375 28.632812 24.335938 28.746094 24.101562 C 28.828125 23.945312 28.925781 23.800781 29.046875 23.675781 L 32.140625 23.46875 C 32.265625 23.488281 32.398438 23.511719 32.519531 23.550781 C 32.628906 23.597656 32.722656 23.679688 32.761719 23.789062 C 32.785156 23.863281 32.761719 23.945312 32.730469 24.011719 C 32.691406 24.082031 32.625 24.144531 32.546875 24.167969 C 32.492188 24.199219 32.425781 24.214844 32.367188 24.226562 L 28.566406 24.851562 "/>
<path style=" stroke:none;fill-rule:nonzero;fill:rgb(100%,100%,100%);fill-opacity:1;" d="M 29.488281 22.800781 C 30.8125 20.675781 32.746094 18.5625 34.722656 17.164062 C 34.722656 17.847656 34.84375 18.519531 35.410156 19.09375 L 38.472656 22.164062 L 29.488281 22.800781 "/>
<path style=" stroke:none;fill-rule:nonzero;fill:rgb(100%,100%,100%);fill-opacity:1;" d="M 33.683594 23.78125 C 33.683594 23.714844 33.683594 23.582031 33.710938 23.523438 C 33.761719 23.414062 33.894531 23.351562 34.011719 23.328125 C 34.171875 23.285156 34.347656 23.265625 34.515625 23.257812 L 38.113281 23.007812 C 38.394531 23.007812 38.765625 22.964844 38.761719 23.347656 C 38.761719 23.523438 38.574219 23.628906 38.417969 23.671875 L 34.527344 24.222656 C 34.390625 24.253906 34.242188 24.277344 34.105469 24.265625 C 33.960938 24.246094 33.828125 24.171875 33.757812 24.046875 C 33.710938 23.972656 33.691406 23.898438 33.691406 23.816406 C 33.691406 23.804688 33.691406 23.789062 33.691406 23.785156 L 33.683594 23.78125 "/>
<path style=" stroke:none;fill-rule:nonzero;fill:rgb(100%,100%,100%);fill-opacity:1;" d="M 40.769531 21.324219 L 37.085938 16.398438 L 46.71875 16.359375 C 44.636719 17.378906 42.074219 19.410156 40.769531 21.324219 "/>
<path style=" stroke:none;fill-rule:nonzero;fill:rgb(100%,100%,100%);fill-opacity:1;" d="M 39.441406 21.347656 C 39.347656 21.433594 39.167969 21.355469 39.0625 21.285156 L 35.714844 17.746094 C 35.671875 17.425781 35.953125 17.152344 36.273438 17.199219 L 39.472656 21.253906 C 39.480469 21.289062 39.46875 21.328125 39.441406 21.347656 "/>
</g>
</svg>
