<?xml version="1.0" encoding="UTF-8"?>
<svg xmlns="http://www.w3.org/2000/svg" xmlns:xlink="http://www.w3.org/1999/xlink" width="101pt" height="72pt" viewBox="0 0 101 72" version="1.1">
<g id="surface1">
<path style=" stroke:none;fill-rule:nonzero;fill:rgb(100%,100%,100%);fill-opacity:1;" d="M 100.105469 71.65625 L 0.894531 71.65625 L 0.894531 0.789062 L 100.105469 0.789062 L 100.105469 71.65625 "/>
<path style="fill:none;stroke-width:2.835;stroke-linecap:butt;stroke-linejoin:round;stroke:rgb(13.729858%,12.159729%,12.548828%);stroke-opacity:1;stroke-miterlimit:4;" d="M 1001.054688 3.4375 L 8.945312 3.4375 L 8.945312 712.109375 L 1001.054688 712.109375 Z M 1001.054688 3.4375 " transform="matrix(0.1,0,0,-0.1,0,72)"/>
<path style=" stroke:none;fill-rule:nonzero;fill:rgb(13.729858%,12.159729%,12.548828%);fill-opacity:1;" d="M 5.148438 2.203125 C 3.582031 2.203125 2.3125 3.472656 2.3125 5.039062 L 2.3125 67.398438 C 2.3125 68.96875 3.582031 70.234375 5.148438 70.234375 L 95.855469 70.234375 C 97.421875 70.234375 98.691406 68.96875 98.691406 67.398438 L 98.691406 5.039062 C 98.691406 3.472656 97.421875 2.203125 95.855469 2.203125 L 5.148438 2.203125 "/>
<path style=" stroke:none;fill-rule:nonzero;fill:rgb(100%,100%,100%);fill-opacity:1;" d="M 5.144531 3.617188 C 4.363281 3.617188 3.730469 4.253906 3.730469 5.039062 L 3.730469 67.402344 C 3.730469 68.183594 4.363281 68.816406 5.144531 68.816406 L 95.859375 68.816406 C 96.640625 68.816406 97.273438 68.183594 97.273438 67.402344 L 97.273438 5.039062 C 97.273438 4.253906 96.640625 3.617188 95.859375 3.617188 L 5.144531 3.617188 "/>
<path style=" stroke:none;fill-rule:nonzero;fill:rgb(10.112%,40.585327%,73.280334%);fill-opacity:1;" d="M 82.925781 60.984375 L 82.925781 64.566406 L 18.070312 64.566406 L 18.070312 22.074219 L 82.925781 22.074219 L 82.9375 47.859375 C 80.265625 45.085938 76.175781 44.210938 72.597656 45.648438 C 69.019531 47.089844 66.679688 50.558594 66.679688 54.410156 C 66.679688 58.269531 69.019531 61.734375 72.597656 63.179688 C 76.175781 64.617188 80.253906 63.765625 82.925781 60.984375 "/>
<path style=" stroke:none;fill-rule:nonzero;fill:rgb(100%,100%,100%);fill-opacity:1;" d="M 60.15625 34.308594 C 60.632812 34.308594 61.023438 34.699219 61.023438 35.175781 C 61.023438 35.65625 60.632812 36.042969 60.15625 36.042969 C 59.675781 36.042969 59.285156 35.65625 59.285156 35.175781 C 59.285156 34.699219 59.675781 34.308594 60.15625 34.308594 "/>
<path style=" stroke:none;fill-rule:nonzero;fill:rgb(100%,100%,100%);fill-opacity:1;" d="M 42.664062 46.457031 C 45.117188 46.457031 47.59375 46.28125 48.136719 45.960938 C 48.136719 46.894531 47.851562 48.652344 49.429688 48.125 C 50.167969 47.878906 49.875 46.304688 49.875 45.945312 C 50.90625 45.425781 50.628906 44.773438 50.65625 43.617188 C 50.703125 41.628906 50.285156 39.644531 49.253906 39.183594 L 49.289062 39.171875 C 49.835938 39.078125 50.402344 39.089844 50.886719 39.125 C 51.007812 39.132812 51.101562 39.070312 51.117188 38.886719 L 51.058594 38.140625 C 51.058594 37.988281 50.953125 37.9375 50.835938 37.945312 L 49.996094 37.917969 C 49.710938 37.894531 49.511719 37.878906 49.332031 38.082031 L 48.941406 38.824219 C 48.601562 37.496094 48.414062 36.378906 47.941406 35.058594 C 47.621094 34.171875 44.929688 34.027344 42.664062 34.050781 C 40.398438 34.027344 37.703125 34.171875 37.386719 35.058594 C 36.914062 36.378906 36.726562 37.496094 36.386719 38.824219 L 35.996094 38.082031 C 35.816406 37.878906 35.617188 37.894531 35.328125 37.917969 L 34.492188 37.945312 C 34.375 37.9375 34.269531 37.988281 34.269531 38.140625 L 34.210938 38.886719 C 34.222656 39.070312 34.320312 39.132812 34.441406 39.125 C 34.925781 39.089844 35.492188 39.078125 36.039062 39.171875 L 36.074219 39.183594 C 35.042969 39.644531 34.625 41.628906 34.671875 43.617188 C 34.699219 44.773438 34.421875 45.425781 35.453125 45.945312 C 35.453125 46.304688 35.15625 47.878906 35.898438 48.125 C 37.472656 48.652344 37.191406 46.894531 37.191406 45.960938 C 37.730469 46.28125 40.210938 46.457031 42.664062 46.457031 "/>
<path style=" stroke:none;fill-rule:nonzero;fill:rgb(100%,100%,100%);fill-opacity:1;" d="M 28.144531 38.625 C 29.425781 38.625 30.464844 39.667969 30.464844 40.949219 C 30.464844 42.230469 29.425781 43.269531 28.144531 43.269531 C 26.859375 43.269531 25.820312 42.230469 25.820312 40.949219 C 25.820312 39.667969 26.859375 38.625 28.144531 38.625 "/>
<path style=" stroke:none;fill-rule:nonzero;fill:rgb(100%,100%,100%);fill-opacity:1;" d="M 55.90625 29.304688 C 56.441406 29.304688 56.875 29.738281 56.875 30.273438 C 56.875 30.808594 56.441406 31.242188 55.90625 31.242188 C 55.371094 31.242188 54.9375 30.808594 54.9375 30.273438 C 54.9375 29.738281 55.371094 29.304688 55.90625 29.304688 "/>
<path style=" stroke:none;fill-rule:nonzero;fill:rgb(100%,100%,100%);fill-opacity:1;" d="M 52.683594 50.582031 C 53.609375 50.582031 54.367188 51.339844 54.367188 52.261719 C 54.367188 53.1875 53.609375 53.945312 52.683594 53.945312 C 51.757812 53.945312 51.003906 53.1875 51.003906 52.261719 C 51.003906 51.339844 51.757812 50.582031 52.683594 50.582031 "/>
<path style=" stroke:none;fill-rule:nonzero;fill:rgb(100%,100%,100%);fill-opacity:1;" d="M 24.714844 48.464844 C 24.242188 49.347656 23.921875 50.0625 23.386719 50.929688 C 23.089844 51.621094 22.867188 52.390625 22.539062 52.996094 C 22.324219 53.4375 21.902344 53.847656 21.394531 53.742188 C 21.074219 53.625 21.128906 53.433594 21.042969 53.253906 C 21.230469 49.863281 23.34375 46.832031 24.40625 45.019531 C 24.9375 44.691406 26.304688 43.539062 26.800781 43.550781 C 27.496094 43.566406 28.164062 43.714844 28.859375 43.726562 L 29.992188 45.101562 L 31.039062 47.679688 C 31.128906 47.933594 31.429688 48.324219 31.65625 48.460938 C 32.246094 49.246094 33.851562 49.863281 34.582031 50.773438 C 35.09375 51.414062 34.144531 52.0625 33.609375 51.746094 L 33.605469 51.746094 C 32.101562 51.195312 30.496094 50.464844 29.214844 49.371094 C 29.117188 49.289062 29.023438 49.203125 28.925781 49.117188 C 28.449219 51.035156 30.195312 53.488281 30.921875 54.957031 C 31.894531 56.921875 32.871094 58.890625 33.84375 60.855469 C 34.246094 60.898438 34.679688 60.992188 35.085938 60.992188 C 35.421875 61.042969 35.152344 61.300781 35.027344 61.390625 C 34.636719 61.664062 34.289062 61.988281 33.863281 62.207031 L 32.179688 63.058594 C 31.105469 61.296875 30.941406 60.550781 30.320312 59.292969 C 29.292969 57.117188 28.273438 54.949219 27.25 52.773438 L 26.839844 52.769531 L 23.851562 60.707031 L 23.433594 62.035156 L 24.203125 62.789062 C 24.292969 62.878906 24.433594 63.121094 24.15625 63.132812 L 23.65625 63.09375 C 23.015625 63.125 22.726562 62.964844 22.265625 62.878906 C 21.835938 62.707031 21.28125 62.789062 20.867188 62.582031 C 20.554688 62.453125 20.945312 61.882812 21.054688 61.546875 C 21.148438 61.265625 21.316406 61.015625 21.410156 60.734375 C 22.402344 57.71875 23.394531 54.699219 24.386719 51.683594 C 24.707031 50.695312 24.714844 49.496094 24.714844 48.464844 "/>
<path style=" stroke:none;fill-rule:nonzero;fill:rgb(100%,100%,100%);fill-opacity:1;" d="M 55.359375 55.472656 C 55.359375 56.429688 55.285156 57.425781 55.59375 58.339844 L 55.839844 58.667969 C 55.972656 58.84375 56.191406 58.890625 56.445312 58.90625 C 57.40625 58.875 58.097656 58.214844 59.042969 57.898438 C 59.148438 57.859375 59.164062 57.820312 59.359375 57.773438 C 59.726562 58.351562 59.761719 58.648438 60.027344 59.21875 C 60.015625 59.371094 59.976562 59.519531 59.886719 59.660156 C 59.859375 59.71875 59.722656 59.710938 59.65625 59.648438 L 59.230469 59.25 C 59.1875 59.207031 59.117188 59.183594 59.0625 59.222656 C 58.28125 59.808594 57.503906 60.417969 56.691406 60.960938 C 55.640625 60.609375 54.613281 59.871094 53.695312 59.257812 C 51.765625 60.0625 49.855469 61.382812 48.183594 62.632812 L 47.738281 62.882812 L 47 62.109375 C 46.847656 61.949219 46.636719 61.65625 46.742188 61.457031 C 46.726562 61.308594 46.824219 61.164062 47.058594 61.257812 L 47.765625 61.542969 C 49.199219 60.304688 50.644531 59.167969 52.175781 58.070312 C 52.164062 57.828125 52.136719 57.714844 52.105469 57.519531 C 51.929688 57.164062 51.832031 56.03125 51.804688 55.84375 C 51.121094 55.84375 50.449219 56.191406 49.78125 56.191406 C 48.855469 56.234375 48.136719 56.800781 47.296875 56.839844 C 47.03125 56.886719 46.816406 56.914062 46.574219 56.929688 C 46.1875 56.953125 46.027344 56.613281 46.3125 56.386719 C 46.550781 56.195312 46.789062 55.992188 47.078125 55.894531 C 47.851562 55.636719 48.597656 55.324219 49.390625 55.085938 C 51.085938 54.535156 53.933594 54.039062 54.976562 54.246094 C 55.488281 54.246094 55.886719 54.28125 56.5 54.089844 L 57.988281 52.320312 L 58.347656 51.992188 L 58.351562 51.992188 C 59.148438 51.488281 59.539062 52.421875 59.289062 52.574219 L 57.691406 54.695312 L 57.261719 55.152344 C 56.996094 55.429688 56.621094 55.558594 56.246094 55.558594 C 55.9375 55.558594 55.65625 55.550781 55.359375 55.472656 "/>
<path style=" stroke:none;fill-rule:nonzero;fill:rgb(100%,100%,100%);fill-opacity:1;" d="M 55.789062 37.902344 C 55.789062 38.761719 55.785156 39.621094 55.785156 40.480469 C 55.660156 40.898438 55.199219 40.824219 55.046875 40.511719 C 54.953125 39.933594 55.03125 38.574219 55.03125 37.910156 L 55.789062 37.902344 "/>
<path style=" stroke:none;fill-rule:nonzero;fill:rgb(100%,100%,100%);fill-opacity:1;" d="M 56.769531 37.90625 C 56.769531 39 56.761719 40.097656 56.761719 41.191406 C 56.75 41.476562 56.1875 41.632812 56.019531 41.179688 C 56.019531 40.089844 56.011719 39 56.011719 37.910156 L 56.769531 37.90625 "/>
<path style=" stroke:none;fill-rule:nonzero;fill:rgb(100%,100%,100%);fill-opacity:1;" d="M 61.160156 37.695312 L 62.175781 38.914062 C 62.316406 38.820312 62.332031 38.65625 62.40625 38.515625 C 62.4375 38.34375 62.433594 38.210938 62.339844 38.09375 C 61.765625 37.519531 61.300781 36.855469 60.777344 36.234375 C 59.789062 36.726562 59.1875 35.945312 58.5625 35.21875 C 58.582031 35.191406 58.71875 35.027344 58.644531 34.847656 C 58.164062 33.75 57.253906 30.753906 55.070312 31.878906 C 54.054688 32.515625 54.195312 33.769531 54.195312 34.792969 C 54.199219 34.910156 54.257812 34.941406 54.40625 35.078125 C 53.824219 35.804688 53.550781 36.859375 53.550781 37.769531 L 58.25 37.785156 C 58.25 36.425781 57.675781 35.074219 56.609375 34.226562 L 56.617188 32.914062 C 56.691406 32.761719 56.78125 32.835938 56.84375 32.898438 C 57.351562 33.570312 57.632812 34.511719 57.992188 35.226562 C 58.015625 35.375 57.933594 35.429688 58.140625 35.710938 C 58.453125 36.328125 59.027344 36.71875 59.46875 37.292969 C 59.347656 38.628906 59.117188 39.957031 59.117188 41.300781 C 59.117188 41.695312 59.671875 41.761719 59.773438 41.375 L 59.933594 39.398438 L 60.328125 39.398438 C 60.382812 40 60.488281 40.605469 60.488281 41.214844 C 60.558594 41.539062 61.050781 41.605469 61.136719 41.21875 L 61.136719 41.140625 C 61.136719 40.554688 61.027344 39.984375 60.972656 39.402344 L 61.421875 39.402344 L 61.160156 37.695312 "/>
<path style=" stroke:none;fill-rule:nonzero;fill:rgb(100%,100%,100%);fill-opacity:1;" d="M 76.417969 30.195312 L 76.417969 39.539062 C 72.167969 39.539062 67.914062 39.542969 63.664062 39.554688 L 63.664062 30.210938 C 63.488281 30.34375 63.273438 30.546875 63.03125 30.546875 C 62.519531 30.628906 62.089844 30.210938 62.382812 29.640625 C 62.40625 29.574219 62.492188 29.492188 62.546875 29.449219 C 65.042969 27.582031 67.539062 25.710938 70.03125 23.839844 C 72.535156 25.707031 75.03125 27.570312 77.535156 29.433594 C 77.652344 29.523438 77.726562 29.660156 77.777344 29.792969 C 77.9375 30.585938 77.050781 30.703125 76.714844 30.410156 C 76.613281 30.386719 76.492188 30.265625 76.417969 30.195312 "/>
<path style=" stroke:none;fill-rule:nonzero;fill:rgb(10.112%,40.585327%,73.280334%);fill-opacity:1;" d="M 42.664062 45.171875 C 40.308594 45.175781 37.957031 45.070312 35.601562 44.855469 C 35.417969 44.839844 35.269531 44.675781 35.269531 44.488281 L 35.269531 44.269531 C 35.269531 44.082031 35.417969 43.945312 35.601562 43.964844 C 37.957031 44.179688 40.3125 44.285156 42.667969 44.277344 C 45.019531 44.285156 47.375 44.179688 49.726562 43.964844 C 49.910156 43.945312 50.0625 44.082031 50.0625 44.269531 L 50.0625 44.488281 C 50.0625 44.675781 49.910156 44.839844 49.726562 44.855469 C 47.375 45.070312 45.015625 45.175781 42.664062 45.171875 "/>
<path style=" stroke:none;fill-rule:nonzero;fill:rgb(10.112%,40.585327%,73.280334%);fill-opacity:1;" d="M 42.664062 43.289062 L 39.007812 43.289062 C 38.722656 43.289062 38.523438 43.078125 38.617188 42.886719 L 39.558594 40.96875 C 39.617188 40.847656 39.773438 40.769531 39.945312 40.769531 L 45.386719 40.769531 C 45.558594 40.769531 45.714844 40.847656 45.773438 40.96875 L 46.714844 42.886719 C 46.808594 43.078125 46.609375 43.289062 46.328125 43.289062 L 42.664062 43.289062 "/>
<path style=" stroke:none;fill-rule:nonzero;fill:rgb(10.112%,40.585327%,73.280334%);fill-opacity:1;" d="M 48.550781 40.316406 C 49.160156 40.316406 49.65625 40.8125 49.65625 41.417969 C 49.65625 42.027344 49.160156 42.523438 48.550781 42.523438 C 47.945312 42.523438 47.449219 42.027344 47.449219 41.417969 C 47.449219 40.8125 47.945312 40.316406 48.550781 40.316406 "/>
<path style=" stroke:none;fill-rule:nonzero;fill:rgb(10.112%,40.585327%,73.280334%);fill-opacity:1;" d="M 36.773438 40.316406 C 36.167969 40.316406 35.671875 40.8125 35.671875 41.417969 C 35.671875 42.027344 36.167969 42.523438 36.773438 42.523438 C 37.382812 42.523438 37.878906 42.027344 37.878906 41.417969 C 37.878906 40.8125 37.382812 40.316406 36.773438 40.316406 "/>
<path style=" stroke:none;fill-rule:nonzero;fill:rgb(10.112%,40.585327%,73.280334%);fill-opacity:1;" d="M 42.6875 38.746094 C 44.742188 38.753906 46.53125 38.882812 48.207031 39.015625 C 48.042969 38.347656 47.625 36.128906 47.367188 35.59375 C 47.234375 35.230469 47.144531 34.902344 46.429688 34.824219 C 45.898438 34.566406 44.328125 34.476562 42.6875 34.496094 C 41.050781 34.476562 39.433594 34.566406 38.902344 34.824219 C 38.1875 34.902344 38.09375 35.230469 37.960938 35.59375 C 37.703125 36.128906 37.285156 38.347656 37.125 39.015625 C 38.796875 38.882812 40.636719 38.753906 42.6875 38.746094 "/>
<path style=" stroke:none;fill-rule:nonzero;fill:rgb(10.112%,40.585327%,73.280334%);fill-opacity:1;" d="M 75.480469 38.304688 L 71.550781 38.289062 L 71.550781 34.75 L 68.546875 34.75 L 68.546875 38.289062 L 64.644531 38.289062 L 64.644531 29.570312 L 70 25.679688 L 75.480469 29.855469 L 75.480469 38.304688 "/>
<path style=" stroke:none;fill-rule:nonzero;fill:rgb(10.112%,40.585327%,73.280334%);fill-opacity:1;" d="M 54.921875 34.464844 C 54.921875 33.960938 54.921875 33.457031 54.921875 32.953125 C 54.9375 32.785156 55.191406 32.78125 55.191406 32.957031 C 55.191406 33.382812 55.195312 33.808594 55.195312 34.238281 C 55.074219 34.339844 55.0625 34.230469 54.921875 34.464844 "/>
<path style=" stroke:none;fill-rule:nonzero;fill:rgb(13.729858%,12.159729%,12.548828%);fill-opacity:1;" d="M 72.265625 57.71875 L 75.636719 57.71875 L 75.636719 58.988281 L 70.667969 58.988281 C 70.660156 55.875 72.554688 54.839844 74.125 52.347656 C 75.019531 50.929688 72.082031 49.523438 72.082031 52.238281 L 70.671875 52.242188 C 70.386719 47.789062 76.945312 49.011719 75.496094 52.765625 C 74.839844 54.472656 72.496094 55.800781 72.265625 57.71875 "/>
<path style=" stroke:none;fill-rule:nonzero;fill:rgb(13.729858%,12.159729%,12.548828%);fill-opacity:1;" d="M 79.046875 49.347656 C 83.191406 49.347656 82.046875 61.34375 77.984375 58.84375 C 75.835938 57.523438 75.734375 49.347656 79.046875 49.347656 "/>
<path style=" stroke:none;fill-rule:nonzero;fill:rgb(93.527222%,17.272949%,18.882751%);fill-opacity:1;" d="M 82.929688 41.964844 L 82.933594 47.84375 C 80.261719 45.070312 76.171875 44.195312 72.59375 45.636719 C 69.019531 47.074219 66.675781 50.546875 66.675781 54.398438 C 66.675781 58.253906 69.019531 61.71875 72.59375 63.164062 C 76.171875 64.605469 80.25 63.75 82.925781 60.972656 L 82.925781 64.554688 L 66.246094 64.554688 C 61.160156 59.613281 60.515625 51.675781 64.726562 45.976562 C 68.9375 40.273438 76.714844 38.5625 82.929688 41.964844 "/>
<path style=" stroke:none;fill-rule:nonzero;fill:rgb(100%,100%,100%);fill-opacity:1;" d="M 68.5625 33.316406 L 71.546875 33.316406 L 71.546875 30.324219 L 68.5625 30.324219 Z M 68.5625 33.316406 "/>
<path style=" stroke:none;fill-rule:nonzero;fill:rgb(100%,100%,100%);fill-opacity:1;" d="M 79.078125 50.753906 C 80.75 50.753906 80.242188 59.3125 78.652344 57.628906 C 77.835938 56.761719 77.648438 50.753906 79.078125 50.753906 "/>
<path style=" stroke:none;fill-rule:nonzero;fill:rgb(13.729858%,12.159729%,12.548828%);fill-opacity:1;" d="M 42.585938 15.957031 C 42.925781 16.382812 43.328125 16.695312 43.796875 16.90625 C 44.25 17.132812 44.75 17.230469 45.273438 17.230469 C 45.828125 17.230469 46.339844 17.132812 46.808594 16.921875 C 47.277344 16.710938 47.675781 16.398438 48.019531 15.972656 C 48.355469 15.558594 48.625 15.019531 48.828125 14.378906 C 49.011719 13.738281 49.113281 12.972656 49.113281 12.105469 C 49.113281 11.265625 49.011719 10.539062 48.828125 9.917969 C 48.625 9.289062 48.355469 8.765625 48.019531 8.335938 C 47.675781 7.925781 47.277344 7.597656 46.824219 7.386719 C 46.355469 7.171875 45.859375 7.074219 45.328125 7.074219 C 44.773438 7.074219 44.277344 7.171875 43.808594 7.386719 C 43.34375 7.597656 42.925781 7.910156 42.585938 8.324219 C 42.246094 8.75 41.976562 9.289062 41.789062 9.929688 C 41.59375 10.570312 41.492188 11.339844 41.492188 12.203125 C 41.492188 13.042969 41.59375 13.769531 41.789062 14.390625 C 41.976562 15.019531 42.246094 15.542969 42.585938 15.957031 "/>
<path style=" stroke:none;fill-rule:nonzero;fill:rgb(13.729858%,12.159729%,12.548828%);fill-opacity:1;" d="M 50.722656 17.121094 L 52.140625 17.121094 L 52.140625 9.191406 L 52.167969 9.191406 L 55.679688 17.121094 L 57.542969 17.121094 L 57.542969 7.203125 L 56.121094 7.203125 L 56.121094 15.191406 L 56.09375 15.191406 L 52.582031 7.203125 L 50.722656 7.203125 L 50.722656 17.121094 "/>
<path style=" stroke:none;fill-rule:nonzero;fill:rgb(13.729858%,12.159729%,12.548828%);fill-opacity:1;" d="M 58.628906 17.121094 L 60.164062 17.121094 L 60.917969 14.636719 L 64.511719 14.636719 L 65.265625 17.121094 L 66.855469 17.121094 L 63.632812 7.203125 L 61.953125 7.203125 L 58.628906 17.121094 "/>
<path style=" stroke:none;fill-rule:nonzero;fill:rgb(13.729858%,12.159729%,12.548828%);fill-opacity:1;" d="M 34.753906 17.121094 L 40.609375 17.121094 L 40.609375 15.855469 L 36.472656 15.855469 L 40.535156 8.496094 L 40.535156 7.203125 L 34.882812 7.203125 L 34.882812 8.464844 L 38.734375 8.464844 L 34.753906 15.730469 L 34.753906 17.121094 "/>
<path style=" stroke:none;fill-rule:nonzero;fill:rgb(100%,100%,100%);fill-opacity:1;" d="M 43.65625 15.003906 C 43.269531 14.324219 43.085938 13.382812 43.085938 12.203125 C 43.085938 11.480469 43.140625 10.867188 43.269531 10.371094 C 43.386719 9.875 43.539062 9.460938 43.753906 9.148438 C 43.949219 8.851562 44.195312 8.621094 44.464844 8.480469 C 44.734375 8.351562 45.035156 8.28125 45.328125 8.28125 C 46.042969 8.28125 46.582031 8.621094 46.964844 9.304688 C 47.335938 9.984375 47.519531 10.925781 47.519531 12.105469 C 47.519531 12.828125 47.464844 13.441406 47.347656 13.9375 C 47.222656 14.433594 47.0625 14.847656 46.867188 15.148438 C 46.652344 15.460938 46.414062 15.6875 46.140625 15.8125 C 45.867188 15.957031 45.574219 16.027344 45.273438 16.027344 C 44.5625 16.027344 44.023438 15.6875 43.65625 15.003906 "/>
<path style=" stroke:none;fill-rule:nonzero;fill:rgb(100%,100%,100%);fill-opacity:1;" d="M 61.289062 13.398438 L 62.75 8.605469 L 62.777344 8.605469 L 64.15625 13.398438 L 61.289062 13.398438 "/>
</g>
</svg>
