<?xml version="1.0" encoding="UTF-8"?>
<svg xmlns="http://www.w3.org/2000/svg" xmlns:xlink="http://www.w3.org/1999/xlink" width="87pt" height="86pt" viewBox="0 0 87 86" version="1.1">
<g id="surface1">
<path style="fill-rule:nonzero;fill:rgb(100%,100%,100%);fill-opacity:1;stroke-width:2.835;stroke-linecap:butt;stroke-linejoin:round;stroke:rgb(13.729858%,12.159729%,12.548828%);stroke-opacity:1;stroke-miterlimit:4;" d="M 435.195312 853.476562 C 200.390625 853.476562 10 663.046875 10 428.28125 C 10 193.476562 200.390625 3.085938 435.195312 3.085938 C 669.960938 3.085938 860.390625 193.476562 860.390625 428.28125 C 860.390625 663.046875 669.960938 853.476562 435.195312 853.476562 " transform="matrix(0.1,0,0,-0.1,0,86)"/>
<path style=" stroke:none;fill-rule:nonzero;fill:rgb(10.112%,40.585327%,73.280334%);fill-opacity:1;" d="M 22.058594 58.617188 L 11.605469 69.070312 C 5.863281 62 2.417969 52.984375 2.417969 43.167969 C 2.417969 20.472656 20.824219 2.066406 43.523438 2.066406 C 53.339844 2.066406 62.351562 5.511719 69.425781 11.25 L 55.039062 25.640625 C 54.71875 25.636719 54.082031 25.632812 53.929688 25.660156 C 53.75 25.683594 53.503906 25.753906 53.394531 25.898438 C 53.148438 26.222656 53.382812 26.6875 53.71875 26.960938 L 51.308594 29.371094 L 34.496094 29.34375 L 36.464844 26.085938 L 33.078125 26.035156 L 33.667969 24.609375 L 36.542969 23.785156 L 37.960938 24.347656 L 38.871094 23.082031 L 36.828125 21.914062 L 32.324219 23.351562 L 30.421875 27.550781 L 33.511719 27.65625 L 27.851562 36.644531 C 24.019531 34.699219 19.265625 34.941406 15.71875 37.382812 C 12.6875 39.480469 10.785156 42.949219 10.929688 46.667969 C 11.171875 52.992188 15.847656 58.421875 22.058594 58.617188 "/>
<path style=" stroke:none;fill-rule:nonzero;fill:rgb(10.112%,40.585327%,73.280334%);fill-opacity:1;" d="M 59.128906 33.574219 L 75.441406 17.265625 C 81.179688 24.339844 84.628906 33.351562 84.628906 43.167969 C 84.628906 65.867188 66.21875 84.273438 43.523438 84.273438 C 33.707031 84.273438 24.691406 80.828125 17.621094 75.085938 L 43.550781 49.152344 C 44.398438 49.894531 45.582031 50.175781 46.707031 49.972656 L 47.128906 51.636719 L 46.277344 51.898438 L 46.507812 52.628906 L 48.953125 51.953125 L 48.78125 51.21875 L 47.855469 51.441406 L 47.40625 49.730469 C 47.539062 49.671875 47.730469 49.570312 47.855469 49.492188 C 48.1875 49.285156 48.460938 48.988281 48.683594 48.664062 C 48.902344 48.339844 49.054688 47.964844 49.1875 47.601562 L 53.34375 47.628906 C 53.371094 47.988281 53.414062 48.507812 53.457031 48.871094 C 53.613281 50.054688 53.964844 51.203125 54.46875 52.285156 C 55.066406 53.566406 55.890625 54.746094 56.917969 55.714844 C 59.027344 57.703125 61.820312 58.769531 64.703125 58.757812 C 67.8125 58.746094 70.800781 57.472656 72.960938 55.1875 C 75.035156 52.980469 76.183594 50.035156 76.117188 46.984375 C 76.046875 44.148438 74.921875 41.457031 73.015625 39.382812 C 71.140625 37.34375 68.625 36.042969 65.898438 35.675781 C 64.136719 35.441406 62.140625 35.78125 60.480469 36.441406 L 59.128906 33.574219 "/>
<path style=" stroke:none;fill-rule:nonzero;fill:rgb(10.112%,40.585327%,73.280334%);fill-opacity:1;" d="M 38.617188 42.058594 L 34.019531 46.660156 C 34.058594 43.175781 32.070312 39.875 29.34375 37.6875 L 30.617188 35.824219 L 38.617188 42.058594 "/>
<path style=" stroke:none;fill-rule:nonzero;fill:rgb(10.112%,40.585327%,73.280334%);fill-opacity:1;" d="M 23.871094 56.808594 L 31.941406 48.734375 C 32.078125 48.117188 32.160156 47.484375 32.195312 46.839844 C 32.34375 43.800781 30.933594 40.960938 28.4375 39.039062 L 23.382812 47.03125 L 23.039062 47.605469 C 22.707031 47.894531 22.222656 47.921875 21.859375 47.660156 C 21.585938 47.464844 21.441406 47.113281 21.515625 46.78125 C 21.519531 46.75 21.851562 46.234375 21.859375 46.210938 L 27.011719 38.109375 C 25.910156 37.378906 24.40625 37.003906 23.078125 36.960938 C 20.800781 36.894531 18.515625 37.460938 16.644531 38.777344 C 14.03125 40.625 12.382812 43.648438 12.539062 46.882812 C 12.804688 52.398438 17.089844 56.984375 22.535156 56.921875 C 22.988281 56.917969 23.433594 56.878906 23.871094 56.808594 "/>
<path style=" stroke:none;fill-rule:nonzero;fill:rgb(10.112%,40.585327%,73.280334%);fill-opacity:1;" d="M 64.785156 45.039062 C 65.925781 45.148438 66.808594 46.144531 66.769531 47.277344 C 66.722656 48.375 65.890625 49.265625 64.8125 49.355469 C 63.804688 49.449219 62.902344 48.617188 62.574219 47.652344 L 54.808594 47.753906 C 54.828125 47.910156 54.851562 48.136719 54.871094 48.296875 C 55.578125 53.4375 59.820312 57.40625 64.929688 57.292969 C 70.292969 57.167969 74.371094 52.535156 74.542969 47.097656 C 74.652344 43.769531 72.84375 40.710938 70.089844 38.910156 C 67.492188 37.210938 64.21875 36.871094 61.246094 37.816406 L 64.785156 45.039062 "/>
<path style=" stroke:none;fill-rule:nonzero;fill:rgb(10.112%,40.585327%,73.280334%);fill-opacity:1;" d="M 39.757812 40.917969 L 49.523438 31.15625 L 33.449219 31.132812 L 31.394531 34.492188 L 39.757812 40.917969 "/>
<path style=" stroke:none;fill-rule:nonzero;fill:rgb(10.112%,40.585327%,73.280334%);fill-opacity:1;" d="M 57.910156 34.796875 L 48.453125 44.253906 C 48.660156 44.476562 48.867188 44.773438 49.007812 45.042969 C 49.171875 45.367188 49.304688 45.796875 49.367188 46.148438 L 53.320312 46.097656 C 53.902344 42.5 55.890625 38.792969 59.074219 37.171875 L 57.910156 34.796875 "/>
<path style=" stroke:none;fill-rule:nonzero;fill:rgb(10.112%,40.585327%,73.280334%);fill-opacity:1;" d="M 59.855469 38.496094 C 57.253906 40.089844 55.015625 42.972656 54.925781 46.09375 L 62.871094 46.007812 C 62.960938 45.84375 63.128906 45.632812 63.269531 45.507812 L 59.855469 38.496094 "/>
<path style=" stroke:none;fill-rule:nonzero;fill:rgb(10.112%,40.585327%,73.280334%);fill-opacity:1;" d="M 45.429688 47.273438 L 44.289062 48.414062 C 44.867188 48.914062 45.652344 49.164062 46.460938 48.988281 L 46.128906 47.765625 L 45.429688 47.273438 "/>
<path style=" stroke:none;fill-rule:nonzero;fill:rgb(10.112%,40.585327%,73.280334%);fill-opacity:1;" d="M 47.222656 46.003906 L 48.40625 46.011719 C 48.347656 45.691406 47.851562 44.949219 47.875 44.917969 L 47.222656 46.003906 "/>
<path style=" stroke:none;fill-rule:nonzero;fill:rgb(10.112%,40.585327%,73.280334%);fill-opacity:1;" d="M 46.917969 47.71875 L 47.238281 48.84375 C 47.34375 48.761719 47.496094 48.636719 47.59375 48.550781 C 47.84375 48.324219 48.078125 47.996094 48.242188 47.710938 L 46.917969 47.71875 "/>
<path style=" stroke:none;fill-rule:nonzero;fill:rgb(93.527222%,17.272949%,18.882751%);fill-opacity:1;" d="M 69.972656 11.710938 L 12.058594 69.621094 C 13.582031 71.433594 15.257812 73.109375 17.070312 74.632812 L 74.980469 16.71875 C 73.460938 14.910156 71.78125 13.230469 69.972656 11.710938 "/>
</g>
</svg>
