<?xml version="1.0" encoding="UTF-8"?>
<svg xmlns="http://www.w3.org/2000/svg" xmlns:xlink="http://www.w3.org/1999/xlink" width="87pt" height="86pt" viewBox="0 0 87 86" version="1.1">
<g id="surface1">
<path style="fill-rule:nonzero;fill:rgb(100%,100%,100%);fill-opacity:1;stroke-width:2.835;stroke-linecap:butt;stroke-linejoin:round;stroke:rgb(13.729858%,12.159729%,12.548828%);stroke-opacity:1;stroke-miterlimit:4;" d="M 435.195312 853.476562 C 200.390625 853.476562 10 663.046875 10 428.28125 C 10 193.476562 200.390625 3.085938 435.195312 3.085938 C 669.960938 3.085938 860.390625 193.476562 860.390625 428.28125 C 860.390625 663.046875 669.960938 853.476562 435.195312 853.476562 " transform="matrix(0.1,0,0,-0.1,0,86)"/>
<path style=" stroke:none;fill-rule:nonzero;fill:rgb(10.112%,40.585327%,73.280334%);fill-opacity:1;" d="M 43.519531 2.070312 C 49.09375 2.070312 54.425781 3.148438 59.515625 5.300781 C 64.433594 7.378906 68.789062 10.316406 72.582031 14.109375 C 76.375 17.902344 79.3125 22.257812 81.390625 27.175781 C 83.542969 32.265625 84.621094 37.597656 84.621094 43.171875 C 84.621094 48.746094 83.542969 54.082031 81.390625 59.167969 C 79.3125 64.085938 76.375 68.441406 72.582031 72.234375 C 68.789062 76.027344 64.433594 78.964844 59.515625 81.042969 C 54.425781 83.199219 49.09375 84.273438 43.519531 84.273438 C 37.945312 84.273438 32.613281 83.199219 27.523438 81.042969 C 22.605469 78.964844 18.25 76.027344 14.457031 72.234375 C 10.664062 68.441406 7.726562 64.085938 5.644531 59.167969 C 3.492188 54.082031 2.417969 48.746094 2.417969 43.171875 C 2.417969 37.597656 3.492188 32.265625 5.644531 27.175781 C 7.726562 22.257812 10.664062 17.902344 14.457031 14.109375 C 18.25 10.316406 22.605469 7.378906 27.523438 5.300781 C 32.613281 3.148438 37.945312 2.070312 43.519531 2.070312 "/>
<path style=" stroke:none;fill-rule:nonzero;fill:rgb(100%,100%,100%);fill-opacity:1;" d="M 13.609375 29.105469 L 69.46875 28.992188 C 69.890625 28.992188 70.328125 29.046875 70.683594 29.214844 C 71.003906 29.378906 71.273438 29.640625 71.476562 29.933594 L 77.988281 39.992188 C 78.058594 40.117188 78.125 40.269531 78.164062 40.40625 C 78.230469 40.582031 78.230469 41.28125 78.230469 41.464844 L 78.242188 50.871094 C 78.242188 51.28125 78.125 51.730469 77.8125 51.996094 C 77.46875 52.285156 76.96875 52.34375 76.527344 52.34375 L 66.152344 52.34375 C 66.160156 52.140625 66.164062 51.84375 66.152344 51.632812 C 65.960938 48.5625 63.320312 46.285156 60.261719 46.246094 C 57.140625 46.214844 54.386719 48.484375 54.179688 51.617188 C 54.171875 51.820312 54.171875 52.109375 54.171875 52.308594 L 26.738281 52.277344 C 26.738281 52.132812 26.738281 51.925781 26.722656 51.769531 C 26.523438 48.710938 23.867188 46.46875 20.816406 46.457031 C 17.769531 46.457031 15.183594 48.722656 14.863281 51.769531 C 14.847656 51.925781 14.832031 52.148438 14.832031 52.308594 L 10.089844 52.34375 C 9.78125 52.355469 9.464844 52.207031 9.234375 51.988281 C 8.980469 51.714844 8.84375 51.320312 8.84375 50.949219 L 8.796875 41.859375 C 8.796875 41.644531 8.8125 41.394531 8.835938 41.183594 C 8.863281 40.863281 8.933594 40.332031 9.019531 40.050781 L 11.375 30.316406 C 11.472656 29.894531 11.820312 29.535156 12.207031 29.351562 C 12.628906 29.144531 13.15625 29.105469 13.609375 29.105469 "/>
<path style=" stroke:none;fill-rule:nonzero;fill:rgb(100%,100%,100%);fill-opacity:1;" d="M 20.839844 47.375 C 23.558594 47.375 25.765625 49.601562 25.765625 52.34375 C 25.765625 55.09375 23.554688 57.316406 20.832031 57.316406 C 18.117188 57.316406 15.914062 55.113281 15.894531 52.382812 C 15.882812 49.617188 18.097656 47.375 20.839844 47.375 "/>
<path style=" stroke:none;fill-rule:nonzero;fill:rgb(100%,100%,100%);fill-opacity:1;" d="M 60.253906 47.296875 C 63.007812 47.324219 65.167969 49.644531 65.128906 52.417969 C 65.089844 55.136719 62.894531 57.332031 60.1875 57.339844 C 57.453125 57.34375 55.207031 55.144531 55.175781 52.398438 C 55.136719 49.554688 57.4375 47.265625 60.253906 47.296875 "/>
<path style=" stroke:none;fill-rule:nonzero;fill:rgb(10.112%,40.585327%,73.280334%);fill-opacity:1;" d="M 12.546875 31.175781 L 14.605469 31.15625 L 12.277344 40.640625 L 10.234375 40.640625 L 12.546875 31.175781 "/>
<path style=" stroke:none;fill-rule:nonzero;fill:rgb(10.112%,40.585327%,73.280334%);fill-opacity:1;" d="M 16.121094 31.148438 L 22.433594 31.117188 L 22.5 40.636719 L 13.816406 40.667969 L 16.121094 31.148438 "/>
<path style=" stroke:none;fill-rule:nonzero;fill:rgb(10.112%,40.585327%,73.280334%);fill-opacity:1;" d="M 23.816406 31.117188 L 30.886719 31.117188 L 30.832031 40.640625 L 23.847656 40.640625 L 23.816406 31.117188 "/>
<path style=" stroke:none;fill-rule:nonzero;fill:rgb(10.112%,40.585327%,73.280334%);fill-opacity:1;" d="M 32.214844 31.117188 L 39.171875 31.117188 L 39.191406 40.640625 L 32.214844 40.640625 L 32.214844 31.117188 "/>
<path style=" stroke:none;fill-rule:nonzero;fill:rgb(10.112%,40.585327%,73.280334%);fill-opacity:1;" d="M 40.605469 31.117188 L 47.695312 31.148438 L 47.78125 40.667969 L 40.644531 40.667969 L 40.605469 31.117188 "/>
<path style=" stroke:none;fill-rule:nonzero;fill:rgb(10.112%,40.585327%,73.280334%);fill-opacity:1;" d="M 49.078125 31.144531 L 56.34375 31.113281 L 56.433594 40.683594 L 49.1875 40.660156 L 49.078125 31.144531 "/>
<path style=" stroke:none;fill-rule:nonzero;fill:rgb(10.112%,40.585327%,73.280334%);fill-opacity:1;" d="M 57.742188 31.117188 L 64.84375 31.117188 L 64.910156 40.601562 L 57.839844 40.667969 L 57.742188 31.117188 "/>
<path style=" stroke:none;fill-rule:nonzero;fill:rgb(10.112%,40.585327%,73.280334%);fill-opacity:1;" d="M 66.292969 31.113281 L 70.628906 31.113281 L 76.554688 40.597656 L 66.316406 40.597656 L 66.292969 31.113281 "/>
<path style=" stroke:none;fill-rule:nonzero;fill:rgb(10.112%,40.585327%,73.280334%);fill-opacity:1;" d="M 20.820312 50.210938 C 21.980469 50.210938 22.898438 51.183594 22.871094 52.347656 C 22.859375 53.464844 21.953125 54.375 20.847656 54.375 C 19.738281 54.382812 18.828125 53.488281 18.785156 52.375 C 18.753906 51.207031 19.664062 50.21875 20.820312 50.210938 "/>
<path style=" stroke:none;fill-rule:nonzero;fill:rgb(10.112%,40.585327%,73.280334%);fill-opacity:1;" d="M 60.234375 50.191406 C 61.421875 50.199219 62.351562 51.210938 62.273438 52.410156 C 62.214844 53.476562 61.296875 54.277344 60.222656 54.28125 C 59.140625 54.289062 58.195312 53.492188 58.117188 52.410156 C 58.035156 51.195312 59.019531 50.179688 60.234375 50.191406 "/>
</g>
</svg>
