<?xml version="1.0" encoding="UTF-8"?>
<svg xmlns="http://www.w3.org/2000/svg" xmlns:xlink="http://www.w3.org/1999/xlink" width="86pt" height="86pt" viewBox="0 0 86 86" version="1.1">
<g id="surface1">
<path style=" stroke:none;fill-rule:nonzero;fill:rgb(93.527222%,17.272949%,18.882751%);fill-opacity:1;" d="M 42.523438 0.648438 C 66.007812 0.648438 85.042969 19.683594 85.042969 43.167969 C 85.042969 66.652344 66.007812 85.6875 42.523438 85.6875 C 19.042969 85.6875 0.00390625 66.652344 0.00390625 43.167969 C 0.00390625 19.683594 19.042969 0.648438 42.523438 0.648438 "/>
<path style=" stroke:none;fill-rule:nonzero;fill:rgb(100%,100%,100%);fill-opacity:1;" d="M 42.527344 14.816406 C 46.378906 14.816406 50.054688 15.558594 53.558594 17.039062 C 56.949219 18.472656 59.953125 20.5 62.574219 23.121094 C 65.191406 25.738281 67.21875 28.746094 68.652344 32.136719 C 70.132812 35.636719 70.875 39.3125 70.875 43.164062 C 70.875 47.015625 70.132812 50.691406 68.652344 54.195312 C 67.21875 57.582031 65.191406 60.589844 62.574219 63.207031 C 59.953125 65.828125 56.949219 67.855469 53.558594 69.289062 C 50.054688 70.769531 46.378906 71.511719 42.527344 71.511719 C 38.675781 71.511719 35 70.769531 31.5 69.289062 C 28.109375 67.855469 25.105469 65.828125 22.484375 63.207031 C 19.863281 60.589844 17.835938 57.582031 16.402344 54.195312 C 14.921875 50.691406 14.179688 47.015625 14.179688 43.164062 C 14.179688 39.3125 14.921875 35.636719 16.402344 32.136719 C 17.835938 28.746094 19.863281 25.738281 22.484375 23.121094 C 25.105469 20.5 28.109375 18.472656 31.5 17.039062 C 35 15.558594 38.675781 14.816406 42.527344 14.816406 "/>
<path style=" stroke:none;fill-rule:nonzero;fill:rgb(13.729858%,12.159729%,12.548828%);fill-opacity:1;" d="M 29.734375 25.453125 L 29.71875 50.851562 L 26.027344 49.777344 C 25.8125 49.703125 25.574219 49.855469 25.433594 50.035156 C 25.261719 50.253906 25.230469 50.578125 25.386719 50.816406 L 31.988281 60.515625 C 32.125 60.714844 32.339844 60.882812 32.582031 60.882812 C 32.824219 60.886719 33.042969 60.710938 33.175781 60.523438 L 39.324219 50.804688 C 39.480469 50.585938 39.507812 50.261719 39.367188 50.023438 C 39.253906 49.816406 38.957031 49.703125 38.757812 49.75 L 35.105469 50.8125 L 35.117188 25.453125 L 29.734375 25.453125 "/>
<path style=" stroke:none;fill-rule:nonzero;fill:rgb(93.527222%,17.272949%,18.882751%);fill-opacity:1;" d="M 50.046875 60.882812 L 50.03125 35.480469 L 46.34375 36.554688 C 46.125 36.628906 45.890625 36.476562 45.746094 36.296875 C 45.578125 36.082031 45.542969 35.753906 45.699219 35.515625 L 52.300781 25.816406 C 52.441406 25.621094 52.652344 25.449219 52.894531 25.449219 C 53.140625 25.449219 53.359375 25.621094 53.488281 25.8125 L 59.640625 35.53125 C 59.792969 35.75 59.824219 36.070312 59.683594 36.308594 C 59.570312 36.515625 59.269531 36.632812 59.070312 36.582031 L 55.417969 35.519531 L 55.433594 60.882812 L 50.046875 60.882812 "/>
</g>
</svg>
