<?xml version="1.0" encoding="UTF-8"?>
<svg xmlns="http://www.w3.org/2000/svg" xmlns:xlink="http://www.w3.org/1999/xlink" width="77pt" height="42pt" viewBox="0 0 77 42" version="1.1">
<g id="surface1">
<path style=" stroke:none;fill-rule:nonzero;fill:rgb(93.527222%,17.272949%,18.882751%);fill-opacity:1;" d="M 38.519531 15.160156 L 7.488281 0.695312 L 0.25 3.328125 L 2.882812 10.566406 L 25.625 21.171875 L 2.882812 31.777344 L 0.25 39.015625 L 7.488281 41.652344 L 38.519531 27.183594 L 69.546875 41.652344 L 76.785156 39.015625 L 74.152344 31.777344 L 51.410156 21.171875 L 74.152344 10.566406 L 76.785156 3.328125 L 69.546875 0.695312 L 38.519531 15.160156 "/>
<path style=" stroke:none;fill-rule:nonzero;fill:rgb(100%,100%,100%);fill-opacity:1;" d="M 46.253906 21.175781 L 70.015625 32.257812 L 67.253906 38.179688 L 38.519531 24.78125 L 9.78125 38.179688 L 7.019531 32.257812 L 30.785156 21.175781 L 7.019531 10.09375 L 9.78125 4.167969 L 38.519531 17.570312 L 67.253906 4.167969 L 70.015625 10.09375 L 46.253906 21.175781 "/>
</g>
</svg>
