<?xml version="1.0" encoding="UTF-8"?>
<svg xmlns="http://www.w3.org/2000/svg" xmlns:xlink="http://www.w3.org/1999/xlink" width="73pt" height="100pt" viewBox="0 0 73 100" version="1.1">
<g id="surface1">
<path style=" stroke:none;fill-rule:nonzero;fill:rgb(100%,100%,100%);fill-opacity:1;" d="M 1.085938 99.78125 L 71.953125 99.78125 L 71.953125 0.566406 L 1.085938 0.566406 Z M 1.085938 99.78125 "/>
<path style="fill:none;stroke-width:2.835;stroke-linecap:butt;stroke-linejoin:miter;stroke:rgb(13.729858%,12.159729%,12.548828%);stroke-opacity:1;stroke-miterlimit:4;" d="M 10.859375 2.1875 L 719.53125 2.1875 L 719.53125 994.335938 L 10.859375 994.335938 L 10.859375 2.1875 " transform="matrix(0.1,0,0,-0.1,0,100)"/>
<path style=" stroke:none;fill-rule:nonzero;fill:rgb(0%,49.674988%,27.331543%);fill-opacity:1;" d="M 2.503906 98.363281 L 70.535156 98.363281 L 70.535156 1.984375 L 2.503906 1.984375 Z M 2.503906 98.363281 "/>
<path style=" stroke:none;fill-rule:nonzero;fill:rgb(100%,100%,100%);fill-opacity:1;" d="M 32.273438 5.527344 L 34.6875 5.527344 L 34.078125 31.105469 L 25.855469 31.152344 L 32.273438 5.527344 "/>
<path style=" stroke:none;fill-rule:nonzero;fill:rgb(100%,100%,100%);fill-opacity:1;" d="M 38.640625 5.527344 L 40.96875 5.527344 L 47.132812 31.152344 L 39 31.152344 L 38.640625 5.527344 "/>
<path style=" stroke:none;fill-rule:nonzero;fill:rgb(100%,100%,100%);fill-opacity:1;" d="M 6.757812 35.445312 L 66.28125 35.445312 L 66.28125 39.054688 L 58.96875 39.054688 L 58.96875 46.15625 L 55.46875 46.15625 L 53.839844 39.054688 L 19.132812 39.054688 L 17.234375 46.15625 L 13.730469 46.15625 L 13.730469 39.054688 L 6.757812 39.054688 L 6.757812 35.445312 "/>
<path style=" stroke:none;fill-rule:nonzero;fill:rgb(100%,100%,100%);fill-opacity:1;" d="M 22.914062 42.617188 L 33.84375 42.707031 L 32.703125 94.824219 L 9.871094 94.824219 L 22.914062 42.617188 "/>
<path style=" stroke:none;fill-rule:nonzero;fill:rgb(100%,100%,100%);fill-opacity:1;" d="M 39.132812 42.617188 L 49.925781 42.617188 L 62.308594 94.824219 L 39.613281 94.824219 L 39.132812 42.617188 "/>
</g>
</svg>
