<?xml version="1.0" encoding="UTF-8"?>
<svg xmlns="http://www.w3.org/2000/svg" xmlns:xlink="http://www.w3.org/1999/xlink" width="72pt" height="72pt" viewBox="0 0 72 72" version="1.1">
<g id="surface1">
<path style=" stroke:none;fill-rule:nonzero;fill:rgb(100%,100%,100%);fill-opacity:1;" d="M 0.394531 71.453125 L 71.257812 71.453125 L 71.257812 0.585938 L 0.394531 0.585938 Z M 0.394531 71.453125 "/>
<path style="fill:none;stroke-width:2.835;stroke-linecap:butt;stroke-linejoin:miter;stroke:rgb(13.729858%,12.159729%,12.548828%);stroke-opacity:1;stroke-miterlimit:4;" d="M 3.945312 5.46875 L 712.617188 5.46875 L 712.617188 714.140625 L 3.945312 714.140625 L 3.945312 5.46875 " transform="matrix(0.1,0,0,-0.1,0,72)"/>
<path style=" stroke:none;fill-rule:nonzero;fill:rgb(10.112%,40.585327%,73.280334%);fill-opacity:1;" d="M 24.695312 43.144531 L 1.832031 66.007812 L 1.832031 2.03125 L 65.808594 2.03125 L 45.40625 22.433594 C 44.253906 21.902344 43.039062 21.511719 41.789062 21.328125 C 38.601562 20.839844 35.351562 21.433594 32.507812 22.894531 C 31.074219 23.636719 29.734375 24.609375 28.664062 25.800781 C 26.8125 27.855469 25.398438 30.816406 25.019531 33.03125 C 24.890625 33.8125 24.675781 34.925781 24.636719 35.722656 C 24.457031 35.46875 24.238281 35.105469 24.074219 34.855469 C 23.460938 33.902344 22.898438 32.925781 22.335938 31.917969 C 21.394531 30.144531 20.664062 28.179688 20.429688 26.195312 C 20.324219 25.261719 20.449219 24.285156 20.707031 23.382812 C 20.792969 23.074219 20.902344 22.75 20.992188 22.445312 L 20.414062 21.996094 L 7.503906 34.710938 L 7.519531 35.613281 C 7.976562 35.542969 8.484375 35.488281 8.953125 35.433594 C 9.695312 35.34375 10.496094 35.328125 11.238281 35.417969 C 12.871094 35.632812 14.757812 36.425781 16.226562 37.183594 C 18.5625 38.355469 20.742188 39.816406 22.753906 41.492188 C 23.402344 42.023438 24.050781 42.585938 24.695312 43.144531 "/>
<path style=" stroke:none;fill-rule:nonzero;fill:rgb(10.112%,40.585327%,73.280334%);fill-opacity:1;" d="M 52.96875 29.902344 L 69.867188 13.003906 L 69.867188 70.0625 L 12.804688 70.0625 L 33.191406 49.683594 C 33.238281 49.707031 33.289062 49.730469 33.339844 49.753906 C 34.882812 50.476562 36.640625 50.800781 38.328125 50.894531 C 41.210938 51.054688 44.148438 50.515625 46.632812 49.070312 C 48.628906 47.933594 50.507812 46.21875 52.070312 44.542969 L 61.96875 34.027344 C 62.167969 33.8125 62.421875 33.59375 62.714844 33.539062 C 62.839844 33.5 63.058594 33.5 63.183594 33.5 C 63.292969 33.5 63.476562 33.519531 63.585938 33.5 C 63.765625 33.464844 64.019531 33.375 64.199219 33.285156 L 60.703125 29.910156 L 60.300781 30.492188 L 60.335938 30.941406 C 60.371094 31.210938 60.371094 31.660156 60.175781 31.863281 L 54.28125 37.796875 C 54.300781 37.058594 54.320312 35.972656 54.28125 35.234375 C 54.210938 34.097656 54.007812 32.960938 53.683594 31.863281 C 53.488281 31.199219 53.253906 30.539062 52.96875 29.902344 "/>
<path style=" stroke:none;fill-rule:nonzero;fill:rgb(93.527222%,17.272949%,18.882751%);fill-opacity:1;" d="M 11.785156 70.035156 L 69.839844 11.976562 L 69.839844 2.003906 L 66.785156 2.003906 L 1.8125 66.980469 L 1.8125 70.035156 L 11.785156 70.035156 "/>
<path style=" stroke:none;fill-rule:nonzero;fill:rgb(98.937988%,82.48291%,7.633972%);fill-opacity:1;" d="M 52.96875 29.902344 C 53.253906 30.539062 53.488281 31.199219 53.683594 31.863281 C 54.007812 32.960938 54.210938 34.097656 54.28125 35.234375 C 54.320312 35.972656 54.300781 37.058594 54.28125 37.796875 L 60.175781 31.863281 C 60.371094 31.660156 60.371094 31.210938 60.335938 30.941406 L 60.300781 30.492188 L 60.703125 29.910156 L 64.199219 33.285156 C 64.019531 33.375 63.765625 33.464844 63.585938 33.5 C 63.476562 33.519531 63.292969 33.5 63.183594 33.5 C 63.058594 33.5 62.839844 33.5 62.714844 33.539062 C 62.421875 33.59375 62.167969 33.8125 61.96875 34.027344 L 52.070312 44.542969 C 50.507812 46.21875 48.628906 47.933594 46.632812 49.070312 C 44.148438 50.515625 41.210938 51.054688 38.328125 50.894531 C 36.640625 50.800781 34.882812 50.476562 33.339844 49.753906 C 33.289062 49.730469 33.238281 49.707031 33.191406 49.683594 L 37.414062 45.457031 C 38.085938 45.605469 38.785156 45.679688 39.5 45.679688 C 44.851562 45.679688 49.199219 41.351562 49.199219 36.023438 C 49.199219 35.296875 49.117188 34.589844 48.964844 33.90625 L 52.96875 29.902344 "/>
<path style=" stroke:none;fill-rule:nonzero;fill:rgb(98.937988%,82.48291%,7.633972%);fill-opacity:1;" d="M 24.695312 43.144531 C 24.050781 42.585938 23.402344 42.023438 22.753906 41.492188 C 20.742188 39.816406 18.5625 38.355469 16.226562 37.183594 C 14.757812 36.425781 12.871094 35.632812 11.238281 35.417969 C 10.496094 35.328125 9.695312 35.34375 8.953125 35.433594 C 8.484375 35.488281 7.976562 35.542969 7.519531 35.613281 L 7.503906 34.710938 L 20.414062 21.996094 L 20.992188 22.445312 C 20.902344 22.75 20.792969 23.074219 20.707031 23.382812 C 20.449219 24.285156 20.324219 25.261719 20.429688 26.195312 C 20.664062 28.179688 21.394531 30.144531 22.335938 31.917969 C 22.898438 32.925781 23.460938 33.902344 24.074219 34.855469 C 24.238281 35.105469 24.457031 35.46875 24.636719 35.722656 C 24.675781 34.925781 24.890625 33.8125 25.019531 33.03125 C 25.398438 30.816406 26.8125 27.855469 28.664062 25.800781 C 29.734375 24.609375 31.074219 23.636719 32.507812 22.894531 C 35.351562 21.433594 38.601562 20.839844 41.789062 21.328125 C 43.039062 21.511719 44.253906 21.902344 45.40625 22.433594 L 41.304688 26.535156 C 40.71875 26.425781 40.117188 26.371094 39.5 26.371094 C 34.148438 26.371094 29.800781 30.695312 29.800781 36.023438 C 29.800781 36.652344 29.863281 37.265625 29.976562 37.859375 L 24.695312 43.144531 "/>
<path style=" stroke:none;fill-rule:nonzero;fill:rgb(10.112%,40.585327%,73.280334%);fill-opacity:1;" d="M 29.976562 37.859375 L 41.304688 26.535156 C 40.71875 26.425781 40.117188 26.371094 39.5 26.371094 C 34.148438 26.371094 29.800781 30.695312 29.800781 36.023438 C 29.800781 36.652344 29.863281 37.265625 29.976562 37.859375 "/>
<path style=" stroke:none;fill-rule:nonzero;fill:rgb(10.112%,40.585327%,73.280334%);fill-opacity:1;" d="M 48.964844 33.90625 L 37.414062 45.457031 C 38.085938 45.605469 38.785156 45.679688 39.5 45.679688 C 44.851562 45.679688 49.199219 41.351562 49.199219 36.023438 C 49.199219 35.296875 49.117188 34.589844 48.964844 33.90625 "/>
</g>
</svg>
