<?xml version="1.0" encoding="UTF-8"?>
<svg xmlns="http://www.w3.org/2000/svg" xmlns:xlink="http://www.w3.org/1999/xlink" width="73pt" height="100pt" viewBox="0 0 73 100" version="1.1">
<g id="surface1">
<path style=" stroke:none;fill-rule:nonzero;fill:rgb(100%,100%,100%);fill-opacity:1;" d="M 1.085938 99.78125 L 71.953125 99.78125 L 71.953125 0.566406 L 1.085938 0.566406 Z M 1.085938 99.78125 "/>
<path style="fill:none;stroke-width:2.835;stroke-linecap:butt;stroke-linejoin:miter;stroke:rgb(13.729858%,12.159729%,12.548828%);stroke-opacity:1;stroke-miterlimit:4;" d="M 10.859375 2.1875 L 719.53125 2.1875 L 719.53125 994.335938 L 10.859375 994.335938 L 10.859375 2.1875 " transform="matrix(0.1,0,0,-0.1,0,100)"/>
<path style=" stroke:none;fill-rule:nonzero;fill:rgb(10.112%,40.585327%,73.280334%);fill-opacity:1;" d="M 2.503906 98.359375 L 70.53125 98.359375 L 70.53125 1.984375 L 2.503906 1.984375 Z M 2.503906 98.359375 "/>
<path style=" stroke:none;fill-rule:nonzero;fill:rgb(100%,100%,100%);fill-opacity:1;" d="M 11.71875 60.800781 L 61.320312 60.800781 L 61.320312 11.199219 L 11.71875 11.199219 Z M 11.71875 60.800781 "/>
<path style=" stroke:none;fill-rule:nonzero;fill:rgb(100%,100%,100%);fill-opacity:1;" d="M 64.492188 91.253906 L 63.378906 75.34375 L 66.585938 76.140625 C 66.710938 76.171875 66.835938 76.128906 66.921875 76.019531 C 67.011719 75.898438 67.019531 75.71875 66.933594 75.582031 L 62.386719 68.128906 C 62.304688 67.984375 62.148438 67.890625 62 67.890625 C 61.832031 67.890625 61.675781 67.984375 61.589844 68.136719 L 57.121094 75.648438 C 57.046875 75.773438 57.054688 75.945312 57.136719 76.066406 C 57.21875 76.1875 57.351562 76.242188 57.484375 76.207031 L 60.722656 75.398438 L 59.820312 91.273438 L 64.492188 91.253906 "/>
<path style=" stroke:none;fill-rule:nonzero;fill:rgb(100%,100%,100%);fill-opacity:1;" d="M 13.46875 91.246094 L 12.355469 75.335938 L 15.5625 76.132812 C 15.6875 76.167969 15.8125 76.121094 15.898438 76.011719 C 15.988281 75.890625 15.996094 75.714844 15.910156 75.574219 L 11.363281 68.121094 C 11.28125 67.976562 11.125 67.882812 10.976562 67.882812 C 10.808594 67.882812 10.65625 67.976562 10.566406 68.128906 L 6.101562 75.640625 C 6.023438 75.765625 6.03125 75.9375 6.113281 76.058594 C 6.195312 76.179688 6.328125 76.234375 6.460938 76.199219 L 9.699219 75.390625 L 8.796875 91.269531 L 13.46875 91.246094 "/>
<path style=" stroke:none;fill-rule:nonzero;fill:rgb(100%,100%,100%);fill-opacity:1;" d="M 19.515625 87.03125 L 26.980469 87.03125 L 26.980469 85.132812 L 21.847656 85.132812 L 22.355469 84.539062 C 22.964844 83.8125 23.550781 83.066406 24.101562 82.300781 C 24.628906 81.550781 25.097656 80.785156 25.511719 80.039062 C 25.921875 79.292969 26.234375 78.566406 26.46875 77.84375 C 26.707031 77.140625 26.824219 76.457031 26.824219 75.816406 C 26.824219 75.285156 26.742188 74.792969 26.605469 74.328125 C 26.453125 73.855469 26.214844 73.453125 25.921875 73.089844 C 25.609375 72.746094 25.21875 72.46875 24.765625 72.257812 C 24.292969 72.066406 23.746094 71.957031 23.121094 71.957031 C 22.472656 71.957031 21.863281 72.042969 21.335938 72.191406 C 20.789062 72.363281 20.277344 72.578125 19.828125 72.832031 L 20.042969 75.007812 C 20.355469 74.730469 20.75 74.453125 21.199219 74.21875 C 21.648438 73.984375 22.160156 73.855469 22.730469 73.855469 C 23.335938 73.855469 23.824219 74.070312 24.15625 74.519531 C 24.488281 74.964844 24.664062 75.519531 24.664062 76.222656 C 24.664062 76.714844 24.570312 77.246094 24.375 77.824219 C 24.15625 78.398438 23.886719 79.019531 23.511719 79.632812 C 23.140625 80.273438 22.707031 80.9375 22.21875 81.640625 C 21.710938 82.34375 21.160156 83.066406 20.554688 83.8125 L 19.515625 85.113281 L 19.515625 87.03125 "/>
<path style=" stroke:none;fill-rule:nonzero;fill:rgb(100%,100%,100%);fill-opacity:1;" d="M 31.667969 87.03125 L 33.707031 87.03125 L 33.707031 81.617188 L 33.746094 81.617188 L 37.09375 87.03125 L 39.523438 87.03125 L 35.453125 81.019531 L 39.167969 76.09375 L 36.917969 76.09375 L 33.707031 80.53125 L 33.707031 71.042969 L 31.667969 71.042969 L 31.667969 87.03125 "/>
<path style=" stroke:none;fill-rule:nonzero;fill:rgb(100%,100%,100%);fill-opacity:1;" d="M 41.066406 87.03125 L 43.105469 87.03125 L 43.105469 80.339844 C 43.105469 79.53125 43.261719 78.910156 43.554688 78.464844 C 43.851562 78.015625 44.300781 77.800781 44.867188 77.800781 C 45.808594 77.800781 46.28125 78.484375 46.28125 79.828125 L 46.28125 87.03125 L 48.316406 87.03125 L 48.316406 80.339844 C 48.316406 79.53125 48.472656 78.910156 48.769531 78.464844 C 49.058594 78.015625 49.511719 77.800781 50.078125 77.800781 C 51.023438 77.800781 51.488281 78.484375 51.488281 79.828125 L 51.488281 87.03125 L 53.527344 87.03125 L 53.527344 79.871094 C 53.527344 78.589844 53.292969 77.609375 52.820312 76.949219 C 52.332031 76.289062 51.609375 75.949219 50.628906 75.949219 C 49.980469 75.949219 49.453125 76.117188 49.039062 76.457031 C 48.632812 76.824219 48.316406 77.222656 48.0625 77.675781 C 47.964844 77.460938 47.847656 77.246094 47.710938 77.035156 C 47.574219 76.84375 47.398438 76.648438 47.199219 76.480469 C 47.003906 76.328125 46.769531 76.203125 46.515625 76.09375 C 46.257812 75.988281 45.945312 75.949219 45.609375 75.949219 C 44.984375 75.949219 44.476562 76.117188 44.066406 76.457031 C 43.652344 76.824219 43.320312 77.246094 43.105469 77.78125 L 43.066406 77.78125 C 43.066406 77.714844 43.066406 77.589844 43.066406 77.414062 C 43.046875 77.269531 43.046875 77.097656 43.046875 76.925781 C 43.027344 76.757812 43.027344 76.589844 43.027344 76.4375 C 43.007812 76.289062 43.007812 76.160156 43.007812 76.09375 L 40.988281 76.09375 C 41.007812 76.394531 41.027344 76.714844 41.046875 77.054688 C 41.066406 77.398438 41.066406 77.757812 41.066406 78.164062 L 41.066406 87.03125 "/>
<path style=" stroke:none;fill-rule:nonzero;fill:rgb(13.729858%,12.159729%,12.548828%);fill-opacity:1;" d="M 19.707031 33.042969 L 23.511719 33.042969 C 23.320312 32.679688 23.035156 32.40625 22.84375 32.039062 C 22.179688 31.035156 21.796875 29.84375 21.605469 28.65625 C 21.417969 27.46875 21.605469 26.28125 21.988281 25.183594 C 22.558594 23.722656 23.511719 22.441406 24.84375 21.4375 C 26.363281 20.339844 28.074219 19.605469 29.882812 19.148438 C 32.070312 18.601562 34.449219 18.417969 36.734375 18.417969 C 38.445312 18.511719 40.15625 18.695312 41.871094 19.058594 C 43.394531 19.425781 44.820312 19.882812 46.152344 20.613281 C 47.386719 21.34375 48.53125 22.261719 49.382812 23.355469 C 50.148438 24.359375 50.714844 25.550781 50.90625 26.828125 C 51.003906 28.105469 50.8125 29.386719 50.429688 30.578125 C 50.238281 31.125 49.957031 31.582031 49.671875 32.039062 C 49.480469 32.3125 49.195312 32.769531 48.90625 33.042969 L 52.429688 33.042969 L 52.429688 34.78125 L 46.625 34.78125 C 46.242188 35.054688 45.867188 35.234375 45.484375 35.417969 C 44.628906 35.875 43.296875 36.242188 42.34375 36.515625 C 40.730469 36.878906 39.015625 37.0625 37.398438 37.15625 C 35.875 37.246094 34.449219 37.15625 32.925781 37.0625 C 31.40625 36.878906 29.980469 36.605469 28.550781 36.148438 C 27.597656 35.875 26.363281 35.511719 25.601562 34.78125 L 19.707031 34.78125 L 19.707031 33.042969 "/>
<path style=" stroke:none;fill-rule:nonzero;fill:rgb(13.729858%,12.159729%,12.548828%);fill-opacity:1;" d="M 48.835938 43.453125 C 48.738281 43.453125 48.617188 43.363281 48.621094 43.15625 L 48.625 41.726562 L 47.863281 41.726562 L 47.863281 40.8125 L 37.96875 40.8125 C 37.683594 41.453125 36.921875 41.820312 36.253906 41.726562 C 35.589844 41.636719 35.113281 41.269531 34.828125 40.8125 L 24.460938 40.8125 L 24.460938 41.726562 L 23.703125 41.726562 L 23.703125 43.007812 C 23.703125 43.1875 23.703125 43.371094 23.605469 43.460938 C 23.511719 43.554688 23.417969 43.554688 23.226562 43.554688 L 21.894531 43.554688 C 21.800781 43.554688 21.609375 43.554688 21.511719 43.460938 C 21.417969 43.371094 21.417969 43.1875 21.417969 43.007812 L 21.417969 40.632812 C 21.035156 40.632812 20.753906 40.355469 20.753906 39.988281 C 20.753906 39.53125 21.035156 39.257812 21.417969 39.257812 L 21.417969 36.609375 C 21.417969 36.515625 21.417969 36.425781 21.417969 36.425781 C 21.417969 36.242188 21.417969 36.152344 21.511719 36.0625 C 21.609375 35.96875 21.894531 35.96875 22.085938 35.96875 L 23.035156 35.96875 C 23.226562 35.96875 23.511719 35.96875 23.605469 36.0625 C 23.703125 36.152344 23.703125 36.242188 23.703125 36.335938 C 23.703125 36.425781 23.703125 36.515625 23.703125 36.609375 L 23.703125 38.34375 C 23.792969 38.34375 24.273438 38.34375 24.273438 38.34375 C 24.460938 38.34375 24.460938 38.34375 24.460938 38.527344 L 24.460938 39.257812 L 34.828125 39.257812 C 35.113281 38.710938 35.777344 38.253906 36.445312 38.253906 C 37.207031 38.253906 37.777344 38.710938 38.0625 39.347656 L 47.863281 39.347656 L 47.863281 38.34375 L 48.625 38.34375 L 48.625 36.792969 C 48.625 36.699219 48.625 36.335938 49.097656 36.335938 L 50.238281 36.335938 C 50.714844 36.335938 50.714844 36.699219 50.714844 36.882812 L 50.714844 39.53125 C 51.097656 39.53125 51.382812 39.804688 51.382812 40.171875 C 51.382812 40.539062 51.097656 40.8125 50.714844 40.8125 L 50.714844 42.914062 C 50.714844 43.007812 50.714844 43.097656 50.714844 43.1875 C 50.714844 43.28125 50.714844 43.460938 50.429688 43.460938 L 48.835938 43.453125 "/>
<path style=" stroke:none;fill-rule:nonzero;fill:rgb(13.729858%,12.159729%,12.548828%);fill-opacity:1;" d="M 51.953125 53.875 C 51.101562 54.054688 50.242188 54.148438 49.578125 54.238281 C 47.007812 54.421875 44.824219 54.421875 41.871094 53.78125 C 41.300781 53.691406 38.730469 53.144531 38.160156 53.050781 C 36.832031 52.867188 35.496094 52.867188 34.164062 53.050781 C 33.117188 53.234375 32.074219 53.417969 31.027344 53.601562 C 30.269531 53.78125 28.746094 54.054688 27.980469 54.148438 C 26.746094 54.332031 25.414062 54.332031 24.082031 54.238281 C 23.035156 54.238281 21.992188 54.054688 21.035156 53.875 C 20.085938 53.691406 19.230469 53.417969 18.46875 53.234375 L 18.46875 51.773438 C 19.136719 52.046875 20.183594 52.320312 20.847656 52.503906 C 21.800781 52.6875 22.65625 52.777344 23.605469 52.867188 C 24.65625 52.960938 25.699219 52.960938 26.746094 52.960938 C 27.695312 52.867188 28.839844 52.777344 29.789062 52.503906 C 31.691406 51.957031 33.59375 51.589844 35.59375 51.589844 C 36.640625 51.589844 37.6875 51.589844 38.730469 51.773438 C 39.492188 51.863281 40.445312 52.046875 41.203125 52.230469 C 43.203125 52.6875 45.582031 53.050781 47.582031 53.050781 C 48.816406 53.050781 50.050781 52.960938 51.195312 52.777344 C 52.335938 52.503906 53.476562 52.320312 54.617188 51.957031 L 54.617188 53.324219 C 53.859375 53.507812 52.90625 53.691406 51.953125 53.875 "/>
<path style=" stroke:none;fill-rule:nonzero;fill:rgb(13.729858%,12.159729%,12.548828%);fill-opacity:1;" d="M 51.902344 51.207031 C 51.050781 51.386719 50.195312 51.480469 49.527344 51.570312 C 46.957031 51.753906 44.773438 51.753906 41.820312 51.113281 C 41.25 51.023438 38.679688 50.476562 38.109375 50.382812 C 36.78125 50.199219 35.449219 50.199219 34.117188 50.382812 C 33.070312 50.566406 32.023438 50.75 30.976562 50.933594 C 30.21875 51.113281 28.695312 51.386719 27.929688 51.480469 C 26.695312 51.664062 25.363281 51.664062 24.03125 51.570312 C 22.984375 51.570312 21.941406 51.386719 20.988281 51.207031 C 20.035156 51.023438 19.179688 50.75 18.417969 50.566406 L 18.417969 49.105469 C 19.085938 49.378906 20.132812 49.652344 20.800781 49.835938 C 21.75 50.019531 22.605469 50.109375 23.558594 50.199219 C 24.605469 50.292969 25.648438 50.292969 26.695312 50.292969 C 27.648438 50.199219 28.789062 50.109375 29.738281 49.835938 C 31.644531 49.289062 33.542969 48.921875 35.542969 48.921875 C 36.589844 48.921875 37.636719 48.921875 38.679688 49.105469 C 39.445312 49.195312 40.394531 49.378906 41.152344 49.5625 C 43.152344 50.019531 45.53125 50.382812 47.53125 50.382812 C 48.765625 50.382812 50.003906 50.292969 51.144531 50.109375 C 52.285156 49.835938 53.425781 49.652344 54.566406 49.289062 L 54.566406 50.65625 C 53.808594 50.839844 52.855469 51.023438 51.902344 51.207031 "/>
</g>
</svg>
