<?xml version="1.0" encoding="UTF-8"?>
<svg xmlns="http://www.w3.org/2000/svg" xmlns:xlink="http://www.w3.org/1999/xlink" width="73pt" height="100pt" viewBox="0 0 73 100" version="1.1">
<g id="surface1">
<path style=" stroke:none;fill-rule:nonzero;fill:rgb(100%,100%,100%);fill-opacity:1;" d="M 1.085938 99.8125 L 71.953125 99.8125 L 71.953125 0.605469 L 1.085938 0.605469 Z M 1.085938 99.8125 "/>
<path style="fill:none;stroke-width:2.835;stroke-linecap:butt;stroke-linejoin:miter;stroke:rgb(13.729858%,12.159729%,12.548828%);stroke-opacity:1;stroke-miterlimit:4;" d="M 10.859375 1.875 L 719.53125 1.875 L 719.53125 993.945312 L 10.859375 993.945312 L 10.859375 1.875 " transform="matrix(0.1,0,0,-0.1,0,100)"/>
<path style=" stroke:none;fill-rule:nonzero;fill:rgb(10.112%,40.585327%,73.280334%);fill-opacity:1;" d="M 2.503906 98.394531 L 70.535156 98.394531 L 70.535156 2.019531 L 2.503906 2.019531 Z M 2.503906 98.394531 "/>
<path style=" stroke:none;fill-rule:nonzero;fill:rgb(100%,100%,100%);fill-opacity:1;" d="M 31.730469 68.148438 L 31.730469 72.746094 L 23.84375 72.746094 L 23.84375 77.425781 L 9.589844 77.421875 L 9.589844 82.097656 L 28.015625 82.097656 L 28.015625 77.421875 L 36.03125 77.421875 L 36.03125 72.746094 L 43.949219 72.746094 L 43.949219 68.074219 L 51.808594 68.066406 L 51.808594 63.394531 L 62.035156 63.394531 L 62.035156 58.71875 L 48.992188 58.71875 L 48.992188 63.390625 L 39.601562 63.386719 L 39.601562 68.074219 L 37.019531 68.074219 C 37.019531 67.753906 37.015625 67.332031 36.992188 66.835938 C 36.984375 66.75 36.960938 66.679688 36.914062 66.621094 C 36.875 66.558594 36.824219 66.496094 36.769531 66.441406 C 36.644531 66.316406 36.5 66.183594 36.414062 66.039062 C 36.3125 65.855469 36.328125 65.652344 36.417969 65.433594 C 36.496094 65.246094 36.734375 65 36.695312 64.703125 L 34.023438 57.019531 C 33.925781 56.785156 33.835938 56.546875 33.757812 56.308594 C 33.675781 56 33.683594 55.679688 33.722656 55.363281 C 33.894531 54.246094 33.925781 53.078125 34.1875 52.03125 C 34.261719 51.742188 34.378906 51.402344 34.660156 51.449219 C 34.863281 51.484375 34.863281 51.78125 34.882812 51.976562 C 34.949219 52.535156 34.964844 53.105469 35.109375 53.621094 C 35.257812 54.082031 35.726562 54.421875 36.140625 54.820312 L 41.957031 59.441406 C 42.050781 59.492188 42.15625 59.546875 42.277344 59.546875 C 42.453125 59.546875 42.464844 59.484375 42.539062 59.460938 C 42.738281 59.40625 42.980469 59.496094 42.980469 59.675781 C 42.980469 59.796875 42.921875 59.902344 42.851562 60 C 42.515625 60.425781 42.253906 60.820312 41.980469 61.214844 C 41.808594 61.457031 41.511719 61.921875 41.351562 62.105469 C 41.097656 62.40625 41.003906 63.035156 41.339844 63.246094 C 41.890625 63.585938 42.714844 63.195312 42.949219 62.96875 L 43.996094 61.816406 C 44.164062 61.679688 44.675781 61.035156 44.816406 60.796875 C 44.9375 60.585938 45.054688 60.015625 45.144531 59.867188 C 45.199219 59.796875 45.378906 59.734375 45.386719 59.734375 C 45.410156 59.730469 45.734375 59.671875 45.828125 59.636719 L 47.167969 58.421875 C 47.066406 58.269531 46.933594 58.054688 46.761719 57.882812 C 46.707031 57.828125 46.636719 57.777344 46.558594 57.734375 C 46.492188 57.707031 46.390625 57.664062 46.3125 57.644531 C 46.207031 57.605469 46.09375 57.574219 45.996094 57.554688 C 45.792969 57.496094 45.605469 57.386719 45.492188 57.234375 C 45.40625 57.140625 45.320312 56.992188 45.238281 56.875 L 39.03125 51.398438 C 39.070312 50.246094 39.519531 48.878906 39.832031 47.601562 C 39.996094 46.90625 40.117188 46.199219 40.140625 45.480469 C 40.148438 44.875 39.882812 44.285156 39.972656 43.671875 C 40.023438 43.316406 40.34375 43.078125 40.507812 42.855469 L 38.792969 34.3125 C 38.785156 34.210938 38.804688 34.105469 38.882812 34.039062 C 39.023438 33.933594 39.183594 34.097656 39.277344 34.234375 C 39.535156 34.640625 39.757812 35.121094 39.960938 35.460938 C 40.769531 36.820312 41.097656 38.347656 41.464844 39.867188 C 41.570312 40.308594 41.601562 40.789062 41.777344 41.167969 C 41.835938 41.300781 41.992188 41.363281 42.140625 41.394531 C 42.304688 41.429688 42.476562 41.433594 42.636719 41.429688 C 42.742188 41.617188 42.851562 41.851562 42.816406 42.023438 C 42.6875 42.597656 42.671875 42.921875 42.910156 43.265625 C 43.183594 43.65625 43.523438 43.992188 43.902344 44.292969 C 44.125 44.480469 44.441406 44.582031 44.730469 44.503906 C 44.894531 44.457031 45.054688 44.351562 45.085938 44.195312 C 45.148438 43.851562 45.203125 43.507812 45.265625 43.160156 C 45.324219 42.765625 45.203125 42.351562 44.808594 42.089844 C 44.675781 42.007812 44.550781 41.90625 44.507812 41.773438 C 44.460938 41.59375 44.589844 41.347656 44.652344 41.171875 C 44.90625 40.476562 44.640625 39.699219 44.464844 38.917969 C 44.082031 37.136719 43.953125 35.289062 43.21875 33.578125 C 42.644531 32.226562 41.695312 31.023438 40.808594 29.796875 C 40.167969 28.917969 39.492188 28.050781 38.753906 27.230469 C 38.097656 26.503906 37.273438 25.914062 36.300781 25.585938 C 35.511719 25.359375 34.535156 25.347656 33.929688 24.859375 C 33.429688 24.457031 33.453125 23.765625 33.652344 23.214844 C 33.742188 22.949219 33.917969 22.703125 34.121094 22.503906 C 34.445312 22.140625 34.679688 21.714844 34.800781 21.261719 C 34.933594 20.8125 34.957031 20.347656 35.046875 19.898438 C 35.085938 19.675781 35.214844 19.46875 35.429688 19.347656 C 35.636719 19.226562 35.886719 19.230469 36.183594 19.277344 C 36.367188 19.332031 36.648438 19.398438 36.800781 19.320312 C 37.1875 19.1875 37.003906 18.710938 36.464844 18.648438 C 36.066406 18.597656 35.730469 18.550781 35.480469 18.367188 C 35.203125 18.140625 35.261719 17.664062 35.214844 17.308594 C 35.175781 17.003906 35.011719 16.710938 34.769531 16.492188 C 34.441406 16.199219 33.925781 16.152344 33.445312 16.152344 C 33.101562 16.136719 32.730469 16.171875 32.390625 16.09375 C 31.769531 15.9375 30.933594 15.550781 30.472656 15.808594 C 30.171875 15.972656 30.023438 16.265625 29.929688 16.550781 C 29.808594 16.957031 29.761719 17.417969 29.445312 17.734375 C 29.210938 17.957031 28.832031 17.917969 28.492188 17.878906 C 28.273438 17.847656 28.019531 17.839844 27.824219 17.941406 C 27.707031 17.996094 27.671875 18.136719 27.699219 18.253906 C 27.746094 18.449219 27.980469 18.585938 28.203125 18.640625 C 28.453125 18.710938 28.683594 18.726562 28.898438 18.789062 C 29.265625 18.929688 29.324219 19.347656 29.246094 19.671875 C 29.179688 19.90625 29.078125 20.132812 28.933594 20.347656 C 28.804688 20.542969 28.683594 20.738281 28.5625 20.945312 C 28.503906 21.058594 28.4375 21.191406 28.511719 21.328125 C 28.578125 21.507812 28.800781 21.570312 28.871094 21.730469 C 28.9375 21.910156 28.929688 22.101562 28.898438 22.285156 L 29.289062 22.359375 L 29.082031 22.492188 C 28.933594 22.617188 29.027344 22.800781 29.042969 22.957031 C 29.066406 23.148438 29.03125 23.367188 29.117188 23.558594 C 29.183594 23.699219 29.296875 23.746094 29.40625 23.785156 C 29.691406 23.882812 29.980469 23.898438 30.234375 24.007812 C 30.421875 24.082031 30.535156 24.265625 30.574219 24.449219 C 30.597656 24.539062 30.605469 24.636719 30.601562 24.726562 C 30.589844 25.226562 30.355469 25.683594 30.023438 26.070312 C 29.789062 26.296875 29.535156 26.519531 29.316406 26.75 C 29.15625 26.921875 29.035156 27.121094 28.960938 27.335938 C 28.894531 27.53125 28.84375 27.734375 28.816406 27.941406 C 28.789062 28.136719 28.753906 28.34375 28.738281 28.550781 C 28.691406 28.964844 28.648438 29.382812 28.609375 29.792969 C 28.582031 30.136719 28.558594 30.472656 28.539062 30.820312 C 28.527344 31.074219 28.519531 31.332031 28.519531 31.589844 C 28.519531 31.625 28.519531 31.664062 28.519531 31.703125 C 28.523438 31.804688 28.527344 31.949219 28.527344 32.054688 C 28.53125 32.128906 28.53125 32.210938 28.535156 32.285156 C 28.539062 32.488281 28.542969 32.695312 28.546875 32.898438 C 28.546875 33 28.546875 33.101562 28.546875 33.207031 C 28.542969 33.371094 28.535156 33.539062 28.527344 33.710938 C 28.515625 33.859375 28.5 34.011719 28.476562 34.167969 C 28.457031 34.328125 28.425781 34.496094 28.378906 34.65625 C 28.335938 34.800781 28.28125 34.941406 28.214844 35.082031 C 28.160156 35.195312 28.101562 35.308594 28.035156 35.417969 C 27.929688 35.601562 27.816406 35.777344 27.699219 35.945312 L 23.761719 41.492188 L 23.894531 42.058594 C 23.839844 42.152344 23.789062 42.246094 23.730469 42.332031 C 23.699219 42.375 23.667969 42.417969 23.636719 42.464844 C 23.628906 42.476562 23.617188 42.488281 23.609375 42.496094 C 23.585938 42.527344 23.554688 42.566406 23.527344 42.589844 C 23.511719 42.613281 23.488281 42.632812 23.46875 42.65625 C 23.402344 42.734375 23.335938 42.816406 23.273438 42.894531 C 23.238281 42.9375 23.214844 42.980469 23.191406 43.027344 C 23.132812 43.140625 23.097656 43.257812 23.082031 43.378906 C 23.0625 43.535156 23.066406 43.691406 23.097656 43.847656 C 23.136719 44.058594 23.210938 44.265625 23.324219 44.457031 C 23.425781 44.636719 23.5625 44.792969 23.734375 44.929688 C 23.886719 45.058594 24.070312 45.160156 24.261719 45.238281 C 24.421875 45.296875 24.59375 45.332031 24.765625 45.335938 C 24.886719 45.335938 24.996094 45.3125 25.105469 45.285156 C 25.179688 45.261719 25.253906 45.230469 25.3125 45.183594 C 25.359375 45.148438 25.402344 45.105469 25.429688 45.054688 C 25.46875 44.984375 25.496094 44.914062 25.523438 44.839844 C 25.546875 44.746094 25.5625 44.65625 25.554688 44.554688 C 25.546875 44.46875 25.53125 44.378906 25.488281 44.289062 C 25.484375 44.277344 25.476562 44.261719 25.46875 44.246094 C 25.453125 44.214844 25.4375 44.179688 25.417969 44.148438 C 25.40625 44.132812 25.402344 44.105469 25.386719 44.089844 C 25.363281 44.050781 25.347656 44.011719 25.324219 43.96875 C 25.308594 43.953125 25.304688 43.929688 25.296875 43.910156 C 25.265625 43.839844 25.25 43.773438 25.25 43.699219 C 25.25 43.636719 25.261719 43.570312 25.285156 43.507812 C 25.304688 43.457031 25.347656 43.402344 25.394531 43.363281 C 25.453125 43.324219 25.519531 43.289062 25.589844 43.273438 C 25.664062 43.25 25.742188 43.242188 25.816406 43.246094 C 25.902344 43.253906 25.984375 43.269531 26.058594 43.292969 C 26.09375 43.304688 26.132812 43.320312 26.164062 43.328125 C 26.207031 43.347656 26.246094 43.363281 26.289062 43.382812 L 28.714844 40.144531 C 28.746094 40.101562 28.789062 40.0625 28.824219 40.03125 C 28.847656 40.007812 28.882812 39.980469 28.910156 39.960938 C 28.949219 39.9375 28.984375 39.921875 29.03125 39.917969 C 29.074219 39.910156 29.113281 39.914062 29.15625 39.921875 C 29.179688 39.929688 29.207031 39.941406 29.21875 39.957031 C 29.25 39.972656 29.273438 39.996094 29.296875 40.015625 C 29.316406 40.042969 29.335938 40.074219 29.347656 40.101562 C 29.363281 40.132812 29.371094 40.164062 29.375 40.199219 C 29.382812 40.234375 29.382812 40.273438 29.390625 40.316406 C 29.390625 40.371094 29.390625 40.421875 29.382812 40.46875 L 29.152344 44.253906 C 29.15625 44.300781 29.160156 44.351562 29.167969 44.402344 C 29.171875 44.4375 29.183594 44.472656 29.195312 44.511719 C 29.210938 44.5625 29.238281 44.621094 29.273438 44.671875 C 29.296875 44.710938 29.339844 44.742188 29.382812 44.769531 C 29.464844 44.820312 29.558594 44.859375 29.65625 44.882812 C 29.8125 44.910156 29.976562 44.925781 30.132812 44.925781 C 30.230469 44.925781 30.328125 44.925781 30.421875 44.929688 C 30.59375 44.933594 30.769531 44.9375 30.941406 44.945312 C 30.945312 44.96875 30.957031 44.992188 30.957031 45.015625 C 30.960938 45.03125 30.964844 45.050781 30.96875 45.066406 C 30.976562 45.101562 30.980469 45.128906 30.980469 45.15625 C 30.984375 45.179688 30.980469 45.203125 30.980469 45.226562 C 30.976562 45.265625 30.964844 45.300781 30.957031 45.34375 C 30.9375 45.414062 30.917969 45.480469 30.894531 45.546875 C 30.886719 45.574219 30.882812 45.597656 30.875 45.617188 C 30.855469 45.679688 30.832031 45.765625 30.816406 45.832031 C 30.800781 45.878906 30.785156 45.921875 30.777344 45.96875 C 30.753906 46.050781 30.730469 46.132812 30.710938 46.214844 C 30.699219 46.253906 30.683594 46.296875 30.675781 46.335938 C 30.664062 46.375 30.648438 46.410156 30.636719 46.445312 C 30.601562 46.546875 30.550781 46.691406 30.519531 46.792969 C 30.492188 46.867188 30.46875 46.941406 30.441406 47.019531 C 30.363281 47.226562 30.292969 47.433594 30.222656 47.644531 C 30.1875 47.753906 30.15625 47.859375 30.128906 47.964844 C 30.089844 48.09375 30.054688 48.230469 30.027344 48.367188 C 29.953125 48.695312 29.894531 49.019531 29.832031 49.347656 C 29.808594 49.457031 29.789062 49.5625 29.765625 49.667969 C 29.730469 49.882812 29.6875 50.09375 29.652344 50.300781 L 29.230469 54.683594 C 29.1875 55.164062 29.089844 55.652344 29.113281 56.140625 C 29.125 56.320312 29.15625 56.511719 29.195312 56.675781 L 31.898438 65.316406 C 31.957031 65.503906 32.207031 65.578125 32.214844 65.585938 C 32.335938 65.664062 32.582031 65.722656 32.605469 65.90625 C 32.671875 66.234375 32.101562 66.445312 31.691406 66.621094 C 30.878906 66.949219 29.429688 66.984375 29.761719 67.828125 C 29.921875 68.230469 30.628906 68.082031 31.109375 68.160156 L 31.730469 68.148438 "/>
</g>
</svg>
