<?xml version="1.0" encoding="UTF-8"?>
<svg xmlns="http://www.w3.org/2000/svg" xmlns:xlink="http://www.w3.org/1999/xlink" width="73pt" height="72pt" viewBox="0 0 73 72" version="1.1">
<g id="surface1">
<path style=" stroke:none;fill-rule:nonzero;fill:rgb(100%,100%,100%);fill-opacity:1;" d="M 1.085938 71.605469 L 71.953125 71.605469 L 71.953125 0.738281 L 1.085938 0.738281 Z M 1.085938 71.605469 "/>
<path style="fill:none;stroke-width:2.835;stroke-linecap:butt;stroke-linejoin:miter;stroke:rgb(13.729858%,12.159729%,12.548828%);stroke-opacity:1;stroke-miterlimit:4;" d="M 10.859375 3.945312 L 719.53125 3.945312 L 719.53125 712.617188 L 10.859375 712.617188 L 10.859375 3.945312 " transform="matrix(0.1,0,0,-0.1,0,72)"/>
<path style=" stroke:none;fill-rule:nonzero;fill:rgb(10.112%,40.585327%,73.280334%);fill-opacity:1;" d="M 2.503906 70.1875 L 70.535156 70.1875 L 70.535156 2.15625 L 2.503906 2.15625 Z M 2.503906 70.1875 "/>
<path style=" stroke:none;fill-rule:nonzero;fill:rgb(100%,100%,100%);fill-opacity:1;" d="M 30.898438 61.683594 L 22.347656 61.683594 L 22.347656 13.496094 L 46.445312 13.496094 C 48.433594 13.496094 50.59375 14.273438 51.890625 16 C 53.617188 18.242188 53.53125 20.402344 53.53125 20.402344 L 53.53125 36.550781 C 53.53125 37.675781 53.183594 40.09375 51.457031 41.820312 C 49.902344 43.375 48.261719 43.980469 46.445312 43.980469 L 30.898438 43.980469 L 30.898438 61.683594 "/>
<path style=" stroke:none;fill-rule:nonzero;fill:rgb(10.112%,40.585327%,73.280334%);fill-opacity:1;" d="M 30.890625 36.558594 L 30.890625 21.101562 L 43.15625 21.101562 C 43.671875 21.101562 44.277344 21.101562 44.625 21.449219 C 44.96875 21.792969 45.054688 22.136719 45.054688 22.914062 L 45.054688 34.746094 C 45.054688 35.351562 44.882812 35.867188 44.539062 36.128906 C 44.191406 36.472656 43.847656 36.558594 43.242188 36.558594 L 30.890625 36.558594 "/>
</g>
</svg>
