<?xml version="1.0" encoding="UTF-8"?>
<svg xmlns="http://www.w3.org/2000/svg" xmlns:xlink="http://www.w3.org/1999/xlink" width="73pt" height="100pt" viewBox="0 0 73 100" version="1.1">
<g id="surface1">
<path style=" stroke:none;fill-rule:nonzero;fill:rgb(100%,100%,100%);fill-opacity:1;" d="M 1.085938 99.78125 L 71.953125 99.78125 L 71.953125 0.566406 L 1.085938 0.566406 Z M 1.085938 99.78125 "/>
<path style="fill:none;stroke-width:2.835;stroke-linecap:butt;stroke-linejoin:miter;stroke:rgb(13.729858%,12.159729%,12.548828%);stroke-opacity:1;stroke-miterlimit:4;" d="M 10.859375 2.1875 L 719.53125 2.1875 L 719.53125 994.335938 L 10.859375 994.335938 L 10.859375 2.1875 " transform="matrix(0.1,0,0,-0.1,0,100)"/>
<path style=" stroke:none;fill-rule:nonzero;fill:rgb(13.729858%,12.159729%,12.548828%);fill-opacity:1;" d="M 9.589844 75.683594 L 63.449219 75.683594 L 63.449219 21.824219 L 9.589844 21.824219 Z M 9.589844 75.683594 "/>
<path style=" stroke:none;fill-rule:nonzero;fill:rgb(100%,100%,100%);fill-opacity:1;" d="M 19.59375 64.882812 C 19.84375 65.152344 20.128906 65.425781 20.394531 65.683594 L 11.8125 74.261719 L 11.015625 74.261719 L 11.015625 73.460938 L 19.59375 64.882812 "/>
<path style=" stroke:none;fill-rule:nonzero;fill:rgb(100%,100%,100%);fill-opacity:1;" d="M 18.648438 63.828125 C 18.402344 63.539062 18.148438 63.222656 17.917969 62.921875 L 11.015625 69.859375 L 11.015625 71.460938 L 18.648438 63.828125 "/>
<path style=" stroke:none;fill-rule:nonzero;fill:rgb(100%,100%,100%);fill-opacity:1;" d="M 53.460938 32.625 C 53.207031 32.359375 52.949219 32.097656 52.679688 31.84375 L 61.238281 23.242188 L 62.035156 23.234375 L 62.035156 24.039062 L 53.460938 32.625 "/>
<path style=" stroke:none;fill-rule:nonzero;fill:rgb(100%,100%,100%);fill-opacity:1;" d="M 26.824219 68.464844 L 42.878906 52.421875 L 53.710938 58.671875 C 55.402344 55.753906 56.367188 52.367188 56.367188 48.753906 C 56.367188 45.878906 55.757812 43.148438 54.652344 40.679688 L 56.253906 39.089844 C 57.6875 42.007812 58.492188 45.285156 58.492188 48.753906 C 58.492188 60.890625 48.65625 70.722656 36.519531 70.722656 C 33.035156 70.722656 29.738281 69.910156 26.824219 68.464844 "/>
<path style=" stroke:none;fill-rule:nonzero;fill:rgb(100%,100%,100%);fill-opacity:1;" d="M 53.992188 39.34375 C 53.90625 39.171875 53.808594 39 53.707031 38.832031 L 51.703125 39.988281 L 54.949219 36.789062 C 55.160156 37.109375 55.363281 37.4375 55.550781 37.769531 L 53.992188 39.34375 "/>
<path style=" stroke:none;fill-rule:nonzero;fill:rgb(100%,100%,100%);fill-opacity:1;" d="M 43.164062 44.921875 L 53.402344 34.6875 C 53.644531 34.984375 53.886719 35.285156 54.113281 35.589844 L 46.957031 42.734375 L 43.164062 44.921875 "/>
<path style=" stroke:none;fill-rule:nonzero;fill:rgb(100%,100%,100%);fill-opacity:1;" d="M 56.578125 36.71875 C 56.378906 36.378906 56.179688 36.066406 55.957031 35.738281 L 62.035156 29.65625 L 62.035156 31.257812 L 56.578125 36.71875 "/>
<path style=" stroke:none;fill-rule:nonzero;fill:rgb(100%,100%,100%);fill-opacity:1;" d="M 55.125 34.578125 C 54.898438 34.277344 54.65625 33.976562 54.414062 33.6875 L 62.035156 26.046875 L 62.035156 27.648438 L 55.125 34.578125 "/>
<path style=" stroke:none;fill-rule:nonzero;fill:rgb(100%,100%,100%);fill-opacity:1;" d="M 11.015625 23.238281 L 52.019531 23.238281 L 47.289062 27.988281 C 44.074219 26.308594 40.410156 25.363281 36.523438 25.363281 C 23.609375 25.363281 13.140625 35.835938 13.140625 48.75 C 13.140625 52.617188 14.09375 56.285156 15.757812 59.503906 L 11.015625 64.242188 L 11.015625 23.238281 "/>
<path style=" stroke:none;fill-rule:nonzero;fill:rgb(100%,100%,100%);fill-opacity:1;" d="M 48.570312 28.707031 L 54.019531 23.238281 L 55.621094 23.238281 L 49.566406 29.339844 C 49.246094 29.121094 48.914062 28.910156 48.570312 28.707031 "/>
<path style=" stroke:none;fill-rule:nonzero;fill:rgb(100%,100%,100%);fill-opacity:1;" d="M 51.617188 30.890625 C 51.332031 30.644531 51.035156 30.402344 50.730469 30.171875 L 57.628906 23.238281 L 59.230469 23.242188 L 51.617188 30.890625 "/>
<path style=" stroke:none;fill-rule:nonzero;fill:rgb(100%,100%,100%);fill-opacity:1;" d="M 30.171875 45.085938 L 46.222656 29.035156 C 43.304688 27.59375 40.007812 26.78125 36.523438 26.78125 C 24.390625 26.78125 14.554688 36.617188 14.554688 48.75 C 14.554688 52.21875 15.371094 55.53125 16.808594 58.449219 L 18.40625 56.847656 C 17.300781 54.382812 16.683594 51.625 16.683594 48.753906 C 16.683594 45.136719 17.640625 41.75 19.339844 38.832031 L 30.171875 45.085938 "/>
<path style=" stroke:none;fill-rule:nonzero;fill:rgb(100%,100%,100%);fill-opacity:1;" d="M 31.441406 45.816406 L 47.539062 29.746094 C 47.878906 29.9375 48.203125 30.140625 48.515625 30.347656 L 30.910156 47.941406 C 31.015625 47.210938 31.257812 46.527344 31.613281 45.914062 L 31.441406 45.816406 "/>
<path style=" stroke:none;fill-rule:nonzero;fill:rgb(100%,100%,100%);fill-opacity:1;" d="M 30.96875 49.894531 L 49.714844 31.183594 C 50.023438 31.414062 50.324219 31.652344 50.613281 31.898438 L 31.363281 51.101562 C 31.1875 50.722656 31.054688 50.316406 30.96875 49.894531 "/>
<path style=" stroke:none;fill-rule:nonzero;fill:rgb(100%,100%,100%);fill-opacity:1;" d="M 29.882812 52.585938 L 26.089844 54.777344 L 18.929688 61.910156 C 19.15625 62.21875 19.398438 62.519531 19.644531 62.816406 L 29.882812 52.585938 "/>
<path style=" stroke:none;fill-rule:nonzero;fill:rgb(100%,100%,100%);fill-opacity:1;" d="M 41.6875 46.402344 L 22.433594 65.609375 C 22.726562 65.855469 23.027344 66.09375 23.335938 66.324219 L 42.082031 47.609375 C 41.996094 47.191406 41.863281 46.785156 41.6875 46.402344 "/>
<path style=" stroke:none;fill-rule:nonzero;fill:rgb(100%,100%,100%);fill-opacity:1;" d="M 21.347656 57.519531 L 19.339844 58.671875 C 19.238281 58.503906 19.160156 58.359375 19.070312 58.1875 L 17.507812 59.75 C 17.699219 60.082031 17.886719 60.398438 18.097656 60.71875 L 21.347656 57.519531 "/>
<path style=" stroke:none;fill-rule:nonzero;fill:rgb(100%,100%,100%);fill-opacity:1;" d="M 21.03125 74.261719 L 25.773438 69.523438 C 28.988281 71.199219 32.636719 72.140625 36.523438 72.140625 C 49.4375 72.140625 59.910156 61.664062 59.910156 48.753906 C 59.910156 44.886719 58.972656 41.238281 57.304688 38.023438 L 62.035156 33.261719 L 62.035156 74.261719 L 21.03125 74.261719 "/>
<path style=" stroke:none;fill-rule:nonzero;fill:rgb(100%,100%,100%);fill-opacity:1;" d="M 13.816406 74.261719 L 21.449219 66.628906 C 21.738281 66.875 22.035156 67.113281 22.335938 67.34375 L 15.417969 74.261719 L 13.816406 74.261719 "/>
<path style=" stroke:none;fill-rule:nonzero;fill:rgb(100%,100%,100%);fill-opacity:1;" d="M 17.425781 74.261719 L 23.511719 68.179688 C 23.832031 68.398438 24.148438 68.597656 24.492188 68.800781 L 19.03125 74.261719 L 17.425781 74.261719 "/>
<path style=" stroke:none;fill-rule:nonzero;fill:rgb(100%,100%,100%);fill-opacity:1;" d="M 42.136719 49.558594 L 24.527344 67.160156 C 24.84375 67.367188 25.1875 67.578125 25.527344 67.769531 L 41.65625 51.648438 L 41.433594 51.585938 C 41.789062 50.972656 42.03125 50.289062 42.136719 49.558594 "/>
<path style=" stroke:none;fill-rule:nonzero;fill:rgb(100%,100%,100%);fill-opacity:1;" d="M 17.097656 61.765625 C 16.875 61.441406 16.671875 61.121094 16.476562 60.785156 L 11.015625 66.246094 L 11.015625 67.851562 L 17.097656 61.765625 "/>
<path style=" stroke:none;fill-rule:nonzero;fill:rgb(100%,100%,100%);fill-opacity:1;" d="M 20.59375 63.882812 C 20.847656 64.152344 21.125 64.425781 21.394531 64.683594 L 52.457031 33.632812 C 52.203125 33.363281 51.945312 33.101562 51.671875 32.84375 L 20.59375 63.882812 "/>
</g>
</svg>
