<?xml version="1.0" encoding="UTF-8"?>
<svg xmlns="http://www.w3.org/2000/svg" xmlns:xlink="http://www.w3.org/1999/xlink" width="73pt" height="72pt" viewBox="0 0 73 72" version="1.1">
<g id="surface1">
<path style=" stroke:none;fill-rule:nonzero;fill:rgb(100%,100%,100%);fill-opacity:1;" d="M 1.085938 71.605469 L 71.953125 71.605469 L 71.953125 0.738281 L 1.085938 0.738281 Z M 1.085938 71.605469 "/>
<path style="fill:none;stroke-width:2.835;stroke-linecap:butt;stroke-linejoin:miter;stroke:rgb(13.729858%,12.159729%,12.548828%);stroke-opacity:1;stroke-miterlimit:4;" d="M 10.859375 3.945312 L 719.53125 3.945312 L 719.53125 712.617188 L 10.859375 712.617188 L 10.859375 3.945312 " transform="matrix(0.1,0,0,-0.1,0,72)"/>
<path style=" stroke:none;fill-rule:nonzero;fill:rgb(10.112%,40.585327%,73.280334%);fill-opacity:1;" d="M 2.503906 2.15625 L 70.53125 2.15625 L 70.53125 70.1875 L 2.503906 70.1875 L 2.503906 2.15625 "/>
<path style=" stroke:none;fill-rule:nonzero;fill:rgb(100%,100%,100%);fill-opacity:1;" d="M 9.589844 18.773438 L 29.34375 8.535156 L 65.574219 18.964844 L 65.574219 23.417969 L 29.34375 13.085938 L 9.589844 23.417969 L 9.589844 18.773438 "/>
<path style=" stroke:none;fill-rule:nonzero;fill:rgb(100%,100%,100%);fill-opacity:1;" d="M 31.984375 61.683594 L 25.179688 61.683594 L 25.179688 23.417969 L 44.351562 23.417969 C 45.929688 23.417969 47.648438 24.03125 48.679688 25.402344 C 50.050781 27.183594 49.984375 28.902344 49.984375 28.902344 L 49.984375 41.726562 C 49.984375 42.617188 49.710938 44.535156 48.335938 45.910156 C 47.101562 47.144531 45.792969 47.625 44.351562 47.625 L 31.984375 47.625 L 31.984375 61.683594 "/>
<path style=" stroke:none;fill-rule:nonzero;fill:rgb(10.112%,40.585327%,73.280334%);fill-opacity:1;" d="M 31.96875 41.738281 L 31.96875 29.464844 L 41.722656 29.464844 C 42.136719 29.464844 42.613281 29.464844 42.894531 29.738281 C 43.164062 30.011719 43.234375 30.285156 43.234375 30.90625 L 43.234375 40.300781 C 43.234375 40.78125 43.097656 41.191406 42.824219 41.398438 C 42.546875 41.671875 42.273438 41.738281 41.789062 41.738281 L 31.96875 41.738281 "/>
</g>
</svg>
