<?xml version="1.0" encoding="UTF-8"?>
<svg xmlns="http://www.w3.org/2000/svg" xmlns:xlink="http://www.w3.org/1999/xlink" width="73pt" height="100pt" viewBox="0 0 73 100" version="1.1">
<g id="surface1">
<path style=" stroke:none;fill-rule:nonzero;fill:rgb(100%,100%,100%);fill-opacity:1;" d="M 1.085938 99.78125 L 71.953125 99.78125 L 71.953125 0.566406 L 1.085938 0.566406 Z M 1.085938 99.78125 "/>
<path style="fill:none;stroke-width:2.835;stroke-linecap:butt;stroke-linejoin:miter;stroke:rgb(13.729858%,12.159729%,12.548828%);stroke-opacity:1;stroke-miterlimit:4;" d="M 10.859375 2.1875 L 719.53125 2.1875 L 719.53125 994.335938 L 10.859375 994.335938 L 10.859375 2.1875 " transform="matrix(0.1,0,0,-0.1,0,100)"/>
<path style=" stroke:none;fill-rule:nonzero;fill:rgb(10.112%,40.585327%,73.280334%);fill-opacity:1;" d="M 70.546875 98.359375 L 2.503906 98.359375 L 2.503906 1.980469 L 70.546875 1.980469 L 70.546875 98.359375 "/>
<path style=" stroke:none;fill-rule:nonzero;fill:rgb(100%,100%,100%);fill-opacity:1;" d="M 59.789062 91.984375 L 59.789062 82.265625 C 59.789062 82.085938 59.753906 81.542969 59.71875 81.402344 C 59.503906 79.3125 58.890625 77.296875 57.917969 75.460938 C 57.089844 73.878906 56.046875 72.402344 54.75 71.140625 C 53.527344 69.917969 52.085938 68.871094 50.539062 68.042969 C 48.558594 66.964844 46.46875 66.210938 43.84375 66.210938 L 37.972656 66.210938 L 40.027344 60.15625 C 40.027344 59.292969 39.992188 59.183594 39.632812 58.898438 C 39.234375 58.609375 38.515625 58.503906 38.296875 58.933594 L 25.011719 68.441406 C 24.507812 68.695312 24.472656 69.089844 24.472656 69.414062 C 24.507812 69.738281 24.796875 70.097656 25.082031 70.386719 L 38.226562 79.710938 C 38.621094 79.996094 39.164062 80.105469 39.558594 79.78125 C 39.882812 79.53125 39.957031 79.027344 39.957031 78.628906 L 37.972656 72.542969 L 43.160156 72.542969 C 44.5625 72.542969 45.929688 73.011719 47.191406 73.589844 C 48.304688 74.09375 49.351562 74.8125 50.25 75.675781 C 51.222656 76.613281 51.980469 77.695312 52.519531 78.917969 C 52.953125 79.960938 53.238281 81.113281 53.382812 82.230469 C 53.382812 82.335938 53.417969 82.804688 53.417969 82.914062 L 53.417969 91.984375 L 59.789062 91.984375 "/>
<path style=" stroke:none;fill-rule:nonzero;fill:rgb(100%,100%,100%);fill-opacity:1;" d="M 9.589844 91.703125 C 9.859375 91.800781 10.167969 91.902344 10.539062 91.976562 C 10.894531 92.054688 11.292969 92.097656 11.707031 92.097656 C 12.757812 92.097656 13.566406 91.789062 14.136719 91.175781 C 14.703125 90.550781 14.988281 89.714844 14.988281 88.648438 C 14.988281 88.160156 14.917969 87.722656 14.777344 87.351562 C 14.617188 86.96875 14.421875 86.65625 14.179688 86.402344 C 13.9375 86.144531 13.640625 85.960938 13.3125 85.832031 C 12.96875 85.703125 12.617188 85.636719 12.246094 85.636719 C 12.019531 85.636719 11.804688 85.648438 11.621094 85.671875 C 11.421875 85.6875 11.253906 85.730469 11.121094 85.777344 L 11.121094 83.273438 L 14.519531 83.273438 L 14.519531 82.066406 L 9.730469 82.066406 L 9.730469 87.125 C 9.96875 87.050781 10.226562 86.984375 10.480469 86.914062 C 10.738281 86.839844 11.035156 86.8125 11.363281 86.8125 C 12.046875 86.8125 12.558594 87 12.910156 87.351562 C 13.253906 87.707031 13.425781 88.191406 13.425781 88.773438 C 13.425781 89.386719 13.253906 89.882812 12.902344 90.269531 C 12.542969 90.664062 12.0625 90.863281 11.449219 90.863281 C 11.09375 90.863281 10.765625 90.808594 10.46875 90.707031 C 10.167969 90.609375 9.898438 90.496094 9.671875 90.363281 L 9.589844 91.703125 "/>
<path style=" stroke:none;fill-rule:nonzero;fill:rgb(100%,100%,100%);fill-opacity:1;" d="M 16.910156 90.648438 C 17.152344 91.105469 17.464844 91.457031 17.851562 91.714844 C 18.230469 91.976562 18.691406 92.097656 19.242188 92.097656 C 19.796875 92.097656 20.265625 91.976562 20.652344 91.703125 C 21.03125 91.445312 21.347656 91.09375 21.589844 90.636719 C 21.828125 90.179688 22.003906 89.640625 22.097656 89.03125 C 22.199219 88.417969 22.257812 87.753906 22.257812 87.027344 C 22.257812 86.300781 22.199219 85.636719 22.097656 85.007812 C 22.003906 84.398438 21.828125 83.855469 21.589844 83.402344 C 21.347656 82.945312 21.03125 82.59375 20.652344 82.324219 C 20.265625 82.066406 19.796875 81.9375 19.242188 81.9375 C 18.691406 81.9375 18.21875 82.066406 17.835938 82.324219 C 17.453125 82.59375 17.152344 82.945312 16.910156 83.402344 C 16.671875 83.855469 16.5 84.398438 16.402344 85.007812 C 16.300781 85.636719 16.246094 86.300781 16.246094 87.027344 C 16.246094 87.753906 16.300781 88.417969 16.402344 89.03125 C 16.5 89.65625 16.671875 90.195312 16.910156 90.648438 "/>
<path style=" stroke:none;fill-rule:nonzero;fill:rgb(100%,100%,100%);fill-opacity:1;" d="M 30.570312 91.984375 L 32.050781 91.984375 L 32.050781 87.523438 C 32.050781 86.984375 32.164062 86.570312 32.378906 86.273438 C 32.589844 85.972656 32.917969 85.832031 33.328125 85.832031 C 34.011719 85.832031 34.351562 86.285156 34.351562 87.183594 L 34.351562 91.984375 L 35.828125 91.984375 L 35.828125 87.523438 C 35.828125 86.984375 35.945312 86.570312 36.15625 86.273438 C 36.371094 85.972656 36.695312 85.832031 37.109375 85.832031 C 37.789062 85.832031 38.132812 86.285156 38.132812 87.183594 L 38.132812 91.984375 L 39.609375 91.984375 L 39.609375 87.210938 C 39.609375 86.359375 39.441406 85.703125 39.097656 85.265625 C 38.746094 84.824219 38.21875 84.59375 37.507812 84.59375 C 37.039062 84.59375 36.652344 84.710938 36.355469 84.9375 C 36.054688 85.175781 35.828125 85.449219 35.644531 85.746094 C 35.574219 85.605469 35.488281 85.460938 35.390625 85.320312 C 35.289062 85.191406 35.164062 85.066406 35.019531 84.949219 C 34.878906 84.847656 34.707031 84.765625 34.523438 84.695312 C 34.339844 84.621094 34.109375 84.59375 33.867188 84.59375 C 33.414062 84.59375 33.042969 84.710938 32.742188 84.9375 C 32.449219 85.175781 32.203125 85.460938 32.050781 85.820312 L 32.019531 85.820312 C 32.019531 85.777344 32.019531 85.6875 32.019531 85.578125 C 32.007812 85.476562 32.007812 85.363281 32.007812 85.25 C 31.992188 85.132812 31.992188 85.023438 31.992188 84.921875 C 31.976562 84.824219 31.976562 84.738281 31.976562 84.695312 L 30.515625 84.695312 C 30.53125 84.894531 30.539062 85.109375 30.554688 85.335938 C 30.570312 85.5625 30.570312 85.804688 30.570312 86.074219 L 30.570312 91.984375 "/>
<path style=" stroke:none;fill-rule:nonzero;fill:rgb(100%,100%,100%);fill-opacity:1;" d="M 18.863281 32.730469 C 21.375 32.730469 23.371094 34.746094 23.371094 37.136719 C 23.433594 39.589844 21.4375 41.667969 18.863281 41.667969 C 16.347656 41.667969 14.351562 39.65625 14.351562 37.136719 C 14.351562 34.746094 16.414062 32.730469 18.863281 32.730469 "/>
<path style=" stroke:none;fill-rule:nonzero;fill:rgb(100%,100%,100%);fill-opacity:1;" d="M 51.003906 32.730469 C 53.582031 32.730469 55.710938 34.804688 55.644531 37.324219 C 55.578125 39.714844 53.515625 41.601562 51.070312 41.601562 C 48.554688 41.601562 46.496094 39.714844 46.429688 37.261719 C 46.367188 34.804688 48.429688 32.730469 51.003906 32.730469 "/>
<path style=" stroke:none;fill-rule:nonzero;fill:rgb(100%,100%,100%);fill-opacity:1;" d="M 62.742188 32.160156 L 55.527344 32.160156 L 56.171875 32.980469 L 62.097656 33.105469 L 62.097656 34.742188 L 57.78125 36.253906 C 57.78125 36.316406 57.847656 37.261719 57.847656 37.324219 L 56.6875 37.324219 C 56.6875 37.261719 56.6875 37.136719 56.6875 37.136719 C 56.429688 34.175781 54.109375 31.65625 51.082031 31.65625 C 48.054688 31.59375 45.605469 34.050781 45.347656 36.945312 C 45.347656 37.070312 45.347656 37.195312 45.28125 37.261719 L 24.34375 37.195312 C 24.34375 37.136719 24.34375 37.007812 24.34375 36.945312 C 24.410156 34.050781 21.832031 31.847656 18.871094 31.847656 C 15.972656 31.847656 13.523438 34.109375 13.394531 36.945312 C 13.394531 37.070312 13.394531 37.195312 13.394531 37.261719 L 10.6875 37.261719 L 10.753906 36.632812 C 10.6875 36.566406 10.5625 36.566406 10.429688 36.441406 C 10.300781 36.316406 10.300781 36.128906 10.300781 36.0625 L 10.300781 35.496094 C 10.300781 35.433594 10.300781 35.121094 10.367188 35.058594 C 10.429688 34.933594 10.621094 34.933594 10.753906 34.933594 L 11.394531 34.933594 L 12.039062 28.828125 C 12.039062 28.574219 12.171875 28.257812 12.363281 28.070312 C 12.621094 27.820312 13.136719 27.691406 13.199219 27.691406 L 13.972656 27.628906 L 15.90625 23.601562 C 16.292969 22.847656 17.582031 21.964844 18.675781 21.964844 L 24.988281 21.964844 L 24.925781 33.042969 L 45.605469 33.105469 L 46.378906 32.285156 L 25.632812 32.226562 L 25.765625 16.929688 L 62.742188 16.867188 L 62.742188 32.160156 "/>
<path style=" stroke:none;fill-rule:nonzero;fill:rgb(10.112%,40.585327%,73.280334%);fill-opacity:1;" d="M 18.078125 89.898438 C 17.863281 89.230469 17.75 88.261719 17.75 87.027344 C 17.75 85.789062 17.863281 84.824219 18.078125 84.140625 C 18.289062 83.460938 18.691406 83.117188 19.242188 83.117188 C 19.8125 83.117188 20.210938 83.460938 20.421875 84.125 C 20.636719 84.808594 20.75 85.777344 20.75 87.027344 C 20.75 88.261719 20.636719 89.230469 20.421875 89.898438 C 20.195312 90.582031 19.796875 90.917969 19.242188 90.917969 C 18.691406 90.917969 18.289062 90.582031 18.078125 89.898438 "/>
<path style=" stroke:none;fill-rule:nonzero;fill:rgb(10.112%,40.585327%,73.280334%);fill-opacity:1;" d="M 18.863281 35.367188 C 19.890625 35.367188 20.730469 36.1875 20.730469 37.132812 C 20.730469 38.203125 19.957031 39.023438 18.925781 39.023438 C 17.832031 39.082031 16.992188 38.203125 16.992188 37.191406 C 16.992188 36.1875 17.832031 35.367188 18.863281 35.367188 "/>
<path style=" stroke:none;fill-rule:nonzero;fill:rgb(10.112%,40.585327%,73.280334%);fill-opacity:1;" d="M 51.074219 35.308594 C 52.164062 35.308594 52.941406 36.257812 52.875 37.328125 C 52.875 38.269531 52.035156 39.027344 51.074219 39.027344 C 50.039062 39.027344 49.203125 38.335938 49.140625 37.328125 C 49.074219 36.257812 49.976562 35.308594 51.074219 35.308594 "/>
<path style=" stroke:none;fill-rule:nonzero;fill:rgb(10.112%,40.585327%,73.280334%);fill-opacity:1;" d="M 19.25 23.667969 L 22.539062 23.734375 L 22.539062 27.695312 L 17.320312 27.636719 L 19.25 23.667969 "/>
<path style=" stroke:none;fill-rule:nonzero;fill:rgb(10.112%,40.585327%,73.280334%);fill-opacity:1;" d="M 16.609375 23.667969 L 18.027344 23.667969 L 16.160156 27.695312 L 14.804688 27.695312 L 16.609375 23.667969 "/>
</g>
</svg>
