<?xml version="1.0" encoding="UTF-8"?>
<svg xmlns="http://www.w3.org/2000/svg" xmlns:xlink="http://www.w3.org/1999/xlink" width="73pt" height="100pt" viewBox="0 0 73 100" version="1.1">
<g id="surface1">
<path style=" stroke:none;fill-rule:nonzero;fill:rgb(100%,100%,100%);fill-opacity:1;" d="M 1.085938 99.78125 L 71.953125 99.78125 L 71.953125 0.566406 L 1.085938 0.566406 Z M 1.085938 99.78125 "/>
<path style="fill:none;stroke-width:2.835;stroke-linecap:butt;stroke-linejoin:miter;stroke:rgb(13.729858%,12.159729%,12.548828%);stroke-opacity:1;stroke-miterlimit:4;" d="M 10.859375 2.1875 L 719.53125 2.1875 L 719.53125 994.335938 L 10.859375 994.335938 L 10.859375 2.1875 " transform="matrix(0.1,0,0,-0.1,0,100)"/>
<path style=" stroke:none;fill-rule:nonzero;fill:rgb(10.112%,40.585327%,73.280334%);fill-opacity:1;" d="M 2.503906 98.359375 L 70.53125 98.359375 L 70.53125 1.984375 L 2.503906 1.984375 Z M 2.503906 98.359375 "/>
<path style=" stroke:none;fill-rule:nonzero;fill:rgb(100%,100%,100%);fill-opacity:1;" d="M 19.488281 57.96875 L 11.71875 57.96875 L 11.71875 14.035156 L 33.621094 14.035156 C 35.429688 14.035156 37.390625 14.738281 38.570312 16.316406 C 40.140625 18.363281 40.0625 20.332031 40.0625 20.332031 L 40.0625 35.054688 C 40.0625 36.082031 39.746094 38.285156 38.175781 39.859375 C 36.761719 41.277344 35.273438 41.828125 33.621094 41.828125 L 19.488281 41.828125 L 19.488281 57.96875 "/>
<path style=" stroke:none;fill-rule:nonzero;fill:rgb(100%,100%,100%);fill-opacity:1;" d="M 52.601562 49.316406 L 61.324219 49.316406 L 61.324219 45.457031 L 52.601562 45.457031 L 52.601562 36.710938 L 48.804688 36.710938 L 48.804688 45.457031 L 40.0625 45.460938 L 40.0625 49.308594 L 48.804688 49.316406 L 48.804688 57.96875 L 52.601562 57.96875 L 52.601562 49.316406 "/>
<path style=" stroke:none;fill-rule:nonzero;fill:rgb(100%,100%,100%);fill-opacity:1;" d="M 23.859375 67.769531 L 49.277344 67.769531 L 49.277344 67.261719 L 23.859375 67.261719 Z M 23.859375 67.769531 "/>
<path style=" stroke:none;fill-rule:nonzero;fill:rgb(100%,100%,100%);fill-opacity:1;" d="M 36.5625 77.183594 C 36.539062 77.019531 36.789062 76.671875 37.070312 76.671875 L 49.277344 76.671875 L 49.277344 75.648438 L 37.070312 75.648438 C 36.789062 75.648438 36.5625 75.421875 36.5625 75.140625 C 36.5625 74.859375 36.789062 74.628906 37.070312 74.628906 L 49.277344 74.625 L 49.277344 73.601562 L 39.359375 73.601562 L 42.292969 71.570312 L 36.566406 68.257812 L 30.84375 71.570312 L 33.769531 73.601562 L 27.261719 73.601562 C 26.492188 73.601562 25.855469 74.199219 25.75 74.941406 L 24.363281 84.804688 L 49.277344 84.804688 L 49.277344 79.722656 L 37.070312 79.695312 C 36.789062 79.695312 36.5625 79.46875 36.5625 79.1875 C 36.5625 78.90625 36.789062 78.714844 37.070312 78.714844 L 49.277344 78.714844 L 49.277344 77.695312 L 37.070312 77.695312 C 36.789062 77.695312 36.5625 77.464844 36.5625 77.183594 "/>
<path style=" stroke:none;fill-rule:nonzero;fill:rgb(100%,100%,100%);fill-opacity:1;" d="M 23.765625 89.039062 L 24.21875 85.828125 L 29.703125 85.828125 L 29.703125 89.617188 L 24.269531 89.617188 C 23.988281 89.617188 23.761719 89.390625 23.761719 89.109375 C 23.761719 89.085938 23.761719 89.0625 23.765625 89.039062 "/>
<path style=" stroke:none;fill-rule:nonzero;fill:rgb(100%,100%,100%);fill-opacity:1;" d="M 30.71875 88.355469 C 30.71875 86.882812 31.914062 85.6875 33.390625 85.6875 C 34.859375 85.6875 36.054688 86.882812 36.054688 88.355469 C 36.054688 89.828125 34.859375 91.023438 33.390625 91.023438 C 31.914062 91.023438 30.71875 89.828125 30.71875 88.355469 "/>
<path style=" stroke:none;fill-rule:nonzero;fill:rgb(100%,100%,100%);fill-opacity:1;" d="M 37.074219 88.355469 C 37.074219 86.882812 38.269531 85.6875 39.746094 85.6875 C 41.21875 85.6875 42.414062 86.882812 42.414062 88.355469 C 42.414062 89.828125 41.21875 91.023438 39.746094 91.023438 C 38.269531 91.023438 37.074219 89.828125 37.074219 88.355469 "/>
<path style=" stroke:none;fill-rule:nonzero;fill:rgb(100%,100%,100%);fill-opacity:1;" d="M 23.855469 92.683594 L 49.277344 92.683594 L 49.277344 91.667969 L 23.855469 91.667969 Z M 23.855469 92.683594 "/>
<path style=" stroke:none;fill-rule:nonzero;fill:rgb(100%,100%,100%);fill-opacity:1;" d="M 43.429688 89.617188 L 49.273438 89.617188 L 49.273438 85.804688 L 43.429688 85.804688 Z M 43.429688 89.617188 "/>
<path style=" stroke:none;fill-rule:nonzero;fill:rgb(10.112%,40.585327%,73.280334%);fill-opacity:1;" d="M 29.871094 79.1875 C 29.871094 79.46875 29.644531 79.695312 29.363281 79.695312 L 26.695312 79.695312 C 26.414062 79.695312 26.179688 79.46875 26.179688 79.1875 C 26.179688 79.160156 26.183594 79.140625 26.183594 79.113281 L 26.757812 75.078125 C 26.820312 74.640625 27.011719 74.625 27.265625 74.625 L 29.367188 74.625 C 29.648438 74.625 29.871094 74.839844 29.871094 75.117188 L 29.871094 79.1875 "/>
<path style=" stroke:none;fill-rule:nonzero;fill:rgb(10.112%,40.585327%,73.280334%);fill-opacity:1;" d="M 37.578125 73.601562 L 35.550781 73.601562 L 32.742188 71.644531 L 36.566406 69.441406 L 40.394531 71.652344 L 37.578125 73.601562 "/>
<path style=" stroke:none;fill-rule:nonzero;fill:rgb(10.112%,40.585327%,73.280334%);fill-opacity:1;" d="M 19.480469 35.050781 L 19.480469 20.957031 L 30.632812 20.957031 C 31.101562 20.957031 31.652344 20.957031 31.96875 21.269531 C 32.28125 21.585938 32.359375 21.902344 32.359375 22.609375 L 32.359375 33.398438 C 32.359375 33.949219 32.199219 34.421875 31.886719 34.660156 C 31.574219 34.972656 31.261719 35.050781 30.710938 35.050781 L 19.480469 35.050781 "/>
</g>
</svg>
