<?xml version="1.0" encoding="UTF-8"?>
<svg xmlns="http://www.w3.org/2000/svg" xmlns:xlink="http://www.w3.org/1999/xlink" width="81pt" height="58pt" viewBox="0 0 81 58" version="1.1">
<g id="surface1">
<path style=" stroke:none;fill-rule:nonzero;fill:rgb(13.729858%,12.159729%,12.548828%);fill-opacity:1;" d="M 0.832031 57.519531 L 80.203125 57.519531 L 80.203125 0.828125 L 0.832031 0.828125 Z M 0.832031 57.519531 "/>
<path style=" stroke:none;fill-rule:nonzero;fill:rgb(100%,100%,100%);fill-opacity:1;" d="M 1.96875 15 L 79.070312 15 L 79.070312 1.960938 L 1.96875 1.960938 Z M 1.96875 15 "/>
<path style=" stroke:none;fill-rule:nonzero;fill:rgb(100%,100%,100%);fill-opacity:1;" d="M 1.96875 56.386719 L 79.070312 56.386719 L 79.070312 21.800781 L 1.96875 21.800781 Z M 1.96875 56.386719 "/>
<path style=" stroke:none;fill-rule:nonzero;fill:rgb(13.729858%,12.159729%,12.548828%);fill-opacity:1;" d="M 12.011719 11.609375 L 13.148438 11.609375 L 13.148438 4.878906 L 13.171875 4.878906 L 15.207031 11.609375 L 16.082031 11.609375 L 18.210938 4.878906 L 18.230469 4.878906 L 18.230469 11.609375 L 19.371094 11.609375 L 19.371094 3.675781 L 17.558594 3.675781 L 15.707031 9.792969 L 15.683594 9.792969 L 13.875 3.675781 L 12.011719 3.675781 L 12.011719 11.609375 "/>
<path style=" stroke:none;fill-rule:nonzero;fill:rgb(13.729858%,12.159729%,12.548828%);fill-opacity:1;" d="M 21.605469 4.6875 L 22.605469 4.6875 L 22.605469 3.492188 L 21.605469 3.492188 L 21.605469 4.6875 "/>
<path style=" stroke:none;fill-rule:nonzero;fill:rgb(13.729858%,12.159729%,12.548828%);fill-opacity:1;" d="M 23.46875 4.6875 L 24.46875 4.6875 L 24.46875 3.492188 L 23.46875 3.492188 L 23.46875 4.6875 "/>
<path style=" stroke:none;fill-rule:nonzero;fill:rgb(13.729858%,12.159729%,12.548828%);fill-opacity:1;" d="M 21.289062 10.984375 C 21.503906 11.222656 21.765625 11.40625 22.070312 11.519531 C 22.367188 11.628906 22.683594 11.6875 23.027344 11.6875 C 23.367188 11.6875 23.6875 11.628906 23.992188 11.519531 C 24.289062 11.40625 24.550781 11.222656 24.765625 10.984375 C 24.980469 10.746094 25.164062 10.441406 25.289062 10.066406 C 25.414062 9.6875 25.484375 9.222656 25.484375 8.6875 C 25.484375 8.164062 25.414062 7.710938 25.289062 7.335938 C 25.164062 6.960938 24.980469 6.640625 24.765625 6.402344 C 24.550781 6.164062 24.289062 5.980469 23.992188 5.871094 C 23.6875 5.753906 23.367188 5.695312 23.027344 5.695312 C 22.683594 5.695312 22.367188 5.753906 22.070312 5.871094 C 21.765625 5.980469 21.503906 6.164062 21.289062 6.402344 C 21.070312 6.640625 20.890625 6.960938 20.761719 7.335938 C 20.640625 7.710938 20.570312 8.164062 20.570312 8.6875 C 20.570312 9.222656 20.640625 9.6875 20.761719 10.066406 C 20.890625 10.441406 21.070312 10.746094 21.289062 10.984375 "/>
<path style=" stroke:none;fill-rule:nonzero;fill:rgb(13.729858%,12.159729%,12.548828%);fill-opacity:1;" d="M 26.84375 11.609375 L 28.023438 11.609375 L 28.023438 8.152344 C 28.023438 7.699219 28.117188 7.335938 28.308594 7.074219 C 28.488281 6.8125 28.765625 6.6875 29.136719 6.6875 C 29.445312 6.6875 29.664062 6.789062 29.808594 6.992188 C 29.949219 7.199219 30.015625 7.527344 30.015625 7.984375 L 30.015625 11.609375 L 31.199219 11.609375 L 31.199219 7.710938 C 31.199219 7.097656 31.0625 6.605469 30.789062 6.242188 C 30.515625 5.882812 30.082031 5.695312 29.492188 5.695312 C 29.148438 5.695312 28.855469 5.777344 28.59375 5.949219 C 28.332031 6.117188 28.128906 6.355469 27.980469 6.664062 L 27.957031 6.664062 C 27.957031 6.628906 27.957031 6.558594 27.957031 6.484375 C 27.945312 6.402344 27.945312 6.3125 27.933594 6.21875 C 27.921875 6.128906 27.921875 6.039062 27.921875 5.957031 C 27.910156 5.882812 27.910156 5.8125 27.910156 5.777344 L 26.796875 5.777344 C 26.808594 5.949219 26.820312 6.128906 26.832031 6.3125 C 26.84375 6.507812 26.84375 6.699219 26.84375 6.890625 L 26.84375 11.609375 "/>
<path style=" stroke:none;fill-rule:nonzero;fill:rgb(13.729858%,12.159729%,12.548828%);fill-opacity:1;" d="M 36.457031 11.449219 L 36.386719 10.453125 C 36.265625 10.53125 36.09375 10.597656 35.898438 10.65625 C 35.703125 10.714844 35.5 10.746094 35.308594 10.746094 C 34.792969 10.746094 34.410156 10.5625 34.136719 10.203125 C 33.851562 9.839844 33.714844 9.347656 33.714844 8.734375 C 33.714844 8.019531 33.851562 7.492188 34.125 7.152344 C 34.398438 6.8125 34.785156 6.640625 35.285156 6.640625 C 35.5 6.640625 35.695312 6.664062 35.867188 6.722656 C 36.035156 6.777344 36.183594 6.835938 36.332031 6.914062 L 36.386719 5.925781 C 36.238281 5.871094 36.070312 5.8125 35.855469 5.765625 C 35.640625 5.71875 35.421875 5.695312 35.207031 5.695312 C 34.761719 5.695312 34.363281 5.765625 34.023438 5.914062 C 33.683594 6.0625 33.398438 6.277344 33.171875 6.539062 C 32.941406 6.8125 32.773438 7.132812 32.65625 7.503906 C 32.546875 7.878906 32.488281 8.28125 32.488281 8.722656 C 32.488281 9.132812 32.546875 9.519531 32.644531 9.882812 C 32.75 10.246094 32.917969 10.5625 33.136719 10.828125 C 33.351562 11.089844 33.625 11.304688 33.964844 11.449219 C 34.296875 11.609375 34.695312 11.6875 35.148438 11.6875 C 35.398438 11.6875 35.640625 11.664062 35.878906 11.617188 C 36.113281 11.566406 36.308594 11.507812 36.457031 11.449219 "/>
<path style=" stroke:none;fill-rule:nonzero;fill:rgb(13.729858%,12.159729%,12.548828%);fill-opacity:1;" d="M 37.578125 11.609375 L 38.761719 11.609375 L 38.761719 8.152344 C 38.761719 7.699219 38.851562 7.335938 39.046875 7.074219 C 39.226562 6.8125 39.5 6.6875 39.878906 6.6875 C 40.183594 6.6875 40.398438 6.789062 40.542969 6.992188 C 40.679688 7.199219 40.75 7.527344 40.75 7.984375 L 40.75 11.609375 L 41.929688 11.609375 L 41.929688 7.710938 C 41.929688 7.097656 41.796875 6.605469 41.523438 6.242188 C 41.25 5.882812 40.816406 5.695312 40.230469 5.695312 C 39.84375 5.695312 39.535156 5.789062 39.320312 5.957031 C 39.09375 6.140625 38.910156 6.332031 38.785156 6.550781 L 38.761719 6.550781 L 38.761719 3.082031 L 37.578125 3.082031 L 37.578125 11.609375 "/>
<path style=" stroke:none;fill-rule:nonzero;fill:rgb(13.729858%,12.159729%,12.548828%);fill-opacity:1;" d="M 46.742188 11.609375 L 47.8125 11.609375 C 47.800781 11.507812 47.777344 11.363281 47.765625 11.1875 C 47.753906 11.019531 47.742188 10.835938 47.742188 10.644531 L 47.742188 7.859375 C 47.742188 7.46875 47.710938 7.152344 47.628906 6.902344 C 47.550781 6.652344 47.421875 6.449219 47.277344 6.277344 C 47.152344 6.128906 46.945312 5.992188 46.675781 5.871094 C 46.402344 5.753906 46.050781 5.695312 45.605469 5.695312 C 45.226562 5.695312 44.902344 5.742188 44.613281 5.835938 C 44.332031 5.925781 44.070312 6.027344 43.851562 6.152344 L 43.945312 7.164062 C 44.089844 7.015625 44.308594 6.878906 44.59375 6.757812 C 44.867188 6.640625 45.164062 6.582031 45.492188 6.582031 C 45.910156 6.582031 46.207031 6.699219 46.390625 6.925781 C 46.480469 7.039062 46.546875 7.164062 46.582031 7.300781 C 46.617188 7.449219 46.628906 7.609375 46.628906 7.789062 L 46.628906 8.03125 L 46.207031 8.03125 C 45.265625 8.03125 44.535156 8.1875 44.046875 8.496094 C 43.558594 8.8125 43.308594 9.3125 43.308594 9.996094 C 43.308594 10.269531 43.351562 10.507812 43.445312 10.726562 C 43.535156 10.941406 43.660156 11.109375 43.820312 11.257812 C 43.96875 11.40625 44.148438 11.507812 44.351562 11.578125 C 44.558594 11.652344 44.773438 11.6875 45.011719 11.6875 C 45.445312 11.6875 45.789062 11.601562 46.050781 11.417969 C 46.296875 11.246094 46.503906 11.042969 46.652344 10.816406 L 46.675781 10.816406 C 46.675781 10.847656 46.675781 10.90625 46.6875 10.984375 C 46.6875 11.066406 46.6875 11.144531 46.699219 11.222656 C 46.710938 11.304688 46.710938 11.386719 46.71875 11.449219 C 46.730469 11.53125 46.730469 11.578125 46.742188 11.609375 "/>
<path style=" stroke:none;fill-rule:nonzero;fill:rgb(13.729858%,12.159729%,12.548828%);fill-opacity:1;" d="M 49.375 11.609375 L 50.558594 11.609375 L 50.558594 3.082031 L 49.375 3.082031 L 49.375 11.609375 "/>
<path style=" stroke:none;fill-rule:nonzero;fill:rgb(13.729858%,12.159729%,12.548828%);fill-opacity:1;" d="M 54.835938 11.519531 L 54.835938 10.632812 C 54.753906 10.667969 54.675781 10.703125 54.582031 10.726562 C 54.492188 10.757812 54.390625 10.769531 54.265625 10.769531 C 54.050781 10.769531 53.902344 10.703125 53.800781 10.574219 C 53.695312 10.453125 53.652344 10.234375 53.652344 9.914062 L 53.652344 6.6875 L 54.835938 6.6875 L 54.835938 5.777344 L 53.652344 5.777344 L 53.652344 4.230469 L 52.46875 4.582031 L 52.46875 5.777344 L 51.535156 5.777344 L 51.535156 6.6875 L 52.46875 6.6875 L 52.46875 10.15625 C 52.46875 10.714844 52.59375 11.109375 52.855469 11.339844 C 53.117188 11.578125 53.480469 11.6875 53.957031 11.6875 C 54.128906 11.6875 54.296875 11.675781 54.449219 11.640625 C 54.59375 11.601562 54.730469 11.566406 54.835938 11.519531 "/>
<path style=" stroke:none;fill-rule:nonzero;fill:rgb(13.729858%,12.159729%,12.548828%);fill-opacity:1;" d="M 56.480469 10.984375 C 56.699219 11.222656 56.960938 11.40625 57.265625 11.519531 C 57.5625 11.628906 57.878906 11.6875 58.21875 11.6875 C 58.558594 11.6875 58.878906 11.628906 59.183594 11.519531 C 59.480469 11.40625 59.742188 11.222656 59.960938 10.984375 C 60.175781 10.746094 60.355469 10.441406 60.484375 10.066406 C 60.609375 9.6875 60.675781 9.222656 60.675781 8.6875 C 60.675781 8.164062 60.609375 7.710938 60.484375 7.335938 C 60.355469 6.960938 60.175781 6.640625 59.960938 6.402344 C 59.742188 6.164062 59.480469 5.980469 59.183594 5.871094 C 58.878906 5.753906 58.558594 5.695312 58.21875 5.695312 C 57.878906 5.695312 57.5625 5.753906 57.265625 5.871094 C 56.960938 5.980469 56.699219 6.164062 56.480469 6.402344 C 56.265625 6.640625 56.085938 6.960938 55.957031 7.335938 C 55.832031 7.710938 55.765625 8.164062 55.765625 8.6875 C 55.765625 9.222656 55.832031 9.6875 55.957031 10.066406 C 56.085938 10.441406 56.265625 10.746094 56.480469 10.984375 "/>
<path style=" stroke:none;fill-rule:nonzero;fill:rgb(13.729858%,12.159729%,12.548828%);fill-opacity:1;" d="M 61.988281 11.609375 L 63.171875 11.609375 L 63.171875 8.472656 C 63.171875 8.175781 63.207031 7.925781 63.277344 7.710938 C 63.34375 7.492188 63.433594 7.324219 63.546875 7.1875 C 63.660156 7.0625 63.796875 6.960938 63.945312 6.890625 C 64.09375 6.835938 64.242188 6.800781 64.410156 6.800781 C 64.476562 6.800781 64.546875 6.800781 64.605469 6.8125 C 64.664062 6.824219 64.730469 6.835938 64.785156 6.84375 L 64.785156 5.707031 C 64.765625 5.707031 64.742188 5.707031 64.730469 5.695312 C 64.71875 5.695312 64.695312 5.695312 64.675781 5.695312 C 64.460938 5.695312 64.261719 5.71875 64.09375 5.777344 C 63.921875 5.835938 63.789062 5.914062 63.660156 6.015625 C 63.535156 6.117188 63.421875 6.230469 63.332031 6.355469 C 63.238281 6.484375 63.160156 6.617188 63.105469 6.769531 L 63.082031 6.769531 C 63.082031 6.722656 63.082031 6.652344 63.082031 6.558594 C 63.070312 6.472656 63.070312 6.367188 63.058594 6.265625 C 63.046875 6.164062 63.046875 6.074219 63.046875 5.980469 C 63.035156 5.894531 63.035156 5.824219 63.035156 5.777344 L 61.945312 5.777344 C 61.957031 5.949219 61.96875 6.128906 61.976562 6.3125 C 61.988281 6.507812 61.988281 6.699219 61.988281 6.890625 L 61.988281 11.609375 "/>
<path style=" stroke:none;fill-rule:nonzero;fill:rgb(13.729858%,12.159729%,12.548828%);fill-opacity:1;" d="M 66.613281 11.609375 L 67.792969 11.609375 L 67.792969 6.6875 L 68.851562 6.6875 L 68.851562 5.777344 L 67.792969 5.777344 L 67.792969 4.664062 C 67.792969 4.402344 67.851562 4.207031 67.957031 4.074219 C 68.054688 3.933594 68.238281 3.867188 68.476562 3.867188 C 68.542969 3.867188 68.636719 3.878906 68.738281 3.902344 C 68.839844 3.921875 68.941406 3.945312 69.023438 3.980469 L 69.023438 3.070312 C 68.898438 3.035156 68.75 3.003906 68.582031 2.980469 C 68.40625 2.957031 68.273438 2.945312 68.171875 2.945312 C 67.886719 2.945312 67.636719 2.992188 67.441406 3.070312 C 67.25 3.152344 67.089844 3.261719 66.964844 3.414062 C 66.839844 3.558594 66.746094 3.71875 66.691406 3.914062 C 66.636719 4.105469 66.613281 4.324219 66.613281 4.539062 L 66.613281 5.777344 L 65.65625 5.777344 L 65.65625 6.6875 L 66.613281 6.6875 L 66.613281 11.609375 "/>
<path style=" stroke:none;fill-rule:nonzero;fill:rgb(13.729858%,12.159729%,12.548828%);fill-opacity:1;" d="M 23.929688 40.007812 L 26.386719 40.007812 L 26.386719 33 L 27.164062 33 C 27.824219 33 28.320312 33.113281 28.6875 33.363281 C 29.027344 33.613281 29.324219 34.066406 29.527344 34.726562 L 31.230469 40.007812 L 33.847656 40.007812 L 31.710938 33.796875 C 31.507812 33.203125 31.253906 32.792969 30.980469 32.542969 C 30.6875 32.316406 30.34375 32.15625 29.960938 32.089844 L 29.960938 32.046875 C 31.003906 31.839844 31.78125 31.410156 32.300781 30.726562 C 32.824219 30.042969 33.074219 29.226562 33.074219 28.269531 C 33.074219 27.542969 32.960938 26.929688 32.730469 26.402344 C 32.503906 25.882812 32.1875 25.449219 31.78125 25.109375 C 31.367188 24.769531 30.890625 24.519531 30.324219 24.359375 C 29.753906 24.199219 29.117188 24.132812 28.433594 24.132812 L 23.929688 24.132812 L 23.929688 40.007812 "/>
<path style=" stroke:none;fill-rule:nonzero;fill:rgb(13.729858%,12.159729%,12.548828%);fill-opacity:1;" d="M 37.0625 26.152344 L 39.066406 26.152344 L 39.066406 23.765625 L 37.0625 23.765625 L 37.0625 26.152344 "/>
<path style=" stroke:none;fill-rule:nonzero;fill:rgb(13.729858%,12.159729%,12.548828%);fill-opacity:1;" d="M 40.792969 26.152344 L 42.792969 26.152344 L 42.792969 23.765625 L 40.792969 23.765625 L 40.792969 26.152344 "/>
<path style=" stroke:none;fill-rule:nonzero;fill:rgb(13.729858%,12.159729%,12.548828%);fill-opacity:1;" d="M 42.132812 40.007812 L 44.363281 40.007812 C 44.339844 39.664062 44.316406 39.300781 44.296875 38.910156 C 44.273438 38.546875 44.273438 38.164062 44.273438 37.777344 L 44.273438 28.339844 L 41.90625 28.339844 L 41.90625 35.179688 C 41.90625 36.09375 41.722656 36.820312 41.382812 37.363281 C 41.039062 37.910156 40.476562 38.183594 39.726562 38.183594 C 39.113281 38.183594 38.679688 37.980469 38.382812 37.574219 C 38.089844 37.160156 37.929688 36.5 37.929688 35.59375 L 37.929688 28.339844 L 35.5625 28.339844 L 35.5625 36.140625 C 35.5625 37.363281 35.835938 38.34375 36.382812 39.074219 C 36.929688 39.796875 37.792969 40.164062 38.976562 40.164062 C 39.773438 40.164062 40.40625 39.984375 40.882812 39.59375 C 41.339844 39.230469 41.703125 38.777344 41.996094 38.230469 L 42.042969 38.230469 L 42.132812 40.007812 "/>
<path style=" stroke:none;fill-rule:nonzero;fill:rgb(13.729858%,12.159729%,12.548828%);fill-opacity:1;" d="M 52.464844 39.820312 L 52.464844 38.046875 C 52.304688 38.117188 52.148438 38.183594 51.964844 38.230469 C 51.78125 38.296875 51.578125 38.320312 51.328125 38.320312 C 50.894531 38.320312 50.597656 38.183594 50.394531 37.933594 C 50.191406 37.683594 50.097656 37.253906 50.097656 36.617188 L 50.097656 30.15625 L 52.464844 30.15625 L 52.464844 28.339844 L 50.097656 28.339844 L 50.097656 25.246094 L 47.734375 25.949219 L 47.734375 28.339844 L 45.867188 28.339844 L 45.867188 30.15625 L 47.734375 30.15625 L 47.734375 37.09375 C 47.734375 38.210938 47.984375 39.003906 48.507812 39.460938 C 49.03125 39.9375 49.757812 40.164062 50.714844 40.164062 C 51.054688 40.164062 51.394531 40.140625 51.691406 40.074219 C 51.984375 39.984375 52.257812 39.914062 52.464844 39.820312 "/>
<path style=" stroke:none;fill-rule:nonzero;fill:rgb(13.729858%,12.159729%,12.548828%);fill-opacity:1;" d="M 54.671875 40.007812 L 57.035156 40.007812 L 57.035156 28.339844 L 54.671875 28.339844 L 54.671875 40.007812 "/>
<path style=" stroke:none;fill-rule:nonzero;fill:rgb(13.729858%,12.159729%,12.548828%);fill-opacity:1;" d="M 54.601562 25.996094 L 57.105469 25.996094 L 57.105469 23.472656 L 54.601562 23.472656 L 54.601562 25.996094 "/>
<path style=" stroke:none;fill-rule:nonzero;fill:rgb(13.729858%,12.159729%,12.548828%);fill-opacity:1;" d="M 29.105469 53.460938 L 30.308594 53.460938 L 30.308594 45.523438 L 29.25 45.523438 L 27.476562 47.136719 L 28.066406 47.988281 L 29.105469 46.933594 L 29.105469 53.460938 "/>
<path style=" stroke:none;fill-rule:nonzero;fill:rgb(13.729858%,12.159729%,12.548828%);fill-opacity:1;" d="M 31.035156 51.730469 L 34.105469 51.730469 L 34.105469 53.460938 L 35.242188 53.460938 L 35.242188 51.730469 L 36.121094 51.730469 L 36.121094 50.789062 L 35.242188 50.789062 L 35.242188 45.523438 L 33.832031 45.523438 L 31.035156 50.59375 L 31.035156 51.730469 "/>
<path style=" stroke:none;fill-rule:nonzero;fill:rgb(13.729858%,12.159729%,12.548828%);fill-opacity:1;" d="M 40.644531 53.460938 L 41.828125 53.460938 L 41.828125 50.574219 L 41.851562 50.574219 L 43.792969 53.460938 L 45.203125 53.460938 L 42.839844 50.253906 L 44.996094 47.628906 L 43.691406 47.628906 L 41.828125 49.992188 L 41.828125 44.929688 L 40.644531 44.929688 L 40.644531 53.460938 "/>
<path style=" stroke:none;fill-rule:nonzero;fill:rgb(13.729858%,12.159729%,12.548828%);fill-opacity:1;" d="M 46.328125 53.460938 L 47.511719 53.460938 L 47.511719 49.890625 C 47.511719 49.457031 47.601562 49.125 47.773438 48.886719 C 47.945312 48.648438 48.203125 48.539062 48.535156 48.539062 C 49.078125 48.539062 49.351562 48.898438 49.351562 49.617188 L 49.351562 53.460938 L 50.535156 53.460938 L 50.535156 49.890625 C 50.535156 49.457031 50.625 49.125 50.796875 48.886719 C 50.96875 48.648438 51.230469 48.539062 51.558594 48.539062 C 52.105469 48.539062 52.378906 48.898438 52.378906 49.617188 L 52.378906 53.460938 L 53.558594 53.460938 L 53.558594 49.640625 C 53.558594 48.957031 53.425781 48.433594 53.152344 48.082031 C 52.867188 47.730469 52.445312 47.546875 51.878906 47.546875 C 51.503906 47.546875 51.195312 47.636719 50.957031 47.820312 C 50.71875 48.011719 50.535156 48.230469 50.390625 48.46875 C 50.332031 48.355469 50.261719 48.238281 50.183594 48.128906 C 50.105469 48.023438 50 47.921875 49.890625 47.832031 C 49.773438 47.75 49.640625 47.683594 49.492188 47.628906 C 49.34375 47.570312 49.160156 47.546875 48.96875 47.546875 C 48.605469 47.546875 48.308594 47.636719 48.070312 47.820312 C 47.828125 48.011719 47.636719 48.238281 47.511719 48.523438 L 47.488281 48.523438 C 47.488281 48.488281 47.488281 48.421875 47.488281 48.332031 C 47.476562 48.25 47.476562 48.164062 47.476562 48.070312 C 47.46875 47.976562 47.46875 47.890625 47.46875 47.808594 C 47.457031 47.730469 47.457031 47.660156 47.457031 47.628906 L 46.28125 47.628906 C 46.292969 47.785156 46.304688 47.957031 46.316406 48.140625 C 46.328125 48.320312 46.328125 48.511719 46.328125 48.730469 L 46.328125 53.460938 "/>
<path style=" stroke:none;fill-rule:nonzero;fill:rgb(100%,100%,100%);fill-opacity:1;" d="M 22.070312 10.203125 C 21.96875 10.007812 21.902344 9.792969 21.867188 9.53125 C 21.820312 9.269531 21.796875 8.992188 21.796875 8.6875 C 21.796875 8.382812 21.820312 8.105469 21.867188 7.847656 C 21.902344 7.585938 21.96875 7.371094 22.070312 7.175781 C 22.175781 6.992188 22.296875 6.84375 22.457031 6.746094 C 22.605469 6.640625 22.800781 6.582031 23.027344 6.582031 C 23.253906 6.582031 23.449219 6.640625 23.605469 6.746094 C 23.753906 6.84375 23.878906 6.992188 23.980469 7.175781 C 24.085938 7.371094 24.152344 7.585938 24.195312 7.847656 C 24.230469 8.105469 24.253906 8.382812 24.253906 8.6875 C 24.253906 8.992188 24.230469 9.269531 24.195312 9.53125 C 24.152344 9.792969 24.085938 10.007812 23.980469 10.203125 C 23.878906 10.394531 23.753906 10.539062 23.605469 10.644531 C 23.449219 10.746094 23.253906 10.800781 23.027344 10.800781 C 22.800781 10.800781 22.605469 10.746094 22.457031 10.644531 C 22.296875 10.539062 22.175781 10.394531 22.070312 10.203125 "/>
<path style=" stroke:none;fill-rule:nonzero;fill:rgb(100%,100%,100%);fill-opacity:1;" d="M 46.628906 8.753906 L 46.628906 9.28125 C 46.628906 9.746094 46.527344 10.121094 46.320312 10.40625 C 46.105469 10.703125 45.796875 10.847656 45.378906 10.847656 C 45.070312 10.847656 44.84375 10.757812 44.683594 10.585938 C 44.523438 10.417969 44.445312 10.175781 44.445312 9.894531 C 44.445312 9.507812 44.59375 9.222656 44.902344 9.027344 C 45.207031 8.835938 45.648438 8.746094 46.230469 8.746094 C 46.296875 8.746094 46.367188 8.746094 46.449219 8.746094 C 46.527344 8.746094 46.59375 8.746094 46.628906 8.753906 "/>
<path style=" stroke:none;fill-rule:nonzero;fill:rgb(100%,100%,100%);fill-opacity:1;" d="M 57.265625 10.203125 C 57.164062 10.007812 57.09375 9.792969 57.058594 9.53125 C 57.015625 9.269531 56.992188 8.992188 56.992188 8.6875 C 56.992188 8.382812 57.015625 8.105469 57.058594 7.847656 C 57.09375 7.585938 57.164062 7.371094 57.265625 7.175781 C 57.367188 6.992188 57.492188 6.84375 57.652344 6.746094 C 57.800781 6.640625 57.992188 6.582031 58.21875 6.582031 C 58.449219 6.582031 58.640625 6.640625 58.800781 6.746094 C 58.945312 6.84375 59.074219 6.992188 59.171875 7.175781 C 59.277344 7.371094 59.347656 7.585938 59.390625 7.847656 C 59.425781 8.105469 59.449219 8.382812 59.449219 8.6875 C 59.449219 8.992188 59.425781 9.269531 59.390625 9.53125 C 59.347656 9.792969 59.277344 10.007812 59.171875 10.203125 C 59.074219 10.394531 58.945312 10.539062 58.800781 10.644531 C 58.640625 10.746094 58.449219 10.800781 58.21875 10.800781 C 57.992188 10.800781 57.800781 10.746094 57.652344 10.644531 C 57.492188 10.539062 57.367188 10.394531 57.265625 10.203125 "/>
<path style=" stroke:none;fill-rule:nonzero;fill:rgb(100%,100%,100%);fill-opacity:1;" d="M 26.386719 31.113281 L 26.386719 26.0625 L 27.777344 26.0625 C 28.617188 26.0625 29.300781 26.246094 29.800781 26.609375 C 30.277344 26.972656 30.527344 27.609375 30.527344 28.496094 C 30.527344 29.246094 30.296875 29.886719 29.84375 30.359375 C 29.367188 30.863281 28.6875 31.113281 27.753906 31.113281 L 26.386719 31.113281 "/>
<path style=" stroke:none;fill-rule:nonzero;fill:rgb(100%,100%,100%);fill-opacity:1;" d="M 31.980469 50.789062 L 34.082031 46.75 L 34.105469 46.75 L 34.105469 50.789062 L 31.980469 50.789062 "/>
</g>
</svg>
