<?xml version="1.0" encoding="UTF-8"?>
<svg xmlns="http://www.w3.org/2000/svg" xmlns:xlink="http://www.w3.org/1999/xlink" width="145pt" height="37pt" viewBox="0 0 145 37" version="1.1">
<g id="surface1">
<path style="fill-rule:nonzero;fill:rgb(100%,100%,100%);fill-opacity:1;stroke-width:2.835;stroke-linecap:butt;stroke-linejoin:round;stroke:rgb(13.729858%,12.159729%,12.548828%);stroke-opacity:1;stroke-miterlimit:4;" d="M 2.34375 11.09375 L 1136.210938 11.09375 L 1448.007812 188.164062 L 1136.210938 365.429688 L 2.34375 365.429688 L 2.34375 11.09375 " transform="matrix(0.1,0,0,-0.1,0,37)"/>
<path style=" stroke:none;fill-rule:nonzero;fill:rgb(0%,49.674988%,27.331543%);fill-opacity:1;" d="M 2.359375 33.761719 L 113.058594 33.761719 L 129.210938 18.179688 L 113.058594 2.582031 L 2.359375 2.582031 L 2.359375 33.761719 "/>
<path style=" stroke:none;fill-rule:nonzero;fill:rgb(100%,100%,100%);fill-opacity:1;" d="M 29.414062 26.675781 L 34.816406 26.675781 C 35.8125 26.675781 36.695312 26.535156 37.460938 26.25 C 38.226562 25.992188 38.851562 25.59375 39.394531 25.113281 C 39.933594 24.628906 40.332031 24.03125 40.617188 23.351562 C 40.871094 22.695312 41.011719 21.960938 41.011719 21.164062 C 41.011719 20.394531 40.902344 19.742188 40.699219 19.144531 C 40.472656 18.574219 40.1875 18.09375 39.847656 17.691406 C 39.480469 17.324219 39.082031 17.011719 38.65625 16.78125 C 38.199219 16.554688 37.746094 16.414062 37.289062 16.328125 L 37.289062 16.269531 C 37.714844 16.128906 38.113281 15.957031 38.511719 15.703125 C 38.882812 15.476562 39.222656 15.191406 39.539062 14.824219 C 39.847656 14.453125 40.078125 14.027344 40.277344 13.511719 C 40.472656 13.03125 40.558594 12.433594 40.558594 11.78125 C 40.558594 10.1875 40.101562 8.964844 39.195312 8.113281 C 38.257812 7.261719 36.804688 6.835938 34.816406 6.835938 L 29.414062 6.835938 L 29.414062 26.675781 "/>
<path style=" stroke:none;fill-rule:nonzero;fill:rgb(100%,100%,100%);fill-opacity:1;" d="M 52.5 26.675781 L 55.171875 26.675781 C 55.144531 26.417969 55.089844 26.050781 55.058594 25.625 C 55.03125 25.199219 55.003906 24.746094 55.003906 24.257812 L 55.003906 17.296875 C 55.003906 16.328125 54.917969 15.53125 54.71875 14.90625 C 54.519531 14.285156 54.207031 13.769531 53.835938 13.34375 C 53.523438 12.972656 53.011719 12.636719 52.332031 12.320312 C 51.648438 12.035156 50.765625 11.894531 49.65625 11.894531 C 48.722656 11.894531 47.898438 12.007812 47.183594 12.234375 C 46.472656 12.460938 45.820312 12.71875 45.28125 13.03125 L 45.511719 15.5625 C 45.878906 15.191406 46.417969 14.851562 47.128906 14.539062 C 47.808594 14.253906 48.546875 14.109375 49.371094 14.109375 C 50.425781 14.109375 51.164062 14.394531 51.617188 14.964844 C 51.84375 15.25 52.019531 15.5625 52.105469 15.902344 C 52.1875 16.269531 52.21875 16.671875 52.21875 17.125 L 52.21875 17.722656 L 51.164062 17.722656 C 48.808594 17.722656 46.984375 18.121094 45.765625 18.886719 C 44.542969 19.683594 43.914062 20.933594 43.914062 22.640625 C 43.914062 23.324219 44.03125 23.921875 44.257812 24.460938 C 44.484375 25 44.796875 25.425781 45.195312 25.796875 C 45.5625 26.164062 46.019531 26.417969 46.53125 26.59375 C 47.042969 26.785156 47.582031 26.871094 48.179688 26.871094 C 49.261719 26.871094 50.113281 26.648438 50.765625 26.191406 C 51.390625 25.769531 51.902344 25.257812 52.273438 24.6875 L 52.332031 24.6875 C 52.332031 24.769531 52.332031 24.914062 52.359375 25.113281 C 52.359375 25.308594 52.359375 25.511719 52.390625 25.710938 C 52.414062 25.90625 52.414062 26.109375 52.445312 26.277344 C 52.472656 26.476562 52.472656 26.59375 52.5 26.675781 "/>
<path style=" stroke:none;fill-rule:nonzero;fill:rgb(100%,100%,100%);fill-opacity:1;" d="M 58.78125 26.109375 C 59.238281 26.308594 59.804688 26.507812 60.515625 26.648438 C 61.199219 26.785156 61.964844 26.871094 62.789062 26.871094 C 64.4375 26.871094 65.6875 26.476562 66.570312 25.652344 C 67.421875 24.828125 67.847656 23.777344 67.847656 22.46875 C 67.847656 21.589844 67.59375 20.878906 67.109375 20.339844 C 66.597656 19.796875 65.914062 19.253906 65.035156 18.773438 L 63.753906 18.0625 C 63.101562 17.691406 62.617188 17.378906 62.25 17.066406 C 61.878906 16.78125 61.710938 16.386719 61.710938 15.902344 C 61.710938 15.394531 61.878906 14.964844 62.25 14.652344 C 62.617188 14.335938 63.15625 14.199219 63.898438 14.199219 C 64.496094 14.199219 65.0625 14.253906 65.546875 14.367188 C 66.03125 14.511719 66.484375 14.652344 66.882812 14.824219 L 67.023438 12.433594 C 66.710938 12.320312 66.285156 12.207031 65.71875 12.066406 C 65.117188 11.949219 64.4375 11.894531 63.671875 11.894531 C 62.929688 11.894531 62.277344 12.007812 61.679688 12.234375 C 61.082031 12.460938 60.574219 12.777344 60.144531 13.144531 C 59.71875 13.542969 59.378906 14 59.152344 14.480469 C 58.925781 14.992188 58.8125 15.53125 58.8125 16.074219 C 58.8125 16.585938 58.898438 17.039062 59.039062 17.4375 C 59.179688 17.835938 59.378906 18.175781 59.632812 18.488281 C 59.886719 18.800781 60.171875 19.058594 60.542969 19.285156 C 60.914062 19.539062 61.308594 19.769531 61.765625 19.996094 L 63.300781 20.765625 C 63.957031 21.078125 64.410156 21.417969 64.664062 21.757812 C 64.890625 22.097656 65.007812 22.46875 65.007812 22.835938 C 65.007812 23.40625 64.78125 23.835938 64.324219 24.117188 C 63.871094 24.429688 63.242188 24.574219 62.476562 24.574219 C 61.765625 24.574219 61.082031 24.460938 60.484375 24.203125 C 59.886719 23.972656 59.378906 23.746094 58.957031 23.550781 L 58.78125 26.109375 "/>
<path style=" stroke:none;fill-rule:nonzero;fill:rgb(100%,100%,100%);fill-opacity:1;" d="M 73.828125 20.222656 L 82.15625 20.222656 L 82.15625 19.230469 C 82.15625 17.949219 82.015625 16.867188 81.757812 15.933594 C 81.503906 14.992188 81.132812 14.226562 80.648438 13.628906 C 80.167969 13.03125 79.570312 12.605469 78.914062 12.320312 C 78.234375 12.035156 77.492188 11.894531 76.695312 11.894531 C 75.785156 11.894531 74.960938 12.066406 74.253906 12.433594 C 73.515625 12.804688 72.886719 13.34375 72.40625 14 C 71.921875 14.679688 71.523438 15.476562 71.269531 16.414062 C 71.011719 17.351562 70.867188 18.378906 70.867188 19.484375 C 70.867188 20.535156 71.011719 21.53125 71.269531 22.441406 C 71.523438 23.351562 71.894531 24.117188 72.433594 24.769531 C 72.945312 25.425781 73.597656 25.9375 74.398438 26.308594 C 75.191406 26.699219 76.128906 26.871094 77.179688 26.871094 C 78.089844 26.871094 78.914062 26.785156 79.621094 26.59375 C 80.335938 26.394531 80.90625 26.191406 81.386719 25.992188 L 81.246094 23.519531 C 80.875 23.777344 80.394531 24.03125 79.824219 24.289062 C 79.226562 24.542969 78.519531 24.6875 77.664062 24.6875 C 76.300781 24.6875 75.332031 24.316406 74.734375 23.550781 C 74.136719 22.8125 73.828125 21.703125 73.828125 20.222656 "/>
<path style=" stroke:none;fill-rule:nonzero;fill:rgb(100%,100%,100%);fill-opacity:1;" d="M 85.726562 26.675781 L 88.683594 26.675781 L 88.683594 5.355469 L 85.726562 5.355469 L 85.726562 26.675781 "/>
<path style=" stroke:none;fill-rule:nonzero;fill:rgb(0%,49.674988%,27.331543%);fill-opacity:1;" d="M 32.425781 15.277344 L 32.425781 9.195312 L 34.277344 9.195312 C 35.386719 9.195312 36.210938 9.449219 36.75 9.988281 C 37.289062 10.527344 37.546875 11.242188 37.546875 12.09375 C 37.546875 13.03125 37.261719 13.796875 36.695312 14.394531 C 36.09375 14.992188 35.242188 15.277344 34.105469 15.277344 L 32.425781 15.277344 "/>
<path style=" stroke:none;fill-rule:nonzero;fill:rgb(0%,49.674988%,27.331543%);fill-opacity:1;" d="M 32.425781 24.257812 L 32.425781 17.636719 L 34.589844 17.636719 C 35.183594 17.636719 35.671875 17.722656 36.09375 17.890625 C 36.519531 18.0625 36.863281 18.289062 37.148438 18.601562 C 37.402344 18.917969 37.605469 19.253906 37.746094 19.65625 C 37.890625 20.054688 37.941406 20.480469 37.941406 20.960938 C 37.941406 21.902344 37.65625 22.695312 37.089844 23.324219 C 36.519531 23.945312 35.671875 24.257812 34.503906 24.257812 L 32.425781 24.257812 "/>
<path style=" stroke:none;fill-rule:nonzero;fill:rgb(0%,49.674988%,27.331543%);fill-opacity:1;" d="M 52.21875 19.539062 L 52.21875 20.851562 C 52.21875 22.011719 51.960938 22.953125 51.449219 23.660156 C 50.910156 24.402344 50.144531 24.769531 49.09375 24.769531 C 48.320312 24.769531 47.753906 24.542969 47.355469 24.117188 C 46.957031 23.691406 46.757812 23.097656 46.757812 22.382812 C 46.757812 21.417969 47.128906 20.707031 47.898438 20.222656 C 48.664062 19.742188 49.773438 19.515625 51.222656 19.515625 C 51.390625 19.515625 51.566406 19.515625 51.761719 19.515625 C 51.960938 19.515625 52.128906 19.515625 52.21875 19.539062 "/>
<path style=" stroke:none;fill-rule:nonzero;fill:rgb(0%,49.674988%,27.331543%);fill-opacity:1;" d="M 73.828125 18.203125 C 73.851562 16.867188 74.109375 15.816406 74.59375 15.078125 C 75.078125 14.367188 75.761719 14 76.609375 14 C 78.375 14 79.257812 15.394531 79.257812 18.203125 L 73.828125 18.203125 "/>
</g>
</svg>
