<?xml version="1.0" encoding="UTF-8"?>
<svg xmlns="http://www.w3.org/2000/svg" xmlns:xlink="http://www.w3.org/1999/xlink" width="145pt" height="37pt" viewBox="0 0 145 37" version="1.1">
<g id="surface1">
<path style="fill-rule:nonzero;fill:rgb(100%,100%,100%);fill-opacity:1;stroke-width:2.835;stroke-linecap:butt;stroke-linejoin:round;stroke:rgb(13.729858%,12.159729%,12.548828%);stroke-opacity:1;stroke-miterlimit:4;" d="M 2.34375 11.09375 L 1136.210938 11.09375 L 1448.007812 188.164062 L 1136.210938 365.429688 L 2.34375 365.429688 L 2.34375 11.09375 " transform="matrix(0.1,0,0,-0.1,0,37)"/>
<path style=" stroke:none;fill-rule:nonzero;fill:rgb(10.112%,40.585327%,73.280334%);fill-opacity:1;" d="M 2.359375 33.761719 L 113.058594 33.761719 L 129.210938 18.179688 L 113.058594 2.582031 L 2.359375 2.582031 L 2.359375 33.761719 "/>
<path style=" stroke:none;fill-rule:nonzero;fill:rgb(100%,100%,100%);fill-opacity:1;" d="M 24.832031 26.675781 L 36.542969 26.675781 L 36.542969 24.148438 L 28.273438 24.148438 L 36.402344 9.417969 L 36.402344 6.835938 L 25.085938 6.835938 L 25.085938 9.363281 L 32.789062 9.363281 L 24.832031 23.890625 L 24.832031 26.675781 "/>
<path style=" stroke:none;fill-rule:nonzero;fill:rgb(100%,100%,100%);fill-opacity:1;" d="M 40.769531 9.363281 L 43.269531 9.363281 L 43.269531 6.378906 L 40.769531 6.378906 L 40.769531 9.363281 "/>
<path style=" stroke:none;fill-rule:nonzero;fill:rgb(100%,100%,100%);fill-opacity:1;" d="M 45.429688 9.363281 L 47.933594 9.363281 L 47.933594 6.378906 L 45.429688 6.378906 L 45.429688 9.363281 "/>
<path style=" stroke:none;fill-rule:nonzero;fill:rgb(100%,100%,100%);fill-opacity:1;" d="M 47.109375 26.675781 L 49.894531 26.675781 C 49.867188 26.25 49.835938 25.796875 49.808594 25.308594 C 49.78125 24.855469 49.78125 24.375 49.78125 23.890625 L 49.78125 12.09375 L 46.824219 12.09375 L 46.824219 20.648438 C 46.824219 21.785156 46.597656 22.695312 46.171875 23.378906 C 45.742188 24.0625 45.035156 24.402344 44.09375 24.402344 C 43.328125 24.402344 42.789062 24.148438 42.417969 23.636719 C 42.050781 23.121094 41.847656 22.296875 41.847656 21.164062 L 41.847656 12.09375 L 38.894531 12.09375 L 38.894531 21.84375 C 38.894531 23.378906 39.234375 24.601562 39.914062 25.511719 C 40.597656 26.417969 41.679688 26.871094 43.160156 26.871094 C 44.152344 26.871094 44.949219 26.648438 45.546875 26.164062 C 46.113281 25.710938 46.570312 25.140625 46.9375 24.460938 L 46.996094 24.460938 L 47.109375 26.675781 "/>
<path style=" stroke:none;fill-rule:nonzero;fill:rgb(100%,100%,100%);fill-opacity:1;" d="M 54.082031 26.675781 L 57.035156 26.675781 L 57.035156 18.832031 C 57.035156 18.09375 57.125 17.464844 57.292969 16.925781 C 57.460938 16.386719 57.691406 15.957031 57.972656 15.617188 C 58.257812 15.304688 58.597656 15.050781 58.96875 14.878906 C 59.335938 14.738281 59.703125 14.652344 60.132812 14.652344 C 60.300781 14.652344 60.472656 14.652344 60.613281 14.679688 C 60.757812 14.707031 60.929688 14.738281 61.070312 14.765625 L 61.070312 11.921875 C 61.011719 11.921875 60.957031 11.921875 60.929688 11.894531 C 60.898438 11.894531 60.84375 11.894531 60.785156 11.894531 C 60.246094 11.894531 59.761719 11.949219 59.335938 12.09375 C 58.914062 12.234375 58.570312 12.433594 58.257812 12.6875 C 57.949219 12.945312 57.664062 13.230469 57.433594 13.542969 C 57.207031 13.855469 57.007812 14.199219 56.867188 14.566406 L 56.808594 14.566406 C 56.808594 14.453125 56.808594 14.285156 56.808594 14.054688 C 56.78125 13.828125 56.78125 13.570312 56.753906 13.316406 C 56.722656 13.058594 56.722656 12.832031 56.722656 12.605469 C 56.695312 12.378906 56.695312 12.207031 56.695312 12.09375 L 53.964844 12.09375 C 53.996094 12.519531 54.023438 12.972656 54.050781 13.429688 C 54.082031 13.914062 54.082031 14.394531 54.082031 14.878906 L 54.082031 26.675781 "/>
<path style=" stroke:none;fill-rule:nonzero;fill:rgb(100%,100%,100%);fill-opacity:1;" d="M 63.335938 26.675781 L 66.292969 26.675781 L 66.292969 12.09375 L 63.335938 12.09375 L 63.335938 26.675781 "/>
<path style=" stroke:none;fill-rule:nonzero;fill:rgb(100%,100%,100%);fill-opacity:1;" d="M 63.25 9.164062 L 66.378906 9.164062 L 66.378906 6.011719 L 63.25 6.011719 L 63.25 9.164062 "/>
<path style=" stroke:none;fill-rule:nonzero;fill:rgb(100%,100%,100%);fill-opacity:1;" d="M 79.566406 26.277344 L 79.398438 23.777344 C 79.082031 23.972656 78.65625 24.148438 78.171875 24.289062 C 77.691406 24.429688 77.179688 24.515625 76.695312 24.515625 C 75.414062 24.515625 74.449219 24.0625 73.765625 23.152344 C 73.054688 22.242188 72.714844 21.019531 72.714844 19.484375 C 72.714844 17.691406 73.054688 16.386719 73.738281 15.53125 C 74.421875 14.679688 75.386719 14.253906 76.640625 14.253906 C 77.179688 14.253906 77.660156 14.308594 78.085938 14.453125 C 78.515625 14.59375 78.882812 14.738281 79.253906 14.933594 L 79.398438 12.460938 C 79.027344 12.320312 78.597656 12.175781 78.058594 12.066406 C 77.519531 11.949219 76.976562 11.894531 76.4375 11.894531 C 75.328125 11.894531 74.335938 12.066406 73.480469 12.433594 C 72.628906 12.804688 71.917969 13.34375 71.351562 14 C 70.78125 14.679688 70.351562 15.476562 70.074219 16.414062 C 69.789062 17.351562 69.644531 18.347656 69.644531 19.457031 C 69.644531 20.480469 69.789062 21.449219 70.042969 22.355469 C 70.300781 23.265625 70.722656 24.0625 71.265625 24.71875 C 71.804688 25.367188 72.488281 25.90625 73.34375 26.277344 C 74.164062 26.675781 75.160156 26.871094 76.296875 26.871094 C 76.921875 26.871094 77.519531 26.816406 78.113281 26.699219 C 78.714844 26.5625 79.195312 26.417969 79.566406 26.277344 "/>
<path style=" stroke:none;fill-rule:nonzero;fill:rgb(100%,100%,100%);fill-opacity:1;" d="M 82.378906 26.675781 L 85.332031 26.675781 L 85.332031 18.035156 C 85.332031 16.898438 85.558594 15.984375 86.046875 15.335938 C 86.5 14.679688 87.183594 14.367188 88.117188 14.367188 C 88.886719 14.367188 89.425781 14.621094 89.796875 15.132812 C 90.140625 15.648438 90.308594 16.472656 90.308594 17.605469 L 90.308594 26.675781 L 93.265625 26.675781 L 93.265625 16.925781 C 93.265625 15.394531 92.925781 14.167969 92.242188 13.257812 C 91.558594 12.351562 90.480469 11.894531 89 11.894531 C 88.03125 11.894531 87.265625 12.121094 86.726562 12.546875 C 86.15625 13.003906 85.703125 13.484375 85.390625 14.027344 L 85.332031 14.027344 L 85.332031 5.355469 L 82.378906 5.355469 L 82.378906 26.675781 "/>
</g>
</svg>
