<?xml version="1.0" encoding="UTF-8" standalone="no"?>
<svg
   xmlns:dc="http://purl.org/dc/elements/1.1/"
   xmlns:cc="http://creativecommons.org/ns#"
   xmlns:rdf="http://www.w3.org/1999/02/22-rdf-syntax-ns#"
   xmlns:svg="http://www.w3.org/2000/svg"
   xmlns="http://www.w3.org/2000/svg"
   xmlns:sodipodi="http://sodipodi.sourceforge.net/DTD/sodipodi-0.dtd"
   xmlns:inkscape="http://www.inkscape.org/namespaces/inkscape"
   width="103pt"
   height="81pt"
   viewBox="0 0 103 81"
   version="1.1"
   id="svg6441"
   sodipodi:docname="440.svg"
   inkscape:version="1.0.2 (e86c870879, 2021-01-15, custom)">
  <metadata
     id="metadata6447">
    <rdf:RDF>
      <cc:Work
         rdf:about="">
        <dc:format>image/svg+xml</dc:format>
        <dc:type
           rdf:resource="http://purl.org/dc/dcmitype/StillImage" />
        <dc:title></dc:title>
      </cc:Work>
    </rdf:RDF>
  </metadata>
  <defs
     id="defs6445" />
  <sodipodi:namedview
     pagecolor="#ffffff"
     bordercolor="#666666"
     borderopacity="1"
     objecttolerance="10"
     gridtolerance="10"
     guidetolerance="10"
     inkscape:pageopacity="0"
     inkscape:pageshadow="2"
     inkscape:window-width="1920"
     inkscape:window-height="1017"
     id="namedview6443"
     showgrid="false"
     inkscape:zoom="7.8703704"
     inkscape:cx="68.666667"
     inkscape:cy="54"
     inkscape:window-x="3832"
     inkscape:window-y="-8"
     inkscape:window-maximized="1"
     inkscape:current-layer="svg6441" />
  <g
     id="surface1">
    <path
       style=" stroke:none;fill-rule:nonzero;fill:rgb(100%,100%,100%);fill-opacity:1;"
       d="M 0.480469 79.867188 L 102.527344 79.867188 L 102.527344 0.496094 L 0.480469 0.496094 Z M 0.480469 79.867188 "
       id="path6382" />
    <path
       style="fill:none;stroke-width:2.835;stroke-linecap:butt;stroke-linejoin:miter;stroke:rgb(13.729858%,12.159729%,12.548828%);stroke-opacity:1;stroke-miterlimit:4;"
       d="M 4.804688 11.328125 L 1025.234375 11.328125 L 1025.234375 805.039062 L 4.804688 805.039062 L 4.804688 11.328125 "
       transform="matrix(0.1,0,0,-0.1,0,81)"
       id="path6384" />
    <path
       style=" stroke:none;fill-rule:nonzero;fill:rgb(10.112%,40.585327%,73.280334%);fill-opacity:1;"
       d="M 1.617188 78.726562 L 101.386719 78.726562 L 101.386719 1.632812 L 1.617188 1.632812 Z M 1.617188 78.726562 "
       id="path6386" />
    <path
       style=" stroke:none;fill-rule:nonzero;fill:rgb(100%,100%,100%);fill-opacity:1;"
       d="M 41.777344 47.953125 C 40.804688 49.597656 39.441406 51.011719 37.796875 51.988281 L 48.671875 62.878906 L 48.671875 74.203125 L 54.335938 74.203125 L 54.335938 62.878906 L 76.429688 50.105469 L 78.890625 48.691406 L 80.09375 52.753906 C 80.214844 53.152344 80.800781 53.183594 80.953125 52.753906 L 84.214844 42.75 C 84.277344 42.472656 84.121094 42.226562 83.878906 42.164062 L 73.570312 39.980469 C 73.136719 39.886719 72.828125 40.410156 73.136719 40.71875 L 76.058594 43.796875 L 73.597656 45.210938 L 51.6875 57.859375 L 41.777344 47.953125 "
       id="path6388" />
    <path
       style=" stroke:none;fill-rule:nonzero;fill:rgb(100%,100%,100%);fill-opacity:1;"
       d="M 6.140625 16.964844 L 7.679688 16.964844 L 8.433594 14.46875 L 12.039062 14.46875 L 12.792969 16.964844 L 14.390625 16.964844 L 11.15625 7.011719 L 9.472656 7.011719 L 6.140625 16.964844 "
       id="path6390" />
    <path
       style=" stroke:none;fill-rule:nonzero;fill:rgb(100%,100%,100%);fill-opacity:1;"
       d="M 15.953125 16.964844 L 17.4375 16.964844 L 17.4375 13.027344 C 17.4375 12.65625 17.476562 12.34375 17.5625 12.074219 C 17.648438 11.800781 17.765625 11.585938 17.90625 11.417969 C 18.046875 11.257812 18.21875 11.128906 18.40625 11.046875 C 18.589844 10.972656 18.773438 10.929688 18.988281 10.929688 C 19.074219 10.929688 19.160156 10.929688 19.230469 10.945312 C 19.300781 10.960938 19.386719 10.972656 19.457031 10.988281 L 19.457031 9.5625 C 19.429688 9.5625 19.402344 9.5625 19.386719 9.546875 C 19.375 9.546875 19.34375 9.546875 19.316406 9.546875 C 19.046875 9.546875 18.804688 9.578125 18.589844 9.648438 C 18.375 9.71875 18.207031 9.820312 18.046875 9.949219 C 17.890625 10.074219 17.75 10.21875 17.636719 10.375 C 17.519531 10.53125 17.421875 10.703125 17.347656 10.890625 L 17.320312 10.890625 C 17.320312 10.832031 17.320312 10.746094 17.320312 10.632812 C 17.308594 10.519531 17.308594 10.390625 17.292969 10.261719 C 17.277344 10.132812 17.277344 10.019531 17.277344 9.902344 C 17.265625 9.789062 17.265625 9.703125 17.265625 9.648438 L 15.898438 9.648438 C 15.910156 9.863281 15.925781 10.089844 15.9375 10.320312 C 15.953125 10.5625 15.953125 10.800781 15.953125 11.046875 L 15.953125 16.964844 "
       id="path6392" />
    <path
       style=" stroke:none;fill-rule:nonzero;fill:rgb(100%,100%,100%);fill-opacity:1;"
       d="M 21.242188 16.179688 C 21.511719 16.480469 21.839844 16.707031 22.222656 16.851562 C 22.59375 16.988281 22.992188 17.0625 23.421875 17.0625 C 23.851562 17.0625 24.25 16.988281 24.632812 16.851562 C 25.003906 16.707031 25.332031 16.480469 25.601562 16.179688 C 25.871094 15.878906 26.101562 15.496094 26.257812 15.023438 C 26.414062 14.554688 26.5 13.96875 26.5 13.296875 C 26.5 12.644531 26.414062 12.074219 26.257812 11.601562 C 26.101562 11.128906 25.871094 10.730469 25.601562 10.433594 C 25.332031 10.132812 25.003906 9.902344 24.632812 9.761719 C 24.25 9.617188 23.851562 9.546875 23.421875 9.546875 C 22.992188 9.546875 22.59375 9.617188 22.222656 9.761719 C 21.839844 9.902344 21.511719 10.132812 21.242188 10.433594 C 20.972656 10.730469 20.742188 11.128906 20.585938 11.601562 C 20.429688 12.074219 20.34375 12.644531 20.34375 13.296875 C 20.34375 13.96875 20.429688 14.554688 20.585938 15.023438 C 20.742188 15.496094 20.972656 15.878906 21.242188 16.179688 "
       id="path6394" />
    <path
       style=" stroke:none;fill-rule:nonzero;fill:rgb(100%,100%,100%);fill-opacity:1;"
       d="M 28.265625 16.679688 C 28.492188 16.777344 28.78125 16.878906 29.136719 16.949219 C 29.476562 17.019531 29.863281 17.0625 30.273438 17.0625 C 31.101562 17.0625 31.726562 16.863281 32.171875 16.449219 C 32.597656 16.035156 32.8125 15.507812 32.8125 14.851562 C 32.8125 14.410156 32.683594 14.054688 32.441406 13.78125 C 32.183594 13.511719 31.84375 13.242188 31.402344 13 L 30.761719 12.644531 C 30.433594 12.457031 30.191406 12.300781 30.003906 12.144531 C 29.820312 12 29.734375 11.800781 29.734375 11.558594 C 29.734375 11.300781 29.820312 11.089844 30.003906 10.929688 C 30.191406 10.773438 30.460938 10.703125 30.832031 10.703125 C 31.132812 10.703125 31.414062 10.730469 31.65625 10.789062 C 31.902344 10.859375 32.128906 10.929688 32.328125 11.015625 L 32.398438 9.820312 C 32.242188 9.761719 32.027344 9.703125 31.742188 9.632812 C 31.445312 9.578125 31.101562 9.546875 30.714844 9.546875 C 30.347656 9.546875 30.019531 9.605469 29.71875 9.71875 C 29.417969 9.832031 29.164062 9.992188 28.949219 10.175781 C 28.734375 10.375 28.566406 10.601562 28.453125 10.84375 C 28.335938 11.101562 28.28125 11.371094 28.28125 11.644531 C 28.28125 11.902344 28.324219 12.128906 28.394531 12.328125 C 28.464844 12.527344 28.566406 12.699219 28.695312 12.855469 C 28.820312 13.011719 28.964844 13.140625 29.148438 13.257812 C 29.335938 13.382812 29.535156 13.5 29.761719 13.613281 L 30.53125 13.996094 C 30.859375 14.15625 31.085938 14.324219 31.214844 14.496094 C 31.332031 14.667969 31.386719 14.851562 31.386719 15.039062 C 31.386719 15.324219 31.273438 15.535156 31.042969 15.679688 C 30.816406 15.835938 30.503906 15.90625 30.117188 15.90625 C 29.761719 15.90625 29.417969 15.851562 29.121094 15.722656 C 28.820312 15.609375 28.566406 15.496094 28.351562 15.394531 L 28.265625 16.679688 "
       id="path6396" />
    <path
       style=" stroke:none;fill-rule:nonzero;fill:rgb(100%,100%,100%);fill-opacity:1;"
       d="M 38.917969 16.964844 L 40.257812 16.964844 C 40.242188 16.835938 40.214844 16.648438 40.203125 16.433594 C 40.1875 16.222656 40.171875 15.992188 40.171875 15.75 L 40.171875 12.257812 C 40.171875 11.773438 40.128906 11.371094 40.03125 11.058594 C 39.929688 10.746094 39.773438 10.488281 39.589844 10.277344 C 39.433594 10.089844 39.175781 9.917969 38.832031 9.761719 C 38.492188 9.617188 38.046875 9.546875 37.492188 9.546875 C 37.023438 9.546875 36.609375 9.605469 36.253906 9.71875 C 35.898438 9.832031 35.570312 9.960938 35.296875 10.117188 L 35.414062 11.386719 C 35.597656 11.203125 35.867188 11.03125 36.226562 10.875 C 36.566406 10.730469 36.9375 10.660156 37.351562 10.660156 C 37.878906 10.660156 38.25 10.800781 38.476562 11.089844 C 38.589844 11.230469 38.675781 11.386719 38.71875 11.558594 C 38.761719 11.746094 38.777344 11.945312 38.777344 12.171875 L 38.777344 12.472656 L 38.25 12.472656 C 37.066406 12.472656 36.15625 12.671875 35.542969 13.054688 C 34.929688 13.457031 34.617188 14.082031 34.617188 14.9375 C 34.617188 15.28125 34.671875 15.582031 34.785156 15.851562 C 34.902344 16.121094 35.054688 16.335938 35.257812 16.523438 C 35.441406 16.707031 35.667969 16.835938 35.925781 16.921875 C 36.183594 17.019531 36.453125 17.0625 36.753906 17.0625 C 37.292969 17.0625 37.722656 16.949219 38.046875 16.722656 C 38.363281 16.507812 38.617188 16.25 38.804688 15.964844 L 38.832031 15.964844 C 38.832031 16.007812 38.832031 16.082031 38.847656 16.179688 C 38.847656 16.28125 38.847656 16.378906 38.863281 16.480469 C 38.875 16.578125 38.875 16.679688 38.890625 16.765625 C 38.90625 16.863281 38.90625 16.921875 38.917969 16.964844 "
       id="path6398" />
    <path
       style=" stroke:none;fill-rule:nonzero;fill:rgb(100%,100%,100%);fill-opacity:1;"
       d="M 68.773438 33.121094 L 70.167969 33.121094 C 70.15625 32.90625 70.140625 32.679688 70.125 32.4375 C 70.113281 32.210938 70.113281 31.964844 70.113281 31.722656 L 70.113281 25.804688 L 68.628906 25.804688 L 68.628906 30.097656 C 68.628906 30.667969 68.515625 31.125 68.300781 31.464844 C 68.089844 31.808594 67.730469 31.980469 67.261719 31.980469 C 66.878906 31.980469 66.605469 31.851562 66.421875 31.59375 C 66.234375 31.339844 66.136719 30.925781 66.136719 30.355469 L 66.136719 25.804688 L 64.65625 25.804688 L 64.65625 30.695312 C 64.65625 31.464844 64.824219 32.082031 65.167969 32.535156 C 65.511719 32.992188 66.050781 33.21875 66.789062 33.21875 C 67.289062 33.21875 67.691406 33.105469 67.988281 32.863281 C 68.273438 32.636719 68.503906 32.351562 68.6875 32.011719 L 68.714844 32.011719 L 68.773438 33.121094 "
       id="path6400" />
    <path
       style=" stroke:none;fill-rule:nonzero;fill:rgb(100%,100%,100%);fill-opacity:1;"
       d="M 72.65625 33.121094 L 74.136719 33.121094 L 74.136719 22.425781 L 72.65625 22.425781 L 72.65625 33.121094 "
       id="path6402" />
    <path
       style=" stroke:none;fill-rule:nonzero;fill:rgb(100%,100%,100%);fill-opacity:1;"
       d="M 76.609375 33.121094 L 78.089844 33.121094 L 78.089844 25.804688 L 76.609375 25.804688 L 76.609375 33.121094 "
       id="path6404" />
    <path
       style=" stroke:none;fill-rule:nonzero;fill:rgb(100%,100%,100%);fill-opacity:1;"
       d="M 76.566406 24.335938 L 78.132812 24.335938 L 78.132812 22.753906 L 76.566406 22.753906 L 76.566406 24.335938 "
       id="path6406" />
    <path
       style=" stroke:none;fill-rule:nonzero;fill:rgb(100%,100%,100%);fill-opacity:1;"
       d="M 81.644531 29.882812 L 85.820312 29.882812 L 85.820312 29.386719 C 85.820312 28.742188 85.75 28.203125 85.621094 27.730469 C 85.492188 27.261719 85.308594 26.875 85.066406 26.578125 C 84.824219 26.277344 84.523438 26.0625 84.195312 25.917969 C 83.855469 25.777344 83.484375 25.707031 83.085938 25.707031 C 82.628906 25.707031 82.214844 25.792969 81.859375 25.976562 C 81.488281 26.164062 81.175781 26.433594 80.933594 26.761719 C 80.691406 27.101562 80.492188 27.503906 80.363281 27.972656 C 80.234375 28.445312 80.164062 28.957031 80.164062 29.511719 C 80.164062 30.039062 80.234375 30.539062 80.363281 30.996094 C 80.492188 31.453125 80.675781 31.839844 80.949219 32.164062 C 81.203125 32.492188 81.53125 32.75 81.929688 32.933594 C 82.332031 33.132812 82.800781 33.21875 83.328125 33.21875 C 83.785156 33.21875 84.195312 33.175781 84.550781 33.078125 C 84.90625 32.980469 85.195312 32.878906 85.4375 32.78125 L 85.363281 31.539062 C 85.179688 31.667969 84.9375 31.796875 84.652344 31.921875 C 84.351562 32.050781 83.996094 32.125 83.570312 32.125 C 82.886719 32.125 82.402344 31.9375 82.101562 31.554688 C 81.800781 31.179688 81.644531 30.625 81.644531 29.882812 "
       id="path6408" />
    <path
       style=" stroke:none;fill-rule:nonzero;fill:rgb(100%,100%,100%);fill-opacity:1;"
       d="M 87.992188 33.121094 L 89.472656 33.121094 L 89.472656 29.183594 C 89.472656 28.816406 89.515625 28.5 89.601562 28.230469 C 89.6875 27.957031 89.800781 27.746094 89.945312 27.574219 C 90.085938 27.417969 90.257812 27.289062 90.445312 27.203125 C 90.628906 27.132812 90.8125 27.089844 91.027344 27.089844 C 91.113281 27.089844 91.199219 27.089844 91.269531 27.101562 C 91.34375 27.117188 91.425781 27.132812 91.496094 27.148438 L 91.496094 25.71875 C 91.46875 25.71875 91.441406 25.71875 91.425781 25.707031 C 91.410156 25.707031 91.382812 25.707031 91.355469 25.707031 C 91.085938 25.707031 90.84375 25.734375 90.628906 25.804688 C 90.414062 25.878906 90.242188 25.976562 90.085938 26.105469 C 89.929688 26.234375 89.789062 26.375 89.671875 26.53125 C 89.558594 26.691406 89.460938 26.859375 89.386719 27.046875 L 89.359375 27.046875 C 89.359375 26.988281 89.359375 26.902344 89.359375 26.789062 C 89.347656 26.675781 89.347656 26.546875 89.332031 26.417969 C 89.316406 26.289062 89.316406 26.175781 89.316406 26.0625 C 89.300781 25.949219 89.300781 25.863281 89.300781 25.804688 L 87.933594 25.804688 C 87.949219 26.019531 87.964844 26.246094 87.976562 26.476562 C 87.992188 26.71875 87.992188 26.960938 87.992188 27.203125 L 87.992188 33.121094 "
       id="path6410" />
    <path
       style=" stroke:none;fill-rule:nonzero;fill:rgb(100%,100%,100%);fill-opacity:1;"
       d="M 58.886719 33.066406 C 59.042969 33.105469 59.242188 33.148438 59.457031 33.191406 C 59.667969 33.21875 59.867188 33.234375 60.054688 33.234375 C 60.765625 33.234375 61.335938 32.992188 61.75 32.492188 C 62.164062 32.011719 62.378906 31.296875 62.378906 30.355469 L 62.378906 23.167969 L 60.839844 23.167969 L 60.839844 30.3125 C 60.839844 30.769531 60.753906 31.140625 60.582031 31.410156 C 60.394531 31.679688 60.097656 31.824219 59.65625 31.824219 C 59.496094 31.824219 59.355469 31.808594 59.226562 31.765625 C 59.097656 31.738281 58.984375 31.710938 58.886719 31.667969 L 58.886719 33.066406 "
       id="path6412" />
    <path
       style=" stroke:none;fill-rule:nonzero;fill:rgb(100%,100%,100%);fill-opacity:1;"
       d="M 26.214844 32.40625 L 22.605469 28.808594 L 20.605469 26.777344 L 24.207031 24.59375 C 24.574219 24.347656 24.453125 23.761719 23.992188 23.761719 L 13.496094 23.207031 C 13.21875 23.175781 13.003906 23.390625 13.003906 23.667969 L 13.558594 34.195312 C 13.589844 34.625 14.171875 34.78125 14.390625 34.378906 L 16.605469 30.808594 L 22.238281 36.441406 C 23.210938 34.789062 24.566406 33.386719 26.214844 32.40625 "
       id="path6414" />
    <path
       style=" stroke:none;fill-rule:nonzero;fill:rgb(10.112%,40.585327%,73.280334%);fill-opacity:1;"
       d="M 22.222656 15.195312 C 22.097656 14.953125 22.011719 14.679688 21.96875 14.351562 C 21.910156 14.027344 21.882812 13.683594 21.882812 13.296875 C 21.882812 12.914062 21.910156 12.570312 21.96875 12.242188 C 22.011719 11.914062 22.097656 11.644531 22.222656 11.402344 C 22.351562 11.171875 22.511719 10.988281 22.710938 10.859375 C 22.894531 10.730469 23.136719 10.660156 23.421875 10.660156 C 23.707031 10.660156 23.949219 10.730469 24.148438 10.859375 C 24.335938 10.988281 24.492188 11.171875 24.621094 11.402344 C 24.75 11.644531 24.832031 11.914062 24.890625 12.242188 C 24.933594 12.570312 24.960938 12.914062 24.960938 13.296875 C 24.960938 13.683594 24.933594 14.027344 24.890625 14.351562 C 24.832031 14.679688 24.75 14.953125 24.621094 15.195312 C 24.492188 15.4375 24.335938 15.625 24.148438 15.75 C 23.949219 15.878906 23.707031 15.953125 23.421875 15.953125 C 23.136719 15.953125 22.894531 15.878906 22.710938 15.75 C 22.511719 15.625 22.351562 15.4375 22.222656 15.195312 "
       id="path6416" />
    <path
       style=" stroke:none;fill-rule:nonzero;fill:rgb(10.112%,40.585327%,73.280334%);fill-opacity:1;"
       d="M 38.777344 13.382812 L 38.777344 14.039062 C 38.777344 14.625 38.648438 15.09375 38.390625 15.453125 C 38.121094 15.824219 37.734375 16.007812 37.210938 16.007812 C 36.824219 16.007812 36.539062 15.894531 36.339844 15.679688 C 36.140625 15.464844 36.039062 15.167969 36.039062 14.808594 C 36.039062 14.324219 36.226562 13.96875 36.609375 13.726562 C 36.996094 13.484375 37.550781 13.371094 38.277344 13.371094 C 38.363281 13.371094 38.449219 13.371094 38.546875 13.371094 C 38.648438 13.371094 38.734375 13.371094 38.777344 13.382812 "
       id="path6418" />
    <path
       style=" stroke:none;fill-rule:nonzero;fill:rgb(10.112%,40.585327%,73.280334%);fill-opacity:1;"
       d="M 8.804688 13.226562 L 10.273438 8.421875 L 10.300781 8.421875 L 11.683594 13.226562 L 8.804688 13.226562 "
       id="path6420" />
    <path
       style=" stroke:none;fill-rule:nonzero;fill:rgb(10.112%,40.585327%,73.280334%);fill-opacity:1;"
       d="M 81.644531 28.871094 C 81.660156 28.203125 81.789062 27.671875 82.03125 27.300781 C 82.273438 26.945312 82.613281 26.761719 83.042969 26.761719 C 83.925781 26.761719 84.367188 27.460938 84.367188 28.871094 L 81.644531 28.871094 "
       id="path6422" />
    <path
       style=" stroke:none;fill-rule:nonzero;fill:rgb(93.527222%,17.272949%,18.882751%);fill-opacity:1;"
       d="M 32.003906 30.824219 C 38.28125 30.824219 43.371094 35.914062 43.371094 42.199219 C 43.371094 48.480469 38.28125 53.574219 32.003906 53.574219 C 25.726562 53.574219 20.636719 48.480469 20.636719 42.199219 C 20.636719 35.914062 25.726562 30.824219 32.003906 30.824219 "
       id="path6424" />
    <path
       style=" stroke:none;fill-rule:nonzero;fill:rgb(100%,100%,100%);fill-opacity:1;"
       d="M 32.003906 34.613281 C 33.035156 34.613281 34.019531 34.8125 34.953125 35.210938 C 35.859375 35.59375 36.664062 36.136719 37.363281 36.835938 C 38.0625 37.535156 38.605469 38.339844 38.988281 39.246094 C 39.386719 40.183594 39.582031 41.167969 39.582031 42.199219 C 39.582031 43.230469 39.386719 44.210938 38.988281 45.148438 C 38.605469 46.054688 38.0625 46.859375 37.363281 47.5625 C 36.664062 48.261719 35.859375 48.804688 34.953125 49.1875 C 34.019531 49.585938 33.035156 49.78125 32.003906 49.78125 C 30.976562 49.78125 29.992188 49.585938 29.054688 49.1875 C 28.148438 48.804688 27.347656 48.261719 26.644531 47.5625 C 25.945312 46.859375 25.402344 46.054688 25.019531 45.148438 C 24.625 44.210938 24.425781 43.230469 24.425781 42.199219 C 24.425781 41.167969 24.625 40.183594 25.019531 39.246094 C 25.402344 38.339844 25.945312 37.535156 26.644531 36.835938 C 27.347656 36.136719 28.148438 35.59375 29.054688 35.210938 C 29.992188 34.8125 30.976562 34.613281 32.003906 34.613281 "
       id="path6426" />
    <path
       style=" stroke:none;fill-rule:nonzero;fill:rgb(13.729858%,12.159729%,12.548828%);fill-opacity:1;"
       d="M 24.902344 39.542969 C 24.585938 40.390625 24.425781 41.273438 24.425781 42.199219 C 24.425781 43.121094 24.585938 44.003906 24.902344 44.851562 L 27.269531 42.1875 L 24.902344 39.542969 "
       id="path6428" />
    <path
       style=" stroke:none;fill-rule:nonzero;fill:rgb(13.729858%,12.159729%,12.548828%);fill-opacity:1;"
       d="M 39.109375 44.851562 C 39.425781 44.003906 39.585938 43.121094 39.585938 42.199219 C 39.585938 41.273438 39.425781 40.390625 39.109375 39.542969 L 36.742188 42.1875 L 39.109375 44.851562 "
       id="path6430" />
    <path
       style=" stroke:none;fill-rule:nonzero;fill:rgb(13.729858%,12.159729%,12.548828%);fill-opacity:1;"
       d="M 27.265625 44.480469 L 29.867188 44.480469 L 29.867188 43.871094 L 28.078125 43.871094 L 28.257812 43.679688 C 28.46875 43.445312 28.671875 43.207031 28.863281 42.960938 C 29.046875 42.722656 29.214844 42.472656 29.355469 42.234375 C 29.5 41.996094 29.609375 41.761719 29.691406 41.53125 C 29.773438 41.304688 29.816406 41.085938 29.816406 40.878906 C 29.816406 40.710938 29.785156 40.550781 29.738281 40.402344 C 29.683594 40.25 29.601562 40.121094 29.5 40.003906 C 29.390625 39.894531 29.253906 39.804688 29.097656 39.734375 C 28.929688 39.675781 28.738281 39.640625 28.523438 39.640625 C 28.296875 39.640625 28.085938 39.667969 27.898438 39.714844 C 27.707031 39.769531 27.53125 39.839844 27.375 39.921875 L 27.449219 40.621094 C 27.558594 40.53125 27.695312 40.441406 27.851562 40.367188 C 28.011719 40.289062 28.1875 40.25 28.386719 40.25 C 28.597656 40.25 28.769531 40.320312 28.882812 40.464844 C 29 40.605469 29.0625 40.785156 29.0625 41.011719 C 29.0625 41.167969 29.027344 41.339844 28.960938 41.523438 C 28.882812 41.707031 28.789062 41.90625 28.65625 42.105469 C 28.53125 42.3125 28.378906 42.523438 28.207031 42.746094 C 28.03125 42.972656 27.839844 43.207031 27.625 43.445312 L 27.265625 43.863281 L 27.265625 44.480469 "
       id="path6432" />
    <path
       style=" stroke:none;fill-rule:nonzero;fill:rgb(13.729858%,12.159729%,12.548828%);fill-opacity:1;"
       d="M 30.183594 45.121094 L 30.625 45.121094 L 30.988281 43.890625 L 30.445312 43.890625 L 30.183594 45.121094 "
       id="path6434" />
    <path
       style=" stroke:none;fill-rule:nonzero;fill:rgb(13.729858%,12.159729%,12.548828%);fill-opacity:1;"
       d="M 31.523438 44.402344 C 31.628906 44.4375 31.753906 44.472656 31.890625 44.5 C 32.03125 44.53125 32.171875 44.546875 32.328125 44.546875 C 32.507812 44.546875 32.671875 44.519531 32.820312 44.472656 C 32.96875 44.421875 33.089844 44.351562 33.199219 44.265625 C 33.308594 44.171875 33.390625 44.058594 33.445312 43.929688 C 33.503906 43.800781 33.53125 43.65625 33.53125 43.492188 C 33.53125 43.359375 33.511719 43.242188 33.476562 43.140625 C 33.433594 43.035156 33.382812 42.957031 33.316406 42.882812 C 33.25 42.8125 33.175781 42.753906 33.085938 42.714844 C 33 42.671875 32.90625 42.640625 32.808594 42.625 L 32.808594 42.617188 C 32.886719 42.601562 32.964844 42.574219 33.046875 42.539062 C 33.121094 42.503906 33.199219 42.453125 33.265625 42.386719 C 33.332031 42.320312 33.382812 42.234375 33.425781 42.132812 C 33.464844 42.035156 33.488281 41.917969 33.488281 41.773438 C 33.488281 41.628906 33.460938 41.496094 33.410156 41.382812 C 33.351562 41.269531 33.28125 41.179688 33.191406 41.101562 C 33.097656 41.023438 32.988281 40.96875 32.859375 40.933594 C 32.730469 40.894531 32.597656 40.875 32.449219 40.875 C 32.277344 40.875 32.121094 40.890625 31.988281 40.917969 C 31.851562 40.949219 31.734375 40.984375 31.628906 41.023438 L 31.667969 41.511719 C 31.773438 41.457031 31.890625 41.410156 32.011719 41.371094 C 32.128906 41.339844 32.242188 41.324219 32.339844 41.324219 C 32.507812 41.324219 32.652344 41.367188 32.769531 41.460938 C 32.886719 41.554688 32.945312 41.6875 32.945312 41.855469 C 32.945312 41.964844 32.921875 42.050781 32.882812 42.121094 C 32.839844 42.199219 32.785156 42.257812 32.710938 42.308594 C 32.636719 42.351562 32.546875 42.390625 32.445312 42.410156 C 32.34375 42.433594 32.230469 42.445312 32.113281 42.445312 L 31.964844 42.445312 L 31.964844 42.878906 C 31.992188 42.878906 32.035156 42.878906 32.085938 42.871094 C 32.132812 42.871094 32.195312 42.871094 32.265625 42.871094 C 32.480469 42.871094 32.652344 42.921875 32.773438 43.023438 C 32.898438 43.117188 32.957031 43.261719 32.957031 43.441406 C 32.957031 43.554688 32.9375 43.652344 32.902344 43.734375 C 32.867188 43.816406 32.816406 43.882812 32.753906 43.933594 C 32.6875 43.992188 32.613281 44.03125 32.53125 44.058594 C 32.445312 44.082031 32.359375 44.097656 32.261719 44.097656 C 32.121094 44.097656 31.992188 44.078125 31.875 44.035156 C 31.757812 44.003906 31.652344 43.957031 31.558594 43.910156 L 31.523438 44.402344 "
       id="path6436" />
    <path
       style=" stroke:none;fill-rule:nonzero;fill:rgb(13.729858%,12.159729%,12.548828%);fill-opacity:1;"
       d="M 34.003906 41.875 L 34.429688 41.875 L 34.429688 40.585938 C 34.429688 40.429688 34.464844 40.3125 34.523438 40.222656 C 34.585938 40.140625 34.679688 40.097656 34.800781 40.097656 C 34.996094 40.097656 35.09375 40.230469 35.09375 40.488281 L 35.09375 41.875 L 35.523438 41.875 L 35.523438 40.585938 C 35.523438 40.429688 35.554688 40.3125 35.617188 40.222656 C 35.675781 40.140625 35.773438 40.097656 35.890625 40.097656 C 36.085938 40.097656 36.183594 40.230469 36.183594 40.488281 L 36.183594 41.875 L 36.613281 41.875 L 36.613281 40.496094 C 36.613281 40.25 36.5625 40.058594 36.464844 39.933594 C 36.363281 39.804688 36.210938 39.738281 36.007812 39.738281 C 35.871094 39.738281 35.757812 39.773438 35.671875 39.839844 C 35.585938 39.90625 35.523438 39.984375 35.46875 40.074219 C 35.449219 40.03125 35.421875 39.988281 35.394531 39.949219 C 35.363281 39.910156 35.328125 39.875 35.289062 39.84375 C 35.246094 39.8125 35.199219 39.789062 35.144531 39.769531 C 35.089844 39.75 35.027344 39.738281 34.957031 39.738281 C 34.824219 39.738281 34.71875 39.773438 34.632812 39.839844 C 34.546875 39.90625 34.476562 39.988281 34.429688 40.09375 L 34.421875 40.09375 C 34.421875 40.082031 34.421875 40.054688 34.421875 40.023438 C 34.417969 39.996094 34.417969 39.960938 34.417969 39.929688 C 34.414062 39.894531 34.414062 39.863281 34.414062 39.835938 C 34.410156 39.804688 34.410156 39.78125 34.410156 39.769531 L 33.988281 39.769531 C 33.992188 39.828125 33.996094 39.886719 34 39.953125 C 34.003906 40.019531 34.003906 40.089844 34.003906 40.167969 L 34.003906 41.875 "
       id="path6438" />
  </g>
</svg>
