<?xml version="1.0" encoding="UTF-8"?>
<svg xmlns="http://www.w3.org/2000/svg" xmlns:xlink="http://www.w3.org/1999/xlink" width="185pt" height="36pt" viewBox="0 0 185 36" version="1.1">
<g id="surface1">
<path style=" stroke:none;fill-rule:nonzero;fill:rgb(13.729858%,12.159729%,12.548828%);fill-opacity:1;" d="M 153.464844 35.890625 L 184.644531 18.183594 L 153.464844 0.457031 L 0.394531 0.457031 L 0.394531 35.890625 L 153.464844 35.890625 "/>
<path style=" stroke:none;fill-rule:nonzero;fill:rgb(82.751465%,82.437134%,82.514954%);fill-opacity:1;" d="M 152.898438 33.761719 L 180.339844 18.183594 L 152.898438 2.582031 L 2.515625 2.582031 L 2.515625 33.761719 L 152.898438 33.761719 "/>
<path style=" stroke:none;fill-rule:nonzero;fill:rgb(13.729858%,12.159729%,12.548828%);fill-opacity:1;" d="M 153.46875 11.082031 C 157.378906 11.082031 160.558594 14.261719 160.558594 18.171875 C 160.558594 22.082031 157.378906 25.261719 153.46875 25.261719 C 149.558594 25.261719 146.378906 22.082031 146.378906 18.171875 C 146.378906 14.261719 149.558594 11.082031 153.46875 11.082031 "/>
<path style=" stroke:none;fill-rule:nonzero;fill:rgb(13.729858%,12.159729%,12.548828%);fill-opacity:1;" d="M 11.414062 27.386719 L 14.257812 27.386719 L 14.257812 10.5625 L 14.3125 10.5625 L 19.402344 27.386719 L 21.589844 27.386719 L 26.90625 10.5625 L 26.964844 10.5625 L 26.964844 27.386719 L 29.804688 27.386719 L 29.804688 7.546875 L 25.285156 7.546875 L 20.652344 22.839844 L 20.597656 22.839844 L 16.074219 7.546875 L 11.414062 7.546875 L 11.414062 27.386719 "/>
<path style=" stroke:none;fill-rule:nonzero;fill:rgb(13.729858%,12.159729%,12.548828%);fill-opacity:1;" d="M 36.300781 11.015625 L 38.320312 11.015625 L 41.21875 6.894531 L 38.179688 6.894531 L 36.300781 11.015625 "/>
<path style=" stroke:none;fill-rule:nonzero;fill:rgb(13.729858%,12.159729%,12.548828%);fill-opacity:1;" d="M 35.191406 20.9375 L 43.519531 20.9375 L 43.519531 19.941406 C 43.519531 18.660156 43.378906 17.582031 43.125 16.644531 C 42.871094 15.707031 42.5 14.9375 42.015625 14.339844 C 41.53125 13.742188 40.9375 13.320312 40.28125 13.035156 C 39.597656 12.75 38.859375 12.605469 38.0625 12.605469 C 37.152344 12.605469 36.328125 12.777344 35.617188 13.144531 C 34.882812 13.515625 34.253906 14.054688 33.773438 14.710938 C 33.285156 15.394531 32.890625 16.1875 32.636719 17.128906 C 32.378906 18.0625 32.234375 19.089844 32.234375 20.199219 C 32.234375 21.25 32.378906 22.242188 32.636719 23.152344 C 32.890625 24.066406 33.257812 24.832031 33.800781 25.484375 C 34.3125 26.136719 34.964844 26.648438 35.757812 27.019531 C 36.554688 27.414062 37.496094 27.585938 38.546875 27.585938 C 39.457031 27.585938 40.28125 27.5 40.988281 27.304688 C 41.703125 27.105469 42.273438 26.90625 42.753906 26.707031 L 42.609375 24.234375 C 42.242188 24.488281 41.761719 24.746094 41.191406 25 C 40.59375 25.257812 39.882812 25.402344 39.027344 25.402344 C 37.664062 25.402344 36.699219 25.03125 36.101562 24.261719 C 35.503906 23.523438 35.191406 22.414062 35.191406 20.9375 "/>
<path style=" stroke:none;fill-rule:nonzero;fill:rgb(13.729858%,12.159729%,12.548828%);fill-opacity:1;" d="M 52.984375 27.160156 L 52.984375 24.945312 C 52.789062 25.03125 52.589844 25.117188 52.359375 25.171875 C 52.132812 25.257812 51.875 25.285156 51.5625 25.285156 C 51.023438 25.285156 50.65625 25.117188 50.402344 24.800781 C 50.144531 24.488281 50.03125 23.949219 50.03125 23.152344 L 50.03125 15.078125 L 52.984375 15.078125 L 52.984375 12.808594 L 50.03125 12.808594 L 50.03125 8.941406 L 47.074219 9.820312 L 47.074219 12.808594 L 44.742188 12.808594 L 44.742188 15.078125 L 47.074219 15.078125 L 47.074219 23.75 C 47.074219 25.144531 47.386719 26.136719 48.039062 26.707031 C 48.695312 27.304688 49.605469 27.585938 50.796875 27.585938 C 51.226562 27.585938 51.648438 27.554688 52.019531 27.46875 C 52.386719 27.363281 52.730469 27.277344 52.984375 27.160156 "/>
<path style=" stroke:none;fill-rule:nonzero;fill:rgb(13.729858%,12.159729%,12.548828%);fill-opacity:1;" d="M 64.316406 27.386719 L 66.984375 27.386719 C 66.957031 27.132812 66.902344 26.765625 66.875 26.335938 C 66.84375 25.910156 66.816406 25.457031 66.816406 24.972656 L 66.816406 18.011719 C 66.816406 17.039062 66.730469 16.246094 66.53125 15.617188 C 66.335938 14.996094 66.019531 14.480469 65.652344 14.054688 C 65.335938 13.6875 64.824219 13.347656 64.144531 13.035156 C 63.460938 12.75 62.578125 12.605469 61.46875 12.605469 C 60.535156 12.605469 59.710938 12.722656 58.996094 12.949219 C 58.289062 13.175781 57.632812 13.429688 57.09375 13.742188 L 57.320312 16.273438 C 57.691406 15.902344 58.230469 15.566406 58.945312 15.253906 C 59.625 14.96875 60.363281 14.824219 61.1875 14.824219 C 62.242188 14.824219 62.980469 15.109375 63.433594 15.675781 C 63.660156 15.960938 63.832031 16.273438 63.914062 16.617188 C 64 16.984375 64.03125 17.382812 64.03125 17.835938 L 64.03125 18.433594 L 62.980469 18.433594 C 60.617188 18.433594 58.800781 18.835938 57.574219 19.601562 C 56.355469 20.398438 55.726562 21.644531 55.726562 23.351562 C 55.726562 24.035156 55.84375 24.632812 56.070312 25.171875 C 56.296875 25.714844 56.609375 26.136719 57.011719 26.507812 C 57.378906 26.875 57.835938 27.132812 58.34375 27.304688 C 58.855469 27.5 59.398438 27.585938 59.996094 27.585938 C 61.074219 27.585938 61.925781 27.363281 62.578125 26.90625 C 63.207031 26.480469 63.71875 25.96875 64.089844 25.402344 L 64.144531 25.402344 C 64.144531 25.484375 64.144531 25.628906 64.171875 25.824219 C 64.171875 26.023438 64.171875 26.226562 64.199219 26.421875 C 64.226562 26.621094 64.226562 26.824219 64.257812 26.992188 C 64.285156 27.1875 64.285156 27.304688 64.316406 27.386719 "/>
<path style=" stroke:none;fill-rule:nonzero;fill:rgb(13.729858%,12.159729%,12.548828%);fill-opacity:1;" d="M 78.808594 27.386719 L 81.59375 27.386719 C 81.566406 26.960938 81.535156 26.507812 81.507812 26.023438 C 81.484375 25.570312 81.484375 25.085938 81.484375 24.605469 L 81.484375 12.808594 L 78.523438 12.808594 L 78.523438 21.359375 C 78.523438 22.5 78.296875 23.410156 77.871094 24.089844 C 77.445312 24.773438 76.734375 25.117188 75.792969 25.117188 C 75.027344 25.117188 74.488281 24.859375 74.121094 24.347656 C 73.753906 23.835938 73.550781 23.011719 73.550781 21.875 L 73.550781 12.808594 L 70.597656 12.808594 L 70.597656 22.554688 C 70.597656 24.089844 70.9375 25.3125 71.617188 26.226562 C 72.304688 27.132812 73.382812 27.585938 74.859375 27.585938 C 75.851562 27.585938 76.648438 27.363281 77.246094 26.875 C 77.816406 26.421875 78.269531 25.851562 78.640625 25.171875 L 78.695312 25.171875 L 78.808594 27.386719 "/>
<path style=" stroke:none;fill-rule:nonzero;fill:rgb(13.729858%,12.159729%,12.548828%);fill-opacity:1;" d="M 84.941406 27.386719 L 88.128906 27.386719 L 90.996094 21.675781 L 93.953125 27.386719 L 97.25 27.386719 L 92.84375 19.570312 L 96.910156 12.808594 L 93.785156 12.808594 L 91.171875 17.78125 L 88.640625 12.808594 L 85.34375 12.808594 L 89.292969 19.542969 L 84.941406 27.386719 "/>
<path style=" stroke:none;fill-rule:nonzero;fill:rgb(13.729858%,12.159729%,12.548828%);fill-opacity:1;" d="M 109.3125 26.765625 C 109.828125 27.050781 110.453125 27.246094 111.191406 27.414062 C 111.933594 27.554688 112.757812 27.613281 113.667969 27.613281 C 115.570312 27.613281 117.105469 27.105469 118.214844 26.082031 C 119.320312 25.058594 119.863281 23.636719 119.863281 21.820312 C 119.863281 20.964844 119.75 20.226562 119.492188 19.628906 C 119.234375 19.03125 118.867188 18.492188 118.441406 18.039062 C 118.015625 17.582031 117.503906 17.15625 116.90625 16.785156 C 116.308594 16.414062 115.683594 16.046875 115.03125 15.675781 C 114.546875 15.394531 114.121094 15.136719 113.777344 14.882812 C 113.410156 14.625 113.128906 14.398438 112.925781 14.144531 C 112.699219 13.917969 112.527344 13.65625 112.441406 13.371094 C 112.355469 13.117188 112.304688 12.808594 112.304688 12.464844 C 112.304688 11.699219 112.558594 11.042969 113.070312 10.5625 C 113.582031 10.074219 114.289062 9.820312 115.230469 9.820312 C 115.9375 9.820312 116.621094 9.90625 117.21875 10.074219 C 117.816406 10.277344 118.328125 10.472656 118.78125 10.703125 L 118.867188 7.972656 C 118.496094 7.832031 117.957031 7.660156 117.304688 7.519531 C 116.621094 7.375 115.855469 7.292969 115.003906 7.292969 C 114.207031 7.292969 113.464844 7.402344 112.757812 7.601562 C 112.046875 7.832031 111.421875 8.171875 110.882812 8.597656 C 110.339844 9.050781 109.910156 9.59375 109.597656 10.246094 C 109.289062 10.898438 109.117188 11.640625 109.117188 12.492188 C 109.117188 13.371094 109.230469 14.085938 109.488281 14.683594 C 109.742188 15.28125 110.085938 15.820312 110.511719 16.246094 C 110.9375 16.699219 111.421875 17.097656 112.019531 17.441406 C 112.585938 17.808594 113.210938 18.179688 113.863281 18.578125 C 114.40625 18.886719 114.859375 19.203125 115.230469 19.457031 C 115.601562 19.742188 115.886719 20.027344 116.109375 20.28125 C 116.308594 20.535156 116.480469 20.820312 116.566406 21.105469 C 116.652344 21.417969 116.679688 21.730469 116.679688 22.101562 C 116.679688 23.011719 116.367188 23.722656 115.769531 24.261719 C 115.171875 24.800781 114.375 25.085938 113.410156 25.085938 C 112.613281 25.085938 111.875 24.945312 111.164062 24.660156 C 110.453125 24.402344 109.882812 24.117188 109.429688 23.835938 L 109.3125 26.765625 "/>
<path style=" stroke:none;fill-rule:nonzero;fill:rgb(13.729858%,12.159729%,12.548828%);fill-opacity:1;" d="M 120.984375 27.386719 L 124.058594 27.386719 L 125.566406 22.414062 L 132.753906 22.414062 L 134.261719 27.386719 L 137.445312 27.386719 L 130.992188 7.546875 L 127.640625 7.546875 L 120.984375 27.386719 "/>
<path style=" stroke:none;fill-rule:nonzero;fill:rgb(82.751465%,82.437134%,82.514954%);fill-opacity:1;" d="M 35.191406 18.917969 C 35.21875 17.582031 35.476562 16.53125 35.960938 15.792969 C 36.445312 15.078125 37.125 14.710938 37.976562 14.710938 C 39.742188 14.710938 40.621094 16.105469 40.621094 18.917969 L 35.191406 18.917969 "/>
<path style=" stroke:none;fill-rule:nonzero;fill:rgb(82.751465%,82.437134%,82.514954%);fill-opacity:1;" d="M 64.03125 20.253906 L 64.03125 21.5625 C 64.03125 22.726562 63.773438 23.664062 63.261719 24.375 C 62.722656 25.117188 61.957031 25.484375 60.902344 25.484375 C 60.136719 25.484375 59.566406 25.257812 59.171875 24.832031 C 58.769531 24.402344 58.574219 23.808594 58.574219 23.097656 C 58.574219 22.132812 58.945312 21.417969 59.710938 20.9375 C 60.476562 20.453125 61.585938 20.226562 63.035156 20.226562 C 63.207031 20.226562 63.375 20.226562 63.578125 20.226562 C 63.773438 20.226562 63.945312 20.226562 64.03125 20.253906 "/>
<path style=" stroke:none;fill-rule:nonzero;fill:rgb(82.751465%,82.437134%,82.514954%);fill-opacity:1;" d="M 126.304688 19.941406 L 129.230469 10.359375 L 129.285156 10.359375 L 132.046875 19.941406 L 126.304688 19.941406 "/>
<path style=" stroke:none;fill-rule:nonzero;fill:rgb(93.527222%,17.272949%,18.882751%);fill-opacity:1;" d="M 153.46875 11.792969 C 156.984375 11.792969 159.847656 14.65625 159.847656 18.171875 C 159.847656 21.6875 156.984375 24.550781 153.46875 24.550781 C 149.949219 24.550781 147.089844 21.6875 147.089844 18.171875 C 147.089844 14.65625 149.949219 11.792969 153.46875 11.792969 "/>
</g>
</svg>
