<?xml version="1.0" encoding="UTF-8"?>
<svg xmlns="http://www.w3.org/2000/svg" xmlns:xlink="http://www.w3.org/1999/xlink" width="77pt" height="80pt" viewBox="0 0 77 80" version="1.1">
<g id="surface1">
<path style=" stroke:none;fill-rule:nonzero;fill:rgb(13.729858%,12.159729%,12.548828%);fill-opacity:1;" d="M 0.109375 79.859375 L 0.109375 0.488281 L 76.929688 0.488281 L 76.929688 79.859375 L 0.109375 79.859375 M 0.25 0.621094 L 0.25 79.726562 L 76.785156 79.726562 L 76.785156 0.621094 L 0.25 0.621094 "/>
<path style=" stroke:none;fill-rule:nonzero;fill:rgb(68.630981%,12.666321%,10.813904%);fill-opacity:1;" d="M 1.53125 1.804688 L 75.515625 1.804688 L 75.515625 19.992188 L 1.53125 19.992188 L 1.53125 1.804688 M 1.53125 60.34375 L 1.53125 78.53125 L 75.515625 78.53125 L 75.515625 60.34375 L 1.53125 60.34375 M 1.53125 21.300781 L 1.53125 39.496094 L 75.515625 39.496094 L 75.515625 21.300781 L 1.53125 21.300781 M 1.53125 40.832031 L 1.53125 59.019531 L 75.515625 59.019531 L 75.515625 40.832031 L 1.53125 40.832031 M 32.613281 31.769531 C 32.613281 31.367188 32.535156 31.03125 32.382812 30.769531 C 32.238281 30.5 32.039062 30.289062 31.804688 30.148438 C 31.566406 29.996094 31.3125 29.90625 31.050781 29.859375 L 31.050781 29.84375 C 31.410156 29.742188 31.726562 29.550781 31.996094 29.265625 C 32.273438 28.988281 32.417969 28.585938 32.429688 28.074219 C 32.429688 27.453125 32.238281 26.964844 31.839844 26.636719 C 31.445312 26.300781 30.835938 26.125 30.007812 26.125 L 27.71875 26.125 L 27.71875 33.945312 L 30.007812 33.945312 C 30.835938 33.925781 31.480469 33.722656 31.929688 33.320312 C 32.382812 32.929688 32.613281 32.40625 32.613281 31.769531 M 31.15625 28.199219 C 31.15625 27.859375 31.042969 27.585938 30.816406 27.375 C 30.582031 27.164062 30.238281 27.054688 29.773438 27.054688 L 29 27.054688 L 29 29.449219 L 29.699219 29.449219 C 30.1875 29.441406 30.546875 29.324219 30.789062 29.097656 C 31.03125 28.871094 31.15625 28.566406 31.15625 28.199219 M 31.320312 31.691406 C 31.332031 31.316406 31.210938 31.003906 30.988281 30.761719 C 30.753906 30.515625 30.402344 30.390625 29.910156 30.382812 L 29 30.382812 L 29 32.984375 L 29.871094 32.984375 C 30.359375 32.980469 30.71875 32.859375 30.960938 32.617188 C 31.203125 32.375 31.320312 32.070312 31.320312 31.691406 M 38.726562 33.945312 C 38.707031 33.835938 38.691406 33.691406 38.679688 33.523438 C 38.660156 33.355469 38.65625 33.179688 38.65625 32.984375 L 38.65625 30.257812 C 38.65625 29.878906 38.605469 29.558594 38.527344 29.304688 C 38.4375 29.054688 38.320312 28.847656 38.167969 28.683594 C 38.023438 28.535156 37.816406 28.410156 37.527344 28.292969 C 37.234375 28.179688 36.863281 28.125 36.40625 28.113281 C 36.007812 28.125 35.65625 28.164062 35.351562 28.257812 C 35.042969 28.34375 34.773438 28.441406 34.550781 28.566406 L 34.648438 29.558594 C 34.808594 29.40625 35.042969 29.28125 35.332031 29.164062 C 35.613281 29.054688 35.9375 28.996094 36.277344 28.988281 C 36.710938 28.988281 37.023438 29.105469 37.234375 29.324219 C 37.414062 29.550781 37.492188 29.835938 37.484375 30.191406 L 37.484375 30.425781 L 37.035156 30.425781 C 36.035156 30.425781 35.277344 30.578125 34.757812 30.894531 C 34.246094 31.203125 33.984375 31.691406 33.976562 32.347656 C 33.992188 32.894531 34.164062 33.316406 34.503906 33.589844 C 34.847656 33.875 35.273438 34.019531 35.777344 34.019531 C 36.226562 34.019531 36.59375 33.945312 36.863281 33.800781 C 37.144531 33.65625 37.359375 33.472656 37.519531 33.246094 L 37.527344 33.246094 C 37.527344 33.332031 37.539062 33.457031 37.546875 33.605469 C 37.5625 33.757812 37.582031 33.875 37.597656 33.945312 L 38.726562 33.945312 M 37.484375 31.640625 L 37.484375 31.136719 C 37.429688 31.136719 37.375 31.132812 37.292969 31.132812 C 37.214844 31.132812 37.132812 31.132812 37.058594 31.132812 C 35.820312 31.132812 35.1875 31.5 35.179688 32.246094 C 35.179688 32.53125 35.261719 32.761719 35.433594 32.929688 C 35.59375 33.101562 35.835938 33.1875 36.160156 33.1875 C 36.601562 33.179688 36.925781 33.035156 37.148438 32.761719 C 37.367188 32.472656 37.472656 32.105469 37.484375 31.640625 M 45.15625 33.945312 C 45.132812 33.652344 45.113281 33.316406 45.113281 32.917969 L 45.113281 25.542969 L 43.863281 25.542969 L 43.863281 28.886719 L 43.855469 28.886719 C 43.679688 28.632812 43.464844 28.441406 43.214844 28.316406 C 42.960938 28.179688 42.648438 28.113281 42.253906 28.113281 C 41.59375 28.125 41.085938 28.375 40.707031 28.871094 C 40.328125 29.375 40.136719 30.105469 40.128906 31.070312 C 40.136719 31.976562 40.316406 32.695312 40.6875 33.21875 C 41.046875 33.742188 41.578125 34.011719 42.277344 34.019531 C 42.726562 34.011719 43.082031 33.9375 43.332031 33.777344 C 43.585938 33.625 43.773438 33.421875 43.90625 33.1875 L 43.925781 33.1875 C 43.925781 33.304688 43.925781 33.449219 43.945312 33.617188 C 43.953125 33.777344 43.964844 33.886719 43.96875 33.945312 L 45.15625 33.945312 M 43.863281 31.0625 C 43.863281 30.414062 43.765625 29.910156 43.566406 29.550781 C 43.367188 29.1875 43.050781 29.003906 42.613281 29.003906 C 42.179688 29.003906 41.863281 29.183594 41.667969 29.535156 C 41.46875 29.886719 41.378906 30.390625 41.378906 31.035156 C 41.371094 31.734375 41.46875 32.257812 41.648438 32.609375 C 41.839844 32.960938 42.152344 33.136719 42.601562 33.136719 C 43.042969 33.128906 43.367188 32.945312 43.566406 32.574219 C 43.773438 32.207031 43.863281 31.703125 43.863281 31.0625 M 51.304688 31.390625 L 51.304688 30.996094 C 51.285156 29.996094 51.070312 29.265625 50.65625 28.796875 C 50.242188 28.332031 49.683594 28.105469 49 28.105469 C 48.21875 28.125 47.613281 28.398438 47.183594 28.945312 C 46.757812 29.484375 46.542969 30.207031 46.535156 31.097656 C 46.535156 31.667969 46.632812 32.160156 46.824219 32.597656 C 47.023438 33.035156 47.316406 33.382812 47.714844 33.632812 C 48.101562 33.875 48.605469 34.003906 49.199219 34.011719 C 49.578125 34.011719 49.917969 33.96875 50.222656 33.902344 C 50.519531 33.835938 50.773438 33.75 50.980469 33.667969 L 50.914062 32.695312 C 50.765625 32.800781 50.554688 32.902344 50.304688 33.003906 C 50.0625 33.097656 49.757812 33.148438 49.40625 33.148438 C 48.839844 33.148438 48.425781 33.003906 48.160156 32.699219 C 47.910156 32.40625 47.777344 31.96875 47.785156 31.390625 L 51.304688 31.390625 M 50.082031 30.59375 C 50.082031 29.492188 49.703125 28.9375 48.964844 28.9375 C 48.605469 28.9375 48.316406 29.089844 48.109375 29.375 C 47.902344 29.660156 47.796875 30.0625 47.785156 30.59375 L 50.082031 30.59375 M 57.332031 33.917969 L 57.332031 30.078125 C 57.339844 29.46875 57.1875 28.988281 56.902344 28.632812 C 56.601562 28.28125 56.152344 28.105469 55.53125 28.097656 C 54.800781 28.082031 54.273438 28.359375 53.929688 28.917969 L 53.914062 28.917969 C 53.914062 28.835938 53.902344 28.710938 53.894531 28.550781 C 53.878906 28.382812 53.867188 28.257812 53.867188 28.171875 L 52.691406 28.171875 C 52.714844 28.515625 52.734375 28.878906 52.742188 29.273438 L 52.742188 33.917969 L 53.984375 33.917969 L 53.984375 30.515625 C 53.984375 30.0625 54.082031 29.71875 54.28125 29.457031 C 54.476562 29.207031 54.777344 29.070312 55.160156 29.070312 C 55.480469 29.066406 55.714844 29.164062 55.863281 29.375 C 56.007812 29.574219 56.089844 29.90625 56.089844 30.347656 L 56.089844 33.917969 L 57.332031 33.917969 M 33.515625 49.835938 C 33.507812 48.988281 33.363281 48.300781 33.066406 47.761719 C 32.777344 47.226562 32.398438 46.824219 31.929688 46.542969 C 31.660156 46.375 31.339844 46.242188 30.96875 46.152344 C 30.597656 46.046875 30.148438 46 29.628906 46 L 27.632812 46 L 27.632812 53.816406 L 29.367188 53.816406 C 30.738281 53.800781 31.769531 53.449219 32.472656 52.753906 C 33.164062 52.046875 33.515625 51.078125 33.515625 49.835938 M 32.148438 49.835938 C 32.15625 49.28125 32.070312 48.789062 31.886719 48.355469 C 31.707031 47.929688 31.421875 47.585938 31.03125 47.34375 C 30.636719 47.097656 30.132812 46.980469 29.503906 46.972656 L 28.925781 46.972656 L 28.925781 52.84375 L 29.503906 52.84375 C 30.394531 52.835938 31.058594 52.566406 31.5 52.035156 C 31.929688 51.511719 32.15625 50.777344 32.148438 49.835938 M 38.761719 46.996094 L 38.761719 45.820312 L 37.707031 45.820312 L 37.707031 46.996094 L 38.761719 46.996094 M 36.789062 46.996094 L 36.789062 45.820312 L 35.738281 45.820312 L 35.738281 46.996094 L 36.789062 46.996094 M 39.488281 53.816406 C 39.46875 53.710938 39.464844 53.566406 39.445312 53.398438 C 39.425781 53.230469 39.425781 53.054688 39.417969 52.859375 L 39.417969 50.132812 C 39.417969 49.753906 39.382812 49.433594 39.289062 49.179688 C 39.210938 48.929688 39.085938 48.71875 38.929688 48.558594 C 38.796875 48.40625 38.582031 48.28125 38.292969 48.164062 C 38.007812 48.054688 37.628906 47.996094 37.167969 47.988281 C 36.78125 47.996094 36.429688 48.039062 36.125 48.132812 C 35.820312 48.21875 35.546875 48.316406 35.316406 48.441406 L 35.414062 49.433594 C 35.585938 49.28125 35.8125 49.15625 36.097656 49.039062 C 36.386719 48.929688 36.699219 48.871094 37.042969 48.859375 C 37.472656 48.859375 37.789062 48.980469 37.996094 49.199219 C 38.175781 49.425781 38.257812 49.710938 38.246094 50.066406 L 38.246094 50.300781 L 37.796875 50.300781 C 36.800781 50.300781 36.042969 50.453125 35.523438 50.769531 C 35.007812 51.078125 34.75 51.566406 34.738281 52.222656 C 34.757812 52.769531 34.9375 53.191406 35.273438 53.464844 C 35.613281 53.75 36.035156 53.894531 36.539062 53.894531 C 37 53.894531 37.359375 53.816406 37.636719 53.675781 C 37.90625 53.53125 38.121094 53.347656 38.285156 53.121094 L 38.292969 53.121094 C 38.292969 53.207031 38.300781 53.332031 38.320312 53.480469 C 38.332031 53.632812 38.347656 53.75 38.367188 53.816406 L 39.488281 53.816406 M 38.246094 51.515625 L 38.246094 51.011719 C 38.203125 51.011719 38.140625 51.003906 38.058594 51.003906 C 37.976562 51.003906 37.90625 51.003906 37.828125 51.003906 C 36.585938 51.003906 35.960938 51.375 35.945312 52.121094 C 35.945312 52.40625 36.027344 52.636719 36.195312 52.800781 C 36.367188 52.976562 36.609375 53.0625 36.925781 53.0625 C 37.367188 53.054688 37.691406 52.910156 37.917969 52.636719 C 38.140625 52.347656 38.246094 51.980469 38.246094 51.515625 M 44.113281 53.726562 L 44.113281 52.851562 C 43.964844 52.925781 43.765625 52.976562 43.511719 52.988281 C 43.296875 52.992188 43.125 52.925781 43.027344 52.800781 C 42.917969 52.675781 42.863281 52.457031 42.863281 52.148438 L 42.863281 48.964844 L 44.113281 48.964844 L 44.113281 48.074219 L 42.863281 48.074219 L 42.863281 46.542969 L 41.621094 46.894531 L 41.621094 48.074219 L 40.632812 48.074219 L 40.632812 48.964844 L 41.621094 48.964844 L 41.621094 52.382812 C 41.621094 52.925781 41.757812 53.324219 42.027344 53.558594 C 42.296875 53.785156 42.683594 53.902344 43.1875 53.894531 C 43.566406 53.886719 43.871094 53.828125 44.113281 53.726562 M 48.300781 53.726562 L 48.300781 52.851562 C 48.15625 52.925781 47.945312 52.976562 47.707031 52.988281 C 47.476562 52.992188 47.316406 52.925781 47.210938 52.800781 C 47.101562 52.675781 47.058594 52.457031 47.058594 52.148438 L 47.058594 48.964844 L 48.300781 48.964844 L 48.300781 48.074219 L 47.058594 48.074219 L 47.058594 46.542969 L 45.804688 46.894531 L 45.804688 48.074219 L 44.828125 48.074219 L 44.828125 48.964844 L 45.804688 48.964844 L 45.804688 52.382812 C 45.804688 52.925781 45.941406 53.324219 46.210938 53.558594 C 46.480469 53.785156 46.867188 53.902344 47.382812 53.894531 C 47.75 53.886719 48.066406 53.828125 48.300781 53.726562 M 57.277344 48.074219 L 56.054688 48.074219 L 54.980469 52.710938 L 54.964844 52.710938 L 53.847656 48.074219 L 52.390625 48.074219 L 51.292969 52.710938 L 51.269531 52.710938 L 50.1875 48.074219 L 48.894531 48.074219 L 50.539062 53.816406 L 51.921875 53.816406 L 53.054688 49.15625 L 53.074219 49.15625 L 54.28125 53.816406 L 55.660156 53.816406 L 57.277344 48.074219 M 59.761719 46.914062 L 59.761719 45.667969 L 58.4375 45.667969 L 58.4375 46.914062 L 59.761719 46.914062 M 59.726562 53.816406 L 59.726562 48.074219 L 58.472656 48.074219 L 58.472656 53.816406 L 59.726562 53.816406 M 62.917969 53.816406 L 62.917969 45.417969 L 61.667969 45.417969 L 61.667969 53.816406 L 62.917969 53.816406 M 10.671875 73.085938 L 10.671875 65.277344 L 9.472656 65.277344 L 9.472656 71.457031 L 9.46875 71.457031 L 6.550781 65.277344 L 4.914062 65.277344 L 4.914062 73.085938 L 6.121094 73.085938 L 6.121094 66.964844 L 6.125 66.964844 L 9.042969 73.085938 L 10.671875 73.085938 M 17.121094 70.542969 L 17.121094 70.148438 C 17.105469 69.148438 16.886719 68.410156 16.472656 67.945312 C 16.058594 67.484375 15.503906 67.25 14.820312 67.257812 C 14.039062 67.273438 13.433594 67.554688 13 68.089844 C 12.582031 68.636719 12.363281 69.351562 12.351562 70.25 C 12.351562 70.8125 12.453125 71.316406 12.640625 71.753906 C 12.839844 72.191406 13.136719 72.527344 13.535156 72.777344 C 13.917969 73.03125 14.421875 73.15625 15.015625 73.164062 C 15.394531 73.15625 15.734375 73.121094 16.042969 73.046875 C 16.339844 72.980469 16.59375 72.902344 16.796875 72.8125 L 16.738281 71.835938 C 16.582031 71.957031 16.378906 72.054688 16.125 72.144531 C 15.878906 72.238281 15.574219 72.292969 15.226562 72.296875 C 14.65625 72.296875 14.242188 72.144531 13.984375 71.855469 C 13.730469 71.550781 13.59375 71.113281 13.605469 70.542969 L 17.121094 70.542969 M 15.898438 69.742188 C 15.898438 68.644531 15.519531 68.089844 14.78125 68.089844 C 14.421875 68.089844 14.136719 68.230469 13.929688 68.519531 C 13.71875 68.800781 13.613281 69.21875 13.605469 69.742188 L 15.898438 69.742188 M 23.195312 73.085938 C 23.167969 72.742188 23.148438 72.382812 23.144531 71.996094 L 23.144531 67.34375 L 21.902344 67.34375 L 21.902344 70.75 C 21.902344 71.199219 21.800781 71.550781 21.601562 71.804688 C 21.40625 72.054688 21.109375 72.191406 20.71875 72.199219 C 20.40625 72.199219 20.171875 72.09375 20.019531 71.894531 C 19.867188 71.6875 19.796875 71.367188 19.796875 70.917969 L 19.796875 67.34375 L 18.554688 67.34375 L 18.554688 71.1875 C 18.542969 71.792969 18.699219 72.28125 18.984375 72.632812 C 19.28125 72.980469 19.730469 73.164062 20.351562 73.171875 C 21.082031 73.179688 21.613281 72.902344 21.957031 72.34375 L 21.972656 72.34375 C 21.972656 72.425781 21.980469 72.550781 21.992188 72.71875 C 22.007812 72.878906 22.015625 73.003906 22.015625 73.085938 L 23.195312 73.085938 M 29.394531 70.542969 L 29.394531 70.148438 C 29.375 69.148438 29.160156 68.410156 28.746094 67.945312 C 28.332031 67.484375 27.773438 67.25 27.089844 67.257812 C 26.308594 67.273438 25.707031 67.554688 25.273438 68.089844 C 24.851562 68.636719 24.636719 69.351562 24.625 70.25 C 24.625 70.8125 24.726562 71.316406 24.925781 71.753906 C 25.109375 72.191406 25.410156 72.527344 25.804688 72.777344 C 26.191406 73.03125 26.695312 73.15625 27.289062 73.164062 C 27.667969 73.15625 28.007812 73.121094 28.316406 73.046875 C 28.613281 72.980469 28.863281 72.902344 29.070312 72.8125 L 29.007812 71.835938 C 28.855469 71.957031 28.648438 72.054688 28.398438 72.144531 C 28.152344 72.238281 27.847656 72.292969 27.496094 72.296875 C 26.929688 72.296875 26.515625 72.144531 26.257812 71.855469 C 26.003906 71.550781 25.878906 71.113281 25.878906 70.542969 L 29.394531 70.542969 M 28.171875 69.742188 C 28.171875 68.644531 27.792969 68.089844 27.054688 68.089844 C 26.695312 68.089844 26.40625 68.230469 26.203125 68.519531 C 25.992188 68.800781 25.886719 69.21875 25.878906 69.742188 L 28.171875 69.742188 M 35.421875 73.070312 L 35.421875 69.222656 C 35.433594 68.609375 35.277344 68.132812 34.992188 67.777344 C 34.695312 67.425781 34.246094 67.25 33.621094 67.242188 C 32.894531 67.222656 32.363281 67.503906 32.023438 68.074219 L 32.003906 68.074219 C 32.003906 67.988281 31.996094 67.863281 31.984375 67.695312 C 31.96875 67.535156 31.960938 67.410156 31.960938 67.324219 L 30.78125 67.324219 C 30.808594 67.660156 30.828125 68.03125 30.835938 68.417969 L 30.835938 73.070312 L 32.074219 73.070312 L 32.074219 69.660156 C 32.074219 69.21875 32.175781 68.863281 32.375 68.609375 C 32.574219 68.347656 32.867188 68.226562 33.257812 68.214844 C 33.570312 68.214844 33.800781 68.316406 33.957031 68.519531 C 34.109375 68.730469 34.179688 69.046875 34.179688 69.492188 L 34.179688 73.070312 L 35.421875 73.070312 M 41.71875 73.085938 L 41.71875 69.25 C 41.730469 68.636719 41.578125 68.15625 41.289062 67.804688 C 40.992188 67.453125 40.542969 67.273438 39.921875 67.269531 C 39.519531 67.273438 39.203125 67.34375 38.960938 67.484375 C 38.714844 67.628906 38.527344 67.792969 38.390625 67.996094 L 38.375 67.996094 L 38.375 64.6875 L 37.132812 64.6875 L 37.132812 73.085938 L 38.375 73.085938 L 38.375 69.6875 C 38.375 69.238281 38.472656 68.886719 38.671875 68.628906 C 38.871094 68.378906 39.164062 68.242188 39.554688 68.242188 C 39.867188 68.242188 40.101562 68.34375 40.257812 68.542969 C 40.398438 68.746094 40.476562 69.074219 40.476562 69.519531 L 40.476562 73.085938 L 41.71875 73.085938 M 48.390625 70.207031 C 48.390625 69.519531 48.269531 68.953125 48.035156 68.527344 C 47.8125 68.089844 47.507812 67.773438 47.109375 67.570312 C 46.722656 67.359375 46.285156 67.257812 45.804688 67.269531 C 45.320312 67.257812 44.882812 67.359375 44.492188 67.570312 C 44.09375 67.773438 43.789062 68.089844 43.566406 68.527344 C 43.332031 68.953125 43.214844 69.519531 43.214844 70.207031 C 43.214844 70.902344 43.332031 71.476562 43.566406 71.910156 C 43.789062 72.347656 44.09375 72.667969 44.492188 72.867188 C 44.882812 73.070312 45.320312 73.164062 45.804688 73.164062 C 46.285156 73.164062 46.722656 73.070312 47.109375 72.867188 C 47.507812 72.667969 47.8125 72.347656 48.035156 71.910156 C 48.269531 71.476562 48.390625 70.902344 48.390625 70.207031 M 47.101562 70.207031 C 47.101562 69.59375 47.011719 69.105469 46.8125 68.71875 C 46.613281 68.34375 46.273438 68.148438 45.804688 68.132812 C 45.332031 68.148438 44.996094 68.34375 44.796875 68.71875 C 44.597656 69.105469 44.503906 69.59375 44.511719 70.207031 C 44.503906 70.820312 44.597656 71.316406 44.796875 71.703125 C 44.996094 72.078125 45.332031 72.28125 45.804688 72.292969 C 46.273438 72.28125 46.613281 72.078125 46.8125 71.703125 C 47.011719 71.316406 47.101562 70.820312 47.101562 70.207031 M 52.851562 65.578125 L 52.851562 64.679688 C 52.707031 64.648438 52.554688 64.613281 52.382812 64.597656 C 52.222656 64.570312 52.078125 64.550781 51.953125 64.550781 C 51.359375 64.5625 50.933594 64.71875 50.679688 65.015625 C 50.421875 65.300781 50.304688 65.679688 50.316406 66.125 L 50.316406 67.34375 L 49.304688 67.34375 L 49.304688 68.242188 L 50.316406 68.242188 L 50.316406 73.085938 L 51.554688 73.085938 L 51.554688 68.242188 L 52.671875 68.242188 L 52.671875 67.34375 L 51.554688 67.34375 L 51.554688 66.25 C 51.546875 65.726562 51.789062 65.46875 52.277344 65.460938 C 52.355469 65.460938 52.445312 65.476562 52.554688 65.492188 C 52.671875 65.519531 52.769531 65.542969 52.851562 65.578125 M 42.949219 10.988281 L 43.859375 13.101562 C 43.914062 13.246094 44.082031 13.554688 43.949219 13.757812 C 43.785156 13.996094 43.394531 13.976562 43.132812 13.976562 L 41.003906 13.980469 C 41.289062 15.058594 42.332031 15.859375 43.574219 15.859375 C 45.03125 15.859375 46.21875 14.753906 46.21875 13.390625 C 46.21875 12.027344 45.03125 10.917969 43.574219 10.917969 C 43.359375 10.917969 43.148438 10.945312 42.949219 10.988281 M 40.695312 8.359375 L 34.769531 8.359375 L 34.566406 9.027344 L 39 13.207031 L 40.695312 8.359375 M 42.074219 10.566406 L 41.257812 8.757812 L 39.640625 13.34375 L 40.214844 13.34375 C 40.234375 12.128906 40.984375 11.078125 42.074219 10.566406 M 33.910156 11.058594 L 33.203125 13.449219 C 33.160156 13.578125 33.027344 13.753906 32.757812 13.679688 C 32.484375 13.609375 32.507812 13.386719 32.546875 13.269531 L 33.261719 10.90625 C 33.152344 10.890625 33.042969 10.886719 32.933594 10.886719 C 31.472656 10.886719 30.285156 11.988281 30.285156 13.351562 C 30.285156 14.714844 31.472656 15.820312 32.933594 15.820312 C 34.390625 15.820312 35.578125 14.714844 35.578125 13.351562 C 35.578125 12.3125 34.886719 11.421875 33.910156 11.058594 M 42.699219 10.363281 L 41.5625 7.765625 L 41.78125 7.195312 L 42.292969 7.195312 L 42.292969 6.574219 L 40.171875 6.574219 L 40.171875 6.980469 L 41.117188 7.195312 L 40.90625 7.765625 L 34.945312 7.765625 L 35.167969 7.09375 C 35.21875 6.925781 35.261719 6.785156 35.394531 6.675781 C 35.527344 6.574219 35.773438 6.574219 35.96875 6.574219 L 36.96875 6.574219 L 36.96875 5.957031 L 35.722656 5.957031 C 35.34375 5.957031 35.019531 6.078125 34.820312 6.265625 C 34.652344 6.421875 34.554688 6.695312 34.488281 6.917969 L 33.472656 10.246094 C 33.292969 10.21875 33.125 10.199219 32.941406 10.199219 C 31.078125 10.199219 29.5625 11.613281 29.5625 13.351562 C 29.5625 15.089844 31.078125 16.507812 32.941406 16.507812 C 34.804688 16.507812 36.320312 15.089844 36.320312 13.351562 C 36.320312 11.996094 35.378906 10.863281 34.097656 10.410156 L 34.328125 9.71875 L 38.476562 13.597656 C 38.617188 13.722656 38.773438 13.847656 38.960938 13.90625 C 39.136719 13.972656 39.359375 13.972656 39.535156 13.972656 L 40.273438 13.976562 C 40.566406 15.433594 41.941406 16.539062 43.589844 16.539062 C 45.453125 16.539062 46.964844 15.128906 46.964844 13.390625 C 46.964844 11.652344 45.453125 10.238281 43.589844 10.238281 C 43.28125 10.238281 42.984375 10.292969 42.699219 10.363281 M 42.328125 11.207031 C 41.496094 11.628906 40.941406 12.402344 40.941406 13.34375 L 43.226562 13.34375 L 42.328125 11.207031 M 9.832031 37.015625 L 13.632812 37.015625 L 13.125 30.15625 L 17.546875 31.1875 C 17.585938 31.199219 17.628906 31.203125 17.671875 31.203125 C 17.953125 31.203125 18.175781 30.988281 18.175781 30.726562 C 18.175781 30.609375 18.132812 30.503906 18.054688 30.421875 L 12.117188 23.953125 C 12.023438 23.851562 11.886719 23.785156 11.730469 23.785156 C 11.578125 23.785156 11.4375 23.851562 11.34375 23.953125 L 5.40625 30.421875 C 5.332031 30.503906 5.285156 30.609375 5.285156 30.726562 C 5.285156 30.988281 5.511719 31.203125 5.792969 31.203125 C 5.832031 31.203125 5.875 31.195312 5.914062 31.1875 L 10.335938 30.15625 L 9.832031 37.015625 M 18.175781 51.699219 L 18.175781 48.148438 L 10.828125 48.621094 L 11.933594 44.492188 C 11.945312 44.457031 11.949219 44.417969 11.949219 44.378906 C 11.949219 44.117188 11.722656 43.902344 11.445312 43.902344 C 11.320312 43.902344 11.203125 43.949219 11.113281 44.019531 L 4.1875 49.5625 C 4.078125 49.652344 4.007812 49.78125 4.007812 49.921875 C 4.007812 50.066406 4.078125 50.195312 4.1875 50.28125 L 11.113281 55.828125 C 11.203125 55.898438 11.320312 55.941406 11.445312 55.941406 C 11.722656 55.941406 11.949219 55.730469 11.949219 55.46875 C 11.949219 55.429688 11.945312 55.390625 11.933594 55.351562 L 10.828125 51.222656 L 18.175781 51.699219 M 58.441406 71.210938 L 65.789062 70.738281 L 64.683594 74.867188 C 64.671875 74.90625 64.667969 74.945312 64.667969 74.984375 C 64.667969 75.246094 64.894531 75.457031 65.171875 75.457031 C 65.296875 75.457031 65.414062 75.414062 65.503906 75.34375 L 72.429688 69.796875 C 72.539062 69.710938 72.609375 69.582031 72.609375 69.4375 C 72.609375 69.292969 72.539062 69.164062 72.429688 69.078125 L 65.503906 63.53125 C 65.414062 63.460938 65.296875 63.417969 65.171875 63.417969 C 64.894531 63.417969 64.667969 63.632812 64.667969 63.890625 C 64.667969 63.933594 64.671875 63.972656 64.683594 64.007812 L 65.789062 68.136719 L 58.441406 67.664062 L 58.441406 71.210938 "/>
</g>
</svg>
