<?xml version="1.0" encoding="UTF-8"?>
<svg xmlns="http://www.w3.org/2000/svg" xmlns:xlink="http://www.w3.org/1999/xlink" width="185pt" height="37pt" viewBox="0 0 185 37" version="1.1">
<g id="surface1">
<path style="fill-rule:nonzero;fill:rgb(100%,100%,100%);fill-opacity:1;stroke-width:2.835;stroke-linecap:butt;stroke-linejoin:round;stroke:rgb(13.729858%,12.159729%,12.548828%);stroke-opacity:1;stroke-miterlimit:4;" d="M 1534.648438 11.09375 L 1846.445312 188.203125 L 1534.648438 365.429688 L 3.945312 365.429688 L 3.945312 11.09375 L 1534.648438 11.09375 " transform="matrix(0.1,0,0,-0.1,0,37)"/>
<path style=" stroke:none;fill-rule:nonzero;fill:rgb(68.630981%,12.666321%,10.813904%);fill-opacity:1;" d="M 152.898438 33.761719 L 169.054688 18.179688 L 152.898438 2.582031 L 2.515625 2.582031 L 2.515625 33.761719 L 152.898438 33.761719 "/>
<path style=" stroke:none;fill-rule:nonzero;fill:rgb(100%,100%,100%);fill-opacity:1;" d="M 19.507812 7.734375 C 19.570312 7.976562 19.65625 8.265625 19.765625 8.488281 C 20.035156 9.007812 20.585938 9.363281 21.148438 9.390625 C 21.777344 9.410156 22.257812 8.828125 22.347656 8.207031 C 22.40625 7.800781 22.335938 7.3125 22.21875 6.921875 L 19.507812 7.734375 "/>
<path style=" stroke:none;fill-rule:nonzero;fill:rgb(100%,100%,100%);fill-opacity:1;" d="M 22.148438 6.644531 C 22.074219 6.421875 21.988281 6.179688 21.890625 5.96875 C 21.675781 5.515625 21.25 5.164062 20.765625 5.09375 C 20.234375 5.03125 19.691406 5.375 19.46875 5.851562 L 18.628906 7.730469 L 22.148438 6.644531 "/>
<path style=" stroke:none;fill-rule:nonzero;fill:rgb(100%,100%,100%);fill-opacity:1;" d="M 16.375 8.238281 L 13.3125 10.9375 C 13.078125 11.148438 13.125 11.558594 13.242188 11.851562 C 13.375 12.195312 13.761719 12.671875 14.03125 12.90625 C 14.128906 12.984375 14.261719 13.046875 14.367188 13.003906 C 14.519531 12.953125 14.644531 12.734375 14.71875 12.585938 L 15.09375 11.785156 C 15.289062 11.390625 15.664062 10.761719 15.910156 10.386719 L 16.886719 9.058594 C 16.96875 8.988281 17.253906 8.753906 17.332031 8.671875 C 17.390625 8.605469 17.429688 8.511719 17.40625 8.425781 C 17.34375 8.121094 16.605469 8.027344 16.375 8.238281 "/>
<path style=" stroke:none;fill-rule:nonzero;fill:rgb(100%,100%,100%);fill-opacity:1;" d="M 14.5 13.753906 C 14.820312 12.855469 15.25 11.941406 15.722656 11.105469 C 16.050781 10.503906 16.453125 9.871094 16.933594 9.34375 C 17.261719 8.984375 17.710938 8.65625 18.191406 8.585938 C 18.742188 8.496094 19.382812 8.773438 19.851562 9.078125 L 25.398438 12.613281 C 25.972656 12.382812 26.601562 12.773438 26.644531 13.386719 C 26.675781 13.964844 26.0625 14.472656 25.496094 14.3125 C 25.3125 14.261719 25.152344 14.152344 25.03125 14 L 23.796875 15.027344 L 26.265625 17.796875 L 26.730469 18.328125 C 27.570312 17.636719 28.554688 17.289062 29.648438 17.308594 C 31.808594 17.363281 33.65625 19.039062 33.910156 21.191406 C 34.039062 22.269531 33.785156 23.28125 33.179688 24.175781 C 32.847656 24.664062 32.421875 25.085938 31.917969 25.410156 C 30.429688 26.351562 28.363281 26.300781 26.914062 25.230469 C 25.480469 24.15625 24.835938 22.214844 25.3125 20.503906 C 25.472656 19.933594 25.746094 19.40625 26.117188 18.945312 L 25.0625 17.726562 L 23.203125 24.789062 L 20.480469 25.683594 C 21.050781 28.597656 18.628906 31.214844 15.679688 30.898438 C 13.296875 30.652344 11.546875 28.503906 11.742188 26.160156 C 11.839844 24.980469 12.355469 23.972656 13.253906 23.191406 C 14.140625 22.414062 15.21875 22.054688 16.410156 22.128906 L 16.734375 20.125 L 14.375 17.445312 C 14.160156 17.195312 13.992188 16.890625 13.949219 16.5625 C 13.910156 16.296875 13.933594 16.011719 13.976562 15.746094 C 14.085938 15.066406 14.269531 14.40625 14.5 13.753906 "/>
<path style=" stroke:none;fill-rule:nonzero;fill:rgb(100%,100%,100%);fill-opacity:1;" d="M 54.429688 26.675781 L 57.496094 26.675781 L 59.003906 21.707031 L 66.199219 21.707031 L 67.703125 26.675781 L 70.886719 26.675781 L 64.433594 6.839844 L 61.078125 6.839844 L 54.429688 26.675781 "/>
<path style=" stroke:none;fill-rule:nonzero;fill:rgb(100%,100%,100%);fill-opacity:1;" d="M 73.003906 26.675781 L 75.960938 26.675781 L 75.960938 5.359375 L 73.003906 5.359375 L 73.003906 26.675781 "/>
<path style=" stroke:none;fill-rule:nonzero;fill:rgb(100%,100%,100%);fill-opacity:1;" d="M 83.082031 24.632812 L 83.140625 24.632812 C 83.511719 25.289062 83.992188 25.828125 84.589844 26.253906 C 85.160156 26.675781 85.925781 26.875 86.863281 26.875 C 88.398438 26.875 89.621094 26.253906 90.53125 24.972656 C 91.441406 23.695312 91.894531 21.847656 91.894531 19.375 C 91.894531 18.234375 91.78125 17.214844 91.582031 16.273438 C 91.355469 15.367188 91.039062 14.570312 90.617188 13.914062 C 90.1875 13.261719 89.648438 12.777344 89.023438 12.40625 C 88.371094 12.070312 87.660156 11.898438 86.835938 11.898438 C 86.296875 11.898438 85.808594 11.953125 85.386719 12.097656 C 84.960938 12.238281 84.617188 12.4375 84.304688 12.664062 C 83.992188 12.894531 83.738281 13.148438 83.539062 13.433594 C 83.3125 13.71875 83.109375 14.003906 82.96875 14.3125 L 82.910156 14.3125 C 82.910156 14.171875 82.910156 14.003906 82.910156 13.773438 C 82.882812 13.542969 82.882812 13.320312 82.882812 13.089844 C 82.855469 12.863281 82.855469 12.664062 82.824219 12.464844 C 82.796875 12.265625 82.796875 12.152344 82.796875 12.097656 L 80.015625 12.097656 C 80.039062 12.464844 80.070312 12.863281 80.097656 13.289062 C 80.125 13.71875 80.125 14.199219 80.125 14.683594 L 80.125 32.816406 L 83.082031 32.816406 L 83.082031 24.632812 "/>
<path style=" stroke:none;fill-rule:nonzero;fill:rgb(100%,100%,100%);fill-opacity:1;" d="M 95.042969 26.113281 C 95.496094 26.308594 96.066406 26.507812 96.777344 26.652344 C 97.460938 26.789062 98.226562 26.875 99.050781 26.875 C 100.699219 26.875 101.949219 26.480469 102.832031 25.65625 C 103.683594 24.832031 104.113281 23.78125 104.113281 22.472656 C 104.113281 21.589844 103.855469 20.882812 103.371094 20.34375 C 102.859375 19.800781 102.179688 19.257812 101.296875 18.777344 L 100.015625 18.066406 C 99.363281 17.695312 98.882812 17.382812 98.511719 17.070312 C 98.140625 16.785156 97.96875 16.390625 97.96875 15.90625 C 97.96875 15.394531 98.140625 14.96875 98.511719 14.652344 C 98.882812 14.339844 99.421875 14.199219 100.160156 14.199219 C 100.757812 14.199219 101.324219 14.257812 101.808594 14.371094 C 102.289062 14.515625 102.742188 14.652344 103.144531 14.828125 L 103.289062 12.4375 C 102.976562 12.324219 102.546875 12.210938 101.976562 12.070312 C 101.378906 11.953125 100.699219 11.898438 99.933594 11.898438 C 99.191406 11.898438 98.539062 12.011719 97.941406 12.238281 C 97.34375 12.464844 96.832031 12.777344 96.40625 13.148438 C 95.980469 13.542969 95.640625 14.003906 95.410156 14.484375 C 95.183594 14.996094 95.070312 15.535156 95.070312 16.074219 C 95.070312 16.585938 95.15625 17.042969 95.300781 17.441406 C 95.441406 17.839844 95.640625 18.179688 95.894531 18.492188 C 96.148438 18.804688 96.433594 19.058594 96.804688 19.285156 C 97.175781 19.542969 97.570312 19.773438 98.027344 20 L 99.5625 20.765625 C 100.21875 21.082031 100.671875 21.421875 100.925781 21.761719 C 101.152344 22.101562 101.269531 22.472656 101.269531 22.839844 C 101.269531 23.410156 101.042969 23.835938 100.585938 24.121094 C 100.132812 24.433594 99.503906 24.574219 98.738281 24.574219 C 98.027344 24.574219 97.34375 24.464844 96.746094 24.207031 C 96.148438 23.976562 95.640625 23.75 95.214844 23.554688 L 95.042969 26.113281 "/>
<path style=" stroke:none;fill-rule:nonzero;fill:rgb(100%,100%,100%);fill-opacity:1;" d="M 110.089844 20.226562 L 118.414062 20.226562 L 118.414062 19.234375 C 118.414062 17.953125 118.273438 16.871094 118.019531 15.933594 C 117.765625 14.996094 117.394531 14.230469 116.910156 13.632812 C 116.429688 13.035156 115.832031 12.609375 115.175781 12.324219 C 114.496094 12.039062 113.753906 11.898438 112.957031 11.898438 C 112.050781 11.898438 111.226562 12.070312 110.515625 12.4375 C 109.773438 12.808594 109.148438 13.347656 108.667969 14.003906 C 108.183594 14.683594 107.785156 15.476562 107.527344 16.417969 C 107.273438 17.355469 107.132812 18.378906 107.132812 19.488281 C 107.132812 20.539062 107.273438 21.535156 107.527344 22.445312 C 107.785156 23.355469 108.15625 24.121094 108.695312 24.773438 C 109.207031 25.429688 109.859375 25.941406 110.65625 26.308594 C 111.453125 26.703125 112.390625 26.875 113.441406 26.875 C 114.351562 26.875 115.175781 26.789062 115.890625 26.59375 C 116.597656 26.398438 117.164062 26.195312 117.648438 25.996094 L 117.507812 23.523438 C 117.136719 23.78125 116.65625 24.035156 116.085938 24.289062 C 115.488281 24.546875 114.777344 24.691406 113.925781 24.691406 C 112.5625 24.691406 111.59375 24.320312 110.996094 23.554688 C 110.402344 22.816406 110.089844 21.707031 110.089844 20.226562 "/>
<path style=" stroke:none;fill-rule:nonzero;fill:rgb(100%,100%,100%);fill-opacity:1;" d="M 124.351562 20.226562 L 132.679688 20.226562 L 132.679688 19.234375 C 132.679688 17.953125 132.539062 16.871094 132.28125 15.933594 C 132.027344 14.996094 131.65625 14.230469 131.175781 13.632812 C 130.691406 13.035156 130.09375 12.609375 129.4375 12.324219 C 128.757812 12.039062 128.015625 11.898438 127.222656 11.898438 C 126.3125 11.898438 125.488281 12.070312 124.777344 12.4375 C 124.039062 12.808594 123.410156 13.347656 122.929688 14.003906 C 122.445312 14.683594 122.046875 15.476562 121.792969 16.417969 C 121.535156 17.355469 121.394531 18.378906 121.394531 19.488281 C 121.394531 20.539062 121.535156 21.535156 121.792969 22.445312 C 122.046875 23.355469 122.417969 24.121094 122.960938 24.773438 C 123.46875 25.429688 124.125 25.941406 124.921875 26.308594 C 125.714844 26.703125 126.652344 26.875 127.707031 26.875 C 128.613281 26.875 129.4375 26.789062 130.152344 26.59375 C 130.859375 26.398438 131.429688 26.195312 131.910156 25.996094 L 131.769531 23.523438 C 131.398438 23.78125 130.917969 24.035156 130.351562 24.289062 C 129.753906 24.546875 129.042969 24.691406 128.1875 24.691406 C 126.824219 24.691406 125.855469 24.320312 125.257812 23.554688 C 124.664062 22.816406 124.351562 21.707031 124.351562 20.226562 "/>
<path style=" stroke:none;fill-rule:nonzero;fill:rgb(68.630981%,12.666321%,10.813904%);fill-opacity:1;" d="M 17.769531 15.28125 L 21.304688 16.03125 L 21.40625 16.988281 L 23.648438 16.167969 L 22.480469 14.910156 L 24.121094 13.542969 L 19.960938 11.078125 L 17.769531 15.28125 "/>
<path style=" stroke:none;fill-rule:nonzero;fill:rgb(68.630981%,12.666321%,10.813904%);fill-opacity:1;" d="M 16.210938 23.339844 C 14.796875 23.339844 13.527344 24.308594 13.144531 25.636719 C 12.765625 26.96875 13.308594 28.445312 14.5 29.214844 C 15.546875 29.886719 16.925781 29.867188 17.964844 29.191406 C 19.027344 28.496094 19.554688 27.230469 19.367188 26.03125 L 16.394531 26.96875 C 16.222656 27.027344 16.03125 26.996094 15.882812 26.882812 C 15.707031 26.757812 15.625 26.539062 15.664062 26.324219 L 16.210938 23.339844 "/>
<path style=" stroke:none;fill-rule:nonzero;fill:rgb(68.630981%,12.666321%,10.813904%);fill-opacity:1;" d="M 17.566406 25.691406 L 16.839844 25.945312 C 16.792969 25.953125 16.746094 25.945312 16.71875 25.90625 C 16.703125 25.882812 16.695312 25.847656 16.699219 25.824219 L 17.089844 23.453125 C 17.519531 23.554688 17.917969 23.75 18.257812 24.035156 C 18.628906 24.34375 18.921875 24.734375 19.101562 25.1875 L 17.566406 25.691406 "/>
<path style=" stroke:none;fill-rule:nonzero;fill:rgb(68.630981%,12.666321%,10.813904%);fill-opacity:1;" d="M 19.746094 18.539062 L 18.679688 18.949219 L 20.359375 21.890625 L 19.746094 18.539062 "/>
<path style=" stroke:none;fill-rule:nonzero;fill:rgb(68.630981%,12.666321%,10.813904%);fill-opacity:1;" d="M 17.851562 17.464844 L 19.582031 17.644531 L 18.21875 18.128906 L 17.851562 17.464844 "/>
<path style=" stroke:none;fill-rule:nonzero;fill:rgb(68.630981%,12.666321%,10.813904%);fill-opacity:1;" d="M 27.523438 19.253906 C 28.175781 18.71875 28.945312 18.476562 29.78125 18.546875 C 31.460938 18.683594 32.765625 20.152344 32.683594 21.839844 C 32.609375 23.484375 31.238281 24.828125 29.59375 24.859375 C 27.96875 24.894531 26.566406 23.65625 26.382812 22.046875 C 26.292969 21.246094 26.492188 20.488281 26.972656 19.839844 L 28.839844 21.890625 L 29.59375 22.089844 C 29.863281 22.164062 30.132812 21.976562 30.167969 21.703125 C 30.191406 21.480469 30.046875 21.269531 29.835938 21.210938 L 29.253906 21.058594 L 27.523438 19.253906 "/>
<path style=" stroke:none;fill-rule:nonzero;fill:rgb(68.630981%,12.666321%,10.813904%);fill-opacity:1;" d="M 20.277344 24.757812 C 20.019531 24.097656 19.59375 23.515625 19.046875 23.0625 C 18.550781 22.648438 17.949219 22.355469 17.316406 22.214844 L 17.519531 20.890625 L 20.347656 23.714844 C 20.566406 23.925781 20.867188 24.03125 21.167969 23.992188 C 21.707031 23.925781 22.085938 23.453125 22.027344 22.914062 L 21.488281 17.867188 L 24.292969 16.839844 L 24.417969 16.960938 L 22.574219 24 L 20.277344 24.757812 "/>
<path style=" stroke:none;fill-rule:nonzero;fill:rgb(68.630981%,12.666321%,10.813904%);fill-opacity:1;" d="M 59.742188 19.234375 L 62.671875 9.648438 L 62.726562 9.648438 L 65.484375 19.234375 L 59.742188 19.234375 "/>
<path style=" stroke:none;fill-rule:nonzero;fill:rgb(68.630981%,12.666321%,10.813904%);fill-opacity:1;" d="M 83.792969 23.238281 C 83.3125 22.300781 83.082031 21.023438 83.082031 19.402344 C 83.082031 17.78125 83.3125 16.503906 83.792969 15.566406 C 84.246094 14.625 85.015625 14.144531 86.066406 14.144531 C 87.148438 14.144531 87.886719 14.597656 88.3125 15.476562 C 88.742188 16.359375 88.9375 17.695312 88.9375 19.460938 C 88.9375 21.136719 88.710938 22.414062 88.28125 23.296875 C 87.828125 24.179688 87.09375 24.632812 86.039062 24.632812 C 84.984375 24.632812 84.246094 24.179688 83.792969 23.238281 "/>
<path style=" stroke:none;fill-rule:nonzero;fill:rgb(68.630981%,12.666321%,10.813904%);fill-opacity:1;" d="M 110.089844 18.207031 C 110.117188 16.871094 110.371094 15.820312 110.855469 15.082031 C 111.339844 14.371094 112.019531 14.003906 112.875 14.003906 C 114.636719 14.003906 115.519531 15.394531 115.519531 18.207031 L 110.089844 18.207031 "/>
<path style=" stroke:none;fill-rule:nonzero;fill:rgb(68.630981%,12.666321%,10.813904%);fill-opacity:1;" d="M 124.351562 18.207031 C 124.382812 16.871094 124.636719 15.820312 125.117188 15.082031 C 125.601562 14.371094 126.285156 14.003906 127.140625 14.003906 C 128.898438 14.003906 129.78125 15.394531 129.78125 18.207031 L 124.351562 18.207031 "/>
</g>
</svg>
