<?xml version="1.0" encoding="UTF-8"?>
<svg xmlns="http://www.w3.org/2000/svg" xmlns:xlink="http://www.w3.org/1999/xlink" width="81pt" height="82pt" viewBox="0 0 81 82" version="1.1">
<g id="surface1">
<path style="fill-rule:nonzero;fill:rgb(100%,100%,100%);fill-opacity:1;stroke-width:2.835;stroke-linecap:butt;stroke-linejoin:round;stroke:rgb(13.729858%,12.159729%,12.548828%);stroke-opacity:1;stroke-miterlimit:4;" d="M 405.273438 809.296875 L 4.21875 408.28125 L 405.273438 7.226562 L 806.171875 408.28125 L 405.273438 809.296875 " transform="matrix(0.1,0,0,-0.1,0,82)"/>
<path style=" stroke:none;fill-rule:nonzero;fill:rgb(68.630981%,12.666321%,10.813904%);fill-opacity:1;" d="M 40.5625 6.699219 L 6.039062 41.222656 L 40.5625 75.746094 L 75.078125 41.222656 L 40.5625 6.699219 "/>
<path style=" stroke:none;fill-rule:nonzero;fill:rgb(100%,100%,100%);fill-opacity:1;" d="M 41.828125 25.261719 C 41.75 25.585938 41.636719 25.964844 41.484375 26.269531 C 41.125 26.96875 40.390625 27.441406 39.632812 27.476562 C 38.789062 27.5 38.144531 26.722656 38.019531 25.886719 C 37.949219 25.347656 38.042969 24.691406 38.199219 24.167969 L 41.828125 25.261719 "/>
<path style=" stroke:none;fill-rule:nonzero;fill:rgb(100%,100%,100%);fill-opacity:1;" d="M 38.242188 23.8125 C 38.335938 23.511719 38.453125 23.1875 38.589844 22.90625 C 38.871094 22.300781 39.445312 21.828125 40.09375 21.738281 C 40.808594 21.652344 41.535156 22.113281 41.828125 22.746094 L 42.960938 25.269531 L 38.242188 23.8125 "/>
<path style=" stroke:none;fill-rule:nonzero;fill:rgb(100%,100%,100%);fill-opacity:1;" d="M 46.019531 25.929688 L 50.125 29.542969 C 50.441406 29.824219 50.367188 30.371094 50.21875 30.769531 C 50.042969 31.230469 49.527344 31.871094 49.160156 32.1875 C 49.03125 32.289062 48.855469 32.375 48.714844 32.316406 C 48.503906 32.246094 48.339844 31.957031 48.246094 31.761719 L 47.734375 30.683594 C 47.472656 30.15625 46.976562 29.316406 46.648438 28.808594 L 45.335938 27.023438 C 45.21875 26.929688 44.847656 26.621094 44.738281 26.507812 C 44.660156 26.417969 44.609375 26.296875 44.636719 26.183594 C 44.722656 25.773438 45.710938 25.644531 46.019531 25.929688 "/>
<path style=" stroke:none;fill-rule:nonzero;fill:rgb(100%,100%,100%);fill-opacity:1;" d="M 48.503906 33.316406 C 48.078125 32.113281 47.503906 30.890625 46.867188 29.769531 C 46.429688 28.960938 45.890625 28.113281 45.25 27.40625 C 44.808594 26.925781 44.207031 26.484375 43.566406 26.390625 C 42.824219 26.277344 41.964844 26.644531 41.339844 27.054688 L 33.902344 31.792969 C 33.132812 31.480469 32.289062 32.007812 32.230469 32.828125 C 32.1875 33.605469 33.015625 34.289062 33.773438 34.066406 C 34.019531 34.003906 34.234375 33.851562 34.390625 33.648438 L 36.046875 35.023438 L 32.734375 38.738281 L 32.117188 39.453125 C 30.992188 38.515625 29.667969 38.054688 28.214844 38.085938 C 25.3125 38.164062 22.835938 40.402344 22.496094 43.289062 C 22.324219 44.730469 22.664062 46.089844 23.476562 47.285156 C 23.921875 47.941406 24.492188 48.511719 25.167969 48.941406 C 27.15625 50.210938 29.925781 50.136719 31.871094 48.699219 C 33.792969 47.265625 34.65625 44.65625 34.019531 42.359375 C 33.800781 41.605469 33.433594 40.890625 32.9375 40.28125 L 34.347656 38.644531 L 36.847656 48.113281 L 40.496094 49.308594 C 39.734375 53.210938 42.972656 56.71875 46.933594 56.300781 C 50.117188 55.960938 52.46875 53.082031 52.207031 49.941406 C 52.074219 48.367188 51.382812 47.011719 50.179688 45.96875 C 48.984375 44.925781 47.546875 44.441406 45.949219 44.535156 L 45.515625 41.855469 L 48.675781 38.265625 C 48.964844 37.933594 49.1875 37.523438 49.246094 37.082031 C 49.296875 36.722656 49.265625 36.34375 49.210938 35.980469 C 49.066406 35.074219 48.820312 34.1875 48.503906 33.316406 "/>
<path style=" stroke:none;fill-rule:nonzero;fill:rgb(68.630981%,12.666321%,10.813904%);fill-opacity:1;" d="M 44.117188 35.414062 L 39.382812 36.421875 L 39.253906 37.703125 L 36.234375 36.601562 L 37.804688 34.910156 L 35.609375 33.082031 L 41.179688 29.777344 L 44.117188 35.414062 "/>
<path style=" stroke:none;fill-rule:nonzero;fill:rgb(68.630981%,12.666321%,10.813904%);fill-opacity:1;" d="M 46.25 46.167969 C 48.152344 46.167969 49.851562 47.464844 50.359375 49.242188 C 50.863281 51.03125 50.140625 53.011719 48.546875 54.039062 C 47.136719 54.941406 45.292969 54.910156 43.902344 54.003906 C 42.476562 53.074219 41.773438 51.382812 42.015625 49.769531 L 46.007812 51.03125 C 46.234375 51.109375 46.496094 51.058594 46.691406 50.914062 C 46.925781 50.75 47.035156 50.453125 46.984375 50.164062 L 46.25 46.167969 "/>
<path style=" stroke:none;fill-rule:nonzero;fill:rgb(68.630981%,12.666321%,10.813904%);fill-opacity:1;" d="M 44.445312 49.332031 L 45.414062 49.667969 C 45.472656 49.683594 45.535156 49.667969 45.574219 49.617188 C 45.601562 49.589844 45.617188 49.546875 45.609375 49.511719 L 45.078125 46.328125 C 44.507812 46.464844 43.972656 46.730469 43.523438 47.113281 C 43.019531 47.523438 42.628906 48.046875 42.382812 48.660156 L 44.445312 49.332031 "/>
<path style=" stroke:none;fill-rule:nonzero;fill:rgb(68.630981%,12.666321%,10.813904%);fill-opacity:1;" d="M 41.519531 39.726562 L 42.945312 40.28125 L 40.699219 44.21875 L 41.519531 39.726562 "/>
<path style=" stroke:none;fill-rule:nonzero;fill:rgb(68.630981%,12.666321%,10.813904%);fill-opacity:1;" d="M 44.027344 38.34375 L 41.714844 38.582031 L 43.542969 39.230469 L 44.027344 38.34375 "/>
<path style=" stroke:none;fill-rule:nonzero;fill:rgb(68.630981%,12.666321%,10.813904%);fill-opacity:1;" d="M 31.085938 40.683594 C 30.207031 39.96875 29.1875 39.648438 28.054688 39.738281 C 25.808594 39.917969 24.066406 41.886719 24.167969 44.148438 C 24.269531 46.355469 26.113281 48.15625 28.316406 48.199219 C 30.488281 48.242188 32.367188 46.585938 32.621094 44.425781 C 32.734375 43.355469 32.46875 42.339844 31.828125 41.46875 L 29.324219 44.21875 L 28.316406 44.484375 C 27.957031 44.578125 27.589844 44.332031 27.542969 43.964844 C 27.515625 43.664062 27.703125 43.390625 27.992188 43.3125 L 28.769531 43.101562 L 31.085938 40.683594 "/>
<path style=" stroke:none;fill-rule:nonzero;fill:rgb(68.630981%,12.666321%,10.813904%);fill-opacity:1;" d="M 40.808594 48.128906 C 41.152344 47.242188 41.722656 46.464844 42.457031 45.859375 C 43.117188 45.296875 43.925781 44.902344 44.773438 44.714844 L 44.507812 42.945312 L 40.714844 46.730469 C 40.417969 47.011719 40.015625 47.15625 39.613281 47.105469 C 38.898438 47.011719 38.382812 46.378906 38.46875 45.660156 L 39.179688 38.890625 L 35.421875 37.515625 L 35.257812 37.679688 L 37.734375 47.113281 L 40.808594 48.128906 "/>
</g>
</svg>
