<?xml version="1.0" encoding="UTF-8"?>
<svg xmlns="http://www.w3.org/2000/svg" xmlns:xlink="http://www.w3.org/1999/xlink" width="29pt" height="44pt" viewBox="0 0 29 44" version="1.1">
<g id="surface1">
<path style=" stroke:none;fill-rule:nonzero;fill:rgb(13.729858%,12.159729%,12.548828%);fill-opacity:1;" d="M 0.34375 43.46875 L 0.34375 0.949219 L 28.691406 0.949219 L 28.691406 43.46875 L 0.34375 43.46875 M 0.492188 1.085938 L 0.492188 43.328125 L 28.550781 43.328125 L 28.550781 1.085938 L 0.492188 1.085938 "/>
<path style=" stroke:none;fill-rule:nonzero;fill:rgb(68.630981%,12.666321%,10.813904%);fill-opacity:1;" d="M 1.769531 2.371094 L 27.269531 2.371094 L 27.269531 42.054688 L 1.769531 42.054688 L 1.769531 2.371094 M 19.402344 11.480469 L 20.308594 13.71875 C 20.363281 13.871094 20.53125 14.203125 20.398438 14.414062 C 20.238281 14.664062 19.84375 14.648438 19.585938 14.648438 L 17.453125 14.652344 C 17.738281 15.792969 18.785156 16.644531 20.027344 16.644531 C 21.484375 16.644531 22.671875 15.46875 22.671875 14.023438 C 22.671875 12.582031 21.484375 11.40625 20.027344 11.40625 C 19.808594 11.40625 19.597656 11.433594 19.402344 11.480469 M 17.148438 8.691406 L 11.222656 8.691406 L 11.015625 9.398438 L 15.453125 13.828125 L 17.148438 8.691406 M 18.527344 11.03125 L 17.707031 9.117188 L 16.089844 13.972656 L 16.664062 13.972656 C 16.683594 12.6875 17.4375 11.574219 18.527344 11.03125 M 10.363281 11.554688 L 9.652344 14.085938 C 9.613281 14.222656 9.476562 14.410156 9.207031 14.332031 C 8.933594 14.257812 8.960938 14.019531 8.996094 13.898438 L 9.710938 11.390625 C 9.605469 11.375 9.492188 11.371094 9.382812 11.371094 C 7.921875 11.371094 6.738281 12.539062 6.738281 13.984375 C 6.738281 15.429688 7.921875 16.601562 9.382812 16.601562 C 10.84375 16.601562 12.027344 15.429688 12.027344 13.984375 C 12.027344 12.882812 11.339844 11.941406 10.363281 11.554688 M 19.152344 10.816406 L 18.011719 8.066406 L 18.234375 7.457031 L 18.742188 7.457031 L 18.742188 6.800781 L 16.625 6.800781 L 16.625 7.234375 L 17.570312 7.457031 L 17.359375 8.066406 L 11.398438 8.066406 L 11.617188 7.351562 C 11.667969 7.171875 11.714844 7.027344 11.84375 6.910156 C 11.976562 6.800781 12.226562 6.800781 12.421875 6.800781 L 13.417969 6.800781 L 13.417969 6.148438 L 12.171875 6.148438 C 11.792969 6.148438 11.46875 6.273438 11.273438 6.472656 C 11.101562 6.640625 11.007812 6.929688 10.9375 7.164062 L 9.921875 10.695312 C 9.742188 10.664062 9.578125 10.644531 9.394531 10.644531 C 7.527344 10.644531 6.011719 12.140625 6.011719 13.984375 C 6.011719 15.828125 7.527344 17.328125 9.394531 17.328125 C 11.253906 17.328125 12.769531 15.828125 12.769531 13.984375 C 12.769531 12.546875 11.828125 11.347656 10.546875 10.867188 L 10.78125 10.136719 L 14.929688 14.242188 C 15.066406 14.378906 15.226562 14.511719 15.414062 14.570312 C 15.589844 14.644531 15.808594 14.644531 15.988281 14.644531 L 16.722656 14.644531 C 17.015625 16.191406 18.394531 17.363281 20.039062 17.363281 C 21.902344 17.363281 23.414062 15.867188 23.414062 14.023438 C 23.414062 12.179688 21.902344 10.683594 20.039062 10.683594 C 19.734375 10.683594 19.433594 10.742188 19.152344 10.816406 M 18.78125 11.714844 C 17.949219 12.15625 17.394531 12.976562 17.394531 13.972656 L 19.679688 13.972656 L 18.78125 11.714844 "/>
<path style=" stroke:none;fill-rule:nonzero;fill:rgb(10.112%,40.585327%,73.280334%);fill-opacity:1;" d="M 6.773438 23.617188 L 22.542969 23.617188 L 22.542969 39.226562 L 6.773438 39.226562 L 6.773438 23.617188 "/>
<path style=" stroke:none;fill-rule:nonzero;fill:rgb(13.729858%,12.159729%,12.548828%);fill-opacity:1;" d="M 7.871094 27.019531 L 7.78125 26.671875 C 7.761719 26.617188 7.746094 26.582031 7.714844 26.566406 C 7.699219 26.546875 7.671875 26.535156 7.644531 26.535156 L 7.625 26.535156 L 7.625 27.019531 L 7.296875 27.019531 L 7.296875 25.800781 L 7.789062 25.800781 C 7.914062 25.800781 8.003906 25.824219 8.074219 25.878906 C 8.140625 25.929688 8.175781 26.015625 8.175781 26.128906 C 8.175781 26.191406 8.167969 26.234375 8.140625 26.269531 C 8.113281 26.316406 8.085938 26.339844 8.050781 26.359375 C 8.015625 26.386719 7.980469 26.394531 7.945312 26.40625 L 7.945312 26.414062 C 7.960938 26.421875 7.988281 26.429688 8.003906 26.441406 C 8.023438 26.460938 8.039062 26.476562 8.058594 26.511719 C 8.074219 26.535156 8.085938 26.582031 8.105469 26.636719 L 8.21875 27.019531 L 7.871094 27.019531 M 7.609375 26.304688 L 7.710938 26.304688 C 7.746094 26.304688 7.78125 26.296875 7.804688 26.269531 C 7.824219 26.246094 7.84375 26.21875 7.84375 26.171875 C 7.84375 26.136719 7.835938 26.101562 7.804688 26.074219 C 7.789062 26.050781 7.753906 26.03125 7.699219 26.03125 L 7.609375 26.03125 L 7.609375 26.304688 M 8.304688 26.566406 C 8.304688 26.484375 8.320312 26.40625 8.347656 26.335938 C 8.375 26.261719 8.429688 26.199219 8.488281 26.15625 C 8.5625 26.109375 8.652344 26.085938 8.761719 26.085938 C 8.867188 26.085938 8.957031 26.109375 9.03125 26.15625 C 9.09375 26.199219 9.148438 26.261719 9.175781 26.335938 C 9.203125 26.40625 9.21875 26.484375 9.21875 26.566406 C 9.21875 26.65625 9.203125 26.726562 9.175781 26.796875 C 9.148438 26.867188 9.09375 26.929688 9.03125 26.976562 C 8.957031 27.019531 8.867188 27.035156 8.761719 27.046875 C 8.652344 27.035156 8.5625 27.019531 8.488281 26.976562 C 8.429688 26.929688 8.375 26.867188 8.347656 26.796875 C 8.320312 26.726562 8.304688 26.65625 8.304688 26.566406 M 8.632812 26.566406 C 8.632812 26.609375 8.632812 26.65625 8.644531 26.691406 C 8.652344 26.734375 8.664062 26.761719 8.679688 26.785156 C 8.699219 26.816406 8.722656 26.824219 8.761719 26.832031 C 8.796875 26.824219 8.824219 26.816406 8.84375 26.785156 C 8.859375 26.761719 8.867188 26.734375 8.878906 26.691406 C 8.886719 26.65625 8.886719 26.609375 8.886719 26.566406 C 8.886719 26.519531 8.886719 26.476562 8.878906 26.441406 C 8.867188 26.394531 8.859375 26.371094 8.84375 26.339844 C 8.824219 26.316406 8.796875 26.296875 8.761719 26.296875 C 8.722656 26.296875 8.699219 26.316406 8.679688 26.339844 C 8.664062 26.371094 8.652344 26.394531 8.644531 26.441406 C 8.632812 26.476562 8.632812 26.519531 8.632812 26.566406 M 10.210938 26.109375 L 10.210938 26.867188 C 10.210938 26.902344 10.210938 26.941406 10.210938 26.964844 C 10.21875 26.992188 10.21875 27.011719 10.21875 27.019531 L 9.921875 27.019531 C 9.921875 27 9.921875 26.976562 9.914062 26.945312 C 9.914062 26.921875 9.914062 26.894531 9.914062 26.867188 C 9.90625 26.886719 9.894531 26.910156 9.875 26.941406 C 9.859375 26.964844 9.832031 26.980469 9.796875 27.011719 C 9.761719 27.027344 9.714844 27.035156 9.652344 27.046875 C 9.570312 27.046875 9.507812 27.019531 9.457031 26.976562 C 9.402344 26.921875 9.371094 26.851562 9.371094 26.75 L 9.371094 26.109375 L 9.6875 26.109375 L 9.6875 26.65625 C 9.6875 26.742188 9.714844 26.785156 9.777344 26.785156 C 9.820312 26.785156 9.859375 26.769531 9.867188 26.734375 C 9.886719 26.707031 9.894531 26.671875 9.894531 26.636719 L 9.894531 26.109375 L 10.210938 26.109375 M 10.320312 26.324219 L 10.320312 26.109375 L 10.480469 26.109375 L 10.480469 25.914062 L 10.792969 25.816406 L 10.792969 26.109375 L 10.972656 26.109375 L 10.972656 26.324219 L 10.792969 26.324219 L 10.792969 26.707031 C 10.792969 26.75 10.8125 26.78125 10.828125 26.796875 C 10.847656 26.816406 10.875 26.824219 10.902344 26.824219 C 10.9375 26.824219 10.957031 26.816406 10.972656 26.804688 L 10.984375 27.019531 C 10.964844 27.027344 10.9375 27.027344 10.902344 27.035156 C 10.867188 27.035156 10.824219 27.046875 10.777344 27.046875 C 10.683594 27.046875 10.613281 27.019531 10.558594 26.976562 C 10.507812 26.921875 10.480469 26.855469 10.480469 26.769531 L 10.480469 26.324219 L 10.320312 26.324219 M 11.378906 26.484375 L 11.652344 26.484375 L 11.652344 26.460938 C 11.652344 26.394531 11.640625 26.351562 11.621094 26.324219 C 11.601562 26.296875 11.566406 26.28125 11.523438 26.28125 C 11.476562 26.28125 11.441406 26.296875 11.417969 26.335938 C 11.386719 26.371094 11.378906 26.421875 11.378906 26.484375 M 11.9375 26.65625 L 11.386719 26.65625 C 11.386719 26.726562 11.417969 26.769531 11.460938 26.804688 C 11.507812 26.832031 11.550781 26.839844 11.613281 26.839844 C 11.65625 26.839844 11.703125 26.832031 11.757812 26.824219 C 11.800781 26.804688 11.847656 26.785156 11.882812 26.769531 L 11.890625 26.992188 C 11.855469 27 11.800781 27.011719 11.746094 27.027344 C 11.695312 27.035156 11.632812 27.035156 11.566406 27.046875 C 11.441406 27.035156 11.351562 27.019531 11.28125 26.976562 C 11.207031 26.921875 11.152344 26.855469 11.128906 26.785156 C 11.097656 26.714844 11.082031 26.636719 11.09375 26.554688 C 11.09375 26.476562 11.097656 26.394531 11.136719 26.324219 C 11.171875 26.253906 11.21875 26.199219 11.28125 26.15625 C 11.34375 26.109375 11.421875 26.085938 11.515625 26.085938 C 11.613281 26.085938 11.695312 26.109375 11.757812 26.15625 C 11.820312 26.199219 11.867188 26.253906 11.890625 26.324219 C 11.925781 26.394531 11.9375 26.476562 11.9375 26.566406 L 11.9375 26.65625 M 7.835938 25.414062 L 7.582031 24.488281 L 7.582031 25.414062 L 7.296875 25.414062 L 7.296875 24.199219 L 7.78125 24.199219 L 7.949219 24.964844 L 8.128906 24.199219 L 8.609375 24.199219 L 8.609375 25.414062 L 8.3125 25.414062 L 8.3125 24.488281 L 8.039062 25.414062 L 7.835938 25.414062 M 8.824219 24.363281 L 8.824219 24.109375 L 9.136719 24.109375 L 9.136719 24.363281 L 8.824219 24.363281 M 8.824219 25.414062 L 8.824219 24.507812 L 9.136719 24.507812 L 9.136719 25.414062 L 8.824219 25.414062 M 9.265625 24.722656 L 9.265625 24.507812 L 9.425781 24.507812 L 9.425781 24.3125 L 9.742188 24.214844 L 9.742188 24.507812 L 9.921875 24.507812 L 9.921875 24.722656 L 9.742188 24.722656 L 9.742188 25.113281 C 9.742188 25.148438 9.75 25.175781 9.777344 25.195312 C 9.796875 25.210938 9.820312 25.21875 9.851562 25.21875 C 9.886719 25.21875 9.90625 25.210938 9.921875 25.203125 L 9.929688 25.414062 C 9.914062 25.425781 9.886719 25.425781 9.839844 25.433594 C 9.804688 25.433594 9.769531 25.445312 9.726562 25.445312 C 9.636719 25.445312 9.5625 25.414062 9.507812 25.371094 C 9.457031 25.328125 9.425781 25.253906 9.425781 25.175781 L 9.425781 24.722656 L 9.265625 24.722656 M 9.984375 24.722656 L 9.984375 24.507812 L 10.144531 24.507812 L 10.144531 24.3125 L 10.464844 24.214844 L 10.464844 24.507812 L 10.644531 24.507812 L 10.644531 24.722656 L 10.464844 24.722656 L 10.464844 25.113281 C 10.464844 25.148438 10.46875 25.175781 10.5 25.195312 C 10.515625 25.210938 10.542969 25.21875 10.570312 25.21875 C 10.605469 25.21875 10.625 25.210938 10.644531 25.203125 L 10.648438 25.414062 C 10.632812 25.425781 10.605469 25.425781 10.570312 25.433594 C 10.523438 25.433594 10.488281 25.445312 10.445312 25.445312 C 10.355469 25.445312 10.28125 25.414062 10.226562 25.371094 C 10.175781 25.328125 10.144531 25.253906 10.144531 25.175781 L 10.144531 24.722656 L 9.984375 24.722656 M 11.046875 24.882812 L 11.316406 24.882812 L 11.316406 24.855469 C 11.316406 24.792969 11.308594 24.75 11.289062 24.722656 C 11.273438 24.695312 11.234375 24.679688 11.191406 24.679688 C 11.148438 24.679688 11.109375 24.695312 11.082031 24.730469 C 11.054688 24.773438 11.046875 24.820312 11.046875 24.882812 M 11.601562 25.050781 L 11.054688 25.050781 C 11.054688 25.125 11.082031 25.175781 11.128906 25.203125 C 11.171875 25.230469 11.21875 25.238281 11.28125 25.238281 C 11.328125 25.238281 11.371094 25.230469 11.417969 25.21875 C 11.46875 25.203125 11.515625 25.183594 11.550781 25.164062 L 11.558594 25.390625 C 11.515625 25.398438 11.46875 25.414062 11.417969 25.425781 C 11.363281 25.433594 11.296875 25.445312 11.234375 25.445312 C 11.109375 25.445312 11.011719 25.414062 10.949219 25.371094 C 10.875 25.320312 10.824219 25.265625 10.792969 25.183594 C 10.769531 25.113281 10.75 25.042969 10.75 24.964844 C 10.75 24.875 10.769531 24.792969 10.804688 24.722656 C 10.839844 24.648438 10.882812 24.597656 10.949219 24.554688 C 11.011719 24.507812 11.09375 24.488281 11.183594 24.480469 C 11.28125 24.488281 11.363281 24.507812 11.421875 24.554688 C 11.488281 24.597656 11.53125 24.648438 11.558594 24.730469 C 11.597656 24.804688 11.601562 24.875 11.601562 24.964844 L 11.601562 25.050781 M 11.777344 25.414062 L 11.777344 24.109375 L 12.089844 24.109375 L 12.089844 25.414062 L 11.777344 25.414062 M 12.296875 25.414062 L 12.296875 24.109375 L 12.609375 24.109375 L 12.609375 25.414062 L 12.296875 25.414062 M 13.332031 25.007812 L 13.332031 24.980469 L 13.292969 24.980469 C 13.222656 24.980469 13.167969 24.988281 13.125 25.015625 C 13.078125 25.035156 13.0625 25.078125 13.0625 25.132812 C 13.0625 25.164062 13.070312 25.195312 13.089844 25.210938 C 13.109375 25.230469 13.132812 25.238281 13.167969 25.238281 C 13.214844 25.238281 13.253906 25.230469 13.277344 25.203125 C 13.304688 25.175781 13.3125 25.140625 13.324219 25.105469 C 13.332031 25.070312 13.332031 25.035156 13.332031 25.007812 M 13.617188 24.820312 L 13.617188 25.21875 C 13.617188 25.253906 13.617188 25.289062 13.617188 25.328125 C 13.617188 25.363281 13.628906 25.390625 13.628906 25.414062 L 13.34375 25.414062 C 13.34375 25.378906 13.332031 25.335938 13.332031 25.289062 C 13.289062 25.34375 13.242188 25.378906 13.207031 25.40625 C 13.160156 25.425781 13.113281 25.445312 13.054688 25.445312 C 12.972656 25.445312 12.910156 25.414062 12.855469 25.363281 C 12.800781 25.308594 12.785156 25.238281 12.773438 25.148438 C 12.773438 24.945312 12.933594 24.839844 13.253906 24.839844 L 13.332031 24.839844 L 13.332031 24.808594 C 13.332031 24.773438 13.324219 24.75 13.292969 24.722656 C 13.269531 24.703125 13.222656 24.683594 13.160156 24.683594 C 13.109375 24.683594 13.0625 24.695312 13.019531 24.714844 C 12.972656 24.730469 12.929688 24.75 12.890625 24.773438 L 12.882812 24.542969 C 12.917969 24.527344 12.972656 24.519531 13.027344 24.507812 C 13.089844 24.488281 13.152344 24.488281 13.234375 24.480469 C 13.332031 24.488281 13.421875 24.5 13.476562 24.535156 C 13.53125 24.5625 13.566406 24.605469 13.582031 24.648438 C 13.613281 24.703125 13.617188 24.757812 13.617188 24.820312 M 13.792969 25.414062 L 13.792969 24.695312 C 13.792969 24.660156 13.792969 24.625 13.792969 24.589844 C 13.78125 24.554688 13.78125 24.527344 13.78125 24.507812 L 14.078125 24.507812 C 14.078125 24.527344 14.078125 24.554688 14.085938 24.578125 C 14.085938 24.605469 14.085938 24.632812 14.085938 24.660156 C 14.097656 24.644531 14.105469 24.613281 14.121094 24.589844 C 14.140625 24.5625 14.167969 24.542969 14.207031 24.519531 C 14.242188 24.5 14.285156 24.488281 14.347656 24.480469 C 14.429688 24.480469 14.492188 24.507812 14.546875 24.554688 C 14.601562 24.605469 14.628906 24.679688 14.628906 24.773438 L 14.628906 25.414062 L 14.3125 25.414062 L 14.3125 24.875 C 14.3125 24.785156 14.285156 24.738281 14.222656 24.738281 C 14.1875 24.738281 14.152344 24.757812 14.132812 24.792969 C 14.117188 24.828125 14.105469 24.875 14.105469 24.917969 L 14.105469 25.414062 L 13.792969 25.414062 M 15.113281 24.953125 C 15.113281 25.035156 15.121094 25.09375 15.140625 25.140625 C 15.160156 25.183594 15.183594 25.210938 15.230469 25.210938 C 15.273438 25.210938 15.304688 25.183594 15.328125 25.140625 C 15.347656 25.09375 15.355469 25.035156 15.355469 24.953125 C 15.355469 24.882812 15.347656 24.820312 15.328125 24.769531 C 15.304688 24.722656 15.273438 24.703125 15.230469 24.695312 C 15.183594 24.703125 15.160156 24.722656 15.140625 24.769531 C 15.121094 24.820312 15.113281 24.882812 15.113281 24.953125 M 15.679688 24.109375 L 15.679688 25.253906 C 15.679688 25.308594 15.679688 25.363281 15.679688 25.414062 L 15.382812 25.414062 C 15.375 25.371094 15.375 25.320312 15.375 25.273438 L 15.363281 25.273438 C 15.339844 25.335938 15.292969 25.371094 15.257812 25.398438 C 15.214844 25.425781 15.167969 25.433594 15.121094 25.433594 C 15.039062 25.433594 14.980469 25.40625 14.925781 25.363281 C 14.878906 25.328125 14.835938 25.265625 14.816406 25.195312 C 14.789062 25.113281 14.78125 25.035156 14.78125 24.945312 C 14.78125 24.863281 14.789062 24.792969 14.816406 24.730469 C 14.835938 24.660156 14.871094 24.597656 14.914062 24.554688 C 14.96875 24.507812 15.03125 24.488281 15.105469 24.480469 C 15.167969 24.480469 15.21875 24.5 15.257812 24.527344 C 15.292969 24.554688 15.328125 24.589844 15.363281 24.644531 C 15.363281 24.597656 15.355469 24.542969 15.355469 24.472656 L 15.355469 24.109375 L 15.679688 24.109375 M 22.113281 29.078125 L 21.691406 29.128906 L 21.691406 29.039062 L 22.023438 29.003906 L 21.691406 28.828125 L 21.691406 28.738281 L 22.113281 28.96875 L 22.113281 29.078125 M 21.933594 28.710938 L 21.933594 28.566406 C 21.925781 28.566406 21.914062 28.566406 21.90625 28.566406 C 21.871094 28.566406 21.851562 28.585938 21.851562 28.621094 C 21.851562 28.648438 21.859375 28.667969 21.878906 28.671875 C 21.890625 28.691406 21.90625 28.703125 21.933594 28.710938 M 21.988281 28.496094 L 21.988281 28.71875 C 22.015625 28.71875 22.035156 28.710938 22.050781 28.691406 C 22.058594 28.683594 22.070312 28.65625 22.070312 28.632812 C 22.058594 28.59375 22.058594 28.566406 22.039062 28.542969 L 22.105469 28.546875 C 22.113281 28.558594 22.113281 28.578125 22.125 28.59375 C 22.125 28.613281 22.125 28.632812 22.125 28.648438 C 22.125 28.691406 22.113281 28.726562 22.089844 28.757812 C 22.070312 28.78125 22.035156 28.789062 21.988281 28.789062 C 21.953125 28.789062 21.925781 28.789062 21.898438 28.773438 C 21.859375 28.757812 21.84375 28.738281 21.824219 28.710938 C 21.804688 28.683594 21.800781 28.65625 21.800781 28.621094 C 21.800781 28.578125 21.804688 28.546875 21.824219 28.523438 C 21.84375 28.507812 21.878906 28.496094 21.914062 28.488281 C 21.945312 28.488281 21.960938 28.496094 21.988281 28.496094 M 22.113281 28.46875 L 21.664062 28.371094 L 21.664062 28.292969 L 22.113281 28.390625 L 22.113281 28.46875 M 21.800781 28.101562 C 21.800781 28.0625 21.804688 28.027344 21.835938 28.007812 C 21.851562 27.980469 21.890625 27.960938 21.933594 27.960938 C 21.96875 27.960938 22.003906 27.972656 22.035156 27.988281 C 22.058594 28.007812 22.089844 28.027344 22.09375 28.050781 C 22.113281 28.078125 22.125 28.113281 22.125 28.152344 C 22.125 28.195312 22.113281 28.226562 22.089844 28.246094 C 22.058594 28.273438 22.023438 28.292969 21.980469 28.292969 C 21.945312 28.292969 21.914062 28.28125 21.890625 28.265625 C 21.859375 28.246094 21.835938 28.226562 21.824219 28.203125 C 21.804688 28.167969 21.800781 28.140625 21.800781 28.101562 M 22.058594 28.140625 C 22.058594 28.121094 22.050781 28.101562 22.039062 28.085938 C 22.023438 28.078125 22.015625 28.070312 21.988281 28.0625 C 21.96875 28.050781 21.953125 28.050781 21.933594 28.050781 C 21.914062 28.050781 21.898438 28.050781 21.878906 28.0625 C 21.871094 28.070312 21.859375 28.085938 21.859375 28.101562 C 21.859375 28.132812 21.871094 28.152344 21.878906 28.15625 C 21.898438 28.175781 21.90625 28.183594 21.933594 28.195312 C 21.953125 28.203125 21.96875 28.203125 21.988281 28.203125 C 22.003906 28.203125 22.023438 28.203125 22.039062 28.195312 C 22.050781 28.175781 22.058594 28.167969 22.058594 28.140625 M 22.113281 27.9375 L 21.664062 27.835938 L 21.664062 27.757812 L 22.113281 27.855469 L 22.113281 27.9375 M 22.035156 27.6875 C 22.039062 27.6875 22.050781 27.6875 22.058594 27.675781 C 22.058594 27.667969 22.070312 27.660156 22.070312 27.652344 C 22.058594 27.621094 22.050781 27.597656 22.035156 27.585938 C 22.023438 27.570312 21.996094 27.5625 21.96875 27.5625 L 21.96875 27.585938 C 21.96875 27.597656 21.96875 27.617188 21.980469 27.632812 C 21.980469 27.652344 21.988281 27.660156 21.996094 27.667969 C 22.003906 27.6875 22.015625 27.6875 22.035156 27.6875 M 22.113281 27.582031 L 22.070312 27.570312 C 22.089844 27.585938 22.09375 27.597656 22.113281 27.617188 C 22.125 27.632812 22.125 27.652344 22.125 27.667969 C 22.125 27.707031 22.113281 27.722656 22.105469 27.742188 C 22.089844 27.757812 22.058594 27.765625 22.035156 27.765625 C 22.003906 27.765625 21.988281 27.757812 21.96875 27.746094 C 21.960938 27.742188 21.953125 27.722656 21.945312 27.707031 C 21.933594 27.675781 21.925781 27.660156 21.925781 27.640625 C 21.925781 27.617188 21.925781 27.597656 21.925781 27.582031 L 21.925781 27.550781 C 21.914062 27.542969 21.90625 27.542969 21.898438 27.542969 C 21.890625 27.542969 21.878906 27.550781 21.871094 27.550781 C 21.871094 27.5625 21.859375 27.570312 21.859375 27.582031 C 21.859375 27.585938 21.851562 27.597656 21.851562 27.605469 C 21.851562 27.640625 21.859375 27.675781 21.878906 27.710938 L 21.816406 27.695312 C 21.800781 27.667969 21.800781 27.632812 21.800781 27.597656 C 21.800781 27.570312 21.800781 27.550781 21.804688 27.535156 C 21.804688 27.515625 21.824219 27.5 21.835938 27.492188 C 21.851562 27.480469 21.871094 27.472656 21.890625 27.472656 C 21.90625 27.472656 21.914062 27.472656 21.933594 27.480469 C 21.953125 27.480469 21.980469 27.480469 21.996094 27.492188 C 22.023438 27.492188 22.039062 27.5 22.058594 27.5 C 22.089844 27.507812 22.105469 27.507812 22.113281 27.507812 L 22.113281 27.582031 M 22.113281 27.4375 L 21.851562 27.375 C 21.824219 27.375 21.816406 27.367188 21.804688 27.367188 L 21.804688 27.285156 L 21.835938 27.296875 C 21.824219 27.285156 21.816406 27.265625 21.804688 27.261719 C 21.800781 27.242188 21.800781 27.222656 21.800781 27.207031 C 21.800781 27.179688 21.804688 27.152344 21.824219 27.136719 C 21.84375 27.117188 21.859375 27.105469 21.898438 27.105469 C 21.90625 27.105469 21.925781 27.105469 21.933594 27.105469 C 21.945312 27.105469 21.953125 27.117188 21.960938 27.117188 L 22.113281 27.152344 L 22.113281 27.230469 L 21.96875 27.195312 C 21.960938 27.195312 21.953125 27.195312 21.933594 27.195312 C 21.925781 27.1875 21.914062 27.1875 21.90625 27.1875 C 21.890625 27.1875 21.878906 27.195312 21.871094 27.207031 C 21.859375 27.207031 21.859375 27.222656 21.859375 27.230469 C 21.859375 27.25 21.859375 27.265625 21.878906 27.277344 C 21.890625 27.285156 21.898438 27.296875 21.914062 27.300781 C 21.925781 27.3125 21.945312 27.3125 21.960938 27.320312 L 22.113281 27.355469 L 22.113281 27.4375 M 21.859375 26.886719 C 21.859375 26.902344 21.871094 26.921875 21.878906 26.929688 C 21.898438 26.945312 21.914062 26.957031 21.933594 26.964844 C 21.953125 26.964844 21.96875 26.976562 21.988281 26.976562 C 21.996094 26.976562 22.003906 26.964844 22.023438 26.964844 C 22.035156 26.964844 22.039062 26.957031 22.050781 26.945312 C 22.058594 26.945312 22.058594 26.941406 22.058594 26.921875 C 22.058594 26.902344 22.050781 26.886719 22.039062 26.867188 C 22.023438 26.855469 22.015625 26.851562 21.996094 26.839844 C 21.96875 26.832031 21.953125 26.832031 21.933594 26.832031 C 21.914062 26.832031 21.898438 26.832031 21.878906 26.839844 C 21.871094 26.851562 21.859375 26.867188 21.859375 26.886719 M 21.664062 26.761719 L 21.664062 26.679688 L 22.050781 26.769531 C 22.058594 26.769531 22.078125 26.769531 22.089844 26.78125 C 22.09375 26.78125 22.105469 26.78125 22.113281 26.78125 L 22.113281 26.851562 L 22.070312 26.851562 C 22.089844 26.855469 22.105469 26.875 22.113281 26.886719 C 22.125 26.902344 22.125 26.921875 22.125 26.945312 C 22.125 26.976562 22.113281 26.992188 22.105469 27.011719 C 22.09375 27.027344 22.078125 27.035156 22.058594 27.046875 C 22.039062 27.054688 22.015625 27.054688 21.996094 27.054688 C 21.960938 27.054688 21.933594 27.046875 21.898438 27.035156 C 21.871094 27.027344 21.84375 27.011719 21.824219 26.980469 C 21.804688 26.964844 21.800781 26.929688 21.800781 26.902344 C 21.800781 26.855469 21.804688 26.832031 21.84375 26.804688 L 21.664062 26.761719 M 21.699219 26.21875 L 21.769531 26.234375 C 21.765625 26.246094 21.765625 26.261719 21.753906 26.269531 C 21.753906 26.289062 21.753906 26.304688 21.753906 26.324219 C 21.753906 26.335938 21.753906 26.339844 21.753906 26.351562 C 21.765625 26.359375 21.765625 26.371094 21.769531 26.378906 C 21.78125 26.386719 21.789062 26.386719 21.800781 26.386719 C 21.816406 26.386719 21.824219 26.386719 21.84375 26.371094 C 21.851562 26.351562 21.859375 26.335938 21.871094 26.316406 C 21.878906 26.296875 21.898438 26.28125 21.914062 26.269531 C 21.933594 26.253906 21.953125 26.246094 21.980469 26.246094 C 22.015625 26.246094 22.039062 26.253906 22.070312 26.269531 C 22.089844 26.289062 22.105469 26.304688 22.113281 26.335938 C 22.125 26.359375 22.125 26.386719 22.125 26.421875 C 22.125 26.441406 22.125 26.460938 22.113281 26.484375 C 22.113281 26.5 22.105469 26.519531 22.09375 26.535156 L 22.023438 26.519531 C 22.035156 26.5 22.039062 26.484375 22.050781 26.464844 C 22.050781 26.449219 22.058594 26.429688 22.058594 26.414062 C 22.058594 26.40625 22.050781 26.386719 22.050781 26.378906 C 22.039062 26.359375 22.039062 26.351562 22.023438 26.351562 C 22.015625 26.339844 22.003906 26.335938 21.988281 26.335938 C 21.96875 26.335938 21.960938 26.339844 21.945312 26.359375 C 21.933594 26.371094 21.925781 26.386719 21.914062 26.40625 C 21.90625 26.421875 21.890625 26.441406 21.878906 26.460938 C 21.859375 26.464844 21.84375 26.476562 21.816406 26.476562 C 21.78125 26.476562 21.765625 26.464844 21.734375 26.460938 C 21.71875 26.441406 21.710938 26.421875 21.699219 26.394531 C 21.691406 26.378906 21.679688 26.351562 21.679688 26.324219 C 21.679688 26.289062 21.691406 26.246094 21.699219 26.21875 M 21.804688 25.925781 L 21.878906 25.941406 C 21.859375 25.960938 21.859375 25.976562 21.859375 26.003906 C 21.859375 26.019531 21.871094 26.039062 21.878906 26.054688 C 21.890625 26.074219 21.90625 26.085938 21.925781 26.09375 C 21.945312 26.101562 21.960938 26.101562 21.980469 26.101562 C 21.996094 26.101562 22.003906 26.101562 22.015625 26.101562 C 22.035156 26.09375 22.039062 26.085938 22.050781 26.074219 C 22.058594 26.066406 22.058594 26.050781 22.058594 26.03125 C 22.058594 26.019531 22.058594 26.015625 22.058594 26.003906 C 22.050781 25.996094 22.050781 25.976562 22.039062 25.96875 L 22.113281 25.976562 C 22.113281 25.984375 22.125 26.003906 22.125 26.015625 C 22.125 26.03125 22.125 26.039062 22.125 26.054688 C 22.125 26.09375 22.113281 26.128906 22.089844 26.15625 C 22.058594 26.171875 22.035156 26.191406 21.988281 26.191406 C 21.953125 26.191406 21.914062 26.179688 21.890625 26.164062 C 21.859375 26.144531 21.84375 26.128906 21.824219 26.101562 C 21.804688 26.074219 21.800781 26.039062 21.800781 26.003906 C 21.800781 25.984375 21.800781 25.976562 21.800781 25.960938 C 21.800781 25.949219 21.804688 25.929688 21.804688 25.925781 M 22.113281 25.929688 L 21.664062 25.835938 L 21.664062 25.753906 L 21.835938 25.789062 C 21.824219 25.78125 21.816406 25.773438 21.804688 25.753906 C 21.800781 25.734375 21.800781 25.71875 21.800781 25.699219 C 21.800781 25.675781 21.804688 25.648438 21.824219 25.628906 C 21.84375 25.609375 21.859375 25.605469 21.898438 25.605469 C 21.90625 25.605469 21.925781 25.605469 21.933594 25.609375 C 21.945312 25.609375 21.953125 25.609375 21.960938 25.609375 L 22.113281 25.648438 L 22.113281 25.730469 L 21.96875 25.699219 C 21.960938 25.695312 21.953125 25.695312 21.933594 25.695312 C 21.925781 25.695312 21.914062 25.695312 21.90625 25.695312 C 21.890625 25.695312 21.878906 25.695312 21.871094 25.699219 C 21.859375 25.710938 21.859375 25.71875 21.859375 25.734375 C 21.859375 25.753906 21.859375 25.765625 21.878906 25.78125 C 21.890625 25.789062 21.898438 25.800781 21.914062 25.808594 C 21.925781 25.808594 21.945312 25.816406 21.960938 25.816406 L 22.113281 25.851562 L 22.113281 25.929688 M 22.113281 25.496094 L 21.804688 25.539062 L 21.804688 25.460938 L 22.039062 25.433594 L 21.804688 25.320312 L 21.804688 25.230469 L 22.039062 25.210938 L 21.804688 25.09375 L 21.804688 25.015625 L 22.113281 25.183594 L 22.113281 25.273438 L 21.878906 25.289062 L 22.113281 25.40625 L 22.113281 25.496094 M 21.933594 24.933594 L 21.933594 24.804688 C 21.925781 24.804688 21.914062 24.804688 21.90625 24.804688 C 21.871094 24.804688 21.851562 24.820312 21.851562 24.84375 C 21.851562 24.875 21.859375 24.890625 21.878906 24.910156 C 21.890625 24.917969 21.90625 24.925781 21.933594 24.933594 M 21.988281 24.730469 L 21.988281 24.945312 C 22.015625 24.945312 22.035156 24.945312 22.050781 24.925781 C 22.058594 24.910156 22.070312 24.890625 22.070312 24.863281 C 22.058594 24.828125 22.058594 24.804688 22.039062 24.769531 L 22.105469 24.773438 C 22.113281 24.792969 22.113281 24.808594 22.125 24.828125 C 22.125 24.84375 22.125 24.863281 22.125 24.875 C 22.125 24.917969 22.113281 24.953125 22.089844 24.980469 C 22.070312 25.007812 22.035156 25.023438 21.988281 25.023438 C 21.953125 25.023438 21.925781 25.015625 21.898438 25.007812 C 21.859375 24.988281 21.84375 24.964844 21.824219 24.945312 C 21.804688 24.917969 21.800781 24.882812 21.800781 24.84375 C 21.800781 24.808594 21.804688 24.785156 21.824219 24.757812 C 21.84375 24.730469 21.878906 24.722656 21.914062 24.722656 C 21.945312 24.722656 21.960938 24.722656 21.988281 24.730469 M 21.746094 24.625 L 21.671875 24.605469 L 21.671875 24.527344 L 21.746094 24.535156 L 21.746094 24.625 M 22.113281 24.695312 L 21.804688 24.632812 L 21.804688 24.554688 L 22.113281 24.613281 L 22.113281 24.695312 M 21.804688 24.234375 L 21.871094 24.25 L 22.050781 24.4375 L 22.050781 24.285156 L 22.113281 24.292969 L 22.113281 24.554688 L 22.050781 24.542969 L 21.871094 24.347656 L 21.871094 24.488281 L 21.804688 24.480469 L 21.804688 24.234375 "/>
<path style=" stroke:none;fill-rule:nonzero;fill:rgb(75.527954%,28.138733%,26.107788%);fill-opacity:1;" d="M 10.175781 28.59375 L 13.503906 27.527344 L 12.773438 31.175781 L 9.445312 32.296875 L 10.175781 28.59375 "/>
<path style="fill-rule:nonzero;fill:rgb(93.527222%,17.272949%,18.882751%);fill-opacity:1;stroke-width:2.5;stroke-linecap:butt;stroke-linejoin:miter;stroke:rgb(75.527954%,28.138733%,26.107788%);stroke-opacity:1;stroke-miterlimit:4;" d="M 101.757812 154.0625 L 135.039062 164.726562 L 127.734375 128.242188 L 94.453125 117.03125 L 101.757812 154.0625 " transform="matrix(0.1,0,0,-0.1,0,44)"/>
<path style=" stroke:none;fill-rule:nonzero;fill:rgb(98.773193%,99.197388%,99.346924%);fill-opacity:1;" d="M 11.34375 28.648438 L 11.152344 29.609375 L 10.355469 29.878906 L 10.191406 30.683594 L 10.992188 30.417969 L 10.8125 31.371094 L 11.488281 31.140625 L 11.6875 30.1875 L 12.476562 29.917969 L 12.640625 29.101562 L 11.835938 29.378906 L 12.027344 28.417969 L 11.34375 28.648438 "/>
<path style="fill-rule:nonzero;fill:rgb(100%,100%,100%);fill-opacity:1;stroke-width:2.5;stroke-linecap:butt;stroke-linejoin:miter;stroke:rgb(98.773193%,99.197388%,99.346924%);stroke-opacity:1;stroke-miterlimit:4;" d="M 113.4375 153.515625 L 111.523438 143.90625 L 103.554688 141.210938 L 101.914062 133.164062 L 109.921875 135.820312 L 108.125 126.289062 L 114.882812 128.59375 L 116.875 138.125 L 124.765625 140.820312 L 126.40625 148.984375 L 118.359375 146.210938 L 120.273438 155.820312 L 113.4375 153.515625 " transform="matrix(0.1,0,0,-0.1,0,44)"/>
<path style=" stroke:none;fill-rule:nonzero;fill:rgb(100%,100%,100%);fill-opacity:1;" d="M 21.230469 27.515625 L 20.835938 29.742188 L 15.761719 29.742188 L 15.382812 31.71875 C 18.226562 31.71875 19.972656 32.851562 19.972656 35.4375 C 19.972656 37.195312 19.011719 38.464844 17.683594 39.226562 L 11.019531 39.226562 L 11.46875 36.898438 C 12.40625 37.46875 13.347656 37.613281 14.152344 37.613281 C 15.535156 37.613281 16.824219 37.023438 16.824219 35.617188 C 16.824219 34.273438 15.652344 33.835938 14.441406 33.835938 C 13.636719 33.835938 12.882812 33.9375 12.171875 34.097656 L 13.503906 27.515625 L 21.230469 27.515625 "/>
</g>
</svg>
