<?xml version="1.0" encoding="UTF-8"?>
<svg xmlns="http://www.w3.org/2000/svg" xmlns:xlink="http://www.w3.org/1999/xlink" width="133pt" height="116pt" viewBox="0 0 133 116" version="1.1">
<g id="surface1">
<path style=" stroke:none;fill-rule:nonzero;fill:rgb(100%,100%,100%);fill-opacity:1;" d="M 0.613281 115.574219 L 132.425781 115.574219 L 132.425781 0.769531 L 0.613281 0.769531 Z M 0.613281 115.574219 "/>
<path style="fill:none;stroke-width:2.835;stroke-linecap:butt;stroke-linejoin:miter;stroke:rgb(13.729858%,12.159729%,12.548828%);stroke-opacity:1;stroke-miterlimit:4;" d="M 6.132812 4.257812 L 1324.257812 4.257812 L 1324.257812 1152.304688 L 6.132812 1152.304688 L 6.132812 4.257812 " transform="matrix(0.1,0,0,-0.1,0,116)"/>
<path style=" stroke:none;fill-rule:nonzero;fill:rgb(10.112%,40.585327%,73.280334%);fill-opacity:1;" d="M 2.308594 113.882812 L 130.714844 113.882812 L 130.714844 2.480469 L 2.308594 2.480469 Z M 2.308594 113.882812 "/>
<path style=" stroke:none;fill-rule:nonzero;fill:rgb(100%,100%,100%);fill-opacity:1;" d="M 49.082031 86.878906 L 27.566406 99.296875 L 27.566406 107.800781 L 19.0625 107.800781 L 19.0625 35.515625 L 12.910156 36.992188 C 12.621094 37.0625 12.320312 36.9375 12.164062 36.679688 C 12.015625 36.421875 12.046875 36.097656 12.246094 35.878906 L 22.808594 24.148438 C 23.078125 23.847656 23.546875 23.847656 23.820312 24.148438 L 34.382812 35.878906 C 34.582031 36.097656 34.613281 36.421875 34.460938 36.679688 C 34.308594 36.9375 34.007812 37.0625 33.71875 36.992188 L 27.566406 35.515625 L 27.566406 44.019531 L 49.195312 56.507812 C 51.179688 55.835938 53.363281 56.714844 54.332031 58.570312 C 55.296875 60.433594 54.765625 62.722656 53.074219 63.960938 L 53.113281 79.386719 C 54.820312 80.644531 55.304688 83.042969 54.300781 84.910156 C 53.296875 86.773438 51.070312 87.613281 49.082031 86.878906 "/>
<path style=" stroke:none;fill-rule:nonzero;fill:rgb(100%,100%,100%);fill-opacity:1;" d="M 18.632812 18.519531 L 20.300781 18.519531 C 20.285156 18.265625 20.269531 17.992188 20.253906 17.699219 C 20.234375 17.429688 20.234375 17.140625 20.234375 16.851562 L 20.234375 9.769531 L 18.460938 9.769531 L 18.460938 14.902344 C 18.460938 15.585938 18.324219 16.132812 18.070312 16.539062 C 17.8125 16.953125 17.386719 17.15625 16.824219 17.15625 C 16.363281 17.15625 16.039062 17.003906 15.816406 16.695312 C 15.59375 16.386719 15.476562 15.894531 15.476562 15.210938 L 15.476562 9.769531 L 13.703125 9.769531 L 13.703125 15.621094 C 13.703125 16.539062 13.90625 17.277344 14.316406 17.820312 C 14.722656 18.367188 15.371094 18.636719 16.261719 18.636719 C 16.855469 18.636719 17.335938 18.503906 17.691406 18.214844 C 18.035156 17.941406 18.308594 17.597656 18.527344 17.191406 L 18.5625 17.191406 L 18.632812 18.519531 "/>
<path style=" stroke:none;fill-rule:nonzero;fill:rgb(100%,100%,100%);fill-opacity:1;" d="M 22.417969 18.519531 L 28.195312 18.519531 L 28.195312 17.105469 L 24.238281 17.105469 L 28.09375 11.320312 L 28.09375 9.769531 L 22.535156 9.769531 L 22.535156 11.1875 L 26.304688 11.1875 L 22.417969 16.953125 L 22.417969 18.519531 "/>
<path style=" stroke:none;fill-rule:nonzero;fill:rgb(100%,100%,100%);fill-opacity:1;" d="M 31.53125 14.648438 L 36.527344 14.648438 L 36.527344 14.054688 C 36.527344 13.285156 36.445312 12.636719 36.289062 12.074219 C 36.136719 11.511719 35.914062 11.050781 35.625 10.691406 C 35.335938 10.332031 34.976562 10.078125 34.582031 9.90625 C 34.175781 9.738281 33.730469 9.648438 33.253906 9.648438 C 32.710938 9.648438 32.214844 9.753906 31.785156 9.976562 C 31.34375 10.195312 30.96875 10.519531 30.679688 10.914062 C 30.390625 11.320312 30.148438 11.800781 29.996094 12.363281 C 29.84375 12.925781 29.757812 13.539062 29.757812 14.207031 C 29.757812 14.835938 29.84375 15.433594 29.996094 15.980469 C 30.148438 16.527344 30.371094 16.984375 30.695312 17.378906 C 31.003906 17.769531 31.394531 18.078125 31.871094 18.300781 C 32.351562 18.535156 32.910156 18.636719 33.542969 18.636719 C 34.089844 18.636719 34.582031 18.585938 35.011719 18.46875 C 35.4375 18.351562 35.777344 18.230469 36.066406 18.109375 L 35.984375 16.628906 C 35.761719 16.78125 35.472656 16.933594 35.128906 17.085938 C 34.773438 17.242188 34.347656 17.328125 33.835938 17.328125 C 33.015625 17.328125 32.433594 17.105469 32.074219 16.644531 C 31.71875 16.203125 31.53125 15.535156 31.53125 14.648438 "/>
<path style=" stroke:none;fill-rule:nonzero;fill:rgb(100%,100%,100%);fill-opacity:1;" d="M 38.625 18.519531 L 40.398438 18.519531 L 40.398438 13.8125 C 40.398438 13.371094 40.449219 12.992188 40.550781 12.671875 C 40.65625 12.347656 40.792969 12.089844 40.960938 11.886719 C 41.132812 11.699219 41.339844 11.546875 41.558594 11.441406 C 41.78125 11.355469 42.003906 11.304688 42.257812 11.304688 C 42.359375 11.304688 42.464844 11.304688 42.546875 11.320312 C 42.632812 11.339844 42.734375 11.355469 42.820312 11.375 L 42.820312 9.667969 C 42.785156 9.667969 42.753906 9.667969 42.734375 9.648438 C 42.71875 9.648438 42.683594 9.648438 42.652344 9.648438 C 42.328125 9.648438 42.035156 9.683594 41.78125 9.769531 C 41.527344 9.855469 41.320312 9.976562 41.132812 10.128906 C 40.945312 10.28125 40.773438 10.453125 40.636719 10.640625 C 40.503906 10.828125 40.382812 11.03125 40.296875 11.253906 L 40.261719 11.253906 C 40.261719 11.1875 40.261719 11.085938 40.261719 10.945312 C 40.246094 10.8125 40.246094 10.65625 40.226562 10.503906 C 40.210938 10.351562 40.210938 10.214844 40.210938 10.078125 C 40.195312 9.941406 40.195312 9.839844 40.195312 9.769531 L 38.558594 9.769531 C 38.574219 10.027344 38.589844 10.296875 38.605469 10.574219 C 38.625 10.863281 38.625 11.152344 38.625 11.441406 L 38.625 18.519531 "/>
<path style=" stroke:none;fill-rule:nonzero;fill:rgb(100%,100%,100%);fill-opacity:1;" d="M 44.3125 18.519531 L 46.085938 18.519531 L 46.085938 13.335938 C 46.085938 12.652344 46.222656 12.105469 46.511719 11.714844 C 46.785156 11.320312 47.195312 11.132812 47.757812 11.132812 C 48.21875 11.132812 48.542969 11.289062 48.765625 11.59375 C 48.96875 11.902344 49.070312 12.398438 49.070312 13.078125 L 49.070312 18.519531 L 50.84375 18.519531 L 50.84375 12.671875 C 50.84375 11.75 50.640625 11.015625 50.230469 10.46875 C 49.824219 9.925781 49.175781 9.648438 48.285156 9.648438 C 47.773438 9.648438 47.332031 9.769531 46.9375 10.027344 C 46.546875 10.28125 46.238281 10.640625 46.019531 11.101562 L 45.984375 11.101562 C 45.984375 11.050781 45.984375 10.945312 45.984375 10.828125 C 45.96875 10.710938 45.96875 10.574219 45.949219 10.4375 C 45.933594 10.296875 45.933594 10.160156 45.933594 10.042969 C 45.914062 9.925781 45.914062 9.820312 45.914062 9.769531 L 44.246094 9.769531 C 44.261719 10.027344 44.277344 10.296875 44.292969 10.574219 C 44.3125 10.863281 44.3125 11.152344 44.3125 11.441406 L 44.3125 18.519531 "/>
<path style=" stroke:none;fill-rule:nonzero;fill:rgb(100%,100%,100%);fill-opacity:1;" d="M 7.164062 18.519531 L 12.910156 18.519531 L 12.910156 17.003906 L 9.003906 17.003906 L 9.003906 6.617188 L 7.164062 6.617188 L 7.164062 18.519531 "/>
<path style=" stroke:none;fill-rule:nonzero;fill:rgb(100%,100%,100%);fill-opacity:1;" d="M 61.5625 64.335938 L 63.992188 64.335938 C 64.441406 64.335938 64.839844 64.273438 65.183594 64.144531 C 65.527344 64.027344 65.808594 63.847656 66.050781 63.632812 C 66.296875 63.414062 66.476562 63.148438 66.601562 62.839844 C 66.71875 62.542969 66.78125 62.210938 66.78125 61.855469 C 66.78125 61.511719 66.730469 61.214844 66.640625 60.945312 C 66.539062 60.691406 66.410156 60.472656 66.257812 60.292969 C 66.089844 60.128906 65.910156 59.988281 65.71875 59.882812 C 65.515625 59.78125 65.3125 59.71875 65.105469 59.679688 L 65.105469 59.65625 C 65.296875 59.589844 65.476562 59.515625 65.65625 59.398438 C 65.824219 59.296875 65.976562 59.167969 66.117188 59.003906 C 66.257812 58.835938 66.359375 58.644531 66.449219 58.410156 C 66.539062 58.195312 66.578125 57.925781 66.578125 57.632812 C 66.578125 56.914062 66.371094 56.367188 65.964844 55.980469 C 65.539062 55.597656 64.886719 55.40625 63.992188 55.40625 L 61.5625 55.40625 L 61.5625 64.335938 "/>
<path style=" stroke:none;fill-rule:nonzero;fill:rgb(100%,100%,100%);fill-opacity:1;" d="M 72.066406 64.335938 L 73.320312 64.335938 C 73.308594 64.144531 73.292969 63.941406 73.28125 63.722656 C 73.269531 63.515625 73.269531 63.300781 73.269531 63.082031 L 73.269531 57.773438 L 71.9375 57.773438 L 71.9375 61.625 C 71.9375 62.136719 71.835938 62.542969 71.644531 62.851562 C 71.453125 63.160156 71.132812 63.3125 70.710938 63.3125 C 70.363281 63.3125 70.121094 63.195312 69.957031 62.96875 C 69.789062 62.734375 69.699219 62.363281 69.699219 61.855469 L 69.699219 57.773438 L 68.371094 57.773438 L 68.371094 62.160156 C 68.371094 62.851562 68.523438 63.402344 68.832031 63.8125 C 69.136719 64.21875 69.621094 64.421875 70.289062 64.421875 C 70.734375 64.421875 71.09375 64.324219 71.359375 64.105469 C 71.617188 63.902344 71.824219 63.644531 71.988281 63.339844 L 72.015625 63.339844 L 72.066406 64.335938 "/>
<path style=" stroke:none;fill-rule:nonzero;fill:rgb(100%,100%,100%);fill-opacity:1;" d="M 79.273438 64.15625 L 79.195312 63.03125 C 79.054688 63.121094 78.863281 63.195312 78.644531 63.261719 C 78.429688 63.328125 78.199219 63.363281 77.980469 63.363281 C 77.40625 63.363281 76.96875 63.160156 76.660156 62.75 C 76.34375 62.339844 76.191406 61.789062 76.191406 61.097656 C 76.191406 60.292969 76.34375 59.707031 76.648438 59.320312 C 76.957031 58.9375 77.394531 58.746094 77.953125 58.746094 C 78.199219 58.746094 78.414062 58.769531 78.605469 58.835938 C 78.796875 58.898438 78.964844 58.964844 79.132812 59.054688 L 79.195312 57.9375 C 79.03125 57.875 78.835938 57.8125 78.59375 57.761719 C 78.351562 57.710938 78.109375 57.683594 77.863281 57.683594 C 77.367188 57.683594 76.917969 57.761719 76.535156 57.925781 C 76.152344 58.09375 75.832031 58.335938 75.578125 58.628906 C 75.320312 58.9375 75.128906 59.296875 75 59.71875 C 74.871094 60.140625 74.808594 60.585938 74.808594 61.085938 C 74.808594 61.546875 74.871094 61.980469 74.984375 62.390625 C 75.101562 62.800781 75.292969 63.160156 75.535156 63.453125 C 75.78125 63.746094 76.089844 63.992188 76.46875 64.15625 C 76.84375 64.335938 77.289062 64.421875 77.800781 64.421875 C 78.085938 64.421875 78.351562 64.398438 78.617188 64.34375 C 78.890625 64.285156 79.105469 64.21875 79.273438 64.15625 "/>
<path style=" stroke:none;fill-rule:nonzero;fill:rgb(100%,100%,100%);fill-opacity:1;" d="M 80.539062 64.335938 L 81.867188 64.335938 L 81.867188 60.445312 C 81.867188 59.933594 81.972656 59.527344 82.191406 59.230469 C 82.394531 58.9375 82.699219 58.796875 83.121094 58.796875 C 83.46875 58.796875 83.710938 58.910156 83.878906 59.140625 C 84.03125 59.375 84.105469 59.742188 84.105469 60.253906 L 84.105469 64.335938 L 85.4375 64.335938 L 85.4375 59.949219 C 85.4375 59.257812 85.285156 58.707031 84.976562 58.296875 C 84.667969 57.890625 84.183594 57.683594 83.519531 57.683594 C 83.085938 57.683594 82.738281 57.785156 82.496094 57.976562 C 82.238281 58.183594 82.035156 58.398438 81.894531 58.644531 L 81.867188 58.644531 L 81.867188 54.742188 L 80.539062 54.742188 L 80.539062 64.335938 "/>
<path style=" stroke:none;fill-rule:nonzero;fill:rgb(100%,100%,100%);fill-opacity:1;" d="M 87.363281 64.335938 L 88.695312 64.335938 L 88.695312 60.804688 C 88.695312 60.472656 88.734375 60.191406 88.808594 59.949219 C 88.886719 59.707031 88.988281 59.515625 89.117188 59.359375 C 89.246094 59.21875 89.398438 59.101562 89.566406 59.027344 C 89.730469 58.964844 89.898438 58.925781 90.089844 58.925781 C 90.164062 58.925781 90.242188 58.925781 90.304688 58.9375 C 90.371094 58.949219 90.449219 58.964844 90.511719 58.976562 L 90.511719 57.699219 C 90.484375 57.699219 90.460938 57.699219 90.449219 57.683594 C 90.4375 57.683594 90.410156 57.683594 90.386719 57.683594 C 90.140625 57.683594 89.925781 57.710938 89.730469 57.773438 C 89.539062 57.839844 89.386719 57.925781 89.246094 58.042969 C 89.105469 58.15625 88.976562 58.285156 88.875 58.425781 C 88.773438 58.566406 88.683594 58.722656 88.621094 58.886719 L 88.59375 58.886719 C 88.59375 58.835938 88.59375 58.757812 88.59375 58.65625 C 88.582031 58.554688 88.582031 58.4375 88.570312 58.324219 C 88.554688 58.210938 88.554688 58.105469 88.554688 58.003906 C 88.542969 57.902344 88.542969 57.824219 88.542969 57.773438 L 87.316406 57.773438 C 87.328125 57.964844 87.339844 58.171875 87.351562 58.375 C 87.363281 58.589844 87.363281 58.808594 87.363281 59.027344 L 87.363281 64.335938 "/>
<path style=" stroke:none;fill-rule:nonzero;fill:rgb(100%,100%,100%);fill-opacity:1;" d="M 94.914062 64.335938 L 96.117188 64.335938 C 96.105469 64.21875 96.078125 64.054688 96.066406 63.863281 C 96.050781 63.671875 96.039062 63.464844 96.039062 63.25 L 96.039062 60.113281 C 96.039062 59.679688 96.003906 59.320312 95.910156 59.039062 C 95.824219 58.757812 95.679688 58.527344 95.515625 58.335938 C 95.375 58.171875 95.144531 58.015625 94.839844 57.875 C 94.53125 57.746094 94.136719 57.683594 93.636719 57.683594 C 93.210938 57.683594 92.84375 57.734375 92.523438 57.839844 C 92.203125 57.9375 91.90625 58.054688 91.664062 58.195312 L 91.769531 59.335938 C 91.933594 59.167969 92.175781 59.015625 92.496094 58.875 C 92.804688 58.746094 93.136719 58.683594 93.507812 58.683594 C 93.980469 58.683594 94.3125 58.808594 94.515625 59.066406 C 94.621094 59.195312 94.695312 59.335938 94.734375 59.488281 C 94.773438 59.65625 94.785156 59.832031 94.785156 60.039062 L 94.785156 60.304688 L 94.3125 60.304688 C 93.25 60.304688 92.433594 60.484375 91.882812 60.832031 C 91.332031 61.191406 91.050781 61.75 91.050781 62.519531 C 91.050781 62.828125 91.101562 63.09375 91.207031 63.339844 C 91.304688 63.582031 91.449219 63.773438 91.628906 63.941406 C 91.792969 64.105469 91.996094 64.21875 92.226562 64.296875 C 92.457031 64.386719 92.703125 64.421875 92.96875 64.421875 C 93.457031 64.421875 93.839844 64.324219 94.136719 64.117188 C 94.414062 63.925781 94.648438 63.695312 94.8125 63.441406 L 94.839844 63.441406 C 94.839844 63.480469 94.839844 63.542969 94.847656 63.632812 C 94.847656 63.722656 94.847656 63.8125 94.863281 63.902344 C 94.875 63.992188 94.875 64.082031 94.890625 64.15625 C 94.902344 64.246094 94.902344 64.296875 94.914062 64.335938 "/>
<path style=" stroke:none;fill-rule:nonzero;fill:rgb(100%,100%,100%);fill-opacity:1;" d="M 97.835938 64.335938 L 99.164062 64.335938 L 99.164062 57.773438 L 97.835938 57.773438 L 97.835938 64.335938 "/>
<path style=" stroke:none;fill-rule:nonzero;fill:rgb(100%,100%,100%);fill-opacity:1;" d="M 97.796875 56.457031 L 99.203125 56.457031 L 99.203125 55.035156 L 97.796875 55.035156 L 97.796875 56.457031 "/>
<path style=" stroke:none;fill-rule:nonzero;fill:rgb(100%,100%,100%);fill-opacity:1;" d="M 101.023438 64.335938 L 102.355469 64.335938 L 102.355469 60.445312 C 102.355469 59.933594 102.460938 59.527344 102.675781 59.230469 C 102.878906 58.9375 103.1875 58.796875 103.609375 58.796875 C 103.953125 58.796875 104.199219 58.910156 104.363281 59.140625 C 104.519531 59.375 104.59375 59.742188 104.59375 60.253906 L 104.59375 64.335938 L 105.925781 64.335938 L 105.925781 59.949219 C 105.925781 59.257812 105.769531 58.707031 105.464844 58.296875 C 105.15625 57.890625 104.671875 57.683594 104.007812 57.683594 C 103.621094 57.683594 103.289062 57.773438 102.996094 57.964844 C 102.699219 58.15625 102.46875 58.425781 102.304688 58.769531 L 102.28125 58.769531 C 102.28125 58.730469 102.28125 58.65625 102.28125 58.566406 C 102.265625 58.476562 102.265625 58.375 102.253906 58.273438 C 102.242188 58.171875 102.242188 58.066406 102.242188 57.976562 C 102.226562 57.890625 102.226562 57.8125 102.226562 57.773438 L 100.976562 57.773438 C 100.984375 57.964844 101 58.171875 101.011719 58.375 C 101.023438 58.589844 101.023438 58.808594 101.023438 59.027344 L 101.023438 64.335938 "/>
<path style=" stroke:none;fill-rule:nonzero;fill:rgb(100%,100%,100%);fill-opacity:1;" d="M 64.820312 87.378906 L 66.148438 87.378906 L 66.148438 83.488281 C 66.148438 82.976562 66.253906 82.570312 66.46875 82.273438 C 66.675781 81.980469 66.980469 81.839844 67.40625 81.839844 C 67.746094 81.839844 67.992188 81.953125 68.15625 82.183594 C 68.3125 82.414062 68.390625 82.785156 68.390625 83.296875 L 68.390625 87.378906 L 69.71875 87.378906 L 69.71875 82.992188 C 69.71875 82.300781 69.566406 81.75 69.257812 81.339844 C 68.953125 80.929688 68.464844 80.726562 67.800781 80.726562 C 67.414062 80.726562 67.082031 80.816406 66.789062 81.007812 C 66.496094 81.199219 66.265625 81.46875 66.097656 81.8125 L 66.074219 81.8125 C 66.074219 81.773438 66.074219 81.699219 66.074219 81.609375 C 66.0625 81.519531 66.0625 81.417969 66.046875 81.316406 C 66.035156 81.214844 66.035156 81.109375 66.035156 81.019531 C 66.023438 80.929688 66.023438 80.855469 66.023438 80.816406 L 64.769531 80.816406 C 64.78125 81.007812 64.792969 81.214844 64.804688 81.417969 C 64.820312 81.636719 64.820312 81.851562 64.820312 82.070312 L 64.820312 87.378906 "/>
<path style=" stroke:none;fill-rule:nonzero;fill:rgb(100%,100%,100%);fill-opacity:1;" d="M 72.699219 87.378906 L 74.183594 87.378906 L 75.386719 82.058594 L 75.410156 82.058594 L 76.691406 87.378906 L 78.160156 87.378906 L 79.886719 80.816406 L 78.582031 80.816406 L 77.445312 86.109375 L 77.417969 86.109375 L 76.226562 80.816406 L 74.679688 80.816406 L 73.503906 86.109375 L 73.476562 86.109375 L 72.328125 80.816406 L 70.949219 80.816406 L 72.699219 87.378906 "/>
<path style=" stroke:none;fill-rule:nonzero;fill:rgb(100%,100%,100%);fill-opacity:1;" d="M 81.160156 87.378906 L 82.488281 87.378906 L 82.488281 80.816406 L 81.160156 80.816406 L 81.160156 87.378906 "/>
<path style=" stroke:none;fill-rule:nonzero;fill:rgb(100%,100%,100%);fill-opacity:1;" d="M 81.121094 79.496094 L 82.527344 79.496094 L 82.527344 78.078125 L 81.121094 78.078125 L 81.121094 79.496094 "/>
<path style=" stroke:none;fill-rule:nonzero;fill:rgb(100%,100%,100%);fill-opacity:1;" d="M 84.355469 87.378906 L 85.683594 87.378906 L 85.683594 77.785156 L 84.355469 77.785156 L 84.355469 87.378906 "/>
<path style=" stroke:none;fill-rule:nonzero;fill:rgb(100%,100%,100%);fill-opacity:1;" d="M 61.5625 87.378906 L 62.945312 87.378906 L 62.945312 78.449219 L 61.5625 78.449219 L 61.5625 87.378906 "/>
<path style=" stroke:none;fill-rule:nonzero;fill:rgb(10.112%,40.585327%,73.280334%);fill-opacity:1;" d="M 46.328125 82.566406 L 27.578125 93.398438 L 27.578125 49.90625 L 46.324219 60.730469 C 46.382812 61.984375 46.992188 63.148438 47.988281 63.910156 L 47.984375 79.507812 C 47.027344 80.246094 46.421875 81.355469 46.328125 82.566406 "/>
<path style=" stroke:none;fill-rule:nonzero;fill:rgb(10.112%,40.585327%,73.280334%);fill-opacity:1;" d="M 31.53125 13.4375 C 31.546875 12.636719 31.703125 12.003906 31.992188 11.5625 C 32.28125 11.132812 32.691406 10.914062 33.203125 10.914062 C 34.261719 10.914062 34.789062 11.75 34.789062 13.4375 L 31.53125 13.4375 "/>
<path style=" stroke:none;fill-rule:nonzero;fill:rgb(10.112%,40.585327%,73.280334%);fill-opacity:1;" d="M 62.917969 63.25 L 62.917969 60.269531 L 63.890625 60.269531 C 64.160156 60.269531 64.375 60.304688 64.570312 60.382812 C 64.761719 60.460938 64.914062 60.5625 65.042969 60.703125 C 65.15625 60.84375 65.246094 60.996094 65.3125 61.175781 C 65.375 61.355469 65.402344 61.546875 65.402344 61.765625 C 65.402344 62.1875 65.273438 62.542969 65.019531 62.828125 C 64.761719 63.109375 64.375 63.25 63.851562 63.25 L 62.917969 63.25 "/>
<path style=" stroke:none;fill-rule:nonzero;fill:rgb(10.112%,40.585327%,73.280334%);fill-opacity:1;" d="M 94.785156 61.125 L 94.785156 61.714844 C 94.785156 62.238281 94.671875 62.660156 94.441406 62.980469 C 94.199219 63.3125 93.851562 63.480469 93.378906 63.480469 C 93.03125 63.480469 92.777344 63.375 92.597656 63.183594 C 92.417969 62.992188 92.332031 62.722656 92.332031 62.402344 C 92.332031 61.96875 92.496094 61.648438 92.84375 61.429688 C 93.1875 61.214844 93.6875 61.113281 94.339844 61.113281 C 94.414062 61.113281 94.492188 61.113281 94.582031 61.113281 C 94.671875 61.113281 94.746094 61.113281 94.785156 61.125 "/>
<path style=" stroke:none;fill-rule:nonzero;fill:rgb(10.112%,40.585327%,73.280334%);fill-opacity:1;" d="M 62.917969 59.207031 L 62.917969 56.46875 L 63.75 56.46875 C 64.25 56.46875 64.621094 56.582031 64.863281 56.828125 C 65.105469 57.070312 65.21875 57.390625 65.21875 57.773438 C 65.21875 58.195312 65.09375 58.542969 64.839844 58.808594 C 64.570312 59.078125 64.1875 59.207031 63.675781 59.207031 L 62.917969 59.207031 "/>
<path style=" stroke:none;fill-rule:nonzero;fill:rgb(93.527222%,17.272949%,18.882751%);fill-opacity:1;" d="M 27.570312 82.84375 L 19.058594 82.84375 L 19.058594 60.730469 L 27.570312 60.730469 L 27.570312 82.84375 "/>
</g>
</svg>
