<?xml version="1.0" encoding="UTF-8"?>
<svg xmlns="http://www.w3.org/2000/svg" xmlns:xlink="http://www.w3.org/1999/xlink" width="37pt" height="31pt" viewBox="0 0 37 31" version="1.1">
<g id="surface1">
<path style=" stroke:none;fill-rule:nonzero;fill:rgb(100%,100%,100%);fill-opacity:1;" d="M 0.792969 30.074219 L 36.226562 30.074219 L 36.226562 0.3125 L 0.792969 0.3125 Z M 0.792969 30.074219 "/>
<path style="fill:none;stroke-width:2.835;stroke-linecap:butt;stroke-linejoin:miter;stroke:rgb(13.729858%,12.159729%,12.548828%);stroke-opacity:1;stroke-miterlimit:4;" d="M 7.929688 9.257812 L 362.265625 9.257812 L 362.265625 306.875 L 7.929688 306.875 L 7.929688 9.257812 " transform="matrix(0.1,0,0,-0.1,0,31)"/>
<path style=" stroke:none;fill-rule:nonzero;fill:rgb(10.112%,40.585327%,73.280334%);fill-opacity:1;" d="M 2.191406 28.671875 L 34.789062 28.671875 L 34.789062 1.746094 L 2.191406 1.746094 Z M 2.191406 28.671875 "/>
<path style=" stroke:none;fill-rule:nonzero;fill:rgb(100%,100%,100%);fill-opacity:1;" d="M 8.65625 25.160156 L 19.484375 25.160156 L 19.484375 22.636719 L 12.039062 22.636719 L 12.777344 21.839844 C 13.660156 20.871094 14.515625 19.878906 15.308594 18.851562 C 16.078125 17.855469 16.757812 16.835938 17.355469 15.835938 C 17.953125 14.84375 18.40625 13.878906 18.742188 12.910156 C 19.085938 11.972656 19.253906 11.0625 19.253906 10.210938 C 19.253906 9.496094 19.144531 8.847656 18.945312 8.21875 C 18.714844 7.59375 18.378906 7.054688 17.953125 6.570312 C 17.5 6.117188 16.929688 5.746094 16.273438 5.460938 C 15.59375 5.207031 14.796875 5.066406 13.886719 5.066406 C 12.949219 5.066406 12.070312 5.179688 11.300781 5.375 C 10.503906 5.605469 9.765625 5.890625 9.109375 6.230469 L 9.425781 9.132812 C 9.882812 8.761719 10.445312 8.394531 11.101562 8.078125 C 11.757812 7.765625 12.496094 7.59375 13.320312 7.59375 C 14.199219 7.59375 14.910156 7.878906 15.394531 8.476562 C 15.878906 9.074219 16.132812 9.8125 16.132812 10.75 C 16.132812 11.40625 15.988281 12.113281 15.707031 12.882812 C 15.394531 13.648438 14.996094 14.472656 14.457031 15.296875 C 13.917969 16.152344 13.289062 17.03125 12.582031 17.972656 C 11.839844 18.90625 11.042969 19.878906 10.160156 20.871094 L 8.65625 22.605469 L 8.65625 25.160156 "/>
<path style=" stroke:none;fill-rule:nonzero;fill:rgb(100%,100%,100%);fill-opacity:1;" d="M 25.269531 25.160156 L 28.28125 25.160156 L 28.28125 5.320312 L 25.636719 5.320312 L 21.203125 9.355469 L 22.683594 11.488281 L 25.269531 8.847656 L 25.269531 25.160156 "/>
</g>
</svg>
