<?xml version="1.0" encoding="UTF-8"?>
<svg xmlns="http://www.w3.org/2000/svg" xmlns:xlink="http://www.w3.org/1999/xlink" width="101pt" height="51pt" viewBox="0 0 101 51" version="1.1">
<g id="surface1">
<path style=" stroke:none;fill-rule:nonzero;fill:rgb(100%,100%,100%);fill-opacity:1;" d="M 0.878906 50.011719 L 100.089844 50.011719 L 100.089844 0.40625 L 0.878906 0.40625 Z M 0.878906 50.011719 "/>
<path style="fill:none;stroke-width:2.835;stroke-linecap:butt;stroke-linejoin:miter;stroke:rgb(13.729858%,12.159729%,12.548828%);stroke-opacity:1;stroke-miterlimit:4;" d="M 8.789062 9.882812 L 1000.898438 9.882812 L 1000.898438 505.9375 L 8.789062 505.9375 L 8.789062 9.882812 " transform="matrix(0.1,0,0,-0.1,0,51)"/>
<path style=" stroke:none;fill-rule:nonzero;fill:rgb(13.729858%,12.159729%,12.548828%);fill-opacity:1;" d="M 13.632812 2.53125 C 7.761719 2.53125 3.003906 7.289062 3.003906 13.160156 L 3.003906 37.253906 C 3.003906 43.125 7.761719 47.886719 13.632812 47.886719 L 87.335938 47.886719 C 93.207031 47.886719 97.964844 43.125 97.964844 37.253906 L 97.964844 13.160156 C 97.964844 7.289062 93.207031 2.53125 87.335938 2.53125 L 13.632812 2.53125 "/>
<path style=" stroke:none;fill-rule:nonzero;fill:rgb(100%,100%,100%);fill-opacity:1;" d="M 13.636719 5.367188 C 9.332031 5.367188 5.839844 8.855469 5.839844 13.160156 L 5.839844 37.253906 C 5.839844 41.5625 9.332031 45.050781 13.636719 45.050781 L 87.335938 45.050781 C 91.636719 45.050781 95.128906 41.5625 95.128906 37.253906 L 95.128906 13.160156 C 95.128906 8.855469 91.636719 5.367188 87.335938 5.367188 L 13.636719 5.367188 "/>
<path style=" stroke:none;fill-rule:nonzero;fill:rgb(13.729858%,12.159729%,12.548828%);fill-opacity:1;" d="M 33.289062 37.609375 L 26.203125 37.609375 L 26.203125 29.667969 C 26.203125 26.121094 24.433594 22.804688 21.484375 20.832031 L 20.457031 20.144531 L 19.023438 24.113281 L 18.921875 24.289062 L 18.78125 24.433594 L 18.609375 24.527344 L 18.410156 24.570312 L 18.296875 24.570312 L 18.1875 24.554688 L 18.085938 24.519531 L 17.984375 24.46875 L 17.894531 24.402344 L 17.816406 24.324219 L 17.75 24.234375 L 17.699219 24.132812 L 13.398438 13.785156 L 13.351562 13.613281 L 13.351562 13.441406 L 13.386719 13.273438 L 13.464844 13.113281 L 13.582031 12.984375 L 13.722656 12.886719 L 13.886719 12.828125 L 14.058594 12.808594 L 25.449219 12.828125 L 25.609375 12.847656 L 25.753906 12.910156 L 25.875 13.007812 L 25.972656 13.136719 L 26.011719 13.222656 L 26.039062 13.320312 L 26.046875 13.414062 L 26.042969 13.507812 L 26.019531 13.601562 L 25.980469 13.691406 L 25.929688 13.773438 L 25.863281 13.851562 L 22.761719 16.636719 L 25.90625 18.699219 C 28.304688 20.273438 29.746094 22.945312 29.746094 25.808594 C 29.746094 22.941406 31.195312 20.265625 33.59375 18.695312 L 36.730469 16.636719 L 33.628906 13.851562 L 33.5625 13.773438 L 33.511719 13.691406 L 33.472656 13.601562 L 33.449219 13.507812 L 33.445312 13.414062 L 33.453125 13.320312 L 33.476562 13.222656 L 33.519531 13.136719 L 33.613281 13.007812 L 33.738281 12.910156 L 33.886719 12.847656 L 34.042969 12.828125 L 45.433594 12.808594 L 45.605469 12.828125 L 45.765625 12.886719 L 45.910156 12.984375 L 46.027344 13.113281 L 46.101562 13.273438 L 46.140625 13.441406 L 46.140625 13.613281 L 46.09375 13.785156 L 41.792969 24.132812 L 41.742188 24.234375 L 41.675781 24.324219 L 41.59375 24.402344 L 41.507812 24.46875 L 41.40625 24.519531 L 41.300781 24.554688 L 41.191406 24.570312 L 41.078125 24.570312 L 40.882812 24.527344 L 40.707031 24.433594 L 40.566406 24.289062 L 40.46875 24.113281 L 39.03125 20.144531 L 37.996094 20.839844 C 35.058594 22.804688 33.289062 26.121094 33.289062 29.667969 L 33.289062 37.609375 "/>
<path style=" stroke:none;fill-rule:nonzero;fill:rgb(13.729858%,12.159729%,12.548828%);fill-opacity:1;" d="M 54.652344 36.902344 C 55.433594 37.160156 56.300781 37.40625 57.257812 37.609375 C 58.175781 37.820312 59.21875 37.941406 60.382812 37.957031 C 62.667969 37.957031 64.613281 37.335938 66.246094 36.085938 C 67.859375 34.886719 68.695312 33.03125 68.726562 30.53125 C 68.726562 29.417969 68.574219 28.5 68.277344 27.769531 C 67.964844 27.058594 67.566406 26.484375 67.082031 26.085938 C 66.59375 25.667969 66.039062 25.339844 65.429688 25.097656 C 64.839844 24.871094 64.25 24.679688 63.675781 24.523438 L 63.675781 24.453125 C 64.582031 24.386719 65.550781 23.953125 66.609375 23.152344 C 67.113281 22.71875 67.53125 22.148438 67.859375 21.402344 C 68.171875 20.691406 68.328125 19.804688 68.328125 18.710938 C 68.3125 16.664062 67.652344 15.101562 66.351562 14.042969 C 65.03125 12.980469 63.296875 12.445312 61.125 12.445312 C 59.804688 12.445312 58.660156 12.566406 57.691406 12.808594 C 56.753906 13.019531 55.96875 13.242188 55.34375 13.484375 L 55.589844 17.269531 C 57.132812 16.488281 58.660156 16.074219 60.171875 16.054688 C 61.230469 16.054688 62.132812 16.316406 62.898438 16.835938 C 63.644531 17.375 64.042969 18.226562 64.058594 19.351562 C 64.058594 20.097656 63.902344 20.722656 63.609375 21.226562 C 63.277344 21.730469 62.828125 22.113281 62.289062 22.40625 C 61.75 22.683594 61.125 22.875 60.449219 22.960938 C 59.753906 23.082031 59.042969 23.152344 58.316406 23.152344 L 57.566406 23.152344 L 57.566406 26.589844 C 58.089844 26.519531 58.695312 26.484375 59.371094 26.484375 C 60.589844 26.484375 61.679688 26.746094 62.65625 27.265625 C 63.625 27.804688 64.128906 28.792969 64.179688 30.21875 C 64.164062 31.503906 63.746094 32.511719 62.929688 33.238281 C 62.132812 33.984375 61.074219 34.347656 59.773438 34.347656 C 58.644531 34.347656 57.671875 34.191406 56.875 33.878906 C 56.058594 33.585938 55.398438 33.324219 54.910156 33.097656 L 54.652344 36.902344 "/>
<path style=" stroke:none;fill-rule:nonzero;fill:rgb(13.729858%,12.159729%,12.548828%);fill-opacity:1;" d="M 76.167969 24.785156 L 74.933594 25.394531 C 73.960938 25.828125 73.148438 26.539062 72.503906 27.507812 C 71.84375 28.480469 71.515625 29.660156 71.515625 31.070312 C 71.515625 33.066406 72.191406 34.695312 73.546875 35.980469 C 74.882812 37.28125 76.707031 37.941406 79.011719 37.957031 C 81.253906 37.957031 83.074219 37.386719 84.496094 36.222656 C 85.921875 35.058594 86.648438 33.308594 86.667969 30.929688 C 86.648438 29.488281 86.285156 28.257812 85.589844 27.265625 C 84.878906 26.3125 84.011719 25.566406 82.953125 24.992188 L 82.050781 24.492188 C 83.230469 23.882812 84.183594 23.066406 84.898438 22.042969 C 85.605469 21.019531 85.957031 19.839844 85.957031 18.484375 C 85.902344 16.488281 85.226562 14.976562 83.890625 13.9375 C 82.570312 12.949219 80.988281 12.445312 79.167969 12.445312 C 77.101562 12.445312 75.4375 13 74.1875 14.109375 C 72.902344 15.257812 72.242188 16.886719 72.226562 19.023438 C 72.226562 20.429688 72.574219 21.589844 73.285156 22.511719 C 73.980469 23.429688 74.933594 24.195312 76.167969 24.785156 "/>
<path style=" stroke:none;fill-rule:nonzero;fill:rgb(100%,100%,100%);fill-opacity:1;" d="M 79.410156 23.222656 C 79.011719 22.960938 78.648438 22.683594 78.300781 22.40625 C 77.933594 22.148438 77.574219 21.851562 77.257812 21.539062 C 76.582031 20.933594 76.234375 20.117188 76.21875 19.09375 C 76.21875 18.03125 76.515625 17.183594 77.121094 16.574219 C 77.640625 15.96875 78.335938 15.671875 79.167969 15.671875 C 81.058594 15.722656 81.996094 16.816406 81.964844 18.917969 C 81.945312 19.960938 81.652344 20.808594 81.113281 21.46875 C 80.886719 21.800781 80.609375 22.113281 80.296875 22.40625 C 79.96875 22.683594 79.671875 22.960938 79.410156 23.222656 "/>
<path style=" stroke:none;fill-rule:nonzero;fill:rgb(100%,100%,100%);fill-opacity:1;" d="M 78.839844 26.277344 L 79.742188 26.851562 C 80.679688 27.390625 81.375 27.960938 81.808594 28.550781 C 82.207031 29.15625 82.398438 29.941406 82.398438 30.894531 C 82.398438 32.058594 82.117188 32.976562 81.582031 33.671875 C 81.027344 34.382812 80.195312 34.730469 79.082031 34.730469 C 78.007812 34.730469 77.191406 34.382812 76.636719 33.671875 C 76.0625 32.996094 75.785156 32.125 75.785156 31.035156 C 75.785156 29.261719 76.53125 27.875 78.023438 26.886719 L 78.839844 26.277344 "/>
</g>
</svg>
