<?xml version="1.0" encoding="UTF-8"?>
<svg xmlns="http://www.w3.org/2000/svg" xmlns:xlink="http://www.w3.org/1999/xlink" width="115pt" height="114pt" viewBox="0 0 115 114" version="1.1">
<g id="surface1">
<path style=" stroke:none;fill-rule:nonzero;fill:rgb(10.112%,40.585327%,73.280334%);fill-opacity:1;" d="M 0.820312 113.871094 L 114.214844 113.871094 L 114.214844 0.476562 L 0.820312 0.476562 Z M 0.820312 113.871094 "/>
<path style=" stroke:none;fill-rule:nonzero;fill:rgb(100%,100%,100%);fill-opacity:1;" d="M 3.078125 105.945312 C 3.078125 109.074219 5.617188 111.613281 8.746094 111.613281 L 106.265625 111.613281 C 109.394531 111.613281 111.933594 109.074219 111.933594 105.945312 L 111.933594 8.425781 C 111.933594 5.296875 109.394531 2.757812 106.265625 2.757812 L 8.746094 2.757812 C 5.613281 2.757812 3.078125 5.296875 3.078125 8.425781 L 3.078125 105.945312 "/>
<path style=" stroke:none;fill-rule:nonzero;fill:rgb(10.112%,40.585327%,73.280334%);fill-opacity:1;" d="M 4.757812 105.917969 C 4.757812 108.109375 6.535156 109.886719 8.726562 109.886719 L 106.246094 109.886719 C 108.4375 109.886719 110.21875 108.109375 110.21875 105.917969 L 110.21875 8.394531 C 110.21875 6.203125 108.4375 4.425781 106.246094 4.425781 L 8.726562 4.425781 C 6.539062 4.425781 4.757812 6.203125 4.757812 8.394531 L 4.757812 105.917969 "/>
<path style=" stroke:none;fill-rule:nonzero;fill:rgb(100%,100%,100%);fill-opacity:1;" d="M 61.785156 22.5 L 74.015625 31.398438 L 14.96875 59.394531 L 26.113281 78.703125 L 79.882812 41.566406 L 81.472656 56.605469 C 81.597656 57.78125 82.597656 58.703125 83.808594 58.703125 C 84.722656 58.703125 85.523438 58.175781 85.90625 57.410156 L 102.785156 23.828125 C 102.949219 23.511719 103.035156 23.15625 103.035156 22.773438 C 103.035156 21.523438 102.0625 20.507812 100.832031 20.429688 L 63.304688 18.261719 C 63.257812 18.257812 63.214844 18.253906 63.167969 18.253906 C 61.871094 18.253906 60.820312 19.304688 60.820312 20.605469 C 60.820312 21.378906 61.199219 22.070312 61.785156 22.5 "/>
<path style=" stroke:none;fill-rule:nonzero;fill:rgb(100%,100%,100%);fill-opacity:1;" d="M 14.996094 101.097656 L 17.148438 101.097656 L 18.203125 97.617188 L 23.234375 97.617188 L 24.289062 101.097656 L 26.519531 101.097656 L 22 87.210938 L 19.65625 87.210938 L 14.996094 101.097656 "/>
<path style=" stroke:none;fill-rule:nonzero;fill:rgb(100%,100%,100%);fill-opacity:1;" d="M 27.53125 87.210938 L 27.53125 96.085938 C 27.53125 96.761719 27.570312 97.339844 27.671875 97.816406 C 27.769531 98.316406 27.929688 98.773438 28.167969 99.210938 C 28.507812 99.847656 29.023438 100.34375 29.679688 100.703125 C 30.335938 101.082031 31.132812 101.257812 32.070312 101.257812 C 33.003906 101.257812 33.800781 101.082031 34.457031 100.703125 C 35.113281 100.324219 35.628906 99.828125 35.96875 99.191406 C 36.207031 98.753906 36.367188 98.292969 36.464844 97.816406 C 36.566406 97.339844 36.605469 96.761719 36.605469 96.085938 L 36.605469 87.210938 L 34.457031 87.210938 L 34.457031 96.226562 C 34.457031 97.359375 34.257812 98.175781 33.859375 98.710938 C 33.441406 99.25 32.84375 99.53125 32.070312 99.53125 C 30.476562 99.53125 29.679688 98.433594 29.679688 96.226562 L 29.679688 87.210938 L 27.53125 87.210938 "/>
<path style=" stroke:none;fill-rule:nonzero;fill:rgb(100%,100%,100%);fill-opacity:1;" d="M 39.710938 100.660156 C 40.070312 100.863281 40.507812 101 41.023438 101.117188 C 41.539062 101.21875 42.117188 101.257812 42.753906 101.257812 C 44.089844 101.257812 45.160156 100.902344 45.9375 100.183594 C 46.714844 99.46875 47.09375 98.472656 47.09375 97.199219 C 47.09375 96.601562 47.011719 96.085938 46.835938 95.667969 C 46.65625 95.25 46.398438 94.871094 46.097656 94.554688 C 45.796875 94.234375 45.441406 93.9375 45.023438 93.675781 C 44.605469 93.417969 44.167969 93.160156 43.710938 92.902344 C 43.371094 92.703125 43.074219 92.523438 42.832031 92.34375 C 42.578125 92.164062 42.378906 92.007812 42.238281 91.828125 C 42.078125 91.667969 41.957031 91.488281 41.898438 91.289062 C 41.839844 91.109375 41.800781 90.890625 41.800781 90.65625 C 41.800781 90.113281 41.976562 89.660156 42.335938 89.320312 C 42.695312 88.980469 43.191406 88.800781 43.847656 88.800781 C 44.347656 88.800781 44.824219 88.863281 45.242188 88.980469 C 45.660156 89.121094 46.019531 89.261719 46.335938 89.417969 L 46.398438 87.507812 C 46.136719 87.410156 45.761719 87.289062 45.300781 87.191406 C 44.824219 87.09375 44.285156 87.03125 43.691406 87.03125 C 43.132812 87.03125 42.613281 87.109375 42.117188 87.25 C 41.621094 87.410156 41.183594 87.648438 40.804688 87.949219 C 40.425781 88.265625 40.128906 88.644531 39.910156 89.101562 C 39.691406 89.558594 39.570312 90.078125 39.570312 90.671875 C 39.570312 91.289062 39.648438 91.785156 39.832031 92.207031 C 40.007812 92.625 40.246094 93 40.546875 93.300781 C 40.84375 93.617188 41.183594 93.898438 41.601562 94.136719 C 42 94.394531 42.4375 94.652344 42.894531 94.933594 C 43.273438 95.152344 43.589844 95.371094 43.847656 95.546875 C 44.109375 95.746094 44.304688 95.945312 44.46875 96.125 C 44.605469 96.304688 44.722656 96.503906 44.785156 96.703125 C 44.84375 96.921875 44.863281 97.140625 44.863281 97.398438 C 44.863281 98.035156 44.644531 98.535156 44.226562 98.910156 C 43.808594 99.289062 43.253906 99.488281 42.578125 99.488281 C 42.019531 99.488281 41.503906 99.390625 41.003906 99.191406 C 40.507812 99.011719 40.109375 98.8125 39.789062 98.613281 L 39.710938 100.660156 "/>
<path style=" stroke:none;fill-rule:nonzero;fill:rgb(100%,100%,100%);fill-opacity:1;" d="M 49.757812 101.097656 L 51.90625 101.097656 L 51.90625 94.851562 L 56.164062 94.851562 L 56.164062 93.082031 L 51.90625 93.082031 L 51.90625 88.980469 L 56.363281 88.980469 L 56.363281 87.210938 L 49.757812 87.210938 L 49.757812 101.097656 "/>
<path style=" stroke:none;fill-rule:nonzero;fill:rgb(100%,100%,100%);fill-opacity:1;" d="M 56.613281 101.097656 L 58.761719 101.097656 L 59.816406 97.617188 L 64.847656 97.617188 L 65.90625 101.097656 L 68.132812 101.097656 L 63.613281 87.210938 L 61.269531 87.210938 L 56.613281 101.097656 "/>
<path style=" stroke:none;fill-rule:nonzero;fill:rgb(100%,100%,100%);fill-opacity:1;" d="M 69.953125 101.097656 L 72.101562 101.097656 L 72.101562 94.8125 L 76.582031 94.8125 L 76.582031 101.097656 L 78.726562 101.097656 L 78.726562 87.210938 L 76.582031 87.210938 L 76.582031 93 L 72.101562 93 L 72.101562 87.210938 L 69.953125 87.210938 L 69.953125 101.097656 "/>
<path style=" stroke:none;fill-rule:nonzero;fill:rgb(100%,100%,100%);fill-opacity:1;" d="M 82.269531 101.097656 L 84.417969 101.097656 L 84.417969 94.972656 L 85.09375 94.972656 C 85.671875 94.972656 86.109375 95.070312 86.429688 95.289062 C 86.726562 95.507812 86.984375 95.90625 87.164062 96.484375 L 88.65625 101.097656 L 90.945312 101.097656 L 89.074219 95.667969 C 88.898438 95.152344 88.675781 94.792969 88.4375 94.574219 C 88.179688 94.375 87.882812 94.234375 87.542969 94.175781 L 87.542969 94.136719 C 88.460938 93.957031 89.136719 93.578125 89.59375 92.980469 C 90.050781 92.386719 90.269531 91.667969 90.269531 90.832031 C 90.269531 90.195312 90.167969 89.660156 89.96875 89.203125 C 89.773438 88.742188 89.492188 88.363281 89.136719 88.066406 C 88.777344 87.769531 88.359375 87.550781 87.859375 87.410156 C 87.363281 87.269531 86.804688 87.210938 86.210938 87.210938 L 82.269531 87.210938 L 82.269531 101.097656 "/>
<path style=" stroke:none;fill-rule:nonzero;fill:rgb(100%,100%,100%);fill-opacity:1;" d="M 94.757812 101.097656 L 96.90625 101.097656 L 96.90625 88.980469 L 100.03125 88.980469 L 100.03125 87.210938 L 91.613281 87.210938 L 91.613281 88.980469 L 94.757812 88.980469 L 94.757812 101.097656 "/>
<path style=" stroke:none;fill-rule:nonzero;fill:rgb(10.112%,40.585327%,73.280334%);fill-opacity:1;" d="M 18.71875 95.886719 L 20.769531 89.179688 L 20.808594 89.179688 L 22.738281 95.886719 L 18.71875 95.886719 "/>
<path style=" stroke:none;fill-rule:nonzero;fill:rgb(10.112%,40.585327%,73.280334%);fill-opacity:1;" d="M 60.332031 95.886719 L 62.382812 89.179688 L 62.421875 89.179688 L 64.351562 95.886719 L 60.332031 95.886719 "/>
<path style=" stroke:none;fill-rule:nonzero;fill:rgb(10.112%,40.585327%,73.280334%);fill-opacity:1;" d="M 84.417969 93.320312 L 84.417969 88.902344 L 85.632812 88.902344 C 86.367188 88.902344 86.964844 89.0625 87.402344 89.378906 C 87.824219 89.699219 88.039062 90.253906 88.039062 91.03125 C 88.039062 91.6875 87.839844 92.246094 87.445312 92.664062 C 87.027344 93.101562 86.429688 93.320312 85.613281 93.320312 L 84.417969 93.320312 "/>
</g>
</svg>
