<?xml version="1.0" encoding="UTF-8"?>
<svg xmlns="http://www.w3.org/2000/svg" xmlns:xlink="http://www.w3.org/1999/xlink" width="151pt" height="98pt" viewBox="0 0 151 98" version="1.1">
<g id="surface1">
<path style=" stroke:none;fill-rule:nonzero;fill:rgb(0%,49.674988%,27.331543%);fill-opacity:1;" d="M 0.683594 97.816406 L 150.351562 97.816406 L 150.351562 0.53125 L 0.683594 0.53125 Z M 0.683594 97.816406 "/>
<path style=" stroke:none;fill-rule:nonzero;fill:rgb(100%,100%,100%);fill-opacity:1;" d="M 148.652344 91.011719 C 148.652344 93.832031 146.367188 96.117188 143.550781 96.113281 L 7.484375 96.113281 C 4.667969 96.113281 2.382812 93.828125 2.386719 91.011719 L 2.386719 7.332031 C 2.382812 4.515625 4.667969 2.226562 7.488281 2.230469 L 143.550781 2.230469 C 146.367188 2.226562 148.652344 4.515625 148.652344 7.332031 L 148.652344 91.011719 "/>
<path style=" stroke:none;fill-rule:nonzero;fill:rgb(0%,49.674988%,27.331543%);fill-opacity:1;" d="M 146.609375 91.011719 L 146.609375 41.007812 L 4.425781 41.007812 L 4.425781 91.011719 C 4.425781 92.703125 5.796875 94.074219 7.484375 94.074219 L 143.550781 94.074219 C 145.242188 94.074219 146.613281 92.703125 146.609375 91.011719 "/>
<path style=" stroke:none;fill-rule:nonzero;fill:rgb(0%,49.674988%,27.331543%);fill-opacity:1;" d="M 146.609375 38.96875 L 4.425781 38.96875 L 4.425781 7.332031 C 4.425781 5.644531 5.796875 4.269531 7.488281 4.273438 L 143.550781 4.273438 C 145.242188 4.269531 146.613281 5.644531 146.609375 7.332031 L 146.609375 38.96875 "/>
<path style=" stroke:none;fill-rule:nonzero;fill:rgb(100%,100%,100%);fill-opacity:1;" d="M 12.890625 21.214844 C 12.371094 21.820312 12.9375 22.730469 13.707031 22.539062 L 20.835938 20.757812 L 20.019531 32.59375 L 26.140625 32.59375 L 25.324219 20.757812 L 32.453125 22.539062 C 33.222656 22.730469 33.789062 21.820312 33.269531 21.214844 L 23.699219 10.050781 C 23.375 9.671875 22.785156 9.671875 22.460938 10.050781 L 12.890625 21.214844 "/>
<path style=" stroke:none;fill-rule:nonzero;fill:rgb(100%,100%,100%);fill-opacity:1;" d="M 18.878906 55.679688 C 18.097656 55.53125 17.589844 56.476562 18.140625 57.046875 L 23.25 62.328125 L 12.589844 67.539062 L 15.652344 72.84375 L 25.492188 66.21875 L 27.515625 73.28125 C 27.730469 74.042969 28.804688 74.078125 29.070312 73.328125 L 33.953125 59.457031 C 34.121094 58.984375 33.824219 58.476562 33.332031 58.382812 L 18.878906 55.679688 "/>
<path style=" stroke:none;fill-rule:nonzero;fill:rgb(100%,100%,100%);fill-opacity:1;" d="M 58.796875 28.761719 L 60.722656 28.761719 C 60.703125 28.578125 60.660156 28.3125 60.640625 28.003906 C 60.621094 27.695312 60.597656 27.367188 60.597656 27.019531 L 60.597656 21.988281 C 60.597656 21.289062 60.539062 20.714844 60.394531 20.261719 C 60.253906 19.8125 60.027344 19.441406 59.757812 19.132812 C 59.535156 18.867188 59.164062 18.621094 58.671875 18.394531 C 58.179688 18.191406 57.542969 18.085938 56.742188 18.085938 C 56.066406 18.085938 55.472656 18.167969 54.960938 18.332031 C 54.449219 18.496094 53.976562 18.683594 53.585938 18.90625 L 53.75 20.734375 C 54.015625 20.46875 54.40625 20.222656 54.917969 19.996094 C 55.410156 19.792969 55.945312 19.6875 56.539062 19.6875 C 57.296875 19.6875 57.832031 19.894531 58.160156 20.304688 C 58.324219 20.507812 58.445312 20.734375 58.507812 20.980469 C 58.570312 21.25 58.589844 21.535156 58.589844 21.863281 L 58.589844 22.296875 L 57.832031 22.296875 C 56.128906 22.296875 54.816406 22.582031 53.933594 23.140625 C 53.054688 23.714844 52.601562 24.617188 52.601562 25.847656 C 52.601562 26.339844 52.683594 26.773438 52.847656 27.160156 C 53.011719 27.550781 53.238281 27.859375 53.523438 28.128906 C 53.789062 28.394531 54.117188 28.578125 54.488281 28.703125 C 54.855469 28.84375 55.246094 28.90625 55.675781 28.90625 C 56.457031 28.90625 57.074219 28.742188 57.542969 28.414062 C 57.996094 28.105469 58.363281 27.738281 58.632812 27.328125 L 58.671875 27.328125 C 58.671875 27.386719 58.671875 27.492188 58.691406 27.636719 C 58.691406 27.777344 58.691406 27.921875 58.714844 28.066406 C 58.734375 28.210938 58.734375 28.351562 58.753906 28.476562 C 58.773438 28.621094 58.773438 28.703125 58.796875 28.761719 "/>
<path style=" stroke:none;fill-rule:nonzero;fill:rgb(100%,100%,100%);fill-opacity:1;" d="M 69.851562 28.761719 L 71.859375 28.761719 C 71.839844 28.457031 71.820312 28.128906 71.800781 27.777344 C 71.78125 27.449219 71.78125 27.101562 71.78125 26.75 L 71.78125 18.230469 L 69.644531 18.230469 L 69.644531 24.410156 C 69.644531 25.230469 69.480469 25.890625 69.171875 26.382812 C 68.867188 26.875 68.351562 27.121094 67.675781 27.121094 C 67.125 27.121094 66.734375 26.933594 66.46875 26.566406 C 66.199219 26.195312 66.054688 25.601562 66.054688 24.78125 L 66.054688 18.230469 L 63.921875 18.230469 L 63.921875 25.273438 C 63.921875 26.382812 64.167969 27.265625 64.660156 27.921875 C 65.15625 28.578125 65.933594 28.90625 67 28.90625 C 67.71875 28.90625 68.292969 28.742188 68.722656 28.394531 C 69.132812 28.066406 69.460938 27.65625 69.726562 27.160156 L 69.769531 27.160156 L 69.851562 28.761719 "/>
<path style=" stroke:none;fill-rule:nonzero;fill:rgb(100%,100%,100%);fill-opacity:1;" d="M 75.199219 28.351562 C 75.527344 28.496094 75.9375 28.640625 76.449219 28.742188 C 76.941406 28.84375 77.496094 28.90625 78.089844 28.90625 C 79.28125 28.90625 80.183594 28.621094 80.820312 28.023438 C 81.433594 27.429688 81.742188 26.667969 81.742188 25.722656 C 81.742188 25.089844 81.554688 24.574219 81.210938 24.183594 C 80.839844 23.792969 80.347656 23.40625 79.710938 23.054688 L 78.789062 22.542969 C 78.316406 22.277344 77.96875 22.050781 77.703125 21.824219 C 77.433594 21.617188 77.3125 21.332031 77.3125 20.980469 C 77.3125 20.613281 77.433594 20.304688 77.703125 20.078125 C 77.96875 19.851562 78.355469 19.75 78.890625 19.75 C 79.320312 19.75 79.730469 19.792969 80.082031 19.875 C 80.429688 19.976562 80.757812 20.078125 81.042969 20.203125 L 81.148438 18.476562 C 80.921875 18.394531 80.613281 18.3125 80.203125 18.210938 C 79.773438 18.128906 79.28125 18.085938 78.726562 18.085938 C 78.195312 18.085938 77.71875 18.167969 77.289062 18.332031 C 76.859375 18.496094 76.492188 18.722656 76.183594 18.988281 C 75.875 19.277344 75.628906 19.605469 75.464844 19.957031 C 75.300781 20.324219 75.21875 20.714844 75.21875 21.105469 C 75.21875 21.476562 75.28125 21.804688 75.382812 22.089844 C 75.484375 22.378906 75.628906 22.625 75.816406 22.851562 C 75.996094 23.078125 76.203125 23.261719 76.46875 23.425781 C 76.734375 23.609375 77.027344 23.773438 77.351562 23.9375 L 78.460938 24.492188 C 78.929688 24.71875 79.261719 24.964844 79.445312 25.210938 C 79.609375 25.457031 79.691406 25.722656 79.691406 25.992188 C 79.691406 26.402344 79.527344 26.710938 79.199219 26.914062 C 78.871094 27.140625 78.417969 27.242188 77.863281 27.242188 C 77.351562 27.242188 76.859375 27.160156 76.429688 26.976562 C 75.996094 26.8125 75.628906 26.648438 75.324219 26.503906 L 75.199219 28.351562 "/>
<path style=" stroke:none;fill-rule:nonzero;fill:rgb(100%,100%,100%);fill-opacity:1;" d="M 90.53125 28.761719 L 92.460938 28.761719 C 92.4375 28.578125 92.398438 28.3125 92.378906 28.003906 C 92.355469 27.695312 92.335938 27.367188 92.335938 27.019531 L 92.335938 21.988281 C 92.335938 21.289062 92.273438 20.714844 92.132812 20.261719 C 91.988281 19.8125 91.761719 19.441406 91.496094 19.132812 C 91.269531 18.867188 90.898438 18.621094 90.40625 18.394531 C 89.914062 18.191406 89.28125 18.085938 88.480469 18.085938 C 87.800781 18.085938 87.207031 18.167969 86.695312 18.332031 C 86.183594 18.496094 85.710938 18.683594 85.320312 18.90625 L 85.484375 20.734375 C 85.753906 20.46875 86.140625 20.222656 86.65625 19.996094 C 87.148438 19.792969 87.679688 19.6875 88.273438 19.6875 C 89.03125 19.6875 89.566406 19.894531 89.894531 20.304688 C 90.058594 20.507812 90.183594 20.734375 90.242188 20.980469 C 90.304688 21.25 90.324219 21.535156 90.324219 21.863281 L 90.324219 22.296875 L 89.566406 22.296875 C 87.863281 22.296875 86.550781 22.582031 85.667969 23.140625 C 84.789062 23.714844 84.339844 24.617188 84.339844 25.847656 C 84.339844 26.339844 84.417969 26.773438 84.582031 27.160156 C 84.746094 27.550781 84.972656 27.859375 85.261719 28.128906 C 85.527344 28.394531 85.855469 28.578125 86.222656 28.703125 C 86.59375 28.84375 86.980469 28.90625 87.414062 28.90625 C 88.191406 28.90625 88.808594 28.742188 89.28125 28.414062 C 89.730469 28.105469 90.097656 27.738281 90.367188 27.328125 L 90.40625 27.328125 C 90.40625 27.386719 90.40625 27.492188 90.425781 27.636719 C 90.425781 27.777344 90.425781 27.921875 90.449219 28.066406 C 90.46875 28.210938 90.46875 28.351562 90.488281 28.476562 C 90.511719 28.621094 90.511719 28.703125 90.53125 28.761719 "/>
<path style=" stroke:none;fill-rule:nonzero;fill:rgb(100%,100%,100%);fill-opacity:1;" d="M 95.878906 28.761719 L 98.011719 28.761719 L 98.011719 22.523438 C 98.011719 21.699219 98.175781 21.042969 98.523438 20.570312 C 98.851562 20.097656 99.34375 19.875 100.019531 19.875 C 100.574219 19.875 100.964844 20.058594 101.230469 20.425781 C 101.476562 20.796875 101.601562 21.394531 101.601562 22.214844 L 101.601562 28.761719 L 103.730469 28.761719 L 103.730469 21.722656 C 103.730469 20.613281 103.484375 19.730469 102.996094 19.074219 C 102.5 18.414062 101.722656 18.085938 100.65625 18.085938 C 100.039062 18.085938 99.507812 18.230469 99.035156 18.539062 C 98.566406 18.84375 98.195312 19.277344 97.929688 19.832031 L 97.886719 19.832031 C 97.886719 19.769531 97.886719 19.648438 97.886719 19.503906 C 97.867188 19.359375 97.867188 19.195312 97.84375 19.03125 C 97.824219 18.867188 97.824219 18.703125 97.824219 18.558594 C 97.804688 18.414062 97.804688 18.292969 97.804688 18.230469 L 95.796875 18.230469 C 95.816406 18.539062 95.835938 18.867188 95.855469 19.195312 C 95.878906 19.542969 95.878906 19.894531 95.878906 20.242188 L 95.878906 28.761719 "/>
<path style=" stroke:none;fill-rule:nonzero;fill:rgb(100%,100%,100%);fill-opacity:1;" d="M 107.257812 28.761719 L 109.390625 28.761719 L 109.390625 22.523438 C 109.390625 21.699219 109.554688 21.042969 109.902344 20.570312 C 110.230469 20.097656 110.726562 19.875 111.398438 19.875 C 111.953125 19.875 112.34375 20.058594 112.609375 20.425781 C 112.855469 20.796875 112.980469 21.394531 112.980469 22.214844 L 112.980469 28.761719 L 115.113281 28.761719 L 115.113281 21.722656 C 115.113281 20.613281 114.867188 19.730469 114.375 19.074219 C 113.882812 18.414062 113.101562 18.085938 112.035156 18.085938 C 111.421875 18.085938 110.886719 18.230469 110.414062 18.539062 C 109.945312 18.84375 109.574219 19.277344 109.308594 19.832031 L 109.269531 19.832031 C 109.269531 19.769531 109.269531 19.648438 109.269531 19.503906 C 109.246094 19.359375 109.246094 19.195312 109.226562 19.03125 C 109.207031 18.867188 109.207031 18.703125 109.207031 18.558594 C 109.1875 18.414062 109.1875 18.292969 109.1875 18.230469 L 107.175781 18.230469 C 107.195312 18.539062 107.214844 18.867188 107.238281 19.195312 C 107.257812 19.542969 107.257812 19.894531 107.257812 20.242188 L 107.257812 28.761719 "/>
<path style=" stroke:none;fill-rule:nonzero;fill:rgb(100%,100%,100%);fill-opacity:1;" d="M 120.144531 24.101562 L 126.152344 24.101562 L 126.152344 23.386719 C 126.152344 22.460938 126.054688 21.679688 125.867188 21.003906 C 125.683594 20.324219 125.414062 19.769531 125.066406 19.339844 C 124.71875 18.90625 124.289062 18.597656 123.816406 18.394531 C 123.324219 18.191406 122.789062 18.085938 122.21875 18.085938 C 121.5625 18.085938 120.96875 18.210938 120.453125 18.476562 C 119.921875 18.742188 119.46875 19.132812 119.121094 19.605469 C 118.773438 20.097656 118.484375 20.675781 118.300781 21.351562 C 118.113281 22.027344 118.015625 22.769531 118.015625 23.570312 C 118.015625 24.328125 118.113281 25.046875 118.300781 25.703125 C 118.484375 26.359375 118.75 26.914062 119.140625 27.386719 C 119.511719 27.859375 119.980469 28.230469 120.558594 28.496094 C 121.128906 28.78125 121.808594 28.90625 122.566406 28.90625 C 123.222656 28.90625 123.816406 28.84375 124.328125 28.703125 C 124.84375 28.558594 125.253906 28.414062 125.601562 28.269531 L 125.5 26.484375 C 125.230469 26.667969 124.882812 26.851562 124.472656 27.039062 C 124.042969 27.222656 123.53125 27.328125 122.914062 27.328125 C 121.929688 27.328125 121.230469 27.058594 120.800781 26.503906 C 120.371094 25.972656 120.144531 25.171875 120.144531 24.101562 "/>
<path style=" stroke:none;fill-rule:nonzero;fill:rgb(100%,100%,100%);fill-opacity:1;" d="M 44.222656 28.761719 L 51.132812 28.761719 L 51.132812 26.933594 L 46.4375 26.933594 L 46.4375 14.433594 L 44.222656 14.433594 L 44.222656 28.761719 "/>
<path style=" stroke:none;fill-rule:nonzero;fill:rgb(100%,100%,100%);fill-opacity:1;" d="M 44.222656 65.5 L 48.121094 65.5 C 48.835938 65.5 49.472656 65.398438 50.027344 65.191406 C 50.582031 65.007812 51.03125 64.71875 51.421875 64.371094 C 51.8125 64.023438 52.097656 63.589844 52.304688 63.097656 C 52.488281 62.625 52.589844 62.09375 52.589844 61.519531 C 52.589844 60.960938 52.507812 60.488281 52.363281 60.058594 C 52.203125 59.648438 51.996094 59.296875 51.75 59.011719 C 51.484375 58.746094 51.195312 58.519531 50.890625 58.355469 C 50.558594 58.191406 50.230469 58.089844 49.902344 58.027344 L 49.902344 57.984375 C 50.210938 57.882812 50.5 57.757812 50.785156 57.574219 C 51.050781 57.410156 51.296875 57.207031 51.523438 56.9375 C 51.75 56.671875 51.914062 56.363281 52.058594 55.992188 C 52.203125 55.644531 52.261719 55.214844 52.261719 54.742188 C 52.261719 53.589844 51.933594 52.707031 51.277344 52.09375 C 50.601562 51.476562 49.554688 51.167969 48.121094 51.167969 L 44.222656 51.167969 L 44.222656 65.5 "/>
<path style=" stroke:none;fill-rule:nonzero;fill:rgb(100%,100%,100%);fill-opacity:1;" d="M 57.472656 60.839844 L 63.480469 60.839844 L 63.480469 60.121094 C 63.480469 59.195312 63.378906 58.417969 63.195312 57.738281 C 63.011719 57.0625 62.742188 56.507812 62.398438 56.074219 C 62.046875 55.644531 61.617188 55.335938 61.144531 55.132812 C 60.652344 54.925781 60.117188 54.824219 59.542969 54.824219 C 58.890625 54.824219 58.292969 54.945312 57.78125 55.214844 C 57.246094 55.480469 56.796875 55.871094 56.449219 56.34375 C 56.097656 56.835938 55.8125 57.410156 55.628906 58.089844 C 55.441406 58.765625 55.339844 59.503906 55.339844 60.304688 C 55.339844 61.066406 55.441406 61.785156 55.628906 62.441406 C 55.8125 63.097656 56.078125 63.652344 56.46875 64.125 C 56.839844 64.597656 57.308594 64.96875 57.882812 65.234375 C 58.457031 65.519531 59.136719 65.644531 59.894531 65.644531 C 60.550781 65.644531 61.144531 65.582031 61.65625 65.4375 C 62.167969 65.292969 62.582031 65.152344 62.929688 65.007812 L 62.828125 63.21875 C 62.558594 63.40625 62.210938 63.589844 61.800781 63.777344 C 61.371094 63.960938 60.855469 64.0625 60.242188 64.0625 C 59.257812 64.0625 58.5625 63.792969 58.128906 63.242188 C 57.699219 62.707031 57.472656 61.90625 57.472656 60.839844 "/>
<path style=" stroke:none;fill-rule:nonzero;fill:rgb(100%,100%,100%);fill-opacity:1;" d="M 66.605469 65.5 L 68.738281 65.5 L 68.738281 59.832031 C 68.738281 59.296875 68.800781 58.847656 68.921875 58.457031 C 69.046875 58.066406 69.210938 57.757812 69.414062 57.511719 C 69.621094 57.289062 69.867188 57.101562 70.132812 56.976562 C 70.398438 56.878906 70.667969 56.816406 70.972656 56.816406 C 71.097656 56.816406 71.21875 56.816406 71.324219 56.835938 C 71.425781 56.855469 71.546875 56.878906 71.652344 56.898438 L 71.652344 54.84375 C 71.609375 54.84375 71.570312 54.84375 71.546875 54.824219 C 71.527344 54.824219 71.484375 54.824219 71.445312 54.824219 C 71.054688 54.824219 70.707031 54.863281 70.398438 54.96875 C 70.09375 55.070312 69.84375 55.214844 69.621094 55.398438 C 69.394531 55.582031 69.1875 55.789062 69.027344 56.015625 C 68.863281 56.238281 68.71875 56.488281 68.613281 56.753906 L 68.574219 56.753906 C 68.574219 56.671875 68.574219 56.546875 68.574219 56.382812 C 68.554688 56.21875 68.554688 56.035156 68.53125 55.847656 C 68.511719 55.664062 68.511719 55.5 68.511719 55.335938 C 68.492188 55.171875 68.492188 55.046875 68.492188 54.96875 L 66.523438 54.96875 C 66.542969 55.273438 66.566406 55.601562 66.585938 55.933594 C 66.605469 56.28125 66.605469 56.628906 66.605469 56.976562 L 66.605469 65.5 "/>
<path style=" stroke:none;fill-rule:nonzero;fill:rgb(100%,100%,100%);fill-opacity:1;" d="M 73.78125 65.5 L 75.914062 65.5 L 75.914062 59.257812 C 75.914062 58.4375 76.082031 57.78125 76.425781 57.308594 C 76.757812 56.835938 77.246094 56.609375 77.925781 56.609375 C 78.476562 56.609375 78.867188 56.792969 79.136719 57.164062 C 79.382812 57.53125 79.503906 58.128906 79.503906 58.949219 L 79.503906 65.5 L 81.636719 65.5 L 81.636719 58.457031 C 81.636719 57.347656 81.390625 56.464844 80.902344 55.808594 C 80.40625 55.152344 79.628906 54.824219 78.558594 54.824219 C 77.945312 54.824219 77.414062 54.96875 76.941406 55.273438 C 76.46875 55.582031 76.101562 56.015625 75.832031 56.570312 L 75.792969 56.570312 C 75.792969 56.507812 75.792969 56.382812 75.792969 56.238281 C 75.773438 56.097656 75.773438 55.933594 75.75 55.769531 C 75.730469 55.601562 75.730469 55.441406 75.730469 55.292969 C 75.710938 55.152344 75.710938 55.027344 75.710938 54.96875 L 73.699219 54.96875 C 73.71875 55.273438 73.742188 55.601562 73.761719 55.933594 C 73.78125 56.28125 73.78125 56.628906 73.78125 56.976562 L 73.78125 65.5 "/>
<path style=" stroke:none;fill-rule:nonzero;fill:rgb(100%,100%,100%);fill-opacity:1;" d="M 78.523438 83.960938 C 78.8125 84.511719 79.1875 84.9375 79.648438 85.246094 C 80.109375 85.554688 80.65625 85.707031 81.324219 85.707031 C 81.992188 85.707031 82.554688 85.554688 83.015625 85.226562 C 83.476562 84.917969 83.851562 84.492188 84.144531 83.945312 C 84.433594 83.398438 84.640625 82.746094 84.761719 82.011719 C 84.878906 81.277344 84.949219 80.472656 84.949219 79.597656 C 84.949219 78.726562 84.878906 77.921875 84.761719 77.167969 C 84.640625 76.433594 84.433594 75.78125 84.144531 75.234375 C 83.851562 74.6875 83.476562 74.261719 83.015625 73.933594 C 82.554688 73.628906 81.992188 73.472656 81.324219 73.472656 C 80.65625 73.472656 80.09375 73.628906 79.632812 73.933594 C 79.171875 74.261719 78.8125 74.6875 78.523438 75.234375 C 78.230469 75.78125 78.027344 76.433594 77.90625 77.167969 C 77.785156 77.921875 77.71875 78.726562 77.71875 79.597656 C 77.71875 80.472656 77.785156 81.277344 77.90625 82.011719 C 78.027344 82.765625 78.230469 83.414062 78.523438 83.960938 "/>
<path style=" stroke:none;fill-rule:nonzero;fill:rgb(100%,100%,100%);fill-opacity:1;" d="M 87.785156 83.960938 C 88.074219 84.511719 88.453125 84.9375 88.910156 85.246094 C 89.375 85.554688 89.921875 85.707031 90.589844 85.707031 C 91.253906 85.707031 91.820312 85.554688 92.28125 85.226562 C 92.738281 84.917969 93.117188 84.492188 93.40625 83.945312 C 93.699219 83.398438 93.902344 82.746094 94.023438 82.011719 C 94.144531 81.277344 94.210938 80.472656 94.210938 79.597656 C 94.210938 78.726562 94.144531 77.921875 94.023438 77.167969 C 93.902344 76.433594 93.699219 75.78125 93.40625 75.234375 C 93.117188 74.6875 92.738281 74.261719 92.28125 73.933594 C 91.820312 73.628906 91.253906 73.472656 90.589844 73.472656 C 89.921875 73.472656 89.355469 73.628906 88.894531 73.933594 C 88.433594 74.261719 88.074219 74.6875 87.785156 75.234375 C 87.496094 75.78125 87.289062 76.433594 87.167969 77.167969 C 87.050781 77.921875 86.980469 78.726562 86.980469 79.597656 C 86.980469 80.472656 87.050781 81.277344 87.167969 82.011719 C 87.289062 82.765625 87.496094 83.414062 87.785156 83.960938 "/>
<path style=" stroke:none;fill-rule:nonzero;fill:rgb(100%,100%,100%);fill-opacity:1;" d="M 97.046875 83.960938 C 97.339844 84.511719 97.714844 84.9375 98.175781 85.246094 C 98.636719 85.554688 99.183594 85.707031 99.851562 85.707031 C 100.519531 85.707031 101.082031 85.554688 101.542969 85.226562 C 102.003906 84.917969 102.382812 84.492188 102.671875 83.945312 C 102.960938 83.398438 103.167969 82.746094 103.285156 82.011719 C 103.40625 81.277344 103.472656 80.472656 103.472656 79.597656 C 103.472656 78.726562 103.40625 77.921875 103.285156 77.167969 C 103.167969 76.433594 102.960938 75.78125 102.671875 75.234375 C 102.382812 74.6875 102.003906 74.261719 101.542969 73.933594 C 101.082031 73.628906 100.519531 73.472656 99.851562 73.472656 C 99.183594 73.472656 98.621094 73.628906 98.160156 73.933594 C 97.699219 74.261719 97.339844 74.6875 97.046875 75.234375 C 96.757812 75.78125 96.550781 76.433594 96.433594 77.167969 C 96.3125 77.921875 96.246094 78.726562 96.246094 79.597656 C 96.246094 80.472656 96.3125 81.277344 96.433594 82.011719 C 96.550781 82.765625 96.757812 83.414062 97.046875 83.960938 "/>
<path style=" stroke:none;fill-rule:nonzero;fill:rgb(100%,100%,100%);fill-opacity:1;" d="M 114.398438 85.570312 L 116.175781 85.570312 L 116.175781 80.199219 C 116.175781 79.546875 116.3125 79.050781 116.570312 78.691406 C 116.824219 78.332031 117.21875 78.160156 117.714844 78.160156 C 118.535156 78.160156 118.945312 78.710938 118.945312 79.785156 L 118.945312 85.570312 L 120.722656 85.570312 L 120.722656 80.199219 C 120.722656 79.546875 120.859375 79.050781 121.113281 78.691406 C 121.371094 78.332031 121.765625 78.160156 122.261719 78.160156 C 123.082031 78.160156 123.492188 78.710938 123.492188 79.785156 L 123.492188 85.570312 L 125.269531 85.570312 L 125.269531 79.820312 C 125.269531 78.792969 125.0625 78.007812 124.652344 77.476562 C 124.226562 76.949219 123.59375 76.671875 122.738281 76.671875 C 122.175781 76.671875 121.714844 76.808594 121.355469 77.085938 C 120.996094 77.375 120.722656 77.699219 120.5 78.058594 C 120.414062 77.886719 120.3125 77.71875 120.191406 77.546875 C 120.074219 77.390625 119.917969 77.238281 119.746094 77.101562 C 119.578125 76.980469 119.371094 76.878906 119.148438 76.792969 C 118.929688 76.707031 118.652344 76.671875 118.363281 76.671875 C 117.816406 76.671875 117.371094 76.808594 117.015625 77.085938 C 116.652344 77.375 116.363281 77.71875 116.175781 78.144531 L 116.140625 78.144531 C 116.140625 78.09375 116.140625 77.992188 116.140625 77.851562 C 116.125 77.734375 116.125 77.597656 116.125 77.460938 C 116.109375 77.324219 116.109375 77.1875 116.109375 77.066406 C 116.089844 76.949219 116.089844 76.84375 116.089844 76.792969 L 114.332031 76.792969 C 114.347656 77.03125 114.363281 77.289062 114.382812 77.5625 C 114.398438 77.835938 114.398438 78.128906 114.398438 78.453125 L 114.398438 85.570312 "/>
<path style=" stroke:none;fill-rule:nonzero;fill:rgb(100%,100%,100%);fill-opacity:1;" d="M 73.371094 85.570312 L 75.179688 85.570312 L 75.179688 73.628906 L 73.589844 73.628906 L 70.925781 76.058594 L 71.8125 77.339844 L 73.371094 75.75 L 73.371094 85.570312 "/>
<path style=" stroke:none;fill-rule:nonzero;fill:rgb(0%,49.674988%,27.331543%);fill-opacity:1;" d="M 58.589844 23.609375 L 58.589844 24.554688 C 58.589844 25.394531 58.40625 26.074219 58.035156 26.585938 C 57.644531 27.121094 57.09375 27.386719 56.332031 27.386719 C 55.78125 27.386719 55.371094 27.222656 55.082031 26.914062 C 54.796875 26.605469 54.652344 26.175781 54.652344 25.664062 C 54.652344 24.964844 54.917969 24.453125 55.472656 24.101562 C 56.027344 23.753906 56.828125 23.589844 57.871094 23.589844 C 57.996094 23.589844 58.117188 23.589844 58.261719 23.589844 C 58.40625 23.589844 58.527344 23.589844 58.589844 23.609375 "/>
<path style=" stroke:none;fill-rule:nonzero;fill:rgb(0%,49.674988%,27.331543%);fill-opacity:1;" d="M 90.324219 23.609375 L 90.324219 24.554688 C 90.324219 25.394531 90.140625 26.074219 89.773438 26.585938 C 89.382812 27.121094 88.828125 27.386719 88.070312 27.386719 C 87.515625 27.386719 87.105469 27.222656 86.820312 26.914062 C 86.53125 26.605469 86.386719 26.175781 86.386719 25.664062 C 86.386719 24.964844 86.65625 24.453125 87.207031 24.101562 C 87.761719 23.753906 88.5625 23.589844 89.605469 23.589844 C 89.730469 23.589844 89.851562 23.589844 89.996094 23.589844 C 90.140625 23.589844 90.265625 23.589844 90.324219 23.609375 "/>
<path style=" stroke:none;fill-rule:nonzero;fill:rgb(0%,49.674988%,27.331543%);fill-opacity:1;" d="M 120.144531 22.644531 C 120.167969 21.679688 120.351562 20.921875 120.699219 20.386719 C 121.050781 19.875 121.539062 19.605469 122.15625 19.605469 C 123.425781 19.605469 124.0625 20.613281 124.0625 22.644531 L 120.144531 22.644531 "/>
<path style=" stroke:none;fill-rule:nonzero;fill:rgb(0%,49.674988%,27.331543%);fill-opacity:1;" d="M 46.398438 63.753906 L 46.398438 58.96875 L 47.957031 58.96875 C 48.386719 58.96875 48.734375 59.03125 49.042969 59.15625 C 49.351562 59.28125 49.597656 59.441406 49.800781 59.667969 C 49.984375 59.894531 50.128906 60.140625 50.230469 60.429688 C 50.335938 60.714844 50.375 61.023438 50.375 61.371094 C 50.375 62.050781 50.171875 62.625 49.761719 63.078125 C 49.351562 63.527344 48.734375 63.753906 47.894531 63.753906 L 46.398438 63.753906 "/>
<path style=" stroke:none;fill-rule:nonzero;fill:rgb(0%,49.674988%,27.331543%);fill-opacity:1;" d="M 57.472656 59.382812 C 57.492188 58.417969 57.679688 57.65625 58.027344 57.121094 C 58.375 56.609375 58.867188 56.34375 59.484375 56.34375 C 60.757812 56.34375 61.390625 57.347656 61.390625 59.382812 L 57.472656 59.382812 "/>
<path style=" stroke:none;fill-rule:nonzero;fill:rgb(0%,49.674988%,27.331543%);fill-opacity:1;" d="M 46.398438 57.265625 L 46.398438 52.871094 L 47.730469 52.871094 C 48.53125 52.871094 49.125 53.058594 49.511719 53.449219 C 49.902344 53.839844 50.089844 54.351562 50.089844 54.96875 C 50.089844 55.644531 49.882812 56.199219 49.472656 56.628906 C 49.042969 57.0625 48.425781 57.265625 47.605469 57.265625 L 46.398438 57.265625 "/>
<path style=" stroke:none;fill-rule:nonzero;fill:rgb(0%,49.674988%,27.331543%);fill-opacity:1;" d="M 79.921875 83.054688 C 79.664062 82.253906 79.53125 81.089844 79.53125 79.597656 C 79.53125 78.109375 79.664062 76.949219 79.921875 76.125 C 80.179688 75.304688 80.65625 74.894531 81.324219 74.894531 C 82.007812 74.894531 82.484375 75.304688 82.742188 76.109375 C 83 76.929688 83.136719 78.09375 83.136719 79.597656 C 83.136719 81.089844 83 82.253906 82.742188 83.054688 C 82.46875 83.875 81.992188 84.285156 81.324219 84.285156 C 80.65625 84.285156 80.179688 83.875 79.921875 83.054688 "/>
<path style=" stroke:none;fill-rule:nonzero;fill:rgb(0%,49.674988%,27.331543%);fill-opacity:1;" d="M 89.1875 83.054688 C 88.929688 82.253906 88.792969 81.089844 88.792969 79.597656 C 88.792969 78.109375 88.929688 76.949219 89.1875 76.125 C 89.441406 75.304688 89.921875 74.894531 90.589844 74.894531 C 91.273438 74.894531 91.75 75.304688 92.007812 76.109375 C 92.261719 76.929688 92.398438 78.09375 92.398438 79.597656 C 92.398438 81.089844 92.261719 82.253906 92.007812 83.054688 C 91.734375 83.875 91.253906 84.285156 90.589844 84.285156 C 89.921875 84.285156 89.441406 83.875 89.1875 83.054688 "/>
<path style=" stroke:none;fill-rule:nonzero;fill:rgb(0%,49.674988%,27.331543%);fill-opacity:1;" d="M 98.449219 83.054688 C 98.195312 82.253906 98.054688 81.089844 98.054688 79.597656 C 98.054688 78.109375 98.195312 76.949219 98.449219 76.125 C 98.707031 75.304688 99.183594 74.894531 99.851562 74.894531 C 100.535156 74.894531 101.011719 75.304688 101.269531 76.109375 C 101.527344 76.929688 101.664062 78.09375 101.664062 79.597656 C 101.664062 81.089844 101.527344 82.253906 101.269531 83.054688 C 100.996094 83.875 100.519531 84.285156 99.851562 84.285156 C 99.183594 84.285156 98.707031 83.875 98.449219 83.054688 "/>
</g>
</svg>
