<?xml version="1.0" encoding="UTF-8"?>
<svg xmlns="http://www.w3.org/2000/svg" xmlns:xlink="http://www.w3.org/1999/xlink" width="163pt" height="144pt" viewBox="0 0 163 144" version="1.1">
<g id="surface1">
<path style=" stroke:none;fill-rule:nonzero;fill:rgb(0%,49.674988%,27.331543%);fill-opacity:1;" d="M 0.730469 143.4375 L 162.308594 143.4375 L 162.308594 0.914062 L 0.730469 0.914062 Z M 0.730469 143.4375 "/>
<path style=" stroke:none;fill-rule:nonzero;fill:rgb(100%,100%,100%);fill-opacity:1;" d="M 160.605469 136.636719 C 160.605469 139.453125 158.320312 141.738281 155.503906 141.738281 L 7.535156 141.738281 C 4.71875 141.738281 2.429688 139.453125 2.433594 136.632812 L 2.433594 7.714844 C 2.429688 4.898438 4.71875 2.609375 7.535156 2.613281 L 155.503906 2.613281 C 158.320312 2.609375 160.609375 4.898438 160.605469 7.714844 L 160.605469 136.636719 "/>
<path style=" stroke:none;fill-rule:nonzero;fill:rgb(0%,49.674988%,27.331543%);fill-opacity:1;" d="M 158.5625 136.632812 L 158.5625 63.839844 L 4.476562 63.839844 L 4.476562 136.632812 C 4.472656 138.324219 5.84375 139.695312 7.535156 139.695312 L 155.503906 139.695312 C 157.195312 139.699219 158.566406 138.324219 158.5625 136.632812 "/>
<path style=" stroke:none;fill-rule:nonzero;fill:rgb(0%,49.674988%,27.331543%);fill-opacity:1;" d="M 158.5625 61.800781 L 4.476562 61.800781 L 4.476562 7.714844 C 4.472656 6.023438 5.84375 4.652344 7.535156 4.652344 L 155.503906 4.652344 C 157.195312 4.652344 158.566406 6.023438 158.5625 7.714844 L 158.5625 61.800781 "/>
<path style=" stroke:none;fill-rule:nonzero;fill:rgb(100%,100%,100%);fill-opacity:1;" d="M 30.15625 49.410156 L 24.03125 49.410156 L 24.644531 31.449219 L 18.113281 33.082031 C 17.386719 33.265625 16.820312 32.453125 17.238281 31.832031 L 26.417969 18.265625 C 26.742188 17.785156 27.445312 17.785156 27.769531 18.265625 L 36.949219 31.832031 C 37.367188 32.453125 36.800781 33.265625 36.074219 33.082031 L 29.542969 31.449219 L 30.15625 49.410156 "/>
<path style=" stroke:none;fill-rule:nonzero;fill:rgb(100%,100%,100%);fill-opacity:1;" d="M 15.699219 107.921875 L 12.640625 102.617188 L 28.5 94.167969 L 23.820312 89.328125 C 23.296875 88.789062 23.71875 87.894531 24.464844 87.949219 L 40.804688 89.109375 C 41.382812 89.152344 41.734375 89.765625 41.480469 90.28125 L 34.320312 105.015625 C 33.992188 105.691406 33.003906 105.601562 32.800781 104.882812 L 30.949219 98.410156 L 15.699219 107.921875 "/>
<path style=" stroke:none;fill-rule:nonzero;fill:rgb(100%,100%,100%);fill-opacity:1;" d="M 61.824219 27.15625 C 61.617188 27.261719 61.371094 27.34375 61.066406 27.402344 C 60.757812 27.464844 60.46875 27.484375 60.164062 27.484375 C 59.445312 27.484375 58.808594 27.34375 58.253906 27.074219 C 57.703125 26.808594 57.25 26.417969 56.902344 25.925781 C 56.53125 25.433594 56.265625 24.839844 56.082031 24.121094 C 55.898438 23.425781 55.792969 22.644531 55.792969 21.78125 C 55.792969 20.984375 55.898438 20.246094 56.121094 19.589844 C 56.347656 18.933594 56.65625 18.378906 57.046875 17.90625 C 57.433594 17.453125 57.886719 17.105469 58.417969 16.839844 C 58.953125 16.59375 59.546875 16.46875 60.183594 16.46875 C 60.777344 16.46875 61.371094 16.550781 61.945312 16.695312 C 62.5 16.859375 63.035156 17.085938 63.503906 17.351562 L 63.566406 15.28125 C 63.175781 15.097656 62.683594 14.933594 62.109375 14.808594 C 61.515625 14.707031 60.859375 14.644531 60.140625 14.644531 C 59.09375 14.644531 58.171875 14.828125 57.351562 15.179688 C 56.511719 15.527344 55.816406 16.039062 55.242188 16.675781 C 54.667969 17.3125 54.234375 18.089844 53.929688 18.992188 C 53.621094 19.894531 53.457031 20.882812 53.457031 21.96875 C 53.457031 22.972656 53.601562 23.9375 53.867188 24.816406 C 54.132812 25.722656 54.566406 26.5 55.117188 27.15625 C 55.671875 27.835938 56.390625 28.347656 57.230469 28.738281 C 58.070312 29.128906 59.074219 29.308594 60.203125 29.308594 C 61.003906 29.308594 61.71875 29.226562 62.355469 29.0625 C 62.992188 28.921875 63.527344 28.757812 63.914062 28.570312 L 63.914062 21.1875 L 59.527344 21.1875 L 59.527344 22.972656 L 61.824219 22.972656 L 61.824219 27.15625 "/>
<path style=" stroke:none;fill-rule:nonzero;fill:rgb(100%,100%,100%);fill-opacity:1;" d="M 68.769531 24.492188 L 74.777344 24.492188 L 74.777344 23.773438 C 74.777344 22.851562 74.675781 22.070312 74.488281 21.394531 C 74.304688 20.714844 74.039062 20.160156 73.691406 19.730469 C 73.339844 19.300781 72.910156 18.992188 72.441406 18.789062 C 71.945312 18.582031 71.414062 18.480469 70.839844 18.480469 C 70.183594 18.480469 69.589844 18.605469 69.078125 18.871094 C 68.542969 19.136719 68.09375 19.527344 67.742188 19.996094 C 67.394531 20.488281 67.105469 21.066406 66.921875 21.742188 C 66.738281 22.417969 66.636719 23.15625 66.636719 23.957031 C 66.636719 24.714844 66.738281 25.433594 66.921875 26.089844 C 67.105469 26.746094 67.375 27.300781 67.761719 27.773438 C 68.132812 28.242188 68.605469 28.613281 69.179688 28.878906 C 69.753906 29.164062 70.429688 29.289062 71.1875 29.289062 C 71.84375 29.289062 72.441406 29.226562 72.953125 29.085938 C 73.464844 28.941406 73.875 28.796875 74.222656 28.652344 L 74.121094 26.871094 C 73.855469 27.054688 73.507812 27.238281 73.09375 27.425781 C 72.664062 27.609375 72.152344 27.710938 71.535156 27.710938 C 70.550781 27.710938 69.855469 27.445312 69.425781 26.890625 C 68.992188 26.355469 68.769531 25.558594 68.769531 24.492188 "/>
<path style=" stroke:none;fill-rule:nonzero;fill:rgb(100%,100%,100%);fill-opacity:1;" d="M 77.898438 29.144531 L 80.03125 29.144531 L 80.03125 22.910156 C 80.03125 22.089844 80.195312 21.433594 80.542969 20.960938 C 80.871094 20.488281 81.363281 20.265625 82.042969 20.265625 C 82.59375 20.265625 82.984375 20.449219 83.25 20.816406 C 83.496094 21.1875 83.621094 21.78125 83.621094 22.601562 L 83.621094 29.144531 L 85.753906 29.144531 L 85.753906 22.109375 C 85.753906 21.003906 85.507812 20.121094 85.015625 19.464844 C 84.523438 18.808594 83.742188 18.480469 82.675781 18.480469 C 82.0625 18.480469 81.527344 18.625 81.054688 18.933594 C 80.585938 19.238281 80.214844 19.671875 79.949219 20.222656 L 79.910156 20.222656 C 79.910156 20.160156 79.910156 20.039062 79.910156 19.894531 C 79.886719 19.753906 79.886719 19.589844 79.867188 19.425781 C 79.847656 19.261719 79.847656 19.097656 79.847656 18.953125 C 79.828125 18.808594 79.828125 18.6875 79.828125 18.625 L 77.816406 18.625 C 77.835938 18.933594 77.859375 19.261719 77.878906 19.589844 C 77.898438 19.9375 77.898438 20.285156 77.898438 20.632812 L 77.898438 29.144531 "/>
<path style=" stroke:none;fill-rule:nonzero;fill:rgb(100%,100%,100%);fill-opacity:1;" d="M 92.433594 17.332031 L 93.890625 17.332031 L 92.554688 14.359375 L 90.34375 14.359375 L 92.433594 17.332031 "/>
<path style=" stroke:none;fill-rule:nonzero;fill:rgb(100%,100%,100%);fill-opacity:1;" d="M 90.855469 24.492188 L 96.863281 24.492188 L 96.863281 23.773438 C 96.863281 22.851562 96.761719 22.070312 96.578125 21.394531 C 96.390625 20.714844 96.125 20.160156 95.777344 19.730469 C 95.425781 19.300781 94.996094 18.992188 94.527344 18.789062 C 94.03125 18.582031 93.5 18.480469 92.925781 18.480469 C 92.269531 18.480469 91.675781 18.605469 91.164062 18.871094 C 90.628906 19.136719 90.175781 19.527344 89.832031 19.996094 C 89.480469 20.488281 89.195312 21.066406 89.007812 21.742188 C 88.824219 22.417969 88.722656 23.15625 88.722656 23.957031 C 88.722656 24.714844 88.824219 25.433594 89.007812 26.089844 C 89.195312 26.746094 89.460938 27.300781 89.847656 27.773438 C 90.21875 28.242188 90.691406 28.613281 91.265625 28.878906 C 91.839844 29.164062 92.515625 29.289062 93.273438 29.289062 C 93.929688 29.289062 94.527344 29.226562 95.039062 29.085938 C 95.550781 28.941406 95.960938 28.796875 96.308594 28.652344 L 96.207031 26.871094 C 95.941406 27.054688 95.59375 27.238281 95.179688 27.425781 C 94.75 27.609375 94.238281 27.710938 93.621094 27.710938 C 92.640625 27.710938 91.941406 27.445312 91.511719 26.890625 C 91.082031 26.355469 90.855469 25.558594 90.855469 24.492188 "/>
<path style=" stroke:none;fill-rule:nonzero;fill:rgb(100%,100%,100%);fill-opacity:1;" d="M 101.941406 29.144531 L 104.464844 29.144531 L 107.644531 18.625 L 105.511719 18.625 L 103.257812 27.074219 L 103.214844 27.074219 L 101 18.625 L 98.746094 18.625 L 101.941406 29.144531 "/>
<path style=" stroke:none;fill-rule:nonzero;fill:rgb(100%,100%,100%);fill-opacity:1;" d="M 111.371094 24.492188 L 117.378906 24.492188 L 117.378906 23.773438 C 117.378906 22.851562 117.277344 22.070312 117.09375 21.394531 C 116.90625 20.714844 116.644531 20.160156 116.292969 19.730469 C 115.945312 19.300781 115.515625 18.992188 115.042969 18.789062 C 114.550781 18.582031 114.019531 18.480469 113.441406 18.480469 C 112.785156 18.480469 112.191406 18.605469 111.679688 18.871094 C 111.144531 19.136719 110.695312 19.527344 110.347656 19.996094 C 109.996094 20.488281 109.710938 21.066406 109.527344 21.742188 C 109.34375 22.417969 109.238281 23.15625 109.238281 23.957031 C 109.238281 24.714844 109.34375 25.433594 109.527344 26.089844 C 109.710938 26.746094 109.976562 27.300781 110.367188 27.773438 C 110.734375 28.242188 111.210938 28.613281 111.78125 28.878906 C 112.355469 29.164062 113.03125 29.289062 113.792969 29.289062 C 114.449219 29.289062 115.042969 29.226562 115.554688 29.085938 C 116.066406 28.941406 116.480469 28.796875 116.828125 28.652344 L 116.726562 26.871094 C 116.457031 27.054688 116.109375 27.238281 115.699219 27.425781 C 115.269531 27.609375 114.757812 27.710938 114.140625 27.710938 C 113.15625 27.710938 112.460938 27.445312 112.027344 26.890625 C 111.597656 26.355469 111.371094 25.558594 111.371094 24.492188 "/>
<path style=" stroke:none;fill-rule:nonzero;fill:rgb(100%,100%,100%);fill-opacity:1;" d="M 53.457031 51.59375 L 60.367188 51.59375 L 60.367188 49.769531 L 55.671875 49.769531 L 55.671875 37.277344 L 53.457031 37.277344 L 53.457031 51.59375 "/>
<path style=" stroke:none;fill-rule:nonzero;fill:rgb(100%,100%,100%);fill-opacity:1;" d="M 68.027344 51.59375 L 69.957031 51.59375 C 69.933594 51.410156 69.894531 51.144531 69.871094 50.835938 C 69.851562 50.53125 69.832031 50.203125 69.832031 49.851562 L 69.832031 44.828125 C 69.832031 44.128906 69.769531 43.554688 69.628906 43.105469 C 69.484375 42.652344 69.257812 42.285156 68.992188 41.976562 C 68.765625 41.710938 68.394531 41.464844 67.90625 41.238281 C 67.410156 41.03125 66.777344 40.929688 65.976562 40.929688 C 65.300781 40.929688 64.707031 41.011719 64.191406 41.175781 C 63.679688 41.339844 63.207031 41.523438 62.820312 41.75 L 62.980469 43.574219 C 63.25 43.308594 63.640625 43.0625 64.152344 42.839844 C 64.644531 42.632812 65.175781 42.53125 65.773438 42.53125 C 66.53125 42.53125 67.0625 42.734375 67.390625 43.144531 C 67.554688 43.351562 67.679688 43.574219 67.738281 43.820312 C 67.800781 44.089844 67.824219 44.375 67.824219 44.703125 L 67.824219 45.132812 L 67.0625 45.132812 C 65.359375 45.132812 64.050781 45.421875 63.167969 45.976562 C 62.285156 46.550781 61.835938 47.453125 61.835938 48.683594 C 61.835938 49.175781 61.914062 49.605469 62.082031 49.996094 C 62.242188 50.386719 62.46875 50.691406 62.757812 50.960938 C 63.023438 51.226562 63.351562 51.410156 63.71875 51.535156 C 64.089844 51.675781 64.480469 51.738281 64.910156 51.738281 C 65.691406 51.738281 66.304688 51.574219 66.777344 51.246094 C 67.226562 50.9375 67.597656 50.570312 67.863281 50.160156 L 67.90625 50.160156 C 67.90625 50.222656 67.90625 50.324219 67.925781 50.46875 C 67.925781 50.609375 67.925781 50.753906 67.945312 50.898438 C 67.964844 51.042969 67.964844 51.1875 67.984375 51.308594 C 68.007812 51.453125 68.007812 51.535156 68.027344 51.59375 "/>
<path style=" stroke:none;fill-rule:nonzero;fill:rgb(100%,100%,100%);fill-opacity:1;" d="M 79.082031 51.59375 L 81.089844 51.59375 C 81.070312 51.289062 81.050781 50.960938 81.027344 50.609375 C 81.007812 50.28125 81.007812 49.933594 81.007812 49.585938 L 81.007812 41.074219 L 78.875 41.074219 L 78.875 47.246094 C 78.875 48.066406 78.710938 48.722656 78.40625 49.214844 C 78.097656 49.710938 77.585938 49.953125 76.90625 49.953125 C 76.351562 49.953125 75.964844 49.769531 75.699219 49.402344 C 75.429688 49.03125 75.285156 48.4375 75.285156 47.617188 L 75.285156 41.074219 L 73.15625 41.074219 L 73.15625 48.109375 C 73.15625 49.214844 73.402344 50.097656 73.894531 50.753906 C 74.386719 51.410156 75.164062 51.738281 76.230469 51.738281 C 76.949219 51.738281 77.523438 51.574219 77.953125 51.226562 C 78.363281 50.898438 78.691406 50.488281 78.957031 49.996094 L 79 49.996094 L 79.082031 51.59375 "/>
<path style=" stroke:none;fill-rule:nonzero;fill:rgb(100%,100%,100%);fill-opacity:1;" d="M 84.429688 51.1875 C 84.757812 51.328125 85.167969 51.472656 85.679688 51.574219 C 86.171875 51.675781 86.726562 51.738281 87.320312 51.738281 C 88.511719 51.738281 89.410156 51.453125 90.046875 50.859375 C 90.660156 50.261719 90.96875 49.503906 90.96875 48.558594 C 90.96875 47.925781 90.785156 47.410156 90.4375 47.023438 C 90.066406 46.632812 89.578125 46.242188 88.941406 45.894531 L 88.015625 45.382812 C 87.542969 45.113281 87.199219 44.890625 86.929688 44.664062 C 86.664062 44.457031 86.539062 44.171875 86.539062 43.820312 C 86.539062 43.453125 86.664062 43.144531 86.929688 42.921875 C 87.199219 42.695312 87.585938 42.59375 88.121094 42.59375 C 88.550781 42.59375 88.960938 42.632812 89.308594 42.714844 C 89.65625 42.816406 89.984375 42.921875 90.273438 43.042969 L 90.375 41.320312 C 90.148438 41.238281 89.84375 41.15625 89.433594 41.054688 C 89 40.972656 88.511719 40.929688 87.957031 40.929688 C 87.421875 40.929688 86.949219 41.011719 86.519531 41.175781 C 86.089844 41.339844 85.71875 41.566406 85.414062 41.832031 C 85.105469 42.121094 84.859375 42.449219 84.695312 42.796875 C 84.53125 43.164062 84.449219 43.554688 84.449219 43.945312 C 84.449219 44.316406 84.511719 44.644531 84.613281 44.929688 C 84.714844 45.21875 84.859375 45.464844 85.042969 45.6875 C 85.226562 45.914062 85.433594 46.097656 85.699219 46.261719 C 85.96875 46.449219 86.253906 46.609375 86.582031 46.777344 L 87.691406 47.328125 C 88.160156 47.554688 88.488281 47.800781 88.671875 48.046875 C 88.835938 48.292969 88.917969 48.558594 88.917969 48.828125 C 88.917969 49.238281 88.757812 49.546875 88.425781 49.75 C 88.097656 49.976562 87.648438 50.078125 87.09375 50.078125 C 86.582031 50.078125 86.089844 49.996094 85.660156 49.8125 C 85.226562 49.648438 84.859375 49.480469 84.550781 49.339844 L 84.429688 51.1875 "/>
<path style=" stroke:none;fill-rule:nonzero;fill:rgb(100%,100%,100%);fill-opacity:1;" d="M 99.757812 51.59375 L 101.6875 51.59375 C 101.664062 51.410156 101.625 51.144531 101.605469 50.835938 C 101.582031 50.53125 101.5625 50.203125 101.5625 49.851562 L 101.5625 44.828125 C 101.5625 44.128906 101.5 43.554688 101.355469 43.105469 C 101.214844 42.652344 100.988281 42.285156 100.722656 41.976562 C 100.496094 41.710938 100.128906 41.464844 99.636719 41.238281 C 99.144531 41.03125 98.507812 40.929688 97.707031 40.929688 C 97.03125 40.929688 96.433594 41.011719 95.921875 41.175781 C 95.410156 41.339844 94.941406 41.523438 94.550781 41.75 L 94.714844 43.574219 C 94.980469 43.308594 95.371094 43.0625 95.882812 42.839844 C 96.375 42.632812 96.90625 42.53125 97.503906 42.53125 C 98.261719 42.53125 98.792969 42.734375 99.121094 43.144531 C 99.285156 43.351562 99.410156 43.574219 99.46875 43.820312 C 99.53125 44.089844 99.550781 44.375 99.550781 44.703125 L 99.550781 45.132812 L 98.792969 45.132812 C 97.09375 45.132812 95.78125 45.421875 94.898438 45.976562 C 94.015625 46.550781 93.566406 47.453125 93.566406 48.683594 C 93.566406 49.175781 93.648438 49.605469 93.8125 49.996094 C 93.972656 50.386719 94.203125 50.691406 94.488281 50.960938 C 94.753906 51.226562 95.082031 51.410156 95.453125 51.535156 C 95.820312 51.675781 96.210938 51.738281 96.640625 51.738281 C 97.417969 51.738281 98.035156 51.574219 98.507812 51.246094 C 98.960938 50.9375 99.328125 50.570312 99.59375 50.160156 L 99.636719 50.160156 C 99.636719 50.222656 99.636719 50.324219 99.65625 50.46875 C 99.65625 50.609375 99.65625 50.753906 99.675781 50.898438 C 99.695312 51.042969 99.695312 51.1875 99.71875 51.308594 C 99.738281 51.453125 99.738281 51.535156 99.757812 51.59375 "/>
<path style=" stroke:none;fill-rule:nonzero;fill:rgb(100%,100%,100%);fill-opacity:1;" d="M 105.105469 51.59375 L 107.234375 51.59375 L 107.234375 45.359375 C 107.234375 44.539062 107.398438 43.882812 107.75 43.410156 C 108.078125 42.941406 108.570312 42.714844 109.246094 42.714844 C 109.800781 42.714844 110.1875 42.898438 110.453125 43.269531 C 110.703125 43.636719 110.824219 44.230469 110.824219 45.050781 L 110.824219 51.59375 L 112.957031 51.59375 L 112.957031 44.558594 C 112.957031 43.453125 112.710938 42.570312 112.21875 41.914062 C 111.726562 41.257812 110.949219 40.929688 109.882812 40.929688 C 109.265625 40.929688 108.730469 41.074219 108.261719 41.382812 C 107.789062 41.6875 107.421875 42.121094 107.152344 42.671875 L 107.113281 42.671875 C 107.113281 42.609375 107.113281 42.488281 107.113281 42.34375 C 107.09375 42.203125 107.09375 42.035156 107.070312 41.875 C 107.050781 41.710938 107.050781 41.546875 107.050781 41.402344 C 107.03125 41.257812 107.03125 41.136719 107.03125 41.074219 L 105.019531 41.074219 C 105.042969 41.382812 105.0625 41.710938 105.082031 42.035156 C 105.105469 42.386719 105.105469 42.734375 105.105469 43.082031 L 105.105469 51.59375 "/>
<path style=" stroke:none;fill-rule:nonzero;fill:rgb(100%,100%,100%);fill-opacity:1;" d="M 116.480469 51.59375 L 118.613281 51.59375 L 118.613281 45.359375 C 118.613281 44.539062 118.777344 43.882812 119.128906 43.410156 C 119.453125 42.941406 119.949219 42.714844 120.625 42.714844 C 121.179688 42.714844 121.566406 42.898438 121.835938 43.269531 C 122.082031 43.636719 122.203125 44.230469 122.203125 45.050781 L 122.203125 51.59375 L 124.335938 51.59375 L 124.335938 44.558594 C 124.335938 43.453125 124.089844 42.570312 123.597656 41.914062 C 123.105469 41.257812 122.324219 40.929688 121.261719 40.929688 C 120.644531 40.929688 120.109375 41.074219 119.640625 41.382812 C 119.167969 41.6875 118.800781 42.121094 118.53125 42.671875 L 118.492188 42.671875 C 118.492188 42.609375 118.492188 42.488281 118.492188 42.34375 C 118.472656 42.203125 118.472656 42.035156 118.449219 41.875 C 118.429688 41.710938 118.429688 41.546875 118.429688 41.402344 C 118.410156 41.257812 118.410156 41.136719 118.410156 41.074219 L 116.398438 41.074219 C 116.421875 41.382812 116.441406 41.710938 116.460938 42.035156 C 116.480469 42.386719 116.480469 42.734375 116.480469 43.082031 L 116.480469 51.59375 "/>
<path style=" stroke:none;fill-rule:nonzero;fill:rgb(100%,100%,100%);fill-opacity:1;" d="M 129.367188 46.941406 L 135.375 46.941406 L 135.375 46.222656 C 135.375 45.296875 135.273438 44.519531 135.089844 43.84375 C 134.902344 43.164062 134.636719 42.609375 134.289062 42.179688 C 133.941406 41.75 133.511719 41.441406 133.039062 41.238281 C 132.546875 41.03125 132.015625 40.929688 131.4375 40.929688 C 130.78125 40.929688 130.1875 41.054688 129.675781 41.320312 C 129.144531 41.585938 128.691406 41.976562 128.34375 42.449219 C 127.992188 42.941406 127.707031 43.515625 127.523438 44.191406 C 127.339844 44.867188 127.234375 45.605469 127.234375 46.40625 C 127.234375 47.164062 127.339844 47.882812 127.523438 48.539062 C 127.707031 49.195312 127.972656 49.75 128.363281 50.222656 C 128.734375 50.691406 129.203125 51.0625 129.777344 51.328125 C 130.351562 51.617188 131.027344 51.738281 131.789062 51.738281 C 132.445312 51.738281 133.039062 51.675781 133.550781 51.535156 C 134.0625 51.390625 134.476562 51.246094 134.824219 51.101562 L 134.71875 49.320312 C 134.453125 49.503906 134.105469 49.6875 133.695312 49.871094 C 133.265625 50.058594 132.753906 50.160156 132.136719 50.160156 C 131.152344 50.160156 130.457031 49.894531 130.023438 49.339844 C 129.59375 48.804688 129.367188 48.007812 129.367188 46.941406 "/>
<path style=" stroke:none;fill-rule:nonzero;fill:rgb(100%,100%,100%);fill-opacity:1;" d="M 53.457031 88.332031 L 57.351562 88.332031 C 58.070312 88.332031 58.707031 88.230469 59.261719 88.023438 C 59.8125 87.839844 60.265625 87.550781 60.65625 87.203125 C 61.042969 86.855469 61.332031 86.425781 61.535156 85.933594 C 61.71875 85.460938 61.824219 84.925781 61.824219 84.351562 C 61.824219 83.796875 61.742188 83.328125 61.597656 82.898438 C 61.433594 82.484375 61.230469 82.136719 60.984375 81.851562 C 60.714844 81.585938 60.429688 81.359375 60.121094 81.195312 C 59.792969 81.03125 59.464844 80.925781 59.136719 80.863281 L 59.136719 80.824219 C 59.445312 80.722656 59.730469 80.597656 60.019531 80.414062 C 60.285156 80.25 60.53125 80.046875 60.757812 79.78125 C 60.984375 79.511719 61.148438 79.207031 61.289062 78.835938 C 61.433594 78.484375 61.496094 78.054688 61.496094 77.585938 C 61.496094 76.433594 61.167969 75.554688 60.511719 74.9375 C 59.835938 74.324219 58.789062 74.015625 57.351562 74.015625 L 53.457031 74.015625 L 53.457031 88.332031 "/>
<path style=" stroke:none;fill-rule:nonzero;fill:rgb(100%,100%,100%);fill-opacity:1;" d="M 66.707031 83.675781 L 72.714844 83.675781 L 72.714844 82.957031 C 72.714844 82.035156 72.613281 81.257812 72.425781 80.578125 C 72.242188 79.902344 71.976562 79.347656 71.628906 78.917969 C 71.277344 78.484375 70.847656 78.179688 70.375 77.972656 C 69.882812 77.769531 69.351562 77.667969 68.777344 77.667969 C 68.121094 77.667969 67.527344 77.789062 67.015625 78.054688 C 66.480469 78.324219 66.027344 78.710938 65.679688 79.183594 C 65.332031 79.675781 65.042969 80.25 64.859375 80.925781 C 64.675781 81.605469 64.574219 82.34375 64.574219 83.144531 C 64.574219 83.902344 64.675781 84.621094 64.859375 85.277344 C 65.042969 85.933594 65.3125 86.484375 65.699219 86.957031 C 66.070312 87.429688 66.542969 87.796875 67.117188 88.066406 C 67.691406 88.351562 68.367188 88.472656 69.125 88.472656 C 69.78125 88.472656 70.375 88.414062 70.890625 88.269531 C 71.402344 88.128906 71.8125 87.984375 72.160156 87.839844 L 72.058594 86.054688 C 71.789062 86.238281 71.441406 86.425781 71.03125 86.609375 C 70.601562 86.792969 70.089844 86.898438 69.472656 86.898438 C 68.488281 86.898438 67.792969 86.628906 67.363281 86.078125 C 66.929688 85.542969 66.707031 84.742188 66.707031 83.675781 "/>
<path style=" stroke:none;fill-rule:nonzero;fill:rgb(100%,100%,100%);fill-opacity:1;" d="M 75.835938 88.332031 L 77.96875 88.332031 L 77.96875 82.671875 C 77.96875 82.136719 78.03125 81.6875 78.152344 81.296875 C 78.277344 80.90625 78.441406 80.597656 78.644531 80.351562 C 78.851562 80.128906 79.097656 79.941406 79.363281 79.820312 C 79.628906 79.71875 79.898438 79.65625 80.203125 79.65625 C 80.328125 79.65625 80.449219 79.65625 80.550781 79.675781 C 80.65625 79.699219 80.777344 79.71875 80.882812 79.738281 L 80.882812 77.6875 C 80.839844 77.6875 80.796875 77.6875 80.777344 77.667969 C 80.757812 77.667969 80.71875 77.667969 80.675781 77.667969 C 80.285156 77.667969 79.9375 77.707031 79.628906 77.808594 C 79.324219 77.910156 79.078125 78.054688 78.851562 78.238281 C 78.625 78.425781 78.417969 78.628906 78.257812 78.855469 C 78.09375 79.082031 77.949219 79.328125 77.847656 79.59375 L 77.804688 79.59375 C 77.804688 79.511719 77.804688 79.390625 77.804688 79.222656 C 77.785156 79.0625 77.785156 78.878906 77.765625 78.691406 C 77.742188 78.507812 77.742188 78.34375 77.742188 78.179688 C 77.722656 78.015625 77.722656 77.890625 77.722656 77.808594 L 75.753906 77.808594 C 75.773438 78.117188 75.796875 78.445312 75.816406 78.773438 C 75.835938 79.121094 75.835938 79.472656 75.835938 79.820312 L 75.835938 88.332031 "/>
<path style=" stroke:none;fill-rule:nonzero;fill:rgb(100%,100%,100%);fill-opacity:1;" d="M 83.011719 88.332031 L 85.144531 88.332031 L 85.144531 82.097656 C 85.144531 81.277344 85.308594 80.621094 85.65625 80.148438 C 85.984375 79.675781 86.476562 79.453125 87.15625 79.453125 C 87.707031 79.453125 88.097656 79.636719 88.363281 80.003906 C 88.609375 80.375 88.734375 80.96875 88.734375 81.789062 L 88.734375 88.332031 L 90.867188 88.332031 L 90.867188 81.296875 C 90.867188 80.191406 90.621094 79.308594 90.128906 78.652344 C 89.636719 77.996094 88.855469 77.667969 87.789062 77.667969 C 87.175781 77.667969 86.640625 77.808594 86.167969 78.117188 C 85.699219 78.425781 85.328125 78.855469 85.0625 79.410156 L 85.023438 79.410156 C 85.023438 79.347656 85.023438 79.222656 85.023438 79.082031 C 85 78.9375 85 78.773438 84.980469 78.609375 C 84.960938 78.445312 84.960938 78.28125 84.960938 78.140625 C 84.941406 77.996094 84.941406 77.871094 84.941406 77.808594 L 82.929688 77.808594 C 82.949219 78.117188 82.96875 78.445312 82.992188 78.773438 C 83.011719 79.121094 83.011719 79.472656 83.011719 79.820312 L 83.011719 88.332031 "/>
<path style=" stroke:none;fill-rule:nonzero;fill:rgb(100%,100%,100%);fill-opacity:1;" d="M 53.457031 110.78125 L 55.671875 110.78125 L 55.671875 104.34375 L 60.058594 104.34375 L 60.058594 102.519531 L 55.671875 102.519531 L 55.671875 98.292969 L 60.265625 98.292969 L 60.265625 96.464844 L 53.457031 96.464844 L 53.457031 110.78125 "/>
<path style=" stroke:none;fill-rule:nonzero;fill:rgb(100%,100%,100%);fill-opacity:1;" d="M 62.554688 110.78125 L 64.6875 110.78125 L 64.6875 105.121094 C 64.6875 104.589844 64.75 104.136719 64.871094 103.746094 C 64.996094 103.359375 65.160156 103.050781 65.363281 102.804688 C 65.570312 102.578125 65.816406 102.394531 66.082031 102.269531 C 66.347656 102.167969 66.617188 102.105469 66.921875 102.105469 C 67.046875 102.105469 67.167969 102.105469 67.273438 102.128906 C 67.375 102.148438 67.496094 102.167969 67.597656 102.191406 L 67.597656 100.140625 C 67.558594 100.140625 67.519531 100.140625 67.496094 100.117188 C 67.476562 100.117188 67.433594 100.117188 67.394531 100.117188 C 67.003906 100.117188 66.65625 100.15625 66.347656 100.261719 C 66.042969 100.363281 65.792969 100.507812 65.570312 100.691406 C 65.34375 100.875 65.140625 101.082031 64.976562 101.304688 C 64.808594 101.53125 64.667969 101.78125 64.566406 102.046875 L 64.523438 102.046875 C 64.523438 101.964844 64.523438 101.839844 64.523438 101.675781 C 64.503906 101.511719 64.503906 101.328125 64.484375 101.144531 C 64.460938 100.957031 64.460938 100.792969 64.460938 100.628906 C 64.441406 100.46875 64.441406 100.34375 64.441406 100.261719 L 62.472656 100.261719 C 62.492188 100.570312 62.515625 100.898438 62.535156 101.222656 C 62.554688 101.574219 62.554688 101.921875 62.554688 102.269531 L 62.554688 110.78125 "/>
<path style=" stroke:none;fill-rule:nonzero;fill:rgb(100%,100%,100%);fill-opacity:1;" d="M 69.609375 110.78125 L 71.738281 110.78125 L 71.738281 100.261719 L 69.609375 100.261719 L 69.609375 110.78125 "/>
<path style=" stroke:none;fill-rule:nonzero;fill:rgb(100%,100%,100%);fill-opacity:1;" d="M 69.546875 98.148438 L 71.800781 98.148438 L 71.800781 95.871094 L 69.546875 95.871094 L 69.546875 98.148438 "/>
<path style=" stroke:none;fill-rule:nonzero;fill:rgb(100%,100%,100%);fill-opacity:1;" d="M 75.257812 110.78125 L 77.269531 110.78125 C 77.269531 110.742188 77.269531 110.660156 77.289062 110.519531 C 77.308594 110.371094 77.308594 110.230469 77.328125 110.042969 C 77.328125 109.882812 77.328125 109.71875 77.351562 109.550781 C 77.351562 109.390625 77.351562 109.265625 77.351562 109.183594 L 77.390625 109.183594 C 77.492188 109.410156 77.636719 109.613281 77.800781 109.820312 C 77.945312 110.023438 78.128906 110.210938 78.355469 110.371094 C 78.582031 110.535156 78.828125 110.660156 79.132812 110.761719 C 79.441406 110.886719 79.789062 110.925781 80.179688 110.925781 C 80.773438 110.925781 81.308594 110.800781 81.757812 110.535156 C 82.210938 110.289062 82.597656 109.921875 82.90625 109.449219 C 83.214844 108.976562 83.441406 108.421875 83.605469 107.746094 C 83.746094 107.089844 83.832031 106.351562 83.832031 105.53125 C 83.832031 103.746094 83.503906 102.414062 82.84375 101.492188 C 82.191406 100.570312 81.308594 100.117188 80.199219 100.117188 C 79.523438 100.117188 78.96875 100.261719 78.558594 100.570312 C 78.128906 100.875 77.78125 101.265625 77.515625 101.738281 L 77.472656 101.738281 L 77.472656 95.398438 L 75.339844 95.398438 L 75.339844 108.917969 C 75.339844 109.265625 75.339844 109.613281 75.320312 109.921875 C 75.300781 110.230469 75.277344 110.519531 75.257812 110.78125 "/>
<path style=" stroke:none;fill-rule:nonzero;fill:rgb(100%,100%,100%);fill-opacity:1;" d="M 87.957031 109.65625 C 88.34375 110.085938 88.816406 110.414062 89.371094 110.617188 C 89.90625 110.824219 90.476562 110.925781 91.09375 110.925781 C 91.710938 110.925781 92.28125 110.824219 92.835938 110.617188 C 93.371094 110.414062 93.84375 110.085938 94.230469 109.65625 C 94.621094 109.222656 94.949219 108.667969 95.175781 107.992188 C 95.398438 107.316406 95.523438 106.476562 95.523438 105.511719 C 95.523438 104.570312 95.398438 103.746094 95.175781 103.070312 C 94.949219 102.394531 94.621094 101.820312 94.230469 101.390625 C 93.84375 100.957031 93.371094 100.628906 92.835938 100.425781 C 92.28125 100.21875 91.710938 100.117188 91.09375 100.117188 C 90.476562 100.117188 89.90625 100.21875 89.371094 100.425781 C 88.816406 100.628906 88.34375 100.957031 87.957031 101.390625 C 87.566406 101.820312 87.238281 102.394531 87.011719 103.070312 C 86.789062 103.746094 86.664062 104.570312 86.664062 105.511719 C 86.664062 106.476562 86.789062 107.316406 87.011719 107.992188 C 87.238281 108.667969 87.566406 109.222656 87.957031 109.65625 "/>
<path style=" stroke:none;fill-rule:nonzero;fill:rgb(100%,100%,100%);fill-opacity:1;" d="M 104.222656 110.78125 L 106.230469 110.78125 C 106.210938 110.476562 106.191406 110.148438 106.171875 109.796875 C 106.148438 109.46875 106.148438 109.121094 106.148438 108.773438 L 106.148438 100.261719 L 104.015625 100.261719 L 104.015625 106.433594 C 104.015625 107.253906 103.851562 107.910156 103.546875 108.402344 C 103.238281 108.898438 102.726562 109.140625 102.050781 109.140625 C 101.492188 109.140625 101.105469 108.957031 100.839844 108.589844 C 100.570312 108.21875 100.429688 107.625 100.429688 106.804688 L 100.429688 100.261719 L 98.296875 100.261719 L 98.296875 107.296875 C 98.296875 108.402344 98.542969 109.285156 99.035156 109.941406 C 99.527344 110.597656 100.304688 110.925781 101.371094 110.925781 C 102.089844 110.925781 102.664062 110.761719 103.09375 110.414062 C 103.503906 110.085938 103.832031 109.675781 104.097656 109.183594 L 104.140625 109.183594 L 104.222656 110.78125 "/>
<path style=" stroke:none;fill-rule:nonzero;fill:rgb(100%,100%,100%);fill-opacity:1;" d="M 109.84375 110.78125 L 111.976562 110.78125 L 111.976562 105.121094 C 111.976562 104.589844 112.035156 104.136719 112.160156 103.746094 C 112.28125 103.359375 112.445312 103.050781 112.652344 102.804688 C 112.855469 102.578125 113.101562 102.394531 113.367188 102.269531 C 113.636719 102.167969 113.902344 102.105469 114.210938 102.105469 C 114.332031 102.105469 114.453125 102.105469 114.558594 102.128906 C 114.660156 102.148438 114.785156 102.167969 114.886719 102.191406 L 114.886719 100.140625 C 114.847656 100.140625 114.804688 100.140625 114.785156 100.117188 C 114.765625 100.117188 114.722656 100.117188 114.683594 100.117188 C 114.292969 100.117188 113.941406 100.15625 113.636719 100.261719 C 113.328125 100.363281 113.082031 100.507812 112.855469 100.691406 C 112.632812 100.875 112.425781 101.082031 112.261719 101.304688 C 112.097656 101.53125 111.953125 101.78125 111.851562 102.046875 L 111.8125 102.046875 C 111.8125 101.964844 111.8125 101.839844 111.8125 101.675781 C 111.789062 101.511719 111.789062 101.328125 111.769531 101.144531 C 111.75 100.957031 111.75 100.792969 111.75 100.628906 C 111.730469 100.46875 111.730469 100.34375 111.730469 100.261719 L 109.761719 100.261719 C 109.78125 100.570312 109.800781 100.898438 109.820312 101.222656 C 109.84375 101.574219 109.84375 101.921875 109.84375 102.269531 L 109.84375 110.78125 "/>
<path style=" stroke:none;fill-rule:nonzero;fill:rgb(100%,100%,100%);fill-opacity:1;" d="M 116.804688 112.691406 L 116.683594 114.679688 C 117.03125 114.824219 117.523438 114.96875 118.140625 115.109375 C 118.753906 115.253906 119.390625 115.335938 120.023438 115.335938 C 121.585938 115.335938 122.753906 114.90625 123.53125 114.066406 C 124.3125 113.222656 124.699219 112.011719 124.699219 110.453125 L 124.699219 102.046875 C 124.699219 101.738281 124.722656 101.453125 124.742188 101.144531 C 124.761719 100.835938 124.761719 100.546875 124.78125 100.261719 L 122.8125 100.261719 C 122.8125 100.324219 122.8125 100.445312 122.8125 100.589844 C 122.792969 100.734375 122.792969 100.898438 122.773438 101.0625 C 122.753906 101.222656 122.753906 101.367188 122.753906 101.511719 C 122.730469 101.65625 122.730469 101.78125 122.730469 101.839844 L 122.671875 101.839844 C 122.402344 101.367188 122.054688 100.957031 121.625 100.609375 C 121.195312 100.28125 120.660156 100.117188 120.003906 100.117188 C 119.367188 100.117188 118.796875 100.238281 118.324219 100.507812 C 117.851562 100.773438 117.441406 101.121094 117.132812 101.59375 C 116.824219 102.066406 116.582031 102.640625 116.4375 103.296875 C 116.273438 103.972656 116.191406 104.710938 116.191406 105.53125 C 116.191406 106.515625 116.292969 107.339844 116.519531 108.015625 C 116.722656 108.691406 116.988281 109.246094 117.339844 109.65625 C 117.6875 110.085938 118.078125 110.371094 118.507812 110.558594 C 118.9375 110.742188 119.390625 110.84375 119.839844 110.84375 C 120.558594 110.84375 121.132812 110.679688 121.5625 110.332031 C 121.992188 110.003906 122.34375 109.59375 122.609375 109.082031 L 122.648438 109.082031 L 122.648438 110.394531 C 122.648438 110.824219 122.609375 111.253906 122.527344 111.644531 C 122.425781 112.035156 122.28125 112.363281 122.074219 112.648438 C 121.851562 112.9375 121.5625 113.160156 121.195312 113.347656 C 120.824219 113.511719 120.355469 113.59375 119.800781 113.59375 C 119.226562 113.59375 118.671875 113.488281 118.117188 113.304688 C 117.5625 113.097656 117.132812 112.894531 116.804688 112.691406 "/>
<path style=" stroke:none;fill-rule:nonzero;fill:rgb(100%,100%,100%);fill-opacity:1;" d="M 91.753906 132.550781 C 92.078125 132.671875 92.453125 132.789062 92.898438 132.875 C 93.324219 132.976562 93.800781 133.027344 94.296875 133.027344 C 95.5625 133.027344 96.535156 132.652344 97.21875 131.917969 C 97.90625 131.167969 98.246094 130.15625 98.246094 128.875 C 98.246094 128.292969 98.160156 127.765625 97.988281 127.320312 C 97.800781 126.859375 97.5625 126.484375 97.273438 126.175781 C 96.980469 125.867188 96.621094 125.644531 96.230469 125.492188 C 95.820312 125.339844 95.390625 125.253906 94.949219 125.253906 C 94.675781 125.253906 94.417969 125.269531 94.199219 125.304688 C 93.957031 125.320312 93.753906 125.371094 93.597656 125.421875 L 93.597656 122.414062 L 97.683594 122.414062 L 97.683594 120.960938 L 91.921875 120.960938 L 91.921875 127.046875 C 92.214844 126.960938 92.523438 126.878906 92.828125 126.789062 C 93.136719 126.707031 93.496094 126.671875 93.890625 126.671875 C 94.710938 126.671875 95.324219 126.894531 95.75 127.320312 C 96.160156 127.746094 96.367188 128.332031 96.367188 129.03125 C 96.367188 129.765625 96.160156 130.363281 95.734375 130.824219 C 95.308594 131.304688 94.726562 131.542969 93.992188 131.542969 C 93.5625 131.542969 93.171875 131.472656 92.8125 131.355469 C 92.453125 131.234375 92.128906 131.097656 91.855469 130.945312 L 91.753906 132.550781 "/>
<path style=" stroke:none;fill-rule:nonzero;fill:rgb(100%,100%,100%);fill-opacity:1;" d="M 100.855469 131.285156 C 101.148438 131.835938 101.523438 132.261719 101.984375 132.566406 C 102.445312 132.875 102.992188 133.027344 103.660156 133.027344 C 104.328125 133.027344 104.890625 132.875 105.351562 132.550781 C 105.8125 132.242188 106.1875 131.816406 106.480469 131.269531 C 106.769531 130.722656 106.976562 130.074219 107.09375 129.339844 C 107.214844 128.601562 107.28125 127.800781 107.28125 126.925781 C 107.28125 126.054688 107.214844 125.253906 107.09375 124.5 C 106.976562 123.765625 106.769531 123.113281 106.480469 122.570312 C 106.1875 122.023438 105.8125 121.59375 105.351562 121.269531 C 104.890625 120.960938 104.328125 120.808594 103.660156 120.808594 C 102.992188 120.808594 102.429688 120.960938 101.96875 121.269531 C 101.507812 121.59375 101.148438 122.023438 100.855469 122.570312 C 100.566406 123.113281 100.363281 123.765625 100.242188 124.5 C 100.121094 125.253906 100.054688 126.054688 100.054688 126.925781 C 100.054688 127.800781 100.121094 128.601562 100.242188 129.339844 C 100.363281 130.089844 100.566406 130.738281 100.855469 131.285156 "/>
<path style=" stroke:none;fill-rule:nonzero;fill:rgb(100%,100%,100%);fill-opacity:1;" d="M 110.117188 131.285156 C 110.410156 131.835938 110.785156 132.261719 111.246094 132.566406 C 111.710938 132.875 112.257812 133.027344 112.921875 133.027344 C 113.589844 133.027344 114.152344 132.875 114.613281 132.550781 C 115.074219 132.242188 115.453125 131.816406 115.742188 131.269531 C 116.03125 130.722656 116.238281 130.074219 116.355469 129.339844 C 116.476562 128.601562 116.546875 127.800781 116.546875 126.925781 C 116.546875 126.054688 116.476562 125.253906 116.355469 124.5 C 116.238281 123.765625 116.03125 123.113281 115.742188 122.570312 C 115.453125 122.023438 115.074219 121.59375 114.613281 121.269531 C 114.152344 120.960938 113.589844 120.808594 112.921875 120.808594 C 112.257812 120.808594 111.691406 120.960938 111.230469 121.269531 C 110.769531 121.59375 110.410156 122.023438 110.117188 122.570312 C 109.828125 123.113281 109.625 123.765625 109.503906 124.5 C 109.386719 125.253906 109.316406 126.054688 109.316406 126.925781 C 109.316406 127.800781 109.386719 128.601562 109.503906 129.339844 C 109.625 130.089844 109.828125 130.738281 110.117188 131.285156 "/>
<path style=" stroke:none;fill-rule:nonzero;fill:rgb(100%,100%,100%);fill-opacity:1;" d="M 127.46875 132.894531 L 129.246094 132.894531 L 129.246094 127.527344 C 129.246094 126.878906 129.382812 126.382812 129.640625 126.023438 C 129.894531 125.664062 130.285156 125.492188 130.78125 125.492188 C 131.601562 125.492188 132.015625 126.039062 132.015625 127.113281 L 132.015625 132.894531 L 133.789062 132.894531 L 133.789062 127.527344 C 133.789062 126.878906 133.929688 126.382812 134.183594 126.023438 C 134.4375 125.664062 134.832031 125.492188 135.328125 125.492188 C 136.148438 125.492188 136.558594 126.039062 136.558594 127.113281 L 136.558594 132.894531 L 138.335938 132.894531 L 138.335938 127.148438 C 138.335938 126.125 138.132812 125.339844 137.722656 124.808594 C 137.292969 124.277344 136.660156 124.003906 135.808594 124.003906 C 135.242188 124.003906 134.78125 124.140625 134.421875 124.414062 C 134.0625 124.707031 133.789062 125.03125 133.566406 125.390625 C 133.480469 125.21875 133.382812 125.046875 133.261719 124.878906 C 133.140625 124.722656 132.988281 124.570312 132.816406 124.429688 C 132.644531 124.3125 132.441406 124.210938 132.21875 124.125 C 131.996094 124.039062 131.722656 124.003906 131.433594 124.003906 C 130.886719 124.003906 130.441406 124.140625 130.082031 124.414062 C 129.722656 124.707031 129.433594 125.046875 129.246094 125.476562 L 129.210938 125.476562 C 129.210938 125.421875 129.210938 125.320312 129.210938 125.183594 C 129.191406 125.066406 129.191406 124.925781 129.191406 124.789062 C 129.175781 124.65625 129.175781 124.519531 129.175781 124.398438 C 129.160156 124.277344 129.160156 124.175781 129.160156 124.125 L 127.398438 124.125 C 127.414062 124.363281 127.433594 124.621094 127.449219 124.894531 C 127.46875 125.167969 127.46875 125.457031 127.46875 125.78125 L 127.46875 132.894531 "/>
<path style=" stroke:none;fill-rule:nonzero;fill:rgb(0%,49.674988%,27.331543%);fill-opacity:1;" d="M 68.769531 23.035156 C 68.789062 22.070312 68.972656 21.3125 69.324219 20.777344 C 69.671875 20.265625 70.164062 19.996094 70.777344 19.996094 C 72.050781 19.996094 72.683594 21.003906 72.683594 23.035156 L 68.769531 23.035156 "/>
<path style=" stroke:none;fill-rule:nonzero;fill:rgb(0%,49.674988%,27.331543%);fill-opacity:1;" d="M 90.855469 23.035156 C 90.875 22.070312 91.058594 21.3125 91.40625 20.777344 C 91.757812 20.265625 92.25 19.996094 92.863281 19.996094 C 94.136719 19.996094 94.773438 21.003906 94.773438 23.035156 L 90.855469 23.035156 "/>
<path style=" stroke:none;fill-rule:nonzero;fill:rgb(0%,49.674988%,27.331543%);fill-opacity:1;" d="M 111.371094 23.035156 C 111.394531 22.070312 111.578125 21.3125 111.925781 20.777344 C 112.273438 20.265625 112.765625 19.996094 113.382812 19.996094 C 114.652344 19.996094 115.289062 21.003906 115.289062 23.035156 L 111.371094 23.035156 "/>
<path style=" stroke:none;fill-rule:nonzero;fill:rgb(0%,49.674988%,27.331543%);fill-opacity:1;" d="M 67.824219 46.449219 L 67.824219 47.390625 C 67.824219 48.230469 67.636719 48.910156 67.269531 49.421875 C 66.878906 49.953125 66.324219 50.222656 65.566406 50.222656 C 65.011719 50.222656 64.601562 50.058594 64.316406 49.75 C 64.027344 49.441406 63.886719 49.011719 63.886719 48.5 C 63.886719 47.800781 64.152344 47.289062 64.707031 46.941406 C 65.257812 46.589844 66.058594 46.425781 67.105469 46.425781 C 67.226562 46.425781 67.351562 46.425781 67.492188 46.425781 C 67.636719 46.425781 67.761719 46.425781 67.824219 46.449219 "/>
<path style=" stroke:none;fill-rule:nonzero;fill:rgb(0%,49.674988%,27.331543%);fill-opacity:1;" d="M 99.550781 46.449219 L 99.550781 47.390625 C 99.550781 48.230469 99.367188 48.910156 99 49.421875 C 98.609375 49.953125 98.054688 50.222656 97.296875 50.222656 C 96.742188 50.222656 96.335938 50.058594 96.046875 49.75 C 95.757812 49.441406 95.613281 49.011719 95.613281 48.5 C 95.613281 47.800781 95.882812 47.289062 96.433594 46.941406 C 96.988281 46.589844 97.789062 46.425781 98.835938 46.425781 C 98.960938 46.425781 99.082031 46.425781 99.222656 46.425781 C 99.367188 46.425781 99.492188 46.425781 99.550781 46.449219 "/>
<path style=" stroke:none;fill-rule:nonzero;fill:rgb(0%,49.674988%,27.331543%);fill-opacity:1;" d="M 129.367188 45.484375 C 129.390625 44.519531 129.574219 43.761719 129.921875 43.226562 C 130.269531 42.714844 130.761719 42.449219 131.378906 42.449219 C 132.648438 42.449219 133.285156 43.453125 133.285156 45.484375 L 129.367188 45.484375 "/>
<path style=" stroke:none;fill-rule:nonzero;fill:rgb(0%,49.674988%,27.331543%);fill-opacity:1;" d="M 55.632812 80.105469 L 55.632812 75.71875 L 56.964844 75.71875 C 57.761719 75.71875 58.355469 75.902344 58.746094 76.292969 C 59.136719 76.683594 59.320312 77.195312 59.320312 77.808594 C 59.320312 78.484375 59.117188 79.039062 58.707031 79.472656 C 58.277344 79.902344 57.660156 80.105469 56.839844 80.105469 L 55.632812 80.105469 "/>
<path style=" stroke:none;fill-rule:nonzero;fill:rgb(0%,49.674988%,27.331543%);fill-opacity:1;" d="M 55.632812 86.589844 L 55.632812 81.808594 L 57.1875 81.808594 C 57.621094 81.808594 57.96875 81.871094 58.277344 81.992188 C 58.582031 82.117188 58.828125 82.28125 59.035156 82.507812 C 59.21875 82.730469 59.363281 82.976562 59.464844 83.265625 C 59.566406 83.550781 59.609375 83.859375 59.609375 84.210938 C 59.609375 84.886719 59.40625 85.460938 58.992188 85.910156 C 58.582031 86.363281 57.96875 86.589844 57.128906 86.589844 L 55.632812 86.589844 "/>
<path style=" stroke:none;fill-rule:nonzero;fill:rgb(0%,49.674988%,27.331543%);fill-opacity:1;" d="M 66.707031 82.21875 C 66.726562 81.257812 66.910156 80.496094 67.261719 79.964844 C 67.609375 79.453125 68.101562 79.183594 68.714844 79.183594 C 69.988281 79.183594 70.621094 80.191406 70.621094 82.21875 L 66.707031 82.21875 "/>
<path style=" stroke:none;fill-rule:nonzero;fill:rgb(0%,49.674988%,27.331543%);fill-opacity:1;" d="M 77.984375 108.261719 C 77.636719 107.585938 77.472656 106.660156 77.472656 105.511719 C 77.472656 104.34375 77.636719 103.417969 77.984375 102.742188 C 78.335938 102.066406 78.867188 101.738281 79.605469 101.738281 C 80.363281 101.738281 80.898438 102.066406 81.226562 102.703125 C 81.535156 103.359375 81.699219 104.28125 81.699219 105.46875 C 81.699219 106.761719 81.554688 107.707031 81.246094 108.34375 C 80.9375 108.976562 80.386719 109.304688 79.625 109.304688 C 78.867188 109.304688 78.3125 108.957031 77.984375 108.261719 "/>
<path style=" stroke:none;fill-rule:nonzero;fill:rgb(0%,49.674988%,27.331543%);fill-opacity:1;" d="M 89.371094 108.238281 C 89.1875 107.890625 89.0625 107.5 89.003906 107.03125 C 88.917969 106.558594 88.878906 106.066406 88.878906 105.511719 C 88.878906 104.957031 88.917969 104.464844 89.003906 103.992188 C 89.0625 103.523438 89.1875 103.132812 89.371094 102.785156 C 89.554688 102.457031 89.78125 102.191406 90.070312 102.003906 C 90.335938 101.820312 90.683594 101.71875 91.09375 101.71875 C 91.503906 101.71875 91.851562 101.820312 92.140625 102.003906 C 92.40625 102.191406 92.632812 102.457031 92.816406 102.785156 C 93 103.132812 93.125 103.523438 93.207031 103.992188 C 93.269531 104.464844 93.308594 104.957031 93.308594 105.511719 C 93.308594 106.066406 93.269531 106.558594 93.207031 107.03125 C 93.125 107.5 93 107.890625 92.816406 108.238281 C 92.632812 108.589844 92.40625 108.855469 92.140625 109.039062 C 91.851562 109.222656 91.503906 109.328125 91.09375 109.328125 C 90.683594 109.328125 90.335938 109.222656 90.070312 109.039062 C 89.78125 108.855469 89.554688 108.589844 89.371094 108.238281 "/>
<path style=" stroke:none;fill-rule:nonzero;fill:rgb(0%,49.674988%,27.331543%);fill-opacity:1;" d="M 118.898438 108.300781 C 118.550781 107.707031 118.363281 106.761719 118.363281 105.46875 C 118.363281 104.261719 118.527344 103.359375 118.855469 102.722656 C 119.164062 102.105469 119.695312 101.796875 120.4375 101.78125 C 121.132812 101.78125 121.664062 102.085938 122.054688 102.703125 C 122.425781 103.316406 122.609375 104.238281 122.609375 105.449219 C 122.609375 106.722656 122.425781 107.664062 122.074219 108.28125 C 121.726562 108.917969 121.152344 109.222656 120.355469 109.222656 C 119.738281 109.222656 119.246094 108.917969 118.898438 108.300781 "/>
<path style=" stroke:none;fill-rule:nonzero;fill:rgb(0%,49.674988%,27.331543%);fill-opacity:1;" d="M 102.257812 130.382812 C 102.003906 129.578125 101.867188 128.414062 101.867188 126.925781 C 101.867188 125.441406 102.003906 124.277344 102.257812 123.457031 C 102.515625 122.636719 102.992188 122.226562 103.660156 122.226562 C 104.34375 122.226562 104.820312 122.636719 105.078125 123.441406 C 105.335938 124.261719 105.472656 125.421875 105.472656 126.925781 C 105.472656 128.414062 105.335938 129.578125 105.078125 130.382812 C 104.804688 131.203125 104.328125 131.609375 103.660156 131.609375 C 102.992188 131.609375 102.515625 131.203125 102.257812 130.382812 "/>
<path style=" stroke:none;fill-rule:nonzero;fill:rgb(0%,49.674988%,27.331543%);fill-opacity:1;" d="M 111.519531 130.382812 C 111.265625 129.578125 111.128906 128.414062 111.128906 126.925781 C 111.128906 125.441406 111.265625 124.277344 111.519531 123.457031 C 111.777344 122.636719 112.257812 122.226562 112.921875 122.226562 C 113.605469 122.226562 114.085938 122.636719 114.339844 123.441406 C 114.597656 124.261719 114.734375 125.421875 114.734375 126.925781 C 114.734375 128.414062 114.597656 129.578125 114.339844 130.382812 C 114.066406 131.203125 113.589844 131.609375 112.921875 131.609375 C 112.257812 131.609375 111.777344 131.203125 111.519531 130.382812 "/>
</g>
</svg>
