<?xml version="1.0" encoding="UTF-8"?>
<svg xmlns="http://www.w3.org/2000/svg" xmlns:xlink="http://www.w3.org/1999/xlink" width="69pt" height="44pt" viewBox="0 0 69 44" version="1.1">
<g id="surface1">
<path style=" stroke:none;fill-rule:nonzero;fill:rgb(100%,100%,100%);fill-opacity:1;" d="M 0.449219 43.433594 L 68.480469 43.433594 L 68.480469 0.914062 L 0.449219 0.914062 Z M 0.449219 43.433594 "/>
<path style="fill:none;stroke-width:2.835;stroke-linecap:butt;stroke-linejoin:round;stroke:rgb(13.729858%,12.159729%,12.548828%);stroke-opacity:1;stroke-miterlimit:4;" d="M 4.492188 5.664062 L 684.804688 5.664062 L 684.804688 430.859375 L 4.492188 430.859375 L 4.492188 5.664062 " transform="matrix(0.1,0,0,-0.1,0,44)"/>
<path style=" stroke:none;fill-rule:nonzero;fill:rgb(13.729858%,12.159729%,12.548828%);fill-opacity:1;" d="M 1.792969 38.640625 C 1.792969 40.519531 3.316406 42.042969 5.199219 42.042969 L 63.703125 42.042969 C 65.582031 42.042969 67.105469 40.519531 67.105469 38.640625 L 67.105469 5.644531 C 67.105469 3.765625 65.582031 2.242188 63.703125 2.242188 L 5.199219 2.242188 C 3.316406 2.242188 1.792969 3.765625 1.792969 5.644531 L 1.792969 38.640625 "/>
<path style=" stroke:none;fill-rule:nonzero;fill:rgb(100%,100%,100%);fill-opacity:1;" d="M 5.183594 3.273438 C 3.867188 3.273438 2.804688 4.339844 2.804688 5.65625 L 2.804688 38.652344 C 2.804688 39.964844 3.867188 41.03125 5.183594 41.03125 L 63.691406 41.03125 C 65.007812 41.03125 66.074219 39.964844 66.074219 38.652344 L 66.074219 5.65625 C 66.074219 4.339844 65.007812 3.273438 63.691406 3.273438 L 5.183594 3.273438 "/>
<path style=" stroke:none;fill-rule:nonzero;fill:rgb(13.729858%,12.159729%,12.548828%);fill-opacity:1;" d="M 16.121094 18.902344 L 17.597656 18.902344 L 17.597656 15.039062 L 18.484375 15.039062 C 19.480469 15.039062 20.242188 14.792969 20.761719 14.289062 C 21.265625 13.796875 21.527344 13.089844 21.527344 12.175781 C 21.527344 11.261719 21.265625 10.566406 20.746094 10.085938 C 20.230469 9.609375 19.519531 9.378906 18.632812 9.378906 L 16.121094 9.378906 L 16.121094 18.902344 "/>
<path style=" stroke:none;fill-rule:nonzero;fill:rgb(13.729858%,12.159729%,12.548828%);fill-opacity:1;" d="M 23.082031 18.152344 C 23.34375 18.4375 23.65625 18.65625 24.023438 18.792969 C 24.378906 18.929688 24.761719 18.996094 25.171875 18.996094 C 25.582031 18.996094 25.964844 18.929688 26.332031 18.792969 C 26.683594 18.65625 27 18.4375 27.257812 18.152344 C 27.519531 17.863281 27.738281 17.496094 27.886719 17.046875 C 28.035156 16.59375 28.117188 16.035156 28.117188 15.394531 C 28.117188 14.765625 28.035156 14.222656 27.886719 13.769531 C 27.738281 13.320312 27.519531 12.9375 27.257812 12.652344 C 27 12.367188 26.683594 12.148438 26.332031 12.011719 C 25.964844 11.875 25.582031 11.804688 25.171875 11.804688 C 24.761719 11.804688 24.378906 11.875 24.023438 12.011719 C 23.65625 12.148438 23.34375 12.367188 23.082031 12.652344 C 22.824219 12.9375 22.605469 13.320312 22.457031 13.769531 C 22.304688 14.222656 22.222656 14.765625 22.222656 15.394531 C 22.222656 16.035156 22.304688 16.59375 22.457031 17.046875 C 22.605469 17.496094 22.824219 17.863281 23.082031 18.152344 "/>
<path style=" stroke:none;fill-rule:nonzero;fill:rgb(13.729858%,12.159729%,12.548828%);fill-opacity:1;" d="M 30.074219 18.902344 L 31.492188 18.902344 L 31.492188 8.667969 L 30.074219 8.667969 L 30.074219 18.902344 "/>
<path style=" stroke:none;fill-rule:nonzero;fill:rgb(13.729858%,12.159729%,12.548828%);fill-opacity:1;" d="M 33.859375 18.902344 L 35.277344 18.902344 L 35.277344 11.902344 L 33.859375 11.902344 L 33.859375 18.902344 "/>
<path style=" stroke:none;fill-rule:nonzero;fill:rgb(13.729858%,12.159729%,12.548828%);fill-opacity:1;" d="M 33.816406 10.496094 L 35.316406 10.496094 L 35.316406 8.980469 L 33.816406 8.980469 L 33.816406 10.496094 "/>
<path style=" stroke:none;fill-rule:nonzero;fill:rgb(13.729858%,12.159729%,12.548828%);fill-opacity:1;" d="M 37.296875 18.902344 L 41.925781 18.902344 L 41.925781 17.769531 L 38.757812 17.769531 L 41.84375 13.144531 L 41.84375 11.902344 L 37.394531 11.902344 L 37.394531 13.035156 L 40.410156 13.035156 L 37.296875 17.648438 L 37.296875 18.902344 "/>
<path style=" stroke:none;fill-rule:nonzero;fill:rgb(13.729858%,12.159729%,12.548828%);fill-opacity:1;" d="M 44.019531 18.902344 L 45.441406 18.902344 L 45.441406 11.902344 L 44.019531 11.902344 L 44.019531 18.902344 "/>
<path style=" stroke:none;fill-rule:nonzero;fill:rgb(13.729858%,12.159729%,12.548828%);fill-opacity:1;" d="M 43.980469 10.496094 L 45.480469 10.496094 L 45.480469 8.980469 L 43.980469 8.980469 L 43.980469 10.496094 "/>
<path style=" stroke:none;fill-rule:nonzero;fill:rgb(13.729858%,12.159729%,12.548828%);fill-opacity:1;" d="M 51.527344 18.902344 L 52.808594 18.902344 C 52.792969 18.777344 52.769531 18.601562 52.753906 18.398438 C 52.738281 18.191406 52.726562 17.972656 52.726562 17.742188 L 52.726562 14.398438 C 52.726562 13.933594 52.683594 13.554688 52.589844 13.253906 C 52.496094 12.953125 52.34375 12.707031 52.167969 12.503906 C 52.015625 12.324219 51.769531 12.160156 51.445312 12.011719 C 51.117188 11.875 50.691406 11.804688 50.160156 11.804688 C 49.710938 11.804688 49.316406 11.859375 48.972656 11.96875 C 48.632812 12.078125 48.320312 12.203125 48.058594 12.351562 L 48.167969 13.566406 C 48.347656 13.390625 48.605469 13.226562 48.945312 13.074219 C 49.273438 12.9375 49.628906 12.871094 50.023438 12.871094 C 50.53125 12.871094 50.882812 13.007812 51.101562 13.28125 C 51.210938 13.417969 51.292969 13.566406 51.335938 13.730469 C 51.375 13.90625 51.390625 14.097656 51.390625 14.316406 L 51.390625 14.605469 L 50.882812 14.605469 C 49.753906 14.605469 48.878906 14.792969 48.292969 15.164062 C 47.707031 15.542969 47.40625 16.144531 47.40625 16.964844 C 47.40625 17.292969 47.460938 17.578125 47.570312 17.839844 C 47.675781 18.097656 47.828125 18.300781 48.019531 18.480469 C 48.195312 18.65625 48.414062 18.777344 48.660156 18.859375 C 48.90625 18.957031 49.164062 18.996094 49.453125 18.996094 C 49.96875 18.996094 50.378906 18.890625 50.691406 18.667969 C 50.992188 18.464844 51.238281 18.21875 51.414062 17.945312 L 51.445312 17.945312 C 51.445312 17.988281 51.445312 18.054688 51.457031 18.152344 C 51.457031 18.246094 51.457031 18.34375 51.472656 18.4375 C 51.484375 18.535156 51.484375 18.628906 51.496094 18.710938 C 51.511719 18.804688 51.511719 18.859375 51.527344 18.902344 "/>
<path style=" stroke:none;fill-rule:nonzero;fill:rgb(13.729858%,12.159729%,12.548828%);fill-opacity:1;" d="M 18.933594 30.910156 C 18.46875 31.113281 18.085938 31.378906 17.800781 31.699219 C 17.515625 32.035156 17.371094 32.476562 17.371094 33.035156 C 17.371094 33.359375 17.429688 33.667969 17.550781 33.945312 C 17.65625 34.21875 17.824219 34.46875 18.039062 34.671875 C 18.253906 34.875 18.515625 35.042969 18.828125 35.148438 C 19.136719 35.269531 19.484375 35.328125 19.878906 35.328125 C 20.246094 35.328125 20.59375 35.28125 20.917969 35.164062 C 21.226562 35.054688 21.488281 34.910156 21.71875 34.707031 C 21.945312 34.507812 22.109375 34.265625 22.242188 33.980469 C 22.359375 33.695312 22.421875 33.371094 22.421875 33.011719 C 22.421875 32.488281 22.277344 32.046875 21.992188 31.6875 C 21.691406 31.34375 21.308594 31.066406 20.84375 30.863281 C 21.296875 30.636719 21.644531 30.339844 21.871094 29.96875 C 22.097656 29.609375 22.21875 29.226562 22.21875 28.824219 C 22.21875 28.523438 22.160156 28.25 22.050781 27.996094 C 21.929688 27.746094 21.765625 27.53125 21.5625 27.351562 C 21.359375 27.175781 21.109375 27.042969 20.832031 26.933594 C 20.546875 26.839844 20.234375 26.792969 19.902344 26.792969 C 19.542969 26.792969 19.21875 26.839844 18.933594 26.949219 C 18.648438 27.054688 18.410156 27.210938 18.207031 27.402344 C 18.003906 27.59375 17.847656 27.820312 17.742188 28.070312 C 17.632812 28.332031 17.574219 28.617188 17.574219 28.917969 C 17.574219 29.347656 17.679688 29.730469 17.90625 30.0625 C 18.136719 30.410156 18.46875 30.683594 18.933594 30.910156 "/>
<path style=" stroke:none;fill-rule:nonzero;fill:rgb(13.729858%,12.159729%,12.548828%);fill-opacity:1;" d="M 24.464844 34.113281 C 24.664062 34.492188 24.929688 34.792969 25.25 35.007812 C 25.574219 35.222656 25.957031 35.328125 26.421875 35.328125 C 26.886719 35.328125 27.28125 35.222656 27.601562 34.996094 C 27.925781 34.78125 28.1875 34.480469 28.390625 34.101562 C 28.59375 33.71875 28.738281 33.261719 28.820312 32.75 C 28.90625 32.238281 28.953125 31.675781 28.953125 31.066406 C 28.953125 30.457031 28.90625 29.894531 28.820312 29.371094 C 28.738281 28.859375 28.59375 28.402344 28.390625 28.023438 C 28.1875 27.640625 27.925781 27.339844 27.601562 27.113281 C 27.28125 26.898438 26.886719 26.792969 26.421875 26.792969 C 25.957031 26.792969 25.5625 26.898438 25.238281 27.113281 C 24.917969 27.339844 24.664062 27.640625 24.464844 28.023438 C 24.261719 28.402344 24.117188 28.859375 24.03125 29.371094 C 23.949219 29.894531 23.902344 30.457031 23.902344 31.066406 C 23.902344 31.675781 23.949219 32.238281 24.03125 32.75 C 24.117188 33.277344 24.261719 33.730469 24.464844 34.113281 "/>
<path style=" stroke:none;fill-rule:nonzero;fill:rgb(13.729858%,12.159729%,12.548828%);fill-opacity:1;" d="M 30.933594 34.113281 C 31.136719 34.492188 31.398438 34.792969 31.722656 35.007812 C 32.042969 35.222656 32.425781 35.328125 32.890625 35.328125 C 33.355469 35.328125 33.75 35.222656 34.074219 34.996094 C 34.394531 34.78125 34.660156 34.480469 34.859375 34.101562 C 35.0625 33.71875 35.207031 33.261719 35.289062 32.75 C 35.375 32.238281 35.421875 31.675781 35.421875 31.066406 C 35.421875 30.457031 35.375 29.894531 35.289062 29.371094 C 35.207031 28.859375 35.0625 28.402344 34.859375 28.023438 C 34.660156 27.640625 34.394531 27.339844 34.074219 27.113281 C 33.75 26.898438 33.355469 26.792969 32.890625 26.792969 C 32.425781 26.792969 32.03125 26.898438 31.710938 27.113281 C 31.386719 27.339844 31.136719 27.640625 30.933594 28.023438 C 30.730469 28.402344 30.585938 28.859375 30.503906 29.371094 C 30.417969 29.894531 30.371094 30.457031 30.371094 31.066406 C 30.371094 31.675781 30.417969 32.238281 30.503906 32.75 C 30.585938 33.277344 30.730469 33.730469 30.933594 34.113281 "/>
<path style=" stroke:none;fill-rule:nonzero;fill:rgb(13.729858%,12.159729%,12.548828%);fill-opacity:1;" d="M 43.054688 35.234375 L 44.292969 35.234375 L 44.292969 31.484375 C 44.292969 31.03125 44.390625 30.683594 44.570312 30.433594 C 44.75 30.183594 45.023438 30.0625 45.371094 30.0625 C 45.941406 30.0625 46.230469 30.445312 46.230469 31.199219 L 46.230469 35.234375 L 47.472656 35.234375 L 47.472656 31.484375 C 47.472656 31.03125 47.566406 30.683594 47.746094 30.433594 C 47.925781 30.183594 48.199219 30.0625 48.542969 30.0625 C 49.117188 30.0625 49.40625 30.445312 49.40625 31.199219 L 49.40625 35.234375 L 50.648438 35.234375 L 50.648438 31.222656 C 50.648438 30.503906 50.503906 29.957031 50.21875 29.585938 C 49.917969 29.214844 49.476562 29.023438 48.878906 29.023438 C 48.484375 29.023438 48.164062 29.121094 47.914062 29.3125 C 47.660156 29.515625 47.472656 29.742188 47.316406 29.992188 C 47.257812 29.871094 47.183594 29.753906 47.101562 29.632812 C 47.019531 29.527344 46.910156 29.417969 46.789062 29.324219 C 46.671875 29.238281 46.527344 29.167969 46.371094 29.109375 C 46.21875 29.046875 46.027344 29.023438 45.824219 29.023438 C 45.441406 29.023438 45.132812 29.121094 44.878906 29.3125 C 44.628906 29.515625 44.425781 29.753906 44.292969 30.050781 L 44.269531 30.050781 C 44.269531 30.015625 44.269531 29.945312 44.269531 29.847656 C 44.257812 29.765625 44.257812 29.667969 44.257812 29.574219 C 44.246094 29.480469 44.246094 29.382812 44.246094 29.300781 C 44.234375 29.214844 44.234375 29.144531 44.234375 29.109375 L 43.007812 29.109375 C 43.015625 29.277344 43.03125 29.453125 43.042969 29.644531 C 43.054688 29.835938 43.054688 30.039062 43.054688 30.265625 L 43.054688 35.234375 "/>
<path style=" stroke:none;fill-rule:nonzero;fill:rgb(100%,100%,100%);fill-opacity:1;" d="M 17.597656 13.882812 L 17.597656 10.535156 L 18.265625 10.535156 C 18.851562 10.535156 19.289062 10.671875 19.589844 10.933594 C 19.875 11.207031 20.027344 11.644531 20.027344 12.230469 C 20.027344 12.761719 19.890625 13.15625 19.617188 13.445312 C 19.34375 13.730469 18.894531 13.882812 18.25 13.882812 L 17.597656 13.882812 "/>
<path style=" stroke:none;fill-rule:nonzero;fill:rgb(100%,100%,100%);fill-opacity:1;" d="M 24.023438 17.210938 C 23.902344 16.976562 23.820312 16.71875 23.78125 16.40625 C 23.722656 16.089844 23.699219 15.765625 23.699219 15.394531 C 23.699219 15.027344 23.722656 14.699219 23.78125 14.386719 C 23.820312 14.070312 23.902344 13.8125 24.023438 13.582031 C 24.148438 13.363281 24.296875 13.183594 24.488281 13.0625 C 24.664062 12.9375 24.898438 12.871094 25.171875 12.871094 C 25.445312 12.871094 25.675781 12.9375 25.867188 13.0625 C 26.042969 13.183594 26.195312 13.363281 26.316406 13.582031 C 26.441406 13.8125 26.523438 14.070312 26.578125 14.386719 C 26.617188 14.699219 26.644531 15.027344 26.644531 15.394531 C 26.644531 15.765625 26.617188 16.089844 26.578125 16.40625 C 26.523438 16.71875 26.441406 16.976562 26.316406 17.210938 C 26.195312 17.441406 26.042969 17.617188 25.867188 17.742188 C 25.675781 17.863281 25.445312 17.933594 25.171875 17.933594 C 24.898438 17.933594 24.664062 17.863281 24.488281 17.742188 C 24.296875 17.617188 24.148438 17.441406 24.023438 17.210938 "/>
<path style=" stroke:none;fill-rule:nonzero;fill:rgb(100%,100%,100%);fill-opacity:1;" d="M 51.390625 15.476562 L 51.390625 16.105469 C 51.390625 16.664062 51.265625 17.113281 51.019531 17.457031 C 50.761719 17.808594 50.394531 17.988281 49.890625 17.988281 C 49.519531 17.988281 49.246094 17.878906 49.054688 17.671875 C 48.863281 17.46875 48.769531 17.183594 48.769531 16.84375 C 48.769531 16.378906 48.945312 16.035156 49.316406 15.804688 C 49.683594 15.574219 50.214844 15.464844 50.910156 15.464844 C 50.992188 15.464844 51.074219 15.464844 51.171875 15.464844 C 51.265625 15.464844 51.347656 15.464844 51.390625 15.476562 "/>
<path style=" stroke:none;fill-rule:nonzero;fill:rgb(100%,100%,100%);fill-opacity:1;" d="M 19.996094 30.457031 C 19.613281 30.265625 19.316406 30.050781 19.113281 29.800781 C 18.898438 29.5625 18.792969 29.289062 18.792969 28.976562 C 18.792969 28.617188 18.898438 28.332031 19.113281 28.105469 C 19.316406 27.890625 19.578125 27.78125 19.902344 27.78125 C 20.246094 27.78125 20.523438 27.890625 20.714844 28.09375 C 20.90625 28.308594 21 28.582031 21 28.90625 C 21 29.074219 20.976562 29.226562 20.917969 29.371094 C 20.855469 29.527344 20.785156 29.65625 20.691406 29.789062 C 20.59375 29.921875 20.488281 30.039062 20.367188 30.148438 C 20.246094 30.253906 20.128906 30.363281 19.996094 30.457031 "/>
<path style=" stroke:none;fill-rule:nonzero;fill:rgb(100%,100%,100%);fill-opacity:1;" d="M 19.816406 31.34375 C 19.996094 31.4375 20.164062 31.53125 20.332031 31.628906 C 20.488281 31.734375 20.628906 31.84375 20.761719 31.972656 C 20.878906 32.105469 20.976562 32.25 21.046875 32.402344 C 21.121094 32.570312 21.15625 32.761719 21.15625 32.976562 C 21.15625 33.382812 21.046875 33.71875 20.832031 33.96875 C 20.605469 34.230469 20.308594 34.363281 19.925781 34.363281 C 19.507812 34.363281 19.199219 34.230469 18.96875 33.957031 C 18.742188 33.679688 18.636719 33.359375 18.636719 32.964844 C 18.636719 32.761719 18.671875 32.582031 18.730469 32.425781 C 18.792969 32.273438 18.863281 32.128906 18.96875 31.996094 C 19.078125 31.867188 19.199219 31.757812 19.351562 31.652344 C 19.496094 31.542969 19.652344 31.449219 19.816406 31.34375 "/>
<path style=" stroke:none;fill-rule:nonzero;fill:rgb(100%,100%,100%);fill-opacity:1;" d="M 25.441406 33.476562 C 25.261719 32.917969 25.167969 32.105469 25.167969 31.066406 C 25.167969 30.027344 25.261719 29.214844 25.441406 28.644531 C 25.621094 28.070312 25.957031 27.78125 26.421875 27.78125 C 26.898438 27.78125 27.234375 28.070312 27.410156 28.632812 C 27.589844 29.203125 27.6875 30.015625 27.6875 31.066406 C 27.6875 32.105469 27.589844 32.917969 27.410156 33.476562 C 27.21875 34.050781 26.886719 34.335938 26.421875 34.335938 C 25.957031 34.335938 25.621094 34.050781 25.441406 33.476562 "/>
<path style=" stroke:none;fill-rule:nonzero;fill:rgb(100%,100%,100%);fill-opacity:1;" d="M 31.910156 33.476562 C 31.734375 32.917969 31.636719 32.105469 31.636719 31.066406 C 31.636719 30.027344 31.734375 29.214844 31.910156 28.644531 C 32.089844 28.070312 32.425781 27.78125 32.890625 27.78125 C 33.367188 27.78125 33.703125 28.070312 33.882812 28.632812 C 34.0625 29.203125 34.15625 30.015625 34.15625 31.066406 C 34.15625 32.105469 34.0625 32.917969 33.882812 33.476562 C 33.691406 34.050781 33.355469 34.335938 32.890625 34.335938 C 32.425781 34.335938 32.089844 34.050781 31.910156 33.476562 "/>
</g>
</svg>
