<?xml version="1.0" encoding="UTF-8"?>
<svg xmlns="http://www.w3.org/2000/svg" xmlns:xlink="http://www.w3.org/1999/xlink" width="71pt" height="44pt" viewBox="0 0 71 44" version="1.1">
<g id="surface1">
<path style=" stroke:none;fill-rule:nonzero;fill:rgb(13.729858%,12.159729%,12.548828%);fill-opacity:1;" d="M 0.0859375 43.46875 L 0.0859375 0.949219 L 70.953125 0.949219 L 70.953125 43.46875 L 0.0859375 43.46875 M 1.5 42.050781 L 69.535156 42.050781 L 69.535156 2.363281 L 1.5 2.363281 L 1.5 42.050781 "/>
<path style=" stroke:none;fill-rule:nonzero;fill:rgb(13.729858%,12.159729%,12.548828%);fill-opacity:1;" d="M 7.277344 34.230469 L 20.820312 34.230469 L 20.820312 31.070312 L 11.507812 31.070312 L 12.433594 30.078125 C 13.535156 28.867188 14.601562 27.625 15.59375 26.34375 C 16.554688 25.101562 17.410156 23.820312 18.15625 22.578125 C 18.898438 21.332031 19.46875 20.125 19.894531 18.917969 C 20.320312 17.742188 20.535156 16.609375 20.535156 15.542969 C 20.535156 14.652344 20.394531 13.835938 20.144531 13.054688 C 19.859375 12.269531 19.433594 11.597656 18.898438 10.992188 C 18.332031 10.421875 17.621094 9.964844 16.804688 9.605469 C 15.953125 9.285156 14.953125 9.109375 13.820312 9.109375 C 12.648438 9.109375 11.542969 9.25 10.582031 9.5 C 9.589844 9.78125 8.664062 10.140625 7.847656 10.566406 L 8.238281 14.191406 C 8.808594 13.726562 9.519531 13.269531 10.335938 12.875 C 11.152344 12.488281 12.078125 12.269531 13.105469 12.269531 C 14.210938 12.269531 15.097656 12.628906 15.703125 13.371094 C 16.308594 14.121094 16.625 15.042969 16.625 16.214844 C 16.625 17.035156 16.449219 17.921875 16.09375 18.878906 C 15.703125 19.839844 15.207031 20.871094 14.53125 21.902344 C 13.851562 22.964844 13.070312 24.066406 12.183594 25.242188 C 11.261719 26.414062 10.265625 27.625 9.164062 28.867188 L 7.277344 31.035156 L 7.277344 34.230469 M 24.808594 25.882812 L 31.449219 25.882812 L 31.449219 13.269531 L 31.382812 13.269531 L 24.808594 25.882812 M 21.855469 28.832031 L 31.449219 28.832031 L 31.449219 34.230469 L 35.007812 34.230469 L 35.007812 28.832031 L 37.738281 28.832031 L 37.738281 25.882812 L 35.007812 25.882812 L 35.007812 9.429688 L 30.597656 9.429688 L 21.855469 25.277344 L 21.855469 28.832031 M 41.582031 34.230469 L 45.417969 34.230469 L 45.417969 29.933594 L 41.582031 29.933594 L 41.582031 34.230469 M 49.722656 33.523438 C 50.398438 33.769531 51.179688 34.019531 52.105469 34.199219 C 52.992188 34.40625 53.988281 34.511719 55.019531 34.511719 C 57.652344 34.511719 59.671875 33.734375 61.09375 32.207031 C 62.519531 30.675781 63.226562 28.582031 63.226562 25.917969 C 63.226562 24.671875 63.050781 23.605469 62.695312 22.648438 C 62.304688 21.722656 61.804688 20.945312 61.203125 20.300781 C 60.597656 19.664062 59.851562 19.164062 59.035156 18.84375 C 58.183594 18.527344 57.292969 18.382812 56.367188 18.382812 C 55.800781 18.382812 55.265625 18.417969 54.804688 18.457031 C 54.308594 18.527344 53.882812 18.632812 53.558594 18.738281 L 53.558594 12.449219 L 62.054688 12.449219 L 62.054688 9.429688 L 50.078125 9.429688 L 50.078125 22.082031 C 50.683594 21.902344 51.324219 21.722656 51.960938 21.546875 C 52.601562 21.367188 53.347656 21.300781 54.164062 21.300781 C 55.871094 21.300781 57.148438 21.761719 58.039062 22.648438 C 58.894531 23.535156 59.316406 24.746094 59.316406 26.203125 C 59.316406 27.730469 58.894531 28.972656 58.003906 29.933594 C 57.113281 30.929688 55.90625 31.425781 54.378906 31.425781 C 53.492188 31.425781 52.675781 31.28125 51.925781 31.035156 C 51.179688 30.785156 50.507812 30.5 49.9375 30.179688 L 49.722656 33.523438 "/>
</g>
</svg>
