<?xml version="1.0" encoding="UTF-8"?>
<svg xmlns="http://www.w3.org/2000/svg" xmlns:xlink="http://www.w3.org/1999/xlink" width="73pt" height="100pt" viewBox="0 0 73 100" version="1.1">
<g id="surface1">
<path style=" stroke:none;fill-rule:nonzero;fill:rgb(100%,100%,100%);fill-opacity:1;" d="M 1.085938 99.78125 L 71.953125 99.78125 L 71.953125 0.566406 L 1.085938 0.566406 Z M 1.085938 99.78125 "/>
<path style="fill:none;stroke-width:2.835;stroke-linecap:butt;stroke-linejoin:miter;stroke:rgb(13.729858%,12.159729%,12.548828%);stroke-opacity:1;stroke-miterlimit:4;" d="M 10.859375 2.1875 L 719.53125 2.1875 L 719.53125 994.335938 L 10.859375 994.335938 L 10.859375 2.1875 " transform="matrix(0.1,0,0,-0.1,0,100)"/>
<path style=" stroke:none;fill-rule:nonzero;fill:rgb(10.112%,40.585327%,73.280334%);fill-opacity:1;" d="M 2.503906 98.363281 L 70.53125 98.363281 L 70.53125 1.984375 L 2.503906 1.984375 Z M 2.503906 98.363281 "/>
<path style=" stroke:none;fill-rule:nonzero;fill:rgb(100%,100%,100%);fill-opacity:1;" d="M 11.71875 60.804688 L 61.320312 60.804688 L 61.320312 11.199219 L 11.71875 11.199219 Z M 11.71875 60.804688 "/>
<path style=" stroke:none;fill-rule:nonzero;fill:rgb(13.729858%,12.159729%,12.548828%);fill-opacity:1;" d="M 43.472656 55.84375 L 43.472656 53.019531 L 43.457031 52.660156 C 43.449219 52.4375 43.269531 52.273438 43.160156 52.226562 C 43.109375 52.183594 43.046875 52.136719 42.996094 52.097656 C 42.945312 52.046875 42.886719 51.988281 42.859375 51.921875 C 42.734375 51.734375 42.761719 51.4375 42.761719 51.214844 L 42.761719 44.382812 C 42.792969 44.960938 42.921875 45.546875 43.046875 46.070312 C 43.183594 46.542969 43.355469 47.03125 43.585938 47.46875 C 43.820312 47.90625 44.132812 48.316406 44.480469 48.667969 C 44.769531 48.976562 45.117188 49.265625 45.507812 49.453125 C 45.882812 49.652344 46.367188 49.675781 46.742188 49.527344 C 47.003906 49.425781 47.242188 49.277344 47.441406 49.089844 C 48.25 48.21875 48.238281 46.90625 48 45.855469 C 47.941406 45.558594 47.628906 44.671875 47.527344 44.398438 C 47.265625 43.636719 47.054688 42.875 46.902344 42.085938 C 46.589844 40.476562 46.441406 37.261719 46.441406 35.6875 C 46.453125 35.386719 46.453125 34.152344 46.46875 33.851562 C 46.492188 33.464844 46.589844 32.351562 46.628906 31.96875 C 46.707031 31.117188 46.714844 29.867188 46.578125 28.996094 C 46.539062 28.632812 46.46875 28.085938 46.390625 27.738281 C 46.367188 27.597656 46.214844 27 46.179688 26.847656 C 46.128906 26.660156 45.832031 25.464844 45.769531 25.265625 C 45.753906 25.238281 45.554688 24.53125 45.554688 24.390625 C 45.554688 24.175781 45.601562 23.917969 45.695312 23.742188 L 45.789062 23.554688 C 45.816406 23.492188 45.804688 23.355469 45.804688 23.292969 C 45.804688 23.167969 45.789062 22.957031 45.753906 22.855469 C 45.703125 22.71875 45.53125 22.59375 45.390625 22.566406 C 45.34375 22.558594 45.253906 22.53125 45.203125 22.519531 C 45.132812 22.445312 44.769531 21.917969 44.707031 21.820312 C 44.542969 21.632812 44.355469 21.46875 44.15625 21.34375 C 43.984375 21.246094 43.796875 21.171875 43.59375 21.121094 C 43.332031 21.085938 43.023438 21.121094 42.761719 21.121094 L 42.761719 18.636719 C 42.761719 17.238281 42.296875 16.203125 40.664062 16.203125 L 30.527344 16.152344 C 29.851562 16.152344 29.394531 16.316406 28.90625 16.714844 C 28.429688 17.0625 28.253906 17.925781 28.253906 18.488281 L 28.253906 51.324219 C 28.253906 51.488281 28.253906 51.675781 28.183594 51.8125 C 28.117188 51.949219 28.03125 52.074219 27.859375 52.160156 L 27.648438 52.273438 C 27.519531 52.347656 27.371094 52.386719 27.371094 52.574219 L 27.359375 52.847656 L 27.308594 55.84375 L 43.472656 55.84375 "/>
<path style=" stroke:none;fill-rule:nonzero;fill:rgb(100%,100%,100%);fill-opacity:1;" d="M 41.09375 31.515625 L 41.09375 23.203125 L 30.507812 23.203125 L 30.507812 31.515625 L 41.09375 31.515625 "/>
<path style=" stroke:none;fill-rule:nonzero;fill:rgb(100%,100%,100%);fill-opacity:1;" d="M 41.09375 21.230469 L 41.09375 18.484375 L 30.507812 18.484375 L 30.507812 21.230469 L 41.09375 21.230469 "/>
<path style=" stroke:none;fill-rule:nonzero;fill:rgb(100%,100%,100%);fill-opacity:1;" d="M 43.464844 26.652344 L 44.425781 26.3125 C 44.539062 26.265625 44.675781 26.25 44.765625 26.164062 C 44.875 26.078125 44.886719 25.953125 44.886719 25.816406 L 44.886719 24.742188 L 44.25 24.328125 L 44.25 23.59375 L 43.464844 24.03125 L 43.464844 26.652344 "/>
<path style=" stroke:none;fill-rule:nonzero;fill:rgb(100%,100%,100%);fill-opacity:1;" d="M 42.75 23.789062 L 44.671875 22.851562 C 44.621094 22.554688 44.46875 22.253906 44.308594 22.042969 C 44.210938 21.917969 44.070312 21.789062 43.949219 21.703125 C 43.820312 21.628906 43.683594 21.566406 43.546875 21.527344 C 43.320312 21.457031 42.972656 21.480469 42.75 21.527344 L 42.75 23.789062 "/>
<path style=" stroke:none;fill-rule:nonzero;fill:rgb(100%,100%,100%);fill-opacity:1;" d="M 45.371094 25.488281 C 45.363281 25.660156 45.335938 25.921875 45.335938 26.097656 L 45.296875 28.367188 C 45.246094 29.019531 45.175781 29.652344 45.046875 30.289062 C 44.9375 30.878906 44.777344 31.566406 44.625 32.136719 L 44.125 34.007812 C 43.953125 34.660156 43.789062 35.34375 43.636719 36.007812 C 43.535156 36.429688 43.441406 36.957031 43.375 37.394531 C 43.3125 37.867188 43.277344 38.527344 43.253906 39.015625 C 43.226562 39.539062 43.203125 40.191406 43.175781 40.726562 C 43.152344 41.1875 43.128906 41.875 43.113281 42.335938 C 43.101562 42.785156 43.101562 43.332031 43.113281 43.78125 C 43.136719 44.332031 43.214844 44.882812 43.3125 45.417969 C 43.476562 46.105469 43.773438 46.878906 44.125 47.492188 C 44.277344 47.753906 44.488281 48.101562 44.683594 48.335938 C 44.9375 48.640625 45.234375 48.886719 45.570312 49.074219 C 45.871094 49.238281 46.296875 49.296875 46.632812 49.109375 C 46.820312 49.023438 46.996094 48.863281 47.132812 48.699219 C 47.320312 48.476562 47.46875 48.199219 47.570312 47.914062 C 47.769531 47.289062 47.71875 46.589844 47.582031 45.96875 C 47.492188 45.542969 47.304688 44.941406 47.183594 44.53125 C 46.980469 43.894531 46.671875 42.882812 46.53125 42.234375 C 46.34375 41.449219 46.234375 40.574219 46.148438 39.777344 C 46.070312 39.140625 46.023438 38.457031 46.011719 37.816406 C 45.996094 37.207031 46.046875 36.207031 46.070312 35.597656 C 46.121094 34.382812 46.183594 33.164062 46.207031 31.949219 C 46.234375 31.4375 46.246094 30.730469 46.222656 30.214844 C 46.207031 29.652344 46.15625 29.089844 46.070312 28.53125 C 46.011719 28.070312 45.921875 27.59375 45.824219 27.148438 C 45.746094 26.785156 45.648438 26.398438 45.550781 26.050781 C 45.5 25.882812 45.421875 25.636719 45.371094 25.488281 "/>
<path style=" stroke:none;fill-rule:nonzero;fill:rgb(100%,100%,100%);fill-opacity:1;" d="M 42.75 27.289062 L 42.75 38.007812 C 42.925781 36.796875 43.273438 35.234375 43.660156 34 C 43.773438 33.667969 44.136719 32.46875 44.21875 32.128906 C 44.382812 31.542969 44.535156 30.929688 44.621094 30.320312 C 44.679688 29.871094 44.757812 29.007812 44.796875 28.546875 C 44.808594 28.386719 44.859375 27.699219 44.867188 27.550781 C 44.882812 27.425781 44.882812 27.289062 44.882812 27.175781 C 44.882812 27.109375 44.882812 27.015625 44.84375 26.964844 C 44.824219 26.925781 44.78125 26.898438 44.746094 26.878906 C 44.707031 26.863281 44.65625 26.863281 44.609375 26.863281 C 44.535156 26.863281 44.421875 26.886719 44.347656 26.898438 L 44.121094 26.964844 L 42.75 27.289062 "/>
</g>
</svg>
