<?xml version="1.0" encoding="UTF-8"?>
<svg xmlns="http://www.w3.org/2000/svg" xmlns:xlink="http://www.w3.org/1999/xlink" width="73pt" height="100pt" viewBox="0 0 73 100" version="1.1">
<g id="surface1">
<path style=" stroke:none;fill-rule:nonzero;fill:rgb(100%,100%,100%);fill-opacity:1;" d="M 1.085938 99.78125 L 71.953125 99.78125 L 71.953125 0.566406 L 1.085938 0.566406 Z M 1.085938 99.78125 "/>
<path style="fill:none;stroke-width:2.835;stroke-linecap:butt;stroke-linejoin:miter;stroke:rgb(13.729858%,12.159729%,12.548828%);stroke-opacity:1;stroke-miterlimit:4;" d="M 10.859375 2.1875 L 719.53125 2.1875 L 719.53125 994.335938 L 10.859375 994.335938 L 10.859375 2.1875 " transform="matrix(0.1,0,0,-0.1,0,100)"/>
<path style=" stroke:none;fill-rule:nonzero;fill:rgb(10.112%,40.585327%,73.280334%);fill-opacity:1;" d="M 2.503906 98.363281 L 70.53125 98.363281 L 70.53125 1.984375 L 2.503906 1.984375 Z M 2.503906 98.363281 "/>
<path style=" stroke:none;fill-rule:nonzero;fill:rgb(100%,100%,100%);fill-opacity:1;" d="M 11.71875 60.804688 L 61.320312 60.804688 L 61.320312 11.199219 L 11.71875 11.199219 Z M 11.71875 60.804688 "/>
<path style=" stroke:none;fill-rule:nonzero;fill:rgb(13.729858%,12.159729%,12.548828%);fill-opacity:1;" d="M 45.378906 52.015625 L 27.660156 52.015625 L 27.660156 49.648438 L 29.925781 49.648438 C 30.167969 49.648438 30.644531 49.707031 30.964844 49.394531 C 31.296875 49.074219 31.238281 48.605469 31.238281 48.296875 L 31.238281 34.324219 C 31.238281 34.027344 31.207031 33.617188 30.957031 33.398438 C 30.714844 33.179688 30.277344 33.160156 29.945312 33.160156 L 27.660156 33.160156 L 27.660156 30.84375 L 41.808594 30.84375 L 41.808594 47.714844 C 41.808594 48.160156 41.714844 48.890625 42.046875 49.28125 C 42.367188 49.65625 43.066406 49.648438 43.464844 49.648438 L 45.378906 49.648438 L 45.378906 52.015625 "/>
<path style=" stroke:none;fill-rule:nonzero;fill:rgb(13.729858%,12.159729%,12.548828%);fill-opacity:1;" d="M 36.464844 29.699219 C 32.984375 29.722656 30.148438 26.917969 30.082031 23.441406 C 30.011719 19.847656 32.894531 16.894531 36.472656 16.867188 C 40.007812 16.859375 42.878906 19.710938 42.898438 23.234375 C 42.933594 26.800781 40.03125 29.683594 36.464844 29.699219 "/>
</g>
</svg>
