<?xml version="1.0" encoding="UTF-8"?>
<svg xmlns="http://www.w3.org/2000/svg" xmlns:xlink="http://www.w3.org/1999/xlink" width="249pt" height="490pt" viewBox="0 0 249 490" version="1.1">
<g id="surface1">
<path style=" stroke:none;fill-rule:nonzero;fill:rgb(13.729858%,12.159729%,12.548828%);fill-opacity:1;" d="M 41.527344 141.238281 L 115.660156 141.238281 L 115.660156 116.535156 L 109.253906 112.617188 C 106.910156 114.328125 104.679688 115.679688 104.105469 116.179688 L 104.039062 128.878906 L 102.523438 128.878906 L 102.480469 127.410156 L 96.71875 121.722656 L 90.515625 127.265625 L 90.519531 128.914062 L 89.542969 128.9375 L 89.542969 125.5625 L 83.394531 122.949219 L 83.304688 121.777344 L 81.347656 119.5 L 79.300781 121.722656 L 79.261719 122.949219 L 73.875 125.445312 L 73.875 132.914062 L 72.113281 133.003906 L 72.042969 130.566406 L 67.292969 94.011719 L 60.5625 128.453125 L 60.75 133.003906 L 59.234375 133.003906 L 59.242188 126.738281 L 50.535156 120.933594 L 41.5625 126.605469 L 41.527344 141.238281 "/>
<path style=" stroke:none;fill-rule:nonzero;fill:rgb(13.729858%,12.159729%,12.548828%);fill-opacity:1;" d="M 41.601562 235.046875 L 115.582031 235.046875 L 115.582031 210.398438 L 109.1875 206.488281 C 106.847656 208.195312 104.621094 209.539062 104.050781 210.042969 L 103.984375 222.714844 L 102.472656 222.714844 L 102.429688 221.246094 L 96.675781 215.574219 L 90.488281 221.105469 L 90.492188 222.75 L 89.519531 222.773438 L 89.519531 219.40625 L 83.382812 216.800781 L 83.292969 215.628906 L 81.339844 213.355469 L 79.296875 215.574219 L 79.257812 216.800781 L 73.882812 219.285156 L 73.882812 226.742188 L 72.128906 226.828125 L 72.054688 224.398438 L 67.316406 187.917969 L 60.597656 222.289062 L 60.785156 226.828125 L 59.273438 226.828125 L 59.28125 220.578125 L 50.59375 214.785156 L 41.636719 220.445312 L 41.601562 235.046875 "/>
<path style=" stroke:none;fill-rule:nonzero;fill:rgb(10.112%,40.585327%,73.280334%);fill-opacity:1;" d="M 3.339844 486.828125 L 3.339844 3.519531 L 245.703125 3.519531 L 245.703125 486.828125 L 3.339844 486.828125 M 21.761719 270.011719 L 21.761719 362.152344 L 227.28125 362.152344 L 227.28125 270.011719 L 21.761719 270.011719 M 21.761719 170.78125 L 21.761719 262.925781 L 227.28125 262.925781 L 227.28125 170.78125 L 21.761719 170.78125 M 21.761719 71.554688 L 21.761719 163.695312 L 227.28125 163.695312 L 227.28125 71.554688 L 21.761719 71.554688 M 21.761719 369.234375 L 21.761719 461.378906 L 227.28125 461.378906 L 227.28125 369.234375 L 21.761719 369.234375 M 124.519531 11.398438 C 103.835938 11.398438 87.054688 22.511719 87.054688 36.207031 C 87.054688 49.90625 103.835938 61.015625 124.519531 61.015625 C 145.207031 61.015625 161.980469 49.90625 161.980469 36.207031 C 161.980469 22.511719 145.207031 11.398438 124.519531 11.398438 "/>
<path style=" stroke:none;fill-rule:nonzero;fill:rgb(93.527222%,17.272949%,18.882751%);fill-opacity:1;" d="M 191.84375 83.683594 C 182.984375 81.070312 174.175781 81.863281 165.925781 86.019531 C 157.679688 90.171875 151.789062 96.777344 148.613281 105.445312 C 145.429688 114.117188 145.648438 122.960938 149.253906 131.464844 C 152.855469 139.964844 159.0625 146.273438 167.503906 150.015625 C 187.152344 158.71875 209.964844 148.050781 215.878906 127.390625 C 221.234375 108.691406 210.5 89.171875 191.84375 83.683594 M 188.488281 95.027344 C 200.925781 98.6875 208.078125 111.699219 204.507812 124.164062 C 200.5625 137.929688 185.363281 145.042969 172.269531 139.238281 C 166.644531 136.746094 162.507812 132.542969 160.101562 126.878906 C 157.703125 121.207031 157.558594 115.3125 159.675781 109.535156 C 161.796875 103.757812 165.722656 99.355469 171.21875 96.585938 C 176.714844 93.820312 182.585938 93.285156 188.488281 95.027344 M 164.695312 98.621094 L 168.71875 95.648438 L 167.914062 94.558594 L 165.09375 96.644531 L 163.78125 94.871094 L 165.671875 93.480469 L 164.867188 92.390625 L 162.980469 93.78125 L 161.867188 92.273438 L 164.6875 90.191406 L 163.886719 89.097656 L 159.863281 92.074219 L 164.695312 98.621094 M 170.085938 94.859375 L 171.351562 94.375 L 169.429688 89.382812 L 173.644531 93.488281 L 175.296875 92.855469 L 172.371094 85.253906 L 171.105469 85.742188 L 173.070312 90.847656 L 168.78125 86.636719 L 167.160156 87.261719 L 170.085938 94.859375 M 190.539062 93.558594 L 195.054688 95.707031 L 195.636719 94.480469 L 192.46875 92.972656 L 193.414062 90.984375 L 195.527344 91.992188 L 196.113281 90.769531 L 193.996094 89.761719 L 194.800781 88.070312 L 197.96875 89.574219 L 198.554688 88.347656 L 194.039062 86.199219 L 190.539062 93.558594 M 159.609375 96.726562 L 161.378906 98.109375 C 161.496094 98.199219 161.613281 98.3125 161.714844 98.414062 C 162.011719 98.722656 162.234375 99.09375 162.367188 99.503906 C 162.515625 99.960938 162.542969 100.445312 162.441406 100.914062 C 162.351562 101.324219 162.160156 101.707031 161.902344 102.03125 C 161.632812 102.390625 161.28125 102.679688 160.882812 102.875 C 160.492188 103.058594 160.070312 103.148438 159.640625 103.136719 C 159.195312 103.128906 158.742188 103.015625 158.351562 102.785156 C 158.207031 102.703125 158.074219 102.609375 157.9375 102.507812 L 155.71875 100.765625 C 155.554688 100.640625 155.398438 100.480469 155.265625 100.320312 C 155.003906 100.011719 154.824219 99.648438 154.726562 99.261719 C 154.621094 98.859375 154.597656 98.433594 154.675781 98.027344 C 154.761719 97.574219 154.96875 97.152344 155.257812 96.789062 C 155.511719 96.464844 155.832031 96.1875 156.203125 96.003906 C 156.554688 95.835938 156.941406 95.746094 157.332031 95.738281 C 157.664062 95.738281 158 95.792969 158.3125 95.914062 C 158.375 95.9375 158.457031 95.972656 158.515625 96 L 157.601562 97.167969 C 157.558594 97.160156 157.492188 97.144531 157.445312 97.140625 C 157.230469 97.109375 157.003906 97.152344 156.800781 97.25 C 156.59375 97.34375 156.417969 97.496094 156.277344 97.683594 C 156.101562 97.914062 155.988281 98.203125 155.984375 98.496094 C 155.980469 98.746094 156.050781 99 156.203125 99.195312 C 156.277344 99.296875 156.375 99.386719 156.472656 99.460938 L 159.015625 101.449219 C 159.121094 101.535156 159.246094 101.617188 159.378906 101.664062 C 159.609375 101.753906 159.886719 101.734375 160.128906 101.660156 C 160.40625 101.578125 160.667969 101.417969 160.847656 101.183594 C 161.019531 100.960938 161.117188 100.679688 161.117188 100.390625 C 161.117188 100.144531 161.046875 99.902344 160.902344 99.699219 C 160.820312 99.585938 160.722656 99.488281 160.613281 99.402344 L 159.757812 98.730469 L 158.988281 99.726562 L 157.917969 98.890625 L 159.609375 96.726562 M 208.207031 96.753906 L 207.308594 95.5625 L 200.804688 100.457031 L 203.605469 104.175781 L 204.6875 103.363281 L 202.785156 100.835938 L 208.207031 96.753906 M 183.550781 92.050781 L 185.011719 84.035156 L 188.476562 84.664062 C 188.601562 84.6875 188.757812 84.746094 188.871094 84.796875 C 189.230469 84.945312 189.546875 85.191406 189.769531 85.507812 C 190.015625 85.855469 190.152344 86.269531 190.152344 86.699219 C 190.152344 86.851562 190.144531 87.003906 190.113281 87.15625 L 190.0625 87.464844 C 190.035156 87.613281 189.992188 87.757812 189.945312 87.894531 C 189.835938 88.195312 189.660156 88.460938 189.429688 88.679688 C 189.121094 88.976562 188.734375 89.164062 188.316406 89.238281 C 188.265625 89.246094 188.1875 89.261719 188.132812 89.265625 L 189.273438 93.089844 L 187.636719 92.789062 L 186.519531 88.976562 L 185.652344 88.816406 L 185.023438 92.3125 L 183.550781 92.050781 M 202.722656 91.265625 L 201.574219 90.3125 L 196.363281 96.566406 L 199.9375 99.546875 L 200.808594 98.507812 L 198.378906 96.480469 L 202.722656 91.265625 M 176.992188 92.496094 L 181.972656 92.035156 L 181.847656 90.683594 L 178.355469 91.003906 L 178.148438 88.816406 L 180.484375 88.601562 L 180.359375 87.246094 L 178.023438 87.464844 L 177.851562 85.601562 L 181.34375 85.277344 L 181.21875 83.921875 L 176.1875 84.433594 L 176.992188 92.496094 M 185.902344 87.480469 L 187.699219 87.808594 C 187.78125 87.828125 187.871094 87.832031 187.957031 87.820312 C 188.066406 87.8125 188.175781 87.773438 188.273438 87.710938 C 188.375 87.640625 188.457031 87.542969 188.515625 87.425781 C 188.546875 87.355469 188.578125 87.273438 188.589844 87.199219 L 188.648438 86.886719 C 188.660156 86.8125 188.667969 86.734375 188.667969 86.65625 C 188.660156 86.542969 188.636719 86.433594 188.578125 86.328125 C 188.507812 86.207031 188.398438 86.113281 188.273438 86.050781 C 188.210938 86.019531 188.132812 85.984375 188.066406 85.972656 L 186.234375 85.636719 L 185.902344 87.480469 M 181.8125 181.410156 C 162.246094 181.410156 146.378906 197.277344 146.378906 216.847656 C 146.378906 236.417969 162.246094 252.285156 181.8125 252.285156 C 201.378906 252.285156 217.246094 236.417969 217.246094 216.847656 C 217.246094 197.277344 201.378906 181.410156 181.8125 181.410156 M 181.8125 193.222656 C 168.769531 193.222656 158.191406 203.800781 158.191406 216.847656 C 158.191406 229.894531 168.769531 240.472656 181.8125 240.472656 C 194.855469 240.472656 205.4375 229.894531 205.4375 216.847656 C 205.4375 203.800781 194.855469 193.222656 181.8125 193.222656 M 181.804688 379.867188 C 162.238281 379.867188 146.371094 395.738281 146.371094 415.308594 C 146.371094 434.875 162.238281 450.746094 181.804688 450.746094 C 201.371094 450.746094 217.238281 434.875 217.238281 415.308594 C 217.238281 395.738281 201.371094 379.867188 181.804688 379.867188 M 181.808594 391.679688 C 168.761719 391.679688 158.183594 402.257812 158.183594 415.304688 C 158.183594 428.351562 168.761719 438.929688 181.808594 438.929688 C 194.851562 438.929688 205.429688 428.351562 205.429688 415.304688 C 205.429688 402.257812 194.851562 391.679688 181.808594 391.679688 M 181.804688 280.640625 C 162.234375 280.640625 146.367188 296.507812 146.367188 316.082031 C 146.367188 335.65625 162.234375 351.523438 181.804688 351.523438 C 201.375 351.523438 217.242188 335.65625 217.242188 316.082031 C 217.242188 296.507812 201.375 280.640625 181.804688 280.640625 M 181.804688 292.457031 C 168.761719 292.457031 158.179688 303.035156 158.179688 316.082031 C 158.179688 329.128906 168.761719 339.710938 181.804688 339.710938 C 194.851562 339.710938 205.425781 329.128906 205.425781 316.082031 C 205.425781 303.035156 194.851562 292.457031 181.804688 292.457031 "/>
<path style=" stroke:none;fill-rule:nonzero;fill:rgb(93.527222%,17.272949%,18.882751%);fill-opacity:1;" d="M 47.46875 242.445312 L 104.1875 185.722656 L 109.71875 191.253906 L 53 247.980469 L 47.46875 242.445312 "/>
<path style=" stroke:none;fill-rule:nonzero;fill:rgb(13.729858%,12.159729%,12.548828%);fill-opacity:1;" d="M 0.503906 489.660156 L 0.503906 0.6875 L 248.535156 0.6875 L 248.535156 489.660156 L 0.503906 489.660156 M 0.644531 489.519531 L 248.394531 489.519531 L 248.394531 0.824219 L 0.644531 0.824219 L 0.644531 489.519531 "/>
<path style=" stroke:none;fill-rule:nonzero;fill:rgb(13.729858%,12.159729%,12.548828%);fill-opacity:1;" d="M 174.59375 207.601562 C 175.132812 207.59375 175.652344 207.828125 176.054688 208.183594 C 176.488281 208.558594 176.703125 209.117188 176.738281 209.683594 C 176.765625 210.117188 176.652344 210.613281 176.507812 211.03125 C 176.390625 211.371094 176.253906 211.707031 176.089844 212.03125 C 175.964844 212.289062 175.773438 212.601562 175.550781 212.785156 C 175.289062 213.007812 174.949219 213.117188 174.601562 213.113281 C 174.257812 213.113281 173.917969 212.992188 173.652344 212.765625 C 173.472656 212.613281 173.308594 212.371094 173.1875 212.167969 C 172.976562 211.808594 172.78125 211.414062 172.648438 211.019531 C 172.503906 210.609375 172.410156 210.152344 172.441406 209.714844 C 172.480469 209.179688 172.679688 208.636719 173.066406 208.265625 C 173.484375 207.867188 174.019531 207.609375 174.59375 207.601562 M 174.613281 216.601562 C 174.9375 216.621094 175.246094 216.753906 175.507812 216.9375 C 175.6875 217.066406 175.859375 217.289062 175.988281 217.46875 C 176.261719 217.863281 176.492188 218.300781 176.679688 218.742188 C 176.957031 219.386719 177.15625 220.0625 177.273438 220.746094 C 177.390625 221.421875 177.429688 222.152344 177.289062 222.820312 C 177.175781 223.402344 176.925781 223.972656 176.515625 224.398438 C 176.03125 224.917969 175.355469 225.21875 174.648438 225.246094 C 173.847656 225.28125 173.070312 224.980469 172.515625 224.398438 C 172.105469 223.972656 171.851562 223.40625 171.738281 222.820312 C 171.613281 222.164062 171.675781 221.398438 171.785156 220.746094 C 171.902344 220.0625 172.074219 219.390625 172.304688 218.738281 C 172.472656 218.265625 172.710938 217.714844 173.039062 217.332031 C 173.226562 217.117188 173.449219 216.917969 173.710938 216.804688 C 173.988281 216.675781 174.304688 216.582031 174.613281 216.601562 M 174.613281 204.230469 C 175.027344 204.246094 175.636719 204.277344 176.039062 204.359375 C 176.53125 204.460938 177.007812 204.636719 177.445312 204.882812 C 178.398438 205.425781 179.160156 206.246094 179.640625 207.238281 C 180.039062 208.046875 180.222656 208.957031 180.242188 209.859375 C 180.265625 210.742188 180.128906 211.628906 179.824219 212.457031 C 179.570312 213.164062 179.1875 213.832031 178.730469 214.433594 C 178.667969 214.515625 178.566406 214.640625 178.503906 214.726562 C 178.550781 214.785156 178.640625 214.894531 178.683594 214.960938 C 179.363281 215.871094 179.9375 216.882812 180.320312 217.953125 C 180.707031 219.035156 180.90625 220.183594 180.957031 221.328125 C 180.988281 222.226562 180.929688 223.160156 180.699219 224.019531 C 180.457031 224.917969 180.039062 225.761719 179.445312 226.46875 C 178.878906 227.144531 178.160156 227.671875 177.363281 228.054688 C 176.519531 228.457031 175.597656 228.683594 174.660156 228.695312 C 173.765625 228.703125 172.886719 228.511719 172.066406 228.148438 C 171.234375 227.773438 170.492188 227.222656 169.902344 226.53125 C 169.320312 225.859375 168.890625 225.066406 168.636719 224.210938 C 168.347656 223.261719 168.285156 222.203125 168.332031 221.214844 C 168.390625 220.042969 168.589844 218.863281 168.996094 217.765625 C 169.355469 216.761719 169.882812 215.835938 170.53125 214.996094 C 170.582031 214.929688 170.667969 214.824219 170.71875 214.765625 C 170.679688 214.714844 170.605469 214.625 170.5625 214.574219 C 170.023438 213.902344 169.625 213.125 169.351562 212.308594 C 169.09375 211.527344 168.957031 210.707031 168.960938 209.886719 C 168.964844 208.925781 169.164062 207.953125 169.609375 207.109375 C 170.199219 206.011719 171.152344 205.152344 172.304688 204.667969 C 172.695312 204.503906 173.105469 204.382812 173.519531 204.320312 C 173.835938 204.269531 174.296875 204.246094 174.613281 204.230469 M 189.3125 207.742188 C 189.585938 207.734375 189.855469 207.796875 190.097656 207.925781 C 190.332031 208.050781 190.519531 208.269531 190.664062 208.488281 C 190.898438 208.851562 191.0625 209.371094 191.171875 209.789062 C 191.359375 210.507812 191.503906 211.242188 191.617188 211.976562 C 191.726562 212.734375 191.808594 213.5 191.863281 214.265625 C 191.914062 215.050781 191.945312 215.835938 191.9375 216.625 C 191.9375 217.511719 191.898438 218.402344 191.820312 219.289062 C 191.742188 220.179688 191.617188 221.105469 191.425781 221.972656 C 191.289062 222.578125 191.113281 223.191406 190.878906 223.761719 C 190.753906 224.058594 190.601562 224.371094 190.414062 224.632812 C 190.285156 224.808594 190.128906 224.976562 189.949219 225.097656 C 189.75 225.226562 189.519531 225.304688 189.28125 225.3125 C 189.007812 225.332031 188.71875 225.269531 188.488281 225.105469 C 188.320312 224.992188 188.171875 224.808594 188.058594 224.636719 C 187.878906 224.367188 187.726562 224.070312 187.601562 223.769531 C 187.367188 223.207031 187.203125 222.5625 187.09375 221.96875 C 186.9375 221.121094 186.832031 220.101562 186.761719 219.242188 C 186.699219 218.402344 186.636719 217.425781 186.636719 216.582031 C 186.636719 215.804688 186.683594 215.011719 186.761719 214.234375 C 186.84375 213.46875 186.953125 212.695312 187.085938 211.925781 C 187.210938 211.230469 187.363281 210.503906 187.546875 209.824219 C 187.671875 209.382812 187.855469 208.851562 188.113281 208.476562 C 188.261719 208.265625 188.449219 208.054688 188.679688 207.929688 C 188.871094 207.832031 189.09375 207.757812 189.3125 207.742188 M 189.285156 204.230469 C 189.792969 204.230469 190.320312 204.335938 190.808594 204.484375 C 191.875 204.804688 192.789062 205.5625 193.460938 206.445312 C 194.050781 207.222656 194.476562 208.148438 194.785156 209.070312 C 195.078125 209.957031 195.28125 210.878906 195.421875 211.804688 C 195.5625 212.753906 195.632812 213.738281 195.667969 214.695312 C 195.703125 215.804688 195.691406 216.917969 195.617188 218.027344 C 195.542969 219.0625 195.417969 220.09375 195.230469 221.117188 C 195.019531 222.28125 194.710938 223.472656 194.28125 224.574219 C 193.886719 225.570312 193.316406 226.644531 192.535156 227.367188 C 191.65625 228.175781 190.519531 228.648438 189.324219 228.6875 C 188.195312 228.730469 187.078125 228.390625 186.195312 227.6875 C 185.238281 226.9375 184.574219 225.679688 184.152344 224.53125 C 183.75 223.441406 183.46875 222.28125 183.289062 221.132812 C 183.128906 220.128906 183.023438 219.054688 182.949219 218.035156 C 182.878906 217.039062 182.832031 215.921875 182.875 214.914062 C 182.917969 213.890625 183.054688 212.824219 183.226562 211.8125 C 183.382812 210.921875 183.585938 209.980469 183.859375 209.117188 C 184.152344 208.191406 184.570312 207.242188 185.148438 206.464844 C 185.84375 205.535156 186.800781 204.765625 187.917969 204.453125 C 188.355469 204.328125 188.835938 204.230469 189.285156 204.230469 M 171.261719 402.910156 L 171.339844 426.792969 L 167.867188 426.792969 L 167.769531 408.839844 C 167.714844 408.886719 167.628906 408.972656 167.570312 409.023438 C 167.394531 409.183594 167.207031 409.34375 167.015625 409.484375 C 166.777344 409.667969 166.460938 409.871094 166.210938 410.03125 C 165.996094 410.171875 165.703125 410.351562 165.480469 410.460938 C 165.394531 410.5 165.273438 410.554688 165.1875 410.585938 L 163.4375 407.667969 C 163.527344 407.621094 163.632812 407.5625 163.722656 407.511719 C 164.160156 407.261719 164.628906 406.96875 165.03125 406.667969 C 165.539062 406.28125 166.003906 405.839844 166.394531 405.34375 C 166.800781 404.839844 167.136719 404.273438 167.414062 403.691406 C 167.527344 403.464844 167.667969 403.144531 167.769531 402.910156 L 171.261719 402.910156 M 193.8125 406.160156 C 194.085938 406.148438 194.355469 406.210938 194.597656 406.335938 C 194.828125 406.460938 195.019531 406.679688 195.160156 406.898438 C 195.394531 407.261719 195.5625 407.78125 195.667969 408.195312 C 195.855469 408.914062 196 409.640625 196.109375 410.378906 C 196.226562 411.128906 196.308594 411.898438 196.355469 412.660156 C 196.414062 413.445312 196.4375 414.226562 196.4375 415.011719 C 196.4375 415.902344 196.394531 416.785156 196.3125 417.667969 C 196.234375 418.558594 196.109375 419.480469 195.917969 420.347656 C 195.785156 420.949219 195.605469 421.5625 195.375 422.136719 C 195.253906 422.425781 195.097656 422.738281 194.910156 422.996094 C 194.785156 423.171875 194.628906 423.339844 194.449219 423.464844 C 194.25 423.59375 194.019531 423.667969 193.78125 423.679688 C 193.507812 423.699219 193.222656 423.632812 192.992188 423.46875 C 192.824219 423.355469 192.679688 423.171875 192.566406 423.003906 C 192.382812 422.734375 192.230469 422.441406 192.105469 422.140625 C 191.871094 421.582031 191.714844 420.941406 191.605469 420.34375 C 191.445312 419.496094 191.34375 418.476562 191.273438 417.625 C 191.203125 416.789062 191.144531 415.8125 191.144531 414.972656 C 191.148438 414.195312 191.195312 413.40625 191.273438 412.628906 C 191.355469 411.859375 191.460938 411.089844 191.59375 410.328125 C 191.71875 409.640625 191.867188 408.90625 192.054688 408.230469 C 192.179688 407.789062 192.359375 407.265625 192.617188 406.890625 C 192.765625 406.675781 192.953125 406.464844 193.183594 406.34375 C 193.378906 406.242188 193.597656 406.167969 193.8125 406.160156 M 193.792969 402.648438 C 194.296875 402.648438 194.828125 402.75 195.3125 402.898438 C 196.375 403.21875 197.285156 403.972656 197.953125 404.855469 C 198.542969 405.628906 198.972656 406.554688 199.273438 407.472656 C 199.566406 408.359375 199.773438 409.277344 199.910156 410.199219 C 200.050781 411.144531 200.121094 412.128906 200.160156 413.085938 C 200.191406 414.191406 200.179688 415.300781 200.105469 416.40625 C 200.035156 417.4375 199.910156 418.46875 199.71875 419.484375 C 199.507812 420.652344 199.203125 421.835938 198.773438 422.933594 C 198.382812 423.925781 197.8125 425 197.03125 425.71875 C 196.15625 426.527344 195.019531 426.996094 193.828125 427.039062 C 192.703125 427.082031 191.589844 426.738281 190.710938 426.039062 C 189.753906 425.289062 189.09375 424.035156 188.671875 422.894531 C 188.269531 421.804688 187.988281 420.652344 187.808594 419.503906 C 187.648438 418.5 187.542969 417.425781 187.46875 416.414062 C 187.398438 415.421875 187.355469 414.300781 187.394531 413.300781 C 187.4375 412.28125 187.570312 411.21875 187.75 410.207031 C 187.902344 409.320312 188.105469 408.382812 188.378906 407.523438 C 188.671875 406.597656 189.085938 405.648438 189.667969 404.871094 C 190.367188 403.945312 191.3125 403.179688 192.425781 402.867188 C 192.859375 402.742188 193.347656 402.648438 193.792969 402.648438 M 186.136719 423.625 L 186.136719 426.792969 L 173.707031 426.792969 L 173.703125 424.699219 C 173.695312 424.152344 173.894531 423.328125 174.035156 422.808594 C 174.191406 422.222656 174.421875 421.632812 174.664062 421.085938 C 175.121094 420.085938 175.6875 419.117188 176.289062 418.203125 C 176.761719 417.503906 177.398438 416.644531 177.910156 415.972656 C 178.007812 415.847656 178.378906 415.351562 178.476562 415.226562 L 181.605469 411.222656 C 181.796875 410.96875 182.289062 410.335938 182.4375 410.050781 C 182.628906 409.660156 182.742188 409.234375 182.75 408.808594 C 182.757812 408.179688 182.53125 407.578125 182.140625 407.097656 C 181.601562 406.421875 180.785156 406.019531 179.925781 406.03125 C 179.234375 406.039062 178.570312 406.335938 178.078125 406.8125 C 177.664062 407.214844 177.378906 407.730469 177.28125 408.296875 C 177.242188 408.53125 177.242188 408.890625 177.242188 409.128906 L 177.242188 409.921875 L 173.722656 409.925781 C 173.707031 409.738281 173.703125 409.46875 173.703125 409.28125 C 173.703125 409.042969 173.714844 408.800781 173.734375 408.558594 C 173.753906 408.34375 173.777344 408.117188 173.8125 407.90625 C 173.835938 407.734375 173.867188 407.5625 173.902344 407.394531 C 174.199219 406.054688 175.015625 404.886719 176.101562 404.050781 C 177.183594 403.210938 178.511719 402.726562 179.890625 402.71875 C 181.339844 402.707031 182.75 403.210938 183.878906 404.117188 C 184.859375 404.910156 185.582031 405.984375 185.9375 407.195312 C 186.105469 407.753906 186.191406 408.332031 186.191406 408.90625 C 186.195312 409.578125 186.101562 410.242188 185.910156 410.878906 C 185.792969 411.242188 185.644531 411.609375 185.453125 411.941406 C 185.28125 412.246094 185.066406 412.542969 184.847656 412.824219 L 180.195312 418.785156 C 180.050781 418.972656 179.855469 419.222656 179.710938 419.410156 C 179.476562 419.726562 179.203125 420.09375 178.984375 420.425781 C 178.6875 420.910156 178.417969 421.441406 178.179688 421.957031 C 178.023438 422.296875 177.847656 422.734375 177.777344 423.101562 C 177.746094 423.253906 177.71875 423.476562 177.699219 423.625 L 186.136719 423.625 M 171.597656 303.6875 L 171.679688 327.574219 L 168.199219 327.574219 L 168.105469 309.621094 C 168.050781 309.667969 167.964844 309.753906 167.902344 309.800781 C 167.730469 309.96875 167.539062 310.125 167.351562 310.265625 C 167.113281 310.449219 166.796875 310.652344 166.542969 310.8125 C 166.332031 310.949219 166.039062 311.136719 165.8125 311.242188 C 165.730469 311.28125 165.609375 311.332031 165.519531 311.367188 L 163.769531 308.449219 C 163.863281 308.402344 163.96875 308.34375 164.058594 308.289062 C 164.496094 308.046875 164.964844 307.753906 165.367188 307.449219 C 165.875 307.066406 166.339844 306.621094 166.730469 306.125 C 167.136719 305.621094 167.472656 305.054688 167.75 304.472656 C 167.863281 304.242188 168.003906 303.921875 168.105469 303.6875 L 171.597656 303.6875 M 179.496094 306.9375 C 179.769531 306.929688 180.039062 306.992188 180.28125 307.117188 C 180.511719 307.238281 180.707031 307.460938 180.847656 307.675781 C 181.082031 308.039062 181.246094 308.5625 181.359375 308.976562 C 181.539062 309.699219 181.6875 310.425781 181.800781 311.15625 C 181.914062 311.910156 181.992188 312.679688 182.046875 313.441406 C 182.101562 314.226562 182.125 315.007812 182.121094 315.792969 C 182.121094 316.679688 182.078125 317.566406 182 318.449219 C 181.921875 319.339844 181.800781 320.261719 181.605469 321.128906 C 181.472656 321.730469 181.292969 322.34375 181.0625 322.914062 C 180.9375 323.207031 180.785156 323.519531 180.597656 323.777344 C 180.46875 323.953125 180.316406 324.121094 180.136719 324.242188 C 179.9375 324.375 179.707031 324.449219 179.472656 324.460938 C 179.191406 324.480469 178.90625 324.414062 178.675781 324.253906 C 178.511719 324.140625 178.363281 323.953125 178.253906 323.78125 C 178.066406 323.515625 177.917969 323.222656 177.789062 322.921875 C 177.558594 322.355469 177.398438 321.722656 177.289062 321.121094 C 177.132812 320.28125 177.027344 319.261719 176.960938 318.40625 C 176.890625 317.570312 176.828125 316.59375 176.835938 315.753906 C 176.835938 314.976562 176.878906 314.1875 176.960938 313.410156 C 177.039062 312.644531 177.148438 311.871094 177.277344 311.109375 C 177.402344 310.421875 177.554688 309.6875 177.742188 309.015625 C 177.867188 308.570312 178.046875 308.046875 178.300781 307.671875 C 178.449219 307.457031 178.644531 307.246094 178.871094 307.121094 C 179.066406 307.019531 179.28125 306.949219 179.496094 306.9375 M 179.476562 303.425781 C 179.984375 303.425781 180.511719 303.53125 180.996094 303.675781 C 182.0625 303.996094 182.972656 304.753906 183.644531 305.636719 C 184.230469 306.40625 184.65625 307.335938 184.960938 308.253906 C 185.253906 309.140625 185.464844 310.058594 185.597656 310.980469 C 185.742188 311.925781 185.8125 312.910156 185.84375 313.867188 C 185.882812 314.972656 185.867188 316.082031 185.789062 317.1875 C 185.722656 318.222656 185.597656 319.246094 185.410156 320.265625 C 185.195312 321.433594 184.890625 322.617188 184.457031 323.714844 C 184.070312 324.710938 183.5 325.78125 182.714844 326.5 C 181.84375 327.308594 180.703125 327.78125 179.515625 327.820312 C 178.390625 327.863281 177.277344 327.519531 176.390625 326.820312 C 175.441406 326.074219 174.773438 324.816406 174.355469 323.675781 C 173.957031 322.589844 173.679688 321.433594 173.492188 320.28125 C 173.335938 319.28125 173.230469 318.210938 173.15625 317.195312 C 173.085938 316.199219 173.042969 315.082031 173.082031 314.082031 C 173.125 313.0625 173.257812 311.996094 173.4375 310.988281 C 173.589844 310.101562 173.792969 309.164062 174.0625 308.300781 C 174.359375 307.378906 174.773438 306.433594 175.355469 305.652344 C 176.050781 304.730469 177 303.964844 178.109375 303.648438 C 178.546875 303.527344 179.03125 303.425781 179.476562 303.425781 M 193.570312 306.9375 C 193.84375 306.929688 194.113281 306.992188 194.355469 307.117188 C 194.585938 307.238281 194.777344 307.460938 194.921875 307.675781 C 195.152344 308.039062 195.320312 308.5625 195.429688 308.976562 C 195.613281 309.699219 195.757812 310.425781 195.867188 311.15625 C 195.984375 311.910156 196.066406 312.679688 196.117188 313.441406 C 196.171875 314.226562 196.199219 315.007812 196.195312 315.792969 C 196.195312 316.683594 196.152344 317.566406 196.070312 318.449219 C 195.992188 319.339844 195.867188 320.261719 195.675781 321.128906 C 195.542969 321.730469 195.367188 322.34375 195.132812 322.914062 C 195.011719 323.207031 194.855469 323.519531 194.667969 323.777344 C 194.542969 323.953125 194.386719 324.121094 194.207031 324.242188 C 194.011719 324.375 193.777344 324.449219 193.542969 324.460938 C 193.265625 324.480469 192.980469 324.414062 192.75 324.253906 C 192.585938 324.140625 192.4375 323.953125 192.324219 323.78125 C 192.140625 323.515625 191.988281 323.222656 191.863281 322.921875 C 191.632812 322.355469 191.472656 321.722656 191.363281 321.121094 C 191.203125 320.28125 191.101562 319.261719 191.03125 318.40625 C 190.964844 317.570312 190.902344 316.59375 190.902344 315.753906 C 190.90625 314.976562 190.953125 314.1875 191.03125 313.410156 C 191.113281 312.644531 191.21875 311.871094 191.355469 311.109375 C 191.476562 310.421875 191.628906 309.6875 191.8125 309.015625 C 191.9375 308.570312 192.121094 308.046875 192.375 307.671875 C 192.523438 307.457031 192.714844 307.246094 192.941406 307.121094 C 193.140625 307.019531 193.355469 306.949219 193.570312 306.9375 M 193.550781 303.425781 C 194.058594 303.425781 194.582031 303.53125 195.066406 303.675781 C 196.132812 303.996094 197.042969 304.753906 197.710938 305.636719 C 198.296875 306.40625 198.726562 307.335938 199.027344 308.253906 C 199.324219 309.140625 199.527344 310.058594 199.664062 310.980469 C 199.804688 311.925781 199.878906 312.910156 199.914062 313.867188 C 199.949219 314.972656 199.9375 316.082031 199.859375 317.1875 C 199.792969 318.222656 199.664062 319.246094 199.476562 320.265625 C 199.261719 321.433594 198.960938 322.617188 198.527344 323.714844 C 198.144531 324.710938 197.570312 325.78125 196.785156 326.5 C 195.910156 327.308594 194.773438 327.78125 193.589844 327.820312 C 192.460938 327.863281 191.347656 327.519531 190.464844 326.820312 C 189.511719 326.074219 188.847656 324.816406 188.425781 323.675781 C 188.023438 322.589844 187.746094 321.433594 187.5625 320.28125 C 187.402344 319.28125 187.300781 318.210938 187.222656 317.195312 C 187.152344 316.199219 187.109375 315.082031 187.152344 314.082031 C 187.195312 313.0625 187.328125 311.996094 187.503906 310.988281 C 187.65625 310.101562 187.859375 309.164062 188.136719 308.300781 C 188.425781 307.378906 188.839844 306.433594 189.425781 305.652344 C 190.121094 304.730469 191.066406 303.964844 192.183594 303.648438 C 192.617188 303.527344 193.101562 303.425781 193.550781 303.425781 M 189.542969 105.539062 C 189.09375 105.539062 188.617188 105.640625 188.1875 105.757812 C 187.082031 106.070312 186.136719 106.828125 185.449219 107.753906 C 184.875 108.523438 184.464844 109.460938 184.175781 110.378906 C 183.902344 111.234375 183.699219 112.164062 183.546875 113.046875 C 183.375 114.046875 183.242188 115.101562 183.195312 116.117188 C 183.152344 117.109375 183.203125 118.21875 183.273438 119.207031 C 183.34375 120.210938 183.445312 121.273438 183.605469 122.269531 C 183.789062 123.40625 184.0625 124.558594 184.464844 125.636719 C 184.878906 126.765625 185.539062 128.015625 186.480469 128.757812 C 187.359375 129.453125 188.460938 129.789062 189.574219 129.746094 C 190.757812 129.710938 191.886719 129.242188 192.753906 128.441406 C 193.527344 127.726562 194.09375 126.660156 194.480469 125.675781 C 194.910156 124.582031 195.214844 123.40625 195.421875 122.253906 C 195.605469 121.242188 195.730469 120.222656 195.804688 119.195312 C 195.878906 118.097656 195.890625 116.996094 195.855469 115.902344 C 195.820312 114.949219 195.75 113.976562 195.613281 113.035156 C 195.472656 112.121094 195.273438 111.210938 194.976562 110.332031 C 194.679688 109.421875 194.253906 108.5 193.671875 107.734375 C 193.007812 106.859375 192.105469 106.109375 191.046875 105.789062 C 190.566406 105.644531 190.046875 105.539062 189.542969 105.539062 M 180.128906 105.792969 L 168.804688 105.792969 L 168.804688 118.285156 L 172.136719 119.078125 C 172.15625 119.007812 172.195312 118.894531 172.226562 118.820312 C 172.273438 118.710938 172.339844 118.597656 172.402344 118.5 C 172.621094 118.179688 172.898438 117.90625 173.226562 117.707031 C 173.648438 117.449219 174.128906 117.308594 174.625 117.3125 C 175.195312 117.316406 175.757812 117.507812 176.1875 117.867188 C 176.574219 118.195312 176.859375 118.699219 177.050781 119.164062 C 177.210938 119.550781 177.339844 119.953125 177.425781 120.363281 C 177.535156 120.863281 177.589844 121.371094 177.589844 121.890625 C 177.59375 122.371094 177.550781 122.851562 177.460938 123.316406 C 177.375 123.785156 177.238281 124.261719 177.023438 124.6875 C 176.808594 125.113281 176.511719 125.511719 176.125 125.800781 C 175.691406 126.117188 175.171875 126.296875 174.632812 126.308594 C 174.105469 126.316406 173.585938 126.164062 173.144531 125.875 C 172.730469 125.601562 172.402344 125.230469 172.199219 124.78125 C 172.144531 124.660156 172.082031 124.480469 172.035156 124.355469 L 168.804688 125.292969 C 168.832031 125.421875 168.863281 125.605469 168.898438 125.730469 C 169.007812 126.121094 169.21875 126.519531 169.4375 126.859375 C 169.789062 127.40625 170.214844 127.921875 170.714844 128.339844 C 171.230469 128.773438 171.835938 129.101562 172.46875 129.339844 C 173.210938 129.617188 174 129.769531 174.792969 129.742188 C 175.464844 129.722656 176.128906 129.570312 176.753906 129.324219 C 177.386719 129.082031 177.976562 128.746094 178.492188 128.3125 C 179.046875 127.847656 179.507812 127.285156 179.863281 126.65625 C 180.246094 125.976562 180.515625 125.183594 180.710938 124.429688 C 180.921875 123.597656 181.0625 122.722656 181.070312 121.867188 C 181.078125 121.070312 180.964844 120.230469 180.800781 119.445312 C 180.636719 118.667969 180.390625 117.828125 180.023438 117.121094 C 179.675781 116.445312 179.207031 115.84375 178.640625 115.34375 C 178.074219 114.839844 177.421875 114.449219 176.714844 114.183594 C 176.035156 113.925781 175.308594 113.789062 174.574219 113.789062 C 173.886719 113.789062 173.1875 113.90625 172.550781 114.183594 C 172.476562 114.222656 172.355469 114.269531 172.28125 114.304688 L 172.28125 109.019531 L 180.128906 109.019531 L 180.128906 105.792969 M 189.570312 109.023438 C 189.839844 109.015625 190.105469 109.074219 190.34375 109.203125 C 190.574219 109.324219 190.765625 109.546875 190.90625 109.761719 C 191.136719 110.121094 191.300781 110.632812 191.410156 111.050781 C 191.59375 111.757812 191.734375 112.484375 191.847656 113.210938 C 191.957031 113.960938 192.039062 114.71875 192.089844 115.480469 C 192.144531 116.257812 192.175781 117.035156 192.167969 117.8125 C 192.164062 118.691406 192.128906 119.570312 192.046875 120.449219 C 191.96875 121.328125 191.847656 122.246094 191.65625 123.105469 C 191.523438 123.703125 191.351562 124.308594 191.113281 124.878906 C 190.996094 125.171875 190.84375 125.480469 190.65625 125.738281 C 190.527344 125.910156 190.378906 126.078125 190.195312 126.199219 C 190.003906 126.324219 189.773438 126.402344 189.535156 126.414062 C 189.265625 126.429688 188.980469 126.367188 188.75 126.207031 C 188.589844 126.09375 188.4375 125.910156 188.324219 125.742188 C 188.148438 125.476562 188 125.183594 187.875 124.882812 C 187.644531 124.328125 187.484375 123.691406 187.371094 123.105469 C 187.21875 122.265625 187.113281 121.253906 187.046875 120.40625 C 186.980469 119.570312 186.921875 118.605469 186.921875 117.769531 C 186.921875 117 186.96875 116.21875 187.046875 115.449219 C 187.121094 114.6875 187.234375 113.921875 187.367188 113.164062 C 187.488281 112.476562 187.640625 111.757812 187.824219 111.085938 C 187.941406 110.644531 188.132812 110.121094 188.382812 109.753906 C 188.527344 109.539062 188.71875 109.328125 188.945312 109.207031 C 189.136719 109.109375 189.347656 109.035156 189.570312 109.023438 "/>
<path style=" stroke:none;fill-rule:nonzero;fill:rgb(0%,49.674988%,27.331543%);fill-opacity:1;" d="M 75.46875 382.480469 L 77.246094 382.480469 L 76.796875 401.292969 L 70.753906 401.324219 L 75.46875 382.480469 M 80.152344 382.480469 L 80.417969 401.324219 L 86.394531 401.324219 L 81.863281 382.480469 L 80.152344 382.480469 M 56.703125 404.480469 L 56.703125 407.136719 L 61.832031 407.136719 L 61.832031 412.359375 L 64.40625 412.359375 L 65.800781 407.136719 L 91.324219 407.136719 L 92.523438 412.359375 L 95.09375 412.359375 L 95.09375 407.136719 L 100.476562 407.136719 L 100.476562 404.480469 L 56.703125 404.480469 M 68.640625 409.757812 L 59.109375 448.148438 L 75.800781 448.148438 L 76.628906 409.820312 L 68.640625 409.757812 M 80.5 409.757812 L 80.84375 448.148438 L 97.4375 448.148438 L 88.386719 409.757812 L 80.5 409.757812 M 53.578125 450.75 L 103.605469 450.75 L 103.605469 379.867188 L 53.578125 379.867188 L 53.578125 450.75 M 63.230469 311.125 C 61.910156 311.132812 60.835938 312.230469 60.824219 313.578125 C 60.816406 314.933594 61.878906 316.042969 63.207031 316.0625 C 64.566406 316.082031 65.6875 314.964844 65.6875 313.578125 C 65.679688 312.210938 64.574219 311.117188 63.230469 311.125 M 73.910156 313.589844 L 69.328125 313.589844 L 69.019531 313.574219 C 68.890625 313.574219 68.707031 313.582031 68.589844 313.628906 C 68.46875 313.667969 68.363281 313.746094 68.277344 313.839844 C 68.226562 313.902344 68.160156 314.015625 68.121094 314.078125 L 65.910156 317.925781 C 65.84375 318.039062 65.8125 318.175781 65.789062 318.308594 C 65.773438 318.519531 65.832031 318.730469 65.972656 318.894531 C 66.128906 319.070312 66.378906 319.148438 66.609375 319.171875 C 66.648438 319.171875 66.851562 319.171875 66.886719 319.171875 L 73.910156 319.171875 L 73.910156 313.589844 M 74.429688 313.589844 L 74.429688 319.171875 L 82.851562 319.171875 L 82.851562 313.589844 L 74.429688 313.589844 M 83.445312 313.589844 L 83.445312 319.171875 L 90.46875 319.171875 C 90.519531 319.171875 90.859375 319.171875 90.902344 319.160156 C 91.128906 319.109375 91.316406 318.984375 91.433594 318.785156 C 91.535156 318.605469 91.5625 318.386719 91.503906 318.179688 C 91.476562 318.078125 91.433594 317.980469 91.382812 317.890625 L 89.199219 314.160156 C 89.171875 314.113281 89.089844 313.976562 89.054688 313.925781 C 88.984375 313.828125 88.886719 313.734375 88.777344 313.683594 C 88.648438 313.613281 88.457031 313.597656 88.316406 313.589844 C 88.203125 313.589844 88.027344 313.589844 87.910156 313.589844 L 83.445312 313.589844 M 94.027344 311.113281 C 92.65625 311.101562 91.523438 312.214844 91.527344 313.617188 C 91.535156 314.980469 92.617188 316.074219 93.949219 316.089844 C 95.3125 316.109375 96.429688 315 96.4375 313.609375 C 96.445312 312.238281 95.367188 311.128906 94.027344 311.113281 M 93.238281 309.441406 L 88.71875 303.316406 C 88.660156 303.242188 88.589844 303.15625 88.523438 303.097656 C 88.449219 303.03125 88.355469 302.976562 88.257812 302.941406 C 88.152344 302.910156 88.035156 302.890625 87.925781 302.882812 C 87.828125 302.878906 87.703125 302.878906 87.609375 302.878906 L 69.597656 302.878906 C 69.5 302.878906 69.398438 302.878906 69.300781 302.882812 C 69.1875 302.890625 69.058594 302.910156 68.957031 302.949219 C 68.84375 302.988281 68.746094 303.058594 68.667969 303.144531 C 68.621094 303.183594 68.5625 303.261719 68.53125 303.308594 L 64.039062 309.304688 C 64.164062 309.296875 64.292969 309.289062 64.417969 309.277344 L 70.960938 308.84375 C 72.761719 308.765625 76.121094 308.734375 77.933594 308.722656 C 80.101562 308.707031 83.714844 308.707031 85.875 308.882812 L 92.855469 309.449219 C 92.957031 309.449219 93.132812 309.441406 93.238281 309.441406 M 95.097656 321.539062 L 96.425781 321.546875 C 96.476562 321.546875 96.65625 321.546875 96.710938 321.53125 C 96.835938 321.496094 96.9375 321.421875 97.011719 321.3125 C 97.09375 321.1875 97.125 321.023438 97.136719 320.875 C 97.140625 320.730469 97.121094 320.449219 97.109375 320.304688 C 97.0625 319.824219 97.050781 319.332031 97.0625 318.84375 C 97.078125 318.394531 97.109375 317.925781 97.148438 317.480469 C 97.199219 316.96875 97.265625 316.421875 97.332031 315.917969 C 97.390625 315.445312 97.464844 314.914062 97.550781 314.449219 C 97.621094 314.023438 97.773438 313.160156 97.753906 312.730469 C 97.726562 312.164062 97.550781 311.609375 97.277344 311.109375 C 97.019531 310.632812 96.65625 310.214844 96.226562 309.890625 C 95.917969 309.660156 95.566406 309.480469 95.203125 309.355469 C 95.089844 309.3125 94.933594 309.261719 94.824219 309.226562 L 89.398438 302.078125 C 89.386719 302.0625 89.199219 301.8125 89.183594 301.800781 C 89.101562 301.707031 88.996094 301.628906 88.878906 301.578125 C 88.761719 301.527344 88.617188 301.5 88.496094 301.492188 C 88.398438 301.488281 88.265625 301.488281 88.171875 301.488281 L 69.039062 301.488281 C 68.984375 301.488281 68.785156 301.488281 68.726562 301.488281 C 68.59375 301.492188 68.429688 301.515625 68.304688 301.570312 C 68.207031 301.621094 68.117188 301.699219 68.039062 301.773438 C 67.976562 301.847656 67.910156 301.921875 67.851562 302 L 62.597656 309.167969 C 62.511719 309.183594 62.394531 309.195312 62.316406 309.214844 C 61.878906 309.300781 61.457031 309.511719 61.089844 309.773438 C 60.578125 310.144531 60.136719 310.621094 59.847656 311.195312 C 59.667969 311.554688 59.550781 311.949219 59.484375 312.351562 C 59.425781 312.71875 59.414062 313.09375 59.472656 313.464844 C 59.492188 313.628906 59.609375 314.058594 59.648438 314.21875 C 59.839844 314.988281 59.964844 315.792969 60.039062 316.582031 C 60.089844 317.1875 60.128906 318.050781 60.15625 318.65625 C 60.175781 319.199219 60.203125 319.980469 60.167969 320.515625 C 60.160156 320.660156 60.15625 320.910156 60.1875 321.042969 C 60.210938 321.144531 60.265625 321.253906 60.335938 321.328125 C 60.421875 321.414062 60.519531 321.472656 60.628906 321.492188 C 60.675781 321.507812 60.898438 321.496094 60.945312 321.496094 L 62.273438 321.492188 L 62.273438 326.742188 C 62.273438 326.773438 62.273438 327.027344 62.273438 327.054688 C 62.285156 327.167969 62.308594 327.300781 62.382812 327.386719 C 62.453125 327.472656 62.5625 327.519531 62.667969 327.539062 C 62.699219 327.546875 62.871094 327.546875 62.902344 327.546875 L 64.753906 327.546875 C 64.785156 327.546875 65.070312 327.546875 65.101562 327.539062 C 65.195312 327.511719 65.277344 327.46875 65.34375 327.394531 C 65.414062 327.308594 65.453125 327.179688 65.46875 327.0625 L 65.46875 322.203125 L 65.898438 322.226562 C 67.773438 322.332031 70.355469 322.472656 72.230469 322.542969 C 74.238281 322.621094 76.378906 322.683594 78.382812 322.683594 C 79.425781 322.683594 83.949219 322.589844 84.992188 322.5625 C 86.777344 322.523438 89.6875 322.433594 91.449219 322.144531 C 91.554688 322.132812 91.757812 322.09375 91.867188 322.078125 L 91.867188 326.851562 C 91.867188 326.953125 91.878906 327.066406 91.902344 327.171875 C 91.914062 327.242188 91.9375 327.320312 91.984375 327.378906 C 92.035156 327.453125 92.132812 327.492188 92.226562 327.519531 C 92.304688 327.539062 92.402344 327.546875 92.480469 327.546875 L 94.445312 327.546875 C 94.542969 327.546875 94.660156 327.539062 94.757812 327.511719 C 94.847656 327.484375 94.949219 327.433594 95.007812 327.351562 C 95.054688 327.273438 95.078125 327.140625 95.082031 327.046875 C 95.097656 326.953125 95.097656 326.855469 95.097656 326.769531 L 95.097656 321.539062 M 53.574219 351.523438 L 103.605469 351.523438 L 103.605469 280.640625 L 53.574219 280.640625 L 53.574219 351.523438 "/>
<path style=" stroke:none;fill-rule:nonzero;fill:rgb(13.729858%,12.159729%,12.548828%);fill-opacity:1;" d="M 121.769531 49.714844 L 121.605469 45.4375 C 120.886719 45.894531 120.132812 46.234375 119.253906 46.480469 C 118.375 46.734375 117.367188 46.863281 116.234375 46.863281 C 113.503906 46.863281 111.363281 45.894531 109.773438 43.925781 C 108.179688 41.957031 107.382812 39.101562 107.382812 35.28125 C 107.382812 33.433594 107.632812 31.84375 108.09375 30.457031 C 108.554688 29.113281 109.226562 27.984375 110.023438 27.101562 C 110.820312 26.222656 111.742188 25.589844 112.789062 25.132812 C 113.839844 24.710938 114.972656 24.5 116.109375 24.5 C 117.324219 24.5 118.375 24.667969 119.253906 24.964844 C 120.132812 25.300781 120.929688 25.675781 121.605469 26.054688 L 121.769531 21.816406 C 121.140625 21.523438 120.304688 21.269531 119.253906 21.019531 C 118.160156 20.808594 116.988281 20.683594 115.730469 20.683594 C 113.675781 20.683594 111.867188 21.0625 110.230469 21.769531 C 108.597656 22.488281 107.257812 23.539062 106.121094 24.839844 C 104.992188 26.179688 104.109375 27.773438 103.523438 29.578125 C 102.894531 31.425781 102.597656 33.433594 102.597656 35.660156 C 102.597656 37.714844 102.894531 39.6875 103.4375 41.492188 C 103.984375 43.296875 104.78125 44.890625 105.871094 46.277344 C 106.960938 47.65625 108.347656 48.710938 110.023438 49.503906 C 111.699219 50.300781 113.675781 50.675781 115.941406 50.675781 C 117.03125 50.675781 118.078125 50.589844 119.132812 50.421875 C 120.175781 50.21875 121.058594 50.003906 121.769531 49.714844 "/>
<path style=" stroke:none;fill-rule:nonzero;fill:rgb(13.729858%,12.159729%,12.548828%);fill-opacity:1;" d="M 124.90625 50.339844 L 129.441406 50.339844 L 129.441406 37.085938 L 138.878906 37.085938 L 138.878906 50.339844 L 143.410156 50.339844 L 143.410156 21.0625 L 138.878906 21.0625 L 138.878906 33.265625 L 129.441406 33.265625 L 129.441406 21.0625 L 124.90625 21.0625 L 124.90625 50.339844 "/>
</g>
</svg>
