<?xml version="1.0" encoding="UTF-8"?>
<svg xmlns="http://www.w3.org/2000/svg" xmlns:xlink="http://www.w3.org/1999/xlink" width="143pt" height="58pt" viewBox="0 0 143 58" version="1.1">
<g id="surface1">
<path style=" stroke:none;fill-rule:nonzero;fill:rgb(100%,100%,100%);fill-opacity:1;" d="M 0.65625 57.085938 L 142.386719 57.085938 L 142.386719 0.390625 L 0.65625 0.390625 Z M 0.65625 57.085938 "/>
<path style="fill:none;stroke-width:2.835;stroke-linecap:butt;stroke-linejoin:round;stroke:rgb(13.729858%,12.159729%,12.548828%);stroke-opacity:1;stroke-miterlimit:4;" d="M 6.5625 9.140625 L 1423.90625 9.140625 L 1423.90625 576.09375 L 6.5625 576.09375 L 6.5625 9.140625 " transform="matrix(0.1,0,0,-0.1,0,58)"/>
<path style=" stroke:none;fill-rule:nonzero;fill:rgb(13.729858%,12.159729%,12.548828%);fill-opacity:1;" d="M 99.140625 35.996094 L 96.886719 50.835938 C 96.738281 51.453125 96.964844 52.066406 97.460938 52.433594 C 98.035156 52.914062 98.855469 52.953125 99.507812 52.546875 L 134.230469 30.632812 C 134.863281 30.179688 135.304688 29.464844 135.304688 28.722656 C 135.332031 27.902344 134.898438 27.15625 134.230469 26.699219 L 99.398438 4.898438 C 98.820312 4.515625 98.035156 4.554688 97.460938 4.921875 C 96.886719 5.300781 96.640625 5.984375 96.777344 6.597656 L 99.140625 21.53125 L 9.167969 16.714844 L 9.167969 40.804688 L 99.140625 35.996094 "/>
</g>
</svg>
