<?xml version="1.0" encoding="UTF-8"?>
<svg xmlns="http://www.w3.org/2000/svg" xmlns:xlink="http://www.w3.org/1999/xlink" width="59pt" height="30pt" viewBox="0 0 59 30" version="1.1">
<g id="surface1">
<path style=" stroke:none;fill-rule:nonzero;fill:rgb(13.729858%,12.159729%,12.548828%);fill-opacity:1;" d="M 9.789062 19.125 C 12.597656 19.125 14.828125 21.429688 14.828125 24.167969 C 14.898438 26.972656 12.667969 29.347656 9.789062 29.347656 C 6.980469 29.347656 4.75 27.046875 4.75 24.167969 C 4.75 21.429688 7.050781 19.125 9.789062 19.125 "/>
<path style=" stroke:none;fill-rule:nonzero;fill:rgb(13.729858%,12.159729%,12.548828%);fill-opacity:1;" d="M 45.710938 19.132812 C 48.589844 19.132812 50.964844 21.507812 50.894531 24.386719 C 50.820312 27.125 48.515625 29.285156 45.78125 29.285156 C 42.972656 29.285156 40.667969 27.125 40.597656 24.316406 C 40.523438 21.507812 42.828125 19.132812 45.710938 19.132812 "/>
<path style=" stroke:none;fill-rule:nonzero;fill:rgb(13.729858%,12.159729%,12.548828%);fill-opacity:1;" d="M 58.820312 18.492188 L 50.757812 18.492188 L 51.476562 19.429688 L 58.097656 19.574219 L 58.097656 21.445312 L 53.277344 23.171875 C 53.277344 23.242188 53.347656 24.324219 53.347656 24.394531 L 52.050781 24.394531 C 52.050781 24.324219 52.050781 24.179688 52.050781 24.179688 C 51.765625 20.796875 49.171875 17.914062 45.789062 17.914062 C 42.40625 17.84375 39.667969 20.652344 39.378906 23.964844 C 39.378906 24.109375 39.378906 24.25 39.308594 24.324219 L 15.914062 24.25 C 15.914062 24.179688 15.914062 24.035156 15.914062 23.964844 C 15.988281 20.652344 13.105469 18.132812 9.792969 18.132812 C 6.554688 18.132812 3.820312 20.722656 3.675781 23.964844 C 3.675781 24.109375 3.675781 24.25 3.675781 24.324219 L 0.652344 24.324219 L 0.722656 23.605469 C 0.652344 23.53125 0.507812 23.53125 0.363281 23.386719 C 0.21875 23.242188 0.21875 23.027344 0.21875 22.957031 L 0.21875 22.308594 C 0.21875 22.238281 0.21875 21.875 0.292969 21.804688 C 0.363281 21.660156 0.578125 21.660156 0.722656 21.660156 L 1.445312 21.660156 L 2.164062 14.675781 C 2.164062 14.386719 2.308594 14.027344 2.523438 13.8125 C 2.8125 13.523438 3.386719 13.378906 3.457031 13.378906 L 4.324219 13.308594 L 6.484375 8.699219 C 6.914062 7.835938 8.355469 6.828125 9.578125 6.828125 L 16.636719 6.828125 L 16.5625 19.5 L 39.667969 19.574219 L 40.53125 18.636719 L 17.355469 18.5625 L 17.5 1.070312 L 58.820312 0.996094 L 58.820312 18.492188 "/>
<path style=" stroke:none;fill-rule:nonzero;fill:rgb(100%,100%,100%);fill-opacity:1;" d="M 9.789062 22.15625 C 10.941406 22.15625 11.875 23.09375 11.875 24.171875 C 11.875 25.394531 11.011719 26.332031 9.859375 26.332031 C 8.636719 26.40625 7.699219 25.394531 7.699219 24.246094 C 7.699219 23.09375 8.636719 22.15625 9.789062 22.15625 "/>
<path style=" stroke:none;fill-rule:nonzero;fill:rgb(100%,100%,100%);fill-opacity:1;" d="M 45.78125 22.085938 C 47.003906 22.085938 47.867188 23.164062 47.796875 24.386719 C 47.796875 25.46875 46.859375 26.332031 45.78125 26.332031 C 44.628906 26.332031 43.691406 25.542969 43.621094 24.386719 C 43.546875 23.164062 44.554688 22.085938 45.78125 22.085938 "/>
<path style=" stroke:none;fill-rule:nonzero;fill:rgb(100%,100%,100%);fill-opacity:1;" d="M 10.21875 8.773438 L 13.890625 8.84375 L 13.890625 13.378906 L 8.058594 13.308594 L 10.21875 8.773438 "/>
<path style=" stroke:none;fill-rule:nonzero;fill:rgb(100%,100%,100%);fill-opacity:1;" d="M 7.269531 8.773438 L 8.851562 8.773438 L 6.765625 13.378906 L 5.25 13.378906 L 7.269531 8.773438 "/>
</g>
</svg>
