<?xml version="1.0" encoding="UTF-8"?>
<svg xmlns="http://www.w3.org/2000/svg" xmlns:xlink="http://www.w3.org/1999/xlink" width="44pt" height="29pt" viewBox="0 0 44 29" version="1.1">
<g id="surface1">
<path style=" stroke:none;fill-rule:nonzero;fill:rgb(13.729858%,12.159729%,12.548828%);fill-opacity:1;" d="M 3.851562 27.042969 L 3.84375 22.816406 C 3.671875 22.648438 3.425781 22.40625 3.261719 22.234375 C 2.714844 21.660156 2.226562 21.027344 1.804688 20.351562 C 1.449219 19.785156 1.15625 19.191406 0.914062 18.570312 C 0.605469 17.757812 0.410156 16.886719 0.300781 16.023438 C 0.164062 14.972656 0.164062 13.914062 0.304688 12.871094 C 0.464844 11.664062 0.835938 10.496094 1.363281 9.402344 C 1.847656 8.40625 2.46875 7.472656 3.230469 6.667969 C 3.964844 5.898438 4.894531 5.210938 5.789062 4.640625 C 6.753906 4.027344 7.792969 3.484375 8.828125 3.003906 C 10.277344 2.332031 11.777344 1.765625 13.3125 1.320312 C 14.589844 0.949219 15.902344 0.675781 17.21875 0.480469 C 18.445312 0.296875 19.6875 0.199219 20.929688 0.175781 C 22.46875 0.140625 24 0.234375 25.519531 0.449219 C 27.03125 0.660156 28.535156 1.015625 29.988281 1.46875 C 31.589844 1.960938 33.144531 2.609375 34.636719 3.367188 C 35.988281 4.054688 37.300781 4.859375 38.5 5.792969 C 39.519531 6.585938 40.375 7.601562 41.066406 8.695312 C 41.601562 9.542969 42.03125 10.460938 42.320312 11.425781 C 42.578125 12.28125 42.703125 13.210938 42.746094 14.101562 C 42.785156 14.988281 42.738281 15.875 42.578125 16.742188 C 42.363281 17.890625 41.933594 18.992188 41.355469 20.007812 C 40.929688 20.757812 40.410156 21.472656 39.789062 22.070312 C 39.652344 22.203125 39.445312 22.386719 39.300781 22.511719 L 39.308594 27.054688 L 43.070312 27.042969 L 43.046875 28.519531 L 0.1875 28.492188 L 0.191406 27.035156 L 3.851562 27.042969 "/>
<path style=" stroke:none;fill-rule:nonzero;fill:rgb(100%,100%,100%);fill-opacity:1;" d="M 21.328125 25.269531 C 21.152344 25.269531 20.972656 25.242188 20.800781 25.171875 C 20.636719 25.105469 20.484375 25.007812 20.351562 24.878906 C 20.222656 24.753906 20.121094 24.601562 20.050781 24.4375 C 19.984375 24.269531 19.945312 24.09375 19.945312 23.90625 C 19.945312 23.730469 19.980469 23.550781 20.046875 23.382812 C 20.117188 23.214844 20.21875 23.0625 20.347656 22.9375 C 20.476562 22.8125 20.628906 22.707031 20.796875 22.640625 C 20.964844 22.570312 21.140625 22.539062 21.324219 22.542969 C 22.207031 22.550781 22.84375 23.375 22.636719 24.226562 C 22.492188 24.832031 21.953125 25.261719 21.328125 25.269531 "/>
<path style=" stroke:none;fill-rule:nonzero;fill:rgb(100%,100%,100%);fill-opacity:1;" d="M 18.933594 27.0625 C 18.238281 26.53125 17.75 25.832031 17.496094 24.996094 C 17.246094 24.160156 17.273438 23.300781 17.574219 22.480469 C 17.871094 21.660156 18.402344 20.988281 19.132812 20.511719 C 19.863281 20.03125 20.691406 19.804688 21.5625 19.855469 C 22.394531 19.90625 23.160156 20.191406 23.816406 20.710938 C 24.46875 21.222656 24.933594 21.902344 25.171875 22.699219 C 25.410156 23.5 25.398438 24.320312 25.136719 25.113281 C 24.875 25.902344 24.398438 26.570312 23.726562 27.0625 L 38.015625 27.0625 L 38.019531 23.644531 C 37.992188 23.664062 37.917969 23.710938 37.890625 23.722656 C 37.71875 23.796875 37.480469 23.816406 37.296875 23.820312 L 25.972656 23.835938 C 25.945312 21.242188 23.804688 19.164062 21.203125 19.214844 C 18.691406 19.269531 16.667969 21.300781 16.628906 23.820312 L 14.132812 23.816406 L 14.109375 9.542969 C 14.125 9.347656 14.085938 9.152344 13.996094 8.976562 C 13.800781 8.601562 13.40625 8.378906 12.988281 8.402344 L 7.390625 8.390625 C 7.015625 8.367188 6.648438 8.511719 6.390625 8.78125 C 6.15625 9.03125 6.035156 9.367188 6.050781 9.707031 L 6.050781 23.800781 L 5.097656 23.800781 L 5.105469 27.042969 L 18.933594 27.0625 "/>
<path style=" stroke:none;fill-rule:nonzero;fill:rgb(100%,100%,100%);fill-opacity:1;" d="M 29.121094 14.21875 L 25.75 14.222656 C 25.523438 14.242188 25.296875 14.167969 25.125 14.011719 C 24.972656 13.875 24.878906 13.6875 24.851562 13.488281 L 24.855469 9.449219 C 24.824219 9.203125 24.898438 8.945312 25.058594 8.753906 C 25.242188 8.539062 25.511719 8.417969 25.789062 8.425781 L 33.054688 8.429688 C 33.339844 8.40625 33.613281 8.511719 33.8125 8.707031 C 34 8.894531 34.101562 9.148438 34.09375 9.410156 L 34.09375 13.457031 C 34.089844 13.691406 33.976562 13.910156 33.796875 14.058594 C 33.675781 14.15625 33.53125 14.214844 33.378906 14.226562 L 29.121094 14.21875 "/>
<path style=" stroke:none;fill-rule:nonzero;fill:rgb(13.729858%,12.159729%,12.548828%);fill-opacity:1;" d="M 6.921875 23.792969 L 6.914062 9.769531 C 6.890625 9.601562 6.957031 9.429688 7.082031 9.316406 C 7.183594 9.222656 7.316406 9.167969 7.460938 9.167969 L 12.695312 9.175781 C 12.898438 9.164062 13.09375 9.261719 13.207031 9.425781 C 13.28125 9.535156 13.316406 9.660156 13.3125 9.792969 L 13.273438 23.800781 L 6.921875 23.792969 "/>
<path style=" stroke:none;fill-rule:nonzero;fill:rgb(100%,100%,100%);fill-opacity:1;" d="M 7.855469 14.210938 L 7.859375 10.09375 L 12.386719 10.097656 L 12.378906 14.234375 L 7.855469 14.210938 "/>
</g>
</svg>
