<?xml version="1.0" encoding="UTF-8"?>
<svg xmlns="http://www.w3.org/2000/svg" xmlns:xlink="http://www.w3.org/1999/xlink" width="95pt" height="30pt" viewBox="0 0 95 30" version="1.1">
<g id="surface1">
<path style=" stroke:none;fill-rule:nonzero;fill:rgb(13.729858%,12.159729%,12.548828%);fill-opacity:1;" d="M 0.839844 29.34375 L 94.199219 29.34375 L 94.199219 23.722656 L 84.113281 23.722656 C 84.421875 23.425781 84.867188 23.003906 85.097656 22.648438 C 85.511719 22.066406 85.738281 21.390625 85.78125 20.667969 C 85.820312 20.035156 85.703125 19.394531 85.410156 18.828125 C 85.199219 18.421875 84.753906 17.898438 84.460938 17.550781 L 91.097656 17.550781 L 91.097656 14.210938 L 82.65625 14.210938 C 82.808594 14.074219 83.046875 13.902344 83.199219 13.742188 C 83.472656 13.476562 83.703125 13.167969 83.898438 12.835938 C 84.09375 12.503906 84.226562 12.152344 84.308594 11.808594 C 84.363281 11.589844 84.421875 11.300781 84.460938 11.109375 C 84.617188 11.109375 84.867188 11.128906 85.019531 11.109375 C 85.234375 11.074219 85.46875 11.007812 85.625 10.878906 C 85.761719 10.757812 85.855469 10.582031 85.914062 10.410156 C 85.976562 10.238281 85.992188 9.941406 85.992188 9.746094 L 85.992188 7.113281 C 85.992188 6.816406 85.933594 6.53125 85.839844 6.257812 C 85.738281 6.003906 85.589844 5.773438 85.371094 5.601562 C 85.144531 5.40625 84.847656 5.289062 84.558594 5.210938 C 84.308594 5.15625 83.78125 5.132812 83.53125 5.109375 L 76.234375 4.6875 L 72.492188 1 L 57.898438 1 L 54.851562 4.6875 L 50.390625 5.132812 C 50.179688 5.15625 49.964844 5.191406 49.746094 5.226562 C 49.539062 5.289062 49.324219 5.363281 49.128906 5.476562 C 48.917969 5.636719 48.761719 5.851562 48.644531 6.105469 C 48.53125 6.355469 48.472656 6.644531 48.453125 6.917969 L 48.21875 9.734375 C 48.199219 9.925781 48.199219 10.121094 48.21875 10.308594 C 48.21875 10.46875 48.257812 10.660156 48.351562 10.796875 C 48.453125 10.933594 48.601562 11.007812 48.761719 11.050781 C 48.917969 11.109375 49.171875 11.109375 49.34375 11.109375 L 51.476562 11.109375 C 51.519531 11.265625 51.53125 11.519531 51.578125 11.667969 C 51.667969 12.09375 51.828125 12.527344 52.035156 12.894531 C 52.273438 13.238281 52.539062 13.550781 52.871094 13.824219 C 53.007812 13.9375 53.238281 14.097656 53.398438 14.210938 L 42.164062 14.210938 C 42.359375 14.074219 42.625 13.84375 42.804688 13.6875 C 43.074219 13.417969 43.289062 13.125 43.460938 12.792969 C 43.621094 12.503906 43.757812 12.175781 43.835938 11.863281 C 43.894531 11.632812 43.953125 11.324219 43.964844 11.109375 C 44.066406 11.109375 44.203125 11.085938 44.296875 11.074219 C 44.535156 11.03125 44.742188 10.949219 44.917969 10.796875 C 45.054688 10.683594 45.152344 10.527344 45.210938 10.375 C 45.289062 10.15625 45.304688 9.863281 45.304688 9.632812 L 45.304688 7.148438 C 45.304688 6.839844 45.234375 6.507812 45.074219 6.21875 C 44.917969 5.96875 44.707031 5.753906 44.457031 5.613281 C 44.179688 5.464844 43.835938 5.363281 43.519531 5.328125 L 42.511719 5.246094 L 35.179688 4.6875 L 31.589844 1 L 16.902344 1 L 13.835938 4.6875 L 10.109375 5.246094 C 10.089844 5.246094 9.433594 5.347656 9.390625 5.347656 C 9.160156 5.382812 8.875 5.464844 8.65625 5.601562 C 8.441406 5.738281 8.289062 5.925781 8.175781 6.140625 C 8.050781 6.355469 7.996094 6.585938 7.957031 6.816406 L 7.589844 9.691406 C 7.570312 9.863281 7.546875 10.042969 7.546875 10.214844 C 7.546875 10.375 7.570312 10.605469 7.648438 10.742188 C 7.730469 10.855469 7.84375 10.949219 7.957031 11.007812 C 8.117188 11.074219 8.269531 11.109375 8.441406 11.109375 L 11.082031 11.109375 C 11.105469 11.265625 11.140625 11.476562 11.175781 11.632812 C 11.277344 12.058594 11.429688 12.46875 11.667969 12.835938 C 11.859375 13.183594 12.113281 13.476562 12.378906 13.742188 C 12.539062 13.902344 12.769531 14.074219 12.949219 14.210938 L 4.503906 14.210938 L 4.503906 17.550781 L 11.738281 17.550781 C 11.414062 17.917969 10.925781 18.460938 10.695312 18.871094 C 10.386719 19.410156 10.210938 20.035156 10.210938 20.65625 C 10.210938 21.332031 10.40625 21.996094 10.753906 22.554688 C 10.984375 22.925781 11.429688 23.40625 11.738281 23.722656 L 0.839844 23.722656 L 0.839844 29.34375 "/>
<path style=" stroke:none;fill-rule:nonzero;fill:rgb(100%,100%,100%);fill-opacity:1;" d="M 18.507812 11.117188 L 36.605469 11.117188 C 36.605469 11.265625 36.628906 11.503906 36.664062 11.675781 C 36.730469 12.089844 36.859375 12.492188 37.054688 12.859375 C 37.246094 13.210938 37.5 13.542969 37.832031 13.808594 C 38.003906 13.945312 38.300781 14.101562 38.492188 14.21875 L 16.546875 14.21875 C 16.742188 14.058594 17.015625 13.851562 17.1875 13.695312 C 17.476562 13.40625 17.730469 13.109375 17.945312 12.765625 C 18.160156 12.410156 18.3125 12.023438 18.414062 11.621094 C 18.449219 11.460938 18.484375 11.253906 18.507812 11.117188 "/>
<path style=" stroke:none;fill-rule:nonzero;fill:rgb(100%,100%,100%);fill-opacity:1;" d="M 58.78125 11.117188 L 76.984375 11.117188 C 77.007812 11.289062 77.023438 11.582031 77.042969 11.757812 C 77.101562 12.144531 77.257812 12.511719 77.429688 12.84375 C 77.605469 13.167969 77.835938 13.5 78.128906 13.75 C 78.300781 13.910156 78.613281 14.101562 78.804688 14.21875 L 57.019531 14.21875 C 57.175781 14.101562 57.40625 13.929688 57.558594 13.792969 C 57.855469 13.519531 58.085938 13.230469 58.300781 12.902344 C 58.53125 12.492188 58.667969 12.042969 58.746094 11.597656 C 58.769531 11.460938 58.78125 11.253906 58.78125 11.117188 "/>
<path style=" stroke:none;fill-rule:nonzero;fill:rgb(100%,100%,100%);fill-opacity:1;" d="M 16.261719 17.550781 L 20.175781 17.550781 C 19.925781 17.863281 19.578125 18.332031 19.386719 18.660156 C 19.03125 19.257812 18.78125 19.921875 18.765625 20.621094 C 18.742188 21.273438 18.917969 21.9375 19.246094 22.519531 C 19.464844 22.910156 19.890625 23.390625 20.175781 23.722656 L 16.261719 23.722656 C 16.546875 23.390625 16.957031 22.886719 17.175781 22.5 C 17.5 21.917969 17.691406 21.273438 17.679688 20.597656 C 17.679688 19.957031 17.464844 19.300781 17.132812 18.734375 C 16.921875 18.367188 16.535156 17.882812 16.261719 17.550781 "/>
<path style=" stroke:none;fill-rule:nonzero;fill:rgb(100%,100%,100%);fill-opacity:1;" d="M 76.113281 17.550781 L 79.9375 17.550781 C 79.664062 17.917969 79.261719 18.46875 79.066406 18.871094 C 78.792969 19.429688 78.632812 20.058594 78.65625 20.65625 C 78.691406 21.414062 78.945312 22.109375 79.390625 22.714844 C 79.628906 23.046875 80.050781 23.449219 80.339844 23.722656 L 76.113281 23.722656 C 76.421875 23.414062 76.871094 22.910156 77.101562 22.542969 C 77.429688 21.972656 77.589844 21.320312 77.589844 20.65625 C 77.589844 20.058594 77.488281 19.429688 77.203125 18.890625 C 76.96875 18.46875 76.46875 17.90625 76.113281 17.550781 "/>
<path style=" stroke:none;fill-rule:nonzero;fill:rgb(100%,100%,100%);fill-opacity:1;" d="M 24.621094 17.550781 L 71.492188 17.550781 C 71.222656 17.863281 70.835938 18.308594 70.640625 18.660156 C 70.289062 19.257812 70.09375 19.921875 70.082031 20.621094 C 70.058594 21.273438 70.195312 21.9375 70.527344 22.519531 C 70.734375 22.910156 71.179688 23.414062 71.492188 23.722656 L 24.621094 23.722656 C 24.894531 23.390625 25.316406 22.886719 25.535156 22.5 C 25.859375 21.917969 26.050781 21.273438 26.039062 20.597656 C 26.039062 19.941406 25.859375 19.300781 25.535156 18.734375 C 25.296875 18.367188 24.894531 17.882812 24.621094 17.550781 "/>
</g>
</svg>
