<?xml version="1.0" encoding="UTF-8"?>
<svg xmlns="http://www.w3.org/2000/svg" xmlns:xlink="http://www.w3.org/1999/xlink" width="83pt" height="30pt" viewBox="0 0 83 30" version="1.1">
<g id="surface1">
<path style=" stroke:none;fill-rule:nonzero;fill:rgb(13.729858%,12.159729%,12.548828%);fill-opacity:1;" d="M 82.871094 14.144531 C 82.734375 14.128906 82.746094 14.179688 82.394531 14.128906 C 81.695312 14.042969 81.0625 14.246094 80.429688 14.433594 C 79.59375 14.65625 78.679688 15.050781 77.910156 15.40625 C 77.363281 15.664062 76.824219 15.9375 76.3125 16.226562 C 76.222656 16.277344 76.066406 16.363281 75.988281 16.410156 L 77.414062 12.410156 L 73.421875 12.410156 C 73.558594 12.285156 73.769531 12.113281 73.90625 11.976562 C 74.144531 11.738281 74.34375 11.464844 74.519531 11.175781 C 74.691406 10.90625 74.804688 10.601562 74.894531 10.277344 C 74.945312 10.105469 74.980469 9.851562 75.015625 9.664062 C 75.152344 9.664062 75.367188 9.679688 75.527344 9.664062 C 75.691406 9.628906 75.902344 9.578125 76.050781 9.457031 C 76.171875 9.355469 76.253906 9.21875 76.3125 9.070312 C 76.359375 8.894531 76.359375 8.636719 76.359375 8.46875 L 76.359375 6.152344 C 76.359375 5.894531 76.324219 5.640625 76.222656 5.402344 C 76.140625 5.179688 76 4.972656 75.816406 4.820312 C 75.605469 4.648438 75.351562 4.546875 75.09375 4.496094 C 74.894531 4.445312 74.382812 4.410156 74.195312 4.394531 L 67.785156 4.019531 L 64.496094 0.78125 L 51.695312 0.78125 L 49 4.019531 L 45.097656 4.410156 C 44.910156 4.429688 44.703125 4.460938 44.515625 4.519531 C 44.351562 4.546875 44.140625 4.617188 43.988281 4.734375 C 43.800781 4.855469 43.652344 5.058594 43.566406 5.265625 C 43.464844 5.484375 43.394531 5.742188 43.378906 6 L 43.167969 8.449219 C 43.15625 8.621094 43.15625 8.808594 43.167969 8.980469 C 43.191406 9.117188 43.207031 9.285156 43.292969 9.394531 C 43.378906 9.507812 43.515625 9.578125 43.652344 9.628906 C 43.789062 9.664062 44.039062 9.664062 44.175781 9.664062 L 46.035156 9.664062 C 46.070312 9.816406 46.085938 10.019531 46.121094 10.15625 C 46.207031 10.550781 46.34375 10.90625 46.546875 11.25 C 46.734375 11.550781 46.96875 11.828125 47.257812 12.050781 C 47.382812 12.171875 47.582031 12.300781 47.71875 12.410156 L 37.855469 12.410156 C 38.023438 12.273438 38.257812 12.085938 38.417969 11.925781 C 38.65625 11.710938 38.84375 11.453125 38.992188 11.164062 C 39.128906 10.890625 39.253906 10.617188 39.316406 10.328125 C 39.367188 10.140625 39.417969 9.851562 39.453125 9.664062 C 39.539062 9.664062 39.664062 9.644531 39.726562 9.644531 C 39.929688 9.609375 40.125 9.53125 40.273438 9.40625 C 40.390625 9.304688 40.476562 9.167969 40.527344 9.019531 C 40.597656 8.824219 40.613281 8.585938 40.613281 8.382812 L 40.613281 6.203125 C 40.613281 5.914062 40.546875 5.621094 40.410156 5.382812 C 40.289062 5.164062 40.089844 4.972656 39.863281 4.84375 C 39.628906 4.707031 39.316406 4.632812 39.042969 4.582031 L 38.15625 4.53125 L 31.714844 4.019531 L 28.582031 0.78125 L 15.679688 0.78125 L 12.964844 4.019531 L 9.695312 4.519531 L 9.078125 4.597656 C 8.863281 4.648438 8.601562 4.707031 8.4375 4.820312 C 8.242188 4.941406 8.089844 5.109375 7.988281 5.316406 C 7.902344 5.503906 7.839844 5.691406 7.804688 5.914062 L 7.480469 8.433594 C 7.464844 8.570312 7.464844 8.742188 7.464844 8.882812 C 7.441406 9.03125 7.464844 9.21875 7.53125 9.34375 C 7.59375 9.441406 7.703125 9.53125 7.804688 9.578125 C 7.941406 9.644531 8.078125 9.664062 8.226562 9.664062 L 10.546875 9.664062 C 10.558594 9.796875 10.597656 9.984375 10.632812 10.121094 C 10.71875 10.5 10.855469 10.855469 11.058594 11.199219 C 11.230469 11.488281 11.453125 11.761719 11.691406 12 C 11.828125 12.113281 12.042969 12.285156 12.179688 12.410156 L 6.285156 12.410156 L 7.378906 15.988281 L 7.054688 15.835938 C 6.386719 15.492188 5.398438 15.015625 4.6875 14.757812 C 3.851562 14.453125 2.964844 14.230469 2.070312 14.164062 C 1.71875 14.144531 1.121094 14.144531 0.78125 14.144531 L 0.78125 18.816406 C 1.105469 18.796875 1.648438 18.816406 1.972656 18.832031 C 2.757812 18.867188 3.589844 19.121094 4.339844 19.414062 C 4.886719 19.632812 6.199219 20.265625 6.746094 20.523438 C 7.429688 20.863281 8.300781 21.25 9.027344 21.472656 C 9.796875 21.710938 10.597656 21.847656 11.417969 21.847656 C 12.230469 21.847656 13.066406 21.734375 13.871094 21.511719 C 14.722656 21.25 15.757812 20.789062 16.542969 20.414062 C 17.191406 20.113281 18.402344 19.53125 19.070312 19.328125 C 19.957031 19.039062 20.855469 18.882812 21.800781 18.882812 C 22.613281 18.867188 23.46875 18.96875 24.246094 19.207031 C 24.917969 19.429688 26.027344 19.976562 26.652344 20.300781 C 27.4375 20.6875 28.480469 21.1875 29.316406 21.4375 C 30.179688 21.710938 31.089844 21.847656 31.988281 21.847656 C 32.894531 21.847656 33.792969 21.710938 34.652344 21.410156 C 35.226562 21.222656 36.796875 20.414062 37.34375 20.140625 C 38.023438 19.804688 38.84375 19.429688 39.578125 19.226562 C 40.425781 18.96875 41.3125 18.867188 42.199219 18.882812 C 42.953125 18.882812 43.71875 18.980469 44.429688 19.207031 C 45.136719 19.414062 46.050781 19.875 46.699219 20.199219 C 47.332031 20.523438 48.351562 21.050781 49.015625 21.300781 C 49.835938 21.609375 50.722656 21.832031 51.59375 21.847656 C 52.445312 21.871094 53.316406 21.710938 54.136719 21.472656 C 54.914062 21.238281 55.785156 20.863281 56.519531 20.5 C 57.066406 20.25 58.425781 19.601562 58.988281 19.414062 C 59.960938 19.070312 60.96875 18.902344 61.976562 18.882812 C 62.824219 18.867188 63.695312 18.953125 64.511719 19.191406 C 65.210938 19.394531 66.203125 19.875 66.851562 20.199219 C 67.578125 20.574219 68.671875 21.101562 69.433594 21.359375 C 70.304688 21.644531 71.214844 21.832031 72.113281 21.847656 C 72.914062 21.871094 73.734375 21.761719 74.503906 21.546875 C 75.230469 21.359375 76.050781 21 76.75 20.6875 C 77.011719 20.574219 78.730469 19.769531 79.003906 19.667969 C 79.765625 19.363281 80.601562 19.105469 81.421875 18.980469 C 81.832031 18.933594 82.445312 18.902344 82.871094 18.882812 L 82.871094 14.144531 "/>
<path style=" stroke:none;fill-rule:nonzero;fill:rgb(13.729858%,12.159729%,12.548828%);fill-opacity:1;" d="M 82.871094 21.386719 C 82.734375 21.386719 82.53125 21.386719 82.394531 21.386719 C 81.761719 21.410156 81.046875 21.5625 80.429688 21.761719 C 79.582031 22.019531 78.710938 22.382812 77.910156 22.757812 C 77.484375 22.941406 75.828125 23.707031 75.390625 23.878906 C 74.46875 24.203125 73.496094 24.390625 72.523438 24.390625 C 71.753906 24.390625 70.976562 24.269531 70.21875 24.066406 C 69.523438 23.84375 68.65625 23.46875 67.972656 23.144531 C 67.339844 22.835938 65.980469 22.195312 65.292969 21.949219 C 64.359375 21.625 63.371094 21.425781 62.378906 21.410156 C 61.394531 21.410156 60.386719 21.609375 59.449219 21.917969 C 58.636719 22.171875 57.726562 22.546875 56.929688 22.921875 C 56.34375 23.195312 55 23.804688 54.402344 23.992188 C 53.515625 24.289062 52.582031 24.441406 51.644531 24.390625 C 50.910156 24.339844 50.160156 24.152344 49.460938 23.894531 C 48.742188 23.640625 47.90625 23.246094 47.230469 22.921875 C 46.648438 22.632812 45.523438 22.085938 44.910156 21.886719 C 44.027344 21.574219 43.105469 21.410156 42.148438 21.410156 C 41.226562 21.425781 40.289062 21.609375 39.402344 21.898438 C 38.667969 22.15625 37.546875 22.683594 36.847656 23.042969 C 36.199219 23.367188 35.242188 23.804688 34.53125 24.03125 C 33.730469 24.269531 32.894531 24.390625 32.039062 24.390625 C 31.203125 24.390625 30.390625 24.269531 29.582031 24.050781 C 28.785156 23.828125 27.933594 23.453125 27.183594 23.078125 C 26.652344 22.820312 25.070312 22.035156 24.507812 21.847656 C 23.585938 21.546875 22.613281 21.410156 21.640625 21.410156 C 20.855469 21.425781 20.058594 21.546875 19.292969 21.761719 C 18.488281 21.984375 17.539062 22.429688 16.789062 22.804688 C 16.15625 23.128906 14.894531 23.757812 14.226562 23.964844 C 13.390625 24.253906 12.503906 24.390625 11.617188 24.390625 C 10.835938 24.390625 10.035156 24.289062 9.273438 24.066406 C 8.625 23.863281 7.667969 23.402344 7.054688 23.09375 C 6.371094 22.757812 5.414062 22.273438 4.6875 22.019531 C 3.851562 21.710938 2.964844 21.488281 2.070312 21.425781 C 1.71875 21.410156 1.207031 21.410156 0.847656 21.410156 L 0.847656 26.074219 C 1.171875 26.0625 1.648438 26.074219 1.972656 26.097656 C 2.757812 26.125 3.589844 26.386719 4.339844 26.671875 C 4.886719 26.894531 6.199219 27.53125 6.746094 27.78125 C 7.429688 28.117188 8.300781 28.515625 9.027344 28.738281 C 9.796875 28.976562 10.597656 29.113281 11.417969 29.113281 C 12.230469 29.113281 13.066406 28.988281 13.871094 28.769531 C 14.722656 28.515625 15.757812 28.054688 16.542969 27.679688 C 17.191406 27.371094 18.402344 26.792969 19.070312 26.585938 C 19.957031 26.296875 20.855469 26.144531 21.800781 26.125 C 22.613281 26.125 23.46875 26.210938 24.246094 26.46875 C 24.917969 26.671875 26.039062 27.234375 26.652344 27.558594 C 27.460938 27.96875 28.460938 28.445312 29.316406 28.703125 C 30.179688 28.976562 31.089844 29.113281 31.988281 29.113281 C 32.894531 29.113281 33.792969 28.976562 34.652344 28.667969 C 35.226562 28.480469 36.796875 27.679688 37.34375 27.40625 C 38.023438 27.070312 38.84375 26.6875 39.578125 26.484375 C 40.425781 26.234375 41.3125 26.109375 42.199219 26.125 C 42.953125 26.144531 43.71875 26.246094 44.429688 26.46875 C 45.136719 26.671875 46.050781 27.132812 46.699219 27.457031 C 47.332031 27.78125 48.351562 28.304688 49.015625 28.566406 C 49.835938 28.875 50.722656 29.09375 51.59375 29.113281 C 52.445312 29.128906 53.316406 28.976562 54.136719 28.738281 C 54.914062 28.492188 55.785156 28.117188 56.519531 27.765625 C 57.082031 27.507812 58.425781 26.859375 58.988281 26.671875 C 59.960938 26.332031 60.96875 26.144531 61.976562 26.125 C 62.824219 26.109375 63.695312 26.210938 64.511719 26.449219 C 65.210938 26.65625 66.203125 27.132812 66.851562 27.457031 C 67.578125 27.816406 68.671875 28.363281 69.433594 28.617188 C 70.304688 28.90625 71.214844 29.09375 72.113281 29.113281 C 72.933594 29.128906 73.734375 29.027344 74.503906 28.804688 C 75.21875 28.617188 76.066406 28.257812 76.75 27.953125 C 77.109375 27.78125 78.628906 27.082031 79.003906 26.929688 C 79.765625 26.621094 80.601562 26.371094 81.421875 26.246094 C 81.832031 26.199219 82.445312 26.160156 82.871094 26.144531 L 82.871094 21.386719 "/>
<path style=" stroke:none;fill-rule:nonzero;fill:rgb(100%,100%,100%);fill-opacity:1;" d="M 52.480469 9.664062 L 68.449219 9.664062 C 68.464844 9.839844 68.484375 10.078125 68.519531 10.242188 C 68.570312 10.566406 68.6875 10.890625 68.84375 11.199219 C 68.996094 11.488281 69.199219 11.761719 69.457031 11.984375 C 69.621094 12.121094 69.882812 12.285156 70.070312 12.410156 L 50.910156 12.410156 C 51.046875 12.285156 51.246094 12.136719 51.386719 12.019531 C 51.621094 11.796875 51.867188 11.523438 52.03125 11.25 C 52.242188 10.890625 52.355469 10.5 52.429688 10.089844 C 52.445312 9.96875 52.457031 9.78125 52.480469 9.664062 "/>
<path style=" stroke:none;fill-rule:nonzero;fill:rgb(100%,100%,100%);fill-opacity:1;" d="M 17.078125 9.664062 L 32.980469 9.664062 C 32.996094 9.800781 32.996094 10.027344 33.03125 10.164062 C 33.082031 10.515625 33.199219 10.875 33.386719 11.199219 C 33.558594 11.523438 33.78125 11.8125 34.054688 12.035156 C 34.207031 12.148438 34.464844 12.308594 34.628906 12.410156 L 15.371094 12.410156 C 15.523438 12.273438 15.757812 12.085938 15.917969 11.933594 C 16.167969 11.695312 16.394531 11.421875 16.582031 11.128906 C 16.765625 10.804688 16.902344 10.464844 16.988281 10.105469 C 17.027344 9.988281 17.054688 9.800781 17.078125 9.664062 "/>
</g>
</svg>
