<?xml version="1.0" encoding="UTF-8"?>
<svg xmlns="http://www.w3.org/2000/svg" xmlns:xlink="http://www.w3.org/1999/xlink" width="29pt" height="29pt" viewBox="0 0 29 29" version="1.1">
<g id="surface1">
<path style=" stroke:none;fill-rule:nonzero;fill:rgb(13.729858%,12.159729%,12.548828%);fill-opacity:1;" d="M 21.484375 20.347656 L 14.792969 16.484375 L 14.792969 20.050781 C 14.792969 20.238281 14.640625 20.394531 14.449219 20.394531 C 14.386719 20.394531 14.328125 20.375 14.277344 20.347656 L 7.585938 16.484375 L 7.585938 20.050781 C 7.585938 20.238281 7.429688 20.394531 7.242188 20.394531 C 7.179688 20.394531 7.121094 20.375 7.070312 20.347656 L 0.359375 16.5 L 0.359375 28.34375 L 28.675781 28.34375 L 28.679688 20.347656 L 21.984375 16.484375 L 21.984375 20.050781 C 21.984375 20.238281 21.832031 20.394531 21.640625 20.394531 C 21.578125 20.394531 21.535156 20.378906 21.484375 20.347656 "/>
<path style=" stroke:none;fill-rule:nonzero;fill:rgb(13.729858%,12.159729%,12.548828%);fill-opacity:1;" d="M 20.269531 18.660156 L 19.703125 2.226562 L 18.128906 2.242188 L 17.351562 16.980469 L 20.269531 18.660156 "/>
<path style=" stroke:none;fill-rule:nonzero;fill:rgb(13.729858%,12.159729%,12.548828%);fill-opacity:1;" d="M 12.542969 18.347656 L 11.980469 0.00390625 L 10.398438 0.00390625 L 9.625 16.671875 L 12.542969 18.347656 "/>
<path style=" stroke:none;fill-rule:nonzero;fill:rgb(100%,100%,100%);fill-opacity:1;" d="M 2.929688 25.75 L 8.9375 25.75 L 8.9375 23.171875 L 2.929688 23.171875 Z M 2.929688 25.75 "/>
<path style=" stroke:none;fill-rule:nonzero;fill:rgb(100%,100%,100%);fill-opacity:1;" d="M 17.527344 23.175781 L 11.519531 23.171875 L 11.519531 25.75 L 17.527344 25.75 L 17.527344 23.175781 "/>
<path style=" stroke:none;fill-rule:nonzero;fill:rgb(100%,100%,100%);fill-opacity:1;" d="M 26.109375 23.171875 L 26.109375 25.75 L 20.101562 25.75 L 20.101562 23.175781 L 26.109375 23.171875 "/>
</g>
</svg>
