<?xml version="1.0" encoding="UTF-8"?>
<svg xmlns="http://www.w3.org/2000/svg" xmlns:xlink="http://www.w3.org/1999/xlink" width="121pt" height="106pt" viewBox="0 0 121 106" version="1.1">
<g id="surface1">
<path style=" stroke:none;fill-rule:nonzero;fill:rgb(93.527222%,17.272949%,18.882751%);fill-opacity:1;" d="M 5.210938 105.527344 L 115.585938 105.527344 C 119.40625 105.527344 121.792969 101.394531 119.886719 98.085938 L 64.695312 2.496094 C 62.785156 -0.8125 58.011719 -0.8125 56.101562 2.496094 L 0.910156 98.085938 C -0.996094 101.394531 1.390625 105.527344 5.210938 105.527344 "/>
<path style=" stroke:none;fill-rule:nonzero;fill:rgb(100%,100%,100%);fill-opacity:1;" d="M 13.800781 95.605469 L 106.996094 95.605469 L 60.398438 14.902344 L 13.800781 95.605469 "/>
<path style=" stroke:none;fill-rule:nonzero;fill:rgb(13.729858%,12.159729%,12.548828%);fill-opacity:1;" d="M 44.113281 89.921875 L 44.101562 67.785156 C 44.101562 67.371094 44.136719 66.953125 44.214844 66.546875 C 44.289062 66.140625 44.398438 65.726562 44.542969 65.34375 C 44.667969 65.03125 44.8125 64.695312 44.980469 64.402344 C 45.144531 64.117188 45.347656 63.800781 45.550781 63.546875 L 49.421875 58.574219 C 49.492188 58.492188 49.5625 58.382812 49.621094 58.289062 C 49.675781 58.199219 49.734375 58.082031 49.78125 57.984375 C 49.867188 57.796875 49.929688 57.59375 49.972656 57.398438 C 50.019531 57.195312 50.039062 56.988281 50.039062 56.78125 L 50.046875 42.539062 L 57.980469 42.445312 L 57.988281 57.609375 C 57.988281 58.039062 57.96875 58.46875 57.917969 58.898438 C 57.878906 59.277344 57.816406 59.660156 57.726562 60.03125 C 57.648438 60.363281 57.53125 60.699219 57.382812 61.007812 C 57.222656 61.324219 57.03125 61.648438 56.808594 61.921875 L 52.34375 67.609375 C 52.28125 67.6875 52.21875 67.785156 52.167969 67.867188 C 52.113281 67.953125 52.070312 68.054688 52.03125 68.148438 C 51.933594 68.394531 51.886719 68.671875 51.886719 68.933594 L 51.863281 89.902344 L 44.113281 89.921875 "/>
<path style=" stroke:none;fill-rule:nonzero;fill:rgb(13.729858%,12.159729%,12.548828%);fill-opacity:1;" d="M 76.648438 89.859375 L 76.699219 67.757812 C 76.699219 67.339844 76.667969 66.917969 76.589844 66.511719 C 76.511719 66.101562 76.40625 65.6875 76.257812 65.304688 C 76.132812 64.988281 75.984375 64.65625 75.820312 64.363281 C 75.65625 64.078125 75.453125 63.761719 75.25 63.503906 L 71.414062 58.582031 C 71.34375 58.492188 71.261719 58.371094 71.199219 58.273438 C 71.136719 58.175781 71.074219 58.050781 71.023438 57.945312 C 70.90625 57.714844 70.828125 57.464844 70.769531 57.214844 C 70.714844 56.960938 70.6875 56.703125 70.6875 56.445312 L 70.753906 42.496094 L 62.800781 42.472656 L 62.816406 57.566406 C 62.816406 58 62.835938 58.429688 62.882812 58.863281 C 62.925781 59.238281 62.988281 59.617188 63.074219 59.984375 C 63.152344 60.320312 63.265625 60.660156 63.417969 60.964844 C 63.578125 61.28125 63.773438 61.609375 63.992188 61.882812 L 68.449219 67.554688 C 68.511719 67.632812 68.574219 67.730469 68.628906 67.820312 C 68.679688 67.90625 68.726562 68.011719 68.769531 68.109375 C 68.878906 68.375 68.933594 68.683594 68.933594 68.96875 L 68.9375 89.863281 L 76.648438 89.859375 "/>
</g>
</svg>
