<?xml version="1.0" encoding="UTF-8"?>
<svg xmlns="http://www.w3.org/2000/svg" xmlns:xlink="http://www.w3.org/1999/xlink" width="121pt" height="106pt" viewBox="0 0 121 106" version="1.1">
<g id="surface1">
<path style=" stroke:none;fill-rule:nonzero;fill:rgb(93.527222%,17.272949%,18.882751%);fill-opacity:1;" d="M 5.402344 105.527344 L 115.777344 105.527344 C 119.597656 105.527344 121.984375 101.394531 120.078125 98.085938 L 64.886719 2.496094 C 62.976562 -0.8125 58.203125 -0.8125 56.296875 2.496094 L 1.105469 98.085938 C -0.804688 101.394531 1.582031 105.527344 5.402344 105.527344 "/>
<path style=" stroke:none;fill-rule:nonzero;fill:rgb(100%,100%,100%);fill-opacity:1;" d="M 13.992188 95.605469 L 107.1875 95.605469 L 60.589844 14.902344 L 13.992188 95.605469 "/>
<path style=" stroke:none;fill-rule:nonzero;fill:rgb(13.729858%,12.159729%,12.548828%);fill-opacity:1;" d="M 107.1875 95.605469 L 37.289062 55.253906 L 13.992188 95.605469 L 107.1875 95.605469 "/>
<path style=" stroke:none;fill-rule:nonzero;fill:rgb(13.729858%,12.159729%,12.548828%);fill-opacity:1;" d="M 46.875 56.714844 L 49.019531 57.953125 L 57.167969 43.835938 L 55.285156 42.75 L 50.472656 43.800781 L 50.648438 45.925781 L 53.574219 45.101562 L 46.875 56.714844 "/>
<path style=" stroke:none;fill-rule:nonzero;fill:rgb(13.729858%,12.159729%,12.548828%);fill-opacity:1;" d="M 53.5625 58.042969 C 53.539062 58.890625 53.6875 59.652344 54.023438 60.328125 C 54.363281 61.007812 54.902344 61.558594 55.691406 62.015625 C 56.484375 62.46875 57.25 62.679688 58.015625 62.609375 C 58.773438 62.558594 59.511719 62.3125 60.230469 61.863281 C 60.949219 61.414062 61.636719 60.785156 62.28125 59.996094 C 62.917969 59.210938 63.550781 58.308594 64.144531 57.277344 C 64.742188 56.246094 65.210938 55.246094 65.582031 54.277344 C 65.945312 53.328125 66.144531 52.414062 66.171875 51.570312 C 66.203125 50.722656 66.046875 49.960938 65.722656 49.261719 C 65.390625 48.585938 64.828125 48.015625 64.035156 47.5625 C 63.246094 47.105469 62.476562 46.90625 61.71875 46.953125 C 60.953125 47.019531 60.238281 47.28125 59.519531 47.726562 C 58.800781 48.179688 58.113281 48.804688 57.472656 49.597656 C 56.816406 50.398438 56.1875 51.304688 55.59375 52.339844 C 54.996094 53.367188 54.527344 54.363281 54.167969 55.316406 C 53.792969 56.289062 53.597656 57.195312 53.5625 58.042969 "/>
<path style=" stroke:none;fill-rule:nonzero;fill:rgb(13.729858%,12.159729%,12.548828%);fill-opacity:1;" d="M 70.257812 62.804688 C 71.046875 63.261719 71.828125 63.339844 72.601562 63.011719 C 73.378906 62.6875 74.074219 61.960938 74.734375 60.820312 C 75.394531 59.675781 75.664062 58.679688 75.558594 57.847656 C 75.457031 57.011719 75.003906 56.378906 74.222656 55.929688 C 73.433594 55.476562 72.675781 55.410156 71.902344 55.734375 C 71.128906 56.0625 70.402344 56.792969 69.742188 57.933594 C 69.082031 59.078125 68.820312 60.054688 68.925781 60.890625 C 69.03125 61.722656 69.480469 62.359375 70.257812 62.804688 "/>
<path style=" stroke:none;fill-rule:nonzero;fill:rgb(13.729858%,12.159729%,12.548828%);fill-opacity:1;" d="M 67.117188 69.171875 L 68.371094 69.898438 L 81.671875 59.644531 L 80.421875 58.925781 L 67.117188 69.171875 "/>
<path style=" stroke:none;fill-rule:nonzero;fill:rgb(13.729858%,12.159729%,12.548828%);fill-opacity:1;" d="M 74.011719 68 C 73.351562 69.140625 73.09375 70.117188 73.199219 70.949219 C 73.300781 71.78125 73.761719 72.421875 74.53125 72.867188 C 75.324219 73.324219 76.097656 73.402344 76.875 73.074219 C 77.648438 72.746094 78.347656 72.023438 79.007812 70.882812 C 79.667969 69.738281 79.933594 68.746094 79.828125 67.910156 C 79.722656 67.074219 79.273438 66.4375 78.5 65.992188 C 77.710938 65.535156 76.949219 65.46875 76.171875 65.800781 C 75.398438 66.125 74.671875 66.855469 74.011719 68 "/>
<path style=" stroke:none;fill-rule:nonzero;fill:rgb(100%,100%,100%);fill-opacity:1;" d="M 55.84375 57.925781 C 56.085938 56.804688 56.71875 55.335938 57.734375 53.574219 C 58.75 51.816406 59.710938 50.53125 60.570312 49.738281 C 61.4375 48.945312 62.28125 48.78125 63.066406 49.238281 C 63.882812 49.707031 64.160156 50.519531 63.921875 51.644531 C 63.660156 52.789062 63.03125 54.257812 62.003906 56.039062 C 60.988281 57.796875 60.03125 59.078125 59.179688 59.855469 C 58.296875 60.636719 57.449219 60.796875 56.660156 60.34375 C 55.871094 59.886719 55.585938 59.074219 55.84375 57.925781 "/>
<path style=" stroke:none;fill-rule:nonzero;fill:rgb(100%,100%,100%);fill-opacity:1;" d="M 70.914062 61.664062 C 70.546875 61.453125 70.378906 61.09375 70.414062 60.621094 C 70.453125 60.152344 70.691406 59.539062 71.148438 58.746094 C 72.03125 57.21875 72.84375 56.65625 73.566406 57.070312 C 74.289062 57.488281 74.210938 58.476562 73.328125 60.003906 C 72.871094 60.796875 72.457031 61.3125 72.070312 61.578125 C 71.679688 61.84375 71.285156 61.875 70.914062 61.664062 "/>
<path style=" stroke:none;fill-rule:nonzero;fill:rgb(100%,100%,100%);fill-opacity:1;" d="M 74.6875 70.691406 C 74.722656 70.214844 74.960938 69.601562 75.417969 68.808594 C 76.300781 67.28125 77.117188 66.722656 77.839844 67.136719 C 78.558594 67.554688 78.480469 68.539062 77.601562 70.070312 C 77.144531 70.863281 76.730469 71.371094 76.339844 71.644531 C 75.953125 71.910156 75.558594 71.9375 75.1875 71.726562 C 74.820312 71.515625 74.648438 71.15625 74.6875 70.691406 "/>
</g>
</svg>
