<?xml version="1.0" encoding="UTF-8"?>
<svg xmlns="http://www.w3.org/2000/svg" xmlns:xlink="http://www.w3.org/1999/xlink" width="121pt" height="106pt" viewBox="0 0 121 106" version="1.1">
<g id="surface1">
<path style=" stroke:none;fill-rule:nonzero;fill:rgb(93.527222%,17.272949%,18.882751%);fill-opacity:1;" d="M 5.210938 105.527344 L 115.589844 105.527344 C 119.40625 105.527344 121.792969 101.394531 119.886719 98.085938 L 64.695312 2.496094 C 62.785156 -0.808594 58.011719 -0.808594 56.105469 2.496094 L 0.914062 98.085938 C -0.996094 101.394531 1.390625 105.527344 5.210938 105.527344 "/>
<path style=" stroke:none;fill-rule:nonzero;fill:rgb(100%,100%,100%);fill-opacity:1;" d="M 13.800781 95.605469 L 106.996094 95.605469 L 60.398438 14.902344 L 13.800781 95.605469 "/>
<path style=" stroke:none;fill-rule:nonzero;fill:rgb(13.729858%,12.159729%,12.548828%);fill-opacity:1;" d="M 45.417969 60.761719 C 45.324219 60.761719 45.222656 60.761719 45.121094 60.761719 C 45.121094 60.761719 44.722656 60.761719 44.824219 60.363281 C 44.824219 60.167969 45.121094 60.066406 45.222656 60.066406 L 45.417969 60.066406 C 45.621094 59.671875 45.917969 59.273438 46.117188 59.078125 C 46.417969 58.777344 46.714844 58.578125 47.015625 58.382812 C 48.109375 57.886719 48.707031 57.886719 49.203125 57.886719 C 49.203125 57.886719 49.203125 56.992188 49.699219 56.398438 C 49.800781 56.199219 50 55.902344 50.699219 55.605469 C 50.894531 55.503906 51.492188 55.503906 51.492188 55.503906 L 51.792969 54.714844 C 51.988281 54.113281 52.6875 53.125 53.382812 52.925781 C 53.882812 52.730469 54.378906 52.628906 54.476562 52.628906 C 54.476562 52.53125 54.28125 51.933594 54.28125 51.539062 C 54.28125 51.039062 54.378906 50.644531 54.476562 50.347656 C 54.679688 49.949219 55.074219 49.355469 55.472656 49.058594 C 55.875 48.761719 56.46875 48.566406 56.96875 48.660156 C 57.363281 48.761719 57.664062 48.859375 57.960938 48.960938 C 57.960938 48.960938 57.960938 48.164062 58.0625 47.871094 C 58.261719 47.074219 58.757812 46.28125 59.652344 45.785156 C 60.351562 45.390625 61.746094 45.089844 62.839844 45.292969 C 64.035156 45.488281 64.832031 46.085938 65.53125 46.976562 C 65.828125 47.472656 66.128906 48.066406 66.222656 48.566406 C 66.324219 49.058594 66.421875 49.554688 66.324219 50.050781 C 66.324219 50.347656 66.027344 51.238281 65.925781 51.339844 C 65.925781 51.339844 66.421875 51.640625 66.625 52.230469 C 66.921875 53.523438 66.128906 54.3125 65.726562 54.714844 C 65.429688 54.910156 64.929688 55.207031 64.234375 55.207031 C 64.136719 55.207031 63.734375 55.109375 63.636719 55.109375 C 63.636719 55.207031 63.4375 55.503906 63.335938 55.605469 C 63.039062 55.902344 62.441406 56.097656 61.945312 56.097656 C 61.644531 56.003906 61.445312 56.003906 61.148438 55.703125 C 61.148438 56.097656 59.855469 56.695312 59.054688 56.296875 L 58.460938 56.003906 C 58.460938 56.097656 57.863281 56.5 57.464844 56.59375 C 56.96875 56.695312 55.875 56.296875 55.773438 56.296875 C 55.773438 56.398438 55.472656 56.894531 55.277344 57.191406 C 54.777344 57.886719 54.179688 58.476562 53.382812 59.171875 C 52.484375 59.96875 51.390625 60.460938 50.496094 60.863281 L 49.203125 61.257812 L 49.203125 65.917969 L 53.679688 65.917969 L 53.679688 63.835938 C 53.679688 62.644531 54.578125 61.652344 55.773438 61.652344 C 56.867188 61.652344 57.960938 62.644531 57.960938 63.835938 L 57.960938 65.917969 L 63.039062 65.917969 L 63.039062 65.226562 L 62.441406 65.226562 L 62.441406 63.835938 L 63.039062 63.835938 L 63.039062 63.042969 L 64.429688 63.042969 L 64.429688 63.835938 L 65.128906 63.835938 L 65.128906 65.226562 L 64.429688 65.226562 L 64.429688 65.917969 L 69.511719 65.917969 L 69.511719 60.066406 L 74.1875 60.066406 L 74.1875 61.257812 L 70.804688 61.257812 L 70.804688 65.917969 L 73.589844 65.917969 L 73.589844 72.761719 L 76.875 72.761719 L 76.875 67.605469 L 75.484375 67.605469 L 75.484375 65.917969 L 78.570312 65.917969 L 78.570312 72.761719 L 79.5625 72.761719 L 79.5625 74.742188 L 80.660156 74.742188 L 80.660156 75.636719 L 81.753906 75.636719 C 81.753906 75.636719 81.753906 75.238281 81.753906 75.042969 C 81.753906 74.84375 81.753906 74.742188 81.652344 74.546875 C 81.550781 74.25 81.355469 73.953125 81.355469 73.851562 C 81.457031 73.953125 82.054688 74.25 82.351562 74.742188 C 82.550781 75.144531 82.746094 75.835938 82.746094 76.429688 C 82.746094 77.125 82.449219 77.621094 82.152344 77.917969 C 81.851562 78.21875 81.457031 78.414062 81.253906 78.511719 C 81.253906 78.511719 81.355469 78.316406 81.457031 78.117188 C 81.550781 77.917969 81.652344 77.71875 81.652344 77.621094 C 81.753906 77.324219 81.753906 76.925781 81.753906 76.828125 L 80.660156 76.828125 L 80.660156 77.917969 L 77.96875 77.917969 C 78.070312 78.21875 78.269531 78.613281 78.269531 78.910156 C 78.371094 79.308594 78.269531 79.800781 78.167969 80.296875 C 77.96875 80.890625 77.671875 81.488281 77.273438 81.886719 C 76.875 82.382812 76.476562 82.875 75.878906 82.875 L 84.140625 82.875 L 84.140625 84.265625 L 36.660156 84.265625 L 36.660156 82.875 L 44.921875 82.875 C 44.523438 82.875 43.925781 82.382812 43.53125 81.984375 C 43.128906 81.585938 42.933594 81.191406 42.734375 80.597656 C 42.53125 80 42.433594 78.910156 42.632812 78.316406 C 42.632812 78.117188 42.734375 78.015625 42.734375 77.917969 L 40.144531 77.917969 L 40.144531 76.828125 L 39.148438 76.828125 C 39.148438 77.125 39.148438 77.324219 39.148438 77.523438 C 39.148438 77.71875 39.148438 77.816406 39.25 78.117188 C 39.351562 78.316406 39.449219 78.511719 39.449219 78.511719 C 39.449219 78.511719 38.949219 78.316406 38.753906 78.117188 C 38.550781 77.917969 38.351562 77.621094 38.253906 77.324219 C 38.15625 77.027344 38.054688 76.332031 38.054688 75.933594 C 38.054688 75.636719 38.15625 75.144531 38.253906 74.941406 C 38.351562 74.742188 38.652344 74.347656 38.847656 74.25 C 39.050781 74.050781 39.25 74.050781 39.546875 73.953125 C 39.546875 73.953125 39.449219 74.050781 39.351562 74.25 C 39.25 74.347656 39.148438 74.644531 39.148438 74.84375 C 39.148438 75.042969 39.148438 75.339844 39.148438 75.636719 L 40.144531 75.636719 L 40.144531 74.742188 L 42.035156 74.742188 L 42.035156 65.917969 L 45.417969 65.917969 L 45.417969 60.761719 "/>
<path style=" stroke:none;fill-rule:nonzero;fill:rgb(100%,100%,100%);fill-opacity:1;" d="M 52.082031 77.820312 C 52.082031 77.921875 51.585938 78.515625 51.585938 79.507812 C 51.585938 80.300781 52.183594 81.394531 52.78125 81.988281 C 53.175781 82.382812 53.675781 82.878906 54.175781 82.878906 L 48.101562 82.878906 C 48.300781 82.878906 49.296875 82.183594 49.496094 81.890625 C 49.792969 81.589844 50.09375 81.195312 50.289062 80.792969 C 50.589844 80.203125 50.789062 79.210938 50.589844 78.515625 C 50.589844 78.320312 50.390625 78.019531 50.289062 77.820312 L 52.082031 77.820312 "/>
<path style=" stroke:none;fill-rule:nonzero;fill:rgb(100%,100%,100%);fill-opacity:1;" d="M 61.34375 77.820312 C 61.242188 77.921875 60.941406 78.714844 60.941406 79.210938 C 60.941406 79.703125 61.042969 80.203125 61.242188 80.597656 C 61.34375 80.996094 61.742188 81.6875 62.039062 81.988281 C 62.339844 82.285156 63.035156 82.878906 63.332031 82.878906 L 57.359375 82.878906 C 58.058594 82.878906 58.753906 82.085938 59.152344 81.488281 C 59.25 81.195312 59.453125 80.894531 59.550781 80.5 C 59.75 80.105469 59.75 79.605469 59.75 79.210938 C 59.75 78.414062 59.550781 78.121094 59.550781 77.820312 L 61.34375 77.820312 "/>
<path style=" stroke:none;fill-rule:nonzero;fill:rgb(100%,100%,100%);fill-opacity:1;" d="M 70.5 77.820312 C 70.5 77.921875 70.398438 78.121094 70.300781 78.320312 C 70.203125 78.816406 70.203125 79.507812 70.300781 80.003906 C 70.398438 80.5 70.597656 80.996094 70.898438 81.488281 C 71.296875 82.085938 72.09375 82.878906 72.691406 82.878906 L 66.71875 82.878906 C 66.816406 82.777344 67.714844 82.285156 68.011719 81.988281 C 68.410156 81.488281 68.808594 80.792969 68.90625 80.203125 C 69.105469 79.605469 69.105469 78.910156 68.90625 78.320312 C 68.90625 78.21875 68.808594 77.921875 68.707031 77.820312 L 70.5 77.820312 "/>
</g>
</svg>
