<?xml version="1.0" encoding="UTF-8"?>
<svg xmlns="http://www.w3.org/2000/svg" xmlns:xlink="http://www.w3.org/1999/xlink" width="121pt" height="106pt" viewBox="0 0 121 106" version="1.1">
<g id="surface1">
<path style=" stroke:none;fill-rule:nonzero;fill:rgb(93.527222%,17.272949%,18.882751%);fill-opacity:1;" d="M 5.402344 105.527344 L 115.777344 105.527344 C 119.597656 105.527344 121.984375 101.394531 120.078125 98.085938 L 64.886719 2.496094 C 62.976562 -0.808594 58.203125 -0.808594 56.296875 2.496094 L 1.105469 98.085938 C -0.804688 101.394531 1.582031 105.527344 5.402344 105.527344 "/>
<path style=" stroke:none;fill-rule:nonzero;fill:rgb(100%,100%,100%);fill-opacity:1;" d="M 13.992188 95.605469 L 107.1875 95.605469 L 60.589844 14.902344 L 13.992188 95.605469 "/>
<path style=" stroke:none;fill-rule:nonzero;fill:rgb(13.729858%,12.159729%,12.548828%);fill-opacity:1;" d="M 75.160156 61.570312 C 75.058594 61.613281 75.046875 61.578125 74.988281 61.488281 C 74.984375 61.484375 74.957031 61.417969 74.90625 61.292969 C 74.816406 61.074219 74.683594 60.914062 74.515625 60.8125 L 74.367188 60.730469 L 74.347656 60.582031 C 74.320312 60.417969 73.945312 59.363281 73.65625 58.453125 C 73.234375 57.148438 72.816406 56.269531 72.414062 55.890625 C 72.21875 55.703125 72.121094 55.617188 71.328125 55.292969 L 68.984375 54.457031 C 68.820312 54.410156 67.890625 54.328125 67.753906 54.296875 L 67.367188 54.203125 C 67.351562 54.183594 67.226562 53.699219 67.199219 53.476562 C 67.128906 52.933594 67.222656 52.625 67.390625 52.226562 C 67.6875 51.539062 67.738281 51.347656 67.722656 50.574219 C 67.710938 49.789062 67.109375 48.507812 66.382812 48.164062 C 65.59375 47.789062 64.523438 48.015625 63.582031 48.582031 C 63.144531 48.84375 62.785156 49.109375 62.464844 49.507812 C 62.179688 49.859375 62.0625 50.21875 62.113281 50.589844 C 62.128906 50.714844 62.210938 51.023438 62.351562 51.519531 C 62.425781 51.777344 62.449219 52.023438 62.425781 52.257812 C 62.378906 52.644531 62.375 52.894531 62.410156 52.996094 C 62.429688 53.007812 62.496094 53.03125 62.601562 53.074219 C 62.730469 53.117188 62.816406 53.171875 62.859375 53.238281 L 62.917969 53.328125 C 62.929688 53.347656 62.957031 53.367188 63 53.390625 L 63.15625 53.515625 C 63.136719 53.589844 63.15625 53.695312 63.214844 53.820312 C 63.25 53.90625 63.292969 54.039062 63.335938 54.226562 C 63.398438 54.484375 63.484375 54.625 63.597656 54.65625 C 63.617188 54.660156 63.722656 54.65625 63.910156 54.648438 C 64.085938 54.644531 64.207031 54.691406 64.273438 54.789062 C 64.242188 54.804688 64.214844 54.816406 64.179688 54.824219 C 63.808594 54.941406 63.480469 55.125 63.191406 55.371094 C 62.757812 55.746094 62.339844 56.195312 61.898438 57.761719 C 61.648438 58.648438 61.46875 59.519531 61.363281 60.375 C 61.355469 60.445312 61.210938 60.441406 59.34375 59.5625 C 59.171875 59.484375 59.03125 59.382812 58.921875 59.261719 L 58.714844 59.023438 C 58.703125 59.011719 58.261719 58.53125 58.210938 58.488281 C 58.097656 58.382812 57.945312 58.304688 57.753906 58.269531 C 57.589844 58.234375 57.429688 58.175781 57.269531 58.089844 L 57.085938 57.992188 C 57.003906 57.945312 56.902344 57.972656 56.882812 57.992188 L 56.722656 58.125 L 56.617188 58.117188 C 56.523438 58.113281 56.460938 58.136719 56.433594 58.183594 L 56.335938 58.371094 L 56.203125 58.527344 C 56.195312 58.542969 56.195312 58.613281 56.207031 58.742188 L 56.199219 58.949219 C 56.1875 59.042969 56.3125 59.203125 56.582031 59.433594 C 56.84375 59.664062 56.859375 59.84375 56.96875 59.917969 C 57.089844 60.003906 57.300781 60.121094 57.59375 60.269531 C 58.070312 60.507812 58.433594 60.769531 58.6875 61.054688 C 59.171875 61.597656 59.457031 61.90625 59.53125 61.980469 C 59.636719 62.082031 59.765625 62.199219 59.925781 62.324219 C 61.125 63.308594 61.316406 63.40625 61.75 63.464844 C 62.179688 63.523438 62.519531 63.332031 62.773438 62.894531 C 63.027344 62.441406 63.207031 61.796875 63.332031 61.527344 C 63.351562 61.558594 63.433594 61.753906 63.582031 62.113281 C 63.738281 62.511719 64.421875 63.40625 64.398438 63.585938 C 64.398438 63.597656 63.410156 66.003906 62.214844 68.433594 C 62.015625 68.839844 62.027344 69.121094 62.074219 69.367188 C 62.121094 69.597656 62.507812 69.808594 62.550781 69.902344 C 62.585938 69.980469 62.496094 70.1875 62.445312 70.28125 C 61.882812 71.28125 61.601562 72.109375 61.601562 72.777344 C 61.601562 72.988281 61.621094 73.164062 61.660156 73.308594 C 61.722656 73.542969 61.914062 74.117188 62.238281 75.023438 C 62.53125 75.847656 63.261719 78.132812 63.316406 79.039062 C 63.34375 79.472656 63.347656 79.757812 63.324219 79.890625 C 63.246094 80.378906 62.816406 80.984375 62.0625 81.304688 C 61.171875 81.683594 60.992188 81.84375 60.902344 82.226562 C 60.878906 82.304688 60.847656 82.535156 60.847656 82.539062 C 60.652344 82.589844 45.933594 82.699219 45.898438 82.617188 C 45.898438 82.613281 45.90625 82.199219 45.878906 81.558594 C 45.859375 81.132812 45.996094 80.738281 46.28125 80.261719 C 47.84375 77.613281 47.902344 77.664062 48.097656 77.027344 C 48.179688 76.769531 48.246094 76.605469 48.300781 76.542969 C 48.488281 76.476562 49.097656 76.613281 49.953125 76.585938 C 51.148438 76.542969 52.320312 76.324219 52.535156 76.332031 C 52.546875 76.332031 52.621094 76.40625 52.761719 76.542969 C 53.160156 76.945312 53.507812 77.003906 54.0625 77.09375 C 54.660156 77.183594 55.386719 77.199219 56.238281 77.140625 C 56.765625 77.101562 57.285156 77.132812 57.792969 77.238281 C 57.945312 77.265625 58.042969 77.292969 58.089844 77.320312 C 58.515625 77.546875 58.84375 78.046875 58.933594 78.59375 C 58.945312 78.675781 58.980469 78.996094 59.039062 79.550781 C 59.070312 79.808594 59.113281 79.976562 59.179688 80.058594 C 59.253906 80.152344 59.378906 80.199219 59.554688 80.203125 C 60.082031 80.203125 60.183594 80.121094 60.21875 79.757812 C 60.238281 79.601562 60.273438 79.355469 60.328125 79.023438 C 60.390625 78.65625 60.351562 77.996094 60.230469 77.519531 L 60.566406 77.503906 C 60.632812 77.476562 60.726562 76.476562 60.644531 76.207031 C 60.597656 76.054688 60.457031 75.980469 60.222656 75.980469 L 59.496094 75.96875 C 58.804688 75.824219 58.53125 75.710938 57.738281 75.375 L 56.183594 74.800781 C 55.90625 74.714844 55.890625 74.652344 55.859375 74.453125 C 55.851562 74.402344 55.792969 74.210938 55.511719 72.777344 C 55.214844 71.261719 54.367188 69.28125 53.847656 68.660156 L 53.785156 68.265625 C 53.859375 67.648438 53.847656 66.757812 53.753906 65.597656 C 53.742188 65.46875 53.738281 65.257812 53.742188 64.957031 C 53.78125 64.949219 54.808594 65.566406 55.269531 65.671875 L 55.351562 65.890625 C 55.511719 66.375 55.894531 67.003906 56.503906 67.78125 L 57.089844 68.527344 C 57.324219 68.808594 57.5 69.15625 57.613281 69.5625 C 57.703125 69.894531 57.867188 70.039062 58.109375 70 C 58.132812 70.019531 58.175781 70.074219 58.234375 70.160156 C 58.3125 70.277344 58.386719 70.351562 58.453125 70.371094 C 58.546875 70.40625 58.648438 70.398438 58.757812 70.355469 C 58.933594 70.289062 59.03125 70.25 59.042969 70.238281 C 59.097656 70.199219 59.167969 70.160156 59.242188 69.996094 C 59.316406 69.835938 59.1875 69.402344 59.164062 69.289062 C 59.105469 69 58.996094 68.785156 58.84375 68.632812 L 58.769531 68.558594 C 58.566406 68.363281 58.402344 68.195312 58.117188 67.480469 C 58.109375 67.460938 58.039062 67.261719 57.902344 66.878906 C 57.582031 65.992188 57.402344 65.796875 56.996094 64.960938 C 56.832031 64.617188 56.585938 64.277344 56.257812 63.941406 C 55.742188 63.410156 55.78125 63.488281 54.796875 62.597656 C 54.496094 62.324219 53.714844 61.628906 53.207031 61.4375 C 52.996094 61.355469 52.757812 61.304688 52.5 61.28125 C 52.175781 61.253906 51.941406 61.210938 51.789062 61.148438 C 51.78125 61.109375 51.761719 61.007812 51.738281 60.832031 C 51.832031 60.769531 51.933594 60.691406 52.421875 60.359375 C 52.796875 60.101562 53.023438 59.921875 53.121094 59.734375 C 53.339844 59.308594 52.574219 58.613281 52.570312 58.578125 L 52.546875 58.351562 C 52.378906 57.730469 52.019531 57.246094 51.324219 56.835938 C 50.332031 56.253906 48.964844 56.414062 48.167969 57.355469 C 47.855469 57.722656 47.632812 58.640625 48.039062 59.59375 C 48.246094 60.089844 48.199219 60.121094 48.164062 60.425781 C 48.128906 60.722656 48.175781 60.875 48.3125 60.882812 L 48.609375 60.894531 L 48.675781 61.03125 C 48.734375 61.097656 48.871094 61.101562 48.867188 61.1875 C 48.863281 61.273438 48.742188 61.335938 48.898438 61.59375 C 48.964844 61.707031 49.027344 61.820312 49.160156 61.914062 C 49.164062 61.953125 49.191406 61.960938 48.976562 62.125 C 48.753906 62.292969 48.507812 62.5 48.1875 62.804688 C 47.242188 63.699219 47.175781 64.28125 47.171875 65.257812 L 47.136719 66.316406 C 47.128906 66.328125 47.066406 66.363281 46.957031 66.421875 L 45.289062 67.652344 C 44.976562 67.882812 44.78125 68.03125 44.710938 68.09375 C 44.410156 68.359375 44.304688 68.445312 44.097656 68.453125 L 43.417969 68.671875 C 43.261719 68.734375 43.121094 68.832031 43.003906 68.96875 C 42.902344 69.078125 42.816406 69.34375 42.621094 69.597656 C 42.53125 69.714844 42.480469 69.804688 42.464844 69.871094 C 42.40625 70.1875 42.5625 70.625 43.019531 70.574219 C 43.503906 70.523438 43.910156 70.351562 44.234375 70.054688 L 45.011719 69.484375 C 45.253906 69.402344 48.078125 68.195312 48.449219 67.902344 C 48.519531 67.847656 48.574219 67.816406 48.613281 67.808594 C 48.617188 67.828125 49.351562 69.800781 49.351562 69.800781 C 46.738281 71.960938 45.476562 74.90625 45.503906 74.964844 C 45.539062 75.027344 46.054688 75.351562 46.164062 75.464844 C 46.15625 75.535156 45.949219 76.09375 45.78125 76.484375 C 45.40625 77.367188 45.335938 77.808594 44.5 80.296875 C 44.371094 80.679688 44.21875 80.90625 43.96875 81.054688 C 43.769531 81.175781 43.414062 81.308594 42.90625 81.453125 C 42.210938 81.652344 41.84375 81.835938 41.746094 82.242188 L 41.660156 82.605469 L 38.457031 82.617188 C 38.425781 82.738281 38.410156 84.269531 38.417969 84.265625 L 83.519531 84.257812 L 83.515625 82.617188 L 63.335938 82.617188 C 63.34375 82.554688 63.414062 82.355469 63.527344 82.285156 L 64.148438 81.984375 L 64.398438 82.167969 C 64.464844 82.234375 64.59375 82.238281 64.792969 82.171875 C 65.011719 82.101562 65.527344 81.875 65.660156 81.832031 C 66.027344 81.714844 66.109375 81.679688 65.9375 81.113281 C 65.921875 81.054688 65.863281 80.886719 65.769531 80.605469 C 65.367188 79.410156 65.367188 78.988281 65.328125 77.667969 C 65.25 75.050781 65.105469 74.859375 64.585938 73.382812 C 64.535156 73.238281 64.515625 73.132812 64.53125 73.078125 C 64.53125 73.0625 64.410156 72.832031 65.359375 71.605469 C 65.445312 71.496094 65.492188 71.429688 65.582031 71.398438 C 65.925781 71.273438 66.226562 70.777344 66.265625 70.644531 C 66.554688 69.648438 67.917969 67.417969 68.019531 67.320312 C 68.039062 67.300781 68.269531 67.582031 68.566406 67.972656 L 69.738281 69.464844 L 70.644531 70.460938 C 70.90625 71.023438 71.6875 72.210938 71.894531 72.425781 C 72.035156 72.574219 72.242188 72.699219 72.511719 72.796875 C 73.574219 73.175781 76 74.21875 76.761719 74.460938 C 77.550781 74.714844 78.144531 75.113281 78.550781 75.65625 C 78.761719 75.945312 78.875 76.238281 78.890625 76.542969 C 78.921875 77.183594 78.898438 77.417969 78.800781 78.140625 C 78.710938 78.839844 78.710938 78.863281 78.738281 79.097656 C 78.789062 79.488281 79.015625 79.75 79.296875 79.785156 C 79.480469 79.8125 79.792969 79.765625 79.886719 79.660156 C 79.925781 79.613281 80.003906 79.417969 80.117188 79.070312 C 80.121094 79.058594 80.195312 78.859375 80.339844 78.46875 C 80.609375 77.726562 80.738281 77.140625 80.714844 76.703125 C 80.703125 76.484375 80.714844 76.347656 80.75 76.296875 C 80.910156 76.304688 81.027344 76.246094 81.097656 76.121094 C 81.183594 75.964844 81.523438 75.046875 81.53125 74.921875 C 81.550781 74.730469 81.507812 74.601562 81.40625 74.542969 C 81.40625 74.542969 81.238281 74.5 80.90625 74.410156 C 80.558594 74.320312 80.042969 74.054688 79.355469 73.609375 C 78.679688 73.171875 77.511719 72.117188 77.058594 71.824219 C 76.976562 71.761719 75.417969 70.808594 74.8125 70.515625 C 74.636719 70.425781 74.265625 70.21875 74.210938 70.125 C 74.203125 70.109375 73.699219 67.941406 73.695312 67.832031 C 73.839844 67.953125 74.558594 69.113281 74.933594 69.207031 C 75.09375 69.25 75.261719 69.222656 75.433594 69.128906 L 80.578125 65.433594 C 81.199219 64.925781 81.09375 64.628906 80.640625 64.003906 C 80.039062 63.171875 79.402344 62.09375 78.574219 61.074219 C 78.085938 60.46875 77.859375 60.527344 76.925781 61.253906 C 76.476562 61.597656 76.222656 61.777344 76.160156 61.789062 C 76.132812 61.792969 75.546875 61.40625 75.160156 61.570312 "/>
<path style=" stroke:none;fill-rule:nonzero;fill:rgb(100%,100%,100%);fill-opacity:1;" d="M 73.722656 63.421875 L 73.714844 63.207031 C 73.714844 63.160156 73.746094 62.835938 73.84375 62.679688 L 73.898438 62.65625 C 74.070312 62.578125 74.078125 62.515625 74.210938 62.515625 C 74.40625 62.519531 74.410156 62.34375 74.578125 62.335938 C 74.796875 62.324219 74.714844 62.167969 74.882812 62.144531 C 75.128906 62.105469 75.03125 62.015625 75.152344 61.925781 C 75.183594 61.902344 75.5625 61.996094 75.667969 62.105469 C 75.5625 62.207031 73.757812 63.46875 73.738281 63.46875 C 73.726562 63.457031 73.722656 63.441406 73.722656 63.421875 "/>
<path style=" stroke:none;fill-rule:nonzero;fill:rgb(100%,100%,100%);fill-opacity:1;" d="M 69.882812 57.46875 C 70.242188 57.480469 70.992188 57.417969 71.085938 57.476562 C 71.121094 57.496094 71.238281 57.714844 71.445312 58.128906 C 71.574219 58.390625 72.058594 59.175781 72.902344 60.488281 C 72.992188 60.628906 73.070312 60.742188 73.144531 60.839844 C 73.214844 60.929688 73.253906 60.988281 73.265625 61.015625 C 73.265625 61.019531 73.277344 61.128906 73.296875 61.335938 C 73.3125 61.488281 73.382812 61.726562 73.507812 62.058594 C 73.5625 62.214844 73.585938 62.316406 73.578125 62.375 C 73.574219 62.390625 73.539062 62.457031 73.46875 62.574219 C 73.261719 62.941406 73.257812 63.433594 73.328125 63.554688 L 73.375 63.636719 C 73.40625 63.691406 73.421875 63.730469 73.421875 63.75 C 73.375 63.796875 73.136719 63.96875 72.703125 64.269531 C 72.457031 64.4375 72.328125 64.519531 72.3125 64.515625 C 72.292969 64.507812 72.59375 64.59375 70.699219 62.296875 C 70.542969 62.105469 70.425781 62.050781 70.425781 61.980469 C 70.363281 59.59375 69.878906 57.648438 69.933594 57.738281 L 69.882812 57.46875 "/>
</g>
</svg>
