<?xml version="1.0" encoding="UTF-8"?>
<svg xmlns="http://www.w3.org/2000/svg" xmlns:xlink="http://www.w3.org/1999/xlink" width="121pt" height="106pt" viewBox="0 0 121 106" version="1.1">
<g id="surface1">
<path style=" stroke:none;fill-rule:nonzero;fill:rgb(93.527222%,17.272949%,18.882751%);fill-opacity:1;" d="M 5.210938 105.527344 L 115.585938 105.527344 C 119.40625 105.527344 121.792969 101.394531 119.886719 98.085938 L 64.695312 2.496094 C 62.785156 -0.8125 58.011719 -0.8125 56.101562 2.496094 L 0.910156 98.085938 C -0.996094 101.394531 1.390625 105.527344 5.210938 105.527344 "/>
<path style=" stroke:none;fill-rule:nonzero;fill:rgb(100%,100%,100%);fill-opacity:1;" d="M 13.800781 95.605469 L 106.996094 95.605469 L 60.398438 14.902344 L 13.800781 95.605469 "/>
<path style=" stroke:none;fill-rule:nonzero;fill:rgb(13.729858%,12.159729%,12.548828%);fill-opacity:1;" d="M 78.839844 70.339844 L 78.09375 70.632812 L 78.074219 70.832031 L 78.066406 70.921875 C 78.054688 71.09375 78.046875 71.277344 78.039062 71.449219 C 78.035156 71.597656 78.035156 71.746094 78.039062 71.894531 C 78.042969 72.117188 78.058594 72.34375 78.082031 72.5625 C 78.101562 72.78125 78.144531 73.03125 78.183594 73.246094 C 78.210938 73.398438 78.265625 73.632812 78.300781 73.777344 C 78.335938 73.917969 78.4375 74.273438 78.476562 74.410156 C 78.554688 74.671875 78.738281 75.175781 78.835938 75.425781 C 78.917969 75.652344 79.191406 76.265625 79.285156 76.484375 C 79.40625 76.753906 79.710938 77.296875 79.851562 77.558594 C 79.972656 77.769531 80.214844 78.113281 80.355469 78.308594 L 80.585938 78.59375 L 81 79.066406 L 81.300781 79.390625 L 81.480469 79.570312 L 81.535156 79.621094 L 81.640625 79.71875 C 81.640625 79.808594 81.632812 79.929688 81.632812 80.019531 C 81.632812 80.210938 81.644531 80.402344 81.671875 80.589844 C 81.699219 80.789062 81.75 81.011719 81.804688 81.207031 C 81.867188 81.457031 81.984375 81.746094 82.085938 81.976562 C 82.195312 82.238281 82.410156 82.613281 82.546875 82.855469 C 82.621094 82.980469 82.886719 83.363281 82.96875 83.480469 C 83.011719 83.542969 83.511719 84.183594 83.558594 84.246094 C 83.582031 84.277344 84.175781 84.957031 84.203125 84.984375 C 84.257812 85.050781 84.71875 85.507812 84.78125 85.570312 L 84.992188 85.769531 L 85.445312 86.171875 L 85.613281 86.324219 L 84.933594 86.851562 L 85.023438 87.023438 L 85.0625 87.101562 C 85.117188 87.230469 85.175781 87.382812 85.214844 87.515625 C 85.242188 87.628906 85.265625 87.746094 85.269531 87.859375 C 85.277344 87.96875 85.273438 88.078125 85.265625 88.183594 C 85.246094 88.324219 85.214844 88.476562 85.175781 88.613281 C 85.140625 88.746094 85.085938 88.898438 85.03125 89.023438 C 84.992188 89.113281 84.933594 89.210938 84.875 89.289062 C 84.84375 89.335938 84.785156 89.402344 84.746094 89.441406 C 84.699219 89.492188 84.5625 89.609375 84.515625 89.65625 C 84.449219 89.710938 84.34375 89.78125 84.277344 89.832031 C 84.230469 89.859375 84.175781 89.886719 84.121094 89.902344 C 84.027344 89.933594 83.898438 89.945312 83.804688 89.90625 C 83.742188 89.882812 83.691406 89.839844 83.65625 89.78125 C 83.617188 89.730469 83.582031 89.628906 83.566406 89.5625 L 83.355469 88.96875 L 83 87.46875 C 82.933594 87.1875 82.820312 86.84375 82.722656 86.574219 C 82.609375 86.253906 82.328125 85.605469 82.191406 85.296875 C 82.066406 85.019531 81.675781 84.292969 81.535156 84.027344 C 81.410156 83.796875 81.132812 83.371094 80.984375 83.15625 C 80.871094 82.984375 80.566406 82.617188 80.433594 82.460938 L 79.222656 81.132812 L 77.839844 79.730469 C 77.789062 79.679688 77.15625 79.101562 77.101562 79.050781 C 76.957031 78.921875 76.265625 78.371094 76.113281 78.25 C 75.964844 78.132812 75.113281 77.550781 74.960938 77.441406 L 72.863281 76.148438 L 72.136719 75.679688 L 71.335938 75.140625 L 69.917969 74.183594 C 69.863281 74.144531 69.535156 73.949219 69.476562 73.910156 C 69.191406 73.738281 68.683594 73.496094 68.378906 73.355469 C 68.003906 73.183594 67.34375 72.941406 66.957031 72.800781 C 66.660156 72.695312 66.058594 72.523438 65.757812 72.433594 C 65.441406 72.34375 64.96875 72.238281 64.648438 72.171875 C 64.582031 72.15625 64.425781 72.128906 64.363281 72.117188 L 62.582031 71.828125 C 62.25 71.773438 61.683594 71.675781 61.355469 71.601562 C 61.117188 71.554688 60.753906 71.46875 60.519531 71.402344 C 60.414062 71.367188 60.09375 71.28125 59.992188 71.242188 C 59.898438 71.210938 59.570312 71.09375 59.480469 71.058594 C 59.40625 71.03125 59.277344 70.972656 59.203125 70.9375 C 59.15625 70.910156 59.09375 70.878906 59.054688 70.851562 C 59.027344 70.832031 58.976562 70.789062 58.949219 70.765625 C 58.921875 70.738281 58.832031 70.652344 58.808594 70.625 L 58.765625 70.574219 L 58.675781 70.476562 L 58.519531 70.523438 L 58.445312 70.542969 C 58.320312 70.574219 58.1875 70.59375 58.066406 70.609375 C 57.957031 70.625 57.84375 70.632812 57.734375 70.632812 C 57.613281 70.628906 57.488281 70.621094 57.371094 70.597656 C 57.183594 70.566406 56.960938 70.527344 56.777344 70.476562 L 54.960938 69.964844 C 54.847656 69.933594 54.296875 69.792969 54.179688 69.765625 C 54.042969 69.726562 53.445312 69.597656 53.304688 69.570312 C 53.042969 69.511719 52.460938 69.40625 52.199219 69.359375 C 51.921875 69.308594 51.492188 69.253906 51.210938 69.21875 C 50.992188 69.1875 50.695312 69.160156 50.476562 69.136719 C 50.285156 69.121094 50.078125 69.109375 49.886719 69.097656 C 49.597656 69.085938 49.308594 69.085938 49.019531 69.097656 C 48.773438 69.105469 48.523438 69.121094 48.28125 69.160156 C 48.265625 69.160156 48.171875 69.171875 48.15625 69.171875 L 47.886719 69.21875 L 48.03125 69.367188 L 48.105469 69.449219 L 48.382812 69.765625 C 48.421875 69.808594 48.484375 69.863281 48.53125 69.90625 L 49.378906 70.542969 L 50.546875 71.457031 C 50.667969 71.546875 50.925781 71.703125 51.058594 71.78125 C 51.183594 71.851562 51.863281 72.203125 51.992188 72.269531 L 52.574219 72.546875 L 52.949219 72.714844 L 53.023438 72.746094 L 53.136719 72.792969 L 52.933594 73.167969 C 52.992188 73.175781 53.089844 73.1875 53.144531 73.203125 C 53.191406 73.214844 53.238281 73.230469 53.277344 73.25 C 53.347656 73.285156 53.585938 73.40625 53.660156 73.449219 L 53.925781 73.601562 C 53.941406 73.613281 53.980469 73.636719 53.992188 73.648438 C 54.054688 73.695312 54.132812 73.757812 54.175781 73.816406 C 54.246094 73.890625 54.363281 74.023438 54.421875 74.109375 C 54.476562 74.1875 54.589844 74.355469 54.636719 74.445312 C 54.679688 74.523438 54.734375 74.632812 54.769531 74.714844 C 54.8125 74.824219 54.851562 74.953125 54.875 75.070312 C 54.898438 75.191406 54.914062 75.316406 54.917969 75.4375 C 54.921875 75.628906 54.90625 75.792969 54.859375 75.980469 C 54.832031 76.074219 54.792969 76.183594 54.757812 76.273438 C 54.722656 76.359375 54.660156 76.460938 54.613281 76.539062 L 54.582031 76.585938 L 54.511719 76.679688 L 54.34375 76.53125 L 54.257812 76.449219 L 53.578125 75.804688 C 53.546875 75.777344 53.132812 75.417969 53.105469 75.394531 L 52.492188 74.914062 L 51.324219 74.074219 L 50.367188 73.390625 L 50.1875 73.265625 L 48.578125 72.261719 L 47.183594 71.382812 C 47.179688 71.382812 47.148438 71.359375 47.148438 71.359375 C 47.128906 71.347656 46.984375 71.273438 46.96875 71.265625 L 45.5625 70.566406 C 45.40625 70.484375 45.007812 70.28125 44.859375 70.183594 C 44.742188 70.109375 44.5625 69.992188 44.453125 69.90625 C 44.371094 69.835938 44.242188 69.722656 44.164062 69.644531 C 44.109375 69.578125 44.03125 69.492188 43.988281 69.417969 C 43.949219 69.351562 43.902344 69.269531 43.875 69.199219 C 43.851562 69.132812 43.828125 69.066406 43.816406 68.996094 C 43.792969 68.84375 43.800781 68.707031 43.832031 68.550781 C 43.859375 68.410156 43.917969 68.265625 43.984375 68.136719 C 44.046875 68.015625 44.144531 67.894531 44.238281 67.796875 C 44.3125 67.722656 44.414062 67.648438 44.5 67.589844 C 44.628906 67.507812 44.804688 67.421875 44.945312 67.363281 C 45.121094 67.28125 45.359375 67.203125 45.546875 67.152344 C 45.828125 67.066406 46.207031 66.980469 46.492188 66.921875 C 46.800781 66.859375 47.25 66.785156 47.5625 66.738281 C 47.875 66.695312 48.242188 66.652344 48.558594 66.625 C 48.800781 66.597656 49.078125 66.585938 49.324219 66.570312 C 49.558594 66.558594 49.800781 66.554688 50.039062 66.554688 C 50.042969 66.554688 50.050781 66.554688 50.0625 66.554688 L 50.996094 66.570312 C 51.089844 66.570312 51.253906 66.566406 51.332031 66.519531 C 51.410156 66.476562 51.46875 66.410156 51.511719 66.328125 C 51.550781 66.234375 51.5625 66.152344 51.5625 66.054688 C 51.5625 66.011719 51.558594 65.96875 51.550781 65.929688 C 51.519531 65.816406 51.464844 65.601562 51.425781 65.492188 C 51.378906 65.320312 51.335938 65.140625 51.316406 64.96875 C 51.273438 64.632812 51.234375 64.277344 51.222656 63.941406 C 51.207031 63.574219 51.191406 63.105469 51.207031 62.738281 C 51.214844 62.589844 51.234375 62.433594 51.25 62.289062 C 51.269531 62.183594 51.292969 62.058594 51.324219 61.953125 C 51.328125 61.945312 51.347656 61.871094 51.347656 61.863281 L 51.410156 61.679688 L 51.289062 61.46875 C 51.28125 61.449219 51.246094 61.386719 51.234375 61.363281 C 51.195312 61.269531 51.152344 61.15625 51.132812 61.050781 C 51.089844 60.847656 51.050781 60.625 51.027344 60.417969 C 51.007812 60.222656 50.96875 59.867188 50.953125 59.671875 C 50.9375 59.511719 50.921875 59.320312 50.914062 59.15625 L 50.875 57.40625 L 50.804688 55.597656 C 50.796875 55.316406 50.777344 55.027344 50.746094 54.746094 C 50.734375 54.625 50.707031 54.5 50.675781 54.382812 C 50.671875 54.371094 50.652344 54.304688 50.644531 54.289062 L 50.585938 54.109375 C 50.535156 54.113281 50.433594 54.121094 50.382812 54.121094 C 50.351562 54.125 50.316406 54.125 50.28125 54.125 C 50.171875 54.128906 50.054688 54.128906 49.941406 54.121094 C 49.785156 54.109375 49.621094 54.097656 49.464844 54.078125 C 49.332031 54.058594 49.175781 54.039062 49.042969 54.011719 C 48.964844 53.992188 48.875 53.96875 48.800781 53.941406 C 48.761719 53.925781 48.707031 53.90625 48.667969 53.886719 L 48.128906 53.601562 C 48.03125 53.550781 47.816406 53.449219 47.714844 53.402344 C 47.609375 53.351562 47.433594 53.289062 47.328125 53.25 C 47.257812 53.230469 47.152344 53.199219 47.082031 53.179688 L 46.246094 52.976562 L 45.554688 52.828125 C 45.496094 52.8125 45.410156 52.796875 45.347656 52.785156 C 45.125 52.75 44.851562 52.703125 44.628906 52.648438 C 44.5625 52.632812 44.488281 52.605469 44.429688 52.570312 C 44.367188 52.535156 44.296875 52.488281 44.246094 52.441406 C 44.195312 52.394531 44.140625 52.335938 44.105469 52.28125 C 44.035156 52.171875 43.988281 52.0625 43.980469 51.9375 C 43.980469 51.828125 44.003906 51.734375 44.042969 51.636719 C 44.070312 51.574219 44.117188 51.503906 44.15625 51.449219 C 44.210938 51.371094 44.300781 51.285156 44.363281 51.21875 C 44.464844 51.128906 44.613281 51.027344 44.730469 50.949219 C 44.882812 50.847656 45.117188 50.738281 45.28125 50.660156 C 45.382812 50.617188 45.601562 50.53125 45.703125 50.492188 C 45.746094 50.476562 46.550781 50.207031 46.59375 50.191406 L 47.449219 49.914062 L 48.128906 49.6875 C 48.144531 49.683594 48.960938 49.386719 48.976562 49.386719 C 49.066406 49.347656 49.402344 49.21875 49.488281 49.175781 C 49.574219 49.136719 49.917969 48.976562 50.003906 48.929688 C 50.050781 48.90625 50.546875 48.640625 50.59375 48.609375 C 50.691406 48.550781 50.894531 48.425781 50.980469 48.363281 C 51.046875 48.316406 51.132812 48.246094 51.1875 48.191406 C 51.253906 48.121094 51.332031 48.03125 51.382812 47.949219 C 51.421875 47.882812 51.464844 47.808594 51.484375 47.734375 C 51.527344 47.578125 51.519531 47.308594 51.515625 47.140625 C 51.507812 46.960938 51.492188 46.734375 51.476562 46.554688 C 51.472656 46.503906 51.46875 46.449219 51.460938 46.402344 C 51.445312 46.308594 51.417969 46.214844 51.394531 46.128906 C 51.363281 46.019531 51.289062 45.816406 51.253906 45.710938 C 51.238281 45.671875 51.128906 45.40625 51.113281 45.371094 C 51.097656 45.328125 51.011719 45.15625 50.992188 45.109375 C 50.96875 45.070312 50.785156 44.691406 50.769531 44.648438 C 50.75 44.601562 50.730469 44.554688 50.722656 44.511719 C 50.691406 44.382812 50.683594 44.265625 50.695312 44.128906 C 50.699219 44.074219 50.714844 44.015625 50.730469 43.964844 C 50.746094 43.890625 50.78125 43.792969 50.804688 43.726562 L 50.835938 43.648438 L 50.902344 43.496094 L 51.023438 43.679688 L 51.09375 43.773438 C 51.140625 43.839844 51.234375 43.953125 51.285156 44.015625 C 51.328125 44.054688 51.386719 44.105469 51.433594 44.144531 C 51.585938 44.265625 51.796875 44.335938 51.992188 44.34375 C 52.105469 44.347656 52.21875 44.335938 52.328125 44.296875 C 52.460938 44.25 52.597656 44.1875 52.710938 44.105469 C 52.824219 44.019531 52.949219 43.914062 53.039062 43.800781 C 53.15625 43.652344 53.289062 43.46875 53.371094 43.304688 C 53.4375 43.175781 53.519531 43.007812 53.5625 42.871094 C 53.605469 42.75 53.648438 42.609375 53.671875 42.480469 C 53.679688 42.433594 53.691406 42.375 53.699219 42.324219 C 53.710938 42.195312 53.738281 41.957031 53.75 41.832031 C 53.753906 41.777344 53.765625 41.660156 53.769531 41.609375 C 53.773438 41.5625 53.792969 41.425781 53.800781 41.382812 L 53.8125 41.273438 L 53.851562 41.03125 C 53.851562 41.035156 53.992188 41.269531 53.996094 41.273438 C 54.011719 41.304688 54.042969 41.363281 54.058594 41.398438 C 54.09375 41.476562 54.132812 41.574219 54.152344 41.660156 C 54.179688 41.785156 54.207031 41.917969 54.21875 42.046875 C 54.25 42.34375 54.25 42.59375 54.21875 42.894531 C 54.207031 43.039062 54.175781 43.199219 54.148438 43.34375 C 54.121094 43.46875 54.078125 43.617188 54.035156 43.738281 C 53.996094 43.84375 53.933594 43.992188 53.886719 44.09375 C 53.835938 44.199219 53.71875 44.40625 53.660156 44.507812 C 53.65625 44.511719 53.53125 44.699219 53.53125 44.703125 L 53.117188 45.292969 C 53.113281 45.308594 52.828125 45.730469 52.820312 45.746094 C 52.78125 45.808594 52.695312 45.949219 52.660156 46.019531 C 52.601562 46.148438 52.527344 46.308594 52.484375 46.449219 C 52.445312 46.566406 52.417969 46.691406 52.402344 46.816406 C 52.363281 47.15625 52.414062 47.460938 52.515625 47.792969 C 52.535156 47.863281 52.578125 47.976562 52.605469 48.042969 C 52.628906 48.105469 52.683594 48.210938 52.710938 48.269531 L 52.757812 48.34375 L 52.851562 48.503906 L 52.980469 48.25 C 52.984375 48.238281 53.042969 48.136719 53.050781 48.125 C 53.101562 48.035156 53.199219 47.902344 53.261719 47.816406 C 53.332031 47.722656 53.566406 47.460938 53.640625 47.371094 C 53.695312 47.316406 53.984375 47.035156 54.039062 46.976562 C 54.105469 46.910156 54.273438 46.78125 54.347656 46.71875 C 54.460938 46.628906 54.664062 46.503906 54.792969 46.429688 C 54.933594 46.34375 55.144531 46.25 55.292969 46.183594 L 56.070312 45.898438 C 56.144531 45.871094 56.300781 45.824219 56.375 45.855469 C 56.4375 45.886719 56.480469 45.945312 56.503906 46.011719 C 56.535156 46.105469 56.523438 46.195312 56.496094 46.289062 C 56.480469 46.328125 56.457031 46.367188 56.433594 46.402344 C 56.394531 46.46875 56.292969 46.597656 56.246094 46.660156 L 56.132812 46.804688 L 55.753906 47.304688 C 55.722656 47.351562 55.414062 47.730469 55.378906 47.78125 C 55.328125 47.84375 55.199219 47.972656 55.140625 48.035156 L 54.617188 48.488281 L 53.992188 49.105469 L 53.921875 49.171875 L 53.789062 49.292969 L 53.941406 49.5 L 54.007812 49.597656 C 54.109375 49.753906 54.261719 49.992188 54.34375 50.15625 C 54.449219 50.375 54.640625 50.78125 54.726562 51.007812 C 54.785156 51.167969 54.992188 51.699219 55.042969 51.859375 C 55.066406 51.9375 55.464844 53.179688 55.484375 53.257812 L 55.902344 54.691406 L 56.285156 56.082031 C 56.378906 56.425781 56.707031 57.515625 56.8125 57.859375 C 56.886719 58.085938 57.015625 58.40625 57.109375 58.625 C 57.230469 58.921875 57.457031 59.324219 57.613281 59.597656 C 57.777344 59.871094 58.101562 60.304688 58.292969 60.558594 C 58.570312 60.925781 59.03125 61.378906 59.359375 61.695312 C 59.679688 61.988281 60.140625 62.304688 60.5 62.539062 C 60.867188 62.777344 61.351562 62.996094 61.753906 63.164062 C 62.3125 63.398438 63.035156 63.613281 63.625 63.777344 C 63.746094 63.808594 64.234375 63.929688 64.359375 63.957031 L 66.042969 64.320312 C 66.074219 64.328125 67.792969 64.664062 67.820312 64.671875 C 68.039062 64.71875 68.378906 64.769531 68.597656 64.800781 L 71.296875 65.101562 C 71.710938 65.160156 72.195312 65.234375 72.601562 65.328125 C 72.914062 65.398438 73.300781 65.492188 73.601562 65.59375 C 73.945312 65.714844 74.386719 65.871094 74.707031 66.035156 C 74.996094 66.179688 75.398438 66.394531 75.664062 66.582031 C 75.867188 66.722656 76.226562 66.972656 76.40625 67.140625 C 76.597656 67.308594 77.066406 67.730469 77.238281 67.914062 C 77.320312 68.003906 77.75 68.472656 77.828125 68.5625 C 77.910156 68.671875 78.207031 69.042969 78.285156 69.164062 C 78.386719 69.308594 78.542969 69.542969 78.625 69.703125 C 78.683594 69.820312 78.738281 69.953125 78.777344 70.074219 C 78.78125 70.09375 78.792969 70.140625 78.796875 70.164062 C 78.800781 70.171875 78.839844 70.332031 78.839844 70.339844 "/>
</g>
</svg>
