<?xml version="1.0" encoding="UTF-8"?>
<svg xmlns="http://www.w3.org/2000/svg" xmlns:xlink="http://www.w3.org/1999/xlink" width="121pt" height="106pt" viewBox="0 0 121 106" version="1.1">
<g id="surface1">
<path style=" stroke:none;fill-rule:nonzero;fill:rgb(93.527222%,17.272949%,18.882751%);fill-opacity:1;" d="M 5.402344 105.527344 L 115.777344 105.527344 C 119.597656 105.527344 121.984375 101.394531 120.078125 98.085938 L 64.886719 2.496094 C 62.976562 -0.8125 58.203125 -0.8125 56.296875 2.496094 L 1.105469 98.085938 C -0.804688 101.394531 1.582031 105.527344 5.402344 105.527344 "/>
<path style=" stroke:none;fill-rule:nonzero;fill:rgb(100%,100%,100%);fill-opacity:1;" d="M 13.992188 95.605469 L 107.1875 95.605469 L 60.589844 14.902344 L 13.992188 95.605469 "/>
<path style=" stroke:none;fill-rule:nonzero;fill:rgb(13.729858%,12.159729%,12.548828%);fill-opacity:1;" d="M 66.257812 41.503906 L 63.4375 73.71875 C 63.25 74.445312 62.609375 75.175781 61.921875 75.527344 C 60.953125 75.902344 59.578125 75.835938 58.84375 75.082031 C 57.640625 73.621094 57.992188 71.554688 57.683594 69.652344 L 54.914062 41.128906 C 55.078125 39.085938 56.527344 37.113281 58.539062 36.453125 C 62.230469 35 66.515625 37.722656 66.257812 41.503906 "/>
<path style=" stroke:none;fill-rule:nonzero;fill:rgb(13.729858%,12.159729%,12.548828%);fill-opacity:1;" d="M 60.589844 78.59375 C 63.722656 78.59375 66.261719 81.136719 66.261719 84.265625 C 66.261719 87.394531 63.722656 89.933594 60.589844 89.933594 C 57.460938 89.933594 54.921875 87.394531 54.921875 84.265625 C 54.921875 81.136719 57.460938 78.59375 60.589844 78.59375 "/>
</g>
</svg>
