<?xml version="1.0" encoding="UTF-8"?>
<svg xmlns="http://www.w3.org/2000/svg" xmlns:xlink="http://www.w3.org/1999/xlink" width="121pt" height="106pt" viewBox="0 0 121 106" version="1.1">
<g id="surface1">
<path style=" stroke:none;fill-rule:nonzero;fill:rgb(93.527222%,17.272949%,18.882751%);fill-opacity:1;" d="M 5.402344 105.527344 L 115.777344 105.527344 C 119.597656 105.527344 121.984375 101.394531 120.078125 98.085938 L 64.886719 2.496094 C 62.976562 -0.808594 58.203125 -0.808594 56.296875 2.496094 L 1.105469 98.085938 C -0.804688 101.394531 1.582031 105.527344 5.402344 105.527344 "/>
<path style=" stroke:none;fill-rule:nonzero;fill:rgb(100%,100%,100%);fill-opacity:1;" d="M 13.992188 95.605469 L 107.1875 95.605469 L 60.589844 14.902344 L 13.992188 95.605469 "/>
<path style=" stroke:none;fill-rule:nonzero;fill:rgb(13.729858%,12.159729%,12.548828%);fill-opacity:1;" d="M 57.21875 81.417969 L 57.21875 87.085938 L 54.015625 87.066406 L 53.996094 81.125 L 53.046875 81.125 L 53.011719 76.757812 C 52.847656 76.527344 52.683594 76.289062 52.554688 76.046875 C 52.300781 75.613281 52.175781 75.113281 52.175781 74.59375 C 52.15625 73.867188 52.394531 73.144531 52.902344 72.609375 C 53.191406 72.28125 53.574219 72.035156 53.976562 71.882812 C 54.15625 71.792969 54.378906 71.726562 54.5625 71.675781 L 55.050781 70.726562 L 49.972656 70.691406 L 50.007812 74.921875 L 47.910156 74.90625 L 47.929688 70.570312 L 47.019531 70.621094 L 47.074219 67.476562 C 46.945312 67.355469 46.78125 67.164062 46.691406 67.027344 C 46.472656 66.664062 46.472656 66.148438 46.546875 65.75 C 46.601562 65.367188 46.78125 65.023438 47.035156 64.730469 C 47.257812 64.472656 47.53125 64.265625 47.839844 64.140625 C 47.964844 64.089844 48.132812 64.054688 48.257812 64.023438 L 48.839844 63.121094 L 45.125 63.121094 L 45.105469 66.011719 L 43.59375 66.011719 L 43.578125 63.105469 L 43.085938 63.121094 L 43.101562 60.894531 C 42.992188 60.789062 42.867188 60.617188 42.8125 60.480469 C 42.648438 60.171875 42.703125 59.753906 42.8125 59.410156 C 42.867188 59.203125 42.976562 58.941406 43.160156 58.789062 C 43.320312 58.664062 43.632812 58.5625 43.832031 58.511719 L 46.417969 54.332031 C 46.546875 54.140625 46.710938 53.929688 46.929688 53.863281 C 47.109375 53.792969 47.457031 53.792969 47.636719 53.792969 L 56.765625 53.8125 C 56.984375 53.8125 57.382812 53.828125 57.5625 53.929688 C 57.746094 54.035156 57.871094 54.296875 57.949219 54.46875 L 59.292969 57.511719 L 66.582031 57.542969 C 66.925781 57.542969 67.289062 57.628906 67.582031 57.800781 C 67.875 57.972656 68.109375 58.234375 68.253906 58.546875 L 69.953125 62.382812 L 80.113281 62.382812 C 80.53125 62.382812 80.929688 62.519531 81.277344 62.746094 C 81.585938 62.929688 81.859375 63.210938 82.007812 63.535156 L 85.847656 72.035156 C 86.140625 72.109375 86.429688 72.175781 86.707031 72.246094 C 87.160156 72.382812 87.5625 72.625 87.890625 72.953125 C 88.289062 73.332031 88.527344 73.867188 88.671875 74.40625 C 88.800781 74.90625 88.820312 75.421875 88.707031 75.925781 C 88.636719 76.183594 88.527344 76.441406 88.359375 76.667969 C 88.234375 76.804688 88.050781 76.960938 87.925781 77.097656 L 87.945312 81.523438 L 86.632812 81.503906 L 86.652344 87.066406 L 83.355469 87.101562 L 83.355469 81.472656 L 74.03125 81.503906 C 73.261719 82.558594 71.988281 83.179688 70.640625 83.164062 C 69.292969 83.128906 68.070312 82.472656 67.34375 81.398438 L 57.21875 81.417969 "/>
<path style=" stroke:none;fill-rule:nonzero;fill:rgb(100%,100%,100%);fill-opacity:1;" d="M 51.484375 58.5625 L 45.019531 58.578125 L 47.039062 55.054688 C 47.128906 54.882812 47.273438 54.710938 47.441406 54.621094 C 47.566406 54.554688 47.730469 54.535156 47.859375 54.535156 L 56.292969 54.535156 C 56.472656 54.535156 56.65625 54.574219 56.820312 54.660156 C 56.984375 54.746094 57.109375 54.863281 57.164062 55.019531 L 58.132812 57.386719 L 53.304688 57.351562 C 53.140625 57.351562 52.757812 57.351562 52.539062 57.386719 C 52.269531 57.457031 52.011719 57.59375 51.882812 57.839844 L 51.5 58.542969 L 51.5 58.5625 L 51.484375 58.5625 "/>
<path style=" stroke:none;fill-rule:nonzero;fill:rgb(100%,100%,100%);fill-opacity:1;" d="M 58.953125 64.039062 L 49.921875 64.039062 L 52.671875 59.082031 C 52.761719 58.929688 52.890625 58.738281 53.070312 58.652344 C 53.21875 58.566406 53.492188 58.566406 53.652344 58.566406 L 65.746094 58.546875 C 66.039062 58.546875 66.363281 58.613281 66.601562 58.789062 C 66.75 58.910156 66.859375 59.101562 66.929688 59.257812 L 68.242188 62.175781 L 61.523438 62.175781 C 61.25 62.15625 60.828125 62.175781 60.558594 62.261719 C 60.210938 62.382812 59.917969 62.609375 59.703125 62.882812 C 59.429688 63.246094 59.171875 63.644531 58.953125 64.039062 "/>
<path style=" stroke:none;fill-rule:nonzero;fill:rgb(100%,100%,100%);fill-opacity:1;" d="M 83.410156 71.863281 L 56.746094 71.828125 L 60.789062 64.625 C 60.9375 64.363281 61.171875 64.125 61.460938 64.003906 C 61.71875 63.882812 62.046875 63.863281 62.320312 63.863281 L 79.148438 63.917969 C 79.457031 63.917969 79.875 63.96875 80.078125 64.175781 C 80.167969 64.265625 80.351562 64.691406 80.40625 64.816406 L 83.410156 71.863281 "/>
</g>
</svg>
