<?xml version="1.0" encoding="UTF-8"?>
<svg xmlns="http://www.w3.org/2000/svg" xmlns:xlink="http://www.w3.org/1999/xlink" width="86pt" height="86pt" viewBox="0 0 86 86" version="1.1">
<g id="surface1">
<path style=" stroke:none;fill-rule:nonzero;fill:rgb(93.527222%,17.272949%,18.882751%);fill-opacity:1;" d="M 42.523438 0.648438 C 66.007812 0.648438 85.042969 19.683594 85.042969 43.167969 C 85.042969 66.652344 66.007812 85.6875 42.523438 85.6875 C 19.042969 85.6875 0.00390625 66.652344 0.00390625 43.167969 C 0.00390625 19.683594 19.042969 0.648438 42.523438 0.648438 "/>
<path style=" stroke:none;fill-rule:nonzero;fill:rgb(100%,100%,100%);fill-opacity:1;" d="M 42.527344 14.816406 C 46.378906 14.816406 50.054688 15.558594 53.558594 17.039062 C 56.949219 18.472656 59.953125 20.5 62.574219 23.121094 C 65.191406 25.738281 67.21875 28.746094 68.652344 32.136719 C 70.132812 35.636719 70.875 39.3125 70.875 43.164062 C 70.875 47.015625 70.132812 50.691406 68.652344 54.195312 C 67.21875 57.582031 65.191406 60.589844 62.574219 63.207031 C 59.953125 65.828125 56.949219 67.855469 53.558594 69.289062 C 50.054688 70.769531 46.378906 71.511719 42.527344 71.511719 C 38.675781 71.511719 35 70.769531 31.5 69.289062 C 28.109375 67.855469 25.105469 65.828125 22.484375 63.207031 C 19.863281 60.589844 17.835938 57.582031 16.402344 54.195312 C 14.921875 50.691406 14.179688 47.015625 14.179688 43.164062 C 14.179688 39.3125 14.921875 35.636719 16.402344 32.136719 C 17.835938 28.746094 19.863281 25.738281 22.484375 23.121094 C 25.105469 20.5 28.109375 18.472656 31.5 17.039062 C 35 15.558594 38.675781 14.816406 42.527344 14.816406 "/>
<path style=" stroke:none;fill-rule:nonzero;fill:rgb(13.729858%,12.159729%,12.548828%);fill-opacity:1;" d="M 22.382812 33.3125 L 60.007812 33.234375 C 60.28125 33.234375 60.582031 33.277344 60.824219 33.390625 C 61.035156 33.5 61.21875 33.675781 61.355469 33.875 L 65.738281 40.667969 C 65.785156 40.746094 65.832031 40.851562 65.859375 40.941406 C 65.902344 41.0625 65.902344 41.535156 65.902344 41.65625 L 65.914062 48.007812 C 65.914062 48.285156 65.832031 48.585938 65.621094 48.765625 C 65.390625 48.960938 65.050781 48.996094 64.757812 48.996094 L 57.769531 48.996094 C 57.773438 48.863281 57.78125 48.660156 57.769531 48.523438 C 57.640625 46.449219 55.863281 44.914062 53.800781 44.886719 C 51.699219 44.863281 49.847656 46.394531 49.707031 48.511719 C 49.699219 48.648438 49.699219 48.84375 49.699219 48.976562 L 31.226562 48.953125 C 31.226562 48.855469 31.226562 48.714844 31.214844 48.613281 C 31.078125 46.546875 29.289062 45.03125 27.238281 45.027344 C 25.183594 45.027344 23.445312 46.554688 23.226562 48.613281 C 23.21875 48.714844 23.207031 48.867188 23.207031 48.976562 L 20.011719 48.996094 C 19.804688 49.011719 19.59375 48.90625 19.4375 48.757812 C 19.265625 48.574219 19.175781 48.308594 19.175781 48.0625 L 19.140625 41.921875 C 19.140625 41.777344 19.152344 41.609375 19.167969 41.46875 C 19.183594 41.25 19.230469 40.894531 19.292969 40.703125 L 20.878906 34.132812 C 20.941406 33.84375 21.179688 33.605469 21.4375 33.480469 C 21.722656 33.339844 22.078125 33.3125 22.382812 33.3125 "/>
<path style=" stroke:none;fill-rule:nonzero;fill:rgb(13.729858%,12.159729%,12.548828%);fill-opacity:1;" d="M 27.253906 45.648438 C 29.085938 45.648438 30.570312 47.148438 30.570312 49 C 30.570312 50.859375 29.082031 52.359375 27.25 52.359375 C 25.421875 52.359375 23.9375 50.871094 23.925781 49.03125 C 23.914062 47.160156 25.410156 45.648438 27.253906 45.648438 "/>
<path style=" stroke:none;fill-rule:nonzero;fill:rgb(13.729858%,12.159729%,12.548828%);fill-opacity:1;" d="M 53.796875 45.59375 C 55.648438 45.613281 57.105469 47.179688 57.078125 49.050781 C 57.054688 50.886719 55.574219 52.367188 53.753906 52.371094 C 51.910156 52.378906 50.398438 50.890625 50.375 49.035156 C 50.351562 47.121094 51.898438 45.574219 53.796875 45.59375 "/>
<path style=" stroke:none;fill-rule:nonzero;fill:rgb(100%,100%,100%);fill-opacity:1;" d="M 21.671875 34.707031 L 23.058594 34.699219 L 21.488281 41.097656 L 20.113281 41.097656 L 21.671875 34.707031 "/>
<path style=" stroke:none;fill-rule:nonzero;fill:rgb(100%,100%,100%);fill-opacity:1;" d="M 24.085938 34.695312 L 28.335938 34.671875 L 28.378906 41.09375 L 22.53125 41.117188 L 24.085938 34.695312 "/>
<path style=" stroke:none;fill-rule:nonzero;fill:rgb(100%,100%,100%);fill-opacity:1;" d="M 29.261719 34.667969 L 34.023438 34.667969 L 33.984375 41.097656 L 29.28125 41.097656 L 29.261719 34.667969 "/>
<path style=" stroke:none;fill-rule:nonzero;fill:rgb(100%,100%,100%);fill-opacity:1;" d="M 34.914062 34.667969 L 39.601562 34.667969 L 39.613281 41.097656 L 34.914062 41.097656 L 34.914062 34.667969 "/>
<path style=" stroke:none;fill-rule:nonzero;fill:rgb(100%,100%,100%);fill-opacity:1;" d="M 40.570312 34.671875 L 45.34375 34.695312 L 45.402344 41.117188 L 40.59375 41.117188 L 40.570312 34.671875 "/>
<path style=" stroke:none;fill-rule:nonzero;fill:rgb(100%,100%,100%);fill-opacity:1;" d="M 46.277344 34.691406 L 51.167969 34.667969 L 51.230469 41.132812 L 46.351562 41.113281 L 46.277344 34.691406 "/>
<path style=" stroke:none;fill-rule:nonzero;fill:rgb(100%,100%,100%);fill-opacity:1;" d="M 52.105469 34.671875 L 56.890625 34.671875 L 56.933594 41.074219 L 52.171875 41.117188 L 52.105469 34.671875 "/>
<path style=" stroke:none;fill-rule:nonzero;fill:rgb(100%,100%,100%);fill-opacity:1;" d="M 57.871094 34.667969 L 60.789062 34.667969 L 64.78125 41.070312 L 57.886719 41.070312 L 57.871094 34.667969 "/>
<path style=" stroke:none;fill-rule:nonzero;fill:rgb(100%,100%,100%);fill-opacity:1;" d="M 27.25 47.558594 C 28.027344 47.558594 28.644531 48.210938 28.628906 49 C 28.617188 49.753906 28.011719 50.363281 27.265625 50.363281 C 26.519531 50.371094 25.902344 49.769531 25.878906 49.015625 C 25.855469 48.230469 26.46875 47.558594 27.25 47.558594 "/>
<path style=" stroke:none;fill-rule:nonzero;fill:rgb(100%,100%,100%);fill-opacity:1;" d="M 53.789062 47.542969 C 54.585938 47.550781 55.21875 48.234375 55.164062 49.039062 C 55.121094 49.765625 54.5 50.300781 53.78125 50.304688 C 53.050781 50.3125 52.417969 49.773438 52.363281 49.039062 C 52.308594 48.222656 52.972656 47.539062 53.789062 47.542969 "/>
</g>
</svg>
