<?xml version="1.0" encoding="UTF-8"?>
<svg xmlns="http://www.w3.org/2000/svg" xmlns:xlink="http://www.w3.org/1999/xlink" width="86pt" height="86pt" viewBox="0 0 86 86" version="1.1">
<g id="surface1">
<path style=" stroke:none;fill-rule:nonzero;fill:rgb(93.527222%,17.272949%,18.882751%);fill-opacity:1;" d="M 42.523438 0.648438 C 66.007812 0.648438 85.042969 19.683594 85.042969 43.167969 C 85.042969 66.652344 66.007812 85.6875 42.523438 85.6875 C 19.042969 85.6875 0.00390625 66.652344 0.00390625 43.167969 C 0.00390625 19.683594 19.042969 0.648438 42.523438 0.648438 "/>
<path style=" stroke:none;fill-rule:nonzero;fill:rgb(100%,100%,100%);fill-opacity:1;" d="M 42.527344 14.816406 C 46.378906 14.816406 50.054688 15.558594 53.558594 17.039062 C 56.949219 18.472656 59.953125 20.5 62.574219 23.121094 C 65.191406 25.738281 67.21875 28.746094 68.652344 32.136719 C 70.132812 35.636719 70.875 39.3125 70.875 43.164062 C 70.875 47.015625 70.132812 50.691406 68.652344 54.195312 C 67.21875 57.582031 65.191406 60.589844 62.574219 63.207031 C 59.953125 65.828125 56.949219 67.855469 53.558594 69.289062 C 50.054688 70.769531 46.378906 71.511719 42.527344 71.511719 C 38.675781 71.511719 35 70.769531 31.5 69.289062 C 28.109375 67.855469 25.105469 65.828125 22.484375 63.207031 C 19.863281 60.589844 17.835938 57.582031 16.402344 54.195312 C 14.921875 50.691406 14.179688 47.015625 14.179688 43.164062 C 14.179688 39.3125 14.921875 35.636719 16.402344 32.136719 C 17.835938 28.746094 19.863281 25.738281 22.484375 23.121094 C 25.105469 20.5 28.109375 18.472656 31.5 17.039062 C 35 15.558594 38.675781 14.816406 42.527344 14.816406 "/>
<path style=" stroke:none;fill-rule:nonzero;fill:rgb(13.729858%,12.159729%,12.548828%);fill-opacity:1;" d="M 34.222656 45.863281 C 32.132812 45.863281 30.4375 47.558594 30.480469 49.640625 C 30.519531 51.660156 32.214844 53.246094 34.242188 53.242188 C 36.261719 53.234375 37.941406 51.660156 37.980469 49.652344 C 38.023438 47.5625 36.320312 45.863281 34.222656 45.863281 "/>
<path style=" stroke:none;fill-rule:nonzero;fill:rgb(13.729858%,12.159729%,12.548828%);fill-opacity:1;" d="M 60.441406 45.863281 C 58.347656 45.863281 56.644531 47.5625 56.6875 49.652344 C 56.726562 51.660156 58.40625 53.234375 60.417969 53.242188 C 62.453125 53.246094 64.148438 51.660156 64.183594 49.640625 C 64.226562 47.558594 62.53125 45.863281 60.441406 45.863281 "/>
<path style=" stroke:none;fill-rule:nonzero;fill:rgb(13.729858%,12.159729%,12.548828%);fill-opacity:1;" d="M 14.210938 45.441406 L 30.492188 45.457031 C 30.449219 45.5 30.378906 45.582031 30.335938 45.628906 C 30.269531 45.695312 30.195312 45.777344 30.132812 45.851562 L 29.953125 46.0625 C 29.929688 46.09375 29.894531 46.132812 29.875 46.15625 L 14.277344 46.167969 C 14.382812 47.089844 14.527344 48.011719 14.71875 48.929688 C 14.773438 49.191406 14.828125 49.453125 14.890625 49.71875 L 29.605469 49.71875 C 29.613281 49.640625 29.621094 49.425781 29.632812 49.347656 C 29.871094 46.898438 31.824219 44.898438 34.285156 44.917969 C 36.761719 44.945312 38.671875 47.007812 38.867188 49.464844 C 38.867188 49.511719 38.875 49.582031 38.878906 49.628906 L 39.792969 49.636719 C 39.800781 49.585938 39.8125 49.511719 39.820312 49.460938 C 39.824219 49.382812 39.824219 49.300781 39.824219 49.226562 C 39.820312 49.132812 39.808594 49.039062 39.792969 48.941406 C 39.785156 48.894531 39.765625 48.808594 39.757812 48.757812 L 43.292969 47.46875 L 55.316406 47.480469 L 55.113281 47.902344 C 55.113281 47.890625 54.953125 48.433594 54.941406 48.679688 C 54.941406 48.792969 54.898438 49.179688 54.90625 49.257812 C 54.90625 49.308594 54.90625 49.585938 54.914062 49.636719 L 55.828125 49.628906 C 55.832031 49.582031 55.839844 49.511719 55.839844 49.464844 C 56.03125 47.007812 57.945312 44.945312 60.417969 44.917969 C 62.882812 44.898438 64.832031 46.898438 65.074219 49.347656 C 65.085938 49.425781 65.089844 49.53125 65.09375 49.601562 L 70.21875 49.632812 C 70.484375 48.480469 70.683594 47.304688 70.800781 46.097656 L 64.828125 46.15625 C 64.808594 46.132812 64.773438 46.09375 64.75 46.0625 L 64.574219 45.851562 C 64.511719 45.777344 64.4375 45.695312 64.371094 45.628906 C 64.328125 45.582031 64.257812 45.5 64.214844 45.457031 L 70.851562 45.503906 C 71.046875 43.070312 70.917969 40.554688 70.4375 38 C 70.085938 36.140625 69.574219 34.367188 68.90625 32.695312 L 50.90625 32.6875 L 50.933594 45.347656 L 56.808594 45.371094 C 56.742188 45.441406 56.65625 45.542969 56.59375 45.617188 C 56.582031 45.628906 56.5625 45.644531 56.554688 45.664062 C 56.511719 45.703125 56.453125 45.773438 56.417969 45.816406 C 56.367188 45.882812 56.3125 45.949219 56.265625 46.023438 C 56.242188 46.058594 56.214844 46.117188 56.195312 46.152344 L 38.515625 46.152344 C 38.492188 46.117188 38.464844 46.058594 38.441406 46.023438 C 38.394531 45.949219 38.339844 45.882812 38.289062 45.816406 C 38.253906 45.773438 38.195312 45.703125 38.152344 45.664062 C 38.144531 45.644531 38.125 45.628906 38.113281 45.617188 C 38.050781 45.542969 37.964844 45.441406 37.898438 45.371094 L 43.773438 45.347656 L 43.796875 32.6875 L 16.148438 32.699219 C 14.496094 36.8125 13.851562 41.101562 14.210938 45.441406 "/>
<path style=" stroke:none;fill-rule:nonzero;fill:rgb(100%,100%,100%);fill-opacity:1;" d="M 34.269531 47.980469 C 33.359375 47.976562 32.640625 48.75 32.703125 49.65625 C 32.761719 50.460938 33.453125 51.078125 34.269531 51.066406 C 35.074219 51.050781 35.722656 50.425781 35.761719 49.632812 C 35.808594 48.761719 35.148438 47.992188 34.269531 47.980469 "/>
<path style=" stroke:none;fill-rule:nonzero;fill:rgb(100%,100%,100%);fill-opacity:1;" d="M 60.398438 47.980469 C 59.519531 47.992188 58.855469 48.761719 58.902344 49.632812 C 58.941406 50.425781 59.59375 51.050781 60.398438 51.066406 C 61.214844 51.078125 61.902344 50.460938 61.964844 49.65625 C 62.027344 48.75 61.308594 47.976562 60.398438 47.980469 "/>
</g>
</svg>
