<?xml version="1.0" encoding="UTF-8"?>
<svg xmlns="http://www.w3.org/2000/svg" xmlns:xlink="http://www.w3.org/1999/xlink" width="86pt" height="86pt" viewBox="0 0 86 86" version="1.1">
<g id="surface1">
<path style=" stroke:none;fill-rule:nonzero;fill:rgb(93.527222%,17.272949%,18.882751%);fill-opacity:1;" d="M 42.523438 0.648438 C 66.007812 0.648438 85.042969 19.683594 85.042969 43.167969 C 85.042969 66.652344 66.007812 85.6875 42.523438 85.6875 C 19.042969 85.6875 0.00390625 66.652344 0.00390625 43.167969 C 0.00390625 19.683594 19.042969 0.648438 42.523438 0.648438 "/>
<path style=" stroke:none;fill-rule:nonzero;fill:rgb(100%,100%,100%);fill-opacity:1;" d="M 42.527344 14.816406 C 46.378906 14.816406 50.054688 15.558594 53.558594 17.039062 C 56.949219 18.472656 59.953125 20.5 62.574219 23.121094 C 65.191406 25.738281 67.21875 28.746094 68.652344 32.136719 C 70.132812 35.636719 70.875 39.3125 70.875 43.164062 C 70.875 47.015625 70.132812 50.691406 68.652344 54.195312 C 67.21875 57.582031 65.191406 60.589844 62.574219 63.207031 C 59.953125 65.828125 56.949219 67.855469 53.558594 69.289062 C 50.054688 70.769531 46.378906 71.511719 42.527344 71.511719 C 38.675781 71.511719 35 70.769531 31.5 69.289062 C 28.109375 67.855469 25.105469 65.828125 22.484375 63.207031 C 19.863281 60.589844 17.835938 57.582031 16.402344 54.195312 C 14.921875 50.691406 14.179688 47.015625 14.179688 43.164062 C 14.179688 39.3125 14.921875 35.636719 16.402344 32.136719 C 17.835938 28.746094 19.863281 25.738281 22.484375 23.121094 C 25.105469 20.5 28.109375 18.472656 31.5 17.039062 C 35 15.558594 38.675781 14.816406 42.527344 14.816406 "/>
<path style=" stroke:none;fill-rule:nonzero;fill:rgb(13.729858%,12.159729%,12.548828%);fill-opacity:1;" d="M 17.722656 45.585938 L 25.550781 45.585938 L 25.535156 35.375 L 60.207031 35.371094 L 60.242188 46.625 L 50.390625 46.625 C 50.382812 46.578125 50.382812 46.519531 50.378906 46.476562 C 50.121094 42.628906 46.785156 39.796875 42.945312 39.785156 C 39.097656 39.777344 35.738281 42.597656 35.453125 46.460938 C 35.449219 46.507812 35.449219 46.570312 35.445312 46.625 L 17.722656 46.625 L 17.722656 45.585938 "/>
<path style=" stroke:none;fill-rule:nonzero;fill:rgb(13.729858%,12.159729%,12.548828%);fill-opacity:1;" d="M 37.199219 47.3125 L 36.152344 47.3125 C 36.152344 47.0625 36.152344 46.695312 36.175781 46.449219 C 36.492188 43.011719 39.46875 40.488281 42.898438 40.488281 C 46.324219 40.488281 49.214844 43.058594 49.652344 46.472656 C 49.679688 46.71875 49.699219 47.066406 49.707031 47.3125 L 48.636719 47.3125 C 48.621094 47.066406 48.601562 46.71875 48.5625 46.476562 C 48.121094 43.671875 45.742188 41.578125 42.917969 41.570312 C 40.078125 41.558594 37.613281 43.617188 37.25 46.449219 C 37.21875 46.695312 37.203125 47.0625 37.199219 47.3125 "/>
<path style=" stroke:none;fill-rule:nonzero;fill:rgb(13.729858%,12.159729%,12.548828%);fill-opacity:1;" d="M 42.910156 42.292969 C 45.671875 42.292969 47.914062 44.53125 47.929688 47.296875 C 47.945312 50.09375 45.699219 52.378906 42.910156 52.378906 C 40.128906 52.378906 37.890625 50.097656 37.90625 47.300781 C 37.914062 44.53125 40.152344 42.292969 42.910156 42.292969 "/>
<path style=" stroke:none;fill-rule:nonzero;fill:rgb(100%,100%,100%);fill-opacity:1;" d="M 42.90625 45.644531 C 43.824219 45.644531 44.578125 46.390625 44.585938 47.3125 C 44.59375 48.246094 43.84375 49.003906 42.917969 49.011719 C 41.976562 49.019531 41.210938 48.253906 41.214844 47.3125 C 41.222656 46.382812 41.980469 45.644531 42.90625 45.644531 "/>
</g>
</svg>
