<?xml version="1.0" encoding="UTF-8"?>
<svg xmlns="http://www.w3.org/2000/svg" xmlns:xlink="http://www.w3.org/1999/xlink" width="86pt" height="86pt" viewBox="0 0 86 86" version="1.1">
<g id="surface1">
<path style=" stroke:none;fill-rule:nonzero;fill:rgb(93.527222%,17.272949%,18.882751%);fill-opacity:1;" d="M 42.832031 0.496094 C 66.316406 0.496094 85.351562 19.53125 85.351562 43.015625 C 85.351562 66.496094 66.316406 85.535156 42.832031 85.535156 C 19.347656 85.535156 0.3125 66.496094 0.3125 43.015625 C 0.3125 19.53125 19.347656 0.496094 42.832031 0.496094 "/>
<path style=" stroke:none;fill-rule:nonzero;fill:rgb(100%,100%,100%);fill-opacity:1;" d="M 42.835938 14.664062 C 46.6875 14.664062 50.363281 15.40625 53.863281 16.886719 C 57.253906 18.320312 60.257812 20.347656 62.878906 22.96875 C 65.5 25.585938 67.527344 28.59375 68.960938 31.980469 C 70.441406 35.484375 71.183594 39.160156 71.183594 43.011719 C 71.183594 46.863281 70.441406 50.539062 68.960938 54.039062 C 67.527344 57.429688 65.5 60.433594 62.878906 63.054688 C 60.257812 65.675781 57.253906 67.703125 53.863281 69.136719 C 50.363281 70.617188 46.6875 71.355469 42.835938 71.355469 C 38.984375 71.355469 35.308594 70.617188 31.804688 69.136719 C 28.417969 67.703125 25.410156 65.675781 22.792969 63.054688 C 20.171875 60.433594 18.144531 57.429688 16.710938 54.039062 C 15.230469 50.539062 14.488281 46.863281 14.488281 43.011719 C 14.488281 39.160156 15.230469 35.484375 16.710938 31.980469 C 18.144531 28.59375 20.171875 25.585938 22.792969 22.96875 C 25.410156 20.347656 28.417969 18.320312 31.804688 16.886719 C 35.308594 15.40625 38.984375 14.664062 42.835938 14.664062 "/>
<path style=" stroke:none;fill-rule:nonzero;fill:rgb(13.729858%,12.159729%,12.548828%);fill-opacity:1;" d="M 23.304688 55.765625 L 62.363281 55.765625 L 62.363281 54.464844 L 56.761719 54.539062 C 56.761719 54.308594 56.839844 54.078125 56.839844 53.921875 C 56.839844 53.847656 56.761719 53.230469 56.839844 53.082031 C 56.839844 53 56.839844 52.851562 56.914062 52.769531 C 56.988281 52.695312 56.988281 52.542969 57.070312 52.464844 C 57.070312 52.3125 57.070312 52.003906 57.070312 51.851562 C 56.988281 51.773438 56.988281 51.699219 56.988281 51.621094 C 56.988281 51.3125 56.988281 50.777344 57.070312 50.46875 C 57.070312 50.085938 57.144531 49.625 57.21875 49.320312 C 57.453125 48.859375 57.453125 48.550781 57.453125 48.472656 C 57.53125 48.246094 57.605469 48.015625 57.605469 47.785156 C 57.605469 47.476562 57.453125 47.09375 57.375 46.785156 C 57.21875 46.632812 56.839844 45.867188 56.761719 45.710938 C 56.53125 45.328125 56.378906 44.863281 56.300781 44.484375 C 56.222656 44.097656 56.222656 43.636719 56.222656 43.175781 C 56.300781 42.714844 56.378906 42.179688 56.53125 41.71875 C 56.53125 41.488281 56.683594 40.796875 56.839844 40.335938 C 56.914062 39.875 56.988281 39.417969 56.988281 38.878906 C 56.988281 38.496094 56.839844 38.1875 56.839844 37.804688 C 56.914062 37.882812 57.21875 37.957031 57.375 39.265625 C 57.453125 39.800781 57.375 40.414062 57.300781 40.953125 C 57.300781 41.488281 57.21875 42.484375 57.21875 43.027344 C 57.21875 43.636719 57.375 44.328125 57.453125 44.945312 C 57.605469 45.636719 57.910156 46.402344 58.140625 47.09375 C 58.222656 47.476562 58.449219 47.859375 58.679688 48.167969 C 58.757812 48.320312 58.988281 48.472656 59.140625 48.472656 C 59.21875 48.398438 59.292969 48.167969 59.292969 48.089844 C 59.292969 47.628906 59.21875 47.398438 59.21875 46.632812 C 59.21875 45.785156 59.0625 44.714844 59.140625 43.792969 C 59.140625 43.5625 59.292969 42.253906 59.292969 41.875 C 59.371094 41.027344 59.292969 40.183594 59.0625 39.417969 C 58.832031 38.648438 58.371094 37.882812 57.910156 37.269531 C 57.679688 36.960938 57.375 36.578125 57.070312 36.421875 C 56.988281 36.347656 56.761719 36.269531 56.609375 36.269531 C 56.453125 35.964844 56.148438 35.503906 55.917969 35.273438 C 55.53125 34.808594 54.921875 34.503906 54.382812 34.273438 C 53.921875 34.042969 53.386719 33.890625 52.847656 33.8125 C 52.078125 33.738281 51.390625 33.8125 50.703125 33.96875 C 50.160156 34.042969 49.320312 34.273438 48.78125 34.429688 C 48.472656 34.503906 48.167969 34.582031 47.785156 34.660156 C 46.789062 34.890625 45.710938 35.039062 44.558594 35.121094 C 43.792969 35.121094 42.949219 35.121094 42.183594 34.808594 C 41.492188 34.582031 40.875 34.199219 40.265625 33.660156 C 39.726562 33.121094 39.113281 32.585938 38.652344 31.96875 C 38.191406 31.433594 37.65625 30.820312 37.269531 30.28125 C 36.886719 29.746094 36.351562 29.128906 35.8125 28.671875 C 35.355469 28.210938 34.8125 27.828125 34.203125 27.597656 C 33.816406 27.441406 33.433594 27.289062 33.050781 27.136719 C 32.894531 27.136719 32.664062 27.058594 32.515625 26.980469 C 32.4375 26.753906 32.359375 26.445312 32.28125 26.214844 C 32.207031 26.0625 31.976562 25.523438 31.898438 25.292969 C 31.824219 25.371094 31.4375 27.058594 31.4375 27.210938 C 31.4375 27.289062 31.285156 27.441406 31.285156 27.441406 C 31.054688 27.75 30.671875 28.363281 30.363281 28.746094 C 29.980469 29.210938 29.523438 30.050781 29.292969 30.359375 C 29.0625 30.667969 29.0625 30.820312 29.0625 30.972656 C 29.0625 31.050781 29.0625 31.203125 29.0625 31.28125 C 28.980469 31.507812 28.753906 31.894531 28.601562 32.199219 C 28.523438 32.28125 28.445312 32.511719 28.371094 32.585938 C 28.214844 32.890625 28.140625 33.203125 27.984375 33.429688 C 27.753906 33.8125 27.601562 34.199219 27.523438 34.660156 C 27.449219 34.890625 27.371094 35.121094 27.371094 35.351562 C 27.371094 35.578125 27.523438 35.730469 27.679688 35.886719 C 27.835938 35.964844 27.910156 36.039062 28.0625 36.039062 C 28.0625 36.039062 28.601562 36.269531 28.753906 36.269531 C 28.832031 36.269531 28.980469 36.269531 29.0625 36.191406 C 29.0625 36.039062 29.136719 35.808594 29.136719 35.808594 C 29.210938 35.65625 29.292969 35.578125 29.367188 35.503906 C 29.523438 35.351562 30.058594 34.890625 30.132812 34.808594 C 30.363281 34.660156 30.59375 34.503906 30.824219 34.429688 C 31.054688 34.351562 31.746094 34.121094 31.898438 33.96875 C 32.128906 33.8125 32.359375 33.582031 32.515625 33.351562 C 32.664062 33.203125 32.742188 32.890625 32.820312 32.890625 C 33.050781 32.816406 33.355469 33.582031 33.585938 33.890625 C 34.046875 34.503906 34.351562 35.195312 34.585938 35.964844 C 34.8125 36.882812 35.042969 37.882812 35.199219 38.804688 C 35.273438 39.1875 35.503906 40.722656 35.660156 41.105469 C 35.734375 41.488281 35.964844 42.023438 36.195312 42.335938 C 36.273438 42.640625 36.425781 42.945312 36.582031 43.257812 C 36.8125 43.867188 36.964844 44.484375 37.039062 45.175781 C 37.117188 46.097656 37.195312 47.167969 37.195312 48.089844 C 37.195312 48.246094 37.195312 48.472656 37.195312 48.628906 C 37.195312 48.703125 37.269531 50.316406 37.269531 50.777344 C 37.269531 51.238281 37.269531 51.699219 37.269531 52.082031 C 37.269531 52.234375 37.269531 52.3125 37.347656 52.464844 C 37.195312 52.621094 37.195312 52.769531 37.195312 52.769531 C 37.195312 52.851562 37.269531 53.082031 37.269531 53.230469 C 37.195312 53.3125 36.964844 53.617188 36.886719 53.773438 C 36.8125 53.847656 36.65625 54.382812 36.65625 54.539062 L 23.304688 54.539062 L 23.304688 55.765625 "/>
<path style=" stroke:none;fill-rule:nonzero;fill:rgb(100%,100%,100%);fill-opacity:1;" d="M 38.484375 54.542969 C 38.484375 54.386719 38.640625 53.851562 38.5625 53.695312 C 38.5625 53.621094 38.484375 53.390625 38.484375 53.316406 C 38.484375 53.238281 38.871094 52.855469 38.871094 52.777344 C 38.871094 52.699219 38.871094 52.625 38.792969 52.46875 C 38.792969 52.394531 38.71875 52.164062 38.71875 52.085938 C 38.640625 51.777344 38.640625 51.394531 38.640625 51.164062 C 38.640625 51.011719 38.71875 50.703125 38.71875 50.550781 C 38.792969 50.320312 38.871094 49.324219 38.871094 49.171875 C 38.945312 49.015625 39.023438 48.554688 39.023438 48.402344 C 39.023438 48.25 39.023438 48.019531 39.023438 47.863281 C 39.023438 47.863281 39.40625 45.714844 39.40625 45.484375 C 39.484375 45.179688 39.558594 44.792969 39.558594 44.488281 C 39.636719 44.332031 39.714844 43.566406 39.789062 43.335938 C 41.476562 43.796875 43.476562 43.953125 44.855469 43.640625 C 48.308594 42.796875 49.152344 42.261719 50.457031 41.953125 C 50.535156 41.953125 50.609375 42.875 50.6875 43.179688 C 50.839844 43.71875 51.148438 44.257812 51.453125 44.71875 C 51.683594 45.484375 52.21875 45.789062 52.53125 46.332031 C 52.679688 46.5625 52.835938 46.867188 52.992188 47.171875 C 52.992188 47.328125 53.066406 47.402344 53.066406 47.558594 C 53.066406 47.789062 52.992188 48.171875 52.910156 48.480469 C 52.605469 49.398438 52.21875 50.703125 51.914062 51.625 C 51.914062 51.703125 51.53125 52.394531 51.453125 52.546875 C 51.453125 52.699219 51.378906 53.007812 51.300781 53.160156 C 51.222656 53.390625 50.992188 53.621094 50.917969 53.851562 C 50.839844 54.007812 50.761719 54.3125 50.6875 54.542969 L 38.484375 54.542969 "/>
<path style=" stroke:none;fill-rule:nonzero;fill:rgb(100%,100%,100%);fill-opacity:1;" d="M 52.53125 54.542969 C 52.53125 54.386719 52.53125 54.3125 52.53125 54.15625 C 52.53125 54.082031 52.457031 53.542969 52.53125 53.390625 C 52.53125 53.390625 52.765625 53.160156 52.84375 53.085938 C 52.917969 53.085938 52.992188 53.007812 53.074219 52.929688 C 53.148438 52.777344 53.300781 52.007812 53.378906 51.855469 C 53.457031 51.394531 53.683594 50.933594 53.914062 50.550781 C 54.070312 50.242188 54.453125 49.550781 54.605469 49.324219 C 54.757812 49.09375 55.066406 48.632812 55.144531 48.480469 L 55.144531 47.097656 C 55.21875 47.402344 55.679688 47.402344 55.679688 48.554688 C 55.679688 48.785156 55.679688 49.324219 55.679688 49.550781 C 55.605469 50.015625 55.605469 50.550781 55.605469 51.011719 L 55.605469 51.242188 C 55.605469 51.472656 55.605469 51.777344 55.605469 52.085938 C 55.605469 52.238281 55.605469 52.699219 55.527344 52.855469 C 55.449219 53.160156 55.296875 53.46875 55.144531 53.695312 C 55.066406 53.851562 54.914062 54.082031 54.835938 54.234375 C 54.835938 54.3125 54.757812 54.46875 54.757812 54.542969 L 52.53125 54.542969 "/>
</g>
</svg>
