<?xml version="1.0" encoding="UTF-8"?>
<svg xmlns="http://www.w3.org/2000/svg" xmlns:xlink="http://www.w3.org/1999/xlink" width="85pt" height="86pt" viewBox="0 0 85 86" version="1.1">
<g id="surface1">
<path style=" stroke:none;fill-rule:nonzero;fill:rgb(93.527222%,17.272949%,18.882751%);fill-opacity:1;" d="M 63.777344 6.355469 C 84.109375 18.09375 91.078125 44.09375 79.335938 64.429688 C 67.597656 84.761719 41.59375 91.730469 21.261719 79.988281 C 0.929688 68.25 -6.039062 42.25 5.703125 21.917969 C 17.441406 1.582031 43.441406 -5.382812 63.777344 6.355469 "/>
<path style=" stroke:none;fill-rule:nonzero;fill:rgb(100%,100%,100%);fill-opacity:1;" d="M 19.902344 26.089844 L 42.410156 39.082031 L 65.078125 26 C 62.792969 22.996094 59.996094 20.542969 56.6875 18.632812 C 53.355469 16.710938 49.800781 15.511719 46.03125 15.042969 C 42.378906 14.589844 38.761719 14.84375 35.183594 15.800781 C 31.601562 16.757812 28.347656 18.351562 25.414062 20.566406 C 23.304688 22.15625 21.472656 23.996094 19.902344 26.089844 "/>
<path style=" stroke:none;fill-rule:nonzero;fill:rgb(100%,100%,100%);fill-opacity:1;" d="M 39.03125 71.3125 L 39.03125 45.320312 L 16.367188 32.230469 C 15.363281 34.605469 14.703125 37.085938 14.382812 39.667969 C 13.929688 43.316406 14.179688 46.929688 15.140625 50.511719 C 16.097656 54.089844 17.6875 57.347656 19.90625 60.28125 C 22.199219 63.316406 25.011719 65.796875 28.34375 67.722656 C 31.683594 69.644531 35.234375 70.84375 39.007812 71.308594 C 39.015625 71.308594 39.027344 71.3125 39.03125 71.3125 "/>
<path style=" stroke:none;fill-rule:nonzero;fill:rgb(100%,100%,100%);fill-opacity:1;" d="M 68.628906 32.128906 L 46.121094 45.125 L 46.121094 71.292969 C 47.367188 71.128906 48.613281 70.882812 49.851562 70.550781 C 53.429688 69.59375 56.6875 68.003906 59.625 65.785156 C 62.65625 63.492188 65.136719 60.679688 67.0625 57.34375 C 68.988281 54.011719 70.183594 50.460938 70.65625 46.6875 C 71.105469 43.03125 70.851562 39.417969 69.894531 35.839844 C 69.554688 34.558594 69.128906 33.324219 68.628906 32.128906 "/>
<path style=" stroke:none;fill-rule:nonzero;fill:rgb(13.729858%,12.159729%,12.548828%);fill-opacity:1;" d="M 28.902344 53.796875 L 25.152344 53.820312 C 25.074219 53.820312 25 53.820312 24.949219 53.820312 C 24.894531 53.796875 24.84375 53.796875 24.820312 53.769531 C 24.742188 53.746094 24.695312 53.71875 24.667969 53.667969 C 24.640625 53.617188 24.613281 53.570312 24.613281 53.519531 C 24.613281 53.46875 24.613281 53.417969 24.613281 53.367188 C 24.640625 53.316406 24.667969 53.265625 24.71875 53.214844 C 24.71875 53.191406 24.792969 53.140625 24.820312 53.140625 C 24.84375 53.113281 24.871094 53.085938 24.894531 53.0625 L 24.003906 51.871094 C 24.003906 51.871094 23.925781 51.722656 23.800781 51.773438 C 23.695312 51.796875 23.695312 51.949219 23.695312 51.949219 L 23.671875 52.683594 C 23.671875 52.710938 23.671875 52.785156 23.644531 52.808594 C 23.644531 52.835938 23.644531 52.886719 23.621094 52.886719 C 23.59375 52.910156 23.441406 52.960938 23.390625 52.960938 C 23.363281 52.960938 23.339844 52.933594 23.316406 52.933594 C 23.316406 52.984375 23.289062 53.011719 23.289062 53.0625 C 22.851562 55.039062 20.25 55.621094 18.902344 54.277344 C 18.109375 53.519531 17.777344 52.328125 18.414062 51.214844 C 18.441406 51.164062 18.488281 51.089844 18.539062 51.0625 L 18.414062 50.988281 C 18.414062 50.964844 18.363281 50.910156 18.363281 50.886719 C 18.363281 50.863281 18.363281 50.835938 18.363281 50.785156 C 18.390625 50.757812 18.414062 50.679688 18.464844 50.65625 C 18.59375 50.507812 18.746094 50.355469 18.902344 50.253906 C 19.078125 50.101562 19.28125 50.003906 19.511719 49.898438 C 19.71875 49.796875 19.96875 49.695312 20.199219 49.667969 C 20.40625 49.621094 20.609375 49.59375 20.835938 49.621094 C 20.917969 49.621094 21.171875 49.644531 21.199219 49.644531 L 21.199219 49.113281 C 21.199219 49.085938 21.199219 48.984375 21.246094 48.9375 C 21.296875 48.886719 21.425781 48.886719 21.449219 48.910156 C 21.527344 48.9375 21.707031 48.984375 21.707031 48.984375 C 21.730469 48.960938 21.785156 48.910156 21.808594 48.886719 C 21.859375 48.835938 21.910156 48.785156 21.960938 48.761719 C 22.066406 48.660156 22.214844 48.609375 22.371094 48.582031 C 22.652344 48.558594 22.878906 48.609375 23.132812 48.683594 L 23.441406 48.785156 C 23.464844 48.761719 23.800781 48.632812 23.875 48.632812 C 23.953125 48.632812 24.050781 48.632812 24.132812 48.660156 C 24.230469 48.683594 24.769531 48.808594 24.820312 48.808594 C 24.84375 48.808594 24.894531 48.785156 24.917969 48.761719 L 24.769531 48.175781 C 24.742188 48.125 24.640625 47.925781 24.640625 47.898438 C 24.613281 47.847656 24.589844 47.796875 24.589844 47.746094 C 24.5625 47.699219 24.5625 47.648438 24.539062 47.59375 C 24.539062 47.566406 24.539062 47.542969 24.539062 47.519531 C 24.511719 47.519531 24.464844 47.542969 24.4375 47.542969 C 24.386719 47.566406 24.332031 47.59375 24.308594 47.59375 C 24.28125 47.59375 24.257812 47.566406 24.207031 47.566406 C 24.183594 47.542969 24.15625 47.519531 24.15625 47.492188 C 24.132812 47.46875 24.105469 47.417969 24.105469 47.367188 C 24.082031 47.339844 24.082031 47.316406 24.050781 47.289062 C 24.027344 47.265625 24.003906 47.238281 23.976562 47.214844 C 23.976562 47.214844 23.953125 47.214844 23.925781 47.214844 C 23.902344 47.214844 23.875 47.214844 23.875 47.214844 L 23.773438 47.214844 C 23.746094 47.214844 23.722656 47.214844 23.722656 47.214844 C 23.695312 47.191406 23.671875 47.191406 23.644531 47.164062 C 23.644531 47.140625 23.644531 47.089844 23.644531 47.0625 C 23.644531 47.015625 23.644531 46.964844 23.621094 46.914062 C 23.59375 46.886719 23.59375 46.832031 23.570312 46.78125 L 23.390625 46.40625 C 23.339844 46.328125 23.339844 46.226562 23.339844 46.152344 C 23.339844 46.046875 23.339844 45.949219 23.363281 45.847656 C 23.390625 45.746094 23.441406 45.644531 23.492188 45.542969 C 23.621094 45.367188 23.824219 45.214844 24.003906 45.136719 C 24.132812 45.113281 24.230469 45.085938 24.359375 45.085938 C 24.464844 45.0625 24.84375 45.113281 24.949219 45.164062 C 25.023438 45.214844 25.101562 45.238281 25.175781 45.316406 C 25.253906 45.394531 25.304688 45.445312 25.355469 45.519531 C 25.457031 45.671875 25.480469 45.847656 25.507812 46 C 25.507812 46.101562 25.535156 46.253906 25.535156 46.328125 C 25.558594 46.328125 25.992188 46.40625 26.09375 46.40625 C 26.171875 46.40625 26.65625 46.457031 26.734375 46.480469 C 26.835938 46.507812 27.398438 46.78125 27.523438 46.886719 C 27.703125 47.0625 28.390625 47.648438 28.722656 47.972656 C 28.925781 48.125 29.15625 48.378906 29.363281 48.53125 C 29.4375 48.609375 29.84375 48.960938 29.921875 49.0625 C 30 49.136719 30.074219 49.242188 30.152344 49.34375 C 30.203125 49.445312 30.230469 49.570312 30.253906 49.695312 C 30.28125 49.773438 30.28125 49.871094 30.28125 49.972656 C 30.28125 50.050781 30.253906 50.128906 30.230469 50.203125 C 30.230469 50.328125 30.203125 50.378906 30.125 50.457031 L 31.097656 51.089844 L 31.148438 51.011719 C 31.273438 50.835938 31.429688 50.632812 31.554688 50.507812 C 31.582031 50.457031 31.710938 50.355469 31.734375 50.328125 C 31.761719 50.304688 31.785156 50.253906 31.785156 50.226562 C 31.785156 50.175781 31.785156 50.152344 31.761719 50.128906 C 31.710938 50.027344 31.605469 49.972656 31.453125 49.921875 C 31.402344 49.898438 31.324219 49.871094 31.25 49.847656 L 30.816406 49.695312 C 30.792969 49.667969 30.738281 49.667969 30.710938 49.621094 C 30.636719 49.542969 30.636719 49.367188 30.710938 49.292969 C 30.765625 49.269531 30.792969 49.242188 30.84375 49.21875 L 34.820312 49.136719 L 35.355469 49.164062 C 35.40625 49.21875 35.535156 49.394531 35.535156 49.445312 C 35.5625 49.492188 35.5625 49.570312 35.535156 49.621094 C 35.535156 49.667969 35.484375 49.71875 35.460938 49.746094 L 35.355469 49.871094 C 35.304688 49.898438 35.28125 49.949219 35.253906 50.003906 C 35.253906 50.027344 35.253906 50.050781 35.253906 50.078125 C 35.253906 50.128906 35.253906 50.152344 35.28125 50.175781 C 35.304688 50.203125 35.355469 50.226562 35.382812 50.253906 C 35.511719 50.328125 35.660156 50.480469 35.765625 50.582031 C 35.894531 50.679688 35.96875 50.835938 36.046875 50.988281 C 36.097656 51.0625 36.148438 51.164062 36.171875 51.265625 C 36.171875 51.289062 36.171875 51.339844 36.199219 51.367188 C 36.222656 51.367188 36.304688 51.367188 36.304688 51.367188 C 36.351562 51.367188 36.378906 51.367188 36.402344 51.390625 C 36.429688 51.390625 36.453125 51.414062 36.480469 51.441406 C 36.480469 51.46875 36.480469 51.570312 36.480469 51.570312 L 36.480469 53.265625 C 36.480469 53.292969 36.480469 53.367188 36.453125 53.394531 C 36.429688 53.417969 36.402344 53.445312 36.378906 53.46875 C 36.351562 53.46875 36.304688 53.46875 36.25 53.46875 C 36.222656 53.46875 36.171875 53.46875 36.148438 53.46875 C 36.097656 53.445312 36.074219 53.417969 36.023438 53.417969 C 36.023438 53.394531 35.992188 53.394531 35.96875 53.394531 C 35.96875 53.417969 35.945312 53.445312 35.945312 53.492188 C 35.585938 54.328125 34.617188 55.011719 33.648438 55.011719 C 32.472656 55.011719 31.378906 54.277344 31.097656 53.0625 C 31.074219 53.035156 31.074219 52.984375 31.042969 52.960938 L 28.902344 53.796875 "/>
<path style=" stroke:none;fill-rule:nonzero;fill:rgb(13.729858%,12.159729%,12.548828%);fill-opacity:1;" d="M 60.5625 53.230469 L 58.308594 53.28125 L 58.335938 54.109375 L 58.710938 54.085938 L 58.710938 54.335938 L 57.683594 54.359375 L 57.65625 54.109375 L 58.011719 54.085938 L 57.984375 53.28125 L 57.53125 53.28125 C 57.386719 53.28125 57.234375 53.28125 57.105469 53.230469 C 56.632812 53.078125 56.257812 52.707031 56.207031 52.203125 C 56.183594 51.847656 56.335938 51.5 56.582031 51.246094 C 56.605469 51.222656 56.65625 51.195312 56.65625 51.171875 L 56.382812 50.769531 L 56.507812 50.542969 C 56.53125 50.445312 56.605469 50.320312 56.605469 50.21875 L 54.679688 49.035156 C 54.605469 48.984375 54.480469 48.910156 54.40625 48.835938 C 54.328125 48.785156 54.253906 48.710938 54.207031 48.632812 C 54.128906 48.558594 53.980469 48.132812 53.980469 48.058594 L 53.578125 48.835938 L 53.679688 48.886719 C 54.277344 49.363281 54.480469 49.539062 54.730469 49.988281 C 55.054688 50.496094 55.207031 51.070312 55.257812 51.675781 C 55.257812 51.675781 55.179688 51.75 55.15625 51.75 L 54.980469 51.773438 C 55.03125 53.984375 52.851562 55.542969 50.777344 54.816406 C 48.746094 54.085938 48.023438 51.574219 49.347656 49.863281 L 49.222656 49.765625 C 49.148438 49.714844 49.097656 49.636719 49.148438 49.589844 L 49.25 49.488281 C 49.421875 49.3125 49.699219 49.0625 49.921875 48.910156 C 50.273438 48.683594 50.648438 48.511719 51.046875 48.433594 C 51.726562 48.285156 52.402344 48.335938 53.054688 48.582031 C 53.105469 48.582031 53.175781 48.609375 53.226562 48.632812 L 53.703125 47.628906 C 53.679688 47.628906 53.203125 47.753906 53.152344 47.753906 C 53.128906 47.753906 53.078125 47.753906 53.054688 47.730469 C 53.027344 47.703125 53.003906 47.679688 53.003906 47.628906 L 53.003906 46.878906 L 53.003906 46.925781 C 53.003906 46.925781 52.976562 46.777344 53.054688 46.699219 C 53.078125 46.675781 53.152344 46.648438 53.203125 46.648438 C 53.328125 46.648438 53.453125 46.675781 53.578125 46.699219 L 54.105469 46.800781 L 54.328125 46.300781 C 54.082031 46.300781 53.777344 46 53.777344 45.671875 C 53.777344 45.417969 53.828125 45.121094 54.128906 45.121094 C 54.207031 45.121094 54.351562 45.09375 54.429688 45.09375 L 56.78125 45.121094 L 56.78125 45.417969 L 54.40625 45.417969 C 54.230469 45.417969 54.105469 45.519531 54.105469 45.644531 C 54.105469 45.871094 54.207031 45.921875 54.328125 45.949219 L 54.90625 46.097656 L 54.53125 46.902344 C 54.582031 46.878906 54.957031 46.777344 55.15625 46.800781 C 55.480469 46.851562 55.78125 46.925781 56.105469 47.152344 C 56.507812 47.40625 56.808594 47.90625 56.886719 48.285156 L 56.910156 48.886719 C 56.910156 49.011719 56.929688 49.136719 56.980469 49.265625 C 57.105469 49.515625 57.410156 49.738281 57.734375 49.914062 C 57.910156 49.988281 58.261719 50.066406 58.460938 50.117188 C 58.632812 50.140625 59.0625 50.292969 59.136719 50.167969 L 60.964844 46.625 C 60.914062 46.625 60.511719 46.523438 60.386719 46.472656 C 60.164062 46.371094 59.859375 46.25 59.8125 46.023438 C 59.734375 45.820312 59.960938 45.542969 60.210938 45.621094 C 60.488281 45.621094 60.886719 45.796875 61.214844 45.796875 C 61.488281 45.820312 62.039062 45.746094 62.316406 45.746094 C 62.640625 45.746094 62.765625 46.25 62.589844 46.472656 C 62.539062 46.597656 62.316406 46.777344 62.066406 46.828125 C 61.914062 46.851562 61.539062 46.828125 61.515625 46.777344 L 62.292969 48.53125 C 62.363281 48.511719 62.464844 48.460938 62.566406 48.433594 C 62.890625 48.359375 63.269531 48.335938 63.617188 48.359375 C 64.496094 48.433594 65.320312 48.859375 65.917969 49.515625 C 66.195312 49.789062 66.421875 50.140625 66.523438 50.519531 C 66.546875 50.570312 66.546875 50.621094 66.546875 50.621094 L 66.921875 50.644531 C 66.945312 50.644531 67.046875 50.644531 67.074219 50.671875 C 67.097656 50.691406 67.097656 50.742188 67.097656 50.792969 L 67.097656 52.226562 C 67.097656 52.277344 67.097656 52.328125 67.046875 52.351562 L 66.496094 52.476562 C 66.097656 53.785156 64.945312 54.714844 63.589844 54.816406 C 62.363281 54.890625 61.214844 54.285156 60.5625 53.230469 "/>
<path style=" stroke:none;fill-rule:nonzero;fill:rgb(13.729858%,12.159729%,12.548828%);fill-opacity:1;" d="M 50.425781 29.054688 L 50.425781 31.472656 C 50.425781 31.511719 50.425781 31.558594 50.417969 31.601562 C 50.414062 31.644531 50.40625 31.707031 50.382812 31.742188 C 50.351562 31.78125 50.304688 31.804688 50.261719 31.816406 C 50.214844 31.828125 50.160156 31.832031 50.113281 31.832031 L 49.164062 31.832031 C 49.128906 31.832031 49.082031 31.828125 49.042969 31.820312 C 49 31.808594 48.953125 31.789062 48.929688 31.753906 C 48.90625 31.726562 48.894531 31.691406 48.886719 31.660156 C 48.878906 31.609375 48.871094 31.558594 48.871094 31.511719 L 48.871094 29.304688 C 48.820312 29.308594 48.722656 29.328125 48.671875 29.335938 C 47.824219 29.46875 46.421875 29.511719 45.566406 29.527344 C 45.066406 29.539062 42.890625 29.585938 42.386719 29.585938 C 41.421875 29.585938 40.394531 29.554688 39.429688 29.519531 C 38.527344 29.484375 37.285156 29.421875 36.382812 29.371094 L 36.175781 29.363281 L 36.175781 31.609375 C 36.171875 31.664062 36.152344 31.722656 36.117188 31.761719 C 36.085938 31.796875 36.042969 31.816406 36 31.828125 C 35.984375 31.832031 35.847656 31.832031 35.832031 31.832031 L 34.941406 31.832031 C 34.925781 31.832031 34.84375 31.832031 34.832031 31.828125 C 34.78125 31.820312 34.726562 31.796875 34.691406 31.757812 C 34.65625 31.71875 34.644531 31.65625 34.640625 31.605469 C 34.640625 31.59375 34.640625 31.476562 34.640625 31.460938 L 34.640625 29.035156 L 34 29.035156 C 33.976562 29.035156 33.871094 29.039062 33.851562 29.035156 C 33.796875 29.023438 33.75 28.996094 33.710938 28.957031 C 33.675781 28.921875 33.648438 28.875 33.636719 28.824219 C 33.621094 28.765625 33.625 28.648438 33.628906 28.582031 C 33.644531 28.335938 33.632812 27.972656 33.621094 27.722656 C 33.609375 27.441406 33.589844 27.042969 33.566406 26.765625 C 33.53125 26.398438 33.472656 26.027344 33.378906 25.671875 C 33.359375 25.597656 33.300781 25.398438 33.292969 25.324219 C 33.265625 25.152344 33.269531 24.976562 33.300781 24.808594 C 33.332031 24.621094 33.386719 24.4375 33.472656 24.273438 C 33.613281 24.007812 33.824219 23.789062 34.074219 23.617188 C 34.246094 23.496094 34.453125 23.398438 34.660156 23.359375 C 34.699219 23.347656 34.753906 23.34375 34.796875 23.335938 L 37.324219 20.023438 C 37.351562 19.984375 37.382812 19.953125 37.414062 19.917969 C 37.449219 19.882812 37.496094 19.847656 37.542969 19.824219 C 37.601562 19.796875 37.679688 19.789062 37.746094 19.785156 C 37.773438 19.785156 37.867188 19.785156 37.894531 19.785156 L 47.09375 19.785156 C 47.140625 19.785156 47.203125 19.785156 47.25 19.789062 C 47.308594 19.792969 47.378906 19.804688 47.433594 19.828125 C 47.492188 19.851562 47.539062 19.886719 47.582031 19.929688 C 47.589844 19.9375 47.679688 20.050781 47.683594 20.058594 L 50.292969 23.363281 C 50.347656 23.378906 50.421875 23.402344 50.472656 23.421875 C 50.652344 23.480469 50.820312 23.5625 50.96875 23.671875 C 51.175781 23.820312 51.347656 24.011719 51.472656 24.234375 C 51.605469 24.464844 51.691406 24.722656 51.703125 24.980469 C 51.710938 25.183594 51.640625 25.582031 51.605469 25.777344 C 51.566406 25.992188 51.527344 26.238281 51.5 26.457031 C 51.46875 26.691406 51.4375 26.941406 51.410156 27.179688 C 51.394531 27.386719 51.378906 27.601562 51.371094 27.808594 C 51.363281 28.035156 51.371094 28.261719 51.394531 28.484375 C 51.398438 28.550781 51.40625 28.679688 51.40625 28.75 C 51.402344 28.816406 51.386719 28.894531 51.34375 28.953125 C 51.308594 29 51.261719 29.035156 51.203125 29.050781 C 51.175781 29.058594 51.089844 29.058594 51.0625 29.058594 L 50.425781 29.054688 "/>
<path style=" stroke:none;fill-rule:nonzero;fill:rgb(100%,100%,100%);fill-opacity:1;" d="M 35.117188 24.246094 C 35.761719 24.242188 36.292969 24.746094 36.296875 25.378906 C 36.296875 26.019531 35.757812 26.535156 35.105469 26.527344 C 34.464844 26.519531 33.957031 26.003906 33.960938 25.378906 C 33.964844 24.753906 34.480469 24.25 35.117188 24.246094 "/>
<path style=" stroke:none;fill-rule:nonzero;fill:rgb(100%,100%,100%);fill-opacity:1;" d="M 40.246094 25.390625 L 40.246094 27.96875 L 36.867188 27.96875 C 36.851562 27.96875 36.753906 27.96875 36.734375 27.96875 C 36.621094 27.960938 36.503906 27.921875 36.429688 27.839844 C 36.359375 27.765625 36.332031 27.667969 36.339844 27.570312 C 36.351562 27.507812 36.367188 27.449219 36.398438 27.394531 L 37.460938 25.617188 C 37.480469 25.585938 37.511719 25.535156 37.535156 25.507812 C 37.578125 25.464844 37.628906 25.425781 37.6875 25.40625 C 37.742188 25.386719 37.832031 25.382812 37.894531 25.382812 L 38.042969 25.390625 L 40.246094 25.390625 "/>
<path style=" stroke:none;fill-rule:nonzero;fill:rgb(100%,100%,100%);fill-opacity:1;" d="M 40.496094 25.390625 L 44.546875 25.390625 L 44.546875 27.96875 L 40.496094 27.96875 L 40.496094 25.390625 "/>
<path style=" stroke:none;fill-rule:nonzero;fill:rgb(100%,100%,100%);fill-opacity:1;" d="M 44.824219 25.390625 L 46.972656 25.390625 C 47.027344 25.390625 47.113281 25.390625 47.164062 25.390625 C 47.234375 25.394531 47.328125 25.402344 47.390625 25.433594 C 47.441406 25.457031 47.488281 25.5 47.523438 25.546875 C 47.539062 25.566406 47.578125 25.632812 47.59375 25.652344 L 48.640625 27.378906 C 48.664062 27.417969 48.6875 27.464844 48.699219 27.511719 C 48.726562 27.605469 48.714844 27.707031 48.664062 27.792969 C 48.609375 27.882812 48.519531 27.941406 48.410156 27.964844 C 48.390625 27.96875 48.226562 27.96875 48.203125 27.96875 L 44.824219 27.96875 L 44.824219 25.390625 "/>
<path style=" stroke:none;fill-rule:nonzero;fill:rgb(100%,100%,100%);fill-opacity:1;" d="M 49.917969 24.238281 C 50.5625 24.242188 51.078125 24.761719 51.078125 25.394531 C 51.074219 26.035156 50.535156 26.546875 49.878906 26.539062 C 49.238281 26.53125 48.71875 26.027344 48.714844 25.394531 C 48.710938 24.746094 49.257812 24.230469 49.917969 24.238281 "/>
<path style=" stroke:none;fill-rule:nonzero;fill:rgb(100%,100%,100%);fill-opacity:1;" d="M 49.542969 23.464844 C 49.492188 23.464844 49.40625 23.46875 49.355469 23.46875 L 46 23.207031 C 44.960938 23.128906 43.222656 23.128906 42.179688 23.136719 C 41.3125 23.140625 39.695312 23.152344 38.828125 23.191406 L 35.683594 23.390625 C 35.621094 23.394531 35.558594 23.398438 35.5 23.402344 L 37.660156 20.632812 C 37.675781 20.609375 37.703125 20.574219 37.726562 20.554688 C 37.765625 20.515625 37.8125 20.484375 37.863281 20.464844 C 37.914062 20.449219 37.976562 20.4375 38.03125 20.433594 C 38.078125 20.429688 38.128906 20.429688 38.175781 20.429688 L 46.835938 20.429688 C 46.882812 20.429688 46.941406 20.429688 46.988281 20.433594 C 47.039062 20.4375 47.097656 20.449219 47.148438 20.460938 C 47.195312 20.476562 47.238281 20.503906 47.277344 20.53125 C 47.304688 20.558594 47.339844 20.601562 47.367188 20.632812 L 49.542969 23.464844 "/>
<path style=" stroke:none;fill-rule:nonzero;fill:rgb(100%,100%,100%);fill-opacity:1;" d="M 54.269531 51.984375 L 52.414062 51.984375 C 52.414062 52.238281 52.089844 52.464844 51.785156 52.464844 C 51.335938 52.464844 50.960938 51.9375 51.191406 51.558594 C 51.191406 51.511719 51.234375 51.460938 51.261719 51.410156 L 50.210938 49.902344 C 48.785156 51.132812 49.210938 53.445312 50.960938 54.097656 C 52.488281 54.671875 54.140625 53.617188 54.269531 51.984375 "/>
<path style=" stroke:none;fill-rule:nonzero;fill:rgb(100%,100%,100%);fill-opacity:1;" d="M 52.328125 51.441406 L 53.152344 49.734375 C 53.175781 49.761719 53.226562 49.785156 53.253906 49.808594 C 53.554688 49.988281 53.777344 50.261719 53.953125 50.539062 C 54.128906 50.839844 54.226562 51.191406 54.253906 51.519531 C 54.277344 51.566406 54.277344 51.617188 54.277344 51.644531 L 52.453125 51.695312 C 52.453125 51.667969 52.453125 51.617188 52.425781 51.542969 C 52.402344 51.492188 52.351562 51.441406 52.328125 51.441406 "/>
<path style=" stroke:none;fill-rule:nonzero;fill:rgb(100%,100%,100%);fill-opacity:1;" d="M 51.523438 51.242188 L 50.449219 49.734375 C 50.496094 49.710938 50.523438 49.683594 50.574219 49.660156 C 50.871094 49.484375 51.226562 49.386719 51.574219 49.335938 C 51.949219 49.308594 52.347656 49.335938 52.703125 49.484375 C 52.726562 49.511719 52.777344 49.535156 52.800781 49.535156 L 52 51.21875 C 51.972656 51.21875 51.898438 51.167969 51.777344 51.167969 C 51.699219 51.167969 51.597656 51.167969 51.523438 51.242188 "/>
<path style=" stroke:none;fill-rule:nonzero;fill:rgb(100%,100%,100%);fill-opacity:1;" d="M 59.636719 50.847656 L 61.261719 47.203125 L 61.9375 48.6875 C 61.914062 48.714844 61.863281 48.738281 61.839844 48.761719 C 61.4375 48.964844 61.109375 49.242188 60.8125 49.566406 C 60.511719 49.917969 60.234375 50.324219 60.136719 50.773438 C 60.136719 50.796875 60.109375 50.847656 60.109375 50.871094 L 59.636719 50.847656 "/>
<path style=" stroke:none;fill-rule:nonzero;fill:rgb(100%,100%,100%);fill-opacity:1;" d="M 62.332031 49.574219 L 62.882812 50.878906 C 62.882812 50.878906 62.882812 50.90625 62.855469 50.90625 C 62.78125 50.90625 62.628906 51.082031 62.628906 51.183594 L 61.050781 51.183594 C 61.101562 50.78125 61.28125 50.378906 61.527344 50.078125 C 61.753906 49.851562 62.027344 49.671875 62.332031 49.574219 "/>
<path style=" stroke:none;fill-rule:nonzero;fill:rgb(100%,100%,100%);fill-opacity:1;" d="M 65.820312 51.492188 L 64.34375 51.46875 C 64.34375 51.441406 64.242188 51.140625 63.992188 50.941406 C 63.792969 50.789062 63.539062 50.765625 63.292969 50.765625 L 62.691406 49.433594 C 63.394531 49.207031 64.167969 49.332031 64.769531 49.761719 C 65.367188 50.160156 65.742188 50.789062 65.820312 51.492188 "/>
<path style=" stroke:none;fill-rule:nonzero;fill:rgb(100%,100%,100%);fill-opacity:1;" d="M 63.410156 52.8125 L 63.410156 52.988281 L 64.238281 52.988281 L 64.238281 53.242188 L 61.511719 53.242188 C 61.535156 53.292969 61.558594 53.34375 61.585938 53.367188 C 62.238281 54.21875 63.410156 54.398438 64.390625 53.96875 C 65.214844 53.617188 65.789062 52.839844 65.816406 51.933594 C 65.816406 51.886719 65.816406 51.835938 65.816406 51.808594 L 64.363281 51.808594 C 64.363281 52.085938 64.265625 52.339844 64.089844 52.539062 C 63.914062 52.714844 63.664062 52.8125 63.410156 52.8125 "/>
<path style=" stroke:none;fill-rule:nonzero;fill:rgb(100%,100%,100%);fill-opacity:1;" d="M 24.203125 49.773438 L 22.59375 49.773438 C 22.542969 49.773438 22.75 49.492188 22.875 49.394531 C 23 49.289062 23.15625 49.289062 23.28125 49.289062 C 23.4375 49.289062 23.589844 49.3125 23.742188 49.394531 C 23.867188 49.46875 24 49.570312 24.097656 49.667969 C 24.125 49.695312 24.175781 49.746094 24.203125 49.773438 "/>
<path style=" stroke:none;fill-rule:nonzero;fill:rgb(100%,100%,100%);fill-opacity:1;" d="M 21.238281 52.101562 L 21.542969 51.652344 C 21.773438 51.878906 21.898438 52.179688 21.875 52.460938 C 21.875 52.761719 21.746094 53.039062 21.542969 53.246094 C 21.3125 53.472656 21.03125 53.574219 20.726562 53.574219 C 20.417969 53.574219 20.113281 53.445312 19.910156 53.21875 C 19.703125 53.015625 19.601562 52.738281 19.601562 52.460938 C 19.578125 52.15625 19.703125 51.878906 19.933594 51.652344 C 20.140625 51.445312 20.675781 51.367188 20.675781 51.367188 L 20.699219 51.878906 C 20.675781 51.878906 20.46875 51.925781 20.417969 51.953125 C 20.371094 52.003906 20.320312 52.027344 20.289062 52.078125 C 20.191406 52.179688 20.140625 52.304688 20.140625 52.460938 C 20.140625 52.609375 20.164062 52.761719 20.289062 52.890625 C 20.394531 53.015625 20.570312 53.066406 20.726562 53.066406 C 20.980469 53.066406 21.238281 52.988281 21.339844 52.636719 C 21.363281 52.484375 21.289062 52.230469 21.289062 52.15625 C 21.261719 52.128906 21.261719 52.128906 21.238281 52.101562 "/>
<path style=" stroke:none;fill-rule:nonzero;fill:rgb(100%,100%,100%);fill-opacity:1;" d="M 25.113281 52.257812 L 24.421875 51.171875 C 24.347656 50.992188 24.347656 50.765625 24.476562 50.613281 C 24.578125 50.511719 24.753906 50.511719 24.910156 50.664062 C 25.113281 50.863281 25.191406 51.273438 25.191406 51.449219 C 25.191406 51.652344 25.113281 51.980469 25.113281 52.257812 "/>
<path style=" stroke:none;fill-rule:nonzero;fill:rgb(100%,100%,100%);fill-opacity:1;" d="M 28.730469 52.585938 L 28.019531 52.511719 C 28.042969 52.484375 28.144531 52.234375 28.199219 52.15625 C 28.273438 51.976562 28.453125 51.828125 28.632812 51.652344 C 28.835938 51.449219 29.066406 51.34375 29.269531 51.21875 L 28.730469 52.585938 "/>
<path style=" stroke:none;fill-rule:nonzero;fill:rgb(100%,100%,100%);fill-opacity:1;" d="M 33.058594 52.203125 C 33.015625 52.28125 32.988281 52.382812 32.988281 52.472656 C 32.988281 52.789062 33.246094 53.046875 33.5625 53.046875 C 33.808594 53.046875 34.023438 52.890625 34.101562 52.671875 L 34.582031 52.910156 C 34.40625 53.292969 34.023438 53.570312 33.5625 53.570312 C 32.949219 53.570312 32.464844 53.089844 32.464844 52.480469 C 32.464844 52.28125 32.492188 52.128906 32.59375 51.976562 L 33.058594 52.203125 "/>
<path style=" stroke:none;fill-rule:nonzero;fill:rgb(100%,100%,100%);fill-opacity:1;" d="M 34.113281 52.269531 L 34.214844 52.242188 L 34.625 52.144531 C 34.46875 51.710938 34.0625 51.382812 33.578125 51.382812 C 33.453125 51.382812 33.324219 51.410156 33.222656 51.433594 L 33.421875 51.917969 C 33.476562 51.917969 33.527344 51.917969 33.578125 51.917969 C 33.808594 51.917969 34.015625 52.070312 34.113281 52.269531 "/>
</g>
</svg>
