<?xml version="1.0" encoding="UTF-8"?>
<svg xmlns="http://www.w3.org/2000/svg" xmlns:xlink="http://www.w3.org/1999/xlink" width="86pt" height="86pt" viewBox="0 0 86 86" version="1.1">
<g id="surface1">
<path style=" stroke:none;fill-rule:nonzero;fill:rgb(93.527222%,17.272949%,18.882751%);fill-opacity:1;" d="M 42.523438 0.648438 C 66.007812 0.648438 85.042969 19.683594 85.042969 43.167969 C 85.042969 66.652344 66.007812 85.6875 42.523438 85.6875 C 19.042969 85.6875 0.00390625 66.652344 0.00390625 43.167969 C 0.00390625 19.683594 19.042969 0.648438 42.523438 0.648438 "/>
<path style=" stroke:none;fill-rule:nonzero;fill:rgb(100%,100%,100%);fill-opacity:1;" d="M 42.527344 14.816406 C 46.378906 14.816406 50.054688 15.558594 53.558594 17.039062 C 56.949219 18.472656 59.953125 20.5 62.574219 23.121094 C 65.191406 25.738281 67.21875 28.746094 68.652344 32.136719 C 70.132812 35.636719 70.875 39.3125 70.875 43.164062 C 70.875 47.015625 70.132812 50.691406 68.652344 54.195312 C 67.21875 57.582031 65.191406 60.589844 62.574219 63.207031 C 59.953125 65.828125 56.949219 67.855469 53.558594 69.289062 C 50.054688 70.769531 46.378906 71.511719 42.527344 71.511719 C 38.675781 71.511719 35 70.769531 31.5 69.289062 C 28.109375 67.855469 25.105469 65.828125 22.484375 63.207031 C 19.863281 60.589844 17.835938 57.582031 16.402344 54.195312 C 14.921875 50.691406 14.179688 47.015625 14.179688 43.164062 C 14.179688 39.3125 14.921875 35.636719 16.402344 32.136719 C 17.835938 28.746094 19.863281 25.738281 22.484375 23.121094 C 25.105469 20.5 28.109375 18.472656 31.5 17.039062 C 35 15.558594 38.675781 14.816406 42.527344 14.816406 "/>
<path style=" stroke:none;fill-rule:nonzero;fill:rgb(13.729858%,12.159729%,12.548828%);fill-opacity:1;" d="M 63.191406 42.503906 L 63.621094 43.269531 L 32.660156 61.058594 C 32.582031 61.101562 32.449219 61.167969 32.367188 61.21875 C 32.167969 61.328125 31.945312 61.414062 31.71875 61.484375 C 31.464844 61.554688 31.199219 61.605469 30.957031 61.589844 C 30.664062 61.601562 30.382812 61.554688 30.105469 61.472656 C 29.898438 61.402344 29.703125 61.324219 29.5 61.203125 C 29.289062 61.070312 29.105469 60.933594 28.941406 60.757812 C 28.8125 60.628906 28.707031 60.492188 28.613281 60.339844 C 28.582031 60.265625 28.519531 60.152344 28.480469 60.074219 L 29.136719 59.695312 C 29.171875 59.75 29.226562 59.84375 29.257812 59.90625 C 29.386719 60.082031 29.542969 60.253906 29.699219 60.375 C 29.910156 60.558594 30.136719 60.660156 30.394531 60.730469 C 30.589844 60.792969 30.785156 60.808594 30.988281 60.804688 C 31.148438 60.78125 31.320312 60.730469 31.472656 60.699219 C 31.648438 60.652344 31.835938 60.582031 32 60.503906 L 32.328125 60.292969 L 45.859375 52.484375 L 45.652344 51.59375 C 45.648438 51.53125 45.636719 51.429688 45.628906 51.355469 C 45.636719 51.269531 45.632812 51.195312 45.660156 51.109375 C 45.660156 51.035156 45.6875 50.953125 45.707031 50.871094 C 45.746094 50.738281 45.847656 50.601562 45.949219 50.480469 C 46.011719 50.433594 46.0625 50.363281 46.140625 50.324219 L 47.617188 49.125 L 38.523438 46.621094 L 38.242188 46.523438 C 38.0625 46.484375 37.832031 46.410156 37.648438 46.332031 C 37.484375 46.273438 37.308594 46.175781 37.140625 46.078125 C 36.871094 45.921875 36.59375 45.710938 36.382812 45.457031 C 36.195312 45.234375 36.058594 44.964844 36 44.671875 C 35.964844 44.5 35.972656 44.304688 35.996094 44.140625 C 36.019531 43.972656 36.054688 43.8125 36.109375 43.664062 C 36.195312 43.4375 36.324219 43.195312 36.453125 42.996094 C 36.5 42.914062 36.59375 42.78125 36.652344 42.695312 L 37.285156 41.777344 L 25.351562 41.425781 L 25.359375 40.835938 L 25.941406 40.847656 C 25.925781 40.800781 25.925781 40.746094 25.925781 40.707031 C 25.917969 40.496094 25.953125 40.261719 26.023438 40.074219 C 26.082031 39.902344 26.164062 39.753906 26.265625 39.636719 C 26.367188 39.539062 26.527344 39.425781 26.660156 39.355469 C 26.722656 39.339844 26.816406 39.292969 26.871094 39.269531 L 33.714844 32.292969 L 33.933594 32.035156 C 34.023438 31.941406 34.171875 31.753906 34.246094 31.617188 C 34.320312 31.496094 34.378906 31.355469 34.410156 31.222656 C 34.429688 31.121094 34.429688 31.03125 34.429688 30.941406 C 34.40625 30.871094 34.390625 30.800781 34.375 30.75 C 34.335938 30.683594 34.273438 30.609375 34.195312 30.5625 C 34.144531 30.539062 34.078125 30.496094 34.027344 30.488281 C 33.945312 30.457031 33.867188 30.460938 33.785156 30.453125 C 33.714844 30.457031 33.578125 30.46875 33.507812 30.464844 C 33.164062 30.484375 32.789062 30.472656 32.457031 30.390625 C 32.125 30.308594 31.792969 30.125 31.5 29.894531 C 31.21875 29.660156 30.945312 29.371094 30.769531 29.03125 C 30.59375 28.691406 30.488281 28.308594 30.441406 27.90625 C 30.417969 27.542969 30.433594 27.167969 30.53125 26.8125 C 30.640625 26.433594 30.808594 26.078125 31.050781 25.78125 C 31.285156 25.472656 31.566406 25.230469 31.890625 25.054688 C 32.21875 24.886719 32.566406 24.785156 32.925781 24.746094 C 33.273438 24.71875 33.621094 24.769531 33.964844 24.871094 C 34.304688 24.976562 34.621094 25.152344 34.886719 25.394531 C 35.152344 25.617188 35.367188 25.914062 35.539062 26.21875 C 35.710938 26.539062 35.839844 26.894531 35.875 27.277344 C 35.886719 27.53125 35.847656 27.851562 35.820312 28.089844 C 35.804688 28.195312 35.785156 28.367188 35.75 28.460938 C 35.796875 28.476562 35.851562 28.476562 35.898438 28.480469 L 36.425781 28.492188 C 36.871094 28.511719 37.316406 28.589844 37.734375 28.699219 C 38.421875 28.898438 39.101562 29.195312 39.71875 29.546875 C 40.394531 29.9375 41.035156 30.398438 41.636719 30.910156 C 42.277344 31.449219 42.875 32.078125 43.417969 32.726562 C 43.902344 33.28125 44.371094 33.886719 44.769531 34.542969 L 45.519531 35.761719 C 45.621094 35.933594 45.867188 36.304688 45.933594 36.46875 C 46.027344 36.648438 46.113281 36.855469 46.140625 37.050781 C 46.171875 37.203125 46.160156 37.390625 46.144531 37.554688 C 46.148438 37.691406 46.140625 37.820312 46.101562 37.949219 C 46.058594 38.148438 45.992188 38.332031 45.90625 38.53125 C 45.878906 38.621094 45.816406 38.734375 45.769531 38.804688 C 45.703125 38.953125 45.605469 39.058594 45.519531 39.191406 C 45.460938 39.269531 45.332031 39.425781 45.257812 39.503906 L 43.648438 41.355469 L 55.074219 41.691406 L 55.109375 40.25 L 55.707031 40.300781 L 55.605469 43.605469 L 55.015625 43.574219 L 55.039062 42.289062 L 43.082031 41.929688 C 43.027344 41.988281 42.964844 42.042969 42.917969 42.097656 C 42.855469 42.152344 42.5625 42.425781 42.507812 42.5 C 42.378906 42.648438 42.277344 42.800781 42.179688 42.976562 C 42.125 43.078125 42.070312 43.214844 42.046875 43.355469 C 42.039062 43.417969 42.042969 43.480469 42.042969 43.546875 C 42.058594 43.660156 42.097656 43.765625 42.152344 43.859375 C 42.210938 43.96875 42.285156 44.0625 42.402344 44.109375 C 42.546875 44.21875 42.832031 44.367188 43.003906 44.425781 C 43.113281 44.484375 43.339844 44.585938 43.453125 44.636719 L 51.96875 49.03125 L 63.191406 42.503906 "/>
<path style=" stroke:none;fill-rule:nonzero;fill:rgb(100%,100%,100%);fill-opacity:1;" d="M 37.699219 41.21875 L 27.9375 40.9375 C 27.964844 40.878906 27.992188 40.816406 28.023438 40.769531 L 28.132812 40.582031 C 28.175781 40.484375 28.191406 40.425781 28.210938 40.332031 C 28.230469 40.316406 28.246094 40.175781 28.257812 40.164062 C 28.265625 40.128906 28.316406 40.027344 28.339844 40 L 28.496094 39.746094 C 28.554688 39.640625 28.621094 39.53125 28.699219 39.46875 L 32.957031 35.746094 C 33.0625 35.644531 33.1875 35.542969 33.308594 35.453125 C 33.414062 35.382812 33.539062 35.308594 33.648438 35.238281 C 33.765625 35.183594 33.902344 35.132812 34.035156 35.085938 C 34.261719 35.046875 34.515625 35.0625 34.738281 35.070312 C 35.082031 35.085938 35.429688 35.125 35.773438 35.179688 C 36.175781 35.238281 36.613281 35.347656 36.996094 35.46875 C 37.40625 35.605469 37.871094 35.832031 38.265625 36.023438 C 38.535156 36.167969 39.035156 36.4375 39.320312 36.589844 C 39.460938 36.667969 39.671875 36.808594 39.785156 36.929688 C 39.84375 37.027344 39.890625 37.128906 39.90625 37.230469 C 39.933594 37.320312 39.925781 37.410156 39.929688 37.488281 C 39.898438 37.578125 39.867188 37.660156 39.84375 37.75 C 39.816406 37.84375 39.777344 37.910156 39.710938 38 L 37.699219 41.21875 "/>
</g>
</svg>
