<?xml version="1.0" encoding="UTF-8"?>
<svg xmlns="http://www.w3.org/2000/svg" xmlns:xlink="http://www.w3.org/1999/xlink" width="87pt" height="86pt" viewBox="0 0 87 86" version="1.1">
<g id="surface1">
<path style=" stroke:none;fill-rule:nonzero;fill:rgb(93.527222%,17.272949%,18.882751%);fill-opacity:1;" d="M 43.519531 0.652344 C 67.003906 0.652344 86.039062 19.691406 86.039062 43.171875 C 86.039062 66.65625 67.003906 85.691406 43.519531 85.691406 C 20.035156 85.691406 1 66.65625 1 43.171875 C 1 19.691406 20.035156 0.652344 43.519531 0.652344 "/>
<path style=" stroke:none;fill-rule:nonzero;fill:rgb(100%,100%,100%);fill-opacity:1;" d="M 43.519531 14.828125 C 59.171875 14.828125 71.863281 27.519531 71.863281 43.171875 C 71.863281 58.828125 59.171875 71.519531 43.519531 71.519531 C 27.863281 71.519531 15.175781 58.828125 15.175781 43.171875 C 15.175781 27.519531 27.863281 14.828125 43.519531 14.828125 "/>
<path style=" stroke:none;fill-rule:nonzero;fill:rgb(13.729858%,12.159729%,12.548828%);fill-opacity:1;" d="M 56.226562 41.828125 C 55.984375 41.757812 55.480469 41.628906 54.710938 41.4375 C 52.074219 40.777344 50.179688 40.191406 49.039062 39.691406 C 47.273438 38.910156 46.386719 38.089844 46.386719 37.226562 C 46.386719 37.042969 46.425781 36.84375 46.503906 36.636719 C 47.472656 34.082031 48.367188 31.714844 49.191406 29.546875 L 49.625 28.414062 L 48.578125 27.796875 C 47.933594 27.421875 47.210938 27.230469 46.410156 27.230469 C 45.695312 27.230469 44.628906 27.445312 43.210938 27.867188 C 41.960938 28.242188 41.0625 28.429688 40.519531 28.429688 C 40 28.429688 39.554688 28.3125 39.179688 28.074219 C 39.019531 27.972656 38.855469 27.902344 38.6875 27.863281 L 38.339844 27.78125 L 37.992188 27.871094 C 37.539062 27.988281 37.136719 28.328125 36.78125 28.886719 C 36.539062 29.269531 36.3125 29.765625 36.101562 30.367188 C 35.777344 31.3125 35.585938 32.085938 35.53125 32.6875 L 35.527344 32.71875 L 35.527344 32.734375 C 35.398438 34.480469 35.050781 35.972656 34.484375 37.210938 C 34.152344 37.929688 33.597656 38.792969 32.820312 39.792969 C 32.015625 40.828125 31.507812 41.679688 31.292969 42.351562 C 30.859375 43.695312 30.640625 44.78125 30.640625 45.601562 C 30.640625 46.355469 30.808594 46.988281 31.152344 47.511719 C 31.496094 48.042969 32.023438 48.460938 32.734375 48.765625 C 33.898438 49.261719 35.878906 49.519531 38.675781 49.535156 C 39.019531 49.539062 39.511719 49.539062 40.15625 49.539062 C 41.179688 49.539062 42.523438 49.535156 44.179688 49.519531 C 45.742188 49.507812 46.976562 49.503906 47.886719 49.503906 C 49.363281 49.503906 50.964844 49.515625 52.695312 49.535156 L 52.730469 49.539062 L 52.765625 49.535156 C 53.695312 49.503906 54.699219 49.109375 55.765625 48.355469 C 56.84375 47.59375 57.542969 46.78125 57.867188 45.914062 C 58.085938 45.355469 58.191406 44.828125 58.191406 44.328125 C 58.191406 43.023438 57.535156 42.1875 56.226562 41.828125 "/>
<path style=" stroke:none;fill-rule:nonzero;fill:rgb(13.729858%,12.159729%,12.548828%);fill-opacity:1;" d="M 29.207031 51.113281 C 31.417969 51.113281 33.210938 52.90625 33.210938 55.117188 C 33.210938 57.328125 31.417969 59.121094 29.207031 59.121094 C 26.996094 59.121094 25.203125 57.328125 25.203125 55.117188 C 25.203125 52.90625 26.996094 51.113281 29.207031 51.113281 "/>
<path style=" stroke:none;fill-rule:nonzero;fill:rgb(13.729858%,12.159729%,12.548828%);fill-opacity:1;" d="M 38.738281 51.113281 C 40.949219 51.113281 42.742188 52.90625 42.742188 55.117188 C 42.742188 57.328125 40.949219 59.121094 38.738281 59.121094 C 36.527344 59.121094 34.734375 57.328125 34.734375 55.117188 C 34.734375 52.90625 36.527344 51.113281 38.738281 51.113281 "/>
<path style=" stroke:none;fill-rule:nonzero;fill:rgb(13.729858%,12.159729%,12.548828%);fill-opacity:1;" d="M 48.289062 51.113281 C 50.5 51.113281 52.292969 52.90625 52.292969 55.117188 C 52.292969 57.328125 50.5 59.121094 48.289062 59.121094 C 46.078125 59.121094 44.285156 57.328125 44.285156 55.117188 C 44.285156 52.90625 46.078125 51.113281 48.289062 51.113281 "/>
<path style=" stroke:none;fill-rule:nonzero;fill:rgb(13.729858%,12.159729%,12.548828%);fill-opacity:1;" d="M 57.835938 51.113281 C 60.046875 51.113281 61.839844 52.90625 61.839844 55.117188 C 61.839844 57.328125 60.046875 59.121094 57.835938 59.121094 C 55.625 59.121094 53.832031 57.328125 53.832031 55.117188 C 53.832031 52.90625 55.625 51.113281 57.835938 51.113281 "/>
</g>
</svg>
