<?xml version="1.0" encoding="UTF-8"?>
<svg xmlns="http://www.w3.org/2000/svg" xmlns:xlink="http://www.w3.org/1999/xlink" width="86pt" height="86pt" viewBox="0 0 86 86" version="1.1">
<g id="surface1">
<path style=" stroke:none;fill-rule:nonzero;fill:rgb(93.527222%,17.272949%,18.882751%);fill-opacity:1;" d="M 42.523438 0.648438 C 66.007812 0.648438 85.042969 19.683594 85.042969 43.167969 C 85.042969 66.652344 66.007812 85.6875 42.523438 85.6875 C 19.042969 85.6875 0.00390625 66.652344 0.00390625 43.167969 C 0.00390625 19.683594 19.042969 0.648438 42.523438 0.648438 "/>
<path style=" stroke:none;fill-rule:nonzero;fill:rgb(100%,100%,100%);fill-opacity:1;" d="M 42.523438 14.820312 C 46.375 14.820312 50.050781 15.5625 53.554688 17.042969 C 56.945312 18.476562 59.949219 20.503906 62.570312 23.125 C 65.1875 25.742188 67.214844 28.75 68.648438 32.136719 C 70.128906 35.640625 70.871094 39.316406 70.871094 43.167969 C 70.871094 47.019531 70.128906 50.695312 68.648438 54.199219 C 67.214844 57.585938 65.1875 60.59375 62.570312 63.210938 C 59.949219 65.832031 56.945312 67.859375 53.554688 69.292969 C 50.050781 70.773438 46.375 71.515625 42.523438 71.515625 C 38.671875 71.515625 34.996094 70.773438 31.496094 69.292969 C 28.105469 67.859375 25.101562 65.832031 22.480469 63.210938 C 19.859375 60.59375 17.832031 57.585938 16.398438 54.199219 C 14.917969 50.695312 14.175781 47.019531 14.175781 43.167969 C 14.175781 39.316406 14.917969 35.640625 16.398438 32.136719 C 17.832031 28.75 19.859375 25.742188 22.480469 23.125 C 25.101562 20.503906 28.105469 18.476562 31.496094 17.042969 C 34.996094 15.5625 38.671875 14.820312 42.523438 14.820312 "/>
<path style=" stroke:none;fill-rule:nonzero;fill:rgb(13.729858%,12.159729%,12.548828%);fill-opacity:1;" d="M 30.507812 49.757812 L 30.507812 52.285156 L 39.824219 51.894531 C 39.863281 51.816406 39.917969 51.699219 39.964844 51.628906 C 40.046875 51.488281 40.15625 51.363281 40.269531 51.246094 C 40.386719 51.128906 40.523438 51.011719 40.664062 50.929688 C 40.753906 50.878906 40.875 50.816406 40.964844 50.777344 L 44.109375 50.777344 C 44.195312 50.832031 44.292969 50.898438 44.375 50.953125 C 44.511719 51.042969 44.675781 51.171875 44.792969 51.292969 C 44.894531 51.402344 44.988281 51.535156 45.066406 51.664062 C 45.105469 51.730469 45.160156 51.820312 45.195312 51.882812 L 54.609375 52.363281 L 54.609375 49.757812 L 55.398438 49.757812 L 55.398438 46.535156 C 55.398438 46.476562 55.398438 46.363281 55.402344 46.304688 C 55.417969 46.085938 55.496094 45.863281 55.632812 45.6875 C 55.757812 45.523438 55.9375 45.402344 56.140625 45.34375 C 56.234375 45.316406 56.34375 45.296875 56.445312 45.296875 L 58.566406 45.296875 C 58.664062 45.296875 58.761719 45.308594 58.851562 45.332031 C 59.050781 45.375 59.230469 45.480469 59.367188 45.625 C 59.519531 45.789062 59.601562 46.015625 59.644531 46.234375 C 59.65625 46.292969 59.671875 46.40625 59.671875 46.472656 L 59.671875 51.238281 C 59.71875 51.324219 59.78125 51.445312 59.824219 51.523438 C 59.972656 51.832031 60.089844 52.15625 60.15625 52.484375 C 60.21875 52.800781 60.238281 53.167969 60.238281 53.496094 C 60.238281 53.839844 60.222656 54.21875 60.15625 54.558594 C 60.097656 54.863281 59.996094 55.175781 59.839844 55.445312 C 59.796875 55.519531 59.71875 55.632812 59.671875 55.707031 L 59.671875 60.3125 C 59.671875 60.390625 59.644531 60.546875 59.636719 60.621094 C 59.601562 60.804688 59.539062 60.996094 59.433594 61.148438 C 59.324219 61.300781 59.167969 61.417969 58.984375 61.503906 C 58.925781 61.523438 58.769531 61.59375 58.707031 61.59375 L 56.613281 61.59375 C 56.589844 61.59375 56.269531 61.59375 56.238281 61.589844 C 56.023438 61.554688 55.824219 61.453125 55.675781 61.285156 C 55.554688 61.148438 55.476562 60.953125 55.441406 60.777344 C 55.429688 60.722656 55.398438 60.585938 55.398438 60.53125 L 55.398438 57.089844 L 54.609375 57.089844 L 54.609375 54.429688 L 45.203125 55.03125 C 45.160156 55.101562 45.097656 55.207031 45.054688 55.277344 C 44.824219 55.632812 44.515625 55.933594 44.152344 56.152344 C 43.65625 56.449219 43.074219 56.578125 42.496094 56.554688 C 41.953125 56.535156 41.421875 56.363281 40.949219 56.105469 C 40.574219 55.90625 40.183594 55.621094 39.976562 55.261719 C 39.9375 55.203125 39.894531 55.113281 39.867188 55.046875 L 30.507812 54.40625 L 30.507812 57.089844 L 29.648438 57.089844 L 29.65625 60.546875 C 29.65625 60.648438 29.628906 60.753906 29.59375 60.851562 C 29.527344 61.027344 29.382812 61.179688 29.230469 61.289062 C 29.074219 61.410156 28.894531 61.496094 28.703125 61.539062 C 28.582031 61.570312 28.449219 61.59375 28.324219 61.59375 L 26.488281 61.59375 C 26.398438 61.59375 26.300781 61.570312 26.214844 61.550781 C 26.046875 61.503906 25.894531 61.40625 25.769531 61.285156 C 25.648438 61.175781 25.550781 61.039062 25.496094 60.890625 C 25.453125 60.78125 25.414062 60.652344 25.414062 60.535156 L 25.414062 55.511719 C 25.367188 55.417969 25.285156 55.273438 25.242188 55.175781 C 25.101562 54.890625 24.996094 54.589844 24.914062 54.277344 C 24.847656 53.980469 24.808594 53.683594 24.808594 53.382812 C 24.808594 53.066406 24.859375 52.742188 24.925781 52.4375 C 24.996094 52.144531 25.097656 51.839844 25.238281 51.578125 C 25.285156 51.492188 25.367188 51.371094 25.414062 51.292969 L 25.414062 46.5625 C 25.414062 46.453125 25.429688 46.320312 25.453125 46.207031 C 25.488281 46.007812 25.570312 45.800781 25.707031 45.648438 C 25.855469 45.488281 26.070312 45.394531 26.289062 45.34375 C 26.417969 45.316406 26.558594 45.296875 26.695312 45.296875 L 28.246094 45.296875 C 28.390625 45.296875 28.535156 45.308594 28.679688 45.339844 C 28.894531 45.382812 29.105469 45.472656 29.265625 45.617188 C 29.425781 45.765625 29.539062 45.953125 29.59375 46.167969 C 29.625 46.289062 29.648438 46.417969 29.648438 46.542969 L 29.648438 49.757812 L 30.507812 49.757812 "/>
<path style=" stroke:none;fill-rule:nonzero;fill:rgb(13.729858%,12.159729%,12.548828%);fill-opacity:1;" d="M 43.972656 36.964844 L 41.0625 36.964844 L 41.4375 42.507812 L 38.398438 41.734375 C 38.371094 41.730469 38.304688 41.714844 38.28125 41.714844 C 38.136719 41.703125 38.003906 41.769531 37.917969 41.882812 C 37.832031 42.007812 37.816406 42.179688 37.890625 42.324219 C 37.910156 42.355469 37.933594 42.386719 37.957031 42.410156 L 42.167969 47.542969 C 42.183594 47.5625 42.210938 47.597656 42.226562 47.609375 C 42.292969 47.671875 42.386719 47.699219 42.472656 47.703125 C 42.570312 47.703125 42.664062 47.675781 42.738281 47.617188 C 42.761719 47.597656 42.789062 47.566406 42.8125 47.542969 L 47.070312 42.484375 C 47.097656 42.457031 47.132812 42.410156 47.148438 42.378906 C 47.234375 42.230469 47.234375 42.042969 47.136719 41.902344 C 47.066406 41.792969 46.945312 41.722656 46.824219 41.722656 C 46.777344 41.722656 46.730469 41.730469 46.691406 41.742188 L 43.601562 42.496094 L 43.972656 36.964844 "/>
<path style=" stroke:none;fill-rule:nonzero;fill:rgb(13.729858%,12.159729%,12.548828%);fill-opacity:1;" d="M 28.210938 32.964844 L 35.171875 32.964844 L 35.171875 31.34375 L 30.386719 31.34375 L 30.859375 30.832031 C 31.429688 30.207031 31.976562 29.566406 32.488281 28.910156 C 32.980469 28.273438 33.417969 27.613281 33.804688 26.972656 C 34.1875 26.335938 34.476562 25.710938 34.699219 25.09375 C 34.917969 24.488281 35.027344 23.90625 35.027344 23.355469 C 35.027344 22.898438 34.953125 22.480469 34.828125 22.078125 C 34.679688 21.671875 34.460938 21.328125 34.1875 21.019531 C 33.894531 20.722656 33.527344 20.484375 33.109375 20.304688 C 32.671875 20.140625 32.160156 20.050781 31.574219 20.050781 C 30.972656 20.050781 30.402344 20.121094 29.910156 20.246094 C 29.398438 20.394531 28.921875 20.578125 28.503906 20.796875 L 28.703125 22.660156 C 28.996094 22.421875 29.363281 22.183594 29.78125 21.984375 C 30.203125 21.785156 30.679688 21.671875 31.210938 21.671875 C 31.773438 21.671875 32.230469 21.855469 32.539062 22.242188 C 32.855469 22.621094 33.015625 23.097656 33.015625 23.703125 C 33.015625 24.125 32.925781 24.578125 32.742188 25.074219 C 32.539062 25.566406 32.285156 26.097656 31.941406 26.625 C 31.589844 27.171875 31.191406 27.742188 30.734375 28.34375 C 30.257812 28.949219 29.746094 29.566406 29.179688 30.207031 L 28.210938 31.324219 L 28.210938 32.964844 "/>
<path style=" stroke:none;fill-rule:nonzero;fill:rgb(13.729858%,12.159729%,12.548828%);fill-opacity:1;" d="M 37.179688 35.15625 L 38.753906 35.15625 L 40.050781 30.773438 L 38.113281 30.773438 L 37.179688 35.15625 "/>
<path style=" stroke:none;fill-rule:nonzero;fill:rgb(13.729858%,12.159729%,12.548828%);fill-opacity:1;" d="M 41.21875 30.375 L 45.816406 30.375 L 45.816406 32.964844 L 47.523438 32.964844 L 47.523438 30.375 L 48.839844 30.375 L 48.839844 28.960938 L 47.523438 28.960938 L 47.523438 21.058594 L 45.410156 21.058594 L 41.21875 28.671875 L 41.21875 30.375 "/>
<path style=" stroke:none;fill-rule:nonzero;fill:rgb(13.729858%,12.159729%,12.548828%);fill-opacity:1;" d="M 56.839844 32.820312 L 56.839844 31.398438 C 56.714844 31.449219 56.585938 31.503906 56.441406 31.542969 C 56.292969 31.597656 56.128906 31.617188 55.929688 31.617188 C 55.582031 31.617188 55.34375 31.503906 55.175781 31.304688 C 55.015625 31.105469 54.941406 30.753906 54.941406 30.242188 L 54.941406 25.054688 L 56.839844 25.054688 L 56.839844 23.589844 L 54.941406 23.589844 L 54.941406 21.105469 L 53.039062 21.671875 L 53.039062 23.589844 L 51.542969 23.589844 L 51.542969 25.054688 L 53.039062 25.054688 L 53.039062 30.628906 C 53.039062 31.523438 53.242188 32.164062 53.660156 32.53125 C 54.082031 32.910156 54.667969 33.09375 55.433594 33.09375 C 55.710938 33.09375 55.984375 33.074219 56.222656 33.019531 C 56.460938 32.949219 56.679688 32.894531 56.839844 32.820312 "/>
<path style=" stroke:none;fill-rule:nonzero;fill:rgb(100%,100%,100%);fill-opacity:1;" d="M 42.628906 28.960938 L 45.785156 22.902344 L 45.816406 22.902344 L 45.816406 28.960938 L 42.628906 28.960938 "/>
</g>
</svg>
