<?xml version="1.0" encoding="UTF-8"?>
<svg xmlns="http://www.w3.org/2000/svg" xmlns:xlink="http://www.w3.org/1999/xlink" width="86pt" height="86pt" viewBox="0 0 86 86" version="1.1">
<g id="surface1">
<path style=" stroke:none;fill-rule:nonzero;fill:rgb(93.527222%,17.272949%,18.882751%);fill-opacity:1;" d="M 54.878906 1.769531 C 44.25 -1.367188 33.675781 -0.414062 23.777344 4.570312 C 13.886719 9.550781 6.8125 17.476562 3 27.878906 C -0.816406 38.285156 -0.554688 48.894531 3.773438 59.097656 C 8.09375 69.292969 15.542969 76.863281 25.671875 81.351562 C 49.25 91.796875 76.621094 79 83.722656 54.207031 C 90.148438 31.773438 77.265625 8.351562 54.878906 1.769531 "/>
<path style=" stroke:none;fill-rule:nonzero;fill:rgb(100%,100%,100%);fill-opacity:1;" d="M 50.851562 15.378906 C 65.773438 19.769531 74.359375 35.382812 70.078125 50.335938 C 65.34375 66.851562 47.105469 75.386719 31.386719 68.421875 C 24.640625 65.433594 19.675781 60.390625 16.789062 53.59375 C 13.910156 46.789062 13.738281 39.714844 16.277344 32.785156 C 18.824219 25.851562 23.53125 20.570312 30.128906 17.246094 C 36.722656 13.929688 43.773438 13.289062 50.851562 15.378906 "/>
<path style=" stroke:none;fill-rule:nonzero;fill:rgb(100%,100%,100%);fill-opacity:1;" d="M 19.929688 20.257812 C 19.890625 20.410156 19.824219 20.578125 19.71875 20.769531 C 19.617188 20.957031 19.496094 21.121094 19.359375 21.28125 C 19.039062 21.660156 18.675781 21.933594 18.289062 22.105469 C 17.898438 22.285156 17.492188 22.347656 17.078125 22.3125 C 16.648438 22.289062 16.214844 22.160156 15.753906 21.9375 C 15.304688 21.726562 14.84375 21.429688 14.386719 21.046875 C 13.964844 20.6875 13.617188 20.304688 13.375 19.894531 C 13.125 19.476562 12.96875 19.070312 12.894531 18.652344 C 12.832031 18.242188 12.847656 17.847656 12.945312 17.449219 C 13.050781 17.054688 13.25 16.683594 13.535156 16.347656 C 13.796875 16.035156 14.109375 15.753906 14.445312 15.511719 C 14.777344 15.292969 15.136719 15.113281 15.488281 14.980469 L 14.417969 14.023438 C 14.148438 14.148438 13.839844 14.332031 13.519531 14.582031 C 13.199219 14.851562 12.871094 15.171875 12.550781 15.550781 C 12.085938 16.105469 11.773438 16.679688 11.589844 17.269531 C 11.398438 17.871094 11.355469 18.46875 11.433594 19.058594 C 11.515625 19.644531 11.734375 20.222656 12.078125 20.785156 C 12.414062 21.351562 12.863281 21.882812 13.441406 22.367188 C 13.972656 22.816406 14.546875 23.167969 15.128906 23.421875 C 15.726562 23.6875 16.332031 23.804688 16.929688 23.804688 C 17.535156 23.816406 18.132812 23.667969 18.710938 23.398438 C 19.292969 23.125 19.839844 22.667969 20.34375 22.074219 C 20.699219 21.652344 20.976562 21.234375 21.179688 20.828125 C 21.382812 20.425781 21.535156 20.066406 21.613281 19.777344 L 17.703125 16.480469 L 15.742188 18.800781 L 16.683594 19.601562 L 17.710938 18.386719 L 19.929688 20.257812 "/>
<path style=" stroke:none;fill-rule:nonzero;fill:rgb(100%,100%,100%);fill-opacity:1;" d="M 23.621094 18.746094 L 27.847656 15.9375 L 27.148438 14.882812 L 24.203125 16.84375 L 22.417969 14.15625 L 25.09375 12.378906 L 24.394531 11.320312 L 21.714844 13.101562 L 20.109375 10.6875 L 22.925781 8.816406 L 22.230469 7.761719 L 18.132812 10.484375 L 23.621094 18.746094 "/>
<path style=" stroke:none;fill-rule:nonzero;fill:rgb(100%,100%,100%);fill-opacity:1;" d="M 29.664062 14.902344 L 31.003906 14.425781 L 28.347656 6.953125 L 28.375 6.945312 L 34.339844 13.242188 L 36.09375 12.617188 L 32.769531 3.273438 L 31.429688 3.746094 L 34.105469 11.273438 L 34.082031 11.285156 L 28.097656 4.933594 L 26.34375 5.554688 L 29.664062 14.902344 "/>
<path style=" stroke:none;fill-rule:nonzero;fill:rgb(100%,100%,100%);fill-opacity:1;" d="M 38.394531 12.261719 L 43.453125 11.953125 L 43.375 10.691406 L 39.84375 10.90625 L 39.648438 7.6875 L 42.855469 7.492188 L 42.773438 6.222656 L 39.570312 6.421875 L 39.394531 3.527344 L 42.769531 3.324219 L 42.6875 2.0625 L 37.785156 2.359375 L 38.394531 12.261719 "/>
<path style=" stroke:none;fill-rule:nonzero;fill:rgb(100%,100%,100%);fill-opacity:1;" d="M 45.539062 12.03125 L 47.042969 12.328125 L 47.894531 8.035156 L 48.367188 8.128906 C 48.773438 8.207031 49.066406 8.335938 49.257812 8.539062 C 49.433594 8.730469 49.566406 9.046875 49.605469 9.476562 L 50.015625 12.917969 L 51.617188 13.234375 L 51.058594 9.167969 C 51.007812 8.785156 50.902344 8.5 50.765625 8.3125 C 50.617188 8.140625 50.421875 8 50.195312 7.910156 L 50.199219 7.882812 C 50.867188 7.882812 51.394531 7.714844 51.796875 7.359375 C 52.199219 7.003906 52.453125 6.53125 52.566406 5.949219 C 52.65625 5.5 52.660156 5.109375 52.585938 4.757812 C 52.507812 4.414062 52.363281 4.109375 52.15625 3.847656 C 51.949219 3.59375 51.683594 3.378906 51.351562 3.214844 C 51.03125 3.046875 50.644531 2.929688 50.226562 2.847656 L 47.464844 2.300781 L 45.539062 12.03125 "/>
<path style=" stroke:none;fill-rule:nonzero;fill:rgb(100%,100%,100%);fill-opacity:1;" d="M 53.457031 13.890625 L 58.066406 16.003906 L 58.59375 14.855469 L 55.378906 13.382812 L 56.722656 10.449219 L 59.644531 11.789062 L 60.171875 10.636719 L 57.25 9.292969 L 58.460938 6.664062 L 61.539062 8.074219 L 62.0625 6.925781 L 57.59375 4.875 L 53.457031 13.890625 "/>
<path style=" stroke:none;fill-rule:nonzero;fill:rgb(100%,100%,100%);fill-opacity:1;" d="M 59.835938 17.101562 L 63.589844 20.078125 L 64.375 19.085938 L 61.824219 17.0625 L 67.195312 10.277344 L 65.992188 9.328125 L 59.835938 17.101562 "/>
<path style=" stroke:none;fill-rule:nonzero;fill:rgb(100%,100%,100%);fill-opacity:1;" d="M 64.738281 21.21875 L 67.785156 24.914062 L 68.761719 24.113281 L 66.691406 21.597656 L 73.367188 16.09375 L 72.390625 14.910156 L 64.738281 21.21875 "/>
<path style=" stroke:none;fill-rule:nonzero;fill:rgb(93.527222%,17.272949%,18.882751%);fill-opacity:1;" d="M 48.121094 6.878906 L 48.734375 3.785156 L 49.585938 3.949219 C 50.101562 4.054688 50.5 4.246094 50.761719 4.53125 C 51.011719 4.8125 51.085938 5.234375 50.980469 5.777344 C 50.890625 6.238281 50.667969 6.601562 50.332031 6.835938 C 49.980469 7.085938 49.53125 7.15625 48.960938 7.042969 L 48.121094 6.878906 "/>
<path style=" stroke:none;fill-rule:nonzero;fill:rgb(13.729858%,12.159729%,12.548828%);fill-opacity:1;" d="M 52.117188 27.992188 C 51.582031 27.992188 51.007812 28.113281 50.492188 28.257812 C 49.164062 28.632812 48.03125 29.542969 47.207031 30.648438 C 46.515625 31.570312 46.023438 32.699219 45.675781 33.800781 C 45.347656 34.828125 45.105469 35.9375 44.921875 36.996094 C 44.714844 38.199219 44.554688 39.464844 44.503906 40.683594 C 44.453125 41.875 44.511719 43.203125 44.59375 44.390625 C 44.679688 45.59375 44.800781 46.871094 44.992188 48.0625 C 45.210938 49.429688 45.539062 50.808594 46.023438 52.105469 C 46.519531 53.460938 47.308594 54.957031 48.445312 55.851562 C 49.496094 56.683594 50.820312 57.089844 52.15625 57.039062 C 53.574219 56.992188 54.929688 56.429688 55.96875 55.46875 C 56.902344 54.613281 57.578125 53.335938 58.042969 52.148438 C 58.558594 50.839844 58.921875 49.429688 59.171875 48.046875 C 59.390625 46.832031 59.542969 45.609375 59.628906 44.378906 C 59.71875 43.058594 59.734375 41.738281 59.691406 40.425781 C 59.652344 39.28125 59.566406 38.113281 59.398438 36.984375 C 59.234375 35.886719 58.992188 34.792969 58.640625 33.742188 C 58.28125 32.648438 57.769531 31.542969 57.074219 30.625 C 56.273438 29.574219 55.191406 28.675781 53.921875 28.292969 C 53.34375 28.121094 52.722656 27.992188 52.117188 27.992188 "/>
<path style=" stroke:none;fill-rule:nonzero;fill:rgb(13.729858%,12.159729%,12.548828%);fill-opacity:1;" d="M 40.820312 28.296875 L 27.234375 28.296875 L 27.234375 43.285156 L 31.230469 44.238281 C 31.253906 44.152344 31.300781 44.015625 31.335938 43.925781 C 31.394531 43.792969 31.472656 43.660156 31.550781 43.542969 C 31.8125 43.160156 32.148438 42.832031 32.539062 42.589844 C 33.046875 42.28125 33.625 42.113281 34.21875 42.117188 C 34.902344 42.125 35.574219 42.351562 36.09375 42.785156 C 36.558594 43.179688 36.898438 43.78125 37.128906 44.339844 C 37.320312 44.804688 37.476562 45.285156 37.582031 45.78125 C 37.710938 46.378906 37.773438 46.992188 37.773438 47.609375 C 37.78125 48.1875 37.726562 48.761719 37.621094 49.324219 C 37.519531 49.886719 37.351562 50.453125 37.09375 50.964844 C 36.839844 51.480469 36.480469 51.957031 36.019531 52.300781 C 35.496094 52.683594 34.871094 52.894531 34.226562 52.910156 C 33.589844 52.917969 32.96875 52.738281 32.4375 52.390625 C 31.941406 52.0625 31.550781 51.617188 31.308594 51.082031 C 31.238281 50.933594 31.164062 50.71875 31.109375 50.570312 L 27.234375 51.691406 C 27.265625 51.847656 27.304688 52.070312 27.347656 52.21875 C 27.472656 52.691406 27.730469 53.164062 27.992188 53.570312 C 28.414062 54.226562 28.925781 54.84375 29.523438 55.347656 C 30.144531 55.867188 30.871094 56.265625 31.628906 56.546875 C 32.519531 56.882812 33.46875 57.0625 34.417969 57.03125 C 35.222656 57.007812 36.019531 56.824219 36.769531 56.53125 C 37.53125 56.238281 38.238281 55.835938 38.859375 55.3125 C 39.523438 54.757812 40.074219 54.082031 40.503906 53.328125 C 40.964844 52.511719 41.289062 51.5625 41.519531 50.65625 C 41.773438 49.65625 41.945312 48.609375 41.953125 47.585938 C 41.964844 46.628906 41.824219 45.617188 41.625 44.675781 C 41.433594 43.742188 41.136719 42.734375 40.695312 41.890625 C 40.277344 41.078125 39.714844 40.355469 39.035156 39.753906 C 38.355469 39.148438 37.574219 38.683594 36.726562 38.359375 C 35.910156 38.050781 35.039062 37.890625 34.160156 37.890625 C 33.328125 37.890625 32.492188 38.035156 31.726562 38.363281 C 31.636719 38.40625 31.492188 38.46875 31.40625 38.507812 L 31.40625 32.164062 L 40.820312 32.164062 L 40.820312 28.296875 "/>
<path style=" stroke:none;fill-rule:nonzero;fill:rgb(100%,100%,100%);fill-opacity:1;" d="M 52.152344 32.171875 C 52.476562 32.160156 52.796875 32.234375 53.078125 32.390625 C 53.359375 32.53125 53.585938 32.796875 53.753906 33.054688 C 54.03125 33.488281 54.230469 34.101562 54.359375 34.601562 C 54.578125 35.453125 54.753906 36.324219 54.886719 37.195312 C 55.019531 38.09375 55.117188 39.007812 55.175781 39.917969 C 55.242188 40.847656 55.277344 41.785156 55.269531 42.71875 C 55.265625 43.769531 55.21875 44.828125 55.125 45.878906 C 55.03125 46.9375 54.886719 48.039062 54.65625 49.066406 C 54.496094 49.785156 54.289062 50.511719 54.007812 51.195312 C 53.863281 51.542969 53.679688 51.914062 53.457031 52.226562 C 53.304688 52.433594 53.121094 52.632812 52.90625 52.78125 C 52.671875 52.925781 52.398438 53.019531 52.113281 53.035156 C 51.785156 53.054688 51.445312 52.980469 51.167969 52.785156 C 50.976562 52.652344 50.796875 52.433594 50.660156 52.230469 C 50.449219 51.910156 50.269531 51.558594 50.117188 51.199219 C 49.839844 50.53125 49.652344 49.769531 49.515625 49.066406 C 49.332031 48.054688 49.203125 46.84375 49.125 45.828125 C 49.046875 44.828125 48.972656 43.667969 48.972656 42.667969 C 48.972656 41.742188 49.03125 40.800781 49.125 39.882812 C 49.214844 38.964844 49.351562 38.046875 49.511719 37.140625 C 49.65625 36.3125 49.835938 35.449219 50.058594 34.644531 C 50.203125 34.117188 50.425781 33.488281 50.726562 33.042969 C 50.902344 32.789062 51.128906 32.535156 51.402344 32.394531 C 51.632812 32.273438 51.886719 32.1875 52.152344 32.171875 "/>
</g>
</svg>
