<?xml version="1.0" encoding="UTF-8"?>
<svg xmlns="http://www.w3.org/2000/svg" xmlns:xlink="http://www.w3.org/1999/xlink" width="87pt" height="86pt" viewBox="0 0 87 86" version="1.1">
<g id="surface1">
<path style=" stroke:none;fill-rule:nonzero;fill:rgb(93.527222%,17.272949%,18.882751%);fill-opacity:1;" d="M 43.519531 0.652344 C 20.035156 0.652344 1 19.691406 1 43.171875 C 1 66.65625 20.035156 85.691406 43.519531 85.691406 C 67.003906 85.691406 86.039062 66.65625 86.039062 43.171875 C 86.039062 19.691406 67.003906 0.652344 43.519531 0.652344 "/>
<path style=" stroke:none;fill-rule:nonzero;fill:rgb(100%,100%,100%);fill-opacity:1;" d="M 43.519531 14.828125 C 27.867188 14.828125 15.171875 27.519531 15.171875 43.171875 C 15.171875 58.824219 27.867188 71.519531 43.519531 71.519531 C 59.171875 71.519531 71.863281 58.824219 71.863281 43.171875 C 71.863281 27.519531 59.171875 14.828125 43.519531 14.828125 "/>
<path style=" stroke:none;fill-rule:nonzero;fill:rgb(13.729858%,12.159729%,12.548828%);fill-opacity:1;" d="M 37.519531 27.582031 L 39.636719 31.035156 C 39.542969 31.09375 39.429688 31.164062 39.339844 31.21875 C 38.835938 31.53125 38.34375 31.875 37.882812 32.25 C 37.382812 32.652344 36.914062 33.101562 36.46875 33.5625 C 36.035156 34.007812 35.601562 34.507812 35.207031 34.984375 C 34.773438 35.496094 34.273438 36.136719 33.914062 36.703125 C 33.625 37.15625 33.242188 37.902344 32.996094 38.382812 L 32.855469 38.652344 C 33.007812 38.644531 33.230469 38.621094 33.382812 38.613281 C 34.039062 38.585938 34.695312 38.636719 35.332031 38.765625 C 35.960938 38.898438 36.566406 39.113281 37.121094 39.417969 C 38.296875 40.078125 39.21875 41.164062 39.855469 42.355469 C 40.472656 43.5 40.835938 44.773438 40.992188 46.066406 C 41.140625 47.253906 41.105469 48.5 40.972656 49.6875 C 40.835938 50.886719 40.570312 52.1875 40.066406 53.28125 C 39.449219 54.609375 38.484375 55.785156 37.214844 56.519531 C 36.125 57.144531 34.867188 57.414062 33.613281 57.324219 C 32.46875 57.242188 31.367188 56.855469 30.414062 56.214844 C 29.460938 55.578125 28.6875 54.699219 28.105469 53.714844 C 27.496094 52.679688 27.09375 51.507812 26.84375 50.335938 C 26.597656 49.152344 26.492188 47.941406 26.515625 46.738281 C 26.539062 45.394531 26.730469 44.035156 27.023438 42.722656 C 27.230469 41.777344 27.496094 40.832031 27.820312 39.914062 C 28.203125 38.8125 28.6875 37.746094 29.234375 36.714844 C 29.863281 35.519531 30.597656 34.367188 31.390625 33.28125 C 32.191406 32.179688 33.089844 31.085938 34.078125 30.152344 C 34.960938 29.304688 35.9375 28.558594 36.984375 27.910156 C 37.148438 27.804688 37.355469 27.679688 37.519531 27.582031 "/>
<path style=" stroke:none;fill-rule:nonzero;fill:rgb(13.729858%,12.159729%,12.548828%);fill-opacity:1;" d="M 53.113281 29.003906 C 53.703125 29.003906 54.3125 29.121094 54.878906 29.292969 C 56.113281 29.664062 57.167969 30.542969 57.953125 31.570312 C 58.632812 32.464844 59.128906 33.542969 59.480469 34.613281 C 59.824219 35.636719 60.058594 36.707031 60.222656 37.777344 C 60.382812 38.875 60.46875 40.019531 60.507812 41.132812 C 60.550781 42.414062 60.53125 43.703125 60.449219 44.988281 C 60.363281 46.191406 60.214844 47.386719 60 48.566406 C 59.753906 49.921875 59.402344 51.292969 58.898438 52.578125 C 58.445312 53.726562 57.785156 54.976562 56.875 55.8125 C 55.855469 56.746094 54.539062 57.296875 53.152344 57.34375 C 51.847656 57.394531 50.554688 56.996094 49.527344 56.183594 C 48.421875 55.3125 47.652344 53.855469 47.160156 52.53125 C 46.695312 51.265625 46.375 49.921875 46.160156 48.585938 C 45.972656 47.425781 45.855469 46.175781 45.769531 45 C 45.683594 43.847656 45.632812 42.546875 45.683594 41.382812 C 45.730469 40.195312 45.886719 38.960938 46.089844 37.785156 C 46.273438 36.757812 46.507812 35.671875 46.824219 34.664062 C 47.160156 33.59375 47.644531 32.492188 48.320312 31.59375 C 49.128906 30.511719 50.230469 29.621094 51.527344 29.257812 C 52.03125 29.117188 52.589844 29.003906 53.113281 29.003906 "/>
<path style=" stroke:none;fill-rule:nonzero;fill:rgb(100%,100%,100%);fill-opacity:1;" d="M 33.796875 42.34375 C 34.457031 42.339844 35.089844 42.609375 35.59375 43.027344 C 36.015625 43.375 36.300781 43.941406 36.476562 44.457031 C 36.664062 45.003906 36.78125 45.726562 36.863281 46.296875 C 36.933594 46.820312 37.011719 47.476562 37.015625 48 C 37.023438 48.542969 37.023438 49.230469 36.929688 49.765625 C 36.632812 51.457031 35.761719 53.386719 33.769531 53.28125 C 31.996094 53.1875 31.21875 51.523438 30.855469 49.976562 C 30.742188 49.488281 30.652344 48.773438 30.605469 48.273438 C 30.542969 47.613281 30.570312 46.960938 30.671875 46.308594 C 30.769531 45.679688 30.941406 45.054688 31.179688 44.460938 C 31.394531 43.925781 31.730469 43.296875 32.195312 42.945312 C 32.652344 42.597656 33.21875 42.351562 33.796875 42.34375 "/>
<path style=" stroke:none;fill-rule:nonzero;fill:rgb(100%,100%,100%);fill-opacity:1;" d="M 53.140625 33.078125 C 53.460938 33.066406 53.773438 33.140625 54.046875 33.289062 C 54.324219 33.429688 54.542969 33.6875 54.707031 33.9375 C 54.980469 34.363281 55.171875 34.960938 55.296875 35.449219 C 55.515625 36.277344 55.679688 37.132812 55.8125 37.980469 C 55.941406 38.855469 56.039062 39.75 56.097656 40.636719 C 56.15625 41.546875 56.195312 42.457031 56.1875 43.367188 C 56.183594 44.398438 56.140625 45.425781 56.046875 46.457031 C 55.957031 47.484375 55.8125 48.558594 55.589844 49.566406 C 55.433594 50.265625 55.226562 50.976562 54.957031 51.640625 C 54.816406 51.980469 54.632812 52.34375 54.414062 52.648438 C 54.273438 52.847656 54.089844 53.042969 53.878906 53.183594 C 53.652344 53.332031 53.386719 53.421875 53.109375 53.4375 C 52.785156 53.457031 52.453125 53.382812 52.1875 53.195312 C 51.996094 53.066406 51.820312 52.847656 51.6875 52.652344 C 51.480469 52.34375 51.304688 51.996094 51.15625 51.648438 C 50.886719 50.996094 50.703125 50.25 50.570312 49.5625 C 50.386719 48.582031 50.269531 47.394531 50.191406 46.40625 C 50.113281 45.425781 50.042969 44.296875 50.042969 43.316406 C 50.042969 42.417969 50.09375 41.503906 50.191406 40.597656 C 50.28125 39.710938 50.410156 38.8125 50.566406 37.925781 C 50.707031 37.121094 50.886719 36.277344 51.101562 35.492188 C 51.242188 34.976562 51.457031 34.363281 51.753906 33.929688 C 51.925781 33.683594 52.148438 33.433594 52.414062 33.292969 C 52.632812 33.179688 52.886719 33.09375 53.140625 33.078125 "/>
</g>
</svg>
