<?xml version="1.0" encoding="UTF-8" standalone="no"?>
<svg
   xmlns:dc="http://purl.org/dc/elements/1.1/"
   xmlns:cc="http://creativecommons.org/ns#"
   xmlns:rdf="http://www.w3.org/1999/02/22-rdf-syntax-ns#"
   xmlns:svg="http://www.w3.org/2000/svg"
   xmlns="http://www.w3.org/2000/svg"
   xmlns:sodipodi="http://sodipodi.sourceforge.net/DTD/sodipodi-0.dtd"
   xmlns:inkscape="http://www.inkscape.org/namespaces/inkscape"
   width="87pt"
   height="86pt"
   viewBox="0 0 87 86"
   version="1.1"
   id="svg102"
   sodipodi:docname="230_original.svg"
   inkscape:version="1.0.2 (e86c870879, 2021-01-15, custom)">
  <metadata
     id="metadata108">
    <rdf:RDF>
      <cc:Work
         rdf:about="">
        <dc:format>image/svg+xml</dc:format>
        <dc:type
           rdf:resource="http://purl.org/dc/dcmitype/StillImage" />
        <dc:title></dc:title>
      </cc:Work>
    </rdf:RDF>
  </metadata>
  <defs
     id="defs106" />
  <sodipodi:namedview
     pagecolor="#ffffff"
     bordercolor="#666666"
     borderopacity="1"
     objecttolerance="10"
     gridtolerance="10"
     guidetolerance="10"
     inkscape:pageopacity="0"
     inkscape:pageshadow="2"
     inkscape:window-width="1920"
     inkscape:window-height="1017"
     id="namedview104"
     showgrid="false"
     inkscape:zoom="3.6061047"
     inkscape:cx="41.763552"
     inkscape:cy="64.72658"
     inkscape:window-x="3832"
     inkscape:window-y="-8"
     inkscape:window-maximized="1"
     inkscape:current-layer="svg102" />
  <path
     style="fill:#ee2b2e;fill-opacity:1;fill-rule:nonzero;stroke:none"
     d="M 43.519531,0.652344 C 20.035156,0.652344 1,19.691406 1,43.171875 1,66.65625 20.035156,85.691406 43.519531,85.691406 c 23.484375,0 42.519531,-19.035156 42.519531,-42.519531 0,-23.480469 -19.035156,-42.519531 -42.519531,-42.519531"
     id="path89" />
  <path
     style="fill:#ffffff;fill-opacity:1;fill-rule:nonzero;stroke:none"
     d="m 43.519531,14.828125 c -15.652343,0 -28.347656,12.691406 -28.347656,28.34375 0,15.652344 12.695313,28.347656 28.347656,28.347656 15.652344,0 28.34375,-12.695312 28.34375,-28.347656 0,-15.652344 -12.691406,-28.34375 -28.34375,-28.34375"
     id="path91" />
  <path
     style="fill:#211e1e;fill-opacity:1;fill-rule:nonzero;stroke:none"
     d="m 37.519531,27.582031 2.117188,3.453125 c -0.09375,0.05859 -0.207031,0.128906 -0.296875,0.183594 -0.503906,0.3125 -0.996094,0.65625 -1.457032,1.03125 -0.5,0.402344 -0.96875,0.851562 -1.414062,1.3125 -0.433594,0.445312 -0.867188,0.945312 -1.261719,1.421875 -0.433593,0.511719 -0.933593,1.152344 -1.292969,1.71875 -0.289062,0.453125 -0.671874,1.199219 -0.917968,1.679687 l -0.140625,0.269532 c 0.152343,-0.0078 0.375,-0.03125 0.527343,-0.03906 0.65625,-0.02734 1.3125,0.02344 1.949219,0.152344 0.628907,0.132813 1.234375,0.347656 1.789063,0.652344 1.175781,0.660156 2.097656,1.746093 2.734375,2.9375 0.617187,1.144531 0.980469,2.417969 1.136719,3.710937 0.148437,1.1875 0.113281,2.433594 -0.01953,3.621094 -0.136718,1.199219 -0.402344,2.5 -0.90625,3.59375 -0.617187,1.328125 -1.582031,2.503906 -2.851562,3.238281 -1.089844,0.625 -2.347656,0.894531 -3.601563,0.804688 -1.144531,-0.08203 -2.246093,-0.46875 -3.199219,-1.109375 -0.953124,-0.636719 -1.726562,-1.515625 -2.308593,-2.5 -0.609375,-1.035156 -1.011719,-2.207032 -1.261719,-3.378906 -0.246094,-1.183594 -0.351562,-2.394532 -0.328125,-3.597657 0.02344,-1.34375 0.214844,-2.703125 0.507813,-4.015625 0.207031,-0.945312 0.472656,-1.890625 0.796874,-2.808594 0.382813,-1.101562 0.867188,-2.167968 1.414063,-3.199218 0.628906,-1.195313 1.363281,-2.347656 2.15625,-3.433594 0.800781,-1.101562 1.699219,-2.195312 2.6875,-3.128906 0.882813,-0.847656 1.859375,-1.59375 2.90625,-2.242188 0.164063,-0.105468 0.371094,-0.230468 0.535156,-0.328125"
     id="path93" />
  <path
     style="fill:#211e1e;fill-opacity:1;fill-rule:nonzero;stroke:none"
     d="m 53.113281,29.003906 c 0.589844,0 1.199219,0.117188 1.765625,0.289063 1.234375,0.371093 2.289063,1.25 3.074219,2.277343 0.679687,0.894532 1.175781,1.972657 1.527344,3.042969 0.34375,1.023438 0.578125,2.09375 0.742187,3.164063 0.160156,1.097656 0.246094,2.242187 0.285156,3.355468 0.04297,1.28125 0.02344,2.570313 -0.05859,3.855469 -0.08594,1.203125 -0.234375,2.398438 -0.449219,3.578125 -0.246094,1.355469 -0.597656,2.726563 -1.101562,4.011719 -0.453126,1.148437 -1.113282,2.398437 -2.023438,3.234375 -1.019531,0.933594 -2.335938,1.484375 -3.722656,1.53125 -1.304688,0.05078 -2.597656,-0.347656 -3.625,-1.160156 -1.105469,-0.871094 -1.875,-2.328125 -2.367188,-3.652344 -0.464844,-1.265625 -0.785156,-2.609375 -1,-3.945312 C 45.972656,47.425781 45.855469,46.175781 45.769531,45 c -0.08594,-1.152344 -0.136719,-2.453125 -0.08594,-3.617188 0.04687,-1.1875 0.203125,-2.421874 0.40625,-3.597656 0.183594,-1.027344 0.417968,-2.113281 0.734375,-3.121094 0.335937,-1.070312 0.820312,-2.171874 1.496093,-3.070312 0.808594,-1.082031 1.910157,-1.972656 3.207032,-2.335938 0.503906,-0.140624 1.0625,-0.253906 1.585937,-0.253906"
     id="path95" />
  <path
     style="fill:#ffffff;fill-opacity:1;fill-rule:nonzero;stroke:none"
     d="m 33.796875,42.34375 c 0.660156,-0.0039 1.292969,0.265625 1.796875,0.683594 0.421875,0.347656 0.707031,0.914062 0.882812,1.429687 0.1875,0.546875 0.304688,1.269531 0.386719,1.839844 0.07031,0.523437 0.148438,1.179687 0.152344,1.703125 0.0078,0.542969 0.0078,1.230469 -0.08594,1.765625 -0.296876,1.691406 -1.167969,3.621094 -3.160157,3.515625 -1.773437,-0.09375 -2.550781,-1.757812 -2.914062,-3.304688 -0.113281,-0.488281 -0.203125,-1.203124 -0.25,-1.703124 -0.0625,-0.660157 -0.03516,-1.3125 0.06641,-1.964844 0.09766,-0.628906 0.269531,-1.253906 0.507813,-1.847656 0.214843,-0.535157 0.550781,-1.164063 1.015624,-1.515626 0.457032,-0.347656 1.023438,-0.59375 1.601563,-0.601562"
     id="path97" />
  <path
     style="fill:#ffffff;fill-opacity:1;fill-rule:nonzero;stroke:none"
     d="m 53.140625,33.078125 c 0.320313,-0.01172 0.632813,0.0625 0.90625,0.210937 0.277344,0.140626 0.496094,0.398438 0.660156,0.648438 0.273438,0.425781 0.464844,1.023438 0.589844,1.511719 0.21875,0.828125 0.382813,1.683593 0.515625,2.53125 0.128906,0.875 0.226562,1.769531 0.285156,2.65625 0.05859,0.910156 0.09766,1.820312 0.08984,2.730469 -0.0039,1.03125 -0.04687,2.058593 -0.140625,3.089843 -0.08984,1.027344 -0.234375,2.101563 -0.457031,3.109375 -0.15625,0.699219 -0.363282,1.410156 -0.632813,2.074219 -0.140625,0.339844 -0.324219,0.703125 -0.542969,1.007813 -0.140624,0.199218 -0.324218,0.394531 -0.535156,0.535156 -0.226562,0.148437 -0.492187,0.238281 -0.769531,0.253906 -0.324219,0.01953 -0.65625,-0.05469 -0.921875,-0.242188 -0.191406,-0.128906 -0.367188,-0.347656 -0.5,-0.542968 C 51.480469,52.34375 51.304688,51.996094 51.15625,51.648438 50.886719,50.996094 50.703125,50.25 50.570312,49.5625 c -0.183593,-0.980469 -0.300781,-2.167969 -0.378906,-3.15625 -0.07813,-0.980469 -0.148437,-2.109375 -0.148437,-3.089844 0,-0.898437 0.05078,-1.8125 0.148437,-2.71875 0.08984,-0.886718 0.21875,-1.785156 0.375,-2.671875 0.140625,-0.804687 0.320313,-1.648437 0.535156,-2.433593 0.140626,-0.515626 0.355469,-1.128907 0.652344,-1.5625 0.171875,-0.246094 0.394532,-0.496094 0.660156,-0.636719 0.21875,-0.113281 0.472657,-0.199219 0.726563,-0.214844"
     id="path99" />
</svg>
