<?xml version="1.0" encoding="UTF-8"?>
<svg xmlns="http://www.w3.org/2000/svg" xmlns:xlink="http://www.w3.org/1999/xlink" width="87pt" height="86pt" viewBox="0 0 87 86" version="1.1">
<g id="surface1">
<path style="fill-rule:nonzero;fill:rgb(100%,100%,100%);fill-opacity:1;stroke-width:2.835;stroke-linecap:butt;stroke-linejoin:round;stroke:rgb(13.729858%,12.159729%,12.548828%);stroke-opacity:1;stroke-miterlimit:4;" d="M 435.195312 853.476562 C 669.960938 853.476562 860.390625 663.046875 860.390625 428.28125 C 860.390625 193.476562 669.960938 3.085938 435.195312 3.085938 C 200.390625 3.085938 10 193.476562 10 428.28125 C 10 663.046875 200.390625 853.476562 435.195312 853.476562 " transform="matrix(0.1,0,0,-0.1,0,86)"/>
<path style=" stroke:none;fill-rule:nonzero;fill:rgb(10.112%,40.585327%,73.280334%);fill-opacity:1;" d="M 43.523438 2.074219 C 49.097656 2.074219 54.429688 3.148438 59.519531 5.300781 C 64.4375 7.382812 68.789062 10.316406 72.585938 14.109375 C 76.378906 17.902344 79.3125 22.257812 81.394531 27.175781 C 83.546875 32.265625 84.621094 37.597656 84.621094 43.171875 C 84.621094 48.746094 83.546875 54.082031 81.394531 59.167969 C 79.3125 64.085938 76.378906 68.441406 72.585938 72.234375 C 68.789062 76.027344 64.4375 78.964844 59.519531 81.042969 C 54.429688 83.199219 49.097656 84.273438 43.523438 84.273438 C 37.949219 84.273438 32.613281 83.199219 27.527344 81.042969 C 22.609375 78.964844 18.253906 76.027344 14.460938 72.234375 C 10.667969 68.441406 7.730469 64.085938 5.652344 59.167969 C 3.5 54.082031 2.421875 48.746094 2.421875 43.171875 C 2.421875 37.597656 3.5 32.265625 5.652344 27.175781 C 7.730469 22.257812 10.667969 17.902344 14.460938 14.109375 C 18.253906 10.316406 22.609375 7.382812 27.527344 5.300781 C 32.613281 3.148438 37.949219 2.074219 43.523438 2.074219 "/>
<path style=" stroke:none;fill-rule:nonzero;fill:rgb(100%,100%,100%);fill-opacity:1;" d="M 24.558594 32.273438 L 20.09375 28.164062 C 20.203125 27.945312 20.355469 27.628906 20.476562 27.417969 C 21.351562 25.917969 22.910156 24.84375 24.546875 24.171875 C 26.007812 23.574219 27.582031 23.289062 29.171875 23.332031 C 31.0625 23.382812 32.917969 23.898438 34.523438 24.855469 C 36.183594 25.84375 37.511719 27.261719 38.351562 28.953125 C 39.03125 30.328125 39.347656 31.839844 39.335938 33.363281 C 39.3125 35.109375 38.851562 36.828125 37.949219 38.34375 C 37.601562 38.921875 37.199219 39.453125 36.734375 39.949219 C 36.324219 40.390625 35.855469 40.789062 35.351562 41.136719 C 34.871094 41.472656 34.117188 41.890625 33.59375 42.175781 C 34.117188 42.394531 34.882812 42.734375 35.359375 43.035156 C 35.84375 43.332031 36.289062 43.699219 36.695312 44.097656 C 37.230469 44.613281 37.71875 45.230469 38.144531 45.828125 C 38.921875 46.914062 39.59375 48.113281 40.023438 49.351562 C 40.46875 50.609375 40.667969 51.953125 40.65625 53.289062 C 40.644531 54.863281 40.339844 56.417969 39.738281 57.890625 C 39.222656 59.171875 38.480469 60.367188 37.558594 61.417969 C 36.386719 62.753906 34.9375 63.824219 33.296875 64.578125 C 31.617188 65.355469 29.785156 65.789062 27.917969 65.839844 C 26.378906 65.894531 24.851562 65.683594 23.390625 65.230469 C 21.796875 64.726562 19.953125 63.707031 18.535156 62.855469 C 18.414062 62.78125 18.128906 62.605469 18.007812 62.53125 L 20.96875 57.261719 L 23.433594 58.792969 C 23.933594 59.09375 24.472656 59.378906 25.027344 59.597656 C 25.429688 59.757812 25.855469 59.871094 26.304688 59.9375 C 27.078125 60.054688 27.886719 60 28.660156 59.839844 C 30.082031 59.539062 31.378906 58.84375 32.394531 57.855469 C 33.472656 56.792969 34.226562 55.441406 34.378906 53.960938 C 34.511719 52.59375 34.097656 51.207031 33.386719 50.011719 C 32.601562 48.675781 31.464844 47.566406 30.058594 46.832031 C 29.445312 46.503906 28.703125 46.21875 28.039062 46.011719 C 27.277344 45.769531 26.445312 45.539062 25.660156 45.410156 C 25.496094 45.378906 25.265625 45.347656 25.105469 45.316406 L 25.09375 38.972656 C 25.277344 38.960938 25.539062 38.941406 25.734375 38.933594 C 26.535156 38.867188 27.328125 38.742188 28.101562 38.5625 C 29.011719 38.363281 30.027344 38.039062 30.769531 37.515625 C 31.464844 37.027344 32.011719 36.367188 32.40625 35.640625 C 32.863281 34.800781 33.125 33.855469 33.0625 32.902344 C 32.992188 31.90625 32.589844 30.90625 31.792969 30.234375 C 31.222656 29.757812 30.472656 29.488281 29.71875 29.371094 C 28.726562 29.226562 27.667969 29.308594 26.78125 29.769531 C 26.03125 30.167969 25.40625 30.851562 24.960938 31.566406 C 24.832031 31.769531 24.664062 32.058594 24.558594 32.273438 "/>
<path style=" stroke:none;fill-rule:nonzero;fill:rgb(100%,100%,100%);fill-opacity:1;" d="M 57.496094 23.386719 C 58.414062 23.386719 59.363281 23.566406 60.242188 23.824219 C 62.167969 24.382812 63.808594 25.691406 65.027344 27.226562 C 66.082031 28.570312 66.855469 30.183594 67.40625 31.78125 C 67.9375 33.320312 68.304688 34.917969 68.554688 36.519531 C 68.804688 38.164062 68.9375 39.875 69.003906 41.542969 C 69.066406 43.460938 69.039062 45.390625 68.90625 47.3125 C 68.777344 49.113281 68.546875 50.902344 68.210938 52.667969 C 67.828125 54.699219 67.277344 56.757812 66.496094 58.671875 C 65.792969 60.394531 64.765625 62.265625 63.347656 63.515625 C 61.769531 64.917969 59.714844 65.738281 57.5625 65.804688 C 55.53125 65.882812 53.519531 65.289062 51.925781 64.074219 C 50.199219 62.769531 49.003906 60.582031 48.242188 58.601562 C 47.515625 56.710938 47.015625 54.699219 46.683594 52.703125 C 46.394531 50.960938 46.207031 49.089844 46.074219 47.335938 C 45.949219 45.601562 45.863281 43.660156 45.941406 41.917969 C 46.019531 40.136719 46.261719 38.292969 46.574219 36.539062 C 46.855469 34.992188 47.222656 33.363281 47.71875 31.863281 C 48.242188 30.261719 48.992188 28.605469 50.046875 27.261719 C 51.296875 25.648438 53.019531 24.3125 55.03125 23.773438 C 55.816406 23.558594 56.683594 23.386719 57.496094 23.386719 "/>
<path style=" stroke:none;fill-rule:nonzero;fill:rgb(10.112%,40.585327%,73.280334%);fill-opacity:1;" d="M 57.535156 29.5 C 58.03125 29.484375 58.515625 29.589844 58.945312 29.816406 C 59.367188 30.03125 59.714844 30.414062 59.96875 30.789062 C 60.394531 31.421875 60.691406 32.320312 60.890625 33.050781 C 61.222656 34.296875 61.480469 35.566406 61.6875 36.839844 C 61.890625 38.152344 62.039062 39.484375 62.136719 40.8125 C 62.226562 42.175781 62.28125 43.539062 62.273438 44.90625 C 62.269531 46.441406 62.195312 47.984375 62.054688 49.523438 C 61.914062 51.066406 61.6875 52.671875 61.34375 54.179688 C 61.101562 55.230469 60.777344 56.289062 60.355469 57.285156 C 60.136719 57.800781 59.855469 58.339844 59.519531 58.792969 C 59.289062 59.09375 59.011719 59.386719 58.679688 59.597656 C 58.328125 59.820312 57.910156 59.953125 57.484375 59.976562 C 56.980469 60.007812 56.464844 59.894531 56.050781 59.613281 C 55.753906 59.417969 55.476562 59.09375 55.273438 58.800781 C 54.953125 58.332031 54.679688 57.820312 54.453125 57.292969 C 54.027344 56.320312 53.738281 55.207031 53.535156 54.175781 C 53.253906 52.707031 53.066406 50.933594 52.941406 49.449219 C 52.820312 47.984375 52.714844 46.289062 52.714844 44.828125 C 52.714844 43.480469 52.800781 42.105469 52.941406 40.761719 C 53.082031 39.425781 53.285156 38.085938 53.527344 36.757812 C 53.746094 35.550781 54.019531 34.289062 54.359375 33.109375 C 54.578125 32.339844 54.914062 31.421875 55.378906 30.773438 C 55.644531 30.402344 55.984375 30.035156 56.398438 29.824219 C 56.746094 29.652344 57.136719 29.527344 57.535156 29.5 "/>
</g>
</svg>
