<?xml version="1.0" encoding="UTF-8"?>
<svg xmlns="http://www.w3.org/2000/svg" xmlns:xlink="http://www.w3.org/1999/xlink" width="87pt" height="86pt" viewBox="0 0 87 86" version="1.1">
<g id="surface1">
<path style="fill-rule:nonzero;fill:rgb(100%,100%,100%);fill-opacity:1;stroke-width:2.835;stroke-linecap:butt;stroke-linejoin:miter;stroke:rgb(13.729858%,12.159729%,12.548828%);stroke-opacity:1;stroke-miterlimit:4;" d="M 435.195312 853.476562 C 670 853.476562 860.390625 663.085938 860.390625 428.28125 C 860.390625 193.4375 670 3.085938 435.195312 3.085938 C 200.351562 3.085938 10 193.4375 10 428.28125 C 10 663.085938 200.351562 853.476562 435.195312 853.476562 " transform="matrix(0.1,0,0,-0.1,0,86)"/>
<path style=" stroke:none;fill-rule:nonzero;fill:rgb(10.112%,40.585327%,73.280334%);fill-opacity:1;" d="M 43.519531 2.070312 C 49.09375 2.070312 54.425781 3.148438 59.515625 5.300781 C 64.433594 7.378906 68.789062 10.316406 72.582031 14.109375 C 76.375 17.902344 79.3125 22.257812 81.390625 27.175781 C 83.542969 32.265625 84.621094 37.597656 84.621094 43.171875 C 84.621094 48.75 83.542969 54.082031 81.390625 59.171875 C 79.3125 64.089844 76.375 68.445312 72.582031 72.238281 C 68.789062 76.03125 64.433594 78.964844 59.515625 81.046875 C 54.425781 83.199219 49.09375 84.273438 43.519531 84.273438 C 37.941406 84.273438 32.609375 83.199219 27.519531 81.046875 C 22.601562 78.964844 18.246094 76.03125 14.453125 72.238281 C 10.660156 68.445312 7.726562 64.089844 5.644531 59.171875 C 3.492188 54.082031 2.417969 48.75 2.417969 43.171875 C 2.417969 37.597656 3.492188 32.265625 5.644531 27.175781 C 7.726562 22.257812 10.660156 17.902344 14.453125 14.109375 C 18.246094 10.316406 22.601562 7.378906 27.519531 5.300781 C 32.609375 3.148438 37.941406 2.070312 43.519531 2.070312 "/>
<path style=" stroke:none;fill-rule:nonzero;fill:rgb(100%,100%,100%);fill-opacity:1;" d="M 79.660156 43.183594 C 79.65625 42.703125 79.40625 42.265625 79.046875 42.015625 L 56.289062 26.40625 C 56.074219 26.253906 55.808594 26.167969 55.527344 26.167969 C 54.769531 26.167969 54.15625 26.789062 54.15625 27.554688 C 54.15625 27.671875 54.167969 27.785156 54.195312 27.890625 L 55.964844 37.929688 L 8.792969 34.691406 L 8.800781 51.65625 L 55.96875 48.417969 L 54.203125 58.457031 C 54.175781 58.5625 54.164062 58.675781 54.164062 58.792969 C 54.164062 59.5625 54.773438 60.183594 55.53125 60.183594 C 55.816406 60.183594 56.078125 60.09375 56.296875 59.941406 L 79.054688 44.335938 C 79.414062 44.085938 79.660156 43.664062 79.660156 43.183594 "/>
</g>
</svg>
