<?xml version="1.0" encoding="UTF-8"?>
<svg xmlns="http://www.w3.org/2000/svg" xmlns:xlink="http://www.w3.org/1999/xlink" width="87pt" height="86pt" viewBox="0 0 87 86" version="1.1">
<g id="surface1">
<path style="fill-rule:nonzero;fill:rgb(100%,100%,100%);fill-opacity:1;stroke-width:2.835;stroke-linecap:butt;stroke-linejoin:round;stroke:rgb(13.729858%,12.159729%,12.548828%);stroke-opacity:1;stroke-miterlimit:4;" d="M 735.859375 728.945312 C 901.914062 562.890625 901.914062 293.671875 735.859375 127.617188 C 569.804688 -38.4375 300.585938 -38.4375 134.53125 127.617188 C -31.523438 293.671875 -31.523438 562.890625 134.53125 728.945312 C 300.585938 894.960938 569.804688 894.960938 735.859375 728.945312 " transform="matrix(0.1,0,0,-0.1,0,86)"/>
<path style=" stroke:none;fill-rule:nonzero;fill:rgb(10.112%,40.585327%,73.280334%);fill-opacity:1;" d="M 72.585938 14.109375 C 76.53125 18.050781 79.539062 22.582031 81.613281 27.707031 C 83.621094 32.652344 84.625 37.808594 84.625 43.171875 C 84.625 48.535156 83.621094 53.691406 81.613281 58.640625 C 79.539062 63.761719 76.53125 68.292969 72.585938 72.234375 C 68.644531 76.179688 64.113281 79.1875 58.988281 81.265625 C 54.042969 83.273438 48.886719 84.273438 43.523438 84.273438 C 38.160156 84.273438 33.003906 83.273438 28.054688 81.265625 C 22.933594 79.1875 18.402344 76.179688 14.460938 72.234375 C 10.515625 68.292969 7.507812 63.761719 5.429688 58.640625 C 3.421875 53.691406 2.421875 48.535156 2.421875 43.171875 C 2.421875 37.808594 3.421875 32.652344 5.429688 27.707031 C 7.507812 22.582031 10.515625 18.050781 14.460938 14.109375 C 18.402344 10.167969 22.933594 7.15625 28.054688 5.082031 C 33.003906 3.074219 38.160156 2.070312 43.523438 2.070312 C 48.886719 2.070312 54.042969 3.074219 58.988281 5.082031 C 64.113281 7.15625 68.644531 10.167969 72.585938 14.109375 "/>
<path style=" stroke:none;fill-rule:nonzero;fill:rgb(100%,100%,100%);fill-opacity:1;" d="M 69.066406 68.734375 C 69.40625 68.394531 69.539062 67.90625 69.460938 67.472656 L 64.40625 40.347656 C 64.359375 40.085938 64.234375 39.835938 64.035156 39.636719 C 63.5 39.101562 62.628906 39.105469 62.082031 39.652344 C 62 39.734375 61.929688 39.824219 61.875 39.917969 L 56.027344 48.265625 L 24.960938 12.621094 L 12.96875 24.621094 L 48.613281 55.683594 L 40.265625 61.535156 C 40.171875 61.589844 40.082031 61.660156 40 61.742188 C 39.457031 62.285156 39.453125 63.160156 39.988281 63.695312 C 40.1875 63.894531 40.4375 64.019531 40.699219 64.066406 L 67.824219 69.121094 C 68.257812 69.199219 68.726562 69.074219 69.066406 68.734375 "/>
</g>
</svg>
