<?xml version="1.0" encoding="UTF-8"?>
<svg xmlns="http://www.w3.org/2000/svg" xmlns:xlink="http://www.w3.org/1999/xlink" width="86pt" height="86pt" viewBox="0 0 86 86" version="1.1">
<g id="surface1">
<path style=" stroke:none;fill-rule:nonzero;fill:rgb(93.527222%,17.272949%,18.882751%);fill-opacity:1;" d="M 72.671875 12.488281 C 89.257812 29.097656 89.257812 56.054688 72.671875 72.660156 C 56.066406 89.246094 29.109375 89.246094 12.503906 72.660156 C -4.082031 56.054688 -4.082031 29.097656 12.503906 12.488281 C 29.109375 -4.09375 56.066406 -4.09375 72.671875 12.488281 "/>
<path style=" stroke:none;fill-rule:nonzero;fill:rgb(100%,100%,100%);fill-opacity:1;" d="M 21.15625 16.128906 L 69.03125 64.003906 C 71.148438 61.402344 72.84375 58.527344 74.113281 55.390625 C 75.773438 51.289062 76.605469 47.027344 76.609375 42.574219 C 76.605469 38.125 75.773438 33.855469 74.113281 29.761719 C 72.398438 25.523438 69.910156 21.773438 66.644531 18.511719 C 63.386719 15.246094 59.636719 12.761719 55.398438 11.042969 C 51.300781 9.382812 47.03125 8.550781 42.585938 8.550781 C 38.132812 8.550781 33.867188 9.382812 29.769531 11.042969 C 26.632812 12.316406 23.757812 14.011719 21.15625 16.128906 "/>
<path style=" stroke:none;fill-rule:nonzero;fill:rgb(100%,100%,100%);fill-opacity:1;" d="M 64.023438 69.019531 L 16.152344 21.140625 C 14.027344 23.75 12.332031 26.621094 11.0625 29.757812 C 9.402344 33.855469 8.570312 38.121094 8.570312 42.574219 C 8.570312 47.027344 9.402344 51.289062 11.0625 55.390625 C 12.777344 59.625 15.261719 63.371094 18.527344 66.640625 C 21.789062 69.898438 25.539062 72.390625 29.773438 74.105469 C 33.875 75.765625 38.140625 76.59375 42.59375 76.601562 C 47.039062 76.59375 51.308594 75.765625 55.40625 74.105469 C 58.546875 72.835938 61.414062 71.140625 64.023438 69.019531 "/>
<path style=" stroke:none;fill-rule:nonzero;fill:rgb(13.729858%,12.159729%,12.548828%);fill-opacity:1;" d="M 60.308594 65.308594 L 51 56 L 51.003906 65.308594 L 60.308594 65.308594 "/>
<path style=" stroke:none;fill-rule:nonzero;fill:rgb(13.729858%,12.159729%,12.548828%);fill-opacity:1;" d="M 36.035156 31.011719 C 37.605469 29.75 39.601562 28.988281 41.78125 28.976562 C 46.851562 28.957031 50.980469 33.042969 50.996094 38.089844 L 51 45.976562 L 60.304688 55.28125 L 60.300781 37.882812 C 60.171875 27.878906 52.023438 19.808594 41.96875 19.714844 C 37.15625 19.671875 32.757812 21.457031 29.441406 24.417969 L 36.035156 31.011719 "/>
<path style=" stroke:none;fill-rule:nonzero;fill:rgb(13.729858%,12.159729%,12.548828%);fill-opacity:1;" d="M 32.644531 37.644531 L 25.121094 30.121094 C 23.933594 32.554688 23.273438 35.296875 23.285156 38.191406 L 23.304688 52.292969 L 19.195312 51.332031 C 18.996094 51.257812 18.773438 51.308594 18.636719 51.460938 C 18.492188 51.613281 18.464844 51.84375 18.566406 52.03125 L 27.546875 65.136719 C 27.640625 65.265625 27.789062 65.351562 27.949219 65.351562 C 28.109375 65.351562 28.265625 65.28125 28.359375 65.152344 L 37.304688 52.078125 C 37.433594 51.910156 37.449219 51.671875 37.328125 51.503906 C 37.210938 51.339844 37.007812 51.257812 36.8125 51.300781 L 32.597656 52.242188 L 32.632812 38.167969 C 32.632812 37.992188 32.636719 37.820312 32.644531 37.644531 "/>
</g>
</svg>
