<?xml version="1.0" encoding="UTF-8"?>
<svg xmlns="http://www.w3.org/2000/svg" xmlns:xlink="http://www.w3.org/1999/xlink" width="86pt" height="85pt" viewBox="0 0 86 85" version="1.1">
<g id="surface1">
<path style=" stroke:none;fill-rule:nonzero;fill:rgb(93.527222%,17.272949%,18.882751%);fill-opacity:1;" d="M 14.320312 73.914062 C 20.597656 79.730469 28.214844 83.40625 36.667969 84.734375 C 45.121094 86.042969 53.484375 84.859375 61.242188 81.21875 C 68.996094 77.59375 75.261719 71.941406 79.675781 64.601562 C 84.074219 57.265625 86.125 49.085938 85.671875 40.527344 C 84.109375 10.625 52.914062 -8.339844 25.625 4.058594 C -2.03125 16.613281 -7.976562 53.285156 14.320312 73.914062 "/>
<path style=" stroke:none;fill-rule:nonzero;fill:rgb(100%,100%,100%);fill-opacity:1;" d="M 37.835938 70.59375 C 57.421875 74.308594 74.613281 57.175781 70.933594 37.582031 C 67.183594 17.566406 44.136719 7.945312 27.261719 19.355469 C 22.554688 22.53125 19.023438 26.875 16.886719 32.128906 C 14.75 37.386719 14.246094 42.949219 15.394531 48.507812 C 16.523438 54.050781 19.199219 58.96875 23.257812 62.949219 C 27.296875 66.933594 32.253906 69.535156 37.835938 70.59375 "/>
<path style=" stroke:none;fill-rule:nonzero;fill:rgb(13.729858%,12.159729%,12.548828%);fill-opacity:1;" d="M 26.628906 54.203125 C 28.40625 54.203125 29.832031 55.640625 29.800781 57.414062 C 29.765625 59.117188 28.351562 60.457031 26.648438 60.460938 C 24.941406 60.460938 23.511719 59.117188 23.484375 57.40625 C 23.449219 55.640625 24.878906 54.203125 26.628906 54.203125 "/>
<path style=" stroke:none;fill-rule:nonzero;fill:rgb(13.729858%,12.159729%,12.548828%);fill-opacity:1;" d="M 67.417969 57.289062 L 60.066406 57.28125 C 60.070312 57.230469 60.070312 57.15625 60.074219 57.105469 C 60.101562 55.035156 58.296875 53.457031 56.199219 53.457031 C 54.140625 53.457031 52.441406 55.066406 52.339844 57.105469 C 52.339844 57.167969 52.332031 57.253906 52.332031 57.3125 L 50.464844 57.3125 L 50.503906 56.859375 C 50.464844 56.847656 50.410156 56.824219 50.375 56.804688 C 50.253906 56.738281 50.171875 56.601562 50.171875 56.453125 L 50.179688 56.066406 C 50.179688 55.964844 50.203125 55.839844 50.285156 55.757812 C 50.367188 55.679688 50.492188 55.660156 50.605469 55.644531 L 50.941406 55.640625 L 51.390625 51.277344 C 51.410156 51.078125 51.53125 50.878906 51.675781 50.746094 C 51.816406 50.609375 52.035156 50.476562 52.21875 50.476562 L 52.761719 50.460938 L 54.117188 47.550781 C 54.265625 47.226562 54.53125 46.960938 54.835938 46.773438 C 55.175781 46.570312 55.695312 46.402344 56.082031 46.402344 L 60.5 46.386719 L 60.472656 54.316406 L 68.964844 54.347656 C 68.503906 55.351562 67.984375 56.351562 67.417969 57.289062 "/>
<path style=" stroke:none;fill-rule:nonzero;fill:rgb(13.729858%,12.159729%,12.548828%);fill-opacity:1;" d="M 69.246094 53.707031 L 60.980469 53.703125 L 61.039062 42.777344 L 71.429688 42.757812 C 71.429688 42.808594 71.429688 42.867188 71.429688 42.917969 C 71.429688 46.730469 70.652344 50.375 69.246094 53.707031 "/>
<path style=" stroke:none;fill-rule:nonzero;fill:rgb(13.729858%,12.159729%,12.548828%);fill-opacity:1;" d="M 14.8125 42.746094 L 34.65625 42.746094 L 34.65625 53.710938 L 29.679688 53.710938 C 29.734375 53.765625 29.851562 53.933594 29.902344 53.996094 C 29.914062 54.003906 29.929688 54.023438 29.9375 54.035156 C 29.972656 54.074219 30.023438 54.128906 30.054688 54.160156 C 30.097656 54.21875 30.144531 54.277344 30.183594 54.339844 C 30.203125 54.371094 30.226562 54.421875 30.242188 54.449219 L 34.203125 54.449219 L 34.234375 55.5625 L 31.289062 56.660156 C 31.296875 56.703125 31.308594 56.773438 31.316406 56.820312 C 31.332031 56.898438 31.339844 56.976562 31.34375 57.054688 C 31.34375 57.121094 31.34375 57.191406 31.339844 57.253906 C 31.335938 57.300781 31.328125 57.363281 31.316406 57.40625 L 30.550781 57.398438 C 30.542969 57.355469 30.539062 57.300781 30.539062 57.257812 C 30.378906 55.167969 28.769531 53.425781 26.679688 53.402344 C 24.605469 53.386719 22.960938 55.085938 22.765625 57.15625 C 22.757812 57.226562 22.761719 57.375 22.757812 57.4375 L 18.867188 57.4375 C 18.269531 56.449219 17.746094 55.421875 17.273438 54.363281 L 22.96875 54.453125 C 22.984375 54.433594 23.015625 54.398438 23.035156 54.375 L 23.183594 54.195312 C 23.234375 54.132812 23.300781 54.0625 23.355469 54.003906 C 23.390625 53.964844 23.648438 53.746094 23.675781 53.710938 L 16.984375 53.710938 C 16.300781 52.046875 15.792969 50.316406 15.425781 48.523438 C 15.03125 46.59375 14.816406 44.660156 14.8125 42.746094 "/>
<path style=" stroke:none;fill-rule:nonzero;fill:rgb(13.729858%,12.159729%,12.548828%);fill-opacity:1;" d="M 56.207031 54.105469 C 57.957031 54.105469 59.363281 55.503906 59.386719 57.234375 C 59.410156 58.996094 57.996094 60.460938 56.21875 60.46875 C 54.441406 60.472656 53.019531 59.011719 53.03125 57.246094 C 53.050781 55.511719 54.457031 54.105469 56.207031 54.105469 "/>
<path style=" stroke:none;fill-rule:nonzero;fill:rgb(13.729858%,12.159729%,12.548828%);fill-opacity:1;" d="M 30.386719 36.046875 C 30.679688 36.171875 31.019531 36.300781 31.421875 36.394531 C 31.804688 36.5 32.238281 36.554688 32.6875 36.554688 C 33.832031 36.554688 34.710938 36.15625 35.332031 35.371094 C 35.949219 34.566406 36.257812 33.488281 36.257812 32.117188 C 36.257812 31.496094 36.179688 30.925781 36.027344 30.453125 C 35.855469 29.960938 35.636719 29.554688 35.375 29.226562 C 35.113281 28.902344 34.789062 28.664062 34.433594 28.496094 C 34.066406 28.332031 33.675781 28.242188 33.277344 28.242188 C 33.027344 28.242188 32.796875 28.261719 32.59375 28.296875 C 32.378906 28.316406 32.191406 28.367188 32.054688 28.421875 L 32.054688 25.207031 L 35.746094 25.207031 L 35.746094 23.652344 L 30.539062 23.652344 L 30.539062 30.160156 C 30.800781 30.070312 31.082031 29.976562 31.359375 29.886719 C 31.636719 29.792969 31.960938 29.757812 32.320312 29.757812 C 33.058594 29.757812 33.613281 29.996094 34.003906 30.453125 C 34.375 30.910156 34.558594 31.53125 34.558594 32.28125 C 34.558594 33.066406 34.375 33.707031 33.984375 34.199219 C 33.597656 34.710938 33.074219 34.96875 32.410156 34.96875 C 32.023438 34.96875 31.667969 34.894531 31.34375 34.765625 C 31.019531 34.640625 30.726562 34.492188 30.476562 34.332031 L 30.386719 36.046875 "/>
<path style=" stroke:none;fill-rule:nonzero;fill:rgb(13.729858%,12.159729%,12.548828%);fill-opacity:1;" d="M 37.910156 34.695312 C 38.175781 35.28125 38.515625 35.738281 38.929688 36.066406 C 39.347656 36.394531 39.84375 36.554688 40.449219 36.554688 C 41.046875 36.554688 41.558594 36.394531 41.976562 36.046875 C 42.390625 35.71875 42.730469 35.261719 42.996094 34.675781 C 43.257812 34.09375 43.441406 33.398438 43.550781 32.609375 C 43.65625 31.824219 43.71875 30.964844 43.71875 30.03125 C 43.71875 29.097656 43.65625 28.242188 43.550781 27.433594 C 43.441406 26.652344 43.257812 25.957031 42.996094 25.371094 C 42.730469 24.785156 42.390625 24.328125 41.976562 23.984375 C 41.558594 23.652344 41.046875 23.484375 40.449219 23.484375 C 39.84375 23.484375 39.335938 23.652344 38.917969 23.984375 C 38.5 24.328125 38.175781 24.785156 37.910156 25.371094 C 37.648438 25.957031 37.464844 26.652344 37.355469 27.433594 C 37.246094 28.242188 37.183594 29.097656 37.183594 30.03125 C 37.183594 30.964844 37.246094 31.824219 37.355469 32.609375 C 37.464844 33.414062 37.648438 34.109375 37.910156 34.695312 "/>
<path style=" stroke:none;fill-rule:nonzero;fill:rgb(13.729858%,12.159729%,12.548828%);fill-opacity:1;" d="M 47.484375 36.410156 L 49.089844 36.410156 L 49.089844 30.671875 C 49.089844 29.976562 49.21875 29.449219 49.449219 29.0625 C 49.675781 28.679688 50.03125 28.496094 50.484375 28.496094 C 51.226562 28.496094 51.59375 29.082031 51.59375 30.234375 L 51.59375 36.410156 L 53.203125 36.410156 L 53.203125 30.671875 C 53.203125 29.976562 53.324219 29.449219 53.558594 29.0625 C 53.789062 28.679688 54.144531 28.496094 54.589844 28.496094 C 55.332031 28.496094 55.703125 29.082031 55.703125 30.234375 L 55.703125 36.410156 L 57.308594 36.410156 L 57.308594 30.269531 C 57.308594 29.175781 57.125 28.332031 56.753906 27.769531 C 56.371094 27.199219 55.796875 26.90625 55.023438 26.90625 C 54.515625 26.90625 54.097656 27.054688 53.773438 27.34375 C 53.449219 27.65625 53.203125 28.003906 53 28.386719 C 52.925781 28.207031 52.832031 28.023438 52.722656 27.839844 C 52.613281 27.671875 52.472656 27.511719 52.320312 27.363281 C 52.164062 27.234375 51.980469 27.125 51.78125 27.035156 C 51.578125 26.941406 51.332031 26.90625 51.070312 26.90625 C 50.574219 26.90625 50.171875 27.054688 49.847656 27.34375 C 49.527344 27.65625 49.265625 28.023438 49.089844 28.480469 L 49.0625 28.480469 C 49.0625 28.421875 49.0625 28.316406 49.0625 28.167969 C 49.046875 28.039062 49.046875 27.894531 49.046875 27.75 C 49.03125 27.601562 49.03125 27.453125 49.03125 27.328125 C 49.015625 27.199219 49.015625 27.089844 49.015625 27.035156 L 47.421875 27.035156 C 47.4375 27.292969 47.457031 27.566406 47.46875 27.855469 C 47.484375 28.148438 47.484375 28.460938 47.484375 28.808594 L 47.484375 36.410156 "/>
<path style=" stroke:none;fill-rule:nonzero;fill:rgb(100%,100%,100%);fill-opacity:1;" d="M 26.667969 56.007812 C 27.40625 56.015625 27.964844 56.664062 27.921875 57.40625 C 27.894531 58.078125 27.339844 58.609375 26.667969 58.621094 C 25.976562 58.628906 25.398438 58.109375 25.351562 57.421875 C 25.296875 56.652344 25.898438 56.003906 26.667969 56.007812 "/>
<path style=" stroke:none;fill-rule:nonzero;fill:rgb(100%,100%,100%);fill-opacity:1;" d="M 56.207031 55.957031 C 56.921875 55.960938 57.496094 56.539062 57.515625 57.242188 C 57.53125 57.96875 56.957031 58.578125 56.222656 58.59375 C 55.472656 58.609375 54.863281 58.003906 54.863281 57.261719 C 54.867188 56.535156 55.472656 55.957031 56.207031 55.957031 "/>
<path style=" stroke:none;fill-rule:nonzero;fill:rgb(100%,100%,100%);fill-opacity:1;" d="M 54.617188 47.613281 L 55.585938 47.628906 L 54.285156 50.480469 L 53.355469 50.476562 L 54.617188 47.613281 "/>
<path style=" stroke:none;fill-rule:nonzero;fill:rgb(100%,100%,100%);fill-opacity:1;" d="M 56.460938 47.632812 L 58.804688 47.652344 L 58.804688 50.480469 L 55.117188 50.464844 L 56.460938 47.632812 "/>
<path style=" stroke:none;fill-rule:nonzero;fill:rgb(100%,100%,100%);fill-opacity:1;" d="M 39.179688 33.726562 C 38.945312 32.863281 38.824219 31.621094 38.824219 30.03125 C 38.824219 28.445312 38.945312 27.199219 39.179688 26.324219 C 39.410156 25.445312 39.84375 25.007812 40.449219 25.007812 C 41.0625 25.007812 41.496094 25.445312 41.726562 26.300781 C 41.960938 27.179688 42.085938 28.421875 42.085938 30.03125 C 42.085938 31.621094 41.960938 32.863281 41.726562 33.726562 C 41.480469 34.601562 41.046875 35.042969 40.449219 35.042969 C 39.84375 35.042969 39.410156 34.601562 39.179688 33.726562 "/>
</g>
</svg>
