<?xml version="1.0" encoding="UTF-8"?>
<svg xmlns="http://www.w3.org/2000/svg" xmlns:xlink="http://www.w3.org/1999/xlink" width="87pt" height="86pt" viewBox="0 0 87 86" version="1.1">
<g id="surface1">
<path style=" stroke:none;fill-rule:nonzero;fill:rgb(93.527222%,17.272949%,18.882751%);fill-opacity:1;" d="M 73.585938 13.105469 C 90.191406 29.710938 90.191406 56.632812 73.585938 73.238281 C 56.980469 89.84375 30.058594 89.84375 13.453125 73.238281 C -3.152344 56.632812 -3.152344 29.710938 13.453125 13.105469 C 30.058594 -3.496094 56.980469 -3.496094 73.585938 13.105469 "/>
<path style=" stroke:none;fill-rule:nonzero;fill:rgb(100%,100%,100%);fill-opacity:1;" d="M 26.707031 20.34375 L 66.355469 59.988281 C 67.753906 58.09375 68.902344 56.050781 69.796875 53.84375 C 71.179688 50.433594 71.871094 46.878906 71.871094 43.171875 C 71.871094 39.464844 71.183594 35.910156 69.796875 32.496094 C 68.367188 28.976562 66.292969 25.851562 63.570312 23.128906 C 60.847656 20.40625 57.722656 18.332031 54.203125 16.902344 C 50.789062 15.515625 47.230469 14.824219 43.523438 14.824219 C 39.820312 14.828125 36.261719 15.519531 32.847656 16.898438 C 30.648438 17.792969 28.597656 18.9375 26.707031 20.34375 "/>
<path style=" stroke:none;fill-rule:nonzero;fill:rgb(100%,100%,100%);fill-opacity:1;" d="M 60.34375 66.003906 L 20.695312 26.355469 C 19.292969 28.25 18.148438 30.292969 17.25 32.5 C 15.871094 35.910156 15.175781 39.46875 15.175781 43.171875 C 15.175781 46.878906 15.867188 50.4375 17.253906 53.847656 C 18.679688 57.367188 20.757812 60.492188 23.476562 63.214844 C 26.203125 65.941406 29.324219 68.015625 32.847656 69.449219 C 36.261719 70.828125 39.816406 71.519531 43.523438 71.519531 C 47.230469 71.519531 50.789062 70.824219 54.199219 69.449219 C 56.40625 68.550781 58.449219 67.402344 60.34375 66.003906 "/>
<path style=" stroke:none;fill-rule:nonzero;fill:rgb(10.112%,40.585327%,73.280334%);fill-opacity:1;" d="M 28.019531 20.453125 C 29.625 19.351562 31.34375 18.429688 33.167969 17.6875 C 36.476562 16.347656 39.929688 15.675781 43.523438 15.675781 C 47.113281 15.675781 50.566406 16.347656 53.878906 17.691406 C 57.296875 19.078125 60.328125 21.09375 62.964844 23.730469 C 65.605469 26.371094 67.621094 29.402344 69.007812 32.820312 C 70.347656 36.125 71.019531 39.574219 71.019531 43.171875 C 71.019531 46.765625 70.347656 50.21875 69.007812 53.527344 C 68.269531 55.351562 67.347656 57.070312 66.246094 58.679688 L 28.019531 20.453125 "/>
<path style=" stroke:none;fill-rule:nonzero;fill:rgb(10.112%,40.585327%,73.280334%);fill-opacity:1;" d="M 59.03125 65.894531 C 57.417969 66.996094 55.703125 67.914062 53.878906 68.65625 C 50.566406 69.996094 47.113281 70.667969 43.523438 70.667969 C 39.925781 70.667969 36.472656 69.996094 33.167969 68.65625 C 29.75 67.269531 26.71875 65.253906 24.082031 62.613281 C 21.441406 59.972656 19.425781 56.945312 18.039062 53.527344 C 16.695312 50.214844 16.023438 46.761719 16.027344 43.171875 C 16.027344 39.574219 16.699219 36.125 18.039062 32.816406 C 18.777344 30.988281 19.699219 29.273438 20.800781 27.664062 L 59.03125 65.894531 "/>
</g>
</svg>
