<?xml version="1.0" encoding="UTF-8"?>
<svg xmlns="http://www.w3.org/2000/svg" xmlns:xlink="http://www.w3.org/1999/xlink" width="87pt" height="86pt" viewBox="0 0 87 86" version="1.1">
<g id="surface1">
<path style=" stroke:none;fill-rule:nonzero;fill:rgb(93.527222%,17.272949%,18.882751%);fill-opacity:1;" d="M 86.039062 43.171875 C 86.039062 19.691406 67.003906 0.652344 43.519531 0.652344 C 20.035156 0.652344 1 19.691406 1 43.171875 C 1 66.65625 20.035156 85.691406 43.519531 85.691406 C 67.003906 85.691406 86.039062 66.65625 86.039062 43.171875 "/>
<path style=" stroke:none;fill-rule:nonzero;fill:rgb(100%,100%,100%);fill-opacity:1;" d="M 71.863281 43.171875 C 71.863281 27.515625 59.175781 14.828125 43.519531 14.828125 C 27.863281 14.828125 15.171875 27.515625 15.171875 43.171875 C 15.171875 58.828125 27.863281 71.519531 43.519531 71.519531 C 59.175781 71.519531 71.863281 58.828125 71.863281 43.171875 "/>
<path style=" stroke:none;fill-rule:nonzero;fill:rgb(13.729858%,12.159729%,12.548828%);fill-opacity:1;" d="M 62.652344 46.007812 L 24.386719 46.007812 C 22.824219 46.007812 21.550781 44.734375 21.550781 43.171875 C 21.550781 41.605469 22.824219 40.335938 24.386719 40.335938 L 62.652344 40.335938 C 64.21875 40.335938 65.488281 41.605469 65.488281 43.171875 C 65.488281 44.734375 64.21875 46.007812 62.652344 46.007812 "/>
<path style=" stroke:none;fill-rule:nonzero;fill:rgb(13.729858%,12.159729%,12.548828%);fill-opacity:1;" d="M 30.964844 37.074219 L 36.824219 37.074219 L 36.824219 35.8125 L 32.6875 35.8125 L 36.75 28.449219 L 36.75 27.15625 L 31.09375 27.15625 L 31.09375 28.421875 L 34.949219 28.421875 L 30.964844 35.683594 L 30.964844 37.074219 "/>
<path style=" stroke:none;fill-rule:nonzero;fill:rgb(13.729858%,12.159729%,12.548828%);fill-opacity:1;" d="M 38.203125 35.910156 C 38.542969 36.335938 38.945312 36.648438 39.410156 36.863281 C 39.863281 37.085938 40.363281 37.1875 40.890625 37.1875 C 41.445312 37.1875 41.957031 37.085938 42.425781 36.875 C 42.894531 36.664062 43.292969 36.351562 43.628906 35.925781 C 43.96875 35.511719 44.238281 34.972656 44.441406 34.332031 C 44.625 33.695312 44.726562 32.925781 44.726562 32.058594 C 44.726562 31.222656 44.625 30.492188 44.441406 29.871094 C 44.238281 29.246094 43.96875 28.71875 43.628906 28.289062 C 43.292969 27.878906 42.894531 27.550781 42.4375 27.339844 C 41.972656 27.128906 41.472656 27.027344 40.945312 27.027344 C 40.390625 27.027344 39.894531 27.128906 39.425781 27.339844 C 38.957031 27.550781 38.542969 27.867188 38.203125 28.28125 C 37.863281 28.703125 37.59375 29.246094 37.40625 29.886719 C 37.207031 30.523438 37.105469 31.292969 37.105469 32.15625 C 37.105469 32.996094 37.207031 33.722656 37.40625 34.34375 C 37.59375 34.972656 37.863281 35.496094 38.203125 35.910156 "/>
<path style=" stroke:none;fill-rule:nonzero;fill:rgb(13.729858%,12.159729%,12.548828%);fill-opacity:1;" d="M 45.777344 37.074219 L 50.566406 37.074219 L 50.566406 35.8125 L 47.3125 35.8125 L 47.3125 27.15625 L 45.777344 27.15625 L 45.777344 37.074219 "/>
<path style=" stroke:none;fill-rule:nonzero;fill:rgb(13.729858%,12.159729%,12.548828%);fill-opacity:1;" d="M 51.277344 37.074219 L 56.070312 37.074219 L 56.070312 35.8125 L 52.8125 35.8125 L 52.8125 27.15625 L 51.277344 27.15625 L 51.277344 37.074219 "/>
<path style=" stroke:none;fill-rule:nonzero;fill:rgb(13.729858%,12.159729%,12.548828%);fill-opacity:1;" d="M 23.679688 59.1875 L 25.488281 59.1875 C 26.203125 59.1875 26.828125 59.070312 27.367188 58.828125 C 27.90625 58.601562 28.367188 58.273438 28.730469 57.832031 C 29.09375 57.394531 29.351562 56.867188 29.542969 56.242188 C 29.730469 55.613281 29.816406 54.917969 29.816406 54.140625 C 29.816406 53.058594 29.664062 52.175781 29.351562 51.492188 C 29.042969 50.828125 28.640625 50.316406 28.167969 49.960938 C 27.878906 49.746094 27.542969 49.574219 27.167969 49.449219 C 26.777344 49.320312 26.316406 49.265625 25.769531 49.265625 L 23.679688 49.265625 L 23.679688 59.1875 "/>
<path style=" stroke:none;fill-rule:nonzero;fill:rgb(13.729858%,12.159729%,12.548828%);fill-opacity:1;" d="M 31.433594 58.019531 C 31.730469 58.445312 32.085938 58.757812 32.496094 58.96875 C 32.894531 59.195312 33.335938 59.296875 33.796875 59.296875 C 34.285156 59.296875 34.734375 59.195312 35.144531 58.984375 C 35.558594 58.773438 35.910156 58.457031 36.210938 58.035156 C 36.511719 57.621094 36.746094 57.082031 36.921875 56.4375 C 37.085938 55.800781 37.171875 55.035156 37.171875 54.167969 C 37.171875 53.328125 37.085938 52.601562 36.921875 51.976562 C 36.746094 51.351562 36.511719 50.828125 36.210938 50.398438 C 35.910156 49.988281 35.558594 49.660156 35.160156 49.449219 C 34.746094 49.234375 34.308594 49.136719 33.84375 49.136719 C 33.359375 49.136719 32.921875 49.234375 32.511719 49.449219 C 32.097656 49.660156 31.730469 49.972656 31.433594 50.386719 C 31.136719 50.8125 30.898438 51.351562 30.730469 51.992188 C 30.558594 52.628906 30.46875 53.402344 30.46875 54.265625 C 30.46875 55.101562 30.558594 55.832031 30.730469 56.453125 C 30.898438 57.082031 31.136719 57.605469 31.433594 58.019531 "/>
<path style=" stroke:none;fill-rule:nonzero;fill:rgb(13.729858%,12.159729%,12.548828%);fill-opacity:1;" d="M 38.070312 49.265625 L 38.070312 55.605469 C 38.070312 56.085938 38.09375 56.496094 38.15625 56.839844 C 38.214844 57.195312 38.316406 57.523438 38.46875 57.832031 C 38.679688 58.289062 39.003906 58.640625 39.417969 58.902344 C 39.828125 59.171875 40.328125 59.296875 40.917969 59.296875 C 41.507812 59.296875 42.007812 59.171875 42.417969 58.902344 C 42.832031 58.632812 43.15625 58.273438 43.367188 57.816406 C 43.519531 57.507812 43.617188 57.179688 43.675781 56.839844 C 43.738281 56.496094 43.765625 56.085938 43.765625 55.605469 L 43.765625 49.265625 L 42.417969 49.265625 L 42.417969 55.703125 C 42.417969 56.511719 42.292969 57.09375 42.042969 57.480469 C 41.78125 57.859375 41.40625 58.0625 40.917969 58.0625 C 39.917969 58.0625 39.417969 57.277344 39.417969 55.703125 L 39.417969 49.265625 L 38.070312 49.265625 "/>
<path style=" stroke:none;fill-rule:nonzero;fill:rgb(13.729858%,12.159729%,12.548828%);fill-opacity:1;" d="M 43.796875 59.1875 L 45.144531 59.1875 L 45.808594 56.699219 L 48.972656 56.699219 L 49.636719 59.1875 L 51.035156 59.1875 L 48.195312 49.265625 L 46.722656 49.265625 L 43.796875 59.1875 "/>
<path style=" stroke:none;fill-rule:nonzero;fill:rgb(13.729858%,12.159729%,12.548828%);fill-opacity:1;" d="M 51.660156 59.1875 L 52.90625 59.1875 L 52.90625 51.25 L 52.933594 51.25 L 56.023438 59.1875 L 57.660156 59.1875 L 57.660156 49.265625 L 56.410156 49.265625 L 56.410156 57.253906 L 56.386719 57.253906 L 53.296875 49.265625 L 51.660156 49.265625 L 51.660156 59.1875 "/>
<path style=" stroke:none;fill-rule:nonzero;fill:rgb(13.729858%,12.159729%,12.548828%);fill-opacity:1;" d="M 58.890625 59.1875 L 63.355469 59.1875 L 63.355469 57.917969 L 60.242188 57.917969 L 60.242188 54.691406 L 63.066406 54.691406 L 63.066406 53.425781 L 60.242188 53.425781 L 60.242188 50.527344 L 63.21875 50.527344 L 63.21875 49.265625 L 58.890625 49.265625 L 58.890625 59.1875 "/>
<path style=" stroke:none;fill-rule:nonzero;fill:rgb(100%,100%,100%);fill-opacity:1;" d="M 39.269531 34.957031 C 38.886719 34.277344 38.703125 33.339844 38.703125 32.15625 C 38.703125 31.433594 38.757812 30.820312 38.886719 30.324219 C 39 29.828125 39.15625 29.414062 39.367188 29.105469 C 39.566406 28.804688 39.8125 28.574219 40.082031 28.433594 C 40.351562 28.304688 40.648438 28.238281 40.945312 28.238281 C 41.65625 28.238281 42.199219 28.574219 42.578125 29.257812 C 42.949219 29.941406 43.132812 30.878906 43.132812 32.058594 C 43.132812 32.785156 43.078125 33.394531 42.964844 33.890625 C 42.839844 34.390625 42.679688 34.804688 42.480469 35.101562 C 42.269531 35.414062 42.027344 35.640625 41.753906 35.769531 C 41.484375 35.910156 41.191406 35.980469 40.890625 35.980469 C 40.179688 35.980469 39.636719 35.640625 39.269531 34.957031 "/>
<path style=" stroke:none;fill-rule:nonzero;fill:rgb(100%,100%,100%);fill-opacity:1;" d="M 25.03125 57.949219 L 25.03125 50.5 L 25.628906 50.5 C 26.117188 50.5 26.542969 50.585938 26.890625 50.769531 C 27.242188 50.953125 27.527344 51.199219 27.753906 51.523438 C 27.96875 51.847656 28.128906 52.234375 28.242188 52.671875 C 28.339844 53.117188 28.390625 53.613281 28.390625 54.140625 C 28.390625 55.320312 28.167969 56.253906 27.714844 56.925781 C 27.253906 57.605469 26.566406 57.949219 25.628906 57.949219 L 25.03125 57.949219 "/>
<path style=" stroke:none;fill-rule:nonzero;fill:rgb(100%,100%,100%);fill-opacity:1;" d="M 32.371094 57.066406 C 32.035156 56.386719 31.871094 55.445312 31.871094 54.265625 C 31.871094 53.539062 31.917969 52.929688 32.035156 52.433594 C 32.132812 51.933594 32.273438 51.523438 32.460938 51.210938 C 32.632812 50.914062 32.84375 50.683594 33.082031 50.542969 C 33.320312 50.414062 33.582031 50.34375 33.84375 50.34375 C 34.472656 50.34375 34.949219 50.683594 35.285156 51.367188 C 35.609375 52.046875 35.773438 52.988281 35.773438 54.167969 C 35.773438 54.890625 35.722656 55.503906 35.621094 56 C 35.507812 56.496094 35.371094 56.910156 35.195312 57.210938 C 35.007812 57.523438 34.796875 57.75 34.558594 57.875 C 34.320312 58.019531 34.058594 58.089844 33.796875 58.089844 C 33.171875 58.089844 32.699219 57.75 32.371094 57.066406 "/>
<path style=" stroke:none;fill-rule:nonzero;fill:rgb(100%,100%,100%);fill-opacity:1;" d="M 46.132812 55.460938 L 47.421875 50.667969 L 47.445312 50.667969 L 48.660156 55.460938 L 46.132812 55.460938 "/>
</g>
</svg>
