<?xml version="1.0" encoding="UTF-8"?>
<svg xmlns="http://www.w3.org/2000/svg" xmlns:xlink="http://www.w3.org/1999/xlink" width="87pt" height="86pt" viewBox="0 0 87 86" version="1.1">
<g id="surface1">
<path style="fill-rule:nonzero;fill:rgb(100%,100%,100%);fill-opacity:1;stroke-width:2.835;stroke-linecap:butt;stroke-linejoin:round;stroke:rgb(13.729858%,12.159729%,12.548828%);stroke-opacity:1;stroke-miterlimit:4;" d="M 435.195312 853.476562 C 200.429688 853.476562 10 663.007812 10 428.28125 C 10 193.515625 200.429688 3.085938 435.195312 3.085938 C 669.921875 3.085938 860.390625 193.515625 860.390625 428.28125 C 860.390625 663.007812 669.921875 853.476562 435.195312 853.476562 " transform="matrix(0.1,0,0,-0.1,0,86)"/>
<path style=" stroke:none;fill-rule:nonzero;fill:rgb(13.729858%,12.159729%,12.548828%);fill-opacity:1;" d="M 50.1875 51.4375 L 46.667969 51.445312 L 46.65625 52.667969 L 77.9375 52.667969 L 77.933594 51.46875 L 73.839844 51.46875 C 73.949219 51.386719 74.097656 51.265625 74.167969 51.15625 C 74.261719 51.015625 74.292969 50.828125 74.292969 50.660156 L 74.289062 46.613281 L 75.121094 46.625 C 75.152344 46.480469 75.199219 46.269531 75.210938 46.121094 C 75.226562 45.972656 75.226562 45.753906 75.222656 45.605469 C 75.21875 45.5625 75.21875 45.519531 75.21875 45.476562 C 75.21875 45.429688 75.21875 45.386719 75.21875 45.34375 C 75.21875 45.324219 75.21875 45.300781 75.21875 45.277344 C 75.21875 45.257812 75.21875 45.234375 75.222656 45.214844 C 75.234375 44.886719 75.304688 44.546875 75.398438 44.230469 C 75.449219 44.058594 75.523438 43.8125 75.574219 43.640625 C 75.59375 43.574219 75.617188 43.503906 75.636719 43.4375 C 75.65625 43.371094 75.675781 43.304688 75.699219 43.234375 C 75.710938 43.183594 75.726562 43.132812 75.742188 43.078125 C 75.757812 43.027344 75.773438 42.976562 75.789062 42.921875 C 75.882812 42.605469 75.949219 42.28125 75.984375 41.953125 C 76.003906 41.8125 76.015625 41.671875 76.019531 41.53125 C 76.023438 41.390625 76.019531 41.246094 76.007812 41.105469 C 75.988281 40.828125 75.914062 40.554688 75.789062 40.304688 C 75.71875 40.160156 75.632812 40.023438 75.539062 39.890625 C 75.441406 39.757812 75.335938 39.632812 75.21875 39.515625 C 74.992188 39.292969 74.722656 39.101562 74.425781 38.992188 C 74.15625 38.890625 73.828125 38.808594 73.546875 38.753906 L 70.773438 33.21875 C 70.65625 32.984375 70.503906 32.761719 70.339844 32.550781 C 70.167969 32.335938 69.929688 32.058594 69.710938 31.882812 C 69.480469 31.695312 69.199219 31.578125 68.902344 31.53125 C 68.691406 31.496094 68.449219 31.46875 68.230469 31.453125 C 68.207031 31.449219 68.167969 31.445312 68.140625 31.445312 C 68.101562 31.441406 68.066406 31.4375 68.023438 31.433594 C 67.984375 31.429688 67.949219 31.425781 67.90625 31.425781 C 67.890625 31.421875 67.871094 31.421875 67.855469 31.421875 C 67.839844 31.421875 67.824219 31.421875 67.804688 31.421875 L 54.808594 31.402344 C 54.53125 31.398438 54.253906 31.496094 54.019531 31.648438 C 53.757812 31.816406 53.542969 32.046875 53.390625 32.3125 C 53.289062 32.488281 53.167969 32.730469 53.078125 32.910156 L 50.199219 38.707031 C 49.957031 38.761719 49.667969 38.835938 49.4375 38.925781 C 49.234375 39.003906 49.042969 39.113281 48.875 39.246094 C 48.769531 39.332031 48.664062 39.421875 48.570312 39.519531 C 48.476562 39.617188 48.386719 39.71875 48.304688 39.824219 C 48.078125 40.117188 47.902344 40.449219 47.808594 40.800781 C 47.722656 41.128906 47.695312 41.46875 47.742188 41.804688 C 47.773438 42.027344 47.828125 42.355469 47.871094 42.578125 C 47.878906 42.617188 47.886719 42.660156 47.894531 42.699219 C 47.898438 42.742188 47.90625 42.777344 47.914062 42.820312 C 47.914062 42.839844 47.917969 42.863281 47.921875 42.882812 C 47.925781 42.902344 47.929688 42.917969 47.933594 42.941406 C 47.972656 43.164062 48.019531 43.492188 48.050781 43.714844 C 48.058594 43.757812 48.066406 43.816406 48.074219 43.859375 C 48.078125 43.914062 48.085938 43.953125 48.09375 44.003906 C 48.09375 44.027344 48.097656 44.050781 48.101562 44.078125 C 48.105469 44.097656 48.109375 44.125 48.113281 44.148438 C 48.125 44.210938 48.285156 45.285156 48.285156 45.347656 C 48.285156 45.46875 48.269531 46.546875 48.351562 46.640625 C 48.414062 46.710938 48.503906 46.75 48.59375 46.75 C 48.773438 46.753906 48.953125 46.746094 49.128906 46.730469 C 49.304688 46.710938 49.480469 46.6875 49.65625 46.652344 L 49.691406 50.542969 C 49.695312 50.730469 49.726562 51.011719 49.867188 51.136719 L 50.191406 51.429688 L 50.191406 51.433594 L 50.1875 51.4375 "/>
<path style=" stroke:none;fill-rule:nonzero;fill:rgb(13.729858%,12.159729%,12.548828%);fill-opacity:1;" d="M 12.628906 51.4375 L 9.109375 51.445312 L 9.097656 52.667969 L 40.378906 52.667969 L 40.375 51.46875 L 36.28125 51.46875 C 36.390625 51.386719 36.539062 51.265625 36.609375 51.15625 C 36.703125 51.015625 36.734375 50.828125 36.734375 50.660156 L 36.730469 46.613281 L 37.5625 46.625 C 37.59375 46.480469 37.640625 46.269531 37.652344 46.121094 C 37.667969 45.972656 37.667969 45.753906 37.664062 45.605469 C 37.660156 45.5625 37.660156 45.519531 37.660156 45.476562 C 37.660156 45.429688 37.660156 45.386719 37.660156 45.34375 C 37.660156 45.324219 37.660156 45.300781 37.660156 45.277344 C 37.660156 45.257812 37.660156 45.234375 37.664062 45.214844 C 37.675781 44.886719 37.746094 44.546875 37.839844 44.230469 C 37.890625 44.058594 37.964844 43.8125 38.015625 43.640625 C 38.035156 43.574219 38.058594 43.503906 38.078125 43.4375 C 38.097656 43.371094 38.117188 43.304688 38.140625 43.234375 C 38.152344 43.183594 38.167969 43.132812 38.183594 43.078125 C 38.199219 43.027344 38.214844 42.976562 38.230469 42.921875 C 38.320312 42.605469 38.390625 42.28125 38.425781 41.953125 C 38.445312 41.8125 38.457031 41.671875 38.460938 41.53125 C 38.464844 41.390625 38.460938 41.246094 38.449219 41.105469 C 38.429688 40.828125 38.355469 40.554688 38.230469 40.304688 C 38.160156 40.160156 38.074219 40.023438 37.980469 39.890625 C 37.882812 39.757812 37.777344 39.632812 37.660156 39.515625 C 37.433594 39.292969 37.164062 39.101562 36.867188 38.992188 C 36.597656 38.890625 36.269531 38.808594 35.992188 38.753906 L 33.214844 33.21875 C 33.097656 32.984375 32.945312 32.761719 32.78125 32.550781 C 32.609375 32.335938 32.371094 32.058594 32.152344 31.882812 C 31.921875 31.695312 31.640625 31.578125 31.34375 31.53125 C 31.132812 31.496094 30.890625 31.46875 30.671875 31.453125 C 30.644531 31.449219 30.609375 31.445312 30.582031 31.445312 C 30.542969 31.441406 30.503906 31.4375 30.464844 31.433594 C 30.425781 31.429688 30.390625 31.425781 30.351562 31.425781 C 30.332031 31.421875 30.316406 31.421875 30.296875 31.421875 C 30.28125 31.421875 30.265625 31.421875 30.246094 31.421875 L 17.253906 31.402344 C 16.96875 31.398438 16.695312 31.496094 16.460938 31.648438 C 16.199219 31.816406 15.984375 32.046875 15.832031 32.3125 C 15.730469 32.488281 15.609375 32.730469 15.519531 32.910156 L 12.640625 38.707031 C 12.398438 38.761719 12.109375 38.835938 11.878906 38.925781 C 11.675781 39.003906 11.484375 39.113281 11.316406 39.246094 C 11.210938 39.332031 11.109375 39.421875 11.011719 39.519531 C 10.917969 39.617188 10.828125 39.71875 10.746094 39.824219 C 10.519531 40.117188 10.34375 40.449219 10.25 40.800781 C 10.164062 41.128906 10.136719 41.46875 10.183594 41.804688 C 10.214844 42.027344 10.269531 42.355469 10.3125 42.578125 C 10.320312 42.617188 10.328125 42.660156 10.332031 42.699219 C 10.339844 42.742188 10.347656 42.777344 10.355469 42.820312 C 10.359375 42.839844 10.359375 42.863281 10.363281 42.882812 C 10.367188 42.902344 10.371094 42.917969 10.375 42.941406 C 10.414062 43.164062 10.460938 43.492188 10.492188 43.714844 C 10.5 43.757812 10.507812 43.816406 10.511719 43.859375 C 10.519531 43.914062 10.527344 43.953125 10.535156 44.003906 C 10.535156 44.027344 10.539062 44.050781 10.542969 44.078125 C 10.546875 44.097656 10.550781 44.125 10.554688 44.148438 C 10.566406 44.210938 10.726562 45.285156 10.726562 45.347656 C 10.726562 45.46875 10.710938 46.546875 10.792969 46.640625 C 10.855469 46.710938 10.941406 46.75 11.035156 46.75 C 11.214844 46.753906 11.394531 46.746094 11.570312 46.730469 C 11.746094 46.710938 11.921875 46.6875 12.097656 46.652344 L 12.132812 50.542969 C 12.136719 50.730469 12.167969 51.011719 12.308594 51.136719 L 12.632812 51.429688 L 12.632812 51.433594 L 12.628906 51.4375 "/>
<path style=" stroke:none;fill-rule:nonzero;fill:rgb(13.729858%,12.159729%,12.548828%);fill-opacity:1;" d="M 18.621094 75.882812 C 19.152344 76.289062 19.699219 76.6875 20.25 77.0625 L 45.816406 51.496094 L 45.824219 50.59375 L 46.71875 50.59375 L 48.820312 48.488281 L 48.816406 47.601562 C 48.746094 47.601562 48.667969 47.601562 48.59375 47.601562 C 48.242188 47.601562 47.949219 47.46875 47.714844 47.203125 C 47.652344 47.132812 47.601562 47.046875 47.5625 46.941406 L 41.234375 53.273438 L 41.234375 53.519531 L 40.988281 53.519531 L 18.621094 75.882812 "/>
<path style=" stroke:none;fill-rule:nonzero;fill:rgb(13.729858%,12.159729%,12.548828%);fill-opacity:1;" d="M 7.851562 63.613281 C 8.1875 64.207031 8.542969 64.785156 8.90625 65.363281 L 20.753906 53.519531 L 17.945312 53.519531 L 7.851562 63.613281 "/>
<path style=" stroke:none;fill-rule:nonzero;fill:rgb(13.729858%,12.159729%,12.548828%);fill-opacity:1;" d="M 9.628906 66.445312 C 10.011719 66.992188 10.402344 67.539062 10.808594 68.070312 L 25.359375 53.519531 L 22.550781 53.519531 L 9.628906 66.445312 "/>
<path style=" stroke:none;fill-rule:nonzero;fill:rgb(13.729858%,12.159729%,12.548828%);fill-opacity:1;" d="M 11.605469 69.074219 C 12.023438 69.589844 12.453125 70.09375 12.898438 70.589844 L 29.96875 53.519531 L 27.160156 53.519531 L 11.605469 69.074219 "/>
<path style=" stroke:none;fill-rule:nonzero;fill:rgb(13.729858%,12.159729%,12.548828%);fill-opacity:1;" d="M 13.765625 71.523438 C 13.992188 71.765625 14.222656 71.996094 14.460938 72.230469 C 14.695312 72.46875 14.925781 72.699219 15.167969 72.925781 L 34.578125 53.519531 L 31.773438 53.519531 L 13.765625 71.523438 "/>
<path style=" stroke:none;fill-rule:nonzero;fill:rgb(13.729858%,12.159729%,12.548828%);fill-opacity:1;" d="M 16.101562 73.792969 C 16.597656 74.238281 17.101562 74.667969 17.617188 75.085938 L 39.183594 53.519531 L 36.378906 53.519531 L 16.101562 73.792969 "/>
<path style=" stroke:none;fill-rule:nonzero;fill:rgb(13.729858%,12.159729%,12.548828%);fill-opacity:1;" d="M 21.328125 77.78125 C 21.90625 78.148438 22.484375 78.503906 23.078125 78.84375 L 48.402344 53.519531 L 45.800781 53.519531 L 45.804688 53.308594 L 21.328125 77.78125 "/>
<path style=" stroke:none;fill-rule:nonzero;fill:rgb(13.729858%,12.159729%,12.548828%);fill-opacity:1;" d="M 65.710938 8.5625 C 65.136719 8.195312 64.554688 7.84375 63.964844 7.503906 L 35.53125 35.9375 L 36.464844 37.804688 L 65.710938 8.5625 "/>
<path style=" stroke:none;fill-rule:nonzero;fill:rgb(13.729858%,12.159729%,12.548828%);fill-opacity:1;" d="M 68.414062 10.464844 C 67.882812 10.054688 67.339844 9.664062 66.789062 9.28125 L 37.644531 38.429688 C 37.859375 38.558594 38.0625 38.71875 38.253906 38.910156 C 38.410156 39.0625 38.546875 39.222656 38.667969 39.394531 C 38.789062 39.554688 38.890625 39.722656 38.980469 39.902344 L 68.414062 10.464844 "/>
<path style=" stroke:none;fill-rule:nonzero;fill:rgb(13.729858%,12.159729%,12.548828%);fill-opacity:1;" d="M 70.9375 12.550781 C 70.441406 12.109375 69.933594 11.675781 69.425781 11.257812 L 39.308594 41.371094 C 39.308594 41.40625 39.308594 41.441406 39.308594 41.476562 C 39.308594 41.484375 39.308594 41.492188 39.308594 41.503906 C 39.308594 41.515625 39.308594 41.523438 39.308594 41.53125 C 39.308594 41.667969 39.296875 41.839844 39.269531 42.054688 C 39.226562 42.425781 39.152344 42.796875 39.046875 43.160156 C 39.042969 43.179688 39.03125 43.207031 39.023438 43.242188 C 39.015625 43.273438 39.007812 43.296875 39.003906 43.308594 C 38.992188 43.339844 38.984375 43.378906 38.96875 43.429688 C 38.960938 43.449219 38.957031 43.46875 38.953125 43.476562 C 38.945312 43.503906 38.9375 43.539062 38.921875 43.585938 C 38.90625 43.628906 38.898438 43.660156 38.894531 43.675781 C 38.882812 43.71875 38.859375 43.789062 38.832031 43.878906 C 38.832031 43.882812 38.832031 43.886719 38.832031 43.890625 C 38.828125 43.898438 38.820312 43.914062 38.8125 43.941406 C 38.738281 44.191406 38.683594 44.367188 38.65625 44.464844 C 38.609375 44.632812 38.570312 44.792969 38.546875 44.941406 L 70.9375 12.550781 "/>
<path style=" stroke:none;fill-rule:nonzero;fill:rgb(13.729858%,12.159729%,12.548828%);fill-opacity:1;" d="M 73.273438 14.824219 C 73.046875 14.582031 72.816406 14.347656 72.578125 14.113281 C 72.34375 13.875 72.109375 13.644531 71.871094 13.417969 L 54.734375 30.550781 C 54.761719 30.550781 54.785156 30.550781 54.808594 30.550781 L 54.8125 30.550781 L 57.539062 30.554688 L 73.273438 14.824219 "/>
<path style=" stroke:none;fill-rule:nonzero;fill:rgb(13.729858%,12.159729%,12.548828%);fill-opacity:1;" d="M 75.433594 17.269531 C 75.015625 16.757812 74.585938 16.253906 74.140625 15.757812 L 59.339844 30.558594 L 62.140625 30.5625 L 75.433594 17.269531 "/>
<path style=" stroke:none;fill-rule:nonzero;fill:rgb(13.729858%,12.159729%,12.548828%);fill-opacity:1;" d="M 77.410156 19.902344 C 77.03125 19.351562 76.636719 18.8125 76.226562 18.277344 L 63.941406 30.566406 L 66.742188 30.570312 L 77.410156 19.902344 "/>
<path style=" stroke:none;fill-rule:nonzero;fill:rgb(13.729858%,12.159729%,12.548828%);fill-opacity:1;" d="M 79.1875 22.730469 C 78.847656 22.140625 78.496094 21.558594 78.128906 20.984375 L 68.492188 30.621094 C 68.699219 30.640625 68.882812 30.664062 69.039062 30.691406 C 69.496094 30.765625 69.898438 30.941406 70.246094 31.21875 C 70.320312 31.28125 70.402344 31.355469 70.484375 31.433594 L 79.1875 22.730469 "/>
<path style=" stroke:none;fill-rule:nonzero;fill:rgb(13.729858%,12.159729%,12.548828%);fill-opacity:1;" d="M 47.421875 45.28125 C 47.398438 45.097656 47.347656 44.765625 47.273438 44.273438 C 47.273438 44.265625 47.269531 44.253906 47.265625 44.234375 C 47.265625 44.222656 47.261719 44.214844 47.261719 44.210938 C 47.257812 44.171875 47.257812 44.148438 47.253906 44.128906 C 47.242188 44.066406 47.234375 44.015625 47.230469 43.972656 C 47.226562 43.957031 47.222656 43.933594 47.21875 43.894531 C 47.210938 43.863281 47.210938 43.847656 47.210938 43.832031 C 47.167969 43.546875 47.132812 43.296875 47.097656 43.082031 C 47.097656 43.078125 47.09375 43.074219 47.09375 43.074219 C 47.089844 43.054688 47.089844 43.042969 47.085938 43.03125 C 47.085938 43.023438 47.082031 43.011719 47.078125 42.992188 C 47.078125 42.980469 47.074219 42.976562 47.074219 42.972656 C 47.074219 42.953125 47.070312 42.929688 47.066406 42.894531 C 47.0625 42.875 47.058594 42.859375 47.054688 42.847656 C 47.054688 42.84375 47.054688 42.84375 47.054688 42.84375 L 39.277344 50.617188 L 41.222656 50.617188 L 41.226562 51.476562 L 47.421875 45.28125 "/>
<path style=" stroke:none;fill-rule:nonzero;fill:rgb(13.729858%,12.159729%,12.548828%);fill-opacity:1;" d="M 46.882812 41.214844 C 46.894531 41.007812 46.929688 40.796875 46.984375 40.589844 C 47.105469 40.136719 47.316406 39.710938 47.628906 39.304688 C 47.734375 39.171875 47.84375 39.042969 47.964844 38.921875 C 48.082031 38.800781 48.207031 38.691406 48.347656 38.582031 C 48.589844 38.390625 48.851562 38.242188 49.136719 38.132812 C 49.277344 38.078125 49.433594 38.023438 49.609375 37.976562 L 51.878906 33.410156 L 38.367188 46.921875 L 38.246094 47.484375 L 37.808594 47.476562 L 37.582031 47.710938 L 37.582031 50.515625 L 46.882812 41.214844 "/>
<path style=" stroke:none;fill-rule:nonzero;fill:rgb(100%,100%,100%);fill-opacity:1;" d="M 52.207031 46.652344 L 59.398438 46.644531 C 59.613281 46.867188 59.871094 47.109375 60.121094 47.296875 C 60.324219 47.445312 60.546875 47.5625 60.789062 47.644531 C 60.933594 47.695312 61.085938 47.730469 61.238281 47.761719 C 61.390625 47.789062 61.542969 47.8125 61.699219 47.820312 C 62.058594 47.84375 62.421875 47.816406 62.769531 47.734375 C 62.910156 47.703125 63.050781 47.660156 63.179688 47.601562 C 63.316406 47.546875 63.441406 47.476562 63.5625 47.398438 C 63.832031 47.222656 64.160156 46.875 64.375 46.636719 L 71.753906 46.617188 L 71.777344 50.667969 C 71.777344 50.839844 71.847656 51.003906 71.957031 51.140625 C 72.046875 51.25 72.15625 51.359375 72.261719 51.457031 L 51.804688 51.460938 C 51.886719 51.394531 51.96875 51.320312 52.039062 51.238281 C 52.175781 51.085938 52.25 50.886719 52.246094 50.679688 L 52.207031 46.652344 "/>
<path style=" stroke:none;fill-rule:nonzero;fill:rgb(100%,100%,100%);fill-opacity:1;" d="M 71.429688 38.261719 C 70.839844 38.171875 69.96875 38.050781 69.378906 37.984375 C 68.675781 37.902344 67.972656 37.84375 67.269531 37.808594 C 66.125 37.746094 64.976562 37.707031 63.832031 37.6875 C 61.84375 37.65625 59.796875 37.675781 57.816406 37.773438 C 56.546875 37.835938 55.171875 37.941406 53.917969 38.125 C 53.441406 38.195312 52.746094 38.3125 52.273438 38.394531 L 54.464844 33.8125 C 54.574219 33.585938 54.734375 33.390625 54.933594 33.230469 C 55.097656 33.09375 55.285156 32.980469 55.484375 32.894531 C 55.542969 32.867188 55.605469 32.847656 55.671875 32.832031 C 55.738281 32.820312 55.804688 32.8125 55.875 32.8125 L 67.765625 32.867188 C 68.066406 32.871094 68.375 32.925781 68.636719 33.070312 C 68.78125 33.148438 68.910156 33.25 69.023438 33.371094 C 69.085938 33.4375 69.140625 33.507812 69.191406 33.585938 C 69.242188 33.65625 69.285156 33.738281 69.324219 33.820312 L 71.429688 38.261719 "/>
<path style=" stroke:none;fill-rule:nonzero;fill:rgb(100%,100%,100%);fill-opacity:1;" d="M 14.648438 46.652344 L 21.839844 46.644531 C 22.054688 46.867188 22.3125 47.109375 22.5625 47.296875 C 22.765625 47.445312 22.988281 47.5625 23.230469 47.644531 C 23.375 47.695312 23.527344 47.730469 23.679688 47.761719 C 23.832031 47.789062 23.984375 47.8125 24.140625 47.820312 C 24.5 47.84375 24.863281 47.816406 25.210938 47.734375 C 25.351562 47.703125 25.492188 47.660156 25.621094 47.601562 C 25.757812 47.546875 25.882812 47.476562 26.003906 47.398438 C 26.269531 47.222656 26.601562 46.875 26.816406 46.636719 L 34.191406 46.617188 L 34.21875 50.667969 C 34.21875 50.839844 34.289062 51.003906 34.398438 51.140625 C 34.488281 51.25 34.597656 51.359375 34.703125 51.457031 L 14.246094 51.460938 C 14.328125 51.394531 14.410156 51.320312 14.480469 51.238281 C 14.617188 51.085938 14.691406 50.886719 14.6875 50.679688 L 14.648438 46.652344 "/>
<path style=" stroke:none;fill-rule:nonzero;fill:rgb(100%,100%,100%);fill-opacity:1;" d="M 33.871094 38.261719 C 33.28125 38.171875 32.410156 38.050781 31.820312 37.984375 C 31.117188 37.902344 30.414062 37.84375 29.710938 37.808594 C 28.566406 37.746094 27.417969 37.707031 26.273438 37.6875 C 24.285156 37.65625 22.238281 37.675781 20.257812 37.773438 C 18.988281 37.835938 17.613281 37.941406 16.359375 38.125 C 15.882812 38.195312 15.1875 38.3125 14.714844 38.394531 L 16.902344 33.8125 C 17.011719 33.585938 17.175781 33.390625 17.375 33.230469 C 17.539062 33.09375 17.726562 32.980469 17.925781 32.894531 C 17.984375 32.867188 18.046875 32.847656 18.113281 32.832031 C 18.179688 32.820312 18.246094 32.8125 18.316406 32.8125 L 30.207031 32.867188 C 30.503906 32.871094 30.816406 32.925781 31.078125 33.070312 C 31.21875 33.148438 31.351562 33.25 31.464844 33.371094 C 31.527344 33.4375 31.582031 33.507812 31.632812 33.585938 C 31.683594 33.65625 31.726562 33.738281 31.765625 33.820312 L 33.871094 38.261719 "/>
</g>
</svg>
