<?xml version="1.0" encoding="UTF-8"?>
<svg xmlns="http://www.w3.org/2000/svg" xmlns:xlink="http://www.w3.org/1999/xlink" width="73pt" height="100pt" viewBox="0 0 73 100" version="1.1">
<g id="surface1">
<path style=" stroke:none;fill-rule:nonzero;fill:rgb(100%,100%,100%);fill-opacity:1;" d="M 1.085938 99.78125 L 71.953125 99.78125 L 71.953125 0.566406 L 1.085938 0.566406 Z M 1.085938 99.78125 "/>
<path style="fill:none;stroke-width:2.835;stroke-linecap:butt;stroke-linejoin:miter;stroke:rgb(13.729858%,12.159729%,12.548828%);stroke-opacity:1;stroke-miterlimit:4;" d="M 10.859375 2.1875 L 719.53125 2.1875 L 719.53125 994.335938 L 10.859375 994.335938 L 10.859375 2.1875 " transform="matrix(0.1,0,0,-0.1,0,100)"/>
<path style=" stroke:none;fill-rule:nonzero;fill:rgb(13.729858%,12.159729%,12.548828%);fill-opacity:1;" d="M 2.503906 95.527344 L 2.503906 4.820312 C 2.503906 4.035156 2.78125 3.367188 3.332031 2.816406 C 3.886719 2.261719 4.554688 1.984375 5.335938 1.984375 L 67.699219 1.984375 C 68.480469 1.984375 69.152344 2.261719 69.703125 2.816406 C 70.257812 3.367188 70.535156 4.035156 70.535156 4.820312 L 70.535156 95.527344 C 70.535156 96.308594 70.257812 96.976562 69.703125 97.53125 C 69.152344 98.085938 68.480469 98.363281 67.699219 98.363281 L 5.335938 98.363281 C 4.554688 98.363281 3.886719 98.085938 3.332031 97.53125 C 2.78125 96.976562 2.503906 96.308594 2.503906 95.527344 "/>
<path style=" stroke:none;fill-rule:nonzero;fill:rgb(100%,100%,100%);fill-opacity:1;" d="M 3.921875 95.527344 L 3.921875 4.820312 C 3.921875 4.425781 4.058594 4.09375 4.335938 3.816406 C 4.613281 3.539062 4.945312 3.402344 5.335938 3.402344 L 67.699219 3.402344 C 68.089844 3.402344 68.425781 3.539062 68.703125 3.816406 C 68.976562 4.09375 69.117188 4.425781 69.117188 4.820312 L 69.117188 95.527344 C 69.117188 95.917969 68.976562 96.25 68.703125 96.53125 C 68.425781 96.804688 68.089844 96.945312 67.699219 96.945312 L 5.335938 96.945312 C 4.945312 96.945312 4.613281 96.804688 4.335938 96.53125 C 4.058594 96.25 3.921875 95.917969 3.921875 95.527344 "/>
<path style=" stroke:none;fill-rule:nonzero;fill:rgb(13.729858%,12.159729%,12.548828%);fill-opacity:1;" d="M 20.464844 18.28125 L 26.320312 18.28125 L 26.320312 17.019531 L 22.183594 17.019531 L 26.25 9.65625 L 26.25 8.363281 L 20.59375 8.363281 L 20.59375 9.628906 L 24.445312 9.628906 L 20.464844 16.894531 L 20.464844 18.28125 "/>
<path style=" stroke:none;fill-rule:nonzero;fill:rgb(13.729858%,12.159729%,12.548828%);fill-opacity:1;" d="M 28.296875 17.121094 C 28.640625 17.542969 29.039062 17.855469 29.507812 18.070312 C 29.960938 18.292969 30.460938 18.394531 30.988281 18.394531 C 31.542969 18.394531 32.054688 18.292969 32.519531 18.085938 C 32.988281 17.871094 33.390625 17.558594 33.730469 17.132812 C 34.070312 16.71875 34.339844 16.179688 34.539062 15.539062 C 34.722656 14.902344 34.824219 14.136719 34.824219 13.269531 C 34.824219 12.429688 34.722656 11.703125 34.539062 11.078125 C 34.339844 10.453125 34.070312 9.925781 33.730469 9.496094 C 33.390625 9.089844 32.988281 8.761719 32.535156 8.546875 C 32.066406 8.335938 31.570312 8.234375 31.042969 8.234375 C 30.488281 8.234375 29.988281 8.335938 29.523438 8.546875 C 29.054688 8.761719 28.640625 9.074219 28.296875 9.488281 C 27.960938 9.910156 27.691406 10.453125 27.503906 11.09375 C 27.304688 11.730469 27.203125 12.5 27.203125 13.363281 C 27.203125 14.203125 27.304688 14.929688 27.503906 15.554688 C 27.691406 16.179688 27.960938 16.707031 28.296875 17.121094 "/>
<path style=" stroke:none;fill-rule:nonzero;fill:rgb(13.729858%,12.159729%,12.548828%);fill-opacity:1;" d="M 36.433594 18.28125 L 37.851562 18.28125 L 37.851562 10.351562 L 37.882812 10.351562 L 41.390625 18.28125 L 43.257812 18.28125 L 43.257812 8.363281 L 41.835938 8.363281 L 41.835938 16.351562 L 41.804688 16.351562 L 38.292969 8.363281 L 36.433594 8.363281 L 36.433594 18.28125 "/>
<path style=" stroke:none;fill-rule:nonzero;fill:rgb(13.729858%,12.159729%,12.548828%);fill-opacity:1;" d="M 44.339844 18.28125 L 45.878906 18.28125 L 46.628906 15.796875 L 50.226562 15.796875 L 50.976562 18.28125 L 52.570312 18.28125 L 49.34375 8.363281 L 47.664062 8.363281 L 44.339844 18.28125 "/>
<path style=" stroke:none;fill-rule:nonzero;fill:rgb(100%,100%,100%);fill-opacity:1;" d="M 29.367188 16.164062 C 28.980469 15.484375 28.796875 14.546875 28.796875 13.363281 C 28.796875 12.640625 28.851562 12.03125 28.980469 11.53125 C 29.097656 11.035156 29.253906 10.621094 29.464844 10.3125 C 29.664062 10.011719 29.90625 9.78125 30.175781 9.640625 C 30.449219 9.511719 30.746094 9.445312 31.042969 9.445312 C 31.753906 9.445312 32.292969 9.78125 32.675781 10.46875 C 33.046875 11.148438 33.230469 12.085938 33.230469 13.269531 C 33.230469 13.992188 33.175781 14.601562 33.0625 15.101562 C 32.933594 15.597656 32.777344 16.011719 32.578125 16.308594 C 32.367188 16.621094 32.125 16.847656 31.851562 16.976562 C 31.582031 17.121094 31.285156 17.1875 30.988281 17.1875 C 30.273438 17.1875 29.734375 16.847656 29.367188 16.164062 "/>
<path style=" stroke:none;fill-rule:nonzero;fill:rgb(100%,100%,100%);fill-opacity:1;" d="M 47 14.558594 L 48.460938 9.769531 L 48.488281 9.769531 L 49.867188 14.558594 L 47 14.558594 "/>
<path style=" stroke:none;fill-rule:nonzero;fill:rgb(10.112%,40.585327%,73.280334%);fill-opacity:1;" d="M 11.71875 25.367188 L 61.328125 25.367188 L 61.328125 74.972656 L 11.71875 74.972656 L 11.71875 25.367188 "/>
<path style=" stroke:none;fill-rule:nonzero;fill:rgb(100%,100%,100%);fill-opacity:1;" d="M 32.351562 68.730469 L 26.109375 68.730469 L 26.109375 33.558594 L 43.699219 33.558594 C 45.148438 33.558594 46.722656 34.125 47.667969 35.386719 C 48.929688 37.023438 48.867188 38.601562 48.867188 38.601562 L 48.867188 50.386719 C 48.867188 51.207031 48.617188 52.972656 47.355469 54.234375 C 46.21875 55.371094 45.023438 55.808594 43.699219 55.808594 L 32.351562 55.808594 L 32.351562 68.730469 "/>
<path style=" stroke:none;fill-rule:nonzero;fill:rgb(10.112%,40.585327%,73.280334%);fill-opacity:1;" d="M 32.34375 50.386719 L 32.34375 39.105469 L 41.296875 39.105469 C 41.675781 39.105469 42.113281 39.105469 42.367188 39.355469 C 42.617188 39.609375 42.683594 39.859375 42.683594 40.425781 L 42.683594 49.0625 C 42.683594 49.503906 42.558594 49.882812 42.304688 50.070312 C 42.054688 50.324219 41.800781 50.386719 41.359375 50.386719 L 32.34375 50.386719 "/>
</g>
</svg>
