<?xml version="1.0" encoding="UTF-8"?>
<svg xmlns="http://www.w3.org/2000/svg" xmlns:xlink="http://www.w3.org/1999/xlink" width="73pt" height="100pt" viewBox="0 0 73 100" version="1.1">
<g id="surface1">
<path style=" stroke:none;fill-rule:nonzero;fill:rgb(100%,100%,100%);fill-opacity:1;" d="M 1.085938 99.78125 L 71.953125 99.78125 L 71.953125 0.566406 L 1.085938 0.566406 Z M 1.085938 99.78125 "/>
<path style="fill:none;stroke-width:2.835;stroke-linecap:butt;stroke-linejoin:round;stroke:rgb(13.729858%,12.159729%,12.548828%);stroke-opacity:1;stroke-miterlimit:4;" d="M 10.859375 2.1875 L 719.53125 2.1875 L 719.53125 994.335938 L 10.859375 994.335938 L 10.859375 2.1875 " transform="matrix(0.1,0,0,-0.1,0,100)"/>
<path style=" stroke:none;fill-rule:nonzero;fill:rgb(13.729858%,12.159729%,12.548828%);fill-opacity:1;" d="M 2.503906 4.820312 C 2.503906 4.035156 2.78125 3.367188 3.332031 2.8125 C 3.886719 2.261719 4.558594 1.984375 5.335938 1.984375 L 67.699219 1.984375 C 68.480469 1.984375 69.152344 2.261719 69.707031 2.8125 C 70.257812 3.367188 70.535156 4.035156 70.535156 4.820312 L 70.535156 95.527344 C 70.535156 96.308594 70.257812 96.980469 69.707031 97.53125 C 69.152344 98.082031 68.480469 98.359375 67.699219 98.359375 L 5.335938 98.359375 C 4.558594 98.359375 3.886719 98.082031 3.332031 97.53125 C 2.78125 96.980469 2.503906 96.308594 2.503906 95.527344 L 2.503906 4.820312 "/>
<path style=" stroke:none;fill-rule:nonzero;fill:rgb(100%,100%,100%);fill-opacity:1;" d="M 3.917969 90.304688 L 9.863281 81.746094 L 10.890625 82.753906 L 3.917969 92.796875 L 3.917969 94.035156 L 11.40625 83.253906 L 12.433594 84.261719 L 4.113281 96.242188 C 4.171875 96.34375 4.246094 96.441406 4.335938 96.527344 C 4.425781 96.617188 4.519531 96.695312 4.621094 96.75 L 12.945312 84.761719 L 13.976562 85.769531 L 6.214844 96.945312 L 7.078125 96.945312 L 14.488281 86.273438 L 15.519531 87.277344 L 8.804688 96.945312 L 67.699219 96.945312 C 68.09375 96.945312 68.425781 96.804688 68.703125 96.527344 C 68.980469 96.25 69.117188 95.917969 69.117188 95.527344 L 69.117188 10.085938 L 63.726562 17.851562 L 62.761719 16.75 L 69.117188 7.597656 L 69.117188 6.355469 L 62.28125 16.203125 L 61.316406 15.101562 L 68.941406 4.125 C 68.878906 4.015625 68.796875 3.910156 68.703125 3.816406 C 68.617188 3.734375 68.53125 3.664062 68.4375 3.605469 L 60.835938 14.554688 L 59.871094 13.453125 L 66.855469 3.398438 L 65.992188 3.398438 L 59.390625 12.90625 L 58.429688 11.808594 L 64.265625 3.398438 L 5.335938 3.398438 C 4.945312 3.398438 4.613281 3.539062 4.335938 3.816406 C 4.058594 4.09375 3.917969 4.425781 3.917969 4.820312 L 3.917969 90.304688 "/>
<path style=" stroke:none;fill-rule:nonzero;fill:rgb(56.864929%,56.079102%,56.274414%);fill-opacity:1;" d="M 56.566406 30.128906 C 67.636719 41.199219 67.636719 59.148438 56.566406 70.21875 C 45.496094 81.285156 27.546875 81.285156 16.480469 70.21875 C 5.410156 59.148438 5.410156 41.199219 16.480469 30.128906 C 27.546875 19.058594 45.496094 19.058594 56.566406 30.128906 "/>
<path style=" stroke:none;fill-rule:nonzero;fill:rgb(100%,100%,100%);fill-opacity:1;" d="M 25.316406 34.949219 L 51.746094 61.382812 C 52.679688 60.117188 53.445312 58.757812 54.039062 57.285156 C 54.960938 55.011719 55.421875 52.640625 55.421875 50.167969 C 55.421875 47.699219 54.964844 45.328125 54.039062 43.050781 C 53.085938 40.707031 51.707031 38.621094 49.886719 36.808594 C 48.074219 34.992188 45.992188 33.609375 43.644531 32.65625 C 41.367188 31.730469 38.996094 31.273438 36.523438 31.273438 C 34.054688 31.273438 31.683594 31.734375 29.410156 32.652344 C 27.941406 33.25 26.574219 34.015625 25.316406 34.949219 "/>
<path style=" stroke:none;fill-rule:nonzero;fill:rgb(100%,100%,100%);fill-opacity:1;" d="M 47.738281 65.394531 L 21.308594 38.960938 C 20.371094 40.222656 19.609375 41.585938 19.011719 43.054688 C 18.09375 45.328125 17.628906 47.703125 17.628906 50.167969 C 17.628906 52.640625 18.089844 55.015625 19.015625 57.289062 C 19.964844 59.636719 21.347656 61.71875 23.164062 63.53125 C 24.980469 65.351562 27.0625 66.730469 29.410156 67.6875 C 31.6875 68.609375 34.054688 69.070312 36.527344 69.070312 C 39 69.070312 41.371094 68.605469 43.644531 67.6875 C 45.113281 67.089844 46.476562 66.324219 47.738281 65.394531 "/>
<path style=" stroke:none;fill-rule:nonzero;fill:rgb(39.677429%,38.580322%,38.851929%);fill-opacity:1;" d="M 26.191406 35.027344 C 27.261719 34.289062 28.40625 33.675781 29.621094 33.183594 C 31.828125 32.289062 34.128906 31.84375 36.527344 31.839844 C 38.921875 31.839844 41.222656 32.289062 43.429688 33.183594 C 45.710938 34.109375 47.726562 35.449219 49.488281 37.210938 C 51.246094 38.96875 52.589844 40.988281 53.515625 43.269531 C 54.410156 45.472656 54.855469 47.773438 54.855469 50.171875 C 54.855469 52.566406 54.410156 54.867188 53.515625 57.074219 C 53.023438 58.289062 52.410156 59.4375 51.671875 60.511719 L 26.191406 35.027344 "/>
<path style=" stroke:none;fill-rule:nonzero;fill:rgb(39.677429%,38.580322%,38.851929%);fill-opacity:1;" d="M 46.863281 65.316406 C 45.789062 66.054688 44.644531 66.667969 43.425781 67.160156 C 41.21875 68.054688 38.917969 68.503906 36.523438 68.503906 C 34.125 68.503906 31.824219 68.054688 29.621094 67.160156 C 27.34375 66.234375 25.324219 64.890625 23.5625 63.132812 C 21.804688 61.371094 20.460938 59.351562 19.535156 57.074219 C 18.640625 54.867188 18.191406 52.566406 18.191406 50.171875 C 18.195312 47.773438 18.640625 45.472656 19.535156 43.269531 C 20.027344 42.050781 20.644531 40.90625 21.378906 39.832031 L 46.863281 65.316406 "/>
<path style=" stroke:none;fill-rule:nonzero;fill:rgb(13.729858%,12.159729%,12.548828%);fill-opacity:1;" d="M 15.582031 90.511719 C 15.71875 90.777344 15.898438 90.976562 16.117188 91.125 C 16.332031 91.269531 16.59375 91.339844 16.910156 91.339844 C 17.230469 91.339844 17.496094 91.269531 17.714844 91.113281 C 17.933594 90.96875 18.113281 90.765625 18.25 90.507812 C 18.386719 90.246094 18.484375 89.9375 18.542969 89.589844 C 18.601562 89.238281 18.632812 88.855469 18.632812 88.441406 C 18.632812 88.027344 18.601562 87.648438 18.542969 87.289062 C 18.484375 86.941406 18.386719 86.632812 18.25 86.371094 C 18.113281 86.113281 17.933594 85.910156 17.714844 85.753906 C 17.496094 85.609375 17.230469 85.535156 16.910156 85.535156 C 16.59375 85.535156 16.324219 85.609375 16.105469 85.753906 C 15.886719 85.910156 15.71875 86.113281 15.582031 86.371094 C 15.441406 86.632812 15.34375 86.941406 15.285156 87.289062 C 15.230469 87.648438 15.199219 88.027344 15.199219 88.441406 C 15.199219 88.855469 15.230469 89.238281 15.285156 89.589844 C 15.34375 89.945312 15.441406 90.253906 15.582031 90.511719 "/>
<path style=" stroke:none;fill-rule:nonzero;fill:rgb(13.729858%,12.159729%,12.548828%);fill-opacity:1;" d="M 19.089844 91.277344 L 20.046875 91.277344 L 21.769531 86.398438 L 21.769531 85.609375 L 18.667969 85.609375 L 18.667969 86.328125 L 20.941406 86.328125 L 19.089844 91.277344 "/>
<path style=" stroke:none;fill-rule:nonzero;fill:rgb(13.729858%,12.159729%,12.548828%);fill-opacity:1;" d="M 22.203125 91.277344 L 23.078125 91.277344 L 23.078125 90.296875 L 22.203125 90.296875 L 22.203125 91.277344 "/>
<path style=" stroke:none;fill-rule:nonzero;fill:rgb(13.729858%,12.159729%,12.548828%);fill-opacity:1;" d="M 24.164062 90.511719 C 24.300781 90.777344 24.480469 90.976562 24.699219 91.125 C 24.914062 91.269531 25.175781 91.339844 25.496094 91.339844 C 25.8125 91.339844 26.078125 91.269531 26.296875 91.113281 C 26.515625 90.96875 26.695312 90.765625 26.832031 90.507812 C 26.96875 90.246094 27.066406 89.9375 27.125 89.589844 C 27.183594 89.238281 27.214844 88.855469 27.214844 88.441406 C 27.214844 88.027344 27.183594 87.648438 27.125 87.289062 C 27.066406 86.941406 26.96875 86.632812 26.832031 86.371094 C 26.695312 86.113281 26.515625 85.910156 26.296875 85.753906 C 26.078125 85.609375 25.8125 85.535156 25.496094 85.535156 C 25.175781 85.535156 24.90625 85.609375 24.6875 85.753906 C 24.46875 85.910156 24.300781 86.113281 24.164062 86.371094 C 24.023438 86.632812 23.925781 86.941406 23.867188 87.289062 C 23.8125 87.648438 23.78125 88.027344 23.78125 88.441406 C 23.78125 88.855469 23.8125 89.238281 23.867188 89.589844 C 23.925781 89.945312 24.023438 90.253906 24.164062 90.511719 "/>
<path style=" stroke:none;fill-rule:nonzero;fill:rgb(13.729858%,12.159729%,12.548828%);fill-opacity:1;" d="M 28.148438 90.511719 C 28.285156 90.777344 28.464844 90.976562 28.683594 91.125 C 28.898438 91.269531 29.164062 91.339844 29.480469 91.339844 C 29.796875 91.339844 30.0625 91.269531 30.28125 91.113281 C 30.503906 90.96875 30.683594 90.765625 30.820312 90.507812 C 30.957031 90.246094 31.050781 89.9375 31.109375 89.589844 C 31.167969 89.238281 31.199219 88.855469 31.199219 88.441406 C 31.199219 88.027344 31.167969 87.648438 31.109375 87.289062 C 31.050781 86.941406 30.957031 86.632812 30.820312 86.371094 C 30.683594 86.113281 30.503906 85.910156 30.28125 85.753906 C 30.0625 85.609375 29.796875 85.535156 29.480469 85.535156 C 29.164062 85.535156 28.894531 85.609375 28.671875 85.753906 C 28.453125 85.910156 28.285156 86.113281 28.148438 86.371094 C 28.007812 86.632812 27.910156 86.941406 27.851562 87.289062 C 27.796875 87.648438 27.765625 88.027344 27.765625 88.441406 C 27.765625 88.855469 27.796875 89.238281 27.851562 89.589844 C 27.910156 89.945312 28.007812 90.253906 28.148438 90.511719 "/>
<path style=" stroke:none;fill-rule:nonzero;fill:rgb(13.729858%,12.159729%,12.548828%);fill-opacity:1;" d="M 33.164062 89.335938 L 34.980469 89.335938 L 34.980469 88.628906 L 33.164062 88.628906 L 33.164062 89.335938 "/>
<path style=" stroke:none;fill-rule:nonzero;fill:rgb(13.729858%,12.159729%,12.548828%);fill-opacity:1;" d="M 37.828125 91.277344 L 38.6875 91.277344 L 38.6875 85.609375 L 37.9375 85.609375 L 36.667969 86.761719 L 37.089844 87.371094 L 37.828125 86.613281 L 37.828125 91.277344 "/>
<path style=" stroke:none;fill-rule:nonzero;fill:rgb(13.729858%,12.159729%,12.548828%);fill-opacity:1;" d="M 39.546875 91.164062 C 39.660156 91.203125 39.796875 91.242188 39.96875 91.28125 C 40.140625 91.324219 40.328125 91.339844 40.546875 91.339844 C 40.945312 91.339844 41.277344 91.269531 41.554688 91.113281 C 41.820312 90.960938 42.046875 90.75 42.21875 90.472656 C 42.390625 90.195312 42.511719 89.863281 42.582031 89.476562 C 42.660156 89.09375 42.699219 88.664062 42.699219 88.191406 C 42.699219 87.800781 42.667969 87.445312 42.609375 87.117188 C 42.550781 86.792969 42.453125 86.511719 42.316406 86.277344 C 42.179688 86.039062 42 85.863281 41.78125 85.730469 C 41.554688 85.597656 41.277344 85.535156 40.945312 85.535156 C 40.441406 85.535156 40.042969 85.699219 39.742188 86.023438 C 39.441406 86.347656 39.296875 86.8125 39.296875 87.402344 C 39.296875 87.671875 39.335938 87.914062 39.410156 88.132812 C 39.480469 88.351562 39.582031 88.546875 39.71875 88.703125 C 39.847656 88.855469 40.003906 88.980469 40.191406 89.070312 C 40.367188 89.160156 40.570312 89.207031 40.789062 89.207031 C 41.058594 89.207031 41.285156 89.148438 41.464844 89.03125 C 41.632812 88.914062 41.773438 88.761719 41.871094 88.574219 L 41.886719 88.578125 C 41.878906 88.832031 41.851562 89.082031 41.804688 89.328125 C 41.757812 89.582031 41.675781 89.800781 41.570312 89.996094 C 41.457031 90.1875 41.308594 90.34375 41.140625 90.464844 C 40.96875 90.589844 40.746094 90.652344 40.496094 90.652344 C 40.3125 90.652344 40.140625 90.628906 39.984375 90.570312 C 39.828125 90.523438 39.699219 90.464844 39.59375 90.410156 L 39.546875 91.164062 "/>
<path style=" stroke:none;fill-rule:nonzero;fill:rgb(13.729858%,12.159729%,12.548828%);fill-opacity:1;" d="M 45.339844 90.511719 C 45.476562 90.777344 45.65625 90.976562 45.878906 91.125 C 46.09375 91.269531 46.355469 91.339844 46.671875 91.339844 C 46.988281 91.339844 47.257812 91.269531 47.476562 91.113281 C 47.695312 90.96875 47.875 90.765625 48.011719 90.507812 C 48.148438 90.246094 48.246094 89.9375 48.304688 89.589844 C 48.363281 89.238281 48.394531 88.855469 48.394531 88.441406 C 48.394531 88.027344 48.363281 87.648438 48.304688 87.289062 C 48.246094 86.941406 48.148438 86.632812 48.011719 86.371094 C 47.875 86.113281 47.695312 85.910156 47.476562 85.753906 C 47.257812 85.609375 46.988281 85.535156 46.671875 85.535156 C 46.355469 85.535156 46.085938 85.609375 45.867188 85.753906 C 45.648438 85.910156 45.476562 86.113281 45.339844 86.371094 C 45.199219 86.632812 45.101562 86.941406 45.046875 87.289062 C 44.992188 87.648438 44.960938 88.027344 44.960938 88.441406 C 44.960938 88.855469 44.992188 89.238281 45.046875 89.589844 C 45.101562 89.945312 45.199219 90.253906 45.339844 90.511719 "/>
<path style=" stroke:none;fill-rule:nonzero;fill:rgb(13.729858%,12.159729%,12.548828%);fill-opacity:1;" d="M 49.328125 90.511719 C 49.464844 90.777344 49.644531 90.976562 49.863281 91.125 C 50.078125 91.269531 50.34375 91.339844 50.660156 91.339844 C 50.976562 91.339844 51.242188 91.269531 51.460938 91.113281 C 51.679688 90.96875 51.859375 90.765625 51.996094 90.507812 C 52.132812 90.246094 52.230469 89.9375 52.289062 89.589844 C 52.347656 89.238281 52.378906 88.855469 52.378906 88.441406 C 52.378906 88.027344 52.347656 87.648438 52.289062 87.289062 C 52.230469 86.941406 52.132812 86.632812 51.996094 86.371094 C 51.859375 86.113281 51.679688 85.910156 51.460938 85.753906 C 51.242188 85.609375 50.976562 85.535156 50.660156 85.535156 C 50.34375 85.535156 50.070312 85.609375 49.851562 85.753906 C 49.632812 85.910156 49.464844 86.113281 49.328125 86.371094 C 49.1875 86.632812 49.089844 86.941406 49.03125 87.289062 C 48.976562 87.648438 48.945312 88.027344 48.945312 88.441406 C 48.945312 88.855469 48.976562 89.238281 49.03125 89.589844 C 49.089844 89.945312 49.1875 90.253906 49.328125 90.511719 "/>
<path style=" stroke:none;fill-rule:nonzero;fill:rgb(13.729858%,12.159729%,12.548828%);fill-opacity:1;" d="M 54.726562 91.277344 L 55.570312 91.277344 L 55.570312 88.808594 C 55.570312 88.480469 55.632812 88.222656 55.773438 88.035156 C 55.902344 87.847656 56.097656 87.761719 56.363281 87.761719 C 56.585938 87.761719 56.738281 87.835938 56.84375 87.976562 C 56.945312 88.125 56.992188 88.363281 56.992188 88.6875 L 56.992188 91.277344 L 57.835938 91.277344 L 57.835938 88.492188 C 57.835938 88.054688 57.738281 87.707031 57.542969 87.445312 C 57.347656 87.183594 57.042969 87.054688 56.617188 87.054688 C 56.34375 87.054688 56.125 87.117188 55.96875 87.242188 C 55.804688 87.371094 55.675781 87.511719 55.585938 87.664062 L 55.570312 87.664062 L 55.570312 85.183594 L 54.726562 85.183594 L 54.726562 91.277344 "/>
<path style=" stroke:none;fill-rule:nonzero;fill:rgb(100%,100%,100%);fill-opacity:1;" d="M 24.828125 90.085938 C 24.707031 89.703125 24.640625 89.148438 24.640625 88.441406 C 24.640625 87.738281 24.707031 87.183594 24.828125 86.792969 C 24.949219 86.40625 25.175781 86.210938 25.496094 86.210938 C 25.820312 86.210938 26.046875 86.40625 26.167969 86.785156 C 26.289062 87.175781 26.355469 87.730469 26.355469 88.441406 C 26.355469 89.148438 26.289062 89.703125 26.167969 90.085938 C 26.039062 90.472656 25.8125 90.667969 25.496094 90.667969 C 25.175781 90.667969 24.949219 90.472656 24.828125 90.085938 "/>
<path style=" stroke:none;fill-rule:nonzero;fill:rgb(100%,100%,100%);fill-opacity:1;" d="M 28.8125 90.085938 C 28.691406 89.703125 28.625 89.148438 28.625 88.441406 C 28.625 87.738281 28.691406 87.183594 28.8125 86.792969 C 28.933594 86.40625 29.164062 86.210938 29.480469 86.210938 C 29.804688 86.210938 30.03125 86.40625 30.152344 86.785156 C 30.277344 87.175781 30.339844 87.730469 30.339844 88.441406 C 30.339844 89.148438 30.277344 89.703125 30.152344 90.085938 C 30.023438 90.472656 29.796875 90.667969 29.480469 90.667969 C 29.164062 90.667969 28.933594 90.472656 28.8125 90.085938 "/>
<path style=" stroke:none;fill-rule:nonzero;fill:rgb(100%,100%,100%);fill-opacity:1;" d="M 40.601562 88.417969 C 40.496094 88.363281 40.417969 88.273438 40.351562 88.164062 C 40.285156 88.0625 40.234375 87.9375 40.203125 87.800781 C 40.171875 87.664062 40.15625 87.523438 40.15625 87.371094 C 40.15625 87.207031 40.171875 87.054688 40.203125 86.917969 C 40.234375 86.78125 40.285156 86.648438 40.359375 86.542969 C 40.421875 86.4375 40.507812 86.355469 40.609375 86.296875 C 40.707031 86.242188 40.832031 86.210938 40.96875 86.210938 C 41.109375 86.210938 41.230469 86.242188 41.335938 86.296875 C 41.4375 86.355469 41.523438 86.4375 41.585938 86.542969 C 41.652344 86.648438 41.699219 86.78125 41.730469 86.917969 C 41.761719 87.054688 41.78125 87.207031 41.78125 87.371094 C 41.78125 87.523438 41.761719 87.671875 41.730469 87.808594 C 41.699219 87.945312 41.652344 88.070312 41.585938 88.175781 C 41.515625 88.28125 41.429688 88.371094 41.328125 88.429688 C 41.21875 88.480469 41.109375 88.515625 40.96875 88.515625 C 40.832031 88.515625 40.707031 88.480469 40.601562 88.417969 "/>
<path style=" stroke:none;fill-rule:nonzero;fill:rgb(100%,100%,100%);fill-opacity:1;" d="M 43.382812 91.277344 L 44.257812 91.277344 L 44.257812 90.296875 L 43.382812 90.296875 L 43.382812 91.277344 "/>
<path style=" stroke:none;fill-rule:nonzero;fill:rgb(100%,100%,100%);fill-opacity:1;" d="M 46.007812 90.085938 C 45.886719 89.703125 45.820312 89.148438 45.820312 88.441406 C 45.820312 87.738281 45.886719 87.183594 46.007812 86.792969 C 46.125 86.40625 46.355469 86.210938 46.671875 86.210938 C 46.996094 86.210938 47.222656 86.40625 47.347656 86.785156 C 47.46875 87.175781 47.535156 87.730469 47.535156 88.441406 C 47.535156 89.148438 47.46875 89.703125 47.347656 90.085938 C 47.21875 90.472656 46.988281 90.667969 46.671875 90.667969 C 46.355469 90.667969 46.125 90.472656 46.007812 90.085938 "/>
<path style=" stroke:none;fill-rule:nonzero;fill:rgb(100%,100%,100%);fill-opacity:1;" d="M 49.992188 90.085938 C 49.871094 89.703125 49.804688 89.148438 49.804688 88.441406 C 49.804688 87.738281 49.871094 87.183594 49.992188 86.792969 C 50.109375 86.40625 50.34375 86.210938 50.660156 86.210938 C 50.980469 86.210938 51.210938 86.40625 51.332031 86.785156 C 51.453125 87.175781 51.519531 87.730469 51.519531 88.441406 C 51.519531 89.148438 51.453125 89.703125 51.332031 90.085938 C 51.203125 90.472656 50.976562 90.667969 50.660156 90.667969 C 50.34375 90.667969 50.109375 90.472656 49.992188 90.085938 "/>
<path style=" stroke:none;fill-rule:nonzero;fill:rgb(100%,100%,100%);fill-opacity:1;" d="M 16.246094 90.085938 C 16.125 89.703125 16.058594 89.148438 16.058594 88.441406 C 16.058594 87.738281 16.125 87.183594 16.246094 86.792969 C 16.363281 86.40625 16.59375 86.210938 16.910156 86.210938 C 17.234375 86.210938 17.464844 86.40625 17.585938 86.785156 C 17.707031 87.175781 17.773438 87.730469 17.773438 88.441406 C 17.773438 89.148438 17.707031 89.703125 17.585938 90.085938 C 17.457031 90.472656 17.230469 90.667969 16.910156 90.667969 C 16.59375 90.667969 16.363281 90.472656 16.246094 90.085938 "/>
<path style=" stroke:none;fill-rule:nonzero;fill:rgb(13.729858%,12.159729%,12.548828%);fill-opacity:1;" d="M 14.488281 86.273438 L 62.761719 16.75 L 63.726562 17.851562 L 15.519531 87.277344 L 14.488281 86.273438 "/>
<path style=" stroke:none;fill-rule:nonzero;fill:rgb(13.729858%,12.159729%,12.548828%);fill-opacity:1;" d="M 12.945312 84.761719 L 61.316406 15.101562 L 62.28125 16.203125 L 13.976562 85.769531 L 12.945312 84.761719 "/>
<path style=" stroke:none;fill-rule:nonzero;fill:rgb(13.729858%,12.159729%,12.548828%);fill-opacity:1;" d="M 11.40625 83.253906 L 59.871094 13.453125 L 60.835938 14.554688 L 12.433594 84.261719 L 11.40625 83.253906 "/>
<path style=" stroke:none;fill-rule:nonzero;fill:rgb(13.729858%,12.159729%,12.548828%);fill-opacity:1;" d="M 9.863281 81.746094 L 58.429688 11.808594 L 59.390625 12.90625 L 10.890625 82.753906 L 9.863281 81.746094 "/>
<path style=" stroke:none;fill-rule:nonzero;fill:rgb(13.729858%,12.159729%,12.548828%);fill-opacity:1;" d="M 28.550781 17.09375 C 28.890625 17.519531 29.292969 17.832031 29.757812 18.042969 C 30.214844 18.269531 30.714844 18.367188 31.238281 18.367188 C 31.792969 18.367188 32.304688 18.269531 32.773438 18.058594 C 33.242188 17.847656 33.640625 17.535156 33.980469 17.109375 C 34.320312 16.695312 34.589844 16.15625 34.792969 15.515625 C 34.976562 14.878906 35.078125 14.109375 35.078125 13.242188 C 35.078125 12.402344 34.976562 11.675781 34.792969 11.054688 C 34.589844 10.425781 34.320312 9.902344 33.980469 9.472656 C 33.640625 9.0625 33.242188 8.734375 32.785156 8.523438 C 32.320312 8.308594 31.824219 8.210938 31.292969 8.210938 C 30.738281 8.210938 30.242188 8.308594 29.773438 8.523438 C 29.304688 8.734375 28.890625 9.046875 28.550781 9.460938 C 28.210938 9.886719 27.941406 10.425781 27.753906 11.070312 C 27.554688 11.707031 27.457031 12.476562 27.457031 13.339844 C 27.457031 14.179688 27.554688 14.90625 27.753906 15.527344 C 27.941406 16.15625 28.210938 16.679688 28.550781 17.09375 "/>
<path style=" stroke:none;fill-rule:nonzero;fill:rgb(13.729858%,12.159729%,12.548828%);fill-opacity:1;" d="M 36.683594 18.257812 L 38.105469 18.257812 L 38.105469 10.328125 L 38.132812 10.328125 L 41.644531 18.257812 L 43.507812 18.257812 L 43.507812 8.339844 L 42.085938 8.339844 L 42.085938 16.328125 L 42.058594 16.328125 L 38.546875 8.339844 L 36.683594 8.339844 L 36.683594 18.257812 "/>
<path style=" stroke:none;fill-rule:nonzero;fill:rgb(13.729858%,12.159729%,12.548828%);fill-opacity:1;" d="M 44.589844 18.257812 L 46.128906 18.257812 L 46.882812 15.773438 L 50.476562 15.773438 L 51.230469 18.257812 L 52.820312 18.257812 L 49.59375 8.339844 L 47.917969 8.339844 L 44.589844 18.257812 "/>
<path style=" stroke:none;fill-rule:nonzero;fill:rgb(13.729858%,12.159729%,12.548828%);fill-opacity:1;" d="M 20.714844 18.257812 L 26.574219 18.257812 L 26.574219 16.992188 L 22.4375 16.992188 L 26.5 9.632812 L 26.5 8.339844 L 20.84375 8.339844 L 20.84375 9.601562 L 24.699219 9.601562 L 20.714844 16.867188 L 20.714844 18.257812 "/>
<path style=" stroke:none;fill-rule:nonzero;fill:rgb(100%,100%,100%);fill-opacity:1;" d="M 29.617188 16.140625 C 29.234375 15.460938 29.050781 14.519531 29.050781 13.339844 C 29.050781 12.617188 29.105469 12.003906 29.234375 11.507812 C 29.347656 11.011719 29.503906 10.597656 29.714844 10.285156 C 29.914062 9.988281 30.160156 9.757812 30.429688 9.617188 C 30.699219 9.488281 30.996094 9.417969 31.292969 9.417969 C 32.007812 9.417969 32.546875 9.757812 32.925781 10.441406 C 33.296875 11.121094 33.480469 12.0625 33.480469 13.242188 C 33.480469 13.964844 33.425781 14.578125 33.3125 15.074219 C 33.1875 15.570312 33.027344 15.984375 32.832031 16.285156 C 32.617188 16.597656 32.375 16.824219 32.101562 16.949219 C 31.832031 17.09375 31.539062 17.164062 31.238281 17.164062 C 30.527344 17.164062 29.984375 16.824219 29.617188 16.140625 "/>
<path style=" stroke:none;fill-rule:nonzero;fill:rgb(100%,100%,100%);fill-opacity:1;" d="M 47.253906 14.535156 L 48.714844 9.742188 L 48.742188 9.742188 L 50.121094 14.535156 L 47.253906 14.535156 "/>
</g>
</svg>
