<?xml version="1.0" encoding="UTF-8"?>
<svg xmlns="http://www.w3.org/2000/svg" xmlns:xlink="http://www.w3.org/1999/xlink" width="72pt" height="100pt" viewBox="0 0 72 100" version="1.1">
<g id="surface1">
<path style=" stroke:none;fill-rule:nonzero;fill:rgb(100%,100%,100%);fill-opacity:1;" d="M 0.300781 99.78125 L 71.167969 99.78125 L 71.167969 0.566406 L 0.300781 0.566406 Z M 0.300781 99.78125 "/>
<path style="fill:none;stroke-width:2.835;stroke-linecap:butt;stroke-linejoin:round;stroke:rgb(13.729858%,12.159729%,12.548828%);stroke-opacity:1;stroke-miterlimit:4;" d="M 3.007812 2.1875 L 711.679688 2.1875 L 711.679688 994.335938 L 3.007812 994.335938 L 3.007812 2.1875 " transform="matrix(0.1,0,0,-0.1,0,100)"/>
<path style=" stroke:none;fill-rule:nonzero;fill:rgb(13.729858%,12.159729%,12.548828%);fill-opacity:1;" d="M 1.71875 95.527344 C 1.71875 96.308594 2 96.980469 2.550781 97.53125 C 3.101562 98.082031 3.773438 98.359375 4.554688 98.359375 L 66.917969 98.359375 C 67.699219 98.359375 68.367188 98.082031 68.921875 97.53125 C 69.472656 96.980469 69.75 96.308594 69.75 95.527344 L 69.75 4.820312 C 69.75 4.035156 69.472656 3.367188 68.921875 2.8125 C 68.367188 2.261719 67.699219 1.984375 66.917969 1.984375 L 4.554688 1.984375 C 3.773438 1.984375 3.101562 2.261719 2.550781 2.8125 C 2 3.367188 1.71875 4.035156 1.71875 4.820312 L 1.71875 95.527344 "/>
<path style=" stroke:none;fill-rule:nonzero;fill:rgb(100%,100%,100%);fill-opacity:1;" d="M 3.136719 4.820312 C 3.136719 4.425781 3.277344 4.09375 3.554688 3.816406 C 3.832031 3.539062 4.160156 3.398438 4.554688 3.398438 L 63.480469 3.398438 L 58.628906 10.390625 L 59.582031 11.503906 L 65.207031 3.398438 L 66.070312 3.398438 L 60.058594 12.058594 L 61.015625 13.167969 L 67.65625 3.605469 C 67.75 3.664062 67.835938 3.734375 67.917969 3.816406 C 68.015625 3.910156 68.09375 4.015625 68.15625 4.125 L 61.492188 13.722656 L 62.449219 14.835938 L 68.335938 6.355469 L 68.335938 7.597656 L 62.925781 15.390625 L 63.882812 16.5 L 68.335938 10.085938 L 68.335938 95.527344 C 68.335938 95.917969 68.195312 96.25 67.917969 96.527344 C 67.640625 96.804688 67.308594 96.945312 66.917969 96.945312 L 8.019531 96.945312 L 14.621094 87.441406 L 13.742188 86.21875 L 6.292969 96.945312 L 5.433594 96.945312 L 13.300781 85.613281 L 12.421875 84.390625 L 3.835938 96.75 C 3.738281 96.695312 3.640625 96.617188 3.554688 96.527344 C 3.460938 96.441406 3.386719 96.34375 3.332031 96.242188 L 11.980469 83.78125 L 11.101562 82.5625 L 3.136719 94.035156 L 3.136719 92.796875 L 10.664062 81.953125 L 9.78125 80.734375 L 3.136719 90.304688 L 3.136719 4.820312 "/>
<path style=" stroke:none;fill-rule:nonzero;fill:rgb(56.864929%,56.079102%,56.274414%);fill-opacity:1;" d="M 35.738281 21.824219 C 20.085938 21.824219 7.390625 34.519531 7.390625 50.171875 C 7.390625 65.824219 20.085938 78.519531 35.738281 78.519531 C 51.390625 78.519531 64.082031 65.824219 64.082031 50.171875 C 64.082031 34.519531 51.390625 21.824219 35.738281 21.824219 "/>
<path style=" stroke:none;fill-rule:nonzero;fill:rgb(100%,100%,100%);fill-opacity:1;" d="M 35.734375 31.277344 C 25.300781 31.277344 16.835938 39.738281 16.835938 50.171875 C 16.835938 60.609375 25.300781 69.070312 35.734375 69.070312 C 46.167969 69.070312 54.632812 60.609375 54.632812 50.171875 C 54.632812 39.738281 46.167969 31.277344 35.734375 31.277344 "/>
<path style=" stroke:none;fill-rule:nonzero;fill:rgb(13.729858%,12.159729%,12.548828%);fill-opacity:1;" d="M 27.699219 44.140625 L 25.722656 42.25 C 25.769531 42.152344 25.835938 42.003906 25.890625 41.90625 C 26.277344 41.214844 26.96875 40.722656 27.695312 40.410156 C 28.34375 40.136719 29.039062 40.007812 29.742188 40.027344 C 30.582031 40.050781 31.402344 40.285156 32.117188 40.726562 C 32.851562 41.183594 33.441406 41.832031 33.8125 42.613281 C 34.113281 43.25 34.253906 43.945312 34.246094 44.644531 C 34.234375 45.449219 34.035156 46.238281 33.636719 46.933594 C 33.480469 47.203125 33.300781 47.449219 33.09375 47.675781 C 32.910156 47.878906 32.707031 48.0625 32.484375 48.222656 C 32.269531 48.378906 31.933594 48.574219 31.703125 48.703125 C 31.933594 48.804688 32.273438 48.957031 32.484375 49.097656 C 32.699219 49.234375 32.898438 49.40625 33.078125 49.589844 C 33.316406 49.824219 33.53125 50.109375 33.722656 50.382812 C 34.0625 50.882812 34.363281 51.433594 34.550781 52.003906 C 34.75 52.582031 34.835938 53.203125 34.832031 53.816406 C 34.828125 54.546875 34.695312 55.257812 34.425781 55.933594 C 34.199219 56.527344 33.867188 57.078125 33.457031 57.5625 C 32.941406 58.175781 32.300781 58.667969 31.570312 59.015625 C 30.828125 59.371094 30.015625 59.574219 29.1875 59.597656 C 28.503906 59.621094 27.828125 59.523438 27.179688 59.316406 C 26.472656 59.085938 25.65625 58.617188 25.027344 58.222656 C 24.976562 58.1875 24.851562 58.109375 24.796875 58.074219 L 26.105469 55.648438 L 27.203125 56.351562 C 27.425781 56.492188 27.660156 56.621094 27.90625 56.722656 C 28.085938 56.796875 28.273438 56.847656 28.472656 56.878906 C 28.816406 56.933594 29.175781 56.90625 29.515625 56.835938 C 30.148438 56.695312 30.722656 56.378906 31.171875 55.921875 C 31.652344 55.433594 31.980469 54.808594 32.050781 54.128906 C 32.109375 53.496094 31.925781 52.859375 31.609375 52.308594 C 31.261719 51.695312 30.761719 51.183594 30.136719 50.84375 C 29.867188 50.695312 29.539062 50.5625 29.242188 50.464844 C 28.90625 50.355469 28.535156 50.25 28.1875 50.191406 C 28.117188 50.179688 28.011719 50.160156 27.941406 50.144531 L 27.9375 47.226562 C 28.019531 47.222656 28.132812 47.210938 28.21875 47.207031 C 28.574219 47.179688 28.925781 47.121094 29.273438 47.039062 C 29.671875 46.945312 30.121094 46.796875 30.453125 46.554688 C 30.761719 46.332031 31.003906 46.027344 31.175781 45.691406 C 31.378906 45.308594 31.496094 44.871094 31.46875 44.433594 C 31.4375 43.972656 31.257812 43.511719 30.90625 43.203125 C 30.652344 42.984375 30.320312 42.859375 29.988281 42.804688 C 29.542969 42.738281 29.078125 42.777344 28.683594 42.988281 C 28.351562 43.171875 28.078125 43.488281 27.878906 43.816406 C 27.820312 43.910156 27.75 44.042969 27.699219 44.140625 "/>
<path style=" stroke:none;fill-rule:nonzero;fill:rgb(13.729858%,12.159729%,12.548828%);fill-opacity:1;" d="M 41.546875 40.050781 C 41.953125 40.050781 42.371094 40.136719 42.761719 40.253906 C 43.613281 40.511719 44.34375 41.113281 44.878906 41.820312 C 45.347656 42.441406 45.691406 43.183594 45.933594 43.917969 C 46.171875 44.625 46.335938 45.359375 46.445312 46.101562 C 46.554688 46.855469 46.613281 47.644531 46.644531 48.410156 C 46.671875 49.296875 46.660156 50.183594 46.601562 51.070312 C 46.542969 51.898438 46.441406 52.71875 46.292969 53.535156 C 46.121094 54.46875 45.878906 55.414062 45.53125 56.296875 C 45.21875 57.09375 44.765625 57.953125 44.136719 58.527344 C 43.4375 59.171875 42.527344 59.550781 41.574219 59.582031 C 40.675781 59.617188 39.78125 59.34375 39.074219 58.785156 C 38.3125 58.183594 37.78125 57.179688 37.445312 56.265625 C 37.121094 55.394531 36.898438 54.46875 36.753906 53.550781 C 36.625 52.746094 36.542969 51.886719 36.480469 51.078125 C 36.425781 50.28125 36.390625 49.386719 36.421875 48.585938 C 36.457031 47.765625 36.566406 46.914062 36.703125 46.105469 C 36.828125 45.394531 36.992188 44.644531 37.210938 43.957031 C 37.445312 43.21875 37.777344 42.457031 38.242188 41.835938 C 38.796875 41.09375 39.558594 40.480469 40.453125 40.230469 C 40.800781 40.132812 41.183594 40.050781 41.546875 40.050781 "/>
<path style=" stroke:none;fill-rule:nonzero;fill:rgb(100%,100%,100%);fill-opacity:1;" d="M 41.566406 42.863281 C 41.78125 42.859375 42 42.90625 42.191406 43.011719 C 42.378906 43.109375 42.53125 43.285156 42.644531 43.457031 C 42.832031 43.75 42.964844 44.164062 43.050781 44.5 C 43.199219 45.070312 43.3125 45.65625 43.402344 46.246094 C 43.492188 46.847656 43.558594 47.460938 43.601562 48.074219 C 43.644531 48.703125 43.667969 49.328125 43.664062 49.957031 C 43.660156 50.664062 43.628906 51.375 43.566406 52.085938 C 43.503906 52.796875 43.402344 53.535156 43.25 54.226562 C 43.144531 54.710938 43 55.199219 42.8125 55.65625 C 42.71875 55.894531 42.59375 56.144531 42.441406 56.351562 C 42.34375 56.492188 42.21875 56.625 42.070312 56.722656 C 41.914062 56.824219 41.730469 56.886719 41.539062 56.898438 C 41.320312 56.910156 41.089844 56.859375 40.90625 56.730469 C 40.773438 56.640625 40.652344 56.492188 40.5625 56.355469 C 40.417969 56.140625 40.296875 55.90625 40.199219 55.660156 C 40.011719 55.214844 39.882812 54.699219 39.792969 54.226562 C 39.667969 53.546875 39.582031 52.734375 39.527344 52.050781 C 39.476562 51.375 39.425781 50.59375 39.425781 49.921875 C 39.425781 49.300781 39.464844 48.667969 39.527344 48.046875 C 39.589844 47.433594 39.679688 46.816406 39.789062 46.207031 C 39.886719 45.652344 40.007812 45.070312 40.15625 44.527344 C 40.253906 44.171875 40.402344 43.75 40.605469 43.453125 C 40.726562 43.28125 40.878906 43.113281 41.0625 43.015625 C 41.214844 42.933594 41.386719 42.875 41.566406 42.863281 "/>
<path style=" stroke:none;fill-rule:nonzero;fill:rgb(13.729858%,12.159729%,12.548828%);fill-opacity:1;" d="M 13.742188 86.21875 L 62.925781 15.390625 L 63.882812 16.5 L 14.621094 87.441406 L 13.742188 86.21875 "/>
<path style=" stroke:none;fill-rule:nonzero;fill:rgb(13.729858%,12.159729%,12.548828%);fill-opacity:1;" d="M 12.421875 84.390625 L 61.492188 13.722656 L 62.449219 14.835938 L 13.300781 85.613281 L 12.421875 84.390625 "/>
<path style=" stroke:none;fill-rule:nonzero;fill:rgb(13.729858%,12.159729%,12.548828%);fill-opacity:1;" d="M 11.101562 82.5625 L 60.058594 12.058594 L 61.015625 13.167969 L 11.980469 83.78125 L 11.101562 82.5625 "/>
<path style=" stroke:none;fill-rule:nonzero;fill:rgb(13.729858%,12.159729%,12.548828%);fill-opacity:1;" d="M 9.78125 80.734375 L 58.628906 10.390625 L 59.582031 11.503906 L 10.664062 81.953125 L 9.78125 80.734375 "/>
<path style=" stroke:none;fill-rule:nonzero;fill:rgb(13.729858%,12.159729%,12.548828%);fill-opacity:1;" d="M 27.804688 17.144531 C 28.148438 17.570312 28.546875 17.882812 29.015625 18.09375 C 29.46875 18.320312 29.96875 18.417969 30.492188 18.417969 C 31.046875 18.417969 31.558594 18.320312 32.027344 18.109375 C 32.496094 17.898438 32.894531 17.585938 33.238281 17.160156 C 33.574219 16.746094 33.84375 16.207031 34.046875 15.566406 C 34.230469 14.925781 34.332031 14.160156 34.332031 13.292969 C 34.332031 12.453125 34.230469 11.726562 34.046875 11.105469 C 33.84375 10.476562 33.574219 9.953125 33.238281 9.523438 C 32.894531 9.113281 32.496094 8.785156 32.042969 8.574219 C 31.574219 8.359375 31.078125 8.261719 30.546875 8.261719 C 29.992188 8.261719 29.496094 8.359375 29.027344 8.574219 C 28.558594 8.785156 28.148438 9.097656 27.804688 9.511719 C 27.464844 9.9375 27.195312 10.476562 27.007812 11.117188 C 26.8125 11.753906 26.710938 12.527344 26.710938 13.390625 C 26.710938 14.226562 26.8125 14.957031 27.007812 15.578125 C 27.195312 16.207031 27.464844 16.730469 27.804688 17.144531 "/>
<path style=" stroke:none;fill-rule:nonzero;fill:rgb(13.729858%,12.159729%,12.548828%);fill-opacity:1;" d="M 35.941406 18.308594 L 37.359375 18.308594 L 37.359375 10.375 L 37.386719 10.375 L 40.898438 18.308594 L 42.761719 18.308594 L 42.761719 8.390625 L 41.339844 8.390625 L 41.339844 16.378906 L 41.3125 16.378906 L 37.800781 8.390625 L 35.941406 8.390625 L 35.941406 18.308594 "/>
<path style=" stroke:none;fill-rule:nonzero;fill:rgb(13.729858%,12.159729%,12.548828%);fill-opacity:1;" d="M 43.847656 18.308594 L 45.382812 18.308594 L 46.136719 15.824219 L 49.730469 15.824219 L 50.484375 18.308594 L 52.078125 18.308594 L 48.851562 8.390625 L 47.171875 8.390625 L 43.847656 18.308594 "/>
<path style=" stroke:none;fill-rule:nonzero;fill:rgb(13.729858%,12.159729%,12.548828%);fill-opacity:1;" d="M 19.972656 18.308594 L 25.828125 18.308594 L 25.828125 17.042969 L 21.691406 17.042969 L 25.757812 9.679688 L 25.757812 8.390625 L 20.101562 8.390625 L 20.101562 9.652344 L 23.953125 9.652344 L 19.972656 16.917969 L 19.972656 18.308594 "/>
<path style=" stroke:none;fill-rule:nonzero;fill:rgb(100%,100%,100%);fill-opacity:1;" d="M 28.875 16.191406 C 28.488281 15.511719 28.304688 14.570312 28.304688 13.390625 C 28.304688 12.664062 28.359375 12.054688 28.488281 11.558594 C 28.605469 11.058594 28.757812 10.648438 28.972656 10.335938 C 29.167969 10.039062 29.414062 9.808594 29.683594 9.667969 C 29.953125 9.539062 30.253906 9.46875 30.546875 9.46875 C 31.261719 9.46875 31.800781 9.808594 32.183594 10.492188 C 32.554688 11.171875 32.738281 12.113281 32.738281 13.292969 C 32.738281 14.015625 32.683594 14.628906 32.566406 15.125 C 32.441406 15.621094 32.28125 16.035156 32.085938 16.335938 C 31.871094 16.648438 31.632812 16.875 31.359375 17 C 31.089844 17.144531 30.792969 17.214844 30.492188 17.214844 C 29.78125 17.214844 29.242188 16.875 28.875 16.191406 "/>
<path style=" stroke:none;fill-rule:nonzero;fill:rgb(100%,100%,100%);fill-opacity:1;" d="M 46.507812 14.585938 L 47.96875 9.792969 L 47.996094 9.792969 L 49.375 14.585938 L 46.507812 14.585938 "/>
</g>
</svg>
