<?xml version="1.0" encoding="UTF-8"?>
<svg xmlns="http://www.w3.org/2000/svg" xmlns:xlink="http://www.w3.org/1999/xlink" width="73pt" height="100pt" viewBox="0 0 73 100" version="1.1">
<g id="surface1">
<path style=" stroke:none;fill-rule:nonzero;fill:rgb(100%,100%,100%);fill-opacity:1;" d="M 1.085938 99.78125 L 71.953125 99.78125 L 71.953125 0.566406 L 1.085938 0.566406 Z M 1.085938 99.78125 "/>
<path style="fill:none;stroke-width:2.835;stroke-linecap:butt;stroke-linejoin:miter;stroke:rgb(13.729858%,12.159729%,12.548828%);stroke-opacity:1;stroke-miterlimit:4;" d="M 10.859375 2.1875 L 719.53125 2.1875 L 719.53125 994.335938 L 10.859375 994.335938 L 10.859375 2.1875 " transform="matrix(0.1,0,0,-0.1,0,100)"/>
<path style=" stroke:none;fill-rule:nonzero;fill:rgb(13.729858%,12.159729%,12.548828%);fill-opacity:1;" d="M 67.699219 98.359375 C 68.480469 98.359375 69.152344 98.082031 69.707031 97.53125 C 70.257812 96.980469 70.535156 96.308594 70.535156 95.527344 L 70.535156 4.820312 C 70.535156 4.035156 70.257812 3.367188 69.707031 2.8125 C 69.152344 2.261719 68.480469 1.984375 67.699219 1.984375 L 5.335938 1.984375 C 4.554688 1.984375 3.886719 2.261719 3.332031 2.8125 C 2.78125 3.367188 2.503906 4.035156 2.503906 4.820312 L 2.503906 95.527344 C 2.503906 96.308594 2.78125 96.980469 3.332031 97.53125 C 3.886719 98.082031 4.554688 98.359375 5.335938 98.359375 L 67.699219 98.359375 "/>
<path style=" stroke:none;fill-rule:nonzero;fill:rgb(100%,100%,100%);fill-opacity:1;" d="M 8.804688 96.945312 L 16.363281 86.058594 L 15.402344 84.957031 L 7.074219 96.945312 L 6.214844 96.945312 L 14.921875 84.40625 L 13.957031 83.304688 L 4.621094 96.75 C 4.519531 96.695312 4.421875 96.617188 4.335938 96.527344 C 4.246094 96.441406 4.171875 96.34375 4.113281 96.242188 L 13.480469 82.753906 L 12.515625 81.652344 L 3.917969 94.035156 L 3.917969 92.796875 L 12.035156 81.101562 L 11.074219 80 L 3.917969 90.304688 L 3.917969 4.820312 C 3.917969 4.425781 4.058594 4.09375 4.335938 3.816406 C 4.613281 3.539062 4.945312 3.398438 5.335938 3.398438 L 64.265625 3.398438 L 57.78125 12.738281 L 58.855469 13.671875 L 65.988281 3.398438 L 66.855469 3.398438 L 59.394531 14.144531 L 60.46875 15.082031 L 68.4375 3.605469 C 68.53125 3.664062 68.617188 3.734375 68.703125 3.816406 C 68.796875 3.910156 68.878906 4.015625 68.9375 4.125 L 61.007812 15.546875 L 62.085938 16.488281 L 69.117188 6.355469 L 69.117188 7.597656 L 62.621094 16.957031 L 63.699219 17.894531 L 69.117188 10.085938 L 69.117188 95.527344 C 69.117188 95.917969 68.976562 96.25 68.703125 96.527344 C 68.421875 96.804688 68.09375 96.945312 67.699219 96.945312 L 8.804688 96.945312 "/>
<path style=" stroke:none;fill-rule:nonzero;fill:rgb(39.677429%,38.580322%,38.851929%);fill-opacity:1;" d="M 36.519531 21.824219 C 52.175781 21.824219 64.867188 34.515625 64.867188 50.171875 C 64.867188 65.824219 52.175781 78.519531 36.519531 78.519531 C 20.867188 78.519531 8.175781 65.824219 8.175781 50.171875 C 8.175781 34.515625 20.867188 21.824219 36.519531 21.824219 "/>
<path style=" stroke:none;fill-rule:nonzero;fill:rgb(100%,100%,100%);fill-opacity:1;" d="M 27.257812 58.273438 L 29.785156 58.257812 L 29.789062 66.617188 C 29.769531 67.300781 29.21875 67.84375 28.535156 67.851562 C 27.824219 67.863281 27.242188 67.285156 27.25 66.574219 L 27.257812 58.273438 "/>
<path style=" stroke:none;fill-rule:nonzero;fill:rgb(100%,100%,100%);fill-opacity:1;" d="M 30.523438 58.273438 L 33.058594 58.265625 L 33.054688 68.898438 C 33.054688 69.59375 32.503906 70.15625 31.8125 70.164062 C 31.109375 70.179688 30.53125 69.613281 30.523438 68.910156 L 30.523438 58.273438 "/>
<path style=" stroke:none;fill-rule:nonzero;fill:rgb(100%,100%,100%);fill-opacity:1;" d="M 37.988281 57.863281 C 38.007812 55.296875 37.382812 52.757812 36.164062 50.492188 C 35.246094 48.777344 34.007812 47.253906 32.515625 46 L 32.515625 41.800781 C 32.503906 41.632812 32.597656 41.476562 32.753906 41.410156 C 32.953125 41.324219 33.1875 41.417969 33.273438 41.617188 L 37.128906 49.328125 C 37.089844 49.597656 37.105469 49.878906 37.179688 50.140625 C 37.269531 50.460938 37.4375 50.75 37.667969 50.992188 L 42.046875 56.222656 L 40.878906 69.550781 C 40.824219 70.140625 41.246094 70.671875 41.839844 70.742188 C 42.429688 70.816406 42.96875 70.410156 43.0625 69.824219 L 43.605469 63.238281 L 44.910156 63.222656 L 45.453125 69.230469 C 45.515625 69.855469 46.089844 70.296875 46.707031 70.199219 C 47.277344 70.105469 47.675781 69.585938 47.617188 69.011719 L 47.054688 63.253906 L 48.566406 63.246094 L 47.699219 57.546875 L 51.078125 61.625 C 51.46875 61.289062 51.738281 60.824219 51.828125 60.308594 C 51.929688 59.742188 51.808594 59.160156 51.492188 58.679688 L 46.414062 52.695312 C 45.519531 53.234375 44.449219 53.417969 43.421875 53.203125 C 42.757812 53.070312 42.140625 52.769531 41.621094 52.335938 L 39.039062 49.304688 C 39.175781 49.15625 39.273438 48.972656 39.328125 48.773438 C 39.398438 48.476562 39.359375 48.160156 39.210938 47.894531 L 35.523438 40.53125 C 34.480469 38.585938 32.433594 37.386719 30.222656 37.421875 C 27.183594 37.46875 24.683594 39.8125 24.429688 42.835938 L 24.464844 47.707031 C 24.472656 48.011719 24.589844 48.308594 24.792969 48.535156 C 24.902344 48.660156 25.027344 48.761719 25.167969 48.832031 C 24.304688 50.070312 23.628906 51.417969 23.148438 52.84375 C 22.609375 54.441406 22.335938 56.117188 22.328125 57.800781 L 37.988281 57.863281 "/>
<path style=" stroke:none;fill-rule:nonzero;fill:rgb(100%,100%,100%);fill-opacity:1;" d="M 43.46875 51.863281 C 45.519531 52.441406 47.464844 50.65625 47.0625 48.558594 C 46.679688 46.5625 44.398438 45.582031 42.6875 46.683594 C 42.21875 46.984375 41.855469 47.402344 41.621094 47.914062 C 41.394531 48.421875 41.316406 48.972656 41.398438 49.527344 C 41.484375 50.078125 41.714844 50.582031 42.089844 51.003906 C 42.457031 51.417969 42.925781 51.714844 43.46875 51.863281 "/>
<path style=" stroke:none;fill-rule:nonzero;fill:rgb(100%,100%,100%);fill-opacity:1;" d="M 30.191406 36.097656 C 32.410156 36.058594 33.921875 33.84375 33.160156 31.761719 C 32.363281 29.589844 29.605469 28.941406 27.921875 30.523438 C 27.441406 30.976562 27.121094 31.539062 26.980469 32.183594 C 26.839844 32.832031 26.894531 33.476562 27.144531 34.089844 C 27.394531 34.699219 27.804688 35.203125 28.359375 35.566406 C 28.90625 35.929688 29.53125 36.109375 30.191406 36.097656 "/>
<path style=" stroke:none;fill-rule:nonzero;fill:rgb(39.677429%,38.580322%,38.851929%);fill-opacity:1;" d="M 26.902344 46.785156 L 26.902344 41.785156 C 26.914062 41.53125 27.136719 41.34375 27.390625 41.367188 C 27.609375 41.394531 27.78125 41.574219 27.789062 41.796875 L 27.800781 46.023438 C 27.664062 46.089844 27.527344 46.175781 27.402344 46.269531 C 27.210938 46.414062 27.039062 46.589844 26.902344 46.785156 "/>
<path style=" stroke:none;fill-rule:nonzero;fill:rgb(13.729858%,12.159729%,12.548828%);fill-opacity:1;" d="M 15.402344 84.957031 L 62.621094 16.957031 L 63.699219 17.894531 L 16.363281 86.058594 L 15.402344 84.957031 "/>
<path style=" stroke:none;fill-rule:nonzero;fill:rgb(13.729858%,12.159729%,12.548828%);fill-opacity:1;" d="M 13.957031 83.304688 L 61.007812 15.546875 L 62.085938 16.488281 L 14.921875 84.40625 L 13.957031 83.304688 "/>
<path style=" stroke:none;fill-rule:nonzero;fill:rgb(13.729858%,12.159729%,12.548828%);fill-opacity:1;" d="M 12.515625 81.652344 L 59.394531 14.144531 L 60.46875 15.082031 L 13.480469 82.753906 L 12.515625 81.652344 "/>
<path style=" stroke:none;fill-rule:nonzero;fill:rgb(13.729858%,12.159729%,12.548828%);fill-opacity:1;" d="M 11.074219 80 L 57.78125 12.738281 L 58.855469 13.671875 L 12.035156 81.101562 L 11.074219 80 "/>
<path style=" stroke:none;fill-rule:nonzero;fill:rgb(13.729858%,12.159729%,12.548828%);fill-opacity:1;" d="M 28.324219 17.121094 C 28.664062 17.542969 29.066406 17.855469 29.535156 18.070312 C 29.988281 18.292969 30.488281 18.394531 31.015625 18.394531 C 31.566406 18.394531 32.078125 18.292969 32.546875 18.085938 C 33.015625 17.871094 33.414062 17.558594 33.757812 17.132812 C 34.09375 16.71875 34.363281 16.179688 34.566406 15.539062 C 34.75 14.902344 34.851562 14.136719 34.851562 13.269531 C 34.851562 12.429688 34.75 11.703125 34.566406 11.078125 C 34.363281 10.453125 34.09375 9.925781 33.757812 9.5 C 33.414062 9.089844 33.015625 8.761719 32.5625 8.546875 C 32.09375 8.335938 31.597656 8.234375 31.066406 8.234375 C 30.511719 8.234375 30.015625 8.335938 29.546875 8.546875 C 29.082031 8.761719 28.664062 9.074219 28.324219 9.488281 C 27.984375 9.914062 27.714844 10.453125 27.527344 11.09375 C 27.332031 11.730469 27.230469 12.5 27.230469 13.363281 C 27.230469 14.203125 27.332031 14.929688 27.527344 15.554688 C 27.714844 16.179688 27.984375 16.707031 28.324219 17.121094 "/>
<path style=" stroke:none;fill-rule:nonzero;fill:rgb(13.729858%,12.159729%,12.548828%);fill-opacity:1;" d="M 36.460938 18.28125 L 37.878906 18.28125 L 37.878906 10.351562 L 37.90625 10.351562 L 41.417969 18.28125 L 43.28125 18.28125 L 43.28125 8.363281 L 41.859375 8.363281 L 41.859375 16.351562 L 41.832031 16.351562 L 38.320312 8.363281 L 36.460938 8.363281 L 36.460938 18.28125 "/>
<path style=" stroke:none;fill-rule:nonzero;fill:rgb(13.729858%,12.159729%,12.548828%);fill-opacity:1;" d="M 44.367188 18.28125 L 45.902344 18.28125 L 46.65625 15.796875 L 50.253906 15.796875 L 51.003906 18.28125 L 52.59375 18.28125 L 49.371094 8.363281 L 47.691406 8.363281 L 44.367188 18.28125 "/>
<path style=" stroke:none;fill-rule:nonzero;fill:rgb(13.729858%,12.159729%,12.548828%);fill-opacity:1;" d="M 20.492188 18.28125 L 26.347656 18.28125 L 26.347656 17.019531 L 22.210938 17.019531 L 26.277344 9.65625 L 26.277344 8.363281 L 20.621094 8.363281 L 20.621094 9.628906 L 24.472656 9.628906 L 20.492188 16.894531 L 20.492188 18.28125 "/>
<path style=" stroke:none;fill-rule:nonzero;fill:rgb(100%,100%,100%);fill-opacity:1;" d="M 29.394531 16.164062 C 29.007812 15.484375 28.824219 14.546875 28.824219 13.363281 C 28.824219 12.640625 28.878906 12.03125 29.007812 11.53125 C 29.125 11.035156 29.277344 10.621094 29.492188 10.3125 C 29.6875 10.011719 29.933594 9.78125 30.203125 9.644531 C 30.472656 9.511719 30.773438 9.445312 31.066406 9.445312 C 31.78125 9.445312 32.320312 9.78125 32.703125 10.46875 C 33.074219 11.148438 33.257812 12.085938 33.257812 13.269531 C 33.257812 13.992188 33.203125 14.601562 33.085938 15.101562 C 32.960938 15.597656 32.800781 16.011719 32.605469 16.308594 C 32.390625 16.621094 32.152344 16.847656 31.878906 16.976562 C 31.605469 17.121094 31.3125 17.1875 31.015625 17.1875 C 30.300781 17.1875 29.761719 16.847656 29.394531 16.164062 "/>
<path style=" stroke:none;fill-rule:nonzero;fill:rgb(100%,100%,100%);fill-opacity:1;" d="M 47.027344 14.558594 L 48.488281 9.769531 L 48.515625 9.769531 L 49.894531 14.558594 L 47.027344 14.558594 "/>
</g>
</svg>
