<?xml version="1.0" encoding="UTF-8"?>
<svg xmlns="http://www.w3.org/2000/svg" xmlns:xlink="http://www.w3.org/1999/xlink" width="87pt" height="86pt" viewBox="0 0 87 86" version="1.1">
<g id="surface1">
<path style="fill-rule:nonzero;fill:rgb(100%,100%,100%);fill-opacity:1;stroke-width:2.835;stroke-linecap:butt;stroke-linejoin:round;stroke:rgb(13.729858%,12.159729%,12.548828%);stroke-opacity:1;stroke-miterlimit:4;" d="M 435.195312 853.476562 C 669.765625 853.476562 860.390625 662.851562 860.390625 428.28125 C 860.390625 193.671875 669.765625 3.085938 435.195312 3.085938 C 200.625 3.085938 10 193.671875 10 428.28125 C 10 662.851562 200.625 853.476562 435.195312 853.476562 " transform="matrix(0.1,0,0,-0.1,0,86)"/>
<path style=" stroke:none;fill-rule:nonzero;fill:rgb(10.112%,40.585327%,73.280334%);fill-opacity:1;" d="M 43.511719 2.074219 C 49.082031 2.074219 54.410156 3.152344 59.5 5.304688 C 64.414062 7.390625 68.769531 10.328125 72.566406 14.121094 C 76.359375 17.917969 79.300781 22.273438 81.382812 27.191406 C 83.535156 32.277344 84.613281 37.609375 84.613281 43.175781 C 84.613281 48.746094 83.535156 54.074219 81.382812 59.164062 C 79.300781 64.082031 76.359375 68.433594 72.566406 72.230469 C 68.769531 76.023438 64.414062 78.964844 59.5 81.046875 C 54.410156 83.199219 49.082031 84.28125 43.511719 84.28125 C 37.941406 84.28125 32.613281 83.199219 27.523438 81.046875 C 22.609375 78.964844 18.253906 76.023438 14.457031 72.230469 C 10.660156 68.433594 7.722656 64.082031 5.640625 59.164062 C 3.488281 54.074219 2.410156 48.746094 2.410156 43.175781 C 2.410156 37.609375 3.488281 32.277344 5.640625 27.191406 C 7.722656 22.273438 10.660156 17.917969 14.457031 14.121094 C 18.253906 10.328125 22.609375 7.390625 27.523438 5.304688 C 32.613281 3.152344 37.941406 2.074219 43.511719 2.074219 "/>
<path style=" stroke:none;fill-rule:nonzero;fill:rgb(100%,100%,100%);fill-opacity:1;" d="M 32.285156 15.097656 C 32.285156 15.097656 31.175781 13.980469 32.480469 13.789062 C 33.789062 13.601562 33.65625 13.789062 33.933594 12.84375 C 34.214844 11.894531 34.511719 11.429688 34.960938 11.472656 C 35.414062 11.519531 35.644531 11.175781 35.945312 11.308594 C 36.25 11.429688 36.566406 11.601562 36.886719 11.621094 C 37.210938 11.640625 38.15625 11.496094 38.367188 11.621094 C 38.578125 11.746094 39.011719 11.914062 39.011719 12.378906 C 39.011719 12.84375 38.855469 14.273438 39.183594 14.421875 C 39.5 14.574219 40.164062 14.847656 40.078125 15.285156 C 39.992188 15.730469 39.761719 15.710938 39.308594 15.710938 C 38.855469 15.710938 38.578125 15.816406 38.605469 16.089844 C 38.625 16.363281 38.816406 16.828125 38.800781 17.328125 C 38.769531 17.839844 38.386719 18.871094 38.046875 19.355469 C 37.703125 19.839844 37.855469 20.027344 37.875 20.199219 C 37.894531 20.367188 38.109375 20.511719 38.28125 20.660156 C 38.453125 20.808594 41.492188 22.742188 41.964844 23.085938 C 42.433594 23.421875 43.253906 23.867188 43.398438 25.382812 C 43.550781 26.898438 43.417969 27.804688 43.78125 28.542969 C 44.144531 29.28125 44.40625 31.261719 44.640625 32.824219 C 44.875 34.375 45.070312 35.6875 45.089844 36.152344 C 45.109375 36.617188 45.472656 37.375 45.558594 37.582031 C 45.648438 37.789062 47.484375 41.652344 47.898438 42.242188 C 47.898438 42.242188 48.109375 42.601562 47.933594 42.707031 C 47.765625 42.808594 47.675781 43.042969 47.980469 43.148438 C 48.28125 43.253906 48.582031 43.757812 48.707031 43.988281 C 48.839844 44.21875 49.03125 44.769531 48.878906 45.0625 C 48.722656 45.363281 48.320312 45.691406 48.644531 46.050781 C 48.964844 46.414062 49.195312 46.601562 49.414062 46.933594 C 49.628906 47.277344 50.359375 48.4375 50.445312 48.683594 C 50.523438 48.941406 50.714844 49.171875 50.972656 49.214844 C 51.234375 49.253906 52.175781 49.363281 52.628906 49.527344 C 53.074219 49.699219 53.734375 50.078125 54.0625 50.078125 C 54.378906 50.078125 54.9375 50.078125 55.472656 50.246094 C 56.007812 50.414062 56.03125 50.265625 56.03125 50.09375 C 56.03125 49.933594 56.074219 49.742188 55.84375 49.660156 C 55.601562 49.574219 55.109375 49.40625 54.957031 49.042969 C 54.8125 48.683594 54.488281 48.136719 54.699219 47.464844 C 54.699219 47.464844 54.488281 46.453125 54.851562 45.929688 C 55.214844 45.402344 55.882812 45.023438 56.109375 45.023438 C 56.351562 45.023438 56.667969 45.191406 56.929688 45.105469 C 57.1875 45.023438 57.292969 44.917969 57.574219 45.023438 C 57.851562 45.128906 58.1875 45.316406 58.429688 45.335938 C 58.660156 45.363281 58.960938 45.402344 59.132812 45.523438 C 59.304688 45.65625 59.691406 45.84375 59.839844 46.117188 C 59.988281 46.394531 59.988281 46.515625 59.96875 47.085938 C 59.949219 47.65625 59.949219 48.265625 60.054688 48.457031 C 60.160156 48.648438 60.160156 49.089844 59.988281 49.253906 C 59.824219 49.421875 59.324219 49.699219 59.070312 49.699219 C 58.8125 49.699219 58.769531 49.78125 58.769531 49.933594 C 58.769531 50.078125 58.683594 50.519531 58.726562 50.648438 C 58.769531 50.777344 58.769531 50.945312 59.023438 51.050781 C 59.28125 51.15625 60.265625 51.761719 60.589844 52.121094 C 60.910156 52.476562 61.484375 52.980469 61.53125 53.113281 C 61.574219 53.238281 61.449219 53.320312 61.449219 53.320312 C 61.449219 53.320312 61.449219 53.472656 61.617188 53.746094 C 61.785156 54.023438 62.238281 54.835938 62.390625 55.414062 C 62.535156 55.980469 63.027344 57.5625 63.027344 57.875 C 63.027344 58.1875 63.351562 59.332031 63.351562 59.496094 C 63.351562 59.664062 63.160156 59.625 63.160156 59.625 C 63.160156 59.625 63.285156 60.128906 63.285156 60.363281 C 63.285156 60.59375 63.265625 60.761719 63.074219 60.867188 C 62.878906 60.972656 62.878906 61.140625 62.667969 61.140625 C 62.453125 61.140625 62.515625 61.035156 62.304688 60.929688 C 62.089844 60.828125 61.894531 60.78125 61.941406 60.59375 C 61.980469 60.402344 61.957031 59.882812 61.957031 59.769531 C 61.957031 59.664062 61.917969 59.558594 61.832031 59.558594 C 61.746094 59.558594 61.53125 59.457031 61.53125 59.144531 C 61.53125 58.824219 61.421875 58.148438 61.359375 57.921875 C 61.296875 57.683594 61.402344 57.289062 61.296875 57.097656 C 61.1875 56.90625 60.335938 55.933594 60.179688 55.660156 C 60.035156 55.386719 59.902344 55.644531 59.902344 55.789062 C 59.902344 55.933594 59.925781 57.304688 60.054688 57.5625 C 60.179688 57.808594 60.054688 58.148438 60.292969 58.652344 C 60.527344 59.160156 61.0625 61.375 61.148438 61.6875 C 61.226562 62.003906 61.46875 62.492188 61.484375 62.957031 C 61.507812 63.417969 61.746094 64.09375 61.121094 64.074219 C 60.503906 64.046875 60.160156 64.300781 59.601562 64.113281 C 59.046875 63.921875 59.007812 64.113281 59.023438 64.347656 C 59.046875 64.574219 59.132812 65.417969 59.28125 65.816406 C 59.429688 66.21875 59.09375 67.460938 59.304688 67.886719 C 59.519531 68.304688 59.777344 68.382812 59.839844 68.515625 C 59.925781 68.683594 59.988281 69.105469 59.601562 69.78125 C 59.21875 70.453125 58.042969 70.773438 57.832031 70.074219 C 57.613281 69.386719 57.871094 69.25 58.023438 69.023438 C 58.171875 68.785156 58.171875 68.472656 57.910156 68.246094 C 57.660156 68.011719 57.140625 66.746094 57.03125 66.449219 C 56.929688 66.15625 56.433594 64.640625 56.332031 64.324219 C 56.222656 64.007812 56.054688 63.753906 55.882812 64.113281 C 55.707031 64.46875 55.300781 65.3125 55.371094 65.695312 C 55.425781 66.074219 55.535156 66.449219 55.535156 66.808594 C 55.535156 67.171875 55.339844 68.558594 55.214844 68.9375 C 55.089844 69.316406 55.214844 69.421875 55.28125 69.65625 C 55.339844 69.886719 55.667969 70.347656 55.371094 70.558594 C 55.066406 70.773438 53.417969 71.425781 53.160156 71.511719 C 52.90625 71.589844 52.539062 71.152344 52.707031 70.710938 C 52.878906 70.261719 53.4375 69.929688 53.523438 69.761719 C 53.609375 69.59375 53.609375 69.523438 53.484375 69.089844 C 53.351562 68.648438 53.246094 66.707031 53.332031 66.410156 C 53.417969 66.113281 53.484375 65.570312 53.207031 65.378906 C 52.925781 65.191406 52.859375 64.597656 52.925781 64.28125 C 52.984375 63.96875 53.136719 62.929688 53.097656 62.769531 C 53.050781 62.597656 53.136719 62.40625 52.859375 62.320312 C 52.582031 62.238281 51.234375 61.566406 51.128906 61.121094 C 51.023438 60.675781 51.128906 60.28125 51.46875 59.855469 C 51.8125 59.4375 53.097656 57.476562 53.371094 56.570312 C 53.648438 55.660156 53.90625 54.542969 53.90625 53.910156 C 53.90625 53.285156 53.957031 52.839844 53.734375 52.734375 C 53.523438 52.628906 51.234375 51.53125 50.832031 51.554688 C 50.417969 51.570312 48.917969 50.730469 48.683594 50.414062 C 48.453125 50.09375 48.109375 49.867188 47.636719 48.25 C 47.164062 46.621094 47.273438 46.539062 46.890625 46.515625 C 46.503906 46.5 45.582031 46.179688 45.324219 45.675781 C 45.070312 45.167969 45.628906 44.535156 45.128906 44.703125 C 44.640625 44.871094 44.597656 45.023438 44.253906 44.433594 C 43.914062 43.839844 42.066406 39.609375 41.515625 37.773438 C 40.957031 35.9375 40.980469 36.929688 40.980469 37.242188 C 40.980469 37.5625 41.175781 39.503906 41.320312 39.902344 C 41.472656 40.300781 41.453125 40.886719 41.492188 41.503906 C 41.53125 42.113281 41.75 44.265625 41.921875 45.105469 C 42.089844 45.949219 41.773438 45.691406 41.492188 45.800781 C 41.214844 45.90625 41.148438 46.117188 41.175781 46.289062 C 41.195312 46.453125 40.828125 49.421875 40.761719 50.039062 C 40.703125 50.648438 40.164062 54.058594 40.097656 54.355469 C 40.039062 54.648438 40.039062 54.796875 40.097656 55.074219 C 40.164062 55.347656 41.105469 60.59375 41.105469 61.101562 C 41.105469 61.605469 41.558594 63.667969 41.578125 63.988281 C 41.601562 64.300781 41.515625 64.28125 41.453125 64.46875 C 41.386719 64.660156 41.492188 64.726562 41.601562 65 C 41.703125 65.273438 42.15625 65.378906 42.089844 65.902344 C 42.027344 66.433594 41.773438 66.554688 41.492188 66.914062 C 41.214844 67.273438 40.636719 68.890625 39.652344 69.355469 C 38.664062 69.820312 37.894531 69.554688 37.722656 69.089844 C 37.550781 68.625 37.636719 67.945312 38.210938 67.71875 C 38.210938 67.71875 38.519531 67.546875 38.558594 67.378906 C 38.605469 67.207031 38.558594 66.980469 38.328125 66.957031 C 38.085938 66.933594 38.046875 66.195312 37.789062 64.46875 C 37.53125 62.742188 37.105469 60.828125 36.847656 59.917969 C 36.589844 59.011719 35.628906 55.074219 35.519531 54.78125 C 35.414062 54.484375 35.328125 53.640625 35.394531 53.113281 C 35.453125 52.582031 35.328125 49.042969 34.960938 50.625 C 34.597656 52.207031 33.84375 54.796875 33.703125 55.28125 C 33.550781 55.765625 33.507812 56.039062 33.507812 56.253906 C 33.507812 56.464844 33.71875 64.21875 33.59375 67.824219 C 33.59375 67.824219 33.613281 68.03125 33.425781 68.046875 C 33.230469 68.078125 33.527344 68.457031 33.570312 68.648438 C 33.613281 68.835938 33.953125 69.554688 33.378906 69.800781 C 32.796875 70.054688 31.921875 70.15625 31.324219 70.5 C 30.71875 70.832031 29.160156 71.171875 28.199219 70.8125 C 27.230469 70.453125 28.21875 68.9375 29.632812 69.023438 C 29.632812 69.023438 30.210938 68.960938 29.738281 68.835938 C 29.738281 68.835938 29.546875 68.816406 29.566406 68.367188 C 29.585938 67.925781 29.585938 61.566406 29.355469 58.992188 C 29.113281 56.417969 28.730469 53.558594 29.308594 50.96875 C 29.886719 48.371094 30.082031 45.464844 29.71875 45.402344 C 29.355469 45.335938 28.902344 45.296875 28.988281 44.664062 C 29.074219 44.03125 29.5 40.40625 29.695312 39.265625 C 29.886719 38.132812 30.53125 37.140625 30.488281 36.484375 C 30.445312 35.832031 30.421875 32.671875 29.863281 33.746094 C 29.308594 34.820312 28.949219 35.304688 28.925781 36.65625 C 28.902344 38 28.429688 40.316406 28.257812 40.867188 C 28.09375 41.414062 27.769531 43.589844 27.746094 44.179688 C 27.730469 44.769531 27.429688 44.453125 27.210938 44.433594 C 27 44.40625 26.722656 44.21875 26.652344 44.578125 C 26.59375 44.9375 26.738281 44.9375 26.808594 45.277344 C 26.871094 45.609375 27.039062 46.261719 26.421875 46.746094 C 25.796875 47.238281 25.605469 47.757812 24.730469 47.65625 C 23.851562 47.550781 23.59375 46.8125 23.679688 46.011719 C 23.765625 45.210938 24 44.664062 24.296875 44.367188 C 24.605469 44.078125 24.496094 43.945312 24.324219 43.886719 C 24.152344 43.820312 23.765625 43.902344 23.804688 43.394531 C 23.851562 42.890625 24.496094 38.511719 24.574219 37.476562 C 24.660156 36.449219 24.558594 34.082031 25.078125 32.632812 C 25.582031 31.175781 26.613281 27.296875 26.871094 25.445312 C 27.125 23.59375 28.132812 22.496094 28.757812 22.136719 C 29.375 21.777344 33.425781 20.28125 33.636719 20.070312 C 33.84375 19.859375 34.171875 19.460938 33.914062 18.9375 C 33.65625 18.410156 33.164062 17.792969 33.164062 17.035156 C 33.164062 16.277344 33.25 15.609375 32.992188 15.5 C 32.738281 15.390625 32.328125 15.199219 32.285156 15.097656 "/>
</g>
</svg>
