<?xml version="1.0" encoding="UTF-8"?>
<svg xmlns="http://www.w3.org/2000/svg" xmlns:xlink="http://www.w3.org/1999/xlink" width="77pt" height="60pt" viewBox="0 0 77 60" version="1.1">
<g id="surface1">
<path style=" stroke:none;fill-rule:nonzero;fill:rgb(93.527222%,17.272949%,18.882751%);fill-opacity:1;" d="M 38.519531 15.171875 L 7.488281 0.703125 L 0.25 3.339844 L 2.882812 10.578125 L 25.625 21.183594 L 2.882812 31.785156 L 0.25 39.027344 L 7.488281 41.664062 L 38.519531 27.195312 L 69.546875 41.664062 L 76.785156 39.027344 L 74.152344 31.785156 L 51.410156 21.183594 L 74.152344 10.578125 L 76.785156 3.339844 L 69.546875 0.703125 L 38.519531 15.171875 "/>
<path style=" stroke:none;fill-rule:nonzero;fill:rgb(93.527222%,17.272949%,18.882751%);fill-opacity:1;" d="M 38.519531 45.171875 L 69.546875 59.640625 L 76.785156 57.003906 L 74.152344 49.765625 L 38.519531 33.152344 L 2.886719 49.765625 L 0.25 57.003906 L 7.492188 59.640625 L 38.519531 45.171875 "/>
<path style=" stroke:none;fill-rule:nonzero;fill:rgb(100%,100%,100%);fill-opacity:1;" d="M 46.253906 21.183594 L 70.015625 32.265625 L 67.253906 38.191406 L 38.519531 24.789062 L 9.78125 38.191406 L 7.019531 32.265625 L 30.785156 21.183594 L 7.019531 10.101562 L 9.78125 4.179688 L 38.519531 17.578125 L 67.253906 4.179688 L 70.015625 10.101562 L 46.253906 21.183594 "/>
<path style=" stroke:none;fill-rule:nonzero;fill:rgb(100%,100%,100%);fill-opacity:1;" d="M 70.015625 50.242188 L 67.253906 56.167969 L 38.519531 42.769531 L 9.78125 56.167969 L 7.019531 50.242188 L 38.519531 35.558594 L 70.015625 50.242188 "/>
</g>
</svg>
