<?xml version="1.0" encoding="UTF-8"?>
<svg xmlns="http://www.w3.org/2000/svg" xmlns:xlink="http://www.w3.org/1999/xlink" width="73pt" height="100pt" viewBox="0 0 73 100" version="1.1">
<g id="surface1">
<path style=" stroke:none;fill-rule:nonzero;fill:rgb(100%,100%,100%);fill-opacity:1;" d="M 1.085938 99.78125 L 71.953125 99.78125 L 71.953125 0.566406 L 1.085938 0.566406 Z M 1.085938 99.78125 "/>
<path style="fill:none;stroke-width:2.835;stroke-linecap:butt;stroke-linejoin:miter;stroke:rgb(13.729858%,12.159729%,12.548828%);stroke-opacity:1;stroke-miterlimit:4;" d="M 10.859375 2.1875 L 719.53125 2.1875 L 719.53125 994.335938 L 10.859375 994.335938 L 10.859375 2.1875 " transform="matrix(0.1,0,0,-0.1,0,100)"/>
<path style=" stroke:none;fill-rule:nonzero;fill:rgb(0%,49.674988%,27.331543%);fill-opacity:1;" d="M 33.808594 44.265625 L 33.84375 42.707031 L 22.914062 42.617188 L 16.226562 69.371094 L 2.503906 88.976562 L 2.503906 1.984375 L 63.414062 1.984375 L 46.074219 26.75 L 40.96875 5.527344 L 38.640625 5.527344 L 39 31.152344 L 42.992188 31.152344 L 39.988281 35.445312 L 6.757812 35.445312 L 6.757812 39.054688 L 13.730469 39.054688 L 13.730469 46.15625 L 17.234375 46.15625 L 19.132812 39.054688 L 37.460938 39.054688 L 33.808594 44.265625 "/>
<path style=" stroke:none;fill-rule:nonzero;fill:rgb(0%,49.674988%,27.331543%);fill-opacity:1;" d="M 12.253906 94.824219 L 32.703125 94.824219 L 33.363281 64.671875 L 39.261719 56.253906 L 39.613281 94.824219 L 62.308594 94.824219 L 49.925781 42.617188 L 48.808594 42.617188 L 51.300781 39.054688 L 53.839844 39.054688 L 55.46875 46.15625 L 58.96875 46.15625 L 58.96875 39.054688 L 66.28125 39.054688 L 66.28125 35.445312 L 53.828125 35.445312 L 70.53125 11.585938 L 70.53125 98.359375 L 9.773438 98.359375 L 12.253906 94.824219 "/>
<path style=" stroke:none;fill-rule:nonzero;fill:rgb(100%,100%,100%);fill-opacity:1;" d="M 32.273438 5.527344 L 25.855469 31.152344 L 34.078125 31.105469 L 34.6875 5.527344 L 32.273438 5.527344 "/>
<path style=" stroke:none;fill-rule:nonzero;fill:rgb(93.527222%,17.272949%,18.882751%);fill-opacity:1;" d="M 8.910156 98.359375 L 70.53125 10.351562 L 70.53125 1.984375 L 64.28125 1.984375 L 2.503906 90.210938 L 2.503906 98.359375 L 8.910156 98.359375 "/>
</g>
</svg>
