<?xml version="1.0" encoding="UTF-8"?>
<svg xmlns="http://www.w3.org/2000/svg" xmlns:xlink="http://www.w3.org/1999/xlink" width="73pt" height="100pt" viewBox="0 0 73 100" version="1.1">
<g id="surface1">
<path style=" stroke:none;fill-rule:nonzero;fill:rgb(100%,100%,100%);fill-opacity:1;" d="M 1.085938 99.78125 L 71.953125 99.78125 L 71.953125 0.566406 L 1.085938 0.566406 Z M 1.085938 99.78125 "/>
<path style="fill:none;stroke-width:2.835;stroke-linecap:butt;stroke-linejoin:miter;stroke:rgb(13.729858%,12.159729%,12.548828%);stroke-opacity:1;stroke-miterlimit:4;" d="M 10.859375 2.1875 L 719.53125 2.1875 L 719.53125 994.335938 L 10.859375 994.335938 L 10.859375 2.1875 " transform="matrix(0.1,0,0,-0.1,0,100)"/>
<path style=" stroke:none;fill-rule:nonzero;fill:rgb(93.527222%,17.272949%,18.882751%);fill-opacity:1;" d="M 64.207031 1.984375 L 2.503906 90.097656 L 2.503906 98.359375 L 8.832031 98.359375 L 70.53125 10.242188 L 70.53125 1.984375 L 64.207031 1.984375 "/>
<path style=" stroke:none;fill-rule:nonzero;fill:rgb(0%,49.674988%,27.331543%);fill-opacity:1;" d="M 54.15625 34.863281 L 70.53125 11.476562 L 70.53125 98.359375 L 9.695312 98.359375 L 37.15625 59.144531 C 39.402344 59.113281 44.0625 59.019531 45.277344 58.988281 C 47.71875 58.933594 51.703125 58.808594 54.113281 58.417969 C 54.257812 58.402344 54.535156 58.347656 54.6875 58.328125 L 54.6875 64.816406 C 54.6875 64.960938 54.703125 65.109375 54.730469 65.253906 C 54.746094 65.347656 54.78125 65.457031 54.84375 65.535156 C 54.917969 65.636719 55.050781 65.691406 55.175781 65.726562 C 55.28125 65.753906 55.417969 65.761719 55.523438 65.761719 L 58.214844 65.761719 C 58.347656 65.761719 58.507812 65.753906 58.640625 65.714844 C 58.765625 65.679688 58.898438 65.605469 58.976562 65.5 C 59.050781 65.390625 59.078125 65.210938 59.085938 65.085938 C 59.101562 64.960938 59.101562 64.824219 59.101562 64.703125 L 59.101562 57.59375 L 60.921875 57.605469 C 60.992188 57.605469 61.242188 57.605469 61.3125 57.585938 C 61.484375 57.539062 61.621094 57.433594 61.722656 57.289062 C 61.839844 57.113281 61.882812 56.894531 61.894531 56.691406 C 61.902344 56.492188 61.875 56.113281 61.855469 55.917969 C 61.792969 55.265625 61.777344 54.59375 61.792969 53.929688 C 61.808594 53.320312 61.855469 52.679688 61.910156 52.074219 C 61.980469 51.382812 62.070312 50.640625 62.160156 49.953125 C 62.238281 49.308594 62.347656 48.585938 62.460938 47.957031 C 62.558594 47.378906 62.765625 46.203125 62.738281 45.617188 C 62.703125 44.851562 62.460938 44.089844 62.089844 43.414062 C 61.730469 42.761719 61.242188 42.195312 60.65625 41.757812 C 60.226562 41.441406 59.742188 41.199219 59.246094 41.027344 C 59.097656 40.972656 58.878906 40.902344 58.730469 40.855469 L 54.15625 34.863281 "/>
<path style=" stroke:none;fill-rule:nonzero;fill:rgb(0%,49.674988%,27.331543%);fill-opacity:1;" d="M 57.644531 43.414062 C 55.765625 43.394531 54.214844 44.910156 54.222656 46.820312 C 54.230469 48.667969 55.710938 50.160156 57.535156 50.179688 C 59.398438 50.207031 60.933594 48.699219 60.941406 46.808594 C 60.949219 44.949219 59.480469 43.433594 57.644531 43.414062 "/>
<path style=" stroke:none;fill-rule:nonzero;fill:rgb(0%,49.674988%,27.331543%);fill-opacity:1;" d="M 15.503906 43.429688 C 13.695312 43.433594 12.222656 44.925781 12.207031 46.761719 C 12.199219 48.605469 13.648438 50.113281 15.46875 50.140625 C 17.328125 50.167969 18.863281 48.648438 18.863281 46.761719 C 18.855469 44.902344 17.339844 43.417969 15.503906 43.429688 "/>
<path style=" stroke:none;fill-rule:nonzero;fill:rgb(0%,49.674988%,27.331543%);fill-opacity:1;" d="M 23.578125 58.765625 L 2.503906 88.863281 L 2.503906 1.984375 L 63.339844 1.984375 L 43.488281 30.332031 L 23.449219 30.332031 C 23.371094 30.332031 23.101562 30.332031 23.019531 30.332031 C 22.832031 30.339844 22.613281 30.367188 22.445312 30.445312 C 22.308594 30.511719 22.183594 30.621094 22.078125 30.71875 C 21.988281 30.816406 21.902344 30.917969 21.820312 31.027344 L 14.628906 40.773438 C 14.515625 40.792969 14.351562 40.8125 14.246094 40.835938 C 13.648438 40.957031 13.070312 41.242188 12.570312 41.59375 C 11.867188 42.101562 11.261719 42.75 10.871094 43.53125 C 10.621094 44.019531 10.460938 44.558594 10.371094 45.101562 C 10.289062 45.597656 10.273438 46.113281 10.351562 46.617188 C 10.382812 46.835938 10.539062 47.425781 10.59375 47.640625 C 10.859375 48.6875 11.027344 49.78125 11.128906 50.855469 C 11.199219 51.679688 11.253906 52.851562 11.289062 53.671875 C 11.316406 54.414062 11.347656 55.472656 11.304688 56.207031 C 11.296875 56.402344 11.289062 56.738281 11.332031 56.917969 C 11.367188 57.0625 11.441406 57.210938 11.535156 57.304688 C 11.65625 57.425781 11.789062 57.503906 11.941406 57.53125 C 12 57.550781 12.304688 57.539062 12.367188 57.539062 L 14.183594 57.53125 L 14.183594 64.667969 C 14.183594 64.714844 14.183594 65.054688 14.183594 65.09375 C 14.199219 65.246094 14.238281 65.425781 14.335938 65.546875 C 14.433594 65.660156 14.585938 65.726562 14.726562 65.753906 C 14.773438 65.761719 15.003906 65.761719 15.046875 65.761719 L 17.578125 65.761719 C 17.625 65.761719 18.015625 65.761719 18.058594 65.753906 C 18.1875 65.714844 18.300781 65.65625 18.386719 65.554688 C 18.488281 65.4375 18.542969 65.265625 18.558594 65.101562 L 18.558594 58.496094 L 19.148438 58.527344 C 20.457031 58.597656 22.019531 58.683594 23.578125 58.765625 "/>
<path style=" stroke:none;fill-rule:nonzero;fill:rgb(0%,49.674988%,27.331543%);fill-opacity:1;" d="M 26.65625 54.367188 L 30.109375 49.441406 L 30.109375 46.78125 L 23.839844 46.78125 L 23.421875 46.761719 C 23.238281 46.761719 22.992188 46.773438 22.832031 46.835938 C 22.664062 46.886719 22.519531 46.996094 22.40625 47.121094 C 22.332031 47.203125 22.242188 47.359375 22.1875 47.449219 L 19.160156 52.679688 C 19.070312 52.832031 19.027344 53.015625 19 53.195312 C 18.972656 53.484375 19.054688 53.769531 19.25 53.992188 C 19.464844 54.230469 19.800781 54.339844 20.121094 54.367188 C 20.175781 54.367188 20.453125 54.367188 20.496094 54.367188 L 26.65625 54.367188 "/>
<path style=" stroke:none;fill-rule:nonzero;fill:rgb(0%,49.674988%,27.331543%);fill-opacity:1;" d="M 30.828125 48.410156 L 31.96875 46.78125 L 30.828125 46.78125 L 30.828125 48.410156 "/>
<path style=" stroke:none;fill-rule:nonzero;fill:rgb(0%,49.674988%,27.331543%);fill-opacity:1;" d="M 45.816406 46.78125 L 43.160156 50.574219 L 43.160156 54.367188 L 52.773438 54.367188 C 52.84375 54.367188 53.308594 54.367188 53.367188 54.359375 C 53.671875 54.285156 53.929688 54.117188 54.09375 53.84375 C 54.230469 53.601562 54.269531 53.304688 54.191406 53.023438 C 54.152344 52.886719 54.09375 52.753906 54.019531 52.625 L 51.035156 47.558594 C 51 47.492188 50.886719 47.304688 50.839844 47.242188 C 50.738281 47.105469 50.605469 46.976562 50.457031 46.90625 C 50.277344 46.816406 50.019531 46.789062 49.824219 46.78125 C 49.671875 46.78125 49.429688 46.78125 49.273438 46.78125 L 45.816406 46.78125 "/>
<path style=" stroke:none;fill-rule:nonzero;fill:rgb(0%,49.674988%,27.331543%);fill-opacity:1;" d="M 53.066406 36.421875 L 50.09375 40.667969 L 56.039062 41.144531 C 56.183594 41.144531 56.425781 41.136719 56.566406 41.136719 L 53.066406 36.421875 "/>
<path style=" stroke:none;fill-rule:nonzero;fill:rgb(0%,49.674988%,27.331543%);fill-opacity:1;" d="M 42.355469 51.71875 L 40.503906 54.367188 L 42.355469 54.367188 L 42.355469 51.71875 "/>
<path style=" stroke:none;fill-rule:nonzero;fill:rgb(0%,49.674988%,27.331543%);fill-opacity:1;" d="M 36.609375 40.15625 L 42.171875 32.210938 L 24.214844 32.210938 C 24.082031 32.210938 23.941406 32.210938 23.808594 32.222656 C 23.65625 32.226562 23.476562 32.257812 23.335938 32.3125 C 23.183594 32.367188 23.050781 32.457031 22.945312 32.570312 C 22.878906 32.628906 22.800781 32.734375 22.757812 32.796875 L 16.609375 40.949219 C 16.777344 40.9375 16.957031 40.929688 17.128906 40.910156 L 26.082031 40.324219 C 28.546875 40.21875 33.144531 40.175781 35.621094 40.160156 C 35.929688 40.15625 36.261719 40.15625 36.609375 40.15625 "/>
</g>
</svg>
