<?xml version="1.0" encoding="UTF-8"?>
<svg xmlns="http://www.w3.org/2000/svg" xmlns:xlink="http://www.w3.org/1999/xlink" width="73pt" height="100pt" viewBox="0 0 73 100" version="1.1">
<g id="surface1">
<path style=" stroke:none;fill-rule:nonzero;fill:rgb(100%,100%,100%);fill-opacity:1;" d="M 1.085938 99.78125 L 71.953125 99.78125 L 71.953125 0.566406 L 1.085938 0.566406 Z M 1.085938 99.78125 "/>
<path style="fill:none;stroke-width:2.835;stroke-linecap:butt;stroke-linejoin:miter;stroke:rgb(13.729858%,12.159729%,12.548828%);stroke-opacity:1;stroke-miterlimit:4;" d="M 10.859375 2.1875 L 10.859375 994.335938 L 719.53125 994.335938 L 719.53125 2.1875 L 10.859375 2.1875 " transform="matrix(0.1,0,0,-0.1,0,100)"/>
<path style=" stroke:none;fill-rule:nonzero;fill:rgb(10.112%,40.585327%,73.280334%);fill-opacity:1;" d="M 2.503906 98.359375 L 70.53125 98.359375 L 70.53125 1.984375 L 2.503906 1.984375 Z M 2.503906 98.359375 "/>
<path style=" stroke:none;fill-rule:nonzero;fill:rgb(100%,100%,100%);fill-opacity:1;" d="M 12.707031 86.601562 C 13.113281 86.753906 13.582031 86.902344 14.136719 87.011719 C 14.667969 87.132812 15.265625 87.199219 15.882812 87.199219 C 17.460938 87.199219 18.675781 86.730469 19.527344 85.816406 C 20.382812 84.875 20.808594 83.617188 20.808594 82.019531 C 20.808594 81.292969 20.703125 80.632812 20.488281 80.082031 C 20.257812 79.503906 19.957031 79.035156 19.59375 78.652344 C 19.230469 78.265625 18.78125 77.988281 18.292969 77.796875 C 17.78125 77.605469 17.246094 77.5 16.691406 77.5 C 16.351562 77.5 16.03125 77.519531 15.757812 77.5625 C 15.457031 77.585938 15.203125 77.648438 15.011719 77.710938 L 15.011719 73.960938 L 20.105469 73.960938 L 20.105469 72.148438 L 12.917969 72.148438 L 12.917969 79.738281 C 13.28125 79.628906 13.664062 79.527344 14.050781 79.417969 C 14.433594 79.3125 14.882812 79.269531 15.371094 79.269531 C 16.398438 79.269531 17.164062 79.546875 17.695312 80.082031 C 18.207031 80.613281 18.464844 81.335938 18.464844 82.210938 C 18.464844 83.128906 18.207031 83.875 17.675781 84.449219 C 17.140625 85.046875 16.414062 85.347656 15.5 85.347656 C 14.96875 85.347656 14.476562 85.261719 14.027344 85.109375 C 13.582031 84.960938 13.175781 84.792969 12.835938 84.597656 L 12.707031 86.601562 "/>
<path style=" stroke:none;fill-rule:nonzero;fill:rgb(100%,100%,100%);fill-opacity:1;" d="M 23.09375 85.027344 C 23.457031 85.707031 23.925781 86.238281 24.5 86.625 C 25.078125 87.011719 25.761719 87.199219 26.59375 87.199219 C 27.421875 87.199219 28.125 87.011719 28.703125 86.601562 C 29.277344 86.21875 29.746094 85.683594 30.109375 85.003906 C 30.472656 84.320312 30.726562 83.511719 30.875 82.597656 C 31.023438 81.679688 31.109375 80.675781 31.109375 79.589844 C 31.109375 78.503906 31.023438 77.5 30.875 76.5625 C 30.726562 75.644531 30.472656 74.835938 30.109375 74.152344 C 29.746094 73.46875 29.277344 72.9375 28.703125 72.53125 C 28.125 72.148438 27.421875 71.957031 26.59375 71.957031 C 25.761719 71.957031 25.054688 72.148438 24.476562 72.53125 C 23.902344 72.9375 23.457031 73.46875 23.09375 74.152344 C 22.730469 74.835938 22.476562 75.644531 22.324219 76.5625 C 22.179688 77.5 22.09375 78.503906 22.09375 79.589844 C 22.09375 80.675781 22.179688 81.679688 22.324219 82.597656 C 22.476562 83.53125 22.730469 84.34375 23.09375 85.027344 "/>
<path style=" stroke:none;fill-rule:nonzero;fill:rgb(100%,100%,100%);fill-opacity:1;" d="M 33.550781 85.027344 C 33.914062 85.707031 34.382812 86.238281 34.957031 86.625 C 35.535156 87.011719 36.21875 87.199219 37.046875 87.199219 C 37.878906 87.199219 38.582031 87.011719 39.15625 86.601562 C 39.730469 86.21875 40.199219 85.683594 40.5625 85.003906 C 40.925781 84.320312 41.183594 83.511719 41.332031 82.597656 C 41.476562 81.679688 41.566406 80.675781 41.566406 79.589844 C 41.566406 78.503906 41.476562 77.5 41.332031 76.5625 C 41.183594 75.644531 40.925781 74.835938 40.5625 74.152344 C 40.199219 73.46875 39.730469 72.9375 39.15625 72.53125 C 38.582031 72.148438 37.878906 71.957031 37.046875 71.957031 C 36.21875 71.957031 35.511719 72.148438 34.9375 72.53125 C 34.359375 72.9375 33.914062 73.46875 33.550781 74.152344 C 33.191406 74.835938 32.933594 75.644531 32.785156 76.5625 C 32.636719 77.5 32.550781 78.503906 32.550781 79.589844 C 32.550781 80.675781 32.636719 81.679688 32.785156 82.597656 C 32.933594 83.53125 33.191406 84.34375 33.550781 85.027344 "/>
<path style=" stroke:none;fill-rule:nonzero;fill:rgb(100%,100%,100%);fill-opacity:1;" d="M 46.769531 87.027344 L 48.988281 87.027344 L 48.988281 80.335938 C 48.988281 79.527344 49.15625 78.90625 49.476562 78.460938 C 49.796875 78.011719 50.285156 77.796875 50.90625 77.796875 C 51.929688 77.796875 52.441406 78.480469 52.441406 79.824219 L 52.441406 87.027344 L 54.65625 87.027344 L 54.65625 80.335938 C 54.65625 79.527344 54.828125 78.90625 55.148438 78.460938 C 55.46875 78.011719 55.957031 77.796875 56.578125 77.796875 C 57.597656 77.796875 58.109375 78.480469 58.109375 79.824219 L 58.109375 87.027344 L 60.328125 87.027344 L 60.328125 79.867188 C 60.328125 78.585938 60.074219 77.605469 59.558594 76.945312 C 59.027344 76.285156 58.238281 75.945312 57.171875 75.945312 C 56.46875 75.945312 55.894531 76.113281 55.445312 76.457031 C 55 76.820312 54.65625 77.222656 54.378906 77.671875 C 54.273438 77.457031 54.148438 77.242188 53.996094 77.03125 C 53.847656 76.839844 53.65625 76.644531 53.441406 76.476562 C 53.226562 76.324219 52.972656 76.199219 52.695312 76.089844 C 52.417969 75.984375 52.078125 75.945312 51.714844 75.945312 C 51.03125 75.945312 50.476562 76.113281 50.03125 76.457031 C 49.582031 76.820312 49.222656 77.242188 48.988281 77.777344 L 48.945312 77.777344 C 48.945312 77.710938 48.945312 77.585938 48.945312 77.410156 C 48.921875 77.265625 48.921875 77.09375 48.921875 76.921875 C 48.902344 76.753906 48.902344 76.585938 48.902344 76.433594 C 48.878906 76.285156 48.878906 76.15625 48.878906 76.089844 L 46.683594 76.089844 C 46.707031 76.390625 46.726562 76.710938 46.746094 77.050781 C 46.769531 77.394531 46.769531 77.753906 46.769531 78.160156 L 46.769531 87.027344 "/>
<path style=" stroke:none;fill-rule:nonzero;fill:rgb(100%,100%,100%);fill-opacity:1;" d="M 11.71875 60.800781 L 61.320312 60.800781 L 61.320312 11.199219 L 11.71875 11.199219 Z M 11.71875 60.800781 "/>
<path style=" stroke:none;fill-rule:nonzero;fill:rgb(10.112%,40.585327%,73.280334%);fill-opacity:1;" d="M 24.84375 83.894531 C 25.164062 84.917969 25.761719 85.429688 26.59375 85.429688 C 27.421875 85.429688 28.019531 84.917969 28.359375 83.894531 C 28.679688 82.894531 28.847656 81.445312 28.847656 79.589844 C 28.847656 77.710938 28.679688 76.265625 28.359375 75.238281 C 28.039062 74.238281 27.445312 73.726562 26.59375 73.726562 C 25.761719 73.726562 25.164062 74.238281 24.84375 75.261719 C 24.523438 76.285156 24.351562 77.730469 24.351562 79.589844 C 24.351562 81.445312 24.523438 82.894531 24.84375 83.894531 "/>
<path style=" stroke:none;fill-rule:nonzero;fill:rgb(10.112%,40.585327%,73.280334%);fill-opacity:1;" d="M 35.300781 83.894531 C 35.621094 84.917969 36.21875 85.429688 37.046875 85.429688 C 37.878906 85.429688 38.472656 84.917969 38.8125 83.894531 C 39.132812 82.894531 39.304688 81.445312 39.304688 79.589844 C 39.304688 77.710938 39.132812 76.265625 38.8125 75.238281 C 38.492188 74.238281 37.898438 73.726562 37.046875 73.726562 C 36.21875 73.726562 35.621094 74.238281 35.300781 75.261719 C 34.980469 76.285156 34.808594 77.730469 34.808594 79.589844 C 34.808594 81.445312 34.980469 82.894531 35.300781 83.894531 "/>
<path style=" stroke:none;fill-rule:nonzero;fill:rgb(13.729858%,12.159729%,12.548828%);fill-opacity:1;" d="M 18.800781 49.464844 L 54.234375 49.464844 L 54.234375 28.839844 L 45.28125 19.699219 L 28.128906 19.699219 L 18.800781 28.992188 L 18.800781 49.464844 "/>
<path style=" stroke:none;fill-rule:nonzero;fill:rgb(100%,100%,100%);fill-opacity:1;" d="M 19.921875 48.257812 L 25.941406 48.257812 L 25.941406 44.710938 L 19.921875 44.710938 Z M 19.921875 48.257812 "/>
<path style=" stroke:none;fill-rule:nonzero;fill:rgb(100%,100%,100%);fill-opacity:1;" d="M 19.921875 43.421875 L 25.941406 43.421875 L 25.941406 39.871094 L 19.921875 39.871094 Z M 19.921875 43.421875 "/>
<path style=" stroke:none;fill-rule:nonzero;fill:rgb(100%,100%,100%);fill-opacity:1;" d="M 47.160156 48.257812 L 53.179688 48.257812 L 53.179688 44.710938 L 47.160156 44.710938 Z M 47.160156 48.257812 "/>
<path style=" stroke:none;fill-rule:nonzero;fill:rgb(100%,100%,100%);fill-opacity:1;" d="M 47.160156 43.421875 L 53.179688 43.421875 L 53.179688 39.871094 L 47.160156 39.871094 Z M 47.160156 43.421875 "/>
<path style=" stroke:none;fill-rule:nonzero;fill:rgb(100%,100%,100%);fill-opacity:1;" d="M 47.160156 38.742188 L 53.179688 38.742188 L 53.179688 35.117188 L 47.160156 35.117188 Z M 47.160156 38.742188 "/>
<path style=" stroke:none;fill-rule:nonzero;fill:rgb(100%,100%,100%);fill-opacity:1;" d="M 19.921875 38.742188 L 25.941406 38.742188 L 25.941406 35.117188 L 19.921875 35.117188 Z M 19.921875 38.742188 "/>
<path style=" stroke:none;fill-rule:nonzero;fill:rgb(100%,100%,100%);fill-opacity:1;" d="M 26.273438 33.902344 C 26.335938 33.691406 26.40625 33.476562 26.46875 33.269531 L 19.921875 30.425781 L 19.921875 33.902344 L 26.273438 33.902344 "/>
<path style=" stroke:none;fill-rule:nonzero;fill:rgb(100%,100%,100%);fill-opacity:1;" d="M 26.953125 32.117188 C 27.308594 31.390625 27.738281 30.710938 28.234375 30.082031 L 23.761719 25.59375 L 19.921875 29.214844 L 26.953125 32.117188 "/>
<path style=" stroke:none;fill-rule:nonzero;fill:rgb(100%,100%,100%);fill-opacity:1;" d="M 29.09375 29.140625 C 29.613281 28.625 30.183594 28.164062 30.800781 27.773438 L 28.054688 21.367188 L 24.589844 24.761719 L 29.09375 29.140625 "/>
<path style=" stroke:none;fill-rule:nonzero;fill:rgb(100%,100%,100%);fill-opacity:1;" d="M 31.835938 27.179688 C 32.5 26.855469 33.203125 26.589844 33.933594 26.410156 L 33.160156 20.839844 L 29.097656 20.839844 L 31.835938 27.179688 "/>
<path style=" stroke:none;fill-rule:nonzero;fill:rgb(100%,100%,100%);fill-opacity:1;" d="M 35.222656 26.167969 C 35.660156 26.109375 36.101562 26.082031 36.554688 26.082031 C 37.101562 26.082031 37.648438 26.121094 38.171875 26.207031 L 38.890625 20.839844 L 34.445312 20.839844 L 35.222656 26.167969 "/>
<path style=" stroke:none;fill-rule:nonzero;fill:rgb(100%,100%,100%);fill-opacity:1;" d="M 39.308594 26.441406 C 39.988281 26.632812 40.644531 26.871094 41.261719 27.179688 L 43.851562 20.839844 L 40.007812 20.839844 L 39.308594 26.441406 "/>
<path style=" stroke:none;fill-rule:nonzero;fill:rgb(100%,100%,100%);fill-opacity:1;" d="M 46.589844 33.148438 C 46.679688 33.394531 46.757812 33.648438 46.832031 33.902344 L 53.175781 33.902344 L 53.175781 30.199219 L 46.589844 33.148438 "/>
<path style=" stroke:none;fill-rule:nonzero;fill:rgb(100%,100%,100%);fill-opacity:1;" d="M 44.835938 30.039062 C 45.328125 30.652344 45.753906 31.316406 46.105469 32.019531 L 53.175781 29.140625 L 49.347656 25.519531 L 44.835938 30.039062 "/>
<path style=" stroke:none;fill-rule:nonzero;fill:rgb(100%,100%,100%);fill-opacity:1;" d="M 42.253906 27.738281 C 42.886719 28.140625 43.480469 28.605469 44.003906 29.128906 L 48.507812 24.605469 L 44.976562 20.835938 L 42.253906 27.738281 "/>
</g>
</svg>
