<?xml version="1.0" encoding="UTF-8"?>
<svg xmlns="http://www.w3.org/2000/svg" xmlns:xlink="http://www.w3.org/1999/xlink" width="72pt" height="72pt" viewBox="0 0 72 72" version="1.1">
<g id="surface1">
<path style=" stroke:none;fill-rule:nonzero;fill:rgb(100%,100%,100%);fill-opacity:1;" d="M 0.394531 71.453125 L 71.257812 71.453125 L 71.257812 0.585938 L 0.394531 0.585938 Z M 0.394531 71.453125 "/>
<path style="fill:none;stroke-width:2.835;stroke-linecap:butt;stroke-linejoin:miter;stroke:rgb(13.729858%,12.159729%,12.548828%);stroke-opacity:1;stroke-miterlimit:4;" d="M 3.945312 5.46875 L 712.617188 5.46875 L 712.617188 714.140625 L 3.945312 714.140625 L 3.945312 5.46875 " transform="matrix(0.1,0,0,-0.1,0,72)"/>
<path style=" stroke:none;fill-rule:nonzero;fill:rgb(10.112%,40.585327%,73.280334%);fill-opacity:1;" d="M 42.910156 34.597656 L 42.902344 70.035156 L 69.84375 70.035156 L 69.84375 2.003906 L 1.8125 2.003906 L 1.8125 70.035156 L 28.730469 70.007812 L 28.730469 34.609375 L 18.109375 34.597656 L 18.109375 20.429688 L 53.542969 20.429688 L 53.542969 34.597656 L 42.910156 34.597656 "/>
<path style=" stroke:none;fill-rule:nonzero;fill:rgb(93.527222%,17.272949%,18.882751%);fill-opacity:1;" d="M 19.527344 33.183594 L 52.128906 33.183594 L 52.128906 21.84375 L 19.527344 21.84375 Z M 19.527344 33.183594 "/>
</g>
</svg>
