<?xml version="1.0" encoding="UTF-8"?>
<svg xmlns="http://www.w3.org/2000/svg" xmlns:xlink="http://www.w3.org/1999/xlink" width="73pt" height="42pt" viewBox="0 0 73 42" version="1.1">
<g id="surface1">
<path style="fill-rule:nonzero;fill:rgb(100%,100%,100%);fill-opacity:1;stroke-width:2.835;stroke-linecap:butt;stroke-linejoin:round;stroke:rgb(13.729858%,12.159729%,12.548828%);stroke-opacity:1;stroke-miterlimit:4;" d="M 719.53125 393.046875 L 719.53125 6.953125 L 10.859375 6.953125 L 10.859375 345.820312 L 240.3125 403.828125 L 308.164062 373.515625 L 399.0625 409.570312 L 472.617188 383.59375 L 521.679688 403.828125 L 637.148438 351.875 L 719.53125 393.046875 " transform="matrix(0.1,0,0,-0.1,0,42)"/>
<path style=" stroke:none;fill-rule:nonzero;fill:rgb(10.112%,40.585327%,73.280334%);fill-opacity:1;" d="M 70.535156 3.402344 L 70.535156 39.886719 L 2.503906 39.886719 L 2.503906 7.058594 L 24.03125 1.617188 L 30.816406 4.648438 L 39.90625 1.042969 L 47.261719 3.640625 L 52.167969 1.617188 L 63.714844 6.8125 L 70.535156 3.402344 "/>
<path style=" stroke:none;fill-rule:nonzero;fill:rgb(100%,100%,100%);fill-opacity:1;" d="M 23.761719 34.214844 L 49.273438 34.214844 L 49.273438 33.25 L 23.761719 33.25 Z M 23.761719 34.214844 "/>
<path style=" stroke:none;fill-rule:nonzero;fill:rgb(100%,100%,100%);fill-opacity:1;" d="M 30.683594 30.992188 L 35.996094 30.992188 C 35.59375 32.042969 34.464844 32.765625 33.257812 32.765625 C 32.132812 32.765625 31.085938 32.042969 30.683594 30.992188 "/>
<path style=" stroke:none;fill-rule:nonzero;fill:rgb(100%,100%,100%);fill-opacity:1;" d="M 37.042969 30.992188 L 42.273438 30.914062 C 41.871094 32.042969 40.90625 32.6875 39.699219 32.765625 C 38.574219 32.765625 37.445312 32.042969 37.042969 30.992188 "/>
<path style=" stroke:none;fill-rule:nonzero;fill:rgb(100%,100%,100%);fill-opacity:1;" d="M 24.164062 29.867188 C 24.082031 29.867188 24.003906 29.867188 23.925781 29.789062 C 23.84375 29.707031 23.84375 29.625 23.84375 29.464844 L 23.84375 25.84375 C 23.84375 25.761719 23.84375 25.683594 23.84375 25.683594 C 23.84375 25.601562 23.84375 25.523438 23.84375 25.4375 L 26.578125 16.34375 C 26.738281 16.023438 26.980469 15.703125 27.304688 15.542969 C 27.625 15.382812 27.945312 15.300781 28.269531 15.300781 L 32.613281 15.300781 L 38.25 9.746094 C 38.488281 9.589844 38.730469 9.589844 38.894531 9.828125 C 39.050781 9.988281 39.050781 10.148438 38.894531 10.3125 L 33.984375 15.300781 L 49.191406 15.300781 L 49.191406 16.265625 L 43.960938 16.265625 C 43.882812 16.265625 43.800781 16.265625 43.71875 16.34375 C 43.558594 16.507812 43.480469 16.667969 43.480469 16.832031 L 43.558594 23.1875 C 43.480469 23.347656 43.558594 23.429688 43.640625 23.589844 C 43.71875 23.671875 43.882812 23.671875 44.039062 23.671875 L 49.191406 23.671875 L 49.191406 29.867188 L 24.164062 29.867188 "/>
<path style=" stroke:none;fill-rule:nonzero;fill:rgb(100%,100%,100%);fill-opacity:1;" d="M 23.84375 9.347656 L 49.191406 9.347656 L 49.191406 8.863281 L 23.84375 8.863281 Z M 23.84375 9.347656 "/>
<path style=" stroke:none;fill-rule:nonzero;fill:rgb(10.112%,40.585327%,73.280334%);fill-opacity:1;" d="M 42.113281 23.675781 L 35.679688 23.675781 C 35.515625 23.753906 35.355469 23.675781 35.277344 23.511719 C 35.191406 23.433594 35.113281 23.273438 35.113281 23.109375 L 35.113281 16.671875 C 35.191406 16.589844 35.191406 16.511719 35.277344 16.429688 C 35.355469 16.347656 35.515625 16.269531 35.679688 16.269531 L 42.113281 16.269531 C 42.195312 16.269531 42.355469 16.347656 42.433594 16.429688 C 42.519531 16.511719 42.597656 16.671875 42.597656 16.832031 L 42.597656 23.109375 C 42.597656 23.191406 42.519531 23.351562 42.433594 23.511719 C 42.355469 23.59375 42.277344 23.675781 42.113281 23.675781 "/>
<path style=" stroke:none;fill-rule:nonzero;fill:rgb(10.112%,40.585327%,73.280334%);fill-opacity:1;" d="M 34.226562 25.121094 C 34.226562 25.445312 33.984375 25.765625 33.582031 25.847656 C 33.101562 25.929688 32.699219 25.609375 32.699219 25.121094 L 32.617188 16.914062 C 32.699219 16.429688 33.101562 16.109375 33.503906 16.191406 C 33.90625 16.191406 34.226562 16.511719 34.226562 16.914062 L 34.226562 25.121094 "/>
<path style=" stroke:none;fill-rule:nonzero;fill:rgb(10.112%,40.585327%,73.280334%);fill-opacity:1;" d="M 31.652344 25.207031 C 31.652344 25.609375 31.25 25.929688 30.847656 25.929688 C 30.449219 25.847656 30.125 25.527344 30.125 25.121094 L 30.125 16.914062 C 30.125 16.429688 30.527344 16.109375 31.007812 16.109375 C 31.414062 16.191406 31.652344 16.511719 31.652344 16.914062 L 31.652344 25.207031 "/>
<path style=" stroke:none;fill-rule:nonzero;fill:rgb(10.112%,40.585327%,73.280334%);fill-opacity:1;" d="M 29.15625 25.207031 C 29.15625 25.367188 29.15625 25.53125 28.992188 25.609375 C 28.914062 25.691406 28.835938 25.769531 28.671875 25.769531 L 25.371094 25.769531 C 25.292969 25.769531 25.128906 25.769531 25.050781 25.691406 C 24.890625 25.53125 24.890625 25.367188 24.890625 25.289062 L 27.625 16.675781 C 27.785156 16.273438 28.191406 16.109375 28.59375 16.195312 C 28.914062 16.273438 29.15625 16.597656 29.15625 16.996094 L 29.15625 25.207031 "/>
</g>
</svg>
