<?xml version="1.0" encoding="UTF-8"?>
<svg xmlns="http://www.w3.org/2000/svg" xmlns:xlink="http://www.w3.org/1999/xlink" width="81pt" height="58pt" viewBox="0 0 81 58" version="1.1">
<g id="surface1">
<path style=" stroke:none;fill-rule:nonzero;fill:rgb(100%,100%,100%);fill-opacity:1;" d="M 0.832031 57.519531 L 80.203125 57.519531 L 80.203125 0.828125 L 0.832031 0.828125 Z M 0.832031 57.519531 "/>
<path style="fill:none;stroke-width:2.835;stroke-linecap:butt;stroke-linejoin:miter;stroke:rgb(13.729858%,12.159729%,12.548828%);stroke-opacity:1;stroke-miterlimit:4;" d="M 8.320312 4.804688 L 802.03125 4.804688 L 802.03125 571.71875 L 8.320312 571.71875 L 8.320312 4.804688 " transform="matrix(0.1,0,0,-0.1,0,58)"/>
<path style=" stroke:none;fill-rule:nonzero;fill:rgb(10.112%,40.585327%,73.280334%);fill-opacity:1;" d="M 1.96875 15 L 79.070312 15 L 79.070312 1.960938 L 1.96875 1.960938 Z M 1.96875 15 "/>
<path style=" stroke:none;fill-rule:nonzero;fill:rgb(10.112%,40.585327%,73.280334%);fill-opacity:1;" d="M 1.96875 56.386719 L 79.070312 56.386719 L 79.070312 21.800781 L 1.96875 21.800781 Z M 1.96875 56.386719 "/>
<path style=" stroke:none;fill-rule:nonzero;fill:rgb(100%,100%,100%);fill-opacity:1;" d="M 31.746094 11.609375 L 35.578125 11.609375 L 35.578125 10.597656 L 32.972656 10.597656 L 32.972656 3.675781 L 31.746094 3.675781 L 31.746094 11.609375 "/>
<path style=" stroke:none;fill-rule:nonzero;fill:rgb(100%,100%,100%);fill-opacity:1;" d="M 35.324219 13.050781 L 35.269531 14.019531 C 35.371094 14.050781 35.484375 14.074219 35.621094 14.097656 C 35.746094 14.121094 35.894531 14.132812 36.042969 14.132812 C 36.460938 14.132812 36.804688 14.019531 37.039062 13.792969 C 37.28125 13.554688 37.464844 13.210938 37.589844 12.753906 L 39.660156 5.777344 L 38.5 5.777344 L 37.339844 10.359375 L 37.316406 10.359375 L 36.078125 5.777344 L 34.847656 5.777344 L 36.734375 11.675781 L 36.566406 12.371094 C 36.484375 12.675781 36.394531 12.882812 36.292969 12.996094 C 36.175781 13.109375 36.03125 13.164062 35.859375 13.164062 C 35.757812 13.164062 35.65625 13.152344 35.574219 13.132812 C 35.484375 13.109375 35.40625 13.085938 35.324219 13.050781 "/>
<path style=" stroke:none;fill-rule:nonzero;fill:rgb(100%,100%,100%);fill-opacity:1;" d="M 40.636719 11.386719 C 40.824219 11.460938 41.050781 11.542969 41.332031 11.601562 C 41.605469 11.652344 41.914062 11.6875 42.242188 11.6875 C 42.902344 11.6875 43.402344 11.53125 43.753906 11.199219 C 44.097656 10.871094 44.265625 10.453125 44.265625 9.925781 C 44.265625 9.578125 44.164062 9.289062 43.96875 9.074219 C 43.765625 8.859375 43.492188 8.644531 43.140625 8.449219 L 42.628906 8.164062 C 42.367188 8.019531 42.171875 7.890625 42.027344 7.769531 C 41.878906 7.652344 41.808594 7.492188 41.808594 7.300781 C 41.808594 7.097656 41.878906 6.925781 42.027344 6.800781 C 42.171875 6.675781 42.390625 6.617188 42.683594 6.617188 C 42.925781 6.617188 43.152344 6.640625 43.34375 6.6875 C 43.539062 6.746094 43.71875 6.800781 43.882812 6.867188 L 43.933594 5.914062 C 43.8125 5.871094 43.640625 5.824219 43.414062 5.765625 C 43.175781 5.71875 42.902344 5.695312 42.597656 5.695312 C 42.300781 5.695312 42.039062 5.742188 41.796875 5.835938 C 41.558594 5.925781 41.355469 6.050781 41.183594 6.199219 C 41.015625 6.355469 40.878906 6.539062 40.789062 6.734375 C 40.695312 6.9375 40.648438 7.152344 40.648438 7.371094 C 40.648438 7.574219 40.683594 7.757812 40.742188 7.914062 C 40.800781 8.074219 40.878906 8.210938 40.980469 8.335938 C 41.082031 8.460938 41.199219 8.5625 41.34375 8.65625 C 41.492188 8.753906 41.652344 8.847656 41.832031 8.941406 L 42.449219 9.246094 C 42.710938 9.371094 42.890625 9.507812 42.992188 9.640625 C 43.082031 9.78125 43.128906 9.925781 43.128906 10.074219 C 43.128906 10.300781 43.039062 10.472656 42.855469 10.585938 C 42.675781 10.714844 42.421875 10.769531 42.117188 10.769531 C 41.832031 10.769531 41.558594 10.726562 41.320312 10.621094 C 41.082031 10.53125 40.878906 10.441406 40.707031 10.359375 L 40.636719 11.386719 "/>
<path style=" stroke:none;fill-rule:nonzero;fill:rgb(100%,100%,100%);fill-opacity:1;" d="M 45.660156 11.386719 C 45.84375 11.460938 46.074219 11.542969 46.355469 11.601562 C 46.628906 11.652344 46.9375 11.6875 47.265625 11.6875 C 47.925781 11.6875 48.425781 11.53125 48.777344 11.199219 C 49.121094 10.871094 49.289062 10.453125 49.289062 9.925781 C 49.289062 9.578125 49.183594 9.289062 48.992188 9.074219 C 48.789062 8.859375 48.515625 8.644531 48.164062 8.449219 L 47.652344 8.164062 C 47.390625 8.019531 47.195312 7.890625 47.046875 7.769531 C 46.902344 7.652344 46.832031 7.492188 46.832031 7.300781 C 46.832031 7.097656 46.902344 6.925781 47.046875 6.800781 C 47.195312 6.675781 47.410156 6.617188 47.710938 6.617188 C 47.949219 6.617188 48.175781 6.640625 48.367188 6.6875 C 48.5625 6.746094 48.742188 6.800781 48.902344 6.867188 L 48.960938 5.914062 C 48.835938 5.871094 48.664062 5.824219 48.4375 5.765625 C 48.199219 5.71875 47.925781 5.695312 47.617188 5.695312 C 47.324219 5.695312 47.058594 5.742188 46.820312 5.835938 C 46.582031 5.925781 46.378906 6.050781 46.207031 6.199219 C 46.039062 6.355469 45.902344 6.539062 45.808594 6.734375 C 45.71875 6.9375 45.671875 7.152344 45.671875 7.371094 C 45.671875 7.574219 45.707031 7.757812 45.765625 7.914062 C 45.824219 8.074219 45.902344 8.210938 46.003906 8.335938 C 46.105469 8.460938 46.21875 8.5625 46.367188 8.65625 C 46.515625 8.753906 46.675781 8.847656 46.855469 8.941406 L 47.46875 9.246094 C 47.730469 9.371094 47.914062 9.507812 48.015625 9.640625 C 48.105469 9.78125 48.152344 9.925781 48.152344 10.074219 C 48.152344 10.300781 48.0625 10.472656 47.878906 10.585938 C 47.699219 10.714844 47.445312 10.769531 47.140625 10.769531 C 46.855469 10.769531 46.582031 10.726562 46.34375 10.621094 C 46.105469 10.53125 45.902344 10.441406 45.730469 10.359375 L 45.660156 11.386719 "/>
<path style=" stroke:none;fill-rule:nonzero;fill:rgb(100%,100%,100%);fill-opacity:1;" d="M 21.097656 40.007812 L 25.421875 40.007812 C 26.214844 40.007812 26.921875 39.890625 27.535156 39.664062 C 28.148438 39.460938 28.648438 39.140625 29.082031 38.753906 C 29.511719 38.367188 29.832031 37.890625 30.058594 37.34375 C 30.265625 36.820312 30.378906 36.230469 30.378906 35.59375 C 30.378906 34.976562 30.289062 34.457031 30.125 33.976562 C 29.945312 33.523438 29.71875 33.136719 29.445312 32.816406 C 29.148438 32.523438 28.832031 32.273438 28.488281 32.089844 C 28.125 31.90625 27.761719 31.796875 27.398438 31.726562 L 27.398438 31.679688 C 27.738281 31.566406 28.058594 31.429688 28.375 31.226562 C 28.671875 31.042969 28.945312 30.816406 29.195312 30.523438 C 29.445312 30.226562 29.628906 29.886719 29.785156 29.472656 C 29.945312 29.089844 30.015625 28.609375 30.015625 28.089844 C 30.015625 26.8125 29.648438 25.835938 28.921875 25.152344 C 28.171875 24.472656 27.011719 24.132812 25.421875 24.132812 L 21.097656 24.132812 L 21.097656 40.007812 "/>
<path style=" stroke:none;fill-rule:nonzero;fill:rgb(100%,100%,100%);fill-opacity:1;" d="M 34.914062 34.84375 L 41.570312 34.84375 L 41.570312 34.046875 C 41.570312 33.023438 41.460938 32.15625 41.253906 31.410156 C 41.050781 30.65625 40.753906 30.042969 40.371094 29.566406 C 39.984375 29.089844 39.507812 28.746094 38.980469 28.519531 C 38.4375 28.292969 37.84375 28.175781 37.207031 28.175781 C 36.480469 28.175781 35.820312 28.316406 35.253906 28.609375 C 34.660156 28.90625 34.160156 29.339844 33.777344 29.863281 C 33.390625 30.40625 33.070312 31.042969 32.863281 31.796875 C 32.660156 32.542969 32.546875 33.363281 32.546875 34.253906 C 32.546875 35.09375 32.660156 35.886719 32.863281 36.617188 C 33.070312 37.34375 33.367188 37.957031 33.796875 38.480469 C 34.207031 39.003906 34.726562 39.414062 35.367188 39.710938 C 36.003906 40.027344 36.753906 40.164062 37.59375 40.164062 C 38.324219 40.164062 38.980469 40.09375 39.550781 39.9375 C 40.121094 39.777344 40.570312 39.617188 40.957031 39.460938 L 40.84375 37.480469 C 40.546875 37.683594 40.164062 37.890625 39.710938 38.09375 C 39.234375 38.296875 38.664062 38.414062 37.984375 38.414062 C 36.890625 38.414062 36.117188 38.117188 35.640625 37.503906 C 35.160156 36.914062 34.914062 36.027344 34.914062 34.84375 "/>
<path style=" stroke:none;fill-rule:nonzero;fill:rgb(100%,100%,100%);fill-opacity:1;" d="M 43.90625 40.007812 L 46.273438 40.007812 L 46.273438 33.726562 C 46.273438 33.136719 46.339844 32.636719 46.476562 32.203125 C 46.613281 31.773438 46.796875 31.429688 47.023438 31.160156 C 47.25 30.90625 47.523438 30.703125 47.820312 30.566406 C 48.113281 30.453125 48.40625 30.382812 48.75 30.382812 C 48.886719 30.382812 49.023438 30.382812 49.136719 30.40625 C 49.253906 30.429688 49.386719 30.453125 49.5 30.476562 L 49.5 28.203125 C 49.457031 28.203125 49.410156 28.203125 49.386719 28.175781 C 49.363281 28.175781 49.320312 28.175781 49.277344 28.175781 C 48.839844 28.175781 48.453125 28.222656 48.113281 28.339844 C 47.773438 28.453125 47.5 28.609375 47.25 28.816406 C 47 29.019531 46.773438 29.246094 46.589844 29.496094 C 46.410156 29.746094 46.246094 30.019531 46.136719 30.316406 L 46.089844 30.316406 C 46.089844 30.226562 46.089844 30.089844 46.089844 29.90625 C 46.066406 29.722656 46.066406 29.519531 46.042969 29.316406 C 46.019531 29.109375 46.019531 28.929688 46.019531 28.746094 C 45.996094 28.566406 45.996094 28.429688 45.996094 28.339844 L 43.816406 28.339844 C 43.839844 28.679688 43.859375 29.042969 43.882812 29.40625 C 43.90625 29.792969 43.90625 30.179688 43.90625 30.566406 L 43.90625 40.007812 "/>
<path style=" stroke:none;fill-rule:nonzero;fill:rgb(100%,100%,100%);fill-opacity:1;" d="M 51.230469 40.007812 L 53.59375 40.007812 L 53.59375 33.089844 C 53.59375 32.179688 53.777344 31.453125 54.164062 30.929688 C 54.527344 30.40625 55.074219 30.15625 55.824219 30.15625 C 56.4375 30.15625 56.871094 30.359375 57.164062 30.769531 C 57.441406 31.179688 57.574219 31.839844 57.574219 32.75 L 57.574219 40.007812 L 59.941406 40.007812 L 59.941406 32.203125 C 59.941406 30.976562 59.667969 29.996094 59.121094 29.269531 C 58.578125 28.542969 57.710938 28.175781 56.53125 28.175781 C 55.847656 28.175781 55.257812 28.339844 54.730469 28.679688 C 54.210938 29.019531 53.800781 29.496094 53.507812 30.109375 L 53.460938 30.109375 C 53.460938 30.042969 53.460938 29.90625 53.460938 29.746094 C 53.4375 29.589844 53.4375 29.40625 53.414062 29.226562 C 53.390625 29.042969 53.390625 28.859375 53.390625 28.703125 C 53.367188 28.542969 53.367188 28.40625 53.367188 28.339844 L 51.140625 28.339844 C 51.160156 28.679688 51.183594 29.042969 51.207031 29.40625 C 51.230469 29.792969 51.230469 30.179688 51.230469 30.566406 L 51.230469 40.007812 "/>
<path style=" stroke:none;fill-rule:nonzero;fill:rgb(100%,100%,100%);fill-opacity:1;" d="M 27.714844 53.460938 L 32.042969 53.460938 L 32.042969 52.449219 L 29.066406 52.449219 L 29.363281 52.132812 C 29.714844 51.742188 30.054688 51.34375 30.375 50.9375 C 30.683594 50.539062 30.953125 50.128906 31.191406 49.730469 C 31.429688 49.332031 31.613281 48.945312 31.75 48.558594 C 31.886719 48.183594 31.957031 47.820312 31.957031 47.480469 C 31.957031 47.195312 31.910156 46.933594 31.828125 46.679688 C 31.738281 46.429688 31.601562 46.214844 31.429688 46.023438 C 31.25 45.839844 31.023438 45.695312 30.761719 45.578125 C 30.484375 45.476562 30.167969 45.421875 29.804688 45.421875 C 29.429688 45.421875 29.078125 45.46875 28.769531 45.542969 C 28.453125 45.636719 28.15625 45.753906 27.894531 45.886719 L 28.019531 47.046875 C 28.203125 46.898438 28.429688 46.75 28.691406 46.628906 C 28.953125 46.5 29.246094 46.429688 29.578125 46.429688 C 29.929688 46.429688 30.214844 46.546875 30.40625 46.785156 C 30.601562 47.023438 30.707031 47.320312 30.707031 47.695312 C 30.707031 47.957031 30.648438 48.238281 30.53125 48.546875 C 30.40625 48.855469 30.25 49.183594 30.035156 49.511719 C 29.816406 49.855469 29.566406 50.207031 29.28125 50.582031 C 28.984375 50.957031 28.667969 51.34375 28.316406 51.742188 L 27.714844 52.4375 L 27.714844 53.460938 "/>
<path style=" stroke:none;fill-rule:nonzero;fill:rgb(100%,100%,100%);fill-opacity:1;" d="M 34.242188 53.460938 L 35.445312 53.460938 L 35.445312 45.523438 L 34.390625 45.523438 L 32.613281 47.136719 L 33.207031 47.988281 L 34.242188 46.933594 L 34.242188 53.460938 "/>
<path style=" stroke:none;fill-rule:nonzero;fill:rgb(100%,100%,100%);fill-opacity:1;" d="M 40.410156 53.460938 L 41.59375 53.460938 L 41.59375 50.574219 L 41.613281 50.574219 L 43.558594 53.460938 L 44.96875 53.460938 L 42.601562 50.253906 L 44.761719 47.628906 L 43.457031 47.628906 L 41.59375 49.992188 L 41.59375 44.929688 L 40.410156 44.929688 L 40.410156 53.460938 "/>
<path style=" stroke:none;fill-rule:nonzero;fill:rgb(100%,100%,100%);fill-opacity:1;" d="M 46.09375 53.460938 L 47.277344 53.460938 L 47.277344 49.890625 C 47.277344 49.457031 47.367188 49.125 47.535156 48.886719 C 47.710938 48.648438 47.96875 48.539062 48.296875 48.539062 C 48.84375 48.539062 49.117188 48.898438 49.117188 49.617188 L 49.117188 53.460938 L 50.300781 53.460938 L 50.300781 49.890625 C 50.300781 49.457031 50.390625 49.125 50.5625 48.886719 C 50.730469 48.648438 50.996094 48.539062 51.324219 48.539062 C 51.871094 48.539062 52.140625 48.898438 52.140625 49.617188 L 52.140625 53.460938 L 53.324219 53.460938 L 53.324219 49.640625 C 53.324219 48.957031 53.191406 48.433594 52.914062 48.082031 C 52.632812 47.730469 52.210938 47.546875 51.644531 47.546875 C 51.265625 47.546875 50.960938 47.636719 50.71875 47.820312 C 50.480469 48.011719 50.300781 48.230469 50.152344 48.46875 C 50.09375 48.355469 50.027344 48.238281 49.945312 48.128906 C 49.867188 48.023438 49.765625 47.921875 49.652344 47.832031 C 49.535156 47.75 49.402344 47.683594 49.253906 47.628906 C 49.105469 47.570312 48.921875 47.546875 48.730469 47.546875 C 48.367188 47.546875 48.070312 47.636719 47.832031 47.820312 C 47.59375 48.011719 47.402344 48.238281 47.277344 48.523438 L 47.253906 48.523438 C 47.253906 48.488281 47.253906 48.421875 47.253906 48.332031 C 47.242188 48.25 47.242188 48.164062 47.242188 48.070312 C 47.230469 47.976562 47.230469 47.890625 47.230469 47.808594 C 47.21875 47.730469 47.21875 47.660156 47.21875 47.628906 L 46.046875 47.628906 C 46.058594 47.785156 46.070312 47.957031 46.082031 48.140625 C 46.09375 48.320312 46.09375 48.511719 46.09375 48.730469 L 46.09375 53.460938 "/>
<path style=" stroke:none;fill-rule:nonzero;fill:rgb(10.112%,40.585327%,73.280334%);fill-opacity:1;" d="M 23.507812 30.886719 L 23.507812 26.019531 L 24.988281 26.019531 C 25.875 26.019531 26.535156 26.222656 26.96875 26.65625 C 27.398438 27.085938 27.601562 27.65625 27.601562 28.339844 C 27.601562 29.089844 27.375 29.703125 26.921875 30.179688 C 26.441406 30.65625 25.761719 30.886719 24.851562 30.886719 L 23.507812 30.886719 "/>
<path style=" stroke:none;fill-rule:nonzero;fill:rgb(10.112%,40.585327%,73.280334%);fill-opacity:1;" d="M 23.507812 38.070312 L 23.507812 32.773438 L 25.238281 32.773438 C 25.714844 32.773438 26.101562 32.839844 26.441406 32.976562 C 26.78125 33.113281 27.054688 33.296875 27.285156 33.546875 C 27.488281 33.796875 27.648438 34.066406 27.761719 34.386719 C 27.878906 34.707031 27.917969 35.046875 27.917969 35.433594 C 27.917969 36.183594 27.691406 36.820312 27.238281 37.324219 C 26.78125 37.820312 26.101562 38.070312 25.167969 38.070312 L 23.507812 38.070312 "/>
<path style=" stroke:none;fill-rule:nonzero;fill:rgb(10.112%,40.585327%,73.280334%);fill-opacity:1;" d="M 34.914062 33.226562 C 34.933594 32.15625 35.140625 31.316406 35.527344 30.726562 C 35.910156 30.15625 36.460938 29.863281 37.140625 29.863281 C 38.550781 29.863281 39.257812 30.976562 39.257812 33.226562 L 34.914062 33.226562 "/>
</g>
</svg>
