<?xml version="1.0" encoding="UTF-8"?>
<svg xmlns="http://www.w3.org/2000/svg" xmlns:xlink="http://www.w3.org/1999/xlink" width="145pt" height="36pt" viewBox="0 0 145 36" version="1.1">
<g id="surface1">
<path style=" stroke:none;fill-rule:nonzero;fill:rgb(13.729858%,12.159729%,12.548828%);fill-opacity:1;" d="M 0.234375 35.890625 L 113.621094 35.890625 L 144.800781 18.183594 L 113.621094 0.457031 L 0.234375 0.457031 L 0.234375 35.890625 "/>
<path style=" stroke:none;fill-rule:nonzero;fill:rgb(96.374512%,51.715088%,16.333008%);fill-opacity:1;" d="M 2.359375 33.761719 L 113.058594 33.761719 L 129.210938 18.179688 L 113.058594 2.582031 L 2.359375 2.582031 L 2.359375 33.761719 "/>
<path style=" stroke:none;fill-rule:nonzero;fill:rgb(13.729858%,12.159729%,12.548828%);fill-opacity:1;" d="M 18.0625 26.675781 L 27.644531 26.675781 L 27.644531 24.148438 L 21.132812 24.148438 L 21.132812 6.835938 L 18.0625 6.835938 L 18.0625 26.675781 "/>
<path style=" stroke:none;fill-rule:nonzero;fill:rgb(13.729858%,12.159729%,12.548828%);fill-opacity:1;" d="M 37.179688 26.675781 L 39.964844 26.675781 C 39.9375 26.25 39.90625 25.796875 39.878906 25.308594 C 39.855469 24.855469 39.855469 24.375 39.855469 23.890625 L 39.855469 12.09375 L 36.894531 12.09375 L 36.894531 20.648438 C 36.894531 21.785156 36.667969 22.695312 36.242188 23.378906 C 35.816406 24.0625 35.105469 24.402344 34.164062 24.402344 C 33.398438 24.402344 32.859375 24.148438 32.488281 23.636719 C 32.121094 23.121094 31.917969 22.296875 31.917969 21.164062 L 31.917969 12.09375 L 28.964844 12.09375 L 28.964844 21.84375 C 28.964844 23.378906 29.304688 24.601562 29.988281 25.511719 C 30.671875 26.417969 31.75 26.875 33.230469 26.875 C 34.222656 26.875 35.019531 26.648438 35.617188 26.164062 C 36.1875 25.710938 36.640625 25.140625 37.011719 24.460938 L 37.066406 24.460938 L 37.179688 26.675781 "/>
<path style=" stroke:none;fill-rule:nonzero;fill:rgb(13.729858%,12.159729%,12.548828%);fill-opacity:1;" d="M 44.164062 29.316406 L 43.992188 32.074219 C 44.476562 32.273438 45.15625 32.46875 46.011719 32.671875 C 46.863281 32.871094 47.746094 32.984375 48.628906 32.984375 C 50.789062 32.984375 52.40625 32.386719 53.488281 31.222656 C 54.566406 30.054688 55.105469 28.378906 55.105469 26.21875 L 55.105469 14.566406 C 55.105469 14.140625 55.136719 13.742188 55.164062 13.316406 C 55.195312 12.890625 55.195312 12.492188 55.222656 12.09375 L 52.492188 12.09375 C 52.492188 12.175781 52.492188 12.351562 52.492188 12.546875 C 52.464844 12.746094 52.464844 12.972656 52.4375 13.203125 C 52.40625 13.429688 52.40625 13.628906 52.40625 13.828125 C 52.378906 14.027344 52.378906 14.199219 52.378906 14.285156 L 52.292969 14.285156 C 51.925781 13.628906 51.441406 13.058594 50.84375 12.578125 C 50.246094 12.121094 49.507812 11.894531 48.597656 11.894531 C 47.71875 11.894531 46.921875 12.066406 46.265625 12.433594 C 45.613281 12.804688 45.046875 13.285156 44.617188 13.941406 C 44.191406 14.59375 43.851562 15.394531 43.652344 16.300781 C 43.425781 17.238281 43.308594 18.261719 43.308594 19.398438 C 43.308594 20.765625 43.453125 21.902344 43.769531 22.835938 C 44.046875 23.777344 44.417969 24.542969 44.902344 25.113281 C 45.386719 25.710938 45.925781 26.109375 46.523438 26.363281 C 47.117188 26.621094 47.746094 26.757812 48.371094 26.757812 C 49.363281 26.757812 50.160156 26.535156 50.757812 26.050781 C 51.355469 25.59375 51.839844 25.027344 52.210938 24.316406 L 52.265625 24.316406 L 52.265625 26.136719 C 52.265625 26.730469 52.210938 27.324219 52.09375 27.867188 C 51.953125 28.40625 51.753906 28.863281 51.46875 29.261719 C 51.15625 29.660156 50.757812 29.972656 50.246094 30.226562 C 49.734375 30.457031 49.082031 30.566406 48.316406 30.566406 C 47.519531 30.566406 46.753906 30.425781 45.980469 30.167969 C 45.214844 29.886719 44.617188 29.601562 44.164062 29.316406 "/>
<path style=" stroke:none;fill-rule:nonzero;fill:rgb(13.729858%,12.159729%,12.548828%);fill-opacity:1;" d="M 66.996094 26.675781 L 69.667969 26.675781 C 69.640625 26.417969 69.585938 26.050781 69.558594 25.625 C 69.527344 25.199219 69.5 24.746094 69.5 24.257812 L 69.5 17.296875 C 69.5 16.328125 69.414062 15.53125 69.214844 14.90625 C 69.019531 14.285156 68.703125 13.769531 68.335938 13.34375 C 68.019531 12.972656 67.507812 12.636719 66.828125 12.320312 C 66.144531 12.035156 65.261719 11.894531 64.15625 11.894531 C 63.21875 11.894531 62.394531 12.007812 61.679688 12.234375 C 60.972656 12.460938 60.316406 12.71875 59.777344 13.03125 L 60.003906 15.5625 C 60.375 15.191406 60.914062 14.851562 61.625 14.539062 C 62.308594 14.253906 63.046875 14.109375 63.871094 14.109375 C 64.921875 14.109375 65.664062 14.394531 66.117188 14.964844 C 66.34375 15.25 66.515625 15.5625 66.597656 15.902344 C 66.683594 16.269531 66.714844 16.671875 66.714844 17.125 L 66.714844 17.722656 L 65.664062 17.722656 C 63.300781 17.722656 61.484375 18.121094 60.257812 18.886719 C 59.042969 19.683594 58.414062 20.933594 58.414062 22.640625 C 58.414062 23.324219 58.53125 23.921875 58.757812 24.460938 C 58.984375 25 59.292969 25.425781 59.695312 25.796875 C 60.0625 26.164062 60.519531 26.417969 61.03125 26.59375 C 61.539062 26.785156 62.082031 26.875 62.679688 26.875 C 63.757812 26.875 64.609375 26.648438 65.261719 26.191406 C 65.890625 25.769531 66.402344 25.257812 66.773438 24.6875 L 66.828125 24.6875 C 66.828125 24.769531 66.828125 24.914062 66.855469 25.113281 C 66.855469 25.308594 66.855469 25.511719 66.882812 25.710938 C 66.910156 25.90625 66.910156 26.109375 66.941406 26.277344 C 66.96875 26.476562 66.96875 26.59375 66.996094 26.675781 "/>
<path style=" stroke:none;fill-rule:nonzero;fill:rgb(13.729858%,12.159729%,12.548828%);fill-opacity:1;" d="M 73.605469 26.675781 L 76.558594 26.675781 L 76.558594 18.035156 C 76.558594 16.898438 76.785156 15.984375 77.269531 15.335938 C 77.726562 14.679688 78.40625 14.367188 79.347656 14.367188 C 80.113281 14.367188 80.652344 14.621094 81.023438 15.132812 C 81.367188 15.648438 81.535156 16.472656 81.535156 17.605469 L 81.535156 26.675781 L 84.488281 26.675781 L 84.488281 16.925781 C 84.488281 15.394531 84.148438 14.167969 83.46875 13.257812 C 82.785156 12.351562 81.703125 11.894531 80.226562 11.894531 C 79.375 11.894531 78.632812 12.09375 77.980469 12.519531 C 77.328125 12.945312 76.816406 13.542969 76.445312 14.308594 L 76.390625 14.308594 C 76.390625 14.226562 76.390625 14.054688 76.390625 13.855469 C 76.359375 13.65625 76.359375 13.429688 76.332031 13.203125 C 76.304688 12.972656 76.304688 12.746094 76.304688 12.546875 C 76.277344 12.351562 76.277344 12.175781 76.277344 12.09375 L 73.488281 12.09375 C 73.519531 12.519531 73.546875 12.972656 73.574219 13.429688 C 73.605469 13.914062 73.605469 14.394531 73.605469 14.878906 L 73.605469 26.675781 "/>
<path style=" stroke:none;fill-rule:nonzero;fill:rgb(13.729858%,12.159729%,12.548828%);fill-opacity:1;" d="M 89.539062 25.113281 C 90.082031 25.710938 90.734375 26.164062 91.503906 26.449219 C 92.242188 26.730469 93.035156 26.875 93.890625 26.875 C 94.742188 26.875 95.539062 26.730469 96.304688 26.449219 C 97.042969 26.164062 97.699219 25.710938 98.238281 25.113281 C 98.78125 24.515625 99.230469 23.746094 99.546875 22.8125 C 99.859375 21.871094 100.027344 20.707031 100.027344 19.371094 C 100.027344 18.0625 99.859375 16.925781 99.546875 15.984375 C 99.230469 15.050781 98.78125 14.253906 98.238281 13.65625 C 97.699219 13.058594 97.042969 12.605469 96.304688 12.320312 C 95.539062 12.035156 94.742188 11.894531 93.890625 11.894531 C 93.035156 11.894531 92.242188 12.035156 91.503906 12.320312 C 90.734375 12.605469 90.082031 13.058594 89.539062 13.65625 C 89 14.253906 88.542969 15.050781 88.230469 15.984375 C 87.921875 16.925781 87.75 18.0625 87.75 19.371094 C 87.75 20.707031 87.921875 21.871094 88.230469 22.8125 C 88.542969 23.746094 89 24.515625 89.539062 25.113281 "/>
<path style=" stroke:none;fill-rule:nonzero;fill:rgb(96.374512%,51.715088%,16.333008%);fill-opacity:1;" d="M 47.066406 23.238281 C 46.578125 22.414062 46.324219 21.105469 46.324219 19.3125 C 46.324219 17.636719 46.550781 16.386719 47.007812 15.503906 C 47.433594 14.652344 48.171875 14.226562 49.195312 14.199219 C 50.160156 14.199219 50.902344 14.621094 51.441406 15.476562 C 51.953125 16.328125 52.210938 17.605469 52.210938 19.285156 C 52.210938 21.046875 51.953125 22.355469 51.46875 23.207031 C 50.984375 24.089844 50.191406 24.515625 49.082031 24.515625 C 48.226562 24.515625 47.546875 24.089844 47.066406 23.238281 "/>
<path style=" stroke:none;fill-rule:nonzero;fill:rgb(96.374512%,51.715088%,16.333008%);fill-opacity:1;" d="M 66.714844 19.539062 L 66.714844 20.851562 C 66.714844 22.011719 66.457031 22.953125 65.945312 23.660156 C 65.40625 24.402344 64.640625 24.769531 63.585938 24.769531 C 62.820312 24.769531 62.25 24.542969 61.855469 24.117188 C 61.453125 23.691406 61.257812 23.097656 61.257812 22.382812 C 61.257812 21.417969 61.625 20.707031 62.394531 20.222656 C 63.160156 19.742188 64.269531 19.515625 65.71875 19.515625 C 65.890625 19.515625 66.058594 19.515625 66.261719 19.515625 C 66.457031 19.515625 66.628906 19.515625 66.714844 19.539062 "/>
<path style=" stroke:none;fill-rule:nonzero;fill:rgb(96.374512%,51.715088%,16.333008%);fill-opacity:1;" d="M 91.503906 23.152344 C 91.242188 22.667969 91.074219 22.128906 90.988281 21.472656 C 90.878906 20.820312 90.820312 20.136719 90.820312 19.371094 C 90.820312 18.601562 90.878906 17.917969 90.988281 17.269531 C 91.074219 16.613281 91.242188 16.074219 91.503906 15.589844 C 91.757812 15.132812 92.070312 14.765625 92.46875 14.511719 C 92.839844 14.253906 93.320312 14.109375 93.890625 14.109375 C 94.460938 14.109375 94.941406 14.253906 95.339844 14.511719 C 95.707031 14.765625 96.023438 15.132812 96.277344 15.589844 C 96.53125 16.074219 96.707031 16.613281 96.816406 17.269531 C 96.902344 17.917969 96.960938 18.601562 96.960938 19.371094 C 96.960938 20.136719 96.902344 20.820312 96.816406 21.472656 C 96.707031 22.128906 96.53125 22.667969 96.277344 23.152344 C 96.023438 23.636719 95.707031 24.003906 95.339844 24.257812 C 94.941406 24.515625 94.460938 24.660156 93.890625 24.660156 C 93.320312 24.660156 92.839844 24.515625 92.46875 24.257812 C 92.070312 24.003906 91.757812 23.636719 91.503906 23.152344 "/>
</g>
</svg>
