<?xml version="1.0" encoding="UTF-8"?>
<svg xmlns="http://www.w3.org/2000/svg" xmlns:xlink="http://www.w3.org/1999/xlink" width="143pt" height="131pt" viewBox="0 0 143 131" version="1.1">
<g id="surface1">
<path style=" stroke:none;fill-rule:nonzero;fill:rgb(10.112%,40.585327%,73.280334%);fill-opacity:1;" d="M 0.640625 130.394531 L 142.375 130.394531 L 142.375 0.00390625 L 0.640625 0.00390625 Z M 0.640625 130.394531 "/>
<path style=" stroke:none;fill-rule:nonzero;fill:rgb(100%,100%,100%);fill-opacity:1;" d="M 2.910156 121.332031 C 2.910156 125.105469 5.972656 128.128906 9.710938 128.128906 L 133.308594 128.128906 C 137.085938 128.128906 140.109375 125.105469 140.109375 121.332031 L 140.109375 9.066406 C 140.109375 5.332031 137.085938 2.269531 133.308594 2.269531 L 9.710938 2.269531 C 5.972656 2.269531 2.910156 5.332031 2.910156 9.066406 L 2.910156 121.332031 "/>
<path style=" stroke:none;fill-rule:nonzero;fill:rgb(10.112%,40.585327%,73.280334%);fill-opacity:1;" d="M 4.632812 121.332031 C 4.632812 124.140625 6.898438 126.449219 9.710938 126.449219 L 133.308594 126.449219 C 136.121094 126.449219 138.429688 124.140625 138.429688 121.332031 L 138.429688 9.066406 C 138.429688 6.253906 136.121094 3.988281 133.308594 3.988281 L 9.710938 3.988281 C 6.898438 3.988281 4.632812 6.253906 4.632812 9.066406 L 4.632812 121.332031 "/>
<path style=" stroke:none;fill-rule:nonzero;fill:rgb(100%,100%,100%);fill-opacity:1;" d="M 22.175781 62.363281 L 120.84375 62.363281 L 120.84375 10.492188 L 22.175781 10.492188 Z M 22.175781 62.363281 "/>
<path style=" stroke:none;fill-rule:nonzero;fill:rgb(100%,100%,100%);fill-opacity:1;" d="M 84.5 106.265625 C 85.042969 105.71875 84.539062 104.753906 83.785156 104.921875 L 74.300781 106.976562 L 74.300781 99.464844 L 68.71875 99.464844 L 68.71875 107.019531 L 59.316406 104.964844 C 58.519531 104.792969 58.015625 105.761719 58.605469 106.347656 L 71.53125 118.519531 L 84.5 106.265625 "/>
<path style=" stroke:none;fill-rule:nonzero;fill:rgb(100%,100%,100%);fill-opacity:1;" d="M 50.078125 85.070312 L 52.230469 85.070312 L 53.289062 81.582031 L 58.335938 81.582031 L 59.394531 85.070312 L 61.628906 85.070312 L 57.101562 71.144531 L 54.746094 71.144531 L 50.078125 85.070312 "/>
<path style=" stroke:none;fill-rule:nonzero;fill:rgb(100%,100%,100%);fill-opacity:1;" d="M 63.335938 85.070312 L 65.410156 85.070312 L 65.410156 74.835938 L 63.335938 74.835938 L 63.335938 85.070312 "/>
<path style=" stroke:none;fill-rule:nonzero;fill:rgb(100%,100%,100%);fill-opacity:1;" d="M 63.277344 72.78125 L 65.46875 72.78125 L 65.46875 70.566406 L 63.277344 70.566406 L 63.277344 72.78125 "/>
<path style=" stroke:none;fill-rule:nonzero;fill:rgb(100%,100%,100%);fill-opacity:1;" d="M 68.902344 86.925781 L 68.78125 88.859375 C 69.121094 89.003906 69.601562 89.140625 70.199219 89.28125 C 70.796875 89.421875 71.417969 89.5 72.035156 89.5 C 73.550781 89.5 74.6875 89.082031 75.449219 88.265625 C 76.207031 87.445312 76.582031 86.269531 76.582031 84.753906 L 76.582031 76.574219 C 76.582031 76.273438 76.601562 75.992188 76.621094 75.695312 C 76.644531 75.394531 76.644531 75.113281 76.664062 74.835938 L 74.746094 74.835938 C 74.746094 74.898438 74.746094 75.015625 74.746094 75.15625 C 74.726562 75.292969 74.726562 75.457031 74.707031 75.613281 C 74.6875 75.773438 74.6875 75.914062 74.6875 76.050781 C 74.667969 76.191406 74.667969 76.3125 74.667969 76.371094 L 74.609375 76.371094 C 74.347656 75.914062 74.011719 75.515625 73.59375 75.175781 C 73.171875 74.855469 72.652344 74.695312 72.015625 74.695312 C 71.394531 74.695312 70.839844 74.816406 70.378906 75.074219 C 69.921875 75.335938 69.519531 75.671875 69.222656 76.132812 C 68.921875 76.589844 68.683594 77.152344 68.542969 77.789062 C 68.386719 78.449219 68.304688 79.164062 68.304688 79.964844 C 68.304688 80.921875 68.40625 81.71875 68.625 82.378906 C 68.824219 83.035156 69.082031 83.574219 69.421875 83.972656 C 69.761719 84.394531 70.140625 84.671875 70.558594 84.851562 C 70.976562 85.03125 71.417969 85.132812 71.855469 85.132812 C 72.554688 85.132812 73.113281 84.972656 73.53125 84.632812 C 73.949219 84.3125 74.289062 83.914062 74.546875 83.417969 L 74.589844 83.417969 L 74.589844 84.695312 C 74.589844 85.109375 74.546875 85.53125 74.46875 85.910156 C 74.367188 86.285156 74.230469 86.605469 74.03125 86.886719 C 73.8125 87.164062 73.53125 87.386719 73.171875 87.566406 C 72.8125 87.722656 72.355469 87.804688 71.816406 87.804688 C 71.257812 87.804688 70.71875 87.707031 70.179688 87.523438 C 69.640625 87.324219 69.222656 87.125 68.902344 86.925781 "/>
<path style=" stroke:none;fill-rule:nonzero;fill:rgb(100%,100%,100%);fill-opacity:1;" d="M 80.042969 85.070312 L 82.117188 85.070312 L 82.117188 70.105469 L 80.042969 70.105469 L 80.042969 85.070312 "/>
<path style=" stroke:none;fill-rule:nonzero;fill:rgb(100%,100%,100%);fill-opacity:1;" d="M 87.136719 80.542969 L 92.980469 80.542969 L 92.980469 79.84375 C 92.980469 78.945312 92.882812 78.1875 92.703125 77.53125 C 92.523438 76.871094 92.265625 76.332031 91.925781 75.914062 C 91.585938 75.492188 91.167969 75.195312 90.707031 74.996094 C 90.230469 74.796875 89.710938 74.695312 89.152344 74.695312 C 88.511719 74.695312 87.933594 74.816406 87.4375 75.074219 C 86.917969 75.335938 86.480469 75.714844 86.140625 76.171875 C 85.800781 76.652344 85.519531 77.210938 85.34375 77.867188 C 85.160156 78.527344 85.0625 79.246094 85.0625 80.023438 C 85.0625 80.761719 85.160156 81.460938 85.34375 82.097656 C 85.519531 82.738281 85.78125 83.277344 86.160156 83.734375 C 86.519531 84.195312 86.976562 84.550781 87.535156 84.8125 C 88.09375 85.089844 88.753906 85.210938 89.488281 85.210938 C 90.128906 85.210938 90.707031 85.152344 91.207031 85.011719 C 91.707031 84.871094 92.105469 84.734375 92.445312 84.59375 L 92.34375 82.855469 C 92.085938 83.035156 91.746094 83.214844 91.34375 83.398438 C 90.925781 83.574219 90.429688 83.675781 89.832031 83.675781 C 88.871094 83.675781 88.195312 83.417969 87.777344 82.878906 C 87.355469 82.359375 87.136719 81.582031 87.136719 80.542969 "/>
<path style=" stroke:none;fill-rule:nonzero;fill:rgb(10.112%,40.585327%,73.280334%);fill-opacity:1;" d="M 53.808594 79.84375 L 55.863281 73.121094 L 55.902344 73.121094 L 57.835938 79.84375 L 53.808594 79.84375 "/>
<path style=" stroke:none;fill-rule:nonzero;fill:rgb(10.112%,40.585327%,73.280334%);fill-opacity:1;" d="M 70.9375 82.65625 C 70.597656 82.078125 70.417969 81.160156 70.417969 79.902344 C 70.417969 78.726562 70.578125 77.847656 70.898438 77.230469 C 71.195312 76.632812 71.71875 76.332031 72.433594 76.3125 C 73.113281 76.3125 73.632812 76.609375 74.011719 77.210938 C 74.367188 77.808594 74.546875 78.707031 74.546875 79.886719 C 74.546875 81.121094 74.367188 82.039062 74.03125 82.640625 C 73.691406 83.257812 73.132812 83.554688 72.355469 83.554688 C 71.753906 83.554688 71.277344 83.257812 70.9375 82.65625 "/>
<path style=" stroke:none;fill-rule:nonzero;fill:rgb(10.112%,40.585327%,73.280334%);fill-opacity:1;" d="M 87.136719 79.125 C 87.15625 78.1875 87.335938 77.449219 87.675781 76.929688 C 88.015625 76.433594 88.492188 76.171875 89.09375 76.171875 C 90.328125 76.171875 90.949219 77.152344 90.949219 79.125 L 87.136719 79.125 "/>
<path style=" stroke:none;fill-rule:nonzero;fill:rgb(0%,49.674988%,27.331543%);fill-opacity:1;" d="M 23.308594 61.230469 L 119.710938 61.230469 L 119.710938 11.625 L 23.308594 11.625 Z M 23.308594 61.230469 "/>
<path style=" stroke:none;fill-rule:nonzero;fill:rgb(100%,100%,100%);fill-opacity:1;" d="M 53.332031 31.480469 L 57.121094 31.480469 C 57.820312 31.480469 58.441406 31.382812 58.976562 31.183594 C 59.515625 31.003906 59.957031 30.722656 60.335938 30.382812 C 60.714844 30.046875 60.992188 29.625 61.191406 29.148438 C 61.371094 28.6875 61.472656 28.171875 61.472656 27.613281 C 61.472656 27.070312 61.390625 26.613281 61.253906 26.195312 C 61.09375 25.796875 60.894531 25.457031 60.65625 25.175781 C 60.394531 24.917969 60.117188 24.699219 59.816406 24.535156 C 59.496094 24.378906 59.175781 24.277344 58.859375 24.21875 L 58.859375 24.179688 C 59.160156 24.078125 59.4375 23.960938 59.71875 23.78125 C 59.976562 23.621094 60.214844 23.421875 60.433594 23.160156 C 60.65625 22.902344 60.816406 22.601562 60.953125 22.242188 C 61.09375 21.902344 61.152344 21.484375 61.152344 21.027344 C 61.152344 19.90625 60.832031 19.050781 60.195312 18.453125 C 59.535156 17.855469 58.519531 17.554688 57.121094 17.554688 L 53.332031 17.554688 L 53.332031 31.480469 "/>
<path style=" stroke:none;fill-rule:nonzero;fill:rgb(100%,100%,100%);fill-opacity:1;" d="M 66.222656 26.953125 L 72.066406 26.953125 L 72.066406 26.253906 C 72.066406 25.355469 71.96875 24.597656 71.789062 23.941406 C 71.609375 23.28125 71.347656 22.742188 71.007812 22.324219 C 70.667969 21.902344 70.25 21.605469 69.792969 21.40625 C 69.316406 21.207031 68.792969 21.105469 68.234375 21.105469 C 67.597656 21.105469 67.019531 21.226562 66.519531 21.484375 C 66.003906 21.746094 65.5625 22.121094 65.222656 22.582031 C 64.886719 23.0625 64.605469 23.621094 64.425781 24.277344 C 64.246094 24.9375 64.148438 25.65625 64.148438 26.433594 C 64.148438 27.171875 64.246094 27.871094 64.425781 28.507812 C 64.605469 29.148438 64.863281 29.6875 65.246094 30.144531 C 65.601562 30.605469 66.0625 30.964844 66.621094 31.222656 C 67.179688 31.5 67.835938 31.621094 68.574219 31.621094 C 69.214844 31.621094 69.792969 31.5625 70.292969 31.421875 C 70.789062 31.28125 71.191406 31.144531 71.527344 31.003906 L 71.425781 29.269531 C 71.167969 29.445312 70.832031 29.625 70.429688 29.808594 C 70.011719 29.984375 69.515625 30.085938 68.914062 30.085938 C 67.957031 30.085938 67.277344 29.828125 66.859375 29.285156 C 66.441406 28.769531 66.222656 27.988281 66.222656 26.953125 "/>
<path style=" stroke:none;fill-rule:nonzero;fill:rgb(100%,100%,100%);fill-opacity:1;" d="M 75.105469 31.480469 L 77.179688 31.480469 L 77.179688 25.972656 C 77.179688 25.457031 77.238281 25.015625 77.359375 24.640625 C 77.480469 24.257812 77.640625 23.960938 77.839844 23.71875 C 78.039062 23.5 78.277344 23.320312 78.539062 23.203125 C 78.796875 23.101562 79.054688 23.039062 79.355469 23.039062 C 79.472656 23.039062 79.59375 23.039062 79.695312 23.0625 C 79.792969 23.082031 79.914062 23.101562 80.011719 23.121094 L 80.011719 21.125 C 79.972656 21.125 79.933594 21.125 79.914062 21.105469 C 79.894531 21.105469 79.855469 21.105469 79.8125 21.105469 C 79.433594 21.105469 79.097656 21.144531 78.796875 21.246094 C 78.496094 21.34375 78.257812 21.484375 78.039062 21.664062 C 77.820312 21.84375 77.617188 22.042969 77.460938 22.265625 C 77.300781 22.484375 77.160156 22.722656 77.058594 22.980469 L 77.019531 22.980469 C 77.019531 22.902344 77.019531 22.78125 77.019531 22.621094 C 77.003906 22.464844 77.003906 22.285156 76.980469 22.105469 C 76.960938 21.925781 76.960938 21.765625 76.960938 21.605469 C 76.941406 21.445312 76.941406 21.324219 76.941406 21.246094 L 75.027344 21.246094 C 75.046875 21.546875 75.066406 21.863281 75.085938 22.183594 C 75.105469 22.523438 75.105469 22.863281 75.105469 23.203125 L 75.105469 31.480469 "/>
<path style=" stroke:none;fill-rule:nonzero;fill:rgb(100%,100%,100%);fill-opacity:1;" d="M 82.089844 31.480469 L 84.160156 31.480469 L 84.160156 25.417969 C 84.160156 24.617188 84.324219 23.980469 84.660156 23.519531 C 84.980469 23.0625 85.457031 22.84375 86.117188 22.84375 C 86.65625 22.84375 87.035156 23.019531 87.292969 23.382812 C 87.53125 23.742188 87.652344 24.316406 87.652344 25.117188 L 87.652344 31.480469 L 89.726562 31.480469 L 89.726562 24.640625 C 89.726562 23.558594 89.488281 22.703125 89.011719 22.0625 C 88.53125 21.425781 87.773438 21.105469 86.734375 21.105469 C 86.136719 21.105469 85.617188 21.246094 85.160156 21.546875 C 84.699219 21.84375 84.339844 22.265625 84.082031 22.800781 L 84.042969 22.800781 C 84.042969 22.742188 84.042969 22.621094 84.042969 22.484375 C 84.023438 22.34375 84.023438 22.183594 84.003906 22.023438 C 83.984375 21.863281 83.984375 21.703125 83.984375 21.5625 C 83.964844 21.425781 83.964844 21.304688 83.964844 21.246094 L 82.007812 21.246094 C 82.027344 21.546875 82.046875 21.863281 82.066406 22.183594 C 82.089844 22.523438 82.089844 22.863281 82.089844 23.203125 L 82.089844 31.480469 "/>
<path style=" stroke:none;fill-rule:nonzero;fill:rgb(100%,100%,100%);fill-opacity:1;" d="M 31.683594 53.304688 L 38.40625 53.304688 L 38.40625 51.53125 L 33.835938 51.53125 L 33.835938 39.378906 L 31.683594 39.378906 L 31.683594 53.304688 "/>
<path style=" stroke:none;fill-rule:nonzero;fill:rgb(100%,100%,100%);fill-opacity:1;" d="M 45.855469 53.304688 L 47.730469 53.304688 C 47.710938 53.125 47.671875 52.867188 47.652344 52.566406 C 47.632812 52.269531 47.613281 51.949219 47.613281 51.609375 L 47.613281 46.71875 C 47.613281 46.042969 47.550781 45.484375 47.414062 45.042969 C 47.273438 44.605469 47.054688 44.246094 46.792969 43.945312 C 46.574219 43.6875 46.214844 43.449219 45.738281 43.230469 C 45.257812 43.03125 44.640625 42.929688 43.863281 42.929688 C 43.203125 42.929688 42.625 43.011719 42.125 43.167969 C 41.628906 43.328125 41.167969 43.507812 40.789062 43.726562 L 40.949219 45.503906 C 41.207031 45.246094 41.589844 45.003906 42.085938 44.785156 C 42.566406 44.585938 43.085938 44.484375 43.664062 44.484375 C 44.402344 44.484375 44.917969 44.6875 45.238281 45.085938 C 45.398438 45.285156 45.519531 45.503906 45.578125 45.742188 C 45.636719 46.003906 45.65625 46.28125 45.65625 46.601562 L 45.65625 47.019531 L 44.917969 47.019531 C 43.261719 47.019531 41.988281 47.300781 41.128906 47.839844 C 40.273438 48.398438 39.832031 49.273438 39.832031 50.472656 C 39.832031 50.953125 39.910156 51.371094 40.070312 51.75 C 40.230469 52.128906 40.449219 52.425781 40.730469 52.6875 C 40.988281 52.945312 41.308594 53.125 41.667969 53.246094 C 42.027344 53.382812 42.40625 53.445312 42.824219 53.445312 C 43.582031 53.445312 44.179688 53.285156 44.640625 52.96875 C 45.078125 52.667969 45.4375 52.308594 45.695312 51.910156 L 45.738281 51.910156 C 45.738281 51.96875 45.738281 52.070312 45.757812 52.207031 C 45.757812 52.347656 45.757812 52.488281 45.777344 52.628906 C 45.796875 52.765625 45.796875 52.90625 45.816406 53.027344 C 45.835938 53.167969 45.835938 53.246094 45.855469 53.304688 "/>
<path style=" stroke:none;fill-rule:nonzero;fill:rgb(100%,100%,100%);fill-opacity:1;" d="M 56.609375 53.304688 L 58.566406 53.304688 C 58.546875 53.007812 58.527344 52.6875 58.507812 52.347656 C 58.484375 52.027344 58.484375 51.691406 58.484375 51.351562 L 58.484375 43.070312 L 56.410156 43.070312 L 56.410156 49.074219 C 56.410156 49.875 56.25 50.511719 55.953125 50.988281 C 55.652344 51.46875 55.152344 51.710938 54.496094 51.710938 C 53.957031 51.710938 53.578125 51.53125 53.320312 51.171875 C 53.058594 50.8125 52.921875 50.230469 52.921875 49.433594 L 52.921875 43.070312 L 50.847656 43.070312 L 50.847656 49.914062 C 50.847656 50.988281 51.085938 51.847656 51.5625 52.488281 C 52.042969 53.125 52.800781 53.445312 53.835938 53.445312 C 54.535156 53.445312 55.09375 53.285156 55.511719 52.945312 C 55.914062 52.628906 56.230469 52.226562 56.492188 51.75 L 56.53125 51.75 L 56.609375 53.304688 "/>
<path style=" stroke:none;fill-rule:nonzero;fill:rgb(100%,100%,100%);fill-opacity:1;" d="M 61.8125 52.90625 C 62.132812 53.046875 62.53125 53.1875 63.027344 53.285156 C 63.507812 53.382812 64.046875 53.445312 64.625 53.445312 C 65.78125 53.445312 66.660156 53.167969 67.277344 52.585938 C 67.875 52.007812 68.175781 51.269531 68.175781 50.351562 C 68.175781 49.734375 67.996094 49.234375 67.65625 48.855469 C 67.300781 48.476562 66.820312 48.097656 66.203125 47.757812 L 65.304688 47.257812 C 64.84375 47 64.507812 46.78125 64.246094 46.5625 C 63.988281 46.359375 63.867188 46.082031 63.867188 45.742188 C 63.867188 45.382812 63.988281 45.085938 64.246094 44.863281 C 64.507812 44.644531 64.886719 44.546875 65.402344 44.546875 C 65.824219 44.546875 66.222656 44.585938 66.558594 44.664062 C 66.898438 44.765625 67.21875 44.863281 67.5 44.984375 L 67.597656 43.308594 C 67.378906 43.230469 67.078125 43.148438 66.679688 43.050781 C 66.261719 42.96875 65.78125 42.929688 65.242188 42.929688 C 64.726562 42.929688 64.265625 43.011719 63.847656 43.167969 C 63.429688 43.328125 63.070312 43.546875 62.769531 43.808594 C 62.472656 44.085938 62.230469 44.40625 62.070312 44.746094 C 61.914062 45.105469 61.832031 45.484375 61.832031 45.863281 C 61.832031 46.222656 61.894531 46.542969 61.992188 46.820312 C 62.09375 47.101562 62.230469 47.339844 62.410156 47.558594 C 62.589844 47.78125 62.789062 47.957031 63.050781 48.117188 C 63.308594 48.296875 63.585938 48.457031 63.90625 48.617188 L 64.984375 49.15625 C 65.445312 49.375 65.761719 49.613281 65.941406 49.855469 C 66.101562 50.09375 66.179688 50.351562 66.179688 50.613281 C 66.179688 51.011719 66.023438 51.3125 65.703125 51.511719 C 65.382812 51.730469 64.945312 51.828125 64.40625 51.828125 C 63.90625 51.828125 63.429688 51.75 63.011719 51.570312 C 62.589844 51.410156 62.230469 51.25 61.929688 51.109375 L 61.8125 52.90625 "/>
<path style=" stroke:none;fill-rule:nonzero;fill:rgb(100%,100%,100%);fill-opacity:1;" d="M 76.726562 53.304688 L 78.601562 53.304688 C 78.582031 53.125 78.539062 52.867188 78.523438 52.566406 C 78.503906 52.269531 78.480469 51.949219 78.480469 51.609375 L 78.480469 46.71875 C 78.480469 46.042969 78.421875 45.484375 78.28125 45.042969 C 78.144531 44.605469 77.921875 44.246094 77.664062 43.945312 C 77.445312 43.6875 77.085938 43.449219 76.605469 43.230469 C 76.128906 43.03125 75.507812 42.929688 74.730469 42.929688 C 74.074219 42.929688 73.492188 43.011719 72.996094 43.167969 C 72.496094 43.328125 72.035156 43.507812 71.660156 43.726562 L 71.816406 45.503906 C 72.078125 45.246094 72.457031 45.003906 72.957031 44.785156 C 73.433594 44.585938 73.953125 44.484375 74.53125 44.484375 C 75.269531 44.484375 75.785156 44.6875 76.105469 45.085938 C 76.265625 45.285156 76.386719 45.503906 76.445312 45.742188 C 76.507812 46.003906 76.527344 46.28125 76.527344 46.601562 L 76.527344 47.019531 L 75.785156 47.019531 C 74.132812 47.019531 72.855469 47.300781 71.996094 47.839844 C 71.140625 48.398438 70.703125 49.273438 70.703125 50.472656 C 70.703125 50.953125 70.78125 51.371094 70.941406 51.75 C 71.101562 52.128906 71.320312 52.425781 71.597656 52.6875 C 71.859375 52.945312 72.175781 53.125 72.535156 53.246094 C 72.894531 53.382812 73.273438 53.445312 73.691406 53.445312 C 74.453125 53.445312 75.050781 53.285156 75.507812 52.96875 C 75.949219 52.667969 76.308594 52.308594 76.566406 51.910156 L 76.605469 51.910156 C 76.605469 51.96875 76.605469 52.070312 76.625 52.207031 C 76.625 52.347656 76.625 52.488281 76.648438 52.628906 C 76.664062 52.765625 76.664062 52.90625 76.683594 53.027344 C 76.707031 53.167969 76.707031 53.246094 76.726562 53.304688 "/>
<path style=" stroke:none;fill-rule:nonzero;fill:rgb(100%,100%,100%);fill-opacity:1;" d="M 81.925781 53.304688 L 84.003906 53.304688 L 84.003906 47.242188 C 84.003906 46.441406 84.160156 45.804688 84.5 45.34375 C 84.820312 44.886719 85.296875 44.664062 85.957031 44.664062 C 86.496094 44.664062 86.875 44.84375 87.136719 45.203125 C 87.371094 45.5625 87.492188 46.140625 87.492188 46.941406 L 87.492188 53.304688 L 89.566406 53.304688 L 89.566406 46.460938 C 89.566406 45.382812 89.328125 44.527344 88.847656 43.886719 C 88.371094 43.25 87.613281 42.929688 86.578125 42.929688 C 85.976562 42.929688 85.457031 43.070312 85 43.367188 C 84.539062 43.667969 84.179688 44.085938 83.921875 44.625 L 83.882812 44.625 C 83.882812 44.566406 83.882812 44.445312 83.882812 44.304688 C 83.859375 44.167969 83.859375 44.007812 83.84375 43.847656 C 83.824219 43.6875 83.824219 43.527344 83.824219 43.386719 C 83.800781 43.25 83.800781 43.128906 83.800781 43.070312 L 81.847656 43.070312 C 81.867188 43.367188 81.886719 43.6875 81.90625 44.007812 C 81.925781 44.347656 81.925781 44.6875 81.925781 45.027344 L 81.925781 53.304688 "/>
<path style=" stroke:none;fill-rule:nonzero;fill:rgb(100%,100%,100%);fill-opacity:1;" d="M 92.996094 53.304688 L 95.070312 53.304688 L 95.070312 47.242188 C 95.070312 46.441406 95.230469 45.804688 95.570312 45.34375 C 95.890625 44.886719 96.367188 44.664062 97.027344 44.664062 C 97.566406 44.664062 97.945312 44.84375 98.203125 45.203125 C 98.441406 45.5625 98.5625 46.140625 98.5625 46.941406 L 98.5625 53.304688 L 100.636719 53.304688 L 100.636719 46.460938 C 100.636719 45.382812 100.398438 44.527344 99.917969 43.886719 C 99.441406 43.25 98.679688 42.929688 97.644531 42.929688 C 97.046875 42.929688 96.527344 43.070312 96.070312 43.367188 C 95.609375 43.667969 95.25 44.085938 94.992188 44.625 L 94.953125 44.625 C 94.953125 44.566406 94.953125 44.445312 94.953125 44.304688 C 94.929688 44.167969 94.929688 44.007812 94.910156 43.847656 C 94.894531 43.6875 94.894531 43.527344 94.894531 43.386719 C 94.871094 43.25 94.871094 43.128906 94.871094 43.070312 L 92.917969 43.070312 C 92.9375 43.367188 92.957031 43.6875 92.976562 44.007812 C 92.996094 44.347656 92.996094 44.6875 92.996094 45.027344 L 92.996094 53.304688 "/>
<path style=" stroke:none;fill-rule:nonzero;fill:rgb(100%,100%,100%);fill-opacity:1;" d="M 105.53125 48.777344 L 111.378906 48.777344 L 111.378906 48.078125 C 111.378906 47.179688 111.277344 46.421875 111.097656 45.761719 C 110.921875 45.105469 110.660156 44.566406 110.320312 44.148438 C 109.980469 43.726562 109.5625 43.429688 109.105469 43.230469 C 108.625 43.03125 108.105469 42.929688 107.546875 42.929688 C 106.910156 42.929688 106.328125 43.050781 105.832031 43.308594 C 105.3125 43.570312 104.875 43.945312 104.535156 44.40625 C 104.195312 44.886719 103.917969 45.445312 103.738281 46.101562 C 103.558594 46.761719 103.460938 47.476562 103.460938 48.257812 C 103.460938 48.996094 103.558594 49.695312 103.738281 50.332031 C 103.917969 50.972656 104.175781 51.511719 104.554688 51.96875 C 104.914062 52.425781 105.371094 52.785156 105.933594 53.046875 C 106.488281 53.324219 107.148438 53.445312 107.886719 53.445312 C 108.527344 53.445312 109.105469 53.382812 109.605469 53.246094 C 110.101562 53.105469 110.5 52.96875 110.839844 52.828125 L 110.738281 51.089844 C 110.480469 51.269531 110.140625 51.449219 109.742188 51.628906 C 109.324219 51.808594 108.824219 51.910156 108.226562 51.910156 C 107.269531 51.910156 106.589844 51.652344 106.171875 51.109375 C 105.753906 50.59375 105.53125 49.8125 105.53125 48.777344 "/>
<path style=" stroke:none;fill-rule:nonzero;fill:rgb(0%,49.674988%,27.331543%);fill-opacity:1;" d="M 55.445312 23.480469 L 55.445312 19.210938 L 56.746094 19.210938 C 57.523438 19.210938 58.101562 19.390625 58.480469 19.769531 C 58.859375 20.148438 59.039062 20.648438 59.039062 21.246094 C 59.039062 21.902344 58.839844 22.441406 58.441406 22.863281 C 58.019531 23.28125 57.421875 23.480469 56.625 23.480469 L 55.445312 23.480469 "/>
<path style=" stroke:none;fill-rule:nonzero;fill:rgb(0%,49.674988%,27.331543%);fill-opacity:1;" d="M 55.445312 29.785156 L 55.445312 25.136719 L 56.964844 25.136719 C 57.382812 25.136719 57.722656 25.199219 58.019531 25.316406 C 58.320312 25.4375 58.558594 25.597656 58.757812 25.816406 C 58.9375 26.035156 59.078125 26.273438 59.175781 26.554688 C 59.277344 26.835938 59.316406 27.132812 59.316406 27.472656 C 59.316406 28.128906 59.117188 28.6875 58.71875 29.128906 C 58.320312 29.566406 57.722656 29.785156 56.902344 29.785156 L 55.445312 29.785156 "/>
<path style=" stroke:none;fill-rule:nonzero;fill:rgb(0%,49.674988%,27.331543%);fill-opacity:1;" d="M 66.222656 25.535156 C 66.242188 24.597656 66.421875 23.859375 66.761719 23.339844 C 67.101562 22.84375 67.578125 22.582031 68.175781 22.582031 C 69.414062 22.582031 70.03125 23.558594 70.03125 25.535156 L 66.222656 25.535156 "/>
<path style=" stroke:none;fill-rule:nonzero;fill:rgb(0%,49.674988%,27.331543%);fill-opacity:1;" d="M 45.65625 48.296875 L 45.65625 49.214844 C 45.65625 50.03125 45.476562 50.691406 45.117188 51.191406 C 44.738281 51.710938 44.203125 51.96875 43.464844 51.96875 C 42.921875 51.96875 42.523438 51.808594 42.246094 51.511719 C 41.964844 51.210938 41.828125 50.789062 41.828125 50.292969 C 41.828125 49.613281 42.085938 49.117188 42.625 48.777344 C 43.164062 48.4375 43.941406 48.277344 44.960938 48.277344 C 45.078125 48.277344 45.199219 48.277344 45.339844 48.277344 C 45.476562 48.277344 45.597656 48.277344 45.65625 48.296875 "/>
<path style=" stroke:none;fill-rule:nonzero;fill:rgb(0%,49.674988%,27.331543%);fill-opacity:1;" d="M 76.527344 48.296875 L 76.527344 49.214844 C 76.527344 50.03125 76.347656 50.691406 75.988281 51.191406 C 75.609375 51.710938 75.070312 51.96875 74.332031 51.96875 C 73.792969 51.96875 73.394531 51.808594 73.113281 51.511719 C 72.835938 51.210938 72.695312 50.789062 72.695312 50.292969 C 72.695312 49.613281 72.957031 49.117188 73.492188 48.777344 C 74.03125 48.4375 74.808594 48.277344 75.828125 48.277344 C 75.949219 48.277344 76.066406 48.277344 76.207031 48.277344 C 76.347656 48.277344 76.464844 48.277344 76.527344 48.296875 "/>
<path style=" stroke:none;fill-rule:nonzero;fill:rgb(0%,49.674988%,27.331543%);fill-opacity:1;" d="M 105.53125 47.359375 C 105.550781 46.421875 105.730469 45.683594 106.070312 45.164062 C 106.410156 44.664062 106.890625 44.40625 107.488281 44.40625 C 108.726562 44.40625 109.34375 45.382812 109.34375 47.359375 L 105.53125 47.359375 "/>
</g>
</svg>
