<?xml version="1.0" encoding="UTF-8"?>
<svg xmlns="http://www.w3.org/2000/svg" xmlns:xlink="http://www.w3.org/1999/xlink" width="80pt" height="54pt" viewBox="0 0 80 54" version="1.1">
<g id="surface1">
<path style=" stroke:none;fill-rule:nonzero;fill:rgb(13.729858%,12.159729%,12.548828%);fill-opacity:1;" d="M 0.140625 53.097656 L 79.511719 53.097656 L 79.511719 0.941406 L 0.140625 0.941406 Z M 0.140625 53.097656 "/>
<path style=" stroke:none;fill-rule:nonzero;fill:rgb(100%,100%,100%);fill-opacity:1;" d="M 17.1875 18.675781 L 17.1875 1.667969 L 0.859375 1.667969 L 0.859375 18.675781 L 17.1875 18.675781 "/>
<path style=" stroke:none;fill-rule:nonzero;fill:rgb(100%,100%,100%);fill-opacity:1;" d="M 0.863281 35.003906 L 17.191406 35.003906 L 17.191406 19.128906 L 0.863281 19.128906 L 0.863281 35.003906 "/>
<path style=" stroke:none;fill-rule:nonzero;fill:rgb(100%,100%,100%);fill-opacity:1;" d="M 17.191406 52.445312 L 17.191406 35.4375 L 0.863281 35.4375 L 0.863281 52.445312 L 17.191406 52.445312 "/>
<path style=" stroke:none;fill-rule:nonzero;fill:rgb(100%,100%,100%);fill-opacity:1;" d="M 17.621094 52.445312 L 78.851562 52.445312 L 78.851562 35.433594 L 17.621094 35.433594 Z M 17.621094 52.445312 "/>
<path style=" stroke:none;fill-rule:nonzero;fill:rgb(100%,100%,100%);fill-opacity:1;" d="M 17.609375 35.003906 L 78.839844 35.003906 L 78.839844 19.128906 L 17.609375 19.128906 Z M 17.609375 35.003906 "/>
<path style=" stroke:none;fill-rule:nonzero;fill:rgb(100%,100%,100%);fill-opacity:1;" d="M 17.621094 18.675781 L 78.851562 18.675781 L 78.851562 1.667969 L 17.621094 1.667969 Z M 17.621094 18.675781 "/>
<path style=" stroke:none;fill-rule:nonzero;fill:rgb(13.729858%,12.159729%,12.548828%);fill-opacity:1;" d="M 12.230469 6.078125 L 4.085938 5.453125 C 3.808594 5.429688 3.578125 5.660156 3.601562 5.9375 L 4.226562 14.085938 C 4.242188 14.28125 4.382812 14.445312 4.574219 14.492188 C 4.765625 14.535156 4.964844 14.453125 5.066406 14.28125 L 7.167969 10.785156 L 11.496094 15.753906 L 13.902344 13.347656 L 8.929688 9.019531 L 12.429688 6.917969 C 12.597656 6.820312 12.683594 6.621094 12.636719 6.425781 C 12.59375 6.234375 12.429688 6.09375 12.230469 6.078125 "/>
<path style=" stroke:none;fill-rule:nonzero;fill:rgb(13.729858%,12.159729%,12.548828%);fill-opacity:1;" d="M 14.339844 27.105469 L 9.023438 20.90625 C 8.839844 20.695312 8.515625 20.695312 8.332031 20.90625 L 3.015625 27.105469 C 2.886719 27.257812 2.871094 27.472656 2.976562 27.640625 C 3.078125 27.808594 3.28125 27.890625 3.46875 27.84375 L 7.429688 26.855469 L 6.976562 33.429688 L 10.378906 33.429688 L 9.925781 26.855469 L 13.886719 27.84375 C 14.078125 27.890625 14.277344 27.808594 14.378906 27.640625 C 14.484375 27.472656 14.46875 27.257812 14.339844 27.105469 "/>
<path style=" stroke:none;fill-rule:nonzero;fill:rgb(13.729858%,12.159729%,12.548828%);fill-opacity:1;" d="M 13.402344 47.5 L 14.027344 39.355469 C 14.050781 39.078125 13.820312 38.847656 13.542969 38.867188 L 5.394531 39.496094 C 5.199219 39.511719 5.035156 39.652344 4.988281 39.84375 C 4.945312 40.035156 5.027344 40.234375 5.199219 40.335938 L 8.695312 42.4375 L 3.726562 46.765625 L 6.132812 49.171875 L 10.460938 44.199219 L 12.558594 47.699219 C 12.660156 47.867188 12.863281 47.953125 13.054688 47.90625 C 13.246094 47.863281 13.386719 47.699219 13.402344 47.5 "/>
<path style=" stroke:none;fill-rule:nonzero;fill:rgb(13.729858%,12.159729%,12.548828%);fill-opacity:1;" d="M 21.011719 12.992188 L 22.148438 12.992188 L 22.148438 6.265625 L 22.167969 6.265625 L 24.203125 12.992188 L 25.078125 12.992188 L 27.207031 6.265625 L 27.230469 6.265625 L 27.230469 12.992188 L 28.367188 12.992188 L 28.367188 5.058594 L 26.558594 5.058594 L 24.707031 11.175781 L 24.683594 11.175781 L 22.875 5.058594 L 21.011719 5.058594 L 21.011719 12.992188 "/>
<path style=" stroke:none;fill-rule:nonzero;fill:rgb(13.729858%,12.159729%,12.548828%);fill-opacity:1;" d="M 30.464844 12.367188 C 30.679688 12.609375 30.945312 12.789062 31.25 12.902344 C 31.546875 13.015625 31.863281 13.074219 32.207031 13.074219 C 32.546875 13.074219 32.863281 13.015625 33.171875 12.902344 C 33.46875 12.789062 33.726562 12.609375 33.945312 12.367188 C 34.160156 12.128906 34.34375 11.824219 34.46875 11.449219 C 34.59375 11.074219 34.660156 10.605469 34.660156 10.074219 C 34.660156 9.550781 34.59375 9.09375 34.46875 8.71875 C 34.34375 8.34375 34.160156 8.027344 33.945312 7.785156 C 33.726562 7.546875 33.46875 7.367188 33.171875 7.253906 C 32.863281 7.140625 32.546875 7.082031 32.207031 7.082031 C 31.863281 7.082031 31.546875 7.140625 31.25 7.253906 C 30.945312 7.367188 30.679688 7.546875 30.464844 7.785156 C 30.25 8.027344 30.066406 8.34375 29.941406 8.71875 C 29.816406 9.09375 29.75 9.550781 29.75 10.074219 C 29.75 10.605469 29.816406 11.074219 29.941406 11.449219 C 30.066406 11.824219 30.25 12.128906 30.464844 12.367188 "/>
<path style=" stroke:none;fill-rule:nonzero;fill:rgb(13.729858%,12.159729%,12.548828%);fill-opacity:1;" d="M 35.972656 12.992188 L 37.15625 12.992188 L 37.15625 9.539062 C 37.15625 9.082031 37.246094 8.71875 37.441406 8.457031 C 37.625 8.195312 37.898438 8.070312 38.273438 8.070312 C 38.578125 8.070312 38.792969 8.171875 38.941406 8.378906 C 39.078125 8.582031 39.148438 8.914062 39.148438 9.367188 L 39.148438 12.992188 L 40.328125 12.992188 L 40.328125 9.09375 C 40.328125 8.480469 40.195312 7.992188 39.921875 7.628906 C 39.648438 7.265625 39.214844 7.082031 38.625 7.082031 C 38.28125 7.082031 37.988281 7.160156 37.726562 7.332031 C 37.464844 7.503906 37.257812 7.742188 37.113281 8.050781 L 37.089844 8.050781 C 37.089844 8.015625 37.089844 7.945312 37.089844 7.867188 C 37.078125 7.785156 37.078125 7.695312 37.066406 7.605469 C 37.054688 7.515625 37.054688 7.421875 37.054688 7.34375 C 37.042969 7.265625 37.042969 7.195312 37.042969 7.160156 L 35.929688 7.160156 C 35.941406 7.332031 35.953125 7.515625 35.964844 7.695312 C 35.972656 7.890625 35.972656 8.082031 35.972656 8.277344 L 35.972656 12.992188 "/>
<path style=" stroke:none;fill-rule:nonzero;fill:rgb(13.729858%,12.159729%,12.548828%);fill-opacity:1;" d="M 41.925781 12.992188 L 43.039062 12.992188 C 43.039062 12.972656 43.039062 12.925781 43.050781 12.847656 C 43.058594 12.769531 43.058594 12.6875 43.074219 12.585938 C 43.074219 12.496094 43.074219 12.402344 43.085938 12.3125 C 43.085938 12.222656 43.085938 12.152344 43.085938 12.109375 L 43.105469 12.109375 C 43.164062 12.230469 43.242188 12.347656 43.335938 12.460938 C 43.414062 12.574219 43.515625 12.675781 43.640625 12.769531 C 43.765625 12.859375 43.902344 12.925781 44.074219 12.984375 C 44.242188 13.050781 44.4375 13.074219 44.652344 13.074219 C 44.984375 13.074219 45.277344 13.003906 45.53125 12.859375 C 45.777344 12.722656 45.992188 12.519531 46.164062 12.253906 C 46.335938 11.996094 46.460938 11.6875 46.550781 11.3125 C 46.632812 10.949219 46.675781 10.539062 46.675781 10.085938 C 46.675781 9.09375 46.496094 8.355469 46.132812 7.84375 C 45.765625 7.332031 45.277344 7.082031 44.664062 7.082031 C 44.289062 7.082031 43.980469 7.160156 43.753906 7.332031 C 43.515625 7.503906 43.324219 7.71875 43.175781 7.980469 L 43.152344 7.980469 L 43.152344 4.464844 L 41.96875 4.464844 L 41.96875 11.960938 C 41.96875 12.152344 41.96875 12.347656 41.957031 12.519531 C 41.945312 12.6875 41.933594 12.847656 41.925781 12.992188 "/>
<path style=" stroke:none;fill-rule:nonzero;fill:rgb(13.729858%,12.159729%,12.548828%);fill-opacity:1;" d="M 47.542969 12.992188 L 48.726562 12.992188 L 48.726562 7.160156 L 47.542969 7.160156 L 47.542969 12.992188 "/>
<path style=" stroke:none;fill-rule:nonzero;fill:rgb(13.729858%,12.159729%,12.548828%);fill-opacity:1;" d="M 47.511719 5.988281 L 48.761719 5.988281 L 48.761719 4.726562 L 47.511719 4.726562 L 47.511719 5.988281 "/>
<path style=" stroke:none;fill-rule:nonzero;fill:rgb(13.729858%,12.159729%,12.548828%);fill-opacity:1;" d="M 49.457031 14.507812 L 49.433594 15.425781 C 49.539062 15.449219 49.640625 15.472656 49.765625 15.496094 C 49.890625 15.507812 50.015625 15.515625 50.140625 15.515625 C 50.421875 15.515625 50.652344 15.484375 50.84375 15.40625 C 51.027344 15.324219 51.175781 15.210938 51.289062 15.0625 C 51.390625 14.902344 51.46875 14.710938 51.515625 14.472656 C 51.550781 14.230469 51.574219 13.960938 51.574219 13.640625 L 51.574219 7.160156 L 50.390625 7.160156 L 50.390625 13.699219 C 50.390625 13.890625 50.378906 14.039062 50.367188 14.152344 C 50.34375 14.265625 50.3125 14.359375 50.277344 14.425781 C 50.230469 14.484375 50.175781 14.53125 50.117188 14.550781 C 50.046875 14.5625 49.96875 14.574219 49.878906 14.574219 C 49.796875 14.574219 49.71875 14.5625 49.652344 14.550781 C 49.582031 14.539062 49.515625 14.519531 49.457031 14.507812 "/>
<path style=" stroke:none;fill-rule:nonzero;fill:rgb(13.729858%,12.159729%,12.548828%);fill-opacity:1;" d="M 50.355469 5.988281 L 51.605469 5.988281 L 51.605469 4.726562 L 50.355469 4.726562 L 50.355469 5.988281 "/>
<path style=" stroke:none;fill-rule:nonzero;fill:rgb(13.729858%,12.159729%,12.548828%);fill-opacity:1;" d="M 53.707031 12.367188 C 53.921875 12.609375 54.183594 12.789062 54.492188 12.902344 C 54.785156 13.015625 55.105469 13.074219 55.445312 13.074219 C 55.789062 13.074219 56.105469 13.015625 56.414062 12.902344 C 56.710938 12.789062 56.96875 12.609375 57.183594 12.367188 C 57.402344 12.128906 57.585938 11.824219 57.710938 11.449219 C 57.835938 11.074219 57.902344 10.605469 57.902344 10.074219 C 57.902344 9.550781 57.835938 9.09375 57.710938 8.71875 C 57.585938 8.34375 57.402344 8.027344 57.183594 7.785156 C 56.96875 7.546875 56.710938 7.367188 56.414062 7.253906 C 56.105469 7.140625 55.789062 7.082031 55.445312 7.082031 C 55.105469 7.082031 54.785156 7.140625 54.492188 7.253906 C 54.183594 7.367188 53.921875 7.546875 53.707031 7.785156 C 53.492188 8.027344 53.308594 8.34375 53.183594 8.71875 C 53.058594 9.09375 52.992188 9.550781 52.992188 10.074219 C 52.992188 10.605469 53.058594 11.074219 53.183594 11.449219 C 53.308594 11.824219 53.492188 12.128906 53.707031 12.367188 "/>
<path style=" stroke:none;fill-rule:nonzero;fill:rgb(13.729858%,12.159729%,12.548828%);fill-opacity:1;" d="M 62.445312 12.992188 L 63.554688 12.992188 C 63.542969 12.824219 63.535156 12.644531 63.523438 12.449219 C 63.511719 12.265625 63.511719 12.074219 63.511719 11.882812 L 63.511719 7.160156 L 62.332031 7.160156 L 62.332031 10.582031 C 62.332031 11.039062 62.238281 11.402344 62.066406 11.675781 C 61.898438 11.949219 61.613281 12.085938 61.238281 12.085938 C 60.929688 12.085938 60.714844 11.984375 60.566406 11.777344 C 60.417969 11.574219 60.339844 11.242188 60.339844 10.789062 L 60.339844 7.160156 L 59.15625 7.160156 L 59.15625 11.0625 C 59.15625 11.675781 59.292969 12.164062 59.566406 12.527344 C 59.839844 12.890625 60.269531 13.074219 60.863281 13.074219 C 61.261719 13.074219 61.578125 12.984375 61.816406 12.789062 C 62.042969 12.609375 62.226562 12.382812 62.375 12.109375 L 62.398438 12.109375 L 62.445312 12.992188 "/>
<path style=" stroke:none;fill-rule:nonzero;fill:rgb(13.729858%,12.159729%,12.548828%);fill-opacity:1;" d="M 21.011719 30.472656 L 22.238281 30.472656 L 22.238281 22.535156 L 21.011719 22.535156 L 21.011719 30.472656 "/>
<path style=" stroke:none;fill-rule:nonzero;fill:rgb(13.729858%,12.159729%,12.548828%);fill-opacity:1;" d="M 23.902344 30.472656 L 25.085938 30.472656 L 25.085938 27.015625 C 25.085938 26.5625 25.175781 26.199219 25.371094 25.9375 C 25.550781 25.675781 25.824219 25.550781 26.199219 25.550781 C 26.507812 25.550781 26.722656 25.652344 26.871094 25.855469 C 27.007812 26.0625 27.074219 26.390625 27.074219 26.847656 L 27.074219 30.472656 L 28.257812 30.472656 L 28.257812 26.574219 C 28.257812 25.960938 28.121094 25.46875 27.847656 25.105469 C 27.578125 24.742188 27.144531 24.558594 26.550781 24.558594 C 26.210938 24.558594 25.917969 24.640625 25.65625 24.808594 C 25.394531 24.980469 25.1875 25.21875 25.039062 25.527344 L 25.019531 25.527344 C 25.019531 25.492188 25.019531 25.425781 25.019531 25.34375 C 25.007812 25.265625 25.007812 25.175781 24.996094 25.085938 C 24.984375 24.992188 24.984375 24.902344 24.984375 24.824219 C 24.972656 24.742188 24.972656 24.671875 24.972656 24.640625 L 23.859375 24.640625 C 23.867188 24.808594 23.878906 24.992188 23.890625 25.175781 C 23.902344 25.367188 23.902344 25.5625 23.902344 25.753906 L 23.902344 30.472656 "/>
<path style=" stroke:none;fill-rule:nonzero;fill:rgb(13.729858%,12.159729%,12.548828%);fill-opacity:1;" d="M 29.761719 30.246094 C 29.941406 30.324219 30.167969 30.40625 30.453125 30.464844 C 30.726562 30.519531 31.03125 30.550781 31.363281 30.550781 C 32.023438 30.550781 32.523438 30.394531 32.875 30.0625 C 33.214844 29.734375 33.386719 29.3125 33.386719 28.789062 C 33.386719 28.4375 33.28125 28.15625 33.089844 27.9375 C 32.886719 27.722656 32.613281 27.507812 32.261719 27.3125 L 31.75 27.027344 C 31.488281 26.878906 31.292969 26.753906 31.148438 26.632812 C 30.996094 26.515625 30.929688 26.355469 30.929688 26.164062 C 30.929688 25.960938 30.996094 25.789062 31.148438 25.664062 C 31.292969 25.539062 31.511719 25.480469 31.804688 25.480469 C 32.042969 25.480469 32.273438 25.503906 32.464844 25.550781 C 32.65625 25.605469 32.839844 25.664062 33 25.730469 L 33.054688 24.777344 C 32.933594 24.730469 32.761719 24.683594 32.53125 24.628906 C 32.292969 24.582031 32.023438 24.558594 31.714844 24.558594 C 31.417969 24.558594 31.15625 24.605469 30.917969 24.695312 C 30.679688 24.789062 30.476562 24.914062 30.304688 25.0625 C 30.132812 25.21875 29.996094 25.402344 29.90625 25.59375 C 29.816406 25.800781 29.769531 26.015625 29.769531 26.230469 C 29.769531 26.4375 29.804688 26.617188 29.863281 26.777344 C 29.917969 26.9375 29.996094 27.074219 30.097656 27.199219 C 30.203125 27.324219 30.316406 27.425781 30.464844 27.515625 C 30.613281 27.621094 30.769531 27.710938 30.953125 27.800781 L 31.566406 28.109375 C 31.828125 28.234375 32.011719 28.371094 32.113281 28.507812 C 32.203125 28.644531 32.25 28.789062 32.25 28.9375 C 32.25 29.164062 32.160156 29.335938 31.976562 29.449219 C 31.792969 29.574219 31.542969 29.632812 31.238281 29.632812 C 30.953125 29.632812 30.679688 29.585938 30.441406 29.484375 C 30.203125 29.394531 29.996094 29.300781 29.828125 29.222656 L 29.761719 30.246094 "/>
<path style=" stroke:none;fill-rule:nonzero;fill:rgb(13.729858%,12.159729%,12.548828%);fill-opacity:1;" d="M 35.777344 27.890625 L 39.109375 27.890625 L 39.109375 27.496094 C 39.109375 26.980469 39.050781 26.550781 38.949219 26.175781 C 38.847656 25.800781 38.699219 25.492188 38.507812 25.253906 C 38.3125 25.015625 38.074219 24.84375 37.8125 24.730469 C 37.539062 24.617188 37.242188 24.558594 36.925781 24.558594 C 36.5625 24.558594 36.230469 24.628906 35.949219 24.777344 C 35.652344 24.925781 35.402344 25.140625 35.207031 25.402344 C 35.015625 25.675781 34.855469 25.992188 34.753906 26.367188 C 34.652344 26.742188 34.59375 27.152344 34.59375 27.597656 C 34.59375 28.019531 34.652344 28.414062 34.753906 28.78125 C 34.855469 29.144531 35.003906 29.449219 35.21875 29.710938 C 35.425781 29.972656 35.6875 30.175781 36.003906 30.324219 C 36.324219 30.484375 36.699219 30.550781 37.117188 30.550781 C 37.480469 30.550781 37.8125 30.519531 38.097656 30.441406 C 38.382812 30.359375 38.609375 30.28125 38.800781 30.199219 L 38.746094 29.210938 C 38.597656 29.3125 38.402344 29.414062 38.175781 29.519531 C 37.9375 29.621094 37.652344 29.675781 37.3125 29.675781 C 36.765625 29.675781 36.378906 29.53125 36.140625 29.222656 C 35.902344 28.925781 35.777344 28.484375 35.777344 27.890625 "/>
<path style=" stroke:none;fill-rule:nonzero;fill:rgb(13.729858%,12.159729%,12.548828%);fill-opacity:1;" d="M 40.539062 30.472656 L 41.71875 30.472656 L 41.71875 21.945312 L 40.539062 21.945312 L 40.539062 30.472656 "/>
<path style=" stroke:none;fill-rule:nonzero;fill:rgb(13.729858%,12.159729%,12.548828%);fill-opacity:1;" d="M 21.011719 46.796875 L 24.84375 46.796875 L 24.84375 45.785156 L 22.238281 45.785156 L 22.238281 38.859375 L 21.011719 38.859375 L 21.011719 46.796875 "/>
<path style=" stroke:none;fill-rule:nonzero;fill:rgb(13.729858%,12.159729%,12.548828%);fill-opacity:1;" d="M 26.507812 39.871094 L 27.507812 39.871094 L 27.507812 38.679688 L 26.507812 38.679688 L 26.507812 39.871094 "/>
<path style=" stroke:none;fill-rule:nonzero;fill:rgb(13.729858%,12.159729%,12.548828%);fill-opacity:1;" d="M 28.371094 39.871094 L 29.371094 39.871094 L 29.371094 38.679688 L 28.371094 38.679688 L 28.371094 39.871094 "/>
<path style=" stroke:none;fill-rule:nonzero;fill:rgb(13.729858%,12.159729%,12.548828%);fill-opacity:1;" d="M 28.996094 46.796875 L 30.066406 46.796875 C 30.054688 46.695312 30.03125 46.546875 30.019531 46.375 C 30.007812 46.207031 29.996094 46.023438 29.996094 45.832031 L 29.996094 43.046875 C 29.996094 42.65625 29.964844 42.339844 29.882812 42.089844 C 29.804688 41.839844 29.679688 41.636719 29.53125 41.464844 C 29.40625 41.316406 29.203125 41.179688 28.929688 41.054688 C 28.65625 40.941406 28.304688 40.882812 27.859375 40.882812 C 27.484375 40.882812 27.15625 40.929688 26.871094 41.019531 C 26.585938 41.109375 26.324219 41.214844 26.109375 41.339844 L 26.199219 42.351562 C 26.347656 42.203125 26.5625 42.066406 26.847656 41.941406 C 27.121094 41.828125 27.417969 41.773438 27.746094 41.773438 C 28.167969 41.773438 28.460938 41.886719 28.644531 42.113281 C 28.734375 42.226562 28.804688 42.351562 28.839844 42.488281 C 28.871094 42.636719 28.882812 42.792969 28.882812 42.976562 L 28.882812 43.214844 L 28.460938 43.214844 C 27.519531 43.214844 26.789062 43.375 26.300781 43.679688 C 25.8125 44 25.5625 44.5 25.5625 45.183594 C 25.5625 45.457031 25.609375 45.695312 25.699219 45.910156 C 25.789062 46.125 25.914062 46.296875 26.074219 46.445312 C 26.222656 46.59375 26.40625 46.695312 26.609375 46.761719 C 26.8125 46.839844 27.03125 46.875 27.269531 46.875 C 27.699219 46.875 28.042969 46.785156 28.304688 46.605469 C 28.554688 46.433594 28.757812 46.230469 28.90625 46 L 28.929688 46 C 28.929688 46.035156 28.929688 46.09375 28.941406 46.171875 C 28.941406 46.25 28.941406 46.332031 28.953125 46.410156 C 28.964844 46.488281 28.964844 46.570312 28.972656 46.636719 C 28.984375 46.71875 28.984375 46.761719 28.996094 46.796875 "/>
<path style=" stroke:none;fill-rule:nonzero;fill:rgb(13.729858%,12.159729%,12.548828%);fill-opacity:1;" d="M 31.640625 46.796875 L 32.820312 46.796875 L 32.820312 43.339844 C 32.820312 42.886719 32.910156 42.523438 33.105469 42.261719 C 33.289062 42 33.5625 41.871094 33.933594 41.871094 C 34.242188 41.871094 34.457031 41.976562 34.605469 42.179688 C 34.742188 42.386719 34.8125 42.714844 34.8125 43.171875 L 34.8125 46.796875 L 35.992188 46.796875 L 35.992188 42.898438 C 35.992188 42.28125 35.859375 41.792969 35.585938 41.429688 C 35.3125 41.066406 34.878906 40.882812 34.289062 40.882812 C 33.949219 40.882812 33.652344 40.964844 33.390625 41.136719 C 33.128906 41.304688 32.921875 41.542969 32.777344 41.851562 L 32.753906 41.851562 C 32.753906 41.816406 32.753906 41.75 32.753906 41.667969 C 32.742188 41.589844 32.742188 41.5 32.730469 41.40625 C 32.71875 41.316406 32.71875 41.226562 32.71875 41.148438 C 32.707031 41.066406 32.707031 40.996094 32.707031 40.964844 L 31.59375 40.964844 C 31.605469 41.136719 31.617188 41.316406 31.628906 41.5 C 31.640625 41.691406 31.640625 41.886719 31.640625 42.078125 L 31.640625 46.796875 "/>
<path style=" stroke:none;fill-rule:nonzero;fill:rgb(13.729858%,12.159729%,12.548828%);fill-opacity:1;" d="M 37.636719 47.855469 L 37.570312 48.957031 C 37.761719 49.035156 38.035156 49.113281 38.375 49.195312 C 38.71875 49.273438 39.070312 49.320312 39.421875 49.320312 C 40.285156 49.320312 40.933594 49.082031 41.367188 48.613281 C 41.796875 48.148438 42.015625 47.476562 42.015625 46.613281 L 42.015625 41.953125 C 42.015625 41.78125 42.027344 41.625 42.035156 41.453125 C 42.046875 41.28125 42.046875 41.121094 42.058594 40.964844 L 40.96875 40.964844 C 40.96875 40.996094 40.96875 41.066406 40.96875 41.148438 C 40.957031 41.226562 40.957031 41.316406 40.945312 41.40625 C 40.933594 41.5 40.933594 41.578125 40.933594 41.65625 C 40.921875 41.738281 40.921875 41.804688 40.921875 41.839844 L 40.890625 41.839844 C 40.742188 41.578125 40.546875 41.351562 40.308594 41.15625 C 40.070312 40.976562 39.773438 40.882812 39.410156 40.882812 C 39.058594 40.882812 38.738281 40.953125 38.480469 41.097656 C 38.21875 41.246094 37.988281 41.441406 37.820312 41.703125 C 37.648438 41.964844 37.511719 42.28125 37.433594 42.648438 C 37.339844 43.023438 37.296875 43.429688 37.296875 43.886719 C 37.296875 44.433594 37.351562 44.886719 37.476562 45.261719 C 37.59375 45.636719 37.738281 45.945312 37.933594 46.171875 C 38.125 46.410156 38.34375 46.570312 38.582031 46.671875 C 38.820312 46.773438 39.070312 46.832031 39.320312 46.832031 C 39.71875 46.832031 40.035156 46.738281 40.273438 46.546875 C 40.515625 46.363281 40.707031 46.136719 40.855469 45.855469 L 40.878906 45.855469 L 40.878906 46.582031 C 40.878906 46.820312 40.855469 47.058594 40.808594 47.273438 C 40.753906 47.488281 40.671875 47.671875 40.558594 47.832031 C 40.433594 47.988281 40.273438 48.113281 40.070312 48.21875 C 39.867188 48.308594 39.601562 48.355469 39.296875 48.355469 C 38.976562 48.355469 38.671875 48.296875 38.363281 48.195312 C 38.058594 48.082031 37.820312 47.96875 37.636719 47.855469 "/>
<path style=" stroke:none;fill-rule:nonzero;fill:rgb(13.729858%,12.159729%,12.548828%);fill-opacity:1;" d="M 43.675781 47.855469 L 43.609375 48.957031 C 43.800781 49.035156 44.074219 49.113281 44.414062 49.195312 C 44.757812 49.273438 45.109375 49.320312 45.460938 49.320312 C 46.324219 49.320312 46.972656 49.082031 47.40625 48.613281 C 47.839844 48.148438 48.054688 47.476562 48.054688 46.613281 L 48.054688 41.953125 C 48.054688 41.78125 48.066406 41.625 48.078125 41.453125 C 48.089844 41.28125 48.089844 41.121094 48.097656 40.964844 L 47.007812 40.964844 C 47.007812 40.996094 47.007812 41.066406 47.007812 41.148438 C 46.996094 41.226562 46.996094 41.316406 46.984375 41.40625 C 46.972656 41.5 46.972656 41.578125 46.972656 41.65625 C 46.960938 41.738281 46.960938 41.804688 46.960938 41.839844 L 46.929688 41.839844 C 46.78125 41.578125 46.589844 41.351562 46.347656 41.15625 C 46.109375 40.976562 45.816406 40.882812 45.449219 40.882812 C 45.097656 40.882812 44.78125 40.953125 44.519531 41.097656 C 44.257812 41.246094 44.027344 41.441406 43.859375 41.703125 C 43.6875 41.964844 43.550781 42.28125 43.472656 42.648438 C 43.382812 43.023438 43.335938 43.429688 43.335938 43.886719 C 43.335938 44.433594 43.394531 44.886719 43.519531 45.261719 C 43.632812 45.636719 43.777344 45.945312 43.972656 46.171875 C 44.164062 46.410156 44.382812 46.570312 44.621094 46.671875 C 44.859375 46.773438 45.109375 46.832031 45.359375 46.832031 C 45.757812 46.832031 46.078125 46.738281 46.3125 46.546875 C 46.550781 46.363281 46.746094 46.136719 46.894531 45.855469 L 46.917969 45.855469 L 46.917969 46.582031 C 46.917969 46.820312 46.894531 47.058594 46.847656 47.273438 C 46.792969 47.488281 46.714844 47.671875 46.597656 47.832031 C 46.472656 47.988281 46.3125 48.113281 46.109375 48.21875 C 45.90625 48.308594 45.644531 48.355469 45.335938 48.355469 C 45.019531 48.355469 44.710938 48.296875 44.40625 48.195312 C 44.097656 48.082031 43.859375 47.96875 43.675781 47.855469 "/>
<path style=" stroke:none;fill-rule:nonzero;fill:rgb(13.729858%,12.159729%,12.548828%);fill-opacity:1;" d="M 52.8125 46.796875 L 53.878906 46.796875 C 53.871094 46.695312 53.847656 46.546875 53.835938 46.375 C 53.824219 46.207031 53.8125 46.023438 53.8125 45.832031 L 53.8125 43.046875 C 53.8125 42.65625 53.777344 42.339844 53.699219 42.089844 C 53.617188 41.839844 53.492188 41.636719 53.34375 41.464844 C 53.21875 41.316406 53.015625 41.179688 52.742188 41.054688 C 52.46875 40.941406 52.117188 40.882812 51.675781 40.882812 C 51.296875 40.882812 50.96875 40.929688 50.683594 41.019531 C 50.402344 41.109375 50.140625 41.214844 49.921875 41.339844 L 50.015625 42.351562 C 50.160156 42.203125 50.378906 42.066406 50.664062 41.941406 C 50.933594 41.828125 51.230469 41.773438 51.5625 41.773438 C 51.980469 41.773438 52.277344 41.886719 52.457031 42.113281 C 52.550781 42.226562 52.617188 42.351562 52.652344 42.488281 C 52.683594 42.636719 52.699219 42.792969 52.699219 42.976562 L 52.699219 43.214844 L 52.277344 43.214844 C 51.335938 43.214844 50.605469 43.375 50.117188 43.679688 C 49.628906 44 49.378906 44.5 49.378906 45.183594 C 49.378906 45.457031 49.421875 45.695312 49.515625 45.910156 C 49.605469 46.125 49.730469 46.296875 49.890625 46.445312 C 50.035156 46.59375 50.21875 46.695312 50.421875 46.761719 C 50.628906 46.839844 50.84375 46.875 51.082031 46.875 C 51.515625 46.875 51.855469 46.785156 52.117188 46.605469 C 52.367188 46.433594 52.574219 46.230469 52.71875 46 L 52.742188 46 C 52.742188 46.035156 52.742188 46.09375 52.753906 46.171875 C 52.753906 46.25 52.753906 46.332031 52.765625 46.410156 C 52.777344 46.488281 52.777344 46.570312 52.789062 46.636719 C 52.800781 46.71875 52.800781 46.761719 52.8125 46.796875 "/>
<path style=" stroke:none;fill-rule:nonzero;fill:rgb(13.729858%,12.159729%,12.548828%);fill-opacity:1;" d="M 55.324219 46.570312 C 55.507812 46.648438 55.734375 46.730469 56.019531 46.785156 C 56.292969 46.839844 56.597656 46.875 56.925781 46.875 C 57.589844 46.875 58.085938 46.71875 58.441406 46.386719 C 58.78125 46.058594 58.953125 45.636719 58.953125 45.113281 C 58.953125 44.761719 58.847656 44.480469 58.65625 44.261719 C 58.453125 44.046875 58.175781 43.832031 57.828125 43.636719 L 57.316406 43.351562 C 57.054688 43.203125 56.859375 43.078125 56.710938 42.957031 C 56.5625 42.839844 56.496094 42.679688 56.496094 42.488281 C 56.496094 42.28125 56.5625 42.113281 56.710938 41.988281 C 56.859375 41.859375 57.078125 41.804688 57.371094 41.804688 C 57.609375 41.804688 57.839844 41.828125 58.03125 41.871094 C 58.222656 41.929688 58.40625 41.988281 58.566406 42.054688 L 58.621094 41.097656 C 58.496094 41.054688 58.328125 41.007812 58.097656 40.953125 C 57.859375 40.90625 57.589844 40.882812 57.28125 40.882812 C 56.984375 40.882812 56.722656 40.929688 56.484375 41.019531 C 56.246094 41.109375 56.039062 41.234375 55.871094 41.386719 C 55.699219 41.542969 55.5625 41.726562 55.472656 41.917969 C 55.382812 42.125 55.335938 42.339844 55.335938 42.554688 C 55.335938 42.761719 55.371094 42.945312 55.425781 43.101562 C 55.484375 43.261719 55.5625 43.398438 55.664062 43.523438 C 55.769531 43.648438 55.882812 43.75 56.03125 43.839844 C 56.175781 43.945312 56.335938 44.035156 56.519531 44.125 L 57.132812 44.433594 C 57.394531 44.558594 57.578125 44.695312 57.679688 44.832031 C 57.769531 44.96875 57.816406 45.113281 57.816406 45.261719 C 57.816406 45.488281 57.722656 45.660156 57.542969 45.773438 C 57.359375 45.898438 57.109375 45.957031 56.800781 45.957031 C 56.519531 45.957031 56.246094 45.910156 56.007812 45.808594 C 55.769531 45.71875 55.5625 45.625 55.394531 45.546875 L 55.324219 46.570312 "/>
<path style=" stroke:none;fill-rule:nonzero;fill:rgb(13.729858%,12.159729%,12.548828%);fill-opacity:1;" d="M 60.347656 46.570312 C 60.53125 46.648438 60.757812 46.730469 61.042969 46.785156 C 61.316406 46.839844 61.621094 46.875 61.953125 46.875 C 62.613281 46.875 63.109375 46.71875 63.464844 46.386719 C 63.804688 46.058594 63.976562 45.636719 63.976562 45.113281 C 63.976562 44.761719 63.871094 44.480469 63.679688 44.261719 C 63.476562 44.046875 63.203125 43.832031 62.851562 43.636719 L 62.339844 43.351562 C 62.078125 43.203125 61.886719 43.078125 61.734375 42.957031 C 61.589844 42.839844 61.519531 42.679688 61.519531 42.488281 C 61.519531 42.28125 61.589844 42.113281 61.734375 41.988281 C 61.886719 41.859375 62.101562 41.804688 62.394531 41.804688 C 62.636719 41.804688 62.863281 41.828125 63.054688 41.871094 C 63.246094 41.929688 63.429688 41.988281 63.589844 42.054688 L 63.644531 41.097656 C 63.523438 41.054688 63.351562 41.007812 63.121094 40.953125 C 62.882812 40.90625 62.613281 40.882812 62.304688 40.882812 C 62.007812 40.882812 61.746094 40.929688 61.507812 41.019531 C 61.269531 41.109375 61.066406 41.234375 60.894531 41.386719 C 60.722656 41.542969 60.585938 41.726562 60.496094 41.917969 C 60.40625 42.125 60.359375 42.339844 60.359375 42.554688 C 60.359375 42.761719 60.394531 42.945312 60.453125 43.101562 C 60.507812 43.261719 60.585938 43.398438 60.691406 43.523438 C 60.792969 43.648438 60.90625 43.75 61.054688 43.839844 C 61.203125 43.945312 61.359375 44.035156 61.542969 44.125 L 62.15625 44.433594 C 62.417969 44.558594 62.601562 44.695312 62.703125 44.832031 C 62.792969 44.96875 62.839844 45.113281 62.839844 45.261719 C 62.839844 45.488281 62.75 45.660156 62.566406 45.773438 C 62.386719 45.898438 62.132812 45.957031 61.828125 45.957031 C 61.542969 45.957031 61.269531 45.910156 61.03125 45.808594 C 60.792969 45.71875 60.585938 45.625 60.417969 45.546875 L 60.347656 46.570312 "/>
<path style=" stroke:none;fill-rule:nonzero;fill:rgb(13.729858%,12.159729%,12.548828%);fill-opacity:1;" d="M 66.367188 44.214844 L 69.699219 44.214844 L 69.699219 43.820312 C 69.699219 43.304688 69.640625 42.875 69.539062 42.5 C 69.4375 42.125 69.289062 41.816406 69.09375 41.578125 C 68.902344 41.339844 68.664062 41.167969 68.402344 41.054688 C 68.128906 40.941406 67.832031 40.882812 67.515625 40.882812 C 67.152344 40.882812 66.824219 40.953125 66.535156 41.097656 C 66.242188 41.246094 65.992188 41.464844 65.796875 41.726562 C 65.605469 42 65.445312 42.316406 65.34375 42.691406 C 65.242188 43.066406 65.183594 43.476562 65.183594 43.921875 C 65.183594 44.34375 65.242188 44.738281 65.34375 45.105469 C 65.445312 45.46875 65.59375 45.773438 65.808594 46.035156 C 66.015625 46.296875 66.277344 46.5 66.59375 46.648438 C 66.914062 46.804688 67.285156 46.875 67.707031 46.875 C 68.074219 46.875 68.402344 46.839844 68.6875 46.761719 C 68.96875 46.683594 69.199219 46.605469 69.390625 46.523438 L 69.335938 45.535156 C 69.1875 45.636719 68.992188 45.738281 68.765625 45.84375 C 68.527344 45.945312 68.242188 46 67.902344 46 C 67.355469 46 66.96875 45.855469 66.730469 45.546875 C 66.492188 45.25 66.367188 44.808594 66.367188 44.214844 "/>
<path style=" stroke:none;fill-rule:nonzero;fill:rgb(100%,100%,100%);fill-opacity:1;" d="M 31.25 11.585938 C 31.148438 11.390625 31.078125 11.175781 31.046875 10.914062 C 31 10.652344 30.976562 10.378906 30.976562 10.074219 C 30.976562 9.765625 31 9.492188 31.046875 9.230469 C 31.078125 8.96875 31.148438 8.753906 31.25 8.558594 C 31.351562 8.378906 31.476562 8.230469 31.636719 8.128906 C 31.785156 8.027344 31.976562 7.96875 32.207031 7.96875 C 32.433594 7.96875 32.625 8.027344 32.785156 8.128906 C 32.933594 8.230469 33.058594 8.378906 33.160156 8.558594 C 33.261719 8.753906 33.332031 8.96875 33.375 9.230469 C 33.410156 9.492188 33.433594 9.765625 33.433594 10.074219 C 33.433594 10.378906 33.410156 10.652344 33.375 10.914062 C 33.332031 11.175781 33.261719 11.390625 33.160156 11.585938 C 33.058594 11.777344 32.933594 11.925781 32.785156 12.027344 C 32.625 12.128906 32.433594 12.1875 32.207031 12.1875 C 31.976562 12.1875 31.785156 12.128906 31.636719 12.027344 C 31.476562 11.925781 31.351562 11.777344 31.25 11.585938 "/>
<path style=" stroke:none;fill-rule:nonzero;fill:rgb(100%,100%,100%);fill-opacity:1;" d="M 43.4375 11.59375 C 43.242188 11.222656 43.152344 10.710938 43.152344 10.074219 C 43.152344 9.425781 43.242188 8.914062 43.4375 8.535156 C 43.628906 8.164062 43.925781 7.980469 44.335938 7.980469 C 44.757812 7.980469 45.050781 8.164062 45.230469 8.515625 C 45.40625 8.878906 45.492188 9.390625 45.492188 10.050781 C 45.492188 10.765625 45.414062 11.289062 45.242188 11.640625 C 45.074219 11.996094 44.769531 12.175781 44.34375 12.175781 C 43.925781 12.175781 43.617188 11.984375 43.4375 11.59375 "/>
<path style=" stroke:none;fill-rule:nonzero;fill:rgb(100%,100%,100%);fill-opacity:1;" d="M 54.492188 11.585938 C 54.390625 11.390625 54.320312 11.175781 54.285156 10.914062 C 54.242188 10.652344 54.21875 10.378906 54.21875 10.074219 C 54.21875 9.765625 54.242188 9.492188 54.285156 9.230469 C 54.320312 8.96875 54.390625 8.753906 54.492188 8.558594 C 54.59375 8.378906 54.71875 8.230469 54.878906 8.128906 C 55.027344 8.027344 55.21875 7.96875 55.445312 7.96875 C 55.671875 7.96875 55.867188 8.027344 56.027344 8.128906 C 56.171875 8.230469 56.296875 8.378906 56.402344 8.558594 C 56.503906 8.753906 56.574219 8.96875 56.617188 9.230469 C 56.652344 9.492188 56.675781 9.765625 56.675781 10.074219 C 56.675781 10.378906 56.652344 10.652344 56.617188 10.914062 C 56.574219 11.175781 56.503906 11.390625 56.402344 11.585938 C 56.296875 11.777344 56.171875 11.925781 56.027344 12.027344 C 55.867188 12.128906 55.671875 12.1875 55.445312 12.1875 C 55.21875 12.1875 55.027344 12.128906 54.878906 12.027344 C 54.71875 11.925781 54.59375 11.777344 54.492188 11.585938 "/>
<path style=" stroke:none;fill-rule:nonzero;fill:rgb(100%,100%,100%);fill-opacity:1;" d="M 35.777344 27.085938 C 35.789062 26.550781 35.890625 26.128906 36.085938 25.835938 C 36.277344 25.550781 36.550781 25.402344 36.890625 25.402344 C 37.597656 25.402344 37.949219 25.960938 37.949219 27.085938 L 35.777344 27.085938 "/>
<path style=" stroke:none;fill-rule:nonzero;fill:rgb(100%,100%,100%);fill-opacity:1;" d="M 28.882812 43.945312 L 28.882812 44.46875 C 28.882812 44.929688 28.78125 45.308594 28.578125 45.59375 C 28.359375 45.886719 28.054688 46.035156 27.632812 46.035156 C 27.324219 46.035156 27.097656 45.945312 26.9375 45.773438 C 26.777344 45.601562 26.699219 45.363281 26.699219 45.082031 C 26.699219 44.695312 26.847656 44.410156 27.15625 44.214844 C 27.460938 44.023438 27.90625 43.933594 28.484375 43.933594 C 28.554688 43.933594 28.621094 43.933594 28.703125 43.933594 C 28.78125 43.933594 28.847656 43.933594 28.882812 43.945312 "/>
<path style=" stroke:none;fill-rule:nonzero;fill:rgb(100%,100%,100%);fill-opacity:1;" d="M 38.796875 45.421875 C 38.605469 45.09375 38.503906 44.570312 38.503906 43.851562 C 38.503906 43.179688 38.59375 42.679688 38.773438 42.328125 C 38.945312 41.988281 39.242188 41.816406 39.648438 41.804688 C 40.035156 41.804688 40.332031 41.976562 40.546875 42.316406 C 40.753906 42.65625 40.855469 43.171875 40.855469 43.839844 C 40.855469 44.546875 40.753906 45.070312 40.558594 45.410156 C 40.367188 45.761719 40.046875 45.933594 39.601562 45.933594 C 39.265625 45.933594 38.988281 45.761719 38.796875 45.421875 "/>
<path style=" stroke:none;fill-rule:nonzero;fill:rgb(100%,100%,100%);fill-opacity:1;" d="M 44.835938 45.421875 C 44.644531 45.09375 44.539062 44.570312 44.539062 43.851562 C 44.539062 43.179688 44.632812 42.679688 44.8125 42.328125 C 44.984375 41.988281 45.28125 41.816406 45.691406 41.804688 C 46.078125 41.804688 46.371094 41.976562 46.589844 42.316406 C 46.792969 42.65625 46.894531 43.171875 46.894531 43.839844 C 46.894531 44.546875 46.792969 45.070312 46.597656 45.410156 C 46.40625 45.761719 46.085938 45.933594 45.644531 45.933594 C 45.300781 45.933594 45.03125 45.761719 44.835938 45.421875 "/>
<path style=" stroke:none;fill-rule:nonzero;fill:rgb(100%,100%,100%);fill-opacity:1;" d="M 52.699219 43.945312 L 52.699219 44.46875 C 52.699219 44.929688 52.59375 45.308594 52.390625 45.59375 C 52.175781 45.886719 51.867188 46.035156 51.449219 46.035156 C 51.140625 46.035156 50.914062 45.945312 50.753906 45.773438 C 50.59375 45.601562 50.515625 45.363281 50.515625 45.082031 C 50.515625 44.695312 50.664062 44.410156 50.96875 44.214844 C 51.277344 44.023438 51.71875 43.933594 52.300781 43.933594 C 52.367188 43.933594 52.4375 43.933594 52.515625 43.933594 C 52.59375 43.933594 52.664062 43.933594 52.699219 43.945312 "/>
<path style=" stroke:none;fill-rule:nonzero;fill:rgb(100%,100%,100%);fill-opacity:1;" d="M 66.367188 43.40625 C 66.378906 42.875 66.480469 42.453125 66.671875 42.15625 C 66.867188 41.871094 67.140625 41.726562 67.480469 41.726562 C 68.1875 41.726562 68.539062 42.28125 68.539062 43.40625 L 66.367188 43.40625 "/>
</g>
</svg>
