<?xml version="1.0" encoding="UTF-8" standalone="no"?>
<svg
   xmlns:dc="http://purl.org/dc/elements/1.1/"
   xmlns:cc="http://creativecommons.org/ns#"
   xmlns:rdf="http://www.w3.org/1999/02/22-rdf-syntax-ns#"
   xmlns:svg="http://www.w3.org/2000/svg"
   xmlns="http://www.w3.org/2000/svg"
   xmlns:sodipodi="http://sodipodi.sourceforge.net/DTD/sodipodi-0.dtd"
   xmlns:inkscape="http://www.inkscape.org/namespaces/inkscape"
   width="80"
   height="54"
   version="1.1"
   id="svg742"
   sodipodi:docname="443.svg"
   inkscape:version="1.0.2 (e86c870879, 2021-01-15, custom)">
  <metadata
     id="metadata748">
    <rdf:RDF>
      <cc:Work
         rdf:about="">
        <dc:format>image/svg+xml</dc:format>
        <dc:type
           rdf:resource="http://purl.org/dc/dcmitype/StillImage" />
        <dc:title></dc:title>
      </cc:Work>
    </rdf:RDF>
  </metadata>
  <defs
     id="defs746" />
  <sodipodi:namedview
     pagecolor="#ffffff"
     bordercolor="#666666"
     borderopacity="1"
     objecttolerance="10"
     gridtolerance="10"
     guidetolerance="10"
     inkscape:pageopacity="0"
     inkscape:pageshadow="2"
     inkscape:window-width="1920"
     inkscape:window-height="1017"
     id="namedview744"
     showgrid="false"
     inkscape:zoom="5.6666667"
     inkscape:cx="47.407162"
     inkscape:cy="33.037885"
     inkscape:window-x="3832"
     inkscape:window-y="-8"
     inkscape:window-maximized="1"
     inkscape:current-layer="svg742" />
  <!-- Created with Method Draw - http://github.com/duopixel/Method-Draw/ -->
  <g
     id="g721">
    <title
       id="title715">background</title>
    <rect
       fill="#ffffff"
       opacity="0"
       id="canvas_background"
       height="602"
       width="891"
       y="-1"
       x="-1" />
    <g
       display="none"
       overflow="visible"
       y="0"
       x="0"
       height="100%"
       width="100%"
       id="canvasGrid">
      <rect
         fill="url(#gridpattern)"
         stroke-width="0"
         y="0"
         x="0"
         height="100%"
         width="100%"
         id="rect718" />
    </g>
  </g>
  <g
     id="g740"
     transform="matrix(0.11068324,0,0,0.11068324,-9.2727619,-5.5813261)">
    <title
       id="title723">Layer 1</title>
    <metadata
       transform="matrix(5.0624978542330155,0,0,5.0624978542330155,0,0) "
       id="svg_25">image/svg+xml</metadata>
    <g
       stroke="null"
       id="svg_27">
      <path
         fill="#211e1e"
         fill-rule="nonzero"
         id="svg_24"
         d="M 91.36975,515.35383 H 799.85246 V 82.42398 H 91.36975 Z m 0,0" />
      <path
         fill="#ffffff"
         fill-rule="nonzero"
         id="svg_23"
         d="M 243.53363,229.63046 V 88.45488 H 97.78546 v 141.17558 h 145.74817" />
      <path
         fill="#ffffff"
         fill-rule="nonzero"
         id="svg_22"
         d="M 97.82028,365.16426 H 243.56854 V 233.39172 H 97.82028 v 131.77254" />
      <path
         fill="#ffffff"
         fill-rule="nonzero"
         id="svg_21"
         d="M 243.56853,509.93891 V 368.76333 H 97.82027 v 141.17558 h 145.74826" />
      <path
         fill="#ffffff"
         fill-rule="nonzero"
         id="svg_20"
         d="m 247.40394,509.93891 h 546.5558 V 368.73088 h -546.5558 z m 0,0" />
      <path
         fill="#ffffff"
         fill-rule="nonzero"
         id="svg_19"
         d="M 247.29942,365.16426 H 793.85513 V 233.39172 H 247.29942 Z m 0,0" />
      <path
         fill="#ffffff"
         fill-rule="nonzero"
         id="svg_18"
         d="m 247.40394,229.63046 h 546.5558 V 88.45488 h -546.5558 z m 0,0" />
      <path
         fill="#211e1e"
         fill-rule="nonzero"
         id="svg_17"
         d="m 199.28616,125.062 -72.69975,-5.1879 c -2.47568,-0.19457 -4.53282,1.71848 -4.32368,4.02058 l 5.57888,67.6372 c 0.13952,1.6212 1.39472,2.983 3.10328,3.37213 1.70848,0.35668 3.48675,-0.32422 4.39339,-1.75094 l 18.75896,-29.01976 38.63369,41.24377 21.47868,-19.9734 -44.3869,-35.92622 31.24172,-17.44428 c 1.49933,-0.81064 2.26636,-2.46429 1.84799,-4.08549 -0.38356,-1.58874 -1.84799,-2.75606 -3.62627,-2.88571" />
      <path
         fill="#211e1e"
         fill-rule="nonzero"
         id="svg_16"
         d="m 218.11483,299.60221 -47.45528,-51.45745 c -1.63885,-1.75094 -4.53282,-1.75094 -6.17167,0 l -47.45528,51.45745 c -1.15068,1.26452 -1.29019,3.04791 -0.34875,4.44217 0.90663,1.39417 2.71973,2.07516 4.39339,1.68602 l 35.35617,-8.20335 -4.04473,54.57018 h 30.37008 l -4.04473,-54.57018 35.35617,8.20335 c 1.70857,0.38905 3.48675,-0.29185 4.39339,-1.68602 0.94145,-1.39426 0.80193,-3.17765 -0.34866,-4.44217" />
      <path
         fill="#211e1e"
         fill-rule="nonzero"
         id="svg_15"
         d="m 209.74651,468.88971 5.57888,-67.60475 c 0.20923,-2.3021 -1.84799,-4.21514 -4.32359,-4.05303 l -72.73466,5.22027 c -1.74338,0.12974 -3.20781,1.29697 -3.62627,2.8858 -0.38356,1.58882 0.34866,3.24248 1.88289,4.08549 l 31.20682,17.44428 -44.35209,35.92622 21.47868,19.9734 38.63378,-41.27622 18.72406,29.05221 c 0.90663,1.39426 2.71973,2.10761 4.42829,1.71848 1.70848,-0.35668 2.96377,-1.71848 3.1032,-3.37213" />
    </g>
    <text
       xml:space="preserve"
       text-anchor="start"
       font-family="sans-serif"
       font-size="50px"
       id="svg_29"
       y="181.1111"
       x="280"
       stroke-width="0"
       stroke="#000000"
       fill="#000000">param(text1)</text>
    <text
       xml:space="preserve"
       text-anchor="start"
       font-family="sans-serif"
       font-size="50px"
       id="svg_30"
       y="316.66669"
       x="280"
       stroke-width="0"
       stroke="#000000"
       fill="#000000">param(text2)</text>
    <text
       xml:space="preserve"
       text-anchor="start"
       font-family="sans-serif"
       font-size="50px"
       id="svg_31"
       y="463.3334"
       x="280"
       stroke-width="0"
       stroke="#000000"
       fill="#000000">param(text3)</text>
  </g>
</svg>
