<?xml version="1.0" encoding="UTF-8"?>
<svg xmlns="http://www.w3.org/2000/svg" xmlns:xlink="http://www.w3.org/1999/xlink" width="122pt" height="108pt" viewBox="0 0 122 108" version="1.1">
<g id="surface1">
<path style=" stroke:none;fill-rule:nonzero;fill:rgb(10.112%,40.585327%,73.280334%);fill-opacity:1;" d="M 0.238281 107.898438 L 121.414062 107.898438 L 121.414062 0.183594 L 0.238281 0.183594 Z M 0.238281 107.898438 "/>
<path style=" stroke:none;fill-rule:nonzero;fill:rgb(100%,100%,100%);fill-opacity:1;" d="M 112.636719 2.191406 C 116.375 2.191406 119.367188 5.222656 119.367188 8.957031 L 119.367188 99.125 C 119.367188 102.859375 116.375 105.855469 112.636719 105.855469 L 9.011719 105.855469 C 5.3125 105.855469 2.246094 102.859375 2.28125 99.125 L 2.28125 8.957031 C 2.246094 5.222656 5.277344 2.191406 9.011719 2.191406 L 112.636719 2.191406 "/>
<path style=" stroke:none;fill-rule:nonzero;fill:rgb(10.112%,40.585327%,73.280334%);fill-opacity:1;" d="M 112.636719 4.234375 L 9.011719 4.234375 C 6.402344 4.234375 4.289062 6.347656 4.289062 8.957031 L 4.289062 99.125 C 4.289062 101.730469 6.402344 103.847656 8.976562 103.847656 L 112.636719 103.847656 C 115.246094 103.847656 117.359375 101.730469 117.359375 99.125 L 117.359375 8.957031 C 117.359375 6.347656 115.246094 4.234375 112.636719 4.234375 "/>
<path style=" stroke:none;fill-rule:nonzero;fill:rgb(100%,100%,100%);fill-opacity:1;" d="M 37.941406 21.046875 L 39.648438 21.046875 L 39.648438 10.949219 L 39.679688 10.949219 L 42.734375 21.046875 L 44.046875 21.046875 L 47.238281 10.949219 L 47.273438 10.949219 L 47.273438 21.046875 L 48.976562 21.046875 L 48.976562 9.144531 L 46.265625 9.144531 L 43.484375 18.320312 L 43.449219 18.320312 L 40.738281 9.144531 L 37.941406 9.144531 L 37.941406 21.046875 "/>
<path style=" stroke:none;fill-rule:nonzero;fill:rgb(100%,100%,100%);fill-opacity:1;" d="M 56.257812 21.046875 L 57.925781 21.046875 C 57.910156 20.792969 57.894531 20.519531 57.875 20.230469 C 57.859375 19.957031 57.859375 19.667969 57.859375 19.378906 L 57.859375 12.296875 L 56.085938 12.296875 L 56.085938 17.429688 C 56.085938 18.113281 55.949219 18.660156 55.691406 19.070312 C 55.4375 19.480469 55.011719 19.683594 54.445312 19.683594 C 53.984375 19.683594 53.660156 19.53125 53.441406 19.222656 C 53.21875 18.917969 53.097656 18.421875 53.097656 17.738281 L 53.097656 12.296875 L 51.328125 12.296875 L 51.328125 18.148438 C 51.328125 19.070312 51.53125 19.804688 51.941406 20.347656 C 52.347656 20.894531 52.996094 21.164062 53.882812 21.164062 C 54.480469 21.164062 54.957031 21.03125 55.316406 20.742188 C 55.65625 20.46875 55.929688 20.128906 56.152344 19.71875 L 56.1875 19.71875 L 56.257812 21.046875 "/>
<path style=" stroke:none;fill-rule:nonzero;fill:rgb(100%,100%,100%);fill-opacity:1;" d="M 60.445312 21.046875 L 62.21875 21.046875 L 62.21875 16.339844 C 62.21875 15.898438 62.269531 15.523438 62.371094 15.199219 C 62.472656 14.875 62.609375 14.617188 62.78125 14.414062 C 62.953125 14.226562 63.15625 14.074219 63.378906 13.96875 C 63.601562 13.886719 63.824219 13.832031 64.078125 13.832031 C 64.179688 13.832031 64.28125 13.832031 64.367188 13.851562 C 64.453125 13.867188 64.554688 13.886719 64.644531 13.902344 L 64.644531 12.195312 C 64.605469 12.195312 64.574219 12.195312 64.554688 12.179688 C 64.539062 12.179688 64.507812 12.179688 64.46875 12.179688 C 64.148438 12.179688 63.855469 12.214844 63.601562 12.296875 C 63.347656 12.382812 63.140625 12.503906 62.953125 12.65625 C 62.765625 12.808594 62.59375 12.980469 62.460938 13.167969 C 62.324219 13.355469 62.203125 13.5625 62.117188 13.78125 L 62.082031 13.78125 C 62.082031 13.714844 62.082031 13.609375 62.082031 13.472656 C 62.066406 13.339844 62.066406 13.183594 62.046875 13.03125 C 62.03125 12.878906 62.03125 12.742188 62.03125 12.605469 C 62.015625 12.46875 62.015625 12.367188 62.015625 12.296875 L 60.378906 12.296875 C 60.394531 12.554688 60.410156 12.828125 60.429688 13.101562 C 60.445312 13.390625 60.445312 13.679688 60.445312 13.96875 L 60.445312 21.046875 "/>
<path style=" stroke:none;fill-rule:nonzero;fill:rgb(100%,100%,100%);fill-opacity:1;" d="M 70.890625 20.910156 L 70.890625 19.582031 C 70.773438 19.632812 70.652344 19.683594 70.515625 19.71875 C 70.378906 19.769531 70.226562 19.785156 70.039062 19.785156 C 69.714844 19.785156 69.492188 19.683594 69.339844 19.496094 C 69.183594 19.308594 69.117188 18.984375 69.117188 18.507812 L 69.117188 13.664062 L 70.890625 13.664062 L 70.890625 12.296875 L 69.117188 12.296875 L 69.117188 9.976562 L 67.34375 10.507812 L 67.34375 12.296875 L 65.945312 12.296875 L 65.945312 13.664062 L 67.34375 13.664062 L 67.34375 18.863281 C 67.34375 19.703125 67.53125 20.296875 67.921875 20.640625 C 68.316406 20.996094 68.859375 21.164062 69.578125 21.164062 C 69.832031 21.164062 70.089844 21.148438 70.3125 21.097656 C 70.53125 21.03125 70.738281 20.980469 70.890625 20.910156 "/>
<path style=" stroke:none;fill-rule:nonzero;fill:rgb(100%,100%,100%);fill-opacity:1;" d="M 74.117188 17.175781 L 79.113281 17.175781 L 79.113281 16.578125 C 79.113281 15.8125 79.03125 15.164062 78.875 14.601562 C 78.71875 14.039062 78.5 13.578125 78.210938 13.21875 C 77.921875 12.859375 77.5625 12.605469 77.167969 12.433594 C 76.761719 12.265625 76.316406 12.179688 75.839844 12.179688 C 75.292969 12.179688 74.796875 12.28125 74.371094 12.503906 C 73.929688 12.722656 73.550781 13.046875 73.265625 13.441406 C 72.972656 13.851562 72.734375 14.328125 72.582031 14.890625 C 72.429688 15.453125 72.34375 16.066406 72.34375 16.734375 C 72.34375 17.363281 72.429688 17.960938 72.582031 18.507812 C 72.734375 19.054688 72.957031 19.511719 73.28125 19.90625 C 73.589844 20.296875 73.980469 20.605469 74.457031 20.828125 C 74.933594 21.0625 75.496094 21.164062 76.128906 21.164062 C 76.675781 21.164062 77.167969 21.113281 77.597656 20.996094 C 78.023438 20.878906 78.363281 20.757812 78.652344 20.640625 L 78.570312 19.15625 C 78.347656 19.308594 78.058594 19.460938 77.714844 19.617188 C 77.355469 19.769531 76.929688 19.855469 76.417969 19.855469 C 75.601562 19.855469 75.019531 19.632812 74.660156 19.171875 C 74.304688 18.730469 74.117188 18.0625 74.117188 17.175781 "/>
<path style=" stroke:none;fill-rule:nonzero;fill:rgb(100%,100%,100%);fill-opacity:1;" d="M 81.210938 21.046875 L 82.984375 21.046875 L 82.984375 15.863281 C 82.984375 15.179688 83.121094 14.636719 83.410156 14.242188 C 83.683594 13.851562 84.09375 13.664062 84.65625 13.664062 C 85.117188 13.664062 85.441406 13.816406 85.660156 14.121094 C 85.867188 14.429688 85.96875 14.925781 85.96875 15.605469 L 85.96875 21.046875 L 87.742188 21.046875 L 87.742188 15.199219 C 87.742188 14.277344 87.539062 13.542969 87.128906 12.996094 C 86.71875 12.453125 86.074219 12.179688 85.183594 12.179688 C 84.671875 12.179688 84.230469 12.296875 83.839844 12.554688 C 83.445312 12.808594 83.136719 13.167969 82.914062 13.628906 L 82.882812 13.628906 C 82.882812 13.578125 82.882812 13.472656 82.882812 13.355469 C 82.863281 13.238281 82.863281 13.101562 82.847656 12.964844 C 82.832031 12.828125 82.832031 12.691406 82.832031 12.570312 C 82.8125 12.453125 82.8125 12.351562 82.8125 12.296875 L 81.144531 12.296875 C 81.160156 12.554688 81.175781 12.828125 81.195312 13.101562 C 81.210938 13.390625 81.210938 13.679688 81.210938 13.96875 L 81.210938 21.046875 "/>
<path style=" stroke:none;fill-rule:nonzero;fill:rgb(100%,100%,100%);fill-opacity:1;" d="M 33.886719 61.8125 L 34.765625 58.148438 C 34.871094 57.757812 34.414062 57.476562 34.097656 57.757812 L 27.15625 64.03125 C 26.980469 64.171875 26.980469 64.453125 27.15625 64.628906 L 34.097656 70.902344 C 34.414062 71.148438 34.871094 70.902344 34.765625 70.515625 L 33.886719 66.847656 L 46.710938 66.847656 C 47.804688 74.144531 53.511719 79.851562 60.808594 80.945312 L 60.808594 97.117188 L 65.882812 97.117188 L 65.882812 80.945312 C 73.140625 79.816406 78.882812 74.144531 79.972656 66.847656 L 92.800781 66.847656 L 91.917969 70.515625 C 91.8125 70.902344 92.273438 71.148438 92.589844 70.902344 L 99.53125 64.628906 C 99.707031 64.453125 99.707031 64.171875 99.53125 64.03125 L 92.589844 57.757812 C 92.273438 57.476562 91.8125 57.757812 91.917969 58.148438 L 92.800781 61.8125 L 79.972656 61.8125 C 78.882812 54.515625 73.171875 48.773438 65.882812 47.679688 L 65.882812 34.890625 L 69.511719 35.738281 C 69.898438 35.84375 70.179688 35.382812 69.933594 35.101562 L 63.660156 28.125 C 63.484375 27.949219 63.203125 27.949219 63.0625 28.125 L 56.789062 35.101562 C 56.507812 35.382812 56.789062 35.84375 57.175781 35.738281 L 60.808594 34.890625 L 60.808594 47.679688 C 53.546875 48.773438 47.804688 54.515625 46.710938 61.8125 L 33.886719 61.8125 "/>
<path style=" stroke:none;fill-rule:nonzero;fill:rgb(100%,100%,100%);fill-opacity:1;" d="M 9.328125 57.054688 L 29.515625 57.054688 L 29.515625 36.863281 L 9.328125 36.863281 Z M 9.328125 57.054688 "/>
<path style=" stroke:none;fill-rule:nonzero;fill:rgb(100%,100%,100%);fill-opacity:1;" d="M 9.328125 87.007812 L 12.570312 87.007812 C 13.167969 87.007812 13.695312 86.921875 14.15625 86.753906 C 14.613281 86.597656 14.992188 86.359375 15.316406 86.070312 C 15.640625 85.78125 15.878906 85.421875 16.046875 85.015625 C 16.203125 84.621094 16.285156 84.175781 16.285156 83.699219 C 16.285156 83.238281 16.21875 82.847656 16.097656 82.488281 C 15.964844 82.148438 15.792969 81.855469 15.589844 81.621094 C 15.367188 81.398438 15.128906 81.210938 14.871094 81.074219 C 14.597656 80.9375 14.324219 80.851562 14.054688 80.800781 L 14.054688 80.765625 C 14.308594 80.679688 14.546875 80.578125 14.785156 80.425781 C 15.007812 80.289062 15.214844 80.117188 15.398438 79.898438 C 15.589844 79.675781 15.722656 79.417969 15.84375 79.109375 C 15.964844 78.824219 16.015625 78.464844 16.015625 78.070312 C 16.015625 77.113281 15.742188 76.382812 15.195312 75.871094 C 14.632812 75.359375 13.761719 75.101562 12.570312 75.101562 L 9.328125 75.101562 L 9.328125 87.007812 "/>
<path style=" stroke:none;fill-rule:nonzero;fill:rgb(100%,100%,100%);fill-opacity:1;" d="M 19.957031 83.136719 L 24.953125 83.136719 L 24.953125 82.539062 C 24.953125 81.773438 24.871094 81.125 24.714844 80.5625 C 24.5625 79.996094 24.339844 79.535156 24.050781 79.179688 C 23.761719 78.824219 23.402344 78.566406 23.011719 78.394531 C 22.601562 78.222656 22.15625 78.140625 21.679688 78.140625 C 21.132812 78.140625 20.640625 78.242188 20.210938 78.464844 C 19.769531 78.683594 19.394531 79.007812 19.101562 79.402344 C 18.816406 79.8125 18.574219 80.289062 18.421875 80.851562 C 18.269531 81.414062 18.183594 82.027344 18.183594 82.695312 C 18.183594 83.324219 18.269531 83.921875 18.421875 84.46875 C 18.574219 85.015625 18.796875 85.472656 19.121094 85.867188 C 19.425781 86.257812 19.820312 86.566406 20.296875 86.789062 C 20.777344 87.023438 21.339844 87.125 21.96875 87.125 C 22.515625 87.125 23.011719 87.078125 23.4375 86.957031 C 23.863281 86.839844 24.203125 86.71875 24.492188 86.597656 L 24.410156 85.117188 C 24.1875 85.269531 23.898438 85.421875 23.554688 85.578125 C 23.199219 85.730469 22.773438 85.816406 22.257812 85.816406 C 21.441406 85.816406 20.859375 85.59375 20.503906 85.132812 C 20.144531 84.691406 19.957031 84.023438 19.957031 83.136719 "/>
<path style=" stroke:none;fill-rule:nonzero;fill:rgb(100%,100%,100%);fill-opacity:1;" d="M 27.050781 87.007812 L 28.824219 87.007812 L 28.824219 82.300781 C 28.824219 81.855469 28.875 81.484375 28.976562 81.160156 C 29.082031 80.835938 29.21875 80.578125 29.386719 80.375 C 29.558594 80.1875 29.761719 80.03125 29.984375 79.929688 C 30.207031 79.84375 30.425781 79.792969 30.683594 79.792969 C 30.785156 79.792969 30.890625 79.792969 30.972656 79.8125 C 31.058594 79.828125 31.160156 79.84375 31.246094 79.863281 L 31.246094 78.15625 C 31.210938 78.15625 31.179688 78.15625 31.160156 78.140625 C 31.144531 78.140625 31.109375 78.140625 31.074219 78.140625 C 30.753906 78.140625 30.460938 78.171875 30.207031 78.257812 C 29.953125 78.34375 29.746094 78.464844 29.558594 78.617188 C 29.371094 78.769531 29.199219 78.941406 29.0625 79.128906 C 28.925781 79.316406 28.808594 79.523438 28.722656 79.742188 L 28.6875 79.742188 C 28.6875 79.675781 28.6875 79.574219 28.6875 79.433594 C 28.671875 79.300781 28.671875 79.144531 28.652344 78.992188 C 28.636719 78.839844 28.636719 78.703125 28.636719 78.566406 C 28.621094 78.429688 28.621094 78.328125 28.621094 78.257812 L 26.984375 78.257812 C 27 78.515625 27.015625 78.785156 27.035156 79.058594 C 27.050781 79.351562 27.050781 79.640625 27.050781 79.929688 L 27.050781 87.007812 "/>
<path style=" stroke:none;fill-rule:nonzero;fill:rgb(100%,100%,100%);fill-opacity:1;" d="M 32.738281 87.007812 L 34.511719 87.007812 L 34.511719 81.824219 C 34.511719 81.140625 34.648438 80.59375 34.941406 80.203125 C 35.210938 79.8125 35.621094 79.625 36.183594 79.625 C 36.644531 79.625 36.96875 79.777344 37.191406 80.082031 C 37.394531 80.390625 37.496094 80.886719 37.496094 81.570312 L 37.496094 87.007812 L 39.269531 87.007812 L 39.269531 81.160156 C 39.269531 80.238281 39.066406 79.503906 38.65625 78.960938 C 38.25 78.414062 37.601562 78.140625 36.714844 78.140625 C 36.199219 78.140625 35.757812 78.257812 35.367188 78.515625 C 34.972656 78.769531 34.664062 79.128906 34.445312 79.589844 L 34.410156 79.589844 C 34.410156 79.535156 34.410156 79.433594 34.410156 79.316406 C 34.394531 79.199219 34.394531 79.058594 34.375 78.921875 C 34.359375 78.785156 34.359375 78.652344 34.359375 78.53125 C 34.34375 78.414062 34.34375 78.308594 34.34375 78.257812 L 32.671875 78.257812 C 32.6875 78.515625 32.703125 78.785156 32.722656 79.058594 C 32.738281 79.351562 32.738281 79.640625 32.738281 79.929688 L 32.738281 87.007812 "/>
<path style=" stroke:none;fill-rule:nonzero;fill:rgb(100%,100%,100%);fill-opacity:1;" d="M 86.074219 87.007812 L 89.3125 87.007812 C 89.910156 87.007812 90.4375 86.921875 90.898438 86.753906 C 91.359375 86.597656 91.734375 86.359375 92.058594 86.070312 C 92.382812 85.78125 92.621094 85.421875 92.789062 85.015625 C 92.945312 84.621094 93.03125 84.175781 93.03125 83.699219 C 93.03125 83.238281 92.964844 82.847656 92.84375 82.488281 C 92.707031 82.148438 92.535156 81.855469 92.332031 81.621094 C 92.109375 81.398438 91.871094 81.210938 91.613281 81.074219 C 91.34375 80.9375 91.070312 80.851562 90.796875 80.800781 L 90.796875 80.765625 C 91.050781 80.679688 91.289062 80.578125 91.53125 80.425781 C 91.753906 80.289062 91.957031 80.117188 92.144531 79.898438 C 92.332031 79.675781 92.46875 79.417969 92.585938 79.109375 C 92.707031 78.824219 92.757812 78.464844 92.757812 78.070312 C 92.757812 77.113281 92.484375 76.382812 91.9375 75.871094 C 91.375 75.359375 90.507812 75.101562 89.3125 75.101562 L 86.074219 75.101562 L 86.074219 87.007812 "/>
<path style=" stroke:none;fill-rule:nonzero;fill:rgb(100%,100%,100%);fill-opacity:1;" d="M 95.15625 87.007812 L 96.929688 87.007812 L 96.929688 78.257812 L 95.15625 78.257812 L 95.15625 87.007812 "/>
<path style=" stroke:none;fill-rule:nonzero;fill:rgb(100%,100%,100%);fill-opacity:1;" d="M 95.105469 76.503906 L 96.980469 76.503906 L 96.980469 74.609375 L 95.105469 74.609375 L 95.105469 76.503906 "/>
<path style=" stroke:none;fill-rule:nonzero;fill:rgb(100%,100%,100%);fill-opacity:1;" d="M 100.753906 83.136719 L 105.75 83.136719 L 105.75 82.539062 C 105.75 81.773438 105.664062 81.125 105.511719 80.5625 C 105.355469 79.996094 105.136719 79.535156 104.847656 79.179688 C 104.554688 78.824219 104.195312 78.566406 103.804688 78.394531 C 103.394531 78.222656 102.953125 78.140625 102.476562 78.140625 C 101.929688 78.140625 101.433594 78.242188 101.007812 78.464844 C 100.5625 78.683594 100.1875 79.007812 99.898438 79.402344 C 99.609375 79.8125 99.371094 80.289062 99.21875 80.851562 C 99.066406 81.414062 98.980469 82.027344 98.980469 82.695312 C 98.980469 83.324219 99.066406 83.921875 99.21875 84.46875 C 99.371094 85.015625 99.59375 85.472656 99.914062 85.867188 C 100.222656 86.257812 100.617188 86.566406 101.09375 86.789062 C 101.570312 87.023438 102.132812 87.125 102.765625 87.125 C 103.3125 87.125 103.804688 87.078125 104.230469 86.957031 C 104.65625 86.839844 105 86.71875 105.289062 86.597656 L 105.203125 85.117188 C 104.980469 85.269531 104.691406 85.421875 104.351562 85.578125 C 103.992188 85.730469 103.566406 85.816406 103.054688 85.816406 C 102.234375 85.816406 101.65625 85.59375 101.296875 85.132812 C 100.941406 84.691406 100.753906 84.023438 100.753906 83.136719 "/>
<path style=" stroke:none;fill-rule:nonzero;fill:rgb(100%,100%,100%);fill-opacity:1;" d="M 107.894531 87.007812 L 109.664062 87.007812 L 109.664062 74.21875 L 107.894531 74.21875 L 107.894531 87.007812 "/>
<path style=" stroke:none;fill-rule:nonzero;fill:rgb(10.112%,40.585327%,73.280334%);fill-opacity:1;" d="M 75.113281 64.3125 C 75.148438 48.632812 51.539062 48.632812 51.574219 64.3125 C 51.539062 80.027344 75.148438 80.027344 75.113281 64.3125 "/>
<path style=" stroke:none;fill-rule:nonzero;fill:rgb(10.112%,40.585327%,73.280334%);fill-opacity:1;" d="M 60.808594 77.5625 C 55.382812 76.503906 51.152344 72.277344 50.132812 66.847656 L 48.40625 66.847656 C 49.496094 73.191406 54.464844 78.195312 60.808594 79.253906 L 60.808594 77.5625 "/>
<path style=" stroke:none;fill-rule:nonzero;fill:rgb(10.112%,40.585327%,73.280334%);fill-opacity:1;" d="M 74.117188 15.964844 C 74.132812 15.164062 74.285156 14.53125 74.578125 14.089844 C 74.867188 13.664062 75.277344 13.441406 75.789062 13.441406 C 76.847656 13.441406 77.375 14.277344 77.375 15.964844 L 74.117188 15.964844 "/>
<path style=" stroke:none;fill-rule:nonzero;fill:rgb(10.112%,40.585327%,73.280334%);fill-opacity:1;" d="M 11.136719 80.167969 L 11.136719 76.519531 L 12.246094 76.519531 C 12.910156 76.519531 13.40625 76.671875 13.726562 76.996094 C 14.054688 77.320312 14.207031 77.746094 14.207031 78.257812 C 14.207031 78.824219 14.035156 79.28125 13.695312 79.640625 C 13.335938 79.996094 12.824219 80.167969 12.144531 80.167969 L 11.136719 80.167969 "/>
<path style=" stroke:none;fill-rule:nonzero;fill:rgb(10.112%,40.585327%,73.280334%);fill-opacity:1;" d="M 11.136719 85.558594 L 11.136719 81.585938 L 12.433594 81.585938 C 12.789062 81.585938 13.082031 81.636719 13.335938 81.738281 C 13.59375 81.84375 13.796875 81.976562 13.96875 82.164062 C 14.121094 82.351562 14.242188 82.558594 14.324219 82.796875 C 14.410156 83.035156 14.445312 83.289062 14.445312 83.582031 C 14.445312 84.144531 14.277344 84.621094 13.933594 84.996094 C 13.59375 85.371094 13.082031 85.558594 12.382812 85.558594 L 11.136719 85.558594 "/>
<path style=" stroke:none;fill-rule:nonzero;fill:rgb(10.112%,40.585327%,73.280334%);fill-opacity:1;" d="M 19.957031 81.925781 C 19.972656 81.125 20.128906 80.492188 20.417969 80.050781 C 20.707031 79.625 21.117188 79.402344 21.628906 79.402344 C 22.6875 79.402344 23.214844 80.238281 23.214844 81.925781 L 19.957031 81.925781 "/>
<path style=" stroke:none;fill-rule:nonzero;fill:rgb(10.112%,40.585327%,73.280334%);fill-opacity:1;" d="M 87.878906 80.167969 L 87.878906 76.519531 L 88.988281 76.519531 C 89.652344 76.519531 90.148438 76.671875 90.472656 76.996094 C 90.796875 77.320312 90.949219 77.746094 90.949219 78.257812 C 90.949219 78.824219 90.78125 79.28125 90.4375 79.640625 C 90.082031 79.996094 89.570312 80.167969 88.886719 80.167969 L 87.878906 80.167969 "/>
<path style=" stroke:none;fill-rule:nonzero;fill:rgb(10.112%,40.585327%,73.280334%);fill-opacity:1;" d="M 87.878906 85.558594 L 87.878906 81.585938 L 89.175781 81.585938 C 89.535156 81.585938 89.824219 81.636719 90.082031 81.738281 C 90.335938 81.84375 90.539062 81.976562 90.710938 82.164062 C 90.863281 82.351562 90.984375 82.558594 91.070312 82.796875 C 91.15625 83.035156 91.1875 83.289062 91.1875 83.582031 C 91.1875 84.144531 91.019531 84.621094 90.675781 84.996094 C 90.335938 85.371094 89.824219 85.558594 89.125 85.558594 L 87.878906 85.558594 "/>
<path style=" stroke:none;fill-rule:nonzero;fill:rgb(10.112%,40.585327%,73.280334%);fill-opacity:1;" d="M 100.753906 81.925781 C 100.769531 81.125 100.921875 80.492188 101.214844 80.050781 C 101.503906 79.625 101.910156 79.402344 102.425781 79.402344 C 103.480469 79.402344 104.011719 80.238281 104.011719 81.925781 L 100.753906 81.925781 "/>
<path style=" stroke:none;fill-rule:nonzero;fill:rgb(0%,49.674988%,27.331543%);fill-opacity:1;" d="M 9.890625 56.488281 L 28.953125 56.488281 L 28.953125 37.460938 L 9.890625 37.460938 Z M 9.890625 56.488281 "/>
<path style=" stroke:none;fill-rule:nonzero;fill:rgb(100%,100%,100%);fill-opacity:1;" d="M 20.003906 39.753906 L 20.425781 39.753906 L 21.941406 43.207031 L 20.109375 43.207031 L 20.003906 39.753906 "/>
<path style=" stroke:none;fill-rule:nonzero;fill:rgb(100%,100%,100%);fill-opacity:1;" d="M 12.214844 43.804688 L 26.628906 43.804688 L 26.628906 44.652344 L 24.902344 44.652344 L 24.902344 45.8125 L 23.984375 45.8125 L 23.457031 44.652344 L 15.386719 44.652344 L 14.859375 45.8125 L 13.941406 45.8125 L 13.941406 44.652344 L 12.214844 44.652344 L 12.214844 43.804688 "/>
<path style=" stroke:none;fill-rule:nonzero;fill:rgb(100%,100%,100%);fill-opacity:1;" d="M 16.9375 43.207031 L 18.734375 43.207031 L 18.84375 39.753906 L 18.417969 39.753906 L 16.9375 43.207031 "/>
<path style=" stroke:none;fill-rule:nonzero;fill:rgb(100%,100%,100%);fill-opacity:1;" d="M 18.664062 45.53125 L 18.417969 54.164062 L 12.214844 54.164062 L 15.953125 45.53125 L 18.664062 45.53125 "/>
<path style=" stroke:none;fill-rule:nonzero;fill:rgb(100%,100%,100%);fill-opacity:1;" d="M 22.929688 45.53125 L 26.628906 54.164062 L 20.425781 54.164062 L 20.179688 45.53125 L 22.929688 45.53125 "/>
</g>
</svg>
