<?xml version="1.0" encoding="UTF-8"?>
<svg xmlns="http://www.w3.org/2000/svg" xmlns:xlink="http://www.w3.org/1999/xlink" width="105pt" height="60pt" viewBox="0 0 105 60" version="1.1">
<g id="surface1">
<path style="fill-rule:nonzero;fill:rgb(100%,100%,100%);fill-opacity:1;stroke-width:2.835;stroke-linecap:butt;stroke-linejoin:round;stroke:rgb(13.729858%,12.159729%,12.548828%);stroke-opacity:1;stroke-miterlimit:4;" d="M 4.335938 100.9375 C 4.335938 46.09375 48.867188 1.640625 103.710938 1.71875 L 946.835938 1.71875 C 1001.640625 1.71875 1046.054688 46.171875 1046.054688 100.9375 L 1046.054688 497.773438 C 1046.054688 552.539062 1001.640625 596.953125 946.835938 596.953125 L 103.554688 596.953125 C 48.75 596.953125 4.335938 552.539062 4.335938 497.773438 L 4.335938 100.9375 " transform="matrix(0.1,0,0,-0.1,0,60)"/>
<path style=" stroke:none;fill-rule:nonzero;fill:rgb(0%,49.674988%,27.331543%);fill-opacity:1;" d="M 5.496094 50.011719 C 5.496094 52.75 7.71875 54.972656 10.457031 54.972656 L 94.789062 54.972656 C 97.527344 54.972656 99.75 52.75 99.75 50.011719 L 99.75 10.328125 C 99.75 7.589844 97.527344 5.367188 94.789062 5.367188 L 10.457031 5.367188 C 7.71875 5.367188 5.496094 7.589844 5.496094 10.328125 L 5.496094 50.011719 "/>
<path style=" stroke:none;fill-rule:nonzero;fill:rgb(100%,100%,100%);fill-opacity:1;" d="M 17.125 47.476562 L 34.882812 47.476562 L 34.882812 43.054688 L 22.496094 43.054688 L 22.496094 31.761719 L 33.738281 31.761719 L 33.738281 27.332031 L 22.496094 27.332031 L 22.496094 17.183594 L 34.335938 17.183594 L 34.335938 12.757812 L 17.125 12.757812 L 17.125 47.476562 "/>
<path style=" stroke:none;fill-rule:nonzero;fill:rgb(100%,100%,100%);fill-opacity:1;" d="M 44.265625 46.484375 C 45.308594 46.835938 46.5 47.183594 47.84375 47.429688 C 49.191406 47.726562 50.585938 47.875 52.074219 47.875 C 53.816406 47.875 55.40625 47.625 56.851562 47.183594 C 58.289062 46.683594 59.484375 45.988281 60.53125 45.140625 C 61.578125 44.246094 62.375 43.152344 62.921875 41.910156 C 63.46875 40.664062 63.765625 39.269531 63.765625 37.679688 C 63.765625 36.386719 63.566406 35.242188 63.21875 34.246094 C 62.820312 33.25 62.324219 32.457031 61.675781 31.761719 C 61.03125 31.0625 60.28125 30.515625 59.4375 30.117188 C 58.589844 29.71875 57.699219 29.421875 56.75 29.273438 L 56.75 29.171875 C 57.496094 29.023438 58.242188 28.777344 59.039062 28.425781 C 59.785156 28.078125 60.53125 27.582031 61.179688 26.933594 C 61.828125 26.289062 62.324219 25.488281 62.71875 24.496094 C 63.117188 23.550781 63.316406 22.40625 63.316406 21.015625 C 63.316406 19.621094 63.070312 18.328125 62.574219 17.234375 C 62.023438 16.140625 61.328125 15.242188 60.433594 14.496094 C 59.535156 13.75 58.492188 13.203125 57.246094 12.851562 C 56.007812 12.507812 54.710938 12.304688 53.269531 12.304688 C 51.578125 12.304688 50.082031 12.457031 48.789062 12.707031 C 47.449219 13.003906 46.304688 13.351562 45.308594 13.75 L 45.65625 18.476562 C 46.703125 17.929688 47.84375 17.484375 48.988281 17.132812 C 50.132812 16.785156 51.226562 16.636719 52.175781 16.636719 C 53.816406 16.636719 55.210938 17.082031 56.355469 17.980469 C 57.496094 18.875 58.042969 20.167969 58.042969 21.808594 C 58.042969 22.855469 57.84375 23.699219 57.449219 24.394531 C 57.050781 25.144531 56.503906 25.691406 55.808594 26.1875 C 55.058594 26.632812 54.214844 26.984375 53.21875 27.179688 C 52.226562 27.429688 51.132812 27.53125 49.984375 27.53125 L 48.542969 27.53125 L 48.542969 31.710938 C 48.839844 31.710938 49.238281 31.710938 49.738281 31.660156 C 50.183594 31.660156 50.78125 31.660156 51.476562 31.660156 C 53.570312 31.660156 55.210938 32.15625 56.402344 33.101562 C 57.597656 34.046875 58.195312 35.441406 58.195312 37.179688 C 58.195312 38.277344 57.996094 39.222656 57.648438 40.019531 C 57.296875 40.816406 56.800781 41.460938 56.203125 41.960938 C 55.554688 42.507812 54.859375 42.902344 54.066406 43.152344 C 53.21875 43.398438 52.371094 43.550781 51.425781 43.550781 C 50.082031 43.550781 48.839844 43.351562 47.695312 42.953125 C 46.550781 42.601562 45.507812 42.15625 44.609375 41.707031 L 44.265625 46.484375 "/>
<path style=" stroke:none;fill-rule:nonzero;fill:rgb(100%,100%,100%);fill-opacity:1;" d="M 69.214844 46.484375 C 70.15625 46.835938 71.25 47.183594 72.542969 47.429688 C 73.789062 47.726562 75.183594 47.875 76.625 47.875 C 80.304688 47.875 83.144531 46.78125 85.132812 44.644531 C 87.121094 42.457031 88.117188 39.519531 88.117188 35.789062 C 88.117188 34.097656 87.867188 32.554688 87.367188 31.265625 C 86.820312 29.917969 86.128906 28.824219 85.28125 27.929688 C 84.433594 27.035156 83.390625 26.386719 82.246094 25.941406 C 81.050781 25.488281 79.808594 25.242188 78.515625 25.242188 C 77.71875 25.242188 76.972656 25.292969 76.328125 25.390625 C 75.628906 25.441406 75.03125 25.589844 74.585938 25.742188 L 74.585938 16.980469 L 86.476562 16.980469 L 86.476562 12.757812 L 69.710938 12.757812 L 69.710938 30.464844 C 70.554688 30.214844 71.449219 29.96875 72.34375 29.71875 C 73.242188 29.472656 74.285156 29.371094 75.429688 29.371094 C 77.816406 29.371094 79.609375 30.019531 80.851562 31.265625 C 82.046875 32.507812 82.644531 34.199219 82.644531 36.234375 C 82.644531 38.378906 82.046875 40.117188 80.800781 41.460938 C 79.558594 42.851562 77.867188 43.550781 75.730469 43.550781 C 74.484375 43.550781 73.339844 43.351562 72.292969 43.003906 C 71.25 42.65625 70.308594 42.257812 69.507812 41.808594 L 69.214844 46.484375 "/>
</g>
</svg>
