<svg width="101" height="51" xmlns="http://www.w3.org/2000/svg">
 <!-- Created with Method Draw - http://github.com/duopixel/Method-Draw/ -->

 <g>
  <title>background</title>
  <rect fill="#fff" id="canvas_background" height="53" width="103" y="-1" x="-1"/>
  <g display="none" overflow="visible" y="0" x="0" height="100%" width="100%" id="canvasGrid">
   <rect fill="url(#gridpattern)" stroke-width="0" y="0" x="0" height="100%" width="100%"/>
  </g>
 </g>
 <g>
  <title>Layer 1</title>
  <metadata id="svg_17">image/svg+xml</metadata>

  <g id="svg_19">
   <path fill="#ffffff" fill-rule="nonzero" id="svg_16" d="m0.67131,50.3267l99.65824,0l0,-49.82921l-99.65824,0l0,49.82921zm0,0"/>
   <path fill="none" stroke="#211e1e" stroke-width="0.2835" stroke-miterlimit="4" id="svg_15" d="m0.67131,50.3267l99.65824,0l0,-49.82921l-99.65824,0l0,49.82921"/>
   <path fill="#211e1e" fill-rule="nonzero" id="svg_14" d="m87.64371,48.51388c6.00351,0 10.87302,-4.86953 10.87302,-10.87304l0,-24.46141c0,-6.00352 -4.86952,-10.86911 -10.87302,-10.86911l-74.29048,0c-6.00352,0 -10.87302,4.8656 -10.87302,10.86911l0,24.46141c0,6.00352 4.86951,10.87304 10.87302,10.87304l74.29048,0"/>
   <path fill="#ffffff" fill-rule="nonzero" id="svg_13" d="m87.64371,45.79463c4.50459,0 8.15379,-3.6492 8.15379,-8.15379l0,-24.46141c0,-4.50067 -3.6492,-8.15379 -8.15379,-8.15379l-74.29048,0c-4.5046,0 -8.15772,3.65312 -8.15772,8.15379l0,24.46141c0,4.5046 3.65312,8.15379 8.15772,8.15379l74.29048,0"/>
   <path fill="#211e1e" fill-rule="nonzero" id="svg_12" d="m32.64686,20.36011l5.66605,-3.71982l-3.1744,-2.84873l-0.06671,-0.07455l-0.05494,-0.08633l-0.03924,-0.09025l-0.02355,-0.09417l-0.00392,-0.0981l0.00784,-0.0981l0.02746,-0.0981l0.04316,-0.09025l0.0981,-0.12949l0.12556,-0.0981l0.1491,-0.06671l0.16088,-0.01962l11.65387,-0.02355l0.17265,0.02355l0.1648,0.06278l0.14518,0.0981l0.12164,0.13342l0.07848,0.15695l0.03924,0.17657l-0.00392,0.17657l-0.04709,0.17265l-4.39473,10.58268l-0.05885,0.10595l-0.06671,0.09417l-0.07847,0.07847l-0.09025,0.06671l-0.10202,0.05101l-0.10595,0.03924l-0.11379,0.0157l-0.11772,0l-0.20011,-0.04316l-0.17658,-0.0981l-0.14518,-0.14518l-0.10202,-0.18443l-1.46753,-4.05728l-1.05944,0.71022c-4.23385,2.83696 -5.92503,8.22836 -4.07297,12.97624l1.62448,4.175l-10.90834,0l-0.15695,-5.16772l-0.60427,-20.19614l1.8089,0l3.52755,9.04059c0.56895,-0.51796 1.17715,-0.98882 1.82067,-1.40868"/>
   <path fill="#211e1e" fill-rule="nonzero" id="svg_11" d="m11.79153,38.09208l9.85674,-25.36782l1.81283,0l-0.18443,6.08984l-0.57681,19.27797l-10.90833,0"/>
  </g>
  <text xml:space="preserve" text-anchor="start" font-family="sans-serif" font-size="24" id="svg_20" y="33.81858" x="57.66814" stroke-width="0" stroke="#000" fill="#000000">param(text1)</text>
 </g>
</svg>