<?xml version="1.0" encoding="UTF-8"?>
<svg xmlns="http://www.w3.org/2000/svg" xmlns:xlink="http://www.w3.org/1999/xlink" width="171pt" height="122pt" viewBox="0 0 171 122" version="1.1">
<g id="surface1">
<path style=" stroke:none;fill-rule:nonzero;fill:rgb(10.112%,40.585327%,73.280334%);fill-opacity:1;" d="M 0.789062 39.042969 L 0.789062 121.226562 L 170.867188 121.226562 L 170.867188 39.042969 L 169.511719 39.042969 L 169.511719 114.800781 C 169.511719 117.59375 167.222656 119.875 164.398438 119.875 L 7.230469 119.875 C 4.429688 119.875 2.140625 117.59375 2.140625 114.800781 L 2.140625 39.042969 L 0.789062 39.042969 "/>
<path style=" stroke:none;fill-rule:nonzero;fill:rgb(10.112%,40.585327%,73.280334%);fill-opacity:1;" d="M 167.808594 39.808594 L 167.808594 114.800781 C 167.808594 116.664062 166.289062 118.175781 164.398438 118.175781 L 7.230469 118.175781 C 5.363281 118.175781 3.84375 116.664062 3.84375 114.800781 L 3.84375 39.808594 L 167.808594 39.808594 "/>
<path style=" stroke:none;fill-rule:nonzero;fill:rgb(100%,100%,100%);fill-opacity:1;" d="M 40.171875 66.535156 C 40.429688 66 40.078125 65.394531 39.496094 65.347656 L 23.152344 64.207031 C 22.40625 64.136719 21.984375 65.046875 22.5 65.582031 L 27.191406 70.402344 L 11.316406 78.828125 L 14.398438 84.113281 L 29.644531 74.636719 L 31.488281 81.085938 C 31.699219 81.808594 32.679688 81.902344 33.003906 81.226562 L 40.171875 66.535156 "/>
<path style=" stroke:none;fill-rule:nonzero;fill:rgb(100%,100%,100%);fill-opacity:1;" d="M 49.386719 63.554688 L 51.433594 63.554688 L 51.433594 52.148438 L 51.476562 52.148438 L 56.539062 63.554688 L 59.222656 63.554688 L 59.222656 49.285156 L 57.171875 49.285156 L 57.171875 60.777344 L 57.132812 60.777344 L 52.070312 49.285156 L 49.386719 49.285156 L 49.386719 63.554688 "/>
<path style=" stroke:none;fill-rule:nonzero;fill:rgb(100%,100%,100%);fill-opacity:1;" d="M 62.777344 63.554688 L 64.90625 63.554688 L 64.90625 53.070312 L 62.777344 53.070312 L 62.777344 63.554688 "/>
<path style=" stroke:none;fill-rule:nonzero;fill:rgb(100%,100%,100%);fill-opacity:1;" d="M 62.714844 50.960938 L 64.96875 50.960938 L 64.96875 48.691406 L 62.714844 48.691406 L 62.714844 50.960938 "/>
<path style=" stroke:none;fill-rule:nonzero;fill:rgb(100%,100%,100%);fill-opacity:1;" d="M 70.019531 58.914062 L 76.023438 58.914062 L 76.023438 58.199219 C 76.023438 57.28125 75.921875 56.503906 75.738281 55.828125 C 75.554688 55.152344 75.285156 54.601562 74.941406 54.171875 C 74.589844 53.742188 74.160156 53.4375 73.691406 53.230469 C 73.199219 53.027344 72.664062 52.925781 72.089844 52.925781 C 71.433594 52.925781 70.839844 53.046875 70.328125 53.3125 C 69.796875 53.578125 69.34375 53.96875 68.996094 54.4375 C 68.648438 54.929688 68.359375 55.5 68.175781 56.175781 C 67.992188 56.847656 67.890625 57.585938 67.890625 58.382812 C 67.890625 59.140625 67.992188 59.855469 68.175781 60.511719 C 68.359375 61.164062 68.628906 61.714844 69.015625 62.183594 C 69.386719 62.65625 69.859375 63.023438 70.429688 63.289062 C 71.003906 63.574219 71.679688 63.699219 72.441406 63.699219 C 73.09375 63.699219 73.691406 63.636719 74.203125 63.492188 C 74.714844 63.351562 75.125 63.207031 75.472656 63.066406 L 75.371094 61.285156 C 75.101562 61.46875 74.753906 61.65625 74.34375 61.839844 C 73.914062 62.023438 73.402344 62.125 72.789062 62.125 C 71.804688 62.125 71.105469 61.859375 70.675781 61.308594 C 70.246094 60.777344 70.019531 59.976562 70.019531 58.914062 "/>
<path style=" stroke:none;fill-rule:nonzero;fill:rgb(100%,100%,100%);fill-opacity:1;" d="M 85.472656 63.554688 L 87.503906 63.554688 C 87.480469 63.289062 87.464844 63.003906 87.441406 62.699219 C 87.421875 62.390625 87.421875 62.042969 87.421875 61.695312 L 87.421875 48.222656 L 85.289062 48.222656 L 85.289062 54.539062 L 85.25 54.539062 C 84.984375 54.070312 84.636719 53.679688 84.203125 53.375 C 83.773438 53.070312 83.21875 52.925781 82.542969 52.925781 C 81.4375 52.925781 80.554688 53.375 79.902344 54.292969 C 79.246094 55.214844 78.917969 56.542969 78.917969 58.324219 C 78.917969 59.140625 79 59.875 79.164062 60.53125 C 79.308594 61.203125 79.550781 61.757812 79.859375 62.226562 C 80.167969 62.699219 80.554688 63.066406 81.007812 63.308594 C 81.457031 63.574219 81.992188 63.699219 82.585938 63.699219 C 82.972656 63.699219 83.324219 63.65625 83.628906 63.535156 C 83.917969 63.433594 84.183594 63.308594 84.410156 63.148438 C 84.636719 62.984375 84.820312 62.800781 84.960938 62.59375 C 85.105469 62.390625 85.25 62.183594 85.351562 61.960938 L 85.414062 61.960938 C 85.414062 62.0625 85.414062 62.183594 85.433594 62.347656 C 85.433594 62.511719 85.433594 62.675781 85.453125 62.839844 C 85.453125 63.003906 85.453125 63.148438 85.472656 63.289062 C 85.472656 63.433594 85.472656 63.515625 85.472656 63.554688 "/>
<path style=" stroke:none;fill-rule:nonzero;fill:rgb(100%,100%,100%);fill-opacity:1;" d="M 92.601562 58.914062 L 98.605469 58.914062 L 98.605469 58.199219 C 98.605469 57.28125 98.503906 56.503906 98.320312 55.828125 C 98.132812 55.152344 97.867188 54.601562 97.519531 54.171875 C 97.171875 53.742188 96.738281 53.4375 96.269531 53.230469 C 95.777344 53.027344 95.242188 52.925781 94.671875 52.925781 C 94.015625 52.925781 93.421875 53.046875 92.90625 53.3125 C 92.375 53.578125 91.921875 53.96875 91.578125 54.4375 C 91.226562 54.929688 90.941406 55.5 90.757812 56.175781 C 90.574219 56.847656 90.46875 57.585938 90.46875 58.382812 C 90.46875 59.140625 90.574219 59.855469 90.757812 60.511719 C 90.941406 61.164062 91.207031 61.714844 91.597656 62.183594 C 91.964844 62.65625 92.4375 63.023438 93.011719 63.289062 C 93.585938 63.574219 94.261719 63.699219 95.019531 63.699219 C 95.675781 63.699219 96.269531 63.636719 96.78125 63.492188 C 97.292969 63.351562 97.703125 63.207031 98.050781 63.066406 L 97.949219 61.285156 C 97.683594 61.46875 97.335938 61.65625 96.925781 61.839844 C 96.492188 62.023438 95.980469 62.125 95.367188 62.125 C 94.382812 62.125 93.6875 61.859375 93.257812 61.308594 C 92.828125 60.777344 92.601562 59.976562 92.601562 58.914062 "/>
<path style=" stroke:none;fill-rule:nonzero;fill:rgb(100%,100%,100%);fill-opacity:1;" d="M 101.726562 63.554688 L 103.855469 63.554688 L 103.855469 57.914062 C 103.855469 57.382812 103.917969 56.933594 104.039062 56.542969 C 104.164062 56.15625 104.328125 55.847656 104.53125 55.601562 C 104.738281 55.378906 104.984375 55.195312 105.25 55.070312 C 105.515625 54.96875 105.78125 54.90625 106.089844 54.90625 C 106.214844 54.90625 106.335938 54.90625 106.4375 54.929688 C 106.539062 54.949219 106.664062 54.96875 106.765625 54.988281 L 106.765625 52.945312 C 106.726562 52.945312 106.683594 52.945312 106.664062 52.925781 C 106.644531 52.925781 106.601562 52.925781 106.5625 52.925781 C 106.171875 52.925781 105.824219 52.964844 105.515625 53.070312 C 105.210938 53.167969 104.960938 53.3125 104.738281 53.496094 C 104.511719 53.679688 104.308594 53.886719 104.144531 54.109375 C 103.980469 54.335938 103.835938 54.582031 103.734375 54.847656 L 103.691406 54.847656 C 103.691406 54.765625 103.691406 54.640625 103.691406 54.476562 C 103.671875 54.316406 103.671875 54.132812 103.652344 53.945312 C 103.628906 53.761719 103.628906 53.601562 103.628906 53.4375 C 103.609375 53.273438 103.609375 53.148438 103.609375 53.070312 L 101.644531 53.070312 C 101.664062 53.375 101.683594 53.703125 101.703125 54.027344 C 101.726562 54.375 101.726562 54.722656 101.726562 55.070312 L 101.726562 63.554688 "/>
<path style=" stroke:none;fill-rule:nonzero;fill:rgb(100%,100%,100%);fill-opacity:1;" d="M 108.746094 63.554688 L 110.757812 63.554688 C 110.757812 63.515625 110.757812 63.433594 110.777344 63.289062 C 110.796875 63.148438 110.796875 63.003906 110.816406 62.820312 C 110.816406 62.65625 110.816406 62.492188 110.839844 62.328125 C 110.839844 62.164062 110.839844 62.042969 110.839844 61.960938 L 110.878906 61.960938 C 110.980469 62.183594 111.125 62.390625 111.289062 62.59375 C 111.433594 62.800781 111.617188 62.984375 111.84375 63.148438 C 112.066406 63.308594 112.3125 63.433594 112.621094 63.535156 C 112.929688 63.65625 113.277344 63.699219 113.664062 63.699219 C 114.261719 63.699219 114.792969 63.574219 115.242188 63.308594 C 115.695312 63.066406 116.085938 62.699219 116.390625 62.226562 C 116.699219 61.757812 116.925781 61.203125 117.089844 60.53125 C 117.230469 59.875 117.3125 59.140625 117.3125 58.324219 C 117.3125 56.542969 116.984375 55.214844 116.328125 54.292969 C 115.675781 53.375 114.792969 52.925781 113.6875 52.925781 C 113.011719 52.925781 112.457031 53.070312 112.046875 53.375 C 111.617188 53.679688 111.269531 54.070312 111.003906 54.539062 L 110.960938 54.539062 L 110.960938 48.222656 L 108.828125 48.222656 L 108.828125 61.695312 C 108.828125 62.042969 108.828125 62.390625 108.808594 62.699219 C 108.789062 63.003906 108.769531 63.289062 108.746094 63.554688 "/>
<path style=" stroke:none;fill-rule:nonzero;fill:rgb(100%,100%,100%);fill-opacity:1;" d="M 119.210938 63.554688 L 121.339844 63.554688 L 121.339844 53.070312 L 119.210938 53.070312 L 119.210938 63.554688 "/>
<path style=" stroke:none;fill-rule:nonzero;fill:rgb(100%,100%,100%);fill-opacity:1;" d="M 119.148438 50.960938 L 121.398438 50.960938 L 121.398438 48.691406 L 119.148438 48.691406 L 119.148438 50.960938 "/>
<path style=" stroke:none;fill-rule:nonzero;fill:rgb(100%,100%,100%);fill-opacity:1;" d="M 127.046875 62.085938 L 127.085938 62.085938 C 127.355469 62.554688 127.699219 62.941406 128.132812 63.25 C 128.542969 63.554688 129.097656 63.699219 129.769531 63.699219 C 130.878906 63.699219 131.761719 63.25 132.414062 62.328125 C 133.070312 61.410156 133.398438 60.082031 133.398438 58.300781 C 133.398438 57.484375 133.316406 56.746094 133.171875 56.074219 C 133.011719 55.417969 132.78125 54.847656 132.476562 54.375 C 132.167969 53.90625 131.777344 53.558594 131.328125 53.292969 C 130.855469 53.046875 130.34375 52.925781 129.75 52.925781 C 129.359375 52.925781 129.015625 52.964844 128.707031 53.070312 C 128.398438 53.167969 128.152344 53.3125 127.925781 53.476562 C 127.699219 53.640625 127.519531 53.824219 127.375 54.027344 C 127.210938 54.234375 127.066406 54.4375 126.964844 54.660156 L 126.921875 54.660156 C 126.921875 54.558594 126.921875 54.4375 126.921875 54.273438 C 126.902344 54.109375 126.902344 53.945312 126.902344 53.785156 C 126.882812 53.621094 126.882812 53.476562 126.859375 53.335938 C 126.839844 53.191406 126.839844 53.109375 126.839844 53.070312 L 124.832031 53.070312 C 124.855469 53.335938 124.875 53.621094 124.894531 53.925781 C 124.914062 54.234375 124.914062 54.582031 124.914062 54.929688 L 124.914062 67.96875 L 127.046875 67.96875 L 127.046875 62.085938 "/>
<path style=" stroke:none;fill-rule:nonzero;fill:rgb(100%,100%,100%);fill-opacity:1;" d="M 138.675781 62.085938 L 138.714844 62.085938 C 138.980469 62.554688 139.332031 62.941406 139.761719 63.25 C 140.171875 63.554688 140.726562 63.699219 141.402344 63.699219 C 142.507812 63.699219 143.390625 63.25 144.046875 62.328125 C 144.699219 61.410156 145.027344 60.082031 145.027344 58.300781 C 145.027344 57.484375 144.945312 56.746094 144.800781 56.074219 C 144.640625 55.417969 144.414062 54.847656 144.105469 54.375 C 143.796875 53.90625 143.410156 53.558594 142.957031 53.292969 C 142.484375 53.046875 141.976562 52.925781 141.378906 52.925781 C 140.992188 52.925781 140.644531 52.964844 140.335938 53.070312 C 140.027344 53.167969 139.78125 53.3125 139.558594 53.476562 C 139.332031 53.640625 139.144531 53.824219 139.003906 54.027344 C 138.839844 54.234375 138.695312 54.4375 138.59375 54.660156 L 138.554688 54.660156 C 138.554688 54.558594 138.554688 54.4375 138.554688 54.273438 C 138.53125 54.109375 138.53125 53.945312 138.53125 53.785156 C 138.511719 53.621094 138.511719 53.476562 138.488281 53.335938 C 138.472656 53.191406 138.472656 53.109375 138.472656 53.070312 L 136.464844 53.070312 C 136.480469 53.335938 136.503906 53.621094 136.523438 53.925781 C 136.542969 54.234375 136.542969 54.582031 136.542969 54.929688 L 136.542969 67.96875 L 138.675781 67.96875 L 138.675781 62.085938 "/>
<path style=" stroke:none;fill-rule:nonzero;fill:rgb(100%,100%,100%);fill-opacity:1;" d="M 49.417969 87.976562 L 56.324219 87.976562 L 56.324219 86.160156 L 51.628906 86.160156 L 51.628906 73.710938 L 49.417969 73.710938 L 49.417969 87.976562 "/>
<path style=" stroke:none;fill-rule:nonzero;fill:rgb(100%,100%,100%);fill-opacity:1;" d="M 63.976562 87.976562 L 65.902344 87.976562 C 65.882812 87.792969 65.84375 87.53125 65.820312 87.222656 C 65.800781 86.914062 65.78125 86.589844 65.78125 86.242188 L 65.78125 81.230469 C 65.78125 80.535156 65.71875 79.964844 65.574219 79.515625 C 65.433594 79.066406 65.207031 78.699219 64.941406 78.390625 C 64.714844 78.125 64.34375 77.878906 63.855469 77.65625 C 63.363281 77.449219 62.726562 77.347656 61.929688 77.347656 C 61.25 77.347656 60.65625 77.429688 60.144531 77.59375 C 59.632812 77.757812 59.160156 77.941406 58.773438 78.164062 L 58.9375 79.984375 C 59.203125 79.71875 59.59375 79.472656 60.101562 79.25 C 60.597656 79.042969 61.128906 78.945312 61.722656 78.945312 C 62.480469 78.945312 63.015625 79.148438 63.339844 79.554688 C 63.507812 79.761719 63.628906 79.984375 63.691406 80.230469 C 63.75 80.496094 63.773438 80.78125 63.773438 81.109375 L 63.773438 81.539062 L 63.015625 81.539062 C 61.3125 81.539062 60.003906 81.824219 59.121094 82.378906 C 58.238281 82.949219 57.789062 83.847656 57.789062 85.078125 C 57.789062 85.566406 57.871094 85.996094 58.035156 86.382812 C 58.199219 86.773438 58.421875 87.078125 58.710938 87.34375 C 58.976562 87.609375 59.304688 87.792969 59.671875 87.917969 C 60.042969 88.058594 60.429688 88.121094 60.863281 88.121094 C 61.640625 88.121094 62.257812 87.957031 62.726562 87.632812 C 63.179688 87.324219 63.546875 86.957031 63.8125 86.546875 L 63.855469 86.546875 C 63.855469 86.609375 63.855469 86.710938 63.875 86.855469 C 63.875 86.996094 63.875 87.140625 63.894531 87.28125 C 63.914062 87.425781 63.914062 87.570312 63.933594 87.691406 C 63.957031 87.835938 63.957031 87.917969 63.976562 87.976562 "/>
<path style=" stroke:none;fill-rule:nonzero;fill:rgb(100%,100%,100%);fill-opacity:1;" d="M 69.320312 87.976562 L 71.449219 87.976562 L 71.449219 81.765625 C 71.449219 80.945312 71.613281 80.292969 71.960938 79.820312 C 72.289062 79.351562 72.78125 79.128906 73.457031 79.128906 C 74.011719 79.128906 74.402344 79.308594 74.667969 79.679688 C 74.914062 80.046875 75.035156 80.640625 75.035156 81.457031 L 75.035156 87.976562 L 77.167969 87.976562 L 77.167969 80.96875 C 77.167969 79.863281 76.921875 78.984375 76.429688 78.328125 C 75.9375 77.675781 75.160156 77.347656 74.09375 77.347656 C 73.476562 77.347656 72.945312 77.492188 72.472656 77.796875 C 72.003906 78.105469 71.632812 78.535156 71.367188 79.085938 L 71.328125 79.085938 C 71.328125 79.023438 71.328125 78.902344 71.328125 78.757812 C 71.304688 78.617188 71.304688 78.453125 71.285156 78.289062 C 71.265625 78.125 71.265625 77.960938 71.265625 77.820312 C 71.246094 77.675781 71.246094 77.550781 71.246094 77.492188 L 69.238281 77.492188 C 69.257812 77.796875 69.277344 78.125 69.296875 78.453125 C 69.320312 78.800781 69.320312 79.148438 69.320312 79.496094 L 69.320312 87.976562 "/>
<path style=" stroke:none;fill-rule:nonzero;fill:rgb(100%,100%,100%);fill-opacity:1;" d="M 80.671875 89.878906 L 80.550781 91.863281 C 80.898438 92.003906 81.390625 92.148438 82.003906 92.289062 C 82.621094 92.433594 83.253906 92.515625 83.890625 92.515625 C 85.449219 92.515625 86.613281 92.085938 87.394531 91.25 C 88.171875 90.410156 88.5625 89.207031 88.5625 87.652344 L 88.5625 79.269531 C 88.5625 78.964844 88.582031 78.675781 88.601562 78.371094 C 88.625 78.0625 88.625 77.777344 88.644531 77.492188 L 86.675781 77.492188 C 86.675781 77.550781 86.675781 77.675781 86.675781 77.820312 C 86.65625 77.960938 86.65625 78.125 86.636719 78.289062 C 86.613281 78.453125 86.613281 78.59375 86.613281 78.738281 C 86.59375 78.882812 86.59375 79.003906 86.59375 79.066406 L 86.53125 79.066406 C 86.265625 78.59375 85.917969 78.1875 85.488281 77.839844 C 85.058594 77.511719 84.527344 77.347656 83.871094 77.347656 C 83.234375 77.347656 82.660156 77.46875 82.1875 77.734375 C 81.71875 78.003906 81.308594 78.351562 81 78.820312 C 80.695312 79.289062 80.449219 79.863281 80.304688 80.519531 C 80.140625 81.191406 80.058594 81.925781 80.058594 82.746094 C 80.058594 83.726562 80.160156 84.542969 80.386719 85.21875 C 80.589844 85.894531 80.855469 86.445312 81.207031 86.855469 C 81.554688 87.28125 81.945312 87.570312 82.375 87.753906 C 82.804688 87.9375 83.253906 88.039062 83.707031 88.039062 C 84.421875 88.039062 84.996094 87.875 85.425781 87.53125 C 85.859375 87.203125 86.207031 86.792969 86.472656 86.28125 L 86.511719 86.28125 L 86.511719 87.589844 C 86.511719 88.019531 86.472656 88.449219 86.390625 88.835938 C 86.289062 89.226562 86.144531 89.550781 85.9375 89.839844 C 85.714844 90.125 85.425781 90.347656 85.058594 90.53125 C 84.6875 90.699219 84.21875 90.78125 83.664062 90.78125 C 83.089844 90.78125 82.539062 90.675781 81.984375 90.492188 C 81.429688 90.289062 81 90.085938 80.671875 89.878906 "/>
<path style=" stroke:none;fill-rule:nonzero;fill:rgb(100%,100%,100%);fill-opacity:1;" d="M 93.640625 83.339844 L 99.644531 83.339844 L 99.644531 82.621094 C 99.644531 81.703125 99.542969 80.925781 99.359375 80.25 C 99.175781 79.578125 98.90625 79.023438 98.558594 78.59375 C 98.210938 78.164062 97.78125 77.859375 97.308594 77.65625 C 96.820312 77.449219 96.285156 77.347656 95.710938 77.347656 C 95.054688 77.347656 94.460938 77.46875 93.949219 77.734375 C 93.417969 78.003906 92.964844 78.390625 92.617188 78.859375 C 92.269531 79.351562 91.980469 79.925781 91.796875 80.597656 C 91.613281 81.273438 91.511719 82.007812 91.511719 82.804688 C 91.511719 83.5625 91.613281 84.28125 91.796875 84.933594 C 91.980469 85.585938 92.246094 86.140625 92.636719 86.609375 C 93.007812 87.078125 93.476562 87.449219 94.050781 87.714844 C 94.625 87.996094 95.300781 88.121094 96.058594 88.121094 C 96.714844 88.121094 97.308594 88.058594 97.824219 87.917969 C 98.335938 87.773438 98.746094 87.632812 99.09375 87.488281 L 98.988281 85.710938 C 98.722656 85.894531 98.375 86.078125 97.964844 86.261719 C 97.535156 86.445312 97.023438 86.546875 96.40625 86.546875 C 95.425781 86.546875 94.726562 86.28125 94.296875 85.730469 C 93.867188 85.199219 93.640625 84.402344 93.640625 83.339844 "/>
<path style=" stroke:none;fill-rule:nonzero;fill:rgb(100%,100%,100%);fill-opacity:1;" d="M 102.765625 87.976562 L 104.898438 87.976562 L 104.898438 81.765625 C 104.898438 80.945312 105.0625 80.292969 105.410156 79.820312 C 105.738281 79.351562 106.230469 79.128906 106.90625 79.128906 C 107.460938 79.128906 107.847656 79.308594 108.113281 79.679688 C 108.359375 80.046875 108.484375 80.640625 108.484375 81.457031 L 108.484375 87.976562 L 110.613281 87.976562 L 110.613281 80.96875 C 110.613281 79.863281 110.367188 78.984375 109.878906 78.328125 C 109.386719 77.675781 108.605469 77.347656 107.539062 77.347656 C 106.925781 77.347656 106.394531 77.492188 105.921875 77.796875 C 105.449219 78.105469 105.082031 78.535156 104.816406 79.085938 L 104.773438 79.085938 C 104.773438 79.023438 104.773438 78.902344 104.773438 78.757812 C 104.753906 78.617188 104.753906 78.453125 104.734375 78.289062 C 104.714844 78.125 104.714844 77.960938 104.714844 77.820312 C 104.691406 77.675781 104.691406 77.550781 104.691406 77.492188 L 102.683594 77.492188 C 102.703125 77.796875 102.726562 78.125 102.746094 78.453125 C 102.765625 78.800781 102.765625 79.148438 102.765625 79.496094 L 102.765625 87.976562 "/>
<path style=" stroke:none;fill-rule:nonzero;fill:rgb(100%,100%,100%);fill-opacity:1;" d="M 119.035156 87.816406 L 119.035156 86.21875 C 118.894531 86.28125 118.75 86.34375 118.585938 86.382812 C 118.421875 86.445312 118.238281 86.464844 118.011719 86.464844 C 117.621094 86.464844 117.355469 86.34375 117.171875 86.117188 C 116.988281 85.894531 116.90625 85.503906 116.90625 84.933594 L 116.90625 79.128906 L 119.035156 79.128906 L 119.035156 77.492188 L 116.90625 77.492188 L 116.90625 74.710938 L 114.773438 75.34375 L 114.773438 77.492188 L 113.09375 77.492188 L 113.09375 79.128906 L 114.773438 79.128906 L 114.773438 85.363281 C 114.773438 86.363281 115 87.078125 115.472656 87.488281 C 115.941406 87.917969 116.597656 88.121094 117.457031 88.121094 C 117.765625 88.121094 118.074219 88.101562 118.339844 88.039062 C 118.605469 87.957031 118.851562 87.898438 119.035156 87.816406 "/>
<path style=" stroke:none;fill-rule:nonzero;fill:rgb(100%,100%,100%);fill-opacity:1;" d="M 121.863281 87.976562 L 123.992188 87.976562 L 123.992188 81.765625 C 123.992188 80.945312 124.15625 80.292969 124.503906 79.820312 C 124.832031 79.351562 125.324219 79.128906 126 79.128906 C 126.554688 79.128906 126.945312 79.308594 127.210938 79.679688 C 127.457031 80.046875 127.578125 80.640625 127.578125 81.457031 L 127.578125 87.976562 L 129.710938 87.976562 L 129.710938 80.96875 C 129.710938 79.863281 129.464844 78.984375 128.972656 78.328125 C 128.480469 77.675781 127.699219 77.347656 126.636719 77.347656 C 125.9375 77.347656 125.386719 77.511719 124.996094 77.820312 C 124.585938 78.144531 124.257812 78.492188 124.035156 78.882812 L 123.992188 78.882812 L 123.992188 72.644531 L 121.863281 72.644531 L 121.863281 87.976562 "/>
<path style=" stroke:none;fill-rule:nonzero;fill:rgb(100%,100%,100%);fill-opacity:1;" d="M 138.945312 87.976562 L 140.871094 87.976562 C 140.851562 87.792969 140.8125 87.53125 140.789062 87.222656 C 140.769531 86.914062 140.75 86.589844 140.75 86.242188 L 140.75 81.230469 C 140.75 80.535156 140.6875 79.964844 140.546875 79.515625 C 140.402344 79.066406 140.175781 78.699219 139.910156 78.390625 C 139.683594 78.125 139.316406 77.878906 138.824219 77.65625 C 138.332031 77.449219 137.695312 77.347656 136.898438 77.347656 C 136.222656 77.347656 135.628906 77.429688 135.113281 77.59375 C 134.601562 77.757812 134.132812 77.941406 133.742188 78.164062 L 133.90625 79.984375 C 134.171875 79.71875 134.5625 79.472656 135.074219 79.25 C 135.566406 79.042969 136.097656 78.945312 136.691406 78.945312 C 137.449219 78.945312 137.984375 79.148438 138.3125 79.554688 C 138.476562 79.761719 138.597656 79.984375 138.660156 80.230469 C 138.722656 80.496094 138.742188 80.78125 138.742188 81.109375 L 138.742188 81.539062 L 137.984375 81.539062 C 136.28125 81.539062 134.972656 81.824219 134.089844 82.378906 C 133.210938 82.949219 132.757812 83.847656 132.757812 85.078125 C 132.757812 85.566406 132.839844 85.996094 133.003906 86.382812 C 133.167969 86.773438 133.394531 87.078125 133.679688 87.34375 C 133.945312 87.609375 134.273438 87.792969 134.644531 87.917969 C 135.011719 88.058594 135.402344 88.121094 135.832031 88.121094 C 136.609375 88.121094 137.226562 87.957031 137.695312 87.632812 C 138.148438 87.324219 138.515625 86.957031 138.78125 86.546875 L 138.824219 86.546875 C 138.824219 86.609375 138.824219 86.710938 138.84375 86.855469 C 138.84375 86.996094 138.84375 87.140625 138.863281 87.28125 C 138.886719 87.425781 138.886719 87.570312 138.90625 87.691406 C 138.925781 87.835938 138.925781 87.917969 138.945312 87.976562 "/>
<path style=" stroke:none;fill-rule:nonzero;fill:rgb(100%,100%,100%);fill-opacity:1;" d="M 144.265625 87.976562 L 146.398438 87.976562 L 146.398438 72.644531 L 144.265625 72.644531 L 144.265625 87.976562 "/>
<path style=" stroke:none;fill-rule:nonzero;fill:rgb(100%,100%,100%);fill-opacity:1;" d="M 102.484375 109.710938 C 102.808594 109.828125 103.183594 109.949219 103.628906 110.03125 C 104.054688 110.136719 104.53125 110.183594 105.027344 110.183594 C 106.292969 110.183594 107.265625 109.8125 107.949219 109.078125 C 108.632812 108.332031 108.972656 107.324219 108.972656 106.046875 C 108.972656 105.46875 108.886719 104.941406 108.71875 104.496094 C 108.527344 104.035156 108.289062 103.660156 108 103.355469 C 107.710938 103.046875 107.351562 102.828125 106.957031 102.671875 C 106.546875 102.519531 106.121094 102.433594 105.675781 102.433594 C 105.402344 102.433594 105.148438 102.453125 104.925781 102.484375 C 104.6875 102.503906 104.480469 102.554688 104.328125 102.605469 L 104.328125 99.605469 L 108.410156 99.605469 L 108.410156 98.160156 L 102.652344 98.160156 L 102.652344 104.222656 C 102.945312 104.140625 103.253906 104.054688 103.558594 103.96875 C 103.867188 103.882812 104.226562 103.847656 104.617188 103.847656 C 105.4375 103.847656 106.050781 104.070312 106.480469 104.496094 C 106.890625 104.921875 107.09375 105.503906 107.09375 106.199219 C 107.09375 106.933594 106.890625 107.53125 106.464844 107.988281 C 106.035156 108.46875 105.453125 108.703125 104.722656 108.703125 C 104.292969 108.703125 103.902344 108.636719 103.542969 108.519531 C 103.183594 108.398438 102.859375 108.261719 102.585938 108.109375 L 102.484375 109.710938 "/>
<path style=" stroke:none;fill-rule:nonzero;fill:rgb(100%,100%,100%);fill-opacity:1;" d="M 111.582031 108.449219 C 111.871094 108.992188 112.246094 109.417969 112.710938 109.726562 C 113.171875 110.03125 113.71875 110.183594 114.382812 110.183594 C 115.050781 110.183594 115.613281 110.03125 116.074219 109.710938 C 116.535156 109.402344 116.910156 108.976562 117.199219 108.429688 C 117.492188 107.886719 117.695312 107.238281 117.816406 106.507812 C 117.933594 105.773438 118.003906 104.972656 118.003906 104.105469 C 118.003906 103.234375 117.933594 102.433594 117.816406 101.683594 C 117.695312 100.953125 117.492188 100.304688 117.199219 99.761719 C 116.910156 99.214844 116.535156 98.789062 116.074219 98.464844 C 115.613281 98.160156 115.050781 98.007812 114.382812 98.007812 C 113.71875 98.007812 113.152344 98.160156 112.691406 98.464844 C 112.230469 98.789062 111.871094 99.214844 111.582031 99.761719 C 111.292969 100.304688 111.085938 100.953125 110.96875 101.683594 C 110.847656 102.433594 110.78125 103.234375 110.78125 104.105469 C 110.78125 104.972656 110.847656 105.773438 110.96875 106.507812 C 111.085938 107.257812 111.292969 107.90625 111.582031 108.449219 "/>
<path style=" stroke:none;fill-rule:nonzero;fill:rgb(100%,100%,100%);fill-opacity:1;" d="M 120.839844 108.449219 C 121.128906 108.992188 121.503906 109.417969 121.964844 109.726562 C 122.425781 110.03125 122.972656 110.183594 123.640625 110.183594 C 124.304688 110.183594 124.867188 110.03125 125.328125 109.710938 C 125.789062 109.402344 126.164062 108.976562 126.457031 108.429688 C 126.746094 107.886719 126.953125 107.238281 127.070312 106.507812 C 127.191406 105.773438 127.257812 104.972656 127.257812 104.105469 C 127.257812 103.234375 127.191406 102.433594 127.070312 101.683594 C 126.953125 100.953125 126.746094 100.304688 126.457031 99.761719 C 126.164062 99.214844 125.789062 98.789062 125.328125 98.464844 C 124.867188 98.160156 124.304688 98.007812 123.640625 98.007812 C 122.972656 98.007812 122.410156 98.160156 121.949219 98.464844 C 121.488281 98.789062 121.128906 99.214844 120.839844 99.761719 C 120.546875 100.304688 120.34375 100.953125 120.222656 101.683594 C 120.105469 102.433594 120.035156 103.234375 120.035156 104.105469 C 120.035156 104.972656 120.105469 105.773438 120.222656 106.507812 C 120.34375 107.257812 120.546875 107.90625 120.839844 108.449219 "/>
<path style=" stroke:none;fill-rule:nonzero;fill:rgb(100%,100%,100%);fill-opacity:1;" d="M 138.171875 110.050781 L 139.949219 110.050781 L 139.949219 104.703125 C 139.949219 104.054688 140.085938 103.558594 140.34375 103.203125 C 140.597656 102.84375 140.992188 102.671875 141.484375 102.671875 C 142.308594 102.671875 142.71875 103.21875 142.71875 104.292969 L 142.71875 110.050781 L 144.492188 110.050781 L 144.492188 104.703125 C 144.492188 104.054688 144.628906 103.558594 144.886719 103.203125 C 145.140625 102.84375 145.535156 102.671875 146.027344 102.671875 C 146.847656 102.671875 147.257812 103.21875 147.257812 104.292969 L 147.257812 110.050781 L 149.035156 110.050781 L 149.035156 104.328125 C 149.035156 103.304688 148.828125 102.519531 148.417969 101.992188 C 147.992188 101.464844 147.359375 101.191406 146.507812 101.191406 C 145.941406 101.191406 145.484375 101.328125 145.125 101.601562 C 144.765625 101.890625 144.492188 102.214844 144.269531 102.570312 C 144.183594 102.402344 144.082031 102.230469 143.964844 102.058594 C 143.84375 101.90625 143.6875 101.753906 143.519531 101.617188 C 143.347656 101.496094 143.144531 101.394531 142.921875 101.308594 C 142.699219 101.226562 142.425781 101.191406 142.136719 101.191406 C 141.589844 101.191406 141.144531 101.328125 140.785156 101.601562 C 140.429688 101.890625 140.136719 102.230469 139.949219 102.65625 L 139.914062 102.65625 C 139.914062 102.605469 139.914062 102.503906 139.914062 102.367188 C 139.898438 102.246094 139.898438 102.109375 139.898438 101.972656 C 139.882812 101.839844 139.882812 101.703125 139.882812 101.582031 C 139.863281 101.464844 139.863281 101.363281 139.863281 101.308594 L 138.105469 101.308594 C 138.121094 101.550781 138.140625 101.804688 138.15625 102.078125 C 138.171875 102.347656 138.171875 102.640625 138.171875 102.964844 L 138.171875 110.050781 "/>
<path style=" stroke:none;fill-rule:nonzero;fill:rgb(0%,49.674988%,27.331543%);fill-opacity:1;" d="M 0.789062 39.042969 L 0.789062 0.808594 L 170.867188 0.808594 L 170.867188 39.042969 L 169.511719 39.042969 L 169.511719 7.257812 C 169.511719 4.441406 167.222656 2.160156 164.398438 2.160156 L 7.253906 2.160156 C 4.429688 2.160156 2.140625 4.441406 2.140625 7.257812 L 2.140625 39.042969 L 0.789062 39.042969 "/>
<path style=" stroke:none;fill-rule:nonzero;fill:rgb(0%,49.674988%,27.331543%);fill-opacity:1;" d="M 167.808594 38.132812 L 167.808594 7.257812 C 167.808594 5.371094 166.289062 3.859375 164.398438 3.859375 L 7.253906 3.859375 C 5.363281 3.859375 3.84375 5.371094 3.84375 7.257812 L 3.84375 38.132812 L 167.808594 38.132812 "/>
<path style=" stroke:none;fill-rule:nonzero;fill:rgb(10.112%,40.585327%,73.280334%);fill-opacity:1;" d="M 70.019531 57.464844 C 70.042969 56.503906 70.226562 55.746094 70.574219 55.214844 C 70.921875 54.703125 71.414062 54.4375 72.03125 54.4375 C 73.300781 54.4375 73.933594 55.441406 73.933594 57.464844 L 70.019531 57.464844 "/>
<path style=" stroke:none;fill-rule:nonzero;fill:rgb(10.112%,40.585327%,73.280334%);fill-opacity:1;" d="M 81.519531 61.121094 C 81.214844 60.488281 81.046875 59.527344 81.046875 58.261719 C 81.046875 57.054688 81.214844 56.132812 81.539062 55.5 C 81.867188 54.867188 82.402344 54.539062 83.160156 54.539062 C 83.917969 54.539062 84.449219 54.867188 84.796875 55.542969 C 85.125 56.214844 85.289062 57.136719 85.289062 58.300781 C 85.289062 59.46875 85.125 60.386719 84.796875 61.0625 C 84.449219 61.734375 83.898438 62.085938 83.140625 62.085938 C 82.359375 62.085938 81.828125 61.757812 81.519531 61.121094 "/>
<path style=" stroke:none;fill-rule:nonzero;fill:rgb(10.112%,40.585327%,73.280334%);fill-opacity:1;" d="M 92.601562 57.464844 C 92.621094 56.503906 92.804688 55.746094 93.15625 55.214844 C 93.503906 54.703125 93.992188 54.4375 94.609375 54.4375 C 95.878906 54.4375 96.515625 55.441406 96.515625 57.464844 L 92.601562 57.464844 "/>
<path style=" stroke:none;fill-rule:nonzero;fill:rgb(10.112%,40.585327%,73.280334%);fill-opacity:1;" d="M 111.472656 61.042969 C 111.125 60.367188 110.960938 59.445312 110.960938 58.300781 C 110.960938 57.136719 111.125 56.214844 111.472656 55.542969 C 111.820312 54.867188 112.355469 54.539062 113.09375 54.539062 C 113.851562 54.539062 114.382812 54.867188 114.710938 55.5 C 115.019531 56.15625 115.183594 57.074219 115.183594 58.261719 C 115.183594 59.546875 115.039062 60.488281 114.730469 61.121094 C 114.425781 61.757812 113.871094 62.085938 113.113281 62.085938 C 112.355469 62.085938 111.800781 61.734375 111.472656 61.042969 "/>
<path style=" stroke:none;fill-rule:nonzero;fill:rgb(10.112%,40.585327%,73.280334%);fill-opacity:1;" d="M 127.558594 61.082031 C 127.210938 60.40625 127.046875 59.488281 127.046875 58.324219 C 127.046875 57.15625 127.210938 56.238281 127.558594 55.5625 C 127.886719 54.886719 128.4375 54.539062 129.195312 54.539062 C 129.976562 54.539062 130.511719 54.867188 130.816406 55.5 C 131.125 56.132812 131.269531 57.09375 131.269531 58.363281 C 131.269531 59.570312 131.105469 60.488281 130.796875 61.121094 C 130.46875 61.757812 129.933594 62.085938 129.179688 62.085938 C 128.417969 62.085938 127.886719 61.757812 127.558594 61.082031 "/>
<path style=" stroke:none;fill-rule:nonzero;fill:rgb(10.112%,40.585327%,73.280334%);fill-opacity:1;" d="M 139.1875 61.082031 C 138.839844 60.40625 138.675781 59.488281 138.675781 58.324219 C 138.675781 57.15625 138.839844 56.238281 139.1875 55.5625 C 139.515625 54.886719 140.066406 54.539062 140.824219 54.539062 C 141.605469 54.539062 142.140625 54.867188 142.445312 55.5 C 142.753906 56.132812 142.894531 57.09375 142.894531 58.363281 C 142.894531 59.570312 142.734375 60.488281 142.425781 61.121094 C 142.097656 61.757812 141.5625 62.085938 140.808594 62.085938 C 140.046875 62.085938 139.515625 61.757812 139.1875 61.082031 "/>
<path style=" stroke:none;fill-rule:nonzero;fill:rgb(10.112%,40.585327%,73.280334%);fill-opacity:1;" d="M 63.773438 82.847656 L 63.773438 83.789062 C 63.773438 84.625 63.589844 85.300781 63.21875 85.8125 C 62.828125 86.34375 62.277344 86.609375 61.519531 86.609375 C 60.964844 86.609375 60.554688 86.445312 60.269531 86.140625 C 59.980469 85.832031 59.835938 85.402344 59.835938 84.890625 C 59.835938 84.199219 60.101562 83.6875 60.65625 83.339844 C 61.210938 82.988281 62.011719 82.828125 63.054688 82.828125 C 63.179688 82.828125 63.300781 82.828125 63.445312 82.828125 C 63.589844 82.828125 63.710938 82.828125 63.773438 82.847656 "/>
<path style=" stroke:none;fill-rule:nonzero;fill:rgb(10.112%,40.585327%,73.280334%);fill-opacity:1;" d="M 82.765625 85.503906 C 82.414062 84.910156 82.230469 83.972656 82.230469 82.683594 C 82.230469 81.476562 82.394531 80.578125 82.722656 79.945312 C 83.03125 79.332031 83.5625 79.023438 84.300781 79.003906 C 84.996094 79.003906 85.53125 79.308594 85.917969 79.925781 C 86.289062 80.535156 86.472656 81.457031 86.472656 82.664062 C 86.472656 83.929688 86.289062 84.871094 85.9375 85.484375 C 85.589844 86.117188 85.015625 86.425781 84.21875 86.425781 C 83.601562 86.425781 83.109375 86.117188 82.765625 85.503906 "/>
<path style=" stroke:none;fill-rule:nonzero;fill:rgb(10.112%,40.585327%,73.280334%);fill-opacity:1;" d="M 93.640625 81.886719 C 93.660156 80.925781 93.847656 80.167969 94.195312 79.636719 C 94.542969 79.128906 95.035156 78.859375 95.652344 78.859375 C 96.921875 78.859375 97.554688 79.863281 97.554688 81.886719 L 93.640625 81.886719 "/>
<path style=" stroke:none;fill-rule:nonzero;fill:rgb(10.112%,40.585327%,73.280334%);fill-opacity:1;" d="M 138.742188 82.847656 L 138.742188 83.789062 C 138.742188 84.625 138.558594 85.300781 138.1875 85.8125 C 137.800781 86.34375 137.246094 86.609375 136.488281 86.609375 C 135.933594 86.609375 135.523438 86.445312 135.238281 86.140625 C 134.949219 85.832031 134.808594 85.402344 134.808594 84.890625 C 134.808594 84.199219 135.074219 83.6875 135.628906 83.339844 C 136.179688 82.988281 136.980469 82.828125 138.023438 82.828125 C 138.148438 82.828125 138.269531 82.828125 138.414062 82.828125 C 138.558594 82.828125 138.679688 82.828125 138.742188 82.847656 "/>
<path style=" stroke:none;fill-rule:nonzero;fill:rgb(10.112%,40.585327%,73.280334%);fill-opacity:1;" d="M 112.980469 107.546875 C 112.726562 106.746094 112.589844 105.585938 112.589844 104.105469 C 112.589844 102.621094 112.726562 101.464844 112.980469 100.648438 C 113.238281 99.828125 113.71875 99.417969 114.382812 99.417969 C 115.066406 99.417969 115.542969 99.828125 115.800781 100.628906 C 116.058594 101.449219 116.191406 102.605469 116.191406 104.105469 C 116.191406 105.585938 116.058594 106.746094 115.800781 107.546875 C 115.527344 108.363281 115.050781 108.773438 114.382812 108.773438 C 113.71875 108.773438 113.238281 108.363281 112.980469 107.546875 "/>
<path style=" stroke:none;fill-rule:nonzero;fill:rgb(10.112%,40.585327%,73.280334%);fill-opacity:1;" d="M 122.238281 107.546875 C 121.980469 106.746094 121.847656 105.585938 121.847656 104.105469 C 121.847656 102.621094 121.980469 101.464844 122.238281 100.648438 C 122.492188 99.828125 122.972656 99.417969 123.640625 99.417969 C 124.320312 99.417969 124.800781 99.828125 125.054688 100.628906 C 125.3125 101.449219 125.449219 102.605469 125.449219 104.105469 C 125.449219 105.585938 125.3125 106.746094 125.054688 107.546875 C 124.78125 108.363281 124.304688 108.773438 123.640625 108.773438 C 122.972656 108.773438 122.492188 108.363281 122.238281 107.546875 "/>
<path style=" stroke:none;fill-rule:nonzero;fill:rgb(100%,100%,100%);fill-opacity:1;" d="M 26.375 10.214844 L 35.949219 21.34375 C 36.460938 21.949219 35.921875 22.859375 35.128906 22.671875 L 27.984375 20.878906 L 28.804688 32.707031 L 22.6875 32.707031 L 23.503906 20.878906 L 16.382812 22.671875 C 15.613281 22.859375 15.027344 21.949219 15.566406 21.34375 L 25.136719 10.214844 C 25.441406 9.84375 26.046875 9.84375 26.375 10.214844 "/>
<path style=" stroke:none;fill-rule:nonzero;fill:rgb(100%,100%,100%);fill-opacity:1;" d="M 50.996094 26.605469 C 51.488281 27.21875 52.058594 27.667969 52.734375 27.976562 C 53.390625 28.300781 54.109375 28.445312 54.867188 28.445312 C 55.667969 28.445312 56.40625 28.300781 57.082031 27.996094 C 57.757812 27.691406 58.332031 27.238281 58.824219 26.628906 C 59.316406 26.035156 59.703125 25.257812 59.988281 24.335938 C 60.257812 23.417969 60.402344 22.3125 60.402344 21.066406 C 60.402344 19.859375 60.257812 18.816406 59.988281 17.917969 C 59.703125 17.019531 59.316406 16.261719 58.824219 15.648438 C 58.332031 15.054688 57.757812 14.585938 57.101562 14.277344 C 56.425781 13.972656 55.707031 13.828125 54.949219 13.828125 C 54.152344 13.828125 53.433594 13.972656 52.757812 14.277344 C 52.082031 14.585938 51.488281 15.035156 50.996094 15.628906 C 50.503906 16.242188 50.113281 17.019531 49.847656 17.9375 C 49.558594 18.859375 49.417969 19.960938 49.417969 21.210938 C 49.417969 22.414062 49.558594 23.457031 49.847656 24.359375 C 50.113281 25.257812 50.503906 26.015625 50.996094 26.605469 "/>
<path style=" stroke:none;fill-rule:nonzero;fill:rgb(100%,100%,100%);fill-opacity:1;" d="M 65.121094 23.644531 L 71.125 23.644531 L 71.125 22.925781 C 71.125 22.007812 71.023438 21.230469 70.839844 20.554688 C 70.65625 19.882812 70.386719 19.328125 70.039062 18.898438 C 69.691406 18.46875 69.261719 18.164062 68.789062 17.960938 C 68.296875 17.753906 67.765625 17.652344 67.191406 17.652344 C 66.535156 17.652344 65.941406 17.773438 65.429688 18.039062 C 64.898438 18.308594 64.445312 18.695312 64.097656 19.164062 C 63.75 19.65625 63.460938 20.230469 63.277344 20.902344 C 63.09375 21.578125 62.992188 22.3125 62.992188 23.109375 C 62.992188 23.867188 63.09375 24.582031 63.277344 25.238281 C 63.460938 25.890625 63.726562 26.441406 64.117188 26.914062 C 64.488281 27.382812 64.957031 27.753906 65.53125 28.019531 C 66.105469 28.300781 66.78125 28.425781 67.539062 28.425781 C 68.195312 28.425781 68.789062 28.363281 69.300781 28.222656 C 69.816406 28.078125 70.222656 27.933594 70.574219 27.792969 L 70.46875 26.015625 C 70.203125 26.199219 69.855469 26.382812 69.445312 26.566406 C 69.015625 26.75 68.503906 26.851562 67.886719 26.851562 C 66.90625 26.851562 66.207031 26.585938 65.777344 26.035156 C 65.347656 25.503906 65.121094 24.707031 65.121094 23.644531 "/>
<path style=" stroke:none;fill-rule:nonzero;fill:rgb(100%,100%,100%);fill-opacity:1;" d="M 74.246094 28.28125 L 76.378906 28.28125 L 76.378906 22.070312 C 76.378906 21.25 76.542969 20.597656 76.890625 20.125 C 77.21875 19.65625 77.710938 19.429688 78.386719 19.429688 C 78.9375 19.429688 79.328125 19.613281 79.59375 19.980469 C 79.839844 20.351562 79.964844 20.945312 79.964844 21.761719 L 79.964844 28.28125 L 82.09375 28.28125 L 82.09375 21.269531 C 82.09375 20.167969 81.847656 19.285156 81.355469 18.632812 C 80.863281 17.980469 80.085938 17.652344 79.019531 17.652344 C 78.40625 17.652344 77.871094 17.796875 77.402344 18.101562 C 76.929688 18.410156 76.5625 18.839844 76.292969 19.390625 L 76.253906 19.390625 C 76.253906 19.328125 76.253906 19.207031 76.253906 19.0625 C 76.234375 18.921875 76.234375 18.757812 76.214844 18.59375 C 76.191406 18.429688 76.191406 18.265625 76.191406 18.121094 C 76.171875 17.980469 76.171875 17.855469 76.171875 17.796875 L 74.164062 17.796875 C 74.183594 18.101562 74.207031 18.429688 74.226562 18.757812 C 74.246094 19.105469 74.246094 19.453125 74.246094 19.800781 L 74.246094 28.28125 "/>
<path style=" stroke:none;fill-rule:nonzero;fill:rgb(100%,100%,100%);fill-opacity:1;" d="M 85.355469 27.875 C 85.683594 28.019531 86.09375 28.160156 86.605469 28.261719 C 87.097656 28.363281 87.652344 28.425781 88.242188 28.425781 C 89.433594 28.425781 90.335938 28.140625 90.96875 27.546875 C 91.585938 26.953125 91.890625 26.199219 91.890625 25.257812 C 91.890625 24.625 91.707031 24.113281 91.359375 23.722656 C 90.988281 23.335938 90.496094 22.945312 89.863281 22.597656 L 88.941406 22.089844 C 88.46875 21.824219 88.121094 21.597656 87.855469 21.371094 C 87.589844 21.167969 87.464844 20.882812 87.464844 20.535156 C 87.464844 20.167969 87.589844 19.859375 87.855469 19.636719 C 88.121094 19.410156 88.511719 19.308594 89.042969 19.308594 C 89.472656 19.308594 89.882812 19.347656 90.230469 19.429688 C 90.578125 19.53125 90.90625 19.636719 91.195312 19.757812 L 91.296875 18.039062 C 91.074219 17.960938 90.765625 17.878906 90.355469 17.773438 C 89.925781 17.691406 89.433594 17.652344 88.878906 17.652344 C 88.347656 17.652344 87.875 17.734375 87.445312 17.898438 C 87.015625 18.0625 86.644531 18.285156 86.339844 18.550781 C 86.03125 18.839844 85.785156 19.164062 85.621094 19.511719 C 85.457031 19.882812 85.375 20.269531 85.375 20.65625 C 85.375 21.027344 85.4375 21.351562 85.539062 21.640625 C 85.640625 21.925781 85.785156 22.167969 85.96875 22.394531 C 86.152344 22.621094 86.359375 22.804688 86.625 22.96875 C 86.890625 23.152344 87.179688 23.316406 87.507812 23.476562 L 88.613281 24.03125 C 89.085938 24.257812 89.410156 24.5 89.59375 24.746094 C 89.761719 24.992188 89.84375 25.257812 89.84375 25.523438 C 89.84375 25.929688 89.679688 26.238281 89.351562 26.441406 C 89.023438 26.667969 88.574219 26.769531 88.019531 26.769531 C 87.507812 26.769531 87.015625 26.6875 86.585938 26.503906 C 86.152344 26.339844 85.785156 26.175781 85.476562 26.035156 L 85.355469 27.875 "/>
<path style=" stroke:none;fill-rule:nonzero;fill:rgb(100%,100%,100%);fill-opacity:1;" d="M 95.121094 28.28125 L 97.25 28.28125 L 97.25 17.796875 L 95.121094 17.796875 L 95.121094 28.28125 "/>
<path style=" stroke:none;fill-rule:nonzero;fill:rgb(100%,100%,100%);fill-opacity:1;" d="M 95.058594 15.691406 L 97.3125 15.691406 L 97.3125 13.421875 L 95.058594 13.421875 L 95.058594 15.691406 "/>
<path style=" stroke:none;fill-rule:nonzero;fill:rgb(100%,100%,100%);fill-opacity:1;" d="M 100.824219 28.28125 L 102.957031 28.28125 L 102.957031 22.070312 C 102.957031 21.25 103.121094 20.597656 103.46875 20.125 C 103.796875 19.65625 104.289062 19.429688 104.964844 19.429688 C 105.519531 19.429688 105.90625 19.613281 106.175781 19.980469 C 106.421875 20.351562 106.542969 20.945312 106.542969 21.761719 L 106.542969 28.28125 L 108.675781 28.28125 L 108.675781 21.269531 C 108.675781 20.167969 108.429688 19.285156 107.9375 18.632812 C 107.445312 17.980469 106.667969 17.652344 105.601562 17.652344 C 104.984375 17.652344 104.453125 17.796875 103.980469 18.101562 C 103.511719 18.410156 103.140625 18.839844 102.875 19.390625 L 102.835938 19.390625 C 102.835938 19.328125 102.835938 19.207031 102.835938 19.0625 C 102.8125 18.921875 102.8125 18.757812 102.792969 18.59375 C 102.773438 18.429688 102.773438 18.265625 102.773438 18.121094 C 102.753906 17.980469 102.753906 17.855469 102.753906 17.796875 L 100.742188 17.796875 C 100.765625 18.101562 100.785156 18.429688 100.808594 18.757812 C 100.824219 19.105469 100.824219 19.453125 100.824219 19.800781 L 100.824219 28.28125 "/>
<path style=" stroke:none;fill-rule:nonzero;fill:rgb(100%,100%,100%);fill-opacity:1;" d="M 112.179688 30.183594 L 112.058594 32.167969 C 112.40625 32.308594 112.894531 32.453125 113.511719 32.59375 C 114.128906 32.738281 114.761719 32.820312 115.394531 32.820312 C 116.953125 32.820312 118.121094 32.390625 118.902344 31.554688 C 119.679688 30.714844 120.070312 29.507812 120.070312 27.957031 L 120.070312 19.574219 C 120.070312 19.265625 120.089844 18.980469 120.109375 18.675781 C 120.132812 18.367188 120.132812 18.082031 120.152344 17.796875 L 118.183594 17.796875 C 118.183594 17.855469 118.183594 17.980469 118.183594 18.121094 C 118.164062 18.265625 118.164062 18.429688 118.144531 18.59375 C 118.121094 18.757812 118.121094 18.898438 118.121094 19.042969 C 118.101562 19.1875 118.101562 19.308594 118.101562 19.371094 L 118.039062 19.371094 C 117.773438 18.898438 117.425781 18.488281 116.996094 18.144531 C 116.566406 17.816406 116.03125 17.652344 115.378906 17.652344 C 114.742188 17.652344 114.167969 17.773438 113.695312 18.039062 C 113.226562 18.308594 112.816406 18.652344 112.507812 19.121094 C 112.199219 19.59375 111.953125 20.167969 111.8125 20.820312 C 111.648438 21.496094 111.566406 22.230469 111.566406 23.050781 C 111.566406 24.03125 111.667969 24.847656 111.894531 25.523438 C 112.097656 26.199219 112.363281 26.75 112.714844 27.160156 C 113.0625 27.589844 113.449219 27.875 113.882812 28.058594 C 114.3125 28.242188 114.761719 28.34375 115.214844 28.34375 C 115.929688 28.34375 116.503906 28.179688 116.933594 27.832031 C 117.363281 27.507812 117.714844 27.097656 117.980469 26.585938 L 118.019531 26.585938 L 118.019531 27.894531 C 118.019531 28.324219 117.980469 28.753906 117.898438 29.140625 C 117.796875 29.53125 117.652344 29.855469 117.445312 30.140625 C 117.222656 30.429688 116.933594 30.65625 116.566406 30.839844 C 116.195312 31 115.726562 31.082031 115.171875 31.082031 C 114.597656 31.082031 114.046875 30.980469 113.492188 30.796875 C 112.9375 30.59375 112.507812 30.386719 112.179688 30.183594 "/>
<path style=" stroke:none;fill-rule:nonzero;fill:rgb(100%,100%,100%);fill-opacity:1;" d="M 125.148438 23.644531 L 131.152344 23.644531 L 131.152344 22.925781 C 131.152344 22.007812 131.050781 21.230469 130.867188 20.554688 C 130.683594 19.882812 130.414062 19.328125 130.066406 18.898438 C 129.71875 18.46875 129.289062 18.164062 128.816406 17.960938 C 128.324219 17.753906 127.792969 17.652344 127.21875 17.652344 C 126.5625 17.652344 125.96875 17.773438 125.457031 18.039062 C 124.925781 18.308594 124.472656 18.695312 124.125 19.164062 C 123.777344 19.65625 123.488281 20.230469 123.304688 20.902344 C 123.121094 21.578125 123.019531 22.3125 123.019531 23.109375 C 123.019531 23.867188 123.121094 24.582031 123.304688 25.238281 C 123.488281 25.890625 123.757812 26.441406 124.144531 26.914062 C 124.515625 27.382812 124.984375 27.753906 125.558594 28.019531 C 126.132812 28.300781 126.808594 28.425781 127.566406 28.425781 C 128.222656 28.425781 128.816406 28.363281 129.328125 28.222656 C 129.84375 28.078125 130.253906 27.933594 130.601562 27.792969 L 130.496094 26.015625 C 130.230469 26.199219 129.882812 26.382812 129.472656 26.566406 C 129.042969 26.75 128.53125 26.851562 127.914062 26.851562 C 126.933594 26.851562 126.234375 26.585938 125.804688 26.035156 C 125.375 25.503906 125.148438 24.707031 125.148438 23.644531 "/>
<path style=" stroke:none;fill-rule:nonzero;fill:rgb(100%,100%,100%);fill-opacity:1;" d="M 134.273438 28.28125 L 136.402344 28.28125 L 136.402344 22.070312 C 136.402344 21.25 136.566406 20.597656 136.914062 20.125 C 137.242188 19.65625 137.734375 19.429688 138.414062 19.429688 C 138.964844 19.429688 139.355469 19.613281 139.621094 19.980469 C 139.867188 20.351562 139.992188 20.945312 139.992188 21.761719 L 139.992188 28.28125 L 142.121094 28.28125 L 142.121094 21.269531 C 142.121094 20.167969 141.875 19.285156 141.386719 18.632812 C 140.894531 17.980469 140.113281 17.652344 139.046875 17.652344 C 138.433594 17.652344 137.898438 17.796875 137.429688 18.101562 C 136.957031 18.410156 136.589844 18.839844 136.320312 19.390625 L 136.28125 19.390625 C 136.28125 19.328125 136.28125 19.207031 136.28125 19.0625 C 136.261719 18.921875 136.261719 18.757812 136.238281 18.59375 C 136.222656 18.429688 136.222656 18.265625 136.222656 18.121094 C 136.199219 17.980469 136.199219 17.855469 136.199219 17.796875 L 134.191406 17.796875 C 134.210938 18.101562 134.230469 18.429688 134.253906 18.757812 C 134.273438 19.105469 134.273438 19.453125 134.273438 19.800781 L 134.273438 28.28125 "/>
<path style=" stroke:none;fill-rule:nonzero;fill:rgb(0%,49.674988%,27.331543%);fill-opacity:1;" d="M 52.53125 25.238281 C 51.976562 24.257812 51.710938 22.90625 51.710938 21.210938 C 51.710938 20.167969 51.792969 19.285156 51.976562 18.570312 C 52.140625 17.855469 52.367188 17.265625 52.675781 16.8125 C 52.960938 16.386719 53.308594 16.058594 53.699219 15.851562 C 54.089844 15.671875 54.519531 15.566406 54.949219 15.566406 C 55.972656 15.566406 56.753906 16.058594 57.304688 17.039062 C 57.839844 18.019531 58.105469 19.371094 58.105469 21.066406 C 58.105469 22.109375 58.023438 22.988281 57.859375 23.703125 C 57.675781 24.417969 57.449219 25.011719 57.164062 25.441406 C 56.855469 25.890625 56.507812 26.21875 56.117188 26.402344 C 55.726562 26.605469 55.296875 26.707031 54.867188 26.707031 C 53.84375 26.707031 53.066406 26.21875 52.53125 25.238281 "/>
<path style=" stroke:none;fill-rule:nonzero;fill:rgb(0%,49.674988%,27.331543%);fill-opacity:1;" d="M 65.121094 22.191406 C 65.144531 21.230469 65.328125 20.472656 65.675781 19.941406 C 66.023438 19.429688 66.515625 19.164062 67.128906 19.164062 C 68.402344 19.164062 69.035156 20.167969 69.035156 22.191406 L 65.121094 22.191406 "/>
<path style=" stroke:none;fill-rule:nonzero;fill:rgb(0%,49.674988%,27.331543%);fill-opacity:1;" d="M 114.269531 25.808594 C 113.921875 25.214844 113.738281 24.277344 113.738281 22.988281 C 113.738281 21.78125 113.902344 20.882812 114.230469 20.246094 C 114.535156 19.636719 115.070312 19.328125 115.808594 19.308594 C 116.503906 19.308594 117.035156 19.613281 117.425781 20.230469 C 117.796875 20.839844 117.980469 21.761719 117.980469 22.96875 C 117.980469 24.234375 117.796875 25.175781 117.445312 25.789062 C 117.097656 26.421875 116.523438 26.730469 115.726562 26.730469 C 115.109375 26.730469 114.617188 26.421875 114.269531 25.808594 "/>
<path style=" stroke:none;fill-rule:nonzero;fill:rgb(0%,49.674988%,27.331543%);fill-opacity:1;" d="M 125.148438 22.191406 C 125.171875 21.230469 125.355469 20.472656 125.703125 19.941406 C 126.050781 19.429688 126.542969 19.164062 127.15625 19.164062 C 128.429688 19.164062 129.0625 20.167969 129.0625 22.191406 L 125.148438 22.191406 "/>
</g>
</svg>
