<?xml version="1.0" encoding="UTF-8"?>
<svg xmlns="http://www.w3.org/2000/svg" xmlns:xlink="http://www.w3.org/1999/xlink" width="115pt" height="114pt" viewBox="0 0 115 114" version="1.1">
<g id="surface1">
<path style=" stroke:none;fill-rule:nonzero;fill:rgb(10.112%,40.585327%,73.280334%);fill-opacity:1;" d="M 0.820312 113.871094 L 114.214844 113.871094 L 114.214844 0.476562 L 0.820312 0.476562 Z M 0.820312 113.871094 "/>
<path style=" stroke:none;fill-rule:nonzero;fill:rgb(100%,100%,100%);fill-opacity:1;" d="M 3.078125 105.945312 C 3.078125 109.074219 5.617188 111.613281 8.746094 111.613281 L 106.265625 111.613281 C 109.394531 111.613281 111.933594 109.074219 111.933594 105.945312 L 111.933594 8.425781 C 111.933594 5.296875 109.394531 2.757812 106.265625 2.757812 L 8.746094 2.757812 C 5.613281 2.757812 3.078125 5.296875 3.078125 8.425781 L 3.078125 105.945312 "/>
<path style=" stroke:none;fill-rule:nonzero;fill:rgb(10.112%,40.585327%,73.280334%);fill-opacity:1;" d="M 4.757812 105.917969 C 4.757812 108.109375 6.535156 109.886719 8.726562 109.886719 L 106.246094 109.886719 C 108.4375 109.886719 110.21875 108.109375 110.21875 105.917969 L 110.21875 8.394531 C 110.21875 6.203125 108.4375 4.425781 106.246094 4.425781 L 8.726562 4.425781 C 6.539062 4.425781 4.757812 6.203125 4.757812 8.394531 L 4.757812 105.917969 "/>
<path style=" stroke:none;fill-rule:nonzero;fill:rgb(100%,100%,100%);fill-opacity:1;" d="M 61.785156 22.5 L 74.015625 31.398438 L 14.96875 59.394531 L 26.113281 78.703125 L 79.882812 41.566406 L 81.472656 56.605469 C 81.597656 57.78125 82.597656 58.703125 83.808594 58.703125 C 84.722656 58.703125 85.523438 58.175781 85.90625 57.410156 L 102.785156 23.828125 C 102.949219 23.511719 103.035156 23.15625 103.035156 22.773438 C 103.035156 21.523438 102.0625 20.507812 100.832031 20.429688 L 63.304688 18.261719 C 63.257812 18.257812 63.214844 18.253906 63.167969 18.253906 C 61.871094 18.253906 60.820312 19.304688 60.820312 20.605469 C 60.820312 21.378906 61.199219 22.070312 61.785156 22.5 "/>
<path style=" stroke:none;fill-rule:nonzero;fill:rgb(100%,100%,100%);fill-opacity:1;" d="M 29.9375 87.164062 L 29.9375 96.039062 C 29.9375 96.714844 29.976562 97.292969 30.078125 97.769531 C 30.175781 98.269531 30.335938 98.726562 30.574219 99.164062 C 30.910156 99.800781 31.429688 100.296875 32.085938 100.65625 C 32.742188 101.03125 33.539062 101.210938 34.472656 101.210938 C 35.410156 101.210938 36.207031 101.03125 36.863281 100.65625 C 37.519531 100.277344 38.035156 99.78125 38.375 99.144531 C 38.613281 98.707031 38.773438 98.246094 38.871094 97.769531 C 38.972656 97.292969 39.011719 96.714844 39.011719 96.039062 L 39.011719 87.164062 L 36.863281 87.164062 L 36.863281 96.175781 C 36.863281 97.3125 36.664062 98.128906 36.265625 98.664062 C 35.847656 99.203125 35.25 99.480469 34.472656 99.480469 C 32.882812 99.480469 32.085938 98.386719 32.085938 96.175781 L 32.085938 87.164062 L 29.9375 87.164062 "/>
<path style=" stroke:none;fill-rule:nonzero;fill:rgb(100%,100%,100%);fill-opacity:1;" d="M 42.117188 100.613281 C 42.472656 100.816406 42.914062 100.953125 43.429688 101.070312 C 43.945312 101.171875 44.523438 101.210938 45.160156 101.210938 C 46.492188 101.210938 47.570312 100.851562 48.34375 100.136719 C 49.121094 99.421875 49.5 98.425781 49.5 97.152344 C 49.5 96.554688 49.417969 96.039062 49.238281 95.621094 C 49.0625 95.203125 48.800781 94.824219 48.503906 94.507812 C 48.207031 94.1875 47.847656 93.890625 47.429688 93.632812 C 47.011719 93.371094 46.574219 93.113281 46.117188 92.855469 C 45.777344 92.65625 45.480469 92.476562 45.238281 92.296875 C 44.980469 92.117188 44.78125 91.960938 44.644531 91.78125 C 44.484375 91.621094 44.363281 91.441406 44.304688 91.242188 C 44.246094 91.0625 44.207031 90.84375 44.207031 90.605469 C 44.207031 90.070312 44.386719 89.609375 44.742188 89.273438 C 45.101562 88.933594 45.597656 88.753906 46.253906 88.753906 C 46.753906 88.753906 47.230469 88.816406 47.648438 88.933594 C 48.066406 89.074219 48.421875 89.214844 48.742188 89.371094 L 48.800781 87.460938 C 48.542969 87.363281 48.164062 87.242188 47.707031 87.144531 C 47.230469 87.042969 46.691406 86.984375 46.097656 86.984375 C 45.539062 86.984375 45.019531 87.066406 44.523438 87.203125 C 44.027344 87.363281 43.589844 87.601562 43.210938 87.898438 C 42.832031 88.21875 42.535156 88.597656 42.316406 89.054688 C 42.097656 89.511719 41.976562 90.03125 41.976562 90.625 C 41.976562 91.242188 42.054688 91.738281 42.234375 92.15625 C 42.414062 92.578125 42.652344 92.953125 42.953125 93.253906 C 43.25 93.570312 43.589844 93.847656 44.007812 94.089844 C 44.40625 94.347656 44.84375 94.605469 45.300781 94.886719 C 45.675781 95.101562 45.996094 95.324219 46.253906 95.5 C 46.515625 95.699219 46.714844 95.898438 46.871094 96.078125 C 47.011719 96.257812 47.132812 96.457031 47.191406 96.65625 C 47.25 96.875 47.269531 97.09375 47.269531 97.351562 C 47.269531 97.988281 47.050781 98.484375 46.632812 98.863281 C 46.214844 99.242188 45.660156 99.441406 44.980469 99.441406 C 44.425781 99.441406 43.90625 99.34375 43.410156 99.144531 C 42.914062 98.964844 42.515625 98.765625 42.195312 98.566406 L 42.117188 100.613281 "/>
<path style=" stroke:none;fill-rule:nonzero;fill:rgb(100%,100%,100%);fill-opacity:1;" d="M 60.425781 100.753906 L 60.347656 98.726562 C 60.011719 98.945312 59.652344 99.101562 59.234375 99.222656 C 58.816406 99.34375 58.339844 99.402344 57.800781 99.402344 C 56.507812 99.402344 55.492188 98.945312 54.738281 98.007812 C 53.980469 97.074219 53.601562 95.71875 53.601562 93.90625 C 53.601562 93.03125 53.722656 92.277344 53.941406 91.621094 C 54.160156 90.984375 54.480469 90.445312 54.859375 90.03125 C 55.234375 89.609375 55.675781 89.3125 56.171875 89.09375 C 56.667969 88.894531 57.207031 88.792969 57.742188 88.792969 C 58.320312 88.792969 58.816406 88.875 59.234375 89.015625 C 59.652344 89.171875 60.03125 89.351562 60.347656 89.53125 L 60.425781 87.523438 C 60.128906 87.382812 59.730469 87.261719 59.234375 87.144531 C 58.71875 87.042969 58.160156 86.984375 57.5625 86.984375 C 56.589844 86.984375 55.734375 87.164062 54.957031 87.503906 C 54.179688 87.839844 53.542969 88.335938 53.007812 88.957031 C 52.46875 89.59375 52.050781 90.347656 51.773438 91.203125 C 51.476562 92.078125 51.335938 93.03125 51.335938 94.089844 C 51.335938 95.0625 51.476562 95.996094 51.734375 96.855469 C 51.992188 97.710938 52.371094 98.464844 52.886719 99.121094 C 53.40625 99.78125 54.0625 100.277344 54.859375 100.65625 C 55.65625 101.03125 56.589844 101.210938 57.660156 101.210938 C 58.179688 101.210938 58.675781 101.171875 59.175781 101.089844 C 59.671875 100.992188 60.089844 100.894531 60.425781 100.753906 "/>
<path style=" stroke:none;fill-rule:nonzero;fill:rgb(100%,100%,100%);fill-opacity:1;" d="M 62.445312 101.050781 L 64.59375 101.050781 L 64.59375 87.164062 L 62.445312 87.164062 L 62.445312 101.050781 "/>
<path style=" stroke:none;fill-rule:nonzero;fill:rgb(100%,100%,100%);fill-opacity:1;" d="M 69.519531 101.050781 L 71.667969 101.050781 L 71.667969 88.933594 L 74.792969 88.933594 L 74.792969 87.164062 L 66.375 87.164062 L 66.375 88.933594 L 69.519531 88.933594 L 69.519531 101.050781 "/>
<path style=" stroke:none;fill-rule:nonzero;fill:rgb(100%,100%,100%);fill-opacity:1;" d="M 73.570312 101.050781 L 75.71875 101.050781 L 76.773438 97.570312 L 81.808594 97.570312 L 82.863281 101.050781 L 85.09375 101.050781 L 80.574219 87.164062 L 78.226562 87.164062 L 73.570312 101.050781 "/>
<path style=" stroke:none;fill-rule:nonzero;fill:rgb(10.112%,40.585327%,73.280334%);fill-opacity:1;" d="M 77.289062 95.839844 L 79.34375 89.132812 L 79.382812 89.132812 L 81.3125 95.839844 L 77.289062 95.839844 "/>
</g>
</svg>
