<?xml version="1.0" encoding="UTF-8"?>
<svg xmlns="http://www.w3.org/2000/svg" xmlns:xlink="http://www.w3.org/1999/xlink" width="87pt" height="94pt" viewBox="0 0 87 94" version="1.1">
<g id="surface1">
<path style=" stroke:none;fill-rule:nonzero;fill:rgb(0%,49.674988%,27.331543%);fill-opacity:1;" d="M 1 93.945312 L 86.039062 93.945312 L 86.039062 0.402344 L 1 0.402344 Z M 1 93.945312 "/>
<path style=" stroke:none;fill-rule:nonzero;fill:rgb(100%,100%,100%);fill-opacity:1;" d="M 2.359375 87.484375 L 2.359375 6.863281 C 2.359375 4.042969 4.644531 1.761719 7.460938 1.761719 L 79.578125 1.761719 C 82.398438 1.761719 84.679688 4.042969 84.679688 6.863281 L 84.679688 87.484375 C 84.679688 90.296875 82.394531 92.582031 79.578125 92.582031 L 7.464844 92.582031 C 4.644531 92.582031 2.359375 90.304688 2.359375 87.484375 "/>
<path style=" stroke:none;fill-rule:nonzero;fill:rgb(0%,49.674988%,27.331543%);fill-opacity:1;" d="M 3.71875 87.480469 L 3.71875 6.859375 C 3.71875 4.796875 5.398438 3.117188 7.464844 3.117188 L 79.578125 3.117188 C 81.644531 3.117188 83.316406 4.796875 83.316406 6.867188 L 83.316406 87.484375 C 83.316406 89.546875 81.648438 91.222656 79.578125 91.222656 L 7.460938 91.222656 C 5.398438 91.222656 3.71875 89.546875 3.71875 87.480469 "/>
<path style=" stroke:none;fill-rule:nonzero;fill:rgb(100%,100%,100%);fill-opacity:1;" d="M 70.167969 15.980469 L 65.484375 30.394531 C 65.398438 30.667969 65.144531 30.851562 64.859375 30.847656 C 64.574219 30.839844 64.324219 30.652344 64.242188 30.378906 L 62.515625 24.554688 L 58.980469 26.597656 C 51.910156 30.660156 47.585938 38.175781 47.585938 46.332031 L 47.585938 65.042969 L 39.421875 65.042969 L 39.421875 46.332031 C 39.421875 38.191406 35.078125 30.667969 28.027344 26.597656 L 24.492188 24.554688 L 22.765625 30.378906 C 22.683594 30.652344 22.433594 30.839844 22.148438 30.84375 C 21.863281 30.851562 21.605469 30.664062 21.515625 30.394531 L 16.835938 15.980469 C 16.714844 15.609375 16.941406 15.21875 17.320312 15.136719 L 32.140625 11.988281 C 32.421875 11.929688 32.707031 12.058594 32.847656 12.308594 C 32.984375 12.554688 32.949219 12.867188 32.753906 13.078125 L 28.570312 17.484375 L 32.105469 19.523438 C 36.859375 22.269531 40.792969 26.179688 43.511719 30.949219 C 46.238281 26.183594 50.183594 22.234375 54.945312 19.496094 L 58.433594 17.484375 L 54.253906 13.078125 C 54.054688 12.871094 54.015625 12.558594 54.15625 12.308594 C 54.296875 12.058594 54.582031 11.929688 54.859375 11.988281 L 69.683594 15.136719 C 70.0625 15.21875 70.289062 15.609375 70.167969 15.980469 "/>
<path style=" stroke:none;fill-rule:nonzero;fill:rgb(100%,100%,100%);fill-opacity:1;" d="M 19.25 85.125 L 19.25 75.332031 L 17.699219 76.917969 L 16.8125 75.640625 L 19.472656 73.21875 L 21.058594 73.21875 L 21.058594 85.125 L 19.25 85.125 "/>
<path style=" stroke:none;fill-rule:nonzero;fill:rgb(100%,100%,100%);fill-opacity:1;" d="M 23.71875 84.785156 L 23.820312 83.179688 C 24.09375 83.335938 24.417969 83.472656 24.773438 83.589844 C 25.132812 83.710938 25.527344 83.777344 25.953125 83.777344 C 26.6875 83.777344 27.265625 83.539062 27.691406 83.0625 C 28.117188 82.601562 28.324219 82.003906 28.324219 81.269531 C 28.324219 80.570312 28.117188 79.988281 27.710938 79.566406 C 27.28125 79.136719 26.667969 78.914062 25.851562 78.914062 C 25.457031 78.914062 25.097656 78.949219 24.792969 79.035156 C 24.484375 79.121094 24.175781 79.207031 23.886719 79.289062 L 23.886719 73.21875 L 29.636719 73.21875 L 29.636719 74.667969 L 25.558594 74.667969 L 25.558594 77.667969 C 25.714844 77.617188 25.917969 77.570312 26.15625 77.550781 C 26.378906 77.515625 26.636719 77.5 26.90625 77.5 C 27.351562 77.5 27.777344 77.585938 28.1875 77.738281 C 28.578125 77.890625 28.9375 78.113281 29.226562 78.421875 C 29.519531 78.726562 29.757812 79.101562 29.945312 79.566406 C 30.113281 80.007812 30.199219 80.535156 30.199219 81.117188 C 30.199219 82.398438 29.859375 83.402344 29.175781 84.152344 C 28.496094 84.886719 27.523438 85.261719 26.257812 85.261719 C 25.765625 85.261719 25.285156 85.210938 24.859375 85.109375 C 24.417969 85.023438 24.042969 84.90625 23.71875 84.785156 "/>
<path style=" stroke:none;fill-rule:nonzero;fill:rgb(100%,100%,100%);fill-opacity:1;" d="M 32.808594 83.523438 C 32.519531 82.976562 32.3125 82.328125 32.195312 81.578125 C 32.074219 80.84375 32.007812 80.042969 32.007812 79.171875 C 32.007812 78.300781 32.074219 77.5 32.195312 76.75 C 32.3125 76.015625 32.519531 75.367188 32.808594 74.820312 C 33.097656 74.277344 33.457031 73.847656 33.917969 73.523438 C 34.378906 73.21875 34.941406 73.0625 35.605469 73.0625 C 36.269531 73.0625 36.835938 73.21875 37.292969 73.523438 C 37.757812 73.847656 38.132812 74.277344 38.421875 74.820312 C 38.710938 75.367188 38.914062 76.015625 39.035156 76.75 C 39.15625 77.5 39.222656 78.300781 39.222656 79.171875 C 39.222656 80.042969 39.15625 80.84375 39.035156 81.578125 C 38.914062 82.308594 38.710938 82.960938 38.421875 83.503906 C 38.132812 84.050781 37.757812 84.476562 37.292969 84.785156 C 36.835938 85.109375 36.269531 85.261719 35.605469 85.261719 C 34.941406 85.261719 34.394531 85.109375 33.933594 84.800781 C 33.472656 84.496094 33.097656 84.070312 32.808594 83.523438 "/>
<path style=" stroke:none;fill-rule:nonzero;fill:rgb(100%,100%,100%);fill-opacity:1;" d="M 42.054688 83.523438 C 41.765625 82.976562 41.558594 82.328125 41.441406 81.578125 C 41.320312 80.84375 41.253906 80.042969 41.253906 79.171875 C 41.253906 78.300781 41.320312 77.5 41.441406 76.75 C 41.558594 76.015625 41.765625 75.367188 42.054688 74.820312 C 42.34375 74.277344 42.703125 73.847656 43.164062 73.523438 C 43.625 73.21875 44.1875 73.0625 44.851562 73.0625 C 45.519531 73.0625 46.082031 73.21875 46.542969 73.523438 C 47.003906 73.847656 47.378906 74.277344 47.667969 74.820312 C 47.957031 75.367188 48.160156 76.015625 48.28125 76.75 C 48.402344 77.5 48.46875 78.300781 48.46875 79.171875 C 48.46875 80.042969 48.402344 80.84375 48.28125 81.578125 C 48.160156 82.308594 47.957031 82.960938 47.667969 83.503906 C 47.378906 84.050781 47.003906 84.476562 46.542969 84.785156 C 46.082031 85.109375 45.519531 85.261719 44.851562 85.261719 C 44.1875 85.261719 43.640625 85.109375 43.179688 84.800781 C 42.71875 84.496094 42.34375 84.070312 42.054688 83.523438 "/>
<path style=" stroke:none;fill-rule:nonzero;fill:rgb(100%,100%,100%);fill-opacity:1;" d="M 59.375 85.125 L 59.375 78.027344 C 59.375 77.703125 59.375 77.414062 59.355469 77.140625 C 59.339844 76.867188 59.324219 76.613281 59.304688 76.371094 L 61.0625 76.371094 C 61.0625 76.425781 61.0625 76.527344 61.082031 76.648438 C 61.082031 76.765625 61.082031 76.902344 61.097656 77.039062 C 61.097656 77.175781 61.097656 77.3125 61.113281 77.429688 C 61.113281 77.570312 61.113281 77.667969 61.113281 77.722656 L 61.148438 77.722656 C 61.335938 77.292969 61.628906 76.953125 61.984375 76.664062 C 62.34375 76.390625 62.785156 76.253906 63.332031 76.253906 C 63.621094 76.253906 63.894531 76.289062 64.117188 76.371094 C 64.339844 76.460938 64.542969 76.5625 64.714844 76.679688 C 64.886719 76.816406 65.039062 76.96875 65.15625 77.125 C 65.277344 77.292969 65.378906 77.464844 65.464844 77.636719 C 65.6875 77.277344 65.960938 76.953125 66.320312 76.664062 C 66.675781 76.390625 67.136719 76.253906 67.699219 76.253906 C 68.554688 76.253906 69.183594 76.527344 69.609375 77.054688 C 70.019531 77.585938 70.222656 78.371094 70.222656 79.394531 L 70.222656 85.125 L 68.449219 85.125 L 68.449219 79.359375 C 68.449219 78.285156 68.042969 77.738281 67.222656 77.738281 C 66.726562 77.738281 66.335938 77.910156 66.078125 78.269531 C 65.824219 78.625 65.6875 79.121094 65.6875 79.769531 L 65.6875 85.125 L 63.914062 85.125 L 63.914062 79.359375 C 63.914062 78.285156 63.503906 77.738281 62.683594 77.738281 C 62.191406 77.738281 61.796875 77.910156 61.539062 78.269531 C 61.285156 78.625 61.148438 79.121094 61.148438 79.769531 L 61.148438 85.125 L 59.375 85.125 "/>
<path style=" stroke:none;fill-rule:nonzero;fill:rgb(0%,49.674988%,27.331543%);fill-opacity:1;" d="M 34.207031 82.617188 C 34.464844 83.4375 34.941406 83.847656 35.605469 83.847656 C 36.269531 83.847656 36.75 83.4375 37.023438 82.617188 C 37.277344 81.816406 37.414062 80.65625 37.414062 79.171875 C 37.414062 77.667969 37.277344 76.511719 37.023438 75.691406 C 36.765625 74.890625 36.289062 74.480469 35.605469 74.480469 C 34.941406 74.480469 34.464844 74.890625 34.207031 75.707031 C 33.949219 76.527344 33.816406 77.6875 33.816406 79.171875 C 33.816406 80.65625 33.949219 81.816406 34.207031 82.617188 "/>
<path style=" stroke:none;fill-rule:nonzero;fill:rgb(0%,49.674988%,27.331543%);fill-opacity:1;" d="M 43.453125 82.617188 C 43.710938 83.4375 44.1875 83.847656 44.851562 83.847656 C 45.519531 83.847656 45.996094 83.4375 46.269531 82.617188 C 46.523438 81.816406 46.660156 80.65625 46.660156 79.171875 C 46.660156 77.667969 46.523438 76.511719 46.269531 75.691406 C 46.011719 74.890625 45.535156 74.480469 44.851562 74.480469 C 44.1875 74.480469 43.710938 74.890625 43.453125 75.707031 C 43.199219 76.527344 43.0625 77.6875 43.0625 79.171875 C 43.0625 80.65625 43.199219 81.816406 43.453125 82.617188 "/>
</g>
</svg>
