<?xml version="1.0" encoding="UTF-8"?>
<svg xmlns="http://www.w3.org/2000/svg" xmlns:xlink="http://www.w3.org/1999/xlink" width="69pt" height="44pt" viewBox="0 0 69 44" version="1.1">
<g id="surface1">
<path style=" stroke:none;fill-rule:nonzero;fill:rgb(100%,100%,100%);fill-opacity:1;" d="M 0.449219 43.433594 L 68.480469 43.433594 L 68.480469 0.914062 L 0.449219 0.914062 Z M 0.449219 43.433594 "/>
<path style="fill:none;stroke-width:2.835;stroke-linecap:butt;stroke-linejoin:round;stroke:rgb(13.729858%,12.159729%,12.548828%);stroke-opacity:1;stroke-miterlimit:4;" d="M 4.492188 5.664062 L 684.804688 5.664062 L 684.804688 430.859375 L 4.492188 430.859375 L 4.492188 5.664062 " transform="matrix(0.1,0,0,-0.1,0,44)"/>
<path style=" stroke:none;fill-rule:nonzero;fill:rgb(13.729858%,12.159729%,12.548828%);fill-opacity:1;" d="M 1.792969 38.640625 C 1.792969 40.519531 3.316406 42.042969 5.199219 42.042969 L 63.703125 42.042969 C 65.582031 42.042969 67.105469 40.519531 67.105469 38.640625 L 67.105469 5.644531 C 67.105469 3.765625 65.582031 2.242188 63.703125 2.242188 L 5.199219 2.242188 C 3.316406 2.242188 1.792969 3.765625 1.792969 5.644531 L 1.792969 38.640625 "/>
<path style=" stroke:none;fill-rule:nonzero;fill:rgb(100%,100%,100%);fill-opacity:1;" d="M 5.183594 3.273438 C 3.867188 3.273438 2.804688 4.339844 2.804688 5.65625 L 2.804688 38.652344 C 2.804688 39.964844 3.867188 41.03125 5.183594 41.03125 L 63.691406 41.03125 C 65.007812 41.03125 66.074219 39.964844 66.074219 38.652344 L 66.074219 5.65625 C 66.074219 4.339844 65.007812 3.273438 63.691406 3.273438 L 5.183594 3.273438 "/>
<path style=" stroke:none;fill-rule:nonzero;fill:rgb(13.729858%,12.159729%,12.548828%);fill-opacity:1;" d="M 16.277344 18.902344 L 17.753906 18.902344 L 17.753906 15.039062 L 18.640625 15.039062 C 19.636719 15.039062 20.398438 14.792969 20.917969 14.289062 C 21.421875 13.796875 21.679688 13.089844 21.679688 12.175781 C 21.679688 11.261719 21.421875 10.566406 20.902344 10.085938 C 20.386719 9.609375 19.675781 9.378906 18.789062 9.378906 L 16.277344 9.378906 L 16.277344 18.902344 "/>
<path style=" stroke:none;fill-rule:nonzero;fill:rgb(13.729858%,12.159729%,12.548828%);fill-opacity:1;" d="M 23.238281 18.152344 C 23.496094 18.4375 23.8125 18.65625 24.179688 18.792969 C 24.535156 18.929688 24.917969 18.996094 25.328125 18.996094 C 25.734375 18.996094 26.117188 18.929688 26.484375 18.792969 C 26.839844 18.65625 27.15625 18.4375 27.414062 18.152344 C 27.671875 17.863281 27.890625 17.496094 28.042969 17.046875 C 28.191406 16.59375 28.273438 16.035156 28.273438 15.394531 C 28.273438 14.765625 28.191406 14.222656 28.042969 13.769531 C 27.890625 13.320312 27.671875 12.9375 27.414062 12.652344 C 27.15625 12.367188 26.839844 12.148438 26.484375 12.011719 C 26.117188 11.875 25.734375 11.804688 25.328125 11.804688 C 24.917969 11.804688 24.535156 11.875 24.179688 12.011719 C 23.8125 12.148438 23.496094 12.367188 23.238281 12.652344 C 22.980469 12.9375 22.761719 13.320312 22.609375 13.769531 C 22.460938 14.222656 22.378906 14.765625 22.378906 15.394531 C 22.378906 16.035156 22.460938 16.59375 22.609375 17.046875 C 22.761719 17.496094 22.980469 17.863281 23.238281 18.152344 "/>
<path style=" stroke:none;fill-rule:nonzero;fill:rgb(13.729858%,12.159729%,12.548828%);fill-opacity:1;" d="M 30.226562 18.902344 L 31.648438 18.902344 L 31.648438 8.667969 L 30.226562 8.667969 L 30.226562 18.902344 "/>
<path style=" stroke:none;fill-rule:nonzero;fill:rgb(13.729858%,12.159729%,12.548828%);fill-opacity:1;" d="M 34.015625 18.902344 L 35.433594 18.902344 L 35.433594 11.902344 L 34.015625 11.902344 L 34.015625 18.902344 "/>
<path style=" stroke:none;fill-rule:nonzero;fill:rgb(13.729858%,12.159729%,12.548828%);fill-opacity:1;" d="M 33.972656 10.496094 L 35.472656 10.496094 L 35.472656 8.980469 L 33.972656 8.980469 L 33.972656 10.496094 "/>
<path style=" stroke:none;fill-rule:nonzero;fill:rgb(13.729858%,12.159729%,12.548828%);fill-opacity:1;" d="M 37.453125 18.902344 L 42.078125 18.902344 L 42.078125 17.769531 L 38.914062 17.769531 L 41.996094 13.144531 L 41.996094 11.902344 L 37.550781 11.902344 L 37.550781 13.035156 L 40.566406 13.035156 L 37.453125 17.648438 L 37.453125 18.902344 "/>
<path style=" stroke:none;fill-rule:nonzero;fill:rgb(13.729858%,12.159729%,12.548828%);fill-opacity:1;" d="M 45.132812 15.804688 L 49.128906 15.804688 L 49.128906 15.328125 C 49.128906 14.714844 49.058594 14.195312 48.9375 13.742188 C 48.816406 13.292969 48.636719 12.925781 48.40625 12.636719 C 48.171875 12.351562 47.886719 12.148438 47.574219 12.011719 C 47.246094 11.875 46.890625 11.804688 46.507812 11.804688 C 46.070312 11.804688 45.675781 11.890625 45.335938 12.066406 C 44.980469 12.242188 44.679688 12.503906 44.449219 12.816406 C 44.214844 13.144531 44.023438 13.527344 43.902344 13.976562 C 43.78125 14.425781 43.710938 14.917969 43.710938 15.449219 C 43.710938 15.953125 43.78125 16.433594 43.902344 16.867188 C 44.023438 17.304688 44.203125 17.671875 44.460938 17.988281 C 44.707031 18.300781 45.019531 18.546875 45.402344 18.722656 C 45.785156 18.914062 46.234375 18.996094 46.738281 18.996094 C 47.175781 18.996094 47.574219 18.957031 47.914062 18.859375 C 48.253906 18.765625 48.527344 18.667969 48.761719 18.574219 L 48.691406 17.386719 C 48.515625 17.511719 48.28125 17.632812 48.007812 17.757812 C 47.722656 17.878906 47.382812 17.945312 46.972656 17.945312 C 46.316406 17.945312 45.855469 17.769531 45.566406 17.402344 C 45.28125 17.046875 45.132812 16.515625 45.132812 15.804688 "/>
<path style=" stroke:none;fill-rule:nonzero;fill:rgb(13.729858%,12.159729%,12.548828%);fill-opacity:1;" d="M 51.195312 18.902344 L 52.613281 18.902344 L 52.613281 11.902344 L 51.195312 11.902344 L 51.195312 18.902344 "/>
<path style=" stroke:none;fill-rule:nonzero;fill:rgb(13.729858%,12.159729%,12.548828%);fill-opacity:1;" d="M 51.152344 10.496094 L 52.652344 10.496094 L 52.652344 8.980469 L 51.152344 8.980469 L 51.152344 10.496094 "/>
<path style=" stroke:none;fill-rule:nonzero;fill:rgb(13.729858%,12.159729%,12.548828%);fill-opacity:1;" d="M 18.933594 30.910156 C 18.46875 31.113281 18.085938 31.378906 17.800781 31.699219 C 17.515625 32.035156 17.371094 32.476562 17.371094 33.035156 C 17.371094 33.359375 17.429688 33.667969 17.550781 33.945312 C 17.65625 34.21875 17.824219 34.46875 18.039062 34.671875 C 18.253906 34.875 18.515625 35.042969 18.828125 35.148438 C 19.136719 35.269531 19.484375 35.328125 19.878906 35.328125 C 20.246094 35.328125 20.59375 35.28125 20.917969 35.164062 C 21.226562 35.054688 21.488281 34.910156 21.71875 34.707031 C 21.945312 34.507812 22.109375 34.265625 22.242188 33.980469 C 22.359375 33.695312 22.421875 33.371094 22.421875 33.011719 C 22.421875 32.488281 22.277344 32.046875 21.992188 31.6875 C 21.691406 31.34375 21.308594 31.066406 20.84375 30.863281 C 21.296875 30.636719 21.644531 30.339844 21.871094 29.96875 C 22.097656 29.609375 22.21875 29.226562 22.21875 28.824219 C 22.21875 28.523438 22.160156 28.25 22.050781 27.996094 C 21.929688 27.746094 21.765625 27.53125 21.5625 27.351562 C 21.359375 27.175781 21.109375 27.042969 20.832031 26.933594 C 20.546875 26.839844 20.234375 26.792969 19.902344 26.792969 C 19.542969 26.792969 19.21875 26.839844 18.933594 26.949219 C 18.648438 27.054688 18.410156 27.210938 18.207031 27.402344 C 18.003906 27.59375 17.847656 27.820312 17.742188 28.070312 C 17.632812 28.332031 17.574219 28.617188 17.574219 28.917969 C 17.574219 29.347656 17.679688 29.730469 17.90625 30.0625 C 18.136719 30.410156 18.46875 30.683594 18.933594 30.910156 "/>
<path style=" stroke:none;fill-rule:nonzero;fill:rgb(13.729858%,12.159729%,12.548828%);fill-opacity:1;" d="M 24.464844 34.113281 C 24.664062 34.492188 24.929688 34.792969 25.25 35.007812 C 25.574219 35.222656 25.957031 35.328125 26.421875 35.328125 C 26.886719 35.328125 27.28125 35.222656 27.601562 34.996094 C 27.925781 34.78125 28.1875 34.480469 28.390625 34.101562 C 28.59375 33.71875 28.738281 33.261719 28.820312 32.75 C 28.90625 32.238281 28.953125 31.675781 28.953125 31.066406 C 28.953125 30.457031 28.90625 29.894531 28.820312 29.371094 C 28.738281 28.859375 28.59375 28.402344 28.390625 28.023438 C 28.1875 27.640625 27.925781 27.339844 27.601562 27.113281 C 27.28125 26.898438 26.886719 26.792969 26.421875 26.792969 C 25.957031 26.792969 25.5625 26.898438 25.238281 27.113281 C 24.917969 27.339844 24.664062 27.640625 24.464844 28.023438 C 24.261719 28.402344 24.117188 28.859375 24.03125 29.371094 C 23.949219 29.894531 23.902344 30.457031 23.902344 31.066406 C 23.902344 31.675781 23.949219 32.238281 24.03125 32.75 C 24.117188 33.277344 24.261719 33.730469 24.464844 34.113281 "/>
<path style=" stroke:none;fill-rule:nonzero;fill:rgb(13.729858%,12.159729%,12.548828%);fill-opacity:1;" d="M 30.933594 34.113281 C 31.136719 34.492188 31.398438 34.792969 31.722656 35.007812 C 32.042969 35.222656 32.425781 35.328125 32.890625 35.328125 C 33.355469 35.328125 33.75 35.222656 34.074219 34.996094 C 34.394531 34.78125 34.660156 34.480469 34.859375 34.101562 C 35.0625 33.71875 35.207031 33.261719 35.289062 32.75 C 35.375 32.238281 35.421875 31.675781 35.421875 31.066406 C 35.421875 30.457031 35.375 29.894531 35.289062 29.371094 C 35.207031 28.859375 35.0625 28.402344 34.859375 28.023438 C 34.660156 27.640625 34.394531 27.339844 34.074219 27.113281 C 33.75 26.898438 33.355469 26.792969 32.890625 26.792969 C 32.425781 26.792969 32.03125 26.898438 31.710938 27.113281 C 31.386719 27.339844 31.136719 27.640625 30.933594 28.023438 C 30.730469 28.402344 30.585938 28.859375 30.503906 29.371094 C 30.417969 29.894531 30.371094 30.457031 30.371094 31.066406 C 30.371094 31.675781 30.417969 32.238281 30.503906 32.75 C 30.585938 33.277344 30.730469 33.730469 30.933594 34.113281 "/>
<path style=" stroke:none;fill-rule:nonzero;fill:rgb(13.729858%,12.159729%,12.548828%);fill-opacity:1;" d="M 43.054688 35.234375 L 44.292969 35.234375 L 44.292969 31.484375 C 44.292969 31.03125 44.390625 30.683594 44.570312 30.433594 C 44.75 30.183594 45.023438 30.0625 45.371094 30.0625 C 45.941406 30.0625 46.230469 30.445312 46.230469 31.199219 L 46.230469 35.234375 L 47.472656 35.234375 L 47.472656 31.484375 C 47.472656 31.03125 47.566406 30.683594 47.746094 30.433594 C 47.925781 30.183594 48.199219 30.0625 48.542969 30.0625 C 49.117188 30.0625 49.40625 30.445312 49.40625 31.199219 L 49.40625 35.234375 L 50.648438 35.234375 L 50.648438 31.222656 C 50.648438 30.503906 50.503906 29.957031 50.21875 29.585938 C 49.917969 29.214844 49.476562 29.023438 48.878906 29.023438 C 48.484375 29.023438 48.164062 29.121094 47.914062 29.3125 C 47.660156 29.515625 47.472656 29.742188 47.316406 29.992188 C 47.257812 29.871094 47.183594 29.753906 47.101562 29.632812 C 47.019531 29.527344 46.910156 29.417969 46.789062 29.324219 C 46.671875 29.238281 46.527344 29.167969 46.371094 29.109375 C 46.21875 29.046875 46.027344 29.023438 45.824219 29.023438 C 45.441406 29.023438 45.132812 29.121094 44.878906 29.3125 C 44.628906 29.515625 44.425781 29.753906 44.292969 30.050781 L 44.269531 30.050781 C 44.269531 30.015625 44.269531 29.945312 44.269531 29.847656 C 44.257812 29.765625 44.257812 29.667969 44.257812 29.574219 C 44.246094 29.480469 44.246094 29.382812 44.246094 29.300781 C 44.234375 29.214844 44.234375 29.144531 44.234375 29.109375 L 43.007812 29.109375 C 43.015625 29.277344 43.03125 29.453125 43.042969 29.644531 C 43.054688 29.835938 43.054688 30.039062 43.054688 30.265625 L 43.054688 35.234375 "/>
<path style=" stroke:none;fill-rule:nonzero;fill:rgb(100%,100%,100%);fill-opacity:1;" d="M 17.753906 13.882812 L 17.753906 10.535156 L 18.421875 10.535156 C 19.007812 10.535156 19.445312 10.671875 19.742188 10.933594 C 20.03125 11.207031 20.179688 11.644531 20.179688 12.230469 C 20.179688 12.761719 20.042969 13.15625 19.769531 13.445312 C 19.496094 13.730469 19.046875 13.882812 18.40625 13.882812 L 17.753906 13.882812 "/>
<path style=" stroke:none;fill-rule:nonzero;fill:rgb(100%,100%,100%);fill-opacity:1;" d="M 24.179688 17.210938 C 24.058594 16.976562 23.976562 16.71875 23.933594 16.40625 C 23.878906 16.089844 23.851562 15.765625 23.851562 15.394531 C 23.851562 15.027344 23.878906 14.699219 23.933594 14.386719 C 23.976562 14.070312 24.058594 13.8125 24.179688 13.582031 C 24.300781 13.363281 24.453125 13.183594 24.644531 13.0625 C 24.820312 12.9375 25.054688 12.871094 25.328125 12.871094 C 25.597656 12.871094 25.832031 12.9375 26.023438 13.0625 C 26.199219 13.183594 26.347656 13.363281 26.472656 13.582031 C 26.59375 13.8125 26.675781 14.070312 26.730469 14.386719 C 26.773438 14.699219 26.800781 15.027344 26.800781 15.394531 C 26.800781 15.765625 26.773438 16.089844 26.730469 16.40625 C 26.675781 16.71875 26.59375 16.976562 26.472656 17.210938 C 26.347656 17.441406 26.199219 17.617188 26.023438 17.742188 C 25.832031 17.863281 25.597656 17.933594 25.328125 17.933594 C 25.054688 17.933594 24.820312 17.863281 24.644531 17.742188 C 24.453125 17.617188 24.300781 17.441406 24.179688 17.210938 "/>
<path style=" stroke:none;fill-rule:nonzero;fill:rgb(100%,100%,100%);fill-opacity:1;" d="M 45.132812 14.835938 C 45.144531 14.195312 45.265625 13.691406 45.5 13.335938 C 45.730469 12.992188 46.058594 12.816406 46.46875 12.816406 C 47.3125 12.816406 47.734375 13.484375 47.734375 14.835938 L 45.132812 14.835938 "/>
<path style=" stroke:none;fill-rule:nonzero;fill:rgb(100%,100%,100%);fill-opacity:1;" d="M 19.996094 30.457031 C 19.613281 30.265625 19.316406 30.050781 19.113281 29.800781 C 18.898438 29.5625 18.792969 29.289062 18.792969 28.976562 C 18.792969 28.617188 18.898438 28.332031 19.113281 28.105469 C 19.316406 27.890625 19.578125 27.78125 19.902344 27.78125 C 20.246094 27.78125 20.523438 27.890625 20.714844 28.09375 C 20.90625 28.308594 21 28.582031 21 28.90625 C 21 29.074219 20.976562 29.226562 20.917969 29.371094 C 20.855469 29.527344 20.785156 29.65625 20.691406 29.789062 C 20.59375 29.921875 20.488281 30.039062 20.367188 30.148438 C 20.246094 30.253906 20.128906 30.363281 19.996094 30.457031 "/>
<path style=" stroke:none;fill-rule:nonzero;fill:rgb(100%,100%,100%);fill-opacity:1;" d="M 19.816406 31.34375 C 19.996094 31.4375 20.164062 31.53125 20.332031 31.628906 C 20.488281 31.734375 20.628906 31.84375 20.761719 31.972656 C 20.878906 32.105469 20.976562 32.25 21.046875 32.402344 C 21.121094 32.570312 21.15625 32.761719 21.15625 32.976562 C 21.15625 33.382812 21.046875 33.71875 20.832031 33.96875 C 20.605469 34.230469 20.308594 34.363281 19.925781 34.363281 C 19.507812 34.363281 19.199219 34.230469 18.96875 33.957031 C 18.742188 33.679688 18.636719 33.359375 18.636719 32.964844 C 18.636719 32.761719 18.671875 32.582031 18.730469 32.425781 C 18.792969 32.273438 18.863281 32.128906 18.96875 31.996094 C 19.078125 31.867188 19.199219 31.757812 19.351562 31.652344 C 19.496094 31.542969 19.652344 31.449219 19.816406 31.34375 "/>
<path style=" stroke:none;fill-rule:nonzero;fill:rgb(100%,100%,100%);fill-opacity:1;" d="M 25.441406 33.476562 C 25.261719 32.917969 25.167969 32.105469 25.167969 31.066406 C 25.167969 30.027344 25.261719 29.214844 25.441406 28.644531 C 25.621094 28.070312 25.957031 27.78125 26.421875 27.78125 C 26.898438 27.78125 27.234375 28.070312 27.410156 28.632812 C 27.589844 29.203125 27.6875 30.015625 27.6875 31.066406 C 27.6875 32.105469 27.589844 32.917969 27.410156 33.476562 C 27.21875 34.050781 26.886719 34.335938 26.421875 34.335938 C 25.957031 34.335938 25.621094 34.050781 25.441406 33.476562 "/>
<path style=" stroke:none;fill-rule:nonzero;fill:rgb(100%,100%,100%);fill-opacity:1;" d="M 31.910156 33.476562 C 31.734375 32.917969 31.636719 32.105469 31.636719 31.066406 C 31.636719 30.027344 31.734375 29.214844 31.910156 28.644531 C 32.089844 28.070312 32.425781 27.78125 32.890625 27.78125 C 33.367188 27.78125 33.703125 28.070312 33.882812 28.632812 C 34.0625 29.203125 34.15625 30.015625 34.15625 31.066406 C 34.15625 32.105469 34.0625 32.917969 33.882812 33.476562 C 33.691406 34.050781 33.355469 34.335938 32.890625 34.335938 C 32.425781 34.335938 32.089844 34.050781 31.910156 33.476562 "/>
</g>
</svg>
