<?xml version="1.0" encoding="UTF-8"?>
<svg xmlns="http://www.w3.org/2000/svg" xmlns:xlink="http://www.w3.org/1999/xlink" width="71pt" height="72pt" viewBox="0 0 71 72" version="1.1">
<g id="surface1">
<path style=" stroke:none;fill-rule:nonzero;fill:rgb(93.527222%,17.272949%,18.882751%);fill-opacity:1;" d="M 35.421875 28.53125 L 20.875 26.234375 C 20.410156 26.183594 19.988281 25.953125 19.691406 25.585938 C 19.417969 25.25 19.28125 24.824219 19.304688 24.386719 L 19.324219 13.820312 C 19.3125 13.441406 19.429688 13.070312 19.65625 12.765625 C 19.921875 12.40625 20.324219 12.167969 20.765625 12.105469 L 35.476562 9.792969 L 50.410156 12.207031 C 50.71875 12.304688 50.992188 12.492188 51.199219 12.738281 C 51.476562 13.078125 51.613281 13.511719 51.578125 13.949219 L 51.589844 24.496094 C 51.585938 24.972656 51.394531 25.425781 51.050781 25.761719 C 50.769531 26.035156 50.40625 26.207031 50.015625 26.25 L 35.421875 28.53125 M 32.226562 25.207031 L 38.742188 25.207031 L 38.742188 23.683594 L 34.261719 23.683594 L 34.707031 23.207031 C 35.238281 22.625 35.75 22.027344 36.226562 21.410156 C 36.6875 20.8125 37.097656 20.199219 37.457031 19.597656 C 37.816406 19 38.089844 18.417969 38.296875 17.839844 C 38.5 17.273438 38.601562 16.726562 38.601562 16.214844 C 38.601562 15.785156 38.535156 15.394531 38.414062 15.019531 C 38.277344 14.640625 38.074219 14.316406 37.816406 14.027344 C 37.542969 13.753906 37.203125 13.53125 36.808594 13.359375 C 36.398438 13.207031 35.917969 13.121094 35.375 13.121094 C 34.808594 13.121094 34.28125 13.1875 33.820312 13.308594 C 33.339844 13.445312 32.894531 13.617188 32.5 13.820312 L 32.691406 15.566406 C 32.964844 15.34375 33.304688 15.121094 33.699219 14.929688 C 34.089844 14.742188 34.535156 14.640625 35.03125 14.640625 C 35.558594 14.640625 35.988281 14.8125 36.277344 15.171875 C 36.570312 15.53125 36.722656 15.972656 36.722656 16.539062 C 36.722656 16.929688 36.640625 17.359375 36.464844 17.820312 C 36.277344 18.28125 36.039062 18.777344 35.714844 19.273438 C 35.390625 19.785156 35.015625 20.316406 34.585938 20.882812 C 34.144531 21.445312 33.664062 22.027344 33.136719 22.625 L 32.226562 23.667969 L 32.226562 25.207031 "/>
<path style=" stroke:none;fill-rule:nonzero;fill:rgb(13.729858%,12.159729%,12.548828%);fill-opacity:1;" d="M 17.183594 25.976562 C 17.183594 27.03125 17.558594 27.929688 18.304688 28.675781 C 19.046875 29.417969 19.949219 29.792969 21 29.792969 L 49.960938 29.792969 C 51.015625 29.792969 51.914062 29.417969 52.660156 28.675781 C 53.40625 27.929688 53.777344 27.03125 53.777344 25.976562 L 53.777344 12.347656 C 53.777344 11.292969 53.40625 10.394531 52.660156 9.652344 C 51.914062 8.90625 51.015625 8.535156 49.960938 8.535156 L 21 8.535156 C 19.949219 8.535156 19.046875 8.90625 18.304688 9.652344 C 17.558594 10.394531 17.183594 11.292969 17.183594 12.347656 L 17.183594 25.976562 M 17.59375 25.976562 C 17.59375 27.859375 19.117188 29.386719 21 29.386719 L 49.960938 29.386719 C 51.84375 29.386719 53.367188 27.859375 53.367188 25.976562 L 53.367188 12.347656 C 53.367188 10.46875 51.84375 8.945312 49.960938 8.945312 L 21 8.945312 C 19.117188 8.945312 17.59375 10.46875 17.59375 12.347656 L 17.59375 25.976562 "/>
<path style=" stroke:none;fill-rule:nonzero;fill:rgb(13.729858%,12.159729%,12.548828%);fill-opacity:1;" d="M 0.0507812 71.605469 L 0.0507812 0.738281 L 70.914062 0.738281 L 70.914062 71.605469 L 0.0507812 71.605469 M 0.335938 71.324219 L 70.636719 71.324219 L 70.636719 1.023438 L 0.335938 1.023438 L 0.335938 71.324219 M 11.105469 62.808594 L 24.644531 62.808594 L 24.644531 59.648438 L 15.332031 59.648438 L 16.257812 58.652344 C 17.359375 57.445312 18.425781 56.203125 19.421875 54.917969 C 20.378906 53.675781 21.230469 52.398438 21.976562 51.15625 C 22.726562 49.910156 23.292969 48.703125 23.71875 47.492188 C 24.144531 46.320312 24.359375 45.183594 24.359375 44.121094 C 24.359375 43.230469 24.21875 42.414062 23.96875 41.632812 C 23.683594 40.847656 23.257812 40.175781 22.726562 39.570312 C 22.15625 39 21.445312 38.539062 20.628906 38.183594 C 19.773438 37.863281 18.78125 37.6875 17.644531 37.6875 C 16.46875 37.6875 15.367188 37.828125 14.410156 38.074219 C 13.414062 38.359375 12.492188 38.714844 11.675781 39.144531 L 12.0625 42.765625 C 12.632812 42.304688 13.34375 41.84375 14.160156 41.453125 C 14.980469 41.0625 15.902344 40.847656 16.933594 40.847656 C 18.035156 40.847656 18.921875 41.203125 19.527344 41.949219 C 20.132812 42.699219 20.453125 43.621094 20.453125 44.792969 C 20.453125 45.609375 20.273438 46.5 19.917969 47.457031 C 19.527344 48.417969 19.03125 49.449219 18.355469 50.476562 C 17.679688 51.542969 16.898438 52.644531 16.007812 53.820312 C 15.082031 54.992188 14.089844 56.203125 12.988281 57.445312 L 11.105469 59.609375 L 11.105469 62.808594 M 27.507812 62.808594 L 41.042969 62.808594 L 41.042969 59.648438 L 31.734375 59.648438 L 32.660156 58.652344 C 33.761719 57.445312 34.828125 56.203125 35.820312 54.917969 C 36.777344 53.675781 37.628906 52.398438 38.375 51.15625 C 39.125 49.910156 39.695312 48.703125 40.117188 47.492188 C 40.542969 46.320312 40.757812 45.183594 40.757812 44.121094 C 40.757812 43.230469 40.613281 42.414062 40.367188 41.632812 C 40.082031 40.847656 39.65625 40.175781 39.125 39.570312 C 38.554688 39 37.84375 38.539062 37.027344 38.183594 C 36.171875 37.863281 35.183594 37.6875 34.042969 37.6875 C 32.871094 37.6875 31.769531 37.828125 30.8125 38.074219 C 29.816406 38.359375 28.894531 38.714844 28.074219 39.144531 L 28.464844 42.765625 C 29.035156 42.304688 29.746094 41.84375 30.5625 41.453125 C 31.382812 41.0625 32.300781 40.847656 33.335938 40.847656 C 34.4375 40.847656 35.324219 41.203125 35.921875 41.949219 C 36.527344 42.699219 36.847656 43.621094 36.847656 44.792969 C 36.847656 45.609375 36.671875 46.5 36.316406 47.457031 C 35.921875 48.417969 35.429688 49.449219 34.757812 50.476562 C 34.082031 51.542969 33.300781 52.644531 32.410156 53.820312 C 31.484375 54.992188 30.492188 56.203125 29.390625 57.445312 L 27.507812 59.609375 L 27.507812 62.808594 M 49.410156 57.589844 C 48.878906 55.917969 48.59375 53.496094 48.59375 50.410156 C 48.59375 47.316406 48.878906 44.902344 49.410156 43.195312 C 49.941406 41.488281 50.941406 40.636719 52.324219 40.636719 C 53.742188 40.636719 54.742188 41.488281 55.273438 43.160156 C 55.804688 44.863281 56.089844 47.28125 56.089844 50.410156 C 56.089844 53.496094 55.804688 55.917969 55.273438 57.589844 C 54.707031 59.289062 53.710938 60.144531 52.324219 60.144531 C 50.941406 60.144531 49.941406 59.289062 49.410156 57.589844 M 46.496094 59.46875 C 47.101562 60.609375 47.882812 61.492188 48.839844 62.136719 C 49.800781 62.773438 50.941406 63.089844 52.324219 63.089844 C 53.710938 63.089844 54.882812 62.773438 55.84375 62.097656 C 56.800781 61.457031 57.582031 60.574219 58.1875 59.433594 C 58.789062 58.296875 59.21875 56.949219 59.46875 55.417969 C 59.71875 53.890625 59.855469 52.21875 59.855469 50.410156 C 59.855469 48.59375 59.71875 46.925781 59.46875 45.363281 C 59.21875 43.835938 58.789062 42.480469 58.1875 41.347656 C 57.582031 40.210938 56.800781 39.320312 55.84375 38.644531 C 54.882812 38.007812 53.710938 37.6875 52.324219 37.6875 C 50.941406 37.6875 49.765625 38.007812 48.804688 38.644531 C 47.847656 39.320312 47.101562 40.210938 46.496094 41.347656 C 45.894531 42.480469 45.46875 43.835938 45.214844 45.363281 C 44.96875 46.925781 44.828125 48.59375 44.828125 50.410156 C 44.828125 52.21875 44.96875 53.890625 45.214844 55.417969 C 45.46875 56.984375 45.894531 58.332031 46.496094 59.46875 "/>
</g>
</svg>
