<svg width="153" height="153" xmlns="http://www.w3.org/2000/svg">
 <!-- Created with Method Draw - http://github.com/duopixel/Method-Draw/ -->

 <g>
  <title>background</title>
  <rect fill="#fff" id="canvas_background" height="155" width="155" y="-1" x="-1"/>
  <g display="none" overflow="visible" y="0" x="0" height="100%" width="100%" id="canvasGrid">
   <rect fill="url(#gridpattern)" stroke-width="0" y="0" x="0" height="100%" width="100%"/>
  </g>
 </g>
 <g>
  <title>Layer 1</title>
  <metadata id="svg_21">image/svg+xml</metadata>

  <g id="svg_23">
   <path fill="#211e1e" fill-rule="nonzero" id="svg_20" d="m1.59163,151.41358l150.6481,0l0,-150.66065l-150.6481,0l0,150.66065zm0,0"/>
   <path fill="#ffffff" fill-rule="nonzero" id="svg_19" d="m4.00594,148.99545l145.83112,0l0,-145.82825l-145.83112,0l0,145.82825zm0,0"/>
   <path fill="#211e1e" fill-rule="nonzero" id="svg_18" d="m51.51702,45.60856l-17.2373,-25.31679c-0.16276,-0.24026 -0.43791,-0.39526 -0.74794,-0.39526c-0.30614,0 -0.58517,0.15501 -0.74793,0.3914l-17.2373,25.31678c-0.10077,0.14726 -0.15889,0.32164 -0.15889,0.51152c0,0.49991 0.40691,0.90293 0.90682,0.90293c0.06975,0 0.13564,-0.01163 0.20152,-0.02325l9.80837,-2.25537l-0.00388,87.98677l14.46259,0l0,-87.9829l9.80836,2.2515c0.062,0.01551 0.12789,0.02325 0.19764,0.02325c0.49992,0 0.90683,-0.40302 0.90683,-0.90292c0,-0.18989 -0.05814,-0.36427 -0.15889,-0.50765"/>
   <path fill="#211e1e" fill-rule="nonzero" id="svg_17" d="m94.90479,45.60856l-17.2373,-25.31679c-0.16276,-0.24026 -0.4379,-0.39526 -0.74793,-0.39526c-0.30615,0 -0.58518,0.15501 -0.74406,0.3914l-17.24118,25.31678c-0.10076,0.14726 -0.15888,0.32164 -0.15888,0.51152c0,0.49991 0.4069,0.90293 0.90682,0.90293c0.06975,0 0.13564,-0.01163 0.20151,-0.02325l9.8045,-2.25538l0,87.98678l14.46646,0l-0.00387,-87.9829l9.80449,2.24762c0.062,0.01551 0.13176,0.02712 0.20151,0.02712c0.49992,0 0.90295,-0.40302 0.90295,-0.90292c0,-0.18989 -0.05813,-0.36427 -0.15501,-0.50765"/>
   <path fill="#211e1e" fill-rule="nonzero" id="svg_16" d="m113.07603,65.74418c2.28255,-0.72079 4.71236,-1.10444 7.23129,-1.10444c2.51895,0 4.94875,0.38365 7.2313,1.10444l0,-20.9998l9.80449,2.24763c0.06587,0.01551 0.13176,0.02712 0.20151,0.02712c0.50379,0 0.90682,-0.40302 0.90682,-0.90293c0,-0.18989 -0.062,-0.36427 -0.15888,-0.50765l-17.2373,-25.31678c-0.16276,-0.24027 -0.43791,-0.39527 -0.74794,-0.39527c-0.31002,0 -0.58517,0.15114 -0.74406,0.3914l-17.24117,25.31679c-0.09693,0.14725 -0.15501,0.32163 -0.15501,0.51152c0,0.49991 0.40303,0.90293 0.90294,0.90293c0.06974,0 0.13564,-0.01163 0.20152,-0.02325l9.80449,-2.25538l0,21.00368"/>
   <path fill="#211e1e" fill-rule="nonzero" id="svg_15" d="m127.53863,111.73912c-2.28256,0.72079 -4.71236,1.10444 -7.2313,1.10444c-2.51894,0 -4.94875,-0.38365 -7.23129,-1.10444l0,20.98817l14.46259,0l0,-20.98817"/>
   <path fill="#ee2b2e" fill-rule="nonzero" id="svg_14" d="m120.30733,64.63975c-13.30775,0 -24.10431,10.79248 -24.10431,24.09997c0,13.31137 10.79656,24.10384 24.10431,24.10384c13.31163,0 24.10432,-10.79247 24.10432,-24.10384c0,-13.30749 -10.79269,-24.09997 -24.10432,-24.09997"/>
   <path fill="#ffffff" fill-rule="nonzero" id="svg_13" d="m120.30733,72.67307c-8.87442,0 -16.07084,7.19627 -16.07084,16.07051c0,8.87425 7.19642,16.07052 16.07084,16.07052c8.87055,0 16.06696,-7.19627 16.06696,-16.07052c0,-8.87424 -7.19641,-16.07051 -16.06696,-16.07051"/>
  </g>
  <text xml:space="default" dominant-baseline="middle" text-anchor="middle" font-family="sans-serif" font-size="15" id="svg_24" y="93.86104" x="112.12499" stroke-width="0" stroke="#000" fill="#000000">param(text1)</text>
 </g>
</svg>