<?xml version="1.0" encoding="UTF-8"?>
<svg xmlns="http://www.w3.org/2000/svg" xmlns:xlink="http://www.w3.org/1999/xlink" width="73pt" height="100pt" viewBox="0 0 73 100" version="1.1">
<g id="surface1">
<path style=" stroke:none;fill-rule:nonzero;fill:rgb(100%,100%,100%);fill-opacity:1;" d="M 1.085938 99.78125 L 71.953125 99.78125 L 71.953125 0.566406 L 1.085938 0.566406 Z M 1.085938 99.78125 "/>
<path style="fill:none;stroke-width:2.835;stroke-linecap:butt;stroke-linejoin:miter;stroke:rgb(13.729858%,12.159729%,12.548828%);stroke-opacity:1;stroke-miterlimit:4;" d="M 10.859375 2.1875 L 719.53125 2.1875 L 719.53125 994.335938 L 10.859375 994.335938 L 10.859375 2.1875 " transform="matrix(0.1,0,0,-0.1,0,100)"/>
<path style=" stroke:none;fill-rule:nonzero;fill:rgb(10.112%,40.585327%,73.280334%);fill-opacity:1;" d="M 2.503906 98.363281 L 70.53125 98.363281 L 70.53125 1.984375 L 2.503906 1.984375 Z M 2.503906 98.363281 "/>
<path style=" stroke:none;fill-rule:nonzero;fill:rgb(100%,100%,100%);fill-opacity:1;" d="M 11.71875 60.804688 L 61.320312 60.804688 L 61.320312 11.199219 L 11.71875 11.199219 Z M 11.71875 60.804688 "/>
<path style=" stroke:none;fill-rule:nonzero;fill:rgb(13.729858%,12.159729%,12.548828%);fill-opacity:1;" d="M 21.910156 17.347656 C 22.066406 17.234375 22.304688 17.058594 22.464844 16.964844 C 22.65625 16.851562 23.054688 16.679688 23.242188 16.59375 C 23.503906 16.484375 23.996094 16.277344 24.269531 16.21875 C 24.402344 16.195312 24.601562 16.175781 24.734375 16.160156 C 24.882812 16.203125 25.085938 16.261719 25.226562 16.320312 C 25.621094 16.476562 26.015625 16.765625 26.339844 17.046875 C 26.847656 17.484375 27.351562 18.03125 27.789062 18.542969 C 28.261719 19.089844 28.710938 19.660156 29.132812 20.242188 C 29.539062 20.820312 29.988281 21.503906 30.269531 22.152344 C 30.429688 22.519531 30.5625 22.90625 30.636719 23.308594 C 30.675781 23.480469 30.703125 23.734375 30.644531 23.898438 C 30.621094 23.980469 30.554688 24.074219 30.511719 24.136719 L 28.527344 25.1875 C 28.429688 24.972656 28.28125 24.675781 28.175781 24.46875 C 27.816406 23.769531 27.402344 23.101562 26.945312 22.460938 C 26.421875 21.71875 25.808594 20.984375 25.207031 20.316406 C 24.742188 19.796875 24.171875 19.207031 23.636719 18.773438 L 22.265625 17.695312 C 22.15625 17.601562 22.007812 17.449219 21.910156 17.347656 M 42.589844 41.898438 L 43.652344 40.621094 C 43.761719 40.5 43.878906 40.363281 43.988281 40.246094 C 44.152344 40.097656 44.34375 39.960938 44.554688 39.878906 C 44.652344 39.835938 44.785156 39.808594 44.898438 39.835938 C 45.019531 39.867188 45.148438 39.996094 45.230469 40.089844 L 45.417969 40.347656 L 46.597656 41.703125 C 46.742188 41.664062 46.960938 41.617188 47.113281 41.585938 C 47.617188 41.5 48.175781 41.507812 48.683594 41.558594 C 48.910156 41.578125 50.03125 41.738281 50.246094 41.773438 C 50.65625 41.832031 51.367188 41.945312 51.75 42.121094 C 52.03125 42.242188 52.308594 42.4375 52.550781 42.644531 C 52.730469 42.796875 52.945312 43.003906 53.046875 43.226562 C 53.128906 43.410156 53.164062 43.632812 53.171875 43.828125 C 53.175781 44.097656 53.136719 44.445312 53.09375 44.710938 C 53.03125 45.152344 52.921875 45.699219 52.761719 46.109375 C 52.699219 46.265625 52.585938 46.488281 52.507812 46.640625 C 52.183594 46.527344 51.808594 46.390625 51.492188 46.265625 C 50.707031 45.980469 49.910156 45.667969 49.128906 45.351562 C 48.433594 45.066406 47.734375 44.769531 47.046875 44.460938 C 46.320312 44.128906 45.550781 43.753906 44.859375 43.363281 C 44.265625 43.035156 43.6875 42.675781 43.132812 42.285156 C 42.980469 42.175781 42.738281 42.003906 42.589844 41.898438 M 22.8125 54.726562 C 22.914062 54.675781 23.136719 54.570312 23.238281 54.519531 C 24.066406 54.113281 24.945312 53.726562 25.804688 53.421875 C 26.664062 53.121094 27.535156 52.882812 28.425781 52.703125 C 29.472656 52.503906 30.527344 52.386719 31.589844 52.371094 C 32.65625 52.359375 33.804688 52.453125 34.867188 52.582031 C 35.972656 52.71875 37.09375 52.90625 38.191406 53.121094 C 39.074219 53.292969 40.054688 53.511719 40.929688 53.710938 C 41.136719 53.753906 43.605469 54.332031 43.808594 54.375 C 44.640625 54.554688 45.742188 54.75 46.605469 54.726562 C 47.296875 54.707031 48.058594 54.554688 48.652344 54.164062 C 49.183594 53.8125 49.59375 53.300781 49.785156 52.683594 C 49.960938 52.121094 49.933594 51.507812 49.75 50.945312 C 49.695312 50.773438 49.582031 50.523438 49.511719 50.347656 C 49.332031 50.472656 49.066406 50.644531 48.867188 50.722656 C 48.460938 50.902344 47.953125 50.941406 47.511719 50.925781 C 46.714844 50.898438 45.890625 50.710938 45.132812 50.464844 C 44.246094 50.175781 43.316406 49.765625 42.476562 49.355469 C 41.625 48.9375 40.753906 48.464844 39.960938 47.953125 C 39.03125 47.355469 37.84375 46.433594 36.980469 45.734375 C 35.496094 44.539062 33.777344 43.113281 32.378906 41.808594 C 30.828125 40.371094 29.355469 38.828125 28.019531 37.179688 C 26.824219 35.710938 25.734375 34.15625 24.734375 32.550781 C 23.777344 31.011719 22.875 29.375 22.140625 27.714844 C 21.558594 26.390625 21.035156 24.914062 20.585938 23.527344 C 20.363281 22.84375 20.109375 21.992188 19.960938 21.285156 C 19.90625 21.019531 19.847656 20.667969 19.871094 20.394531 C 19.898438 20.121094 20.011719 19.789062 20.121094 19.535156 C 20.3125 19.082031 20.578125 18.59375 20.917969 18.242188 C 21.058594 18.089844 21.308594 17.894531 21.476562 17.765625 C 21.558594 17.816406 21.675781 17.886719 21.765625 17.9375 C 22.214844 18.21875 22.699219 18.636719 23.078125 18.996094 C 23.652344 19.523438 24.191406 20.078125 24.710938 20.644531 C 25.324219 21.308594 25.902344 22 26.464844 22.707031 C 26.886719 23.238281 27.410156 23.945312 27.71875 24.546875 C 27.835938 24.792969 27.992188 25.160156 28.101562 25.410156 C 28.015625 25.476562 27.910156 25.554688 27.832031 25.621094 C 27.597656 25.800781 27.324219 26.058594 27.210938 26.328125 C 27.121094 26.542969 27.097656 26.792969 27.113281 27.023438 C 27.136719 27.363281 27.269531 27.746094 27.394531 28.0625 C 27.570312 28.484375 27.785156 28.90625 28.058594 29.273438 C 28.375 29.722656 28.816406 30.144531 29.222656 30.5 L 31.011719 31.960938 C 31.625 32.484375 32.441406 33.300781 33.003906 33.882812 C 33.476562 34.371094 34.164062 35.085938 34.585938 35.617188 C 35.058594 36.203125 35.714844 37.1875 36.128906 37.8125 C 36.664062 38.636719 37.226562 39.484375 37.777344 40.285156 C 38.160156 40.84375 38.648438 41.523438 39.082031 42.039062 C 39.332031 42.34375 39.671875 42.695312 40.015625 42.875 C 40.3125 43.035156 40.648438 43.113281 40.980469 43.085938 C 41.300781 43.054688 41.605469 42.925781 41.859375 42.722656 C 41.957031 42.644531 42.097656 42.507812 42.191406 42.40625 C 42.332031 42.5 42.578125 42.675781 42.714844 42.769531 C 43.296875 43.148438 43.894531 43.503906 44.496094 43.839844 C 45.054688 44.144531 46.046875 44.640625 46.617188 44.921875 C 47.195312 45.203125 48.195312 45.691406 48.800781 45.933594 C 49.125 46.066406 50.988281 46.691406 51.320312 46.804688 C 51.601562 46.902344 52.042969 47.050781 52.316406 47.152344 C 52.277344 47.28125 52.214844 47.46875 52.15625 47.59375 C 52.023438 47.886719 51.785156 48.238281 51.59375 48.507812 C 51.390625 48.785156 51.121094 49.132812 50.871094 49.371094 C 50.726562 49.5 50.511719 49.671875 50.355469 49.789062 C 50.398438 49.910156 50.472656 50.105469 50.519531 50.226562 C 50.796875 51.019531 51.050781 52.035156 50.890625 52.863281 C 50.714844 53.734375 50.1875 54.476562 49.480469 54.984375 C 48.800781 55.488281 47.933594 55.734375 47.089844 55.8125 C 45.976562 55.914062 44.710938 55.714844 43.621094 55.453125 L 40.695312 54.667969 C 39.902344 54.46875 38.949219 54.28125 38.144531 54.128906 C 37.09375 53.925781 35.777344 53.703125 34.714844 53.589844 C 33.695312 53.488281 32.664062 53.453125 31.640625 53.480469 C 30.6875 53.503906 29.71875 53.589844 28.78125 53.761719 C 27.921875 53.921875 26.996094 54.179688 26.15625 54.445312 C 25.464844 54.660156 24.65625 54.949219 24.011719 55.273438 C 23.839844 55.359375 23.578125 55.503906 23.417969 55.597656 L 22.8125 54.726562 "/>
</g>
</svg>
