<?xml version="1.0" encoding="UTF-8"?>
<svg xmlns="http://www.w3.org/2000/svg" xmlns:xlink="http://www.w3.org/1999/xlink" width="67pt" height="100pt" viewBox="0 0 67 100" version="1.1">
<g id="surface1">
<path style=" stroke:none;fill-rule:nonzero;fill:rgb(10.112%,40.585327%,73.280334%);fill-opacity:1;" d="M 0.777344 99.777344 L 66.257812 99.777344 L 66.257812 0.566406 L 0.777344 0.566406 Z M 0.777344 99.777344 "/>
<path style=" stroke:none;fill-rule:nonzero;fill:rgb(100%,100%,100%);fill-opacity:1;" d="M 23.378906 17.96875 L 35.902344 17.96875 C 35.902344 17.96875 36.136719 17.96875 36.257812 17.96875 C 36.371094 17.96875 36.605469 17.851562 36.726562 17.851562 C 36.960938 17.730469 37.074219 17.730469 37.308594 17.617188 C 37.429688 17.496094 37.542969 17.496094 37.542969 17.382812 L 35.433594 21.601562 L 23.378906 21.601562 L 23.378906 35.535156 C 23.496094 35.535156 23.730469 35.535156 23.84375 35.648438 C 24.546875 35.769531 25.253906 35.882812 25.953125 36.238281 C 27.125 36.707031 28.183594 37.410156 29 38.34375 C 30.28125 39.984375 31.101562 41.859375 31.101562 43.96875 C 31.101562 46.300781 30.164062 48.644531 28.53125 50.167969 C 26.65625 51.925781 24.199219 52.628906 21.734375 52.628906 C 19.277344 52.628906 16.816406 52.042969 14.941406 50.40625 C 13.078125 48.878906 12.023438 46.535156 11.90625 44.207031 C 11.789062 41.859375 12.722656 39.632812 14.25 37.992188 C 15.527344 36.707031 17.285156 35.769531 19.277344 35.535156 C 19.394531 35.535156 19.511719 35.535156 19.628906 35.535156 L 19.628906 21.601562 L 6.75 21.601562 L 6.75 17.496094 L 6.867188 17.617188 C 6.984375 17.730469 7.21875 17.851562 7.335938 17.851562 C 7.570312 17.96875 7.804688 17.96875 7.921875 17.96875 C 8.039062 17.96875 8.273438 17.96875 8.273438 17.96875 L 19.628906 17.96875 L 19.628906 8.253906 C 19.628906 8.136719 19.628906 8.019531 19.628906 7.902344 C 19.628906 7.667969 19.628906 7.550781 19.628906 7.316406 C 19.628906 7.082031 19.511719 6.847656 19.394531 6.730469 C 19.394531 6.613281 19.277344 6.613281 19.277344 6.496094 L 23.496094 6.496094 C 23.496094 6.613281 23.496094 6.613281 23.496094 6.730469 C 23.378906 6.847656 23.378906 6.964844 23.378906 7.082031 C 23.378906 7.316406 23.378906 7.550781 23.378906 7.785156 L 23.378906 17.96875 "/>
<path style=" stroke:none;fill-rule:nonzero;fill:rgb(100%,100%,100%);fill-opacity:1;" d="M 7.980469 72.730469 L 9.976562 72.730469 L 9.976562 72.453125 C 9.976562 72.097656 9.941406 71.792969 9.878906 71.53125 C 9.820312 71.269531 9.730469 71.050781 9.613281 70.886719 C 9.5 70.71875 9.355469 70.597656 9.199219 70.519531 C 9.035156 70.441406 8.859375 70.402344 8.667969 70.402344 C 8.449219 70.402344 8.25 70.449219 8.082031 70.550781 C 7.90625 70.65625 7.753906 70.804688 7.640625 70.988281 C 7.523438 71.179688 7.425781 71.402344 7.367188 71.664062 C 7.304688 71.925781 7.269531 72.214844 7.269531 72.523438 C 7.269531 72.820312 7.304688 73.097656 7.367188 73.351562 C 7.425781 73.609375 7.515625 73.824219 7.648438 74.007812 C 7.769531 74.191406 7.925781 74.332031 8.117188 74.433594 C 8.308594 74.546875 8.53125 74.59375 8.785156 74.59375 C 9.003906 74.59375 9.199219 74.570312 9.371094 74.515625 C 9.539062 74.460938 9.675781 74.40625 9.792969 74.347656 L 9.757812 73.65625 C 9.671875 73.726562 9.554688 73.800781 9.417969 73.871094 C 9.273438 73.945312 9.105469 73.980469 8.898438 73.980469 C 8.570312 73.980469 8.34375 73.878906 8.199219 73.664062 C 8.054688 73.457031 7.980469 73.148438 7.980469 72.730469 "/>
<path style=" stroke:none;fill-rule:nonzero;fill:rgb(100%,100%,100%);fill-opacity:1;" d="M 11.3125 74.539062 L 12.152344 74.539062 L 13.207031 70.457031 L 12.5 70.457031 L 11.75 73.734375 L 11.738281 73.734375 L 11 70.457031 L 10.253906 70.457031 L 11.3125 74.539062 "/>
<path style=" stroke:none;fill-rule:nonzero;fill:rgb(100%,100%,100%);fill-opacity:1;" d="M 15.378906 74.539062 L 16.019531 74.539062 C 16.011719 74.46875 16 74.363281 15.992188 74.246094 C 15.984375 74.125 15.976562 74 15.976562 73.863281 L 15.976562 71.910156 C 15.976562 71.644531 15.957031 71.417969 15.910156 71.242188 C 15.863281 71.070312 15.789062 70.925781 15.699219 70.804688 C 15.625 70.703125 15.503906 70.605469 15.339844 70.519531 C 15.175781 70.441406 14.964844 70.402344 14.699219 70.402344 C 14.472656 70.402344 14.277344 70.433594 14.105469 70.496094 C 13.933594 70.558594 13.777344 70.632812 13.648438 70.71875 L 13.707031 71.425781 C 13.792969 71.324219 13.921875 71.226562 14.09375 71.140625 C 14.253906 71.058594 14.433594 71.019531 14.628906 71.019531 C 14.882812 71.019531 15.058594 71.101562 15.167969 71.261719 C 15.222656 71.339844 15.261719 71.425781 15.285156 71.523438 C 15.304688 71.625 15.308594 71.738281 15.308594 71.863281 L 15.308594 72.03125 L 15.058594 72.03125 C 14.492188 72.03125 14.058594 72.144531 13.765625 72.359375 C 13.472656 72.582031 13.324219 72.929688 13.324219 73.410156 C 13.324219 73.601562 13.347656 73.765625 13.40625 73.917969 C 13.457031 74.070312 13.535156 74.191406 13.628906 74.292969 C 13.71875 74.398438 13.828125 74.46875 13.949219 74.515625 C 14.070312 74.570312 14.203125 74.59375 14.34375 74.59375 C 14.601562 74.59375 14.804688 74.53125 14.964844 74.40625 C 15.113281 74.28125 15.238281 74.144531 15.324219 73.980469 L 15.339844 73.980469 C 15.339844 74.007812 15.339844 74.046875 15.34375 74.101562 C 15.34375 74.15625 15.34375 74.214844 15.351562 74.269531 C 15.359375 74.324219 15.359375 74.378906 15.367188 74.425781 C 15.375 74.480469 15.375 74.515625 15.378906 74.539062 "/>
<path style=" stroke:none;fill-rule:nonzero;fill:rgb(100%,100%,100%);fill-opacity:1;" d="M 16.648438 74.539062 L 17.355469 74.539062 L 17.355469 72.117188 C 17.355469 71.800781 17.410156 71.546875 17.527344 71.363281 C 17.636719 71.179688 17.800781 71.09375 18.023438 71.09375 C 18.207031 71.09375 18.335938 71.164062 18.425781 71.308594 C 18.507812 71.453125 18.546875 71.683594 18.546875 72 L 18.546875 74.539062 L 19.257812 74.539062 L 19.257812 71.808594 C 19.257812 71.378906 19.175781 71.039062 19.011719 70.78125 C 18.847656 70.53125 18.589844 70.402344 18.234375 70.402344 C 18.03125 70.402344 17.855469 70.457031 17.695312 70.574219 C 17.539062 70.695312 17.417969 70.859375 17.328125 71.074219 L 17.316406 71.074219 C 17.316406 71.050781 17.316406 71.003906 17.316406 70.949219 C 17.308594 70.894531 17.308594 70.832031 17.304688 70.765625 C 17.296875 70.703125 17.296875 70.640625 17.296875 70.585938 C 17.289062 70.53125 17.289062 70.480469 17.289062 70.457031 L 16.621094 70.457031 C 16.628906 70.574219 16.636719 70.703125 16.640625 70.832031 C 16.648438 70.964844 16.648438 71.101562 16.648438 71.238281 L 16.648438 74.539062 "/>
<path style=" stroke:none;fill-rule:nonzero;fill:rgb(100%,100%,100%);fill-opacity:1;" d="M 19.949219 75.277344 L 19.90625 76.050781 C 20.023438 76.105469 20.1875 76.160156 20.390625 76.21875 C 20.59375 76.273438 20.804688 76.304688 21.019531 76.304688 C 21.535156 76.304688 21.921875 76.136719 22.183594 75.808594 C 22.441406 75.484375 22.570312 75.015625 22.570312 74.410156 L 22.570312 71.148438 C 22.570312 71.03125 22.578125 70.917969 22.582031 70.796875 C 22.589844 70.679688 22.589844 70.566406 22.597656 70.457031 L 21.941406 70.457031 C 21.941406 70.480469 21.941406 70.53125 21.941406 70.585938 C 21.9375 70.640625 21.9375 70.703125 21.929688 70.765625 C 21.921875 70.832031 21.921875 70.886719 21.921875 70.941406 C 21.917969 70.996094 21.917969 71.046875 21.917969 71.070312 L 21.894531 71.070312 C 21.808594 70.886719 21.691406 70.726562 21.550781 70.59375 C 21.40625 70.464844 21.230469 70.402344 21.011719 70.402344 C 20.796875 70.402344 20.609375 70.449219 20.453125 70.550781 C 20.292969 70.65625 20.160156 70.789062 20.058594 70.972656 C 19.953125 71.15625 19.875 71.378906 19.828125 71.636719 C 19.769531 71.898438 19.742188 72.183594 19.742188 72.503906 C 19.742188 72.882812 19.777344 73.203125 19.855469 73.464844 C 19.921875 73.726562 20.011719 73.945312 20.125 74.101562 C 20.242188 74.269531 20.371094 74.378906 20.515625 74.453125 C 20.65625 74.523438 20.804688 74.558594 20.957031 74.558594 C 21.195312 74.558594 21.386719 74.5 21.527344 74.363281 C 21.671875 74.234375 21.785156 74.078125 21.875 73.878906 L 21.890625 73.878906 L 21.890625 74.386719 C 21.890625 74.554688 21.875 74.71875 21.847656 74.871094 C 21.816406 75.023438 21.765625 75.152344 21.699219 75.261719 C 21.621094 75.371094 21.527344 75.460938 21.40625 75.53125 C 21.28125 75.597656 21.125 75.628906 20.941406 75.628906 C 20.75 75.628906 20.566406 75.585938 20.382812 75.515625 C 20.199219 75.433594 20.058594 75.355469 19.949219 75.277344 "/>
<path style=" stroke:none;fill-rule:nonzero;fill:rgb(100%,100%,100%);fill-opacity:1;" d="M 23.277344 74.539062 L 24.015625 74.539062 L 24.015625 73.574219 L 23.277344 73.574219 L 23.277344 74.539062 "/>
<path style=" stroke:none;fill-rule:nonzero;fill:rgb(100%,100%,100%);fill-opacity:1;" d="M 27.535156 74.539062 L 28.242188 74.539062 L 28.242188 72.34375 C 28.242188 72.136719 28.261719 71.960938 28.304688 71.808594 C 28.34375 71.65625 28.398438 71.539062 28.46875 71.445312 C 28.535156 71.355469 28.617188 71.285156 28.703125 71.238281 C 28.792969 71.195312 28.882812 71.171875 28.984375 71.171875 C 29.023438 71.171875 29.066406 71.171875 29.097656 71.179688 C 29.136719 71.191406 29.175781 71.195312 29.207031 71.203125 L 29.207031 70.40625 C 29.195312 70.40625 29.183594 70.40625 29.175781 70.402344 C 29.167969 70.402344 29.15625 70.402344 29.140625 70.402344 C 29.011719 70.402344 28.894531 70.414062 28.792969 70.457031 C 28.691406 70.496094 28.609375 70.550781 28.535156 70.621094 C 28.460938 70.695312 28.390625 70.773438 28.335938 70.859375 C 28.28125 70.949219 28.234375 71.046875 28.199219 71.148438 L 28.1875 71.148438 C 28.1875 71.117188 28.1875 71.070312 28.1875 71.003906 C 28.179688 70.941406 28.179688 70.867188 28.175781 70.796875 C 28.167969 70.726562 28.167969 70.660156 28.167969 70.597656 C 28.160156 70.535156 28.160156 70.488281 28.160156 70.457031 L 27.507812 70.457031 C 27.511719 70.574219 27.519531 70.703125 27.527344 70.832031 C 27.535156 70.964844 27.535156 71.101562 27.535156 71.238281 L 27.535156 74.539062 "/>
<path style=" stroke:none;fill-rule:nonzero;fill:rgb(100%,100%,100%);fill-opacity:1;" d="M 29.96875 72.730469 L 31.960938 72.730469 L 31.960938 72.453125 C 31.960938 72.097656 31.929688 71.792969 31.867188 71.53125 C 31.804688 71.269531 31.71875 71.050781 31.601562 70.886719 C 31.484375 70.71875 31.34375 70.597656 31.1875 70.519531 C 31.023438 70.441406 30.847656 70.402344 30.65625 70.402344 C 30.4375 70.402344 30.242188 70.449219 30.070312 70.550781 C 29.894531 70.65625 29.742188 70.804688 29.625 70.988281 C 29.511719 71.179688 29.417969 71.402344 29.355469 71.664062 C 29.292969 71.925781 29.257812 72.214844 29.257812 72.523438 C 29.257812 72.820312 29.292969 73.097656 29.355469 73.351562 C 29.417969 73.609375 29.503906 73.824219 29.632812 74.007812 C 29.757812 74.191406 29.914062 74.332031 30.105469 74.433594 C 30.292969 74.546875 30.519531 74.59375 30.769531 74.59375 C 30.988281 74.59375 31.1875 74.570312 31.359375 74.515625 C 31.527344 74.460938 31.664062 74.40625 31.777344 74.347656 L 31.746094 73.65625 C 31.65625 73.726562 31.542969 73.800781 31.40625 73.871094 C 31.261719 73.945312 31.089844 73.980469 30.886719 73.980469 C 30.5625 73.980469 30.328125 73.878906 30.1875 73.664062 C 30.042969 73.457031 29.96875 73.148438 29.96875 72.730469 "/>
<path style=" stroke:none;fill-rule:nonzero;fill:rgb(100%,100%,100%);fill-opacity:1;" d="M 32.863281 74.539062 L 33.570312 74.539062 L 33.570312 71.09375 L 34.207031 71.09375 L 34.207031 70.457031 L 33.570312 70.457031 L 33.570312 69.675781 C 33.570312 69.492188 33.605469 69.355469 33.664062 69.261719 C 33.730469 69.164062 33.835938 69.117188 33.980469 69.117188 C 34.023438 69.117188 34.074219 69.128906 34.136719 69.144531 C 34.199219 69.15625 34.257812 69.175781 34.304688 69.199219 L 34.304688 68.558594 C 34.234375 68.539062 34.144531 68.511719 34.039062 68.496094 C 33.9375 68.480469 33.855469 68.472656 33.796875 68.472656 C 33.625 68.472656 33.480469 68.503906 33.363281 68.558594 C 33.246094 68.617188 33.152344 68.699219 33.078125 68.800781 C 33 68.902344 32.949219 69.015625 32.914062 69.152344 C 32.878906 69.285156 32.863281 69.4375 32.863281 69.589844 L 32.863281 70.457031 L 32.292969 70.457031 L 32.292969 71.09375 L 32.863281 71.09375 L 32.863281 74.539062 "/>
<path style=" stroke:none;fill-rule:nonzero;fill:rgb(100%,100%,100%);fill-opacity:1;" d="M 34.792969 74.539062 L 35.527344 74.539062 L 35.527344 73.574219 L 34.792969 73.574219 L 34.792969 74.539062 "/>
<path style=" stroke:none;fill-rule:nonzero;fill:rgb(100%,100%,100%);fill-opacity:1;" d="M 44.730469 74.425781 C 44.828125 74.46875 44.945312 74.507812 45.085938 74.546875 C 45.230469 74.585938 45.386719 74.601562 45.570312 74.601562 C 45.902344 74.601562 46.183594 74.53125 46.414062 74.378906 C 46.640625 74.226562 46.832031 74.023438 46.972656 73.753906 C 47.113281 73.480469 47.21875 73.15625 47.28125 72.773438 C 47.34375 72.398438 47.375 71.976562 47.375 71.515625 C 47.375 71.132812 47.347656 70.78125 47.296875 70.464844 C 47.25 70.144531 47.171875 69.867188 47.054688 69.636719 C 46.9375 69.40625 46.789062 69.230469 46.605469 69.101562 C 46.414062 68.976562 46.183594 68.910156 45.902344 68.910156 C 45.480469 68.910156 45.148438 69.070312 44.894531 69.390625 C 44.644531 69.707031 44.523438 70.160156 44.523438 70.742188 C 44.523438 71.003906 44.554688 71.242188 44.613281 71.460938 C 44.679688 71.671875 44.757812 71.863281 44.875 72.015625 C 44.984375 72.167969 45.113281 72.289062 45.269531 72.371094 C 45.417969 72.460938 45.589844 72.511719 45.773438 72.511719 C 46 72.511719 46.191406 72.453125 46.339844 72.335938 C 46.480469 72.222656 46.597656 72.070312 46.679688 71.890625 L 46.695312 71.898438 C 46.6875 72.144531 46.667969 72.390625 46.625 72.628906 C 46.585938 72.875 46.519531 73.09375 46.425781 73.28125 C 46.335938 73.472656 46.210938 73.621094 46.066406 73.742188 C 45.921875 73.863281 45.738281 73.925781 45.53125 73.925781 C 45.371094 73.925781 45.230469 73.902344 45.097656 73.847656 C 44.96875 73.800781 44.863281 73.742188 44.773438 73.6875 L 44.730469 74.425781 "/>
<path style=" stroke:none;fill-rule:nonzero;fill:rgb(100%,100%,100%);fill-opacity:1;" d="M 47.949219 74.539062 L 48.683594 74.539062 L 48.683594 73.574219 L 47.949219 73.574219 L 47.949219 74.539062 "/>
<path style=" stroke:none;fill-rule:nonzero;fill:rgb(100%,100%,100%);fill-opacity:1;" d="M 50.011719 74.539062 L 50.730469 74.539062 L 50.730469 68.984375 L 50.097656 68.984375 L 49.035156 70.113281 L 49.390625 70.710938 L 50.011719 69.96875 L 50.011719 74.539062 "/>
<path style=" stroke:none;fill-rule:nonzero;fill:rgb(100%,100%,100%);fill-opacity:1;" d="M 51.328125 74.378906 C 51.457031 74.433594 51.609375 74.492188 51.785156 74.53125 C 51.957031 74.578125 52.144531 74.601562 52.34375 74.601562 C 52.847656 74.601562 53.234375 74.425781 53.507812 74.085938 C 53.78125 73.734375 53.917969 73.265625 53.917969 72.667969 C 53.917969 72.398438 53.882812 72.152344 53.8125 71.945312 C 53.738281 71.726562 53.644531 71.554688 53.527344 71.410156 C 53.414062 71.269531 53.269531 71.164062 53.113281 71.09375 C 52.949219 71.019531 52.78125 70.980469 52.601562 70.980469 C 52.492188 70.980469 52.394531 70.988281 52.300781 71.003906 C 52.207031 71.011719 52.125 71.039062 52.066406 71.058594 L 52.066406 69.660156 L 53.691406 69.660156 L 53.691406 68.984375 L 51.398438 68.984375 L 51.398438 71.816406 C 51.511719 71.777344 51.636719 71.738281 51.757812 71.699219 C 51.882812 71.65625 52.023438 71.644531 52.179688 71.644531 C 52.507812 71.644531 52.753906 71.746094 52.921875 71.945312 C 53.085938 72.144531 53.167969 72.414062 53.167969 72.742188 C 53.167969 73.082031 53.085938 73.359375 52.914062 73.574219 C 52.746094 73.800781 52.511719 73.910156 52.21875 73.910156 C 52.050781 73.910156 51.894531 73.878906 51.753906 73.824219 C 51.609375 73.765625 51.476562 73.703125 51.367188 73.632812 L 51.328125 74.378906 "/>
<path style=" stroke:none;fill-rule:nonzero;fill:rgb(100%,100%,100%);fill-opacity:1;" d="M 57.238281 74.539062 L 57.945312 74.539062 L 57.945312 72.117188 C 57.945312 71.800781 58.003906 71.546875 58.117188 71.363281 C 58.226562 71.179688 58.390625 71.09375 58.613281 71.09375 C 58.796875 71.09375 58.929688 71.164062 59.019531 71.308594 C 59.097656 71.453125 59.140625 71.683594 59.140625 72 L 59.140625 74.539062 L 59.847656 74.539062 L 59.847656 71.808594 C 59.847656 71.378906 59.765625 71.039062 59.601562 70.78125 C 59.4375 70.53125 59.179688 70.402344 58.828125 70.402344 C 58.59375 70.402344 58.410156 70.464844 58.28125 70.585938 C 58.144531 70.710938 58.035156 70.847656 57.960938 70.996094 L 57.945312 70.996094 L 57.945312 68.570312 L 57.238281 68.570312 L 57.238281 74.539062 "/>
<path style=" stroke:none;fill-rule:nonzero;fill:rgb(100%,100%,100%);fill-opacity:1;" d="M 7.300781 83.4375 L 8.007812 83.4375 L 8.007812 81.238281 C 8.007812 81.03125 8.027344 80.855469 8.066406 80.707031 C 8.109375 80.554688 8.164062 80.433594 8.230469 80.339844 C 8.300781 80.25 8.382812 80.179688 8.472656 80.132812 C 8.558594 80.09375 8.648438 80.066406 8.75 80.066406 C 8.792969 80.066406 8.832031 80.066406 8.867188 80.078125 C 8.898438 80.085938 8.941406 80.09375 8.976562 80.097656 L 8.976562 79.304688 C 8.960938 79.304688 8.949219 79.304688 8.941406 79.296875 C 8.933594 79.296875 8.917969 79.296875 8.90625 79.296875 C 8.777344 79.296875 8.660156 79.3125 8.558594 79.351562 C 8.457031 79.390625 8.375 79.449219 8.300781 79.519531 C 8.222656 79.589844 8.15625 79.667969 8.101562 79.757812 C 8.046875 79.84375 8 79.941406 7.96875 80.042969 L 7.953125 80.042969 C 7.953125 80.011719 7.953125 79.964844 7.953125 79.902344 C 7.945312 79.839844 7.945312 79.765625 7.9375 79.695312 C 7.929688 79.621094 7.929688 79.558594 7.929688 79.496094 C 7.925781 79.429688 7.925781 79.382812 7.925781 79.351562 L 7.269531 79.351562 C 7.28125 79.46875 7.285156 79.597656 7.292969 79.726562 C 7.300781 79.859375 7.300781 79.996094 7.300781 80.132812 L 7.300781 83.4375 "/>
<path style=" stroke:none;fill-rule:nonzero;fill:rgb(100%,100%,100%);fill-opacity:1;" d="M 9.664062 78.589844 L 10.265625 78.589844 L 10.265625 77.75 L 9.664062 77.75 L 9.664062 78.589844 "/>
<path style=" stroke:none;fill-rule:nonzero;fill:rgb(100%,100%,100%);fill-opacity:1;" d="M 10.78125 78.589844 L 11.382812 78.589844 L 11.382812 77.75 L 10.78125 77.75 L 10.78125 78.589844 "/>
<path style=" stroke:none;fill-rule:nonzero;fill:rgb(100%,100%,100%);fill-opacity:1;" d="M 9.472656 82.996094 C 9.605469 83.164062 9.761719 83.292969 9.945312 83.371094 C 10.121094 83.453125 10.3125 83.492188 10.515625 83.492188 C 10.722656 83.492188 10.914062 83.453125 11.097656 83.371094 C 11.273438 83.292969 11.429688 83.164062 11.558594 82.996094 C 11.6875 82.828125 11.796875 82.613281 11.871094 82.351562 C 11.945312 82.089844 11.988281 81.761719 11.988281 81.390625 C 11.988281 81.023438 11.945312 80.707031 11.871094 80.441406 C 11.796875 80.179688 11.6875 79.957031 11.558594 79.789062 C 11.429688 79.621094 11.273438 79.496094 11.097656 79.414062 C 10.914062 79.335938 10.722656 79.296875 10.515625 79.296875 C 10.3125 79.296875 10.121094 79.335938 9.945312 79.414062 C 9.761719 79.496094 9.605469 79.621094 9.472656 79.789062 C 9.34375 79.957031 9.238281 80.179688 9.160156 80.441406 C 9.085938 80.707031 9.046875 81.023438 9.046875 81.390625 C 9.046875 81.761719 9.085938 82.089844 9.160156 82.351562 C 9.238281 82.613281 9.34375 82.828125 9.472656 82.996094 "/>
<path style=" stroke:none;fill-rule:nonzero;fill:rgb(100%,100%,100%);fill-opacity:1;" d="M 12.503906 83.4375 L 13.214844 83.4375 L 13.214844 80.9375 C 13.214844 80.632812 13.269531 80.402344 13.371094 80.234375 C 13.472656 80.066406 13.628906 79.988281 13.828125 79.988281 C 14.152344 79.988281 14.316406 80.242188 14.316406 80.746094 L 14.316406 83.4375 L 15.027344 83.4375 L 15.027344 80.9375 C 15.027344 80.632812 15.078125 80.402344 15.179688 80.234375 C 15.28125 80.066406 15.441406 79.988281 15.636719 79.988281 C 15.964844 79.988281 16.128906 80.242188 16.128906 80.746094 L 16.128906 83.4375 L 16.835938 83.4375 L 16.835938 80.761719 C 16.835938 80.285156 16.753906 79.914062 16.589844 79.667969 C 16.421875 79.425781 16.167969 79.296875 15.828125 79.296875 C 15.601562 79.296875 15.417969 79.359375 15.277344 79.488281 C 15.132812 79.621094 15.027344 79.773438 14.9375 79.941406 C 14.902344 79.859375 14.863281 79.78125 14.8125 79.703125 C 14.765625 79.632812 14.707031 79.558594 14.636719 79.496094 C 14.570312 79.441406 14.484375 79.390625 14.398438 79.351562 C 14.308594 79.3125 14.203125 79.296875 14.085938 79.296875 C 13.867188 79.296875 13.691406 79.359375 13.546875 79.488281 C 13.40625 79.621094 13.289062 79.78125 13.214844 79.980469 L 13.203125 79.980469 C 13.203125 79.957031 13.203125 79.90625 13.203125 79.84375 C 13.195312 79.789062 13.195312 79.726562 13.195312 79.660156 C 13.1875 79.597656 13.1875 79.535156 13.1875 79.480469 C 13.179688 79.425781 13.179688 79.378906 13.179688 79.351562 L 12.476562 79.351562 C 12.484375 79.460938 12.492188 79.582031 12.496094 79.710938 C 12.503906 79.839844 12.503906 79.972656 12.503906 80.121094 L 12.503906 83.4375 "/>
<path style=" stroke:none;fill-rule:nonzero;fill:rgb(100%,100%,100%);fill-opacity:1;" d="M 17.515625 83.4375 L 18.25 83.4375 L 18.25 82.46875 L 17.515625 82.46875 L 17.515625 83.4375 "/>
<path style=" stroke:none;fill-rule:nonzero;fill:rgb(100%,100%,100%);fill-opacity:1;" d="M 21.75 83.4375 L 22.460938 83.4375 L 22.460938 81.414062 L 22.472656 81.414062 L 23.640625 83.4375 L 24.484375 83.4375 L 23.066406 81.191406 L 24.359375 79.351562 L 23.578125 79.351562 L 22.460938 81.007812 L 22.460938 77.464844 L 21.75 77.464844 L 21.75 83.4375 "/>
<path style=" stroke:none;fill-rule:nonzero;fill:rgb(100%,100%,100%);fill-opacity:1;" d="M 26.886719 83.4375 L 27.523438 83.4375 C 27.515625 83.363281 27.503906 83.261719 27.496094 83.140625 C 27.492188 83.019531 27.484375 82.894531 27.484375 82.757812 L 27.484375 80.808594 C 27.484375 80.539062 27.464844 80.316406 27.417969 80.140625 C 27.367188 79.964844 27.292969 79.820312 27.203125 79.703125 C 27.128906 79.597656 27.007812 79.503906 26.84375 79.414062 C 26.679688 79.335938 26.46875 79.296875 26.203125 79.296875 C 25.980469 79.296875 25.78125 79.328125 25.613281 79.390625 C 25.441406 79.457031 25.285156 79.527344 25.15625 79.613281 L 25.210938 80.320312 C 25.300781 80.21875 25.429688 80.121094 25.597656 80.035156 C 25.761719 79.957031 25.941406 79.914062 26.136719 79.914062 C 26.386719 79.914062 26.566406 79.996094 26.671875 80.15625 C 26.726562 80.234375 26.769531 80.320312 26.789062 80.417969 C 26.808594 80.519531 26.816406 80.632812 26.816406 80.761719 L 26.816406 80.929688 L 26.566406 80.929688 C 26 80.929688 25.566406 81.039062 25.273438 81.253906 C 24.980469 81.476562 24.828125 81.828125 24.828125 82.304688 C 24.828125 82.496094 24.855469 82.664062 24.910156 82.8125 C 24.964844 82.964844 25.039062 83.085938 25.136719 83.191406 C 25.222656 83.292969 25.332031 83.363281 25.457031 83.410156 C 25.578125 83.46875 25.707031 83.492188 25.847656 83.492188 C 26.109375 83.492188 26.3125 83.425781 26.46875 83.300781 C 26.621094 83.179688 26.742188 83.039062 26.832031 82.878906 L 26.84375 82.878906 C 26.84375 82.902344 26.84375 82.941406 26.851562 82.996094 C 26.851562 83.054688 26.851562 83.109375 26.855469 83.164062 C 26.863281 83.21875 26.863281 83.277344 26.871094 83.324219 C 26.878906 83.378906 26.878906 83.410156 26.886719 83.4375 "/>
<path style=" stroke:none;fill-rule:nonzero;fill:rgb(100%,100%,100%);fill-opacity:1;" d="M 29.886719 83.371094 L 29.886719 82.75 C 29.839844 82.773438 29.789062 82.796875 29.738281 82.8125 C 29.683594 82.839844 29.621094 82.847656 29.546875 82.847656 C 29.417969 82.847656 29.328125 82.796875 29.265625 82.710938 C 29.207031 82.621094 29.175781 82.46875 29.175781 82.25 L 29.175781 79.988281 L 29.886719 79.988281 L 29.886719 79.351562 L 29.175781 79.351562 L 29.175781 78.269531 L 28.46875 78.515625 L 28.46875 79.351562 L 27.910156 79.351562 L 27.910156 79.988281 L 28.46875 79.988281 L 28.46875 82.414062 C 28.46875 82.804688 28.546875 83.085938 28.703125 83.246094 C 28.859375 83.410156 29.074219 83.492188 29.363281 83.492188 C 29.464844 83.492188 29.566406 83.480469 29.65625 83.460938 C 29.742188 83.425781 29.824219 83.402344 29.886719 83.371094 "/>
<path style=" stroke:none;fill-rule:nonzero;fill:rgb(100%,100%,100%);fill-opacity:1;" d="M 30.414062 83.4375 L 31.125 83.4375 L 31.125 81.015625 C 31.125 80.699219 31.175781 80.441406 31.292969 80.257812 C 31.402344 80.078125 31.566406 79.988281 31.789062 79.988281 C 31.972656 79.988281 32.101562 80.058594 32.191406 80.203125 C 32.273438 80.347656 32.3125 80.578125 32.3125 80.898438 L 32.3125 83.4375 L 33.023438 83.4375 L 33.023438 80.707031 C 33.023438 80.273438 32.941406 79.933594 32.777344 79.679688 C 32.613281 79.425781 32.355469 79.296875 32 79.296875 C 31.769531 79.296875 31.585938 79.359375 31.457031 79.480469 C 31.320312 79.605469 31.210938 79.742188 31.136719 79.894531 L 31.125 79.894531 L 31.125 77.464844 L 30.414062 77.464844 L 30.414062 83.4375 "/>
<path style=" stroke:none;fill-rule:nonzero;fill:rgb(100%,100%,100%);fill-opacity:1;" d="M 33.460938 83.4375 L 34.191406 83.4375 L 34.191406 82.46875 L 33.460938 82.46875 L 33.460938 83.4375 "/>
<path style=" stroke:none;fill-rule:nonzero;fill:rgb(100%,100%,100%);fill-opacity:1;" d="M 43.394531 83.324219 C 43.488281 83.363281 43.605469 83.402344 43.746094 83.445312 C 43.890625 83.480469 44.046875 83.5 44.230469 83.5 C 44.566406 83.5 44.84375 83.425781 45.078125 83.277344 C 45.300781 83.125 45.488281 82.917969 45.632812 82.648438 C 45.777344 82.375 45.878906 82.050781 45.941406 81.667969 C 46 81.292969 46.035156 80.871094 46.035156 80.410156 C 46.035156 80.03125 46.007812 79.679688 45.960938 79.359375 C 45.914062 79.039062 45.832031 78.761719 45.71875 78.53125 C 45.601562 78.300781 45.449219 78.128906 45.265625 77.996094 C 45.078125 77.871094 44.84375 77.804688 44.566406 77.804688 C 44.140625 77.804688 43.808594 77.964844 43.554688 78.285156 C 43.304688 78.601562 43.179688 79.054688 43.179688 79.640625 C 43.179688 79.902344 43.21875 80.140625 43.277344 80.355469 C 43.339844 80.570312 43.421875 80.761719 43.535156 80.910156 C 43.644531 81.0625 43.773438 81.183594 43.933594 81.269531 C 44.082031 81.355469 44.253906 81.40625 44.4375 81.40625 C 44.660156 81.40625 44.847656 81.347656 45 81.230469 C 45.144531 81.117188 45.261719 80.96875 45.339844 80.785156 L 45.351562 80.792969 C 45.347656 81.039062 45.328125 81.285156 45.285156 81.523438 C 45.246094 81.769531 45.175781 81.988281 45.089844 82.175781 C 44.992188 82.367188 44.871094 82.519531 44.726562 82.640625 C 44.585938 82.757812 44.402344 82.820312 44.191406 82.820312 C 44.03125 82.820312 43.890625 82.796875 43.761719 82.742188 C 43.632812 82.695312 43.523438 82.640625 43.433594 82.585938 L 43.394531 83.324219 "/>
<path style=" stroke:none;fill-rule:nonzero;fill:rgb(100%,100%,100%);fill-opacity:1;" d="M 46.609375 83.4375 L 47.34375 83.4375 L 47.34375 82.46875 L 46.609375 82.46875 L 46.609375 83.4375 "/>
<path style=" stroke:none;fill-rule:nonzero;fill:rgb(100%,100%,100%);fill-opacity:1;" d="M 47.824219 83.277344 C 47.96875 83.332031 48.132812 83.390625 48.316406 83.425781 C 48.5 83.472656 48.6875 83.5 48.890625 83.5 C 49.132812 83.5 49.347656 83.460938 49.546875 83.390625 C 49.742188 83.308594 49.90625 83.199219 50.050781 83.058594 C 50.195312 82.917969 50.300781 82.742188 50.375 82.542969 C 50.453125 82.34375 50.492188 82.121094 50.492188 81.867188 C 50.492188 81.660156 50.46875 81.476562 50.417969 81.316406 C 50.363281 81.15625 50.296875 81.03125 50.207031 80.917969 C 50.117188 80.808594 50.015625 80.71875 49.898438 80.65625 C 49.785156 80.59375 49.664062 80.546875 49.53125 80.519531 L 49.53125 80.507812 C 49.636719 80.480469 49.734375 80.441406 49.847656 80.386719 C 49.949219 80.332031 50.050781 80.25 50.140625 80.148438 C 50.226562 80.042969 50.296875 79.914062 50.351562 79.757812 C 50.40625 79.605469 50.429688 79.425781 50.429688 79.199219 C 50.429688 78.976562 50.398438 78.769531 50.332031 78.59375 C 50.253906 78.421875 50.160156 78.277344 50.035156 78.15625 C 49.914062 78.039062 49.773438 77.949219 49.597656 77.894531 C 49.429688 77.839844 49.253906 77.804688 49.054688 77.804688 C 48.824219 77.804688 48.621094 77.832031 48.445312 77.871094 C 48.261719 77.917969 48.101562 77.976562 47.96875 78.039062 L 48.015625 78.792969 C 48.15625 78.707031 48.316406 78.636719 48.46875 78.582031 C 48.628906 78.523438 48.777344 78.5 48.90625 78.5 C 49.132812 78.5 49.324219 78.574219 49.480469 78.714844 C 49.636719 78.855469 49.710938 79.066406 49.710938 79.328125 C 49.710938 79.496094 49.683594 79.632812 49.628906 79.742188 C 49.574219 79.859375 49.5 79.949219 49.402344 80.03125 C 49.300781 80.097656 49.1875 80.15625 49.050781 80.1875 C 48.914062 80.226562 48.765625 80.242188 48.605469 80.242188 L 48.410156 80.242188 L 48.410156 80.910156 C 48.453125 80.910156 48.503906 80.910156 48.574219 80.902344 C 48.636719 80.902344 48.714844 80.902344 48.8125 80.902344 C 49.09375 80.902344 49.324219 80.984375 49.484375 81.136719 C 49.648438 81.285156 49.730469 81.507812 49.730469 81.789062 C 49.730469 81.960938 49.703125 82.113281 49.65625 82.242188 C 49.605469 82.367188 49.539062 82.46875 49.460938 82.550781 C 49.371094 82.640625 49.277344 82.703125 49.164062 82.742188 C 49.050781 82.78125 48.933594 82.804688 48.804688 82.804688 C 48.621094 82.804688 48.453125 82.773438 48.292969 82.710938 C 48.136719 82.65625 47.996094 82.585938 47.871094 82.511719 L 47.824219 83.277344 "/>
<path style=" stroke:none;fill-rule:nonzero;fill:rgb(100%,100%,100%);fill-opacity:1;" d="M 51.3125 82.6875 C 51.425781 82.941406 51.574219 83.140625 51.761719 83.28125 C 51.945312 83.425781 52.164062 83.5 52.425781 83.5 C 52.691406 83.5 52.917969 83.425781 53.101562 83.277344 C 53.285156 83.132812 53.433594 82.933594 53.550781 82.675781 C 53.667969 82.421875 53.746094 82.121094 53.796875 81.777344 C 53.84375 81.4375 53.871094 81.0625 53.871094 80.65625 C 53.871094 80.25 53.84375 79.878906 53.796875 79.527344 C 53.746094 79.183594 53.667969 78.882812 53.550781 78.628906 C 53.433594 78.375 53.285156 78.175781 53.101562 78.023438 C 52.917969 77.878906 52.691406 77.804688 52.425781 77.804688 C 52.164062 77.804688 51.933594 77.878906 51.753906 78.023438 C 51.570312 78.175781 51.425781 78.375 51.3125 78.628906 C 51.195312 78.882812 51.113281 79.183594 51.066406 79.527344 C 51.019531 79.878906 50.992188 80.25 50.992188 80.65625 C 50.992188 81.0625 51.019531 81.4375 51.066406 81.777344 C 51.113281 82.128906 51.195312 82.433594 51.3125 82.6875 "/>
<path style=" stroke:none;fill-rule:nonzero;fill:rgb(100%,100%,100%);fill-opacity:1;" d="M 57.246094 83.4375 L 57.953125 83.4375 L 57.953125 81.015625 C 57.953125 80.699219 58.007812 80.441406 58.121094 80.257812 C 58.230469 80.078125 58.394531 79.988281 58.617188 79.988281 C 58.800781 79.988281 58.933594 80.058594 59.023438 80.203125 C 59.101562 80.347656 59.144531 80.578125 59.144531 80.898438 L 59.144531 83.4375 L 59.851562 83.4375 L 59.851562 80.707031 C 59.851562 80.273438 59.769531 79.933594 59.605469 79.679688 C 59.445312 79.425781 59.1875 79.296875 58.832031 79.296875 C 58.597656 79.296875 58.414062 79.359375 58.285156 79.480469 C 58.152344 79.605469 58.042969 79.742188 57.96875 79.894531 L 57.953125 79.894531 L 57.953125 77.464844 L 57.246094 77.464844 L 57.246094 83.4375 "/>
<path style=" stroke:none;fill-rule:nonzero;fill:rgb(100%,100%,100%);fill-opacity:1;" d="M 9.667969 92.21875 L 9.625 91.519531 C 9.550781 91.574219 9.445312 91.625 9.332031 91.664062 C 9.214844 91.703125 9.089844 91.726562 8.972656 91.726562 C 8.664062 91.726562 8.429688 91.601562 8.265625 91.347656 C 8.09375 91.09375 8.011719 90.75 8.011719 90.320312 C 8.011719 89.816406 8.09375 89.453125 8.257812 89.210938 C 8.425781 88.976562 8.65625 88.855469 8.960938 88.855469 C 9.089844 88.855469 9.207031 88.867188 9.308594 88.910156 C 9.414062 88.949219 9.5 88.988281 9.59375 89.046875 L 9.625 88.351562 C 9.539062 88.3125 9.433594 88.273438 9.300781 88.242188 C 9.171875 88.210938 9.042969 88.195312 8.914062 88.195312 C 8.644531 88.195312 8.402344 88.242188 8.199219 88.34375 C 7.992188 88.449219 7.820312 88.597656 7.683594 88.785156 C 7.546875 88.976562 7.441406 89.199219 7.375 89.460938 C 7.304688 89.71875 7.269531 90 7.269531 90.3125 C 7.269531 90.597656 7.304688 90.867188 7.367188 91.121094 C 7.429688 91.375 7.535156 91.601562 7.664062 91.785156 C 7.792969 91.96875 7.957031 92.117188 8.164062 92.21875 C 8.363281 92.332031 8.601562 92.390625 8.875 92.390625 C 9.027344 92.390625 9.171875 92.371094 9.316406 92.34375 C 9.460938 92.300781 9.578125 92.261719 9.667969 92.21875 "/>
<path style=" stroke:none;fill-rule:nonzero;fill:rgb(100%,100%,100%);fill-opacity:1;" d="M 10.125 92.332031 L 10.835938 92.332031 L 10.835938 89.914062 C 10.835938 89.59375 10.894531 89.339844 11.007812 89.15625 C 11.121094 88.976562 11.28125 88.886719 11.511719 88.886719 C 11.695312 88.886719 11.824219 88.957031 11.914062 89.101562 C 11.996094 89.246094 12.039062 89.476562 12.039062 89.792969 L 12.039062 92.332031 L 12.753906 92.332031 L 12.753906 89.601562 C 12.753906 89.171875 12.667969 88.832031 12.503906 88.578125 C 12.34375 88.324219 12.078125 88.195312 11.722656 88.195312 C 11.488281 88.195312 11.304688 88.257812 11.175781 88.378906 C 11.035156 88.503906 10.929688 88.640625 10.851562 88.789062 L 10.835938 88.789062 L 10.835938 86.363281 L 10.125 86.363281 L 10.125 92.332031 "/>
<path style=" stroke:none;fill-rule:nonzero;fill:rgb(100%,100%,100%);fill-opacity:1;" d="M 13.464844 92.332031 L 14.179688 92.332031 L 14.179688 90.136719 C 14.179688 89.929688 14.199219 89.753906 14.238281 89.601562 C 14.28125 89.453125 14.335938 89.332031 14.40625 89.238281 C 14.472656 89.148438 14.554688 89.078125 14.644531 89.03125 C 14.734375 88.988281 14.824219 88.964844 14.925781 88.964844 C 14.96875 88.964844 15.007812 88.964844 15.042969 88.976562 C 15.078125 88.980469 15.117188 88.988281 15.152344 88.996094 L 15.152344 88.203125 C 15.140625 88.203125 15.125 88.203125 15.117188 88.195312 C 15.109375 88.195312 15.097656 88.195312 15.082031 88.195312 C 14.953125 88.195312 14.835938 88.210938 14.734375 88.25 C 14.628906 88.289062 14.550781 88.34375 14.472656 88.414062 C 14.398438 88.488281 14.332031 88.566406 14.273438 88.65625 C 14.21875 88.742188 14.171875 88.839844 14.136719 88.941406 L 14.125 88.941406 C 14.125 88.910156 14.125 88.863281 14.125 88.796875 C 14.117188 88.734375 14.117188 88.664062 14.109375 88.59375 C 14.101562 88.519531 14.101562 88.457031 14.101562 88.394531 C 14.09375 88.332031 14.09375 88.28125 14.09375 88.25 L 13.4375 88.25 C 13.441406 88.367188 13.449219 88.496094 13.457031 88.625 C 13.464844 88.757812 13.464844 88.894531 13.464844 89.03125 L 13.464844 92.332031 "/>
<path style=" stroke:none;fill-rule:nonzero;fill:rgb(100%,100%,100%);fill-opacity:1;" d="M 15.492188 92.332031 L 16.210938 92.332031 L 16.210938 88.25 L 15.492188 88.25 L 15.492188 92.332031 "/>
<path style=" stroke:none;fill-rule:nonzero;fill:rgb(100%,100%,100%);fill-opacity:1;" d="M 15.472656 87.429688 L 16.230469 87.429688 L 16.230469 86.546875 L 15.472656 86.546875 L 15.472656 87.429688 "/>
<path style=" stroke:none;fill-rule:nonzero;fill:rgb(100%,100%,100%);fill-opacity:1;" d="M 16.824219 92.171875 C 16.929688 92.230469 17.070312 92.285156 17.242188 92.324219 C 17.40625 92.363281 17.589844 92.390625 17.789062 92.390625 C 18.1875 92.390625 18.488281 92.277344 18.703125 92.046875 C 18.910156 91.816406 19.011719 91.519531 19.011719 91.15625 C 19.011719 90.90625 18.949219 90.707031 18.832031 90.558594 C 18.710938 90.40625 18.542969 90.257812 18.332031 90.117188 L 18.023438 89.917969 C 17.867188 89.816406 17.746094 89.730469 17.660156 89.644531 C 17.570312 89.5625 17.527344 89.453125 17.527344 89.316406 C 17.527344 89.171875 17.570312 89.054688 17.660156 88.964844 C 17.746094 88.878906 17.878906 88.839844 18.058594 88.839844 C 18.199219 88.839844 18.339844 88.855469 18.457031 88.886719 C 18.570312 88.925781 18.683594 88.964844 18.777344 89.011719 L 18.808594 88.34375 C 18.734375 88.3125 18.632812 88.28125 18.496094 88.242188 C 18.351562 88.210938 18.1875 88.195312 18 88.195312 C 17.824219 88.195312 17.667969 88.226562 17.519531 88.289062 C 17.378906 88.351562 17.253906 88.441406 17.148438 88.542969 C 17.050781 88.65625 16.964844 88.785156 16.910156 88.917969 C 16.855469 89.058594 16.828125 89.210938 16.828125 89.363281 C 16.828125 89.507812 16.851562 89.636719 16.882812 89.746094 C 16.917969 89.855469 16.964844 89.953125 17.027344 90.042969 C 17.089844 90.128906 17.15625 90.199219 17.246094 90.261719 C 17.335938 90.335938 17.433594 90.398438 17.542969 90.460938 L 17.914062 90.675781 C 18.070312 90.765625 18.179688 90.859375 18.242188 90.957031 C 18.296875 91.050781 18.324219 91.15625 18.324219 91.257812 C 18.324219 91.417969 18.269531 91.539062 18.160156 91.617188 C 18.050781 91.703125 17.898438 91.746094 17.714844 91.746094 C 17.542969 91.746094 17.378906 91.710938 17.234375 91.640625 C 17.089844 91.574219 16.964844 91.511719 16.863281 91.457031 L 16.824219 92.171875 "/>
<path style=" stroke:none;fill-rule:nonzero;fill:rgb(100%,100%,100%);fill-opacity:1;" d="M 21.441406 92.269531 L 21.441406 91.648438 C 21.394531 91.671875 21.34375 91.699219 21.289062 91.710938 C 21.238281 91.738281 21.175781 91.746094 21.097656 91.746094 C 20.96875 91.746094 20.878906 91.699219 20.820312 91.609375 C 20.757812 91.519531 20.726562 91.367188 20.726562 91.148438 L 20.726562 88.886719 L 21.441406 88.886719 L 21.441406 88.25 L 20.726562 88.25 L 20.726562 87.164062 L 20.015625 87.414062 L 20.015625 88.25 L 19.453125 88.25 L 19.453125 88.886719 L 20.015625 88.886719 L 20.015625 91.3125 C 20.015625 91.703125 20.089844 91.984375 20.25 92.144531 C 20.40625 92.308594 20.625 92.390625 20.914062 92.390625 C 21.019531 92.390625 21.117188 92.378906 21.210938 92.355469 C 21.296875 92.324219 21.382812 92.300781 21.441406 92.269531 "/>
<path style=" stroke:none;fill-rule:nonzero;fill:rgb(100%,100%,100%);fill-opacity:1;" d="M 21.976562 92.332031 L 22.6875 92.332031 L 22.6875 90.3125 L 22.703125 90.3125 L 23.875 92.332031 L 24.726562 92.332031 L 23.296875 90.089844 L 24.601562 88.25 L 23.8125 88.25 L 22.6875 89.90625 L 22.6875 86.363281 L 21.976562 86.363281 L 21.976562 92.332031 "/>
<path style=" stroke:none;fill-rule:nonzero;fill:rgb(100%,100%,100%);fill-opacity:1;" d="M 27.148438 92.332031 L 27.792969 92.332031 C 27.785156 92.261719 27.773438 92.15625 27.765625 92.039062 C 27.757812 91.917969 27.75 91.792969 27.75 91.65625 L 27.75 89.707031 C 27.75 89.4375 27.730469 89.210938 27.679688 89.039062 C 27.632812 88.863281 27.558594 88.71875 27.46875 88.597656 C 27.394531 88.496094 27.269531 88.402344 27.105469 88.3125 C 26.941406 88.234375 26.726562 88.195312 26.460938 88.195312 C 26.234375 88.195312 26.035156 88.226562 25.863281 88.289062 C 25.691406 88.351562 25.535156 88.425781 25.402344 88.511719 L 25.457031 89.21875 C 25.550781 89.117188 25.675781 89.019531 25.847656 88.933594 C 26.015625 88.855469 26.195312 88.816406 26.390625 88.816406 C 26.644531 88.816406 26.824219 88.894531 26.933594 89.054688 C 26.988281 89.132812 27.03125 89.21875 27.050781 89.316406 C 27.070312 89.417969 27.078125 89.53125 27.078125 89.65625 L 27.078125 89.828125 L 26.824219 89.828125 C 26.253906 89.828125 25.816406 89.9375 25.523438 90.152344 C 25.226562 90.375 25.074219 90.726562 25.074219 91.203125 C 25.074219 91.394531 25.101562 91.5625 25.15625 91.710938 C 25.210938 91.863281 25.285156 91.984375 25.382812 92.085938 C 25.472656 92.191406 25.582031 92.261719 25.707031 92.308594 C 25.828125 92.363281 25.960938 92.390625 26.101562 92.390625 C 26.367188 92.390625 26.570312 92.324219 26.726562 92.199219 C 26.878906 92.078125 27.003906 91.9375 27.089844 91.773438 L 27.105469 91.773438 C 27.105469 91.800781 27.105469 91.839844 27.109375 91.894531 C 27.109375 91.949219 27.109375 92.007812 27.117188 92.0625 C 27.125 92.117188 27.125 92.171875 27.132812 92.21875 C 27.140625 92.277344 27.140625 92.308594 27.148438 92.332031 "/>
<path style=" stroke:none;fill-rule:nonzero;fill:rgb(100%,100%,100%);fill-opacity:1;" d="M 30.171875 92.269531 L 30.171875 91.648438 C 30.121094 91.671875 30.074219 91.699219 30.019531 91.710938 C 29.964844 91.738281 29.902344 91.746094 29.828125 91.746094 C 29.695312 91.746094 29.609375 91.699219 29.546875 91.609375 C 29.484375 91.519531 29.457031 91.367188 29.457031 91.148438 L 29.457031 88.886719 L 30.171875 88.886719 L 30.171875 88.25 L 29.457031 88.25 L 29.457031 87.164062 L 28.746094 87.414062 L 28.746094 88.25 L 28.179688 88.25 L 28.179688 88.886719 L 28.746094 88.886719 L 28.746094 91.3125 C 28.746094 91.703125 28.820312 91.984375 28.976562 92.144531 C 29.136719 92.308594 29.355469 92.390625 29.640625 92.390625 C 29.746094 92.390625 29.847656 92.378906 29.9375 92.355469 C 30.027344 92.324219 30.109375 92.300781 30.171875 92.269531 "/>
<path style=" stroke:none;fill-rule:nonzero;fill:rgb(100%,100%,100%);fill-opacity:1;" d="M 30.703125 92.332031 L 31.414062 92.332031 L 31.414062 89.914062 C 31.414062 89.59375 31.472656 89.339844 31.585938 89.15625 C 31.699219 88.976562 31.863281 88.886719 32.089844 88.886719 C 32.273438 88.886719 32.40625 88.957031 32.492188 89.101562 C 32.578125 89.246094 32.617188 89.476562 32.617188 89.792969 L 32.617188 92.332031 L 33.332031 92.332031 L 33.332031 89.601562 C 33.332031 89.171875 33.246094 88.832031 33.085938 88.578125 C 32.917969 88.324219 32.65625 88.195312 32.300781 88.195312 C 32.070312 88.195312 31.882812 88.257812 31.753906 88.378906 C 31.613281 88.503906 31.507812 88.640625 31.429688 88.789062 L 31.414062 88.789062 L 31.414062 86.363281 L 30.703125 86.363281 L 30.703125 92.332031 "/>
<path style=" stroke:none;fill-rule:nonzero;fill:rgb(100%,100%,100%);fill-opacity:1;" d="M 33.765625 92.332031 L 34.511719 92.332031 L 34.511719 91.367188 L 33.765625 91.367188 L 33.765625 92.332031 "/>
<path style=" stroke:none;fill-rule:nonzero;fill:rgb(100%,100%,100%);fill-opacity:1;" d="M 43.269531 92.21875 C 43.363281 92.261719 43.480469 92.300781 43.625 92.34375 C 43.769531 92.378906 43.925781 92.398438 44.109375 92.398438 C 44.445312 92.398438 44.726562 92.324219 44.964844 92.171875 C 45.191406 92.019531 45.382812 91.816406 45.527344 91.546875 C 45.667969 91.273438 45.773438 90.949219 45.832031 90.566406 C 45.894531 90.191406 45.929688 89.769531 45.929688 89.308594 C 45.929688 88.925781 45.902344 88.578125 45.855469 88.257812 C 45.808594 87.941406 45.722656 87.660156 45.609375 87.429688 C 45.488281 87.199219 45.339844 87.023438 45.15625 86.898438 C 44.964844 86.769531 44.726562 86.707031 44.445312 86.707031 C 44.023438 86.707031 43.683594 86.863281 43.429688 87.183594 C 43.179688 87.5 43.054688 87.957031 43.054688 88.535156 C 43.054688 88.796875 43.089844 89.039062 43.152344 89.253906 C 43.210938 89.46875 43.292969 89.65625 43.410156 89.808594 C 43.523438 89.960938 43.652344 90.082031 43.808594 90.167969 C 43.960938 90.257812 44.132812 90.304688 44.320312 90.304688 C 44.542969 90.304688 44.734375 90.25 44.886719 90.128906 C 45.03125 90.015625 45.148438 89.863281 45.230469 89.683594 L 45.242188 89.691406 C 45.238281 89.9375 45.214844 90.183594 45.175781 90.421875 C 45.136719 90.667969 45.066406 90.886719 44.976562 91.074219 C 44.878906 91.265625 44.757812 91.417969 44.613281 91.539062 C 44.46875 91.65625 44.28125 91.71875 44.070312 91.71875 C 43.910156 91.71875 43.769531 91.699219 43.636719 91.640625 C 43.507812 91.59375 43.398438 91.539062 43.308594 91.480469 L 43.269531 92.21875 "/>
<path style=" stroke:none;fill-rule:nonzero;fill:rgb(100%,100%,100%);fill-opacity:1;" d="M 46.507812 92.332031 L 47.25 92.332031 L 47.25 91.367188 L 46.507812 91.367188 L 46.507812 92.332031 "/>
<path style=" stroke:none;fill-rule:nonzero;fill:rgb(100%,100%,100%);fill-opacity:1;" d="M 47.730469 92.171875 C 47.875 92.230469 48.039062 92.285156 48.226562 92.324219 C 48.410156 92.371094 48.601562 92.398438 48.808594 92.398438 C 49.046875 92.398438 49.269531 92.355469 49.46875 92.285156 C 49.667969 92.207031 49.832031 92.09375 49.976562 91.957031 C 50.117188 91.816406 50.230469 91.640625 50.304688 91.441406 C 50.382812 91.242188 50.421875 91.019531 50.421875 90.765625 C 50.421875 90.558594 50.394531 90.375 50.34375 90.214844 C 50.289062 90.054688 50.222656 89.929688 50.132812 89.816406 C 50.042969 89.707031 49.941406 89.617188 49.824219 89.554688 C 49.707031 89.492188 49.585938 89.445312 49.453125 89.417969 L 49.453125 89.402344 C 49.558594 89.382812 49.660156 89.339844 49.769531 89.285156 C 49.871094 89.230469 49.976562 89.148438 50.0625 89.046875 C 50.15625 88.941406 50.222656 88.816406 50.277344 88.65625 C 50.332031 88.503906 50.359375 88.324219 50.359375 88.097656 C 50.359375 87.878906 50.328125 87.667969 50.257812 87.492188 C 50.179688 87.320312 50.085938 87.175781 49.964844 87.054688 C 49.839844 86.9375 49.695312 86.847656 49.523438 86.792969 C 49.351562 86.738281 49.171875 86.707031 48.972656 86.707031 C 48.738281 86.707031 48.535156 86.730469 48.355469 86.769531 C 48.171875 86.820312 48.011719 86.875 47.875 86.9375 L 47.921875 87.691406 C 48.066406 87.605469 48.226562 87.535156 48.382812 87.476562 C 48.542969 87.421875 48.691406 87.398438 48.824219 87.398438 C 49.046875 87.398438 49.242188 87.46875 49.398438 87.613281 C 49.558594 87.757812 49.632812 87.960938 49.632812 88.226562 C 49.632812 88.394531 49.605469 88.53125 49.550781 88.640625 C 49.492188 88.757812 49.421875 88.847656 49.324219 88.925781 C 49.222656 88.996094 49.101562 89.054688 48.96875 89.085938 C 48.828125 89.125 48.675781 89.140625 48.523438 89.140625 L 48.324219 89.140625 L 48.324219 89.808594 C 48.363281 89.808594 48.417969 89.808594 48.484375 89.800781 C 48.546875 89.800781 48.628906 89.800781 48.726562 89.800781 C 49.015625 89.800781 49.242188 89.882812 49.40625 90.03125 C 49.570312 90.183594 49.652344 90.40625 49.652344 90.6875 C 49.652344 90.859375 49.625 91.011719 49.578125 91.140625 C 49.53125 91.265625 49.460938 91.367188 49.378906 91.449219 C 49.289062 91.539062 49.195312 91.601562 49.082031 91.640625 C 48.96875 91.679688 48.851562 91.703125 48.71875 91.703125 C 48.535156 91.703125 48.363281 91.671875 48.207031 91.609375 C 48.046875 91.550781 47.90625 91.480469 47.78125 91.410156 L 47.730469 92.171875 "/>
<path style=" stroke:none;fill-rule:nonzero;fill:rgb(100%,100%,100%);fill-opacity:1;" d="M 51.246094 91.585938 C 51.359375 91.839844 51.511719 92.039062 51.699219 92.179688 C 51.882812 92.324219 52.101562 92.398438 52.371094 92.398438 C 52.640625 92.398438 52.867188 92.324219 53.050781 92.171875 C 53.234375 92.03125 53.386719 91.832031 53.503906 91.574219 C 53.617188 91.320312 53.703125 91.019531 53.75 90.675781 C 53.796875 90.335938 53.828125 89.960938 53.828125 89.554688 C 53.828125 89.148438 53.796875 88.777344 53.75 88.425781 C 53.703125 88.082031 53.617188 87.78125 53.503906 87.527344 C 53.386719 87.273438 53.234375 87.074219 53.050781 86.921875 C 52.867188 86.777344 52.640625 86.707031 52.371094 86.707031 C 52.101562 86.707031 51.878906 86.777344 51.691406 86.921875 C 51.503906 87.074219 51.359375 87.273438 51.246094 87.527344 C 51.128906 87.78125 51.046875 88.082031 51 88.425781 C 50.953125 88.777344 50.921875 89.148438 50.921875 89.554688 C 50.921875 89.960938 50.953125 90.335938 51 90.675781 C 51.046875 91.027344 51.128906 91.332031 51.246094 91.585938 "/>
<path style=" stroke:none;fill-rule:nonzero;fill:rgb(100%,100%,100%);fill-opacity:1;" d="M 57.226562 92.332031 L 57.9375 92.332031 L 57.9375 89.914062 C 57.9375 89.59375 57.992188 89.339844 58.109375 89.15625 C 58.21875 88.976562 58.386719 88.886719 58.609375 88.886719 C 58.796875 88.886719 58.925781 88.957031 59.019531 89.101562 C 59.097656 89.246094 59.140625 89.476562 59.140625 89.792969 L 59.140625 92.332031 L 59.851562 92.332031 L 59.851562 89.601562 C 59.851562 89.171875 59.769531 88.832031 59.605469 88.578125 C 59.441406 88.324219 59.179688 88.195312 58.824219 88.195312 C 58.59375 88.195312 58.40625 88.257812 58.273438 88.378906 C 58.136719 88.503906 58.027344 88.640625 57.953125 88.789062 L 57.9375 88.789062 L 57.9375 86.363281 L 57.226562 86.363281 L 57.226562 92.332031 "/>
<path style=" stroke:none;fill-rule:nonzero;fill:rgb(10.112%,40.585327%,73.280334%);fill-opacity:1;" d="M 21.628906 38.96875 C 22.683594 39.085938 23.84375 39.203125 24.78125 39.671875 C 25.601562 40.023438 26.304688 40.726562 26.890625 41.429688 C 27.359375 42.238281 27.59375 43.175781 27.59375 44.113281 C 27.59375 44.933594 27.359375 45.871094 26.890625 46.574219 C 26.421875 47.394531 25.71875 48.097656 24.898438 48.566406 C 23.960938 49.035156 22.800781 49.152344 21.746094 49.152344 C 21.042969 49.152344 20.222656 49.035156 19.519531 48.917969 C 18.347656 48.566406 17.292969 47.980469 16.472656 47.042969 C 15.886719 46.222656 15.535156 45.167969 15.535156 43.996094 C 15.417969 43.175781 15.652344 42.238281 16.121094 41.535156 C 16.589844 40.609375 17.527344 39.90625 18.464844 39.554688 C 19.402344 39.085938 20.574219 38.96875 21.628906 38.96875 "/>
<path style=" stroke:none;fill-rule:nonzero;fill:rgb(10.112%,40.585327%,73.280334%);fill-opacity:1;" d="M 7.980469 72.167969 C 7.988281 71.792969 8.046875 71.5 8.164062 71.292969 C 8.28125 71.09375 8.445312 70.988281 8.648438 70.988281 C 9.070312 70.988281 9.28125 71.378906 9.28125 72.167969 L 7.980469 72.167969 "/>
<path style=" stroke:none;fill-rule:nonzero;fill:rgb(10.112%,40.585327%,73.280334%);fill-opacity:1;" d="M 15.308594 72.542969 L 15.308594 72.90625 C 15.308594 73.230469 15.25 73.496094 15.125 73.695312 C 14.996094 73.902344 14.8125 74.007812 14.5625 74.007812 C 14.378906 74.007812 14.242188 73.945312 14.144531 73.824219 C 14.050781 73.703125 14.003906 73.539062 14.003906 73.339844 C 14.003906 73.066406 14.09375 72.867188 14.277344 72.730469 C 14.460938 72.597656 14.726562 72.535156 15.074219 72.535156 C 15.113281 72.535156 15.15625 72.535156 15.203125 72.535156 C 15.25 72.535156 15.289062 72.535156 15.308594 72.542969 "/>
<path style=" stroke:none;fill-rule:nonzero;fill:rgb(10.112%,40.585327%,73.280334%);fill-opacity:1;" d="M 20.644531 73.574219 C 20.527344 73.347656 20.464844 72.976562 20.464844 72.476562 C 20.464844 72.007812 20.519531 71.65625 20.628906 71.410156 C 20.730469 71.171875 20.910156 71.050781 21.15625 71.046875 C 21.386719 71.046875 21.5625 71.164062 21.691406 71.402344 C 21.816406 71.644531 21.875 72 21.875 72.46875 C 21.875 72.964844 21.816406 73.328125 21.699219 73.570312 C 21.582031 73.816406 21.390625 73.933594 21.125 73.933594 C 20.921875 73.933594 20.757812 73.816406 20.644531 73.574219 "/>
<path style=" stroke:none;fill-rule:nonzero;fill:rgb(10.112%,40.585327%,73.280334%);fill-opacity:1;" d="M 29.96875 72.167969 C 29.972656 71.792969 30.035156 71.5 30.152344 71.292969 C 30.265625 71.09375 30.429688 70.988281 30.632812 70.988281 C 31.058594 70.988281 31.269531 71.378906 31.269531 72.167969 L 29.96875 72.167969 "/>
<path style=" stroke:none;fill-rule:nonzero;fill:rgb(10.112%,40.585327%,73.280334%);fill-opacity:1;" d="M 45.617188 71.738281 C 45.53125 71.683594 45.460938 71.59375 45.40625 71.492188 C 45.351562 71.386719 45.308594 71.269531 45.28125 71.132812 C 45.257812 70.996094 45.242188 70.859375 45.242188 70.710938 C 45.242188 70.550781 45.257812 70.402344 45.28125 70.265625 C 45.308594 70.132812 45.351562 70.003906 45.414062 69.898438 C 45.46875 69.796875 45.535156 69.714844 45.621094 69.660156 C 45.707031 69.605469 45.808594 69.570312 45.921875 69.570312 C 46.039062 69.570312 46.144531 69.605469 46.230469 69.660156 C 46.320312 69.714844 46.386719 69.796875 46.441406 69.898438 C 46.496094 70.003906 46.539062 70.132812 46.5625 70.265625 C 46.589844 70.402344 46.605469 70.550781 46.605469 70.710938 C 46.605469 70.859375 46.589844 71.003906 46.5625 71.140625 C 46.539062 71.273438 46.496094 71.394531 46.441406 71.5 C 46.378906 71.601562 46.3125 71.691406 46.222656 71.746094 C 46.136719 71.800781 46.039062 71.835938 45.921875 71.835938 C 45.808594 71.835938 45.707031 71.800781 45.617188 71.738281 "/>
<path style=" stroke:none;fill-rule:nonzero;fill:rgb(10.112%,40.585327%,73.280334%);fill-opacity:1;" d="M 9.945312 82.449219 C 9.886719 82.3125 9.84375 82.160156 9.820312 81.976562 C 9.792969 81.796875 9.78125 81.605469 9.78125 81.390625 C 9.78125 81.171875 9.792969 80.984375 9.820312 80.800781 C 9.84375 80.617188 9.886719 80.464844 9.945312 80.332031 C 10.007812 80.203125 10.082031 80.097656 10.175781 80.03125 C 10.265625 79.957031 10.382812 79.914062 10.515625 79.914062 C 10.652344 79.914062 10.769531 79.957031 10.863281 80.03125 C 10.953125 80.097656 11.027344 80.203125 11.089844 80.332031 C 11.148438 80.464844 11.191406 80.617188 11.21875 80.800781 C 11.238281 80.984375 11.253906 81.171875 11.253906 81.390625 C 11.253906 81.605469 11.238281 81.796875 11.21875 81.976562 C 11.191406 82.160156 11.148438 82.3125 11.089844 82.449219 C 11.027344 82.585938 10.953125 82.6875 10.863281 82.757812 C 10.769531 82.828125 10.652344 82.867188 10.515625 82.867188 C 10.382812 82.867188 10.265625 82.828125 10.175781 82.757812 C 10.082031 82.6875 10.007812 82.585938 9.945312 82.449219 "/>
<path style=" stroke:none;fill-rule:nonzero;fill:rgb(10.112%,40.585327%,73.280334%);fill-opacity:1;" d="M 26.816406 81.4375 L 26.816406 81.804688 C 26.816406 82.128906 26.757812 82.394531 26.632812 82.59375 C 26.503906 82.796875 26.320312 82.902344 26.070312 82.902344 C 25.882812 82.902344 25.746094 82.839844 25.652344 82.71875 C 25.554688 82.597656 25.507812 82.433594 25.507812 82.234375 C 25.507812 81.960938 25.597656 81.761719 25.78125 81.628906 C 25.964844 81.492188 26.230469 81.429688 26.578125 81.429688 C 26.621094 81.429688 26.660156 81.429688 26.707031 81.429688 C 26.757812 81.429688 26.796875 81.429688 26.816406 81.4375 "/>
<path style=" stroke:none;fill-rule:nonzero;fill:rgb(10.112%,40.585327%,73.280334%);fill-opacity:1;" d="M 44.277344 80.632812 C 44.191406 80.578125 44.121094 80.488281 44.070312 80.386719 C 44.011719 80.285156 43.972656 80.164062 43.945312 80.03125 C 43.917969 79.894531 43.90625 79.757812 43.90625 79.605469 C 43.90625 79.449219 43.917969 79.296875 43.945312 79.160156 C 43.972656 79.027344 44.011719 78.898438 44.074219 78.792969 C 44.128906 78.691406 44.199219 78.609375 44.285156 78.554688 C 44.367188 78.5 44.46875 78.46875 44.585938 78.46875 C 44.703125 78.46875 44.800781 78.5 44.894531 78.554688 C 44.980469 78.609375 45.046875 78.691406 45.101562 78.792969 C 45.15625 78.898438 45.199219 79.027344 45.226562 79.160156 C 45.253906 79.296875 45.265625 79.449219 45.265625 79.605469 C 45.265625 79.757812 45.253906 79.902344 45.226562 80.035156 C 45.199219 80.167969 45.15625 80.289062 45.101562 80.394531 C 45.039062 80.496094 44.972656 80.585938 44.886719 80.640625 C 44.796875 80.699219 44.703125 80.730469 44.585938 80.730469 C 44.46875 80.730469 44.367188 80.699219 44.277344 80.632812 "/>
<path style=" stroke:none;fill-rule:nonzero;fill:rgb(10.112%,40.585327%,73.280334%);fill-opacity:1;" d="M 51.867188 82.265625 C 51.769531 81.890625 51.710938 81.347656 51.710938 80.65625 C 51.710938 79.964844 51.769531 79.425781 51.867188 79.039062 C 51.972656 78.65625 52.164062 78.46875 52.425781 78.46875 C 52.699219 78.46875 52.890625 78.65625 52.992188 79.035156 C 53.09375 79.414062 53.148438 79.957031 53.148438 80.65625 C 53.148438 81.347656 53.09375 81.890625 52.992188 82.265625 C 52.882812 82.648438 52.691406 82.839844 52.425781 82.839844 C 52.164062 82.839844 51.972656 82.648438 51.867188 82.265625 "/>
<path style=" stroke:none;fill-rule:nonzero;fill:rgb(10.112%,40.585327%,73.280334%);fill-opacity:1;" d="M 27.078125 90.335938 L 27.078125 90.699219 C 27.078125 91.027344 27.015625 91.292969 26.890625 91.488281 C 26.765625 91.699219 26.578125 91.800781 26.324219 91.800781 C 26.140625 91.800781 26 91.738281 25.90625 91.617188 C 25.808594 91.5 25.761719 91.332031 25.761719 91.132812 C 25.761719 90.859375 25.847656 90.660156 26.035156 90.523438 C 26.21875 90.390625 26.488281 90.328125 26.835938 90.328125 C 26.878906 90.328125 26.917969 90.328125 26.96875 90.328125 C 27.015625 90.328125 27.058594 90.328125 27.078125 90.335938 "/>
<path style=" stroke:none;fill-rule:nonzero;fill:rgb(10.112%,40.585327%,73.280334%);fill-opacity:1;" d="M 44.160156 89.53125 C 44.070312 89.476562 44 89.390625 43.949219 89.285156 C 43.894531 89.179688 43.851562 89.058594 43.824219 88.925781 C 43.796875 88.789062 43.78125 88.65625 43.78125 88.503906 C 43.78125 88.34375 43.796875 88.195312 43.824219 88.058594 C 43.851562 87.925781 43.894531 87.796875 43.953125 87.691406 C 44.007812 87.589844 44.078125 87.507812 44.167969 87.453125 C 44.246094 87.398438 44.351562 87.363281 44.46875 87.363281 C 44.585938 87.363281 44.6875 87.398438 44.777344 87.453125 C 44.867188 87.507812 44.933594 87.589844 44.992188 87.691406 C 45.042969 87.796875 45.085938 87.925781 45.113281 88.058594 C 45.140625 88.195312 45.15625 88.34375 45.15625 88.503906 C 45.15625 88.65625 45.140625 88.796875 45.113281 88.933594 C 45.085938 89.070312 45.042969 89.191406 44.992188 89.292969 C 44.925781 89.398438 44.859375 89.484375 44.769531 89.539062 C 44.679688 89.59375 44.585938 89.628906 44.46875 89.628906 C 44.351562 89.628906 44.246094 89.59375 44.160156 89.53125 "/>
<path style=" stroke:none;fill-rule:nonzero;fill:rgb(10.112%,40.585327%,73.280334%);fill-opacity:1;" d="M 51.808594 91.164062 C 51.703125 90.789062 51.652344 90.25 51.652344 89.554688 C 51.652344 88.863281 51.703125 88.324219 51.808594 87.941406 C 51.910156 87.554688 52.101562 87.363281 52.371094 87.363281 C 52.644531 87.363281 52.839844 87.554688 52.941406 87.929688 C 53.042969 88.3125 53.097656 88.855469 53.097656 89.554688 C 53.097656 90.25 53.042969 90.789062 52.941406 91.164062 C 52.832031 91.546875 52.640625 91.738281 52.371094 91.738281 C 52.101562 91.738281 51.910156 91.546875 51.808594 91.164062 "/>
</g>
</svg>
