<?xml version="1.0" encoding="UTF-8"?>
<svg xmlns="http://www.w3.org/2000/svg" xmlns:xlink="http://www.w3.org/1999/xlink" width="72pt" height="100pt" viewBox="0 0 72 100" version="1.1">
<g id="surface1">
<path style=" stroke:none;fill-rule:nonzero;fill:rgb(13.729858%,12.159729%,12.548828%);fill-opacity:1;" d="M 0.335938 99.433594 L 0.335938 0.21875 L 71.203125 0.21875 L 71.203125 99.433594 L 0.335938 99.433594 M 0.480469 99.289062 L 71.066406 99.289062 L 71.066406 0.359375 L 0.480469 0.359375 L 0.480469 99.289062 "/>
<path style=" stroke:none;fill-rule:nonzero;fill:rgb(10.112%,40.585327%,73.280334%);fill-opacity:1;" d="M 1.757812 98.011719 L 1.757812 1.636719 L 69.785156 1.636719 L 69.785156 98.011719 L 1.757812 98.011719 M 10.96875 60.453125 L 60.574219 60.453125 L 60.574219 10.851562 L 10.96875 10.851562 L 10.96875 60.453125 "/>
<path style=" stroke:none;fill-rule:nonzero;fill:rgb(93.527222%,17.272949%,18.882751%);fill-opacity:1;" d="M 32.578125 17.253906 L 32.578125 19.320312 L 34.695312 19.320312 L 34.648438 24.414062 C 33.1875 25.050781 32.164062 26.507812 32.164062 28.207031 L 32.164062 51.359375 C 32.164062 53.644531 34.015625 55.492188 36.296875 55.492188 C 38.578125 55.492188 40.429688 53.644531 40.429688 51.359375 L 40.445312 28.226562 C 40.445312 26.527344 39.40625 25.019531 37.945312 24.386719 L 37.949219 19.320312 L 39.191406 19.320312 L 40.675781 22.128906 L 43.652344 22.128906 L 40.675781 17.253906 L 32.578125 17.253906 M 31.007812 18.289062 L 21.914062 15.808594 L 21.914062 20.769531 L 31.007812 18.289062 "/>
</g>
</svg>
