<?xml version="1.0" encoding="UTF-8"?>
<svg xmlns="http://www.w3.org/2000/svg" xmlns:xlink="http://www.w3.org/1999/xlink" width="35pt" height="103pt" viewBox="0 0 35 103" version="1.1">
<g id="surface1">
<path style=" stroke:none;fill-rule:nonzero;fill:rgb(100%,100%,100%);fill-opacity:1;" d="M 0.511719 102.195312 L 34.527344 102.195312 L 34.527344 0.148438 L 0.511719 0.148438 Z M 0.511719 102.195312 "/>
<path style="fill:none;stroke-width:2.835;stroke-linecap:butt;stroke-linejoin:miter;stroke:rgb(13.729858%,12.159729%,12.548828%);stroke-opacity:1;stroke-miterlimit:4;" d="M 5.117188 8.046875 L 345.273438 8.046875 L 345.273438 1028.515625 L 5.117188 1028.515625 L 5.117188 8.046875 " transform="matrix(0.1,0,0,-0.1,0,103)"/>
<path style=" stroke:none;fill-rule:nonzero;fill:rgb(100%,100%,100%);fill-opacity:1;" d="M 0.511719 102.195312 L 34.527344 102.195312 L 34.527344 0.148438 L 0.511719 0.148438 Z M 0.511719 102.195312 "/>
<path style="fill:none;stroke-width:2.835;stroke-linecap:butt;stroke-linejoin:round;stroke:rgb(13.729858%,12.159729%,12.548828%);stroke-opacity:1;stroke-miterlimit:4;" d="M 5.117188 8.046875 L 345.273438 8.046875 L 345.273438 1028.515625 L 5.117188 1028.515625 L 5.117188 8.046875 " transform="matrix(0.1,0,0,-0.1,0,103)"/>
<path style=" stroke:none;fill-rule:nonzero;fill:rgb(13.729858%,12.159729%,12.548828%);fill-opacity:1;" d="M 13.265625 69.601562 L 13.265625 32.753906 L 4.539062 34.078125 C 4.171875 34.164062 3.808594 34.03125 3.59375 33.738281 C 3.3125 33.398438 3.292969 32.917969 3.53125 32.535156 L 16.417969 12.117188 C 16.683594 11.742188 17.101562 11.484375 17.539062 11.484375 C 18.023438 11.46875 18.460938 11.71875 18.726562 12.117188 L 31.550781 32.601562 C 31.777344 32.9375 31.753906 33.398438 31.535156 33.738281 C 31.316406 34.078125 30.910156 34.21875 30.550781 34.140625 L 21.765625 32.753906 L 21.765625 69.601562 L 30.550781 68.175781 C 30.910156 68.097656 31.316406 68.238281 31.535156 68.578125 C 31.753906 68.917969 31.777344 69.378906 31.550781 69.71875 L 18.726562 90.199219 C 18.460938 90.597656 18.023438 90.847656 17.539062 90.835938 C 17.101562 90.835938 16.683594 90.574219 16.417969 90.199219 L 3.53125 69.78125 C 3.292969 69.398438 3.3125 68.917969 3.59375 68.578125 C 3.808594 68.285156 4.171875 68.15625 4.539062 68.238281 L 13.265625 69.601562 "/>
</g>
</svg>
