<?xml version="1.0" encoding="UTF-8"?>
<svg xmlns="http://www.w3.org/2000/svg" xmlns:xlink="http://www.w3.org/1999/xlink" width="87pt" height="58pt" viewBox="0 0 87 58" version="1.1">
<g id="surface1">
<path style=" stroke:none;fill-rule:nonzero;fill:rgb(100%,100%,100%);fill-opacity:1;" d="M 1 57.519531 L 86.039062 57.519531 L 86.039062 0.828125 L 1 0.828125 Z M 1 57.519531 "/>
<path style="fill:none;stroke-width:2.835;stroke-linecap:butt;stroke-linejoin:miter;stroke:rgb(13.729858%,12.159729%,12.548828%);stroke-opacity:1;stroke-miterlimit:4;" d="M 10 4.804688 L 860.390625 4.804688 L 860.390625 571.71875 L 10 571.71875 L 10 4.804688 " transform="matrix(0.1,0,0,-0.1,0,58)"/>
<path style=" stroke:none;fill-rule:nonzero;fill:rgb(13.729858%,12.159729%,12.548828%);fill-opacity:1;" d="M 34.285156 11.226562 C 34.511719 11.683594 34.804688 12.035156 35.164062 12.292969 C 35.519531 12.550781 35.945312 12.675781 36.464844 12.675781 C 36.980469 12.675781 37.421875 12.550781 37.78125 12.28125 C 38.136719 12.023438 38.433594 11.667969 38.65625 11.210938 C 38.882812 10.757812 39.039062 10.21875 39.132812 9.605469 C 39.226562 8.996094 39.28125 8.328125 39.28125 7.605469 C 39.28125 6.878906 39.226562 6.210938 39.132812 5.585938 C 39.039062 4.972656 38.882812 4.433594 38.65625 3.980469 C 38.433594 3.523438 38.136719 3.167969 37.78125 2.898438 C 37.421875 2.644531 36.980469 2.515625 36.464844 2.515625 C 35.945312 2.515625 35.503906 2.644531 35.148438 2.898438 C 34.789062 3.167969 34.511719 3.523438 34.285156 3.980469 C 34.058594 4.433594 33.898438 4.972656 33.804688 5.585938 C 33.710938 6.210938 33.65625 6.878906 33.65625 7.605469 C 33.65625 8.328125 33.710938 8.996094 33.804688 9.605469 C 33.898438 10.234375 34.058594 10.773438 34.285156 11.226562 "/>
<path style=" stroke:none;fill-rule:nonzero;fill:rgb(13.729858%,12.159729%,12.548828%);fill-opacity:1;" d="M 41.882812 7.417969 C 41.367188 7.660156 40.941406 7.972656 40.625 8.359375 C 40.304688 8.753906 40.144531 9.28125 40.144531 9.949219 C 40.144531 10.335938 40.210938 10.703125 40.34375 11.027344 C 40.460938 11.355469 40.648438 11.65625 40.890625 11.898438 C 41.128906 12.136719 41.417969 12.335938 41.765625 12.464844 C 42.109375 12.601562 42.496094 12.675781 42.933594 12.675781 C 43.347656 12.675781 43.730469 12.617188 44.089844 12.480469 C 44.4375 12.351562 44.726562 12.179688 44.980469 11.941406 C 45.234375 11.699219 45.417969 11.414062 45.566406 11.074219 C 45.699219 10.730469 45.765625 10.347656 45.765625 9.917969 C 45.765625 9.292969 45.605469 8.769531 45.285156 8.34375 C 44.957031 7.929688 44.53125 7.605469 44.011719 7.359375 C 44.515625 7.089844 44.902344 6.738281 45.152344 6.292969 C 45.410156 5.871094 45.539062 5.417969 45.539062 4.929688 C 45.539062 4.578125 45.472656 4.25 45.355469 3.953125 C 45.222656 3.652344 45.035156 3.398438 44.808594 3.183594 C 44.585938 2.96875 44.304688 2.8125 43.996094 2.683594 C 43.679688 2.574219 43.335938 2.515625 42.960938 2.515625 C 42.566406 2.515625 42.203125 2.574219 41.882812 2.699219 C 41.566406 2.828125 41.300781 3.011719 41.074219 3.238281 C 40.851562 3.46875 40.679688 3.738281 40.554688 4.039062 C 40.4375 4.347656 40.371094 4.691406 40.371094 5.046875 C 40.371094 5.554688 40.492188 6.011719 40.742188 6.410156 C 40.996094 6.820312 41.367188 7.148438 41.882812 7.417969 "/>
<path style=" stroke:none;fill-rule:nonzero;fill:rgb(13.729858%,12.159729%,12.548828%);fill-opacity:1;" d="M 47.378906 8.65625 C 47.535156 8.972656 47.742188 9.222656 47.988281 9.402344 C 48.242188 9.582031 48.539062 9.671875 48.90625 9.671875 C 49.265625 9.671875 49.574219 9.582031 49.824219 9.390625 C 50.074219 9.210938 50.28125 8.960938 50.4375 8.644531 C 50.597656 8.324219 50.707031 7.949219 50.773438 7.523438 C 50.839844 7.09375 50.875 6.625 50.875 6.117188 C 50.875 5.609375 50.839844 5.144531 50.773438 4.703125 C 50.707031 4.277344 50.597656 3.902344 50.4375 3.582031 C 50.28125 3.265625 50.074219 3.015625 49.824219 2.824219 C 49.574219 2.644531 49.265625 2.554688 48.90625 2.554688 C 48.539062 2.554688 48.230469 2.644531 47.980469 2.824219 C 47.730469 3.015625 47.535156 3.265625 47.378906 3.582031 C 47.21875 3.902344 47.109375 4.277344 47.042969 4.703125 C 46.976562 5.144531 46.9375 5.609375 46.9375 6.117188 C 46.9375 6.625 46.976562 7.09375 47.042969 7.523438 C 47.109375 7.957031 47.21875 8.335938 47.378906 8.65625 "/>
<path style=" stroke:none;fill-rule:nonzero;fill:rgb(13.729858%,12.159729%,12.548828%);fill-opacity:1;" d="M 51.941406 8.65625 C 52.097656 8.972656 52.300781 9.222656 52.554688 9.402344 C 52.804688 9.582031 53.101562 9.671875 53.464844 9.671875 C 53.828125 9.671875 54.136719 9.582031 54.386719 9.390625 C 54.640625 9.210938 54.84375 8.960938 55 8.644531 C 55.15625 8.324219 55.269531 7.949219 55.335938 7.523438 C 55.402344 7.09375 55.4375 6.625 55.4375 6.117188 C 55.4375 5.609375 55.402344 5.144531 55.335938 4.703125 C 55.269531 4.277344 55.15625 3.902344 55 3.582031 C 54.84375 3.265625 54.640625 3.015625 54.386719 2.824219 C 54.136719 2.644531 53.828125 2.554688 53.464844 2.554688 C 53.101562 2.554688 52.796875 2.644531 52.542969 2.824219 C 52.296875 3.015625 52.097656 3.265625 51.941406 3.582031 C 51.78125 3.902344 51.667969 4.277344 51.605469 4.703125 C 51.539062 5.144531 51.503906 5.609375 51.503906 6.117188 C 51.503906 6.625 51.539062 7.09375 51.605469 7.523438 C 51.667969 7.957031 51.78125 8.335938 51.941406 8.65625 "/>
<path style=" stroke:none;fill-rule:nonzero;fill:rgb(13.729858%,12.159729%,12.548828%);fill-opacity:1;" d="M 58.335938 9.167969 L 61.308594 9.167969 L 61.308594 7.929688 L 58.335938 7.929688 L 58.335938 9.167969 "/>
<path style=" stroke:none;fill-rule:nonzero;fill:rgb(13.729858%,12.159729%,12.548828%);fill-opacity:1;" d="M 65.628906 12.5625 L 67.035156 12.5625 L 67.035156 2.644531 L 65.800781 2.644531 L 63.730469 4.660156 L 64.417969 5.726562 L 65.628906 4.40625 L 65.628906 12.5625 "/>
<path style=" stroke:none;fill-rule:nonzero;fill:rgb(13.729858%,12.159729%,12.548828%);fill-opacity:1;" d="M 69.582031 12.5625 L 70.992188 12.5625 L 70.992188 2.644531 L 69.757812 2.644531 L 67.683594 4.660156 L 68.378906 5.726562 L 69.582031 4.40625 L 69.582031 12.5625 "/>
<path style=" stroke:none;fill-rule:nonzero;fill:rgb(13.729858%,12.159729%,12.548828%);fill-opacity:1;" d="M 72.167969 9.390625 C 72.363281 9.464844 72.585938 9.53125 72.835938 9.582031 C 73.089844 9.640625 73.347656 9.671875 73.628906 9.671875 C 73.953125 9.671875 74.253906 9.621094 74.523438 9.53125 C 74.789062 9.429688 75.011719 9.292969 75.210938 9.125 C 75.40625 8.945312 75.550781 8.726562 75.65625 8.476562 C 75.757812 8.226562 75.816406 7.949219 75.816406 7.628906 C 75.816406 7.371094 75.773438 7.144531 75.710938 6.941406 C 75.636719 6.746094 75.542969 6.585938 75.421875 6.445312 C 75.300781 6.304688 75.164062 6.199219 75.003906 6.117188 C 74.84375 6.039062 74.675781 5.976562 74.5 5.949219 L 74.5 5.925781 C 74.640625 5.898438 74.78125 5.847656 74.929688 5.78125 C 75.070312 5.710938 75.210938 5.609375 75.328125 5.480469 C 75.453125 5.351562 75.542969 5.195312 75.617188 4.996094 C 75.691406 4.804688 75.726562 4.578125 75.726562 4.296875 C 75.726562 4.019531 75.683594 3.761719 75.589844 3.539062 C 75.484375 3.320312 75.355469 3.144531 75.191406 2.992188 C 75.023438 2.847656 74.828125 2.734375 74.59375 2.664062 C 74.363281 2.597656 74.117188 2.554688 73.851562 2.554688 C 73.535156 2.554688 73.253906 2.585938 73.015625 2.636719 C 72.761719 2.695312 72.546875 2.765625 72.363281 2.847656 L 72.425781 3.789062 C 72.621094 3.679688 72.835938 3.589844 73.050781 3.523438 C 73.265625 3.449219 73.46875 3.421875 73.648438 3.421875 C 73.953125 3.421875 74.210938 3.511719 74.429688 3.691406 C 74.640625 3.867188 74.746094 4.128906 74.746094 4.457031 C 74.746094 4.664062 74.707031 4.832031 74.632812 4.972656 C 74.558594 5.125 74.453125 5.234375 74.324219 5.332031 C 74.1875 5.417969 74.027344 5.492188 73.84375 5.53125 C 73.65625 5.582031 73.449219 5.601562 73.234375 5.601562 L 72.96875 5.601562 L 72.96875 6.433594 C 73.023438 6.433594 73.097656 6.433594 73.191406 6.429688 C 73.273438 6.429688 73.386719 6.429688 73.519531 6.429688 C 73.90625 6.429688 74.210938 6.527344 74.433594 6.714844 C 74.660156 6.902344 74.769531 7.183594 74.769531 7.53125 C 74.769531 7.75 74.734375 7.941406 74.667969 8.097656 C 74.605469 8.257812 74.511719 8.386719 74.398438 8.488281 C 74.277344 8.59375 74.148438 8.675781 74 8.726562 C 73.84375 8.777344 73.683594 8.804688 73.507812 8.804688 C 73.253906 8.804688 73.023438 8.765625 72.808594 8.683594 C 72.59375 8.617188 72.398438 8.527344 72.230469 8.4375 L 72.167969 9.390625 "/>
<path style=" stroke:none;fill-rule:nonzero;fill:rgb(13.729858%,12.159729%,12.548828%);fill-opacity:1;" d="M 76.933594 8.65625 C 77.089844 8.972656 77.292969 9.222656 77.546875 9.402344 C 77.796875 9.582031 78.09375 9.671875 78.457031 9.671875 C 78.820312 9.671875 79.125 9.582031 79.378906 9.390625 C 79.632812 9.210938 79.835938 8.960938 79.992188 8.644531 C 80.148438 8.324219 80.261719 7.949219 80.328125 7.523438 C 80.394531 7.09375 80.429688 6.625 80.429688 6.117188 C 80.429688 5.609375 80.394531 5.144531 80.328125 4.703125 C 80.261719 4.277344 80.148438 3.902344 79.992188 3.582031 C 79.835938 3.265625 79.632812 3.015625 79.378906 2.824219 C 79.125 2.644531 78.820312 2.554688 78.457031 2.554688 C 78.09375 2.554688 77.785156 2.644531 77.535156 2.824219 C 77.285156 3.015625 77.089844 3.265625 76.933594 3.582031 C 76.777344 3.902344 76.664062 4.277344 76.59375 4.703125 C 76.53125 5.144531 76.496094 5.609375 76.496094 6.117188 C 76.496094 6.625 76.53125 7.09375 76.59375 7.523438 C 76.664062 7.957031 76.777344 8.335938 76.933594 8.65625 "/>
<path style=" stroke:none;fill-rule:nonzero;fill:rgb(13.729858%,12.159729%,12.548828%);fill-opacity:1;" d="M 35.65625 27.511719 L 37.136719 27.511719 L 37.136719 17.59375 L 35.835938 17.59375 L 33.65625 19.609375 L 34.386719 20.671875 L 35.65625 19.351562 L 35.65625 27.511719 "/>
<path style=" stroke:none;fill-rule:nonzero;fill:rgb(13.729858%,12.159729%,12.548828%);fill-opacity:1;" d="M 37.832031 25.347656 L 41.601562 25.347656 L 41.601562 27.511719 L 42.996094 27.511719 L 42.996094 25.347656 L 44.070312 25.347656 L 44.070312 24.171875 L 42.996094 24.171875 L 42.996094 17.59375 L 41.265625 17.59375 L 37.832031 23.929688 L 37.832031 25.347656 "/>
<path style=" stroke:none;fill-rule:nonzero;fill:rgb(13.729858%,12.159729%,12.548828%);fill-opacity:1;" d="M 46.703125 24.539062 L 47.738281 24.539062 L 47.738281 17.59375 L 46.828125 17.59375 L 45.304688 19.007812 L 45.8125 19.75 L 46.703125 18.828125 L 46.703125 24.539062 "/>
<path style=" stroke:none;fill-rule:nonzero;fill:rgb(13.729858%,12.159729%,12.548828%);fill-opacity:1;" d="M 48.59375 24.339844 C 48.78125 24.410156 48.992188 24.476562 49.25 24.527344 C 49.496094 24.585938 49.769531 24.617188 50.046875 24.617188 C 50.773438 24.617188 51.332031 24.398438 51.71875 23.96875 C 52.113281 23.53125 52.304688 22.945312 52.304688 22.199219 C 52.304688 21.859375 52.261719 21.550781 52.160156 21.296875 C 52.054688 21.027344 51.917969 20.804688 51.753906 20.625 C 51.582031 20.449219 51.378906 20.320312 51.15625 20.230469 C 50.917969 20.140625 50.675781 20.089844 50.417969 20.089844 C 50.265625 20.089844 50.117188 20.101562 49.992188 20.117188 C 49.855469 20.128906 49.734375 20.160156 49.648438 20.191406 L 49.648438 18.4375 L 51.984375 18.4375 L 51.984375 17.59375 L 48.691406 17.59375 L 48.691406 21.132812 C 48.855469 21.082031 49.035156 21.035156 49.210938 20.984375 C 49.386719 20.9375 49.59375 20.914062 49.816406 20.914062 C 50.28125 20.914062 50.636719 21.042969 50.882812 21.296875 C 51.113281 21.542969 51.234375 21.882812 51.234375 22.289062 C 51.234375 22.71875 51.113281 23.0625 50.871094 23.332031 C 50.625 23.609375 50.292969 23.75 49.871094 23.75 C 49.632812 23.75 49.40625 23.710938 49.199219 23.644531 C 48.992188 23.570312 48.808594 23.492188 48.652344 23.402344 L 48.59375 24.339844 "/>
<path style=" stroke:none;fill-rule:nonzero;fill:rgb(13.729858%,12.159729%,12.548828%);fill-opacity:1;" d="M 55.351562 24.113281 L 58.476562 24.113281 L 58.476562 22.875 L 55.351562 22.875 L 55.351562 24.113281 "/>
<path style=" stroke:none;fill-rule:nonzero;fill:rgb(13.729858%,12.159729%,12.548828%);fill-opacity:1;" d="M 63.011719 27.511719 L 64.492188 27.511719 L 64.492188 17.59375 L 63.191406 17.59375 L 61.015625 19.609375 L 61.742188 20.671875 L 63.011719 19.351562 L 63.011719 27.511719 "/>
<path style=" stroke:none;fill-rule:nonzero;fill:rgb(13.729858%,12.159729%,12.548828%);fill-opacity:1;" d="M 65.914062 27.511719 L 67.558594 27.511719 L 70.519531 18.96875 L 70.519531 17.59375 L 65.1875 17.59375 L 65.1875 18.855469 L 69.09375 18.855469 L 65.914062 27.511719 "/>
<path style=" stroke:none;fill-rule:nonzero;fill:rgb(13.729858%,12.159729%,12.548828%);fill-opacity:1;" d="M 71.75 24.339844 C 71.957031 24.410156 72.191406 24.476562 72.457031 24.527344 C 72.71875 24.585938 72.992188 24.617188 73.28125 24.617188 C 73.625 24.617188 73.9375 24.570312 74.222656 24.476562 C 74.507812 24.378906 74.742188 24.242188 74.949219 24.070312 C 75.152344 23.890625 75.304688 23.671875 75.414062 23.421875 C 75.523438 23.175781 75.582031 22.894531 75.582031 22.578125 C 75.582031 22.320312 75.539062 22.09375 75.472656 21.890625 C 75.398438 21.691406 75.296875 21.535156 75.167969 21.394531 C 75.042969 21.253906 74.898438 21.144531 74.730469 21.066406 C 74.566406 20.984375 74.390625 20.925781 74.207031 20.898438 L 74.207031 20.875 C 74.347656 20.847656 74.496094 20.796875 74.652344 20.726562 C 74.796875 20.660156 74.949219 20.558594 75.074219 20.429688 C 75.199219 20.296875 75.296875 20.140625 75.375 19.941406 C 75.453125 19.75 75.492188 19.523438 75.492188 19.242188 C 75.492188 18.96875 75.445312 18.707031 75.347656 18.488281 C 75.238281 18.269531 75.101562 18.09375 74.925781 17.941406 C 74.75 17.792969 74.546875 17.679688 74.300781 17.613281 C 74.058594 17.542969 73.800781 17.5 73.523438 17.5 C 73.1875 17.5 72.894531 17.535156 72.640625 17.585938 C 72.375 17.640625 72.152344 17.714844 71.957031 17.792969 L 72.023438 18.734375 C 72.226562 18.628906 72.457031 18.539062 72.679688 18.46875 C 72.90625 18.398438 73.117188 18.367188 73.304688 18.367188 C 73.625 18.367188 73.898438 18.460938 74.125 18.640625 C 74.347656 18.816406 74.457031 19.074219 74.457031 19.402344 C 74.457031 19.609375 74.417969 19.78125 74.34375 19.921875 C 74.261719 20.074219 74.15625 20.179688 74.019531 20.28125 C 73.871094 20.367188 73.707031 20.441406 73.511719 20.480469 C 73.316406 20.53125 73.097656 20.546875 72.871094 20.546875 L 72.59375 20.546875 L 72.59375 21.382812 C 72.652344 21.382812 72.730469 21.382812 72.828125 21.375 C 72.914062 21.375 73.03125 21.375 73.167969 21.375 C 73.578125 21.375 73.898438 21.472656 74.136719 21.664062 C 74.371094 21.851562 74.484375 22.132812 74.484375 22.476562 C 74.484375 22.695312 74.445312 22.886719 74.378906 23.046875 C 74.308594 23.203125 74.210938 23.332031 74.097656 23.433594 C 73.96875 23.542969 73.832031 23.621094 73.675781 23.671875 C 73.511719 23.722656 73.34375 23.75 73.15625 23.75 C 72.894531 23.75 72.652344 23.710938 72.425781 23.632812 C 72.199219 23.5625 71.996094 23.472656 71.820312 23.382812 L 71.75 24.339844 "/>
<path style=" stroke:none;fill-rule:nonzero;fill:rgb(13.729858%,12.159729%,12.548828%);fill-opacity:1;" d="M 76.757812 23.601562 C 76.921875 23.921875 77.136719 24.167969 77.402344 24.347656 C 77.664062 24.527344 77.976562 24.617188 78.359375 24.617188 C 78.742188 24.617188 79.0625 24.527344 79.324219 24.339844 C 79.589844 24.15625 79.800781 23.910156 79.96875 23.59375 C 80.136719 23.273438 80.253906 22.894531 80.320312 22.46875 C 80.390625 22.042969 80.429688 21.574219 80.429688 21.066406 C 80.429688 20.558594 80.390625 20.089844 80.320312 19.652344 C 80.253906 19.226562 80.136719 18.847656 79.96875 18.527344 C 79.800781 18.210938 79.589844 17.960938 79.324219 17.773438 C 79.0625 17.59375 78.742188 17.5 78.359375 17.5 C 77.976562 17.5 77.65625 17.59375 77.390625 17.773438 C 77.128906 17.960938 76.921875 18.210938 76.757812 18.527344 C 76.59375 18.847656 76.472656 19.226562 76.40625 19.652344 C 76.335938 20.089844 76.296875 20.558594 76.296875 21.066406 C 76.296875 21.574219 76.335938 22.042969 76.40625 22.46875 C 76.472656 22.90625 76.59375 23.28125 76.757812 23.601562 "/>
<path style=" stroke:none;fill-rule:nonzero;fill:rgb(13.729858%,12.159729%,12.548828%);fill-opacity:1;" d="M 32.179688 48.304688 L 36.765625 48.304688 L 36.765625 47.039062 L 33.613281 47.039062 L 33.925781 46.644531 C 34.300781 46.15625 34.660156 45.660156 34.996094 45.148438 C 35.320312 44.652344 35.609375 44.140625 35.863281 43.640625 C 36.113281 43.144531 36.308594 42.660156 36.453125 42.179688 C 36.597656 41.707031 36.667969 41.253906 36.667969 40.832031 C 36.667969 40.472656 36.621094 40.144531 36.535156 39.832031 C 36.441406 39.519531 36.296875 39.25 36.113281 39.007812 C 35.921875 38.78125 35.679688 38.597656 35.40625 38.453125 C 35.117188 38.328125 34.777344 38.257812 34.394531 38.257812 C 33.996094 38.257812 33.625 38.3125 33.296875 38.410156 C 32.964844 38.527344 32.652344 38.667969 32.371094 38.839844 L 32.507812 40.289062 C 32.699219 40.101562 32.9375 39.917969 33.214844 39.765625 C 33.492188 39.605469 33.804688 39.519531 34.15625 39.519531 C 34.527344 39.519531 34.828125 39.664062 35.035156 39.960938 C 35.234375 40.261719 35.347656 40.628906 35.347656 41.097656 C 35.347656 41.425781 35.285156 41.78125 35.164062 42.164062 C 35.035156 42.546875 34.863281 42.960938 34.632812 43.371094 C 34.40625 43.800781 34.140625 44.238281 33.84375 44.710938 C 33.527344 45.179688 33.191406 45.660156 32.820312 46.15625 L 32.179688 47.027344 L 32.179688 48.304688 "/>
<path style=" stroke:none;fill-rule:nonzero;fill:rgb(13.729858%,12.159729%,12.548828%);fill-opacity:1;" d="M 38.082031 46.96875 C 38.289062 47.425781 38.550781 47.777344 38.875 48.03125 C 39.203125 48.292969 39.585938 48.417969 40.054688 48.417969 C 40.523438 48.417969 40.921875 48.292969 41.246094 48.023438 C 41.570312 47.765625 41.835938 47.410156 42.042969 46.953125 C 42.246094 46.5 42.386719 45.960938 42.472656 45.347656 C 42.558594 44.734375 42.609375 44.070312 42.609375 43.34375 C 42.609375 42.617188 42.558594 41.953125 42.472656 41.328125 C 42.386719 40.714844 42.246094 40.175781 42.042969 39.71875 C 41.835938 39.265625 41.570312 38.910156 41.246094 38.640625 C 40.921875 38.386719 40.523438 38.257812 40.054688 38.257812 C 39.585938 38.257812 39.1875 38.386719 38.863281 38.640625 C 38.539062 38.910156 38.289062 39.265625 38.082031 39.71875 C 37.878906 40.175781 37.734375 40.714844 37.652344 41.328125 C 37.566406 41.953125 37.519531 42.617188 37.519531 43.34375 C 37.519531 44.070312 37.566406 44.734375 37.652344 45.347656 C 37.734375 45.972656 37.878906 46.515625 38.082031 46.96875 "/>
<path style=" stroke:none;fill-rule:nonzero;fill:rgb(13.729858%,12.159729%,12.548828%);fill-opacity:1;" d="M 44.066406 44.398438 C 44.210938 44.714844 44.394531 44.964844 44.621094 45.144531 C 44.851562 45.324219 45.117188 45.410156 45.449219 45.410156 C 45.777344 45.410156 46.050781 45.324219 46.28125 45.132812 C 46.507812 44.953125 46.695312 44.703125 46.839844 44.386719 C 46.980469 44.066406 47.082031 43.6875 47.140625 43.265625 C 47.199219 42.835938 47.234375 42.367188 47.234375 41.859375 C 47.234375 41.351562 47.199219 40.882812 47.140625 40.445312 C 47.082031 40.019531 46.980469 39.640625 46.839844 39.320312 C 46.695312 39.003906 46.507812 38.757812 46.28125 38.566406 C 46.050781 38.386719 45.777344 38.292969 45.449219 38.292969 C 45.117188 38.292969 44.839844 38.386719 44.613281 38.566406 C 44.386719 38.757812 44.210938 39.003906 44.066406 39.320312 C 43.921875 39.640625 43.820312 40.019531 43.765625 40.445312 C 43.703125 40.882812 43.667969 41.351562 43.667969 41.859375 C 43.667969 42.367188 43.703125 42.835938 43.765625 43.265625 C 43.820312 43.699219 43.921875 44.078125 44.066406 44.398438 "/>
<path style=" stroke:none;fill-rule:nonzero;fill:rgb(13.729858%,12.159729%,12.548828%);fill-opacity:1;" d="M 48.199219 44.398438 C 48.34375 44.714844 48.527344 44.964844 48.753906 45.144531 C 48.984375 45.324219 49.25 45.410156 49.582031 45.410156 C 49.910156 45.410156 50.183594 45.324219 50.414062 45.132812 C 50.640625 44.953125 50.828125 44.703125 50.96875 44.386719 C 51.109375 44.066406 51.214844 43.6875 51.273438 43.265625 C 51.332031 42.835938 51.367188 42.367188 51.367188 41.859375 C 51.367188 41.351562 51.332031 40.882812 51.273438 40.445312 C 51.214844 40.019531 51.109375 39.640625 50.96875 39.320312 C 50.828125 39.003906 50.640625 38.757812 50.414062 38.566406 C 50.183594 38.386719 49.910156 38.292969 49.582031 38.292969 C 49.25 38.292969 48.972656 38.386719 48.746094 38.566406 C 48.519531 38.757812 48.34375 39.003906 48.199219 39.320312 C 48.054688 39.640625 47.953125 40.019531 47.898438 40.445312 C 47.835938 40.882812 47.800781 41.351562 47.800781 41.859375 C 47.800781 42.367188 47.835938 42.835938 47.898438 43.265625 C 47.953125 43.699219 48.054688 44.078125 48.199219 44.398438 "/>
<path style=" stroke:none;fill-rule:nonzero;fill:rgb(13.729858%,12.159729%,12.548828%);fill-opacity:1;" d="M 53.992188 44.90625 L 56.683594 44.90625 L 56.683594 43.667969 L 53.992188 43.667969 L 53.992188 44.90625 "/>
<path style=" stroke:none;fill-rule:nonzero;fill:rgb(13.729858%,12.159729%,12.548828%);fill-opacity:1;" d="M 59.847656 46.96875 C 60.054688 47.425781 60.316406 47.777344 60.644531 48.03125 C 60.96875 48.292969 61.351562 48.417969 61.820312 48.417969 C 62.289062 48.417969 62.6875 48.292969 63.011719 48.023438 C 63.335938 47.765625 63.601562 47.410156 63.808594 46.953125 C 64.011719 46.5 64.15625 45.960938 64.238281 45.347656 C 64.324219 44.734375 64.375 44.070312 64.375 43.34375 C 64.375 42.617188 64.324219 41.953125 64.238281 41.328125 C 64.15625 40.714844 64.011719 40.175781 63.808594 39.71875 C 63.601562 39.265625 63.335938 38.910156 63.011719 38.640625 C 62.6875 38.386719 62.289062 38.257812 61.820312 38.257812 C 61.351562 38.257812 60.953125 38.386719 60.628906 38.640625 C 60.304688 38.910156 60.054688 39.265625 59.847656 39.71875 C 59.644531 40.175781 59.5 40.714844 59.414062 41.328125 C 59.332031 41.953125 59.28125 42.617188 59.28125 43.34375 C 59.28125 44.070312 59.332031 44.734375 59.414062 45.347656 C 59.5 45.972656 59.644531 46.515625 59.847656 46.96875 "/>
<path style=" stroke:none;fill-rule:nonzero;fill:rgb(13.729858%,12.159729%,12.548828%);fill-opacity:1;" d="M 66.375 43.101562 L 66.347656 43.085938 C 66.359375 42.648438 66.398438 42.207031 66.46875 41.765625 C 66.539062 41.339844 66.664062 40.957031 66.832031 40.613281 C 66.988281 40.277344 67.203125 39.992188 67.457031 39.777344 C 67.710938 39.5625 68.035156 39.464844 68.40625 39.464844 C 68.683594 39.464844 68.9375 39.507812 69.164062 39.589844 C 69.394531 39.691406 69.585938 39.789062 69.742188 39.890625 L 69.800781 38.570312 C 69.632812 38.496094 69.429688 38.425781 69.191406 38.355469 C 68.9375 38.285156 68.660156 38.257812 68.335938 38.257812 C 67.746094 38.257812 67.253906 38.386719 66.851562 38.65625 C 66.449219 38.925781 66.117188 39.292969 65.867188 39.777344 C 65.613281 40.261719 65.421875 40.84375 65.3125 41.511719 C 65.207031 42.195312 65.148438 42.945312 65.148438 43.769531 C 65.148438 44.457031 65.195312 45.078125 65.277344 45.648438 C 65.363281 46.214844 65.507812 46.699219 65.714844 47.109375 C 65.917969 47.523438 66.179688 47.847656 66.519531 48.074219 C 66.84375 48.304688 67.253906 48.417969 67.746094 48.417969 C 68.492188 48.417969 69.082031 48.132812 69.527344 47.566406 C 69.972656 47.011719 70.1875 46.203125 70.1875 45.164062 C 70.1875 44.695312 70.140625 44.269531 70.03125 43.886719 C 69.925781 43.5 69.765625 43.160156 69.574219 42.875 C 69.371094 42.605469 69.140625 42.378906 68.863281 42.222656 C 68.589844 42.066406 68.296875 41.992188 67.972656 41.992188 C 67.578125 41.992188 67.238281 42.09375 66.988281 42.289062 C 66.71875 42.507812 66.519531 42.777344 66.375 43.101562 "/>
<path style=" stroke:none;fill-rule:nonzero;fill:rgb(13.729858%,12.159729%,12.548828%);fill-opacity:1;" d="M 71.644531 44.398438 C 71.789062 44.714844 71.976562 44.964844 72.203125 45.144531 C 72.429688 45.324219 72.699219 45.410156 73.027344 45.410156 C 73.355469 45.410156 73.632812 45.324219 73.863281 45.132812 C 74.089844 44.953125 74.273438 44.703125 74.417969 44.386719 C 74.5625 44.066406 74.660156 43.6875 74.71875 43.265625 C 74.78125 42.835938 74.8125 42.367188 74.8125 41.859375 C 74.8125 41.351562 74.78125 40.882812 74.71875 40.445312 C 74.660156 40.019531 74.5625 39.640625 74.417969 39.320312 C 74.273438 39.003906 74.089844 38.757812 73.863281 38.566406 C 73.632812 38.386719 73.355469 38.292969 73.027344 38.292969 C 72.699219 38.292969 72.421875 38.386719 72.191406 38.566406 C 71.964844 38.757812 71.789062 39.003906 71.644531 39.320312 C 71.503906 39.640625 71.402344 40.019531 71.34375 40.445312 C 71.285156 40.882812 71.25 41.351562 71.25 41.859375 C 71.25 42.367188 71.285156 42.835938 71.34375 43.265625 C 71.402344 43.699219 71.503906 44.078125 71.644531 44.398438 "/>
<path style=" stroke:none;fill-rule:nonzero;fill:rgb(13.729858%,12.159729%,12.548828%);fill-opacity:1;" d="M 75.777344 44.398438 C 75.921875 44.714844 76.105469 44.964844 76.335938 45.144531 C 76.5625 45.324219 76.832031 45.410156 77.160156 45.410156 C 77.488281 45.410156 77.765625 45.324219 77.996094 45.132812 C 78.222656 44.953125 78.40625 44.703125 78.550781 44.386719 C 78.695312 44.066406 78.792969 43.6875 78.851562 43.265625 C 78.914062 42.835938 78.945312 42.367188 78.945312 41.859375 C 78.945312 41.351562 78.914062 40.882812 78.851562 40.445312 C 78.792969 40.019531 78.695312 39.640625 78.550781 39.320312 C 78.40625 39.003906 78.222656 38.757812 77.996094 38.566406 C 77.765625 38.386719 77.488281 38.292969 77.160156 38.292969 C 76.832031 38.292969 76.550781 38.386719 76.324219 38.566406 C 76.097656 38.757812 75.921875 39.003906 75.777344 39.320312 C 75.636719 39.640625 75.53125 40.019531 75.476562 40.445312 C 75.417969 40.882812 75.382812 41.351562 75.382812 41.859375 C 75.382812 42.367188 75.417969 42.835938 75.476562 43.265625 C 75.53125 43.699219 75.636719 44.078125 75.777344 44.398438 "/>
<path style=" stroke:none;fill-rule:nonzero;fill:rgb(100%,100%,100%);fill-opacity:1;" d="M 35.375 10.472656 C 35.171875 9.808594 35.070312 8.839844 35.070312 7.605469 C 35.070312 6.367188 35.171875 5.402344 35.375 4.71875 C 35.574219 4.039062 35.945312 3.695312 36.464844 3.695312 C 36.996094 3.695312 37.367188 4.039062 37.566406 4.703125 C 37.765625 5.386719 37.871094 6.351562 37.871094 7.605469 C 37.871094 8.839844 37.765625 9.808594 37.566406 10.472656 C 37.355469 11.160156 36.980469 11.496094 36.464844 11.496094 C 35.945312 11.496094 35.574219 11.160156 35.375 10.472656 "/>
<path style=" stroke:none;fill-rule:nonzero;fill:rgb(100%,100%,100%);fill-opacity:1;" d="M 43.070312 6.878906 C 42.644531 6.652344 42.3125 6.394531 42.085938 6.097656 C 41.84375 5.8125 41.726562 5.484375 41.726562 5.117188 C 41.726562 4.691406 41.84375 4.347656 42.085938 4.078125 C 42.3125 3.820312 42.605469 3.695312 42.960938 3.695312 C 43.347656 3.695312 43.652344 3.820312 43.863281 4.0625 C 44.078125 4.320312 44.183594 4.644531 44.183594 5.03125 C 44.183594 5.230469 44.160156 5.417969 44.089844 5.585938 C 44.027344 5.769531 43.949219 5.925781 43.839844 6.082031 C 43.730469 6.242188 43.613281 6.382812 43.480469 6.511719 C 43.347656 6.636719 43.214844 6.765625 43.070312 6.878906 "/>
<path style=" stroke:none;fill-rule:nonzero;fill:rgb(100%,100%,100%);fill-opacity:1;" d="M 42.871094 7.929688 C 43.070312 8.042969 43.257812 8.160156 43.441406 8.273438 C 43.613281 8.402344 43.773438 8.527344 43.917969 8.683594 C 44.050781 8.839844 44.160156 9.007812 44.238281 9.195312 C 44.320312 9.394531 44.355469 9.621094 44.355469 9.878906 C 44.355469 10.363281 44.238281 10.757812 43.996094 11.058594 C 43.746094 11.371094 43.414062 11.527344 42.988281 11.527344 C 42.527344 11.527344 42.179688 11.371094 41.921875 11.042969 C 41.671875 10.714844 41.554688 10.335938 41.554688 9.863281 C 41.554688 9.621094 41.59375 9.410156 41.660156 9.226562 C 41.726562 9.039062 41.804688 8.867188 41.921875 8.714844 C 42.046875 8.554688 42.179688 8.429688 42.351562 8.300781 C 42.511719 8.171875 42.683594 8.058594 42.871094 7.929688 "/>
<path style=" stroke:none;fill-rule:nonzero;fill:rgb(100%,100%,100%);fill-opacity:1;" d="M 48.140625 8.128906 C 48 7.660156 47.925781 6.980469 47.925781 6.117188 C 47.925781 5.25 48 4.578125 48.140625 4.097656 C 48.277344 3.621094 48.539062 3.382812 48.90625 3.382812 C 49.277344 3.382812 49.535156 3.621094 49.675781 4.089844 C 49.816406 4.566406 49.886719 5.242188 49.886719 6.117188 C 49.886719 6.980469 49.816406 7.660156 49.675781 8.128906 C 49.527344 8.605469 49.265625 8.84375 48.90625 8.84375 C 48.539062 8.84375 48.277344 8.605469 48.140625 8.128906 "/>
<path style=" stroke:none;fill-rule:nonzero;fill:rgb(100%,100%,100%);fill-opacity:1;" d="M 52.703125 8.128906 C 52.566406 7.660156 52.488281 6.980469 52.488281 6.117188 C 52.488281 5.25 52.566406 4.578125 52.703125 4.097656 C 52.84375 3.621094 53.101562 3.382812 53.464844 3.382812 C 53.839844 3.382812 54.097656 3.621094 54.238281 4.089844 C 54.375 4.566406 54.453125 5.242188 54.453125 6.117188 C 54.453125 6.980469 54.375 7.660156 54.238281 8.128906 C 54.089844 8.605469 53.828125 8.84375 53.464844 8.84375 C 53.101562 8.84375 52.84375 8.605469 52.703125 8.128906 "/>
<path style=" stroke:none;fill-rule:nonzero;fill:rgb(100%,100%,100%);fill-opacity:1;" d="M 77.695312 8.128906 C 77.554688 7.660156 77.480469 6.980469 77.480469 6.117188 C 77.480469 5.25 77.554688 4.578125 77.695312 4.097656 C 77.835938 3.621094 78.09375 3.382812 78.457031 3.382812 C 78.832031 3.382812 79.089844 3.621094 79.230469 4.089844 C 79.367188 4.566406 79.445312 5.242188 79.445312 6.117188 C 79.445312 6.980469 79.367188 7.660156 79.230469 8.128906 C 79.078125 8.605469 78.820312 8.84375 78.457031 8.84375 C 78.09375 8.84375 77.835938 8.605469 77.695312 8.128906 "/>
<path style=" stroke:none;fill-rule:nonzero;fill:rgb(100%,100%,100%);fill-opacity:1;" d="M 38.988281 24.171875 L 41.570312 19.125 L 41.601562 19.125 L 41.601562 24.171875 L 38.988281 24.171875 "/>
<path style=" stroke:none;fill-rule:nonzero;fill:rgb(100%,100%,100%);fill-opacity:1;" d="M 77.554688 23.074219 C 77.410156 22.605469 77.335938 21.929688 77.335938 21.066406 C 77.335938 20.199219 77.410156 19.523438 77.554688 19.046875 C 77.703125 18.566406 77.976562 18.328125 78.359375 18.328125 C 78.746094 18.328125 79.023438 18.566406 79.167969 19.035156 C 79.316406 19.515625 79.394531 20.191406 79.394531 21.066406 C 79.394531 21.929688 79.316406 22.605469 79.167969 23.074219 C 79.015625 23.554688 78.742188 23.789062 78.359375 23.789062 C 77.976562 23.789062 77.703125 23.554688 77.554688 23.074219 "/>
<path style=" stroke:none;fill-rule:nonzero;fill:rgb(100%,100%,100%);fill-opacity:1;" d="M 39.070312 46.214844 C 38.890625 45.546875 38.792969 44.582031 38.792969 43.34375 C 38.792969 42.105469 38.890625 41.144531 39.070312 40.460938 C 39.25 39.777344 39.585938 39.4375 40.054688 39.4375 C 40.539062 39.4375 40.871094 39.777344 41.050781 40.445312 C 41.234375 41.128906 41.332031 42.09375 41.332031 43.34375 C 41.332031 44.582031 41.234375 45.546875 41.050781 46.214844 C 40.863281 46.898438 40.523438 47.238281 40.054688 47.238281 C 39.585938 47.238281 39.25 46.898438 39.070312 46.214844 "/>
<path style=" stroke:none;fill-rule:nonzero;fill:rgb(100%,100%,100%);fill-opacity:1;" d="M 44.757812 43.867188 C 44.632812 43.402344 44.5625 42.722656 44.5625 41.859375 C 44.5625 40.992188 44.632812 40.320312 44.757812 39.839844 C 44.882812 39.359375 45.117188 39.121094 45.449219 39.121094 C 45.78125 39.121094 46.019531 39.359375 46.148438 39.828125 C 46.273438 40.308594 46.339844 40.984375 46.339844 41.859375 C 46.339844 42.722656 46.273438 43.402344 46.148438 43.867188 C 46.011719 44.347656 45.777344 44.585938 45.449219 44.585938 C 45.117188 44.585938 44.882812 44.347656 44.757812 43.867188 "/>
<path style=" stroke:none;fill-rule:nonzero;fill:rgb(100%,100%,100%);fill-opacity:1;" d="M 48.890625 43.867188 C 48.765625 43.402344 48.695312 42.722656 48.695312 41.859375 C 48.695312 40.992188 48.765625 40.320312 48.890625 39.839844 C 49.015625 39.359375 49.25 39.121094 49.582031 39.121094 C 49.914062 39.121094 50.152344 39.359375 50.28125 39.828125 C 50.40625 40.308594 50.472656 40.984375 50.472656 41.859375 C 50.472656 42.722656 50.40625 43.402344 50.28125 43.867188 C 50.144531 44.347656 49.910156 44.585938 49.582031 44.585938 C 49.25 44.585938 49.015625 44.347656 48.890625 43.867188 "/>
<path style=" stroke:none;fill-rule:nonzero;fill:rgb(100%,100%,100%);fill-opacity:1;" d="M 60.835938 46.214844 C 60.65625 45.546875 60.558594 44.582031 60.558594 43.34375 C 60.558594 42.105469 60.65625 41.144531 60.835938 40.460938 C 61.015625 39.777344 61.351562 39.4375 61.820312 39.4375 C 62.304688 39.4375 62.640625 39.777344 62.824219 40.445312 C 63.003906 41.128906 63.09375 42.09375 63.09375 43.34375 C 63.09375 44.582031 63.003906 45.546875 62.824219 46.214844 C 62.628906 46.898438 62.289062 47.238281 61.820312 47.238281 C 61.351562 47.238281 61.015625 46.898438 60.835938 46.214844 "/>
<path style=" stroke:none;fill-rule:nonzero;fill:rgb(100%,100%,100%);fill-opacity:1;" d="M 66.796875 46.644531 C 66.683594 46.457031 66.613281 46.242188 66.566406 46.003906 C 66.519531 45.761719 66.492188 45.507812 66.492188 45.222656 C 66.492188 44.953125 66.519531 44.679688 66.578125 44.441406 C 66.628906 44.195312 66.699219 43.984375 66.808594 43.800781 C 66.90625 43.617188 67.023438 43.472656 67.179688 43.355469 C 67.335938 43.261719 67.507812 43.203125 67.710938 43.203125 C 67.910156 43.203125 68.09375 43.261719 68.25 43.355469 C 68.40625 43.472656 68.527344 43.617188 68.625 43.800781 C 68.71875 43.984375 68.789062 44.210938 68.839844 44.457031 C 68.886719 44.695312 68.914062 44.953125 68.914062 45.222656 C 68.914062 45.507812 68.886719 45.761719 68.839844 46.003906 C 68.789062 46.242188 68.71875 46.457031 68.625 46.644531 C 68.519531 46.828125 68.394531 46.980469 68.238281 47.082031 C 68.082031 47.183594 67.910156 47.238281 67.710938 47.238281 C 67.507812 47.238281 67.324219 47.183594 67.167969 47.082031 C 67.011719 46.980469 66.890625 46.828125 66.796875 46.644531 "/>
<path style=" stroke:none;fill-rule:nonzero;fill:rgb(100%,100%,100%);fill-opacity:1;" d="M 72.335938 43.867188 C 72.210938 43.402344 72.144531 42.722656 72.144531 41.859375 C 72.144531 40.992188 72.210938 40.320312 72.335938 39.839844 C 72.464844 39.359375 72.699219 39.121094 73.027344 39.121094 C 73.367188 39.121094 73.601562 39.359375 73.726562 39.828125 C 73.851562 40.308594 73.921875 40.984375 73.921875 41.859375 C 73.921875 42.722656 73.851562 43.402344 73.726562 43.867188 C 73.59375 44.347656 73.355469 44.585938 73.027344 44.585938 C 72.699219 44.585938 72.464844 44.347656 72.335938 43.867188 "/>
<path style=" stroke:none;fill-rule:nonzero;fill:rgb(100%,100%,100%);fill-opacity:1;" d="M 76.46875 43.867188 C 76.34375 43.402344 76.277344 42.722656 76.277344 41.859375 C 76.277344 40.992188 76.34375 40.320312 76.46875 39.839844 C 76.59375 39.359375 76.832031 39.121094 77.160156 39.121094 C 77.5 39.121094 77.734375 39.359375 77.859375 39.828125 C 77.984375 40.308594 78.054688 40.984375 78.054688 41.859375 C 78.054688 42.722656 77.984375 43.402344 77.859375 43.867188 C 77.726562 44.347656 77.488281 44.585938 77.160156 44.585938 C 76.832031 44.585938 76.59375 44.347656 76.46875 43.867188 "/>
<path style=" stroke:none;fill-rule:nonzero;fill:rgb(93.527222%,17.272949%,18.882751%);fill-opacity:1;" d="M 17.273438 4.367188 C 23.140625 4.367188 27.878906 9.117188 27.929688 15 C 27.929688 20.828125 23.195312 25.628906 17.328125 25.628906 C 11.460938 25.628906 6.667969 20.9375 6.667969 15 C 6.667969 9.171875 11.40625 4.367188 17.273438 4.367188 "/>
<path style=" stroke:none;fill-rule:nonzero;fill:rgb(100%,100%,100%);fill-opacity:1;" d="M 21.53125 20.734375 C 20.339844 21.601562 18.898438 22.109375 17.347656 22.109375 C 13.414062 22.109375 10.207031 18.964844 10.207031 14.984375 C 10.207031 13.429688 10.710938 11.984375 11.578125 10.828125 L 21.53125 20.734375 "/>
<path style=" stroke:none;fill-rule:nonzero;fill:rgb(100%,100%,100%);fill-opacity:1;" d="M 13.066406 9.308594 C 14.222656 8.476562 15.660156 7.933594 17.214844 7.898438 C 21.144531 7.898438 24.386719 11.007812 24.386719 14.984375 C 24.425781 16.539062 23.957031 17.984375 23.050781 19.179688 L 13.066406 9.308594 "/>
<path style=" stroke:none;fill-rule:nonzero;fill:rgb(10.112%,40.585327%,73.280334%);fill-opacity:1;" d="M 21.054688 20.660156 C 19.984375 21.386719 18.710938 21.800781 17.332031 21.800781 C 13.578125 21.800781 10.511719 18.792969 10.511719 14.996094 C 10.511719 13.648438 10.925781 12.371094 11.613281 11.265625 L 21.054688 20.660156 "/>
<path style=" stroke:none;fill-rule:nonzero;fill:rgb(10.112%,40.585327%,73.280334%);fill-opacity:1;" d="M 13.546875 9.378906 C 14.578125 8.6875 15.851562 8.238281 17.230469 8.207031 C 20.984375 8.207031 24.089844 11.175781 24.089844 14.972656 C 24.121094 16.320312 23.742188 17.597656 23.019531 18.734375 L 13.546875 9.378906 "/>
<path style=" stroke:none;fill-rule:nonzero;fill:rgb(10.112%,40.585327%,73.280334%);fill-opacity:1;" d="M 8.085938 34.84375 L 26.511719 34.84375 L 26.511719 53.269531 L 8.085938 53.269531 L 8.085938 34.84375 "/>
<path style=" stroke:none;fill-rule:nonzero;fill:rgb(100%,100%,100%);fill-opacity:1;" d="M 15.753906 50.945312 L 13.433594 50.945312 L 13.433594 37.882812 L 19.96875 37.882812 C 20.503906 37.882812 21.089844 38.089844 21.441406 38.558594 C 21.90625 39.167969 21.886719 39.753906 21.886719 39.753906 L 21.886719 44.132812 C 21.886719 44.4375 21.792969 45.09375 21.324219 45.558594 C 20.902344 45.980469 20.457031 46.148438 19.96875 46.148438 L 15.753906 46.148438 L 15.753906 50.945312 "/>
<path style=" stroke:none;fill-rule:nonzero;fill:rgb(10.112%,40.585327%,73.280334%);fill-opacity:1;" d="M 15.753906 44.136719 L 15.753906 39.949219 L 19.078125 39.949219 C 19.21875 39.949219 19.382812 39.949219 19.472656 40.039062 C 19.566406 40.136719 19.59375 40.226562 19.59375 40.4375 L 19.59375 43.644531 C 19.59375 43.808594 19.546875 43.953125 19.453125 44.019531 C 19.359375 44.113281 19.265625 44.136719 19.101562 44.136719 L 15.753906 44.136719 "/>
</g>
</svg>
