<?xml version="1.0" encoding="UTF-8"?>
<svg xmlns="http://www.w3.org/2000/svg" xmlns:xlink="http://www.w3.org/1999/xlink" width="129pt" height="44pt" viewBox="0 0 129 44" version="1.1">
<g id="surface1">
<path style=" stroke:none;fill-rule:nonzero;fill:rgb(100%,100%,100%);fill-opacity:1;" d="M 0.738281 43.433594 L 128.300781 43.433594 L 128.300781 0.914062 L 0.738281 0.914062 Z M 0.738281 43.433594 "/>
<path style="fill:none;stroke-width:2.835;stroke-linecap:butt;stroke-linejoin:miter;stroke:rgb(13.729858%,12.159729%,12.548828%);stroke-opacity:1;stroke-miterlimit:4;" d="M 7.382812 5.664062 L 1283.007812 5.664062 L 1283.007812 430.859375 L 7.382812 430.859375 L 7.382812 5.664062 " transform="matrix(0.1,0,0,-0.1,0,44)"/>
<path style=" stroke:none;fill-rule:nonzero;fill:rgb(13.729858%,12.159729%,12.548828%);fill-opacity:1;" d="M 33.328125 9.21875 C 40.367188 9.21875 46.082031 14.929688 46.082031 21.972656 C 46.082031 29.015625 40.367188 34.726562 33.328125 34.726562 C 26.285156 34.726562 20.574219 29.015625 20.574219 21.972656 C 20.574219 14.929688 26.285156 9.21875 33.328125 9.21875 "/>
<path style=" stroke:none;fill-rule:nonzero;fill:rgb(13.729858%,12.159729%,12.548828%);fill-opacity:1;" d="M 96.410156 10.125 C 103.058594 10.125 108.453125 15.523438 108.453125 22.171875 C 108.453125 28.820312 103.058594 34.21875 96.410156 34.21875 C 89.761719 34.21875 84.363281 28.820312 84.363281 22.171875 C 84.363281 15.523438 89.761719 10.125 96.410156 10.125 "/>
<path style=" stroke:none;fill-rule:nonzero;fill:rgb(93.527222%,17.272949%,18.882751%);fill-opacity:1;" d="M 33.328125 10.632812 C 39.589844 10.632812 44.664062 15.710938 44.664062 21.972656 C 44.664062 28.234375 39.589844 33.3125 33.328125 33.3125 C 27.066406 33.3125 21.988281 28.234375 21.988281 21.972656 C 21.988281 15.710938 27.066406 10.632812 33.328125 10.632812 "/>
</g>
</svg>
