<?xml version="1.0" encoding="UTF-8"?>
<svg xmlns="http://www.w3.org/2000/svg" xmlns:xlink="http://www.w3.org/1999/xlink" width="87pt" height="86pt" viewBox="0 0 87 86" version="1.1">
<g id="surface1">
<path style=" stroke:none;fill-rule:nonzero;fill:rgb(13.729858%,12.159729%,12.548828%);fill-opacity:1;" d="M 1 85.691406 L 86.039062 85.691406 L 86.039062 0.652344 L 1 0.652344 Z M 1 85.691406 "/>
<path style=" stroke:none;fill-rule:nonzero;fill:rgb(100%,100%,100%);fill-opacity:1;" d="M 1.851562 84.84375 L 85.1875 84.84375 L 85.1875 1.503906 L 1.851562 1.503906 Z M 1.851562 84.84375 "/>
<path style=" stroke:none;fill-rule:nonzero;fill:rgb(13.729858%,12.159729%,12.548828%);fill-opacity:1;" d="M 47.78125 35.796875 L 47.78125 22.941406 L 56.277344 18.058594 L 56.265625 13.121094 L 51.917969 10.609375 L 47.785156 13.042969 L 47.785156 8.210938 L 43.53125 5.753906 L 39.277344 8.214844 L 39.277344 13.066406 L 35.109375 10.609375 L 30.765625 13.121094 L 30.75 18.058594 L 39.277344 22.957031 L 39.277344 35.808594 L 28.125 29.367188 L 28.148438 19.566406 L 23.859375 17.109375 L 19.515625 19.617188 L 19.554688 24.414062 L 15.367188 22 L 11.117188 24.457031 L 11.121094 29.363281 L 15.320312 31.792969 L 11.113281 34.175781 L 11.113281 39.191406 L 15.382812 41.675781 L 23.886719 36.738281 L 35.019531 43.167969 L 23.875 49.597656 L 15.386719 44.671875 L 11.117188 47.15625 L 11.117188 52.171875 L 15.300781 54.550781 L 11.113281 56.96875 L 11.117188 61.875 L 15.367188 64.324219 L 19.5625 61.902344 L 19.519531 66.730469 L 23.863281 69.242188 L 28.152344 66.785156 L 28.128906 56.957031 L 39.277344 50.519531 L 39.277344 63.398438 L 30.761719 68.289062 L 30.773438 73.230469 L 35.117188 75.738281 L 39.277344 73.289062 L 39.277344 78.132812 L 43.527344 80.589844 L 47.777344 78.136719 L 47.777344 73.296875 L 51.925781 75.738281 L 56.273438 73.230469 L 56.285156 68.289062 L 47.777344 63.402344 L 47.777344 50.53125 L 58.910156 56.957031 L 58.886719 66.785156 L 63.171875 69.242188 L 67.519531 66.730469 L 67.476562 61.902344 L 71.667969 64.324219 L 75.921875 61.875 L 75.925781 56.96875 L 71.734375 54.550781 L 75.921875 52.171875 L 75.921875 47.15625 L 71.652344 44.671875 L 63.164062 49.597656 L 52.019531 43.167969 L 63.152344 36.738281 L 71.65625 41.675781 L 75.925781 39.191406 L 75.925781 34.175781 L 71.71875 31.792969 L 75.917969 29.363281 L 75.921875 24.457031 L 71.667969 22 L 67.484375 24.414062 L 67.523438 19.617188 L 63.175781 17.109375 L 58.890625 19.566406 L 58.914062 29.367188 L 47.78125 35.796875 "/>
</g>
</svg>
