<?xml version="1.0" encoding="UTF-8"?>
<svg xmlns="http://www.w3.org/2000/svg" xmlns:xlink="http://www.w3.org/1999/xlink" width="45pt" height="30pt" viewBox="0 0 45 30" version="1.1">
<g id="surface1">
<path style=" stroke:none;fill-rule:nonzero;fill:rgb(13.729858%,12.159729%,12.548828%);fill-opacity:1;" d="M 33.613281 12.800781 C 34.328125 12.613281 35.078125 12.46875 35.839844 12.46875 C 40.496094 12.46875 44.277344 16.25 44.277344 20.90625 C 44.277344 25.566406 40.496094 29.34375 35.839844 29.34375 C 31.71875 29.34375 28.28125 26.386719 27.542969 22.476562 L 25.710938 22.46875 C 25.261719 22.46875 24.707031 22.46875 24.269531 22.289062 C 23.800781 22.136719 23.40625 21.800781 23.058594 21.460938 L 12.683594 11.078125 L 12.101562 12.929688 C 15.304688 14.140625 17.660156 17.179688 17.660156 20.804688 C 17.660156 25.464844 13.871094 29.261719 9.214844 29.261719 C 4.546875 29.261719 0.761719 25.464844 0.761719 20.804688 C 0.761719 16.148438 4.546875 12.359375 9.214844 12.359375 C 9.675781 12.359375 10.09375 12.417969 10.539062 12.492188 L 13.082031 3.570312 C 13.253906 2.972656 13.492188 2.246094 13.914062 1.820312 C 14.40625 1.316406 15.21875 1 16.167969 1 L 19.28125 1 L 19.28125 2.648438 L 16.789062 2.648438 C 16.296875 2.648438 15.679688 2.648438 15.347656 2.921875 C 15.015625 3.21875 14.910156 3.59375 14.78125 4.039062 L 14.226562 5.84375 L 29.136719 5.84375 L 29.660156 4.3125 L 27.300781 3.742188 L 27.300781 2.648438 L 32.597656 2.648438 L 32.597656 4.3125 L 31.324219 4.3125 L 30.769531 5.84375 L 33.613281 12.800781 "/>
<path style=" stroke:none;fill-rule:nonzero;fill:rgb(100%,100%,100%);fill-opacity:1;" d="M 34.242188 14.46875 C 34.738281 14.347656 35.265625 14.285156 35.804688 14.285156 C 39.453125 14.285156 42.417969 17.25 42.417969 20.898438 C 42.417969 24.550781 39.453125 27.519531 35.804688 27.519531 C 32.699219 27.519531 30.085938 25.371094 29.375 22.484375 L 34.703125 22.476562 C 35.347656 22.476562 36.335938 22.519531 36.738281 21.886719 C 37.070312 21.347656 36.652344 20.511719 36.515625 20.128906 L 34.242188 14.46875 "/>
<path style=" stroke:none;fill-rule:nonzero;fill:rgb(100%,100%,100%);fill-opacity:1;" d="M 28.601562 7.429688 L 24.363281 20.410156 L 13.273438 9.214844 L 13.785156 7.429688 L 28.601562 7.429688 "/>
<path style=" stroke:none;fill-rule:nonzero;fill:rgb(100%,100%,100%);fill-opacity:1;" d="M 32.050781 13.339844 C 29.332031 14.714844 27.453125 17.53125 27.402344 20.777344 L 25.960938 20.777344 L 30.007812 8.503906 L 32.050781 13.339844 "/>
<path style=" stroke:none;fill-rule:nonzero;fill:rgb(100%,100%,100%);fill-opacity:1;" d="M 11.632812 14.664062 C 14.074219 15.636719 15.800781 18.019531 15.800781 20.804688 C 15.800781 24.457031 12.835938 27.417969 9.183594 27.417969 C 5.535156 27.417969 2.570312 24.457031 2.570312 20.804688 C 2.570312 17.15625 5.535156 14.199219 9.183594 14.199219 C 9.457031 14.199219 9.738281 14.210938 10.007812 14.246094 L 8.21875 20.582031 C 8.125 20.894531 8.0625 21.492188 8.746094 21.6875 C 9.421875 21.878906 9.761719 21.40625 9.863281 21.058594 L 11.632812 14.664062 "/>
<path style=" stroke:none;fill-rule:nonzero;fill:rgb(100%,100%,100%);fill-opacity:1;" d="M 32.683594 15.0625 L 34.933594 20.777344 L 29.214844 20.777344 C 29.214844 18.257812 30.605469 16.183594 32.683594 15.0625 "/>
</g>
</svg>
