<?xml version="1.0" encoding="UTF-8"?>
<svg xmlns="http://www.w3.org/2000/svg" xmlns:xlink="http://www.w3.org/1999/xlink" width="29pt" height="29pt" viewBox="0 0 29 29" version="1.1">
<g id="surface1">
<path style=" stroke:none;fill-rule:nonzero;fill:rgb(13.729858%,12.159729%,12.548828%);fill-opacity:1;" d="M 18.34375 20.5 C 17.832031 21.3125 17.464844 22.269531 17.464844 23.300781 C 17.464844 26.242188 19.863281 28.632812 22.820312 28.632812 C 25.78125 28.632812 28.175781 26.242188 28.175781 23.300781 C 28.175781 20.355469 25.78125 17.964844 22.820312 17.964844 C 21.886719 17.964844 21.015625 18.203125 20.25 18.617188 L 19.335938 17.152344 L 20.738281 14.285156 L 21.660156 14.285156 L 21.660156 13.40625 L 18.808594 13.40625 L 18.796875 14.285156 L 19.839844 14.285156 L 19.003906 16.019531 L 18.644531 16.019531 C 18.4375 16.042969 18.019531 14.796875 17.363281 12.261719 C 16.816406 10.144531 16.851562 6.105469 15.425781 5.15625 C 14.792969 4.738281 14.347656 4.484375 14.023438 4.289062 C 13.339844 3.902344 13.539062 3.511719 13.589844 3.328125 C 14.425781 1.398438 13.160156 0.230469 12.28125 0.289062 C 11.273438 0.367188 10.523438 1.136719 10.574219 1.914062 C 10.632812 2.800781 9.96875 3.730469 10.0625 3.78125 C 10.25 3.886719 10.683594 4.011719 10.730469 4.160156 C 10.949219 4.78125 11.113281 5.03125 11.460938 5.03125 C 11.785156 5.03125 11.839844 4.910156 12.136719 4.96875 C 12.1875 4.976562 12.28125 5.355469 12.257812 5.386719 C 12.195312 5.457031 11.734375 5.984375 11.007812 7.796875 C 10.925781 8 10.59375 9.136719 10.550781 9.214844 C 10.53125 9.257812 10.292969 10.015625 9.773438 11.058594 C 9.738281 11.160156 9.039062 12.191406 8.976562 12.355469 C 8.917969 12.5 8.039062 13.765625 7.84375 13.773438 C 7.558594 13.789062 7.507812 14.089844 7.492188 14.21875 C 7.484375 14.449219 7.519531 14.636719 7.519531 14.6875 C 7.519531 14.71875 7.765625 15.027344 7.78125 15.070312 C 7.800781 15.132812 8.039062 14.847656 8.097656 14.867188 C 8.269531 14.953125 9.71875 15.53125 9.710938 15.550781 C 9.675781 15.71875 8.5 18.417969 8.429688 18.390625 C 7.988281 18.246094 7.5625 17.964844 6.226562 17.921875 C 3.273438 17.921875 0.859375 20.324219 0.859375 23.277344 C 0.859375 26.214844 3.273438 28.621094 6.226562 28.621094 C 9.175781 28.621094 11.589844 26.214844 11.589844 23.277344 C 11.589844 21.382812 10.601562 19.726562 9.121094 18.761719 L 9.695312 18.042969 L 13.332031 21.476562 L 13.351562 21.492188 C 13.503906 27.640625 10.957031 26.761719 10.804688 27.503906 C 10.753906 27.785156 10.652344 27.777344 14.167969 27.574219 C 14.332031 27.570312 14.84375 25.285156 15.347656 23.363281 L 16.101562 23.984375 L 17.933594 20.167969 L 18.34375 20.5 "/>
<path style=" stroke:none;fill-rule:nonzero;fill:rgb(100%,100%,100%);fill-opacity:1;" d="M 16.632812 18.851562 L 17.304688 19.601562 L 15.824219 22.644531 L 15.628906 22.453125 L 16.632812 18.851562 "/>
<path style=" stroke:none;fill-rule:nonzero;fill:rgb(100%,100%,100%);fill-opacity:1;" d="M 8.125 19.117188 L 5.835938 23.097656 L 6.425781 23.472656 L 8.773438 19.484375 C 10.003906 20.296875 10.804688 21.671875 10.804688 23.257812 C 10.804688 25.753906 8.765625 27.792969 6.269531 27.792969 C 3.769531 27.792969 1.730469 25.753906 1.730469 23.257812 C 1.730469 20.757812 3.769531 18.722656 6.269531 18.722656 C 6.929688 18.722656 7.554688 18.867188 8.125 19.117188 "/>
<path style=" stroke:none;fill-rule:nonzero;fill:rgb(100%,100%,100%);fill-opacity:1;" d="M 10.039062 17.179688 L 10.175781 16.84375 L 13.4375 16.867188 L 13.4375 20.382812 L 10.039062 17.179688 "/>
<path style=" stroke:none;fill-rule:nonzero;fill:rgb(100%,100%,100%);fill-opacity:1;" d="M 13.367188 15.976562 L 10.515625 15.976562 L 10.863281 15.082031 L 8.59375 14.152344 L 9.097656 13.949219 L 9.136719 13.925781 C 9.675781 13.59375 10.136719 13.160156 10.554688 12.691406 L 10.609375 12.628906 C 11.128906 12.042969 11.582031 11.40625 12.015625 10.753906 L 12.09375 10.636719 L 12.164062 10.519531 L 13.367188 15.976562 "/>
<path style=" stroke:none;fill-rule:nonzero;fill:rgb(100%,100%,100%);fill-opacity:1;" d="M 22.410156 26.574219 L 23.816406 23.378906 C 23.707031 23.363281 23.539062 23.113281 23.503906 23.0625 L 20.648438 19.304688 C 21.308594 18.945312 22.042969 18.734375 22.847656 18.734375 C 25.378906 18.734375 27.429688 20.78125 27.429688 23.300781 C 27.429688 25.820312 25.378906 27.863281 22.847656 27.863281 C 20.324219 27.863281 18.273438 25.820312 18.273438 23.300781 C 18.273438 22.464844 18.492188 21.6875 18.882812 21.015625 C 18.882812 21.015625 18.890625 21.015625 18.898438 21.015625 L 21.15625 23.199219 C 21.496094 23.472656 21.742188 24.054688 21.796875 24.300781 C 21.992188 25.125 21.554688 26.824219 22 26.855469 C 22.367188 26.882812 22.332031 26.753906 22.410156 26.574219 "/>
</g>
</svg>
