<?xml version="1.0" encoding="UTF-8"?>
<svg xmlns="http://www.w3.org/2000/svg" xmlns:xlink="http://www.w3.org/1999/xlink" width="121pt" height="106pt" viewBox="0 0 121 106" version="1.1">
<g id="surface1">
<path style=" stroke:none;fill-rule:nonzero;fill:rgb(93.527222%,17.272949%,18.882751%);fill-opacity:1;" d="M 5.210938 105.527344 L 115.585938 105.527344 C 119.40625 105.527344 121.792969 101.394531 119.886719 98.085938 L 64.695312 2.496094 C 62.785156 -0.8125 58.011719 -0.8125 56.101562 2.496094 L 0.910156 98.085938 C -0.996094 101.394531 1.390625 105.527344 5.210938 105.527344 "/>
<path style=" stroke:none;fill-rule:nonzero;fill:rgb(100%,100%,100%);fill-opacity:1;" d="M 106.996094 95.605469 L 13.800781 95.605469 L 60.398438 14.902344 L 106.996094 95.605469 "/>
<path style=" stroke:none;fill-rule:nonzero;fill:rgb(13.729858%,12.159729%,12.548828%);fill-opacity:1;" d="M 64.652344 87.808594 L 71.734375 87.808594 L 71.734375 41.75 L 64.652344 41.75 Z M 64.652344 87.808594 "/>
<path style=" stroke:none;fill-rule:nonzero;fill:rgb(13.729858%,12.159729%,12.548828%);fill-opacity:1;" d="M 52.742188 87.808594 L 52.742188 67.820312 L 58.238281 58.035156 L 58.238281 41.75 L 51.25 41.75 L 51.25 55.652344 L 45.515625 65.910156 L 45.515625 87.808594 L 52.742188 87.808594 "/>
</g>
</svg>
