<?xml version="1.0" encoding="UTF-8"?>
<svg xmlns="http://www.w3.org/2000/svg" xmlns:xlink="http://www.w3.org/1999/xlink" width="121pt" height="106pt" viewBox="0 0 121 106" version="1.1">
<g id="surface1">
<path style=" stroke:none;fill-rule:nonzero;fill:rgb(93.527222%,17.272949%,18.882751%);fill-opacity:1;" d="M 5.210938 105.527344 L 115.589844 105.527344 C 119.40625 105.527344 121.792969 101.394531 119.886719 98.085938 L 64.695312 2.496094 C 62.785156 -0.808594 58.011719 -0.808594 56.105469 2.496094 L 0.914062 98.085938 C -0.996094 101.394531 1.390625 105.527344 5.210938 105.527344 "/>
<path style=" stroke:none;fill-rule:nonzero;fill:rgb(100%,100%,100%);fill-opacity:1;" d="M 106.996094 95.605469 L 13.800781 95.605469 L 60.398438 14.902344 L 106.996094 95.605469 "/>
<path style=" stroke:none;fill-rule:nonzero;fill:rgb(13.729858%,12.159729%,12.548828%);fill-opacity:1;" d="M 40.453125 52.390625 C 41.1875 52.371094 42.046875 52.390625 42.765625 52.570312 C 43.222656 52.679688 43.644531 52.933594 43.941406 53.3125 L 52.144531 64.050781 C 52.675781 64.050781 53.410156 64.066406 53.921875 64.210938 C 54.730469 64.429688 55.464844 65.0625 55.996094 65.714844 C 56.804688 66.6875 57.394531 67.917969 57.429688 69.183594 C 57.449219 69.726562 57.339844 70.269531 57.136719 70.773438 C 57.097656 70.917969 57.007812 71.117188 56.953125 71.261719 C 56.914062 71.335938 56.785156 71.640625 56.75 71.730469 C 56.457031 72.601562 56.199219 74.082031 56.054688 75.003906 C 56.015625 75.292969 55.757812 76.867188 55.757812 77.171875 C 55.757812 77.535156 55.777344 79.867188 55.519531 80.121094 C 55.226562 80.425781 53.960938 80.335938 53.539062 80.28125 L 53.519531 89.121094 C 53.519531 89.574219 53.410156 90.261719 52.988281 90.460938 C 52.96875 90.460938 52.53125 90.644531 52.980469 90.644531 L 102.308594 90.644531 L 104.488281 94.1875 L 16.390625 94.183594 L 18.453125 90.664062 L 49.980469 90.664062 C 49.644531 90.660156 49.355469 90.351562 49.261719 90.1875 C 49.132812 89.972656 49.132812 89.265625 49.132812 89.015625 L 49.113281 83.191406 C 48.125 83.355469 46.671875 83.589844 45.683594 83.734375 C 43.371094 84.058594 40.5625 84.332031 38.214844 84.511719 C 36.066406 84.695312 33.699219 84.839844 31.53125 84.890625 C 29.988281 84.910156 27.96875 84.839844 26.429688 84.785156 C 25.640625 84.746094 24.484375 84.675781 23.695312 84.546875 C 23.21875 84.476562 22.519531 84.3125 22.042969 84.1875 L 25.457031 78.238281 L 33.183594 78.203125 L 33.21875 70.683594 L 30.15625 70.664062 L 33.84375 64.015625 L 49.023438 63.960938 L 44.289062 56.636719 C 44.03125 56.386719 43.425781 55.804688 43.113281 55.660156 C 41.992188 55.121094 40.195312 55.210938 38.964844 55.371094 L 40.453125 52.390625 "/>
<path style=" stroke:none;fill-rule:nonzero;fill:rgb(13.729858%,12.159729%,12.548828%);fill-opacity:1;" d="M 68.910156 62.367188 L 71.441406 63.847656 L 55.566406 87.222656 L 55.28125 86.625 L 68.910156 62.367188 "/>
<path style=" stroke:none;fill-rule:nonzero;fill:rgb(13.729858%,12.159729%,12.548828%);fill-opacity:1;" d="M 78.574219 71.785156 L 79.988281 74.023438 L 57.242188 88.125 L 56.710938 87.582031 L 78.574219 71.785156 "/>
<path style=" stroke:none;fill-rule:nonzero;fill:rgb(13.729858%,12.159729%,12.548828%);fill-opacity:1;" d="M 84.378906 83.96875 L 84.769531 86.679688 L 57.546875 88.933594 L 57.367188 88.714844 L 84.378906 83.96875 "/>
<path style=" stroke:none;fill-rule:nonzero;fill:rgb(13.729858%,12.159729%,12.548828%);fill-opacity:1;" d="M 74.496094 53.003906 C 74.816406 52.96875 75.167969 53.074219 75.347656 53.367188 C 75.453125 53.527344 75.382812 53.835938 75.347656 54.015625 C 75.292969 54.179688 75.242188 54.433594 75.222656 54.578125 C 75.207031 54.847656 75.308594 55.335938 75.363281 55.605469 C 75.417969 55.824219 75.488281 56.257812 75.328125 56.4375 C 74.746094 57.070312 73.703125 56.945312 73.3125 56.167969 C 73.222656 55.96875 73.382812 55.355469 73.433594 55.15625 C 73.558594 54.703125 74.035156 53.039062 74.496094 53.003906 "/>
<path style=" stroke:none;fill-rule:nonzero;fill:rgb(13.729858%,12.159729%,12.548828%);fill-opacity:1;" d="M 73.347656 68.660156 C 73.527344 68.695312 73.6875 68.804688 73.808594 68.949219 C 73.933594 69.089844 74.003906 69.273438 74.039062 69.457031 C 74.09375 69.90625 73.933594 70.28125 73.597656 70.554688 L 73.226562 70.71875 L 72.820312 70.648438 C 72.515625 70.519531 72.324219 70.265625 72.234375 69.941406 C 72.144531 69.5625 72.234375 69.199219 72.480469 68.910156 L 72.890625 68.660156 L 73.347656 68.660156 "/>
<path style=" stroke:none;fill-rule:nonzero;fill:rgb(13.729858%,12.159729%,12.548828%);fill-opacity:1;" d="M 78.410156 63.988281 C 79.082031 64.046875 79.648438 64.496094 79.824219 65.132812 C 80.054688 65.910156 79.417969 66.722656 78.746094 67.15625 C 78.214844 67.5 77.367188 67.824219 76.886719 67.410156 C 76.515625 67.117188 76.480469 66.484375 76.535156 66.015625 C 76.675781 64.988281 77.402344 63.917969 78.410156 63.988281 "/>
<path style=" stroke:none;fill-rule:nonzero;fill:rgb(13.729858%,12.159729%,12.548828%);fill-opacity:1;" d="M 84.429688 68.910156 C 84.484375 68.875 84.695312 68.894531 84.765625 68.894531 C 84.871094 68.894531 85.085938 68.894531 85.1875 68.894531 C 85.351562 68.875 85.828125 68.75 85.988281 68.714844 C 86.164062 68.65625 86.464844 68.621094 86.605469 68.75 C 86.890625 69.019531 86.835938 69.488281 86.644531 69.816406 L 85.546875 71.585938 L 85.492188 71.65625 L 85.402344 71.675781 L 85.316406 71.675781 L 85.242188 71.621094 C 84.945312 71.335938 84.714844 70.96875 84.535156 70.574219 C 84.355469 70.175781 84.253906 69.742188 84.21875 69.308594 L 84.269531 69.089844 L 84.429688 68.910156 "/>
<path style=" stroke:none;fill-rule:nonzero;fill:rgb(13.729858%,12.159729%,12.548828%);fill-opacity:1;" d="M 77.527344 78.707031 C 77.6875 78.671875 78.429688 78.78125 78.609375 78.800781 C 78.695312 78.820312 79.488281 78.925781 79.542969 79 L 79.582031 79.050781 L 79.5625 79.105469 L 79.347656 79.414062 C 79.171875 79.632812 78.675781 80.15625 78.554688 80.40625 C 78.429688 80.679688 78.394531 81.21875 78.378906 81.511719 C 78.359375 81.691406 78.324219 81.980469 78.199219 82.085938 C 77.6875 82.539062 76.890625 82.085938 76.480469 81.53125 C 75.71875 80.5 76.285156 79.015625 77.527344 78.707031 "/>
<path style=" stroke:none;fill-rule:nonzero;fill:rgb(13.729858%,12.159729%,12.548828%);fill-opacity:1;" d="M 85.15625 77.675781 C 85.261719 77.640625 85.492188 77.695312 85.617188 77.714844 C 85.792969 77.769531 86.109375 77.839844 86.308594 77.839844 C 86.554688 77.839844 87.03125 77.660156 87.28125 77.546875 C 87.390625 77.511719 87.613281 77.421875 87.742188 77.457031 L 87.933594 77.53125 L 88.078125 77.695312 L 88.148438 77.910156 L 88.128906 78.128906 C 87.933594 78.832031 87.582031 79.484375 87.050781 80.007812 C 86.734375 80.335938 86.199219 80.585938 85.792969 80.371094 C 85.15625 80.023438 84.730469 79.46875 84.554688 78.761719 C 84.5 78.527344 84.535156 78.308594 84.640625 78.089844 C 84.769531 77.894531 84.925781 77.75 85.15625 77.675781 "/>
<path style=" stroke:none;fill-rule:nonzero;fill:rgb(13.729858%,12.159729%,12.548828%);fill-opacity:1;" d="M 92.503906 83.664062 C 93.050781 83.878906 93.671875 84.347656 93.671875 84.945312 C 93.65625 85.527344 92.804688 85.976562 92.273438 86.15625 C 91.582031 86.410156 90.378906 86.609375 89.992188 85.976562 C 89.707031 85.488281 89.863281 84.820312 90.167969 84.332031 C 90.664062 83.550781 91.65625 83.320312 92.503906 83.664062 "/>
<path style=" stroke:none;fill-rule:nonzero;fill:rgb(100%,100%,100%);fill-opacity:1;" d="M 39.660156 78.222656 L 34.886719 78.238281 L 34.886719 70.683594 L 42.429688 70.664062 C 42.652344 70.664062 42.890625 70.808594 43.054688 70.953125 C 43.292969 71.15625 43.476562 71.441406 43.546875 71.746094 L 44.832031 76.738281 C 44.945312 77.136719 45.015625 77.695312 44.816406 78.058594 C 44.707031 78.222656 44.484375 78.273438 44.28125 78.273438 L 39.660156 78.222656 "/>
<path style=" stroke:none;fill-rule:nonzero;fill:rgb(100%,100%,100%);fill-opacity:1;" d="M 50.851562 66.039062 C 53.878906 66.109375 55.75 69.308594 54.300781 71.929688 C 53.898438 72.652344 53.3125 73.214844 52.578125 73.589844 C 51.824219 73.957031 51.019531 74.082031 50.191406 73.972656 C 49.363281 73.863281 48.613281 73.5 48.007812 72.960938 C 47.398438 72.398438 46.976562 71.695312 46.792969 70.898438 C 46.226562 68.367188 48.226562 65.964844 50.851562 66.039062 "/>
</g>
</svg>
