<?xml version="1.0" encoding="UTF-8"?>
<svg xmlns="http://www.w3.org/2000/svg" xmlns:xlink="http://www.w3.org/1999/xlink" width="121pt" height="106pt" viewBox="0 0 121 106" version="1.1">
<g id="surface1">
<path style=" stroke:none;fill-rule:nonzero;fill:rgb(93.527222%,17.272949%,18.882751%);fill-opacity:1;" d="M 5.210938 105.527344 L 115.589844 105.527344 C 119.40625 105.527344 121.792969 101.394531 119.886719 98.085938 L 64.695312 2.496094 C 62.785156 -0.808594 58.011719 -0.808594 56.105469 2.496094 L 0.914062 98.085938 C -0.996094 101.394531 1.390625 105.527344 5.210938 105.527344 "/>
<path style=" stroke:none;fill-rule:nonzero;fill:rgb(100%,100%,100%);fill-opacity:1;" d="M 13.800781 95.605469 L 106.996094 95.605469 L 60.398438 14.902344 L 13.800781 95.605469 "/>
<path style=" stroke:none;fill-rule:nonzero;fill:rgb(13.729858%,12.159729%,12.548828%);fill-opacity:1;" d="M 40.972656 84.261719 L 40.972656 80.71875 L 38.433594 80.71875 L 38.433594 75.757812 L 40.972656 75.757812 L 40.972656 67.253906 L 38.433594 67.253906 L 38.433594 62.292969 L 40.972656 62.292969 L 40.972656 59.457031 L 43.339844 55.207031 L 45.917969 59.457031 L 45.917969 62.292969 L 49.453125 62.292969 L 49.453125 59.457031 L 51.832031 55.207031 L 54.398438 59.457031 L 54.398438 62.292969 L 57.929688 62.292969 L 57.929688 59.457031 L 60.335938 55.207031 L 62.871094 59.457031 L 62.871094 62.292969 L 66.402344 62.292969 L 66.402344 59.457031 L 68.820312 55.207031 L 71.351562 59.457031 L 71.351562 62.292969 L 74.882812 62.292969 L 74.882812 59.457031 L 77.3125 55.207031 L 79.824219 59.457031 L 79.824219 62.292969 L 82.371094 62.292969 L 82.371094 67.253906 L 79.824219 67.253906 L 79.824219 75.757812 L 82.371094 75.757812 L 82.371094 80.71875 L 79.824219 80.71875 L 79.824219 84.261719 L 74.882812 84.261719 L 74.882812 80.71875 L 71.351562 80.71875 L 71.351562 84.261719 L 66.402344 84.261719 L 66.402344 80.71875 L 62.871094 80.71875 L 62.871094 84.261719 L 57.929688 84.261719 L 57.929688 80.71875 L 54.398438 80.71875 L 54.398438 84.261719 L 49.453125 84.261719 L 49.453125 80.71875 L 45.917969 80.71875 L 45.917969 84.261719 L 40.972656 84.261719 "/>
<path style=" stroke:none;fill-rule:nonzero;fill:rgb(100%,100%,100%);fill-opacity:1;" d="M 45.917969 75.761719 L 45.917969 67.257812 L 49.449219 67.257812 L 49.449219 75.761719 L 45.917969 75.761719 "/>
<path style=" stroke:none;fill-rule:nonzero;fill:rgb(100%,100%,100%);fill-opacity:1;" d="M 54.394531 75.761719 L 54.394531 67.257812 L 57.925781 67.257812 L 57.925781 75.761719 L 54.394531 75.761719 "/>
<path style=" stroke:none;fill-rule:nonzero;fill:rgb(100%,100%,100%);fill-opacity:1;" d="M 62.867188 75.761719 L 62.867188 67.257812 L 66.402344 67.257812 L 66.402344 75.761719 L 62.867188 75.761719 "/>
<path style=" stroke:none;fill-rule:nonzero;fill:rgb(100%,100%,100%);fill-opacity:1;" d="M 71.347656 75.761719 L 71.347656 67.257812 L 74.878906 67.257812 L 74.878906 75.761719 L 71.347656 75.761719 "/>
</g>
</svg>
