<?xml version="1.0" encoding="UTF-8"?>
<svg xmlns="http://www.w3.org/2000/svg" xmlns:xlink="http://www.w3.org/1999/xlink" width="86pt" height="86pt" viewBox="0 0 86 86" version="1.1">
<g id="surface1">
<path style=" stroke:none;fill-rule:nonzero;fill:rgb(93.527222%,17.272949%,18.882751%);fill-opacity:1;" d="M 42.523438 0.648438 C 66.007812 0.648438 85.042969 19.683594 85.042969 43.167969 C 85.042969 66.652344 66.007812 85.6875 42.523438 85.6875 C 19.042969 85.6875 0.00390625 66.652344 0.00390625 43.167969 C 0.00390625 19.683594 19.042969 0.648438 42.523438 0.648438 "/>
<path style=" stroke:none;fill-rule:nonzero;fill:rgb(100%,100%,100%);fill-opacity:1;" d="M 42.527344 14.816406 C 46.378906 14.816406 50.054688 15.558594 53.558594 17.039062 C 56.949219 18.472656 59.953125 20.5 62.574219 23.121094 C 65.191406 25.738281 67.21875 28.746094 68.652344 32.136719 C 70.132812 35.636719 70.875 39.3125 70.875 43.164062 C 70.875 47.015625 70.132812 50.691406 68.652344 54.195312 C 67.21875 57.582031 65.191406 60.589844 62.574219 63.207031 C 59.953125 65.828125 56.949219 67.855469 53.558594 69.289062 C 50.054688 70.769531 46.378906 71.511719 42.527344 71.511719 C 38.675781 71.511719 35 70.769531 31.5 69.289062 C 28.109375 67.855469 25.105469 65.828125 22.484375 63.207031 C 19.863281 60.589844 17.835938 57.582031 16.402344 54.195312 C 14.921875 50.691406 14.179688 47.015625 14.179688 43.164062 C 14.179688 39.3125 14.921875 35.636719 16.402344 32.136719 C 17.835938 28.746094 19.863281 25.738281 22.484375 23.121094 C 25.105469 20.5 28.109375 18.472656 31.5 17.039062 C 35 15.558594 38.675781 14.816406 42.527344 14.816406 "/>
<path style=" stroke:none;fill-rule:nonzero;fill:rgb(13.729858%,12.159729%,12.548828%);fill-opacity:1;" d="M 59.617188 49.316406 L 59.617188 54.433594 C 59.617188 54.5625 59.617188 54.628906 59.617188 54.691406 C 59.617188 54.820312 59.550781 54.953125 59.484375 55.015625 C 59.484375 55.082031 59.351562 55.144531 59.28125 55.144531 C 59.148438 55.210938 59.015625 55.210938 58.949219 55.210938 L 56.929688 55.210938 C 56.796875 55.210938 56.730469 55.210938 56.664062 55.210938 C 56.527344 55.144531 56.464844 55.144531 56.394531 55.015625 C 56.328125 55.015625 56.328125 54.886719 56.328125 54.820312 C 56.261719 54.757812 56.261719 54.628906 56.261719 54.496094 L 56.261719 49.835938 C 56.128906 49.902344 55.925781 49.902344 55.859375 49.902344 C 53.980469 50.222656 51.023438 50.289062 49.144531 50.355469 C 48.066406 50.355469 43.371094 50.484375 42.292969 50.484375 C 40.214844 50.484375 38 50.417969 35.914062 50.289062 C 33.96875 50.222656 31.347656 50.09375 29.402344 50.03125 L 28.933594 49.964844 L 28.933594 54.757812 C 28.933594 54.820312 28.867188 54.953125 28.796875 55.082031 C 28.730469 55.144531 28.664062 55.210938 28.53125 55.210938 L 26.046875 55.210938 C 25.910156 55.210938 25.84375 55.144531 25.707031 55.082031 C 25.644531 54.953125 25.644531 54.820312 25.644531 54.757812 C 25.644531 54.691406 25.644531 54.433594 25.644531 54.433594 L 25.644531 49.316406 L 24.230469 49.316406 C 24.230469 49.316406 23.960938 49.316406 23.898438 49.316406 C 23.828125 49.253906 23.695312 49.1875 23.628906 49.121094 C 23.558594 49.058594 23.496094 48.929688 23.496094 48.863281 C 23.425781 48.734375 23.425781 48.476562 23.425781 48.34375 C 23.496094 47.832031 23.425781 47.050781 23.425781 46.535156 C 23.425781 45.953125 23.359375 45.109375 23.292969 44.460938 C 23.222656 43.683594 23.089844 42.910156 22.890625 42.195312 C 22.890625 42.003906 22.757812 41.613281 22.757812 41.417969 C 22.6875 41.09375 22.6875 40.707031 22.757812 40.316406 C 22.820312 39.929688 22.957031 39.539062 23.089844 39.214844 C 23.425781 38.632812 23.898438 38.183594 24.433594 37.859375 C 24.769531 37.597656 25.238281 37.339844 25.644531 37.277344 C 25.777344 37.277344 25.84375 37.277344 25.976562 37.210938 L 31.417969 30.214844 C 31.484375 30.152344 31.550781 30.085938 31.621094 30.023438 C 31.683594 29.957031 31.753906 29.828125 31.886719 29.828125 C 32.023438 29.761719 32.15625 29.699219 32.289062 29.699219 C 32.355469 29.699219 32.558594 29.699219 32.625 29.699219 L 52.433594 29.699219 C 52.566406 29.699219 52.703125 29.699219 52.769531 29.699219 C 52.902344 29.761719 53.039062 29.761719 53.171875 29.828125 C 53.304688 29.828125 53.375 29.957031 53.507812 30.023438 L 53.710938 30.28125 L 59.351562 37.277344 C 59.414062 37.339844 59.617188 37.40625 59.683594 37.40625 C 60.089844 37.535156 60.421875 37.730469 60.761719 37.921875 C 61.230469 38.246094 61.566406 38.632812 61.835938 39.152344 C 62.167969 39.605469 62.304688 40.1875 62.371094 40.707031 C 62.371094 41.160156 62.238281 42.003906 62.167969 42.390625 C 62.035156 42.84375 61.96875 43.359375 61.902344 43.8125 C 61.835938 44.332031 61.765625 44.847656 61.765625 45.367188 C 61.703125 45.820312 61.632812 46.277344 61.632812 46.730469 C 61.632812 47.183594 61.632812 47.636719 61.703125 48.152344 C 61.703125 48.28125 61.703125 48.539062 61.703125 48.667969 C 61.703125 48.796875 61.703125 48.992188 61.566406 49.121094 C 61.5 49.1875 61.429688 49.316406 61.296875 49.316406 C 61.230469 49.316406 61.027344 49.316406 60.960938 49.316406 L 59.617188 49.316406 "/>
<path style=" stroke:none;fill-rule:nonzero;fill:rgb(100%,100%,100%);fill-opacity:1;" d="M 26.621094 39.179688 C 27.964844 39.179688 29.105469 40.214844 29.105469 41.578125 C 29.105469 42.933594 27.964844 44.035156 26.554688 43.972656 C 25.210938 43.972656 24.070312 42.871094 24.070312 41.578125 C 24.140625 40.28125 25.210938 39.179688 26.621094 39.179688 "/>
<path style=" stroke:none;fill-rule:nonzero;fill:rgb(100%,100%,100%);fill-opacity:1;" d="M 37.636719 41.566406 L 37.636719 47.007812 L 30.386719 47.007812 C 30.316406 47.007812 30.113281 47.007812 30.113281 47.007812 C 29.847656 47.007812 29.578125 46.941406 29.445312 46.746094 C 29.3125 46.617188 29.242188 46.421875 29.242188 46.164062 C 29.242188 46.035156 29.3125 45.90625 29.378906 45.839844 L 31.660156 42.085938 C 31.660156 42.019531 31.726562 41.890625 31.796875 41.824219 C 31.929688 41.695312 31.996094 41.632812 32.132812 41.632812 C 32.265625 41.566406 32.464844 41.566406 32.601562 41.566406 L 37.636719 41.566406 "/>
<path style=" stroke:none;fill-rule:nonzero;fill:rgb(100%,100%,100%);fill-opacity:1;" d="M 38.179688 41.566406 L 46.910156 41.566406 L 46.910156 47.007812 L 38.179688 47.007812 L 38.179688 41.566406 "/>
<path style=" stroke:none;fill-rule:nonzero;fill:rgb(100%,100%,100%);fill-opacity:1;" d="M 47.511719 41.566406 L 52.144531 41.566406 C 52.277344 41.566406 52.476562 41.566406 52.546875 41.566406 C 52.679688 41.566406 52.882812 41.632812 53.015625 41.695312 C 53.152344 41.695312 53.285156 41.824219 53.351562 41.890625 C 53.351562 41.957031 53.417969 42.085938 53.484375 42.148438 L 55.769531 45.773438 C 55.769531 45.839844 55.835938 45.96875 55.835938 46.035156 C 55.902344 46.292969 55.902344 46.488281 55.769531 46.683594 C 55.703125 46.875 55.503906 47.007812 55.230469 47.007812 C 55.164062 47.007812 54.828125 47.007812 54.761719 47.007812 L 47.511719 47.007812 L 47.511719 41.566406 "/>
<path style=" stroke:none;fill-rule:nonzero;fill:rgb(100%,100%,100%);fill-opacity:1;" d="M 58.453125 39.179688 C 59.863281 39.179688 61.007812 40.28125 61.007812 41.578125 C 60.9375 42.933594 59.796875 44.035156 58.386719 44.035156 C 57.042969 44.035156 55.902344 42.933594 55.902344 41.640625 C 55.902344 40.214844 57.042969 39.113281 58.453125 39.179688 "/>
<path style=" stroke:none;fill-rule:nonzero;fill:rgb(100%,100%,100%);fill-opacity:1;" d="M 57.636719 37.496094 C 57.574219 37.496094 57.371094 37.496094 57.234375 37.496094 L 50.050781 36.976562 C 47.765625 36.78125 44.074219 36.78125 41.789062 36.847656 C 39.910156 36.847656 36.488281 36.847656 34.605469 36.910156 L 27.824219 37.363281 L 27.421875 37.363281 L 32.054688 31.535156 C 32.125 31.472656 32.1875 31.40625 32.1875 31.34375 C 32.324219 31.277344 32.390625 31.214844 32.527344 31.148438 C 32.59375 31.148438 32.722656 31.082031 32.863281 31.082031 C 32.996094 31.082031 33.0625 31.082031 33.195312 31.082031 L 51.796875 31.082031 C 51.929688 31.082031 52.0625 31.082031 52.132812 31.082031 C 52.265625 31.082031 52.398438 31.148438 52.535156 31.148438 C 52.601562 31.214844 52.667969 31.214844 52.800781 31.277344 C 52.871094 31.34375 52.9375 31.472656 53.003906 31.535156 L 57.636719 37.496094 "/>
</g>
</svg>
