<?xml version="1.0" encoding="UTF-8"?>
<svg xmlns="http://www.w3.org/2000/svg" xmlns:xlink="http://www.w3.org/1999/xlink" width="86pt" height="86pt" viewBox="0 0 86 86" version="1.1">
<g id="surface1">
<path style=" stroke:none;fill-rule:nonzero;fill:rgb(93.527222%,17.272949%,18.882751%);fill-opacity:1;" d="M 42.523438 0.648438 C 66.007812 0.648438 85.042969 19.683594 85.042969 43.167969 C 85.042969 66.652344 66.007812 85.6875 42.523438 85.6875 C 19.042969 85.6875 0.00390625 66.652344 0.00390625 43.167969 C 0.00390625 19.683594 19.042969 0.648438 42.523438 0.648438 "/>
<path style=" stroke:none;fill-rule:nonzero;fill:rgb(100%,100%,100%);fill-opacity:1;" d="M 42.527344 14.816406 C 46.378906 14.816406 50.054688 15.558594 53.558594 17.039062 C 56.949219 18.472656 59.953125 20.5 62.574219 23.121094 C 65.191406 25.738281 67.21875 28.746094 68.652344 32.136719 C 70.132812 35.636719 70.875 39.3125 70.875 43.164062 C 70.875 47.015625 70.132812 50.691406 68.652344 54.195312 C 67.21875 57.582031 65.191406 60.589844 62.574219 63.207031 C 59.953125 65.828125 56.949219 67.855469 53.558594 69.289062 C 50.054688 70.769531 46.378906 71.511719 42.527344 71.511719 C 38.675781 71.511719 35 70.769531 31.5 69.289062 C 28.109375 67.855469 25.105469 65.828125 22.484375 63.207031 C 19.863281 60.589844 17.835938 57.582031 16.402344 54.195312 C 14.921875 50.691406 14.179688 47.015625 14.179688 43.164062 C 14.179688 39.3125 14.921875 35.636719 16.402344 32.136719 C 17.835938 28.746094 19.863281 25.738281 22.484375 23.121094 C 25.105469 20.5 28.109375 18.472656 31.5 17.039062 C 35 15.558594 38.675781 14.816406 42.527344 14.816406 "/>
<path style=" stroke:none;fill-rule:nonzero;fill:rgb(13.729858%,12.159729%,12.548828%);fill-opacity:1;" d="M 28.402344 55.851562 L 32.699219 55.851562 L 32.699219 59.394531 L 40.617188 59.394531 C 40.632812 59.394531 40.992188 58.007812 42.566406 57.953125 C 43.5 57.917969 44.324219 58.566406 44.59375 59.394531 L 52.417969 59.394531 L 52.417969 55.851562 L 56.664062 55.851562 L 56.664062 64.425781 L 52.417969 64.425781 L 52.417969 60.882812 L 44.578125 60.882812 C 44.304688 61.839844 43.445312 62.394531 42.640625 62.378906 C 41.742188 62.359375 40.847656 61.765625 40.652344 60.882812 L 32.699219 60.882812 L 32.699219 64.425781 L 28.402344 64.425781 L 28.402344 55.851562 "/>
<path style=" stroke:none;fill-rule:nonzero;fill:rgb(13.729858%,12.159729%,12.548828%);fill-opacity:1;" d="M 28.417969 54.511719 L 28.398438 53.683594 L 56.679688 53.683594 L 56.679688 54.507812 L 28.417969 54.511719 "/>
<path style=" stroke:none;fill-rule:nonzero;fill:rgb(13.729858%,12.159729%,12.548828%);fill-opacity:1;" d="M 28.355469 52.457031 L 28.445312 24.738281 C 28.425781 24.160156 28.570312 23.585938 28.910156 23.101562 C 29.429688 22.292969 30.34375 21.84375 31.292969 21.914062 L 53.949219 21.914062 C 54.808594 21.859375 55.632812 22.257812 56.152344 22.976562 C 56.457031 23.390625 56.617188 23.910156 56.617188 24.429688 L 56.703125 52.46875 L 28.355469 52.457031 "/>
<path style=" stroke:none;fill-rule:nonzero;fill:rgb(96.374512%,51.715088%,16.333008%);fill-opacity:1;" d="M 31.1875 49.507812 L 53.78125 49.507812 L 53.757812 24.679688 L 31.136719 24.753906 L 31.1875 49.507812 "/>
</g>
</svg>
