<?xml version="1.0" encoding="UTF-8"?>
<svg xmlns="http://www.w3.org/2000/svg" xmlns:xlink="http://www.w3.org/1999/xlink" width="85pt" height="86pt" viewBox="0 0 85 86" version="1.1">
<g id="surface1">
<path style=" stroke:none;fill-rule:nonzero;fill:rgb(93.527222%,17.272949%,18.882751%);fill-opacity:1;" d="M 54.609375 1.769531 C 43.980469 -1.367188 33.40625 -0.414062 23.507812 4.574219 C 13.613281 9.550781 6.546875 17.472656 2.730469 27.878906 C -1.085938 38.28125 -0.824219 48.894531 3.503906 59.097656 C 7.828125 69.292969 15.273438 76.863281 25.402344 81.351562 C 48.980469 91.796875 76.351562 79 83.453125 54.210938 C 89.878906 31.773438 77 8.351562 54.609375 1.769531 "/>
<path style=" stroke:none;fill-rule:nonzero;fill:rgb(100%,100%,100%);fill-opacity:1;" d="M 50.570312 15.382812 C 65.492188 19.773438 74.078125 35.382812 69.792969 50.339844 C 65.0625 66.855469 46.820312 75.390625 31.105469 68.425781 C 24.359375 65.4375 19.394531 60.394531 16.507812 53.597656 C 13.625 46.792969 13.453125 39.71875 15.996094 32.789062 C 18.539062 25.855469 23.25 20.574219 29.84375 17.25 C 36.441406 13.933594 43.488281 13.292969 50.570312 15.382812 "/>
<path style=" stroke:none;fill-rule:nonzero;fill:rgb(100%,100%,100%);fill-opacity:1;" d="M 15.574219 26.8125 L 17.65625 23.628906 L 16.597656 22.933594 L 15.183594 25.097656 L 7.941406 20.363281 L 7.273438 21.382812 L 15.574219 26.8125 "/>
<path style=" stroke:none;fill-rule:nonzero;fill:rgb(100%,100%,100%);fill-opacity:1;" d="M 17.957031 23.328125 L 18.695312 22.410156 L 13.019531 17.839844 L 12.28125 18.753906 L 17.957031 23.328125 "/>
<path style=" stroke:none;fill-rule:nonzero;fill:rgb(100%,100%,100%);fill-opacity:1;" d="M 11.117188 17.859375 L 11.894531 16.890625 L 10.667969 15.90625 L 9.890625 16.871094 L 11.117188 17.859375 "/>
<path style=" stroke:none;fill-rule:nonzero;fill:rgb(100%,100%,100%);fill-opacity:1;" d="M 19.214844 21.492188 L 20.097656 20.722656 L 17.171875 17.355469 C 16.820312 16.949219 16.617188 16.574219 16.550781 16.238281 C 16.480469 15.902344 16.582031 15.628906 16.832031 15.410156 C 17.242188 15.054688 17.742188 15.21875 18.332031 15.898438 L 21.480469 19.523438 L 22.367188 18.75 L 19.445312 15.382812 C 19.085938 14.976562 18.886719 14.605469 18.816406 14.265625 C 18.75 13.933594 18.851562 13.65625 19.097656 13.4375 C 19.507812 13.082031 20.011719 13.246094 20.597656 13.925781 L 23.75 17.550781 L 24.640625 16.78125 L 21.507812 13.175781 C 20.945312 12.53125 20.410156 12.125 19.921875 11.96875 C 19.417969 11.828125 18.953125 11.925781 18.527344 12.296875 C 18.246094 12.542969 18.089844 12.828125 18.0625 13.15625 C 18.039062 13.492188 18.078125 13.816406 18.164062 14.136719 C 18.027344 14.070312 17.886719 14.003906 17.734375 13.949219 C 17.589844 13.902344 17.425781 13.878906 17.269531 13.863281 C 17.117188 13.859375 16.960938 13.890625 16.800781 13.929688 C 16.644531 13.972656 16.488281 14.070312 16.34375 14.195312 C 16.070312 14.433594 15.925781 14.710938 15.894531 15.035156 C 15.871094 15.375 15.914062 15.714844 16.054688 16.066406 L 16.039062 16.082031 C 16.007812 16.046875 15.953125 15.984375 15.878906 15.898438 C 15.804688 15.828125 15.730469 15.746094 15.65625 15.660156 C 15.570312 15.582031 15.496094 15.496094 15.429688 15.421875 C 15.359375 15.355469 15.304688 15.289062 15.273438 15.257812 L 14.398438 16.019531 C 14.53125 16.160156 14.683594 16.320312 14.84375 16.480469 C 15 16.644531 15.160156 16.828125 15.335938 17.027344 L 19.214844 21.492188 "/>
<path style=" stroke:none;fill-rule:nonzero;fill:rgb(100%,100%,100%);fill-opacity:1;" d="M 25.5625 16.417969 L 26.566406 15.808594 L 22.757812 9.589844 L 21.753906 10.203125 L 25.5625 16.417969 "/>
<path style=" stroke:none;fill-rule:nonzero;fill:rgb(100%,100%,100%);fill-opacity:1;" d="M 20.960938 8.976562 L 22.023438 8.324219 L 21.195312 6.976562 L 20.136719 7.628906 L 20.960938 8.976562 "/>
<path style=" stroke:none;fill-rule:nonzero;fill:rgb(100%,100%,100%);fill-opacity:1;" d="M 29.871094 13.933594 L 29.367188 12.945312 C 29.320312 13.019531 29.269531 13.09375 29.199219 13.15625 C 29.140625 13.238281 29.054688 13.292969 28.941406 13.351562 C 28.753906 13.445312 28.585938 13.4375 28.421875 13.34375 C 28.261719 13.253906 28.097656 13.03125 27.917969 12.675781 L 26.089844 9.078125 L 27.136719 8.546875 L 26.621094 7.53125 L 25.574219 8.0625 L 24.699219 6.339844 L 23.851562 7.265625 L 24.527344 8.597656 L 23.699219 9.015625 L 24.214844 10.03125 L 25.042969 9.613281 L 27.003906 13.476562 C 27.320312 14.097656 27.65625 14.484375 28.015625 14.621094 C 28.382812 14.769531 28.769531 14.726562 29.191406 14.511719 C 29.34375 14.4375 29.488281 14.347656 29.597656 14.242188 C 29.703125 14.128906 29.808594 14.03125 29.871094 13.933594 "/>
<path style=" stroke:none;fill-rule:nonzero;fill:rgb(100%,100%,100%);fill-opacity:1;" d="M 30.277344 10.410156 L 33.398438 9.300781 L 33.230469 8.835938 C 33.019531 8.230469 32.78125 7.738281 32.53125 7.332031 C 32.277344 6.925781 32.011719 6.613281 31.726562 6.398438 C 31.449219 6.175781 31.15625 6.058594 30.863281 6.011719 C 30.558594 5.964844 30.257812 5.996094 29.960938 6.105469 C 29.621094 6.222656 29.339844 6.414062 29.132812 6.683594 C 28.921875 6.960938 28.777344 7.292969 28.703125 7.667969 C 28.636719 8.054688 28.621094 8.480469 28.683594 8.957031 C 28.742188 9.433594 28.859375 9.9375 29.046875 10.457031 C 29.226562 10.953125 29.441406 11.40625 29.691406 11.796875 C 29.941406 12.195312 30.207031 12.503906 30.519531 12.742188 C 30.820312 12.980469 31.152344 13.132812 31.511719 13.203125 C 31.875 13.277344 32.253906 13.238281 32.648438 13.09375 C 32.988281 12.972656 33.28125 12.824219 33.515625 12.644531 C 33.75 12.453125 33.929688 12.28125 34.078125 12.125 L 33.605469 10.976562 C 33.515625 11.148438 33.375 11.332031 33.203125 11.53125 C 33.027344 11.726562 32.78125 11.890625 32.460938 12.003906 C 31.949219 12.1875 31.527344 12.140625 31.175781 11.855469 C 30.832031 11.589844 30.523438 11.109375 30.277344 10.410156 "/>
<path style=" stroke:none;fill-rule:nonzero;fill:rgb(100%,100%,100%);fill-opacity:1;" d="M 46.824219 8.390625 L 50.09375 8.925781 L 50.171875 8.433594 C 50.277344 7.800781 50.304688 7.257812 50.28125 6.777344 C 50.261719 6.304688 50.171875 5.898438 50.03125 5.574219 C 49.890625 5.246094 49.691406 5 49.457031 4.820312 C 49.210938 4.632812 48.933594 4.515625 48.621094 4.464844 C 48.265625 4.40625 47.925781 4.4375 47.617188 4.574219 C 47.300781 4.710938 47.011719 4.941406 46.769531 5.230469 C 46.523438 5.53125 46.304688 5.90625 46.128906 6.351562 C 45.953125 6.792969 45.8125 7.292969 45.726562 7.839844 C 45.640625 8.359375 45.617188 8.859375 45.644531 9.324219 C 45.667969 9.792969 45.757812 10.191406 45.917969 10.546875 C 46.0625 10.90625 46.277344 11.199219 46.5625 11.429688 C 46.84375 11.675781 47.199219 11.820312 47.609375 11.886719 C 47.96875 11.945312 48.292969 11.957031 48.59375 11.910156 C 48.886719 11.851562 49.125 11.789062 49.328125 11.726562 L 49.476562 10.492188 C 49.308594 10.597656 49.097656 10.691406 48.855469 10.78125 C 48.601562 10.867188 48.308594 10.894531 47.972656 10.839844 C 47.4375 10.753906 47.09375 10.511719 46.917969 10.089844 C 46.742188 9.691406 46.707031 9.121094 46.824219 8.390625 "/>
<path style=" stroke:none;fill-rule:nonzero;fill:rgb(100%,100%,100%);fill-opacity:1;" d="M 50.308594 12.300781 L 51.429688 12.667969 L 52.773438 8.5625 C 52.949219 8.019531 53.175781 7.617188 53.460938 7.367188 C 53.734375 7.109375 54.039062 7.046875 54.394531 7.164062 C 54.683594 7.257812 54.847656 7.445312 54.910156 7.734375 C 54.957031 8.019531 54.894531 8.433594 54.71875 8.976562 L 53.308594 13.28125 L 54.421875 13.648438 L 55.9375 9.015625 C 56.179688 8.285156 56.238281 7.660156 56.125 7.144531 C 56.003906 6.632812 55.671875 6.277344 55.113281 6.09375 C 54.792969 5.992188 54.480469 5.992188 54.164062 6.117188 C 53.855469 6.238281 53.570312 6.457031 53.304688 6.777344 L 53.289062 6.773438 C 53.296875 6.726562 53.328125 6.648438 53.355469 6.554688 C 53.378906 6.457031 53.414062 6.351562 53.4375 6.238281 C 53.464844 6.125 53.5 6.019531 53.527344 5.921875 C 53.546875 5.824219 53.570312 5.742188 53.585938 5.703125 L 52.535156 5.359375 C 52.480469 5.566406 52.417969 5.78125 52.359375 6.003906 C 52.292969 6.238281 52.21875 6.464844 52.144531 6.695312 L 50.308594 12.300781 "/>
<path style=" stroke:none;fill-rule:nonzero;fill:rgb(100%,100%,100%);fill-opacity:1;" d="M 57.640625 11.597656 L 60.578125 13.125 L 60.808594 12.683594 C 61.101562 12.113281 61.300781 11.609375 61.425781 11.144531 C 61.550781 10.683594 61.597656 10.273438 61.566406 9.921875 C 61.53125 9.566406 61.417969 9.269531 61.253906 9.027344 C 61.078125 8.773438 60.851562 8.570312 60.574219 8.425781 C 60.25 8.261719 59.917969 8.1875 59.585938 8.222656 C 59.238281 8.25 58.894531 8.378906 58.574219 8.578125 C 58.246094 8.792969 57.921875 9.074219 57.613281 9.441406 C 57.308594 9.808594 57.019531 10.242188 56.765625 10.730469 C 56.523438 11.199219 56.347656 11.667969 56.226562 12.117188 C 56.105469 12.566406 56.058594 12.972656 56.101562 13.367188 C 56.132812 13.75 56.242188 14.09375 56.441406 14.402344 C 56.632812 14.722656 56.921875 14.972656 57.292969 15.164062 C 57.613281 15.328125 57.925781 15.441406 58.21875 15.492188 C 58.515625 15.53125 58.761719 15.542969 58.980469 15.542969 L 59.5 14.421875 C 59.308594 14.46875 59.082031 14.492188 58.820312 14.503906 C 58.550781 14.503906 58.265625 14.441406 57.96875 14.285156 C 57.484375 14.035156 57.230469 13.695312 57.195312 13.246094 C 57.152344 12.808594 57.296875 12.257812 57.640625 11.597656 "/>
<path style=" stroke:none;fill-rule:nonzero;fill:rgb(100%,100%,100%);fill-opacity:1;" d="M 59.707031 16.4375 L 60.660156 17.125 L 62.953125 13.945312 C 63.167969 13.644531 63.378906 13.410156 63.59375 13.230469 C 63.804688 13.054688 64.003906 12.933594 64.195312 12.863281 C 64.378906 12.800781 64.5625 12.777344 64.730469 12.789062 C 64.894531 12.820312 65.039062 12.871094 65.175781 12.96875 C 65.230469 13.011719 65.285156 13.050781 65.324219 13.09375 C 65.359375 13.140625 65.40625 13.191406 65.445312 13.238281 L 66.277344 12.082031 C 66.257812 12.066406 66.238281 12.054688 66.238281 12.039062 C 66.230469 12.03125 66.210938 12.019531 66.195312 12.003906 C 66.019531 11.878906 65.84375 11.789062 65.667969 11.75 C 65.488281 11.707031 65.320312 11.707031 65.140625 11.738281 C 64.96875 11.769531 64.792969 11.820312 64.632812 11.894531 C 64.464844 11.96875 64.300781 12.058594 64.144531 12.179688 L 64.128906 12.164062 C 64.160156 12.117188 64.210938 12.050781 64.277344 11.957031 C 64.335938 11.859375 64.410156 11.753906 64.476562 11.644531 C 64.539062 11.53125 64.605469 11.441406 64.675781 11.347656 C 64.726562 11.25 64.777344 11.179688 64.816406 11.136719 L 63.9375 10.5 C 63.820312 10.675781 63.695312 10.867188 63.570312 11.0625 C 63.441406 11.265625 63.296875 11.460938 63.160156 11.65625 L 59.707031 16.4375 "/>
<path style=" stroke:none;fill-rule:nonzero;fill:rgb(100%,100%,100%);fill-opacity:1;" d="M 64.488281 20.339844 L 65.265625 21.058594 C 65.34375 20.960938 65.453125 20.8125 65.59375 20.644531 C 65.730469 20.480469 65.871094 20.308594 66.039062 20.132812 L 68.402344 17.574219 C 68.734375 17.21875 68.976562 16.90625 69.132812 16.621094 C 69.285156 16.335938 69.367188 16.066406 69.40625 15.8125 C 69.441406 15.589844 69.40625 15.328125 69.316406 15.03125 C 69.210938 14.738281 69.003906 14.445312 68.679688 14.148438 C 68.40625 13.894531 68.125 13.714844 67.84375 13.609375 C 67.558594 13.496094 67.28125 13.417969 67.019531 13.386719 L 66.222656 14.375 C 66.457031 14.339844 66.730469 14.359375 67.042969 14.4375 C 67.339844 14.515625 67.605469 14.664062 67.84375 14.886719 C 68.152344 15.171875 68.269531 15.476562 68.210938 15.808594 C 68.175781 15.96875 68.121094 16.132812 68.03125 16.28125 C 67.933594 16.4375 67.800781 16.59375 67.648438 16.761719 L 67.445312 16.976562 L 67.140625 16.695312 C 66.449219 16.054688 65.78125 15.710938 65.167969 15.664062 C 64.542969 15.628906 63.933594 15.914062 63.351562 16.539062 C 63.117188 16.789062 62.953125 17.042969 62.835938 17.300781 C 62.714844 17.5625 62.664062 17.800781 62.65625 18.042969 C 62.640625 18.28125 62.683594 18.496094 62.773438 18.699219 C 62.859375 18.902344 62.984375 19.082031 63.160156 19.242188 C 63.480469 19.535156 63.800781 19.6875 64.144531 19.695312 C 64.472656 19.707031 64.792969 19.65625 65.09375 19.546875 L 65.113281 19.566406 C 65.085938 19.597656 65.039062 19.648438 64.976562 19.726562 C 64.90625 19.804688 64.839844 19.875 64.78125 19.957031 C 64.722656 20.039062 64.652344 20.109375 64.605469 20.179688 C 64.542969 20.261719 64.503906 20.300781 64.488281 20.339844 "/>
<path style=" stroke:none;fill-rule:nonzero;fill:rgb(100%,100%,100%);fill-opacity:1;" d="M 65.84375 21.8125 L 66.605469 22.710938 L 74.734375 15.820312 L 73.976562 14.917969 L 65.84375 21.8125 "/>
<path style=" stroke:none;fill-rule:nonzero;fill:rgb(100%,100%,100%);fill-opacity:1;" d="M 70.507812 22.480469 L 72.359375 25.222656 L 72.769531 24.945312 C 73.304688 24.585938 73.722656 24.234375 74.046875 23.890625 C 74.378906 23.542969 74.617188 23.207031 74.757812 22.878906 C 74.894531 22.550781 74.941406 22.238281 74.910156 21.941406 C 74.875 21.636719 74.773438 21.351562 74.59375 21.09375 C 74.390625 20.789062 74.136719 20.566406 73.828125 20.4375 C 73.507812 20.300781 73.144531 20.246094 72.765625 20.273438 C 72.378906 20.300781 71.957031 20.390625 71.515625 20.570312 C 71.066406 20.75 70.609375 20.992188 70.148438 21.300781 C 69.714844 21.597656 69.335938 21.921875 69.015625 22.257812 C 68.695312 22.597656 68.460938 22.933594 68.308594 23.296875 C 68.152344 23.648438 68.085938 24.003906 68.113281 24.371094 C 68.128906 24.742188 68.265625 25.097656 68.5 25.449219 C 68.703125 25.742188 68.921875 25.992188 69.160156 26.175781 C 69.402344 26.351562 69.609375 26.480469 69.796875 26.585938 L 70.792969 25.847656 C 70.601562 25.796875 70.390625 25.710938 70.15625 25.597656 C 69.917969 25.46875 69.699219 25.273438 69.511719 24.996094 C 69.210938 24.542969 69.144531 24.125 69.328125 23.714844 C 69.503906 23.308594 69.890625 22.894531 70.507812 22.480469 "/>
<path style=" stroke:none;fill-rule:nonzero;fill:rgb(100%,100%,100%);fill-opacity:1;" d="M 43.042969 11.9375 C 42.925781 12.140625 42.773438 12.296875 42.570312 12.425781 C 42.367188 12.546875 42.113281 12.601562 41.808594 12.605469 C 41.488281 12.613281 41.1875 12.550781 40.882812 12.421875 C 40.574219 12.285156 40.335938 12.148438 40.152344 12.011719 L 40.109375 13.390625 C 40.296875 13.484375 40.574219 13.582031 40.910156 13.675781 C 41.253906 13.769531 41.601562 13.820312 41.949219 13.816406 C 42.804688 13.800781 43.441406 13.492188 43.855469 12.90625 C 44.222656 12.390625 44.390625 11.675781 44.421875 10.765625 L 44.332031 5.285156 C 44.328125 5.070312 44.335938 4.871094 44.339844 4.660156 C 44.347656 4.445312 44.347656 4.246094 44.355469 4.046875 L 43.277344 4.066406 C 43.277344 4.109375 43.277344 4.195312 43.28125 4.292969 C 43.269531 4.390625 43.273438 4.503906 43.261719 4.617188 C 43.253906 4.734375 43.253906 4.832031 43.253906 4.933594 C 43.242188 5.03125 43.242188 5.117188 43.242188 5.160156 L 43.210938 5.160156 C 43.058594 4.835938 42.863281 4.550781 42.628906 4.3125 C 42.390625 4.089844 42.089844 3.980469 41.730469 3.984375 C 41.382812 3.992188 41.074219 4.082031 40.816406 4.269531 C 40.558594 4.460938 40.335938 4.707031 40.171875 5.035156 C 40.011719 5.359375 39.882812 5.765625 39.808594 6.21875 C 39.726562 6.691406 39.691406 7.203125 39.699219 7.773438 C 39.707031 8.453125 39.773438 9.023438 39.90625 9.484375 C 40.023438 9.957031 40.175781 10.335938 40.371094 10.617188 C 40.570312 10.910156 40.78125 11.109375 41.023438 11.230469 C 41.261719 11.359375 41.511719 11.417969 41.757812 11.414062 C 42.152344 11.410156 42.460938 11.296875 42.695312 11.050781 C 42.925781 10.816406 43.113281 10.535156 43.257812 10.175781 L 43.28125 10.175781 L 43.296875 11.066406 C 43.242188 11.339844 43.152344 11.738281 43.042969 11.9375 "/>
<path style=" stroke:none;fill-rule:nonzero;fill:rgb(93.527222%,17.272949%,18.882751%);fill-opacity:1;" d="M 29.941406 9.460938 C 29.726562 8.828125 29.648438 8.292969 29.703125 7.886719 C 29.765625 7.488281 29.964844 7.222656 30.28125 7.109375 C 30.9375 6.875 31.503906 7.414062 31.976562 8.738281 L 29.941406 9.460938 "/>
<path style=" stroke:none;fill-rule:nonzero;fill:rgb(93.527222%,17.272949%,18.882751%);fill-opacity:1;" d="M 46.988281 7.398438 C 47.105469 6.738281 47.292969 6.234375 47.542969 5.90625 C 47.785156 5.582031 48.085938 5.445312 48.417969 5.5 C 49.109375 5.613281 49.34375 6.355469 49.117188 7.742188 L 46.988281 7.398438 "/>
<path style=" stroke:none;fill-rule:nonzero;fill:rgb(93.527222%,17.272949%,18.882751%);fill-opacity:1;" d="M 58.105469 10.703125 C 58.425781 10.117188 58.757812 9.695312 59.09375 9.457031 C 59.429688 9.230469 59.753906 9.195312 60.054688 9.347656 C 60.679688 9.671875 60.667969 10.449219 60.019531 11.699219 L 58.105469 10.703125 "/>
<path style=" stroke:none;fill-rule:nonzero;fill:rgb(93.527222%,17.272949%,18.882751%);fill-opacity:1;" d="M 66.832031 17.644531 L 66.382812 18.125 C 65.988281 18.554688 65.59375 18.828125 65.203125 18.949219 C 64.796875 19.078125 64.449219 19.003906 64.136719 18.71875 C 63.914062 18.515625 63.828125 18.273438 63.851562 18.011719 C 63.882812 17.746094 64.03125 17.472656 64.269531 17.210938 C 64.597656 16.859375 64.949219 16.695312 65.335938 16.730469 C 65.726562 16.761719 66.125 16.976562 66.546875 17.367188 C 66.597656 17.414062 66.648438 17.460938 66.703125 17.515625 C 66.761719 17.566406 66.8125 17.613281 66.832031 17.644531 "/>
<path style=" stroke:none;fill-rule:nonzero;fill:rgb(93.527222%,17.272949%,18.882751%);fill-opacity:1;" d="M 71.339844 21.917969 C 71.902344 21.550781 72.394531 21.339844 72.800781 21.289062 C 73.210938 21.253906 73.511719 21.375 73.703125 21.65625 C 74.09375 22.234375 73.714844 22.914062 72.550781 23.703125 L 71.339844 21.917969 "/>
<path style=" stroke:none;fill-rule:nonzero;fill:rgb(93.527222%,17.272949%,18.882751%);fill-opacity:1;" d="M 41.210938 9.667969 C 41.015625 9.257812 40.902344 8.609375 40.890625 7.710938 C 40.878906 6.871094 40.957031 6.242188 41.128906 5.804688 C 41.292969 5.371094 41.582031 5.15625 41.988281 5.132812 C 42.367188 5.125 42.667969 5.335938 42.882812 5.761719 C 43.09375 6.179688 43.203125 6.824219 43.21875 7.660156 C 43.230469 8.542969 43.136719 9.195312 42.953125 9.625 C 42.773438 10.070312 42.460938 10.285156 42.023438 10.292969 C 41.683594 10.300781 41.410156 10.089844 41.210938 9.667969 "/>
<path style=" stroke:none;fill-rule:nonzero;fill:rgb(13.729858%,12.159729%,12.548828%);fill-opacity:1;" d="M 51.863281 28.007812 C 51.324219 28.007812 50.753906 28.128906 50.238281 28.269531 C 48.910156 28.644531 47.777344 29.554688 46.953125 30.660156 C 46.261719 31.582031 45.765625 32.714844 45.421875 33.816406 C 45.09375 34.839844 44.851562 35.953125 44.664062 37.011719 C 44.460938 38.214844 44.300781 39.476562 44.246094 40.695312 C 44.199219 41.890625 44.253906 43.21875 44.339844 44.40625 C 44.425781 45.609375 44.546875 46.886719 44.738281 48.078125 C 44.957031 49.445312 45.285156 50.824219 45.765625 52.121094 C 46.265625 53.472656 47.054688 54.972656 48.191406 55.863281 C 49.242188 56.695312 50.566406 57.101562 51.902344 57.050781 C 53.320312 57.007812 54.671875 56.445312 55.714844 55.484375 C 56.644531 54.625 57.324219 53.347656 57.789062 52.164062 C 58.300781 50.851562 58.664062 49.445312 58.917969 48.058594 C 59.136719 46.847656 59.289062 45.621094 59.375 44.390625 C 59.464844 43.074219 59.480469 41.753906 59.4375 40.4375 C 59.398438 39.296875 59.308594 38.128906 59.144531 37 C 58.980469 35.902344 58.738281 34.808594 58.386719 33.757812 C 58.023438 32.664062 57.515625 31.558594 56.820312 30.640625 C 56.019531 29.589844 54.9375 28.6875 53.664062 28.308594 C 53.089844 28.132812 52.46875 28.007812 51.863281 28.007812 "/>
<path style=" stroke:none;fill-rule:nonzero;fill:rgb(13.729858%,12.159729%,12.548828%);fill-opacity:1;" d="M 40.539062 28.300781 L 26.953125 28.300781 L 26.953125 43.289062 L 30.949219 44.242188 C 30.972656 44.15625 31.023438 44.015625 31.058594 43.929688 C 31.113281 43.796875 31.195312 43.664062 31.269531 43.546875 C 31.53125 43.164062 31.867188 42.835938 32.261719 42.59375 C 32.769531 42.285156 33.34375 42.117188 33.9375 42.121094 C 34.621094 42.128906 35.292969 42.355469 35.8125 42.789062 C 36.277344 43.183594 36.617188 43.785156 36.847656 44.34375 C 37.039062 44.808594 37.195312 45.289062 37.300781 45.785156 C 37.429688 46.382812 37.492188 46.996094 37.492188 47.613281 C 37.5 48.1875 37.449219 48.765625 37.339844 49.328125 C 37.238281 49.890625 37.074219 50.457031 36.8125 50.96875 C 36.558594 51.484375 36.203125 51.960938 35.738281 52.304688 C 35.214844 52.6875 34.59375 52.898438 33.949219 52.914062 C 33.3125 52.921875 32.6875 52.742188 32.160156 52.394531 C 31.660156 52.066406 31.269531 51.621094 31.027344 51.085938 C 30.960938 50.9375 30.886719 50.71875 30.832031 50.574219 L 26.953125 51.695312 C 26.984375 51.851562 27.027344 52.074219 27.070312 52.222656 C 27.195312 52.695312 27.449219 53.167969 27.714844 53.574219 C 28.132812 54.230469 28.644531 54.847656 29.242188 55.351562 C 29.867188 55.871094 30.589844 56.269531 31.347656 56.550781 C 32.238281 56.886719 33.1875 57.066406 34.140625 57.035156 C 34.941406 57.011719 35.742188 56.828125 36.488281 56.535156 C 37.25 56.242188 37.957031 55.839844 38.578125 55.316406 C 39.242188 54.761719 39.792969 54.085938 40.222656 53.332031 C 40.683594 52.515625 41.007812 51.566406 41.238281 50.660156 C 41.492188 49.660156 41.664062 48.613281 41.671875 47.589844 C 41.683594 46.632812 41.542969 45.621094 41.347656 44.679688 C 41.152344 43.746094 40.855469 42.738281 40.414062 41.894531 C 39.996094 41.082031 39.433594 40.359375 38.753906 39.757812 C 38.078125 39.152344 37.292969 38.683594 36.445312 38.363281 C 35.628906 38.054688 34.757812 37.894531 33.878906 37.894531 C 33.046875 37.894531 32.214844 38.039062 31.445312 38.367188 C 31.355469 38.410156 31.210938 38.472656 31.125 38.511719 L 31.125 32.164062 L 40.539062 32.164062 L 40.539062 28.300781 "/>
<path style=" stroke:none;fill-rule:nonzero;fill:rgb(100%,100%,100%);fill-opacity:1;" d="M 51.871094 32.183594 C 52.195312 32.175781 52.515625 32.25 52.796875 32.402344 C 53.078125 32.546875 53.304688 32.808594 53.472656 33.070312 C 53.753906 33.503906 53.949219 34.113281 54.078125 34.617188 C 54.296875 35.46875 54.472656 36.339844 54.605469 37.210938 C 54.738281 38.109375 54.835938 39.019531 54.898438 39.929688 C 54.960938 40.863281 54.996094 41.796875 54.988281 42.730469 C 54.984375 43.78125 54.941406 44.84375 54.847656 45.894531 C 54.753906 46.953125 54.605469 48.050781 54.378906 49.082031 C 54.214844 49.796875 54.007812 50.527344 53.726562 51.210938 C 53.582031 51.558594 53.398438 51.929688 53.175781 52.238281 C 53.023438 52.449219 52.839844 52.648438 52.625 52.792969 C 52.390625 52.941406 52.117188 53.035156 51.832031 53.050781 C 51.503906 53.070312 51.164062 52.992188 50.890625 52.800781 C 50.695312 52.667969 50.515625 52.449219 50.378906 52.246094 C 50.167969 51.925781 49.988281 51.574219 49.839844 51.214844 C 49.5625 50.546875 49.371094 49.785156 49.234375 49.078125 C 49.050781 48.070312 48.925781 46.859375 48.84375 45.84375 C 48.765625 44.84375 48.695312 43.683594 48.695312 42.679688 C 48.695312 41.757812 48.75 40.816406 48.84375 39.894531 C 48.933594 38.980469 49.070312 38.0625 49.230469 37.15625 C 49.375 36.328125 49.554688 35.464844 49.777344 34.65625 C 49.921875 34.132812 50.144531 33.503906 50.445312 33.058594 C 50.625 32.804688 50.851562 32.550781 51.125 32.40625 C 51.351562 32.289062 51.605469 32.203125 51.871094 32.183594 "/>
</g>
</svg>
