<?xml version="1.0" encoding="UTF-8"?>
<svg xmlns="http://www.w3.org/2000/svg" xmlns:xlink="http://www.w3.org/1999/xlink" width="86pt" height="86pt" viewBox="0 0 86 86" version="1.1">
<g id="surface1">
<path style=" stroke:none;fill-rule:nonzero;fill:rgb(93.527222%,17.272949%,18.882751%);fill-opacity:1;" d="M 54.746094 1.769531 C 44.117188 -1.367188 33.542969 -0.414062 23.644531 4.570312 C 13.75 9.550781 6.683594 17.472656 2.867188 27.878906 C -0.949219 38.28125 -0.6875 48.894531 3.640625 59.097656 C 7.960938 69.292969 15.410156 76.863281 25.539062 81.351562 C 49.117188 91.796875 76.488281 79 83.589844 54.207031 C 90.015625 31.773438 77.136719 8.351562 54.746094 1.769531 "/>
<path style=" stroke:none;fill-rule:nonzero;fill:rgb(100%,100%,100%);fill-opacity:1;" d="M 50.707031 15.382812 C 65.628906 19.773438 74.214844 35.382812 69.929688 50.339844 C 65.199219 66.855469 46.957031 75.390625 31.238281 68.425781 C 24.492188 65.4375 19.53125 60.394531 16.644531 53.597656 C 13.761719 46.792969 13.589844 39.71875 16.132812 32.789062 C 18.675781 25.855469 23.386719 20.574219 29.980469 17.25 C 36.574219 13.933594 43.625 13.292969 50.707031 15.382812 "/>
<path style=" stroke:none;fill-rule:nonzero;fill:rgb(100%,100%,100%);fill-opacity:1;" d="M 15.421875 27.335938 L 17.433594 24.121094 L 16.363281 23.445312 L 14.992188 25.636719 L 7.65625 21.046875 L 7.011719 22.074219 L 15.421875 27.335938 "/>
<path style=" stroke:none;fill-rule:nonzero;fill:rgb(100%,100%,100%);fill-opacity:1;" d="M 17.785156 23.730469 L 18.503906 22.804688 L 12.746094 18.335938 L 12.027344 19.261719 L 17.785156 23.730469 "/>
<path style=" stroke:none;fill-rule:nonzero;fill:rgb(100%,100%,100%);fill-opacity:1;" d="M 10.851562 18.390625 L 11.609375 17.410156 L 10.363281 16.441406 L 9.605469 17.421875 L 10.851562 18.390625 "/>
<path style=" stroke:none;fill-rule:nonzero;fill:rgb(100%,100%,100%);fill-opacity:1;" d="M 19.070312 21.808594 L 19.941406 21.027344 L 16.964844 17.703125 C 16.605469 17.300781 16.398438 16.933594 16.324219 16.597656 C 16.25 16.265625 16.347656 15.988281 16.59375 15.769531 C 16.996094 15.40625 17.5 15.566406 18.097656 16.234375 L 21.296875 19.816406 L 22.171875 19.03125 L 19.199219 15.707031 C 18.839844 15.304688 18.628906 14.9375 18.558594 14.601562 C 18.480469 14.261719 18.578125 13.988281 18.824219 13.769531 C 19.226562 13.410156 19.730469 13.570312 20.328125 14.238281 L 23.53125 17.816406 L 24.40625 17.03125 L 21.222656 13.472656 C 20.652344 12.839844 20.113281 12.441406 19.621094 12.296875 C 19.117188 12.15625 18.652344 12.261719 18.234375 12.636719 C 17.957031 12.882812 17.804688 13.175781 17.78125 13.503906 C 17.769531 13.839844 17.8125 14.160156 17.902344 14.480469 C 17.765625 14.414062 17.621094 14.347656 17.46875 14.300781 C 17.324219 14.253906 17.164062 14.226562 17.003906 14.21875 C 16.851562 14.214844 16.695312 14.246094 16.539062 14.289062 C 16.378906 14.335938 16.226562 14.433594 16.085938 14.5625 C 15.816406 14.800781 15.675781 15.082031 15.652344 15.40625 C 15.632812 15.746094 15.679688 16.085938 15.828125 16.433594 L 15.8125 16.449219 C 15.78125 16.414062 15.722656 16.351562 15.648438 16.269531 C 15.574219 16.203125 15.5 16.117188 15.421875 16.035156 C 15.339844 15.957031 15.265625 15.871094 15.195312 15.796875 C 15.121094 15.730469 15.066406 15.667969 15.035156 15.636719 L 14.171875 16.410156 C 14.3125 16.550781 14.464844 16.699219 14.621094 16.863281 C 14.785156 17.023438 14.945312 17.203125 15.121094 17.40625 L 19.070312 21.808594 "/>
<path style=" stroke:none;fill-rule:nonzero;fill:rgb(100%,100%,100%);fill-opacity:1;" d="M 25.410156 16.605469 L 26.398438 15.988281 L 22.523438 9.808594 L 21.53125 10.433594 L 25.410156 16.605469 "/>
<path style=" stroke:none;fill-rule:nonzero;fill:rgb(100%,100%,100%);fill-opacity:1;" d="M 20.722656 9.210938 L 21.773438 8.554688 L 20.933594 7.21875 L 19.882812 7.878906 L 20.722656 9.210938 "/>
<path style=" stroke:none;fill-rule:nonzero;fill:rgb(100%,100%,100%);fill-opacity:1;" d="M 29.765625 14.042969 L 29.257812 13.058594 C 29.207031 13.132812 29.15625 13.207031 29.089844 13.273438 C 29.03125 13.347656 28.945312 13.410156 28.835938 13.46875 C 28.644531 13.566406 28.476562 13.558594 28.3125 13.464844 C 28.15625 13.375 27.988281 13.15625 27.804688 12.800781 L 25.953125 9.214844 L 26.988281 8.679688 L 26.46875 7.667969 L 25.429688 8.203125 L 24.539062 6.488281 L 23.703125 7.414062 L 24.390625 8.742188 L 23.570312 9.164062 L 24.089844 10.175781 L 24.910156 9.753906 L 26.902344 13.605469 C 27.222656 14.222656 27.5625 14.609375 27.921875 14.742188 C 28.289062 14.890625 28.667969 14.84375 29.089844 14.628906 C 29.238281 14.550781 29.382812 14.460938 29.496094 14.351562 C 29.601562 14.242188 29.703125 14.140625 29.765625 14.042969 "/>
<path style=" stroke:none;fill-rule:nonzero;fill:rgb(100%,100%,100%);fill-opacity:1;" d="M 30.234375 10.480469 L 33.339844 9.359375 L 33.167969 8.890625 C 32.949219 8.289062 32.714844 7.800781 32.460938 7.394531 C 32.207031 6.992188 31.9375 6.675781 31.65625 6.460938 C 31.375 6.246094 31.082031 6.125 30.789062 6.082031 C 30.488281 6.035156 30.183594 6.070312 29.890625 6.175781 C 29.546875 6.300781 29.273438 6.492188 29.070312 6.761719 C 28.855469 7.039062 28.71875 7.375 28.648438 7.746094 C 28.582031 8.132812 28.570312 8.558594 28.632812 9.035156 C 28.699219 9.511719 28.820312 10.011719 29.007812 10.535156 C 29.1875 11.03125 29.410156 11.476562 29.660156 11.867188 C 29.910156 12.265625 30.179688 12.570312 30.488281 12.808594 C 30.792969 13.046875 31.125 13.199219 31.480469 13.265625 C 31.84375 13.339844 32.222656 13.292969 32.617188 13.15625 C 32.953125 13.03125 33.25 12.882812 33.480469 12.699219 C 33.710938 12.507812 33.890625 12.332031 34.035156 12.179688 L 33.558594 11.035156 C 33.464844 11.203125 33.328125 11.386719 33.164062 11.585938 C 32.984375 11.785156 32.742188 11.949219 32.425781 12.0625 C 31.917969 12.246094 31.492188 12.203125 31.140625 11.921875 C 30.792969 11.65625 30.488281 11.175781 30.234375 10.480469 "/>
<path style=" stroke:none;fill-rule:nonzero;fill:rgb(100%,100%,100%);fill-opacity:1;" d="M 43.046875 11.914062 C 42.933594 12.117188 42.777344 12.277344 42.578125 12.40625 C 42.375 12.523438 42.121094 12.582031 41.8125 12.585938 C 41.496094 12.59375 41.195312 12.527344 40.890625 12.402344 C 40.578125 12.265625 40.339844 12.125 40.15625 11.988281 L 40.113281 13.367188 C 40.304688 13.464844 40.578125 13.5625 40.917969 13.65625 C 41.257812 13.75 41.609375 13.796875 41.953125 13.792969 C 42.8125 13.78125 43.449219 13.472656 43.863281 12.882812 C 44.230469 12.367188 44.398438 11.652344 44.429688 10.742188 L 44.335938 5.261719 C 44.332031 5.046875 44.339844 4.847656 44.347656 4.636719 C 44.355469 4.425781 44.355469 4.222656 44.363281 4.023438 L 43.28125 4.042969 C 43.28125 4.085938 43.28125 4.171875 43.285156 4.269531 C 43.277344 4.371094 43.277344 4.480469 43.269531 4.597656 C 43.261719 4.710938 43.261719 4.808594 43.261719 4.910156 C 43.25 5.011719 43.25 5.09375 43.25 5.136719 L 43.21875 5.136719 C 43.066406 4.8125 42.871094 4.527344 42.632812 4.289062 C 42.398438 4.066406 42.097656 3.960938 41.738281 3.964844 C 41.390625 3.96875 41.078125 4.058594 40.824219 4.246094 C 40.566406 4.4375 40.339844 4.683594 40.179688 5.015625 C 40.015625 5.339844 39.886719 5.742188 39.816406 6.195312 C 39.734375 6.671875 39.695312 7.183594 39.703125 7.75 C 39.714844 8.429688 39.78125 9 39.914062 9.464844 C 40.03125 9.9375 40.183594 10.3125 40.378906 10.59375 C 40.574219 10.890625 40.789062 11.089844 41.027344 11.210938 C 41.269531 11.335938 41.519531 11.398438 41.761719 11.394531 C 42.160156 11.390625 42.46875 11.273438 42.703125 11.03125 C 42.933594 10.796875 43.121094 10.511719 43.265625 10.15625 L 43.285156 10.15625 L 43.300781 11.046875 C 43.246094 11.316406 43.160156 11.71875 43.046875 11.914062 "/>
<path style=" stroke:none;fill-rule:nonzero;fill:rgb(100%,100%,100%);fill-opacity:1;" d="M 48.214844 3.570312 L 49.003906 3.699219 L 50.46875 1.851562 L 49.28125 1.65625 L 48.214844 3.570312 "/>
<path style=" stroke:none;fill-rule:nonzero;fill:rgb(100%,100%,100%);fill-opacity:1;" d="M 46.984375 8.394531 L 50.238281 8.925781 L 50.316406 8.433594 C 50.421875 7.804688 50.453125 7.261719 50.433594 6.78125 C 50.402344 6.304688 50.324219 5.902344 50.183594 5.578125 C 50.039062 5.25 49.84375 5 49.605469 4.820312 C 49.367188 4.636719 49.085938 4.519531 48.777344 4.46875 C 48.417969 4.410156 48.085938 4.441406 47.777344 4.578125 C 47.457031 4.714844 47.171875 4.941406 46.925781 5.234375 C 46.683594 5.535156 46.460938 5.90625 46.289062 6.351562 C 46.113281 6.796875 45.972656 7.296875 45.886719 7.84375 C 45.796875 8.363281 45.777344 8.863281 45.800781 9.324219 C 45.828125 9.792969 45.914062 10.195312 46.074219 10.550781 C 46.21875 10.90625 46.433594 11.203125 46.714844 11.433594 C 46.992188 11.675781 47.347656 11.824219 47.761719 11.886719 C 48.113281 11.945312 48.445312 11.957031 48.734375 11.910156 C 49.03125 11.855469 49.269531 11.792969 49.472656 11.726562 L 49.617188 10.492188 C 49.453125 10.597656 49.238281 10.691406 49 10.785156 C 48.746094 10.871094 48.457031 10.898438 48.125 10.84375 C 47.59375 10.757812 47.242188 10.511719 47.070312 10.09375 C 46.898438 9.695312 46.863281 9.125 46.984375 8.394531 "/>
<path style=" stroke:none;fill-rule:nonzero;fill:rgb(100%,100%,100%);fill-opacity:1;" d="M 50.613281 12.34375 L 51.722656 12.714844 L 53.085938 8.613281 C 53.265625 8.074219 53.496094 7.671875 53.78125 7.421875 C 54.054688 7.167969 54.363281 7.105469 54.710938 7.226562 C 55 7.320312 55.164062 7.507812 55.222656 7.796875 C 55.269531 8.085938 55.207031 8.496094 55.027344 9.035156 L 53.597656 13.339844 L 54.707031 13.707031 L 56.242188 9.078125 C 56.488281 8.351562 56.546875 7.730469 56.4375 7.214844 C 56.320312 6.695312 55.988281 6.34375 55.4375 6.160156 C 55.117188 6.050781 54.804688 6.054688 54.492188 6.175781 C 54.179688 6.296875 53.890625 6.515625 53.632812 6.835938 L 53.609375 6.824219 C 53.621094 6.785156 53.652344 6.703125 53.679688 6.613281 C 53.699219 6.511719 53.738281 6.40625 53.761719 6.292969 C 53.789062 6.179688 53.824219 6.078125 53.855469 5.980469 C 53.878906 5.886719 53.90625 5.804688 53.917969 5.761719 L 52.867188 5.410156 C 52.8125 5.617188 52.753906 5.835938 52.691406 6.058594 C 52.628906 6.292969 52.546875 6.519531 52.472656 6.75 L 50.613281 12.34375 "/>
<path style=" stroke:none;fill-rule:nonzero;fill:rgb(100%,100%,100%);fill-opacity:1;" d="M 60.785156 7.566406 L 61.496094 7.945312 L 63.472656 6.664062 L 62.410156 6.097656 L 60.785156 7.566406 "/>
<path style=" stroke:none;fill-rule:nonzero;fill:rgb(100%,100%,100%);fill-opacity:1;" d="M 58.070312 11.742188 L 60.988281 13.289062 L 61.222656 12.851562 C 61.519531 12.285156 61.722656 11.78125 61.851562 11.320312 C 61.984375 10.859375 62.035156 10.449219 62.007812 10.097656 C 61.976562 9.746094 61.867188 9.445312 61.703125 9.203125 C 61.535156 8.945312 61.308594 8.746094 61.03125 8.597656 C 60.710938 8.425781 60.386719 8.351562 60.046875 8.382812 C 59.703125 8.410156 59.355469 8.53125 59.03125 8.734375 C 58.707031 8.941406 58.382812 9.21875 58.070312 9.585938 C 57.761719 9.953125 57.46875 10.378906 57.210938 10.867188 C 56.960938 11.332031 56.78125 11.800781 56.65625 12.246094 C 56.53125 12.699219 56.484375 13.105469 56.515625 13.492188 C 56.539062 13.878906 56.648438 14.222656 56.84375 14.535156 C 57.035156 14.855469 57.320312 15.105469 57.691406 15.304688 C 58.007812 15.472656 58.3125 15.585938 58.605469 15.636719 C 58.902344 15.675781 59.148438 15.691406 59.363281 15.699219 L 59.898438 14.582031 C 59.707031 14.621094 59.476562 14.644531 59.214844 14.652344 C 58.949219 14.65625 58.667969 14.585938 58.371094 14.429688 C 57.890625 14.175781 57.640625 13.832031 57.609375 13.382812 C 57.574219 12.945312 57.722656 12.398438 58.070312 11.742188 "/>
<path style=" stroke:none;fill-rule:nonzero;fill:rgb(100%,100%,100%);fill-opacity:1;" d="M 60.21875 16.691406 L 61.15625 17.386719 L 63.5 14.242188 C 63.71875 13.945312 63.933594 13.710938 64.152344 13.539062 C 64.367188 13.363281 64.566406 13.242188 64.757812 13.175781 C 64.941406 13.117188 65.125 13.097656 65.296875 13.113281 C 65.457031 13.144531 65.597656 13.199219 65.730469 13.296875 C 65.789062 13.339844 65.839844 13.378906 65.875 13.425781 C 65.914062 13.472656 65.960938 13.523438 65.996094 13.570312 L 66.84375 12.425781 C 66.828125 12.414062 66.8125 12.402344 66.808594 12.378906 C 66.796875 12.371094 66.78125 12.363281 66.765625 12.347656 C 66.59375 12.21875 66.417969 12.128906 66.242188 12.085938 C 66.0625 12.042969 65.898438 12.039062 65.722656 12.066406 C 65.546875 12.09375 65.371094 12.148438 65.207031 12.214844 C 65.039062 12.289062 64.875 12.378906 64.71875 12.492188 L 64.699219 12.480469 C 64.734375 12.433594 64.785156 12.367188 64.851562 12.273438 C 64.910156 12.175781 64.988281 12.074219 65.054688 11.964844 C 65.125 11.851562 65.1875 11.765625 65.257812 11.671875 C 65.316406 11.574219 65.367188 11.503906 65.402344 11.457031 L 64.535156 10.816406 C 64.417969 10.992188 64.292969 11.175781 64.164062 11.367188 C 64.03125 11.574219 63.886719 11.765625 63.742188 11.960938 L 60.21875 16.691406 "/>
<path style=" stroke:none;fill-rule:nonzero;fill:rgb(100%,100%,100%);fill-opacity:1;" d="M 64.992188 20.714844 L 65.757812 21.449219 C 65.835938 21.351562 65.949219 21.203125 66.089844 21.039062 C 66.230469 20.878906 66.378906 20.707031 66.546875 20.535156 L 68.953125 18.023438 C 69.292969 17.667969 69.539062 17.359375 69.699219 17.078125 C 69.859375 16.800781 69.949219 16.527344 69.988281 16.273438 C 70.03125 16.050781 70 15.792969 69.914062 15.492188 C 69.816406 15.203125 69.617188 14.90625 69.300781 14.605469 C 69.03125 14.34375 68.757812 14.160156 68.472656 14.046875 C 68.191406 13.933594 67.914062 13.847656 67.65625 13.8125 L 66.839844 14.792969 C 67.078125 14.757812 67.347656 14.78125 67.65625 14.863281 C 67.953125 14.949219 68.214844 15.101562 68.449219 15.324219 C 68.75 15.613281 68.859375 15.917969 68.792969 16.25 C 68.761719 16.410156 68.703125 16.574219 68.609375 16.722656 C 68.507812 16.878906 68.375 17.03125 68.214844 17.195312 L 68.011719 17.410156 L 67.707031 17.121094 C 67.035156 16.472656 66.378906 16.121094 65.761719 16.058594 C 65.140625 16.011719 64.527344 16.292969 63.933594 16.910156 C 63.703125 17.152344 63.527344 17.402344 63.402344 17.65625 C 63.28125 17.914062 63.222656 18.15625 63.210938 18.394531 C 63.1875 18.628906 63.230469 18.847656 63.316406 19.050781 C 63.394531 19.261719 63.523438 19.4375 63.691406 19.601562 C 64 19.898438 64.320312 20.054688 64.667969 20.066406 C 64.988281 20.085938 65.316406 20.039062 65.617188 19.9375 L 65.636719 19.953125 C 65.605469 19.984375 65.554688 20.039062 65.496094 20.113281 C 65.425781 20.1875 65.355469 20.261719 65.296875 20.335938 C 65.234375 20.417969 65.164062 20.492188 65.117188 20.558594 C 65.050781 20.640625 65.011719 20.679688 64.992188 20.714844 "/>
<path style=" stroke:none;fill-rule:nonzero;fill:rgb(100%,100%,100%);fill-opacity:1;" d="M 66.386719 22.285156 L 67.128906 23.191406 L 75.386719 16.453125 L 74.644531 15.542969 L 66.386719 22.285156 "/>
<path style=" stroke:none;fill-rule:nonzero;fill:rgb(100%,100%,100%);fill-opacity:1;" d="M 71.089844 23.117188 L 72.878906 25.886719 L 73.296875 25.617188 C 73.835938 25.269531 74.257812 24.929688 74.59375 24.589844 C 74.933594 24.25 75.179688 23.917969 75.328125 23.59375 C 75.472656 23.273438 75.523438 22.957031 75.5 22.664062 C 75.472656 22.359375 75.375 22.074219 75.203125 21.808594 C 75.007812 21.507812 74.761719 21.28125 74.453125 21.144531 C 74.136719 21 73.773438 20.9375 73.398438 20.957031 C 73.007812 20.976562 72.585938 21.0625 72.140625 21.234375 C 71.691406 21.402344 71.230469 21.632812 70.761719 21.929688 C 70.324219 22.21875 69.933594 22.535156 69.609375 22.867188 C 69.277344 23.199219 69.035156 23.53125 68.878906 23.886719 C 68.714844 24.234375 68.636719 24.589844 68.65625 24.957031 C 68.664062 25.324219 68.792969 25.6875 69.019531 26.035156 C 69.21875 26.335938 69.429688 26.585938 69.660156 26.777344 C 69.898438 26.957031 70.101562 27.089844 70.289062 27.203125 L 71.300781 26.476562 C 71.109375 26.425781 70.902344 26.335938 70.667969 26.214844 C 70.4375 26.085938 70.222656 25.886719 70.039062 25.601562 C 69.746094 25.148438 69.691406 24.726562 69.890625 24.320312 C 70.066406 23.921875 70.464844 23.515625 71.089844 23.117188 "/>
<path style=" stroke:none;fill-rule:nonzero;fill:rgb(93.527222%,17.272949%,18.882751%);fill-opacity:1;" d="M 29.894531 9.53125 C 29.679688 8.898438 29.59375 8.371094 29.644531 7.960938 C 29.707031 7.558594 29.898438 7.296875 30.214844 7.183594 C 30.871094 6.945312 31.433594 7.476562 31.914062 8.800781 L 29.894531 9.53125 "/>
<path style=" stroke:none;fill-rule:nonzero;fill:rgb(93.527222%,17.272949%,18.882751%);fill-opacity:1;" d="M 41.214844 9.648438 C 41.023438 9.234375 40.910156 8.585938 40.894531 7.691406 C 40.886719 6.851562 40.964844 6.21875 41.136719 5.78125 C 41.296875 5.347656 41.585938 5.132812 41.992188 5.113281 C 42.375 5.105469 42.671875 5.3125 42.890625 5.738281 C 43.097656 6.160156 43.210938 6.800781 43.226562 7.640625 C 43.238281 8.519531 43.140625 9.171875 42.957031 9.605469 C 42.777344 10.046875 42.46875 10.265625 42.03125 10.269531 C 41.691406 10.277344 41.417969 10.070312 41.214844 9.648438 "/>
<path style=" stroke:none;fill-rule:nonzero;fill:rgb(93.527222%,17.272949%,18.882751%);fill-opacity:1;" d="M 47.144531 7.402344 C 47.265625 6.738281 47.449219 6.238281 47.695312 5.90625 C 47.941406 5.585938 48.234375 5.445312 48.570312 5.5 C 49.261719 5.617188 49.492188 6.355469 49.265625 7.746094 L 47.144531 7.402344 "/>
<path style=" stroke:none;fill-rule:nonzero;fill:rgb(93.527222%,17.272949%,18.882751%);fill-opacity:1;" d="M 58.542969 10.855469 C 58.871094 10.265625 59.207031 9.847656 59.546875 9.617188 C 59.882812 9.390625 60.207031 9.355469 60.503906 9.515625 C 61.125 9.84375 61.105469 10.621094 60.445312 11.863281 L 58.542969 10.855469 "/>
<path style=" stroke:none;fill-rule:nonzero;fill:rgb(93.527222%,17.272949%,18.882751%);fill-opacity:1;" d="M 67.382812 18.066406 L 66.929688 18.535156 C 66.523438 18.957031 66.128906 19.222656 65.734375 19.34375 C 65.324219 19.460938 64.980469 19.386719 64.675781 19.09375 C 64.457031 18.886719 64.375 18.644531 64.40625 18.382812 C 64.441406 18.117188 64.59375 17.851562 64.839844 17.59375 C 65.171875 17.246094 65.523438 17.089844 65.910156 17.125 C 66.296875 17.160156 66.691406 17.382812 67.105469 17.785156 C 67.152344 17.832031 67.203125 17.878906 67.261719 17.929688 C 67.316406 17.984375 67.367188 18.03125 67.382812 18.066406 "/>
<path style=" stroke:none;fill-rule:nonzero;fill:rgb(93.527222%,17.272949%,18.882751%);fill-opacity:1;" d="M 71.933594 22.570312 C 72.503906 22.214844 73 22.015625 73.414062 21.976562 C 73.816406 21.941406 74.117188 22.070312 74.300781 22.355469 C 74.679688 22.941406 74.285156 23.613281 73.105469 24.375 L 71.933594 22.570312 "/>
<path style=" stroke:none;fill-rule:nonzero;fill:rgb(13.729858%,12.159729%,12.548828%);fill-opacity:1;" d="M 51.996094 28.007812 C 51.460938 28.007812 50.890625 28.128906 50.375 28.269531 C 49.046875 28.644531 47.910156 29.554688 47.089844 30.660156 C 46.398438 31.582031 45.902344 32.714844 45.558594 33.816406 C 45.230469 34.839844 44.988281 35.953125 44.800781 37.011719 C 44.597656 38.214844 44.4375 39.476562 44.382812 40.695312 C 44.332031 41.890625 44.390625 43.21875 44.472656 44.40625 C 44.558594 45.609375 44.683594 46.886719 44.875 48.078125 C 45.09375 49.445312 45.421875 50.824219 45.902344 52.121094 C 46.398438 53.472656 47.191406 54.972656 48.328125 55.863281 C 49.378906 56.695312 50.703125 57.101562 52.039062 57.050781 C 53.457031 57.007812 54.808594 56.445312 55.851562 55.484375 C 56.78125 54.625 57.460938 53.347656 57.921875 52.164062 C 58.4375 50.851562 58.800781 49.445312 59.054688 48.058594 C 59.273438 46.847656 59.425781 45.621094 59.511719 44.390625 C 59.601562 43.074219 59.617188 41.753906 59.574219 40.4375 C 59.53125 39.296875 59.445312 38.128906 59.28125 37 C 59.113281 35.902344 58.875 34.808594 58.523438 33.757812 C 58.160156 32.664062 57.648438 31.558594 56.957031 30.640625 C 56.15625 29.589844 55.074219 28.6875 53.800781 28.304688 C 53.226562 28.132812 52.601562 28.007812 51.996094 28.007812 "/>
<path style=" stroke:none;fill-rule:nonzero;fill:rgb(13.729858%,12.159729%,12.548828%);fill-opacity:1;" d="M 40.675781 28.300781 L 27.089844 28.300781 L 27.089844 43.289062 L 31.085938 44.238281 C 31.109375 44.152344 31.15625 44.015625 31.195312 43.929688 C 31.25 43.796875 31.332031 43.664062 31.40625 43.546875 C 31.667969 43.164062 32.003906 42.835938 32.394531 42.59375 C 32.902344 42.285156 33.480469 42.117188 34.074219 42.121094 C 34.757812 42.128906 35.429688 42.355469 35.949219 42.789062 C 36.414062 43.183594 36.757812 43.785156 36.984375 44.34375 C 37.175781 44.808594 37.332031 45.289062 37.4375 45.785156 C 37.566406 46.382812 37.628906 46.992188 37.628906 47.613281 C 37.636719 48.1875 37.582031 48.765625 37.476562 49.328125 C 37.375 49.890625 37.210938 50.457031 36.949219 50.96875 C 36.695312 51.484375 36.339844 51.957031 35.875 52.304688 C 35.351562 52.6875 34.730469 52.898438 34.085938 52.914062 C 33.449219 52.921875 32.824219 52.742188 32.296875 52.394531 C 31.796875 52.066406 31.40625 51.621094 31.164062 51.085938 C 31.097656 50.9375 31.019531 50.71875 30.96875 50.574219 L 27.089844 51.695312 C 27.121094 51.851562 27.160156 52.074219 27.207031 52.222656 C 27.332031 52.695312 27.585938 53.167969 27.847656 53.574219 C 28.269531 54.230469 28.78125 54.847656 29.378906 55.351562 C 30.003906 55.871094 30.726562 56.269531 31.484375 56.550781 C 32.375 56.886719 33.324219 57.066406 34.277344 57.035156 C 35.078125 57.007812 35.878906 56.828125 36.625 56.535156 C 37.386719 56.242188 38.09375 55.839844 38.714844 55.316406 C 39.378906 54.757812 39.929688 54.085938 40.359375 53.332031 C 40.820312 52.515625 41.144531 51.566406 41.375 50.660156 C 41.628906 49.660156 41.800781 48.613281 41.808594 47.589844 C 41.820312 46.632812 41.679688 45.621094 41.480469 44.679688 C 41.289062 43.746094 40.992188 42.738281 40.550781 41.894531 C 40.132812 41.082031 39.570312 40.359375 38.890625 39.757812 C 38.214844 39.152344 37.429688 38.683594 36.582031 38.363281 C 35.765625 38.054688 34.894531 37.894531 34.015625 37.894531 C 33.183594 37.894531 32.347656 38.039062 31.582031 38.367188 C 31.492188 38.410156 31.347656 38.472656 31.261719 38.511719 L 31.261719 32.164062 L 40.675781 32.164062 L 40.675781 28.300781 "/>
<path style=" stroke:none;fill-rule:nonzero;fill:rgb(100%,100%,100%);fill-opacity:1;" d="M 52.007812 32.183594 C 52.332031 32.175781 52.652344 32.25 52.933594 32.402344 C 53.214844 32.546875 53.441406 32.808594 53.609375 33.070312 C 53.886719 33.5 54.085938 34.113281 54.214844 34.617188 C 54.433594 35.46875 54.609375 36.339844 54.742188 37.210938 C 54.875 38.109375 54.972656 39.019531 55.03125 39.929688 C 55.097656 40.863281 55.132812 41.796875 55.125 42.730469 C 55.121094 43.78125 55.078125 44.839844 54.980469 45.894531 C 54.890625 46.953125 54.742188 48.050781 54.515625 49.082031 C 54.351562 49.796875 54.144531 50.527344 53.863281 51.210938 C 53.71875 51.558594 53.535156 51.929688 53.3125 52.238281 C 53.160156 52.449219 52.976562 52.648438 52.761719 52.792969 C 52.527344 52.941406 52.253906 53.035156 51.96875 53.050781 C 51.640625 53.070312 51.300781 52.992188 51.027344 52.800781 C 50.832031 52.667969 50.652344 52.449219 50.515625 52.246094 C 50.304688 51.925781 50.125 51.574219 49.976562 51.214844 C 49.699219 50.546875 49.507812 49.785156 49.371094 49.078125 C 49.1875 48.070312 49.058594 46.855469 48.980469 45.84375 C 48.902344 44.839844 48.832031 43.683594 48.832031 42.679688 C 48.832031 41.757812 48.886719 40.816406 48.980469 39.894531 C 49.070312 38.980469 49.207031 38.0625 49.367188 37.15625 C 49.511719 36.328125 49.691406 35.464844 49.914062 34.65625 C 50.058594 34.132812 50.28125 33.5 50.582031 33.058594 C 50.761719 32.804688 50.984375 32.550781 51.261719 32.40625 C 51.488281 32.289062 51.742188 32.203125 52.007812 32.183594 "/>
</g>
</svg>
