<?xml version="1.0" encoding="UTF-8"?>
<svg xmlns="http://www.w3.org/2000/svg" xmlns:xlink="http://www.w3.org/1999/xlink" width="87pt" height="86pt" viewBox="0 0 87 86" version="1.1">
<g id="surface1">
<path style="fill-rule:nonzero;fill:rgb(100%,100%,100%);fill-opacity:1;stroke-width:2.835;stroke-linecap:butt;stroke-linejoin:round;stroke:rgb(13.729858%,12.159729%,12.548828%);stroke-opacity:1;stroke-miterlimit:4;" d="M 435.195312 853.476562 C 200.351562 853.476562 10 663.085938 10 428.28125 C 10 193.4375 200.351562 3.085938 435.195312 3.085938 C 670.039062 3.085938 860.390625 193.4375 860.390625 428.28125 C 860.390625 663.085938 670.039062 853.476562 435.195312 853.476562 " transform="matrix(0.1,0,0,-0.1,0,86)"/>
<path style=" stroke:none;fill-rule:nonzero;fill:rgb(10.112%,40.585327%,73.280334%);fill-opacity:1;" d="M 43.519531 2.070312 C 37.945312 2.070312 32.609375 3.148438 27.519531 5.300781 C 22.601562 7.378906 18.246094 10.316406 14.457031 14.109375 C 10.660156 17.902344 7.726562 22.257812 5.644531 27.175781 C 3.492188 32.265625 2.417969 37.597656 2.417969 43.171875 C 2.417969 48.75 3.492188 54.082031 5.644531 59.171875 C 7.726562 64.089844 10.660156 68.445312 14.457031 72.234375 C 18.246094 76.03125 22.601562 78.964844 27.519531 81.046875 C 32.609375 83.199219 37.945312 84.273438 43.519531 84.273438 C 49.09375 84.273438 54.425781 83.199219 59.519531 81.046875 C 64.433594 78.964844 68.789062 76.03125 72.582031 72.234375 C 76.375 68.445312 79.3125 64.089844 81.390625 59.171875 C 83.542969 54.082031 84.621094 48.75 84.621094 43.171875 C 84.621094 37.597656 83.542969 32.265625 81.390625 27.175781 C 79.3125 22.257812 76.375 17.902344 72.582031 14.109375 C 68.789062 10.316406 64.433594 7.378906 59.519531 5.300781 C 54.425781 3.148438 49.09375 2.070312 43.519531 2.070312 "/>
<path style=" stroke:none;fill-rule:nonzero;fill:rgb(100%,100%,100%);fill-opacity:1;" d="M 7.378906 43.183594 C 7.378906 42.703125 7.628906 42.265625 7.992188 42.015625 L 30.746094 26.40625 C 30.964844 26.253906 31.230469 26.167969 31.511719 26.167969 C 32.269531 26.167969 32.882812 26.789062 32.882812 27.554688 C 32.882812 27.671875 32.867188 27.785156 32.839844 27.890625 L 31.074219 37.929688 L 78.246094 34.691406 L 78.238281 51.65625 L 31.066406 48.417969 L 32.832031 58.457031 C 32.859375 58.5625 32.875 58.675781 32.875 58.792969 C 32.875 59.5625 32.261719 60.183594 31.503906 60.183594 C 31.222656 60.183594 30.957031 60.09375 30.738281 59.941406 L 7.984375 44.335938 C 7.621094 44.085938 7.378906 43.664062 7.378906 43.183594 "/>
</g>
</svg>
