<?xml version="1.0" encoding="UTF-8"?>
<svg xmlns="http://www.w3.org/2000/svg" xmlns:xlink="http://www.w3.org/1999/xlink" width="87pt" height="86pt" viewBox="0 0 87 86" version="1.1">
<g id="surface1">
<path style="fill-rule:nonzero;fill:rgb(100%,100%,100%);fill-opacity:1;stroke-width:2.835;stroke-linecap:butt;stroke-linejoin:round;stroke:rgb(13.729858%,12.159729%,12.548828%);stroke-opacity:1;stroke-miterlimit:4;" d="M 860.390625 428.28125 C 860.390625 663.085938 670.039062 853.476562 435.195312 853.476562 C 200.351562 853.476562 10 663.085938 10 428.28125 C 10 193.4375 200.351562 3.085938 435.195312 3.085938 C 670.039062 3.085938 860.390625 193.4375 860.390625 428.28125 " transform="matrix(0.1,0,0,-0.1,0,86)"/>
<path style=" stroke:none;fill-rule:nonzero;fill:rgb(10.112%,40.585327%,73.280334%);fill-opacity:1;" d="M 84.621094 43.167969 C 84.621094 37.59375 83.542969 32.261719 81.390625 27.171875 C 79.3125 22.253906 76.375 17.898438 72.582031 14.105469 C 68.789062 10.3125 64.433594 7.375 59.519531 5.296875 C 54.425781 3.144531 49.09375 2.066406 43.519531 2.066406 C 37.945312 2.066406 32.609375 3.144531 27.519531 5.296875 C 22.601562 7.375 18.246094 10.3125 14.457031 14.105469 C 10.660156 17.898438 7.726562 22.253906 5.644531 27.171875 C 3.492188 32.261719 2.417969 37.59375 2.417969 43.167969 C 2.417969 48.746094 3.492188 54.078125 5.644531 59.167969 C 7.726562 64.085938 10.660156 68.441406 14.457031 72.234375 C 18.246094 76.027344 22.601562 78.960938 27.519531 81.042969 C 32.609375 83.195312 37.945312 84.269531 43.519531 84.269531 C 49.09375 84.269531 54.425781 83.195312 59.519531 81.042969 C 64.433594 78.960938 68.789062 76.027344 72.582031 72.234375 C 76.375 68.441406 79.3125 64.085938 81.390625 59.167969 C 83.542969 54.078125 84.621094 48.746094 84.621094 43.167969 "/>
<path style=" stroke:none;fill-rule:nonzero;fill:rgb(100%,100%,100%);fill-opacity:1;" d="M 17.582031 66.082031 L 28.199219 66.136719 L 28.160156 57.742188 C 28.125 52.597656 30.300781 47.675781 34.074219 44.3125 C 37.136719 41.578125 41.039062 40.050781 45.097656 40.015625 L 52.007812 39.960938 L 49.835938 49.914062 C 49.691406 50.578125 49.921875 51.257812 50.441406 51.660156 C 51.011719 52.121094 51.792969 52.140625 52.402344 51.714844 L 74.234375 36.433594 C 74.699219 36.101562 75 35.589844 74.964844 34.984375 C 74.949219 34.449219 74.679688 33.882812 74.214844 33.566406 L 51.742188 18.429688 C 51.3125 18.140625 50.78125 18.117188 50.335938 18.359375 C 49.765625 18.648438 49.460938 19.3125 49.601562 19.957031 L 51.8125 29.96875 L 44.671875 30.039062 C 35.175781 30.152344 26.433594 35.332031 21.535156 43.710938 C 18.96875 48.097656 17.617188 53.113281 17.597656 58.238281 L 17.582031 66.082031 "/>
</g>
</svg>
