<?xml version="1.0" encoding="UTF-8"?>
<svg xmlns="http://www.w3.org/2000/svg" xmlns:xlink="http://www.w3.org/1999/xlink" width="87pt" height="86pt" viewBox="0 0 87 86" version="1.1">
<g id="surface1">
<path style="fill-rule:nonzero;fill:rgb(100%,100%,100%);fill-opacity:1;stroke-width:2.835;stroke-linecap:butt;stroke-linejoin:round;stroke:rgb(13.729858%,12.159729%,12.548828%);stroke-opacity:1;stroke-miterlimit:4;" d="M 860.390625 428.28125 C 860.390625 663.085938 670.039062 853.476562 435.195312 853.476562 C 200.351562 853.476562 10 663.085938 10 428.28125 C 10 193.4375 200.351562 3.085938 435.195312 3.085938 C 670.039062 3.085938 860.390625 193.4375 860.390625 428.28125 " transform="matrix(0.1,0,0,-0.1,0,86)"/>
<path style=" stroke:none;fill-rule:nonzero;fill:rgb(10.112%,40.585327%,73.280334%);fill-opacity:1;" d="M 84.621094 43.167969 C 84.621094 37.59375 83.542969 32.261719 81.390625 27.171875 C 79.3125 22.253906 76.375 17.898438 72.582031 14.105469 C 68.789062 10.3125 64.433594 7.375 59.519531 5.296875 C 54.425781 3.144531 49.09375 2.066406 43.519531 2.066406 C 37.945312 2.066406 32.609375 3.144531 27.519531 5.296875 C 22.601562 7.375 18.246094 10.3125 14.457031 14.105469 C 10.660156 17.898438 7.726562 22.253906 5.644531 27.171875 C 3.492188 32.261719 2.417969 37.59375 2.417969 43.167969 C 2.417969 48.746094 3.492188 54.078125 5.644531 59.167969 C 7.726562 64.085938 10.660156 68.441406 14.457031 72.234375 C 18.246094 76.027344 22.601562 78.960938 27.519531 81.042969 C 32.609375 83.195312 37.945312 84.269531 43.519531 84.269531 C 49.09375 84.269531 54.425781 83.195312 59.519531 81.042969 C 64.433594 78.960938 68.789062 76.027344 72.582031 72.234375 C 76.375 68.441406 79.3125 64.085938 81.390625 59.167969 C 83.542969 54.078125 84.621094 48.746094 84.621094 43.167969 "/>
<path style=" stroke:none;fill-rule:nonzero;fill:rgb(100%,100%,100%);fill-opacity:1;" d="M 59.464844 42.660156 C 56.597656 43.132812 54.085938 44.449219 51.921875 46.613281 C 49.179688 49.355469 47.796875 52.652344 47.769531 56.515625 C 47.769531 56.554688 47.769531 56.59375 47.769531 56.636719 L 47.769531 71.519531 L 39.265625 71.519531 L 39.265625 56.636719 C 39.265625 56.59375 39.265625 56.554688 39.265625 56.511719 C 39.238281 52.652344 37.851562 49.351562 35.117188 46.613281 C 32.949219 44.449219 30.433594 43.128906 27.566406 42.660156 L 26.886719 50.59375 C 26.886719 50.679688 26.871094 50.769531 26.847656 50.859375 C 26.691406 51.445312 26.089844 51.792969 25.5 51.636719 C 25.28125 51.578125 25.09375 51.453125 24.957031 51.292969 L 10.484375 34.621094 C 10.253906 34.355469 10.152344 33.984375 10.25 33.617188 C 10.347656 33.25 10.632812 32.964844 10.964844 32.851562 L 31.832031 25.648438 C 32.03125 25.578125 32.257812 25.566406 32.476562 25.625 C 33.0625 25.785156 33.414062 26.386719 33.253906 26.972656 C 33.230469 27.0625 33.199219 27.144531 33.152344 27.21875 L 29.765625 34.441406 C 35.402344 35.621094 40.273438 38.894531 43.519531 43.414062 C 46.765625 38.894531 51.632812 35.621094 57.273438 34.441406 L 53.882812 27.21875 C 53.839844 27.144531 53.804688 27.0625 53.78125 26.972656 C 53.625 26.386719 53.972656 25.785156 54.5625 25.625 C 54.78125 25.566406 55.003906 25.578125 55.207031 25.648438 L 76.074219 32.851562 C 76.40625 32.964844 76.6875 33.25 76.789062 33.617188 C 76.886719 33.984375 76.78125 34.355469 76.554688 34.621094 L 62.082031 51.292969 C 61.945312 51.453125 61.757812 51.578125 61.535156 51.636719 C 60.949219 51.792969 60.34375 51.445312 60.1875 50.859375 C 60.164062 50.769531 60.152344 50.679688 60.152344 50.59375 L 59.464844 42.660156 "/>
</g>
</svg>
