<?xml version="1.0" encoding="UTF-8"?>
<svg xmlns="http://www.w3.org/2000/svg" xmlns:xlink="http://www.w3.org/1999/xlink" width="87pt" height="86pt" viewBox="0 0 87 86" version="1.1">
<g id="surface1">
<path style=" stroke:none;fill-rule:nonzero;fill:rgb(93.527222%,17.272949%,18.882751%);fill-opacity:1;" d="M 73.601562 13.085938 C 90.191406 29.695312 90.191406 56.652344 73.601562 73.257812 C 56.996094 89.84375 30.039062 89.84375 13.433594 73.257812 C -3.152344 56.652344 -3.152344 29.695312 13.433594 13.085938 C 30.039062 -3.496094 56.996094 -3.496094 73.601562 13.085938 "/>
<path style=" stroke:none;fill-rule:nonzero;fill:rgb(100%,100%,100%);fill-opacity:1;" d="M 22.089844 16.726562 L 69.960938 64.597656 C 72.082031 61.996094 73.773438 59.125 75.042969 55.988281 C 76.703125 51.886719 77.539062 47.621094 77.542969 43.171875 C 77.539062 38.722656 76.703125 34.453125 75.042969 30.355469 C 73.332031 26.117188 70.84375 22.371094 67.578125 19.105469 C 64.316406 15.84375 60.570312 13.355469 56.332031 11.640625 C 52.234375 9.980469 47.964844 9.148438 43.519531 9.148438 C 39.066406 9.148438 34.800781 9.980469 30.699219 11.640625 C 27.5625 12.914062 24.691406 14.609375 22.089844 16.726562 "/>
<path style=" stroke:none;fill-rule:nonzero;fill:rgb(100%,100%,100%);fill-opacity:1;" d="M 64.953125 69.613281 L 17.085938 21.738281 C 14.960938 24.347656 13.265625 27.21875 11.992188 30.351562 C 10.335938 34.453125 9.503906 38.71875 9.503906 43.171875 C 9.503906 47.621094 10.335938 51.886719 11.992188 55.988281 C 13.707031 60.222656 16.195312 63.96875 19.460938 67.234375 C 22.722656 70.496094 26.472656 72.988281 30.707031 74.703125 C 34.804688 76.359375 39.074219 77.191406 43.527344 77.195312 C 47.972656 77.191406 52.242188 76.359375 56.339844 74.703125 C 59.476562 73.429688 62.347656 71.734375 64.953125 69.613281 "/>
<path style=" stroke:none;fill-rule:nonzero;fill:rgb(13.729858%,12.159729%,12.548828%);fill-opacity:1;" d="M 59.828125 64.488281 L 50.054688 54.71875 L 50.054688 69.382812 L 59.828125 69.382812 L 59.828125 64.488281 "/>
<path style=" stroke:none;fill-rule:nonzero;fill:rgb(13.729858%,12.159729%,12.548828%);fill-opacity:1;" d="M 40.929688 35.570312 L 42.980469 35.570312 C 44.925781 35.570312 46.839844 36.335938 48.160156 37.78125 C 49.375 39.066406 50.054688 40.902344 50.054688 42.6875 L 50.054688 44.695312 L 59.828125 54.464844 L 59.828125 42.488281 C 59.808594 38.78125 58.578125 35.195312 56.289062 32.269531 C 53.074219 28.167969 48.195312 25.953125 42.980469 26.027344 L 32.960938 25.988281 L 32.960938 19.78125 L 28.195312 22.832031 L 40.929688 35.570312 "/>
<path style=" stroke:none;fill-rule:nonzero;fill:rgb(13.729858%,12.159729%,12.548828%);fill-opacity:1;" d="M 32.9375 37.597656 L 22.078125 26.738281 L 17.308594 29.789062 L 32.9375 41.039062 L 32.9375 37.597656 "/>
</g>
</svg>
