<?xml version="1.0" encoding="UTF-8"?>
<svg xmlns="http://www.w3.org/2000/svg" xmlns:xlink="http://www.w3.org/1999/xlink" width="87pt" height="86pt" viewBox="0 0 87 86" version="1.1">
<g id="surface1">
<path style=" stroke:none;fill-rule:nonzero;fill:rgb(93.527222%,17.272949%,18.882751%);fill-opacity:1;" d="M 86.039062 43.171875 C 86.039062 19.691406 67.003906 0.652344 43.519531 0.652344 C 20.035156 0.652344 1 19.691406 1 43.171875 C 1 66.65625 20.035156 85.691406 43.519531 85.691406 C 67.003906 85.691406 86.039062 66.65625 86.039062 43.171875 "/>
<path style=" stroke:none;fill-rule:nonzero;fill:rgb(100%,100%,100%);fill-opacity:1;" d="M 71.863281 43.171875 C 71.863281 27.515625 59.175781 14.828125 43.519531 14.828125 C 27.863281 14.828125 15.171875 27.515625 15.171875 43.171875 C 15.171875 58.828125 27.863281 71.519531 43.519531 71.519531 C 59.175781 71.519531 71.863281 58.828125 71.863281 43.171875 "/>
<path style=" stroke:none;fill-rule:nonzero;fill:rgb(13.729858%,12.159729%,12.548828%);fill-opacity:1;" d="M 47.746094 49.519531 C 47.316406 48.988281 47.058594 48.3125 47.058594 47.578125 C 47.058594 46.378906 47.742188 45.339844 48.746094 44.828125 L 50.976562 40.832031 C 51.242188 40.367188 51.734375 40.054688 52.304688 40.054688 L 61.582031 40.054688 C 62.152344 40.054688 62.648438 40.367188 62.90625 40.832031 L 65.144531 44.828125 C 66.144531 45.339844 66.832031 46.378906 66.832031 47.578125 C 66.832031 48.3125 66.570312 48.988281 66.140625 49.519531 L 65.933594 51.164062 L 65.601562 51.164062 L 65.601562 53.808594 L 67.6875 53.808594 C 68.078125 53.808594 68.390625 54.121094 68.390625 54.515625 C 68.390625 54.902344 68.078125 55.21875 67.6875 55.21875 L 46.199219 55.21875 C 45.8125 55.21875 45.496094 54.902344 45.496094 54.515625 C 45.496094 54.121094 45.8125 53.808594 46.199219 53.808594 L 48.285156 53.808594 L 48.285156 51.164062 L 47.957031 51.164062 L 47.746094 49.519531 "/>
<path style=" stroke:none;fill-rule:nonzero;fill:rgb(93.527222%,17.272949%,18.882751%);fill-opacity:1;" d="M 31.828125 55.21875 L 22.308594 55.21875 C 21.90625 55.21875 21.582031 54.890625 21.582031 54.492188 C 21.582031 54.089844 21.90625 53.761719 22.308594 53.761719 L 22.78125 53.761719 L 22.78125 50.394531 L 22.117188 50.394531 C 21.808594 50.394531 21.550781 50.144531 21.550781 49.828125 L 21.550781 30.699219 C 21.550781 29.757812 22.316406 29 23.25 29 L 40.402344 29 C 41.339844 29 42.105469 29.757812 42.105469 30.699219 L 42.105469 49.828125 C 42.105469 50.144531 41.847656 50.394531 41.535156 50.394531 L 40.875 50.394531 L 40.875 53.761719 L 41.34375 53.761719 C 41.746094 53.761719 42.074219 54.089844 42.074219 54.492188 C 42.074219 54.890625 41.746094 55.21875 41.34375 55.21875 L 31.828125 55.21875 "/>
<path style=" stroke:none;fill-rule:nonzero;fill:rgb(100%,100%,100%);fill-opacity:1;" d="M 63.242188 44.722656 C 61.207031 44.621094 59.085938 44.554688 56.941406 44.539062 C 54.796875 44.554688 52.679688 44.621094 50.644531 44.722656 L 52.117188 42.085938 C 52.285156 41.789062 52.601562 41.589844 52.964844 41.589844 L 60.921875 41.589844 C 61.28125 41.589844 61.597656 41.789062 61.765625 42.085938 L 63.242188 44.722656 "/>
<path style=" stroke:none;fill-rule:nonzero;fill:rgb(100%,100%,100%);fill-opacity:1;" d="M 50.371094 51.164062 L 55.039062 51.164062 C 55.484375 51.722656 56.167969 52.085938 56.941406 52.085938 C 57.714844 52.085938 58.398438 51.722656 58.84375 51.164062 L 63.511719 51.164062 L 63.511719 53.808594 L 50.371094 53.808594 L 50.371094 51.164062 "/>
<path style=" stroke:none;fill-rule:nonzero;fill:rgb(100%,100%,100%);fill-opacity:1;" d="M 26.65625 53.761719 L 36.996094 53.761719 L 36.996094 50.394531 L 34.230469 50.394531 C 33.832031 51.332031 32.90625 51.988281 31.828125 52 C 30.746094 51.988281 29.820312 51.332031 29.421875 50.394531 L 26.65625 50.394531 L 26.65625 53.761719 "/>
</g>
</svg>
