<?xml version="1.0" encoding="UTF-8"?>
<svg xmlns="http://www.w3.org/2000/svg" xmlns:xlink="http://www.w3.org/1999/xlink" width="87pt" height="86pt" viewBox="0 0 87 86" version="1.1">
<g id="surface1">
<path style=" stroke:none;fill-rule:nonzero;fill:rgb(93.527222%,17.272949%,18.882751%);fill-opacity:1;" d="M 86.039062 43.171875 C 86.039062 19.691406 67.003906 0.652344 43.519531 0.652344 C 20.035156 0.652344 1 19.691406 1 43.171875 C 1 66.65625 20.035156 85.691406 43.519531 85.691406 C 67.003906 85.691406 86.039062 66.65625 86.039062 43.171875 "/>
<path style=" stroke:none;fill-rule:nonzero;fill:rgb(100%,100%,100%);fill-opacity:1;" d="M 71.863281 43.171875 C 71.863281 27.515625 59.175781 14.828125 43.519531 14.828125 C 27.863281 14.828125 15.171875 27.515625 15.171875 43.171875 C 15.171875 58.828125 27.863281 71.519531 43.519531 71.519531 C 59.175781 71.519531 71.863281 58.828125 71.863281 43.171875 "/>
<path style=" stroke:none;fill-rule:nonzero;fill:rgb(13.729858%,12.159729%,12.548828%);fill-opacity:1;" d="M 62.652344 46.007812 L 24.386719 46.007812 C 22.824219 46.007812 21.550781 44.734375 21.550781 43.171875 C 21.550781 41.605469 22.824219 40.335938 24.386719 40.335938 L 62.652344 40.335938 C 64.21875 40.335938 65.488281 41.605469 65.488281 43.171875 C 65.488281 44.734375 64.21875 46.007812 62.652344 46.007812 "/>
<path style=" stroke:none;fill-rule:nonzero;fill:rgb(13.729858%,12.159729%,12.548828%);fill-opacity:1;" d="M 24.742188 37.074219 L 26.277344 37.074219 L 26.277344 33.054688 L 27.203125 33.054688 C 28.242188 33.054688 29.042969 32.796875 29.582031 32.273438 C 30.109375 31.761719 30.378906 31.023438 30.378906 30.070312 C 30.378906 29.113281 30.109375 28.390625 29.570312 27.894531 C 29.027344 27.398438 28.285156 27.15625 27.363281 27.15625 L 24.742188 27.15625 L 24.742188 37.074219 "/>
<path style=" stroke:none;fill-rule:nonzero;fill:rgb(13.729858%,12.159729%,12.548828%);fill-opacity:1;" d="M 32.089844 35.910156 C 32.429688 36.335938 32.828125 36.648438 33.296875 36.863281 C 33.753906 37.085938 34.253906 37.1875 34.777344 37.1875 C 35.335938 37.1875 35.847656 37.085938 36.316406 36.875 C 36.785156 36.664062 37.1875 36.351562 37.527344 35.925781 C 37.871094 35.511719 38.140625 34.972656 38.339844 34.332031 C 38.527344 33.695312 38.621094 32.925781 38.621094 32.058594 C 38.621094 31.21875 38.527344 30.492188 38.339844 29.871094 C 38.140625 29.246094 37.871094 28.71875 37.527344 28.289062 C 37.1875 27.878906 36.785156 27.550781 36.328125 27.339844 C 35.863281 27.128906 35.359375 27.027344 34.835938 27.027344 C 34.28125 27.027344 33.78125 27.128906 33.3125 27.339844 C 32.839844 27.550781 32.429688 27.867188 32.089844 28.28125 C 31.746094 28.703125 31.476562 29.246094 31.289062 29.886719 C 31.09375 30.523438 30.992188 31.292969 30.992188 32.15625 C 30.992188 32.996094 31.09375 33.722656 31.289062 34.34375 C 31.476562 34.972656 31.746094 35.496094 32.089844 35.910156 "/>
<path style=" stroke:none;fill-rule:nonzero;fill:rgb(13.729858%,12.159729%,12.548828%);fill-opacity:1;" d="M 39.679688 37.074219 L 44.476562 37.074219 L 44.476562 35.8125 L 41.21875 35.8125 L 41.21875 27.15625 L 39.679688 27.15625 L 39.679688 37.074219 "/>
<path style=" stroke:none;fill-rule:nonzero;fill:rgb(13.729858%,12.159729%,12.548828%);fill-opacity:1;" d="M 45.183594 37.074219 L 46.726562 37.074219 L 46.726562 27.15625 L 45.183594 27.15625 L 45.183594 37.074219 "/>
<path style=" stroke:none;fill-rule:nonzero;fill:rgb(13.729858%,12.159729%,12.548828%);fill-opacity:1;" d="M 47.660156 37.074219 L 53.523438 37.074219 L 53.523438 35.8125 L 49.378906 35.8125 L 53.453125 28.449219 L 53.453125 27.15625 L 47.785156 27.15625 L 47.785156 28.417969 L 51.644531 28.417969 L 47.660156 35.683594 L 47.660156 37.074219 "/>
<path style=" stroke:none;fill-rule:nonzero;fill:rgb(13.729858%,12.159729%,12.548828%);fill-opacity:1;" d="M 54.5 37.074219 L 59.582031 37.074219 L 59.582031 35.8125 L 56.035156 35.8125 L 56.035156 32.585938 L 59.253906 32.585938 L 59.253906 31.316406 L 56.035156 31.316406 L 56.035156 28.417969 L 59.425781 28.417969 L 59.425781 27.15625 L 54.5 27.15625 L 54.5 37.074219 "/>
<path style=" stroke:none;fill-rule:nonzero;fill:rgb(13.729858%,12.159729%,12.548828%);fill-opacity:1;" d="M 60.753906 37.074219 L 62.289062 37.074219 L 62.289062 27.15625 L 60.753906 27.15625 L 60.753906 37.074219 "/>
<path style=" stroke:none;fill-rule:nonzero;fill:rgb(13.729858%,12.159729%,12.548828%);fill-opacity:1;" d="M 25.804688 59.183594 L 27.339844 59.183594 L 27.339844 55.160156 L 28.265625 55.160156 C 29.300781 55.160156 30.097656 54.90625 30.640625 54.378906 C 31.167969 53.867188 31.4375 53.132812 31.4375 52.175781 C 31.4375 51.222656 31.167969 50.5 30.628906 50.003906 C 30.082031 49.503906 29.34375 49.265625 28.421875 49.265625 L 25.804688 49.265625 L 25.804688 59.183594 "/>
<path style=" stroke:none;fill-rule:nonzero;fill:rgb(13.729858%,12.159729%,12.548828%);fill-opacity:1;" d="M 33.144531 58.019531 C 33.480469 58.445312 33.882812 58.757812 34.347656 58.96875 C 34.804688 59.195312 35.304688 59.296875 35.828125 59.296875 C 36.382812 59.296875 36.898438 59.195312 37.367188 58.984375 C 37.835938 58.773438 38.234375 58.457031 38.578125 58.03125 C 38.917969 57.621094 39.1875 57.082031 39.386719 56.4375 C 39.570312 55.800781 39.671875 55.035156 39.671875 54.167969 C 39.671875 53.328125 39.570312 52.601562 39.386719 51.976562 C 39.1875 51.351562 38.917969 50.828125 38.578125 50.398438 C 38.234375 49.988281 37.835938 49.660156 37.382812 49.449219 C 36.914062 49.234375 36.414062 49.136719 35.886719 49.136719 C 35.332031 49.136719 34.835938 49.234375 34.363281 49.449219 C 33.894531 49.660156 33.480469 49.972656 33.144531 50.386719 C 32.800781 50.8125 32.53125 51.351562 32.34375 51.992188 C 32.148438 52.628906 32.046875 53.402344 32.046875 54.265625 C 32.046875 55.101562 32.148438 55.832031 32.34375 56.453125 C 32.53125 57.082031 32.800781 57.605469 33.144531 58.019531 "/>
<path style=" stroke:none;fill-rule:nonzero;fill:rgb(13.729858%,12.159729%,12.548828%);fill-opacity:1;" d="M 40.726562 59.183594 L 45.515625 59.183594 L 45.515625 57.917969 L 42.261719 57.917969 L 42.261719 49.265625 L 40.726562 49.265625 L 40.726562 59.183594 "/>
<path style=" stroke:none;fill-rule:nonzero;fill:rgb(13.729858%,12.159729%,12.548828%);fill-opacity:1;" d="M 46.226562 59.183594 L 47.765625 59.183594 L 47.765625 49.265625 L 46.226562 49.265625 L 46.226562 59.183594 "/>
<path style=" stroke:none;fill-rule:nonzero;fill:rgb(13.729858%,12.159729%,12.548828%);fill-opacity:1;" d="M 55.339844 58.96875 L 55.28125 57.523438 C 55.039062 57.675781 54.78125 57.792969 54.484375 57.875 C 54.183594 57.960938 53.84375 58.003906 53.460938 58.003906 C 52.535156 58.003906 51.808594 57.675781 51.269531 57.007812 C 50.730469 56.34375 50.460938 55.371094 50.460938 54.082031 C 50.460938 53.453125 50.546875 52.914062 50.703125 52.445312 C 50.855469 51.992188 51.085938 51.605469 51.355469 51.308594 C 51.625 51.011719 51.941406 50.796875 52.296875 50.644531 C 52.648438 50.5 53.03125 50.425781 53.417969 50.425781 C 53.828125 50.425781 54.183594 50.484375 54.484375 50.585938 C 54.78125 50.699219 55.050781 50.828125 55.28125 50.953125 L 55.339844 49.519531 C 55.125 49.417969 54.839844 49.332031 54.484375 49.25 C 54.113281 49.175781 53.71875 49.136719 53.289062 49.136719 C 52.59375 49.136719 51.980469 49.265625 51.425781 49.503906 C 50.871094 49.746094 50.414062 50.101562 50.03125 50.542969 C 49.648438 50.996094 49.351562 51.535156 49.148438 52.148438 C 48.9375 52.773438 48.835938 53.453125 48.835938 54.210938 C 48.835938 54.90625 48.9375 55.574219 49.121094 56.183594 C 49.308594 56.792969 49.578125 57.335938 49.949219 57.804688 C 50.316406 58.273438 50.785156 58.632812 51.355469 58.902344 C 51.925781 59.171875 52.59375 59.296875 53.359375 59.296875 C 53.730469 59.296875 54.085938 59.269531 54.441406 59.210938 C 54.796875 59.144531 55.097656 59.070312 55.339844 58.96875 "/>
<path style=" stroke:none;fill-rule:nonzero;fill:rgb(13.729858%,12.159729%,12.548828%);fill-opacity:1;" d="M 56.15625 59.183594 L 61.230469 59.183594 L 61.230469 57.917969 L 57.691406 57.917969 L 57.691406 54.691406 L 60.902344 54.691406 L 60.902344 53.425781 L 57.691406 53.425781 L 57.691406 50.527344 L 61.078125 50.527344 L 61.078125 49.265625 L 56.15625 49.265625 L 56.15625 59.183594 "/>
<path style=" stroke:none;fill-rule:nonzero;fill:rgb(100%,100%,100%);fill-opacity:1;" d="M 26.277344 31.847656 L 26.277344 28.363281 L 26.976562 28.363281 C 27.589844 28.363281 28.046875 28.507812 28.359375 28.777344 C 28.65625 29.0625 28.8125 29.515625 28.8125 30.125 C 28.8125 30.679688 28.671875 31.089844 28.386719 31.390625 C 28.101562 31.6875 27.632812 31.847656 26.960938 31.847656 L 26.277344 31.847656 "/>
<path style=" stroke:none;fill-rule:nonzero;fill:rgb(100%,100%,100%);fill-opacity:1;" d="M 33.15625 34.957031 C 32.773438 34.277344 32.585938 33.339844 32.585938 32.15625 C 32.585938 31.433594 32.644531 30.820312 32.773438 30.324219 C 32.882812 29.828125 33.042969 29.414062 33.253906 29.105469 C 33.453125 28.804688 33.699219 28.574219 33.96875 28.433594 C 34.238281 28.304688 34.535156 28.234375 34.835938 28.234375 C 35.546875 28.234375 36.089844 28.574219 36.472656 29.257812 C 36.84375 29.941406 37.027344 30.878906 37.027344 32.058594 C 37.027344 32.78125 36.96875 33.394531 36.859375 33.890625 C 36.730469 34.390625 36.574219 34.800781 36.371094 35.101562 C 36.160156 35.414062 35.917969 35.640625 35.648438 35.769531 C 35.375 35.910156 35.078125 35.980469 34.777344 35.980469 C 34.070312 35.980469 33.527344 35.640625 33.15625 34.957031 "/>
<path style=" stroke:none;fill-rule:nonzero;fill:rgb(100%,100%,100%);fill-opacity:1;" d="M 27.339844 53.957031 L 27.339844 50.46875 L 28.039062 50.46875 C 28.648438 50.46875 29.105469 50.613281 29.417969 50.882812 C 29.714844 51.167969 29.871094 51.621094 29.871094 52.234375 C 29.871094 52.789062 29.730469 53.199219 29.445312 53.496094 C 29.160156 53.796875 28.691406 53.957031 28.023438 53.957031 L 27.339844 53.957031 "/>
<path style=" stroke:none;fill-rule:nonzero;fill:rgb(100%,100%,100%);fill-opacity:1;" d="M 34.210938 57.066406 C 33.824219 56.386719 33.640625 55.445312 33.640625 54.265625 C 33.640625 53.539062 33.699219 52.929688 33.824219 52.429688 C 33.9375 51.933594 34.09375 51.523438 34.308594 51.210938 C 34.507812 50.914062 34.75 50.683594 35.019531 50.542969 C 35.289062 50.410156 35.589844 50.34375 35.886719 50.34375 C 36.597656 50.34375 37.140625 50.683594 37.519531 51.367188 C 37.890625 52.046875 38.078125 52.984375 38.078125 54.167969 C 38.078125 54.890625 38.023438 55.503906 37.90625 56 C 37.78125 56.496094 37.621094 56.910156 37.421875 57.210938 C 37.210938 57.523438 36.96875 57.75 36.695312 57.875 C 36.425781 58.019531 36.128906 58.089844 35.828125 58.089844 C 35.121094 58.089844 34.582031 57.75 34.210938 57.066406 "/>
</g>
</svg>
