<?xml version="1.0" encoding="UTF-8"?>
<svg xmlns="http://www.w3.org/2000/svg" xmlns:xlink="http://www.w3.org/1999/xlink" width="86pt" height="86pt" viewBox="0 0 86 86" version="1.1">
<g id="surface1">
<path style=" stroke:none;fill-rule:nonzero;fill:rgb(56.864929%,56.079102%,56.274414%);fill-opacity:1;" d="M 54.878906 1.769531 C 44.25 -1.367188 33.675781 -0.414062 23.777344 4.574219 C 13.886719 9.550781 6.8125 17.476562 3 27.878906 C -0.816406 38.285156 -0.554688 48.894531 3.773438 59.097656 C 8.09375 69.292969 15.542969 76.863281 25.671875 81.351562 C 49.25 91.796875 76.621094 79 83.722656 54.210938 C 90.148438 31.773438 77.265625 8.351562 54.878906 1.769531 "/>
<path style=" stroke:none;fill-rule:nonzero;fill:rgb(100%,100%,100%);fill-opacity:1;" d="M 19.929688 20.257812 C 19.890625 20.410156 19.824219 20.578125 19.71875 20.769531 C 19.617188 20.957031 19.496094 21.121094 19.359375 21.28125 C 19.039062 21.660156 18.675781 21.933594 18.289062 22.109375 C 17.898438 22.285156 17.492188 22.347656 17.078125 22.3125 C 16.648438 22.289062 16.214844 22.160156 15.753906 21.9375 C 15.304688 21.726562 14.84375 21.429688 14.386719 21.046875 C 13.964844 20.691406 13.617188 20.304688 13.375 19.894531 C 13.125 19.476562 12.96875 19.070312 12.894531 18.652344 C 12.828125 18.242188 12.847656 17.847656 12.945312 17.449219 C 13.050781 17.054688 13.25 16.683594 13.535156 16.347656 C 13.796875 16.035156 14.109375 15.753906 14.445312 15.511719 C 14.777344 15.292969 15.136719 15.113281 15.488281 14.980469 L 14.417969 14.023438 C 14.148438 14.148438 13.839844 14.332031 13.519531 14.585938 C 13.199219 14.855469 12.871094 15.175781 12.550781 15.550781 C 12.085938 16.105469 11.773438 16.679688 11.589844 17.269531 C 11.398438 17.871094 11.355469 18.46875 11.433594 19.058594 C 11.515625 19.644531 11.734375 20.222656 12.078125 20.785156 C 12.414062 21.351562 12.863281 21.882812 13.441406 22.367188 C 13.972656 22.816406 14.546875 23.167969 15.128906 23.421875 C 15.726562 23.6875 16.332031 23.808594 16.929688 23.808594 C 17.535156 23.816406 18.132812 23.667969 18.710938 23.398438 C 19.292969 23.125 19.839844 22.667969 20.34375 22.074219 C 20.699219 21.652344 20.976562 21.234375 21.179688 20.828125 C 21.382812 20.425781 21.535156 20.066406 21.613281 19.777344 L 17.703125 16.480469 L 15.742188 18.804688 L 16.683594 19.601562 L 17.710938 18.386719 L 19.929688 20.257812 "/>
<path style=" stroke:none;fill-rule:nonzero;fill:rgb(100%,100%,100%);fill-opacity:1;" d="M 23.621094 18.746094 L 27.847656 15.9375 L 27.148438 14.882812 L 24.203125 16.84375 L 22.417969 14.15625 L 25.09375 12.378906 L 24.394531 11.324219 L 21.714844 13.101562 L 20.109375 10.6875 L 22.925781 8.816406 L 22.230469 7.761719 L 18.132812 10.484375 L 23.621094 18.746094 "/>
<path style=" stroke:none;fill-rule:nonzero;fill:rgb(100%,100%,100%);fill-opacity:1;" d="M 29.664062 14.902344 L 31.003906 14.425781 L 28.347656 6.953125 L 28.375 6.945312 L 34.339844 13.242188 L 36.09375 12.617188 L 32.769531 3.273438 L 31.429688 3.746094 L 34.105469 11.277344 L 34.082031 11.285156 L 28.097656 4.933594 L 26.34375 5.554688 L 29.664062 14.902344 "/>
<path style=" stroke:none;fill-rule:nonzero;fill:rgb(100%,100%,100%);fill-opacity:1;" d="M 38.394531 12.261719 L 43.453125 11.953125 L 43.375 10.691406 L 39.84375 10.90625 L 39.648438 7.6875 L 42.855469 7.492188 L 42.773438 6.222656 L 39.570312 6.421875 L 39.394531 3.527344 L 42.769531 3.324219 L 42.6875 2.0625 L 37.785156 2.363281 L 38.394531 12.261719 "/>
<path style=" stroke:none;fill-rule:nonzero;fill:rgb(100%,100%,100%);fill-opacity:1;" d="M 45.539062 12.03125 L 47.042969 12.328125 L 47.894531 8.035156 L 48.367188 8.128906 C 48.773438 8.207031 49.066406 8.339844 49.257812 8.539062 C 49.433594 8.730469 49.566406 9.046875 49.605469 9.476562 L 50.015625 12.917969 L 51.617188 13.234375 L 51.058594 9.167969 C 51.007812 8.785156 50.902344 8.5 50.765625 8.3125 C 50.613281 8.140625 50.421875 8 50.195312 7.910156 L 50.199219 7.882812 C 50.867188 7.882812 51.394531 7.714844 51.796875 7.359375 C 52.199219 7.003906 52.453125 6.53125 52.566406 5.949219 C 52.65625 5.5 52.660156 5.109375 52.585938 4.757812 C 52.507812 4.414062 52.363281 4.109375 52.15625 3.847656 C 51.949219 3.59375 51.683594 3.378906 51.351562 3.214844 C 51.03125 3.046875 50.644531 2.929688 50.226562 2.847656 L 47.464844 2.300781 L 45.539062 12.03125 "/>
<path style=" stroke:none;fill-rule:nonzero;fill:rgb(100%,100%,100%);fill-opacity:1;" d="M 53.457031 13.890625 L 58.066406 16.007812 L 58.59375 14.855469 L 55.378906 13.382812 L 56.722656 10.449219 L 59.644531 11.789062 L 60.171875 10.636719 L 57.25 9.296875 L 58.460938 6.664062 L 61.539062 8.074219 L 62.0625 6.925781 L 57.59375 4.875 L 53.457031 13.890625 "/>
<path style=" stroke:none;fill-rule:nonzero;fill:rgb(100%,100%,100%);fill-opacity:1;" d="M 59.835938 17.101562 L 63.589844 20.078125 L 64.375 19.085938 L 61.824219 17.066406 L 67.195312 10.277344 L 65.992188 9.328125 L 59.835938 17.101562 "/>
<path style=" stroke:none;fill-rule:nonzero;fill:rgb(100%,100%,100%);fill-opacity:1;" d="M 64.738281 21.21875 L 67.785156 24.914062 L 68.757812 24.113281 L 66.691406 21.597656 L 73.367188 16.09375 L 72.390625 14.910156 L 64.738281 21.21875 "/>
<path style=" stroke:none;fill-rule:nonzero;fill:rgb(100%,100%,100%);fill-opacity:1;" d="M 50.851562 15.378906 C 65.773438 19.773438 74.359375 35.382812 70.078125 50.335938 C 65.34375 66.851562 47.105469 75.386719 31.386719 68.421875 C 24.640625 65.433594 19.675781 60.390625 16.789062 53.59375 C 13.910156 46.789062 13.738281 39.714844 16.277344 32.785156 C 18.824219 25.851562 23.53125 20.570312 30.128906 17.246094 C 36.722656 13.929688 43.773438 13.292969 50.851562 15.378906 "/>
<path style=" stroke:none;fill-rule:nonzero;fill:rgb(56.864929%,56.079102%,56.274414%);fill-opacity:1;" d="M 48.121094 6.878906 L 48.734375 3.785156 L 49.585938 3.949219 C 50.101562 4.054688 50.5 4.246094 50.761719 4.53125 C 51.011719 4.8125 51.085938 5.234375 50.980469 5.777344 C 50.890625 6.238281 50.667969 6.601562 50.332031 6.835938 C 49.980469 7.085938 49.53125 7.15625 48.960938 7.046875 L 48.121094 6.878906 "/>
<path style=" stroke:none;fill-rule:nonzero;fill:rgb(13.729858%,12.159729%,12.548828%);fill-opacity:1;" d="M 40.246094 28.609375 L 26.984375 28.609375 L 26.984375 43.238281 L 30.886719 44.167969 C 30.914062 44.082031 30.957031 43.949219 30.992188 43.863281 C 31.046875 43.730469 31.121094 43.601562 31.199219 43.484375 C 31.453125 43.113281 31.78125 42.792969 32.167969 42.558594 C 32.660156 42.257812 33.222656 42.09375 33.800781 42.097656 C 34.472656 42.101562 35.128906 42.324219 35.632812 42.75 C 36.089844 43.132812 36.421875 43.722656 36.644531 44.265625 C 36.835938 44.71875 36.984375 45.1875 37.085938 45.671875 C 37.210938 46.253906 37.277344 46.851562 37.277344 47.460938 C 37.28125 48.015625 37.230469 48.582031 37.125 49.128906 C 37.027344 49.679688 36.863281 50.230469 36.613281 50.730469 C 36.359375 51.234375 36.011719 51.699219 35.558594 52.035156 C 35.050781 52.40625 34.441406 52.613281 33.8125 52.628906 C 33.191406 52.640625 32.585938 52.460938 32.0625 52.121094 C 31.582031 51.800781 31.199219 51.363281 30.960938 50.839844 C 30.898438 50.699219 30.820312 50.488281 30.769531 50.34375 L 26.984375 51.441406 C 27.015625 51.59375 27.058594 51.808594 27.09375 51.957031 C 27.222656 52.410156 27.46875 52.875 27.722656 53.273438 C 28.136719 53.914062 28.636719 54.515625 29.21875 55.003906 C 29.828125 55.515625 30.535156 55.902344 31.273438 56.179688 C 32.144531 56.507812 33.074219 56.683594 33.996094 56.652344 C 34.785156 56.628906 35.566406 56.449219 36.292969 56.160156 C 37.03125 55.878906 37.726562 55.484375 38.332031 54.972656 C 38.984375 54.429688 39.519531 53.773438 39.9375 53.039062 C 40.386719 52.238281 40.707031 51.316406 40.929688 50.429688 C 41.175781 49.457031 41.34375 48.433594 41.355469 47.429688 C 41.367188 46.496094 41.226562 45.515625 41.035156 44.59375 C 40.84375 43.679688 40.558594 42.703125 40.128906 41.875 C 39.71875 41.082031 39.167969 40.378906 38.503906 39.789062 C 37.84375 39.203125 37.082031 38.742188 36.253906 38.429688 C 35.457031 38.128906 34.601562 37.972656 33.746094 37.972656 C 32.9375 37.972656 32.121094 38.113281 31.367188 38.433594 C 31.285156 38.476562 31.144531 38.539062 31.058594 38.578125 L 31.058594 32.382812 L 40.246094 32.382812 L 40.246094 28.609375 "/>
<path style=" stroke:none;fill-rule:nonzero;fill:rgb(13.729858%,12.159729%,12.548828%);fill-opacity:1;" d="M 17.796875 55.6875 C 18.027344 56.128906 18.265625 56.558594 18.515625 56.980469 L 30.652344 44.84375 L 29.03125 44.453125 L 17.796875 55.6875 "/>
<path style=" stroke:none;fill-rule:nonzero;fill:rgb(13.729858%,12.159729%,12.548828%);fill-opacity:1;" d="M 19.121094 57.972656 C 19.382812 58.382812 19.65625 58.78125 19.933594 59.171875 L 26.550781 52.554688 C 26.492188 52.414062 26.449219 52.277344 26.414062 52.144531 C 26.386719 52.050781 26.355469 51.90625 26.316406 51.703125 C 26.304688 51.644531 26.292969 51.605469 26.289062 51.585938 L 26.160156 50.945312 L 28.980469 50.125 L 35.484375 43.621094 C 35.386719 43.492188 35.28125 43.382812 35.175781 43.289062 C 34.90625 43.0625 34.59375 42.914062 34.25 42.847656 L 19.121094 57.972656 "/>
<path style=" stroke:none;fill-rule:nonzero;fill:rgb(13.729858%,12.159729%,12.548828%);fill-opacity:1;" d="M 36.472656 46.246094 C 36.445312 46.101562 36.421875 45.960938 36.390625 45.820312 C 36.308594 45.429688 36.195312 45.042969 36.042969 44.664062 L 31.21875 49.488281 L 31.4375 50.105469 C 31.515625 50.316406 31.570312 50.464844 31.605469 50.546875 C 31.664062 50.671875 31.734375 50.792969 31.808594 50.90625 L 36.472656 46.246094 "/>
<path style=" stroke:none;fill-rule:nonzero;fill:rgb(13.729858%,12.159729%,12.548828%);fill-opacity:1;" d="M 34.535156 51.789062 L 36.042969 50.28125 C 36.207031 49.914062 36.339844 49.488281 36.425781 49 C 36.507812 48.585938 36.550781 48.167969 36.566406 47.75 L 32.660156 51.652344 C 33 51.832031 33.363281 51.921875 33.746094 51.921875 C 33.765625 51.921875 33.78125 51.921875 33.796875 51.921875 C 34.054688 51.914062 34.300781 51.871094 34.535156 51.789062 "/>
<path style=" stroke:none;fill-rule:nonzero;fill:rgb(13.729858%,12.159729%,12.548828%);fill-opacity:1;" d="M 24.128906 63.796875 C 24.488281 64.109375 24.855469 64.410156 25.226562 64.707031 L 32.660156 57.277344 C 32.128906 57.195312 31.597656 57.054688 31.066406 56.859375 L 24.128906 63.796875 "/>
<path style=" stroke:none;fill-rule:nonzero;fill:rgb(13.729858%,12.159729%,12.548828%);fill-opacity:1;" d="M 26.144531 65.394531 C 26.535156 65.671875 26.929688 65.945312 27.339844 66.207031 L 36.84375 56.703125 C 36.746094 56.742188 36.648438 56.78125 36.550781 56.824219 C 35.753906 57.132812 34.964844 57.308594 34.183594 57.351562 L 26.144531 65.394531 "/>
<path style=" stroke:none;fill-rule:nonzero;fill:rgb(13.729858%,12.159729%,12.548828%);fill-opacity:1;" d="M 51.277344 28.3125 C 50.753906 28.3125 50.195312 28.429688 49.695312 28.570312 C 48.398438 28.933594 47.289062 29.824219 46.488281 30.898438 C 45.808594 31.804688 45.328125 32.90625 44.992188 33.976562 C 44.671875 34.980469 44.4375 36.066406 44.257812 37.097656 C 44.054688 38.273438 43.898438 39.503906 43.847656 40.695312 C 43.796875 41.859375 43.851562 43.15625 43.933594 44.3125 C 44.019531 45.484375 44.140625 46.734375 44.324219 47.898438 C 44.535156 49.234375 44.859375 50.578125 45.328125 51.839844 C 45.816406 53.164062 46.585938 54.621094 47.695312 55.496094 C 48.722656 56.304688 50.015625 56.703125 51.320312 56.652344 C 52.707031 56.609375 54.023438 56.058594 55.039062 55.121094 C 55.949219 54.289062 56.609375 53.039062 57.066406 51.886719 C 57.570312 50.605469 57.921875 49.234375 58.167969 47.878906 C 58.382812 46.695312 58.53125 45.503906 58.617188 44.296875 C 58.703125 43.015625 58.714844 41.722656 58.671875 40.441406 C 58.636719 39.328125 58.550781 38.1875 58.386719 37.085938 C 58.226562 36.015625 57.988281 34.949219 57.648438 33.921875 C 57.292969 32.855469 56.796875 31.777344 56.117188 30.878906 C 55.335938 29.851562 54.28125 28.976562 53.039062 28.601562 C 52.476562 28.433594 51.867188 28.3125 51.277344 28.3125 "/>
<path style=" stroke:none;fill-rule:nonzero;fill:rgb(13.729858%,12.159729%,12.548828%);fill-opacity:1;" d="M 20.621094 60.089844 C 20.910156 60.460938 21.214844 60.828125 21.527344 61.191406 L 27.957031 54.761719 C 27.664062 54.429688 27.386719 54.0625 27.128906 53.65625 C 27.117188 53.644531 27.105469 53.625 27.097656 53.609375 L 20.621094 60.089844 "/>
<path style=" stroke:none;fill-rule:nonzero;fill:rgb(13.729858%,12.159729%,12.548828%);fill-opacity:1;" d="M 22.285156 62.023438 C 22.613281 62.371094 22.949219 62.707031 23.292969 63.03125 L 29.960938 56.363281 C 29.527344 56.125 29.128906 55.855469 28.765625 55.546875 L 22.285156 62.023438 "/>
<path style=" stroke:none;fill-rule:nonzero;fill:rgb(13.729858%,12.159729%,12.548828%);fill-opacity:1;" d="M 28.328125 66.816406 C 28.753906 67.066406 29.179688 67.300781 29.621094 67.53125 L 44.773438 52.375 C 44.738281 52.28125 44.699219 52.1875 44.660156 52.089844 C 44.515625 51.695312 44.382812 51.296875 44.261719 50.882812 L 28.328125 66.816406 "/>
<path style=" stroke:none;fill-rule:nonzero;fill:rgb(13.729858%,12.159729%,12.548828%);fill-opacity:1;" d="M 57.332031 18.160156 C 56.910156 17.910156 56.484375 17.667969 56.046875 17.4375 L 40.957031 32.53125 L 40.957031 33.089844 L 40.394531 33.089844 L 35.914062 37.574219 C 36.109375 37.632812 36.308594 37.695312 36.503906 37.769531 C 36.792969 37.878906 37.074219 38.003906 37.347656 38.140625 L 57.332031 18.160156 "/>
<path style=" stroke:none;fill-rule:nonzero;fill:rgb(13.729858%,12.159729%,12.548828%);fill-opacity:1;" d="M 59.511719 19.589844 C 59.121094 19.308594 58.726562 19.035156 58.324219 18.773438 L 49.070312 28.027344 C 49.214844 27.972656 49.355469 27.929688 49.503906 27.886719 C 50.175781 27.699219 50.765625 27.605469 51.277344 27.605469 C 51.347656 27.605469 51.421875 27.605469 51.492188 27.609375 L 59.511719 19.589844 "/>
<path style=" stroke:none;fill-rule:nonzero;fill:rgb(13.729858%,12.159729%,12.548828%);fill-opacity:1;" d="M 61.519531 21.195312 C 61.164062 20.882812 60.796875 20.578125 60.425781 20.28125 L 52.882812 27.824219 C 53.003906 27.851562 53.125 27.890625 53.246094 27.925781 C 53.621094 28.039062 53.984375 28.1875 54.339844 28.378906 L 61.519531 21.195312 "/>
<path style=" stroke:none;fill-rule:nonzero;fill:rgb(13.729858%,12.159729%,12.548828%);fill-opacity:1;" d="M 67.890625 29.261719 C 67.660156 28.824219 67.421875 28.398438 67.167969 27.976562 L 58.953125 36.191406 C 59.003906 36.449219 59.046875 36.714844 59.085938 36.984375 C 59.132812 37.292969 59.175781 37.609375 59.210938 37.941406 L 67.890625 29.261719 "/>
<path style=" stroke:none;fill-rule:nonzero;fill:rgb(13.729858%,12.159729%,12.548828%);fill-opacity:1;" d="M 66.550781 26.988281 C 66.289062 26.589844 66.015625 26.195312 65.730469 25.804688 L 58.199219 33.339844 C 58.238281 33.457031 58.28125 33.578125 58.320312 33.699219 C 58.445312 34.082031 58.558594 34.472656 58.664062 34.878906 L 66.550781 26.988281 "/>
<path style=" stroke:none;fill-rule:nonzero;fill:rgb(13.729858%,12.159729%,12.548828%);fill-opacity:1;" d="M 65.035156 24.894531 C 64.746094 24.523438 64.441406 24.15625 64.125 23.800781 L 57.007812 30.917969 C 57.273438 31.308594 57.507812 31.738281 57.730469 32.207031 L 65.035156 24.894531 "/>
<path style=" stroke:none;fill-rule:nonzero;fill:rgb(13.729858%,12.159729%,12.548828%);fill-opacity:1;" d="M 63.359375 22.960938 C 63.03125 22.617188 62.699219 22.285156 62.355469 21.960938 L 55.296875 29.015625 C 55.65625 29.300781 55.996094 29.628906 56.316406 30.003906 L 63.359375 22.960938 "/>
<path style=" stroke:none;fill-rule:nonzero;fill:rgb(13.729858%,12.159729%,12.548828%);fill-opacity:1;" d="M 43.925781 35.179688 C 44.046875 34.679688 44.175781 34.207031 44.316406 33.765625 C 44.496094 33.191406 44.699219 32.664062 44.921875 32.171875 L 38.34375 38.753906 C 38.5625 38.910156 38.773438 39.078125 38.976562 39.261719 C 39.128906 39.398438 39.277344 39.539062 39.417969 39.6875 L 43.925781 35.179688 "/>
<path style=" stroke:none;fill-rule:nonzero;fill:rgb(13.729858%,12.159729%,12.548828%);fill-opacity:1;" d="M 43.21875 39.496094 C 43.285156 38.761719 43.386719 37.992188 43.519531 37.1875 L 40.152344 40.558594 C 40.375 40.871094 40.574219 41.203125 40.753906 41.546875 C 40.800781 41.636719 40.847656 41.726562 40.890625 41.824219 L 43.21875 39.496094 "/>
<path style=" stroke:none;fill-rule:nonzero;fill:rgb(13.729858%,12.159729%,12.548828%);fill-opacity:1;" d="M 43.15625 43.164062 C 43.132812 42.636719 43.121094 42.132812 43.121094 41.65625 C 43.121094 41.496094 43.121094 41.34375 43.125 41.191406 L 41.34375 42.972656 C 41.488281 43.425781 41.617188 43.921875 41.730469 44.449219 C 41.738281 44.488281 41.75 44.527344 41.757812 44.570312 L 43.15625 43.164062 "/>
<path style=" stroke:none;fill-rule:nonzero;fill:rgb(13.729858%,12.159729%,12.548828%);fill-opacity:1;" d="M 41.980469 45.945312 C 42.035156 46.4375 42.066406 46.902344 42.066406 47.335938 C 42.066406 47.367188 42.066406 47.40625 42.066406 47.441406 C 42.0625 47.585938 42.058594 47.730469 42.050781 47.882812 L 43.421875 46.511719 C 43.359375 45.941406 43.300781 45.328125 43.25 44.675781 L 41.980469 45.945312 "/>
<path style=" stroke:none;fill-rule:nonzero;fill:rgb(13.729858%,12.159729%,12.548828%);fill-opacity:1;" d="M 43.609375 47.925781 L 41.816406 49.71875 C 41.757812 50.007812 41.695312 50.304688 41.617188 50.605469 C 41.429688 51.34375 41.207031 52.007812 40.949219 52.597656 L 43.933594 49.613281 C 43.816406 49.097656 43.710938 48.558594 43.625 48.011719 C 43.621094 47.980469 43.617188 47.953125 43.609375 47.925781 "/>
<path style=" stroke:none;fill-rule:nonzero;fill:rgb(100%,100%,100%);fill-opacity:1;" d="M 51.304688 32.390625 C 51.621094 32.378906 51.933594 32.449219 52.210938 32.597656 C 52.484375 32.742188 52.703125 33 52.871094 33.25 C 53.140625 33.671875 53.332031 34.273438 53.460938 34.761719 C 53.675781 35.589844 53.84375 36.441406 53.972656 37.292969 C 54.101562 38.167969 54.199219 39.058594 54.261719 39.945312 C 54.320312 40.855469 54.355469 41.765625 54.351562 42.679688 C 54.347656 43.707031 54.300781 44.738281 54.210938 45.765625 C 54.121094 46.796875 53.972656 47.871094 53.75 48.878906 C 53.597656 49.578125 53.386719 50.289062 53.117188 50.953125 C 52.976562 51.292969 52.796875 51.65625 52.578125 51.957031 C 52.433594 52.160156 52.253906 52.355469 52.039062 52.5 C 51.8125 52.644531 51.546875 52.734375 51.269531 52.75 C 50.949219 52.769531 50.617188 52.695312 50.347656 52.503906 C 50.15625 52.375 49.980469 52.160156 49.847656 51.964844 C 49.644531 51.648438 49.464844 51.308594 49.324219 50.957031 C 49.046875 50.308594 48.863281 49.5625 48.730469 48.871094 C 48.550781 47.890625 48.429688 46.707031 48.351562 45.714844 C 48.277344 44.738281 48.203125 43.605469 48.203125 42.628906 C 48.203125 41.730469 48.257812 40.8125 48.351562 39.910156 C 48.441406 39.019531 48.570312 38.121094 48.726562 37.234375 C 48.867188 36.429688 49.046875 35.585938 49.261719 34.796875 C 49.402344 34.285156 49.617188 33.671875 49.914062 33.238281 C 50.085938 32.992188 50.308594 32.746094 50.574219 32.605469 C 50.796875 32.488281 51.046875 32.402344 51.304688 32.390625 "/>
<path style=" stroke:none;fill-rule:nonzero;fill:rgb(13.729858%,12.159729%,12.548828%);fill-opacity:1;" d="M 49.285156 47.863281 L 53.628906 43.523438 C 53.636719 43.242188 53.640625 42.960938 53.644531 42.679688 C 53.644531 42.621094 53.644531 42.5625 53.644531 42.503906 C 53.644531 42.179688 53.636719 41.855469 53.628906 41.515625 L 49.089844 46.054688 C 49.148438 46.71875 49.210938 47.320312 49.285156 47.863281 "/>
<path style=" stroke:none;fill-rule:nonzero;fill:rgb(13.729858%,12.159729%,12.548828%);fill-opacity:1;" d="M 51.199219 33.117188 L 50.277344 34.039062 C 50.15625 34.296875 50.046875 34.609375 49.945312 34.984375 C 49.792969 35.527344 49.65625 36.128906 49.527344 36.792969 L 52.421875 33.902344 C 52.375 33.796875 52.324219 33.710938 52.277344 33.636719 C 52.144531 33.433594 52.011719 33.296875 51.875 33.222656 C 51.71875 33.136719 51.550781 33.09375 51.378906 33.09375 C 51.363281 33.09375 51.347656 33.097656 51.332031 33.097656 C 51.292969 33.097656 51.246094 33.105469 51.199219 33.117188 "/>
<path style=" stroke:none;fill-rule:nonzero;fill:rgb(13.729858%,12.159729%,12.548828%);fill-opacity:1;" d="M 52.820312 35.105469 L 49.207031 38.71875 C 49.148438 39.152344 49.097656 39.570312 49.054688 39.980469 C 49.019531 40.316406 48.996094 40.644531 48.972656 40.960938 L 53.167969 36.761719 C 53.070312 36.195312 52.953125 35.644531 52.820312 35.105469 "/>
<path style=" stroke:none;fill-rule:nonzero;fill:rgb(13.729858%,12.159729%,12.548828%);fill-opacity:1;" d="M 53.375 38.160156 L 48.914062 42.625 C 48.914062 42.628906 48.914062 42.628906 48.914062 42.628906 C 48.914062 43.167969 48.933594 43.8125 48.980469 44.566406 L 53.554688 39.988281 C 53.515625 39.378906 53.457031 38.769531 53.375 38.160156 "/>
</g>
</svg>
