<?xml version="1.0" encoding="UTF-8"?>
<svg xmlns="http://www.w3.org/2000/svg" xmlns:xlink="http://www.w3.org/1999/xlink" width="86pt" height="86pt" viewBox="0 0 86 86" version="1.1">
<g id="surface1">
<path style=" stroke:none;fill-rule:nonzero;fill:rgb(56.864929%,56.079102%,56.274414%);fill-opacity:1;" d="M 54.992188 2.140625 C 44.367188 -0.996094 33.792969 -0.0429688 23.894531 4.945312 C 14 9.921875 6.933594 17.847656 3.117188 28.25 C -0.703125 38.65625 -0.4375 49.269531 3.886719 59.46875 C 8.210938 69.664062 15.660156 77.234375 25.785156 81.726562 C 49.367188 92.167969 76.738281 79.371094 83.835938 54.582031 C 90.261719 32.144531 77.386719 8.722656 54.992188 2.140625 "/>
<path style=" stroke:none;fill-rule:nonzero;fill:rgb(100%,100%,100%);fill-opacity:1;" d="M 15.960938 27.183594 L 18.042969 24.003906 L 16.984375 23.308594 L 15.570312 25.472656 L 8.328125 20.738281 L 7.65625 21.757812 L 15.960938 27.183594 "/>
<path style=" stroke:none;fill-rule:nonzero;fill:rgb(100%,100%,100%);fill-opacity:1;" d="M 18.34375 23.699219 L 19.082031 22.78125 L 13.402344 18.210938 L 12.664062 19.125 L 18.34375 23.699219 "/>
<path style=" stroke:none;fill-rule:nonzero;fill:rgb(100%,100%,100%);fill-opacity:1;" d="M 11.503906 18.230469 L 12.28125 17.265625 L 11.050781 16.277344 L 10.273438 17.242188 L 11.503906 18.230469 "/>
<path style=" stroke:none;fill-rule:nonzero;fill:rgb(100%,100%,100%);fill-opacity:1;" d="M 19.597656 21.863281 L 20.484375 21.09375 L 17.558594 17.726562 C 17.203125 17.320312 17.003906 16.945312 16.933594 16.613281 C 16.867188 16.273438 16.96875 16 17.214844 15.785156 C 17.625 15.425781 18.125 15.59375 18.71875 16.269531 L 21.867188 19.894531 L 22.753906 19.121094 L 19.828125 15.753906 C 19.472656 15.347656 19.269531 14.976562 19.203125 14.640625 C 19.132812 14.304688 19.238281 14.027344 19.484375 13.8125 C 19.894531 13.457031 20.398438 13.621094 20.984375 14.296875 L 24.136719 17.921875 L 25.023438 17.152344 L 21.890625 13.546875 C 21.332031 12.90625 20.796875 12.496094 20.308594 12.34375 C 19.804688 12.199219 19.339844 12.296875 18.910156 12.667969 C 18.628906 12.914062 18.476562 13.199219 18.445312 13.527344 C 18.425781 13.863281 18.464844 14.191406 18.550781 14.511719 C 18.414062 14.441406 18.269531 14.375 18.117188 14.324219 C 17.976562 14.277344 17.8125 14.25 17.65625 14.234375 C 17.503906 14.230469 17.34375 14.261719 17.1875 14.300781 C 17.027344 14.34375 16.875 14.441406 16.730469 14.566406 C 16.457031 14.804688 16.3125 15.082031 16.28125 15.410156 C 16.257812 15.746094 16.300781 16.085938 16.441406 16.441406 L 16.421875 16.453125 C 16.394531 16.421875 16.335938 16.355469 16.265625 16.269531 C 16.191406 16.203125 16.117188 16.117188 16.042969 16.03125 C 15.957031 15.953125 15.882812 15.871094 15.816406 15.792969 C 15.742188 15.726562 15.6875 15.660156 15.660156 15.628906 L 14.78125 16.394531 C 14.917969 16.53125 15.070312 16.691406 15.226562 16.851562 C 15.386719 17.015625 15.546875 17.199219 15.722656 17.402344 L 19.597656 21.863281 "/>
<path style=" stroke:none;fill-rule:nonzero;fill:rgb(100%,100%,100%);fill-opacity:1;" d="M 25.949219 16.792969 L 26.949219 16.179688 L 23.140625 9.964844 L 22.140625 10.574219 L 25.949219 16.792969 "/>
<path style=" stroke:none;fill-rule:nonzero;fill:rgb(100%,100%,100%);fill-opacity:1;" d="M 21.34375 9.347656 L 22.40625 8.695312 L 21.582031 7.347656 L 20.519531 8 L 21.34375 9.347656 "/>
<path style=" stroke:none;fill-rule:nonzero;fill:rgb(100%,100%,100%);fill-opacity:1;" d="M 30.257812 14.304688 L 29.753906 13.316406 C 29.703125 13.390625 29.652344 13.464844 29.585938 13.53125 C 29.523438 13.609375 29.441406 13.667969 29.328125 13.722656 C 29.140625 13.820312 28.96875 13.8125 28.808594 13.71875 C 28.644531 13.628906 28.484375 13.40625 28.304688 13.046875 L 26.472656 9.453125 L 27.523438 8.917969 L 27.007812 7.902344 L 25.960938 8.4375 L 25.085938 6.710938 L 24.234375 7.636719 L 24.914062 8.96875 L 24.085938 9.386719 L 24.597656 10.402344 L 25.425781 9.984375 L 27.390625 13.847656 C 27.707031 14.46875 28.039062 14.855469 28.402344 14.992188 C 28.769531 15.144531 29.152344 15.097656 29.578125 14.882812 C 29.730469 14.808594 29.871094 14.71875 29.984375 14.613281 C 30.089844 14.503906 30.195312 14.402344 30.257812 14.304688 "/>
<path style=" stroke:none;fill-rule:nonzero;fill:rgb(100%,100%,100%);fill-opacity:1;" d="M 30.660156 10.78125 L 33.78125 9.675781 L 33.617188 9.207031 C 33.40625 8.601562 33.167969 8.113281 32.914062 7.707031 C 32.664062 7.296875 32.398438 6.984375 32.113281 6.769531 C 31.835938 6.550781 31.539062 6.429688 31.25 6.382812 C 30.945312 6.339844 30.644531 6.371094 30.34375 6.476562 C 30.007812 6.597656 29.726562 6.789062 29.515625 7.058594 C 29.308594 7.332031 29.164062 7.664062 29.089844 8.039062 C 29.023438 8.425781 29.003906 8.855469 29.070312 9.328125 C 29.128906 9.804688 29.246094 10.308594 29.433594 10.832031 C 29.609375 11.324219 29.828125 11.777344 30.078125 12.167969 C 30.328125 12.566406 30.59375 12.875 30.902344 13.113281 C 31.207031 13.355469 31.535156 13.503906 31.898438 13.574219 C 32.261719 13.648438 32.636719 13.609375 33.035156 13.464844 C 33.371094 13.347656 33.667969 13.195312 33.902344 13.015625 C 34.136719 12.824219 34.316406 12.652344 34.464844 12.496094 L 33.992188 11.347656 C 33.902344 11.523438 33.761719 11.707031 33.589844 11.902344 C 33.410156 12.097656 33.167969 12.261719 32.847656 12.375 C 32.335938 12.558594 31.914062 12.511719 31.5625 12.226562 C 31.214844 11.960938 30.910156 11.480469 30.660156 10.78125 "/>
<path style=" stroke:none;fill-rule:nonzero;fill:rgb(100%,100%,100%);fill-opacity:1;" d="M 47.210938 8.765625 L 50.480469 9.296875 L 50.558594 8.808594 C 50.664062 8.171875 50.691406 7.628906 50.667969 7.152344 C 50.644531 6.675781 50.558594 6.269531 50.417969 5.945312 C 50.273438 5.617188 50.078125 5.371094 49.84375 5.191406 C 49.597656 5.007812 49.320312 4.886719 49.007812 4.835938 C 48.652344 4.777344 48.3125 4.8125 48.003906 4.949219 C 47.6875 5.085938 47.398438 5.3125 47.152344 5.601562 C 46.90625 5.90625 46.6875 6.277344 46.515625 6.722656 C 46.339844 7.164062 46.199219 7.664062 46.113281 8.214844 C 46.027344 8.730469 46.003906 9.230469 46.03125 9.695312 C 46.054688 10.164062 46.140625 10.5625 46.304688 10.921875 C 46.449219 11.277344 46.664062 11.574219 46.949219 11.800781 C 47.230469 12.046875 47.585938 12.191406 47.996094 12.261719 C 48.351562 12.316406 48.679688 12.328125 48.976562 12.28125 C 49.269531 12.222656 49.511719 12.160156 49.714844 12.097656 L 49.859375 10.867188 C 49.695312 10.96875 49.480469 11.066406 49.242188 11.15625 C 48.984375 11.242188 48.695312 11.265625 48.359375 11.210938 C 47.824219 11.125 47.476562 10.882812 47.304688 10.464844 C 47.128906 10.0625 47.09375 9.496094 47.210938 8.765625 "/>
<path style=" stroke:none;fill-rule:nonzero;fill:rgb(100%,100%,100%);fill-opacity:1;" d="M 50.695312 12.671875 L 51.816406 13.039062 L 53.15625 8.933594 C 53.335938 8.394531 53.5625 7.988281 53.84375 7.738281 C 54.117188 7.480469 54.425781 7.421875 54.777344 7.535156 C 55.070312 7.628906 55.234375 7.816406 55.296875 8.105469 C 55.34375 8.394531 55.277344 8.808594 55.101562 9.347656 L 53.695312 13.652344 L 54.804688 14.019531 L 56.324219 9.386719 C 56.5625 8.65625 56.625 8.03125 56.511719 7.519531 C 56.390625 7.003906 56.054688 6.652344 55.496094 6.46875 C 55.175781 6.363281 54.863281 6.367188 54.550781 6.488281 C 54.242188 6.609375 53.953125 6.832031 53.691406 7.152344 L 53.671875 7.144531 C 53.683594 7.101562 53.710938 7.023438 53.742188 6.925781 C 53.761719 6.828125 53.796875 6.722656 53.824219 6.609375 C 53.847656 6.496094 53.886719 6.390625 53.914062 6.292969 C 53.933594 6.199219 53.957031 6.113281 53.972656 6.074219 L 52.921875 5.730469 C 52.867188 5.9375 52.804688 6.15625 52.742188 6.378906 C 52.679688 6.609375 52.601562 6.839844 52.527344 7.070312 L 50.695312 12.671875 "/>
<path style=" stroke:none;fill-rule:nonzero;fill:rgb(100%,100%,100%);fill-opacity:1;" d="M 58.027344 11.972656 L 60.964844 13.496094 L 61.195312 13.054688 C 61.488281 12.484375 61.6875 11.980469 61.8125 11.519531 C 61.9375 11.058594 61.984375 10.648438 61.953125 10.292969 C 61.917969 9.9375 61.804688 9.644531 61.640625 9.398438 C 61.464844 9.144531 61.234375 8.945312 60.960938 8.800781 C 60.636719 8.632812 60.304688 8.558594 59.96875 8.59375 C 59.625 8.625 59.277344 8.75 58.957031 8.953125 C 58.628906 9.164062 58.304688 9.445312 58 9.816406 C 57.695312 10.183594 57.40625 10.613281 57.152344 11.105469 C 56.910156 11.574219 56.734375 12.039062 56.613281 12.488281 C 56.492188 12.941406 56.445312 13.347656 56.488281 13.738281 C 56.515625 14.121094 56.628906 14.464844 56.828125 14.777344 C 57.015625 15.097656 57.308594 15.34375 57.679688 15.535156 C 58 15.703125 58.308594 15.8125 58.605469 15.863281 C 58.898438 15.902344 59.148438 15.917969 59.363281 15.917969 L 59.886719 14.792969 C 59.695312 14.839844 59.46875 14.867188 59.207031 14.878906 C 58.9375 14.878906 58.652344 14.8125 58.351562 14.65625 C 57.871094 14.410156 57.613281 14.066406 57.582031 13.617188 C 57.539062 13.179688 57.683594 12.628906 58.027344 11.972656 "/>
<path style=" stroke:none;fill-rule:nonzero;fill:rgb(100%,100%,100%);fill-opacity:1;" d="M 60.09375 16.808594 L 61.046875 17.496094 L 63.339844 14.320312 C 63.554688 14.015625 63.765625 13.78125 63.980469 13.601562 C 64.191406 13.425781 64.390625 13.308594 64.582031 13.234375 C 64.765625 13.171875 64.949219 13.148438 65.117188 13.164062 C 65.28125 13.191406 65.421875 13.242188 65.558594 13.34375 C 65.617188 13.382812 65.671875 13.421875 65.707031 13.464844 C 65.742188 13.511719 65.789062 13.5625 65.832031 13.609375 L 66.660156 12.453125 C 66.644531 12.441406 66.625 12.429688 66.625 12.410156 C 66.613281 12.402344 66.597656 12.394531 66.578125 12.375 C 66.40625 12.253906 66.230469 12.160156 66.054688 12.121094 C 65.871094 12.078125 65.703125 12.078125 65.527344 12.113281 C 65.355469 12.140625 65.179688 12.191406 65.015625 12.265625 C 64.851562 12.34375 64.683594 12.433594 64.53125 12.550781 L 64.511719 12.535156 C 64.542969 12.488281 64.59375 12.421875 64.664062 12.328125 C 64.722656 12.230469 64.796875 12.125 64.863281 12.019531 C 64.925781 11.902344 64.992188 11.8125 65.058594 11.71875 C 65.113281 11.621094 65.164062 11.554688 65.199219 11.507812 L 64.320312 10.875 C 64.207031 11.050781 64.082031 11.242188 63.953125 11.433594 C 63.824219 11.636719 63.683594 11.835938 63.542969 12.03125 L 60.09375 16.808594 "/>
<path style=" stroke:none;fill-rule:nonzero;fill:rgb(100%,100%,100%);fill-opacity:1;" d="M 64.871094 20.710938 L 65.648438 21.433594 C 65.730469 21.332031 65.835938 21.183594 65.976562 21.019531 C 66.113281 20.851562 66.257812 20.679688 66.421875 20.503906 L 68.789062 17.949219 C 69.121094 17.589844 69.363281 17.277344 69.515625 16.992188 C 69.671875 16.710938 69.753906 16.441406 69.789062 16.183594 C 69.828125 15.960938 69.792969 15.703125 69.699219 15.402344 C 69.59375 15.109375 69.390625 14.820312 69.066406 14.519531 C 68.792969 14.269531 68.511719 14.089844 68.226562 13.980469 C 67.945312 13.867188 67.664062 13.789062 67.402344 13.757812 L 66.605469 14.746094 C 66.84375 14.710938 67.113281 14.730469 67.429688 14.808594 C 67.722656 14.886719 67.988281 15.035156 68.230469 15.257812 C 68.535156 15.542969 68.65625 15.847656 68.59375 16.179688 C 68.5625 16.34375 68.507812 16.503906 68.414062 16.652344 C 68.316406 16.808594 68.1875 16.964844 68.03125 17.132812 L 67.832031 17.347656 L 67.527344 17.070312 C 66.835938 16.429688 66.167969 16.082031 65.550781 16.035156 C 64.929688 16 64.316406 16.289062 63.738281 16.910156 C 63.503906 17.164062 63.339844 17.414062 63.21875 17.671875 C 63.101562 17.933594 63.050781 18.175781 63.042969 18.414062 C 63.027344 18.652344 63.070312 18.867188 63.160156 19.070312 C 63.246094 19.277344 63.371094 19.453125 63.546875 19.613281 C 63.863281 19.910156 64.183594 20.058594 64.53125 20.066406 C 64.859375 20.078125 65.179688 20.027344 65.480469 19.921875 L 65.5 19.9375 C 65.46875 19.96875 65.421875 20.023438 65.363281 20.101562 C 65.292969 20.175781 65.226562 20.246094 65.167969 20.328125 C 65.105469 20.410156 65.039062 20.480469 64.992188 20.550781 C 64.929688 20.632812 64.890625 20.671875 64.871094 20.710938 "/>
<path style=" stroke:none;fill-rule:nonzero;fill:rgb(100%,100%,100%);fill-opacity:1;" d="M 66.230469 22.183594 L 66.992188 23.085938 L 75.121094 16.191406 L 74.363281 15.289062 L 66.230469 22.183594 "/>
<path style=" stroke:none;fill-rule:nonzero;fill:rgb(100%,100%,100%);fill-opacity:1;" d="M 70.890625 22.855469 L 72.746094 25.59375 L 73.15625 25.316406 C 73.6875 24.957031 74.105469 24.605469 74.433594 24.261719 C 74.765625 23.914062 75.003906 23.578125 75.144531 23.25 C 75.28125 22.921875 75.328125 22.609375 75.292969 22.316406 C 75.261719 22.007812 75.15625 21.722656 74.980469 21.464844 C 74.777344 21.160156 74.519531 20.941406 74.214844 20.808594 C 73.894531 20.671875 73.53125 20.617188 73.152344 20.644531 C 72.765625 20.671875 72.34375 20.761719 71.898438 20.941406 C 71.453125 21.121094 70.996094 21.363281 70.535156 21.671875 C 70.097656 21.96875 69.722656 22.292969 69.402344 22.632812 C 69.082031 22.96875 68.847656 23.308594 68.695312 23.667969 C 68.535156 24.019531 68.472656 24.378906 68.496094 24.742188 C 68.515625 25.113281 68.652344 25.472656 68.886719 25.820312 C 69.089844 26.117188 69.308594 26.363281 69.546875 26.546875 C 69.785156 26.722656 69.996094 26.855469 70.183594 26.957031 L 71.179688 26.21875 C 70.988281 26.167969 70.777344 26.082031 70.542969 25.96875 C 70.304688 25.84375 70.085938 25.644531 69.898438 25.367188 C 69.59375 24.917969 69.53125 24.496094 69.714844 24.085938 C 69.886719 23.683594 70.277344 23.269531 70.890625 22.855469 "/>
<path style=" stroke:none;fill-rule:nonzero;fill:rgb(100%,100%,100%);fill-opacity:1;" d="M 43.425781 12.308594 C 43.3125 12.511719 43.15625 12.667969 42.957031 12.800781 C 42.753906 12.917969 42.5 12.976562 42.191406 12.980469 C 41.875 12.988281 41.574219 12.921875 41.265625 12.796875 C 40.957031 12.660156 40.71875 12.519531 40.535156 12.382812 L 40.492188 13.761719 C 40.683594 13.859375 40.957031 13.957031 41.296875 14.046875 C 41.636719 14.144531 41.988281 14.191406 42.332031 14.191406 C 43.191406 14.175781 43.828125 13.863281 44.242188 13.277344 C 44.609375 12.761719 44.777344 12.046875 44.808594 11.136719 L 44.714844 5.65625 C 44.710938 5.441406 44.71875 5.242188 44.726562 5.03125 C 44.734375 4.820312 44.734375 4.617188 44.742188 4.417969 L 43.660156 4.4375 C 43.660156 4.480469 43.660156 4.566406 43.664062 4.664062 C 43.652344 4.765625 43.65625 4.875 43.648438 4.992188 C 43.640625 5.105469 43.640625 5.203125 43.640625 5.304688 C 43.628906 5.40625 43.628906 5.488281 43.628906 5.53125 L 43.597656 5.53125 C 43.445312 5.207031 43.25 4.921875 43.011719 4.683594 C 42.777344 4.460938 42.476562 4.355469 42.117188 4.355469 C 41.769531 4.363281 41.457031 4.457031 41.203125 4.640625 C 40.945312 4.832031 40.71875 5.078125 40.558594 5.410156 C 40.394531 5.730469 40.265625 6.136719 40.195312 6.589844 C 40.113281 7.066406 40.074219 7.578125 40.082031 8.144531 C 40.09375 8.824219 40.15625 9.394531 40.292969 9.859375 C 40.410156 10.332031 40.5625 10.707031 40.757812 10.988281 C 40.953125 11.285156 41.167969 11.480469 41.40625 11.605469 C 41.648438 11.730469 41.898438 11.792969 42.140625 11.789062 C 42.539062 11.785156 42.847656 11.667969 43.082031 11.425781 C 43.3125 11.191406 43.5 10.90625 43.644531 10.550781 L 43.664062 10.550781 L 43.679688 11.441406 C 43.625 11.710938 43.539062 12.113281 43.425781 12.308594 "/>
<path style=" stroke:none;fill-rule:nonzero;fill:rgb(100%,100%,100%);fill-opacity:1;" d="M 50.976562 15.71875 C 65.898438 20.109375 74.484375 35.71875 70.199219 50.675781 C 65.464844 67.191406 47.230469 75.726562 31.511719 68.761719 C 24.765625 65.773438 19.800781 60.730469 16.914062 53.933594 C 14.03125 47.128906 13.859375 40.054688 16.402344 33.125 C 18.949219 26.191406 23.65625 20.910156 30.25 17.589844 C 36.847656 14.269531 43.894531 13.632812 50.976562 15.71875 "/>
<path style=" stroke:none;fill-rule:nonzero;fill:rgb(56.864929%,56.079102%,56.274414%);fill-opacity:1;" d="M 30.328125 9.832031 C 30.109375 9.199219 30.035156 8.667969 30.089844 8.261719 C 30.152344 7.859375 30.347656 7.59375 30.664062 7.480469 C 31.324219 7.246094 31.890625 7.785156 32.359375 9.109375 L 30.328125 9.832031 "/>
<path style=" stroke:none;fill-rule:nonzero;fill:rgb(56.864929%,56.079102%,56.274414%);fill-opacity:1;" d="M 47.371094 7.769531 C 47.492188 7.109375 47.679688 6.605469 47.925781 6.277344 C 48.171875 5.957031 48.46875 5.820312 48.804688 5.871094 C 49.496094 5.984375 49.730469 6.726562 49.503906 8.117188 L 47.371094 7.769531 "/>
<path style=" stroke:none;fill-rule:nonzero;fill:rgb(56.864929%,56.079102%,56.274414%);fill-opacity:1;" d="M 58.488281 11.074219 C 58.808594 10.488281 59.140625 10.066406 59.480469 9.828125 C 59.816406 9.601562 60.136719 9.566406 60.441406 9.722656 C 61.0625 10.046875 61.050781 10.824219 60.40625 12.074219 L 58.488281 11.074219 "/>
<path style=" stroke:none;fill-rule:nonzero;fill:rgb(56.864929%,56.079102%,56.274414%);fill-opacity:1;" d="M 67.214844 18.015625 L 66.769531 18.496094 C 66.375 18.925781 65.980469 19.199219 65.589844 19.324219 C 65.183594 19.449219 64.832031 19.378906 64.523438 19.09375 C 64.300781 18.886719 64.214844 18.644531 64.238281 18.382812 C 64.269531 18.121094 64.414062 17.847656 64.65625 17.585938 C 64.984375 17.230469 65.332031 17.070312 65.722656 17.101562 C 66.109375 17.132812 66.511719 17.347656 66.929688 17.738281 C 66.980469 17.785156 67.03125 17.832031 67.089844 17.886719 C 67.148438 17.941406 67.199219 17.988281 67.214844 18.015625 "/>
<path style=" stroke:none;fill-rule:nonzero;fill:rgb(56.864929%,56.079102%,56.274414%);fill-opacity:1;" d="M 71.726562 22.289062 C 72.289062 21.921875 72.777344 21.714844 73.1875 21.664062 C 73.59375 21.628906 73.898438 21.746094 74.089844 22.027344 C 74.480469 22.605469 74.097656 23.285156 72.9375 24.074219 L 71.726562 22.289062 "/>
<path style=" stroke:none;fill-rule:nonzero;fill:rgb(56.864929%,56.079102%,56.274414%);fill-opacity:1;" d="M 41.59375 10.042969 C 41.402344 9.628906 41.289062 8.980469 41.273438 8.082031 C 41.265625 7.246094 41.34375 6.613281 41.515625 6.175781 C 41.675781 5.742188 41.964844 5.527344 42.371094 5.507812 C 42.753906 5.5 43.050781 5.707031 43.269531 6.132812 C 43.476562 6.554688 43.589844 7.195312 43.601562 8.03125 C 43.617188 8.914062 43.519531 9.566406 43.335938 10 C 43.15625 10.441406 42.847656 10.65625 42.40625 10.664062 C 42.070312 10.671875 41.796875 10.464844 41.59375 10.042969 "/>
<path style=" stroke:none;fill-rule:nonzero;fill:rgb(13.729858%,12.159729%,12.548828%);fill-opacity:1;" d="M 40.371094 28.949219 L 27.109375 28.949219 L 27.109375 43.578125 L 31.011719 44.507812 C 31.035156 44.421875 31.082031 44.289062 31.117188 44.203125 C 31.171875 44.074219 31.246094 43.941406 31.320312 43.824219 C 31.578125 43.453125 31.90625 43.136719 32.289062 42.898438 C 32.78125 42.597656 33.347656 42.433594 33.925781 42.4375 C 34.597656 42.441406 35.25 42.660156 35.757812 43.089844 C 36.210938 43.472656 36.542969 44.0625 36.769531 44.605469 C 36.957031 45.058594 37.109375 45.527344 37.207031 46.011719 C 37.335938 46.59375 37.398438 47.195312 37.398438 47.796875 C 37.40625 48.355469 37.355469 48.921875 37.25 49.46875 C 37.148438 50.019531 36.984375 50.570312 36.734375 51.070312 C 36.480469 51.574219 36.136719 52.039062 35.679688 52.375 C 35.175781 52.746094 34.566406 52.953125 33.9375 52.96875 C 33.316406 52.980469 32.707031 52.800781 32.1875 52.460938 C 31.703125 52.140625 31.320312 51.703125 31.085938 51.179688 C 31.019531 51.039062 30.945312 50.828125 30.894531 50.683594 L 27.109375 51.78125 C 27.140625 51.933594 27.179688 52.148438 27.21875 52.296875 C 27.34375 52.75 27.589844 53.214844 27.847656 53.613281 C 28.261719 54.253906 28.761719 54.855469 29.34375 55.34375 C 29.953125 55.855469 30.65625 56.242188 31.398438 56.519531 C 32.269531 56.847656 33.195312 57.023438 34.121094 56.992188 C 34.90625 56.96875 35.6875 56.789062 36.417969 56.503906 C 37.15625 56.21875 37.851562 55.824219 38.457031 55.316406 C 39.105469 54.769531 39.644531 54.113281 40.0625 53.378906 C 40.511719 52.582031 40.828125 51.65625 41.054688 50.769531 C 41.300781 49.796875 41.46875 48.773438 41.476562 47.773438 C 41.488281 46.835938 41.351562 45.855469 41.160156 44.933594 C 40.96875 44.019531 40.679688 43.042969 40.25 42.214844 C 39.84375 41.421875 39.292969 40.71875 38.628906 40.128906 C 37.96875 39.539062 37.203125 39.082031 36.375 38.769531 C 35.578125 38.46875 34.726562 38.3125 33.871094 38.3125 C 33.058594 38.3125 32.246094 38.453125 31.492188 38.773438 C 31.40625 38.816406 31.265625 38.878906 31.179688 38.917969 L 31.179688 32.722656 L 40.371094 32.722656 L 40.371094 28.949219 "/>
<path style=" stroke:none;fill-rule:nonzero;fill:rgb(13.729858%,12.159729%,12.548828%);fill-opacity:1;" d="M 17.921875 56.027344 C 18.152344 56.46875 18.390625 56.898438 18.636719 57.320312 L 30.777344 45.179688 L 29.15625 44.792969 L 17.921875 56.027344 "/>
<path style=" stroke:none;fill-rule:nonzero;fill:rgb(13.729858%,12.159729%,12.548828%);fill-opacity:1;" d="M 19.246094 58.316406 C 19.503906 58.722656 19.777344 59.121094 20.054688 59.511719 L 26.671875 52.898438 C 26.613281 52.757812 26.570312 52.613281 26.535156 52.480469 C 26.511719 52.394531 26.476562 52.246094 26.4375 52.042969 C 26.429688 51.984375 26.417969 51.945312 26.414062 51.925781 L 26.285156 51.28125 L 29.101562 50.464844 L 35.609375 43.960938 C 35.511719 43.832031 35.40625 43.722656 35.296875 43.628906 C 35.027344 43.402344 34.71875 43.257812 34.371094 43.1875 L 19.246094 58.316406 "/>
<path style=" stroke:none;fill-rule:nonzero;fill:rgb(13.729858%,12.159729%,12.548828%);fill-opacity:1;" d="M 36.59375 46.585938 C 36.570312 46.441406 36.542969 46.300781 36.515625 46.160156 C 36.433594 45.769531 36.316406 45.382812 36.164062 45.003906 L 31.34375 49.828125 L 31.5625 50.445312 C 31.636719 50.65625 31.695312 50.804688 31.730469 50.886719 C 31.789062 51.015625 31.855469 51.132812 31.933594 51.246094 L 36.59375 46.585938 "/>
<path style=" stroke:none;fill-rule:nonzero;fill:rgb(13.729858%,12.159729%,12.548828%);fill-opacity:1;" d="M 34.65625 52.128906 L 36.164062 50.621094 C 36.332031 50.253906 36.460938 49.828125 36.550781 49.339844 C 36.628906 48.925781 36.671875 48.507812 36.6875 48.089844 L 32.785156 51.992188 C 33.125 52.171875 33.488281 52.261719 33.867188 52.261719 C 33.886719 52.261719 33.90625 52.261719 33.917969 52.261719 C 34.179688 52.257812 34.421875 52.210938 34.65625 52.128906 "/>
<path style=" stroke:none;fill-rule:nonzero;fill:rgb(13.729858%,12.159729%,12.548828%);fill-opacity:1;" d="M 24.253906 64.136719 C 24.609375 64.449219 24.976562 64.75 25.351562 65.046875 L 32.78125 57.617188 C 32.253906 57.53125 31.71875 57.398438 31.191406 57.199219 L 24.253906 64.136719 "/>
<path style=" stroke:none;fill-rule:nonzero;fill:rgb(13.729858%,12.159729%,12.548828%);fill-opacity:1;" d="M 26.265625 65.734375 C 26.65625 66.011719 27.054688 66.285156 27.460938 66.546875 L 36.964844 57.042969 C 36.867188 57.082031 36.769531 57.121094 36.671875 57.160156 C 35.878906 57.472656 35.089844 57.648438 34.308594 57.691406 L 26.265625 65.734375 "/>
<path style=" stroke:none;fill-rule:nonzero;fill:rgb(13.729858%,12.159729%,12.548828%);fill-opacity:1;" d="M 51.402344 28.652344 C 50.878906 28.652344 50.320312 28.769531 49.816406 28.910156 C 48.523438 29.273438 47.414062 30.160156 46.609375 31.238281 C 45.933594 32.144531 45.449219 33.246094 45.113281 34.316406 C 44.796875 35.320312 44.558594 36.40625 44.378906 37.4375 C 44.175781 38.609375 44.019531 39.84375 43.972656 41.035156 C 43.921875 42.199219 43.976562 43.496094 44.058594 44.652344 C 44.144531 45.824219 44.261719 47.074219 44.449219 48.238281 C 44.660156 49.574219 44.980469 50.917969 45.449219 52.179688 C 45.941406 53.503906 46.710938 54.964844 47.820312 55.835938 C 48.84375 56.648438 50.140625 57.042969 51.441406 56.992188 C 52.828125 56.949219 54.148438 56.402344 55.164062 55.460938 C 56.074219 54.628906 56.734375 53.378906 57.1875 52.226562 C 57.691406 50.945312 58.042969 49.574219 58.289062 48.21875 C 58.507812 47.03125 58.652344 45.84375 58.738281 44.636719 C 58.824219 43.355469 58.839844 42.066406 58.796875 40.78125 C 58.761719 39.667969 58.671875 38.527344 58.511719 37.425781 C 58.347656 36.355469 58.113281 35.289062 57.769531 34.261719 C 57.417969 33.195312 56.921875 32.117188 56.242188 31.21875 C 55.460938 30.191406 54.402344 29.316406 53.164062 28.945312 C 52.597656 28.773438 51.988281 28.652344 51.402344 28.652344 "/>
<path style=" stroke:none;fill-rule:nonzero;fill:rgb(13.729858%,12.159729%,12.548828%);fill-opacity:1;" d="M 20.742188 60.425781 C 21.035156 60.800781 21.335938 61.167969 21.652344 61.53125 L 28.082031 55.097656 C 27.789062 54.769531 27.511719 54.402344 27.253906 53.996094 C 27.242188 53.984375 27.230469 53.964844 27.21875 53.953125 L 20.742188 60.425781 "/>
<path style=" stroke:none;fill-rule:nonzero;fill:rgb(13.729858%,12.159729%,12.548828%);fill-opacity:1;" d="M 22.410156 62.363281 C 22.738281 62.710938 23.074219 63.042969 23.414062 63.371094 L 30.085938 56.703125 C 29.648438 56.464844 29.25 56.195312 28.886719 55.886719 L 22.410156 62.363281 "/>
<path style=" stroke:none;fill-rule:nonzero;fill:rgb(13.729858%,12.159729%,12.548828%);fill-opacity:1;" d="M 28.453125 67.15625 C 28.875 67.40625 29.304688 67.640625 29.742188 67.871094 L 44.894531 52.714844 C 44.859375 52.621094 44.820312 52.527344 44.785156 52.429688 C 44.640625 52.035156 44.507812 51.636719 44.386719 51.222656 L 28.453125 67.15625 "/>
<path style=" stroke:none;fill-rule:nonzero;fill:rgb(13.729858%,12.159729%,12.548828%);fill-opacity:1;" d="M 57.457031 18.496094 C 57.035156 18.25 56.605469 18.007812 56.171875 17.777344 L 41.082031 32.871094 L 41.082031 33.429688 L 40.519531 33.429688 L 36.035156 37.914062 C 36.234375 37.96875 36.433594 38.035156 36.628906 38.105469 C 36.917969 38.21875 37.199219 38.34375 37.472656 38.480469 L 57.457031 18.496094 "/>
<path style=" stroke:none;fill-rule:nonzero;fill:rgb(13.729858%,12.159729%,12.548828%);fill-opacity:1;" d="M 59.632812 19.929688 C 59.246094 19.652344 58.847656 19.378906 58.445312 19.113281 L 49.195312 28.367188 C 49.339844 28.3125 49.480469 28.269531 49.625 28.226562 C 50.300781 28.039062 50.890625 27.945312 51.402344 27.945312 C 51.472656 27.945312 51.546875 27.945312 51.617188 27.949219 L 59.632812 19.929688 "/>
<path style=" stroke:none;fill-rule:nonzero;fill:rgb(13.729858%,12.159729%,12.548828%);fill-opacity:1;" d="M 61.644531 21.535156 C 61.285156 21.222656 60.917969 20.917969 60.546875 20.621094 L 53.007812 28.164062 C 53.125 28.195312 53.246094 28.230469 53.371094 28.265625 C 53.746094 28.378906 54.109375 28.527344 54.460938 28.71875 L 61.644531 21.535156 "/>
<path style=" stroke:none;fill-rule:nonzero;fill:rgb(13.729858%,12.159729%,12.548828%);fill-opacity:1;" d="M 68.015625 29.601562 C 67.785156 29.164062 67.542969 28.738281 67.292969 28.316406 L 59.078125 36.53125 C 59.128906 36.789062 59.167969 37.050781 59.210938 37.324219 C 59.257812 37.632812 59.300781 37.949219 59.335938 38.28125 L 68.015625 29.601562 "/>
<path style=" stroke:none;fill-rule:nonzero;fill:rgb(13.729858%,12.159729%,12.548828%);fill-opacity:1;" d="M 66.675781 27.328125 C 66.414062 26.929688 66.140625 26.53125 65.855469 26.144531 L 58.320312 33.679688 C 58.359375 33.796875 58.402344 33.917969 58.441406 34.039062 C 58.570312 34.421875 58.683594 34.8125 58.789062 35.21875 L 66.675781 27.328125 "/>
<path style=" stroke:none;fill-rule:nonzero;fill:rgb(13.729858%,12.159729%,12.548828%);fill-opacity:1;" d="M 65.160156 25.234375 C 64.867188 24.863281 64.5625 24.496094 64.25 24.140625 L 57.132812 31.257812 C 57.394531 31.648438 57.632812 32.078125 57.851562 32.546875 L 65.160156 25.234375 "/>
<path style=" stroke:none;fill-rule:nonzero;fill:rgb(13.729858%,12.159729%,12.548828%);fill-opacity:1;" d="M 63.484375 23.300781 C 63.15625 22.960938 62.824219 22.625 62.476562 22.300781 L 55.421875 29.355469 C 55.777344 29.640625 56.121094 29.96875 56.441406 30.34375 L 63.484375 23.300781 "/>
<path style=" stroke:none;fill-rule:nonzero;fill:rgb(13.729858%,12.159729%,12.548828%);fill-opacity:1;" d="M 44.050781 35.519531 C 44.167969 35.019531 44.296875 34.546875 44.4375 34.105469 C 44.617188 33.53125 44.820312 33.003906 45.046875 32.511719 L 38.464844 39.09375 C 38.6875 39.25 38.894531 39.417969 39.101562 39.601562 C 39.25 39.738281 39.402344 39.878906 39.542969 40.027344 L 44.050781 35.519531 "/>
<path style=" stroke:none;fill-rule:nonzero;fill:rgb(13.729858%,12.159729%,12.548828%);fill-opacity:1;" d="M 43.339844 39.835938 C 43.410156 39.101562 43.511719 38.332031 43.644531 37.527344 L 40.273438 40.898438 C 40.496094 41.210938 40.699219 41.542969 40.878906 41.886719 C 40.925781 41.976562 40.972656 42.066406 41.015625 42.164062 L 43.339844 39.835938 "/>
<path style=" stroke:none;fill-rule:nonzero;fill:rgb(13.729858%,12.159729%,12.548828%);fill-opacity:1;" d="M 43.28125 43.503906 C 43.253906 42.972656 43.242188 42.46875 43.242188 41.996094 C 43.242188 41.835938 43.242188 41.683594 43.246094 41.53125 L 41.464844 43.3125 C 41.613281 43.765625 41.742188 44.261719 41.855469 44.789062 C 41.859375 44.828125 41.871094 44.867188 41.878906 44.90625 L 43.28125 43.503906 "/>
<path style=" stroke:none;fill-rule:nonzero;fill:rgb(13.729858%,12.159729%,12.548828%);fill-opacity:1;" d="M 42.101562 46.285156 C 42.160156 46.777344 42.1875 47.242188 42.1875 47.675781 C 42.1875 47.710938 42.1875 47.746094 42.1875 47.78125 C 42.183594 47.925781 42.179688 48.074219 42.175781 48.222656 L 43.546875 46.851562 C 43.480469 46.28125 43.421875 45.667969 43.371094 45.015625 L 42.101562 46.285156 "/>
<path style=" stroke:none;fill-rule:nonzero;fill:rgb(13.729858%,12.159729%,12.548828%);fill-opacity:1;" d="M 43.734375 48.265625 L 41.941406 50.058594 C 41.882812 50.347656 41.816406 50.644531 41.742188 50.945312 C 41.550781 51.683594 41.332031 52.34375 41.074219 52.9375 L 44.058594 49.953125 C 43.9375 49.4375 43.835938 48.902344 43.746094 48.347656 C 43.742188 48.320312 43.738281 48.292969 43.734375 48.265625 "/>
<path style=" stroke:none;fill-rule:nonzero;fill:rgb(100%,100%,100%);fill-opacity:1;" d="M 51.425781 32.730469 C 51.746094 32.71875 52.058594 32.785156 52.335938 32.9375 C 52.609375 33.082031 52.828125 33.339844 52.996094 33.589844 C 53.265625 34.011719 53.457031 34.609375 53.582031 35.101562 C 53.800781 35.929688 53.96875 36.78125 54.097656 37.632812 C 54.226562 38.511719 54.324219 39.398438 54.382812 40.285156 C 54.441406 41.195312 54.480469 42.105469 54.472656 43.019531 C 54.46875 44.046875 54.425781 45.078125 54.332031 46.105469 C 54.242188 47.136719 54.097656 48.210938 53.875 49.21875 C 53.71875 49.914062 53.511719 50.628906 53.242188 51.292969 C 53.101562 51.632812 52.917969 51.996094 52.699219 52.296875 C 52.554688 52.5 52.375 52.695312 52.164062 52.839844 C 51.9375 52.980469 51.671875 53.074219 51.394531 53.089844 C 51.070312 53.109375 50.738281 53.03125 50.472656 52.84375 C 50.28125 52.714844 50.101562 52.5 49.972656 52.304688 C 49.769531 51.988281 49.589844 51.648438 49.445312 51.292969 C 49.171875 50.648438 48.988281 49.902344 48.855469 49.210938 C 48.675781 48.226562 48.550781 47.046875 48.472656 46.054688 C 48.398438 45.078125 48.328125 43.945312 48.328125 42.96875 C 48.328125 42.070312 48.382812 41.152344 48.472656 40.25 C 48.5625 39.359375 48.691406 38.460938 48.851562 37.574219 C 48.992188 36.769531 49.167969 35.925781 49.382812 35.140625 C 49.523438 34.625 49.738281 34.011719 50.039062 33.578125 C 50.210938 33.332031 50.429688 33.085938 50.699219 32.945312 C 50.921875 32.828125 51.171875 32.742188 51.425781 32.730469 "/>
<path style=" stroke:none;fill-rule:nonzero;fill:rgb(13.729858%,12.159729%,12.548828%);fill-opacity:1;" d="M 49.410156 48.203125 L 53.753906 43.863281 C 53.757812 43.582031 53.761719 43.300781 53.765625 43.019531 C 53.765625 42.960938 53.765625 42.902344 53.765625 42.84375 C 53.765625 42.523438 53.757812 42.195312 53.753906 41.855469 L 49.210938 46.394531 C 49.269531 47.058594 49.335938 47.65625 49.410156 48.203125 "/>
<path style=" stroke:none;fill-rule:nonzero;fill:rgb(13.729858%,12.159729%,12.548828%);fill-opacity:1;" d="M 51.320312 33.457031 L 50.402344 34.378906 C 50.28125 34.636719 50.167969 34.949219 50.070312 35.324219 C 49.917969 35.867188 49.78125 36.46875 49.652344 37.132812 L 52.546875 34.242188 C 52.5 34.136719 52.449219 34.050781 52.402344 33.972656 C 52.269531 33.773438 52.136719 33.636719 52 33.566406 C 51.84375 33.476562 51.675781 33.433594 51.503906 33.433594 C 51.488281 33.433594 51.472656 33.4375 51.457031 33.4375 C 51.414062 33.4375 51.367188 33.445312 51.320312 33.457031 "/>
<path style=" stroke:none;fill-rule:nonzero;fill:rgb(13.729858%,12.159729%,12.548828%);fill-opacity:1;" d="M 52.941406 35.449219 L 49.332031 39.058594 C 49.269531 39.488281 49.21875 39.910156 49.179688 40.320312 C 49.144531 40.65625 49.117188 40.984375 49.097656 41.300781 L 53.289062 37.101562 C 53.195312 36.535156 53.074219 35.984375 52.941406 35.449219 "/>
<path style=" stroke:none;fill-rule:nonzero;fill:rgb(13.729858%,12.159729%,12.548828%);fill-opacity:1;" d="M 53.5 38.5 L 49.035156 42.964844 C 49.035156 42.96875 49.035156 42.96875 49.035156 42.96875 C 49.035156 43.507812 49.058594 44.152344 49.105469 44.90625 L 53.675781 40.328125 C 53.636719 39.71875 53.578125 39.109375 53.5 38.5 "/>
</g>
</svg>
