<?xml version="1.0" encoding="UTF-8"?>
<svg xmlns="http://www.w3.org/2000/svg" xmlns:xlink="http://www.w3.org/1999/xlink" width="87pt" height="86pt" viewBox="0 0 87 86" version="1.1">
<g id="surface1">
<path style="fill-rule:nonzero;fill:rgb(100%,100%,100%);fill-opacity:1;stroke-width:2.835;stroke-linecap:butt;stroke-linejoin:round;stroke:rgb(13.729858%,12.159729%,12.548828%);stroke-opacity:1;stroke-miterlimit:4;" d="M 435.195312 853.476562 C 200.429688 853.476562 10 663.007812 10 428.28125 C 10 193.515625 200.429688 3.085938 435.195312 3.085938 C 669.921875 3.085938 860.390625 193.515625 860.390625 428.28125 C 860.390625 663.007812 669.921875 853.476562 435.195312 853.476562 " transform="matrix(0.1,0,0,-0.1,0,86)"/>
<path style=" stroke:none;fill-rule:nonzero;fill:rgb(13.729858%,12.159729%,12.548828%);fill-opacity:1;" d="M 11.605469 69.078125 C 12.023438 69.589844 12.453125 70.097656 12.902344 70.589844 L 19.449219 64.042969 L 19.429688 61.253906 L 11.605469 69.078125 "/>
<path style=" stroke:none;fill-rule:nonzero;fill:rgb(13.729858%,12.159729%,12.548828%);fill-opacity:1;" d="M 9.632812 66.449219 C 10.011719 66.996094 10.402344 67.539062 10.808594 68.074219 L 19.425781 59.457031 C 19.433594 59.351562 19.441406 59.246094 19.453125 59.136719 C 19.480469 58.78125 19.527344 58.484375 19.601562 58.25 L 20.164062 55.914062 L 9.632812 66.449219 "/>
<path style=" stroke:none;fill-rule:nonzero;fill:rgb(13.729858%,12.159729%,12.548828%);fill-opacity:1;" d="M 13.765625 71.527344 C 13.992188 71.765625 14.226562 71.996094 14.460938 72.230469 C 14.695312 72.46875 14.929688 72.699219 15.167969 72.929688 L 20.683594 67.414062 C 20.417969 67.355469 20.167969 67.222656 19.941406 67.011719 L 19.929688 66.992188 L 19.910156 66.976562 C 19.617188 66.664062 19.46875 66.285156 19.457031 65.835938 L 13.765625 71.527344 "/>
<path style=" stroke:none;fill-rule:nonzero;fill:rgb(13.729858%,12.159729%,12.548828%);fill-opacity:1;" d="M 16.105469 73.792969 C 16.601562 74.242188 17.105469 74.671875 17.617188 75.089844 L 24.476562 68.226562 C 24.378906 67.96875 24.304688 67.699219 24.261719 67.417969 L 22.46875 67.433594 L 16.105469 73.792969 "/>
<path style=" stroke:none;fill-rule:nonzero;fill:rgb(13.729858%,12.159729%,12.548828%);fill-opacity:1;" d="M 18.621094 75.882812 C 19.152344 76.289062 19.699219 76.679688 20.25 77.0625 L 26.777344 70.535156 C 26.269531 70.34375 25.8125 70.035156 25.398438 69.617188 C 25.3125 69.53125 25.230469 69.441406 25.152344 69.351562 L 18.621094 75.882812 "/>
<path style=" stroke:none;fill-rule:nonzero;fill:rgb(13.729858%,12.159729%,12.548828%);fill-opacity:1;" d="M 7.851562 63.617188 C 8.1875 64.207031 8.542969 64.789062 8.914062 65.363281 L 20.738281 53.535156 L 21.179688 51.707031 C 21.292969 51.203125 21.605469 50.832031 22.117188 50.578125 C 22.53125 50.378906 22.921875 50.277344 23.289062 50.277344 L 24 50.277344 L 26.851562 47.425781 L 24.042969 47.425781 L 7.851562 63.617188 "/>
<path style=" stroke:none;fill-rule:nonzero;fill:rgb(13.729858%,12.159729%,12.548828%);fill-opacity:1;" d="M 21.328125 77.78125 C 21.90625 78.148438 22.484375 78.503906 23.078125 78.84375 L 34.519531 67.402344 L 32.226562 67.398438 C 32.097656 68.238281 31.722656 68.976562 31.09375 69.605469 C 30.324219 70.390625 29.394531 70.785156 28.308594 70.800781 L 21.328125 77.78125 "/>
<path style=" stroke:none;fill-rule:nonzero;fill:rgb(13.729858%,12.159729%,12.548828%);fill-opacity:1;" d="M 65.710938 8.566406 C 65.136719 8.199219 64.558594 7.847656 63.96875 7.503906 L 57.339844 14.132812 L 60.152344 14.125 L 65.710938 8.566406 "/>
<path style=" stroke:none;fill-rule:nonzero;fill:rgb(13.729858%,12.159729%,12.548828%);fill-opacity:1;" d="M 68.417969 10.464844 C 67.886719 10.054688 67.34375 9.664062 66.792969 9.285156 L 61.953125 14.125 L 64.765625 14.117188 L 68.417969 10.464844 "/>
<path style=" stroke:none;fill-rule:nonzero;fill:rgb(13.729858%,12.159729%,12.548828%);fill-opacity:1;" d="M 70.9375 12.554688 C 70.445312 12.109375 69.941406 11.679688 69.425781 11.261719 L 65.132812 15.554688 L 65.132812 18.359375 L 70.9375 12.554688 "/>
<path style=" stroke:none;fill-rule:nonzero;fill:rgb(13.729858%,12.159729%,12.548828%);fill-opacity:1;" d="M 73.277344 14.824219 C 73.046875 14.585938 72.816406 14.347656 72.578125 14.113281 C 72.347656 13.878906 72.109375 13.648438 71.871094 13.421875 L 65.132812 20.160156 L 65.132812 22.964844 L 73.277344 14.824219 "/>
<path style=" stroke:none;fill-rule:nonzero;fill:rgb(13.729858%,12.159729%,12.548828%);fill-opacity:1;" d="M 75.4375 17.269531 C 75.019531 16.761719 74.585938 16.257812 74.144531 15.757812 L 65.132812 24.769531 L 65.132812 27.574219 L 75.4375 17.269531 "/>
<path style=" stroke:none;fill-rule:nonzero;fill:rgb(13.729858%,12.159729%,12.548828%);fill-opacity:1;" d="M 77.410156 19.902344 C 77.03125 19.351562 76.636719 18.8125 76.226562 18.277344 L 64.617188 29.890625 L 64.617188 30.144531 L 64.21875 30.289062 L 55.582031 38.921875 L 58.390625 38.921875 L 77.410156 19.902344 "/>
<path style=" stroke:none;fill-rule:nonzero;fill:rgb(13.729858%,12.159729%,12.548828%);fill-opacity:1;" d="M 2.566406 46.714844 L 84.472656 46.714844 C 84.574219 45.546875 84.621094 44.363281 84.621094 43.171875 C 84.621094 41.980469 84.574219 40.800781 84.472656 39.628906 L 2.566406 39.628906 C 2.464844 40.800781 2.417969 41.980469 2.417969 43.171875 C 2.417969 44.363281 2.464844 45.546875 2.566406 46.714844 "/>
<path style=" stroke:none;fill-rule:nonzero;fill:rgb(13.729858%,12.159729%,12.548828%);fill-opacity:1;" d="M 79.1875 22.730469 C 78.847656 22.136719 78.496094 21.558594 78.128906 20.984375 L 60.191406 38.921875 L 62.996094 38.921875 L 79.1875 22.730469 "/>
<path style=" stroke:none;fill-rule:nonzero;fill:rgb(13.729858%,12.159729%,12.548828%);fill-opacity:1;" d="M 55.066406 27.972656 C 53.011719 27.972656 51.367188 29.699219 51.417969 31.730469 C 51.46875 33.765625 53.113281 35.332031 55.117188 35.332031 C 57.070312 35.332031 58.710938 33.765625 58.765625 31.78125 C 58.816406 29.699219 57.117188 27.972656 55.066406 27.972656 "/>
<path style=" stroke:none;fill-rule:nonzero;fill:rgb(13.729858%,12.159729%,12.548828%);fill-opacity:1;" d="M 64.421875 27.507812 L 64.421875 14.828125 L 34.941406 14.878906 L 34.839844 27.558594 L 51.378906 27.609375 L 50.761719 28.289062 L 34.273438 28.234375 L 34.324219 19.050781 L 29.292969 19.050781 C 28.417969 19.050781 27.390625 19.785156 27.082031 20.410156 L 25.539062 23.75 L 24.925781 23.800781 C 24.875 23.800781 24.464844 23.90625 24.257812 24.113281 C 24.105469 24.273438 24 24.53125 24 24.742188 L 23.488281 29.800781 L 22.972656 29.800781 C 22.867188 29.800781 22.71875 29.800781 22.664062 29.90625 C 22.613281 29.960938 22.613281 30.21875 22.613281 30.273438 L 22.613281 30.742188 C 22.613281 30.796875 22.613281 30.949219 22.71875 31.054688 C 22.820312 31.160156 22.921875 31.160156 22.972656 31.214844 L 22.921875 31.734375 L 25.078125 31.734375 C 25.078125 31.679688 25.078125 31.578125 25.078125 31.472656 C 25.179688 29.125 27.136719 27.246094 29.445312 27.246094 C 31.808594 27.246094 33.863281 29.070312 33.808594 31.472656 C 33.808594 31.527344 33.808594 31.632812 33.808594 31.679688 L 50.503906 31.734375 C 50.554688 31.679688 50.554688 31.578125 50.554688 31.472656 C 50.761719 29.070312 52.714844 27.039062 55.125 27.089844 C 57.539062 27.089844 59.390625 29.175781 59.597656 31.632812 C 59.597656 31.632812 59.597656 31.734375 59.597656 31.785156 L 60.519531 31.785156 C 60.519531 31.734375 60.46875 30.949219 60.46875 30.902344 L 63.910156 29.648438 L 63.910156 28.289062 L 59.183594 28.1875 L 58.671875 27.507812 L 64.421875 27.507812 "/>
<path style=" stroke:none;fill-rule:nonzero;fill:rgb(13.729858%,12.159729%,12.548828%);fill-opacity:1;" d="M 60.996094 50.972656 C 61.277344 50.972656 61.570312 51.011719 61.8125 51.125 C 62.027344 51.230469 62.210938 51.410156 62.34375 51.605469 L 66.730469 58.398438 C 66.78125 58.480469 66.824219 58.585938 66.847656 58.675781 C 66.894531 58.792969 66.894531 59.269531 66.894531 59.394531 L 66.902344 65.738281 C 66.902344 66.015625 66.824219 66.320312 66.613281 66.5 C 66.382812 66.695312 66.042969 66.734375 65.746094 66.734375 L 58.761719 66.734375 C 58.765625 66.597656 58.769531 66.398438 58.761719 66.257812 C 58.632812 64.183594 56.851562 62.648438 54.792969 62.621094 C 52.691406 62.597656 50.835938 64.128906 50.699219 66.246094 C 50.691406 66.382812 50.691406 66.578125 50.691406 66.710938 L 32.21875 66.691406 C 32.21875 66.59375 32.21875 66.453125 32.207031 66.347656 C 32.070312 64.28125 30.28125 62.765625 28.226562 62.761719 C 26.175781 62.761719 24.433594 64.292969 24.21875 66.347656 C 24.207031 66.453125 24.195312 66.601562 24.195312 66.710938 L 21.003906 66.734375 C 20.792969 66.742188 20.585938 66.640625 20.429688 66.492188 C 20.257812 66.308594 20.164062 66.042969 20.164062 65.792969 L 20.132812 59.65625 C 20.132812 59.511719 20.144531 59.34375 20.160156 59.203125 C 20.175781 58.984375 20.222656 58.628906 20.285156 58.4375 L 21.871094 51.867188 C 21.933594 51.578125 22.171875 51.339844 22.429688 51.214844 C 22.714844 51.074219 22.984375 50.984375 23.292969 50.984375 L 60.996094 50.972656 "/>
<path style=" stroke:none;fill-rule:nonzero;fill:rgb(13.729858%,12.159729%,12.548828%);fill-opacity:1;" d="M 28.25 63.382812 C 30.082031 63.382812 31.566406 64.886719 31.566406 66.734375 C 31.566406 68.589844 30.078125 70.09375 28.242188 70.09375 C 26.414062 70.09375 24.933594 68.605469 24.921875 66.761719 C 24.910156 64.894531 26.40625 63.382812 28.25 63.382812 "/>
<path style=" stroke:none;fill-rule:nonzero;fill:rgb(13.729858%,12.159729%,12.548828%);fill-opacity:1;" d="M 54.789062 63.332031 C 56.644531 63.34375 58.101562 64.914062 58.074219 66.785156 C 58.046875 68.617188 56.570312 70.101562 54.746094 70.105469 C 52.90625 70.109375 51.394531 68.625 51.371094 66.769531 C 51.34375 64.855469 52.894531 63.308594 54.789062 63.332031 "/>
<path style=" stroke:none;fill-rule:nonzero;fill:rgb(13.729858%,12.159729%,12.548828%);fill-opacity:1;" d="M 29.433594 27.964844 C 27.484375 27.964844 25.839844 29.636719 25.839844 31.617188 C 25.839844 33.707031 27.429688 35.375 29.433594 35.375 C 31.488281 35.375 33.082031 33.65625 33.027344 31.617188 C 33.027344 29.636719 31.4375 27.964844 29.433594 27.964844 "/>
<path style=" stroke:none;fill-rule:nonzero;fill:rgb(13.729858%,12.159729%,12.548828%);fill-opacity:1;" d="M 54.496094 47.425781 L 51.691406 47.425781 L 48.847656 50.269531 L 51.65625 50.265625 L 54.496094 47.425781 "/>
<path style=" stroke:none;fill-rule:nonzero;fill:rgb(13.729858%,12.159729%,12.548828%);fill-opacity:1;" d="M 49.886719 47.425781 L 47.082031 47.425781 L 44.234375 50.269531 L 47.042969 50.269531 L 49.886719 47.425781 "/>
<path style=" stroke:none;fill-rule:nonzero;fill:rgb(13.729858%,12.159729%,12.548828%);fill-opacity:1;" d="M 60.210938 32.496094 L 59.402344 32.496094 C 59.328125 32.933594 59.183594 33.347656 58.972656 33.734375 L 60.210938 32.496094 "/>
<path style=" stroke:none;fill-rule:nonzero;fill:rgb(13.729858%,12.159729%,12.548828%);fill-opacity:1;" d="M 50.976562 38.921875 L 53.785156 38.921875 L 57.171875 35.535156 C 56.554688 35.871094 55.871094 36.042969 55.117188 36.042969 C 54.722656 36.042969 54.351562 35.996094 53.996094 35.90625 L 50.976562 38.921875 "/>
<path style=" stroke:none;fill-rule:nonzero;fill:rgb(13.729858%,12.159729%,12.548828%);fill-opacity:1;" d="M 45.28125 47.425781 L 42.476562 47.425781 L 39.632812 50.269531 L 42.4375 50.269531 L 45.28125 47.425781 "/>
<path style=" stroke:none;fill-rule:nonzero;fill:rgb(13.729858%,12.159729%,12.548828%);fill-opacity:1;" d="M 52.738281 35.359375 C 52.492188 35.203125 52.265625 35.019531 52.042969 34.800781 C 51.765625 34.539062 51.535156 34.253906 51.34375 33.949219 L 46.371094 38.921875 L 49.175781 38.921875 L 52.738281 35.359375 "/>
<path style=" stroke:none;fill-rule:nonzero;fill:rgb(13.729858%,12.159729%,12.548828%);fill-opacity:1;" d="M 40.675781 47.425781 L 37.871094 47.425781 L 35.023438 50.273438 L 37.828125 50.273438 L 40.675781 47.425781 "/>
<path style=" stroke:none;fill-rule:nonzero;fill:rgb(13.729858%,12.159729%,12.548828%);fill-opacity:1;" d="M 50.820312 32.671875 C 50.804688 32.597656 50.789062 32.519531 50.777344 32.445312 L 48.25 32.433594 L 41.761719 38.921875 L 44.570312 38.921875 L 50.820312 32.671875 "/>
<path style=" stroke:none;fill-rule:nonzero;fill:rgb(13.729858%,12.159729%,12.548828%);fill-opacity:1;" d="M 36.066406 47.425781 L 33.261719 47.425781 L 30.410156 50.273438 L 33.21875 50.273438 L 36.066406 47.425781 "/>
<path style=" stroke:none;fill-rule:nonzero;fill:rgb(13.729858%,12.159729%,12.548828%);fill-opacity:1;" d="M 46.453125 32.429688 L 43.65625 32.417969 L 37.152344 38.921875 L 39.960938 38.921875 L 46.453125 32.429688 "/>
<path style=" stroke:none;fill-rule:nonzero;fill:rgb(13.729858%,12.159729%,12.548828%);fill-opacity:1;" d="M 31.460938 47.425781 L 28.65625 47.425781 L 25.804688 50.277344 L 28.609375 50.273438 L 31.460938 47.425781 "/>
<path style=" stroke:none;fill-rule:nonzero;fill:rgb(13.729858%,12.159729%,12.548828%);fill-opacity:1;" d="M 41.859375 32.414062 L 39.0625 32.40625 L 32.546875 38.921875 L 35.355469 38.921875 L 41.859375 32.414062 "/>
<path style=" stroke:none;fill-rule:nonzero;fill:rgb(100%,100%,100%);fill-opacity:1;" d="M 29.4375 30.164062 C 30.261719 30.164062 30.929688 30.84375 30.929688 31.628906 C 30.929688 32.511719 30.308594 33.195312 29.488281 33.195312 C 28.613281 33.242188 27.949219 32.511719 27.949219 31.679688 C 27.949219 30.84375 28.613281 30.164062 29.4375 30.164062 "/>
<path style=" stroke:none;fill-rule:nonzero;fill:rgb(100%,100%,100%);fill-opacity:1;" d="M 55.117188 30.113281 C 55.992188 30.113281 56.609375 30.894531 56.558594 31.78125 C 56.558594 32.5625 55.890625 33.191406 55.117188 33.191406 C 54.296875 33.191406 53.632812 32.617188 53.578125 31.78125 C 53.527344 30.894531 54.246094 30.113281 55.117188 30.113281 "/>
<path style=" stroke:none;fill-rule:nonzero;fill:rgb(100%,100%,100%);fill-opacity:1;" d="M 29.746094 20.460938 L 32.367188 20.515625 L 32.367188 23.800781 L 28.203125 23.75 L 29.746094 20.460938 "/>
<path style=" stroke:none;fill-rule:nonzero;fill:rgb(100%,100%,100%);fill-opacity:1;" d="M 27.636719 20.460938 L 28.765625 20.460938 L 27.28125 23.800781 L 26.199219 23.800781 L 27.636719 20.460938 "/>
<path style=" stroke:none;fill-rule:nonzero;fill:rgb(100%,100%,100%);fill-opacity:1;" d="M 22.667969 52.441406 L 24.054688 52.429688 L 22.484375 58.832031 L 21.109375 58.832031 L 22.667969 52.441406 "/>
<path style=" stroke:none;fill-rule:nonzero;fill:rgb(100%,100%,100%);fill-opacity:1;" d="M 25.078125 52.425781 L 29.328125 52.40625 L 29.371094 58.828125 L 23.523438 58.851562 L 25.078125 52.425781 "/>
<path style=" stroke:none;fill-rule:nonzero;fill:rgb(100%,100%,100%);fill-opacity:1;" d="M 30.257812 52.402344 L 35.019531 52.402344 L 34.980469 58.832031 L 30.277344 58.832031 L 30.257812 52.402344 "/>
<path style=" stroke:none;fill-rule:nonzero;fill:rgb(100%,100%,100%);fill-opacity:1;" d="M 35.90625 52.402344 L 40.59375 52.402344 L 40.605469 58.832031 L 35.90625 58.832031 L 35.90625 52.402344 "/>
<path style=" stroke:none;fill-rule:nonzero;fill:rgb(100%,100%,100%);fill-opacity:1;" d="M 41.5625 52.40625 L 46.335938 52.425781 L 46.398438 58.851562 L 41.589844 58.851562 L 41.5625 52.40625 "/>
<path style=" stroke:none;fill-rule:nonzero;fill:rgb(100%,100%,100%);fill-opacity:1;" d="M 47.269531 52.425781 L 52.160156 52.402344 L 52.226562 58.863281 L 47.34375 58.847656 L 47.269531 52.425781 "/>
<path style=" stroke:none;fill-rule:nonzero;fill:rgb(100%,100%,100%);fill-opacity:1;" d="M 53.101562 52.40625 L 57.886719 52.40625 L 57.929688 58.808594 L 53.164062 58.851562 L 53.101562 52.40625 "/>
<path style=" stroke:none;fill-rule:nonzero;fill:rgb(100%,100%,100%);fill-opacity:1;" d="M 58.863281 52.402344 L 61.785156 52.402344 L 65.777344 58.804688 L 58.882812 58.804688 L 58.863281 52.402344 "/>
<path style=" stroke:none;fill-rule:nonzero;fill:rgb(100%,100%,100%);fill-opacity:1;" d="M 28.242188 65.289062 C 29.023438 65.289062 29.640625 65.949219 29.625 66.734375 C 29.613281 67.488281 29.007812 68.101562 28.257812 68.101562 C 27.511719 68.105469 26.898438 67.503906 26.871094 66.75 C 26.851562 65.964844 27.464844 65.296875 28.242188 65.289062 "/>
<path style=" stroke:none;fill-rule:nonzero;fill:rgb(100%,100%,100%);fill-opacity:1;" d="M 54.78125 65.277344 C 55.582031 65.28125 56.210938 65.96875 56.15625 66.777344 C 56.113281 67.496094 55.496094 68.035156 54.777344 68.039062 C 54.042969 68.042969 53.410156 67.507812 53.355469 66.777344 C 53.304688 65.957031 53.964844 65.273438 54.78125 65.277344 "/>
</g>
</svg>
