<?xml version="1.0" encoding="UTF-8"?>
<svg xmlns="http://www.w3.org/2000/svg" xmlns:xlink="http://www.w3.org/1999/xlink" width="72pt" height="100pt" viewBox="0 0 72 100" version="1.1">
<g id="surface1">
<path style=" stroke:none;fill-rule:nonzero;fill:rgb(100%,100%,100%);fill-opacity:1;" d="M 0.871094 99.78125 L 71.734375 99.78125 L 71.734375 0.566406 L 0.871094 0.566406 Z M 0.871094 99.78125 "/>
<path style="fill:none;stroke-width:2.835;stroke-linecap:butt;stroke-linejoin:round;stroke:rgb(13.729858%,12.159729%,12.548828%);stroke-opacity:1;stroke-miterlimit:4;" d="M 8.710938 2.1875 L 717.34375 2.1875 L 717.34375 994.335938 L 8.710938 994.335938 L 8.710938 2.1875 " transform="matrix(0.1,0,0,-0.1,0,100)"/>
<path style=" stroke:none;fill-rule:nonzero;fill:rgb(13.729858%,12.159729%,12.548828%);fill-opacity:1;" d="M 2.289062 95.527344 C 2.289062 96.308594 2.566406 96.980469 3.117188 97.53125 C 3.671875 98.082031 4.339844 98.359375 5.121094 98.359375 L 67.484375 98.359375 C 68.265625 98.359375 68.933594 98.082031 69.488281 97.53125 C 70.039062 96.980469 70.316406 96.308594 70.316406 95.527344 L 70.316406 4.820312 C 70.316406 4.035156 70.039062 3.367188 69.488281 2.8125 C 68.933594 2.261719 68.265625 1.984375 67.484375 1.984375 L 5.121094 1.984375 C 4.339844 1.984375 3.671875 2.261719 3.117188 2.8125 C 2.566406 3.367188 2.289062 4.035156 2.289062 4.820312 L 2.289062 95.527344 "/>
<path style=" stroke:none;fill-rule:nonzero;fill:rgb(100%,100%,100%);fill-opacity:1;" d="M 3.703125 90.304688 L 9.648438 81.742188 L 10.675781 82.753906 L 3.703125 92.796875 L 3.703125 94.035156 L 11.183594 83.257812 L 12.210938 84.269531 L 3.898438 96.242188 C 3.957031 96.34375 4.03125 96.441406 4.121094 96.527344 C 4.207031 96.617188 4.304688 96.695312 4.40625 96.75 L 12.722656 84.773438 L 13.746094 85.789062 L 6 96.945312 L 6.859375 96.945312 L 14.257812 86.292969 L 15.28125 87.304688 L 8.589844 96.945312 L 67.484375 96.945312 C 67.878906 96.945312 68.207031 96.804688 68.484375 96.527344 C 68.761719 96.25 68.902344 95.917969 68.902344 95.527344 L 68.902344 10.085938 L 63.839844 17.375 L 62.898438 16.242188 L 68.902344 7.597656 L 68.902344 6.355469 L 62.425781 15.679688 L 61.484375 14.546875 L 68.722656 4.125 C 68.660156 4.015625 68.582031 3.910156 68.484375 3.816406 C 68.402344 3.734375 68.316406 3.664062 68.222656 3.605469 L 61.015625 13.984375 L 60.070312 12.855469 L 66.636719 3.398438 L 65.773438 3.398438 L 59.601562 12.292969 L 58.660156 11.164062 L 64.050781 3.398438 L 5.121094 3.398438 C 4.730469 3.398438 4.398438 3.539062 4.121094 3.816406 C 3.84375 4.09375 3.703125 4.425781 3.703125 4.820312 L 3.703125 90.304688 "/>
<path style=" stroke:none;fill-rule:nonzero;fill:rgb(13.729858%,12.159729%,12.548828%);fill-opacity:1;" d="M 29.167969 17.121094 C 29.511719 17.542969 29.90625 17.855469 30.378906 18.070312 C 30.832031 18.292969 31.328125 18.394531 31.855469 18.394531 C 32.410156 18.394531 32.921875 18.292969 33.390625 18.085938 C 33.859375 17.871094 34.257812 17.558594 34.597656 17.132812 C 34.941406 16.71875 35.210938 16.179688 35.40625 15.539062 C 35.59375 14.902344 35.691406 14.136719 35.691406 13.269531 C 35.691406 12.429688 35.59375 11.703125 35.40625 11.078125 C 35.210938 10.453125 34.941406 9.925781 34.597656 9.5 C 34.257812 9.089844 33.859375 8.761719 33.40625 8.546875 C 32.933594 8.335938 32.4375 8.234375 31.914062 8.234375 C 31.359375 8.234375 30.859375 8.335938 30.390625 8.546875 C 29.921875 8.761719 29.511719 9.074219 29.167969 9.488281 C 28.828125 9.914062 28.558594 10.453125 28.375 11.09375 C 28.175781 11.730469 28.074219 12.5 28.074219 13.363281 C 28.074219 14.203125 28.175781 14.929688 28.375 15.554688 C 28.558594 16.179688 28.828125 16.707031 29.167969 17.121094 "/>
<path style=" stroke:none;fill-rule:nonzero;fill:rgb(13.729858%,12.159729%,12.548828%);fill-opacity:1;" d="M 37.300781 18.28125 L 38.722656 18.28125 L 38.722656 10.351562 L 38.753906 10.351562 L 42.261719 18.28125 L 44.125 18.28125 L 44.125 8.363281 L 42.703125 8.363281 L 42.703125 16.351562 L 42.671875 16.351562 L 39.164062 8.363281 L 37.300781 8.363281 L 37.300781 18.28125 "/>
<path style=" stroke:none;fill-rule:nonzero;fill:rgb(13.729858%,12.159729%,12.548828%);fill-opacity:1;" d="M 46.195312 18.28125 L 51.265625 18.28125 L 51.265625 17.019531 L 47.726562 17.019531 L 47.726562 13.792969 L 50.941406 13.792969 L 50.941406 12.527344 L 47.726562 12.527344 L 47.726562 9.628906 L 51.109375 9.628906 L 51.109375 8.363281 L 46.195312 8.363281 L 46.195312 18.28125 "/>
<path style=" stroke:none;fill-rule:nonzero;fill:rgb(13.729858%,12.159729%,12.548828%);fill-opacity:1;" d="M 21.335938 18.28125 L 27.195312 18.28125 L 27.195312 17.019531 L 23.054688 17.019531 L 27.121094 9.65625 L 27.121094 8.363281 L 21.460938 8.363281 L 21.460938 9.628906 L 25.3125 9.628906 L 21.335938 16.894531 L 21.335938 18.28125 "/>
<path style=" stroke:none;fill-rule:nonzero;fill:rgb(100%,100%,100%);fill-opacity:1;" d="M 30.234375 16.164062 C 29.851562 15.484375 29.667969 14.546875 29.667969 13.363281 C 29.667969 12.640625 29.722656 12.03125 29.851562 11.53125 C 29.964844 11.035156 30.121094 10.621094 30.335938 10.3125 C 30.535156 10.011719 30.773438 9.78125 31.042969 9.644531 C 31.316406 9.511719 31.613281 9.445312 31.914062 9.445312 C 32.621094 9.445312 33.160156 9.78125 33.546875 10.46875 C 33.917969 11.148438 34.101562 12.085938 34.101562 13.269531 C 34.101562 13.992188 34.042969 14.601562 33.933594 15.101562 C 33.800781 15.597656 33.648438 16.011719 33.445312 16.308594 C 33.234375 16.621094 32.992188 16.847656 32.722656 16.976562 C 32.453125 17.121094 32.152344 17.1875 31.855469 17.1875 C 31.144531 17.1875 30.605469 16.847656 30.234375 16.164062 "/>
<path style=" stroke:none;fill-rule:nonzero;fill:rgb(39.677429%,38.580322%,38.851929%);fill-opacity:1;" d="M 11.5 25.367188 L 61.113281 25.367188 L 61.113281 74.976562 L 11.5 74.976562 L 11.5 25.367188 "/>
<path style=" stroke:none;fill-rule:nonzero;fill:rgb(100%,100%,100%);fill-opacity:1;" d="M 32.136719 68.734375 L 25.894531 68.734375 L 25.894531 33.558594 L 43.484375 33.558594 C 44.933594 33.558594 46.507812 34.125 47.453125 35.386719 C 48.714844 37.023438 48.652344 38.601562 48.652344 38.601562 L 48.652344 50.386719 C 48.652344 51.207031 48.402344 52.972656 47.140625 54.234375 C 46.003906 55.371094 44.808594 55.808594 43.484375 55.808594 L 32.136719 55.808594 L 32.136719 68.734375 "/>
<path style=" stroke:none;fill-rule:nonzero;fill:rgb(39.677429%,38.580322%,38.851929%);fill-opacity:1;" d="M 32.128906 50.386719 L 32.128906 39.105469 L 41.082031 39.105469 C 41.460938 39.105469 41.898438 39.105469 42.152344 39.355469 C 42.402344 39.609375 42.46875 39.859375 42.46875 40.425781 L 42.46875 49.0625 C 42.46875 49.503906 42.34375 49.882812 42.089844 50.070312 C 41.839844 50.324219 41.585938 50.386719 41.144531 50.386719 L 32.128906 50.386719 "/>
<path style=" stroke:none;fill-rule:nonzero;fill:rgb(13.729858%,12.159729%,12.548828%);fill-opacity:1;" d="M 14.257812 86.292969 L 62.898438 16.242188 L 63.839844 17.375 L 15.28125 87.304688 L 14.257812 86.292969 "/>
<path style=" stroke:none;fill-rule:nonzero;fill:rgb(13.729858%,12.159729%,12.548828%);fill-opacity:1;" d="M 12.722656 84.773438 L 61.484375 14.546875 L 62.425781 15.679688 L 13.746094 85.789062 L 12.722656 84.773438 "/>
<path style=" stroke:none;fill-rule:nonzero;fill:rgb(13.729858%,12.159729%,12.548828%);fill-opacity:1;" d="M 11.183594 83.257812 L 60.070312 12.855469 L 61.015625 13.984375 L 12.210938 84.269531 L 11.183594 83.257812 "/>
<path style=" stroke:none;fill-rule:nonzero;fill:rgb(13.729858%,12.159729%,12.548828%);fill-opacity:1;" d="M 9.648438 81.742188 L 58.660156 11.164062 L 59.601562 12.292969 L 10.675781 82.753906 L 9.648438 81.742188 "/>
</g>
</svg>
