<?xml version="1.0" encoding="UTF-8"?>
<svg xmlns="http://www.w3.org/2000/svg" xmlns:xlink="http://www.w3.org/1999/xlink" width="73pt" height="100pt" viewBox="0 0 73 100" version="1.1">
<g id="surface1">
<path style=" stroke:none;fill-rule:nonzero;fill:rgb(100%,100%,100%);fill-opacity:1;" d="M 1.085938 99.78125 L 71.953125 99.78125 L 71.953125 0.566406 L 1.085938 0.566406 Z M 1.085938 99.78125 "/>
<path style="fill:none;stroke-width:2.835;stroke-linecap:butt;stroke-linejoin:miter;stroke:rgb(13.729858%,12.159729%,12.548828%);stroke-opacity:1;stroke-miterlimit:4;" d="M 10.859375 2.1875 L 719.53125 2.1875 L 719.53125 994.335938 L 10.859375 994.335938 L 10.859375 2.1875 " transform="matrix(0.1,0,0,-0.1,0,100)"/>
<path style=" stroke:none;fill-rule:nonzero;fill:rgb(13.729858%,12.159729%,12.548828%);fill-opacity:1;" d="M 2.503906 95.527344 L 2.503906 4.820312 C 2.503906 4.035156 2.78125 3.367188 3.332031 2.816406 C 3.886719 2.261719 4.554688 1.984375 5.335938 1.984375 L 67.699219 1.984375 C 68.480469 1.984375 69.152344 2.261719 69.703125 2.816406 C 70.257812 3.367188 70.535156 4.035156 70.535156 4.820312 L 70.535156 95.527344 C 70.535156 96.308594 70.257812 96.976562 69.703125 97.53125 C 69.152344 98.085938 68.480469 98.363281 67.699219 98.363281 L 5.335938 98.363281 C 4.554688 98.363281 3.886719 98.085938 3.332031 97.53125 C 2.78125 96.976562 2.503906 96.308594 2.503906 95.527344 "/>
<path style=" stroke:none;fill-rule:nonzero;fill:rgb(100%,100%,100%);fill-opacity:1;" d="M 3.921875 95.527344 L 3.921875 4.820312 C 3.921875 4.425781 4.058594 4.09375 4.335938 3.816406 C 4.613281 3.539062 4.945312 3.402344 5.335938 3.402344 L 67.699219 3.402344 C 68.089844 3.402344 68.425781 3.539062 68.703125 3.816406 C 68.976562 4.09375 69.117188 4.425781 69.117188 4.820312 L 69.117188 95.527344 C 69.117188 95.917969 68.976562 96.25 68.703125 96.53125 C 68.425781 96.804688 68.089844 96.945312 67.699219 96.945312 L 5.335938 96.945312 C 4.945312 96.945312 4.613281 96.804688 4.335938 96.53125 C 4.058594 96.25 3.921875 95.917969 3.921875 95.527344 "/>
<path style=" stroke:none;fill-rule:nonzero;fill:rgb(13.729858%,12.159729%,12.548828%);fill-opacity:1;" d="M 20.464844 18.28125 L 26.320312 18.28125 L 26.320312 17.019531 L 22.183594 17.019531 L 26.25 9.65625 L 26.25 8.363281 L 20.59375 8.363281 L 20.59375 9.628906 L 24.445312 9.628906 L 20.464844 16.894531 L 20.464844 18.28125 "/>
<path style=" stroke:none;fill-rule:nonzero;fill:rgb(13.729858%,12.159729%,12.548828%);fill-opacity:1;" d="M 28.296875 17.121094 C 28.640625 17.542969 29.039062 17.855469 29.507812 18.070312 C 29.960938 18.292969 30.460938 18.394531 30.988281 18.394531 C 31.542969 18.394531 32.054688 18.292969 32.519531 18.085938 C 32.988281 17.871094 33.390625 17.558594 33.730469 17.132812 C 34.070312 16.71875 34.339844 16.179688 34.539062 15.539062 C 34.722656 14.902344 34.824219 14.136719 34.824219 13.269531 C 34.824219 12.429688 34.722656 11.703125 34.539062 11.078125 C 34.339844 10.453125 34.070312 9.925781 33.730469 9.496094 C 33.390625 9.089844 32.988281 8.761719 32.535156 8.546875 C 32.066406 8.335938 31.570312 8.234375 31.042969 8.234375 C 30.488281 8.234375 29.988281 8.335938 29.523438 8.546875 C 29.054688 8.761719 28.640625 9.074219 28.296875 9.488281 C 27.960938 9.910156 27.691406 10.453125 27.503906 11.09375 C 27.304688 11.730469 27.203125 12.5 27.203125 13.363281 C 27.203125 14.203125 27.304688 14.929688 27.503906 15.554688 C 27.691406 16.179688 27.960938 16.707031 28.296875 17.121094 "/>
<path style=" stroke:none;fill-rule:nonzero;fill:rgb(13.729858%,12.159729%,12.548828%);fill-opacity:1;" d="M 36.433594 18.28125 L 37.851562 18.28125 L 37.851562 10.351562 L 37.882812 10.351562 L 41.390625 18.28125 L 43.257812 18.28125 L 43.257812 8.363281 L 41.835938 8.363281 L 41.835938 16.351562 L 41.804688 16.351562 L 38.292969 8.363281 L 36.433594 8.363281 L 36.433594 18.28125 "/>
<path style=" stroke:none;fill-rule:nonzero;fill:rgb(13.729858%,12.159729%,12.548828%);fill-opacity:1;" d="M 44.339844 18.28125 L 45.878906 18.28125 L 46.628906 15.796875 L 50.226562 15.796875 L 50.976562 18.28125 L 52.570312 18.28125 L 49.34375 8.363281 L 47.664062 8.363281 L 44.339844 18.28125 "/>
<path style=" stroke:none;fill-rule:nonzero;fill:rgb(100%,100%,100%);fill-opacity:1;" d="M 29.367188 16.164062 C 28.980469 15.484375 28.796875 14.546875 28.796875 13.363281 C 28.796875 12.640625 28.851562 12.03125 28.980469 11.53125 C 29.097656 11.035156 29.253906 10.621094 29.464844 10.3125 C 29.664062 10.011719 29.90625 9.78125 30.175781 9.640625 C 30.449219 9.511719 30.746094 9.445312 31.042969 9.445312 C 31.753906 9.445312 32.292969 9.78125 32.675781 10.46875 C 33.046875 11.148438 33.230469 12.085938 33.230469 13.269531 C 33.230469 13.992188 33.175781 14.601562 33.0625 15.101562 C 32.933594 15.597656 32.777344 16.011719 32.578125 16.308594 C 32.367188 16.621094 32.125 16.847656 31.851562 16.976562 C 31.582031 17.121094 31.285156 17.1875 30.988281 17.1875 C 30.273438 17.1875 29.734375 16.847656 29.367188 16.164062 "/>
<path style=" stroke:none;fill-rule:nonzero;fill:rgb(100%,100%,100%);fill-opacity:1;" d="M 47 14.558594 L 48.460938 9.769531 L 48.488281 9.769531 L 49.867188 14.558594 L 47 14.558594 "/>
<path style=" stroke:none;fill-rule:nonzero;fill:rgb(10.112%,40.585327%,73.280334%);fill-opacity:1;" d="M 36.519531 21.824219 C 52.175781 21.824219 64.867188 34.515625 64.867188 50.171875 C 64.867188 65.824219 52.175781 78.519531 36.519531 78.519531 C 20.867188 78.519531 8.175781 65.824219 8.175781 50.171875 C 8.175781 34.515625 20.867188 21.824219 36.519531 21.824219 "/>
<path style=" stroke:none;fill-rule:nonzero;fill:rgb(100%,100%,100%);fill-opacity:1;" d="M 27.257812 58.273438 L 29.785156 58.257812 L 29.789062 66.617188 C 29.769531 67.300781 29.21875 67.84375 28.535156 67.851562 C 27.824219 67.859375 27.242188 67.285156 27.25 66.574219 L 27.257812 58.273438 "/>
<path style=" stroke:none;fill-rule:nonzero;fill:rgb(100%,100%,100%);fill-opacity:1;" d="M 30.523438 58.273438 L 33.058594 58.265625 L 33.054688 68.898438 C 33.054688 69.59375 32.503906 70.15625 31.808594 70.164062 C 31.109375 70.179688 30.53125 69.613281 30.523438 68.910156 L 30.523438 58.273438 "/>
<path style=" stroke:none;fill-rule:nonzero;fill:rgb(100%,100%,100%);fill-opacity:1;" d="M 37.988281 57.863281 C 38.007812 55.296875 37.382812 52.757812 36.164062 50.492188 C 35.246094 48.777344 34.003906 47.253906 32.515625 46 L 32.515625 41.800781 C 32.503906 41.632812 32.597656 41.476562 32.753906 41.410156 C 32.953125 41.324219 33.1875 41.417969 33.273438 41.617188 L 37.128906 49.328125 C 37.089844 49.597656 37.105469 49.875 37.179688 50.140625 C 37.269531 50.460938 37.4375 50.75 37.667969 50.988281 L 42.046875 56.222656 L 40.878906 69.550781 C 40.824219 70.140625 41.246094 70.671875 41.839844 70.742188 C 42.429688 70.816406 42.96875 70.410156 43.058594 69.824219 L 43.601562 63.238281 L 44.910156 63.222656 L 45.453125 69.230469 C 45.515625 69.855469 46.089844 70.296875 46.707031 70.199219 C 47.277344 70.101562 47.675781 69.585938 47.617188 69.011719 L 47.054688 63.253906 L 48.566406 63.246094 L 47.699219 57.546875 L 51.078125 61.625 C 51.46875 61.289062 51.738281 60.824219 51.828125 60.308594 C 51.929688 59.742188 51.808594 59.160156 51.492188 58.679688 L 46.410156 52.695312 C 45.519531 53.234375 44.449219 53.417969 43.421875 53.203125 C 42.757812 53.066406 42.140625 52.769531 41.621094 52.332031 L 39.039062 49.304688 C 39.175781 49.15625 39.273438 48.972656 39.328125 48.773438 C 39.398438 48.476562 39.359375 48.160156 39.210938 47.894531 L 35.523438 40.53125 C 34.480469 38.585938 32.433594 37.386719 30.222656 37.421875 C 27.183594 37.46875 24.683594 39.8125 24.425781 42.835938 L 24.464844 47.707031 C 24.472656 48.011719 24.589844 48.308594 24.792969 48.535156 C 24.902344 48.660156 25.027344 48.761719 25.167969 48.832031 C 24.304688 50.070312 23.628906 51.417969 23.148438 52.84375 C 22.609375 54.441406 22.335938 56.117188 22.328125 57.800781 L 37.988281 57.863281 "/>
<path style=" stroke:none;fill-rule:nonzero;fill:rgb(100%,100%,100%);fill-opacity:1;" d="M 43.46875 51.863281 C 45.519531 52.441406 47.464844 50.652344 47.0625 48.558594 C 46.679688 46.5625 44.398438 45.582031 42.6875 46.683594 C 42.21875 46.984375 41.855469 47.402344 41.621094 47.914062 C 41.394531 48.421875 41.316406 48.972656 41.398438 49.527344 C 41.480469 50.078125 41.714844 50.582031 42.089844 51.003906 C 42.457031 51.417969 42.925781 51.714844 43.46875 51.863281 "/>
<path style=" stroke:none;fill-rule:nonzero;fill:rgb(100%,100%,100%);fill-opacity:1;" d="M 30.191406 36.097656 C 32.410156 36.058594 33.921875 33.84375 33.160156 31.761719 C 32.363281 29.589844 29.605469 28.941406 27.921875 30.523438 C 27.441406 30.976562 27.121094 31.539062 26.980469 32.183594 C 26.839844 32.832031 26.894531 33.476562 27.144531 34.089844 C 27.394531 34.699219 27.804688 35.203125 28.355469 35.566406 C 28.90625 35.929688 29.53125 36.109375 30.191406 36.097656 "/>
<path style=" stroke:none;fill-rule:nonzero;fill:rgb(10.112%,40.585327%,73.280334%);fill-opacity:1;" d="M 26.902344 46.785156 L 26.902344 41.785156 C 26.914062 41.53125 27.136719 41.34375 27.390625 41.367188 C 27.609375 41.394531 27.78125 41.574219 27.789062 41.796875 L 27.800781 46.023438 C 27.664062 46.089844 27.527344 46.175781 27.402344 46.269531 C 27.210938 46.414062 27.039062 46.589844 26.902344 46.785156 "/>
</g>
</svg>
