<?xml version="1.0" encoding="UTF-8"?>
<svg xmlns="http://www.w3.org/2000/svg" xmlns:xlink="http://www.w3.org/1999/xlink" width="86pt" height="87pt" viewBox="0 0 86 87" version="1.1">
<g id="surface1">
<path style="fill-rule:nonzero;fill:rgb(100%,100%,100%);fill-opacity:1;stroke-width:2.835;stroke-linecap:butt;stroke-linejoin:round;stroke:rgb(13.729858%,12.159729%,12.548828%);stroke-opacity:1;stroke-miterlimit:4;" d="M 552.109375 841.679688 C 445.820312 873.046875 340.078125 863.476562 241.09375 813.632812 C 142.148438 763.867188 71.445312 684.570312 33.320312 580.585938 C -4.84375 476.484375 -2.226562 370.390625 41.054688 268.398438 C 84.257812 166.445312 158.75 90.742188 260.039062 45.820312 C 495.820312 -58.59375 769.53125 69.375 840.507812 317.265625 C 904.765625 541.601562 775.976562 775.820312 552.109375 841.679688 " transform="matrix(0.1,0,0,-0.1,0,87)"/>
<path style=" stroke:none;fill-rule:nonzero;fill:rgb(10.112%,40.585327%,73.280334%);fill-opacity:1;" d="M 45.296875 2.507812 L 45.296875 84.605469 C 48.964844 84.417969 52.558594 83.742188 56.089844 82.570312 C 60.246094 81.195312 64.089844 79.210938 67.613281 76.613281 C 71.195312 73.976562 74.253906 70.851562 76.796875 67.234375 C 79.445312 63.476562 81.40625 59.363281 82.6875 54.882812 C 83.753906 51.164062 84.285156 47.390625 84.285156 43.558594 C 84.285156 39.152344 83.589844 34.851562 82.195312 30.660156 C 80.820312 26.523438 78.839844 22.699219 76.25 19.1875 C 73.632812 15.640625 70.539062 12.597656 66.957031 10.0625 C 63.253906 7.441406 59.207031 5.484375 54.808594 4.1875 C 51.628906 3.253906 48.457031 2.691406 45.296875 2.507812 "/>
<path style=" stroke:none;fill-rule:nonzero;fill:rgb(10.112%,40.585327%,73.280334%);fill-opacity:1;" d="M 41.046875 84.605469 L 41.046875 2.492188 C 35.464844 2.769531 30.03125 4.242188 24.746094 6.902344 C 15.085938 11.765625 8.386719 19.277344 4.664062 29.429688 C 2.933594 34.144531 2.070312 38.878906 2.070312 43.628906 C 2.070312 49.03125 3.183594 54.359375 5.410156 59.605469 C 9.632812 69.570312 16.691406 76.738281 26.574219 81.121094 C 31.238281 83.183594 36.0625 84.347656 41.046875 84.605469 "/>
<path style=" stroke:none;fill-rule:nonzero;fill:rgb(100%,100%,100%);fill-opacity:1;" d="M 26.53125 47.53125 L 24.488281 47.488281 L 24.453125 47.578125 C 24.453125 47.582031 24.445312 47.617188 24.445312 47.621094 C 24.382812 47.773438 24.316406 47.933594 24.21875 48.066406 C 24.109375 48.234375 23.960938 48.402344 23.789062 48.515625 C 23.765625 48.527344 23.734375 48.546875 23.714844 48.558594 C 23.6875 48.578125 23.582031 48.628906 23.558594 48.640625 L 23.773438 49.585938 L 24.273438 49.496094 L 24.359375 49.839844 L 23.105469 50.179688 L 23.007812 49.800781 L 23.417969 49.667969 L 23.191406 48.773438 C 23.148438 48.78125 23.074219 48.792969 23.023438 48.800781 C 22.390625 48.890625 21.800781 48.640625 21.378906 48.144531 C 20.96875 47.667969 20.820312 46.949219 21.003906 46.339844 C 21.011719 46.332031 21.011719 46.300781 21.019531 46.285156 L 21.054688 46.179688 L 14.828125 41.140625 L 14.167969 42.140625 C 15.367188 43.109375 16.117188 44.40625 16.375 45.96875 C 16.644531 47.519531 16.355469 49.003906 15.539062 50.335938 C 14.722656 51.664062 13.546875 52.570312 12.085938 52.984375 C 10.617188 53.398438 9.164062 53.246094 7.808594 52.53125 C 7.101562 52.160156 6.46875 51.640625 5.957031 51.011719 C 5.445312 50.382812 5.0625 49.648438 4.824219 48.867188 C 4.585938 48.078125 4.5 47.25 4.574219 46.429688 C 4.65625 45.605469 4.886719 44.8125 5.265625 44.085938 C 5.644531 43.359375 6.15625 42.722656 6.769531 42.203125 C 7.394531 41.6875 8.105469 41.304688 8.875 41.074219 C 9.632812 40.851562 10.441406 40.78125 11.226562 40.886719 C 12.015625 40.988281 12.777344 41.242188 13.46875 41.65625 L 16.332031 36.730469 L 14.722656 36.675781 L 15.714844 34.410156 L 18.058594 33.632812 L 19.121094 34.261719 L 18.644531 34.949219 L 17.910156 34.640625 L 16.414062 35.089844 L 16.105469 35.855469 L 17.867188 35.882812 L 16.847656 37.636719 L 27.75 37.65625 L 28.265625 36.675781 C 28.207031 36.679688 28.121094 36.679688 28.054688 36.679688 C 27.933594 36.675781 27.660156 36.625 27.542969 36.597656 C 27.382812 36.566406 27.105469 36.507812 26.960938 36.433594 C 26.832031 36.371094 26.703125 36.265625 26.652344 36.117188 C 26.613281 36.011719 26.605469 35.871094 26.671875 35.78125 C 26.734375 35.703125 26.855469 35.664062 26.949219 35.652344 C 27.050781 35.640625 27.503906 35.640625 27.601562 35.640625 C 27.847656 35.648438 28.367188 35.582031 28.609375 35.550781 C 28.789062 35.53125 29.175781 35.480469 29.355469 35.453125 C 29.417969 35.449219 29.484375 35.429688 29.546875 35.417969 L 30.429688 35.207031 C 30.59375 35.175781 30.789062 35.148438 30.949219 35.210938 C 31.089844 35.269531 31.210938 35.378906 31.261719 35.53125 C 31.304688 35.652344 31.273438 35.824219 31.21875 35.945312 C 31.15625 36.085938 31.066406 36.226562 30.941406 36.308594 C 30.839844 36.375 30.570312 36.449219 30.445312 36.484375 L 29.820312 36.675781 C 29.675781 36.707031 29.542969 36.734375 29.398438 36.75 C 29.332031 36.757812 29.253906 36.761719 29.179688 36.769531 L 28.640625 37.707031 L 30.410156 41.390625 C 31.652344 40.910156 32.941406 40.851562 34.214844 41.234375 C 35.484375 41.613281 36.550781 42.375 37.347656 43.472656 C 38.144531 44.566406 38.554688 45.839844 38.558594 47.214844 C 38.558594 48.589844 38.15625 49.863281 37.359375 50.960938 C 36.613281 52.007812 35.605469 52.753906 34.414062 53.15625 C 33.21875 53.566406 31.988281 53.578125 30.785156 53.195312 C 29.582031 52.8125 28.566406 52.09375 27.796875 51.0625 C 27.023438 50.03125 26.597656 48.832031 26.53125 47.53125 "/>
<path style=" stroke:none;fill-rule:nonzero;fill:rgb(100%,100%,100%);fill-opacity:1;" d="M 56.691406 25.609375 C 56.691406 25.609375 55.933594 24.847656 56.824219 24.714844 C 57.710938 24.589844 57.617188 24.714844 57.804688 24.070312 C 57.996094 23.425781 58.199219 23.105469 58.503906 23.136719 C 58.8125 23.167969 58.96875 22.933594 59.171875 23.023438 C 59.378906 23.105469 59.59375 23.222656 59.8125 23.238281 C 60.03125 23.25 60.671875 23.152344 60.816406 23.238281 C 60.960938 23.320312 61.253906 23.4375 61.253906 23.753906 C 61.253906 24.070312 61.148438 25.046875 61.371094 25.148438 C 61.585938 25.253906 62.035156 25.4375 61.976562 25.738281 C 61.917969 26.039062 61.761719 26.027344 61.457031 26.027344 C 61.148438 26.027344 60.960938 26.097656 60.976562 26.285156 C 60.992188 26.472656 61.121094 26.789062 61.109375 27.132812 C 61.089844 27.480469 60.828125 28.183594 60.597656 28.515625 C 60.367188 28.84375 60.46875 28.972656 60.480469 29.089844 C 60.496094 29.203125 60.640625 29.300781 60.757812 29.40625 C 60.875 29.507812 62.9375 30.824219 63.257812 31.058594 C 63.578125 31.289062 64.132812 31.59375 64.230469 32.625 C 64.335938 33.660156 64.242188 34.28125 64.492188 34.78125 C 64.738281 35.285156 64.914062 36.636719 65.074219 37.703125 C 65.234375 38.761719 65.363281 39.660156 65.378906 39.976562 C 65.390625 40.292969 65.640625 40.808594 65.699219 40.953125 C 65.757812 41.09375 67.003906 43.730469 67.28125 44.128906 C 67.28125 44.128906 67.425781 44.375 67.308594 44.449219 C 67.191406 44.519531 67.132812 44.679688 67.34375 44.75 C 67.542969 44.820312 67.746094 45.164062 67.832031 45.324219 C 67.921875 45.480469 68.050781 45.855469 67.949219 46.054688 C 67.84375 46.261719 67.570312 46.484375 67.789062 46.730469 C 68.007812 46.976562 68.164062 47.105469 68.3125 47.332031 C 68.457031 47.566406 68.953125 48.359375 69.011719 48.527344 C 69.066406 48.703125 69.195312 48.863281 69.371094 48.890625 C 69.546875 48.914062 70.1875 48.992188 70.492188 49.101562 C 70.796875 49.21875 71.246094 49.476562 71.46875 49.476562 C 71.683594 49.476562 72.0625 49.476562 72.425781 49.59375 C 72.785156 49.710938 72.804688 49.605469 72.804688 49.488281 C 72.804688 49.378906 72.832031 49.25 72.675781 49.195312 C 72.511719 49.132812 72.179688 49.019531 72.074219 48.773438 C 71.976562 48.527344 71.757812 48.15625 71.902344 47.695312 C 71.902344 47.695312 71.757812 47.003906 72.003906 46.648438 C 72.25 46.285156 72.703125 46.03125 72.859375 46.03125 C 73.023438 46.03125 73.234375 46.144531 73.414062 46.085938 C 73.589844 46.03125 73.660156 45.957031 73.847656 46.03125 C 74.039062 46.101562 74.269531 46.226562 74.429688 46.242188 C 74.585938 46.261719 74.789062 46.285156 74.90625 46.371094 C 75.023438 46.460938 75.285156 46.589844 75.390625 46.777344 C 75.488281 46.964844 75.488281 47.046875 75.472656 47.4375 C 75.460938 47.824219 75.460938 48.242188 75.53125 48.371094 C 75.605469 48.503906 75.605469 48.804688 75.488281 48.914062 C 75.375 49.03125 75.035156 49.21875 74.867188 49.21875 C 74.691406 49.21875 74.660156 49.277344 74.660156 49.378906 C 74.660156 49.476562 74.605469 49.78125 74.632812 49.867188 C 74.660156 49.953125 74.660156 50.070312 74.835938 50.140625 C 75.011719 50.214844 75.675781 50.628906 75.898438 50.875 C 76.113281 51.117188 76.503906 51.460938 76.535156 51.546875 C 76.5625 51.636719 76.476562 51.691406 76.476562 51.691406 C 76.476562 51.691406 76.476562 51.792969 76.59375 51.980469 C 76.707031 52.171875 77.015625 52.726562 77.117188 53.117188 C 77.21875 53.507812 77.550781 54.585938 77.550781 54.796875 C 77.550781 55.011719 77.769531 55.792969 77.769531 55.90625 C 77.769531 56.019531 77.640625 55.992188 77.640625 55.992188 C 77.640625 55.992188 77.726562 56.335938 77.726562 56.496094 C 77.726562 56.652344 77.710938 56.769531 77.582031 56.839844 C 77.449219 56.910156 77.449219 57.027344 77.304688 57.027344 C 77.160156 57.027344 77.203125 56.957031 77.058594 56.886719 C 76.914062 56.8125 76.78125 56.78125 76.8125 56.652344 C 76.839844 56.523438 76.824219 56.167969 76.824219 56.089844 C 76.824219 56.019531 76.796875 55.949219 76.738281 55.949219 C 76.679688 55.949219 76.535156 55.878906 76.535156 55.664062 C 76.535156 55.445312 76.460938 54.984375 76.417969 54.832031 C 76.375 54.667969 76.445312 54.398438 76.375 54.269531 C 76.300781 54.136719 75.722656 53.476562 75.617188 53.289062 C 75.519531 53.101562 75.429688 53.277344 75.429688 53.375 C 75.429688 53.476562 75.449219 54.410156 75.53125 54.585938 C 75.617188 54.753906 75.53125 54.984375 75.695312 55.328125 C 75.851562 55.675781 76.21875 57.1875 76.277344 57.402344 C 76.328125 57.617188 76.492188 57.949219 76.503906 58.265625 C 76.519531 58.582031 76.679688 59.042969 76.257812 59.03125 C 75.839844 59.007812 75.605469 59.183594 75.226562 59.054688 C 74.847656 58.925781 74.824219 59.054688 74.835938 59.214844 C 74.847656 59.371094 74.90625 59.945312 75.011719 60.21875 C 75.109375 60.492188 74.882812 61.339844 75.023438 61.628906 C 75.167969 61.914062 75.34375 61.96875 75.390625 62.058594 C 75.449219 62.171875 75.488281 62.464844 75.226562 62.921875 C 74.964844 63.382812 74.167969 63.601562 74.027344 63.125 C 73.875 62.652344 74.050781 62.5625 74.15625 62.40625 C 74.253906 62.246094 74.253906 62.03125 74.078125 61.875 C 73.90625 61.714844 73.554688 60.851562 73.484375 60.652344 C 73.414062 60.449219 73.078125 59.414062 73.007812 59.199219 C 72.933594 58.980469 72.820312 58.808594 72.703125 59.054688 C 72.585938 59.300781 72.308594 59.875 72.355469 60.136719 C 72.394531 60.394531 72.46875 60.652344 72.46875 60.894531 C 72.46875 61.140625 72.335938 62.089844 72.25 62.347656 C 72.164062 62.605469 72.25 62.675781 72.296875 62.839844 C 72.335938 62.992188 72.558594 63.3125 72.355469 63.453125 C 72.148438 63.601562 71.03125 64.046875 70.855469 64.105469 C 70.683594 64.15625 70.433594 63.859375 70.546875 63.554688 C 70.664062 63.253906 71.042969 63.027344 71.101562 62.910156 C 71.160156 62.792969 71.160156 62.746094 71.074219 62.453125 C 70.984375 62.148438 70.914062 60.824219 70.972656 60.625 C 71.03125 60.421875 71.074219 60.046875 70.886719 59.917969 C 70.695312 59.789062 70.652344 59.386719 70.695312 59.171875 C 70.738281 58.957031 70.839844 58.246094 70.8125 58.136719 C 70.78125 58.023438 70.839844 57.890625 70.652344 57.832031 C 70.460938 57.777344 69.546875 57.316406 69.476562 57.015625 C 69.402344 56.710938 69.476562 56.441406 69.707031 56.148438 C 69.941406 55.863281 70.8125 54.527344 71 53.90625 C 71.1875 53.289062 71.363281 52.527344 71.363281 52.09375 C 71.363281 51.667969 71.394531 51.363281 71.246094 51.289062 C 71.101562 51.21875 69.546875 50.46875 69.273438 50.484375 C 68.996094 50.496094 67.976562 49.921875 67.816406 49.710938 C 67.660156 49.488281 67.425781 49.335938 67.105469 48.230469 C 66.785156 47.121094 66.859375 47.0625 66.597656 47.046875 C 66.335938 47.035156 65.710938 46.816406 65.535156 46.472656 C 65.363281 46.128906 65.742188 45.699219 65.40625 45.808594 C 65.074219 45.925781 65.046875 46.03125 64.808594 45.625 C 64.582031 45.222656 63.328125 42.335938 62.953125 41.082031 C 62.574219 39.828125 62.589844 40.507812 62.589844 40.71875 C 62.589844 40.941406 62.722656 42.261719 62.820312 42.535156 C 62.925781 42.804688 62.910156 43.207031 62.9375 43.628906 C 62.964844 44.042969 63.113281 45.511719 63.230469 46.085938 C 63.34375 46.660156 63.128906 46.484375 62.9375 46.558594 C 62.75 46.632812 62.703125 46.777344 62.722656 46.894531 C 62.734375 47.003906 62.488281 49.03125 62.441406 49.453125 C 62.402344 49.867188 62.035156 52.195312 61.992188 52.398438 C 61.949219 52.597656 61.949219 52.699219 61.992188 52.886719 C 62.035156 53.074219 62.675781 56.652344 62.675781 57 C 62.675781 57.34375 62.984375 58.75 62.996094 58.96875 C 63.011719 59.183594 62.953125 59.171875 62.910156 59.300781 C 62.867188 59.429688 62.9375 59.472656 63.011719 59.660156 C 63.082031 59.847656 63.386719 59.917969 63.34375 60.277344 C 63.300781 60.636719 63.128906 60.722656 62.9375 60.96875 C 62.75 61.214844 62.355469 62.316406 61.6875 62.632812 C 61.019531 62.949219 60.496094 62.769531 60.378906 62.453125 C 60.261719 62.132812 60.320312 61.667969 60.710938 61.515625 C 60.710938 61.515625 60.917969 61.398438 60.945312 61.285156 C 60.976562 61.167969 60.945312 61.011719 60.789062 60.996094 C 60.625 60.980469 60.597656 60.476562 60.421875 59.300781 C 60.25 58.121094 59.960938 56.8125 59.785156 56.195312 C 59.609375 55.574219 58.957031 52.886719 58.882812 52.6875 C 58.8125 52.484375 58.753906 51.910156 58.796875 51.546875 C 58.839844 51.1875 58.753906 48.773438 58.503906 49.851562 C 58.257812 50.929688 57.746094 52.699219 57.652344 53.03125 C 57.546875 53.359375 57.519531 53.546875 57.519531 53.695312 C 57.519531 53.835938 57.664062 59.128906 57.578125 61.585938 C 57.578125 61.585938 57.59375 61.730469 57.460938 61.742188 C 57.332031 61.761719 57.53125 62.019531 57.558594 62.148438 C 57.59375 62.277344 57.820312 62.769531 57.429688 62.9375 C 57.035156 63.109375 56.445312 63.179688 56.039062 63.414062 C 55.628906 63.640625 54.570312 63.875 53.917969 63.628906 C 53.261719 63.382812 53.929688 62.347656 54.890625 62.40625 C 54.890625 62.40625 55.28125 62.363281 54.960938 62.277344 C 54.960938 62.277344 54.832031 62.265625 54.84375 61.960938 C 54.859375 61.65625 54.859375 57.316406 54.703125 55.558594 C 54.539062 53.804688 54.277344 51.851562 54.667969 50.085938 C 55.058594 48.3125 55.195312 46.332031 54.949219 46.285156 C 54.703125 46.242188 54.394531 46.214844 54.453125 45.785156 C 54.511719 45.351562 54.800781 42.878906 54.929688 42.101562 C 55.058594 41.328125 55.496094 40.648438 55.472656 40.203125 C 55.441406 39.757812 55.425781 37.601562 55.046875 38.335938 C 54.667969 39.066406 54.425781 39.398438 54.40625 40.320312 C 54.394531 41.238281 54.074219 42.820312 53.957031 43.195312 C 53.84375 43.566406 53.625 45.050781 53.609375 45.453125 C 53.597656 45.855469 53.394531 45.640625 53.246094 45.625 C 53.101562 45.609375 52.914062 45.480469 52.867188 45.722656 C 52.828125 45.96875 52.925781 45.96875 52.972656 46.203125 C 53.015625 46.429688 53.128906 46.875 52.710938 47.207031 C 52.285156 47.539062 52.15625 47.894531 51.5625 47.824219 C 50.964844 47.753906 50.789062 47.25 50.847656 46.703125 C 50.90625 46.15625 51.066406 45.785156 51.269531 45.582031 C 51.476562 45.382812 51.402344 45.292969 51.285156 45.253906 C 51.167969 45.210938 50.90625 45.265625 50.933594 44.917969 C 50.964844 44.574219 51.402344 41.585938 51.457031 40.878906 C 51.515625 40.175781 51.445312 38.5625 51.796875 37.574219 C 52.140625 36.582031 52.839844 33.933594 53.015625 32.671875 C 53.1875 31.40625 53.871094 30.65625 54.296875 30.414062 C 54.714844 30.167969 57.460938 29.144531 57.605469 29.003906 C 57.746094 28.859375 57.96875 28.585938 57.792969 28.230469 C 57.617188 27.867188 57.285156 27.449219 57.285156 26.933594 C 57.285156 26.414062 57.34375 25.957031 57.167969 25.882812 C 56.996094 25.808594 56.71875 25.679688 56.691406 25.609375 "/>
<path style=" stroke:none;fill-rule:nonzero;fill:rgb(10.112%,40.585327%,73.280334%);fill-opacity:1;" d="M 13.699219 42.871094 L 11.070312 47.183594 L 10.890625 47.488281 C 10.769531 47.6875 10.46875 47.636719 10.273438 47.519531 C 10.113281 47.425781 10.015625 47.222656 10.097656 47.046875 C 10.113281 47.011719 10.261719 46.773438 10.28125 46.742188 L 12.960938 42.367188 C 11.820312 41.734375 10.585938 41.570312 9.324219 41.878906 C 8.066406 42.195312 7.035156 42.914062 6.296875 44.011719 C 5.554688 45.109375 5.25 46.367188 5.394531 47.691406 C 5.539062 49.027344 6.113281 50.175781 7.074219 51.070312 C 7.59375 51.550781 8.191406 51.914062 8.847656 52.152344 C 9.503906 52.382812 10.195312 52.476562 10.886719 52.425781 C 11.578125 52.375 12.25 52.179688 12.867188 51.851562 C 13.480469 51.527344 14.03125 51.074219 14.476562 50.527344 C 14.917969 49.972656 15.253906 49.332031 15.453125 48.648438 C 15.65625 47.960938 15.722656 47.238281 15.652344 46.527344 C 15.578125 45.8125 15.363281 45.121094 15.03125 44.496094 C 14.695312 43.859375 14.242188 43.3125 13.699219 42.871094 "/>
<path style=" stroke:none;fill-rule:nonzero;fill:rgb(10.112%,40.585327%,73.280334%);fill-opacity:1;" d="M 31.449219 47.515625 L 27.410156 47.570312 C 27.488281 48.734375 27.910156 49.792969 28.65625 50.679688 C 29.398438 51.5625 30.347656 52.140625 31.453125 52.386719 C 32.554688 52.628906 33.652344 52.496094 34.679688 52.003906 C 35.699219 51.507812 36.5 50.722656 37.03125 49.683594 C 37.523438 48.722656 37.71875 47.675781 37.597656 46.589844 C 37.480469 45.511719 37.0625 44.527344 36.371094 43.710938 C 35.6875 42.886719 34.808594 42.320312 33.792969 42.054688 C 32.769531 41.785156 31.742188 41.835938 30.757812 42.207031 L 32.597656 46.101562 C 32.8125 46.113281 33.019531 46.191406 33.191406 46.320312 C 33.371094 46.449219 33.5 46.628906 33.582031 46.835938 C 33.65625 47.042969 33.675781 47.265625 33.636719 47.484375 C 33.589844 47.703125 33.492188 47.902344 33.34375 48.0625 C 33.203125 48.21875 33.03125 48.324219 32.832031 48.382812 C 32.636719 48.4375 32.433594 48.433594 32.238281 48.375 C 32.042969 48.320312 31.871094 48.214844 31.730469 48.054688 C 31.589844 47.902344 31.492188 47.71875 31.449219 47.515625 "/>
<path style=" stroke:none;fill-rule:nonzero;fill:rgb(10.112%,40.585327%,73.280334%);fill-opacity:1;" d="M 16.308594 38.597656 L 27.15625 38.617188 L 23.484375 45.136719 C 23.355469 45.101562 23.175781 45.046875 23.039062 45.035156 C 22.9375 45.015625 22.800781 45.015625 22.703125 45.015625 L 22.570312 44.429688 L 22.976562 44.308594 L 22.875 43.949219 L 21.636719 44.285156 L 21.730469 44.652344 L 22.140625 44.542969 L 22.269531 45.066406 C 22.144531 45.105469 21.96875 45.167969 21.859375 45.242188 C 21.777344 45.296875 21.664062 45.410156 21.59375 45.476562 L 15.238281 40.414062 L 16.308594 38.597656 "/>
<path style=" stroke:none;fill-rule:nonzero;fill:rgb(10.112%,40.585327%,73.280334%);fill-opacity:1;" d="M 26.578125 46.707031 L 24.585938 46.699219 C 24.570312 46.625 24.546875 46.503906 24.527344 46.429688 C 24.492188 46.324219 24.445312 46.207031 24.398438 46.101562 C 24.347656 46.011719 24.292969 45.910156 24.226562 45.828125 C 24.21875 45.808594 24.195312 45.78125 24.183594 45.765625 L 24.085938 45.652344 L 28.128906 38.664062 L 29.558594 41.746094 C 28.761719 42.222656 28.074219 42.886719 27.5625 43.679688 C 26.980469 44.582031 26.644531 45.625 26.578125 46.707031 "/>
<path style=" stroke:none;fill-rule:nonzero;fill:rgb(10.112%,40.585327%,73.280334%);fill-opacity:1;" d="M 21.480469 46.53125 L 22.902344 47.566406 L 23.078125 48.226562 C 23.035156 48.238281 22.976562 48.257812 22.933594 48.261719 C 22.125 48.378906 21.46875 47.664062 21.457031 46.816406 C 21.457031 46.738281 21.46875 46.609375 21.480469 46.53125 "/>
<path style=" stroke:none;fill-rule:nonzero;fill:rgb(10.112%,40.585327%,73.280334%);fill-opacity:1;" d="M 21.957031 45.835938 L 22.015625 45.78125 C 22.019531 45.78125 22.042969 45.761719 22.046875 45.761719 C 22.128906 45.699219 22.207031 45.652344 22.304688 45.621094 C 22.335938 45.617188 22.371094 45.601562 22.398438 45.59375 L 22.570312 46.316406 L 21.957031 45.835938 "/>
<path style=" stroke:none;fill-rule:nonzero;fill:rgb(10.112%,40.585327%,73.280334%);fill-opacity:1;" d="M 22.910156 45.992188 L 22.796875 45.558594 C 22.835938 45.554688 22.894531 45.546875 22.933594 45.546875 C 22.964844 45.550781 23.015625 45.558594 23.039062 45.566406 L 23.078125 45.570312 L 23.148438 45.589844 L 22.910156 45.992188 "/>
<path style=" stroke:none;fill-rule:nonzero;fill:rgb(10.112%,40.585327%,73.280334%);fill-opacity:1;" d="M 23.46875 46.621094 L 23.804688 46.035156 L 23.871094 46.136719 L 23.902344 46.183594 C 23.957031 46.269531 24.023438 46.394531 24.054688 46.5 C 24.066406 46.535156 24.078125 46.589844 24.085938 46.628906 L 23.46875 46.621094 "/>
<path style=" stroke:none;fill-rule:nonzero;fill:rgb(10.112%,40.585327%,73.280334%);fill-opacity:1;" d="M 23.304688 47.546875 L 23.996094 47.539062 C 23.988281 47.558594 23.933594 47.660156 23.921875 47.675781 C 23.914062 47.691406 23.894531 47.71875 23.882812 47.738281 C 23.816406 47.832031 23.742188 47.921875 23.664062 47.992188 C 23.652344 48.007812 23.613281 48.039062 23.597656 48.050781 L 23.472656 48.152344 L 23.304688 47.546875 "/>
<path style=" stroke:none;fill-rule:nonzero;fill:rgb(10.112%,40.585327%,73.280334%);fill-opacity:1;" d="M 31.792969 46.339844 C 31.738281 46.371094 31.675781 46.421875 31.628906 46.476562 C 31.597656 46.523438 31.566406 46.570312 31.542969 46.628906 L 27.472656 46.671875 C 27.503906 45.683594 27.832031 44.726562 28.414062 43.941406 C 28.84375 43.363281 29.398438 42.894531 30.035156 42.574219 L 31.792969 46.339844 "/>
</g>
</svg>
