<?xml version="1.0" encoding="UTF-8"?>
<svg xmlns="http://www.w3.org/2000/svg" xmlns:xlink="http://www.w3.org/1999/xlink" width="101pt" height="101pt" viewBox="0 0 101 101" version="1.1">
<g id="surface1">
<path style=" stroke:none;fill-rule:nonzero;fill:rgb(13.729858%,12.159729%,12.548828%);fill-opacity:1;" d="M 50.519531 100.28125 L 100.628906 50.175781 L 50.519531 0.0625 L 0.410156 50.175781 L 50.519531 100.28125 "/>
<path style=" stroke:none;fill-rule:nonzero;fill:rgb(100%,100%,100%);fill-opacity:1;" d="M 70.566406 40.152344 L 80.585938 50.171875 L 50.519531 80.238281 L 40.5 70.214844 L 32.980469 77.730469 L 50.519531 95.269531 L 95.621094 50.171875 L 78.085938 32.632812 L 70.566406 40.152344 "/>
<path style=" stroke:none;fill-rule:nonzero;fill:rgb(100%,100%,100%);fill-opacity:1;" d="M 30.476562 60.195312 L 20.453125 50.171875 L 50.519531 20.105469 L 60.542969 30.128906 L 68.0625 22.609375 L 50.519531 5.070312 L 5.417969 50.171875 L 22.960938 67.714844 L 30.476562 60.195312 "/>
<path style=" stroke:none;fill-rule:nonzero;fill:rgb(98.937988%,82.48291%,7.633972%);fill-opacity:1;" d="M 69.363281 41.351562 L 41.699219 69.015625 L 50.519531 77.832031 L 78.179688 50.171875 L 69.363281 41.351562 "/>
<path style=" stroke:none;fill-rule:nonzero;fill:rgb(98.937988%,82.48291%,7.633972%);fill-opacity:1;" d="M 31.679688 58.996094 L 59.34375 31.328125 L 50.519531 22.507812 L 22.855469 50.171875 L 31.679688 58.996094 "/>
</g>
</svg>
