<?xml version="1.0" encoding="UTF-8"?>
<svg xmlns="http://www.w3.org/2000/svg" xmlns:xlink="http://www.w3.org/1999/xlink" width="73pt" height="72pt" viewBox="0 0 73 72" version="1.1">
<g id="surface1">
<path style=" stroke:none;fill-rule:nonzero;fill:rgb(100%,100%,100%);fill-opacity:1;" d="M 1.085938 71.605469 L 71.953125 71.605469 L 71.953125 0.738281 L 1.085938 0.738281 Z M 1.085938 71.605469 "/>
<path style="fill:none;stroke-width:2.835;stroke-linecap:butt;stroke-linejoin:miter;stroke:rgb(13.729858%,12.159729%,12.548828%);stroke-opacity:1;stroke-miterlimit:4;" d="M 10.859375 3.945312 L 719.53125 3.945312 L 719.53125 712.617188 L 10.859375 712.617188 L 10.859375 3.945312 " transform="matrix(0.1,0,0,-0.1,0,72)"/>
<path style=" stroke:none;fill-rule:nonzero;fill:rgb(10.112%,40.585327%,73.280334%);fill-opacity:1;" d="M 2.503906 70.1875 L 70.53125 70.1875 L 70.53125 2.15625 L 2.503906 2.15625 Z M 2.503906 70.1875 "/>
<path style=" stroke:none;fill-rule:nonzero;fill:rgb(100%,100%,100%);fill-opacity:1;" d="M 24.023438 46.238281 L 25.898438 10.632812 L 15.957031 10.632812 L 17.914062 46.238281 L 11.179688 44.714844 C 10.914062 44.664062 10.648438 44.746094 10.480469 44.960938 C 10.265625 45.191406 10.25 45.542969 10.429688 45.824219 L 20.105469 60.488281 C 20.289062 60.773438 20.605469 60.953125 20.9375 60.953125 C 21.300781 60.972656 21.632812 60.789062 21.832031 60.488281 L 31.457031 45.777344 C 31.621094 45.523438 31.601562 45.191406 31.4375 44.960938 C 31.273438 44.714844 30.972656 44.613281 30.707031 44.664062 L 24.023438 46.238281 "/>
<path style=" stroke:none;fill-rule:nonzero;fill:rgb(100%,100%,100%);fill-opacity:1;" d="M 55.191406 26.085938 L 57.066406 61.691406 L 47.125 61.691406 L 49.085938 26.085938 L 42.347656 27.609375 C 42.082031 27.660156 41.816406 27.578125 41.652344 27.363281 C 41.433594 27.132812 41.417969 26.78125 41.601562 26.5 L 51.273438 11.835938 C 51.457031 11.550781 51.773438 11.371094 52.105469 11.371094 C 52.46875 11.351562 52.800781 11.535156 53 11.835938 L 62.625 26.546875 C 62.789062 26.800781 62.773438 27.132812 62.605469 27.363281 C 62.441406 27.609375 62.140625 27.710938 61.875 27.660156 L 55.191406 26.085938 "/>
<path style=" stroke:none;fill-rule:nonzero;fill:rgb(93.527222%,17.272949%,18.882751%);fill-opacity:1;" d="M 23.265625 47.144531 L 25.148438 11.34375 L 16.707031 11.34375 L 18.675781 47.136719 L 11.035156 45.40625 C 11.03125 45.40625 11.027344 45.417969 11.019531 45.421875 L 11.027344 45.433594 L 20.699219 60.101562 C 20.761719 60.203125 20.863281 60.246094 20.9375 60.246094 C 21.085938 60.246094 21.183594 60.183594 21.238281 60.101562 L 30.859375 45.386719 C 30.859375 45.375 30.855469 45.363281 30.855469 45.363281 L 30.847656 45.359375 L 23.265625 47.144531 "/>
</g>
</svg>
