<?xml version="1.0" encoding="UTF-8"?>
<svg xmlns="http://www.w3.org/2000/svg" xmlns:xlink="http://www.w3.org/1999/xlink" width="41pt" height="113pt" viewBox="0 0 41 113" version="1.1">
<g id="surface1">
<path style=" stroke:none;fill-rule:nonzero;fill:rgb(93.527222%,17.272949%,18.882751%);fill-opacity:1;" d="M 14.507812 38.46875 L 0.0390625 69.496094 L 2.671875 76.734375 L 9.914062 74.097656 L 20.519531 51.359375 L 31.121094 74.097656 L 38.359375 76.734375 L 41 69.496094 L 26.53125 38.46875 L 41 7.4375 L 38.359375 0.199219 L 31.121094 2.832031 L 20.515625 25.574219 L 9.914062 2.832031 L 2.671875 0.199219 L 0.0390625 7.4375 L 14.507812 38.46875 "/>
<path style=" stroke:none;fill-rule:nonzero;fill:rgb(93.527222%,17.272949%,18.882751%);fill-opacity:1;" d="M 20.515625 60.984375 L 0.0390625 104.90625 L 2.671875 112.144531 L 9.914062 109.511719 L 20.519531 86.769531 L 31.121094 109.511719 L 38.359375 112.144531 L 41 104.90625 L 20.515625 60.984375 "/>
<path style=" stroke:none;fill-rule:nonzero;fill:rgb(100%,100%,100%);fill-opacity:1;" d="M 20.519531 30.730469 L 31.601562 6.96875 L 37.527344 9.730469 L 24.125 38.46875 L 37.527344 67.203125 L 31.601562 69.964844 L 20.519531 46.199219 L 9.4375 69.964844 L 3.511719 67.203125 L 16.914062 38.46875 L 3.511719 9.730469 L 9.4375 6.96875 L 20.519531 30.730469 "/>
<path style=" stroke:none;fill-rule:nonzero;fill:rgb(100%,100%,100%);fill-opacity:1;" d="M 20.519531 66.144531 L 37.527344 102.613281 L 31.601562 105.378906 L 20.519531 81.609375 L 9.4375 105.378906 L 3.511719 102.613281 L 20.519531 66.144531 "/>
</g>
</svg>
