<?xml version="1.0" encoding="UTF-8"?>
<svg xmlns="http://www.w3.org/2000/svg" xmlns:xlink="http://www.w3.org/1999/xlink" width="72pt" height="72pt" viewBox="0 0 72 72" version="1.1">
<g id="surface1">
<path style=" stroke:none;fill-rule:nonzero;fill:rgb(100%,100%,100%);fill-opacity:1;" d="M 0.394531 71.453125 L 71.257812 71.453125 L 71.257812 0.585938 L 0.394531 0.585938 Z M 0.394531 71.453125 "/>
<path style="fill:none;stroke-width:2.835;stroke-linecap:butt;stroke-linejoin:miter;stroke:rgb(13.729858%,12.159729%,12.548828%);stroke-opacity:1;stroke-miterlimit:4;" d="M 3.945312 5.46875 L 712.617188 5.46875 L 712.617188 714.140625 L 3.945312 714.140625 L 3.945312 5.46875 " transform="matrix(0.1,0,0,-0.1,0,72)"/>
<path style=" stroke:none;fill-rule:nonzero;fill:rgb(10.112%,40.585327%,73.280334%);fill-opacity:1;" d="M 1.8125 70.035156 L 69.84375 70.035156 L 69.84375 2 L 1.8125 2 Z M 1.8125 70.035156 "/>
<path style=" stroke:none;fill-rule:nonzero;fill:rgb(98.937988%,82.48291%,7.633972%);fill-opacity:1;" d="M 7.480469 34.683594 L 20.390625 21.96875 L 20.972656 22.417969 C 20.882812 22.722656 20.773438 23.046875 20.683594 23.351562 C 20.425781 24.257812 20.300781 25.230469 20.410156 26.167969 C 20.644531 28.152344 21.371094 30.117188 22.3125 31.886719 C 22.875 32.898438 23.4375 33.871094 24.050781 34.828125 C 24.21875 35.078125 24.433594 35.441406 24.613281 35.695312 C 24.65625 34.898438 24.871094 33.78125 24.996094 33.003906 C 25.378906 30.785156 26.792969 27.828125 28.644531 25.773438 C 29.710938 24.582031 31.050781 23.609375 32.484375 22.867188 C 35.332031 21.40625 38.578125 20.8125 41.769531 21.296875 C 43.925781 21.621094 45.972656 22.542969 47.769531 23.769531 C 49.238281 24.761719 50.507812 25.988281 51.542969 27.414062 C 52.5 28.75 53.210938 30.265625 53.664062 31.835938 C 53.988281 32.933594 54.1875 34.070312 54.261719 35.207031 C 54.296875 35.945312 54.277344 37.03125 54.261719 37.765625 L 60.152344 31.835938 C 60.351562 31.632812 60.351562 31.183594 60.316406 30.914062 L 60.28125 30.464844 L 60.679688 29.882812 L 64.179688 33.257812 C 63.996094 33.347656 63.742188 33.4375 63.5625 33.472656 C 63.457031 33.488281 63.273438 33.472656 63.164062 33.472656 C 63.035156 33.472656 62.816406 33.472656 62.691406 33.511719 C 62.402344 33.566406 62.148438 33.78125 61.945312 33.996094 L 52.050781 44.515625 C 50.488281 46.191406 48.605469 47.90625 46.609375 49.042969 C 44.128906 50.484375 41.1875 51.027344 38.304688 50.863281 C 36.621094 50.773438 34.859375 50.449219 33.320312 49.726562 C 31.433594 48.84375 29.617188 47.492188 28.042969 46.117188 C 27.390625 45.542969 26.71875 44.945312 26.066406 44.367188 C 24.996094 43.394531 23.855469 42.386719 22.730469 41.464844 C 20.71875 39.785156 18.542969 38.324219 16.207031 37.15625 C 14.734375 36.394531 12.847656 35.601562 11.21875 35.386719 C 10.472656 35.296875 9.675781 35.316406 8.933594 35.40625 C 8.460938 35.460938 7.953125 35.515625 7.5 35.585938 L 7.480469 34.683594 "/>
<path style=" stroke:none;fill-rule:nonzero;fill:rgb(10.112%,40.585327%,73.280334%);fill-opacity:1;" d="M 39.476562 26.339844 C 44.832031 26.339844 49.175781 30.667969 49.175781 35.996094 C 49.175781 41.324219 44.832031 45.652344 39.476562 45.652344 C 34.125 45.652344 29.78125 41.324219 29.78125 35.996094 C 29.78125 30.667969 34.125 26.339844 39.476562 26.339844 "/>
</g>
</svg>
