<?xml version="1.0" encoding="UTF-8"?>
<svg xmlns="http://www.w3.org/2000/svg" xmlns:xlink="http://www.w3.org/1999/xlink" width="73pt" height="100pt" viewBox="0 0 73 100" version="1.1">
<g id="surface1">
<path style=" stroke:none;fill-rule:nonzero;fill:rgb(100%,100%,100%);fill-opacity:1;" d="M 1.085938 99.78125 L 71.953125 99.78125 L 71.953125 0.566406 L 1.085938 0.566406 Z M 1.085938 99.78125 "/>
<path style="fill:none;stroke-width:2.835;stroke-linecap:butt;stroke-linejoin:miter;stroke:rgb(13.729858%,12.159729%,12.548828%);stroke-opacity:1;stroke-miterlimit:4;" d="M 10.859375 2.1875 L 719.53125 2.1875 L 719.53125 994.335938 L 10.859375 994.335938 L 10.859375 2.1875 " transform="matrix(0.1,0,0,-0.1,0,100)"/>
<path style=" stroke:none;fill-rule:nonzero;fill:rgb(10.112%,40.585327%,73.280334%);fill-opacity:1;" d="M 2.5 98.363281 L 70.53125 98.363281 L 70.53125 1.984375 L 2.5 1.984375 Z M 2.5 98.363281 "/>
<path style=" stroke:none;fill-rule:nonzero;fill:rgb(100%,100%,100%);fill-opacity:1;" d="M 30.144531 53.71875 L 22.347656 53.71875 L 22.347656 9.777344 L 44.320312 9.777344 C 46.128906 9.777344 47.785156 10.011719 49.4375 11.902344 C 50.855469 13.554688 50.777344 16.074219 50.777344 16.074219 L 50.777344 30.800781 C 50.777344 31.824219 50.226562 34.265625 48.886719 35.605469 C 47.785156 36.867188 45.96875 37.574219 44.320312 37.574219 L 30.144531 37.574219 L 30.144531 53.71875 "/>
<path style=" stroke:none;fill-rule:nonzero;fill:rgb(10.112%,40.585327%,73.280334%);fill-opacity:1;" d="M 30.136719 30.804688 L 30.136719 16.710938 L 41.320312 16.710938 C 41.789062 16.710938 42.5 16.710938 42.816406 17.105469 C 43.050781 17.496094 43.050781 17.65625 43.050781 18.363281 L 43.050781 29.15625 C 43.050781 29.707031 42.898438 30.097656 42.65625 30.335938 C 42.34375 30.648438 41.949219 30.804688 41.398438 30.804688 L 30.136719 30.804688 "/>
<path style=" stroke:none;fill-rule:nonzero;fill:rgb(100%,100%,100%);fill-opacity:1;" d="M 20.21875 57.96875 L 52.816406 57.96875 L 52.816406 90.566406 L 20.21875 90.566406 L 20.21875 57.96875 "/>
<path style=" stroke:none;fill-rule:nonzero;fill:rgb(10.112%,40.585327%,73.280334%);fill-opacity:1;" d="M 36.515625 59.914062 C 40.347656 59.914062 43.96875 61.53125 46.765625 64.183594 C 49.523438 66.75 50.84375 70.5625 50.800781 74.332031 C 50.71875 78.144531 49.195312 81.746094 46.476562 84.398438 C 43.804688 86.964844 40.265625 88.414062 36.558594 88.414062 C 32.8125 88.414062 29.234375 86.921875 26.558594 84.269531 C 23.882812 81.703125 22.359375 78.144531 22.320312 74.414062 C 22.234375 70.5625 23.554688 66.664062 26.394531 64.058594 C 29.152344 61.53125 32.734375 59.914062 36.515625 59.914062 "/>
<path style=" stroke:none;fill-rule:nonzero;fill:rgb(100%,100%,100%);fill-opacity:1;" d="M 36.515625 60.785156 C 40.09375 60.785156 43.554688 62.316406 46.191406 64.800781 C 48.78125 67.207031 50.015625 70.765625 49.972656 74.332031 C 49.933594 77.890625 48.453125 81.328125 45.902344 83.8125 C 43.390625 86.21875 40.015625 87.542969 36.554688 87.542969 C 33.058594 87.542969 29.683594 86.136719 27.171875 83.691406 C 24.660156 81.246094 23.222656 77.890625 23.140625 74.414062 C 23.054688 70.808594 24.292969 67.164062 26.925781 64.71875 C 29.558594 62.273438 32.933594 60.785156 36.515625 60.785156 "/>
<path style=" stroke:none;fill-rule:nonzero;fill:rgb(10.112%,40.585327%,73.280334%);fill-opacity:1;" d="M 25.652344 69.152344 L 33.226562 72.671875 C 33.226562 72.714844 33.183594 72.796875 33.183594 72.796875 C 33.101562 73.046875 33.019531 73.25 32.976562 73.460938 C 32.9375 73.707031 32.894531 73.914062 32.894531 74.121094 C 32.894531 74.371094 32.9375 74.65625 32.976562 74.90625 C 33.019531 75.113281 33.101562 75.28125 33.183594 75.484375 C 33.226562 75.53125 33.265625 75.613281 33.265625 75.65625 L 25.734375 79.132812 C 25.691406 79.089844 25.652344 79.007812 25.609375 78.921875 C 25.445312 78.554688 25.28125 78.097656 25.160156 77.683594 C 24.992188 77.0625 24.828125 76.484375 24.746094 75.859375 C 24.660156 75.28125 24.621094 74.65625 24.621094 74.078125 C 24.621094 73.542969 24.660156 73.003906 24.746094 72.464844 C 24.789062 71.964844 24.910156 71.429688 25.03125 70.933594 C 25.160156 70.433594 25.320312 69.894531 25.53125 69.398438 C 25.570312 69.316406 25.609375 69.234375 25.652344 69.152344 "/>
<path style=" stroke:none;fill-rule:nonzero;fill:rgb(10.112%,40.585327%,73.280334%);fill-opacity:1;" d="M 47.34375 69.113281 C 47.386719 69.199219 47.425781 69.320312 47.46875 69.402344 C 47.796875 70.066406 48.042969 70.808594 48.167969 71.554688 C 48.414062 72.59375 48.496094 73.710938 48.457031 74.746094 C 48.414062 75.449219 48.289062 76.15625 48.167969 76.820312 C 48 77.519531 47.757812 78.226562 47.507812 78.925781 C 47.46875 78.96875 47.425781 79.136719 47.386719 79.21875 L 39.894531 75.699219 C 39.933594 75.617188 39.933594 75.53125 39.976562 75.488281 C 40.058594 75.285156 40.097656 75.078125 40.144531 74.910156 C 40.222656 74.707031 40.222656 74.457031 40.222656 74.246094 C 40.222656 74.042969 40.179688 73.792969 40.144531 73.546875 C 40.097656 73.335938 40.058594 73.089844 39.976562 72.882812 C 39.933594 72.800781 39.894531 72.71875 39.894531 72.675781 L 47.34375 69.113281 "/>
</g>
</svg>
