<?xml version="1.0" encoding="UTF-8"?>
<svg xmlns="http://www.w3.org/2000/svg" xmlns:xlink="http://www.w3.org/1999/xlink" width="73pt" height="42pt" viewBox="0 0 73 42" version="1.1">
<g id="surface1">
<path style="fill-rule:nonzero;fill:rgb(100%,100%,100%);fill-opacity:1;stroke-width:2.835;stroke-linecap:butt;stroke-linejoin:round;stroke:rgb(13.729858%,12.159729%,12.548828%);stroke-opacity:1;stroke-miterlimit:4;" d="M 719.53125 393.046875 L 719.53125 6.953125 L 10.859375 6.953125 L 10.859375 345.820312 L 240.3125 403.828125 L 308.164062 373.515625 L 399.0625 409.570312 L 472.617188 383.59375 L 521.679688 403.828125 L 637.148438 351.875 L 719.53125 393.046875 " transform="matrix(0.1,0,0,-0.1,0,42)"/>
<path style=" stroke:none;fill-rule:nonzero;fill:rgb(10.112%,40.585327%,73.280334%);fill-opacity:1;" d="M 70.53125 3.402344 L 70.53125 39.886719 L 2.503906 39.886719 L 2.503906 7.058594 L 24.03125 1.617188 L 30.816406 4.648438 L 39.90625 1.042969 L 47.261719 3.640625 L 52.167969 1.617188 L 63.714844 6.8125 L 70.53125 3.402344 "/>
<path style=" stroke:none;fill-rule:nonzero;fill:rgb(100%,100%,100%);fill-opacity:1;" d="M 49.277344 31.542969 L 49.277344 23.464844 L 44.46875 23.464844 C 44.332031 23.464844 44.199219 23.464844 44.070312 23.328125 C 43.933594 23.199219 43.933594 23.0625 43.933594 22.929688 L 43.933594 16.582031 C 43.933594 16.453125 43.933594 16.320312 44.070312 16.183594 C 44.199219 16.050781 44.265625 16.050781 44.398438 16.050781 L 49.210938 16.050781 L 49.210938 14.980469 L 27.90625 14.980469 C 27.503906 15.046875 27.171875 15.113281 26.835938 15.316406 C 26.503906 15.585938 26.234375 15.917969 26.101562 16.320312 L 23.828125 24.863281 C 23.765625 25.199219 23.765625 25.269531 23.765625 25.46875 L 23.765625 30.742188 C 23.765625 30.941406 23.894531 31.144531 24.03125 31.277344 C 24.230469 31.410156 24.433594 31.542969 24.699219 31.542969 L 34.382812 31.542969 C 34.648438 31.542969 34.917969 31.476562 35.117188 31.34375 C 35.25 31.210938 35.382812 31.011719 35.382812 30.742188 C 35.25 27.871094 37.65625 25.46875 40.527344 25.667969 C 43.066406 25.800781 45.132812 27.871094 45.132812 30.476562 C 45.132812 30.742188 45.203125 31.011719 45.402344 31.210938 C 45.601562 31.410156 45.871094 31.542969 46.136719 31.542969 L 49.277344 31.542969 "/>
<path style=" stroke:none;fill-rule:nonzero;fill:rgb(100%,100%,100%);fill-opacity:1;" d="M 40.460938 34.214844 C 42.863281 34.011719 44.464844 31.742188 43.796875 29.40625 C 43.0625 26.800781 39.722656 25.867188 37.71875 27.738281 C 37.121094 28.269531 36.785156 28.9375 36.585938 29.742188 C 36.453125 30.476562 36.519531 31.210938 36.851562 31.945312 C 37.121094 32.679688 37.652344 33.210938 38.324219 33.683594 C 38.988281 34.082031 39.722656 34.214844 40.460938 34.214844 "/>
<path style=" stroke:none;fill-rule:nonzero;fill:rgb(10.112%,40.585327%,73.280334%);fill-opacity:1;" d="M 42.859375 23 L 42.859375 16.71875 C 42.859375 16.585938 42.859375 16.382812 42.792969 16.253906 C 42.65625 16.117188 42.527344 16.050781 42.328125 16.050781 L 36.046875 16.050781 C 35.847656 16.050781 35.648438 15.984375 35.445312 16.1875 C 35.3125 16.320312 35.3125 16.519531 35.3125 16.652344 L 35.3125 22.929688 C 35.3125 23.066406 35.378906 23.195312 35.515625 23.328125 C 35.648438 23.464844 35.78125 23.464844 35.980469 23.464844 L 42.394531 23.464844 C 42.527344 23.464844 42.65625 23.398438 42.726562 23.328125 C 42.792969 23.261719 42.859375 23.128906 42.859375 23 "/>
<path style=" stroke:none;fill-rule:nonzero;fill:rgb(10.112%,40.585327%,73.280334%);fill-opacity:1;" d="M 34.320312 24.792969 L 34.320312 16.910156 C 34.320312 16.378906 33.917969 15.980469 33.449219 15.980469 C 32.984375 16.042969 32.648438 16.378906 32.582031 16.84375 L 32.648438 24.859375 C 32.582031 25.328125 32.984375 25.796875 33.519531 25.796875 C 33.984375 25.730469 34.386719 25.328125 34.320312 24.792969 "/>
<path style=" stroke:none;fill-rule:nonzero;fill:rgb(10.112%,40.585327%,73.280334%);fill-opacity:1;" d="M 31.578125 24.929688 L 31.511719 16.910156 C 31.578125 16.378906 31.175781 15.980469 30.710938 15.980469 C 30.242188 15.980469 29.839844 16.378906 29.839844 16.84375 L 29.839844 24.792969 C 29.773438 25.328125 30.175781 25.796875 30.710938 25.796875 C 31.175781 25.796875 31.511719 25.394531 31.578125 24.929688 "/>
<path style=" stroke:none;fill-rule:nonzero;fill:rgb(10.112%,40.585327%,73.280334%);fill-opacity:1;" d="M 28.90625 25.066406 L 28.839844 16.855469 C 28.839844 16.453125 28.574219 16.1875 28.171875 16.050781 C 27.773438 15.984375 27.371094 16.117188 27.167969 16.523438 L 24.898438 24.933594 C 24.898438 25 24.765625 25.269531 24.898438 25.46875 C 25.03125 25.667969 25.234375 25.667969 25.367188 25.667969 L 28.441406 25.667969 C 28.574219 25.667969 28.640625 25.601562 28.703125 25.535156 C 28.839844 25.402344 28.90625 25.269531 28.90625 25.066406 "/>
<path style=" stroke:none;fill-rule:nonzero;fill:rgb(10.112%,40.585327%,73.280334%);fill-opacity:1;" d="M 40.269531 28.351562 C 41.429688 28.351562 42.378906 29.296875 42.378906 30.460938 C 42.378906 31.621094 41.429688 32.570312 40.269531 32.570312 C 39.105469 32.570312 38.160156 31.621094 38.160156 30.460938 C 38.160156 29.296875 39.105469 28.351562 40.269531 28.351562 "/>
</g>
</svg>
