<?xml version="1.0" encoding="UTF-8"?>
<svg xmlns="http://www.w3.org/2000/svg" xmlns:xlink="http://www.w3.org/1999/xlink" width="72pt" height="72pt" viewBox="0 0 72 72" version="1.1">
<g id="surface1">
<path style=" stroke:none;fill-rule:nonzero;fill:rgb(100%,100%,100%);fill-opacity:1;" d="M 0.394531 71.453125 L 71.257812 71.453125 L 71.257812 0.585938 L 0.394531 0.585938 Z M 0.394531 71.453125 "/>
<path style="fill:none;stroke-width:2.835;stroke-linecap:butt;stroke-linejoin:miter;stroke:rgb(13.729858%,12.159729%,12.548828%);stroke-opacity:1;stroke-miterlimit:4;" d="M 3.945312 5.46875 L 712.617188 5.46875 L 712.617188 714.140625 L 3.945312 714.140625 L 3.945312 5.46875 " transform="matrix(0.1,0,0,-0.1,0,72)"/>
<path style=" stroke:none;fill-rule:nonzero;fill:rgb(10.112%,40.585327%,73.280334%);fill-opacity:1;" d="M 1.8125 2 L 69.84375 2 L 69.84375 70.035156 L 1.8125 70.035156 L 1.8125 2 "/>
<path style=" stroke:none;fill-rule:nonzero;fill:rgb(100%,100%,100%);fill-opacity:1;" d="M 7.480469 20.964844 L 27.484375 11.21875 L 64.171875 21.144531 L 64.171875 25.390625 L 27.484375 15.550781 L 7.480469 25.390625 L 7.480469 20.964844 "/>
<path style=" stroke:none;fill-rule:nonzero;fill:rgb(100%,100%,100%);fill-opacity:1;" d="M 23.78125 60.820312 L 23.78125 25.386719 L 39.636719 25.386719 C 39.910156 25.386719 40.230469 25.417969 40.507812 25.453125 C 41.3125 25.550781 42.09375 25.800781 42.8125 26.175781 C 43.503906 26.539062 44.125 27.011719 44.644531 27.589844 C 45.109375 28.09375 45.488281 28.671875 45.78125 29.292969 C 46.039062 29.839844 46.230469 30.421875 46.335938 31.019531 C 46.386719 31.320312 46.457031 31.761719 46.457031 32.066406 L 46.433594 40.722656 C 46.433594 40.957031 46.359375 41.382812 46.316406 41.613281 C 46.175781 42.34375 45.910156 43.039062 45.539062 43.675781 C 45.164062 44.3125 44.691406 44.890625 44.136719 45.371094 C 43.632812 45.8125 43.070312 46.175781 42.46875 46.453125 C 41.820312 46.753906 41.121094 46.964844 40.40625 47.035156 C 40.136719 47.058594 39.863281 47.074219 39.59375 47.074219 L 29.730469 47.074219 L 29.730469 60.820312 L 23.78125 60.820312 "/>
<path style=" stroke:none;fill-rule:nonzero;fill:rgb(100%,100%,100%);fill-opacity:1;" d="M 53.539062 50.195312 L 46.457031 50.195312 L 46.457031 53.734375 L 53.539062 53.734375 L 53.539062 60.820312 L 57.082031 60.820312 L 57.082031 53.734375 L 64.167969 53.734375 L 64.167969 50.195312 L 57.082031 50.195312 L 57.082031 43.105469 L 53.539062 43.105469 L 53.539062 50.195312 "/>
<path style=" stroke:none;fill-rule:nonzero;fill:rgb(10.112%,40.585327%,73.280334%);fill-opacity:1;" d="M 29.726562 41.527344 L 29.726562 30.996094 L 39.679688 30.996094 C 39.761719 30.996094 39.847656 31.003906 39.925781 31.03125 C 39.976562 31.046875 40.042969 31.085938 40.089844 31.109375 C 40.136719 31.144531 40.207031 31.1875 40.25 31.222656 C 40.292969 31.269531 40.335938 31.328125 40.371094 31.378906 C 40.40625 31.4375 40.445312 31.503906 40.464844 31.566406 C 40.488281 31.632812 40.507812 31.710938 40.507812 31.78125 L 40.480469 40.660156 C 40.480469 40.734375 40.472656 40.816406 40.453125 40.886719 C 40.441406 40.949219 40.40625 41.015625 40.378906 41.070312 C 40.34375 41.132812 40.304688 41.199219 40.257812 41.246094 C 40.214844 41.296875 40.15625 41.34375 40.101562 41.386719 C 40.046875 41.421875 39.984375 41.460938 39.925781 41.484375 C 39.832031 41.519531 39.707031 41.527344 39.601562 41.527344 L 29.726562 41.527344 "/>
</g>
</svg>
