<svg width="838" height="600" xmlns="http://www.w3.org/2000/svg">
 <!-- Created with Method Draw - http://github.com/duopixel/Method-Draw/ -->

 <g>
  <title>background</title>
  <rect fill="#FFFFFF" opacity="0" id="canvas_background" height="602" width="840" y="-1" x="-1"/>
  <g display="none" overflow="visible" y="0" x="0" height="100%" width="100%" id="canvasGrid">
   <rect fill="url(#gridpattern)" stroke-width="0" y="0" x="0" height="100%" width="100%"/>
  </g>
 </g>
 <g>
  <title>Layer 1</title>
  <metadata transform="matrix(6.0966314075378705,0,0,6.0966314075378705,0,0) " id="svg_11">image/svg+xml</metadata>

  <g id="svg_13">
   <path fill="#ffffff" fill-rule="nonzero" id="svg_10" d="m177.05181,472.81327l483.89634,0l0,-345.62657l-483.89634,0l0,345.62657zm0,0"/>
   <path fill="none" stroke="#211e1e" stroke-width="0.2835" stroke-miterlimit="4" id="svg_9" d="m177.05181,472.81327l483.89634,0l0,-345.62657l-483.89634,0l0,345.62657"/>
   <path fill="#1966ba" fill-rule="nonzero" id="svg_8" d="m183.98198,465.90695l470.05979,0l0,-331.81392l-470.05979,0l0,331.81392zm0,0"/>
  </g>
  <text xml:space="default" dominant-baseline="middle" text-anchor="middle" font-family="sans-serif" font-size="70" id="svg_14" y="200" x="417.5" fill="#ffffff">param(text1)</text>
  <text xml:space="default" dominant-baseline="middle" text-anchor="middle" font-family="sans-serif" font-size="70" id="svg_15" y="324" x="417.5" fill="#ffffff">param(text2)</text>
  <text xml:space="default" dominant-baseline="middle" text-anchor="middle" font-family="sans-serif" font-size="70" id="svg_16" y="447" x="417.5" fill="#ffffff">param(text3)</text>
 </g>
</svg>