<?xml version="1.0" encoding="UTF-8" standalone="no"?>
<svg
   xmlns:dc="http://purl.org/dc/elements/1.1/"
   xmlns:cc="http://creativecommons.org/ns#"
   xmlns:rdf="http://www.w3.org/1999/02/22-rdf-syntax-ns#"
   xmlns:svg="http://www.w3.org/2000/svg"
   xmlns="http://www.w3.org/2000/svg"
   xmlns:sodipodi="http://sodipodi.sourceforge.net/DTD/sodipodi-0.dtd"
   xmlns:inkscape="http://www.inkscape.org/namespaces/inkscape"
   width="109"
   height="92"
   version="1.1"
   id="svg1986"
   sodipodi:docname="436.svg"
   inkscape:version="1.0.2 (e86c870879, 2021-01-15, custom)">
  <metadata
     id="metadata1992">
    <rdf:RDF>
      <cc:Work
         rdf:about="">
        <dc:format>image/svg+xml</dc:format>
        <dc:type
           rdf:resource="http://purl.org/dc/dcmitype/StillImage" />
        <dc:title></dc:title>
      </cc:Work>
    </rdf:RDF>
  </metadata>
  <defs
     id="defs1990" />
  <sodipodi:namedview
     pagecolor="#ffffff"
     bordercolor="#666666"
     borderopacity="1"
     objecttolerance="10"
     gridtolerance="10"
     guidetolerance="10"
     inkscape:pageopacity="0"
     inkscape:pageshadow="2"
     inkscape:window-width="1920"
     inkscape:window-height="1017"
     id="namedview1988"
     showgrid="false"
     inkscape:zoom="4.0069384"
     inkscape:cx="79.428312"
     inkscape:cy="15.376241"
     inkscape:window-x="3832"
     inkscape:window-y="-8"
     inkscape:window-maximized="1"
     inkscape:current-layer="svg1986" />
  <!-- Created with Method Draw - http://github.com/duopixel/Method-Draw/ -->
  <g
     id="g1970">
    <title
       id="title1964">background</title>
    <rect
       fill="#ffffff"
       opacity="0"
       id="canvas_background"
       height="602"
       width="713"
       y="-1"
       x="-1" />
    <g
       display="none"
       overflow="visible"
       y="0"
       x="0"
       height="100%"
       width="100%"
       id="canvasGrid">
      <rect
         fill="url(#gridpattern)"
         stroke-width="0"
         y="0"
         x="0"
         height="100%"
         width="100%"
         id="rect1967" />
    </g>
  </g>
  <g
     id="g1984"
     transform="matrix(0.32593762,0,0,0.32593762,-60.98809,-51.479772)">
    <title
       id="title1972">Layer 1</title>
    <metadata
       transform="matrix(3.0384605282670805,0,0,3.0384605282670805,0,0) "
       id="svg_17">image/svg+xml</metadata>
    <g
       id="svg_19">
      <path
         fill="#ffffff"
         fill-rule="nonzero"
         id="svg_16"
         d="M 191.85041,437.80487 H 519.14958 V 162.19514 H 191.85041 Z m 0,0" />
      <path
         fill="none"
         stroke="#211e1e"
         stroke-width="0.2835"
         stroke-miterlimit="4"
         id="svg_15"
         d="M 191.85041,437.80487 H 519.14958 V 162.19514 H 191.85041 v 275.60973" />
      <path
         fill="#1966ba"
         fill-rule="nonzero"
         id="svg_14"
         d="M 195.31617,434.33911 H 515.68385 V 165.64902 H 195.31617 Z m 0,0" />
      <path
         fill="#ffffff"
         fill-rule="nonzero"
         id="svg_13"
         d="m 436.38714,355.39851 c -0.46288,1.31745 -2.24323,1.22249 -2.61116,0 l -3.65566,-12.34375 -7.47744,4.30842 -67.14287,38.81159 v 34.42008 h -17.19817 v -34.42008 l -97.44437,-97.44437 -6.7297,10.84825 c -0.65281,1.21064 -2.43314,0.74777 -2.52809,-0.56971 l -1.6854,-31.97506 c 0,-0.84269 0.65278,-1.49547 1.4955,-1.4124 l 31.89196,1.6854 c 1.40055,0 1.78036,1.78036 0.65278,2.52809 l -10.9432,6.63475 6.07692,6.18375 11.03815,11.0263 77.33833,77.24335 66.57313,-38.43179 7.47747,-4.29657 -8.87799,-9.35275 c -0.93767,-0.93767 0,-2.52812 1.30557,-2.24327 l 31.33412,6.63478 c 0.74777,0.1899 1.21064,0.93764 1.02074,1.78036 l -9.91061,30.38461" />
      <path
         fill="#ffffff"
         fill-rule="nonzero"
         id="svg_12"
         d="M 208.21775,249.17107 H 346.05229 V 178.55059 H 208.21775 Z m 0,0" />
      <path
         fill="#007d45"
         fill-rule="nonzero"
         id="svg_11"
         d="M 211.68351,245.70531 H 342.59844 V 182.01635 H 211.68351 Z m 0,0" />
    </g>
    <text
       xml:space="default"
       dominant-baseline="middle"
       text-anchor="middle"
       font-family="sans-serif"
       font-size="24px"
       id="svg_20"
       y="222.10521"
       x="275"
       fill="#ffffff">param(text1)</text>
    <text
       xml:space="default"
       dominant-baseline="middle"
       text-anchor="middle"
       font-family="sans-serif"
       font-size="24px"
       id="svg_21"
       y="294.73685"
       x="440"
       fill="#ffffff">param(text2)</text>
  </g>
</svg>
