<?xml version="1.0" encoding="UTF-8"?>
<svg xmlns="http://www.w3.org/2000/svg" xmlns:xlink="http://www.w3.org/1999/xlink" width="97pt" height="65pt" viewBox="0 0 97 65" version="1.1">
<g id="surface1">
<path style=" stroke:none;fill-rule:nonzero;fill:rgb(13.729858%,12.159729%,12.548828%);fill-opacity:1;" d="M 0.101562 64.253906 L 0.101562 0.476562 L 96.476562 0.476562 L 96.476562 64.253906 L 0.101562 64.253906 M 0.246094 0.617188 L 0.246094 64.113281 L 96.335938 64.113281 L 96.335938 0.617188 L 0.246094 0.617188 "/>
<path style=" stroke:none;fill-rule:nonzero;fill:rgb(68.630981%,12.666321%,10.813904%);fill-opacity:1;" d="M 1.511719 43.464844 L 95.074219 43.464844 L 95.074219 62.847656 L 1.511719 62.847656 L 1.511719 43.464844 M 1.511719 1.882812 L 1.511719 21.253906 L 95.074219 21.253906 L 95.074219 1.882812 L 1.511719 1.882812 M 1.511719 22.679688 L 1.511719 42.0625 L 95.074219 42.0625 L 95.074219 22.679688 L 1.511719 22.679688 M 31.941406 15.152344 L 31.941406 10.855469 L 29.375 10.855469 L 29.375 11.894531 L 30.71875 11.894531 L 30.71875 14.328125 C 30.59375 14.394531 30.441406 14.433594 30.273438 14.472656 C 30.101562 14.507812 29.921875 14.523438 29.753906 14.523438 C 28.898438 14.507812 28.265625 14.214844 27.839844 13.613281 C 27.410156 13.023438 27.207031 12.226562 27.207031 11.207031 C 27.214844 10.257812 27.457031 9.507812 27.921875 8.953125 C 28.390625 8.402344 29 8.128906 29.761719 8.117188 C 30.109375 8.117188 30.453125 8.164062 30.773438 8.253906 C 31.105469 8.351562 31.410156 8.476562 31.695312 8.628906 L 31.730469 7.417969 C 31.5 7.3125 31.222656 7.222656 30.882812 7.160156 C 30.542969 7.089844 30.15625 7.054688 29.734375 7.054688 C 28.925781 7.0625 28.226562 7.238281 27.644531 7.597656 C 27.070312 7.949219 26.621094 8.449219 26.308594 9.085938 C 25.992188 9.722656 25.84375 10.460938 25.84375 11.3125 C 25.84375 12.109375 25.976562 12.824219 26.273438 13.46875 C 26.5625 14.113281 26.992188 14.625 27.574219 15 C 28.15625 15.382812 28.890625 15.574219 29.769531 15.582031 C 30.234375 15.582031 30.65625 15.539062 31.027344 15.449219 C 31.402344 15.359375 31.707031 15.257812 31.941406 15.152344 M 38.324219 12.769531 L 38.324219 12.351562 C 38.304688 11.285156 38.089844 10.507812 37.675781 10.007812 C 37.265625 9.515625 36.710938 9.273438 36.027344 9.273438 C 35.246094 9.292969 34.648438 9.585938 34.21875 10.167969 C 33.792969 10.75 33.578125 11.511719 33.570312 12.460938 C 33.570312 13.066406 33.667969 13.59375 33.867188 14.058594 C 34.054688 14.523438 34.347656 14.894531 34.742188 15.160156 C 35.132812 15.417969 35.632812 15.5625 36.226562 15.5625 C 36.601562 15.5625 36.941406 15.519531 37.246094 15.449219 C 37.539062 15.378906 37.792969 15.285156 38 15.199219 L 37.933594 14.160156 C 37.785156 14.273438 37.578125 14.382812 37.328125 14.488281 C 37.085938 14.589844 36.78125 14.644531 36.429688 14.644531 C 35.867188 14.644531 35.453125 14.488281 35.191406 14.167969 C 34.941406 13.855469 34.816406 13.390625 34.816406 12.769531 L 38.324219 12.769531 M 37.105469 11.921875 C 37.105469 10.75 36.726562 10.167969 35.992188 10.15625 C 35.632812 10.15625 35.347656 10.320312 35.140625 10.621094 C 34.933594 10.925781 34.828125 11.355469 34.816406 11.921875 L 37.105469 11.921875 M 44.328125 15.464844 L 44.328125 11.375 C 44.335938 10.722656 44.1875 10.210938 43.898438 9.835938 C 43.601562 9.460938 43.152344 9.273438 42.535156 9.261719 C 41.808594 9.246094 41.28125 9.542969 40.941406 10.140625 L 40.921875 10.140625 C 40.921875 10.050781 40.910156 9.917969 40.90625 9.746094 C 40.886719 9.566406 40.875 9.433594 40.875 9.34375 L 39.703125 9.34375 C 39.726562 9.710938 39.746094 10.105469 39.757812 10.515625 L 39.757812 15.464844 L 40.996094 15.464844 L 40.996094 11.839844 C 40.996094 11.367188 41.089844 10.992188 41.289062 10.710938 C 41.484375 10.445312 41.785156 10.300781 42.167969 10.300781 C 42.484375 10.292969 42.714844 10.402344 42.867188 10.621094 C 43.019531 10.839844 43.09375 11.1875 43.09375 11.660156 L 43.09375 15.464844 L 44.328125 15.464844 M 48.8125 8.617188 L 48.039062 6.882812 L 46.75 6.882812 L 47.96875 8.617188 L 48.8125 8.617188 M 50.550781 12.78125 L 50.550781 12.359375 C 50.53125 11.296875 50.324219 10.515625 49.90625 10.015625 C 49.492188 9.523438 48.9375 9.28125 48.257812 9.28125 C 47.472656 9.296875 46.875 9.59375 46.445312 10.175781 C 46.023438 10.75 45.808594 11.519531 45.800781 12.46875 C 45.800781 13.074219 45.898438 13.605469 46.09375 14.070312 C 46.285156 14.535156 46.578125 14.902344 46.972656 15.167969 C 47.359375 15.429688 47.863281 15.574219 48.453125 15.574219 C 48.835938 15.574219 49.171875 15.527344 49.476562 15.457031 C 49.78125 15.382812 50.019531 15.292969 50.226562 15.207031 L 50.164062 14.167969 C 50.011719 14.285156 49.804688 14.394531 49.554688 14.5 C 49.3125 14.597656 49.007812 14.648438 48.65625 14.648438 C 48.09375 14.648438 47.683594 14.5 47.421875 14.175781 C 47.167969 13.863281 47.042969 13.398438 47.042969 12.78125 L 50.550781 12.78125 M 49.332031 11.929688 C 49.332031 10.757812 48.957031 10.175781 48.21875 10.167969 C 47.863281 10.167969 47.574219 10.328125 47.367188 10.632812 C 47.164062 10.9375 47.054688 11.367188 47.042969 11.929688 L 49.332031 11.929688 M 56.582031 9.371094 L 55.339844 9.371094 L 54.03125 14.285156 L 54 14.285156 L 52.710938 9.371094 L 51.394531 9.371094 L 53.257812 15.492188 L 54.730469 15.492188 L 56.582031 9.371094 M 62.214844 12.769531 L 62.214844 12.351562 C 62.207031 11.285156 61.992188 10.507812 61.578125 10.007812 C 61.15625 9.515625 60.609375 9.273438 59.917969 9.273438 C 59.148438 9.292969 58.546875 9.585938 58.117188 10.167969 C 57.695312 10.75 57.480469 11.511719 57.472656 12.460938 C 57.472656 13.066406 57.570312 13.59375 57.757812 14.058594 C 57.957031 14.523438 58.242188 14.894531 58.636719 15.160156 C 59.03125 15.417969 59.523438 15.5625 60.125 15.5625 C 60.503906 15.5625 60.84375 15.519531 61.148438 15.449219 C 61.441406 15.378906 61.695312 15.285156 61.890625 15.199219 L 61.835938 14.160156 C 61.675781 14.273438 61.476562 14.382812 61.226562 14.488281 C 60.976562 14.589844 60.679688 14.644531 60.332031 14.644531 C 59.769531 14.644531 59.355469 14.488281 59.09375 14.167969 C 58.835938 13.855469 58.710938 13.390625 58.71875 12.769531 L 62.214844 12.769531 M 60.992188 11.921875 C 60.992188 10.75 60.628906 10.167969 59.882812 10.15625 C 59.523438 10.15625 59.246094 10.320312 59.039062 10.621094 C 58.835938 10.925781 58.726562 11.355469 58.71875 11.921875 L 60.992188 11.921875 M 31.894531 35.910156 L 31.894531 27.589844 L 30.703125 27.589844 L 30.703125 34.175781 L 30.691406 34.175781 L 27.785156 27.589844 L 26.15625 27.589844 L 26.15625 35.910156 L 27.355469 35.910156 L 27.355469 29.390625 L 27.367188 29.390625 L 30.273438 35.910156 L 31.894531 35.910156 M 38.222656 29.792969 L 37.003906 29.792969 L 35.785156 34.605469 L 35.757812 34.605469 L 34.457031 29.792969 L 33.167969 29.792969 L 35.148438 35.984375 L 34.96875 36.71875 C 34.898438 37.03125 34.796875 37.246094 34.683594 37.371094 C 34.566406 37.496094 34.414062 37.558594 34.234375 37.550781 C 34.007812 37.539062 33.824219 37.503906 33.667969 37.433594 L 33.605469 38.445312 C 33.824219 38.519531 34.097656 38.554688 34.421875 38.5625 C 34.863281 38.5625 35.203125 38.445312 35.460938 38.195312 C 35.722656 37.953125 35.910156 37.59375 36.046875 37.121094 L 38.222656 29.792969 M 44.238281 32.84375 C 44.230469 32.109375 44.113281 31.519531 43.882812 31.054688 C 43.65625 30.589844 43.351562 30.25 42.957031 30.035156 C 42.574219 29.820312 42.132812 29.710938 41.65625 29.710938 C 41.171875 29.710938 40.734375 29.820312 40.347656 30.035156 C 39.953125 30.25 39.648438 30.589844 39.421875 31.054688 C 39.191406 31.519531 39.078125 32.109375 39.078125 32.84375 C 39.078125 33.597656 39.191406 34.195312 39.421875 34.660156 C 39.648438 35.125 39.953125 35.464844 40.347656 35.679688 C 40.734375 35.894531 41.171875 36.003906 41.65625 35.996094 C 42.132812 36.003906 42.574219 35.894531 42.957031 35.679688 C 43.351562 35.464844 43.65625 35.125 43.882812 34.660156 C 44.113281 34.195312 44.230469 33.597656 44.238281 32.84375 M 42.949219 32.84375 C 42.949219 32.199219 42.859375 31.671875 42.660156 31.269531 C 42.464844 30.859375 42.125 30.652344 41.65625 30.644531 C 41.179688 30.652344 40.851562 30.859375 40.652344 31.269531 C 40.457031 31.671875 40.355469 32.199219 40.367188 32.84375 C 40.355469 33.496094 40.457031 34.027344 40.652344 34.4375 C 40.851562 34.847656 41.179688 35.054688 41.65625 35.0625 C 42.125 35.054688 42.464844 34.847656 42.660156 34.4375 C 42.859375 34.027344 42.949219 33.496094 42.949219 32.84375 M 50.28125 35.894531 L 50.28125 31.796875 C 50.28125 31.152344 50.140625 30.632812 49.851562 30.257812 C 49.554688 29.890625 49.097656 29.695312 48.488281 29.683594 C 47.761719 29.675781 47.234375 29.96875 46.882812 30.570312 L 46.875 30.570312 C 46.875 30.480469 46.863281 30.347656 46.847656 30.167969 C 46.839844 30 46.828125 29.863281 46.828125 29.773438 L 45.65625 29.773438 C 45.679688 30.140625 45.699219 30.527344 45.699219 30.9375 L 45.699219 35.894531 L 46.949219 35.894531 L 46.949219 32.261719 C 46.949219 31.789062 47.042969 31.414062 47.242188 31.144531 C 47.4375 30.875 47.726562 30.734375 48.121094 30.722656 C 48.433594 30.722656 48.667969 30.828125 48.820312 31.042969 C 48.964844 31.269531 49.035156 31.609375 49.035156 32.082031 L 49.035156 35.894531 L 50.28125 35.894531 M 30.164062 56.941406 L 30.164062 55.886719 L 27.429688 55.886719 L 27.429688 48.621094 L 26.136719 48.621094 L 26.136719 56.941406 L 30.164062 56.941406 M 35.792969 56.941406 C 35.777344 56.828125 35.757812 56.683594 35.746094 56.503906 C 35.730469 56.324219 35.722656 56.136719 35.722656 55.933594 L 35.722656 53.023438 C 35.722656 52.621094 35.675781 52.28125 35.597656 52.011719 C 35.507812 51.742188 35.390625 51.519531 35.226562 51.351562 C 35.09375 51.191406 34.886719 51.046875 34.59375 50.929688 C 34.304688 50.8125 33.9375 50.75 33.472656 50.742188 C 33.085938 50.75 32.734375 50.796875 32.429688 50.886719 C 32.125 50.980469 31.855469 51.089844 31.636719 51.214844 L 31.730469 52.28125 C 31.894531 52.121094 32.125 51.976562 32.40625 51.859375 C 32.691406 51.742188 33.015625 51.679688 33.355469 51.671875 C 33.785156 51.671875 34.097656 51.785156 34.296875 52.03125 C 34.476562 52.265625 34.566406 52.574219 34.546875 52.949219 L 34.546875 53.203125 L 34.109375 53.203125 C 33.113281 53.203125 32.359375 53.363281 31.839844 53.695312 C 31.320312 54.035156 31.0625 54.554688 31.0625 55.253906 C 31.078125 55.832031 31.246094 56.273438 31.589844 56.578125 C 31.929688 56.882812 32.351562 57.03125 32.855469 57.03125 C 33.300781 57.023438 33.667969 56.953125 33.9375 56.800781 C 34.21875 56.648438 34.433594 56.453125 34.582031 56.207031 L 34.601562 56.207031 C 34.601562 56.296875 34.609375 56.421875 34.617188 56.59375 C 34.636719 56.757812 34.65625 56.871094 34.671875 56.941406 L 35.792969 56.941406 M 34.546875 54.5 L 34.546875 53.964844 C 34.503906 53.953125 34.441406 53.953125 34.367188 53.953125 C 34.289062 53.953125 34.207031 53.953125 34.136719 53.953125 C 32.898438 53.953125 32.269531 54.347656 32.253906 55.144531 C 32.261719 55.449219 32.339844 55.6875 32.515625 55.867188 C 32.675781 56.046875 32.914062 56.148438 33.238281 56.148438 C 33.667969 56.136719 34.003906 55.988281 34.222656 55.6875 C 34.441406 55.386719 34.546875 54.992188 34.546875 54.5 M 42.050781 56.941406 C 42.023438 56.582031 42.007812 56.191406 42.007812 55.777344 L 42.007812 50.820312 L 40.761719 50.820312 L 40.761719 54.453125 C 40.761719 54.929688 40.660156 55.304688 40.464844 55.574219 C 40.265625 55.851562 39.980469 55.988281 39.585938 55.992188 C 39.273438 55.992188 39.039062 55.886719 38.886719 55.671875 C 38.742188 55.449219 38.664062 55.109375 38.671875 54.632812 L 38.671875 50.820312 L 37.425781 50.820312 L 37.425781 54.917969 C 37.425781 55.574219 37.570312 56.082031 37.855469 56.457031 C 38.152344 56.835938 38.597656 57.023438 39.21875 57.03125 C 39.945312 57.050781 40.472656 56.757812 40.824219 56.148438 L 40.832031 56.148438 C 40.832031 56.238281 40.839844 56.367188 40.859375 56.546875 C 40.867188 56.71875 40.875 56.851562 40.875 56.941406 L 42.050781 56.941406 M 47.242188 55.179688 C 47.242188 54.824219 47.132812 54.519531 46.929688 54.285156 C 46.722656 54.054688 46.433594 53.828125 46.058594 53.632812 L 45.519531 53.328125 C 45.25 53.183594 45.046875 53.050781 44.894531 52.914062 C 44.742188 52.78125 44.671875 52.621094 44.660156 52.425781 C 44.660156 52.210938 44.742188 52.03125 44.894531 51.90625 C 45.046875 51.78125 45.269531 51.707031 45.585938 51.707031 C 46.085938 51.726562 46.507812 51.816406 46.839844 51.964844 L 46.902344 50.964844 C 46.769531 50.921875 46.589844 50.867188 46.34375 50.820312 C 46.09375 50.765625 45.816406 50.75 45.484375 50.742188 C 44.855469 50.761719 44.363281 50.9375 43.996094 51.28125 C 43.636719 51.617188 43.453125 52.019531 43.441406 52.496094 C 43.453125 52.925781 43.566406 53.253906 43.78125 53.503906 C 44.007812 53.757812 44.3125 53.964844 44.6875 54.144531 L 45.332031 54.464844 C 45.601562 54.597656 45.789062 54.738281 45.898438 54.882812 C 46.003906 55.027344 46.058594 55.179688 46.050781 55.332031 C 46.050781 55.574219 45.949219 55.753906 45.765625 55.878906 C 45.574219 56.003906 45.316406 56.066406 44.980469 56.066406 C 44.6875 56.058594 44.410156 56.011719 44.152344 55.914062 C 43.898438 55.824219 43.683594 55.734375 43.503906 55.636719 L 43.433594 56.707031 C 43.628906 56.800781 43.871094 56.882812 44.15625 56.933594 C 44.445312 56.996094 44.765625 57.03125 45.117188 57.03125 C 45.808594 57.023438 46.339844 56.84375 46.695312 56.511719 C 47.0625 56.171875 47.242188 55.734375 47.242188 55.179688 M 53.097656 56.941406 C 53.070312 56.828125 53.0625 56.683594 53.042969 56.503906 C 53.027344 56.324219 53.027344 56.136719 53.027344 55.933594 L 53.027344 53.023438 C 53.015625 52.621094 52.980469 52.28125 52.890625 52.011719 C 52.808594 51.742188 52.683594 51.519531 52.53125 51.351562 C 52.398438 51.191406 52.183594 51.046875 51.894531 50.929688 C 51.609375 50.8125 51.234375 50.75 50.773438 50.742188 C 50.390625 50.75 50.039062 50.796875 49.734375 50.886719 C 49.429688 50.980469 49.160156 51.089844 48.9375 51.214844 L 49.027344 52.28125 C 49.195312 52.121094 49.421875 51.976562 49.707031 51.859375 C 49.996094 51.742188 50.308594 51.679688 50.660156 51.671875 C 51.078125 51.671875 51.394531 51.785156 51.597656 52.03125 C 51.777344 52.265625 51.859375 52.574219 51.847656 52.949219 L 51.847656 53.203125 L 51.410156 53.203125 C 50.414062 53.203125 49.65625 53.363281 49.140625 53.695312 C 48.621094 54.035156 48.363281 54.554688 48.363281 55.253906 C 48.371094 55.832031 48.550781 56.273438 48.890625 56.578125 C 49.222656 56.882812 49.644531 57.03125 50.15625 57.03125 C 50.605469 57.023438 50.964844 56.953125 51.238281 56.800781 C 51.507812 56.648438 51.722656 56.453125 51.886719 56.207031 L 51.894531 56.207031 C 51.894531 56.296875 51.902344 56.421875 51.921875 56.59375 C 51.933594 56.757812 51.949219 56.871094 51.96875 56.941406 L 53.097656 56.941406 M 51.847656 54.5 L 51.847656 53.964844 C 51.804688 53.953125 51.742188 53.953125 51.664062 53.953125 C 51.582031 53.953125 51.507812 53.953125 51.429688 53.953125 C 50.191406 53.953125 49.574219 54.347656 49.554688 55.144531 C 49.554688 55.449219 49.636719 55.6875 49.804688 55.867188 C 49.976562 56.046875 50.21875 56.148438 50.53125 56.148438 C 50.96875 56.136719 51.304688 55.988281 51.519531 55.6875 C 51.742188 55.386719 51.847656 54.992188 51.847656 54.5 M 59.308594 56.925781 L 59.308594 52.824219 C 59.308594 52.179688 59.164062 51.660156 58.871094 51.285156 C 58.585938 50.921875 58.125 50.722656 57.515625 50.714844 C 56.789062 50.707031 56.253906 51 55.914062 51.601562 L 55.902344 51.601562 C 55.902344 51.511719 55.894531 51.375 55.875 51.195312 C 55.867188 51.027344 55.859375 50.894531 55.859375 50.800781 L 54.683594 50.800781 C 54.710938 51.171875 54.730469 51.554688 54.730469 51.964844 L 54.730469 56.925781 L 55.972656 56.925781 L 55.972656 53.289062 C 55.972656 52.820312 56.074219 52.441406 56.269531 52.171875 C 56.46875 51.90625 56.753906 51.761719 57.148438 51.75 C 57.460938 51.75 57.695312 51.859375 57.839844 52.074219 C 57.992188 52.300781 58.0625 52.640625 58.0625 53.113281 L 58.0625 56.925781 L 59.308594 56.925781 M 65.59375 56.925781 L 65.59375 52.824219 C 65.59375 52.179688 65.453125 51.660156 65.164062 51.285156 C 64.867188 50.921875 64.417969 50.722656 63.800781 50.714844 C 63.074219 50.707031 62.546875 51 62.207031 51.601562 L 62.1875 51.601562 C 62.1875 51.511719 62.175781 51.375 62.167969 51.195312 C 62.152344 51.027344 62.140625 50.894531 62.140625 50.800781 L 60.96875 50.800781 C 60.992188 51.171875 61.011719 51.554688 61.023438 51.964844 L 61.023438 56.925781 L 62.261719 56.925781 L 62.261719 53.289062 C 62.261719 52.820312 62.355469 52.441406 62.554688 52.171875 C 62.75 51.90625 63.046875 51.761719 63.433594 51.75 C 63.746094 51.75 63.980469 51.859375 64.132812 52.074219 C 64.273438 52.300781 64.355469 52.640625 64.355469 53.113281 L 64.355469 56.925781 L 65.59375 56.925781 M 71.816406 54.230469 L 71.816406 53.808594 C 71.796875 52.746094 71.582031 51.960938 71.171875 51.464844 C 70.757812 50.972656 70.203125 50.722656 69.523438 50.730469 C 68.738281 50.75 68.140625 51.046875 67.710938 51.625 C 67.285156 52.199219 67.074219 52.96875 67.066406 53.917969 C 67.066406 54.519531 67.160156 55.054688 67.351562 55.519531 C 67.550781 55.988281 67.84375 56.351562 68.238281 56.613281 C 68.625 56.882812 69.128906 57.011719 69.71875 57.023438 C 70.09375 57.011719 70.4375 56.976562 70.742188 56.90625 C 71.035156 56.828125 71.285156 56.746094 71.492188 56.648438 L 71.429688 55.609375 C 71.277344 55.734375 71.070312 55.84375 70.820312 55.9375 C 70.578125 56.039062 70.273438 56.09375 69.921875 56.101562 C 69.359375 56.101562 68.949219 55.9375 68.6875 55.628906 C 68.433594 55.3125 68.300781 54.847656 68.308594 54.230469 L 71.816406 54.230469 M 70.597656 53.378906 C 70.597656 52.210938 70.21875 51.617188 69.484375 51.617188 C 69.128906 51.617188 68.839844 51.769531 68.632812 52.074219 C 68.425781 52.390625 68.320312 52.820312 68.308594 53.378906 L 70.597656 53.378906 M 8.042969 52.238281 C 7.84375 52.1875 7.632812 52.164062 7.417969 52.164062 C 5.964844 52.164062 4.78125 53.34375 4.78125 54.792969 C 4.78125 56.246094 5.964844 57.425781 7.417969 57.425781 C 8.65625 57.425781 9.695312 56.574219 9.980469 55.425781 L 7.855469 55.421875 C 7.601562 55.421875 7.207031 55.4375 7.046875 55.1875 C 6.914062 54.972656 7.082031 54.640625 7.136719 54.488281 L 8.042969 52.238281 M 10.285156 49.433594 L 11.976562 54.597656 L 16.394531 50.144531 L 16.191406 49.433594 L 10.285156 49.433594 M 8.914062 51.785156 C 9.996094 52.332031 10.746094 53.453125 10.765625 54.742188 L 11.339844 54.742188 L 9.726562 49.859375 L 8.914062 51.785156 M 17.046875 52.3125 C 16.074219 52.699219 15.386719 53.648438 15.386719 54.753906 C 15.386719 56.207031 16.566406 57.382812 18.023438 57.382812 C 19.476562 57.382812 20.660156 56.207031 20.660156 54.753906 C 20.660156 53.300781 19.476562 52.125 18.023438 52.125 C 17.914062 52.125 17.800781 52.132812 17.695312 52.144531 L 18.40625 54.664062 C 18.445312 54.789062 18.46875 55.027344 18.199219 55.105469 C 17.925781 55.179688 17.792969 54.992188 17.753906 54.855469 L 17.046875 52.3125 M 8.289062 51.570312 C 8.007812 51.496094 7.707031 51.4375 7.40625 51.4375 C 5.546875 51.4375 4.042969 52.941406 4.042969 54.792969 C 4.042969 56.648438 5.546875 58.148438 7.40625 58.148438 C 9.046875 58.148438 10.417969 56.972656 10.710938 55.417969 L 11.441406 55.414062 C 11.617188 55.414062 11.839844 55.414062 12.015625 55.34375 C 12.199219 55.285156 12.359375 55.148438 12.496094 55.015625 L 16.628906 50.886719 L 16.863281 51.621094 C 15.585938 52.101562 14.648438 53.308594 14.648438 54.753906 C 14.648438 56.605469 16.15625 58.117188 18.011719 58.117188 C 19.871094 58.117188 21.382812 56.605469 21.382812 54.753906 C 21.382812 52.902344 19.871094 51.394531 18.011719 51.394531 C 17.828125 51.394531 17.664062 51.417969 17.484375 51.445312 L 16.472656 47.898438 C 16.402344 47.660156 16.308594 47.371094 16.140625 47.203125 C 15.945312 47.003906 15.621094 46.875 15.242188 46.875 L 14.003906 46.875 L 14.003906 47.53125 L 14.996094 47.53125 C 15.191406 47.53125 15.4375 47.53125 15.570312 47.640625 C 15.699219 47.757812 15.742188 47.90625 15.796875 48.085938 L 16.015625 48.804688 L 10.074219 48.804688 L 9.867188 48.195312 L 10.804688 47.96875 L 10.804688 47.53125 L 8.695312 47.53125 L 8.695312 48.195312 L 9.203125 48.195312 L 9.425781 48.804688 L 8.289062 51.570312 M 8.660156 52.46875 L 7.761719 54.742188 L 10.042969 54.742188 C 10.042969 53.742188 9.488281 52.917969 8.660156 52.46875 M 86.027344 5.421875 C 85.8125 4.929688 85.878906 4.054688 85.050781 3.875 C 84.839844 3.828125 84.316406 3.894531 84.09375 4.382812 C 84.066406 4.4375 83.886719 4.867188 83.886719 4.867188 L 86.027344 5.421875 M 85.480469 5.648438 L 85.480469 5.53125 L 83.839844 5.074219 C 83.796875 5.273438 83.730469 5.449219 83.730469 5.628906 C 83.726562 6.058594 83.910156 6.558594 84.429688 6.558594 C 84.808594 6.558594 85.480469 6.183594 85.480469 5.648438 M 89.46875 7.695312 C 89.46875 7.332031 87.640625 5.578125 87.226562 5.738281 C 87.085938 5.789062 86.96875 5.789062 86.882812 5.914062 C 86.78125 6.078125 87.195312 6.257812 87.371094 6.476562 C 87.769531 6.988281 88.019531 7.417969 88.242188 7.875 C 88.296875 7.972656 88.503906 8.671875 88.800781 8.671875 C 89.164062 8.671875 89.46875 7.832031 89.46875 7.695312 M 87.523438 14.835938 L 87.867188 16.761719 C 87.902344 17.011719 87.75 17.136719 87.464844 17.074219 C 87.027344 16.933594 86.324219 16.710938 85.609375 16.492188 C 85.601562 16.570312 85.597656 16.648438 85.597656 16.726562 C 85.597656 17.773438 86.453125 18.621094 87.492188 18.621094 C 88.539062 18.621094 89.390625 17.773438 89.390625 16.726562 C 89.390625 15.699219 88.554688 14.855469 87.523438 14.835938 M 81.554688 12.273438 L 82.15625 11.605469 C 82.40625 12.59375 83.285156 15.765625 83.285156 15.765625 C 83.285156 15.765625 84.007812 15.992188 84.886719 16.265625 C 84.859375 16.417969 84.84375 16.574219 84.84375 16.734375 C 84.84375 18.195312 86.027344 19.375 87.492188 19.375 C 88.953125 19.375 90.144531 18.195312 90.144531 16.734375 C 90.144531 15.277344 88.953125 14.085938 87.492188 14.085938 C 87.457031 14.085938 87.421875 14.085938 87.386719 14.089844 L 87.167969 12.867188 C 87.921875 12.089844 88.925781 11.175781 88.871094 10.613281 C 88.765625 9.554688 87.445312 6.203125 86.296875 6.042969 C 86.136719 6.042969 86.128906 6.023438 86.082031 6.023438 C 85.464844 6.023438 83.160156 7.714844 81.753906 8.625 C 81.304688 8.5 80.847656 9.085938 81.199219 9.515625 C 81.394531 9.765625 81.679688 9.769531 81.886719 9.664062 C 82.046875 9.59375 82.15625 9.441406 82.183594 9.28125 C 82.433594 9.503906 82.871094 9.925781 82.871094 9.925781 C 82.296875 10.570312 81.816406 11.113281 81.402344 11.570312 C 81.34375 11.632812 81.257812 11.734375 81.148438 11.855469 C 80.6875 11.480469 80.101562 11.257812 79.464844 11.257812 C 78.007812 11.257812 76.824219 12.4375 76.824219 13.898438 C 76.824219 15.355469 78.007812 16.535156 79.464844 16.535156 C 80.929688 16.535156 82.117188 15.355469 82.117188 13.898438 C 82.117188 13.285156 81.90625 12.71875 81.554688 12.273438 M 82.640625 9 L 83.699219 9.890625 L 83.0625 10.605469 L 84.371094 11.09375 L 84.429688 10.539062 C 85.125 10.398438 86.511719 10.050781 86.511719 10.050781 C 86.511719 10.050781 85.574219 8.332031 85.167969 7.617188 L 82.640625 9 M 85.328125 11.445312 L 86.378906 11.847656 L 86.765625 11.257812 L 85.328125 11.445312 M 84.945312 14.011719 L 86.039062 12.359375 L 85.214844 12.035156 L 84.945312 14.011719 M 86.925781 14.921875 C 86.421875 15.078125 86.007812 15.449219 85.78125 15.917969 L 87.195312 16.367188 L 86.925781 14.921875 M 85.058594 15.6875 C 85.375 14.957031 86.011719 14.394531 86.789062 14.175781 L 86.648438 13.40625 C 85.824219 14.273438 85.035156 15.207031 84.605469 15.246094 C 84.171875 15.292969 83.992188 14.960938 83.992188 14.703125 C 83.992188 14.390625 84.101562 13.671875 84.101562 13.476562 C 84.101562 13.476562 84.21875 12.394531 84.304688 11.703125 L 82.621094 11.070312 L 83.730469 15.265625 L 85.058594 15.6875 M 81.042969 12.84375 L 79.960938 14.046875 C 79.65625 14.136719 79.601562 14.15625 79.554688 14.167969 C 79.421875 14.21875 79.226562 14.132812 79.195312 13.988281 C 79.144531 13.703125 79.351562 13.617188 79.628906 13.539062 C 79.960938 13.171875 80.328125 12.765625 80.640625 12.414062 C 80.320312 12.160156 79.910156 12.007812 79.464844 12.007812 C 78.425781 12.007812 77.574219 12.847656 77.574219 13.898438 C 77.574219 14.945312 78.425781 15.796875 79.464844 15.796875 C 80.515625 15.796875 81.367188 14.945312 81.367188 13.898438 C 81.367188 13.507812 81.246094 13.144531 81.042969 12.84375 M 79.25 32.882812 C 79.035156 32.941406 78.925781 33.074219 78.925781 33.277344 C 78.925781 33.390625 78.953125 33.515625 79.007812 33.65625 L 79.007812 33.660156 C 79.085938 33.867188 79.273438 34.078125 79.570312 34.285156 C 79.867188 34.496094 80.128906 34.601562 80.359375 34.609375 C 80.972656 34.601562 81.542969 34.597656 82.070312 34.597656 C 82.390625 34.597656 82.832031 34.601562 83.386719 34.605469 C 83.972656 34.609375 84.445312 34.613281 84.804688 34.613281 C 84.976562 34.613281 85.152344 34.613281 85.328125 34.609375 C 86.253906 34.605469 86.886719 34.527344 87.234375 34.378906 C 87.394531 34.3125 87.503906 34.226562 87.570312 34.125 C 87.636719 34.023438 87.667969 33.894531 87.667969 33.726562 C 87.667969 33.488281 87.597656 33.160156 87.460938 32.734375 L 87.460938 32.730469 C 87.40625 32.550781 87.253906 32.300781 87.003906 31.984375 C 86.707031 31.597656 86.488281 31.261719 86.355469 30.972656 C 86.128906 30.476562 85.988281 29.890625 85.941406 29.207031 C 85.921875 29.035156 85.863281 28.800781 85.761719 28.507812 C 85.703125 28.332031 85.640625 28.191406 85.574219 28.089844 C 85.519531 28.003906 85.476562 27.957031 85.445312 27.949219 C 85.441406 27.949219 85.433594 27.953125 85.421875 27.957031 C 85.207031 28.09375 84.960938 28.160156 84.679688 28.160156 C 84.433594 28.160156 84.070312 28.089844 83.578125 27.941406 C 83.125 27.804688 82.792969 27.738281 82.589844 27.738281 C 82.398438 27.738281 82.230469 27.78125 82.082031 27.867188 C 82.378906 28.648438 82.695312 29.484375 83.03125 30.378906 C 83.082031 30.507812 83.105469 30.640625 83.105469 30.765625 C 83.105469 31.292969 82.695312 31.734375 81.863281 32.101562 C 81.433594 32.289062 80.738281 32.503906 79.773438 32.746094 C 79.527344 32.808594 79.351562 32.851562 79.25 32.882812 M 79.113281 32.390625 C 78.648438 32.519531 78.414062 32.8125 78.414062 33.273438 C 78.414062 33.453125 78.453125 33.640625 78.53125 33.835938 C 78.644531 34.144531 78.894531 34.429688 79.277344 34.699219 C 79.65625 34.964844 80.007812 35.105469 80.339844 35.117188 L 80.363281 35.117188 C 80.976562 35.109375 81.542969 35.105469 82.066406 35.105469 C 82.390625 35.105469 82.828125 35.105469 83.378906 35.109375 C 83.96875 35.117188 84.441406 35.117188 84.804688 35.117188 C 85.03125 35.117188 85.210938 35.117188 85.332031 35.117188 C 86.320312 35.109375 87.023438 35.019531 87.433594 34.84375 C 87.683594 34.734375 87.871094 34.589844 87.996094 34.402344 C 88.113281 34.214844 88.175781 33.992188 88.175781 33.726562 C 88.175781 33.433594 88.097656 33.050781 87.945312 32.574219 C 87.867188 32.339844 87.691406 32.035156 87.40625 31.671875 C 87.128906 31.316406 86.929688 31.011719 86.816406 30.757812 C 86.613281 30.320312 86.488281 29.792969 86.445312 29.175781 L 86.445312 29.15625 C 86.421875 28.945312 86.355469 28.671875 86.242188 28.339844 C 86.167969 28.125 86.085938 27.949219 86 27.816406 C 85.875 27.617188 85.730469 27.496094 85.574219 27.457031 L 85.449219 27.421875 L 85.328125 27.453125 C 85.265625 27.46875 85.207031 27.492188 85.152344 27.527344 C 85.019531 27.609375 84.859375 27.652344 84.675781 27.652344 C 84.484375 27.652344 84.164062 27.585938 83.722656 27.453125 C 83.21875 27.304688 82.84375 27.230469 82.589844 27.230469 C 82.304688 27.230469 82.050781 27.296875 81.820312 27.429688 L 81.453125 27.648438 L 81.605469 28.046875 C 81.898438 28.816406 82.214844 29.652344 82.554688 30.554688 C 82.585938 30.628906 82.597656 30.699219 82.597656 30.765625 C 82.597656 31.070312 82.285156 31.359375 81.65625 31.636719 C 81.253906 31.8125 80.585938 32.019531 79.648438 32.253906 C 79.378906 32.320312 79.199219 32.367188 79.113281 32.390625 M 88.683594 36.175781 C 88.175781 36.175781 87.765625 36.585938 87.765625 37.089844 C 87.765625 37.597656 88.175781 38.007812 88.683594 38.007812 C 89.191406 38.007812 89.601562 37.597656 89.601562 37.089844 C 89.601562 36.585938 89.191406 36.175781 88.683594 36.175781 M 88.683594 35.675781 C 87.902344 35.675781 87.265625 36.308594 87.265625 37.089844 C 87.265625 37.871094 87.902344 38.507812 88.683594 38.507812 C 89.46875 38.507812 90.101562 37.871094 90.101562 37.089844 C 90.101562 36.308594 89.46875 35.675781 88.683594 35.675781 M 85.304688 36.175781 C 84.800781 36.175781 84.390625 36.585938 84.390625 37.089844 C 84.390625 37.597656 84.800781 38.007812 85.304688 38.007812 C 85.816406 38.007812 86.222656 37.597656 86.222656 37.089844 C 86.222656 36.585938 85.816406 36.175781 85.304688 36.175781 M 85.304688 35.675781 C 84.523438 35.675781 83.890625 36.308594 83.890625 37.089844 C 83.890625 37.871094 84.523438 38.507812 85.304688 38.507812 C 86.089844 38.507812 86.726562 37.871094 86.726562 37.089844 C 86.726562 36.308594 86.089844 35.675781 85.304688 35.675781 M 81.925781 36.175781 C 81.417969 36.175781 81.007812 36.585938 81.007812 37.089844 C 81.007812 37.597656 81.417969 38.007812 81.925781 38.007812 C 82.429688 38.007812 82.84375 37.597656 82.84375 37.089844 C 82.84375 36.585938 82.429688 36.175781 81.925781 36.175781 M 81.925781 35.675781 C 81.140625 35.675781 80.507812 36.308594 80.507812 37.089844 C 80.507812 37.871094 81.140625 38.507812 81.925781 38.507812 C 82.707031 38.507812 83.34375 37.871094 83.34375 37.089844 C 83.34375 36.308594 82.707031 35.675781 81.925781 35.675781 M 78.542969 36.175781 C 78.035156 36.175781 77.625 36.585938 77.625 37.089844 C 77.625 37.597656 78.035156 38.007812 78.542969 38.007812 C 79.046875 38.007812 79.460938 37.597656 79.460938 37.089844 C 79.460938 36.585938 79.046875 36.175781 78.542969 36.175781 M 78.542969 35.675781 C 77.757812 35.675781 77.125 36.308594 77.125 37.089844 C 77.125 37.871094 77.757812 38.507812 78.542969 38.507812 C 79.324219 38.507812 79.960938 37.871094 79.960938 37.089844 C 79.960938 36.308594 79.324219 35.675781 78.542969 35.675781 M 18.027344 34.558594 L 18.027344 30.777344 L 10.707031 31.28125 L 11.804688 26.882812 C 11.816406 26.84375 11.824219 26.804688 11.824219 26.761719 C 11.824219 26.480469 11.597656 26.257812 11.316406 26.257812 C 11.191406 26.257812 11.078125 26.304688 10.988281 26.378906 L 4.085938 32.285156 C 3.976562 32.378906 3.910156 32.515625 3.910156 32.667969 C 3.910156 32.820312 3.976562 32.960938 4.085938 33.050781 L 10.988281 38.960938 C 11.078125 39.035156 11.191406 39.082031 11.316406 39.082031 C 11.597656 39.082031 11.824219 38.855469 11.824219 38.578125 C 11.824219 38.535156 11.816406 38.492188 11.804688 38.453125 L 10.707031 34.054688 L 18.027344 34.558594 M 78.441406 55.394531 L 85.761719 54.890625 L 84.660156 59.289062 C 84.648438 59.328125 84.644531 59.371094 84.644531 59.414062 C 84.644531 59.691406 84.867188 59.917969 85.148438 59.917969 C 85.273438 59.917969 85.390625 59.871094 85.476562 59.796875 L 92.382812 53.886719 C 92.488281 53.796875 92.554688 53.65625 92.554688 53.503906 C 92.554688 53.351562 92.488281 53.214844 92.382812 53.121094 L 85.476562 47.214844 C 85.390625 47.140625 85.273438 47.09375 85.148438 47.09375 C 84.867188 47.09375 84.644531 47.320312 84.644531 47.597656 C 84.644531 47.640625 84.648438 47.679688 84.660156 47.71875 L 85.761719 52.117188 L 78.441406 51.613281 L 78.441406 55.394531 M 10.4375 17.898438 L 14.226562 17.898438 L 13.71875 10.589844 L 18.128906 11.6875 C 18.164062 11.699219 18.207031 11.703125 18.25 11.703125 C 18.53125 11.703125 18.757812 11.480469 18.757812 11.199219 C 18.757812 11.074219 18.710938 10.960938 18.632812 10.871094 L 12.714844 3.980469 C 12.621094 3.875 12.484375 3.804688 12.332031 3.804688 C 12.179688 3.804688 12.039062 3.875 11.949219 3.980469 L 6.03125 10.871094 C 5.953125 10.960938 5.90625 11.074219 5.90625 11.199219 C 5.90625 11.480469 6.132812 11.703125 6.414062 11.703125 C 6.457031 11.703125 6.5 11.699219 6.535156 11.6875 L 10.941406 10.589844 L 10.4375 17.898438 "/>
</g>
</svg>
