<?xml version="1.0" encoding="UTF-8"?>
<svg xmlns="http://www.w3.org/2000/svg" xmlns:xlink="http://www.w3.org/1999/xlink" width="77pt" height="44pt" viewBox="0 0 77 44" version="1.1">
<g id="surface1">
<path style="fill-rule:nonzero;fill:rgb(100%,100%,100%);fill-opacity:1;stroke-width:2.835;stroke-linecap:butt;stroke-linejoin:round;stroke:rgb(13.729858%,12.159729%,12.548828%);stroke-opacity:1;stroke-miterlimit:4;" d="M 9.609375 5.703125 L 505.625 5.703125 L 760.78125 218.242188 L 505.625 430.859375 L 9.609375 430.859375 L 9.609375 5.703125 " transform="matrix(0.1,0,0,-0.1,0,44)"/>
<path style=" stroke:none;fill-rule:nonzero;fill:rgb(68.630981%,12.666321%,10.813904%);fill-opacity:1;" d="M 3.796875 40.585938 L 50.5625 40.59375 L 67.570312 22.167969 L 50.5625 3.746094 L 3.796875 3.746094 L 3.796875 40.585938 "/>
<path style=" stroke:none;fill-rule:nonzero;fill:rgb(100%,100%,100%);fill-opacity:1;" d="M 26.6875 9.753906 C 26.757812 10.042969 26.863281 10.394531 26.996094 10.664062 C 27.320312 11.289062 27.984375 11.71875 28.664062 11.753906 C 29.425781 11.773438 30.003906 11.074219 30.117188 10.320312 C 30.183594 9.832031 30.097656 9.246094 29.960938 8.769531 L 26.6875 9.753906 "/>
<path style=" stroke:none;fill-rule:nonzero;fill:rgb(100%,100%,100%);fill-opacity:1;" d="M 29.910156 8.445312 C 29.828125 8.171875 29.71875 7.882812 29.601562 7.632812 C 29.34375 7.085938 28.828125 6.65625 28.242188 6.574219 C 27.601562 6.496094 26.949219 6.910156 26.679688 7.484375 L 25.660156 9.757812 L 29.910156 8.445312 "/>
<path style=" stroke:none;fill-rule:nonzero;fill:rgb(100%,100%,100%);fill-opacity:1;" d="M 22.90625 10.355469 L 19.210938 13.617188 C 18.925781 13.867188 18.988281 14.363281 19.125 14.71875 C 19.285156 15.136719 19.753906 15.710938 20.082031 15.992188 C 20.195312 16.085938 20.351562 16.164062 20.484375 16.113281 C 20.667969 16.046875 20.820312 15.789062 20.90625 15.609375 L 21.363281 14.640625 C 21.601562 14.164062 22.050781 13.40625 22.347656 12.949219 L 23.527344 11.347656 C 23.625 11.261719 23.96875 10.976562 24.0625 10.878906 C 24.136719 10.800781 24.179688 10.6875 24.15625 10.582031 C 24.074219 10.210938 23.191406 10.101562 22.90625 10.355469 "/>
<path style=" stroke:none;fill-rule:nonzero;fill:rgb(100%,100%,100%);fill-opacity:1;" d="M 20.667969 17.011719 C 21.050781 15.929688 21.574219 14.820312 22.140625 13.808594 C 22.535156 13.085938 23.027344 12.320312 23.605469 11.6875 C 24.003906 11.25 24.542969 10.855469 25.125 10.769531 C 25.789062 10.664062 26.5625 10.992188 27.128906 11.363281 L 33.828125 15.632812 C 34.519531 15.355469 35.28125 15.832031 35.332031 16.570312 C 35.371094 17.269531 34.628906 17.882812 33.949219 17.683594 C 33.722656 17.625 33.53125 17.492188 33.386719 17.308594 L 31.894531 18.546875 L 34.878906 21.894531 L 35.4375 22.535156 C 36.449219 21.695312 37.644531 21.28125 38.957031 21.308594 C 41.570312 21.375 43.800781 23.394531 44.101562 25.992188 C 44.261719 27.292969 43.957031 28.519531 43.226562 29.59375 C 42.824219 30.191406 42.308594 30.699219 41.703125 31.089844 C 39.90625 32.230469 37.410156 32.164062 35.65625 30.871094 C 33.925781 29.578125 33.148438 27.226562 33.722656 25.160156 C 33.921875 24.476562 34.25 23.835938 34.699219 23.28125 L 33.425781 21.808594 L 31.175781 30.34375 L 27.890625 31.417969 C 28.574219 34.933594 25.652344 38.09375 22.089844 37.71875 C 19.21875 37.417969 17.097656 34.824219 17.335938 31.992188 C 17.457031 30.574219 18.078125 29.351562 19.15625 28.40625 C 20.234375 27.472656 21.535156 27.035156 22.972656 27.121094 L 23.363281 24.707031 L 20.519531 21.464844 C 20.253906 21.167969 20.054688 20.800781 20.003906 20.402344 C 19.957031 20.082031 19.984375 19.738281 20.035156 19.414062 C 20.167969 18.59375 20.386719 17.796875 20.667969 17.011719 "/>
<path style=" stroke:none;fill-rule:nonzero;fill:rgb(68.630981%,12.666321%,10.813904%);fill-opacity:1;" d="M 24.621094 18.894531 L 28.890625 19.804688 L 29.007812 20.960938 L 31.71875 19.96875 L 30.308594 18.445312 L 32.289062 16.796875 L 27.265625 13.820312 L 24.621094 18.894531 "/>
<path style=" stroke:none;fill-rule:nonzero;fill:rgb(68.630981%,12.666321%,10.813904%);fill-opacity:1;" d="M 22.703125 28.59375 C 20.992188 28.59375 19.460938 29.761719 19 31.367188 C 18.542969 32.976562 19.199219 34.757812 20.636719 35.6875 C 21.902344 36.492188 23.566406 36.472656 24.820312 35.65625 C 26.101562 34.816406 26.742188 33.292969 26.515625 31.839844 L 22.925781 32.976562 C 22.714844 33.042969 22.484375 33.003906 22.304688 32.871094 C 22.09375 32.71875 21.996094 32.457031 22.042969 32.199219 L 22.703125 28.59375 "/>
<path style=" stroke:none;fill-rule:nonzero;fill:rgb(68.630981%,12.666321%,10.813904%);fill-opacity:1;" d="M 24.335938 31.445312 L 23.457031 31.746094 C 23.40625 31.761719 23.34375 31.746094 23.3125 31.699219 C 23.292969 31.671875 23.28125 31.636719 23.285156 31.601562 L 23.761719 28.738281 C 24.277344 28.863281 24.757812 29.101562 25.167969 29.445312 C 25.613281 29.8125 25.972656 30.289062 26.191406 30.835938 L 24.335938 31.445312 "/>
<path style=" stroke:none;fill-rule:nonzero;fill:rgb(68.630981%,12.666321%,10.813904%);fill-opacity:1;" d="M 26.960938 22.789062 L 25.675781 23.285156 L 27.703125 26.835938 L 26.960938 22.789062 "/>
<path style=" stroke:none;fill-rule:nonzero;fill:rgb(68.630981%,12.666321%,10.813904%);fill-opacity:1;" d="M 24.703125 21.535156 L 26.785156 21.753906 L 25.136719 22.335938 L 24.703125 21.535156 "/>
<path style=" stroke:none;fill-rule:nonzero;fill:rgb(68.630981%,12.666321%,10.813904%);fill-opacity:1;" d="M 36.367188 23.652344 C 37.15625 23.003906 38.082031 22.714844 39.097656 22.800781 C 41.125 22.957031 42.695312 24.734375 42.601562 26.773438 C 42.511719 28.761719 40.851562 30.382812 38.867188 30.421875 C 36.90625 30.460938 35.210938 28.96875 34.988281 27.023438 C 34.882812 26.054688 35.125 25.144531 35.699219 24.355469 L 37.957031 26.832031 L 38.867188 27.078125 C 39.191406 27.160156 39.519531 26.9375 39.558594 26.609375 C 39.585938 26.335938 39.414062 26.085938 39.15625 26.015625 L 38.457031 25.828125 L 36.367188 23.652344 "/>
<path style=" stroke:none;fill-rule:nonzero;fill:rgb(68.630981%,12.666321%,10.813904%);fill-opacity:1;" d="M 27.601562 30.355469 C 27.292969 29.558594 26.777344 28.855469 26.117188 28.308594 C 25.515625 27.808594 24.792969 27.453125 24.027344 27.28125 L 24.269531 25.683594 L 27.6875 29.09375 C 27.953125 29.351562 28.316406 29.476562 28.679688 29.429688 C 29.324219 29.351562 29.785156 28.777344 29.714844 28.132812 L 29.066406 22.035156 L 32.453125 20.792969 L 32.605469 20.9375 L 30.375 29.4375 L 27.601562 30.355469 "/>
</g>
</svg>
