<svg width="171" height="122" xmlns="http://www.w3.org/2000/svg">
 <!-- Created with Method Draw - http://github.com/duopixel/Method-Draw/ -->

 <g>
  <title>background</title>
  <rect fill="#fff" id="canvas_background" height="124" width="173" y="-1" x="-1"/>
  <g display="none" overflow="visible" y="0" x="0" height="100%" width="100%" id="canvasGrid">
   <rect fill="url(#gridpattern)" stroke-width="0" y="0" x="0" height="100%" width="100%"/>
  </g>
 </g>
 <g>
  <title>Layer 1</title>
  <metadata id="svg_29">image/svg+xml</metadata>

  <g id="svg_31">
   <path fill="#1966ba" fill-rule="nonzero" id="svg_28" d="m0.96126,39.04726l0,82.1011l169.31309,0l0,-82.1011l-1.34937,0l0,75.68177c0,2.79017 -2.27876,5.06913 -5.09028,5.06913l-156.461,0c-2.78818,0 -5.06696,-2.27896 -5.06696,-5.06913l0,-75.68177l-1.34548,0"/>
   <path fill="#1966ba" fill-rule="nonzero" id="svg_27" d="m167.22951,39.81211l0,74.91692c0,1.86141 -1.51269,3.37161 -3.39481,3.37161l-156.461,0c-1.85879,0 -3.37149,-1.5102 -3.37149,-3.37161l0,-74.91692l163.2273,0"/>
   <path fill="#ffffff" fill-rule="nonzero" id="svg_26" d="m40.16693,66.51186c0.25665,-0.53462 -0.09333,-1.13949 -0.67275,-1.18631l-16.27023,-1.13949c-0.74273,-0.07024 -1.16271,0.83901 -0.64941,1.37362l4.67031,4.81547l-15.80359,8.41733l3.06817,5.27985l15.17751,-9.46705l1.83546,6.44275c0.20999,0.72192 1.18605,0.81558 1.50881,0.14048l7.13573,-14.67665"/>
   <path fill="#ffffff" fill-rule="nonzero" id="svg_25" d="m102.19914,109.6443c0.32275,0.11707 0.69606,0.23804 1.13938,0.31999c0.42386,0.10536 0.89828,0.15219 1.39214,0.15219c1.25994,0 2.22822,-0.37072 2.90874,-1.10435c0.68052,-0.74535 1.01884,-1.75215 1.01884,-3.02821c0,-0.57755 -0.08551,-1.10436 -0.25277,-1.54923c-0.19055,-0.46047 -0.42776,-0.83509 -0.71552,-1.13948c-0.28776,-0.30828 -0.64552,-0.52681 -1.03828,-0.6829c-0.40831,-0.1522 -0.83218,-0.23805 -1.27549,-0.23805c-0.27221,0 -0.52497,0.01948 -0.74663,0.05075c-0.23721,0.01948 -0.44331,0.07023 -0.59496,0.12097l0,-2.99699l4.06367,0l0,-1.44386l-5.73192,0l0,6.05641c0.29165,-0.08192 0.59886,-0.1678 0.90217,-0.25366c0.30721,-0.08581 0.66497,-0.12097 1.05384,-0.12097c0.81662,0 1.42714,0.22243 1.8549,0.64778c0.40832,0.42536 0.61052,1.00681 0.61052,1.70142c0,0.73363 -0.20221,1.33069 -0.62608,1.78726c-0.42775,0.47999 -1.00716,0.71413 -1.73434,0.71413c-0.42776,0 -0.81663,-0.06633 -1.17438,-0.18342c-0.35776,-0.12097 -0.68052,-0.25755 -0.95273,-0.40974l-0.1011,1.59995"/>
   <path fill="#ffffff" fill-rule="nonzero" id="svg_24" d="m111.25587,108.38385c0.28776,0.54243 0.66107,0.96778 1.12383,1.27606c0.45887,0.30438 1.00328,0.45657 1.66435,0.45657c0.66497,0 1.22494,-0.15219 1.6838,-0.47218c0.45887,-0.30829 0.83218,-0.73364 1.11994,-1.27996c0.29165,-0.54243 0.49386,-1.19021 0.61441,-1.91995c0.11665,-0.73363 0.18666,-1.53361 0.18666,-2.39993c0,-0.87022 -0.06998,-1.6702 -0.18666,-2.41945c-0.12056,-0.72973 -0.32276,-1.37752 -0.61441,-1.91994c-0.28776,-0.54633 -0.66107,-0.97168 -1.11994,-1.29558c-0.45887,-0.30437 -1.01884,-0.45657 -1.6838,-0.45657c-0.66107,0 -1.22494,0.1522 -1.68379,0.45657c-0.45887,0.32389 -0.81663,0.74925 -1.10439,1.29558c-0.28776,0.54243 -0.49386,1.19021 -0.61052,1.91994c-0.12055,0.74925 -0.18666,1.54923 -0.18666,2.41945c0,0.86632 0.0661,1.6663 0.18666,2.39993c0.11666,0.74925 0.32276,1.39704 0.61052,1.93946"/>
   <path fill="#ffffff" fill-rule="nonzero" id="svg_23" d="m120.47203,108.38385c0.28777,0.54243 0.66108,0.96778 1.11994,1.27606c0.45887,0.30438 1.00329,0.45657 1.66825,0.45657c0.66107,0 1.22104,-0.15219 1.67991,-0.47218c0.45886,-0.30829 0.83217,-0.73364 1.12382,-1.27996c0.28776,-0.54243 0.49387,-1.19021 0.61052,-1.91995c0.12056,-0.73363 0.18666,-1.53361 0.18666,-2.39993c0,-0.87022 -0.0661,-1.6702 -0.18666,-2.41945c-0.11665,-0.72973 -0.32276,-1.37752 -0.61052,-1.91994c-0.29165,-0.54633 -0.66497,-0.97168 -1.12382,-1.29558c-0.45887,-0.30437 -1.01884,-0.45657 -1.67991,-0.45657c-0.66497,0 -1.22494,0.1522 -1.6838,0.45657c-0.45887,0.32389 -0.81662,0.74925 -1.10439,1.29558c-0.29164,0.54243 -0.49386,1.19021 -0.6144,1.91994c-0.11666,0.74925 -0.18666,1.54923 -0.18666,2.41945c0,0.86632 0.06998,1.6663 0.18666,2.39993c0.12055,0.74925 0.32276,1.39704 0.6144,1.93946"/>
   <path fill="#ffffff" fill-rule="nonzero" id="svg_22" d="m137.7261,109.9838l1.76936,0l0,-5.34228c0,-0.64779 0.13611,-1.14339 0.39276,-1.49849c0.25277,-0.35902 0.64552,-0.53072 1.13549,-0.53072c0.82051,0 1.22883,0.54632 1.22883,1.61946l0,5.75203l1.76546,0l0,-5.34228c0,-0.64779 0.13611,-1.14339 0.39276,-1.49849c0.25276,-0.35902 0.64552,-0.53072 1.13549,-0.53072c0.81663,0 1.22494,0.54632 1.22494,1.61946l0,5.75203l1.76936,0l0,-5.71691c0,-1.02241 -0.20611,-1.80678 -0.61441,-2.3336c-0.42386,-0.52682 -1.05384,-0.79998 -1.90157,-0.79998c-0.56385,0 -1.01884,0.13658 -1.37659,0.40974c-0.35776,0.28878 -0.62996,0.61266 -0.85162,0.96778c-0.08551,-0.1678 -0.18666,-0.3395 -0.30332,-0.51121c-0.12055,-0.15219 -0.27609,-0.30437 -0.44331,-0.44096c-0.1711,-0.12098 -0.37331,-0.22244 -0.59497,-0.30829c-0.22165,-0.08192 -0.49386,-0.11706 -0.78162,-0.11706c-0.54442,0 -0.98773,0.13658 -1.34548,0.40974c-0.35387,0.28878 -0.64552,0.62828 -0.83218,1.05363l-0.03504,0c0,-0.05075 0,-0.15219 0,-0.28877c-0.01553,-0.12098 -0.01553,-0.25755 -0.01553,-0.39413c-0.01553,-0.13269 -0.01553,-0.26926 -0.01553,-0.39024c-0.01941,-0.11707 -0.01941,-0.21853 -0.01941,-0.27317l-1.7499,0c0.01553,0.24195 0.03504,0.4956 0.05057,0.76877c0.01553,0.26926 0.01553,0.56194 0.01553,0.88582l0,7.07883"/>
   <path fill="#007d45" fill-rule="nonzero" id="svg_21" d="m0.96126,39.04726l0,-38.196l169.31309,0l0,38.196l-1.34937,0l0,-31.75326c0,-2.81357 -2.27876,-5.09253 -5.09028,-5.09253l-156.43767,0c-2.81152,0 -5.09028,2.27896 -5.09028,5.09253l0,31.75326l-1.34549,0"/>
   <path fill="#007d45" fill-rule="nonzero" id="svg_20" d="m167.22951,38.13801l0,-30.84401c0,-1.88483 -1.51269,-3.39502 -3.39481,-3.39502l-156.43767,0c-1.88213,0 -3.39482,1.51019 -3.39482,3.39502l0,30.84401l163.2273,0"/>
   <path fill="#1966ba" fill-rule="nonzero" id="svg_19" d="m112.64802,107.48241c-0.25277,-0.79999 -0.38887,-1.95897 -0.38887,-3.43796c0,-1.48289 0.13611,-2.63798 0.38887,-3.45356c0.25665,-0.81949 0.73496,-1.22923 1.39603,-1.22923c0.68053,0 1.15494,0.40975 1.41159,1.20972c0.25665,0.81949 0.38887,1.97458 0.38887,3.47307c0,1.47898 -0.13222,2.63797 -0.38887,3.43796c-0.27221,0.81558 -0.74663,1.22533 -1.41159,1.22533c-0.66107,0 -1.13938,-0.40975 -1.39603,-1.22533"/>
   <path fill="#1966ba" fill-rule="nonzero" id="svg_18" d="m121.86418,107.48241c-0.25665,-0.79999 -0.38886,-1.95897 -0.38886,-3.43796c0,-1.48289 0.13221,-2.63798 0.38886,-3.45356c0.25277,-0.81949 0.73108,-1.22923 1.39604,-1.22923c0.67662,0 1.15493,0.40975 1.4077,1.20972c0.25665,0.81949 0.39276,1.97458 0.39276,3.47307c0,1.47898 -0.13611,2.63797 -0.39276,3.43796c-0.27221,0.81558 -0.74663,1.22533 -1.4077,1.22533c-0.66497,0 -1.14327,-0.40975 -1.39604,-1.22533"/>
   <path fill="#ffffff" fill-rule="nonzero" id="svg_17" d="m26.43211,10.24807l9.53115,11.11774c0.50942,0.60486 -0.02722,1.51411 -0.81662,1.3268l-7.11239,-1.79117l0.81662,11.81625l-6.08967,0l0.81274,-11.81625l-7.08907,1.79117c-0.76607,0.18731 -1.34937,-0.72193 -0.81273,-1.3268l9.52726,-11.11774c0.30332,-0.37072 0.90607,-0.37072 1.23271,0"/>
  </g>
  <text xml:space="preserve" text-anchor="start" font-family="sans-serif" font-size="15" id="svg_32" y="26.41177" x="47" stroke-width="0" stroke="#000" fill="#ffffff">param(text1)</text>
  <text xml:space="preserve" text-anchor="start" font-family="sans-serif" font-size="15" id="svg_33" y="60.29412" x="47" stroke-width="0" stroke="#000" fill="#ffffff">param(text2)</text>
  <text xml:space="preserve" text-anchor="start" font-family="sans-serif" font-size="15" id="svg_34" y="85.47059" x="47" stroke-width="0" stroke="#000" fill="#ffffff">param(text3)</text>
 </g>
</svg>