<svg width="233" height="105" xmlns="http://www.w3.org/2000/svg">
 <!-- Created with Method Draw - http://github.com/duopixel/Method-Draw/ -->

 <g>
  <title>background</title>
  <rect fill="#fff" id="canvas_background" height="107" width="235" y="-1" x="-1"/>
  <g display="none" overflow="visible" y="0" x="0" height="100%" width="100%" id="canvasGrid">
   <rect fill="url(#gridpattern)" stroke-width="0" y="0" x="0" height="100%" width="100%"/>
  </g>
 </g>
 <g>
  <title>Layer 1</title>
  <metadata id="svg_21">image/svg+xml</metadata>

  <g id="svg_23">
   <path fill="#007d45" fill-rule="nonzero" id="svg_20" d="m104.43951,103.4728l127.07404,0l0,-102.25952l-127.07404,0l0,102.25952zm0,0"/>
   <path fill="#007d45" fill-rule="nonzero" id="svg_19" d="m1.48833,103.4728l100.22747,0l0,-102.25952l-100.22747,0l0,102.25952zm0,0"/>
   <path fill="#ffffff" fill-rule="nonzero" id="svg_18" d="m112.93955,2.94916c-3.71041,0 -6.71678,2.98677 -6.71678,6.66789l0,85.36518c0,3.68111 3.00637,6.66788 6.71678,6.66788l110.06368,0c3.71041,0 6.71677,-2.98677 6.71677,-6.66788l0,-85.36518c0,-3.68112 -3.00635,-6.66789 -6.71677,-6.66789l-110.06368,0"/>
   <path fill="#ffffff" fill-rule="nonzero" id="svg_17" d="m93.25687,101.65011c3.70528,0 6.71165,-2.98677 6.71165,-6.66788l0,-85.36518c0,-3.68112 -3.00637,-6.66789 -6.71165,-6.66789l-83.22226,0c-3.70528,0 -6.71164,2.98677 -6.71164,6.66789l0,85.36518c0,3.68111 3.00635,6.66788 6.71164,6.66788l83.22226,0"/>
   <path fill="#007d45" fill-rule="nonzero" id="svg_16" d="m112.92413,5.18541c-2.47189,0 -4.47613,1.99118 -4.47613,4.44695l0,85.36518c0,2.45068 2.00424,4.44185 4.47613,4.44185l110.06881,0c2.4719,0 4.471,-1.99118 4.471,-4.44185l0,-85.36518c0,-2.45577 -1.9991,-4.44695 -4.471,-4.44695l-110.06881,0"/>
   <path fill="#007d45" fill-rule="nonzero" id="svg_15" d="m93.24145,99.43939c2.4719,0 4.47615,-1.99118 4.47615,-4.44185l0,-85.36518c0,-2.45068 -2.00424,-4.44695 -4.47615,-4.44695l-83.22226,0c-2.47189,0 -4.47613,1.99627 -4.47613,4.44695l0,85.36518c0,2.45068 2.00424,4.44185 4.47613,4.44185l83.22226,0"/>
   <path fill="#ffffff" fill-rule="nonzero" id="svg_14" d="m33.25811,90.5557l-17.90969,-1.26618c-0.29806,-0.02553 -0.56529,-0.1889 -0.70919,-0.44419c-0.14903,-0.25528 -0.16445,-0.56671 -0.03084,-0.83221l7.84738,-16.04681c0.16445,-0.33187 0.5139,-0.53098 0.88392,-0.49525c0.37001,0.03064 0.6835,0.28591 0.78114,0.63821l2.02994,7.05079l16.71229,-10.35921l3.35582,5.77439l-17.38037,9.20535l5.12881,5.27406c0.25695,0.26039 0.32376,0.65862 0.16445,0.99048c-0.15418,0.33696 -0.50364,0.53609 -0.87365,0.51056"/>
   <path fill="#ffffff" fill-rule="nonzero" id="svg_13" d="m199.72319,90.56591l17.90969,-1.26618c0.29808,-0.02553 0.56017,-0.1889 0.71433,-0.44418c0.1439,-0.25529 0.15932,-0.56673 0.02565,-0.83221l-7.84737,-16.04682c-0.16445,-0.33185 -0.5139,-0.53098 -0.88392,-0.49523c-0.37001,0.03064 -0.67837,0.2808 -0.78114,0.6382l-2.02994,7.05079l-16.71743,-10.35921l-3.35583,5.7744l17.39065,9.20535l-5.13394,5.26895c-0.25695,0.26548 -0.32376,0.66372 -0.16959,0.99558c0.15932,0.33698 0.50877,0.5412 0.87878,0.51056"/>
  </g>
  <text xml:space="default" dominant-baseline="middle" text-anchor="middle" font-family="sans-serif" font-size="15" id="svg_24" y="30" x="50" fill="#ffffff">param(text1)</text>
  <text xml:space="default" dominant-baseline="middle" text-anchor="middle" font-family="sans-serif" font-size="15" id="svg_25" y="50" x="50" fill="#ffffff">param(text2)</text>
  <text xml:space="default" dominant-baseline="middle" text-anchor="middle" font-family="sans-serif" font-size="15" id="svg_26" y="30" x="164" fill="#ffffff">param(text3)</text>
  <text xml:space="default" dominant-baseline="middle" text-anchor="middle" font-family="sans-serif" font-size="15" id="svg_27" y="50" x="164" fill="#ffffff">param(text4)</text>
 </g>
</svg>