<svg width="69" height="44" xmlns="http://www.w3.org/2000/svg">
 <!-- Created with Method Draw - http://github.com/duopixel/Method-Draw/ -->

 <g>
  <title>background</title>
  <rect fill="#fff" id="canvas_background" height="46" width="71" y="-1" x="-1"/>
  <g display="none" overflow="visible" y="0" x="0" height="100%" width="100%" id="canvasGrid">
   <rect fill="url(#gridpattern)" stroke-width="0" y="0" x="0" height="100%" width="100%"/>
  </g>
 </g>
 <g>
  <title>Layer 1</title>
  <g id="svg_121">
   <path fill="#ffffff" fill-rule="nonzero" id="svg_118" d="m2.32531,42.11092l64.35035,0l0,-40.21897l-64.35035,0l0,40.21897zm0,0"/>
   <path fill="none" stroke="#211e1e" stroke-width="0.2835" stroke-linejoin="round" stroke-miterlimit="4" id="svg_117" d="m2.32531,42.11092l64.35035,0l0,-40.21897l-64.35035,0l0,40.21897"/>
   <path fill="#211e1e" fill-rule="nonzero" id="svg_116" d="m3.59635,37.57728c0,1.77724 1.44101,3.21825 3.22195,3.21825l55.3385,0c1.77724,0 3.21825,-1.44101 3.21825,-3.21825l0,-31.21081c0,-1.77724 -1.44101,-3.21825 -3.21825,-3.21825l-55.3385,0c-1.78094,0 -3.22195,1.44101 -3.22195,3.21825l0,31.21081"/>
   <path fill="#ffffff" fill-rule="nonzero" id="svg_115" d="m6.80352,4.12367c-1.24517,0 -2.25019,1.0087 -2.25019,2.25389l0,31.2108c0,1.24149 1.00501,2.2502 2.25019,2.2502l55.3422,0c1.24517,0 2.25389,-1.00871 2.25389,-2.2502l0,-31.2108c0,-1.24518 -1.00871,-2.25389 -2.25389,-2.25389l-55.3422,0"/>
   <path fill="#211e1e" fill-rule="nonzero" id="svg_114" d="m17.14923,18.90695l1.39668,0l0,-3.65425l0.83874,0c0.9422,0 1.6627,-0.23278 2.15412,-0.70942c0.47665,-0.46555 0.7242,-1.13434 0.7242,-1.99894c0,-0.8646 -0.24755,-1.52229 -0.73898,-1.97677c-0.48772,-0.45078 -1.1602,-0.66878 -1.99894,-0.66878l-2.37582,0l0,9.00816"/>
   <path fill="#211e1e" fill-rule="nonzero" id="svg_113" d="m23.73354,18.19753c0.24756,0.26973 0.54315,0.47665 0.89047,0.60597c0.33624,0.12932 0.69833,0.19213 1.0863,0.19213c0.38796,0 0.75006,-0.06282 1.09738,-0.19213c0.33254,-0.12932 0.63183,-0.33624 0.87569,-0.60597c0.24756,-0.27342 0.45447,-0.62074 0.59488,-1.04565c0.14041,-0.42861 0.218,-0.95698 0.218,-1.56295c0,-0.59487 -0.07759,-1.10846 -0.218,-1.53708c-0.14041,-0.42491 -0.34732,-0.78701 -0.59488,-1.05674c-0.24386,-0.26972 -0.54315,-0.47664 -0.87569,-0.60596c-0.34732,-0.12932 -0.70942,-0.19583 -1.09738,-0.19583c-0.38797,0 -0.75007,0.06651 -1.0863,0.19583c-0.34732,0.12932 -0.64291,0.33624 -0.89047,0.60596c-0.24386,0.26973 -0.45078,0.63183 -0.59118,1.05674c-0.1441,0.42861 -0.22169,0.9422 -0.22169,1.53708c0,0.60597 0.07759,1.13434 0.22169,1.56295c0.14041,0.42491 0.34732,0.77223 0.59118,1.04565"/>
   <path fill="#211e1e" fill-rule="nonzero" id="svg_112" d="m30.34741,18.90695l1.34125,0l0,-9.68063l-1.34125,0l0,9.68063"/>
   <path fill="#211e1e" fill-rule="nonzero" id="svg_111" d="m33.92778,18.90695l1.34124,0l0,-6.62126l-1.34124,0l0,6.62126"/>
   <path fill="#211e1e" fill-rule="nonzero" id="svg_110" d="m33.88713,10.95553l1.41884,0l0,-1.43362l-1.41884,0l0,1.43362"/>
   <path fill="#211e1e" fill-rule="nonzero" id="svg_109" d="m37.17929,18.90695l4.37845,0l0,-1.07152l-2.99656,0l2.91897,-4.37476l0,-1.17498l-4.20849,0l0,1.07153l2.85247,0l-2.94483,4.36367l0,1.18606"/>
   <path fill="#211e1e" fill-rule="nonzero" id="svg_108" d="m43.5382,18.90695l1.34495,0l0,-6.62126l-1.34495,0l0,6.62126"/>
   <path fill="#211e1e" fill-rule="nonzero" id="svg_107" d="m43.50125,10.95553l1.41884,0l0,-1.43362l-1.41884,0l0,1.43362"/>
   <path fill="#211e1e" fill-rule="nonzero" id="svg_106" d="m50.63979,18.90695l1.21193,0c-0.01478,-0.11824 -0.03695,-0.28451 -0.05173,-0.47664c-0.01478,-0.19583 -0.02586,-0.40274 -0.02586,-0.62074l0,-3.16283c0,-0.4397 -0.04065,-0.7981 -0.12931,-1.0826c-0.08868,-0.28452 -0.23278,-0.51729 -0.39905,-0.70942c-0.1441,-0.16997 -0.37688,-0.32515 -0.68356,-0.46556c-0.31037,-0.12932 -0.71311,-0.19583 -1.21562,-0.19583c-0.42491,0 -0.7981,0.05173 -1.12325,0.15518c-0.32146,0.10345 -0.61705,0.22169 -0.8646,0.3621l0.10345,1.14912c0.16997,-0.16628 0.41383,-0.32146 0.73528,-0.46556c0.31038,-0.12932 0.64661,-0.19214 1.0198,-0.19214c0.48033,0 0.81287,0.12932 1.01979,0.38797c0.10346,0.12932 0.18105,0.26973 0.2217,0.42491c0.03695,0.16627 0.05173,0.34732 0.05173,0.55424l0,0.27342l-0.48033,0c-1.06783,0 -1.89549,0.17736 -2.44972,0.52837c-0.55423,0.35841 -0.83874,0.92742 -0.83874,1.70335c0,0.31038 0.05173,0.58011 0.15519,0.82766c0.09976,0.24387 0.24386,0.436 0.42491,0.60597c0.16627,0.16627 0.37318,0.28081 0.60596,0.35841c0.23278,0.09238 0.47665,0.12931 0.75007,0.12931c0.48772,0 0.87569,-0.09975 1.17128,-0.31037c0.28451,-0.19214 0.51729,-0.42491 0.68356,-0.68356l0.02956,0c0,0.04065 0,0.10346 0.01109,0.19583c0,0.08868 0,0.18105 0.01478,0.26973c0.01109,0.09238 0.01109,0.18105 0.02217,0.25865c0.01478,0.08868 0.01478,0.14041 0.02956,0.18104"/>
   <path fill="#211e1e" fill-rule="nonzero" id="svg_105" d="m42.62556,34.35533l1.17128,0l0,-3.5471c0,-0.42861 0.09238,-0.75746 0.26233,-0.99394c0.16997,-0.23647 0.42861,-0.35101 0.75745,-0.35101c0.53946,0 0.81288,0.3621 0.81288,1.07522l0,3.81683l1.17498,0l0,-3.5471c0,-0.42861 0.08868,-0.75746 0.25864,-0.99394c0.16997,-0.23647 0.42861,-0.35101 0.75376,-0.35101c0.54315,0 0.81657,0.3621 0.81657,1.07522l0,3.81683l1.17498,0l0,-3.79466c0,-0.67986 -0.13671,-1.19715 -0.40644,-1.54816c-0.28451,-0.35102 -0.70203,-0.53207 -1.26735,-0.53207c-0.37318,0 -0.67617,0.09238 -0.91265,0.27342c-0.24016,0.19214 -0.41752,0.40644 -0.56531,0.64291c-0.05542,-0.11455 -0.12563,-0.22539 -0.20323,-0.33994c-0.07759,-0.09976 -0.18104,-0.20322 -0.29559,-0.29189c-0.11084,-0.08129 -0.24756,-0.1478 -0.39536,-0.20322c-0.1441,-0.05912 -0.32515,-0.0813 -0.51728,-0.0813c-0.3621,0 -0.654,0.09239 -0.89416,0.27343c-0.23647,0.19213 -0.42861,0.41752 -0.55424,0.69833l-0.02217,0c0,-0.03326 0,-0.09976 0,-0.19214c-0.01109,-0.07759 -0.01109,-0.16996 -0.01109,-0.25864c-0.01109,-0.08868 -0.01109,-0.18105 -0.01109,-0.25865c-0.01109,-0.08129 -0.01109,-0.1478 -0.01109,-0.18105l-1.1602,0c0.00738,0.15888 0.02217,0.32515 0.03326,0.5062c0.01109,0.18105 0.01109,0.37318 0.01109,0.58749l0,4.69991"/>
   <path fill="#ffffff" fill-rule="nonzero" id="svg_104" d="m18.54591,14.15901l0,-3.16652l0.63183,0c0.55423,0 0.96806,0.12932 1.25256,0.37687c0.26973,0.25865 0.41383,0.67247 0.41383,1.22671c0,0.50251 -0.12931,0.87569 -0.38796,1.14911c-0.25865,0.26973 -0.68356,0.41383 -1.29322,0.41383l-0.61704,0"/>
   <path fill="#ffffff" fill-rule="nonzero" id="svg_103" d="m24.62402,17.30707c-0.11455,-0.2217 -0.19214,-0.46556 -0.22909,-0.76115c-0.05542,-0.29929 -0.07759,-0.60596 -0.07759,-0.95698c0,-0.34732 0.02217,-0.65769 0.07759,-0.95328c0.03695,-0.29929 0.11454,-0.54315 0.22909,-0.76115c0.11824,-0.20691 0.25865,-0.37688 0.43969,-0.49142c0.16627,-0.11824 0.38797,-0.18105 0.6466,-0.18105c0.25865,0 0.47665,0.06282 0.6577,0.18105c0.16627,0.11454 0.31037,0.28451 0.42491,0.49142c0.11824,0.218 0.19583,0.46186 0.24755,0.76115c0.03695,0.29559 0.06282,0.60596 0.06282,0.95328c0,0.35102 -0.02586,0.65769 -0.06282,0.95698c-0.05173,0.29559 -0.12931,0.53945 -0.24755,0.76115c-0.11455,0.218 -0.25865,0.38427 -0.42491,0.50251c-0.18105,0.11454 -0.39905,0.18104 -0.6577,0.18104c-0.25864,0 -0.48033,-0.06651 -0.6466,-0.18104c-0.18105,-0.11824 -0.32145,-0.28451 -0.43969,-0.50251"/>
   <path fill="#ffffff" fill-rule="nonzero" id="svg_102" d="m50.51048,15.66653l0,0.59488c0,0.52837 -0.11824,0.95328 -0.35102,1.27843c-0.24386,0.33254 -0.59118,0.50251 -1.06782,0.50251c-0.35102,0 -0.60967,-0.10345 -0.79071,-0.29928c-0.18105,-0.19214 -0.26973,-0.46187 -0.26973,-0.78332c0,-0.43969 0.16627,-0.76484 0.51729,-0.98284c0.34731,-0.218 0.84982,-0.32146 1.50752,-0.32146c0.07759,0 0.15518,0 0.24756,0c0.08868,0 0.16627,0 0.20691,0.01109"/>
  </g>
  <metadata id="svg_39">image/svg+xml</metadata>

  <metadata id="svg_77">image/svg+xml</metadata>

  <text xml:space="preserve" text-anchor="start" font-family="sans-serif" font-size="10" id="svg_80" y="35.25842" x="16" stroke-width="0" stroke="#000" fill="#000000">param(text1)</text>
  <metadata id="svg_119">image/svg+xml</metadata>

 </g>
</svg>