<?xml version="1.0" encoding="UTF-8"?>
<svg xmlns="http://www.w3.org/2000/svg" xmlns:xlink="http://www.w3.org/1999/xlink" width="305pt" height="110pt" viewBox="0 0 305 110" version="1.1">
<g id="surface1">
<path style=" stroke:none;fill-rule:nonzero;fill:rgb(13.729858%,12.159729%,12.548828%);fill-opacity:1;" d="M 195.035156 109.84375 L 304.378906 109.84375 L 304.378906 0.5 L 195.035156 0.5 Z M 195.035156 109.84375 "/>
<path style=" stroke:none;fill-rule:nonzero;fill:rgb(13.729858%,12.159729%,12.548828%);fill-opacity:1;" d="M 0.660156 109.84375 L 85.707031 109.84375 L 85.707031 24.796875 L 0.660156 24.796875 Z M 0.660156 109.84375 "/>
<path style=" stroke:none;fill-rule:nonzero;fill:rgb(13.729858%,12.159729%,12.548828%);fill-opacity:1;" d="M 97.847656 109.84375 L 182.894531 109.84375 L 182.894531 24.796875 L 97.847656 24.796875 Z M 97.847656 109.84375 "/>
<path style=" stroke:none;fill-rule:nonzero;fill:rgb(100%,100%,100%);fill-opacity:1;" d="M 196.328125 108.550781 L 303.050781 108.550781 L 303.050781 1.828125 L 196.328125 1.828125 Z M 196.328125 108.550781 "/>
<path style=" stroke:none;fill-rule:nonzero;fill:rgb(100%,100%,100%);fill-opacity:1;" d="M 1.957031 108.742188 L 84.449219 108.742188 L 84.449219 26.246094 L 1.957031 26.246094 Z M 1.957031 108.742188 "/>
<path style=" stroke:none;fill-rule:nonzero;fill:rgb(100%,100%,100%);fill-opacity:1;" d="M 99.070312 108.671875 L 181.566406 108.671875 L 181.566406 26.175781 L 99.070312 26.175781 Z M 99.070312 108.671875 "/>
<path style=" stroke:none;fill-rule:nonzero;fill:rgb(13.729858%,12.159729%,12.548828%);fill-opacity:1;" d="M 291.609375 22.613281 C 291.667969 22.695312 291.707031 22.804688 291.707031 22.921875 C 291.707031 23.226562 291.460938 23.46875 291.160156 23.46875 C 291.117188 23.46875 291.074219 23.46875 291.035156 23.457031 L 285.109375 22.09375 L 285.109375 101.550781 L 276.359375 101.550781 L 276.359375 22.09375 L 270.429688 23.457031 C 270.390625 23.46875 270.351562 23.46875 270.308594 23.46875 C 270.007812 23.46875 269.761719 23.226562 269.761719 22.921875 C 269.761719 22.804688 269.796875 22.695312 269.855469 22.613281 L 280.28125 7.304688 C 280.382812 7.15625 280.546875 7.0625 280.734375 7.0625 C 280.921875 7.0625 281.089844 7.15625 281.183594 7.304688 L 291.609375 22.613281 "/>
<path style=" stroke:none;fill-rule:nonzero;fill:rgb(13.729858%,12.159729%,12.548828%);fill-opacity:1;" d="M 229.527344 22.636719 L 219.101562 7.324219 C 219.003906 7.179688 218.835938 7.085938 218.648438 7.085938 C 218.464844 7.085938 218.296875 7.179688 218.199219 7.324219 L 207.769531 22.640625 C 207.714844 22.730469 207.675781 22.835938 207.675781 22.953125 C 207.675781 23.253906 207.921875 23.496094 208.226562 23.496094 C 208.265625 23.496094 208.304688 23.496094 208.347656 23.484375 L 214.277344 22.113281 L 214.277344 26.164062 C 214.277344 32.207031 216.726562 37.671875 220.683594 41.628906 L 252.421875 73.371094 C 254.796875 75.746094 256.265625 79.027344 256.265625 82.644531 L 256.265625 101.582031 L 265.015625 101.582031 L 265.015625 82.644531 C 265.015625 76.617188 262.578125 71.164062 258.632812 67.214844 L 226.867188 35.441406 C 224.488281 33.070312 223.023438 29.792969 223.023438 26.164062 L 223.023438 22.113281 L 228.953125 23.476562 C 228.992188 23.484375 229.03125 23.496094 229.074219 23.496094 C 229.378906 23.496094 229.621094 23.246094 229.621094 22.941406 C 229.621094 22.832031 229.589844 22.726562 229.527344 22.636719 "/>
<path style=" stroke:none;fill-rule:nonzero;fill:rgb(13.729858%,12.159729%,12.548828%);fill-opacity:1;" d="M 231.695312 105.125 L 231.695312 103.367188 C 231.695312 93.945312 234.214844 85.113281 238.628906 77.5 C 238.820312 77.164062 239.152344 77 239.566406 77 C 239.984375 77 240.359375 77.242188 240.554688 77.582031 C 244.9375 85.171875 247.4375 93.980469 247.4375 103.371094 L 247.441406 105.125 L 244.742188 105.125 L 244.742188 103.367188 C 244.742188 102.652344 244.726562 101.941406 244.695312 101.230469 L 240.757812 105.125 L 239.164062 105.125 L 244.605469 99.695312 C 244.535156 98.75 244.429688 97.734375 244.300781 96.808594 L 235.984375 105.125 L 231.695312 105.125 "/>
<path style=" stroke:none;fill-rule:nonzero;fill:rgb(13.729858%,12.159729%,12.548828%);fill-opacity:1;" d="M 240.582031 33.003906 C 244.992188 25.394531 247.511719 16.5625 247.511719 7.136719 L 247.515625 5.382812 L 243.222656 5.382812 L 234.898438 13.625 C 234.769531 12.695312 234.671875 11.757812 234.605469 10.816406 L 240.042969 5.382812 L 238.449219 5.382812 L 234.515625 9.277344 C 234.484375 8.570312 234.46875 7.855469 234.46875 7.136719 L 234.46875 5.382812 L 231.769531 5.382812 L 231.769531 7.136719 C 231.769531 16.53125 234.269531 25.335938 238.652344 32.925781 C 238.847656 33.265625 239.226562 33.507812 239.640625 33.507812 C 240.058594 33.507812 240.386719 33.339844 240.582031 33.003906 "/>
<path style=" stroke:none;fill-rule:nonzero;fill:rgb(13.729858%,12.159729%,12.548828%);fill-opacity:1;" d="M 78.476562 45.578125 C 78.535156 45.664062 78.570312 45.769531 78.570312 45.878906 C 78.570312 46.171875 78.332031 46.410156 78.039062 46.410156 C 77.996094 46.410156 77.957031 46.40625 77.917969 46.394531 L 72.15625 45.070312 L 72.15625 104.460938 L 63.648438 104.460938 L 63.648438 45.070312 L 57.886719 46.394531 C 57.847656 46.402344 57.804688 46.410156 57.765625 46.410156 C 57.472656 46.410156 57.234375 46.171875 57.234375 45.878906 C 57.234375 45.765625 57.269531 45.664062 57.328125 45.578125 L 67.464844 30.691406 C 67.558594 30.550781 67.71875 30.457031 67.902344 30.457031 C 68.085938 30.457031 68.246094 30.550781 68.34375 30.691406 L 78.476562 45.578125 "/>
<path style=" stroke:none;fill-rule:nonzero;fill:rgb(13.729858%,12.159729%,12.548828%);fill-opacity:1;" d="M 53.78125 45.578125 C 53.839844 45.664062 53.871094 45.769531 53.871094 45.878906 C 53.871094 46.171875 53.632812 46.410156 53.339844 46.410156 C 53.300781 46.410156 53.261719 46.40625 53.222656 46.394531 L 47.457031 45.070312 L 47.457031 104.460938 L 38.949219 104.460938 L 38.949219 71.414062 L 22.792969 87.570312 L 22.792969 104.460938 L 14.289062 104.460938 L 14.289062 84.050781 L 38.953125 59.386719 L 38.953125 45.066406 L 33.183594 46.394531 C 33.148438 46.402344 33.109375 46.410156 33.066406 46.410156 C 32.773438 46.410156 32.535156 46.171875 32.535156 45.878906 C 32.535156 45.769531 32.570312 45.664062 32.628906 45.578125 L 42.765625 30.691406 C 42.859375 30.550781 43.023438 30.457031 43.203125 30.457031 C 43.386719 30.457031 43.546875 30.550781 43.644531 30.691406 L 53.78125 45.578125 "/>
<path style=" stroke:none;fill-rule:nonzero;fill:rgb(13.729858%,12.159729%,12.548828%);fill-opacity:1;" d="M 122.457031 45.546875 L 112.316406 30.65625 C 112.222656 30.515625 112.0625 30.425781 111.878906 30.425781 C 111.695312 30.425781 111.535156 30.515625 111.4375 30.660156 L 101.304688 45.546875 C 101.246094 45.632812 101.210938 45.738281 101.210938 45.84375 C 101.210938 46.140625 101.449219 46.378906 101.742188 46.378906 C 101.78125 46.378906 101.820312 46.371094 101.859375 46.363281 L 107.628906 45.039062 L 107.628906 104.429688 L 116.132812 104.429688 L 116.132812 45.039062 L 121.898438 46.363281 C 121.933594 46.371094 121.976562 46.378906 122.015625 46.378906 C 122.308594 46.378906 122.546875 46.140625 122.546875 45.84375 C 122.546875 45.734375 122.515625 45.632812 122.457031 45.546875 "/>
<path style=" stroke:none;fill-rule:nonzero;fill:rgb(13.729858%,12.159729%,12.548828%);fill-opacity:1;" d="M 147.082031 45.546875 L 136.945312 30.65625 C 136.851562 30.515625 136.691406 30.425781 136.507812 30.425781 C 136.324219 30.425781 136.164062 30.515625 136.066406 30.660156 L 125.929688 45.546875 C 125.871094 45.632812 125.839844 45.738281 125.839844 45.84375 C 125.839844 46.140625 126.074219 46.378906 126.367188 46.378906 C 126.410156 46.378906 126.449219 46.371094 126.488281 46.363281 L 132.257812 45.039062 L 132.257812 50.003906 L 132.253906 72.113281 L 144.019531 104.429688 L 153.066406 104.429688 L 140.757812 70.613281 L 140.757812 45.039062 L 146.523438 46.363281 C 146.5625 46.371094 146.601562 46.378906 146.644531 46.378906 C 146.9375 46.378906 147.175781 46.140625 147.175781 45.84375 C 147.175781 45.734375 147.140625 45.632812 147.082031 45.546875 "/>
<path style=" stroke:none;fill-rule:nonzero;fill:rgb(13.729858%,12.159729%,12.548828%);fill-opacity:1;" d="M 161.644531 30.660156 L 171.777344 45.546875 C 171.839844 45.628906 171.871094 45.734375 171.871094 45.84375 C 171.871094 46.140625 171.632812 46.378906 171.339844 46.378906 C 171.296875 46.378906 171.257812 46.371094 171.21875 46.363281 L 165.457031 45.039062 L 165.457031 70.613281 L 177.761719 104.429688 L 168.714844 104.429688 L 156.953125 72.113281 L 156.953125 45.039062 L 151.1875 46.363281 C 151.148438 46.371094 151.109375 46.378906 151.066406 46.378906 C 150.773438 46.378906 150.535156 46.140625 150.535156 45.84375 C 150.535156 45.734375 150.566406 45.632812 150.628906 45.546875 L 160.765625 30.660156 C 160.859375 30.519531 161.019531 30.425781 161.203125 30.425781 C 161.386719 30.425781 161.546875 30.519531 161.644531 30.660156 "/>
<path style=" stroke:none;fill-rule:nonzero;fill:rgb(100%,100%,100%);fill-opacity:1;" d="M 242.253906 87.78125 C 242.003906 86.992188 241.71875 86.21875 241.402344 85.449219 L 236.121094 90.679688 C 235.75 92.023438 235.445312 93.386719 235.210938 94.773438 L 242.253906 87.78125 "/>
<path style=" stroke:none;fill-rule:nonzero;fill:rgb(100%,100%,100%);fill-opacity:1;" d="M 234.914062 96.640625 C 234.753906 97.789062 234.636719 98.949219 234.566406 100.125 L 243.351562 91.425781 C 243.15625 90.59375 242.914062 89.71875 242.652344 88.902344 L 234.914062 96.640625 "/>
<path style=" stroke:none;fill-rule:nonzero;fill:rgb(100%,100%,100%);fill-opacity:1;" d="M 234.492188 101.917969 C 234.476562 102.402344 234.472656 102.878906 234.472656 103.363281 L 234.472656 105.121094 L 244.175781 95.441406 C 244.039062 94.566406 243.855469 93.617188 243.65625 92.757812 L 234.492188 101.917969 "/>
<path style=" stroke:none;fill-rule:nonzero;fill:rgb(100%,100%,100%);fill-opacity:1;" d="M 240.976562 84.296875 C 240.578125 83.320312 240.132812 82.285156 239.652344 81.34375 C 238.511719 83.597656 237.546875 85.953125 236.78125 88.390625 L 240.976562 84.296875 "/>
<path style=" stroke:none;fill-rule:nonzero;fill:rgb(100%,100%,100%);fill-opacity:1;" d="M 244.640625 10.292969 L 235.851562 18.992188 C 236.046875 19.824219 236.292969 20.699219 236.554688 21.515625 L 244.289062 13.78125 C 244.453125 12.632812 244.566406 11.46875 244.640625 10.292969 "/>
<path style=" stroke:none;fill-rule:nonzero;fill:rgb(100%,100%,100%);fill-opacity:1;" d="M 235.582031 17.730469 L 244.746094 8.574219 C 244.761719 8.09375 244.769531 7.605469 244.769531 7.117188 L 244.769531 5.363281 L 235.066406 15.042969 C 235.199219 15.917969 235.382812 16.871094 235.582031 17.730469 "/>
<path style=" stroke:none;fill-rule:nonzero;fill:rgb(100%,100%,100%);fill-opacity:1;" d="M 242.441406 22.007812 L 238.269531 26.15625 C 238.664062 27.128906 239.089844 28.113281 239.570312 29.054688 C 240.714844 26.800781 241.679688 24.445312 242.441406 22.007812 "/>
<path style=" stroke:none;fill-rule:nonzero;fill:rgb(100%,100%,100%);fill-opacity:1;" d="M 244.027344 15.675781 L 236.960938 22.699219 C 237.210938 23.484375 237.492188 24.261719 237.808594 25.03125 L 243.121094 19.761719 C 243.492188 18.417969 243.789062 17.0625 244.027344 15.675781 "/>
</g>
</svg>
