<?xml version="1.0" encoding="UTF-8"?>
<svg xmlns="http://www.w3.org/2000/svg" xmlns:xlink="http://www.w3.org/1999/xlink" width="73pt" height="100pt" viewBox="0 0 73 100" version="1.1">
<g id="surface1">
<path style=" stroke:none;fill-rule:nonzero;fill:rgb(100%,100%,100%);fill-opacity:1;" d="M 1.085938 99.78125 L 71.953125 99.78125 L 71.953125 0.566406 L 1.085938 0.566406 Z M 1.085938 99.78125 "/>
<path style="fill:none;stroke-width:2.835;stroke-linecap:butt;stroke-linejoin:miter;stroke:rgb(13.729858%,12.159729%,12.548828%);stroke-opacity:1;stroke-miterlimit:4;" d="M 10.859375 2.1875 L 719.53125 2.1875 L 719.53125 994.335938 L 10.859375 994.335938 L 10.859375 2.1875 " transform="matrix(0.1,0,0,-0.1,0,100)"/>
<path style=" stroke:none;fill-rule:nonzero;fill:rgb(10.112%,40.585327%,73.280334%);fill-opacity:1;" d="M 2.503906 98.363281 L 70.535156 98.363281 L 70.535156 1.984375 L 2.503906 1.984375 Z M 2.503906 98.363281 "/>
<path style=" stroke:none;fill-rule:nonzero;fill:rgb(100%,100%,100%);fill-opacity:1;" d="M 11.71875 60.804688 L 61.320312 60.804688 L 61.320312 11.199219 L 11.71875 11.199219 Z M 11.71875 60.804688 "/>
<path style=" stroke:none;fill-rule:nonzero;fill:rgb(13.729858%,12.159729%,12.548828%);fill-opacity:1;" d="M 18.09375 55.84375 L 18.09375 38.601562 C 18.09375 38.496094 18.09375 38.289062 18.09375 38.179688 C 18.195312 37.550781 18.296875 36.921875 18.605469 36.394531 C 19.019531 35.660156 19.535156 34.921875 20.261719 34.503906 C 20.984375 34.085938 21.808594 33.871094 22.636719 33.871094 C 23.355469 33.871094 23.972656 34.085938 24.59375 34.398438 C 25.113281 34.714844 25.628906 35.136719 26.039062 35.660156 C 26.351562 36.078125 26.554688 36.5 26.761719 37.027344 C 26.867188 37.449219 26.867188 37.867188 26.867188 38.289062 L 26.867188 41.757812 C 26.96875 41.652344 27.175781 41.652344 27.28125 41.652344 L 29.242188 40.808594 C 30.375 40.390625 31.511719 40.074219 32.648438 39.96875 C 33.886719 39.757812 35.019531 39.652344 36.257812 39.550781 C 37.601562 39.550781 38.945312 39.652344 40.285156 39.96875 C 41.523438 40.179688 42.761719 40.496094 44 40.917969 L 45.753906 41.652344 C 45.859375 41.652344 45.964844 41.757812 46.066406 41.757812 C 46.066406 41.652344 46.066406 41.441406 46.066406 41.335938 C 46.066406 41.023438 46.066406 40.601562 46.167969 40.285156 C 46.273438 39.757812 46.582031 39.339844 46.894531 38.917969 C 47.203125 38.394531 47.71875 37.972656 48.230469 37.65625 C 48.957031 37.238281 49.78125 36.921875 50.605469 37.027344 C 51.535156 37.027344 52.359375 37.34375 53.085938 37.867188 C 53.597656 38.179688 54.117188 38.707031 54.425781 39.234375 C 54.632812 39.757812 54.835938 40.285156 54.835938 40.917969 C 54.835938 41.023438 54.941406 41.230469 54.941406 41.335938 L 54.941406 54.476562 L 52.980469 54.476562 L 52.980469 50.902344 L 48.027344 50.902344 L 48.027344 55.84375 L 46.066406 55.84375 L 46.066406 50.902344 L 26.867188 50.902344 L 26.867188 54.476562 L 25.007812 54.476562 L 25.007812 50.902344 L 20.054688 50.902344 L 20.054688 55.84375 L 18.09375 55.84375 "/>
<path style=" stroke:none;fill-rule:nonzero;fill:rgb(13.729858%,12.159729%,12.548828%);fill-opacity:1;" d="M 38.90625 21.914062 C 38.992188 21.957031 39.078125 21.957031 39.164062 21.957031 C 39.335938 21.957031 39.507812 21.871094 39.640625 21.742188 L 44.683594 16.65625 L 45.027344 17.003906 L 39.855469 22.175781 C 39.683594 22.347656 39.421875 22.476562 39.164062 22.476562 C 38.992188 22.476562 38.777344 22.433594 38.648438 22.347656 L 36.664062 24.375 L 37.570312 25.363281 C 37.570312 25.320312 37.960938 25.148438 38.132812 25.191406 C 38.390625 25.234375 38.519531 25.277344 38.691406 25.449219 L 43.863281 30.667969 C 44.164062 30.964844 44.339844 31.65625 43.777344 32.171875 C 43.433594 32.519531 42.871094 32.5625 42.527344 32.21875 L 37.226562 26.917969 C 37.011719 26.699219 36.921875 26.527344 36.882812 26.398438 C 36.839844 26.183594 36.96875 25.882812 37.140625 25.710938 L 36.234375 24.804688 L 35.289062 25.710938 C 35.546875 25.96875 35.675781 26.441406 35.203125 26.917969 L 29.898438 32.21875 C 29.554688 32.5625 28.996094 32.519531 28.648438 32.171875 C 28.089844 31.65625 28.261719 30.964844 28.5625 30.667969 L 33.734375 25.449219 C 33.90625 25.277344 34.035156 25.234375 34.296875 25.191406 C 34.597656 25.148438 34.855469 25.363281 34.855469 25.363281 L 35.847656 24.375 L 34.597656 23.121094 L 34.382812 22.949219 C 34.296875 22.90625 34.121094 22.863281 33.992188 22.863281 L 33.777344 22.863281 C 33.691406 22.863281 33.390625 22.734375 33.304688 22.691406 C 33.261719 22.648438 33.171875 22.605469 33.132812 22.5625 L 28.5625 18.039062 C 28.519531 17.996094 28.089844 17.519531 28.046875 17.21875 C 27.960938 16.917969 28.046875 16.527344 28.175781 16.226562 C 28.261719 15.96875 28.433594 15.753906 28.605469 15.582031 L 34.46875 21.269531 C 34.46875 21.269531 34.425781 21.484375 34.425781 21.613281 C 34.425781 21.742188 34.425781 21.914062 34.46875 22.042969 C 34.511719 22.132812 34.941406 22.691406 34.941406 22.691406 L 36.234375 23.984375 L 38.261719 21.914062 C 38.132812 21.742188 38.046875 21.570312 38.046875 21.355469 C 38.046875 21.097656 38.175781 20.839844 38.347656 20.667969 L 43.476562 15.449219 L 43.777344 15.796875 L 38.777344 20.882812 C 38.648438 21.011719 38.5625 21.183594 38.5625 21.355469 C 38.5625 21.441406 38.605469 21.527344 38.648438 21.613281 L 44.121094 16.097656 L 44.382812 16.398438 L 38.90625 21.914062 "/>
<path style=" stroke:none;fill-rule:nonzero;fill:rgb(100%,100%,100%);fill-opacity:1;" d="M 26.863281 45.984375 L 26.863281 43.144531 C 27.066406 43.039062 27.171875 42.933594 27.378906 42.933594 C 27.585938 42.828125 29.445312 42.09375 29.648438 41.988281 C 30.785156 41.570312 31.816406 41.355469 32.953125 41.148438 C 34.085938 40.933594 35.222656 40.832031 36.253906 40.832031 C 37.597656 40.933594 38.941406 41.042969 40.179688 41.253906 C 41.417969 41.570312 42.550781 41.882812 43.6875 42.304688 C 44.40625 42.511719 45.027344 42.828125 45.75 43.144531 C 45.855469 43.144531 45.957031 43.25 46.0625 43.25 L 46.0625 45.984375 L 26.863281 45.984375 "/>
<path style=" stroke:none;fill-rule:nonzero;fill:rgb(100%,100%,100%);fill-opacity:1;" d="M 34.210938 22.179688 L 28.996094 17.050781 C 28.910156 16.964844 28.738281 16.835938 28.566406 17.007812 C 28.390625 17.136719 28.476562 17.398438 28.609375 17.523438 L 33.089844 21.964844 C 33.132812 22.007812 33.21875 22.050781 33.261719 22.09375 C 33.691406 22.351562 34.210938 22.179688 34.210938 22.179688 "/>
</g>
</svg>
