<?xml version="1.0" encoding="UTF-8"?>
<svg xmlns="http://www.w3.org/2000/svg" xmlns:xlink="http://www.w3.org/1999/xlink" width="73pt" height="100pt" viewBox="0 0 73 100" version="1.1">
<g id="surface1">
<path style=" stroke:none;fill-rule:nonzero;fill:rgb(100%,100%,100%);fill-opacity:1;" d="M 1.085938 99.78125 L 71.953125 99.78125 L 71.953125 0.566406 L 1.085938 0.566406 Z M 1.085938 99.78125 "/>
<path style="fill:none;stroke-width:2.835;stroke-linecap:butt;stroke-linejoin:miter;stroke:rgb(13.729858%,12.159729%,12.548828%);stroke-opacity:1;stroke-miterlimit:4;" d="M 10.859375 2.1875 L 719.53125 2.1875 L 719.53125 994.335938 L 10.859375 994.335938 L 10.859375 2.1875 " transform="matrix(0.1,0,0,-0.1,0,100)"/>
<path style=" stroke:none;fill-rule:nonzero;fill:rgb(10.112%,40.585327%,73.280334%);fill-opacity:1;" d="M 2.503906 98.363281 L 70.53125 98.363281 L 70.53125 1.984375 L 2.503906 1.984375 Z M 2.503906 98.363281 "/>
<path style=" stroke:none;fill-rule:nonzero;fill:rgb(100%,100%,100%);fill-opacity:1;" d="M 11.71875 60.804688 L 61.320312 60.804688 L 61.320312 11.199219 L 11.71875 11.199219 Z M 11.71875 60.804688 "/>
<path style=" stroke:none;fill-rule:nonzero;fill:rgb(13.729858%,12.159729%,12.548828%);fill-opacity:1;" d="M 41.492188 31.046875 C 41.671875 31.136719 41.847656 31.136719 42.027344 31.136719 C 42.386719 31.136719 42.746094 30.957031 43.015625 30.691406 L 53.515625 20.09375 L 54.234375 20.8125 L 43.464844 31.585938 C 43.105469 31.945312 42.566406 32.214844 42.027344 32.214844 C 41.671875 32.214844 41.222656 32.125 40.957031 31.945312 L 36.824219 36.167969 L 38.710938 38.230469 C 38.710938 38.140625 39.515625 37.78125 39.875 37.871094 C 40.414062 37.960938 40.683594 38.050781 41.042969 38.410156 L 51.808594 49.28125 C 52.441406 49.902344 52.800781 51.34375 51.628906 52.417969 C 50.914062 53.140625 49.746094 53.230469 49.027344 52.507812 L 37.988281 41.46875 C 37.542969 41.019531 37.363281 40.65625 37.273438 40.386719 C 37.183594 39.9375 37.453125 39.3125 37.808594 38.953125 L 35.925781 37.066406 L 33.953125 38.953125 C 34.492188 39.492188 34.765625 40.476562 33.773438 41.46875 L 22.730469 52.507812 C 22.019531 53.230469 20.851562 53.140625 20.132812 52.417969 C 18.96875 51.34375 19.328125 49.902344 19.953125 49.28125 L 30.722656 38.410156 C 31.082031 38.050781 31.351562 37.960938 31.886719 37.871094 C 32.519531 37.78125 33.058594 38.230469 33.058594 38.230469 L 35.121094 36.167969 L 32.519531 33.5625 L 32.066406 33.207031 C 31.886719 33.117188 31.53125 33.027344 31.261719 33.027344 L 30.8125 33.027344 C 30.632812 33.027344 30 32.757812 29.824219 32.664062 C 29.734375 32.578125 29.554688 32.484375 29.464844 32.394531 L 19.953125 22.972656 C 19.863281 22.882812 18.96875 21.890625 18.878906 21.261719 C 18.695312 20.636719 18.878906 19.824219 19.148438 19.195312 C 19.328125 18.65625 19.683594 18.207031 20.042969 17.847656 L 32.246094 29.703125 C 32.246094 29.703125 32.15625 30.148438 32.15625 30.417969 C 32.15625 30.691406 32.15625 31.046875 32.246094 31.316406 C 32.335938 31.496094 33.238281 32.664062 33.238281 32.664062 L 35.925781 35.363281 L 40.144531 31.046875 C 39.875 30.691406 39.695312 30.328125 39.695312 29.882812 C 39.695312 29.347656 39.964844 28.804688 40.328125 28.445312 L 51.003906 17.578125 L 51.628906 18.296875 L 41.222656 28.898438 C 40.957031 29.167969 40.777344 29.523438 40.777344 29.882812 C 40.777344 30.058594 40.867188 30.238281 40.957031 30.417969 L 52.347656 18.925781 L 52.890625 19.554688 L 41.492188 31.046875 "/>
<path style=" stroke:none;fill-rule:nonzero;fill:rgb(100%,100%,100%);fill-opacity:1;" d="M 31.710938 31.597656 L 20.851562 20.910156 C 20.675781 20.730469 20.316406 20.460938 19.957031 20.824219 C 19.597656 21.09375 19.777344 21.632812 20.046875 21.898438 L 29.382812 31.148438 C 29.472656 31.238281 29.644531 31.328125 29.734375 31.417969 C 30.636719 31.957031 31.710938 31.597656 31.710938 31.597656 "/>
</g>
</svg>
