<?xml version="1.0" encoding="UTF-8"?>
<svg xmlns="http://www.w3.org/2000/svg" xmlns:xlink="http://www.w3.org/1999/xlink" width="73pt" height="100pt" viewBox="0 0 73 100" version="1.1">
<g id="surface1">
<path style=" stroke:none;fill-rule:nonzero;fill:rgb(100%,100%,100%);fill-opacity:1;" d="M 1.085938 99.78125 L 71.953125 99.78125 L 71.953125 0.566406 L 1.085938 0.566406 Z M 1.085938 99.78125 "/>
<path style="fill:none;stroke-width:2.835;stroke-linecap:butt;stroke-linejoin:miter;stroke:rgb(13.729858%,12.159729%,12.548828%);stroke-opacity:1;stroke-miterlimit:4;" d="M 10.859375 2.1875 L 719.53125 2.1875 L 719.53125 994.335938 L 10.859375 994.335938 L 10.859375 2.1875 " transform="matrix(0.1,0,0,-0.1,0,100)"/>
<path style=" stroke:none;fill-rule:nonzero;fill:rgb(10.112%,40.585327%,73.280334%);fill-opacity:1;" d="M 2.503906 98.363281 L 70.53125 98.363281 L 70.53125 1.984375 L 2.503906 1.984375 Z M 2.503906 98.363281 "/>
<path style=" stroke:none;fill-rule:nonzero;fill:rgb(100%,100%,100%);fill-opacity:1;" d="M 11.71875 60.804688 L 61.320312 60.804688 L 61.320312 11.199219 L 11.71875 11.199219 Z M 11.71875 60.804688 "/>
<path style=" stroke:none;fill-rule:nonzero;fill:rgb(13.729858%,12.159729%,12.548828%);fill-opacity:1;" d="M 16.320312 49.429688 L 56.71875 49.464844 L 56.71875 48.308594 L 50.074219 48.308594 L 50.074219 31.09375 L 53.542969 31.09375 L 41.96875 20.40625 L 30.40625 31.09375 L 34.15625 31.09375 L 34.15625 48.308594 L 28.105469 48.308594 L 24.582031 37.164062 C 25.007812 37.328125 25.683594 37.589844 26.121094 37.742188 C 26.949219 38.046875 27.800781 38.320312 28.65625 38.585938 C 29.621094 38.863281 30.734375 39.160156 31.742188 39.3125 C 32.167969 39.390625 32.785156 39.457031 33.207031 39.5 C 32.570312 39.0625 31.660156 38.441406 31.035156 37.984375 C 30.191406 37.371094 29.375 36.730469 28.59375 36.054688 C 27.789062 35.367188 27.019531 34.636719 26.296875 33.882812 C 25.917969 33.480469 25.410156 32.914062 25.042969 32.511719 C 25.246094 32.566406 25.613281 32.683594 25.8125 32.75 C 26.296875 32.894531 26.796875 33.03125 27.292969 33.164062 C 27.910156 33.328125 28.609375 33.480469 29.234375 33.554688 C 29.578125 33.601562 30.0625 33.632812 30.40625 33.65625 C 30.179688 33.5 29.886719 33.296875 29.667969 33.128906 C 29.246094 32.8125 28.746094 32.398438 28.34375 32.066406 C 27.46875 31.324219 26.511719 30.460938 25.71875 29.640625 C 24.996094 28.890625 24.308594 28.09375 23.683594 27.277344 C 23.011719 26.40625 22.378906 25.5 21.789062 24.585938 C 21.21875 23.703125 20.6875 22.785156 20.179688 21.878906 C 20.144531 21.804688 19.539062 20.726562 19.503906 20.648438 C 19.398438 20.441406 19.089844 19.90625 18.984375 19.699219 C 18.996094 20.046875 19.019531 20.515625 19.042969 20.863281 C 19.066406 21.0625 19.125 21.96875 19.152344 22.164062 C 19.21875 23.078125 19.28125 24.105469 19.316406 25.019531 C 19.363281 26.425781 19.328125 27.890625 19.269531 29.292969 C 19.199219 30.882812 19.054688 32.566406 18.820312 34.144531 C 18.617188 35.5 18.332031 36.839844 17.976562 38.15625 C 17.824219 38.734375 17.625 39.390625 17.398438 39.945312 C 17.324219 40.121094 17.210938 40.390625 17.136719 40.566406 C 17.398438 40.390625 17.765625 40.15625 18.023438 39.976562 C 18.664062 39.53125 19.28125 39.03125 19.859375 38.503906 C 20.335938 38.089844 20.796875 37.644531 21.230469 37.199219 C 21.480469 36.945312 21.800781 36.617188 22.039062 36.371094 C 21.882812 36.753906 21.644531 37.304688 21.46875 37.6875 C 21.089844 38.496094 20.59375 39.300781 20.082031 40.042969 C 19.554688 40.816406 18.914062 41.625 18.324219 42.351562 C 18.003906 42.746094 17.457031 43.390625 17.136719 43.773438 C 17.257812 43.738281 17.421875 43.695312 17.542969 43.652344 C 17.859375 43.554688 18.167969 43.445312 18.472656 43.316406 C 19.375 42.933594 20.226562 42.421875 20.984375 41.84375 C 21.636719 41.363281 22.226562 40.828125 22.792969 40.261719 C 23.054688 39.988281 23.339844 39.695312 23.589844 39.402344 C 23.695312 39.289062 23.8125 39.148438 23.90625 39.042969 L 26.25 48.308594 L 16.332031 48.296875 L 16.320312 49.429688 "/>
<path style=" stroke:none;fill-rule:nonzero;fill:rgb(100%,100%,100%);fill-opacity:1;" d="M 38.617188 48.308594 L 38.617188 38.222656 L 45.320312 38.222656 L 45.320312 48.308594 L 38.617188 48.308594 "/>
</g>
</svg>
