<svg width="71" height="100" xmlns="http://www.w3.org/2000/svg">
 <!-- Created with Method Draw - http://github.com/duopixel/Method-Draw/ -->

 <g>
  <title>background</title>
  <rect fill="#fff" id="canvas_background" height="102" width="73" y="-1" x="-1"/>
  <g display="none" overflow="visible" y="0" x="0" height="100%" width="100%" id="canvasGrid">
   <rect fill="url(#gridpattern)" stroke-width="0" y="0" x="0" height="100%" width="100%"/>
  </g>
 </g>
 <g>
  <title>Layer 1</title>
  <metadata id="svg_33">image/svg+xml</metadata>

  <g id="svg_35">
   <path fill="#ffffff" fill-rule="nonzero" id="svg_32" d="m0.5433,99.08851l69.91219,0l0,-98.1794l-69.91219,0l0,98.1794zm0,0"/>
   <path fill="none" stroke="#211e1e" stroke-width="0.2835" stroke-miterlimit="4" id="svg_31" d="m0.5433,99.08851l69.91219,0l0,-98.1794l-69.91219,0l0,98.1794"/>
   <path fill="#1966ba" fill-rule="nonzero" id="svg_30" d="m2.03756,97.61571l66.91578,0l0,-95.23379l-66.91578,0l0,95.23379zm0,0"/>
   <path fill="#ffffff" fill-rule="nonzero" id="svg_29" d="m10.53131,59.81753l49.93615,0l0,-49.0897l-49.93615,0l0,49.0897zm0,0"/>
   <path fill="#211e1e" fill-rule="nonzero" id="svg_28" d="m18.02626,32.12412l1.80492,0l0,-6.06132l0.56625,0c0.48366,0 0.84937,0.09664 1.1207,0.31311c0.24773,0.22034 0.464,0.61077 0.61343,1.18288l1.25441,4.56532l1.91896,0l-1.56899,-5.37324c-0.14943,-0.51413 -0.33031,-0.8659 -0.53479,-1.08238c-0.21627,-0.19715 -0.46794,-0.33632 -0.75106,-0.3943l0,-0.03865c0.7668,-0.17782 1.33697,-0.54892 1.72235,-1.14036c0.38143,-0.59145 0.56625,-1.30272 0.56625,-2.12997c0,-0.6301 -0.08651,-1.15969 -0.24774,-1.61583c-0.16909,-0.44842 -0.4011,-0.82338 -0.70388,-1.12103c-0.29885,-0.29379 -0.65275,-0.51027 -1.06958,-0.64943c-0.41682,-0.13917 -0.88476,-0.19715 -1.38417,-0.19715l-3.30705,0l0,13.74233"/>
   <path fill="#211e1e" fill-rule="nonzero" id="svg_27" d="m31.28988,32.12412l1.57292,0c-0.01966,-0.17396 -0.05112,-0.42909 -0.07078,-0.72674c-0.01573,-0.29378 -0.03146,-0.6069 -0.03146,-0.94321l0,-4.82431c0,-0.67262 -0.05112,-1.22155 -0.16909,-1.6545c-0.11404,-0.43295 -0.29886,-0.78858 -0.51907,-1.08238c-0.18088,-0.259 -0.48366,-0.49093 -0.88476,-0.70741c-0.39716,-0.20102 -0.91623,-0.29765 -1.56899,-0.29765c-0.55052,0 -1.03419,0.07732 -1.45101,0.2358c-0.41682,0.15848 -0.80219,0.33244 -1.1207,0.54891l0.1337,1.755c0.22021,-0.25513 0.53479,-0.49093 0.95161,-0.70741c0.4011,-0.19715 0.83758,-0.29765 1.32125,-0.29765c0.61737,0 1.04992,0.19715 1.32125,0.59144c0.12977,0.19715 0.23201,0.41362 0.28312,0.64943c0.04718,0.25514 0.06685,0.53347 0.06685,0.84658l0,0.41362l-0.6213,0c-1.38417,0 -2.45375,0.27833 -3.17335,0.80792c-0.71568,0.55278 -1.08531,1.41868 -1.08531,2.59771c0,0.47547 0.07078,0.88909 0.20054,1.26406c0.13371,0.37497 0.31852,0.66875 0.55446,0.92388c0.21234,0.25514 0.48366,0.43295 0.78252,0.55279c0.30279,0.1353 0.61737,0.19328 0.96735,0.19328c0.63703,0 1.13643,-0.15463 1.5218,-0.47161c0.3657,-0.29379 0.66455,-0.64943 0.88476,-1.04372l0.03146,0c0,0.05798 0,0.15849 0.01966,0.29765c0,0.1353 0,0.27447 0.01573,0.41362c0.01573,0.1353 0.01573,0.27446 0.03539,0.3943c0.01572,0.1353 0.01572,0.21648 0.03146,0.2706"/>
   <path fill="#211e1e" fill-rule="nonzero" id="svg_26" d="m39.46904,32.12412l1.65549,0c-0.01966,-0.25127 -0.03539,-0.5296 -0.05112,-0.82339c-0.01966,-0.29765 -0.01966,-0.63009 -0.01966,-0.96641l0,-12.97694l-1.73414,0l0,6.08451l-0.03539,0c-0.21627,-0.45228 -0.4994,-0.82725 -0.84937,-1.12103c-0.3539,-0.29379 -0.80218,-0.43295 -1.35663,-0.43295c-0.90049,0 -1.61617,0.43295 -2.15096,1.31818c-0.53479,0.88909 -0.80219,2.16476 -0.80219,3.88109c0,0.78859 0.06685,1.496 0.20055,2.1261c0.11797,0.64943 0.31852,1.18288 0.57019,1.63516c0.25167,0.45228 0.56625,0.80792 0.93195,1.04372c0.3657,0.25127 0.80219,0.3711 1.28586,0.3711c0.31852,0 0.60164,-0.03865 0.85331,-0.15463c0.23201,-0.1005 0.44828,-0.21648 0.6331,-0.37497c0.18481,-0.15848 0.33424,-0.33631 0.44828,-0.53346c0.11797,-0.19715 0.23593,-0.3943 0.31852,-0.6069l0.05112,0c0,0.09664 0,0.21261 0.01966,0.37497c0,0.15463 0,0.31311 0.01572,0.46774c0,0.15849 0,0.29765 0.01573,0.43682c0,0.1353 0,0.21648 0,0.25127"/>
   <path fill="#211e1e" fill-rule="nonzero" id="svg_25" d="m42.72104,32.12412l1.73413,0l0,-10.09704l-1.73413,0l0,10.09704"/>
   <path fill="#211e1e" fill-rule="nonzero" id="svg_24" d="m42.66993,19.99762l1.83637,0l0,-2.18408l-1.83637,0l0,2.18408"/>
   <path fill="#211e1e" fill-rule="nonzero" id="svg_23" d="m46.81455,31.0456c0.31458,0.41362 0.69996,0.72674 1.15216,0.92389c0.43255,0.19328 0.9005,0.29378 1.3999,0.29378c0.50333,0 0.97127,-0.1005 1.42349,-0.29378c0.43255,-0.19715 0.81399,-0.51027 1.13644,-0.92389c0.31458,-0.41748 0.58197,-0.94708 0.76286,-1.59651c0.18875,-0.64943 0.28706,-1.45735 0.28706,-2.38123c0,-0.90843 -0.09831,-1.69701 -0.28706,-2.34644c-0.18089,-0.64943 -0.44828,-1.19835 -0.76286,-1.61197c-0.32245,-0.41362 -0.70388,-0.7306 -1.13644,-0.92388c-0.45221,-0.20102 -0.92015,-0.29765 -1.42349,-0.29765c-0.4994,0 -0.96735,0.09664 -1.3999,0.29765c-0.4522,0.19328 -0.83758,0.51026 -1.15216,0.92388c-0.31851,0.41362 -0.58591,0.96255 -0.77072,1.61197c-0.18089,0.64943 -0.28312,1.43801 -0.28312,2.34644c0,0.92388 0.10224,1.7318 0.28312,2.38123c0.18481,0.64943 0.45221,1.17902 0.77072,1.59651"/>
   <path fill="#ffffff" fill-rule="nonzero" id="svg_22" d="m19.83118,24.42764l0,-4.37203l1.01453,0c0.6213,0 1.1207,0.15849 1.4864,0.47161c0.3539,0.31698 0.53479,0.86976 0.53479,1.63516c0,0.64943 -0.16515,1.20221 -0.4994,1.61583c-0.34998,0.43295 -0.84937,0.64943 -1.53753,0.64943l-0.99879,0"/>
   <path fill="#ffffff" fill-rule="nonzero" id="svg_21" d="m31.12472,27.18384l0,0.90843c0,0.80405 -0.14943,1.45734 -0.45221,1.94828c-0.31852,0.51413 -0.77073,0.76539 -1.3881,0.76539c-0.44828,0 -0.78252,-0.15463 -1.01846,-0.44841c-0.23201,-0.29765 -0.34997,-0.71128 -0.34997,-1.20608c0,-0.66489 0.21627,-1.1597 0.66849,-1.496c0.45221,-0.33245 1.10104,-0.49093 1.95434,-0.49093c0.09831,0 0.19662,0 0.31852,0c0.11797,0 0.21627,0 0.2674,0.01933"/>
   <path fill="#ffffff" fill-rule="nonzero" id="svg_20" d="m36.24456,29.7854c-0.25167,-0.61076 -0.38143,-1.53852 -0.38143,-2.76006c0,-1.15969 0.12976,-2.04491 0.40109,-2.65569c0.26346,-0.61077 0.69996,-0.92775 1.31732,-0.92775c0.61737,0 1.05385,0.31698 1.33305,0.96641c0.27133,0.64943 0.40502,1.53466 0.40502,2.65956c0,1.12103 -0.1337,2.01013 -0.40502,2.65569c-0.2792,0.6533 -0.73141,0.98574 -1.34878,0.98574c-0.63703,0 -1.06958,-0.31312 -1.32125,-0.92389"/>
   <path fill="#ffffff" fill-rule="nonzero" id="svg_19" d="m47.96671,29.6849c-0.14942,-0.33631 -0.25167,-0.70741 -0.30279,-1.16355c-0.06685,-0.44841 -0.09831,-0.92388 -0.09831,-1.45348c0,-0.53346 0.03146,-1.00506 0.09831,-1.45735c0.05112,-0.45614 0.15337,-0.82724 0.30279,-1.16355c0.14943,-0.31698 0.33425,-0.56825 0.56625,-0.74606c0.21628,-0.17782 0.50333,-0.27833 0.83365,-0.27833c0.33818,0 0.6213,0.1005 0.85331,0.27833c0.21627,0.17781 0.40109,0.42908 0.55052,0.74606c0.15336,0.33632 0.25167,0.70742 0.31852,1.16355c0.04718,0.45229 0.08258,0.92389 0.08258,1.45735c0,0.5296 -0.03539,1.00507 -0.08258,1.45348c-0.06685,0.45615 -0.16516,0.82725 -0.31852,1.16355c-0.14943,0.33632 -0.33424,0.59145 -0.55052,0.76927c-0.23201,0.17395 -0.51513,0.27446 -0.85331,0.27446c-0.33032,0 -0.61737,-0.1005 -0.83365,-0.27446c-0.232,-0.17782 -0.41682,-0.43295 -0.56625,-0.76927"/>
  </g>
  <text xml:space="default" dominant-baseline="middle" text-anchor="middle" font-family="sans-serif" font-size="10" id="svg_36" y="50.24685" x="35"  fill="#000000">param(text1)</text>
  <text xml:space="default" dominant-baseline="middle" text-anchor="middle" font-family="sans-serif" font-size="14" id="svg_37" y="82.0984" x="35" fill="#ffffff">param(text2)</text>
 </g>
</svg>