<?xml version="1.0" encoding="UTF-8"?>
<svg xmlns="http://www.w3.org/2000/svg" xmlns:xlink="http://www.w3.org/1999/xlink" width="67pt" height="100pt" viewBox="0 0 67 100" version="1.1">
<g id="surface1">
<path style=" stroke:none;fill-rule:nonzero;fill:rgb(10.112%,40.585327%,73.280334%);fill-opacity:1;" d="M 0.777344 99.777344 L 66.257812 99.777344 L 66.257812 0.566406 L 0.777344 0.566406 Z M 0.777344 99.777344 "/>
<path style=" stroke:none;fill-rule:nonzero;fill:rgb(100%,100%,100%);fill-opacity:1;" d="M 23.378906 17.96875 L 35.902344 17.96875 C 35.902344 17.96875 36.136719 17.96875 36.257812 17.96875 C 36.371094 17.96875 36.605469 17.851562 36.726562 17.851562 C 36.960938 17.730469 37.074219 17.730469 37.308594 17.617188 C 37.429688 17.496094 37.542969 17.496094 37.542969 17.382812 L 35.433594 21.601562 L 23.378906 21.601562 L 23.378906 35.535156 C 23.496094 35.535156 23.730469 35.535156 23.84375 35.648438 C 24.546875 35.769531 25.253906 35.882812 25.953125 36.238281 C 27.125 36.707031 28.183594 37.410156 29 38.34375 C 30.28125 39.984375 31.101562 41.859375 31.101562 43.96875 C 31.101562 46.300781 30.164062 48.644531 28.53125 50.167969 C 26.65625 51.925781 24.199219 52.628906 21.734375 52.628906 C 19.277344 52.628906 16.816406 52.042969 14.941406 50.40625 C 13.078125 48.878906 12.023438 46.535156 11.90625 44.207031 C 11.789062 41.859375 12.722656 39.632812 14.25 37.992188 C 15.527344 36.707031 17.285156 35.769531 19.277344 35.535156 C 19.394531 35.535156 19.511719 35.535156 19.628906 35.535156 L 19.628906 21.601562 L 6.75 21.601562 L 6.75 17.496094 L 6.867188 17.617188 C 6.984375 17.730469 7.21875 17.851562 7.335938 17.851562 C 7.570312 17.96875 7.804688 17.96875 7.921875 17.96875 C 8.039062 17.96875 8.273438 17.96875 8.273438 17.96875 L 19.628906 17.96875 L 19.628906 8.253906 C 19.628906 8.136719 19.628906 8.019531 19.628906 7.902344 C 19.628906 7.667969 19.628906 7.550781 19.628906 7.316406 C 19.628906 7.082031 19.511719 6.847656 19.394531 6.730469 C 19.394531 6.613281 19.277344 6.613281 19.277344 6.496094 L 23.496094 6.496094 C 23.496094 6.613281 23.496094 6.613281 23.496094 6.730469 C 23.378906 6.847656 23.378906 6.964844 23.378906 7.082031 C 23.378906 7.316406 23.378906 7.550781 23.378906 7.785156 L 23.378906 17.96875 "/>
<path style=" stroke:none;fill-rule:nonzero;fill:rgb(10.112%,40.585327%,73.280334%);fill-opacity:1;" d="M 21.628906 38.96875 C 22.683594 39.085938 23.84375 39.203125 24.78125 39.671875 C 25.601562 40.023438 26.304688 40.726562 26.890625 41.429688 C 27.359375 42.238281 27.59375 43.175781 27.59375 44.113281 C 27.59375 44.933594 27.359375 45.871094 26.890625 46.574219 C 26.421875 47.394531 25.71875 48.097656 24.898438 48.566406 C 23.960938 49.035156 22.800781 49.152344 21.746094 49.152344 C 21.042969 49.152344 20.222656 49.035156 19.519531 48.917969 C 18.347656 48.566406 17.292969 47.980469 16.472656 47.042969 C 15.886719 46.222656 15.535156 45.167969 15.535156 43.996094 C 15.417969 43.175781 15.652344 42.238281 16.121094 41.535156 C 16.589844 40.609375 17.527344 39.90625 18.464844 39.554688 C 19.402344 39.085938 20.574219 38.96875 21.628906 38.96875 "/>
<path style=" stroke:none;fill-rule:nonzero;fill:rgb(100%,100%,100%);fill-opacity:1;" d="M 8.25 69.953125 L 8.734375 69.953125 L 9.429688 68.800781 L 8.699219 68.800781 L 8.25 69.953125 "/>
<path style=" stroke:none;fill-rule:nonzero;fill:rgb(100%,100%,100%);fill-opacity:1;" d="M 7.980469 72.730469 L 9.980469 72.730469 L 9.980469 72.453125 C 9.980469 72.097656 9.949219 71.792969 9.886719 71.53125 C 9.824219 71.269531 9.738281 71.050781 9.621094 70.886719 C 9.503906 70.71875 9.359375 70.597656 9.203125 70.519531 C 9.039062 70.441406 8.863281 70.402344 8.667969 70.402344 C 8.453125 70.402344 8.253906 70.449219 8.085938 70.550781 C 7.90625 70.65625 7.757812 70.804688 7.640625 70.988281 C 7.523438 71.179688 7.425781 71.402344 7.367188 71.664062 C 7.304688 71.925781 7.269531 72.214844 7.269531 72.523438 C 7.269531 72.820312 7.304688 73.097656 7.367188 73.351562 C 7.425781 73.609375 7.519531 73.824219 7.648438 74.007812 C 7.769531 74.191406 7.925781 74.332031 8.117188 74.433594 C 8.308594 74.546875 8.535156 74.59375 8.785156 74.59375 C 9.003906 74.59375 9.203125 74.570312 9.375 74.515625 C 9.542969 74.460938 9.679688 74.40625 9.796875 74.347656 L 9.761719 73.65625 C 9.675781 73.726562 9.558594 73.800781 9.421875 73.871094 C 9.28125 73.945312 9.109375 73.980469 8.90625 73.980469 C 8.578125 73.980469 8.34375 73.878906 8.199219 73.664062 C 8.058594 73.457031 7.980469 73.148438 7.980469 72.730469 "/>
<path style=" stroke:none;fill-rule:nonzero;fill:rgb(100%,100%,100%);fill-opacity:1;" d="M 11.234375 74.539062 L 12.074219 74.539062 L 13.128906 70.457031 L 12.417969 70.457031 L 11.667969 73.734375 L 11.65625 73.734375 L 10.917969 70.457031 L 10.167969 70.457031 L 11.234375 74.539062 "/>
<path style=" stroke:none;fill-rule:nonzero;fill:rgb(100%,100%,100%);fill-opacity:1;" d="M 15.304688 74.539062 L 15.949219 74.539062 C 15.941406 74.46875 15.925781 74.363281 15.921875 74.246094 C 15.914062 74.125 15.90625 74 15.90625 73.863281 L 15.90625 71.910156 C 15.90625 71.644531 15.886719 71.417969 15.839844 71.242188 C 15.792969 71.070312 15.714844 70.925781 15.628906 70.804688 C 15.550781 70.703125 15.429688 70.605469 15.265625 70.519531 C 15.101562 70.441406 14.890625 70.402344 14.621094 70.402344 C 14.398438 70.402344 14.199219 70.433594 14.03125 70.496094 C 13.859375 70.558594 13.703125 70.632812 13.570312 70.71875 L 13.628906 71.425781 C 13.714844 71.324219 13.847656 71.226562 14.015625 71.140625 C 14.179688 71.058594 14.359375 71.019531 14.554688 71.019531 C 14.808594 71.019531 14.984375 71.101562 15.09375 71.261719 C 15.148438 71.339844 15.191406 71.425781 15.210938 71.523438 C 15.230469 71.625 15.238281 71.738281 15.238281 71.863281 L 15.238281 72.03125 L 14.984375 72.03125 C 14.417969 72.03125 13.980469 72.144531 13.6875 72.359375 C 13.394531 72.582031 13.242188 72.929688 13.242188 73.410156 C 13.242188 73.601562 13.273438 73.765625 13.328125 73.917969 C 13.378906 74.070312 13.457031 74.191406 13.550781 74.292969 C 13.640625 74.398438 13.75 74.46875 13.871094 74.515625 C 13.996094 74.570312 14.125 74.59375 14.269531 74.59375 C 14.53125 74.59375 14.734375 74.53125 14.890625 74.40625 C 15.039062 74.28125 15.160156 74.144531 15.253906 73.980469 L 15.265625 73.980469 C 15.265625 74.007812 15.265625 74.046875 15.273438 74.101562 C 15.273438 74.15625 15.273438 74.214844 15.277344 74.269531 C 15.285156 74.324219 15.285156 74.378906 15.292969 74.425781 C 15.300781 74.480469 15.300781 74.515625 15.304688 74.539062 "/>
<path style=" stroke:none;fill-rule:nonzero;fill:rgb(100%,100%,100%);fill-opacity:1;" d="M 16.578125 74.539062 L 17.289062 74.539062 L 17.289062 72.117188 C 17.289062 71.800781 17.339844 71.546875 17.457031 71.363281 C 17.570312 71.179688 17.730469 71.09375 17.957031 71.09375 C 18.140625 71.09375 18.273438 71.164062 18.359375 71.308594 C 18.441406 71.453125 18.484375 71.683594 18.484375 72 L 18.484375 74.539062 L 19.191406 74.539062 L 19.191406 71.808594 C 19.191406 71.378906 19.109375 71.039062 18.945312 70.78125 C 18.78125 70.53125 18.523438 70.402344 18.167969 70.402344 C 17.964844 70.402344 17.789062 70.457031 17.628906 70.574219 C 17.472656 70.695312 17.347656 70.859375 17.261719 71.074219 L 17.246094 71.074219 C 17.246094 71.050781 17.246094 71.003906 17.246094 70.949219 C 17.242188 70.894531 17.242188 70.832031 17.234375 70.765625 C 17.226562 70.703125 17.226562 70.640625 17.226562 70.585938 C 17.21875 70.53125 17.21875 70.480469 17.21875 70.457031 L 16.550781 70.457031 C 16.558594 70.574219 16.566406 70.703125 16.570312 70.832031 C 16.578125 70.964844 16.578125 71.101562 16.578125 71.238281 L 16.578125 74.539062 "/>
<path style=" stroke:none;fill-rule:nonzero;fill:rgb(100%,100%,100%);fill-opacity:1;" d="M 19.882812 75.277344 L 19.84375 76.050781 C 19.960938 76.105469 20.125 76.160156 20.328125 76.21875 C 20.53125 76.273438 20.742188 76.304688 20.957031 76.304688 C 21.472656 76.304688 21.863281 76.136719 22.125 75.808594 C 22.382812 75.484375 22.511719 75.015625 22.511719 74.410156 L 22.511719 71.148438 C 22.511719 71.03125 22.519531 70.917969 22.523438 70.796875 C 22.53125 70.679688 22.53125 70.566406 22.539062 70.457031 L 21.886719 70.457031 C 21.886719 70.480469 21.886719 70.53125 21.886719 70.585938 C 21.878906 70.640625 21.878906 70.703125 21.871094 70.765625 C 21.863281 70.832031 21.863281 70.886719 21.863281 70.941406 C 21.855469 70.996094 21.855469 71.046875 21.855469 71.070312 L 21.835938 71.070312 C 21.75 70.886719 21.632812 70.726562 21.488281 70.59375 C 21.34375 70.464844 21.167969 70.402344 20.949219 70.402344 C 20.738281 70.402344 20.546875 70.449219 20.390625 70.550781 C 20.230469 70.65625 20.09375 70.789062 19.996094 70.972656 C 19.890625 71.15625 19.808594 71.378906 19.761719 71.636719 C 19.707031 71.898438 19.679688 72.183594 19.679688 72.503906 C 19.679688 72.882812 19.714844 73.203125 19.789062 73.464844 C 19.855469 73.726562 19.949219 73.945312 20.0625 74.101562 C 20.179688 74.269531 20.308594 74.378906 20.453125 74.453125 C 20.59375 74.523438 20.742188 74.558594 20.894531 74.558594 C 21.132812 74.558594 21.324219 74.5 21.46875 74.363281 C 21.609375 74.234375 21.726562 74.078125 21.816406 73.878906 L 21.828125 73.878906 L 21.828125 74.386719 C 21.828125 74.554688 21.816406 74.71875 21.789062 74.871094 C 21.753906 75.023438 21.707031 75.152344 21.636719 75.261719 C 21.5625 75.371094 21.46875 75.460938 21.34375 75.53125 C 21.222656 75.597656 21.066406 75.628906 20.882812 75.628906 C 20.691406 75.628906 20.507812 75.585938 20.324219 75.515625 C 20.136719 75.433594 19.996094 75.355469 19.882812 75.277344 "/>
<path style=" stroke:none;fill-rule:nonzero;fill:rgb(100%,100%,100%);fill-opacity:1;" d="M 23.21875 74.539062 L 23.960938 74.539062 L 23.960938 73.574219 L 23.21875 73.574219 L 23.21875 74.539062 "/>
<path style=" stroke:none;fill-rule:nonzero;fill:rgb(100%,100%,100%);fill-opacity:1;" d="M 27.488281 74.539062 L 28.195312 74.539062 L 28.195312 72.34375 C 28.195312 72.136719 28.21875 71.960938 28.257812 71.808594 C 28.296875 71.65625 28.355469 71.539062 28.421875 71.445312 C 28.488281 71.355469 28.570312 71.285156 28.660156 71.238281 C 28.75 71.195312 28.839844 71.171875 28.941406 71.171875 C 28.980469 71.171875 29.023438 71.171875 29.058594 71.179688 C 29.089844 71.191406 29.128906 71.195312 29.164062 71.203125 L 29.164062 70.40625 C 29.152344 70.40625 29.136719 70.40625 29.128906 70.402344 C 29.125 70.402344 29.109375 70.402344 29.097656 70.402344 C 28.964844 70.402344 28.851562 70.414062 28.75 70.457031 C 28.644531 70.496094 28.566406 70.550781 28.488281 70.621094 C 28.414062 70.695312 28.347656 70.773438 28.289062 70.859375 C 28.238281 70.949219 28.191406 71.046875 28.15625 71.148438 L 28.140625 71.148438 C 28.140625 71.117188 28.140625 71.070312 28.140625 71.003906 C 28.136719 70.941406 28.136719 70.867188 28.128906 70.796875 C 28.121094 70.726562 28.121094 70.660156 28.121094 70.597656 C 28.113281 70.535156 28.113281 70.488281 28.113281 70.457031 L 27.460938 70.457031 C 27.46875 70.574219 27.472656 70.703125 27.480469 70.832031 C 27.488281 70.964844 27.488281 71.101562 27.488281 71.238281 L 27.488281 74.539062 "/>
<path style=" stroke:none;fill-rule:nonzero;fill:rgb(100%,100%,100%);fill-opacity:1;" d="M 30.207031 69.953125 L 30.695312 69.953125 L 31.390625 68.800781 L 30.660156 68.800781 L 30.207031 69.953125 "/>
<path style=" stroke:none;fill-rule:nonzero;fill:rgb(100%,100%,100%);fill-opacity:1;" d="M 29.945312 72.730469 L 31.941406 72.730469 L 31.941406 72.453125 C 31.941406 72.097656 31.910156 71.792969 31.847656 71.53125 C 31.785156 71.269531 31.699219 71.050781 31.582031 70.886719 C 31.464844 70.71875 31.324219 70.597656 31.164062 70.519531 C 31 70.441406 30.824219 70.402344 30.632812 70.402344 C 30.414062 70.402344 30.214844 70.449219 30.042969 70.550781 C 29.867188 70.65625 29.71875 70.804688 29.601562 70.988281 C 29.484375 71.179688 29.390625 71.402344 29.328125 71.664062 C 29.265625 71.925781 29.234375 72.214844 29.234375 72.523438 C 29.234375 72.820312 29.265625 73.097656 29.328125 73.351562 C 29.390625 73.609375 29.476562 73.824219 29.609375 74.007812 C 29.730469 74.191406 29.890625 74.332031 30.082031 74.433594 C 30.273438 74.546875 30.496094 74.59375 30.746094 74.59375 C 30.96875 74.59375 31.164062 74.570312 31.335938 74.515625 C 31.507812 74.460938 31.644531 74.40625 31.757812 74.347656 L 31.722656 73.65625 C 31.636719 73.726562 31.519531 73.800781 31.382812 73.871094 C 31.238281 73.945312 31.066406 73.980469 30.863281 73.980469 C 30.535156 73.980469 30.304688 73.878906 30.160156 73.664062 C 30.015625 73.457031 29.945312 73.148438 29.945312 72.730469 "/>
<path style=" stroke:none;fill-rule:nonzero;fill:rgb(100%,100%,100%);fill-opacity:1;" d="M 32.628906 74.539062 L 33.339844 74.539062 L 33.339844 71.09375 L 33.972656 71.09375 L 33.972656 70.457031 L 33.339844 70.457031 L 33.339844 69.675781 C 33.339844 69.492188 33.375 69.355469 33.4375 69.261719 C 33.496094 69.164062 33.601562 69.117188 33.746094 69.117188 C 33.789062 69.117188 33.84375 69.128906 33.90625 69.144531 C 33.964844 69.15625 34.027344 69.175781 34.074219 69.199219 L 34.074219 68.558594 C 34 68.539062 33.910156 68.511719 33.808594 68.496094 C 33.707031 68.480469 33.625 68.472656 33.5625 68.472656 C 33.394531 68.472656 33.246094 68.503906 33.128906 68.558594 C 33.011719 68.617188 32.917969 68.699219 32.84375 68.800781 C 32.765625 68.902344 32.714844 69.015625 32.679688 69.152344 C 32.644531 69.285156 32.628906 69.4375 32.628906 69.589844 L 32.628906 70.457031 L 32.058594 70.457031 L 32.058594 71.09375 L 32.628906 71.09375 L 32.628906 74.539062 "/>
<path style=" stroke:none;fill-rule:nonzero;fill:rgb(100%,100%,100%);fill-opacity:1;" d="M 34.558594 74.539062 L 35.296875 74.539062 L 35.296875 73.574219 L 34.558594 73.574219 L 34.558594 74.539062 "/>
<path style=" stroke:none;fill-rule:nonzero;fill:rgb(100%,100%,100%);fill-opacity:1;" d="M 44.703125 74.425781 C 44.792969 74.46875 44.914062 74.507812 45.054688 74.546875 C 45.199219 74.585938 45.355469 74.601562 45.539062 74.601562 C 45.871094 74.601562 46.15625 74.53125 46.386719 74.378906 C 46.609375 74.226562 46.800781 74.023438 46.945312 73.753906 C 47.089844 73.480469 47.191406 73.15625 47.253906 72.773438 C 47.316406 72.398438 47.347656 71.976562 47.347656 71.515625 C 47.347656 71.132812 47.324219 70.78125 47.273438 70.464844 C 47.226562 70.144531 47.144531 69.867188 47.027344 69.636719 C 46.910156 69.40625 46.761719 69.230469 46.578125 69.101562 C 46.386719 68.976562 46.15625 68.910156 45.871094 68.910156 C 45.453125 68.910156 45.117188 69.070312 44.863281 69.390625 C 44.609375 69.707031 44.488281 70.160156 44.488281 70.742188 C 44.488281 71.003906 44.523438 71.242188 44.585938 71.460938 C 44.644531 71.671875 44.726562 71.863281 44.84375 72.015625 C 44.953125 72.167969 45.082031 72.289062 45.238281 72.371094 C 45.390625 72.460938 45.558594 72.511719 45.742188 72.511719 C 45.96875 72.511719 46.160156 72.453125 46.3125 72.335938 C 46.457031 72.222656 46.570312 72.070312 46.652344 71.890625 L 46.667969 71.898438 C 46.660156 72.144531 46.640625 72.390625 46.597656 72.628906 C 46.554688 72.875 46.488281 73.09375 46.398438 73.28125 C 46.304688 73.472656 46.179688 73.621094 46.035156 73.742188 C 45.894531 73.863281 45.710938 73.925781 45.496094 73.925781 C 45.339844 73.925781 45.199219 73.902344 45.070312 73.847656 C 44.9375 73.800781 44.832031 73.742188 44.742188 73.6875 L 44.703125 74.425781 "/>
<path style=" stroke:none;fill-rule:nonzero;fill:rgb(100%,100%,100%);fill-opacity:1;" d="M 47.921875 74.539062 L 48.660156 74.539062 L 48.660156 73.574219 L 47.921875 73.574219 L 47.921875 74.539062 "/>
<path style=" stroke:none;fill-rule:nonzero;fill:rgb(100%,100%,100%);fill-opacity:1;" d="M 49.988281 74.539062 L 50.714844 74.539062 L 50.714844 68.984375 L 50.078125 68.984375 L 49.011719 70.113281 L 49.367188 70.710938 L 49.988281 69.96875 L 49.988281 74.539062 "/>
<path style=" stroke:none;fill-rule:nonzero;fill:rgb(100%,100%,100%);fill-opacity:1;" d="M 51.3125 74.378906 C 51.441406 74.433594 51.589844 74.492188 51.769531 74.53125 C 51.9375 74.578125 52.128906 74.601562 52.328125 74.601562 C 52.832031 74.601562 53.222656 74.425781 53.492188 74.085938 C 53.769531 73.734375 53.90625 73.265625 53.90625 72.667969 C 53.90625 72.398438 53.867188 72.152344 53.800781 71.945312 C 53.726562 71.726562 53.632812 71.554688 53.515625 71.410156 C 53.402344 71.269531 53.257812 71.164062 53.097656 71.09375 C 52.933594 71.019531 52.765625 70.980469 52.585938 70.980469 C 52.476562 70.980469 52.375 70.988281 52.285156 71.003906 C 52.191406 71.011719 52.109375 71.039062 52.046875 71.058594 L 52.046875 69.660156 L 53.679688 69.660156 L 53.679688 68.984375 L 51.378906 68.984375 L 51.378906 71.816406 C 51.496094 71.777344 51.617188 71.738281 51.738281 71.699219 C 51.863281 71.65625 52.007812 71.644531 52.164062 71.644531 C 52.488281 71.644531 52.738281 71.746094 52.910156 71.945312 C 53.074219 72.144531 53.152344 72.414062 53.152344 72.742188 C 53.152344 73.082031 53.074219 73.359375 52.902344 73.574219 C 52.730469 73.800781 52.496094 73.910156 52.207031 73.910156 C 52.035156 73.910156 51.878906 73.878906 51.734375 73.824219 C 51.589844 73.765625 51.460938 73.703125 51.351562 73.632812 L 51.3125 74.378906 "/>
<path style=" stroke:none;fill-rule:nonzero;fill:rgb(100%,100%,100%);fill-opacity:1;" d="M 57.234375 74.539062 L 57.945312 74.539062 L 57.945312 72.117188 C 57.945312 71.800781 57.996094 71.546875 58.113281 71.363281 C 58.222656 71.179688 58.386719 71.09375 58.609375 71.09375 C 58.796875 71.09375 58.925781 71.164062 59.015625 71.308594 C 59.097656 71.453125 59.140625 71.683594 59.140625 72 L 59.140625 74.539062 L 59.847656 74.539062 L 59.847656 71.808594 C 59.847656 71.378906 59.765625 71.039062 59.601562 70.78125 C 59.4375 70.53125 59.179688 70.402344 58.824219 70.402344 C 58.59375 70.402344 58.40625 70.464844 58.277344 70.585938 C 58.140625 70.710938 58.03125 70.847656 57.957031 70.996094 L 57.945312 70.996094 L 57.945312 68.570312 L 57.234375 68.570312 L 57.234375 74.539062 "/>
<path style=" stroke:none;fill-rule:nonzero;fill:rgb(100%,100%,100%);fill-opacity:1;" d="M 9.644531 83.324219 L 9.605469 82.621094 C 9.53125 82.675781 9.429688 82.726562 9.3125 82.765625 C 9.195312 82.804688 9.074219 82.828125 8.957031 82.828125 C 8.652344 82.828125 8.421875 82.703125 8.257812 82.449219 C 8.085938 82.195312 8.007812 81.851562 8.007812 81.417969 C 8.007812 80.917969 8.085938 80.554688 8.25 80.316406 C 8.414062 80.078125 8.644531 79.957031 8.945312 79.957031 C 9.074219 79.957031 9.1875 79.972656 9.292969 80.011719 C 9.394531 80.050781 9.480469 80.09375 9.570312 80.148438 L 9.605469 79.457031 C 9.515625 79.414062 9.414062 79.378906 9.285156 79.34375 C 9.15625 79.3125 9.023438 79.296875 8.898438 79.296875 C 8.632812 79.296875 8.394531 79.34375 8.1875 79.449219 C 7.988281 79.550781 7.816406 79.703125 7.679688 79.886719 C 7.542969 80.078125 7.441406 80.296875 7.375 80.558594 C 7.304688 80.824219 7.269531 81.101562 7.269531 81.414062 C 7.269531 81.699219 7.304688 81.96875 7.367188 82.222656 C 7.425781 82.476562 7.53125 82.703125 7.660156 82.886719 C 7.789062 83.070312 7.953125 83.21875 8.15625 83.324219 C 8.351562 83.4375 8.59375 83.492188 8.863281 83.492188 C 9.011719 83.492188 9.15625 83.472656 9.296875 83.445312 C 9.441406 83.402344 9.558594 83.363281 9.644531 83.324219 "/>
<path style=" stroke:none;fill-rule:nonzero;fill:rgb(100%,100%,100%);fill-opacity:1;" d="M 11.984375 83.4375 L 12.625 83.4375 C 12.617188 83.363281 12.605469 83.261719 12.597656 83.140625 C 12.589844 83.019531 12.582031 82.894531 12.582031 82.757812 L 12.582031 80.808594 C 12.582031 80.539062 12.5625 80.316406 12.515625 80.140625 C 12.46875 79.964844 12.390625 79.820312 12.304688 79.703125 C 12.226562 79.597656 12.105469 79.503906 11.945312 79.414062 C 11.78125 79.335938 11.570312 79.296875 11.304688 79.296875 C 11.078125 79.296875 10.882812 79.328125 10.714844 79.390625 C 10.542969 79.457031 10.386719 79.527344 10.257812 79.613281 L 10.308594 80.320312 C 10.398438 80.21875 10.53125 80.121094 10.699219 80.035156 C 10.863281 79.957031 11.039062 79.914062 11.234375 79.914062 C 11.488281 79.914062 11.664062 79.996094 11.773438 80.15625 C 11.828125 80.234375 11.867188 80.320312 11.886719 80.417969 C 11.910156 80.519531 11.914062 80.632812 11.914062 80.761719 L 11.914062 80.929688 L 11.664062 80.929688 C 11.097656 80.929688 10.664062 81.039062 10.375 81.253906 C 10.082031 81.476562 9.929688 81.828125 9.929688 82.304688 C 9.929688 82.496094 9.957031 82.664062 10.011719 82.8125 C 10.066406 82.964844 10.140625 83.085938 10.238281 83.191406 C 10.324219 83.292969 10.433594 83.363281 10.558594 83.410156 C 10.679688 83.46875 10.808594 83.492188 10.949219 83.492188 C 11.210938 83.492188 11.414062 83.425781 11.570312 83.300781 C 11.71875 83.179688 11.84375 83.039062 11.929688 82.878906 L 11.945312 82.878906 C 11.945312 82.902344 11.945312 82.941406 11.953125 82.996094 C 11.953125 83.054688 11.953125 83.109375 11.957031 83.164062 C 11.964844 83.21875 11.964844 83.277344 11.972656 83.324219 C 11.980469 83.378906 11.980469 83.410156 11.984375 83.4375 "/>
<path style=" stroke:none;fill-rule:nonzero;fill:rgb(100%,100%,100%);fill-opacity:1;" d="M 14.984375 83.371094 L 14.984375 82.75 C 14.933594 82.773438 14.886719 82.796875 14.832031 82.8125 C 14.777344 82.839844 14.714844 82.847656 14.644531 82.847656 C 14.511719 82.847656 14.421875 82.796875 14.363281 82.710938 C 14.300781 82.621094 14.273438 82.46875 14.273438 82.25 L 14.273438 79.988281 L 14.984375 79.988281 L 14.984375 79.351562 L 14.273438 79.351562 L 14.273438 78.269531 L 13.566406 78.515625 L 13.566406 79.351562 L 13.011719 79.351562 L 13.011719 79.988281 L 13.566406 79.988281 L 13.566406 82.414062 C 13.566406 82.804688 13.640625 83.085938 13.796875 83.246094 C 13.953125 83.410156 14.171875 83.492188 14.457031 83.492188 C 14.558594 83.492188 14.664062 83.480469 14.75 83.460938 C 14.839844 83.425781 14.917969 83.402344 14.984375 83.371094 "/>
<path style=" stroke:none;fill-rule:nonzero;fill:rgb(100%,100%,100%);fill-opacity:1;" d="M 15.507812 83.4375 L 16.214844 83.4375 L 16.214844 81.015625 C 16.214844 80.699219 16.269531 80.441406 16.386719 80.257812 C 16.496094 80.078125 16.660156 79.988281 16.882812 79.988281 C 17.066406 79.988281 17.195312 80.058594 17.285156 80.203125 C 17.367188 80.347656 17.40625 80.578125 17.40625 80.898438 L 17.40625 83.4375 L 18.113281 83.4375 L 18.113281 80.707031 C 18.113281 80.273438 18.03125 79.933594 17.867188 79.679688 C 17.703125 79.425781 17.449219 79.296875 17.09375 79.296875 C 16.863281 79.296875 16.679688 79.359375 16.550781 79.480469 C 16.414062 79.605469 16.304688 79.742188 16.230469 79.894531 L 16.214844 79.894531 L 16.214844 77.464844 L 15.507812 77.464844 L 15.507812 83.4375 "/>
<path style=" stroke:none;fill-rule:nonzero;fill:rgb(100%,100%,100%);fill-opacity:1;" d="M 18.546875 83.4375 L 19.285156 83.4375 L 19.285156 82.46875 L 18.546875 82.46875 L 18.546875 83.4375 "/>
<path style=" stroke:none;fill-rule:nonzero;fill:rgb(100%,100%,100%);fill-opacity:1;" d="M 22.796875 83.4375 L 23.503906 83.4375 L 23.503906 81.238281 C 23.503906 81.03125 23.527344 80.855469 23.566406 80.707031 C 23.605469 80.554688 23.660156 80.433594 23.730469 80.339844 C 23.796875 80.25 23.878906 80.179688 23.964844 80.132812 C 24.054688 80.09375 24.144531 80.066406 24.246094 80.066406 C 24.285156 80.066406 24.328125 80.066406 24.363281 80.078125 C 24.394531 80.085938 24.4375 80.09375 24.46875 80.097656 L 24.46875 79.304688 C 24.457031 79.304688 24.441406 79.304688 24.4375 79.296875 C 24.429688 79.296875 24.414062 79.296875 24.402344 79.296875 C 24.273438 79.296875 24.15625 79.3125 24.054688 79.351562 C 23.953125 79.390625 23.875 79.449219 23.796875 79.519531 C 23.722656 79.589844 23.652344 79.667969 23.601562 79.757812 C 23.546875 79.84375 23.496094 79.941406 23.464844 80.042969 L 23.449219 80.042969 C 23.449219 80.011719 23.449219 79.964844 23.449219 79.902344 C 23.445312 79.839844 23.445312 79.765625 23.4375 79.695312 C 23.429688 79.621094 23.429688 79.558594 23.429688 79.496094 C 23.421875 79.429688 23.421875 79.382812 23.421875 79.351562 L 22.769531 79.351562 C 22.777344 79.46875 22.785156 79.597656 22.792969 79.726562 C 22.796875 79.859375 22.796875 79.996094 22.796875 80.132812 L 22.796875 83.4375 "/>
<path style=" stroke:none;fill-rule:nonzero;fill:rgb(100%,100%,100%);fill-opacity:1;" d="M 24.957031 82.996094 C 25.089844 83.164062 25.242188 83.292969 25.429688 83.371094 C 25.605469 83.453125 25.792969 83.492188 25.996094 83.492188 C 26.203125 83.492188 26.394531 83.453125 26.578125 83.371094 C 26.753906 83.292969 26.910156 83.164062 27.039062 82.996094 C 27.167969 82.828125 27.277344 82.613281 27.351562 82.351562 C 27.425781 82.089844 27.46875 81.761719 27.46875 81.390625 C 27.46875 81.023438 27.425781 80.707031 27.351562 80.441406 C 27.277344 80.179688 27.167969 79.957031 27.039062 79.789062 C 26.910156 79.621094 26.753906 79.496094 26.578125 79.414062 C 26.394531 79.335938 26.203125 79.296875 25.996094 79.296875 C 25.792969 79.296875 25.605469 79.335938 25.429688 79.414062 C 25.242188 79.496094 25.089844 79.621094 24.957031 79.789062 C 24.828125 79.957031 24.71875 80.179688 24.644531 80.441406 C 24.570312 80.707031 24.527344 81.023438 24.527344 81.390625 C 24.527344 81.761719 24.570312 82.089844 24.644531 82.351562 C 24.71875 82.613281 24.828125 82.828125 24.957031 82.996094 "/>
<path style=" stroke:none;fill-rule:nonzero;fill:rgb(100%,100%,100%);fill-opacity:1;" d="M 27.960938 83.4375 L 28.667969 83.4375 L 28.667969 80.9375 C 28.667969 80.632812 28.722656 80.402344 28.824219 80.234375 C 28.925781 80.066406 29.082031 79.988281 29.277344 79.988281 C 29.605469 79.988281 29.769531 80.242188 29.769531 80.746094 L 29.769531 83.4375 L 30.476562 83.4375 L 30.476562 80.9375 C 30.476562 80.632812 30.53125 80.402344 30.632812 80.234375 C 30.734375 80.066406 30.890625 79.988281 31.089844 79.988281 C 31.414062 79.988281 31.578125 80.242188 31.578125 80.746094 L 31.578125 83.4375 L 32.285156 83.4375 L 32.285156 80.761719 C 32.285156 80.285156 32.203125 79.914062 32.039062 79.667969 C 31.871094 79.425781 31.621094 79.296875 31.28125 79.296875 C 31.054688 79.296875 30.871094 79.359375 30.726562 79.488281 C 30.585938 79.621094 30.476562 79.773438 30.386719 79.941406 C 30.355469 79.859375 30.316406 79.78125 30.265625 79.703125 C 30.21875 79.632812 30.15625 79.558594 30.089844 79.496094 C 30.023438 79.441406 29.9375 79.390625 29.851562 79.351562 C 29.761719 79.3125 29.65625 79.296875 29.539062 79.296875 C 29.320312 79.296875 29.144531 79.359375 29 79.488281 C 28.859375 79.621094 28.742188 79.78125 28.667969 79.980469 L 28.652344 79.980469 C 28.652344 79.957031 28.652344 79.90625 28.652344 79.84375 C 28.644531 79.789062 28.644531 79.726562 28.644531 79.660156 C 28.640625 79.597656 28.640625 79.535156 28.640625 79.480469 C 28.632812 79.425781 28.632812 79.378906 28.632812 79.351562 L 27.933594 79.351562 C 27.941406 79.460938 27.945312 79.582031 27.953125 79.710938 C 27.960938 79.839844 27.960938 79.972656 27.960938 80.121094 L 27.960938 83.4375 "/>
<path style=" stroke:none;fill-rule:nonzero;fill:rgb(100%,100%,100%);fill-opacity:1;" d="M 32.964844 83.4375 L 33.695312 83.4375 L 33.695312 82.46875 L 32.964844 82.46875 L 32.964844 83.4375 "/>
<path style=" stroke:none;fill-rule:nonzero;fill:rgb(100%,100%,100%);fill-opacity:1;" d="M 43.414062 83.324219 C 43.511719 83.363281 43.628906 83.402344 43.769531 83.445312 C 43.910156 83.480469 44.070312 83.5 44.253906 83.5 C 44.585938 83.5 44.863281 83.425781 45.097656 83.277344 C 45.320312 83.125 45.511719 82.917969 45.652344 82.648438 C 45.796875 82.375 45.898438 82.050781 45.960938 81.667969 C 46.023438 81.292969 46.054688 80.871094 46.054688 80.410156 C 46.054688 80.03125 46.027344 79.679688 45.976562 79.359375 C 45.933594 79.039062 45.851562 78.761719 45.734375 78.53125 C 45.617188 78.300781 45.46875 78.128906 45.285156 77.996094 C 45.097656 77.871094 44.863281 77.804688 44.585938 77.804688 C 44.164062 77.804688 43.832031 77.964844 43.582031 78.285156 C 43.328125 78.601562 43.203125 79.054688 43.203125 79.640625 C 43.203125 79.902344 43.238281 80.140625 43.300781 80.355469 C 43.363281 80.570312 43.445312 80.761719 43.558594 80.910156 C 43.667969 81.0625 43.796875 81.183594 43.953125 81.269531 C 44.101562 81.355469 44.273438 81.40625 44.457031 81.40625 C 44.679688 81.40625 44.871094 81.347656 45.023438 81.230469 C 45.164062 81.117188 45.28125 80.96875 45.359375 80.785156 L 45.375 80.792969 C 45.367188 81.039062 45.347656 81.285156 45.304688 81.523438 C 45.265625 81.769531 45.199219 81.988281 45.109375 82.175781 C 45.015625 82.367188 44.894531 82.519531 44.75 82.640625 C 44.605469 82.757812 44.421875 82.820312 44.210938 82.820312 C 44.054688 82.820312 43.910156 82.796875 43.785156 82.742188 C 43.65625 82.695312 43.542969 82.640625 43.457031 82.585938 L 43.414062 83.324219 "/>
<path style=" stroke:none;fill-rule:nonzero;fill:rgb(100%,100%,100%);fill-opacity:1;" d="M 46.625 83.4375 L 47.359375 83.4375 L 47.359375 82.46875 L 46.625 82.46875 L 46.625 83.4375 "/>
<path style=" stroke:none;fill-rule:nonzero;fill:rgb(100%,100%,100%);fill-opacity:1;" d="M 47.839844 83.277344 C 47.980469 83.332031 48.144531 83.390625 48.332031 83.425781 C 48.515625 83.472656 48.707031 83.5 48.90625 83.5 C 49.148438 83.5 49.363281 83.460938 49.5625 83.390625 C 49.757812 83.308594 49.921875 83.199219 50.0625 83.058594 C 50.207031 82.917969 50.316406 82.742188 50.390625 82.542969 C 50.464844 82.34375 50.507812 82.121094 50.507812 81.867188 C 50.507812 81.660156 50.480469 81.476562 50.429688 81.316406 C 50.375 81.15625 50.308594 81.03125 50.21875 80.917969 C 50.132812 80.808594 50.03125 80.71875 49.914062 80.65625 C 49.796875 80.59375 49.675781 80.546875 49.546875 80.519531 L 49.546875 80.507812 C 49.652344 80.480469 49.75 80.441406 49.859375 80.386719 C 49.964844 80.332031 50.0625 80.25 50.152344 80.148438 C 50.238281 80.042969 50.308594 79.914062 50.363281 79.757812 C 50.417969 79.605469 50.445312 79.425781 50.445312 79.199219 C 50.445312 78.976562 50.410156 78.769531 50.34375 78.59375 C 50.269531 78.421875 50.171875 78.277344 50.050781 78.15625 C 49.925781 78.039062 49.785156 77.949219 49.613281 77.894531 C 49.445312 77.839844 49.269531 77.804688 49.070312 77.804688 C 48.839844 77.804688 48.636719 77.832031 48.457031 77.871094 C 48.277344 77.917969 48.117188 77.976562 47.980469 78.039062 L 48.03125 78.792969 C 48.171875 78.707031 48.332031 78.636719 48.484375 78.582031 C 48.644531 78.523438 48.792969 78.5 48.921875 78.5 C 49.148438 78.5 49.335938 78.574219 49.492188 78.714844 C 49.652344 78.855469 49.722656 79.066406 49.722656 79.328125 C 49.722656 79.496094 49.699219 79.632812 49.644531 79.742188 C 49.585938 79.859375 49.515625 79.949219 49.417969 80.03125 C 49.316406 80.097656 49.203125 80.15625 49.066406 80.1875 C 48.929688 80.226562 48.777344 80.242188 48.621094 80.242188 L 48.425781 80.242188 L 48.425781 80.910156 C 48.464844 80.910156 48.523438 80.910156 48.589844 80.902344 C 48.652344 80.902344 48.730469 80.902344 48.828125 80.902344 C 49.109375 80.902344 49.335938 80.984375 49.5 81.136719 C 49.664062 81.285156 49.742188 81.507812 49.742188 81.789062 C 49.742188 81.960938 49.71875 82.113281 49.671875 82.242188 C 49.621094 82.367188 49.554688 82.46875 49.472656 82.550781 C 49.382812 82.640625 49.289062 82.703125 49.179688 82.742188 C 49.066406 82.78125 48.949219 82.804688 48.820312 82.804688 C 48.636719 82.804688 48.464844 82.773438 48.308594 82.710938 C 48.152344 82.65625 48.011719 82.585938 47.890625 82.511719 L 47.839844 83.277344 "/>
<path style=" stroke:none;fill-rule:nonzero;fill:rgb(100%,100%,100%);fill-opacity:1;" d="M 51.324219 82.6875 C 51.441406 82.941406 51.589844 83.140625 51.773438 83.28125 C 51.957031 83.425781 52.171875 83.5 52.4375 83.5 C 52.703125 83.5 52.925781 83.425781 53.109375 83.277344 C 53.292969 83.132812 53.445312 82.933594 53.558594 82.675781 C 53.675781 82.421875 53.757812 82.121094 53.804688 81.777344 C 53.851562 81.4375 53.878906 81.0625 53.878906 80.65625 C 53.878906 80.25 53.851562 79.878906 53.804688 79.527344 C 53.757812 79.183594 53.675781 78.882812 53.558594 78.628906 C 53.445312 78.375 53.292969 78.175781 53.109375 78.023438 C 52.925781 77.878906 52.703125 77.804688 52.4375 77.804688 C 52.171875 77.804688 51.949219 77.878906 51.765625 78.023438 C 51.582031 78.175781 51.441406 78.375 51.324219 78.628906 C 51.207031 78.882812 51.125 79.183594 51.078125 79.527344 C 51.03125 79.878906 51.003906 80.25 51.003906 80.65625 C 51.003906 81.0625 51.03125 81.4375 51.078125 81.777344 C 51.125 82.128906 51.207031 82.433594 51.324219 82.6875 "/>
<path style=" stroke:none;fill-rule:nonzero;fill:rgb(100%,100%,100%);fill-opacity:1;" d="M 57.246094 83.4375 L 57.957031 83.4375 L 57.957031 81.015625 C 57.957031 80.699219 58.007812 80.441406 58.125 80.257812 C 58.234375 80.078125 58.398438 79.988281 58.621094 79.988281 C 58.804688 79.988281 58.933594 80.058594 59.023438 80.203125 C 59.105469 80.347656 59.144531 80.578125 59.144531 80.898438 L 59.144531 83.4375 L 59.851562 83.4375 L 59.851562 80.707031 C 59.851562 80.273438 59.769531 79.933594 59.609375 79.679688 C 59.445312 79.425781 59.1875 79.296875 58.832031 79.296875 C 58.601562 79.296875 58.417969 79.359375 58.289062 79.480469 C 58.152344 79.605469 58.042969 79.742188 57.96875 79.894531 L 57.957031 79.894531 L 57.957031 77.464844 L 57.246094 77.464844 L 57.246094 83.4375 "/>
<path style=" stroke:none;fill-rule:nonzero;fill:rgb(100%,100%,100%);fill-opacity:1;" d="M 9.625 92.21875 L 9.585938 91.519531 C 9.511719 91.574219 9.410156 91.625 9.292969 91.664062 C 9.179688 91.703125 9.058594 91.726562 8.945312 91.726562 C 8.640625 91.726562 8.410156 91.601562 8.25 91.347656 C 8.082031 91.09375 8 90.75 8 90.320312 C 8 89.816406 8.082031 89.453125 8.242188 89.210938 C 8.40625 88.976562 8.636719 88.855469 8.933594 88.855469 C 9.058594 88.855469 9.175781 88.867188 9.273438 88.910156 C 9.375 88.949219 9.464844 88.988281 9.550781 89.046875 L 9.585938 88.351562 C 9.496094 88.3125 9.394531 88.273438 9.269531 88.242188 C 9.136719 88.210938 9.011719 88.195312 8.882812 88.195312 C 8.621094 88.195312 8.386719 88.242188 8.179688 88.34375 C 7.980469 88.449219 7.8125 88.597656 7.675781 88.785156 C 7.542969 88.976562 7.441406 89.199219 7.371094 89.460938 C 7.304688 89.71875 7.269531 90 7.269531 90.3125 C 7.269531 90.597656 7.304688 90.867188 7.367188 91.121094 C 7.425781 91.375 7.527344 91.601562 7.65625 91.785156 C 7.785156 91.96875 7.945312 92.117188 8.148438 92.21875 C 8.34375 92.332031 8.578125 92.390625 8.847656 92.390625 C 8.996094 92.390625 9.136719 92.371094 9.28125 92.34375 C 9.425781 92.300781 9.539062 92.261719 9.625 92.21875 "/>
<path style=" stroke:none;fill-rule:nonzero;fill:rgb(100%,100%,100%);fill-opacity:1;" d="M 11.945312 92.332031 L 12.578125 92.332031 C 12.574219 92.261719 12.558594 92.15625 12.554688 92.039062 C 12.546875 91.917969 12.539062 91.792969 12.539062 91.65625 L 12.539062 89.707031 C 12.539062 89.4375 12.519531 89.210938 12.46875 89.039062 C 12.425781 88.863281 12.347656 88.71875 12.261719 88.597656 C 12.1875 88.496094 12.066406 88.402344 11.90625 88.3125 C 11.742188 88.234375 11.53125 88.195312 11.269531 88.195312 C 11.046875 88.195312 10.851562 88.226562 10.683594 88.289062 C 10.515625 88.351562 10.359375 88.425781 10.230469 88.511719 L 10.285156 89.21875 C 10.375 89.117188 10.503906 89.019531 10.671875 88.933594 C 10.832031 88.855469 11.007812 88.816406 11.203125 88.816406 C 11.453125 88.816406 11.628906 88.894531 11.738281 89.054688 C 11.789062 89.132812 11.832031 89.21875 11.851562 89.316406 C 11.871094 89.417969 11.878906 89.53125 11.878906 89.65625 L 11.878906 89.828125 L 11.628906 89.828125 C 11.070312 89.828125 10.636719 89.9375 10.347656 90.152344 C 10.054688 90.375 9.90625 90.726562 9.90625 91.203125 C 9.90625 91.394531 9.933594 91.5625 9.992188 91.710938 C 10.042969 91.863281 10.117188 91.984375 10.210938 92.085938 C 10.300781 92.191406 10.410156 92.261719 10.53125 92.308594 C 10.652344 92.363281 10.78125 92.390625 10.921875 92.390625 C 11.175781 92.390625 11.378906 92.324219 11.53125 92.199219 C 11.679688 92.078125 11.800781 91.9375 11.890625 91.773438 L 11.90625 91.773438 C 11.90625 91.800781 11.90625 91.839844 11.910156 91.894531 C 11.910156 91.949219 11.910156 92.007812 11.917969 92.0625 C 11.925781 92.117188 11.925781 92.171875 11.929688 92.21875 C 11.9375 92.277344 11.9375 92.308594 11.945312 92.332031 "/>
<path style=" stroke:none;fill-rule:nonzero;fill:rgb(100%,100%,100%);fill-opacity:1;" d="M 14.917969 92.269531 L 14.917969 91.648438 C 14.867188 91.671875 14.824219 91.699219 14.769531 91.710938 C 14.714844 91.738281 14.65625 91.746094 14.578125 91.746094 C 14.453125 91.746094 14.363281 91.699219 14.304688 91.609375 C 14.242188 91.519531 14.21875 91.367188 14.21875 91.148438 L 14.21875 88.886719 L 14.917969 88.886719 L 14.917969 88.25 L 14.21875 88.25 L 14.21875 87.164062 L 13.515625 87.414062 L 13.515625 88.25 L 12.960938 88.25 L 12.960938 88.886719 L 13.515625 88.886719 L 13.515625 91.3125 C 13.515625 91.703125 13.589844 91.984375 13.742188 92.144531 C 13.898438 92.308594 14.117188 92.390625 14.398438 92.390625 C 14.5 92.390625 14.597656 92.378906 14.6875 92.355469 C 14.777344 92.324219 14.855469 92.300781 14.917969 92.269531 "/>
<path style=" stroke:none;fill-rule:nonzero;fill:rgb(100%,100%,100%);fill-opacity:1;" d="M 15.441406 92.332031 L 16.140625 92.332031 L 16.140625 89.914062 C 16.140625 89.59375 16.195312 89.339844 16.308594 89.15625 C 16.417969 88.976562 16.582031 88.886719 16.800781 88.886719 C 16.984375 88.886719 17.113281 88.957031 17.199219 89.101562 C 17.28125 89.246094 17.320312 89.476562 17.320312 89.792969 L 17.320312 92.332031 L 18.023438 92.332031 L 18.023438 89.601562 C 18.023438 89.171875 17.941406 88.832031 17.78125 88.578125 C 17.617188 88.324219 17.363281 88.195312 17.011719 88.195312 C 16.78125 88.195312 16.601562 88.257812 16.472656 88.378906 C 16.339844 88.503906 16.230469 88.640625 16.15625 88.789062 L 16.140625 88.789062 L 16.140625 86.363281 L 15.441406 86.363281 L 15.441406 92.332031 "/>
<path style=" stroke:none;fill-rule:nonzero;fill:rgb(100%,100%,100%);fill-opacity:1;" d="M 18.457031 92.332031 L 19.183594 92.332031 L 19.183594 91.367188 L 18.457031 91.367188 L 18.457031 92.332031 "/>
<path style=" stroke:none;fill-rule:nonzero;fill:rgb(100%,100%,100%);fill-opacity:1;" d="M 24.890625 92.21875 L 24.847656 91.519531 C 24.773438 91.574219 24.671875 91.625 24.558594 91.664062 C 24.441406 91.703125 24.320312 91.726562 24.207031 91.726562 C 23.902344 91.726562 23.675781 91.601562 23.511719 91.347656 C 23.34375 91.09375 23.265625 90.75 23.265625 90.320312 C 23.265625 89.816406 23.34375 89.453125 23.503906 89.210938 C 23.667969 88.976562 23.894531 88.855469 24.195312 88.855469 C 24.320312 88.855469 24.4375 88.867188 24.539062 88.910156 C 24.640625 88.949219 24.726562 88.988281 24.8125 89.046875 L 24.847656 88.351562 C 24.761719 88.3125 24.660156 88.273438 24.53125 88.242188 C 24.402344 88.210938 24.273438 88.195312 24.144531 88.195312 C 23.882812 88.195312 23.648438 88.242188 23.445312 88.34375 C 23.242188 88.449219 23.074219 88.597656 22.9375 88.785156 C 22.804688 88.976562 22.703125 89.199219 22.636719 89.460938 C 22.566406 89.71875 22.535156 90 22.535156 90.3125 C 22.535156 90.597656 22.566406 90.867188 22.628906 91.121094 C 22.6875 91.375 22.792969 91.601562 22.917969 91.785156 C 23.046875 91.96875 23.207031 92.117188 23.410156 92.21875 C 23.605469 92.332031 23.84375 92.390625 24.113281 92.390625 C 24.261719 92.390625 24.402344 92.371094 24.542969 92.34375 C 24.6875 92.300781 24.800781 92.261719 24.890625 92.21875 "/>
<path style=" stroke:none;fill-rule:nonzero;fill:rgb(100%,100%,100%);fill-opacity:1;" d="M 25.335938 92.332031 L 26.039062 92.332031 L 26.039062 89.914062 C 26.039062 89.59375 26.09375 89.339844 26.207031 89.15625 C 26.316406 88.976562 26.480469 88.886719 26.699219 88.886719 C 26.882812 88.886719 27.011719 88.957031 27.097656 89.101562 C 27.179688 89.246094 27.21875 89.476562 27.21875 89.792969 L 27.21875 92.332031 L 27.921875 92.332031 L 27.921875 89.601562 C 27.921875 89.171875 27.839844 88.832031 27.679688 88.578125 C 27.515625 88.324219 27.261719 88.195312 26.910156 88.195312 C 26.679688 88.195312 26.5 88.257812 26.371094 88.378906 C 26.234375 88.503906 26.125 88.640625 26.054688 88.789062 L 26.039062 88.789062 L 26.039062 86.363281 L 25.335938 86.363281 L 25.335938 92.332031 "/>
<path style=" stroke:none;fill-rule:nonzero;fill:rgb(100%,100%,100%);fill-opacity:1;" d="M 28.621094 92.332031 L 29.320312 92.332031 L 29.320312 90.136719 C 29.320312 89.929688 29.34375 89.753906 29.382812 89.601562 C 29.421875 89.453125 29.476562 89.332031 29.546875 89.238281 C 29.609375 89.148438 29.691406 89.078125 29.78125 89.03125 C 29.867188 88.988281 29.957031 88.964844 30.058594 88.964844 C 30.097656 88.964844 30.136719 88.964844 30.171875 88.976562 C 30.207031 88.980469 30.246094 88.988281 30.28125 88.996094 L 30.28125 88.203125 C 30.265625 88.203125 30.253906 88.203125 30.246094 88.195312 C 30.238281 88.195312 30.226562 88.195312 30.214844 88.195312 C 30.085938 88.195312 29.96875 88.210938 29.867188 88.25 C 29.769531 88.289062 29.6875 88.34375 29.609375 88.414062 C 29.539062 88.488281 29.46875 88.566406 29.417969 88.65625 C 29.363281 88.742188 29.316406 88.839844 29.28125 88.941406 L 29.269531 88.941406 C 29.269531 88.910156 29.269531 88.863281 29.269531 88.796875 C 29.261719 88.734375 29.261719 88.664062 29.257812 88.59375 C 29.25 88.519531 29.25 88.457031 29.25 88.394531 C 29.242188 88.332031 29.242188 88.28125 29.242188 88.25 L 28.59375 88.25 C 28.601562 88.367188 28.609375 88.496094 28.613281 88.625 C 28.621094 88.757812 28.621094 88.894531 28.621094 89.03125 L 28.621094 92.332031 "/>
<path style=" stroke:none;fill-rule:nonzero;fill:rgb(100%,100%,100%);fill-opacity:1;" d="M 30.617188 92.332031 L 31.316406 92.332031 L 31.316406 88.25 L 30.617188 88.25 L 30.617188 92.332031 "/>
<path style=" stroke:none;fill-rule:nonzero;fill:rgb(100%,100%,100%);fill-opacity:1;" d="M 30.597656 87.429688 L 31.335938 87.429688 L 31.335938 86.546875 L 30.597656 86.546875 L 30.597656 87.429688 "/>
<path style=" stroke:none;fill-rule:nonzero;fill:rgb(100%,100%,100%);fill-opacity:1;" d="M 31.917969 92.171875 C 32.027344 92.230469 32.164062 92.285156 32.332031 92.324219 C 32.492188 92.363281 32.675781 92.390625 32.871094 92.390625 C 33.261719 92.390625 33.558594 92.277344 33.765625 92.046875 C 33.96875 91.816406 34.070312 91.519531 34.070312 91.15625 C 34.070312 90.90625 34.007812 90.707031 33.894531 90.558594 C 33.773438 90.40625 33.609375 90.257812 33.402344 90.117188 L 33.101562 89.917969 C 32.945312 89.816406 32.828125 89.730469 32.742188 89.644531 C 32.65625 89.5625 32.613281 89.453125 32.613281 89.316406 C 32.613281 89.171875 32.65625 89.054688 32.742188 88.964844 C 32.828125 88.878906 32.957031 88.839844 33.132812 88.839844 C 33.277344 88.839844 33.410156 88.855469 33.523438 88.886719 C 33.636719 88.925781 33.742188 88.964844 33.839844 89.011719 L 33.871094 88.34375 C 33.800781 88.3125 33.699219 88.28125 33.5625 88.242188 C 33.425781 88.210938 33.261719 88.195312 33.078125 88.195312 C 32.90625 88.195312 32.75 88.226562 32.605469 88.289062 C 32.464844 88.351562 32.34375 88.441406 32.246094 88.542969 C 32.144531 88.65625 32.058594 88.785156 32.007812 88.917969 C 31.957031 89.058594 31.925781 89.210938 31.925781 89.363281 C 31.925781 89.507812 31.949219 89.636719 31.980469 89.746094 C 32.015625 89.855469 32.058594 89.953125 32.121094 90.042969 C 32.183594 90.128906 32.25 90.199219 32.339844 90.261719 C 32.425781 90.335938 32.519531 90.398438 32.628906 90.460938 L 32.992188 90.675781 C 33.148438 90.765625 33.253906 90.859375 33.316406 90.957031 C 33.371094 91.050781 33.398438 91.15625 33.398438 91.257812 C 33.398438 91.417969 33.34375 91.539062 33.234375 91.617188 C 33.128906 91.703125 32.976562 91.746094 32.796875 91.746094 C 32.628906 91.746094 32.464844 91.710938 32.324219 91.640625 C 32.183594 91.574219 32.058594 91.511719 31.960938 91.457031 L 31.917969 92.171875 "/>
<path style=" stroke:none;fill-rule:nonzero;fill:rgb(100%,100%,100%);fill-opacity:1;" d="M 36.457031 92.269531 L 36.457031 91.648438 C 36.410156 91.671875 36.363281 91.699219 36.308594 91.710938 C 36.257812 91.738281 36.195312 91.746094 36.121094 91.746094 C 35.992188 91.746094 35.90625 91.699219 35.84375 91.609375 C 35.785156 91.519531 35.757812 91.367188 35.757812 91.148438 L 35.757812 88.886719 L 36.457031 88.886719 L 36.457031 88.25 L 35.757812 88.25 L 35.757812 87.164062 L 35.054688 87.414062 L 35.054688 88.25 L 34.503906 88.25 L 34.503906 88.886719 L 35.054688 88.886719 L 35.054688 91.3125 C 35.054688 91.703125 35.128906 91.984375 35.285156 92.144531 C 35.441406 92.308594 35.65625 92.390625 35.941406 92.390625 C 36.039062 92.390625 36.140625 92.378906 36.226562 92.355469 C 36.316406 92.324219 36.398438 92.300781 36.457031 92.269531 "/>
<path style=" stroke:none;fill-rule:nonzero;fill:rgb(100%,100%,100%);fill-opacity:1;" d="M 37.003906 92.332031 L 37.730469 92.332031 L 37.730469 91.367188 L 37.003906 91.367188 L 37.003906 92.332031 "/>
<path style=" stroke:none;fill-rule:nonzero;fill:rgb(100%,100%,100%);fill-opacity:1;" d="M 43.550781 92.21875 C 43.648438 92.261719 43.761719 92.300781 43.90625 92.34375 C 44.046875 92.378906 44.199219 92.398438 44.382812 92.398438 C 44.714844 92.398438 44.988281 92.324219 45.21875 92.171875 C 45.441406 92.019531 45.632812 91.816406 45.773438 91.546875 C 45.914062 91.273438 46.015625 90.949219 46.074219 90.566406 C 46.136719 90.191406 46.167969 89.769531 46.167969 89.308594 C 46.167969 88.925781 46.144531 88.578125 46.09375 88.257812 C 46.046875 87.941406 45.964844 87.660156 45.851562 87.429688 C 45.738281 87.199219 45.589844 87.023438 45.40625 86.898438 C 45.21875 86.769531 44.988281 86.707031 44.714844 86.707031 C 44.292969 86.707031 43.964844 86.863281 43.714844 87.183594 C 43.464844 87.5 43.34375 87.957031 43.34375 88.535156 C 43.34375 88.796875 43.378906 89.039062 43.4375 89.253906 C 43.5 89.46875 43.582031 89.65625 43.695312 89.808594 C 43.800781 89.960938 43.929688 90.082031 44.085938 90.167969 C 44.234375 90.257812 44.402344 90.304688 44.585938 90.304688 C 44.804688 90.304688 44.996094 90.25 45.144531 90.128906 C 45.285156 90.015625 45.402344 89.863281 45.480469 89.683594 L 45.496094 89.691406 C 45.488281 89.9375 45.46875 90.183594 45.425781 90.421875 C 45.386719 90.667969 45.320312 90.886719 45.230469 91.074219 C 45.136719 91.265625 45.015625 91.417969 44.875 91.539062 C 44.734375 91.65625 44.550781 91.71875 44.34375 91.71875 C 44.1875 91.71875 44.046875 91.699219 43.917969 91.640625 C 43.789062 91.59375 43.679688 91.539062 43.59375 91.480469 L 43.550781 92.21875 "/>
<path style=" stroke:none;fill-rule:nonzero;fill:rgb(100%,100%,100%);fill-opacity:1;" d="M 46.738281 92.332031 L 47.464844 92.332031 L 47.464844 91.367188 L 46.738281 91.367188 L 46.738281 92.332031 "/>
<path style=" stroke:none;fill-rule:nonzero;fill:rgb(100%,100%,100%);fill-opacity:1;" d="M 47.941406 92.171875 C 48.082031 92.230469 48.242188 92.285156 48.425781 92.324219 C 48.605469 92.371094 48.796875 92.398438 49 92.398438 C 49.234375 92.398438 49.453125 92.355469 49.648438 92.285156 C 49.84375 92.207031 50.003906 92.09375 50.148438 91.957031 C 50.289062 91.816406 50.398438 91.640625 50.46875 91.441406 C 50.542969 91.242188 50.585938 91.019531 50.585938 90.765625 C 50.585938 90.558594 50.558594 90.375 50.511719 90.214844 C 50.457031 90.054688 50.390625 89.929688 50.300781 89.816406 C 50.210938 89.707031 50.109375 89.617188 49.996094 89.554688 C 49.882812 89.492188 49.761719 89.445312 49.632812 89.417969 L 49.632812 89.402344 C 49.734375 89.382812 49.835938 89.339844 49.941406 89.285156 C 50.042969 89.230469 50.148438 89.148438 50.230469 89.046875 C 50.320312 88.941406 50.390625 88.816406 50.441406 88.65625 C 50.496094 88.503906 50.523438 88.324219 50.523438 88.097656 C 50.523438 87.878906 50.488281 87.667969 50.421875 87.492188 C 50.347656 87.320312 50.253906 87.175781 50.132812 87.054688 C 50.011719 86.9375 49.871094 86.847656 49.703125 86.792969 C 49.53125 86.738281 49.355469 86.707031 49.160156 86.707031 C 48.933594 86.707031 48.730469 86.730469 48.554688 86.769531 C 48.371094 86.820312 48.21875 86.875 48.082031 86.9375 L 48.128906 87.691406 C 48.273438 87.605469 48.425781 87.535156 48.582031 87.476562 C 48.734375 87.421875 48.886719 87.398438 49.011719 87.398438 C 49.234375 87.398438 49.421875 87.46875 49.582031 87.613281 C 49.734375 87.757812 49.808594 87.960938 49.808594 88.226562 C 49.808594 88.394531 49.78125 88.53125 49.726562 88.640625 C 49.671875 88.757812 49.597656 88.847656 49.503906 88.925781 C 49.402344 88.996094 49.289062 89.054688 49.15625 89.085938 C 49.019531 89.125 48.871094 89.140625 48.714844 89.140625 L 48.523438 89.140625 L 48.523438 89.808594 C 48.5625 89.808594 48.613281 89.808594 48.683594 89.800781 C 48.742188 89.800781 48.824219 89.800781 48.917969 89.800781 C 49.203125 89.800781 49.421875 89.882812 49.585938 90.03125 C 49.75 90.183594 49.828125 90.40625 49.828125 90.6875 C 49.828125 90.859375 49.800781 91.011719 49.753906 91.140625 C 49.707031 91.265625 49.640625 91.367188 49.558594 91.449219 C 49.472656 91.539062 49.375 91.601562 49.269531 91.640625 C 49.15625 91.679688 49.039062 91.703125 48.910156 91.703125 C 48.730469 91.703125 48.5625 91.671875 48.40625 91.609375 C 48.253906 91.550781 48.109375 91.480469 47.988281 91.410156 L 47.941406 92.171875 "/>
<path style=" stroke:none;fill-rule:nonzero;fill:rgb(100%,100%,100%);fill-opacity:1;" d="M 51.394531 91.585938 C 51.507812 91.839844 51.65625 92.039062 51.839844 92.179688 C 52.023438 92.324219 52.234375 92.398438 52.5 92.398438 C 52.761719 92.398438 52.984375 92.324219 53.167969 92.171875 C 53.347656 92.03125 53.496094 91.832031 53.613281 91.574219 C 53.726562 91.320312 53.808594 91.019531 53.855469 90.675781 C 53.902344 90.335938 53.929688 89.960938 53.929688 89.554688 C 53.929688 89.148438 53.902344 88.777344 53.855469 88.425781 C 53.808594 88.082031 53.726562 87.78125 53.613281 87.527344 C 53.496094 87.273438 53.347656 87.074219 53.167969 86.921875 C 52.984375 86.777344 52.761719 86.707031 52.5 86.707031 C 52.234375 86.707031 52.015625 86.777344 51.832031 86.921875 C 51.648438 87.074219 51.507812 87.273438 51.394531 87.527344 C 51.277344 87.78125 51.199219 88.082031 51.148438 88.425781 C 51.105469 88.777344 51.078125 89.148438 51.078125 89.554688 C 51.078125 89.960938 51.105469 90.335938 51.148438 90.675781 C 51.199219 91.027344 51.277344 91.332031 51.394531 91.585938 "/>
<path style=" stroke:none;fill-rule:nonzero;fill:rgb(100%,100%,100%);fill-opacity:1;" d="M 57.269531 92.332031 L 57.972656 92.332031 L 57.972656 89.914062 C 57.972656 89.59375 58.023438 89.339844 58.140625 89.15625 C 58.25 88.976562 58.410156 88.886719 58.632812 88.886719 C 58.816406 88.886719 58.941406 88.957031 59.03125 89.101562 C 59.109375 89.246094 59.152344 89.476562 59.152344 89.792969 L 59.152344 92.332031 L 59.851562 92.332031 L 59.851562 89.601562 C 59.851562 89.171875 59.773438 88.832031 59.609375 88.578125 C 59.449219 88.324219 59.191406 88.195312 58.839844 88.195312 C 58.609375 88.195312 58.429688 88.257812 58.300781 88.378906 C 58.167969 88.503906 58.058594 88.640625 57.984375 88.789062 L 57.972656 88.789062 L 57.972656 86.363281 L 57.269531 86.363281 L 57.269531 92.332031 "/>
<path style=" stroke:none;fill-rule:nonzero;fill:rgb(10.112%,40.585327%,73.280334%);fill-opacity:1;" d="M 7.980469 72.167969 C 7.988281 71.792969 8.050781 71.5 8.167969 71.292969 C 8.28125 71.09375 8.445312 70.988281 8.648438 70.988281 C 9.074219 70.988281 9.285156 71.378906 9.285156 72.167969 L 7.980469 72.167969 "/>
<path style=" stroke:none;fill-rule:nonzero;fill:rgb(10.112%,40.585327%,73.280334%);fill-opacity:1;" d="M 15.238281 72.542969 L 15.238281 72.90625 C 15.238281 73.230469 15.175781 73.496094 15.054688 73.695312 C 14.925781 73.902344 14.738281 74.007812 14.484375 74.007812 C 14.300781 74.007812 14.167969 73.945312 14.070312 73.824219 C 13.972656 73.703125 13.925781 73.539062 13.925781 73.339844 C 13.925781 73.066406 14.015625 72.867188 14.199219 72.730469 C 14.386719 72.597656 14.648438 72.535156 14.996094 72.535156 C 15.039062 72.535156 15.082031 72.535156 15.128906 72.535156 C 15.175781 72.535156 15.21875 72.535156 15.238281 72.542969 "/>
<path style=" stroke:none;fill-rule:nonzero;fill:rgb(10.112%,40.585327%,73.280334%);fill-opacity:1;" d="M 20.578125 73.574219 C 20.464844 73.347656 20.402344 72.976562 20.402344 72.476562 C 20.402344 72.007812 20.457031 71.65625 20.566406 71.410156 C 20.671875 71.171875 20.847656 71.050781 21.09375 71.046875 C 21.324219 71.046875 21.503906 71.164062 21.632812 71.402344 C 21.753906 71.644531 21.816406 72 21.816406 72.46875 C 21.816406 72.964844 21.753906 73.328125 21.636719 73.570312 C 21.523438 73.816406 21.332031 73.933594 21.066406 73.933594 C 20.859375 73.933594 20.695312 73.816406 20.578125 73.574219 "/>
<path style=" stroke:none;fill-rule:nonzero;fill:rgb(10.112%,40.585327%,73.280334%);fill-opacity:1;" d="M 29.945312 72.167969 C 29.949219 71.792969 30.011719 71.5 30.128906 71.292969 C 30.242188 71.09375 30.40625 70.988281 30.613281 70.988281 C 31.035156 70.988281 31.246094 71.378906 31.246094 72.167969 L 29.945312 72.167969 "/>
<path style=" stroke:none;fill-rule:nonzero;fill:rgb(10.112%,40.585327%,73.280334%);fill-opacity:1;" d="M 45.589844 71.738281 C 45.496094 71.683594 45.429688 71.59375 45.375 71.492188 C 45.320312 71.386719 45.28125 71.269531 45.253906 71.132812 C 45.226562 70.996094 45.214844 70.859375 45.214844 70.710938 C 45.214844 70.550781 45.226562 70.402344 45.253906 70.265625 C 45.28125 70.132812 45.320312 70.003906 45.382812 69.898438 C 45.4375 69.796875 45.503906 69.714844 45.59375 69.660156 C 45.675781 69.605469 45.78125 69.570312 45.894531 69.570312 C 46.011719 69.570312 46.113281 69.605469 46.199219 69.660156 C 46.289062 69.714844 46.359375 69.796875 46.410156 69.898438 C 46.46875 70.003906 46.507812 70.132812 46.535156 70.265625 C 46.5625 70.402344 46.578125 70.550781 46.578125 70.710938 C 46.578125 70.859375 46.5625 71.003906 46.535156 71.140625 C 46.507812 71.273438 46.46875 71.394531 46.410156 71.5 C 46.351562 71.601562 46.28125 71.691406 46.195312 71.746094 C 46.105469 71.800781 46.011719 71.835938 45.894531 71.835938 C 45.78125 71.835938 45.675781 71.800781 45.589844 71.738281 "/>
<path style=" stroke:none;fill-rule:nonzero;fill:rgb(10.112%,40.585327%,73.280334%);fill-opacity:1;" d="M 11.914062 81.4375 L 11.914062 81.804688 C 11.914062 82.128906 11.855469 82.394531 11.730469 82.59375 C 11.601562 82.796875 11.417969 82.902344 11.167969 82.902344 C 10.984375 82.902344 10.851562 82.839844 10.753906 82.71875 C 10.65625 82.597656 10.609375 82.433594 10.609375 82.234375 C 10.609375 81.960938 10.699219 81.761719 10.882812 81.628906 C 11.066406 81.492188 11.332031 81.429688 11.679688 81.429688 C 11.71875 81.429688 11.761719 81.429688 11.808594 81.429688 C 11.855469 81.429688 11.894531 81.429688 11.914062 81.4375 "/>
<path style=" stroke:none;fill-rule:nonzero;fill:rgb(10.112%,40.585327%,73.280334%);fill-opacity:1;" d="M 25.429688 82.449219 C 25.363281 82.3125 25.324219 82.160156 25.304688 81.976562 C 25.277344 81.796875 25.265625 81.605469 25.265625 81.390625 C 25.265625 81.171875 25.277344 80.984375 25.304688 80.800781 C 25.324219 80.617188 25.363281 80.464844 25.429688 80.332031 C 25.488281 80.203125 25.566406 80.097656 25.65625 80.03125 C 25.746094 79.957031 25.863281 79.914062 25.996094 79.914062 C 26.132812 79.914062 26.25 79.957031 26.34375 80.03125 C 26.433594 80.097656 26.507812 80.203125 26.570312 80.332031 C 26.628906 80.464844 26.671875 80.617188 26.699219 80.800781 C 26.71875 80.984375 26.734375 81.171875 26.734375 81.390625 C 26.734375 81.605469 26.71875 81.796875 26.699219 81.976562 C 26.671875 82.160156 26.628906 82.3125 26.570312 82.449219 C 26.507812 82.585938 26.433594 82.6875 26.34375 82.757812 C 26.25 82.828125 26.132812 82.867188 25.996094 82.867188 C 25.863281 82.867188 25.746094 82.828125 25.65625 82.757812 C 25.566406 82.6875 25.488281 82.585938 25.429688 82.449219 "/>
<path style=" stroke:none;fill-rule:nonzero;fill:rgb(10.112%,40.585327%,73.280334%);fill-opacity:1;" d="M 44.300781 80.632812 C 44.210938 80.578125 44.144531 80.488281 44.089844 80.386719 C 44.035156 80.285156 43.992188 80.164062 43.96875 80.03125 C 43.941406 79.894531 43.925781 79.757812 43.925781 79.605469 C 43.925781 79.449219 43.941406 79.296875 43.96875 79.160156 C 43.992188 79.027344 44.035156 78.898438 44.097656 78.792969 C 44.152344 78.691406 44.21875 78.609375 44.308594 78.554688 C 44.390625 78.5 44.488281 78.46875 44.605469 78.46875 C 44.722656 78.46875 44.824219 78.5 44.914062 78.554688 C 45 78.609375 45.070312 78.691406 45.121094 78.792969 C 45.175781 78.898438 45.21875 79.027344 45.246094 79.160156 C 45.273438 79.296875 45.285156 79.449219 45.285156 79.605469 C 45.285156 79.757812 45.273438 79.902344 45.246094 80.035156 C 45.21875 80.167969 45.175781 80.289062 45.121094 80.394531 C 45.0625 80.496094 44.992188 80.585938 44.90625 80.640625 C 44.816406 80.699219 44.722656 80.730469 44.605469 80.730469 C 44.488281 80.730469 44.390625 80.699219 44.300781 80.632812 "/>
<path style=" stroke:none;fill-rule:nonzero;fill:rgb(10.112%,40.585327%,73.280334%);fill-opacity:1;" d="M 51.882812 82.265625 C 51.777344 81.890625 51.722656 81.347656 51.722656 80.65625 C 51.722656 79.964844 51.777344 79.425781 51.882812 79.039062 C 51.980469 78.65625 52.171875 78.46875 52.4375 78.46875 C 52.710938 78.46875 52.902344 78.65625 53.003906 79.035156 C 53.105469 79.414062 53.15625 79.957031 53.15625 80.65625 C 53.15625 81.347656 53.105469 81.890625 53.003906 82.265625 C 52.894531 82.648438 52.703125 82.839844 52.4375 82.839844 C 52.171875 82.839844 51.980469 82.648438 51.882812 82.265625 "/>
<path style=" stroke:none;fill-rule:nonzero;fill:rgb(10.112%,40.585327%,73.280334%);fill-opacity:1;" d="M 11.878906 90.335938 L 11.878906 90.699219 C 11.878906 91.027344 11.816406 91.292969 11.695312 91.488281 C 11.570312 91.699219 11.386719 91.800781 11.136719 91.800781 C 10.953125 91.800781 10.820312 91.738281 10.722656 91.617188 C 10.632812 91.5 10.582031 91.332031 10.582031 91.132812 C 10.582031 90.859375 10.671875 90.660156 10.851562 90.523438 C 11.035156 90.390625 11.296875 90.328125 11.640625 90.328125 C 11.679688 90.328125 11.722656 90.328125 11.769531 90.328125 C 11.816406 90.328125 11.859375 90.328125 11.878906 90.335938 "/>
<path style=" stroke:none;fill-rule:nonzero;fill:rgb(10.112%,40.585327%,73.280334%);fill-opacity:1;" d="M 44.429688 89.53125 C 44.34375 89.476562 44.277344 89.390625 44.21875 89.285156 C 44.167969 89.179688 44.128906 89.058594 44.097656 88.925781 C 44.070312 88.789062 44.058594 88.65625 44.058594 88.503906 C 44.058594 88.34375 44.070312 88.195312 44.097656 88.058594 C 44.128906 87.925781 44.167969 87.796875 44.226562 87.691406 C 44.28125 87.589844 44.347656 87.507812 44.4375 87.453125 C 44.519531 87.398438 44.617188 87.363281 44.734375 87.363281 C 44.847656 87.363281 44.949219 87.398438 45.035156 87.453125 C 45.125 87.507812 45.191406 87.589844 45.246094 87.691406 C 45.300781 87.796875 45.339844 87.925781 45.367188 88.058594 C 45.394531 88.195312 45.40625 88.34375 45.40625 88.503906 C 45.40625 88.65625 45.394531 88.796875 45.367188 88.933594 C 45.339844 89.070312 45.300781 89.191406 45.246094 89.292969 C 45.183594 89.398438 45.117188 89.484375 45.027344 89.539062 C 44.945312 89.59375 44.847656 89.628906 44.734375 89.628906 C 44.617188 89.628906 44.519531 89.59375 44.429688 89.53125 "/>
<path style=" stroke:none;fill-rule:nonzero;fill:rgb(10.112%,40.585327%,73.280334%);fill-opacity:1;" d="M 51.945312 91.164062 C 51.84375 90.789062 51.792969 90.25 51.792969 89.554688 C 51.792969 88.863281 51.84375 88.324219 51.945312 87.941406 C 52.046875 87.554688 52.234375 87.363281 52.5 87.363281 C 52.769531 87.363281 52.960938 87.554688 53.058594 87.929688 C 53.160156 88.3125 53.214844 88.855469 53.214844 89.554688 C 53.214844 90.25 53.160156 90.789062 53.058594 91.164062 C 52.953125 91.546875 52.761719 91.738281 52.5 91.738281 C 52.234375 91.738281 52.046875 91.546875 51.945312 91.164062 "/>
</g>
</svg>
