<?xml version="1.0" encoding="UTF-8"?>
<svg xmlns="http://www.w3.org/2000/svg" xmlns:xlink="http://www.w3.org/1999/xlink" width="164pt" height="79pt" viewBox="0 0 164 79" version="1.1">
<g id="surface1">
<path style=" stroke:none;fill-rule:nonzero;fill:rgb(0%,49.674988%,27.331543%);fill-opacity:1;" d="M 5.242188 4.480469 L 159.730469 4.480469 L 159.730469 73.929688 L 5.242188 73.929688 L 5.242188 4.480469 M 9.492188 10.152344 L 9.492188 47.707031 L 27.636719 47.707031 L 27.636719 10.152344 L 9.492188 10.152344 M 155.480469 10.152344 L 137.339844 10.152344 L 137.339844 47.707031 L 155.480469 47.707031 L 155.480469 10.152344 M 61.082031 14.109375 C 61.089844 8.632812 52.859375 8.632812 52.863281 14.109375 C 52.859375 19.589844 61.085938 19.59375 61.082031 14.113281 L 61.082031 14.109375 M 77.667969 41.324219 C 78.785156 40.128906 78.785156 38.269531 77.667969 37.070312 L 69.09375 37.070312 L 69.09375 29.84375 L 63.667969 21.125 L 68.003906 21.125 L 71.28125 26.390625 C 72.625 26.675781 73.957031 25.847656 74.289062 24.519531 L 69.535156 16.875 L 61.179688 16.875 C 59.917969 18.792969 57.515625 19.613281 55.34375 18.871094 L 55.34375 25.308594 L 48.46875 25.308594 L 48.46875 29.277344 L 58.746094 29.277344 L 58.746094 26.632812 L 61.210938 30.59375 L 56.976562 33.953125 L 56.976562 46.992188 C 57.960938 47.945312 59.527344 47.945312 60.519531 46.992188 L 60.554688 36.253906 L 65.121094 32.558594 L 65.121094 41.324219 L 77.667969 41.324219 M 46.628906 29.136719 L 46.628906 25.449219 L 37.273438 25.449219 L 41.46875 22.046875 L 35.953125 22.046875 L 29.476562 27.292969 L 35.953125 32.535156 L 41.46875 32.535156 L 37.273438 29.136719 L 46.628906 29.136719 M 112.109375 14.109375 C 112.113281 8.632812 103.882812 8.632812 103.886719 14.109375 C 103.882812 19.589844 112.113281 19.59375 112.109375 14.113281 L 112.109375 14.109375 M 116.503906 29.277344 L 116.503906 25.308594 L 109.628906 25.308594 L 109.628906 18.871094 C 107.460938 19.617188 105.050781 18.792969 103.792969 16.875 L 95.4375 16.875 L 90.683594 24.519531 C 91.015625 25.851562 92.34375 26.675781 93.6875 26.390625 L 96.964844 21.125 L 101.304688 21.125 L 95.882812 29.84375 L 95.882812 37.070312 L 87.304688 37.070312 C 86.191406 38.269531 86.191406 40.128906 87.304688 41.324219 L 99.847656 41.324219 L 99.847656 32.558594 L 104.457031 36.210938 L 104.457031 46.992188 C 105.445312 47.945312 107.007812 47.949219 107.996094 46.992188 L 107.996094 33.953125 L 103.761719 30.59375 L 106.226562 26.632812 L 106.226562 29.277344 L 116.503906 29.277344 M 127.699219 25.449219 L 118.34375 25.449219 L 118.34375 29.136719 L 127.699219 29.136719 L 123.5 32.535156 L 129.019531 32.535156 L 135.496094 27.292969 L 129.019531 22.046875 L 123.5 22.046875 L 127.699219 25.449219 M 112.867188 67.550781 L 115.023438 67.550781 L 115.023438 53.378906 L 113.132812 53.378906 L 109.96875 56.261719 L 111.023438 57.785156 L 112.867188 55.898438 L 112.867188 67.550781 M 119.496094 64.566406 C 119.804688 65.542969 120.371094 66.027344 121.164062 66.027344 C 121.957031 66.027344 122.523438 65.542969 122.847656 64.566406 C 123.152344 63.613281 123.316406 62.234375 123.316406 60.46875 C 123.316406 58.679688 123.152344 57.296875 122.847656 56.324219 C 122.542969 55.367188 121.972656 54.882812 121.164062 54.882812 C 120.371094 54.882812 119.804688 55.367188 119.496094 56.34375 C 119.195312 57.320312 119.027344 58.699219 119.027344 60.46875 C 119.027344 62.234375 119.195312 63.613281 119.496094 64.566406 M 117.835938 65.644531 C 118.175781 66.292969 118.625 66.800781 119.171875 67.164062 C 119.722656 67.53125 120.371094 67.714844 121.164062 67.714844 C 121.957031 67.714844 122.625 67.53125 123.171875 67.148438 C 123.71875 66.78125 124.164062 66.273438 124.511719 65.625 C 124.855469 64.972656 125.101562 64.203125 125.242188 63.328125 C 125.386719 62.457031 125.464844 61.503906 125.464844 60.46875 C 125.464844 59.429688 125.386719 58.476562 125.242188 57.582031 C 125.101562 56.710938 124.855469 55.9375 124.511719 55.289062 C 124.164062 54.640625 123.71875 54.132812 123.171875 53.746094 C 122.625 53.378906 121.957031 53.199219 121.164062 53.199219 C 120.371094 53.199219 119.703125 53.378906 119.152344 53.746094 C 118.605469 54.132812 118.175781 54.640625 117.835938 55.289062 C 117.488281 55.9375 117.242188 56.710938 117.105469 57.582031 C 116.960938 58.476562 116.878906 59.429688 116.878906 60.46875 C 116.878906 61.503906 116.960938 62.457031 117.105469 63.328125 C 117.242188 64.222656 117.488281 64.996094 117.835938 65.644531 M 129.714844 64.566406 C 130.019531 65.542969 130.589844 66.027344 131.382812 66.027344 C 132.171875 66.027344 132.742188 65.542969 133.066406 64.566406 C 133.367188 63.613281 133.53125 62.234375 133.53125 60.46875 C 133.53125 58.679688 133.367188 57.296875 133.066406 56.324219 C 132.761719 55.367188 132.191406 54.882812 131.382812 54.882812 C 130.589844 54.882812 130.019531 55.367188 129.714844 56.34375 C 129.410156 57.320312 129.246094 58.699219 129.246094 60.46875 C 129.246094 62.234375 129.410156 63.613281 129.714844 64.566406 M 128.050781 65.644531 C 128.394531 66.292969 128.84375 66.800781 129.390625 67.164062 C 129.9375 67.53125 130.589844 67.714844 131.382812 67.714844 C 132.171875 67.714844 132.84375 67.53125 133.390625 67.148438 C 133.9375 66.78125 134.382812 66.273438 134.730469 65.625 C 135.074219 64.972656 135.320312 64.203125 135.460938 63.328125 C 135.605469 62.457031 135.683594 61.503906 135.683594 60.46875 C 135.683594 59.429688 135.605469 58.476562 135.460938 57.582031 C 135.320312 56.710938 135.074219 55.9375 134.730469 55.289062 C 134.382812 54.640625 133.9375 54.132812 133.390625 53.746094 C 132.84375 53.378906 132.171875 53.199219 131.382812 53.199219 C 130.589844 53.199219 129.917969 53.378906 129.367188 53.746094 C 128.820312 54.132812 128.394531 54.640625 128.050781 55.289062 C 127.703125 55.9375 127.460938 56.710938 127.320312 57.582031 C 127.175781 58.476562 127.097656 59.429688 127.097656 60.46875 C 127.097656 61.503906 127.175781 62.457031 127.320312 63.328125 C 127.460938 64.222656 127.703125 64.996094 128.050781 65.644531 M 142.5 67.550781 L 144.613281 67.550781 L 144.613281 61.175781 C 144.613281 60.40625 144.777344 59.820312 145.078125 59.390625 C 145.386719 58.964844 145.855469 58.761719 146.4375 58.761719 C 147.414062 58.761719 147.902344 59.410156 147.902344 60.691406 L 147.902344 67.550781 L 150.015625 67.550781 L 150.015625 61.175781 C 150.015625 60.40625 150.175781 59.820312 150.480469 59.390625 C 150.785156 58.964844 151.253906 58.761719 151.84375 58.761719 C 152.816406 58.761719 153.304688 59.410156 153.304688 60.691406 L 153.304688 67.550781 L 155.414062 67.550781 L 155.414062 60.730469 C 155.414062 59.511719 155.175781 58.578125 154.683594 57.949219 C 154.175781 57.320312 153.429688 56.992188 152.410156 56.992188 C 151.722656 56.992188 151.152344 57.15625 150.722656 57.480469 C 150.277344 57.828125 149.914062 58.214844 149.648438 58.636719 C 149.546875 58.4375 149.425781 58.234375 149.285156 58.03125 C 149.140625 57.84375 148.976562 57.664062 148.796875 57.5 C 148.613281 57.359375 148.390625 57.238281 148.125 57.136719 C 147.859375 57.035156 147.558594 56.992188 147.214844 56.992188 C 146.5625 56.992188 146.03125 57.113281 145.628906 57.382812 C 145.199219 57.644531 144.855469 58.03125 144.59375 58.535156 L 144.570312 58.535156 C 144.570312 58.476562 144.570312 58.375 144.570312 58.234375 C 144.554688 58.113281 144.554688 57.96875 144.554688 57.828125 C 144.53125 57.683594 144.53125 57.5625 144.53125 57.421875 C 144.511719 57.296875 144.511719 57.199219 144.511719 57.136719 L 142.421875 57.136719 C 142.441406 57.421875 142.460938 57.726562 142.480469 58.050781 C 142.5 58.375 142.5 58.71875 142.5 59.105469 L 142.5 67.550781 M 9.492188 67.550781 L 17.226562 67.550781 L 17.226562 65.746094 L 11.910156 65.746094 L 12.433594 65.179688 C 13.066406 64.488281 13.671875 63.773438 14.242188 63.042969 C 14.792969 62.335938 15.28125 61.605469 15.703125 60.890625 C 16.132812 60.183594 16.457031 59.492188 16.703125 58.800781 C 16.945312 58.128906 17.066406 57.480469 17.066406 56.875 C 17.066406 56.367188 16.984375 55.898438 16.84375 55.453125 C 16.679688 55.007812 16.4375 54.621094 16.132812 54.273438 C 15.808594 53.949219 15.402344 53.683594 14.933594 53.480469 C 14.449219 53.296875 13.878906 53.199219 13.226562 53.199219 C 12.558594 53.199219 11.925781 53.277344 11.378906 53.421875 C 10.8125 53.585938 10.28125 53.785156 9.816406 54.03125 L 10.039062 56.097656 C 10.363281 55.835938 10.773438 55.574219 11.238281 55.351562 C 11.703125 55.128906 12.234375 55.007812 12.824219 55.007812 C 13.449219 55.007812 13.957031 55.207031 14.304688 55.636719 C 14.648438 56.058594 14.832031 56.589844 14.832031 57.257812 C 14.832031 57.726562 14.730469 58.234375 14.527344 58.78125 C 14.304688 59.328125 14.019531 59.917969 13.632812 60.507812 C 13.25 61.113281 12.800781 61.742188 12.292969 62.414062 C 11.765625 63.085938 11.195312 63.773438 10.566406 64.488281 L 9.492188 65.726562 L 9.492188 67.550781 M 21.476562 64.566406 C 21.78125 65.542969 22.347656 66.027344 23.140625 66.027344 C 23.933594 66.027344 24.503906 65.542969 24.828125 64.566406 C 25.128906 63.613281 25.292969 62.234375 25.292969 60.46875 C 25.292969 58.679688 25.128906 57.296875 24.828125 56.324219 C 24.519531 55.367188 23.953125 54.882812 23.140625 54.882812 C 22.347656 54.882812 21.78125 55.367188 21.476562 56.34375 C 21.171875 57.320312 21.007812 58.699219 21.007812 60.46875 C 21.007812 62.234375 21.171875 63.613281 21.476562 64.566406 M 19.8125 65.644531 C 20.152344 66.292969 20.605469 66.800781 21.152344 67.164062 C 21.699219 67.53125 22.347656 67.714844 23.140625 67.714844 C 23.933594 67.714844 24.601562 67.53125 25.152344 67.148438 C 25.699219 66.78125 26.144531 66.273438 26.488281 65.625 C 26.835938 64.972656 27.082031 64.203125 27.21875 63.328125 C 27.363281 62.457031 27.445312 61.503906 27.445312 60.46875 C 27.445312 59.429688 27.363281 58.476562 27.21875 57.582031 C 27.082031 56.710938 26.835938 55.9375 26.488281 55.289062 C 26.144531 54.640625 25.699219 54.132812 25.152344 53.746094 C 24.601562 53.378906 23.933594 53.199219 23.140625 53.199219 C 22.347656 53.199219 21.679688 53.378906 21.128906 53.746094 C 20.582031 54.132812 20.152344 54.640625 19.8125 55.289062 C 19.464844 55.9375 19.222656 56.710938 19.082031 57.582031 C 18.9375 58.476562 18.859375 59.429688 18.859375 60.46875 C 18.859375 61.503906 18.9375 62.457031 19.082031 63.328125 C 19.222656 64.222656 19.464844 64.996094 19.8125 65.644531 M 31.691406 64.566406 C 31.996094 65.542969 32.566406 66.027344 33.359375 66.027344 C 34.152344 66.027344 34.71875 65.542969 35.042969 64.566406 C 35.347656 63.613281 35.511719 62.234375 35.511719 60.46875 C 35.511719 58.679688 35.347656 57.296875 35.042969 56.324219 C 34.738281 55.367188 34.167969 54.882812 33.359375 54.882812 C 32.566406 54.882812 31.996094 55.367188 31.691406 56.34375 C 31.390625 57.320312 31.222656 58.699219 31.222656 60.46875 C 31.222656 62.234375 31.390625 63.613281 31.691406 64.566406 M 30.027344 65.644531 C 30.371094 66.292969 30.820312 66.800781 31.367188 67.164062 C 31.914062 67.53125 32.566406 67.714844 33.359375 67.714844 C 34.152344 67.714844 34.820312 67.53125 35.367188 67.148438 C 35.914062 66.78125 36.359375 66.273438 36.707031 65.625 C 37.050781 64.972656 37.296875 64.203125 37.4375 63.328125 C 37.582031 62.457031 37.660156 61.503906 37.660156 60.46875 C 37.660156 59.429688 37.582031 58.476562 37.4375 57.582031 C 37.296875 56.710938 37.050781 55.9375 36.707031 55.289062 C 36.359375 54.640625 35.914062 54.132812 35.367188 53.746094 C 34.820312 53.378906 34.152344 53.199219 33.359375 53.199219 C 32.566406 53.199219 31.898438 53.378906 31.347656 53.746094 C 30.800781 54.132812 30.371094 54.640625 30.027344 55.289062 C 29.683594 55.9375 29.4375 56.710938 29.296875 57.582031 C 29.152344 58.476562 29.074219 59.429688 29.074219 60.46875 C 29.074219 61.503906 29.152344 62.457031 29.296875 63.328125 C 29.4375 64.222656 29.683594 64.996094 30.027344 65.644531 M 44.480469 67.550781 L 46.59375 67.550781 L 46.59375 61.175781 C 46.59375 60.40625 46.753906 59.820312 47.058594 59.390625 C 47.363281 58.964844 47.832031 58.761719 48.417969 58.761719 C 49.394531 58.761719 49.878906 59.410156 49.878906 60.691406 L 49.878906 67.550781 L 51.992188 67.550781 L 51.992188 61.175781 C 51.992188 60.40625 52.15625 59.820312 52.460938 59.390625 C 52.761719 58.964844 53.230469 58.761719 53.820312 58.761719 C 54.792969 58.761719 55.28125 59.410156 55.28125 60.691406 L 55.28125 67.550781 L 57.394531 67.550781 L 57.394531 60.730469 C 57.394531 59.511719 57.152344 58.578125 56.660156 57.949219 C 56.15625 57.320312 55.40625 56.992188 54.390625 56.992188 C 53.699219 56.992188 53.128906 57.15625 52.703125 57.480469 C 52.253906 57.828125 51.890625 58.214844 51.625 58.636719 C 51.523438 58.4375 51.402344 58.234375 51.261719 58.03125 C 51.117188 57.84375 50.957031 57.664062 50.777344 57.5 C 50.59375 57.359375 50.367188 57.238281 50.101562 57.136719 C 49.839844 57.035156 49.535156 56.992188 49.191406 56.992188 C 48.539062 56.992188 48.011719 57.113281 47.609375 57.382812 C 47.179688 57.644531 46.832031 58.03125 46.570312 58.535156 L 46.550781 58.535156 C 46.550781 58.476562 46.550781 58.375 46.550781 58.234375 C 46.53125 58.113281 46.53125 57.96875 46.53125 57.828125 C 46.511719 57.683594 46.511719 57.5625 46.511719 57.421875 C 46.488281 57.296875 46.488281 57.199219 46.488281 57.136719 L 44.398438 57.136719 C 44.417969 57.421875 44.441406 57.726562 44.457031 58.050781 C 44.480469 58.375 44.480469 58.71875 44.480469 59.105469 L 44.480469 67.550781 "/>
<path style=" stroke:none;fill-rule:nonzero;fill:rgb(13.729858%,12.159729%,12.548828%);fill-opacity:1;" d="M 0.988281 78.1875 L 0.988281 0.230469 L 163.980469 0.230469 L 163.980469 78.1875 L 0.988281 78.1875 M 1.132812 0.371094 L 1.132812 78.039062 L 163.839844 78.039062 L 163.839844 0.371094 L 1.132812 0.371094 "/>
</g>
</svg>
