<?xml version="1.0" encoding="UTF-8"?>
<svg xmlns="http://www.w3.org/2000/svg" xmlns:xlink="http://www.w3.org/1999/xlink" width="71pt" height="100pt" viewBox="0 0 71 100" version="1.1">
<g id="surface1">
<path style=" stroke:none;fill-rule:nonzero;fill:rgb(0%,49.674988%,27.331543%);fill-opacity:1;" d="M 33.09375 26.488281 C 32.941406 26.550781 32.792969 26.625 32.636719 26.671875 C 32.039062 26.871094 31.410156 26.972656 30.78125 26.972656 C 30.152344 26.972656 29.527344 26.871094 28.925781 26.671875 C 28.539062 26.546875 28.164062 26.382812 27.8125 26.175781 C 27.363281 25.921875 26.957031 25.609375 26.589844 25.246094 C 26.394531 25.046875 26.128906 24.925781 25.960938 24.703125 L 14.878906 24.621094 L 8.855469 34.359375 C 8.949219 35.972656 10.476562 37.109375 12.046875 36.738281 L 17.089844 28.589844 L 23.128906 28.589844 L 15.519531 40.828125 L 15.519531 49.925781 L 7.21875 49.925781 C 5.988281 50.960938 5.988281 52.855469 7.21875 53.894531 L 19.484375 53.894531 L 19.484375 43.414062 L 26.363281 48.835938 L 26.363281 60.023438 C 27.308594 61.335938 29.207031 61.472656 30.332031 60.316406 L 30.332031 46.910156 L 24.347656 42.195312 L 29.144531 34.484375 L 29.144531 39.992188 L 39.628906 39.992188 L 39.628906 36.023438 L 33.109375 36.023438 L 33.09375 26.488281 M 64.71875 60.796875 L 64.71875 16.292969 L 42.039062 16.292969 L 42.039062 60.796875 L 64.71875 60.796875 M 69.535156 1.976562 L 1.507812 1.976562 L 1.507812 98.355469 L 69.535156 98.355469 L 69.535156 1.976562 M 18.9375 73.128906 L 18.9375 78.65625 L 41.488281 78.65625 L 35.960938 84.039062 L 43.882812 84.039062 L 52.242188 75.894531 L 43.882812 67.742188 L 35.960938 67.742188 L 41.488281 73.128906 L 18.9375 73.128906 M 30.734375 16.375 C 33.335938 16.375 35.445312 18.480469 35.445312 21.082031 C 35.445312 23.683594 33.335938 25.792969 30.734375 25.792969 C 28.132812 25.792969 26.027344 23.683594 26.027344 21.082031 C 26.027344 18.480469 28.132812 16.375 30.734375 16.375 "/>
<path style=" stroke:none;fill-rule:nonzero;fill:rgb(13.729858%,12.159729%,12.548828%);fill-opacity:1;" d="M 0.0859375 99.78125 L 0.0859375 0.566406 L 70.953125 0.566406 L 70.953125 99.78125 L 0.0859375 99.78125 M 0.230469 99.632812 L 70.808594 99.632812 L 70.808594 0.703125 L 0.230469 0.703125 L 0.230469 99.632812 "/>
</g>
</svg>
