<svg width="171" height="58" xmlns="http://www.w3.org/2000/svg">
 <!-- Created with Method Draw - http://github.com/duopixel/Method-Draw/ -->

 <g>
  <title>background</title>
  <rect fill="#fff" id="canvas_background" height="60" width="173" y="-1" x="-1"/>
  <g display="none" overflow="visible" y="0" x="0" height="100%" width="100%" id="canvasGrid">
   <rect fill="url(#gridpattern)" stroke-width="0" y="0" x="0" height="100%" width="100%"/>
  </g>
 </g>
 <g>
  <title>Layer 1</title>
  <metadata id="svg_11">image/svg+xml</metadata>

  <g id="svg_13">
   <path fill="#ffffff" fill-rule="nonzero" id="svg_10" d="m1.26433,56.74737l168.47175,0l0,-55.82719l-168.47175,0l0,55.82719zm0,0"/>
   <path fill="none" stroke="#211e1e" stroke-width="0.2835" stroke-miterlimit="4" id="svg_9" d="m1.26433,56.74737l168.47175,0l0,-55.82719l-168.47175,0l0,55.82719"/>
   <path fill="#3d3a3d" fill-rule="nonzero" id="svg_8" d="m100.18267,44.60232l4.88556,0l0,-14.64791c0,-1.77457 0.37145,-3.12344 1.07822,-4.10818c0.70162,-0.97448 1.78502,-1.44632 3.14183,-1.44632c2.25447,0 3.38429,1.49247 3.38429,4.43642l0,15.76598l4.87524,0l0,-14.64791c0,-1.77457 0.3766,-3.12344 1.07822,-4.10818c0.70679,-0.97448 1.78502,-1.44632 3.14699,-1.44632c2.24931,0 3.37397,1.49247 3.37397,4.43642l0,15.76598l4.88556,0l0,-15.67367c0,-2.7952 -0.56749,-4.94417 -1.68698,-6.3905c-1.17625,-1.44634 -2.90967,-2.19001 -5.25701,-2.19001c-1.55285,0 -2.8168,0.36927 -3.80733,1.11808c-0.98537,0.78983 -1.73342,1.67712 -2.34218,2.65673c-0.23215,-0.46159 -0.52106,-0.93345 -0.84608,-1.40017c-0.33017,-0.42056 -0.75321,-0.84112 -1.21751,-1.21553c-0.46947,-0.32311 -1.03696,-0.6052 -1.64571,-0.836c-0.60876,-0.23593 -1.36197,-0.32311 -2.15646,-0.32311c-1.50642,0 -2.71878,0.36927 -3.7093,1.11808c-0.98536,0.78983 -1.785,1.72328 -2.29575,2.89266l-0.09802,0c0,-0.14361 0,-0.42057 0,-0.79497c-0.04644,-0.32824 -0.04644,-0.69752 -0.04644,-1.07193c-0.04644,-0.37441 -0.04644,-0.7488 -0.04644,-1.07193c-0.04644,-0.32824 -0.04644,-0.61032 -0.04644,-0.7488l-4.83397,0c0.04644,0.65137 0.09286,1.35401 0.13929,2.09769c0.04644,0.7488 0.04644,1.54377 0.04644,2.42592l0,19.40745"/>
  </g>
  <text xml:space="preserve" text-anchor="start" font-family="sans-serif" font-size="35" font-weight='bold' id="svg_14" y="44.62836" x="32" stroke-width="0" stroke="#000" fill="#000000">param(text1)</text>
 </g>
</svg>