<svg width="171" height="58.00000000000001" xmlns="http://www.w3.org/2000/svg">
 <!-- Created with Method Draw - http://github.com/duopixel/Method-Draw/ -->

 <g>
  <title>background</title>
  <rect fill="#fff" id="canvas_background" height="60" width="173" y="-1" x="-1"/>
  <g display="none" overflow="visible" y="0" x="0" height="100%" width="100%" id="canvasGrid">
   <rect fill="url(#gridpattern)" stroke-width="0" y="0" x="0" height="100%" width="100%"/>
  </g>
 </g>
 <g>
  <title>Layer 1</title>
  <metadata id="svg_13">image/svg+xml</metadata>

  <g id="svg_15">
   <path fill="#ffffff" fill-rule="nonzero" id="svg_12" d="m0.15739,57.55952l170.35297,0l0,-58.11557l-170.35297,0l0,58.11557zm0,0"/>
   <path fill="none" stroke="#211e1e" stroke-width="0.2835" stroke-miterlimit="4" id="svg_11" d="m0.15739,57.55952l170.35297,0l0,-58.11557l-170.35297,0l0,58.11557"/>
   <path fill="#211e1e" fill-rule="nonzero" id="svg_10" d="m158.17313,51.69725l-2.13359,-32.95262l6.11907,1.66044c0.24517,0.06406 0.48514,-0.03204 0.64163,-0.25627c0.17215,-0.25093 0.1878,-0.61932 0.03125,-0.90764l-8.67513,-15.42986c-0.16172,-0.30433 -0.45385,-0.49654 -0.74076,-0.49654c-0.31821,0 -0.61556,0.19221 -0.7877,0.51255l-8.50827,15.55801c-0.15128,0.25627 -0.13563,0.6033 0.02604,0.85958c0.14607,0.25627 0.40169,0.36839 0.65729,0.28831l6.18166,-1.67646l-1.72669,32.88856l8.91515,-0.04806"/>
   <path fill="#211e1e" fill-rule="nonzero" id="svg_9" d="m21.88971,51.69725l-2.12315,-32.94729l6.11384,1.66045c0.23997,0.06406 0.47993,-0.03737 0.64164,-0.25627c0.17736,-0.25627 0.18779,-0.61934 0.02608,-0.91298l-8.66998,-15.42452c-0.16171,-0.30432 -0.45384,-0.49653 -0.73554,-0.49653c-0.32343,0 -0.62077,0.19221 -0.79292,0.51255l-8.50825,15.55266c-0.14607,0.25627 -0.13563,0.60865 0.02608,0.85958c0.14606,0.25627 0.40168,0.36839 0.65729,0.29366l6.18165,-1.6818l-1.72669,32.88321l8.90994,-0.04271"/>
  </g>
  <text xml:space="default" dominant-baseline="middle" text-anchor="middle" font-family="sans-serif" font-size="24" id="svg_16" y="37.33331" x="85.5" stroke-width="0" stroke="#000" fill="#000000">param(text1)</text>
 </g>
</svg>