<?xml version="1.0" encoding="UTF-8"?>
<svg xmlns="http://www.w3.org/2000/svg" xmlns:xlink="http://www.w3.org/1999/xlink" width="87pt" height="86pt" viewBox="0 0 87 86" version="1.1">
<g id="surface1">
<path style=" stroke:none;fill-rule:nonzero;fill:rgb(13.729858%,12.159729%,12.548828%);fill-opacity:1;" d="M 1 85.691406 L 86.039062 85.691406 L 86.039062 0.652344 L 1 0.652344 Z M 1 85.691406 "/>
<path style=" stroke:none;fill-rule:nonzero;fill:rgb(100%,100%,100%);fill-opacity:1;" d="M 1.851562 84.84375 L 85.1875 84.84375 L 85.1875 1.503906 L 1.851562 1.503906 Z M 1.851562 84.84375 "/>
<path style=" stroke:none;fill-rule:nonzero;fill:rgb(13.729858%,12.159729%,12.548828%);fill-opacity:1;" d="M 26.242188 16.933594 C 25.863281 16.746094 26.429688 17.121094 26.242188 16.933594 C 23.792969 15.046875 23.410156 11.65625 24.542969 9.394531 C 27.183594 3.742188 36.234375 4.683594 36.609375 11.847656 C 36.800781 17.121094 31.140625 18.441406 31.140625 18.253906 L 31.917969 33.175781 L 50.394531 33.359375 L 50.394531 37.507812 L 32.109375 37.507812 L 32.296875 41.277344 L 55.105469 41.65625 L 66.792969 65.777344 L 74.144531 62.578125 L 75.84375 66.152344 L 64.152344 71.429688 L 52.277344 45.988281 L 27.585938 45.800781 L 26.242188 16.933594 "/>
<path style=" stroke:none;fill-rule:nonzero;fill:rgb(13.729858%,12.159729%,12.548828%);fill-opacity:1;" d="M 54.1875 56.175781 L 57.390625 62.964844 C 57.203125 63.53125 57.011719 64.097656 56.828125 64.664062 C 55.316406 68.804688 52.488281 72.386719 48.90625 75.21875 C 44.761719 78.230469 39.859375 79.925781 34.578125 79.550781 C 21.953125 78.796875 12.144531 70.128906 11.394531 57.121094 C 11.019531 48.453125 15.539062 40.160156 23.269531 36.203125 C 23.644531 36.011719 24.402344 35.636719 24.777344 35.445312 L 24.96875 40.160156 C 24.777344 40.347656 24.589844 40.347656 24.402344 40.535156 C 19.121094 44.492188 15.351562 50.527344 15.730469 57.121094 C 16.292969 67.113281 23.644531 74.835938 34.578125 75.59375 C 39.480469 75.96875 44.195312 73.710938 47.777344 70.3125 C 50.980469 67.296875 53.054688 63.53125 53.804688 59.195312 C 53.996094 58.253906 53.996094 56.933594 54.1875 56.175781 "/>
</g>
</svg>
