<?xml version="1.0" encoding="UTF-8"?>
<svg xmlns="http://www.w3.org/2000/svg" xmlns:xlink="http://www.w3.org/1999/xlink" width="81pt" height="29pt" viewBox="0 0 81 29" version="1.1">
<g id="surface1">
<path style=" stroke:none;fill-rule:nonzero;fill:rgb(13.729858%,12.159729%,12.548828%);fill-opacity:1;" d="M 5.9375 23.65625 L 1.902344 23.65625 L 1.507812 21.050781 L 0.324219 20.015625 L 0.324219 16.390625 L 1.140625 16.390625 C 1.175781 16.273438 1.21875 16.101562 1.25 15.988281 L 1.480469 15.054688 C 1.542969 14.808594 1.628906 14.53125 1.75 14.304688 C 1.875 14.070312 2.054688 13.839844 2.28125 13.703125 C 2.398438 13.640625 2.546875 13.582031 2.671875 13.539062 C 2.90625 13.464844 3.265625 13.371094 3.511719 13.308594 C 4.78125 12.984375 6.871094 12.46875 8.148438 12.1875 C 10.339844 11.714844 12.652344 11.347656 14.871094 11.054688 C 17.042969 10.757812 19.222656 10.523438 21.40625 10.335938 C 21.515625 10.328125 21.625 10.3125 21.730469 10.304688 L 32.726562 1.804688 L 33.1875 1.429688 C 33.507812 1.191406 33.867188 1.007812 34.242188 0.863281 C 34.59375 0.726562 34.972656 0.625 35.347656 0.546875 C 36.085938 0.402344 37.324219 0.332031 38.078125 0.292969 L 42.53125 0.0859375 C 43.960938 0.0429688 45.648438 0.0585938 47.074219 0.078125 C 48.742188 0.109375 50.558594 0.152344 52.21875 0.246094 C 52.714844 0.273438 55.636719 0.4375 56.132812 0.445312 C 56.484375 0.453125 57.101562 0.472656 57.445312 0.53125 C 57.675781 0.574219 57.90625 0.648438 58.128906 0.726562 C 58.414062 0.835938 58.710938 0.984375 58.953125 1.179688 C 59.128906 1.316406 59.394531 1.617188 59.535156 1.78125 L 60.046875 2.335938 L 65.667969 8.878906 L 76.207031 9.394531 L 76.816406 9.410156 C 77.042969 9.414062 77.375 9.429688 77.605469 9.480469 C 77.820312 9.515625 78.023438 9.589844 78.207031 9.6875 C 78.632812 9.910156 78.96875 10.292969 79.226562 10.6875 C 79.40625 10.96875 79.574219 11.296875 79.632812 11.621094 C 79.660156 11.777344 79.664062 11.964844 79.664062 12.125 L 79.664062 15.765625 L 80.714844 16.675781 L 80.714844 19.65625 L 78.828125 21.4375 L 80.246094 21.4375 L 80.246094 22.59375 L 76.019531 22.59375 L 74.917969 23.65625 L 70.546875 23.65625 C 70.550781 23.585938 70.574219 23.386719 70.589844 23.3125 C 70.609375 23.097656 70.640625 22.789062 70.652344 22.574219 C 70.703125 21.34375 70.34375 20.132812 69.726562 19.070312 C 69.082031 17.949219 68.160156 17.015625 67.03125 16.375 C 65.964844 15.765625 64.75 15.433594 63.515625 15.441406 C 62.265625 15.449219 61.035156 15.792969 59.960938 16.441406 C 58.910156 17.058594 58.035156 17.941406 57.445312 19.003906 C 56.847656 20.09375 56.578125 21.359375 56.527344 22.59375 C 56.519531 22.773438 56.519531 22.980469 56.535156 23.164062 C 56.546875 23.304688 56.578125 23.511719 56.605469 23.65625 L 19.894531 23.65625 C 19.886719 23.476562 19.878906 23.210938 19.878906 23.03125 L 19.878906 22.449219 C 19.863281 21.265625 19.597656 20.074219 19.03125 19.023438 C 18.441406 17.933594 17.542969 17.050781 16.472656 16.425781 C 15.398438 15.792969 14.175781 15.449219 12.933594 15.457031 C 11.667969 15.464844 10.433594 15.84375 9.335938 16.476562 C 8.292969 17.070312 7.375 17.898438 6.765625 18.929688 C 6.144531 19.988281 5.859375 21.207031 5.859375 22.429688 C 5.859375 22.625 5.867188 22.816406 5.875 23.011719 C 5.886719 23.199219 5.917969 23.46875 5.9375 23.65625 "/>
<path style=" stroke:none;fill-rule:nonzero;fill:rgb(13.729858%,12.159729%,12.548828%);fill-opacity:1;" d="M 12.90625 16.804688 C 16.066406 16.796875 18.644531 19.339844 18.679688 22.5 C 18.722656 25.722656 16.140625 28.378906 12.914062 28.375 C 9.691406 28.375 7.117188 25.703125 7.164062 22.484375 C 7.210938 19.339844 9.761719 16.804688 12.90625 16.804688 "/>
<path style=" stroke:none;fill-rule:nonzero;fill:rgb(13.729858%,12.159729%,12.548828%);fill-opacity:1;" d="M 63.539062 16.769531 C 66.746094 16.761719 69.367188 19.347656 69.378906 22.5625 C 69.382812 25.792969 66.753906 28.429688 63.523438 28.410156 C 60.304688 28.386719 57.734375 25.746094 57.765625 22.535156 C 57.792969 19.351562 60.355469 16.773438 63.539062 16.769531 "/>
<path style=" stroke:none;fill-rule:nonzero;fill:rgb(100%,100%,100%);fill-opacity:1;" d="M 12.9375 20.550781 C 14.042969 20.550781 14.972656 21.40625 14.992188 22.503906 C 15.015625 23.652344 14.082031 24.585938 12.929688 24.578125 C 11.773438 24.574219 10.855469 23.617188 10.898438 22.46875 C 10.941406 21.382812 11.855469 20.550781 12.9375 20.550781 "/>
<path style=" stroke:none;fill-rule:nonzero;fill:rgb(100%,100%,100%);fill-opacity:1;" d="M 63.539062 20.535156 C 64.667969 20.527344 65.613281 21.417969 65.621094 22.554688 C 65.636719 23.710938 64.691406 24.652344 63.53125 24.628906 C 62.390625 24.605469 61.492188 23.652344 61.53125 22.519531 C 61.558594 21.417969 62.441406 20.542969 63.539062 20.535156 "/>
<path style=" stroke:none;fill-rule:nonzero;fill:rgb(100%,100%,100%);fill-opacity:1;" d="M 5.320312 19.65625 L 2.246094 19.65625 L 2.246094 20.042969 L 5.320312 20.417969 L 5.320312 19.65625 "/>
<path style=" stroke:none;fill-rule:nonzero;fill:rgb(100%,100%,100%);fill-opacity:1;" d="M 39.40625 19.65625 L 21.289062 19.65625 L 21.289062 20.417969 L 39.40625 20.417969 L 39.40625 19.65625 "/>
<path style=" stroke:none;fill-rule:nonzero;fill:rgb(100%,100%,100%);fill-opacity:1;" d="M 55.28125 19.65625 L 55.28125 20.417969 L 43.609375 20.417969 L 43.609375 19.65625 L 55.28125 19.65625 "/>
<path style=" stroke:none;fill-rule:nonzero;fill:rgb(100%,100%,100%);fill-opacity:1;" d="M 41.46875 10.308594 L 24.246094 10.308594 L 34.753906 2.078125 L 43.351562 1.648438 L 41.46875 10.308594 "/>
<path style=" stroke:none;fill-rule:nonzero;fill:rgb(100%,100%,100%);fill-opacity:1;" d="M 43.609375 10.308594 L 45.527344 1.660156 L 56.84375 2.128906 L 61.410156 10.308594 L 43.609375 10.308594 "/>
<path style=" stroke:none;fill-rule:nonzero;fill:rgb(100%,100%,100%);fill-opacity:1;" d="M 78.4375 19.65625 L 78.4375 19.949219 L 71.304688 20.417969 L 71.304688 19.65625 L 78.4375 19.65625 "/>
</g>
</svg>
