<?xml version="1.0" encoding="UTF-8"?>
<svg xmlns="http://www.w3.org/2000/svg" xmlns:xlink="http://www.w3.org/1999/xlink" width="135pt" height="30pt" viewBox="0 0 135 30" version="1.1">
<g id="surface1">
<path style=" stroke:none;fill-rule:nonzero;fill:rgb(13.729858%,12.159729%,12.548828%);fill-opacity:1;" d="M 69.46875 1.074219 L 125.734375 0.960938 C 126.152344 0.960938 126.59375 1.019531 126.953125 1.191406 C 127.277344 1.347656 127.550781 1.617188 127.75 1.902344 L 134.3125 11.96875 C 134.382812 12.089844 134.445312 12.242188 134.484375 12.378906 C 134.546875 12.550781 134.546875 13.257812 134.546875 13.4375 L 134.570312 22.847656 C 134.570312 23.257812 134.445312 23.707031 134.128906 23.972656 C 133.785156 24.261719 133.28125 24.316406 132.84375 24.316406 L 122.386719 24.316406 C 122.394531 24.113281 122.402344 23.820312 122.386719 23.613281 C 122.191406 20.539062 119.535156 18.261719 116.453125 18.226562 C 113.316406 18.191406 110.535156 20.457031 110.328125 23.589844 C 110.320312 23.792969 110.320312 24.085938 110.320312 24.28125 L 82.695312 24.25 C 82.695312 24.109375 82.695312 23.898438 82.679688 23.75 C 82.476562 20.679688 79.796875 18.441406 76.722656 18.433594 C 73.65625 18.433594 71.050781 20.695312 70.734375 23.75 C 70.714844 23.898438 70.699219 24.125 70.699219 24.28125 L 65.925781 24.316406 C 65.609375 24.332031 65.296875 24.179688 65.058594 23.964844 C 64.808594 23.691406 64.671875 23.292969 64.671875 22.925781 L 64.621094 13.835938 C 64.621094 13.617188 64.636719 13.367188 64.664062 13.15625 C 64.6875 12.839844 64.757812 12.308594 64.84375 12.027344 L 67.21875 2.292969 C 67.316406 1.867188 67.667969 1.507812 68.054688 1.328125 C 68.480469 1.117188 69.015625 1.074219 69.46875 1.074219 "/>
<path style=" stroke:none;fill-rule:nonzero;fill:rgb(13.729858%,12.159729%,12.548828%);fill-opacity:1;" d="M 76.753906 19.355469 C 79.496094 19.355469 81.714844 21.582031 81.714844 24.324219 C 81.714844 27.074219 79.488281 29.300781 76.746094 29.300781 C 74.019531 29.300781 71.792969 27.097656 71.777344 24.359375 C 71.765625 21.59375 73.996094 19.355469 76.753906 19.355469 "/>
<path style=" stroke:none;fill-rule:nonzero;fill:rgb(13.729858%,12.159729%,12.548828%);fill-opacity:1;" d="M 116.445312 19.269531 C 119.21875 19.296875 121.394531 21.617188 121.355469 24.394531 C 121.3125 27.109375 119.105469 29.308594 116.382812 29.3125 C 113.625 29.320312 111.363281 27.117188 111.335938 24.367188 C 111.292969 21.53125 113.609375 19.242188 116.445312 19.269531 "/>
<path style=" stroke:none;fill-rule:nonzero;fill:rgb(13.729858%,12.159729%,12.548828%);fill-opacity:1;" d="M 10.039062 19.089844 C 12.847656 19.089844 15.078125 21.394531 15.078125 24.128906 C 15.152344 26.9375 12.917969 29.3125 10.039062 29.3125 C 7.230469 29.3125 5 27.011719 5 24.128906 C 5 21.394531 7.300781 19.089844 10.039062 19.089844 "/>
<path style=" stroke:none;fill-rule:nonzero;fill:rgb(13.729858%,12.159729%,12.548828%);fill-opacity:1;" d="M 45.960938 19.097656 C 48.839844 19.097656 51.214844 21.472656 51.144531 24.355469 C 51.070312 27.089844 48.765625 29.25 46.03125 29.25 C 43.222656 29.25 40.917969 27.089844 40.847656 24.28125 C 40.777344 21.472656 43.078125 19.097656 45.960938 19.097656 "/>
<path style=" stroke:none;fill-rule:nonzero;fill:rgb(13.729858%,12.159729%,12.548828%);fill-opacity:1;" d="M 59.070312 18.457031 L 51.007812 18.457031 L 51.726562 19.390625 L 58.351562 19.535156 L 58.351562 21.40625 L 53.527344 23.136719 C 53.527344 23.207031 53.597656 24.289062 53.597656 24.359375 L 52.300781 24.359375 C 52.300781 24.289062 52.300781 24.144531 52.300781 24.144531 C 52.015625 20.761719 49.421875 17.878906 46.039062 17.878906 C 42.65625 17.808594 39.917969 20.617188 39.628906 23.929688 C 39.628906 24.074219 39.628906 24.214844 39.558594 24.289062 L 16.164062 24.214844 C 16.164062 24.144531 16.164062 24 16.164062 23.929688 C 16.238281 20.617188 13.355469 18.097656 10.046875 18.097656 C 6.804688 18.097656 4.070312 20.6875 3.925781 23.929688 C 3.925781 24.074219 3.925781 24.214844 3.925781 24.289062 L 0.902344 24.289062 L 0.972656 23.570312 C 0.902344 23.496094 0.757812 23.496094 0.613281 23.351562 C 0.46875 23.207031 0.46875 22.992188 0.46875 22.917969 L 0.46875 22.273438 C 0.46875 22.199219 0.46875 21.839844 0.542969 21.769531 C 0.613281 21.625 0.828125 21.625 0.972656 21.625 L 1.695312 21.625 L 2.414062 14.640625 C 2.414062 14.351562 2.558594 13.992188 2.773438 13.777344 C 3.0625 13.488281 3.636719 13.34375 3.710938 13.34375 L 4.574219 13.273438 L 6.734375 8.664062 C 7.164062 7.800781 8.605469 6.792969 9.828125 6.792969 L 16.886719 6.792969 L 16.8125 19.464844 L 39.917969 19.535156 L 40.78125 18.601562 L 17.605469 18.527344 L 17.75 1.03125 L 59.070312 0.960938 L 59.070312 18.457031 "/>
<path style=" stroke:none;fill-rule:nonzero;fill:rgb(100%,100%,100%);fill-opacity:1;" d="M 68.414062 3.148438 L 70.488281 3.136719 L 68.144531 12.617188 L 66.082031 12.617188 L 68.414062 3.148438 "/>
<path style=" stroke:none;fill-rule:nonzero;fill:rgb(100%,100%,100%);fill-opacity:1;" d="M 72.015625 3.121094 L 78.371094 3.089844 L 78.4375 12.609375 L 69.691406 12.640625 L 72.015625 3.121094 "/>
<path style=" stroke:none;fill-rule:nonzero;fill:rgb(100%,100%,100%);fill-opacity:1;" d="M 79.757812 3.089844 L 86.878906 3.089844 L 86.820312 12.617188 L 79.785156 12.617188 L 79.757812 3.089844 "/>
<path style=" stroke:none;fill-rule:nonzero;fill:rgb(100%,100%,100%);fill-opacity:1;" d="M 88.214844 3.089844 L 95.226562 3.089844 L 95.242188 12.617188 L 88.214844 12.617188 L 88.214844 3.089844 "/>
<path style=" stroke:none;fill-rule:nonzero;fill:rgb(100%,100%,100%);fill-opacity:1;" d="M 96.667969 3.089844 L 103.804688 3.121094 L 103.898438 12.640625 L 96.710938 12.640625 L 96.667969 3.089844 "/>
<path style=" stroke:none;fill-rule:nonzero;fill:rgb(100%,100%,100%);fill-opacity:1;" d="M 105.191406 3.121094 L 112.507812 3.085938 L 112.601562 12.660156 L 105.308594 12.640625 L 105.191406 3.121094 "/>
<path style=" stroke:none;fill-rule:nonzero;fill:rgb(100%,100%,100%);fill-opacity:1;" d="M 113.925781 3.089844 L 121.085938 3.089844 L 121.148438 12.574219 L 114.019531 12.640625 L 113.925781 3.089844 "/>
<path style=" stroke:none;fill-rule:nonzero;fill:rgb(100%,100%,100%);fill-opacity:1;" d="M 122.539062 3.089844 L 126.902344 3.089844 L 132.878906 12.574219 L 122.558594 12.574219 L 122.539062 3.089844 "/>
<path style=" stroke:none;fill-rule:nonzero;fill:rgb(100%,100%,100%);fill-opacity:1;" d="M 76.746094 22.1875 C 77.914062 22.1875 78.835938 23.15625 78.8125 24.324219 C 78.796875 25.441406 77.890625 26.347656 76.777344 26.347656 C 75.652344 26.355469 74.738281 25.460938 74.695312 24.34375 C 74.664062 23.179688 75.582031 22.195312 76.746094 22.1875 "/>
<path style=" stroke:none;fill-rule:nonzero;fill:rgb(100%,100%,100%);fill-opacity:1;" d="M 116.433594 22.164062 C 117.628906 22.171875 118.570312 23.179688 118.492188 24.382812 C 118.425781 25.449219 117.507812 26.246094 116.425781 26.253906 C 115.332031 26.261719 114.382812 25.460938 114.300781 24.382812 C 114.222656 23.164062 115.210938 22.148438 116.433594 22.164062 "/>
<path style=" stroke:none;fill-rule:nonzero;fill:rgb(100%,100%,100%);fill-opacity:1;" d="M 10.039062 22.121094 C 11.191406 22.121094 12.125 23.054688 12.125 24.136719 C 12.125 25.363281 11.261719 26.296875 10.109375 26.296875 C 8.886719 26.367188 7.949219 25.363281 7.949219 24.207031 C 7.949219 23.054688 8.886719 22.121094 10.039062 22.121094 "/>
<path style=" stroke:none;fill-rule:nonzero;fill:rgb(100%,100%,100%);fill-opacity:1;" d="M 46.03125 22.050781 C 47.253906 22.050781 48.117188 23.128906 48.046875 24.355469 C 48.046875 25.433594 47.109375 26.296875 46.03125 26.296875 C 44.878906 26.296875 43.945312 25.503906 43.871094 24.355469 C 43.800781 23.128906 44.808594 22.050781 46.03125 22.050781 "/>
<path style=" stroke:none;fill-rule:nonzero;fill:rgb(100%,100%,100%);fill-opacity:1;" d="M 10.46875 8.734375 L 14.144531 8.808594 L 14.144531 13.34375 L 8.3125 13.273438 L 10.46875 8.734375 "/>
<path style=" stroke:none;fill-rule:nonzero;fill:rgb(100%,100%,100%);fill-opacity:1;" d="M 7.519531 8.734375 L 9.101562 8.734375 L 7.015625 13.34375 L 5.503906 13.34375 L 7.519531 8.734375 "/>
</g>
</svg>
