<?xml version="1.0" encoding="UTF-8"?>
<svg xmlns="http://www.w3.org/2000/svg" xmlns:xlink="http://www.w3.org/1999/xlink" width="71pt" height="30pt" viewBox="0 0 71 30" version="1.1">
<g id="surface1">
<path style=" stroke:none;fill-rule:nonzero;fill:rgb(13.729858%,12.159729%,12.548828%);fill-opacity:1;" d="M 5.390625 1.070312 L 61.65625 0.957031 C 62.078125 0.957031 62.515625 1.015625 62.875 1.1875 C 63.199219 1.34375 63.472656 1.613281 63.675781 1.898438 L 70.234375 11.964844 C 70.304688 12.089844 70.371094 12.238281 70.40625 12.375 C 70.472656 12.546875 70.472656 13.253906 70.472656 13.433594 L 70.492188 22.84375 C 70.492188 23.253906 70.371094 23.699219 70.054688 23.96875 C 69.707031 24.257812 69.203125 24.3125 68.765625 24.3125 L 58.308594 24.3125 C 58.316406 24.113281 58.324219 23.816406 58.308594 23.605469 C 58.117188 20.535156 55.460938 18.257812 52.378906 18.222656 C 49.238281 18.1875 46.460938 20.453125 46.25 23.585938 C 46.242188 23.789062 46.242188 24.082031 46.242188 24.277344 L 18.617188 24.25 C 18.617188 24.105469 18.617188 23.894531 18.601562 23.746094 C 18.402344 20.675781 15.722656 18.4375 12.648438 18.429688 C 9.582031 18.429688 6.976562 20.691406 6.65625 23.746094 C 6.636719 23.894531 6.621094 24.117188 6.621094 24.277344 L 1.847656 24.3125 C 1.53125 24.328125 1.222656 24.175781 0.984375 23.960938 C 0.734375 23.6875 0.59375 23.292969 0.59375 22.925781 L 0.546875 13.832031 C 0.546875 13.613281 0.558594 13.363281 0.589844 13.152344 C 0.609375 12.835938 0.683594 12.304688 0.769531 12.023438 L 3.144531 2.289062 C 3.238281 1.863281 3.589844 1.503906 3.980469 1.324219 C 4.40625 1.113281 4.9375 1.070312 5.390625 1.070312 "/>
<path style=" stroke:none;fill-rule:nonzero;fill:rgb(13.729858%,12.159729%,12.548828%);fill-opacity:1;" d="M 12.683594 19.351562 C 15.425781 19.351562 17.644531 21.578125 17.644531 24.320312 C 17.644531 27.070312 15.421875 29.296875 12.675781 29.296875 C 9.949219 29.296875 7.722656 27.09375 7.707031 24.355469 C 7.695312 21.59375 9.925781 19.351562 12.683594 19.351562 "/>
<path style=" stroke:none;fill-rule:nonzero;fill:rgb(13.729858%,12.159729%,12.548828%);fill-opacity:1;" d="M 52.371094 19.273438 C 55.144531 19.300781 57.316406 21.621094 57.28125 24.398438 C 57.238281 27.113281 55.027344 29.3125 52.304688 29.316406 C 49.546875 29.324219 47.285156 27.121094 47.257812 24.371094 C 47.214844 21.535156 49.535156 19.246094 52.371094 19.273438 "/>
<path style=" stroke:none;fill-rule:nonzero;fill:rgb(100%,100%,100%);fill-opacity:1;" d="M 4.347656 3.144531 L 6.421875 3.132812 L 4.074219 12.613281 L 2.011719 12.613281 L 4.347656 3.144531 "/>
<path style=" stroke:none;fill-rule:nonzero;fill:rgb(100%,100%,100%);fill-opacity:1;" d="M 7.945312 3.117188 L 14.304688 3.089844 L 14.367188 12.605469 L 5.621094 12.636719 L 7.945312 3.117188 "/>
<path style=" stroke:none;fill-rule:nonzero;fill:rgb(100%,100%,100%);fill-opacity:1;" d="M 15.679688 3.089844 L 22.800781 3.089844 L 22.742188 12.613281 L 15.707031 12.613281 L 15.679688 3.089844 "/>
<path style=" stroke:none;fill-rule:nonzero;fill:rgb(100%,100%,100%);fill-opacity:1;" d="M 24.132812 3.089844 L 31.144531 3.089844 L 31.160156 12.613281 L 24.132812 12.613281 L 24.132812 3.089844 "/>
<path style=" stroke:none;fill-rule:nonzero;fill:rgb(100%,100%,100%);fill-opacity:1;" d="M 32.59375 3.089844 L 39.726562 3.117188 L 39.820312 12.636719 L 32.636719 12.636719 L 32.59375 3.089844 "/>
<path style=" stroke:none;fill-rule:nonzero;fill:rgb(100%,100%,100%);fill-opacity:1;" d="M 41.117188 3.117188 L 48.433594 3.082031 L 48.527344 12.65625 L 41.230469 12.636719 L 41.117188 3.117188 "/>
<path style=" stroke:none;fill-rule:nonzero;fill:rgb(100%,100%,100%);fill-opacity:1;" d="M 49.84375 3.089844 L 57 3.089844 L 57.066406 12.570312 L 49.9375 12.636719 L 49.84375 3.089844 "/>
<path style=" stroke:none;fill-rule:nonzero;fill:rgb(100%,100%,100%);fill-opacity:1;" d="M 58.460938 3.089844 L 62.824219 3.089844 L 68.800781 12.570312 L 58.484375 12.570312 L 58.460938 3.089844 "/>
<path style=" stroke:none;fill-rule:nonzero;fill:rgb(100%,100%,100%);fill-opacity:1;" d="M 12.675781 22.183594 C 13.84375 22.183594 14.765625 23.15625 14.742188 24.320312 C 14.730469 25.4375 13.820312 26.34375 12.707031 26.34375 C 11.582031 26.351562 10.667969 25.457031 10.625 24.34375 C 10.597656 23.175781 11.511719 22.1875 12.675781 22.183594 "/>
<path style=" stroke:none;fill-rule:nonzero;fill:rgb(100%,100%,100%);fill-opacity:1;" d="M 52.347656 22.160156 C 53.542969 22.167969 54.488281 23.175781 54.40625 24.378906 C 54.34375 25.445312 53.421875 26.242188 52.34375 26.25 C 51.246094 26.257812 50.296875 25.457031 50.21875 24.378906 C 50.140625 23.160156 51.125 22.144531 52.347656 22.160156 "/>
</g>
</svg>
