<?xml version="1.0" encoding="UTF-8"?>
<svg xmlns="http://www.w3.org/2000/svg" xmlns:xlink="http://www.w3.org/1999/xlink" width="26pt" height="29pt" viewBox="0 0 26 29" version="1.1">
<g id="surface1">
<path style=" stroke:none;fill-rule:nonzero;fill:rgb(13.729858%,12.159729%,12.548828%);fill-opacity:1;" d="M 16.691406 3.554688 C 16.621094 3.816406 16.527344 4.136719 16.40625 4.382812 C 16.113281 4.953125 15.507812 5.34375 14.890625 5.371094 C 14.199219 5.390625 13.671875 4.753906 13.570312 4.070312 C 13.507812 3.625 13.585938 3.09375 13.710938 2.660156 L 16.691406 3.554688 "/>
<path style=" stroke:none;fill-rule:nonzero;fill:rgb(13.729858%,12.159729%,12.548828%);fill-opacity:1;" d="M 13.757812 2.367188 C 13.835938 2.121094 13.929688 1.859375 14.039062 1.628906 C 14.273438 1.132812 14.742188 0.742188 15.277344 0.667969 C 15.855469 0.597656 16.453125 0.976562 16.699219 1.496094 L 17.621094 3.5625 L 13.757812 2.367188 "/>
<path style=" stroke:none;fill-rule:nonzero;fill:rgb(13.729858%,12.159729%,12.548828%);fill-opacity:1;" d="M 20.128906 4.097656 L 23.488281 7.0625 C 23.746094 7.292969 23.691406 7.742188 23.566406 8.066406 C 23.421875 8.445312 22.996094 8.964844 22.695312 9.222656 C 22.59375 9.308594 22.449219 9.378906 22.332031 9.332031 C 22.160156 9.273438 22.023438 9.039062 21.945312 8.875 L 21.53125 7.992188 C 21.316406 7.5625 20.90625 6.871094 20.636719 6.457031 L 19.5625 5 C 19.472656 4.921875 19.160156 4.664062 19.078125 4.574219 C 19.011719 4.5 18.96875 4.398438 18.992188 4.304688 C 19.066406 3.96875 19.871094 3.863281 20.128906 4.097656 "/>
<path style=" stroke:none;fill-rule:nonzero;fill:rgb(13.729858%,12.159729%,12.548828%);fill-opacity:1;" d="M 22.164062 10.144531 C 21.816406 9.160156 21.34375 8.152344 20.828125 7.230469 C 20.46875 6.574219 20.023438 5.875 19.496094 5.300781 C 19.136719 4.902344 18.644531 4.542969 18.113281 4.464844 C 17.507812 4.371094 16.804688 4.667969 16.289062 5.007812 L 10.199219 8.890625 C 9.570312 8.636719 8.878906 9.070312 8.832031 9.742188 C 8.792969 10.378906 9.472656 10.933594 10.089844 10.753906 C 10.292969 10.703125 10.46875 10.582031 10.601562 10.414062 L 11.957031 11.542969 L 9.246094 14.585938 L 8.734375 15.164062 C 7.816406 14.402344 6.730469 14.027344 5.535156 14.050781 C 3.160156 14.109375 1.128906 15.945312 0.855469 18.308594 C 0.710938 19.492188 0.988281 20.609375 1.652344 21.585938 C 2.019531 22.128906 2.488281 22.589844 3.039062 22.945312 C 4.671875 23.980469 6.941406 23.921875 8.535156 22.746094 C 10.109375 21.570312 10.816406 19.433594 10.292969 17.554688 C 10.113281 16.929688 9.816406 16.347656 9.40625 15.84375 L 10.566406 14.507812 L 12.609375 22.265625 L 15.601562 23.242188 C 14.976562 26.441406 17.636719 29.316406 20.875 28.976562 C 23.484375 28.699219 25.410156 26.339844 25.195312 23.765625 C 25.089844 22.476562 24.523438 21.363281 23.539062 20.507812 C 22.5625 19.65625 21.378906 19.257812 20.070312 19.335938 L 19.71875 17.140625 L 22.304688 14.195312 C 22.542969 13.921875 22.722656 13.589844 22.773438 13.226562 C 22.8125 12.933594 22.789062 12.621094 22.742188 12.328125 C 22.621094 11.582031 22.421875 10.855469 22.164062 10.144531 "/>
<path style=" stroke:none;fill-rule:nonzero;fill:rgb(100%,100%,100%);fill-opacity:1;" d="M 18.570312 11.863281 L 14.6875 12.695312 L 14.578125 13.742188 L 12.113281 12.84375 L 13.398438 11.457031 L 11.597656 9.957031 L 16.164062 7.25 L 18.570312 11.863281 "/>
<path style=" stroke:none;fill-rule:nonzero;fill:rgb(100%,100%,100%);fill-opacity:1;" d="M 20.316406 20.6875 C 21.871094 20.6875 23.261719 21.75 23.683594 23.207031 C 24.097656 24.671875 23.503906 26.292969 22.195312 27.136719 C 21.042969 27.871094 19.53125 27.851562 18.390625 27.105469 C 17.222656 26.34375 16.644531 24.957031 16.847656 23.636719 L 20.109375 24.671875 C 20.304688 24.730469 20.515625 24.695312 20.675781 24.574219 C 20.867188 24.4375 20.957031 24.199219 20.914062 23.960938 L 20.316406 20.6875 "/>
<path style=" stroke:none;fill-rule:nonzero;fill:rgb(100%,100%,100%);fill-opacity:1;" d="M 18.84375 23.277344 L 19.640625 23.550781 C 19.6875 23.5625 19.742188 23.550781 19.773438 23.511719 C 19.789062 23.488281 19.800781 23.449219 19.796875 23.417969 L 19.363281 20.816406 C 18.894531 20.929688 18.457031 21.144531 18.085938 21.457031 C 17.675781 21.792969 17.351562 22.226562 17.15625 22.722656 L 18.84375 23.277344 "/>
<path style=" stroke:none;fill-rule:nonzero;fill:rgb(100%,100%,100%);fill-opacity:1;" d="M 16.4375 15.40625 L 17.609375 15.855469 L 15.765625 19.085938 L 16.4375 15.40625 "/>
<path style=" stroke:none;fill-rule:nonzero;fill:rgb(100%,100%,100%);fill-opacity:1;" d="M 18.496094 14.269531 L 16.601562 14.46875 L 18.101562 14.996094 L 18.496094 14.269531 "/>
<path style=" stroke:none;fill-rule:nonzero;fill:rgb(100%,100%,100%);fill-opacity:1;" d="M 7.898438 16.195312 C 7.179688 15.605469 6.339844 15.34375 5.414062 15.417969 C 3.574219 15.5625 2.144531 17.175781 2.230469 19.03125 C 2.3125 20.839844 3.820312 22.316406 5.625 22.351562 C 7.40625 22.386719 8.949219 21.03125 9.15625 19.261719 C 9.25 18.378906 9.027344 17.550781 8.507812 16.835938 L 6.453125 19.085938 L 5.625 19.308594 C 5.332031 19.386719 5.03125 19.183594 4.996094 18.882812 C 4.972656 18.636719 5.128906 18.40625 5.363281 18.34375 L 5.996094 18.175781 L 7.898438 16.195312 "/>
<path style=" stroke:none;fill-rule:nonzero;fill:rgb(100%,100%,100%);fill-opacity:1;" d="M 15.859375 22.289062 C 16.140625 21.5625 16.609375 20.925781 17.207031 20.429688 C 17.753906 19.972656 18.414062 19.648438 19.109375 19.492188 L 18.890625 18.039062 L 15.78125 21.144531 C 15.539062 21.378906 15.210938 21.492188 14.878906 21.449219 C 14.292969 21.378906 13.871094 20.855469 13.9375 20.269531 L 14.527344 14.722656 L 11.445312 13.59375 L 11.308594 13.726562 L 13.335938 21.457031 L 15.859375 22.289062 "/>
</g>
</svg>
