<?xml version="1.0" encoding="UTF-8"?>
<svg xmlns="http://www.w3.org/2000/svg" xmlns:xlink="http://www.w3.org/1999/xlink" width="65pt" height="30pt" viewBox="0 0 65 30" version="1.1">
<g id="surface1">
<path style=" stroke:none;fill-rule:nonzero;fill:rgb(13.729858%,12.159729%,12.548828%);fill-opacity:1;" d="M 64.75 25.101562 L 64.460938 25.460938 L 58.996094 25.460938 L 59.214844 25.101562 L 64.75 25.101562 "/>
<path style=" stroke:none;fill-rule:nonzero;fill:rgb(13.729858%,12.159729%,12.548828%);fill-opacity:1;" d="M 62.589844 28.988281 L 62.375 29.347656 L 0.289062 29.347656 L 0.503906 28.988281 L 62.589844 28.988281 "/>
<path style=" stroke:none;fill-rule:nonzero;fill:rgb(13.729858%,12.159729%,12.548828%);fill-opacity:1;" d="M 38.851562 11.070312 L 14.320312 11.070312 C 14.320312 10.996094 14.320312 10.925781 14.320312 10.851562 C 14.320312 10.636719 14.394531 10.421875 14.535156 10.207031 C 14.609375 10.0625 14.753906 9.917969 14.824219 9.84375 C 14.96875 9.703125 15.039062 9.628906 15.183594 9.558594 C 15.328125 9.484375 15.472656 9.484375 15.617188 9.414062 C 15.6875 9.414062 15.761719 9.414062 15.832031 9.414062 L 37.347656 9.414062 C 37.417969 9.414062 37.636719 9.414062 37.707031 9.414062 C 37.996094 9.484375 38.277344 9.628906 38.417969 9.84375 C 38.5625 9.988281 38.707031 10.207031 38.78125 10.421875 C 38.78125 10.566406 38.851562 10.710938 38.851562 10.851562 C 38.851562 10.925781 38.851562 10.996094 38.851562 11.070312 "/>
<path style=" stroke:none;fill-rule:nonzero;fill:rgb(13.729858%,12.159729%,12.548828%);fill-opacity:1;" d="M 2.738281 25.101562 L 7.984375 25.101562 L 8.199219 25.460938 L 2.449219 25.460938 L 2.738281 25.101562 "/>
<path style=" stroke:none;fill-rule:nonzero;fill:rgb(13.729858%,12.159729%,12.548828%);fill-opacity:1;" d="M 57.125 13.589844 L 9.785156 13.589844 C 9.785156 13.515625 9.855469 13.445312 9.855469 13.445312 C 10 13.15625 10.144531 12.941406 10.289062 12.726562 C 10.433594 12.507812 10.648438 12.292969 10.863281 12.148438 C 11.152344 11.933594 11.511719 11.71875 11.871094 11.574219 C 12.160156 11.429688 12.449219 11.355469 12.738281 11.355469 L 41.082031 11.355469 L 41.082031 10.566406 L 34.890625 6.46875 L 43.597656 2.652344 L 43.597656 1.355469 L 42.957031 1.355469 C 42.882812 1.429688 42.882812 1.429688 42.882812 1.5 L 42.882812 1.644531 L 42.59375 1.644531 L 42.59375 1.355469 C 42.59375 1.355469 42.59375 1.285156 42.667969 1.285156 C 42.667969 1.210938 42.667969 1.140625 42.738281 1.140625 C 42.738281 1.070312 42.8125 1.070312 42.8125 1.070312 C 42.882812 0.996094 42.882812 0.996094 42.957031 0.996094 L 44.53125 0.996094 C 44.605469 1.070312 44.675781 1.070312 44.675781 1.070312 C 44.746094 1.140625 44.746094 1.140625 44.820312 1.210938 L 44.820312 1.285156 C 44.820312 1.355469 44.820312 1.355469 44.820312 1.355469 L 44.820312 1.644531 L 44.605469 1.644531 L 44.605469 1.574219 C 44.605469 1.5 44.605469 1.5 44.53125 1.429688 C 44.53125 1.429688 44.53125 1.429688 44.53125 1.355469 C 44.53125 1.355469 44.460938 1.355469 44.390625 1.355469 L 43.882812 1.355469 L 43.882812 2.652344 L 52.949219 6.613281 L 46.835938 10.566406 L 46.835938 11.355469 L 53.667969 11.355469 C 53.886719 11.355469 54.171875 11.429688 54.390625 11.5 L 55.035156 11.644531 C 55.035156 11.644531 55.109375 11.71875 55.179688 11.71875 L 55.253906 11.355469 L 56.332031 11.355469 C 56.40625 11.355469 56.476562 11.355469 56.476562 11.429688 C 56.546875 11.429688 56.546875 11.429688 56.621094 11.5 C 56.621094 11.5 56.695312 11.5 56.695312 11.574219 L 56.695312 12.941406 L 56.765625 13.011719 L 56.910156 13.230469 C 56.980469 13.300781 57.050781 13.371094 57.050781 13.445312 C 57.050781 13.515625 57.125 13.515625 57.125 13.589844 "/>
<path style=" stroke:none;fill-rule:nonzero;fill:rgb(13.729858%,12.159729%,12.548828%);fill-opacity:1;" d="M 9.574219 14.316406 L 57.347656 14.316406 L 57.707031 15.605469 L 56.84375 15.605469 L 57.921875 19.636719 C 57.921875 19.710938 57.996094 19.78125 57.996094 19.851562 L 57.996094 20.070312 L 58.070312 20.429688 L 58.070312 20.71875 L 58.210938 23.8125 L 58.78125 23.957031 L 58.78125 24.957031 L 58.285156 25.101562 L 58.285156 25.535156 L 56.914062 25.820312 C 56.914062 25.894531 56.84375 25.894531 56.84375 25.894531 C 56.773438 25.894531 56.773438 25.964844 56.773438 25.964844 C 56.699219 26.039062 56.699219 26.109375 56.773438 26.109375 C 56.773438 26.179688 56.773438 26.179688 56.84375 26.253906 C 56.84375 26.253906 56.914062 26.253906 56.988281 26.253906 L 58.285156 26.253906 L 58.78125 26.542969 L 60.078125 26.542969 C 60.078125 26.542969 60.148438 26.542969 60.148438 26.46875 C 60.148438 26.46875 60.21875 26.46875 60.21875 26.398438 L 60.21875 26.324219 L 60.292969 26.253906 L 60.363281 26.253906 C 60.4375 26.253906 60.4375 26.253906 60.4375 26.253906 L 60.4375 27.046875 C 60.4375 27.046875 60.4375 27.046875 60.363281 27.046875 C 60.363281 27.046875 60.363281 27.046875 60.292969 27.046875 C 60.292969 27.046875 60.292969 26.972656 60.21875 26.972656 C 60.21875 26.902344 60.21875 26.902344 60.21875 26.832031 C 60.21875 26.832031 60.21875 26.757812 60.148438 26.757812 C 60.078125 26.757812 60.078125 26.757812 60.003906 26.757812 L 55.835938 26.757812 L 55.835938 26.832031 C 55.835938 26.902344 55.835938 26.972656 55.835938 27.046875 C 55.765625 27.117188 55.691406 27.1875 55.691406 27.1875 C 55.621094 27.261719 55.621094 27.261719 55.546875 27.261719 C 55.476562 27.332031 55.476562 27.332031 55.40625 27.332031 C 55.332031 27.332031 55.332031 27.332031 55.261719 27.332031 L 54.398438 27.332031 C 54.398438 27.40625 54.398438 27.476562 54.324219 27.476562 C 54.324219 27.695312 54.253906 27.910156 54.179688 28.125 C 54.109375 28.34375 53.894531 28.558594 53.746094 28.703125 C 53.460938 28.84375 53.101562 28.988281 52.738281 28.988281 C 52.308594 28.988281 51.875 28.773438 51.589844 28.484375 C 51.371094 28.199219 51.15625 27.910156 51.15625 27.550781 C 51.15625 27.476562 51.15625 27.40625 51.15625 27.332031 L 47.636719 27.332031 C 47.636719 27.40625 47.636719 27.550781 47.5625 27.621094 C 47.5625 27.910156 47.347656 28.269531 47.132812 28.484375 C 46.84375 28.773438 46.410156 28.917969 46.050781 28.988281 C 45.546875 28.988281 45.113281 28.773438 44.757812 28.484375 C 44.539062 28.199219 44.394531 27.910156 44.394531 27.550781 C 44.394531 27.550781 44.394531 27.40625 44.394531 27.332031 L 43.316406 27.332031 C 43.242188 27.332031 43.242188 27.332031 43.171875 27.332031 C 43.097656 27.261719 43.027344 27.261719 42.957031 27.1875 C 42.882812 27.117188 42.882812 27.117188 42.8125 27.046875 C 42.8125 26.972656 42.8125 26.902344 42.738281 26.902344 C 42.738281 26.832031 42.738281 26.757812 42.738281 26.757812 L 24.25 26.757812 L 24.25 26.902344 C 24.25 26.902344 24.25 27.046875 24.175781 27.046875 C 24.175781 27.117188 24.175781 27.1875 24.105469 27.1875 C 24.105469 27.261719 24.035156 27.261719 23.960938 27.332031 C 23.890625 27.332031 23.816406 27.332031 23.746094 27.332031 L 23.027344 27.332031 C 23.027344 27.40625 23.027344 27.476562 23.027344 27.550781 C 22.953125 27.910156 22.808594 28.269531 22.523438 28.484375 C 22.234375 28.773438 21.800781 28.988281 21.441406 28.988281 C 21.011719 28.988281 20.585938 28.773438 20.296875 28.558594 C 20.082031 28.269531 19.9375 28.054688 19.863281 27.695312 C 19.863281 27.621094 19.792969 27.476562 19.792969 27.332031 L 16.265625 27.332031 C 16.265625 27.40625 16.265625 27.550781 16.191406 27.621094 C 16.191406 27.910156 16.046875 28.269531 15.761719 28.484375 C 15.472656 28.773438 15.039062 28.917969 14.609375 28.988281 C 14.175781 28.988281 13.746094 28.773438 13.457031 28.484375 C 13.242188 28.199219 13.097656 27.980469 13.097656 27.621094 C 13.097656 27.550781 13.097656 27.40625 13.097656 27.332031 L 11.296875 27.332031 C 11.226562 27.332031 11.160156 27.332031 11.089844 27.332031 C 11.015625 27.261719 10.945312 27.261719 10.945312 27.1875 C 10.871094 27.1875 10.800781 27.117188 10.726562 27.046875 C 10.726562 26.972656 10.726562 26.902344 10.726562 26.832031 L 10.726562 26.757812 L 6.984375 26.757812 C 6.914062 26.757812 6.914062 26.757812 6.839844 26.832031 C 6.839844 26.832031 6.839844 26.832031 6.839844 26.902344 L 6.695312 27.046875 C 6.625 27.046875 6.625 27.046875 6.625 27.046875 C 6.550781 27.046875 6.480469 27.046875 6.40625 27.046875 L 6.480469 26.253906 C 6.480469 26.253906 6.550781 26.253906 6.625 26.253906 L 6.769531 26.398438 C 6.769531 26.398438 6.839844 26.46875 6.914062 26.46875 L 8.207031 26.46875 L 8.570312 26.253906 L 10.726562 26.253906 L 10.726562 25.894531 L 9 25.675781 L 9.074219 25.101562 L 8.570312 24.957031 L 8.570312 23.957031 L 9.074219 23.8125 L 9.574219 14.316406 "/>
<path style=" stroke:none;fill-rule:nonzero;fill:rgb(100%,100%,100%);fill-opacity:1;" d="M 46.121094 11.429688 L 41.804688 11.429688 L 41.804688 10.566406 L 46.121094 10.566406 L 46.121094 11.429688 "/>
<path style=" stroke:none;fill-rule:nonzero;fill:rgb(100%,100%,100%);fill-opacity:1;" d="M 51.804688 6.613281 L 46.410156 9.996094 L 41.371094 9.996094 L 35.90625 6.539062 L 43.746094 2.875 L 51.804688 6.613281 "/>
<path style=" stroke:none;fill-rule:nonzero;fill:rgb(100%,100%,100%);fill-opacity:1;" d="M 12.382812 20.0625 L 10.007812 20.0625 C 9.9375 20.0625 9.863281 19.988281 9.792969 19.988281 C 9.71875 19.917969 9.71875 19.84375 9.648438 19.773438 C 9.648438 19.703125 9.648438 19.628906 9.648438 19.558594 L 10.007812 15.101562 L 10.007812 15.027344 C 10.007812 14.957031 10.082031 14.886719 10.082031 14.8125 C 10.152344 14.742188 10.222656 14.667969 10.296875 14.667969 L 12.3125 14.667969 C 12.382812 14.667969 12.457031 14.667969 12.527344 14.667969 C 12.601562 14.667969 12.601562 14.742188 12.671875 14.742188 C 12.742188 14.8125 12.742188 14.886719 12.742188 14.957031 C 12.816406 15.027344 12.816406 15.027344 12.816406 15.101562 L 12.816406 19.484375 C 12.816406 19.558594 12.816406 19.628906 12.816406 19.703125 C 12.742188 19.773438 12.742188 19.84375 12.671875 19.917969 C 12.671875 19.988281 12.601562 19.988281 12.527344 20.0625 C 12.527344 20.0625 12.457031 20.0625 12.382812 20.0625 "/>
<path style=" stroke:none;fill-rule:nonzero;fill:rgb(100%,100%,100%);fill-opacity:1;" d="M 17.128906 25.460938 L 13.671875 25.460938 L 13.671875 14.667969 L 17.128906 14.667969 L 17.128906 25.460938 "/>
<path style=" stroke:none;fill-rule:nonzero;fill:rgb(100%,100%,100%);fill-opacity:1;" d="M 21.449219 25.460938 L 17.847656 25.460938 L 17.847656 14.667969 L 21.449219 14.667969 L 21.449219 25.460938 "/>
<path style=" stroke:none;fill-rule:nonzero;fill:rgb(100%,100%,100%);fill-opacity:1;" d="M 29.355469 20.0625 L 22.882812 20.0625 C 22.808594 20.0625 22.738281 19.988281 22.664062 19.988281 C 22.664062 19.917969 22.59375 19.84375 22.59375 19.773438 C 22.59375 19.703125 22.523438 19.703125 22.523438 19.628906 L 22.523438 15.101562 C 22.523438 15.101562 22.59375 15.027344 22.59375 14.957031 C 22.59375 14.886719 22.664062 14.8125 22.738281 14.742188 C 22.808594 14.742188 22.882812 14.667969 22.953125 14.667969 C 23.027344 14.667969 23.097656 14.667969 23.097656 14.667969 L 29.355469 14.667969 C 29.5 14.667969 29.570312 14.667969 29.644531 14.742188 C 29.714844 14.8125 29.785156 14.957031 29.785156 15.027344 C 29.785156 15.101562 29.785156 15.101562 29.785156 15.171875 L 29.785156 19.558594 C 29.785156 19.628906 29.785156 19.703125 29.785156 19.703125 C 29.785156 19.773438 29.714844 19.84375 29.714844 19.917969 C 29.644531 19.988281 29.570312 20.0625 29.5 20.0625 C 29.425781 20.0625 29.425781 20.0625 29.355469 20.0625 "/>
<path style=" stroke:none;fill-rule:nonzero;fill:rgb(100%,100%,100%);fill-opacity:1;" d="M 36.90625 20.0625 L 30.867188 20.0625 C 30.792969 20.0625 30.722656 20.0625 30.722656 20.0625 C 30.652344 20.0625 30.507812 19.988281 30.507812 19.917969 C 30.433594 19.84375 30.363281 19.773438 30.363281 19.703125 C 30.363281 19.628906 30.363281 19.628906 30.363281 19.558594 L 30.363281 15.171875 C 30.363281 15.171875 30.363281 15.101562 30.363281 15.027344 C 30.363281 14.957031 30.433594 14.886719 30.507812 14.8125 C 30.578125 14.742188 30.652344 14.667969 30.722656 14.667969 C 30.722656 14.667969 30.867188 14.667969 30.9375 14.667969 L 36.90625 14.667969 C 36.980469 14.667969 37.050781 14.667969 37.121094 14.667969 C 37.195312 14.667969 37.339844 14.742188 37.410156 14.8125 C 37.410156 14.886719 37.484375 14.957031 37.484375 15.101562 L 37.484375 19.558594 C 37.484375 19.628906 37.484375 19.703125 37.484375 19.773438 C 37.410156 19.84375 37.339844 19.917969 37.269531 19.988281 C 37.195312 20.0625 37.121094 20.0625 37.050781 20.0625 C 36.980469 20.0625 36.90625 20.0625 36.90625 20.0625 "/>
<path style=" stroke:none;fill-rule:nonzero;fill:rgb(100%,100%,100%);fill-opacity:1;" d="M 44.609375 20.0625 L 38.570312 20.0625 C 38.5 20.0625 38.425781 20.0625 38.425781 20.0625 C 38.355469 20.0625 38.210938 20.0625 38.140625 19.988281 C 38.140625 19.917969 38.066406 19.84375 38.066406 19.703125 C 38.066406 19.703125 37.996094 19.628906 37.996094 19.558594 L 37.996094 15.171875 C 37.996094 15.101562 38.066406 15.027344 38.066406 14.957031 C 38.066406 14.886719 38.140625 14.8125 38.210938 14.742188 C 38.28125 14.667969 38.425781 14.667969 38.5 14.667969 L 44.609375 14.667969 C 44.683594 14.667969 44.828125 14.667969 44.828125 14.667969 C 44.898438 14.667969 44.972656 14.742188 45.042969 14.8125 C 45.042969 14.8125 45.113281 14.886719 45.113281 14.957031 C 45.113281 15.027344 45.113281 15.101562 45.113281 15.171875 L 45.113281 19.628906 C 45.113281 19.773438 45.042969 19.84375 45.042969 19.917969 C 44.972656 19.988281 44.898438 19.988281 44.828125 20.0625 C 44.757812 20.0625 44.683594 20.0625 44.609375 20.0625 "/>
<path style=" stroke:none;fill-rule:nonzero;fill:rgb(100%,100%,100%);fill-opacity:1;" d="M 52.09375 25.460938 L 47.058594 25.460938 L 47.058594 14.667969 L 52.09375 14.667969 L 52.09375 25.460938 "/>
<path style=" stroke:none;fill-rule:nonzero;fill:rgb(100%,100%,100%);fill-opacity:1;" d="M 56.914062 20.0625 L 53.242188 20.0625 C 53.171875 20.0625 53.171875 20.0625 53.101562 20.0625 C 53.027344 20.0625 52.957031 19.988281 52.957031 19.917969 C 52.882812 19.917969 52.8125 19.84375 52.8125 19.773438 C 52.8125 19.703125 52.8125 19.703125 52.8125 19.628906 L 52.8125 16.964844 C 52.8125 16.894531 52.8125 16.820312 52.8125 16.75 C 52.8125 16.535156 52.957031 16.390625 53.027344 16.171875 C 53.171875 16.03125 53.316406 15.886719 53.460938 15.742188 C 53.675781 15.667969 53.894531 15.597656 54.109375 15.597656 C 54.179688 15.527344 54.253906 15.527344 54.324219 15.527344 L 55.765625 15.527344 C 55.835938 15.527344 55.980469 15.597656 56.050781 15.597656 C 56.125 15.597656 56.195312 15.597656 56.269531 15.667969 C 56.269531 15.742188 56.339844 15.742188 56.339844 15.8125 C 56.410156 15.886719 56.410156 16.03125 56.484375 16.03125 L 57.347656 19.269531 C 57.347656 19.34375 57.347656 19.484375 57.347656 19.558594 C 57.417969 19.628906 57.347656 19.703125 57.347656 19.84375 C 57.277344 19.917969 57.203125 19.988281 57.132812 19.988281 C 57.058594 20.0625 56.988281 20.0625 56.914062 20.0625 "/>
</g>
</svg>
