<?xml version="1.0" encoding="UTF-8"?>
<svg xmlns="http://www.w3.org/2000/svg" xmlns:xlink="http://www.w3.org/1999/xlink" width="45pt" height="29pt" viewBox="0 0 45 29" version="1.1">
<g id="surface1">
<path style=" stroke:none;fill-rule:nonzero;fill:rgb(13.729858%,12.159729%,12.548828%);fill-opacity:1;" d="M 17.96875 14.648438 C 17.949219 13.691406 17.949219 10.441406 17.96875 9.695312 C 15.671875 10 11.929688 10.609375 8.4375 11.667969 C 6.746094 12.179688 5.296875 12.652344 4.457031 13.242188 C 3.253906 14.074219 2.929688 15.085938 2.808594 15.675781 C 4.15625 14.394531 5.972656 13.601562 7.972656 13.601562 C 10.210938 13.601562 12.234375 14.589844 13.605469 16.15625 L 17.96875 14.648438 M 18.960938 9.570312 C 18.953125 9.597656 18.953125 9.628906 18.953125 9.660156 C 18.90625 12 18.96875 13.632812 19 14.292969 L 19.757812 14.023438 C 19.753906 13.320312 19.738281 10.523438 19.738281 10.089844 C 19.738281 9.949219 19.761719 9.726562 19.800781 9.472656 C 19.59375 9.5 19.308594 9.523438 18.960938 9.570312 M 23.941406 7.023438 C 24.011719 6.941406 24.140625 6.933594 24.230469 7.003906 L 27.019531 9.261719 C 27.109375 9.332031 27.128906 9.460938 27.0625 9.542969 C 26.996094 9.625 26.867188 9.628906 26.78125 9.558594 L 25.695312 8.683594 C 25.582031 8.640625 25.460938 8.640625 25.375 8.777344 C 25.1875 9.078125 24.277344 10.308594 24.277344 10.308594 C 24.277344 10.308594 24.203125 10.441406 24.257812 10.566406 C 24.3125 10.695312 24.382812 10.945312 24.203125 11.117188 C 24.035156 11.269531 21.523438 13.710938 21.015625 14.160156 L 21.03125 15.660156 L 25.140625 15.660156 C 25.257812 15.292969 25.597656 14.425781 26.378906 13.289062 C 27.421875 11.773438 29.507812 9.675781 32.980469 8.863281 L 31.429688 1.101562 C 31.429688 1.101562 27.359375 1.199219 25.597656 1.332031 C 23.835938 1.46875 23.699219 1.46875 23.527344 1.515625 C 23.339844 1.570312 23.105469 1.644531 22.925781 2.085938 C 22.746094 2.515625 21.09375 5.75 20.65625 8.507812 C 20.617188 8.761719 21.457031 7.378906 21.941406 7.003906 C 22.042969 6.917969 22.21875 6.855469 22.390625 6.898438 C 22.558594 6.945312 22.71875 7.125 22.746094 7.308594 C 22.765625 7.488281 22.957031 8.558594 22.957031 8.558594 C 22.957031 8.558594 22.984375 8.878906 23.050781 8.949219 C 23.113281 9.011719 23.589844 9.683594 23.589844 9.683594 C 23.589844 9.683594 23.699219 9.75 23.792969 9.671875 C 23.882812 9.59375 25.078125 8.402344 25.078125 8.402344 C 25.078125 8.402344 25.160156 8.339844 25.125 8.222656 L 23.984375 7.304688 C 23.898438 7.234375 23.878906 7.109375 23.941406 7.023438 M 42.339844 13.203125 C 43.71875 14.828125 44.558594 16.929688 44.558594 19.222656 C 44.558594 24.367188 40.367188 28.566406 35.226562 28.566406 C 31.042969 28.566406 27.488281 25.78125 26.308594 21.964844 L 15.414062 21.964844 C 14.988281 25.695312 11.808594 28.605469 7.972656 28.605469 C 3.84375 28.605469 0.480469 25.234375 0.480469 21.101562 C 0.480469 19.164062 1.21875 17.394531 2.429688 16.058594 C 2.535156 15.449219 2.800781 14.472656 3.398438 13.757812 C 4.335938 12.632812 6.507812 12.011719 8.371094 11.386719 C 9.886719 10.882812 14.632812 9.835938 17.988281 9.378906 C 18.039062 8.625 18.226562 6.414062 19.074219 4.351562 C 20.019531 2.054688 20.539062 1.480469 20.324219 0.804688 C 20.109375 0.132812 20.816406 0.4375 20.96875 0.621094 C 21.121094 0.804688 21.488281 1.292969 21.03125 2.207031 C 20.59375 3.082031 19.152344 6.285156 18.96875 9.261719 C 19.289062 9.226562 19.585938 9.199219 19.847656 9.191406 C 19.949219 8.625 20.085938 8 20.136719 7.71875 C 20.226562 7.246094 21.222656 4.183594 21.792969 2.902344 C 22.351562 1.625 22.277344 1.792969 22.277344 1.792969 C 22.277344 1.792969 22.582031 0.644531 24.0625 0.574219 C 25.546875 0.507812 27.773438 0.304688 29.269531 0.257812 C 30.761719 0.210938 34.101562 0.296875 35.617188 0.449219 C 37.121094 0.617188 37.050781 0.554688 37.335938 1.035156 C 37.617188 1.507812 37.617188 1.507812 37.617188 1.507812 C 37.617188 1.507812 38.433594 3.472656 38.882812 4.882812 C 39.316406 6.289062 39.832031 8.492188 39.886719 8.855469 C 39.941406 9.214844 39.808594 9.457031 40.109375 9.59375 C 40.417969 9.726562 42.050781 10.375 43.035156 11.117188 C 44.023438 11.851562 44.105469 11.882812 44.132812 11.976562 C 44.167969 12.066406 44.265625 12.160156 43.902344 12.308594 C 43.566406 12.441406 42.941406 12.757812 42.339844 13.203125 M 7.972656 25.21875 C 10.234375 25.21875 12.078125 23.367188 12.078125 21.101562 C 12.078125 18.835938 10.234375 16.988281 7.972656 16.988281 C 5.710938 16.988281 3.867188 18.835938 3.867188 21.101562 C 3.867188 23.367188 5.710938 25.21875 7.972656 25.21875 M 35.226562 24.382812 C 38.070312 24.382812 40.382812 22.066406 40.382812 19.222656 C 40.382812 16.382812 38.070312 14.070312 35.226562 14.070312 C 32.390625 14.070312 30.070312 16.382812 30.070312 19.222656 C 30.070312 22.066406 32.390625 24.382812 35.226562 24.382812 M 27.90625 12.636719 C 27.90625 12.636719 30.285156 9.46875 35.203125 9.230469 C 40.125 8.992188 43.261719 11.574219 43.695312 12.050781 L 42.867188 12.492188 C 42.835938 12.511719 40.574219 9.886719 35.765625 9.75 C 32.046875 9.652344 29.253906 11.453125 28.085938 12.632812 C 27.902344 12.820312 27.90625 12.636719 27.90625 12.636719 M 32.882812 1.144531 L 34.519531 8.609375 C 34.519531 8.609375 36.019531 8.414062 38.488281 8.75 C 38.488281 8.75 38.847656 8.75 38.78125 8.308594 C 38.710938 7.867188 38.175781 4.175781 36.769531 1.679688 C 36.769531 1.679688 36.691406 1.421875 36.128906 1.351562 C 35.5625 1.285156 34.136719 1.175781 32.882812 1.144531 M 7.972656 22.625 C 8.8125 22.625 9.496094 21.9375 9.496094 21.101562 C 9.496094 20.257812 8.8125 19.578125 7.972656 19.578125 C 7.136719 19.578125 6.453125 20.257812 6.453125 21.101562 C 6.453125 21.9375 7.136719 22.625 7.972656 22.625 M 35.226562 20.746094 C 36.066406 20.746094 36.746094 20.0625 36.746094 19.222656 C 36.746094 18.382812 36.066406 17.695312 35.226562 17.695312 C 34.382812 17.695312 33.703125 18.382812 33.703125 19.222656 C 33.703125 20.0625 34.382812 20.746094 35.226562 20.746094 "/>
</g>
</svg>
