<?xml version="1.0" encoding="UTF-8" standalone="no"?>
<svg
   xmlns:dc="http://purl.org/dc/elements/1.1/"
   xmlns:cc="http://creativecommons.org/ns#"
   xmlns:rdf="http://www.w3.org/1999/02/22-rdf-syntax-ns#"
   xmlns:svg="http://www.w3.org/2000/svg"
   xmlns="http://www.w3.org/2000/svg"
   xmlns:sodipodi="http://sodipodi.sourceforge.net/DTD/sodipodi-0.dtd"
   xmlns:inkscape="http://www.inkscape.org/namespaces/inkscape"
   width="185pt"
   height="148pt"
   viewBox="0 0 185 148"
   version="1.1"
   id="svg919"
   sodipodi:docname="hotel.svg"
   inkscape:version="1.0.2 (e86c870879, 2021-01-15, custom)">
  <metadata
     id="metadata925">
    <rdf:RDF>
      <cc:Work
         rdf:about="">
        <dc:format>image/svg+xml</dc:format>
        <dc:type
           rdf:resource="http://purl.org/dc/dcmitype/StillImage" />
        <dc:title></dc:title>
      </cc:Work>
    </rdf:RDF>
  </metadata>
  <defs
     id="defs923">
    <clipPath
       clipPathUnits="userSpaceOnUse"
       id="clipPath1030">
      <rect
         style="fill:#d0ae54;fill-opacity:1;stroke-width:0.75"
         id="rect1032"
         width="180.85156"
         height="35.683399"
         x="9.3493404"
         y="-58.781593" />
    </clipPath>
    <clipPath
       clipPathUnits="userSpaceOnUse"
       id="clipPath1030-1">
      <rect
         style="fill:#d0ae54;fill-opacity:1;stroke-width:0.75"
         id="rect1032-7"
         width="180.85156"
         height="35.683399"
         x="9.3493404"
         y="-58.781593" />
    </clipPath>
    <clipPath
       clipPathUnits="userSpaceOnUse"
       id="clipPath1030-1-9">
      <rect
         style="fill:#d0ae54;fill-opacity:1;stroke-width:0.75"
         id="rect1032-7-1"
         width="180.85156"
         height="35.683399"
         x="9.3493404"
         y="-58.781593" />
    </clipPath>
    <clipPath
       clipPathUnits="userSpaceOnUse"
       id="clipPath1030-1-8">
      <rect
         style="fill:#d0ae54;fill-opacity:1;stroke-width:0.75"
         id="rect1032-7-44"
         width="180.85156"
         height="35.683399"
         x="9.3493404"
         y="-58.781593" />
    </clipPath>
  </defs>
  <sodipodi:namedview
     pagecolor="#ffffff"
     bordercolor="#666666"
     borderopacity="1"
     objecttolerance="10"
     gridtolerance="10"
     guidetolerance="10"
     inkscape:pageopacity="0"
     inkscape:pageshadow="2"
     inkscape:window-width="1920"
     inkscape:window-height="1017"
     id="namedview921"
     showgrid="false"
     inkscape:zoom="1.6454566"
     inkscape:cx="131.9994"
     inkscape:cy="123.62507"
     inkscape:window-x="5752"
     inkscape:window-y="-8"
     inkscape:window-maximized="1"
     inkscape:current-layer="svg919"
     inkscape:document-rotation="0" />
  <path
     style="fill:#723926;fill-opacity:1;fill-rule:nonzero;stroke:none;stroke-width:2.18997"
     d="M 9.349341,-173.6337 H 190.20091 v 35.68339 H 9.349341 v -35.68339 m 0,114.852108 v 35.683399 H 190.20091 V -58.781592 H 9.349341 m 0,-76.601288 v 35.698737 H 190.20091 V -135.38288 H 9.349341 m 0,38.31981 v 35.683395 H 190.20091 V -97.06307 H 9.349341 m 75.978666,-17.7804 c 0,-0.78938 -0.190986,-1.44849 -0.563379,-1.96198 -0.353292,-0.5288 -0.840271,-0.94266 -1.413193,-1.21856 -0.582466,-0.29889 -1.203132,-0.47517 -1.842898,-0.56713 v -0.0307 c 0.878483,-0.19927 1.651924,-0.5748 2.310777,-1.13427 0.677966,-0.54414 1.031258,-1.33354 1.059901,-2.33751 0,-1.21857 -0.467879,-2.17657 -1.441849,-2.82034 -0.964402,-0.65909 -2.453996,-1.00397 -4.478324,-1.00397 h -5.5955 v 15.34325 h 5.5955 c 2.024328,-0.0383 3.599853,-0.43684 4.697954,-1.22623 1.107632,-0.76639 1.671011,-1.79337 1.671011,-3.04259 m -3.561653,-7.00486 c 0,-0.66677 -0.276905,-1.20325 -0.83074,-1.6171 -0.57291,-0.41385 -1.413193,-0.62845 -2.549482,-0.62845 H 76.49549 v 4.69802 h 1.709212 c 1.193588,-0.0153 2.072071,-0.24526 2.664081,-0.68977 0.592023,-0.4445 0.897571,-1.04229 0.897571,-1.7627 m 0.401036,6.85157 c 0.02866,-0.73573 -0.267349,-1.34885 -0.811628,-1.82402 -0.572922,-0.48283 -1.432293,-0.72807 -2.635425,-0.7434 H 76.49549 v 5.1042 h 2.12936 c 1.193588,-0.007 2.072059,-0.24525 2.664081,-0.72041 0.59201,-0.47517 0.878459,-1.07296 0.878459,-1.81637 m 18.10426,4.42211 c -0.0477,-0.21459 -0.086,-0.49815 -0.11463,-0.82771 -0.0477,-0.32955 -0.0573,-0.67442 -0.0573,-1.05762 v -5.34945 c 0,-0.7434 -0.124091,-1.37185 -0.315103,-1.87 -0.219605,-0.49049 -0.506066,-0.89669 -0.878471,-1.21858 -0.353304,-0.29122 -0.859383,-0.53647 -1.565993,-0.76639 -0.71614,-0.22226 -1.623255,-0.32955 -2.740444,-0.35254 -0.973958,0.023 -1.833342,0.0996 -2.578138,0.28357 -0.754341,0.16861 -1.413206,0.3602 -1.957485,0.60545 l 0.23873,1.94664 c 0.391492,-0.29889 0.964414,-0.54413 1.671011,-0.77406 0.68751,-0.21458 1.48005,-0.32954 2.310777,-0.34487 1.059902,0 1.823798,0.22991 2.339421,0.65909 0.439248,0.44451 0.63021,1.00399 0.61111,1.7014 v 0.45985 h -1.098091 c -2.444464,0 -4.296893,0.29889 -5.566869,0.91967 -1.250863,0.60546 -1.890629,1.56344 -1.909729,2.85099 0.03812,1.07296 0.458336,1.90066 1.289063,2.43714 0.840296,0.55947 1.881086,0.84303 3.112874,0.84303 1.098089,0 1.99566,-0.14561 2.654525,-0.42918 0.687497,-0.28356 1.212676,-0.64376 1.604156,-1.08827 h 0.01906 c 0,0.16861 0.02866,0.41385 0.04772,0.70508 0.03812,0.29889 0.08597,0.52881 0.124093,0.66676 h 2.759573 m -3.036478,-4.52173 v -0.98865 c -0.133687,0 -0.267361,-0.007 -0.467879,-0.007 -0.190987,0 -0.391492,0 -0.572922,0 -3.026918,0 -4.573799,0.72041 -4.592899,2.18422 0,0.55947 0.200518,1.01165 0.620666,1.3412 0.391492,0.33721 0.983502,0.50582 1.776042,0.50582 1.079002,-0.0153 1.871542,-0.2989 2.415808,-0.83537 0.534735,-0.56713 0.792528,-1.28754 0.821184,-2.19956 m 18.753548,4.52174 c -0.0573,-0.5748 -0.10503,-1.2339 -0.10503,-2.01562 v -14.46955 h -3.05557 v 6.56035 h -0.0191 c -0.42971,-0.49818 -0.95489,-0.87371 -1.566,-1.11896 -0.62066,-0.26823 -1.38455,-0.39853 -2.34897,-0.39853 -1.61372,0.023 -2.85505,0.51349 -3.78126,1.48682 -0.92621,0.98865 -1.39411,2.42181 -1.4132,4.31481 0.0191,1.77804 0.45833,3.1882 1.36546,4.21518 0.87847,1.02697 2.17708,1.55578 3.8863,1.57111 1.09808,-0.0153 1.96701,-0.16094 2.57813,-0.47517 0.62067,-0.29889 1.07901,-0.69742 1.40365,-1.15726 h 0.0477 c 0,0.22992 0,0.51349 0.0477,0.84304 0.0191,0.31422 0.0477,0.52881 0.0573,0.64377 h 2.90279 m -3.1606,-5.656 c 0,-1.27222 -0.23873,-2.26087 -0.72571,-2.96595 -0.48697,-0.71275 -1.26042,-1.07296 -2.32987,-1.07296 -1.0599,0 -1.83335,0.35254 -2.31078,1.0423 -0.48697,0.68976 -0.70659,1.67841 -0.70659,2.94296 -0.0191,1.37185 0.2196,2.39882 0.65885,3.08858 0.46788,0.68975 1.23179,1.03464 2.32987,1.03464 1.07901,-0.0153 1.87155,-0.37555 2.35852,-1.10362 0.50609,-0.72041 0.72571,-1.70906 0.72571,-2.96595 m 18.19019,0.64377 v -0.77406 c -0.0477,-1.96197 -0.57292,-3.39513 -1.58507,-4.31481 -1.01216,-0.91201 -2.37763,-1.35652 -4.04865,-1.35652 -1.90973,0.0383 -3.38977,0.5748 -4.44012,1.64775 -1.0408,1.05763 -1.56598,2.47546 -1.58508,4.22284 0,1.11894 0.23873,2.0846 0.70659,2.94296 0.487,0.85837 1.20315,1.54046 2.17711,2.03096 0.94531,0.47516 2.1771,0.72807 3.62848,0.7434 0.92623,0 1.75697,-0.0843 2.50175,-0.21459 0.72571,-0.13029 1.34636,-0.2989 1.85245,-0.45984 l -0.16233,-1.90833 c -0.36287,0.20693 -0.87849,0.4062 -1.4896,0.60546 -0.59202,0.18394 -1.33681,0.28356 -2.19619,0.28356 -1.38455,0 -2.39671,-0.28356 -3.04602,-0.88135 -0.61111,-0.5748 -0.93577,-1.43316 -0.91667,-2.56743 h 8.60335 m -2.98874,-1.56345 c 0,-2.16123 -0.92622,-3.24951 -2.73092,-3.24951 -0.87846,0 -1.58507,0.29889 -2.09115,0.85836 -0.50608,0.55947 -0.7639,1.34886 -0.79254,2.39115 h 5.61461 m 17.72232,6.52203 v -7.53367 c 0.0191,-1.19558 -0.35331,-2.13825 -1.05036,-2.83567 -0.73524,-0.68975 -1.83333,-1.03463 -3.35158,-1.04996 -1.7856,-0.0307 -3.07466,0.51349 -3.91495,1.60943 h -0.0381 c 0,-0.16094 -0.0287,-0.40618 -0.0477,-0.72041 -0.0383,-0.32955 -0.0669,-0.5748 -0.0669,-0.7434 h -2.87415 c 0.0573,0.67443 0.10503,1.38718 0.1241,2.16123 v 9.11245 h 3.03647 v -6.67531 c 0,-0.88901 0.23872,-1.56345 0.7257,-2.07693 0.47742,-0.49049 1.21267,-0.75873 2.14844,-0.75873 0.78299,-0.007 1.35591,0.18394 1.71876,0.59779 0.3533,0.39086 0.55382,1.04229 0.55382,1.90833 v 7.00485 h 3.03647 m -58.218157,31.230651 c -0.01906,-1.663082 -0.372392,-3.011939 -1.098089,-4.069564 -0.706609,-1.049964 -1.632824,-1.83935 -2.778656,-2.391156 -0.658866,-0.32955 -1.441862,-0.590125 -2.348977,-0.766396 -0.907127,-0.206927 -2.005216,-0.298895 -3.275192,-0.298895 H 73.15323 v 15.335584 h 4.239606 c 3.351579,-0.03067 5.872418,-0.720411 7.591185,-2.084597 1.690099,-1.387176 2.549482,-3.287838 2.549482,-5.724976 m -3.342022,0 c 0.01906,-1.088284 -0.190987,-2.053945 -0.639766,-2.904642 -0.439236,-0.835371 -1.136289,-1.5098 -2.09116,-1.984966 -0.964414,-0.48283 -2.19619,-0.712748 -3.733527,-0.728077 h -1.413144 v 11.518933 h 1.413207 c 2.17709,-0.01531 3.80037,-0.544142 4.879372,-1.586441 1.050357,-1.026969 1.604167,-2.467794 1.58508,-4.314807 m 16.165867,-5.5717 v -2.306854 h -2.578096 v 2.306854 h 2.578156 m -4.822077,0 v -2.306854 h -2.568582 v 2.306854 h 2.568582 m 6.598117,13.381273 c -0.0477,-0.206925 -0.0573,-0.490493 -0.10503,-0.820042 -0.0477,-0.329551 -0.0477,-0.674429 -0.0668,-1.057627 v -5.349446 c 0,-0.743404 -0.086,-1.371847 -0.31512,-1.870004 -0.19096,-0.490494 -0.49652,-0.904348 -0.87847,-1.218571 -0.32465,-0.298895 -0.849829,-0.544141 -1.556426,-0.774061 -0.697066,-0.214588 -1.62328,-0.329549 -2.750013,-0.344878 -0.945327,0.01531 -1.804698,0.09963 -2.549495,0.283567 -0.744796,0.168612 -1.413206,0.360206 -1.976572,0.605453 l 0.23873,1.946647 c 0.420136,-0.298895 0.973958,-0.544142 1.671011,-0.774062 0.70661,-0.214589 1.470494,-0.329548 2.310777,-0.352541 1.050346,0 1.823786,0.237583 2.329865,0.666765 0.439236,0.444509 0.639766,1.00398 0.61111,1.701399 v 0.459837 h -1.098089 c -2.434895,0 -4.287337,0.298895 -5.557313,0.919675 -1.260419,0.605454 -1.890629,1.563448 -1.919285,2.850993 0.04772,1.072955 0.486979,1.900662 1.308176,2.437141 0.830727,0.559468 1.861985,0.843035 3.093761,0.843035 1.126745,0 2.005228,-0.15329 2.683169,-0.429182 0.658853,-0.283566 1.184032,-0.643773 1.58508,-1.088281 h 0.01906 c 0,0.168611 0.01906,0.413852 0.06678,0.705083 0.02866,0.298894 0.06691,0.528813 0.114624,0.6591 h 2.74046 m -3.036477,-4.514072 v -0.988651 c -0.105031,0 -0.257818,-0.0153 -0.458335,-0.0153 -0.200518,0 -0.372393,0 -0.563379,0 -3.036462,0 -4.564255,0.728076 -4.602442,2.191894 0,0.559468 0.200518,1.011642 0.611122,1.333528 0.420136,0.344877 1.012146,0.513486 1.785586,0.513486 1.079014,-0.01531 1.871529,-0.298895 2.425352,-0.835372 0.544278,-0.567133 0.802096,-1.287545 0.802096,-2.199557 m 14.342087,4.337801 v -1.716728 c -0.36286,0.145618 -0.84983,0.245247 -1.4705,0.268239 -0.52517,0.0077 -0.94531,-0.122623 -1.18403,-0.367869 -0.26737,-0.245247 -0.40105,-0.674429 -0.40105,-1.27988 v -6.246128 h 3.05558 v -1.747383 h -3.05558 v -3.004273 l -3.03647,0.689756 v 2.314517 h -2.41582 v 1.747383 h 2.41582 v 6.705963 c 0,1.065291 0.3342,1.847016 0.99306,2.306854 0.65886,0.444509 1.60417,0.674429 2.83595,0.6591 0.92622,-0.01531 1.67102,-0.130295 2.26304,-0.329551 m 10.23615,0 v -1.716728 c -0.3533,0.145618 -0.86893,0.245247 -1.45139,0.268239 -0.56338,0.0077 -0.95487,-0.122623 -1.21268,-0.367869 -0.26737,-0.245247 -0.37239,-0.674429 -0.37239,-1.27988 v -6.246128 h 3.03646 v -1.747383 h -3.03646 v -3.004273 l -3.06513,0.689756 v 2.314517 h -2.38716 v 1.747383 h 2.38716 v 6.705963 c 0,1.065291 0.33421,1.847016 0.99306,2.306854 0.65886,0.444509 1.60418,0.674429 2.8646,0.6591 0.89757,-0.01531 1.67101,-0.130295 2.24393,-0.329551 m 21.94282,-11.089749 h -2.98873 l -2.62587,9.097121 h -0.0382 l -2.73092,-9.097121 h -3.56164 l -2.68317,9.097121 h -0.0573 l -2.64494,-9.097147 h -3.1606 l 4.01998,11.266021 h 3.38023 l 2.76911,-9.143104 h 0.0477 l 2.95053,9.143104 h 3.37068 l 3.95313,-11.266021 m 6.07296,-2.276197 v -2.444803 h -3.237 v 2.444803 h 3.237 m -0.086,13.542218 v -11.266021 h -3.06513 v 11.266021 h 3.06513 m 7.80125,0 v -16.477514 h -3.05556 v 16.477514 h 3.05556 M 31.693191,-33.781467 V -49.101725 H 28.76176 v 12.124385 h -0.0087 l -7.133273,-12.124385 h -4.000888 v 15.320258 h 2.950542 v -12.009426 h 0.0087 l 7.132849,12.009426 h 3.981789 m 15.764835,-4.989239 v -0.774059 c -0.03813,-1.961975 -0.572922,-3.410464 -1.58508,-4.322476 -1.012158,-0.904346 -2.368064,-1.364184 -4.039076,-1.348857 -1.909741,0.03067 -3.389778,0.582463 -4.44968,1.632425 -1.021702,1.072955 -1.556437,2.475458 -1.585068,4.23817 0,1.10361 0.248262,2.092261 0.706597,2.950624 0.486979,0.858363 1.212676,1.517465 2.186647,2.007958 0.935758,0.498157 2.167534,0.743404 3.61894,0.758731 0.926214,-0.01531 1.756942,-0.08431 2.511295,-0.229918 0.725696,-0.130294 1.34635,-0.283566 1.842885,-0.459837 l -0.142807,-1.91599 c -0.381948,0.237582 -0.878483,0.429183 -1.499149,0.605452 -0.601566,0.183935 -1.346363,0.291232 -2.196191,0.298895 -1.394093,0 -2.406251,-0.298895 -3.036461,-0.866027 -0.620666,-0.59779 -0.954871,-1.456154 -0.926227,-2.575091 h 8.593799 m -2.988743,-1.571111 c 0,-2.153575 -0.926214,-3.241856 -2.730913,-3.241856 -0.878471,0 -1.575524,0.275903 -2.081603,0.843035 -0.515635,0.551805 -0.773453,1.371849 -0.79254,2.398821 h 5.605056 m 17.836895,6.56035 c -0.06678,-0.674428 -0.114499,-1.379515 -0.124093,-2.138246 v -9.127777 h -3.036486 v 6.682973 c 0,0.881357 -0.248274,1.571112 -0.735253,2.069271 -0.477423,0.490494 -1.20312,0.75873 -2.157991,0.774059 -0.763896,0 -1.336819,-0.206927 -1.709211,-0.597789 -0.372392,-0.40619 -0.544266,-1.034633 -0.544266,-1.915989 v -7.012525 h -3.036474 v 7.541337 c -0.02866,1.187915 0.353292,2.145909 1.050345,2.835665 0.725697,0.682094 1.823798,1.042298 3.342023,1.057627 1.785611,0.01531 3.08423,-0.528813 3.924501,-1.62476 h 0.03813 c 0,0.160941 0.01906,0.40619 0.04772,0.735741 0.03813,0.314221 0.05731,0.559468 0.05731,0.720413 h 2.883687 m 15.153714,-4.989239 v -0.774059 c -0.04772,-1.961975 -0.57291,-3.410464 -1.585068,-4.322476 -1.012158,-0.904346 -2.377621,-1.364184 -4.04862,-1.348857 -1.909741,0.03067 -3.380235,0.582463 -4.440136,1.632425 -1.031258,1.072955 -1.556437,2.475458 -1.585068,4.23817 0,1.10361 0.248249,2.092261 0.73524,2.950624 0.44878,0.858363 1.184033,1.517465 2.148447,2.007958 0.945315,0.498157 2.17709,0.743404 3.628484,0.758731 0.926227,-0.01531 1.756954,-0.08431 2.511295,-0.229918 0.725709,-0.130294 1.336819,-0.283566 1.842898,-0.459837 l -0.152787,-1.91599 c -0.372392,0.237582 -0.878471,0.429183 -1.489581,0.605452 -0.601566,0.183935 -1.346363,0.291232 -2.205734,0.298895 -1.384562,0 -2.39672,-0.298895 -3.026942,-0.866027 -0.620654,-0.59779 -0.926215,-1.456154 -0.926215,-2.575091 h 8.593787 m -2.988718,-1.571111 c 0,-2.153575 -0.926215,-3.241856 -2.730913,-3.241856 -0.878484,0 -1.585081,0.275903 -2.081616,0.843035 -0.515623,0.551805 -0.77344,1.371849 -0.79254,2.398821 h 5.605069 m 17.722308,6.529692 v -7.549001 c 0.02866,-1.20324 -0.353292,-2.138244 -1.050345,-2.835664 -0.725697,-0.689758 -1.823798,-1.034635 -3.351579,-1.049962 -1.776055,-0.03832 -3.074674,0.513484 -3.905414,1.632423 h -0.04772 c 0,-0.168611 -0.01906,-0.413854 -0.04772,-0.743406 -0.03813,-0.314222 -0.05731,-0.559468 -0.05731,-0.728075 h -2.883714 c 0.0669,0.6591 0.114624,1.387178 0.133687,2.14591 v 9.127775 h 3.02693 v -6.690637 c 0,-0.866027 0.248261,-1.563448 0.73524,-2.061604 0.486992,-0.513487 1.203132,-0.75107 2.158003,-0.77406 0.763897,0 1.327263,0.199262 1.709211,0.597788 0.372392,0.413855 0.544279,1.034635 0.544279,1.908327 v 7.020186 h 3.036461 m 15.392445,0.03067 v -7.526017 c 0.0286,-1.203242 -0.34377,-2.145909 -1.05036,-2.835665 -0.72571,-0.689758 -1.8238,-1.042299 -3.34203,-1.049965 -0.98352,0.0077 -1.75696,0.145618 -2.34897,0.421519 -0.60158,0.283566 -1.0599,0.605453 -1.394105,1.003979 h -0.03813 v -6.491377 h -3.036474 v 16.477516 h 3.036474 v -6.667646 c 0,-0.881356 0.238706,-1.571111 0.725685,-2.076934 0.48698,-0.490494 1.20313,-0.75873 2.158,-0.75873 0.7639,0 1.33681,0.199262 1.71876,0.590124 0.34375,0.398526 0.53472,1.042299 0.53472,1.915989 v 6.997197 h 3.03647 m 16.30911,-5.64834 c 0,-1.348857 -0.29601,-2.460131 -0.86893,-3.295502 -0.54427,-0.858363 -1.28907,-1.479144 -2.26303,-1.877672 -0.94532,-0.413853 -2.01476,-0.613117 -3.18925,-0.590125 -1.18403,-0.02299 -2.25348,0.176264 -3.20835,0.590125 -0.97396,0.398528 -1.71876,1.019309 -2.26303,1.877672 -0.57291,0.835371 -0.85938,1.946645 -0.85938,3.295502 0,1.364186 0.28646,2.490787 0.85938,3.341487 0.54427,0.858363 1.28907,1.486809 2.26303,1.877672 0.95487,0.398524 2.02432,0.582458 3.20835,0.582458 1.17449,0 2.24393,-0.183934 3.18925,-0.582458 0.97396,-0.390863 1.71876,-1.019309 2.26303,-1.877672 0.57291,-0.8507 0.86893,-1.977301 0.86893,-3.341487 m -3.15105,0 c 0,-1.203241 -0.21962,-2.161236 -0.7066,-2.919968 -0.48699,-0.73574 -1.31772,-1.118938 -2.46356,-1.149595 -1.15539,0.03067 -1.97656,0.413855 -2.46355,1.149595 -0.48698,0.758732 -0.71614,1.716727 -0.69704,2.919968 -0.0191,1.203241 0.21007,2.176565 0.69704,2.935297 0.48699,0.73574 1.30816,1.134267 2.46355,1.157259 1.14584,-0.02299 1.97657,-0.421519 2.46356,-1.157259 0.48698,-0.758732 0.7066,-1.732056 0.7066,-2.935297 m 14.05563,-9.081792 v -1.76271 c -0.35329,-0.06131 -0.7257,-0.130295 -1.14583,-0.160941 -0.3915,-0.05364 -0.7448,-0.09196 -1.05035,-0.09196 -1.45139,0.023 -2.49221,0.329551 -3.11287,0.912012 -0.63022,0.559469 -0.91667,1.302874 -0.88802,2.176565 v 2.391155 h -2.47311 v 1.762712 h 2.47311 v 9.503311 h 3.02693 v -9.503313 h 2.73092 v -1.762726 h -2.73092 v -2.145909 c -0.0191,-1.026972 0.57291,-1.532792 1.7665,-1.548119 0.19099,0 0.41058,0.03064 0.67794,0.06131 0.28648,0.05364 0.52518,0.09963 0.7257,0.168612 m -24.20588,-107.103852 2.22483,4.1462 c 0.13369,0.28357 0.54427,0.88902 0.21961,1.28755 -0.40105,0.4675 -1.35591,0.42918 -1.99567,0.42918 l -5.20402,0.007 c 0.69705,2.11525 3.24654,3.68637 6.28302,3.68637 3.56163,0 6.46443,-2.1689 6.46443,-4.84363 0,-2.67472 -2.9028,-4.85128 -6.46443,-4.85128 -0.52519,0 -1.04081,0.0536 -1.52779,0.13795 m -5.50956,-5.15783 H 90.598859 l -0.496536,1.31054 10.837717,8.20043 4.14412,-9.51097 m 3.37068,4.33013 -1.99568,-3.54841 -3.95314,8.99749 h 1.40365 c 0.0477,-2.38349 1.88109,-4.4451 4.54517,-5.44908 m -19.956684,0.96566 -1.728311,4.69035 c -0.105031,0.2529 -0.429692,0.59778 -1.088546,0.45216 -0.668409,-0.13794 -0.611122,-0.57479 -0.515635,-0.80471 l 1.747411,-4.6367 c -0.267361,-0.0306 -0.534722,-0.0383 -0.802096,-0.0383 -3.571197,0 -6.473984,2.16124 -6.473984,4.83596 0,2.67472 2.902787,4.84362 6.473984,4.84362 3.561653,0 6.464452,-2.1689 6.464452,-4.84362 0,-2.03861 -1.690124,-3.786 -4.077275,-4.49875 m 21.484464,-1.36418 -2.77866,-5.09653 0.53472,-1.11894 h 1.25088 v -1.21857 h -5.18492 v 0.79705 l 2.31078,0.42152 -0.51564,1.11894 H 91.028538 l 0.544279,-1.3182 c 0.124093,-0.32956 0.229174,-0.60546 0.553822,-0.82005 0.324649,-0.19926 0.926227,-0.19926 1.40365,-0.19926 h 2.444464 v -1.2109 h -3.04603 c -0.926214,0 -1.718755,0.23758 -2.205734,0.60545 -0.410592,0.30655 -0.649309,0.84304 -0.81164,1.27988 l -2.482651,6.52969 c -0.439236,-0.0537 -0.849828,-0.092 -1.298619,-0.092 -4.554711,0 -8.259582,2.77436 -8.259582,6.18483 0,3.41045 3.704871,6.19247 8.259582,6.19247 4.554711,0 8.259594,-2.78202 8.259594,-6.19247 0,-2.6594 -2.301221,-4.88195 -5.433182,-5.77097 l 0.563366,-1.35652 10.140667,7.61031 c 0.343746,0.24525 0.725696,0.49049 1.184036,0.60545 0.42969,0.1303 0.97397,0.1303 1.40365,0.1303 l 1.8047,0.007 c 0.71615,2.85865 4.07727,5.02755 8.10681,5.02755 4.5547,0 8.25004,-2.76668 8.25004,-6.17715 0,-3.41046 -3.69534,-6.18481 -8.25004,-6.18481 -0.75435,0 -1.48005,0.10729 -2.1771,0.24525 m -0.90712,1.65541 c -2.03387,0.82771 -3.38978,2.34517 -3.38978,4.19218 h 5.58597 l -2.19619,-4.19219 m -79.435281,50.63579 h 9.290852 l -1.241332,-13.45791 10.809077,2.02327 c 0.09556,0.023 0.200518,0.0306 0.305561,0.0306 0.687509,0 1.231776,-0.42151 1.231776,-0.935 0,-0.22991 -0.105031,-0.43684 -0.296005,-0.59778 l -14.513961,-12.69025 c -0.229173,-0.19927 -0.563378,-0.32955 -0.945314,-0.32955 -0.372405,0 -0.716153,0.13029 -0.945327,0.32955 l -14.513948,12.69152 c -0.18143,0.16094 -0.296005,0.36787 -0.296005,0.59779 0,0.51348 0.553823,0.935 1.24132,0.935 0.09556,0 0.200518,-0.0153 0.296005,-0.0306 l 10.809089,-2.02329 -1.231788,13.45792 m 20.395934,28.808831 v -6.966539 l -17.961026,0.927339 2.702269,-8.100806 c 0.02866,-0.06899 0.03813,-0.145617 0.03813,-0.222259 0,-0.513479 -0.553823,-0.935002 -1.231776,-0.935002 -0.305561,0 -0.592022,0.09196 -0.81164,0.229924 l -16.92978,10.875157 c -0.267362,0.176263 -0.439236,0.429181 -0.439236,0.705083 0,0.283567 0.171874,0.536477 0.439236,0.705085 L 32.772098,-67.6409 c 0.219617,0.137946 0.506078,0.222254 0.81164,0.222254 0.677953,0 1.231775,-0.413853 1.231775,-0.927339 0,-0.07663 -0.0087,-0.153289 -0.03813,-0.22992 l -2.702269,-8.100806 17.961026,0.935004 m 98.42756,38.281483 17.96103,-0.92734 -2.70227,8.100807 c -0.0287,0.07663 -0.0383,0.153269 -0.0383,0.229917 0,0.513486 0.55382,0.927339 1.23177,0.927339 0.30556,0 0.59203,-0.08431 0.81164,-0.222254 l 16.92977,-10.882823 c 0.26736,-0.168613 0.43925,-0.421519 0.43925,-0.705085 0,-0.283566 -0.17189,-0.536478 -0.43925,-0.705085 L 165.72765,-52.5278 c -0.21961,-0.137947 -0.50608,-0.222255 -0.81163,-0.222255 -0.67796,0 -1.23179,0.421517 -1.23179,0.927339 0,0.08431 0.009,0.160941 0.0383,0.229918 l 2.70227,8.100807 -17.96102,-0.927341 v 6.958879"
     id="path1002"
     clip-path="url(#clipPath1030)"
     transform="matrix(1.0127992,0,0,1,-6.8770218,62.23118)" />
  <path
     style="fill:#723926;fill-opacity:1;fill-rule:nonzero;stroke:none;stroke-width:2.18997"
     d="M 9.349341,-173.6337 H 190.20091 v 35.68339 H 9.349341 v -35.68339 m 0,114.852108 v 35.683399 H 190.20091 V -58.781592 H 9.349341 m 0,-76.601288 v 35.698737 H 190.20091 V -135.38288 H 9.349341 m 0,38.31981 v 35.683395 H 190.20091 V -97.06307 H 9.349341 m 75.978666,-17.7804 c 0,-0.78938 -0.190986,-1.44849 -0.563379,-1.96198 -0.353292,-0.5288 -0.840271,-0.94266 -1.413193,-1.21856 -0.582466,-0.29889 -1.203132,-0.47517 -1.842898,-0.56713 v -0.0307 c 0.878483,-0.19927 1.651924,-0.5748 2.310777,-1.13427 0.677966,-0.54414 1.031258,-1.33354 1.059901,-2.33751 0,-1.21857 -0.467879,-2.17657 -1.441849,-2.82034 -0.964402,-0.65909 -2.453996,-1.00397 -4.478324,-1.00397 h -5.5955 v 15.34325 h 5.5955 c 2.024328,-0.0383 3.599853,-0.43684 4.697954,-1.22623 1.107632,-0.76639 1.671011,-1.79337 1.671011,-3.04259 m -3.561653,-7.00486 c 0,-0.66677 -0.276905,-1.20325 -0.83074,-1.6171 -0.57291,-0.41385 -1.413193,-0.62845 -2.549482,-0.62845 H 76.49549 v 4.69802 h 1.709212 c 1.193588,-0.0153 2.072071,-0.24526 2.664081,-0.68977 0.592023,-0.4445 0.897571,-1.04229 0.897571,-1.7627 m 0.401036,6.85157 c 0.02866,-0.73573 -0.267349,-1.34885 -0.811628,-1.82402 -0.572922,-0.48283 -1.432293,-0.72807 -2.635425,-0.7434 H 76.49549 v 5.1042 h 2.12936 c 1.193588,-0.007 2.072059,-0.24525 2.664081,-0.72041 0.59201,-0.47517 0.878459,-1.07296 0.878459,-1.81637 m 18.10426,4.42211 c -0.0477,-0.21459 -0.086,-0.49815 -0.11463,-0.82771 -0.0477,-0.32955 -0.0573,-0.67442 -0.0573,-1.05762 v -5.34945 c 0,-0.7434 -0.124091,-1.37185 -0.315103,-1.87 -0.219605,-0.49049 -0.506066,-0.89669 -0.878471,-1.21858 -0.353304,-0.29122 -0.859383,-0.53647 -1.565993,-0.76639 -0.71614,-0.22226 -1.623255,-0.32955 -2.740444,-0.35254 -0.973958,0.023 -1.833342,0.0996 -2.578138,0.28357 -0.754341,0.16861 -1.413206,0.3602 -1.957485,0.60545 l 0.23873,1.94664 c 0.391492,-0.29889 0.964414,-0.54413 1.671011,-0.77406 0.68751,-0.21458 1.48005,-0.32954 2.310777,-0.34487 1.059902,0 1.823798,0.22991 2.339421,0.65909 0.439248,0.44451 0.63021,1.00399 0.61111,1.7014 v 0.45985 h -1.098091 c -2.444464,0 -4.296893,0.29889 -5.566869,0.91967 -1.250863,0.60546 -1.890629,1.56344 -1.909729,2.85099 0.03812,1.07296 0.458336,1.90066 1.289063,2.43714 0.840296,0.55947 1.881086,0.84303 3.112874,0.84303 1.098089,0 1.99566,-0.14561 2.654525,-0.42918 0.687497,-0.28356 1.212676,-0.64376 1.604156,-1.08827 h 0.01906 c 0,0.16861 0.02866,0.41385 0.04772,0.70508 0.03812,0.29889 0.08597,0.52881 0.124093,0.66676 h 2.759573 m -3.036478,-4.52173 v -0.98865 c -0.133687,0 -0.267361,-0.007 -0.467879,-0.007 -0.190987,0 -0.391492,0 -0.572922,0 -3.026918,0 -4.573799,0.72041 -4.592899,2.18422 0,0.55947 0.200518,1.01165 0.620666,1.3412 0.391492,0.33721 0.983502,0.50582 1.776042,0.50582 1.079002,-0.0153 1.871542,-0.2989 2.415808,-0.83537 0.534735,-0.56713 0.792528,-1.28754 0.821184,-2.19956 m 18.753548,4.52174 c -0.0573,-0.5748 -0.10503,-1.2339 -0.10503,-2.01562 v -14.46955 h -3.05557 v 6.56035 h -0.0191 c -0.42971,-0.49818 -0.95489,-0.87371 -1.566,-1.11896 -0.62066,-0.26823 -1.38455,-0.39853 -2.34897,-0.39853 -1.61372,0.023 -2.85505,0.51349 -3.78126,1.48682 -0.92621,0.98865 -1.39411,2.42181 -1.4132,4.31481 0.0191,1.77804 0.45833,3.1882 1.36546,4.21518 0.87847,1.02697 2.17708,1.55578 3.8863,1.57111 1.09808,-0.0153 1.96701,-0.16094 2.57813,-0.47517 0.62067,-0.29889 1.07901,-0.69742 1.40365,-1.15726 h 0.0477 c 0,0.22992 0,0.51349 0.0477,0.84304 0.0191,0.31422 0.0477,0.52881 0.0573,0.64377 h 2.90279 m -3.1606,-5.656 c 0,-1.27222 -0.23873,-2.26087 -0.72571,-2.96595 -0.48697,-0.71275 -1.26042,-1.07296 -2.32987,-1.07296 -1.0599,0 -1.83335,0.35254 -2.31078,1.0423 -0.48697,0.68976 -0.70659,1.67841 -0.70659,2.94296 -0.0191,1.37185 0.2196,2.39882 0.65885,3.08858 0.46788,0.68975 1.23179,1.03464 2.32987,1.03464 1.07901,-0.0153 1.87155,-0.37555 2.35852,-1.10362 0.50609,-0.72041 0.72571,-1.70906 0.72571,-2.96595 m 18.19019,0.64377 v -0.77406 c -0.0477,-1.96197 -0.57292,-3.39513 -1.58507,-4.31481 -1.01216,-0.91201 -2.37763,-1.35652 -4.04865,-1.35652 -1.90973,0.0383 -3.38977,0.5748 -4.44012,1.64775 -1.0408,1.05763 -1.56598,2.47546 -1.58508,4.22284 0,1.11894 0.23873,2.0846 0.70659,2.94296 0.487,0.85837 1.20315,1.54046 2.17711,2.03096 0.94531,0.47516 2.1771,0.72807 3.62848,0.7434 0.92623,0 1.75697,-0.0843 2.50175,-0.21459 0.72571,-0.13029 1.34636,-0.2989 1.85245,-0.45984 l -0.16233,-1.90833 c -0.36287,0.20693 -0.87849,0.4062 -1.4896,0.60546 -0.59202,0.18394 -1.33681,0.28356 -2.19619,0.28356 -1.38455,0 -2.39671,-0.28356 -3.04602,-0.88135 -0.61111,-0.5748 -0.93577,-1.43316 -0.91667,-2.56743 h 8.60335 m -2.98874,-1.56345 c 0,-2.16123 -0.92622,-3.24951 -2.73092,-3.24951 -0.87846,0 -1.58507,0.29889 -2.09115,0.85836 -0.50608,0.55947 -0.7639,1.34886 -0.79254,2.39115 h 5.61461 m 17.72232,6.52203 v -7.53367 c 0.0191,-1.19558 -0.35331,-2.13825 -1.05036,-2.83567 -0.73524,-0.68975 -1.83333,-1.03463 -3.35158,-1.04996 -1.7856,-0.0307 -3.07466,0.51349 -3.91495,1.60943 h -0.0381 c 0,-0.16094 -0.0287,-0.40618 -0.0477,-0.72041 -0.0383,-0.32955 -0.0669,-0.5748 -0.0669,-0.7434 h -2.87415 c 0.0573,0.67443 0.10503,1.38718 0.1241,2.16123 v 9.11245 h 3.03647 v -6.67531 c 0,-0.88901 0.23872,-1.56345 0.7257,-2.07693 0.47742,-0.49049 1.21267,-0.75873 2.14844,-0.75873 0.78299,-0.007 1.35591,0.18394 1.71876,0.59779 0.3533,0.39086 0.55382,1.04229 0.55382,1.90833 v 7.00485 h 3.03647 m -58.218157,31.230651 c -0.01906,-1.663082 -0.372392,-3.011939 -1.098089,-4.069564 -0.706609,-1.049964 -1.632824,-1.83935 -2.778656,-2.391156 -0.658866,-0.32955 -1.441862,-0.590125 -2.348977,-0.766396 -0.907127,-0.206927 -2.005216,-0.298895 -3.275192,-0.298895 H 73.15323 v 15.335584 h 4.239606 c 3.351579,-0.03067 5.872418,-0.720411 7.591185,-2.084597 1.690099,-1.387176 2.549482,-3.287838 2.549482,-5.724976 m -3.342022,0 c 0.01906,-1.088284 -0.190987,-2.053945 -0.639766,-2.904642 -0.439236,-0.835371 -1.136289,-1.5098 -2.09116,-1.984966 -0.964414,-0.48283 -2.19619,-0.712748 -3.733527,-0.728077 h -1.413144 v 11.518933 h 1.413207 c 2.17709,-0.01531 3.80037,-0.544142 4.879372,-1.586441 1.050357,-1.026969 1.604167,-2.467794 1.58508,-4.314807 m 16.165867,-5.5717 v -2.306854 h -2.578096 v 2.306854 h 2.578156 m -4.822077,0 v -2.306854 h -2.568582 v 2.306854 h 2.568582 m 6.598117,13.381273 c -0.0477,-0.206925 -0.0573,-0.490493 -0.10503,-0.820042 -0.0477,-0.329551 -0.0477,-0.674429 -0.0668,-1.057627 v -5.349446 c 0,-0.743404 -0.086,-1.371847 -0.31512,-1.870004 -0.19096,-0.490494 -0.49652,-0.904348 -0.87847,-1.218571 -0.32465,-0.298895 -0.849829,-0.544141 -1.556426,-0.774061 -0.697066,-0.214588 -1.62328,-0.329549 -2.750013,-0.344878 -0.945327,0.01531 -1.804698,0.09963 -2.549495,0.283567 -0.744796,0.168612 -1.413206,0.360206 -1.976572,0.605453 l 0.23873,1.946647 c 0.420136,-0.298895 0.973958,-0.544142 1.671011,-0.774062 0.70661,-0.214589 1.470494,-0.329548 2.310777,-0.352541 1.050346,0 1.823786,0.237583 2.329865,0.666765 0.439236,0.444509 0.639766,1.00398 0.61111,1.701399 v 0.459837 h -1.098089 c -2.434895,0 -4.287337,0.298895 -5.557313,0.919675 -1.260419,0.605454 -1.890629,1.563448 -1.919285,2.850993 0.04772,1.072955 0.486979,1.900662 1.308176,2.437141 0.830727,0.559468 1.861985,0.843035 3.093761,0.843035 1.126745,0 2.005228,-0.15329 2.683169,-0.429182 0.658853,-0.283566 1.184032,-0.643773 1.58508,-1.088281 h 0.01906 c 0,0.168611 0.01906,0.413852 0.06678,0.705083 0.02866,0.298894 0.06691,0.528813 0.114624,0.6591 h 2.74046 m -3.036477,-4.514072 v -0.988651 c -0.105031,0 -0.257818,-0.0153 -0.458335,-0.0153 -0.200518,0 -0.372393,0 -0.563379,0 -3.036462,0 -4.564255,0.728076 -4.602442,2.191894 0,0.559468 0.200518,1.011642 0.611122,1.333528 0.420136,0.344877 1.012146,0.513486 1.785586,0.513486 1.079014,-0.01531 1.871529,-0.298895 2.425352,-0.835372 0.544278,-0.567133 0.802096,-1.287545 0.802096,-2.199557 m 14.342087,4.337801 v -1.716728 c -0.36286,0.145618 -0.84983,0.245247 -1.4705,0.268239 -0.52517,0.0077 -0.94531,-0.122623 -1.18403,-0.367869 -0.26737,-0.245247 -0.40105,-0.674429 -0.40105,-1.27988 v -6.246128 h 3.05558 v -1.747383 h -3.05558 v -3.004273 l -3.03647,0.689756 v 2.314517 h -2.41582 v 1.747383 h 2.41582 v 6.705963 c 0,1.065291 0.3342,1.847016 0.99306,2.306854 0.65886,0.444509 1.60417,0.674429 2.83595,0.6591 0.92622,-0.01531 1.67102,-0.130295 2.26304,-0.329551 m 10.23615,0 v -1.716728 c -0.3533,0.145618 -0.86893,0.245247 -1.45139,0.268239 -0.56338,0.0077 -0.95487,-0.122623 -1.21268,-0.367869 -0.26737,-0.245247 -0.37239,-0.674429 -0.37239,-1.27988 v -6.246128 h 3.03646 v -1.747383 h -3.03646 v -3.004273 l -3.06513,0.689756 v 2.314517 h -2.38716 v 1.747383 h 2.38716 v 6.705963 c 0,1.065291 0.33421,1.847016 0.99306,2.306854 0.65886,0.444509 1.60418,0.674429 2.8646,0.6591 0.89757,-0.01531 1.67101,-0.130295 2.24393,-0.329551 m 21.94282,-11.089749 h -2.98873 l -2.62587,9.097121 h -0.0382 l -2.73092,-9.097121 h -3.56164 l -2.68317,9.097121 h -0.0573 l -2.64494,-9.097147 h -3.1606 l 4.01998,11.266021 h 3.38023 l 2.76911,-9.143104 h 0.0477 l 2.95053,9.143104 h 3.37068 l 3.95313,-11.266021 m 6.07296,-2.276197 v -2.444803 h -3.237 v 2.444803 h 3.237 m -0.086,13.542218 v -11.266021 h -3.06513 v 11.266021 h 3.06513 m 7.80125,0 v -16.477514 h -3.05556 v 16.477514 h 3.05556 M 31.693191,-33.781467 V -49.101725 H 28.76176 v 12.124385 h -0.0087 l -7.133273,-12.124385 h -4.000888 v 15.320258 h 2.950542 v -12.009426 h 0.0087 l 7.132849,12.009426 h 3.981789 m 15.764835,-4.989239 v -0.774059 c -0.03813,-1.961975 -0.572922,-3.410464 -1.58508,-4.322476 -1.012158,-0.904346 -2.368064,-1.364184 -4.039076,-1.348857 -1.909741,0.03067 -3.389778,0.582463 -4.44968,1.632425 -1.021702,1.072955 -1.556437,2.475458 -1.585068,4.23817 0,1.10361 0.248262,2.092261 0.706597,2.950624 0.486979,0.858363 1.212676,1.517465 2.186647,2.007958 0.935758,0.498157 2.167534,0.743404 3.61894,0.758731 0.926214,-0.01531 1.756942,-0.08431 2.511295,-0.229918 0.725696,-0.130294 1.34635,-0.283566 1.842885,-0.459837 l -0.142807,-1.91599 c -0.381948,0.237582 -0.878483,0.429183 -1.499149,0.605452 -0.601566,0.183935 -1.346363,0.291232 -2.196191,0.298895 -1.394093,0 -2.406251,-0.298895 -3.036461,-0.866027 -0.620666,-0.59779 -0.954871,-1.456154 -0.926227,-2.575091 h 8.593799 m -2.988743,-1.571111 c 0,-2.153575 -0.926214,-3.241856 -2.730913,-3.241856 -0.878471,0 -1.575524,0.275903 -2.081603,0.843035 -0.515635,0.551805 -0.773453,1.371849 -0.79254,2.398821 h 5.605056 m 17.836895,6.56035 c -0.06678,-0.674428 -0.114499,-1.379515 -0.124093,-2.138246 v -9.127777 h -3.036486 v 6.682973 c 0,0.881357 -0.248274,1.571112 -0.735253,2.069271 -0.477423,0.490494 -1.20312,0.75873 -2.157991,0.774059 -0.763896,0 -1.336819,-0.206927 -1.709211,-0.597789 -0.372392,-0.40619 -0.544266,-1.034633 -0.544266,-1.915989 v -7.012525 h -3.036474 v 7.541337 c -0.02866,1.187915 0.353292,2.145909 1.050345,2.835665 0.725697,0.682094 1.823798,1.042298 3.342023,1.057627 1.785611,0.01531 3.08423,-0.528813 3.924501,-1.62476 h 0.03813 c 0,0.160941 0.01906,0.40619 0.04772,0.735741 0.03813,0.314221 0.05731,0.559468 0.05731,0.720413 h 2.883687 m 15.153714,-4.989239 v -0.774059 c -0.04772,-1.961975 -0.57291,-3.410464 -1.585068,-4.322476 -1.012158,-0.904346 -2.377621,-1.364184 -4.04862,-1.348857 -1.909741,0.03067 -3.380235,0.582463 -4.440136,1.632425 -1.031258,1.072955 -1.556437,2.475458 -1.585068,4.23817 0,1.10361 0.248249,2.092261 0.73524,2.950624 0.44878,0.858363 1.184033,1.517465 2.148447,2.007958 0.945315,0.498157 2.17709,0.743404 3.628484,0.758731 0.926227,-0.01531 1.756954,-0.08431 2.511295,-0.229918 0.725709,-0.130294 1.336819,-0.283566 1.842898,-0.459837 l -0.152787,-1.91599 c -0.372392,0.237582 -0.878471,0.429183 -1.489581,0.605452 -0.601566,0.183935 -1.346363,0.291232 -2.205734,0.298895 -1.384562,0 -2.39672,-0.298895 -3.026942,-0.866027 -0.620654,-0.59779 -0.926215,-1.456154 -0.926215,-2.575091 h 8.593787 m -2.988718,-1.571111 c 0,-2.153575 -0.926215,-3.241856 -2.730913,-3.241856 -0.878484,0 -1.585081,0.275903 -2.081616,0.843035 -0.515623,0.551805 -0.77344,1.371849 -0.79254,2.398821 h 5.605069 m 17.722308,6.529692 v -7.549001 c 0.02866,-1.20324 -0.353292,-2.138244 -1.050345,-2.835664 -0.725697,-0.689758 -1.823798,-1.034635 -3.351579,-1.049962 -1.776055,-0.03832 -3.074674,0.513484 -3.905414,1.632423 h -0.04772 c 0,-0.168611 -0.01906,-0.413854 -0.04772,-0.743406 -0.03813,-0.314222 -0.05731,-0.559468 -0.05731,-0.728075 h -2.883714 c 0.0669,0.6591 0.114624,1.387178 0.133687,2.14591 v 9.127775 h 3.02693 v -6.690637 c 0,-0.866027 0.248261,-1.563448 0.73524,-2.061604 0.486992,-0.513487 1.203132,-0.75107 2.158003,-0.77406 0.763897,0 1.327263,0.199262 1.709211,0.597788 0.372392,0.413855 0.544279,1.034635 0.544279,1.908327 v 7.020186 h 3.036461 m 15.392445,0.03067 v -7.526017 c 0.0286,-1.203242 -0.34377,-2.145909 -1.05036,-2.835665 -0.72571,-0.689758 -1.8238,-1.042299 -3.34203,-1.049965 -0.98352,0.0077 -1.75696,0.145618 -2.34897,0.421519 -0.60158,0.283566 -1.0599,0.605453 -1.394105,1.003979 h -0.03813 v -6.491377 h -3.036474 v 16.477516 h 3.036474 v -6.667646 c 0,-0.881356 0.238706,-1.571111 0.725685,-2.076934 0.48698,-0.490494 1.20313,-0.75873 2.158,-0.75873 0.7639,0 1.33681,0.199262 1.71876,0.590124 0.34375,0.398526 0.53472,1.042299 0.53472,1.915989 v 6.997197 h 3.03647 m 16.30911,-5.64834 c 0,-1.348857 -0.29601,-2.460131 -0.86893,-3.295502 -0.54427,-0.858363 -1.28907,-1.479144 -2.26303,-1.877672 -0.94532,-0.413853 -2.01476,-0.613117 -3.18925,-0.590125 -1.18403,-0.02299 -2.25348,0.176264 -3.20835,0.590125 -0.97396,0.398528 -1.71876,1.019309 -2.26303,1.877672 -0.57291,0.835371 -0.85938,1.946645 -0.85938,3.295502 0,1.364186 0.28646,2.490787 0.85938,3.341487 0.54427,0.858363 1.28907,1.486809 2.26303,1.877672 0.95487,0.398524 2.02432,0.582458 3.20835,0.582458 1.17449,0 2.24393,-0.183934 3.18925,-0.582458 0.97396,-0.390863 1.71876,-1.019309 2.26303,-1.877672 0.57291,-0.8507 0.86893,-1.977301 0.86893,-3.341487 m -3.15105,0 c 0,-1.203241 -0.21962,-2.161236 -0.7066,-2.919968 -0.48699,-0.73574 -1.31772,-1.118938 -2.46356,-1.149595 -1.15539,0.03067 -1.97656,0.413855 -2.46355,1.149595 -0.48698,0.758732 -0.71614,1.716727 -0.69704,2.919968 -0.0191,1.203241 0.21007,2.176565 0.69704,2.935297 0.48699,0.73574 1.30816,1.134267 2.46355,1.157259 1.14584,-0.02299 1.97657,-0.421519 2.46356,-1.157259 0.48698,-0.758732 0.7066,-1.732056 0.7066,-2.935297 m 14.05563,-9.081792 v -1.76271 c -0.35329,-0.06131 -0.7257,-0.130295 -1.14583,-0.160941 -0.3915,-0.05364 -0.7448,-0.09196 -1.05035,-0.09196 -1.45139,0.023 -2.49221,0.329551 -3.11287,0.912012 -0.63022,0.559469 -0.91667,1.302874 -0.88802,2.176565 v 2.391155 h -2.47311 v 1.762712 h 2.47311 v 9.503311 h 3.02693 v -9.503313 h 2.73092 v -1.762726 h -2.73092 v -2.145909 c -0.0191,-1.026972 0.57291,-1.532792 1.7665,-1.548119 0.19099,0 0.41058,0.03064 0.67794,0.06131 0.28648,0.05364 0.52518,0.09963 0.7257,0.168612 m -24.20588,-107.103852 2.22483,4.1462 c 0.13369,0.28357 0.54427,0.88902 0.21961,1.28755 -0.40105,0.4675 -1.35591,0.42918 -1.99567,0.42918 l -5.20402,0.007 c 0.69705,2.11525 3.24654,3.68637 6.28302,3.68637 3.56163,0 6.46443,-2.1689 6.46443,-4.84363 0,-2.67472 -2.9028,-4.85128 -6.46443,-4.85128 -0.52519,0 -1.04081,0.0536 -1.52779,0.13795 m -5.50956,-5.15783 H 90.598859 l -0.496536,1.31054 10.837717,8.20043 4.14412,-9.51097 m 3.37068,4.33013 -1.99568,-3.54841 -3.95314,8.99749 h 1.40365 c 0.0477,-2.38349 1.88109,-4.4451 4.54517,-5.44908 m -19.956684,0.96566 -1.728311,4.69035 c -0.105031,0.2529 -0.429692,0.59778 -1.088546,0.45216 -0.668409,-0.13794 -0.611122,-0.57479 -0.515635,-0.80471 l 1.747411,-4.6367 c -0.267361,-0.0306 -0.534722,-0.0383 -0.802096,-0.0383 -3.571197,0 -6.473984,2.16124 -6.473984,4.83596 0,2.67472 2.902787,4.84362 6.473984,4.84362 3.561653,0 6.464452,-2.1689 6.464452,-4.84362 0,-2.03861 -1.690124,-3.786 -4.077275,-4.49875 m 21.484464,-1.36418 -2.77866,-5.09653 0.53472,-1.11894 h 1.25088 v -1.21857 h -5.18492 v 0.79705 l 2.31078,0.42152 -0.51564,1.11894 H 91.028538 l 0.544279,-1.3182 c 0.124093,-0.32956 0.229174,-0.60546 0.553822,-0.82005 0.324649,-0.19926 0.926227,-0.19926 1.40365,-0.19926 h 2.444464 v -1.2109 h -3.04603 c -0.926214,0 -1.718755,0.23758 -2.205734,0.60545 -0.410592,0.30655 -0.649309,0.84304 -0.81164,1.27988 l -2.482651,6.52969 c -0.439236,-0.0537 -0.849828,-0.092 -1.298619,-0.092 -4.554711,0 -8.259582,2.77436 -8.259582,6.18483 0,3.41045 3.704871,6.19247 8.259582,6.19247 4.554711,0 8.259594,-2.78202 8.259594,-6.19247 0,-2.6594 -2.301221,-4.88195 -5.433182,-5.77097 l 0.563366,-1.35652 10.140667,7.61031 c 0.343746,0.24525 0.725696,0.49049 1.184036,0.60545 0.42969,0.1303 0.97397,0.1303 1.40365,0.1303 l 1.8047,0.007 c 0.71615,2.85865 4.07727,5.02755 8.10681,5.02755 4.5547,0 8.25004,-2.76668 8.25004,-6.17715 0,-3.41046 -3.69534,-6.18481 -8.25004,-6.18481 -0.75435,0 -1.48005,0.10729 -2.1771,0.24525 m -0.90712,1.65541 c -2.03387,0.82771 -3.38978,2.34517 -3.38978,4.19218 h 5.58597 l -2.19619,-4.19219 m -79.435281,50.63579 h 9.290852 l -1.241332,-13.45791 10.809077,2.02327 c 0.09556,0.023 0.200518,0.0306 0.305561,0.0306 0.687509,0 1.231776,-0.42151 1.231776,-0.935 0,-0.22991 -0.105031,-0.43684 -0.296005,-0.59778 l -14.513961,-12.69025 c -0.229173,-0.19927 -0.563378,-0.32955 -0.945314,-0.32955 -0.372405,0 -0.716153,0.13029 -0.945327,0.32955 l -14.513948,12.69152 c -0.18143,0.16094 -0.296005,0.36787 -0.296005,0.59779 0,0.51348 0.553823,0.935 1.24132,0.935 0.09556,0 0.200518,-0.0153 0.296005,-0.0306 l 10.809089,-2.02329 -1.231788,13.45792 m 20.395934,28.808831 v -6.966539 l -17.961026,0.927339 2.702269,-8.100806 c 0.02866,-0.06899 0.03813,-0.145617 0.03813,-0.222259 0,-0.513479 -0.553823,-0.935002 -1.231776,-0.935002 -0.305561,0 -0.592022,0.09196 -0.81164,0.229924 l -16.92978,10.875157 c -0.267362,0.176263 -0.439236,0.429181 -0.439236,0.705083 0,0.283567 0.171874,0.536477 0.439236,0.705085 L 32.772098,-67.6409 c 0.219617,0.137946 0.506078,0.222254 0.81164,0.222254 0.677953,0 1.231775,-0.413853 1.231775,-0.927339 0,-0.07663 -0.0087,-0.153289 -0.03813,-0.22992 l -2.702269,-8.100806 17.961026,0.935004 m 98.42756,38.281483 17.96103,-0.92734 -2.70227,8.100807 c -0.0287,0.07663 -0.0383,0.153269 -0.0383,0.229917 0,0.513486 0.55382,0.927339 1.23177,0.927339 0.30556,0 0.59203,-0.08431 0.81164,-0.222254 l 16.92977,-10.882823 c 0.26736,-0.168613 0.43925,-0.421519 0.43925,-0.705085 0,-0.283566 -0.17189,-0.536478 -0.43925,-0.705085 L 165.72765,-52.5278 c -0.21961,-0.137947 -0.50608,-0.222255 -0.81163,-0.222255 -0.67796,0 -1.23179,0.421517 -1.23179,0.927339 0,0.08431 0.009,0.160941 0.0383,0.229918 l 2.70227,8.100807 -17.96102,-0.927341 v 6.958879"
     id="path1002-3"
     clip-path="url(#clipPath1030-1)"
     transform="matrix(1.0130914,0,0,0.99187956,-6.9326188,97.43724)" />
  <path
     style="fill:#723926;fill-opacity:1;fill-rule:nonzero;stroke:none;stroke-width:2.18997"
     d="M 9.349341,-173.6337 H 190.20091 v 35.68339 H 9.349341 v -35.68339 m 0,114.852108 v 35.683399 H 190.20091 V -58.781592 H 9.349341 m 0,-76.601288 v 35.698737 H 190.20091 V -135.38288 H 9.349341 m 0,38.31981 v 35.683395 H 190.20091 V -97.06307 H 9.349341 m 75.978666,-17.7804 c 0,-0.78938 -0.190986,-1.44849 -0.563379,-1.96198 -0.353292,-0.5288 -0.840271,-0.94266 -1.413193,-1.21856 -0.582466,-0.29889 -1.203132,-0.47517 -1.842898,-0.56713 v -0.0307 c 0.878483,-0.19927 1.651924,-0.5748 2.310777,-1.13427 0.677966,-0.54414 1.031258,-1.33354 1.059901,-2.33751 0,-1.21857 -0.467879,-2.17657 -1.441849,-2.82034 -0.964402,-0.65909 -2.453996,-1.00397 -4.478324,-1.00397 h -5.5955 v 15.34325 h 5.5955 c 2.024328,-0.0383 3.599853,-0.43684 4.697954,-1.22623 1.107632,-0.76639 1.671011,-1.79337 1.671011,-3.04259 m -3.561653,-7.00486 c 0,-0.66677 -0.276905,-1.20325 -0.83074,-1.6171 -0.57291,-0.41385 -1.413193,-0.62845 -2.549482,-0.62845 H 76.49549 v 4.69802 h 1.709212 c 1.193588,-0.0153 2.072071,-0.24526 2.664081,-0.68977 0.592023,-0.4445 0.897571,-1.04229 0.897571,-1.7627 m 0.401036,6.85157 c 0.02866,-0.73573 -0.267349,-1.34885 -0.811628,-1.82402 -0.572922,-0.48283 -1.432293,-0.72807 -2.635425,-0.7434 H 76.49549 v 5.1042 h 2.12936 c 1.193588,-0.007 2.072059,-0.24525 2.664081,-0.72041 0.59201,-0.47517 0.878459,-1.07296 0.878459,-1.81637 m 18.10426,4.42211 c -0.0477,-0.21459 -0.086,-0.49815 -0.11463,-0.82771 -0.0477,-0.32955 -0.0573,-0.67442 -0.0573,-1.05762 v -5.34945 c 0,-0.7434 -0.124091,-1.37185 -0.315103,-1.87 -0.219605,-0.49049 -0.506066,-0.89669 -0.878471,-1.21858 -0.353304,-0.29122 -0.859383,-0.53647 -1.565993,-0.76639 -0.71614,-0.22226 -1.623255,-0.32955 -2.740444,-0.35254 -0.973958,0.023 -1.833342,0.0996 -2.578138,0.28357 -0.754341,0.16861 -1.413206,0.3602 -1.957485,0.60545 l 0.23873,1.94664 c 0.391492,-0.29889 0.964414,-0.54413 1.671011,-0.77406 0.68751,-0.21458 1.48005,-0.32954 2.310777,-0.34487 1.059902,0 1.823798,0.22991 2.339421,0.65909 0.439248,0.44451 0.63021,1.00399 0.61111,1.7014 v 0.45985 h -1.098091 c -2.444464,0 -4.296893,0.29889 -5.566869,0.91967 -1.250863,0.60546 -1.890629,1.56344 -1.909729,2.85099 0.03812,1.07296 0.458336,1.90066 1.289063,2.43714 0.840296,0.55947 1.881086,0.84303 3.112874,0.84303 1.098089,0 1.99566,-0.14561 2.654525,-0.42918 0.687497,-0.28356 1.212676,-0.64376 1.604156,-1.08827 h 0.01906 c 0,0.16861 0.02866,0.41385 0.04772,0.70508 0.03812,0.29889 0.08597,0.52881 0.124093,0.66676 h 2.759573 m -3.036478,-4.52173 v -0.98865 c -0.133687,0 -0.267361,-0.007 -0.467879,-0.007 -0.190987,0 -0.391492,0 -0.572922,0 -3.026918,0 -4.573799,0.72041 -4.592899,2.18422 0,0.55947 0.200518,1.01165 0.620666,1.3412 0.391492,0.33721 0.983502,0.50582 1.776042,0.50582 1.079002,-0.0153 1.871542,-0.2989 2.415808,-0.83537 0.534735,-0.56713 0.792528,-1.28754 0.821184,-2.19956 m 18.753548,4.52174 c -0.0573,-0.5748 -0.10503,-1.2339 -0.10503,-2.01562 v -14.46955 h -3.05557 v 6.56035 h -0.0191 c -0.42971,-0.49818 -0.95489,-0.87371 -1.566,-1.11896 -0.62066,-0.26823 -1.38455,-0.39853 -2.34897,-0.39853 -1.61372,0.023 -2.85505,0.51349 -3.78126,1.48682 -0.92621,0.98865 -1.39411,2.42181 -1.4132,4.31481 0.0191,1.77804 0.45833,3.1882 1.36546,4.21518 0.87847,1.02697 2.17708,1.55578 3.8863,1.57111 1.09808,-0.0153 1.96701,-0.16094 2.57813,-0.47517 0.62067,-0.29889 1.07901,-0.69742 1.40365,-1.15726 h 0.0477 c 0,0.22992 0,0.51349 0.0477,0.84304 0.0191,0.31422 0.0477,0.52881 0.0573,0.64377 h 2.90279 m -3.1606,-5.656 c 0,-1.27222 -0.23873,-2.26087 -0.72571,-2.96595 -0.48697,-0.71275 -1.26042,-1.07296 -2.32987,-1.07296 -1.0599,0 -1.83335,0.35254 -2.31078,1.0423 -0.48697,0.68976 -0.70659,1.67841 -0.70659,2.94296 -0.0191,1.37185 0.2196,2.39882 0.65885,3.08858 0.46788,0.68975 1.23179,1.03464 2.32987,1.03464 1.07901,-0.0153 1.87155,-0.37555 2.35852,-1.10362 0.50609,-0.72041 0.72571,-1.70906 0.72571,-2.96595 m 18.19019,0.64377 v -0.77406 c -0.0477,-1.96197 -0.57292,-3.39513 -1.58507,-4.31481 -1.01216,-0.91201 -2.37763,-1.35652 -4.04865,-1.35652 -1.90973,0.0383 -3.38977,0.5748 -4.44012,1.64775 -1.0408,1.05763 -1.56598,2.47546 -1.58508,4.22284 0,1.11894 0.23873,2.0846 0.70659,2.94296 0.487,0.85837 1.20315,1.54046 2.17711,2.03096 0.94531,0.47516 2.1771,0.72807 3.62848,0.7434 0.92623,0 1.75697,-0.0843 2.50175,-0.21459 0.72571,-0.13029 1.34636,-0.2989 1.85245,-0.45984 l -0.16233,-1.90833 c -0.36287,0.20693 -0.87849,0.4062 -1.4896,0.60546 -0.59202,0.18394 -1.33681,0.28356 -2.19619,0.28356 -1.38455,0 -2.39671,-0.28356 -3.04602,-0.88135 -0.61111,-0.5748 -0.93577,-1.43316 -0.91667,-2.56743 h 8.60335 m -2.98874,-1.56345 c 0,-2.16123 -0.92622,-3.24951 -2.73092,-3.24951 -0.87846,0 -1.58507,0.29889 -2.09115,0.85836 -0.50608,0.55947 -0.7639,1.34886 -0.79254,2.39115 h 5.61461 m 17.72232,6.52203 v -7.53367 c 0.0191,-1.19558 -0.35331,-2.13825 -1.05036,-2.83567 -0.73524,-0.68975 -1.83333,-1.03463 -3.35158,-1.04996 -1.7856,-0.0307 -3.07466,0.51349 -3.91495,1.60943 h -0.0381 c 0,-0.16094 -0.0287,-0.40618 -0.0477,-0.72041 -0.0383,-0.32955 -0.0669,-0.5748 -0.0669,-0.7434 h -2.87415 c 0.0573,0.67443 0.10503,1.38718 0.1241,2.16123 v 9.11245 h 3.03647 v -6.67531 c 0,-0.88901 0.23872,-1.56345 0.7257,-2.07693 0.47742,-0.49049 1.21267,-0.75873 2.14844,-0.75873 0.78299,-0.007 1.35591,0.18394 1.71876,0.59779 0.3533,0.39086 0.55382,1.04229 0.55382,1.90833 v 7.00485 h 3.03647 m -58.218157,31.230651 c -0.01906,-1.663082 -0.372392,-3.011939 -1.098089,-4.069564 -0.706609,-1.049964 -1.632824,-1.83935 -2.778656,-2.391156 -0.658866,-0.32955 -1.441862,-0.590125 -2.348977,-0.766396 -0.907127,-0.206927 -2.005216,-0.298895 -3.275192,-0.298895 H 73.15323 v 15.335584 h 4.239606 c 3.351579,-0.03067 5.872418,-0.720411 7.591185,-2.084597 1.690099,-1.387176 2.549482,-3.287838 2.549482,-5.724976 m -3.342022,0 c 0.01906,-1.088284 -0.190987,-2.053945 -0.639766,-2.904642 -0.439236,-0.835371 -1.136289,-1.5098 -2.09116,-1.984966 -0.964414,-0.48283 -2.19619,-0.712748 -3.733527,-0.728077 h -1.413144 v 11.518933 h 1.413207 c 2.17709,-0.01531 3.80037,-0.544142 4.879372,-1.586441 1.050357,-1.026969 1.604167,-2.467794 1.58508,-4.314807 m 16.165867,-5.5717 v -2.306854 h -2.578096 v 2.306854 h 2.578156 m -4.822077,0 v -2.306854 h -2.568582 v 2.306854 h 2.568582 m 6.598117,13.381273 c -0.0477,-0.206925 -0.0573,-0.490493 -0.10503,-0.820042 -0.0477,-0.329551 -0.0477,-0.674429 -0.0668,-1.057627 v -5.349446 c 0,-0.743404 -0.086,-1.371847 -0.31512,-1.870004 -0.19096,-0.490494 -0.49652,-0.904348 -0.87847,-1.218571 -0.32465,-0.298895 -0.849829,-0.544141 -1.556426,-0.774061 -0.697066,-0.214588 -1.62328,-0.329549 -2.750013,-0.344878 -0.945327,0.01531 -1.804698,0.09963 -2.549495,0.283567 -0.744796,0.168612 -1.413206,0.360206 -1.976572,0.605453 l 0.23873,1.946647 c 0.420136,-0.298895 0.973958,-0.544142 1.671011,-0.774062 0.70661,-0.214589 1.470494,-0.329548 2.310777,-0.352541 1.050346,0 1.823786,0.237583 2.329865,0.666765 0.439236,0.444509 0.639766,1.00398 0.61111,1.701399 v 0.459837 h -1.098089 c -2.434895,0 -4.287337,0.298895 -5.557313,0.919675 -1.260419,0.605454 -1.890629,1.563448 -1.919285,2.850993 0.04772,1.072955 0.486979,1.900662 1.308176,2.437141 0.830727,0.559468 1.861985,0.843035 3.093761,0.843035 1.126745,0 2.005228,-0.15329 2.683169,-0.429182 0.658853,-0.283566 1.184032,-0.643773 1.58508,-1.088281 h 0.01906 c 0,0.168611 0.01906,0.413852 0.06678,0.705083 0.02866,0.298894 0.06691,0.528813 0.114624,0.6591 h 2.74046 m -3.036477,-4.514072 v -0.988651 c -0.105031,0 -0.257818,-0.0153 -0.458335,-0.0153 -0.200518,0 -0.372393,0 -0.563379,0 -3.036462,0 -4.564255,0.728076 -4.602442,2.191894 0,0.559468 0.200518,1.011642 0.611122,1.333528 0.420136,0.344877 1.012146,0.513486 1.785586,0.513486 1.079014,-0.01531 1.871529,-0.298895 2.425352,-0.835372 0.544278,-0.567133 0.802096,-1.287545 0.802096,-2.199557 m 14.342087,4.337801 v -1.716728 c -0.36286,0.145618 -0.84983,0.245247 -1.4705,0.268239 -0.52517,0.0077 -0.94531,-0.122623 -1.18403,-0.367869 -0.26737,-0.245247 -0.40105,-0.674429 -0.40105,-1.27988 v -6.246128 h 3.05558 v -1.747383 h -3.05558 v -3.004273 l -3.03647,0.689756 v 2.314517 h -2.41582 v 1.747383 h 2.41582 v 6.705963 c 0,1.065291 0.3342,1.847016 0.99306,2.306854 0.65886,0.444509 1.60417,0.674429 2.83595,0.6591 0.92622,-0.01531 1.67102,-0.130295 2.26304,-0.329551 m 10.23615,0 v -1.716728 c -0.3533,0.145618 -0.86893,0.245247 -1.45139,0.268239 -0.56338,0.0077 -0.95487,-0.122623 -1.21268,-0.367869 -0.26737,-0.245247 -0.37239,-0.674429 -0.37239,-1.27988 v -6.246128 h 3.03646 v -1.747383 h -3.03646 v -3.004273 l -3.06513,0.689756 v 2.314517 h -2.38716 v 1.747383 h 2.38716 v 6.705963 c 0,1.065291 0.33421,1.847016 0.99306,2.306854 0.65886,0.444509 1.60418,0.674429 2.8646,0.6591 0.89757,-0.01531 1.67101,-0.130295 2.24393,-0.329551 m 21.94282,-11.089749 h -2.98873 l -2.62587,9.097121 h -0.0382 l -2.73092,-9.097121 h -3.56164 l -2.68317,9.097121 h -0.0573 l -2.64494,-9.097147 h -3.1606 l 4.01998,11.266021 h 3.38023 l 2.76911,-9.143104 h 0.0477 l 2.95053,9.143104 h 3.37068 l 3.95313,-11.266021 m 6.07296,-2.276197 v -2.444803 h -3.237 v 2.444803 h 3.237 m -0.086,13.542218 v -11.266021 h -3.06513 v 11.266021 h 3.06513 m 7.80125,0 v -16.477514 h -3.05556 v 16.477514 h 3.05556 M 31.693191,-33.781467 V -49.101725 H 28.76176 v 12.124385 h -0.0087 l -7.133273,-12.124385 h -4.000888 v 15.320258 h 2.950542 v -12.009426 h 0.0087 l 7.132849,12.009426 h 3.981789 m 15.764835,-4.989239 v -0.774059 c -0.03813,-1.961975 -0.572922,-3.410464 -1.58508,-4.322476 -1.012158,-0.904346 -2.368064,-1.364184 -4.039076,-1.348857 -1.909741,0.03067 -3.389778,0.582463 -4.44968,1.632425 -1.021702,1.072955 -1.556437,2.475458 -1.585068,4.23817 0,1.10361 0.248262,2.092261 0.706597,2.950624 0.486979,0.858363 1.212676,1.517465 2.186647,2.007958 0.935758,0.498157 2.167534,0.743404 3.61894,0.758731 0.926214,-0.01531 1.756942,-0.08431 2.511295,-0.229918 0.725696,-0.130294 1.34635,-0.283566 1.842885,-0.459837 l -0.142807,-1.91599 c -0.381948,0.237582 -0.878483,0.429183 -1.499149,0.605452 -0.601566,0.183935 -1.346363,0.291232 -2.196191,0.298895 -1.394093,0 -2.406251,-0.298895 -3.036461,-0.866027 -0.620666,-0.59779 -0.954871,-1.456154 -0.926227,-2.575091 h 8.593799 m -2.988743,-1.571111 c 0,-2.153575 -0.926214,-3.241856 -2.730913,-3.241856 -0.878471,0 -1.575524,0.275903 -2.081603,0.843035 -0.515635,0.551805 -0.773453,1.371849 -0.79254,2.398821 h 5.605056 m 17.836895,6.56035 c -0.06678,-0.674428 -0.114499,-1.379515 -0.124093,-2.138246 v -9.127777 h -3.036486 v 6.682973 c 0,0.881357 -0.248274,1.571112 -0.735253,2.069271 -0.477423,0.490494 -1.20312,0.75873 -2.157991,0.774059 -0.763896,0 -1.336819,-0.206927 -1.709211,-0.597789 -0.372392,-0.40619 -0.544266,-1.034633 -0.544266,-1.915989 v -7.012525 h -3.036474 v 7.541337 c -0.02866,1.187915 0.353292,2.145909 1.050345,2.835665 0.725697,0.682094 1.823798,1.042298 3.342023,1.057627 1.785611,0.01531 3.08423,-0.528813 3.924501,-1.62476 h 0.03813 c 0,0.160941 0.01906,0.40619 0.04772,0.735741 0.03813,0.314221 0.05731,0.559468 0.05731,0.720413 h 2.883687 m 15.153714,-4.989239 v -0.774059 c -0.04772,-1.961975 -0.57291,-3.410464 -1.585068,-4.322476 -1.012158,-0.904346 -2.377621,-1.364184 -4.04862,-1.348857 -1.909741,0.03067 -3.380235,0.582463 -4.440136,1.632425 -1.031258,1.072955 -1.556437,2.475458 -1.585068,4.23817 0,1.10361 0.248249,2.092261 0.73524,2.950624 0.44878,0.858363 1.184033,1.517465 2.148447,2.007958 0.945315,0.498157 2.17709,0.743404 3.628484,0.758731 0.926227,-0.01531 1.756954,-0.08431 2.511295,-0.229918 0.725709,-0.130294 1.336819,-0.283566 1.842898,-0.459837 l -0.152787,-1.91599 c -0.372392,0.237582 -0.878471,0.429183 -1.489581,0.605452 -0.601566,0.183935 -1.346363,0.291232 -2.205734,0.298895 -1.384562,0 -2.39672,-0.298895 -3.026942,-0.866027 -0.620654,-0.59779 -0.926215,-1.456154 -0.926215,-2.575091 h 8.593787 m -2.988718,-1.571111 c 0,-2.153575 -0.926215,-3.241856 -2.730913,-3.241856 -0.878484,0 -1.585081,0.275903 -2.081616,0.843035 -0.515623,0.551805 -0.77344,1.371849 -0.79254,2.398821 h 5.605069 m 17.722308,6.529692 v -7.549001 c 0.02866,-1.20324 -0.353292,-2.138244 -1.050345,-2.835664 -0.725697,-0.689758 -1.823798,-1.034635 -3.351579,-1.049962 -1.776055,-0.03832 -3.074674,0.513484 -3.905414,1.632423 h -0.04772 c 0,-0.168611 -0.01906,-0.413854 -0.04772,-0.743406 -0.03813,-0.314222 -0.05731,-0.559468 -0.05731,-0.728075 h -2.883714 c 0.0669,0.6591 0.114624,1.387178 0.133687,2.14591 v 9.127775 h 3.02693 v -6.690637 c 0,-0.866027 0.248261,-1.563448 0.73524,-2.061604 0.486992,-0.513487 1.203132,-0.75107 2.158003,-0.77406 0.763897,0 1.327263,0.199262 1.709211,0.597788 0.372392,0.413855 0.544279,1.034635 0.544279,1.908327 v 7.020186 h 3.036461 m 15.392445,0.03067 v -7.526017 c 0.0286,-1.203242 -0.34377,-2.145909 -1.05036,-2.835665 -0.72571,-0.689758 -1.8238,-1.042299 -3.34203,-1.049965 -0.98352,0.0077 -1.75696,0.145618 -2.34897,0.421519 -0.60158,0.283566 -1.0599,0.605453 -1.394105,1.003979 h -0.03813 v -6.491377 h -3.036474 v 16.477516 h 3.036474 v -6.667646 c 0,-0.881356 0.238706,-1.571111 0.725685,-2.076934 0.48698,-0.490494 1.20313,-0.75873 2.158,-0.75873 0.7639,0 1.33681,0.199262 1.71876,0.590124 0.34375,0.398526 0.53472,1.042299 0.53472,1.915989 v 6.997197 h 3.03647 m 16.30911,-5.64834 c 0,-1.348857 -0.29601,-2.460131 -0.86893,-3.295502 -0.54427,-0.858363 -1.28907,-1.479144 -2.26303,-1.877672 -0.94532,-0.413853 -2.01476,-0.613117 -3.18925,-0.590125 -1.18403,-0.02299 -2.25348,0.176264 -3.20835,0.590125 -0.97396,0.398528 -1.71876,1.019309 -2.26303,1.877672 -0.57291,0.835371 -0.85938,1.946645 -0.85938,3.295502 0,1.364186 0.28646,2.490787 0.85938,3.341487 0.54427,0.858363 1.28907,1.486809 2.26303,1.877672 0.95487,0.398524 2.02432,0.582458 3.20835,0.582458 1.17449,0 2.24393,-0.183934 3.18925,-0.582458 0.97396,-0.390863 1.71876,-1.019309 2.26303,-1.877672 0.57291,-0.8507 0.86893,-1.977301 0.86893,-3.341487 m -3.15105,0 c 0,-1.203241 -0.21962,-2.161236 -0.7066,-2.919968 -0.48699,-0.73574 -1.31772,-1.118938 -2.46356,-1.149595 -1.15539,0.03067 -1.97656,0.413855 -2.46355,1.149595 -0.48698,0.758732 -0.71614,1.716727 -0.69704,2.919968 -0.0191,1.203241 0.21007,2.176565 0.69704,2.935297 0.48699,0.73574 1.30816,1.134267 2.46355,1.157259 1.14584,-0.02299 1.97657,-0.421519 2.46356,-1.157259 0.48698,-0.758732 0.7066,-1.732056 0.7066,-2.935297 m 14.05563,-9.081792 v -1.76271 c -0.35329,-0.06131 -0.7257,-0.130295 -1.14583,-0.160941 -0.3915,-0.05364 -0.7448,-0.09196 -1.05035,-0.09196 -1.45139,0.023 -2.49221,0.329551 -3.11287,0.912012 -0.63022,0.559469 -0.91667,1.302874 -0.88802,2.176565 v 2.391155 h -2.47311 v 1.762712 h 2.47311 v 9.503311 h 3.02693 v -9.503313 h 2.73092 v -1.762726 h -2.73092 v -2.145909 c -0.0191,-1.026972 0.57291,-1.532792 1.7665,-1.548119 0.19099,0 0.41058,0.03064 0.67794,0.06131 0.28648,0.05364 0.52518,0.09963 0.7257,0.168612 m -24.20588,-107.103852 2.22483,4.1462 c 0.13369,0.28357 0.54427,0.88902 0.21961,1.28755 -0.40105,0.4675 -1.35591,0.42918 -1.99567,0.42918 l -5.20402,0.007 c 0.69705,2.11525 3.24654,3.68637 6.28302,3.68637 3.56163,0 6.46443,-2.1689 6.46443,-4.84363 0,-2.67472 -2.9028,-4.85128 -6.46443,-4.85128 -0.52519,0 -1.04081,0.0536 -1.52779,0.13795 m -5.50956,-5.15783 H 90.598859 l -0.496536,1.31054 10.837717,8.20043 4.14412,-9.51097 m 3.37068,4.33013 -1.99568,-3.54841 -3.95314,8.99749 h 1.40365 c 0.0477,-2.38349 1.88109,-4.4451 4.54517,-5.44908 m -19.956684,0.96566 -1.728311,4.69035 c -0.105031,0.2529 -0.429692,0.59778 -1.088546,0.45216 -0.668409,-0.13794 -0.611122,-0.57479 -0.515635,-0.80471 l 1.747411,-4.6367 c -0.267361,-0.0306 -0.534722,-0.0383 -0.802096,-0.0383 -3.571197,0 -6.473984,2.16124 -6.473984,4.83596 0,2.67472 2.902787,4.84362 6.473984,4.84362 3.561653,0 6.464452,-2.1689 6.464452,-4.84362 0,-2.03861 -1.690124,-3.786 -4.077275,-4.49875 m 21.484464,-1.36418 -2.77866,-5.09653 0.53472,-1.11894 h 1.25088 v -1.21857 h -5.18492 v 0.79705 l 2.31078,0.42152 -0.51564,1.11894 H 91.028538 l 0.544279,-1.3182 c 0.124093,-0.32956 0.229174,-0.60546 0.553822,-0.82005 0.324649,-0.19926 0.926227,-0.19926 1.40365,-0.19926 h 2.444464 v -1.2109 h -3.04603 c -0.926214,0 -1.718755,0.23758 -2.205734,0.60545 -0.410592,0.30655 -0.649309,0.84304 -0.81164,1.27988 l -2.482651,6.52969 c -0.439236,-0.0537 -0.849828,-0.092 -1.298619,-0.092 -4.554711,0 -8.259582,2.77436 -8.259582,6.18483 0,3.41045 3.704871,6.19247 8.259582,6.19247 4.554711,0 8.259594,-2.78202 8.259594,-6.19247 0,-2.6594 -2.301221,-4.88195 -5.433182,-5.77097 l 0.563366,-1.35652 10.140667,7.61031 c 0.343746,0.24525 0.725696,0.49049 1.184036,0.60545 0.42969,0.1303 0.97397,0.1303 1.40365,0.1303 l 1.8047,0.007 c 0.71615,2.85865 4.07727,5.02755 8.10681,5.02755 4.5547,0 8.25004,-2.76668 8.25004,-6.17715 0,-3.41046 -3.69534,-6.18481 -8.25004,-6.18481 -0.75435,0 -1.48005,0.10729 -2.1771,0.24525 m -0.90712,1.65541 c -2.03387,0.82771 -3.38978,2.34517 -3.38978,4.19218 h 5.58597 l -2.19619,-4.19219 m -79.435281,50.63579 h 9.290852 l -1.241332,-13.45791 10.809077,2.02327 c 0.09556,0.023 0.200518,0.0306 0.305561,0.0306 0.687509,0 1.231776,-0.42151 1.231776,-0.935 0,-0.22991 -0.105031,-0.43684 -0.296005,-0.59778 l -14.513961,-12.69025 c -0.229173,-0.19927 -0.563378,-0.32955 -0.945314,-0.32955 -0.372405,0 -0.716153,0.13029 -0.945327,0.32955 l -14.513948,12.69152 c -0.18143,0.16094 -0.296005,0.36787 -0.296005,0.59779 0,0.51348 0.553823,0.935 1.24132,0.935 0.09556,0 0.200518,-0.0153 0.296005,-0.0306 l 10.809089,-2.02329 -1.231788,13.45792 m 20.395934,28.808831 v -6.966539 l -17.961026,0.927339 2.702269,-8.100806 c 0.02866,-0.06899 0.03813,-0.145617 0.03813,-0.222259 0,-0.513479 -0.553823,-0.935002 -1.231776,-0.935002 -0.305561,0 -0.592022,0.09196 -0.81164,0.229924 l -16.92978,10.875157 c -0.267362,0.176263 -0.439236,0.429181 -0.439236,0.705083 0,0.283567 0.171874,0.536477 0.439236,0.705085 L 32.772098,-67.6409 c 0.219617,0.137946 0.506078,0.222254 0.81164,0.222254 0.677953,0 1.231775,-0.413853 1.231775,-0.927339 0,-0.07663 -0.0087,-0.153289 -0.03813,-0.22992 l -2.702269,-8.100806 17.961026,0.935004 m 98.42756,38.281483 17.96103,-0.92734 -2.70227,8.100807 c -0.0287,0.07663 -0.0383,0.153269 -0.0383,0.229917 0,0.513486 0.55382,0.927339 1.23177,0.927339 0.30556,0 0.59203,-0.08431 0.81164,-0.222254 l 16.92977,-10.882823 c 0.26736,-0.168613 0.43925,-0.421519 0.43925,-0.705085 0,-0.283566 -0.17189,-0.536478 -0.43925,-0.705085 L 165.72765,-52.5278 c -0.21961,-0.137947 -0.50608,-0.222255 -0.81163,-0.222255 -0.67796,0 -1.23179,0.421517 -1.23179,0.927339 0,0.08431 0.009,0.160941 0.0383,0.229918 l 2.70227,8.100807 -17.96102,-0.927341 v 6.958879"
     id="path1002-3-6"
     clip-path="url(#clipPath1030-1-9)"
     transform="matrix(1.0130914,0,0,0.99187956,-6.9326194,132.83087)" />
  <path
     style="fill:#723926;fill-opacity:1;fill-rule:nonzero;stroke:none;stroke-width:2.18997"
     d="M 9.349341,-173.6337 H 190.20091 v 35.68339 H 9.349341 v -35.68339 m 0,114.852108 v 35.683399 H 190.20091 V -58.781592 H 9.349341 m 0,-76.601288 v 35.698737 H 190.20091 V -135.38288 H 9.349341 m 0,38.31981 v 35.683395 H 190.20091 V -97.06307 H 9.349341 m 75.978666,-17.7804 c 0,-0.78938 -0.190986,-1.44849 -0.563379,-1.96198 -0.353292,-0.5288 -0.840271,-0.94266 -1.413193,-1.21856 -0.582466,-0.29889 -1.203132,-0.47517 -1.842898,-0.56713 v -0.0307 c 0.878483,-0.19927 1.651924,-0.5748 2.310777,-1.13427 0.677966,-0.54414 1.031258,-1.33354 1.059901,-2.33751 0,-1.21857 -0.467879,-2.17657 -1.441849,-2.82034 -0.964402,-0.65909 -2.453996,-1.00397 -4.478324,-1.00397 h -5.5955 v 15.34325 h 5.5955 c 2.024328,-0.0383 3.599853,-0.43684 4.697954,-1.22623 1.107632,-0.76639 1.671011,-1.79337 1.671011,-3.04259 m -3.561653,-7.00486 c 0,-0.66677 -0.276905,-1.20325 -0.83074,-1.6171 -0.57291,-0.41385 -1.413193,-0.62845 -2.549482,-0.62845 H 76.49549 v 4.69802 h 1.709212 c 1.193588,-0.0153 2.072071,-0.24526 2.664081,-0.68977 0.592023,-0.4445 0.897571,-1.04229 0.897571,-1.7627 m 0.401036,6.85157 c 0.02866,-0.73573 -0.267349,-1.34885 -0.811628,-1.82402 -0.572922,-0.48283 -1.432293,-0.72807 -2.635425,-0.7434 H 76.49549 v 5.1042 h 2.12936 c 1.193588,-0.007 2.072059,-0.24525 2.664081,-0.72041 0.59201,-0.47517 0.878459,-1.07296 0.878459,-1.81637 m 18.10426,4.42211 c -0.0477,-0.21459 -0.086,-0.49815 -0.11463,-0.82771 -0.0477,-0.32955 -0.0573,-0.67442 -0.0573,-1.05762 v -5.34945 c 0,-0.7434 -0.124091,-1.37185 -0.315103,-1.87 -0.219605,-0.49049 -0.506066,-0.89669 -0.878471,-1.21858 -0.353304,-0.29122 -0.859383,-0.53647 -1.565993,-0.76639 -0.71614,-0.22226 -1.623255,-0.32955 -2.740444,-0.35254 -0.973958,0.023 -1.833342,0.0996 -2.578138,0.28357 -0.754341,0.16861 -1.413206,0.3602 -1.957485,0.60545 l 0.23873,1.94664 c 0.391492,-0.29889 0.964414,-0.54413 1.671011,-0.77406 0.68751,-0.21458 1.48005,-0.32954 2.310777,-0.34487 1.059902,0 1.823798,0.22991 2.339421,0.65909 0.439248,0.44451 0.63021,1.00399 0.61111,1.7014 v 0.45985 h -1.098091 c -2.444464,0 -4.296893,0.29889 -5.566869,0.91967 -1.250863,0.60546 -1.890629,1.56344 -1.909729,2.85099 0.03812,1.07296 0.458336,1.90066 1.289063,2.43714 0.840296,0.55947 1.881086,0.84303 3.112874,0.84303 1.098089,0 1.99566,-0.14561 2.654525,-0.42918 0.687497,-0.28356 1.212676,-0.64376 1.604156,-1.08827 h 0.01906 c 0,0.16861 0.02866,0.41385 0.04772,0.70508 0.03812,0.29889 0.08597,0.52881 0.124093,0.66676 h 2.759573 m -3.036478,-4.52173 v -0.98865 c -0.133687,0 -0.267361,-0.007 -0.467879,-0.007 -0.190987,0 -0.391492,0 -0.572922,0 -3.026918,0 -4.573799,0.72041 -4.592899,2.18422 0,0.55947 0.200518,1.01165 0.620666,1.3412 0.391492,0.33721 0.983502,0.50582 1.776042,0.50582 1.079002,-0.0153 1.871542,-0.2989 2.415808,-0.83537 0.534735,-0.56713 0.792528,-1.28754 0.821184,-2.19956 m 18.753548,4.52174 c -0.0573,-0.5748 -0.10503,-1.2339 -0.10503,-2.01562 v -14.46955 h -3.05557 v 6.56035 h -0.0191 c -0.42971,-0.49818 -0.95489,-0.87371 -1.566,-1.11896 -0.62066,-0.26823 -1.38455,-0.39853 -2.34897,-0.39853 -1.61372,0.023 -2.85505,0.51349 -3.78126,1.48682 -0.92621,0.98865 -1.39411,2.42181 -1.4132,4.31481 0.0191,1.77804 0.45833,3.1882 1.36546,4.21518 0.87847,1.02697 2.17708,1.55578 3.8863,1.57111 1.09808,-0.0153 1.96701,-0.16094 2.57813,-0.47517 0.62067,-0.29889 1.07901,-0.69742 1.40365,-1.15726 h 0.0477 c 0,0.22992 0,0.51349 0.0477,0.84304 0.0191,0.31422 0.0477,0.52881 0.0573,0.64377 h 2.90279 m -3.1606,-5.656 c 0,-1.27222 -0.23873,-2.26087 -0.72571,-2.96595 -0.48697,-0.71275 -1.26042,-1.07296 -2.32987,-1.07296 -1.0599,0 -1.83335,0.35254 -2.31078,1.0423 -0.48697,0.68976 -0.70659,1.67841 -0.70659,2.94296 -0.0191,1.37185 0.2196,2.39882 0.65885,3.08858 0.46788,0.68975 1.23179,1.03464 2.32987,1.03464 1.07901,-0.0153 1.87155,-0.37555 2.35852,-1.10362 0.50609,-0.72041 0.72571,-1.70906 0.72571,-2.96595 m 18.19019,0.64377 v -0.77406 c -0.0477,-1.96197 -0.57292,-3.39513 -1.58507,-4.31481 -1.01216,-0.91201 -2.37763,-1.35652 -4.04865,-1.35652 -1.90973,0.0383 -3.38977,0.5748 -4.44012,1.64775 -1.0408,1.05763 -1.56598,2.47546 -1.58508,4.22284 0,1.11894 0.23873,2.0846 0.70659,2.94296 0.487,0.85837 1.20315,1.54046 2.17711,2.03096 0.94531,0.47516 2.1771,0.72807 3.62848,0.7434 0.92623,0 1.75697,-0.0843 2.50175,-0.21459 0.72571,-0.13029 1.34636,-0.2989 1.85245,-0.45984 l -0.16233,-1.90833 c -0.36287,0.20693 -0.87849,0.4062 -1.4896,0.60546 -0.59202,0.18394 -1.33681,0.28356 -2.19619,0.28356 -1.38455,0 -2.39671,-0.28356 -3.04602,-0.88135 -0.61111,-0.5748 -0.93577,-1.43316 -0.91667,-2.56743 h 8.60335 m -2.98874,-1.56345 c 0,-2.16123 -0.92622,-3.24951 -2.73092,-3.24951 -0.87846,0 -1.58507,0.29889 -2.09115,0.85836 -0.50608,0.55947 -0.7639,1.34886 -0.79254,2.39115 h 5.61461 m 17.72232,6.52203 v -7.53367 c 0.0191,-1.19558 -0.35331,-2.13825 -1.05036,-2.83567 -0.73524,-0.68975 -1.83333,-1.03463 -3.35158,-1.04996 -1.7856,-0.0307 -3.07466,0.51349 -3.91495,1.60943 h -0.0381 c 0,-0.16094 -0.0287,-0.40618 -0.0477,-0.72041 -0.0383,-0.32955 -0.0669,-0.5748 -0.0669,-0.7434 h -2.87415 c 0.0573,0.67443 0.10503,1.38718 0.1241,2.16123 v 9.11245 h 3.03647 v -6.67531 c 0,-0.88901 0.23872,-1.56345 0.7257,-2.07693 0.47742,-0.49049 1.21267,-0.75873 2.14844,-0.75873 0.78299,-0.007 1.35591,0.18394 1.71876,0.59779 0.3533,0.39086 0.55382,1.04229 0.55382,1.90833 v 7.00485 h 3.03647 m -58.218157,31.230651 c -0.01906,-1.663082 -0.372392,-3.011939 -1.098089,-4.069564 -0.706609,-1.049964 -1.632824,-1.83935 -2.778656,-2.391156 -0.658866,-0.32955 -1.441862,-0.590125 -2.348977,-0.766396 -0.907127,-0.206927 -2.005216,-0.298895 -3.275192,-0.298895 H 73.15323 v 15.335584 h 4.239606 c 3.351579,-0.03067 5.872418,-0.720411 7.591185,-2.084597 1.690099,-1.387176 2.549482,-3.287838 2.549482,-5.724976 m -3.342022,0 c 0.01906,-1.088284 -0.190987,-2.053945 -0.639766,-2.904642 -0.439236,-0.835371 -1.136289,-1.5098 -2.09116,-1.984966 -0.964414,-0.48283 -2.19619,-0.712748 -3.733527,-0.728077 h -1.413144 v 11.518933 h 1.413207 c 2.17709,-0.01531 3.80037,-0.544142 4.879372,-1.586441 1.050357,-1.026969 1.604167,-2.467794 1.58508,-4.314807 m 16.165867,-5.5717 v -2.306854 h -2.578096 v 2.306854 h 2.578156 m -4.822077,0 v -2.306854 h -2.568582 v 2.306854 h 2.568582 m 6.598117,13.381273 c -0.0477,-0.206925 -0.0573,-0.490493 -0.10503,-0.820042 -0.0477,-0.329551 -0.0477,-0.674429 -0.0668,-1.057627 v -5.349446 c 0,-0.743404 -0.086,-1.371847 -0.31512,-1.870004 -0.19096,-0.490494 -0.49652,-0.904348 -0.87847,-1.218571 -0.32465,-0.298895 -0.849829,-0.544141 -1.556426,-0.774061 -0.697066,-0.214588 -1.62328,-0.329549 -2.750013,-0.344878 -0.945327,0.01531 -1.804698,0.09963 -2.549495,0.283567 -0.744796,0.168612 -1.413206,0.360206 -1.976572,0.605453 l 0.23873,1.946647 c 0.420136,-0.298895 0.973958,-0.544142 1.671011,-0.774062 0.70661,-0.214589 1.470494,-0.329548 2.310777,-0.352541 1.050346,0 1.823786,0.237583 2.329865,0.666765 0.439236,0.444509 0.639766,1.00398 0.61111,1.701399 v 0.459837 h -1.098089 c -2.434895,0 -4.287337,0.298895 -5.557313,0.919675 -1.260419,0.605454 -1.890629,1.563448 -1.919285,2.850993 0.04772,1.072955 0.486979,1.900662 1.308176,2.437141 0.830727,0.559468 1.861985,0.843035 3.093761,0.843035 1.126745,0 2.005228,-0.15329 2.683169,-0.429182 0.658853,-0.283566 1.184032,-0.643773 1.58508,-1.088281 h 0.01906 c 0,0.168611 0.01906,0.413852 0.06678,0.705083 0.02866,0.298894 0.06691,0.528813 0.114624,0.6591 h 2.74046 m -3.036477,-4.514072 v -0.988651 c -0.105031,0 -0.257818,-0.0153 -0.458335,-0.0153 -0.200518,0 -0.372393,0 -0.563379,0 -3.036462,0 -4.564255,0.728076 -4.602442,2.191894 0,0.559468 0.200518,1.011642 0.611122,1.333528 0.420136,0.344877 1.012146,0.513486 1.785586,0.513486 1.079014,-0.01531 1.871529,-0.298895 2.425352,-0.835372 0.544278,-0.567133 0.802096,-1.287545 0.802096,-2.199557 m 14.342087,4.337801 v -1.716728 c -0.36286,0.145618 -0.84983,0.245247 -1.4705,0.268239 -0.52517,0.0077 -0.94531,-0.122623 -1.18403,-0.367869 -0.26737,-0.245247 -0.40105,-0.674429 -0.40105,-1.27988 v -6.246128 h 3.05558 v -1.747383 h -3.05558 v -3.004273 l -3.03647,0.689756 v 2.314517 h -2.41582 v 1.747383 h 2.41582 v 6.705963 c 0,1.065291 0.3342,1.847016 0.99306,2.306854 0.65886,0.444509 1.60417,0.674429 2.83595,0.6591 0.92622,-0.01531 1.67102,-0.130295 2.26304,-0.329551 m 10.23615,0 v -1.716728 c -0.3533,0.145618 -0.86893,0.245247 -1.45139,0.268239 -0.56338,0.0077 -0.95487,-0.122623 -1.21268,-0.367869 -0.26737,-0.245247 -0.37239,-0.674429 -0.37239,-1.27988 v -6.246128 h 3.03646 v -1.747383 h -3.03646 v -3.004273 l -3.06513,0.689756 v 2.314517 h -2.38716 v 1.747383 h 2.38716 v 6.705963 c 0,1.065291 0.33421,1.847016 0.99306,2.306854 0.65886,0.444509 1.60418,0.674429 2.8646,0.6591 0.89757,-0.01531 1.67101,-0.130295 2.24393,-0.329551 m 21.94282,-11.089749 h -2.98873 l -2.62587,9.097121 h -0.0382 l -2.73092,-9.097121 h -3.56164 l -2.68317,9.097121 h -0.0573 l -2.64494,-9.097147 h -3.1606 l 4.01998,11.266021 h 3.38023 l 2.76911,-9.143104 h 0.0477 l 2.95053,9.143104 h 3.37068 l 3.95313,-11.266021 m 6.07296,-2.276197 v -2.444803 h -3.237 v 2.444803 h 3.237 m -0.086,13.542218 v -11.266021 h -3.06513 v 11.266021 h 3.06513 m 7.80125,0 v -16.477514 h -3.05556 v 16.477514 h 3.05556 M 31.693191,-33.781467 V -49.101725 H 28.76176 v 12.124385 h -0.0087 l -7.133273,-12.124385 h -4.000888 v 15.320258 h 2.950542 v -12.009426 h 0.0087 l 7.132849,12.009426 h 3.981789 m 15.764835,-4.989239 v -0.774059 c -0.03813,-1.961975 -0.572922,-3.410464 -1.58508,-4.322476 -1.012158,-0.904346 -2.368064,-1.364184 -4.039076,-1.348857 -1.909741,0.03067 -3.389778,0.582463 -4.44968,1.632425 -1.021702,1.072955 -1.556437,2.475458 -1.585068,4.23817 0,1.10361 0.248262,2.092261 0.706597,2.950624 0.486979,0.858363 1.212676,1.517465 2.186647,2.007958 0.935758,0.498157 2.167534,0.743404 3.61894,0.758731 0.926214,-0.01531 1.756942,-0.08431 2.511295,-0.229918 0.725696,-0.130294 1.34635,-0.283566 1.842885,-0.459837 l -0.142807,-1.91599 c -0.381948,0.237582 -0.878483,0.429183 -1.499149,0.605452 -0.601566,0.183935 -1.346363,0.291232 -2.196191,0.298895 -1.394093,0 -2.406251,-0.298895 -3.036461,-0.866027 -0.620666,-0.59779 -0.954871,-1.456154 -0.926227,-2.575091 h 8.593799 m -2.988743,-1.571111 c 0,-2.153575 -0.926214,-3.241856 -2.730913,-3.241856 -0.878471,0 -1.575524,0.275903 -2.081603,0.843035 -0.515635,0.551805 -0.773453,1.371849 -0.79254,2.398821 h 5.605056 m 17.836895,6.56035 c -0.06678,-0.674428 -0.114499,-1.379515 -0.124093,-2.138246 v -9.127777 h -3.036486 v 6.682973 c 0,0.881357 -0.248274,1.571112 -0.735253,2.069271 -0.477423,0.490494 -1.20312,0.75873 -2.157991,0.774059 -0.763896,0 -1.336819,-0.206927 -1.709211,-0.597789 -0.372392,-0.40619 -0.544266,-1.034633 -0.544266,-1.915989 v -7.012525 h -3.036474 v 7.541337 c -0.02866,1.187915 0.353292,2.145909 1.050345,2.835665 0.725697,0.682094 1.823798,1.042298 3.342023,1.057627 1.785611,0.01531 3.08423,-0.528813 3.924501,-1.62476 h 0.03813 c 0,0.160941 0.01906,0.40619 0.04772,0.735741 0.03813,0.314221 0.05731,0.559468 0.05731,0.720413 h 2.883687 m 15.153714,-4.989239 v -0.774059 c -0.04772,-1.961975 -0.57291,-3.410464 -1.585068,-4.322476 -1.012158,-0.904346 -2.377621,-1.364184 -4.04862,-1.348857 -1.909741,0.03067 -3.380235,0.582463 -4.440136,1.632425 -1.031258,1.072955 -1.556437,2.475458 -1.585068,4.23817 0,1.10361 0.248249,2.092261 0.73524,2.950624 0.44878,0.858363 1.184033,1.517465 2.148447,2.007958 0.945315,0.498157 2.17709,0.743404 3.628484,0.758731 0.926227,-0.01531 1.756954,-0.08431 2.511295,-0.229918 0.725709,-0.130294 1.336819,-0.283566 1.842898,-0.459837 l -0.152787,-1.91599 c -0.372392,0.237582 -0.878471,0.429183 -1.489581,0.605452 -0.601566,0.183935 -1.346363,0.291232 -2.205734,0.298895 -1.384562,0 -2.39672,-0.298895 -3.026942,-0.866027 -0.620654,-0.59779 -0.926215,-1.456154 -0.926215,-2.575091 h 8.593787 m -2.988718,-1.571111 c 0,-2.153575 -0.926215,-3.241856 -2.730913,-3.241856 -0.878484,0 -1.585081,0.275903 -2.081616,0.843035 -0.515623,0.551805 -0.77344,1.371849 -0.79254,2.398821 h 5.605069 m 17.722308,6.529692 v -7.549001 c 0.02866,-1.20324 -0.353292,-2.138244 -1.050345,-2.835664 -0.725697,-0.689758 -1.823798,-1.034635 -3.351579,-1.049962 -1.776055,-0.03832 -3.074674,0.513484 -3.905414,1.632423 h -0.04772 c 0,-0.168611 -0.01906,-0.413854 -0.04772,-0.743406 -0.03813,-0.314222 -0.05731,-0.559468 -0.05731,-0.728075 h -2.883714 c 0.0669,0.6591 0.114624,1.387178 0.133687,2.14591 v 9.127775 h 3.02693 v -6.690637 c 0,-0.866027 0.248261,-1.563448 0.73524,-2.061604 0.486992,-0.513487 1.203132,-0.75107 2.158003,-0.77406 0.763897,0 1.327263,0.199262 1.709211,0.597788 0.372392,0.413855 0.544279,1.034635 0.544279,1.908327 v 7.020186 h 3.036461 m 15.392445,0.03067 v -7.526017 c 0.0286,-1.203242 -0.34377,-2.145909 -1.05036,-2.835665 -0.72571,-0.689758 -1.8238,-1.042299 -3.34203,-1.049965 -0.98352,0.0077 -1.75696,0.145618 -2.34897,0.421519 -0.60158,0.283566 -1.0599,0.605453 -1.394105,1.003979 h -0.03813 v -6.491377 h -3.036474 v 16.477516 h 3.036474 v -6.667646 c 0,-0.881356 0.238706,-1.571111 0.725685,-2.076934 0.48698,-0.490494 1.20313,-0.75873 2.158,-0.75873 0.7639,0 1.33681,0.199262 1.71876,0.590124 0.34375,0.398526 0.53472,1.042299 0.53472,1.915989 v 6.997197 h 3.03647 m 16.30911,-5.64834 c 0,-1.348857 -0.29601,-2.460131 -0.86893,-3.295502 -0.54427,-0.858363 -1.28907,-1.479144 -2.26303,-1.877672 -0.94532,-0.413853 -2.01476,-0.613117 -3.18925,-0.590125 -1.18403,-0.02299 -2.25348,0.176264 -3.20835,0.590125 -0.97396,0.398528 -1.71876,1.019309 -2.26303,1.877672 -0.57291,0.835371 -0.85938,1.946645 -0.85938,3.295502 0,1.364186 0.28646,2.490787 0.85938,3.341487 0.54427,0.858363 1.28907,1.486809 2.26303,1.877672 0.95487,0.398524 2.02432,0.582458 3.20835,0.582458 1.17449,0 2.24393,-0.183934 3.18925,-0.582458 0.97396,-0.390863 1.71876,-1.019309 2.26303,-1.877672 0.57291,-0.8507 0.86893,-1.977301 0.86893,-3.341487 m -3.15105,0 c 0,-1.203241 -0.21962,-2.161236 -0.7066,-2.919968 -0.48699,-0.73574 -1.31772,-1.118938 -2.46356,-1.149595 -1.15539,0.03067 -1.97656,0.413855 -2.46355,1.149595 -0.48698,0.758732 -0.71614,1.716727 -0.69704,2.919968 -0.0191,1.203241 0.21007,2.176565 0.69704,2.935297 0.48699,0.73574 1.30816,1.134267 2.46355,1.157259 1.14584,-0.02299 1.97657,-0.421519 2.46356,-1.157259 0.48698,-0.758732 0.7066,-1.732056 0.7066,-2.935297 m 14.05563,-9.081792 v -1.76271 c -0.35329,-0.06131 -0.7257,-0.130295 -1.14583,-0.160941 -0.3915,-0.05364 -0.7448,-0.09196 -1.05035,-0.09196 -1.45139,0.023 -2.49221,0.329551 -3.11287,0.912012 -0.63022,0.559469 -0.91667,1.302874 -0.88802,2.176565 v 2.391155 h -2.47311 v 1.762712 h 2.47311 v 9.503311 h 3.02693 v -9.503313 h 2.73092 v -1.762726 h -2.73092 v -2.145909 c -0.0191,-1.026972 0.57291,-1.532792 1.7665,-1.548119 0.19099,0 0.41058,0.03064 0.67794,0.06131 0.28648,0.05364 0.52518,0.09963 0.7257,0.168612 m -24.20588,-107.103852 2.22483,4.1462 c 0.13369,0.28357 0.54427,0.88902 0.21961,1.28755 -0.40105,0.4675 -1.35591,0.42918 -1.99567,0.42918 l -5.20402,0.007 c 0.69705,2.11525 3.24654,3.68637 6.28302,3.68637 3.56163,0 6.46443,-2.1689 6.46443,-4.84363 0,-2.67472 -2.9028,-4.85128 -6.46443,-4.85128 -0.52519,0 -1.04081,0.0536 -1.52779,0.13795 m -5.50956,-5.15783 H 90.598859 l -0.496536,1.31054 10.837717,8.20043 4.14412,-9.51097 m 3.37068,4.33013 -1.99568,-3.54841 -3.95314,8.99749 h 1.40365 c 0.0477,-2.38349 1.88109,-4.4451 4.54517,-5.44908 m -19.956684,0.96566 -1.728311,4.69035 c -0.105031,0.2529 -0.429692,0.59778 -1.088546,0.45216 -0.668409,-0.13794 -0.611122,-0.57479 -0.515635,-0.80471 l 1.747411,-4.6367 c -0.267361,-0.0306 -0.534722,-0.0383 -0.802096,-0.0383 -3.571197,0 -6.473984,2.16124 -6.473984,4.83596 0,2.67472 2.902787,4.84362 6.473984,4.84362 3.561653,0 6.464452,-2.1689 6.464452,-4.84362 0,-2.03861 -1.690124,-3.786 -4.077275,-4.49875 m 21.484464,-1.36418 -2.77866,-5.09653 0.53472,-1.11894 h 1.25088 v -1.21857 h -5.18492 v 0.79705 l 2.31078,0.42152 -0.51564,1.11894 H 91.028538 l 0.544279,-1.3182 c 0.124093,-0.32956 0.229174,-0.60546 0.553822,-0.82005 0.324649,-0.19926 0.926227,-0.19926 1.40365,-0.19926 h 2.444464 v -1.2109 h -3.04603 c -0.926214,0 -1.718755,0.23758 -2.205734,0.60545 -0.410592,0.30655 -0.649309,0.84304 -0.81164,1.27988 l -2.482651,6.52969 c -0.439236,-0.0537 -0.849828,-0.092 -1.298619,-0.092 -4.554711,0 -8.259582,2.77436 -8.259582,6.18483 0,3.41045 3.704871,6.19247 8.259582,6.19247 4.554711,0 8.259594,-2.78202 8.259594,-6.19247 0,-2.6594 -2.301221,-4.88195 -5.433182,-5.77097 l 0.563366,-1.35652 10.140667,7.61031 c 0.343746,0.24525 0.725696,0.49049 1.184036,0.60545 0.42969,0.1303 0.97397,0.1303 1.40365,0.1303 l 1.8047,0.007 c 0.71615,2.85865 4.07727,5.02755 8.10681,5.02755 4.5547,0 8.25004,-2.76668 8.25004,-6.17715 0,-3.41046 -3.69534,-6.18481 -8.25004,-6.18481 -0.75435,0 -1.48005,0.10729 -2.1771,0.24525 m -0.90712,1.65541 c -2.03387,0.82771 -3.38978,2.34517 -3.38978,4.19218 h 5.58597 l -2.19619,-4.19219 m -79.435281,50.63579 h 9.290852 l -1.241332,-13.45791 10.809077,2.02327 c 0.09556,0.023 0.200518,0.0306 0.305561,0.0306 0.687509,0 1.231776,-0.42151 1.231776,-0.935 0,-0.22991 -0.105031,-0.43684 -0.296005,-0.59778 l -14.513961,-12.69025 c -0.229173,-0.19927 -0.563378,-0.32955 -0.945314,-0.32955 -0.372405,0 -0.716153,0.13029 -0.945327,0.32955 l -14.513948,12.69152 c -0.18143,0.16094 -0.296005,0.36787 -0.296005,0.59779 0,0.51348 0.553823,0.935 1.24132,0.935 0.09556,0 0.200518,-0.0153 0.296005,-0.0306 l 10.809089,-2.02329 -1.231788,13.45792 m 20.395934,28.808831 v -6.966539 l -17.961026,0.927339 2.702269,-8.100806 c 0.02866,-0.06899 0.03813,-0.145617 0.03813,-0.222259 0,-0.513479 -0.553823,-0.935002 -1.231776,-0.935002 -0.305561,0 -0.592022,0.09196 -0.81164,0.229924 l -16.92978,10.875157 c -0.267362,0.176263 -0.439236,0.429181 -0.439236,0.705083 0,0.283567 0.171874,0.536477 0.439236,0.705085 L 32.772098,-67.6409 c 0.219617,0.137946 0.506078,0.222254 0.81164,0.222254 0.677953,0 1.231775,-0.413853 1.231775,-0.927339 0,-0.07663 -0.0087,-0.153289 -0.03813,-0.22992 l -2.702269,-8.100806 17.961026,0.935004 m 98.42756,38.281483 17.96103,-0.92734 -2.70227,8.100807 c -0.0287,0.07663 -0.0383,0.153269 -0.0383,0.229917 0,0.513486 0.55382,0.927339 1.23177,0.927339 0.30556,0 0.59203,-0.08431 0.81164,-0.222254 l 16.92977,-10.882823 c 0.26736,-0.168613 0.43925,-0.421519 0.43925,-0.705085 0,-0.283566 -0.17189,-0.536478 -0.43925,-0.705085 L 165.72765,-52.5278 c -0.21961,-0.137947 -0.50608,-0.222255 -0.81163,-0.222255 -0.67796,0 -1.23179,0.421517 -1.23179,0.927339 0,0.08431 0.009,0.160941 0.0383,0.229918 l 2.70227,8.100807 -17.96102,-0.927341 v 6.958879"
     id="path1002-3-4"
     clip-path="url(#clipPath1030-1-8)"
     transform="matrix(1.0130914,0,0,0.99187956,-6.9326194,168.22451)" />
  <text
     xml:space="preserve"
     style="font-style:normal;font-weight:normal;font-size:30px;line-height:1.25;font-family:sans-serif;fill:#d0b059;fill-opacity:1;stroke:none;stroke-width:0.75"
     x="33.933441"
     y="32.211689"
     id="text1197"><tspan
       sodipodi:role="line"
       id="tspan1195"
       x="33.933441"
       y="32.211689"
       style="fill:#d0b059;fill-opacity:1;stroke-width:0.75">HOTELS</tspan></text>
  <path
     style="fill:#d0ae54;fill-opacity:1;fill-rule:nonzero;stroke:none;stroke-width:1.09839"
     d="M 167.82103,73.99422 185.35007,56.66741 167.82103,39.32321 H 4.6602123 V 73.99422 H 167.82103"
     id="path882" />
  <path
     style="fill:#d0ae54;fill-opacity:1;fill-rule:nonzero;stroke:none;stroke-width:1.09839"
     d="m 167.82102,109.38785 17.52904,-17.326807 -17.52904,-17.3442 H 4.6602117 V 109.38785 H 167.82102"
     id="path882-8" />
  <path
     style="fill:#d0ae54;fill-opacity:1;fill-rule:nonzero;stroke:none;stroke-width:1.09839"
     d="m 167.82102,144.78149 17.52904,-17.32681 -17.52904,-17.3442 H 4.6602117 v 34.67101 H 167.82102"
     id="path882-4" />
</svg>
