<?xml version="1.0" encoding="UTF-8"?>
<svg xmlns="http://www.w3.org/2000/svg" xmlns:xlink="http://www.w3.org/1999/xlink" width="121pt" height="106pt" viewBox="0 0 121 106" version="1.1">
<g id="surface1">
<path style=" stroke:none;fill-rule:nonzero;fill:rgb(93.527222%,17.272949%,18.882751%);fill-opacity:1;" d="M 5.402344 105.527344 L 115.777344 105.527344 C 119.597656 105.527344 121.984375 101.394531 120.078125 98.085938 L 64.886719 2.496094 C 62.976562 -0.8125 58.203125 -0.8125 56.296875 2.496094 L 1.105469 98.085938 C -0.804688 101.394531 1.582031 105.527344 5.402344 105.527344 "/>
<path style=" stroke:none;fill-rule:nonzero;fill:rgb(100%,100%,100%);fill-opacity:1;" d="M 13.992188 95.605469 L 107.1875 95.605469 L 60.589844 14.902344 L 13.992188 95.605469 "/>
<path style=" stroke:none;fill-rule:nonzero;fill:rgb(13.729858%,12.159729%,12.548828%);fill-opacity:1;" d="M 26.6875 89.796875 L 32.617188 77.476562 L 36.699219 77.472656 L 31.5625 89.832031 L 26.6875 89.796875 "/>
<path style=" stroke:none;fill-rule:nonzero;fill:rgb(13.729858%,12.159729%,12.548828%);fill-opacity:1;" d="M 37.054688 89.816406 L 41.203125 77.464844 L 45.023438 77.457031 L 41.578125 89.789062 L 37.054688 89.816406 "/>
<path style=" stroke:none;fill-rule:nonzero;fill:rgb(13.729858%,12.159729%,12.548828%);fill-opacity:1;" d="M 47.417969 89.804688 L 49.847656 77.464844 L 53.597656 77.441406 L 51.914062 89.804688 L 47.417969 89.804688 "/>
<path style=" stroke:none;fill-rule:nonzero;fill:rgb(13.729858%,12.159729%,12.548828%);fill-opacity:1;" d="M 57.132812 89.839844 L 58.070312 87.71875 L 59.164062 87.644531 L 62.222656 77.457031 L 62.878906 77.46875 L 61.882812 89.839844 L 57.132812 89.839844 "/>
<path style=" stroke:none;fill-rule:nonzero;fill:rgb(13.729858%,12.159729%,12.548828%);fill-opacity:1;" d="M 69.109375 89.871094 L 67.773438 78.085938 L 72.4375 85.429688 L 71.476562 85.941406 C 70.898438 86.253906 70.855469 87.425781 70.945312 87.773438 L 72.90625 87.757812 L 73.210938 89.867188 L 69.109375 89.871094 "/>
<path style=" stroke:none;fill-rule:nonzero;fill:rgb(13.729858%,12.159729%,12.548828%);fill-opacity:1;" d="M 79.765625 89.886719 L 76.46875 77.421875 L 80.316406 77.402344 L 84.339844 89.851562 L 79.765625 89.886719 "/>
<path style=" stroke:none;fill-rule:nonzero;fill:rgb(13.729858%,12.159729%,12.548828%);fill-opacity:1;" d="M 89.78125 89.933594 L 84.746094 77.410156 L 88.800781 77.378906 L 94.714844 89.847656 L 89.78125 89.933594 "/>
<path style=" stroke:none;fill-rule:nonzero;fill:rgb(13.729858%,12.159729%,12.548828%);fill-opacity:1;" d="M 73.140625 63.671875 L 72.417969 63.714844 L 72.492188 63.894531 C 72.523438 63.976562 72.578125 64.109375 72.640625 64.175781 L 72.863281 64.367188 C 73.011719 64.539062 73.023438 64.777344 73.007812 65.027344 C 72.984375 65.386719 72.949219 65.859375 72.6875 66.035156 C 72.175781 66.363281 71.167969 65.972656 70.960938 65.382812 C 70.847656 65.078125 70.902344 64.621094 70.910156 64.363281 L 70.976562 63.738281 L 70.460938 63.757812 L 69.757812 57.402344 L 67.03125 54.867188 L 67.328125 61.78125 L 69.65625 66.609375 L 68.628906 67.226562 L 71.300781 74.167969 L 77.003906 84.105469 L 76.578125 84.363281 L 77.09375 84.972656 C 77.292969 85.195312 77.304688 85.929688 77.304688 86.210938 L 74.785156 87.164062 L 72.015625 87.164062 L 71.996094 86.644531 C 72.019531 86.351562 72.300781 86.089844 72.59375 85.972656 L 73.21875 85.777344 C 73.761719 85.605469 73.757812 85.386719 73.859375 85.078125 L 73.339844 85.242188 L 67.742188 76.457031 L 63.867188 68.511719 L 58.707031 85.128906 L 58.414062 85.050781 L 57.914062 87.214844 L 53.058594 85.839844 C 53.003906 85.726562 53.007812 85.566406 53.0625 85.460938 C 53.160156 85.242188 53.386719 85.097656 53.609375 85.03125 L 55.316406 84.917969 C 55.792969 84.890625 56 84.566406 56.105469 84.242188 L 54.769531 83.683594 L 58.683594 67.675781 L 58.058594 67.417969 L 59.042969 61.59375 L 57.488281 57.402344 L 56.191406 59.195312 L 51.226562 63.097656 L 50.949219 62.773438 L 50.855469 63.175781 L 50.753906 63.675781 C 50.710938 63.746094 50.632812 63.796875 50.570312 63.839844 C 50.484375 63.890625 50.386719 63.929688 50.289062 63.941406 L 49.863281 64 C 49.753906 64.054688 49.640625 64.148438 49.554688 64.238281 L 49.289062 64.5 C 49.039062 64.753906 48.554688 64.742188 48.417969 64.433594 C 48.128906 63.765625 48.429688 62.878906 48.800781 62.34375 C 48.835938 62.292969 48.914062 62.21875 48.976562 62.167969 L 49.789062 61.550781 L 49.527344 61.136719 L 54.082031 57.136719 L 55.992188 49.816406 L 56.160156 49.195312 C 56.179688 49.140625 56.207031 49.082031 56.234375 49.03125 C 56.289062 48.921875 56.363281 48.828125 56.449219 48.738281 C 56.492188 48.699219 56.542969 48.664062 56.589844 48.628906 C 56.78125 48.496094 57.039062 48.390625 57.257812 48.328125 L 59.519531 47.652344 C 59.539062 47.410156 59.496094 47.132812 59.238281 47.023438 C 59.105469 46.972656 58.617188 46.894531 58.484375 46.835938 C 58.308594 46.800781 58.097656 46.71875 57.984375 46.597656 C 57.851562 46.464844 57.832031 46.257812 57.839844 46.074219 C 57.839844 46.046875 57.855469 45.695312 57.855469 45.640625 C 57.847656 45.476562 57.765625 45.390625 57.726562 45.363281 L 57.59375 45.300781 C 57.476562 45.253906 57.449219 45.097656 57.476562 44.976562 C 57.5 44.910156 57.554688 44.828125 57.59375 44.769531 L 57.8125 44.46875 L 57.941406 44.257812 C 57.902344 44.144531 57.890625 43.910156 57.890625 43.78125 L 57.925781 43.207031 L 56.640625 43.097656 L 56.753906 42.515625 L 58.011719 42.476562 L 58.320312 41.355469 C 58.398438 41.160156 58.5625 40.753906 58.683594 40.578125 C 58.730469 40.515625 58.789062 40.449219 58.859375 40.40625 C 58.933594 40.359375 59.03125 40.335938 59.117188 40.332031 C 59.230469 40.324219 59.414062 40.355469 59.523438 40.382812 L 60.714844 40.65625 C 60.949219 40.65625 61.339844 40.542969 61.574219 40.523438 C 61.898438 40.496094 62.351562 40.457031 62.613281 40.660156 C 62.835938 40.84375 62.90625 41.164062 62.960938 41.441406 L 63.113281 42.105469 L 63.917969 42.183594 L 63.882812 42.960938 L 62.890625 43.027344 C 62.996094 43.023438 63 44.074219 62.730469 44.609375 L 62.34375 45.386719 C 62.242188 45.585938 62.191406 45.804688 62.234375 46.03125 C 62.285156 46.269531 62.414062 46.492188 62.59375 46.667969 C 62.601562 46.679688 62.710938 46.769531 62.710938 46.769531 L 63.796875 46.707031 C 64.019531 46.726562 64.253906 46.839844 64.40625 46.980469 L 71.457031 54.105469 C 71.871094 54.53125 72.21875 55.136719 72.285156 55.765625 L 73.140625 63.671875 "/>
</g>
</svg>
