<?xml version="1.0" encoding="UTF-8"?>
<svg xmlns="http://www.w3.org/2000/svg" xmlns:xlink="http://www.w3.org/1999/xlink" width="121pt" height="106pt" viewBox="0 0 121 106" version="1.1">
<g id="surface1">
<path style=" stroke:none;fill-rule:nonzero;fill:rgb(93.527222%,17.272949%,18.882751%);fill-opacity:1;" d="M 5.210938 105.527344 L 115.589844 105.527344 C 119.40625 105.527344 121.792969 101.394531 119.886719 98.085938 L 64.695312 2.496094 C 62.785156 -0.808594 58.011719 -0.808594 56.105469 2.496094 L 0.914062 98.085938 C -0.996094 101.394531 1.390625 105.527344 5.210938 105.527344 "/>
<path style=" stroke:none;fill-rule:nonzero;fill:rgb(100%,100%,100%);fill-opacity:1;" d="M 13.800781 95.605469 L 106.996094 95.605469 L 60.398438 14.902344 L 13.800781 95.605469 "/>
<path style=" stroke:none;fill-rule:nonzero;fill:rgb(13.729858%,12.159729%,12.548828%);fill-opacity:1;" d="M 42.988281 56.628906 L 44.753906 58.644531 L 45.796875 57.949219 C 45.90625 57.875 46.136719 57.734375 46.257812 57.785156 C 46.328125 57.808594 46.386719 57.898438 46.421875 57.960938 L 46.625 59.632812 C 47.234375 59.953125 48.140625 60.679688 48.730469 61.007812 C 49.097656 61.203125 49.507812 61.363281 49.902344 61.484375 C 50.570312 61.699219 51.566406 61.78125 52.261719 61.78125 C 53.464844 61.78125 55.824219 62.054688 57.011719 62.117188 C 57.824219 62.164062 59.28125 62.222656 60.101562 62.253906 C 61.457031 62.316406 63.5625 62.246094 64.910156 62.066406 L 70.230469 61.152344 C 71.460938 60.929688 72.851562 60.65625 74.058594 60.917969 C 74.566406 61.023438 75.042969 61.246094 75.445312 61.578125 C 76.179688 62.179688 76.542969 63.160156 76.621094 64.105469 C 76.695312 65.003906 76.632812 66.585938 76.730469 67.476562 L 77.449219 71.238281 L 78.195312 73.960938 C 78.339844 74.316406 78.417969 74.695312 78.441406 75.078125 C 78.472656 75.457031 78.445312 75.855469 78.335938 76.214844 C 78.269531 76.441406 77.992188 77.46875 77.351562 76.023438 L 76.15625 70.597656 C 76.085938 70.207031 75.792969 68.738281 75.675781 68.363281 C 75.636719 70.070312 75.097656 72.976562 75.429688 74.6875 C 75.488281 74.957031 75.898438 75.488281 76.085938 75.703125 C 76.332031 75.976562 76.902344 76.699219 77.019531 77.042969 C 77.121094 77.355469 77.121094 77.820312 77.027344 78.144531 C 77.011719 78.199219 76.882812 78.511719 76.859375 78.5625 C 76.707031 78.933594 76.617188 79.339844 76.582031 79.753906 C 76.570312 79.898438 76.527344 80.4375 76.484375 80.574219 C 76.402344 80.84375 76.183594 81.121094 76.007812 81.335938 L 76.292969 82.625 L 83.289062 82.625 L 83.289062 84.265625 L 37.511719 84.265625 L 37.511719 82.625 L 52.179688 82.625 C 52.351562 82.429688 52.707031 82.074219 52.859375 81.84375 C 52.960938 81.691406 53.046875 81.53125 53.109375 81.355469 C 53.34375 80.695312 53.265625 79.808594 53.21875 79.105469 C 53.160156 78.222656 53.101562 77.253906 52.949219 76.367188 C 52.847656 75.777344 52.726562 75.082031 52.367188 74.617188 C 51.996094 74.144531 51.246094 73.777344 50.816406 73.382812 C 49.535156 72.230469 48.546875 68.925781 47.15625 67.933594 C 46.519531 67.484375 45.710938 67.296875 44.9375 67.34375 C 44.253906 67.390625 43.53125 67.613281 42.878906 67.859375 C 42.636719 67.953125 42.347656 68.144531 42.1875 68.34375 L 41.53125 69.070312 C 41.367188 69.1875 41.144531 69.246094 40.933594 69.210938 L 39.160156 68.074219 C 39.082031 67.980469 39.007812 67.875 38.964844 67.765625 C 38.910156 67.632812 38.886719 67.480469 38.925781 67.347656 C 38.945312 67.273438 39.007812 67.175781 39.050781 67.109375 L 40.375 65.5 C 40.851562 64.929688 41.738281 63.703125 42.082031 63.042969 L 42.597656 62.03125 L 43.03125 61.308594 L 43.371094 60.4375 L 43.800781 59.671875 L 43.320312 58.535156 C 43.070312 57.957031 42.941406 57.257812 42.988281 56.628906 "/>
<path style=" stroke:none;fill-rule:nonzero;fill:rgb(100%,100%,100%);fill-opacity:1;" d="M 55 82.625 C 54.992188 82.550781 54.984375 82.445312 54.972656 82.367188 C 54.941406 82.085938 54.867188 81.757812 54.757812 81.488281 C 54.90625 81.167969 55.070312 80.757812 55.15625 80.421875 C 55.242188 80.074219 55.277344 79.664062 55.289062 79.304688 C 55.3125 78.847656 55.1875 78.042969 55.210938 77.585938 L 55.523438 76.429688 C 55.746094 75.609375 55.855469 74.574219 55.902344 74.035156 C 56.675781 74.175781 57.6875 74.265625 58.472656 74.273438 C 59.199219 74.277344 60.007812 74.273438 60.730469 74.21875 C 61.554688 74.152344 62.378906 74.035156 63.191406 73.867188 C 63.796875 73.746094 64.5625 73.554688 65.160156 73.402344 C 65.695312 73.265625 66.449219 73.046875 66.929688 72.804688 C 66.96875 72.90625 67.023438 73.035156 67.0625 73.132812 C 67.171875 73.390625 67.3125 73.679688 67.46875 73.910156 C 67.625 74.136719 67.890625 74.410156 68.078125 74.609375 C 68.253906 74.800781 68.785156 75.179688 68.785156 75.179688 C 68.785156 75.304688 68.882812 75.964844 68.898438 76.007812 C 68.933594 76.109375 69.007812 76.230469 69.109375 76.253906 C 69.203125 76.273438 69.292969 76.230469 69.363281 76.167969 C 69.398438 76.136719 69.472656 75.992188 69.5 75.953125 L 69.835938 75.324219 C 69.835938 75.324219 70.472656 75.332031 70.476562 75.335938 L 70.601562 76.058594 C 70.652344 76.328125 70.824219 76.445312 70.96875 76.433594 C 71.039062 76.429688 71.132812 76.386719 71.191406 76.320312 C 71.417969 76.09375 71.261719 75.566406 71.386719 75.269531 C 71.519531 75.292969 71.925781 75.195312 72.070312 75.132812 C 72.285156 75.390625 72.492188 75.703125 72.75 75.917969 C 73.035156 76.148438 73.359375 76.367188 73.671875 76.558594 C 73.902344 76.699219 74.320312 76.96875 74.5 77.171875 C 74.710938 77.414062 74.804688 77.753906 74.921875 78.039062 C 75.328125 79.050781 75.09375 79.609375 74.988281 80.328125 C 74.964844 80.511719 74.898438 80.804688 74.859375 80.984375 C 74.824219 81.164062 74.714844 81.394531 74.601562 81.535156 L 73.734375 82.625 L 55 82.625 "/>
</g>
</svg>
