<?xml version="1.0" encoding="UTF-8"?>
<svg xmlns="http://www.w3.org/2000/svg" xmlns:xlink="http://www.w3.org/1999/xlink" width="121pt" height="106pt" viewBox="0 0 121 106" version="1.1">
<g id="surface1">
<path style=" stroke:none;fill-rule:nonzero;fill:rgb(93.527222%,17.272949%,18.882751%);fill-opacity:1;" d="M 5.210938 105.527344 L 115.585938 105.527344 C 119.40625 105.527344 121.792969 101.394531 119.886719 98.085938 L 64.695312 2.496094 C 62.785156 -0.8125 58.011719 -0.8125 56.101562 2.496094 L 0.910156 98.085938 C -0.996094 101.394531 1.390625 105.527344 5.210938 105.527344 "/>
<path style=" stroke:none;fill-rule:nonzero;fill:rgb(100%,100%,100%);fill-opacity:1;" d="M 13.800781 95.605469 L 106.996094 95.605469 L 60.398438 14.902344 L 13.800781 95.605469 "/>
<path style=" stroke:none;fill-rule:nonzero;fill:rgb(13.729858%,12.159729%,12.548828%);fill-opacity:1;" d="M 35.59375 68.773438 L 40.542969 65.753906 L 51.859375 65.753906 L 62.976562 48.832031 L 67.21875 48.832031 L 61.660156 63.433594 L 61.660156 65.753906 L 67.925781 65.753906 L 77.523438 66.964844 L 82.371094 61.523438 L 84.089844 61.523438 L 81.261719 67.367188 L 85.203125 67.867188 L 85.203125 69.277344 L 81.160156 69.882812 L 83.890625 75.726562 L 82.371094 75.726562 L 77.625 70.386719 L 68.128906 71.597656 L 61.660156 71.597656 L 61.660156 73.910156 L 67.015625 88.515625 L 62.976562 88.515625 L 51.757812 71.597656 L 40.445312 71.597656 L 35.59375 68.773438 "/>
</g>
</svg>
