<?xml version="1.0" encoding="UTF-8"?>
<svg xmlns="http://www.w3.org/2000/svg" xmlns:xlink="http://www.w3.org/1999/xlink" width="86pt" height="86pt" viewBox="0 0 86 86" version="1.1">
<g id="surface1">
<path style=" stroke:none;fill-rule:nonzero;fill:rgb(93.527222%,17.272949%,18.882751%);fill-opacity:1;" d="M 42.523438 0.648438 C 66.007812 0.648438 85.042969 19.683594 85.042969 43.167969 C 85.042969 66.652344 66.007812 85.6875 42.523438 85.6875 C 19.042969 85.6875 0.00390625 66.652344 0.00390625 43.167969 C 0.00390625 19.683594 19.042969 0.648438 42.523438 0.648438 "/>
<path style=" stroke:none;fill-rule:nonzero;fill:rgb(100%,100%,100%);fill-opacity:1;" d="M 42.527344 14.816406 C 46.378906 14.816406 50.054688 15.558594 53.558594 17.039062 C 56.949219 18.472656 59.953125 20.5 62.574219 23.121094 C 65.191406 25.738281 67.21875 28.746094 68.652344 32.136719 C 70.132812 35.636719 70.875 39.3125 70.875 43.164062 C 70.875 47.015625 70.132812 50.691406 68.652344 54.195312 C 67.21875 57.582031 65.191406 60.589844 62.574219 63.207031 C 59.953125 65.828125 56.949219 67.855469 53.558594 69.289062 C 50.054688 70.769531 46.378906 71.511719 42.527344 71.511719 C 38.675781 71.511719 35 70.769531 31.5 69.289062 C 28.109375 67.855469 25.105469 65.828125 22.484375 63.207031 C 19.863281 60.589844 17.835938 57.582031 16.402344 54.195312 C 14.921875 50.691406 14.179688 47.015625 14.179688 43.164062 C 14.179688 39.3125 14.921875 35.636719 16.402344 32.136719 C 17.835938 28.746094 19.863281 25.738281 22.484375 23.121094 C 25.105469 20.5 28.109375 18.472656 31.5 17.039062 C 35 15.558594 38.675781 14.816406 42.527344 14.816406 "/>
<path style=" stroke:none;fill-rule:nonzero;fill:rgb(13.729858%,12.159729%,12.548828%);fill-opacity:1;" d="M 22.207031 42.375 L 21.914062 42.054688 C 21.5 41.609375 24.042969 40.203125 25.160156 39.8125 C 25.945312 39.539062 28.019531 39.171875 28.460938 39.171875 L 28.460938 37.9375 C 28.460938 37.875 28.460938 37.640625 28.578125 37.523438 C 28.695312 37.40625 28.964844 37.445312 29.050781 37.464844 C 29.222656 37.503906 29.640625 37.640625 29.640625 37.640625 C 29.699219 37.582031 29.816406 37.464844 29.875 37.40625 C 29.992188 37.289062 30.820312 36.757812 31.171875 36.699219 C 31.820312 36.640625 32.351562 36.757812 32.941406 36.933594 L 33.652344 37.171875 C 33.894531 37.25 34.410156 36.808594 34.652344 36.816406 C 35.089844 36.832031 37.179688 37.539062 37.074219 37.121094 L 36.71875 35.757812 C 36.664062 35.558594 36.34375 34.335938 36.1875 34.226562 C 36.140625 34.195312 36.027344 34.238281 35.945312 34.300781 C 35.726562 34.457031 35.339844 34.410156 35.285156 34.175781 C 35.242188 34.003906 35.171875 33.8125 35.066406 33.699219 C 34.960938 33.582031 34.355469 33.476562 34.179688 33.460938 C 34.085938 33.457031 33.984375 33.382812 34.003906 33.285156 C 34.046875 33.054688 34.121094 32.816406 33.945312 32.519531 L 33.53125 31.695312 C 33.414062 31.519531 33.414062 31.226562 33.414062 31.050781 C 33.414062 30.8125 33.414062 30.578125 33.472656 30.34375 C 33.652344 29.222656 34.828125 28.636719 35.773438 28.578125 C 36.539062 28.519531 37.898438 28.636719 38.429688 30.695312 C 38.488281 30.929688 38.488281 31.285156 38.488281 31.460938 C 38.589844 31.460938 40.585938 31.566406 41.257812 31.8125 C 42.046875 32.105469 44.597656 34.027344 45.859375 35.285156 C 46.699219 35.914062 48.277344 37.285156 49.164062 38.464844 C 49.351562 38.84375 49.589844 39.285156 49.503906 39.929688 C 49.480469 40.089844 49.28125 40.878906 49.105469 41.054688 L 51.34375 42.527344 L 52.820312 40.761719 C 53 40.585938 53.023438 40.355469 52.964844 40.207031 C 52.875 39.980469 52.523438 39.9375 52.171875 39.820312 L 50.695312 39.289062 C 50.636719 39.230469 50.195312 39.140625 50.265625 38.640625 C 50.3125 38.3125 50.621094 38.171875 50.757812 38.171875 L 59.957031 37.996094 L 61.195312 38.054688 C 61.34375 38.058594 61.5625 38.246094 61.660156 38.488281 C 61.804688 38.84375 61.6875 39.152344 61.59375 39.257812 L 60.867188 40.023438 C 60.835938 40.207031 60.90625 40.304688 61.019531 40.40625 C 61.105469 40.484375 62.453125 41.625 62.789062 42.289062 C 62.90625 42.46875 62.910156 43.132812 63.082031 43.125 C 63.449219 43.113281 63.789062 43.351562 63.789062 43.644531 L 63.789062 47.589844 C 63.789062 47.648438 63.773438 47.800781 63.730469 47.882812 C 63.671875 47.992188 63.417969 48.046875 63.25 48.042969 C 62.910156 48.03125 62.667969 47.882812 62.609375 47.882812 C 62.609375 47.941406 61.550781 51.617188 57.242188 51.648438 C 52.101562 51.6875 51.230469 46.878906 51.226562 46.882812 L 46.265625 48.871094 L 37.601562 48.882812 C 37.425781 48.882812 36.488281 48.902344 36.351562 48.273438 C 36.253906 47.816406 36.953125 47.175781 37.011719 47.117188 L 34.949219 44.351562 C 34.949219 44.351562 34.769531 43.996094 34.476562 44.113281 C 34.238281 44.171875 34.238281 44.527344 34.238281 44.527344 L 34.21875 46.234375 C 34.21875 46.292969 34.21875 46.566406 34.0625 46.707031 C 33.871094 46.878906 33.480469 46.765625 33.3125 46.765625 C 32.769531 49.558594 30.304688 51.667969 27.347656 51.667969 C 23.992188 51.667969 21.273438 48.953125 21.273438 45.605469 C 21.273438 44.417969 21.613281 43.308594 22.207031 42.375 "/>
<path style=" stroke:none;fill-rule:nonzero;fill:rgb(100%,100%,100%);fill-opacity:1;" d="M 37.535156 45.242188 L 35.945312 42.710938 C 35.761719 42.300781 35.761719 41.769531 36.058594 41.414062 C 36.296875 41.179688 36.710938 41.179688 37.0625 41.535156 C 37.535156 42.007812 37.710938 42.945312 37.710938 43.359375 C 37.710938 43.832031 37.535156 44.59375 37.535156 45.242188 "/>
<path style=" stroke:none;fill-rule:nonzero;fill:rgb(100%,100%,100%);fill-opacity:1;" d="M 45.90625 46.003906 L 44.253906 45.828125 C 44.253906 45.828125 44.898438 44.652344 45.488281 44.0625 C 45.960938 43.59375 46.671875 43.121094 47.144531 42.828125 L 45.90625 46.003906 "/>
<path style=" stroke:none;fill-rule:nonzero;fill:rgb(100%,100%,100%);fill-opacity:1;" d="M 35.410156 39.46875 L 31.695312 39.46875 C 31.695312 39.46875 32.222656 38.289062 33.285156 38.347656 C 33.644531 38.347656 33.878906 38.289062 34.347656 38.585938 C 34.761719 38.882812 35.113281 39.171875 35.410156 39.46875 "/>
<path style=" stroke:none;fill-rule:nonzero;fill:rgb(100%,100%,100%);fill-opacity:1;" d="M 28.542969 44.933594 L 29.230469 43.902344 C 29.691406 44.371094 29.972656 45 29.972656 45.710938 C 29.972656 47.140625 28.808594 48.300781 27.375 48.300781 C 25.941406 48.300781 24.777344 47.140625 24.777344 45.710938 C 24.777344 44.316406 25.882812 43.179688 27.261719 43.117188 L 27.324219 44.300781 C 26.570312 44.324219 25.964844 44.945312 25.964844 45.703125 C 25.964844 46.472656 26.59375 47.101562 27.367188 47.101562 C 28.144531 47.101562 28.773438 46.472656 28.773438 45.703125 C 28.773438 45.417969 28.6875 45.152344 28.542969 44.933594 "/>
<path style=" stroke:none;fill-rule:nonzero;fill:rgb(100%,100%,100%);fill-opacity:1;" d="M 58.378906 46.25 L 59.417969 46.765625 C 59.023438 47.683594 58.105469 48.324219 57.039062 48.324219 C 55.613281 48.324219 54.453125 47.167969 54.453125 45.742188 C 54.453125 45.273438 54.578125 44.832031 54.796875 44.453125 L 55.863281 44.972656 C 55.714844 45.199219 55.625 45.46875 55.625 45.757812 C 55.625 46.539062 56.261719 47.175781 57.046875 47.175781 C 57.65625 47.175781 58.179688 46.789062 58.378906 46.25 "/>
<path style=" stroke:none;fill-rule:nonzero;fill:rgb(100%,100%,100%);fill-opacity:1;" d="M 59.5 44.929688 L 58.371094 45.246094 C 58.167969 44.714844 57.652344 44.339844 57.046875 44.339844 C 56.914062 44.339844 56.789062 44.355469 56.667969 44.390625 L 56.222656 43.289062 C 56.480469 43.203125 56.753906 43.15625 57.039062 43.15625 C 58.1875 43.15625 59.160156 43.902344 59.5 44.929688 "/>
</g>
</svg>
