<?xml version="1.0" encoding="UTF-8"?>
<svg xmlns="http://www.w3.org/2000/svg" xmlns:xlink="http://www.w3.org/1999/xlink" width="86pt" height="86pt" viewBox="0 0 86 86" version="1.1">
<g id="surface1">
<path style=" stroke:none;fill-rule:nonzero;fill:rgb(93.527222%,17.272949%,18.882751%);fill-opacity:1;" d="M 42.523438 0.648438 C 66.007812 0.648438 85.042969 19.683594 85.042969 43.167969 C 85.042969 66.652344 66.007812 85.6875 42.523438 85.6875 C 19.042969 85.6875 0.00390625 66.652344 0.00390625 43.167969 C 0.00390625 19.683594 19.042969 0.648438 42.523438 0.648438 "/>
<path style=" stroke:none;fill-rule:nonzero;fill:rgb(100%,100%,100%);fill-opacity:1;" d="M 42.527344 14.816406 C 46.378906 14.816406 50.054688 15.558594 53.558594 17.039062 C 56.949219 18.472656 59.953125 20.5 62.574219 23.121094 C 65.191406 25.738281 67.21875 28.746094 68.652344 32.136719 C 70.132812 35.636719 70.875 39.3125 70.875 43.164062 C 70.875 47.015625 70.132812 50.691406 68.652344 54.195312 C 67.21875 57.582031 65.191406 60.589844 62.574219 63.207031 C 59.953125 65.828125 56.949219 67.855469 53.558594 69.289062 C 50.054688 70.769531 46.378906 71.511719 42.527344 71.511719 C 38.675781 71.511719 35 70.769531 31.5 69.289062 C 28.109375 67.855469 25.105469 65.828125 22.484375 63.207031 C 19.863281 60.589844 17.835938 57.582031 16.402344 54.195312 C 14.921875 50.691406 14.179688 47.015625 14.179688 43.164062 C 14.179688 39.3125 14.921875 35.636719 16.402344 32.136719 C 17.835938 28.746094 19.863281 25.738281 22.484375 23.121094 C 25.105469 20.5 28.109375 18.472656 31.5 17.039062 C 35 15.558594 38.675781 14.816406 42.527344 14.816406 "/>
<path style=" stroke:none;fill-rule:nonzero;fill:rgb(13.729858%,12.159729%,12.548828%);fill-opacity:1;" d="M 48.503906 48.429688 L 43.476562 48.535156 L 43.53125 50.371094 L 44.371094 50.320312 L 44.371094 50.871094 L 42.082031 50.929688 L 42.023438 50.371094 L 42.808594 50.320312 L 42.75 48.535156 L 41.746094 48.535156 C 41.410156 48.535156 41.078125 48.535156 40.796875 48.429688 C 39.734375 48.09375 38.898438 47.257812 38.785156 46.144531 C 38.730469 45.367188 39.066406 44.585938 39.621094 44.03125 C 39.679688 43.976562 39.792969 43.921875 39.792969 43.867188 L 39.175781 42.972656 L 39.457031 42.472656 C 39.511719 42.253906 39.679688 41.972656 39.679688 41.753906 L 35.378906 39.136719 C 35.210938 39.023438 34.929688 38.859375 34.765625 38.695312 C 34.597656 38.582031 34.429688 38.414062 34.320312 38.246094 C 34.152344 38.082031 33.816406 37.136719 33.816406 36.96875 L 32.921875 38.695312 L 33.144531 38.804688 C 34.484375 39.859375 34.929688 40.25 35.488281 41.25 C 36.21875 42.363281 36.550781 43.644531 36.664062 44.980469 C 36.664062 44.980469 36.496094 45.144531 36.441406 45.144531 L 36.050781 45.199219 C 36.164062 50.09375 31.300781 53.542969 26.664062 51.929688 C 22.144531 50.320312 20.523438 44.757812 23.484375 40.972656 L 23.207031 40.75 C 23.035156 40.640625 22.925781 40.472656 23.035156 40.359375 L 23.261719 40.136719 C 23.652344 39.75 24.265625 39.195312 24.769531 38.859375 C 25.550781 38.359375 26.390625 37.96875 27.28125 37.804688 C 28.789062 37.46875 30.296875 37.582031 31.75 38.136719 C 31.859375 38.136719 32.03125 38.195312 32.140625 38.246094 L 33.199219 36.023438 C 33.144531 36.023438 32.085938 36.300781 31.972656 36.300781 C 31.917969 36.300781 31.804688 36.300781 31.75 36.246094 C 31.695312 36.1875 31.636719 36.132812 31.636719 36.023438 L 31.636719 34.355469 L 31.636719 34.46875 C 31.636719 34.46875 31.582031 34.132812 31.75 33.964844 C 31.804688 33.910156 31.972656 33.855469 32.085938 33.855469 C 32.363281 33.855469 32.640625 33.910156 32.921875 33.964844 L 34.097656 34.1875 L 34.597656 33.074219 C 34.039062 33.074219 33.367188 32.40625 33.367188 31.683594 C 33.367188 31.125 33.480469 30.460938 34.152344 30.460938 C 34.320312 30.460938 34.65625 30.40625 34.820312 30.40625 L 40.074219 30.460938 L 40.074219 31.125 L 34.765625 31.125 C 34.375 31.125 34.097656 31.347656 34.097656 31.628906 C 34.097656 32.132812 34.320312 32.238281 34.597656 32.296875 L 35.882812 32.632812 L 35.042969 34.410156 C 35.15625 34.355469 35.992188 34.132812 36.441406 34.1875 C 37.167969 34.296875 37.835938 34.46875 38.5625 34.96875 C 39.457031 35.523438 40.125 36.632812 40.296875 37.46875 L 40.347656 38.804688 C 40.347656 39.082031 40.40625 39.359375 40.519531 39.636719 C 40.796875 40.195312 41.464844 40.695312 42.191406 41.085938 C 42.585938 41.25 43.367188 41.417969 43.8125 41.53125 C 44.203125 41.585938 45.152344 41.917969 45.320312 41.640625 L 49.398438 33.796875 C 49.285156 33.796875 48.390625 33.574219 48.109375 33.464844 C 47.609375 33.242188 46.941406 32.960938 46.828125 32.460938 C 46.660156 32.019531 47.164062 31.40625 47.722656 31.574219 C 48.335938 31.574219 49.230469 31.960938 49.953125 31.960938 C 50.570312 32.019531 51.796875 31.851562 52.414062 31.851562 C 53.140625 31.851562 53.417969 32.960938 53.027344 33.464844 C 52.914062 33.742188 52.414062 34.132812 51.855469 34.242188 C 51.519531 34.296875 50.679688 34.242188 50.625 34.132812 L 52.355469 38.023438 C 52.523438 37.96875 52.746094 37.859375 52.972656 37.804688 C 53.699219 37.636719 54.535156 37.582031 55.320312 37.636719 C 57.269531 37.804688 59.113281 38.746094 60.457031 40.195312 C 61.066406 40.808594 61.570312 41.585938 61.792969 42.417969 C 61.851562 42.53125 61.851562 42.644531 61.851562 42.644531 L 62.6875 42.695312 C 62.746094 42.695312 62.96875 42.695312 63.023438 42.753906 C 63.082031 42.808594 63.082031 42.917969 63.082031 43.03125 L 63.082031 46.203125 C 63.082031 46.3125 63.082031 46.421875 62.96875 46.480469 L 61.738281 46.757812 C 60.84375 49.648438 58.277344 51.707031 55.261719 51.929688 C 52.523438 52.097656 49.953125 50.761719 48.503906 48.429688 "/>
<path style=" stroke:none;fill-rule:nonzero;fill:rgb(100%,100%,100%);fill-opacity:1;" d="M 34.46875 45.667969 L 30.335938 45.667969 C 30.335938 46.222656 29.609375 46.722656 28.941406 46.722656 C 27.933594 46.722656 27.097656 45.554688 27.597656 44.71875 C 27.597656 44.609375 27.710938 44.496094 27.769531 44.386719 L 25.421875 41.046875 C 22.238281 43.773438 23.1875 48.894531 27.097656 50.339844 C 30.503906 51.617188 34.191406 49.28125 34.46875 45.667969 "/>
<path style=" stroke:none;fill-rule:nonzero;fill:rgb(100%,100%,100%);fill-opacity:1;" d="M 30.136719 44.476562 L 31.980469 40.695312 C 32.035156 40.75 32.144531 40.808594 32.203125 40.859375 C 32.871094 41.25 33.375 41.863281 33.765625 42.472656 C 34.15625 43.144531 34.382812 43.921875 34.433594 44.644531 C 34.492188 44.757812 34.492188 44.867188 34.492188 44.921875 L 30.417969 45.03125 C 30.417969 44.980469 30.417969 44.867188 30.359375 44.699219 C 30.304688 44.585938 30.195312 44.476562 30.136719 44.476562 "/>
<path style=" stroke:none;fill-rule:nonzero;fill:rgb(100%,100%,100%);fill-opacity:1;" d="M 28.335938 44.027344 L 25.933594 40.691406 C 26.046875 40.636719 26.105469 40.582031 26.214844 40.527344 C 26.886719 40.132812 27.667969 39.914062 28.449219 39.800781 C 29.285156 39.746094 30.179688 39.800781 30.960938 40.132812 C 31.019531 40.191406 31.128906 40.246094 31.183594 40.246094 L 29.398438 43.976562 C 29.339844 43.976562 29.175781 43.863281 28.894531 43.863281 C 28.730469 43.863281 28.507812 43.863281 28.335938 44.027344 "/>
<path style=" stroke:none;fill-rule:nonzero;fill:rgb(100%,100%,100%);fill-opacity:1;" d="M 46.441406 43.164062 L 50.070312 35.097656 L 51.578125 38.378906 C 51.523438 38.433594 51.414062 38.492188 51.355469 38.546875 C 50.460938 38.992188 49.734375 39.605469 49.066406 40.328125 C 48.394531 41.105469 47.78125 41.996094 47.554688 42.996094 C 47.554688 43.054688 47.503906 43.164062 47.503906 43.21875 L 46.441406 43.164062 "/>
<path style=" stroke:none;fill-rule:nonzero;fill:rgb(100%,100%,100%);fill-opacity:1;" d="M 52.457031 40.332031 L 53.683594 43.226562 C 53.683594 43.226562 53.683594 43.28125 53.628906 43.28125 C 53.460938 43.28125 53.125 43.667969 53.125 43.890625 L 49.609375 43.890625 C 49.71875 43.003906 50.113281 42.113281 50.671875 41.445312 C 51.171875 40.945312 51.785156 40.554688 52.457031 40.332031 "/>
<path style=" stroke:none;fill-rule:nonzero;fill:rgb(100%,100%,100%);fill-opacity:1;" d="M 60.230469 44.589844 L 56.9375 44.535156 C 56.9375 44.480469 56.714844 43.8125 56.15625 43.367188 C 55.710938 43.03125 55.148438 42.976562 54.589844 42.976562 L 53.253906 40.03125 C 54.816406 39.527344 56.546875 39.804688 57.890625 40.753906 C 59.226562 41.640625 60.066406 43.03125 60.230469 44.589844 "/>
<path style=" stroke:none;fill-rule:nonzero;fill:rgb(100%,100%,100%);fill-opacity:1;" d="M 54.859375 47.503906 L 54.859375 47.890625 L 56.703125 47.890625 L 56.703125 48.445312 L 50.617188 48.445312 C 50.675781 48.558594 50.726562 48.667969 50.785156 48.726562 C 52.238281 50.617188 54.859375 51.007812 57.039062 50.058594 C 58.882812 49.28125 60.167969 47.558594 60.222656 45.554688 C 60.222656 45.445312 60.222656 45.332031 60.222656 45.277344 L 56.980469 45.277344 C 56.980469 45.890625 56.757812 46.445312 56.371094 46.890625 C 55.976562 47.28125 55.417969 47.503906 54.859375 47.503906 "/>
</g>
</svg>
