<?xml version="1.0" encoding="UTF-8"?>
<svg xmlns="http://www.w3.org/2000/svg" xmlns:xlink="http://www.w3.org/1999/xlink" width="86pt" height="86pt" viewBox="0 0 86 86" version="1.1">
<g id="surface1">
<path style=" stroke:none;fill-rule:nonzero;fill:rgb(93.527222%,17.272949%,18.882751%);fill-opacity:1;" d="M 42.523438 0.648438 C 66.007812 0.648438 85.042969 19.683594 85.042969 43.167969 C 85.042969 66.652344 66.007812 85.6875 42.523438 85.6875 C 19.042969 85.6875 0.00390625 66.652344 0.00390625 43.167969 C 0.00390625 19.683594 19.042969 0.648438 42.523438 0.648438 "/>
<path style=" stroke:none;fill-rule:nonzero;fill:rgb(100%,100%,100%);fill-opacity:1;" d="M 42.527344 14.816406 C 46.378906 14.816406 50.054688 15.558594 53.558594 17.039062 C 56.949219 18.472656 59.953125 20.5 62.574219 23.121094 C 65.191406 25.738281 67.21875 28.746094 68.652344 32.136719 C 70.132812 35.636719 70.875 39.3125 70.875 43.164062 C 70.875 47.015625 70.132812 50.691406 68.652344 54.195312 C 67.21875 57.582031 65.191406 60.589844 62.574219 63.207031 C 59.953125 65.828125 56.949219 67.855469 53.558594 69.289062 C 50.054688 70.769531 46.378906 71.511719 42.527344 71.511719 C 38.675781 71.511719 35 70.769531 31.5 69.289062 C 28.109375 67.855469 25.105469 65.828125 22.484375 63.207031 C 19.863281 60.589844 17.835938 57.582031 16.402344 54.195312 C 14.921875 50.691406 14.179688 47.015625 14.179688 43.164062 C 14.179688 39.3125 14.921875 35.636719 16.402344 32.136719 C 17.835938 28.746094 19.863281 25.738281 22.484375 23.121094 C 25.105469 20.5 28.109375 18.472656 31.5 17.039062 C 35 15.558594 38.675781 14.816406 42.527344 14.816406 "/>
<path style=" stroke:none;fill-rule:nonzero;fill:rgb(13.729858%,12.159729%,12.548828%);fill-opacity:1;" d="M 37.015625 24.664062 C 38.210938 24.007812 39.691406 24.496094 40.351562 25.710938 C 41.015625 26.917969 40.601562 28.457031 39.433594 29.15625 C 38.214844 29.898438 36.652344 29.488281 35.964844 28.21875 C 35.261719 26.945312 35.757812 25.335938 37.015625 24.664062 "/>
<path style=" stroke:none;fill-rule:nonzero;fill:rgb(13.729858%,12.159729%,12.548828%);fill-opacity:1;" d="M 25.347656 55.324219 C 25.40625 55.398438 25.496094 55.539062 25.546875 55.621094 C 25.617188 55.734375 25.792969 55.996094 25.867188 56.109375 C 25.9375 56.191406 26.054688 56.378906 26.125 56.457031 C 26.191406 56.550781 26.304688 56.703125 26.375 56.796875 C 26.414062 56.828125 26.484375 56.90625 26.515625 56.960938 L 36.90625 50.894531 C 36.898438 50.804688 36.898438 50.664062 36.890625 50.570312 C 36.898438 50.378906 36.933594 50.152344 36.953125 49.941406 C 36.980469 49.679688 37.015625 49.386719 37.113281 49.132812 C 37.179688 48.921875 37.277344 48.703125 37.398438 48.515625 C 37.46875 48.40625 37.554688 48.289062 37.625 48.183594 L 37.847656 47.929688 L 42.953125 41.582031 L 39.449219 35.136719 C 39.386719 35.03125 39.320312 34.871094 39.261719 34.761719 C 39.113281 34.464844 38.980469 34.121094 38.898438 33.800781 C 38.804688 33.46875 38.742188 33.121094 38.742188 32.777344 C 38.730469 32.097656 38.910156 31.421875 39.242188 30.828125 C 39.570312 30.214844 40.027344 29.703125 40.625 29.355469 C 41.222656 28.976562 41.945312 28.804688 42.667969 28.839844 C 43.140625 28.863281 43.589844 28.980469 44.015625 29.152344 C 44.34375 29.308594 44.648438 29.492188 44.945312 29.738281 L 45.261719 30.027344 L 51.058594 34.769531 L 55.167969 40.230469 L 58.496094 38.339844 L 58.972656 39.152344 L 56.578125 40.566406 L 59.566406 45.992188 L 61.945312 44.632812 L 62.519531 45.640625 L 38.347656 59.71875 C 38.3125 59.757812 38.066406 59.882812 38.019531 59.910156 C 37.242188 60.304688 36.421875 60.636719 35.597656 60.867188 C 34.753906 61.09375 33.882812 61.214844 32.996094 61.21875 C 32.105469 61.238281 31.21875 61.105469 30.351562 60.859375 C 29.5 60.613281 28.6875 60.257812 27.929688 59.785156 C 27.160156 59.34375 26.425781 58.777344 25.820312 58.136719 C 25.289062 57.589844 24.835938 56.976562 24.449219 56.328125 C 24.386719 56.21875 24.308594 56.089844 24.25 55.984375 L 25.347656 55.324219 "/>
<path style=" stroke:none;fill-rule:nonzero;fill:rgb(100%,100%,100%);fill-opacity:1;" d="M 31.898438 55.023438 L 33.640625 58.15625 L 33.417969 58.769531 L 34.085938 58.933594 L 34.527344 59.753906 C 34.402344 59.785156 34.210938 59.816406 34.09375 59.832031 C 33.734375 59.882812 33.359375 59.917969 33.007812 59.921875 C 32.246094 59.933594 31.449219 59.789062 30.71875 59.578125 C 29.964844 59.363281 29.246094 59.066406 28.578125 58.695312 C 28.203125 58.46875 27.820312 58.207031 27.5 57.921875 C 27.417969 57.851562 27.316406 57.753906 27.246094 57.691406 L 31.898438 55.023438 "/>
<path style=" stroke:none;fill-rule:nonzero;fill:rgb(100%,100%,100%);fill-opacity:1;" d="M 32.921875 54.402344 L 36.675781 52.230469 L 36.054688 57.113281 L 36.621094 57.230469 L 36.066406 57.707031 L 34.703125 57.535156 L 32.921875 54.402344 "/>
<path style=" stroke:none;fill-rule:nonzero;fill:rgb(100%,100%,100%);fill-opacity:1;" d="M 46.542969 53.617188 L 38.886719 58.101562 L 41.058594 51.605469 C 41.085938 51.523438 41.199219 51.195312 41.230469 51.109375 C 41.3125 50.886719 41.394531 50.65625 41.519531 50.449219 C 41.671875 50.148438 41.835938 49.863281 42.046875 49.59375 L 42.40625 49.144531 C 42.503906 49.035156 42.710938 48.738281 42.828125 48.644531 C 42.914062 48.542969 43.039062 48.480469 43.148438 48.402344 C 43.21875 48.363281 43.304688 48.328125 43.382812 48.277344 C 43.433594 48.257812 43.511719 48.214844 43.574219 48.1875 L 46.542969 53.617188 "/>
<path style=" stroke:none;fill-rule:nonzero;fill:rgb(100%,100%,100%);fill-opacity:1;" d="M 47.636719 52.980469 L 44.664062 47.535156 L 53.167969 42.558594 C 53.214844 42.597656 53.273438 42.625 53.308594 42.648438 C 53.566406 42.765625 53.828125 42.796875 54.105469 42.746094 C 54.347656 42.699219 54.59375 42.605469 54.785156 42.464844 C 54.957031 42.328125 55.101562 42.183594 55.210938 42.003906 C 55.296875 41.847656 55.371094 41.671875 55.40625 41.496094 C 55.410156 41.429688 55.425781 41.320312 55.429688 41.253906 L 55.472656 41.234375 L 58.46875 46.691406 L 47.636719 52.980469 "/>
<path style=" stroke:none;fill-rule:nonzero;fill:rgb(100%,100%,100%);fill-opacity:1;" d="M 43.460938 41.261719 L 42.789062 40.078125 L 47.542969 37.304688 L 48.222656 38.445312 L 43.460938 41.261719 "/>
<path style=" stroke:none;fill-rule:nonzero;fill:rgb(100%,100%,100%);fill-opacity:1;" d="M 51.191406 42.582031 L 47.4375 35.785156 L 49.136719 37.144531 L 52.53125 41.796875 L 51.191406 42.582031 "/>
</g>
</svg>
