<svg width="600" height="600" xmlns="http://www.w3.org/2000/svg">
 <!-- Created with Method Draw - http://github.com/duopixel/Method-Draw/ -->

 <g>
  <title>background</title>
  <rect fill="#fff" id="canvas_background" height="602" width="602" y="-1" x="-1"/>
  <g display="none" overflow="visible" y="0" x="0" height="100%" width="100%" id="canvasGrid">
   <rect fill="url(#gridpattern)" stroke-width="0" y="0" x="0" height="100%" width="100%"/>
  </g>
 </g>
 <g>
  <title>Layer 1</title>
  <metadata transform="matrix(5.408328439558829,0,0,5.408328439558829,0,0) " id="svg_9">image/svg+xml</metadata>

  <g id="svg_11">
   <path fill="#ee2b2e" fill-rule="nonzero" id="svg_8" d="m300,70.04042c127.01119,0 229.95958,102.94834 229.95958,229.95958c0,127.01119 -102.9484,229.95958 -229.95958,229.95958c-126.99009,0 -229.95958,-102.9484 -229.95958,-229.95958c0,-127.01124 102.96949,-229.95958 229.95958,-229.95958"/>
   <path fill="#ffffff" fill-rule="nonzero" id="svg_7" d="m300,146.68655c20.8305,0 40.71033,4.01401 59.66062,12.02088c18.33759,7.75333 34.58372,18.7179 48.75943,32.89362c14.15462,14.15462 25.11914,30.42185 32.87252,48.73834c8.00687,18.9503 12.02082,38.83012 12.02082,59.66062c0,20.8305 -4.01395,40.71033 -12.02082,59.66062c-7.75338,18.31649 -18.7179,34.58372 -32.87252,48.73834c-14.17572,14.17572 -30.42185,25.14029 -48.75943,32.89362c-18.9503,8.00687 -38.83012,12.02088 -59.66062,12.02088c-20.8305,0 -40.71038,-4.01401 -59.63953,-12.02088c-18.33759,-7.75333 -34.58372,-18.7179 -48.75943,-32.89362c-14.17572,-14.15462 -25.14029,-30.42185 -32.89362,-48.73834c-8.00687,-18.9503 -12.02088,-38.83012 -12.02088,-59.66062c0,-20.8305 4.01401,-40.71033 12.02088,-59.66062c7.75333,-18.31649 18.7179,-34.58372 32.89362,-48.73834c14.17572,-14.17572 30.42185,-25.14029 48.75943,-32.89362c18.92915,-8.00687 38.80903,-12.02088 59.63953,-12.02088"/>
  </g>
  <text stroke="#000" transform="matrix(1.0290636351717666,0,0,1.3253011975957492,-5.219102496518129,-96.0903511078617) " xml:space="preserve" text-anchor="start" font-family="sans-serif" font-size="122" id="svg_12" y="341.0088" x="177.91138" stroke-width="0" fill="#000000">param(text1)</text>
 </g>
</svg>