<svg width="600" height="600" xmlns="http://www.w3.org/2000/svg">
 <!-- Created with Method Draw - http://github.com/duopixel/Method-Draw/ -->

 <g>
  <title>background</title>
  <rect fill="#fff" id="canvas_background" height="602" width="602" y="-1" x="-1"/>
  <g display="none" overflow="visible" y="0" x="0" height="100%" width="100%" id="canvasGrid">
   <rect fill="url(#gridpattern)" stroke-width="0" y="0" x="0" height="100%" width="100%"/>
  </g>
 </g>
 <g>
  <title>Layer 1</title>
  <metadata transform="matrix(5.408328439558829,0,0,5.408328439558829,0,0) " id="svg_13">image/svg+xml</metadata>

  <g id="svg_15">
   <path fill="#ee2b2e" fill-rule="nonzero" id="svg_12" d="m300,70.04042c127.01119,0 229.95958,102.94834 229.95958,229.95958c0,127.01119 -102.9484,229.95958 -229.95958,229.95958c-126.99009,0 -229.95958,-102.9484 -229.95958,-229.95958c0,-127.01124 102.96949,-229.95958 229.95958,-229.95958"/>
   <path fill="#ffffff" fill-rule="nonzero" id="svg_11" d="m300,146.68655c20.8305,0 40.71033,4.01401 59.66062,12.02088c18.33759,7.75333 34.58372,18.7179 48.75943,32.89362c14.15462,14.15462 25.11914,30.42185 32.87252,48.73834c8.00687,18.9503 12.02082,38.83012 12.02082,59.66062c0,20.8305 -4.01395,40.71033 -12.02082,59.66062c-7.75338,18.31649 -18.7179,34.58372 -32.87252,48.73834c-14.17572,14.17572 -30.42185,25.14029 -48.75943,32.89362c-18.9503,8.00687 -38.83012,12.02088 -59.66062,12.02088c-20.8305,0 -40.71038,-4.01401 -59.63953,-12.02088c-18.33759,-7.75333 -34.58372,-18.7179 -48.75943,-32.89362c-14.17572,-14.15462 -25.14029,-30.42185 -32.89362,-48.73834c-8.00687,-18.9503 -12.02088,-38.83012 -12.02088,-59.66062c0,-20.8305 4.01401,-40.71033 12.02088,-59.66062c7.75333,-18.31649 18.7179,-34.58372 32.89362,-48.73834c14.17572,-14.17572 30.42185,-25.14029 48.75943,-32.89362c18.92915,-8.00687 38.80903,-12.02088 59.63953,-12.02088"/>
   <path fill="#211e1e" fill-rule="nonzero" id="svg_10" d="m235.01553,335.64003l0,13.66874l50.38621,-2.11266c0.21125,-0.42255 0.50703,-1.0563 0.76052,-1.43656c0.44365,-0.76057 1.03521,-1.43661 1.64786,-2.07042c0.6338,-0.63375 1.37323,-1.26755 2.13375,-1.7112c0.48588,-0.27463 1.14083,-0.61266 1.62672,-0.82396l17.00671,0c0.46479,0.29578 0.99292,0.65495 1.43656,0.95073c0.73943,0.48588 1.62672,1.18307 2.26052,1.83797c0.54927,0.59151 1.0563,1.30984 1.47885,2.00698c0.21125,0.35917 0.50703,0.84505 0.69713,1.18307l50.91438,2.59854l0,-14.09124l4.2675,0l0,-17.42915c0,-0.31687 0,-0.92958 0.02109,-1.24646c0.08453,-1.18307 0.50703,-2.38729 1.24646,-3.33797c0.67604,-0.88729 1.64781,-1.54224 2.7464,-1.85911c0.50703,-0.14786 1.09854,-0.25349 1.64786,-0.25349l11.47155,0c0.52818,0 1.0563,0.06339 1.54224,0.19016c1.07745,0.2324 2.04922,0.80281 2.78864,1.58448c0.82396,0.88729 1.2676,2.1126 1.5,3.29567c0.06333,0.31687 0.14786,0.92958 0.14786,1.2887l0,25.77409c0.25349,0.46479 0.59151,1.11969 0.8239,1.54224c0.80281,1.66896 1.43656,3.42244 1.79573,5.19703c0.33802,1.71125 0.44365,3.69713 0.44365,5.47171c0,1.85911 -0.08453,3.90838 -0.44365,5.74635c-0.31687,1.64786 -0.8662,3.33797 -1.71125,4.79567c-0.2324,0.40141 -0.65489,1.01406 -0.90838,1.41547l0,24.90784c0,0.42255 -0.14786,1.2676 -0.19016,1.66896c-0.19016,0.99297 -0.52818,2.02812 -1.09859,2.85208c-0.59151,0.8239 -1.43656,1.45771 -2.42953,1.9225c-0.31687,0.10562 -1.16193,0.48588 -1.49995,0.48588l-11.32369,0c-0.12677,0 -1.85911,0 -2.02812,-0.02109c-1.16198,-0.19016 -2.23937,-0.73943 -3.04218,-1.64786c-0.65495,-0.73943 -1.07745,-1.79573 -1.2676,-2.7464c-0.06339,-0.29578 -0.2324,-1.03521 -0.2324,-1.33099l0,-18.61222l-4.2675,0l0,-14.38702l-50.87209,3.25343c-0.2324,0.38026 -0.57042,0.95068 -0.80281,1.33099c-1.24646,1.92244 -2.91541,3.54922 -4.88015,4.73229c-2.68307,1.60557 -5.83088,2.30276 -8.95754,2.17599c-2.93656,-0.10562 -5.80973,-1.03521 -8.36604,-2.42953c-2.02812,-1.07745 -4.14072,-2.61963 -5.26041,-4.56328c-0.21125,-0.31687 -0.44365,-0.80281 -0.59156,-1.16193l-50.61849,-3.46474l0,14.51374l-4.64776,0l0.04218,18.69681c0,0.54927 -0.14786,1.11969 -0.33802,1.64781c-0.35917,0.95068 -1.14083,1.77463 -1.96474,2.36614c-0.84505,0.65495 -1.81687,1.11969 -2.85208,1.35208c-0.65489,0.16901 -1.37317,0.29578 -2.04922,0.29578l-9.92937,0c-0.48588,0 -1.01406,-0.12677 -1.47885,-0.2324c-0.90844,-0.25349 -1.73234,-0.78167 -2.40838,-1.43656c-0.65489,-0.59156 -1.18307,-1.33099 -1.47885,-2.13375c-0.2324,-0.59156 -0.44365,-1.2887 -0.44365,-1.9225l0,-27.16841c-0.25349,-0.50703 -0.69713,-1.2887 -0.92953,-1.81687c-0.76057,-1.54218 -1.33099,-3.16896 -1.77463,-4.85906c-0.35917,-1.60557 -0.57042,-3.2112 -0.57042,-4.83791c0,-1.7112 0.27463,-3.46468 0.6338,-5.11255c0.38026,-1.58448 0.92958,-3.23234 1.6901,-4.64776c0.25349,-0.46479 0.69719,-1.11974 0.95068,-1.54224l0,-25.58394c0,-0.59151 0.08453,-1.30984 0.21125,-1.9225c0.19016,-1.07745 0.6338,-2.19713 1.37323,-3.02104c0.80281,-0.8662 1.96474,-1.37323 3.14781,-1.64786c0.69719,-0.14786 1.45771,-0.25349 2.19713,-0.25349l8.38713,0c0.78167,0 1.56333,0.06339 2.345,0.2324c1.16198,0.2324 2.30281,0.71828 3.16896,1.49995c0.8662,0.80281 1.47885,1.81687 1.77463,2.9788c0.16901,0.65495 0.29578,1.35208 0.29578,2.02812l0,17.38696l4.64776,0"/>
   <path fill="#211e1e" fill-rule="nonzero" id="svg_9" d="m307.83786,266.45144l-15.7391,0l2.02812,29.9782l-16.43623,-4.18296c-0.14786,-0.02115 -0.50703,-0.10568 -0.6338,-0.10568c-0.78167,-0.06333 -1.49995,0.29578 -1.96474,0.90844c-0.46479,0.67604 -0.54927,1.60562 -0.14786,2.38729c0.10562,0.16901 0.2324,0.33802 0.35917,0.46479l22.77415,27.75992c0.08453,0.10562 0.2324,0.29578 0.31687,0.35917c0.35917,0.33802 0.86614,0.48588 1.33094,0.50703c0.52818,0 1.03521,-0.14786 1.43661,-0.46479c0.12677,-0.10562 0.27463,-0.27463 0.40141,-0.40141l23.02763,-27.35852c0.14786,-0.14786 0.33802,-0.40141 0.42255,-0.57042c0.46479,-0.80281 0.46479,-1.81687 -0.06339,-2.57739c-0.38026,-0.59156 -1.03521,-0.97182 -1.6901,-0.97182c-0.25349,0 -0.50703,0.04218 -0.71833,0.10562l-16.71087,4.07739l2.00698,-29.91482"/>
  </g>
  <text xml:space="preserve" text-anchor="start" font-family="sans-serif" font-size="92" id="svg_16" y="244" x="210.27344" stroke-width="0" stroke="#000" fill="#000000">param(text1)</text>
 </g>
</svg>