<svg width="600" height="600" xmlns="http://www.w3.org/2000/svg">
 <!-- Created with Method Draw - http://github.com/duopixel/Method-Draw/ -->

 <g>
  <title>background</title>
  <rect fill="#fff" id="canvas_background" height="602" width="602" y="-1" x="-1"/>
  <g display="none" overflow="visible" y="0" x="0" height="100%" width="100%" id="canvasGrid">
   <rect fill="url(#gridpattern)" stroke-width="0" y="0" x="0" height="100%" width="100%"/>
  </g>
 </g>
 <g>
  <title>Layer 1</title>
  <metadata transform="matrix(5.284713788460294,0,0,5.284713788460294,0,0) " id="svg_13">image/svg+xml</metadata>

  <g id="svg_15">
   <path fill="#ee2b2e" fill-rule="nonzero" id="svg_12" d="m75.29645,300c0,-124.10823 100.59537,-224.70355 224.70355,-224.70355c124.10823,0 224.70355,100.59532 224.70355,224.70355c0,124.10817 -100.59532,224.70355 -224.70355,224.70355c-124.10817,0 -224.70355,-100.59537 -224.70355,-224.70355"/>
   <path fill="#ffffff" fill-rule="nonzero" id="svg_11" d="m150.21139,300c0,-20.35439 3.92226,-39.77984 11.74612,-58.297c7.57611,-17.89785 18.29008,-33.79326 32.12112,-47.62436c13.85176,-13.85171 29.72652,-24.56567 47.64502,-32.14179c18.51711,-7.82386 37.94261,-11.74612 58.297,-11.74612c20.33373,0 39.77984,3.92226 58.27634,11.74612c17.91851,7.57611 33.79326,18.29008 47.64502,32.14179c13.85171,13.8311 24.56562,29.72652 32.14179,47.62436c7.82386,18.51716 11.72546,37.94261 11.72546,58.297c0,20.35439 -3.9016,39.77984 -11.72546,58.297c-7.57617,17.89785 -18.29008,33.79326 -32.14179,47.62436c-13.85176,13.85171 -29.72652,24.56567 -47.64502,32.14179c-18.4965,7.82386 -37.94261,11.74612 -58.27634,11.74612c-20.35439,0 -39.77989,-3.92226 -58.297,-11.74612c-17.91851,-7.57611 -33.79326,-18.29008 -47.64502,-32.14179c-13.83105,-13.8311 -24.54501,-29.72652 -32.12112,-47.62436c-7.82386,-18.51716 -11.74612,-37.94261 -11.74612,-58.297"/>
   <path fill="#211e1e" fill-rule="nonzero" id="svg_10" d="m247.56575,440.37521c16.74181,6.29626 34.2061,9.43406 52.43424,9.43406c18.20748,0 35.69248,-3.1378 52.4343,-9.43406l-52.59944,-46.75735l-52.2691,46.75735"/>
   <path fill="#211e1e" fill-rule="nonzero" id="svg_9" d="m352.43429,159.60412c-16.74181,-6.2756 -34.22682,-9.4134 -52.4343,-9.4134c-18.22814,0 -35.69243,3.1378 -52.43424,9.4134l52.2691,46.77801l52.59944,-46.77801"/>
  </g>
  <text xml:space="preserve" text-anchor="start" font-family="sans-serif" font-size="100" id="svg_16" y="335" x="174.94531" stroke-width="0" stroke="#000" fill="#000000">param(text1)</text>
 </g>
</svg>