<svg width="600" height="600" xmlns="http://www.w3.org/2000/svg">
 <!-- Created with Method Draw - http://github.com/duopixel/Method-Draw/ -->

 <g>
  <title>background</title>
  <rect fill="#fff" id="canvas_background" height="602" width="602" y="-1" x="-1"/>
  <g display="none" overflow="visible" y="0" x="0" height="100%" width="100%" id="canvasGrid">
   <rect fill="url(#gridpattern)" stroke-width="0" y="0" x="0" height="100%" width="100%"/>
  </g>
 </g>
 <g>
  <title>Layer 1</title>
  <metadata transform="matrix(5.284713788460294,0,0,5.284713788460294,0,0) " id="svg_27">image/svg+xml</metadata>

  <g id="svg_29">
   <path fill="#ee2b2e" fill-rule="nonzero" id="svg_26" d="m299.99999,75.29645c124.10823,0 224.70355,100.59537 224.70355,224.70355c0,124.10823 -100.59532,224.70355 -224.70355,224.70355c-124.10817,0 -224.70355,-100.59532 -224.70355,-224.70355c0,-124.10817 100.59537,-224.70355 224.70355,-224.70355"/>
   <path fill="#ffffff" fill-rule="nonzero" id="svg_25" d="m299.91745,150.21139c20.35439,0 39.77984,3.9016 58.297,11.72546c17.89785,7.57617 33.79326,18.29008 47.62436,32.14179c13.85171,13.85176 24.56562,29.72652 32.14179,47.64502c7.82386,18.4965 11.74607,37.92194 11.74607,58.27634c0,20.35445 -3.92221,39.77989 -11.74607,58.297c-7.57617,17.91851 -18.29008,33.79326 -32.14179,47.64502c-13.8311,13.8311 -29.72652,24.54501 -47.62436,32.12112c-18.51716,7.82386 -37.94261,11.74612 -58.297,11.74612c-20.35445,0 -39.77989,-3.92226 -58.27639,-11.74612c-17.91846,-7.57611 -33.79326,-18.29002 -47.64497,-32.12112c-13.85176,-13.85176 -24.56567,-29.72652 -32.14179,-47.64502c-7.82386,-18.51711 -11.74612,-37.94255 -11.74612,-58.297c0,-20.35439 3.92226,-39.77984 11.74612,-58.27634c7.57611,-17.91851 18.29002,-33.79326 32.14179,-47.64502c13.85171,-13.85171 29.72652,-24.56562 47.64497,-32.14179c18.4965,-7.82386 37.92194,-11.72546 58.27639,-11.72546"/>
   <path fill="#211e1e" fill-rule="nonzero" id="svg_24" d="m212.36871,285.09546c9.33085,0 16.86569,7.41097 17.01017,16.556c0.10321,9.31019 -7.43163,17.0515 -16.9689,17.07211c-9.49594,0.02061 -17.11338,-7.67932 -17.03078,-17.01017c0.10321,-9.16565 7.61739,-16.61794 16.98951,-16.61794"/>
   <path fill="#211e1e" fill-rule="nonzero" id="svg_23" d="m351.46402,285.01291c9.68175,0 17.54694,7.74126 17.36113,17.21659c-0.20642,9.16565 -7.96834,16.30831 -17.29919,16.34958c-9.39273,0.02061 -17.23726,-7.18393 -17.42301,-16.37025c-0.16515,-9.47533 7.65871,-17.19593 17.36108,-17.19593"/>
   <path fill="#211e1e" fill-rule="nonzero" id="svg_22" d="m226.94295,360.8568l0,11.66352l-21.26268,-1.5276l2.95199,12.1383c0.02061,0.10321 0.0826,0.37157 0.0826,0.49544c0.06194,0.53672 -0.16515,1.09409 -0.61932,1.44505c-0.49544,0.35096 -1.15603,0.39223 -1.65147,0.10321c-0.16515,-0.0826 -0.28902,-0.16515 -0.39223,-0.28902l-19.65253,-16.80375c-0.0826,-0.06194 -0.22708,-0.16515 -0.28902,-0.24769c-0.24769,-0.26836 -0.35096,-0.61932 -0.35096,-0.97022c0,-0.41289 0.10321,-0.7638 0.33029,-1.05282c0.0826,-0.10321 0.20642,-0.20642 0.26836,-0.28902l19.40483,-17.03084c0.14448,-0.12387 0.28902,-0.24769 0.41289,-0.33029c0.57804,-0.35096 1.30052,-0.35096 1.85789,0.06194c0.39223,0.28902 0.61932,0.74319 0.66059,1.25929c0,0.16515 -0.04122,0.33029 -0.06194,0.51611l-2.91071,12.36538l21.22146,-1.50699"/>
   <path fill="#211e1e" fill-rule="nonzero" id="svg_21" d="m191.04405,265.93837c-0.99088,0 -2.16753,0.68125 -2.91071,1.40378c-0.74314,0.70186 -1.40373,1.75468 -1.5276,2.82811l-2.39461,23.01741l-1.79601,0.06194c-0.59865,0.0826 -1.25924,0.18581 -1.71341,0.55738c-0.43351,0.45417 -0.55738,1.13537 -0.55738,1.67208l-0.06194,2.02309c0,0.80507 0.45417,1.5276 1.11476,1.85789c0.16515,0.10321 0.45417,0.22708 0.68125,0.28902l-0.22708,2.39461l10.01205,0c0,-0.30963 0,-0.7638 0,-1.07343c0.57804,-10.79651 9.64048,-19.30162 20.68469,-19.30162c11.20941,0 20.84989,8.36058 20.70535,19.30162c-0.02061,0.26836 -0.02061,0.63993 -0.06194,0.90828l97.00341,0.04122c0.02061,-0.35096 -0.02061,-0.59865 0.02061,-0.92895c1.09409,-11.12681 10.11526,-20.25118 21.53109,-20.14797c11.4571,0.10321 20.29246,9.496 21.18013,20.66408c0.02061,0.22708 0.02061,0.51611 0.04122,0.72253l14.51235,0c0.12387,-1.09415 1.21792,-6.42013 1.13537,-6.42013l20.12731,-4.3351l0,-5.07829l-37.4265,0.06194c-0.28886,-0.53666 -0.68109,-1.09404 -1.05271,-1.52755c-0.43351,-0.53672 -1.25924,-1.40373 -1.81662,-2.0437l40.23406,-0.02061l0,-57.76028l-161.576,0.06194l0,58.15246l87.09457,0c-0.53677,0.47478 -1.19736,1.19736 -1.67214,1.77535l-1.1973,1.36245l-86.82621,-0.04122l0.02061,-41.96803l-29.16914,0c-2.08498,0 -4.25256,0.86701 -6.06918,1.94044c-1.63081,0.99088 -3.0552,2.41533 -3.86032,4.10807l-7.22521,15.37931l-6.9568,0.06194"/>
   <path fill="#211e1e" fill-rule="nonzero" id="svg_20" d="m373.01577,360.8568l0,11.64286l21.26273,-1.5276l-2.95204,12.13835c-0.02061,0.10321 -0.0826,0.37152 -0.0826,0.49544c-0.06194,0.53672 0.16515,1.09409 0.63993,1.445c0.47483,0.35096 1.13542,0.39223 1.65147,0.12387c0.14454,-0.10321 0.28902,-0.18581 0.37157,-0.28902l19.65253,-16.82436c0.10321,-0.06194 0.22708,-0.16515 0.28902,-0.24769c0.24769,-0.26836 0.37157,-0.61932 0.37157,-0.97022c0,-0.41289 -0.12387,-0.76385 -0.33029,-1.05282c-0.10321,-0.10321 -0.20642,-0.20642 -0.28902,-0.28902l-19.40473,-17.03084c-0.12387,-0.12387 -0.28902,-0.22708 -0.39223,-0.33029c-0.59865,-0.35096 -1.32118,-0.35096 -1.87856,0.06194c-0.39223,0.28902 -0.61932,0.74314 -0.66059,1.25924c0,0.16515 0.04122,0.33029 0.06194,0.51611l2.91071,12.36538l-21.2214,-1.48633"/>
   <path fill="#ffffff" fill-rule="nonzero" id="svg_19" d="m212.38937,294.90109c3.819,0.02061 6.89486,3.07586 6.99812,6.81231c0.0826,3.83966 -2.99331,7.0394 -6.93619,7.122c-4.00486,0.06194 -7.24587,-3.11719 -7.24587,-7.0394c0.02061,-3.86032 3.24101,-6.89491 7.18393,-6.89491"/>
   <path fill="#ffffff" fill-rule="nonzero" id="svg_18" d="m351.58789,294.77722c4.04614,0.02061 7.10133,3.50937 6.91552,7.4729c-0.18581,3.63324 -3.22035,6.46141 -6.93619,6.52335c-3.73645,0.06194 -6.9568,-2.72496 -7.24582,-6.42008c-0.26836,-4.12868 3.05525,-7.61744 7.26648,-7.57617"/>
   <path fill="#ffffff" fill-rule="nonzero" id="svg_17" d="m210.34567,248.70112l5.59435,0l-8.05094,17.25792l-5.59435,0l8.05094,-17.25792"/>
   <path fill="#ffffff" fill-rule="nonzero" id="svg_16" d="m220.64674,248.70112l14.96647,0l0,17.15471l-22.97614,0l8.00967,-17.15471"/>
  </g>
  <text stroke="#000" transform="matrix(0.7901335006911481,0,0,1.5141811966896057,51.12531591495396,-171.56841342523694) " xml:space="preserve" text-anchor="start" font-family="sans-serif" font-size="60" id="svg_30" y="379.65418" x="248.28057" stroke-width="0" fill="#000000">param(text1)</text>
 </g>
</svg>