<?xml version="1.0" encoding="UTF-8"?>
<svg xmlns="http://www.w3.org/2000/svg" xmlns:xlink="http://www.w3.org/1999/xlink" width="87pt" height="86pt" viewBox="0 0 87 86" version="1.1">
<g id="surface1">
<path style="fill-rule:nonzero;fill:rgb(100%,100%,100%);fill-opacity:1;stroke-width:2.835;stroke-linecap:butt;stroke-linejoin:round;stroke:rgb(13.729858%,12.159729%,12.548828%);stroke-opacity:1;stroke-miterlimit:4;" d="M 10 428.28125 C 10 663.085938 200.351562 853.476562 435.195312 853.476562 C 670.039062 853.476562 860.390625 663.085938 860.390625 428.28125 C 860.390625 193.4375 670.039062 3.085938 435.195312 3.085938 C 200.351562 3.085938 10 193.4375 10 428.28125 " transform="matrix(0.1,0,0,-0.1,0,86)"/>
<path style=" stroke:none;fill-rule:nonzero;fill:rgb(10.112%,40.585327%,73.280334%);fill-opacity:1;" d="M 2.417969 43.167969 C 2.417969 37.59375 3.492188 32.261719 5.644531 27.171875 C 7.726562 22.253906 10.660156 17.898438 14.457031 14.105469 C 18.246094 10.3125 22.601562 7.375 27.519531 5.296875 C 32.609375 3.144531 37.945312 2.066406 43.519531 2.066406 C 49.09375 2.066406 54.425781 3.144531 59.519531 5.296875 C 64.433594 7.375 68.789062 10.3125 72.582031 14.105469 C 76.375 17.898438 79.3125 22.253906 81.390625 27.171875 C 83.542969 32.261719 84.621094 37.59375 84.621094 43.167969 C 84.621094 48.746094 83.542969 54.078125 81.390625 59.167969 C 79.3125 64.085938 76.375 68.441406 72.582031 72.234375 C 68.789062 76.027344 64.433594 78.960938 59.519531 81.042969 C 54.425781 83.195312 49.09375 84.269531 43.519531 84.269531 C 37.945312 84.269531 32.609375 83.195312 27.519531 81.042969 C 22.601562 78.960938 18.246094 76.027344 14.457031 72.234375 C 10.660156 68.441406 7.726562 64.085938 5.644531 59.167969 C 3.492188 54.078125 2.417969 48.746094 2.417969 43.167969 "/>
<path style=" stroke:none;fill-rule:nonzero;fill:rgb(100%,100%,100%);fill-opacity:1;" d="M 38.558594 51.675781 L 29.992188 51.683594 L 31.382812 59.523438 C 31.40625 59.605469 31.414062 59.699219 31.414062 59.785156 C 31.414062 60.394531 30.921875 60.890625 30.3125 60.890625 C 30.085938 60.890625 29.875 60.820312 29.699219 60.699219 L 11.40625 48.34375 C 11.113281 48.144531 10.921875 47.8125 10.921875 47.429688 C 10.921875 47.050781 11.117188 46.703125 11.410156 46.507812 L 29.707031 34.152344 C 29.878906 34.027344 30.09375 33.960938 30.320312 33.960938 C 30.929688 33.960938 31.421875 34.449219 31.421875 35.058594 C 31.421875 35.152344 31.40625 35.242188 31.386719 35.324219 L 29.984375 43.175781 L 38.691406 43.171875 C 44 43.207031 48.882812 45.0625 52.730469 48.148438 L 52.730469 29.644531 L 44.882812 31.039062 C 44.800781 31.0625 44.710938 31.078125 44.617188 31.078125 C 44.007812 31.078125 43.519531 30.582031 43.519531 29.976562 C 43.519531 29.75 43.585938 29.53125 43.710938 29.359375 L 56.066406 11.066406 C 56.261719 10.773438 56.609375 10.574219 56.988281 10.574219 C 57.371094 10.574219 57.703125 10.769531 57.902344 11.0625 L 70.257812 29.351562 C 70.378906 29.527344 70.449219 29.742188 70.449219 29.96875 C 70.449219 30.578125 69.953125 31.070312 69.34375 31.070312 C 69.253906 31.070312 69.164062 31.058594 69.082031 31.035156 L 61.234375 29.644531 L 61.234375 73.648438 L 52.730469 73.648438 L 52.730469 65.847656 C 52.730469 61.9375 51.34375 58.59375 48.582031 55.828125 C 45.8125 53.0625 42.472656 51.675781 38.558594 51.675781 "/>
</g>
</svg>
