<svg width="600" height="600" xmlns="http://www.w3.org/2000/svg">
 <!-- Created with Method Draw - http://github.com/duopixel/Method-Draw/ -->

 <g>
  <title>background</title>
  <rect fill="#fff" id="canvas_background" height="602" width="602" y="-1" x="-1"/>
  <g display="none" overflow="visible" y="0" x="0" height="100%" width="100%" id="canvasGrid">
   <rect fill="url(#gridpattern)" stroke-width="0" y="0" x="0" height="100%" width="100%"/>
  </g>
 </g>
 <g>
  <title>Layer 1</title>
  <metadata transform="matrix(5.408328439558829,0,0,5.408328439558829,0,0) " id="svg_27">image/svg+xml</metadata>

  <g id="svg_29">
   <path fill="#ee2b2e" fill-rule="nonzero" id="svg_26" d="m143.75665,468.65991c33.94997,31.45706 75.14618,51.33688 120.86349,58.51984c45.71725,7.07728 90.94867,0.67604 132.90545,-19.01368c41.93564,-19.60519 75.82222,-50.1749 99.69491,-89.87122c23.78821,-39.67512 34.8795,-83.91357 32.42888,-130.20129c-8.45051,-161.72168 -177.16505,-264.28976 -324.75325,-197.23498c-149.57408,67.89989 -181.72827,266.23346 -61.13948,377.80133"/>
   <path fill="#ffffff" fill-rule="nonzero" id="svg_25" d="m270.9369,450.70259c105.9272,20.09107 198.90393,-72.56879 179.00296,-178.53822c-20.28123,-108.25105 -144.92627,-160.28512 -236.19182,-98.57522c-25.45716,17.17566 -44.55532,40.66809 -56.11141,69.08296c-11.55608,28.43596 -14.28139,58.51979 -8.07025,88.58247c6.10552,29.9782 20.57701,56.5762 42.5272,78.10389c21.84462,21.54878 48.65386,35.61893 78.84332,41.34413"/>
   <path fill="#211e1e" fill-rule="nonzero" id="svg_24" d="m210.3256,362.05673c9.61244,0 17.32352,7.77447 17.15451,17.36576c-0.19016,9.21109 -7.83786,16.45738 -17.04889,16.47853c-9.23218,0 -16.96441,-7.26744 -17.11228,-16.52077c-0.19021,-9.54905 7.54208,-17.32352 17.00665,-17.32352"/>
   <path fill="#211e1e" fill-rule="nonzero" id="svg_23" d="m430.92623,378.74645l-39.75965,-0.04218c0.02109,-0.27463 0.02109,-0.67604 0.04218,-0.95068c0.14786,-11.19692 -9.61249,-19.73196 -20.95727,-19.73196c-11.13358,0 -20.32352,8.70406 -20.87279,19.73196c0,0.33802 -0.04218,0.80281 -0.04218,1.11969l-10.09838,0l0.21125,-2.45062c-0.21125,-0.06339 -0.50703,-0.19016 -0.69713,-0.29578c-0.65495,-0.35917 -1.09859,-1.09859 -1.09859,-1.90141l0.04218,-2.09151c0,-0.54927 0.12677,-1.22531 0.57042,-1.66896c0.44365,-0.4225 1.11969,-0.52818 1.73234,-0.61266l1.81687,-0.02109l2.42953,-23.59805c0.10562,-1.07745 0.76057,-2.15489 1.54224,-2.87317c0.76052,-0.73943 1.94359,-1.45771 2.93656,-1.45771l2.93651,-0.08448l7.33083,-15.7391c0.80281,-1.75349 2.23943,-3.19005 3.88724,-4.20411c1.83802,-1.09859 4.64781,-2.00703 6.73932,-2.00703l23.89389,-0.08459l-0.14786,42.88637l45.92855,0.16901c-2.49291,5.42942 -5.3027,10.83775 -8.36604,15.90806"/>
   <path fill="#211e1e" fill-rule="nonzero" id="svg_22" d="m440.81331,359.37366l-44.70319,-0.02109l0.31687,-59.09021l56.19594,-0.10562c0,0.27463 0,0.59156 0,0.8662c0,20.61925 -4.20416,40.33007 -11.80963,58.35078"/>
   <path fill="#211e1e" fill-rule="nonzero" id="svg_21" d="m146.41857,300.0933l107.32152,0l0,59.30151l-26.91487,0c0.29578,0.29578 0.92953,1.20416 1.20416,1.54218c0.06339,0.04218 0.14786,0.14786 0.19016,0.21125c0.19016,0.21125 0.46479,0.50703 0.6338,0.67604c0.2324,0.31687 0.48588,0.6338 0.69719,0.97182c0.10562,0.16901 0.2324,0.44365 0.31687,0.59156l21.42206,0l0.16901,6.02098l-15.92926,5.93645c0.04218,0.2324 0.10562,0.61271 0.14786,0.8662c0.08453,0.42255 0.12677,0.84505 0.14786,1.2676c0,0.35917 0,0.73937 -0.02109,1.07739c-0.02109,0.25349 -0.06339,0.59156 -0.12677,0.82396l-4.14072,-0.04218c-0.04218,-0.2324 -0.06339,-0.52818 -0.06339,-0.76057c-0.8662,-11.30254 -9.5702,-20.72488 -20.87279,-20.85165c-11.21806,-0.08453 -20.11222,9.10546 -21.16852,20.30238c-0.04218,0.38026 -0.02109,1.18307 -0.04218,1.52109l-21.04175,0c-3.23234,-5.34494 -6.06328,-10.90119 -8.61952,-16.62639l30.80211,0.48588c0.08453,-0.10562 0.25349,-0.29578 0.35917,-0.42255l0.80281,-0.97182c0.27463,-0.33802 0.63375,-0.71828 0.92953,-1.03515c0.19016,-0.21125 1.58448,-1.39438 1.73234,-1.58448l-36.18934,0c-3.69713,-8.99978 -6.44354,-18.35873 -8.42942,-28.0557c-2.13375,-10.4364 -3.29567,-20.89389 -3.31682,-31.24581"/>
   <path fill="#211e1e" fill-rule="nonzero" id="svg_20" d="m370.29379,361.52855c9.46457,0 17.07004,7.56322 17.19681,16.92217c0.12677,9.52791 -7.52098,17.4503 -17.13342,17.49254c-9.61244,0.02109 -17.30243,-7.8801 -17.23905,-17.4292c0.10562,-9.38004 7.71109,-16.9855 17.17566,-16.9855"/>
   <path fill="#ffffff" fill-rule="nonzero" id="svg_19" d="m210.53685,371.81703c3.99286,0.04218 7.0139,3.54922 6.78156,7.56322c-0.14786,3.63375 -3.14786,6.50692 -6.78156,6.57025c-3.73937,0.04218 -6.86604,-2.7675 -7.11958,-6.48572c-0.29578,-4.16193 2.95771,-7.66885 7.11958,-7.64775"/>
   <path fill="#ffffff" fill-rule="nonzero" id="svg_18" d="m370.29379,371.5424c3.86614,0.02109 6.97166,3.14781 7.07734,6.95057c0.08453,3.92948 -3.02109,7.2252 -6.99281,7.30968c-4.05625,0.08453 -7.35197,-3.19005 -7.35197,-7.20406c0.02109,-3.92948 3.29573,-7.05619 7.26744,-7.05619"/>
   <path fill="#ffffff" fill-rule="nonzero" id="svg_17" d="m361.69541,326.41666l5.23932,0.08453l-7.03505,15.42217l-5.02807,-0.02109l6.8238,-15.48556"/>
   <path fill="#ffffff" fill-rule="nonzero" id="svg_16" d="m371.66702,326.52228l12.67577,0.10562l0,15.29546l-19.94321,-0.08453l7.26744,-15.31655"/>
  </g>
  <text stroke="#000" transform="matrix(0.8607764244079591,0,0,1.2021276950836182,39.29233908653259,-36.38298511505127) " xml:space="preserve" text-anchor="start" font-family="sans-serif" font-size="84" id="svg_30" y="256" x="209.5" stroke-width="0" fill="#000000">param(text1)</text>
 </g>
</svg>