<svg width="438" height="600" xmlns="http://www.w3.org/2000/svg">
 <!-- Created with Method Draw - http://github.com/duopixel/Method-Draw/ -->

 <g>
  <title>background</title>
  <rect fill="#fff" id="canvas_background" height="602" width="440" y="-1" x="-1"/>
  <g display="none" overflow="visible" y="0" x="0" height="100%" width="100%" id="canvasGrid">
   <rect fill="url(#gridpattern)" stroke-width="0" y="0" x="0" height="100%" width="100%"/>
  </g>
 </g>
 <g>
  <title>Layer 1</title>
  <metadata transform="matrix(4,0,0,4,0,0) " id="svg_43">image/svg+xml</metadata>

  <g id="svg_45">
   <path fill="#ffffff" fill-rule="nonzero" id="svg_42" d="m77.26561,498.42967l283.46876,0l0,-396.85936l-283.46876,0l0,396.85936zm0,0"/>
   <path fill="none" stroke="#211e1e" stroke-width="0.2835" stroke-linejoin="round" stroke-miterlimit="4" id="svg_41" d="m77.26561,498.42967l283.46876,0l0,-396.85936l-283.46876,0l0,396.85936"/>
   <path fill="#211e1e" fill-rule="nonzero" id="svg_40" d="m82.93749,118.58591c0,-3.1406 1.10936,-5.81248 3.31248,-8.03124c2.21876,-2.20312 4.90624,-3.31248 8.01564,-3.31248l249.45312,0c3.125,0 5.81248,1.10936 8.03124,3.31248c2.20312,2.21876 3.31252,4.89064 3.31252,8.03124l0,362.82812c0,3.125 -1.1094,5.81252 -3.31252,8.01564c-2.21876,2.20312 -4.90624,3.31252 -8.03124,3.31252l-249.45312,0c-3.1094,0 -5.79688,-1.1094 -8.01564,-3.31252c-2.20312,-2.20312 -3.31248,-4.89064 -3.31248,-8.01564l0,-362.82812"/>
   <path fill="#ffffff" fill-rule="nonzero" id="svg_39" d="m88.59373,460.52343l23.78124,-34.2344l4.1094,4.03128l-27.89064,40.17188l0,4.95312l29.95312,-43.125l4.10936,4.03124l-33.28124,47.92188c0.23436,0.40624 0.53124,0.79688 0.89064,1.1406c0.35936,0.35936 0.73436,0.67188 1.1406,0.89064l33.29688,-47.95312l4.125,4.03124l-31.04688,44.70312l3.45312,0l29.64064,-42.68748l4.125,4.0156l-26.85936,38.67188l235.57812,0c1.57812,0 2.90624,-0.56248 4.01564,-1.67188c1.10936,-1.10936 1.65624,-2.43748 1.65624,-4l0,-341.7656l-21.56252,31.06248l-3.85936,-4.40624l25.42188,-36.60936l0,-4.96876l-27.34376,39.39064l-3.85936,-4.40628l30.5,-43.90624c-0.25,-0.43748 -0.57812,-0.85936 -0.95312,-1.23436c-0.34376,-0.32812 -0.68752,-0.6094 -1.06252,-0.84376l-30.40624,43.79688l-3.8594,-4.40624l27.93752,-40.21876l-3.45312,0l-26.40624,38.03124l-3.84376,-4.39064l23.34376,-33.6406l-235.71876,0c-1.56252,0 -2.89064,0.56248 -4,1.67188c-1.1094,1.10936 -1.67188,2.43748 -1.67188,4.0156l0,341.93752"/>
   <path fill="#211e1e" fill-rule="nonzero" id="svg_38" d="m190.46873,167.78903c1.35936,1.68752 2.95312,2.95316 4.82812,3.79688c1.82812,0.89064 3.81252,1.29688 5.90624,1.29688c2.21876,0 4.26564,-0.40624 6.15628,-1.23436c1.875,-0.8594 3.45312,-2.1094 4.82812,-3.81252c1.35936,-1.65624 2.43748,-3.81248 3.23436,-6.375c0.75,-2.54688 1.14064,-5.60936 1.14064,-9.07812c0,-3.35936 -0.39064,-6.26564 -1.14064,-8.76564c-0.79688,-2.49996 -1.875,-4.60936 -3.23436,-6.31248c-1.375,-1.64064 -2.95312,-2.95312 -4.76564,-3.81248c-1.89064,-0.84376 -3.875,-1.25 -5.98436,-1.25c-2.21876,0 -4.20312,0.40624 -6.09376,1.25c-1.85936,0.85936 -3.51564,2.10936 -4.875,3.7656c-1.375,1.70312 -2.45312,3.8594 -3.18752,6.42188c-0.78124,2.54688 -1.18748,5.625 -1.18748,9.07812c0,3.3594 0.40624,6.26564 1.18748,8.76564c0.7344,2.5 1.81252,4.60936 3.18752,6.2656"/>
   <path fill="#211e1e" fill-rule="nonzero" id="svg_37" d="m222.99997,172.42967l5.68752,0l0,-31.71876l0.10936,0l14.04688,31.71876l7.43748,0l0,-39.67188l-5.68748,0l0,31.95312l-0.10936,0l-14.04688,-31.95312l-7.43752,0l0,39.67188"/>
   <path fill="#211e1e" fill-rule="nonzero" id="svg_36" d="m258.56249,172.42967l20.29688,0l0,-5.04688l-14.15628,0l0,-12.90624l12.8594,0l0,-5.06252l-12.8594,0l0,-11.59372l13.53128,0l0,-5.06252l-19.67188,0l0,39.67188"/>
   <path fill="#211e1e" fill-rule="nonzero" id="svg_35" d="m159.12497,172.42967l23.43752,0l0,-5.04688l-16.54688,0l16.2656,-29.45312l0,-5.17188l-22.6406,0l0,5.06252l15.40624,0l-15.92188,29.06248l0,5.54688"/>
   <path fill="#ffffff" fill-rule="nonzero" id="svg_34" d="m194.73437,163.96091c-1.54688,-2.71872 -2.28128,-6.46872 -2.28128,-11.20312c0,-2.8906 0.23436,-5.32812 0.7344,-7.32812c0.45312,-1.98436 1.07812,-3.64064 1.93748,-4.875c0.79688,-1.20312 1.76564,-2.125 2.84376,-2.67188c1.07812,-0.53124 2.28124,-0.79688 3.46876,-0.79688c2.84372,0 5,1.34376 6.54688,4.09376c1.46872,2.71876 2.20312,6.46876 2.20312,11.20312c0,2.89064 -0.21876,5.32812 -0.67188,7.32812c-0.51564,1.9844 -1.14064,3.64064 -1.93752,4.82812c-0.85936,1.25 -1.81248,2.15628 -2.8906,2.67188c-1.09376,0.57812 -2.28128,0.84376 -3.4844,0.84376c-2.82812,0 -4.98436,-1.35936 -6.46872,-4.09376"/>
   <path fill="#8f8f8f" fill-rule="nonzero" id="svg_33" d="m299.18749,219.82031c44.28124,44.28124 44.28124,116.07812 0,160.35936c-44.28128,44.26564 -116.07812,44.26564 -160.34376,0c-44.28124,-44.28124 -44.28124,-116.07812 0,-160.35936c44.26564,-44.28128 116.06248,-44.28128 160.34376,0"/>
   <path fill="#ffffff" fill-rule="nonzero" id="svg_32" d="m174.18749,239.10155l105.71872,105.73436c3.7344,-5.06248 6.79688,-10.5 9.17188,-16.3906c3.68752,-9.09376 5.53128,-18.57812 5.53128,-28.46876c0,-9.875 -1.82816,-19.35936 -5.53128,-28.46876c-3.81248,-9.375 -9.32812,-17.71876 -16.60936,-24.96876c-7.25,-7.2656 -15.57812,-12.79684 -24.96876,-16.60936c-9.10936,-3.70312 -18.59376,-5.53124 -28.48436,-5.53124c-9.875,0 -19.3594,1.84376 -28.45312,5.5156c-5.875,2.39064 -11.34376,5.45316 -16.375,9.18752"/>
   <path fill="#ffffff" fill-rule="nonzero" id="svg_31" d="m263.87497,360.88279l-105.71876,-105.73436c-3.75,5.04688 -6.79684,10.5 -9.18748,16.375c-3.67188,9.09376 -5.53124,18.59376 -5.53124,28.45312c0,9.89064 1.84372,19.39064 5.54688,28.48436c3.79684,9.39064 9.32812,17.71876 16.59372,24.96876c7.26564,7.28124 15.59376,12.79688 24.9844,16.625c9.10936,3.68752 18.57812,5.53124 28.46872,5.53124c9.89064,0 19.375,-1.85936 28.46876,-5.53124c5.875,-2.39064 11.32812,-5.45312 16.375,-9.17188"/>
   <path fill="#636161" fill-rule="nonzero" id="svg_30" d="m177.68749,239.41403c4.28124,-2.95312 8.85936,-5.40624 13.71872,-7.375c8.82816,-3.57812 18.03128,-5.35936 27.625,-5.375c9.57816,0 18.78128,1.79688 27.6094,5.375c9.125,3.70316 17.18748,9.06252 24.23436,16.1094c7.03124,7.03124 12.40624,15.10936 16.1094,24.23436c3.57812,8.81252 5.35936,18.01564 5.35936,27.6094c0,9.57812 -1.78124,18.78124 -5.35936,27.60936c-1.96876,4.85936 -4.42188,9.45312 -7.375,13.75l-101.92188,-101.93752"/>
   <path fill="#636161" fill-rule="nonzero" id="svg_29" d="m260.37497,360.57031c-4.29688,2.95312 -8.875,5.40624 -13.75,7.375c-8.82812,3.57812 -18.03124,5.375 -27.60936,5.375c-9.59376,0 -18.79688,-1.79688 -27.6094,-5.375c-9.10936,-3.70312 -17.18748,-9.07812 -24.23436,-16.1094c-7.03124,-7.04688 -12.40624,-15.125 -16.10936,-24.23436c-3.57812,-8.82812 -5.375,-18.03124 -5.375,-27.60936c0.0156,-9.59376 1.79688,-18.79688 5.375,-27.6094c1.96872,-4.875 4.43748,-9.45312 7.375,-13.75l101.93748,101.93752"/>
   <path fill="#ffffff" fill-rule="nonzero" id="svg_28" d="m246.45309,464.41403l3.5,0l0,-3.92184l-3.5,0l0,3.92184"/>
   <path fill="#211e1e" fill-rule="nonzero" id="svg_27" d="m130.87497,444.39843l193.09376,-278.09376l3.85936,4.40624l-192.82812,277.70312l-4.125,-4.0156"/>
   <path fill="#211e1e" fill-rule="nonzero" id="svg_26" d="m124.70309,438.35155l193.4844,-278.64064l3.85936,4.40628l-193.21876,278.2656l-4.125,-4.03124"/>
   <path fill="#211e1e" fill-rule="nonzero" id="svg_25" d="m118.54685,432.32031l193.85936,-279.20312l3.8594,4.40624l-193.6094,278.82812l-4.10936,-4.03124"/>
   <path fill="#211e1e" fill-rule="nonzero" id="svg_24" d="m112.37497,426.28903l194.26564,-279.75l3.84376,4.39064l-194,279.39064l-4.1094,-4.03128"/>
  </g>
  <text xml:space="preserve" text-anchor="start" font-family="sans-serif" font-size="28" id="svg_46" y="469" x="124.8125" stroke-width="0" stroke="#000" fill="#000000">param(text1)</text>
 </g>
</svg>