<svg width="438" height="600" xmlns="http://www.w3.org/2000/svg">
 <!-- Created with Method Draw - http://github.com/duopixel/Method-Draw/ -->

 <g>
  <title>background</title>
  <rect fill="#fff" id="canvas_background" height="602" width="440" y="-1" x="-1"/>
  <g display="none" overflow="visible" y="0" x="0" height="100%" width="100%" id="canvasGrid">
   <rect fill="url(#gridpattern)" stroke-width="0" y="0" x="0" height="100%" width="100%"/>
  </g>
 </g>
 <g>
  <title>Layer 1</title>
  <metadata transform="matrix(4,0,0,4,0,0) " id="svg_33">image/svg+xml</metadata>

  <g id="svg_35">
   <path fill="#ffffff" fill-rule="nonzero" id="svg_32" d="m77.26561,498.42967l283.46876,0l0,-396.85936l-283.46876,0l0,396.85936zm0,0"/>
   <path fill="none" stroke="#211e1e" stroke-width="0.2835" stroke-miterlimit="4" id="svg_31" d="m77.26561,498.42967l283.46876,0l0,-396.85936l-283.46876,0l0,396.85936"/>
   <path fill="#211e1e" fill-rule="nonzero" id="svg_30" d="m82.93749,481.41403l0,-362.82812c0,-3.1406 1.10936,-5.81248 3.31248,-8.0156c2.21876,-2.21876 4.89064,-3.32812 8.01564,-3.32812l249.45312,0c3.125,0 5.81248,1.10936 8.01564,3.32812c2.21872,2.20312 3.32812,4.875 3.32812,8.0156l0,362.82812c0,3.125 -1.1094,5.79688 -3.32812,8.01564c-2.20316,2.21876 -4.89064,3.32812 -8.01564,3.32812l-249.45312,0c-3.125,0 -5.79688,-1.10936 -8.01564,-3.32812c-2.20312,-2.21876 -3.31248,-4.89064 -3.31248,-8.01564"/>
   <path fill="#ffffff" fill-rule="nonzero" id="svg_29" d="m88.60937,481.41403l0,-362.82812c0,-1.57812 0.54684,-2.90624 1.65624,-4.0156c1.10936,-1.1094 2.43748,-1.65628 4,-1.65628l249.45312,0c1.56248,0 2.90624,0.54688 4.01564,1.65628c1.09372,1.10936 1.65624,2.43748 1.65624,4.0156l0,362.82812c0,1.56252 -0.56252,2.89064 -1.65624,4.01564c-1.1094,1.09376 -2.45316,1.65624 -4.01564,1.65624l-249.45312,0c-1.56252,0 -2.89064,-0.56248 -4,-1.65624c-1.1094,-1.125 -1.65624,-2.45312 -1.65624,-4.01564"/>
   <path fill="#211e1e" fill-rule="nonzero" id="svg_28" d="m159.12497,172.42967l23.43752,0l0,-5.04688l-16.54688,0l16.25,-29.45312l0,-5.17188l-22.64064,0l0,5.06252l15.42188,0l-15.92188,29.06248l0,5.54688"/>
   <path fill="#211e1e" fill-rule="nonzero" id="svg_27" d="m190.46873,167.78903c1.35936,1.68752 2.95312,2.93752 4.82812,3.79688c1.81252,0.89064 3.81252,1.29688 5.90624,1.29688c2.21876,0 4.26564,-0.40624 6.15628,-1.23436c1.875,-0.8594 3.45312,-2.1094 4.81248,-3.81252c1.375,-1.65624 2.45312,-3.81248 3.25,-6.375c0.75,-2.54688 1.14064,-5.60936 1.14064,-9.07812c0,-3.35936 -0.39064,-6.26564 -1.14064,-8.76564c-0.79688,-2.5 -1.875,-4.60936 -3.25,-6.32812c-1.35936,-1.625 -2.93748,-2.93748 -4.76564,-3.79688c-1.875,-0.84372 -3.85936,-1.25 -5.96872,-1.25c-2.21876,0 -4.20312,0.40628 -6.09376,1.25c-1.875,0.8594 -3.51564,2.1094 -4.875,3.76564c-1.375,1.68752 -2.45312,3.85936 -3.18752,6.42188c-0.79684,2.54688 -1.20312,5.625 -1.20312,9.07812c0,3.35936 0.40624,6.26564 1.20312,8.76564c0.7344,2.5 1.81252,4.60936 3.18752,6.2656"/>
   <path fill="#211e1e" fill-rule="nonzero" id="svg_26" d="m222.99997,172.42967l5.68752,0l0,-31.71876l0.10936,0l14.03124,31.71876l7.45312,0l0,-39.67188l-5.68748,0l0,31.95312l-0.10936,0l-14.04688,-31.95312l-7.43752,0l0,39.67188"/>
   <path fill="#211e1e" fill-rule="nonzero" id="svg_25" d="m258.56249,172.42967l20.28124,0l0,-5.04688l-14.14064,0l0,-12.90624l12.84376,0l0,-5.06252l-12.84376,0l0,-11.59372l13.53128,0l0,-5.06252l-19.67188,0l0,39.67188"/>
   <path fill="#ffffff" fill-rule="nonzero" id="svg_24" d="m194.73437,163.96091c-1.54688,-2.71872 -2.28128,-6.46872 -2.28128,-11.20312c0,-2.8906 0.23436,-5.32812 0.7344,-7.32812c0.45312,-1.98436 1.07812,-3.64064 1.93748,-4.875c0.79688,-1.20312 1.76564,-2.125 2.84376,-2.68748c1.07812,-0.51564 2.26564,-0.78128 3.46876,-0.78128c2.84372,0 5,1.34376 6.53124,4.09376c1.48436,2.71876 2.21876,6.46876 2.21876,11.20312c0,2.89064 -0.21876,5.32812 -0.67188,7.32812c-0.51564,1.9844 -1.14064,3.64064 -1.95312,4.82812c-0.84376,1.25 -1.81252,2.15628 -2.89064,2.67188c-1.07812,0.57812 -2.26564,0.84376 -3.46876,0.84376c-2.82812,0 -5,-1.35936 -6.46872,-4.09376"/>
   <path fill="#ee2b2e" fill-rule="nonzero" id="svg_23" d="m299.18749,219.82031c44.28124,44.28124 44.28124,116.07812 0,160.35936c-44.28128,44.26564 -116.07812,44.26564 -160.3594,0c-44.28124,-44.28124 -44.28124,-116.07812 0,-160.35936c44.28128,-44.28128 116.07812,-44.28128 160.3594,0"/>
   <path fill="#ffffff" fill-rule="nonzero" id="svg_22" d="m174.17185,239.10155l105.73436,105.73436c3.7344,-5.06248 6.79688,-10.5 9.17188,-16.3906c3.68752,-9.09376 5.53128,-18.57812 5.53128,-28.46876c0,-9.875 -1.82816,-19.35936 -5.53128,-28.46876c-3.81248,-9.375 -9.34372,-17.71876 -16.60936,-24.96876c-7.25,-7.2656 -15.59376,-12.79684 -24.96876,-16.60936c-9.10936,-3.70312 -18.59376,-5.54688 -28.48436,-5.54688c-9.875,0.0156 -19.3594,1.8594 -28.46876,5.53124c-5.85936,2.39064 -11.32812,5.45316 -16.375,9.18752"/>
   <path fill="#ffffff" fill-rule="nonzero" id="svg_21" d="m263.87497,360.88279l-105.71876,-105.73436c-3.75,5.04688 -6.79684,10.5 -9.18748,16.375c-3.67188,9.09376 -5.53124,18.59376 -5.53124,28.45312c0,9.89064 1.84372,19.39064 5.54688,28.48436c3.79684,9.39064 9.32812,17.71876 16.59372,24.96876c7.26564,7.26564 15.59376,12.79688 24.9844,16.625c9.10936,3.68752 18.57812,5.53124 28.46872,5.53124c9.89064,0 19.375,-1.85936 28.46876,-5.53124c5.875,-2.39064 11.32812,-5.45312 16.375,-9.17188"/>
   <path fill="#1966ba" fill-rule="nonzero" id="svg_20" d="m177.67185,239.41403c4.29688,-2.95312 8.875,-5.40624 13.73436,-7.375c8.82816,-3.57812 18.03128,-5.375 27.625,-5.375c9.56252,0 18.76564,1.79688 27.6094,5.375c9.10936,3.70316 17.18748,9.06252 24.23436,16.1094c7.03124,7.03124 12.40624,15.10936 16.1094,24.23436c3.57812,8.81252 5.35936,18.01564 5.35936,27.6094c0,9.57812 -1.78124,18.78124 -5.35936,27.60936c-1.96876,4.85936 -4.43752,9.43748 -7.375,13.75l-101.93752,-101.93752"/>
   <path fill="#1966ba" fill-rule="nonzero" id="svg_19" d="m260.35937,360.57031c-4.29688,2.95312 -8.8594,5.40624 -13.7344,7.375c-8.82812,3.57812 -18.03124,5.375 -27.60936,5.375c-9.59376,0 -18.79688,-1.79688 -27.6094,-5.375c-9.10936,-3.70312 -17.18748,-9.07812 -24.23436,-16.1094c-7.04688,-7.04688 -12.40624,-15.125 -16.10936,-24.23436c-3.57812,-8.82812 -5.375,-18.03124 -5.375,-27.60936c0.0156,-9.59376 1.79688,-18.79688 5.375,-27.625c1.96872,-4.8594 4.42188,-9.43752 7.375,-13.7344l101.92188,101.93752"/>
  </g>
  <text xml:space="preserve" text-anchor="start" font-family="sans-serif" font-size="28" id="svg_36" y="469" x="124.8125" stroke-width="0" stroke="#000" fill="#000000">param(text1)</text>
 </g>
</svg>