<?xml version="1.0" encoding="UTF-8"?>
<svg xmlns="http://www.w3.org/2000/svg" xmlns:xlink="http://www.w3.org/1999/xlink" width="87pt" height="86pt" viewBox="0 0 87 86" version="1.1">
<g id="surface1">
<path style="fill-rule:nonzero;fill:rgb(100%,100%,100%);fill-opacity:1;stroke-width:2.835;stroke-linecap:butt;stroke-linejoin:round;stroke:rgb(13.729858%,12.159729%,12.548828%);stroke-opacity:1;stroke-miterlimit:4;" d="M 435.195312 853.476562 C 670 853.476562 860.390625 663.085938 860.390625 428.28125 C 860.390625 193.4375 670 3.085938 435.195312 3.085938 C 200.351562 3.085938 10 193.4375 10 428.28125 C 10 663.085938 200.351562 853.476562 435.195312 853.476562 " transform="matrix(0.1,0,0,-0.1,0,86)"/>
<path style=" stroke:none;fill-rule:nonzero;fill:rgb(10.112%,40.585327%,73.280334%);fill-opacity:1;" d="M 43.515625 2.074219 C 49.089844 2.074219 54.421875 3.152344 59.515625 5.304688 C 64.429688 7.382812 68.785156 10.320312 72.578125 14.113281 C 76.371094 17.90625 79.308594 22.261719 81.386719 27.179688 C 83.539062 32.269531 84.617188 37.601562 84.617188 43.175781 C 84.617188 48.75 83.539062 54.085938 81.386719 59.175781 C 79.308594 64.09375 76.371094 68.449219 72.578125 72.238281 C 68.785156 76.03125 64.429688 78.96875 59.515625 81.050781 C 54.421875 83.203125 49.089844 84.28125 43.515625 84.28125 C 37.941406 84.28125 32.605469 83.203125 27.515625 81.050781 C 22.601562 78.96875 18.246094 76.03125 14.453125 72.238281 C 10.660156 68.449219 7.722656 64.09375 5.640625 59.175781 C 3.488281 54.085938 2.414062 48.75 2.414062 43.175781 C 2.414062 37.601562 3.488281 32.269531 5.640625 27.179688 C 7.722656 22.261719 10.660156 17.90625 14.453125 14.113281 C 18.246094 10.320312 22.601562 7.382812 27.515625 5.304688 C 32.605469 3.152344 37.941406 2.074219 43.515625 2.074219 "/>
<path style=" stroke:none;fill-rule:nonzero;fill:rgb(100%,100%,100%);fill-opacity:1;" d="M 54.410156 57.550781 C 54.414062 57.71875 54.035156 58 53.855469 58.167969 C 53.703125 58.292969 53.542969 58.410156 53.367188 58.523438 C 53.246094 58.59375 52.910156 58.796875 52.816406 58.902344 C 52.769531 58.933594 52.511719 59.335938 52.492188 59.394531 L 51.761719 60.292969 L 51.285156 60.980469 L 50.730469 61.605469 L 50.46875 62.226562 C 50.414062 62.367188 50.210938 62.648438 50.128906 62.800781 C 49.964844 63.035156 49.796875 63.285156 49.691406 63.5625 C 49.550781 63.785156 49.445312 64.070312 49.425781 64.335938 C 49.410156 64.425781 49.382812 64.734375 49.316406 64.761719 C 49.269531 64.792969 49.09375 64.816406 49.046875 64.792969 C 48.902344 64.816406 48.636719 64.875 48.515625 64.921875 C 48.355469 64.9375 48.050781 65.027344 47.910156 65.09375 C 47.789062 65.152344 47.65625 65.246094 47.601562 65.363281 C 47.566406 65.441406 47.578125 65.558594 47.59375 65.648438 C 47.59375 65.691406 47.691406 66.039062 47.691406 66.0625 C 47.710938 66.175781 47.726562 66.3125 47.75 66.429688 C 47.722656 66.640625 47.628906 66.855469 47.539062 67.054688 C 47.460938 67.230469 47.292969 67.484375 47.199219 67.640625 L 43.628906 67.632812 C 43.703125 67.476562 43.792969 67.289062 43.882812 67.136719 C 44.082031 66.746094 44.347656 66.246094 44.671875 65.898438 C 44.878906 65.664062 45.371094 65.296875 45.644531 65.074219 C 45.75 64.988281 46.105469 64.707031 46.214844 64.628906 C 46.339844 64.558594 46.46875 64.457031 46.558594 64.394531 C 46.566406 64.28125 46.570312 64.113281 46.601562 64.015625 C 46.65625 63.710938 46.84375 63.40625 47.050781 63.171875 C 47.246094 62.914062 47.484375 62.695312 47.722656 62.5 C 47.890625 62.394531 48.136719 62.242188 48.296875 62.144531 C 48.347656 61.980469 48.417969 61.785156 48.472656 61.648438 L 48.960938 60.335938 C 49.070312 60.054688 49.375 59.210938 49.507812 58.941406 L 50.285156 57.425781 C 50.4375 57.078125 50.585938 56.738281 50.691406 56.394531 C 50.726562 56.273438 50.773438 56.105469 50.785156 55.992188 C 50.785156 55.878906 50.773438 55.785156 50.769531 55.695312 C 50.742188 55.535156 50.703125 55.351562 50.628906 55.199219 L 50.21875 54.375 C 50.046875 54.046875 49.929688 53.726562 49.863281 53.390625 C 49.726562 52.9375 49.640625 52.472656 49.585938 52.035156 C 49.507812 51.605469 49.445312 51.171875 49.410156 50.738281 L 49.351562 49.554688 C 49.351562 49.414062 49.332031 49.230469 49.3125 49.09375 C 49.144531 49.117188 48.875 49.144531 48.707031 49.191406 C 48.300781 49.285156 47.726562 49.421875 47.328125 49.527344 C 46.890625 49.636719 46.277344 49.78125 45.855469 49.933594 L 44.195312 50.550781 C 43.714844 50.683594 42.894531 50.808594 42.425781 50.902344 C 41.84375 50.980469 40.492188 51.210938 39.910156 51.273438 C 39.277344 51.332031 38.605469 51.347656 37.945312 51.296875 C 37.453125 51.273438 36.5 51.105469 35.988281 51.039062 C 35.671875 50.988281 35.316406 50.917969 34.960938 50.871094 C 34.765625 50.847656 34.484375 50.796875 34.285156 50.78125 C 34.308594 50.964844 34.300781 51.238281 34.300781 51.425781 C 34.308594 51.820312 34.339844 52.226562 34.371094 52.644531 C 34.394531 53.171875 34.449219 53.765625 34.523438 54.308594 C 34.53125 54.355469 34.820312 56.113281 34.820312 56.183594 C 34.855469 56.410156 35.078125 57.90625 35.132812 58.132812 C 35.222656 58.632812 35.339844 59.113281 35.488281 59.609375 C 35.535156 59.789062 35.707031 60.386719 35.757812 60.566406 C 35.769531 60.632812 35.925781 61.441406 35.9375 61.476562 C 35.976562 61.59375 36.042969 61.75 36.101562 61.859375 C 36.144531 61.945312 36.183594 62.054688 36.242188 62.132812 L 36.554688 62.648438 L 36.683594 63.074219 C 36.714844 63.140625 36.804688 63.265625 36.871094 63.324219 C 36.925781 63.382812 37.042969 63.507812 37.054688 63.621094 C 37.09375 63.730469 37.058594 63.847656 37.023438 63.972656 C 36.953125 64.117188 36.777344 64.230469 36.628906 64.300781 C 36.542969 64.339844 36.355469 64.433594 36.296875 64.515625 C 36.230469 64.566406 36.21875 64.65625 36.214844 64.777344 C 36.21875 64.84375 36.285156 65 36.328125 65.09375 L 36.558594 65.753906 C 36.597656 65.859375 36.707031 66.117188 36.726562 66.257812 C 36.75 66.4375 36.65625 66.824219 36.609375 67.011719 L 36.453125 67.632812 C 36.414062 67.753906 36.359375 67.917969 36.304688 68.042969 C 36.1875 68.0625 36.042969 68.082031 35.914062 68.074219 C 35.601562 68.113281 35.222656 68.121094 34.90625 68.113281 L 34.144531 68.082031 L 33.40625 68.070312 C 33.382812 68.070312 32.960938 68.035156 32.914062 68.042969 C 32.8125 68.054688 32.667969 68.050781 32.570312 68.070312 C 32.574219 67.949219 32.582031 67.742188 32.605469 67.632812 C 32.660156 67.308594 32.800781 67.019531 32.953125 66.746094 C 33.066406 66.496094 33.234375 66.285156 33.429688 66.082031 L 33.835938 65.632812 C 33.917969 65.53125 34.023438 65.394531 34.058594 65.269531 C 34.09375 65.203125 34.109375 65.085938 34.117188 64.988281 C 34.132812 64.761719 34.089844 64.394531 34.046875 64.164062 C 34.03125 63.789062 33.96875 63.324219 33.96875 62.949219 C 33.976562 62.808594 33.960938 62.558594 33.941406 62.425781 C 33.90625 62.347656 33.757812 61.988281 33.730469 61.902344 C 33.617188 61.707031 33.570312 61.507812 33.496094 61.308594 C 33.492188 61.242188 33.414062 61.039062 33.398438 60.945312 L 32.921875 60.023438 C 32.871094 59.871094 32.589844 59.171875 32.554688 59.015625 C 32.3125 58.398438 31.710938 57.214844 31.433594 56.609375 C 31.273438 56.273438 30.667969 55.082031 30.5 54.753906 L 29.488281 52.925781 C 29.359375 52.722656 29.097656 52.246094 28.949219 52.03125 C 28.847656 51.863281 28.675781 51.628906 28.570312 51.464844 C 28.386719 51.511719 28.195312 51.539062 28.023438 51.582031 L 25.945312 52.003906 C 25.566406 52.074219 24.644531 52.246094 24.242188 52.351562 C 23.910156 52.421875 22.921875 52.636719 22.59375 52.683594 C 22.445312 52.710938 22.203125 52.714844 22.054688 52.734375 C 22 52.863281 21.933594 53.074219 21.878906 53.222656 C 21.847656 53.367188 21.628906 54.25 21.589844 54.386719 C 21.53125 54.65625 21.320312 55.519531 21.285156 55.777344 C 21.265625 55.960938 21.238281 56.175781 21.265625 56.382812 C 21.300781 56.582031 21.378906 56.800781 21.476562 56.976562 C 21.554688 57.144531 21.640625 57.324219 21.742188 57.449219 C 21.882812 57.632812 22.054688 57.800781 22.238281 57.90625 C 22.425781 57.992188 22.707031 58.042969 22.910156 58.074219 L 23.890625 58.1875 C 24.023438 58.199219 24.425781 58.265625 24.582031 58.265625 C 24.648438 58.253906 24.867188 58.246094 24.925781 58.28125 C 25.027344 58.316406 25.117188 58.464844 25.15625 58.535156 C 25.210938 58.621094 25.300781 58.746094 25.410156 58.796875 C 25.523438 58.855469 25.71875 58.847656 25.855469 58.832031 C 26.050781 58.804688 26.492188 58.777344 26.683594 58.769531 C 26.90625 58.78125 27.144531 58.816406 27.328125 58.933594 C 27.535156 59.042969 27.734375 59.269531 27.867188 59.484375 C 27.957031 59.636719 28.054688 59.824219 28.152344 60.003906 C 28.261719 60.238281 28.367188 60.476562 28.46875 60.71875 C 28.554688 60.933594 28.632812 61.175781 28.667969 61.429688 C 28.71875 61.632812 28.78125 61.902344 28.804688 62.105469 C 28.683594 62.09375 28.527344 62.046875 28.429688 62.019531 C 28.226562 61.949219 27.988281 61.84375 27.808594 61.75 C 27.730469 61.71875 27.578125 61.675781 27.492188 61.628906 C 27.445312 61.640625 27.113281 61.589844 27.089844 61.59375 C 27.007812 61.582031 26.910156 61.566406 26.839844 61.535156 C 26.785156 61.496094 26.59375 61.332031 26.535156 61.308594 C 26.402344 61.15625 26.210938 61.070312 26.023438 60.992188 C 25.875 60.960938 25.722656 60.929688 25.550781 60.929688 L 24.917969 60.984375 C 24.789062 60.992188 24.644531 60.960938 24.523438 60.960938 C 24.269531 60.917969 24.015625 60.859375 23.8125 60.769531 C 23.523438 60.65625 23.171875 60.46875 22.910156 60.292969 C 22.726562 60.179688 22.320312 59.910156 22.082031 59.832031 C 21.792969 59.6875 21.351562 59.570312 21.054688 59.503906 L 19.957031 59.230469 C 19.78125 59.164062 19.519531 59.105469 19.351562 59.042969 C 19.1875 58.96875 18.976562 58.855469 18.878906 58.707031 C 18.734375 58.539062 18.695312 58.222656 18.667969 58.023438 C 18.675781 57.859375 18.625 56.984375 18.605469 56.832031 C 18.582031 56.296875 18.535156 55.738281 18.484375 55.207031 C 18.441406 54.726562 18.386719 54.273438 18.34375 53.792969 C 18.296875 53.46875 18.253906 52.964844 18.257812 52.644531 C 18.273438 52.34375 18.300781 52.015625 18.4375 51.765625 C 18.570312 51.515625 18.789062 51.300781 19.035156 51.132812 C 19.335938 50.878906 19.796875 50.640625 20.175781 50.46875 C 20.519531 50.28125 21.582031 49.773438 21.933594 49.589844 C 22.109375 49.472656 23.148438 48.820312 23.335938 48.707031 C 23.757812 48.414062 24.214844 48.144531 24.648438 47.902344 C 25.15625 47.621094 25.628906 47.34375 26.132812 47.074219 C 26.289062 46.984375 26.480469 46.886719 26.644531 46.824219 C 26.589844 46.667969 26.492188 46.445312 26.449219 46.308594 C 26.332031 46.035156 26.226562 45.449219 26.164062 45.148438 L 25.886719 43.824219 C 25.804688 43.328125 25.679688 42.699219 25.621094 42.179688 C 25.601562 42.042969 25.566406 41.792969 25.542969 41.65625 C 25.460938 41.554688 25.339844 41.386719 25.253906 41.28125 C 25.015625 40.941406 24.679688 40.457031 24.453125 40.089844 C 24.261719 39.816406 23.96875 39.394531 23.785156 39.09375 L 22.910156 37.949219 C 22.824219 37.816406 22.695312 37.652344 22.597656 37.503906 C 22.476562 37.496094 22.179688 37.496094 22.054688 37.484375 C 21.730469 37.457031 21.382812 37.429688 21.039062 37.4375 C 20.816406 37.425781 20.15625 37.390625 19.9375 37.378906 C 19.605469 37.351562 19.265625 37.332031 18.921875 37.253906 C 18.695312 37.214844 18.449219 37.164062 18.222656 37.078125 C 18.015625 37.03125 17.726562 36.957031 17.542969 36.886719 C 17.507812 36.9375 17.457031 36.996094 17.421875 37.019531 L 16.988281 37.339844 C 16.953125 37.363281 16.703125 37.5625 16.683594 37.5625 C 16.660156 37.570312 16.234375 37.613281 16.210938 37.628906 C 16.136719 37.640625 15.753906 37.753906 15.683594 37.785156 C 15.4375 37.863281 15.238281 37.925781 15.019531 37.929688 C 14.839844 37.925781 14.664062 37.910156 14.515625 37.882812 C 14.28125 37.8125 14.074219 37.679688 13.875 37.570312 C 13.6875 37.460938 13.53125 37.339844 13.363281 37.195312 C 13.222656 37.082031 13.085938 36.9375 13.011719 36.78125 C 12.902344 36.527344 12.894531 36.148438 12.933594 35.878906 L 13.128906 34.558594 C 13.175781 34.199219 13.199219 33.828125 13.175781 33.488281 C 13.191406 32.988281 13.109375 32.457031 13.03125 31.984375 C 12.988281 31.664062 12.871094 31.027344 12.90625 30.695312 L 13.015625 29.925781 C 13.058594 29.828125 13.078125 29.457031 13.085938 29.351562 C 13.109375 28.933594 13.164062 28.464844 13.285156 28.09375 C 13.402344 27.675781 13.601562 27.308594 13.824219 26.953125 C 13.917969 26.816406 14.101562 26.496094 14.164062 26.320312 C 14.183594 26.207031 14.171875 26.070312 14.128906 25.9375 C 14.113281 25.820312 14.042969 25.671875 14.007812 25.578125 C 13.96875 25.492188 13.828125 25.191406 13.796875 25.105469 L 13.4375 24.484375 C 13.394531 24.398438 13.363281 24.261719 13.320312 24.167969 C 13.46875 24.136719 13.578125 24.050781 13.726562 24.054688 C 14.023438 24.058594 14.382812 24.195312 14.652344 24.324219 C 14.914062 24.46875 15.226562 24.628906 15.472656 24.8125 C 15.65625 24.941406 15.859375 25.097656 16.027344 25.265625 C 16.171875 25.378906 16.335938 25.539062 16.457031 25.664062 C 16.5625 25.585938 16.769531 25.488281 16.894531 25.421875 C 17.277344 25.230469 17.910156 25.171875 18.351562 25.132812 C 18.765625 25.097656 19.246094 25.085938 19.644531 25.09375 C 21.816406 25.121094 24.199219 26.199219 26.015625 27.289062 C 27.570312 28.191406 29.15625 29.246094 30.488281 30.402344 C 30.71875 30.597656 33.1875 33.023438 33.414062 33.222656 C 33.800781 33.585938 34.199219 33.96875 34.617188 34.300781 C 34.707031 34.390625 34.902344 34.542969 34.976562 34.621094 C 35.074219 34.585938 35.242188 34.546875 35.335938 34.507812 C 35.566406 34.433594 35.804688 34.332031 36.011719 34.226562 C 36.171875 34.164062 36.335938 34.074219 36.464844 33.964844 C 36.566406 33.871094 36.683594 33.785156 36.769531 33.664062 C 36.832031 33.578125 36.867188 33.488281 36.910156 33.394531 L 36.980469 32.9375 C 37.058594 32.632812 37.277344 32.328125 37.476562 32.066406 C 37.746094 31.800781 38.039062 31.554688 38.347656 31.371094 L 39.550781 30.769531 C 39.660156 30.683594 39.800781 30.628906 39.886719 30.523438 C 39.953125 30.460938 40.019531 30.378906 40.050781 30.308594 C 40.0625 30.242188 40.042969 30.105469 40.035156 30.035156 C 40 29.804688 39.957031 29.554688 39.902344 29.34375 L 39.539062 27.929688 C 39.386719 27.375 39.261719 26.785156 39.160156 26.222656 C 39.058594 25.683594 38.972656 25.046875 38.996094 24.496094 C 39.007812 23.984375 39.105469 23.488281 39.253906 22.984375 C 39.359375 22.683594 39.488281 22.394531 39.710938 22.144531 C 39.753906 22.097656 39.832031 21.992188 39.855469 21.945312 C 39.867188 21.875 39.824219 21.746094 39.796875 21.699219 L 39.625 21.148438 C 39.550781 20.972656 39.453125 20.800781 39.332031 20.632812 C 39.265625 20.511719 39.148438 20.402344 39.039062 20.304688 C 39.015625 20.257812 38.929688 20.207031 38.878906 20.191406 C 38.824219 20.167969 38.710938 20.210938 38.664062 20.242188 C 38.578125 20.277344 38.457031 20.28125 38.359375 20.304688 C 38.191406 20.324219 38.019531 20.328125 37.855469 20.257812 C 37.726562 20.183594 37.636719 20.070312 37.558594 19.976562 C 37.457031 19.84375 37.417969 19.6875 37.367188 19.554688 C 37.359375 19.464844 37.304688 19.289062 37.277344 19.222656 C 37.242188 19.164062 37.183594 19.097656 37.109375 19.105469 C 37.085938 19.105469 37.023438 19.140625 37 19.140625 C 36.953125 19.183594 36.832031 19.234375 36.78125 19.226562 C 36.734375 19.183594 36.683594 19.042969 36.671875 18.980469 C 36.628906 18.804688 36.621094 18.59375 36.640625 18.382812 C 36.652344 18.265625 36.671875 18.050781 36.664062 17.9375 C 36.621094 17.859375 36.550781 17.722656 36.5 17.65625 C 36.417969 17.519531 36.335938 17.363281 36.257812 17.210938 C 36.1875 16.996094 36.136719 16.765625 36.121094 16.535156 C 36.109375 16.261719 36.1875 15.976562 36.3125 15.722656 C 36.453125 15.476562 36.671875 15.265625 36.917969 15.085938 C 37.15625 14.917969 37.675781 14.753906 37.964844 14.691406 L 38.886719 14.40625 C 39.085938 14.328125 39.378906 14.273438 39.597656 14.261719 C 39.820312 14.28125 40.039062 14.335938 40.21875 14.414062 C 40.550781 14.578125 40.839844 14.859375 41.070312 15.128906 C 41.28125 15.375 41.46875 15.675781 41.582031 15.964844 C 41.640625 16.140625 41.6875 16.367188 41.703125 16.523438 C 41.730469 16.707031 41.753906 16.902344 41.785156 17.082031 C 41.828125 17.378906 41.859375 17.816406 41.878906 18.113281 C 41.886719 18.226562 41.894531 18.464844 41.90625 18.574219 C 41.941406 18.683594 41.992188 18.785156 42.0625 18.902344 C 42.125 19.078125 42.230469 19.269531 42.34375 19.417969 C 42.457031 19.542969 42.597656 19.65625 42.722656 19.757812 L 43.90625 20.296875 C 44.519531 20.574219 45.019531 21 45.421875 21.496094 C 45.765625 21.941406 46.050781 22.457031 46.238281 22.984375 L 46.988281 24.886719 C 47.269531 25.492188 47.722656 26.246094 48.09375 26.816406 C 48.367188 27.242188 48.6875 27.730469 48.980469 28.148438 C 49.09375 28.277344 49.285156 28.550781 49.375 28.699219 C 49.480469 28.925781 49.558594 29.15625 49.53125 29.421875 C 49.492188 29.726562 49.269531 30.058594 49.101562 30.308594 C 48.957031 30.492188 48.804688 30.675781 48.664062 30.859375 L 48.066406 31.46875 C 47.96875 31.542969 47.855469 31.652344 47.796875 31.738281 C 47.863281 31.8125 47.949219 31.941406 47.984375 32.03125 C 48.234375 32.386719 48.390625 32.863281 48.515625 33.25 C 48.691406 33.8125 48.816406 34.363281 48.894531 34.941406 C 48.957031 35.4375 49.003906 35.941406 49.007812 36.453125 C 48.996094 36.613281 48.980469 36.839844 48.980469 37.011719 C 49.269531 36.996094 49.679688 36.957031 49.945312 36.9375 C 50.804688 36.921875 51.691406 36.914062 52.570312 36.945312 C 53.054688 36.9375 54.535156 36.992188 55.027344 37.019531 C 55.695312 37.042969 56.765625 37.109375 57.378906 37.324219 C 57.847656 37.496094 58.59375 37.941406 59 38.210938 C 59.164062 38.296875 59.324219 38.402344 59.480469 38.492188 C 59.628906 38.480469 59.917969 38.394531 60.058594 38.367188 C 60.820312 38.195312 61.703125 38.011719 62.480469 37.949219 C 63.480469 37.839844 64.519531 37.863281 65.492188 38.050781 C 66.335938 38.234375 67.109375 38.523438 67.835938 38.964844 C 68.527344 39.371094 69.117188 39.894531 69.59375 40.515625 C 70.046875 41.132812 70.523438 42.089844 70.832031 42.765625 C 71.1875 43.570312 71.539062 44.382812 71.875 45.183594 C 72.164062 45.890625 72.5 46.726562 72.742188 47.449219 L 73.414062 49.507812 C 73.542969 49.90625 73.726562 50.304688 73.925781 50.683594 C 74.214844 51.171875 74.578125 51.707031 75.078125 52.054688 C 75.289062 52.214844 76.183594 52.671875 76.421875 52.796875 C 76.648438 52.902344 76.976562 53.089844 77.222656 53.222656 C 77.328125 53.28125 77.519531 53.410156 77.527344 53.527344 C 77.570312 53.636719 77.460938 53.792969 77.40625 53.863281 C 77.296875 54.027344 77.152344 54.144531 76.984375 54.242188 C 76.734375 54.398438 76.421875 54.464844 76.132812 54.453125 C 75.746094 54.484375 75.265625 54.40625 74.886719 54.328125 C 74.195312 54.171875 73.523438 53.929688 72.894531 53.648438 C 72.179688 53.300781 71.511719 52.816406 70.925781 52.316406 C 70.363281 51.859375 69.855469 51.328125 69.417969 50.796875 C 68.8125 49.996094 68.328125 48.988281 67.96875 48.097656 C 67.679688 47.421875 67.441406 46.714844 67.1875 46.027344 C 66.988281 45.476562 66.589844 44.351562 66.351562 43.824219 C 66.082031 43.242188 65.757812 42.640625 65.316406 42.148438 C 64.90625 41.664062 64.414062 41.269531 63.851562 40.953125 C 63.421875 40.710938 62.949219 40.503906 62.472656 40.402344 C 62.121094 40.339844 61.742188 40.316406 61.367188 40.371094 C 61.246094 40.386719 61.027344 40.417969 60.886719 40.457031 C 60.996094 40.554688 61.148438 40.746094 61.226562 40.855469 C 61.480469 41.210938 61.664062 41.6875 61.796875 42.089844 C 62.03125 42.792969 62.179688 43.542969 62.242188 44.296875 C 62.296875 45.042969 62.222656 45.824219 62.058594 46.558594 C 61.875 47.277344 61.585938 48.03125 61.28125 48.71875 C 61.28125 48.71875 60.636719 50.132812 60.609375 50.132812 C 60.480469 50.425781 60.199219 51.019531 60.03125 51.320312 C 59.996094 51.394531 59.917969 51.539062 59.855469 51.617188 C 59.945312 51.722656 60.039062 51.878906 60.121094 51.949219 C 60.304688 52.230469 60.621094 52.558594 60.847656 52.792969 C 61.082031 53.039062 61.394531 53.371094 61.671875 53.589844 C 61.753906 53.652344 61.917969 53.769531 61.980469 53.847656 C 62.039062 53.933594 62.085938 54.066406 62.101562 54.179688 L 62.191406 54.65625 L 62.316406 55.191406 C 62.339844 55.441406 62.316406 55.964844 62.296875 56.210938 C 62.289062 56.53125 62.289062 56.863281 62.308594 57.183594 C 62.316406 57.621094 62.359375 58.128906 62.492188 58.542969 C 62.585938 58.875 62.726562 59.203125 62.9375 59.511719 C 63.09375 59.730469 63.34375 59.925781 63.558594 60.101562 C 63.683594 60.183594 63.808594 60.277344 63.917969 60.351562 C 63.90625 60.453125 63.878906 60.574219 63.867188 60.664062 C 63.839844 60.847656 63.867188 61.03125 63.957031 61.1875 C 64.046875 61.3125 64.210938 61.40625 64.386719 61.425781 C 64.484375 61.464844 64.605469 61.464844 64.707031 61.449219 L 65.230469 61.351562 C 65.28125 61.351562 65.542969 61.3125 65.589844 61.3125 C 65.664062 61.308594 65.808594 61.28125 65.859375 61.292969 C 65.96875 61.339844 66.027344 61.410156 66.085938 61.476562 C 66.167969 61.5625 66.269531 61.726562 66.304688 61.8125 C 66.359375 61.875 66.714844 62.5 66.75 62.570312 L 67.171875 63.496094 C 67.203125 63.566406 67.300781 63.738281 67.292969 63.832031 C 67.277344 63.902344 67.183594 63.960938 67.109375 64.015625 C 67.046875 64.046875 66.925781 64.089844 66.835938 64.097656 C 66.6875 64.117188 66.519531 64.148438 66.351562 64.167969 C 66.085938 64.175781 65.792969 64.214844 65.5 64.230469 L 64.570312 64.242188 C 64.421875 64.261719 64.15625 64.28125 64.027344 64.230469 C 63.839844 64.183594 63.652344 64.046875 63.523438 63.921875 L 62.957031 63.40625 C 62.875 63.34375 62.132812 62.761719 62.039062 62.691406 C 61.734375 62.433594 61.375 62.132812 61.160156 61.816406 C 60.910156 61.457031 60.703125 60.820312 60.601562 60.414062 C 60.527344 60.210938 60.191406 58.996094 60.121094 58.789062 C 60.023438 58.410156 59.875 57.90625 59.742188 57.519531 C 59.726562 57.363281 59.648438 57.144531 59.578125 56.996094 L 59.320312 56.566406 L 59.085938 56.070312 C 58.960938 55.855469 58.554688 55.601562 58.339844 55.496094 C 58.023438 55.304688 57.695312 55.097656 57.417969 54.851562 L 56.742188 54.210938 C 56.535156 54.007812 56.292969 53.832031 56.074219 53.652344 C 55.972656 53.59375 55.835938 53.523438 55.738281 53.496094 C 55.625 53.457031 55.496094 53.453125 55.429688 53.488281 C 55.351562 53.523438 55.257812 53.59375 55.222656 53.675781 C 55.179688 53.757812 55.152344 53.871094 55.136719 53.960938 C 55.125 54.066406 54.976562 54.628906 54.96875 54.730469 C 54.867188 55.113281 54.808594 55.535156 54.738281 55.933594 C 54.730469 56.070312 54.636719 56.765625 54.59375 56.910156 C 54.550781 57.078125 54.46875 57.363281 54.410156 57.550781 "/>
<path style=" stroke:none;fill-rule:nonzero;fill:rgb(10.112%,40.585327%,73.280334%);fill-opacity:1;" d="M 40.503906 32.9375 L 40.746094 34.9375 C 40.632812 34.980469 40.449219 35.066406 40.332031 35.132812 C 40 35.273438 39.535156 35.429688 39.203125 35.519531 C 38.78125 35.640625 38.15625 35.839844 37.773438 35.992188 C 37.605469 36.035156 37.335938 36.117188 37.175781 36.160156 C 37.058594 36.203125 36.871094 36.226562 36.726562 36.265625 C 36.671875 36.203125 36.578125 36.136719 36.523438 36.0625 L 36.242188 35.808594 L 36.023438 35.605469 C 35.929688 35.539062 35.851562 35.441406 35.769531 35.375 L 37.382812 34.378906 C 37.429688 34.414062 37.542969 34.472656 37.597656 34.511719 C 37.746094 34.558594 37.914062 34.609375 38.105469 34.648438 C 38.253906 34.675781 38.445312 34.695312 38.59375 34.628906 C 38.714844 34.589844 38.84375 34.476562 38.953125 34.367188 C 38.988281 34.320312 39.074219 34.21875 39.085938 34.136719 C 39.128906 34.070312 39.105469 33.890625 39.09375 33.796875 L 39.0625 33.59375 C 39.054688 33.546875 39.050781 33.457031 39.035156 33.410156 C 39.113281 33.386719 39.234375 33.339844 39.304688 33.335938 L 39.753906 33.203125 L 40.175781 33.023438 C 40.273438 32.996094 40.40625 32.953125 40.503906 32.9375 "/>
<path style=" stroke:none;fill-rule:nonzero;fill:rgb(10.112%,40.585327%,73.280334%);fill-opacity:1;" d="M 19.566406 31.691406 C 19.617188 31.847656 19.699219 32.09375 19.769531 32.273438 C 19.847656 32.453125 20.136719 32.984375 20.242188 33.152344 C 20.269531 33.265625 20.601562 33.84375 20.664062 33.960938 C 20.699219 33.992188 21.109375 34.664062 21.136719 34.707031 C 21.210938 34.875 21.285156 35.085938 21.332031 35.269531 C 21.402344 35.519531 21.480469 35.789062 21.523438 36.058594 C 21.523438 36.082031 21.59375 36.4375 21.59375 36.480469 C 21.636719 36.546875 21.644531 36.644531 21.679688 36.707031 C 21.515625 36.730469 21.265625 36.730469 21.085938 36.738281 C 20.988281 36.722656 20.480469 36.707031 20.394531 36.691406 C 20.199219 36.691406 19.582031 36.671875 19.382812 36.625 C 19.1875 36.601562 18.625 36.496094 18.414062 36.429688 C 18.269531 36.402344 17.914062 36.339844 17.769531 36.28125 C 17.683594 36.257812 17.53125 36.207031 17.445312 36.160156 C 17.433594 36.074219 17.390625 35.945312 17.382812 35.878906 C 17.359375 35.675781 17.347656 35.398438 17.390625 35.183594 C 17.441406 34.988281 17.601562 34.746094 17.75 34.578125 L 18.28125 33.925781 C 18.511719 33.644531 18.742188 33.339844 18.941406 33.015625 C 19.117188 32.707031 19.269531 32.367188 19.421875 32.039062 C 19.460938 31.949219 19.539062 31.796875 19.566406 31.691406 "/>
</g>
</svg>
