<?xml version="1.0" encoding="UTF-8"?>
<svg xmlns="http://www.w3.org/2000/svg" xmlns:xlink="http://www.w3.org/1999/xlink" width="299pt" height="86pt" viewBox="0 0 299 86" version="1.1">
<g id="surface1">
<path style=" stroke:none;fill-rule:nonzero;fill:rgb(13.729858%,12.159729%,12.548828%);fill-opacity:1;" d="M 213.300781 85.691406 L 298.339844 85.691406 L 298.339844 0.652344 L 213.300781 0.652344 Z M 213.300781 85.691406 "/>
<path style=" stroke:none;fill-rule:nonzero;fill:rgb(13.729858%,12.159729%,12.548828%);fill-opacity:1;" d="M 107 85.691406 L 192.039062 85.691406 L 192.039062 0.652344 L 107 0.652344 Z M 107 85.691406 "/>
<path style=" stroke:none;fill-rule:nonzero;fill:rgb(13.729858%,12.159729%,12.548828%);fill-opacity:1;" d="M 0.703125 85.691406 L 85.742188 85.691406 L 85.742188 0.652344 L 0.703125 0.652344 Z M 0.703125 85.691406 "/>
<path style=" stroke:none;fill-rule:nonzero;fill:rgb(93.527222%,17.272949%,18.882751%);fill-opacity:1;" d="M 15.96875 80.542969 L 42.140625 54.367188 L 32.132812 44.324219 L 5.886719 70.460938 L 15.96875 80.542969 "/>
<path style=" stroke:none;fill-rule:nonzero;fill:rgb(93.527222%,17.272949%,18.882751%);fill-opacity:1;" d="M 42.101562 32.046875 L 15.929688 5.875 L 5.886719 15.882812 L 32.019531 42.132812 L 42.101562 32.046875 "/>
<path style=" stroke:none;fill-rule:nonzero;fill:rgb(93.527222%,17.272949%,18.882751%);fill-opacity:1;" d="M 70.328125 5.695312 L 44.15625 31.871094 L 54.160156 41.914062 L 80.410156 15.777344 L 70.328125 5.695312 "/>
<path style=" stroke:none;fill-rule:nonzero;fill:rgb(93.527222%,17.272949%,18.882751%);fill-opacity:1;" d="M 44.15625 54.082031 L 70.328125 80.253906 L 80.371094 70.246094 L 54.238281 44 L 44.15625 54.082031 "/>
<path style=" stroke:none;fill-rule:nonzero;fill:rgb(0%,49.674988%,27.331543%);fill-opacity:1;" d="M 141.847656 41.445312 L 156.503906 41.445312 L 156.425781 6.308594 L 141.847656 6.269531 L 141.847656 41.445312 "/>
<path style=" stroke:none;fill-rule:nonzero;fill:rgb(0%,49.674988%,27.331543%);fill-opacity:1;" d="M 124.640625 34.566406 L 114.304688 44.933594 L 149.519531 80.144531 L 184.734375 44.933594 L 174.398438 34.566406 L 149.519531 59.371094 L 124.640625 34.566406 "/>
<path style=" stroke:none;fill-rule:nonzero;fill:rgb(98.937988%,82.48291%,7.633972%);fill-opacity:1;" d="M 257.363281 56.921875 L 267.730469 46.554688 L 230.394531 9.324219 L 220.066406 19.625 L 257.363281 56.921875 "/>
<path style=" stroke:none;fill-rule:nonzero;fill:rgb(98.937988%,82.48291%,7.633972%);fill-opacity:1;" d="M 240.300781 64.226562 L 240.300781 78.882812 L 290.125 78.882812 L 290.125 29.058594 L 275.46875 29.058594 L 275.46875 64.226562 L 240.300781 64.226562 "/>
</g>
</svg>
