<?xml version="1.0" encoding="UTF-8"?>
<svg xmlns="http://www.w3.org/2000/svg" xmlns:xlink="http://www.w3.org/1999/xlink" width="73pt" height="100pt" viewBox="0 0 73 100" version="1.1">
<g id="surface1">
<path style=" stroke:none;fill-rule:nonzero;fill:rgb(100%,100%,100%);fill-opacity:1;" d="M 1.085938 99.78125 L 71.953125 99.78125 L 71.953125 0.566406 L 1.085938 0.566406 Z M 1.085938 99.78125 "/>
<path style="fill:none;stroke-width:2.835;stroke-linecap:butt;stroke-linejoin:miter;stroke:rgb(13.729858%,12.159729%,12.548828%);stroke-opacity:1;stroke-miterlimit:4;" d="M 10.859375 2.1875 L 719.53125 2.1875 L 719.53125 994.335938 L 10.859375 994.335938 L 10.859375 2.1875 " transform="matrix(0.1,0,0,-0.1,0,100)"/>
<path style=" stroke:none;fill-rule:nonzero;fill:rgb(10.112%,40.585327%,73.280334%);fill-opacity:1;" d="M 2.503906 98.359375 L 70.53125 98.359375 L 70.53125 1.984375 L 2.503906 1.984375 Z M 2.503906 98.359375 "/>
<path style=" stroke:none;fill-rule:nonzero;fill:rgb(100%,100%,100%);fill-opacity:1;" d="M 11.71875 60.800781 L 61.320312 60.800781 L 61.320312 11.199219 L 11.71875 11.199219 Z M 11.71875 60.800781 "/>
<path style=" stroke:none;fill-rule:nonzero;fill:rgb(13.729858%,12.159729%,12.548828%);fill-opacity:1;" d="M 18.800781 49.464844 L 18.800781 28.992188 L 28.128906 19.699219 L 45.28125 19.699219 L 54.234375 28.839844 L 54.234375 49.464844 L 18.800781 49.464844 "/>
<path style=" stroke:none;fill-rule:nonzero;fill:rgb(100%,100%,100%);fill-opacity:1;" d="M 25.941406 48.257812 L 19.921875 48.257812 L 19.921875 44.710938 L 25.941406 44.710938 L 25.941406 48.257812 "/>
<path style=" stroke:none;fill-rule:nonzero;fill:rgb(100%,100%,100%);fill-opacity:1;" d="M 25.941406 43.421875 L 19.921875 43.421875 L 19.921875 39.871094 L 25.941406 39.871094 L 25.941406 43.421875 "/>
<path style=" stroke:none;fill-rule:nonzero;fill:rgb(100%,100%,100%);fill-opacity:1;" d="M 53.179688 48.257812 L 47.160156 48.257812 L 47.160156 44.710938 L 53.179688 44.710938 L 53.179688 48.257812 "/>
<path style=" stroke:none;fill-rule:nonzero;fill:rgb(100%,100%,100%);fill-opacity:1;" d="M 53.179688 43.421875 L 47.160156 43.421875 L 47.160156 39.871094 L 53.179688 39.871094 L 53.179688 43.421875 "/>
<path style=" stroke:none;fill-rule:nonzero;fill:rgb(100%,100%,100%);fill-opacity:1;" d="M 53.179688 38.742188 L 47.160156 38.742188 L 47.160156 35.117188 L 53.179688 35.117188 L 53.179688 38.742188 "/>
<path style=" stroke:none;fill-rule:nonzero;fill:rgb(100%,100%,100%);fill-opacity:1;" d="M 25.941406 38.742188 L 19.921875 38.742188 L 19.921875 35.117188 L 25.941406 35.117188 L 25.941406 38.742188 "/>
<path style=" stroke:none;fill-rule:nonzero;fill:rgb(100%,100%,100%);fill-opacity:1;" d="M 26.273438 33.902344 C 26.335938 33.691406 26.40625 33.476562 26.46875 33.269531 L 19.921875 30.425781 L 19.921875 33.902344 L 26.273438 33.902344 "/>
<path style=" stroke:none;fill-rule:nonzero;fill:rgb(100%,100%,100%);fill-opacity:1;" d="M 26.953125 32.117188 C 27.308594 31.390625 27.738281 30.710938 28.234375 30.082031 L 23.761719 25.59375 L 19.921875 29.214844 L 26.953125 32.117188 "/>
<path style=" stroke:none;fill-rule:nonzero;fill:rgb(100%,100%,100%);fill-opacity:1;" d="M 29.09375 29.140625 C 29.613281 28.625 30.183594 28.164062 30.800781 27.773438 L 28.054688 21.367188 L 24.589844 24.761719 L 29.09375 29.140625 "/>
<path style=" stroke:none;fill-rule:nonzero;fill:rgb(100%,100%,100%);fill-opacity:1;" d="M 31.835938 27.179688 C 32.5 26.855469 33.203125 26.589844 33.933594 26.410156 L 33.160156 20.839844 L 29.097656 20.839844 L 31.835938 27.179688 "/>
<path style=" stroke:none;fill-rule:nonzero;fill:rgb(100%,100%,100%);fill-opacity:1;" d="M 35.222656 26.167969 C 35.660156 26.109375 36.101562 26.082031 36.554688 26.082031 C 37.101562 26.082031 37.648438 26.121094 38.171875 26.207031 L 38.890625 20.839844 L 34.445312 20.839844 L 35.222656 26.167969 "/>
<path style=" stroke:none;fill-rule:nonzero;fill:rgb(100%,100%,100%);fill-opacity:1;" d="M 39.308594 26.441406 C 39.988281 26.632812 40.644531 26.871094 41.261719 27.179688 L 43.851562 20.839844 L 40.007812 20.839844 L 39.308594 26.441406 "/>
<path style=" stroke:none;fill-rule:nonzero;fill:rgb(100%,100%,100%);fill-opacity:1;" d="M 46.589844 33.148438 C 46.679688 33.394531 46.757812 33.648438 46.832031 33.902344 L 53.175781 33.902344 L 53.175781 30.199219 L 46.589844 33.148438 "/>
<path style=" stroke:none;fill-rule:nonzero;fill:rgb(100%,100%,100%);fill-opacity:1;" d="M 44.835938 30.039062 C 45.328125 30.652344 45.753906 31.316406 46.105469 32.019531 L 53.175781 29.140625 L 49.347656 25.519531 L 44.835938 30.039062 "/>
<path style=" stroke:none;fill-rule:nonzero;fill:rgb(100%,100%,100%);fill-opacity:1;" d="M 42.253906 27.738281 C 42.886719 28.140625 43.480469 28.605469 44.003906 29.128906 L 48.507812 24.605469 L 44.976562 20.835938 L 42.253906 27.738281 "/>
</g>
</svg>
