<svg width="438" height="600" xmlns="http://www.w3.org/2000/svg">
 <!-- Created with Method Draw - http://github.com/duopixel/Method-Draw/ -->

 <g>
  <title>background</title>
  <rect fill="#fff" id="canvas_background" height="602" width="440" y="-1" x="-1"/>
  <g display="none" overflow="visible" y="0" x="0" height="100%" width="100%" id="canvasGrid">
   <rect fill="url(#gridpattern)" stroke-width="0" y="0" x="0" height="100%" width="100%"/>
  </g>
 </g>
 <g>
  <title>Layer 1</title>
  <metadata transform="matrix(4,0,0,4,0,0) " id="svg_25">image/svg+xml</metadata>

  <g id="svg_27">
   <path fill="#ffffff" fill-rule="nonzero" id="svg_24" d="m77.26561,498.42967l283.46876,0l0,-396.85936l-283.46876,0l0,396.85936zm0,0"/>
   <path fill="none" stroke="#211e1e" stroke-width="0.2835" stroke-miterlimit="4" id="svg_23" d="m77.26561,498.42967l283.46876,0l0,-396.85936l-283.46876,0l0,396.85936"/>
   <path fill="#1966ba" fill-rule="nonzero" id="svg_22" d="m82.93749,492.74219l272.10936,0l0,-385.5l-272.10936,0l0,385.5zm0,0"/>
   <path fill="#ffffff" fill-rule="nonzero" id="svg_21" d="m119.79685,342.50779l198.40624,0l0,-198.40624l-198.40624,0l0,198.40624zm0,0"/>
   <path fill="#ffffff" fill-rule="nonzero" id="svg_20" d="m330.89061,464.32031l-4.45312,-63.64064l12.82812,3.18752c0.5,0.125 1,-0.04688 1.34376,-0.4844c0.35932,-0.48436 0.39064,-1.20312 0.04684,-1.75l-18.18748,-29.81248c-0.32812,-0.57812 -0.95312,-0.95312 -1.54688,-0.95312c-0.67188,0 -1.29688,0.375 -1.64064,0.98436l-17.875,30.04688c-0.29688,0.5 -0.26564,1.18748 0.06252,1.67188c0.32812,0.48436 0.8594,0.70312 1.39064,0.56248l12.95312,-3.23436l-3.60936,63.5l18.68748,-0.07812"/>
   <path fill="#ffffff" fill-rule="nonzero" id="svg_19" d="m126.79685,464.28903l-4.45312,-63.6406l12.82812,3.18748c0.5,0.14064 1,-0.04688 1.34376,-0.48436c0.35936,-0.48436 0.39064,-1.18752 0.04688,-1.75l-18.18752,-29.81252c-0.32812,-0.57812 -0.95312,-0.95312 -1.54688,-0.95312c-0.67188,0 -1.28124,0.375 -1.6406,0.9844l-17.8594,30.04688c-0.31248,0.5 -0.28124,1.18748 0.04688,1.67184c0.32812,0.4844 0.85936,0.70316 1.39064,0.56252l12.95312,-3.23436l-3.60936,63.5156l18.68748,-0.09376"/>
   <path fill="#211e1e" fill-rule="nonzero" id="svg_18" d="m151.74997,231.47655l15.21876,0c-0.76564,-1.45312 -1.90624,-2.54688 -2.67188,-4.01564c-2.65624,-4.0156 -4.18748,-8.78124 -4.95312,-13.53124c-0.75,-4.75 0,-9.5 1.53124,-13.89064c2.28124,-5.84372 6.09376,-10.96872 11.42188,-14.98436c6.07812,-4.39064 12.92188,-7.32812 20.15624,-9.15624c8.75,-2.18752 18.26564,-2.92188 27.40628,-2.92188c6.84372,0.375 13.68748,1.10936 20.54684,2.56248c6.09376,1.46876 11.79688,3.29688 17.125,6.21876c4.93752,2.92188 9.51564,6.59376 12.92188,10.96876c3.06252,4.01564 5.32812,8.78124 6.09376,13.89064c0.39064,5.10936 -0.375,10.23436 -1.90624,15c-0.76564,2.18748 -1.89064,4.0156 -3.03124,5.84372c-0.76564,1.09376 -1.90628,2.92188 -3.06252,4.01564l14.09376,0l0,6.95312l-23.21876,0c-1.53124,1.09376 -3.03124,1.81252 -4.56248,2.54688c-3.42188,1.82812 -8.75,3.29688 -12.56252,4.39064c-6.45312,1.45312 -13.31248,2.18748 -19.78124,2.56248c-6.09376,0.35936 -11.79688,0 -17.89064,-0.375c-6.07812,-0.73436 -11.78124,-1.82812 -17.5,-3.65624c-3.81248,-1.09376 -8.75,-2.54688 -11.79688,-5.46876l-23.57812,0l0,-6.95312"/>
   <path fill="#211e1e" fill-rule="nonzero" id="svg_17" d="m268.26561,273.11719c-0.39064,0 -0.875,-0.3594 -0.8594,-1.18752l0.01564,-5.71876l-3.04688,0l0,-3.65624l-39.57812,0c-1.14064,2.56252 -4.18748,4.03124 -6.85936,3.65624c-2.65628,-0.35936 -4.56252,-1.82812 -5.70312,-3.65624l-41.46876,0l0,3.65624l-3.03124,0l0,5.125c0,0.71876 0,1.45312 -0.39068,1.81252c-0.375,0.375 -0.75,0.375 -1.5156,0.375l-5.32812,0c-0.375,0 -1.14064,0 -1.53128,-0.375c-0.375,-0.35936 -0.375,-1.09376 -0.375,-1.81252l0,-9.5c-1.53124,0 -2.65624,-1.10936 -2.65624,-2.57812c0,-1.82812 1.125,-2.92188 2.65624,-2.92188l0,-10.59372c0,-0.375 0,-0.7344 0,-0.7344c0,-0.73436 0,-1.09376 0.375,-1.45312c0.39064,-0.375 1.53128,-0.375 2.29688,-0.375l3.79688,0c0.76564,0 1.90624,0 2.28124,0.375c0.39064,0.35936 0.39064,0.71876 0.39064,1.09376c0,0.35936 0,0.71876 0,1.09376l0,6.93748c0.35936,0 2.28128,0 2.28128,0c0.75,0 0.75,0 0.75,0.73436l0,2.92188l41.46872,0c1.14064,-2.18748 3.79688,-4.0156 6.46876,-4.0156c3.04688,0 5.32812,1.82812 6.46876,4.375l39.20312,0l0,-4.01564l3.04688,0l0,-6.20312c0,-0.375 0,-1.82812 1.89064,-1.82812l4.56248,0c1.90624,0 1.90624,1.45312 1.90624,2.18748l0,10.59376c1.53128,0 2.67188,1.09376 2.67188,2.56252c0,1.46872 -1.1406,2.56248 -2.67188,2.56248l0,8.40624c0,0.375 0,0.7344 0,1.09376c0,0.375 0,1.09376 -1.1406,1.09376l-6.375,-0.0312"/>
   <path fill="#211e1e" fill-rule="nonzero" id="svg_16" d="m280.73437,314.80467c-3.40628,0.71876 -6.84376,1.09376 -9.5,1.45312c-10.28128,0.7344 -19.01564,0.7344 -30.82816,-1.82812c-2.28124,-0.35936 -12.56248,-2.54688 -14.84372,-2.92188c-5.31252,-0.73436 -10.65628,-0.73436 -15.9844,0c-4.18748,0.7344 -8.35936,1.46876 -12.54688,2.20312c-3.03124,0.71876 -9.125,1.81252 -12.18748,2.18752c-4.93752,0.73436 -10.26564,0.73436 -15.59376,0.35936c-4.18748,0 -8.35936,-0.7344 -12.18748,-1.45312c-3.79688,-0.7344 -7.21876,-1.82812 -10.26564,-2.56252l0,-5.84376c2.67188,1.09376 6.85936,2.18752 9.51564,2.92188c3.81248,0.7344 7.23436,1.09376 11.03124,1.45312c4.20312,0.375 8.375,0.375 12.56248,0.375c3.79688,-0.375 8.375,-0.73436 12.17188,-1.82812c7.6094,-2.18748 15.21876,-3.65624 23.21876,-3.65624c4.18752,0 8.375,0 12.54688,0.73436c3.04688,0.3594 6.85936,1.09376 9.89064,1.82816c8,1.82812 17.5156,3.28124 25.5156,3.28124c4.93752,0 9.875,-0.35936 14.45312,-1.09376c4.56252,-1.09376 9.125,-1.82812 13.68752,-3.28124l0,5.46876c-3.03124,0.73436 -6.84376,1.46876 -10.65624,2.20312"/>
   <path fill="#211e1e" fill-rule="nonzero" id="svg_15" d="m280.53121,304.13279c-3.40624,0.71876 -6.82812,1.09376 -9.5,1.45312c-10.28124,0.7344 -19.0156,0.7344 -30.82812,-1.82812c-2.28124,-0.35936 -12.56248,-2.54688 -14.84372,-2.92188c-5.31252,-0.73436 -10.64064,-0.73436 -15.96876,0c-4.18752,0.7344 -8.375,1.46876 -12.56252,2.20312c-3.03124,0.71876 -9.125,1.81252 -12.18748,2.18752c-4.93752,0.73436 -10.26564,0.73436 -15.59376,0.35936c-4.18748,0 -8.35936,-0.73436 -12.17188,-1.45312c-3.81248,-0.73436 -7.23436,-1.82812 -10.28124,-2.56248l0,-5.84376c2.67188,1.09376 6.85936,2.18748 9.53124,2.92188c3.79688,0.73436 7.21876,1.09376 11.03124,1.45312c4.18752,0.375 8.3594,0.375 12.54688,0.375c3.81252,-0.375 8.375,-0.73436 12.17188,-1.82812c7.625,-2.18752 15.21876,-3.65624 23.21876,-3.65624c4.18748,0 8.375,0 12.54688,0.73436c3.06248,0.35936 6.85936,1.09376 9.8906,1.82812c8,1.82812 17.51564,3.28124 25.51564,3.28124c4.93752,0 9.89064,-0.35936 14.45312,-1.09372c4.56252,-1.09376 9.125,-1.82816 13.68752,-3.28128l0,5.46876c-3.03128,0.73436 -6.84376,1.46876 -10.65628,2.20312"/>
  </g>
  <text xml:space="preserve" text-anchor="start" font-family="sans-serif" font-size="24" id="svg_28" y="426" x="195.5" stroke-width="0" stroke="#000" fill="#000000"/>
  <text xml:space="preserve" text-anchor="start" font-family="sans-serif" font-size="70" id="svg_29" y="445" x="143.14844" stroke-width="0" stroke="#000" fill="#ffffff">param(text1)</text>
 </g>
</svg>