<?xml version="1.0" encoding="UTF-8"?>
<svg xmlns="http://www.w3.org/2000/svg" xmlns:xlink="http://www.w3.org/1999/xlink" width="72pt" height="100pt" viewBox="0 0 72 100" version="1.1">
<g id="surface1">
<path style=" stroke:none;fill-rule:nonzero;fill:rgb(100%,100%,100%);fill-opacity:1;" d="M 0.394531 99.625 L 71.257812 99.625 L 71.257812 0.414062 L 0.394531 0.414062 Z M 0.394531 99.625 "/>
<path style="fill:none;stroke-width:2.835;stroke-linecap:butt;stroke-linejoin:miter;stroke:rgb(13.729858%,12.159729%,12.548828%);stroke-opacity:1;stroke-miterlimit:4;" d="M 3.945312 3.75 L 712.617188 3.75 L 712.617188 995.859375 L 3.945312 995.859375 L 3.945312 3.75 " transform="matrix(0.1,0,0,-0.1,0,100)"/>
<path style=" stroke:none;fill-rule:nonzero;fill:rgb(10.112%,40.585327%,73.280334%);fill-opacity:1;" d="M 1.8125 98.207031 L 69.84375 98.207031 L 69.84375 1.832031 L 1.8125 1.832031 Z M 1.8125 98.207031 "/>
<path style=" stroke:none;fill-rule:nonzero;fill:rgb(100%,100%,100%);fill-opacity:1;" d="M 65.589844 57.105469 L 6.058594 57.105469 L 35.828125 6.078125 L 65.589844 57.105469 "/>
<path style=" stroke:none;fill-rule:nonzero;fill:rgb(13.729858%,12.159729%,12.548828%);fill-opacity:1;" d="M 58.503906 53.464844 L 54.546875 45.125 L 51.828125 45.117188 L 55.253906 53.488281 L 58.503906 53.464844 "/>
<path style=" stroke:none;fill-rule:nonzero;fill:rgb(13.729858%,12.159729%,12.548828%);fill-opacity:1;" d="M 51.589844 53.476562 L 48.820312 45.113281 L 46.273438 45.109375 L 48.574219 53.460938 L 51.589844 53.476562 "/>
<path style=" stroke:none;fill-rule:nonzero;fill:rgb(13.729858%,12.159729%,12.548828%);fill-opacity:1;" d="M 44.675781 53.472656 L 43.054688 45.117188 L 40.558594 45.101562 L 41.679688 53.472656 L 44.675781 53.472656 "/>
<path style=" stroke:none;fill-rule:nonzero;fill:rgb(13.729858%,12.159729%,12.548828%);fill-opacity:1;" d="M 38.140625 53.5 L 37.511719 52.0625 L 36.78125 52.011719 L 34.746094 45.113281 L 34.308594 45.121094 L 34.972656 53.496094 L 38.140625 53.5 "/>
<path style=" stroke:none;fill-rule:nonzero;fill:rgb(13.729858%,12.159729%,12.548828%);fill-opacity:1;" d="M 30.339844 53.519531 L 31.230469 45.539062 L 28.121094 50.511719 L 28.761719 50.859375 C 29.148438 51.066406 29.175781 51.863281 29.117188 52.097656 L 27.808594 52.085938 L 27.605469 53.515625 L 30.339844 53.519531 "/>
<path style=" stroke:none;fill-rule:nonzero;fill:rgb(13.729858%,12.159729%,12.548828%);fill-opacity:1;" d="M 23.117188 53.523438 L 25.316406 45.085938 L 22.75 45.074219 L 20.066406 53.503906 L 23.117188 53.523438 "/>
<path style=" stroke:none;fill-rule:nonzero;fill:rgb(13.729858%,12.159729%,12.548828%);fill-opacity:1;" d="M 16.457031 53.5625 L 19.8125 45.082031 L 17.109375 45.058594 L 13.164062 53.503906 L 16.457031 53.5625 "/>
<path style=" stroke:none;fill-rule:nonzero;fill:rgb(13.729858%,12.159729%,12.548828%);fill-opacity:1;" d="M 27.523438 35.667969 L 28.003906 35.699219 L 27.957031 35.816406 C 27.9375 35.875 27.898438 35.964844 27.855469 36.011719 L 27.707031 36.140625 C 27.609375 36.257812 27.601562 36.417969 27.613281 36.589844 C 27.628906 36.832031 27.652344 37.15625 27.828125 37.273438 C 28.167969 37.5 28.839844 37.230469 28.976562 36.832031 C 29.050781 36.621094 29.015625 36.3125 29.011719 36.136719 L 28.964844 35.710938 L 29.308594 35.726562 L 29.78125 31.402344 L 31.597656 29.675781 L 31.402344 34.382812 L 29.847656 37.664062 L 30.53125 38.085938 L 28.75 42.808594 L 24.949219 49.566406 L 25.230469 49.742188 L 24.886719 50.15625 C 24.753906 50.308594 24.746094 50.808594 24.746094 50.996094 L 26.425781 51.648438 L 28.277344 51.648438 L 28.285156 51.292969 C 28.273438 51.09375 28.082031 50.917969 27.890625 50.839844 L 27.472656 50.703125 C 27.109375 50.589844 27.113281 50.441406 27.042969 50.226562 L 27.390625 50.339844 L 31.121094 44.363281 L 33.707031 38.960938 L 37.148438 50.261719 L 37.34375 50.210938 L 37.675781 51.679688 L 40.914062 50.746094 C 40.953125 50.667969 40.949219 50.558594 40.910156 50.488281 C 40.847656 50.339844 40.695312 50.242188 40.546875 50.195312 L 39.40625 50.121094 C 39.09375 50.101562 38.953125 49.882812 38.882812 49.660156 L 39.773438 49.28125 L 37.164062 38.390625 L 37.578125 38.21875 L 36.921875 34.253906 L 37.960938 31.402344 L 38.824219 32.621094 L 42.136719 35.277344 L 42.320312 35.054688 L 42.382812 35.328125 L 42.453125 35.667969 C 42.476562 35.71875 42.53125 35.753906 42.574219 35.78125 C 42.628906 35.816406 42.699219 35.84375 42.761719 35.847656 L 43.042969 35.890625 C 43.117188 35.925781 43.195312 35.992188 43.253906 36.050781 L 43.425781 36.230469 C 43.59375 36.402344 43.914062 36.394531 44.007812 36.183594 C 44.203125 35.730469 44 35.125 43.753906 34.765625 C 43.730469 34.730469 43.675781 34.679688 43.636719 34.644531 L 43.09375 34.226562 L 43.269531 33.941406 L 40.230469 31.21875 L 38.957031 26.242188 L 38.847656 25.820312 C 38.832031 25.78125 38.816406 25.742188 38.796875 25.707031 C 38.761719 25.636719 38.710938 25.570312 38.652344 25.511719 C 38.621094 25.484375 38.589844 25.457031 38.558594 25.433594 C 38.429688 25.34375 38.261719 25.273438 38.113281 25.230469 L 36.605469 24.769531 C 36.59375 24.605469 36.621094 24.414062 36.792969 24.34375 C 36.882812 24.308594 37.207031 24.253906 37.296875 24.214844 C 37.414062 24.191406 37.554688 24.132812 37.628906 24.050781 C 37.71875 23.960938 37.730469 23.820312 37.726562 23.695312 C 37.726562 23.679688 37.714844 23.4375 37.714844 23.402344 C 37.71875 23.289062 37.777344 23.230469 37.800781 23.214844 L 37.890625 23.171875 C 37.96875 23.136719 37.988281 23.03125 37.96875 22.949219 C 37.953125 22.90625 37.914062 22.847656 37.890625 22.808594 L 37.746094 22.601562 L 37.65625 22.460938 C 37.683594 22.382812 37.691406 22.226562 37.691406 22.136719 L 37.667969 21.746094 L 38.527344 21.671875 L 38.449219 21.277344 L 37.609375 21.25 L 37.40625 20.488281 C 37.351562 20.355469 37.242188 20.074219 37.164062 19.957031 C 37.132812 19.914062 37.09375 19.871094 37.046875 19.839844 C 36.996094 19.808594 36.929688 19.792969 36.875 19.789062 C 36.796875 19.785156 36.675781 19.804688 36.605469 19.824219 L 35.808594 20.011719 C 35.652344 20.011719 35.394531 19.933594 35.234375 19.917969 C 35.019531 19.902344 34.71875 19.875 34.542969 20.015625 C 34.398438 20.136719 34.347656 20.355469 34.3125 20.542969 L 34.210938 20.996094 L 33.671875 21.050781 L 33.699219 21.578125 L 34.359375 21.625 C 34.289062 21.621094 34.285156 22.335938 34.464844 22.699219 L 34.722656 23.226562 C 34.789062 23.363281 34.828125 23.515625 34.792969 23.664062 C 34.761719 23.832031 34.675781 23.980469 34.558594 24.101562 C 34.550781 24.109375 34.476562 24.171875 34.476562 24.171875 L 33.753906 24.125 C 33.605469 24.140625 33.449219 24.21875 33.347656 24.3125 L 28.648438 29.160156 C 28.367188 29.449219 28.136719 29.859375 28.09375 30.289062 L 27.523438 35.667969 "/>
</g>
</svg>
