<?xml version="1.0" encoding="UTF-8"?>
<svg xmlns="http://www.w3.org/2000/svg" xmlns:xlink="http://www.w3.org/1999/xlink" width="73pt" height="100pt" viewBox="0 0 73 100" version="1.1">
<g id="surface1">
<path style=" stroke:none;fill-rule:nonzero;fill:rgb(100%,100%,100%);fill-opacity:1;" d="M 1.085938 99.8125 L 71.953125 99.8125 L 71.953125 0.605469 L 1.085938 0.605469 Z M 1.085938 99.8125 "/>
<path style="fill:none;stroke-width:2.835;stroke-linecap:butt;stroke-linejoin:miter;stroke:rgb(13.729858%,12.159729%,12.548828%);stroke-opacity:1;stroke-miterlimit:4;" d="M 10.859375 1.875 L 719.53125 1.875 L 719.53125 993.945312 L 10.859375 993.945312 L 10.859375 1.875 " transform="matrix(0.1,0,0,-0.1,0,100)"/>
<path style=" stroke:none;fill-rule:nonzero;fill:rgb(10.112%,40.585327%,73.280334%);fill-opacity:1;" d="M 2.503906 98.394531 L 70.535156 98.394531 L 70.535156 2.019531 L 2.503906 2.019531 Z M 2.503906 98.394531 "/>
<path style=" stroke:none;fill-rule:nonzero;fill:rgb(100%,100%,100%);fill-opacity:1;" d="M 33.605469 66.386719 C 33.605469 66.386719 33.433594 66.746094 33.183594 66.652344 C 32.945312 66.566406 31.253906 65.617188 31.253906 65.617188 C 31.253906 65.617188 31.078125 65.382812 31.199219 65.019531 C 31.320312 64.667969 31.644531 63.890625 31.828125 63.652344 C 31.828125 63.652344 31.136719 63.449219 31.320312 62.96875 C 31.492188 62.492188 32.890625 58.125 33.066406 57.207031 C 33.25 56.289062 33.640625 53.941406 33.066406 51.53125 C 32.492188 49.121094 31.949219 44.21875 32.101562 42.640625 C 32.101562 42.640625 32.011719 42.46875 31.773438 42.46875 C 31.527344 42.46875 31.136719 42.554688 31.078125 41.933594 C 31.015625 41.304688 30.6875 38.886719 32.25 35.574219 C 32.855469 34.292969 32.738281 31.265625 32.890625 30.429688 C 32.890625 30.429688 32.890625 30.078125 32.609375 30.398438 C 32.339844 30.730469 31.046875 31.59375 30.558594 33.699219 C 30.082031 35.808594 29.5625 38.125 29.5625 38.457031 C 29.5625 38.777344 29.386719 38.902344 29.140625 38.902344 C 28.902344 38.902344 28.597656 38.988281 28.78125 39.40625 C 28.964844 39.824219 29.292969 40.441406 28.988281 41.21875 C 28.695312 41.988281 28.054688 42.050781 27.480469 41.839844 C 26.90625 41.636719 26.277344 41.070312 26.722656 40.207031 C 27.179688 39.34375 27.695312 38.925781 27.425781 38.636719 C 27.15625 38.339844 26.789062 38.660156 27.003906 37.773438 C 27.210938 36.878906 27.816406 32.394531 28.238281 31.265625 C 28.660156 30.132812 29.085938 29.628906 29.777344 28.914062 C 30.472656 28.203125 32.523438 25.851562 33.097656 25.113281 C 33.671875 24.371094 35.089844 23.601562 35.96875 23.269531 C 36.839844 22.941406 37.171875 22.523438 37.140625 21.753906 C 37.109375 20.984375 36.664062 21.039062 36.359375 20.859375 C 36.054688 20.6875 35.363281 19.941406 35.148438 19.320312 C 35.148438 19.320312 35.089844 19.046875 34.875 19.195312 C 34.667969 19.34375 34.007812 19.023438 34.398438 18.722656 C 34.789062 18.425781 34.636719 18.488281 34.484375 17.890625 C 34.332031 17.292969 34.125 16.429688 34.875 15.84375 C 35.632812 15.246094 37.023438 14.945312 37.53125 14.5 C 38.050781 14.058594 38.984375 14.230469 39.253906 14.625 C 39.527344 15.011719 39.949219 15.640625 40.191406 15.941406 C 40.429688 16.238281 40.527344 16.445312 40.816406 16.320312 C 41.117188 16.320312 41.480469 16.046875 41.609375 16.417969 C 41.6875 16.671875 41.304688 16.785156 41.097656 16.910156 C 40.886719 17.015625 40.472656 16.96875 40.679688 17.382812 C 40.925781 17.8125 40.632812 17.824219 40.996094 18.644531 C 41.15625 18.976562 41.363281 19.355469 41.058594 19.515625 C 40.753906 19.5625 41.035156 20.910156 40.523438 21.277344 C 40.101562 21.488281 39.675781 21.371094 39.710938 21.839844 C 39.742188 22.320312 39.589844 22.492188 40.132812 22.789062 C 40.675781 23.089844 42.300781 24.070312 42.84375 24.699219 C 43.394531 25.320312 43.839844 26.632812 43.960938 27.753906 C 44.089844 28.882812 44.382812 31.414062 44.632812 32.160156 C 44.871094 32.898438 44.78125 33.492188 46.324219 34.796875 C 47.859375 36.109375 48.945312 37.65625 49.152344 37.890625 C 49.367188 38.125 49.425781 38.339844 49.28125 38.636719 C 49.128906 38.925781 49.28125 39.042969 49.425781 39.171875 C 49.578125 39.289062 50.722656 40.089844 50.820312 40.570312 C 50.90625 41.039062 51.269531 42.226562 50.722656 42.40625 C 50.183594 42.585938 49.703125 42.972656 48.792969 42.019531 C 47.886719 41.070312 48.554688 40.175781 47.949219 40.269531 C 47.34375 40.355469 47.167969 40.417969 46.617188 39.761719 C 46.074219 39.109375 44.089844 37.53125 43.546875 36.824219 C 42.996094 36.109375 42.152344 35.039062 41.457031 33.164062 C 41.457031 33.164062 40.675781 36.707031 40.859375 37.355469 C 41.03125 38.007812 41.25 40.507812 41.335938 40.953125 C 41.433594 41.394531 41.160156 41.21875 41.011719 41.273438 C 40.859375 41.339844 40.554688 41.488281 41.011719 41.933594 C 41.457031 42.375 44.566406 45.203125 45.324219 46.003906 C 46.074219 46.804688 47.070312 47.730469 46.648438 49.152344 C 46.226562 50.582031 45.054688 55.808594 44.957031 56.640625 C 44.871094 57.472656 44.359375 60.441406 43.691406 60.386719 C 43.027344 60.324219 42.398438 60.535156 43.027344 60.921875 C 43.664062 61.304688 44.804688 61.871094 45.53125 62.050781 C 46.257812 62.222656 47.230469 62.40625 47.199219 63.390625 L 48.992188 63.390625 L 48.992188 58.71875 L 62.03125 58.71875 L 62.03125 63.394531 L 51.804688 63.394531 L 51.804688 68.066406 L 43.945312 68.074219 L 43.945312 72.746094 L 36.027344 72.746094 L 36.027344 77.421875 L 28.011719 77.421875 L 28.011719 82.097656 L 9.585938 82.097656 L 9.585938 77.421875 L 23.839844 77.425781 L 23.839844 72.746094 L 31.726562 72.746094 L 31.726562 68.148438 L 36.148438 68.15625 C 36.226562 68.230469 34.125 66.917969 33.605469 66.386719 "/>
<path style=" stroke:none;fill-rule:nonzero;fill:rgb(10.112%,40.585327%,73.280334%);fill-opacity:1;" d="M 41.570312 62.753906 L 41.503906 63.1875 L 39.851562 62.816406 L 39.898438 62.542969 C 39.929688 62.351562 39.800781 62.28125 39.8125 62.070312 C 39.757812 61.679688 40.285156 60.824219 39.949219 60.792969 C 39.613281 60.761719 39.746094 60.570312 39.714844 59.917969 C 39.683594 59.265625 40.539062 56.078125 41.808594 51.554688 C 41.808594 51.554688 41.960938 51.140625 41.351562 50.605469 C 40.746094 50.070312 38.730469 48.320312 38.425781 48.171875 C 38.121094 48.023438 38.003906 48.289062 38.035156 48.523438 C 38.066406 48.769531 38.515625 50.636719 38.457031 52.867188 C 38.394531 55.097656 37.546875 59.761719 37.222656 60.710938 C 36.886719 61.660156 36.425781 64.207031 36.339844 64.441406 C 36.253906 64.675781 36.109375 64.914062 35.933594 64.820312 C 35.75 64.734375 35.382812 64.941406 35.773438 65.328125 C 36.164062 65.71875 36.535156 65.9375 37.109375 66.085938 C 37.683594 66.234375 38.871094 66.578125 38.808594 67.910156 L 38.773438 68.085938 L 39.605469 68.085938 L 39.597656 63.46875 L 42.917969 63.472656 C 42.203125 63.210938 42.070312 63.199219 41.773438 62.984375 L 41.570312 62.753906 "/>
</g>
</svg>
