<?xml version="1.0" encoding="UTF-8"?>
<svg xmlns="http://www.w3.org/2000/svg" xmlns:xlink="http://www.w3.org/1999/xlink" width="73pt" height="100pt" viewBox="0 0 73 100" version="1.1">
<g id="surface1">
<path style=" stroke:none;fill-rule:nonzero;fill:rgb(100%,100%,100%);fill-opacity:1;" d="M 1.085938 99.78125 L 71.953125 99.78125 L 71.953125 0.566406 L 1.085938 0.566406 Z M 1.085938 99.78125 "/>
<path style="fill:none;stroke-width:2.835;stroke-linecap:butt;stroke-linejoin:miter;stroke:rgb(13.729858%,12.159729%,12.548828%);stroke-opacity:1;stroke-miterlimit:4;" d="M 10.859375 2.1875 L 719.53125 2.1875 L 719.53125 994.335938 L 10.859375 994.335938 L 10.859375 2.1875 " transform="matrix(0.1,0,0,-0.1,0,100)"/>
<path style=" stroke:none;fill-rule:nonzero;fill:rgb(10.112%,40.585327%,73.280334%);fill-opacity:1;" d="M 36.585938 98.355469 L 70.472656 98.363281 L 70.53125 2.058594 L 36.585938 2.023438 L 36.585938 16.222656 L 62.023438 30.882812 L 62.023438 69.46875 L 36.585938 84.195312 L 36.585938 98.355469 "/>
<path style=" stroke:none;fill-rule:nonzero;fill:rgb(10.112%,40.585327%,73.280334%);fill-opacity:1;" d="M 11.042969 1.992188 L 2.566406 1.984375 L 2.503906 98.351562 L 11.042969 98.355469 L 11.042969 1.992188 "/>
<path style=" stroke:none;fill-rule:nonzero;fill:rgb(13.729858%,12.159729%,12.548828%);fill-opacity:1;" d="M 36.542969 78.882812 L 38.671875 78.882812 L 38.671875 72.503906 L 36.542969 72.503906 Z M 36.542969 78.882812 "/>
<path style=" stroke:none;fill-rule:nonzero;fill:rgb(13.729858%,12.159729%,12.548828%);fill-opacity:1;" d="M 36.542969 66.121094 L 38.671875 66.121094 L 38.671875 59.742188 L 36.542969 59.742188 Z M 36.542969 66.121094 "/>
<path style=" stroke:none;fill-rule:nonzero;fill:rgb(13.729858%,12.159729%,12.548828%);fill-opacity:1;" d="M 36.542969 53.363281 L 38.671875 53.363281 L 38.671875 46.984375 L 36.542969 46.984375 Z M 36.542969 53.363281 "/>
<path style=" stroke:none;fill-rule:nonzero;fill:rgb(13.729858%,12.159729%,12.548828%);fill-opacity:1;" d="M 36.542969 40.605469 L 38.671875 40.605469 L 38.671875 34.226562 L 36.542969 34.226562 Z M 36.542969 40.605469 "/>
<path style=" stroke:none;fill-rule:nonzero;fill:rgb(13.729858%,12.159729%,12.548828%);fill-opacity:1;" d="M 36.542969 27.847656 L 38.671875 27.847656 L 38.671875 21.46875 L 36.542969 21.46875 Z M 36.542969 27.847656 "/>
<path style=" stroke:none;fill-rule:nonzero;fill:rgb(13.729858%,12.159729%,12.548828%);fill-opacity:1;" d="M 47.710938 42.8125 C 47.964844 42.953125 48.277344 43.054688 48.644531 43.132812 C 49.015625 43.207031 49.425781 43.234375 49.882812 43.234375 C 50.832031 43.234375 51.597656 42.980469 52.152344 42.46875 C 52.707031 41.960938 52.976562 41.246094 52.976562 40.339844 C 52.976562 39.910156 52.921875 39.542969 52.792969 39.246094 C 52.667969 38.945312 52.480469 38.675781 52.265625 38.449219 C 52.054688 38.21875 51.796875 38.007812 51.5 37.824219 C 51.203125 37.636719 50.890625 37.453125 50.558594 37.269531 C 50.320312 37.125 50.109375 37 49.941406 36.867188 C 49.753906 36.742188 49.613281 36.628906 49.511719 36.503906 C 49.402344 36.386719 49.316406 36.257812 49.273438 36.117188 C 49.226562 35.988281 49.199219 35.832031 49.199219 35.664062 C 49.199219 35.277344 49.328125 34.949219 49.585938 34.710938 C 49.839844 34.46875 50.199219 34.339844 50.660156 34.339844 C 51.019531 34.339844 51.355469 34.382812 51.65625 34.46875 C 51.953125 34.570312 52.210938 34.664062 52.4375 34.78125 L 52.480469 33.417969 C 52.296875 33.34375 52.027344 33.257812 51.699219 33.191406 C 51.355469 33.117188 50.972656 33.074219 50.546875 33.074219 C 50.152344 33.074219 49.78125 33.132812 49.425781 33.230469 C 49.074219 33.34375 48.761719 33.515625 48.488281 33.730469 C 48.21875 33.957031 48.007812 34.226562 47.847656 34.554688 C 47.695312 34.878906 47.609375 35.25 47.609375 35.675781 C 47.609375 36.117188 47.664062 36.472656 47.792969 36.773438 C 47.921875 37.070312 48.089844 37.339844 48.304688 37.554688 C 48.519531 37.78125 48.761719 37.976562 49.058594 38.152344 C 49.34375 38.335938 49.65625 38.519531 49.980469 38.71875 C 50.25 38.875 50.476562 39.03125 50.660156 39.160156 C 50.84375 39.300781 50.988281 39.441406 51.101562 39.570312 C 51.203125 39.699219 51.289062 39.839844 51.328125 39.984375 C 51.371094 40.136719 51.386719 40.296875 51.386719 40.480469 C 51.386719 40.933594 51.230469 41.289062 50.929688 41.558594 C 50.632812 41.832031 50.234375 41.972656 49.753906 41.972656 C 49.359375 41.972656 48.988281 41.902344 48.632812 41.757812 C 48.277344 41.632812 47.992188 41.488281 47.765625 41.347656 L 47.710938 42.8125 "/>
<path style=" stroke:none;fill-rule:nonzero;fill:rgb(13.729858%,12.159729%,12.548828%);fill-opacity:1;" d="M 47.582031 54.285156 C 47.921875 54.710938 48.316406 55.023438 48.789062 55.234375 C 49.242188 55.464844 49.738281 55.5625 50.265625 55.5625 C 50.816406 55.5625 51.328125 55.464844 51.796875 55.25 C 52.265625 55.039062 52.667969 54.726562 53.003906 54.300781 C 53.347656 53.886719 53.617188 53.347656 53.816406 52.707031 C 54.003906 52.070312 54.097656 51.300781 54.097656 50.433594 C 54.097656 49.59375 54.003906 48.867188 53.816406 48.246094 C 53.617188 47.617188 53.347656 47.09375 53.003906 46.664062 C 52.667969 46.253906 52.265625 45.925781 51.8125 45.714844 C 51.34375 45.503906 50.84375 45.402344 50.320312 45.402344 C 49.769531 45.402344 49.273438 45.503906 48.804688 45.714844 C 48.332031 45.925781 47.921875 46.238281 47.582031 46.652344 C 47.238281 47.078125 46.96875 47.617188 46.785156 48.257812 C 46.585938 48.898438 46.484375 49.667969 46.484375 50.53125 C 46.484375 51.371094 46.585938 52.097656 46.785156 52.71875 C 46.96875 53.347656 47.238281 53.871094 47.582031 54.285156 "/>
<path style=" stroke:none;fill-rule:nonzero;fill:rgb(13.729858%,12.159729%,12.548828%);fill-opacity:1;" d="M 47.710938 67.46875 C 47.964844 67.609375 48.277344 67.710938 48.644531 67.792969 C 49.015625 67.863281 49.425781 67.894531 49.882812 67.894531 C 50.832031 67.894531 51.597656 67.640625 52.152344 67.128906 C 52.707031 66.617188 52.976562 65.902344 52.976562 64.996094 C 52.976562 64.566406 52.921875 64.199219 52.792969 63.902344 C 52.667969 63.601562 52.480469 63.332031 52.265625 63.105469 C 52.054688 62.875 51.796875 62.664062 51.5 62.480469 C 51.203125 62.292969 50.890625 62.109375 50.558594 61.925781 C 50.320312 61.78125 50.109375 61.65625 49.941406 61.527344 C 49.753906 61.398438 49.613281 61.285156 49.511719 61.15625 C 49.402344 61.042969 49.316406 60.914062 49.273438 60.773438 C 49.226562 60.644531 49.199219 60.488281 49.199219 60.320312 C 49.199219 59.933594 49.328125 59.605469 49.585938 59.363281 C 49.839844 59.125 50.199219 58.996094 50.660156 58.996094 C 51.019531 58.996094 51.355469 59.039062 51.65625 59.125 C 51.953125 59.222656 52.210938 59.324219 52.4375 59.4375 L 52.480469 58.074219 C 52.296875 58 52.027344 57.914062 51.699219 57.847656 C 51.355469 57.773438 50.972656 57.730469 50.546875 57.730469 C 50.152344 57.730469 49.78125 57.789062 49.425781 57.886719 C 49.074219 58 48.761719 58.167969 48.488281 58.386719 C 48.21875 58.613281 48.007812 58.882812 47.847656 59.210938 C 47.695312 59.535156 47.609375 59.90625 47.609375 60.335938 C 47.609375 60.773438 47.664062 61.128906 47.792969 61.429688 C 47.921875 61.726562 48.089844 61.996094 48.304688 62.210938 C 48.519531 62.4375 48.761719 62.632812 49.058594 62.804688 C 49.34375 62.988281 49.65625 63.171875 49.980469 63.375 C 50.25 63.53125 50.476562 63.683594 50.660156 63.816406 C 50.84375 63.957031 50.988281 64.097656 51.101562 64.226562 C 51.203125 64.355469 51.289062 64.496094 51.328125 64.640625 C 51.371094 64.792969 51.386719 64.953125 51.386719 65.136719 C 51.386719 65.589844 51.230469 65.945312 50.929688 66.214844 C 50.632812 66.484375 50.234375 66.628906 49.753906 66.628906 C 49.359375 66.628906 48.988281 66.558594 48.632812 66.414062 C 48.277344 66.289062 47.992188 66.144531 47.765625 66.003906 L 47.710938 67.46875 "/>
<path style=" stroke:none;fill-rule:nonzero;fill:rgb(100%,100%,100%);fill-opacity:1;" d="M 48.644531 53.332031 C 48.265625 52.652344 48.078125 51.710938 48.078125 50.53125 C 48.078125 49.808594 48.132812 49.195312 48.265625 48.699219 C 48.375 48.203125 48.535156 47.789062 48.746094 47.476562 C 48.945312 47.179688 49.183594 46.949219 49.457031 46.808594 C 49.726562 46.679688 50.023438 46.609375 50.320312 46.609375 C 51.03125 46.609375 51.574219 46.949219 51.953125 47.632812 C 52.324219 48.3125 52.507812 49.253906 52.507812 50.433594 C 52.507812 51.15625 52.449219 51.769531 52.339844 52.265625 C 52.210938 52.761719 52.054688 53.175781 51.855469 53.476562 C 51.640625 53.789062 51.398438 54.015625 51.128906 54.140625 C 50.859375 54.285156 50.558594 54.355469 50.265625 54.355469 C 49.554688 54.355469 49.015625 54.015625 48.644531 53.332031 "/>
</g>
</svg>
