<svg width="438" height="600" xmlns="http://www.w3.org/2000/svg">
 <!-- Created with Method Draw - http://github.com/duopixel/Method-Draw/ -->

 <g>
  <title>background</title>
  <rect fill="#FFFFFF" opacity="0" id="canvas_background" height="602" width="440" y="-1" x="-1"/>
  <g display="none" overflow="visible" y="0" x="0" height="100%" width="100%" id="canvasGrid">
   <rect fill="url(#gridpattern)" stroke-width="0" y="0" x="0" height="100%" width="100%"/>
  </g>
 </g>
 <g>
  <title>Layer 1</title>
  <metadata transform="matrix(4,0,0,4,0,0) " id="svg_17">image/svg+xml</metadata>

  <g id="svg_19">
   <path fill="#ffffff" fill-rule="nonzero" id="svg_16" d="m77.26561,498.42967l283.46876,0l0,-396.85936l-283.46876,0l0,396.85936zm0,0"/>
   <path fill="none" stroke="#211e1e" stroke-width="0.2835" stroke-miterlimit="4" id="svg_15" d="m77.26561,498.42967l283.46876,0l0,-396.85936l-283.46876,0l0,396.85936"/>
   <path fill="#1966ba" fill-rule="nonzero" id="svg_14" d="m355.10937,492.74219l-272.17188,0l0,-385.51564l272.17188,0l0,385.51564"/>
   <path fill="#ffffff" fill-rule="nonzero" id="svg_13" d="m170.81249,314.17967l0,-175.75l87.53124,0c8.53124,0 14.59376,3.17188 19.06248,7.92188c4.34376,4.46876 6.78128,9.79688 6.78128,16.84376l0,62.67188c-0.14064,6.34372 -3.01564,12.25 -7.5,16.70312c-4.46876,4.32812 -11.28128,7.06248 -17.625,7.06248l-56.18752,0l0,64.54688l-32.06248,0"/>
   <path fill="#ffffff" fill-rule="nonzero" id="svg_12" d="m312.07809,467.24219l0,-38.875c0,-0.71876 -0.14064,-2.89064 -0.28124,-3.45316c-0.85936,-8.35936 -3.31248,-16.42184 -7.20312,-23.7656c-3.31252,-6.32812 -7.48436,-12.2344 -12.67188,-17.28124c-4.89064,-4.89064 -10.65624,-9.07816 -16.84376,-12.39064c-7.92188,-4.31252 -16.28124,-7.32812 -26.78124,-7.32812l-23.48436,0l8.21872,-24.21876c0,-3.45312 -0.14064,-3.89064 -1.57812,-5.03124c-1.59372,-1.15624 -4.46872,-1.57812 -5.34372,0.14064l-53.14064,38.03124c-2.01564,1.01564 -2.15624,2.59376 -2.15624,3.89064c0.14064,1.29688 1.29688,2.73436 2.43748,3.8906l52.57812,37.29688c1.57812,1.14064 3.75,1.57812 5.32812,0.28124c1.29688,-1 1.59376,-3.0156 1.59376,-4.60936l-7.93748,-24.34376l20.75,0c5.60936,0 11.07812,1.875 16.125,4.18752c4.45312,2.0156 8.6406,4.8906 12.23436,8.34372c3.89064,3.75 6.92188,8.07812 9.07812,12.96876c1.7344,4.17188 2.875,8.78124 3.45312,13.25c0,0.42188 0.14064,2.29688 0.14064,2.73436l0,36.28128l25.4844,0"/>
   <path fill="#1966ba" fill-rule="nonzero" id="svg_11" d="m202.85937,223.27343l0,-58.18752l39.1406,0c2.6094,0 6.21876,0.71876 7.95312,2.59376c1.875,1.73436 2.89064,4.17188 2.75,6.76564l-0.29688,39.04688c0,2.59372 -1.15624,5.18748 -3.03124,7.04684c-1.875,1.875 -4.625,2.7344 -7.375,2.7344l-39.14064,0"/>
  </g>
  <text xml:space="preserve" text-anchor="start" font-family="sans-serif" font-size="50" id="svg_20" y="472" x="102.5" stroke-width="0" stroke="#000" fill="#ffffff">param(text1)</text>
 </g>
</svg>