<svg width="763" height="600" xmlns="http://www.w3.org/2000/svg">
 <!-- Created with Method Draw - http://github.com/duopixel/Method-Draw/ -->

 <g>
  <title>background</title>
  <rect fill="#FFFFFF" opacity="0" id="canvas_background" height="602" width="765" y="-1" x="-1"/>
  <g display="none" overflow="visible" y="0" x="0" height="100%" width="100%" id="canvasGrid">
   <rect fill="url(#gridpattern)" stroke-width="0" y="0" x="0" height="100%" width="100%"/>
  </g>
 </g>
 <g>
  <title>Layer 1</title>
  <metadata transform="matrix(3.0539993705499455,0,0,3.0539993705499455,0,0) " id="svg_23">image/svg+xml</metadata>

  <g stroke="null" id="svg_25">
   <path fill="#ffffff" fill-rule="nonzero" id="svg_22" d="m101.22977,523.42207l559.42933,0l0,-444.62189l-559.42933,0l0,444.62189zm0,0"/>
   <path stroke="#211e1e" fill="none" stroke-width="0.2835" stroke-miterlimit="4" id="svg_21" d="m101.22977,523.42207l559.40795,0l0,-444.62189l-559.40795,0l0,444.62189"/>
   <path fill="#1966ba" fill-rule="nonzero" id="svg_20" d="m107.46136,517.03247l546.94476,0l0,-431.86461l-546.94476,0l0,431.86461zm0,0"/>
   <path fill="#ffffff" fill-rule="nonzero" id="svg_19" d="m327.6226,344.64554c-5.33215,9.21235 -12.80576,17.13364 -21.82121,22.60415l59.61764,61.00725l0,63.43614l31.05084,0l0,-63.43614l121.11975,-71.5544l13.49108,-7.9213l6.5956,22.75736c0.66383,2.23193 3.876,2.40699 4.71119,0l17.88096,-56.04001c0.34263,-1.55361 -0.51395,-2.93221 -1.8416,-3.28233l-56.51259,-12.23206c-2.37698,-0.52517 -4.06869,2.40704 -2.37698,4.1357l16.01793,17.2431l-13.49102,7.9213l-120.1133,70.85417l-54.32831,-55.49294"/>
   <path fill="#ffffff" fill-rule="nonzero" id="svg_18" d="m242.3077,257.55485l-19.78686,-20.15341l-10.96416,-11.37868l19.74405,-12.23206c2.01297,-1.37855 1.34914,-4.66087 -1.17777,-4.66087l-57.54048,-3.10727c-1.5204,-0.17506 -2.69817,1.02849 -2.69817,2.5821l3.0408,58.97217c0.17132,2.40704 3.36211,3.28233 4.56131,1.02849l12.14193,-20.00026l30.87953,31.55399c5.3322,-9.25615 12.763,-17.1118 21.79983,-22.6042"/>
   <path fill="#ee2b2e" fill-rule="nonzero" id="svg_17" d="m274.04385,248.69262c34.41289,0 62.31582,28.51232 62.31582,63.7206c0,35.18637 -27.90292,63.7206 -62.31582,63.7206c-34.41295,0 -62.31587,-28.53422 -62.31587,-63.7206c0,-35.20828 27.90292,-63.7206 62.31587,-63.7206"/>
   <path fill="#ffffff" fill-rule="nonzero" id="svg_16" d="m274.04385,269.91822c5.6534,0 11.04979,1.11599 16.16787,3.34798c4.96814,2.14443 9.37946,5.18604 13.21264,9.10294c3.83318,3.9169 6.80979,8.42456 8.90838,13.5012c2.18428,5.2517 3.25499,10.76601 3.25499,16.54288c0,5.77687 -1.07071,11.26928 -3.25499,16.52097c-2.0986,5.07664 -5.0752,9.58436 -8.90838,13.52311c-3.83318,3.9169 -8.2445,6.95851 -13.21264,9.10294c-5.11807,2.23199 -10.51447,3.32608 -16.16787,3.32608c-5.63202,0 -11.02841,-1.09409 -16.16787,-3.32608c-4.96814,-2.14443 -9.35808,-5.18604 -13.2127,-9.10294c-3.83318,-3.93875 -6.80979,-8.44647 -8.90838,-13.52311c-2.16285,-5.2517 -3.25499,-10.74411 -3.25499,-16.52097c0,-5.77687 1.09214,-11.29118 3.25499,-16.54288c2.0986,-5.07664 5.0752,-9.58431 8.90838,-13.5012c3.85462,-3.9169 8.24456,-6.95851 13.2127,-9.10294c5.13945,-2.23199 10.53585,-3.34798 16.16787,-3.34798"/>
   <path fill="#211e1e" fill-rule="nonzero" id="svg_15" d="m235.11246,297.53341c-1.73453,4.74843 -2.61254,9.69377 -2.61254,14.87981c0,5.16414 0.87801,10.10953 2.61254,14.85791l12.97713,-14.92356l-12.97713,-14.81416"/>
   <path fill="#211e1e" fill-rule="nonzero" id="svg_14" d="m312.99663,327.27113c1.73453,-4.74838 2.61254,-9.69377 2.61254,-14.85791c0,-5.18604 -0.87801,-10.13138 -2.61254,-14.87981l-12.97713,14.81416l12.97713,14.92356"/>
  </g>
  <text xml:space="preserve" text-anchor="start" font-family="sans-serif" font-size="40" id="svg_26" y="154.44417" x="135.38843" stroke-width="0" stroke="#000" fill="#ffffff">param(text1)</text>
  <text xml:space="preserve" text-anchor="start" font-family="sans-serif" font-size="40" id="svg_27" y="263.33326" x="470.94462" stroke-width="0" stroke="#000" fill="#ffffff">param(text2)</text>
  <text xml:space="preserve" text-anchor="start" font-family="sans-serif" font-size="18" id="svg_28" y="317.77781" x="252.05533" stroke-width="0" stroke="#000" fill="#000000">param(text3)</text>
 </g>
</svg>