<?xml version="1.0" encoding="UTF-8" standalone="no"?>
<svg
   xmlns:dc="http://purl.org/dc/elements/1.1/"
   xmlns:cc="http://creativecommons.org/ns#"
   xmlns:rdf="http://www.w3.org/1999/02/22-rdf-syntax-ns#"
   xmlns:svg="http://www.w3.org/2000/svg"
   xmlns="http://www.w3.org/2000/svg"
   xmlns:sodipodi="http://sodipodi.sourceforge.net/DTD/sodipodi-0.dtd"
   xmlns:inkscape="http://www.inkscape.org/namespaces/inkscape"
   width="103pt"
   height="81pt"
   viewBox="0 0 103 81"
   version="1.1"
   id="svg6441"
   sodipodi:docname="440.svg"
   inkscape:version="1.0.2 (e86c870879, 2021-01-15, custom)">
  <metadata
     id="metadata6447">
    <rdf:RDF>
      <cc:Work
         rdf:about="">
        <dc:format>image/svg+xml</dc:format>
        <dc:type
           rdf:resource="http://purl.org/dc/dcmitype/StillImage" />
        <dc:title></dc:title>
      </cc:Work>
    </rdf:RDF>
  </metadata>
  <defs
     id="defs6445" />
  <sodipodi:namedview
     pagecolor="#ffffff"
     bordercolor="#666666"
     borderopacity="1"
     objecttolerance="10"
     gridtolerance="10"
     guidetolerance="10"
     inkscape:pageopacity="0"
     inkscape:pageshadow="2"
     inkscape:window-width="1920"
     inkscape:window-height="1017"
     id="namedview6443"
     showgrid="false"
     inkscape:zoom="7.8703704"
     inkscape:cx="68.666667"
     inkscape:cy="54"
     inkscape:window-x="3832"
     inkscape:window-y="-8"
     inkscape:window-maximized="1"
     inkscape:current-layer="svg6441" />
  <path
     style="fill:#ffffff;fill-opacity:1;fill-rule:nonzero;stroke:none"
     d="M 0.480469,79.867188 H 102.52734 V 0.496094 H 0.480469 Z m 0,0"
     id="path6382" />
  <path
     style="fill:none;stroke:#211e1e;stroke-width:0.2835;stroke-linecap:butt;stroke-linejoin:miter;stroke-miterlimit:4;stroke-opacity:1"
     d="M 0.4804688,79.867187 H 102.52344 V 0.496094 H 0.4804688 v 79.371093"
     id="path6384" />
  <path
     style="fill:#1966ba;fill-opacity:1;fill-rule:nonzero;stroke:none"
     d="M 1.617188,78.726562 H 101.38672 V 1.632812 H 1.617188 Z m 0,0"
     id="path6386" />
  <path
     style="fill:#ffffff;fill-opacity:1;fill-rule:nonzero;stroke:none"
     d="m 41.777344,47.953125 c -0.972656,1.644531 -2.335938,3.058594 -3.980469,4.035156 l 10.875,10.890625 v 11.324219 h 5.664063 V 62.878906 l 22.09375,-12.773437 2.460937,-1.414063 1.203125,4.0625 c 0.121094,0.398438 0.707031,0.429688 0.859375,0 L 84.214844,42.75 c 0.0625,-0.277344 -0.09375,-0.523438 -0.335938,-0.585938 L 73.570312,39.980469 c -0.433593,-0.09375 -0.742187,0.429687 -0.433593,0.738281 l 2.921875,3.078125 -2.460938,1.414063 -21.910156,12.648437 -9.910156,-9.90625"
     id="path6388" />
  <path
     style="fill:#ffffff;fill-opacity:1;fill-rule:nonzero;stroke:none"
     d="m 26.214844,32.40625 -3.609375,-3.597656 -2,-2.03125 3.601562,-2.183594 c 0.367188,-0.246094 0.246094,-0.832031 -0.214843,-0.832031 L 13.496094,23.207031 c -0.277344,-0.03125 -0.492188,0.183594 -0.492188,0.460938 l 0.554688,10.527343 c 0.03125,0.429688 0.613281,0.585938 0.832031,0.183594 l 2.214844,-3.570312 5.632812,5.632812 c 0.972657,-1.652344 2.328125,-3.054687 3.976563,-4.035156"
     id="path6414" />
  <path
     style="fill:#ee2b2e;fill-opacity:1;fill-rule:nonzero;stroke:none"
     d="m 32.003906,30.824219 c 6.277344,0 11.367188,5.089843 11.367188,11.375 0,6.28125 -5.089844,11.375 -11.367188,11.375 -6.277344,0 -11.367187,-5.09375 -11.367187,-11.375 0,-6.285157 5.089843,-11.375 11.367187,-11.375"
     id="path6424" />
  <path
     style="fill:#ffffff;fill-opacity:1;fill-rule:nonzero;stroke:none"
     d="m 32.003906,34.613281 c 1.03125,0 2.015625,0.199219 2.949219,0.597657 0.90625,0.382812 1.710937,0.925781 2.410156,1.625 0.699219,0.699218 1.242188,1.503906 1.625,2.410156 0.398438,0.9375 0.59375,1.921875 0.59375,2.953125 0,1.03125 -0.195312,2.011719 -0.59375,2.949219 -0.382812,0.90625 -0.925781,1.710937 -1.625,2.414062 -0.699219,0.699219 -1.503906,1.242188 -2.410156,1.625 -0.933594,0.398438 -1.917969,0.59375 -2.949219,0.59375 -1.027344,0 -2.011718,-0.195312 -2.949218,-0.59375 -0.90625,-0.382812 -1.707032,-0.925781 -2.410157,-1.625 -0.699219,-0.703125 -1.242187,-1.507812 -1.625,-2.414062 -0.394531,-0.9375 -0.59375,-1.917969 -0.59375,-2.949219 0,-1.03125 0.199219,-2.015625 0.59375,-2.953125 0.382813,-0.90625 0.925781,-1.710938 1.625,-2.410156 0.703125,-0.699219 1.503907,-1.242188 2.410157,-1.625 0.9375,-0.398438 1.921874,-0.597657 2.949218,-0.597657"
     id="path6426" />
  <path
     style="fill:#211e1e;fill-opacity:1;fill-rule:nonzero;stroke:none"
     d="m 24.902344,39.542969 c -0.316406,0.847656 -0.476563,1.730469 -0.476563,2.65625 0,0.921875 0.160157,1.804687 0.476563,2.652343 L 27.269531,42.1875 24.902344,39.542969"
     id="path6428" />
  <path
     style="fill:#211e1e;fill-opacity:1;fill-rule:nonzero;stroke:none"
     d="m 39.109375,44.851562 c 0.316406,-0.847656 0.476563,-1.730468 0.476563,-2.652343 0,-0.925781 -0.160157,-1.808594 -0.476563,-2.65625 l -2.367187,2.644531 2.367187,2.664062"
     id="path6430" />
</svg>
