<svg width="889" height="600" xmlns="http://www.w3.org/2000/svg">
 <!-- Created with Method Draw - http://github.com/duopixel/Method-Draw/ -->

 <g>
  <title>background</title>
  <rect fill="#FFFFFF" opacity="0" id="canvas_background" height="602" width="891" y="-1" x="-1"/>
  <g display="none" overflow="visible" y="0" x="0" height="100%" width="100%" id="canvasGrid">
   <rect fill="url(#gridpattern)" stroke-width="0" y="0" x="0" height="100%" width="100%"/>
  </g>
 </g>
 <g>
  <title>Layer 1</title>
  <metadata transform="matrix(5.0624978542330155,0,0,5.0624978542330155,0,0) " id="svg_25">image/svg+xml</metadata>

  <g stroke="null" id="svg_27">
   <path fill="#211e1e" fill-rule="nonzero" id="svg_24" d="m91.36975,515.35383l708.48271,0l0,-432.92985l-708.48271,0l0,432.92985zm0,0"/>
   <path fill="#ffffff" fill-rule="nonzero" id="svg_23" d="m243.53363,229.63046l0,-141.17558l-145.74817,0l0,141.17558l145.74817,0"/>
   <path fill="#ffffff" fill-rule="nonzero" id="svg_22" d="m97.82028,365.16426l145.74826,0l0,-131.77254l-145.74826,0l0,131.77254"/>
   <path fill="#ffffff" fill-rule="nonzero" id="svg_21" d="m243.56853,509.93891l0,-141.17558l-145.74826,0l0,141.17558l145.74826,0"/>
   <path fill="#ffffff" fill-rule="nonzero" id="svg_20" d="m247.40394,509.93891l546.5558,0l0,-141.20803l-546.5558,0l0,141.20803zm0,0"/>
   <path fill="#ffffff" fill-rule="nonzero" id="svg_19" d="m247.29942,365.16426l546.55571,0l0,-131.77254l-546.55571,0l0,131.77254zm0,0"/>
   <path fill="#ffffff" fill-rule="nonzero" id="svg_18" d="m247.40394,229.63046l546.5558,0l0,-141.17558l-546.5558,0l0,141.17558zm0,0"/>
   <path fill="#211e1e" fill-rule="nonzero" id="svg_17" d="m199.28616,125.062l-72.69975,-5.1879c-2.47568,-0.19457 -4.53282,1.71848 -4.32368,4.02058l5.57888,67.6372c0.13952,1.6212 1.39472,2.983 3.10328,3.37213c1.70848,0.35668 3.48675,-0.32422 4.39339,-1.75094l18.75896,-29.01976l38.63369,41.24377l21.47868,-19.9734l-44.3869,-35.92622l31.24172,-17.44428c1.49933,-0.81064 2.26636,-2.46429 1.84799,-4.08549c-0.38356,-1.58874 -1.84799,-2.75606 -3.62627,-2.88571"/>
   <path fill="#211e1e" fill-rule="nonzero" id="svg_16" d="m218.11483,299.60221l-47.45528,-51.45745c-1.63885,-1.75094 -4.53282,-1.75094 -6.17167,0l-47.45528,51.45745c-1.15068,1.26452 -1.29019,3.04791 -0.34875,4.44217c0.90663,1.39417 2.71973,2.07516 4.39339,1.68602l35.35617,-8.20335l-4.04473,54.57018l30.37008,0l-4.04473,-54.57018l35.35617,8.20335c1.70857,0.38905 3.48675,-0.29185 4.39339,-1.68602c0.94145,-1.39426 0.80193,-3.17765 -0.34866,-4.44217"/>
   <path fill="#211e1e" fill-rule="nonzero" id="svg_15" d="m209.74651,468.88971l5.57888,-67.60475c0.20923,-2.3021 -1.84799,-4.21514 -4.32359,-4.05303l-72.73466,5.22027c-1.74338,0.12974 -3.20781,1.29697 -3.62627,2.8858c-0.38356,1.58882 0.34866,3.24248 1.88289,4.08549l31.20682,17.44428l-44.35209,35.92622l21.47868,19.9734l38.63378,-41.27622l18.72406,29.05221c0.90663,1.39426 2.71973,2.10761 4.42829,1.71848c1.70848,-0.35668 2.96377,-1.71848 3.1032,-3.37213"/>
  </g>
  <text xml:space="preserve" text-anchor="start" font-family="sans-serif" font-size="50" id="svg_29" y="181.1111" x="280" stroke-width="0" stroke="#000" fill="#000000">param(text1)</text>
  <text xml:space="preserve" text-anchor="start" font-family="sans-serif" font-size="50" id="svg_30" y="316.66669" x="280" stroke-width="0" stroke="#000" fill="#000000">param(text2)</text>
  <text xml:space="preserve" text-anchor="start" font-family="sans-serif" font-size="50" id="svg_31" y="463.33339" x="280" stroke-width="0" stroke="#000" fill="#000000">param(text3)</text>
 </g>
</svg>