<svg width="1028" height="200" xmlns="http://www.w3.org/2000/svg">
 <!-- Created with Method Draw - http://github.com/duopixel/Method-Draw/ -->

 <g>
  <title>background</title>
  <rect fill="#FFFFFF" opacity="0" id="canvas_background" height="202" width="1030" y="-1" x="-1"/>
  <g display="none" overflow="visible" y="0" x="0" height="100%" width="100%" id="canvasGrid">
   <rect fill="url(#gridpattern)" stroke-width="0" y="0" x="0" height="100%" width="100%"/>
  </g>
 </g>
 <g>
  <title>Layer 1</title>
  <metadata transform="matrix(0.12985958486841387,0,0,0.12985958486841387,0,0) " id="svg_13">image/svg+xml</metadata>

  <g stroke="null" id="svg_15">
   <path fill="#211e1e" fill-rule="nonzero" id="svg_12" d="m852.51997,198.30067l173.4431,-98.74625l-173.4431,-98.8551l-851.48343,0l0,197.60135l851.48343,0"/>
   <path fill="#d1d1d1" fill-rule="nonzero" id="svg_11" d="m849.36926,186.42845l152.64814,-86.87403l-152.64814,-87.00469l-836.53369,0l0,173.87871l836.53369,0"/>
   <path fill="#211e1e" fill-rule="nonzero" id="svg_10" d="m852.54172,59.9514c21.75103,0 39.43862,17.73207 39.43862,39.53772c0,21.8056 -17.68759,39.53767 -39.43862,39.53767c-21.75103,0 -39.43862,-17.73207 -39.43862,-39.53767c0,-21.80566 17.68759,-39.53772 39.43862,-39.53772"/>
   <path fill="#ee2b2e" fill-rule="nonzero" id="svg_9" d="m852.54172,63.91607c19.55632,0 35.48393,15.96756 35.48393,35.57305c0,19.60544 -15.92761,35.57299 -35.48393,35.57299c-19.57807,0 -35.48393,-15.96756 -35.48393,-35.57299c0,-19.60549 15.90586,-35.57305 35.48393,-35.57305"/>
  </g>
  <text xml:space="preserve" text-anchor="start" font-family="sans-serif" font-size="100" id="svg_16" y="132.44443" x="91.83332" stroke-width="0" stroke="#000" fill="#000000">param(text1)</text>
 </g>
</svg>