<svg width="1000" height="200" xmlns="http://www.w3.org/2000/svg">
 <!-- Created with Method Draw - http://github.com/duopixel/Method-Draw/ -->

 <g>
  <title>background</title>
  <rect fill="#FFFFFF" opacity="0" id="canvas_background" height="202" width="1002" y="-1" x="-1"/>
  <g display="none" overflow="visible" y="0" x="0" height="100%" width="100%" id="canvasGrid">
   <rect fill="url(#gridpattern)" stroke-width="0" y="0" x="0" height="100%" width="100%"/>
  </g>
 </g>
 <g>
  <title>Layer 1</title>
  <metadata transform="matrix(0.12985958486841387,0,0,0.12985958486841387,0,0) " id="svg_21">image/svg+xml</metadata>

  <g stroke="null" id="svg_23">
   <path stroke="#211e1e" fill="#ffffff" fill-rule="nonzero" stroke-width="0.2835" stroke-linejoin="round" stroke-miterlimit="4" id="svg_20" d="m830.08902,200.30066l168.87401,-99.76767l-168.87401,-99.83369l-829.05243,0l0,199.60135l829.05243,0"/>
   <path fill="#ae1e19" fill-rule="nonzero" id="svg_19" d="m827.02131,188.30828l87.50474,-87.77528l-87.50474,-87.86333l-814.49651,0l0,175.63861l814.49651,0"/>
   <path fill="#ffffff" fill-rule="nonzero" id="svg_18" d="m91.37637,91.11511c-2.6869,-0.72611 -5.52193,-1.32023 -8.42044,-1.32023c-17.66598,0 -32.03146,14.94092 -32.03146,33.31455c0,18.3516 14.36548,33.29258 32.03146,33.29258c15.61374,0 28.66754,-11.68431 31.46027,-27.10934l6.98175,-0.02197c1.69255,0 3.78708,0 5.45845,-0.70414c1.75603,-0.61615 3.27932,-1.93638 4.56988,-3.2787l39.35177,-40.97203l2.24261,7.30541c-12.16522,4.75294 -21.09338,16.76729 -21.09338,31.09212c0,18.37363 14.36548,33.33657 32.05264,33.33657c17.6871,0 32.05258,-14.96295 32.05258,-33.33657c0,-18.3956 -14.36548,-33.33657 -32.05258,-33.33657c-1.7772,0 -3.3428,0.22003 -5.03534,0.5281l-9.6264,-35.20694c-0.69814,-2.3765 -1.58672,-5.23705 -3.19466,-6.90935c-1.84063,-1.98043 -4.92957,-3.23464 -8.54734,-3.23464l-11.80554,0l0,6.49126l9.45709,0c1.8618,0 4.21025,0 5.45845,1.07823c1.26944,1.16622 1.67143,2.64052 2.17919,4.40087l2.09454,7.12938l-56.57347,0l-2.00988,-6.02917l8.94933,-2.24446l0,-4.33485l-20.09897,0l0,6.5793l4.86604,0l2.09454,6.02917l-10.81113,27.46141"/>
   <path fill="#ae1e19" fill-rule="nonzero" id="svg_17" d="m88.87984,97.71644c-1.9041,-0.48411 -3.87168,-0.74813 -5.92392,-0.74813c-13.85772,0 -25.11319,11.70628 -25.11319,26.14112c0,14.41282 11.25547,26.11915 25.11319,26.11915c11.76324,0 21.68579,-8.49366 24.39387,-19.86989l-20.22598,-0.04394c-2.45417,0 -6.19895,0.17603 -7.72224,-2.3325c-1.24826,-2.11242 0.33851,-5.43505 0.8251,-6.90935l8.65317,-22.3564"/>
   <path fill="#ae1e19" fill-rule="nonzero" id="svg_16" d="m110.39638,69.90296l16.07921,51.24806l42.0598,-44.1847l-1.92528,-7.06336l-56.21372,0"/>
   <path fill="#ae1e19" fill-rule="nonzero" id="svg_15" d="m97.30029,93.22753c10.34572,5.43511 17.47555,16.54726 17.66598,29.3538l5.45845,0l-15.33871,-48.43156l-7.78572,19.07776"/>
   <path fill="#ae1e19" fill-rule="nonzero" id="svg_14" d="m174.69204,98.4866c-9.24554,3.82871 -15.80418,13.2466 -15.80418,24.22677c0,14.39085 11.25547,26.0751 25.11319,26.0751c13.85777,0 25.11319,-11.68425 25.11319,-26.0751c0,-14.39085 -11.25542,-26.09713 -25.11319,-26.09713c-1.05783,0 -2.09454,0.06602 -3.13119,0.19806l6.79132,24.99692c0.33851,1.23224 0.59242,3.58666 -2.00988,4.35682c-2.56,0.79218 -3.82938,-1.1002 -4.23137,-2.46449l-6.72789,-25.21695"/>
   <path fill="#ae1e19" fill-rule="nonzero" id="svg_13" d="m94.76146,100.13693l-8.5474,22.57643l21.70697,0c0,-9.94599 -5.28925,-18.13157 -13.15958,-22.57643"/>
  </g>
  <text xml:space="preserve" text-anchor="start" font-family="sans-serif" font-size="100" id="svg_24" y="142.2" x="246.5" stroke-width="0" stroke="#000" fill="#ffffff">param(text1)</text>
 </g>
</svg>