<svg width="1000" height="200" xmlns="http://www.w3.org/2000/svg">
 <!-- Created with Method Draw - http://github.com/duopixel/Method-Draw/ -->

 <g>
  <title>background</title>
  <rect fill="#FFFFFF" opacity="0" id="canvas_background" height="202" width="1002" y="-1" x="-1"/>
  <g display="none" overflow="visible" y="0" x="0" height="100%" width="100%" id="canvasGrid">
   <rect fill="url(#gridpattern)" stroke-width="0" y="0" x="0" height="100%" width="100%"/>
  </g>
 </g>
 <g>
  <title>Layer 1</title>
  <g stroke="null" id="svg_57">
   <path stroke="#211e1e" fill="#ffffff" fill-rule="nonzero" stroke-width="0.2835" stroke-linejoin="round" stroke-miterlimit="4" id="svg_54" d="m830.75059,200.30066l169.21248,-99.26783l-169.21248,-99.33352l-830.71404,0l0,198.60134l830.71404,0"/>
   <path fill="#ae1e19" fill-rule="nonzero" id="svg_53" d="m827.67673,188.36836l87.68012,-87.33553l-87.68012,-87.42313l-816.12895,0l0,174.75866l816.12895,0"/>
   <path fill="#ffffff" fill-rule="nonzero" id="svg_52" d="m103.7645,42.48805c0.33919,1.35739 0.80559,2.9776 1.39919,4.22552c1.46274,2.91191 4.45183,4.90428 7.50452,5.05757c3.41305,0.10946 6.02056,-3.15275 6.50818,-6.63394c0.31797,-2.27699 -0.0636,-5.01374 -0.6996,-7.20312l-14.7123,4.55397"/>
   <path fill="#ffffff" fill-rule="nonzero" id="svg_51" d="m118.09523,36.37956c-0.40279,-1.24793 -0.86919,-2.60538 -1.39914,-3.78767c-1.16599,-2.53969 -3.47671,-4.5102 -6.10539,-4.90428c-2.8831,-0.35031 -5.8298,1.57637 -7.03818,4.24744l-4.55782,10.53108l19.10052,-6.08657"/>
   <path fill="#ffffff" fill-rule="nonzero" id="svg_50" d="m86.76271,45.31235l-16.62022,15.12882c-1.27193,1.18229 -1.01756,3.48114 -0.38157,5.1232c0.72076,1.92668 2.81949,4.5978 4.28224,5.91142c0.53,0.43791 1.25076,0.78822 1.82315,0.54737c0.82675,-0.28462 1.50513,-1.51069 1.90792,-2.34267l2.03513,-4.48828c1.05995,-2.2113 3.09508,-5.73627 4.43066,-7.8381l5.2998,-7.44396c0.44518,-0.39414 1.99274,-1.70775 2.4167,-2.16752c0.31797,-0.37222 0.53,-0.89768 0.40279,-1.37931c-0.33919,-1.70775 -4.34584,-2.23321 -5.5966,-1.05092"/>
   <path fill="#ffffff" fill-rule="nonzero" id="svg_49" d="m76.58707,76.22684c1.73833,-5.03566 4.07026,-10.15886 6.63539,-14.84421c1.78071,-3.37168 3.96427,-6.91856 6.57173,-9.87424c1.78076,-2.01423 4.21869,-3.85336 6.8262,-4.24744c2.98909,-0.5036 6.46574,1.05092 9.00965,2.75867l30.10297,19.81412c3.1163,-1.29176 6.52934,0.89768 6.76254,4.33504c0.16959,3.2403 -3.15868,6.08657 -6.23259,5.18889c-0.99634,-0.28462 -1.86553,-0.89768 -2.52269,-1.75153l-6.69894,5.75813l13.39793,15.52296l2.52269,2.9776c4.55782,-3.87528 9.90006,-5.82387 15.83585,-5.71441c11.72315,0.30653 21.75042,9.69909 23.1284,21.76277c0.69954,6.04274 -0.67838,11.71332 -3.96427,16.72706c-1.80193,2.73675 -4.11264,5.10134 -6.84737,6.91856c-8.07691,5.27644 -19.29134,4.99182 -27.15627,-1.00714c-7.78011,-6.02088 -11.27798,-16.90227 -8.69168,-26.49184c0.86919,-3.19658 2.3531,-6.15226 4.36706,-8.73578l-5.72381,-6.83096l-10.09082,39.58452l-14.7759,5.01374c3.09508,16.33303 -10.04843,31.00203 -26.05388,29.22865c-12.93159,-1.37936 -22.4288,-13.42107 -21.36885,-26.55753c0.53,-6.61203 3.32828,-12.26069 8.20412,-16.63951c4.81218,-4.35696 10.66321,-6.37119 17.129,-5.95519l1.75955,-11.23169l-12.80438,-15.01936c-1.16594,-1.40122 -2.07751,-3.10892 -2.31071,-4.94805c-0.21198,-1.48877 -0.08482,-3.08706 0.14837,-4.57589c0.59361,-3.80953 1.58995,-7.50965 2.84071,-11.16594"/>
   <path fill="#ae1e19" fill-rule="nonzero" id="svg_48" d="m94.33084,84.78741l19.18535,4.20367l0.55117,5.36405l12.16839,-4.59775l-6.33858,-7.04988l8.90366,-7.66295l-22.57717,-13.81515l-11.8928,23.55801"/>
   <path fill="#ae1e19" fill-rule="nonzero" id="svg_47" d="m85.87236,129.9549c-7.67417,0 -14.56392,5.42973 -16.64144,12.87375c-2.05635,7.46588 0.89036,15.74183 7.35615,20.05496c5.68137,3.76581 13.16473,3.65635 18.80372,-0.13138c5.7662,-3.89713 8.62813,-10.99079 7.61057,-17.71229l-16.13265,5.25458c-0.93274,0.32839 -1.97152,0.15324 -2.77711,-0.48168c-0.95396,-0.70061 -1.39914,-1.92668 -1.18716,-3.13089l2.96792,-16.72706"/>
   <path fill="#ae1e19" fill-rule="nonzero" id="svg_46" d="m93.22851,143.13518l-3.9431,1.42308c-0.25436,0.04372 -0.50878,0 -0.65716,-0.21893c-0.08482,-0.13138 -0.12721,-0.32839 -0.10599,-0.45977l2.11995,-13.28969c2.33188,0.56923 4.49422,1.66392 6.33853,3.26221c2.01396,1.72961 3.60391,3.91905 4.57904,6.45874l-8.33127,2.82436"/>
   <path fill="#ae1e19" fill-rule="nonzero" id="svg_45" d="m105.05765,103.04707l-5.78736,2.2989l9.11569,16.48627l-3.32833,-18.78517"/>
   <path fill="#ae1e19" fill-rule="nonzero" id="svg_44" d="m94.77602,97.02618l9.39128,1.00714l-7.39853,2.7149l-1.99274,-3.72204"/>
   <path fill="#ae1e19" fill-rule="nonzero" id="svg_43" d="m147.2654,107.05372c3.54026,-2.99951 7.7165,-4.35696 12.25316,-3.96282c9.11569,0.76624 16.19626,8.99842 15.75103,18.45667c-0.40279,9.21746 -7.84371,16.74903 -16.76859,16.92418c-8.81889,0.19707 -16.4294,-6.74341 -17.4258,-15.76375c-0.48756,-4.48834 0.59361,-8.73578 3.20112,-12.37021l10.1332,11.49445l4.09148,1.11655c1.46274,0.41599 2.92548,-0.63492 3.1163,-2.16747c0.12721,-1.24798 -0.65716,-2.43028 -1.80193,-2.75867l-3.15868,-0.8539l-9.39128,-10.11503"/>
   <path fill="#ae1e19" fill-rule="nonzero" id="svg_42" d="m107.94075,137.90246c-1.39914,-3.70007 -3.70985,-6.96228 -6.67772,-9.50202c-2.69234,-2.32076 -5.95701,-3.96282 -9.39128,-4.75104l1.10233,-7.42205l15.34829,15.82938c1.18716,1.18229 2.81949,1.77344 4.45183,1.55452c2.92548,-0.37222 4.98183,-3.02137 4.66381,-6.0428l-2.92548,-28.28714l15.22108,-5.75818l0.67838,0.67875l-10.00605,39.45314l-12.46519,4.24744"/>
  </g>
  <metadata transform="matrix(0.12985958486841387,0,0,0.12985958486841387,0,0) " id="svg_21">image/svg+xml</metadata>

  <text xml:space="preserve" text-anchor="start" font-family="sans-serif" font-size="100" id="svg_24" y="142.2" x="246.5" stroke-width="0" stroke="#000" fill="#ffffff">param(text1)</text>
  <metadata transform="matrix(0.12985958486841387,0,0,0.12985958486841387,0,0) " id="svg_55">image/svg+xml</metadata>

 </g>
</svg>