<?xml version="1.0" encoding="UTF-8"?>
<svg xmlns="http://www.w3.org/2000/svg" xmlns:xlink="http://www.w3.org/1999/xlink" width="77pt" height="44pt" viewBox="0 0 77 44" version="1.1">
<g id="surface1">
<path style="fill-rule:nonzero;fill:rgb(100%,100%,100%);fill-opacity:1;stroke-width:2.835;stroke-linecap:butt;stroke-linejoin:round;stroke:rgb(13.729858%,12.159729%,12.548828%);stroke-opacity:1;stroke-miterlimit:4;" d="M 9.609375 5.703125 L 505.625 5.703125 L 760.78125 218.242188 L 505.625 430.859375 L 9.609375 430.859375 L 9.609375 5.703125 " transform="matrix(0.1,0,0,-0.1,0,44)"/>
<path style=" stroke:none;fill-rule:nonzero;fill:rgb(68.630981%,12.666321%,10.813904%);fill-opacity:1;" d="M 3.796875 40.585938 L 50.5625 40.59375 L 67.570312 22.167969 L 50.5625 3.746094 L 3.796875 3.746094 L 3.796875 40.585938 "/>
<path style=" stroke:none;fill-rule:nonzero;fill:rgb(100%,100%,100%);fill-opacity:1;" d="M 21.332031 20.914062 C 20.730469 20.757812 20.097656 20.632812 19.449219 20.632812 C 15.507812 20.632812 12.304688 23.835938 12.304688 27.777344 C 12.304688 31.71875 15.507812 34.925781 19.449219 34.925781 C 22.9375 34.925781 25.851562 32.414062 26.472656 29.109375 L 28.03125 29.101562 C 28.410156 29.101562 28.878906 29.101562 29.25 28.949219 C 29.644531 28.820312 29.980469 28.535156 30.269531 28.246094 L 39.054688 19.453125 L 39.550781 21.023438 C 36.835938 22.042969 34.84375 24.621094 34.84375 27.695312 C 34.84375 31.636719 38.050781 34.847656 42 34.847656 C 45.949219 34.847656 49.152344 31.636719 49.152344 27.695312 C 49.152344 23.746094 45.949219 20.542969 42 20.542969 C 41.605469 20.542969 41.253906 20.589844 40.875 20.652344 L 38.726562 13.097656 C 38.574219 12.589844 38.375 11.976562 38.015625 11.617188 C 37.601562 11.191406 36.914062 10.921875 36.105469 10.921875 L 33.472656 10.921875 L 33.472656 12.3125 L 35.582031 12.3125 C 35.996094 12.3125 36.519531 12.3125 36.804688 12.546875 C 37.085938 12.796875 37.175781 13.113281 37.285156 13.492188 L 37.753906 15.023438 L 25.128906 15.023438 L 24.679688 13.726562 L 26.679688 13.242188 L 26.679688 12.3125 L 22.195312 12.3125 L 22.195312 13.726562 L 23.273438 13.726562 L 23.742188 15.023438 L 21.332031 20.914062 "/>
<path style=" stroke:none;fill-rule:nonzero;fill:rgb(68.630981%,12.666321%,10.813904%);fill-opacity:1;" d="M 20.800781 22.324219 C 20.378906 22.21875 19.9375 22.164062 19.480469 22.164062 C 16.386719 22.164062 13.871094 24.675781 13.871094 27.769531 C 13.871094 30.863281 16.386719 33.378906 19.480469 33.378906 C 22.105469 33.378906 24.320312 31.554688 24.925781 29.113281 L 20.410156 29.105469 C 19.863281 29.105469 19.027344 29.144531 18.6875 28.605469 C 18.40625 28.152344 18.761719 27.441406 18.871094 27.121094 L 20.800781 22.324219 "/>
<path style=" stroke:none;fill-rule:nonzero;fill:rgb(68.630981%,12.666321%,10.813904%);fill-opacity:1;" d="M 25.582031 16.355469 L 29.171875 27.351562 L 38.558594 17.871094 L 38.128906 16.355469 L 25.582031 16.355469 "/>
<path style=" stroke:none;fill-rule:nonzero;fill:rgb(68.630981%,12.666321%,10.813904%);fill-opacity:1;" d="M 22.65625 21.367188 C 24.964844 22.535156 26.554688 24.917969 26.597656 27.667969 L 27.816406 27.667969 L 24.390625 17.277344 L 22.65625 21.367188 "/>
<path style=" stroke:none;fill-rule:nonzero;fill:rgb(68.630981%,12.666321%,10.813904%);fill-opacity:1;" d="M 39.945312 22.492188 C 37.882812 23.316406 36.417969 25.335938 36.417969 27.691406 C 36.417969 30.78125 38.929688 33.289062 42.023438 33.289062 C 45.113281 33.289062 47.628906 30.78125 47.628906 27.691406 C 47.628906 24.601562 45.113281 22.09375 42.023438 22.09375 C 41.789062 22.09375 41.554688 22.105469 41.328125 22.136719 L 42.84375 27.5 C 42.914062 27.765625 42.96875 28.269531 42.390625 28.4375 C 41.820312 28.601562 41.535156 28.195312 41.449219 27.90625 L 39.945312 22.492188 "/>
<path style=" stroke:none;fill-rule:nonzero;fill:rgb(68.630981%,12.666321%,10.813904%);fill-opacity:1;" d="M 22.121094 22.828125 L 20.210938 27.667969 L 25.054688 27.667969 C 25.054688 25.539062 23.878906 23.78125 22.121094 22.828125 "/>
</g>
</svg>
