<svg width="688" height="600" xmlns="http://www.w3.org/2000/svg">
 <!-- Created with Method Draw - http://github.com/duopixel/Method-Draw/ -->

 <g>
  <title>background</title>
  <rect fill="#FFFFFF" opacity="0" id="canvas_background" height="602" width="690" y="-1" x="-1"/>
  <g display="none" overflow="visible" y="0" x="0" height="100%" width="100%" id="canvasGrid">
   <rect fill="url(#gridpattern)" stroke-width="0" y="0" x="0" height="100%" width="100%"/>
  </g>
 </g>
 <g>
  <title>Layer 1</title>
  <metadata transform="matrix(2.0408157426484195,0,0,2.0408157426484195,0,0) " id="svg_17">image/svg+xml</metadata>

  <g stroke="null" id="svg_19">
   <path fill="#ffffff" fill-rule="nonzero" id="svg_16" d="m84.2343,519.25287l513.21563,0l0,-440.61102l-513.21563,0l0,440.61102zm0,0"/>
   <path stroke="#211e1e" fill="none" stroke-width="0.2835" stroke-miterlimit="4" id="svg_15" d="m84.2343,519.25287l513.21563,0l0,-440.61102l-513.21563,0l0,440.61102"/>
   <path fill="#1966ba" fill-rule="nonzero" id="svg_14" d="m90.83503,512.76138l499.9533,0l0,-427.55308l-499.9533,0l0,427.55308zm0,0"/>
   <path fill="#ffffff" fill-rule="nonzero" id="svg_13" d="m272.94872,409.12262l-83.77166,47.65915l0,32.63727l-33.11021,0l0,-277.4245l-23.95431,5.66692c-1.1255,0.26984 -2.2966,-0.2099 -2.90496,-1.19935c-0.57792,-0.98945 -0.45624,-2.23378 0.31939,-3.07333l41.12539,-45.02059c1.04942,-1.15437 2.87451,-1.15437 3.93916,0l41.12539,45.02059c0.77567,0.83954 0.89734,2.08387 0.3042,3.07333c-0.59314,0.98945 -1.76427,1.46919 -2.88974,1.19935l-23.95431,-5.66692l0,32.63727l84.21272,47.929c7.72624,-2.57858 16.22811,0.79456 19.99996,7.91571c3.75667,7.15112 1.68823,15.93638 -4.89732,20.6888l0.15208,59.20288c6.64637,4.82737 8.53232,14.03239 4.62356,21.19851c-3.90871,7.15112 -12.57792,10.37435 -20.31935,7.5559"/>
   <path fill="#1966ba" fill-rule="nonzero" id="svg_12" d="m262.22633,392.57159l-73.00365,41.57245l0,-166.91947l72.98842,41.54247c0.22812,4.8124 2.60076,9.27997 6.47906,12.20339l-0.01518,59.86251c-3.72622,2.83346 -6.08364,7.09117 -6.44866,11.73866"/>
   <path fill="#ee2b2e" fill-rule="nonzero" id="svg_11" d="m189.19224,393.636l-33.14062,0l0,-84.86896l33.14062,0l0,84.86896"/>
  </g>
  <text xml:space="default" dominant-baseline="middle" text-anchor="middle" font-family="sans-serif" font-size="40" id="svg_20" y="143.15786" x="190" stroke-width="0" stroke="#000" fill="#ffffff">param(text1)</text>
  <text xml:space="preserve" text-anchor="start" font-family="sans-serif" font-size="30" id="svg_21" y="314.73684" x="318" stroke-width="0" stroke="#000" fill="#ffffff">param(text2)</text>
  <text xml:space="preserve" text-anchor="start" font-family="sans-serif" font-size="30" id="svg_22" y="406.31579" x="318" stroke-width="0" stroke="#000" fill="#ffffff">param(text3)</text>
 </g>
</svg>