<svg width="775" height="600" xmlns="http://www.w3.org/2000/svg">
 <!-- Created with Method Draw - http://github.com/duopixel/Method-Draw/ -->

 <g>
  <title>background</title>
  <rect fill="#FFFFFF" opacity="0" id="canvas_background" height="602" width="777" y="-1" x="-1"/>
  <g display="none" overflow="visible" y="0" x="0" height="100%" width="100%" id="canvasGrid">
   <rect fill="url(#gridpattern)" stroke-width="0" y="0" x="0" height="100%" width="100%"/>
  </g>
 </g>
 <g>
  <title>Layer 1</title>
  <metadata transform="matrix(1.8316376518701105,0,0,1.8316376518701105,0,0) " id="svg_29">image/svg+xml</metadata>

  <g stroke="null" id="svg_31">
   <path fill="#ffffff" fill-rule="nonzero" id="svg_28" d="m87.89426,523.45677l599.21142,0l0,-450.2469l-599.21142,0l0,450.2469zm0,0"/>
   <path stroke="#211e1e" fill="none" stroke-width="0.2835" stroke-miterlimit="4" id="svg_27" d="m87.89426,523.45677l599.21142,0l0,-450.2469l-599.21142,0l0,450.2469"/>
   <path fill="#1966ba" fill-rule="nonzero" id="svg_26" d="m95.74309,516.13192l583.7446,0l0,-435.25249l-583.7446,0l0,435.25249zm0,0"/>
   <path fill="#ffffff" fill-rule="nonzero" id="svg_25" d="m611.33413,149.99174c0.88791,0.96516 1.02997,2.41292 0.35504,3.53317c-0.7103,1.13754 -2.07763,1.68906 -3.39172,1.39605l-27.96802,-6.51482l0,281.39569l-38.64047,0l0,-150.08228l-71.45646,0l-21.87733,-37.52059l93.33379,0l0,-93.81006l-27.98593,6.53207c-1.31405,0.29301 -2.68138,-0.25851 -3.37395,-1.3788c-0.69253,-1.1375 -0.55047,-2.58526 0.35517,-3.55042l48.01647,-51.75669c1.22527,-1.32709 3.39168,-1.32709 4.59922,0l48.0342,51.75669"/>
   <path fill="#ffffff" fill-rule="nonzero" id="svg_24" d="m195.39859,212.15838c1.0122,-0.87899 2.48604,-1.01687 3.65807,-0.36193c1.15421,0.6894 1.74023,2.01649 1.42061,3.29187l-6.7124,27.1451l132.50699,0l-22.09039,37.52059l-110.4166,0l6.7124,27.12789c0.31962,1.27538 -0.26635,2.61972 -1.42061,3.27462c-1.17203,0.6894 -2.64587,0.53431 -3.65807,-0.32747l-53.30821,-46.60342c-1.3851,-1.18921 -1.3851,-3.27462 -0.01773,-4.46387l53.32594,-46.60342"/>
   <path fill="#ee2b2e" fill-rule="nonzero" id="svg_23" d="m487.68816,335.92285l1.11876,-0.08617l1.10098,-0.22405l1.06543,-0.32747l0.99442,-0.44814l0.95892,-0.58598l0.85236,-0.6894l0.78131,-0.77557l0.6748,-0.89624l0.58602,-1.05133l0.44396,-1.10304l0.24862,-1.15475l0.12429,-1.1375l-0.05328,-1.17196l-0.21307,-1.172l-0.35517,-1.12025l-0.51501,-1.08583l-99.46012,-170.57468l-0.6748,-0.99966l-0.78131,-0.91345l-0.90564,-0.79282l-0.99442,-0.6894l-1.06548,-0.55152l-1.13648,-0.43089l-1.18976,-0.29301l-1.22527,-0.12063l-1.34955,0.01721l-1.33182,0.2068l-1.26082,0.39639l-1.20749,0.53431l-1.10098,0.6894l-1.01215,0.84449l-0.88791,0.96516l-0.74581,1.10304l-100.41904,170.59198l-0.53274,1.08579l-0.3729,1.12029l-0.21311,1.15475l-0.03546,1.17196l0.10656,1.172l0.28412,1.15471l0.42618,1.12029l0.60375,1.06858l0.6748,0.87899l0.78131,0.79278l0.85236,0.6894l0.94115,0.56877l1.0122,0.4481l1.06548,0.34472l1.11871,0.2068l1.13648,0.06896l201.08674,0"/>
   <path fill="#ffffff" fill-rule="nonzero" id="svg_22" d="m471.26242,318.48102l-84.24191,-142.65402l-83.60261,142.5506l167.84452,0.10342"/>
   <path fill="#211e1e" fill-rule="nonzero" id="svg_21" d="m351.93155,297.98862l0,-6.25631l-4.61695,0l0,-8.73815l4.61695,0l0,-15.02891l-4.61695,0l0,-8.73815l4.61695,0l0,-4.99814l4.29737,-7.51443l4.688,7.51443l0,4.99814l6.42823,0l0,-4.99814l4.3151,-7.51443l4.67022,7.51443l0,4.99814l6.42823,0l0,-4.99814l4.36837,-7.51443l4.61699,7.51443l0,4.99814l6.41045,0l0,-4.99814l4.40388,-7.51443l4.59922,7.51443l0,4.99814l6.42823,0l0,-4.99814l4.40388,-7.51443l4.56371,7.51443l0,4.99814l4.63472,0l0,8.73815l-4.63472,0l0,15.02891l4.63472,0l0,8.73815l-4.63472,0l0,6.25631l-8.96759,0l0,-6.25631l-6.42823,0l0,6.25631l-9.00309,0l0,-6.25631l-6.41045,0l0,6.25631l-8.98536,0l0,-6.25631l-6.42823,0l0,6.25631l-8.98532,0l0,-6.25631l-6.42823,0l0,6.25631l-8.98536,0"/>
   <path fill="#ffffff" fill-rule="nonzero" id="svg_20" d="m361.05898,283.02867l6.42823,0l0,-15.01171l-6.42823,0l0,15.01171zm0,0"/>
   <path fill="#ffffff" fill-rule="nonzero" id="svg_19" d="m376.27718,283.02867l6.42823,0l0,-15.01171l-6.42823,0l0,15.01171zm0,0"/>
   <path fill="#ffffff" fill-rule="nonzero" id="svg_18" d="m391.69078,283.02867l6.42823,0l0,-15.01171l-6.42823,0l0,15.01171zm0,0"/>
   <path fill="#ffffff" fill-rule="nonzero" id="svg_17" d="m407.21088,283.02867l6.4105,0l0,-15.01171l-6.4105,0l0,15.01171zm0,0"/>
  </g>
  <text xml:space="default" dominant-baseline="middle" text-anchor="middle" font-family="sans-serif" font-size="40" id="svg_32" y="483.33379" x="560" stroke-width="0" stroke="#000" fill="#ffffff">param(text1)</text>
 </g>
</svg>