<?xml version="1.0" encoding="UTF-8"?>
<svg xmlns="http://www.w3.org/2000/svg" xmlns:xlink="http://www.w3.org/1999/xlink" width="105pt" height="60pt" viewBox="0 0 105 60" version="1.1">
<g id="surface1">
<path style="fill-rule:nonzero;fill:rgb(100%,100%,100%);fill-opacity:1;stroke-width:2.835;stroke-linecap:butt;stroke-linejoin:round;stroke:rgb(13.729858%,12.159729%,12.548828%);stroke-opacity:1;stroke-miterlimit:4;" d="M 1046.09375 497.773438 C 1046.09375 552.578125 1001.640625 596.992188 946.835938 596.992188 L 103.59375 596.992188 C 48.789062 596.992188 4.375 552.578125 4.375 497.773438 L 4.375 100.9375 C 4.375 46.054688 48.75 1.601562 103.59375 1.71875 L 946.875 1.71875 C 1001.679688 1.71875 1046.09375 46.132812 1046.09375 100.9375 L 1046.09375 497.773438 " transform="matrix(0.1,0,0,-0.1,0,60)"/>
<path style=" stroke:none;fill-rule:nonzero;fill:rgb(93.527222%,17.272949%,18.882751%);fill-opacity:1;" d="M 52.488281 2.632812 L 9.550781 9.414062 C 7.132812 9.789062 5.363281 11.867188 5.363281 14.3125 L 5.363281 45.519531 C 5.363281 47.960938 7.132812 50.039062 9.550781 50.417969 L 52.488281 57.199219 L 95.421875 50.417969 C 97.835938 50.039062 99.609375 47.960938 99.609375 45.519531 L 99.609375 14.3125 C 99.609375 11.871094 97.835938 9.792969 95.425781 9.414062 L 52.488281 2.632812 "/>
<path style=" stroke:none;fill-rule:nonzero;fill:rgb(100%,100%,100%);fill-opacity:1;" d="M 43.011719 47.289062 L 61.960938 47.289062 L 61.960938 42.863281 L 48.929688 42.863281 L 50.222656 41.46875 C 51.765625 39.777344 53.253906 38.035156 54.648438 36.246094 C 55.988281 34.503906 57.183594 32.714844 58.226562 30.972656 C 59.277344 29.230469 60.070312 27.539062 60.664062 25.851562 C 61.261719 24.207031 61.5625 22.613281 61.5625 21.125 C 61.5625 19.878906 61.363281 18.734375 61.015625 17.640625 C 60.617188 16.542969 60.023438 15.601562 59.277344 14.753906 C 58.476562 13.960938 57.484375 13.3125 56.339844 12.816406 C 55.148438 12.367188 53.753906 12.117188 52.160156 12.117188 C 50.519531 12.117188 48.980469 12.316406 47.636719 12.664062 C 46.242188 13.0625 44.953125 13.558594 43.804688 14.15625 L 44.355469 19.234375 C 45.148438 18.585938 46.144531 17.9375 47.289062 17.390625 C 48.433594 16.84375 49.726562 16.542969 51.167969 16.542969 C 52.707031 16.542969 53.953125 17.042969 54.796875 18.089844 C 55.644531 19.132812 56.089844 20.425781 56.089844 22.066406 C 56.089844 23.210938 55.84375 24.457031 55.34375 25.800781 C 54.796875 27.144531 54.097656 28.585938 53.15625 30.027344 C 52.214844 31.519531 51.117188 33.0625 49.875 34.703125 C 48.582031 36.34375 47.191406 38.035156 45.648438 39.777344 L 43.011719 42.8125 L 43.011719 47.289062 "/>
</g>
</svg>
