<?xml version="1.0" encoding="UTF-8"?>
<svg xmlns="http://www.w3.org/2000/svg" xmlns:xlink="http://www.w3.org/1999/xlink" width="101pt" height="51pt" viewBox="0 0 101 51" version="1.1">
<g id="surface1">
<path style=" stroke:none;fill-rule:nonzero;fill:rgb(100%,100%,100%);fill-opacity:1;" d="M 0.878906 49.976562 L 100.089844 49.976562 L 100.089844 0.371094 L 0.878906 0.371094 Z M 0.878906 49.976562 "/>
<path style="fill:none;stroke-width:2.835;stroke-linecap:butt;stroke-linejoin:miter;stroke:rgb(13.729858%,12.159729%,12.548828%);stroke-opacity:1;stroke-miterlimit:4;" d="M 8.789062 10.234375 L 1000.898438 10.234375 L 1000.898438 506.289062 L 8.789062 506.289062 L 8.789062 10.234375 " transform="matrix(0.1,0,0,-0.1,0,51)"/>
<path style=" stroke:none;fill-rule:nonzero;fill:rgb(13.729858%,12.159729%,12.548828%);fill-opacity:1;" d="M 87.460938 48.171875 C 93.4375 48.171875 98.285156 43.324219 98.285156 37.347656 L 98.285156 12.996094 C 98.285156 7.019531 93.4375 2.175781 87.460938 2.175781 L 13.503906 2.175781 C 7.527344 2.175781 2.679688 7.019531 2.679688 12.996094 L 2.679688 37.347656 C 2.679688 43.324219 7.527344 48.171875 13.503906 48.171875 L 87.460938 48.171875 "/>
<path style=" stroke:none;fill-rule:nonzero;fill:rgb(100%,100%,100%);fill-opacity:1;" d="M 87.460938 45.464844 C 91.945312 45.464844 95.578125 41.832031 95.578125 37.347656 L 95.578125 12.996094 C 95.578125 8.515625 91.945312 4.878906 87.460938 4.878906 L 13.503906 4.878906 C 9.019531 4.878906 5.382812 8.515625 5.382812 12.996094 L 5.382812 37.347656 C 5.382812 41.832031 9.019531 45.464844 13.503906 45.464844 L 87.460938 45.464844 "/>
<path style=" stroke:none;fill-rule:nonzero;fill:rgb(13.729858%,12.159729%,12.548828%);fill-opacity:1;" d="M 32.710938 20.144531 L 38.351562 16.441406 L 35.191406 13.605469 L 35.125 13.53125 L 35.070312 13.445312 L 35.03125 13.355469 L 35.007812 13.261719 L 35.003906 13.164062 L 35.011719 13.066406 L 35.039062 12.96875 L 35.082031 12.878906 L 35.179688 12.75 L 35.304688 12.652344 L 35.453125 12.585938 L 35.613281 12.566406 L 47.214844 12.542969 L 47.386719 12.566406 L 47.550781 12.628906 L 47.695312 12.726562 L 47.816406 12.859375 L 47.894531 13.015625 L 47.933594 13.191406 L 47.929688 13.367188 L 47.882812 13.539062 L 43.507812 24.074219 L 43.449219 24.179688 L 43.382812 24.273438 L 43.304688 24.351562 L 43.214844 24.417969 L 43.113281 24.46875 L 43.007812 24.507812 L 42.894531 24.523438 L 42.777344 24.523438 L 42.578125 24.480469 L 42.402344 24.382812 L 42.257812 24.238281 L 42.15625 24.054688 L 40.695312 20.015625 L 39.640625 20.722656 C 35.425781 23.546875 33.742188 28.914062 35.585938 33.640625 L 37.203125 37.796875 L 26.34375 37.796875 L 26.1875 32.652344 L 25.585938 12.546875 L 27.386719 12.546875 L 30.898438 21.546875 C 31.464844 21.03125 32.070312 20.5625 32.710938 20.144531 "/>
<path style=" stroke:none;fill-rule:nonzero;fill:rgb(13.729858%,12.159729%,12.548828%);fill-opacity:1;" d="M 11.949219 37.796875 L 21.761719 12.542969 L 23.566406 12.542969 L 23.382812 18.605469 L 22.808594 37.796875 L 11.949219 37.796875 "/>
<path style=" stroke:none;fill-rule:nonzero;fill:rgb(13.729858%,12.159729%,12.548828%);fill-opacity:1;" d="M 55.347656 32.183594 L 64.941406 32.183594 L 64.941406 37.582031 L 68.496094 37.582031 L 68.496094 32.183594 L 71.230469 32.183594 L 71.230469 29.234375 L 68.496094 29.234375 L 68.496094 12.78125 L 64.089844 12.78125 L 55.347656 28.628906 L 55.347656 32.183594 "/>
<path style=" stroke:none;fill-rule:nonzero;fill:rgb(13.729858%,12.159729%,12.548828%);fill-opacity:1;" d="M 73.003906 36.875 C 73.75 37.121094 74.601562 37.371094 75.5625 37.546875 C 76.523438 37.761719 77.519531 37.863281 78.582031 37.863281 C 79.828125 37.863281 80.964844 37.691406 81.992188 37.371094 C 83.027344 37.015625 83.878906 36.519531 84.625 35.914062 C 85.371094 35.273438 85.9375 34.492188 86.332031 33.601562 C 86.71875 32.714844 86.933594 31.71875 86.933594 30.582031 C 86.933594 29.660156 86.789062 28.84375 86.542969 28.132812 C 86.257812 27.417969 85.902344 26.851562 85.441406 26.355469 C 84.976562 25.859375 84.445312 25.46875 83.84375 25.183594 C 83.238281 24.898438 82.597656 24.683594 81.921875 24.578125 L 81.921875 24.507812 C 82.457031 24.398438 82.988281 24.222656 83.558594 23.976562 C 84.089844 23.722656 84.625 23.371094 85.085938 22.90625 C 85.546875 22.445312 85.902344 21.878906 86.1875 21.167969 C 86.472656 20.492188 86.613281 19.675781 86.613281 18.679688 C 86.613281 17.683594 86.4375 16.761719 86.082031 15.980469 C 85.691406 15.195312 85.191406 14.558594 84.550781 14.023438 C 83.914062 13.492188 83.167969 13.101562 82.277344 12.851562 C 81.390625 12.601562 80.464844 12.460938 79.4375 12.460938 C 78.226562 12.460938 77.160156 12.570312 76.238281 12.746094 C 75.277344 12.960938 74.460938 13.207031 73.75 13.492188 L 74 16.867188 C 74.746094 16.476562 75.5625 16.15625 76.378906 15.90625 C 77.199219 15.660156 77.976562 15.550781 78.652344 15.550781 C 79.828125 15.550781 80.824219 15.871094 81.640625 16.511719 C 82.457031 17.152344 82.847656 18.074219 82.847656 19.246094 C 82.847656 19.992188 82.707031 20.597656 82.421875 21.09375 C 82.136719 21.628906 81.746094 22.019531 81.25 22.375 C 80.714844 22.695312 80.109375 22.945312 79.402344 23.085938 C 78.691406 23.265625 77.90625 23.335938 77.089844 23.335938 L 76.058594 23.335938 L 76.058594 26.320312 C 76.273438 26.320312 76.558594 26.320312 76.914062 26.285156 C 77.234375 26.285156 77.660156 26.285156 78.15625 26.285156 C 79.648438 26.285156 80.824219 26.640625 81.671875 27.3125 C 82.527344 27.988281 82.953125 28.984375 82.953125 30.226562 C 82.953125 31.011719 82.8125 31.683594 82.5625 32.253906 C 82.316406 32.824219 81.957031 33.285156 81.53125 33.640625 C 81.070312 34.03125 80.574219 34.316406 80.003906 34.492188 C 79.402344 34.671875 78.796875 34.777344 78.121094 34.777344 C 77.160156 34.777344 76.273438 34.636719 75.457031 34.351562 C 74.640625 34.101562 73.894531 33.78125 73.253906 33.460938 L 73.003906 36.875 "/>
<path style=" stroke:none;fill-rule:nonzero;fill:rgb(100%,100%,100%);fill-opacity:1;" d="M 58.296875 29.234375 L 64.871094 16.617188 L 64.941406 16.617188 L 64.941406 29.234375 L 58.296875 29.234375 "/>
</g>
</svg>
