<?xml version="1.0" encoding="UTF-8"?>
<svg xmlns="http://www.w3.org/2000/svg" xmlns:xlink="http://www.w3.org/1999/xlink" width="129pt" height="96pt" viewBox="0 0 129 96" version="1.1">
<g id="surface1">
<path style=" stroke:none;fill-rule:nonzero;fill:rgb(10.112%,40.585327%,73.280334%);fill-opacity:1;" d="M 0.738281 95.796875 L 128.296875 95.796875 L 128.296875 0.554688 L 0.738281 0.554688 Z M 0.738281 95.796875 "/>
<path style=" stroke:none;fill-rule:nonzero;fill:rgb(100%,100%,100%);fill-opacity:1;" d="M 126.597656 7.355469 C 126.597656 4.539062 124.3125 2.253906 121.492188 2.253906 L 7.542969 2.253906 C 4.722656 2.253906 2.4375 4.539062 2.4375 7.355469 L 2.4375 88.992188 C 2.4375 91.8125 4.722656 94.097656 7.539062 94.097656 L 121.492188 94.097656 C 124.3125 94.101562 126.597656 91.8125 126.597656 88.996094 L 126.597656 7.355469 "/>
<path style=" stroke:none;fill-rule:nonzero;fill:rgb(10.112%,40.585327%,73.280334%);fill-opacity:1;" d="M 124.894531 7.355469 L 124.894531 88.996094 C 124.894531 90.875 123.371094 92.398438 121.492188 92.394531 L 7.539062 92.394531 C 5.664062 92.398438 4.136719 90.875 4.140625 88.992188 L 4.140625 7.355469 C 4.136719 5.476562 5.664062 3.953125 7.542969 3.957031 L 121.492188 3.957031 C 123.371094 3.953125 124.898438 5.476562 124.894531 7.355469 "/>
<path style=" stroke:none;fill-rule:nonzero;fill:rgb(100%,100%,100%);fill-opacity:1;" d="M 78.730469 66.59375 C 78.984375 66.074219 78.632812 65.464844 78.054688 65.421875 L 61.714844 64.257812 C 60.96875 64.203125 60.550781 65.101562 61.070312 65.640625 L 65.75 70.480469 L 49.890625 78.929688 L 52.953125 84.230469 L 68.199219 74.722656 L 70.050781 81.195312 C 70.257812 81.914062 71.242188 82 71.570312 81.328125 L 78.730469 66.59375 "/>
<path style=" stroke:none;fill-rule:nonzero;fill:rgb(100%,100%,100%);fill-opacity:1;" d="M 15.871094 28.445312 L 17.921875 28.445312 L 17.921875 17 L 17.964844 17 L 23.027344 28.445312 L 25.714844 28.445312 L 25.714844 14.128906 L 23.664062 14.128906 L 23.664062 25.65625 L 23.621094 25.65625 L 18.558594 14.128906 L 15.871094 14.128906 L 15.871094 28.445312 "/>
<path style=" stroke:none;fill-rule:nonzero;fill:rgb(100%,100%,100%);fill-opacity:1;" d="M 29.269531 28.445312 L 31.402344 28.445312 L 31.402344 17.921875 L 29.269531 17.921875 L 29.269531 28.445312 "/>
<path style=" stroke:none;fill-rule:nonzero;fill:rgb(100%,100%,100%);fill-opacity:1;" d="M 29.210938 15.8125 L 31.464844 15.8125 L 31.464844 13.535156 L 29.210938 13.535156 L 29.210938 15.8125 "/>
<path style=" stroke:none;fill-rule:nonzero;fill:rgb(100%,100%,100%);fill-opacity:1;" d="M 36.519531 23.789062 L 42.523438 23.789062 L 42.523438 23.074219 C 42.523438 22.148438 42.421875 21.371094 42.238281 20.695312 C 42.054688 20.015625 41.785156 19.460938 41.4375 19.03125 C 41.089844 18.601562 40.660156 18.292969 40.1875 18.085938 C 39.695312 17.882812 39.164062 17.78125 38.589844 17.78125 C 37.933594 17.78125 37.339844 17.902344 36.824219 18.167969 C 36.292969 18.4375 35.839844 18.828125 35.492188 19.296875 C 35.144531 19.789062 34.855469 20.363281 34.671875 21.042969 C 34.488281 21.71875 34.386719 22.457031 34.386719 23.257812 C 34.386719 24.015625 34.488281 24.734375 34.671875 25.390625 C 34.855469 26.046875 35.125 26.601562 35.511719 27.074219 C 35.882812 27.542969 36.355469 27.914062 36.929688 28.179688 C 37.503906 28.46875 38.179688 28.589844 38.9375 28.589844 C 39.59375 28.589844 40.1875 28.527344 40.699219 28.386719 C 41.214844 28.242188 41.621094 28.097656 41.972656 27.957031 L 41.867188 26.171875 C 41.601562 26.355469 41.253906 26.539062 40.84375 26.722656 C 40.414062 26.910156 39.902344 27.011719 39.285156 27.011719 C 38.300781 27.011719 37.605469 26.742188 37.171875 26.191406 C 36.742188 25.65625 36.519531 24.855469 36.519531 23.789062 "/>
<path style=" stroke:none;fill-rule:nonzero;fill:rgb(100%,100%,100%);fill-opacity:1;" d="M 51.980469 28.445312 L 54.007812 28.445312 C 53.988281 28.179688 53.96875 27.894531 53.945312 27.585938 C 53.925781 27.277344 53.925781 26.929688 53.925781 26.582031 L 53.925781 13.0625 L 51.792969 13.0625 L 51.792969 19.402344 L 51.753906 19.402344 C 51.488281 18.929688 51.140625 18.539062 50.707031 18.230469 C 50.277344 17.921875 49.722656 17.78125 49.046875 17.78125 C 47.941406 17.78125 47.058594 18.230469 46.402344 19.15625 C 45.746094 20.078125 45.417969 21.410156 45.417969 23.195312 C 45.417969 24.015625 45.5 24.753906 45.664062 25.410156 C 45.808594 26.089844 46.054688 26.640625 46.359375 27.113281 C 46.667969 27.585938 47.058594 27.957031 47.511719 28.199219 C 47.960938 28.46875 48.492188 28.589844 49.089844 28.589844 C 49.476562 28.589844 49.828125 28.546875 50.132812 28.425781 C 50.421875 28.324219 50.6875 28.199219 50.914062 28.035156 C 51.140625 27.871094 51.324219 27.6875 51.46875 27.484375 C 51.609375 27.277344 51.753906 27.074219 51.855469 26.847656 L 51.917969 26.847656 C 51.917969 26.949219 51.917969 27.074219 51.9375 27.238281 C 51.9375 27.402344 51.9375 27.566406 51.960938 27.730469 C 51.960938 27.894531 51.960938 28.035156 51.980469 28.179688 C 51.980469 28.324219 51.980469 28.40625 51.980469 28.445312 "/>
<path style=" stroke:none;fill-rule:nonzero;fill:rgb(100%,100%,100%);fill-opacity:1;" d="M 59.109375 23.789062 L 65.113281 23.789062 L 65.113281 23.074219 C 65.113281 22.148438 65.015625 21.371094 64.828125 20.695312 C 64.644531 20.015625 64.378906 19.460938 64.03125 19.03125 C 63.679688 18.601562 63.25 18.292969 62.777344 18.085938 C 62.285156 17.882812 61.753906 17.78125 61.179688 17.78125 C 60.523438 17.78125 59.929688 17.902344 59.417969 18.167969 C 58.882812 18.4375 58.429688 18.828125 58.082031 19.296875 C 57.734375 19.789062 57.449219 20.363281 57.261719 21.042969 C 57.078125 21.71875 56.976562 22.457031 56.976562 23.257812 C 56.976562 24.015625 57.078125 24.734375 57.261719 25.390625 C 57.449219 26.046875 57.714844 26.601562 58.105469 27.074219 C 58.472656 27.542969 58.945312 27.914062 59.519531 28.179688 C 60.09375 28.46875 60.769531 28.589844 61.527344 28.589844 C 62.183594 28.589844 62.777344 28.527344 63.292969 28.386719 C 63.804688 28.242188 64.214844 28.097656 64.5625 27.957031 L 64.460938 26.171875 C 64.195312 26.355469 63.84375 26.539062 63.433594 26.722656 C 63.003906 26.910156 62.492188 27.011719 61.875 27.011719 C 60.894531 27.011719 60.195312 26.742188 59.765625 26.191406 C 59.335938 25.65625 59.109375 24.855469 59.109375 23.789062 "/>
<path style=" stroke:none;fill-rule:nonzero;fill:rgb(100%,100%,100%);fill-opacity:1;" d="M 68.238281 28.445312 L 70.371094 28.445312 L 70.371094 22.785156 C 70.371094 22.253906 70.429688 21.800781 70.554688 21.410156 C 70.675781 21.023438 70.84375 20.714844 71.046875 20.46875 C 71.253906 20.242188 71.496094 20.054688 71.765625 19.933594 C 72.03125 19.832031 72.296875 19.769531 72.605469 19.769531 C 72.726562 19.769531 72.851562 19.769531 72.953125 19.789062 C 73.054688 19.8125 73.175781 19.832031 73.28125 19.851562 L 73.28125 17.800781 C 73.238281 17.800781 73.199219 17.800781 73.175781 17.78125 C 73.15625 17.78125 73.117188 17.78125 73.078125 17.78125 C 72.6875 17.78125 72.339844 17.820312 72.03125 17.921875 C 71.722656 18.027344 71.476562 18.167969 71.253906 18.355469 C 71.027344 18.539062 70.820312 18.742188 70.65625 18.96875 C 70.492188 19.195312 70.347656 19.441406 70.246094 19.707031 L 70.207031 19.707031 C 70.207031 19.625 70.207031 19.503906 70.207031 19.339844 C 70.183594 19.175781 70.183594 18.992188 70.164062 18.804688 C 70.144531 18.621094 70.144531 18.457031 70.144531 18.292969 C 70.125 18.128906 70.125 18.003906 70.125 17.921875 L 68.15625 17.921875 C 68.175781 18.230469 68.195312 18.558594 68.21875 18.886719 C 68.238281 19.238281 68.238281 19.585938 68.238281 19.933594 L 68.238281 28.445312 "/>
<path style=" stroke:none;fill-rule:nonzero;fill:rgb(100%,100%,100%);fill-opacity:1;" d="M 75.796875 28.445312 L 77.804688 28.445312 C 77.804688 28.40625 77.804688 28.324219 77.828125 28.179688 C 77.847656 28.035156 77.847656 27.894531 77.867188 27.710938 C 77.867188 27.542969 77.867188 27.382812 77.890625 27.214844 C 77.890625 27.050781 77.890625 26.929688 77.890625 26.847656 L 77.929688 26.847656 C 78.03125 27.074219 78.175781 27.277344 78.339844 27.484375 C 78.484375 27.6875 78.667969 27.871094 78.894531 28.035156 C 79.117188 28.199219 79.363281 28.324219 79.671875 28.425781 C 79.980469 28.546875 80.328125 28.589844 80.71875 28.589844 C 81.3125 28.589844 81.84375 28.46875 82.296875 28.199219 C 82.746094 27.957031 83.136719 27.585938 83.445312 27.113281 C 83.753906 26.640625 83.976562 26.089844 84.140625 25.410156 C 84.285156 24.753906 84.367188 24.015625 84.367188 23.195312 C 84.367188 21.410156 84.039062 20.078125 83.382812 19.15625 C 82.726562 18.230469 81.84375 17.78125 80.738281 17.78125 C 80.0625 17.78125 79.507812 17.921875 79.097656 18.230469 C 78.667969 18.539062 78.320312 18.929688 78.050781 19.402344 L 78.011719 19.402344 L 78.011719 13.0625 L 75.878906 13.0625 L 75.878906 26.582031 C 75.878906 26.929688 75.878906 27.277344 75.859375 27.585938 C 75.839844 27.894531 75.820312 28.179688 75.796875 28.445312 "/>
<path style=" stroke:none;fill-rule:nonzero;fill:rgb(100%,100%,100%);fill-opacity:1;" d="M 87.332031 28.445312 L 89.460938 28.445312 L 89.460938 17.921875 L 87.332031 17.921875 L 87.332031 28.445312 "/>
<path style=" stroke:none;fill-rule:nonzero;fill:rgb(100%,100%,100%);fill-opacity:1;" d="M 87.269531 15.8125 L 89.523438 15.8125 L 89.523438 13.535156 L 87.269531 13.535156 L 87.269531 15.8125 "/>
<path style=" stroke:none;fill-rule:nonzero;fill:rgb(100%,100%,100%);fill-opacity:1;" d="M 95.171875 26.96875 L 95.210938 26.96875 C 95.476562 27.441406 95.828125 27.832031 96.257812 28.140625 C 96.667969 28.445312 97.222656 28.589844 97.898438 28.589844 C 99.003906 28.589844 99.886719 28.140625 100.542969 27.214844 C 101.199219 26.292969 101.527344 24.960938 101.527344 23.175781 C 101.527344 22.355469 101.445312 21.617188 101.300781 20.9375 C 101.136719 20.28125 100.910156 19.707031 100.605469 19.238281 C 100.296875 18.765625 99.90625 18.414062 99.457031 18.148438 C 98.984375 17.902344 98.472656 17.78125 97.878906 17.78125 C 97.488281 17.78125 97.140625 17.820312 96.832031 17.921875 C 96.523438 18.027344 96.277344 18.167969 96.050781 18.332031 C 95.828125 18.496094 95.644531 18.683594 95.5 18.886719 C 95.335938 19.09375 95.191406 19.296875 95.089844 19.523438 L 95.046875 19.523438 C 95.046875 19.421875 95.046875 19.296875 95.046875 19.132812 C 95.027344 18.96875 95.027344 18.804688 95.027344 18.640625 C 95.007812 18.476562 95.007812 18.332031 94.984375 18.191406 C 94.964844 18.046875 94.964844 17.964844 94.964844 17.921875 L 92.957031 17.921875 C 92.976562 18.191406 92.996094 18.476562 93.019531 18.785156 C 93.039062 19.09375 93.039062 19.441406 93.039062 19.789062 L 93.039062 32.878906 L 95.171875 32.878906 L 95.171875 26.96875 "/>
<path style=" stroke:none;fill-rule:nonzero;fill:rgb(100%,100%,100%);fill-opacity:1;" d="M 106.804688 26.96875 L 106.847656 26.96875 C 107.113281 27.441406 107.460938 27.832031 107.894531 28.140625 C 108.304688 28.445312 108.855469 28.589844 109.53125 28.589844 C 110.640625 28.589844 111.523438 28.140625 112.179688 27.214844 C 112.835938 26.292969 113.160156 24.960938 113.160156 23.175781 C 113.160156 22.355469 113.078125 21.617188 112.9375 20.9375 C 112.773438 20.28125 112.546875 19.707031 112.238281 19.238281 C 111.933594 18.765625 111.542969 18.414062 111.089844 18.148438 C 110.617188 17.902344 110.105469 17.78125 109.511719 17.78125 C 109.121094 17.78125 108.773438 17.820312 108.46875 17.921875 C 108.160156 18.027344 107.914062 18.167969 107.6875 18.332031 C 107.460938 18.496094 107.277344 18.683594 107.132812 18.886719 C 106.972656 19.09375 106.828125 19.296875 106.722656 19.523438 L 106.683594 19.523438 C 106.683594 19.421875 106.683594 19.296875 106.683594 19.132812 C 106.660156 18.96875 106.660156 18.804688 106.660156 18.640625 C 106.640625 18.476562 106.640625 18.332031 106.621094 18.191406 C 106.601562 18.046875 106.601562 17.964844 106.601562 17.921875 L 104.59375 17.921875 C 104.613281 18.191406 104.632812 18.476562 104.652344 18.785156 C 104.675781 19.09375 104.675781 19.441406 104.675781 19.789062 L 104.675781 32.878906 L 106.804688 32.878906 L 106.804688 26.96875 "/>
<path style=" stroke:none;fill-rule:nonzero;fill:rgb(100%,100%,100%);fill-opacity:1;" d="M 16.003906 52.9375 L 22.910156 52.9375 L 22.910156 51.113281 L 18.21875 51.113281 L 18.21875 38.621094 L 16.003906 38.621094 L 16.003906 52.9375 "/>
<path style=" stroke:none;fill-rule:nonzero;fill:rgb(100%,100%,100%);fill-opacity:1;" d="M 30.570312 52.9375 L 32.496094 52.9375 C 32.476562 52.753906 32.4375 52.488281 32.414062 52.179688 C 32.394531 51.871094 32.375 51.542969 32.375 51.195312 L 32.375 46.167969 C 32.375 45.472656 32.3125 44.898438 32.167969 44.445312 C 32.027344 43.996094 31.800781 43.625 31.535156 43.316406 C 31.308594 43.050781 30.9375 42.804688 30.449219 42.578125 C 29.957031 42.375 29.320312 42.273438 28.519531 42.273438 C 27.84375 42.273438 27.25 42.351562 26.734375 42.515625 C 26.222656 42.679688 25.753906 42.867188 25.363281 43.089844 L 25.527344 44.917969 C 25.792969 44.652344 26.183594 44.40625 26.695312 44.179688 C 27.1875 43.972656 27.71875 43.871094 28.316406 43.871094 C 29.074219 43.871094 29.605469 44.078125 29.933594 44.484375 C 30.097656 44.691406 30.222656 44.917969 30.28125 45.164062 C 30.34375 45.429688 30.363281 45.71875 30.363281 46.046875 L 30.363281 46.476562 L 29.605469 46.476562 C 27.90625 46.476562 26.59375 46.765625 25.710938 47.316406 C 24.828125 47.890625 24.378906 48.792969 24.378906 50.027344 C 24.378906 50.519531 24.460938 50.949219 24.625 51.339844 C 24.789062 51.726562 25.015625 52.035156 25.300781 52.300781 C 25.570312 52.570312 25.894531 52.753906 26.265625 52.875 C 26.632812 53.019531 27.023438 53.082031 27.453125 53.082031 C 28.234375 53.082031 28.847656 52.917969 29.320312 52.589844 C 29.769531 52.28125 30.140625 51.914062 30.40625 51.503906 L 30.449219 51.503906 C 30.449219 51.5625 30.449219 51.667969 30.46875 51.808594 C 30.46875 51.953125 30.46875 52.097656 30.488281 52.242188 C 30.507812 52.382812 30.507812 52.527344 30.527344 52.652344 C 30.550781 52.792969 30.550781 52.875 30.570312 52.9375 "/>
<path style=" stroke:none;fill-rule:nonzero;fill:rgb(100%,100%,100%);fill-opacity:1;" d="M 35.914062 52.9375 L 38.046875 52.9375 L 38.046875 46.703125 C 38.046875 45.882812 38.210938 45.226562 38.558594 44.753906 C 38.886719 44.28125 39.378906 44.054688 40.054688 44.054688 C 40.609375 44.054688 41 44.242188 41.265625 44.609375 C 41.511719 44.980469 41.636719 45.574219 41.636719 46.394531 L 41.636719 52.9375 L 43.765625 52.9375 L 43.765625 45.902344 C 43.765625 44.792969 43.519531 43.910156 43.03125 43.257812 C 42.535156 42.597656 41.757812 42.273438 40.691406 42.273438 C 40.078125 42.273438 39.542969 42.414062 39.070312 42.722656 C 38.601562 43.03125 38.230469 43.460938 37.964844 44.015625 L 37.921875 44.015625 C 37.921875 43.953125 37.921875 43.832031 37.921875 43.6875 C 37.902344 43.542969 37.902344 43.378906 37.882812 43.214844 C 37.863281 43.050781 37.863281 42.886719 37.863281 42.742188 C 37.84375 42.597656 37.84375 42.476562 37.84375 42.414062 L 35.832031 42.414062 C 35.851562 42.722656 35.875 43.050781 35.894531 43.378906 C 35.914062 43.726562 35.914062 44.078125 35.914062 44.425781 L 35.914062 52.9375 "/>
<path style=" stroke:none;fill-rule:nonzero;fill:rgb(100%,100%,100%);fill-opacity:1;" d="M 47.273438 54.84375 L 47.152344 56.835938 C 47.5 56.976562 47.992188 57.121094 48.605469 57.265625 C 49.222656 57.410156 49.859375 57.492188 50.492188 57.492188 C 52.050781 57.492188 53.21875 57.058594 54 56.21875 C 54.777344 55.378906 55.167969 54.167969 55.167969 52.609375 L 55.167969 44.199219 C 55.167969 43.890625 55.1875 43.605469 55.210938 43.296875 C 55.230469 42.988281 55.230469 42.703125 55.25 42.414062 L 53.28125 42.414062 C 53.28125 42.476562 53.28125 42.597656 53.28125 42.742188 C 53.261719 42.886719 53.261719 43.050781 53.242188 43.214844 C 53.21875 43.378906 53.21875 43.523438 53.21875 43.667969 C 53.199219 43.808594 53.199219 43.933594 53.199219 43.996094 L 53.136719 43.996094 C 52.871094 43.523438 52.523438 43.113281 52.09375 42.761719 C 51.660156 42.433594 51.128906 42.273438 50.472656 42.273438 C 49.835938 42.273438 49.261719 42.394531 48.792969 42.660156 C 48.320312 42.925781 47.910156 43.277344 47.601562 43.746094 C 47.296875 44.21875 47.050781 44.792969 46.90625 45.453125 C 46.742188 46.128906 46.660156 46.867188 46.660156 47.6875 C 46.660156 48.671875 46.761719 49.492188 46.988281 50.167969 C 47.191406 50.84375 47.457031 51.398438 47.808594 51.808594 C 48.15625 52.242188 48.546875 52.527344 48.976562 52.714844 C 49.40625 52.898438 49.859375 53 50.308594 53 C 51.027344 53 51.601562 52.835938 52.03125 52.488281 C 52.460938 52.160156 52.808594 51.746094 53.078125 51.234375 L 53.117188 51.234375 L 53.117188 52.546875 C 53.117188 52.976562 53.078125 53.410156 52.996094 53.796875 C 52.890625 54.191406 52.75 54.519531 52.542969 54.804688 C 52.320312 55.09375 52.03125 55.316406 51.660156 55.503906 C 51.292969 55.664062 50.820312 55.746094 50.269531 55.746094 C 49.695312 55.746094 49.140625 55.644531 48.585938 55.460938 C 48.03125 55.253906 47.601562 55.050781 47.273438 54.84375 "/>
<path style=" stroke:none;fill-rule:nonzero;fill:rgb(100%,100%,100%);fill-opacity:1;" d="M 60.25 48.28125 L 66.257812 48.28125 L 66.257812 47.5625 C 66.257812 46.640625 66.15625 45.859375 65.96875 45.183594 C 65.785156 44.507812 65.519531 43.953125 65.171875 43.523438 C 64.824219 43.089844 64.390625 42.785156 63.921875 42.578125 C 63.429688 42.375 62.894531 42.273438 62.320312 42.273438 C 61.664062 42.273438 61.070312 42.394531 60.558594 42.660156 C 60.023438 42.925781 59.574219 43.316406 59.226562 43.789062 C 58.875 44.28125 58.589844 44.855469 58.40625 45.53125 C 58.21875 46.210938 58.117188 46.949219 58.117188 47.75 C 58.117188 48.507812 58.21875 49.226562 58.40625 49.882812 C 58.589844 50.539062 58.855469 51.09375 59.246094 51.5625 C 59.613281 52.035156 60.085938 52.40625 60.660156 52.671875 C 61.234375 52.957031 61.910156 53.082031 62.667969 53.082031 C 63.328125 53.082031 63.921875 53.019531 64.433594 52.875 C 64.945312 52.734375 65.355469 52.589844 65.703125 52.445312 L 65.601562 50.660156 C 65.335938 50.84375 64.988281 51.03125 64.578125 51.214844 C 64.144531 51.398438 63.632812 51.503906 63.019531 51.503906 C 62.035156 51.503906 61.335938 51.234375 60.90625 50.683594 C 60.476562 50.148438 60.25 49.347656 60.25 48.28125 "/>
<path style=" stroke:none;fill-rule:nonzero;fill:rgb(100%,100%,100%);fill-opacity:1;" d="M 69.378906 52.9375 L 71.511719 52.9375 L 71.511719 46.703125 C 71.511719 45.882812 71.675781 45.226562 72.023438 44.753906 C 72.351562 44.28125 72.84375 44.054688 73.523438 44.054688 C 74.074219 44.054688 74.464844 44.242188 74.730469 44.609375 C 74.976562 44.980469 75.097656 45.574219 75.097656 46.394531 L 75.097656 52.9375 L 77.230469 52.9375 L 77.230469 45.902344 C 77.230469 44.792969 76.984375 43.910156 76.492188 43.257812 C 76 42.597656 75.222656 42.273438 74.15625 42.273438 C 73.539062 42.273438 73.007812 42.414062 72.535156 42.722656 C 72.066406 43.03125 71.695312 43.460938 71.429688 44.015625 L 71.390625 44.015625 C 71.390625 43.953125 71.390625 43.832031 71.390625 43.6875 C 71.367188 43.542969 71.367188 43.378906 71.347656 43.214844 C 71.328125 43.050781 71.328125 42.886719 71.328125 42.742188 C 71.304688 42.597656 71.304688 42.476562 71.304688 42.414062 L 69.296875 42.414062 C 69.316406 42.722656 69.339844 43.050781 69.359375 43.378906 C 69.378906 43.726562 69.378906 44.078125 69.378906 44.425781 L 69.378906 52.9375 "/>
<path style=" stroke:none;fill-rule:nonzero;fill:rgb(100%,100%,100%);fill-opacity:1;" d="M 85.65625 52.773438 L 85.65625 51.171875 C 85.515625 51.234375 85.371094 51.296875 85.207031 51.339844 C 85.042969 51.398438 84.859375 51.417969 84.632812 51.417969 C 84.242188 51.417969 83.976562 51.296875 83.792969 51.070312 C 83.605469 50.84375 83.527344 50.457031 83.527344 49.882812 L 83.527344 44.054688 L 85.65625 44.054688 L 85.65625 42.414062 L 83.527344 42.414062 L 83.527344 39.625 L 81.394531 40.261719 L 81.394531 42.414062 L 79.710938 42.414062 L 79.710938 44.054688 L 81.394531 44.054688 L 81.394531 50.3125 C 81.394531 51.316406 81.617188 52.035156 82.089844 52.445312 C 82.5625 52.875 83.21875 53.082031 84.078125 53.082031 C 84.386719 53.082031 84.695312 53.0625 84.960938 53 C 85.226562 52.917969 85.472656 52.855469 85.65625 52.773438 "/>
<path style=" stroke:none;fill-rule:nonzero;fill:rgb(100%,100%,100%);fill-opacity:1;" d="M 88.484375 52.9375 L 90.617188 52.9375 L 90.617188 46.703125 C 90.617188 45.882812 90.78125 45.226562 91.128906 44.753906 C 91.457031 44.28125 91.949219 44.054688 92.625 44.054688 C 93.179688 44.054688 93.570312 44.242188 93.835938 44.609375 C 94.082031 44.980469 94.203125 45.574219 94.203125 46.394531 L 94.203125 52.9375 L 96.335938 52.9375 L 96.335938 45.902344 C 96.335938 44.792969 96.089844 43.910156 95.597656 43.257812 C 95.105469 42.597656 94.328125 42.273438 93.261719 42.273438 C 92.566406 42.273438 92.011719 42.433594 91.621094 42.742188 C 91.210938 43.070312 90.882812 43.417969 90.65625 43.808594 L 90.617188 43.808594 L 90.617188 37.550781 L 88.484375 37.550781 L 88.484375 52.9375 "/>
<path style=" stroke:none;fill-rule:nonzero;fill:rgb(100%,100%,100%);fill-opacity:1;" d="M 105.578125 52.9375 L 107.507812 52.9375 C 107.484375 52.753906 107.445312 52.488281 107.421875 52.179688 C 107.402344 51.871094 107.382812 51.542969 107.382812 51.195312 L 107.382812 46.167969 C 107.382812 45.472656 107.320312 44.898438 107.179688 44.445312 C 107.035156 43.996094 106.808594 43.625 106.539062 43.316406 C 106.316406 43.050781 105.945312 42.804688 105.453125 42.578125 C 104.964844 42.375 104.328125 42.273438 103.527344 42.273438 C 102.851562 42.273438 102.257812 42.351562 101.742188 42.515625 C 101.230469 42.679688 100.761719 42.867188 100.371094 43.089844 L 100.535156 44.917969 C 100.800781 44.652344 101.191406 44.40625 101.703125 44.179688 C 102.195312 43.972656 102.730469 43.871094 103.320312 43.871094 C 104.082031 43.871094 104.613281 44.078125 104.941406 44.484375 C 105.105469 44.691406 105.230469 44.917969 105.289062 45.164062 C 105.351562 45.429688 105.371094 45.71875 105.371094 46.046875 L 105.371094 46.476562 L 104.613281 46.476562 C 102.910156 46.476562 101.601562 46.765625 100.71875 47.316406 C 99.839844 47.890625 99.386719 48.792969 99.386719 50.027344 C 99.386719 50.519531 99.46875 50.949219 99.632812 51.339844 C 99.796875 51.726562 100.023438 52.035156 100.308594 52.300781 C 100.574219 52.570312 100.902344 52.753906 101.273438 52.875 C 101.640625 53.019531 102.03125 53.082031 102.460938 53.082031 C 103.238281 53.082031 103.855469 52.917969 104.328125 52.589844 C 104.777344 52.28125 105.148438 51.914062 105.414062 51.503906 L 105.453125 51.503906 C 105.453125 51.5625 105.453125 51.667969 105.476562 51.808594 C 105.476562 51.953125 105.476562 52.097656 105.496094 52.242188 C 105.515625 52.382812 105.515625 52.527344 105.535156 52.652344 C 105.558594 52.792969 105.558594 52.875 105.578125 52.9375 "/>
<path style=" stroke:none;fill-rule:nonzero;fill:rgb(100%,100%,100%);fill-opacity:1;" d="M 110.898438 52.9375 L 113.03125 52.9375 L 113.03125 37.550781 L 110.898438 37.550781 L 110.898438 52.9375 "/>
<path style=" stroke:none;fill-rule:nonzero;fill:rgb(10.112%,40.585327%,73.280334%);fill-opacity:1;" d="M 36.519531 22.335938 C 36.539062 21.371094 36.722656 20.609375 37.070312 20.078125 C 37.421875 19.566406 37.910156 19.296875 38.527344 19.296875 C 39.796875 19.296875 40.433594 20.304688 40.433594 22.335938 L 36.519531 22.335938 "/>
<path style=" stroke:none;fill-rule:nonzero;fill:rgb(10.112%,40.585327%,73.280334%);fill-opacity:1;" d="M 48.023438 26.007812 C 47.714844 25.371094 47.550781 24.40625 47.550781 23.132812 C 47.550781 21.921875 47.714844 21 48.042969 20.363281 C 48.371094 19.726562 48.902344 19.402344 49.660156 19.402344 C 50.421875 19.402344 50.953125 19.726562 51.300781 20.40625 C 51.628906 21.082031 51.792969 22.007812 51.792969 23.175781 C 51.792969 24.34375 51.628906 25.269531 51.300781 25.945312 C 50.953125 26.621094 50.402344 26.96875 49.640625 26.96875 C 48.863281 26.96875 48.328125 26.640625 48.023438 26.007812 "/>
<path style=" stroke:none;fill-rule:nonzero;fill:rgb(10.112%,40.585327%,73.280334%);fill-opacity:1;" d="M 59.109375 22.335938 C 59.128906 21.371094 59.3125 20.609375 59.664062 20.078125 C 60.011719 19.566406 60.503906 19.296875 61.117188 19.296875 C 62.390625 19.296875 63.023438 20.304688 63.023438 22.335938 L 59.109375 22.335938 "/>
<path style=" stroke:none;fill-rule:nonzero;fill:rgb(10.112%,40.585327%,73.280334%);fill-opacity:1;" d="M 78.523438 25.925781 C 78.175781 25.246094 78.011719 24.324219 78.011719 23.175781 C 78.011719 22.007812 78.175781 21.082031 78.523438 20.40625 C 78.871094 19.726562 79.40625 19.402344 80.144531 19.402344 C 80.902344 19.402344 81.433594 19.726562 81.765625 20.363281 C 82.070312 21.023438 82.234375 21.945312 82.234375 23.132812 C 82.234375 24.425781 82.089844 25.371094 81.785156 26.007812 C 81.476562 26.640625 80.921875 26.96875 80.164062 26.96875 C 79.40625 26.96875 78.851562 26.621094 78.523438 25.925781 "/>
<path style=" stroke:none;fill-rule:nonzero;fill:rgb(10.112%,40.585327%,73.280334%);fill-opacity:1;" d="M 95.683594 25.964844 C 95.335938 25.289062 95.171875 24.363281 95.171875 23.195312 C 95.171875 22.027344 95.335938 21.101562 95.683594 20.425781 C 96.011719 19.75 96.566406 19.402344 97.324219 19.402344 C 98.101562 19.402344 98.636719 19.726562 98.945312 20.363281 C 99.25 21 99.394531 21.964844 99.394531 23.234375 C 99.394531 24.445312 99.230469 25.371094 98.921875 26.007812 C 98.59375 26.640625 98.0625 26.96875 97.304688 26.96875 C 96.542969 26.96875 96.011719 26.640625 95.683594 25.964844 "/>
<path style=" stroke:none;fill-rule:nonzero;fill:rgb(10.112%,40.585327%,73.280334%);fill-opacity:1;" d="M 107.316406 25.964844 C 106.972656 25.289062 106.804688 24.363281 106.804688 23.195312 C 106.804688 22.027344 106.972656 21.101562 107.316406 20.425781 C 107.644531 19.75 108.199219 19.402344 108.957031 19.402344 C 109.738281 19.402344 110.269531 19.726562 110.578125 20.363281 C 110.886719 21 111.027344 21.964844 111.027344 23.234375 C 111.027344 24.445312 110.867188 25.371094 110.558594 26.007812 C 110.230469 26.640625 109.695312 26.96875 108.9375 26.96875 C 108.179688 26.96875 107.644531 26.640625 107.316406 25.964844 "/>
<path style=" stroke:none;fill-rule:nonzero;fill:rgb(10.112%,40.585327%,73.280334%);fill-opacity:1;" d="M 30.363281 47.789062 L 30.363281 48.734375 C 30.363281 49.574219 30.179688 50.25 29.8125 50.765625 C 29.421875 51.296875 28.867188 51.5625 28.109375 51.5625 C 27.554688 51.5625 27.148438 51.398438 26.859375 51.09375 C 26.570312 50.785156 26.429688 50.355469 26.429688 49.839844 C 26.429688 49.144531 26.695312 48.632812 27.25 48.28125 C 27.800781 47.933594 28.601562 47.769531 29.648438 47.769531 C 29.769531 47.769531 29.894531 47.769531 30.039062 47.769531 C 30.179688 47.769531 30.304688 47.769531 30.363281 47.789062 "/>
<path style=" stroke:none;fill-rule:nonzero;fill:rgb(10.112%,40.585327%,73.280334%);fill-opacity:1;" d="M 49.367188 50.457031 C 49.019531 49.859375 48.832031 48.917969 48.832031 47.625 C 48.832031 46.414062 48.996094 45.511719 49.324219 44.875 C 49.632812 44.261719 50.164062 43.953125 50.902344 43.933594 C 51.601562 43.933594 52.132812 44.242188 52.523438 44.855469 C 52.890625 45.472656 53.078125 46.394531 53.078125 47.605469 C 53.078125 48.878906 52.890625 49.820312 52.542969 50.433594 C 52.195312 51.070312 51.621094 51.378906 50.820312 51.378906 C 50.207031 51.378906 49.714844 51.070312 49.367188 50.457031 "/>
<path style=" stroke:none;fill-rule:nonzero;fill:rgb(10.112%,40.585327%,73.280334%);fill-opacity:1;" d="M 60.25 46.824219 C 60.269531 45.859375 60.457031 45.101562 60.804688 44.570312 C 61.152344 44.054688 61.644531 43.789062 62.261719 43.789062 C 63.53125 43.789062 64.164062 44.792969 64.164062 46.824219 L 60.25 46.824219 "/>
<path style=" stroke:none;fill-rule:nonzero;fill:rgb(10.112%,40.585327%,73.280334%);fill-opacity:1;" d="M 105.371094 47.789062 L 105.371094 48.734375 C 105.371094 49.574219 105.1875 50.25 104.820312 50.765625 C 104.429688 51.296875 103.878906 51.5625 103.117188 51.5625 C 102.5625 51.5625 102.152344 51.398438 101.867188 51.09375 C 101.578125 50.785156 101.4375 50.355469 101.4375 49.839844 C 101.4375 49.144531 101.703125 48.632812 102.257812 48.28125 C 102.8125 47.933594 103.609375 47.769531 104.65625 47.769531 C 104.777344 47.769531 104.902344 47.769531 105.046875 47.769531 C 105.1875 47.769531 105.3125 47.769531 105.371094 47.789062 "/>
</g>
</svg>
