<svg width="69" height="44" xmlns="http://www.w3.org/2000/svg">
 <!-- Created with Method Draw - http://github.com/duopixel/Method-Draw/ -->

 <g>
  <title>background</title>
  <rect fill="#fff" id="canvas_background" height="46" width="71" y="-1" x="-1"/>
  <g display="none" overflow="visible" y="0" x="0" height="100%" width="100%" id="canvasGrid">
   <rect fill="url(#gridpattern)" stroke-width="0" y="0" x="0" height="100%" width="100%"/>
  </g>
 </g>
 <g>
  <title>Layer 1</title>
  <metadata id="svg_39">image/svg+xml</metadata>

  <metadata id="svg_77">image/svg+xml</metadata>

  <g id="svg_79">
   <path fill="#ffffff" fill-rule="nonzero" id="svg_76" d="m0.75129,43.00971l67.49646,0l0,-42.46611l-67.49646,0l0,42.46611zm0,0"/>
   <path fill="none" stroke="#211e1e" stroke-width="0.2835" stroke-linejoin="round" stroke-miterlimit="4" id="svg_75" d="m0.75129,43.00971l67.49646,0l0,-42.46611l-67.49646,0l0,42.46611"/>
   <path fill="#211e1e" fill-rule="nonzero" id="svg_74" d="m2.08835,38.22277c0,1.87654 1.50758,3.39807 3.3756,3.39807l58.044,0c1.86414,0 3.3756,-1.52153 3.3756,-3.39807l0,-32.95464c0,-1.87654 -1.51146,-3.39807 -3.3756,-3.39807l-58.044,0c-1.86802,0 -3.3756,1.52153 -3.3756,3.39807l0,32.95464"/>
   <path fill="#ffffff" fill-rule="nonzero" id="svg_73" d="m5.44844,2.90002c-1.30218,0 -2.36021,1.06506 -2.36021,2.37982l0,32.95463c0,1.31085 1.05803,2.37592 2.36021,2.37592l58.04788,0c1.30606,0 2.36409,-1.06507 2.36409,-2.37592l0,-32.95463c0,-1.31476 -1.05803,-2.37982 -2.36409,-2.37982l-58.04788,0"/>
   <path fill="#211e1e" fill-rule="nonzero" id="svg_72" d="m18.43151,18.50928l1.46108,0l0,-3.85843l0.87974,0c0.98827,0 1.74787,-0.24578 2.26332,-0.74906c0.49995,-0.49156 0.75573,-1.19771 0.75573,-2.11062c0,-0.91291 -0.25578,-1.60735 -0.77123,-2.08721c-0.51545,-0.47596 -1.21692,-0.70614 -2.09667,-0.70614l-2.49198,0l0,9.51146"/>
   <path fill="#211e1e" fill-rule="nonzero" id="svg_71" d="m25.33773,17.76023c0.25578,0.2848 0.56971,0.50328 0.934,0.63983c0.35268,0.13655 0.73248,0.20286 1.13553,0.20286c0.40694,0 0.78674,-0.06633 1.15104,-0.20286c0.35268,-0.13655 0.66272,-0.35502 0.92238,-0.63983c0.25578,-0.2887 0.47281,-0.65543 0.62396,-1.10407c0.14727,-0.45256 0.22866,-1.01045 0.22866,-1.65027c0,-0.62811 -0.08139,-1.1704 -0.22866,-1.62296c-0.15114,-0.44866 -0.36817,-0.83098 -0.62396,-1.11579c-0.25966,-0.28479 -0.56971,-0.50327 -0.92238,-0.63982c-0.3643,-0.13655 -0.7441,-0.20677 -1.15104,-0.20677c-0.40306,0 -0.78286,0.07022 -1.13553,0.20677c-0.3643,0.13655 -0.67822,0.35502 -0.934,0.63982c-0.25579,0.2848 -0.47282,0.66713 -0.62397,1.11579c-0.14727,0.45256 -0.22866,0.99484 -0.22866,1.62296c0,0.63983 0.08139,1.19771 0.22866,1.65027c0.15114,0.44865 0.36817,0.81537 0.62397,1.10407"/>
   <path fill="#211e1e" fill-rule="nonzero" id="svg_70" d="m32.27495,18.50928l1.40682,0l0,-10.22151l-1.40682,0l0,10.22151"/>
   <path fill="#211e1e" fill-rule="nonzero" id="svg_69" d="m36.02647,18.50928l1.4107,0l0,-6.99121l-1.4107,0l0,6.99121"/>
   <path fill="#211e1e" fill-rule="nonzero" id="svg_68" d="m35.98772,10.1136l1.48821,0l0,-1.51372l-1.48821,0l0,1.51372"/>
   <path fill="#211e1e" fill-rule="nonzero" id="svg_67" d="m44.0876,18.31812l-0.08139,-1.19771c-0.15114,0.09363 -0.35267,0.17556 -0.58132,0.24578c-0.23254,0.06633 -0.47669,0.10534 -0.70535,0.10534c-0.60846,0 -1.06965,-0.21457 -1.3952,-0.65152c-0.33717,-0.43695 -0.49995,-1.02215 -0.49995,-1.75951c0,-0.8583 0.16278,-1.48641 0.48832,-1.89215c0.32555,-0.40964 0.78286,-0.61641 1.3797,-0.61641c0.25578,0 0.48831,0.02731 0.68984,0.09754c0.20152,0.06633 0.3798,0.13655 0.5542,0.23018l0.06976,-1.18601c-0.17828,-0.06633 -0.3798,-0.13655 -0.63558,-0.18726c-0.25966,-0.05462 -0.51545,-0.08583 -0.77511,-0.08583c-0.52707,0 -0.9999,0.08583 -1.40682,0.26139c-0.40694,0.17556 -0.7441,0.43695 -1.01539,0.74906c-0.27129,0.32771 -0.47281,0.71004 -0.60846,1.15869c-0.13565,0.44866 -0.20153,0.92462 -0.20153,1.4591c0,0.48767 0.06589,0.95193 0.18991,1.38888c0.12014,0.43695 0.32167,0.81928 0.58133,1.13139c0.25578,0.31211 0.58133,0.5735 0.98826,0.74906c0.39143,0.19116 0.86812,0.28479 1.40682,0.28479c0.29842,0 0.58133,-0.02731 0.86812,-0.08193c0.28292,-0.06633 0.51158,-0.13654 0.68984,-0.20286"/>
   <path fill="#211e1e" fill-rule="nonzero" id="svg_66" d="m46.60283,15.41553l3.96856,0l0,-0.47596c0,-0.61252 -0.06976,-1.1314 -0.18991,-1.58395c-0.12402,-0.44866 -0.29842,-0.81538 -0.52707,-1.10408c-0.23253,-0.2848 -0.51545,-0.48767 -0.82936,-0.62421c-0.32167,-0.13655 -0.67435,-0.20677 -1.05415,-0.20677c-0.43406,0 -0.82549,0.08583 -1.16654,0.26139c-0.34881,0.17556 -0.64722,0.43695 -0.87588,0.74906c-0.23253,0.32771 -0.42243,0.71004 -0.54257,1.15869c-0.12402,0.44866 -0.18991,0.94023 -0.18991,1.47081c0,0.50328 0.06589,0.98313 0.18991,1.41619c0.12014,0.43695 0.29842,0.80368 0.5542,1.11968c0.24417,0.31211 0.55421,0.5579 0.93401,0.73346c0.3798,0.19116 0.82549,0.27309 1.32544,0.27309c0.43406,0 0.82549,-0.03901 1.16654,-0.13654c0.33717,-0.09363 0.60846,-0.19117 0.83712,-0.2848l-0.06589,-1.18601c-0.17828,0.12484 -0.40694,0.24578 -0.67823,0.37062c-0.28291,0.12095 -0.62396,0.18726 -1.02701,0.18726c-0.65109,0 -1.11229,-0.17556 -1.3952,-0.54229c-0.28292,-0.35501 -0.43406,-0.8856 -0.43406,-1.59564"/>
   <path fill="#211e1e" fill-rule="nonzero" id="svg_65" d="m43.02184,34.8208l1.23242,0l0,-3.74529c0,-0.45256 0.09301,-0.79978 0.27129,-1.04947c0.17828,-0.24969 0.44957,-0.37062 0.79449,-0.37062c0.56583,0 0.85262,0.38233 0.85262,1.13529l0,4.03009l1.23242,0l0,-3.74529c0,-0.45256 0.09301,-0.79978 0.27129,-1.04947c0.17828,-0.24969 0.44957,-0.37062 0.79449,-0.37062c0.56584,0 0.85262,0.38233 0.85262,1.13529l0,4.03009l1.23243,0l0,-4.00668c0,-0.71785 -0.1434,-1.26404 -0.42631,-1.63466c-0.29842,-0.37063 -0.73636,-0.56179 -1.32932,-0.56179c-0.39143,0 -0.70922,0.09754 -0.95726,0.2887c-0.24803,0.20287 -0.43794,0.42915 -0.59296,0.67884c-0.05813,-0.12095 -0.13177,-0.23798 -0.21315,-0.35893c-0.08139,-0.10534 -0.18991,-0.21457 -0.31004,-0.3082c-0.11627,-0.08583 -0.25966,-0.15605 -0.41468,-0.21457c-0.15114,-0.06242 -0.34105,-0.08584 -0.54257,-0.08584c-0.37981,0 -0.68985,0.09755 -0.93789,0.28871c-0.24803,0.20286 -0.44956,0.44085 -0.57745,0.73735l-0.02713,0c0,-0.03512 0,-0.10534 0,-0.20287c-0.01163,-0.08193 -0.01163,-0.17945 -0.01163,-0.27309c-0.01163,-0.09363 -0.01163,-0.19117 -0.01163,-0.2731c-0.01163,-0.08583 -0.01163,-0.15605 -0.01163,-0.19117l-1.21692,0c0.01163,0.16776 0.02326,0.34332 0.03488,0.53449c0.01163,0.19117 0.01163,0.39403 0.01163,0.62031l0,4.96251"/>
   <path fill="#ffffff" fill-rule="nonzero" id="svg_64" d="m19.8926,13.49606l0,-3.34344l0.66271,0c0.58133,0 1.01539,0.13655 1.31381,0.39793c0.2868,0.2731 0.43406,0.71005 0.43406,1.29525c0,0.53058 -0.13565,0.92462 -0.40693,1.21331c-0.27129,0.2848 -0.71698,0.43695 -1.35256,0.43695l-0.65109,0"/>
   <path fill="#ffffff" fill-rule="nonzero" id="svg_63" d="m26.27173,16.82001c-0.12402,-0.23409 -0.20152,-0.49157 -0.24416,-0.80368c-0.05426,-0.31601 -0.08139,-0.63982 -0.08139,-1.01045c0,-0.36673 0.02713,-0.69444 0.08139,-1.00654c0.04263,-0.31601 0.12014,-0.5735 0.24416,-0.80368c0.12015,-0.21848 0.27129,-0.39794 0.4612,-0.51888c0.1744,-0.12484 0.40306,-0.19117 0.67434,-0.19117c0.27129,0 0.50383,0.06633 0.68985,0.19117c0.17827,0.12094 0.32942,0.3004 0.44956,0.51888c0.12015,0.23018 0.20153,0.48767 0.25578,0.80368c0.04263,0.31211 0.06976,0.63982 0.06976,1.00654c0,0.37063 -0.02713,0.69444 -0.06976,1.01045c-0.05426,0.31211 -0.13564,0.56959 -0.25578,0.80368c-0.12014,0.23018 -0.27129,0.40574 -0.44956,0.53058c-0.18603,0.12094 -0.41856,0.19116 -0.68985,0.19116c-0.27128,0 -0.49994,-0.07022 -0.67434,-0.19116c-0.18991,-0.12484 -0.34105,-0.3004 -0.4612,-0.53058"/>
   <path fill="#ffffff" fill-rule="nonzero" id="svg_62" d="m46.60283,14.44799c0.01551,-0.63983 0.13565,-1.14309 0.36817,-1.49812c0.22866,-0.34332 0.55421,-0.51888 0.95727,-0.51888c0.84099,0 1.25955,0.66713 1.25955,2.01699l-2.58499,0"/>
  </g>
  <text xml:space="preserve" text-anchor="start" font-family="sans-serif" font-size="10" id="svg_80" y="35.25842" x="16" stroke-width="0" stroke="#000" fill="#000000">param(text1)</text>
 </g>
</svg>