<?xml version="1.0" encoding="UTF-8"?>
<svg xmlns="http://www.w3.org/2000/svg" xmlns:xlink="http://www.w3.org/1999/xlink" width="129pt" height="44pt" viewBox="0 0 129 44" version="1.1">
<g id="surface1">
<path style=" stroke:none;fill-rule:nonzero;fill:rgb(100%,100%,100%);fill-opacity:1;" d="M 0.738281 43.433594 L 128.300781 43.433594 L 128.300781 0.914062 L 0.738281 0.914062 Z M 0.738281 43.433594 "/>
<path style="fill:none;stroke-width:2.835;stroke-linecap:butt;stroke-linejoin:miter;stroke:rgb(13.729858%,12.159729%,12.548828%);stroke-opacity:1;stroke-miterlimit:4;" d="M 7.382812 5.664062 L 1283.007812 5.664062 L 1283.007812 430.859375 L 7.382812 430.859375 L 7.382812 5.664062 " transform="matrix(0.1,0,0,-0.1,0,44)"/>
<path style=" stroke:none;fill-rule:nonzero;fill:rgb(13.729858%,12.159729%,12.548828%);fill-opacity:1;" d="M 119.0625 39.144531 L 117.464844 15.035156 L 122.046875 16.25 C 122.230469 16.296875 122.410156 16.226562 122.527344 16.0625 C 122.65625 15.878906 122.667969 15.609375 122.550781 15.398438 L 116.054688 4.109375 C 115.933594 3.886719 115.714844 3.746094 115.5 3.746094 C 115.261719 3.746094 115.039062 3.886719 114.910156 4.121094 L 108.539062 15.503906 C 108.425781 15.691406 108.4375 15.945312 108.558594 16.132812 C 108.667969 16.320312 108.859375 16.402344 109.050781 16.34375 L 113.679688 15.117188 L 112.386719 39.179688 L 119.0625 39.144531 "/>
<path style=" stroke:none;fill-rule:nonzero;fill:rgb(13.729858%,12.159729%,12.548828%);fill-opacity:1;" d="M 17.011719 39.144531 L 15.421875 15.039062 L 20 16.253906 C 20.179688 16.300781 20.359375 16.226562 20.480469 16.066406 C 20.613281 15.878906 20.621094 15.613281 20.5 15.398438 L 14.007812 4.113281 C 13.886719 3.890625 13.667969 3.75 13.457031 3.75 C 13.214844 3.75 12.992188 3.890625 12.863281 4.125 L 6.492188 15.503906 C 6.382812 15.691406 6.390625 15.949219 6.511719 16.132812 C 6.621094 16.320312 6.8125 16.402344 7.003906 16.347656 L 11.632812 15.117188 L 10.339844 39.175781 L 17.011719 39.144531 "/>
<path style=" stroke:none;fill-rule:nonzero;fill:rgb(13.729858%,12.159729%,12.548828%);fill-opacity:1;" d="M 27.949219 34.210938 L 39.238281 34.210938 L 39.238281 31.046875 L 31.472656 31.046875 L 32.242188 30.054688 C 33.164062 28.84375 34.054688 27.601562 34.882812 26.320312 C 35.679688 25.082031 36.394531 23.796875 37.015625 22.554688 C 37.640625 21.308594 38.113281 20.105469 38.46875 18.894531 C 38.824219 17.722656 39.003906 16.585938 39.003906 15.523438 C 39.003906 14.632812 38.886719 13.816406 38.675781 13.035156 C 38.4375 12.25 38.082031 11.578125 37.640625 10.972656 C 37.164062 10.402344 36.570312 9.941406 35.890625 9.585938 C 35.175781 9.265625 34.347656 9.089844 33.398438 9.089844 C 32.421875 9.089844 31.503906 9.230469 30.703125 9.476562 C 29.875 9.761719 29.105469 10.117188 28.421875 10.546875 L 28.746094 14.167969 C 29.222656 13.707031 29.8125 13.246094 30.496094 12.855469 C 31.175781 12.464844 31.949219 12.25 32.808594 12.25 C 33.726562 12.25 34.46875 12.605469 34.972656 13.351562 C 35.476562 14.101562 35.742188 15.023438 35.742188 16.195312 C 35.742188 17.011719 35.59375 17.902344 35.296875 18.859375 C 34.972656 19.820312 34.558594 20.851562 33.992188 21.878906 C 33.429688 22.945312 32.78125 24.046875 32.039062 25.21875 C 31.269531 26.394531 30.4375 27.601562 29.519531 28.84375 L 27.949219 31.011719 L 27.949219 34.210938 "/>
<path style=" stroke:none;fill-rule:nonzero;fill:rgb(13.729858%,12.159729%,12.548828%);fill-opacity:1;" d="M 41.804688 38.472656 L 44.355469 38.472656 L 46.460938 29.949219 L 43.316406 29.949219 L 41.804688 38.472656 "/>
<path style=" stroke:none;fill-rule:nonzero;fill:rgb(13.729858%,12.159729%,12.548828%);fill-opacity:1;" d="M 49.816406 33.644531 C 50.265625 33.84375 50.785156 34.039062 51.402344 34.183594 C 51.996094 34.351562 52.660156 34.4375 53.347656 34.4375 C 55.101562 34.4375 56.453125 33.8125 57.402344 32.589844 C 58.351562 31.339844 58.824219 29.664062 58.824219 27.53125 C 58.824219 26.5625 58.707031 25.683594 58.46875 24.941406 C 58.207031 24.175781 57.875 23.550781 57.472656 23.039062 C 57.070312 22.527344 56.574219 22.15625 56.023438 21.902344 C 55.457031 21.644531 54.867188 21.503906 54.246094 21.503906 C 53.867188 21.503906 53.511719 21.535156 53.207031 21.589844 C 52.871094 21.617188 52.585938 21.703125 52.375 21.789062 L 52.375 16.785156 L 58.039062 16.785156 L 58.039062 14.371094 L 50.050781 14.371094 L 50.050781 24.488281 C 50.457031 24.34375 50.882812 24.207031 51.308594 24.0625 C 51.734375 23.921875 52.234375 23.863281 52.777344 23.863281 C 53.914062 23.863281 54.769531 24.234375 55.363281 24.941406 C 55.929688 25.65625 56.214844 26.621094 56.214844 27.785156 C 56.214844 29.007812 55.929688 30.003906 55.335938 30.773438 C 54.746094 31.566406 53.941406 31.96875 52.921875 31.96875 C 52.328125 31.96875 51.78125 31.851562 51.285156 31.652344 C 50.785156 31.457031 50.335938 31.222656 49.957031 30.96875 L 49.816406 33.644531 "/>
<path style=" stroke:none;fill-rule:nonzero;fill:rgb(13.729858%,12.159729%,12.548828%);fill-opacity:1;" d="M 67.527344 34.210938 L 70.613281 34.210938 L 70.613281 25.183594 L 70.667969 25.183594 L 75.738281 34.210938 L 79.414062 34.210938 L 73.246094 24.191406 L 78.882812 15.984375 L 75.472656 15.984375 L 70.613281 23.375 L 70.613281 7.558594 L 67.527344 7.558594 L 67.527344 34.210938 "/>
<path style=" stroke:none;fill-rule:nonzero;fill:rgb(13.729858%,12.159729%,12.548828%);fill-opacity:1;" d="M 82.792969 34.210938 L 85.878906 34.210938 L 85.878906 23.054688 C 85.878906 21.703125 86.117188 20.671875 86.558594 19.925781 C 87.007812 19.179688 87.6875 18.824219 88.546875 18.824219 C 89.96875 18.824219 90.683594 19.960938 90.683594 22.199219 L 90.683594 34.210938 L 93.765625 34.210938 L 93.765625 23.054688 C 93.765625 21.703125 94.003906 20.671875 94.445312 19.925781 C 94.890625 19.179688 95.570312 18.824219 96.429688 18.824219 C 97.851562 18.824219 98.566406 19.960938 98.566406 22.199219 L 98.566406 34.210938 L 101.648438 34.210938 L 101.648438 22.273438 C 101.648438 20.140625 101.289062 18.507812 100.582031 17.40625 C 99.839844 16.304688 98.742188 15.734375 97.261719 15.734375 C 96.285156 15.734375 95.480469 16.019531 94.859375 16.585938 C 94.238281 17.1875 93.765625 17.867188 93.378906 18.609375 C 93.230469 18.257812 93.050781 17.902344 92.84375 17.542969 C 92.636719 17.222656 92.371094 16.90625 92.074219 16.621094 C 91.777344 16.371094 91.417969 16.160156 91.035156 15.984375 C 90.648438 15.800781 90.179688 15.734375 89.671875 15.734375 C 88.722656 15.734375 87.953125 16.019531 87.332031 16.585938 C 86.707031 17.1875 86.203125 17.902344 85.878906 18.789062 L 85.820312 18.789062 C 85.820312 18.683594 85.820312 18.46875 85.820312 18.1875 C 85.789062 17.9375 85.789062 17.652344 85.789062 17.367188 C 85.761719 17.085938 85.761719 16.800781 85.761719 16.550781 C 85.730469 16.304688 85.730469 16.085938 85.730469 15.984375 L 82.675781 15.984375 C 82.707031 16.480469 82.738281 17.011719 82.765625 17.582031 C 82.792969 18.148438 82.792969 18.753906 82.792969 19.425781 L 82.792969 34.210938 "/>
</g>
</svg>
