<svg width="171" height="58" xmlns="http://www.w3.org/2000/svg">
 <!-- Created with Method Draw - http://github.com/duopixel/Method-Draw/ -->

 <g>
  <title>background</title>
  <rect fill="#fff" id="canvas_background" height="60" width="173" y="-1" x="-1"/>
  <g display="none" overflow="visible" y="0" x="0" height="100%" width="100%" id="canvasGrid">
   <rect fill="url(#gridpattern)" stroke-width="0" y="0" x="0" height="100%" width="100%"/>
  </g>
 </g>
 <g>
  <title>Layer 1</title>
  <metadata id="svg_13">image/svg+xml</metadata>

  <metadata id="svg_47">image/svg+xml</metadata>

  <g id="svg_49">
   <path fill="#ffffff" fill-rule="nonzero" id="svg_46" d="m0.69133,57.04522l169.27873,0l0,-56.42723l-169.27873,0l0,56.42723zm0,0"/>
   <path fill="none" stroke="#211e1e" stroke-width="0.2835" stroke-miterlimit="4" id="svg_45" d="m0.69133,57.04522l169.27873,0l0,-56.42723l-169.27873,0l0,56.42723"/>
   <path fill="#211e1e" fill-rule="nonzero" id="svg_44" d="m3.52162,48.57985c0,3.12073 2.51928,5.64013 5.63986,5.64013l152.34361,0c3.11539,0 5.64503,-2.5194 5.64503,-5.64013l0,-39.49647c0,-3.11556 -2.52964,-5.64532 -5.64503,-5.64532l-152.34361,0c-3.12058,0 -5.63986,2.52976 -5.63986,5.64532l0,39.49647"/>
   <path fill="#ffffff" fill-rule="nonzero" id="svg_43" d="m5.4033,48.57985c0,2.08394 1.67952,3.75836 3.753,3.75836l152.33841,0c2.08386,0 3.77373,-1.67442 3.77373,-3.75836l0,-39.49647c0,-2.07877 -1.68987,-3.75836 -3.77373,-3.75836l-152.33841,0c-2.07348,0 -3.753,1.67959 -3.753,3.75836l0,39.49647"/>
   <path fill="#1966ba" fill-rule="nonzero" id="svg_42" d="m10.09974,47.63637l37.61806,0l0,-37.61989l-37.61806,0l0,37.61989zm0,0"/>
   <path fill="#ffffff" fill-rule="nonzero" id="svg_41" d="m13.85792,43.87801l30.09652,0l0,-30.09798l-30.09652,0l0,30.09798zm0,0"/>
   <path fill="#211e1e" fill-rule="nonzero" id="svg_40" d="m32.45183,41.05276l0,-1.73662l-0.01035,-0.22291c-0.00519,-0.13997 -0.11406,-0.23846 -0.18143,-0.26956c-0.03111,-0.02592 -0.07258,-0.05184 -0.09849,-0.07775c-0.03628,-0.03111 -0.07258,-0.06739 -0.08813,-0.10369c-0.07258,-0.11923 -0.0622,-0.30068 -0.0622,-0.44065l0,-4.20936c0.02592,0.35251 0.10368,0.71538 0.17624,1.04198c0.08813,0.2903 0.19698,0.59097 0.33176,0.86052c0.15033,0.26957 0.33695,0.5184 0.55466,0.74131c0.17624,0.1918 0.39914,0.36806 0.63241,0.48211c0.23326,0.12441 0.53392,0.13997 0.762,0.04666c0.16588,-0.0622 0.30584,-0.15552 0.43025,-0.27475c0.50281,-0.53395 0.49245,-1.34264 0.34212,-1.99063c-0.03628,-0.18144 -0.22809,-0.73093 -0.29029,-0.89682c-0.16069,-0.46656 -0.29029,-0.93831 -0.37841,-1.42559c-0.1918,-0.98495 -0.29029,-2.97559 -0.29029,-3.9398c0.01035,-0.18663 0.01035,-0.94348 0.01555,-1.13529c0.02074,-0.23846 0.08294,-0.91756 0.09849,-1.15603c0.04666,-0.52875 0.05702,-1.29079 -0.02592,-1.82992c-0.02592,-0.2281 -0.07258,-0.56505 -0.11404,-0.78278c-0.01555,-0.07775 -0.10886,-0.451 -0.13477,-0.54431c-0.03111,-0.11405 -0.21771,-0.85535 -0.25401,-0.97459c-0.00518,-0.01555 -0.1296,-0.451 -0.1296,-0.53913c0,-0.1296 0.03111,-0.2903 0.08813,-0.39916l0.05701,-0.11405c0.02074,-0.04147 0.01035,-0.12441 0.01035,-0.16589c0,-0.07258 -0.01035,-0.20217 -0.03111,-0.26438c-0.03111,-0.08813 -0.13996,-0.16589 -0.2229,-0.17625c-0.03628,-0.01035 -0.08813,-0.02592 -0.11404,-0.03628c-0.05183,-0.04147 -0.27473,-0.36806 -0.31102,-0.43027c-0.10368,-0.11405 -0.21773,-0.21253 -0.33695,-0.2903c-0.10886,-0.06221 -0.2229,-0.10369 -0.34731,-0.13997c-0.16069,-0.02074 -0.35248,0 -0.51836,0l0,-1.52926c0,-0.85535 -0.27992,-1.49816 -1.28556,-1.49816l-6.25154,-0.03111c-0.4147,0 -0.69462,0.10369 -1.00046,0.34733c-0.29029,0.21255 -0.39914,0.74649 -0.39914,1.09381l0,20.22775c0,0.0985 0,0.21253 -0.04147,0.30067c-0.04147,0.08813 -0.09849,0.1607 -0.20216,0.21255l-0.13479,0.07258c-0.07258,0.04666 -0.16588,0.06739 -0.16588,0.18144l-0.01035,0.17106l-0.02592,1.84549l9.95788,0"/>
   <path fill="#ffffff" fill-rule="nonzero" id="svg_39" d="m30.97966,26.07116l0,-5.12173l-6.52108,0l0,5.12173l6.52108,0"/>
   <path fill="#ffffff" fill-rule="nonzero" id="svg_38" d="m30.97966,19.7312l0,-1.68997l-6.52108,0l0,1.68997l6.52108,0"/>
   <path fill="#ffffff" fill-rule="nonzero" id="svg_37" d="m32.44145,23.06966l0.59613,-0.20217c0.0622,-0.03628 0.15033,-0.04666 0.20217,-0.0985c0.07258,-0.05184 0.08294,-0.1296 0.08294,-0.21255l0,-0.65836l-0.39397,-0.25402l0,-0.45619l-0.48727,0.26957l0,1.6122"/>
   <path fill="#ffffff" fill-rule="nonzero" id="svg_36" d="m32.00603,21.30712l1.18188,-0.57543c-0.02592,-0.18144 -0.12441,-0.36806 -0.2229,-0.49766c-0.0622,-0.07775 -0.14514,-0.1607 -0.22289,-0.21253c-0.07775,-0.04147 -0.1607,-0.08294 -0.24364,-0.10369c-0.13996,-0.04666 -0.35767,-0.03628 -0.49245,0l0,1.38929"/>
   <path fill="#ffffff" fill-rule="nonzero" id="svg_35" d="m33.62334,22.35427c-0.01035,0.10369 -0.02592,0.26956 -0.02592,0.37843l-0.02074,1.39966c-0.03111,0.39399 -0.07775,0.78796 -0.15551,1.18195c-0.06739,0.35769 -0.16588,0.78796 -0.25918,1.14046l-0.30584,1.15084c-0.11404,0.39916 -0.20735,0.81907 -0.30065,1.23378c-0.0622,0.254 -0.12441,0.5806 -0.16588,0.85016c-0.03628,0.2903 -0.05702,0.69984 -0.07258,1.00051c-0.01555,0.32141 -0.03111,0.72057 -0.04666,1.05234c-0.01555,0.28511 -0.03111,0.70502 -0.03628,0.99532c-0.01035,0.27475 -0.01035,0.61171 0,0.88646c0.01555,0.33695 0.05702,0.67909 0.11922,1.00568c0.09849,0.43027 0.2851,0.90719 0.50282,1.28043c0.08813,0.16071 0.22289,0.37324 0.34212,0.52358c0.15551,0.18663 0.33693,0.33696 0.54947,0.45101c0.18143,0.10367 0.4458,0.13997 0.65315,0.02592c0.11404,-0.05703 0.2229,-0.15552 0.30584,-0.25402c0.11404,-0.13478 0.21252,-0.31103 0.26955,-0.48729c0.12441,-0.37842 0.0933,-0.80869 0.01035,-1.19749c-0.05702,-0.26438 -0.17105,-0.63244 -0.24882,-0.88127c-0.11922,-0.39399 -0.3162,-1.01606 -0.39914,-1.41522c-0.11404,-0.48729 -0.18661,-1.02642 -0.23845,-1.51889c-0.04666,-0.3888 -0.07775,-0.81388 -0.08294,-1.20786c-0.00518,-0.37324 0.02074,-0.99013 0.03628,-1.36337c0.03111,-0.75168 0.07258,-1.50334 0.08813,-2.24465c0.01035,-0.31622 0.02074,-0.75685 0.00518,-1.07307c-0.00518,-0.34733 -0.04147,-0.68946 -0.0933,-1.03679c-0.03628,-0.28511 -0.0933,-0.57541 -0.15033,-0.85535c-0.05183,-0.22291 -0.11404,-0.46138 -0.17105,-0.6791c-0.03111,-0.0985 -0.07775,-0.25402 -0.10886,-0.34214"/>
   <path fill="#ffffff" fill-rule="nonzero" id="svg_34" d="m32.00603,23.46364l0,6.60434c0.10886,-0.7413 0.32139,-1.70552 0.55983,-2.46756c0.06739,-0.20736 0.29029,-0.94866 0.34731,-1.15083c0.09849,-0.36288 0.18662,-0.74131 0.24882,-1.11456c0.03628,-0.27475 0.07775,-0.80869 0.10368,-1.09381c0.01035,-0.0985 0.03628,-0.51839 0.04666,-0.61688c0.00518,-0.07775 0.00518,-0.1607 0.00518,-0.22809c0,-0.03628 0,-0.0985 -0.02592,-0.1296c-0.01035,-0.02074 -0.03628,-0.04147 -0.05702,-0.05703c-0.02074,-0.00518 -0.05702,-0.00518 -0.08294,-0.00518c-0.05183,0 -0.11404,0.01555 -0.16588,0.02074l-0.13477,0.04147l-0.84494,0.19698"/>
  </g>
  <text xml:space="preserve" text-anchor="start" font-family="sans-serif" font-size="30" id="svg_50" y="39.33898" x="67.02543" stroke-width="0" stroke="#000" fill="#000000">param(text1)</text>
 </g>
</svg>