<?xml version="1.0" encoding="UTF-8"?>
<svg xmlns="http://www.w3.org/2000/svg" xmlns:xlink="http://www.w3.org/1999/xlink" width="73pt" height="30pt" viewBox="0 0 73 30" version="1.1">
<g id="surface1">
<path style=" stroke:none;fill-rule:nonzero;fill:rgb(13.729858%,12.159729%,12.548828%);fill-opacity:1;" d="M 0.9375 18.027344 L 14.035156 18.027344 L 14.011719 1.007812 L 72.042969 1 L 72.101562 19.761719 L 55.613281 19.761719 C 55.605469 19.683594 55.605469 19.589844 55.597656 19.519531 C 55.160156 13.101562 49.585938 8.378906 43.15625 8.359375 C 36.714844 8.34375 31.089844 13.050781 30.613281 19.488281 C 30.609375 19.570312 30.609375 19.675781 30.601562 19.761719 L 0.9375 19.761719 L 0.9375 18.027344 "/>
<path style=" stroke:none;fill-rule:nonzero;fill:rgb(13.729858%,12.159729%,12.548828%);fill-opacity:1;" d="M 33.539062 20.90625 L 31.78125 20.90625 C 31.78125 20.488281 31.78125 19.878906 31.824219 19.46875 C 32.355469 13.734375 37.332031 9.53125 43.078125 9.53125 C 48.808594 9.53125 53.640625 13.816406 54.375 19.511719 C 54.425781 19.914062 54.453125 20.496094 54.46875 20.90625 L 52.675781 20.90625 C 52.65625 20.496094 52.617188 19.914062 52.554688 19.519531 C 51.820312 14.84375 47.839844 11.347656 43.105469 11.332031 C 38.347656 11.316406 34.230469 14.746094 33.617188 19.46875 C 33.566406 19.878906 33.546875 20.488281 33.539062 20.90625 "/>
<path style=" stroke:none;fill-rule:nonzero;fill:rgb(13.729858%,12.159729%,12.548828%);fill-opacity:1;" d="M 43.097656 12.535156 C 47.714844 12.535156 51.472656 16.265625 51.503906 20.878906 C 51.523438 25.539062 47.765625 29.34375 43.097656 29.34375 C 38.449219 29.34375 34.699219 25.542969 34.71875 20.886719 C 34.742188 16.269531 38.484375 12.535156 43.097656 12.535156 "/>
<path style=" stroke:none;fill-rule:nonzero;fill:rgb(100%,100%,100%);fill-opacity:1;" d="M 43.085938 18.128906 C 44.625 18.128906 45.886719 19.367188 45.902344 20.90625 C 45.914062 22.460938 44.660156 23.730469 43.097656 23.738281 C 41.53125 23.75 40.25 22.476562 40.257812 20.90625 C 40.269531 19.359375 41.535156 18.128906 43.085938 18.128906 "/>
</g>
</svg>
